<svg width="4000" height="2000" viewBox="-0.025 -0.025 2.05 1.05" xmlns="http://www.w3.org/2000/svg">
  <style>
    path {
      fill: none;
      stroke-linecap: round;
      stroke-opacity: 0.4;
    }

    text {
      text-anchor: middle;
      alignment-baseline: hanging;
    }
  </style>
  <g opacity="0.4">
<path d="M1.411 0.358 Q1.096 0.599 1.497 0.805" stroke="hsl(0.0,100%,35%)" stroke-width="0.01443"></path>
<path d="M1.411 0.358 Q0.948 0.318 0.767 0.535" stroke="hsl(0.0,100%,35%)" stroke-width="0.01443"></path>
<path d="M1.411 0.358 Q1.631 0.331 1.627 0.218" stroke="hsl(0.0,100%,35%)" stroke-width="0.04330"></path>
<path d="M1.411 0.358 Q1.332 0.500 1.591 0.570" stroke="hsl(0.0,100%,35%)" stroke-width="0.01443"></path>
<path d="M0.329 0.392 Q0.897 0.591 1.411 0.358" stroke="hsl(0.0,100%,35%)" stroke-width="0.01443"></path>
<path d="M0.329 0.392 Q0.433 0.551 0.767 0.535" stroke="hsl(0.0,100%,35%)" stroke-width="0.02887"></path>
<path d="M0.329 0.392 Q0.595 0.404 0.678 0.277" stroke="hsl(0.0,100%,35%)" stroke-width="0.01443"></path>
<path d="M1.453 0.961 Q1.835 0.793 1.591 0.570" stroke="hsl(180.0,100%,35%)" stroke-width="0.01443"></path>
<path d="M1.453 0.961 Q1.600 0.892 1.497 0.805" stroke="hsl(180.0,100%,35%)" stroke-width="0.01443"></path>
<path d="M1.453 0.961 Q1.451 0.611 0.767 0.535" stroke="hsl(180.0,100%,35%)" stroke-width="0.01443"></path>
<path d="M0.975 0.703 Q1.469 0.618 1.411 0.358" stroke="hsl(180.0,100%,35%)" stroke-width="0.01443"></path>
<path d="M0.975 0.703 Q1.390 0.760 1.591 0.570" stroke="hsl(180.0,100%,35%)" stroke-width="0.02887"></path>
<path d="M0.975 0.703 Q1.142 0.678 1.131 0.591" stroke="hsl(180.0,100%,35%)" stroke-width="0.02887"></path>
<path d="M0.436 0.742 Q0.767 0.705 0.767 0.535" stroke="hsl(0.0,100%,35%)" stroke-width="0.04330"></path>
<path d="M0.436 0.742 Q0.513 0.637 0.325 0.576" stroke="hsl(0.0,100%,35%)" stroke-width="0.01443"></path>
<path d="M0.436 0.742 Q1.231 0.745 1.411 0.358" stroke="hsl(0.0,100%,35%)" stroke-width="0.02887"></path>
</g>
<text x="1.411" y="0.312" font-size="0.091287" fill="hsl(0.0,100%,20%)">cnorthrop</text>
<text x="1.497" y="0.785" font-size="0.040825" fill="hsl(180.0,100%,20%)">cclao</text>
<text x="0.767" y="0.497" font-size="0.076376" fill="hsl(0.0,100%,20%)">syoussefi</text>
<text x="1.627" y="0.193" font-size="0.050000" fill="hsl(0.0,100%,20%)">mark</text>
<text x="1.591" y="0.541" font-size="0.057735" fill="hsl(180.0,100%,20%)">abdolrashidi</text>
<text x="0.329" y="0.363" font-size="0.057735" fill="hsl(0.0,100%,20%)">jh.eun</text>
<text x="0.678" y="0.263" font-size="0.028868" fill="hsl(0.0,100%,20%)">a.annestrand</text>
<text x="1.453" y="0.936" font-size="0.050000" fill="hsl(180.0,100%,20%)">panfeng.hou</text>
<text x="0.975" y="0.671" font-size="0.064550" fill="hsl(180.0,100%,20%)">ynovikov</text>
<text x="1.131" y="0.571" font-size="0.040825" fill="hsl(180.0,100%,20%)">geofflang</text>
<text x="0.436" y="0.707" font-size="0.070711" fill="hsl(0.0,100%,20%)">yuxiang.qian</text>
<text x="0.325" y="0.562" font-size="0.028868" fill="hsl(0.0,100%,20%)">yuxinhu</text>
</svg>
