<svg width="4000" height="2000" viewBox="-0.025 -0.025 2.05 1.05" xmlns="http://www.w3.org/2000/svg">
  <style>
    path {
      fill: none;
      stroke-linecap: round;
      stroke-opacity: 0.4;
    }

    text {
      text-anchor: middle;
      alignment-baseline: hanging;
    }
  </style>
  <g opacity="0.4">
<path d="M1.151 0.456 Q1.244 0.329 1.017 0.256" stroke="hsl(0.0,100%,35%)" stroke-width="0.01128"></path>
<path d="M1.151 0.456 Q1.006 0.364 0.794 0.414" stroke="hsl(0.0,100%,35%)" stroke-width="0.01340"></path>
<path d="M1.151 0.456 Q0.660 0.524 0.685 0.778" stroke="hsl(0.0,100%,35%)" stroke-width="0.00106"></path>
<path d="M1.151 0.456 Q1.486 0.402 1.454 0.227" stroke="hsl(0.0,100%,35%)" stroke-width="0.00071"></path>
<path d="M1.151 0.456 Q0.697 0.299 0.291 0.486" stroke="hsl(0.0,100%,35%)" stroke-width="0.00071"></path>
<path d="M1.151 0.456 Q1.175 0.332 0.939 0.294" stroke="hsl(0.0,100%,35%)" stroke-width="0.00071"></path>
<path d="M1.017 0.256 Q0.779 0.290 0.794 0.414" stroke="hsl(0.0,100%,35%)" stroke-width="0.00917"></path>
<path d="M1.017 0.256 Q1.014 0.312 1.124 0.326" stroke="hsl(0.0,100%,35%)" stroke-width="0.00635"></path>
<path d="M1.017 0.256 Q0.976 0.452 1.351 0.515" stroke="hsl(0.0,100%,35%)" stroke-width="0.00740"></path>
<path d="M1.017 0.256 Q1.149 0.190 1.049 0.111" stroke="hsl(0.0,100%,35%)" stroke-width="0.00035"></path>
<path d="M1.017 0.256 Q0.990 0.284 1.039 0.303" stroke="hsl(0.0,100%,35%)" stroke-width="0.00282"></path>
<path d="M1.017 0.256 Q0.433 0.451 0.685 0.778" stroke="hsl(0.0,100%,35%)" stroke-width="0.00035"></path>
<path d="M1.017 0.256 Q0.633 0.618 1.257 0.885" stroke="hsl(0.0,100%,35%)" stroke-width="0.00035"></path>
<path d="M1.017 0.256 Q0.469 0.226 0.291 0.486" stroke="hsl(0.0,100%,35%)" stroke-width="0.00035"></path>
<path d="M1.017 0.256 Q1.000 0.190 0.869 0.184" stroke="hsl(0.0,100%,35%)" stroke-width="0.00071"></path>
<path d="M1.017 0.256 Q1.118 0.304 1.235 0.266" stroke="hsl(0.0,100%,35%)" stroke-width="0.00071"></path>
<path d="M1.017 0.256 Q0.701 0.671 1.441 0.916" stroke="hsl(0.0,100%,35%)" stroke-width="0.00071"></path>
<path d="M1.017 0.256 Q0.503 0.611 1.084 0.940" stroke="hsl(0.0,100%,35%)" stroke-width="0.00035"></path>
<path d="M1.017 0.256 Q1.010 0.108 0.720 0.078" stroke="hsl(0.0,100%,35%)" stroke-width="0.00035"></path>
<path d="M1.017 0.256 Q1.053 0.121 0.798 0.073" stroke="hsl(0.0,100%,35%)" stroke-width="0.00035"></path>
<path d="M0.794 0.414 Q1.274 0.452 1.454 0.227" stroke="hsl(180.0,100%,35%)" stroke-width="0.01340"></path>
<path d="M0.794 0.414 Q0.698 0.383 0.615 0.423" stroke="hsl(180.0,100%,35%)" stroke-width="0.00106"></path>
<path d="M0.794 0.414 Q0.485 0.349 0.291 0.486" stroke="hsl(180.0,100%,35%)" stroke-width="0.00494"></path>
<path d="M0.794 0.414 Q1.354 0.374 1.398 0.092" stroke="hsl(180.0,100%,35%)" stroke-width="0.01692"></path>
<path d="M0.794 0.414 Q1.032 0.379 1.017 0.256" stroke="hsl(180.0,100%,35%)" stroke-width="0.01058"></path>
<path d="M0.794 0.414 Q0.741 0.279 0.465 0.276" stroke="hsl(180.0,100%,35%)" stroke-width="0.00388"></path>
<path d="M0.794 0.414 Q1.106 0.313 0.976 0.139" stroke="hsl(180.0,100%,35%)" stroke-width="0.00035"></path>
<path d="M0.794 0.414 Q0.631 0.501 0.765 0.600" stroke="hsl(180.0,100%,35%)" stroke-width="0.01022"></path>
<path d="M0.794 0.414 Q0.930 0.295 0.728 0.203" stroke="hsl(180.0,100%,35%)" stroke-width="0.00247"></path>
<path d="M0.794 0.414 Q0.649 0.742 1.257 0.885" stroke="hsl(180.0,100%,35%)" stroke-width="0.00035"></path>
<path d="M0.794 0.414 Q0.448 0.574 0.685 0.778" stroke="hsl(180.0,100%,35%)" stroke-width="0.01058"></path>
<path d="M0.794 0.414 Q0.777 0.483 0.907 0.506" stroke="hsl(180.0,100%,35%)" stroke-width="0.00141"></path>
<path d="M0.794 0.414 Q1.126 0.421 1.213 0.261" stroke="hsl(180.0,100%,35%)" stroke-width="0.00071"></path>
<path d="M0.794 0.414 Q1.069 0.245 0.798 0.073" stroke="hsl(180.0,100%,35%)" stroke-width="0.00035"></path>
<path d="M0.794 0.414 Q0.504 0.466 0.542 0.619" stroke="hsl(180.0,100%,35%)" stroke-width="0.00035"></path>
<path d="M0.794 0.414 Q0.480 0.667 0.905 0.876" stroke="hsl(180.0,100%,35%)" stroke-width="0.00035"></path>
<path d="M0.794 0.414 Q0.439 0.434 0.399 0.612" stroke="hsl(180.0,100%,35%)" stroke-width="0.00035"></path>
<path d="M0.794 0.414 Q1.006 0.407 1.039 0.303" stroke="hsl(180.0,100%,35%)" stroke-width="0.00035"></path>
<path d="M0.685 0.778 Q0.977 0.483 0.465 0.276" stroke="hsl(180.0,100%,35%)" stroke-width="0.00811"></path>
<path d="M0.685 0.778 Q1.031 0.618 0.794 0.414" stroke="hsl(180.0,100%,35%)" stroke-width="0.00529"></path>
<path d="M0.685 0.778 Q0.717 0.871 0.905 0.876" stroke="hsl(180.0,100%,35%)" stroke-width="0.01128"></path>
<path d="M0.685 0.778 Q1.269 0.583 1.017 0.256" stroke="hsl(180.0,100%,35%)" stroke-width="0.00212"></path>
<path d="M0.685 0.778 Q0.867 0.705 0.765 0.600" stroke="hsl(180.0,100%,35%)" stroke-width="0.00212"></path>
<path d="M0.685 0.778 Q1.590 0.578 1.398 0.092" stroke="hsl(180.0,100%,35%)" stroke-width="0.00141"></path>
<path d="M0.685 0.778 Q1.511 0.656 1.454 0.227" stroke="hsl(180.0,100%,35%)" stroke-width="0.00141"></path>
<path d="M0.685 0.778 Q0.741 0.670 0.542 0.619" stroke="hsl(180.0,100%,35%)" stroke-width="0.00071"></path>
<path d="M0.685 0.778 Q0.721 0.553 0.291 0.486" stroke="hsl(180.0,100%,35%)" stroke-width="0.00071"></path>
<path d="M0.685 0.778 Q0.675 0.638 0.399 0.612" stroke="hsl(180.0,100%,35%)" stroke-width="0.00035"></path>
<path d="M0.685 0.778 Q0.973 0.760 1.000 0.616" stroke="hsl(180.0,100%,35%)" stroke-width="0.00035"></path>
<path d="M1.454 0.227 Q1.655 0.003 1.263 -0.144" stroke="hsl(180.0,100%,35%)" stroke-width="0.00035"></path>
<path d="M1.454 0.227 Q1.534 0.148 1.398 0.092" stroke="hsl(180.0,100%,35%)" stroke-width="0.02080"></path>
<path d="M1.454 0.227 Q0.974 0.188 0.794 0.414" stroke="hsl(180.0,100%,35%)" stroke-width="0.03526"></path>
<path d="M1.454 0.227 Q0.811 0.276 0.765 0.600" stroke="hsl(180.0,100%,35%)" stroke-width="0.01199"></path>
<path d="M1.454 0.227 Q0.921 0.053 0.465 0.276" stroke="hsl(180.0,100%,35%)" stroke-width="0.00106"></path>
<path d="M1.454 0.227 Q0.628 0.348 0.685 0.778" stroke="hsl(180.0,100%,35%)" stroke-width="0.00106"></path>
<path d="M1.454 0.227 Q1.110 0.069 0.728 0.203" stroke="hsl(180.0,100%,35%)" stroke-width="0.00035"></path>
<path d="M1.454 0.227 Q1.212 0.154 1.017 0.256" stroke="hsl(180.0,100%,35%)" stroke-width="0.00247"></path>
<path d="M1.454 0.227 Q0.665 0.124 0.291 0.486" stroke="hsl(180.0,100%,35%)" stroke-width="0.00035"></path>
<path d="M0.291 0.486 Q0.254 0.711 0.685 0.778" stroke="hsl(180.0,100%,35%)" stroke-width="0.00388"></path>
<path d="M0.291 0.486 Q0.310 0.603 0.542 0.619" stroke="hsl(180.0,100%,35%)" stroke-width="0.00035"></path>
<path d="M0.291 0.486 Q0.166 0.447 0.062 0.500" stroke="hsl(180.0,100%,35%)" stroke-width="0.00212"></path>
<path d="M0.291 0.486 Q0.600 0.551 0.794 0.414" stroke="hsl(180.0,100%,35%)" stroke-width="0.00494"></path>
<path d="M0.291 0.486 Q0.547 0.416 0.465 0.276" stroke="hsl(180.0,100%,35%)" stroke-width="0.00212"></path>
<path d="M0.291 0.486 Q1.080 0.589 1.454 0.227" stroke="hsl(180.0,100%,35%)" stroke-width="0.00035"></path>
<path d="M0.291 0.486 Q0.437 0.638 0.765 0.600" stroke="hsl(180.0,100%,35%)" stroke-width="0.00212"></path>
<path d="M0.291 0.486 Q0.838 0.516 1.017 0.256" stroke="hsl(180.0,100%,35%)" stroke-width="0.00317"></path>
<path d="M0.291 0.486 Q1.160 0.511 1.398 0.092" stroke="hsl(180.0,100%,35%)" stroke-width="0.00071"></path>
<path d="M0.939 0.294 Q1.251 0.363 1.454 0.227" stroke="hsl(180.0,100%,35%)" stroke-width="0.00388"></path>
<path d="M0.939 0.294 Q0.770 0.325 0.794 0.414" stroke="hsl(180.0,100%,35%)" stroke-width="0.01587"></path>
<path d="M0.939 0.294 Q1.008 0.290 1.017 0.256" stroke="hsl(180.0,100%,35%)" stroke-width="0.00776"></path>
<path d="M0.939 0.294 Q0.916 0.418 1.151 0.456" stroke="hsl(180.0,100%,35%)" stroke-width="0.00282"></path>
<path d="M0.939 0.294 Q0.461 0.261 0.291 0.486" stroke="hsl(180.0,100%,35%)" stroke-width="0.00106"></path>
<path d="M0.939 0.294 Q0.424 0.485 0.685 0.778" stroke="hsl(180.0,100%,35%)" stroke-width="0.00035"></path>
<path d="M1.123 0.524 Q1.285 0.369 1.017 0.256" stroke="hsl(0.0,100%,35%)" stroke-width="0.00212"></path>
<path d="M1.123 0.524 Q1.047 0.404 0.794 0.414" stroke="hsl(0.0,100%,35%)" stroke-width="0.00353"></path>
<path d="M1.123 0.524 Q0.993 0.268 0.465 0.276" stroke="hsl(0.0,100%,35%)" stroke-width="0.00141"></path>
<path d="M1.123 0.524 Q1.192 0.496 1.151 0.456" stroke="hsl(0.0,100%,35%)" stroke-width="0.00176"></path>
<path d="M1.123 0.524 Q0.701 0.564 0.685 0.778" stroke="hsl(0.0,100%,35%)" stroke-width="0.00106"></path>
<path d="M0.465 0.276 Q0.173 0.571 0.685 0.778" stroke="hsl(180.0,100%,35%)" stroke-width="0.01199"></path>
<path d="M0.465 0.276 Q1.078 0.371 1.398 0.092" stroke="hsl(180.0,100%,35%)" stroke-width="0.00353"></path>
<path d="M0.465 0.276 Q0.209 0.346 0.291 0.486" stroke="hsl(180.0,100%,35%)" stroke-width="0.00141"></path>
<path d="M0.465 0.276 Q0.519 0.411 0.794 0.414" stroke="hsl(180.0,100%,35%)" stroke-width="0.01410"></path>
<path d="M0.465 0.276 Q0.999 0.449 1.454 0.227" stroke="hsl(180.0,100%,35%)" stroke-width="0.00176"></path>
<path d="M0.465 0.276 Q0.757 0.376 1.017 0.256" stroke="hsl(180.0,100%,35%)" stroke-width="0.00071"></path>
<path d="M0.465 0.276 Q0.355 0.498 0.765 0.600" stroke="hsl(180.0,100%,35%)" stroke-width="0.00282"></path>
<path d="M0.465 0.276 Q0.205 0.664 0.905 0.876" stroke="hsl(180.0,100%,35%)" stroke-width="0.00035"></path>
<path d="M0.465 0.276 Q0.558 0.197 0.425 0.134" stroke="hsl(180.0,100%,35%)" stroke-width="0.00035"></path>
<path d="M0.465 0.276 Q0.851 0.228 0.842 0.030" stroke="hsl(180.0,100%,35%)" stroke-width="0.00035"></path>
<path d="M0.465 0.276 Q0.229 0.463 0.542 0.619" stroke="hsl(180.0,100%,35%)" stroke-width="0.00035"></path>
<path d="M0.765 0.600 Q0.583 0.673 0.685 0.778" stroke="hsl(180.0,100%,35%)" stroke-width="0.00247"></path>
<path d="M0.765 0.600 Q1.409 0.551 1.454 0.227" stroke="hsl(180.0,100%,35%)" stroke-width="0.00952"></path>
<path d="M0.765 0.600 Q0.929 0.513 0.794 0.414" stroke="hsl(180.0,100%,35%)" stroke-width="0.01692"></path>
<path d="M0.765 0.600 Q1.167 0.478 1.017 0.256" stroke="hsl(180.0,100%,35%)" stroke-width="0.00071"></path>
<path d="M0.765 0.600 Q1.488 0.473 1.398 0.092" stroke="hsl(180.0,100%,35%)" stroke-width="0.00458"></path>
<path d="M0.765 0.600 Q0.875 0.378 0.465 0.276" stroke="hsl(180.0,100%,35%)" stroke-width="0.00035"></path>
<path d="M0.765 0.600 Q0.619 0.448 0.291 0.486" stroke="hsl(180.0,100%,35%)" stroke-width="0.00035"></path>
<path d="M0.765 0.600 Q1.065 0.394 0.728 0.203" stroke="hsl(180.0,100%,35%)" stroke-width="0.00035"></path>
<path d="M0.765 0.600 Q0.832 0.482 0.615 0.423" stroke="hsl(180.0,100%,35%)" stroke-width="0.00035"></path>
<path d="M1.398 0.092 Q0.493 0.293 0.685 0.778" stroke="hsl(180.0,100%,35%)" stroke-width="0.00212"></path>
<path d="M1.398 0.092 Q0.675 0.220 0.765 0.600" stroke="hsl(180.0,100%,35%)" stroke-width="0.01481"></path>
<path d="M1.398 0.092 Q1.319 0.171 1.454 0.227" stroke="hsl(180.0,100%,35%)" stroke-width="0.00423"></path>
<path d="M1.398 0.092 Q0.839 0.132 0.794 0.414" stroke="hsl(180.0,100%,35%)" stroke-width="0.01199"></path>
<path d="M1.398 0.092 Q0.742 0.101 0.615 0.423" stroke="hsl(180.0,100%,35%)" stroke-width="0.00035"></path>
<path d="M1.398 0.092 Q0.785 -0.003 0.465 0.276" stroke="hsl(180.0,100%,35%)" stroke-width="0.00106"></path>
<path d="M1.398 0.092 Q0.529 0.068 0.291 0.486" stroke="hsl(180.0,100%,35%)" stroke-width="0.00141"></path>
<path d="M1.398 0.092 Q1.076 -0.070 0.689 0.052" stroke="hsl(180.0,100%,35%)" stroke-width="0.00035"></path>
<path d="M1.398 0.092 Q0.525 0.386 0.905 0.876" stroke="hsl(180.0,100%,35%)" stroke-width="0.00035"></path>
<path d="M1.398 0.092 Q0.549 0.185 0.542 0.619" stroke="hsl(180.0,100%,35%)" stroke-width="0.00035"></path>
<path d="M1.398 0.092 Q0.975 0.014 0.728 0.203" stroke="hsl(180.0,100%,35%)" stroke-width="0.00071"></path>
<path d="M1.398 0.092 Q0.821 0.201 0.907 0.506" stroke="hsl(180.0,100%,35%)" stroke-width="0.00035"></path>
<path d="M0.728 0.203 Q0.592 0.322 0.794 0.414" stroke="hsl(180.0,100%,35%)" stroke-width="0.01904"></path>
<path d="M0.728 0.203 Q1.072 0.360 1.454 0.227" stroke="hsl(180.0,100%,35%)" stroke-width="0.00811"></path>
<path d="M0.728 0.203 Q1.152 0.282 1.398 0.092" stroke="hsl(180.0,100%,35%)" stroke-width="0.00176"></path>
<path d="M0.728 0.203 Q0.766 0.127 0.626 0.092" stroke="hsl(180.0,100%,35%)" stroke-width="0.00035"></path>
<path d="M0.728 0.203 Q0.830 0.287 1.017 0.256" stroke="hsl(180.0,100%,35%)" stroke-width="0.00106"></path>
<path d="M0.728 0.203 Q0.924 0.139 0.842 0.030" stroke="hsl(180.0,100%,35%)" stroke-width="0.00035"></path>
<path d="M0.728 0.203 Q0.575 0.390 0.907 0.506" stroke="hsl(180.0,100%,35%)" stroke-width="0.00035"></path>
<path d="M0.615 0.423 Q1.192 0.493 1.454 0.227" stroke="hsl(180.0,100%,35%)" stroke-width="0.01375"></path>
<path d="M0.615 0.423 Q0.712 0.454 0.794 0.414" stroke="hsl(180.0,100%,35%)" stroke-width="0.02574"></path>
<path d="M0.615 0.423 Q0.548 0.542 0.765 0.600" stroke="hsl(180.0,100%,35%)" stroke-width="0.00141"></path>
<path d="M0.615 0.423 Q0.658 0.319 0.465 0.276" stroke="hsl(180.0,100%,35%)" stroke-width="0.00106"></path>
<path d="M0.615 0.423 Q1.271 0.414 1.398 0.092" stroke="hsl(180.0,100%,35%)" stroke-width="0.00176"></path>
<path d="M0.615 0.423 Q0.950 0.420 1.017 0.256" stroke="hsl(180.0,100%,35%)" stroke-width="0.00035"></path>
<path d="M0.615 0.423 Q0.366 0.615 0.685 0.778" stroke="hsl(180.0,100%,35%)" stroke-width="0.00035"></path>
<path d="M0.726 0.477 Q0.810 0.459 0.794 0.414" stroke="hsl(180.0,100%,35%)" stroke-width="0.00423"></path>
<path d="M0.726 0.477 Q0.647 0.546 0.765 0.600" stroke="hsl(180.0,100%,35%)" stroke-width="0.00106"></path>
<path d="M0.726 0.477 Q1.290 0.497 1.454 0.227" stroke="hsl(180.0,100%,35%)" stroke-width="0.00141"></path>
<path d="M0.726 0.477 Q1.048 0.424 1.017 0.256" stroke="hsl(180.0,100%,35%)" stroke-width="0.00035"></path>
<path d="M0.726 0.477 Q0.665 0.787 1.257 0.885" stroke="hsl(180.0,100%,35%)" stroke-width="0.00035"></path>
<path d="M0.726 0.477 Q1.370 0.419 1.398 0.092" stroke="hsl(180.0,100%,35%)" stroke-width="0.00106"></path>
<path d="M1.257 0.885 Q1.640 0.522 1.017 0.256" stroke="hsl(0.0,100%,35%)" stroke-width="0.00071"></path>
<path d="M1.257 0.885 Q1.385 0.626 0.907 0.506" stroke="hsl(0.0,100%,35%)" stroke-width="0.00035"></path>
<path d="M1.257 0.885 Q1.402 0.557 0.794 0.414" stroke="hsl(0.0,100%,35%)" stroke-width="0.00071"></path>
<path d="M1.084 0.940 Q1.598 0.584 1.017 0.256" stroke="hsl(0.0,100%,35%)" stroke-width="0.00035"></path>
<path d="M1.084 0.940 Q1.215 0.947 1.257 0.885" stroke="hsl(0.0,100%,35%)" stroke-width="0.00599"></path>
<path d="M1.084 0.940 Q1.360 0.619 0.794 0.414" stroke="hsl(0.0,100%,35%)" stroke-width="0.00458"></path>
<path d="M1.084 0.940 Q1.343 0.688 0.907 0.506" stroke="hsl(0.0,100%,35%)" stroke-width="0.00176"></path>
<path d="M0.907 0.506 Q1.162 0.403 1.017 0.256" stroke="hsl(0.0,100%,35%)" stroke-width="0.01869"></path>
<path d="M0.907 0.506 Q1.146 0.338 0.869 0.184" stroke="hsl(0.0,100%,35%)" stroke-width="0.00282"></path>
<path d="M0.907 0.506 Q0.924 0.438 0.794 0.414" stroke="hsl(0.0,100%,35%)" stroke-width="0.03490"></path>
<path d="M0.907 0.506 Q0.779 0.766 1.257 0.885" stroke="hsl(0.0,100%,35%)" stroke-width="0.00141"></path>
<path d="M0.907 0.506 Q0.578 0.598 0.685 0.778" stroke="hsl(0.0,100%,35%)" stroke-width="0.00141"></path>
<path d="M0.907 0.506 Q0.846 0.818 1.441 0.916" stroke="hsl(0.0,100%,35%)" stroke-width="0.00071"></path>
<path d="M0.907 0.506 Q0.761 0.525 0.765 0.600" stroke="hsl(0.0,100%,35%)" stroke-width="0.00106"></path>
<path d="M0.907 0.506 Q0.649 0.759 1.084 0.940" stroke="hsl(0.0,100%,35%)" stroke-width="0.00035"></path>
<path d="M0.907 0.506 Q1.484 0.398 1.398 0.092" stroke="hsl(0.0,100%,35%)" stroke-width="0.00071"></path>
<path d="M0.907 0.506 Q0.569 0.458 0.399 0.612" stroke="hsl(0.0,100%,35%)" stroke-width="0.00035"></path>
<path d="M0.905 0.876 Q0.873 0.783 0.685 0.778" stroke="hsl(180.0,100%,35%)" stroke-width="0.01093"></path>
<path d="M0.905 0.876 Q1.219 0.623 0.794 0.414" stroke="hsl(180.0,100%,35%)" stroke-width="0.00106"></path>
<path d="M0.905 0.876 Q0.910 0.558 0.291 0.486" stroke="hsl(180.0,100%,35%)" stroke-width="0.00071"></path>
<path d="M0.905 0.876 Q1.056 0.710 0.765 0.600" stroke="hsl(180.0,100%,35%)" stroke-width="0.00035"></path>
<path d="M0.542 0.619 Q1.392 0.527 1.398 0.092" stroke="hsl(180.0,100%,35%)" stroke-width="0.00176"></path>
<path d="M0.542 0.619 Q0.832 0.567 0.794 0.414" stroke="hsl(180.0,100%,35%)" stroke-width="0.00141"></path>
<path d="M0.542 0.619 Q0.523 0.503 0.291 0.486" stroke="hsl(180.0,100%,35%)" stroke-width="0.00035"></path>
<path d="M0.542 0.619 Q1.070 0.532 1.017 0.256" stroke="hsl(180.0,100%,35%)" stroke-width="0.00035"></path>
<path d="M0.542 0.619 Q0.486 0.727 0.685 0.778" stroke="hsl(180.0,100%,35%)" stroke-width="0.00035"></path>
<path d="M0.399 0.612 Q0.409 0.752 0.685 0.778" stroke="hsl(180.0,100%,35%)" stroke-width="0.00423"></path>
<path d="M0.399 0.612 Q0.755 0.592 0.794 0.414" stroke="hsl(180.0,100%,35%)" stroke-width="0.00599"></path>
<path d="M0.399 0.612 Q0.591 0.679 0.765 0.600" stroke="hsl(180.0,100%,35%)" stroke-width="0.00776"></path>
<path d="M0.399 0.612 Q0.465 0.644 0.542 0.619" stroke="hsl(180.0,100%,35%)" stroke-width="0.00071"></path>
<path d="M0.399 0.612 Q1.314 0.552 1.398 0.092" stroke="hsl(180.0,100%,35%)" stroke-width="0.00353"></path>
<path d="M0.399 0.612 Q0.993 0.557 1.017 0.256" stroke="hsl(180.0,100%,35%)" stroke-width="0.00071"></path>
<path d="M0.399 0.612 Q0.891 0.473 0.728 0.203" stroke="hsl(180.0,100%,35%)" stroke-width="0.00035"></path>
<path d="M0.399 0.612 Q1.235 0.630 1.454 0.227" stroke="hsl(180.0,100%,35%)" stroke-width="0.00106"></path>
<path d="M1.000 0.616 Q1.058 0.474 0.794 0.414" stroke="hsl(180.0,100%,35%)" stroke-width="0.00035"></path>
<path d="M1.000 0.616 Q0.895 0.561 0.765 0.600" stroke="hsl(180.0,100%,35%)" stroke-width="0.00106"></path>
<path d="M1.000 0.616 Q1.618 0.434 1.398 0.092" stroke="hsl(180.0,100%,35%)" stroke-width="0.00071"></path>
<path d="M1.000 0.616 Q1.539 0.512 1.454 0.227" stroke="hsl(180.0,100%,35%)" stroke-width="0.00035"></path>
<path d="M1.000 0.616 Q0.712 0.634 0.685 0.778" stroke="hsl(180.0,100%,35%)" stroke-width="0.00035"></path>
<path d="M1.498 0.799 Q1.454 0.466 0.794 0.414" stroke="hsl(0.0,100%,35%)" stroke-width="0.00035"></path>
<path d="M1.498 0.799 Q1.692 0.431 1.017 0.256" stroke="hsl(0.0,100%,35%)" stroke-width="0.00071"></path>
<path d="M1.498 0.799 Q1.309 0.794 1.257 0.885" stroke="hsl(0.0,100%,35%)" stroke-width="0.00071"></path>
<path d="M1.152 0.045 Q0.514 0.245 0.765 0.600" stroke="hsl(180.0,100%,35%)" stroke-width="0.00071"></path>
<path d="M1.152 0.045 Q1.237 0.118 1.398 0.092" stroke="hsl(180.0,100%,35%)" stroke-width="0.00106"></path>
<path d="M1.152 0.045 Q0.916 0.123 1.017 0.256" stroke="hsl(180.0,100%,35%)" stroke-width="0.00035"></path>
<path d="M1.152 0.045 Q0.678 0.158 0.794 0.414" stroke="hsl(180.0,100%,35%)" stroke-width="0.00035"></path>
<path d="M1.152 0.045 Q0.368 0.094 0.291 0.486" stroke="hsl(180.0,100%,35%)" stroke-width="0.00035"></path>
<path d="M1.124 0.326 Q1.126 0.269 1.017 0.256" stroke="hsl(0.0,100%,35%)" stroke-width="0.00705"></path>
<path d="M1.124 0.326 Q0.888 0.304 0.794 0.414" stroke="hsl(0.0,100%,35%)" stroke-width="0.00529"></path>
<path d="M1.124 0.326 Q1.086 0.466 1.351 0.515" stroke="hsl(0.0,100%,35%)" stroke-width="0.00740"></path>
<path d="M1.124 0.326 Q0.835 0.169 0.465 0.276" stroke="hsl(0.0,100%,35%)" stroke-width="0.00035"></path>
<path d="M1.351 0.515 Q1.392 0.319 1.017 0.256" stroke="hsl(0.0,100%,35%)" stroke-width="0.00247"></path>
<path d="M1.351 0.515 Q1.390 0.375 1.124 0.326" stroke="hsl(0.0,100%,35%)" stroke-width="0.00176"></path>
<path d="M1.351 0.515 Q1.154 0.353 0.794 0.414" stroke="hsl(0.0,100%,35%)" stroke-width="0.00106"></path>
<path d="M0.869 0.184 Q0.886 0.249 1.017 0.256" stroke="hsl(0.0,100%,35%)" stroke-width="0.01904"></path>
<path d="M0.869 0.184 Q0.630 0.353 0.907 0.506" stroke="hsl(0.0,100%,35%)" stroke-width="0.00212"></path>
<path d="M0.869 0.184 Q0.570 0.664 1.441 0.916" stroke="hsl(0.0,100%,35%)" stroke-width="0.00071"></path>
<path d="M0.869 0.184 Q0.648 0.284 0.794 0.414" stroke="hsl(0.0,100%,35%)" stroke-width="0.00917"></path>
<path d="M0.869 0.184 Q0.502 0.612 1.257 0.885" stroke="hsl(0.0,100%,35%)" stroke-width="0.00141"></path>
<path d="M0.869 0.184 Q0.338 0.219 0.291 0.486" stroke="hsl(0.0,100%,35%)" stroke-width="0.00035"></path>
<path d="M1.441 0.916 Q1.757 0.501 1.017 0.256" stroke="hsl(0.0,100%,35%)" stroke-width="0.00106"></path>
<path d="M1.441 0.916 Q1.373 0.864 1.257 0.885" stroke="hsl(0.0,100%,35%)" stroke-width="0.00176"></path>
<path d="M1.441 0.916 Q1.519 0.536 0.794 0.414" stroke="hsl(0.0,100%,35%)" stroke-width="0.00035"></path>
<path d="M1.441 0.916 Q1.501 0.604 0.907 0.506" stroke="hsl(0.0,100%,35%)" stroke-width="0.00035"></path>
<path d="M1.838 0.633 Q1.201 0.367 0.542 0.619" stroke="hsl(0.0,100%,35%)" stroke-width="0.00035"></path>
<path d="M1.838 0.633 Q2.050 0.275 1.398 0.092" stroke="hsl(0.0,100%,35%)" stroke-width="0.00035"></path>
<path d="M1.838 0.633 Q1.729 0.280 1.017 0.256" stroke="hsl(0.0,100%,35%)" stroke-width="0.00035"></path>
<path d="M1.838 0.633 Q1.491 0.315 0.794 0.414" stroke="hsl(0.0,100%,35%)" stroke-width="0.00071"></path>
<path d="M1.838 0.633 Q1.742 0.714 1.879 0.779" stroke="hsl(0.0,100%,35%)" stroke-width="0.00035"></path>
<path d="M1.067 0.030 Q1.104 0.206 1.454 0.227" stroke="hsl(180.0,100%,35%)" stroke-width="0.00035"></path>
<path d="M1.067 0.030 Q1.183 0.128 1.398 0.092" stroke="hsl(180.0,100%,35%)" stroke-width="0.00106"></path>
<path d="M1.067 0.030 Q0.624 0.168 0.794 0.414" stroke="hsl(180.0,100%,35%)" stroke-width="0.00035"></path>
<path d="M1.067 0.030 Q0.460 0.255 0.765 0.600" stroke="hsl(180.0,100%,35%)" stroke-width="0.00071"></path>
<path d="M0.740 0.265 Q0.648 0.350 0.794 0.414" stroke="hsl(180.0,100%,35%)" stroke-width="0.00106"></path>
<path d="M0.740 0.265 Q1.207 0.310 1.398 0.092" stroke="hsl(180.0,100%,35%)" stroke-width="0.00071"></path>
<path d="M0.740 0.265 Q0.484 0.438 0.765 0.600" stroke="hsl(180.0,100%,35%)" stroke-width="0.00035"></path>
<path d="M0.740 0.265 Q0.886 0.316 1.017 0.256" stroke="hsl(180.0,100%,35%)" stroke-width="0.00035"></path>
<path d="M0.740 0.265 Q0.338 0.286 0.291 0.486" stroke="hsl(180.0,100%,35%)" stroke-width="0.00035"></path>
<path d="M0.842 0.030 Q0.165 0.372 0.685 0.778" stroke="hsl(180.0,100%,35%)" stroke-width="0.00035"></path>
<path d="M0.842 0.030 Q1.070 0.172 1.398 0.092" stroke="hsl(180.0,100%,35%)" stroke-width="0.00071"></path>
<path d="M0.842 0.030 Q0.220 0.264 0.542 0.619" stroke="hsl(180.0,100%,35%)" stroke-width="0.00035"></path>
<path d="M0.607 0.325 Q0.867 0.372 1.017 0.256" stroke="hsl(0.0,100%,35%)" stroke-width="0.00071"></path>
<path d="M0.607 0.325 Q0.629 0.407 0.794 0.414" stroke="hsl(0.0,100%,35%)" stroke-width="0.00141"></path>
<path d="M0.607 0.325 Q0.774 0.499 1.151 0.456" stroke="hsl(0.0,100%,35%)" stroke-width="0.00071"></path>
<path d="M1.257 0.474 Q1.312 0.317 1.017 0.256" stroke="hsl(0.0,100%,35%)" stroke-width="0.00071"></path>
<path d="M1.257 0.474 Q1.074 0.352 0.794 0.414" stroke="hsl(0.0,100%,35%)" stroke-width="0.00141"></path>
<path d="M1.257 0.474 Q0.728 0.512 0.685 0.778" stroke="hsl(0.0,100%,35%)" stroke-width="0.00035"></path>
<path d="M1.257 0.474 Q1.219 0.444 1.151 0.456" stroke="hsl(0.0,100%,35%)" stroke-width="0.00035"></path>
<path d="M0.785 0.257 Q0.500 0.425 0.765 0.600" stroke="hsl(180.0,100%,35%)" stroke-width="0.00035"></path>
<path d="M0.785 0.257 Q0.664 0.337 0.794 0.414" stroke="hsl(180.0,100%,35%)" stroke-width="0.00176"></path>
<path d="M0.785 0.257 Q1.144 0.376 1.454 0.227" stroke="hsl(180.0,100%,35%)" stroke-width="0.00035"></path>
<path d="M0.785 0.257 Q1.223 0.297 1.398 0.092" stroke="hsl(180.0,100%,35%)" stroke-width="0.00071"></path>
<path d="M1.144 0.019 Q0.653 0.147 0.794 0.414" stroke="hsl(180.0,100%,35%)" stroke-width="0.00071"></path>
<path d="M1.144 0.019 Q1.212 0.107 1.398 0.092" stroke="hsl(180.0,100%,35%)" stroke-width="0.00071"></path>
<path d="M1.144 0.019 Q0.489 0.234 0.765 0.600" stroke="hsl(180.0,100%,35%)" stroke-width="0.00035"></path>
<path d="M1.144 0.019 Q0.307 0.307 0.685 0.778" stroke="hsl(180.0,100%,35%)" stroke-width="0.00071"></path>
<path d="M1.144 0.019 Q0.891 0.112 1.017 0.256" stroke="hsl(180.0,100%,35%)" stroke-width="0.00035"></path>
<path d="M0.784 0.694 Q1.493 0.594 1.454 0.227" stroke="hsl(180.0,100%,35%)" stroke-width="0.00035"></path>
<path d="M0.784 0.694 Q1.013 0.556 0.794 0.414" stroke="hsl(180.0,100%,35%)" stroke-width="0.00141"></path>
<path d="M0.784 0.694 Q0.667 0.716 0.685 0.778" stroke="hsl(180.0,100%,35%)" stroke-width="0.00106"></path>
<path d="M0.190 0.336 Q0.376 0.361 0.465 0.276" stroke="hsl(180.0,100%,35%)" stroke-width="0.00071"></path>
<path d="M0.190 0.336 Q0.120 0.431 0.291 0.486" stroke="hsl(180.0,100%,35%)" stroke-width="0.00247"></path>
<path d="M0.190 0.336 Q0.084 0.656 0.685 0.778" stroke="hsl(180.0,100%,35%)" stroke-width="0.00071"></path>
<path d="M0.190 0.336 Q0.430 0.496 0.794 0.414" stroke="hsl(180.0,100%,35%)" stroke-width="0.00035"></path>
<path d="M0.190 0.336 Q0.910 0.534 1.454 0.227" stroke="hsl(180.0,100%,35%)" stroke-width="0.00035"></path>
<path d="M0.190 0.336 Q0.668 0.461 1.017 0.256" stroke="hsl(180.0,100%,35%)" stroke-width="0.00071"></path>
<path d="M1.135 0.411 Q0.908 0.209 0.465 0.276" stroke="hsl(180.0,100%,35%)" stroke-width="0.00035"></path>
<path d="M1.135 0.411 Q1.442 0.382 1.454 0.227" stroke="hsl(180.0,100%,35%)" stroke-width="0.00035"></path>
<path d="M1.135 0.411 Q0.962 0.344 0.794 0.414" stroke="hsl(180.0,100%,35%)" stroke-width="0.00035"></path>
<path d="M0.482 0.058 Q0.565 0.292 1.039 0.303" stroke="hsl(0.0,100%,35%)" stroke-width="0.00035"></path>
<path d="M0.482 0.058 Q0.591 0.264 1.017 0.256" stroke="hsl(0.0,100%,35%)" stroke-width="0.00035"></path>
<path d="M0.482 0.058 Q0.575 0.199 0.869 0.184" stroke="hsl(0.0,100%,35%)" stroke-width="0.00035"></path>
<path d="M0.482 0.058 Q0.353 0.299 0.794 0.414" stroke="hsl(0.0,100%,35%)" stroke-width="0.00035"></path>
<path d="M1.019 0.266 Q0.624 0.382 0.765 0.600" stroke="hsl(180.0,100%,35%)" stroke-width="0.00071"></path>
<path d="M1.019 0.266 Q0.788 0.295 0.794 0.414" stroke="hsl(180.0,100%,35%)" stroke-width="0.00388"></path>
<path d="M1.019 0.266 Q1.347 0.255 1.398 0.092" stroke="hsl(180.0,100%,35%)" stroke-width="0.00035"></path>
<path d="M1.019 0.266 Q1.268 0.333 1.454 0.227" stroke="hsl(180.0,100%,35%)" stroke-width="0.00071"></path>
<path d="M1.019 0.266 Q1.026 0.260 1.017 0.256" stroke="hsl(180.0,100%,35%)" stroke-width="0.00035"></path>
<path d="M1.019 0.266 Q0.442 0.455 0.685 0.778" stroke="hsl(180.0,100%,35%)" stroke-width="0.00035"></path>
<path d="M1.019 0.266 Q0.770 0.364 0.907 0.506" stroke="hsl(180.0,100%,35%)" stroke-width="0.00106"></path>
<path d="M0.682 0.525 Q0.827 0.492 0.794 0.414" stroke="hsl(180.0,100%,35%)" stroke-width="0.00494"></path>
<path d="M0.682 0.525 Q1.307 0.530 1.454 0.227" stroke="hsl(180.0,100%,35%)" stroke-width="0.00176"></path>
<path d="M0.682 0.525 Q0.518 0.427 0.291 0.486" stroke="hsl(180.0,100%,35%)" stroke-width="0.00035"></path>
<path d="M0.682 0.525 Q1.387 0.452 1.398 0.092" stroke="hsl(180.0,100%,35%)" stroke-width="0.00035"></path>
<path d="M0.682 0.525 Q0.664 0.579 0.765 0.600" stroke="hsl(180.0,100%,35%)" stroke-width="0.00035"></path>
<path d="M0.682 0.525 Q1.065 0.457 1.017 0.256" stroke="hsl(180.0,100%,35%)" stroke-width="0.00035"></path>
<path d="M0.682 0.525 Q0.730 0.460 0.615 0.423" stroke="hsl(180.0,100%,35%)" stroke-width="0.00035"></path>
<path d="M0.682 0.525 Q0.810 0.561 0.907 0.506" stroke="hsl(180.0,100%,35%)" stroke-width="0.00035"></path>
<path d="M0.682 0.525 Q0.481 0.652 0.685 0.778" stroke="hsl(180.0,100%,35%)" stroke-width="0.00035"></path>
<path d="M0.391 0.311 Q0.510 0.443 0.794 0.414" stroke="hsl(180.0,100%,35%)" stroke-width="0.00247"></path>
<path d="M0.391 0.311 Q0.493 0.512 0.907 0.506" stroke="hsl(180.0,100%,35%)" stroke-width="0.00035"></path>
<path d="M0.391 0.311 Q0.990 0.482 1.454 0.227" stroke="hsl(180.0,100%,35%)" stroke-width="0.00141"></path>
<path d="M0.391 0.311 Q0.748 0.409 1.017 0.256" stroke="hsl(180.0,100%,35%)" stroke-width="0.00035"></path>
<path d="M0.391 0.311 Q0.347 0.531 0.765 0.600" stroke="hsl(180.0,100%,35%)" stroke-width="0.00035"></path>
<path d="M1.075 0.457 Q0.969 0.379 0.794 0.414" stroke="hsl(180.0,100%,35%)" stroke-width="0.00106"></path>
<path d="M1.075 0.457 Q1.207 0.345 1.017 0.256" stroke="hsl(180.0,100%,35%)" stroke-width="0.00071"></path>
<path d="M1.075 0.457 Q1.137 0.348 0.939 0.294" stroke="hsl(180.0,100%,35%)" stroke-width="0.00035"></path>
<path d="M0.996 0.129 Q0.905 0.196 1.017 0.256" stroke="hsl(0.0,100%,35%)" stroke-width="0.00529"></path>
<path d="M0.996 0.129 Q0.667 0.231 0.794 0.414" stroke="hsl(0.0,100%,35%)" stroke-width="0.00635"></path>
<path d="M0.996 0.129 Q0.357 0.167 0.291 0.486" stroke="hsl(0.0,100%,35%)" stroke-width="0.00071"></path>
<path d="M0.996 0.129 Q0.812 0.324 1.151 0.456" stroke="hsl(0.0,100%,35%)" stroke-width="0.00035"></path>
<path d="M0.629 0.653 Q0.557 0.727 0.685 0.778" stroke="hsl(180.0,100%,35%)" stroke-width="0.00071"></path>
<path d="M0.629 0.653 Q0.849 0.431 0.465 0.276" stroke="hsl(180.0,100%,35%)" stroke-width="0.00035"></path>
<path d="M0.629 0.653 Q1.383 0.605 1.454 0.227" stroke="hsl(180.0,100%,35%)" stroke-width="0.00035"></path>
<path d="M0.629 0.653 Q0.547 0.586 0.399 0.612" stroke="hsl(180.0,100%,35%)" stroke-width="0.00035"></path>
<path d="M0.803 0.508 Q0.873 0.459 0.794 0.414" stroke="hsl(180.0,100%,35%)" stroke-width="0.00317"></path>
<path d="M0.803 0.508 Q0.856 0.528 0.907 0.506" stroke="hsl(180.0,100%,35%)" stroke-width="0.00035"></path>
<path d="M0.803 0.508 Q1.354 0.498 1.454 0.227" stroke="hsl(180.0,100%,35%)" stroke-width="0.00106"></path>
<path d="M0.803 0.508 Q1.111 0.425 1.017 0.256" stroke="hsl(180.0,100%,35%)" stroke-width="0.00035"></path>
<path d="M0.803 0.508 Q1.433 0.419 1.398 0.092" stroke="hsl(180.0,100%,35%)" stroke-width="0.00071"></path>
<path d="M1.095 0.408 Q1.166 0.433 1.230 0.403" stroke="hsl(180.0,100%,35%)" stroke-width="0.00035"></path>
<path d="M1.095 0.408 Q0.940 0.351 0.794 0.414" stroke="hsl(180.0,100%,35%)" stroke-width="0.00141"></path>
<path d="M1.095 0.408 Q0.630 0.286 0.291 0.486" stroke="hsl(180.0,100%,35%)" stroke-width="0.00035"></path>
<path d="M1.095 0.408 Q1.499 0.311 1.398 0.092" stroke="hsl(180.0,100%,35%)" stroke-width="0.00035"></path>
<path d="M1.095 0.408 Q1.178 0.316 1.017 0.256" stroke="hsl(180.0,100%,35%)" stroke-width="0.00035"></path>
<path d="M0.372 0.725 Q0.486 0.814 0.685 0.778" stroke="hsl(180.0,100%,35%)" stroke-width="0.00106"></path>
<path d="M0.372 0.725 Q0.778 0.519 0.465 0.276" stroke="hsl(180.0,100%,35%)" stroke-width="0.00035"></path>
<path d="M0.372 0.725 Q1.391 0.614 1.398 0.092" stroke="hsl(180.0,100%,35%)" stroke-width="0.00035"></path>
<path d="M0.372 0.725 Q0.542 0.706 0.542 0.619" stroke="hsl(180.0,100%,35%)" stroke-width="0.00035"></path>
<path d="M0.372 0.725 Q0.832 0.654 0.794 0.414" stroke="hsl(180.0,100%,35%)" stroke-width="0.00035"></path>
<path d="M0.372 0.725 Q0.668 0.741 0.765 0.600" stroke="hsl(180.0,100%,35%)" stroke-width="0.00035"></path>
<path d="M0.295 0.297 Q0.287 0.543 0.765 0.600" stroke="hsl(180.0,100%,35%)" stroke-width="0.00141"></path>
<path d="M0.295 0.297 Q0.931 0.494 1.454 0.227" stroke="hsl(180.0,100%,35%)" stroke-width="0.00247"></path>
<path d="M0.295 0.297 Q0.433 0.524 0.907 0.506" stroke="hsl(180.0,100%,35%)" stroke-width="0.00106"></path>
<path d="M0.295 0.297 Q0.451 0.456 0.794 0.414" stroke="hsl(180.0,100%,35%)" stroke-width="0.00458"></path>
<path d="M0.295 0.297 Q0.105 0.616 0.685 0.778" stroke="hsl(180.0,100%,35%)" stroke-width="0.00106"></path>
<path d="M0.295 0.297 Q0.689 0.421 1.017 0.256" stroke="hsl(180.0,100%,35%)" stroke-width="0.00071"></path>
<path d="M0.295 0.297 Q0.397 0.320 0.465 0.276" stroke="hsl(180.0,100%,35%)" stroke-width="0.00035"></path>
<path d="M0.295 0.297 Q1.011 0.415 1.398 0.092" stroke="hsl(180.0,100%,35%)" stroke-width="0.00035"></path>
<path d="M0.976 0.139 Q0.665 0.240 0.794 0.414" stroke="hsl(180.0,100%,35%)" stroke-width="0.00141"></path>
<path d="M0.976 0.139 Q0.355 0.175 0.291 0.486" stroke="hsl(180.0,100%,35%)" stroke-width="0.00035"></path>
<path d="M0.976 0.139 Q0.501 0.327 0.765 0.600" stroke="hsl(180.0,100%,35%)" stroke-width="0.00071"></path>
<path d="M0.976 0.139 Q0.903 0.205 1.017 0.256" stroke="hsl(180.0,100%,35%)" stroke-width="0.00035"></path>
<path d="M0.352 0.499 Q0.879 0.510 1.017 0.256" stroke="hsl(180.0,100%,35%)" stroke-width="0.00141"></path>
<path d="M0.352 0.499 Q0.641 0.545 0.794 0.414" stroke="hsl(180.0,100%,35%)" stroke-width="0.00494"></path>
<path d="M0.352 0.499 Q1.121 0.583 1.454 0.227" stroke="hsl(180.0,100%,35%)" stroke-width="0.00141"></path>
<path d="M0.352 0.499 Q0.478 0.633 0.765 0.600" stroke="hsl(180.0,100%,35%)" stroke-width="0.00106"></path>
<path d="M0.352 0.499 Q1.201 0.505 1.398 0.092" stroke="hsl(180.0,100%,35%)" stroke-width="0.00141"></path>
<path d="M0.352 0.499 Q0.295 0.705 0.685 0.778" stroke="hsl(180.0,100%,35%)" stroke-width="0.00035"></path>
<path d="M0.199 0.644 Q0.371 0.583 0.291 0.486" stroke="hsl(180.0,100%,35%)" stroke-width="0.00282"></path>
<path d="M0.199 0.644 Q0.627 0.513 0.465 0.276" stroke="hsl(180.0,100%,35%)" stroke-width="0.00035"></path>
<path d="M0.199 0.644 Q0.680 0.648 0.794 0.414" stroke="hsl(180.0,100%,35%)" stroke-width="0.00247"></path>
<path d="M0.199 0.644 Q0.918 0.613 1.017 0.256" stroke="hsl(180.0,100%,35%)" stroke-width="0.00035"></path>
<path d="M0.199 0.644 Q0.334 0.808 0.685 0.778" stroke="hsl(180.0,100%,35%)" stroke-width="0.00035"></path>
<path d="M0.660 0.311 Q0.644 0.389 0.794 0.414" stroke="hsl(180.0,100%,35%)" stroke-width="0.00247"></path>
<path d="M0.660 0.311 Q1.125 0.427 1.454 0.227" stroke="hsl(180.0,100%,35%)" stroke-width="0.00106"></path>
<path d="M0.660 0.311 Q0.780 0.270 0.728 0.203" stroke="hsl(180.0,100%,35%)" stroke-width="0.00035"></path>
<path d="M0.660 0.311 Q0.627 0.458 0.907 0.506" stroke="hsl(180.0,100%,35%)" stroke-width="0.00035"></path>
<path d="M0.660 0.311 Q0.481 0.476 0.765 0.600" stroke="hsl(180.0,100%,35%)" stroke-width="0.00035"></path>
<path d="M0.525 0.463 Q0.699 0.492 0.794 0.414" stroke="hsl(180.0,100%,35%)" stroke-width="0.00247"></path>
<path d="M0.525 0.463 Q0.937 0.458 1.017 0.256" stroke="hsl(180.0,100%,35%)" stroke-width="0.00071"></path>
<path d="M0.525 0.463 Q1.179 0.531 1.454 0.227" stroke="hsl(180.0,100%,35%)" stroke-width="0.00035"></path>
<path d="M0.525 0.463 Q1.259 0.452 1.398 0.092" stroke="hsl(180.0,100%,35%)" stroke-width="0.00035"></path>
<path d="M0.701 0.457 Q1.262 0.492 1.454 0.227" stroke="hsl(0.0,100%,35%)" stroke-width="0.00035"></path>
<path d="M0.701 0.457 Q0.782 0.454 0.794 0.414" stroke="hsl(0.0,100%,35%)" stroke-width="0.00212"></path>
<path d="M0.701 0.457 Q1.020 0.419 1.017 0.256" stroke="hsl(0.0,100%,35%)" stroke-width="0.00106"></path>
<path d="M0.701 0.457 Q0.765 0.523 0.907 0.506" stroke="hsl(0.0,100%,35%)" stroke-width="0.00035"></path>
<path d="M0.624 0.212 Q0.683 0.228 0.728 0.203" stroke="hsl(180.0,100%,35%)" stroke-width="0.00035"></path>
<path d="M0.624 0.212 Q0.547 0.347 0.794 0.414" stroke="hsl(180.0,100%,35%)" stroke-width="0.00811"></path>
<path d="M0.624 0.212 Q0.384 0.434 0.765 0.600" stroke="hsl(180.0,100%,35%)" stroke-width="0.00141"></path>
<path d="M0.624 0.212 Q0.238 0.282 0.291 0.486" stroke="hsl(180.0,100%,35%)" stroke-width="0.00141"></path>
<path d="M0.624 0.212 Q1.027 0.385 1.454 0.227" stroke="hsl(180.0,100%,35%)" stroke-width="0.00106"></path>
<path d="M0.624 0.212 Q0.494 0.212 0.465 0.276" stroke="hsl(180.0,100%,35%)" stroke-width="0.00035"></path>
<path d="M0.624 0.212 Q0.785 0.312 1.017 0.256" stroke="hsl(180.0,100%,35%)" stroke-width="0.00247"></path>
<path d="M0.624 0.212 Q0.201 0.507 0.685 0.778" stroke="hsl(180.0,100%,35%)" stroke-width="0.00176"></path>
<path d="M0.624 0.212 Q0.530 0.416 0.907 0.506" stroke="hsl(180.0,100%,35%)" stroke-width="0.00035"></path>
<path d="M0.624 0.212 Q1.107 0.307 1.398 0.092" stroke="hsl(180.0,100%,35%)" stroke-width="0.00035"></path>
</g>
<text x="1.151" y="0.442" font-size="0.028547" fill="hsl(0.0,100%,20%)">a.annestrand</text>
<text x="1.017" y="0.226" font-size="0.058635" fill="hsl(0.0,100%,20%)">geofflang</text>
<text x="0.794" y="0.366" font-size="0.096369" fill="hsl(180.0,100%,20%)">syoussefi</text>
<text x="0.685" y="0.754" font-size="0.047964" fill="hsl(180.0,100%,20%)">cnorthrop</text>
<text x="1.454" y="0.197" font-size="0.059568" fill="hsl(180.0,100%,20%)">cclao</text>
<text x="0.291" y="0.470" font-size="0.031650" fill="hsl(180.0,100%,20%)">ynovikov</text>
<text x="0.939" y="0.280" font-size="0.028098" fill="hsl(180.0,100%,20%)">g.tammana</text>
<text x="1.123" y="0.517" font-size="0.015417" fill="hsl(0.0,100%,20%)">a.dean1</text>
<text x="0.465" y="0.257" font-size="0.037988" fill="hsl(180.0,100%,20%)">romanl</text>
<text x="0.765" y="0.576" font-size="0.049445" fill="hsl(180.0,100%,20%)">abdolrashidi</text>
<text x="1.398" y="0.067" font-size="0.050800" fill="hsl(180.0,100%,20%)">yuxinhu</text>
<text x="0.728" y="0.188" font-size="0.029426" fill="hsl(180.0,100%,20%)">m.maiya</text>
<text x="0.615" y="0.406" font-size="0.033475" fill="hsl(180.0,100%,20%)">i.nazarov</text>
<text x="0.726" y="0.469" font-size="0.014274" fill="hsl(180.0,100%,20%)">aurora.zhang</text>
<text x="1.257" y="0.876" font-size="0.018427" fill="hsl(0.0,100%,20%)">kbr</text>
<text x="1.263" y="-0.145" font-size="0.002914" fill="hsl(180.0,100%,20%)">slumpwuffle</text>
<text x="1.084" y="0.931" font-size="0.017961" fill="hsl(0.0,100%,20%)">chris</text>
<text x="0.907" y="0.485" font-size="0.042020" fill="hsl(0.0,100%,20%)">lexa.knyazev</text>
<text x="0.905" y="0.864" font-size="0.024723" fill="hsl(180.0,100%,20%)">mark</text>
<text x="0.542" y="0.612" font-size="0.013973" fill="hsl(180.0,100%,20%)">solti</text>
<text x="0.399" y="0.599" font-size="0.024894" fill="hsl(180.0,100%,20%)">timvp</text>
<text x="1.000" y="0.611" font-size="0.008741" fill="hsl(180.0,100%,20%)">xwxw</text>
<text x="1.498" y="0.796" font-size="0.006515" fill="hsl(0.0,100%,20%)">djg</text>
<text x="1.152" y="0.041" font-size="0.008241" fill="hsl(180.0,100%,20%)">dloehr</text>
<text x="1.124" y="0.313" font-size="0.026060" fill="hsl(0.0,100%,20%)">mpdenton</text>
<text x="1.351" y="0.504" font-size="0.021997" fill="hsl(0.0,100%,20%)">liza</text>
<text x="1.049" y="0.110" font-size="0.002914" fill="hsl(0.0,100%,20%)">dsinclair</text>
<text x="1.039" y="0.298" font-size="0.009214" fill="hsl(0.0,100%,20%)">cwallez</text>
<text x="0.869" y="0.169" font-size="0.029713" fill="hsl(0.0,100%,20%)">kkinnunen</text>
<text x="1.235" y="0.264" font-size="0.004120" fill="hsl(0.0,100%,20%)">senorblanco</text>
<text x="1.441" y="0.910" font-size="0.011654" fill="hsl(0.0,100%,20%)">lehoangquyen</text>
<text x="0.720" y="0.077" font-size="0.002914" fill="hsl(0.0,100%,20%)">blundell</text>
<text x="0.798" y="0.071" font-size="0.004120" fill="hsl(0.0,100%,20%)">vasilyt</text>
<text x="1.838" y="0.629" font-size="0.007137" fill="hsl(0.0,100%,20%)">gyuyoung</text>
<text x="1.879" y="0.777" font-size="0.002914" fill="hsl(0.0,100%,20%)">sunnyps</text>
<text x="1.067" y="0.026" font-size="0.007709" fill="hsl(180.0,100%,20%)">hailinzhang</text>
<text x="0.740" y="0.261" font-size="0.008241" fill="hsl(180.0,100%,20%)">hans</text>
<text x="0.842" y="0.026" font-size="0.007137" fill="hsl(180.0,100%,20%)">hibrian</text>
<text x="0.607" y="0.321" font-size="0.008241" fill="hsl(0.0,100%,20%)">hoonee.cho</text>
<text x="1.257" y="0.470" font-size="0.008241" fill="hsl(0.0,100%,20%)">jh.eun</text>
<text x="0.785" y="0.252" font-size="0.008741" fill="hsl(180.0,100%,20%)">jiaqi.li</text>
<text x="1.144" y="0.015" font-size="0.008241" fill="hsl(180.0,100%,20%)">jisunnie.lee</text>
<text x="0.784" y="0.690" font-size="0.008241" fill="hsl(180.0,100%,20%)">justonli</text>
<text x="0.190" y="0.331" font-size="0.011284" fill="hsl(180.0,100%,20%)">jwata</text>
<text x="1.135" y="0.408" font-size="0.005046" fill="hsl(180.0,100%,20%)">kaiyili</text>
<text x="0.482" y="0.055" font-size="0.005827" fill="hsl(0.0,100%,20%)">lichenliu</text>
<text x="0.626" y="0.091" font-size="0.002914" fill="hsl(180.0,100%,20%)">ianelliott</text>
<text x="1.019" y="0.259" font-size="0.013352" fill="hsl(180.0,100%,20%)">mavis.deng</text>
<text x="0.682" y="0.518" font-size="0.014856" fill="hsl(180.0,100%,20%)">neil.zhang</text>
<text x="0.391" y="0.306" font-size="0.010902" fill="hsl(180.0,100%,20%)">panfeng.hou</text>
<text x="1.075" y="0.453" font-size="0.007137" fill="hsl(180.0,100%,20%)">r.husain</text>
<text x="0.996" y="0.120" font-size="0.017481" fill="hsl(0.0,100%,20%)">r.khurram</text>
<text x="0.629" y="0.650" font-size="0.006515" fill="hsl(180.0,100%,20%)">renatopereyra</text>
<text x="0.803" y="0.502" font-size="0.011654" fill="hsl(180.0,100%,20%)">robic.sun</text>
<text x="0.425" y="0.132" font-size="0.002914" fill="hsl(180.0,100%,20%)">egdaniel</text>
<text x="1.095" y="0.404" font-size="0.008241" fill="hsl(180.0,100%,20%)">rop</text>
<text x="1.230" y="0.402" font-size="0.002914" fill="hsl(180.0,100%,20%)">qjw</text>
<text x="0.372" y="0.721" font-size="0.008241" fill="hsl(180.0,100%,20%)">shawshanks</text>
<text x="0.295" y="0.289" font-size="0.016989" fill="hsl(180.0,100%,20%)">shufen.ma</text>
<text x="0.976" y="0.134" font-size="0.008741" fill="hsl(180.0,100%,20%)">steven</text>
<text x="1.213" y="0.259" font-size="0.004120" fill="hsl(180.0,100%,20%)">natsu</text>
<text x="0.352" y="0.491" font-size="0.015958" fill="hsl(180.0,100%,20%)">sywow.choi</text>
<text x="0.199" y="0.638" font-size="0.012361" fill="hsl(180.0,100%,20%)">tikuta</text>
<text x="0.660" y="0.305" font-size="0.010505" fill="hsl(180.0,100%,20%)">tingwei.guo</text>
<text x="0.525" y="0.459" font-size="0.009663" fill="hsl(180.0,100%,20%)">xin.yuan</text>
<text x="0.701" y="0.452" font-size="0.009663" fill="hsl(0.0,100%,20%)">xinyu.fang</text>
<text x="0.062" y="0.496" font-size="0.007137" fill="hsl(180.0,100%,20%)">bsheedy</text>
<text x="0.624" y="0.201" font-size="0.020602" fill="hsl(180.0,100%,20%)">yuxiang.qian</text>
<text x="0.689" y="0.050" font-size="0.002914" fill="hsl(180.0,100%,20%)">zijunzhao</text>
</svg>
