<svg width="4000" height="2000" viewBox="-0.025 -0.025 2.05 1.05" xmlns="http://www.w3.org/2000/svg">
  <style>
    path {
      fill: none;
      stroke-linecap: round;
      stroke-opacity: 0.4;
    }

    text {
      text-anchor: middle;
      alignment-baseline: hanging;
    }
  </style>
  <g opacity="0.4">
<path d="M1.514 0.894 Q1.917 0.752 1.730 0.524" stroke="hsl(0.0,100%,35%)" stroke-width="0.04666"></path>
<path d="M1.514 0.894 Q1.180 0.867 1.056 1.024" stroke="hsl(0.0,100%,35%)" stroke-width="0.03499"></path>
<path d="M1.514 0.894 Q1.717 0.897 1.767 0.798" stroke="hsl(0.0,100%,35%)" stroke-width="0.04666"></path>
<path d="M1.767 0.798 Q1.407 0.747 1.228 0.912" stroke="hsl(0.0,100%,35%)" stroke-width="0.02333"></path>
<path d="M1.767 0.798 Q1.968 0.654 1.730 0.524" stroke="hsl(0.0,100%,35%)" stroke-width="0.01166"></path>
<path d="M1.767 0.798 Q1.231 0.769 1.056 1.024" stroke="hsl(0.0,100%,35%)" stroke-width="0.02333"></path>
<path d="M0.688 0.950 Q1.146 1.087 1.514 0.894" stroke="hsl(0.0,100%,35%)" stroke-width="0.02333"></path>
<path d="M0.688 0.950 Q1.349 1.090 1.767 0.798" stroke="hsl(0.0,100%,35%)" stroke-width="0.02333"></path>
<path d="M0.688 0.950 Q1.549 0.946 1.730 0.524" stroke="hsl(0.0,100%,35%)" stroke-width="0.01166"></path>
</g>
<text x="1.514" y="0.838" font-size="0.111270" fill="hsl(0.0,100%,20%)">abdolrashidi</text>
<text x="1.730" y="0.487" font-size="0.075593" fill="hsl(0.0,100%,20%)">cclao</text>
<text x="1.056" y="0.990" font-size="0.069007" fill="hsl(0.0,100%,20%)">yuxinhu</text>
<text x="1.767" y="0.747" font-size="0.102353" fill="hsl(0.0,100%,20%)">syoussefi</text>
<text x="1.228" y="0.890" font-size="0.043644" fill="hsl(0.0,100%,20%)">cnorthrop</text>
<text x="0.688" y="0.916" font-size="0.069007" fill="hsl(0.0,100%,20%)">timvp</text>
</svg>
