<svg width="4000" height="2000" viewBox="-0.025 -0.025 2.05 1.05" xmlns="http://www.w3.org/2000/svg">
  <style>
    path {
      fill: none;
      stroke-linecap: round;
      stroke-opacity: 0.4;
    }

    text {
      text-anchor: middle;
      alignment-baseline: hanging;
    }
  </style>
  <g opacity="0.4">
<path d="M0.864 0.636 Q0.686 0.665 0.702 0.758" stroke="hsl(0.0,100%,35%)" stroke-width="0.01160"></path>
<path d="M0.864 0.636 Q0.546 0.559 0.325 0.697" stroke="hsl(0.0,100%,35%)" stroke-width="0.01687"></path>
<path d="M0.864 0.636 Q0.771 0.538 0.559 0.562" stroke="hsl(0.0,100%,35%)" stroke-width="0.00211"></path>
<path d="M0.864 0.636 Q0.796 0.453 0.424 0.446" stroke="hsl(0.0,100%,35%)" stroke-width="0.00141"></path>
<path d="M0.864 0.636 Q0.903 0.715 1.066 0.714" stroke="hsl(0.0,100%,35%)" stroke-width="0.00105"></path>
<path d="M0.864 0.636 Q1.038 0.581 0.968 0.484" stroke="hsl(0.0,100%,35%)" stroke-width="0.00070"></path>
<path d="M0.864 0.636 Q0.957 0.532 0.775 0.464" stroke="hsl(0.0,100%,35%)" stroke-width="0.00070"></path>
<path d="M0.864 0.636 Q0.862 0.579 0.751 0.568" stroke="hsl(0.0,100%,35%)" stroke-width="0.00035"></path>
<path d="M0.864 0.636 Q1.265 0.641 1.363 0.446" stroke="hsl(0.0,100%,35%)" stroke-width="0.00035"></path>
<path d="M0.864 0.636 Q0.653 0.423 0.190 0.479" stroke="hsl(0.0,100%,35%)" stroke-width="0.00035"></path>
<path d="M0.864 0.636 Q1.052 0.427 0.686 0.290" stroke="hsl(0.0,100%,35%)" stroke-width="0.00070"></path>
<path d="M0.702 0.758 Q0.812 0.546 0.424 0.446" stroke="hsl(0.0,100%,35%)" stroke-width="0.00562"></path>
<path d="M0.702 0.758 Q0.562 0.652 0.325 0.697" stroke="hsl(0.0,100%,35%)" stroke-width="0.04324"></path>
<path d="M0.702 0.758 Q0.919 0.809 1.066 0.714" stroke="hsl(0.0,100%,35%)" stroke-width="0.01969"></path>
<path d="M0.702 0.758 Q0.880 0.729 0.864 0.636" stroke="hsl(0.0,100%,35%)" stroke-width="0.01371"></path>
<path d="M0.702 0.758 Q0.822 0.683 0.703 0.609" stroke="hsl(0.0,100%,35%)" stroke-width="0.00035"></path>
<path d="M0.702 0.758 Q1.337 0.428 0.833 0.046" stroke="hsl(0.0,100%,35%)" stroke-width="0.00035"></path>
<path d="M0.702 0.758 Q0.878 0.673 0.751 0.568" stroke="hsl(0.0,100%,35%)" stroke-width="0.00246"></path>
<path d="M0.702 0.758 Q1.282 0.734 1.363 0.446" stroke="hsl(0.0,100%,35%)" stroke-width="0.00070"></path>
<path d="M0.702 0.758 Q1.061 1.009 1.631 0.890" stroke="hsl(0.0,100%,35%)" stroke-width="0.00035"></path>
<path d="M0.702 0.758 Q0.504 0.712 0.371 0.799" stroke="hsl(0.0,100%,35%)" stroke-width="0.00035"></path>
<path d="M0.702 0.758 Q0.400 0.747 0.313 0.892" stroke="hsl(0.0,100%,35%)" stroke-width="0.00070"></path>
<path d="M0.702 0.758 Q1.068 0.521 0.686 0.290" stroke="hsl(0.0,100%,35%)" stroke-width="0.00035"></path>
<path d="M0.325 0.697 Q0.831 0.566 0.686 0.290" stroke="hsl(0.0,100%,35%)" stroke-width="0.01512"></path>
<path d="M0.325 0.697 Q0.547 0.689 0.579 0.579" stroke="hsl(0.0,100%,35%)" stroke-width="0.00070"></path>
<path d="M0.325 0.697 Q0.465 0.803 0.702 0.758" stroke="hsl(0.0,100%,35%)" stroke-width="0.03094"></path>
<path d="M0.325 0.697 Q1.045 0.779 1.363 0.446" stroke="hsl(0.0,100%,35%)" stroke-width="0.00387"></path>
<path d="M0.325 0.697 Q0.575 0.591 0.424 0.446" stroke="hsl(0.0,100%,35%)" stroke-width="0.00879"></path>
<path d="M0.325 0.697 Q0.682 0.854 1.066 0.714" stroke="hsl(0.0,100%,35%)" stroke-width="0.02742"></path>
<path d="M0.325 0.697 Q0.585 0.728 0.703 0.609" stroke="hsl(0.0,100%,35%)" stroke-width="0.00562"></path>
<path d="M0.325 0.697 Q0.643 0.774 0.864 0.636" stroke="hsl(0.0,100%,35%)" stroke-width="0.01512"></path>
<path d="M0.325 0.697 Q0.849 0.735 1.038 0.488" stroke="hsl(0.0,100%,35%)" stroke-width="0.00105"></path>
<path d="M0.325 0.697 Q0.550 0.676 0.559 0.562" stroke="hsl(0.0,100%,35%)" stroke-width="0.00949"></path>
<path d="M0.325 0.697 Q0.163 0.792 0.313 0.892" stroke="hsl(0.0,100%,35%)" stroke-width="0.00492"></path>
<path d="M0.325 0.697 Q0.378 0.792 0.574 0.787" stroke="hsl(0.0,100%,35%)" stroke-width="0.00141"></path>
<path d="M0.325 0.697 Q0.266 0.757 0.371 0.799" stroke="hsl(0.0,100%,35%)" stroke-width="0.00070"></path>
<path d="M0.325 0.697 Q0.824 1.054 1.631 0.890" stroke="hsl(0.0,100%,35%)" stroke-width="0.00141"></path>
<path d="M0.325 0.697 Q1.038 0.514 0.838 0.126" stroke="hsl(0.0,100%,35%)" stroke-width="0.00035"></path>
<path d="M0.325 0.697 Q0.641 0.718 0.751 0.568" stroke="hsl(0.0,100%,35%)" stroke-width="0.00492"></path>
<path d="M0.325 0.697 Q0.320 0.921 0.756 0.972" stroke="hsl(0.0,100%,35%)" stroke-width="0.00070"></path>
<path d="M0.325 0.697 Q0.432 0.561 0.190 0.479" stroke="hsl(0.0,100%,35%)" stroke-width="0.00527"></path>
<path d="M0.325 0.697 Q0.971 0.979 1.664 0.726" stroke="hsl(0.0,100%,35%)" stroke-width="0.00070"></path>
<path d="M0.325 0.697 Q0.947 0.505 0.710 0.160" stroke="hsl(0.0,100%,35%)" stroke-width="0.00035"></path>
<path d="M0.325 0.697 Q0.733 0.916 1.249 0.765" stroke="hsl(0.0,100%,35%)" stroke-width="0.00035"></path>
<path d="M0.325 0.697 Q0.516 0.889 0.933 0.838" stroke="hsl(0.0,100%,35%)" stroke-width="0.00035"></path>
<path d="M0.325 0.697 Q1.100 0.473 0.833 0.046" stroke="hsl(0.0,100%,35%)" stroke-width="0.00070"></path>
<path d="M0.325 0.697 Q0.708 0.685 0.768 0.496" stroke="hsl(0.0,100%,35%)" stroke-width="0.00035"></path>
<path d="M0.325 0.697 Q0.796 0.706 0.918 0.478" stroke="hsl(0.0,100%,35%)" stroke-width="0.00035"></path>
<path d="M0.325 0.697 Q0.824 0.867 1.265 0.660" stroke="hsl(0.0,100%,35%)" stroke-width="0.00035"></path>
<path d="M0.325 0.697 Q0.510 0.614 0.389 0.505" stroke="hsl(0.0,100%,35%)" stroke-width="0.00035"></path>
<path d="M0.325 0.697 Q0.101 0.810 0.273 0.945" stroke="hsl(0.0,100%,35%)" stroke-width="0.00035"></path>
<path d="M0.559 0.562 Q0.691 0.740 1.066 0.714" stroke="hsl(120.0,100%,35%)" stroke-width="0.01020"></path>
<path d="M0.559 0.562 Q0.334 0.583 0.325 0.697" stroke="hsl(120.0,100%,35%)" stroke-width="0.00387"></path>
<path d="M0.559 0.562 Q0.584 0.477 0.424 0.446" stroke="hsl(120.0,100%,35%)" stroke-width="0.01547"></path>
<path d="M0.559 0.562 Q1.054 0.665 1.363 0.446" stroke="hsl(120.0,100%,35%)" stroke-width="0.00176"></path>
<path d="M0.559 0.562 Q0.742 0.802 1.249 0.765" stroke="hsl(120.0,100%,35%)" stroke-width="0.00070"></path>
<path d="M0.559 0.562 Q0.882 0.587 1.000 0.434" stroke="hsl(120.0,100%,35%)" stroke-width="0.00035"></path>
<path d="M0.559 0.562 Q0.651 0.604 0.751 0.568" stroke="hsl(120.0,100%,35%)" stroke-width="0.00070"></path>
<path d="M0.559 0.562 Q0.464 0.466 0.255 0.491" stroke="hsl(120.0,100%,35%)" stroke-width="0.00035"></path>
<path d="M0.559 0.562 Q0.474 0.689 0.702 0.758" stroke="hsl(120.0,100%,35%)" stroke-width="0.00316"></path>
<path d="M0.559 0.562 Q0.840 0.452 0.686 0.290" stroke="hsl(120.0,100%,35%)" stroke-width="0.00141"></path>
<path d="M0.559 0.562 Q0.717 0.571 0.768 0.496" stroke="hsl(120.0,100%,35%)" stroke-width="0.00035"></path>
<path d="M0.559 0.562 Q0.833 0.940 1.631 0.890" stroke="hsl(120.0,100%,35%)" stroke-width="0.00035"></path>
<path d="M0.559 0.562 Q0.652 0.660 0.864 0.636" stroke="hsl(120.0,100%,35%)" stroke-width="0.00316"></path>
<path d="M0.559 0.562 Q0.442 0.447 0.190 0.479" stroke="hsl(120.0,100%,35%)" stroke-width="0.00562"></path>
<path d="M0.559 0.562 Q0.489 0.501 0.354 0.521" stroke="hsl(120.0,100%,35%)" stroke-width="0.00035"></path>
<path d="M0.424 0.446 Q0.582 0.771 1.249 0.765" stroke="hsl(120.0,100%,35%)" stroke-width="0.00070"></path>
<path d="M0.424 0.446 Q0.893 0.634 1.363 0.446" stroke="hsl(120.0,100%,35%)" stroke-width="0.00879"></path>
<path d="M0.424 0.446 Q0.399 0.531 0.559 0.562" stroke="hsl(120.0,100%,35%)" stroke-width="0.02004"></path>
<path d="M0.424 0.446 Q0.314 0.658 0.702 0.758" stroke="hsl(120.0,100%,35%)" stroke-width="0.00211"></path>
<path d="M0.424 0.446 Q0.174 0.552 0.325 0.697" stroke="hsl(120.0,100%,35%)" stroke-width="0.01195"></path>
<path d="M0.424 0.446 Q0.680 0.420 0.686 0.290" stroke="hsl(120.0,100%,35%)" stroke-width="0.00281"></path>
<path d="M0.424 0.446 Q0.012 0.647 0.313 0.892" stroke="hsl(120.0,100%,35%)" stroke-width="0.00035"></path>
<path d="M0.424 0.446 Q0.492 0.629 0.864 0.636" stroke="hsl(120.0,100%,35%)" stroke-width="0.00949"></path>
<path d="M0.424 0.446 Q0.585 0.526 0.775 0.464" stroke="hsl(120.0,100%,35%)" stroke-width="0.00035"></path>
<path d="M0.424 0.446 Q0.531 0.708 1.066 0.714" stroke="hsl(120.0,100%,35%)" stroke-width="0.00141"></path>
<path d="M0.424 0.446 Q0.281 0.416 0.190 0.479" stroke="hsl(120.0,100%,35%)" stroke-width="0.00738"></path>
<path d="M0.424 0.446 Q0.490 0.572 0.751 0.568" stroke="hsl(120.0,100%,35%)" stroke-width="0.00070"></path>
<path d="M0.424 0.446 Q0.227 0.647 0.574 0.787" stroke="hsl(120.0,100%,35%)" stroke-width="0.00035"></path>
<path d="M0.424 0.446 Q1.033 0.567 1.402 0.296" stroke="hsl(120.0,100%,35%)" stroke-width="0.00105"></path>
<path d="M0.424 0.446 Q0.673 0.482 0.797 0.368" stroke="hsl(120.0,100%,35%)" stroke-width="0.00035"></path>
<path d="M0.424 0.446 Q0.530 0.514 0.685 0.477" stroke="hsl(120.0,100%,35%)" stroke-width="0.00035"></path>
<path d="M0.424 0.446 Q0.949 0.328 0.833 0.046" stroke="hsl(120.0,100%,35%)" stroke-width="0.00035"></path>
<path d="M1.066 0.714 Q1.120 0.531 0.775 0.464" stroke="hsl(0.0,100%,35%)" stroke-width="0.00035"></path>
<path d="M1.066 0.714 Q1.117 0.776 1.249 0.765" stroke="hsl(0.0,100%,35%)" stroke-width="0.00070"></path>
<path d="M1.066 0.714 Q0.959 0.452 0.424 0.446" stroke="hsl(0.0,100%,35%)" stroke-width="0.00422"></path>
<path d="M1.066 0.714 Q1.428 0.640 1.363 0.446" stroke="hsl(0.0,100%,35%)" stroke-width="0.00105"></path>
<path d="M1.066 0.714 Q0.849 0.663 0.702 0.758" stroke="hsl(0.0,100%,35%)" stroke-width="0.00387"></path>
<path d="M1.066 0.714 Q0.709 0.557 0.325 0.697" stroke="hsl(0.0,100%,35%)" stroke-width="0.01230"></path>
<path d="M1.066 0.714 Q0.934 0.537 0.559 0.562" stroke="hsl(0.0,100%,35%)" stroke-width="0.00387"></path>
<path d="M1.066 0.714 Q1.422 0.375 0.838 0.126" stroke="hsl(0.0,100%,35%)" stroke-width="0.00035"></path>
<path d="M1.066 0.714 Q1.025 0.578 0.751 0.568" stroke="hsl(0.0,100%,35%)" stroke-width="0.00035"></path>
<path d="M1.066 0.714 Q0.547 0.652 0.313 0.892" stroke="hsl(0.0,100%,35%)" stroke-width="0.00176"></path>
<path d="M1.066 0.714 Q1.208 0.727 1.265 0.660" stroke="hsl(0.0,100%,35%)" stroke-width="0.00035"></path>
<path d="M1.066 0.714 Q1.027 0.635 0.864 0.636" stroke="hsl(0.0,100%,35%)" stroke-width="0.00246"></path>
<path d="M1.066 0.714 Q0.816 0.421 0.190 0.479" stroke="hsl(0.0,100%,35%)" stroke-width="0.00035"></path>
<path d="M1.066 0.714 Q1.215 0.426 0.686 0.290" stroke="hsl(0.0,100%,35%)" stroke-width="0.00035"></path>
<path d="M0.751 0.568 Q0.435 0.547 0.325 0.697" stroke="hsl(0.0,100%,35%)" stroke-width="0.00176"></path>
<path d="M0.751 0.568 Q0.660 0.527 0.559 0.562" stroke="hsl(0.0,100%,35%)" stroke-width="0.00105"></path>
<path d="M0.751 0.568 Q0.542 0.411 0.190 0.479" stroke="hsl(0.0,100%,35%)" stroke-width="0.00035"></path>
<path d="M0.751 0.568 Q0.685 0.442 0.424 0.446" stroke="hsl(0.0,100%,35%)" stroke-width="0.00035"></path>
<path d="M0.751 0.568 Q0.376 0.608 0.371 0.799" stroke="hsl(0.0,100%,35%)" stroke-width="0.00035"></path>
<path d="M0.751 0.568 Q0.575 0.653 0.702 0.758" stroke="hsl(0.0,100%,35%)" stroke-width="0.00035"></path>
<path d="M0.751 0.568 Q0.941 0.416 0.686 0.290" stroke="hsl(0.0,100%,35%)" stroke-width="0.00035"></path>
<path d="M1.363 0.446 Q0.894 0.258 0.424 0.446" stroke="hsl(120.0,100%,35%)" stroke-width="0.00527"></path>
<path d="M1.363 0.446 Q0.644 0.364 0.325 0.697" stroke="hsl(120.0,100%,35%)" stroke-width="0.00281"></path>
<path d="M1.363 0.446 Q1.502 0.379 1.402 0.296" stroke="hsl(120.0,100%,35%)" stroke-width="0.00105"></path>
<path d="M1.363 0.446 Q0.960 0.385 0.751 0.568" stroke="hsl(120.0,100%,35%)" stroke-width="0.00070"></path>
<path d="M1.363 0.446 Q1.150 0.233 0.686 0.290" stroke="hsl(120.0,100%,35%)" stroke-width="0.00246"></path>
<path d="M1.363 0.446 Q1.143 0.722 1.631 0.890" stroke="hsl(120.0,100%,35%)" stroke-width="0.00070"></path>
<path d="M1.363 0.446 Q1.418 0.140 0.833 0.046" stroke="hsl(120.0,100%,35%)" stroke-width="0.00035"></path>
<path d="M1.363 0.446 Q1.333 0.092 0.635 0.029" stroke="hsl(120.0,100%,35%)" stroke-width="0.00035"></path>
<path d="M1.363 0.446 Q1.298 0.339 1.075 0.347" stroke="hsl(120.0,100%,35%)" stroke-width="0.00035"></path>
<path d="M1.363 0.446 Q0.751 0.228 0.190 0.479" stroke="hsl(120.0,100%,35%)" stroke-width="0.00598"></path>
<path d="M1.363 0.446 Q0.783 0.470 0.702 0.758" stroke="hsl(120.0,100%,35%)" stroke-width="0.00035"></path>
<path d="M1.363 0.446 Q1.000 0.521 1.066 0.714" stroke="hsl(120.0,100%,35%)" stroke-width="0.00035"></path>
<path d="M0.190 0.479 Q0.308 0.594 0.559 0.562" stroke="hsl(120.0,100%,35%)" stroke-width="0.01723"></path>
<path d="M0.190 0.479 Q0.083 0.615 0.325 0.697" stroke="hsl(120.0,100%,35%)" stroke-width="0.00668"></path>
<path d="M0.190 0.479 Q0.802 0.697 1.363 0.446" stroke="hsl(120.0,100%,35%)" stroke-width="0.00809"></path>
<path d="M0.190 0.479 Q0.333 0.509 0.424 0.446" stroke="hsl(120.0,100%,35%)" stroke-width="0.00492"></path>
<path d="M0.190 0.479 Q0.440 0.771 1.066 0.714" stroke="hsl(120.0,100%,35%)" stroke-width="0.00668"></path>
<path d="M0.190 0.479 Q0.858 0.391 0.833 0.046" stroke="hsl(120.0,100%,35%)" stroke-width="0.00105"></path>
<path d="M0.686 0.290 Q0.679 0.779 1.631 0.890" stroke="hsl(240.0,100%,35%)" stroke-width="0.00668"></path>
<path d="M0.686 0.290 Q0.180 0.421 0.325 0.697" stroke="hsl(240.0,100%,35%)" stroke-width="0.01406"></path>
<path d="M0.686 0.290 Q0.955 0.197 0.833 0.046" stroke="hsl(240.0,100%,35%)" stroke-width="0.00387"></path>
<path d="M0.686 0.290 Q0.802 0.230 0.710 0.160" stroke="hsl(240.0,100%,35%)" stroke-width="0.00562"></path>
<path d="M0.686 0.290 Q0.826 0.704 1.664 0.726" stroke="hsl(240.0,100%,35%)" stroke-width="0.00176"></path>
<path d="M0.686 0.290 Q0.656 0.145 0.365 0.127" stroke="hsl(240.0,100%,35%)" stroke-width="0.00105"></path>
<path d="M0.686 0.290 Q0.899 0.503 1.363 0.446" stroke="hsl(240.0,100%,35%)" stroke-width="0.00176"></path>
<path d="M0.686 0.290 Q0.685 0.188 0.486 0.166" stroke="hsl(240.0,100%,35%)" stroke-width="0.00105"></path>
<path d="M0.686 0.290 Q1.180 0.391 1.486 0.173" stroke="hsl(240.0,100%,35%)" stroke-width="0.00105"></path>
<path d="M0.686 0.290 Q0.588 0.640 1.249 0.765" stroke="hsl(240.0,100%,35%)" stroke-width="0.00035"></path>
<path d="M0.686 0.290 Q0.401 0.413 0.579 0.579" stroke="hsl(240.0,100%,35%)" stroke-width="0.00246"></path>
<path d="M0.686 0.290 Q0.430 0.316 0.424 0.446" stroke="hsl(240.0,100%,35%)" stroke-width="0.00035"></path>
<path d="M0.686 0.290 Q0.405 0.401 0.559 0.562" stroke="hsl(240.0,100%,35%)" stroke-width="0.00176"></path>
<path d="M0.686 0.290 Q0.537 0.578 1.066 0.714" stroke="hsl(240.0,100%,35%)" stroke-width="0.00141"></path>
<path d="M0.686 0.290 Q0.854 0.174 0.665 0.066" stroke="hsl(240.0,100%,35%)" stroke-width="0.00035"></path>
<path d="M0.686 0.290 Q0.912 0.257 0.897 0.139" stroke="hsl(240.0,100%,35%)" stroke-width="0.00035"></path>
<path d="M0.686 0.290 Q0.496 0.442 0.751 0.568" stroke="hsl(240.0,100%,35%)" stroke-width="0.00035"></path>
<path d="M1.866 0.361 Q1.052 0.200 0.559 0.562" stroke="hsl(120.0,100%,35%)" stroke-width="0.00070"></path>
<path d="M1.866 0.361 Q1.333 0.090 0.686 0.290" stroke="hsl(120.0,100%,35%)" stroke-width="0.00035"></path>
<path d="M1.866 0.361 Q1.145 0.298 0.864 0.636" stroke="hsl(120.0,100%,35%)" stroke-width="0.00035"></path>
<path d="M1.866 0.361 Q1.853 0.300 1.730 0.293" stroke="hsl(120.0,100%,35%)" stroke-width="0.00035"></path>
<path d="M1.402 0.296 Q1.262 0.363 1.363 0.446" stroke="hsl(120.0,100%,35%)" stroke-width="0.00246"></path>
<path d="M1.402 0.296 Q0.543 0.281 0.325 0.697" stroke="hsl(120.0,100%,35%)" stroke-width="0.00070"></path>
<path d="M1.402 0.296 Q0.650 0.145 0.190 0.479" stroke="hsl(120.0,100%,35%)" stroke-width="0.00035"></path>
<path d="M1.402 0.296 Q1.424 0.207 1.254 0.176" stroke="hsl(120.0,100%,35%)" stroke-width="0.00035"></path>
<path d="M1.402 0.296 Q0.793 0.176 0.424 0.446" stroke="hsl(120.0,100%,35%)" stroke-width="0.00070"></path>
<path d="M0.805 0.518 Q0.529 0.375 0.190 0.479" stroke="hsl(120.0,100%,35%)" stroke-width="0.00176"></path>
<path d="M0.805 0.518 Q0.422 0.511 0.325 0.697" stroke="hsl(120.0,100%,35%)" stroke-width="0.00176"></path>
<path d="M0.805 0.518 Q0.928 0.380 0.686 0.290" stroke="hsl(120.0,100%,35%)" stroke-width="0.00105"></path>
<path d="M0.805 0.518 Q0.921 0.681 1.265 0.660" stroke="hsl(120.0,100%,35%)" stroke-width="0.00035"></path>
<path d="M0.703 0.609 Q0.949 0.446 0.686 0.290" stroke="hsl(0.0,100%,35%)" stroke-width="0.00141"></path>
<path d="M0.703 0.609 Q0.444 0.577 0.325 0.697" stroke="hsl(0.0,100%,35%)" stroke-width="0.03305"></path>
<path d="M0.703 0.609 Q0.583 0.683 0.702 0.758" stroke="hsl(0.0,100%,35%)" stroke-width="0.02531"></path>
<path d="M0.703 0.609 Q0.800 0.734 1.066 0.714" stroke="hsl(0.0,100%,35%)" stroke-width="0.00035"></path>
<path d="M0.833 0.046 Q0.564 0.139 0.686 0.290" stroke="hsl(240.0,100%,35%)" stroke-width="0.00141"></path>
<path d="M0.833 0.046 Q0.058 0.270 0.325 0.697" stroke="hsl(240.0,100%,35%)" stroke-width="0.00105"></path>
<path d="M0.833 0.046 Q0.557 0.627 1.631 0.890" stroke="hsl(240.0,100%,35%)" stroke-width="0.00035"></path>
<path d="M0.833 0.046 Q0.166 0.134 0.190 0.479" stroke="hsl(240.0,100%,35%)" stroke-width="0.00035"></path>
<path d="M1.631 0.890 Q1.638 0.401 0.686 0.290" stroke="hsl(240.0,100%,35%)" stroke-width="0.00352"></path>
<path d="M1.631 0.890 Q1.132 0.532 0.325 0.697" stroke="hsl(240.0,100%,35%)" stroke-width="0.00105"></path>
<path d="M1.631 0.890 Q1.272 0.638 0.702 0.758" stroke="hsl(240.0,100%,35%)" stroke-width="0.00035"></path>
<path d="M1.631 0.890 Q1.778 0.814 1.664 0.726" stroke="hsl(240.0,100%,35%)" stroke-width="0.00105"></path>
<path d="M1.631 0.890 Q1.520 0.809 1.338 0.845" stroke="hsl(240.0,100%,35%)" stroke-width="0.00070"></path>
<path d="M1.631 0.890 Q1.439 0.274 0.196 0.233" stroke="hsl(240.0,100%,35%)" stroke-width="0.00070"></path>
<path d="M1.631 0.890 Q1.754 0.341 0.710 0.160" stroke="hsl(240.0,100%,35%)" stroke-width="0.00035"></path>
<path d="M1.631 0.890 Q1.240 0.396 0.190 0.479" stroke="hsl(240.0,100%,35%)" stroke-width="0.00070"></path>
<path d="M0.371 0.799 Q1.143 0.556 0.838 0.126" stroke="hsl(0.0,100%,35%)" stroke-width="0.00035"></path>
<path d="M0.371 0.799 Q0.430 0.739 0.325 0.697" stroke="hsl(0.0,100%,35%)" stroke-width="0.00352"></path>
<path d="M0.371 0.799 Q0.746 0.760 0.751 0.568" stroke="hsl(0.0,100%,35%)" stroke-width="0.00141"></path>
<path d="M0.371 0.799 Q0.570 0.845 0.702 0.758" stroke="hsl(0.0,100%,35%)" stroke-width="0.00035"></path>
<path d="M0.371 0.799 Q0.268 0.834 0.313 0.892" stroke="hsl(0.0,100%,35%)" stroke-width="0.00035"></path>
<path d="M0.313 0.892 Q0.475 0.797 0.325 0.697" stroke="hsl(0.0,100%,35%)" stroke-width="0.00387"></path>
<path d="M0.313 0.892 Q0.423 0.945 0.551 0.903" stroke="hsl(0.0,100%,35%)" stroke-width="0.00035"></path>
<path d="M0.313 0.892 Q0.832 0.954 1.066 0.714" stroke="hsl(0.0,100%,35%)" stroke-width="0.00035"></path>
<path d="M0.313 0.892 Q0.700 0.776 0.559 0.562" stroke="hsl(0.0,100%,35%)" stroke-width="0.00035"></path>
<path d="M0.313 0.892 Q0.615 0.903 0.702 0.758" stroke="hsl(0.0,100%,35%)" stroke-width="0.00035"></path>
<path d="M0.313 0.892 Q0.251 0.910 0.273 0.945" stroke="hsl(0.0,100%,35%)" stroke-width="0.00035"></path>
<path d="M0.918 0.478 Q0.945 0.827 1.631 0.890" stroke="hsl(240.0,100%,35%)" stroke-width="0.00809"></path>
<path d="M0.918 0.478 Q0.446 0.469 0.325 0.697" stroke="hsl(240.0,100%,35%)" stroke-width="0.01125"></path>
<path d="M0.918 0.478 Q0.952 0.338 0.686 0.290" stroke="hsl(240.0,100%,35%)" stroke-width="0.00352"></path>
<path d="M0.918 0.478 Q0.951 0.519 1.038 0.512" stroke="hsl(240.0,100%,35%)" stroke-width="0.00070"></path>
<path d="M0.918 0.478 Q0.554 0.333 0.190 0.479" stroke="hsl(240.0,100%,35%)" stroke-width="0.00070"></path>
<path d="M0.918 0.478 Q1.005 0.545 1.154 0.517" stroke="hsl(240.0,100%,35%)" stroke-width="0.00141"></path>
<path d="M0.918 0.478 Q0.970 0.507 1.038 0.488" stroke="hsl(240.0,100%,35%)" stroke-width="0.00070"></path>
<path d="M0.918 0.478 Q0.753 0.211 0.196 0.233" stroke="hsl(240.0,100%,35%)" stroke-width="0.00070"></path>
<path d="M0.918 0.478 Q1.068 0.278 0.710 0.160" stroke="hsl(240.0,100%,35%)" stroke-width="0.00035"></path>
<path d="M0.918 0.478 Q1.166 0.551 1.363 0.446" stroke="hsl(240.0,100%,35%)" stroke-width="0.00035"></path>
<path d="M0.918 0.478 Q1.092 0.751 1.664 0.726" stroke="hsl(240.0,100%,35%)" stroke-width="0.00035"></path>
<path d="M1.038 0.488 Q0.514 0.450 0.325 0.697" stroke="hsl(0.0,100%,35%)" stroke-width="0.00598"></path>
<path d="M1.038 0.488 Q1.020 0.318 0.686 0.290" stroke="hsl(0.0,100%,35%)" stroke-width="0.00105"></path>
<path d="M1.038 0.488 Q0.764 0.344 0.424 0.446" stroke="hsl(0.0,100%,35%)" stroke-width="0.00035"></path>
<path d="M1.038 0.488 Q0.654 0.556 0.702 0.758" stroke="hsl(0.0,100%,35%)" stroke-width="0.00141"></path>
<path d="M1.038 0.488 Q0.871 0.606 1.066 0.714" stroke="hsl(0.0,100%,35%)" stroke-width="0.00035"></path>
<path d="M1.038 0.488 Q0.832 0.527 0.864 0.636" stroke="hsl(0.0,100%,35%)" stroke-width="0.00035"></path>
<path d="M1.038 0.488 Q1.233 0.532 1.363 0.446" stroke="hsl(0.0,100%,35%)" stroke-width="0.00070"></path>
<path d="M1.038 0.488 Q1.013 0.807 1.631 0.890" stroke="hsl(0.0,100%,35%)" stroke-width="0.00035"></path>
<path d="M0.196 0.233 Q0.389 0.848 1.631 0.890" stroke="hsl(240.0,100%,35%)" stroke-width="0.00105"></path>
<path d="M0.196 0.233 Q-0.110 0.491 0.325 0.697" stroke="hsl(240.0,100%,35%)" stroke-width="0.00105"></path>
<path d="M0.196 0.233 Q0.536 0.773 1.664 0.726" stroke="hsl(240.0,100%,35%)" stroke-width="0.00035"></path>
<path d="M0.196 0.233 Q0.665 0.267 0.833 0.046" stroke="hsl(240.0,100%,35%)" stroke-width="0.00035"></path>
<path d="M0.710 0.160 Q0.734 0.634 1.664 0.726" stroke="hsl(240.0,100%,35%)" stroke-width="0.00035"></path>
<path d="M0.710 0.160 Q0.587 0.709 1.631 0.890" stroke="hsl(240.0,100%,35%)" stroke-width="0.00035"></path>
<path d="M0.710 0.160 Q0.476 0.628 1.338 0.845" stroke="hsl(240.0,100%,35%)" stroke-width="0.00035"></path>
<path d="M0.710 0.160 Q0.195 0.216 0.190 0.479" stroke="hsl(240.0,100%,35%)" stroke-width="0.00035"></path>
<path d="M0.710 0.160 Q0.863 0.128 0.833 0.046" stroke="hsl(240.0,100%,35%)" stroke-width="0.00035"></path>
<path d="M1.664 0.726 Q1.524 0.313 0.686 0.290" stroke="hsl(240.0,100%,35%)" stroke-width="0.00141"></path>
<path d="M1.664 0.726 Q1.517 0.801 1.631 0.890" stroke="hsl(240.0,100%,35%)" stroke-width="0.00316"></path>
<path d="M1.664 0.726 Q1.324 0.186 0.196 0.233" stroke="hsl(240.0,100%,35%)" stroke-width="0.00070"></path>
<path d="M1.664 0.726 Q1.640 0.253 0.710 0.160" stroke="hsl(240.0,100%,35%)" stroke-width="0.00035"></path>
<path d="M1.664 0.726 Q1.125 0.308 0.190 0.479" stroke="hsl(240.0,100%,35%)" stroke-width="0.00035"></path>
<path d="M1.664 0.726 Q1.018 0.444 0.325 0.697" stroke="hsl(240.0,100%,35%)" stroke-width="0.00070"></path>
<path d="M1.664 0.726 Q1.793 0.220 0.833 0.046" stroke="hsl(240.0,100%,35%)" stroke-width="0.00035"></path>
<path d="M1.249 0.765 Q1.198 0.703 1.066 0.714" stroke="hsl(0.0,100%,35%)" stroke-width="0.00246"></path>
<path d="M1.249 0.765 Q0.842 0.546 0.325 0.697" stroke="hsl(0.0,100%,35%)" stroke-width="0.00246"></path>
<path d="M1.249 0.765 Q1.066 0.526 0.559 0.562" stroke="hsl(0.0,100%,35%)" stroke-width="0.00035"></path>
<path d="M1.249 0.765 Q1.092 0.441 0.424 0.446" stroke="hsl(0.0,100%,35%)" stroke-width="0.00035"></path>
<path d="M1.249 0.765 Q0.982 0.652 0.702 0.758" stroke="hsl(0.0,100%,35%)" stroke-width="0.00070"></path>
<path d="M1.249 0.765 Q0.949 0.410 0.190 0.479" stroke="hsl(0.0,100%,35%)" stroke-width="0.00035"></path>
<path d="M1.000 0.434 Q0.769 0.451 0.751 0.568" stroke="hsl(120.0,100%,35%)" stroke-width="0.00141"></path>
<path d="M1.000 0.434 Q0.453 0.431 0.325 0.697" stroke="hsl(120.0,100%,35%)" stroke-width="0.00141"></path>
<path d="M1.000 0.434 Q0.677 0.410 0.559 0.562" stroke="hsl(120.0,100%,35%)" stroke-width="0.00598"></path>
<path d="M1.000 0.434 Q0.703 0.325 0.424 0.446" stroke="hsl(120.0,100%,35%)" stroke-width="0.00070"></path>
<path d="M1.000 0.434 Q0.809 0.587 1.066 0.714" stroke="hsl(120.0,100%,35%)" stroke-width="0.00070"></path>
<path d="M1.000 0.434 Q0.505 0.525 0.574 0.787" stroke="hsl(120.0,100%,35%)" stroke-width="0.00035"></path>
<path d="M0.255 0.491 Q0.442 0.629 0.751 0.568" stroke="hsl(120.0,100%,35%)" stroke-width="0.00035"></path>
<path d="M0.255 0.491 Q0.350 0.587 0.559 0.562" stroke="hsl(120.0,100%,35%)" stroke-width="0.00352"></path>
<path d="M0.255 0.491 Q0.265 0.714 0.702 0.758" stroke="hsl(120.0,100%,35%)" stroke-width="0.00035"></path>
<path d="M0.255 0.491 Q0.126 0.608 0.325 0.697" stroke="hsl(120.0,100%,35%)" stroke-width="0.00035"></path>
<path d="M0.768 0.496 Q0.526 0.613 0.702 0.758" stroke="hsl(0.0,100%,35%)" stroke-width="0.00070"></path>
<path d="M0.768 0.496 Q0.386 0.508 0.325 0.697" stroke="hsl(0.0,100%,35%)" stroke-width="0.00105"></path>
<path d="M0.768 0.496 Q0.493 0.372 0.190 0.479" stroke="hsl(0.0,100%,35%)" stroke-width="0.00070"></path>
<path d="M0.354 0.521 Q0.423 0.583 0.559 0.562" stroke="hsl(120.0,100%,35%)" stroke-width="0.00809"></path>
<path d="M0.354 0.521 Q0.515 0.624 0.751 0.568" stroke="hsl(120.0,100%,35%)" stroke-width="0.00035"></path>
<path d="M0.354 0.521 Q0.698 0.533 0.797 0.368" stroke="hsl(120.0,100%,35%)" stroke-width="0.00035"></path>
<path d="M0.354 0.521 Q0.199 0.603 0.325 0.697" stroke="hsl(120.0,100%,35%)" stroke-width="0.00035"></path>
<path d="M0.354 0.521 Q0.306 0.467 0.190 0.479" stroke="hsl(120.0,100%,35%)" stroke-width="0.00703"></path>
<path d="M0.389 0.505 Q0.428 0.568 0.559 0.562" stroke="hsl(120.0,100%,35%)" stroke-width="0.00211"></path>
<path d="M0.389 0.505 Q0.204 0.588 0.325 0.697" stroke="hsl(120.0,100%,35%)" stroke-width="0.00246"></path>
<path d="M0.389 0.505 Q0.311 0.452 0.190 0.479" stroke="hsl(120.0,100%,35%)" stroke-width="0.00035"></path>
<path d="M1.420 0.730 Q1.398 0.852 1.631 0.890" stroke="hsl(240.0,100%,35%)" stroke-width="0.00211"></path>
<path d="M1.420 0.730 Q1.383 0.735 1.384 0.754" stroke="hsl(240.0,100%,35%)" stroke-width="0.00035"></path>
<path d="M1.420 0.730 Q1.674 0.271 0.833 0.046" stroke="hsl(240.0,100%,35%)" stroke-width="0.00035"></path>
<path d="M1.420 0.730 Q1.287 0.771 1.338 0.845" stroke="hsl(240.0,100%,35%)" stroke-width="0.00035"></path>
<path d="M1.420 0.730 Q1.405 0.363 0.686 0.290" stroke="hsl(240.0,100%,35%)" stroke-width="0.00070"></path>
<path d="M1.420 0.730 Q1.521 0.303 0.710 0.160" stroke="hsl(240.0,100%,35%)" stroke-width="0.00070"></path>
<path d="M1.338 0.845 Q1.456 0.437 0.686 0.290" stroke="hsl(240.0,100%,35%)" stroke-width="0.00070"></path>
<path d="M1.338 0.845 Q1.449 0.926 1.631 0.890" stroke="hsl(240.0,100%,35%)" stroke-width="0.00773"></path>
<path d="M1.338 0.845 Q0.950 0.569 0.325 0.697" stroke="hsl(240.0,100%,35%)" stroke-width="0.00211"></path>
<path d="M1.338 0.845 Q1.471 0.804 1.420 0.730" stroke="hsl(240.0,100%,35%)" stroke-width="0.00246"></path>
<path d="M1.338 0.845 Q1.257 0.311 0.196 0.233" stroke="hsl(240.0,100%,35%)" stroke-width="0.00035"></path>
<path d="M1.338 0.845 Q1.596 0.851 1.664 0.726" stroke="hsl(240.0,100%,35%)" stroke-width="0.00070"></path>
<path d="M1.338 0.845 Q1.057 0.432 0.190 0.479" stroke="hsl(240.0,100%,35%)" stroke-width="0.00141"></path>
<path d="M1.338 0.845 Q1.669 0.651 1.363 0.446" stroke="hsl(240.0,100%,35%)" stroke-width="0.00035"></path>
<path d="M1.518 0.732 Q1.471 0.711 1.420 0.730" stroke="hsl(240.0,100%,35%)" stroke-width="0.00035"></path>
<path d="M1.518 0.732 Q1.449 0.833 1.631 0.890" stroke="hsl(240.0,100%,35%)" stroke-width="0.00035"></path>
<path d="M1.518 0.732 Q1.057 0.340 0.190 0.479" stroke="hsl(240.0,100%,35%)" stroke-width="0.00035"></path>
<path d="M1.860 0.816 Q1.694 0.318 0.686 0.290" stroke="hsl(240.0,100%,35%)" stroke-width="0.00070"></path>
<path d="M1.860 0.816 Q1.188 0.449 0.325 0.697" stroke="hsl(240.0,100%,35%)" stroke-width="0.00035"></path>
<path d="M1.860 0.816 Q1.687 0.807 1.631 0.890" stroke="hsl(240.0,100%,35%)" stroke-width="0.00070"></path>
<path d="M1.860 0.816 Q1.907 0.532 1.363 0.446" stroke="hsl(240.0,100%,35%)" stroke-width="0.00035"></path>
<path d="M0.619 0.444 Q0.495 0.491 0.559 0.562" stroke="hsl(120.0,100%,35%)" stroke-width="0.00246"></path>
<path d="M0.619 0.444 Q0.776 0.381 0.686 0.290" stroke="hsl(120.0,100%,35%)" stroke-width="0.00105"></path>
<path d="M0.619 0.444 Q0.377 0.376 0.190 0.479" stroke="hsl(120.0,100%,35%)" stroke-width="0.00070"></path>
<path d="M0.619 0.444 Q0.270 0.512 0.325 0.697" stroke="hsl(120.0,100%,35%)" stroke-width="0.00141"></path>
<path d="M0.619 0.444 Q0.046 0.625 0.273 0.945" stroke="hsl(120.0,100%,35%)" stroke-width="0.00035"></path>
<path d="M0.273 0.945 Q0.637 0.937 0.702 0.758" stroke="hsl(0.0,100%,35%)" stroke-width="0.00035"></path>
<path d="M0.273 0.945 Q0.497 0.831 0.325 0.697" stroke="hsl(0.0,100%,35%)" stroke-width="0.00070"></path>
<path d="M0.273 0.945 Q0.335 0.926 0.313 0.892" stroke="hsl(0.0,100%,35%)" stroke-width="0.00035"></path>
<path d="M0.222 0.116 Q0.315 0.296 0.686 0.290" stroke="hsl(240.0,100%,35%)" stroke-width="0.00141"></path>
<path d="M0.222 0.116 Q-0.191 0.427 0.325 0.697" stroke="hsl(240.0,100%,35%)" stroke-width="0.00105"></path>
<path d="M0.222 0.116 Q-0.083 0.291 0.190 0.479" stroke="hsl(240.0,100%,35%)" stroke-width="0.00035"></path>
<path d="M0.486 0.166 Q0.337 0.556 1.066 0.714" stroke="hsl(240.0,100%,35%)" stroke-width="0.00035"></path>
<path d="M0.486 0.166 Q0.487 0.268 0.686 0.290" stroke="hsl(240.0,100%,35%)" stroke-width="0.00211"></path>
<path d="M0.486 0.166 Q0.231 0.294 0.424 0.446" stroke="hsl(240.0,100%,35%)" stroke-width="0.00035"></path>
<path d="M0.486 0.166 Q-0.019 0.399 0.325 0.697" stroke="hsl(240.0,100%,35%)" stroke-width="0.00035"></path>
<path d="M0.579 0.579 Q0.864 0.456 0.686 0.290" stroke="hsl(240.0,100%,35%)" stroke-width="0.00316"></path>
<path d="M0.579 0.579 Q0.358 0.587 0.325 0.697" stroke="hsl(240.0,100%,35%)" stroke-width="0.00633"></path>
<path d="M0.579 0.579 Q0.465 0.451 0.190 0.479" stroke="hsl(240.0,100%,35%)" stroke-width="0.00141"></path>
<path d="M0.579 0.579 Q1.077 0.669 1.363 0.446" stroke="hsl(240.0,100%,35%)" stroke-width="0.00035"></path>
<path d="M1.376 0.034 Q0.321 0.155 0.325 0.697" stroke="hsl(240.0,100%,35%)" stroke-width="0.00035"></path>
<path d="M1.376 0.034 Q0.827 0.024 0.686 0.290" stroke="hsl(240.0,100%,35%)" stroke-width="0.00035"></path>
<path d="M1.376 0.034 Q1.297 0.009 1.230 0.042" stroke="hsl(240.0,100%,35%)" stroke-width="0.00035"></path>
<path d="M0.472 0.821 Q0.816 0.807 0.864 0.636" stroke="hsl(0.0,100%,35%)" stroke-width="0.00035"></path>
<path d="M0.472 0.821 Q0.497 0.729 0.325 0.697" stroke="hsl(0.0,100%,35%)" stroke-width="0.00316"></path>
<path d="M0.472 0.821 Q0.637 0.835 0.702 0.758" stroke="hsl(0.0,100%,35%)" stroke-width="0.00211"></path>
<path d="M0.472 0.821 Q0.854 0.886 1.066 0.714" stroke="hsl(0.0,100%,35%)" stroke-width="0.00035"></path>
<path d="M0.472 0.821 Q-0.263 1.207 0.330 1.650" stroke="hsl(0.0,100%,35%)" stroke-width="0.00035"></path>
<path d="M1.664 0.175 Q1.083 0.037 0.686 0.290" stroke="hsl(240.0,100%,35%)" stroke-width="0.00070"></path>
<path d="M1.664 0.175 Q1.577 0.138 1.486 0.173" stroke="hsl(240.0,100%,35%)" stroke-width="0.00070"></path>
<path d="M1.664 0.175 Q0.801 0.147 0.559 0.562" stroke="hsl(240.0,100%,35%)" stroke-width="0.00035"></path>
<path d="M0.756 0.972 Q0.761 0.748 0.325 0.697" stroke="hsl(0.0,100%,35%)" stroke-width="0.00141"></path>
<path d="M0.756 0.972 Q0.814 0.843 0.574 0.787" stroke="hsl(0.0,100%,35%)" stroke-width="0.00035"></path>
<path d="M0.756 0.972 Q0.868 0.612 0.190 0.479" stroke="hsl(0.0,100%,35%)" stroke-width="0.00035"></path>
<path d="M0.574 0.787 Q0.522 0.692 0.325 0.697" stroke="hsl(0.0,100%,35%)" stroke-width="0.01125"></path>
<path d="M0.574 0.787 Q0.772 0.586 0.424 0.446" stroke="hsl(0.0,100%,35%)" stroke-width="0.00070"></path>
<path d="M0.574 0.787 Q1.241 0.774 1.363 0.446" stroke="hsl(0.0,100%,35%)" stroke-width="0.00035"></path>
<path d="M0.574 0.787 Q0.662 0.798 0.702 0.758" stroke="hsl(0.0,100%,35%)" stroke-width="0.00176"></path>
<path d="M0.574 0.787 Q0.878 0.849 1.066 0.714" stroke="hsl(0.0,100%,35%)" stroke-width="0.00035"></path>
<path d="M0.574 0.787 Q0.743 0.684 0.579 0.579" stroke="hsl(0.0,100%,35%)" stroke-width="0.00035"></path>
<path d="M0.574 0.787 Q0.360 0.787 0.313 0.892" stroke="hsl(0.0,100%,35%)" stroke-width="0.00035"></path>
<path d="M0.574 0.787 Q0.629 0.556 0.190 0.479" stroke="hsl(0.0,100%,35%)" stroke-width="0.00035"></path>
<path d="M0.574 0.787 Q1.021 0.622 0.797 0.368" stroke="hsl(0.0,100%,35%)" stroke-width="0.00035"></path>
<path d="M0.574 0.787 Q0.838 0.713 0.751 0.568" stroke="hsl(0.0,100%,35%)" stroke-width="0.00105"></path>
<path d="M0.316 0.324 Q0.379 0.669 1.066 0.714" stroke="hsl(120.0,100%,35%)" stroke-width="0.00035"></path>
<path d="M0.316 0.324 Q0.272 0.407 0.424 0.446" stroke="hsl(120.0,100%,35%)" stroke-width="0.00105"></path>
<path d="M0.316 0.324 Q0.742 0.595 1.363 0.446" stroke="hsl(120.0,100%,35%)" stroke-width="0.00035"></path>
<path d="M0.316 0.324 Q0.022 0.512 0.325 0.697" stroke="hsl(120.0,100%,35%)" stroke-width="0.00035"></path>
<path d="M1.674 0.592 Q1.794 0.557 1.752 0.491" stroke="hsl(120.0,100%,35%)" stroke-width="0.00035"></path>
<path d="M1.674 0.592 Q1.635 0.457 1.363 0.446" stroke="hsl(120.0,100%,35%)" stroke-width="0.00035"></path>
<path d="M1.674 0.592 Q1.023 0.239 0.190 0.479" stroke="hsl(120.0,100%,35%)" stroke-width="0.00035"></path>
<path d="M0.492 0.305 Q0.095 0.468 0.325 0.697" stroke="hsl(240.0,100%,35%)" stroke-width="0.01723"></path>
<path d="M0.492 0.305 Q0.601 0.336 0.686 0.290" stroke="hsl(240.0,100%,35%)" stroke-width="0.02039"></path>
<path d="M0.492 0.305 Q0.594 0.825 1.631 0.890" stroke="hsl(240.0,100%,35%)" stroke-width="0.00633"></path>
<path d="M0.492 0.305 Q0.401 0.210 0.196 0.233" stroke="hsl(240.0,100%,35%)" stroke-width="0.00316"></path>
<path d="M0.492 0.305 Q0.430 0.165 0.142 0.164" stroke="hsl(240.0,100%,35%)" stroke-width="0.00035"></path>
<path d="M0.492 0.305 Q0.452 0.624 1.066 0.714" stroke="hsl(240.0,100%,35%)" stroke-width="0.00035"></path>
<path d="M0.492 0.305 Q0.202 0.332 0.190 0.479" stroke="hsl(240.0,100%,35%)" stroke-width="0.00246"></path>
<path d="M1.424 0.964 Q1.594 0.480 0.686 0.290" stroke="hsl(240.0,100%,35%)" stroke-width="0.00105"></path>
<path d="M1.424 0.964 Q1.587 0.968 1.631 0.890" stroke="hsl(240.0,100%,35%)" stroke-width="0.00105"></path>
<path d="M1.424 0.964 Q1.476 0.888 1.338 0.845" stroke="hsl(240.0,100%,35%)" stroke-width="0.00035"></path>
<path d="M1.424 0.964 Q1.089 0.611 0.325 0.697" stroke="hsl(240.0,100%,35%)" stroke-width="0.00035"></path>
<path d="M0.831 0.810 Q0.668 0.652 0.325 0.697" stroke="hsl(0.0,100%,35%)" stroke-width="0.00105"></path>
<path d="M0.831 0.810 Q1.025 0.809 1.066 0.714" stroke="hsl(0.0,100%,35%)" stroke-width="0.00070"></path>
<path d="M0.831 0.810 Q1.139 0.661 0.918 0.478" stroke="hsl(0.0,100%,35%)" stroke-width="0.00035"></path>
<path d="M0.583 0.795 Q1.307 0.470 0.833 0.046" stroke="hsl(240.0,100%,35%)" stroke-width="0.00141"></path>
<path d="M0.583 0.795 Q0.532 0.694 0.325 0.697" stroke="hsl(240.0,100%,35%)" stroke-width="0.00211"></path>
<path d="M0.583 0.795 Q1.038 0.563 0.686 0.290" stroke="hsl(240.0,100%,35%)" stroke-width="0.00105"></path>
<path d="M0.473 0.480 Q0.333 0.423 0.190 0.479" stroke="hsl(120.0,100%,35%)" stroke-width="0.00070"></path>
<path d="M0.473 0.480 Q0.450 0.539 0.559 0.562" stroke="hsl(120.0,100%,35%)" stroke-width="0.00035"></path>
<path d="M0.473 0.480 Q0.226 0.559 0.325 0.697" stroke="hsl(120.0,100%,35%)" stroke-width="0.00035"></path>
<path d="M0.473 0.480 Q0.732 0.428 0.686 0.290" stroke="hsl(120.0,100%,35%)" stroke-width="0.00035"></path>
<path d="M0.635 0.029 Q0.445 0.659 1.631 0.890" stroke="hsl(240.0,100%,35%)" stroke-width="0.00105"></path>
<path d="M0.635 0.029 Q0.343 0.138 0.492 0.305" stroke="hsl(240.0,100%,35%)" stroke-width="0.00035"></path>
<path d="M0.635 0.029 Q0.452 0.170 0.686 0.290" stroke="hsl(240.0,100%,35%)" stroke-width="0.00141"></path>
<path d="M0.635 0.453 Q0.509 0.492 0.559 0.562" stroke="hsl(120.0,100%,35%)" stroke-width="0.00211"></path>
<path d="M0.635 0.453 Q0.790 0.382 0.686 0.290" stroke="hsl(120.0,100%,35%)" stroke-width="0.00105"></path>
<path d="M0.635 0.453 Q0.285 0.513 0.325 0.697" stroke="hsl(120.0,100%,35%)" stroke-width="0.00070"></path>
<path d="M0.577 0.963 Q0.717 0.874 0.574 0.787" stroke="hsl(0.0,100%,35%)" stroke-width="0.00211"></path>
<path d="M0.577 0.963 Q0.664 0.780 0.325 0.697" stroke="hsl(0.0,100%,35%)" stroke-width="0.00316"></path>
<path d="M0.577 0.963 Q1.020 0.936 1.066 0.714" stroke="hsl(0.0,100%,35%)" stroke-width="0.00070"></path>
<path d="M0.577 0.963 Q0.888 0.759 0.559 0.562" stroke="hsl(0.0,100%,35%)" stroke-width="0.00035"></path>
<path d="M0.577 0.963 Q0.659 1.004 0.756 0.972" stroke="hsl(0.0,100%,35%)" stroke-width="0.00141"></path>
<path d="M0.577 0.963 Q0.771 0.644 0.190 0.479" stroke="hsl(0.0,100%,35%)" stroke-width="0.00070"></path>
<path d="M0.577 0.963 Q0.781 1.058 1.011 0.980" stroke="hsl(0.0,100%,35%)" stroke-width="0.00035"></path>
<path d="M1.756 0.713 Q1.525 0.428 0.918 0.478" stroke="hsl(240.0,100%,35%)" stroke-width="0.00035"></path>
<path d="M1.756 0.713 Q1.552 0.776 1.631 0.890" stroke="hsl(240.0,100%,35%)" stroke-width="0.00105"></path>
<path d="M1.756 0.713 Q1.773 0.501 1.363 0.446" stroke="hsl(240.0,100%,35%)" stroke-width="0.00035"></path>
</g>
<text x="0.864" y="0.615" font-size="0.043023" fill="hsl(0.0,100%,20%)">abdolrashidi</text>
<text x="0.702" y="0.726" font-size="0.062979" fill="hsl(0.0,100%,20%)">cclao</text>
<text x="0.325" y="0.650" font-size="0.093241" fill="hsl(0.0,100%,20%)">syoussefi</text>
<text x="0.559" y="0.535" font-size="0.054449" fill="hsl(120.0,100%,20%)">cnorthrop</text>
<text x="0.424" y="0.420" font-size="0.052119" fill="hsl(120.0,100%,20%)">romanl</text>
<text x="1.066" y="0.689" font-size="0.049598" fill="hsl(0.0,100%,20%)">yuxinhu</text>
<text x="0.968" y="0.482" font-size="0.004003" fill="hsl(0.0,100%,20%)">ineula</text>
<text x="0.775" y="0.462" font-size="0.005661" fill="hsl(0.0,100%,20%)">kaiyili</text>
<text x="0.751" y="0.557" font-size="0.021183" fill="hsl(0.0,100%,20%)">ianelliott</text>
<text x="1.363" y="0.429" font-size="0.034784" fill="hsl(120.0,100%,20%)">ynovikov</text>
<text x="0.190" y="0.456" font-size="0.045819" fill="hsl(120.0,100%,20%)">jmadill</text>
<text x="0.686" y="0.264" font-size="0.051810" fill="hsl(240.0,100%,20%)">geofflang</text>
<text x="1.866" y="0.358" font-size="0.006330" fill="hsl(120.0,100%,20%)">ayzhao</text>
<text x="1.730" y="0.291" font-size="0.002831" fill="hsl(120.0,100%,20%)">hans</text>
<text x="1.402" y="0.290" font-size="0.012339" fill="hsl(120.0,100%,20%)">bsheedy</text>
<text x="1.254" y="0.175" font-size="0.002831" fill="hsl(120.0,100%,20%)">rogerta</text>
<text x="0.805" y="0.513" font-size="0.010591" fill="hsl(120.0,100%,20%)">capn</text>
<text x="1.265" y="0.658" font-size="0.004903" fill="hsl(120.0,100%,20%)">sugoi</text>
<text x="0.703" y="0.589" font-size="0.038812" fill="hsl(0.0,100%,20%)">i.nazarov</text>
<text x="0.833" y="0.037" font-size="0.016984" fill="hsl(240.0,100%,20%)">jonahr</text>
<text x="1.631" y="0.872" font-size="0.034320" fill="hsl(240.0,100%,20%)">kbr</text>
<text x="0.371" y="0.793" font-size="0.012972" fill="hsl(0.0,100%,20%)">natsu</text>
<text x="0.313" y="0.883" font-size="0.018125" fill="hsl(0.0,100%,20%)">zzyiwei</text>
<text x="0.918" y="0.465" font-size="0.025789" fill="hsl(240.0,100%,20%)">chris</text>
<text x="1.038" y="0.510" font-size="0.004003" fill="hsl(240.0,100%,20%)">rafael.cintron</text>
<text x="1.154" y="0.514" font-size="0.005661" fill="hsl(240.0,100%,20%)">senorblanco</text>
<text x="1.038" y="0.479" font-size="0.016747" fill="hsl(0.0,100%,20%)">steven</text>
<text x="0.196" y="0.226" font-size="0.013868" fill="hsl(240.0,100%,20%)">kpiddington</text>
<text x="0.710" y="0.153" font-size="0.014709" fill="hsl(240.0,100%,20%)">lehoangquyen</text>
<text x="1.664" y="0.718" font-size="0.016747" fill="hsl(240.0,100%,20%)">gman</text>
<text x="1.249" y="0.758" font-size="0.014709" fill="hsl(0.0,100%,20%)">solti</text>
<text x="1.000" y="0.426" font-size="0.015761" fill="hsl(120.0,100%,20%)">mark</text>
<text x="0.255" y="0.486" font-size="0.010591" fill="hsl(120.0,100%,20%)">mikes</text>
<text x="0.768" y="0.491" font-size="0.008492" fill="hsl(0.0,100%,20%)">gregschlom</text>
<text x="0.354" y="0.511" font-size="0.019406" fill="hsl(120.0,100%,20%)">gert.wollny</text>
<text x="0.389" y="0.500" font-size="0.010963" fill="hsl(120.0,100%,20%)">constantine.shablya</text>
<text x="1.420" y="0.723" font-size="0.012972" fill="hsl(240.0,100%,20%)">djg</text>
<text x="1.384" y="0.752" font-size="0.002831" fill="hsl(240.0,100%,20%)">sunnyps</text>
<text x="1.338" y="0.835" font-size="0.020016" fill="hsl(240.0,100%,20%)">kkinnunen</text>
<text x="1.518" y="0.729" font-size="0.004903" fill="hsl(240.0,100%,20%)">doremylover123</text>
<text x="1.860" y="0.812" font-size="0.006934" fill="hsl(240.0,100%,20%)">dtapuska</text>
<text x="0.619" y="0.439" font-size="0.011671" fill="hsl(120.0,100%,20%)">eddiehatfield</text>
<text x="0.273" y="0.941" font-size="0.007489" fill="hsl(0.0,100%,20%)">lfy</text>
<text x="0.222" y="0.112" font-size="0.008006" fill="hsl(240.0,100%,20%)">fangzhoug</text>
<text x="0.365" y="0.125" font-size="0.004903" fill="hsl(240.0,100%,20%)">blundell</text>
<text x="0.486" y="0.161" font-size="0.009806" fill="hsl(240.0,100%,20%)">hob</text>
<text x="1.486" y="0.169" font-size="0.006330" fill="hsl(240.0,100%,20%)">vasilyt</text>
<text x="0.579" y="0.570" font-size="0.018345" fill="hsl(240.0,100%,20%)">penghuang</text>
<text x="0.665" y="0.065" font-size="0.002831" fill="hsl(240.0,100%,20%)">enga</text>
<text x="0.897" y="0.138" font-size="0.002831" fill="hsl(240.0,100%,20%)">zmo</text>
<text x="0.797" y="0.365" font-size="0.004903" fill="hsl(120.0,100%,20%)">vantablack</text>
<text x="1.376" y="0.032" font-size="0.004903" fill="hsl(240.0,100%,20%)">grt</text>
<text x="1.230" y="0.041" font-size="0.002831" fill="hsl(240.0,100%,20%)">jpmuraira</text>
<text x="0.472" y="0.815" font-size="0.012010" fill="hsl(0.0,100%,20%)">hailinzhang</text>
<text x="0.330" y="1.648" font-size="0.002831" fill="hsl(0.0,100%,20%)">mprzybyl</text>
<text x="1.664" y="0.171" font-size="0.006330" fill="hsl(240.0,100%,20%)">hitawala</text>
<text x="0.756" y="0.968" font-size="0.009806" fill="hsl(0.0,100%,20%)">j.vigil</text>
<text x="0.574" y="0.776" font-size="0.022108" fill="hsl(0.0,100%,20%)">m.maiya</text>
<text x="0.316" y="0.321" font-size="0.006934" fill="hsl(120.0,100%,20%)">jojwang</text>
<text x="1.674" y="0.590" font-size="0.004903" fill="hsl(120.0,100%,20%)">jwata</text>
<text x="1.752" y="0.490" font-size="0.002831" fill="hsl(120.0,100%,20%)">tikuta</text>
<text x="0.492" y="0.288" font-size="0.033968" fill="hsl(240.0,100%,20%)">lexa.knyazev</text>
<text x="0.142" y="0.163" font-size="0.002831" fill="hsl(240.0,100%,20%)">brianosman</text>
<text x="1.424" y="0.960" font-size="0.008006" fill="hsl(240.0,100%,20%)">msisov</text>
<text x="0.838" y="0.124" font-size="0.004903" fill="hsl(0.0,100%,20%)">chrisforbes</text>
<text x="0.831" y="0.806" font-size="0.006934" fill="hsl(0.0,100%,20%)">olv</text>
<text x="0.583" y="0.789" font-size="0.010206" fill="hsl(240.0,100%,20%)">robert.mader</text>
<text x="0.685" y="0.475" font-size="0.002831" fill="hsl(120.0,100%,20%)">kainino</text>
<text x="0.473" y="0.477" font-size="0.006330" fill="hsl(120.0,100%,20%)">sharma.loic</text>
<text x="0.635" y="0.025" font-size="0.008492" fill="hsl(240.0,100%,20%)">sky</text>
<text x="0.635" y="0.448" font-size="0.009388" fill="hsl(120.0,100%,20%)">srisser</text>
<text x="0.933" y="0.837" font-size="0.002831" fill="hsl(0.0,100%,20%)">jie.a.chen</text>
<text x="0.577" y="0.956" font-size="0.014153" fill="hsl(0.0,100%,20%)">sywow.choi</text>
<text x="1.011" y="0.978" font-size="0.002831" fill="hsl(0.0,100%,20%)">antonio.caggiano</text>
<text x="1.756" y="0.710" font-size="0.006330" fill="hsl(240.0,100%,20%)">tvignatti</text>
<text x="1.075" y="0.346" font-size="0.002831" fill="hsl(120.0,100%,20%)">cwallez</text>
<text x="0.551" y="0.902" font-size="0.002831" fill="hsl(0.0,100%,20%)">rjodin</text>
</svg>
