<svg width="4000" height="2000" viewBox="-0.025 -0.025 2.05 1.05" xmlns="http://www.w3.org/2000/svg">
  <style>
    path {
      fill: none;
      stroke-linecap: round;
      stroke-opacity: 0.4;
    }

    text {
      text-anchor: middle;
      alignment-baseline: hanging;
    }
  </style>
  <g opacity="0.4">
<path d="M0.900 0.849 Q0.742 0.591 0.205 0.611" stroke="hsl(0.0,100%,35%)" stroke-width="0.00116"></path>
<path d="M0.900 0.849 Q0.706 0.675 0.323 0.731" stroke="hsl(0.0,100%,35%)" stroke-width="0.01103"></path>
<path d="M0.900 0.849 Q1.750 0.587 1.424 0.115" stroke="hsl(0.0,100%,35%)" stroke-width="0.00116"></path>
<path d="M0.900 0.849 Q1.037 1.047 1.452 1.023" stroke="hsl(0.0,100%,35%)" stroke-width="0.02323"></path>
<path d="M0.900 0.849 Q1.470 0.984 1.859 0.735" stroke="hsl(0.0,100%,35%)" stroke-width="0.00058"></path>
<path d="M0.900 0.849 Q1.162 0.882 1.283 0.761" stroke="hsl(0.0,100%,35%)" stroke-width="0.00058"></path>
<path d="M0.900 0.849 Q0.935 0.952 1.144 0.958" stroke="hsl(0.0,100%,35%)" stroke-width="0.00987"></path>
<path d="M0.900 0.849 Q1.368 0.495 0.780 0.189" stroke="hsl(0.0,100%,35%)" stroke-width="0.00232"></path>
<path d="M0.205 0.611 Q0.499 1.067 1.452 1.023" stroke="hsl(0.0,100%,35%)" stroke-width="0.01452"></path>
<path d="M0.205 0.611 Q0.397 0.972 1.144 0.958" stroke="hsl(0.0,100%,35%)" stroke-width="0.00465"></path>
<path d="M0.205 0.611 Q1.212 0.607 1.424 0.115" stroke="hsl(0.0,100%,35%)" stroke-width="0.00348"></path>
<path d="M0.205 0.611 Q0.624 0.902 1.283 0.761" stroke="hsl(0.0,100%,35%)" stroke-width="0.00581"></path>
<path d="M0.205 0.611 Q0.362 0.869 0.900 0.849" stroke="hsl(0.0,100%,35%)" stroke-width="0.00348"></path>
<path d="M0.205 0.611 Q0.644 0.688 0.889 0.490" stroke="hsl(0.0,100%,35%)" stroke-width="0.00058"></path>
<path d="M0.205 0.611 Q0.168 0.695 0.323 0.731" stroke="hsl(0.0,100%,35%)" stroke-width="0.01162"></path>
<path d="M0.205 0.611 Q0.542 0.780 0.944 0.652" stroke="hsl(0.0,100%,35%)" stroke-width="0.00058"></path>
<path d="M0.323 0.731 Q0.359 0.647 0.205 0.611" stroke="hsl(0.0,100%,35%)" stroke-width="0.00813"></path>
<path d="M0.323 0.731 Q0.653 1.103 1.452 1.023" stroke="hsl(0.0,100%,35%)" stroke-width="0.00232"></path>
<path d="M0.323 0.731 Q1.366 0.643 1.424 0.115" stroke="hsl(0.0,100%,35%)" stroke-width="0.00058"></path>
<path d="M0.323 0.731 Q0.517 0.905 0.900 0.849" stroke="hsl(0.0,100%,35%)" stroke-width="0.00116"></path>
<path d="M0.323 0.731 Q0.552 1.009 1.144 0.958" stroke="hsl(0.0,100%,35%)" stroke-width="0.00116"></path>
<path d="M0.323 0.731 Q0.215 0.707 0.145 0.755" stroke="hsl(0.0,100%,35%)" stroke-width="0.00987"></path>
<path d="M0.323 0.731 Q0.985 0.551 0.780 0.189" stroke="hsl(0.0,100%,35%)" stroke-width="0.00058"></path>
<path d="M0.323 0.731 Q0.778 0.938 1.283 0.761" stroke="hsl(0.0,100%,35%)" stroke-width="0.00058"></path>
<path d="M1.424 0.115 Q0.381 0.202 0.323 0.731" stroke="hsl(0.0,100%,35%)" stroke-width="0.00348"></path>
<path d="M1.424 0.115 Q0.711 0.575 1.452 1.023" stroke="hsl(0.0,100%,35%)" stroke-width="0.00290"></path>
<path d="M1.424 0.115 Q1.574 0.130 1.637 0.061" stroke="hsl(0.0,100%,35%)" stroke-width="0.00581"></path>
<path d="M1.424 0.115 Q1.042 0.023 0.780 0.189" stroke="hsl(0.0,100%,35%)" stroke-width="0.00232"></path>
<path d="M1.424 0.115 Q0.417 0.119 0.205 0.611" stroke="hsl(0.0,100%,35%)" stroke-width="0.00290"></path>
<path d="M1.424 0.115 Q0.836 0.410 1.283 0.761" stroke="hsl(0.0,100%,35%)" stroke-width="0.00116"></path>
<path d="M1.424 0.115 Q0.574 0.377 0.900 0.849" stroke="hsl(0.0,100%,35%)" stroke-width="0.00058"></path>
<path d="M1.424 0.115 Q0.754 0.287 0.944 0.652" stroke="hsl(0.0,100%,35%)" stroke-width="0.00116"></path>
<path d="M1.452 1.023 Q1.543 0.924 1.368 0.857" stroke="hsl(0.0,100%,35%)" stroke-width="0.00058"></path>
<path d="M1.452 1.023 Q1.350 0.929 1.144 0.958" stroke="hsl(0.0,100%,35%)" stroke-width="0.01858"></path>
<path d="M1.452 1.023 Q1.158 0.568 0.205 0.611" stroke="hsl(0.0,100%,35%)" stroke-width="0.00232"></path>
<path d="M1.452 1.023 Q1.577 0.859 1.283 0.761" stroke="hsl(0.0,100%,35%)" stroke-width="0.01858"></path>
<path d="M1.452 1.023 Q1.783 0.472 0.780 0.189" stroke="hsl(0.0,100%,35%)" stroke-width="0.01626"></path>
<path d="M1.452 1.023 Q1.122 0.651 0.323 0.731" stroke="hsl(0.0,100%,35%)" stroke-width="0.00174"></path>
<path d="M1.452 1.023 Q2.165 0.563 1.424 0.115" stroke="hsl(0.0,100%,35%)" stroke-width="0.00581"></path>
<path d="M1.452 1.023 Q1.315 0.826 0.900 0.849" stroke="hsl(0.0,100%,35%)" stroke-width="0.01162"></path>
<path d="M1.452 1.023 Q1.536 0.863 1.242 0.787" stroke="hsl(0.0,100%,35%)" stroke-width="0.00232"></path>
<path d="M1.452 1.023 Q1.687 0.581 0.875 0.370" stroke="hsl(0.0,100%,35%)" stroke-width="0.00058"></path>
<path d="M1.452 1.023 Q1.597 0.644 0.889 0.490" stroke="hsl(0.0,100%,35%)" stroke-width="0.00116"></path>
<path d="M1.452 1.023 Q1.448 0.852 1.114 0.817" stroke="hsl(0.0,100%,35%)" stroke-width="0.00174"></path>
<path d="M1.452 1.023 Q1.825 0.921 1.708 0.717" stroke="hsl(0.0,100%,35%)" stroke-width="0.00058"></path>
<path d="M1.452 1.023 Q1.423 0.449 0.297 0.337" stroke="hsl(0.0,100%,35%)" stroke-width="0.00116"></path>
<path d="M1.859 0.735 Q1.131 0.343 0.205 0.611" stroke="hsl(0.0,100%,35%)" stroke-width="0.00116"></path>
<path d="M1.859 0.735 Q1.425 0.798 1.452 1.023" stroke="hsl(0.0,100%,35%)" stroke-width="0.00232"></path>
<path d="M1.859 0.735 Q1.094 0.426 0.323 0.731" stroke="hsl(0.0,100%,35%)" stroke-width="0.00058"></path>
<path d="M1.859 0.735 Q1.782 0.770 1.833 0.816" stroke="hsl(0.0,100%,35%)" stroke-width="0.00058"></path>
<path d="M1.283 0.761 Q1.871 0.466 1.424 0.115" stroke="hsl(0.0,100%,35%)" stroke-width="0.00058"></path>
<path d="M1.283 0.761 Q1.021 0.729 0.900 0.849" stroke="hsl(0.0,100%,35%)" stroke-width="0.00348"></path>
<path d="M1.283 0.761 Q1.056 0.832 1.144 0.958" stroke="hsl(0.0,100%,35%)" stroke-width="0.00290"></path>
<path d="M1.283 0.761 Q1.158 0.926 1.452 1.023" stroke="hsl(0.0,100%,35%)" stroke-width="0.00348"></path>
<path d="M1.283 0.761 Q1.201 0.639 0.944 0.652" stroke="hsl(0.0,100%,35%)" stroke-width="0.00058"></path>
<path d="M1.283 0.761 Q0.864 0.471 0.205 0.611" stroke="hsl(0.0,100%,35%)" stroke-width="0.00116"></path>
<path d="M1.283 0.761 Q0.827 0.554 0.323 0.731" stroke="hsl(0.0,100%,35%)" stroke-width="0.00116"></path>
<path d="M1.144 0.958 Q1.246 1.052 1.452 1.023" stroke="hsl(0.0,100%,35%)" stroke-width="0.04530"></path>
<path d="M1.144 0.958 Q1.109 0.855 0.900 0.849" stroke="hsl(0.0,100%,35%)" stroke-width="0.01858"></path>
<path d="M1.144 0.958 Q1.577 0.501 0.780 0.189" stroke="hsl(0.0,100%,35%)" stroke-width="0.00116"></path>
<path d="M1.144 0.958 Q0.951 0.597 0.205 0.611" stroke="hsl(0.0,100%,35%)" stroke-width="0.00232"></path>
<path d="M1.144 0.958 Q1.371 0.887 1.283 0.761" stroke="hsl(0.0,100%,35%)" stroke-width="0.02207"></path>
<path d="M1.144 0.958 Q0.915 0.680 0.323 0.731" stroke="hsl(0.0,100%,35%)" stroke-width="0.00058"></path>
<path d="M1.144 0.958 Q1.070 0.878 0.897 0.896" stroke="hsl(0.0,100%,35%)" stroke-width="0.00058"></path>
<path d="M1.144 0.958 Q1.010 0.952 0.969 1.015" stroke="hsl(0.0,100%,35%)" stroke-width="0.00058"></path>
<path d="M0.780 0.189 Q0.448 0.741 1.452 1.023" stroke="hsl(180.0,100%,35%)" stroke-width="0.02555"></path>
<path d="M0.780 0.189 Q0.118 0.368 0.323 0.731" stroke="hsl(180.0,100%,35%)" stroke-width="0.00232"></path>
<path d="M0.780 0.189 Q0.071 0.522 0.565 0.941" stroke="hsl(180.0,100%,35%)" stroke-width="0.00465"></path>
<path d="M0.780 0.189 Q0.226 0.466 0.645 0.797" stroke="hsl(180.0,100%,35%)" stroke-width="0.00348"></path>
<path d="M0.780 0.189 Q1.161 0.281 1.424 0.115" stroke="hsl(180.0,100%,35%)" stroke-width="0.00174"></path>
<path d="M0.780 0.189 Q0.312 0.543 0.900 0.849" stroke="hsl(180.0,100%,35%)" stroke-width="0.00174"></path>
<path d="M0.780 0.189 Q0.573 0.576 1.283 0.761" stroke="hsl(180.0,100%,35%)" stroke-width="0.00116"></path>
<path d="M0.780 0.189 Q0.420 0.166 0.297 0.337" stroke="hsl(180.0,100%,35%)" stroke-width="0.00116"></path>
<path d="M0.780 0.189 Q0.154 0.285 0.205 0.611" stroke="hsl(180.0,100%,35%)" stroke-width="0.00058"></path>
<path d="M0.780 0.189 Q0.525 0.244 0.576 0.380" stroke="hsl(180.0,100%,35%)" stroke-width="0.00058"></path>
<path d="M0.780 0.189 Q0.984 0.152 0.957 0.044" stroke="hsl(180.0,100%,35%)" stroke-width="0.00058"></path>
<path d="M0.780 0.189 Q0.683 0.299 0.875 0.370" stroke="hsl(180.0,100%,35%)" stroke-width="0.00058"></path>
<path d="M0.780 0.189 Q0.551 0.063 0.255 0.147" stroke="hsl(180.0,100%,35%)" stroke-width="0.00116"></path>
<path d="M0.780 0.189 Q0.852 0.220 0.929 0.192" stroke="hsl(180.0,100%,35%)" stroke-width="0.00058"></path>
<path d="M0.780 0.189 Q0.710 0.225 0.765 0.267" stroke="hsl(180.0,100%,35%)" stroke-width="0.00058"></path>
<path d="M0.780 0.189 Q0.594 0.361 0.889 0.490" stroke="hsl(180.0,100%,35%)" stroke-width="0.00058"></path>
<path d="M0.145 0.755 Q0.253 0.778 0.323 0.731" stroke="hsl(0.0,100%,35%)" stroke-width="0.00929"></path>
<path d="M0.145 0.755 Q1.297 0.690 1.424 0.115" stroke="hsl(0.0,100%,35%)" stroke-width="0.00058"></path>
<path d="M0.145 0.755 Q0.584 1.150 1.452 1.023" stroke="hsl(0.0,100%,35%)" stroke-width="0.00116"></path>
<path d="M0.145 0.755 Q0.915 0.599 0.780 0.189" stroke="hsl(0.0,100%,35%)" stroke-width="0.00058"></path>
<path d="M0.492 0.548 Q0.297 0.522 0.205 0.611" stroke="hsl(0.0,100%,35%)" stroke-width="0.00174"></path>
<path d="M0.492 0.548 Q0.591 0.978 1.452 1.023" stroke="hsl(0.0,100%,35%)" stroke-width="0.00058"></path>
<path d="M0.492 0.548 Q1.304 0.518 1.424 0.115" stroke="hsl(0.0,100%,35%)" stroke-width="0.00058"></path>
<path d="M1.142 0.308 Q1.056 0.176 0.780 0.189" stroke="hsl(180.0,100%,35%)" stroke-width="0.00174"></path>
<path d="M1.142 0.308 Q0.959 0.285 0.875 0.370" stroke="hsl(180.0,100%,35%)" stroke-width="0.00058"></path>
<path d="M1.142 0.308 Q0.724 0.727 1.452 1.023" stroke="hsl(180.0,100%,35%)" stroke-width="0.00058"></path>
<path d="M1.142 0.308 Q0.870 0.348 0.889 0.490" stroke="hsl(180.0,100%,35%)" stroke-width="0.00116"></path>
<path d="M0.875 0.370 Q0.786 0.433 0.889 0.490" stroke="hsl(180.0,100%,35%)" stroke-width="0.00639"></path>
<path d="M0.875 0.370 Q0.972 0.260 0.780 0.189" stroke="hsl(180.0,100%,35%)" stroke-width="0.00813"></path>
<path d="M0.875 0.370 Q0.612 0.238 0.297 0.337" stroke="hsl(180.0,100%,35%)" stroke-width="0.00058"></path>
<path d="M1.163 0.606 Q0.680 0.417 0.205 0.611" stroke="hsl(0.0,100%,35%)" stroke-width="0.00058"></path>
<path d="M1.163 0.606 Q1.099 0.708 1.283 0.761" stroke="hsl(0.0,100%,35%)" stroke-width="0.00058"></path>
<path d="M1.163 0.606 Q0.974 0.873 1.452 1.023" stroke="hsl(0.0,100%,35%)" stroke-width="0.00058"></path>
<path d="M1.634 0.758 Q1.330 0.854 1.452 1.023" stroke="hsl(0.0,100%,35%)" stroke-width="0.01220"></path>
<path d="M1.634 0.758 Q1.229 0.760 1.144 0.958" stroke="hsl(0.0,100%,35%)" stroke-width="0.00871"></path>
<path d="M1.634 0.758 Q1.662 0.302 0.780 0.189" stroke="hsl(0.0,100%,35%)" stroke-width="0.00058"></path>
<path d="M0.565 0.941 Q0.720 0.885 0.645 0.797" stroke="hsl(180.0,100%,35%)" stroke-width="0.00523"></path>
<path d="M0.565 0.941 Q0.943 1.159 1.452 1.023" stroke="hsl(180.0,100%,35%)" stroke-width="0.00465"></path>
<path d="M0.565 0.941 Q1.274 0.608 0.780 0.189" stroke="hsl(180.0,100%,35%)" stroke-width="0.00290"></path>
<path d="M0.645 0.797 Q0.490 0.853 0.565 0.941" stroke="hsl(180.0,100%,35%)" stroke-width="0.00290"></path>
<path d="M0.645 0.797 Q0.868 1.072 1.452 1.023" stroke="hsl(180.0,100%,35%)" stroke-width="0.00465"></path>
<path d="M0.645 0.797 Q1.199 0.520 0.780 0.189" stroke="hsl(180.0,100%,35%)" stroke-width="0.00523"></path>
<path d="M0.297 0.337 Q0.325 0.911 1.452 1.023" stroke="hsl(180.0,100%,35%)" stroke-width="0.02265"></path>
<path d="M0.297 0.337 Q0.657 0.360 0.780 0.189" stroke="hsl(180.0,100%,35%)" stroke-width="0.03136"></path>
<path d="M0.297 0.337 Q0.353 0.249 0.193 0.202" stroke="hsl(180.0,100%,35%)" stroke-width="0.01510"></path>
<path d="M0.297 0.337 Q0.471 0.532 0.889 0.490" stroke="hsl(180.0,100%,35%)" stroke-width="0.00871"></path>
<path d="M0.297 0.337 Q0.560 0.469 0.875 0.370" stroke="hsl(180.0,100%,35%)" stroke-width="0.00348"></path>
<path d="M0.297 0.337 Q0.224 0.817 1.144 0.958" stroke="hsl(180.0,100%,35%)" stroke-width="0.00058"></path>
<path d="M1.346 0.851 Q1.125 0.761 0.900 0.849" stroke="hsl(0.0,100%,35%)" stroke-width="0.00058"></path>
<path d="M1.346 0.851 Q1.261 0.958 1.452 1.023" stroke="hsl(0.0,100%,35%)" stroke-width="0.00116"></path>
<path d="M1.346 0.851 Q1.974 0.498 1.424 0.115" stroke="hsl(0.0,100%,35%)" stroke-width="0.00058"></path>
<path d="M1.346 0.851 Q1.160 0.864 1.144 0.958" stroke="hsl(0.0,100%,35%)" stroke-width="0.00058"></path>
<path d="M1.346 0.851 Q1.386 0.794 1.283 0.761" stroke="hsl(0.0,100%,35%)" stroke-width="0.00058"></path>
<path d="M0.588 0.256 Q0.406 0.812 1.452 1.023" stroke="hsl(180.0,100%,35%)" stroke-width="0.00116"></path>
<path d="M0.588 0.256 Q0.738 0.261 0.780 0.189" stroke="hsl(180.0,100%,35%)" stroke-width="0.00058"></path>
<path d="M0.588 0.256 Q0.184 0.538 0.645 0.797" stroke="hsl(180.0,100%,35%)" stroke-width="0.00058"></path>
<path d="M1.114 0.817 Q1.449 0.436 0.780 0.189" stroke="hsl(0.0,100%,35%)" stroke-width="0.00058"></path>
<path d="M1.114 0.817 Q1.118 0.988 1.452 1.023" stroke="hsl(0.0,100%,35%)" stroke-width="0.01452"></path>
<path d="M1.114 0.817 Q1.016 0.893 1.144 0.958" stroke="hsl(0.0,100%,35%)" stroke-width="0.00755"></path>
<path d="M1.114 0.817 Q1.202 0.827 1.242 0.787" stroke="hsl(0.0,100%,35%)" stroke-width="0.00174"></path>
<path d="M1.114 0.817 Q0.824 0.532 0.205 0.611" stroke="hsl(0.0,100%,35%)" stroke-width="0.00058"></path>
<path d="M1.114 0.817 Q0.981 0.790 0.900 0.849" stroke="hsl(0.0,100%,35%)" stroke-width="0.00116"></path>
<path d="M1.242 0.787 Q1.056 0.853 1.144 0.958" stroke="hsl(0.0,100%,35%)" stroke-width="0.00755"></path>
<path d="M1.242 0.787 Q1.157 0.947 1.452 1.023" stroke="hsl(0.0,100%,35%)" stroke-width="0.01684"></path>
<path d="M1.242 0.787 Q0.827 0.575 0.323 0.731" stroke="hsl(0.0,100%,35%)" stroke-width="0.00058"></path>
<path d="M1.242 0.787 Q1.282 0.782 1.283 0.761" stroke="hsl(0.0,100%,35%)" stroke-width="0.00058"></path>
<path d="M0.193 0.202 Q0.400 0.422 0.875 0.370" stroke="hsl(180.0,100%,35%)" stroke-width="0.00116"></path>
<path d="M0.193 0.202 Q0.310 0.485 0.889 0.490" stroke="hsl(180.0,100%,35%)" stroke-width="0.00116"></path>
<path d="M0.193 0.202 Q0.165 0.864 1.452 1.023" stroke="hsl(180.0,100%,35%)" stroke-width="0.00058"></path>
<path d="M0.193 0.202 Q0.496 0.313 0.780 0.189" stroke="hsl(180.0,100%,35%)" stroke-width="0.00813"></path>
<path d="M0.193 0.202 Q0.137 0.290 0.297 0.337" stroke="hsl(180.0,100%,35%)" stroke-width="0.00523"></path>
<path d="M0.462 0.105 Q0.368 0.383 0.889 0.490" stroke="hsl(180.0,100%,35%)" stroke-width="0.00058"></path>
<path d="M0.462 0.105 Q0.250 0.099 0.193 0.202" stroke="hsl(180.0,100%,35%)" stroke-width="0.00116"></path>
<path d="M0.462 0.105 Q0.222 0.762 1.452 1.023" stroke="hsl(180.0,100%,35%)" stroke-width="0.00116"></path>
<path d="M0.609 0.057 Q0.286 0.046 0.193 0.202" stroke="hsl(180.0,100%,35%)" stroke-width="0.00232"></path>
<path d="M0.609 0.057 Q0.258 0.709 1.452 1.023" stroke="hsl(180.0,100%,35%)" stroke-width="0.00058"></path>
<path d="M0.609 0.057 Q0.589 0.157 0.780 0.189" stroke="hsl(180.0,100%,35%)" stroke-width="0.00116"></path>
<path d="M0.944 0.652 Q1.026 0.775 1.283 0.761" stroke="hsl(0.0,100%,35%)" stroke-width="0.00232"></path>
<path d="M0.944 0.652 Q0.901 0.939 1.452 1.023" stroke="hsl(0.0,100%,35%)" stroke-width="0.00116"></path>
<path d="M0.944 0.652 Q1.614 0.479 1.424 0.115" stroke="hsl(0.0,100%,35%)" stroke-width="0.00058"></path>
<path d="M1.705 0.189 Q0.911 0.556 1.452 1.023" stroke="hsl(0.0,100%,35%)" stroke-width="0.00058"></path>
<path d="M1.705 0.189 Q1.497 0.211 1.495 0.318" stroke="hsl(0.0,100%,35%)" stroke-width="0.00058"></path>
<path d="M1.705 0.189 Q1.624 0.096 1.424 0.115" stroke="hsl(0.0,100%,35%)" stroke-width="0.00058"></path>
<path d="M1.708 0.717 Q1.335 0.819 1.452 1.023" stroke="hsl(0.0,100%,35%)" stroke-width="0.00174"></path>
<path d="M1.708 0.717 Q1.480 0.440 0.889 0.490" stroke="hsl(0.0,100%,35%)" stroke-width="0.00058"></path>
<path d="M1.708 0.717 Q1.198 0.621 0.900 0.849" stroke="hsl(0.0,100%,35%)" stroke-width="0.00058"></path>
</g>
<text x="0.900" y="0.822" font-size="0.054208" fill="hsl(0.0,100%,20%)">abdolrashidi</text>
<text x="0.205" y="0.588" font-size="0.046156" fill="hsl(0.0,100%,20%)">romanl</text>
<text x="0.323" y="0.708" font-size="0.045957" fill="hsl(0.0,100%,20%)">cnorthrop</text>
<text x="1.424" y="0.098" font-size="0.034015" fill="hsl(0.0,100%,20%)">ynovikov</text>
<text x="1.452" y="0.976" font-size="0.095635" fill="hsl(0.0,100%,20%)">syoussefi</text>
<text x="1.859" y="0.729" font-size="0.012856" fill="hsl(0.0,100%,20%)">zzyiwei</text>
<text x="1.283" y="0.738" font-size="0.046156" fill="hsl(0.0,100%,20%)">yuxinhu</text>
<text x="1.144" y="0.923" font-size="0.069631" fill="hsl(0.0,100%,20%)">cclao</text>
<text x="0.780" y="0.157" font-size="0.064282" fill="hsl(180.0,100%,20%)">geofflang</text>
<text x="0.897" y="0.894" font-size="0.004285" fill="hsl(0.0,100%,20%)">gregschlom</text>
<text x="0.969" y="1.013" font-size="0.004285" fill="hsl(0.0,100%,20%)">slumpwuffle</text>
<text x="0.145" y="0.742" font-size="0.026068" fill="hsl(0.0,100%,20%)">mark</text>
<text x="0.492" y="0.543" font-size="0.009583" fill="hsl(0.0,100%,20%)">dextero</text>
<text x="1.142" y="0.302" font-size="0.011338" fill="hsl(180.0,100%,20%)">djg</text>
<text x="0.875" y="0.357" font-size="0.026068" fill="hsl(180.0,100%,20%)">lehoangquyen</text>
<text x="0.889" y="0.477" font-size="0.025713" fill="hsl(180.0,100%,20%)">kbr</text>
<text x="1.163" y="0.603" font-size="0.007423" fill="hsl(0.0,100%,20%)">dloehr</text>
<text x="1.634" y="0.745" font-size="0.026068" fill="hsl(0.0,100%,20%)">g.tammana</text>
<text x="0.565" y="0.928" font-size="0.025353" fill="hsl(180.0,100%,20%)">liza</text>
<text x="0.645" y="0.784" font-size="0.026418" fill="hsl(180.0,100%,20%)">mpdenton</text>
<text x="0.297" y="0.310" font-size="0.053354" fill="hsl(180.0,100%,20%)">lexa.knyazev</text>
<text x="0.576" y="0.378" font-size="0.004285" fill="hsl(180.0,100%,20%)">johnstiles</text>
<text x="0.957" y="0.042" font-size="0.004285" fill="hsl(180.0,100%,20%)">vasilyt</text>
<text x="0.255" y="0.144" font-size="0.006061" fill="hsl(180.0,100%,20%)">zmo</text>
<text x="0.929" y="0.190" font-size="0.004285" fill="hsl(180.0,100%,20%)">dsinclair</text>
<text x="0.765" y="0.265" font-size="0.004285" fill="hsl(180.0,100%,20%)">cwallez</text>
<text x="1.346" y="0.846" font-size="0.010497" fill="hsl(0.0,100%,20%)">hailinzhang</text>
<text x="0.588" y="0.252" font-size="0.008571" fill="hsl(180.0,100%,20%)">hocheung</text>
<text x="1.114" y="0.802" font-size="0.029691" fill="hsl(0.0,100%,20%)">i.nazarov</text>
<text x="1.242" y="0.771" font-size="0.030605" fill="hsl(0.0,100%,20%)">m.maiya</text>
<text x="0.193" y="0.185" font-size="0.033195" fill="hsl(180.0,100%,20%)">kkinnunen</text>
<text x="0.462" y="0.100" font-size="0.009583" fill="hsl(180.0,100%,20%)">lerica</text>
<text x="0.609" y="0.052" font-size="0.011338" fill="hsl(180.0,100%,20%)">mscott</text>
<text x="0.944" y="0.645" font-size="0.014213" fill="hsl(0.0,100%,20%)">solti</text>
<text x="1.705" y="0.185" font-size="0.007423" fill="hsl(0.0,100%,20%)">sokcevic</text>
<text x="1.495" y="0.316" font-size="0.004285" fill="hsl(0.0,100%,20%)">jwata</text>
<text x="1.708" y="0.712" font-size="0.010497" fill="hsl(0.0,100%,20%)">steven</text>
<text x="1.368" y="0.855" font-size="0.004285" fill="hsl(0.0,100%,20%)">a.annestrand</text>
<text x="1.637" y="0.054" font-size="0.013552" fill="hsl(0.0,100%,20%)">bsheedy</text>
<text x="1.833" y="0.813" font-size="0.004285" fill="hsl(0.0,100%,20%)">lepton</text>
</svg>
