<svg width="4000" height="2000" viewBox="-0.025 -0.025 2.05 1.05" xmlns="http://www.w3.org/2000/svg">
  <style>
    path {
      fill: none;
      stroke-linecap: round;
      stroke-opacity: 0.4;
    }

    text {
      text-anchor: middle;
      alignment-baseline: hanging;
    }
  </style>
  <g opacity="0.4">
<path d="M1.376 0.803 Q0.777 0.543 0.140 0.778" stroke="hsl(0.0,100%,35%)" stroke-width="0.00937"></path>
<path d="M1.376 0.803 Q0.954 0.433 0.141 0.557" stroke="hsl(0.0,100%,35%)" stroke-width="0.01042"></path>
<path d="M1.376 0.803 Q1.305 0.857 1.395 0.903" stroke="hsl(0.0,100%,35%)" stroke-width="0.00104"></path>
<path d="M0.140 0.778 Q0.461 0.928 0.824 0.805" stroke="hsl(0.0,100%,35%)" stroke-width="0.00104"></path>
<path d="M0.140 0.778 Q0.317 0.668 0.141 0.557" stroke="hsl(0.0,100%,35%)" stroke-width="0.00521"></path>
<path d="M0.140 0.778 Q0.564 0.550 0.212 0.293" stroke="hsl(0.0,100%,35%)" stroke-width="0.00104"></path>
<path d="M0.140 0.778 Q0.204 0.699 0.064 0.650" stroke="hsl(0.0,100%,35%)" stroke-width="0.00208"></path>
<path d="M0.140 0.778 Q0.349 0.766 0.371 0.662" stroke="hsl(0.0,100%,35%)" stroke-width="0.00104"></path>
<path d="M0.140 0.778 Q0.503 0.866 0.753 0.708" stroke="hsl(0.0,100%,35%)" stroke-width="0.00104"></path>
<path d="M0.140 0.778 Q0.840 0.899 1.231 0.585" stroke="hsl(0.0,100%,35%)" stroke-width="0.00104"></path>
<path d="M0.141 0.557 Q-0.135 0.748 0.177 0.925" stroke="hsl(0.0,100%,35%)" stroke-width="0.00729"></path>
<path d="M0.141 0.557 Q0.587 0.454 0.484 0.213" stroke="hsl(0.0,100%,35%)" stroke-width="0.01562"></path>
<path d="M0.141 0.557 Q0.256 0.626 0.417 0.585" stroke="hsl(0.0,100%,35%)" stroke-width="0.04687"></path>
<path d="M0.141 0.557 Q0.753 0.435 0.649 0.110" stroke="hsl(0.0,100%,35%)" stroke-width="0.01354"></path>
<path d="M0.141 0.557 Q0.491 0.981 1.395 0.903" stroke="hsl(0.0,100%,35%)" stroke-width="0.00208"></path>
<path d="M0.141 0.557 Q-0.036 0.667 0.140 0.778" stroke="hsl(0.0,100%,35%)" stroke-width="0.03645"></path>
<path d="M0.141 0.557 Q0.430 0.561 0.500 0.420" stroke="hsl(0.0,100%,35%)" stroke-width="0.00104"></path>
<path d="M0.141 0.557 Q0.494 0.763 0.973 0.636" stroke="hsl(0.0,100%,35%)" stroke-width="0.00104"></path>
<path d="M1.395 0.903 Q0.769 0.671 0.177 0.925" stroke="hsl(180.0,100%,35%)" stroke-width="0.00208"></path>
<path d="M1.395 0.903 Q0.868 0.590 0.140 0.778" stroke="hsl(180.0,100%,35%)" stroke-width="0.00312"></path>
<path d="M1.395 0.903 Q1.657 0.357 0.649 0.110" stroke="hsl(180.0,100%,35%)" stroke-width="0.00208"></path>
<path d="M1.395 0.903 Q1.491 0.979 1.660 0.949" stroke="hsl(180.0,100%,35%)" stroke-width="0.00208"></path>
<path d="M1.395 0.903 Q1.045 0.479 0.141 0.557" stroke="hsl(180.0,100%,35%)" stroke-width="0.00104"></path>
<path d="M1.395 0.903 Q1.568 0.711 1.231 0.585" stroke="hsl(180.0,100%,35%)" stroke-width="0.00104"></path>
<path d="M0.649 0.110 Q0.484 0.128 0.484 0.213" stroke="hsl(0.0,100%,35%)" stroke-width="0.01667"></path>
<path d="M0.649 0.110 Q0.153 0.301 0.417 0.585" stroke="hsl(0.0,100%,35%)" stroke-width="0.00312"></path>
<path d="M0.649 0.110 Q0.037 0.232 0.141 0.557" stroke="hsl(0.0,100%,35%)" stroke-width="0.01667"></path>
<path d="M0.484 0.213 Q0.649 0.195 0.649 0.110" stroke="hsl(0.0,100%,35%)" stroke-width="0.03021"></path>
<path d="M0.484 0.213 Q0.037 0.317 0.141 0.557" stroke="hsl(0.0,100%,35%)" stroke-width="0.03541"></path>
<path d="M0.484 0.213 Q0.387 0.741 1.395 0.903" stroke="hsl(0.0,100%,35%)" stroke-width="0.00104"></path>
<path d="M0.484 0.213 Q-0.239 0.508 0.177 0.925" stroke="hsl(0.0,100%,35%)" stroke-width="0.00104"></path>
<path d="M0.484 0.213 Q-0.140 0.427 0.140 0.778" stroke="hsl(0.0,100%,35%)" stroke-width="0.00208"></path>
<path d="M0.484 0.213 Q0.153 0.386 0.417 0.585" stroke="hsl(0.0,100%,35%)" stroke-width="0.00208"></path>
<path d="M0.417 0.585 Q0.913 0.394 0.649 0.110" stroke="hsl(0.0,100%,35%)" stroke-width="0.01667"></path>
<path d="M0.417 0.585 Q0.301 0.516 0.141 0.557" stroke="hsl(0.0,100%,35%)" stroke-width="0.01667"></path>
<path d="M0.417 0.585 Q0.748 0.412 0.484 0.213" stroke="hsl(0.0,100%,35%)" stroke-width="0.00625"></path>
<path d="M0.417 0.585 Q0.377 0.674 0.542 0.714" stroke="hsl(0.0,100%,35%)" stroke-width="0.00104"></path>
<path d="M0.417 0.585 Q0.025 0.707 0.177 0.925" stroke="hsl(0.0,100%,35%)" stroke-width="0.00208"></path>
<path d="M0.551 0.596 Q0.377 0.494 0.141 0.557" stroke="hsl(0.0,100%,35%)" stroke-width="0.00208"></path>
<path d="M0.551 0.596 Q0.493 0.564 0.417 0.585" stroke="hsl(0.0,100%,35%)" stroke-width="0.00104"></path>
<path d="M0.551 0.596 Q0.823 0.391 0.484 0.213" stroke="hsl(0.0,100%,35%)" stroke-width="0.00104"></path>
<path d="M0.177 0.925 Q0.685 0.572 0.109 0.247" stroke="hsl(180.0,100%,35%)" stroke-width="0.00104"></path>
<path d="M0.177 0.925 Q0.276 0.844 0.140 0.778" stroke="hsl(180.0,100%,35%)" stroke-width="0.00104"></path>
<path d="M0.177 0.925 Q0.443 1.090 0.822 0.996" stroke="hsl(180.0,100%,35%)" stroke-width="0.02812"></path>
<path d="M0.177 0.925 Q0.834 0.524 0.197 0.116" stroke="hsl(180.0,100%,35%)" stroke-width="0.00104"></path>
<path d="M0.177 0.925 Q1.065 0.612 0.649 0.110" stroke="hsl(180.0,100%,35%)" stroke-width="0.00833"></path>
<path d="M0.177 0.925 Q0.529 0.892 0.542 0.714" stroke="hsl(180.0,100%,35%)" stroke-width="0.00208"></path>
<path d="M0.177 0.925 Q0.900 0.630 0.484 0.213" stroke="hsl(180.0,100%,35%)" stroke-width="0.00312"></path>
<path d="M0.177 0.925 Q0.453 0.734 0.141 0.557" stroke="hsl(180.0,100%,35%)" stroke-width="0.01042"></path>
<path d="M0.177 0.925 Q0.569 0.803 0.417 0.585" stroke="hsl(180.0,100%,35%)" stroke-width="0.00104"></path>
<path d="M0.177 0.925 Q0.804 1.158 1.395 0.903" stroke="hsl(180.0,100%,35%)" stroke-width="0.00208"></path>
<path d="M0.109 0.247 Q0.489 0.287 0.649 0.110" stroke="hsl(180.0,100%,35%)" stroke-width="0.00312"></path>
<path d="M0.109 0.247 Q-0.007 0.478 0.417 0.585" stroke="hsl(180.0,100%,35%)" stroke-width="0.00208"></path>
<path d="M0.109 0.247 Q-0.123 0.409 0.141 0.557" stroke="hsl(180.0,100%,35%)" stroke-width="0.00521"></path>
<path d="M0.109 0.247 Q-0.399 0.600 0.177 0.925" stroke="hsl(180.0,100%,35%)" stroke-width="0.00312"></path>
<path d="M0.109 0.247 Q0.258 0.199 0.197 0.116" stroke="hsl(180.0,100%,35%)" stroke-width="0.00208"></path>
<path d="M0.822 0.996 Q0.656 0.751 0.140 0.778" stroke="hsl(180.0,100%,35%)" stroke-width="0.00104"></path>
<path d="M0.822 0.996 Q0.557 0.832 0.177 0.925" stroke="hsl(180.0,100%,35%)" stroke-width="0.01458"></path>
<path d="M0.822 0.996 Q1.445 0.518 0.649 0.110" stroke="hsl(180.0,100%,35%)" stroke-width="0.00104"></path>
<path d="M0.542 0.714 Q0.913 0.452 0.484 0.213" stroke="hsl(180.0,100%,35%)" stroke-width="0.00208"></path>
<path d="M0.542 0.714 Q0.191 0.746 0.177 0.925" stroke="hsl(180.0,100%,35%)" stroke-width="0.00312"></path>
<path d="M0.542 0.714 Q0.466 0.555 0.141 0.557" stroke="hsl(180.0,100%,35%)" stroke-width="0.00104"></path>
<path d="M0.542 0.714 Q0.582 0.624 0.417 0.585" stroke="hsl(180.0,100%,35%)" stroke-width="0.00104"></path>
<path d="M0.212 0.293 Q0.139 0.325 0.186 0.367" stroke="hsl(0.0,100%,35%)" stroke-width="0.00208"></path>
<path d="M0.212 0.293 Q-0.035 0.411 0.141 0.557" stroke="hsl(0.0,100%,35%)" stroke-width="0.00104"></path>
<path d="M0.212 0.293 Q-0.213 0.521 0.140 0.778" stroke="hsl(0.0,100%,35%)" stroke-width="0.00104"></path>
<path d="M1.231 0.585 Q0.531 0.463 0.140 0.778" stroke="hsl(0.0,100%,35%)" stroke-width="0.00937"></path>
<path d="M1.231 0.585 Q1.061 0.559 0.973 0.636" stroke="hsl(0.0,100%,35%)" stroke-width="0.00833"></path>
<path d="M1.231 0.585 Q0.708 0.353 0.141 0.557" stroke="hsl(0.0,100%,35%)" stroke-width="0.00104"></path>
<path d="M0.488 0.858 Q0.280 0.829 0.177 0.925" stroke="hsl(180.0,100%,35%)" stroke-width="0.00417"></path>
<path d="M0.488 0.858 Q0.545 0.994 0.822 0.996" stroke="hsl(180.0,100%,35%)" stroke-width="0.00208"></path>
<path d="M0.488 0.858 Q0.555 0.638 0.141 0.557" stroke="hsl(180.0,100%,35%)" stroke-width="0.00208"></path>
<path d="M0.064 0.356 Q-0.335 0.663 0.177 0.925" stroke="hsl(0.0,100%,35%)" stroke-width="0.00104"></path>
<path d="M0.064 0.356 Q-0.059 0.472 0.141 0.557" stroke="hsl(0.0,100%,35%)" stroke-width="0.00312"></path>
<path d="M0.064 0.356 Q0.362 0.841 1.376 0.803" stroke="hsl(0.0,100%,35%)" stroke-width="0.00104"></path>
<path d="M0.670 0.442 Q0.136 0.504 0.140 0.778" stroke="hsl(0.0,100%,35%)" stroke-width="0.00208"></path>
<path d="M0.670 0.442 Q0.313 0.394 0.141 0.557" stroke="hsl(0.0,100%,35%)" stroke-width="0.00625"></path>
<path d="M0.670 0.442 Q0.759 0.290 0.484 0.213" stroke="hsl(0.0,100%,35%)" stroke-width="0.00208"></path>
<path d="M0.670 0.442 Q0.602 0.397 0.500 0.420" stroke="hsl(0.0,100%,35%)" stroke-width="0.00104"></path>
<path d="M0.670 0.442 Q0.037 0.585 0.177 0.925" stroke="hsl(0.0,100%,35%)" stroke-width="0.00104"></path>
<path d="M0.500 0.420 Q0.657 0.313 0.484 0.213" stroke="hsl(0.0,100%,35%)" stroke-width="0.00208"></path>
<path d="M0.500 0.420 Q0.211 0.417 0.141 0.557" stroke="hsl(0.0,100%,35%)" stroke-width="0.00833"></path>
<path d="M0.500 0.420 Q0.823 0.295 0.649 0.110" stroke="hsl(0.0,100%,35%)" stroke-width="0.00208"></path>
<path d="M0.500 0.420 Q-0.065 0.608 0.177 0.925" stroke="hsl(0.0,100%,35%)" stroke-width="0.00104"></path>
<path d="M0.500 0.420 Q0.327 0.486 0.417 0.585" stroke="hsl(0.0,100%,35%)" stroke-width="0.00104"></path>
<path d="M0.500 0.420 Q0.034 0.527 0.140 0.778" stroke="hsl(0.0,100%,35%)" stroke-width="0.00104"></path>
<path d="M0.973 0.636 Q1.143 0.662 1.231 0.585" stroke="hsl(0.0,100%,35%)" stroke-width="0.00833"></path>
<path d="M0.973 0.636 Q0.620 0.430 0.141 0.557" stroke="hsl(0.0,100%,35%)" stroke-width="0.01458"></path>
<path d="M0.973 0.636 Q0.443 0.540 0.140 0.778" stroke="hsl(0.0,100%,35%)" stroke-width="0.01562"></path>
<path d="M0.582 0.471 Q0.017 0.617 0.177 0.925" stroke="hsl(180.0,100%,35%)" stroke-width="0.00104"></path>
<path d="M0.582 0.471 Q0.293 0.426 0.141 0.557" stroke="hsl(180.0,100%,35%)" stroke-width="0.00208"></path>
<path d="M0.582 0.471 Q0.739 0.323 0.484 0.213" stroke="hsl(180.0,100%,35%)" stroke-width="0.00104"></path>
<path d="M0.766 0.346 Q0.732 0.223 0.484 0.213" stroke="hsl(0.0,100%,35%)" stroke-width="0.00208"></path>
<path d="M0.766 0.346 Q0.285 0.327 0.141 0.557" stroke="hsl(0.0,100%,35%)" stroke-width="0.00417"></path>
<path d="M0.766 0.346 Q0.897 0.205 0.649 0.110" stroke="hsl(0.0,100%,35%)" stroke-width="0.00104"></path>
<path d="M0.766 0.346 Q0.108 0.437 0.140 0.778" stroke="hsl(0.0,100%,35%)" stroke-width="0.00208"></path>
<path d="M0.665 0.470 Q0.333 0.409 0.141 0.557" stroke="hsl(0.0,100%,35%)" stroke-width="0.00312"></path>
<path d="M0.665 0.470 Q0.156 0.519 0.140 0.778" stroke="hsl(0.0,100%,35%)" stroke-width="0.00208"></path>
<path d="M0.665 0.470 Q0.591 0.567 0.762 0.624" stroke="hsl(0.0,100%,35%)" stroke-width="0.00104"></path>
<path d="M0.368 0.344 Q0.464 0.196 0.197 0.116" stroke="hsl(180.0,100%,35%)" stroke-width="0.00104"></path>
<path d="M0.368 0.344 Q0.083 0.405 0.141 0.557" stroke="hsl(180.0,100%,35%)" stroke-width="0.00312"></path>
<path d="M0.368 0.344 Q0.530 0.302 0.484 0.213" stroke="hsl(180.0,100%,35%)" stroke-width="0.00104"></path>
<path d="M0.368 0.344 Q0.434 0.829 1.395 0.903" stroke="hsl(180.0,100%,35%)" stroke-width="0.00104"></path>
<path d="M0.241 0.395 Q0.673 0.334 0.649 0.110" stroke="hsl(0.0,100%,35%)" stroke-width="0.00104"></path>
<path d="M0.241 0.395 Q0.061 0.456 0.141 0.557" stroke="hsl(0.0,100%,35%)" stroke-width="0.00208"></path>
<path d="M0.241 0.395 Q0.508 0.353 0.484 0.213" stroke="hsl(0.0,100%,35%)" stroke-width="0.00104"></path>
<path d="M1.054 0.755 Q0.900 0.734 0.824 0.805" stroke="hsl(0.0,100%,35%)" stroke-width="0.00104"></path>
<path d="M1.054 0.755 Q0.756 0.473 0.141 0.557" stroke="hsl(0.0,100%,35%)" stroke-width="0.00104"></path>
<path d="M1.054 0.755 Q0.579 0.584 0.140 0.778" stroke="hsl(0.0,100%,35%)" stroke-width="0.00104"></path>
<path d="M1.045 0.430 Q0.314 0.423 0.140 0.778" stroke="hsl(0.0,100%,35%)" stroke-width="0.00417"></path>
<path d="M1.045 0.430 Q0.491 0.313 0.141 0.557" stroke="hsl(0.0,100%,35%)" stroke-width="0.01562"></path>
<path d="M1.045 0.430 Q0.938 0.210 0.484 0.213" stroke="hsl(0.0,100%,35%)" stroke-width="0.00417"></path>
<path d="M1.045 0.430 Q1.103 0.191 0.649 0.110" stroke="hsl(0.0,100%,35%)" stroke-width="0.00312"></path>
<path d="M1.045 0.430 Q0.607 0.382 0.417 0.585" stroke="hsl(0.0,100%,35%)" stroke-width="0.00417"></path>
<path d="M1.045 0.430 Q0.215 0.504 0.177 0.925" stroke="hsl(0.0,100%,35%)" stroke-width="0.00104"></path>
<path d="M1.045 0.430 Q0.781 0.316 0.500 0.420" stroke="hsl(0.0,100%,35%)" stroke-width="0.00104"></path>
<path d="M1.081 0.909 Q0.892 0.545 0.141 0.557" stroke="hsl(180.0,100%,35%)" stroke-width="0.00104"></path>
<path d="M1.081 0.909 Q1.243 0.969 1.395 0.903" stroke="hsl(180.0,100%,35%)" stroke-width="0.00208"></path>
<path d="M1.081 0.909 Q0.617 0.736 0.177 0.925" stroke="hsl(180.0,100%,35%)" stroke-width="0.00104"></path>
<path d="M0.346 0.651 Q0.931 0.441 0.649 0.110" stroke="hsl(180.0,100%,35%)" stroke-width="0.00104"></path>
<path d="M0.346 0.651 Q0.669 0.987 1.395 0.903" stroke="hsl(180.0,100%,35%)" stroke-width="0.00104"></path>
<path d="M0.346 0.651 Q0.142 0.674 0.140 0.778" stroke="hsl(180.0,100%,35%)" stroke-width="0.00104"></path>
<path d="M0.346 0.651 Q0.319 0.563 0.141 0.557" stroke="hsl(180.0,100%,35%)" stroke-width="0.00104"></path>
<path d="M0.373 0.683 Q0.357 0.573 0.141 0.557" stroke="hsl(180.0,100%,35%)" stroke-width="0.00417"></path>
<path d="M0.373 0.683 Q0.473 0.643 0.417 0.585" stroke="hsl(180.0,100%,35%)" stroke-width="0.00208"></path>
<path d="M0.373 0.683 Q0.081 0.765 0.177 0.925" stroke="hsl(180.0,100%,35%)" stroke-width="0.00208"></path>
</g>
<text x="1.376" y="0.789" font-size="0.026817" fill="hsl(0.0,100%,20%)">a.annestrand</text>
<text x="0.140" y="0.749" font-size="0.058812" fill="hsl(0.0,100%,20%)">geofflang</text>
<text x="0.141" y="0.507" font-size="0.099657" fill="hsl(0.0,100%,20%)">syoussefi</text>
<text x="1.395" y="0.890" font-size="0.026817" fill="hsl(180.0,100%,20%)">ynovikov</text>
<text x="0.649" y="0.078" font-size="0.062756" fill="hsl(0.0,100%,20%)">abdolrashidi</text>
<text x="0.484" y="0.181" font-size="0.065428" fill="hsl(0.0,100%,20%)">cclao</text>
<text x="0.417" y="0.555" font-size="0.059392" fill="hsl(0.0,100%,20%)">yuxinhu</text>
<text x="0.551" y="0.590" font-size="0.011704" fill="hsl(0.0,100%,20%)">aurora.zhang</text>
<text x="0.177" y="0.896" font-size="0.058521" fill="hsl(180.0,100%,20%)">cnorthrop</text>
<text x="0.109" y="0.236" font-size="0.023408" fill="hsl(180.0,100%,20%)">timvp</text>
<text x="0.822" y="0.977" font-size="0.039257" fill="hsl(180.0,100%,20%)">mark</text>
<text x="0.197" y="0.110" font-size="0.011704" fill="hsl(180.0,100%,20%)">solti</text>
<text x="0.542" y="0.704" font-size="0.018506" fill="hsl(180.0,100%,20%)">xwxw</text>
<text x="0.824" y="0.800" font-size="0.008276" fill="hsl(0.0,100%,20%)">lehoangquyen</text>
<text x="0.212" y="0.286" font-size="0.013086" fill="hsl(0.0,100%,20%)">kbr</text>
<text x="0.064" y="0.646" font-size="0.008276" fill="hsl(0.0,100%,20%)">avi</text>
<text x="0.371" y="0.659" font-size="0.005852" fill="hsl(0.0,100%,20%)">cwallez</text>
<text x="0.753" y="0.705" font-size="0.005852" fill="hsl(0.0,100%,20%)">lexa.knyazev</text>
<text x="1.231" y="0.569" font-size="0.030966" fill="hsl(0.0,100%,20%)">liza</text>
<text x="0.488" y="0.850" font-size="0.016552" fill="hsl(180.0,100%,20%)">hoyeon.lim</text>
<text x="0.064" y="0.349" font-size="0.013086" fill="hsl(0.0,100%,20%)">jh.eun</text>
<text x="0.670" y="0.431" font-size="0.020272" fill="hsl(0.0,100%,20%)">jisunnie.lee</text>
<text x="0.500" y="0.408" font-size="0.024828" fill="hsl(0.0,100%,20%)">m.maiya</text>
<text x="0.186" y="0.363" font-size="0.008276" fill="hsl(0.0,100%,20%)">chris</text>
<text x="0.973" y="0.616" font-size="0.039691" fill="hsl(0.0,100%,20%)">mpdenton</text>
<text x="0.582" y="0.466" font-size="0.011704" fill="hsl(180.0,100%,20%)">msta</text>
<text x="0.766" y="0.338" font-size="0.017556" fill="hsl(0.0,100%,20%)">panfeng.hou</text>
<text x="0.665" y="0.463" font-size="0.014335" fill="hsl(0.0,100%,20%)">r.husain</text>
<text x="0.762" y="0.621" font-size="0.005852" fill="hsl(0.0,100%,20%)">g.tammana</text>
<text x="0.368" y="0.337" font-size="0.014335" fill="hsl(180.0,100%,20%)">rop</text>
<text x="0.241" y="0.389" font-size="0.011704" fill="hsl(0.0,100%,20%)">steven</text>
<text x="1.054" y="0.750" font-size="0.010136" fill="hsl(0.0,100%,20%)">sunnyps</text>
<text x="1.045" y="0.414" font-size="0.033104" fill="hsl(0.0,100%,20%)">sywow.choi</text>
<text x="1.081" y="0.903" font-size="0.011704" fill="hsl(180.0,100%,20%)">tikuta</text>
<text x="0.346" y="0.646" font-size="0.011704" fill="hsl(180.0,100%,20%)">victorvianna</text>
<text x="1.660" y="0.945" font-size="0.008276" fill="hsl(180.0,100%,20%)">bsheedy</text>
<text x="0.373" y="0.674" font-size="0.016552" fill="hsl(180.0,100%,20%)">yuxiang.qian</text>
</svg>
