<svg width="4000" height="2000" viewBox="-0.025 -0.025 2.05 1.05" xmlns="http://www.w3.org/2000/svg">
  <style>
    path {
      fill: none;
      stroke-linecap: round;
      stroke-opacity: 0.4;
    }

    text {
      text-anchor: middle;
      alignment-baseline: hanging;
    }
  </style>
  <g opacity="0.4">
<path d="M0.434 0.746 Q0.581 0.788 0.695 0.725" stroke="hsl(0.0,100%,35%)" stroke-width="0.01096"></path>
<path d="M0.434 0.746 Q0.460 0.875 0.716 0.890" stroke="hsl(0.0,100%,35%)" stroke-width="0.02151"></path>
<path d="M0.434 0.746 Q0.218 0.812 0.300 0.932" stroke="hsl(0.0,100%,35%)" stroke-width="0.00162"></path>
<path d="M0.434 0.746 Q0.902 0.406 0.342 0.103" stroke="hsl(0.0,100%,35%)" stroke-width="0.00771"></path>
<path d="M0.434 0.746 Q1.494 0.838 1.905 0.340" stroke="hsl(0.0,100%,35%)" stroke-width="0.00081"></path>
<path d="M0.434 0.746 Q0.657 0.863 0.934 0.780" stroke="hsl(0.0,100%,35%)" stroke-width="0.00041"></path>
<path d="M0.434 0.746 Q0.422 0.784 0.493 0.797" stroke="hsl(0.0,100%,35%)" stroke-width="0.00041"></path>
<path d="M0.434 0.746 Q0.729 0.888 1.070 0.775" stroke="hsl(0.0,100%,35%)" stroke-width="0.00081"></path>
<path d="M0.695 0.725 Q0.573 0.812 0.716 0.890" stroke="hsl(0.0,100%,35%)" stroke-width="0.04545"></path>
<path d="M0.695 0.725 Q0.429 0.815 0.546 0.965" stroke="hsl(0.0,100%,35%)" stroke-width="0.00122"></path>
<path d="M0.695 0.725 Q0.547 0.683 0.434 0.746" stroke="hsl(0.0,100%,35%)" stroke-width="0.01420"></path>
<path d="M0.695 0.725 Q0.615 0.627 0.407 0.645" stroke="hsl(0.0,100%,35%)" stroke-width="0.00852"></path>
<path d="M0.695 0.725 Q0.536 0.721 0.493 0.797" stroke="hsl(0.0,100%,35%)" stroke-width="0.00730"></path>
<path d="M0.695 0.725 Q0.332 0.749 0.300 0.932" stroke="hsl(0.0,100%,35%)" stroke-width="0.00568"></path>
<path d="M0.695 0.725 Q0.609 0.520 0.191 0.517" stroke="hsl(0.0,100%,35%)" stroke-width="0.00122"></path>
<path d="M0.695 0.725 Q0.842 0.825 1.070 0.775" stroke="hsl(0.0,100%,35%)" stroke-width="0.00122"></path>
<path d="M0.695 0.725 Q1.608 0.775 1.905 0.340" stroke="hsl(0.0,100%,35%)" stroke-width="0.00081"></path>
<path d="M0.695 0.725 Q1.016 0.343 0.342 0.103" stroke="hsl(0.0,100%,35%)" stroke-width="0.00081"></path>
<path d="M0.716 0.890 Q0.690 0.762 0.434 0.746" stroke="hsl(0.0,100%,35%)" stroke-width="0.01258"></path>
<path d="M0.716 0.890 Q0.838 0.803 0.695 0.725" stroke="hsl(0.0,100%,35%)" stroke-width="0.03977"></path>
<path d="M0.716 0.890 Q0.679 0.799 0.493 0.797" stroke="hsl(0.0,100%,35%)" stroke-width="0.02881"></path>
<path d="M0.716 0.890 Q0.985 0.904 1.070 0.775" stroke="hsl(0.0,100%,35%)" stroke-width="0.03124"></path>
<path d="M0.716 0.890 Q0.572 0.893 0.546 0.965" stroke="hsl(0.0,100%,35%)" stroke-width="0.00406"></path>
<path d="M0.716 0.890 Q1.751 0.853 1.905 0.340" stroke="hsl(0.0,100%,35%)" stroke-width="0.00487"></path>
<path d="M0.716 0.890 Q0.564 1.104 0.947 1.225" stroke="hsl(0.0,100%,35%)" stroke-width="0.00081"></path>
<path d="M0.716 0.890 Q1.373 0.783 1.308 0.438" stroke="hsl(0.0,100%,35%)" stroke-width="0.00122"></path>
<path d="M0.716 0.890 Q1.159 0.422 0.342 0.103" stroke="hsl(0.0,100%,35%)" stroke-width="0.00325"></path>
<path d="M0.716 0.890 Q0.913 0.879 0.934 0.780" stroke="hsl(0.0,100%,35%)" stroke-width="0.00041"></path>
<path d="M0.716 0.890 Q0.978 0.762 0.785 0.607" stroke="hsl(0.0,100%,35%)" stroke-width="0.00041"></path>
<path d="M0.716 0.890 Q0.475 0.828 0.300 0.932" stroke="hsl(0.0,100%,35%)" stroke-width="0.01096"></path>
<path d="M0.716 0.890 Q1.356 0.653 1.035 0.289" stroke="hsl(0.0,100%,35%)" stroke-width="0.00081"></path>
<path d="M0.716 0.890 Q0.695 0.969 0.844 0.997" stroke="hsl(0.0,100%,35%)" stroke-width="0.00081"></path>
<path d="M0.716 0.890 Q0.959 0.810 0.856 0.675" stroke="hsl(0.0,100%,35%)" stroke-width="0.00041"></path>
<path d="M0.716 0.890 Q0.727 0.995 0.933 1.012" stroke="hsl(0.0,100%,35%)" stroke-width="0.00041"></path>
<path d="M0.716 0.890 Q0.512 0.806 0.303 0.887" stroke="hsl(0.0,100%,35%)" stroke-width="0.00041"></path>
<path d="M0.300 0.932 Q0.541 0.994 0.716 0.890" stroke="hsl(0.0,100%,35%)" stroke-width="0.02637"></path>
<path d="M0.300 0.932 Q1.576 0.957 1.905 0.340" stroke="hsl(0.0,100%,35%)" stroke-width="0.00527"></path>
<path d="M0.300 0.932 Q0.515 0.866 0.434 0.746" stroke="hsl(0.0,100%,35%)" stroke-width="0.00771"></path>
<path d="M0.300 0.932 Q0.984 0.526 0.342 0.103" stroke="hsl(0.0,100%,35%)" stroke-width="0.01380"></path>
<path d="M0.300 0.932 Q0.504 0.903 0.493 0.797" stroke="hsl(0.0,100%,35%)" stroke-width="0.00446"></path>
<path d="M0.300 0.932 Q0.811 1.008 1.070 0.775" stroke="hsl(0.0,100%,35%)" stroke-width="0.00081"></path>
<path d="M0.300 0.932 Q0.663 0.907 0.695 0.725" stroke="hsl(0.0,100%,35%)" stroke-width="0.00527"></path>
<path d="M0.300 0.932 Q0.443 0.775 0.168 0.670" stroke="hsl(0.0,100%,35%)" stroke-width="0.00041"></path>
<path d="M0.300 0.932 Q1.198 0.887 1.308 0.438" stroke="hsl(0.0,100%,35%)" stroke-width="0.00041"></path>
<path d="M0.300 0.932 Q0.337 0.910 0.303 0.887" stroke="hsl(0.0,100%,35%)" stroke-width="0.00041"></path>
<path d="M0.342 0.103 Q0.487 0.219 0.746 0.174" stroke="hsl(0.0,100%,35%)" stroke-width="0.00325"></path>
<path d="M0.342 0.103 Q0.161 0.159 0.230 0.259" stroke="hsl(0.0,100%,35%)" stroke-width="0.00203"></path>
<path d="M0.342 0.103 Q-0.342 0.509 0.300 0.932" stroke="hsl(0.0,100%,35%)" stroke-width="0.00771"></path>
<path d="M0.342 0.103 Q-0.101 0.572 0.716 0.890" stroke="hsl(0.0,100%,35%)" stroke-width="0.00284"></path>
<path d="M0.342 0.103 Q0.934 0.534 1.905 0.340" stroke="hsl(0.0,100%,35%)" stroke-width="0.00162"></path>
<path d="M0.342 0.103 Q0.508 0.133 0.603 0.059" stroke="hsl(0.0,100%,35%)" stroke-width="0.00081"></path>
<path d="M0.342 0.103 Q0.096 0.560 0.934 0.780" stroke="hsl(0.0,100%,35%)" stroke-width="0.00041"></path>
<path d="M0.342 0.103 Q0.021 0.485 0.695 0.725" stroke="hsl(0.0,100%,35%)" stroke-width="0.00122"></path>
<path d="M0.342 0.103 Q-0.127 0.443 0.434 0.746" stroke="hsl(0.0,100%,35%)" stroke-width="0.00041"></path>
<path d="M1.905 0.340 Q0.871 0.378 0.716 0.890" stroke="hsl(0.0,100%,35%)" stroke-width="0.00406"></path>
<path d="M1.905 0.340 Q1.140 0.391 1.070 0.775" stroke="hsl(0.0,100%,35%)" stroke-width="0.00203"></path>
<path d="M1.905 0.340 Q1.833 0.413 1.959 0.464" stroke="hsl(0.0,100%,35%)" stroke-width="0.00649"></path>
<path d="M1.905 0.340 Q0.666 0.294 0.303 0.887" stroke="hsl(0.0,100%,35%)" stroke-width="0.00122"></path>
<path d="M1.905 0.340 Q0.833 0.286 0.493 0.797" stroke="hsl(0.0,100%,35%)" stroke-width="0.00122"></path>
<path d="M1.905 0.340 Q0.629 0.315 0.300 0.932" stroke="hsl(0.0,100%,35%)" stroke-width="0.00568"></path>
<path d="M1.905 0.340 Q1.313 -0.091 0.342 0.103" stroke="hsl(0.0,100%,35%)" stroke-width="0.00122"></path>
<path d="M1.905 0.340 Q1.072 0.168 0.552 0.536" stroke="hsl(0.0,100%,35%)" stroke-width="0.00041"></path>
<path d="M1.905 0.340 Q0.992 0.291 0.695 0.725" stroke="hsl(0.0,100%,35%)" stroke-width="0.00041"></path>
<path d="M1.905 0.340 Q0.844 0.249 0.434 0.746" stroke="hsl(0.0,100%,35%)" stroke-width="0.00041"></path>
<path d="M0.934 0.780 Q0.737 0.792 0.716 0.890" stroke="hsl(0.0,100%,35%)" stroke-width="0.00487"></path>
<path d="M0.934 0.780 Q0.859 0.705 0.695 0.725" stroke="hsl(0.0,100%,35%)" stroke-width="0.00081"></path>
<path d="M0.934 0.780 Q1.179 0.323 0.342 0.103" stroke="hsl(0.0,100%,35%)" stroke-width="0.00122"></path>
<path d="M0.934 0.780 Q0.700 0.701 0.493 0.797" stroke="hsl(0.0,100%,35%)" stroke-width="0.00041"></path>
<path d="M0.934 0.780 Q0.496 0.729 0.300 0.932" stroke="hsl(0.0,100%,35%)" stroke-width="0.00081"></path>
<path d="M0.934 0.780 Q0.854 0.558 0.403 0.548" stroke="hsl(0.0,100%,35%)" stroke-width="0.00041"></path>
<path d="M0.493 0.797 Q0.504 0.760 0.434 0.746" stroke="hsl(0.0,100%,35%)" stroke-width="0.00446"></path>
<path d="M0.493 0.797 Q0.530 0.889 0.716 0.890" stroke="hsl(0.0,100%,35%)" stroke-width="0.00771"></path>
<path d="M0.493 0.797 Q1.139 0.450 0.603 0.059" stroke="hsl(0.0,100%,35%)" stroke-width="0.00041"></path>
<path d="M0.493 0.797 Q1.565 0.851 1.905 0.340" stroke="hsl(0.0,100%,35%)" stroke-width="0.00122"></path>
<path d="M0.493 0.797 Q0.289 0.826 0.300 0.932" stroke="hsl(0.0,100%,35%)" stroke-width="0.00406"></path>
<path d="M0.493 0.797 Q0.652 0.802 0.695 0.725" stroke="hsl(0.0,100%,35%)" stroke-width="0.00325"></path>
<path d="M0.493 0.797 Q0.727 0.877 0.934 0.780" stroke="hsl(0.0,100%,35%)" stroke-width="0.00041"></path>
<path d="M0.493 0.797 Q0.326 0.805 0.303 0.887" stroke="hsl(0.0,100%,35%)" stroke-width="0.00041"></path>
<path d="M1.070 0.775 Q0.801 0.762 0.716 0.890" stroke="hsl(0.0,100%,35%)" stroke-width="0.02881"></path>
<path d="M1.070 0.775 Q1.063 0.634 0.785 0.607" stroke="hsl(0.0,100%,35%)" stroke-width="0.00406"></path>
<path d="M1.070 0.775 Q1.172 0.573 0.799 0.479" stroke="hsl(0.0,100%,35%)" stroke-width="0.00203"></path>
<path d="M1.070 0.775 Q0.560 0.699 0.300 0.932" stroke="hsl(0.0,100%,35%)" stroke-width="0.00122"></path>
<path d="M1.070 0.775 Q1.458 0.654 1.308 0.438" stroke="hsl(0.0,100%,35%)" stroke-width="0.00122"></path>
<path d="M1.070 0.775 Q1.052 0.595 0.696 0.565" stroke="hsl(0.0,100%,35%)" stroke-width="0.00122"></path>
<path d="M1.070 0.775 Q0.780 0.841 0.844 0.997" stroke="hsl(0.0,100%,35%)" stroke-width="0.00203"></path>
<path d="M1.070 0.775 Q0.923 0.675 0.695 0.725" stroke="hsl(0.0,100%,35%)" stroke-width="0.00041"></path>
<path d="M1.070 0.775 Q1.836 0.725 1.905 0.340" stroke="hsl(0.0,100%,35%)" stroke-width="0.00284"></path>
<path d="M1.070 0.775 Q1.229 0.630 0.981 0.521" stroke="hsl(0.0,100%,35%)" stroke-width="0.00041"></path>
<path d="M1.070 0.775 Q0.764 0.671 0.493 0.797" stroke="hsl(0.0,100%,35%)" stroke-width="0.00122"></path>
<path d="M1.070 0.775 Q1.244 0.293 0.342 0.103" stroke="hsl(0.0,100%,35%)" stroke-width="0.00203"></path>
<path d="M1.070 0.775 Q0.981 0.586 0.592 0.589" stroke="hsl(0.0,100%,35%)" stroke-width="0.00081"></path>
<path d="M1.070 0.775 Q1.003 0.552 0.552 0.536" stroke="hsl(0.0,100%,35%)" stroke-width="0.00041"></path>
<path d="M1.070 0.775 Q0.775 0.633 0.434 0.746" stroke="hsl(0.0,100%,35%)" stroke-width="0.00122"></path>
<path d="M1.070 0.775 Q1.258 0.663 1.079 0.546" stroke="hsl(0.0,100%,35%)" stroke-width="0.00041"></path>
<path d="M1.070 0.775 Q1.162 0.703 1.041 0.642" stroke="hsl(0.0,100%,35%)" stroke-width="0.00041"></path>
<path d="M1.070 0.775 Q1.441 0.525 1.035 0.289" stroke="hsl(0.0,100%,35%)" stroke-width="0.00041"></path>
<path d="M0.442 0.198 Q1.060 0.562 1.905 0.340" stroke="hsl(0.0,100%,35%)" stroke-width="0.00041"></path>
<path d="M0.442 0.198 Q0.468 0.130 0.342 0.103" stroke="hsl(0.0,100%,35%)" stroke-width="0.00081"></path>
<path d="M0.442 0.198 Q-0.216 0.536 0.300 0.932" stroke="hsl(0.0,100%,35%)" stroke-width="0.00041"></path>
<path d="M1.959 0.464 Q2.031 0.391 1.905 0.340" stroke="hsl(0.0,100%,35%)" stroke-width="0.00203"></path>
<path d="M1.959 0.464 Q1.266 0.442 1.070 0.775" stroke="hsl(0.0,100%,35%)" stroke-width="0.00041"></path>
<path d="M1.959 0.464 Q1.823 0.524 1.910 0.603" stroke="hsl(0.0,100%,35%)" stroke-width="0.00041"></path>
<path d="M0.546 0.965 Q0.691 0.961 0.716 0.890" stroke="hsl(0.0,100%,35%)" stroke-width="0.03124"></path>
<path d="M0.546 0.965 Q0.812 0.874 0.695 0.725" stroke="hsl(0.0,100%,35%)" stroke-width="0.01014"></path>
<path d="M0.546 0.965 Q0.665 0.833 0.434 0.746" stroke="hsl(0.0,100%,35%)" stroke-width="0.00041"></path>
<path d="M0.546 0.965 Q0.653 0.870 0.493 0.797" stroke="hsl(0.0,100%,35%)" stroke-width="0.00081"></path>
<path d="M0.546 0.965 Q0.960 0.975 1.070 0.775" stroke="hsl(0.0,100%,35%)" stroke-width="0.00122"></path>
<path d="M0.546 0.965 Q1.133 0.493 0.342 0.103" stroke="hsl(0.0,100%,35%)" stroke-width="0.00041"></path>
<path d="M0.407 0.645 Q0.486 0.742 0.695 0.725" stroke="hsl(0.0,100%,35%)" stroke-width="0.00284"></path>
<path d="M0.407 0.645 Q0.807 0.361 0.342 0.103" stroke="hsl(0.0,100%,35%)" stroke-width="0.00081"></path>
<path d="M0.407 0.645 Q0.365 0.829 0.716 0.890" stroke="hsl(0.0,100%,35%)" stroke-width="0.00122"></path>
<path d="M0.191 0.517 Q0.129 0.680 0.434 0.746" stroke="hsl(0.0,100%,35%)" stroke-width="0.00203"></path>
<path d="M0.191 0.517 Q0.277 0.722 0.695 0.725" stroke="hsl(0.0,100%,35%)" stroke-width="0.00406"></path>
<path d="M0.191 0.517 Q0.155 0.809 0.716 0.890" stroke="hsl(0.0,100%,35%)" stroke-width="0.00243"></path>
<path d="M0.191 0.517 Q1.189 0.771 1.905 0.340" stroke="hsl(0.0,100%,35%)" stroke-width="0.00041"></path>
<path d="M0.746 0.174 Q0.600 0.058 0.342 0.103" stroke="hsl(0.0,100%,35%)" stroke-width="0.01055"></path>
<path d="M0.746 0.174 Q0.158 0.526 0.716 0.890" stroke="hsl(0.0,100%,35%)" stroke-width="0.00162"></path>
<path d="M0.746 0.174 Q-0.084 0.464 0.300 0.932" stroke="hsl(0.0,100%,35%)" stroke-width="0.00081"></path>
<path d="M0.746 0.174 Q1.192 0.489 1.905 0.340" stroke="hsl(0.0,100%,35%)" stroke-width="0.00041"></path>
<path d="M0.230 0.259 Q0.411 0.203 0.342 0.103" stroke="hsl(0.0,100%,35%)" stroke-width="0.00243"></path>
<path d="M0.230 0.259 Q-0.273 0.609 0.300 0.932" stroke="hsl(0.0,100%,35%)" stroke-width="0.00041"></path>
<path d="M0.230 0.259 Q1.003 0.635 1.905 0.340" stroke="hsl(0.0,100%,35%)" stroke-width="0.00041"></path>
<path d="M0.395 0.805 Q0.246 0.849 0.300 0.932" stroke="hsl(0.0,100%,35%)" stroke-width="0.00122"></path>
<path d="M0.395 0.805 Q0.487 0.912 0.716 0.890" stroke="hsl(0.0,100%,35%)" stroke-width="0.00041"></path>
<path d="M0.395 0.805 Q1.522 0.874 1.905 0.340" stroke="hsl(0.0,100%,35%)" stroke-width="0.00041"></path>
<path d="M1.295 0.190 Q0.445 0.424 0.716 0.890" stroke="hsl(0.0,100%,35%)" stroke-width="0.00081"></path>
<path d="M1.295 0.190 Q1.085 0.187 1.035 0.289" stroke="hsl(0.0,100%,35%)" stroke-width="0.00081"></path>
<path d="M1.295 0.190 Q1.480 0.387 1.905 0.340" stroke="hsl(0.0,100%,35%)" stroke-width="0.00041"></path>
<path d="M1.295 0.190 Q1.102 0.316 1.308 0.438" stroke="hsl(0.0,100%,35%)" stroke-width="0.00041"></path>
<path d="M1.295 0.190 Q0.714 0.437 1.070 0.775" stroke="hsl(0.0,100%,35%)" stroke-width="0.00041"></path>
<path d="M1.035 0.289 Q0.664 0.539 1.070 0.775" stroke="hsl(0.0,100%,35%)" stroke-width="0.00771"></path>
<path d="M1.035 0.289 Q1.052 0.418 1.308 0.438" stroke="hsl(0.0,100%,35%)" stroke-width="0.00609"></path>
<path d="M1.035 0.289 Q1.165 0.228 1.075 0.151" stroke="hsl(0.0,100%,35%)" stroke-width="0.00041"></path>
<path d="M1.035 0.289 Q0.374 0.605 0.844 0.997" stroke="hsl(0.0,100%,35%)" stroke-width="0.00041"></path>
<path d="M0.200 0.687 Q0.054 0.830 0.300 0.932" stroke="hsl(0.0,100%,35%)" stroke-width="0.00041"></path>
<path d="M0.200 0.687 Q0.258 0.801 0.493 0.797" stroke="hsl(0.0,100%,35%)" stroke-width="0.00041"></path>
<path d="M0.200 0.687 Q0.296 0.892 0.716 0.890" stroke="hsl(0.0,100%,35%)" stroke-width="0.00041"></path>
<path d="M0.961 0.886 Q0.835 0.839 0.716 0.890" stroke="hsl(0.0,100%,35%)" stroke-width="0.00812"></path>
<path d="M0.961 0.886 Q1.104 0.853 1.070 0.775" stroke="hsl(0.0,100%,35%)" stroke-width="0.00081"></path>
<path d="M0.961 0.886 Q0.957 0.752 0.695 0.725" stroke="hsl(0.0,100%,35%)" stroke-width="0.00081"></path>
<path d="M0.785 0.607 Q0.895 0.545 0.799 0.479" stroke="hsl(0.0,100%,35%)" stroke-width="0.00568"></path>
<path d="M0.785 0.607 Q0.524 0.735 0.716 0.890" stroke="hsl(0.0,100%,35%)" stroke-width="0.00893"></path>
<path d="M0.785 0.607 Q0.793 0.748 1.070 0.775" stroke="hsl(0.0,100%,35%)" stroke-width="0.00406"></path>
<path d="M0.785 0.607 Q0.283 0.672 0.300 0.932" stroke="hsl(0.0,100%,35%)" stroke-width="0.00041"></path>
<path d="M0.785 0.607 Q1.244 0.774 1.672 0.588" stroke="hsl(0.0,100%,35%)" stroke-width="0.00041"></path>
<path d="M0.799 0.479 Q0.690 0.540 0.785 0.607" stroke="hsl(0.0,100%,35%)" stroke-width="0.00325"></path>
<path d="M0.799 0.479 Q0.428 0.668 0.716 0.890" stroke="hsl(0.0,100%,35%)" stroke-width="0.00446"></path>
<path d="M0.799 0.479 Q0.698 0.681 1.070 0.775" stroke="hsl(0.0,100%,35%)" stroke-width="0.00162"></path>
<path d="M0.844 0.997 Q1.523 0.810 1.308 0.438" stroke="hsl(0.0,100%,35%)" stroke-width="0.01339"></path>
<path d="M0.844 0.997 Q0.865 0.918 0.716 0.890" stroke="hsl(0.0,100%,35%)" stroke-width="0.02759"></path>
<path d="M0.844 0.997 Q1.506 0.681 1.035 0.289" stroke="hsl(0.0,100%,35%)" stroke-width="0.00446"></path>
<path d="M0.844 0.997 Q1.396 0.869 1.267 0.571" stroke="hsl(0.0,100%,35%)" stroke-width="0.00406"></path>
<path d="M0.844 0.997 Q1.135 0.931 1.070 0.775" stroke="hsl(0.0,100%,35%)" stroke-width="0.01582"></path>
<path d="M0.844 0.997 Q1.900 0.881 1.905 0.340" stroke="hsl(0.0,100%,35%)" stroke-width="0.00041"></path>
<path d="M0.844 0.997 Q1.467 0.941 1.494 0.625" stroke="hsl(0.0,100%,35%)" stroke-width="0.00041"></path>
<path d="M0.844 0.997 Q0.828 0.827 0.493 0.797" stroke="hsl(0.0,100%,35%)" stroke-width="0.00041"></path>
<path d="M0.844 0.997 Q0.987 0.831 0.695 0.725" stroke="hsl(0.0,100%,35%)" stroke-width="0.00041"></path>
<path d="M0.552 0.536 Q0.351 0.746 0.716 0.890" stroke="hsl(0.0,100%,35%)" stroke-width="0.00243"></path>
<path d="M0.552 0.536 Q1.385 0.709 1.905 0.340" stroke="hsl(0.0,100%,35%)" stroke-width="0.00041"></path>
<path d="M0.552 0.536 Q0.620 0.759 1.070 0.775" stroke="hsl(0.0,100%,35%)" stroke-width="0.00041"></path>
<path d="M0.552 0.536 Q1.008 0.638 1.308 0.438" stroke="hsl(0.0,100%,35%)" stroke-width="0.00041"></path>
<path d="M0.552 0.536 Q0.325 0.617 0.434 0.746" stroke="hsl(0.0,100%,35%)" stroke-width="0.00041"></path>
<path d="M0.807 0.326 Q0.580 0.603 1.070 0.775" stroke="hsl(0.0,100%,35%)" stroke-width="0.00041"></path>
<path d="M0.807 0.326 Q0.968 0.482 1.308 0.438" stroke="hsl(0.0,100%,35%)" stroke-width="0.00041"></path>
<path d="M0.807 0.326 Q0.951 0.353 1.035 0.289" stroke="hsl(0.0,100%,35%)" stroke-width="0.00041"></path>
<path d="M1.585 0.203 Q0.600 0.373 0.716 0.890" stroke="hsl(0.0,100%,35%)" stroke-width="0.00081"></path>
<path d="M1.585 0.203 Q1.407 0.223 1.408 0.315" stroke="hsl(0.0,100%,35%)" stroke-width="0.00041"></path>
<path d="M1.585 0.203 Q0.722 0.286 0.695 0.725" stroke="hsl(0.0,100%,35%)" stroke-width="0.00041"></path>
<path d="M0.483 1.021 Q0.705 1.003 0.716 0.890" stroke="hsl(0.0,100%,35%)" stroke-width="0.00081"></path>
<path d="M0.483 1.021 Q0.974 1.016 1.070 0.775" stroke="hsl(0.0,100%,35%)" stroke-width="0.00041"></path>
<path d="M0.483 1.021 Q1.075 0.813 0.799 0.479" stroke="hsl(0.0,100%,35%)" stroke-width="0.00041"></path>
<path d="M0.856 0.675 Q0.735 0.668 0.695 0.725" stroke="hsl(0.0,100%,35%)" stroke-width="0.00446"></path>
<path d="M0.856 0.675 Q0.613 0.755 0.716 0.890" stroke="hsl(0.0,100%,35%)" stroke-width="0.01096"></path>
<path d="M0.856 0.675 Q0.883 0.768 1.070 0.775" stroke="hsl(0.0,100%,35%)" stroke-width="0.00122"></path>
<path d="M0.856 0.675 Q0.469 0.758 0.546 0.965" stroke="hsl(0.0,100%,35%)" stroke-width="0.00122"></path>
<path d="M0.856 0.675 Q0.372 0.692 0.300 0.932" stroke="hsl(0.0,100%,35%)" stroke-width="0.00041"></path>
<path d="M0.449 0.995 Q0.936 1.009 1.070 0.775" stroke="hsl(0.0,100%,35%)" stroke-width="0.00081"></path>
<path d="M0.449 0.995 Q0.463 1.004 0.484 0.999" stroke="hsl(0.0,100%,35%)" stroke-width="0.00041"></path>
<path d="M0.449 0.995 Q0.667 0.996 0.716 0.890" stroke="hsl(0.0,100%,35%)" stroke-width="0.00081"></path>
<path d="M1.003 0.568 Q0.871 0.685 1.070 0.775" stroke="hsl(0.0,100%,35%)" stroke-width="0.00081"></path>
<path d="M1.003 0.568 Q1.259 0.564 1.308 0.438" stroke="hsl(0.0,100%,35%)" stroke-width="0.00081"></path>
<path d="M1.003 0.568 Q0.602 0.672 0.716 0.890" stroke="hsl(0.0,100%,35%)" stroke-width="0.00081"></path>
<path d="M1.267 0.571 Q1.006 0.634 1.070 0.775" stroke="hsl(0.0,100%,35%)" stroke-width="0.00243"></path>
<path d="M1.267 0.571 Q0.737 0.621 0.716 0.890" stroke="hsl(0.0,100%,35%)" stroke-width="0.00730"></path>
<path d="M1.267 0.571 Q1.394 0.513 1.308 0.438" stroke="hsl(0.0,100%,35%)" stroke-width="0.00690"></path>
<path d="M1.267 0.571 Q0.716 0.699 0.844 0.997" stroke="hsl(0.0,100%,35%)" stroke-width="0.00162"></path>
<path d="M1.267 0.571 Q1.377 0.384 1.035 0.289" stroke="hsl(0.0,100%,35%)" stroke-width="0.00081"></path>
<path d="M1.267 0.571 Q1.338 0.644 1.494 0.625" stroke="hsl(0.0,100%,35%)" stroke-width="0.00041"></path>
<path d="M1.400 0.679 Q1.547 0.540 1.308 0.438" stroke="hsl(0.0,100%,35%)" stroke-width="0.00081"></path>
<path d="M1.400 0.679 Q0.868 0.727 0.844 0.997" stroke="hsl(0.0,100%,35%)" stroke-width="0.00041"></path>
<path d="M1.400 0.679 Q0.889 0.648 0.716 0.890" stroke="hsl(0.0,100%,35%)" stroke-width="0.00122"></path>
<path d="M1.400 0.679 Q1.420 0.599 1.267 0.571" stroke="hsl(0.0,100%,35%)" stroke-width="0.00081"></path>
<path d="M1.672 0.588 Q0.915 0.457 0.493 0.797" stroke="hsl(0.0,100%,35%)" stroke-width="0.00041"></path>
<path d="M1.672 0.588 Q0.952 0.548 0.716 0.890" stroke="hsl(0.0,100%,35%)" stroke-width="0.00081"></path>
<path d="M1.672 0.588 Q1.986 0.511 1.905 0.340" stroke="hsl(0.0,100%,35%)" stroke-width="0.00081"></path>
<path d="M1.672 0.588 Q1.623 0.637 1.709 0.672" stroke="hsl(0.0,100%,35%)" stroke-width="0.00041"></path>
<path d="M1.278 0.720 Q0.861 0.693 0.716 0.890" stroke="hsl(0.0,100%,35%)" stroke-width="0.00081"></path>
<path d="M1.278 0.720 Q1.391 0.643 1.267 0.571" stroke="hsl(0.0,100%,35%)" stroke-width="0.00162"></path>
<path d="M1.278 0.720 Q1.130 0.706 1.070 0.775" stroke="hsl(0.0,100%,35%)" stroke-width="0.00081"></path>
<path d="M0.303 0.887 Q0.470 0.880 0.493 0.797" stroke="hsl(0.0,100%,35%)" stroke-width="0.00243"></path>
<path d="M0.303 0.887 Q1.542 0.934 1.905 0.340" stroke="hsl(0.0,100%,35%)" stroke-width="0.00081"></path>
<path d="M0.303 0.887 Q0.508 0.971 0.716 0.890" stroke="hsl(0.0,100%,35%)" stroke-width="0.00122"></path>
<path d="M0.303 0.887 Q0.950 0.503 0.342 0.103" stroke="hsl(0.0,100%,35%)" stroke-width="0.00041"></path>
<path d="M1.613 0.452 Q0.573 0.429 0.300 0.932" stroke="hsl(0.0,100%,35%)" stroke-width="0.00041"></path>
<path d="M1.613 0.452 Q1.848 0.454 1.905 0.340" stroke="hsl(0.0,100%,35%)" stroke-width="0.00243"></path>
<path d="M1.613 0.452 Q1.471 0.384 1.308 0.438" stroke="hsl(0.0,100%,35%)" stroke-width="0.00041"></path>
</g>
<text x="0.434" y="0.722" font-size="0.048954" fill="hsl(0.0,100%,20%)">abdolrashidi</text>
<text x="0.695" y="0.691" font-size="0.068348" fill="hsl(0.0,100%,20%)">cclao</text>
<text x="0.716" y="0.838" font-size="0.104086" fill="hsl(0.0,100%,20%)">syoussefi</text>
<text x="0.300" y="0.905" font-size="0.053996" fill="hsl(0.0,100%,20%)">romanl</text>
<text x="0.342" y="0.082" font-size="0.042297" fill="hsl(0.0,100%,20%)">cnorthrop</text>
<text x="1.905" y="0.322" font-size="0.036856" fill="hsl(0.0,100%,20%)">ynovikov</text>
<text x="0.934" y="0.772" font-size="0.016616" fill="hsl(0.0,100%,20%)">zzyiwei</text>
<text x="0.493" y="0.775" font-size="0.043710" fill="hsl(0.0,100%,20%)">yuxinhu</text>
<text x="1.070" y="0.746" font-size="0.058699" fill="hsl(0.0,100%,20%)">geofflang</text>
<text x="0.442" y="0.195" font-size="0.006646" fill="hsl(0.0,100%,20%)">banisingh</text>
<text x="1.959" y="0.456" font-size="0.015937" fill="hsl(0.0,100%,20%)">bsheedy</text>
<text x="1.910" y="0.602" font-size="0.003323" fill="hsl(0.0,100%,20%)">chanli</text>
<text x="0.546" y="0.946" font-size="0.037154" fill="hsl(0.0,100%,20%)">m.maiya</text>
<text x="0.407" y="0.635" font-size="0.019090" fill="hsl(0.0,100%,20%)">chrisforbes</text>
<text x="0.191" y="0.509" font-size="0.016616" fill="hsl(0.0,100%,20%)">hailinzhang</text>
<text x="0.746" y="0.163" font-size="0.021279" fill="hsl(0.0,100%,20%)">mark</text>
<text x="0.230" y="0.253" font-size="0.011982" fill="hsl(0.0,100%,20%)">mikes</text>
<text x="0.603" y="0.056" font-size="0.005756" fill="hsl(0.0,100%,20%)">lpy</text>
<text x="0.395" y="0.801" font-size="0.007431" fill="hsl(0.0,100%,20%)">dextero</text>
<text x="1.295" y="0.185" font-size="0.008792" fill="hsl(0.0,100%,20%)">djg</text>
<text x="1.035" y="0.277" font-size="0.024645" fill="hsl(0.0,100%,20%)">lehoangquyen</text>
<text x="1.308" y="0.424" font-size="0.029724" fill="hsl(0.0,100%,20%)">kbr</text>
<text x="0.200" y="0.684" font-size="0.005756" fill="hsl(0.0,100%,20%)">dloehr</text>
<text x="0.961" y="0.878" font-size="0.016280" fill="hsl(0.0,100%,20%)">g.tammana</text>
<text x="0.785" y="0.593" font-size="0.027202" fill="hsl(0.0,100%,20%)">liza</text>
<text x="0.799" y="0.468" font-size="0.021792" fill="hsl(0.0,100%,20%)">mpdenton</text>
<text x="0.696" y="0.562" font-size="0.005756" fill="hsl(0.0,100%,20%)">penghuang</text>
<text x="0.844" y="0.974" font-size="0.044337" fill="hsl(0.0,100%,20%)">lexa.knyazev</text>
<text x="0.981" y="0.520" font-size="0.003323" fill="hsl(0.0,100%,20%)">jamesgk</text>
<text x="0.592" y="0.586" font-size="0.004700" fill="hsl(0.0,100%,20%)">rafael.cintron</text>
<text x="0.552" y="0.530" font-size="0.011512" fill="hsl(0.0,100%,20%)">steven</text>
<text x="1.079" y="0.545" font-size="0.003323" fill="hsl(0.0,100%,20%)">johnstiles</text>
<text x="1.041" y="0.641" font-size="0.003323" fill="hsl(0.0,100%,20%)">vasilyt</text>
<text x="0.807" y="0.323" font-size="0.005756" fill="hsl(0.0,100%,20%)">gman</text>
<text x="1.585" y="0.199" font-size="0.006646" fill="hsl(0.0,100%,20%)">hans</text>
<text x="1.408" y="0.313" font-size="0.003323" fill="hsl(0.0,100%,20%)">thakis</text>
<text x="0.483" y="1.018" font-size="0.006646" fill="hsl(0.0,100%,20%)">hocheung</text>
<text x="0.856" y="0.663" font-size="0.022539" fill="hsl(0.0,100%,20%)">i.nazarov</text>
<text x="0.449" y="0.991" font-size="0.007431" fill="hsl(0.0,100%,20%)">jiawei.shao</text>
<text x="0.484" y="0.998" font-size="0.003323" fill="hsl(0.0,100%,20%)">senorblanco</text>
<text x="1.003" y="0.564" font-size="0.008140" fill="hsl(0.0,100%,20%)">jonahr</text>
<text x="1.267" y="0.558" font-size="0.026586" fill="hsl(0.0,100%,20%)">kkinnunen</text>
<text x="1.494" y="0.623" font-size="0.004700" fill="hsl(0.0,100%,20%)">kpiddington</text>
<text x="1.075" y="0.149" font-size="0.003323" fill="hsl(0.0,100%,20%)">sunnyps</text>
<text x="1.400" y="0.675" font-size="0.009399" fill="hsl(0.0,100%,20%)">lerica</text>
<text x="1.672" y="0.583" font-size="0.008792" fill="hsl(0.0,100%,20%)">sokcevic</text>
<text x="1.278" y="0.715" font-size="0.009399" fill="hsl(0.0,100%,20%)">mscott</text>
<text x="0.168" y="0.669" font-size="0.003323" fill="hsl(0.0,100%,20%)">zijiehe</text>
<text x="0.303" y="0.880" font-size="0.014099" fill="hsl(0.0,100%,20%)">solti</text>
<text x="1.709" y="0.671" font-size="0.003323" fill="hsl(0.0,100%,20%)">jwata</text>
<text x="0.947" y="1.222" font-size="0.004700" fill="hsl(0.0,100%,20%)">a.annestrand</text>
<text x="0.933" y="1.011" font-size="0.003323" fill="hsl(0.0,100%,20%)">ianelliott</text>
<text x="1.613" y="0.447" font-size="0.009399" fill="hsl(0.0,100%,20%)">tikuta</text>
<text x="0.403" y="0.547" font-size="0.003323" fill="hsl(0.0,100%,20%)">lepton</text>
</svg>
