<svg width="4000" height="2000" viewBox="-0.025 -0.025 2.05 1.05" xmlns="http://www.w3.org/2000/svg">
  <style>
    path {
      fill: none;
      stroke-linecap: round;
      stroke-opacity: 0.4;
    }

    text {
      text-anchor: middle;
      alignment-baseline: hanging;
    }
  </style>
  <g opacity="0.4">
<path d="M1.024 0.215 Q0.647 0.228 0.590 0.415" stroke="hsl(0.0,100%,35%)" stroke-width="0.01657"></path>
<path d="M1.024 0.215 Q0.836 0.202 0.769 0.290" stroke="hsl(0.0,100%,35%)" stroke-width="0.01900"></path>
<path d="M1.024 0.215 Q1.224 0.450 1.726 0.404" stroke="hsl(0.0,100%,35%)" stroke-width="0.00081"></path>
<path d="M1.024 0.215 Q1.089 0.412 1.488 0.424" stroke="hsl(0.0,100%,35%)" stroke-width="0.00040"></path>
<path d="M1.024 0.215 Q1.372 0.304 1.622 0.154" stroke="hsl(0.0,100%,35%)" stroke-width="0.00121"></path>
<path d="M1.024 0.215 Q1.034 0.309 1.219 0.325" stroke="hsl(0.0,100%,35%)" stroke-width="0.00040"></path>
<path d="M0.590 0.415 Q0.780 0.389 0.769 0.290" stroke="hsl(0.0,100%,35%)" stroke-width="0.04406"></path>
<path d="M0.590 0.415 Q0.967 0.402 1.024 0.215" stroke="hsl(0.0,100%,35%)" stroke-width="0.00485"></path>
<path d="M0.590 0.415 Q0.842 0.417 0.900 0.294" stroke="hsl(0.0,100%,35%)" stroke-width="0.00040"></path>
<path d="M0.590 0.415 Q0.715 0.490 0.888 0.446" stroke="hsl(0.0,100%,35%)" stroke-width="0.00849"></path>
<path d="M0.590 0.415 Q0.977 0.496 1.219 0.325" stroke="hsl(0.0,100%,35%)" stroke-width="0.01091"></path>
<path d="M0.590 0.415 Q1.167 0.637 1.726 0.404" stroke="hsl(0.0,100%,35%)" stroke-width="0.01253"></path>
<path d="M0.590 0.415 Q1.032 0.410 1.118 0.193" stroke="hsl(0.0,100%,35%)" stroke-width="0.00162"></path>
<path d="M0.590 0.415 Q1.170 0.468 1.400 0.197" stroke="hsl(0.0,100%,35%)" stroke-width="0.00040"></path>
<path d="M0.769 0.290 Q0.967 0.398 1.219 0.325" stroke="hsl(0.0,100%,35%)" stroke-width="0.03234"></path>
<path d="M0.769 0.290 Q0.580 0.317 0.590 0.415" stroke="hsl(0.0,100%,35%)" stroke-width="0.04851"></path>
<path d="M0.769 0.290 Q1.160 0.370 1.400 0.197" stroke="hsl(0.0,100%,35%)" stroke-width="0.03274"></path>
<path d="M0.769 0.290 Q1.305 0.393 1.622 0.154" stroke="hsl(0.0,100%,35%)" stroke-width="0.00364"></path>
<path d="M0.769 0.290 Q1.124 0.255 1.132 0.074" stroke="hsl(0.0,100%,35%)" stroke-width="0.00404"></path>
<path d="M0.769 0.290 Q1.184 0.306 1.305 0.107" stroke="hsl(0.0,100%,35%)" stroke-width="0.00040"></path>
<path d="M0.769 0.290 Q1.157 0.539 1.726 0.404" stroke="hsl(0.0,100%,35%)" stroke-width="0.01496"></path>
<path d="M0.769 0.290 Q1.010 0.736 1.933 0.717" stroke="hsl(0.0,100%,35%)" stroke-width="0.00445"></path>
<path d="M0.769 0.290 Q0.265 0.545 0.650 0.846" stroke="hsl(0.0,100%,35%)" stroke-width="0.00162"></path>
<path d="M0.769 0.290 Q0.832 0.318 0.900 0.294" stroke="hsl(0.0,100%,35%)" stroke-width="0.00202"></path>
<path d="M0.769 0.290 Q0.957 0.304 1.024 0.215" stroke="hsl(0.0,100%,35%)" stroke-width="0.00283"></path>
<path d="M0.769 0.290 Q1.053 0.208 0.955 0.051" stroke="hsl(0.0,100%,35%)" stroke-width="0.00040"></path>
<path d="M0.769 0.290 Q0.451 0.515 0.819 0.719" stroke="hsl(0.0,100%,35%)" stroke-width="0.00081"></path>
<path d="M0.769 0.290 Q0.852 0.380 1.044 0.359" stroke="hsl(0.0,100%,35%)" stroke-width="0.00687"></path>
<path d="M0.769 0.290 Q0.870 0.728 1.745 0.774" stroke="hsl(0.0,100%,35%)" stroke-width="0.00040"></path>
<path d="M0.769 0.290 Q0.972 0.529 1.482 0.482" stroke="hsl(0.0,100%,35%)" stroke-width="0.00081"></path>
<path d="M0.769 0.290 Q1.181 0.262 1.216 0.055" stroke="hsl(0.0,100%,35%)" stroke-width="0.00081"></path>
<path d="M0.769 0.290 Q0.866 0.361 1.025 0.330" stroke="hsl(0.0,100%,35%)" stroke-width="0.00040"></path>
<path d="M0.769 0.290 Q1.074 0.206 0.976 0.039" stroke="hsl(0.0,100%,35%)" stroke-width="0.00040"></path>
<path d="M1.726 0.404 Q1.526 0.169 1.024 0.215" stroke="hsl(180.0,100%,35%)" stroke-width="0.00930"></path>
<path d="M1.726 0.404 Q1.874 0.258 1.622 0.154" stroke="hsl(180.0,100%,35%)" stroke-width="0.02910"></path>
<path d="M1.726 0.404 Q1.580 0.602 1.933 0.717" stroke="hsl(180.0,100%,35%)" stroke-width="0.00768"></path>
<path d="M1.726 0.404 Q1.339 0.156 0.769 0.290" stroke="hsl(180.0,100%,35%)" stroke-width="0.02304"></path>
<path d="M1.726 0.404 Q1.729 0.235 1.400 0.197" stroke="hsl(180.0,100%,35%)" stroke-width="0.00121"></path>
<path d="M1.726 0.404 Q1.150 0.183 0.590 0.415" stroke="hsl(180.0,100%,35%)" stroke-width="0.00323"></path>
<path d="M1.726 0.404 Q1.536 0.263 1.219 0.325" stroke="hsl(180.0,100%,35%)" stroke-width="0.00202"></path>
<path d="M1.726 0.404 Q1.818 0.457 1.942 0.424" stroke="hsl(180.0,100%,35%)" stroke-width="0.00040"></path>
<path d="M1.726 0.404 Q1.542 0.395 1.482 0.482" stroke="hsl(180.0,100%,35%)" stroke-width="0.00081"></path>
<path d="M1.726 0.404 Q1.694 0.120 1.132 0.074" stroke="hsl(180.0,100%,35%)" stroke-width="0.00040"></path>
<path d="M1.726 0.404 Q1.591 0.367 1.488 0.424" stroke="hsl(180.0,100%,35%)" stroke-width="0.00040"></path>
<path d="M1.622 0.154 Q1.328 0.498 1.933 0.717" stroke="hsl(180.0,100%,35%)" stroke-width="0.00121"></path>
<path d="M1.622 0.154 Q1.704 0.226 1.863 0.202" stroke="hsl(180.0,100%,35%)" stroke-width="0.00121"></path>
<path d="M1.622 0.154 Q1.804 0.147 1.831 0.057" stroke="hsl(180.0,100%,35%)" stroke-width="0.00202"></path>
<path d="M1.622 0.154 Q1.672 0.080 1.538 0.039" stroke="hsl(180.0,100%,35%)" stroke-width="0.00081"></path>
<path d="M1.622 0.154 Q1.474 0.300 1.726 0.404" stroke="hsl(180.0,100%,35%)" stroke-width="0.01213"></path>
<path d="M1.622 0.154 Q1.087 0.052 0.769 0.290" stroke="hsl(180.0,100%,35%)" stroke-width="0.00404"></path>
<path d="M1.622 0.154 Q1.442 0.016 1.132 0.074" stroke="hsl(180.0,100%,35%)" stroke-width="0.00040"></path>
<path d="M1.622 0.154 Q0.897 0.078 0.590 0.415" stroke="hsl(180.0,100%,35%)" stroke-width="0.00202"></path>
<path d="M1.622 0.154 Q1.284 0.159 1.219 0.325" stroke="hsl(180.0,100%,35%)" stroke-width="0.00202"></path>
<path d="M1.622 0.154 Q1.289 0.290 1.482 0.482" stroke="hsl(180.0,100%,35%)" stroke-width="0.00040"></path>
<path d="M1.622 0.154 Q1.187 0.489 1.745 0.774" stroke="hsl(180.0,100%,35%)" stroke-width="0.00081"></path>
<path d="M1.622 0.154 Q1.477 0.131 1.400 0.197" stroke="hsl(180.0,100%,35%)" stroke-width="0.00081"></path>
<path d="M1.622 0.154 Q1.577 0.089 1.441 0.097" stroke="hsl(180.0,100%,35%)" stroke-width="0.00040"></path>
<path d="M1.622 0.154 Q0.582 0.306 0.650 0.846" stroke="hsl(180.0,100%,35%)" stroke-width="0.00040"></path>
<path d="M1.622 0.154 Q1.274 0.065 1.024 0.215" stroke="hsl(180.0,100%,35%)" stroke-width="0.00121"></path>
<path d="M1.219 0.325 Q1.022 0.218 0.769 0.290" stroke="hsl(0.0,100%,35%)" stroke-width="0.01293"></path>
<path d="M1.219 0.325 Q1.209 0.231 1.024 0.215" stroke="hsl(0.0,100%,35%)" stroke-width="0.00162"></path>
<path d="M1.219 0.325 Q1.607 0.246 1.538 0.039" stroke="hsl(0.0,100%,35%)" stroke-width="0.00040"></path>
<path d="M1.219 0.325 Q1.263 0.664 1.933 0.717" stroke="hsl(0.0,100%,35%)" stroke-width="0.00202"></path>
<path d="M1.219 0.325 Q1.409 0.466 1.726 0.404" stroke="hsl(0.0,100%,35%)" stroke-width="0.00687"></path>
<path d="M1.219 0.325 Q0.833 0.244 0.590 0.415" stroke="hsl(0.0,100%,35%)" stroke-width="0.00283"></path>
<path d="M1.219 0.325 Q1.377 0.182 1.132 0.074" stroke="hsl(0.0,100%,35%)" stroke-width="0.00202"></path>
<path d="M1.219 0.325 Q1.274 0.428 1.488 0.424" stroke="hsl(0.0,100%,35%)" stroke-width="0.00040"></path>
<path d="M1.219 0.325 Q1.225 0.456 1.482 0.482" stroke="hsl(0.0,100%,35%)" stroke-width="0.00040"></path>
<path d="M1.219 0.325 Q1.558 0.320 1.622 0.154" stroke="hsl(0.0,100%,35%)" stroke-width="0.00162"></path>
<path d="M1.219 0.325 Q0.957 0.319 0.888 0.446" stroke="hsl(0.0,100%,35%)" stroke-width="0.00040"></path>
<path d="M1.219 0.325 Q1.123 0.655 1.745 0.774" stroke="hsl(0.0,100%,35%)" stroke-width="0.00040"></path>
<path d="M1.219 0.325 Q1.366 0.442 1.627 0.397" stroke="hsl(0.0,100%,35%)" stroke-width="0.00040"></path>
<path d="M0.120 0.357 Q0.739 0.900 1.933 0.717" stroke="hsl(180.0,100%,35%)" stroke-width="0.00040"></path>
<path d="M0.120 0.357 Q0.313 0.294 0.233 0.186" stroke="hsl(180.0,100%,35%)" stroke-width="0.00040"></path>
<path d="M0.120 0.357 Q0.498 0.454 0.769 0.290" stroke="hsl(180.0,100%,35%)" stroke-width="0.00040"></path>
<path d="M1.933 0.717 Q1.856 0.628 1.667 0.647" stroke="hsl(180.0,100%,35%)" stroke-width="0.00323"></path>
<path d="M1.933 0.717 Q2.080 0.519 1.726 0.404" stroke="hsl(180.0,100%,35%)" stroke-width="0.00606"></path>
<path d="M1.933 0.717 Q1.693 0.271 0.769 0.290" stroke="hsl(180.0,100%,35%)" stroke-width="0.00323"></path>
<path d="M1.933 0.717 Q2.228 0.373 1.622 0.154" stroke="hsl(180.0,100%,35%)" stroke-width="0.00040"></path>
<path d="M1.933 0.717 Q1.890 0.378 1.219 0.325" stroke="hsl(180.0,100%,35%)" stroke-width="0.00040"></path>
<path d="M1.933 0.717 Q1.789 0.342 1.025 0.330" stroke="hsl(180.0,100%,35%)" stroke-width="0.00040"></path>
<path d="M1.933 0.717 Q2.083 0.350 1.400 0.197" stroke="hsl(180.0,100%,35%)" stroke-width="0.00202"></path>
<path d="M1.933 0.717 Q1.793 0.708 1.745 0.774" stroke="hsl(180.0,100%,35%)" stroke-width="0.00081"></path>
<path d="M1.933 0.717 Q1.188 0.525 0.650 0.846" stroke="hsl(180.0,100%,35%)" stroke-width="0.00040"></path>
<path d="M1.933 0.717 Q2.166 0.259 1.324 0.046" stroke="hsl(180.0,100%,35%)" stroke-width="0.00040"></path>
<path d="M1.933 0.717 Q1.477 0.558 1.067 0.745" stroke="hsl(180.0,100%,35%)" stroke-width="0.00040"></path>
<path d="M1.534 0.086 Q1.229 0.481 1.933 0.717" stroke="hsl(180.0,100%,35%)" stroke-width="0.00040"></path>
<path d="M1.534 0.086 Q1.524 0.138 1.622 0.154" stroke="hsl(180.0,100%,35%)" stroke-width="0.00081"></path>
<path d="M1.534 0.086 Q1.375 0.284 1.726 0.404" stroke="hsl(180.0,100%,35%)" stroke-width="0.00040"></path>
<path d="M0.900 0.294 Q0.838 0.266 0.769 0.290" stroke="hsl(0.0,100%,35%)" stroke-width="0.01576"></path>
<path d="M0.900 0.294 Q0.649 0.293 0.590 0.415" stroke="hsl(0.0,100%,35%)" stroke-width="0.00364"></path>
<path d="M0.900 0.294 Q1.228 0.345 1.400 0.197" stroke="hsl(0.0,100%,35%)" stroke-width="0.00040"></path>
<path d="M0.900 0.294 Q1.225 0.514 1.726 0.404" stroke="hsl(0.0,100%,35%)" stroke-width="0.00040"></path>
<path d="M0.888 0.446 Q0.764 0.371 0.590 0.415" stroke="hsl(0.0,100%,35%)" stroke-width="0.00283"></path>
<path d="M0.888 0.446 Q1.489 0.447 1.622 0.154" stroke="hsl(0.0,100%,35%)" stroke-width="0.00081"></path>
<path d="M0.888 0.446 Q0.953 0.344 0.769 0.290" stroke="hsl(0.0,100%,35%)" stroke-width="0.00121"></path>
<path d="M1.118 0.193 Q0.677 0.199 0.590 0.415" stroke="hsl(0.0,100%,35%)" stroke-width="0.00525"></path>
<path d="M1.118 0.193 Q0.866 0.172 0.769 0.290" stroke="hsl(0.0,100%,35%)" stroke-width="0.00404"></path>
<path d="M1.118 0.193 Q1.054 0.185 1.024 0.215" stroke="hsl(0.0,100%,35%)" stroke-width="0.00162"></path>
<path d="M1.400 0.197 Q1.010 0.118 0.769 0.290" stroke="hsl(0.0,100%,35%)" stroke-width="0.02264"></path>
<path d="M1.400 0.197 Q0.506 0.372 0.650 0.846" stroke="hsl(0.0,100%,35%)" stroke-width="0.00606"></path>
<path d="M1.400 0.197 Q1.421 0.089 1.216 0.055" stroke="hsl(0.0,100%,35%)" stroke-width="0.00364"></path>
<path d="M1.400 0.197 Q0.691 0.342 0.819 0.719" stroke="hsl(0.0,100%,35%)" stroke-width="0.00081"></path>
<path d="M1.400 0.197 Q0.820 0.144 0.590 0.415" stroke="hsl(0.0,100%,35%)" stroke-width="0.00040"></path>
<path d="M1.400 0.197 Q1.251 0.563 1.933 0.717" stroke="hsl(0.0,100%,35%)" stroke-width="0.00364"></path>
<path d="M1.400 0.197 Q1.202 0.031 0.835 0.091" stroke="hsl(0.0,100%,35%)" stroke-width="0.00040"></path>
<path d="M1.400 0.197 Q1.397 0.366 1.726 0.404" stroke="hsl(0.0,100%,35%)" stroke-width="0.00081"></path>
<path d="M1.400 0.197 Q1.207 0.225 1.219 0.325" stroke="hsl(0.0,100%,35%)" stroke-width="0.00162"></path>
<path d="M1.400 0.197 Q1.545 0.220 1.622 0.154" stroke="hsl(0.0,100%,35%)" stroke-width="0.00081"></path>
<path d="M1.400 0.197 Q1.369 0.046 1.068 0.028" stroke="hsl(0.0,100%,35%)" stroke-width="0.00081"></path>
<path d="M1.400 0.197 Q1.106 0.188 1.025 0.330" stroke="hsl(0.0,100%,35%)" stroke-width="0.00040"></path>
<path d="M1.400 0.197 Q1.483 0.106 1.324 0.046" stroke="hsl(0.0,100%,35%)" stroke-width="0.00202"></path>
<path d="M1.400 0.197 Q1.294 0.035 0.955 0.051" stroke="hsl(0.0,100%,35%)" stroke-width="0.00606"></path>
<path d="M1.400 0.197 Q1.422 0.071 1.181 0.033" stroke="hsl(0.0,100%,35%)" stroke-width="0.00040"></path>
<path d="M1.400 0.197 Q1.183 -0.005 0.743 0.056" stroke="hsl(0.0,100%,35%)" stroke-width="0.00121"></path>
<path d="M1.400 0.197 Q1.338 0.056 1.051 0.055" stroke="hsl(0.0,100%,35%)" stroke-width="0.00040"></path>
<path d="M1.400 0.197 Q0.329 0.256 0.210 0.791" stroke="hsl(0.0,100%,35%)" stroke-width="0.00081"></path>
<path d="M1.400 0.197 Q1.212 0.356 1.482 0.482" stroke="hsl(0.0,100%,35%)" stroke-width="0.00040"></path>
<path d="M1.400 0.197 Q0.510 0.315 0.544 0.775" stroke="hsl(0.0,100%,35%)" stroke-width="0.00040"></path>
<path d="M0.724 0.979 Q0.794 0.898 0.650 0.846" stroke="hsl(0.0,100%,35%)" stroke-width="0.00283"></path>
<path d="M0.724 0.979 Q1.298 0.644 0.769 0.290" stroke="hsl(0.0,100%,35%)" stroke-width="0.00243"></path>
<path d="M0.724 0.979 Q1.688 0.723 1.400 0.197" stroke="hsl(0.0,100%,35%)" stroke-width="0.00081"></path>
<path d="M0.650 0.846 Q1.155 0.592 0.769 0.290" stroke="hsl(0.0,100%,35%)" stroke-width="0.00162"></path>
<path d="M0.650 0.846 Q1.545 0.671 1.400 0.197" stroke="hsl(0.0,100%,35%)" stroke-width="0.00323"></path>
<path d="M0.650 0.846 Q1.628 0.581 1.324 0.046" stroke="hsl(0.0,100%,35%)" stroke-width="0.00040"></path>
<path d="M0.650 0.846 Q0.965 0.619 0.590 0.415" stroke="hsl(0.0,100%,35%)" stroke-width="0.00040"></path>
<path d="M1.863 0.202 Q1.781 0.130 1.622 0.154" stroke="hsl(180.0,100%,35%)" stroke-width="0.01172"></path>
<path d="M1.863 0.202 Q1.246 0.028 0.769 0.290" stroke="hsl(180.0,100%,35%)" stroke-width="0.00283"></path>
<path d="M1.863 0.202 Q1.633 0.276 1.726 0.404" stroke="hsl(180.0,100%,35%)" stroke-width="0.00202"></path>
<path d="M1.863 0.202 Q1.347 0.465 1.745 0.774" stroke="hsl(180.0,100%,35%)" stroke-width="0.00162"></path>
<path d="M1.863 0.202 Q1.443 0.135 1.219 0.325" stroke="hsl(180.0,100%,35%)" stroke-width="0.00081"></path>
<path d="M1.863 0.202 Q1.308 0.056 0.900 0.294" stroke="hsl(180.0,100%,35%)" stroke-width="0.00040"></path>
<path d="M1.831 0.057 Q1.649 0.064 1.622 0.154" stroke="hsl(180.0,100%,35%)" stroke-width="0.00525"></path>
<path d="M1.831 0.057 Q1.501 0.210 1.726 0.404" stroke="hsl(180.0,100%,35%)" stroke-width="0.00040"></path>
<path d="M1.831 0.057 Q1.355 0.408 1.933 0.717" stroke="hsl(180.0,100%,35%)" stroke-width="0.00040"></path>
<path d="M1.831 0.057 Q1.114 -0.038 0.769 0.290" stroke="hsl(180.0,100%,35%)" stroke-width="0.00081"></path>
<path d="M1.831 0.057 Q1.214 0.399 1.745 0.774" stroke="hsl(180.0,100%,35%)" stroke-width="0.00040"></path>
<path d="M1.831 0.057 Q0.924 -0.012 0.590 0.415" stroke="hsl(180.0,100%,35%)" stroke-width="0.00040"></path>
<path d="M1.538 0.039 Q1.488 0.114 1.622 0.154" stroke="hsl(180.0,100%,35%)" stroke-width="0.00162"></path>
<path d="M1.538 0.039 Q1.150 0.118 1.219 0.325" stroke="hsl(180.0,100%,35%)" stroke-width="0.00121"></path>
<path d="M1.538 0.039 Q1.155 0.250 1.482 0.482" stroke="hsl(180.0,100%,35%)" stroke-width="0.00040"></path>
<path d="M1.132 0.074 Q0.777 0.109 0.769 0.290" stroke="hsl(0.0,100%,35%)" stroke-width="0.00525"></path>
<path d="M1.132 0.074 Q0.588 0.136 0.590 0.415" stroke="hsl(0.0,100%,35%)" stroke-width="0.00081"></path>
<path d="M1.132 0.074 Q1.313 0.212 1.622 0.154" stroke="hsl(0.0,100%,35%)" stroke-width="0.00081"></path>
<path d="M1.132 0.074 Q0.975 0.217 1.219 0.325" stroke="hsl(0.0,100%,35%)" stroke-width="0.00081"></path>
<path d="M1.132 0.074 Q0.827 0.268 1.140 0.460" stroke="hsl(0.0,100%,35%)" stroke-width="0.00040"></path>
<path d="M1.482 0.482 Q1.477 0.351 1.219 0.325" stroke="hsl(180.0,100%,35%)" stroke-width="0.00121"></path>
<path d="M1.482 0.482 Q1.520 0.690 1.933 0.717" stroke="hsl(180.0,100%,35%)" stroke-width="0.00040"></path>
<path d="M1.482 0.482 Q1.279 0.244 0.769 0.290" stroke="hsl(180.0,100%,35%)" stroke-width="0.00081"></path>
<path d="M1.482 0.482 Q1.815 0.346 1.622 0.154" stroke="hsl(180.0,100%,35%)" stroke-width="0.00040"></path>
<path d="M1.441 0.097 Q1.203 0.081 1.118 0.193" stroke="hsl(0.0,100%,35%)" stroke-width="0.00040"></path>
<path d="M1.441 0.097 Q0.951 0.059 0.769 0.290" stroke="hsl(0.0,100%,35%)" stroke-width="0.00081"></path>
<path d="M1.441 0.097 Q0.761 0.086 0.590 0.415" stroke="hsl(0.0,100%,35%)" stroke-width="0.00040"></path>
<path d="M0.375 0.646 Q0.857 0.547 0.769 0.290" stroke="hsl(0.0,100%,35%)" stroke-width="0.00081"></path>
<path d="M0.375 0.646 Q1.141 0.465 0.955 0.051" stroke="hsl(0.0,100%,35%)" stroke-width="0.00040"></path>
<path d="M0.375 0.646 Q1.098 0.993 1.933 0.717" stroke="hsl(0.0,100%,35%)" stroke-width="0.00040"></path>
<path d="M0.375 0.646 Q0.353 0.801 0.650 0.846" stroke="hsl(0.0,100%,35%)" stroke-width="0.00121"></path>
<path d="M0.375 0.646 Q0.562 0.652 0.615 0.562" stroke="hsl(0.0,100%,35%)" stroke-width="0.00040"></path>
<path d="M0.955 0.051 Q1.061 0.213 1.400 0.197" stroke="hsl(0.0,100%,35%)" stroke-width="0.00283"></path>
<path d="M0.955 0.051 Q0.167 0.388 0.650 0.846" stroke="hsl(0.0,100%,35%)" stroke-width="0.00243"></path>
<path d="M0.955 0.051 Q0.376 0.239 0.615 0.562" stroke="hsl(0.0,100%,35%)" stroke-width="0.00040"></path>
<path d="M0.962 0.052 Q0.170 0.387 0.650 0.846" stroke="hsl(0.0,100%,35%)" stroke-width="0.00040"></path>
<path d="M0.962 0.052 Q1.065 0.212 1.400 0.197" stroke="hsl(0.0,100%,35%)" stroke-width="0.00081"></path>
<path d="M0.962 0.052 Q0.675 0.133 0.769 0.290" stroke="hsl(0.0,100%,35%)" stroke-width="0.00040"></path>
<path d="M0.544 0.775 Q0.540 0.832 0.650 0.846" stroke="hsl(0.0,100%,35%)" stroke-width="0.00040"></path>
<path d="M0.544 0.775 Q1.044 0.578 0.769 0.290" stroke="hsl(0.0,100%,35%)" stroke-width="0.00040"></path>
<path d="M0.544 0.775 Q1.434 0.657 1.400 0.197" stroke="hsl(0.0,100%,35%)" stroke-width="0.00081"></path>
<path d="M0.819 0.719 Q1.527 0.574 1.400 0.197" stroke="hsl(0.0,100%,35%)" stroke-width="0.02183"></path>
<path d="M0.819 0.719 Q1.137 0.495 0.769 0.290" stroke="hsl(0.0,100%,35%)" stroke-width="0.02749"></path>
<path d="M0.819 0.719 Q0.633 0.749 0.650 0.846" stroke="hsl(0.0,100%,35%)" stroke-width="0.01091"></path>
<path d="M0.819 0.719 Q0.695 0.681 0.594 0.733" stroke="hsl(0.0,100%,35%)" stroke-width="0.00121"></path>
<path d="M0.819 0.719 Q1.421 0.413 0.955 0.051" stroke="hsl(0.0,100%,35%)" stroke-width="0.00162"></path>
<path d="M0.819 0.719 Q1.378 0.941 1.933 0.717" stroke="hsl(0.0,100%,35%)" stroke-width="0.00040"></path>
<path d="M0.819 0.719 Q0.792 0.770 0.885 0.794" stroke="hsl(0.0,100%,35%)" stroke-width="0.00202"></path>
<path d="M0.819 0.719 Q1.335 0.602 1.219 0.325" stroke="hsl(0.0,100%,35%)" stroke-width="0.00040"></path>
<path d="M0.819 0.719 Q1.079 0.805 1.304 0.698" stroke="hsl(0.0,100%,35%)" stroke-width="0.00040"></path>
<path d="M1.025 0.330 Q0.929 0.259 0.769 0.290" stroke="hsl(0.0,100%,35%)" stroke-width="0.01051"></path>
<path d="M1.025 0.330 Q1.319 0.338 1.400 0.197" stroke="hsl(0.0,100%,35%)" stroke-width="0.00323"></path>
<path d="M1.025 0.330 Q0.740 0.285 0.590 0.415" stroke="hsl(0.0,100%,35%)" stroke-width="0.00202"></path>
<path d="M1.025 0.330 Q1.126 0.366 1.219 0.325" stroke="hsl(0.0,100%,35%)" stroke-width="0.00081"></path>
<path d="M1.025 0.330 Q1.316 0.507 1.726 0.404" stroke="hsl(0.0,100%,35%)" stroke-width="0.00040"></path>
<path d="M1.025 0.330 Q1.116 0.272 1.024 0.215" stroke="hsl(0.0,100%,35%)" stroke-width="0.00040"></path>
<path d="M1.025 0.330 Q1.170 0.705 1.933 0.717" stroke="hsl(0.0,100%,35%)" stroke-width="0.00081"></path>
<path d="M1.025 0.330 Q0.425 0.513 0.650 0.846" stroke="hsl(0.0,100%,35%)" stroke-width="0.00040"></path>
<path d="M1.324 0.046 Q1.241 0.136 1.400 0.197" stroke="hsl(0.0,100%,35%)" stroke-width="0.00081"></path>
<path d="M1.324 0.046 Q0.347 0.311 0.650 0.846" stroke="hsl(0.0,100%,35%)" stroke-width="0.00081"></path>
<path d="M1.324 0.046 Q0.851 0.057 0.769 0.290" stroke="hsl(0.0,100%,35%)" stroke-width="0.00081"></path>
<path d="M1.051 0.055 Q0.722 0.117 0.769 0.290" stroke="hsl(0.0,100%,35%)" stroke-width="0.00081"></path>
<path d="M1.051 0.055 Q0.920 0.224 1.219 0.325" stroke="hsl(0.0,100%,35%)" stroke-width="0.00040"></path>
<path d="M1.051 0.055 Q1.112 0.196 1.400 0.197" stroke="hsl(0.0,100%,35%)" stroke-width="0.00202"></path>
<path d="M1.051 0.055 Q1.109 0.365 1.726 0.404" stroke="hsl(0.0,100%,35%)" stroke-width="0.00040"></path>
<path d="M1.861 0.409 Q1.946 0.234 1.622 0.154" stroke="hsl(180.0,100%,35%)" stroke-width="0.00202"></path>
<path d="M1.861 0.409 Q1.511 0.569 1.745 0.774" stroke="hsl(180.0,100%,35%)" stroke-width="0.00040"></path>
<path d="M1.861 0.409 Q1.842 0.463 1.943 0.484" stroke="hsl(180.0,100%,35%)" stroke-width="0.00040"></path>
<path d="M1.234 0.496 Q1.166 0.301 0.769 0.290" stroke="hsl(0.0,100%,35%)" stroke-width="0.00081"></path>
<path d="M1.234 0.496 Q1.225 0.536 1.300 0.549" stroke="hsl(0.0,100%,35%)" stroke-width="0.00040"></path>
<path d="M1.234 0.496 Q0.977 0.327 0.590 0.415" stroke="hsl(0.0,100%,35%)" stroke-width="0.00040"></path>
<path d="M0.073 0.633 Q1.085 0.680 1.400 0.197" stroke="hsl(0.0,100%,35%)" stroke-width="0.00121"></path>
<path d="M0.073 0.633 Q0.015 0.739 0.210 0.791" stroke="hsl(0.0,100%,35%)" stroke-width="0.00121"></path>
<path d="M0.073 0.633 Q1.231 0.703 1.622 0.154" stroke="hsl(0.0,100%,35%)" stroke-width="0.00040"></path>
<path d="M1.044 0.359 Q0.773 0.296 0.590 0.415" stroke="hsl(0.0,100%,35%)" stroke-width="0.02142"></path>
<path d="M1.044 0.359 Q0.962 0.270 0.769 0.290" stroke="hsl(0.0,100%,35%)" stroke-width="0.02991"></path>
<path d="M1.044 0.359 Q1.352 0.349 1.400 0.197" stroke="hsl(0.0,100%,35%)" stroke-width="0.00243"></path>
<path d="M1.454 0.618 Q1.764 0.397 1.400 0.197" stroke="hsl(0.0,100%,35%)" stroke-width="0.00081"></path>
<path d="M1.454 0.618 Q1.596 0.608 1.607 0.536" stroke="hsl(0.0,100%,35%)" stroke-width="0.00040"></path>
<path d="M1.454 0.618 Q1.374 0.318 0.769 0.290" stroke="hsl(0.0,100%,35%)" stroke-width="0.00081"></path>
<path d="M0.784 0.126 Q1.118 0.194 1.324 0.046" stroke="hsl(180.0,100%,35%)" stroke-width="0.00040"></path>
<path d="M0.784 0.126 Q0.843 0.313 1.219 0.325" stroke="hsl(180.0,100%,35%)" stroke-width="0.00040"></path>
<path d="M0.784 0.126 Q1.032 0.454 1.726 0.404" stroke="hsl(180.0,100%,35%)" stroke-width="0.00121"></path>
<path d="M0.784 0.126 Q0.886 0.651 1.933 0.717" stroke="hsl(180.0,100%,35%)" stroke-width="0.00040"></path>
<path d="M0.784 0.126 Q0.645 0.205 0.769 0.290" stroke="hsl(180.0,100%,35%)" stroke-width="0.00040"></path>
<path d="M0.594 0.733 Q0.531 0.801 0.650 0.846" stroke="hsl(0.0,100%,35%)" stroke-width="0.00606"></path>
<path d="M0.594 0.733 Q1.036 0.547 0.769 0.290" stroke="hsl(0.0,100%,35%)" stroke-width="0.00283"></path>
<path d="M0.594 0.733 Q0.717 0.771 0.819 0.719" stroke="hsl(0.0,100%,35%)" stroke-width="0.00040"></path>
<path d="M0.594 0.733 Q1.426 0.626 1.400 0.197" stroke="hsl(0.0,100%,35%)" stroke-width="0.00162"></path>
<path d="M0.594 0.733 Q0.554 0.646 0.375 0.646" stroke="hsl(0.0,100%,35%)" stroke-width="0.00283"></path>
<path d="M0.594 0.733 Q0.691 0.821 0.885 0.794" stroke="hsl(0.0,100%,35%)" stroke-width="0.00040"></path>
<path d="M1.305 0.107 Q1.280 0.171 1.400 0.197" stroke="hsl(0.0,100%,35%)" stroke-width="0.00202"></path>
<path d="M1.305 0.107 Q0.890 0.092 0.769 0.290" stroke="hsl(0.0,100%,35%)" stroke-width="0.00404"></path>
<path d="M1.305 0.107 Q1.277 0.340 1.726 0.404" stroke="hsl(0.0,100%,35%)" stroke-width="0.00040"></path>
<path d="M1.305 0.107 Q1.337 0.071 1.275 0.047" stroke="hsl(0.0,100%,35%)" stroke-width="0.00081"></path>
<path d="M1.305 0.107 Q0.932 0.474 1.566 0.736" stroke="hsl(0.0,100%,35%)" stroke-width="0.00040"></path>
<path d="M1.566 0.736 Q1.722 0.461 1.219 0.325" stroke="hsl(180.0,100%,35%)" stroke-width="0.00040"></path>
<path d="M1.566 0.736 Q1.524 0.354 0.769 0.290" stroke="hsl(180.0,100%,35%)" stroke-width="0.00040"></path>
<path d="M1.566 0.736 Q1.765 0.800 1.933 0.717" stroke="hsl(180.0,100%,35%)" stroke-width="0.00081"></path>
<path d="M1.566 0.736 Q1.020 0.608 0.650 0.846" stroke="hsl(180.0,100%,35%)" stroke-width="0.00040"></path>
<path d="M0.993 0.904 Q1.762 0.632 1.400 0.197" stroke="hsl(0.0,100%,35%)" stroke-width="0.00040"></path>
<path d="M0.993 0.904 Q0.868 0.807 0.650 0.846" stroke="hsl(0.0,100%,35%)" stroke-width="0.00121"></path>
<path d="M0.993 0.904 Q0.930 0.739 0.594 0.733" stroke="hsl(0.0,100%,35%)" stroke-width="0.00040"></path>
<path d="M0.993 0.904 Q1.372 0.553 0.769 0.290" stroke="hsl(0.0,100%,35%)" stroke-width="0.00040"></path>
<path d="M0.654 0.165 Q1.002 0.330 1.400 0.197" stroke="hsl(0.0,100%,35%)" stroke-width="0.00081"></path>
<path d="M0.654 0.165 Q0.611 0.251 0.769 0.290" stroke="hsl(0.0,100%,35%)" stroke-width="0.00243"></path>
<path d="M0.654 0.165 Q0.422 0.277 0.590 0.415" stroke="hsl(0.0,100%,35%)" stroke-width="0.00081"></path>
<path d="M1.067 0.745 Q0.778 0.712 0.650 0.846" stroke="hsl(0.0,100%,35%)" stroke-width="0.00121"></path>
<path d="M1.067 0.745 Q0.964 0.683 0.819 0.719" stroke="hsl(0.0,100%,35%)" stroke-width="0.00040"></path>
<path d="M1.067 0.745 Q1.672 0.538 1.400 0.197" stroke="hsl(0.0,100%,35%)" stroke-width="0.00162"></path>
</g>
<text x="1.024" y="0.196" font-size="0.039112" fill="hsl(0.0,100%,20%)">abdolrashidi</text>
<text x="0.590" y="0.380" font-size="0.070420" fill="hsl(0.0,100%,20%)">cclao</text>
<text x="0.769" y="0.240" font-size="0.101629" fill="hsl(0.0,100%,20%)">syoussefi</text>
<text x="1.726" y="0.375" font-size="0.059083" fill="hsl(180.0,100%,20%)">romanl</text>
<text x="1.488" y="0.421" font-size="0.005550" fill="hsl(0.0,100%,20%)">kaiyili</text>
<text x="1.622" y="0.130" font-size="0.047956" fill="hsl(180.0,100%,20%)">cnorthrop</text>
<text x="1.219" y="0.301" font-size="0.047418" fill="hsl(0.0,100%,20%)">yuxinhu</text>
<text x="0.120" y="0.354" font-size="0.005550" fill="hsl(180.0,100%,20%)">agrieve</text>
<text x="1.933" y="0.701" font-size="0.032361" fill="hsl(180.0,100%,20%)">ynovikov</text>
<text x="0.233" y="0.185" font-size="0.003204" fill="hsl(180.0,100%,20%)">smaier</text>
<text x="1.534" y="0.083" font-size="0.006408" fill="hsl(180.0,100%,20%)">banisingh</text>
<text x="0.900" y="0.282" font-size="0.024191" fill="hsl(0.0,100%,20%)">m.maiya</text>
<text x="0.888" y="0.436" font-size="0.018684" fill="hsl(0.0,100%,20%)">chrisforbes</text>
<text x="1.118" y="0.184" font-size="0.018126" fill="hsl(0.0,100%,20%)">hailinzhang</text>
<text x="1.400" y="0.167" font-size="0.059343" fill="hsl(0.0,100%,20%)">geofflang</text>
<text x="0.724" y="0.973" font-size="0.012410" fill="hsl(0.0,100%,20%)">chris</text>
<text x="0.650" y="0.830" font-size="0.032833" fill="hsl(0.0,100%,20%)">kbr</text>
<text x="1.863" y="0.191" font-size="0.022883" fill="hsl(180.0,100%,20%)">mark</text>
<text x="1.831" y="0.050" font-size="0.015697" fill="hsl(180.0,100%,20%)">mikes</text>
<text x="1.538" y="0.034" font-size="0.010627" fill="hsl(180.0,100%,20%)">lpy</text>
<text x="1.132" y="0.064" font-size="0.019490" fill="hsl(0.0,100%,20%)">zzyiwei</text>
<text x="1.482" y="0.476" font-size="0.012410" fill="hsl(180.0,100%,20%)">solti</text>
<text x="1.745" y="0.769" font-size="0.011100" fill="hsl(180.0,100%,20%)">ianelliott</text>
<text x="1.441" y="0.093" font-size="0.007165" fill="hsl(0.0,100%,20%)">gregschlom</text>
<text x="0.375" y="0.640" font-size="0.012410" fill="hsl(0.0,100%,20%)">djg</text>
<text x="0.955" y="0.042" font-size="0.018956" fill="hsl(0.0,100%,20%)">lehoangquyen</text>
<text x="0.615" y="0.560" font-size="0.004531" fill="hsl(0.0,100%,20%)">sunnyps</text>
<text x="0.962" y="0.048" font-size="0.006408" fill="hsl(0.0,100%,20%)">dtapuska</text>
<text x="0.544" y="0.771" font-size="0.007165" fill="hsl(0.0,100%,20%)">enga</text>
<text x="1.216" y="0.050" font-size="0.010627" fill="hsl(0.0,100%,20%)">penghuang</text>
<text x="0.819" y="0.698" font-size="0.041778" fill="hsl(0.0,100%,20%)">lexa.knyazev</text>
<text x="0.835" y="0.089" font-size="0.003204" fill="hsl(0.0,100%,20%)">jamesgk</text>
<text x="1.068" y="0.026" font-size="0.004531" fill="hsl(0.0,100%,20%)">rafael.cintron</text>
<text x="1.025" y="0.319" font-size="0.022429" fill="hsl(0.0,100%,20%)">steven</text>
<text x="1.324" y="0.040" font-size="0.011989" fill="hsl(0.0,100%,20%)">jonahr</text>
<text x="1.181" y="0.031" font-size="0.003204" fill="hsl(0.0,100%,20%)">gman</text>
<text x="0.743" y="0.054" font-size="0.005550" fill="hsl(0.0,100%,20%)">blundell</text>
<text x="1.051" y="0.050" font-size="0.010133" fill="hsl(0.0,100%,20%)">hob</text>
<text x="0.210" y="0.787" font-size="0.007165" fill="hsl(0.0,100%,20%)">vasilyt</text>
<text x="1.861" y="0.405" font-size="0.008478" fill="hsl(180.0,100%,20%)">gert.wollny</text>
<text x="1.943" y="0.483" font-size="0.003204" fill="hsl(180.0,100%,20%)">vantablack</text>
<text x="1.234" y="0.493" font-size="0.006408" fill="hsl(0.0,100%,20%)">hans</text>
<text x="1.300" y="0.548" font-size="0.003204" fill="hsl(0.0,100%,20%)">thakis</text>
<text x="0.073" y="0.629" font-size="0.008478" fill="hsl(0.0,100%,20%)">hitawala</text>
<text x="1.044" y="0.339" font-size="0.039243" fill="hsl(0.0,100%,20%)">i.nazarov</text>
<text x="1.454" y="0.615" font-size="0.007165" fill="hsl(0.0,100%,20%)">jiawei.shao</text>
<text x="1.607" y="0.535" font-size="0.003204" fill="hsl(0.0,100%,20%)">senorblanco</text>
<text x="0.784" y="0.122" font-size="0.008478" fill="hsl(180.0,100%,20%)">jojwang</text>
<text x="0.594" y="0.723" font-size="0.020010" fill="hsl(0.0,100%,20%)">kkinnunen</text>
<text x="0.885" y="0.790" font-size="0.007849" fill="hsl(0.0,100%,20%)">kpiddington</text>
<text x="1.304" y="0.696" font-size="0.003204" fill="hsl(0.0,100%,20%)">brianosman</text>
<text x="1.305" y="0.100" font-size="0.014330" fill="hsl(0.0,100%,20%)">liza</text>
<text x="1.275" y="0.045" font-size="0.004531" fill="hsl(0.0,100%,20%)">mpdenton</text>
<text x="1.566" y="0.732" font-size="0.007849" fill="hsl(180.0,100%,20%)">sokcevic</text>
<text x="0.993" y="0.900" font-size="0.007849" fill="hsl(0.0,100%,20%)">msisov</text>
<text x="0.654" y="0.160" font-size="0.010133" fill="hsl(0.0,100%,20%)">phanquangminh217</text>
<text x="1.942" y="0.422" font-size="0.003204" fill="hsl(180.0,100%,20%)">zijiehe</text>
<text x="1.067" y="0.740" font-size="0.009613" fill="hsl(0.0,100%,20%)">sky</text>
<text x="0.976" y="0.038" font-size="0.003204" fill="hsl(0.0,100%,20%)">natsu</text>
<text x="1.667" y="0.642" font-size="0.009063" fill="hsl(180.0,100%,20%)">bsheedy</text>
<text x="1.627" y="0.395" font-size="0.003204" fill="hsl(0.0,100%,20%)">sugoi</text>
<text x="1.140" y="0.458" font-size="0.003204" fill="hsl(0.0,100%,20%)">rjodin</text>
</svg>
