<svg width="4000" height="2000" viewBox="-0.025 -0.025 2.05 1.05" xmlns="http://www.w3.org/2000/svg">
  <style>
    path {
      fill: none;
      stroke-linecap: round;
      stroke-opacity: 0.4;
    }

    text {
      text-anchor: middle;
      alignment-baseline: hanging;
    }
  </style>
  <g opacity="0.4">
<path d="M0.479 0.437 Q0.709 0.410 0.707 0.292" stroke="hsl(0.0,100%,35%)" stroke-width="0.00171"></path>
<path d="M0.479 0.437 Q0.470 0.382 0.361 0.374" stroke="hsl(0.0,100%,35%)" stroke-width="0.00244"></path>
<path d="M0.479 0.437 Q0.641 0.488 0.776 0.420" stroke="hsl(0.0,100%,35%)" stroke-width="0.00024"></path>
<path d="M0.479 0.437 Q1.325 0.625 1.878 0.254" stroke="hsl(0.0,100%,35%)" stroke-width="0.00024"></path>
<path d="M0.707 0.292 Q0.469 0.264 0.361 0.374" stroke="hsl(0.0,100%,35%)" stroke-width="0.02829"></path>
<path d="M0.707 0.292 Q0.531 0.397 0.698 0.507" stroke="hsl(0.0,100%,35%)" stroke-width="0.03341"></path>
<path d="M0.707 0.292 Q0.928 0.474 1.332 0.406" stroke="hsl(0.0,100%,35%)" stroke-width="0.03219"></path>
<path d="M0.707 0.292 Q0.428 0.323 0.428 0.467" stroke="hsl(0.0,100%,35%)" stroke-width="0.02731"></path>
<path d="M0.707 0.292 Q0.639 0.370 0.776 0.420" stroke="hsl(0.0,100%,35%)" stroke-width="0.00146"></path>
<path d="M0.707 0.292 Q1.132 0.520 1.671 0.363" stroke="hsl(0.0,100%,35%)" stroke-width="0.00024"></path>
<path d="M0.707 0.292 Q0.625 0.517 1.047 0.607" stroke="hsl(0.0,100%,35%)" stroke-width="0.00683"></path>
<path d="M0.707 0.292 Q1.323 0.507 1.878 0.254" stroke="hsl(0.0,100%,35%)" stroke-width="0.00049"></path>
<path d="M0.707 0.292 Q0.451 0.382 0.570 0.526" stroke="hsl(0.0,100%,35%)" stroke-width="0.00073"></path>
<path d="M0.707 0.292 Q0.832 0.349 0.971 0.301" stroke="hsl(0.0,100%,35%)" stroke-width="0.00049"></path>
<path d="M0.707 0.292 Q0.586 0.248 0.475 0.298" stroke="hsl(0.0,100%,35%)" stroke-width="0.00683"></path>
<path d="M0.707 0.292 Q0.781 0.627 1.452 0.665" stroke="hsl(0.0,100%,35%)" stroke-width="0.00219"></path>
<path d="M0.707 0.292 Q0.559 0.298 0.539 0.372" stroke="hsl(0.0,100%,35%)" stroke-width="0.00024"></path>
<path d="M0.707 0.292 Q0.515 0.335 0.557 0.438" stroke="hsl(0.0,100%,35%)" stroke-width="0.00146"></path>
<path d="M0.707 0.292 Q0.466 0.358 0.543 0.490" stroke="hsl(0.0,100%,35%)" stroke-width="0.00049"></path>
<path d="M0.707 0.292 Q0.731 0.204 0.566 0.174" stroke="hsl(0.0,100%,35%)" stroke-width="0.00024"></path>
<path d="M0.707 0.292 Q0.188 0.481 0.442 0.775" stroke="hsl(0.0,100%,35%)" stroke-width="0.00024"></path>
<path d="M0.707 0.292 Q0.615 0.144 0.306 0.157" stroke="hsl(0.0,100%,35%)" stroke-width="0.00122"></path>
<path d="M0.707 0.292 Q0.798 0.189 0.617 0.122" stroke="hsl(0.0,100%,35%)" stroke-width="0.00024"></path>
<path d="M0.361 0.374 Q0.321 0.434 0.428 0.467" stroke="hsl(0.0,100%,35%)" stroke-width="0.00415"></path>
<path d="M0.361 0.374 Q0.600 0.402 0.707 0.292" stroke="hsl(0.0,100%,35%)" stroke-width="0.07268"></path>
<path d="M0.361 0.374 Q0.424 0.508 0.698 0.507" stroke="hsl(0.0,100%,35%)" stroke-width="0.05097"></path>
<path d="M0.361 0.374 Q0.674 0.738 1.452 0.665" stroke="hsl(0.0,100%,35%)" stroke-width="0.00463"></path>
<path d="M0.361 0.374 Q0.518 0.628 1.047 0.607" stroke="hsl(0.0,100%,35%)" stroke-width="0.00244"></path>
<path d="M0.361 0.374 Q0.696 0.051 0.140 -0.183" stroke="hsl(0.0,100%,35%)" stroke-width="0.00049"></path>
<path d="M0.361 0.374 Q0.479 0.359 0.475 0.298" stroke="hsl(0.0,100%,35%)" stroke-width="0.00317"></path>
<path d="M0.361 0.374 Q0.821 0.584 1.332 0.406" stroke="hsl(0.0,100%,35%)" stroke-width="0.00122"></path>
<path d="M0.361 0.374 Q0.532 0.480 0.776 0.420" stroke="hsl(0.0,100%,35%)" stroke-width="0.01073"></path>
<path d="M0.361 0.374 Q0.725 0.460 0.971 0.301" stroke="hsl(0.0,100%,35%)" stroke-width="0.00024"></path>
<path d="M0.361 0.374 Q0.756 0.287 0.672 0.075" stroke="hsl(0.0,100%,35%)" stroke-width="0.00073"></path>
<path d="M0.361 0.374 Q0.445 0.721 1.141 0.756" stroke="hsl(0.0,100%,35%)" stroke-width="0.00024"></path>
<path d="M0.361 0.374 Q0.878 0.348 0.941 0.091" stroke="hsl(0.0,100%,35%)" stroke-width="0.00024"></path>
<path d="M0.361 0.374 Q1.555 -0.390 0.326 -1.140" stroke="hsl(0.0,100%,35%)" stroke-width="0.00024"></path>
<path d="M0.361 0.374 Q0.508 0.254 0.306 0.157" stroke="hsl(0.0,100%,35%)" stroke-width="0.00073"></path>
<path d="M0.361 0.374 Q0.389 0.250 0.153 0.210" stroke="hsl(0.0,100%,35%)" stroke-width="0.00024"></path>
<path d="M0.361 0.374 Q1.216 0.617 1.878 0.254" stroke="hsl(0.0,100%,35%)" stroke-width="0.00146"></path>
<path d="M0.361 0.374 Q0.314 0.576 0.697 0.644" stroke="hsl(0.0,100%,35%)" stroke-width="0.00024"></path>
<path d="M0.361 0.374 Q0.719 -0.004 0.060 -0.262" stroke="hsl(0.0,100%,35%)" stroke-width="0.00049"></path>
<path d="M0.361 0.374 Q-0.025 0.491 0.119 0.706" stroke="hsl(0.0,100%,35%)" stroke-width="0.00024"></path>
<path d="M0.361 0.374 Q0.601 0.154 0.224 -0.011" stroke="hsl(0.0,100%,35%)" stroke-width="0.00024"></path>
<path d="M0.361 0.374 Q0.035 0.424 0.061 0.594" stroke="hsl(0.0,100%,35%)" stroke-width="0.00024"></path>
<path d="M0.361 0.374 Q1.115 0.583 1.688 0.261" stroke="hsl(0.0,100%,35%)" stroke-width="0.00024"></path>
<path d="M0.776 0.420 Q0.844 0.342 0.707 0.292" stroke="hsl(0.0,100%,35%)" stroke-width="0.01634"></path>
<path d="M0.776 0.420 Q0.752 0.194 0.306 0.157" stroke="hsl(0.0,100%,35%)" stroke-width="0.00024"></path>
<path d="M0.776 0.420 Q0.668 0.448 0.698 0.507" stroke="hsl(0.0,100%,35%)" stroke-width="0.01073"></path>
<path d="M0.776 0.420 Q0.918 0.678 1.452 0.665" stroke="hsl(0.0,100%,35%)" stroke-width="0.00585"></path>
<path d="M0.776 0.420 Q0.606 0.314 0.361 0.374" stroke="hsl(0.0,100%,35%)" stroke-width="0.01219"></path>
<path d="M0.776 0.420 Q1.065 0.524 1.332 0.406" stroke="hsl(0.0,100%,35%)" stroke-width="0.00171"></path>
<path d="M0.776 0.420 Q0.762 0.568 1.047 0.607" stroke="hsl(0.0,100%,35%)" stroke-width="0.00073"></path>
<path d="M1.878 0.254 Q1.969 0.192 1.868 0.134" stroke="hsl(0.0,100%,35%)" stroke-width="0.00024"></path>
<path d="M1.878 0.254 Q1.262 0.039 0.707 0.292" stroke="hsl(0.0,100%,35%)" stroke-width="0.00171"></path>
<path d="M1.878 0.254 Q1.023 0.011 0.361 0.374" stroke="hsl(0.0,100%,35%)" stroke-width="0.00244"></path>
<path d="M1.878 0.254 Q1.086 0.144 0.698 0.507" stroke="hsl(0.0,100%,35%)" stroke-width="0.00024"></path>
<path d="M1.878 0.254 Q1.141 -0.005 0.475 0.298" stroke="hsl(0.0,100%,35%)" stroke-width="0.00098"></path>
<path d="M1.878 0.254 Q0.983 0.070 0.428 0.467" stroke="hsl(0.0,100%,35%)" stroke-width="0.00098"></path>
<path d="M1.878 0.254 Q1.802 0.331 1.936 0.385" stroke="hsl(0.0,100%,35%)" stroke-width="0.00024"></path>
<path d="M1.878 0.254 Q1.483 0.221 1.332 0.406" stroke="hsl(0.0,100%,35%)" stroke-width="0.00049"></path>
<path d="M1.878 0.254 Q1.180 0.264 1.047 0.607" stroke="hsl(0.0,100%,35%)" stroke-width="0.00073"></path>
<path d="M0.795 0.544 Q0.952 0.400 0.707 0.292" stroke="hsl(0.0,100%,35%)" stroke-width="0.00122"></path>
<path d="M0.795 0.544 Q0.638 0.504 0.526 0.572" stroke="hsl(0.0,100%,35%)" stroke-width="0.00122"></path>
<path d="M0.795 0.544 Q0.870 0.626 1.047 0.607" stroke="hsl(0.0,100%,35%)" stroke-width="0.00049"></path>
<path d="M1.047 0.607 Q0.893 0.652 0.948 0.737" stroke="hsl(0.0,100%,35%)" stroke-width="0.00024"></path>
<path d="M1.047 0.607 Q0.890 0.353 0.361 0.374" stroke="hsl(0.0,100%,35%)" stroke-width="0.00195"></path>
<path d="M1.047 0.607 Q0.952 0.487 0.698 0.507" stroke="hsl(0.0,100%,35%)" stroke-width="0.00098"></path>
<path d="M1.047 0.607 Q1.129 0.382 0.707 0.292" stroke="hsl(0.0,100%,35%)" stroke-width="0.00634"></path>
<path d="M1.047 0.607 Q0.974 0.700 1.141 0.756" stroke="hsl(0.0,100%,35%)" stroke-width="0.00195"></path>
<path d="M1.047 0.607 Q0.917 0.230 0.153 0.210" stroke="hsl(0.0,100%,35%)" stroke-width="0.00024"></path>
<path d="M1.047 0.607 Q1.008 0.338 0.475 0.298" stroke="hsl(0.0,100%,35%)" stroke-width="0.00341"></path>
<path d="M1.047 0.607 Q0.795 0.421 0.378 0.503" stroke="hsl(0.0,100%,35%)" stroke-width="0.00024"></path>
<path d="M1.047 0.607 Q0.849 0.413 0.428 0.467" stroke="hsl(0.0,100%,35%)" stroke-width="0.00073"></path>
<path d="M1.047 0.607 Q0.869 0.551 0.721 0.626" stroke="hsl(0.0,100%,35%)" stroke-width="0.00024"></path>
<path d="M1.047 0.607 Q1.745 0.597 1.878 0.254" stroke="hsl(0.0,100%,35%)" stroke-width="0.00098"></path>
<path d="M1.047 0.607 Q1.061 0.459 0.776 0.420" stroke="hsl(0.0,100%,35%)" stroke-width="0.00049"></path>
<path d="M0.268 0.482 Q0.640 0.475 0.707 0.292" stroke="hsl(0.0,100%,35%)" stroke-width="0.00146"></path>
<path d="M0.268 0.482 Q0.401 0.447 0.361 0.374" stroke="hsl(0.0,100%,35%)" stroke-width="0.00098"></path>
<path d="M0.268 0.482 Q0.463 0.581 0.698 0.507" stroke="hsl(0.0,100%,35%)" stroke-width="0.00024"></path>
<path d="M0.268 0.482 Q0.558 0.700 1.047 0.607" stroke="hsl(0.0,100%,35%)" stroke-width="0.00024"></path>
<path d="M0.698 0.507 Q1.095 0.583 1.332 0.406" stroke="hsl(0.0,100%,35%)" stroke-width="0.00951"></path>
<path d="M0.698 0.507 Q0.948 0.737 1.452 0.665" stroke="hsl(0.0,100%,35%)" stroke-width="0.00171"></path>
<path d="M0.698 0.507 Q0.636 0.373 0.361 0.374" stroke="hsl(0.0,100%,35%)" stroke-width="0.00902"></path>
<path d="M0.698 0.507 Q0.874 0.401 0.707 0.292" stroke="hsl(0.0,100%,35%)" stroke-width="0.01829"></path>
<path d="M0.698 0.507 Q0.644 0.428 0.479 0.437" stroke="hsl(0.0,100%,35%)" stroke-width="0.00024"></path>
<path d="M0.698 0.507 Q0.806 0.479 0.776 0.420" stroke="hsl(0.0,100%,35%)" stroke-width="0.00366"></path>
<path d="M0.698 0.507 Q0.792 0.627 1.047 0.607" stroke="hsl(0.0,100%,35%)" stroke-width="0.00366"></path>
<path d="M0.698 0.507 Q0.515 0.522 0.506 0.615" stroke="hsl(0.0,100%,35%)" stroke-width="0.00049"></path>
<path d="M0.698 0.507 Q0.595 0.433 0.428 0.467" stroke="hsl(0.0,100%,35%)" stroke-width="0.00073"></path>
<path d="M0.698 0.507 Q1.030 0.286 0.672 0.075" stroke="hsl(0.0,100%,35%)" stroke-width="0.00024"></path>
<path d="M0.579 0.308 Q0.564 0.178 0.306 0.157" stroke="hsl(0.0,100%,35%)" stroke-width="0.00024"></path>
<path d="M0.579 0.308 Q0.417 0.298 0.361 0.374" stroke="hsl(0.0,100%,35%)" stroke-width="0.00390"></path>
<path d="M0.579 0.308 Q0.480 0.431 0.698 0.507" stroke="hsl(0.0,100%,35%)" stroke-width="0.00171"></path>
<path d="M0.579 0.308 Q0.656 0.326 0.707 0.292" stroke="hsl(0.0,100%,35%)" stroke-width="0.00366"></path>
<path d="M0.306 0.157 Q0.160 0.276 0.361 0.374" stroke="hsl(0.0,100%,35%)" stroke-width="0.01902"></path>
<path d="M0.306 0.157 Q0.222 0.410 0.698 0.507" stroke="hsl(0.0,100%,35%)" stroke-width="0.00146"></path>
<path d="M0.306 0.157 Q0.398 0.304 0.707 0.292" stroke="hsl(0.0,100%,35%)" stroke-width="0.01927"></path>
<path d="M0.306 0.157 Q0.330 0.382 0.776 0.420" stroke="hsl(0.0,100%,35%)" stroke-width="0.00024"></path>
<path d="M0.306 0.157 Q0.316 0.530 1.047 0.607" stroke="hsl(0.0,100%,35%)" stroke-width="0.00049"></path>
<path d="M0.835 0.705 Q1.019 0.698 1.047 0.607" stroke="hsl(0.0,100%,35%)" stroke-width="0.00024"></path>
<path d="M0.835 0.705 Q1.101 0.473 0.707 0.292" stroke="hsl(0.0,100%,35%)" stroke-width="0.00024"></path>
<path d="M0.835 0.705 Q0.862 0.445 0.361 0.374" stroke="hsl(0.0,100%,35%)" stroke-width="0.00024"></path>
<path d="M1.452 0.665 Q1.148 0.356 0.479 0.437" stroke="hsl(0.0,100%,35%)" stroke-width="0.00024"></path>
<path d="M1.452 0.665 Q1.019 0.451 0.506 0.615" stroke="hsl(0.0,100%,35%)" stroke-width="0.00024"></path>
<path d="M1.452 0.665 Q1.310 0.407 0.776 0.420" stroke="hsl(0.0,100%,35%)" stroke-width="0.00073"></path>
<path d="M1.452 0.665 Q1.139 0.301 0.361 0.374" stroke="hsl(0.0,100%,35%)" stroke-width="0.00537"></path>
<path d="M1.452 0.665 Q1.503 0.387 0.971 0.301" stroke="hsl(0.0,100%,35%)" stroke-width="0.00024"></path>
<path d="M1.452 0.665 Q1.202 0.435 0.698 0.507" stroke="hsl(0.0,100%,35%)" stroke-width="0.00317"></path>
<path d="M1.452 0.665 Q1.378 0.330 0.707 0.292" stroke="hsl(0.0,100%,35%)" stroke-width="0.00317"></path>
<path d="M1.452 0.665 Q1.386 0.444 0.941 0.427" stroke="hsl(0.0,100%,35%)" stroke-width="0.00024"></path>
<path d="M1.452 0.665 Q1.099 0.361 0.428 0.467" stroke="hsl(0.0,100%,35%)" stroke-width="0.00195"></path>
<path d="M1.452 0.665 Q1.599 0.511 1.332 0.406" stroke="hsl(0.0,100%,35%)" stroke-width="0.00317"></path>
<path d="M1.452 0.665 Q1.296 0.555 1.047 0.607" stroke="hsl(0.0,100%,35%)" stroke-width="0.00073"></path>
<path d="M1.452 0.665 Q1.398 0.740 1.534 0.783" stroke="hsl(0.0,100%,35%)" stroke-width="0.00073"></path>
<path d="M1.452 0.665 Q1.309 0.500 0.955 0.533" stroke="hsl(0.0,100%,35%)" stroke-width="0.00024"></path>
<path d="M1.452 0.665 Q1.994 0.545 1.878 0.254" stroke="hsl(0.0,100%,35%)" stroke-width="0.00024"></path>
<path d="M1.332 0.406 Q1.185 0.559 1.452 0.665" stroke="hsl(0.0,100%,35%)" stroke-width="0.00024"></path>
<path d="M1.332 0.406 Q1.111 0.224 0.707 0.292" stroke="hsl(0.0,100%,35%)" stroke-width="0.02171"></path>
<path d="M1.332 0.406 Q0.934 0.330 0.698 0.507" stroke="hsl(0.0,100%,35%)" stroke-width="0.01805"></path>
<path d="M1.332 0.406 Q0.872 0.196 0.361 0.374" stroke="hsl(0.0,100%,35%)" stroke-width="0.00293"></path>
<path d="M1.332 0.406 Q1.235 0.281 0.971 0.301" stroke="hsl(0.0,100%,35%)" stroke-width="0.00073"></path>
<path d="M1.332 0.406 Q0.831 0.256 0.428 0.467" stroke="hsl(0.0,100%,35%)" stroke-width="0.00049"></path>
<path d="M1.332 0.406 Q1.601 0.290 1.433 0.133" stroke="hsl(0.0,100%,35%)" stroke-width="0.00024"></path>
<path d="M1.332 0.406 Q1.019 0.076 0.306 0.157" stroke="hsl(0.0,100%,35%)" stroke-width="0.00049"></path>
<path d="M1.332 0.406 Q1.043 0.302 0.776 0.420" stroke="hsl(0.0,100%,35%)" stroke-width="0.00049"></path>
<path d="M1.332 0.406 Q1.293 0.458 1.386 0.488" stroke="hsl(0.0,100%,35%)" stroke-width="0.00024"></path>
<path d="M0.077 0.392 Q0.472 0.468 0.707 0.292" stroke="hsl(0.0,100%,35%)" stroke-width="0.00098"></path>
<path d="M0.077 0.392 Q0.233 0.440 0.361 0.374" stroke="hsl(0.0,100%,35%)" stroke-width="0.00122"></path>
<path d="M0.077 0.392 Q0.261 0.316 0.153 0.210" stroke="hsl(0.0,100%,35%)" stroke-width="0.00024"></path>
<path d="M0.077 0.392 Q0.296 0.574 0.698 0.507" stroke="hsl(0.0,100%,35%)" stroke-width="0.00024"></path>
<path d="M0.971 0.301 Q1.068 0.426 1.332 0.406" stroke="hsl(0.0,100%,35%)" stroke-width="0.00024"></path>
<path d="M0.971 0.301 Q0.847 0.244 0.707 0.292" stroke="hsl(0.0,100%,35%)" stroke-width="0.00439"></path>
<path d="M0.971 0.301 Q0.778 0.322 0.776 0.420" stroke="hsl(0.0,100%,35%)" stroke-width="0.00366"></path>
<path d="M0.971 0.301 Q0.608 0.216 0.361 0.374" stroke="hsl(0.0,100%,35%)" stroke-width="0.00244"></path>
<path d="M0.971 0.301 Q0.670 0.349 0.698 0.507" stroke="hsl(0.0,100%,35%)" stroke-width="0.00171"></path>
<path d="M0.428 0.467 Q0.707 0.435 0.707 0.292" stroke="hsl(0.0,100%,35%)" stroke-width="0.01244"></path>
<path d="M0.428 0.467 Q0.469 0.407 0.361 0.374" stroke="hsl(0.0,100%,35%)" stroke-width="0.00146"></path>
<path d="M0.428 0.467 Q0.531 0.541 0.698 0.507" stroke="hsl(0.0,100%,35%)" stroke-width="0.00024"></path>
<path d="M0.428 0.467 Q0.781 0.771 1.452 0.665" stroke="hsl(0.0,100%,35%)" stroke-width="0.00098"></path>
<path d="M0.428 0.467 Q0.586 0.392 0.475 0.298" stroke="hsl(0.0,100%,35%)" stroke-width="0.00073"></path>
<path d="M0.428 0.467 Q0.985 0.381 0.941 0.091" stroke="hsl(0.0,100%,35%)" stroke-width="0.00024"></path>
<path d="M0.428 0.467 Q0.518 0.624 0.845 0.615" stroke="hsl(0.0,100%,35%)" stroke-width="0.00024"></path>
<path d="M0.466 0.184 Q0.501 0.286 0.707 0.292" stroke="hsl(0.0,100%,35%)" stroke-width="0.00049"></path>
<path d="M0.466 0.184 Q0.262 0.258 0.361 0.374" stroke="hsl(0.0,100%,35%)" stroke-width="0.00049"></path>
<path d="M0.466 0.184 Q0.221 0.318 0.428 0.467" stroke="hsl(0.0,100%,35%)" stroke-width="0.00024"></path>
<path d="M1.141 0.756 Q1.295 0.438 0.707 0.292" stroke="hsl(0.0,100%,35%)" stroke-width="0.00415"></path>
<path d="M1.141 0.756 Q1.057 0.409 0.361 0.374" stroke="hsl(0.0,100%,35%)" stroke-width="0.00415"></path>
<path d="M1.141 0.756 Q1.213 0.663 1.047 0.607" stroke="hsl(0.0,100%,35%)" stroke-width="0.00585"></path>
<path d="M1.141 0.756 Q1.174 0.394 0.475 0.298" stroke="hsl(0.0,100%,35%)" stroke-width="0.00195"></path>
<path d="M1.141 0.756 Q1.911 0.653 1.878 0.254" stroke="hsl(0.0,100%,35%)" stroke-width="0.00024"></path>
<path d="M0.475 0.298 Q0.596 0.342 0.707 0.292" stroke="hsl(0.0,100%,35%)" stroke-width="0.00537"></path>
<path d="M0.475 0.298 Q0.357 0.313 0.361 0.374" stroke="hsl(0.0,100%,35%)" stroke-width="0.00293"></path>
<path d="M0.475 0.298 Q0.316 0.373 0.428 0.467" stroke="hsl(0.0,100%,35%)" stroke-width="0.00122"></path>
<path d="M0.475 0.298 Q0.514 0.567 1.047 0.607" stroke="hsl(0.0,100%,35%)" stroke-width="0.00268"></path>
<path d="M0.475 0.298 Q1.105 0.478 1.594 0.209" stroke="hsl(0.0,100%,35%)" stroke-width="0.00073"></path>
<path d="M0.475 0.298 Q1.212 0.557 1.878 0.254" stroke="hsl(0.0,100%,35%)" stroke-width="0.00073"></path>
<path d="M0.475 0.298 Q0.419 0.447 0.698 0.507" stroke="hsl(0.0,100%,35%)" stroke-width="0.00024"></path>
<path d="M0.475 0.298 Q0.817 0.524 1.332 0.406" stroke="hsl(0.0,100%,35%)" stroke-width="0.00049"></path>
<path d="M0.378 0.503 Q0.712 0.464 0.707 0.292" stroke="hsl(0.0,100%,35%)" stroke-width="0.00707"></path>
<path d="M0.378 0.503 Q1.327 0.679 1.878 0.254" stroke="hsl(0.0,100%,35%)" stroke-width="0.00317"></path>
<path d="M0.378 0.503 Q1.418 0.617 1.868 0.134" stroke="hsl(0.0,100%,35%)" stroke-width="0.00024"></path>
<path d="M0.378 0.503 Q0.473 0.435 0.361 0.374" stroke="hsl(0.0,100%,35%)" stroke-width="0.00073"></path>
<path d="M0.378 0.503 Q0.629 0.689 1.047 0.607" stroke="hsl(0.0,100%,35%)" stroke-width="0.00219"></path>
<path d="M0.378 0.503 Q0.146 0.485 0.061 0.594" stroke="hsl(0.0,100%,35%)" stroke-width="0.00098"></path>
<path d="M0.378 0.503 Q0.590 0.420 0.475 0.298" stroke="hsl(0.0,100%,35%)" stroke-width="0.00049"></path>
<path d="M0.721 0.626 Q0.743 0.428 0.361 0.374" stroke="hsl(0.0,100%,35%)" stroke-width="0.00049"></path>
<path d="M0.721 0.626 Q0.702 0.487 0.428 0.467" stroke="hsl(0.0,100%,35%)" stroke-width="0.00024"></path>
<path d="M0.721 0.626 Q0.899 0.681 1.047 0.607" stroke="hsl(0.0,100%,35%)" stroke-width="0.00073"></path>
<path d="M0.557 0.438 Q0.970 0.577 1.332 0.406" stroke="hsl(0.0,100%,35%)" stroke-width="0.02244"></path>
<path d="M0.557 0.438 Q0.749 0.395 0.707 0.292" stroke="hsl(0.0,100%,35%)" stroke-width="0.03219"></path>
<path d="M0.557 0.438 Q0.572 0.501 0.698 0.507" stroke="hsl(0.0,100%,35%)" stroke-width="0.00098"></path>
<path d="M0.557 0.438 Q0.628 0.352 0.475 0.298" stroke="hsl(0.0,100%,35%)" stroke-width="0.00024"></path>
<path d="M0.557 0.438 Q0.510 0.367 0.361 0.374" stroke="hsl(0.0,100%,35%)" stroke-width="0.00024"></path>
<path d="M0.557 0.438 Q0.667 0.621 1.047 0.607" stroke="hsl(0.0,100%,35%)" stroke-width="0.00049"></path>
<path d="M1.594 0.209 Q1.085 0.073 0.707 0.292" stroke="hsl(0.0,100%,35%)" stroke-width="0.00293"></path>
<path d="M1.594 0.209 Q1.701 0.288 1.878 0.254" stroke="hsl(0.0,100%,35%)" stroke-width="0.00902"></path>
<path d="M1.594 0.209 Q0.846 0.045 0.361 0.374" stroke="hsl(0.0,100%,35%)" stroke-width="0.00439"></path>
<path d="M1.594 0.209 Q1.791 0.227 1.868 0.134" stroke="hsl(0.0,100%,35%)" stroke-width="0.00122"></path>
<path d="M1.594 0.209 Q0.805 0.105 0.428 0.467" stroke="hsl(0.0,100%,35%)" stroke-width="0.00098"></path>
<path d="M1.594 0.209 Q0.964 0.030 0.475 0.298" stroke="hsl(0.0,100%,35%)" stroke-width="0.00073"></path>
<path d="M1.594 0.209 Q1.003 0.299 1.047 0.607" stroke="hsl(0.0,100%,35%)" stroke-width="0.00049"></path>
<path d="M1.594 0.209 Q1.575 0.139 1.433 0.133" stroke="hsl(0.0,100%,35%)" stroke-width="0.00024"></path>
<path d="M1.868 0.134 Q1.777 0.196 1.878 0.254" stroke="hsl(0.0,100%,35%)" stroke-width="0.00390"></path>
<path d="M1.868 0.134 Q0.828 0.021 0.378 0.503" stroke="hsl(0.0,100%,35%)" stroke-width="0.00073"></path>
<path d="M1.868 0.134 Q1.671 0.117 1.594 0.209" stroke="hsl(0.0,100%,35%)" stroke-width="0.00219"></path>
<path d="M1.868 0.134 Q0.985 0.086 0.698 0.507" stroke="hsl(0.0,100%,35%)" stroke-width="0.00024"></path>
<path d="M1.868 0.134 Q1.079 0.206 1.047 0.607" stroke="hsl(0.0,100%,35%)" stroke-width="0.00146"></path>
<path d="M1.868 0.134 Q1.040 -0.063 0.475 0.298" stroke="hsl(0.0,100%,35%)" stroke-width="0.00195"></path>
<path d="M1.868 0.134 Q0.596 0.003 0.061 0.594" stroke="hsl(0.0,100%,35%)" stroke-width="0.00049"></path>
<path d="M1.868 0.134 Q0.923 -0.047 0.361 0.374" stroke="hsl(0.0,100%,35%)" stroke-width="0.00024"></path>
<path d="M0.793 0.202 Q0.610 0.308 0.776 0.420" stroke="hsl(0.0,100%,35%)" stroke-width="0.00073"></path>
<path d="M0.793 0.202 Q0.439 0.202 0.361 0.374" stroke="hsl(0.0,100%,35%)" stroke-width="0.00049"></path>
<path d="M0.793 0.202 Q0.803 0.287 0.971 0.301" stroke="hsl(0.0,100%,35%)" stroke-width="0.00024"></path>
<path d="M0.793 0.202 Q0.899 0.412 1.332 0.406" stroke="hsl(0.0,100%,35%)" stroke-width="0.00024"></path>
<path d="M0.978 0.043 Q0.405 0.085 0.361 0.374" stroke="hsl(0.0,100%,35%)" stroke-width="0.00024"></path>
<path d="M0.978 0.043 Q0.921 0.060 0.941 0.091" stroke="hsl(0.0,100%,35%)" stroke-width="0.00049"></path>
<path d="M0.978 0.043 Q0.644 0.114 0.707 0.292" stroke="hsl(0.0,100%,35%)" stroke-width="0.00024"></path>
<path d="M0.506 0.615 Q0.783 0.719 1.047 0.607" stroke="hsl(0.0,100%,35%)" stroke-width="0.00098"></path>
<path d="M0.506 0.615 Q0.865 0.494 0.707 0.292" stroke="hsl(0.0,100%,35%)" stroke-width="0.00073"></path>
<path d="M0.506 0.615 Q0.626 0.466 0.361 0.374" stroke="hsl(0.0,100%,35%)" stroke-width="0.00049"></path>
<path d="M0.506 0.615 Q0.688 0.599 0.698 0.507" stroke="hsl(0.0,100%,35%)" stroke-width="0.00122"></path>
<path d="M0.506 0.615 Q0.346 0.682 0.442 0.775" stroke="hsl(0.0,100%,35%)" stroke-width="0.00024"></path>
<path d="M0.506 0.615 Q1.086 0.676 1.332 0.406" stroke="hsl(0.0,100%,35%)" stroke-width="0.00024"></path>
<path d="M0.506 0.615 Q0.939 0.829 1.452 0.665" stroke="hsl(0.0,100%,35%)" stroke-width="0.00024"></path>
<path d="M0.941 0.427 Q1.057 0.370 0.971 0.301" stroke="hsl(0.0,100%,35%)" stroke-width="0.00024"></path>
<path d="M0.941 0.427 Q0.694 0.285 0.361 0.374" stroke="hsl(0.0,100%,35%)" stroke-width="0.00171"></path>
<path d="M0.941 0.427 Q0.864 0.391 0.776 0.420" stroke="hsl(0.0,100%,35%)" stroke-width="0.00024"></path>
<path d="M0.941 0.427 Q1.153 0.495 1.332 0.406" stroke="hsl(0.0,100%,35%)" stroke-width="0.00098"></path>
<path d="M0.941 0.427 Q0.756 0.418 0.698 0.507" stroke="hsl(0.0,100%,35%)" stroke-width="0.00122"></path>
<path d="M0.941 0.427 Q0.932 0.313 0.707 0.292" stroke="hsl(0.0,100%,35%)" stroke-width="0.00122"></path>
<path d="M0.941 0.427 Q0.850 0.538 1.047 0.607" stroke="hsl(0.0,100%,35%)" stroke-width="0.00024"></path>
<path d="M0.941 0.427 Q1.006 0.648 1.452 0.665" stroke="hsl(0.0,100%,35%)" stroke-width="0.00024"></path>
<path d="M1.534 0.783 Q1.587 0.708 1.452 0.665" stroke="hsl(0.0,100%,35%)" stroke-width="0.00122"></path>
<path d="M1.534 0.783 Q1.275 0.344 0.361 0.374" stroke="hsl(0.0,100%,35%)" stroke-width="0.00024"></path>
<path d="M1.534 0.783 Q1.284 0.839 1.339 0.973" stroke="hsl(0.0,100%,35%)" stroke-width="0.00024"></path>
<path d="M1.534 0.783 Q1.513 0.372 0.707 0.292" stroke="hsl(0.0,100%,35%)" stroke-width="0.00024"></path>
<path d="M1.534 0.783 Q1.734 0.554 1.332 0.406" stroke="hsl(0.0,100%,35%)" stroke-width="0.00049"></path>
<path d="M0.955 0.533 Q1.024 0.363 0.707 0.292" stroke="hsl(0.0,100%,35%)" stroke-width="0.00049"></path>
<path d="M0.955 0.533 Q0.786 0.335 0.361 0.374" stroke="hsl(0.0,100%,35%)" stroke-width="0.00024"></path>
<path d="M0.955 0.533 Q0.942 0.588 1.047 0.607" stroke="hsl(0.0,100%,35%)" stroke-width="0.00049"></path>
<path d="M0.422 0.193 Q0.246 0.271 0.361 0.374" stroke="hsl(0.0,100%,35%)" stroke-width="0.00244"></path>
<path d="M0.422 0.193 Q0.485 0.299 0.707 0.292" stroke="hsl(0.0,100%,35%)" stroke-width="0.00195"></path>
<path d="M0.422 0.193 Q0.559 0.635 1.452 0.665" stroke="hsl(0.0,100%,35%)" stroke-width="0.00024"></path>
<path d="M0.422 0.193 Q0.403 0.525 1.047 0.607" stroke="hsl(0.0,100%,35%)" stroke-width="0.00073"></path>
<path d="M1.688 0.261 Q1.172 0.080 0.707 0.292" stroke="hsl(0.0,100%,35%)" stroke-width="0.00024"></path>
<path d="M1.688 0.261 Q1.788 0.295 1.878 0.254" stroke="hsl(0.0,100%,35%)" stroke-width="0.00073"></path>
<path d="M1.688 0.261 Q0.934 0.052 0.361 0.374" stroke="hsl(0.0,100%,35%)" stroke-width="0.00049"></path>
<path d="M0.697 0.644 Q0.983 0.470 0.707 0.292" stroke="hsl(0.0,100%,35%)" stroke-width="0.00098"></path>
<path d="M0.697 0.644 Q0.745 0.442 0.361 0.374" stroke="hsl(0.0,100%,35%)" stroke-width="0.00024"></path>
<path d="M0.697 0.644 Q0.901 0.695 1.047 0.607" stroke="hsl(0.0,100%,35%)" stroke-width="0.00049"></path>
<path d="M1.671 0.363 Q1.467 0.317 1.332 0.406" stroke="hsl(0.0,100%,35%)" stroke-width="0.01634"></path>
<path d="M1.671 0.363 Q1.246 0.135 0.707 0.292" stroke="hsl(0.0,100%,35%)" stroke-width="0.01805"></path>
<path d="M1.671 0.363 Q1.070 0.240 0.698 0.507" stroke="hsl(0.0,100%,35%)" stroke-width="0.00049"></path>
<path d="M1.671 0.363 Q1.007 0.107 0.361 0.374" stroke="hsl(0.0,100%,35%)" stroke-width="0.00122"></path>
<path d="M1.671 0.363 Q1.154 -0.013 0.306 0.157" stroke="hsl(0.0,100%,35%)" stroke-width="0.00024"></path>
<path d="M1.671 0.363 Q1.164 0.360 1.047 0.607" stroke="hsl(0.0,100%,35%)" stroke-width="0.00024"></path>
<path d="M1.281 0.486 Q1.371 0.456 1.332 0.406" stroke="hsl(0.0,100%,35%)" stroke-width="0.01000"></path>
<path d="M1.281 0.486 Q1.150 0.274 0.707 0.292" stroke="hsl(0.0,100%,35%)" stroke-width="0.01146"></path>
<path d="M1.281 0.486 Q1.067 0.500 1.047 0.607" stroke="hsl(0.0,100%,35%)" stroke-width="0.00024"></path>
<path d="M0.185 0.568 Q0.584 0.760 1.047 0.607" stroke="hsl(0.0,100%,35%)" stroke-width="0.00024"></path>
<path d="M0.185 0.568 Q0.667 0.534 0.707 0.292" stroke="hsl(0.0,100%,35%)" stroke-width="0.00024"></path>
<path d="M0.185 0.568 Q0.428 0.506 0.361 0.374" stroke="hsl(0.0,100%,35%)" stroke-width="0.00024"></path>
<path d="M0.185 0.568 Q0.490 0.640 0.698 0.507" stroke="hsl(0.0,100%,35%)" stroke-width="0.00024"></path>
<path d="M0.259 0.409 Q0.577 0.440 0.707 0.292" stroke="hsl(0.0,100%,35%)" stroke-width="0.00122"></path>
<path d="M0.259 0.409 Q0.456 0.397 0.475 0.298" stroke="hsl(0.0,100%,35%)" stroke-width="0.00049"></path>
<path d="M0.259 0.409 Q1.193 0.655 1.878 0.254" stroke="hsl(0.0,100%,35%)" stroke-width="0.00049"></path>
<path d="M0.741 0.153 Q0.545 0.294 0.776 0.420" stroke="hsl(0.0,100%,35%)" stroke-width="0.00024"></path>
<path d="M0.741 0.153 Q0.834 0.398 1.332 0.406" stroke="hsl(0.0,100%,35%)" stroke-width="0.00024"></path>
<path d="M0.741 0.153 Q0.334 0.247 0.428 0.467" stroke="hsl(0.0,100%,35%)" stroke-width="0.00024"></path>
<path d="M0.741 0.153 Q0.613 0.216 0.707 0.292" stroke="hsl(0.0,100%,35%)" stroke-width="0.00024"></path>
<path d="M0.741 0.153 Q0.375 0.188 0.361 0.374" stroke="hsl(0.0,100%,35%)" stroke-width="0.00024"></path>
<path d="M0.371 0.202 Q0.467 0.314 0.707 0.292" stroke="hsl(0.0,100%,35%)" stroke-width="0.00098"></path>
<path d="M0.371 0.202 Q0.229 0.286 0.361 0.374" stroke="hsl(0.0,100%,35%)" stroke-width="0.00219"></path>
<path d="M0.371 0.202 Q0.745 0.260 0.941 0.091" stroke="hsl(0.0,100%,35%)" stroke-width="0.00024"></path>
<path d="M0.371 0.202 Q0.385 0.539 1.047 0.607" stroke="hsl(0.0,100%,35%)" stroke-width="0.00024"></path>
<path d="M0.845 0.615 Q0.953 0.651 1.047 0.607" stroke="hsl(0.0,100%,35%)" stroke-width="0.00098"></path>
<path d="M0.845 0.615 Q1.393 0.425 1.141 0.116" stroke="hsl(0.0,100%,35%)" stroke-width="0.00024"></path>
<path d="M0.845 0.615 Q1.035 0.426 0.707 0.292" stroke="hsl(0.0,100%,35%)" stroke-width="0.00073"></path>
<path d="M0.845 0.615 Q0.796 0.398 0.361 0.374" stroke="hsl(0.0,100%,35%)" stroke-width="0.00024"></path>
<path d="M0.148 0.480 Q0.578 0.498 0.707 0.292" stroke="hsl(0.0,100%,35%)" stroke-width="0.00073"></path>
<path d="M0.148 0.480 Q0.339 0.469 0.361 0.374" stroke="hsl(0.0,100%,35%)" stroke-width="0.00122"></path>
<path d="M0.148 0.480 Q0.401 0.603 0.698 0.507" stroke="hsl(0.0,100%,35%)" stroke-width="0.00024"></path>
<path d="M0.585 0.679 Q0.676 0.541 0.428 0.467" stroke="hsl(0.0,100%,35%)" stroke-width="0.00073"></path>
<path d="M0.585 0.679 Q1.571 0.725 1.878 0.254" stroke="hsl(0.0,100%,35%)" stroke-width="0.00049"></path>
<path d="M0.585 0.679 Q0.873 0.735 1.047 0.607" stroke="hsl(0.0,100%,35%)" stroke-width="0.00098"></path>
<path d="M0.585 0.679 Q0.717 0.482 0.361 0.374" stroke="hsl(0.0,100%,35%)" stroke-width="0.00024"></path>
<path d="M0.331 0.058 Q0.250 0.476 1.047 0.607" stroke="hsl(0.0,100%,35%)" stroke-width="0.00049"></path>
<path d="M0.331 0.058 Q0.094 0.222 0.361 0.374" stroke="hsl(0.0,100%,35%)" stroke-width="0.00171"></path>
<path d="M0.331 0.058 Q0.332 0.250 0.707 0.292" stroke="hsl(0.0,100%,35%)" stroke-width="0.00195"></path>
<path d="M0.331 0.058 Q0.948 0.465 1.878 0.254" stroke="hsl(0.0,100%,35%)" stroke-width="0.00024"></path>
<path d="M0.331 0.058 Q1.039 0.403 1.868 0.134" stroke="hsl(0.0,100%,35%)" stroke-width="0.00024"></path>
<path d="M0.331 0.058 Q0.156 0.356 0.698 0.507" stroke="hsl(0.0,100%,35%)" stroke-width="0.00024"></path>
<path d="M0.672 0.075 Q0.516 0.191 0.707 0.292" stroke="hsl(0.0,100%,35%)" stroke-width="0.00293"></path>
<path d="M0.672 0.075 Q0.277 0.162 0.361 0.374" stroke="hsl(0.0,100%,35%)" stroke-width="0.00098"></path>
<path d="M0.672 0.075 Q0.395 0.147 0.475 0.298" stroke="hsl(0.0,100%,35%)" stroke-width="0.00073"></path>
<path d="M0.672 0.075 Q0.434 0.416 1.047 0.607" stroke="hsl(0.0,100%,35%)" stroke-width="0.00146"></path>
<path d="M0.672 0.075 Q1.132 0.406 1.878 0.254" stroke="hsl(0.0,100%,35%)" stroke-width="0.00024"></path>
<path d="M0.672 0.075 Q0.737 0.372 1.332 0.406" stroke="hsl(0.0,100%,35%)" stroke-width="0.00024"></path>
<path d="M0.453 0.164 Q0.478 0.279 0.707 0.292" stroke="hsl(0.0,100%,35%)" stroke-width="0.00098"></path>
<path d="M0.453 0.164 Q0.239 0.251 0.361 0.374" stroke="hsl(0.0,100%,35%)" stroke-width="0.00122"></path>
<path d="M0.453 0.164 Q0.386 0.131 0.306 0.157" stroke="hsl(0.0,100%,35%)" stroke-width="0.00024"></path>
<path d="M1.147 0.109 Q0.699 0.338 1.047 0.607" stroke="hsl(0.0,100%,35%)" stroke-width="0.00024"></path>
<path d="M1.147 0.109 Q1.139 0.111 1.141 0.116" stroke="hsl(0.0,100%,35%)" stroke-width="0.00024"></path>
<path d="M1.147 0.109 Q0.781 0.113 0.707 0.292" stroke="hsl(0.0,100%,35%)" stroke-width="0.00024"></path>
</g>
<text x="0.479" y="0.431" font-size="0.011105" fill="hsl(0.0,100%,20%)">abdolrashidi</text>
<text x="0.707" y="0.241" font-size="0.101573" fill="hsl(0.0,100%,20%)">jmadill</text>
<text x="0.361" y="0.333" font-size="0.082140" fill="hsl(0.0,100%,20%)">syoussefi</text>
<text x="0.776" y="0.400" font-size="0.041266" fill="hsl(0.0,100%,20%)">cclao</text>
<text x="1.878" y="0.240" font-size="0.027201" fill="hsl(0.0,100%,20%)">kbr</text>
<text x="0.795" y="0.540" font-size="0.008394" fill="hsl(0.0,100%,20%)">adkushwa</text>
<text x="0.526" y="0.569" font-size="0.005418" fill="hsl(0.0,100%,20%)">rafael.cintron</text>
<text x="1.047" y="0.588" font-size="0.036909" fill="hsl(0.0,100%,20%)">geofflang</text>
<text x="0.268" y="0.478" font-size="0.008394" fill="hsl(0.0,100%,20%)">amy.liu</text>
<text x="0.698" y="0.474" font-size="0.065067" fill="hsl(0.0,100%,20%)">timvp</text>
<text x="0.579" y="0.301" font-size="0.015133" fill="hsl(0.0,100%,20%)">b.schade</text>
<text x="0.306" y="0.140" font-size="0.032511" fill="hsl(0.0,100%,20%)">m.maiya</text>
<text x="0.835" y="0.702" font-size="0.004197" fill="hsl(0.0,100%,20%)">capn</text>
<text x="1.452" y="0.650" font-size="0.030266" fill="hsl(0.0,100%,20%)">ianelliott</text>
<text x="1.332" y="0.376" font-size="0.059257" fill="hsl(0.0,100%,20%)">cnorthrop</text>
<text x="0.077" y="0.388" font-size="0.008037" fill="hsl(0.0,100%,20%)">cheryl.wei</text>
<text x="0.153" y="0.208" font-size="0.004197" fill="hsl(0.0,100%,20%)">sunny.sun</text>
<text x="0.971" y="0.292" font-size="0.018770" fill="hsl(0.0,100%,20%)">lfy</text>
<text x="0.428" y="0.448" font-size="0.036830" fill="hsl(0.0,100%,20%)">ynovikov</text>
<text x="1.433" y="0.132" font-size="0.003427" fill="hsl(0.0,100%,20%)">bajones</text>
<text x="1.386" y="0.487" font-size="0.002423" fill="hsl(0.0,100%,20%)">paulthomson</text>
<text x="0.466" y="0.182" font-size="0.005418" fill="hsl(0.0,100%,20%)">cwallez</text>
<text x="0.948" y="0.736" font-size="0.002423" fill="hsl(0.0,100%,20%)">junov</text>
<text x="1.141" y="0.746" font-size="0.021125" fill="hsl(0.0,100%,20%)">penghuang</text>
<text x="0.475" y="0.283" font-size="0.029480" fill="hsl(0.0,100%,20%)">jonahr</text>
<text x="0.378" y="0.493" font-size="0.019537" fill="hsl(0.0,100%,20%)">lexa.knyazev</text>
<text x="0.721" y="0.623" font-size="0.006411" fill="hsl(0.0,100%,20%)">msisov</text>
<text x="0.557" y="0.419" font-size="0.037384" fill="hsl(0.0,100%,20%)">gert.wollny</text>
<text x="1.594" y="0.198" font-size="0.023494" fill="hsl(0.0,100%,20%)">gman</text>
<text x="1.868" y="0.125" font-size="0.017807" fill="hsl(0.0,100%,20%)">kpiddington</text>
<text x="0.793" y="0.199" font-size="0.006411" fill="hsl(0.0,100%,20%)">hailinzhang</text>
<text x="0.978" y="0.041" font-size="0.004846" fill="hsl(0.0,100%,20%)">hans</text>
<text x="0.941" y="0.088" font-size="0.005418" fill="hsl(0.0,100%,20%)">thakis</text>
<text x="0.506" y="0.609" font-size="0.010837" fill="hsl(0.0,100%,20%)">natsu</text>
<text x="0.941" y="0.421" font-size="0.012356" fill="hsl(0.0,100%,20%)">yuxinhu</text>
<text x="1.534" y="0.779" font-size="0.008737" fill="hsl(0.0,100%,20%)">mark</text>
<text x="0.955" y="0.530" font-size="0.005936" fill="hsl(0.0,100%,20%)">vantablack</text>
<text x="0.422" y="0.187" font-size="0.011366" fill="hsl(0.0,100%,20%)">j.vigil</text>
<text x="1.688" y="0.258" font-size="0.006411" fill="hsl(0.0,100%,20%)">jdarpinian</text>
<text x="0.697" y="0.640" font-size="0.006854" fill="hsl(0.0,100%,20%)">jgilbert</text>
<text x="1.671" y="0.348" font-size="0.029777" fill="hsl(0.0,100%,20%)">lubosz.sarnecki</text>
<text x="0.570" y="0.524" font-size="0.004197" fill="hsl(0.0,100%,20%)">bsheedy</text>
<text x="0.539" y="0.371" font-size="0.002423" fill="hsl(0.0,100%,20%)">brucedawson</text>
<text x="0.543" y="0.488" font-size="0.003427" fill="hsl(0.0,100%,20%)">tandrii</text>
<text x="0.566" y="0.172" font-size="0.002423" fill="hsl(0.0,100%,20%)">dpranke</text>
<text x="0.442" y="0.774" font-size="0.003427" fill="hsl(0.0,100%,20%)">nicolascapens</text>
<text x="0.617" y="0.121" font-size="0.002423" fill="hsl(0.0,100%,20%)">doughorn</text>
<text x="1.281" y="0.475" font-size="0.022861" fill="hsl(0.0,100%,20%)">jplate</text>
<text x="1.936" y="0.384" font-size="0.002423" fill="hsl(0.0,100%,20%)">ccameron</text>
<text x="0.061" y="0.591" font-size="0.006411" fill="hsl(0.0,100%,20%)">le.hoang.q</text>
<text x="0.185" y="0.565" font-size="0.004846" fill="hsl(0.0,100%,20%)">kyle.griffiths</text>
<text x="0.259" y="0.406" font-size="0.007270" fill="hsl(0.0,100%,20%)">lehoangq</text>
<text x="0.741" y="0.151" font-size="0.005418" fill="hsl(0.0,100%,20%)">lunpujun</text>
<text x="1.339" y="0.972" font-size="0.002423" fill="hsl(0.0,100%,20%)">mikes</text>
<text x="0.371" y="0.197" font-size="0.009385" fill="hsl(0.0,100%,20%)">pkasting</text>
<text x="0.845" y="0.611" font-size="0.007663" fill="hsl(0.0,100%,20%)">senorblanco</text>
<text x="1.141" y="0.114" font-size="0.003427" fill="hsl(0.0,100%,20%)">jiajia.qin</text>
<text x="0.148" y="0.476" font-size="0.007270" fill="hsl(0.0,100%,20%)">sergeyu</text>
<text x="0.585" y="0.675" font-size="0.007663" fill="hsl(0.0,100%,20%)">shrekshao</text>
<text x="0.331" y="0.053" font-size="0.010837" fill="hsl(0.0,100%,20%)">steven</text>
<text x="0.672" y="0.068" font-size="0.013492" fill="hsl(0.0,100%,20%)">sugoi</text>
<text x="0.140" y="-0.184" font-size="0.003427" fill="hsl(0.0,100%,20%)">cstout</text>
<text x="0.326" y="-1.141" font-size="0.002423" fill="hsl(0.0,100%,20%)">borenet</text>
<text x="0.060" y="-0.263" font-size="0.003427" fill="hsl(0.0,100%,20%)">reveman</text>
<text x="0.119" y="0.704" font-size="0.002423" fill="hsl(0.0,100%,20%)">jie.a.chen</text>
<text x="0.224" y="-0.012" font-size="0.002423" fill="hsl(0.0,100%,20%)">spang</text>
<text x="0.453" y="0.160" font-size="0.007663" fill="hsl(0.0,100%,20%)">xiaoxuan.liu</text>
<text x="1.147" y="0.107" font-size="0.004197" fill="hsl(0.0,100%,20%)">xinghua.cao</text>
<text x="0.084" y="-1.593" font-size="0.004197" fill="hsl(0.0,100%,20%)">yang.gu</text>
</svg>
