<svg width="4000" height="2000" viewBox="-0.025 -0.025 2.05 1.05" xmlns="http://www.w3.org/2000/svg">
  <style>
    path {
      fill: none;
      stroke-linecap: round;
      stroke-opacity: 0.4;
    }

    text {
      text-anchor: middle;
      alignment-baseline: hanging;
    }
  </style>
  <g opacity="0.4">
<path d="M1.038 0.155 Q1.277 0.213 1.442 0.109" stroke="hsl(0.0,100%,35%)" stroke-width="0.01049"></path>
<path d="M1.038 0.155 Q1.125 0.277 1.382 0.261" stroke="hsl(0.0,100%,35%)" stroke-width="0.02098"></path>
<path d="M1.038 0.155 Q0.691 0.119 0.544 0.280" stroke="hsl(0.0,100%,35%)" stroke-width="0.00117"></path>
<path d="M1.038 0.155 Q0.725 -0.028 0.301 0.085" stroke="hsl(0.0,100%,35%)" stroke-width="0.00777"></path>
<path d="M1.038 0.155 Q0.944 0.023 0.666 0.040" stroke="hsl(0.0,100%,35%)" stroke-width="0.00078"></path>
<path d="M1.038 0.155 Q1.235 0.102 1.177 -0.005" stroke="hsl(0.0,100%,35%)" stroke-width="0.00039"></path>
<path d="M1.038 0.155 Q0.850 0.300 1.092 0.423" stroke="hsl(0.0,100%,35%)" stroke-width="0.00039"></path>
<path d="M1.038 0.155 Q0.321 0.576 0.985 1.018" stroke="hsl(0.0,100%,35%)" stroke-width="0.00155"></path>
<path d="M1.442 0.109 Q1.291 0.173 1.382 0.261" stroke="hsl(0.0,100%,35%)" stroke-width="0.04002"></path>
<path d="M1.442 0.109 Q1.172 0.130 1.155 0.267" stroke="hsl(0.0,100%,35%)" stroke-width="0.00117"></path>
<path d="M1.442 0.109 Q1.203 0.051 1.038 0.155" stroke="hsl(0.0,100%,35%)" stroke-width="0.01321"></path>
<path d="M1.442 0.109 Q1.476 0.178 1.618 0.177" stroke="hsl(0.0,100%,35%)" stroke-width="0.00699"></path>
<path d="M1.442 0.109 Q1.016 0.196 1.092 0.423" stroke="hsl(0.0,100%,35%)" stroke-width="0.01360"></path>
<path d="M1.442 0.109 Q1.110 -0.081 0.666 0.040" stroke="hsl(0.0,100%,35%)" stroke-width="0.00078"></path>
<path d="M1.442 0.109 Q0.891 -0.131 0.301 0.085" stroke="hsl(0.0,100%,35%)" stroke-width="0.00078"></path>
<path d="M1.442 0.109 Q0.487 0.472 0.985 1.018" stroke="hsl(0.0,100%,35%)" stroke-width="0.00078"></path>
<path d="M1.442 0.109 Q0.856 0.015 0.544 0.280" stroke="hsl(0.0,100%,35%)" stroke-width="0.00155"></path>
<path d="M1.442 0.109 Q1.440 0.301 1.813 0.344" stroke="hsl(0.0,100%,35%)" stroke-width="0.00039"></path>
<path d="M1.442 0.109 Q1.607 0.089 1.604 0.005" stroke="hsl(0.0,100%,35%)" stroke-width="0.00039"></path>
<path d="M1.382 0.261 Q1.295 0.139 1.038 0.155" stroke="hsl(0.0,100%,35%)" stroke-width="0.01243"></path>
<path d="M1.382 0.261 Q1.534 0.197 1.442 0.109" stroke="hsl(0.0,100%,35%)" stroke-width="0.03069"></path>
<path d="M1.382 0.261 Q1.107 0.284 1.092 0.423" stroke="hsl(0.0,100%,35%)" stroke-width="0.02487"></path>
<path d="M1.382 0.261 Q0.578 0.560 0.985 1.018" stroke="hsl(0.0,100%,35%)" stroke-width="0.02409"></path>
<path d="M1.382 0.261 Q1.264 0.218 1.155 0.267" stroke="hsl(0.0,100%,35%)" stroke-width="0.00389"></path>
<path d="M1.382 0.261 Q1.201 0.007 0.666 0.040" stroke="hsl(0.0,100%,35%)" stroke-width="0.00505"></path>
<path d="M1.382 0.261 Q1.321 0.387 1.553 0.445" stroke="hsl(0.0,100%,35%)" stroke-width="0.00078"></path>
<path d="M1.382 0.261 Q1.043 0.584 1.599 0.821" stroke="hsl(0.0,100%,35%)" stroke-width="0.00155"></path>
<path d="M1.382 0.261 Q0.982 -0.044 0.301 0.085" stroke="hsl(0.0,100%,35%)" stroke-width="0.00311"></path>
<path d="M1.382 0.261 Q1.492 0.087 1.177 -0.005" stroke="hsl(0.0,100%,35%)" stroke-width="0.00039"></path>
<path d="M1.382 0.261 Q0.526 0.209 0.238 0.616" stroke="hsl(0.0,100%,35%)" stroke-width="0.00039"></path>
<path d="M1.382 0.261 Q0.948 0.103 0.544 0.280" stroke="hsl(0.0,100%,35%)" stroke-width="0.00816"></path>
<path d="M1.382 0.261 Q0.525 0.459 0.724 0.921" stroke="hsl(0.0,100%,35%)" stroke-width="0.00078"></path>
<path d="M1.382 0.261 Q0.897 0.493 1.244 0.781" stroke="hsl(0.0,100%,35%)" stroke-width="0.00078"></path>
<path d="M1.382 0.261 Q1.179 0.234 1.081 0.327" stroke="hsl(0.0,100%,35%)" stroke-width="0.00155"></path>
<path d="M1.382 0.261 Q1.111 0.182 0.898 0.297" stroke="hsl(0.0,100%,35%)" stroke-width="0.00039"></path>
<path d="M0.544 0.280 Q0.979 0.438 1.382 0.261" stroke="hsl(0.0,100%,35%)" stroke-width="0.02020"></path>
<path d="M0.544 0.280 Q0.798 0.184 0.666 0.040" stroke="hsl(0.0,100%,35%)" stroke-width="0.00427"></path>
<path d="M0.544 0.280 Q0.892 0.316 1.038 0.155" stroke="hsl(0.0,100%,35%)" stroke-width="0.00544"></path>
<path d="M0.544 0.280 Q0.579 0.134 0.301 0.085" stroke="hsl(0.0,100%,35%)" stroke-width="0.01204"></path>
<path d="M0.544 0.280 Q0.704 0.461 1.092 0.423" stroke="hsl(0.0,100%,35%)" stroke-width="0.00505"></path>
<path d="M0.544 0.280 Q0.175 0.737 0.985 1.018" stroke="hsl(0.0,100%,35%)" stroke-width="0.00078"></path>
<path d="M0.544 0.280 Q1.130 0.374 1.442 0.109" stroke="hsl(0.0,100%,35%)" stroke-width="0.00389"></path>
<path d="M0.544 0.280 Q0.406 0.259 0.335 0.322" stroke="hsl(0.0,100%,35%)" stroke-width="0.00039"></path>
<path d="M0.544 0.280 Q0.639 0.761 1.599 0.821" stroke="hsl(0.0,100%,35%)" stroke-width="0.00039"></path>
<path d="M0.544 0.280 Q0.600 0.522 1.084 0.549" stroke="hsl(0.0,100%,35%)" stroke-width="0.00039"></path>
<path d="M0.301 0.085 Q0.341 0.153 0.483 0.149" stroke="hsl(0.0,100%,35%)" stroke-width="0.00777"></path>
<path d="M0.301 0.085 Q0.160 0.144 0.245 0.226" stroke="hsl(0.0,100%,35%)" stroke-width="0.00194"></path>
<path d="M0.301 0.085 Q0.266 0.231 0.544 0.280" stroke="hsl(0.0,100%,35%)" stroke-width="0.00816"></path>
<path d="M0.301 0.085 Q0.701 0.389 1.382 0.261" stroke="hsl(0.0,100%,35%)" stroke-width="0.00194"></path>
<path d="M0.301 0.085 Q0.519 0.135 0.666 0.040" stroke="hsl(0.0,100%,35%)" stroke-width="0.00155"></path>
<path d="M0.301 0.085 Q0.176 0.088 0.155 0.149" stroke="hsl(0.0,100%,35%)" stroke-width="0.00078"></path>
<path d="M0.301 0.085 Q0.852 0.325 1.442 0.109" stroke="hsl(0.0,100%,35%)" stroke-width="0.00117"></path>
<path d="M0.301 0.085 Q0.613 0.267 1.038 0.155" stroke="hsl(0.0,100%,35%)" stroke-width="0.00078"></path>
<path d="M0.301 0.085 Q-0.104 0.688 0.985 1.018" stroke="hsl(0.0,100%,35%)" stroke-width="0.00039"></path>
<path d="M0.301 0.085 Q0.426 0.412 1.092 0.423" stroke="hsl(0.0,100%,35%)" stroke-width="0.00039"></path>
<path d="M0.666 0.040 Q0.847 0.293 1.382 0.261" stroke="hsl(0.0,100%,35%)" stroke-width="0.00350"></path>
<path d="M0.666 0.040 Q0.043 0.593 0.985 1.018" stroke="hsl(0.0,100%,35%)" stroke-width="0.00233"></path>
<path d="M0.666 0.040 Q0.690 0.102 0.815 0.104" stroke="hsl(0.0,100%,35%)" stroke-width="0.00583"></path>
<path d="M0.666 0.040 Q0.468 0.378 1.084 0.549" stroke="hsl(0.0,100%,35%)" stroke-width="0.00194"></path>
<path d="M0.666 0.040 Q0.572 0.317 1.092 0.423" stroke="hsl(0.0,100%,35%)" stroke-width="0.00155"></path>
<path d="M0.666 0.040 Q0.413 0.136 0.544 0.280" stroke="hsl(0.0,100%,35%)" stroke-width="0.00427"></path>
<path d="M0.666 0.040 Q0.447 -0.011 0.301 0.085" stroke="hsl(0.0,100%,35%)" stroke-width="0.00272"></path>
<path d="M0.666 0.040 Q0.999 0.230 1.442 0.109" stroke="hsl(0.0,100%,35%)" stroke-width="0.00039"></path>
<path d="M0.666 0.040 Q0.760 0.172 1.038 0.155" stroke="hsl(0.0,100%,35%)" stroke-width="0.00039"></path>
<path d="M1.177 -0.005 Q1.067 0.169 1.382 0.261" stroke="hsl(0.0,100%,35%)" stroke-width="0.00389"></path>
<path d="M1.177 -0.005 Q1.218 0.105 1.442 0.109" stroke="hsl(0.0,100%,35%)" stroke-width="0.00039"></path>
<path d="M1.177 -0.005 Q0.667 -0.135 0.301 0.085" stroke="hsl(0.0,100%,35%)" stroke-width="0.00117"></path>
<path d="M1.177 -0.005 Q0.632 0.011 0.544 0.280" stroke="hsl(0.0,100%,35%)" stroke-width="0.00078"></path>
<path d="M1.177 -0.005 Q0.539 0.263 0.922 0.633" stroke="hsl(0.0,100%,35%)" stroke-width="0.00039"></path>
<path d="M1.092 0.423 Q1.280 0.278 1.038 0.155" stroke="hsl(0.0,100%,35%)" stroke-width="0.00466"></path>
<path d="M1.092 0.423 Q1.367 0.400 1.382 0.261" stroke="hsl(0.0,100%,35%)" stroke-width="0.00466"></path>
<path d="M1.092 0.423 Q0.843 0.099 0.155 0.149" stroke="hsl(0.0,100%,35%)" stroke-width="0.00039"></path>
<path d="M1.092 0.423 Q1.186 0.146 0.666 0.040" stroke="hsl(0.0,100%,35%)" stroke-width="0.00078"></path>
<path d="M1.092 0.423 Q0.933 0.242 0.544 0.280" stroke="hsl(0.0,100%,35%)" stroke-width="0.00155"></path>
<path d="M1.092 0.423 Q1.519 0.336 1.442 0.109" stroke="hsl(0.0,100%,35%)" stroke-width="0.00272"></path>
<path d="M1.092 0.423 Q0.988 0.484 1.084 0.549" stroke="hsl(0.0,100%,35%)" stroke-width="0.00039"></path>
<path d="M1.092 0.423 Q0.967 0.096 0.301 0.085" stroke="hsl(0.0,100%,35%)" stroke-width="0.00078"></path>
<path d="M0.985 1.018 Q1.789 0.719 1.382 0.261" stroke="hsl(0.0,100%,35%)" stroke-width="0.02798"></path>
<path d="M0.985 1.018 Q0.933 0.667 0.238 0.616" stroke="hsl(0.0,100%,35%)" stroke-width="0.00466"></path>
<path d="M0.985 1.018 Q1.033 0.743 0.508 0.659" stroke="hsl(0.0,100%,35%)" stroke-width="0.00350"></path>
<path d="M0.985 1.018 Q1.355 0.561 0.544 0.280" stroke="hsl(0.0,100%,35%)" stroke-width="0.00117"></path>
<path d="M0.985 1.018 Q1.450 1.042 1.599 0.821" stroke="hsl(0.0,100%,35%)" stroke-width="0.00078"></path>
<path d="M0.985 1.018 Q0.974 0.968 0.875 0.963" stroke="hsl(0.0,100%,35%)" stroke-width="0.00039"></path>
<path d="M0.985 1.018 Q1.304 0.951 1.244 0.781" stroke="hsl(0.0,100%,35%)" stroke-width="0.00194"></path>
<path d="M0.985 1.018 Q1.941 0.655 1.442 0.109" stroke="hsl(0.0,100%,35%)" stroke-width="0.00039"></path>
<path d="M0.985 1.018 Q1.608 0.465 0.666 0.040" stroke="hsl(0.0,100%,35%)" stroke-width="0.00311"></path>
<path d="M0.985 1.018 Q1.071 0.866 0.794 0.791" stroke="hsl(0.0,100%,35%)" stroke-width="0.00039"></path>
<path d="M0.985 1.018 Q1.514 0.742 1.092 0.423" stroke="hsl(0.0,100%,35%)" stroke-width="0.00117"></path>
<path d="M0.985 1.018 Q1.389 0.414 0.301 0.085" stroke="hsl(0.0,100%,35%)" stroke-width="0.00194"></path>
<path d="M0.985 1.018 Q1.702 0.597 1.038 0.155" stroke="hsl(0.0,100%,35%)" stroke-width="0.00117"></path>
<path d="M0.985 1.018 Q1.277 0.861 1.034 0.684" stroke="hsl(0.0,100%,35%)" stroke-width="0.00039"></path>
<path d="M0.985 1.018 Q1.128 0.941 1.010 0.855" stroke="hsl(0.0,100%,35%)" stroke-width="0.00039"></path>
<path d="M0.985 1.018 Q0.932 0.917 0.724 0.921" stroke="hsl(0.0,100%,35%)" stroke-width="0.00039"></path>
<path d="M0.985 1.018 Q0.927 0.934 0.750 0.944" stroke="hsl(0.0,100%,35%)" stroke-width="0.00078"></path>
<path d="M0.985 1.018 Q0.996 0.960 0.885 0.942" stroke="hsl(0.0,100%,35%)" stroke-width="0.00039"></path>
<path d="M0.985 1.018 Q1.192 1.023 1.248 0.924" stroke="hsl(0.0,100%,35%)" stroke-width="0.00039"></path>
<path d="M0.088 0.217 Q0.519 0.244 0.666 0.040" stroke="hsl(0.0,100%,35%)" stroke-width="0.00039"></path>
<path d="M0.088 0.217 Q0.300 0.194 0.301 0.085" stroke="hsl(0.0,100%,35%)" stroke-width="0.00078"></path>
<path d="M0.088 0.217 Q0.265 0.340 0.544 0.280" stroke="hsl(0.0,100%,35%)" stroke-width="0.00039"></path>
<path d="M0.815 0.104 Q0.792 0.042 0.666 0.040" stroke="hsl(0.0,100%,35%)" stroke-width="0.00311"></path>
<path d="M0.815 0.104 Q0.169 0.595 0.985 1.018" stroke="hsl(0.0,100%,35%)" stroke-width="0.00039"></path>
<path d="M0.815 0.104 Q0.881 0.099 0.886 0.066" stroke="hsl(0.0,100%,35%)" stroke-width="0.00039"></path>
<path d="M1.155 0.267 Q1.274 0.309 1.382 0.261" stroke="hsl(0.0,100%,35%)" stroke-width="0.03069"></path>
<path d="M1.155 0.267 Q1.425 0.245 1.442 0.109" stroke="hsl(0.0,100%,35%)" stroke-width="0.01088"></path>
<path d="M1.155 0.267 Q1.186 0.187 1.038 0.155" stroke="hsl(0.0,100%,35%)" stroke-width="0.00039"></path>
<path d="M1.155 0.267 Q0.999 0.333 1.092 0.423" stroke="hsl(0.0,100%,35%)" stroke-width="0.00078"></path>
<path d="M1.155 0.267 Q0.469 0.608 0.985 1.018" stroke="hsl(0.0,100%,35%)" stroke-width="0.00117"></path>
<path d="M1.155 0.267 Q0.874 0.005 0.301 0.085" stroke="hsl(0.0,100%,35%)" stroke-width="0.00039"></path>
<path d="M1.618 0.177 Q1.585 0.108 1.442 0.109" stroke="hsl(0.0,100%,35%)" stroke-width="0.00272"></path>
<path d="M1.618 0.177 Q1.033 -0.133 0.301 0.085" stroke="hsl(0.0,100%,35%)" stroke-width="0.00078"></path>
<path d="M1.618 0.177 Q1.433 0.172 1.382 0.261" stroke="hsl(0.0,100%,35%)" stroke-width="0.00117"></path>
<path d="M0.483 0.149 Q0.443 0.080 0.301 0.085" stroke="hsl(0.0,100%,35%)" stroke-width="0.01166"></path>
<path d="M0.483 0.149 Q0.843 0.385 1.382 0.261" stroke="hsl(0.0,100%,35%)" stroke-width="0.00155"></path>
<path d="M0.483 0.149 Q0.662 0.131 0.666 0.040" stroke="hsl(0.0,100%,35%)" stroke-width="0.00039"></path>
<path d="M0.483 0.149 Q0.039 0.684 0.985 1.018" stroke="hsl(0.0,100%,35%)" stroke-width="0.00039"></path>
<path d="M0.245 0.226 Q0.386 0.166 0.301 0.085" stroke="hsl(0.0,100%,35%)" stroke-width="0.00194"></path>
<path d="M0.245 0.226 Q0.351 0.313 0.544 0.280" stroke="hsl(0.0,100%,35%)" stroke-width="0.00078"></path>
<path d="M0.245 0.226 Q0.425 0.235 0.483 0.149" stroke="hsl(0.0,100%,35%)" stroke-width="0.00039"></path>
<path d="M0.405 0.449 Q0.609 0.393 0.544 0.280" stroke="hsl(0.0,100%,35%)" stroke-width="0.00117"></path>
<path d="M0.405 0.449 Q1.044 0.550 1.382 0.261" stroke="hsl(0.0,100%,35%)" stroke-width="0.00039"></path>
<path d="M0.405 0.449 Q0.863 0.297 0.666 0.040" stroke="hsl(0.0,100%,35%)" stroke-width="0.00039"></path>
<path d="M0.756 0.967 Q1.634 0.739 1.382 0.261" stroke="hsl(0.0,100%,35%)" stroke-width="0.00117"></path>
<path d="M0.756 0.967 Q0.776 0.938 0.724 0.921" stroke="hsl(0.0,100%,35%)" stroke-width="0.00078"></path>
<path d="M0.756 0.967 Q1.453 0.485 0.666 0.040" stroke="hsl(0.0,100%,35%)" stroke-width="0.00039"></path>
<path d="M0.756 0.967 Q1.294 1.062 1.599 0.821" stroke="hsl(0.0,100%,35%)" stroke-width="0.00117"></path>
<path d="M0.756 0.967 Q0.830 1.038 0.985 1.018" stroke="hsl(0.0,100%,35%)" stroke-width="0.00117"></path>
<path d="M0.724 0.921 Q0.777 1.022 0.985 1.018" stroke="hsl(0.0,100%,35%)" stroke-width="0.00699"></path>
<path d="M0.724 0.921 Q1.242 1.046 1.599 0.821" stroke="hsl(0.0,100%,35%)" stroke-width="0.00466"></path>
<path d="M0.724 0.921 Q1.096 0.955 1.244 0.781" stroke="hsl(0.0,100%,35%)" stroke-width="0.00039"></path>
<path d="M1.008 0.162 Q0.682 0.129 0.544 0.280" stroke="hsl(0.0,100%,35%)" stroke-width="0.00039"></path>
<path d="M1.008 0.162 Q0.842 0.310 1.092 0.423" stroke="hsl(0.0,100%,35%)" stroke-width="0.00039"></path>
<path d="M1.008 0.162 Q1.117 0.286 1.382 0.261" stroke="hsl(0.0,100%,35%)" stroke-width="0.00039"></path>
<path d="M1.553 0.388 Q1.569 0.290 1.382 0.261" stroke="hsl(0.0,100%,35%)" stroke-width="0.01282"></path>
<path d="M1.553 0.388 Q0.765 0.589 0.985 1.018" stroke="hsl(0.0,100%,35%)" stroke-width="0.00078"></path>
<path d="M1.553 0.388 Q1.720 0.226 1.442 0.109" stroke="hsl(0.0,100%,35%)" stroke-width="0.00583"></path>
<path d="M0.238 0.616 Q0.338 0.691 0.508 0.659" stroke="hsl(0.0,100%,35%)" stroke-width="0.00622"></path>
<path d="M0.238 0.616 Q1.094 0.667 1.382 0.261" stroke="hsl(0.0,100%,35%)" stroke-width="0.00894"></path>
<path d="M0.238 0.616 Q0.290 0.966 0.985 1.018" stroke="hsl(0.0,100%,35%)" stroke-width="0.00466"></path>
<path d="M0.238 0.616 Q0.659 0.509 0.544 0.280" stroke="hsl(0.0,100%,35%)" stroke-width="0.00039"></path>
<path d="M0.238 0.616 Q0.866 0.855 1.470 0.601" stroke="hsl(0.0,100%,35%)" stroke-width="0.00039"></path>
<path d="M0.508 0.659 Q0.408 0.583 0.238 0.616" stroke="hsl(0.0,100%,35%)" stroke-width="0.00389"></path>
<path d="M0.508 0.659 Q1.264 0.635 1.382 0.261" stroke="hsl(0.0,100%,35%)" stroke-width="0.00505"></path>
<path d="M0.508 0.659 Q0.460 0.934 0.985 1.018" stroke="hsl(0.0,100%,35%)" stroke-width="0.00350"></path>
<path d="M1.244 0.781 Q1.390 0.872 1.599 0.821" stroke="hsl(0.0,100%,35%)" stroke-width="0.01166"></path>
<path d="M1.244 0.781 Q1.729 0.548 1.382 0.261" stroke="hsl(0.0,100%,35%)" stroke-width="0.02331"></path>
<path d="M1.244 0.781 Q0.872 0.747 0.724 0.921" stroke="hsl(0.0,100%,35%)" stroke-width="0.00389"></path>
<path d="M1.244 0.781 Q1.246 0.880 1.439 0.901" stroke="hsl(0.0,100%,35%)" stroke-width="0.01088"></path>
<path d="M1.244 0.781 Q0.925 0.848 0.985 1.018" stroke="hsl(0.0,100%,35%)" stroke-width="0.02836"></path>
<path d="M1.244 0.781 Q1.548 0.295 0.666 0.040" stroke="hsl(0.0,100%,35%)" stroke-width="0.00039"></path>
<path d="M1.244 0.781 Q1.881 0.485 1.442 0.109" stroke="hsl(0.0,100%,35%)" stroke-width="0.00039"></path>
<path d="M0.715 0.790 Q0.668 0.958 0.985 1.018" stroke="hsl(0.0,100%,35%)" stroke-width="0.00039"></path>
<path d="M0.715 0.790 Q1.132 0.982 1.599 0.821" stroke="hsl(0.0,100%,35%)" stroke-width="0.00039"></path>
<path d="M0.715 0.790 Q0.614 0.857 0.724 0.921" stroke="hsl(0.0,100%,35%)" stroke-width="0.00039"></path>
<path d="M1.046 0.061 Q0.967 0.106 1.038 0.155" stroke="hsl(0.0,100%,35%)" stroke-width="0.00194"></path>
<path d="M1.046 0.061 Q1.206 0.164 1.442 0.109" stroke="hsl(0.0,100%,35%)" stroke-width="0.00311"></path>
<path d="M1.046 0.061 Q1.054 0.228 1.382 0.261" stroke="hsl(0.0,100%,35%)" stroke-width="0.00155"></path>
<path d="M1.046 0.061 Q0.873 -0.026 0.666 0.040" stroke="hsl(0.0,100%,35%)" stroke-width="0.00039"></path>
<path d="M1.046 0.061 Q0.779 0.251 1.092 0.423" stroke="hsl(0.0,100%,35%)" stroke-width="0.00039"></path>
<path d="M1.356 0.375 Q1.460 0.323 1.382 0.261" stroke="hsl(0.0,100%,35%)" stroke-width="0.00078"></path>
<path d="M1.356 0.375 Q0.656 0.622 0.985 1.018" stroke="hsl(0.0,100%,35%)" stroke-width="0.00039"></path>
<path d="M1.356 0.375 Q0.704 0.347 0.508 0.659" stroke="hsl(0.0,100%,35%)" stroke-width="0.00039"></path>
<path d="M1.081 0.327 Q1.436 0.290 1.442 0.109" stroke="hsl(0.0,100%,35%)" stroke-width="0.00622"></path>
<path d="M1.081 0.327 Q1.285 0.354 1.382 0.261" stroke="hsl(0.0,100%,35%)" stroke-width="0.01088"></path>
<path d="M1.081 0.327 Q0.480 0.653 0.985 1.018" stroke="hsl(0.0,100%,35%)" stroke-width="0.00039"></path>
<path d="M1.081 0.327 Q1.166 0.312 1.155 0.267" stroke="hsl(0.0,100%,35%)" stroke-width="0.00117"></path>
<path d="M1.081 0.327 Q0.850 0.196 0.544 0.280" stroke="hsl(0.0,100%,35%)" stroke-width="0.00039"></path>
<path d="M1.081 0.327 Q1.197 0.232 1.038 0.155" stroke="hsl(0.0,100%,35%)" stroke-width="0.00078"></path>
<path d="M1.439 0.901 Q1.118 0.868 0.985 1.018" stroke="hsl(0.0,100%,35%)" stroke-width="0.00661"></path>
<path d="M1.439 0.901 Q1.922 0.569 1.382 0.261" stroke="hsl(0.0,100%,35%)" stroke-width="0.00699"></path>
<path d="M1.439 0.901 Q1.583 0.893 1.599 0.821" stroke="hsl(0.0,100%,35%)" stroke-width="0.00661"></path>
<path d="M1.439 0.901 Q1.437 0.802 1.244 0.781" stroke="hsl(0.0,100%,35%)" stroke-width="0.00427"></path>
<path d="M1.439 0.901 Q1.065 0.768 0.724 0.921" stroke="hsl(0.0,100%,35%)" stroke-width="0.00117"></path>
<path d="M1.439 0.901 Q1.463 0.968 1.599 0.971" stroke="hsl(0.0,100%,35%)" stroke-width="0.00039"></path>
<path d="M1.858 0.978 Q1.854 0.847 1.599 0.821" stroke="hsl(0.0,100%,35%)" stroke-width="0.00078"></path>
<path d="M1.858 0.978 Q1.709 0.756 1.244 0.781" stroke="hsl(0.0,100%,35%)" stroke-width="0.00039"></path>
<path d="M1.858 0.978 Q2.194 0.524 1.382 0.261" stroke="hsl(0.0,100%,35%)" stroke-width="0.00117"></path>
<path d="M1.858 0.978 Q1.710 0.855 1.439 0.901" stroke="hsl(0.0,100%,35%)" stroke-width="0.00078"></path>
<path d="M1.470 0.601 Q1.424 0.437 1.092 0.423" stroke="hsl(0.0,100%,35%)" stroke-width="0.00039"></path>
<path d="M1.470 0.601 Q1.699 0.413 1.382 0.261" stroke="hsl(0.0,100%,35%)" stroke-width="0.00039"></path>
<path d="M1.470 0.601 Q1.449 0.650 1.538 0.671" stroke="hsl(0.0,100%,35%)" stroke-width="0.00039"></path>
<path d="M1.470 0.601 Q1.518 0.160 0.666 0.040" stroke="hsl(0.0,100%,35%)" stroke-width="0.00039"></path>
<path d="M1.752 0.915 Q2.091 0.514 1.382 0.261" stroke="hsl(0.0,100%,35%)" stroke-width="0.00078"></path>
<path d="M1.752 0.915 Q1.607 0.845 1.439 0.901" stroke="hsl(0.0,100%,35%)" stroke-width="0.00155"></path>
<path d="M1.752 0.915 Q1.286 0.813 0.985 1.018" stroke="hsl(0.0,100%,35%)" stroke-width="0.00078"></path>
<path d="M1.084 0.549 Q1.188 0.488 1.092 0.423" stroke="hsl(0.0,100%,35%)" stroke-width="0.00272"></path>
<path d="M1.084 0.549 Q1.282 0.211 0.666 0.040" stroke="hsl(0.0,100%,35%)" stroke-width="0.00078"></path>
<path d="M1.084 0.549 Q1.463 0.464 1.382 0.261" stroke="hsl(0.0,100%,35%)" stroke-width="0.00117"></path>
<path d="M1.084 0.549 Q1.063 0.160 0.301 0.085" stroke="hsl(0.0,100%,35%)" stroke-width="0.00039"></path>
<path d="M0.898 0.297 Q1.170 0.376 1.382 0.261" stroke="hsl(0.0,100%,35%)" stroke-width="0.00194"></path>
<path d="M0.898 0.297 Q0.988 0.122 0.666 0.040" stroke="hsl(0.0,100%,35%)" stroke-width="0.00039"></path>
<path d="M0.898 0.297 Q0.830 0.699 1.599 0.821" stroke="hsl(0.0,100%,35%)" stroke-width="0.00039"></path>
<path d="M0.898 0.297 Q1.082 0.254 1.038 0.155" stroke="hsl(0.0,100%,35%)" stroke-width="0.00039"></path>
<path d="M0.876 0.159 Q0.613 0.153 0.544 0.280" stroke="hsl(0.0,100%,35%)" stroke-width="0.00039"></path>
<path d="M0.876 0.159 Q0.866 0.057 0.666 0.040" stroke="hsl(0.0,100%,35%)" stroke-width="0.00233"></path>
<path d="M0.876 0.159 Q0.708 0.634 1.599 0.821" stroke="hsl(0.0,100%,35%)" stroke-width="0.00039"></path>
</g>
<text x="1.038" y="0.130" font-size="0.048816" fill="hsl(0.0,100%,20%)">abdolrashidi</text>
<text x="1.442" y="0.076" font-size="0.066712" fill="hsl(0.0,100%,20%)">cclao</text>
<text x="1.382" y="0.211" font-size="0.099454" fill="hsl(0.0,100%,20%)">syoussefi</text>
<text x="0.544" y="0.256" font-size="0.048368" fill="hsl(0.0,100%,20%)">romanl</text>
<text x="0.301" y="0.062" font-size="0.044624" fill="hsl(0.0,100%,20%)">cnorthrop</text>
<text x="0.666" y="0.021" font-size="0.036881" fill="hsl(0.0,100%,20%)">ynovikov</text>
<text x="1.177" y="-0.013" font-size="0.014379" fill="hsl(0.0,100%,20%)">zzyiwei</text>
<text x="1.092" y="0.401" font-size="0.043513" fill="hsl(0.0,100%,20%)">yuxinhu</text>
<text x="0.985" y="0.987" font-size="0.061977" fill="hsl(0.0,100%,20%)">geofflang</text>
<text x="0.088" y="0.214" font-size="0.006597" fill="hsl(0.0,100%,20%)">banisingh</text>
<text x="0.815" y="0.095" font-size="0.016493" fill="hsl(0.0,100%,20%)">bsheedy</text>
<text x="0.886" y="0.064" font-size="0.003299" fill="hsl(0.0,100%,20%)">chanli</text>
<text x="1.155" y="0.248" font-size="0.037611" fill="hsl(0.0,100%,20%)">m.maiya</text>
<text x="1.618" y="0.168" font-size="0.018068" fill="hsl(0.0,100%,20%)">chrisforbes</text>
<text x="1.813" y="0.342" font-size="0.003299" fill="hsl(0.0,100%,20%)">gregschlom</text>
<text x="1.604" y="0.003" font-size="0.003299" fill="hsl(0.0,100%,20%)">slumpwuffle</text>
<text x="0.483" y="0.137" font-size="0.024905" fill="hsl(0.0,100%,20%)">mark</text>
<text x="0.245" y="0.220" font-size="0.011894" fill="hsl(0.0,100%,20%)">mikes</text>
<text x="0.155" y="0.146" font-size="0.005714" fill="hsl(0.0,100%,20%)">lpy</text>
<text x="0.405" y="0.445" font-size="0.007376" fill="hsl(0.0,100%,20%)">dextero</text>
<text x="0.756" y="0.961" font-size="0.011427" fill="hsl(0.0,100%,20%)">djg</text>
<text x="0.724" y="0.909" font-size="0.023325" fill="hsl(0.0,100%,20%)">lehoangquyen</text>
<text x="1.599" y="0.806" font-size="0.028376" fill="hsl(0.0,100%,20%)">kbr</text>
<text x="1.008" y="0.160" font-size="0.005714" fill="hsl(0.0,100%,20%)">dloehr</text>
<text x="1.553" y="0.376" font-size="0.023325" fill="hsl(0.0,100%,20%)">g.tammana</text>
<text x="0.238" y="0.601" font-size="0.028757" fill="hsl(0.0,100%,20%)">liza</text>
<text x="0.508" y="0.647" font-size="0.025122" fill="hsl(0.0,100%,20%)">mpdenton</text>
<text x="0.875" y="0.961" font-size="0.003299" fill="hsl(0.0,100%,20%)">penghuang</text>
<text x="1.244" y="0.756" font-size="0.049260" fill="hsl(0.0,100%,20%)">lexa.knyazev</text>
<text x="0.794" y="0.790" font-size="0.003299" fill="hsl(0.0,100%,20%)">jamesgk</text>
<text x="1.034" y="0.683" font-size="0.003299" fill="hsl(0.0,100%,20%)">johnstiles</text>
<text x="1.010" y="0.853" font-size="0.003299" fill="hsl(0.0,100%,20%)">vasilyt</text>
<text x="0.750" y="0.942" font-size="0.004665" fill="hsl(0.0,100%,20%)">zmo</text>
<text x="0.885" y="0.940" font-size="0.003299" fill="hsl(0.0,100%,20%)">dsinclair</text>
<text x="1.248" y="0.922" font-size="0.003299" fill="hsl(0.0,100%,20%)">cwallez</text>
<text x="0.715" y="0.787" font-size="0.005714" fill="hsl(0.0,100%,20%)">gman</text>
<text x="1.046" y="0.053" font-size="0.014379" fill="hsl(0.0,100%,20%)">hailinzhang</text>
<text x="1.356" y="0.371" font-size="0.006597" fill="hsl(0.0,100%,20%)">hocheung</text>
<text x="1.081" y="0.315" font-size="0.024464" fill="hsl(0.0,100%,20%)">i.nazarov</text>
<text x="1.439" y="0.884" font-size="0.033151" fill="hsl(0.0,100%,20%)">kkinnunen</text>
<text x="1.599" y="0.969" font-size="0.003299" fill="hsl(0.0,100%,20%)">kpiddington</text>
<text x="1.858" y="0.973" font-size="0.009330" fill="hsl(0.0,100%,20%)">lerica</text>
<text x="1.470" y="0.598" font-size="0.007376" fill="hsl(0.0,100%,20%)">sokcevic</text>
<text x="1.752" y="0.910" font-size="0.009330" fill="hsl(0.0,100%,20%)">mscott</text>
<text x="0.335" y="0.320" font-size="0.003299" fill="hsl(0.0,100%,20%)">zijiehe</text>
<text x="1.084" y="0.541" font-size="0.014752" fill="hsl(0.0,100%,20%)">solti</text>
<text x="1.538" y="0.669" font-size="0.003299" fill="hsl(0.0,100%,20%)">jwata</text>
<text x="0.898" y="0.292" font-size="0.009896" fill="hsl(0.0,100%,20%)">steven</text>
<text x="1.553" y="0.442" font-size="0.004665" fill="hsl(0.0,100%,20%)">a.annestrand</text>
<text x="0.876" y="0.154" font-size="0.009330" fill="hsl(0.0,100%,20%)">tikuta</text>
<text x="0.922" y="0.631" font-size="0.003299" fill="hsl(0.0,100%,20%)">lepton</text>
</svg>
