<svg width="4000" height="2000" viewBox="-0.025 -0.025 2.05 1.05" xmlns="http://www.w3.org/2000/svg">
  <style>
    path {
      fill: none;
      stroke-linecap: round;
      stroke-opacity: 0.4;
    }

    text {
      text-anchor: middle;
      alignment-baseline: hanging;
    }
  </style>
  <g opacity="0.4">
<path d="M0.543 0.330 Q0.386 0.727 1.127 0.891" stroke="hsl(0.0,100%,35%)" stroke-width="0.00984"></path>
<path d="M0.543 0.330 Q0.517 0.469 0.783 0.512" stroke="hsl(0.0,100%,35%)" stroke-width="0.01187"></path>
<path d="M0.543 0.330 Q0.072 0.443 0.190 0.697" stroke="hsl(0.0,100%,35%)" stroke-width="0.00102"></path>
<path d="M0.543 0.330 Q0.690 0.421 0.900 0.369" stroke="hsl(0.0,100%,35%)" stroke-width="0.00068"></path>
<path d="M0.543 0.330 Q0.821 0.230 0.687 0.072" stroke="hsl(0.0,100%,35%)" stroke-width="0.00102"></path>
<path d="M0.543 0.330 Q0.453 0.358 0.489 0.408" stroke="hsl(0.0,100%,35%)" stroke-width="0.00068"></path>
<path d="M1.127 0.891 Q1.563 0.394 0.687 0.072" stroke="hsl(0.0,100%,35%)" stroke-width="0.00034"></path>
<path d="M1.127 0.891 Q0.980 0.927 1.017 1.006" stroke="hsl(0.0,100%,35%)" stroke-width="0.00068"></path>
<path d="M1.127 0.891 Q1.258 0.633 0.783 0.512" stroke="hsl(0.0,100%,35%)" stroke-width="0.00780"></path>
<path d="M1.127 0.891 Q1.219 0.482 0.440 0.347" stroke="hsl(0.0,100%,35%)" stroke-width="0.00509"></path>
<path d="M1.127 0.891 Q1.206 0.933 1.304 0.904" stroke="hsl(0.0,100%,35%)" stroke-width="0.00068"></path>
<path d="M1.127 0.891 Q0.961 0.828 0.801 0.895" stroke="hsl(0.0,100%,35%)" stroke-width="0.00678"></path>
<path d="M1.127 0.891 Q1.724 0.633 1.351 0.286" stroke="hsl(0.0,100%,35%)" stroke-width="0.00068"></path>
<path d="M1.127 0.891 Q1.585 0.874 1.651 0.646" stroke="hsl(0.0,100%,35%)" stroke-width="0.00034"></path>
<path d="M1.127 0.891 Q1.415 0.849 1.395 0.699" stroke="hsl(0.0,100%,35%)" stroke-width="0.00271"></path>
<path d="M1.127 0.891 Q1.357 0.973 1.567 0.879" stroke="hsl(0.0,100%,35%)" stroke-width="0.00034"></path>
<path d="M1.127 0.891 Q0.900 0.861 0.791 0.965" stroke="hsl(0.0,100%,35%)" stroke-width="0.00034"></path>
<path d="M1.127 0.891 Q1.665 0.944 1.888 0.694" stroke="hsl(0.0,100%,35%)" stroke-width="0.00034"></path>
<path d="M1.127 0.891 Q1.033 0.873 0.978 0.915" stroke="hsl(0.0,100%,35%)" stroke-width="0.00068"></path>
<path d="M1.127 0.891 Q1.120 0.476 0.309 0.389" stroke="hsl(0.0,100%,35%)" stroke-width="0.00034"></path>
<path d="M0.783 0.512 Q0.956 0.464 0.900 0.369" stroke="hsl(180.0,100%,35%)" stroke-width="0.01255"></path>
<path d="M0.783 0.512 Q0.497 0.469 0.351 0.599" stroke="hsl(180.0,100%,35%)" stroke-width="0.02375"></path>
<path d="M0.783 0.512 Q0.651 0.770 1.127 0.891" stroke="hsl(180.0,100%,35%)" stroke-width="0.01832"></path>
<path d="M0.783 0.512 Q1.024 0.375 0.809 0.227" stroke="hsl(180.0,100%,35%)" stroke-width="0.01221"></path>
<path d="M0.783 0.512 Q0.338 0.486 0.190 0.697" stroke="hsl(180.0,100%,35%)" stroke-width="0.01052"></path>
<path d="M0.783 0.512 Q1.087 0.273 0.687 0.072" stroke="hsl(180.0,100%,35%)" stroke-width="0.00373"></path>
<path d="M0.783 0.512 Q0.644 0.356 0.309 0.389" stroke="hsl(180.0,100%,35%)" stroke-width="0.00068"></path>
<path d="M0.783 0.512 Q0.683 0.586 0.806 0.651" stroke="hsl(180.0,100%,35%)" stroke-width="0.00339"></path>
<path d="M0.783 0.512 Q0.571 0.550 0.599 0.662" stroke="hsl(180.0,100%,35%)" stroke-width="0.00204"></path>
<path d="M0.783 0.512 Q0.425 0.740 0.791 0.965" stroke="hsl(180.0,100%,35%)" stroke-width="0.00034"></path>
<path d="M0.783 0.512 Q0.594 0.519 0.566 0.613" stroke="hsl(180.0,100%,35%)" stroke-width="0.00034"></path>
<path d="M0.783 0.512 Q1.509 0.439 1.527 0.069" stroke="hsl(180.0,100%,35%)" stroke-width="0.00034"></path>
<path d="M0.783 0.512 Q0.376 0.560 0.381 0.769" stroke="hsl(180.0,100%,35%)" stroke-width="0.00034"></path>
<path d="M0.783 0.512 Q1.154 0.444 1.104 0.248" stroke="hsl(180.0,100%,35%)" stroke-width="0.00034"></path>
<path d="M0.783 0.512 Q0.939 0.728 1.395 0.699" stroke="hsl(180.0,100%,35%)" stroke-width="0.00034"></path>
<path d="M0.783 0.512 Q0.743 0.361 0.440 0.347" stroke="hsl(180.0,100%,35%)" stroke-width="0.00034"></path>
<path d="M0.190 0.697 Q0.634 0.723 0.783 0.512" stroke="hsl(180.0,100%,35%)" stroke-width="0.00712"></path>
<path d="M0.190 0.697 Q0.535 0.797 0.806 0.651" stroke="hsl(180.0,100%,35%)" stroke-width="0.00509"></path>
<path d="M0.190 0.697 Q0.228 0.771 0.381 0.769" stroke="hsl(180.0,100%,35%)" stroke-width="0.01459"></path>
<path d="M0.190 0.697 Q1.361 0.650 1.527 0.069" stroke="hsl(180.0,100%,35%)" stroke-width="0.00068"></path>
<path d="M0.190 0.697 Q0.939 0.484 0.687 0.072" stroke="hsl(180.0,100%,35%)" stroke-width="0.00136"></path>
<path d="M0.190 0.697 Q0.503 0.982 1.127 0.891" stroke="hsl(180.0,100%,35%)" stroke-width="0.00170"></path>
<path d="M0.190 0.697 Q0.875 0.586 0.809 0.227" stroke="hsl(180.0,100%,35%)" stroke-width="0.00373"></path>
<path d="M0.190 0.697 Q0.349 0.680 0.351 0.599" stroke="hsl(180.0,100%,35%)" stroke-width="0.00136"></path>
<path d="M0.190 0.697 Q0.807 0.675 0.900 0.369" stroke="hsl(180.0,100%,35%)" stroke-width="0.00170"></path>
<path d="M0.190 0.697 Q1.006 0.655 1.104 0.248" stroke="hsl(180.0,100%,35%)" stroke-width="0.00034"></path>
<path d="M0.190 0.697 Q0.480 0.683 0.516 0.538" stroke="hsl(180.0,100%,35%)" stroke-width="0.00068"></path>
<path d="M0.900 0.369 Q0.727 0.417 0.783 0.512" stroke="hsl(180.0,100%,35%)" stroke-width="0.03596"></path>
<path d="M0.900 0.369 Q0.441 0.374 0.351 0.599" stroke="hsl(180.0,100%,35%)" stroke-width="0.01391"></path>
<path d="M0.900 0.369 Q0.627 0.491 0.806 0.651" stroke="hsl(180.0,100%,35%)" stroke-width="0.00068"></path>
<path d="M0.900 0.369 Q0.282 0.391 0.190 0.697" stroke="hsl(180.0,100%,35%)" stroke-width="0.00102"></path>
<path d="M0.900 0.369 Q0.515 0.455 0.599 0.662" stroke="hsl(180.0,100%,35%)" stroke-width="0.00034"></path>
<path d="M0.900 0.369 Q0.968 0.280 0.809 0.227" stroke="hsl(180.0,100%,35%)" stroke-width="0.01764"></path>
<path d="M0.900 0.369 Q0.596 0.675 1.127 0.891" stroke="hsl(180.0,100%,35%)" stroke-width="0.00305"></path>
<path d="M0.900 0.369 Q1.031 0.178 0.687 0.072" stroke="hsl(180.0,100%,35%)" stroke-width="0.00034"></path>
<path d="M0.687 0.072 Q0.383 0.311 0.783 0.512" stroke="hsl(180.0,100%,35%)" stroke-width="0.00475"></path>
<path d="M0.687 0.072 Q-0.062 0.285 0.190 0.697" stroke="hsl(180.0,100%,35%)" stroke-width="0.00305"></path>
<path d="M0.687 0.072 Q0.284 0.385 0.806 0.651" stroke="hsl(180.0,100%,35%)" stroke-width="0.00204"></path>
<path d="M0.687 0.072 Q0.459 0.019 0.305 0.118" stroke="hsl(180.0,100%,35%)" stroke-width="0.00237"></path>
<path d="M0.687 0.072 Q0.556 0.263 0.900 0.369" stroke="hsl(180.0,100%,35%)" stroke-width="0.00034"></path>
<path d="M0.687 0.072 Q0.624 0.174 0.809 0.227" stroke="hsl(180.0,100%,35%)" stroke-width="0.00204"></path>
<path d="M0.687 0.072 Q0.252 0.569 1.127 0.891" stroke="hsl(180.0,100%,35%)" stroke-width="0.00305"></path>
<path d="M0.687 0.072 Q0.097 0.268 0.351 0.599" stroke="hsl(180.0,100%,35%)" stroke-width="0.00068"></path>
<path d="M0.489 0.408 Q0.553 0.519 0.783 0.512" stroke="hsl(0.0,100%,35%)" stroke-width="0.01560"></path>
<path d="M0.489 0.408 Q0.422 0.777 1.127 0.891" stroke="hsl(0.0,100%,35%)" stroke-width="0.01153"></path>
<path d="M0.489 0.408 Q0.579 0.380 0.543 0.330" stroke="hsl(0.0,100%,35%)" stroke-width="0.00271"></path>
<path d="M0.489 0.408 Q0.857 0.280 0.687 0.072" stroke="hsl(0.0,100%,35%)" stroke-width="0.00102"></path>
<path d="M0.489 0.408 Q0.108 0.493 0.190 0.697" stroke="hsl(0.0,100%,35%)" stroke-width="0.00034"></path>
<path d="M0.550 0.523 Q0.544 0.822 1.127 0.891" stroke="hsl(0.0,100%,35%)" stroke-width="0.00204"></path>
<path d="M0.550 0.523 Q0.675 0.564 0.783 0.512" stroke="hsl(0.0,100%,35%)" stroke-width="0.00339"></path>
<path d="M0.550 0.523 Q0.576 0.638 0.806 0.651" stroke="hsl(0.0,100%,35%)" stroke-width="0.00136"></path>
<path d="M0.550 0.523 Q0.701 0.425 0.543 0.330" stroke="hsl(0.0,100%,35%)" stroke-width="0.00170"></path>
<path d="M0.550 0.523 Q0.230 0.538 0.190 0.697" stroke="hsl(0.0,100%,35%)" stroke-width="0.00102"></path>
<path d="M0.806 0.651 Q0.906 0.577 0.783 0.512" stroke="hsl(180.0,100%,35%)" stroke-width="0.01323"></path>
<path d="M0.806 0.651 Q0.775 0.835 1.127 0.891" stroke="hsl(180.0,100%,35%)" stroke-width="0.00068"></path>
<path d="M0.806 0.651 Q0.620 0.534 0.351 0.599" stroke="hsl(180.0,100%,35%)" stroke-width="0.00204"></path>
<path d="M0.806 0.651 Q1.147 0.439 0.809 0.227" stroke="hsl(180.0,100%,35%)" stroke-width="0.00271"></path>
<path d="M0.806 0.651 Q0.461 0.551 0.190 0.697" stroke="hsl(180.0,100%,35%)" stroke-width="0.00645"></path>
<path d="M0.806 0.651 Q0.500 0.625 0.381 0.769" stroke="hsl(180.0,100%,35%)" stroke-width="0.00034"></path>
<path d="M0.806 0.651 Q0.701 0.660 0.696 0.714" stroke="hsl(180.0,100%,35%)" stroke-width="0.00034"></path>
<path d="M0.806 0.651 Q1.527 0.622 1.629 0.265" stroke="hsl(180.0,100%,35%)" stroke-width="0.00034"></path>
<path d="M0.806 0.651 Q1.632 0.504 1.527 0.069" stroke="hsl(180.0,100%,35%)" stroke-width="0.00034"></path>
<path d="M0.806 0.651 Q1.210 0.338 0.687 0.072" stroke="hsl(180.0,100%,35%)" stroke-width="0.00102"></path>
<path d="M0.806 0.651 Q1.079 0.529 0.900 0.369" stroke="hsl(180.0,100%,35%)" stroke-width="0.00136"></path>
<path d="M0.809 0.227 Q0.741 0.316 0.900 0.369" stroke="hsl(180.0,100%,35%)" stroke-width="0.01018"></path>
<path d="M0.809 0.227 Q0.568 0.364 0.783 0.512" stroke="hsl(180.0,100%,35%)" stroke-width="0.01696"></path>
<path d="M0.809 0.227 Q0.282 0.322 0.351 0.599" stroke="hsl(180.0,100%,35%)" stroke-width="0.00441"></path>
<path d="M0.809 0.227 Q0.123 0.338 0.190 0.697" stroke="hsl(180.0,100%,35%)" stroke-width="0.00204"></path>
<path d="M0.809 0.227 Q0.468 0.438 0.806 0.651" stroke="hsl(180.0,100%,35%)" stroke-width="0.00034"></path>
<path d="M0.809 0.227 Q0.872 0.125 0.687 0.072" stroke="hsl(180.0,100%,35%)" stroke-width="0.00034"></path>
<path d="M0.809 0.227 Q0.356 0.402 0.599 0.662" stroke="hsl(180.0,100%,35%)" stroke-width="0.00034"></path>
<path d="M0.809 0.227 Q0.673 0.237 0.663 0.305" stroke="hsl(180.0,100%,35%)" stroke-width="0.00034"></path>
<path d="M0.351 0.599 Q0.810 0.594 0.900 0.369" stroke="hsl(180.0,100%,35%)" stroke-width="0.00543"></path>
<path d="M0.351 0.599 Q0.637 0.642 0.783 0.512" stroke="hsl(180.0,100%,35%)" stroke-width="0.01459"></path>
<path d="M0.351 0.599 Q0.742 0.514 0.663 0.305" stroke="hsl(180.0,100%,35%)" stroke-width="0.00034"></path>
<path d="M0.351 0.599 Q0.537 0.716 0.806 0.651" stroke="hsl(180.0,100%,35%)" stroke-width="0.00102"></path>
<path d="M0.351 0.599 Q0.878 0.505 0.809 0.227" stroke="hsl(180.0,100%,35%)" stroke-width="0.01662"></path>
<path d="M0.351 0.599 Q0.941 0.403 0.687 0.072" stroke="hsl(180.0,100%,35%)" stroke-width="0.00136"></path>
<path d="M0.351 0.599 Q0.372 0.619 0.415 0.613" stroke="hsl(180.0,100%,35%)" stroke-width="0.00034"></path>
<path d="M0.351 0.599 Q0.192 0.616 0.190 0.697" stroke="hsl(180.0,100%,35%)" stroke-width="0.00204"></path>
<path d="M0.351 0.599 Q0.231 0.690 0.381 0.769" stroke="hsl(180.0,100%,35%)" stroke-width="0.00034"></path>
<path d="M0.351 0.599 Q1.364 0.569 1.527 0.069" stroke="hsl(180.0,100%,35%)" stroke-width="0.00034"></path>
<path d="M0.351 0.599 Q0.425 0.680 0.599 0.662" stroke="hsl(180.0,100%,35%)" stroke-width="0.00068"></path>
<path d="M0.351 0.599 Q0.499 0.486 0.309 0.389" stroke="hsl(180.0,100%,35%)" stroke-width="0.00034"></path>
<path d="M0.351 0.599 Q0.482 0.602 0.516 0.538" stroke="hsl(180.0,100%,35%)" stroke-width="0.00034"></path>
<path d="M0.599 0.662 Q0.984 0.576 0.900 0.369" stroke="hsl(180.0,100%,35%)" stroke-width="0.00611"></path>
<path d="M0.599 0.662 Q0.810 0.624 0.783 0.512" stroke="hsl(180.0,100%,35%)" stroke-width="0.01764"></path>
<path d="M0.599 0.662 Q0.525 0.581 0.351 0.599" stroke="hsl(180.0,100%,35%)" stroke-width="0.00204"></path>
<path d="M0.599 0.662 Q0.530 0.668 0.528 0.703" stroke="hsl(180.0,100%,35%)" stroke-width="0.00034"></path>
<path d="M0.599 0.662 Q0.679 0.882 1.127 0.891" stroke="hsl(180.0,100%,35%)" stroke-width="0.00136"></path>
<path d="M0.599 0.662 Q1.431 0.669 1.629 0.265" stroke="hsl(180.0,100%,35%)" stroke-width="0.00034"></path>
<path d="M0.599 0.662 Q0.672 0.467 0.309 0.389" stroke="hsl(180.0,100%,35%)" stroke-width="0.00034"></path>
<path d="M0.599 0.662 Q1.052 0.486 0.809 0.227" stroke="hsl(180.0,100%,35%)" stroke-width="0.00068"></path>
<path d="M0.599 0.662 Q0.366 0.598 0.190 0.697" stroke="hsl(180.0,100%,35%)" stroke-width="0.00034"></path>
<path d="M0.663 0.305 Q0.730 0.384 0.900 0.369" stroke="hsl(180.0,100%,35%)" stroke-width="0.01119"></path>
<path d="M0.663 0.305 Q0.557 0.432 0.783 0.512" stroke="hsl(180.0,100%,35%)" stroke-width="0.02205"></path>
<path d="M0.663 0.305 Q0.458 0.507 0.806 0.651" stroke="hsl(180.0,100%,35%)" stroke-width="0.00102"></path>
<path d="M0.663 0.305 Q0.272 0.390 0.351 0.599" stroke="hsl(180.0,100%,35%)" stroke-width="0.00170"></path>
<path d="M0.663 0.305 Q0.798 0.295 0.809 0.227" stroke="hsl(180.0,100%,35%)" stroke-width="0.00068"></path>
<path d="M0.663 0.305 Q0.426 0.691 1.127 0.891" stroke="hsl(180.0,100%,35%)" stroke-width="0.00034"></path>
<path d="M0.663 0.305 Q0.112 0.406 0.190 0.697" stroke="hsl(180.0,100%,35%)" stroke-width="0.00204"></path>
<path d="M0.327 0.276 Q0.607 0.348 0.809 0.227" stroke="hsl(180.0,100%,35%)" stroke-width="0.00102"></path>
<path d="M0.327 0.276 Q0.366 0.485 0.783 0.512" stroke="hsl(180.0,100%,35%)" stroke-width="0.00407"></path>
<path d="M0.327 0.276 Q0.539 0.437 0.900 0.369" stroke="hsl(180.0,100%,35%)" stroke-width="0.00170"></path>
<path d="M0.327 0.276 Q0.235 0.744 1.127 0.891" stroke="hsl(180.0,100%,35%)" stroke-width="0.00034"></path>
<path d="M0.327 0.276 Q0.773 0.797 1.888 0.694" stroke="hsl(180.0,100%,35%)" stroke-width="0.00034"></path>
<path d="M0.327 0.276 Q0.081 0.443 0.351 0.599" stroke="hsl(180.0,100%,35%)" stroke-width="0.00102"></path>
<path d="M1.888 0.694 Q1.349 0.640 1.127 0.891" stroke="hsl(180.0,100%,35%)" stroke-width="0.00034"></path>
<path d="M1.888 0.694 Q1.342 0.226 0.309 0.389" stroke="hsl(180.0,100%,35%)" stroke-width="0.00034"></path>
<path d="M1.888 0.694 Q1.481 0.382 0.783 0.512" stroke="hsl(180.0,100%,35%)" stroke-width="0.00102"></path>
<path d="M1.888 0.694 Q1.808 0.623 1.651 0.646" stroke="hsl(180.0,100%,35%)" stroke-width="0.00068"></path>
<path d="M1.651 0.646 Q1.732 0.717 1.888 0.694" stroke="hsl(180.0,100%,35%)" stroke-width="0.00611"></path>
<path d="M1.651 0.646 Q1.324 0.405 0.783 0.512" stroke="hsl(180.0,100%,35%)" stroke-width="0.00475"></path>
<path d="M1.651 0.646 Q1.186 0.249 0.309 0.389" stroke="hsl(180.0,100%,35%)" stroke-width="0.00170"></path>
<path d="M0.309 0.389 Q0.003 0.519 0.190 0.697" stroke="hsl(180.0,100%,35%)" stroke-width="0.00136"></path>
<path d="M0.309 0.389 Q0.316 0.804 1.127 0.891" stroke="hsl(180.0,100%,35%)" stroke-width="0.00882"></path>
<path d="M0.309 0.389 Q0.447 0.545 0.783 0.512" stroke="hsl(180.0,100%,35%)" stroke-width="0.02917"></path>
<path d="M0.309 0.389 Q0.913 0.545 1.351 0.286" stroke="hsl(180.0,100%,35%)" stroke-width="0.00068"></path>
<path d="M0.309 0.389 Q0.689 0.408 0.809 0.227" stroke="hsl(180.0,100%,35%)" stroke-width="0.00102"></path>
<path d="M0.309 0.389 Q0.774 0.786 1.651 0.646" stroke="hsl(180.0,100%,35%)" stroke-width="0.00034"></path>
<path d="M0.309 0.389 Q0.855 0.857 1.888 0.694" stroke="hsl(180.0,100%,35%)" stroke-width="0.00068"></path>
<path d="M0.309 0.389 Q0.162 0.502 0.351 0.599" stroke="hsl(180.0,100%,35%)" stroke-width="0.00068"></path>
<path d="M0.309 0.389 Q0.819 0.477 1.104 0.248" stroke="hsl(180.0,100%,35%)" stroke-width="0.00034"></path>
<path d="M0.381 0.769 Q0.656 0.979 1.127 0.891" stroke="hsl(180.0,100%,35%)" stroke-width="0.00034"></path>
<path d="M0.381 0.769 Q0.343 0.694 0.190 0.697" stroke="hsl(180.0,100%,35%)" stroke-width="0.00984"></path>
<path d="M0.381 0.769 Q0.787 0.721 0.783 0.512" stroke="hsl(180.0,100%,35%)" stroke-width="0.00068"></path>
<path d="M0.381 0.769 Q1.092 0.481 0.687 0.072" stroke="hsl(180.0,100%,35%)" stroke-width="0.00068"></path>
<path d="M0.381 0.769 Q1.029 0.583 0.809 0.227" stroke="hsl(180.0,100%,35%)" stroke-width="0.00068"></path>
<path d="M1.527 0.069 Q0.800 0.141 0.783 0.512" stroke="hsl(180.0,100%,35%)" stroke-width="0.00136"></path>
<path d="M1.527 0.069 Q0.515 0.099 0.351 0.599" stroke="hsl(180.0,100%,35%)" stroke-width="0.00136"></path>
<path d="M1.527 0.069 Q1.105 -0.098 0.687 0.072" stroke="hsl(180.0,100%,35%)" stroke-width="0.00068"></path>
<path d="M1.527 0.069 Q0.669 0.400 1.127 0.891" stroke="hsl(180.0,100%,35%)" stroke-width="0.00034"></path>
<path d="M1.527 0.069 Q0.356 0.115 0.190 0.697" stroke="hsl(180.0,100%,35%)" stroke-width="0.00034"></path>
<path d="M1.104 0.248 Q0.288 0.290 0.190 0.697" stroke="hsl(180.0,100%,35%)" stroke-width="0.00441"></path>
<path d="M1.104 0.248 Q0.732 0.316 0.783 0.512" stroke="hsl(180.0,100%,35%)" stroke-width="0.00645"></path>
<path d="M1.104 0.248 Q0.974 0.178 0.809 0.227" stroke="hsl(180.0,100%,35%)" stroke-width="0.00780"></path>
<path d="M1.104 0.248 Q1.459 0.243 1.527 0.069" stroke="hsl(180.0,100%,35%)" stroke-width="0.00102"></path>
<path d="M1.104 0.248 Q0.447 0.273 0.351 0.599" stroke="hsl(180.0,100%,35%)" stroke-width="0.00339"></path>
<path d="M1.104 0.248 Q0.601 0.574 1.127 0.891" stroke="hsl(180.0,100%,35%)" stroke-width="0.00068"></path>
<path d="M1.104 0.248 Q0.521 0.354 0.599 0.662" stroke="hsl(180.0,100%,35%)" stroke-width="0.00034"></path>
<path d="M1.104 0.248 Q0.905 0.268 0.900 0.369" stroke="hsl(180.0,100%,35%)" stroke-width="0.00102"></path>
<path d="M0.516 0.538 Q0.671 0.578 0.783 0.512" stroke="hsl(180.0,100%,35%)" stroke-width="0.00068"></path>
<path d="M0.516 0.538 Q0.912 0.441 0.809 0.227" stroke="hsl(180.0,100%,35%)" stroke-width="0.00102"></path>
<path d="M0.516 0.538 Q0.385 0.536 0.351 0.599" stroke="hsl(180.0,100%,35%)" stroke-width="0.00102"></path>
<path d="M0.516 0.538 Q0.844 0.530 0.900 0.369" stroke="hsl(180.0,100%,35%)" stroke-width="0.00068"></path>
<path d="M0.516 0.538 Q0.226 0.552 0.190 0.697" stroke="hsl(180.0,100%,35%)" stroke-width="0.00102"></path>
<path d="M0.409 0.802 Q1.069 0.595 0.809 0.227" stroke="hsl(180.0,100%,35%)" stroke-width="0.00068"></path>
<path d="M0.409 0.802 Q0.543 0.689 0.351 0.599" stroke="hsl(180.0,100%,35%)" stroke-width="0.00102"></path>
<path d="M0.409 0.802 Q0.697 0.990 1.127 0.891" stroke="hsl(180.0,100%,35%)" stroke-width="0.00034"></path>
<path d="M0.409 0.802 Q0.828 0.732 0.783 0.512" stroke="hsl(180.0,100%,35%)" stroke-width="0.00034"></path>
<path d="M0.409 0.802 Q1.132 0.493 0.687 0.072" stroke="hsl(180.0,100%,35%)" stroke-width="0.00034"></path>
<path d="M1.017 1.006 Q1.164 0.971 1.127 0.891" stroke="hsl(0.0,100%,35%)" stroke-width="0.01696"></path>
<path d="M1.017 1.006 Q1.157 0.556 0.309 0.389" stroke="hsl(0.0,100%,35%)" stroke-width="0.00170"></path>
<path d="M1.017 1.006 Q1.295 0.712 0.783 0.512" stroke="hsl(0.0,100%,35%)" stroke-width="0.00882"></path>
<path d="M1.017 1.006 Q1.702 1.024 1.888 0.694" stroke="hsl(0.0,100%,35%)" stroke-width="0.00136"></path>
<path d="M1.017 1.006 Q1.600 0.473 0.687 0.072" stroke="hsl(0.0,100%,35%)" stroke-width="0.00034"></path>
<path d="M1.017 1.006 Q1.761 0.713 1.351 0.286" stroke="hsl(0.0,100%,35%)" stroke-width="0.00034"></path>
<path d="M0.440 0.347 Q0.348 0.757 1.127 0.891" stroke="hsl(0.0,100%,35%)" stroke-width="0.00984"></path>
<path d="M0.440 0.347 Q0.182 0.693 0.801 0.895" stroke="hsl(0.0,100%,35%)" stroke-width="0.00746"></path>
<path d="M0.440 0.347 Q0.380 0.572 0.806 0.651" stroke="hsl(0.0,100%,35%)" stroke-width="0.00034"></path>
<path d="M0.440 0.347 Q0.479 0.498 0.783 0.512" stroke="hsl(0.0,100%,35%)" stroke-width="0.00814"></path>
<path d="M0.801 0.895 Q0.967 0.959 1.127 0.891" stroke="hsl(0.0,100%,35%)" stroke-width="0.00373"></path>
<path d="M0.801 0.895 Q1.059 0.549 0.440 0.347" stroke="hsl(0.0,100%,35%)" stroke-width="0.00271"></path>
<path d="M0.801 0.895 Q1.098 0.700 0.783 0.512" stroke="hsl(0.0,100%,35%)" stroke-width="0.00102"></path>
<path d="M1.351 0.286 Q0.886 0.285 0.783 0.512" stroke="hsl(0.0,100%,35%)" stroke-width="0.00068"></path>
<path d="M1.351 0.286 Q0.755 0.544 1.127 0.891" stroke="hsl(0.0,100%,35%)" stroke-width="0.00068"></path>
<path d="M1.351 0.286 Q0.747 0.129 0.309 0.389" stroke="hsl(0.0,100%,35%)" stroke-width="0.00034"></path>
<path d="M1.351 0.286 Q1.293 0.597 1.888 0.694" stroke="hsl(0.0,100%,35%)" stroke-width="0.00102"></path>
<path d="M0.702 0.253 Q1.262 0.326 1.527 0.069" stroke="hsl(0.0,100%,35%)" stroke-width="0.00034"></path>
<path d="M0.702 0.253 Q0.249 0.356 0.351 0.599" stroke="hsl(0.0,100%,35%)" stroke-width="0.00034"></path>
<path d="M0.702 0.253 Q0.404 0.657 1.127 0.891" stroke="hsl(0.0,100%,35%)" stroke-width="0.00034"></path>
<path d="M0.702 0.253 Q0.535 0.398 0.783 0.512" stroke="hsl(0.0,100%,35%)" stroke-width="0.00068"></path>
<path d="M0.702 0.253 Q0.938 0.458 1.391 0.388" stroke="hsl(0.0,100%,35%)" stroke-width="0.00034"></path>
<path d="M1.391 0.388 Q1.453 0.329 1.351 0.286" stroke="hsl(0.0,100%,35%)" stroke-width="0.00068"></path>
<path d="M1.391 0.388 Q0.987 0.328 0.783 0.512" stroke="hsl(0.0,100%,35%)" stroke-width="0.00034"></path>
<path d="M1.391 0.388 Q0.856 0.587 1.127 0.891" stroke="hsl(0.0,100%,35%)" stroke-width="0.00034"></path>
<path d="M0.355 0.343 Q0.434 0.513 0.783 0.512" stroke="hsl(180.0,100%,35%)" stroke-width="0.00102"></path>
<path d="M0.355 0.343 Q0.149 0.470 0.351 0.599" stroke="hsl(180.0,100%,35%)" stroke-width="0.00068"></path>
<path d="M0.355 0.343 Q0.675 0.376 0.809 0.227" stroke="hsl(180.0,100%,35%)" stroke-width="0.00034"></path>
<path d="M0.355 0.343 Q0.303 0.772 1.127 0.891" stroke="hsl(180.0,100%,35%)" stroke-width="0.00034"></path>
<path d="M0.355 0.343 Q0.739 0.274 0.687 0.072" stroke="hsl(180.0,100%,35%)" stroke-width="0.00034"></path>
<path d="M1.629 0.265 Q0.564 0.193 0.190 0.697" stroke="hsl(180.0,100%,35%)" stroke-width="0.00034"></path>
<path d="M1.629 0.265 Q0.723 0.176 0.351 0.599" stroke="hsl(180.0,100%,35%)" stroke-width="0.00068"></path>
<path d="M1.629 0.265 Q1.735 0.146 1.527 0.069" stroke="hsl(180.0,100%,35%)" stroke-width="0.00034"></path>
<path d="M0.545 0.312 Q0.530 0.321 0.543 0.330" stroke="hsl(0.0,100%,35%)" stroke-width="0.00068"></path>
<path d="M0.545 0.312 Q0.504 0.460 0.783 0.512" stroke="hsl(0.0,100%,35%)" stroke-width="0.00407"></path>
<path d="M0.545 0.312 Q0.373 0.718 1.127 0.891" stroke="hsl(0.0,100%,35%)" stroke-width="0.00271"></path>
<path d="M0.215 0.804 Q0.288 0.745 0.190 0.697" stroke="hsl(180.0,100%,35%)" stroke-width="0.00102"></path>
<path d="M0.215 0.804 Q0.326 0.819 0.381 0.769" stroke="hsl(180.0,100%,35%)" stroke-width="0.00068"></path>
<path d="M0.215 0.804 Q0.732 0.771 0.783 0.512" stroke="hsl(180.0,100%,35%)" stroke-width="0.00034"></path>
<path d="M0.473 0.358 Q0.374 0.755 1.127 0.891" stroke="hsl(0.0,100%,35%)" stroke-width="0.00068"></path>
<path d="M0.473 0.358 Q0.505 0.497 0.783 0.512" stroke="hsl(0.0,100%,35%)" stroke-width="0.00170"></path>
<path d="M0.473 0.358 Q0.060 0.471 0.190 0.697" stroke="hsl(0.0,100%,35%)" stroke-width="0.00034"></path>
<path d="M0.473 0.358 Q0.531 0.358 0.543 0.330" stroke="hsl(0.0,100%,35%)" stroke-width="0.00034"></path>
<path d="M0.595 0.867 Q1.146 0.679 0.900 0.369" stroke="hsl(180.0,100%,35%)" stroke-width="0.00034"></path>
<path d="M0.595 0.867 Q0.973 0.727 0.783 0.512" stroke="hsl(180.0,100%,35%)" stroke-width="0.00102"></path>
<path d="M0.595 0.867 Q0.687 0.685 0.351 0.599" stroke="hsl(180.0,100%,35%)" stroke-width="0.00068"></path>
<path d="M0.693 0.276 Q0.549 0.412 0.783 0.512" stroke="hsl(180.0,100%,35%)" stroke-width="0.00237"></path>
<path d="M0.693 0.276 Q0.263 0.369 0.351 0.599" stroke="hsl(180.0,100%,35%)" stroke-width="0.00068"></path>
<path d="M0.693 0.276 Q0.790 0.275 0.809 0.227" stroke="hsl(180.0,100%,35%)" stroke-width="0.00034"></path>
<path d="M0.693 0.276 Q0.104 0.386 0.190 0.697" stroke="hsl(180.0,100%,35%)" stroke-width="0.00102"></path>
<path d="M0.693 0.276 Q0.418 0.671 1.127 0.891" stroke="hsl(180.0,100%,35%)" stroke-width="0.00068"></path>
<path d="M0.693 0.276 Q0.722 0.364 0.900 0.369" stroke="hsl(180.0,100%,35%)" stroke-width="0.00068"></path>
<path d="M0.693 0.276 Q0.337 0.450 0.599 0.662" stroke="hsl(180.0,100%,35%)" stroke-width="0.00034"></path>
<path d="M0.996 0.021 Q0.397 0.298 0.806 0.651" stroke="hsl(180.0,100%,35%)" stroke-width="0.00068"></path>
<path d="M0.996 0.021 Q0.801 -0.015 0.687 0.072" stroke="hsl(180.0,100%,35%)" stroke-width="0.00237"></path>
<path d="M0.996 0.021 Q0.052 0.198 0.190 0.697" stroke="hsl(180.0,100%,35%)" stroke-width="0.00068"></path>
<path d="M0.996 0.021 Q0.497 0.224 0.783 0.512" stroke="hsl(180.0,100%,35%)" stroke-width="0.00034"></path>
<path d="M0.996 0.021 Q0.670 0.176 0.900 0.369" stroke="hsl(180.0,100%,35%)" stroke-width="0.00034"></path>
<path d="M0.996 0.021 Q0.365 0.482 1.127 0.891" stroke="hsl(180.0,100%,35%)" stroke-width="0.00068"></path>
<path d="M1.430 0.524 Q1.273 0.604 1.395 0.699" stroke="hsl(0.0,100%,35%)" stroke-width="0.00034"></path>
<path d="M1.430 0.524 Q0.985 0.647 1.127 0.891" stroke="hsl(0.0,100%,35%)" stroke-width="0.00034"></path>
<path d="M1.430 0.524 Q0.837 0.682 1.017 1.006" stroke="hsl(0.0,100%,35%)" stroke-width="0.00034"></path>
<path d="M1.430 0.524 Q1.116 0.388 0.783 0.512" stroke="hsl(0.0,100%,35%)" stroke-width="0.00034"></path>
<path d="M0.348 0.258 Q0.362 0.472 0.783 0.512" stroke="hsl(180.0,100%,35%)" stroke-width="0.00339"></path>
<path d="M0.348 0.258 Q0.077 0.429 0.351 0.599" stroke="hsl(180.0,100%,35%)" stroke-width="0.00034"></path>
<path d="M0.348 0.258 Q0.535 0.424 0.900 0.369" stroke="hsl(180.0,100%,35%)" stroke-width="0.00068"></path>
<path d="M0.348 0.258 Q0.231 0.730 1.127 0.891" stroke="hsl(180.0,100%,35%)" stroke-width="0.00034"></path>
<path d="M0.348 0.258 Q-0.083 0.446 0.190 0.697" stroke="hsl(180.0,100%,35%)" stroke-width="0.00034"></path>
<path d="M0.348 0.258 Q0.603 0.335 0.809 0.227" stroke="hsl(180.0,100%,35%)" stroke-width="0.00034"></path>
<path d="M0.348 0.258 Q0.224 0.316 0.309 0.389" stroke="hsl(180.0,100%,35%)" stroke-width="0.00102"></path>
<path d="M0.505 0.259 Q-0.003 0.415 0.190 0.697" stroke="hsl(180.0,100%,35%)" stroke-width="0.00034"></path>
<path d="M0.505 0.259 Q0.441 0.441 0.783 0.512" stroke="hsl(180.0,100%,35%)" stroke-width="0.00068"></path>
<path d="M0.505 0.259 Q0.614 0.393 0.900 0.369" stroke="hsl(180.0,100%,35%)" stroke-width="0.00034"></path>
<path d="M1.093 0.626 Q1.029 0.507 0.783 0.512" stroke="hsl(180.0,100%,35%)" stroke-width="0.00475"></path>
<path d="M1.093 0.626 Q1.202 0.459 0.900 0.369" stroke="hsl(180.0,100%,35%)" stroke-width="0.00170"></path>
<path d="M1.093 0.626 Q1.333 0.268 0.687 0.072" stroke="hsl(180.0,100%,35%)" stroke-width="0.00034"></path>
<path d="M1.093 0.626 Q0.743 0.464 0.351 0.599" stroke="hsl(180.0,100%,35%)" stroke-width="0.00034"></path>
<path d="M1.093 0.626 Q1.270 0.369 0.809 0.227" stroke="hsl(180.0,100%,35%)" stroke-width="0.00034"></path>
<path d="M1.093 0.626 Q0.898 0.765 1.127 0.891" stroke="hsl(180.0,100%,35%)" stroke-width="0.00034"></path>
<path d="M1.093 0.626 Q1.134 0.379 0.663 0.305" stroke="hsl(180.0,100%,35%)" stroke-width="0.00034"></path>
<path d="M1.093 0.626 Q0.891 0.350 0.309 0.389" stroke="hsl(180.0,100%,35%)" stroke-width="0.00034"></path>
<path d="M1.093 0.626 Q0.584 0.481 0.190 0.697" stroke="hsl(180.0,100%,35%)" stroke-width="0.00034"></path>
<path d="M0.205 0.337 Q0.354 0.540 0.783 0.512" stroke="hsl(180.0,100%,35%)" stroke-width="0.00305"></path>
<path d="M0.205 0.337 Q0.216 0.384 0.309 0.389" stroke="hsl(180.0,100%,35%)" stroke-width="0.00034"></path>
<path d="M0.205 0.337 Q0.527 0.492 0.900 0.369" stroke="hsl(180.0,100%,35%)" stroke-width="0.00136"></path>
<path d="M0.205 0.337 Q0.223 0.798 1.127 0.891" stroke="hsl(180.0,100%,35%)" stroke-width="0.00102"></path>
<path d="M0.205 0.337 Q0.595 0.403 0.809 0.227" stroke="hsl(180.0,100%,35%)" stroke-width="0.00034"></path>
<path d="M0.935 0.279 Q0.672 0.365 0.783 0.512" stroke="hsl(0.0,100%,35%)" stroke-width="0.00102"></path>
<path d="M0.935 0.279 Q0.541 0.623 1.127 0.891" stroke="hsl(0.0,100%,35%)" stroke-width="0.00068"></path>
<path d="M0.935 0.279 Q0.608 0.254 0.489 0.408" stroke="hsl(0.0,100%,35%)" stroke-width="0.00034"></path>
<path d="M0.753 0.590 Q0.699 0.815 1.127 0.891" stroke="hsl(0.0,100%,35%)" stroke-width="0.00441"></path>
<path d="M0.753 0.590 Q0.830 0.557 0.783 0.512" stroke="hsl(0.0,100%,35%)" stroke-width="0.00543"></path>
<path d="M0.753 0.590 Q1.135 0.318 0.687 0.072" stroke="hsl(0.0,100%,35%)" stroke-width="0.00068"></path>
<path d="M0.753 0.590 Q0.856 0.418 0.543 0.330" stroke="hsl(0.0,100%,35%)" stroke-width="0.00034"></path>
<path d="M0.073 0.781 Q0.198 0.762 0.190 0.697" stroke="hsl(180.0,100%,35%)" stroke-width="0.00068"></path>
<path d="M0.073 0.781 Q0.544 0.863 0.806 0.651" stroke="hsl(180.0,100%,35%)" stroke-width="0.00034"></path>
<path d="M0.073 0.781 Q0.816 0.740 0.900 0.369" stroke="hsl(180.0,100%,35%)" stroke-width="0.00034"></path>
<path d="M0.073 0.781 Q1.015 0.721 1.104 0.248" stroke="hsl(180.0,100%,35%)" stroke-width="0.00034"></path>
<path d="M0.318 0.263 Q0.352 0.480 0.783 0.512" stroke="hsl(180.0,100%,35%)" stroke-width="0.00305"></path>
<path d="M0.318 0.263 Q0.213 0.324 0.309 0.389" stroke="hsl(180.0,100%,35%)" stroke-width="0.00034"></path>
<path d="M0.318 0.263 Q0.525 0.432 0.900 0.369" stroke="hsl(180.0,100%,35%)" stroke-width="0.00102"></path>
<path d="M0.318 0.263 Q0.220 0.739 1.127 0.891" stroke="hsl(180.0,100%,35%)" stroke-width="0.00034"></path>
<path d="M0.318 0.263 Q0.066 0.438 0.351 0.599" stroke="hsl(180.0,100%,35%)" stroke-width="0.00068"></path>
<path d="M0.614 0.614 Q0.599 0.613 0.594 0.621" stroke="hsl(180.0,100%,35%)" stroke-width="0.00034"></path>
<path d="M0.614 0.614 Q0.780 0.597 0.783 0.512" stroke="hsl(180.0,100%,35%)" stroke-width="0.00237"></path>
<path d="M0.614 0.614 Q1.085 0.358 0.687 0.072" stroke="hsl(180.0,100%,35%)" stroke-width="0.00068"></path>
<path d="M0.614 0.614 Q0.495 0.554 0.351 0.599" stroke="hsl(180.0,100%,35%)" stroke-width="0.00034"></path>
<path d="M0.614 0.614 Q0.649 0.855 1.127 0.891" stroke="hsl(180.0,100%,35%)" stroke-width="0.00034"></path>
<path d="M0.614 0.614 Q1.507 0.524 1.527 0.069" stroke="hsl(180.0,100%,35%)" stroke-width="0.00034"></path>
<path d="M0.614 0.614 Q0.953 0.549 0.900 0.369" stroke="hsl(180.0,100%,35%)" stroke-width="0.00034"></path>
<path d="M0.240 0.833 Q0.323 0.755 0.190 0.697" stroke="hsl(180.0,100%,35%)" stroke-width="0.00102"></path>
<path d="M0.240 0.833 Q0.668 0.855 0.806 0.651" stroke="hsl(180.0,100%,35%)" stroke-width="0.00034"></path>
<path d="M0.240 0.833 Q0.482 0.738 0.351 0.599" stroke="hsl(180.0,100%,35%)" stroke-width="0.00034"></path>
<path d="M0.240 0.833 Q1.495 0.708 1.527 0.069" stroke="hsl(180.0,100%,35%)" stroke-width="0.00034"></path>
<path d="M0.240 0.833 Q0.768 0.781 0.783 0.512" stroke="hsl(180.0,100%,35%)" stroke-width="0.00034"></path>
<path d="M0.240 0.833 Q1.009 0.644 0.809 0.227" stroke="hsl(180.0,100%,35%)" stroke-width="0.00034"></path>
<path d="M0.503 0.509 Q0.502 0.410 0.309 0.389" stroke="hsl(180.0,100%,35%)" stroke-width="0.00102"></path>
<path d="M0.503 0.509 Q0.640 0.566 0.783 0.512" stroke="hsl(180.0,100%,35%)" stroke-width="0.00441"></path>
<path d="M0.503 0.509 Q0.882 0.429 0.809 0.227" stroke="hsl(180.0,100%,35%)" stroke-width="0.00102"></path>
<path d="M0.503 0.509 Q0.813 0.518 0.900 0.369" stroke="hsl(180.0,100%,35%)" stroke-width="0.00204"></path>
<path d="M0.503 0.509 Q0.196 0.540 0.190 0.697" stroke="hsl(180.0,100%,35%)" stroke-width="0.00102"></path>
<path d="M0.503 0.509 Q0.509 0.825 1.127 0.891" stroke="hsl(180.0,100%,35%)" stroke-width="0.00068"></path>
<path d="M0.503 0.509 Q0.541 0.641 0.806 0.651" stroke="hsl(180.0,100%,35%)" stroke-width="0.00034"></path>
<path d="M0.503 0.509 Q0.355 0.524 0.351 0.599" stroke="hsl(180.0,100%,35%)" stroke-width="0.00034"></path>
<path d="M0.708 0.258 Q0.542 0.400 0.783 0.512" stroke="hsl(180.0,100%,35%)" stroke-width="0.00170"></path>
<path d="M0.708 0.258 Q0.847 0.161 0.687 0.072" stroke="hsl(180.0,100%,35%)" stroke-width="0.00034"></path>
<path d="M0.708 0.258 Q0.783 0.262 0.809 0.227" stroke="hsl(180.0,100%,35%)" stroke-width="0.00102"></path>
<path d="M0.708 0.258 Q0.411 0.658 1.127 0.891" stroke="hsl(180.0,100%,35%)" stroke-width="0.00034"></path>
<path d="M0.277 0.354 Q0.272 0.793 1.127 0.891" stroke="hsl(180.0,100%,35%)" stroke-width="0.00136"></path>
<path d="M0.277 0.354 Q0.403 0.534 0.783 0.512" stroke="hsl(180.0,100%,35%)" stroke-width="0.00509"></path>
<path d="M0.277 0.354 Q0.576 0.486 0.900 0.369" stroke="hsl(180.0,100%,35%)" stroke-width="0.00136"></path>
<path d="M0.277 0.354 Q0.644 0.397 0.809 0.227" stroke="hsl(180.0,100%,35%)" stroke-width="0.00102"></path>
<path d="M0.277 0.354 Q0.118 0.491 0.351 0.599" stroke="hsl(180.0,100%,35%)" stroke-width="0.00136"></path>
<path d="M0.277 0.354 Q-0.042 0.508 0.190 0.697" stroke="hsl(180.0,100%,35%)" stroke-width="0.00034"></path>
<path d="M0.277 0.354 Q0.191 0.572 0.599 0.662" stroke="hsl(180.0,100%,35%)" stroke-width="0.00034"></path>
<path d="M0.857 0.034 Q0.742 0.019 0.687 0.072" stroke="hsl(180.0,100%,35%)" stroke-width="0.00271"></path>
<path d="M0.857 0.034 Q0.338 0.332 0.806 0.651" stroke="hsl(180.0,100%,35%)" stroke-width="0.00034"></path>
<path d="M0.857 0.034 Q0.437 0.258 0.783 0.512" stroke="hsl(180.0,100%,35%)" stroke-width="0.00237"></path>
<path d="M0.857 0.034 Q0.306 0.516 1.127 0.891" stroke="hsl(180.0,100%,35%)" stroke-width="0.00034"></path>
<path d="M0.857 0.034 Q-0.007 0.232 0.190 0.697" stroke="hsl(180.0,100%,35%)" stroke-width="0.00034"></path>
<path d="M0.969 0.612 Q0.956 0.525 0.783 0.512" stroke="hsl(180.0,100%,35%)" stroke-width="0.00271"></path>
<path d="M0.969 0.612 Q1.129 0.476 0.900 0.369" stroke="hsl(180.0,100%,35%)" stroke-width="0.00136"></path>
<path d="M0.969 0.612 Q0.744 0.563 0.599 0.662" stroke="hsl(180.0,100%,35%)" stroke-width="0.00034"></path>
<path d="M0.969 0.612 Q0.818 0.368 0.309 0.389" stroke="hsl(180.0,100%,35%)" stroke-width="0.00034"></path>
<path d="M0.969 0.612 Q1.197 0.387 0.809 0.227" stroke="hsl(180.0,100%,35%)" stroke-width="0.00034"></path>
<path d="M0.505 0.045 Q0.171 0.408 0.806 0.651" stroke="hsl(180.0,100%,35%)" stroke-width="0.00034"></path>
<path d="M0.505 0.045 Q0.575 0.095 0.687 0.072" stroke="hsl(180.0,100%,35%)" stroke-width="0.00068"></path>
<path d="M0.505 0.045 Q0.512 0.197 0.809 0.227" stroke="hsl(180.0,100%,35%)" stroke-width="0.00034"></path>
<path d="M0.505 0.045 Q0.139 0.593 1.127 0.891" stroke="hsl(180.0,100%,35%)" stroke-width="0.00034"></path>
<path d="M0.505 0.045 Q0.270 0.334 0.783 0.512" stroke="hsl(180.0,100%,35%)" stroke-width="0.00034"></path>
<path d="M0.656 0.596 Q0.787 0.579 0.783 0.512" stroke="hsl(180.0,100%,35%)" stroke-width="0.00305"></path>
<path d="M0.656 0.596 Q0.656 0.838 1.127 0.891" stroke="hsl(180.0,100%,35%)" stroke-width="0.00068"></path>
<path d="M0.656 0.596 Q0.960 0.531 0.900 0.369" stroke="hsl(180.0,100%,35%)" stroke-width="0.00102"></path>
<path d="M0.656 0.596 Q0.501 0.537 0.351 0.599" stroke="hsl(180.0,100%,35%)" stroke-width="0.00034"></path>
<path d="M0.538 0.432 Q0.770 0.473 0.900 0.369" stroke="hsl(180.0,100%,35%)" stroke-width="0.00034"></path>
<path d="M0.538 0.432 Q0.597 0.521 0.783 0.512" stroke="hsl(180.0,100%,35%)" stroke-width="0.00237"></path>
<path d="M0.538 0.432 Q0.465 0.779 1.127 0.891" stroke="hsl(180.0,100%,35%)" stroke-width="0.00102"></path>
<path d="M0.538 0.432 Q0.458 0.365 0.309 0.389" stroke="hsl(180.0,100%,35%)" stroke-width="0.00034"></path>
<path d="M0.538 0.432 Q0.838 0.384 0.809 0.227" stroke="hsl(180.0,100%,35%)" stroke-width="0.00034"></path>
<path d="M0.673 0.272 Q0.324 0.452 0.599 0.662" stroke="hsl(180.0,100%,35%)" stroke-width="0.00034"></path>
<path d="M0.673 0.272 Q0.536 0.414 0.783 0.512" stroke="hsl(180.0,100%,35%)" stroke-width="0.00814"></path>
<path d="M0.673 0.272 Q0.777 0.277 0.809 0.227" stroke="hsl(180.0,100%,35%)" stroke-width="0.00136"></path>
<path d="M0.673 0.272 Q0.840 0.175 0.687 0.072" stroke="hsl(180.0,100%,35%)" stroke-width="0.00136"></path>
<path d="M0.673 0.272 Q0.709 0.366 0.900 0.369" stroke="hsl(180.0,100%,35%)" stroke-width="0.00102"></path>
<path d="M0.673 0.272 Q0.436 0.488 0.806 0.651" stroke="hsl(180.0,100%,35%)" stroke-width="0.00034"></path>
<path d="M0.673 0.272 Q0.405 0.672 1.127 0.891" stroke="hsl(180.0,100%,35%)" stroke-width="0.00237"></path>
<path d="M0.673 0.272 Q0.091 0.388 0.190 0.697" stroke="hsl(180.0,100%,35%)" stroke-width="0.00170"></path>
<path d="M0.673 0.272 Q0.398 0.258 0.309 0.389" stroke="hsl(180.0,100%,35%)" stroke-width="0.00034"></path>
<path d="M0.673 0.272 Q0.250 0.371 0.351 0.599" stroke="hsl(180.0,100%,35%)" stroke-width="0.00068"></path>
</g>
<text x="0.543" y="0.316" font-size="0.027464" fill="hsl(0.0,100%,20%)">a.annestrand</text>
<text x="1.127" y="0.862" font-size="0.058931" fill="hsl(0.0,100%,20%)">geofflang</text>
<text x="0.783" y="0.463" font-size="0.098139" fill="hsl(180.0,100%,20%)">syoussefi</text>
<text x="0.190" y="0.673" font-size="0.048088" fill="hsl(180.0,100%,20%)">cnorthrop</text>
<text x="0.900" y="0.340" font-size="0.058507" fill="hsl(180.0,100%,20%)">cclao</text>
<text x="0.687" y="0.056" font-size="0.031406" fill="hsl(180.0,100%,20%)">ynovikov</text>
<text x="0.489" y="0.394" font-size="0.028061" fill="hsl(0.0,100%,20%)">g.tammana</text>
<text x="0.550" y="0.515" font-size="0.015234" fill="hsl(0.0,100%,20%)">a.dean1</text>
<text x="0.806" y="0.634" font-size="0.033820" fill="hsl(180.0,100%,20%)">romanl</text>
<text x="0.809" y="0.201" font-size="0.052061" fill="hsl(180.0,100%,20%)">abdolrashidi</text>
<text x="0.351" y="0.573" font-size="0.051821" fill="hsl(180.0,100%,20%)">yuxinhu</text>
<text x="0.599" y="0.647" font-size="0.028933" fill="hsl(180.0,100%,20%)">m.maiya</text>
<text x="0.663" y="0.289" font-size="0.031274" fill="hsl(180.0,100%,20%)">i.nazarov</text>
<text x="0.327" y="0.269" font-size="0.014395" fill="hsl(180.0,100%,20%)">aurora.zhang</text>
<text x="1.888" y="0.685" font-size="0.017274" fill="hsl(180.0,100%,20%)">kbr</text>
<text x="1.651" y="0.637" font-size="0.018434" fill="hsl(180.0,100%,20%)">chris</text>
<text x="0.309" y="0.371" font-size="0.035958" fill="hsl(180.0,100%,20%)">lexa.knyazev</text>
<text x="0.381" y="0.755" font-size="0.026386" fill="hsl(180.0,100%,20%)">mark</text>
<text x="1.527" y="0.062" font-size="0.014104" fill="hsl(180.0,100%,20%)">solti</text>
<text x="1.104" y="0.235" font-size="0.025426" fill="hsl(180.0,100%,20%)">timvp</text>
<text x="0.516" y="0.533" font-size="0.011516" fill="hsl(180.0,100%,20%)">xwxw</text>
<text x="0.409" y="0.798" font-size="0.008143" fill="hsl(180.0,100%,20%)">dloehr</text>
<text x="1.017" y="0.993" font-size="0.027312" fill="hsl(0.0,100%,20%)">kkinnunen</text>
<text x="0.440" y="0.333" font-size="0.028790" fill="hsl(0.0,100%,20%)">mpdenton</text>
<text x="1.304" y="0.902" font-size="0.004071" fill="hsl(0.0,100%,20%)">senorblanco</text>
<text x="0.801" y="0.884" font-size="0.023032" fill="hsl(0.0,100%,20%)">liza</text>
<text x="1.351" y="0.280" font-size="0.011150" fill="hsl(0.0,100%,20%)">lehoangquyen</text>
<text x="1.395" y="0.694" font-size="0.009104" fill="hsl(0.0,100%,20%)">cwallez</text>
<text x="1.567" y="0.877" font-size="0.002879" fill="hsl(0.0,100%,20%)">blundell</text>
<text x="0.791" y="0.963" font-size="0.004071" fill="hsl(0.0,100%,20%)">vasilyt</text>
<text x="0.978" y="0.913" font-size="0.004071" fill="hsl(0.0,100%,20%)">avi</text>
<text x="0.702" y="0.249" font-size="0.007052" fill="hsl(0.0,100%,20%)">gyuyoung</text>
<text x="1.391" y="0.384" font-size="0.006438" fill="hsl(0.0,100%,20%)">sunnyps</text>
<text x="0.355" y="0.339" font-size="0.008143" fill="hsl(180.0,100%,20%)">hans</text>
<text x="1.629" y="0.261" font-size="0.007052" fill="hsl(180.0,100%,20%)">hibrian</text>
<text x="0.545" y="0.305" font-size="0.013504" fill="hsl(0.0,100%,20%)">hoonee.cho</text>
<text x="0.215" y="0.800" font-size="0.007052" fill="hsl(180.0,100%,20%)">hoyeon.lim</text>
<text x="0.473" y="0.354" font-size="0.008637" fill="hsl(0.0,100%,20%)">jh.eun</text>
<text x="0.595" y="0.864" font-size="0.007052" fill="hsl(180.0,100%,20%)">jiaqi.li</text>
<text x="0.693" y="0.270" font-size="0.012214" fill="hsl(180.0,100%,20%)">jisunnie.lee</text>
<text x="0.996" y="0.015" font-size="0.011150" fill="hsl(180.0,100%,20%)">jwata</text>
<text x="1.430" y="0.521" font-size="0.005758" fill="hsl(0.0,100%,20%)">lichenliu</text>
<text x="0.528" y="0.701" font-size="0.002879" fill="hsl(180.0,100%,20%)">ianelliott</text>
<text x="0.348" y="0.251" font-size="0.012549" fill="hsl(180.0,100%,20%)">mavis.deng</text>
<text x="0.505" y="0.256" font-size="0.005758" fill="hsl(180.0,100%,20%)">msta</text>
<text x="1.093" y="0.618" font-size="0.014680" fill="hsl(180.0,100%,20%)">neil.zhang</text>
<text x="0.205" y="0.331" font-size="0.012214" fill="hsl(180.0,100%,20%)">panfeng.hou</text>
<text x="0.935" y="0.275" font-size="0.007052" fill="hsl(0.0,100%,20%)">r.husain</text>
<text x="0.753" y="0.582" font-size="0.016286" fill="hsl(0.0,100%,20%)">r.khurram</text>
<text x="0.073" y="0.778" font-size="0.006438" fill="hsl(180.0,100%,20%)">renatopereyra</text>
<text x="0.318" y="0.258" font-size="0.011516" fill="hsl(180.0,100%,20%)">robic.sun</text>
<text x="0.696" y="0.712" font-size="0.002879" fill="hsl(180.0,100%,20%)">egdaniel</text>
<text x="0.614" y="0.609" font-size="0.010772" fill="hsl(180.0,100%,20%)">rop</text>
<text x="0.594" y="0.619" font-size="0.002879" fill="hsl(180.0,100%,20%)">qjw</text>
<text x="0.240" y="0.829" font-size="0.008143" fill="hsl(180.0,100%,20%)">shawshanks</text>
<text x="0.503" y="0.501" font-size="0.016286" fill="hsl(180.0,100%,20%)">shufen.ma</text>
<text x="0.708" y="0.253" font-size="0.009104" fill="hsl(180.0,100%,20%)">steven</text>
<text x="0.566" y="0.611" font-size="0.002879" fill="hsl(180.0,100%,20%)">natsu</text>
<text x="0.277" y="0.346" font-size="0.016286" fill="hsl(180.0,100%,20%)">sywow.choi</text>
<text x="0.857" y="0.028" font-size="0.012214" fill="hsl(180.0,100%,20%)">tikuta</text>
<text x="0.969" y="0.606" font-size="0.011150" fill="hsl(180.0,100%,20%)">tingwei.guo</text>
<text x="0.505" y="0.042" font-size="0.007052" fill="hsl(180.0,100%,20%)">victorvianna</text>
<text x="0.656" y="0.590" font-size="0.011150" fill="hsl(180.0,100%,20%)">xin.yuan</text>
<text x="0.538" y="0.427" font-size="0.010380" fill="hsl(180.0,100%,20%)">xinyu.fang</text>
<text x="0.305" y="0.114" font-size="0.007617" fill="hsl(180.0,100%,20%)">bsheedy</text>
<text x="0.673" y="0.262" font-size="0.020761" fill="hsl(180.0,100%,20%)">yuxiang.qian</text>
<text x="0.415" y="0.611" font-size="0.002879" fill="hsl(180.0,100%,20%)">zijunzhao</text>
</svg>
