<svg width="4000" height="2000" viewBox="-0.025 -0.025 2.05 1.05" xmlns="http://www.w3.org/2000/svg">
  <style>
    path {
      fill: none;
      stroke-linecap: round;
      stroke-opacity: 0.4;
    }

    text {
      text-anchor: middle;
      alignment-baseline: hanging;
    }
  </style>
  <g opacity="0.4">
<path d="M0.057 0.735 Q0.683 0.820 0.986 0.533" stroke="hsl(0.0,100%,35%)" stroke-width="0.00112"></path>
<path d="M0.057 0.735 Q0.084 0.803 0.224 0.805" stroke="hsl(0.0,100%,35%)" stroke-width="0.00112"></path>
<path d="M0.057 0.735 Q0.740 0.979 1.366 0.699" stroke="hsl(0.0,100%,35%)" stroke-width="0.00045"></path>
<path d="M0.986 0.533 Q0.978 0.606 1.118 0.626" stroke="hsl(0.0,100%,35%)" stroke-width="0.00941"></path>
<path d="M0.986 0.533 Q0.794 0.611 0.903 0.721" stroke="hsl(0.0,100%,35%)" stroke-width="0.00224"></path>
<path d="M0.986 0.533 Q0.866 0.322 0.428 0.335" stroke="hsl(0.0,100%,35%)" stroke-width="0.00269"></path>
<path d="M0.986 0.533 Q0.667 0.458 0.451 0.598" stroke="hsl(0.0,100%,35%)" stroke-width="0.02331"></path>
<path d="M0.986 0.533 Q0.973 0.642 1.182 0.672" stroke="hsl(0.0,100%,35%)" stroke-width="0.02532"></path>
<path d="M0.986 0.533 Q1.178 0.496 1.147 0.395" stroke="hsl(0.0,100%,35%)" stroke-width="0.00583"></path>
<path d="M0.986 0.533 Q0.481 0.411 0.132 0.631" stroke="hsl(0.0,100%,35%)" stroke-width="0.03563"></path>
<path d="M0.986 0.533 Q1.187 0.436 1.040 0.317" stroke="hsl(0.0,100%,35%)" stroke-width="0.00022"></path>
<path d="M0.986 0.533 Q1.044 0.692 1.366 0.699" stroke="hsl(0.0,100%,35%)" stroke-width="0.00672"></path>
<path d="M0.986 0.533 Q1.014 0.366 0.695 0.316" stroke="hsl(0.0,100%,35%)" stroke-width="0.03272"></path>
<path d="M0.986 0.533 Q0.672 0.310 0.167 0.414" stroke="hsl(0.0,100%,35%)" stroke-width="0.00112"></path>
<path d="M0.986 0.533 Q1.088 0.587 1.215 0.550" stroke="hsl(0.0,100%,35%)" stroke-width="0.00112"></path>
<path d="M0.986 0.533 Q1.293 0.438 1.175 0.268" stroke="hsl(0.0,100%,35%)" stroke-width="0.00134"></path>
<path d="M0.986 0.533 Q1.235 0.530 1.283 0.408" stroke="hsl(0.0,100%,35%)" stroke-width="0.00045"></path>
<path d="M0.986 0.533 Q0.889 0.568 0.935 0.623" stroke="hsl(0.0,100%,35%)" stroke-width="0.00045"></path>
<path d="M0.986 0.533 Q0.414 0.633 0.482 0.934" stroke="hsl(0.0,100%,35%)" stroke-width="0.00022"></path>
<path d="M0.986 0.533 Q0.827 0.711 1.139 0.828" stroke="hsl(0.0,100%,35%)" stroke-width="0.00022"></path>
<path d="M0.986 0.533 Q1.055 0.891 1.767 0.936" stroke="hsl(0.0,100%,35%)" stroke-width="0.00022"></path>
<path d="M0.986 0.533 Q0.983 0.406 0.733 0.380" stroke="hsl(0.0,100%,35%)" stroke-width="0.00022"></path>
<path d="M0.986 0.533 Q1.092 0.599 1.244 0.562" stroke="hsl(0.0,100%,35%)" stroke-width="0.00022"></path>
<path d="M0.986 0.533 Q1.088 0.443 0.934 0.374" stroke="hsl(0.0,100%,35%)" stroke-width="0.00022"></path>
<path d="M0.986 0.533 Q1.085 0.434 0.914 0.364" stroke="hsl(0.0,100%,35%)" stroke-width="0.00022"></path>
<path d="M0.986 0.533 Q0.806 0.640 0.975 0.751" stroke="hsl(0.0,100%,35%)" stroke-width="0.00022"></path>
<path d="M1.366 0.699 Q1.309 0.540 0.986 0.533" stroke="hsl(0.0,100%,35%)" stroke-width="0.00739"></path>
<path d="M1.366 0.699 Q0.990 0.465 0.451 0.598" stroke="hsl(0.0,100%,35%)" stroke-width="0.00179"></path>
<path d="M1.366 0.699 Q1.210 0.710 1.198 0.789" stroke="hsl(0.0,100%,35%)" stroke-width="0.00179"></path>
<path d="M1.366 0.699 Q-0.314 1.338 0.563 2.298" stroke="hsl(0.0,100%,35%)" stroke-width="0.00022"></path>
<path d="M1.366 0.699 Q1.500 0.503 1.147 0.395" stroke="hsl(0.0,100%,35%)" stroke-width="0.00359"></path>
<path d="M1.366 0.699 Q1.497 0.628 1.387 0.549" stroke="hsl(0.0,100%,35%)" stroke-width="0.00022"></path>
<path d="M1.366 0.699 Q1.295 0.649 1.182 0.672" stroke="hsl(0.0,100%,35%)" stroke-width="0.00067"></path>
<path d="M1.366 0.699 Q1.533 0.691 1.553 0.607" stroke="hsl(0.0,100%,35%)" stroke-width="0.00022"></path>
<path d="M1.366 0.699 Q1.377 0.898 1.767 0.936" stroke="hsl(0.0,100%,35%)" stroke-width="0.00112"></path>
<path d="M1.366 0.699 Q0.994 0.317 0.167 0.414" stroke="hsl(0.0,100%,35%)" stroke-width="0.00045"></path>
<path d="M1.366 0.699 Q0.804 0.418 0.132 0.631" stroke="hsl(0.0,100%,35%)" stroke-width="0.00112"></path>
<path d="M1.366 0.699 Q1.301 0.613 1.118 0.626" stroke="hsl(0.0,100%,35%)" stroke-width="0.00022"></path>
<path d="M1.366 0.699 Q1.337 0.373 0.695 0.316" stroke="hsl(0.0,100%,35%)" stroke-width="0.00022"></path>
<path d="M0.771 0.936 Q1.201 0.777 0.986 0.533" stroke="hsl(0.0,100%,35%)" stroke-width="0.00022"></path>
<path d="M0.771 0.936 Q0.628 0.877 0.482 0.934" stroke="hsl(0.0,100%,35%)" stroke-width="0.00022"></path>
<path d="M0.771 0.936 Q1.187 0.886 1.182 0.672" stroke="hsl(0.0,100%,35%)" stroke-width="0.00022"></path>
<path d="M1.182 0.672 Q1.195 0.564 0.986 0.533" stroke="hsl(0.0,100%,35%)" stroke-width="0.01143"></path>
<path d="M1.182 0.672 Q1.075 0.353 0.428 0.335" stroke="hsl(0.0,100%,35%)" stroke-width="0.00090"></path>
<path d="M1.182 0.672 Q0.876 0.489 0.451 0.598" stroke="hsl(0.0,100%,35%)" stroke-width="0.00090"></path>
<path d="M1.182 0.672 Q1.387 0.527 1.147 0.395" stroke="hsl(0.0,100%,35%)" stroke-width="0.00067"></path>
<path d="M1.182 0.672 Q1.042 0.552 0.777 0.594" stroke="hsl(0.0,100%,35%)" stroke-width="0.00022"></path>
<path d="M1.182 0.672 Q1.143 0.478 0.754 0.454" stroke="hsl(0.0,100%,35%)" stroke-width="0.00022"></path>
<path d="M0.998 0.609 Q1.052 0.569 0.986 0.533" stroke="hsl(0.0,100%,35%)" stroke-width="0.00179"></path>
<path d="M0.998 0.609 Q0.733 0.494 0.451 0.598" stroke="hsl(0.0,100%,35%)" stroke-width="0.00134"></path>
<path d="M0.998 0.609 Q0.547 0.446 0.132 0.631" stroke="hsl(0.0,100%,35%)" stroke-width="0.00022"></path>
<path d="M0.998 0.609 Q1.110 0.727 1.366 0.699" stroke="hsl(0.0,100%,35%)" stroke-width="0.00045"></path>
<path d="M0.998 0.609 Q0.932 0.358 0.428 0.335" stroke="hsl(0.0,100%,35%)" stroke-width="0.00022"></path>
<path d="M0.451 0.598 Q0.771 0.672 0.986 0.533" stroke="hsl(0.0,100%,35%)" stroke-width="0.07485"></path>
<path d="M0.451 0.598 Q0.266 0.550 0.132 0.631" stroke="hsl(0.0,100%,35%)" stroke-width="0.05042"></path>
<path d="M0.451 0.598 Q0.650 0.461 0.428 0.335" stroke="hsl(0.0,100%,35%)" stroke-width="0.00493"></path>
<path d="M0.451 0.598 Q0.757 0.781 1.182 0.672" stroke="hsl(0.0,100%,35%)" stroke-width="0.00650"></path>
<path d="M0.451 0.598 Q0.456 0.449 0.167 0.414" stroke="hsl(0.0,100%,35%)" stroke-width="0.01255"></path>
<path d="M0.451 0.598 Q0.872 0.582 0.934 0.374" stroke="hsl(0.0,100%,35%)" stroke-width="0.00022"></path>
<path d="M0.451 0.598 Q0.962 0.635 1.147 0.395" stroke="hsl(0.0,100%,35%)" stroke-width="0.00403"></path>
<path d="M0.451 0.598 Q-0.853 1.470 0.563 2.298" stroke="hsl(0.0,100%,35%)" stroke-width="0.00045"></path>
<path d="M0.451 0.598 Q0.839 1.030 1.767 0.936" stroke="hsl(0.0,100%,35%)" stroke-width="0.00134"></path>
<path d="M0.451 0.598 Q0.835 0.567 0.859 0.373" stroke="hsl(0.0,100%,35%)" stroke-width="0.00022"></path>
<path d="M0.451 0.598 Q0.828 0.831 1.366 0.699" stroke="hsl(0.0,100%,35%)" stroke-width="0.00134"></path>
<path d="M0.451 0.598 Q0.798 0.506 0.695 0.316" stroke="hsl(0.0,100%,35%)" stroke-width="0.00067"></path>
<path d="M0.451 0.598 Q0.579 0.750 0.903 0.721" stroke="hsl(0.0,100%,35%)" stroke-width="0.00246"></path>
<path d="M0.451 0.598 Q0.239 0.603 0.203 0.708" stroke="hsl(0.0,100%,35%)" stroke-width="0.00045"></path>
<path d="M0.451 0.598 Q0.540 0.476 0.322 0.406" stroke="hsl(0.0,100%,35%)" stroke-width="0.00022"></path>
<path d="M0.451 0.598 Q1.314 0.009 0.354 -0.541" stroke="hsl(0.0,100%,35%)" stroke-width="0.00022"></path>
<path d="M0.451 0.598 Q0.591 0.779 0.975 0.751" stroke="hsl(0.0,100%,35%)" stroke-width="0.00022"></path>
<path d="M0.451 0.598 Q0.973 1.009 1.890 0.844" stroke="hsl(0.0,100%,35%)" stroke-width="0.00022"></path>
<path d="M0.451 0.598 Q0.643 0.553 0.598 0.450" stroke="hsl(0.0,100%,35%)" stroke-width="0.00022"></path>
<path d="M0.451 0.598 Q0.763 0.745 1.118 0.626" stroke="hsl(0.0,100%,35%)" stroke-width="0.00112"></path>
<path d="M0.132 0.631 Q0.318 0.678 0.451 0.598" stroke="hsl(0.0,100%,35%)" stroke-width="0.00717"></path>
<path d="M0.132 0.631 Q0.323 0.529 0.167 0.414" stroke="hsl(0.0,100%,35%)" stroke-width="0.00381"></path>
<path d="M0.132 0.631 Q0.637 0.753 0.986 0.533" stroke="hsl(0.0,100%,35%)" stroke-width="0.01838"></path>
<path d="M0.132 0.631 Q0.694 0.912 1.366 0.699" stroke="hsl(0.0,100%,35%)" stroke-width="0.00336"></path>
<path d="M0.132 0.631 Q0.665 0.586 0.695 0.316" stroke="hsl(0.0,100%,35%)" stroke-width="0.00874"></path>
<path d="M0.132 0.631 Q0.517 0.542 0.428 0.335" stroke="hsl(0.0,100%,35%)" stroke-width="0.00067"></path>
<path d="M0.132 0.631 Q0.623 0.861 1.182 0.672" stroke="hsl(0.0,100%,35%)" stroke-width="0.00067"></path>
<path d="M0.132 0.631 Q0.219 0.541 0.063 0.479" stroke="hsl(0.0,100%,35%)" stroke-width="0.00022"></path>
<path d="M0.132 0.631 Q0.739 0.662 0.934 0.374" stroke="hsl(0.0,100%,35%)" stroke-width="0.00022"></path>
<path d="M0.132 0.631 Q0.629 0.825 1.118 0.626" stroke="hsl(0.0,100%,35%)" stroke-width="0.00045"></path>
<path d="M0.428 0.335 Q0.229 0.471 0.451 0.598" stroke="hsl(0.0,100%,35%)" stroke-width="0.00493"></path>
<path d="M0.428 0.335 Q0.631 0.614 1.220 0.576" stroke="hsl(0.0,100%,35%)" stroke-width="0.00022"></path>
<path d="M0.428 0.335 Q0.535 0.654 1.182 0.672" stroke="hsl(0.0,100%,35%)" stroke-width="0.00202"></path>
<path d="M0.428 0.335 Q0.548 0.546 0.986 0.533" stroke="hsl(0.0,100%,35%)" stroke-width="0.00426"></path>
<path d="M0.428 0.335 Q0.576 0.379 0.695 0.316" stroke="hsl(0.0,100%,35%)" stroke-width="0.00336"></path>
<path d="M0.428 0.335 Q0.605 0.705 1.366 0.699" stroke="hsl(0.0,100%,35%)" stroke-width="0.00090"></path>
<path d="M0.428 0.335 Q0.043 0.423 0.132 0.631" stroke="hsl(0.0,100%,35%)" stroke-width="0.00314"></path>
<path d="M0.428 0.335 Q0.373 0.379 0.448 0.416" stroke="hsl(0.0,100%,35%)" stroke-width="0.00067"></path>
<path d="M0.428 0.335 Q0.406 0.704 1.121 0.795" stroke="hsl(0.0,100%,35%)" stroke-width="0.00022"></path>
<path d="M0.428 0.335 Q0.616 0.903 1.767 0.936" stroke="hsl(0.0,100%,35%)" stroke-width="0.00022"></path>
<path d="M0.428 0.335 Q0.234 0.322 0.167 0.414" stroke="hsl(0.0,100%,35%)" stroke-width="0.00045"></path>
<path d="M0.428 0.335 Q0.540 0.618 1.118 0.626" stroke="hsl(0.0,100%,35%)" stroke-width="0.00067"></path>
<path d="M0.598 0.450 Q0.726 0.569 0.986 0.533" stroke="hsl(0.0,100%,35%)" stroke-width="0.00381"></path>
<path d="M0.598 0.450 Q0.407 0.495 0.451 0.598" stroke="hsl(0.0,100%,35%)" stroke-width="0.00359"></path>
<path d="M0.598 0.450 Q0.221 0.447 0.132 0.631" stroke="hsl(0.0,100%,35%)" stroke-width="0.00134"></path>
<path d="M1.241 0.585 Q1.212 0.667 1.366 0.699" stroke="hsl(0.0,100%,35%)" stroke-width="0.00022"></path>
<path d="M1.241 0.585 Q1.155 0.508 0.986 0.533" stroke="hsl(0.0,100%,35%)" stroke-width="0.00022"></path>
<path d="M1.241 0.585 Q0.836 0.434 0.451 0.598" stroke="hsl(0.0,100%,35%)" stroke-width="0.00022"></path>
<path d="M0.167 0.414 Q0.481 0.638 0.986 0.533" stroke="hsl(0.0,100%,35%)" stroke-width="0.01681"></path>
<path d="M0.167 0.414 Q-0.024 0.515 0.132 0.631" stroke="hsl(0.0,100%,35%)" stroke-width="0.01120"></path>
<path d="M0.167 0.414 Q0.162 0.563 0.451 0.598" stroke="hsl(0.0,100%,35%)" stroke-width="0.01188"></path>
<path d="M0.167 0.414 Q0.509 0.471 0.695 0.316" stroke="hsl(0.0,100%,35%)" stroke-width="0.00157"></path>
<path d="M0.167 0.414 Q0.538 0.796 1.366 0.699" stroke="hsl(0.0,100%,35%)" stroke-width="0.00067"></path>
<path d="M0.167 0.414 Q0.361 0.427 0.428 0.335" stroke="hsl(0.0,100%,35%)" stroke-width="0.00695"></path>
<path d="M0.167 0.414 Q0.473 0.710 1.118 0.626" stroke="hsl(0.0,100%,35%)" stroke-width="0.00022"></path>
<path d="M0.695 0.316 Q0.667 0.483 0.986 0.533" stroke="hsl(0.0,100%,35%)" stroke-width="0.02308"></path>
<path d="M0.695 0.316 Q0.653 0.592 1.182 0.672" stroke="hsl(0.0,100%,35%)" stroke-width="0.00045"></path>
<path d="M0.695 0.316 Q0.348 0.408 0.451 0.598" stroke="hsl(0.0,100%,35%)" stroke-width="0.00246"></path>
<path d="M0.695 0.316 Q0.162 0.361 0.132 0.631" stroke="hsl(0.0,100%,35%)" stroke-width="0.01524"></path>
<path d="M0.695 0.316 Q1.051 0.688 1.854 0.597" stroke="hsl(0.0,100%,35%)" stroke-width="0.00022"></path>
<path d="M0.695 0.316 Q0.475 0.560 0.903 0.721" stroke="hsl(0.0,100%,35%)" stroke-width="0.00045"></path>
<path d="M0.695 0.316 Q0.353 0.260 0.167 0.414" stroke="hsl(0.0,100%,35%)" stroke-width="0.00067"></path>
<path d="M0.695 0.316 Q0.766 0.384 0.914 0.364" stroke="hsl(0.0,100%,35%)" stroke-width="0.00022"></path>
<path d="M0.695 0.316 Q0.659 0.556 1.118 0.626" stroke="hsl(0.0,100%,35%)" stroke-width="0.00403"></path>
<path d="M1.118 0.626 Q1.126 0.553 0.986 0.533" stroke="hsl(0.0,100%,35%)" stroke-width="0.00269"></path>
<path d="M1.118 0.626 Q0.807 0.478 0.451 0.598" stroke="hsl(0.0,100%,35%)" stroke-width="0.00067"></path>
<path d="M1.118 0.626 Q0.621 0.431 0.132 0.631" stroke="hsl(0.0,100%,35%)" stroke-width="0.00157"></path>
<path d="M1.118 0.626 Q1.113 0.662 1.182 0.672" stroke="hsl(0.0,100%,35%)" stroke-width="0.00022"></path>
<path d="M1.118 0.626 Q1.154 0.386 0.695 0.316" stroke="hsl(0.0,100%,35%)" stroke-width="0.00090"></path>
<path d="M1.118 0.626 Q1.006 0.342 0.428 0.335" stroke="hsl(0.0,100%,35%)" stroke-width="0.00022"></path>
<path d="M0.562 0.426 Q0.689 0.565 0.986 0.533" stroke="hsl(0.0,100%,35%)" stroke-width="0.00067"></path>
<path d="M0.562 0.426 Q0.370 0.490 0.451 0.598" stroke="hsl(0.0,100%,35%)" stroke-width="0.00090"></path>
<path d="M0.562 0.426 Q0.184 0.442 0.132 0.631" stroke="hsl(0.0,100%,35%)" stroke-width="0.00022"></path>
<path d="M0.903 0.721 Q1.095 0.644 0.986 0.533" stroke="hsl(0.0,100%,35%)" stroke-width="0.02353"></path>
<path d="M0.903 0.721 Q0.776 0.569 0.451 0.598" stroke="hsl(0.0,100%,35%)" stroke-width="0.02353"></path>
<path d="M0.903 0.721 Q0.590 0.522 0.132 0.631" stroke="hsl(0.0,100%,35%)" stroke-width="0.00202"></path>
<path d="M0.903 0.721 Q1.152 0.803 1.366 0.699" stroke="hsl(0.0,100%,35%)" stroke-width="0.00045"></path>
<path d="M0.903 0.721 Q1.123 0.477 0.695 0.316" stroke="hsl(0.0,100%,35%)" stroke-width="0.00045"></path>
<path d="M1.244 0.562 Q1.138 0.496 0.986 0.533" stroke="hsl(0.0,100%,35%)" stroke-width="0.00045"></path>
<path d="M1.244 0.562 Q0.819 0.421 0.451 0.598" stroke="hsl(0.0,100%,35%)" stroke-width="0.00045"></path>
<path d="M1.244 0.562 Q1.124 0.605 1.182 0.672" stroke="hsl(0.0,100%,35%)" stroke-width="0.00022"></path>
<path d="M1.198 0.789 Q1.354 0.777 1.366 0.699" stroke="hsl(0.0,100%,35%)" stroke-width="0.00493"></path>
<path d="M1.198 0.789 Q1.488 0.581 1.147 0.395" stroke="hsl(0.0,100%,35%)" stroke-width="0.00202"></path>
<path d="M1.198 0.789 Q0.978 0.544 0.451 0.598" stroke="hsl(0.0,100%,35%)" stroke-width="0.00157"></path>
<path d="M1.198 0.789 Q1.365 0.976 1.767 0.936" stroke="hsl(0.0,100%,35%)" stroke-width="0.00022"></path>
<path d="M1.198 0.789 Q1.297 0.619 0.986 0.533" stroke="hsl(0.0,100%,35%)" stroke-width="0.00224"></path>
<path d="M1.147 0.395 Q0.637 0.357 0.451 0.598" stroke="hsl(0.0,100%,35%)" stroke-width="0.00291"></path>
<path d="M1.147 0.395 Q0.956 0.432 0.986 0.533" stroke="hsl(0.0,100%,35%)" stroke-width="0.00627"></path>
<path d="M1.147 0.395 Q0.451 0.310 0.132 0.631" stroke="hsl(0.0,100%,35%)" stroke-width="0.00022"></path>
<path d="M1.147 0.395 Q1.248 0.703 1.872 0.722" stroke="hsl(0.0,100%,35%)" stroke-width="0.00045"></path>
<path d="M1.147 0.395 Q1.024 0.789 1.767 0.936" stroke="hsl(0.0,100%,35%)" stroke-width="0.00045"></path>
<path d="M1.147 0.395 Q0.942 0.540 1.182 0.672" stroke="hsl(0.0,100%,35%)" stroke-width="0.00090"></path>
<path d="M1.147 0.395 Q0.984 0.265 0.695 0.316" stroke="hsl(0.0,100%,35%)" stroke-width="0.00045"></path>
<path d="M1.147 0.395 Q1.013 0.591 1.366 0.699" stroke="hsl(0.0,100%,35%)" stroke-width="0.00269"></path>
<path d="M1.387 0.549 Q1.199 0.461 0.986 0.533" stroke="hsl(0.0,100%,35%)" stroke-width="0.00672"></path>
<path d="M1.387 0.549 Q0.880 0.386 0.451 0.598" stroke="hsl(0.0,100%,35%)" stroke-width="0.00112"></path>
<path d="M1.387 0.549 Q1.267 0.818 1.767 0.936" stroke="hsl(0.0,100%,35%)" stroke-width="0.00224"></path>
<path d="M1.387 0.549 Q1.256 0.620 1.366 0.699" stroke="hsl(0.0,100%,35%)" stroke-width="0.00224"></path>
<path d="M1.387 0.549 Q1.019 0.568 0.975 0.751" stroke="hsl(0.0,100%,35%)" stroke-width="0.00157"></path>
<path d="M1.387 0.549 Q1.390 0.424 1.147 0.395" stroke="hsl(0.0,100%,35%)" stroke-width="0.00045"></path>
<path d="M1.767 0.936 Q1.194 0.456 0.132 0.631" stroke="hsl(0.0,100%,35%)" stroke-width="0.00022"></path>
<path d="M1.767 0.936 Q1.699 0.578 0.986 0.533" stroke="hsl(0.0,100%,35%)" stroke-width="0.00179"></path>
<path d="M1.767 0.936 Q1.890 0.541 1.147 0.395" stroke="hsl(0.0,100%,35%)" stroke-width="0.00112"></path>
<path d="M1.767 0.936 Q1.685 0.687 1.182 0.672" stroke="hsl(0.0,100%,35%)" stroke-width="0.00090"></path>
<path d="M1.767 0.936 Q1.380 0.504 0.451 0.598" stroke="hsl(0.0,100%,35%)" stroke-width="0.00224"></path>
<path d="M1.767 0.936 Q1.800 0.880 1.698 0.851" stroke="hsl(0.0,100%,35%)" stroke-width="0.00022"></path>
<path d="M1.767 0.936 Q1.727 0.412 0.695 0.316" stroke="hsl(0.0,100%,35%)" stroke-width="0.00045"></path>
<path d="M1.767 0.936 Q1.756 0.737 1.366 0.699" stroke="hsl(0.0,100%,35%)" stroke-width="0.00067"></path>
<path d="M1.767 0.936 Q1.901 0.915 1.890 0.844" stroke="hsl(0.0,100%,35%)" stroke-width="0.00022"></path>
<path d="M1.175 0.268 Q0.896 0.196 0.695 0.316" stroke="hsl(0.0,100%,35%)" stroke-width="0.01658"></path>
<path d="M1.175 0.268 Q0.868 0.363 0.986 0.533" stroke="hsl(0.0,100%,35%)" stroke-width="0.02487"></path>
<path d="M1.175 0.268 Q0.363 0.241 0.132 0.631" stroke="hsl(0.0,100%,35%)" stroke-width="0.00067"></path>
<path d="M1.175 0.268 Q1.059 0.326 1.147 0.395" stroke="hsl(0.0,100%,35%)" stroke-width="0.00022"></path>
<path d="M1.175 0.268 Q0.549 0.288 0.451 0.598" stroke="hsl(0.0,100%,35%)" stroke-width="0.00022"></path>
<path d="M1.175 0.268 Q0.925 0.522 1.366 0.699" stroke="hsl(0.0,100%,35%)" stroke-width="0.00045"></path>
<path d="M1.872 0.722 Q1.649 0.808 1.767 0.936" stroke="hsl(0.0,100%,35%)" stroke-width="0.00471"></path>
<path d="M1.872 0.722 Q1.567 0.559 1.182 0.672" stroke="hsl(0.0,100%,35%)" stroke-width="0.00045"></path>
<path d="M1.872 0.722 Q1.964 0.656 1.854 0.597" stroke="hsl(0.0,100%,35%)" stroke-width="0.00022"></path>
<path d="M1.872 0.722 Q1.261 0.376 0.451 0.598" stroke="hsl(0.0,100%,35%)" stroke-width="0.00269"></path>
<path d="M1.872 0.722 Q1.476 0.734 1.412 0.929" stroke="hsl(0.0,100%,35%)" stroke-width="0.00022"></path>
<path d="M1.872 0.722 Q1.581 0.450 0.986 0.533" stroke="hsl(0.0,100%,35%)" stroke-width="0.00179"></path>
<path d="M1.412 0.929 Q1.584 1.003 1.767 0.936" stroke="hsl(0.0,100%,35%)" stroke-width="0.00179"></path>
<path d="M1.412 0.929 Q1.704 0.734 1.387 0.549" stroke="hsl(0.0,100%,35%)" stroke-width="0.00022"></path>
<path d="M1.412 0.929 Q1.808 0.918 1.872 0.722" stroke="hsl(0.0,100%,35%)" stroke-width="0.00067"></path>
<path d="M1.412 0.929 Q1.707 0.609 1.147 0.395" stroke="hsl(0.0,100%,35%)" stroke-width="0.00112"></path>
<path d="M1.412 0.929 Q1.197 0.571 0.451 0.598" stroke="hsl(0.0,100%,35%)" stroke-width="0.00022"></path>
<path d="M1.412 0.929 Q1.336 0.753 0.975 0.751" stroke="hsl(0.0,100%,35%)" stroke-width="0.00022"></path>
<path d="M0.805 0.146 Q0.271 0.152 0.167 0.414" stroke="hsl(0.0,100%,35%)" stroke-width="0.00022"></path>
<path d="M0.805 0.146 Q0.267 0.301 0.451 0.598" stroke="hsl(0.0,100%,35%)" stroke-width="0.00022"></path>
<path d="M0.805 0.146 Q0.614 0.209 0.695 0.316" stroke="hsl(0.0,100%,35%)" stroke-width="0.00022"></path>
<path d="M1.220 0.576 Q1.138 0.508 0.986 0.533" stroke="hsl(0.0,100%,35%)" stroke-width="0.00112"></path>
<path d="M1.220 0.576 Q0.818 0.433 0.451 0.598" stroke="hsl(0.0,100%,35%)" stroke-width="0.00112"></path>
<path d="M1.220 0.576 Q1.195 0.667 1.366 0.699" stroke="hsl(0.0,100%,35%)" stroke-width="0.00022"></path>
<path d="M1.220 0.576 Q0.633 0.386 0.132 0.631" stroke="hsl(0.0,100%,35%)" stroke-width="0.00067"></path>
<path d="M1.220 0.576 Q1.165 0.341 0.695 0.316" stroke="hsl(0.0,100%,35%)" stroke-width="0.00045"></path>
<path d="M1.220 0.576 Q1.017 0.297 0.428 0.335" stroke="hsl(0.0,100%,35%)" stroke-width="0.00022"></path>
<path d="M0.448 0.416 Q0.502 0.371 0.428 0.335" stroke="hsl(0.0,100%,35%)" stroke-width="0.00112"></path>
<path d="M0.448 0.416 Q0.304 0.507 0.451 0.598" stroke="hsl(0.0,100%,35%)" stroke-width="0.00022"></path>
<path d="M0.448 0.416 Q0.562 0.455 0.664 0.408" stroke="hsl(0.0,100%,35%)" stroke-width="0.00022"></path>
<path d="M0.448 0.416 Q0.623 0.582 0.986 0.533" stroke="hsl(0.0,100%,35%)" stroke-width="0.00022"></path>
<path d="M0.448 0.416 Q0.651 0.415 0.695 0.316" stroke="hsl(0.0,100%,35%)" stroke-width="0.00045"></path>
<path d="M1.121 0.795 Q1.263 0.637 0.986 0.533" stroke="hsl(0.0,100%,35%)" stroke-width="0.00067"></path>
<path d="M1.121 0.795 Q0.944 0.563 0.451 0.598" stroke="hsl(0.0,100%,35%)" stroke-width="0.00022"></path>
<path d="M1.121 0.795 Q1.320 0.796 1.366 0.699" stroke="hsl(0.0,100%,35%)" stroke-width="0.00067"></path>
<path d="M1.363 0.406 Q0.952 0.183 0.428 0.335" stroke="hsl(0.0,100%,35%)" stroke-width="0.00022"></path>
<path d="M1.363 0.406 Q1.073 0.394 0.986 0.533" stroke="hsl(0.0,100%,35%)" stroke-width="0.00157"></path>
<path d="M1.363 0.406 Q1.130 0.553 1.366 0.699" stroke="hsl(0.0,100%,35%)" stroke-width="0.00067"></path>
<path d="M1.363 0.406 Q0.754 0.320 0.451 0.598" stroke="hsl(0.0,100%,35%)" stroke-width="0.00134"></path>
<path d="M1.890 0.844 Q1.687 0.508 0.986 0.533" stroke="hsl(0.0,100%,35%)" stroke-width="0.00090"></path>
<path d="M1.890 0.844 Q1.755 0.865 1.767 0.936" stroke="hsl(0.0,100%,35%)" stroke-width="0.00403"></path>
<path d="M1.890 0.844 Q1.368 0.433 0.451 0.598" stroke="hsl(0.0,100%,35%)" stroke-width="0.00134"></path>
<path d="M1.890 0.844 Q1.878 0.471 1.147 0.395" stroke="hsl(0.0,100%,35%)" stroke-width="0.00179"></path>
<path d="M1.890 0.844 Q1.744 0.667 1.366 0.699" stroke="hsl(0.0,100%,35%)" stroke-width="0.00067"></path>
<path d="M0.859 0.373 Q0.795 0.479 0.986 0.533" stroke="hsl(0.0,100%,35%)" stroke-width="0.00090"></path>
<path d="M0.859 0.373 Q0.476 0.404 0.451 0.598" stroke="hsl(0.0,100%,35%)" stroke-width="0.00022"></path>
<path d="M0.859 0.373 Q0.852 0.637 1.366 0.699" stroke="hsl(0.0,100%,35%)" stroke-width="0.00045"></path>
<path d="M1.522 0.831 Q1.549 0.734 1.366 0.699" stroke="hsl(0.0,100%,35%)" stroke-width="0.00090"></path>
<path d="M1.522 0.831 Q1.492 0.575 0.986 0.533" stroke="hsl(0.0,100%,35%)" stroke-width="0.00112"></path>
<path d="M1.522 0.831 Q1.173 0.500 0.451 0.598" stroke="hsl(0.0,100%,35%)" stroke-width="0.00022"></path>
<path d="M0.733 0.380 Q0.737 0.507 0.986 0.533" stroke="hsl(0.0,100%,35%)" stroke-width="0.00134"></path>
<path d="M0.733 0.380 Q0.418 0.432 0.451 0.598" stroke="hsl(0.0,100%,35%)" stroke-width="0.00067"></path>
<path d="M0.733 0.380 Q0.423 0.284 0.167 0.414" stroke="hsl(0.0,100%,35%)" stroke-width="0.00067"></path>
<path d="M0.733 0.380 Q0.232 0.385 0.132 0.631" stroke="hsl(0.0,100%,35%)" stroke-width="0.00045"></path>
<path d="M0.934 0.374 Q0.890 0.623 1.366 0.699" stroke="hsl(0.0,100%,35%)" stroke-width="0.00179"></path>
<path d="M0.934 0.374 Q1.024 0.427 1.147 0.395" stroke="hsl(0.0,100%,35%)" stroke-width="0.00045"></path>
<path d="M0.934 0.374 Q0.833 0.464 0.986 0.533" stroke="hsl(0.0,100%,35%)" stroke-width="0.00291"></path>
<path d="M0.934 0.374 Q0.901 0.821 1.767 0.936" stroke="hsl(0.0,100%,35%)" stroke-width="0.00022"></path>
<path d="M0.934 0.374 Q0.514 0.389 0.451 0.598" stroke="hsl(0.0,100%,35%)" stroke-width="0.00067"></path>
<path d="M0.934 0.374 Q0.861 0.297 0.695 0.316" stroke="hsl(0.0,100%,35%)" stroke-width="0.00022"></path>
<path d="M1.324 0.441 Q1.110 0.253 0.695 0.316" stroke="hsl(0.0,100%,35%)" stroke-width="0.00919"></path>
<path d="M1.324 0.441 Q1.082 0.420 0.986 0.533" stroke="hsl(0.0,100%,35%)" stroke-width="0.01053"></path>
<path d="M1.324 0.441 Q1.139 0.578 1.366 0.699" stroke="hsl(0.0,100%,35%)" stroke-width="0.00022"></path>
<path d="M0.526 0.727 Q0.969 0.881 1.366 0.699" stroke="hsl(0.0,100%,35%)" stroke-width="0.00022"></path>
<path d="M0.526 0.727 Q0.912 0.722 0.986 0.533" stroke="hsl(0.0,100%,35%)" stroke-width="0.00022"></path>
<path d="M0.526 0.727 Q0.592 0.648 0.451 0.598" stroke="hsl(0.0,100%,35%)" stroke-width="0.00022"></path>
<path d="M0.526 0.727 Q0.407 0.600 0.132 0.631" stroke="hsl(0.0,100%,35%)" stroke-width="0.00022"></path>
<path d="M0.988 0.601 Q1.042 0.567 0.986 0.533" stroke="hsl(0.0,100%,35%)" stroke-width="0.00538"></path>
<path d="M0.988 0.601 Q1.233 0.530 1.147 0.395" stroke="hsl(0.0,100%,35%)" stroke-width="0.00157"></path>
<path d="M0.988 0.601 Q1.110 0.924 1.767 0.936" stroke="hsl(0.0,100%,35%)" stroke-width="0.00090"></path>
<path d="M0.988 0.601 Q0.723 0.492 0.451 0.598" stroke="hsl(0.0,100%,35%)" stroke-width="0.00090"></path>
<path d="M1.024 0.360 Q0.866 0.439 0.986 0.533" stroke="hsl(0.0,100%,35%)" stroke-width="0.01345"></path>
<path d="M1.024 0.360 Q0.894 0.272 0.695 0.316" stroke="hsl(0.0,100%,35%)" stroke-width="0.01232"></path>
<path d="M1.024 0.360 Q0.547 0.364 0.451 0.598" stroke="hsl(0.0,100%,35%)" stroke-width="0.00067"></path>
<path d="M1.024 0.360 Q0.674 0.517 0.903 0.721" stroke="hsl(0.0,100%,35%)" stroke-width="0.00022"></path>
<path d="M1.024 0.360 Q0.923 0.598 1.366 0.699" stroke="hsl(0.0,100%,35%)" stroke-width="0.00022"></path>
<path d="M0.360 0.444 Q0.287 0.390 0.167 0.414" stroke="hsl(0.0,100%,35%)" stroke-width="0.00022"></path>
<path d="M0.360 0.444 Q0.629 0.447 0.695 0.316" stroke="hsl(0.0,100%,35%)" stroke-width="0.00022"></path>
<path d="M0.360 0.444 Q0.588 0.722 1.182 0.672" stroke="hsl(0.0,100%,35%)" stroke-width="0.00022"></path>
<path d="M0.360 0.444 Q0.602 0.614 0.986 0.533" stroke="hsl(0.0,100%,35%)" stroke-width="0.00022"></path>
<path d="M0.360 0.444 Q0.282 0.539 0.451 0.598" stroke="hsl(0.0,100%,35%)" stroke-width="0.00022"></path>
<path d="M0.063 0.479 Q0.538 0.849 1.366 0.699" stroke="hsl(0.0,100%,35%)" stroke-width="0.00090"></path>
<path d="M0.063 0.479 Q0.481 0.691 0.986 0.533" stroke="hsl(0.0,100%,35%)" stroke-width="0.00067"></path>
<path d="M0.063 0.479 Q0.162 0.616 0.451 0.598" stroke="hsl(0.0,100%,35%)" stroke-width="0.00045"></path>
<path d="M0.063 0.479 Q-0.024 0.568 0.132 0.631" stroke="hsl(0.0,100%,35%)" stroke-width="0.00112"></path>
<path d="M0.063 0.479 Q-0.092 0.790 0.482 0.934" stroke="hsl(0.0,100%,35%)" stroke-width="0.00022"></path>
<path d="M0.063 0.479 Q0.509 0.524 0.695 0.316" stroke="hsl(0.0,100%,35%)" stroke-width="0.00022"></path>
<path d="M0.063 0.479 Q0.361 0.480 0.428 0.335" stroke="hsl(0.0,100%,35%)" stroke-width="0.00022"></path>
<path d="M0.510 0.700 Q0.562 0.637 0.451 0.598" stroke="hsl(0.0,100%,35%)" stroke-width="0.00202"></path>
<path d="M0.510 0.700 Q0.882 0.712 0.986 0.533" stroke="hsl(0.0,100%,35%)" stroke-width="0.00067"></path>
<path d="M0.510 0.700 Q0.729 0.700 0.777 0.594" stroke="hsl(0.0,100%,35%)" stroke-width="0.00022"></path>
<path d="M0.510 0.700 Q0.939 0.871 1.366 0.699" stroke="hsl(0.0,100%,35%)" stroke-width="0.00022"></path>
<path d="M0.754 0.454 Q0.864 0.699 1.366 0.699" stroke="hsl(0.0,100%,35%)" stroke-width="0.00067"></path>
<path d="M0.754 0.454 Q0.837 0.796 1.522 0.831" stroke="hsl(0.0,100%,35%)" stroke-width="0.00022"></path>
<path d="M0.754 0.454 Q0.807 0.540 0.986 0.533" stroke="hsl(0.0,100%,35%)" stroke-width="0.00157"></path>
<path d="M0.754 0.454 Q0.488 0.465 0.451 0.598" stroke="hsl(0.0,100%,35%)" stroke-width="0.00022"></path>
<path d="M0.418 0.429 Q0.618 0.595 0.986 0.533" stroke="hsl(0.0,100%,35%)" stroke-width="0.00045"></path>
<path d="M0.418 0.429 Q0.299 0.520 0.451 0.598" stroke="hsl(0.0,100%,35%)" stroke-width="0.00067"></path>
<path d="M0.418 0.429 Q0.113 0.472 0.132 0.631" stroke="hsl(0.0,100%,35%)" stroke-width="0.00022"></path>
<path d="M0.478 0.379 Q0.609 0.558 0.986 0.533" stroke="hsl(0.0,100%,35%)" stroke-width="0.00246"></path>
<path d="M0.478 0.379 Q0.290 0.483 0.451 0.598" stroke="hsl(0.0,100%,35%)" stroke-width="0.00224"></path>
<path d="M0.478 0.379 Q0.417 0.635 0.903 0.721" stroke="hsl(0.0,100%,35%)" stroke-width="0.00022"></path>
<path d="M1.646 0.764 Q1.558 0.676 1.366 0.699" stroke="hsl(0.0,100%,35%)" stroke-width="0.00045"></path>
<path d="M1.646 0.764 Q1.530 0.773 1.522 0.831" stroke="hsl(0.0,100%,35%)" stroke-width="0.00134"></path>
<path d="M1.646 0.764 Q1.501 0.517 0.986 0.533" stroke="hsl(0.0,100%,35%)" stroke-width="0.00134"></path>
<path d="M1.646 0.764 Q1.182 0.442 0.451 0.598" stroke="hsl(0.0,100%,35%)" stroke-width="0.00022"></path>
<path d="M1.293 0.763 Q1.381 0.746 1.366 0.699" stroke="hsl(0.0,100%,35%)" stroke-width="0.00022"></path>
<path d="M1.293 0.763 Q1.324 0.587 0.986 0.533" stroke="hsl(0.0,100%,35%)" stroke-width="0.00022"></path>
<path d="M1.293 0.763 Q1.005 0.512 0.451 0.598" stroke="hsl(0.0,100%,35%)" stroke-width="0.00022"></path>
</g>
<text x="0.057" y="0.730" font-size="0.008199" fill="hsl(0.0,100%,20%)">adkushwa</text>
<text x="0.986" y="0.481" font-size="0.104009" fill="hsl(0.0,100%,20%)">jmadill</text>
<text x="0.224" y="0.803" font-size="0.005293" fill="hsl(0.0,100%,20%)">rafael.cintron</text>
<text x="1.366" y="0.681" font-size="0.036438" fill="hsl(0.0,100%,20%)">geofflang</text>
<text x="0.771" y="0.934" font-size="0.004100" fill="hsl(0.0,100%,20%)">amaiorano</text>
<text x="0.482" y="0.932" font-size="0.004100" fill="hsl(0.0,100%,20%)">nicolascapens</text>
<text x="1.182" y="0.654" font-size="0.036438" fill="hsl(0.0,100%,20%)">ynovikov</text>
<text x="0.998" y="0.604" font-size="0.010042" fill="hsl(0.0,100%,20%)">amy.liu</text>
<text x="0.451" y="0.557" font-size="0.082333" fill="hsl(0.0,100%,20%)">syoussefi</text>
<text x="0.132" y="0.598" font-size="0.065122" fill="hsl(0.0,100%,20%)">timvp</text>
<text x="0.428" y="0.319" font-size="0.031401" fill="hsl(0.0,100%,20%)">ianelliott</text>
<text x="0.598" y="0.443" font-size="0.014970" fill="hsl(0.0,100%,20%)">b.schade</text>
<text x="1.241" y="0.583" font-size="0.004100" fill="hsl(0.0,100%,20%)">capn</text>
<text x="0.167" y="0.393" font-size="0.041674" fill="hsl(0.0,100%,20%)">cclao</text>
<text x="0.695" y="0.287" font-size="0.058362" fill="hsl(0.0,100%,20%)">cnorthrop</text>
<text x="1.118" y="0.614" font-size="0.023669" fill="hsl(0.0,100%,20%)">courtneygo</text>
<text x="0.562" y="0.423" font-size="0.007101" fill="hsl(0.0,100%,20%)">cheryl.wei</text>
<text x="0.563" y="2.295" font-size="0.004734" fill="hsl(0.0,100%,20%)">sunny.sun</text>
<text x="1.854" y="0.595" font-size="0.003347" fill="hsl(0.0,100%,20%)">bajones</text>
<text x="0.903" y="0.703" font-size="0.037274" fill="hsl(0.0,100%,20%)">m.maiya</text>
<text x="0.914" y="0.362" font-size="0.003347" fill="hsl(0.0,100%,20%)">paulthomson</text>
<text x="1.244" y="0.559" font-size="0.005798" fill="hsl(0.0,100%,20%)">cwallez</text>
<text x="1.198" y="0.780" font-size="0.017870" fill="hsl(0.0,100%,20%)">penghuang</text>
<text x="1.147" y="0.379" font-size="0.030495" fill="hsl(0.0,100%,20%)">jonahr</text>
<text x="1.387" y="0.539" font-size="0.019229" fill="hsl(0.0,100%,20%)">lexa.knyazev</text>
<text x="1.553" y="0.606" font-size="0.002367" fill="hsl(0.0,100%,20%)">msisov</text>
<text x="1.767" y="0.923" font-size="0.025161" fill="hsl(0.0,100%,20%)">kbr</text>
<text x="1.175" y="0.251" font-size="0.033305" fill="hsl(0.0,100%,20%)">gert.wollny</text>
<text x="1.872" y="0.714" font-size="0.016737" fill="hsl(0.0,100%,20%)">gman</text>
<text x="1.412" y="0.924" font-size="0.010585" fill="hsl(0.0,100%,20%)">kpiddington</text>
<text x="0.805" y="0.143" font-size="0.004100" fill="hsl(0.0,100%,20%)">hailinzhang</text>
<text x="1.220" y="0.571" font-size="0.010042" fill="hsl(0.0,100%,20%)">yuxinhu</text>
<text x="0.448" y="0.411" font-size="0.008534" fill="hsl(0.0,100%,20%)">mark</text>
<text x="1.121" y="0.792" font-size="0.006695" fill="hsl(0.0,100%,20%)">vantablack</text>
<text x="1.363" y="0.401" font-size="0.009759" fill="hsl(0.0,100%,20%)">j.vigil</text>
<text x="1.890" y="0.837" font-size="0.015156" fill="hsl(0.0,100%,20%)">jdarpinian</text>
<text x="0.859" y="0.370" font-size="0.006695" fill="hsl(0.0,100%,20%)">jgilbert</text>
<text x="1.522" y="0.826" font-size="0.009759" fill="hsl(0.0,100%,20%)">jiajia.qin</text>
<text x="1.040" y="0.315" font-size="0.002367" fill="hsl(0.0,100%,20%)">brucedawson</text>
<text x="1.215" y="0.547" font-size="0.005293" fill="hsl(0.0,100%,20%)">bsheedy</text>
<text x="1.283" y="0.406" font-size="0.003347" fill="hsl(0.0,100%,20%)">tandrii</text>
<text x="0.935" y="0.622" font-size="0.003347" fill="hsl(0.0,100%,20%)">dpranke</text>
<text x="1.139" y="0.826" font-size="0.002367" fill="hsl(0.0,100%,20%)">doughorn</text>
<text x="0.733" y="0.375" font-size="0.009167" fill="hsl(0.0,100%,20%)">lfy</text>
<text x="0.934" y="0.367" font-size="0.013178" fill="hsl(0.0,100%,20%)">sugoi</text>
<text x="0.975" y="0.748" font-size="0.007485" fill="hsl(0.0,100%,20%)">le.hoang.q</text>
<text x="1.324" y="0.430" font-size="0.022329" fill="hsl(0.0,100%,20%)">jplate</text>
<text x="1.698" y="0.850" font-size="0.002367" fill="hsl(0.0,100%,20%)">ccameron</text>
<text x="0.526" y="0.725" font-size="0.004734" fill="hsl(0.0,100%,20%)">kyle.griffiths</text>
<text x="0.988" y="0.594" font-size="0.014781" fill="hsl(0.0,100%,20%)">lehoangq</text>
<text x="1.024" y="0.347" font-size="0.025928" fill="hsl(0.0,100%,20%)">lubosz.sarnecki</text>
<text x="0.360" y="0.441" font-size="0.005293" fill="hsl(0.0,100%,20%)">lunpujun</text>
<text x="0.664" y="0.407" font-size="0.002367" fill="hsl(0.0,100%,20%)">mikes</text>
<text x="0.063" y="0.474" font-size="0.010042" fill="hsl(0.0,100%,20%)">natsu</text>
<text x="0.510" y="0.696" font-size="0.008856" fill="hsl(0.0,100%,20%)">pkasting</text>
<text x="0.777" y="0.592" font-size="0.003347" fill="hsl(0.0,100%,20%)">thakis</text>
<text x="0.754" y="0.450" font-size="0.008534" fill="hsl(0.0,100%,20%)">senorblanco</text>
<text x="0.418" y="0.426" font-size="0.005798" fill="hsl(0.0,100%,20%)">sergeyu</text>
<text x="0.203" y="0.706" font-size="0.003347" fill="hsl(0.0,100%,20%)">reveman</text>
<text x="0.322" y="0.404" font-size="0.002367" fill="hsl(0.0,100%,20%)">jie.a.chen</text>
<text x="0.354" y="-0.542" font-size="0.002367" fill="hsl(0.0,100%,20%)">spang</text>
<text x="0.478" y="0.373" font-size="0.011102" fill="hsl(0.0,100%,20%)">xiaoxuan.liu</text>
<text x="1.646" y="0.760" font-size="0.009167" fill="hsl(0.0,100%,20%)">xinghua.cao</text>
<text x="1.293" y="0.761" font-size="0.004100" fill="hsl(0.0,100%,20%)">yang.gu</text>
</svg>
