<svg width="4000" height="2000" viewBox="-0.025 -0.025 2.05 1.05" xmlns="http://www.w3.org/2000/svg">
  <style>
    path {
      fill: none;
      stroke-linecap: round;
      stroke-opacity: 0.4;
    }

    text {
      text-anchor: middle;
      alignment-baseline: hanging;
    }
  </style>
  <g opacity="0.4">
<path d="M0.967 0.398 Q0.633 0.604 0.961 0.812" stroke="hsl(0.0,100%,35%)" stroke-width="0.00231"></path>
<path d="M0.967 0.398 Q0.933 0.508 1.140 0.548" stroke="hsl(0.0,100%,35%)" stroke-width="0.00334"></path>
<path d="M0.967 0.398 Q0.284 0.568 0.466 0.938" stroke="hsl(0.0,100%,35%)" stroke-width="0.00026"></path>
<path d="M0.967 0.398 Q0.311 0.352 0.076 0.662" stroke="hsl(0.0,100%,35%)" stroke-width="0.00026"></path>
<path d="M0.961 0.812 Q1.261 0.716 1.140 0.548" stroke="hsl(0.0,100%,35%)" stroke-width="0.02981"></path>
<path d="M0.961 0.812 Q0.612 0.776 0.466 0.938" stroke="hsl(0.0,100%,35%)" stroke-width="0.00591"></path>
<path d="M0.961 0.812 Q1.070 0.854 1.176 0.810" stroke="hsl(0.0,100%,35%)" stroke-width="0.00514"></path>
<path d="M0.961 0.812 Q1.233 0.832 1.332 0.704" stroke="hsl(0.0,100%,35%)" stroke-width="0.00694"></path>
<path d="M0.961 0.812 Q0.662 0.690 0.360 0.809" stroke="hsl(0.0,100%,35%)" stroke-width="0.00077"></path>
<path d="M0.961 0.812 Q1.295 0.606 0.967 0.398" stroke="hsl(0.0,100%,35%)" stroke-width="0.00103"></path>
<path d="M0.961 0.812 Q1.216 0.725 1.103 0.582" stroke="hsl(0.0,100%,35%)" stroke-width="0.00026"></path>
<path d="M0.961 0.812 Q1.008 0.901 1.192 0.898" stroke="hsl(0.0,100%,35%)" stroke-width="0.03109"></path>
<path d="M0.961 0.812 Q1.061 0.702 0.869 0.630" stroke="hsl(0.0,100%,35%)" stroke-width="0.02673"></path>
<path d="M0.961 0.812 Q1.127 0.764 1.071 0.673" stroke="hsl(0.0,100%,35%)" stroke-width="0.03212"></path>
<path d="M0.961 0.812 Q0.937 0.709 0.731 0.698" stroke="hsl(0.0,100%,35%)" stroke-width="0.00026"></path>
<path d="M0.961 0.812 Q1.124 0.697 0.937 0.592" stroke="hsl(0.0,100%,35%)" stroke-width="0.00026"></path>
<path d="M0.961 0.812 Q1.161 0.787 1.156 0.684" stroke="hsl(0.0,100%,35%)" stroke-width="0.00720"></path>
<path d="M0.961 0.812 Q1.017 0.955 1.309 0.960" stroke="hsl(0.0,100%,35%)" stroke-width="0.00026"></path>
<path d="M0.961 0.812 Q0.639 0.560 0.076 0.662" stroke="hsl(0.0,100%,35%)" stroke-width="0.00026"></path>
<path d="M0.961 0.812 Q0.890 0.793 0.837 0.823" stroke="hsl(0.0,100%,35%)" stroke-width="0.00077"></path>
<path d="M0.961 0.812 Q0.741 0.752 0.576 0.846" stroke="hsl(0.0,100%,35%)" stroke-width="0.00103"></path>
<path d="M0.961 0.812 Q1.652 0.263 0.733 -0.194" stroke="hsl(0.0,100%,35%)" stroke-width="0.00026"></path>
<path d="M0.961 0.812 Q0.865 0.706 0.637 0.730" stroke="hsl(0.0,100%,35%)" stroke-width="0.00154"></path>
<path d="M0.961 0.812 Q2.279 0.116 1.210 -0.680" stroke="hsl(0.0,100%,35%)" stroke-width="0.00026"></path>
<path d="M0.961 0.812 Q1.314 0.536 0.853 0.303" stroke="hsl(0.0,100%,35%)" stroke-width="0.00026"></path>
<path d="M0.961 0.812 Q1.374 0.763 1.368 0.551" stroke="hsl(0.0,100%,35%)" stroke-width="0.00026"></path>
<path d="M0.961 0.812 Q0.944 0.705 0.731 0.690" stroke="hsl(0.0,100%,35%)" stroke-width="0.00026"></path>
<path d="M0.961 0.812 Q0.146 1.192 0.708 1.673" stroke="hsl(0.0,100%,35%)" stroke-width="0.00026"></path>
<path d="M1.140 0.548 Q0.619 0.584 0.576 0.846" stroke="hsl(0.0,100%,35%)" stroke-width="0.00385"></path>
<path d="M1.140 0.548 Q0.491 0.609 0.466 0.938" stroke="hsl(0.0,100%,35%)" stroke-width="0.00745"></path>
<path d="M1.140 0.548 Q0.840 0.644 0.961 0.812" stroke="hsl(0.0,100%,35%)" stroke-width="0.06296"></path>
<path d="M1.140 0.548 Q0.822 0.537 0.731 0.690" stroke="hsl(0.0,100%,35%)" stroke-width="0.00128"></path>
<path d="M1.140 0.548 Q1.005 0.597 1.071 0.673" stroke="hsl(0.0,100%,35%)" stroke-width="0.04497"></path>
<path d="M1.140 0.548 Q1.063 0.425 0.805 0.435" stroke="hsl(0.0,100%,35%)" stroke-width="0.00026"></path>
<path d="M1.140 0.548 Q1.252 0.595 1.368 0.551" stroke="hsl(0.0,100%,35%)" stroke-width="0.00051"></path>
<path d="M1.140 0.548 Q0.887 0.733 1.192 0.898" stroke="hsl(0.0,100%,35%)" stroke-width="0.00128"></path>
<path d="M1.140 0.548 Q1.173 0.439 0.967 0.398" stroke="hsl(0.0,100%,35%)" stroke-width="0.00051"></path>
<path d="M1.140 0.548 Q0.949 0.686 1.176 0.810" stroke="hsl(0.0,100%,35%)" stroke-width="0.00026"></path>
<path d="M1.140 0.548 Q0.939 0.535 0.869 0.630" stroke="hsl(0.0,100%,35%)" stroke-width="0.00334"></path>
<path d="M1.140 0.548 Q1.111 0.665 1.332 0.704" stroke="hsl(0.0,100%,35%)" stroke-width="0.00257"></path>
<path d="M1.140 0.548 Q1.265 0.460 1.121 0.380" stroke="hsl(0.0,100%,35%)" stroke-width="0.00051"></path>
<path d="M1.140 0.548 Q1.039 0.619 1.156 0.684" stroke="hsl(0.0,100%,35%)" stroke-width="0.00308"></path>
<path d="M1.140 0.548 Q0.541 0.523 0.360 0.809" stroke="hsl(0.0,100%,35%)" stroke-width="0.00026"></path>
<path d="M1.140 0.548 Q1.268 0.652 1.500 0.612" stroke="hsl(0.0,100%,35%)" stroke-width="0.00077"></path>
<path d="M1.140 0.548 Q1.003 0.530 0.937 0.592" stroke="hsl(0.0,100%,35%)" stroke-width="0.00026"></path>
<path d="M1.140 0.548 Q1.068 0.314 0.595 0.297" stroke="hsl(0.0,100%,35%)" stroke-width="0.00026"></path>
<path d="M1.140 0.548 Q1.081 0.456 0.888 0.464" stroke="hsl(0.0,100%,35%)" stroke-width="0.00026"></path>
<path d="M1.140 0.548 Q1.539 0.378 1.295 0.147" stroke="hsl(0.0,100%,35%)" stroke-width="0.00026"></path>
<path d="M1.140 0.548 Q0.517 0.392 0.076 0.662" stroke="hsl(0.0,100%,35%)" stroke-width="0.00154"></path>
<path d="M1.140 0.548 Q0.615 0.686 0.769 0.973" stroke="hsl(0.0,100%,35%)" stroke-width="0.00026"></path>
<path d="M1.140 0.548 Q1.243 0.600 1.366 0.561" stroke="hsl(0.0,100%,35%)" stroke-width="0.00051"></path>
<path d="M0.466 0.938 Q1.149 0.768 0.967 0.398" stroke="hsl(0.0,100%,35%)" stroke-width="0.00103"></path>
<path d="M0.466 0.938 Q0.815 0.974 0.961 0.812" stroke="hsl(0.0,100%,35%)" stroke-width="0.02364"></path>
<path d="M0.466 0.938 Q0.862 1.063 1.192 0.898" stroke="hsl(0.0,100%,35%)" stroke-width="0.00231"></path>
<path d="M0.466 0.938 Q0.595 0.914 0.576 0.846" stroke="hsl(0.0,100%,35%)" stroke-width="0.00771"></path>
<path d="M0.466 0.938 Q1.115 0.878 1.140 0.548" stroke="hsl(0.0,100%,35%)" stroke-width="0.01645"></path>
<path d="M0.466 0.938 Q0.914 0.865 0.869 0.630" stroke="hsl(0.0,100%,35%)" stroke-width="0.00026"></path>
<path d="M0.466 0.938 Q1.070 0.888 1.103 0.582" stroke="hsl(0.0,100%,35%)" stroke-width="0.00026"></path>
<path d="M0.466 0.938 Q0.981 0.927 1.071 0.673" stroke="hsl(0.0,100%,35%)" stroke-width="0.01208"></path>
<path d="M0.466 0.938 Q0.516 0.853 0.360 0.809" stroke="hsl(0.0,100%,35%)" stroke-width="0.00026"></path>
<path d="M0.466 0.938 Q0.797 0.867 0.731 0.690" stroke="hsl(0.0,100%,35%)" stroke-width="0.00026"></path>
<path d="M0.466 0.938 Q1.086 0.995 1.332 0.704" stroke="hsl(0.0,100%,35%)" stroke-width="0.00077"></path>
<path d="M0.076 0.662 Q0.699 0.818 1.140 0.548" stroke="hsl(180.0,100%,35%)" stroke-width="0.00308"></path>
<path d="M0.076 0.662 Q0.080 0.684 0.124 0.686" stroke="hsl(180.0,100%,35%)" stroke-width="0.00026"></path>
<path d="M0.076 0.662 Q0.399 0.914 0.961 0.812" stroke="hsl(180.0,100%,35%)" stroke-width="0.00231"></path>
<path d="M0.076 0.662 Q0.498 0.804 0.869 0.630" stroke="hsl(180.0,100%,35%)" stroke-width="0.00154"></path>
<path d="M0.076 0.662 Q0.111 0.621 0.040 0.595" stroke="hsl(180.0,100%,35%)" stroke-width="0.00026"></path>
<path d="M0.076 0.662 Q0.564 0.866 1.071 0.673" stroke="hsl(180.0,100%,35%)" stroke-width="0.00026"></path>
<path d="M0.076 0.662 Q0.598 0.889 1.156 0.684" stroke="hsl(180.0,100%,35%)" stroke-width="0.00051"></path>
<path d="M0.076 0.662 Q-0.048 0.796 0.187 0.887" stroke="hsl(180.0,100%,35%)" stroke-width="0.00026"></path>
<path d="M0.076 0.662 Q0.446 1.003 1.192 0.898" stroke="hsl(180.0,100%,35%)" stroke-width="0.00051"></path>
<path d="M0.076 0.662 Q0.670 0.934 1.332 0.704" stroke="hsl(180.0,100%,35%)" stroke-width="0.00026"></path>
<path d="M0.999 0.235 Q0.519 0.516 0.961 0.812" stroke="hsl(180.0,100%,35%)" stroke-width="0.00128"></path>
<path d="M0.999 0.235 Q1.050 0.261 1.112 0.242" stroke="hsl(180.0,100%,35%)" stroke-width="0.00128"></path>
<path d="M0.999 0.235 Q0.790 0.536 1.332 0.704" stroke="hsl(180.0,100%,35%)" stroke-width="0.00051"></path>
<path d="M1.332 0.704 Q1.541 0.741 1.658 0.647" stroke="hsl(180.0,100%,35%)" stroke-width="0.00026"></path>
<path d="M1.332 0.704 Q1.361 0.588 1.140 0.548" stroke="hsl(180.0,100%,35%)" stroke-width="0.00206"></path>
<path d="M1.332 0.704 Q1.226 0.636 1.071 0.673" stroke="hsl(180.0,100%,35%)" stroke-width="0.00103"></path>
<path d="M1.332 0.704 Q1.061 0.684 0.961 0.812" stroke="hsl(180.0,100%,35%)" stroke-width="0.00642"></path>
<path d="M1.332 0.704 Q1.224 0.569 0.937 0.592" stroke="hsl(180.0,100%,35%)" stroke-width="0.00154"></path>
<path d="M1.332 0.704 Q1.760 0.418 1.295 0.147" stroke="hsl(180.0,100%,35%)" stroke-width="0.00026"></path>
<path d="M1.332 0.704 Q1.260 0.659 1.156 0.684" stroke="hsl(180.0,100%,35%)" stroke-width="0.00231"></path>
<path d="M1.332 0.704 Q1.710 0.591 1.572 0.381" stroke="hsl(180.0,100%,35%)" stroke-width="0.00026"></path>
<path d="M1.332 0.704 Q1.417 0.636 1.302 0.579" stroke="hsl(180.0,100%,35%)" stroke-width="0.00026"></path>
<path d="M1.332 0.704 Q0.738 0.432 0.076 0.662" stroke="hsl(180.0,100%,35%)" stroke-width="0.00103"></path>
<path d="M1.332 0.704 Q0.712 0.648 0.466 0.938" stroke="hsl(180.0,100%,35%)" stroke-width="0.00051"></path>
<path d="M1.332 0.704 Q1.160 0.574 0.869 0.630" stroke="hsl(180.0,100%,35%)" stroke-width="0.00026"></path>
<path d="M1.351 0.492 Q0.900 0.574 0.961 0.812" stroke="hsl(0.0,100%,35%)" stroke-width="0.00051"></path>
<path d="M1.351 0.492 Q1.200 0.478 1.140 0.548" stroke="hsl(0.0,100%,35%)" stroke-width="0.00051"></path>
<path d="M1.351 0.492 Q1.066 0.526 1.071 0.673" stroke="hsl(0.0,100%,35%)" stroke-width="0.00026"></path>
<path d="M1.071 0.673 Q0.905 0.720 0.961 0.812" stroke="hsl(0.0,100%,35%)" stroke-width="0.01465"></path>
<path d="M1.071 0.673 Q1.205 0.624 1.140 0.548" stroke="hsl(0.0,100%,35%)" stroke-width="0.00925"></path>
<path d="M1.071 0.673 Q0.556 0.685 0.466 0.938" stroke="hsl(0.0,100%,35%)" stroke-width="0.00385"></path>
<path d="M1.071 0.673 Q0.952 0.810 1.192 0.898" stroke="hsl(0.0,100%,35%)" stroke-width="0.00745"></path>
<path d="M1.071 0.673 Q0.685 0.661 0.576 0.846" stroke="hsl(0.0,100%,35%)" stroke-width="0.00180"></path>
<path d="M1.071 0.673 Q1.238 0.515 0.967 0.398" stroke="hsl(0.0,100%,35%)" stroke-width="0.00026"></path>
<path d="M1.071 0.673 Q1.176 0.741 1.332 0.704" stroke="hsl(0.0,100%,35%)" stroke-width="0.00385"></path>
<path d="M1.071 0.673 Q1.131 0.738 1.271 0.722" stroke="hsl(0.0,100%,35%)" stroke-width="0.00051"></path>
<path d="M1.071 0.673 Q1.004 0.611 0.869 0.630" stroke="hsl(0.0,100%,35%)" stroke-width="0.00026"></path>
<path d="M0.933 0.990 Q1.090 0.907 0.961 0.812" stroke="hsl(0.0,100%,35%)" stroke-width="0.00231"></path>
<path d="M0.933 0.990 Q1.390 0.811 1.140 0.548" stroke="hsl(0.0,100%,35%)" stroke-width="0.00231"></path>
<path d="M0.933 0.990 Q1.515 0.722 1.121 0.380" stroke="hsl(0.0,100%,35%)" stroke-width="0.00026"></path>
<path d="M0.933 0.990 Q0.844 0.971 0.787 1.010" stroke="hsl(0.0,100%,35%)" stroke-width="0.00026"></path>
<path d="M0.933 0.990 Q1.579 0.762 1.276 0.396" stroke="hsl(0.0,100%,35%)" stroke-width="0.00026"></path>
<path d="M0.933 0.990 Q0.869 0.847 0.576 0.846" stroke="hsl(0.0,100%,35%)" stroke-width="0.00026"></path>
<path d="M1.276 0.396 Q0.629 0.624 0.933 0.990" stroke="hsl(0.0,100%,35%)" stroke-width="0.00026"></path>
<path d="M1.276 0.396 Q0.566 0.481 0.576 0.846" stroke="hsl(0.0,100%,35%)" stroke-width="0.00026"></path>
<path d="M1.276 0.396 Q0.786 0.541 0.961 0.812" stroke="hsl(0.0,100%,35%)" stroke-width="0.00051"></path>
<path d="M1.276 0.396 Q1.086 0.445 1.140 0.548" stroke="hsl(0.0,100%,35%)" stroke-width="0.00026"></path>
<path d="M0.576 0.846 Q1.096 0.810 1.140 0.548" stroke="hsl(0.0,100%,35%)" stroke-width="0.00437"></path>
<path d="M0.576 0.846 Q0.779 0.652 0.445 0.511" stroke="hsl(0.0,100%,35%)" stroke-width="0.00051"></path>
<path d="M0.576 0.846 Q0.497 0.785 0.360 0.809" stroke="hsl(0.0,100%,35%)" stroke-width="0.00051"></path>
<path d="M0.576 0.846 Q0.796 0.906 0.961 0.812" stroke="hsl(0.0,100%,35%)" stroke-width="0.00308"></path>
<path d="M0.576 0.846 Q1.130 0.700 0.967 0.398" stroke="hsl(0.0,100%,35%)" stroke-width="0.00026"></path>
<path d="M0.576 0.846 Q1.023 0.923 1.271 0.722" stroke="hsl(0.0,100%,35%)" stroke-width="0.00026"></path>
<path d="M0.576 0.846 Q0.447 0.870 0.466 0.938" stroke="hsl(0.0,100%,35%)" stroke-width="0.00077"></path>
<path d="M0.576 0.846 Q0.962 0.859 1.071 0.673" stroke="hsl(0.0,100%,35%)" stroke-width="0.00206"></path>
<path d="M0.576 0.846 Q0.905 0.948 1.176 0.810" stroke="hsl(0.0,100%,35%)" stroke-width="0.00026"></path>
<path d="M0.576 0.846 Q0.896 0.797 0.869 0.630" stroke="hsl(0.0,100%,35%)" stroke-width="0.00051"></path>
<path d="M0.576 0.846 Q0.843 0.995 1.192 0.898" stroke="hsl(0.0,100%,35%)" stroke-width="0.00180"></path>
<path d="M0.576 0.846 Q1.067 0.926 1.332 0.704" stroke="hsl(0.0,100%,35%)" stroke-width="0.00077"></path>
<path d="M0.576 0.846 Q1.206 0.522 0.712 0.144" stroke="hsl(0.0,100%,35%)" stroke-width="0.00077"></path>
<path d="M0.576 0.846 Q0.474 0.654 0.076 0.662" stroke="hsl(0.0,100%,35%)" stroke-width="0.00026"></path>
<path d="M0.805 0.435 Q0.558 0.552 0.731 0.698" stroke="hsl(0.0,100%,35%)" stroke-width="0.00026"></path>
<path d="M0.805 0.435 Q0.882 0.559 1.140 0.548" stroke="hsl(0.0,100%,35%)" stroke-width="0.00720"></path>
<path d="M0.805 0.435 Q0.582 0.655 0.961 0.812" stroke="hsl(0.0,100%,35%)" stroke-width="0.00720"></path>
<path d="M0.805 0.435 Q0.564 0.548 0.731 0.690" stroke="hsl(0.0,100%,35%)" stroke-width="0.00051"></path>
<path d="M0.805 0.435 Q0.747 0.607 1.071 0.673" stroke="hsl(0.0,100%,35%)" stroke-width="0.00206"></path>
<path d="M0.731 0.698 Q0.432 0.549 0.076 0.662" stroke="hsl(180.0,100%,35%)" stroke-width="0.00360"></path>
<path d="M0.731 0.698 Q0.468 0.508 0.040 0.595" stroke="hsl(180.0,100%,35%)" stroke-width="0.00128"></path>
<path d="M0.731 0.698 Q0.978 0.581 0.805 0.435" stroke="hsl(180.0,100%,35%)" stroke-width="0.00026"></path>
<path d="M0.731 0.698 Q0.755 0.801 0.961 0.812" stroke="hsl(180.0,100%,35%)" stroke-width="0.00745"></path>
<path d="M0.731 0.698 Q1.026 0.821 1.332 0.704" stroke="hsl(180.0,100%,35%)" stroke-width="0.00180"></path>
<path d="M0.731 0.698 Q1.055 0.705 1.140 0.548" stroke="hsl(180.0,100%,35%)" stroke-width="0.00103"></path>
<path d="M0.731 0.698 Q0.437 0.571 0.124 0.686" stroke="hsl(180.0,100%,35%)" stroke-width="0.00026"></path>
<path d="M0.731 0.698 Q0.854 0.691 0.869 0.630" stroke="hsl(180.0,100%,35%)" stroke-width="0.00026"></path>
<path d="M0.731 0.698 Q0.678 0.456 0.195 0.429" stroke="hsl(180.0,100%,35%)" stroke-width="0.00051"></path>
<path d="M0.731 0.698 Q0.955 0.776 1.156 0.684" stroke="hsl(180.0,100%,35%)" stroke-width="0.00026"></path>
<path d="M0.731 0.690 Q0.749 0.797 0.961 0.812" stroke="hsl(0.0,100%,35%)" stroke-width="0.01619"></path>
<path d="M0.731 0.690 Q1.049 0.701 1.140 0.548" stroke="hsl(0.0,100%,35%)" stroke-width="0.01568"></path>
<path d="M0.731 0.690 Q1.020 0.817 1.332 0.704" stroke="hsl(0.0,100%,35%)" stroke-width="0.00051"></path>
<path d="M0.731 0.690 Q0.400 0.761 0.466 0.938" stroke="hsl(0.0,100%,35%)" stroke-width="0.00051"></path>
<path d="M0.731 0.690 Q0.915 0.749 1.071 0.673" stroke="hsl(0.0,100%,35%)" stroke-width="0.00128"></path>
<path d="M1.525 0.565 Q1.317 0.596 1.332 0.704" stroke="hsl(180.0,100%,35%)" stroke-width="0.00026"></path>
<path d="M1.525 0.565 Q1.046 0.575 0.961 0.812" stroke="hsl(180.0,100%,35%)" stroke-width="0.00026"></path>
<path d="M1.525 0.565 Q1.346 0.479 1.140 0.548" stroke="hsl(180.0,100%,35%)" stroke-width="0.00026"></path>
<path d="M1.192 0.898 Q1.145 0.808 0.961 0.812" stroke="hsl(0.0,100%,35%)" stroke-width="0.02339"></path>
<path d="M1.192 0.898 Q1.201 0.952 1.309 0.960" stroke="hsl(0.0,100%,35%)" stroke-width="0.00077"></path>
<path d="M1.192 0.898 Q1.400 0.722 1.103 0.582" stroke="hsl(0.0,100%,35%)" stroke-width="0.00051"></path>
<path d="M1.192 0.898 Q1.049 0.703 0.637 0.730" stroke="hsl(0.0,100%,35%)" stroke-width="0.00051"></path>
<path d="M1.192 0.898 Q1.446 0.712 1.140 0.548" stroke="hsl(0.0,100%,35%)" stroke-width="0.00411"></path>
<path d="M1.192 0.898 Q0.847 0.687 0.360 0.809" stroke="hsl(0.0,100%,35%)" stroke-width="0.00103"></path>
<path d="M1.192 0.898 Q1.311 0.761 1.071 0.673" stroke="hsl(0.0,100%,35%)" stroke-width="0.01490"></path>
<path d="M1.192 0.898 Q0.925 0.749 0.576 0.846" stroke="hsl(0.0,100%,35%)" stroke-width="0.00051"></path>
<path d="M1.192 0.898 Q1.245 0.699 0.869 0.630" stroke="hsl(0.0,100%,35%)" stroke-width="0.00051"></path>
<path d="M1.192 0.898 Q0.957 0.599 0.321 0.648" stroke="hsl(0.0,100%,35%)" stroke-width="0.00026"></path>
<path d="M1.192 0.898 Q1.128 0.702 0.731 0.690" stroke="hsl(0.0,100%,35%)" stroke-width="0.00051"></path>
<path d="M1.192 0.898 Q0.796 0.773 0.466 0.938" stroke="hsl(0.0,100%,35%)" stroke-width="0.00051"></path>
<path d="M0.869 0.630 Q1.103 0.534 0.967 0.398" stroke="hsl(0.0,100%,35%)" stroke-width="0.00026"></path>
<path d="M0.869 0.630 Q1.070 0.643 1.140 0.548" stroke="hsl(0.0,100%,35%)" stroke-width="0.00128"></path>
<path d="M0.869 0.630 Q0.770 0.739 0.961 0.812" stroke="hsl(0.0,100%,35%)" stroke-width="0.01079"></path>
<path d="M0.869 0.630 Q1.198 0.747 1.500 0.612" stroke="hsl(0.0,100%,35%)" stroke-width="0.00051"></path>
<path d="M0.869 0.630 Q0.447 0.487 0.076 0.662" stroke="hsl(0.0,100%,35%)" stroke-width="0.00026"></path>
<path d="M0.869 0.630 Q0.935 0.692 1.071 0.673" stroke="hsl(0.0,100%,35%)" stroke-width="0.00026"></path>
<path d="M0.869 0.630 Q0.549 0.679 0.576 0.846" stroke="hsl(0.0,100%,35%)" stroke-width="0.00051"></path>
<path d="M1.103 0.582 Q0.848 0.668 0.961 0.812" stroke="hsl(0.0,100%,35%)" stroke-width="0.00308"></path>
<path d="M1.103 0.582 Q0.895 0.758 1.192 0.898" stroke="hsl(0.0,100%,35%)" stroke-width="0.00026"></path>
<path d="M1.103 0.582 Q1.148 0.572 1.140 0.548" stroke="hsl(0.0,100%,35%)" stroke-width="0.00026"></path>
<path d="M1.103 0.582 Q1.120 0.689 1.332 0.704" stroke="hsl(0.0,100%,35%)" stroke-width="0.00051"></path>
<path d="M0.360 0.809 Q0.658 0.931 0.961 0.812" stroke="hsl(0.0,100%,35%)" stroke-width="0.00463"></path>
<path d="M0.360 0.809 Q0.959 0.835 1.140 0.548" stroke="hsl(0.0,100%,35%)" stroke-width="0.00283"></path>
<path d="M0.360 0.809 Q0.309 0.895 0.466 0.938" stroke="hsl(0.0,100%,35%)" stroke-width="0.00411"></path>
<path d="M0.360 0.809 Q0.930 0.951 1.332 0.704" stroke="hsl(0.0,100%,35%)" stroke-width="0.00026"></path>
<path d="M0.360 0.809 Q0.705 1.020 1.192 0.898" stroke="hsl(0.0,100%,35%)" stroke-width="0.00026"></path>
<path d="M0.360 0.809 Q0.824 0.883 1.071 0.673" stroke="hsl(0.0,100%,35%)" stroke-width="0.00154"></path>
<path d="M0.858 0.409 Q0.238 0.595 0.466 0.938" stroke="hsl(0.0,100%,35%)" stroke-width="0.00026"></path>
<path d="M0.858 0.409 Q0.587 0.631 0.961 0.812" stroke="hsl(0.0,100%,35%)" stroke-width="0.00128"></path>
<path d="M0.858 0.409 Q0.887 0.535 1.140 0.548" stroke="hsl(0.0,100%,35%)" stroke-width="0.00154"></path>
<path d="M0.858 0.409 Q1.286 0.365 1.295 0.147" stroke="hsl(0.0,100%,35%)" stroke-width="0.00026"></path>
<path d="M0.858 0.409 Q0.753 0.583 1.071 0.673" stroke="hsl(0.0,100%,35%)" stroke-width="0.00026"></path>
<path d="M1.309 0.960 Q1.253 0.816 0.961 0.812" stroke="hsl(0.0,100%,35%)" stroke-width="0.01953"></path>
<path d="M1.309 0.960 Q1.300 0.905 1.192 0.898" stroke="hsl(0.0,100%,35%)" stroke-width="0.01902"></path>
<path d="M1.309 0.960 Q1.419 0.769 1.071 0.673" stroke="hsl(0.0,100%,35%)" stroke-width="0.00077"></path>
<path d="M1.309 0.960 Q1.554 0.720 1.140 0.548" stroke="hsl(0.0,100%,35%)" stroke-width="0.00103"></path>
<path d="M1.309 0.960 Q1.236 0.709 0.731 0.690" stroke="hsl(0.0,100%,35%)" stroke-width="0.00026"></path>
<path d="M0.637 0.730 Q0.781 0.925 1.192 0.898" stroke="hsl(0.0,100%,35%)" stroke-width="0.02544"></path>
<path d="M0.637 0.730 Q0.734 0.835 0.961 0.812" stroke="hsl(0.0,100%,35%)" stroke-width="0.03572"></path>
<path d="M0.637 0.730 Q0.899 0.788 1.071 0.673" stroke="hsl(0.0,100%,35%)" stroke-width="0.00103"></path>
<path d="M0.637 0.730 Q0.933 0.810 1.156 0.684" stroke="hsl(0.0,100%,35%)" stroke-width="0.00026"></path>
<path d="M0.637 0.730 Q1.034 0.739 1.140 0.548" stroke="hsl(0.0,100%,35%)" stroke-width="0.00026"></path>
<path d="M0.937 0.592 Q1.074 0.611 1.140 0.548" stroke="hsl(180.0,100%,35%)" stroke-width="0.00360"></path>
<path d="M0.937 0.592 Q0.773 0.707 0.961 0.812" stroke="hsl(180.0,100%,35%)" stroke-width="0.00360"></path>
<path d="M0.937 0.592 Q1.045 0.727 1.332 0.704" stroke="hsl(180.0,100%,35%)" stroke-width="0.00231"></path>
<path d="M0.937 0.592 Q0.973 0.682 1.156 0.684" stroke="hsl(180.0,100%,35%)" stroke-width="0.00051"></path>
<path d="M1.156 0.684 Q1.228 0.729 1.332 0.704" stroke="hsl(180.0,100%,35%)" stroke-width="0.00206"></path>
<path d="M1.156 0.684 Q0.634 0.457 0.076 0.662" stroke="hsl(180.0,100%,35%)" stroke-width="0.00180"></path>
<path d="M1.156 0.684 Q1.256 0.613 1.140 0.548" stroke="hsl(180.0,100%,35%)" stroke-width="0.00283"></path>
<path d="M1.156 0.684 Q0.956 0.709 0.961 0.812" stroke="hsl(180.0,100%,35%)" stroke-width="0.00488"></path>
<path d="M1.156 0.684 Q1.056 0.599 0.869 0.630" stroke="hsl(180.0,100%,35%)" stroke-width="0.00128"></path>
<path d="M1.156 0.684 Q0.638 0.479 0.124 0.686" stroke="hsl(180.0,100%,35%)" stroke-width="0.00077"></path>
<path d="M1.156 0.684 Q1.122 0.661 1.071 0.673" stroke="hsl(180.0,100%,35%)" stroke-width="0.00026"></path>
<path d="M1.156 0.684 Q1.003 0.798 1.192 0.898" stroke="hsl(180.0,100%,35%)" stroke-width="0.00051"></path>
<path d="M1.302 0.579 Q1.145 0.602 1.156 0.684" stroke="hsl(180.0,100%,35%)" stroke-width="0.00051"></path>
<path d="M1.302 0.579 Q1.246 0.531 1.140 0.548" stroke="hsl(180.0,100%,35%)" stroke-width="0.00103"></path>
<path d="M1.302 0.579 Q1.045 0.518 0.869 0.630" stroke="hsl(180.0,100%,35%)" stroke-width="0.00026"></path>
<path d="M1.302 0.579 Q1.217 0.648 1.332 0.704" stroke="hsl(180.0,100%,35%)" stroke-width="0.00077"></path>
<path d="M0.124 0.686 Q0.442 0.916 0.961 0.812" stroke="hsl(180.0,100%,35%)" stroke-width="0.00360"></path>
<path d="M0.124 0.686 Q0.120 0.664 0.076 0.662" stroke="hsl(180.0,100%,35%)" stroke-width="0.01079"></path>
<path d="M0.124 0.686 Q0.155 0.624 0.040 0.595" stroke="hsl(180.0,100%,35%)" stroke-width="0.00206"></path>
<path d="M0.124 0.686 Q0.743 0.820 1.140 0.548" stroke="hsl(180.0,100%,35%)" stroke-width="0.00463"></path>
<path d="M0.124 0.686 Q0.542 0.807 0.869 0.630" stroke="hsl(180.0,100%,35%)" stroke-width="0.00103"></path>
<path d="M0.124 0.686 Q0.642 0.891 1.156 0.684" stroke="hsl(180.0,100%,35%)" stroke-width="0.00077"></path>
<path d="M0.124 0.686 Q0.714 0.937 1.332 0.704" stroke="hsl(180.0,100%,35%)" stroke-width="0.00051"></path>
<path d="M0.124 0.686 Q0.254 0.707 0.321 0.648" stroke="hsl(180.0,100%,35%)" stroke-width="0.00026"></path>
<path d="M0.040 0.595 Q0.004 0.636 0.076 0.662" stroke="hsl(180.0,100%,35%)" stroke-width="0.00617"></path>
<path d="M0.040 0.595 Q0.627 0.792 1.140 0.548" stroke="hsl(180.0,100%,35%)" stroke-width="0.00154"></path>
<path d="M0.040 0.595 Q0.598 0.908 1.332 0.704" stroke="hsl(180.0,100%,35%)" stroke-width="0.00206"></path>
<path d="M0.040 0.595 Q0.009 0.658 0.124 0.686" stroke="hsl(180.0,100%,35%)" stroke-width="0.00308"></path>
<path d="M0.040 0.595 Q0.303 0.785 0.731 0.698" stroke="hsl(180.0,100%,35%)" stroke-width="0.00103"></path>
<path d="M0.040 0.595 Q0.327 0.888 0.961 0.812" stroke="hsl(180.0,100%,35%)" stroke-width="0.00026"></path>
<path d="M0.040 0.595 Q0.493 0.840 1.071 0.673" stroke="hsl(180.0,100%,35%)" stroke-width="0.00026"></path>
<path d="M0.040 0.595 Q0.526 0.863 1.156 0.684" stroke="hsl(180.0,100%,35%)" stroke-width="0.00206"></path>
<path d="M0.040 0.595 Q0.250 0.543 0.195 0.429" stroke="hsl(180.0,100%,35%)" stroke-width="0.00051"></path>
<path d="M0.891 0.530 Q0.352 0.649 0.466 0.938" stroke="hsl(0.0,100%,35%)" stroke-width="0.00103"></path>
<path d="M0.891 0.530 Q1.001 0.589 1.140 0.548" stroke="hsl(0.0,100%,35%)" stroke-width="0.00051"></path>
<path d="M0.891 0.530 Q0.802 0.504 0.732 0.542" stroke="hsl(0.0,100%,35%)" stroke-width="0.00026"></path>
<path d="M0.891 0.530 Q0.701 0.685 0.961 0.812" stroke="hsl(0.0,100%,35%)" stroke-width="0.00026"></path>
<path d="M0.891 0.530 Q0.402 0.563 0.360 0.809" stroke="hsl(0.0,100%,35%)" stroke-width="0.00026"></path>
<path d="M0.891 0.530 Q0.748 0.774 1.192 0.898" stroke="hsl(0.0,100%,35%)" stroke-width="0.00026"></path>
<path d="M0.283 0.169 Q0.409 0.530 1.140 0.548" stroke="hsl(0.0,100%,35%)" stroke-width="0.00026"></path>
<path d="M0.283 0.169 Q0.337 0.296 0.595 0.297" stroke="hsl(0.0,100%,35%)" stroke-width="0.00051"></path>
<path d="M0.283 0.169 Q0.109 0.626 0.961 0.812" stroke="hsl(0.0,100%,35%)" stroke-width="0.00026"></path>
<path d="M1.271 0.722 Q1.316 0.725 1.332 0.704" stroke="hsl(0.0,100%,35%)" stroke-width="0.00026"></path>
<path d="M1.271 0.722 Q1.045 0.705 0.961 0.812" stroke="hsl(0.0,100%,35%)" stroke-width="0.00051"></path>
<path d="M1.271 0.722 Q1.345 0.609 1.140 0.548" stroke="hsl(0.0,100%,35%)" stroke-width="0.00026"></path>
<path d="M1.271 0.722 Q1.211 0.658 1.071 0.673" stroke="hsl(0.0,100%,35%)" stroke-width="0.00026"></path>
<path d="M1.176 0.810 Q1.067 0.768 0.961 0.812" stroke="hsl(0.0,100%,35%)" stroke-width="0.00283"></path>
<path d="M1.176 0.810 Q0.718 0.732 0.466 0.938" stroke="hsl(0.0,100%,35%)" stroke-width="0.00103"></path>
<path d="M1.176 0.810 Q1.367 0.672 1.140 0.548" stroke="hsl(0.0,100%,35%)" stroke-width="0.00334"></path>
<path d="M1.176 0.810 Q1.114 0.857 1.192 0.898" stroke="hsl(0.0,100%,35%)" stroke-width="0.00128"></path>
<path d="M1.176 0.810 Q1.233 0.720 1.071 0.673" stroke="hsl(0.0,100%,35%)" stroke-width="0.00180"></path>
<path d="M1.176 0.810 Q0.768 0.646 0.360 0.809" stroke="hsl(0.0,100%,35%)" stroke-width="0.00026"></path>
<path d="M1.176 0.810 Q1.338 0.788 1.332 0.704" stroke="hsl(0.0,100%,35%)" stroke-width="0.00026"></path>
<path d="M1.176 0.810 Q0.847 0.708 0.576 0.846" stroke="hsl(0.0,100%,35%)" stroke-width="0.00026"></path>
<path d="M0.712 0.144 Q0.082 0.468 0.576 0.846" stroke="hsl(0.0,100%,35%)" stroke-width="0.00128"></path>
<path d="M0.712 0.144 Q0.602 0.432 1.140 0.548" stroke="hsl(0.0,100%,35%)" stroke-width="0.00026"></path>
<path d="M0.712 0.144 Q0.813 0.131 0.811 0.078" stroke="hsl(0.0,100%,35%)" stroke-width="0.00026"></path>
<path d="M0.712 0.144 Q0.302 0.528 0.961 0.812" stroke="hsl(0.0,100%,35%)" stroke-width="0.00026"></path>
<path d="M0.712 0.144 Q0.349 0.617 1.192 0.898" stroke="hsl(0.0,100%,35%)" stroke-width="0.00051"></path>
<path d="M1.293 0.464 Q1.149 0.476 1.140 0.548" stroke="hsl(0.0,100%,35%)" stroke-width="0.00334"></path>
<path d="M1.293 0.464 Q0.849 0.572 0.961 0.812" stroke="hsl(0.0,100%,35%)" stroke-width="0.00257"></path>
<path d="M1.293 0.464 Q0.832 0.465 0.731 0.690" stroke="hsl(0.0,100%,35%)" stroke-width="0.00026"></path>
<path d="M1.293 0.464 Q0.629 0.512 0.576 0.846" stroke="hsl(0.0,100%,35%)" stroke-width="0.00026"></path>
<path d="M1.293 0.464 Q1.121 0.592 1.332 0.704" stroke="hsl(0.0,100%,35%)" stroke-width="0.00051"></path>
<path d="M0.769 0.973 Q0.994 0.931 0.961 0.812" stroke="hsl(180.0,100%,35%)" stroke-width="0.00103"></path>
<path d="M0.769 0.973 Q1.294 0.835 1.140 0.548" stroke="hsl(180.0,100%,35%)" stroke-width="0.00026"></path>
<path d="M0.769 0.973 Q1.266 0.951 1.332 0.704" stroke="hsl(180.0,100%,35%)" stroke-width="0.00051"></path>
<path d="M1.809 1.010 Q1.222 0.489 0.076 0.662" stroke="hsl(180.0,100%,35%)" stroke-width="0.00077"></path>
<path d="M1.809 1.010 Q1.844 0.645 1.140 0.548" stroke="hsl(180.0,100%,35%)" stroke-width="0.00026"></path>
<path d="M1.809 1.010 Q1.257 0.449 0.040 0.595" stroke="hsl(180.0,100%,35%)" stroke-width="0.00026"></path>
<path d="M1.809 1.010 Q1.744 0.716 1.156 0.684" stroke="hsl(180.0,100%,35%)" stroke-width="0.00026"></path>
<path d="M1.511 0.845 Q1.310 0.808 1.192 0.898" stroke="hsl(0.0,100%,35%)" stroke-width="0.01002"></path>
<path d="M1.511 0.845 Q1.263 0.718 0.961 0.812" stroke="hsl(0.0,100%,35%)" stroke-width="0.01131"></path>
<path d="M1.511 0.845 Q1.534 0.739 1.332 0.704" stroke="hsl(0.0,100%,35%)" stroke-width="0.00026"></path>
<path d="M1.786 0.826 Q1.585 0.629 1.156 0.684" stroke="hsl(180.0,100%,35%)" stroke-width="0.00051"></path>
<path d="M1.786 0.826 Q1.063 0.402 0.076 0.662" stroke="hsl(180.0,100%,35%)" stroke-width="0.00154"></path>
<path d="M1.786 0.826 Q1.650 0.923 1.809 1.010" stroke="hsl(180.0,100%,35%)" stroke-width="0.00103"></path>
<path d="M1.678 0.691 Q1.495 0.628 1.332 0.704" stroke="hsl(180.0,100%,35%)" stroke-width="0.00026"></path>
<path d="M1.678 0.691 Q1.223 0.608 0.961 0.812" stroke="hsl(180.0,100%,35%)" stroke-width="0.00026"></path>
<path d="M1.678 0.691 Q1.523 0.512 1.140 0.548" stroke="hsl(180.0,100%,35%)" stroke-width="0.00026"></path>
<path d="M1.678 0.691 Q1.389 0.561 1.071 0.673" stroke="hsl(180.0,100%,35%)" stroke-width="0.00026"></path>
<path d="M0.885 0.814 Q0.925 0.828 0.961 0.812" stroke="hsl(180.0,100%,35%)" stroke-width="0.00103"></path>
<path d="M0.885 0.814 Q1.125 0.803 1.156 0.684" stroke="hsl(180.0,100%,35%)" stroke-width="0.00051"></path>
<path d="M0.885 0.814 Q0.602 0.576 0.076 0.662" stroke="hsl(180.0,100%,35%)" stroke-width="0.00051"></path>
<path d="M0.436 0.795 Q0.336 0.873 0.466 0.938" stroke="hsl(0.0,100%,35%)" stroke-width="0.00026"></path>
<path d="M0.436 0.795 Q0.732 0.997 1.192 0.898" stroke="hsl(0.0,100%,35%)" stroke-width="0.00026"></path>
<path d="M0.436 0.795 Q0.785 0.799 0.869 0.630" stroke="hsl(0.0,100%,35%)" stroke-width="0.00026"></path>
<path d="M1.483 0.191 Q0.997 0.417 1.332 0.704" stroke="hsl(180.0,100%,35%)" stroke-width="0.00026"></path>
<path d="M1.483 0.191 Q0.725 0.397 0.961 0.812" stroke="hsl(180.0,100%,35%)" stroke-width="0.00026"></path>
<path d="M1.483 0.191 Q1.257 0.142 1.112 0.242" stroke="hsl(180.0,100%,35%)" stroke-width="0.00026"></path>
<path d="M1.078 0.386 Q0.679 0.576 0.961 0.812" stroke="hsl(0.0,100%,35%)" stroke-width="0.00103"></path>
<path d="M1.078 0.386 Q0.980 0.480 1.140 0.548" stroke="hsl(0.0,100%,35%)" stroke-width="0.00231"></path>
<path d="M1.078 0.386 Q0.908 0.245 0.595 0.297" stroke="hsl(0.0,100%,35%)" stroke-width="0.00026"></path>
<path d="M1.078 0.386 Q0.951 0.596 1.332 0.704" stroke="hsl(0.0,100%,35%)" stroke-width="0.00026"></path>
<path d="M1.447 0.630 Q1.331 0.644 1.332 0.704" stroke="hsl(180.0,100%,35%)" stroke-width="0.00051"></path>
<path d="M1.447 0.630 Q1.634 0.305 1.039 0.143" stroke="hsl(180.0,100%,35%)" stroke-width="0.00026"></path>
<path d="M1.447 0.630 Q1.059 0.624 0.961 0.812" stroke="hsl(180.0,100%,35%)" stroke-width="0.00026"></path>
<path d="M1.376 0.383 Q0.826 0.515 0.961 0.812" stroke="hsl(0.0,100%,35%)" stroke-width="0.00103"></path>
<path d="M1.376 0.383 Q1.126 0.419 1.140 0.548" stroke="hsl(0.0,100%,35%)" stroke-width="0.00206"></path>
<path d="M1.376 0.383 Q0.991 0.467 1.071 0.673" stroke="hsl(0.0,100%,35%)" stroke-width="0.00026"></path>
<path d="M0.680 0.579 Q0.734 0.642 0.869 0.630" stroke="hsl(180.0,100%,35%)" stroke-width="0.00077"></path>
<path d="M0.680 0.579 Q0.312 0.500 0.076 0.662" stroke="hsl(180.0,100%,35%)" stroke-width="0.00051"></path>
<path d="M0.680 0.579 Q0.906 0.772 1.332 0.704" stroke="hsl(180.0,100%,35%)" stroke-width="0.00051"></path>
<path d="M0.680 0.579 Q0.934 0.656 1.140 0.548" stroke="hsl(180.0,100%,35%)" stroke-width="0.00026"></path>
<path d="M1.243 0.308 Q0.971 0.524 1.332 0.704" stroke="hsl(180.0,100%,35%)" stroke-width="0.00026"></path>
<path d="M1.243 0.308 Q0.899 0.478 1.156 0.684" stroke="hsl(180.0,100%,35%)" stroke-width="0.00026"></path>
<path d="M1.243 0.308 Q0.999 0.407 1.140 0.548" stroke="hsl(180.0,100%,35%)" stroke-width="0.00026"></path>
<path d="M0.735 0.806 Q1.177 0.648 0.967 0.398" stroke="hsl(0.0,100%,35%)" stroke-width="0.00026"></path>
<path d="M0.735 0.806 Q0.494 0.818 0.466 0.938" stroke="hsl(0.0,100%,35%)" stroke-width="0.00026"></path>
<path d="M0.735 0.806 Q0.843 0.854 0.961 0.812" stroke="hsl(0.0,100%,35%)" stroke-width="0.00257"></path>
<path d="M0.735 0.806 Q1.144 0.758 1.140 0.548" stroke="hsl(0.0,100%,35%)" stroke-width="0.00231"></path>
<path d="M0.735 0.806 Q0.826 0.747 0.731 0.690" stroke="hsl(0.0,100%,35%)" stroke-width="0.00026"></path>
<path d="M0.735 0.806 Q1.115 0.875 1.332 0.704" stroke="hsl(0.0,100%,35%)" stroke-width="0.00051"></path>
<path d="M0.735 0.806 Q0.521 0.602 0.076 0.662" stroke="hsl(0.0,100%,35%)" stroke-width="0.00026"></path>
<path d="M0.735 0.806 Q0.556 0.561 0.040 0.595" stroke="hsl(0.0,100%,35%)" stroke-width="0.00026"></path>
<path d="M0.735 0.806 Q1.009 0.807 1.071 0.673" stroke="hsl(0.0,100%,35%)" stroke-width="0.00026"></path>
<path d="M1.500 0.612 Q1.342 0.625 1.332 0.704" stroke="hsl(180.0,100%,35%)" stroke-width="0.00206"></path>
<path d="M1.500 0.612 Q1.071 0.604 0.961 0.812" stroke="hsl(180.0,100%,35%)" stroke-width="0.00308"></path>
<path d="M1.500 0.612 Q1.371 0.508 1.140 0.548" stroke="hsl(180.0,100%,35%)" stroke-width="0.00103"></path>
<path d="M1.500 0.612 Q1.271 0.579 1.156 0.684" stroke="hsl(180.0,100%,35%)" stroke-width="0.00077"></path>
<path d="M1.500 0.612 Q0.748 0.352 0.076 0.662" stroke="hsl(180.0,100%,35%)" stroke-width="0.00026"></path>
<path d="M1.500 0.612 Q1.118 0.694 1.192 0.898" stroke="hsl(180.0,100%,35%)" stroke-width="0.00026"></path>
<path d="M1.494 0.477 Q0.960 0.538 0.961 0.812" stroke="hsl(0.0,100%,35%)" stroke-width="0.00051"></path>
<path d="M1.494 0.477 Q1.260 0.441 1.140 0.548" stroke="hsl(0.0,100%,35%)" stroke-width="0.00077"></path>
<path d="M1.494 0.477 Q0.942 0.431 0.731 0.690" stroke="hsl(0.0,100%,35%)" stroke-width="0.00026"></path>
<path d="M1.213 0.152 Q1.133 0.113 1.039 0.143" stroke="hsl(180.0,100%,35%)" stroke-width="0.00026"></path>
<path d="M1.213 0.152 Q0.559 0.431 0.961 0.812" stroke="hsl(180.0,100%,35%)" stroke-width="0.00026"></path>
<path d="M1.213 0.152 Q0.859 0.335 1.140 0.548" stroke="hsl(180.0,100%,35%)" stroke-width="0.00026"></path>
<path d="M1.057 0.033 Q0.658 0.424 1.332 0.704" stroke="hsl(180.0,100%,35%)" stroke-width="0.00026"></path>
<path d="M1.057 0.033 Q0.961 0.085 1.039 0.143" stroke="hsl(180.0,100%,35%)" stroke-width="0.00026"></path>
<path d="M1.057 0.033 Q0.386 0.403 0.961 0.812" stroke="hsl(180.0,100%,35%)" stroke-width="0.00026"></path>
<path d="M1.742 0.621 Q1.470 0.581 1.332 0.704" stroke="hsl(180.0,100%,35%)" stroke-width="0.00026"></path>
<path d="M1.742 0.621 Q1.199 0.560 0.961 0.812" stroke="hsl(180.0,100%,35%)" stroke-width="0.00026"></path>
<path d="M1.742 0.621 Q1.499 0.464 1.140 0.548" stroke="hsl(180.0,100%,35%)" stroke-width="0.00026"></path>
</g>
<text x="0.967" y="0.391" font-size="0.015017" fill="hsl(0.0,100%,20%)">abdolrashidi</text>
<text x="0.961" y="0.761" font-size="0.101327" fill="hsl(0.0,100%,20%)">jmadill</text>
<text x="1.140" y="0.508" font-size="0.079837" fill="hsl(0.0,100%,20%)">syoussefi</text>
<text x="0.466" y="0.915" font-size="0.046029" fill="hsl(0.0,100%,20%)">cclao</text>
<text x="0.076" y="0.647" font-size="0.030035" fill="hsl(180.0,100%,20%)">kbr</text>
<text x="0.999" y="0.231" font-size="0.008439" fill="hsl(180.0,100%,20%)">adkushwa</text>
<text x="1.112" y="0.239" font-size="0.005967" fill="hsl(180.0,100%,20%)">rafael.cintron</text>
<text x="1.332" y="0.687" font-size="0.033931" fill="hsl(180.0,100%,20%)">geofflang</text>
<text x="1.351" y="0.489" font-size="0.005447" fill="hsl(0.0,100%,20%)">amy.liu</text>
<text x="1.071" y="0.643" font-size="0.060806" fill="hsl(0.0,100%,20%)">timvp</text>
<text x="0.933" y="0.984" font-size="0.011683" fill="hsl(0.0,100%,20%)">antonio.caggiano</text>
<text x="1.121" y="0.377" font-size="0.004219" fill="hsl(0.0,100%,20%)">cstout</text>
<text x="0.787" y="1.009" font-size="0.002436" fill="hsl(0.0,100%,20%)">jvigilsamsung</text>
<text x="1.276" y="0.393" font-size="0.005967" fill="hsl(0.0,100%,20%)">constantine.shablya</text>
<text x="0.576" y="0.832" font-size="0.027989" fill="hsl(0.0,100%,20%)">ianelliott</text>
<text x="0.805" y="0.425" font-size="0.020236" fill="hsl(0.0,100%,20%)">b.schade</text>
<text x="0.731" y="0.687" font-size="0.020527" fill="hsl(180.0,100%,20%)">lexa.knyazev</text>
<text x="0.731" y="0.675" font-size="0.029637" fill="hsl(0.0,100%,20%)">m.maiya</text>
<text x="1.525" y="0.562" font-size="0.004219" fill="hsl(180.0,100%,20%)">capn</text>
<text x="1.192" y="0.868" font-size="0.058872" fill="hsl(0.0,100%,20%)">cnorthrop</text>
<text x="0.869" y="0.613" font-size="0.034366" fill="hsl(0.0,100%,20%)">ynovikov</text>
<text x="1.103" y="0.576" font-size="0.010895" fill="hsl(0.0,100%,20%)">romanl</text>
<text x="0.360" y="0.799" font-size="0.019791" fill="hsl(0.0,100%,20%)">lfy</text>
<text x="0.858" y="0.404" font-size="0.009115" fill="hsl(0.0,100%,20%)">cheryl.wei</text>
<text x="1.295" y="0.144" font-size="0.004219" fill="hsl(180.0,100%,20%)">sunny.sun</text>
<text x="1.309" y="0.944" font-size="0.031007" fill="hsl(0.0,100%,20%)">lubosz.sarnecki</text>
<text x="0.637" y="0.710" font-size="0.038672" fill="hsl(0.0,100%,20%)">gert.wollny</text>
<text x="0.321" y="0.646" font-size="0.003445" fill="hsl(180.0,100%,20%)">bajones</text>
<text x="1.658" y="0.646" font-size="0.002436" fill="hsl(180.0,100%,20%)">junov</text>
<text x="0.937" y="0.584" font-size="0.016701" fill="hsl(180.0,100%,20%)">penghuang</text>
<text x="1.156" y="0.670" font-size="0.028095" fill="hsl(180.0,100%,20%)">jonahr</text>
<text x="1.572" y="0.380" font-size="0.002436" fill="hsl(180.0,100%,20%)">vikassoni</text>
<text x="1.302" y="0.575" font-size="0.008080" fill="hsl(180.0,100%,20%)">msisov</text>
<text x="0.124" y="0.674" font-size="0.025434" fill="hsl(180.0,100%,20%)">gman</text>
<text x="0.040" y="0.584" font-size="0.022060" fill="hsl(180.0,100%,20%)">kpiddington</text>
<text x="0.891" y="0.526" font-size="0.007704" fill="hsl(0.0,100%,20%)">hailinzhang</text>
<text x="0.732" y="0.541" font-size="0.002436" fill="hsl(0.0,100%,20%)">zzyiwei</text>
<text x="0.283" y="0.167" font-size="0.004872" fill="hsl(0.0,100%,20%)">hans</text>
<text x="0.595" y="0.295" font-size="0.004872" fill="hsl(0.0,100%,20%)">thakis</text>
<text x="0.445" y="0.509" font-size="0.003445" fill="hsl(0.0,100%,20%)">vantablack</text>
<text x="1.271" y="0.719" font-size="0.006890" fill="hsl(0.0,100%,20%)">natsu</text>
<text x="1.176" y="0.800" font-size="0.019641" fill="hsl(0.0,100%,20%)">yuxinhu</text>
<text x="0.712" y="0.139" font-size="0.008784" fill="hsl(0.0,100%,20%)">mark</text>
<text x="1.293" y="0.458" font-size="0.012658" fill="hsl(0.0,100%,20%)">j.vigil</text>
<text x="0.769" y="0.970" font-size="0.006890" fill="hsl(180.0,100%,20%)">jgilbert</text>
<text x="0.837" y="0.821" font-size="0.004219" fill="hsl(0.0,100%,20%)">bsheedy</text>
<text x="0.733" y="-0.195" font-size="0.002436" fill="hsl(0.0,100%,20%)">brucedawson</text>
<text x="1.210" y="-0.681" font-size="0.002436" fill="hsl(0.0,100%,20%)">tandrii</text>
<text x="0.853" y="0.302" font-size="0.002436" fill="hsl(0.0,100%,20%)">dpranke</text>
<text x="1.368" y="0.549" font-size="0.004219" fill="hsl(0.0,100%,20%)">nicolascapens</text>
<text x="0.708" y="1.672" font-size="0.002436" fill="hsl(0.0,100%,20%)">doughorn</text>
<text x="1.809" y="1.006" font-size="0.007704" fill="hsl(180.0,100%,20%)">johncunningham</text>
<text x="1.511" y="0.834" font-size="0.022327" fill="hsl(0.0,100%,20%)">jplate</text>
<text x="0.187" y="0.885" font-size="0.002436" fill="hsl(180.0,100%,20%)">ccameron</text>
<text x="1.786" y="0.822" font-size="0.008439" fill="hsl(180.0,100%,20%)">kkinnunen</text>
<text x="0.195" y="0.427" font-size="0.004872" fill="hsl(180.0,100%,20%)">le.hoang.q</text>
<text x="1.678" y="0.689" font-size="0.004872" fill="hsl(180.0,100%,20%)">kyle.griffiths</text>
<text x="0.885" y="0.810" font-size="0.006890" fill="hsl(180.0,100%,20%)">lehoangq</text>
<text x="0.436" y="0.793" font-size="0.004219" fill="hsl(0.0,100%,20%)">lunpujun</text>
<text x="0.811" y="0.077" font-size="0.002436" fill="hsl(0.0,100%,20%)">mikes</text>
<text x="1.483" y="0.189" font-size="0.004219" fill="hsl(180.0,100%,20%)">patrto</text>
<text x="1.078" y="0.382" font-size="0.009435" fill="hsl(0.0,100%,20%)">pkasting</text>
<text x="1.447" y="0.628" font-size="0.004872" fill="hsl(180.0,100%,20%)">senorblanco</text>
<text x="1.039" y="0.140" font-size="0.004219" fill="hsl(180.0,100%,20%)">jiajia.qin</text>
<text x="1.376" y="0.379" font-size="0.008784" fill="hsl(0.0,100%,20%)">sergeyu</text>
<text x="0.680" y="0.575" font-size="0.006890" fill="hsl(180.0,100%,20%)">shrekshao</text>
<text x="1.243" y="0.306" font-size="0.004219" fill="hsl(180.0,100%,20%)">srisser</text>
<text x="0.735" y="0.800" font-size="0.012658" fill="hsl(0.0,100%,20%)">steven</text>
<text x="1.500" y="0.605" font-size="0.014205" fill="hsl(180.0,100%,20%)">sugoi</text>
<text x="0.888" y="0.463" font-size="0.002436" fill="hsl(0.0,100%,20%)">borenet</text>
<text x="1.366" y="0.559" font-size="0.003445" fill="hsl(0.0,100%,20%)">reveman</text>
<text x="1.494" y="0.474" font-size="0.005967" fill="hsl(0.0,100%,20%)">xiaoxuan.liu</text>
<text x="1.213" y="0.150" font-size="0.004219" fill="hsl(180.0,100%,20%)">xing.xu</text>
<text x="1.057" y="0.031" font-size="0.004219" fill="hsl(180.0,100%,20%)">xinghua.cao</text>
<text x="1.742" y="0.619" font-size="0.004219" fill="hsl(180.0,100%,20%)">yang.gu</text>
</svg>
