<svg width="4000" height="2000" viewBox="-0.025 -0.025 2.05 1.05" xmlns="http://www.w3.org/2000/svg">
  <style>
    path {
      fill: none;
      stroke-linecap: round;
      stroke-opacity: 0.4;
    }

    text {
      text-anchor: middle;
      alignment-baseline: hanging;
    }
  </style>
  <g opacity="0.4">
<path d="M1.805 0.718 Q1.032 0.565 0.565 0.909" stroke="hsl(0.0,100%,35%)" stroke-width="0.01959"></path>
<path d="M1.805 0.718 Q1.691 0.679 1.591 0.727" stroke="hsl(0.0,100%,35%)" stroke-width="0.00326"></path>
<path d="M1.805 0.718 Q1.229 0.509 0.696 0.745" stroke="hsl(0.0,100%,35%)" stroke-width="0.00653"></path>
<path d="M0.565 0.909 Q1.338 1.061 1.805 0.718" stroke="hsl(0.0,100%,35%)" stroke-width="0.02938"></path>
<path d="M0.565 0.909 Q1.281 0.898 1.417 0.546" stroke="hsl(0.0,100%,35%)" stroke-width="0.02285"></path>
<path d="M0.565 0.909 Q0.761 0.853 0.696 0.745" stroke="hsl(0.0,100%,35%)" stroke-width="0.02611"></path>
<path d="M0.565 0.909 Q0.820 1.046 1.144 0.952" stroke="hsl(0.0,100%,35%)" stroke-width="0.00326"></path>
<path d="M0.565 0.909 Q0.721 0.638 0.227 0.502" stroke="hsl(0.0,100%,35%)" stroke-width="0.00979"></path>
<path d="M0.565 0.909 Q0.834 0.762 0.608 0.599" stroke="hsl(0.0,100%,35%)" stroke-width="0.00326"></path>
<path d="M0.696 0.745 Q1.046 0.677 0.991 0.492" stroke="hsl(0.0,100%,35%)" stroke-width="0.00326"></path>
<path d="M0.696 0.745 Q1.216 0.790 1.417 0.546" stroke="hsl(0.0,100%,35%)" stroke-width="0.00326"></path>
<path d="M0.696 0.745 Q1.272 0.953 1.805 0.718" stroke="hsl(0.0,100%,35%)" stroke-width="0.00326"></path>
<path d="M0.696 0.745 Q0.769 0.654 0.608 0.599" stroke="hsl(0.0,100%,35%)" stroke-width="0.00326"></path>
<path d="M0.696 0.745 Q0.499 0.800 0.565 0.909" stroke="hsl(0.0,100%,35%)" stroke-width="0.00326"></path>
<path d="M0.941 0.759 Q0.734 0.627 0.431 0.699" stroke="hsl(0.0,100%,35%)" stroke-width="0.00326"></path>
<path d="M0.941 0.759 Q0.633 0.759 0.565 0.909" stroke="hsl(0.0,100%,35%)" stroke-width="0.00653"></path>
<path d="M0.941 0.759 Q1.406 0.911 1.805 0.718" stroke="hsl(0.0,100%,35%)" stroke-width="0.00326"></path>
<path d="M1.417 0.546 Q0.898 0.501 0.696 0.745" stroke="hsl(0.0,100%,35%)" stroke-width="0.00326"></path>
<path d="M1.417 0.546 Q0.857 0.286 0.227 0.502" stroke="hsl(0.0,100%,35%)" stroke-width="0.00653"></path>
<path d="M1.417 0.546 Q1.474 0.709 1.805 0.718" stroke="hsl(0.0,100%,35%)" stroke-width="0.02285"></path>
<path d="M1.417 0.546 Q0.701 0.557 0.565 0.909" stroke="hsl(0.0,100%,35%)" stroke-width="0.00326"></path>
<path d="M1.384 0.146 Q1.261 0.115 1.175 0.169" stroke="hsl(180.0,100%,35%)" stroke-width="0.01306"></path>
<path d="M1.384 0.146 Q1.539 0.169 1.618 0.098" stroke="hsl(180.0,100%,35%)" stroke-width="0.01306"></path>
<path d="M1.384 0.146 Q1.209 0.190 1.257 0.286" stroke="hsl(180.0,100%,35%)" stroke-width="0.00326"></path>
<path d="M1.618 0.098 Q1.463 0.075 1.384 0.146" stroke="hsl(180.0,100%,35%)" stroke-width="0.00979"></path>
<path d="M1.618 0.098 Q1.340 0.045 1.175 0.169" stroke="hsl(180.0,100%,35%)" stroke-width="0.00326"></path>
<path d="M1.618 0.098 Q0.443 0.293 0.565 0.909" stroke="hsl(180.0,100%,35%)" stroke-width="0.00653"></path>
<path d="M0.639 0.460 Q0.440 0.614 0.696 0.745" stroke="hsl(0.0,100%,35%)" stroke-width="0.00653"></path>
<path d="M0.639 0.460 Q0.399 0.398 0.227 0.502" stroke="hsl(0.0,100%,35%)" stroke-width="0.01306"></path>
<path d="M0.639 0.460 Q0.243 0.669 0.565 0.909" stroke="hsl(0.0,100%,35%)" stroke-width="0.00326"></path>
<path d="M0.639 0.460 Q0.512 0.523 0.608 0.599" stroke="hsl(0.0,100%,35%)" stroke-width="0.00326"></path>
<path d="M0.358 0.828 Q0.397 0.910 0.565 0.909" stroke="hsl(0.0,100%,35%)" stroke-width="0.09467"></path>
<path d="M0.358 0.828 Q0.594 0.854 0.696 0.745" stroke="hsl(0.0,100%,35%)" stroke-width="0.00653"></path>
<path d="M0.358 0.828 Q0.498 0.778 0.431 0.699" stroke="hsl(0.0,100%,35%)" stroke-width="0.00326"></path>
<path d="M0.358 0.828 Q1.114 0.899 1.417 0.546" stroke="hsl(0.0,100%,35%)" stroke-width="0.00653"></path>
<path d="M0.358 0.828 Q1.170 1.062 1.805 0.718" stroke="hsl(0.0,100%,35%)" stroke-width="0.00326"></path>
<path d="M0.358 0.828 Q1.417 0.692 1.384 0.146" stroke="hsl(0.0,100%,35%)" stroke-width="0.01632"></path>
<path d="M1.116 0.624 Q0.809 0.600 0.696 0.745" stroke="hsl(0.0,100%,35%)" stroke-width="0.00326"></path>
<path d="M1.116 0.624 Q0.613 0.656 0.565 0.909" stroke="hsl(0.0,100%,35%)" stroke-width="0.00979"></path>
<path d="M1.116 0.624 Q1.385 0.809 1.805 0.718" stroke="hsl(0.0,100%,35%)" stroke-width="0.00326"></path>
<path d="M1.116 0.624 Q0.574 0.574 0.358 0.828" stroke="hsl(0.0,100%,35%)" stroke-width="0.00326"></path>
<path d="M0.808 0.834 Q1.286 0.937 1.591 0.727" stroke="hsl(0.0,100%,35%)" stroke-width="0.00326"></path>
<path d="M0.808 0.834 Q0.627 0.823 0.565 0.909" stroke="hsl(0.0,100%,35%)" stroke-width="0.00653"></path>
<path d="M0.808 0.834 Q0.588 0.741 0.358 0.828" stroke="hsl(0.0,100%,35%)" stroke-width="0.00326"></path>
<path d="M1.187 0.776 Q0.731 0.637 0.358 0.828" stroke="hsl(180.0,100%,35%)" stroke-width="0.00326"></path>
<path d="M1.187 0.776 Q0.770 0.718 0.565 0.909" stroke="hsl(180.0,100%,35%)" stroke-width="0.00979"></path>
<path d="M1.187 0.776 Q0.967 0.662 0.696 0.745" stroke="hsl(180.0,100%,35%)" stroke-width="0.00326"></path>
<path d="M1.187 0.776 Q1.790 0.500 1.384 0.146" stroke="hsl(180.0,100%,35%)" stroke-width="0.00326"></path>
</g>
<text x="1.805" y="0.685" font-size="0.065066" fill="hsl(0.0,100%,20%)">abdolrashidi</text>
<text x="0.565" y="0.855" font-size="0.107391" fill="hsl(0.0,100%,20%)">syoussefi</text>
<text x="1.591" y="0.718" font-size="0.017087" fill="hsl(0.0,100%,20%)">i.nazarov</text>
<text x="0.696" y="0.716" font-size="0.056672" fill="hsl(0.0,100%,20%)">cnorthrop</text>
<text x="0.941" y="0.747" font-size="0.024165" fill="hsl(0.0,100%,20%)">aurora.zhang</text>
<text x="0.431" y="0.690" font-size="0.017087" fill="hsl(0.0,100%,20%)">kbr</text>
<text x="0.991" y="0.486" font-size="0.012082" fill="hsl(0.0,100%,20%)">mark</text>
<text x="1.417" y="0.518" font-size="0.055369" fill="hsl(0.0,100%,20%)">yuxinhu</text>
<text x="0.608" y="0.588" font-size="0.020927" fill="hsl(0.0,100%,20%)">cclao</text>
<text x="1.384" y="0.120" font-size="0.051261" fill="hsl(180.0,100%,20%)">geofflang</text>
<text x="1.175" y="0.155" font-size="0.027017" fill="hsl(180.0,100%,20%)">liza</text>
<text x="1.618" y="0.079" font-size="0.038208" fill="hsl(180.0,100%,20%)">mpdenton</text>
<text x="1.257" y="0.280" font-size="0.012082" fill="hsl(180.0,100%,20%)">chris</text>
<text x="0.639" y="0.443" font-size="0.034174" fill="hsl(0.0,100%,20%)">jwata</text>
<text x="0.227" y="0.484" font-size="0.036247" fill="hsl(0.0,100%,20%)">ynovikov</text>
<text x="0.358" y="0.789" font-size="0.079230" fill="hsl(0.0,100%,20%)">lexa.knyazev</text>
<text x="1.116" y="0.609" font-size="0.029596" fill="hsl(0.0,100%,20%)">mavis.deng</text>
<text x="0.808" y="0.822" font-size="0.024165" fill="hsl(0.0,100%,20%)">neil.zhang</text>
<text x="1.144" y="0.946" font-size="0.012082" fill="hsl(0.0,100%,20%)">m.maiya</text>
<text x="1.187" y="0.761" font-size="0.029596" fill="hsl(180.0,100%,20%)">yuxiang.qian</text>
</svg>
