<svg width="4000" height="2000" viewBox="-0.025 -0.025 2.05 1.05" xmlns="http://www.w3.org/2000/svg">
  <style>
    path {
      fill: none;
      stroke-linecap: round;
      stroke-opacity: 0.4;
    }

    text {
      text-anchor: middle;
      alignment-baseline: hanging;
    }
  </style>
  <g opacity="0.4">
<path d="M1.390 0.455 Q1.268 0.531 1.391 0.608" stroke="hsl(0.0,100%,35%)" stroke-width="0.01210"></path>
<path d="M1.390 0.455 Q1.049 0.500 1.063 0.676" stroke="hsl(0.0,100%,35%)" stroke-width="0.02260"></path>
<path d="M1.390 0.455 Q0.877 0.212 0.292 0.409" stroke="hsl(0.0,100%,35%)" stroke-width="0.00161"></path>
<path d="M1.390 0.455 Q0.705 0.284 0.222 0.581" stroke="hsl(0.0,100%,35%)" stroke-width="0.00767"></path>
<path d="M1.390 0.455 Q1.442 0.371 1.289 0.327" stroke="hsl(0.0,100%,35%)" stroke-width="0.00040"></path>
<path d="M1.390 0.455 Q0.427 0.409 0.127 0.870" stroke="hsl(0.0,100%,35%)" stroke-width="0.00081"></path>
<path d="M1.390 0.455 Q0.991 0.354 0.706 0.526" stroke="hsl(0.0,100%,35%)" stroke-width="0.00040"></path>
<path d="M1.390 0.455 Q1.264 0.417 1.164 0.471" stroke="hsl(0.0,100%,35%)" stroke-width="0.00040"></path>
<path d="M1.390 0.455 Q1.131 0.603 1.363 0.762" stroke="hsl(0.0,100%,35%)" stroke-width="0.00081"></path>
<path d="M1.391 0.608 Q1.173 0.576 1.063 0.676" stroke="hsl(0.0,100%,35%)" stroke-width="0.05044"></path>
<path d="M1.391 0.608 Q1.029 0.553 0.842 0.718" stroke="hsl(0.0,100%,35%)" stroke-width="0.00121"></path>
<path d="M1.391 0.608 Q1.514 0.531 1.390 0.455" stroke="hsl(0.0,100%,35%)" stroke-width="0.01412"></path>
<path d="M1.391 0.608 Q1.577 0.774 1.943 0.720" stroke="hsl(0.0,100%,35%)" stroke-width="0.00847"></path>
<path d="M1.391 0.608 Q1.388 0.494 1.164 0.471" stroke="hsl(0.0,100%,35%)" stroke-width="0.00968"></path>
<path d="M1.391 0.608 Q1.001 0.289 0.292 0.409" stroke="hsl(0.0,100%,35%)" stroke-width="0.00726"></path>
<path d="M1.391 0.608 Q1.359 0.487 1.117 0.477" stroke="hsl(0.0,100%,35%)" stroke-width="0.00161"></path>
<path d="M1.391 0.608 Q1.254 0.679 1.363 0.762" stroke="hsl(0.0,100%,35%)" stroke-width="0.00121"></path>
<path d="M1.391 0.608 Q0.550 0.486 0.127 0.870" stroke="hsl(0.0,100%,35%)" stroke-width="0.00081"></path>
<path d="M1.391 0.608 Q0.828 0.361 0.222 0.581" stroke="hsl(0.0,100%,35%)" stroke-width="0.00081"></path>
<path d="M1.063 0.676 Q1.404 0.631 1.390 0.455" stroke="hsl(0.0,100%,35%)" stroke-width="0.01210"></path>
<path d="M1.063 0.676 Q1.282 0.708 1.391 0.608" stroke="hsl(0.0,100%,35%)" stroke-width="0.04116"></path>
<path d="M1.063 0.676 Q1.278 0.594 1.164 0.471" stroke="hsl(0.0,100%,35%)" stroke-width="0.02986"></path>
<path d="M1.063 0.676 Q1.145 0.779 1.363 0.762" stroke="hsl(0.0,100%,35%)" stroke-width="0.03188"></path>
<path d="M1.063 0.676 Q0.919 0.653 0.842 0.718" stroke="hsl(0.0,100%,35%)" stroke-width="0.00403"></path>
<path d="M1.063 0.676 Q0.441 0.586 0.127 0.870" stroke="hsl(0.0,100%,35%)" stroke-width="0.00646"></path>
<path d="M1.063 0.676 Q0.892 0.714 0.929 0.806" stroke="hsl(0.0,100%,35%)" stroke-width="0.00081"></path>
<path d="M1.063 0.676 Q1.120 0.219 0.241 0.092" stroke="hsl(0.0,100%,35%)" stroke-width="0.00081"></path>
<path d="M1.063 0.676 Q0.719 0.460 0.222 0.581" stroke="hsl(0.0,100%,35%)" stroke-width="0.00323"></path>
<path d="M1.063 0.676 Q1.004 0.530 0.706 0.526" stroke="hsl(0.0,100%,35%)" stroke-width="0.00040"></path>
<path d="M1.063 0.676 Q0.543 0.510 0.104 0.727" stroke="hsl(0.0,100%,35%)" stroke-width="0.00040"></path>
<path d="M1.063 0.676 Q0.891 0.388 0.292 0.409" stroke="hsl(0.0,100%,35%)" stroke-width="0.01089"></path>
<path d="M1.063 0.676 Q1.034 0.317 0.327 0.253" stroke="hsl(0.0,100%,35%)" stroke-width="0.00040"></path>
<path d="M1.063 0.676 Q1.035 0.756 1.184 0.787" stroke="hsl(0.0,100%,35%)" stroke-width="0.00081"></path>
<path d="M1.063 0.676 Q1.182 0.556 0.974 0.472" stroke="hsl(0.0,100%,35%)" stroke-width="0.00040"></path>
<path d="M1.063 0.676 Q0.794 0.730 0.839 0.873" stroke="hsl(0.0,100%,35%)" stroke-width="0.00040"></path>
<path d="M1.063 0.676 Q1.125 0.731 1.244 0.713" stroke="hsl(0.0,100%,35%)" stroke-width="0.00081"></path>
<path d="M0.292 0.409 Q0.464 0.697 1.063 0.676" stroke="hsl(0.0,100%,35%)" stroke-width="0.02582"></path>
<path d="M0.292 0.409 Q-0.159 0.606 0.127 0.870" stroke="hsl(0.0,100%,35%)" stroke-width="0.00565"></path>
<path d="M0.292 0.409 Q0.805 0.652 1.390 0.455" stroke="hsl(0.0,100%,35%)" stroke-width="0.00767"></path>
<path d="M0.292 0.409 Q0.119 0.481 0.222 0.581" stroke="hsl(0.0,100%,35%)" stroke-width="0.01614"></path>
<path d="M0.292 0.409 Q0.679 0.614 1.164 0.471" stroke="hsl(0.0,100%,35%)" stroke-width="0.00444"></path>
<path d="M0.292 0.409 Q0.545 0.800 1.363 0.762" stroke="hsl(0.0,100%,35%)" stroke-width="0.00081"></path>
<path d="M0.292 0.409 Q0.683 0.728 1.391 0.608" stroke="hsl(0.0,100%,35%)" stroke-width="0.00525"></path>
<path d="M0.292 0.409 Q0.474 0.418 0.531 0.331" stroke="hsl(0.0,100%,35%)" stroke-width="0.00040"></path>
<path d="M0.292 0.409 Q0.521 0.240 0.241 0.092" stroke="hsl(0.0,100%,35%)" stroke-width="0.00040"></path>
<path d="M0.292 0.409 Q0.525 0.751 1.244 0.713" stroke="hsl(0.0,100%,35%)" stroke-width="0.00040"></path>
<path d="M0.222 0.581 Q0.130 0.629 0.203 0.684" stroke="hsl(0.0,100%,35%)" stroke-width="0.00323"></path>
<path d="M0.222 0.581 Q0.230 0.528 0.128 0.513" stroke="hsl(0.0,100%,35%)" stroke-width="0.00202"></path>
<path d="M0.222 0.581 Q0.394 0.509 0.292 0.409" stroke="hsl(0.0,100%,35%)" stroke-width="0.00847"></path>
<path d="M0.222 0.581 Q0.567 0.797 1.063 0.676" stroke="hsl(0.0,100%,35%)" stroke-width="0.00282"></path>
<path d="M0.222 0.581 Q-0.056 0.706 0.127 0.870" stroke="hsl(0.0,100%,35%)" stroke-width="0.00161"></path>
<path d="M0.222 0.581 Q0.216 0.671 0.390 0.693" stroke="hsl(0.0,100%,35%)" stroke-width="0.00081"></path>
<path d="M0.222 0.581 Q0.508 0.651 0.706 0.526" stroke="hsl(0.0,100%,35%)" stroke-width="0.00040"></path>
<path d="M0.222 0.581 Q0.785 0.829 1.391 0.608" stroke="hsl(0.0,100%,35%)" stroke-width="0.00121"></path>
<path d="M0.222 0.581 Q0.907 0.752 1.390 0.455" stroke="hsl(0.0,100%,35%)" stroke-width="0.00040"></path>
<path d="M0.127 0.870 Q0.750 0.960 1.063 0.676" stroke="hsl(0.0,100%,35%)" stroke-width="0.00444"></path>
<path d="M0.127 0.870 Q0.831 1.063 1.363 0.762" stroke="hsl(0.0,100%,35%)" stroke-width="0.00282"></path>
<path d="M0.127 0.870 Q0.340 0.861 0.369 0.755" stroke="hsl(0.0,100%,35%)" stroke-width="0.00686"></path>
<path d="M0.127 0.870 Q0.811 1.015 1.244 0.713" stroke="hsl(0.0,100%,35%)" stroke-width="0.00121"></path>
<path d="M0.127 0.870 Q0.965 0.877 1.164 0.471" stroke="hsl(0.0,100%,35%)" stroke-width="0.00121"></path>
<path d="M0.127 0.870 Q0.578 0.672 0.292 0.409" stroke="hsl(0.0,100%,35%)" stroke-width="0.00565"></path>
<path d="M0.127 0.870 Q0.405 0.744 0.222 0.581" stroke="hsl(0.0,100%,35%)" stroke-width="0.00121"></path>
<path d="M0.127 0.870 Q0.858 0.809 0.900 0.440" stroke="hsl(0.0,100%,35%)" stroke-width="0.00040"></path>
<path d="M0.127 0.870 Q0.969 0.992 1.391 0.608" stroke="hsl(0.0,100%,35%)" stroke-width="0.00040"></path>
<path d="M0.127 0.870 Q1.091 0.915 1.390 0.455" stroke="hsl(0.0,100%,35%)" stroke-width="0.00040"></path>
<path d="M0.706 0.526 Q0.765 0.673 1.063 0.676" stroke="hsl(0.0,100%,35%)" stroke-width="0.00484"></path>
<path d="M0.706 0.526 Q0.983 0.704 1.391 0.608" stroke="hsl(0.0,100%,35%)" stroke-width="0.00081"></path>
<path d="M0.706 0.526 Q0.420 0.457 0.222 0.581" stroke="hsl(0.0,100%,35%)" stroke-width="0.00121"></path>
<path d="M0.706 0.526 Q0.980 0.590 1.164 0.471" stroke="hsl(0.0,100%,35%)" stroke-width="0.00040"></path>
<path d="M0.706 0.526 Q0.593 0.385 0.292 0.409" stroke="hsl(0.0,100%,35%)" stroke-width="0.00081"></path>
<path d="M0.706 0.526 Q0.672 0.524 0.660 0.540" stroke="hsl(0.0,100%,35%)" stroke-width="0.00040"></path>
<path d="M1.164 0.471 Q1.290 0.508 1.390 0.455" stroke="hsl(0.0,100%,35%)" stroke-width="0.00403"></path>
<path d="M1.164 0.471 Q0.949 0.553 1.063 0.676" stroke="hsl(0.0,100%,35%)" stroke-width="0.00807"></path>
<path d="M1.164 0.471 Q0.599 0.427 0.390 0.693" stroke="hsl(0.0,100%,35%)" stroke-width="0.00040"></path>
<path d="M1.164 0.471 Q0.326 0.463 0.127 0.870" stroke="hsl(0.0,100%,35%)" stroke-width="0.00121"></path>
<path d="M1.164 0.471 Q0.777 0.266 0.292 0.409" stroke="hsl(0.0,100%,35%)" stroke-width="0.00363"></path>
<path d="M1.164 0.471 Q1.168 0.585 1.391 0.608" stroke="hsl(0.0,100%,35%)" stroke-width="0.00363"></path>
<path d="M1.164 0.471 Q0.890 0.407 0.706 0.526" stroke="hsl(0.0,100%,35%)" stroke-width="0.00040"></path>
<path d="M1.164 0.471 Q1.010 0.608 1.244 0.713" stroke="hsl(0.0,100%,35%)" stroke-width="0.00040"></path>
<path d="M1.363 0.762 Q1.282 0.659 1.063 0.676" stroke="hsl(0.0,100%,35%)" stroke-width="0.02784"></path>
<path d="M1.363 0.762 Q0.761 0.493 0.104 0.727" stroke="hsl(0.0,100%,35%)" stroke-width="0.00323"></path>
<path d="M1.363 0.762 Q0.758 0.472 0.060 0.703" stroke="hsl(0.0,100%,35%)" stroke-width="0.00202"></path>
<path d="M1.363 0.762 Q1.110 0.371 0.292 0.409" stroke="hsl(0.0,100%,35%)" stroke-width="0.00121"></path>
<path d="M1.363 0.762 Q1.338 0.202 0.241 0.092" stroke="hsl(0.0,100%,35%)" stroke-width="0.00121"></path>
<path d="M1.363 0.762 Q1.105 0.716 0.958 0.831" stroke="hsl(0.0,100%,35%)" stroke-width="0.00161"></path>
<path d="M1.363 0.762 Q1.253 0.739 1.184 0.787" stroke="hsl(0.0,100%,35%)" stroke-width="0.00202"></path>
<path d="M1.363 0.762 Q1.500 0.691 1.391 0.608" stroke="hsl(0.0,100%,35%)" stroke-width="0.00040"></path>
<path d="M1.363 0.762 Q0.659 0.569 0.127 0.870" stroke="hsl(0.0,100%,35%)" stroke-width="0.00323"></path>
<path d="M1.363 0.762 Q1.532 0.780 1.603 0.701" stroke="hsl(0.0,100%,35%)" stroke-width="0.00040"></path>
<path d="M1.363 0.762 Q1.496 0.577 1.164 0.471" stroke="hsl(0.0,100%,35%)" stroke-width="0.00121"></path>
<path d="M1.363 0.762 Q0.937 0.443 0.222 0.581" stroke="hsl(0.0,100%,35%)" stroke-width="0.00202"></path>
<path d="M1.363 0.762 Q1.394 0.813 1.500 0.809" stroke="hsl(0.0,100%,35%)" stroke-width="0.00081"></path>
<path d="M1.363 0.762 Q1.389 0.508 0.900 0.440" stroke="hsl(0.0,100%,35%)" stroke-width="0.00040"></path>
<path d="M1.363 0.762 Q1.622 0.614 1.390 0.455" stroke="hsl(0.0,100%,35%)" stroke-width="0.00121"></path>
<path d="M1.363 0.762 Q1.486 0.766 1.522 0.707" stroke="hsl(0.0,100%,35%)" stroke-width="0.00040"></path>
<path d="M1.363 0.762 Q1.497 0.876 1.749 0.836" stroke="hsl(0.0,100%,35%)" stroke-width="0.00040"></path>
<path d="M0.786 0.923 Q0.500 0.765 0.127 0.870" stroke="hsl(0.0,100%,35%)" stroke-width="0.00040"></path>
<path d="M0.786 0.923 Q0.699 0.910 0.654 0.949" stroke="hsl(0.0,100%,35%)" stroke-width="0.00040"></path>
<path d="M0.786 0.923 Q1.122 0.855 1.063 0.676" stroke="hsl(0.0,100%,35%)" stroke-width="0.00040"></path>
<path d="M0.473 0.735 Q0.193 0.733 0.127 0.870" stroke="hsl(0.0,100%,35%)" stroke-width="0.00040"></path>
<path d="M0.473 0.735 Q0.470 0.608 0.222 0.581" stroke="hsl(0.0,100%,35%)" stroke-width="0.00081"></path>
<path d="M0.473 0.735 Q0.643 0.536 0.292 0.409" stroke="hsl(0.0,100%,35%)" stroke-width="0.00040"></path>
<path d="M0.369 0.755 Q0.156 0.764 0.127 0.870" stroke="hsl(0.0,100%,35%)" stroke-width="0.00202"></path>
<path d="M0.369 0.755 Q0.860 0.957 1.363 0.762" stroke="hsl(0.0,100%,35%)" stroke-width="0.00040"></path>
<path d="M0.369 0.755 Q0.396 0.810 0.510 0.809" stroke="hsl(0.0,100%,35%)" stroke-width="0.00040"></path>
<path d="M0.842 0.718 Q0.986 0.741 1.063 0.676" stroke="hsl(0.0,100%,35%)" stroke-width="0.03107"></path>
<path d="M0.842 0.718 Q1.205 0.773 1.391 0.608" stroke="hsl(0.0,100%,35%)" stroke-width="0.01049"></path>
<path d="M0.842 0.718 Q1.327 0.696 1.390 0.455" stroke="hsl(0.0,100%,35%)" stroke-width="0.00040"></path>
<path d="M0.842 0.718 Q1.201 0.659 1.164 0.471" stroke="hsl(0.0,100%,35%)" stroke-width="0.00081"></path>
<path d="M0.842 0.718 Q1.067 0.844 1.363 0.762" stroke="hsl(0.0,100%,35%)" stroke-width="0.00121"></path>
<path d="M0.842 0.718 Q0.641 0.526 0.222 0.581" stroke="hsl(0.0,100%,35%)" stroke-width="0.00040"></path>
<path d="M1.943 0.720 Q1.757 0.554 1.391 0.608" stroke="hsl(0.0,100%,35%)" stroke-width="0.00282"></path>
<path d="M1.943 0.720 Q1.193 0.307 0.222 0.581" stroke="hsl(0.0,100%,35%)" stroke-width="0.00081"></path>
<path d="M1.943 0.720 Q1.538 0.522 1.063 0.676" stroke="hsl(0.0,100%,35%)" stroke-width="0.00121"></path>
<path d="M1.117 0.477 Q1.272 0.520 1.390 0.455" stroke="hsl(0.0,100%,35%)" stroke-width="0.00202"></path>
<path d="M1.117 0.477 Q1.149 0.597 1.391 0.608" stroke="hsl(0.0,100%,35%)" stroke-width="0.00403"></path>
<path d="M1.117 0.477 Q0.931 0.566 1.063 0.676" stroke="hsl(0.0,100%,35%)" stroke-width="0.00242"></path>
<path d="M1.117 0.477 Q0.308 0.475 0.127 0.870" stroke="hsl(0.0,100%,35%)" stroke-width="0.00040"></path>
<path d="M0.203 0.684 Q0.294 0.636 0.222 0.581" stroke="hsl(0.0,100%,35%)" stroke-width="0.01049"></path>
<path d="M0.203 0.684 Q0.639 0.852 1.063 0.676" stroke="hsl(0.0,100%,35%)" stroke-width="0.00161"></path>
<path d="M0.203 0.684 Q0.467 0.564 0.292 0.409" stroke="hsl(0.0,100%,35%)" stroke-width="0.00121"></path>
<path d="M0.203 0.684 Q0.016 0.762 0.127 0.870" stroke="hsl(0.0,100%,35%)" stroke-width="0.00040"></path>
<path d="M0.128 0.513 Q0.120 0.566 0.222 0.581" stroke="hsl(0.0,100%,35%)" stroke-width="0.00282"></path>
<path d="M0.128 0.513 Q0.293 0.494 0.292 0.409" stroke="hsl(0.0,100%,35%)" stroke-width="0.00040"></path>
<path d="M0.128 0.513 Q-0.158 0.691 0.127 0.870" stroke="hsl(0.0,100%,35%)" stroke-width="0.00040"></path>
<path d="M0.128 0.513 Q0.465 0.781 1.063 0.676" stroke="hsl(0.0,100%,35%)" stroke-width="0.00040"></path>
<path d="M0.427 0.483 Q0.419 0.419 0.292 0.409" stroke="hsl(0.0,100%,35%)" stroke-width="0.00121"></path>
<path d="M0.427 0.483 Q0.591 0.707 1.063 0.676" stroke="hsl(0.0,100%,35%)" stroke-width="0.00040"></path>
<path d="M0.427 0.483 Q-0.032 0.616 0.127 0.870" stroke="hsl(0.0,100%,35%)" stroke-width="0.00040"></path>
<path d="M0.875 0.549 Q0.867 0.650 1.063 0.676" stroke="hsl(0.0,100%,35%)" stroke-width="0.00081"></path>
<path d="M0.875 0.549 Q0.838 0.291 0.327 0.253" stroke="hsl(0.0,100%,35%)" stroke-width="0.00040"></path>
<path d="M0.875 0.549 Q0.245 0.560 0.127 0.870" stroke="hsl(0.0,100%,35%)" stroke-width="0.00040"></path>
<path d="M0.875 0.549 Q0.924 0.193 0.241 0.092" stroke="hsl(0.0,100%,35%)" stroke-width="0.00040"></path>
<path d="M0.875 0.549 Q0.949 0.753 1.363 0.762" stroke="hsl(0.0,100%,35%)" stroke-width="0.00040"></path>
<path d="M0.327 0.253 Q0.438 0.715 1.363 0.762" stroke="hsl(0.0,100%,35%)" stroke-width="0.00686"></path>
<path d="M0.327 0.253 Q0.413 0.155 0.241 0.092" stroke="hsl(0.0,100%,35%)" stroke-width="0.00525"></path>
<path d="M0.327 0.253 Q0.476 0.358 0.713 0.309" stroke="hsl(0.0,100%,35%)" stroke-width="0.00040"></path>
<path d="M0.327 0.253 Q0.328 0.692 1.184 0.787" stroke="hsl(0.0,100%,35%)" stroke-width="0.00040"></path>
<path d="M0.241 0.092 Q0.184 0.548 1.063 0.676" stroke="hsl(0.0,100%,35%)" stroke-width="0.00040"></path>
<path d="M0.241 0.092 Q0.266 0.651 1.363 0.762" stroke="hsl(0.0,100%,35%)" stroke-width="0.00121"></path>
<path d="M0.241 0.092 Q0.222 0.419 0.857 0.500" stroke="hsl(0.0,100%,35%)" stroke-width="0.00040"></path>
<path d="M1.132 0.999 Q1.183 0.536 0.292 0.409" stroke="hsl(0.0,100%,35%)" stroke-width="0.00040"></path>
<path d="M1.132 0.999 Q1.570 0.741 1.164 0.471" stroke="hsl(0.0,100%,35%)" stroke-width="0.00040"></path>
<path d="M1.132 0.999 Q1.355 0.824 1.063 0.676" stroke="hsl(0.0,100%,35%)" stroke-width="0.00040"></path>
<path d="M0.104 0.727 Q0.101 0.707 0.060 0.703" stroke="hsl(0.0,100%,35%)" stroke-width="0.00484"></path>
<path d="M0.104 0.727 Q0.625 0.894 1.063 0.676" stroke="hsl(0.0,100%,35%)" stroke-width="0.00807"></path>
<path d="M0.104 0.727 Q0.706 0.996 1.363 0.762" stroke="hsl(0.0,100%,35%)" stroke-width="0.00363"></path>
<path d="M0.104 0.727 Q0.452 0.606 0.292 0.409" stroke="hsl(0.0,100%,35%)" stroke-width="0.00040"></path>
<path d="M0.104 0.727 Q0.071 0.897 0.395 0.950" stroke="hsl(0.0,100%,35%)" stroke-width="0.00040"></path>
<path d="M0.060 0.703 Q0.063 0.724 0.104 0.727" stroke="hsl(0.0,100%,35%)" stroke-width="0.00323"></path>
<path d="M0.060 0.703 Q0.583 0.890 1.063 0.676" stroke="hsl(0.0,100%,35%)" stroke-width="0.00444"></path>
<path d="M0.060 0.703 Q0.665 0.993 1.363 0.762" stroke="hsl(0.0,100%,35%)" stroke-width="0.00161"></path>
<path d="M1.184 0.787 Q1.269 0.251 0.241 0.092" stroke="hsl(0.0,100%,35%)" stroke-width="0.01332"></path>
<path d="M1.184 0.787 Q1.212 0.708 1.063 0.676" stroke="hsl(0.0,100%,35%)" stroke-width="0.02784"></path>
<path d="M1.184 0.787 Q1.183 0.349 0.327 0.253" stroke="hsl(0.0,100%,35%)" stroke-width="0.00444"></path>
<path d="M1.184 0.787 Q1.347 0.344 0.518 0.168" stroke="hsl(0.0,100%,35%)" stroke-width="0.00242"></path>
<path d="M1.184 0.787 Q1.294 0.810 1.363 0.762" stroke="hsl(0.0,100%,35%)" stroke-width="0.01533"></path>
<path d="M1.184 0.787 Q0.590 0.617 0.127 0.870" stroke="hsl(0.0,100%,35%)" stroke-width="0.00040"></path>
<path d="M1.184 0.787 Q1.386 0.287 0.454 0.079" stroke="hsl(0.0,100%,35%)" stroke-width="0.00040"></path>
<path d="M1.184 0.787 Q1.427 0.625 1.164 0.471" stroke="hsl(0.0,100%,35%)" stroke-width="0.00040"></path>
<path d="M1.184 0.787 Q1.431 0.739 1.391 0.608" stroke="hsl(0.0,100%,35%)" stroke-width="0.00040"></path>
<path d="M0.900 0.440 Q0.793 0.591 1.063 0.676" stroke="hsl(0.0,100%,35%)" stroke-width="0.00525"></path>
<path d="M0.900 0.440 Q0.170 0.500 0.127 0.870" stroke="hsl(0.0,100%,35%)" stroke-width="0.00040"></path>
<path d="M0.900 0.440 Q0.874 0.693 1.363 0.762" stroke="hsl(0.0,100%,35%)" stroke-width="0.00202"></path>
<path d="M0.900 0.440 Q1.011 0.622 1.391 0.608" stroke="hsl(0.0,100%,35%)" stroke-width="0.00040"></path>
<path d="M0.900 0.440 Q1.008 0.508 1.164 0.471" stroke="hsl(0.0,100%,35%)" stroke-width="0.00040"></path>
<path d="M0.900 0.440 Q0.849 0.134 0.241 0.092" stroke="hsl(0.0,100%,35%)" stroke-width="0.00040"></path>
<path d="M0.900 0.440 Q1.134 0.545 1.390 0.455" stroke="hsl(0.0,100%,35%)" stroke-width="0.00040"></path>
<path d="M0.503 0.281 Q0.548 0.694 1.363 0.762" stroke="hsl(0.0,100%,35%)" stroke-width="0.00040"></path>
<path d="M0.503 0.281 Q0.524 0.134 0.241 0.092" stroke="hsl(0.0,100%,35%)" stroke-width="0.00040"></path>
<path d="M0.503 0.281 Q0.437 0.232 0.327 0.253" stroke="hsl(0.0,100%,35%)" stroke-width="0.00040"></path>
<path d="M0.773 0.404 Q0.700 0.598 1.063 0.676" stroke="hsl(0.0,100%,35%)" stroke-width="0.00081"></path>
<path d="M0.773 0.404 Q0.978 0.414 1.044 0.317" stroke="hsl(0.0,100%,35%)" stroke-width="0.00040"></path>
<path d="M0.773 0.404 Q0.919 0.629 1.391 0.608" stroke="hsl(0.0,100%,35%)" stroke-width="0.00040"></path>
<path d="M0.974 0.472 Q1.074 0.624 1.391 0.608" stroke="hsl(0.0,100%,35%)" stroke-width="0.00363"></path>
<path d="M0.974 0.472 Q0.856 0.592 1.063 0.676" stroke="hsl(0.0,100%,35%)" stroke-width="0.00928"></path>
<path d="M0.974 0.472 Q0.937 0.695 1.363 0.762" stroke="hsl(0.0,100%,35%)" stroke-width="0.00121"></path>
<path d="M0.974 0.472 Q0.712 0.569 0.842 0.718" stroke="hsl(0.0,100%,35%)" stroke-width="0.00121"></path>
<path d="M0.974 0.472 Q0.684 0.304 0.292 0.409" stroke="hsl(0.0,100%,35%)" stroke-width="0.00040"></path>
<path d="M0.107 0.232 Q0.311 0.748 1.363 0.762" stroke="hsl(0.0,100%,35%)" stroke-width="0.00081"></path>
<path d="M0.107 0.232 Q0.035 0.274 0.100 0.318" stroke="hsl(0.0,100%,35%)" stroke-width="0.00040"></path>
<path d="M0.107 0.232 Q0.230 0.646 1.063 0.676" stroke="hsl(0.0,100%,35%)" stroke-width="0.00081"></path>
<path d="M0.857 0.500 Q0.900 0.732 1.363 0.762" stroke="hsl(0.0,100%,35%)" stroke-width="0.00081"></path>
<path d="M0.857 0.500 Q0.875 0.172 0.241 0.092" stroke="hsl(0.0,100%,35%)" stroke-width="0.00081"></path>
<path d="M0.857 0.500 Q0.819 0.629 1.063 0.676" stroke="hsl(0.0,100%,35%)" stroke-width="0.00081"></path>
<path d="M0.518 0.168 Q0.465 0.634 1.363 0.762" stroke="hsl(0.0,100%,35%)" stroke-width="0.00202"></path>
<path d="M0.518 0.168 Q0.384 0.531 1.063 0.676" stroke="hsl(0.0,100%,35%)" stroke-width="0.00686"></path>
<path d="M0.518 0.168 Q0.440 0.074 0.241 0.092" stroke="hsl(0.0,100%,35%)" stroke-width="0.00646"></path>
<path d="M0.518 0.168 Q0.355 0.611 1.184 0.787" stroke="hsl(0.0,100%,35%)" stroke-width="0.00081"></path>
<path d="M0.518 0.168 Q0.354 0.172 0.327 0.253" stroke="hsl(0.0,100%,35%)" stroke-width="0.00081"></path>
<path d="M0.518 0.168 Q0.557 0.110 0.454 0.079" stroke="hsl(0.0,100%,35%)" stroke-width="0.00040"></path>
<path d="M1.341 0.693 Q1.272 0.172 0.241 0.092" stroke="hsl(0.0,100%,35%)" stroke-width="0.00081"></path>
<path d="M1.341 0.693 Q1.187 0.708 1.184 0.787" stroke="hsl(0.0,100%,35%)" stroke-width="0.00040"></path>
<path d="M1.341 0.693 Q1.215 0.629 1.063 0.676" stroke="hsl(0.0,100%,35%)" stroke-width="0.00121"></path>
<path d="M1.341 0.693 Q1.349 0.266 0.518 0.168" stroke="hsl(0.0,100%,35%)" stroke-width="0.00081"></path>
<path d="M0.395 0.950 Q1.163 0.864 1.164 0.471" stroke="hsl(0.0,100%,35%)" stroke-width="0.00040"></path>
<path d="M0.395 0.950 Q0.948 0.947 1.063 0.676" stroke="hsl(0.0,100%,35%)" stroke-width="0.00081"></path>
<path d="M0.395 0.950 Q0.325 0.856 0.127 0.870" stroke="hsl(0.0,100%,35%)" stroke-width="0.00121"></path>
<path d="M0.395 0.950 Q0.546 0.946 0.572 0.871" stroke="hsl(0.0,100%,35%)" stroke-width="0.00040"></path>
<path d="M0.534 0.047 Q0.295 0.468 1.063 0.676" stroke="hsl(0.0,100%,35%)" stroke-width="0.00081"></path>
<path d="M0.534 0.047 Q0.429 0.104 0.518 0.168" stroke="hsl(0.0,100%,35%)" stroke-width="0.00161"></path>
<path d="M0.534 0.047 Q0.376 0.570 1.363 0.762" stroke="hsl(0.0,100%,35%)" stroke-width="0.00081"></path>
<path d="M1.244 0.713 Q1.398 0.576 1.164 0.471" stroke="hsl(0.0,100%,35%)" stroke-width="0.00242"></path>
<path d="M1.244 0.713 Q0.560 0.568 0.127 0.870" stroke="hsl(0.0,100%,35%)" stroke-width="0.00081"></path>
<path d="M1.244 0.713 Q1.183 0.658 1.063 0.676" stroke="hsl(0.0,100%,35%)" stroke-width="0.00121"></path>
<path d="M1.244 0.713 Q0.838 0.442 0.222 0.581" stroke="hsl(0.0,100%,35%)" stroke-width="0.00040"></path>
<path d="M0.326 0.962 Q0.751 0.679 0.292 0.409" stroke="hsl(0.0,100%,35%)" stroke-width="0.00040"></path>
<path d="M0.326 0.962 Q0.301 0.876 0.127 0.870" stroke="hsl(0.0,100%,35%)" stroke-width="0.00363"></path>
<path d="M0.326 0.962 Q0.980 0.510 0.241 0.092" stroke="hsl(0.0,100%,35%)" stroke-width="0.00040"></path>
</g>
<text x="1.390" y="0.430" font-size="0.049149" fill="hsl(0.0,100%,20%)">abdolrashidi</text>
<text x="1.391" y="0.573" font-size="0.070209" fill="hsl(0.0,100%,20%)">cclao</text>
<text x="1.063" y="0.624" font-size="0.103739" fill="hsl(0.0,100%,20%)">syoussefi</text>
<text x="0.292" y="0.382" font-size="0.054802" fill="hsl(0.0,100%,20%)">romanl</text>
<text x="0.222" y="0.560" font-size="0.043136" fill="hsl(0.0,100%,20%)">cnorthrop</text>
<text x="1.289" y="0.326" font-size="0.003299" fill="hsl(0.0,100%,20%)">kaiyili</text>
<text x="0.127" y="0.850" font-size="0.038751" fill="hsl(0.0,100%,20%)">ynovikov</text>
<text x="0.706" y="0.518" font-size="0.016493" fill="hsl(0.0,100%,20%)">zzyiwei</text>
<text x="1.164" y="0.448" font-size="0.044624" fill="hsl(0.0,100%,20%)">yuxinhu</text>
<text x="1.363" y="0.733" font-size="0.058267" fill="hsl(0.0,100%,20%)">geofflang</text>
<text x="0.786" y="0.920" font-size="0.005714" fill="hsl(0.0,100%,20%)">agrieve</text>
<text x="0.654" y="0.948" font-size="0.003299" fill="hsl(0.0,100%,20%)">smaier</text>
<text x="0.473" y="0.732" font-size="0.006597" fill="hsl(0.0,100%,20%)">banisingh</text>
<text x="0.369" y="0.747" font-size="0.016160" fill="hsl(0.0,100%,20%)">bsheedy</text>
<text x="0.510" y="0.807" font-size="0.003299" fill="hsl(0.0,100%,20%)">chanli</text>
<text x="0.842" y="0.699" font-size="0.037028" fill="hsl(0.0,100%,20%)">m.maiya</text>
<text x="1.943" y="0.711" font-size="0.018950" fill="hsl(0.0,100%,20%)">chrisforbes</text>
<text x="1.117" y="0.468" font-size="0.016820" fill="hsl(0.0,100%,20%)">hailinzhang</text>
<text x="0.203" y="0.673" font-size="0.021378" fill="hsl(0.0,100%,20%)">mark</text>
<text x="0.128" y="0.506" font-size="0.012776" fill="hsl(0.0,100%,20%)">mikes</text>
<text x="0.390" y="0.690" font-size="0.005714" fill="hsl(0.0,100%,20%)">lpy</text>
<text x="0.427" y="0.479" font-size="0.007376" fill="hsl(0.0,100%,20%)">dextero</text>
<text x="0.875" y="0.545" font-size="0.008080" fill="hsl(0.0,100%,20%)">djg</text>
<text x="0.327" y="0.242" font-size="0.022854" fill="hsl(0.0,100%,20%)">lehoangquyen</text>
<text x="0.241" y="0.077" font-size="0.029688" fill="hsl(0.0,100%,20%)">kbr</text>
<text x="1.132" y="0.996" font-size="0.005714" fill="hsl(0.0,100%,20%)">dloehr</text>
<text x="0.104" y="0.715" font-size="0.025552" fill="hsl(0.0,100%,20%)">liza</text>
<text x="0.060" y="0.693" font-size="0.020863" fill="hsl(0.0,100%,20%)">mpdenton</text>
<text x="0.958" y="0.828" font-size="0.006597" fill="hsl(0.0,100%,20%)">penghuang</text>
<text x="1.184" y="0.766" font-size="0.043262" fill="hsl(0.0,100%,20%)">lexa.knyazev</text>
<text x="1.603" y="0.699" font-size="0.003299" fill="hsl(0.0,100%,20%)">jamesgk</text>
<text x="1.500" y="0.807" font-size="0.004665" fill="hsl(0.0,100%,20%)">rafael.cintron</text>
<text x="0.900" y="0.432" font-size="0.016493" fill="hsl(0.0,100%,20%)">steven</text>
<text x="1.522" y="0.705" font-size="0.003299" fill="hsl(0.0,100%,20%)">johnstiles</text>
<text x="1.749" y="0.834" font-size="0.003299" fill="hsl(0.0,100%,20%)">vasilyt</text>
<text x="0.503" y="0.279" font-size="0.005714" fill="hsl(0.0,100%,20%)">gman</text>
<text x="0.773" y="0.400" font-size="0.006597" fill="hsl(0.0,100%,20%)">hans</text>
<text x="1.044" y="0.315" font-size="0.003299" fill="hsl(0.0,100%,20%)">thakis</text>
<text x="0.974" y="0.462" font-size="0.020863" fill="hsl(0.0,100%,20%)">i.nazarov</text>
<text x="0.107" y="0.229" font-size="0.007376" fill="hsl(0.0,100%,20%)">jiawei.shao</text>
<text x="0.100" y="0.316" font-size="0.003299" fill="hsl(0.0,100%,20%)">senorblanco</text>
<text x="0.857" y="0.495" font-size="0.008728" fill="hsl(0.0,100%,20%)">jonahr</text>
<text x="0.518" y="0.155" font-size="0.024464" fill="hsl(0.0,100%,20%)">kkinnunen</text>
<text x="0.454" y="0.076" font-size="0.004665" fill="hsl(0.0,100%,20%)">kpiddington</text>
<text x="0.713" y="0.307" font-size="0.003299" fill="hsl(0.0,100%,20%)">sunnyps</text>
<text x="1.341" y="0.688" font-size="0.009330" fill="hsl(0.0,100%,20%)">lerica</text>
<text x="0.395" y="0.945" font-size="0.009330" fill="hsl(0.0,100%,20%)">sokcevic</text>
<text x="0.534" y="0.042" font-size="0.009330" fill="hsl(0.0,100%,20%)">mscott</text>
<text x="0.531" y="0.329" font-size="0.003299" fill="hsl(0.0,100%,20%)">zijiehe</text>
<text x="1.244" y="0.705" font-size="0.014379" fill="hsl(0.0,100%,20%)">solti</text>
<text x="0.572" y="0.869" font-size="0.003299" fill="hsl(0.0,100%,20%)">jwata</text>
<text x="0.929" y="0.804" font-size="0.004665" fill="hsl(0.0,100%,20%)">a.annestrand</text>
<text x="0.839" y="0.871" font-size="0.003299" fill="hsl(0.0,100%,20%)">ianelliott</text>
<text x="0.326" y="0.957" font-size="0.010941" fill="hsl(0.0,100%,20%)">tikuta</text>
<text x="0.660" y="0.539" font-size="0.003299" fill="hsl(0.0,100%,20%)">lepton</text>
</svg>
