<svg width="4000" height="2000" viewBox="-0.025 -0.025 2.05 1.05" xmlns="http://www.w3.org/2000/svg">
  <style>
    path {
      fill: none;
      stroke-linecap: round;
      stroke-opacity: 0.4;
    }

    text {
      text-anchor: middle;
      alignment-baseline: hanging;
    }
  </style>
  <g opacity="0.4">
<path d="M1.336 0.471 Q0.920 0.323 0.541 0.493" stroke="hsl(0.0,100%,35%)" stroke-width="0.00486"></path>
<path d="M1.336 0.471 Q1.467 0.275 1.113 0.168" stroke="hsl(0.0,100%,35%)" stroke-width="0.00486"></path>
<path d="M1.336 0.471 Q1.272 0.550 1.411 0.598" stroke="hsl(0.0,100%,35%)" stroke-width="0.00486"></path>
<path d="M1.336 0.471 Q0.495 0.386 0.145 0.778" stroke="hsl(0.0,100%,35%)" stroke-width="0.00486"></path>
<path d="M0.541 0.493 Q0.400 0.513 0.407 0.585" stroke="hsl(0.0,100%,35%)" stroke-width="0.01457"></path>
<path d="M0.541 0.493 Q0.457 0.440 0.335 0.469" stroke="hsl(0.0,100%,35%)" stroke-width="0.00972"></path>
<path d="M0.541 0.493 Q0.497 0.438 0.378 0.447" stroke="hsl(0.0,100%,35%)" stroke-width="0.00486"></path>
<path d="M0.145 0.778 Q1.466 0.872 1.939 0.249" stroke="hsl(51.0,100%,35%)" stroke-width="0.00486"></path>
<path d="M0.145 0.778 Q0.204 0.828 0.314 0.811" stroke="hsl(51.0,100%,35%)" stroke-width="0.00486"></path>
<path d="M0.145 0.778 Q0.298 0.786 0.347 0.713" stroke="hsl(51.0,100%,35%)" stroke-width="0.01943"></path>
<path d="M0.145 0.778 Q0.312 0.672 0.142 0.568" stroke="hsl(51.0,100%,35%)" stroke-width="0.00486"></path>
<path d="M1.937 0.482 Q1.914 0.204 1.365 0.154" stroke="hsl(0.0,100%,35%)" stroke-width="0.00486"></path>
<path d="M1.937 0.482 Q1.858 0.499 1.873 0.541" stroke="hsl(0.0,100%,35%)" stroke-width="0.00486"></path>
<path d="M1.937 0.482 Q1.875 0.262 1.431 0.244" stroke="hsl(0.0,100%,35%)" stroke-width="0.00486"></path>
<path d="M1.365 0.154 Q1.326 0.212 1.431 0.244" stroke="hsl(0.0,100%,35%)" stroke-width="0.01457"></path>
<path d="M1.365 0.154 Q0.541 0.178 0.407 0.585" stroke="hsl(0.0,100%,35%)" stroke-width="0.00972"></path>
<path d="M1.365 0.154 Q1.228 0.111 1.113 0.168" stroke="hsl(0.0,100%,35%)" stroke-width="0.00972"></path>
<path d="M1.365 0.154 Q0.681 0.159 0.541 0.493" stroke="hsl(0.0,100%,35%)" stroke-width="0.00486"></path>
<path d="M1.366 0.980 Q1.311 0.891 1.124 0.899" stroke="hsl(102.0,100%,35%)" stroke-width="0.00972"></path>
<path d="M1.366 0.980 Q1.314 0.913 1.170 0.924" stroke="hsl(102.0,100%,35%)" stroke-width="0.00486"></path>
<path d="M1.366 0.980 Q1.519 0.973 1.537 0.897" stroke="hsl(102.0,100%,35%)" stroke-width="0.12630"></path>
<path d="M1.537 0.897 Q1.605 0.930 1.684 0.904" stroke="hsl(102.0,100%,35%)" stroke-width="0.00486"></path>
<path d="M1.537 0.897 Q1.643 0.367 0.631 0.199" stroke="hsl(102.0,100%,35%)" stroke-width="0.00972"></path>
<path d="M1.537 0.897 Q1.587 0.805 1.419 0.761" stroke="hsl(102.0,100%,35%)" stroke-width="0.00486"></path>
<path d="M1.537 0.897 Q1.452 0.810 1.264 0.833" stroke="hsl(102.0,100%,35%)" stroke-width="0.00486"></path>
<path d="M1.537 0.897 Q1.462 0.830 1.314 0.852" stroke="hsl(102.0,100%,35%)" stroke-width="0.00486"></path>
<path d="M1.537 0.897 Q1.447 0.933 1.499 0.985" stroke="hsl(102.0,100%,35%)" stroke-width="0.00486"></path>
<path d="M1.537 0.897 Q1.511 0.791 1.299 0.780" stroke="hsl(102.0,100%,35%)" stroke-width="0.00486"></path>
<path d="M1.537 0.897 Q1.385 0.904 1.366 0.980" stroke="hsl(102.0,100%,35%)" stroke-width="0.00486"></path>
<path d="M1.537 0.897 Q1.573 0.795 1.383 0.756" stroke="hsl(102.0,100%,35%)" stroke-width="0.00486"></path>
<path d="M1.537 0.897 Q1.468 0.794 1.252 0.805" stroke="hsl(102.0,100%,35%)" stroke-width="0.00486"></path>
<path d="M0.413 0.135 Q0.280 0.099 0.179 0.156" stroke="hsl(154.0,100%,35%)" stroke-width="0.00972"></path>
<path d="M0.413 0.135 Q0.467 0.086 0.383 0.050" stroke="hsl(154.0,100%,35%)" stroke-width="0.00486"></path>
<path d="M0.413 0.135 Q0.327 0.172 0.380 0.223" stroke="hsl(154.0,100%,35%)" stroke-width="0.00486"></path>
<path d="M0.179 0.156 Q0.312 0.192 0.413 0.135" stroke="hsl(154.0,100%,35%)" stroke-width="0.00486"></path>
<path d="M0.179 0.156 Q0.272 0.535 1.033 0.573" stroke="hsl(154.0,100%,35%)" stroke-width="0.00486"></path>
<path d="M0.179 0.156 Q0.174 0.235 0.327 0.255" stroke="hsl(154.0,100%,35%)" stroke-width="0.00972"></path>
<path d="M0.179 0.156 Q0.714 0.291 1.096 0.060" stroke="hsl(154.0,100%,35%)" stroke-width="0.00486"></path>
<path d="M0.179 0.156 Q0.366 0.143 0.383 0.050" stroke="hsl(154.0,100%,35%)" stroke-width="0.00486"></path>
<path d="M0.179 0.156 Q0.545 0.408 1.119 0.285" stroke="hsl(154.0,100%,35%)" stroke-width="0.00486"></path>
<path d="M0.179 0.156 Q0.139 0.198 0.213 0.227" stroke="hsl(154.0,100%,35%)" stroke-width="0.00486"></path>
<path d="M0.179 0.156 Q0.091 0.208 0.174 0.263" stroke="hsl(154.0,100%,35%)" stroke-width="0.00486"></path>
<path d="M1.096 0.060 Q1.044 0.139 1.186 0.181" stroke="hsl(154.0,100%,35%)" stroke-width="0.01457"></path>
<path d="M1.096 0.060 Q0.748 -0.088 0.383 0.050" stroke="hsl(154.0,100%,35%)" stroke-width="0.00486"></path>
<path d="M1.096 0.060 Q0.556 0.004 0.327 0.255" stroke="hsl(154.0,100%,35%)" stroke-width="0.00486"></path>
<path d="M1.192 0.582 Q1.173 0.636 1.274 0.657" stroke="hsl(154.0,100%,35%)" stroke-width="0.00486"></path>
<path d="M1.192 0.582 Q1.119 0.545 1.033 0.573" stroke="hsl(154.0,100%,35%)" stroke-width="0.00486"></path>
<path d="M1.192 0.582 Q1.297 0.647 1.449 0.611" stroke="hsl(154.0,100%,35%)" stroke-width="0.00486"></path>
<path d="M1.751 0.554 Q1.638 0.517 1.541 0.564" stroke="hsl(205.0,100%,35%)" stroke-width="0.00486"></path>
<path d="M1.751 0.554 Q1.554 0.522 1.449 0.611" stroke="hsl(205.0,100%,35%)" stroke-width="0.00486"></path>
<path d="M1.751 0.554 Q1.778 0.608 1.890 0.607" stroke="hsl(205.0,100%,35%)" stroke-width="0.00486"></path>
<path d="M0.142 0.568 Q0.146 0.530 0.073 0.520" stroke="hsl(51.0,100%,35%)" stroke-width="0.00486"></path>
<path d="M0.142 0.568 Q0.129 0.681 0.347 0.713" stroke="hsl(51.0,100%,35%)" stroke-width="0.00972"></path>
<path d="M0.142 0.568 Q-0.024 0.674 0.145 0.778" stroke="hsl(51.0,100%,35%)" stroke-width="0.00486"></path>
<path d="M0.142 0.568 Q0.062 0.621 0.147 0.671" stroke="hsl(51.0,100%,35%)" stroke-width="0.00486"></path>
<path d="M0.073 0.520 Q0.069 0.558 0.142 0.568" stroke="hsl(51.0,100%,35%)" stroke-width="0.01457"></path>
<path d="M0.073 0.520 Q-0.011 0.611 0.147 0.671" stroke="hsl(51.0,100%,35%)" stroke-width="0.00486"></path>
<path d="M0.073 0.520 Q0.205 0.473 0.141 0.398" stroke="hsl(51.0,100%,35%)" stroke-width="0.00486"></path>
<path d="M0.073 0.520 Q-0.097 0.664 0.145 0.778" stroke="hsl(51.0,100%,35%)" stroke-width="0.00972"></path>
<path d="M0.073 0.520 Q0.124 0.764 0.611 0.792" stroke="hsl(51.0,100%,35%)" stroke-width="0.00486"></path>
<path d="M0.073 0.520 Q0.167 0.502 0.151 0.452" stroke="hsl(51.0,100%,35%)" stroke-width="0.00486"></path>
<path d="M0.073 0.520 Q0.056 0.671 0.347 0.713" stroke="hsl(51.0,100%,35%)" stroke-width="0.00486"></path>
<path d="M1.313 0.037 Q1.349 0.085 1.450 0.078" stroke="hsl(205.0,100%,35%)" stroke-width="0.01457"></path>
<path d="M1.313 0.037 Q0.922 0.351 1.449 0.611" stroke="hsl(205.0,100%,35%)" stroke-width="0.00486"></path>
<path d="M1.313 0.037 Q0.420 0.372 0.878 0.881" stroke="hsl(205.0,100%,35%)" stroke-width="0.00486"></path>
<path d="M1.313 0.037 Q1.385 0.086 1.495 0.061" stroke="hsl(205.0,100%,35%)" stroke-width="0.00486"></path>
<path d="M1.313 0.037 Q0.448 0.476 1.114 0.994" stroke="hsl(205.0,100%,35%)" stroke-width="0.00486"></path>
<path d="M1.313 0.037 Q0.533 0.452 1.170 0.924" stroke="hsl(205.0,100%,35%)" stroke-width="0.00486"></path>
<path d="M1.313 0.037 Q0.259 0.418 0.770 1.016" stroke="hsl(205.0,100%,35%)" stroke-width="0.00486"></path>
<path d="M1.313 0.037 Q1.486 0.110 1.666 0.041" stroke="hsl(205.0,100%,35%)" stroke-width="0.00486"></path>
<path d="M1.715 0.337 Q1.595 0.378 1.648 0.445" stroke="hsl(205.0,100%,35%)" stroke-width="0.00972"></path>
<path d="M1.715 0.337 Q1.817 0.402 1.966 0.367" stroke="hsl(205.0,100%,35%)" stroke-width="0.00486"></path>
<path d="M1.715 0.337 Q0.798 0.344 0.611 0.792" stroke="hsl(205.0,100%,35%)" stroke-width="0.00486"></path>
<path d="M1.966 0.367 Q2.047 0.302 1.939 0.249" stroke="hsl(205.0,100%,35%)" stroke-width="0.00972"></path>
<path d="M1.966 0.367 Q1.932 0.393 1.977 0.416" stroke="hsl(205.0,100%,35%)" stroke-width="0.00486"></path>
<path d="M1.966 0.367 Q1.744 0.342 1.648 0.445" stroke="hsl(205.0,100%,35%)" stroke-width="0.00972"></path>
<path d="M1.966 0.367 Q0.917 0.476 0.899 1.012" stroke="hsl(205.0,100%,35%)" stroke-width="0.00486"></path>
<path d="M0.816 0.846 Q0.757 0.778 0.611 0.792" stroke="hsl(205.0,100%,35%)" stroke-width="0.01943"></path>
<path d="M0.816 0.846 Q0.819 0.876 0.878 0.881" stroke="hsl(205.0,100%,35%)" stroke-width="0.00972"></path>
<path d="M0.816 0.846 Q0.703 0.843 0.672 0.897" stroke="hsl(205.0,100%,35%)" stroke-width="0.00972"></path>
<path d="M0.756 0.393 Q0.798 0.459 0.937 0.453" stroke="hsl(0.0,100%,35%)" stroke-width="0.00486"></path>
<path d="M0.756 0.393 Q0.427 0.419 0.407 0.585" stroke="hsl(0.0,100%,35%)" stroke-width="0.01457"></path>
<path d="M0.756 0.393 Q0.826 0.427 0.908 0.400" stroke="hsl(0.0,100%,35%)" stroke-width="0.00486"></path>
<path d="M0.756 0.393 Q0.841 0.473 1.016 0.449" stroke="hsl(0.0,100%,35%)" stroke-width="0.00486"></path>
<path d="M0.756 0.393 Q0.886 0.384 0.899 0.319" stroke="hsl(0.0,100%,35%)" stroke-width="0.00486"></path>
<path d="M0.780 0.600 Q0.864 0.559 0.803 0.509" stroke="hsl(257.0,100%,35%)" stroke-width="0.02429"></path>
<path d="M0.780 0.600 Q0.679 0.565 0.589 0.607" stroke="hsl(257.0,100%,35%)" stroke-width="0.00486"></path>
<path d="M0.780 0.600 Q0.683 0.575 0.612 0.617" stroke="hsl(257.0,100%,35%)" stroke-width="0.00486"></path>
<path d="M0.780 0.600 Q0.638 0.615 0.637 0.688" stroke="hsl(257.0,100%,35%)" stroke-width="0.00486"></path>
<path d="M1.148 0.492 Q1.258 0.519 1.336 0.471" stroke="hsl(0.0,100%,35%)" stroke-width="0.00972"></path>
<path d="M1.148 0.492 Q1.168 0.437 1.065 0.415" stroke="hsl(0.0,100%,35%)" stroke-width="0.00486"></path>
<path d="M1.148 0.492 Q1.135 0.442 1.036 0.437" stroke="hsl(0.0,100%,35%)" stroke-width="0.00486"></path>
<path d="M0.862 0.046 Q0.768 0.021 0.698 0.061" stroke="hsl(102.0,100%,35%)" stroke-width="0.00486"></path>
<path d="M0.862 0.046 Q0.775 0.096 0.852 0.149" stroke="hsl(102.0,100%,35%)" stroke-width="0.00486"></path>
<path d="M0.862 0.046 Q0.824 0.093 0.907 0.122" stroke="hsl(102.0,100%,35%)" stroke-width="0.00486"></path>
<path d="M0.862 0.046 Q0.736 0.028 0.672 0.085" stroke="hsl(102.0,100%,35%)" stroke-width="0.00486"></path>
<path d="M0.862 0.046 Q0.835 0.107 0.948 0.134" stroke="hsl(102.0,100%,35%)" stroke-width="0.00486"></path>
<path d="M1.713 0.719 Q1.857 0.721 1.891 0.651" stroke="hsl(154.0,100%,35%)" stroke-width="0.01943"></path>
<path d="M1.713 0.719 Q1.678 0.781 1.790 0.811" stroke="hsl(154.0,100%,35%)" stroke-width="0.01943"></path>
<path d="M1.713 0.719 Q1.604 0.655 1.455 0.694" stroke="hsl(154.0,100%,35%)" stroke-width="0.00486"></path>
<path d="M1.713 0.719 Q1.763 0.383 1.119 0.285" stroke="hsl(154.0,100%,35%)" stroke-width="0.00486"></path>
<path d="M0.587 0.672 Q0.593 0.938 1.114 0.994" stroke="hsl(205.0,100%,35%)" stroke-width="0.00486"></path>
<path d="M0.587 0.672 Q0.631 0.710 0.713 0.697" stroke="hsl(205.0,100%,35%)" stroke-width="0.00486"></path>
<path d="M0.587 0.672 Q0.558 0.665 0.536 0.677" stroke="hsl(205.0,100%,35%)" stroke-width="0.00486"></path>
<path d="M1.809 0.844 Q1.898 0.834 1.899 0.789" stroke="hsl(308.0,100%,35%)" stroke-width="0.00486"></path>
<path d="M1.809 0.844 Q1.788 0.884 1.861 0.902" stroke="hsl(308.0,100%,35%)" stroke-width="0.00486"></path>
<path d="M1.809 0.844 Q1.766 0.883 1.833 0.912" stroke="hsl(308.0,100%,35%)" stroke-width="0.00486"></path>
<path d="M1.435 0.402 Q1.507 0.466 1.648 0.445" stroke="hsl(205.0,100%,35%)" stroke-width="0.00972"></path>
<path d="M1.435 0.402 Q1.627 0.425 1.715 0.337" stroke="hsl(205.0,100%,35%)" stroke-width="0.00972"></path>
<path d="M1.435 0.402 Q1.397 0.474 1.529 0.508" stroke="hsl(205.0,100%,35%)" stroke-width="0.00486"></path>
<path d="M0.899 1.012 Q0.930 0.844 0.611 0.792" stroke="hsl(205.0,100%,35%)" stroke-width="0.00486"></path>
<path d="M0.899 1.012 Q1.317 0.819 1.033 0.573" stroke="hsl(205.0,100%,35%)" stroke-width="0.00486"></path>
<path d="M0.899 1.012 Q1.021 1.046 1.114 0.994" stroke="hsl(205.0,100%,35%)" stroke-width="0.00972"></path>
<path d="M0.899 1.012 Q0.831 0.988 0.770 1.016" stroke="hsl(205.0,100%,35%)" stroke-width="0.00486"></path>
<path d="M1.732 0.185 Q1.644 0.169 1.594 0.208" stroke="hsl(102.0,100%,35%)" stroke-width="0.01457"></path>
<path d="M1.732 0.185 Q1.779 0.219 1.856 0.204" stroke="hsl(102.0,100%,35%)" stroke-width="0.00486"></path>
<path d="M1.732 0.185 Q1.170 -0.028 0.631 0.199" stroke="hsl(102.0,100%,35%)" stroke-width="0.00486"></path>
<path d="M1.732 0.185 Q1.883 0.167 1.881 0.089" stroke="hsl(102.0,100%,35%)" stroke-width="0.00486"></path>
<path d="M0.173 0.358 Q0.165 0.309 0.068 0.303" stroke="hsl(0.0,100%,35%)" stroke-width="0.00486"></path>
<path d="M0.173 0.358 Q0.141 0.616 0.637 0.688" stroke="hsl(0.0,100%,35%)" stroke-width="0.00486"></path>
<path d="M0.173 0.358 Q0.221 0.397 0.308 0.382" stroke="hsl(0.0,100%,35%)" stroke-width="0.00486"></path>
<path d="M1.797 0.938 Q1.836 0.932 1.833 0.912" stroke="hsl(308.0,100%,35%)" stroke-width="0.00486"></path>
<path d="M1.797 0.938 Q1.878 0.893 1.809 0.844" stroke="hsl(308.0,100%,35%)" stroke-width="0.01457"></path>
<path d="M1.797 0.938 Q1.709 0.957 1.726 1.004" stroke="hsl(308.0,100%,35%)" stroke-width="0.00972"></path>
<path d="M0.954 0.687 Q1.055 0.747 1.195 0.711" stroke="hsl(0.0,100%,35%)" stroke-width="0.00486"></path>
<path d="M0.954 0.687 Q0.875 0.681 0.845 0.718" stroke="hsl(0.0,100%,35%)" stroke-width="0.00972"></path>
<path d="M0.954 0.687 Q1.221 0.492 0.899 0.319" stroke="hsl(0.0,100%,35%)" stroke-width="0.00486"></path>
<path d="M0.954 0.687 Q1.175 0.581 1.016 0.449" stroke="hsl(0.0,100%,35%)" stroke-width="0.00486"></path>
<path d="M1.036 0.795 Q1.063 0.646 0.780 0.600" stroke="hsl(257.0,100%,35%)" stroke-width="0.00972"></path>
<path d="M1.036 0.795 Q1.154 0.809 1.207 0.754" stroke="hsl(257.0,100%,35%)" stroke-width="0.00486"></path>
<path d="M1.036 0.795 Q1.025 0.759 0.954 0.756" stroke="hsl(257.0,100%,35%)" stroke-width="0.00486"></path>
<path d="M0.523 0.407 Q0.567 0.430 0.620 0.413" stroke="hsl(0.0,100%,35%)" stroke-width="0.00486"></path>
<path d="M0.523 0.407 Q0.322 0.473 0.407 0.585" stroke="hsl(0.0,100%,35%)" stroke-width="0.00972"></path>
<path d="M0.523 0.407 Q0.480 0.332 0.324 0.337" stroke="hsl(0.0,100%,35%)" stroke-width="0.00486"></path>
<path d="M0.907 0.241 Q0.930 0.270 0.993 0.266" stroke="hsl(0.0,100%,35%)" stroke-width="0.00486"></path>
<path d="M0.907 0.241 Q0.972 0.185 0.877 0.141" stroke="hsl(0.0,100%,35%)" stroke-width="0.00486"></path>
<path d="M0.907 0.241 Q1.166 0.347 1.431 0.244" stroke="hsl(0.0,100%,35%)" stroke-width="0.00486"></path>
<path d="M0.907 0.241 Q0.843 0.304 0.953 0.349" stroke="hsl(0.0,100%,35%)" stroke-width="0.00486"></path>
<path d="M0.193 0.664 Q0.160 0.626 0.078 0.634" stroke="hsl(0.0,100%,35%)" stroke-width="0.00486"></path>
<path d="M0.193 0.664 Q0.477 0.546 0.308 0.382" stroke="hsl(0.0,100%,35%)" stroke-width="0.00486"></path>
<path d="M0.193 0.664 Q0.363 0.667 0.407 0.585" stroke="hsl(0.0,100%,35%)" stroke-width="0.00486"></path>
<path d="M1.226 0.367 Q1.198 0.441 1.336 0.471" stroke="hsl(0.0,100%,35%)" stroke-width="0.00972"></path>
<path d="M1.226 0.367 Q1.296 0.350 1.279 0.312" stroke="hsl(0.0,100%,35%)" stroke-width="0.00486"></path>
<path d="M1.226 0.367 Q1.119 0.331 1.026 0.376" stroke="hsl(0.0,100%,35%)" stroke-width="0.00486"></path>
<path d="M1.226 0.367 Q0.479 0.600 0.770 1.016" stroke="hsl(0.0,100%,35%)" stroke-width="0.00486"></path>
<path d="M1.226 0.367 Q1.238 0.304 1.119 0.285" stroke="hsl(0.0,100%,35%)" stroke-width="0.00486"></path>
<path d="M0.528 0.281 Q0.419 0.294 0.420 0.350" stroke="hsl(102.0,100%,35%)" stroke-width="0.00486"></path>
<path d="M0.528 0.281 Q0.789 0.205 0.698 0.061" stroke="hsl(102.0,100%,35%)" stroke-width="0.00486"></path>
<path d="M0.528 0.281 Q0.646 0.261 0.631 0.199" stroke="hsl(102.0,100%,35%)" stroke-width="0.00972"></path>
<path d="M0.528 0.281 Q0.616 0.325 0.720 0.292" stroke="hsl(102.0,100%,35%)" stroke-width="0.00972"></path>
</g>
<text x="1.336" y="0.458" font-size="0.026261" fill="hsl(0.0,100%,20%)">alexrudenko</text>
<text x="0.541" y="0.480" font-size="0.026261" fill="hsl(0.0,100%,20%)">jonathanjlee</text>
<text x="1.113" y="0.160" font-size="0.016082" fill="hsl(0.0,100%,20%)">weizhong</text>
<text x="1.411" y="0.593" font-size="0.009285" fill="hsl(0.0,100%,20%)">szuend</text>
<text x="0.145" y="0.763" font-size="0.030794" fill="hsl(51.0,100%,20%)">masonf</text>
<text x="1.937" y="0.474" font-size="0.016082" fill="hsl(0.0,100%,20%)">annasato</text>
<text x="1.365" y="0.140" font-size="0.027854" fill="hsl(0.0,100%,20%)">leimy</text>
<text x="1.873" y="0.536" font-size="0.009285" fill="hsl(0.0,100%,20%)">mych</text>
<text x="1.431" y="0.234" font-size="0.020761" fill="hsl(0.0,100%,20%)">rakina</text>
<text x="1.366" y="0.955" font-size="0.050855" fill="hsl(102.0,100%,20%)">blundell</text>
<text x="1.124" y="0.892" font-size="0.013131" fill="hsl(102.0,100%,20%)">zmo</text>
<text x="1.170" y="0.917" font-size="0.013131" fill="hsl(51.0,100%,20%)">haraken</text>
<text x="1.537" y="0.869" font-size="0.056477" fill="hsl(102.0,100%,20%)">vasilyt</text>
<text x="0.413" y="0.125" font-size="0.020761" fill="hsl(154.0,100%,20%)">btriebw</text>
<text x="0.179" y="0.140" font-size="0.030794" fill="hsl(154.0,100%,20%)">msw</text>
<text x="0.383" y="0.041" font-size="0.016082" fill="hsl(154.0,100%,20%)">ayui</text>
<text x="0.380" y="0.218" font-size="0.009285" fill="hsl(154.0,100%,20%)">mlippautz</text>
<text x="1.096" y="0.049" font-size="0.022743" fill="hsl(154.0,100%,20%)">christinesm</text>
<text x="1.186" y="0.173" font-size="0.016082" fill="hsl(154.0,100%,20%)">memmott</text>
<text x="0.327" y="0.247" font-size="0.016082" fill="hsl(154.0,100%,20%)">domenic</text>
<text x="1.192" y="0.574" font-size="0.016082" fill="hsl(154.0,100%,20%)">creis</text>
<text x="1.274" y="0.652" font-size="0.009285" fill="hsl(154.0,100%,20%)">alexmos</text>
<text x="1.033" y="0.565" font-size="0.016082" fill="hsl(154.0,100%,20%)">dcheng</text>
<text x="1.449" y="0.603" font-size="0.016082" fill="hsl(205.0,100%,20%)">japhet</text>
<text x="1.751" y="0.546" font-size="0.016082" fill="hsl(205.0,100%,20%)">dibyapal</text>
<text x="1.541" y="0.559" font-size="0.009285" fill="hsl(154.0,100%,20%)">rmcelrath</text>
<text x="1.890" y="0.603" font-size="0.009285" fill="hsl(154.0,100%,20%)">marja</text>
<text x="0.142" y="0.554" font-size="0.027854" fill="hsl(51.0,100%,20%)">dizhangg</text>
<text x="0.073" y="0.505" font-size="0.030794" fill="hsl(51.0,100%,20%)">jarhar</text>
<text x="0.347" y="0.700" font-size="0.024565" fill="hsl(51.0,100%,20%)">dbaron</text>
<text x="0.147" y="0.665" font-size="0.013131" fill="hsl(51.0,100%,20%)">dom</text>
<text x="1.313" y="0.023" font-size="0.029361" fill="hsl(205.0,100%,20%)">dsanders11</text>
<text x="1.450" y="0.070" font-size="0.016082" fill="hsl(205.0,100%,20%)">thestig</text>
<text x="0.878" y="0.873" font-size="0.016082" fill="hsl(205.0,100%,20%)">futhark</text>
<text x="1.495" y="0.056" font-size="0.009285" fill="hsl(205.0,100%,20%)">toyoshim</text>
<text x="1.114" y="0.985" font-size="0.018570" fill="hsl(205.0,100%,20%)">fmalita</text>
<text x="0.770" y="1.008" font-size="0.016082" fill="hsl(205.0,100%,20%)">thakis</text>
<text x="1.666" y="0.037" font-size="0.009285" fill="hsl(205.0,100%,20%)">bokan</text>
<text x="1.715" y="0.325" font-size="0.022743" fill="hsl(205.0,100%,20%)">flackr</text>
<text x="1.648" y="0.434" font-size="0.022743" fill="hsl(205.0,100%,20%)">kevers</text>
<text x="1.966" y="0.354" font-size="0.024565" fill="hsl(205.0,100%,20%)">vmpstr</text>
<text x="0.611" y="0.780" font-size="0.024565" fill="hsl(205.0,100%,20%)">pdr</text>
<text x="0.816" y="0.833" font-size="0.026261" fill="hsl(205.0,100%,20%)">fs</text>
<text x="0.672" y="0.891" font-size="0.013131" fill="hsl(205.0,100%,20%)">sakhapov</text>
<text x="0.756" y="0.380" font-size="0.024565" fill="hsl(0.0,100%,20%)">hocheung</text>
<text x="0.937" y="0.449" font-size="0.009285" fill="hsl(0.0,100%,20%)">hayato</text>
<text x="0.407" y="0.570" font-size="0.030794" fill="hsl(0.0,100%,20%)">tkent</text>
<text x="0.908" y="0.395" font-size="0.009285" fill="hsl(0.0,100%,20%)">tsepez</text>
<text x="1.016" y="0.443" font-size="0.013131" fill="hsl(0.0,100%,20%)">wfh</text>
<text x="0.899" y="0.312" font-size="0.013131" fill="hsl(0.0,100%,20%)">nhiroki</text>
<text x="0.780" y="0.585" font-size="0.029361" fill="hsl(257.0,100%,20%)">ikilpatrick</text>
<text x="0.803" y="0.499" font-size="0.020761" fill="hsl(257.0,100%,20%)">dgrogan</text>
<text x="0.589" y="0.602" font-size="0.009285" fill="hsl(257.0,100%,20%)">mstensho</text>
<text x="0.612" y="0.612" font-size="0.009285" fill="hsl(257.0,100%,20%)">obrufau</text>
<text x="0.637" y="0.681" font-size="0.013131" fill="hsl(0.0,100%,20%)">kojii</text>
<text x="1.148" y="0.482" font-size="0.018570" fill="hsl(0.0,100%,20%)">jacktfranklin</text>
<text x="1.065" y="0.410" font-size="0.009285" fill="hsl(0.0,100%,20%)">mathias</text>
<text x="1.036" y="0.432" font-size="0.009285" fill="hsl(0.0,100%,20%)">paulirish</text>
<text x="0.141" y="0.393" font-size="0.009285" fill="hsl(51.0,100%,20%)">asumaneev</text>
<text x="0.151" y="0.447" font-size="0.009285" fill="hsl(51.0,100%,20%)">sergiyb</text>
<text x="0.862" y="0.036" font-size="0.020761" fill="hsl(102.0,100%,20%)">jiahe.zhang</text>
<text x="0.698" y="0.055" font-size="0.013131" fill="hsl(102.0,100%,20%)">andreaorru</text>
<text x="0.852" y="0.144" font-size="0.009285" fill="hsl(102.0,100%,20%)">avi</text>
<text x="0.907" y="0.117" font-size="0.009285" fill="hsl(102.0,100%,20%)">etiennep</text>
<text x="0.672" y="0.081" font-size="0.009285" fill="hsl(102.0,100%,20%)">fdoray</text>
<text x="0.948" y="0.129" font-size="0.009285" fill="hsl(102.0,100%,20%)">mpdenton</text>
<text x="1.713" y="0.705" font-size="0.029361" fill="hsl(154.0,100%,20%)">johannes</text>
<text x="1.891" y="0.641" font-size="0.018570" fill="hsl(154.0,100%,20%)">mmocny</text>
<text x="1.790" y="0.802" font-size="0.018570" fill="hsl(154.0,100%,20%)">shaseley</text>
<text x="1.455" y="0.689" font-size="0.009285" fill="hsl(154.0,100%,20%)">sullivan</text>
<text x="1.119" y="0.277" font-size="0.016082" fill="hsl(154.0,100%,20%)">caseq</text>
<text x="0.335" y="0.463" font-size="0.013131" fill="hsl(0.0,100%,20%)">bsheedy</text>
<text x="0.378" y="0.442" font-size="0.009285" fill="hsl(0.0,100%,20%)">hypan</text>
<text x="1.939" y="0.240" font-size="0.016082" fill="hsl(205.0,100%,20%)">chrishtr</text>
<text x="0.314" y="0.806" font-size="0.009285" fill="hsl(51.0,100%,20%)">reillyg</text>
<text x="0.587" y="0.664" font-size="0.016082" fill="hsl(205.0,100%,20%)">mike</text>
<text x="0.713" y="0.692" font-size="0.009285" fill="hsl(205.0,100%,20%)">kerenzhu</text>
<text x="0.536" y="0.673" font-size="0.009285" fill="hsl(205.0,100%,20%)">magchen</text>
<text x="1.809" y="0.832" font-size="0.022743" fill="hsl(308.0,100%,20%)">mjwilson</text>
<text x="1.899" y="0.784" font-size="0.009285" fill="hsl(308.0,100%,20%)">mattreynolds</text>
<text x="1.861" y="0.898" font-size="0.009285" fill="hsl(308.0,100%,20%)">chengweih</text>
<text x="1.833" y="0.905" font-size="0.013131" fill="hsl(308.0,100%,20%)">alvinji</text>
<text x="0.213" y="0.223" font-size="0.009285" fill="hsl(154.0,100%,20%)">meacer</text>
<text x="0.174" y="0.258" font-size="0.009285" fill="hsl(154.0,100%,20%)">vogelheim</text>
<text x="1.435" y="0.392" font-size="0.020761" fill="hsl(205.0,100%,20%)">mustaq</text>
<text x="1.529" y="0.504" font-size="0.009285" fill="hsl(205.0,100%,20%)">skobes</text>
<text x="0.899" y="1.000" font-size="0.022743" fill="hsl(205.0,100%,20%)">nrosenthal</text>
<text x="1.732" y="0.174" font-size="0.022743" fill="hsl(102.0,100%,20%)">olka</text>
<text x="1.594" y="0.200" font-size="0.016082" fill="hsl(102.0,100%,20%)">guidou</text>
<text x="1.856" y="0.199" font-size="0.009285" fill="hsl(102.0,100%,20%)">tovep</text>
<text x="0.631" y="0.188" font-size="0.020761" fill="hsl(102.0,100%,20%)">dtapuska</text>
<text x="1.881" y="0.085" font-size="0.009285" fill="hsl(102.0,100%,20%)">saza</text>
<text x="0.173" y="0.350" font-size="0.016082" fill="hsl(0.0,100%,20%)">parasgupta</text>
<text x="0.068" y="0.298" font-size="0.009285" fill="hsl(0.0,100%,20%)">abhishek.shanthkumar</text>
<text x="0.308" y="0.375" font-size="0.013131" fill="hsl(0.0,100%,20%)">stevebe</text>
<text x="1.797" y="0.926" font-size="0.022743" fill="hsl(308.0,100%,20%)">punithbnayak</text>
<text x="1.726" y="0.997" font-size="0.013131" fill="hsl(308.0,100%,20%)">asraine</text>
<text x="0.954" y="0.677" font-size="0.020761" fill="hsl(0.0,100%,20%)">rahsin</text>
<text x="1.195" y="0.707" font-size="0.009285" fill="hsl(0.0,100%,20%)">ajgo</text>
<text x="0.845" y="0.712" font-size="0.013131" fill="hsl(0.0,100%,20%)">evanstade</text>
<text x="1.036" y="0.785" font-size="0.018570" fill="hsl(257.0,100%,20%)">samomekarajr</text>
<text x="1.207" y="0.749" font-size="0.009285" fill="hsl(257.0,100%,20%)">kschmi</text>
<text x="0.954" y="0.752" font-size="0.009285" fill="hsl(257.0,100%,20%)">javiercon</text>
<text x="0.523" y="0.398" font-size="0.018570" fill="hsl(0.0,100%,20%)">shwetabindal</text>
<text x="0.620" y="0.408" font-size="0.009285" fill="hsl(0.0,100%,20%)">ashishkum</text>
<text x="0.324" y="0.332" font-size="0.009285" fill="hsl(0.0,100%,20%)">pranavmodi</text>
<text x="0.907" y="0.231" font-size="0.018570" fill="hsl(0.0,100%,20%)">sisidovski</text>
<text x="0.993" y="0.261" font-size="0.009285" fill="hsl(0.0,100%,20%)">antoniosartori</text>
<text x="0.877" y="0.136" font-size="0.009285" fill="hsl(0.0,100%,20%)">hidehiko</text>
<text x="0.953" y="0.344" font-size="0.009285" fill="hsl(0.0,100%,20%)">yyanagisawa</text>
<text x="0.193" y="0.656" font-size="0.016082" fill="hsl(0.0,100%,20%)">snehagarwal</text>
<text x="0.078" y="0.630" font-size="0.009285" fill="hsl(0.0,100%,20%)">ricea</text>
<text x="1.684" y="0.900" font-size="0.009285" fill="hsl(102.0,100%,20%)">dalecurtis</text>
<text x="1.419" y="0.756" font-size="0.009285" fill="hsl(102.0,100%,20%)">fangzhoug</text>
<text x="1.264" y="0.828" font-size="0.009285" fill="hsl(102.0,100%,20%)">kylechar</text>
<text x="1.314" y="0.847" font-size="0.009285" fill="hsl(102.0,100%,20%)">ortuno</text>
<text x="1.499" y="0.981" font-size="0.009285" fill="hsl(102.0,100%,20%)">seantopping</text>
<text x="1.299" y="0.775" font-size="0.009285" fill="hsl(102.0,100%,20%)">yfriedman</text>
<text x="1.383" y="0.751" font-size="0.009285" fill="hsl(102.0,100%,20%)">boliu</text>
<text x="1.252" y="0.800" font-size="0.009285" fill="hsl(102.0,100%,20%)">zijiehe</text>
<text x="1.226" y="0.355" font-size="0.022743" fill="hsl(0.0,100%,20%)">victortan</text>
<text x="1.279" y="0.307" font-size="0.009285" fill="hsl(0.0,100%,20%)">kvitekp</text>
<text x="1.026" y="0.371" font-size="0.009285" fill="hsl(0.0,100%,20%)">miketaylr</text>
<text x="1.977" y="0.411" font-size="0.009285" fill="hsl(205.0,100%,20%)">khushalsagar</text>
<text x="0.528" y="0.270" font-size="0.022743" fill="hsl(102.0,100%,20%)">xiyuan</text>
<text x="0.420" y="0.346" font-size="0.009285" fill="hsl(102.0,100%,20%)">achuith</text>
<text x="0.720" y="0.285" font-size="0.013131" fill="hsl(102.0,100%,20%)">rdevlin.cronin</text>
</svg>
