<svg width="4000" height="2000" viewBox="-0.025 -0.025 2.05 1.05" xmlns="http://www.w3.org/2000/svg">
  <style>
    path {
      fill: none;
      stroke-linecap: round;
      stroke-opacity: 0.4;
    }

    text {
      text-anchor: middle;
      alignment-baseline: hanging;
    }
  </style>
  <g opacity="0.4">
<path d="M0.128 0.162 Q0.010 0.217 0.091 0.286" stroke="hsl(0.0,100%,35%)" stroke-width="0.00537"></path>
<path d="M0.128 0.162 Q0.298 0.770 1.521 0.820" stroke="hsl(0.0,100%,35%)" stroke-width="0.00537"></path>
<path d="M0.128 0.162 Q0.066 0.188 0.103 0.224" stroke="hsl(0.0,100%,35%)" stroke-width="0.00537"></path>
<path d="M0.128 0.162 Q0.106 0.190 0.156 0.207" stroke="hsl(0.0,100%,35%)" stroke-width="0.00537"></path>
<path d="M0.128 0.162 Q0.252 0.167 0.288 0.107" stroke="hsl(0.0,100%,35%)" stroke-width="0.00537"></path>
<path d="M1.251 0.587 Q1.064 0.528 0.908 0.607" stroke="hsl(72.0,100%,35%)" stroke-width="0.00537"></path>
<path d="M1.251 0.587 Q1.127 0.571 1.068 0.628" stroke="hsl(72.0,100%,35%)" stroke-width="0.01073"></path>
<path d="M1.251 0.587 Q1.416 0.522 1.325 0.427" stroke="hsl(72.0,100%,35%)" stroke-width="0.00537"></path>
<path d="M1.251 0.587 Q1.544 0.610 1.653 0.472" stroke="hsl(72.0,100%,35%)" stroke-width="0.00537"></path>
<path d="M1.251 0.587 Q1.195 0.391 0.800 0.376" stroke="hsl(72.0,100%,35%)" stroke-width="0.00537"></path>
<path d="M1.653 0.472 Q1.528 0.460 1.476 0.518" stroke="hsl(144.0,100%,35%)" stroke-width="0.00537"></path>
<path d="M1.653 0.472 Q1.811 0.522 1.943 0.456" stroke="hsl(144.0,100%,35%)" stroke-width="0.00537"></path>
<path d="M1.653 0.472 Q1.548 0.504 1.587 0.562" stroke="hsl(144.0,100%,35%)" stroke-width="0.00537"></path>
<path d="M1.653 0.472 Q1.744 0.424 1.670 0.369" stroke="hsl(144.0,100%,35%)" stroke-width="0.00537"></path>
<path d="M1.653 0.472 Q1.667 0.134 1.012 0.053" stroke="hsl(144.0,100%,35%)" stroke-width="0.00537"></path>
<path d="M0.980 0.414 Q1.284 0.240 1.012 0.053" stroke="hsl(216.0,100%,35%)" stroke-width="0.00537"></path>
<path d="M0.980 0.414 Q1.097 0.433 1.161 0.380" stroke="hsl(216.0,100%,35%)" stroke-width="0.01073"></path>
<path d="M0.980 0.414 Q0.794 0.810 1.526 0.987" stroke="hsl(216.0,100%,35%)" stroke-width="0.00537"></path>
<path d="M1.526 0.987 Q1.489 0.954 1.416 0.965" stroke="hsl(144.0,100%,35%)" stroke-width="0.00537"></path>
<path d="M1.526 0.987 Q1.580 0.990 1.598 0.965" stroke="hsl(144.0,100%,35%)" stroke-width="0.00537"></path>
<path d="M1.526 0.987 Q1.331 0.554 0.445 0.555" stroke="hsl(144.0,100%,35%)" stroke-width="0.00537"></path>
<path d="M1.870 0.195 Q1.806 0.241 1.882 0.282" stroke="hsl(288.0,100%,35%)" stroke-width="0.00537"></path>
<path d="M1.870 0.195 Q1.856 0.249 1.957 0.267" stroke="hsl(288.0,100%,35%)" stroke-width="0.00537"></path>
<path d="M1.870 0.195 Q1.883 0.219 1.933 0.218" stroke="hsl(288.0,100%,35%)" stroke-width="0.00537"></path>
<path d="M1.943 0.456 Q1.688 0.486 1.690 0.617" stroke="hsl(144.0,100%,35%)" stroke-width="0.01610"></path>
<path d="M1.943 0.456 Q1.830 0.479 1.850 0.539" stroke="hsl(144.0,100%,35%)" stroke-width="0.07512"></path>
<path d="M1.943 0.456 Q1.786 0.406 1.653 0.472" stroke="hsl(144.0,100%,35%)" stroke-width="0.02683"></path>
<path d="M1.943 0.456 Q1.915 0.352 1.705 0.343" stroke="hsl(144.0,100%,35%)" stroke-width="0.01073"></path>
<path d="M1.943 0.456 Q1.924 0.107 1.239 0.040" stroke="hsl(144.0,100%,35%)" stroke-width="0.00537"></path>
<path d="M1.943 0.456 Q1.381 0.292 0.937 0.530" stroke="hsl(144.0,100%,35%)" stroke-width="0.00537"></path>
<path d="M0.387 0.797 Q0.458 0.851 0.579 0.828" stroke="hsl(0.0,100%,35%)" stroke-width="0.00537"></path>
<path d="M0.387 0.797 Q0.331 0.856 0.435 0.896" stroke="hsl(0.0,100%,35%)" stroke-width="0.00537"></path>
<path d="M0.387 0.797 Q0.366 0.727 0.224 0.722" stroke="hsl(0.0,100%,35%)" stroke-width="0.00537"></path>
<path d="M1.100 0.932 Q1.038 0.915 0.990 0.941" stroke="hsl(216.0,100%,35%)" stroke-width="0.00537"></path>
<path d="M1.100 0.932 Q0.914 0.716 0.450 0.760" stroke="hsl(216.0,100%,35%)" stroke-width="0.00537"></path>
<path d="M1.100 0.932 Q1.229 0.908 1.210 0.840" stroke="hsl(216.0,100%,35%)" stroke-width="0.00537"></path>
<path d="M0.123 0.536 Q0.253 0.736 0.671 0.717" stroke="hsl(72.0,100%,35%)" stroke-width="0.00537"></path>
<path d="M0.123 0.536 Q0.924 0.963 1.933 0.666" stroke="hsl(72.0,100%,35%)" stroke-width="0.00537"></path>
<path d="M0.123 0.536 Q0.269 0.610 0.445 0.555" stroke="hsl(72.0,100%,35%)" stroke-width="0.01073"></path>
<path d="M0.123 0.536 Q0.215 0.481 0.127 0.424" stroke="hsl(72.0,100%,35%)" stroke-width="0.01610"></path>
<path d="M0.123 0.536 Q0.039 0.541 0.030 0.583" stroke="hsl(72.0,100%,35%)" stroke-width="0.01073"></path>
<path d="M0.123 0.536 Q0.671 0.458 0.639 0.173" stroke="hsl(72.0,100%,35%)" stroke-width="0.00537"></path>
<path d="M0.123 0.536 Q0.092 0.605 0.220 0.635" stroke="hsl(72.0,100%,35%)" stroke-width="0.00537"></path>
<path d="M0.671 0.717 Q0.526 0.694 0.450 0.760" stroke="hsl(72.0,100%,35%)" stroke-width="0.01073"></path>
<path d="M0.671 0.717 Q0.633 0.462 0.127 0.424" stroke="hsl(72.0,100%,35%)" stroke-width="0.01073"></path>
<path d="M0.671 0.717 Q1.358 0.791 1.653 0.472" stroke="hsl(72.0,100%,35%)" stroke-width="0.01073"></path>
<path d="M0.671 0.717 Q0.830 0.697 0.827 0.616" stroke="hsl(72.0,100%,35%)" stroke-width="0.00537"></path>
<path d="M0.671 0.717 Q0.837 0.659 0.762 0.566" stroke="hsl(72.0,100%,35%)" stroke-width="0.00537"></path>
<path d="M0.671 0.717 Q0.735 0.876 1.060 0.879" stroke="hsl(72.0,100%,35%)" stroke-width="0.00537"></path>
<path d="M0.445 0.555 Q0.501 0.604 0.609 0.587" stroke="hsl(72.0,100%,35%)" stroke-width="0.00537"></path>
<path d="M0.445 0.555 Q0.483 0.350 0.091 0.286" stroke="hsl(72.0,100%,35%)" stroke-width="0.00537"></path>
<path d="M0.445 0.555 Q0.608 0.538 0.610 0.454" stroke="hsl(72.0,100%,35%)" stroke-width="0.01610"></path>
<path d="M0.445 0.555 Q0.479 0.500 0.380 0.471" stroke="hsl(72.0,100%,35%)" stroke-width="0.00537"></path>
<path d="M0.127 0.424 Q0.035 0.479 0.123 0.536" stroke="hsl(72.0,100%,35%)" stroke-width="0.02683"></path>
<path d="M0.127 0.424 Q0.325 0.458 0.433 0.369" stroke="hsl(72.0,100%,35%)" stroke-width="0.03219"></path>
<path d="M0.127 0.424 Q0.866 0.416 1.012 0.053" stroke="hsl(72.0,100%,35%)" stroke-width="0.00537"></path>
<path d="M0.639 0.173 Q0.616 0.229 0.719 0.252" stroke="hsl(216.0,100%,35%)" stroke-width="0.01073"></path>
<path d="M0.639 0.173 Q0.478 0.143 0.384 0.215" stroke="hsl(216.0,100%,35%)" stroke-width="0.01610"></path>
<path d="M0.639 0.173 Q0.396 0.170 0.335 0.287" stroke="hsl(216.0,100%,35%)" stroke-width="0.00537"></path>
<path d="M0.727 0.044 Q0.861 0.105 1.012 0.053" stroke="hsl(216.0,100%,35%)" stroke-width="0.01073"></path>
<path d="M0.727 0.044 Q0.743 0.103 0.863 0.108" stroke="hsl(216.0,100%,35%)" stroke-width="0.00537"></path>
<path d="M0.727 0.044 Q0.177 0.243 0.445 0.555" stroke="hsl(216.0,100%,35%)" stroke-width="0.00537"></path>
<path d="M0.952 0.768 Q1.053 0.732 1.005 0.675" stroke="hsl(0.0,100%,35%)" stroke-width="0.00537"></path>
<path d="M0.952 0.768 Q1.065 0.720 0.996 0.654" stroke="hsl(0.0,100%,35%)" stroke-width="0.00537"></path>
<path d="M0.952 0.768 Q1.040 0.812 1.145 0.778" stroke="hsl(0.0,100%,35%)" stroke-width="0.00537"></path>
<path d="M0.952 0.768 Q1.195 0.908 1.521 0.820" stroke="hsl(0.0,100%,35%)" stroke-width="0.00537"></path>
<path d="M0.952 0.768 Q1.193 0.815 1.337 0.707" stroke="hsl(0.0,100%,35%)" stroke-width="0.00537"></path>
<path d="M0.952 0.768 Q1.093 0.801 1.188 0.739" stroke="hsl(0.0,100%,35%)" stroke-width="0.00537"></path>
<path d="M0.952 0.768 Q0.944 0.813 1.030 0.827" stroke="hsl(0.0,100%,35%)" stroke-width="0.00537"></path>
<path d="M1.193 0.151 Q1.027 0.192 1.071 0.282" stroke="hsl(0.0,100%,35%)" stroke-width="0.00537"></path>
<path d="M1.193 0.151 Q1.058 0.197 1.118 0.272" stroke="hsl(0.0,100%,35%)" stroke-width="0.00537"></path>
<path d="M1.193 0.151 Q1.401 0.255 1.648 0.176" stroke="hsl(0.0,100%,35%)" stroke-width="0.00537"></path>
<path d="M1.648 0.176 Q1.069 0.473 1.521 0.820" stroke="hsl(0.0,100%,35%)" stroke-width="0.00537"></path>
<path d="M1.648 0.176 Q1.780 0.203 1.862 0.144" stroke="hsl(0.0,100%,35%)" stroke-width="0.00537"></path>
<path d="M1.648 0.176 Q1.672 0.289 1.899 0.303" stroke="hsl(0.0,100%,35%)" stroke-width="0.00537"></path>
<path d="M1.648 0.176 Q1.799 0.155 1.792 0.077" stroke="hsl(0.0,100%,35%)" stroke-width="0.01610"></path>
<path d="M1.648 0.176 Q1.713 0.102 1.583 0.054" stroke="hsl(0.0,100%,35%)" stroke-width="0.01610"></path>
<path d="M1.648 0.176 Q1.638 0.098 1.484 0.087" stroke="hsl(0.0,100%,35%)" stroke-width="0.00537"></path>
<path d="M0.695 0.965 Q0.747 0.873 0.579 0.828" stroke="hsl(0.0,100%,35%)" stroke-width="0.00537"></path>
<path d="M0.695 0.965 Q0.778 0.898 0.666 0.843" stroke="hsl(0.0,100%,35%)" stroke-width="0.00537"></path>
<path d="M0.695 0.965 Q1.224 1.058 1.521 0.820" stroke="hsl(0.0,100%,35%)" stroke-width="0.00537"></path>
<path d="M0.695 0.965 Q0.793 0.910 0.708 0.851" stroke="hsl(0.0,100%,35%)" stroke-width="0.00537"></path>
<path d="M0.695 0.965 Q0.708 0.980 0.740 0.977" stroke="hsl(0.0,100%,35%)" stroke-width="0.00537"></path>
<path d="M0.695 0.965 Q0.787 1.018 0.911 0.986" stroke="hsl(0.0,100%,35%)" stroke-width="0.00537"></path>
<path d="M1.276 1.005 Q1.486 0.699 0.937 0.530" stroke="hsl(216.0,100%,35%)" stroke-width="0.00537"></path>
<path d="M1.276 1.005 Q1.251 0.983 1.203 0.990" stroke="hsl(216.0,100%,35%)" stroke-width="0.00537"></path>
<path d="M1.276 1.005 Q1.326 0.953 1.237 0.917" stroke="hsl(216.0,100%,35%)" stroke-width="0.00537"></path>
<path d="M0.335 0.287 Q0.578 0.291 0.639 0.173" stroke="hsl(216.0,100%,35%)" stroke-width="0.00537"></path>
<path d="M0.335 0.287 Q0.726 0.244 0.727 0.044" stroke="hsl(216.0,100%,35%)" stroke-width="0.00537"></path>
<path d="M0.335 0.287 Q0.373 0.312 0.429 0.299" stroke="hsl(216.0,100%,35%)" stroke-width="0.00537"></path>
<path d="M1.648 0.916 Q1.507 0.841 1.329 0.893" stroke="hsl(144.0,100%,35%)" stroke-width="0.01610"></path>
<path d="M1.648 0.916 Q1.531 0.927 1.526 0.987" stroke="hsl(144.0,100%,35%)" stroke-width="0.01610"></path>
<path d="M1.648 0.916 Q1.669 0.959 1.758 0.958" stroke="hsl(144.0,100%,35%)" stroke-width="0.01073"></path>
<path d="M1.648 0.916 Q2.006 0.695 1.653 0.472" stroke="hsl(144.0,100%,35%)" stroke-width="0.00537"></path>
<path d="M1.648 0.916 Q1.801 0.913 1.830 0.838" stroke="hsl(144.0,100%,35%)" stroke-width="0.00537"></path>
<path d="M1.648 0.916 Q1.724 0.822 1.557 0.764" stroke="hsl(144.0,100%,35%)" stroke-width="0.00537"></path>
<path d="M1.557 0.764 Q1.494 0.785 1.521 0.820" stroke="hsl(144.0,100%,35%)" stroke-width="0.00537"></path>
<path d="M1.557 0.764 Q1.340 0.783 1.329 0.893" stroke="hsl(144.0,100%,35%)" stroke-width="0.01073"></path>
<path d="M1.557 0.764 Q1.502 0.901 1.758 0.958" stroke="hsl(144.0,100%,35%)" stroke-width="0.00537"></path>
<path d="M1.557 0.764 Q1.323 0.732 1.210 0.840" stroke="hsl(144.0,100%,35%)" stroke-width="0.00537"></path>
<path d="M1.557 0.764 Q1.741 0.717 1.690 0.617" stroke="hsl(144.0,100%,35%)" stroke-width="0.00537"></path>
<path d="M0.864 0.882 Q1.745 0.885 1.943 0.456" stroke="hsl(72.0,100%,35%)" stroke-width="0.00537"></path>
<path d="M0.864 0.882 Q0.762 0.823 0.624 0.860" stroke="hsl(72.0,100%,35%)" stroke-width="0.00537"></path>
<path d="M0.864 0.882 Q0.973 0.683 0.609 0.587" stroke="hsl(72.0,100%,35%)" stroke-width="0.00537"></path>
<path d="M0.864 0.882 Q0.964 0.920 1.060 0.879" stroke="hsl(72.0,100%,35%)" stroke-width="0.00537"></path>
<path d="M0.604 0.341 Q0.903 0.217 0.727 0.044" stroke="hsl(216.0,100%,35%)" stroke-width="0.00537"></path>
<path d="M0.604 0.341 Q0.753 0.351 0.805 0.280" stroke="hsl(216.0,100%,35%)" stroke-width="0.01610"></path>
<path d="M0.604 0.341 Q0.595 0.234 0.384 0.215" stroke="hsl(216.0,100%,35%)" stroke-width="0.00537"></path>
<path d="M1.002 0.308 Q0.296 0.251 0.030 0.583" stroke="hsl(72.0,100%,35%)" stroke-width="0.00537"></path>
<path d="M1.002 0.308 Q0.847 0.301 0.800 0.376" stroke="hsl(72.0,100%,35%)" stroke-width="0.00537"></path>
<path d="M1.002 0.308 Q1.051 0.312 1.071 0.290" stroke="hsl(72.0,100%,35%)" stroke-width="0.00537"></path>
<path d="M1.366 0.200 Q1.431 0.094 1.239 0.040" stroke="hsl(144.0,100%,35%)" stroke-width="0.01073"></path>
<path d="M1.366 0.200 Q1.450 0.443 1.943 0.456" stroke="hsl(144.0,100%,35%)" stroke-width="0.00537"></path>
<path d="M1.366 0.200 Q1.240 0.199 1.211 0.261" stroke="hsl(144.0,100%,35%)" stroke-width="0.01073"></path>
<path d="M1.887 0.774 Q1.957 0.717 1.862 0.671" stroke="hsl(72.0,100%,35%)" stroke-width="0.00537"></path>
<path d="M1.887 0.774 Q1.884 0.738 1.814 0.732" stroke="hsl(72.0,100%,35%)" stroke-width="0.00537"></path>
<path d="M1.887 0.774 Q1.195 0.302 0.123 0.536" stroke="hsl(72.0,100%,35%)" stroke-width="0.00537"></path>
<path d="M1.887 0.774 Q1.997 0.729 1.933 0.666" stroke="hsl(72.0,100%,35%)" stroke-width="0.00537"></path>
<path d="M1.506 0.659 Q1.412 0.625 1.325 0.663" stroke="hsl(144.0,100%,35%)" stroke-width="0.01073"></path>
<path d="M1.506 0.659 Q1.571 0.705 1.674 0.683" stroke="hsl(144.0,100%,35%)" stroke-width="0.01073"></path>
<path d="M1.506 0.659 Q1.231 0.741 1.329 0.893" stroke="hsl(144.0,100%,35%)" stroke-width="0.00537"></path>
<path d="M1.506 0.659 Q1.774 0.668 1.850 0.539" stroke="hsl(144.0,100%,35%)" stroke-width="0.01073"></path>
<path d="M1.506 0.659 Q1.383 0.649 1.337 0.707" stroke="hsl(144.0,100%,35%)" stroke-width="0.00537"></path>
<path d="M0.877 0.185 Q0.915 0.084 0.727 0.044" stroke="hsl(216.0,100%,35%)" stroke-width="0.00537"></path>
<path d="M0.877 0.185 Q0.607 0.101 0.384 0.215" stroke="hsl(216.0,100%,35%)" stroke-width="0.00537"></path>
<path d="M0.877 0.185 Q0.870 0.212 0.922 0.222" stroke="hsl(216.0,100%,35%)" stroke-width="0.00537"></path>
<path d="M0.877 0.185 Q0.982 0.211 1.057 0.166" stroke="hsl(216.0,100%,35%)" stroke-width="0.00537"></path>
<path d="M1.368 0.358 Q1.291 0.384 1.325 0.427" stroke="hsl(72.0,100%,35%)" stroke-width="0.00537"></path>
<path d="M1.368 0.358 Q1.253 0.379 1.268 0.439" stroke="hsl(72.0,100%,35%)" stroke-width="0.01073"></path>
<path d="M1.368 0.358 Q1.374 0.312 1.285 0.298" stroke="hsl(72.0,100%,35%)" stroke-width="0.00537"></path>
<path d="M1.546 0.283 Q1.607 0.292 1.639 0.264" stroke="hsl(0.0,100%,35%)" stroke-width="0.00537"></path>
<path d="M1.546 0.283 Q1.706 0.364 1.899 0.303" stroke="hsl(0.0,100%,35%)" stroke-width="0.00537"></path>
<path d="M1.546 0.283 Q1.487 0.291 1.490 0.321" stroke="hsl(0.0,100%,35%)" stroke-width="0.00537"></path>
<path d="M1.143 0.479 Q0.999 0.463 0.937 0.530" stroke="hsl(216.0,100%,35%)" stroke-width="0.01073"></path>
<path d="M1.143 0.479 Q0.994 0.434 0.875 0.497" stroke="hsl(216.0,100%,35%)" stroke-width="0.00537"></path>
<path d="M1.143 0.479 Q1.231 0.433 1.161 0.380" stroke="hsl(216.0,100%,35%)" stroke-width="0.00537"></path>
</g>
<text x="0.128" y="0.151" font-size="0.022417" fill="hsl(0.0,100%,20%)">acondor</text>
<text x="0.091" y="0.279" font-size="0.014178" fill="hsl(72.0,100%,20%)">dom</text>
<text x="1.521" y="0.809" font-size="0.022417" fill="hsl(0.0,100%,20%)">dtapuska</text>
<text x="0.103" y="0.219" font-size="0.010025" fill="hsl(0.0,100%,20%)">lazzzis</text>
<text x="0.156" y="0.202" font-size="0.010025" fill="hsl(0.0,100%,20%)">torne</text>
<text x="0.288" y="0.102" font-size="0.010025" fill="hsl(0.0,100%,20%)">wenyufu</text>
<text x="1.251" y="0.575" font-size="0.024556" fill="hsl(72.0,100%,20%)">agpalak</text>
<text x="0.908" y="0.602" font-size="0.010025" fill="hsl(72.0,100%,20%)">kron</text>
<text x="1.068" y="0.620" font-size="0.014178" fill="hsl(72.0,100%,20%)">toprice</text>
<text x="1.325" y="0.420" font-size="0.014178" fill="hsl(72.0,100%,20%)">guidou</text>
<text x="1.653" y="0.453" font-size="0.037510" fill="hsl(144.0,100%,20%)">arthursonzogni</text>
<text x="0.800" y="0.368" font-size="0.014178" fill="hsl(72.0,100%,20%)">tguilbert</text>
<text x="0.980" y="0.404" font-size="0.020050" fill="hsl(216.0,100%,20%)">annasato</text>
<text x="1.012" y="0.042" font-size="0.022417" fill="hsl(216.0,100%,20%)">andruud</text>
<text x="1.161" y="0.371" font-size="0.017364" fill="hsl(216.0,100%,20%)">fergal</text>
<text x="1.526" y="0.973" font-size="0.026524" fill="hsl(144.0,100%,20%)">yyanagisawa</text>
<text x="1.870" y="0.187" font-size="0.017364" fill="hsl(288.0,100%,20%)">arakeri</text>
<text x="1.882" y="0.277" font-size="0.010025" fill="hsl(288.0,100%,20%)">flackr</text>
<text x="1.957" y="0.262" font-size="0.010025" fill="hsl(288.0,100%,20%)">jonross</text>
<text x="1.933" y="0.213" font-size="0.010025" fill="hsl(288.0,100%,20%)">thakis</text>
<text x="1.476" y="0.513" font-size="0.010025" fill="hsl(144.0,100%,20%)">bokan</text>
<text x="1.943" y="0.429" font-size="0.053987" fill="hsl(144.0,100%,20%)">blundell</text>
<text x="1.587" y="0.557" font-size="0.010025" fill="hsl(144.0,100%,20%)">sunnyps</text>
<text x="1.670" y="0.364" font-size="0.010025" fill="hsl(144.0,100%,20%)">eugene</text>
<text x="1.690" y="0.607" font-size="0.020050" fill="hsl(144.0,100%,20%)">sdefresne</text>
<text x="1.850" y="0.519" font-size="0.040100" fill="hsl(144.0,100%,20%)">vasilyt</text>
<text x="1.705" y="0.335" font-size="0.014178" fill="hsl(144.0,100%,20%)">kylechar</text>
<text x="1.239" y="0.031" font-size="0.017364" fill="hsl(144.0,100%,20%)">alexrudenko</text>
<text x="0.937" y="0.520" font-size="0.020050" fill="hsl(216.0,100%,20%)">haraken</text>
<text x="0.387" y="0.788" font-size="0.017364" fill="hsl(0.0,100%,20%)">enrico.galli</text>
<text x="0.579" y="0.821" font-size="0.014178" fill="hsl(0.0,100%,20%)">dcheng</text>
<text x="0.435" y="0.891" font-size="0.010025" fill="hsl(0.0,100%,20%)">ningxin.hu</text>
<text x="0.224" y="0.717" font-size="0.010025" fill="hsl(0.0,100%,20%)">reillyg</text>
<text x="1.100" y="0.924" font-size="0.017364" fill="hsl(216.0,100%,20%)">evanstade</text>
<text x="0.990" y="0.936" font-size="0.010025" fill="hsl(216.0,100%,20%)">abhishek.shanthkumar</text>
<text x="0.450" y="0.751" font-size="0.017364" fill="hsl(216.0,100%,20%)">antoniosartori</text>
<text x="1.210" y="0.833" font-size="0.014178" fill="hsl(144.0,100%,20%)">emiliapaz</text>
<text x="0.123" y="0.516" font-size="0.041335" fill="hsl(72.0,100%,20%)">fs</text>
<text x="0.671" y="0.701" font-size="0.031702" fill="hsl(72.0,100%,20%)">mkwst</text>
<text x="1.933" y="0.659" font-size="0.014178" fill="hsl(72.0,100%,20%)">pdr</text>
<text x="0.445" y="0.539" font-size="0.031702" fill="hsl(72.0,100%,20%)">masonf</text>
<text x="0.127" y="0.404" font-size="0.041335" fill="hsl(72.0,100%,20%)">tkent</text>
<text x="0.030" y="0.575" font-size="0.017364" fill="hsl(72.0,100%,20%)">dalecurtis</text>
<text x="0.639" y="0.159" font-size="0.028355" fill="hsl(216.0,100%,20%)">ikilpatrick</text>
<text x="0.220" y="0.630" font-size="0.010025" fill="hsl(72.0,100%,20%)">thestig</text>
<text x="0.727" y="0.030" font-size="0.026524" fill="hsl(216.0,100%,20%)">futhark</text>
<text x="0.863" y="0.103" font-size="0.010025" fill="hsl(216.0,100%,20%)">chrishtr</text>
<text x="0.952" y="0.755" font-size="0.026524" fill="hsl(0.0,100%,20%)">gklassen</text>
<text x="1.005" y="0.670" font-size="0.010025" fill="hsl(0.0,100%,20%)">khushalsagar</text>
<text x="0.996" y="0.649" font-size="0.010025" fill="hsl(0.0,100%,20%)">abigailbklein</text>
<text x="1.145" y="0.773" font-size="0.010025" fill="hsl(0.0,100%,20%)">agrieve</text>
<text x="1.337" y="0.700" font-size="0.014178" fill="hsl(144.0,100%,20%)">joenotcharles</text>
<text x="1.188" y="0.733" font-size="0.010025" fill="hsl(0.0,100%,20%)">twellington</text>
<text x="1.030" y="0.822" font-size="0.010025" fill="hsl(0.0,100%,20%)">vollick</text>
<text x="1.193" y="0.142" font-size="0.017364" fill="hsl(0.0,100%,20%)">guohuideng</text>
<text x="1.071" y="0.277" font-size="0.010025" fill="hsl(0.0,100%,20%)">rbyers</text>
<text x="1.118" y="0.267" font-size="0.010025" fill="hsl(0.0,100%,20%)">samfort</text>
<text x="1.648" y="0.159" font-size="0.033249" fill="hsl(0.0,100%,20%)">shaseley</text>
<text x="0.695" y="0.953" font-size="0.024556" fill="hsl(0.0,100%,20%)">hchao</text>
<text x="0.666" y="0.838" font-size="0.010025" fill="hsl(0.0,100%,20%)">cthomp</text>
<text x="0.708" y="0.846" font-size="0.010025" fill="hsl(0.0,100%,20%)">kenrb</text>
<text x="0.740" y="0.972" font-size="0.010025" fill="hsl(0.0,100%,20%)">mmenke</text>
<text x="0.911" y="0.981" font-size="0.010025" fill="hsl(0.0,100%,20%)">rkaplow</text>
<text x="1.276" y="0.996" font-size="0.017364" fill="hsl(216.0,100%,20%)">horo</text>
<text x="1.203" y="0.985" font-size="0.010025" fill="hsl(216.0,100%,20%)">yukishiino</text>
<text x="1.237" y="0.912" font-size="0.010025" fill="hsl(216.0,100%,20%)">mjwilson</text>
<text x="0.719" y="0.245" font-size="0.014178" fill="hsl(216.0,100%,20%)">dgrogan</text>
<text x="0.384" y="0.203" font-size="0.022417" fill="hsl(216.0,100%,20%)">vmpstr</text>
<text x="0.335" y="0.277" font-size="0.020050" fill="hsl(216.0,100%,20%)">mstensho</text>
<text x="1.648" y="0.899" font-size="0.033249" fill="hsl(144.0,100%,20%)">johnykim</text>
<text x="1.329" y="0.881" font-size="0.024556" fill="hsl(216.0,100%,20%)">ortuno</text>
<text x="1.758" y="0.949" font-size="0.017364" fill="hsl(144.0,100%,20%)">dgozman</text>
<text x="1.830" y="0.833" font-size="0.010025" fill="hsl(144.0,100%,20%)">dpenning</text>
<text x="1.557" y="0.751" font-size="0.026524" fill="hsl(144.0,100%,20%)">tov</text>
<text x="0.864" y="0.872" font-size="0.020050" fill="hsl(72.0,100%,20%)">jw.jung</text>
<text x="0.624" y="0.855" font-size="0.010025" fill="hsl(72.0,100%,20%)">ryansturm</text>
<text x="0.609" y="0.580" font-size="0.014178" fill="hsl(72.0,100%,20%)">dbaron</text>
<text x="1.060" y="0.872" font-size="0.014178" fill="hsl(72.0,100%,20%)">tungnh</text>
<text x="0.604" y="0.329" font-size="0.022417" fill="hsl(216.0,100%,20%)">kevers</text>
<text x="0.805" y="0.272" font-size="0.017364" fill="hsl(216.0,100%,20%)">skobes</text>
<text x="0.610" y="0.445" font-size="0.017364" fill="hsl(72.0,100%,20%)">jarhar</text>
<text x="0.380" y="0.466" font-size="0.010025" fill="hsl(72.0,100%,20%)">jonathanjlee</text>
<text x="0.827" y="0.611" font-size="0.010025" fill="hsl(72.0,100%,20%)">bashi</text>
<text x="0.762" y="0.561" font-size="0.010025" fill="hsl(72.0,100%,20%)">boliu</text>
<text x="0.429" y="0.294" font-size="0.010025" fill="hsl(216.0,100%,20%)">moonira</text>
<text x="1.002" y="0.299" font-size="0.017364" fill="hsl(72.0,100%,20%)">mzchan</text>
<text x="1.071" y="0.285" font-size="0.010025" fill="hsl(72.0,100%,20%)">toyoshim</text>
<text x="1.366" y="0.189" font-size="0.022417" fill="hsl(144.0,100%,20%)">nedenwang</text>
<text x="1.211" y="0.254" font-size="0.014178" fill="hsl(144.0,100%,20%)">kouhei</text>
<text x="1.887" y="0.764" font-size="0.020050" fill="hsl(72.0,100%,20%)">nrosenthal</text>
<text x="1.862" y="0.666" font-size="0.010025" fill="hsl(72.0,100%,20%)">foolip</text>
<text x="1.814" y="0.727" font-size="0.010025" fill="hsl(72.0,100%,20%)">szager</text>
<text x="1.506" y="0.645" font-size="0.028355" fill="hsl(144.0,100%,20%)">petermcneeley</text>
<text x="1.325" y="0.656" font-size="0.014178" fill="hsl(144.0,100%,20%)">geofflang</text>
<text x="1.674" y="0.676" font-size="0.014178" fill="hsl(144.0,100%,20%)">kainino</text>
<text x="0.877" y="0.175" font-size="0.020050" fill="hsl(216.0,100%,20%)">pfaffe</text>
<text x="0.922" y="0.217" font-size="0.010025" fill="hsl(216.0,100%,20%)">szuend</text>
<text x="1.057" y="0.161" font-size="0.010025" fill="hsl(216.0,100%,20%)">sesse</text>
<text x="1.368" y="0.348" font-size="0.020050" fill="hsl(72.0,100%,20%)">philipp.hancke</text>
<text x="1.268" y="0.432" font-size="0.014178" fill="hsl(72.0,100%,20%)">hbos</text>
<text x="1.285" y="0.293" font-size="0.010025" fill="hsl(72.0,100%,20%)">hta</text>
<text x="1.862" y="0.139" font-size="0.010025" fill="hsl(0.0,100%,20%)">etiennep</text>
<text x="1.899" y="0.296" font-size="0.014178" fill="hsl(0.0,100%,20%)">japhet</text>
<text x="1.792" y="0.069" font-size="0.017364" fill="hsl(0.0,100%,20%)">mmocny</text>
<text x="1.583" y="0.045" font-size="0.017364" fill="hsl(0.0,100%,20%)">johannes</text>
<text x="1.484" y="0.082" font-size="0.010025" fill="hsl(0.0,100%,20%)">sullivan</text>
<text x="0.433" y="0.356" font-size="0.024556" fill="hsl(72.0,100%,20%)">kojii</text>
<text x="1.546" y="0.274" font-size="0.017364" fill="hsl(0.0,100%,20%)">yaoxia</text>
<text x="1.639" y="0.259" font-size="0.010025" fill="hsl(0.0,100%,20%)">asvitkine</text>
<text x="1.490" y="0.316" font-size="0.010025" fill="hsl(0.0,100%,20%)">jkarlin</text>
<text x="1.416" y="0.959" font-size="0.010025" fill="hsl(144.0,100%,20%)">chikamune</text>
<text x="1.598" y="0.960" font-size="0.010025" fill="hsl(144.0,100%,20%)">gjc</text>
<text x="1.143" y="0.469" font-size="0.020050" fill="hsl(216.0,100%,20%)">zeesuyeon</text>
<text x="0.875" y="0.492" font-size="0.010025" fill="hsl(216.0,100%,20%)">zino</text>
</svg>
