<svg width="4000" height="2000" viewBox="-0.025 -0.025 2.05 1.05" xmlns="http://www.w3.org/2000/svg">
  <style>
    path {
      fill: none;
      stroke-linecap: round;
      stroke-opacity: 0.4;
    }

    text {
      text-anchor: middle;
      alignment-baseline: hanging;
    }
  </style>
  <g opacity="0.4">
<path d="M1.956 0.794 Q1.668 0.460 0.954 0.527" stroke="hsl(0.0,100%,35%)" stroke-width="0.00533"></path>
<path d="M1.956 0.794 Q1.847 0.763 1.764 0.809" stroke="hsl(0.0,100%,35%)" stroke-width="0.02133"></path>
<path d="M1.956 0.794 Q1.861 0.830 1.911 0.884" stroke="hsl(0.0,100%,35%)" stroke-width="0.01066"></path>
<path d="M1.956 0.794 Q2.011 0.708 1.856 0.663" stroke="hsl(0.0,100%,35%)" stroke-width="0.00533"></path>
<path d="M0.954 0.190 Q0.803 0.180 0.750 0.251" stroke="hsl(0.0,100%,35%)" stroke-width="0.01600"></path>
<path d="M0.954 0.190 Q1.011 0.265 1.169 0.253" stroke="hsl(0.0,100%,35%)" stroke-width="0.00533"></path>
<path d="M0.954 0.190 Q0.281 0.526 0.790 0.928" stroke="hsl(0.0,100%,35%)" stroke-width="0.01066"></path>
<path d="M0.954 0.190 Q1.001 0.115 0.865 0.076" stroke="hsl(0.0,100%,35%)" stroke-width="0.00533"></path>
<path d="M1.169 0.253 Q1.269 0.302 1.386 0.264" stroke="hsl(0.0,100%,35%)" stroke-width="0.00533"></path>
<path d="M1.169 0.253 Q1.112 0.179 0.954 0.190" stroke="hsl(0.0,100%,35%)" stroke-width="0.00533"></path>
<path d="M1.169 0.253 Q1.181 0.219 1.117 0.206" stroke="hsl(0.0,100%,35%)" stroke-width="0.00533"></path>
<path d="M1.169 0.253 Q1.221 0.199 1.126 0.161" stroke="hsl(0.0,100%,35%)" stroke-width="0.00533"></path>
<path d="M1.169 0.253 Q0.961 0.168 0.750 0.251" stroke="hsl(0.0,100%,35%)" stroke-width="0.00533"></path>
<path d="M0.790 0.928 Q0.730 0.934 0.728 0.965" stroke="hsl(0.0,100%,35%)" stroke-width="0.00533"></path>
<path d="M0.790 0.928 Q0.714 0.867 0.579 0.891" stroke="hsl(0.0,100%,35%)" stroke-width="0.01066"></path>
<path d="M0.790 0.928 Q0.723 0.951 0.751 0.988" stroke="hsl(0.0,100%,35%)" stroke-width="0.01066"></path>
<path d="M0.790 0.928 Q0.896 0.765 0.600 0.677" stroke="hsl(0.0,100%,35%)" stroke-width="0.00533"></path>
<path d="M0.790 0.928 Q1.052 0.995 1.240 0.882" stroke="hsl(0.0,100%,35%)" stroke-width="0.00533"></path>
<path d="M0.790 0.928 Q0.614 0.907 0.534 0.988" stroke="hsl(0.0,100%,35%)" stroke-width="0.00533"></path>
<path d="M0.756 0.499 Q0.833 0.553 0.954 0.527" stroke="hsl(0.0,100%,35%)" stroke-width="0.01066"></path>
<path d="M0.756 0.499 Q0.838 0.454 0.768 0.404" stroke="hsl(0.0,100%,35%)" stroke-width="0.01066"></path>
<path d="M0.756 0.499 Q0.592 0.810 1.163 0.959" stroke="hsl(0.0,100%,35%)" stroke-width="0.00533"></path>
<path d="M1.081 0.700 Q0.977 0.779 1.108 0.847" stroke="hsl(60.0,100%,35%)" stroke-width="0.05332"></path>
<path d="M1.081 0.700 Q0.946 0.669 0.857 0.728" stroke="hsl(60.0,100%,35%)" stroke-width="0.00533"></path>
<path d="M1.081 0.700 Q0.601 0.577 0.255 0.784" stroke="hsl(60.0,100%,35%)" stroke-width="0.00533"></path>
<path d="M0.255 0.784 Q0.456 0.664 0.267 0.540" stroke="hsl(0.0,100%,35%)" stroke-width="0.00533"></path>
<path d="M0.255 0.784 Q0.358 0.762 0.338 0.707" stroke="hsl(0.0,100%,35%)" stroke-width="0.00533"></path>
<path d="M0.255 0.784 Q0.163 0.753 0.082 0.791" stroke="hsl(0.0,100%,35%)" stroke-width="0.00533"></path>
<path d="M1.711 0.167 Q1.778 0.104 1.669 0.057" stroke="hsl(120.0,100%,35%)" stroke-width="0.00533"></path>
<path d="M1.711 0.167 Q1.791 0.159 1.793 0.118" stroke="hsl(120.0,100%,35%)" stroke-width="0.00533"></path>
<path d="M1.711 0.167 Q1.777 0.110 1.680 0.066" stroke="hsl(120.0,100%,35%)" stroke-width="0.00533"></path>
<path d="M1.711 0.167 Q1.644 0.195 1.683 0.234" stroke="hsl(120.0,100%,35%)" stroke-width="0.00533"></path>
<path d="M1.711 0.167 Q1.787 0.217 1.900 0.191" stroke="hsl(120.0,100%,35%)" stroke-width="0.00533"></path>
<path d="M1.837 0.095 Q1.838 0.082 1.813 0.078" stroke="hsl(0.0,100%,35%)" stroke-width="0.00533"></path>
<path d="M1.837 0.095 Q1.812 0.047 1.714 0.049" stroke="hsl(0.0,100%,35%)" stroke-width="0.00533"></path>
<path d="M1.837 0.095 Q1.821 0.154 1.933 0.175" stroke="hsl(0.0,100%,35%)" stroke-width="0.00533"></path>
<path d="M0.267 0.540 Q0.344 0.579 0.438 0.550" stroke="hsl(0.0,100%,35%)" stroke-width="0.01066"></path>
<path d="M0.267 0.540 Q0.639 0.612 0.861 0.446" stroke="hsl(0.0,100%,35%)" stroke-width="0.00533"></path>
<path d="M0.267 0.540 Q0.042 0.817 0.534 0.988" stroke="hsl(0.0,100%,35%)" stroke-width="0.00533"></path>
<path d="M0.267 0.540 Q0.271 0.467 0.130 0.449" stroke="hsl(0.0,100%,35%)" stroke-width="0.00533"></path>
<path d="M0.863 0.639 Q0.914 0.618 0.883 0.588" stroke="hsl(0.0,100%,35%)" stroke-width="0.00533"></path>
<path d="M0.863 0.639 Q0.644 0.470 0.267 0.540" stroke="hsl(0.0,100%,35%)" stroke-width="0.00533"></path>
<path d="M0.863 0.639 Q0.816 0.641 0.810 0.665" stroke="hsl(0.0,100%,35%)" stroke-width="0.00533"></path>
<path d="M0.696 0.605 Q0.587 0.646 0.644 0.708" stroke="hsl(0.0,100%,35%)" stroke-width="0.00533"></path>
<path d="M0.696 0.605 Q0.685 0.684 0.837 0.707" stroke="hsl(0.0,100%,35%)" stroke-width="0.00533"></path>
<path d="M0.696 0.605 Q0.721 0.581 0.680 0.563" stroke="hsl(0.0,100%,35%)" stroke-width="0.00533"></path>
<path d="M0.696 0.605 Q0.590 0.622 0.600 0.677" stroke="hsl(0.0,100%,35%)" stroke-width="0.00533"></path>
<path d="M1.856 0.494 Q1.692 0.474 1.617 0.550" stroke="hsl(180.0,100%,35%)" stroke-width="0.00533"></path>
<path d="M1.856 0.494 Q1.869 0.433 1.752 0.413" stroke="hsl(180.0,100%,35%)" stroke-width="0.01066"></path>
<path d="M1.856 0.494 Q1.826 0.234 1.311 0.191" stroke="hsl(180.0,100%,35%)" stroke-width="0.00533"></path>
<path d="M1.404 0.947 Q1.374 0.882 1.240 0.882" stroke="hsl(0.0,100%,35%)" stroke-width="0.01066"></path>
<path d="M1.404 0.947 Q1.322 0.939 1.289 0.978" stroke="hsl(0.0,100%,35%)" stroke-width="0.01066"></path>
<path d="M1.404 0.947 Q2.102 0.577 1.533 0.155" stroke="hsl(0.0,100%,35%)" stroke-width="0.00533"></path>
<path d="M1.404 0.947 Q1.274 0.905 1.163 0.959" stroke="hsl(0.0,100%,35%)" stroke-width="0.02133"></path>
<path d="M1.404 0.947 Q1.551 0.925 1.539 0.848" stroke="hsl(0.0,100%,35%)" stroke-width="0.01600"></path>
<path d="M1.404 0.947 Q0.960 0.636 0.255 0.784" stroke="hsl(0.0,100%,35%)" stroke-width="0.00533"></path>
<path d="M1.533 0.155 Q0.669 0.133 0.438 0.550" stroke="hsl(180.0,100%,35%)" stroke-width="0.01066"></path>
<path d="M1.533 0.155 Q1.393 0.129 1.311 0.191" stroke="hsl(180.0,100%,35%)" stroke-width="0.02666"></path>
<path d="M1.533 0.155 Q1.595 0.090 1.483 0.046" stroke="hsl(180.0,100%,35%)" stroke-width="0.05866"></path>
<path d="M1.533 0.155 Q1.496 0.248 1.669 0.286" stroke="hsl(180.0,100%,35%)" stroke-width="0.00533"></path>
<path d="M1.533 0.155 Q1.138 -0.103 0.548 0.033" stroke="hsl(180.0,100%,35%)" stroke-width="0.00533"></path>
<path d="M1.533 0.155 Q0.885 0.092 0.620 0.394" stroke="hsl(180.0,100%,35%)" stroke-width="0.00533"></path>
<path d="M1.533 0.155 Q1.359 0.153 1.317 0.237" stroke="hsl(180.0,100%,35%)" stroke-width="0.00533"></path>
<path d="M0.556 0.801 Q0.665 0.856 0.796 0.814" stroke="hsl(180.0,100%,35%)" stroke-width="0.00533"></path>
<path d="M0.556 0.801 Q0.716 0.860 0.867 0.795" stroke="hsl(180.0,100%,35%)" stroke-width="0.00533"></path>
<path d="M0.556 0.801 Q0.628 0.793 0.628 0.755" stroke="hsl(180.0,100%,35%)" stroke-width="0.00533"></path>
<path d="M0.556 0.801 Q0.465 0.808 0.460 0.854" stroke="hsl(180.0,100%,35%)" stroke-width="0.00533"></path>
<path d="M0.253 0.416 Q0.125 0.400 0.067 0.459" stroke="hsl(0.0,100%,35%)" stroke-width="0.00533"></path>
<path d="M0.253 0.416 Q-0.065 0.758 0.534 0.988" stroke="hsl(0.0,100%,35%)" stroke-width="0.00533"></path>
<path d="M0.253 0.416 Q0.166 0.387 0.091 0.423" stroke="hsl(0.0,100%,35%)" stroke-width="0.00533"></path>
<path d="M1.006 0.991 Q0.998 0.977 0.969 0.977" stroke="hsl(240.0,100%,35%)" stroke-width="0.00533"></path>
<path d="M1.006 0.991 Q1.025 1.006 1.059 1.000" stroke="hsl(240.0,100%,35%)" stroke-width="0.00533"></path>
<path d="M1.006 0.991 Q1.054 0.967 1.018 0.939" stroke="hsl(240.0,100%,35%)" stroke-width="0.00533"></path>
<path d="M1.301 0.663 Q1.168 0.291 0.414 0.274" stroke="hsl(180.0,100%,35%)" stroke-width="0.00533"></path>
<path d="M1.301 0.663 Q1.287 0.661 1.280 0.667" stroke="hsl(180.0,100%,35%)" stroke-width="0.00533"></path>
<path d="M1.301 0.663 Q1.823 0.455 1.533 0.155" stroke="hsl(180.0,100%,35%)" stroke-width="0.00533"></path>
<path d="M1.301 0.663 Q1.209 0.733 1.326 0.793" stroke="hsl(180.0,100%,35%)" stroke-width="0.00533"></path>
<path d="M1.459 0.756 Q2.039 0.406 1.483 0.046" stroke="hsl(180.0,100%,35%)" stroke-width="0.01066"></path>
<path d="M1.459 0.756 Q1.649 0.771 1.719 0.681" stroke="hsl(180.0,100%,35%)" stroke-width="0.00533"></path>
<path d="M1.459 0.756 Q1.581 0.720 1.537 0.653" stroke="hsl(180.0,100%,35%)" stroke-width="0.01066"></path>
<path d="M1.537 0.653 Q1.660 0.617 1.617 0.550" stroke="hsl(180.0,100%,35%)" stroke-width="0.01066"></path>
<path d="M1.537 0.653 Q1.996 0.339 1.483 0.046" stroke="hsl(180.0,100%,35%)" stroke-width="0.01066"></path>
<path d="M1.537 0.653 Q1.415 0.689 1.459 0.756" stroke="hsl(180.0,100%,35%)" stroke-width="0.01600"></path>
<path d="M1.537 0.653 Q1.606 0.703 1.719 0.681" stroke="hsl(180.0,100%,35%)" stroke-width="0.02133"></path>
<path d="M1.886 0.279 Q1.871 0.082 1.483 0.046" stroke="hsl(180.0,100%,35%)" stroke-width="0.00533"></path>
<path d="M1.886 0.279 Q1.772 0.239 1.669 0.286" stroke="hsl(180.0,100%,35%)" stroke-width="0.00533"></path>
<path d="M1.886 0.279 Q1.766 0.256 1.696 0.310" stroke="hsl(180.0,100%,35%)" stroke-width="0.00533"></path>
<path d="M0.195 0.298 Q0.978 0.494 1.533 0.155" stroke="hsl(180.0,100%,35%)" stroke-width="0.00533"></path>
<path d="M0.195 0.298 Q0.124 0.280 0.073 0.310" stroke="hsl(180.0,100%,35%)" stroke-width="0.01600"></path>
<path d="M0.195 0.298 Q0.261 0.270 0.221 0.232" stroke="hsl(180.0,100%,35%)" stroke-width="0.00533"></path>
<path d="M1.539 0.425 Q1.556 0.447 1.604 0.444" stroke="hsl(0.0,100%,35%)" stroke-width="0.00533"></path>
<path d="M1.539 0.425 Q1.567 0.376 1.478 0.352" stroke="hsl(0.0,100%,35%)" stroke-width="0.00533"></path>
<path d="M1.539 0.425 Q0.963 0.425 0.837 0.707" stroke="hsl(0.0,100%,35%)" stroke-width="0.00533"></path>
<path d="M0.548 0.033 Q1.144 0.309 1.813 0.078" stroke="hsl(180.0,100%,35%)" stroke-width="0.00533"></path>
<path d="M0.548 0.033 Q0.047 0.473 0.796 0.814" stroke="hsl(180.0,100%,35%)" stroke-width="0.00533"></path>
<path d="M0.548 0.033 Q0.609 0.070 0.694 0.048" stroke="hsl(180.0,100%,35%)" stroke-width="0.00533"></path>
<path d="M0.358 0.186 Q0.315 0.241 0.414 0.274" stroke="hsl(0.0,100%,35%)" stroke-width="0.01600"></path>
<path d="M0.358 0.186 Q0.323 0.283 0.504 0.321" stroke="hsl(0.0,100%,35%)" stroke-width="0.00533"></path>
<path d="M0.358 0.186 Q0.029 0.345 0.267 0.540" stroke="hsl(0.0,100%,35%)" stroke-width="0.01066"></path>
<path d="M0.358 0.186 Q0.721 0.348 1.117 0.206" stroke="hsl(0.0,100%,35%)" stroke-width="0.00533"></path>
<path d="M1.349 0.370 Q1.330 0.391 1.367 0.405" stroke="hsl(0.0,100%,35%)" stroke-width="0.00533"></path>
<path d="M1.349 0.370 Q1.273 0.416 1.347 0.464" stroke="hsl(0.0,100%,35%)" stroke-width="0.00533"></path>
<path d="M1.349 0.370 Q1.429 0.387 1.478 0.352" stroke="hsl(0.0,100%,35%)" stroke-width="0.00533"></path>
<path d="M0.089 0.676 Q0.062 0.921 0.534 0.988" stroke="hsl(0.0,100%,35%)" stroke-width="0.00533"></path>
<path d="M0.089 0.676 Q0.150 0.624 0.062 0.582" stroke="hsl(0.0,100%,35%)" stroke-width="0.00533"></path>
<path d="M0.089 0.676 Q0.048 0.701 0.089 0.727" stroke="hsl(0.0,100%,35%)" stroke-width="0.00533"></path>
<path d="M1.109 0.398 Q0.732 0.165 0.195 0.298" stroke="hsl(180.0,100%,35%)" stroke-width="0.00533"></path>
<path d="M1.109 0.398 Q1.039 0.426 1.079 0.466" stroke="hsl(180.0,100%,35%)" stroke-width="0.00533"></path>
<path d="M1.109 0.398 Q1.185 0.425 1.256 0.394" stroke="hsl(180.0,100%,35%)" stroke-width="0.00533"></path>
<path d="M1.109 0.398 Q1.515 0.361 1.533 0.155" stroke="hsl(180.0,100%,35%)" stroke-width="0.00533"></path>
<path d="M1.109 0.398 Q0.896 0.461 0.972 0.579" stroke="hsl(180.0,100%,35%)" stroke-width="0.00533"></path>
<path d="M1.109 0.398 Q0.946 0.372 0.861 0.446" stroke="hsl(180.0,100%,35%)" stroke-width="0.00533"></path>
<path d="M1.109 0.398 Q1.109 0.326 0.970 0.310" stroke="hsl(180.0,100%,35%)" stroke-width="0.02666"></path>
<path d="M1.109 0.398 Q1.199 0.446 1.313 0.413" stroke="hsl(180.0,100%,35%)" stroke-width="0.00533"></path>
<path d="M1.109 0.398 Q0.458 0.621 0.751 0.988" stroke="hsl(180.0,100%,35%)" stroke-width="0.00533"></path>
<path d="M1.109 0.398 Q0.997 0.647 1.459 0.756" stroke="hsl(180.0,100%,35%)" stroke-width="0.00533"></path>
<path d="M1.109 0.398 Q1.009 0.404 0.999 0.454" stroke="hsl(180.0,100%,35%)" stroke-width="0.00533"></path>
<path d="M1.109 0.398 Q1.046 0.152 0.553 0.129" stroke="hsl(180.0,100%,35%)" stroke-width="0.00533"></path>
<path d="M1.109 0.398 Q0.476 0.398 0.338 0.707" stroke="hsl(180.0,100%,35%)" stroke-width="0.00533"></path>
<path d="M1.109 0.398 Q1.418 0.534 1.752 0.413" stroke="hsl(180.0,100%,35%)" stroke-width="0.00533"></path>
<path d="M0.205 0.121 Q0.702 0.378 1.311 0.191" stroke="hsl(180.0,100%,35%)" stroke-width="0.00533"></path>
<path d="M0.205 0.121 Q0.139 0.116 0.113 0.147" stroke="hsl(180.0,100%,35%)" stroke-width="0.00533"></path>
<path d="M0.205 0.121 Q0.086 0.129 0.074 0.188" stroke="hsl(180.0,100%,35%)" stroke-width="0.00533"></path>
<path d="M1.450 0.536 Q1.523 0.576 1.617 0.550" stroke="hsl(180.0,100%,35%)" stroke-width="0.01066"></path>
<path d="M1.450 0.536 Q0.968 0.690 1.163 0.959" stroke="hsl(180.0,100%,35%)" stroke-width="0.00533"></path>
<path d="M1.450 0.536 Q1.431 0.489 1.335 0.488" stroke="hsl(180.0,100%,35%)" stroke-width="0.00533"></path>
<path d="M0.419 0.663 Q0.406 0.490 0.067 0.459" stroke="hsl(0.0,100%,35%)" stroke-width="0.00533"></path>
<path d="M0.419 0.663 Q0.343 0.669 0.338 0.707" stroke="hsl(0.0,100%,35%)" stroke-width="0.00533"></path>
<path d="M0.419 0.663 Q0.411 0.706 0.494 0.719" stroke="hsl(0.0,100%,35%)" stroke-width="0.00533"></path>
<path d="M0.680 0.169 Q0.456 0.515 1.081 0.700" stroke="hsl(180.0,100%,35%)" stroke-width="0.00533"></path>
<path d="M0.680 0.169 Q0.649 0.124 0.553 0.129" stroke="hsl(180.0,100%,35%)" stroke-width="0.01066"></path>
<path d="M0.680 0.169 Q0.784 0.111 0.694 0.048" stroke="hsl(180.0,100%,35%)" stroke-width="0.00533"></path>
<path d="M0.680 0.169 Q0.774 0.112 0.683 0.054" stroke="hsl(180.0,100%,35%)" stroke-width="0.00533"></path>
<path d="M1.204 0.552 Q1.158 0.543 1.131 0.564" stroke="hsl(300.0,100%,35%)" stroke-width="0.00533"></path>
<path d="M1.204 0.552 Q1.260 0.527 1.224 0.495" stroke="hsl(300.0,100%,35%)" stroke-width="0.00533"></path>
<path d="M1.204 0.552 Q1.218 0.587 1.289 0.587" stroke="hsl(300.0,100%,35%)" stroke-width="0.00533"></path>
<path d="M1.714 0.957 Q1.799 0.934 1.773 0.888" stroke="hsl(180.0,100%,35%)" stroke-width="0.00533"></path>
<path d="M1.714 0.957 Q1.711 0.907 1.613 0.897" stroke="hsl(180.0,100%,35%)" stroke-width="0.01066"></path>
<path d="M1.714 0.957 Q2.125 0.494 1.311 0.191" stroke="hsl(180.0,100%,35%)" stroke-width="0.00533"></path>
<path d="M0.450 0.407 Q0.545 0.435 0.620 0.394" stroke="hsl(0.0,100%,35%)" stroke-width="0.00533"></path>
<path d="M0.450 0.407 Q0.798 0.938 1.911 0.884" stroke="hsl(0.0,100%,35%)" stroke-width="0.00533"></path>
<path d="M0.450 0.407 Q0.488 0.451 0.583 0.442" stroke="hsl(0.0,100%,35%)" stroke-width="0.00533"></path>
<path d="M0.450 0.407 Q0.446 0.453 0.537 0.465" stroke="hsl(0.0,100%,35%)" stroke-width="0.00533"></path>
<path d="M0.181 0.945 Q0.644 1.007 0.867 0.795" stroke="hsl(0.0,100%,35%)" stroke-width="0.00533"></path>
<path d="M0.181 0.945 Q0.298 0.936 0.307 0.877" stroke="hsl(0.0,100%,35%)" stroke-width="0.01066"></path>
<path d="M0.181 0.945 Q0.209 0.889 0.107 0.863" stroke="hsl(0.0,100%,35%)" stroke-width="0.00533"></path>
<path d="M0.181 0.945 Q0.235 0.849 0.061 0.802" stroke="hsl(0.0,100%,35%)" stroke-width="0.00533"></path>
</g>
<text x="1.956" y="0.780" font-size="0.027408" fill="hsl(0.0,100%,20%)">alexnj</text>
<text x="0.954" y="0.519" font-size="0.016784" fill="hsl(0.0,100%,20%)">ajgo</text>
<text x="1.764" y="0.800" font-size="0.019380" fill="hsl(0.0,100%,20%)">caseq</text>
<text x="1.911" y="0.876" font-size="0.016784" fill="hsl(0.0,100%,20%)">ricea</text>
<text x="1.856" y="0.658" font-size="0.009690" fill="hsl(0.0,100%,20%)">alexrudenko</text>
<text x="0.954" y="0.176" font-size="0.027408" fill="hsl(0.0,100%,20%)">apaseltiner</text>
<text x="0.750" y="0.241" font-size="0.019380" fill="hsl(0.0,100%,20%)">japhet</text>
<text x="1.169" y="0.241" font-size="0.023736" fill="hsl(0.0,100%,20%)">linnan</text>
<text x="0.790" y="0.913" font-size="0.030643" fill="hsl(0.0,100%,20%)">yaoxia</text>
<text x="0.865" y="0.071" font-size="0.009690" fill="hsl(0.0,100%,20%)">tbansal</text>
<text x="0.756" y="0.488" font-size="0.021668" fill="hsl(0.0,100%,20%)">bin.miao</text>
<text x="0.768" y="0.397" font-size="0.013704" fill="hsl(0.0,100%,20%)">ningxin.hu</text>
<text x="1.163" y="0.947" font-size="0.023736" fill="hsl(0.0,100%,20%)">flackr</text>
<text x="1.081" y="0.682" font-size="0.034938" fill="hsl(60.0,100%,20%)">blundell</text>
<text x="1.108" y="0.831" font-size="0.030643" fill="hsl(60.0,100%,20%)">vasilyt</text>
<text x="0.857" y="0.723" font-size="0.009690" fill="hsl(60.0,100%,20%)">iclelland</text>
<text x="0.255" y="0.773" font-size="0.021668" fill="hsl(0.0,100%,20%)">jonross</text>
<text x="1.711" y="0.156" font-size="0.021668" fill="hsl(120.0,100%,20%)">clarej</text>
<text x="1.669" y="0.052" font-size="0.009690" fill="hsl(120.0,100%,20%)">awillia</text>
<text x="1.793" y="0.114" font-size="0.009690" fill="hsl(120.0,100%,20%)">chadduffin</text>
<text x="1.680" y="0.061" font-size="0.009690" fill="hsl(120.0,100%,20%)">crisrael</text>
<text x="1.683" y="0.229" font-size="0.009690" fill="hsl(120.0,100%,20%)">morlovich</text>
<text x="1.900" y="0.186" font-size="0.009690" fill="hsl(120.0,100%,20%)">selya</text>
<text x="1.837" y="0.086" font-size="0.016784" fill="hsl(0.0,100%,20%)">david.risney</text>
<text x="1.813" y="0.072" font-size="0.013704" fill="hsl(180.0,100%,20%)">hiroshige</text>
<text x="1.714" y="0.044" font-size="0.009690" fill="hsl(0.0,100%,20%)">sisidovski</text>
<text x="1.933" y="0.170" font-size="0.009690" fill="hsl(0.0,100%,20%)">tnak</text>
<text x="0.267" y="0.526" font-size="0.029070" fill="hsl(0.0,100%,20%)">dom</text>
<text x="0.438" y="0.540" font-size="0.019380" fill="hsl(180.0,100%,20%)">jarhar</text>
<text x="0.861" y="0.439" font-size="0.013704" fill="hsl(0.0,100%,20%)">chrishtr</text>
<text x="0.534" y="0.978" font-size="0.019380" fill="hsl(0.0,100%,20%)">dcheng</text>
<text x="0.130" y="0.444" font-size="0.009690" fill="hsl(0.0,100%,20%)">kevers</text>
<text x="0.863" y="0.631" font-size="0.016784" fill="hsl(0.0,100%,20%)">dsanders11</text>
<text x="0.883" y="0.583" font-size="0.009690" fill="hsl(0.0,100%,20%)">pdr</text>
<text x="0.810" y="0.660" font-size="0.009690" fill="hsl(0.0,100%,20%)">yukishiino</text>
<text x="0.696" y="0.595" font-size="0.019380" fill="hsl(0.0,100%,20%)">etiennep</text>
<text x="0.644" y="0.703" font-size="0.009690" fill="hsl(0.0,100%,20%)">foolip</text>
<text x="0.837" y="0.700" font-size="0.013704" fill="hsl(0.0,100%,20%)">rakina</text>
<text x="0.680" y="0.558" font-size="0.009690" fill="hsl(0.0,100%,20%)">mlippautz</text>
<text x="0.600" y="0.671" font-size="0.013704" fill="hsl(0.0,100%,20%)">rkaplow</text>
<text x="1.856" y="0.485" font-size="0.019380" fill="hsl(180.0,100%,20%)">felipeerias</text>
<text x="1.617" y="0.539" font-size="0.021668" fill="hsl(180.0,100%,20%)">futhark</text>
<text x="1.752" y="0.405" font-size="0.016784" fill="hsl(180.0,100%,20%)">schenney</text>
<text x="1.311" y="0.178" font-size="0.027408" fill="hsl(180.0,100%,20%)">fs</text>
<text x="1.404" y="0.930" font-size="0.034938" fill="hsl(0.0,100%,20%)">gastonr</text>
<text x="1.240" y="0.874" font-size="0.016784" fill="hsl(0.0,100%,20%)">avi</text>
<text x="1.289" y="0.971" font-size="0.013704" fill="hsl(0.0,100%,20%)">gerchiko</text>
<text x="1.533" y="0.130" font-size="0.049410" fill="hsl(180.0,100%,20%)">tkent</text>
<text x="1.539" y="0.840" font-size="0.016784" fill="hsl(0.0,100%,20%)">mustaq</text>
<text x="0.556" y="0.791" font-size="0.019380" fill="hsl(180.0,100%,20%)">hchao</text>
<text x="0.796" y="0.808" font-size="0.013704" fill="hsl(180.0,100%,20%)">masonf</text>
<text x="0.867" y="0.788" font-size="0.013704" fill="hsl(0.0,100%,20%)">clamy</text>
<text x="0.628" y="0.751" font-size="0.009690" fill="hsl(0.0,100%,20%)">cthomp</text>
<text x="0.460" y="0.849" font-size="0.009690" fill="hsl(0.0,100%,20%)">mattm</text>
<text x="0.253" y="0.407" font-size="0.016784" fill="hsl(0.0,100%,20%)">helmut</text>
<text x="0.067" y="0.452" font-size="0.013704" fill="hsl(0.0,100%,20%)">cbiesinger</text>
<text x="0.091" y="0.419" font-size="0.009690" fill="hsl(0.0,100%,20%)">yoavweiss</text>
<text x="1.006" y="0.982" font-size="0.016784" fill="hsl(240.0,100%,20%)">henrika</text>
<text x="0.969" y="0.973" font-size="0.009690" fill="hsl(240.0,100%,20%)">guidou</text>
<text x="1.059" y="0.995" font-size="0.009690" fill="hsl(240.0,100%,20%)">kron</text>
<text x="1.018" y="0.934" font-size="0.009690" fill="hsl(240.0,100%,20%)">olka</text>
<text x="1.301" y="0.653" font-size="0.019380" fill="hsl(180.0,100%,20%)">hferreiro</text>
<text x="0.414" y="0.265" font-size="0.019380" fill="hsl(0.0,100%,20%)">arthursonzogni</text>
<text x="1.280" y="0.662" font-size="0.009690" fill="hsl(0.0,100%,20%)">thakis</text>
<text x="1.326" y="0.789" font-size="0.009690" fill="hsl(180.0,100%,20%)">xhwang</text>
<text x="1.459" y="0.742" font-size="0.029070" fill="hsl(180.0,100%,20%)">ikilpatrick</text>
<text x="1.483" y="0.026" font-size="0.038760" fill="hsl(180.0,100%,20%)">kojii</text>
<text x="1.719" y="0.670" font-size="0.021668" fill="hsl(180.0,100%,20%)">dgrogan</text>
<text x="1.537" y="0.635" font-size="0.034938" fill="hsl(180.0,100%,20%)">mstensho</text>
<text x="1.886" y="0.270" font-size="0.016784" fill="hsl(180.0,100%,20%)">jhtin</text>
<text x="1.669" y="0.279" font-size="0.013704" fill="hsl(180.0,100%,20%)">sammc</text>
<text x="1.696" y="0.305" font-size="0.009690" fill="hsl(180.0,100%,20%)">tranbaoduy</text>
<text x="0.195" y="0.286" font-size="0.023736" fill="hsl(180.0,100%,20%)">jonathanjlee</text>
<text x="0.073" y="0.302" font-size="0.016784" fill="hsl(180.0,100%,20%)">bsheedy</text>
<text x="0.221" y="0.227" font-size="0.009690" fill="hsl(180.0,100%,20%)">thomasanderson</text>
<text x="0.338" y="0.698" font-size="0.016784" fill="hsl(0.0,100%,20%)">dtapuska</text>
<text x="0.082" y="0.786" font-size="0.009690" fill="hsl(0.0,100%,20%)">vmiura</text>
<text x="1.539" y="0.416" font-size="0.016784" fill="hsl(0.0,100%,20%)">leimy</text>
<text x="1.604" y="0.439" font-size="0.009690" fill="hsl(0.0,100%,20%)">fergal</text>
<text x="1.478" y="0.345" font-size="0.013704" fill="hsl(0.0,100%,20%)">haraken</text>
<text x="0.548" y="0.023" font-size="0.019380" fill="hsl(180.0,100%,20%)">lingqi</text>
<text x="0.694" y="0.041" font-size="0.013704" fill="hsl(180.0,100%,20%)">nhiroki</text>
<text x="1.386" y="0.259" font-size="0.009690" fill="hsl(0.0,100%,20%)">alexmos</text>
<text x="1.117" y="0.199" font-size="0.013704" fill="hsl(0.0,100%,20%)">bashi</text>
<text x="1.126" y="0.156" font-size="0.009690" fill="hsl(0.0,100%,20%)">behamilton</text>
<text x="0.358" y="0.173" font-size="0.025637" fill="hsl(0.0,100%,20%)">mkwst</text>
<text x="0.504" y="0.316" font-size="0.009690" fill="hsl(0.0,100%,20%)">treib</text>
<text x="1.349" y="0.362" font-size="0.016784" fill="hsl(0.0,100%,20%)">olivierli</text>
<text x="1.367" y="0.400" font-size="0.009690" fill="hsl(0.0,100%,20%)">creis</text>
<text x="1.347" y="0.459" font-size="0.009690" fill="hsl(0.0,100%,20%)">fdoray</text>
<text x="0.089" y="0.667" font-size="0.016784" fill="hsl(0.0,100%,20%)">peilinwang</text>
<text x="0.062" y="0.577" font-size="0.009690" fill="hsl(0.0,100%,20%)">kylechar</text>
<text x="0.089" y="0.722" font-size="0.009690" fill="hsl(0.0,100%,20%)">yfriedman</text>
<text x="1.109" y="0.377" font-size="0.041111" fill="hsl(180.0,100%,20%)">pkasting</text>
<text x="1.079" y="0.461" font-size="0.009690" fill="hsl(180.0,100%,20%)">nasko</text>
<text x="1.256" y="0.389" font-size="0.009690" fill="hsl(180.0,100%,20%)">oksamyt</text>
<text x="0.972" y="0.574" font-size="0.009690" fill="hsl(180.0,100%,20%)">abigailbklein</text>
<text x="0.970" y="0.299" font-size="0.021668" fill="hsl(180.0,100%,20%)">ellyjones</text>
<text x="1.313" y="0.408" font-size="0.009690" fill="hsl(180.0,100%,20%)">grt</text>
<text x="0.751" y="0.980" font-size="0.016784" fill="hsl(0.0,100%,20%)">szager</text>
<text x="0.999" y="0.449" font-size="0.009690" fill="hsl(180.0,100%,20%)">wangxianzhu</text>
<text x="0.553" y="0.121" font-size="0.016784" fill="hsl(180.0,100%,20%)">keishi</text>
<text x="0.205" y="0.113" font-size="0.016784" fill="hsl(180.0,100%,20%)">ragsharma</text>
<text x="0.113" y="0.142" font-size="0.009690" fill="hsl(180.0,100%,20%)">kschmi</text>
<text x="0.074" y="0.183" font-size="0.009690" fill="hsl(180.0,100%,20%)">qinmin</text>
<text x="1.450" y="0.526" font-size="0.019380" fill="hsl(180.0,100%,20%)">sakhapov</text>
<text x="1.335" y="0.483" font-size="0.009690" fill="hsl(180.0,100%,20%)">lucasradaelli</text>
<text x="0.419" y="0.654" font-size="0.016784" fill="hsl(0.0,100%,20%)">sureshpotti</text>
<text x="0.494" y="0.714" font-size="0.009690" fill="hsl(0.0,100%,20%)">npm</text>
<text x="0.680" y="0.158" font-size="0.021668" fill="hsl(180.0,100%,20%)">tasak</text>
<text x="0.683" y="0.049" font-size="0.009690" fill="hsl(180.0,100%,20%)">mamir</text>
<text x="0.620" y="0.388" font-size="0.013704" fill="hsl(180.0,100%,20%)">nidhijaju</text>
<text x="1.317" y="0.232" font-size="0.009690" fill="hsl(180.0,100%,20%)">yyanagisawa</text>
<text x="1.204" y="0.544" font-size="0.016784" fill="hsl(300.0,100%,20%)">vanshparikh</text>
<text x="1.131" y="0.559" font-size="0.009690" fill="hsl(300.0,100%,20%)">dayeung</text>
<text x="1.224" y="0.490" font-size="0.009690" fill="hsl(300.0,100%,20%)">dtseng</text>
<text x="1.289" y="0.582" font-size="0.009690" fill="hsl(300.0,100%,20%)">mpdenton</text>
<text x="1.714" y="0.947" font-size="0.019380" fill="hsl(180.0,100%,20%)">viralipurbey</text>
<text x="1.773" y="0.883" font-size="0.009690" fill="hsl(180.0,100%,20%)">dileepmaurya</text>
<text x="1.613" y="0.891" font-size="0.013704" fill="hsl(180.0,100%,20%)">dmangal</text>
<text x="0.450" y="0.397" font-size="0.019380" fill="hsl(0.0,100%,20%)">visiedo</text>
<text x="0.583" y="0.437" font-size="0.009690" fill="hsl(0.0,100%,20%)">toyoshim</text>
<text x="0.537" y="0.461" font-size="0.009690" fill="hsl(0.0,100%,20%)">yoichio</text>
<text x="0.181" y="0.934" font-size="0.021668" fill="hsl(0.0,100%,20%)">vkrot</text>
<text x="0.307" y="0.870" font-size="0.013704" fill="hsl(0.0,100%,20%)">greengrape</text>
<text x="0.107" y="0.858" font-size="0.009690" fill="hsl(60.0,100%,20%)">bylica</text>
<text x="0.061" y="0.797" font-size="0.009690" fill="hsl(60.0,100%,20%)">dgozman</text>
<text x="0.728" y="0.960" font-size="0.009690" fill="hsl(0.0,100%,20%)">asvitkine</text>
<text x="0.579" y="0.884" font-size="0.013704" fill="hsl(0.0,100%,20%)">jkarlin</text>
</svg>
