<svg width="4000" height="2000" viewBox="-0.025 -0.025 2.05 1.05" xmlns="http://www.w3.org/2000/svg">
  <style>
    path {
      fill: none;
      stroke-linecap: round;
      stroke-opacity: 0.4;
    }

    text {
      text-anchor: middle;
      alignment-baseline: hanging;
    }
  </style>
  <g opacity="0.4">
<path d="M0.702 0.844 Q0.845 0.976 1.135 0.935" stroke="hsl(0.0,100%,35%)" stroke-width="0.03162"></path>
<path d="M0.702 0.844 Q0.544 0.813 0.450 0.883" stroke="hsl(0.0,100%,35%)" stroke-width="0.03162"></path>
<path d="M0.702 0.844 Q1.181 0.998 1.587 0.798" stroke="hsl(0.0,100%,35%)" stroke-width="0.03162"></path>
<path d="M1.587 0.798 Q1.387 0.782 1.311 0.875" stroke="hsl(0.0,100%,35%)" stroke-width="0.06325"></path>
<path d="M1.587 0.798 Q1.729 0.650 1.471 0.548" stroke="hsl(0.0,100%,35%)" stroke-width="0.03162"></path>
<path d="M1.587 0.798 Q1.494 0.664 1.212 0.680" stroke="hsl(0.0,100%,35%)" stroke-width="0.03162"></path>
<path d="M0.870 0.502 Q0.670 0.597 0.811 0.716" stroke="hsl(180.0,100%,35%)" stroke-width="0.03162"></path>
<path d="M0.870 0.502 Q1.124 0.453 1.084 0.319" stroke="hsl(180.0,100%,35%)" stroke-width="0.03162"></path>
<path d="M0.870 0.502 Q0.656 0.772 1.135 0.935" stroke="hsl(180.0,100%,35%)" stroke-width="0.03162"></path>
</g>
<text x="0.702" y="0.805" font-size="0.077460" fill="hsl(0.0,100%,20%)">satorux</text>
<text x="1.135" y="0.904" font-size="0.063246" fill="hsl(180.0,100%,20%)">uekawa</text>
<text x="0.450" y="0.861" font-size="0.044721" fill="hsl(0.0,100%,20%)">menghuan</text>
<text x="1.587" y="0.748" font-size="0.100000" fill="hsl(0.0,100%,20%)">weiluanwang</text>
<text x="1.311" y="0.844" font-size="0.063246" fill="hsl(0.0,100%,20%)">zuan</text>
<text x="1.471" y="0.526" font-size="0.044721" fill="hsl(0.0,100%,20%)">djzhang</text>
<text x="1.212" y="0.658" font-size="0.044721" fill="hsl(0.0,100%,20%)">kevinptt</text>
<text x="0.870" y="0.464" font-size="0.077460" fill="hsl(180.0,100%,20%)">yuanyaogoog</text>
<text x="0.811" y="0.694" font-size="0.044721" fill="hsl(180.0,100%,20%)">keiichiw</text>
<text x="1.084" y="0.296" font-size="0.044721" fill="hsl(180.0,100%,20%)">troywang</text>
</svg>
