<svg width="4000" height="2000" viewBox="-0.025 -0.025 2.05 1.05" xmlns="http://www.w3.org/2000/svg">
  <style>
    path {
      fill: none;
      stroke-linecap: round;
      stroke-opacity: 0.4;
    }

    text {
      text-anchor: middle;
      alignment-baseline: hanging;
    }
  </style>
  <g opacity="0.4">
<path d="M0.631 0.253 Q0.695 0.304 0.809 0.284" stroke="hsl(0.0,100%,35%)" stroke-width="0.01270"></path>
<path d="M0.631 0.253 Q0.619 0.203 0.519 0.198" stroke="hsl(0.0,100%,35%)" stroke-width="0.00952"></path>
<path d="M0.631 0.253 Q0.616 0.174 0.458 0.164" stroke="hsl(0.0,100%,35%)" stroke-width="0.00635"></path>
<path d="M0.631 0.253 Q0.651 0.179 0.511 0.153" stroke="hsl(0.0,100%,35%)" stroke-width="0.00952"></path>
<path d="M0.631 0.253 Q0.942 0.693 1.867 0.638" stroke="hsl(0.0,100%,35%)" stroke-width="0.00317"></path>
<path d="M0.631 0.253 Q0.744 0.237 0.737 0.178" stroke="hsl(0.0,100%,35%)" stroke-width="0.00952"></path>
<path d="M0.631 0.253 Q0.927 0.519 1.510 0.432" stroke="hsl(0.0,100%,35%)" stroke-width="0.00317"></path>
<path d="M0.809 0.284 Q0.894 0.294 0.931 0.254" stroke="hsl(0.0,100%,35%)" stroke-width="0.00317"></path>
<path d="M0.809 0.284 Q0.929 0.236 0.862 0.167" stroke="hsl(0.0,100%,35%)" stroke-width="0.00317"></path>
<path d="M0.809 0.284 Q0.894 0.258 0.863 0.211" stroke="hsl(0.0,100%,35%)" stroke-width="0.00317"></path>
<path d="M0.809 0.284 Q0.910 0.318 1.000 0.277" stroke="hsl(0.0,100%,35%)" stroke-width="0.00317"></path>
<path d="M0.809 0.284 Q0.834 0.608 1.472 0.667" stroke="hsl(0.0,100%,35%)" stroke-width="0.00317"></path>
<path d="M1.510 0.432 Q1.456 0.412 1.405 0.435" stroke="hsl(0.0,100%,35%)" stroke-width="0.00317"></path>
<path d="M1.510 0.432 Q1.223 0.344 0.988 0.466" stroke="hsl(0.0,100%,35%)" stroke-width="0.00317"></path>
<path d="M1.510 0.432 Q1.580 0.408 1.547 0.368" stroke="hsl(0.0,100%,35%)" stroke-width="0.00317"></path>
<path d="M1.510 0.432 Q1.304 0.542 1.472 0.667" stroke="hsl(0.0,100%,35%)" stroke-width="0.00635"></path>
<path d="M0.853 0.625 Q0.735 0.613 0.686 0.668" stroke="hsl(0.0,100%,35%)" stroke-width="0.00635"></path>
<path d="M0.853 0.625 Q0.737 0.705 0.869 0.780" stroke="hsl(0.0,100%,35%)" stroke-width="0.05080"></path>
<path d="M0.853 0.625 Q1.129 0.769 1.472 0.667" stroke="hsl(0.0,100%,35%)" stroke-width="0.00635"></path>
<path d="M0.853 0.625 Q0.981 0.476 0.718 0.380" stroke="hsl(0.0,100%,35%)" stroke-width="0.00635"></path>
<path d="M0.853 0.625 Q0.934 0.833 1.358 0.839" stroke="hsl(0.0,100%,35%)" stroke-width="0.00317"></path>
<path d="M1.472 0.667 Q1.551 0.708 1.649 0.678" stroke="hsl(0.0,100%,35%)" stroke-width="0.03492"></path>
<path d="M1.472 0.667 Q1.355 0.667 1.331 0.725" stroke="hsl(0.0,100%,35%)" stroke-width="0.00317"></path>
<path d="M1.472 0.667 Q1.277 0.730 1.358 0.839" stroke="hsl(0.0,100%,35%)" stroke-width="0.00317"></path>
<path d="M1.472 0.667 Q1.974 0.395 1.554 0.090" stroke="hsl(0.0,100%,35%)" stroke-width="0.00317"></path>
<path d="M1.472 0.667 Q1.717 0.686 1.809 0.570" stroke="hsl(0.0,100%,35%)" stroke-width="0.00635"></path>
<path d="M1.358 0.839 Q1.376 0.881 1.462 0.881" stroke="hsl(0.0,100%,35%)" stroke-width="0.00635"></path>
<path d="M1.358 0.839 Q0.907 0.487 0.120 0.629" stroke="hsl(0.0,100%,35%)" stroke-width="0.00317"></path>
<path d="M1.358 0.839 Q1.799 0.795 1.809 0.570" stroke="hsl(0.0,100%,35%)" stroke-width="0.00635"></path>
<path d="M1.677 0.825 Q1.597 0.878 1.683 0.928" stroke="hsl(60.0,100%,35%)" stroke-width="0.00635"></path>
<path d="M1.677 0.825 Q1.721 0.892 1.863 0.885" stroke="hsl(60.0,100%,35%)" stroke-width="0.00635"></path>
<path d="M1.677 0.825 Q1.864 0.832 1.919 0.742" stroke="hsl(60.0,100%,35%)" stroke-width="0.00635"></path>
<path d="M1.677 0.825 Q1.781 0.839 1.832 0.791" stroke="hsl(60.0,100%,35%)" stroke-width="0.00317"></path>
<path d="M1.677 0.825 Q1.722 0.897 1.872 0.890" stroke="hsl(60.0,100%,35%)" stroke-width="0.00317"></path>
<path d="M1.677 0.825 Q1.777 0.248 0.674 0.073" stroke="hsl(60.0,100%,35%)" stroke-width="0.00317"></path>
<path d="M1.683 0.928 Q1.950 0.882 1.919 0.742" stroke="hsl(60.0,100%,35%)" stroke-width="0.00317"></path>
<path d="M1.683 0.928 Q1.640 0.895 1.565 0.909" stroke="hsl(60.0,100%,35%)" stroke-width="0.00317"></path>
<path d="M1.683 0.928 Q1.763 0.875 1.677 0.825" stroke="hsl(60.0,100%,35%)" stroke-width="0.00635"></path>
<path d="M1.683 0.928 Q1.867 0.889 1.832 0.791" stroke="hsl(60.0,100%,35%)" stroke-width="0.00317"></path>
<path d="M1.919 0.742 Q1.970 0.719 1.937 0.689" stroke="hsl(60.0,100%,35%)" stroke-width="0.00317"></path>
<path d="M1.919 0.742 Q1.998 0.270 1.095 0.127" stroke="hsl(60.0,100%,35%)" stroke-width="0.00317"></path>
<path d="M1.919 0.742 Q1.909 0.696 1.817 0.691" stroke="hsl(60.0,100%,35%)" stroke-width="0.00317"></path>
<path d="M0.674 0.073 Q0.284 0.106 0.264 0.303" stroke="hsl(60.0,100%,35%)" stroke-width="0.00317"></path>
<path d="M0.674 0.073 Q0.689 0.151 0.845 0.161" stroke="hsl(60.0,100%,35%)" stroke-width="0.00635"></path>
<path d="M0.674 0.073 Q0.716 0.125 0.827 0.115" stroke="hsl(60.0,100%,35%)" stroke-width="0.00317"></path>
<path d="M0.674 0.073 Q0.772 0.395 1.424 0.418" stroke="hsl(60.0,100%,35%)" stroke-width="0.00317"></path>
<path d="M0.674 0.073 Q0.568 0.032 0.465 0.075" stroke="hsl(60.0,100%,35%)" stroke-width="0.00317"></path>
<path d="M0.674 0.073 Q1.009 0.499 1.915 0.429" stroke="hsl(60.0,100%,35%)" stroke-width="0.00317"></path>
<path d="M0.674 0.073 Q0.843 0.548 1.809 0.570" stroke="hsl(60.0,100%,35%)" stroke-width="0.00317"></path>
<path d="M1.357 0.199 Q1.465 0.138 1.371 0.072" stroke="hsl(120.0,100%,35%)" stroke-width="0.00635"></path>
<path d="M1.357 0.199 Q1.435 0.249 1.552 0.222" stroke="hsl(120.0,100%,35%)" stroke-width="0.00635"></path>
<path d="M1.357 0.199 Q1.364 0.251 1.467 0.259" stroke="hsl(120.0,100%,35%)" stroke-width="0.00317"></path>
<path d="M0.120 0.629 Q0.170 0.693 0.305 0.683" stroke="hsl(0.0,100%,35%)" stroke-width="0.00317"></path>
<path d="M0.120 0.629 Q0.215 0.737 0.447 0.715" stroke="hsl(0.0,100%,35%)" stroke-width="0.00317"></path>
<path d="M0.120 0.629 Q0.571 0.982 1.358 0.839" stroke="hsl(0.0,100%,35%)" stroke-width="0.00317"></path>
<path d="M0.120 0.629 Q0.148 0.660 0.214 0.653" stroke="hsl(0.0,100%,35%)" stroke-width="0.00317"></path>
<path d="M0.120 0.629 Q0.057 0.702 0.185 0.749" stroke="hsl(0.0,100%,35%)" stroke-width="0.00317"></path>
<path d="M0.120 0.629 Q0.227 0.673 0.336 0.630" stroke="hsl(0.0,100%,35%)" stroke-width="0.00317"></path>
<path d="M0.120 0.629 Q0.139 0.716 0.313 0.726" stroke="hsl(0.0,100%,35%)" stroke-width="0.00317"></path>
<path d="M0.120 0.629 Q0.301 0.598 0.281 0.503" stroke="hsl(0.0,100%,35%)" stroke-width="0.00635"></path>
<path d="M0.120 0.629 Q-0.004 0.847 0.394 0.956" stroke="hsl(0.0,100%,35%)" stroke-width="0.00317"></path>
<path d="M0.120 0.629 Q0.973 0.809 1.510 0.432" stroke="hsl(0.0,100%,35%)" stroke-width="0.00635"></path>
<path d="M0.120 0.629 Q0.239 0.630 0.268 0.572" stroke="hsl(0.0,100%,35%)" stroke-width="0.00635"></path>
<path d="M0.120 0.629 Q0.221 0.678 0.339 0.639" stroke="hsl(0.0,100%,35%)" stroke-width="0.00317"></path>
<path d="M0.281 0.503 Q0.363 0.534 0.442 0.501" stroke="hsl(0.0,100%,35%)" stroke-width="0.00317"></path>
<path d="M0.281 0.503 Q1.358 0.603 1.789 0.099" stroke="hsl(0.0,100%,35%)" stroke-width="0.00317"></path>
<path d="M0.281 0.503 Q0.895 0.509 1.041 0.211" stroke="hsl(0.0,100%,35%)" stroke-width="0.00317"></path>
<path d="M0.281 0.503 Q0.484 0.599 0.716 0.521" stroke="hsl(0.0,100%,35%)" stroke-width="0.00635"></path>
<path d="M0.272 0.833 Q0.346 0.987 0.664 0.985" stroke="hsl(180.0,100%,35%)" stroke-width="0.01587"></path>
<path d="M0.272 0.833 Q0.235 0.918 0.394 0.956" stroke="hsl(180.0,100%,35%)" stroke-width="0.01587"></path>
<path d="M0.272 0.833 Q0.680 0.677 0.466 0.445" stroke="hsl(180.0,100%,35%)" stroke-width="0.00317"></path>
<path d="M0.664 0.985 Q0.552 0.916 0.394 0.956" stroke="hsl(180.0,100%,35%)" stroke-width="0.07302"></path>
<path d="M0.664 0.985 Q1.633 0.836 1.556 0.330" stroke="hsl(180.0,100%,35%)" stroke-width="0.00317"></path>
<path d="M0.664 0.985 Q0.748 0.915 0.631 0.858" stroke="hsl(180.0,100%,35%)" stroke-width="0.00952"></path>
<path d="M0.664 0.985 Q1.147 0.731 0.757 0.440" stroke="hsl(180.0,100%,35%)" stroke-width="0.00317"></path>
<path d="M0.583 0.586 Q0.815 0.510 0.718 0.380" stroke="hsl(0.0,100%,35%)" stroke-width="0.00317"></path>
<path d="M0.583 0.586 Q0.701 0.580 0.716 0.521" stroke="hsl(0.0,100%,35%)" stroke-width="0.00317"></path>
<path d="M0.583 0.586 Q0.861 0.379 0.519 0.198" stroke="hsl(0.0,100%,35%)" stroke-width="0.00317"></path>
<path d="M0.583 0.586 Q1.042 0.845 1.649 0.678" stroke="hsl(0.0,100%,35%)" stroke-width="0.00317"></path>
<path d="M0.583 0.586 Q0.704 0.601 0.760 0.545" stroke="hsl(0.0,100%,35%)" stroke-width="0.00317"></path>
<path d="M0.583 0.586 Q0.649 0.547 0.588 0.506" stroke="hsl(0.0,100%,35%)" stroke-width="0.00317"></path>
<path d="M0.583 0.586 Q0.498 0.484 0.281 0.503" stroke="hsl(0.0,100%,35%)" stroke-width="0.00317"></path>
<path d="M0.583 0.586 Q0.485 0.623 0.537 0.679" stroke="hsl(0.0,100%,35%)" stroke-width="0.00317"></path>
<path d="M0.583 0.586 Q0.707 0.585 0.733 0.524" stroke="hsl(0.0,100%,35%)" stroke-width="0.00317"></path>
<path d="M0.900 0.989 Q0.969 1.021 1.046 0.994" stroke="hsl(0.0,100%,35%)" stroke-width="0.00317"></path>
<path d="M0.900 0.989 Q0.985 0.956 0.940 0.907" stroke="hsl(0.0,100%,35%)" stroke-width="0.00317"></path>
<path d="M0.900 0.989 Q1.174 0.616 0.507 0.400" stroke="hsl(0.0,100%,35%)" stroke-width="0.00635"></path>
<path d="M1.768 0.454 Q1.639 0.472 1.646 0.539" stroke="hsl(60.0,100%,35%)" stroke-width="0.00317"></path>
<path d="M1.768 0.454 Q1.778 0.399 1.673 0.382" stroke="hsl(60.0,100%,35%)" stroke-width="0.00317"></path>
<path d="M1.768 0.454 Q0.923 0.213 0.268 0.572" stroke="hsl(60.0,100%,35%)" stroke-width="0.00317"></path>
<path d="M1.768 0.454 Q1.862 0.471 1.915 0.429" stroke="hsl(60.0,100%,35%)" stroke-width="0.00317"></path>
<path d="M1.768 0.454 Q1.809 0.497 1.901 0.486" stroke="hsl(60.0,100%,35%)" stroke-width="0.00317"></path>
<path d="M1.768 0.454 Q1.613 0.628 1.919 0.742" stroke="hsl(60.0,100%,35%)" stroke-width="0.00317"></path>
<path d="M0.063 0.278 Q0.260 0.224 0.199 0.116" stroke="hsl(60.0,100%,35%)" stroke-width="0.00317"></path>
<path d="M0.063 0.278 Q0.143 0.331 0.264 0.303" stroke="hsl(60.0,100%,35%)" stroke-width="0.01587"></path>
<path d="M0.063 0.278 Q-0.007 0.321 0.063 0.365" stroke="hsl(60.0,100%,35%)" stroke-width="0.01270"></path>
<path d="M0.063 0.278 Q0.059 0.315 0.131 0.326" stroke="hsl(60.0,100%,35%)" stroke-width="0.00635"></path>
<path d="M0.063 0.278 Q0.081 0.374 0.274 0.387" stroke="hsl(60.0,100%,35%)" stroke-width="0.00635"></path>
<path d="M0.063 0.278 Q0.312 0.226 0.266 0.093" stroke="hsl(60.0,100%,35%)" stroke-width="0.00317"></path>
<path d="M0.274 0.387 Q0.324 0.454 0.466 0.445" stroke="hsl(60.0,100%,35%)" stroke-width="0.00317"></path>
<path d="M0.274 0.387 Q0.335 0.343 0.264 0.303" stroke="hsl(60.0,100%,35%)" stroke-width="0.02857"></path>
<path d="M0.274 0.387 Q1.143 0.709 1.963 0.356" stroke="hsl(60.0,100%,35%)" stroke-width="0.00317"></path>
<path d="M1.203 0.694 Q1.345 0.673 1.334 0.599" stroke="hsl(240.0,100%,35%)" stroke-width="0.02222"></path>
<path d="M1.203 0.694 Q1.226 0.613 1.073 0.583" stroke="hsl(240.0,100%,35%)" stroke-width="0.01270"></path>
<path d="M1.203 0.694 Q1.240 0.653 1.167 0.626" stroke="hsl(240.0,100%,35%)" stroke-width="0.00317"></path>
<path d="M0.631 0.858 Q0.702 0.780 0.566 0.729" stroke="hsl(180.0,100%,35%)" stroke-width="0.00317"></path>
<path d="M0.631 0.858 Q0.546 0.928 0.664 0.985" stroke="hsl(180.0,100%,35%)" stroke-width="0.04127"></path>
<path d="M0.631 0.858 Q0.434 0.859 0.394 0.956" stroke="hsl(180.0,100%,35%)" stroke-width="0.01905"></path>
<path d="M0.757 0.440 Q0.275 0.693 0.664 0.985" stroke="hsl(180.0,100%,35%)" stroke-width="0.00317"></path>
<path d="M0.757 0.440 Q0.712 0.441 0.705 0.464" stroke="hsl(180.0,100%,35%)" stroke-width="0.00317"></path>
<path d="M0.757 0.440 Q1.009 0.407 1.000 0.277" stroke="hsl(180.0,100%,35%)" stroke-width="0.00317"></path>
<path d="M0.757 0.440 Q1.096 0.823 1.919 0.742" stroke="hsl(180.0,100%,35%)" stroke-width="0.00317"></path>
<path d="M0.036 0.512 Q0.086 0.539 0.151 0.521" stroke="hsl(60.0,100%,35%)" stroke-width="0.00952"></path>
<path d="M0.036 0.512 Q0.106 0.468 0.036 0.424" stroke="hsl(60.0,100%,35%)" stroke-width="0.00635"></path>
<path d="M0.036 0.512 Q0.145 0.461 0.070 0.397" stroke="hsl(60.0,100%,35%)" stroke-width="0.00317"></path>
<path d="M0.036 0.512 Q0.255 0.497 0.274 0.387" stroke="hsl(60.0,100%,35%)" stroke-width="0.00317"></path>
<path d="M1.554 0.090 Q1.493 0.028 1.359 0.044" stroke="hsl(0.0,100%,35%)" stroke-width="0.00317"></path>
<path d="M1.554 0.090 Q1.325 0.156 1.403 0.282" stroke="hsl(0.0,100%,35%)" stroke-width="0.00317"></path>
<path d="M1.554 0.090 Q1.451 0.052 1.356 0.094" stroke="hsl(0.0,100%,35%)" stroke-width="0.00317"></path>
<path d="M1.554 0.090 Q1.297 0.381 1.809 0.570" stroke="hsl(0.0,100%,35%)" stroke-width="0.00317"></path>
<path d="M1.554 0.090 Q1.473 0.015 1.310 0.038" stroke="hsl(0.0,100%,35%)" stroke-width="0.00317"></path>
<path d="M1.554 0.090 Q1.521 0.122 1.577 0.144" stroke="hsl(0.0,100%,35%)" stroke-width="0.00635"></path>
<path d="M1.554 0.090 Q1.548 0.041 1.451 0.033" stroke="hsl(0.0,100%,35%)" stroke-width="0.00317"></path>
<path d="M1.934 0.852 Q2.072 0.731 1.867 0.638" stroke="hsl(0.0,100%,35%)" stroke-width="0.00317"></path>
<path d="M1.934 0.852 Q2.097 0.686 1.809 0.570" stroke="hsl(0.0,100%,35%)" stroke-width="0.00317"></path>
<path d="M1.934 0.852 Q2.094 0.322 1.095 0.127" stroke="hsl(0.0,100%,35%)" stroke-width="0.00317"></path>
<path d="M1.095 0.127 Q1.124 0.075 1.029 0.049" stroke="hsl(60.0,100%,35%)" stroke-width="0.00317"></path>
<path d="M1.095 0.127 Q1.228 0.091 1.186 0.018" stroke="hsl(60.0,100%,35%)" stroke-width="0.00635"></path>
<path d="M1.095 0.127 Q1.206 0.156 1.286 0.108" stroke="hsl(60.0,100%,35%)" stroke-width="0.00317"></path>
<path d="M1.095 0.127 Q1.098 0.492 1.809 0.570" stroke="hsl(60.0,100%,35%)" stroke-width="0.00635"></path>
<path d="M1.854 0.188 Q1.763 0.221 1.807 0.272" stroke="hsl(0.0,100%,35%)" stroke-width="0.00635"></path>
<path d="M1.854 0.188 Q1.828 0.256 1.954 0.283" stroke="hsl(0.0,100%,35%)" stroke-width="0.00635"></path>
<path d="M1.854 0.188 Q1.785 0.162 1.719 0.190" stroke="hsl(0.0,100%,35%)" stroke-width="0.00317"></path>
<path d="M1.854 0.188 Q1.806 0.120 1.664 0.129" stroke="hsl(0.0,100%,35%)" stroke-width="0.00317"></path>
<path d="M1.854 0.188 Q1.749 0.159 1.669 0.203" stroke="hsl(0.0,100%,35%)" stroke-width="0.00317"></path>
<path d="M1.854 0.188 Q1.893 0.131 1.789 0.099" stroke="hsl(0.0,100%,35%)" stroke-width="0.00952"></path>
<path d="M1.854 0.188 Q1.199 0.154 0.988 0.466" stroke="hsl(0.0,100%,35%)" stroke-width="0.00317"></path>
<path d="M1.854 0.188 Q1.734 0.188 1.707 0.247" stroke="hsl(0.0,100%,35%)" stroke-width="0.00317"></path>
<path d="M1.854 0.188 Q1.455 0.217 1.424 0.418" stroke="hsl(0.0,100%,35%)" stroke-width="0.00317"></path>
<path d="M1.647 0.304 Q1.580 0.299 1.556 0.330" stroke="hsl(0.0,100%,35%)" stroke-width="0.00317"></path>
<path d="M1.647 0.304 Q1.729 0.332 1.802 0.297" stroke="hsl(0.0,100%,35%)" stroke-width="0.00317"></path>
<path d="M1.647 0.304 Q1.121 0.156 0.718 0.380" stroke="hsl(0.0,100%,35%)" stroke-width="0.00317"></path>
<path d="M1.647 0.304 Q1.432 0.577 1.919 0.742" stroke="hsl(0.0,100%,35%)" stroke-width="0.00317"></path>
<path d="M1.647 0.304 Q1.739 0.210 1.577 0.144" stroke="hsl(0.0,100%,35%)" stroke-width="0.00317"></path>
<path d="M1.166 0.374 Q1.022 0.472 1.180 0.564" stroke="hsl(0.0,100%,35%)" stroke-width="0.00317"></path>
<path d="M1.166 0.374 Q0.967 0.416 1.004 0.522" stroke="hsl(0.0,100%,35%)" stroke-width="0.00317"></path>
<path d="M1.166 0.374 Q1.004 0.384 0.988 0.466" stroke="hsl(0.0,100%,35%)" stroke-width="0.06667"></path>
<path d="M1.166 0.374 Q1.091 0.449 1.219 0.502" stroke="hsl(0.0,100%,35%)" stroke-width="0.00317"></path>
<path d="M1.166 0.374 Q1.271 0.295 1.139 0.226" stroke="hsl(0.0,100%,35%)" stroke-width="0.01905"></path>
<path d="M1.219 0.502 Q1.188 0.311 0.809 0.284" stroke="hsl(0.0,100%,35%)" stroke-width="0.00635"></path>
<path d="M1.219 0.502 Q1.294 0.428 1.166 0.374" stroke="hsl(0.0,100%,35%)" stroke-width="0.05715"></path>
<path d="M1.219 0.502 Q1.456 0.290 1.095 0.127" stroke="hsl(0.0,100%,35%)" stroke-width="0.00317"></path>
<path d="M1.219 0.502 Q0.930 0.332 0.535 0.435" stroke="hsl(0.0,100%,35%)" stroke-width="0.00317"></path>
<path d="M1.219 0.502 Q1.459 0.654 1.809 0.570" stroke="hsl(0.0,100%,35%)" stroke-width="0.00317"></path>
<path d="M1.219 0.502 Q1.434 0.699 1.867 0.638" stroke="hsl(0.0,100%,35%)" stroke-width="0.00317"></path>
<path d="M1.219 0.502 Q1.150 0.525 1.180 0.564" stroke="hsl(0.0,100%,35%)" stroke-width="0.00635"></path>
<path d="M1.219 0.502 Q1.388 0.501 1.424 0.418" stroke="hsl(0.0,100%,35%)" stroke-width="0.00317"></path>
<path d="M1.219 0.502 Q1.761 0.539 1.954 0.283" stroke="hsl(0.0,100%,35%)" stroke-width="0.00317"></path>
<path d="M1.219 0.502 Q1.399 0.348 1.139 0.226" stroke="hsl(0.0,100%,35%)" stroke-width="0.00635"></path>
<path d="M1.219 0.502 Q1.144 0.186 0.511 0.153" stroke="hsl(0.0,100%,35%)" stroke-width="0.00317"></path>
<path d="M1.388 0.325 Q1.055 0.088 0.519 0.198" stroke="hsl(0.0,100%,35%)" stroke-width="0.00317"></path>
<path d="M1.388 0.325 Q1.402 0.532 1.809 0.570" stroke="hsl(0.0,100%,35%)" stroke-width="0.00317"></path>
<path d="M1.388 0.325 Q1.444 0.335 1.475 0.310" stroke="hsl(0.0,100%,35%)" stroke-width="0.00317"></path>
<path d="M1.388 0.325 Q1.009 0.219 0.718 0.380" stroke="hsl(0.0,100%,35%)" stroke-width="0.00317"></path>
<path d="M1.388 0.325 Q1.400 0.167 1.095 0.127" stroke="hsl(0.0,100%,35%)" stroke-width="0.00317"></path>
<path d="M1.388 0.325 Q1.430 0.306 1.403 0.282" stroke="hsl(0.0,100%,35%)" stroke-width="0.00317"></path>
<path d="M1.847 0.316 Q1.873 0.359 1.963 0.356" stroke="hsl(60.0,100%,35%)" stroke-width="0.00317"></path>
<path d="M1.847 0.316 Q1.901 0.316 1.912 0.289" stroke="hsl(60.0,100%,35%)" stroke-width="0.00317"></path>
<path d="M1.847 0.316 Q1.807 0.348 1.859 0.374" stroke="hsl(60.0,100%,35%)" stroke-width="0.00317"></path>
<path d="M0.488 0.333 Q0.471 0.186 0.181 0.162" stroke="hsl(0.0,100%,35%)" stroke-width="0.00317"></path>
<path d="M0.488 0.333 Q0.509 0.400 0.644 0.404" stroke="hsl(0.0,100%,35%)" stroke-width="0.00317"></path>
<path d="M0.488 0.333 Q0.444 0.370 0.507 0.400" stroke="hsl(0.0,100%,35%)" stroke-width="0.01270"></path>
<path d="M0.488 0.333 Q0.430 0.394 0.535 0.435" stroke="hsl(0.0,100%,35%)" stroke-width="0.00317"></path>
<path d="M0.488 0.333 Q0.476 0.203 0.219 0.180" stroke="hsl(0.0,100%,35%)" stroke-width="0.00317"></path>
<path d="M0.488 0.333 Q0.565 0.403 0.718 0.380" stroke="hsl(0.0,100%,35%)" stroke-width="0.00635"></path>
<path d="M0.891 0.043 Q0.892 0.058 0.922 0.061" stroke="hsl(300.0,100%,35%)" stroke-width="0.00317"></path>
<path d="M0.891 0.043 Q0.837 0.069 0.874 0.101" stroke="hsl(300.0,100%,35%)" stroke-width="0.00635"></path>
<path d="M0.891 0.043 Q0.954 0.054 0.988 0.025" stroke="hsl(300.0,100%,35%)" stroke-width="0.00317"></path>
<path d="M1.203 0.186 Q1.039 0.181 0.995 0.260" stroke="hsl(0.0,100%,35%)" stroke-width="0.00317"></path>
<path d="M1.203 0.186 Q1.102 0.166 1.041 0.211" stroke="hsl(0.0,100%,35%)" stroke-width="0.00317"></path>
<path d="M1.203 0.186 Q0.488 0.160 0.281 0.503" stroke="hsl(0.0,100%,35%)" stroke-width="0.00317"></path>
</g>
<text x="0.631" y="0.238" font-size="0.030314" fill="hsl(0.0,100%,20%)">adrian.ratiu</text>
<text x="0.809" y="0.272" font-size="0.024384" fill="hsl(0.0,100%,20%)">gbiv</text>
<text x="0.519" y="0.190" font-size="0.016440" fill="hsl(0.0,100%,20%)">jorgelo</text>
<text x="0.458" y="0.159" font-size="0.010398" fill="hsl(0.0,100%,20%)">jeffxu</text>
<text x="0.511" y="0.145" font-size="0.014704" fill="hsl(0.0,100%,20%)">rborzello</text>
<text x="1.867" y="0.631" font-size="0.012734" fill="hsl(0.0,100%,20%)">akhna</text>
<text x="0.737" y="0.172" font-size="0.012734" fill="hsl(0.0,100%,20%)">inglorion</text>
<text x="1.510" y="0.422" font-size="0.020795" fill="hsl(0.0,100%,20%)">weiluanwang</text>
<text x="0.853" y="0.607" font-size="0.035260" fill="hsl(0.0,100%,20%)">allenshihmc</text>
<text x="0.686" y="0.663" font-size="0.010398" fill="hsl(0.0,100%,20%)">ckclark</text>
<text x="0.869" y="0.765" font-size="0.029409" fill="hsl(0.0,100%,20%)">wyuang</text>
<text x="1.472" y="0.650" font-size="0.033692" fill="hsl(0.0,100%,20%)">jeffulin</text>
<text x="0.718" y="0.370" font-size="0.019452" fill="hsl(0.0,100%,20%)">hidehiko</text>
<text x="1.358" y="0.829" font-size="0.020795" fill="hsl(0.0,100%,20%)">gwendal</text>
<text x="1.677" y="0.813" font-size="0.024384" fill="hsl(60.0,100%,20%)">andrewlassalle</text>
<text x="1.683" y="0.919" font-size="0.019452" fill="hsl(60.0,100%,20%)">madhavadas</text>
<text x="1.863" y="0.880" font-size="0.010398" fill="hsl(60.0,100%,20%)">danielwinkler</text>
<text x="1.919" y="0.731" font-size="0.022056" fill="hsl(60.0,100%,20%)">troywang</text>
<text x="1.832" y="0.786" font-size="0.010398" fill="hsl(60.0,100%,20%)">ejcaruso</text>
<text x="1.872" y="0.887" font-size="0.007352" fill="hsl(60.0,100%,20%)">rmao</text>
<text x="0.674" y="0.062" font-size="0.022056" fill="hsl(60.0,100%,20%)">kimjae</text>
<text x="1.357" y="0.190" font-size="0.016440" fill="hsl(120.0,100%,20%)">bmgordon</text>
<text x="1.371" y="0.066" font-size="0.010398" fill="hsl(120.0,100%,20%)">nmuggli</text>
<text x="1.552" y="0.217" font-size="0.010398" fill="hsl(120.0,100%,20%)">aaronmassey</text>
<text x="1.467" y="0.255" font-size="0.007352" fill="hsl(120.0,100%,20%)">pmoy</text>
<text x="0.120" y="0.614" font-size="0.029409" fill="hsl(0.0,100%,20%)">byronlee</text>
<text x="0.305" y="0.679" font-size="0.007352" fill="hsl(0.0,100%,20%)">dennyh</text>
<text x="0.447" y="0.711" font-size="0.007352" fill="hsl(0.0,100%,20%)">jessemcguire</text>
<text x="0.214" y="0.649" font-size="0.007352" fill="hsl(0.0,100%,20%)">momohatt</text>
<text x="0.185" y="0.745" font-size="0.007352" fill="hsl(0.0,100%,20%)">hanlinchen</text>
<text x="0.336" y="0.626" font-size="0.007352" fill="hsl(0.0,100%,20%)">yunkec</text>
<text x="0.313" y="0.723" font-size="0.007352" fill="hsl(0.0,100%,20%)">derekhuang</text>
<text x="0.281" y="0.492" font-size="0.022056" fill="hsl(0.0,100%,20%)">diwux</text>
<text x="0.394" y="0.934" font-size="0.043496" fill="hsl(180.0,100%,20%)">jiejiang</text>
<text x="0.268" y="0.566" font-size="0.012734" fill="hsl(0.0,100%,20%)">mqg</text>
<text x="0.339" y="0.636" font-size="0.007352" fill="hsl(0.0,100%,20%)">accorsi</text>
<text x="0.272" y="0.820" font-size="0.024384" fill="hsl(180.0,100%,20%)">chenzikai</text>
<text x="0.664" y="0.959" font-size="0.050404" fill="hsl(180.0,100%,20%)">hugobenichi</text>
<text x="0.466" y="0.439" font-size="0.010398" fill="hsl(60.0,100%,20%)">toyoshim</text>
<text x="0.583" y="0.575" font-size="0.022056" fill="hsl(0.0,100%,20%)">cuicuiruan</text>
<text x="0.716" y="0.514" font-size="0.012734" fill="hsl(0.0,100%,20%)">jettrink</text>
<text x="1.649" y="0.666" font-size="0.025469" fill="hsl(0.0,100%,20%)">kevinptt</text>
<text x="0.760" y="0.541" font-size="0.007352" fill="hsl(0.0,100%,20%)">slutskii</text>
<text x="0.588" y="0.502" font-size="0.007352" fill="hsl(0.0,100%,20%)">waihong</text>
<text x="0.537" y="0.676" font-size="0.007352" fill="hsl(0.0,100%,20%)">lovisolo</text>
<text x="0.733" y="0.520" font-size="0.007352" fill="hsl(0.0,100%,20%)">rbock</text>
<text x="0.900" y="0.982" font-size="0.014704" fill="hsl(0.0,100%,20%)">denniskempin</text>
<text x="1.046" y="0.991" font-size="0.007352" fill="hsl(0.0,100%,20%)">dverkamp</text>
<text x="0.940" y="0.904" font-size="0.007352" fill="hsl(0.0,100%,20%)">zihanchen</text>
<text x="0.507" y="0.391" font-size="0.018009" fill="hsl(0.0,100%,20%)">drmasquatch</text>
<text x="0.442" y="0.497" font-size="0.007352" fill="hsl(0.0,100%,20%)">mpolzer</text>
<text x="1.789" y="0.092" font-size="0.014704" fill="hsl(0.0,100%,20%)">chharry</text>
<text x="1.041" y="0.205" font-size="0.010398" fill="hsl(0.0,100%,20%)">dihimono</text>
<text x="1.768" y="0.445" font-size="0.018009" fill="hsl(60.0,100%,20%)">eizan</text>
<text x="1.646" y="0.535" font-size="0.007352" fill="hsl(60.0,100%,20%)">curtis.chen</text>
<text x="1.673" y="0.378" font-size="0.007352" fill="hsl(60.0,100%,20%)">sammc</text>
<text x="1.915" y="0.424" font-size="0.010398" fill="hsl(60.0,100%,20%)">puthik</text>
<text x="1.901" y="0.483" font-size="0.007352" fill="hsl(60.0,100%,20%)">glevin</text>
<text x="0.063" y="0.264" font-size="0.028475" fill="hsl(60.0,100%,20%)">fairuzi</text>
<text x="0.199" y="0.112" font-size="0.007352" fill="hsl(60.0,100%,20%)">hctsai</text>
<text x="0.264" y="0.289" font-size="0.028475" fill="hsl(60.0,100%,20%)">yich</text>
<text x="0.063" y="0.358" font-size="0.014704" fill="hsl(60.0,100%,20%)">chingkang</text>
<text x="0.131" y="0.320" font-size="0.010398" fill="hsl(60.0,100%,20%)">nurlitadf</text>
<text x="0.274" y="0.373" font-size="0.027509" fill="hsl(60.0,100%,20%)">hcyang</text>
<text x="0.266" y="0.090" font-size="0.007352" fill="hsl(60.0,100%,20%)">njrafi</text>
<text x="1.203" y="0.682" font-size="0.025469" fill="hsl(240.0,100%,20%)">fsammoura</text>
<text x="1.334" y="0.589" font-size="0.019452" fill="hsl(240.0,100%,20%)">tomhughes</text>
<text x="1.073" y="0.576" font-size="0.014704" fill="hsl(240.0,100%,20%)">yycheng</text>
<text x="1.167" y="0.622" font-size="0.007352" fill="hsl(240.0,100%,20%)">jbettis</text>
<text x="0.931" y="0.251" font-size="0.007352" fill="hsl(0.0,100%,20%)">bmbm</text>
<text x="0.862" y="0.163" font-size="0.007352" fill="hsl(0.0,100%,20%)">ajordanr</text>
<text x="0.863" y="0.207" font-size="0.007352" fill="hsl(0.0,100%,20%)">xcl</text>
<text x="1.000" y="0.271" font-size="0.010398" fill="hsl(180.0,100%,20%)">norvez</text>
<text x="1.462" y="0.876" font-size="0.010398" fill="hsl(0.0,100%,20%)">chenghaoyang</text>
<text x="1.809" y="0.558" font-size="0.024384" fill="hsl(0.0,100%,20%)">sarthakkukreti</text>
<text x="1.963" y="0.351" font-size="0.010398" fill="hsl(60.0,100%,20%)">khmel</text>
<text x="1.556" y="0.325" font-size="0.010398" fill="hsl(0.0,100%,20%)">akahuang</text>
<text x="0.631" y="0.840" font-size="0.035260" fill="hsl(180.0,100%,20%)">jasongustaman</text>
<text x="0.757" y="0.431" font-size="0.016440" fill="hsl(180.0,100%,20%)">matthewmwang</text>
<text x="0.036" y="0.502" font-size="0.019452" fill="hsl(60.0,100%,20%)">jadmanski</text>
<text x="0.151" y="0.515" font-size="0.012734" fill="hsl(60.0,100%,20%)">hardikgoyal</text>
<text x="0.036" y="0.419" font-size="0.010398" fill="hsl(60.0,100%,20%)">lziest</text>
<text x="0.070" y="0.393" font-size="0.007352" fill="hsl(60.0,100%,20%)">thomascedeno</text>
<text x="0.566" y="0.725" font-size="0.007352" fill="hsl(180.0,100%,20%)">mwoj</text>
<text x="1.331" y="0.721" font-size="0.007352" fill="hsl(0.0,100%,20%)">andreaorru</text>
<text x="1.554" y="0.079" font-size="0.022056" fill="hsl(0.0,100%,20%)">vraheja</text>
<text x="0.845" y="0.156" font-size="0.010398" fill="hsl(60.0,100%,20%)">yuanpengni</text>
<text x="0.827" y="0.112" font-size="0.007352" fill="hsl(60.0,100%,20%)">allenwebb</text>
<text x="1.424" y="0.412" font-size="0.012734" fill="hsl(60.0,100%,20%)">tinghaolin</text>
<text x="0.465" y="0.071" font-size="0.007352" fill="hsl(60.0,100%,20%)">joaquinmarquez</text>
<text x="1.565" y="0.905" font-size="0.007352" fill="hsl(60.0,100%,20%)">aleksandermj</text>
<text x="0.705" y="0.460" font-size="0.007352" fill="hsl(180.0,100%,20%)">druth</text>
<text x="1.934" y="0.845" font-size="0.012734" fill="hsl(0.0,100%,20%)">motorman</text>
<text x="1.095" y="0.116" font-size="0.023250" fill="hsl(60.0,100%,20%)">vapier</text>
<text x="1.854" y="0.175" font-size="0.026509" fill="hsl(0.0,100%,20%)">ndureus</text>
<text x="1.807" y="0.267" font-size="0.010398" fill="hsl(0.0,100%,20%)">ballway</text>
<text x="1.954" y="0.277" font-size="0.012734" fill="hsl(0.0,100%,20%)">jiaozhou</text>
<text x="1.719" y="0.186" font-size="0.007352" fill="hsl(0.0,100%,20%)">ptf</text>
<text x="1.664" y="0.125" font-size="0.007352" fill="hsl(0.0,100%,20%)">howardchung</text>
<text x="1.669" y="0.200" font-size="0.007352" fill="hsl(0.0,100%,20%)">josephsussman</text>
<text x="0.988" y="0.448" font-size="0.035260" fill="hsl(0.0,100%,20%)">jefferymiller</text>
<text x="1.707" y="0.243" font-size="0.007352" fill="hsl(0.0,100%,20%)">apusaka</text>
<text x="1.647" y="0.296" font-size="0.016440" fill="hsl(0.0,100%,20%)">neis</text>
<text x="1.802" y="0.294" font-size="0.007352" fill="hsl(0.0,100%,20%)">granaghan</text>
<text x="1.577" y="0.138" font-size="0.012734" fill="hsl(0.0,100%,20%)">zuan</text>
<text x="1.166" y="0.349" font-size="0.050937" fill="hsl(0.0,100%,20%)">nicholasbishop</text>
<text x="1.180" y="0.557" font-size="0.012734" fill="hsl(0.0,100%,20%)">justinoue</text>
<text x="1.004" y="0.519" font-size="0.007352" fill="hsl(0.0,100%,20%)">aashay</text>
<text x="1.219" y="0.481" font-size="0.041590" fill="hsl(0.0,100%,20%)">tbrandston</text>
<text x="1.139" y="0.216" font-size="0.020795" fill="hsl(0.0,100%,20%)">andrebraga</text>
<text x="1.388" y="0.316" font-size="0.018009" fill="hsl(0.0,100%,20%)">semenzato</text>
<text x="1.475" y="0.306" font-size="0.007352" fill="hsl(0.0,100%,20%)">glaznev</text>
<text x="1.403" y="0.277" font-size="0.010398" fill="hsl(0.0,100%,20%)">xiyuan</text>
<text x="1.847" y="0.310" font-size="0.012734" fill="hsl(60.0,100%,20%)">shvm</text>
<text x="1.912" y="0.285" font-size="0.007352" fill="hsl(60.0,100%,20%)">pbond</text>
<text x="1.859" y="0.370" font-size="0.007352" fill="hsl(60.0,100%,20%)">sbykov</text>
<text x="0.535" y="0.430" font-size="0.010398" fill="hsl(0.0,100%,20%)">dtor</text>
<text x="1.937" y="0.685" font-size="0.007352" fill="hsl(60.0,100%,20%)">tfiga</text>
<text x="1.817" y="0.687" font-size="0.007352" fill="hsl(60.0,100%,20%)">nsinghal</text>
<text x="0.488" y="0.321" font-size="0.023250" fill="hsl(0.0,100%,20%)">uekawa</text>
<text x="0.181" y="0.158" font-size="0.007352" fill="hsl(0.0,100%,20%)">morg</text>
<text x="0.644" y="0.400" font-size="0.007352" fill="hsl(0.0,100%,20%)">chibar</text>
<text x="0.219" y="0.177" font-size="0.007352" fill="hsl(0.0,100%,20%)">yuanyaogoog</text>
<text x="1.029" y="0.046" font-size="0.007352" fill="hsl(0.0,100%,20%)">saklein</text>
<text x="1.186" y="0.013" font-size="0.010398" fill="hsl(0.0,100%,20%)">tbain</text>
<text x="1.286" y="0.104" font-size="0.007352" fill="hsl(60.0,100%,20%)">gcontreras</text>
<text x="0.891" y="0.036" font-size="0.014704" fill="hsl(300.0,100%,20%)">vovoy</text>
<text x="0.922" y="0.057" font-size="0.007352" fill="hsl(300.0,100%,20%)">kawasin</text>
<text x="0.874" y="0.095" font-size="0.010398" fill="hsl(300.0,100%,20%)">chinglinyu</text>
<text x="0.988" y="0.022" font-size="0.007352" fill="hsl(300.0,100%,20%)">stevensd</text>
<text x="1.359" y="0.040" font-size="0.007352" fill="hsl(0.0,100%,20%)">junis</text>
<text x="1.356" y="0.091" font-size="0.007352" fill="hsl(0.0,100%,20%)">jasonling</text>
<text x="1.310" y="0.035" font-size="0.007352" fill="hsl(0.0,100%,20%)">yaohuali</text>
<text x="1.451" y="0.029" font-size="0.007352" fill="hsl(0.0,100%,20%)">sukhomlinov</text>
<text x="1.405" y="0.431" font-size="0.007352" fill="hsl(0.0,100%,20%)">fdegros</text>
<text x="1.547" y="0.365" font-size="0.007352" fill="hsl(0.0,100%,20%)">alanlxl</text>
<text x="1.203" y="0.179" font-size="0.012734" fill="hsl(0.0,100%,20%)">yoshiki</text>
<text x="0.995" y="0.257" font-size="0.007352" fill="hsl(0.0,100%,20%)">chungsheng</text>
</svg>
