<svg width="4000" height="2000" viewBox="-0.025 -0.025 2.05 1.05" xmlns="http://www.w3.org/2000/svg">
  <style>
    path {
      fill: none;
      stroke-linecap: round;
      stroke-opacity: 0.4;
    }

    text {
      text-anchor: middle;
      alignment-baseline: hanging;
    }
  </style>
  <g opacity="0.4">
<path d="M1.207 0.263 Q1.394 0.169 1.250 0.057" stroke="hsl(0.0,100%,35%)" stroke-width="0.01930"></path>
<path d="M1.207 0.263 Q1.452 0.218 1.417 0.088" stroke="hsl(0.0,100%,35%)" stroke-width="0.01930"></path>
<path d="M1.207 0.263 Q1.030 0.641 1.727 0.810" stroke="hsl(0.0,100%,35%)" stroke-width="0.01930"></path>
<path d="M0.423 0.698 Q0.522 0.547 0.251 0.466" stroke="hsl(90.0,100%,35%)" stroke-width="0.00965"></path>
<path d="M0.423 0.698 Q0.691 0.581 0.523 0.424" stroke="hsl(90.0,100%,35%)" stroke-width="0.00965"></path>
<path d="M0.423 0.698 Q0.347 0.642 0.223 0.667" stroke="hsl(90.0,100%,35%)" stroke-width="0.01930"></path>
<path d="M0.423 0.698 Q0.498 0.598 0.320 0.540" stroke="hsl(90.0,100%,35%)" stroke-width="0.00965"></path>
<path d="M0.423 0.698 Q0.395 0.584 0.168 0.573" stroke="hsl(90.0,100%,35%)" stroke-width="0.00965"></path>
<path d="M0.678 0.727 Q0.930 0.705 0.943 0.578" stroke="hsl(90.0,100%,35%)" stroke-width="0.00965"></path>
<path d="M0.678 0.727 Q0.696 0.968 1.169 1.012" stroke="hsl(90.0,100%,35%)" stroke-width="0.00965"></path>
<path d="M0.678 0.727 Q0.574 0.661 0.423 0.698" stroke="hsl(90.0,100%,35%)" stroke-width="0.01930"></path>
<path d="M0.678 0.727 Q0.441 0.723 0.382 0.838" stroke="hsl(90.0,100%,35%)" stroke-width="0.00965"></path>
<path d="M0.678 0.727 Q0.827 0.637 0.684 0.545" stroke="hsl(90.0,100%,35%)" stroke-width="0.00965"></path>
<path d="M0.678 0.727 Q0.649 0.562 0.320 0.540" stroke="hsl(90.0,100%,35%)" stroke-width="0.00965"></path>
<path d="M0.678 0.727 Q0.315 0.660 0.104 0.822" stroke="hsl(90.0,100%,35%)" stroke-width="0.00965"></path>
<path d="M0.104 0.822 Q0.062 0.872 0.150 0.904" stroke="hsl(90.0,100%,35%)" stroke-width="0.00965"></path>
<path d="M0.104 0.822 Q0.153 0.894 0.305 0.886" stroke="hsl(90.0,100%,35%)" stroke-width="0.00965"></path>
<path d="M0.104 0.822 Q0.438 0.724 0.320 0.540" stroke="hsl(90.0,100%,35%)" stroke-width="0.00965"></path>
<path d="M0.104 0.822 Q0.153 0.760 0.042 0.723" stroke="hsl(90.0,100%,35%)" stroke-width="0.00965"></path>
<path d="M1.008 0.148 Q0.859 0.036 0.608 0.084" stroke="hsl(180.0,100%,35%)" stroke-width="0.00965"></path>
<path d="M1.008 0.148 Q0.771 0.100 0.625 0.204" stroke="hsl(180.0,100%,35%)" stroke-width="0.00965"></path>
<path d="M1.008 0.148 Q0.827 0.190 0.870 0.288" stroke="hsl(180.0,100%,35%)" stroke-width="0.00965"></path>
<path d="M1.511 0.983 Q1.496 0.866 1.264 0.847" stroke="hsl(270.0,100%,35%)" stroke-width="0.00965"></path>
<path d="M1.511 0.983 Q1.619 0.907 1.493 0.837" stroke="hsl(270.0,100%,35%)" stroke-width="0.01930"></path>
<path d="M1.511 0.983 Q1.477 0.839 1.187 0.823" stroke="hsl(270.0,100%,35%)" stroke-width="0.00965"></path>
<path d="M1.511 0.983 Q1.404 0.826 1.074 0.844" stroke="hsl(270.0,100%,35%)" stroke-width="0.00965"></path>
<path d="M1.511 0.983 Q1.660 0.879 1.490 0.783" stroke="hsl(270.0,100%,35%)" stroke-width="0.00965"></path>
<path d="M1.511 0.983 Q1.602 0.801 1.266 0.716" stroke="hsl(270.0,100%,35%)" stroke-width="0.00965"></path>
<path d="M1.511 0.983 Q1.758 0.940 1.727 0.810" stroke="hsl(270.0,100%,35%)" stroke-width="0.01930"></path>
<path d="M1.511 0.983 Q2.213 0.645 1.706 0.228" stroke="hsl(270.0,100%,35%)" stroke-width="0.00965"></path>
<path d="M1.511 0.983 Q1.389 0.749 0.905 0.757" stroke="hsl(270.0,100%,35%)" stroke-width="0.00965"></path>
<path d="M1.511 0.983 Q1.329 0.812 0.954 0.863" stroke="hsl(270.0,100%,35%)" stroke-width="0.00965"></path>
<path d="M1.511 0.983 Q1.196 0.623 0.423 0.698" stroke="hsl(270.0,100%,35%)" stroke-width="0.00965"></path>
<path d="M1.511 0.983 Q1.352 0.925 1.203 0.990" stroke="hsl(270.0,100%,35%)" stroke-width="0.03860"></path>
<path d="M1.511 0.983 Q1.744 0.864 1.562 0.724" stroke="hsl(270.0,100%,35%)" stroke-width="0.00965"></path>
<path d="M1.511 0.983 Q1.317 0.929 1.169 1.012" stroke="hsl(270.0,100%,35%)" stroke-width="0.00965"></path>
<path d="M1.511 0.983 Q1.454 0.878 1.237 0.883" stroke="hsl(270.0,100%,35%)" stroke-width="0.00965"></path>
<path d="M1.511 0.983 Q1.300 0.689 0.678 0.727" stroke="hsl(270.0,100%,35%)" stroke-width="0.00965"></path>
<path d="M1.511 0.983 Q1.500 0.885 1.306 0.869" stroke="hsl(270.0,100%,35%)" stroke-width="0.01930"></path>
<path d="M1.511 0.983 Q1.728 0.931 1.674 0.814" stroke="hsl(270.0,100%,35%)" stroke-width="0.00965"></path>
<path d="M1.511 0.983 Q1.552 0.667 0.943 0.578" stroke="hsl(270.0,100%,35%)" stroke-width="0.00965"></path>
<path d="M1.511 0.983 Q1.462 0.899 1.288 0.905" stroke="hsl(270.0,100%,35%)" stroke-width="0.00965"></path>
<path d="M1.511 0.983 Q1.445 0.784 1.042 0.772" stroke="hsl(270.0,100%,35%)" stroke-width="0.00965"></path>
<path d="M1.511 0.983 Q1.222 0.776 0.755 0.872" stroke="hsl(270.0,100%,35%)" stroke-width="0.00965"></path>
<path d="M1.511 0.983 Q1.271 0.523 0.320 0.540" stroke="hsl(270.0,100%,35%)" stroke-width="0.00965"></path>
<path d="M1.511 0.983 Q1.120 0.568 0.223 0.667" stroke="hsl(270.0,100%,35%)" stroke-width="0.00965"></path>
<path d="M0.167 0.343 Q0.086 0.472 0.320 0.540" stroke="hsl(90.0,100%,35%)" stroke-width="0.00965"></path>
<path d="M0.167 0.343 Q0.320 0.372 0.410 0.304" stroke="hsl(90.0,100%,35%)" stroke-width="0.00965"></path>
<path d="M0.167 0.343 Q0.435 0.855 1.493 0.837" stroke="hsl(90.0,100%,35%)" stroke-width="0.00965"></path>
<path d="M0.167 0.343 Q0.315 0.834 1.306 0.869" stroke="hsl(90.0,100%,35%)" stroke-width="0.00965"></path>
<path d="M0.567 0.946 Q1.117 1.077 1.493 0.837" stroke="hsl(270.0,100%,35%)" stroke-width="0.00965"></path>
<path d="M0.567 0.946 Q0.887 0.919 0.905 0.757" stroke="hsl(270.0,100%,35%)" stroke-width="0.00965"></path>
<path d="M0.567 0.946 Q0.758 0.985 0.876 0.900" stroke="hsl(270.0,100%,35%)" stroke-width="0.00965"></path>
<path d="M0.567 0.946 Q0.733 0.962 0.800 0.884" stroke="hsl(270.0,100%,35%)" stroke-width="0.00965"></path>
<path d="M0.567 0.946 Q0.710 0.892 0.636 0.811" stroke="hsl(270.0,100%,35%)" stroke-width="0.00965"></path>
<path d="M0.567 0.946 Q1.711 0.815 1.706 0.228" stroke="hsl(270.0,100%,35%)" stroke-width="0.00965"></path>
<path d="M0.567 0.946 Q0.789 0.911 0.769 0.795" stroke="hsl(270.0,100%,35%)" stroke-width="0.00965"></path>
<path d="M0.567 0.946 Q0.720 0.947 0.755 0.872" stroke="hsl(270.0,100%,35%)" stroke-width="0.00965"></path>
<path d="M0.567 0.946 Q0.484 0.863 0.305 0.886" stroke="hsl(270.0,100%,35%)" stroke-width="0.00965"></path>
<path d="M0.567 0.946 Q0.827 0.982 0.954 0.863" stroke="hsl(270.0,100%,35%)" stroke-width="0.00965"></path>
<path d="M1.668 0.374 Q1.803 0.309 1.706 0.228" stroke="hsl(270.0,100%,35%)" stroke-width="0.00965"></path>
<path d="M1.668 0.374 Q1.655 0.301 1.510 0.292" stroke="hsl(270.0,100%,35%)" stroke-width="0.00965"></path>
<path d="M1.668 0.374 Q1.497 0.348 1.408 0.425" stroke="hsl(270.0,100%,35%)" stroke-width="0.00965"></path>
</g>
<text x="1.207" y="0.243" font-size="0.040269" fill="hsl(0.0,100%,20%)">apusaka</text>
<text x="1.250" y="0.045" font-size="0.023250" fill="hsl(0.0,100%,20%)">chharry</text>
<text x="1.417" y="0.077" font-size="0.023250" fill="hsl(0.0,100%,20%)">ndureus</text>
<text x="1.727" y="0.793" font-size="0.032880" fill="hsl(0.0,100%,20%)">tbrandston</text>
<text x="0.423" y="0.673" font-size="0.049320" fill="hsl(90.0,100%,20%)">diwux</text>
<text x="0.251" y="0.458" font-size="0.016440" fill="hsl(90.0,100%,20%)">zihanchen</text>
<text x="0.523" y="0.416" font-size="0.016440" fill="hsl(90.0,100%,20%)">hanlinchen</text>
<text x="0.223" y="0.653" font-size="0.028475" fill="hsl(90.0,100%,20%)">alexbn</text>
<text x="0.320" y="0.521" font-size="0.036761" fill="hsl(90.0,100%,20%)">hcyang</text>
<text x="0.168" y="0.565" font-size="0.016440" fill="hsl(90.0,100%,20%)">vraheja</text>
<text x="0.678" y="0.702" font-size="0.049320" fill="hsl(90.0,100%,20%)">hidehiko</text>
<text x="0.943" y="0.566" font-size="0.023250" fill="hsl(90.0,100%,20%)">benreich</text>
<text x="1.169" y="1.001" font-size="0.023250" fill="hsl(90.0,100%,20%)">aidazolic</text>
<text x="0.382" y="0.830" font-size="0.016440" fill="hsl(90.0,100%,20%)">kevinptt</text>
<text x="0.684" y="0.537" font-size="0.016440" fill="hsl(90.0,100%,20%)">allenshihmc</text>
<text x="0.104" y="0.803" font-size="0.036761" fill="hsl(90.0,100%,20%)">vapier</text>
<text x="1.008" y="0.134" font-size="0.028475" fill="hsl(180.0,100%,20%)">jbettis</text>
<text x="0.608" y="0.076" font-size="0.016440" fill="hsl(180.0,100%,20%)">chenyian</text>
<text x="0.625" y="0.196" font-size="0.016440" fill="hsl(180.0,100%,20%)">jpmurphy</text>
<text x="0.870" y="0.279" font-size="0.016440" fill="hsl(180.0,100%,20%)">nhebert</text>
<text x="1.511" y="0.938" font-size="0.090045" fill="hsl(270.0,100%,20%)">jeffulin</text>
<text x="1.264" y="0.839" font-size="0.016440" fill="hsl(270.0,100%,20%)">puthik</text>
<text x="1.493" y="0.821" font-size="0.032880" fill="hsl(270.0,100%,20%)">ejcaruso</text>
<text x="1.187" y="0.815" font-size="0.016440" fill="hsl(270.0,100%,20%)">fsandrade</text>
<text x="1.074" y="0.836" font-size="0.016440" fill="hsl(270.0,100%,20%)">jorgelo</text>
<text x="1.490" y="0.775" font-size="0.016440" fill="hsl(270.0,100%,20%)">apronin</text>
<text x="1.266" y="0.708" font-size="0.016440" fill="hsl(270.0,100%,20%)">norvez</text>
<text x="1.706" y="0.214" font-size="0.028475" fill="hsl(270.0,100%,20%)">bgeffon</text>
<text x="0.905" y="0.745" font-size="0.023250" fill="hsl(270.0,100%,20%)">hashimoto</text>
<text x="0.954" y="0.851" font-size="0.023250" fill="hsl(270.0,100%,20%)">bmgordon</text>
<text x="1.203" y="0.973" font-size="0.032880" fill="hsl(270.0,100%,20%)">hugobenichi</text>
<text x="1.562" y="0.716" font-size="0.016440" fill="hsl(270.0,100%,20%)">jintaolin</text>
<text x="1.237" y="0.875" font-size="0.016440" fill="hsl(270.0,100%,20%)">chenghaoyang</text>
<text x="1.306" y="0.855" font-size="0.028475" fill="hsl(270.0,100%,20%)">troywang</text>
<text x="1.674" y="0.806" font-size="0.016440" fill="hsl(270.0,100%,20%)">wyuang</text>
<text x="1.288" y="0.897" font-size="0.016440" fill="hsl(270.0,100%,20%)">fdegros</text>
<text x="1.042" y="0.764" font-size="0.016440" fill="hsl(270.0,100%,20%)">thomascedeno</text>
<text x="0.755" y="0.860" font-size="0.023250" fill="hsl(270.0,100%,20%)">byronlee</text>
<text x="0.167" y="0.326" font-size="0.032880" fill="hsl(90.0,100%,20%)">neis</text>
<text x="0.410" y="0.296" font-size="0.016440" fill="hsl(90.0,100%,20%)">zuan</text>
<text x="0.567" y="0.920" font-size="0.051988" fill="hsl(270.0,100%,20%)">nmuggli</text>
<text x="0.876" y="0.892" font-size="0.016440" fill="hsl(270.0,100%,20%)">rcy</text>
<text x="0.800" y="0.876" font-size="0.016440" fill="hsl(270.0,100%,20%)">dtor</text>
<text x="0.636" y="0.803" font-size="0.016440" fill="hsl(270.0,100%,20%)">jasonling</text>
<text x="0.769" y="0.787" font-size="0.016440" fill="hsl(270.0,100%,20%)">lziest</text>
<text x="0.305" y="0.874" font-size="0.023250" fill="hsl(90.0,100%,20%)">sarthakkukreti</text>
<text x="0.150" y="0.895" font-size="0.016440" fill="hsl(90.0,100%,20%)">lovisolo</text>
<text x="0.042" y="0.714" font-size="0.016440" fill="hsl(90.0,100%,20%)">gcontreras</text>
<text x="1.668" y="0.360" font-size="0.028475" fill="hsl(270.0,100%,20%)">weiluanwang</text>
<text x="1.510" y="0.283" font-size="0.016440" fill="hsl(270.0,100%,20%)">granaghan</text>
<text x="1.408" y="0.417" font-size="0.016440" fill="hsl(270.0,100%,20%)">jchinlee</text>
</svg>
