<svg width="4000" height="2000" viewBox="-0.025 -0.025 2.05 1.05" xmlns="http://www.w3.org/2000/svg">
  <style>
    path {
      fill: none;
      stroke-linecap: round;
      stroke-opacity: 0.4;
    }

    text {
      text-anchor: middle;
      alignment-baseline: hanging;
    }
  </style>
  <g opacity="0.4">
<path d="M1.965 0.538 Q1.883 0.556 1.901 0.601" stroke="hsl(0.0,100%,35%)" stroke-width="0.00490"></path>
<path d="M1.965 0.538 Q1.933 0.563 1.975 0.584" stroke="hsl(0.0,100%,35%)" stroke-width="0.00490"></path>
<path d="M1.965 0.538 Q1.465 0.511 1.303 0.749" stroke="hsl(0.0,100%,35%)" stroke-width="0.00490"></path>
<path d="M1.965 0.538 Q1.973 0.477 1.857 0.460" stroke="hsl(0.0,100%,35%)" stroke-width="0.00979"></path>
<path d="M1.303 0.749 Q1.647 0.721 1.667 0.548" stroke="hsl(0.0,100%,35%)" stroke-width="0.00490"></path>
<path d="M1.303 0.749 Q1.152 0.717 1.054 0.784" stroke="hsl(0.0,100%,35%)" stroke-width="0.01469"></path>
<path d="M1.303 0.749 Q1.326 0.545 0.932 0.489" stroke="hsl(0.0,100%,35%)" stroke-width="0.00490"></path>
<path d="M1.303 0.749 Q1.803 0.776 1.965 0.538" stroke="hsl(0.0,100%,35%)" stroke-width="0.00490"></path>
<path d="M1.093 0.410 Q0.949 0.418 0.932 0.489" stroke="hsl(45.0,100%,35%)" stroke-width="0.01958"></path>
<path d="M1.093 0.410 Q1.207 0.312 1.042 0.235" stroke="hsl(45.0,100%,35%)" stroke-width="0.00490"></path>
<path d="M1.093 0.410 Q1.435 0.588 1.857 0.460" stroke="hsl(45.0,100%,35%)" stroke-width="0.00979"></path>
<path d="M1.093 0.410 Q1.230 0.403 1.248 0.335" stroke="hsl(45.0,100%,35%)" stroke-width="0.00490"></path>
<path d="M0.712 0.436 Q1.027 0.847 1.898 0.783" stroke="hsl(90.0,100%,35%)" stroke-width="0.00490"></path>
<path d="M0.712 0.436 Q0.686 0.428 0.664 0.439" stroke="hsl(90.0,100%,35%)" stroke-width="0.00490"></path>
<path d="M0.712 0.436 Q0.368 0.512 0.440 0.696" stroke="hsl(90.0,100%,35%)" stroke-width="0.00490"></path>
<path d="M0.712 0.436 Q1.100 0.683 1.667 0.548" stroke="hsl(90.0,100%,35%)" stroke-width="0.00490"></path>
<path d="M1.372 0.357 Q1.493 0.392 1.588 0.341" stroke="hsl(135.0,100%,35%)" stroke-width="0.00490"></path>
<path d="M1.372 0.357 Q1.610 0.417 1.780 0.314" stroke="hsl(135.0,100%,35%)" stroke-width="0.00490"></path>
<path d="M1.372 0.357 Q1.630 0.325 1.625 0.192" stroke="hsl(135.0,100%,35%)" stroke-width="0.00490"></path>
<path d="M1.588 0.341 Q1.467 0.305 1.372 0.357" stroke="hsl(135.0,100%,35%)" stroke-width="0.00979"></path>
<path d="M1.588 0.341 Q1.583 0.239 1.385 0.220" stroke="hsl(135.0,100%,35%)" stroke-width="0.00490"></path>
<path d="M1.588 0.341 Q1.726 0.273 1.625 0.192" stroke="hsl(135.0,100%,35%)" stroke-width="0.01469"></path>
<path d="M1.588 0.341 Q1.705 0.366 1.780 0.314" stroke="hsl(135.0,100%,35%)" stroke-width="0.00979"></path>
<path d="M1.814 0.565 Q1.022 0.356 0.440 0.696" stroke="hsl(90.0,100%,35%)" stroke-width="0.00490"></path>
<path d="M1.814 0.565 Q1.754 0.527 1.667 0.548" stroke="hsl(90.0,100%,35%)" stroke-width="0.00490"></path>
<path d="M1.814 0.565 Q1.651 0.540 1.567 0.614" stroke="hsl(90.0,100%,35%)" stroke-width="0.00490"></path>
<path d="M1.088 0.908 Q1.171 0.839 1.054 0.784" stroke="hsl(0.0,100%,35%)" stroke-width="0.01469"></path>
<path d="M1.088 0.908 Q1.253 0.927 1.326 0.851" stroke="hsl(0.0,100%,35%)" stroke-width="0.00490"></path>
<path d="M1.088 0.908 Q1.213 0.931 1.286 0.875" stroke="hsl(0.0,100%,35%)" stroke-width="0.00979"></path>
<path d="M1.088 0.908 Q1.150 0.982 1.308 0.968" stroke="hsl(0.0,100%,35%)" stroke-width="0.01469"></path>
<path d="M1.089 0.558 Q1.065 0.492 0.932 0.489" stroke="hsl(45.0,100%,35%)" stroke-width="0.00979"></path>
<path d="M1.089 0.558 Q0.812 0.484 0.607 0.603" stroke="hsl(45.0,100%,35%)" stroke-width="0.01469"></path>
<path d="M1.089 0.558 Q1.129 0.631 1.280 0.627" stroke="hsl(45.0,100%,35%)" stroke-width="0.00490"></path>
<path d="M0.607 0.603 Q0.502 0.436 0.153 0.450" stroke="hsl(45.0,100%,35%)" stroke-width="0.03427"></path>
<path d="M0.607 0.603 Q0.860 0.611 0.932 0.489" stroke="hsl(45.0,100%,35%)" stroke-width="0.01958"></path>
<path d="M0.607 0.603 Q0.616 0.501 0.418 0.474" stroke="hsl(45.0,100%,35%)" stroke-width="0.02448"></path>
<path d="M0.607 0.603 Q0.505 0.607 0.490 0.658" stroke="hsl(45.0,100%,35%)" stroke-width="0.01469"></path>
<path d="M0.607 0.603 Q0.551 0.662 0.654 0.703" stroke="hsl(45.0,100%,35%)" stroke-width="0.00490"></path>
<path d="M0.607 0.603 Q1.039 0.344 0.628 0.077" stroke="hsl(45.0,100%,35%)" stroke-width="0.00490"></path>
<path d="M0.607 0.603 Q0.419 0.541 0.258 0.619" stroke="hsl(45.0,100%,35%)" stroke-width="0.00490"></path>
<path d="M0.607 0.603 Q0.513 0.617 0.519 0.665" stroke="hsl(45.0,100%,35%)" stroke-width="0.00490"></path>
<path d="M1.152 0.642 Q1.182 0.634 1.171 0.617" stroke="hsl(45.0,100%,35%)" stroke-width="0.00490"></path>
<path d="M1.152 0.642 Q1.386 0.446 1.053 0.288" stroke="hsl(45.0,100%,35%)" stroke-width="0.00490"></path>
<path d="M1.152 0.642 Q1.106 0.652 1.114 0.676" stroke="hsl(45.0,100%,35%)" stroke-width="0.00490"></path>
<path d="M1.053 0.288 Q0.578 0.357 0.607 0.603" stroke="hsl(45.0,100%,35%)" stroke-width="0.01469"></path>
<path d="M1.053 0.288 Q1.156 0.317 1.236 0.273" stroke="hsl(45.0,100%,35%)" stroke-width="0.00490"></path>
<path d="M1.053 0.288 Q0.474 0.189 0.153 0.450" stroke="hsl(45.0,100%,35%)" stroke-width="0.00490"></path>
<path d="M0.761 0.320 Q0.548 0.509 0.870 0.655" stroke="hsl(180.0,100%,35%)" stroke-width="0.00490"></path>
<path d="M0.761 0.320 Q0.920 0.323 0.961 0.246" stroke="hsl(180.0,100%,35%)" stroke-width="0.00490"></path>
<path d="M0.761 0.320 Q0.757 0.367 0.849 0.380" stroke="hsl(180.0,100%,35%)" stroke-width="0.00490"></path>
<path d="M0.761 0.320 Q0.603 0.514 0.948 0.634" stroke="hsl(180.0,100%,35%)" stroke-width="0.00490"></path>
<path d="M0.948 0.634 Q0.892 0.629 0.870 0.655" stroke="hsl(180.0,100%,35%)" stroke-width="0.00979"></path>
<path d="M0.948 0.634 Q0.991 0.398 0.540 0.325" stroke="hsl(180.0,100%,35%)" stroke-width="0.00490"></path>
<path d="M0.948 0.634 Q0.782 0.647 0.771 0.731" stroke="hsl(180.0,100%,35%)" stroke-width="0.00490"></path>
<path d="M0.948 0.634 Q1.106 0.440 0.761 0.320" stroke="hsl(180.0,100%,35%)" stroke-width="0.00490"></path>
<path d="M1.851 0.160 Q1.865 0.090 1.731 0.067" stroke="hsl(225.0,100%,35%)" stroke-width="0.01469"></path>
<path d="M1.851 0.160 Q1.666 0.134 1.575 0.219" stroke="hsl(225.0,100%,35%)" stroke-width="0.00490"></path>
<path d="M1.851 0.160 Q1.741 0.274 1.938 0.352" stroke="hsl(225.0,100%,35%)" stroke-width="0.01958"></path>
<path d="M1.851 0.160 Q1.716 0.201 1.767 0.276" stroke="hsl(225.0,100%,35%)" stroke-width="0.00490"></path>
<path d="M1.270 0.069 Q1.207 0.139 1.329 0.185" stroke="hsl(0.0,100%,35%)" stroke-width="0.01958"></path>
<path d="M1.270 0.069 Q1.345 0.123 1.466 0.098" stroke="hsl(0.0,100%,35%)" stroke-width="0.02937"></path>
<path d="M1.270 0.069 Q1.265 0.148 1.417 0.168" stroke="hsl(0.0,100%,35%)" stroke-width="0.00979"></path>
<path d="M1.270 0.069 Q1.199 0.181 1.401 0.239" stroke="hsl(0.0,100%,35%)" stroke-width="0.00490"></path>
<path d="M1.270 0.069 Q1.090 0.118 1.145 0.216" stroke="hsl(0.0,100%,35%)" stroke-width="0.00490"></path>
<path d="M1.853 0.670 Q1.786 0.735 1.898 0.783" stroke="hsl(45.0,100%,35%)" stroke-width="0.00490"></path>
<path d="M1.853 0.670 Q1.882 0.220 1.011 0.108" stroke="hsl(45.0,100%,35%)" stroke-width="0.00490"></path>
<path d="M1.853 0.670 Q1.840 0.499 1.503 0.468" stroke="hsl(45.0,100%,35%)" stroke-width="0.00490"></path>
<path d="M1.853 0.670 Q1.705 0.613 1.560 0.673" stroke="hsl(45.0,100%,35%)" stroke-width="0.00490"></path>
<path d="M1.853 0.670 Q1.812 0.622 1.710 0.632" stroke="hsl(45.0,100%,35%)" stroke-width="0.00979"></path>
<path d="M1.853 0.670 Q1.738 0.698 1.767 0.761" stroke="hsl(45.0,100%,35%)" stroke-width="0.00490"></path>
<path d="M1.011 0.108 Q0.492 0.454 1.054 0.784" stroke="hsl(0.0,100%,35%)" stroke-width="0.00490"></path>
<path d="M1.011 0.108 Q0.991 0.197 1.161 0.227" stroke="hsl(0.0,100%,35%)" stroke-width="0.00490"></path>
<path d="M1.011 0.108 Q0.981 0.081 0.922 0.089" stroke="hsl(0.0,100%,35%)" stroke-width="0.00490"></path>
<path d="M1.292 0.510 Q1.431 0.531 1.503 0.468" stroke="hsl(45.0,100%,35%)" stroke-width="0.01958"></path>
<path d="M1.292 0.510 Q1.278 0.553 1.359 0.569" stroke="hsl(45.0,100%,35%)" stroke-width="0.01958"></path>
<path d="M1.292 0.510 Q1.633 0.285 1.270 0.069" stroke="hsl(45.0,100%,35%)" stroke-width="0.00490"></path>
<path d="M1.292 0.510 Q1.708 0.339 1.466 0.098" stroke="hsl(45.0,100%,35%)" stroke-width="0.00490"></path>
<path d="M0.258 0.619 Q1.020 0.866 1.667 0.548" stroke="hsl(90.0,100%,35%)" stroke-width="0.00979"></path>
<path d="M0.258 0.619 Q0.287 0.694 0.440 0.696" stroke="hsl(90.0,100%,35%)" stroke-width="0.05874"></path>
<path d="M0.258 0.619 Q0.325 0.563 0.229 0.518" stroke="hsl(90.0,100%,35%)" stroke-width="0.00979"></path>
<path d="M0.370 0.358 Q0.524 0.294 0.434 0.205" stroke="hsl(180.0,100%,35%)" stroke-width="0.00490"></path>
<path d="M0.370 0.358 Q0.480 0.323 0.436 0.262" stroke="hsl(180.0,100%,35%)" stroke-width="0.00490"></path>
<path d="M0.370 0.358 Q0.596 0.417 0.761 0.320" stroke="hsl(180.0,100%,35%)" stroke-width="0.00979"></path>
<path d="M0.370 0.358 Q0.482 0.376 0.540 0.325" stroke="hsl(180.0,100%,35%)" stroke-width="0.00490"></path>
<path d="M0.370 0.358 Q0.438 0.612 0.948 0.634" stroke="hsl(180.0,100%,35%)" stroke-width="0.00490"></path>
<path d="M1.539 0.778 Q1.292 0.684 1.054 0.784" stroke="hsl(0.0,100%,35%)" stroke-width="0.00979"></path>
<path d="M1.539 0.778 Q1.511 0.811 1.569 0.833" stroke="hsl(0.0,100%,35%)" stroke-width="0.00490"></path>
<path d="M1.539 0.778 Q1.458 0.869 1.616 0.928" stroke="hsl(0.0,100%,35%)" stroke-width="0.00490"></path>
<path d="M1.539 0.778 Q1.901 0.481 1.401 0.239" stroke="hsl(0.0,100%,35%)" stroke-width="0.00490"></path>
<path d="M1.539 0.778 Q1.590 0.894 1.826 0.894" stroke="hsl(0.0,100%,35%)" stroke-width="0.00490"></path>
<path d="M0.316 0.839 Q0.269 0.736 0.058 0.737" stroke="hsl(90.0,100%,35%)" stroke-width="0.00490"></path>
<path d="M0.316 0.839 Q0.492 0.792 0.440 0.696" stroke="hsl(90.0,100%,35%)" stroke-width="0.00490"></path>
<path d="M0.316 0.839 Q1.225 0.964 1.667 0.548" stroke="hsl(90.0,100%,35%)" stroke-width="0.00490"></path>
<path d="M0.132 0.108 Q0.195 0.177 0.344 0.161" stroke="hsl(270.0,100%,35%)" stroke-width="0.00490"></path>
<path d="M0.132 0.108 Q0.170 0.136 0.234 0.124" stroke="hsl(270.0,100%,35%)" stroke-width="0.00490"></path>
<path d="M0.132 0.108 Q0.237 0.105 0.255 0.053" stroke="hsl(270.0,100%,35%)" stroke-width="0.00490"></path>
<path d="M0.520 0.044 Q0.438 0.030 0.392 0.067" stroke="hsl(45.0,100%,35%)" stroke-width="0.00979"></path>
<path d="M0.520 0.044 Q0.548 0.082 0.628 0.077" stroke="hsl(45.0,100%,35%)" stroke-width="0.00490"></path>
<path d="M0.520 0.044 Q0.650 0.082 0.751 0.027" stroke="hsl(45.0,100%,35%)" stroke-width="0.00490"></path>
<path d="M0.418 0.474 Q0.305 0.409 0.153 0.450" stroke="hsl(45.0,100%,35%)" stroke-width="0.03916"></path>
<path d="M0.418 0.474 Q0.409 0.576 0.607 0.603" stroke="hsl(45.0,100%,35%)" stroke-width="0.03916"></path>
<path d="M0.418 0.474 Q0.988 0.537 1.236 0.273" stroke="hsl(45.0,100%,35%)" stroke-width="0.00490"></path>
<path d="M0.775 0.184 Q0.744 0.146 0.663 0.153" stroke="hsl(315.0,100%,35%)" stroke-width="0.00979"></path>
<path d="M0.775 0.184 Q0.896 0.141 0.839 0.073" stroke="hsl(315.0,100%,35%)" stroke-width="0.00490"></path>
<path d="M0.775 0.184 Q0.476 0.095 0.236 0.221" stroke="hsl(315.0,100%,35%)" stroke-width="0.00490"></path>
<path d="M0.207 0.286 Q0.079 0.283 0.046 0.345" stroke="hsl(315.0,100%,35%)" stroke-width="0.00490"></path>
<path d="M0.207 0.286 Q0.124 0.270 0.075 0.307" stroke="hsl(315.0,100%,35%)" stroke-width="0.00490"></path>
<path d="M0.207 0.286 Q0.273 0.259 0.236 0.221" stroke="hsl(315.0,100%,35%)" stroke-width="0.00490"></path>
</g>
<text x="1.965" y="0.525" font-size="0.024681" fill="hsl(0.0,100%,20%)">aaronmassey</text>
<text x="1.901" y="0.596" font-size="0.010076" fill="hsl(0.0,100%,20%)">bryancain</text>
<text x="1.975" y="0.579" font-size="0.010076" fill="hsl(0.0,100%,20%)">pmoy</text>
<text x="1.303" y="0.736" font-size="0.026658" fill="hsl(0.0,100%,20%)">nmuggli</text>
<text x="1.857" y="0.450" font-size="0.020152" fill="hsl(45.0,100%,20%)">bmgordon</text>
<text x="1.093" y="0.396" font-size="0.028499" fill="hsl(45.0,100%,20%)">andreaorru</text>
<text x="0.932" y="0.473" font-size="0.033418" fill="hsl(45.0,100%,20%)">hidehiko</text>
<text x="1.042" y="0.230" font-size="0.010076" fill="hsl(45.0,100%,20%)">alanlxl</text>
<text x="1.248" y="0.330" font-size="0.010076" fill="hsl(45.0,100%,20%)">andrescj</text>
<text x="0.712" y="0.426" font-size="0.020152" fill="hsl(90.0,100%,20%)">andrew.shadura</text>
<text x="1.898" y="0.775" font-size="0.014249" fill="hsl(0.0,100%,20%)">ajordanr</text>
<text x="0.664" y="0.433" font-size="0.010076" fill="hsl(90.0,100%,20%)">akahuang</text>
<text x="0.440" y="0.677" font-size="0.039024" fill="hsl(90.0,100%,20%)">hugobenichi</text>
<text x="1.667" y="0.535" font-size="0.024681" fill="hsl(90.0,100%,20%)">jiejiang</text>
<text x="1.372" y="0.345" font-size="0.022530" fill="hsl(135.0,100%,20%)">andrzejo</text>
<text x="1.588" y="0.325" font-size="0.030228" fill="hsl(135.0,100%,20%)">kaidong</text>
<text x="1.780" y="0.306" font-size="0.017452" fill="hsl(135.0,100%,20%)">matthewmwang</text>
<text x="1.625" y="0.181" font-size="0.020152" fill="hsl(135.0,100%,20%)">norvez</text>
<text x="1.814" y="0.556" font-size="0.017452" fill="hsl(90.0,100%,20%)">arowa</text>
<text x="1.567" y="0.609" font-size="0.010076" fill="hsl(90.0,100%,20%)">jintaolin</text>
<text x="1.088" y="0.893" font-size="0.030228" fill="hsl(0.0,100%,20%)">chensa</text>
<text x="1.054" y="0.768" font-size="0.030228" fill="hsl(0.0,100%,20%)">yich</text>
<text x="1.326" y="0.846" font-size="0.010076" fill="hsl(0.0,100%,20%)">nurlitadf</text>
<text x="1.286" y="0.868" font-size="0.014249" fill="hsl(0.0,100%,20%)">chingtzuchen</text>
<text x="1.308" y="0.960" font-size="0.017452" fill="hsl(0.0,100%,20%)">hcyang</text>
<text x="1.089" y="0.545" font-size="0.024681" fill="hsl(45.0,100%,20%)">chibar</text>
<text x="0.607" y="0.572" font-size="0.061289" fill="hsl(45.0,100%,20%)">uekawa</text>
<text x="1.280" y="0.622" font-size="0.010076" fill="hsl(45.0,100%,20%)">fdegros</text>
<text x="1.152" y="0.634" font-size="0.017452" fill="hsl(45.0,100%,20%)">drmasquatch</text>
<text x="1.171" y="0.612" font-size="0.010076" fill="hsl(45.0,100%,20%)">dtor</text>
<text x="1.053" y="0.276" font-size="0.024681" fill="hsl(45.0,100%,20%)">dverkamp</text>
<text x="1.114" y="0.671" font-size="0.010076" fill="hsl(45.0,100%,20%)">zihanchen</text>
<text x="1.236" y="0.266" font-size="0.014249" fill="hsl(45.0,100%,20%)">allenwebb</text>
<text x="0.153" y="0.430" font-size="0.040303" fill="hsl(45.0,100%,20%)">keiichiw</text>
<text x="0.761" y="0.306" font-size="0.026658" fill="hsl(180.0,100%,20%)">ejcaruso</text>
<text x="0.870" y="0.646" font-size="0.017452" fill="hsl(180.0,100%,20%)">madhavadas</text>
<text x="0.961" y="0.241" font-size="0.010076" fill="hsl(180.0,100%,20%)">puthik</text>
<text x="0.849" y="0.375" font-size="0.010076" fill="hsl(180.0,100%,20%)">danielwinkler</text>
<text x="0.948" y="0.621" font-size="0.026658" fill="hsl(180.0,100%,20%)">rmao</text>
<text x="1.851" y="0.145" font-size="0.030228" fill="hsl(225.0,100%,20%)">greenjustin</text>
<text x="1.731" y="0.058" font-size="0.017452" fill="hsl(225.0,100%,20%)">hiroh</text>
<text x="1.575" y="0.214" font-size="0.010076" fill="hsl(225.0,100%,20%)">bchoobineh</text>
<text x="1.938" y="0.342" font-size="0.020152" fill="hsl(225.0,100%,20%)">frkoenig</text>
<text x="1.767" y="0.271" font-size="0.010076" fill="hsl(225.0,100%,20%)">stevecho</text>
<text x="1.270" y="0.050" font-size="0.039024" fill="hsl(0.0,100%,20%)">gwendal</text>
<text x="1.329" y="0.175" font-size="0.020152" fill="hsl(0.0,100%,20%)">asavery</text>
<text x="1.466" y="0.085" font-size="0.026658" fill="hsl(45.0,100%,20%)">sarthakkukreti</text>
<text x="1.417" y="0.161" font-size="0.014249" fill="hsl(0.0,100%,20%)">apronin</text>
<text x="1.401" y="0.232" font-size="0.014249" fill="hsl(0.0,100%,20%)">kimjae</text>
<text x="1.145" y="0.211" font-size="0.010076" fill="hsl(0.0,100%,20%)">treapking</text>
<text x="1.853" y="0.657" font-size="0.026658" fill="hsl(45.0,100%,20%)">inglorion</text>
<text x="1.011" y="0.098" font-size="0.020152" fill="hsl(0.0,100%,20%)">jeffulin</text>
<text x="1.503" y="0.457" font-size="0.022530" fill="hsl(45.0,100%,20%)">lziest</text>
<text x="1.560" y="0.668" font-size="0.010076" fill="hsl(0.0,100%,20%)">mpolzer</text>
<text x="1.710" y="0.625" font-size="0.014249" fill="hsl(0.0,100%,20%)">nicholasbishop</text>
<text x="1.767" y="0.756" font-size="0.010076" fill="hsl(45.0,100%,20%)">jefferymiller</text>
<text x="1.292" y="0.494" font-size="0.031863" fill="hsl(45.0,100%,20%)">jadmanski</text>
<text x="1.359" y="0.559" font-size="0.020152" fill="hsl(45.0,100%,20%)">hardikgoyal</text>
<text x="0.258" y="0.599" font-size="0.041544" fill="hsl(90.0,100%,20%)">jasongustaman</text>
<text x="0.229" y="0.510" font-size="0.014249" fill="hsl(90.0,100%,20%)">taoyl</text>
<text x="1.161" y="0.222" font-size="0.010076" fill="hsl(0.0,100%,20%)">chenghan</text>
<text x="0.922" y="0.084" font-size="0.010076" fill="hsl(0.0,100%,20%)">byronlee</text>
<text x="1.385" y="0.215" font-size="0.010076" fill="hsl(135.0,100%,20%)">druth</text>
<text x="0.370" y="0.346" font-size="0.024681" fill="hsl(180.0,100%,20%)">michamazur</text>
<text x="0.434" y="0.200" font-size="0.010076" fill="hsl(180.0,100%,20%)">aleksandermj</text>
<text x="0.436" y="0.257" font-size="0.010076" fill="hsl(180.0,100%,20%)">andrewlassalle</text>
<text x="0.540" y="0.318" font-size="0.014249" fill="hsl(180.0,100%,20%)">ujjwalpande</text>
<text x="1.539" y="0.766" font-size="0.024681" fill="hsl(0.0,100%,20%)">neis</text>
<text x="1.569" y="0.827" font-size="0.010076" fill="hsl(0.0,100%,20%)">jrhilke</text>
<text x="1.616" y="0.923" font-size="0.010076" fill="hsl(0.0,100%,20%)">mqg</text>
<text x="1.826" y="0.889" font-size="0.010076" fill="hsl(0.0,100%,20%)">chuweih</text>
<text x="0.316" y="0.830" font-size="0.017452" fill="hsl(90.0,100%,20%)">olsa</text>
<text x="0.058" y="0.732" font-size="0.010076" fill="hsl(90.0,100%,20%)">acostinas</text>
<text x="0.132" y="0.099" font-size="0.017452" fill="hsl(270.0,100%,20%)">ototot</text>
<text x="0.344" y="0.156" font-size="0.010076" fill="hsl(270.0,100%,20%)">jcliang</text>
<text x="0.234" y="0.119" font-size="0.010076" fill="hsl(270.0,100%,20%)">imranziad</text>
<text x="0.255" y="0.048" font-size="0.010076" fill="hsl(270.0,100%,20%)">shik</text>
<text x="0.520" y="0.034" font-size="0.020152" fill="hsl(45.0,100%,20%)">pteerapong</text>
<text x="0.392" y="0.060" font-size="0.014249" fill="hsl(45.0,100%,20%)">judyhsiao</text>
<text x="0.628" y="0.070" font-size="0.014249" fill="hsl(45.0,100%,20%)">niwa</text>
<text x="0.751" y="0.022" font-size="0.010076" fill="hsl(45.0,100%,20%)">jessemcguire</text>
<text x="0.771" y="0.726" font-size="0.010076" fill="hsl(180.0,100%,20%)">gbiv</text>
<text x="0.418" y="0.450" font-size="0.047260" fill="hsl(45.0,100%,20%)">yuanyaogoog</text>
<text x="0.490" y="0.649" font-size="0.017452" fill="hsl(45.0,100%,20%)">momohatt</text>
<text x="0.654" y="0.698" font-size="0.010076" fill="hsl(45.0,100%,20%)">sstan</text>
<text x="0.519" y="0.660" font-size="0.010076" fill="hsl(45.0,100%,20%)">levarum</text>
<text x="0.775" y="0.174" font-size="0.020152" fill="hsl(315.0,100%,20%)">xinggu</text>
<text x="0.663" y="0.145" font-size="0.014249" fill="hsl(315.0,100%,20%)">kamesan</text>
<text x="0.839" y="0.068" font-size="0.010076" fill="hsl(315.0,100%,20%)">hanlinchen</text>
<text x="0.236" y="0.214" font-size="0.014249" fill="hsl(315.0,100%,20%)">kinaba</text>
<text x="0.207" y="0.277" font-size="0.017452" fill="hsl(315.0,100%,20%)">yuanhsinte</text>
<text x="0.046" y="0.340" font-size="0.010076" fill="hsl(315.0,100%,20%)">fshao</text>
<text x="0.075" y="0.302" font-size="0.010076" fill="hsl(315.0,100%,20%)">khmel</text>
</svg>
