<svg width="4000" height="2000" viewBox="-0.025 -0.025 2.05 1.05" xmlns="http://www.w3.org/2000/svg">
  <style>
    path {
      fill: none;
      stroke-linecap: round;
      stroke-opacity: 0.4;
    }

    text {
      text-anchor: middle;
      alignment-baseline: hanging;
    }
  </style>
  <g opacity="0.4">
<path d="M1.288 0.218 Q1.215 0.286 1.332 0.337" stroke="hsl(0.0,100%,35%)" stroke-width="0.00484"></path>
<path d="M1.288 0.218 Q1.389 0.263 1.500 0.224" stroke="hsl(0.0,100%,35%)" stroke-width="0.00484"></path>
<path d="M1.288 0.218 Q1.174 0.280 1.269 0.349" stroke="hsl(0.0,100%,35%)" stroke-width="0.00484"></path>
<path d="M1.590 0.747 Q1.323 0.500 0.782 0.576" stroke="hsl(51.0,100%,35%)" stroke-width="0.00484"></path>
<path d="M1.590 0.747 Q1.674 0.824 1.843 0.800" stroke="hsl(51.0,100%,35%)" stroke-width="0.00484"></path>
<path d="M1.590 0.747 Q1.540 0.836 1.703 0.881" stroke="hsl(51.0,100%,35%)" stroke-width="0.00484"></path>
<path d="M0.782 0.576 Q0.850 0.674 1.056 0.663" stroke="hsl(51.0,100%,35%)" stroke-width="0.01452"></path>
<path d="M0.782 0.576 Q0.535 0.599 0.524 0.724" stroke="hsl(51.0,100%,35%)" stroke-width="0.00484"></path>
<path d="M0.782 0.576 Q0.637 0.463 0.384 0.509" stroke="hsl(51.0,100%,35%)" stroke-width="0.00484"></path>
<path d="M0.194 0.590 Q0.061 0.629 0.109 0.702" stroke="hsl(102.0,100%,35%)" stroke-width="0.00968"></path>
<path d="M0.194 0.590 Q0.004 0.759 0.292 0.889" stroke="hsl(102.0,100%,35%)" stroke-width="0.00968"></path>
<path d="M0.194 0.590 Q0.099 0.710 0.313 0.782" stroke="hsl(102.0,100%,35%)" stroke-width="0.00484"></path>
<path d="M0.313 0.782 Q0.476 0.756 0.461 0.671" stroke="hsl(102.0,100%,35%)" stroke-width="0.01452"></path>
<path d="M0.313 0.782 Q0.217 0.832 0.292 0.889" stroke="hsl(102.0,100%,35%)" stroke-width="0.01936"></path>
<path d="M0.313 0.782 Q0.498 0.707 0.391 0.600" stroke="hsl(102.0,100%,35%)" stroke-width="0.00484"></path>
<path d="M0.313 0.782 Q0.275 0.701 0.109 0.702" stroke="hsl(102.0,100%,35%)" stroke-width="0.00484"></path>
<path d="M1.328 0.111 Q1.246 0.283 1.563 0.361" stroke="hsl(154.0,100%,35%)" stroke-width="0.00484"></path>
<path d="M1.328 0.111 Q1.509 0.158 1.639 0.080" stroke="hsl(154.0,100%,35%)" stroke-width="0.02420"></path>
<path d="M1.328 0.111 Q0.615 0.242 0.714 0.618" stroke="hsl(154.0,100%,35%)" stroke-width="0.01936"></path>
<path d="M0.714 0.618 Q0.709 0.557 0.588 0.545" stroke="hsl(154.0,100%,35%)" stroke-width="0.00968"></path>
<path d="M0.714 0.618 Q1.426 0.488 1.328 0.111" stroke="hsl(154.0,100%,35%)" stroke-width="0.01452"></path>
<path d="M0.714 0.618 Q1.607 0.534 1.639 0.080" stroke="hsl(154.0,100%,35%)" stroke-width="0.00484"></path>
<path d="M0.168 0.144 Q0.253 0.199 0.379 0.169" stroke="hsl(205.0,100%,35%)" stroke-width="0.04356"></path>
<path d="M0.168 0.144 Q0.250 0.654 1.263 0.726" stroke="hsl(205.0,100%,35%)" stroke-width="0.00968"></path>
<path d="M0.168 0.144 Q0.065 0.269 0.285 0.347" stroke="hsl(205.0,100%,35%)" stroke-width="0.00968"></path>
<path d="M1.263 0.726 Q1.266 0.271 0.379 0.169" stroke="hsl(205.0,100%,35%)" stroke-width="0.00484"></path>
<path d="M1.263 0.726 Q1.182 0.216 0.168 0.144" stroke="hsl(205.0,100%,35%)" stroke-width="0.01452"></path>
<path d="M1.263 0.726 Q1.114 0.737 1.103 0.812" stroke="hsl(205.0,100%,35%)" stroke-width="0.02420"></path>
<path d="M0.759 0.345 Q0.688 0.411 0.800 0.460" stroke="hsl(257.0,100%,35%)" stroke-width="0.15971"></path>
<path d="M0.759 0.345 Q1.027 0.279 0.955 0.133" stroke="hsl(257.0,100%,35%)" stroke-width="0.01452"></path>
<path d="M0.759 0.345 Q0.946 0.350 0.996 0.259" stroke="hsl(257.0,100%,35%)" stroke-width="0.00484"></path>
<path d="M0.759 0.345 Q1.049 0.311 1.046 0.162" stroke="hsl(257.0,100%,35%)" stroke-width="0.01452"></path>
<path d="M0.759 0.345 Q0.616 0.490 0.866 0.591" stroke="hsl(257.0,100%,35%)" stroke-width="0.00484"></path>
<path d="M0.800 0.460 Q0.871 0.394 0.759 0.345" stroke="hsl(257.0,100%,35%)" stroke-width="0.07259"></path>
<path d="M0.800 0.460 Q0.729 0.539 0.866 0.591" stroke="hsl(257.0,100%,35%)" stroke-width="0.02420"></path>
<path d="M0.800 0.460 Q0.914 0.579 1.171 0.550" stroke="hsl(257.0,100%,35%)" stroke-width="0.00484"></path>
<path d="M0.741 0.076 Q0.624 0.121 0.687 0.189" stroke="hsl(51.0,100%,35%)" stroke-width="0.01936"></path>
<path d="M0.741 0.076 Q0.361 0.334 0.782 0.576" stroke="hsl(51.0,100%,35%)" stroke-width="0.00484"></path>
<path d="M0.741 0.076 Q0.829 0.129 0.952 0.098" stroke="hsl(51.0,100%,35%)" stroke-width="0.00484"></path>
<path d="M0.741 0.076 Q0.902 0.118 1.020 0.049" stroke="hsl(51.0,100%,35%)" stroke-width="0.00484"></path>
<path d="M0.741 0.076 Q0.669 0.060 0.622 0.092" stroke="hsl(51.0,100%,35%)" stroke-width="0.00484"></path>
<path d="M1.821 0.346 Q1.943 0.177 1.639 0.080" stroke="hsl(154.0,100%,35%)" stroke-width="0.00484"></path>
<path d="M1.821 0.346 Q1.680 0.302 1.563 0.361" stroke="hsl(154.0,100%,35%)" stroke-width="0.00484"></path>
<path d="M1.821 0.346 Q1.455 0.403 1.486 0.594" stroke="hsl(154.0,100%,35%)" stroke-width="0.00484"></path>
<path d="M0.561 0.898 Q0.705 0.919 0.777 0.853" stroke="hsl(51.0,100%,35%)" stroke-width="0.00484"></path>
<path d="M0.561 0.898 Q1.191 0.569 0.687 0.189" stroke="hsl(51.0,100%,35%)" stroke-width="0.00484"></path>
<path d="M0.561 0.898 Q0.676 0.972 0.845 0.932" stroke="hsl(51.0,100%,35%)" stroke-width="0.00484"></path>
<path d="M0.561 0.898 Q0.709 0.864 0.675 0.784" stroke="hsl(51.0,100%,35%)" stroke-width="0.00484"></path>
<path d="M1.366 0.957 Q1.428 0.996 1.517 0.974" stroke="hsl(308.0,100%,35%)" stroke-width="0.00484"></path>
<path d="M1.366 0.957 Q1.407 0.901 1.307 0.868" stroke="hsl(308.0,100%,35%)" stroke-width="0.00484"></path>
<path d="M1.366 0.957 Q1.549 0.916 1.510 0.818" stroke="hsl(308.0,100%,35%)" stroke-width="0.00484"></path>
<path d="M1.366 0.957 Q1.260 0.923 1.169 0.967" stroke="hsl(308.0,100%,35%)" stroke-width="0.00484"></path>
<path d="M1.819 0.471 Q1.779 0.365 1.563 0.361" stroke="hsl(154.0,100%,35%)" stroke-width="0.00968"></path>
<path d="M1.819 0.471 Q1.555 0.466 1.486 0.594" stroke="hsl(154.0,100%,35%)" stroke-width="0.00968"></path>
<path d="M1.819 0.471 Q1.676 0.426 1.556 0.486" stroke="hsl(154.0,100%,35%)" stroke-width="0.00484"></path>
</g>
<text x="1.288" y="0.208" font-size="0.020067" fill="hsl(0.0,100%,20%)">andrewlassalle</text>
<text x="1.332" y="0.331" font-size="0.011586" fill="hsl(0.0,100%,20%)">ejcaruso</text>
<text x="1.500" y="0.218" font-size="0.011586" fill="hsl(0.0,100%,20%)">aleksandermj</text>
<text x="1.269" y="0.343" font-size="0.011586" fill="hsl(0.0,100%,20%)">rmao</text>
<text x="1.590" y="0.737" font-size="0.020067" fill="hsl(51.0,100%,20%)">bbrotherton</text>
<text x="0.782" y="0.561" font-size="0.030653" fill="hsl(51.0,100%,20%)">troywang</text>
<text x="1.843" y="0.794" font-size="0.011586" fill="hsl(51.0,100%,20%)">alanlxl</text>
<text x="1.703" y="0.875" font-size="0.011586" fill="hsl(51.0,100%,20%)">nbowe</text>
<text x="0.194" y="0.577" font-size="0.025906" fill="hsl(102.0,100%,20%)">chensa</text>
<text x="0.109" y="0.692" font-size="0.020067" fill="hsl(102.0,100%,20%)">hcyang</text>
<text x="0.292" y="0.875" font-size="0.028379" fill="hsl(102.0,100%,20%)">yich</text>
<text x="0.313" y="0.764" font-size="0.036637" fill="hsl(102.0,100%,20%)">njrafi</text>
<text x="1.328" y="0.091" font-size="0.041773" fill="hsl(154.0,100%,20%)">dverkamp</text>
<text x="1.563" y="0.350" font-size="0.023171" fill="hsl(154.0,100%,20%)">keiichiw</text>
<text x="1.639" y="0.065" font-size="0.030653" fill="hsl(154.0,100%,20%)">denniskempin</text>
<text x="0.714" y="0.600" font-size="0.036637" fill="hsl(154.0,100%,20%)">zihanchen</text>
<text x="0.168" y="0.121" font-size="0.046343" fill="hsl(205.0,100%,20%)">greenjustin</text>
<text x="0.379" y="0.151" font-size="0.036637" fill="hsl(205.0,100%,20%)">hiroh</text>
<text x="1.263" y="0.707" font-size="0.038425" fill="hsl(205.0,100%,20%)">hnt</text>
<text x="0.285" y="0.338" font-size="0.016385" fill="hsl(205.0,100%,20%)">bchoobineh</text>
<text x="0.759" y="0.302" font-size="0.086699" fill="hsl(257.0,100%,20%)">gwendal</text>
<text x="0.800" y="0.418" font-size="0.085137" fill="hsl(257.0,100%,20%)">sarthakkukreti</text>
<text x="0.955" y="0.123" font-size="0.020067" fill="hsl(257.0,100%,20%)">jessemcguire</text>
<text x="0.996" y="0.254" font-size="0.011586" fill="hsl(257.0,100%,20%)">rrangel</text>
<text x="1.046" y="0.152" font-size="0.020067" fill="hsl(257.0,100%,20%)">chenghaoyang</text>
<text x="0.866" y="0.576" font-size="0.028379" fill="hsl(257.0,100%,20%)">kimjae</text>
<text x="1.103" y="0.799" font-size="0.025906" fill="hsl(205.0,100%,20%)">frkoenig</text>
<text x="0.741" y="0.059" font-size="0.032769" fill="hsl(51.0,100%,20%)">jiejiang</text>
<text x="0.687" y="0.176" font-size="0.025906" fill="hsl(51.0,100%,20%)">hugobenichi</text>
<text x="0.952" y="0.092" font-size="0.011586" fill="hsl(51.0,100%,20%)">swboyd</text>
<text x="1.020" y="0.043" font-size="0.011586" fill="hsl(51.0,100%,20%)">tfiga</text>
<text x="0.622" y="0.086" font-size="0.011586" fill="hsl(51.0,100%,20%)">jasongustaman</text>
<text x="0.461" y="0.661" font-size="0.020067" fill="hsl(102.0,100%,20%)">nurlitadf</text>
<text x="0.391" y="0.594" font-size="0.011586" fill="hsl(102.0,100%,20%)">fairuzi</text>
<text x="1.821" y="0.336" font-size="0.020067" fill="hsl(154.0,100%,20%)">normanbt</text>
<text x="1.486" y="0.584" font-size="0.020067" fill="hsl(154.0,100%,20%)">uekawa</text>
<text x="0.561" y="0.886" font-size="0.023171" fill="hsl(51.0,100%,20%)">olsa</text>
<text x="0.777" y="0.847" font-size="0.011586" fill="hsl(51.0,100%,20%)">acostinas</text>
<text x="0.845" y="0.926" font-size="0.011586" fill="hsl(51.0,100%,20%)">matthewmwang</text>
<text x="0.675" y="0.778" font-size="0.011586" fill="hsl(51.0,100%,20%)">vdomurado</text>
<text x="1.171" y="0.544" font-size="0.011586" fill="hsl(257.0,100%,20%)">thomascedeno</text>
<text x="1.056" y="0.653" font-size="0.020067" fill="hsl(51.0,100%,20%)">jongahn</text>
<text x="0.524" y="0.718" font-size="0.011586" fill="hsl(51.0,100%,20%)">glevin</text>
<text x="0.384" y="0.503" font-size="0.011586" fill="hsl(51.0,100%,20%)">vapier</text>
<text x="1.366" y="0.946" font-size="0.023171" fill="hsl(308.0,100%,20%)">xiyuan</text>
<text x="1.517" y="0.968" font-size="0.011586" fill="hsl(308.0,100%,20%)">apronin</text>
<text x="1.307" y="0.863" font-size="0.011586" fill="hsl(308.0,100%,20%)">puthik</text>
<text x="1.510" y="0.812" font-size="0.011586" fill="hsl(308.0,100%,20%)">cowmoo</text>
<text x="1.169" y="0.961" font-size="0.011586" fill="hsl(308.0,100%,20%)">hidehiko</text>
<text x="1.819" y="0.459" font-size="0.025906" fill="hsl(154.0,100%,20%)">yuanyaogoog</text>
<text x="1.556" y="0.480" font-size="0.011586" fill="hsl(154.0,100%,20%)">momohatt</text>
<text x="0.588" y="0.537" font-size="0.016385" fill="hsl(154.0,100%,20%)">drmasquatch</text>
</svg>
