<svg width="4000" height="2000" viewBox="-0.025 -0.025 2.05 1.05" xmlns="http://www.w3.org/2000/svg">
  <style>
    path {
      fill: none;
      stroke-linecap: round;
      stroke-opacity: 0.4;
    }

    text {
      text-anchor: middle;
      alignment-baseline: hanging;
    }
  </style>
  <g opacity="0.4">
<path d="M1.816 0.655 Q1.905 0.523 1.667 0.450" stroke="hsl(0.0,100%,35%)" stroke-width="0.03803"></path>
<path d="M1.816 0.655 Q1.726 0.557 1.516 0.579" stroke="hsl(0.0,100%,35%)" stroke-width="0.01268"></path>
<path d="M1.816 0.655 Q1.572 0.507 1.229 0.593" stroke="hsl(0.0,100%,35%)" stroke-width="0.01268"></path>
<path d="M1.816 0.655 Q1.599 0.617 1.479 0.715" stroke="hsl(0.0,100%,35%)" stroke-width="0.02535"></path>
<path d="M1.816 0.655 Q2.014 0.471 1.699 0.334" stroke="hsl(0.0,100%,35%)" stroke-width="0.01268"></path>
<path d="M1.221 0.390 Q1.009 0.434 1.047 0.547" stroke="hsl(72.0,100%,35%)" stroke-width="0.03803"></path>
<path d="M1.221 0.390 Q1.241 0.214 0.901 0.165" stroke="hsl(72.0,100%,35%)" stroke-width="0.01268"></path>
<path d="M1.221 0.390 Q1.337 0.290 1.167 0.212" stroke="hsl(72.0,100%,35%)" stroke-width="0.01268"></path>
<path d="M0.370 0.307 Q0.458 0.378 0.616 0.351" stroke="hsl(144.0,100%,35%)" stroke-width="0.07606"></path>
<path d="M0.370 0.307 Q0.564 0.471 0.927 0.412" stroke="hsl(144.0,100%,35%)" stroke-width="0.01268"></path>
<path d="M0.370 0.307 Q0.544 0.214 0.401 0.109" stroke="hsl(144.0,100%,35%)" stroke-width="0.01268"></path>
<path d="M0.133 0.636 Q0.224 0.702 0.373 0.672" stroke="hsl(216.0,100%,35%)" stroke-width="0.08874"></path>
<path d="M0.133 0.636 Q0.127 0.772 0.391 0.805" stroke="hsl(216.0,100%,35%)" stroke-width="0.06338"></path>
<path d="M0.133 0.636 Q0.412 0.652 0.506 0.520" stroke="hsl(216.0,100%,35%)" stroke-width="0.01268"></path>
<path d="M1.331 0.951 Q1.107 0.824 0.811 0.905" stroke="hsl(288.0,100%,35%)" stroke-width="0.01268"></path>
<path d="M1.331 0.951 Q1.146 0.910 1.027 0.992" stroke="hsl(288.0,100%,35%)" stroke-width="0.01268"></path>
<path d="M1.331 0.951 Q1.312 0.841 1.094 0.826" stroke="hsl(288.0,100%,35%)" stroke-width="0.01268"></path>
</g>
<text x="1.816" y="0.622" font-size="0.065760" fill="hsl(0.0,100%,20%)">chensa</text>
<text x="1.667" y="0.430" font-size="0.040269" fill="hsl(0.0,100%,20%)">hcyang</text>
<text x="1.516" y="0.568" font-size="0.023250" fill="hsl(0.0,100%,20%)">hidehiko</text>
<text x="1.229" y="0.582" font-size="0.023250" fill="hsl(0.0,100%,20%)">toyoshim</text>
<text x="1.479" y="0.698" font-size="0.032880" fill="hsl(0.0,100%,20%)">yich</text>
<text x="1.699" y="0.322" font-size="0.023250" fill="hsl(0.0,100%,20%)">nurlitadf</text>
<text x="1.221" y="0.364" font-size="0.051988" fill="hsl(72.0,100%,20%)">greenjustin</text>
<text x="1.047" y="0.527" font-size="0.040269" fill="hsl(72.0,100%,20%)">frkoenig</text>
<text x="0.901" y="0.154" font-size="0.023250" fill="hsl(72.0,100%,20%)">andrescj</text>
<text x="1.167" y="0.201" font-size="0.023250" fill="hsl(72.0,100%,20%)">hiroh</text>
<text x="0.370" y="0.274" font-size="0.065760" fill="hsl(144.0,100%,20%)">hugobenichi</text>
<text x="0.616" y="0.323" font-size="0.056949" fill="hsl(144.0,100%,20%)">jiejiang</text>
<text x="0.927" y="0.401" font-size="0.023250" fill="hsl(144.0,100%,20%)">akahuang</text>
<text x="0.401" y="0.097" font-size="0.023250" fill="hsl(144.0,100%,20%)">chenzikai</text>
<text x="0.133" y="0.594" font-size="0.083827" fill="hsl(216.0,100%,20%)">nicholasbishop</text>
<text x="0.373" y="0.641" font-size="0.061512" fill="hsl(216.0,100%,20%)">jefferymiller</text>
<text x="0.391" y="0.779" font-size="0.051988" fill="hsl(216.0,100%,20%)">tbrandston</text>
<text x="0.506" y="0.508" font-size="0.023250" fill="hsl(216.0,100%,20%)">gbiv</text>
<text x="1.331" y="0.930" font-size="0.040269" fill="hsl(288.0,100%,20%)">sxm</text>
<text x="0.811" y="0.894" font-size="0.023250" fill="hsl(288.0,100%,20%)">kalutes</text>
<text x="1.027" y="0.980" font-size="0.023250" fill="hsl(288.0,100%,20%)">stevensd</text>
<text x="1.094" y="0.815" font-size="0.023250" fill="hsl(288.0,100%,20%)">vovoy</text>
</svg>
