<svg width="4000" height="2000" viewBox="-0.025 -0.025 2.05 1.05" xmlns="http://www.w3.org/2000/svg">
  <style>
    path {
      fill: none;
      stroke-linecap: round;
      stroke-opacity: 0.4;
    }

    text {
      text-anchor: middle;
      alignment-baseline: hanging;
    }
  </style>
  <g opacity="0.4">
<path d="M1.258 0.186 Q1.115 0.144 1.002 0.205" stroke="hsl(0.0,100%,35%)" stroke-width="0.02567"></path>
<path d="M1.258 0.186 Q1.382 0.141 1.321 0.071" stroke="hsl(0.0,100%,35%)" stroke-width="0.01100"></path>
<path d="M1.258 0.186 Q1.233 0.140 1.137 0.142" stroke="hsl(0.0,100%,35%)" stroke-width="0.00733"></path>
<path d="M1.258 0.186 Q1.190 0.240 1.280 0.285" stroke="hsl(0.0,100%,35%)" stroke-width="0.01100"></path>
<path d="M1.258 0.186 Q1.192 0.108 1.025 0.124" stroke="hsl(0.0,100%,35%)" stroke-width="0.00367"></path>
<path d="M1.258 0.186 Q1.308 0.232 1.407 0.217" stroke="hsl(0.0,100%,35%)" stroke-width="0.01467"></path>
<path d="M1.258 0.186 Q0.251 0.425 0.494 0.968" stroke="hsl(0.0,100%,35%)" stroke-width="0.00367"></path>
<path d="M1.258 0.186 Q1.125 0.151 1.028 0.208" stroke="hsl(0.0,100%,35%)" stroke-width="0.00367"></path>
<path d="M1.258 0.186 Q1.195 0.273 1.351 0.323" stroke="hsl(0.0,100%,35%)" stroke-width="0.00367"></path>
<path d="M0.494 0.968 Q0.839 0.542 0.082 0.281" stroke="hsl(0.0,100%,35%)" stroke-width="0.00733"></path>
<path d="M0.494 0.968 Q0.602 0.917 0.526 0.853" stroke="hsl(0.0,100%,35%)" stroke-width="0.00367"></path>
<path d="M0.494 0.968 Q0.629 0.939 0.601 0.866" stroke="hsl(0.0,100%,35%)" stroke-width="0.00367"></path>
<path d="M0.494 0.968 Q0.773 0.758 0.425 0.576" stroke="hsl(0.0,100%,35%)" stroke-width="0.00733"></path>
<path d="M0.494 0.968 Q0.538 0.908 0.430 0.873" stroke="hsl(0.0,100%,35%)" stroke-width="0.00367"></path>
<path d="M0.494 0.968 Q0.619 0.880 0.474 0.799" stroke="hsl(0.0,100%,35%)" stroke-width="0.00367"></path>
<path d="M0.494 0.968 Q0.721 1.008 0.849 0.906" stroke="hsl(0.0,100%,35%)" stroke-width="0.00367"></path>
<path d="M0.494 0.968 Q0.438 0.892 0.278 0.903" stroke="hsl(0.0,100%,35%)" stroke-width="0.00367"></path>
<path d="M0.494 0.968 Q0.720 0.903 0.642 0.778" stroke="hsl(0.0,100%,35%)" stroke-width="0.00367"></path>
<path d="M1.100 0.540 Q1.251 0.495 1.195 0.412" stroke="hsl(0.0,100%,35%)" stroke-width="0.05867"></path>
<path d="M1.100 0.540 Q1.099 0.615 1.246 0.632" stroke="hsl(0.0,100%,35%)" stroke-width="0.00367"></path>
<path d="M1.100 0.540 Q0.799 0.207 0.082 0.281" stroke="hsl(0.0,100%,35%)" stroke-width="0.00733"></path>
<path d="M1.100 0.540 Q1.500 0.503 1.515 0.300" stroke="hsl(0.0,100%,35%)" stroke-width="0.00733"></path>
<path d="M1.100 0.540 Q0.833 0.271 0.249 0.342" stroke="hsl(0.0,100%,35%)" stroke-width="0.00367"></path>
<path d="M0.082 0.281 Q-0.018 0.332 0.060 0.392" stroke="hsl(0.0,100%,35%)" stroke-width="0.02933"></path>
<path d="M0.082 0.281 Q0.113 0.366 0.286 0.370" stroke="hsl(0.0,100%,35%)" stroke-width="0.00367"></path>
<path d="M0.082 0.281 Q0.116 0.345 0.249 0.342" stroke="hsl(0.0,100%,35%)" stroke-width="0.00367"></path>
<path d="M0.082 0.281 Q0.996 0.608 1.835 0.234" stroke="hsl(0.0,100%,35%)" stroke-width="0.00367"></path>
<path d="M0.082 0.281 Q0.379 0.367 0.613 0.242" stroke="hsl(0.0,100%,35%)" stroke-width="0.01100"></path>
<path d="M0.082 0.281 Q0.210 0.342 0.357 0.293" stroke="hsl(0.0,100%,35%)" stroke-width="0.00367"></path>
<path d="M1.122 1.016 Q1.300 0.910 1.131 0.800" stroke="hsl(0.0,100%,35%)" stroke-width="0.00733"></path>
<path d="M1.122 1.016 Q1.264 1.007 1.277 0.936" stroke="hsl(0.0,100%,35%)" stroke-width="0.00733"></path>
<path d="M1.122 1.016 Q1.265 1.004 1.273 0.931" stroke="hsl(0.0,100%,35%)" stroke-width="0.00733"></path>
<path d="M1.122 1.016 Q0.955 0.816 0.526 0.853" stroke="hsl(0.0,100%,35%)" stroke-width="0.00367"></path>
<path d="M1.122 1.016 Q1.195 1.049 1.274 1.021" stroke="hsl(0.0,100%,35%)" stroke-width="0.00367"></path>
<path d="M1.122 1.016 Q1.599 0.626 0.942 0.308" stroke="hsl(0.0,100%,35%)" stroke-width="0.00367"></path>
<path d="M0.942 0.308 Q1.036 0.281 1.003 0.229" stroke="hsl(0.0,100%,35%)" stroke-width="0.00733"></path>
<path d="M0.942 0.308 Q1.023 0.302 1.028 0.261" stroke="hsl(0.0,100%,35%)" stroke-width="0.00733"></path>
<path d="M0.942 0.308 Q0.722 0.613 1.268 0.787" stroke="hsl(0.0,100%,35%)" stroke-width="0.00367"></path>
<path d="M0.942 0.308 Q1.075 0.346 1.177 0.290" stroke="hsl(0.0,100%,35%)" stroke-width="0.00367"></path>
<path d="M0.942 0.308 Q0.940 0.553 1.416 0.608" stroke="hsl(0.0,100%,35%)" stroke-width="0.00367"></path>
<path d="M0.942 0.308 Q0.831 0.209 0.613 0.242" stroke="hsl(0.0,100%,35%)" stroke-width="0.00367"></path>
<path d="M0.849 0.906 Q1.070 0.924 1.154 0.819" stroke="hsl(0.0,100%,35%)" stroke-width="0.00367"></path>
<path d="M0.849 0.906 Q0.931 0.973 1.080 0.947" stroke="hsl(0.0,100%,35%)" stroke-width="0.00367"></path>
<path d="M0.849 0.906 Q0.755 0.849 0.624 0.882" stroke="hsl(0.0,100%,35%)" stroke-width="0.00367"></path>
<path d="M0.849 0.906 Q0.784 0.972 0.900 1.018" stroke="hsl(0.0,100%,35%)" stroke-width="0.00367"></path>
<path d="M0.849 0.906 Q1.050 0.700 0.693 0.557" stroke="hsl(0.0,100%,35%)" stroke-width="0.00733"></path>
<path d="M0.849 0.906 Q1.570 0.994 1.900 0.661" stroke="hsl(0.0,100%,35%)" stroke-width="0.00367"></path>
<path d="M0.849 0.906 Q0.622 0.866 0.494 0.968" stroke="hsl(0.0,100%,35%)" stroke-width="0.00733"></path>
<path d="M0.849 0.906 Q0.845 0.840 0.717 0.828" stroke="hsl(0.0,100%,35%)" stroke-width="0.00733"></path>
<path d="M0.849 0.906 Q1.027 0.896 1.048 0.807" stroke="hsl(0.0,100%,35%)" stroke-width="0.00367"></path>
<path d="M0.693 0.557 Q0.738 0.630 0.892 0.624" stroke="hsl(0.0,100%,35%)" stroke-width="0.00367"></path>
<path d="M0.693 0.557 Q0.824 0.286 0.325 0.163" stroke="hsl(0.0,100%,35%)" stroke-width="0.00367"></path>
<path d="M0.693 0.557 Q0.766 0.636 0.936 0.617" stroke="hsl(0.0,100%,35%)" stroke-width="0.00367"></path>
<path d="M0.693 0.557 Q0.584 0.620 0.683 0.687" stroke="hsl(0.0,100%,35%)" stroke-width="0.00733"></path>
<path d="M0.693 0.557 Q0.905 0.383 0.613 0.242" stroke="hsl(0.0,100%,35%)" stroke-width="0.00367"></path>
<path d="M0.693 0.557 Q0.389 0.634 0.474 0.799" stroke="hsl(0.0,100%,35%)" stroke-width="0.00367"></path>
<path d="M1.900 0.661 Q1.789 0.646 1.736 0.697" stroke="hsl(0.0,100%,35%)" stroke-width="0.00367"></path>
<path d="M1.900 0.661 Q1.370 0.671 1.273 0.931" stroke="hsl(0.0,100%,35%)" stroke-width="0.00367"></path>
<path d="M1.900 0.661 Q2.007 0.589 1.889 0.520" stroke="hsl(0.0,100%,35%)" stroke-width="0.00367"></path>
<path d="M1.900 0.661 Q1.799 0.697 1.847 0.754" stroke="hsl(0.0,100%,35%)" stroke-width="0.00367"></path>
<path d="M1.588 0.492 Q1.716 0.566 1.889 0.520" stroke="hsl(0.0,100%,35%)" stroke-width="0.02200"></path>
<path d="M1.588 0.492 Q1.609 0.639 1.900 0.661" stroke="hsl(0.0,100%,35%)" stroke-width="0.01833"></path>
<path d="M1.588 0.492 Q1.651 0.450 1.582 0.410" stroke="hsl(0.0,100%,35%)" stroke-width="0.00367"></path>
<path d="M1.889 0.520 Q1.782 0.593 1.900 0.661" stroke="hsl(0.0,100%,35%)" stroke-width="0.07333"></path>
<path d="M1.889 0.520 Q1.940 0.283 1.487 0.206" stroke="hsl(0.0,100%,35%)" stroke-width="0.00367"></path>
<path d="M1.889 0.520 Q1.843 0.465 1.726 0.475" stroke="hsl(0.0,100%,35%)" stroke-width="0.01100"></path>
<path d="M1.889 0.520 Q2.071 0.438 1.951 0.331" stroke="hsl(0.0,100%,35%)" stroke-width="0.00367"></path>
<path d="M0.271 0.688 Q0.114 0.689 0.083 0.766" stroke="hsl(0.0,100%,35%)" stroke-width="0.00367"></path>
<path d="M0.271 0.688 Q0.587 0.706 0.693 0.557" stroke="hsl(0.0,100%,35%)" stroke-width="0.00367"></path>
<path d="M0.271 0.688 Q0.159 0.730 0.216 0.794" stroke="hsl(0.0,100%,35%)" stroke-width="0.00367"></path>
<path d="M0.271 0.688 Q0.230 0.740 0.323 0.771" stroke="hsl(0.0,100%,35%)" stroke-width="0.00367"></path>
<path d="M0.683 0.687 Q1.159 0.652 1.195 0.412" stroke="hsl(0.0,100%,35%)" stroke-width="0.00367"></path>
<path d="M0.683 0.687 Q1.139 0.907 1.669 0.734" stroke="hsl(0.0,100%,35%)" stroke-width="0.00367"></path>
<path d="M0.683 0.687 Q0.590 0.829 0.849 0.906" stroke="hsl(0.0,100%,35%)" stroke-width="0.00367"></path>
<path d="M0.683 0.687 Q0.708 0.363 0.082 0.281" stroke="hsl(0.0,100%,35%)" stroke-width="0.00367"></path>
<path d="M1.365 0.696 Q1.320 0.655 1.232 0.668" stroke="hsl(0.0,100%,35%)" stroke-width="0.00367"></path>
<path d="M1.365 0.696 Q1.445 0.691 1.453 0.650" stroke="hsl(0.0,100%,35%)" stroke-width="0.00367"></path>
<path d="M1.365 0.696 Q0.935 0.632 0.717 0.828" stroke="hsl(0.0,100%,35%)" stroke-width="0.00367"></path>
<path d="M1.365 0.696 Q1.460 0.662 1.416 0.608" stroke="hsl(0.0,100%,35%)" stroke-width="0.00367"></path>
<path d="M1.365 0.696 Q1.250 0.689 1.211 0.743" stroke="hsl(0.0,100%,35%)" stroke-width="0.00367"></path>
<path d="M1.365 0.696 Q1.130 0.795 1.273 0.931" stroke="hsl(0.0,100%,35%)" stroke-width="0.00367"></path>
<path d="M0.803 0.159 Q0.858 0.095 0.746 0.054" stroke="hsl(0.0,100%,35%)" stroke-width="0.02567"></path>
<path d="M0.803 0.159 Q1.132 0.218 1.321 0.071" stroke="hsl(0.0,100%,35%)" stroke-width="0.00367"></path>
<path d="M0.803 0.159 Q0.419 0.639 1.273 0.931" stroke="hsl(0.0,100%,35%)" stroke-width="0.00367"></path>
<path d="M0.803 0.159 Q0.803 0.126 0.739 0.118" stroke="hsl(0.0,100%,35%)" stroke-width="0.00367"></path>
<path d="M1.951 0.331 Q1.769 0.413 1.889 0.520" stroke="hsl(0.0,100%,35%)" stroke-width="0.00367"></path>
<path d="M1.951 0.331 Q1.931 0.310 1.885 0.315" stroke="hsl(0.0,100%,35%)" stroke-width="0.00367"></path>
<path d="M1.951 0.331 Q1.894 0.343 1.904 0.373" stroke="hsl(0.0,100%,35%)" stroke-width="0.00367"></path>
<path d="M1.951 0.331 Q1.132 0.496 1.273 0.931" stroke="hsl(0.0,100%,35%)" stroke-width="0.00367"></path>
<path d="M1.835 0.234 Q1.766 0.241 1.764 0.276" stroke="hsl(0.0,100%,35%)" stroke-width="0.00367"></path>
<path d="M1.835 0.234 Q1.904 0.237 1.925 0.204" stroke="hsl(0.0,100%,35%)" stroke-width="0.00733"></path>
<path d="M1.835 0.234 Q1.936 0.212 1.916 0.158" stroke="hsl(0.0,100%,35%)" stroke-width="0.00367"></path>
<path d="M1.487 0.085 Q1.225 0.012 1.025 0.124" stroke="hsl(0.0,100%,35%)" stroke-width="0.00367"></path>
<path d="M1.487 0.085 Q0.925 -0.011 0.613 0.242" stroke="hsl(0.0,100%,35%)" stroke-width="0.00733"></path>
<path d="M1.487 0.085 Q1.568 0.128 1.669 0.098" stroke="hsl(0.0,100%,35%)" stroke-width="0.01100"></path>
<path d="M0.221 0.095 Q0.388 0.107 0.448 0.028" stroke="hsl(0.0,100%,35%)" stroke-width="0.00367"></path>
<path d="M0.221 0.095 Q0.157 0.088 0.129 0.117" stroke="hsl(0.0,100%,35%)" stroke-width="0.00367"></path>
<path d="M0.221 0.095 Q0.218 0.150 0.325 0.163" stroke="hsl(0.0,100%,35%)" stroke-width="0.01467"></path>
<path d="M0.221 0.095 Q0.255 0.837 1.710 0.982" stroke="hsl(0.0,100%,35%)" stroke-width="0.00367"></path>
<path d="M0.221 0.095 Q0.381 0.151 0.526 0.085" stroke="hsl(0.0,100%,35%)" stroke-width="0.00367"></path>
<path d="M0.221 0.095 Q0.190 0.651 1.268 0.787" stroke="hsl(0.0,100%,35%)" stroke-width="0.00367"></path>
<path d="M0.221 0.095 Q0.224 0.079 0.194 0.074" stroke="hsl(0.0,100%,35%)" stroke-width="0.00733"></path>
<path d="M1.618 0.201 Q1.548 0.177 1.487 0.206" stroke="hsl(0.0,100%,35%)" stroke-width="0.00367"></path>
<path d="M1.618 0.201 Q1.640 0.168 1.581 0.150" stroke="hsl(0.0,100%,35%)" stroke-width="0.00367"></path>
<path d="M1.618 0.201 Q1.487 0.230 1.515 0.300" stroke="hsl(0.0,100%,35%)" stroke-width="0.00367"></path>
<path d="M1.618 0.201 Q0.861 0.497 1.273 0.931" stroke="hsl(0.0,100%,35%)" stroke-width="0.00367"></path>
<path d="M1.618 0.201 Q1.769 0.264 1.925 0.204" stroke="hsl(0.0,100%,35%)" stroke-width="0.00367"></path>
<path d="M1.733 0.880 Q1.578 0.876 1.536 0.951" stroke="hsl(90.0,100%,35%)" stroke-width="0.00367"></path>
<path d="M1.733 0.880 Q1.819 0.794 1.669 0.734" stroke="hsl(90.0,100%,35%)" stroke-width="0.00367"></path>
<path d="M1.733 0.880 Q1.640 0.926 1.710 0.982" stroke="hsl(90.0,100%,35%)" stroke-width="0.07700"></path>
<path d="M1.733 0.880 Q1.572 0.845 1.467 0.915" stroke="hsl(90.0,100%,35%)" stroke-width="0.00367"></path>
<path d="M1.733 0.880 Q1.704 0.797 1.536 0.793" stroke="hsl(90.0,100%,35%)" stroke-width="0.02200"></path>
<path d="M1.467 0.915 Q1.473 0.947 1.536 0.951" stroke="hsl(90.0,100%,35%)" stroke-width="0.01100"></path>
<path d="M1.467 0.915 Q1.470 0.811 1.268 0.787" stroke="hsl(90.0,100%,35%)" stroke-width="0.00367"></path>
<path d="M1.467 0.915 Q1.355 0.962 1.422 1.027" stroke="hsl(90.0,100%,35%)" stroke-width="0.00367"></path>
<path d="M1.467 0.915 Q1.629 0.951 1.733 0.880" stroke="hsl(90.0,100%,35%)" stroke-width="0.02200"></path>
<path d="M1.467 0.915 Q1.600 0.868 1.536 0.793" stroke="hsl(90.0,100%,35%)" stroke-width="0.00733"></path>
<path d="M1.467 0.915 Q1.878 0.563 1.280 0.285" stroke="hsl(90.0,100%,35%)" stroke-width="0.00367"></path>
<path d="M1.467 0.915 Q1.535 0.997 1.710 0.982" stroke="hsl(90.0,100%,35%)" stroke-width="0.01100"></path>
<path d="M1.467 0.915 Q1.510 0.834 1.360 0.795" stroke="hsl(90.0,100%,35%)" stroke-width="0.00367"></path>
<path d="M0.928 0.750 Q1.031 0.770 1.092 0.725" stroke="hsl(0.0,100%,35%)" stroke-width="0.00367"></path>
<path d="M0.928 0.750 Q1.581 0.642 1.515 0.300" stroke="hsl(0.0,100%,35%)" stroke-width="0.00733"></path>
<path d="M0.928 0.750 Q1.087 0.738 1.099 0.658" stroke="hsl(0.0,100%,35%)" stroke-width="0.00733"></path>
<path d="M0.928 0.750 Q0.763 0.707 0.642 0.778" stroke="hsl(0.0,100%,35%)" stroke-width="0.00367"></path>
<path d="M0.928 0.750 Q0.913 0.815 1.037 0.837" stroke="hsl(0.0,100%,35%)" stroke-width="0.00367"></path>
<path d="M0.928 0.750 Q0.760 0.746 0.717 0.828" stroke="hsl(0.0,100%,35%)" stroke-width="0.00367"></path>
<path d="M0.928 0.750 Q1.089 0.730 1.086 0.648" stroke="hsl(0.0,100%,35%)" stroke-width="0.00367"></path>
<path d="M0.928 0.750 Q1.332 0.634 1.195 0.412" stroke="hsl(0.0,100%,35%)" stroke-width="0.00367"></path>
<path d="M0.928 0.750 Q1.592 0.827 1.889 0.520" stroke="hsl(0.0,100%,35%)" stroke-width="0.00367"></path>
<path d="M0.928 0.750 Q1.485 0.900 1.900 0.661" stroke="hsl(0.0,100%,35%)" stroke-width="0.00733"></path>
<path d="M0.928 0.750 Q0.661 0.684 0.474 0.799" stroke="hsl(0.0,100%,35%)" stroke-width="0.00367"></path>
<path d="M0.928 0.750 Q0.851 0.696 0.729 0.722" stroke="hsl(0.0,100%,35%)" stroke-width="0.00367"></path>
<path d="M0.928 0.750 Q0.816 0.688 0.670 0.729" stroke="hsl(0.0,100%,35%)" stroke-width="0.00367"></path>
<path d="M0.928 0.750 Q0.537 0.772 0.494 0.968" stroke="hsl(0.0,100%,35%)" stroke-width="0.00367"></path>
<path d="M1.868 0.114 Q1.805 0.094 1.752 0.121" stroke="hsl(0.0,100%,35%)" stroke-width="0.00367"></path>
<path d="M1.868 0.114 Q1.543 0.136 1.515 0.300" stroke="hsl(0.0,100%,35%)" stroke-width="0.00367"></path>
<path d="M1.868 0.114 Q1.782 0.066 1.669 0.098" stroke="hsl(0.0,100%,35%)" stroke-width="0.00367"></path>
<path d="M1.868 0.114 Q1.861 0.071 1.775 0.065" stroke="hsl(0.0,100%,35%)" stroke-width="0.00367"></path>
<path d="M1.476 0.427 Q1.681 0.418 1.710 0.316" stroke="hsl(180.0,100%,35%)" stroke-width="0.00733"></path>
<path d="M1.476 0.427 Q1.686 0.406 1.691 0.298" stroke="hsl(180.0,100%,35%)" stroke-width="0.00367"></path>
<path d="M1.476 0.427 Q1.535 0.430 1.554 0.402" stroke="hsl(180.0,100%,35%)" stroke-width="0.00367"></path>
<path d="M0.425 0.576 Q0.506 0.506 0.387 0.451" stroke="hsl(0.0,100%,35%)" stroke-width="0.01467"></path>
<path d="M0.425 0.576 Q0.348 0.483 0.148 0.500" stroke="hsl(0.0,100%,35%)" stroke-width="0.01467"></path>
<path d="M0.425 0.576 Q0.257 0.531 0.131 0.603" stroke="hsl(0.0,100%,35%)" stroke-width="0.00367"></path>
<path d="M0.425 0.576 Q0.458 0.615 0.540 0.607" stroke="hsl(0.0,100%,35%)" stroke-width="0.00367"></path>
<path d="M0.425 0.576 Q1.191 0.656 1.515 0.300" stroke="hsl(0.0,100%,35%)" stroke-width="0.00733"></path>
<path d="M0.425 0.576 Q1.404 0.687 1.835 0.234" stroke="hsl(0.0,100%,35%)" stroke-width="0.00367"></path>
<path d="M1.673 0.381 Q1.715 0.415 1.790 0.402" stroke="hsl(270.0,100%,35%)" stroke-width="0.00367"></path>
<path d="M1.673 0.381 Q1.743 0.394 1.784 0.363" stroke="hsl(270.0,100%,35%)" stroke-width="0.00733"></path>
<path d="M1.673 0.381 Q1.745 0.420 1.837 0.394" stroke="hsl(270.0,100%,35%)" stroke-width="0.00367"></path>
<path d="M1.129 0.794 Q1.078 0.803 1.084 0.830" stroke="hsl(0.0,100%,35%)" stroke-width="0.00367"></path>
<path d="M1.129 0.794 Q1.174 0.667 0.936 0.617" stroke="hsl(0.0,100%,35%)" stroke-width="0.00367"></path>
<path d="M1.129 0.794 Q1.101 0.588 0.693 0.557" stroke="hsl(0.0,100%,35%)" stroke-width="0.00367"></path>
</g>
<text x="1.258" y="0.167" font-size="0.039488" fill="hsl(0.0,100%,20%)">adrian.ratiu</text>
<text x="1.002" y="0.194" font-size="0.021785" fill="hsl(0.0,100%,20%)">gbiv</text>
<text x="1.321" y="0.062" font-size="0.016468" fill="hsl(0.0,100%,20%)">jorgelo</text>
<text x="1.137" y="0.136" font-size="0.011644" fill="hsl(0.0,100%,20%)">jeffxu</text>
<text x="1.280" y="0.277" font-size="0.016468" fill="hsl(90.0,100%,20%)">rborzello</text>
<text x="1.025" y="0.118" font-size="0.011644" fill="hsl(0.0,100%,20%)">akhna</text>
<text x="1.407" y="0.209" font-size="0.016468" fill="hsl(0.0,100%,20%)">inglorion</text>
<text x="0.494" y="0.952" font-size="0.031890" fill="hsl(0.0,100%,20%)">weiluanwang</text>
<text x="1.028" y="0.204" font-size="0.008234" fill="hsl(0.0,100%,20%)">kamesan</text>
<text x="1.351" y="0.319" font-size="0.008234" fill="hsl(0.0,100%,20%)">wtlee</text>
<text x="1.100" y="0.521" font-size="0.038620" fill="hsl(0.0,100%,20%)">allenshihmc</text>
<text x="1.195" y="0.394" font-size="0.034933" fill="hsl(0.0,100%,20%)">wyuang</text>
<text x="1.246" y="0.628" font-size="0.008234" fill="hsl(0.0,100%,20%)">ckclark</text>
<text x="0.082" y="0.262" font-size="0.036823" fill="hsl(0.0,100%,20%)">jeffulin</text>
<text x="1.515" y="0.289" font-size="0.023289" fill="hsl(0.0,100%,20%)">hidehiko</text>
<text x="0.249" y="0.337" font-size="0.011644" fill="hsl(0.0,100%,20%)">gwendal</text>
<text x="1.122" y="1.004" font-size="0.024702" fill="hsl(0.0,100%,20%)">andrewlassalle</text>
<text x="1.131" y="0.795" font-size="0.011644" fill="hsl(0.0,100%,20%)">madhavadas</text>
<text x="1.277" y="0.930" font-size="0.011644" fill="hsl(0.0,100%,20%)">danielwinkler</text>
<text x="1.273" y="0.921" font-size="0.021785" fill="hsl(0.0,100%,20%)">troywang</text>
<text x="0.526" y="0.847" font-size="0.011644" fill="hsl(0.0,100%,20%)">ejcaruso</text>
<text x="1.274" y="1.017" font-size="0.008234" fill="hsl(0.0,100%,20%)">rmao</text>
<text x="0.942" y="0.296" font-size="0.024702" fill="hsl(0.0,100%,20%)">kimjae</text>
<text x="0.849" y="0.890" font-size="0.030808" fill="hsl(0.0,100%,20%)">byronlee</text>
<text x="1.154" y="0.815" font-size="0.008234" fill="hsl(0.0,100%,20%)">momohatt</text>
<text x="1.080" y="0.943" font-size="0.008234" fill="hsl(0.0,100%,20%)">hanlinchen</text>
<text x="0.624" y="0.878" font-size="0.008234" fill="hsl(0.0,100%,20%)">yunkec</text>
<text x="0.900" y="1.014" font-size="0.008234" fill="hsl(0.0,100%,20%)">derekhuang</text>
<text x="0.693" y="0.543" font-size="0.027309" fill="hsl(0.0,100%,20%)">diwux</text>
<text x="1.900" y="0.638" font-size="0.046578" fill="hsl(0.0,100%,20%)">jiejiang</text>
<text x="0.717" y="0.820" font-size="0.016468" fill="hsl(0.0,100%,20%)">mqg</text>
<text x="1.048" y="0.803" font-size="0.008234" fill="hsl(0.0,100%,20%)">accorsi</text>
<text x="1.588" y="0.478" font-size="0.028523" fill="hsl(0.0,100%,20%)">chenzikai</text>
<text x="1.889" y="0.496" font-size="0.048011" fill="hsl(0.0,100%,20%)">hugobenichi</text>
<text x="1.582" y="0.406" font-size="0.008234" fill="hsl(0.0,100%,20%)">toyoshim</text>
<text x="0.271" y="0.679" font-size="0.016468" fill="hsl(0.0,100%,20%)">cuicuiruan</text>
<text x="0.083" y="0.762" font-size="0.008234" fill="hsl(0.0,100%,20%)">waihong</text>
<text x="0.216" y="0.790" font-size="0.008234" fill="hsl(0.0,100%,20%)">lovisolo</text>
<text x="0.323" y="0.767" font-size="0.008234" fill="hsl(0.0,100%,20%)">rbock</text>
<text x="0.892" y="0.620" font-size="0.008234" fill="hsl(0.0,100%,20%)">mpolzer</text>
<text x="0.325" y="0.154" font-size="0.018411" fill="hsl(0.0,100%,20%)">chharry</text>
<text x="0.936" y="0.612" font-size="0.011644" fill="hsl(0.0,100%,20%)">dihimono</text>
<text x="0.683" y="0.676" font-size="0.020169" fill="hsl(0.0,100%,20%)">jettrink</text>
<text x="0.613" y="0.231" font-size="0.021785" fill="hsl(0.0,100%,20%)">sarthakkukreti</text>
<text x="0.474" y="0.792" font-size="0.014261" fill="hsl(0.0,100%,20%)">hcyang</text>
<text x="1.365" y="0.686" font-size="0.020169" fill="hsl(0.0,100%,20%)">eizan</text>
<text x="1.232" y="0.664" font-size="0.008234" fill="hsl(0.0,100%,20%)">curtis.chen</text>
<text x="1.453" y="0.646" font-size="0.008234" fill="hsl(0.0,100%,20%)">sammc</text>
<text x="1.416" y="0.602" font-size="0.011644" fill="hsl(90.0,100%,20%)">puthik</text>
<text x="1.211" y="0.739" font-size="0.008234" fill="hsl(0.0,100%,20%)">glevin</text>
<text x="0.803" y="0.145" font-size="0.026038" fill="hsl(0.0,100%,20%)">fdegros</text>
<text x="0.746" y="0.043" font-size="0.021785" fill="hsl(0.0,100%,20%)">benreich</text>
<text x="0.739" y="0.114" font-size="0.008234" fill="hsl(0.0,100%,20%)">jboulic</text>
<text x="1.487" y="0.200" font-size="0.011644" fill="hsl(0.0,100%,20%)">akahuang</text>
<text x="1.726" y="0.468" font-size="0.014261" fill="hsl(0.0,100%,20%)">jasongustaman</text>
<text x="1.951" y="0.322" font-size="0.018411" fill="hsl(0.0,100%,20%)">matthewmwang</text>
<text x="0.060" y="0.381" font-size="0.023289" fill="hsl(0.0,100%,20%)">kevinptt</text>
<text x="0.286" y="0.366" font-size="0.008234" fill="hsl(0.0,100%,20%)">andreaorru</text>
<text x="1.835" y="0.224" font-size="0.020169" fill="hsl(0.0,100%,20%)">vraheja</text>
<text x="0.357" y="0.289" font-size="0.008234" fill="hsl(0.0,100%,20%)">chenghan</text>
<text x="1.669" y="0.728" font-size="0.011644" fill="hsl(0.0,100%,20%)">aashay</text>
<text x="1.736" y="0.693" font-size="0.008234" fill="hsl(0.0,100%,20%)">tfiga</text>
<text x="1.847" y="0.750" font-size="0.008234" fill="hsl(0.0,100%,20%)">jintaolin</text>
<text x="1.003" y="0.223" font-size="0.011644" fill="hsl(90.0,100%,20%)">yuanpengni</text>
<text x="1.028" y="0.256" font-size="0.011644" fill="hsl(0.0,100%,20%)">allenwebb</text>
<text x="1.268" y="0.780" font-size="0.014261" fill="hsl(90.0,100%,20%)">tinghaolin</text>
<text x="1.177" y="0.286" font-size="0.008234" fill="hsl(90.0,100%,20%)">joaquinmarquez</text>
<text x="1.885" y="0.311" font-size="0.008234" fill="hsl(0.0,100%,20%)">druth</text>
<text x="1.904" y="0.369" font-size="0.008234" fill="hsl(0.0,100%,20%)">norvez</text>
<text x="1.487" y="0.075" font-size="0.020169" fill="hsl(0.0,100%,20%)">motorman</text>
<text x="1.669" y="0.089" font-size="0.016468" fill="hsl(0.0,100%,20%)">vapier</text>
<text x="0.221" y="0.081" font-size="0.027309" fill="hsl(0.0,100%,20%)">ndureus</text>
<text x="0.448" y="0.023" font-size="0.008234" fill="hsl(90.0,100%,20%)">howardchung</text>
<text x="0.129" y="0.113" font-size="0.008234" fill="hsl(90.0,100%,20%)">josephsussman</text>
<text x="1.710" y="0.962" font-size="0.041169" fill="hsl(90.0,100%,20%)">jefferymiller</text>
<text x="0.526" y="0.081" font-size="0.008234" fill="hsl(0.0,100%,20%)">apusaka</text>
<text x="0.194" y="0.069" font-size="0.011644" fill="hsl(90.0,100%,20%)">ballway</text>
<text x="1.618" y="0.191" font-size="0.018411" fill="hsl(0.0,100%,20%)">neis</text>
<text x="1.581" y="0.146" font-size="0.008234" fill="hsl(0.0,100%,20%)">granaghan</text>
<text x="1.925" y="0.197" font-size="0.014261" fill="hsl(0.0,100%,20%)">zuan</text>
<text x="1.733" y="0.855" font-size="0.049403" fill="hsl(90.0,100%,20%)">nicholasbishop</text>
<text x="1.536" y="0.943" font-size="0.016468" fill="hsl(90.0,100%,20%)">justinoue</text>
<text x="1.467" y="0.897" font-size="0.035891" fill="hsl(90.0,100%,20%)">tbrandston</text>
<text x="1.536" y="0.782" font-size="0.023289" fill="hsl(90.0,100%,20%)">andrebraga</text>
<text x="0.928" y="0.733" font-size="0.033949" fill="hsl(0.0,100%,20%)">nmuggli</text>
<text x="1.092" y="0.720" font-size="0.008234" fill="hsl(0.0,100%,20%)">dverkamp</text>
<text x="1.099" y="0.652" font-size="0.011644" fill="hsl(0.0,100%,20%)">aaronmassey</text>
<text x="0.642" y="0.772" font-size="0.011644" fill="hsl(0.0,100%,20%)">jchinlee</text>
<text x="1.037" y="0.833" font-size="0.008234" fill="hsl(0.0,100%,20%)">okuji</text>
<text x="1.086" y="0.644" font-size="0.008234" fill="hsl(0.0,100%,20%)">jimmyxgong</text>
<text x="0.729" y="0.718" font-size="0.008234" fill="hsl(0.0,100%,20%)">alanlxl</text>
<text x="0.670" y="0.725" font-size="0.008234" fill="hsl(0.0,100%,20%)">jmpollock</text>
<text x="1.868" y="0.106" font-size="0.016468" fill="hsl(0.0,100%,20%)">semenzato</text>
<text x="1.752" y="0.117" font-size="0.008234" fill="hsl(0.0,100%,20%)">glaznev</text>
<text x="1.775" y="0.061" font-size="0.008234" fill="hsl(0.0,100%,20%)">xiyuan</text>
<text x="1.476" y="0.418" font-size="0.016468" fill="hsl(180.0,100%,20%)">senozhatsky</text>
<text x="1.710" y="0.310" font-size="0.011644" fill="hsl(180.0,100%,20%)">ribalda</text>
<text x="1.691" y="0.294" font-size="0.008234" fill="hsl(180.0,100%,20%)">bgeffon</text>
<text x="1.554" y="0.398" font-size="0.008234" fill="hsl(180.0,100%,20%)">poromov</text>
<text x="1.422" y="1.023" font-size="0.008234" fill="hsl(90.0,100%,20%)">jiaozhou</text>
<text x="1.360" y="0.791" font-size="0.008234" fill="hsl(90.0,100%,20%)">ptf</text>
<text x="0.425" y="0.560" font-size="0.031890" fill="hsl(0.0,100%,20%)">uekawa</text>
<text x="0.387" y="0.443" font-size="0.016468" fill="hsl(0.0,100%,20%)">chibar</text>
<text x="0.148" y="0.492" font-size="0.016468" fill="hsl(0.0,100%,20%)">drmasquatch</text>
<text x="0.131" y="0.599" font-size="0.008234" fill="hsl(0.0,100%,20%)">dtor</text>
<text x="0.540" y="0.603" font-size="0.008234" fill="hsl(0.0,100%,20%)">yuanyaogoog</text>
<text x="1.673" y="0.373" font-size="0.016468" fill="hsl(270.0,100%,20%)">vovoy</text>
<text x="1.790" y="0.397" font-size="0.008234" fill="hsl(270.0,100%,20%)">kawasin</text>
<text x="1.784" y="0.358" font-size="0.011644" fill="hsl(270.0,100%,20%)">chinglinyu</text>
<text x="1.837" y="0.390" font-size="0.008234" fill="hsl(270.0,100%,20%)">stevensd</text>
<text x="1.764" y="0.272" font-size="0.008234" fill="hsl(0.0,100%,20%)">yaohuali</text>
<text x="1.916" y="0.154" font-size="0.008234" fill="hsl(0.0,100%,20%)">sukhomlinov</text>
<text x="0.601" y="0.862" font-size="0.008234" fill="hsl(0.0,100%,20%)">igorcov</text>
<text x="0.430" y="0.869" font-size="0.008234" fill="hsl(0.0,100%,20%)">chenghaoyang</text>
<text x="0.278" y="0.899" font-size="0.008234" fill="hsl(0.0,100%,20%)">alevkoy</text>
<text x="1.129" y="0.787" font-size="0.014261" fill="hsl(0.0,100%,20%)">yoshiki</text>
<text x="1.084" y="0.826" font-size="0.008234" fill="hsl(0.0,100%,20%)">chungsheng</text>
</svg>
