<svg width="4000" height="2000" viewBox="-0.025 -0.025 2.05 1.05" xmlns="http://www.w3.org/2000/svg">
  <style>
    path {
      fill: none;
      stroke-linecap: round;
      stroke-opacity: 0.4;
    }

    text {
      text-anchor: middle;
      alignment-baseline: hanging;
    }
  </style>
  <g opacity="0.4">
<path d="M1.407 0.366 Q1.193 0.256 0.929 0.336" stroke="hsl(0.0,100%,35%)" stroke-width="0.01269"></path>
<path d="M1.407 0.366 Q1.296 0.535 1.601 0.626" stroke="hsl(0.0,100%,35%)" stroke-width="0.00634"></path>
<path d="M1.407 0.366 Q1.220 0.707 1.843 0.873" stroke="hsl(0.0,100%,35%)" stroke-width="0.00634"></path>
<path d="M1.407 0.366 Q1.418 0.161 1.019 0.111" stroke="hsl(0.0,100%,35%)" stroke-width="0.00634"></path>
<path d="M1.407 0.366 Q1.464 0.266 1.281 0.217" stroke="hsl(0.0,100%,35%)" stroke-width="0.00634"></path>
<path d="M1.601 0.626 Q1.539 0.508 1.294 0.512" stroke="hsl(240.0,100%,35%)" stroke-width="0.04440"></path>
<path d="M1.601 0.626 Q1.712 0.458 1.407 0.366" stroke="hsl(240.0,100%,35%)" stroke-width="0.01269"></path>
<path d="M1.601 0.626 Q1.497 0.347 0.929 0.336" stroke="hsl(240.0,100%,35%)" stroke-width="0.00634"></path>
<path d="M1.601 0.626 Q1.496 0.589 1.399 0.631" stroke="hsl(240.0,100%,35%)" stroke-width="0.00634"></path>
<path d="M1.601 0.626 Q1.695 0.686 1.832 0.653" stroke="hsl(240.0,100%,35%)" stroke-width="0.00634"></path>
<path d="M1.843 0.873 Q2.041 0.327 1.019 0.111" stroke="hsl(0.0,100%,35%)" stroke-width="0.02537"></path>
<path d="M1.843 0.873 Q1.858 0.583 1.294 0.512" stroke="hsl(0.0,100%,35%)" stroke-width="0.00634"></path>
<path d="M1.843 0.873 Q1.611 0.841 1.497 0.948" stroke="hsl(0.0,100%,35%)" stroke-width="0.00634"></path>
<path d="M1.843 0.873 Q1.816 0.422 0.929 0.336" stroke="hsl(0.0,100%,35%)" stroke-width="0.00634"></path>
<path d="M1.843 0.873 Q2.087 0.432 1.281 0.217" stroke="hsl(0.0,100%,35%)" stroke-width="0.00634"></path>
<path d="M1.281 0.217 Q1.224 0.317 1.407 0.366" stroke="hsl(0.0,100%,35%)" stroke-width="0.01269"></path>
<path d="M1.281 0.217 Q1.235 0.112 1.019 0.111" stroke="hsl(0.0,100%,35%)" stroke-width="0.02537"></path>
<path d="M1.281 0.217 Q1.037 0.658 1.843 0.873" stroke="hsl(0.0,100%,35%)" stroke-width="0.02537"></path>
<path d="M0.626 0.401 Q0.829 0.429 0.929 0.336" stroke="hsl(0.0,100%,35%)" stroke-width="0.01269"></path>
<path d="M0.626 0.401 Q0.871 0.590 1.294 0.512" stroke="hsl(0.0,100%,35%)" stroke-width="0.01903"></path>
<path d="M0.626 0.401 Q0.857 0.880 1.843 0.873" stroke="hsl(0.0,100%,35%)" stroke-width="0.00634"></path>
<path d="M0.626 0.401 Q1.055 0.334 1.019 0.111" stroke="hsl(0.0,100%,35%)" stroke-width="0.01903"></path>
<path d="M0.626 0.401 Q0.933 0.708 1.601 0.626" stroke="hsl(0.0,100%,35%)" stroke-width="0.00634"></path>
<path d="M0.279 0.253 Q0.538 0.424 0.929 0.336" stroke="hsl(120.0,100%,35%)" stroke-width="0.01903"></path>
<path d="M0.279 0.253 Q0.388 0.190 0.290 0.123" stroke="hsl(120.0,100%,35%)" stroke-width="0.01269"></path>
<path d="M0.279 0.253 Q0.481 0.262 0.543 0.165" stroke="hsl(120.0,100%,35%)" stroke-width="0.00634"></path>
<path d="M1.870 0.531 Q1.659 0.525 1.601 0.626" stroke="hsl(240.0,100%,35%)" stroke-width="0.01903"></path>
<path d="M1.870 0.531 Q1.781 0.151 1.019 0.111" stroke="hsl(240.0,100%,35%)" stroke-width="0.00634"></path>
<path d="M1.870 0.531 Q1.597 0.406 1.294 0.512" stroke="hsl(240.0,100%,35%)" stroke-width="0.00634"></path>
<path d="M1.870 0.531 Q1.556 0.245 0.929 0.336" stroke="hsl(240.0,100%,35%)" stroke-width="0.00634"></path>
<path d="M0.745 0.572 Q1.026 0.491 0.929 0.336" stroke="hsl(120.0,100%,35%)" stroke-width="0.00634"></path>
<path d="M0.745 0.572 Q0.823 0.463 0.626 0.401" stroke="hsl(120.0,100%,35%)" stroke-width="0.00634"></path>
<path d="M0.745 0.572 Q0.876 0.257 0.290 0.123" stroke="hsl(120.0,100%,35%)" stroke-width="0.00634"></path>
<path d="M1.751 0.401 Q1.420 0.656 1.843 0.873" stroke="hsl(120.0,100%,35%)" stroke-width="0.00634"></path>
<path d="M1.751 0.401 Q1.496 0.484 1.601 0.626" stroke="hsl(120.0,100%,35%)" stroke-width="0.01269"></path>
<path d="M1.751 0.401 Q1.134 0.033 0.279 0.253" stroke="hsl(120.0,100%,35%)" stroke-width="0.00634"></path>
</g>
<text x="1.407" y="0.339" font-size="0.055470" fill="hsl(0.0,100%,20%)">amaiorano</text>
<text x="0.929" y="0.307" font-size="0.058177" fill="hsl(120.0,100%,20%)">cwallez</text>
<text x="1.601" y="0.588" font-size="0.076460" fill="hsl(240.0,100%,20%)">kainino</text>
<text x="1.843" y="0.839" font-size="0.067937" fill="hsl(0.0,100%,20%)">dsinclair</text>
<text x="1.019" y="0.079" font-size="0.063246" fill="hsl(0.0,100%,20%)">jrprice</text>
<text x="1.281" y="0.186" font-size="0.060764" fill="hsl(0.0,100%,20%)">rharrison</text>
<text x="1.294" y="0.482" font-size="0.060764" fill="hsl(240.0,100%,20%)">lokokung</text>
<text x="1.497" y="0.939" font-size="0.017541" fill="hsl(0.0,100%,20%)">petermcneeley</text>
<text x="0.626" y="0.372" font-size="0.058177" fill="hsl(0.0,100%,20%)">jiawei.shao</text>
<text x="1.399" y="0.623" font-size="0.017541" fill="hsl(240.0,100%,20%)">gman</text>
<text x="1.832" y="0.645" font-size="0.017541" fill="hsl(240.0,100%,20%)">bsheedy</text>
<text x="0.279" y="0.230" font-size="0.046410" fill="hsl(120.0,100%,20%)">shaoboyan</text>
<text x="0.290" y="0.108" font-size="0.030382" fill="hsl(120.0,100%,20%)">lehoangquyen</text>
<text x="0.543" y="0.156" font-size="0.017541" fill="hsl(120.0,100%,20%)">geofflang</text>
<text x="1.870" y="0.509" font-size="0.042967" fill="hsl(240.0,100%,20%)">shrekshao</text>
<text x="0.745" y="0.557" font-size="0.030382" fill="hsl(120.0,100%,20%)">xing.xu</text>
<text x="1.751" y="0.384" font-size="0.035082" fill="hsl(120.0,100%,20%)">yulong.fs</text>
</svg>
