<svg width="4000" height="2000" viewBox="-0.025 -0.025 2.05 1.05" xmlns="http://www.w3.org/2000/svg">
  <style>
    path {
      fill: none;
      stroke-linecap: round;
      stroke-opacity: 0.4;
    }

    text {
      text-anchor: middle;
      alignment-baseline: hanging;
    }
  </style>
  <g opacity="0.4">
<path d="M1.630 0.547 Q1.701 0.204 1.047 0.094" stroke="hsl(0.0,100%,35%)" stroke-width="0.00050"></path>
<path d="M1.630 0.547 Q1.752 0.498 1.684 0.428" stroke="hsl(0.0,100%,35%)" stroke-width="0.00275"></path>
<path d="M1.630 0.547 Q1.508 0.300 1.000 0.306" stroke="hsl(0.0,100%,35%)" stroke-width="0.00100"></path>
<path d="M1.047 0.094 Q0.854 0.190 1.000 0.306" stroke="hsl(0.0,100%,35%)" stroke-width="0.02699"></path>
<path d="M1.047 0.094 Q0.969 0.067 0.898 0.099" stroke="hsl(0.0,100%,35%)" stroke-width="0.00025"></path>
<path d="M1.047 0.094 Q0.765 0.070 0.656 0.202" stroke="hsl(0.0,100%,35%)" stroke-width="0.00375"></path>
<path d="M1.047 0.094 Q0.677 0.170 0.745 0.367" stroke="hsl(0.0,100%,35%)" stroke-width="0.00550"></path>
<path d="M1.047 0.094 Q1.099 0.388 1.684 0.428" stroke="hsl(0.0,100%,35%)" stroke-width="0.00050"></path>
<path d="M1.047 0.094 Q0.397 0.363 0.780 0.739" stroke="hsl(0.0,100%,35%)" stroke-width="0.00075"></path>
<path d="M1.047 0.094 Q0.760 0.306 1.111 0.493" stroke="hsl(0.0,100%,35%)" stroke-width="0.00175"></path>
<path d="M1.047 0.094 Q1.050 0.137 1.135 0.146" stroke="hsl(0.0,100%,35%)" stroke-width="0.00075"></path>
<path d="M1.684 0.428 Q0.983 0.402 0.780 0.739" stroke="hsl(0.0,100%,35%)" stroke-width="0.00225"></path>
<path d="M1.684 0.428 Q1.351 0.109 0.656 0.202" stroke="hsl(0.0,100%,35%)" stroke-width="0.00075"></path>
<path d="M1.684 0.428 Q0.726 0.406 0.474 0.869" stroke="hsl(0.0,100%,35%)" stroke-width="0.00050"></path>
<path d="M1.684 0.428 Q1.440 0.230 1.000 0.306" stroke="hsl(0.0,100%,35%)" stroke-width="0.00675"></path>
<path d="M1.684 0.428 Q1.636 0.177 1.135 0.146" stroke="hsl(0.0,100%,35%)" stroke-width="0.00150"></path>
<path d="M1.684 0.428 Q1.151 0.266 0.718 0.490" stroke="hsl(0.0,100%,35%)" stroke-width="0.00025"></path>
<path d="M1.684 0.428 Q1.633 0.133 1.047 0.094" stroke="hsl(0.0,100%,35%)" stroke-width="0.00125"></path>
<path d="M1.684 0.428 Q1.263 0.210 0.745 0.367" stroke="hsl(0.0,100%,35%)" stroke-width="0.00075"></path>
<path d="M1.684 0.428 Q1.346 0.346 1.111 0.493" stroke="hsl(0.0,100%,35%)" stroke-width="0.00050"></path>
<path d="M1.684 0.428 Q1.562 0.476 1.630 0.547" stroke="hsl(0.0,100%,35%)" stroke-width="0.00050"></path>
<path d="M1.000 0.306 Q0.543 0.478 0.780 0.739" stroke="hsl(0.0,100%,35%)" stroke-width="0.01550"></path>
<path d="M1.000 0.306 Q1.196 0.253 1.135 0.146" stroke="hsl(0.0,100%,35%)" stroke-width="0.03199"></path>
<path d="M1.000 0.306 Q1.267 0.416 1.541 0.311" stroke="hsl(0.0,100%,35%)" stroke-width="0.00075"></path>
<path d="M1.000 0.306 Q0.911 0.185 0.656 0.202" stroke="hsl(0.0,100%,35%)" stroke-width="0.03649"></path>
<path d="M1.000 0.306 Q1.193 0.209 1.047 0.094" stroke="hsl(0.0,100%,35%)" stroke-width="0.04224"></path>
<path d="M1.000 0.306 Q0.906 0.421 1.111 0.493" stroke="hsl(0.0,100%,35%)" stroke-width="0.02624"></path>
<path d="M1.000 0.306 Q1.244 0.504 1.684 0.428" stroke="hsl(0.0,100%,35%)" stroke-width="0.00350"></path>
<path d="M1.000 0.306 Q0.823 0.286 0.745 0.367" stroke="hsl(0.0,100%,35%)" stroke-width="0.01700"></path>
<path d="M1.000 0.306 Q0.286 0.482 0.474 0.869" stroke="hsl(0.0,100%,35%)" stroke-width="0.00100"></path>
<path d="M1.000 0.306 Q0.400 0.536 0.717 0.879" stroke="hsl(0.0,100%,35%)" stroke-width="0.00025"></path>
<path d="M1.000 0.306 Q1.148 0.296 1.163 0.222" stroke="hsl(0.0,100%,35%)" stroke-width="0.00200"></path>
<path d="M1.000 0.306 Q0.862 0.340 0.898 0.415" stroke="hsl(0.0,100%,35%)" stroke-width="0.00025"></path>
<path d="M1.439 0.603 Q1.363 0.482 1.111 0.493" stroke="hsl(180.0,100%,35%)" stroke-width="0.00050"></path>
<path d="M1.439 0.603 Q1.001 0.539 0.780 0.739" stroke="hsl(180.0,100%,35%)" stroke-width="0.00025"></path>
<path d="M1.439 0.603 Q1.458 0.367 1.000 0.306" stroke="hsl(180.0,100%,35%)" stroke-width="0.00025"></path>
<path d="M1.111 0.493 Q0.748 0.550 0.780 0.739" stroke="hsl(180.0,100%,35%)" stroke-width="0.02699"></path>
<path d="M1.111 0.493 Q1.116 0.256 0.656 0.202" stroke="hsl(180.0,100%,35%)" stroke-width="0.00275"></path>
<path d="M1.111 0.493 Q0.950 0.488 0.905 0.565" stroke="hsl(180.0,100%,35%)" stroke-width="0.01200"></path>
<path d="M1.111 0.493 Q1.205 0.377 1.000 0.306" stroke="hsl(180.0,100%,35%)" stroke-width="0.01650"></path>
<path d="M1.111 0.493 Q0.916 0.413 0.718 0.490" stroke="hsl(180.0,100%,35%)" stroke-width="0.00075"></path>
<path d="M1.111 0.493 Q0.605 0.607 0.717 0.879" stroke="hsl(180.0,100%,35%)" stroke-width="0.00175"></path>
<path d="M1.111 0.493 Q0.973 0.567 1.088 0.651" stroke="hsl(180.0,100%,35%)" stroke-width="0.00025"></path>
<path d="M1.111 0.493 Q0.491 0.553 0.474 0.869" stroke="hsl(180.0,100%,35%)" stroke-width="0.00575"></path>
<path d="M1.111 0.493 Q1.398 0.281 1.047 0.094" stroke="hsl(180.0,100%,35%)" stroke-width="0.00025"></path>
<path d="M1.111 0.493 Q1.028 0.357 0.745 0.367" stroke="hsl(180.0,100%,35%)" stroke-width="0.00100"></path>
<path d="M1.111 0.493 Q1.449 0.575 1.684 0.428" stroke="hsl(180.0,100%,35%)" stroke-width="0.00075"></path>
<path d="M1.111 0.493 Q1.211 0.554 1.354 0.519" stroke="hsl(180.0,100%,35%)" stroke-width="0.00025"></path>
<path d="M1.111 0.493 Q0.967 0.636 1.215 0.738" stroke="hsl(180.0,100%,35%)" stroke-width="0.00025"></path>
<path d="M1.111 0.493 Q1.198 0.640 1.504 0.630" stroke="hsl(180.0,100%,35%)" stroke-width="0.00025"></path>
<path d="M1.111 0.493 Q1.070 0.610 1.290 0.656" stroke="hsl(180.0,100%,35%)" stroke-width="0.00025"></path>
<path d="M0.780 0.739 Q0.948 0.602 0.718 0.490" stroke="hsl(180.0,100%,35%)" stroke-width="0.00400"></path>
<path d="M0.780 0.739 Q1.142 0.682 1.111 0.493" stroke="hsl(180.0,100%,35%)" stroke-width="0.01575"></path>
<path d="M0.780 0.739 Q0.522 0.743 0.474 0.869" stroke="hsl(180.0,100%,35%)" stroke-width="0.00475"></path>
<path d="M0.780 0.739 Q0.982 0.677 0.905 0.565" stroke="hsl(180.0,100%,35%)" stroke-width="0.01749"></path>
<path d="M0.780 0.739 Q1.236 0.566 1.000 0.306" stroke="hsl(180.0,100%,35%)" stroke-width="0.00575"></path>
<path d="M0.780 0.739 Q0.636 0.796 0.717 0.879" stroke="hsl(180.0,100%,35%)" stroke-width="0.00425"></path>
<path d="M0.780 0.739 Q1.340 0.613 1.217 0.312" stroke="hsl(180.0,100%,35%)" stroke-width="0.00025"></path>
<path d="M0.780 0.739 Q0.901 0.891 1.225 0.865" stroke="hsl(180.0,100%,35%)" stroke-width="0.00025"></path>
<path d="M0.780 0.739 Q0.977 0.735 1.013 0.638" stroke="hsl(180.0,100%,35%)" stroke-width="0.00100"></path>
<path d="M0.780 0.739 Q1.147 0.446 0.656 0.202" stroke="hsl(180.0,100%,35%)" stroke-width="0.00025"></path>
<path d="M0.780 0.739 Q1.243 0.744 1.354 0.519" stroke="hsl(180.0,100%,35%)" stroke-width="0.00025"></path>
<path d="M0.780 0.739 Q1.430 0.470 1.047 0.094" stroke="hsl(180.0,100%,35%)" stroke-width="0.00025"></path>
<path d="M0.780 0.739 Q1.481 0.764 1.684 0.428" stroke="hsl(180.0,100%,35%)" stroke-width="0.00025"></path>
<path d="M0.780 0.739 Q1.059 0.546 0.745 0.367" stroke="hsl(180.0,100%,35%)" stroke-width="0.00025"></path>
<path d="M0.780 0.739 Q0.740 0.524 0.313 0.496" stroke="hsl(180.0,100%,35%)" stroke-width="0.00050"></path>
<path d="M0.780 0.739 Q1.432 0.513 1.135 0.146" stroke="hsl(180.0,100%,35%)" stroke-width="0.00025"></path>
<path d="M0.656 0.202 Q0.745 0.323 1.000 0.306" stroke="hsl(0.0,100%,35%)" stroke-width="0.03499"></path>
<path d="M0.656 0.202 Q0.651 0.438 1.111 0.493" stroke="hsl(0.0,100%,35%)" stroke-width="0.01425"></path>
<path d="M0.656 0.202 Q0.288 0.495 0.780 0.739" stroke="hsl(0.0,100%,35%)" stroke-width="0.00200"></path>
<path d="M0.656 0.202 Q0.938 0.226 1.047 0.094" stroke="hsl(0.0,100%,35%)" stroke-width="0.00250"></path>
<path d="M0.656 0.202 Q0.941 0.270 1.135 0.146" stroke="hsl(0.0,100%,35%)" stroke-width="0.00025"></path>
<path d="M0.656 0.202 Q0.990 0.521 1.684 0.428" stroke="hsl(0.0,100%,35%)" stroke-width="0.00125"></path>
<path d="M0.656 0.202 Q0.031 0.499 0.474 0.869" stroke="hsl(0.0,100%,35%)" stroke-width="0.00050"></path>
<path d="M0.656 0.202 Q0.894 0.313 1.163 0.222" stroke="hsl(0.0,100%,35%)" stroke-width="0.00025"></path>
<path d="M0.745 0.367 Q0.922 0.388 1.000 0.306" stroke="hsl(0.0,100%,35%)" stroke-width="0.01300"></path>
<path d="M0.745 0.367 Q1.118 0.335 1.135 0.146" stroke="hsl(0.0,100%,35%)" stroke-width="0.00175"></path>
<path d="M0.745 0.367 Q0.322 0.617 0.717 0.879" stroke="hsl(0.0,100%,35%)" stroke-width="0.00100"></path>
<path d="M0.745 0.367 Q0.465 0.560 0.780 0.739" stroke="hsl(0.0,100%,35%)" stroke-width="0.00075"></path>
<path d="M0.745 0.367 Q1.115 0.291 1.047 0.094" stroke="hsl(0.0,100%,35%)" stroke-width="0.00125"></path>
<path d="M0.745 0.367 Q1.050 0.515 1.405 0.399" stroke="hsl(0.0,100%,35%)" stroke-width="0.00025"></path>
<path d="M0.745 0.367 Q0.833 0.267 0.656 0.202" stroke="hsl(0.0,100%,35%)" stroke-width="0.00025"></path>
<path d="M0.745 0.367 Q0.828 0.503 1.111 0.493" stroke="hsl(0.0,100%,35%)" stroke-width="0.00050"></path>
<path d="M1.135 0.146 Q0.940 0.199 1.000 0.306" stroke="hsl(0.0,100%,35%)" stroke-width="0.00575"></path>
<path d="M1.135 0.146 Q0.483 0.371 0.780 0.739" stroke="hsl(0.0,100%,35%)" stroke-width="0.00050"></path>
<path d="M1.135 0.146 Q0.850 0.078 0.656 0.202" stroke="hsl(0.0,100%,35%)" stroke-width="0.00025"></path>
<path d="M1.135 0.146 Q1.133 0.102 1.047 0.094" stroke="hsl(0.0,100%,35%)" stroke-width="0.00175"></path>
<path d="M1.135 0.146 Q0.763 0.179 0.745 0.367" stroke="hsl(0.0,100%,35%)" stroke-width="0.00225"></path>
<path d="M0.474 0.869 Q1.093 0.808 1.111 0.493" stroke="hsl(180.0,100%,35%)" stroke-width="0.00575"></path>
<path d="M0.474 0.869 Q0.731 0.865 0.780 0.739" stroke="hsl(180.0,100%,35%)" stroke-width="0.01000"></path>
<path d="M0.474 0.869 Q0.587 0.923 0.717 0.879" stroke="hsl(180.0,100%,35%)" stroke-width="0.00400"></path>
<path d="M0.474 0.869 Q0.899 0.728 0.718 0.490" stroke="hsl(180.0,100%,35%)" stroke-width="0.00100"></path>
<path d="M0.474 0.869 Q0.700 0.731 0.481 0.591" stroke="hsl(180.0,100%,35%)" stroke-width="0.00025"></path>
<path d="M0.474 0.869 Q1.187 0.693 1.000 0.306" stroke="hsl(180.0,100%,35%)" stroke-width="0.00050"></path>
<path d="M0.474 0.869 Q1.011 0.673 0.745 0.367" stroke="hsl(180.0,100%,35%)" stroke-width="0.00025"></path>
<path d="M0.474 0.869 Q0.933 0.803 0.905 0.565" stroke="hsl(180.0,100%,35%)" stroke-width="0.00025"></path>
<path d="M0.717 0.879 Q1.062 0.759 0.905 0.565" stroke="hsl(180.0,100%,35%)" stroke-width="0.00050"></path>
<path d="M0.717 0.879 Q0.860 0.821 0.780 0.739" stroke="hsl(180.0,100%,35%)" stroke-width="0.00200"></path>
<path d="M0.717 0.879 Q1.228 0.528 0.656 0.202" stroke="hsl(180.0,100%,35%)" stroke-width="0.00075"></path>
<path d="M0.717 0.879 Q1.223 0.765 1.111 0.493" stroke="hsl(180.0,100%,35%)" stroke-width="0.00075"></path>
<path d="M0.718 0.490 Q0.912 0.570 1.111 0.493" stroke="hsl(180.0,100%,35%)" stroke-width="0.00250"></path>
<path d="M0.718 0.490 Q0.550 0.627 0.780 0.739" stroke="hsl(180.0,100%,35%)" stroke-width="0.00625"></path>
<path d="M0.718 0.490 Q0.752 0.565 0.905 0.565" stroke="hsl(180.0,100%,35%)" stroke-width="0.00125"></path>
<path d="M0.718 0.490 Q0.406 0.684 0.717 0.879" stroke="hsl(180.0,100%,35%)" stroke-width="0.00050"></path>
<path d="M0.718 0.490 Q0.293 0.631 0.474 0.869" stroke="hsl(180.0,100%,35%)" stroke-width="0.00025"></path>
<path d="M0.718 0.490 Q1.006 0.454 1.000 0.306" stroke="hsl(180.0,100%,35%)" stroke-width="0.00050"></path>
<path d="M0.718 0.490 Q0.830 0.434 0.745 0.367" stroke="hsl(180.0,100%,35%)" stroke-width="0.00025"></path>
<path d="M0.718 0.490 Q1.251 0.652 1.684 0.428" stroke="hsl(180.0,100%,35%)" stroke-width="0.00050"></path>
<path d="M0.481 0.591 Q0.368 0.782 0.717 0.879" stroke="hsl(180.0,100%,35%)" stroke-width="0.00100"></path>
<path d="M0.481 0.591 Q0.874 0.668 1.111 0.493" stroke="hsl(180.0,100%,35%)" stroke-width="0.00375"></path>
<path d="M0.481 0.591 Q0.512 0.724 0.780 0.739" stroke="hsl(180.0,100%,35%)" stroke-width="0.00475"></path>
<path d="M0.481 0.591 Q0.710 0.721 1.013 0.638" stroke="hsl(180.0,100%,35%)" stroke-width="0.00025"></path>
<path d="M0.481 0.591 Q0.656 0.508 0.534 0.405" stroke="hsl(180.0,100%,35%)" stroke-width="0.00025"></path>
<path d="M0.905 0.565 Q0.703 0.627 0.780 0.739" stroke="hsl(180.0,100%,35%)" stroke-width="0.01525"></path>
<path d="M0.905 0.565 Q0.560 0.684 0.717 0.879" stroke="hsl(180.0,100%,35%)" stroke-width="0.00100"></path>
<path d="M0.905 0.565 Q1.160 0.454 1.000 0.306" stroke="hsl(180.0,100%,35%)" stroke-width="0.00075"></path>
<path d="M0.905 0.565 Q1.065 0.570 1.111 0.493" stroke="hsl(180.0,100%,35%)" stroke-width="0.00425"></path>
<path d="M0.905 0.565 Q0.871 0.490 0.718 0.490" stroke="hsl(180.0,100%,35%)" stroke-width="0.00150"></path>
<path d="M1.541 0.311 Q1.180 0.316 1.111 0.493" stroke="hsl(0.0,100%,35%)" stroke-width="0.00250"></path>
<path d="M1.541 0.311 Q0.818 0.372 0.780 0.739" stroke="hsl(0.0,100%,35%)" stroke-width="0.00175"></path>
<path d="M1.541 0.311 Q1.470 0.147 1.135 0.146" stroke="hsl(0.0,100%,35%)" stroke-width="0.00050"></path>
<path d="M1.541 0.311 Q1.274 0.200 1.000 0.306" stroke="hsl(0.0,100%,35%)" stroke-width="0.00800"></path>
<path d="M1.541 0.311 Q1.468 0.103 1.047 0.094" stroke="hsl(0.0,100%,35%)" stroke-width="0.00075"></path>
<path d="M1.541 0.311 Q1.185 0.079 0.656 0.202" stroke="hsl(0.0,100%,35%)" stroke-width="0.00075"></path>
<path d="M1.541 0.311 Q1.519 0.398 1.684 0.428" stroke="hsl(0.0,100%,35%)" stroke-width="0.00050"></path>
<path d="M1.541 0.311 Q0.674 0.430 0.717 0.879" stroke="hsl(0.0,100%,35%)" stroke-width="0.00150"></path>
<path d="M1.541 0.311 Q0.652 0.258 0.353 0.680" stroke="hsl(0.0,100%,35%)" stroke-width="0.00025"></path>
<path d="M1.163 0.222 Q1.014 0.231 1.000 0.306" stroke="hsl(0.0,100%,35%)" stroke-width="0.01874"></path>
<path d="M1.163 0.222 Q0.557 0.404 0.780 0.739" stroke="hsl(0.0,100%,35%)" stroke-width="0.00675"></path>
<path d="M1.163 0.222 Q0.920 0.347 1.111 0.493" stroke="hsl(0.0,100%,35%)" stroke-width="0.00325"></path>
<path d="M1.163 0.222 Q0.759 0.342 0.905 0.565" stroke="hsl(0.0,100%,35%)" stroke-width="0.00050"></path>
<path d="M1.163 0.222 Q1.207 0.135 1.047 0.094" stroke="hsl(0.0,100%,35%)" stroke-width="0.00025"></path>
<path d="M1.163 0.222 Q1.210 0.178 1.135 0.146" stroke="hsl(0.0,100%,35%)" stroke-width="0.00075"></path>
<path d="M1.163 0.222 Q0.837 0.211 0.745 0.367" stroke="hsl(0.0,100%,35%)" stroke-width="0.00075"></path>
<path d="M1.215 0.738 Q1.359 0.594 1.111 0.493" stroke="hsl(180.0,100%,35%)" stroke-width="0.00075"></path>
<path d="M1.215 0.738 Q0.997 0.651 0.780 0.739" stroke="hsl(180.0,100%,35%)" stroke-width="0.00025"></path>
<path d="M1.215 0.738 Q0.739 0.655 0.474 0.869" stroke="hsl(180.0,100%,35%)" stroke-width="0.00025"></path>
<path d="M1.139 0.576 Q0.829 0.585 0.780 0.739" stroke="hsl(180.0,100%,35%)" stroke-width="0.00300"></path>
<path d="M1.139 0.576 Q0.685 0.643 0.717 0.879" stroke="hsl(180.0,100%,35%)" stroke-width="0.00100"></path>
<path d="M1.139 0.576 Q1.285 0.413 1.000 0.306" stroke="hsl(180.0,100%,35%)" stroke-width="0.00175"></path>
<path d="M1.139 0.576 Q1.191 0.529 1.111 0.493" stroke="hsl(180.0,100%,35%)" stroke-width="0.00100"></path>
<path d="M1.139 0.576 Q1.479 0.316 1.047 0.094" stroke="hsl(180.0,100%,35%)" stroke-width="0.00025"></path>
<path d="M1.139 0.576 Q1.031 0.523 0.905 0.565" stroke="hsl(180.0,100%,35%)" stroke-width="0.00025"></path>
<path d="M1.088 0.651 Q0.720 0.690 0.717 0.879" stroke="hsl(180.0,100%,35%)" stroke-width="0.00025"></path>
<path d="M1.088 0.651 Q0.863 0.633 0.780 0.739" stroke="hsl(180.0,100%,35%)" stroke-width="0.00050"></path>
<path d="M1.088 0.651 Q1.226 0.576 1.111 0.493" stroke="hsl(180.0,100%,35%)" stroke-width="0.00125"></path>
<path d="M1.088 0.651 Q1.320 0.460 1.000 0.306" stroke="hsl(180.0,100%,35%)" stroke-width="0.00025"></path>
<path d="M1.354 0.519 Q1.253 0.457 1.111 0.493" stroke="hsl(180.0,100%,35%)" stroke-width="0.00200"></path>
<path d="M1.354 0.519 Q1.012 0.666 1.225 0.865" stroke="hsl(180.0,100%,35%)" stroke-width="0.00025"></path>
<path d="M1.354 0.519 Q0.891 0.514 0.780 0.739" stroke="hsl(180.0,100%,35%)" stroke-width="0.00250"></path>
<path d="M1.354 0.519 Q0.747 0.571 0.717 0.879" stroke="hsl(180.0,100%,35%)" stroke-width="0.00025"></path>
<path d="M1.354 0.519 Q1.058 0.377 0.718 0.490" stroke="hsl(180.0,100%,35%)" stroke-width="0.00025"></path>
<path d="M1.354 0.519 Q0.633 0.518 0.474 0.869" stroke="hsl(180.0,100%,35%)" stroke-width="0.00025"></path>
<path d="M1.013 0.638 Q0.816 0.642 0.780 0.739" stroke="hsl(180.0,100%,35%)" stroke-width="0.01450"></path>
<path d="M1.013 0.638 Q1.178 0.585 1.111 0.493" stroke="hsl(180.0,100%,35%)" stroke-width="0.01075"></path>
<path d="M1.013 0.638 Q1.272 0.469 1.000 0.306" stroke="hsl(180.0,100%,35%)" stroke-width="0.00175"></path>
<path d="M1.013 0.638 Q0.672 0.699 0.717 0.879" stroke="hsl(180.0,100%,35%)" stroke-width="0.00025"></path>
<path d="M1.013 0.638 Q1.468 0.416 1.135 0.146" stroke="hsl(180.0,100%,35%)" stroke-width="0.00050"></path>
<path d="M1.013 0.638 Q1.018 0.580 0.905 0.565" stroke="hsl(180.0,100%,35%)" stroke-width="0.00050"></path>
<path d="M1.013 0.638 Q0.559 0.646 0.474 0.869" stroke="hsl(180.0,100%,35%)" stroke-width="0.00050"></path>
<path d="M1.013 0.638 Q1.124 0.478 0.837 0.390" stroke="hsl(180.0,100%,35%)" stroke-width="0.00025"></path>
<path d="M1.013 0.638 Q1.539 0.580 1.541 0.311" stroke="hsl(180.0,100%,35%)" stroke-width="0.00025"></path>
<path d="M1.013 0.638 Q1.421 0.460 1.163 0.222" stroke="hsl(180.0,100%,35%)" stroke-width="0.00050"></path>
<path d="M0.837 0.390 Q0.529 0.553 0.780 0.739" stroke="hsl(180.0,100%,35%)" stroke-width="0.00325"></path>
<path d="M0.837 0.390 Q0.891 0.496 1.111 0.493" stroke="hsl(180.0,100%,35%)" stroke-width="0.00275"></path>
<path d="M0.837 0.390 Q0.726 0.549 1.013 0.638" stroke="hsl(180.0,100%,35%)" stroke-width="0.00050"></path>
<path d="M0.837 0.390 Q0.385 0.610 0.717 0.879" stroke="hsl(180.0,100%,35%)" stroke-width="0.00050"></path>
<path d="M0.623 0.631 Q0.977 0.660 1.111 0.493" stroke="hsl(180.0,100%,35%)" stroke-width="0.00200"></path>
<path d="M0.623 0.631 Q0.615 0.716 0.780 0.739" stroke="hsl(180.0,100%,35%)" stroke-width="0.00200"></path>
<path d="M0.623 0.631 Q0.817 0.654 0.905 0.565" stroke="hsl(180.0,100%,35%)" stroke-width="0.00050"></path>
<path d="M1.400 0.546 Q1.297 0.461 1.111 0.493" stroke="hsl(180.0,100%,35%)" stroke-width="0.00300"></path>
<path d="M1.400 0.546 Q0.935 0.518 0.780 0.739" stroke="hsl(180.0,100%,35%)" stroke-width="0.00250"></path>
<path d="M1.400 0.546 Q1.299 0.661 1.501 0.735" stroke="hsl(180.0,100%,35%)" stroke-width="0.00025"></path>
<path d="M1.400 0.546 Q1.133 0.515 1.013 0.638" stroke="hsl(180.0,100%,35%)" stroke-width="0.00075"></path>
<path d="M1.531 0.492 Q0.958 0.465 0.780 0.739" stroke="hsl(180.0,100%,35%)" stroke-width="0.00025"></path>
<path d="M1.531 0.492 Q1.325 0.172 0.656 0.202" stroke="hsl(180.0,100%,35%)" stroke-width="0.00025"></path>
<path d="M1.531 0.492 Q1.659 0.490 1.684 0.428" stroke="hsl(180.0,100%,35%)" stroke-width="0.00025"></path>
<path d="M1.531 0.492 Q1.320 0.408 1.111 0.493" stroke="hsl(180.0,100%,35%)" stroke-width="0.00025"></path>
<path d="M1.531 0.492 Q0.814 0.522 0.717 0.879" stroke="hsl(180.0,100%,35%)" stroke-width="0.00025"></path>
<path d="M0.565 0.332 Q0.347 0.578 0.780 0.739" stroke="hsl(180.0,100%,35%)" stroke-width="0.00150"></path>
<path d="M0.565 0.332 Q0.710 0.522 1.111 0.493" stroke="hsl(180.0,100%,35%)" stroke-width="0.00050"></path>
<path d="M0.565 0.332 Q0.549 0.516 0.905 0.565" stroke="hsl(180.0,100%,35%)" stroke-width="0.00050"></path>
<path d="M1.198 0.576 Q1.221 0.517 1.111 0.493" stroke="hsl(180.0,100%,35%)" stroke-width="0.00050"></path>
<path d="M1.198 0.576 Q1.315 0.401 1.000 0.306" stroke="hsl(180.0,100%,35%)" stroke-width="0.00025"></path>
<path d="M1.198 0.576 Q1.559 0.599 1.684 0.428" stroke="hsl(180.0,100%,35%)" stroke-width="0.00025"></path>
<path d="M0.984 -0.038 Q0.962 0.335 1.684 0.428" stroke="hsl(180.0,100%,35%)" stroke-width="0.00050"></path>
<path d="M0.984 -0.038 Q0.623 0.253 1.111 0.493" stroke="hsl(180.0,100%,35%)" stroke-width="0.00050"></path>
<path d="M0.984 -0.038 Q0.717 0.137 1.000 0.306" stroke="hsl(180.0,100%,35%)" stroke-width="0.00025"></path>
<path d="M0.849 0.722 Q1.163 0.660 1.111 0.493" stroke="hsl(180.0,100%,35%)" stroke-width="0.00025"></path>
<path d="M0.849 0.722 Q0.800 0.716 0.780 0.739" stroke="hsl(180.0,100%,35%)" stroke-width="0.00025"></path>
<path d="M0.849 0.722 Q1.002 0.654 0.905 0.565" stroke="hsl(180.0,100%,35%)" stroke-width="0.00025"></path>
<path d="M0.534 0.405 Q0.389 0.621 0.780 0.739" stroke="hsl(180.0,100%,35%)" stroke-width="0.00025"></path>
<path d="M0.534 0.405 Q0.852 0.626 1.354 0.519" stroke="hsl(180.0,100%,35%)" stroke-width="0.00025"></path>
<path d="M0.534 0.405 Q0.587 0.617 1.013 0.638" stroke="hsl(180.0,100%,35%)" stroke-width="0.00025"></path>
<path d="M0.534 0.405 Q0.752 0.564 1.111 0.493" stroke="hsl(180.0,100%,35%)" stroke-width="0.00025"></path>
<path d="M0.353 0.680 Q0.519 0.795 0.780 0.739" stroke="hsl(180.0,100%,35%)" stroke-width="0.00175"></path>
<path d="M0.353 0.680 Q0.976 0.622 1.000 0.306" stroke="hsl(180.0,100%,35%)" stroke-width="0.00025"></path>
<path d="M0.353 0.680 Q0.376 0.852 0.717 0.879" stroke="hsl(180.0,100%,35%)" stroke-width="0.00025"></path>
</g>
<text x="1.630" y="0.541" font-size="0.012179" fill="hsl(0.0,100%,20%)">afdx</text>
<text x="1.047" y="0.067" font-size="0.053452" fill="hsl(0.0,100%,20%)">amaiorano</text>
<text x="1.684" y="0.414" font-size="0.028493" fill="hsl(0.0,100%,20%)">rharrison</text>
<text x="1.000" y="0.256" font-size="0.100156" fill="hsl(0.0,100%,20%)">bclayton</text>
<text x="1.439" y="0.600" font-size="0.005588" fill="hsl(180.0,100%,20%)">aleksi</text>
<text x="1.111" y="0.456" font-size="0.074501" fill="hsl(180.0,100%,20%)">cwallez</text>
<text x="0.780" y="0.701" font-size="0.075748" fill="hsl(180.0,100%,20%)">enga</text>
<text x="0.898" y="0.098" font-size="0.002794" fill="hsl(0.0,100%,20%)">armansito</text>
<text x="0.656" y="0.174" font-size="0.056505" fill="hsl(0.0,100%,20%)">dsinclair</text>
<text x="0.745" y="0.348" font-size="0.038207" fill="hsl(0.0,100%,20%)">jrprice</text>
<text x="1.135" y="0.126" font-size="0.039016" fill="hsl(0.0,100%,20%)">dneto</text>
<text x="0.474" y="0.852" font-size="0.033411" fill="hsl(180.0,100%,20%)">bajones</text>
<text x="0.717" y="0.866" font-size="0.026210" fill="hsl(180.0,100%,20%)">kainino</text>
<text x="0.718" y="0.478" font-size="0.024834" fill="hsl(180.0,100%,20%)">shrekshao</text>
<text x="0.481" y="0.582" font-size="0.017890" fill="hsl(180.0,100%,20%)">yunchao.he</text>
<text x="0.905" y="0.544" font-size="0.042096" fill="hsl(180.0,100%,20%)">lokokung</text>
<text x="1.541" y="0.299" font-size="0.023376" fill="hsl(0.0,100%,20%)">zhaoming.jiang</text>
<text x="1.163" y="0.205" font-size="0.032463" fill="hsl(0.0,100%,20%)">senorblanco</text>
<text x="0.898" y="0.413" font-size="0.002794" fill="hsl(0.0,100%,20%)">sarahmashay</text>
<text x="1.215" y="0.734" font-size="0.006844" fill="hsl(180.0,100%,20%)">beaufort.francois</text>
<text x="1.139" y="0.568" font-size="0.015046" fill="hsl(180.0,100%,20%)">brandon1.jones</text>
<text x="1.088" y="0.646" font-size="0.008835" fill="hsl(180.0,100%,20%)">hogehoge</text>
<text x="1.354" y="0.512" font-size="0.013970" fill="hsl(180.0,100%,20%)">hao.x.li</text>
<text x="1.504" y="0.628" font-size="0.002794" fill="hsl(180.0,100%,20%)">fbeaufort</text>
<text x="1.290" y="0.655" font-size="0.002794" fill="hsl(180.0,100%,20%)">rockot</text>
<text x="1.217" y="0.310" font-size="0.002794" fill="hsl(180.0,100%,20%)">zmo</text>
<text x="1.225" y="0.863" font-size="0.003951" fill="hsl(180.0,100%,20%)">bsheedy</text>
<text x="1.013" y="0.622" font-size="0.031856" fill="hsl(180.0,100%,20%)">jiawei.shao</text>
<text x="0.313" y="0.494" font-size="0.003951" fill="hsl(180.0,100%,20%)">rafael.cintron</text>
<text x="0.837" y="0.382" font-size="0.015046" fill="hsl(180.0,100%,20%)">shaobo.yan</text>
<text x="0.623" y="0.625" font-size="0.011854" fill="hsl(180.0,100%,20%)">jie.a.chen</text>
<text x="1.405" y="0.397" font-size="0.002794" fill="hsl(0.0,100%,20%)">alanbaker</text>
<text x="1.400" y="0.539" font-size="0.014247" fill="hsl(180.0,100%,20%)">junwei.fu</text>
<text x="1.501" y="0.734" font-size="0.002794" fill="hsl(180.0,100%,20%)">ningxin.hu</text>
<text x="1.531" y="0.489" font-size="0.006248" fill="hsl(180.0,100%,20%)">pkasting</text>
<text x="0.565" y="0.328" font-size="0.008835" fill="hsl(180.0,100%,20%)">sunnyps</text>
<text x="1.198" y="0.573" font-size="0.005588" fill="hsl(180.0,100%,20%)">ukai</text>
<text x="0.984" y="-0.041" font-size="0.006248" fill="hsl(180.0,100%,20%)">vadimsh</text>
<text x="0.849" y="0.719" font-size="0.004839" fill="hsl(180.0,100%,20%)">wangqing-hf</text>
<text x="0.534" y="0.402" font-size="0.006248" fill="hsl(180.0,100%,20%)">yang.gu</text>
<text x="0.353" y="0.675" font-size="0.008835" fill="hsl(180.0,100%,20%)">ynovikov</text>
</svg>
