<svg width="4000" height="2000" viewBox="-0.025 -0.025 2.05 1.05" xmlns="http://www.w3.org/2000/svg">
  <style>
    path {
      fill: none;
      stroke-linecap: round;
      stroke-opacity: 0.4;
    }

    text {
      text-anchor: middle;
      alignment-baseline: hanging;
    }
  </style>
  <g opacity="0.4">
<path d="M1.144 0.563 Q0.739 0.601 0.725 0.807" stroke="hsl(0.0,100%,35%)" stroke-width="0.00974"></path>
<path d="M1.144 0.563 Q1.748 0.497 1.752 0.188" stroke="hsl(0.0,100%,35%)" stroke-width="0.00162"></path>
<path d="M1.144 0.563 Q1.078 0.346 0.640 0.331" stroke="hsl(0.0,100%,35%)" stroke-width="0.00162"></path>
<path d="M1.144 0.563 Q1.263 0.271 0.719 0.148" stroke="hsl(0.0,100%,35%)" stroke-width="0.00325"></path>
<path d="M1.144 0.563 Q0.869 0.285 0.267 0.358" stroke="hsl(0.0,100%,35%)" stroke-width="0.00162"></path>
<path d="M1.144 0.563 Q0.947 0.617 1.008 0.724" stroke="hsl(0.0,100%,35%)" stroke-width="0.00162"></path>
<path d="M0.725 0.807 Q1.590 0.797 1.761 0.373" stroke="hsl(0.0,100%,35%)" stroke-width="0.00325"></path>
<path d="M0.725 0.807 Q0.874 0.727 0.751 0.636" stroke="hsl(0.0,100%,35%)" stroke-width="0.00162"></path>
<path d="M0.725 0.807 Q1.249 0.476 0.719 0.148" stroke="hsl(0.0,100%,35%)" stroke-width="0.00162"></path>
<path d="M0.725 0.807 Q0.854 0.491 0.267 0.358" stroke="hsl(0.0,100%,35%)" stroke-width="0.00162"></path>
<path d="M0.725 0.807 Q0.932 0.822 1.008 0.724" stroke="hsl(0.0,100%,35%)" stroke-width="0.00162"></path>
<path d="M0.725 0.807 Q0.625 0.838 0.665 0.894" stroke="hsl(0.0,100%,35%)" stroke-width="0.00162"></path>
<path d="M0.725 0.807 Q0.888 0.977 1.254 0.934" stroke="hsl(0.0,100%,35%)" stroke-width="0.00162"></path>
<path d="M0.725 0.807 Q0.370 0.712 0.107 0.864" stroke="hsl(0.0,100%,35%)" stroke-width="0.00162"></path>
<path d="M1.752 0.188 Q1.609 0.283 1.761 0.373" stroke="hsl(0.0,100%,35%)" stroke-width="0.02760"></path>
<path d="M1.752 0.188 Q0.744 0.292 0.725 0.807" stroke="hsl(0.0,100%,35%)" stroke-width="0.00325"></path>
<path d="M1.752 0.188 Q1.148 0.254 1.144 0.563" stroke="hsl(0.0,100%,35%)" stroke-width="0.00325"></path>
<path d="M1.752 0.188 Q0.645 0.323 0.665 0.894" stroke="hsl(0.0,100%,35%)" stroke-width="0.00162"></path>
<path d="M1.752 0.188 Q1.553 0.114 1.363 0.195" stroke="hsl(0.0,100%,35%)" stroke-width="0.00162"></path>
<path d="M0.640 0.331 Q0.826 0.255 0.719 0.148" stroke="hsl(180.0,100%,35%)" stroke-width="0.07794"></path>
<path d="M0.640 0.331 Q1.167 0.576 1.761 0.373" stroke="hsl(180.0,100%,35%)" stroke-width="0.00162"></path>
<path d="M0.640 0.331 Q0.268 0.384 0.290 0.578" stroke="hsl(180.0,100%,35%)" stroke-width="0.00162"></path>
<path d="M0.640 0.331 Q0.302 0.586 0.725 0.807" stroke="hsl(180.0,100%,35%)" stroke-width="0.00162"></path>
<path d="M0.640 0.331 Q0.431 0.270 0.267 0.358" stroke="hsl(180.0,100%,35%)" stroke-width="0.00325"></path>
<path d="M0.640 0.331 Q0.475 0.371 0.518 0.461" stroke="hsl(180.0,100%,35%)" stroke-width="0.00650"></path>
<path d="M0.719 0.148 Q0.533 0.224 0.640 0.331" stroke="hsl(180.0,100%,35%)" stroke-width="0.02273"></path>
<path d="M0.719 0.148 Q0.325 0.163 0.267 0.358" stroke="hsl(180.0,100%,35%)" stroke-width="0.00974"></path>
<path d="M0.719 0.148 Q0.161 0.277 0.290 0.578" stroke="hsl(180.0,100%,35%)" stroke-width="0.00162"></path>
<path d="M0.719 0.148 Q0.195 0.479 0.725 0.807" stroke="hsl(180.0,100%,35%)" stroke-width="0.00162"></path>
<path d="M0.719 0.148 Q0.369 0.264 0.518 0.461" stroke="hsl(180.0,100%,35%)" stroke-width="0.00162"></path>
<path d="M0.267 0.358 Q0.475 0.419 0.640 0.331" stroke="hsl(180.0,100%,35%)" stroke-width="0.01461"></path>
<path d="M0.267 0.358 Q0.661 0.344 0.719 0.148" stroke="hsl(180.0,100%,35%)" stroke-width="0.01624"></path>
<path d="M0.267 0.358 Q0.541 0.636 1.144 0.563" stroke="hsl(180.0,100%,35%)" stroke-width="0.00325"></path>
<path d="M1.008 0.724 Q0.800 0.709 0.725 0.807" stroke="hsl(0.0,100%,35%)" stroke-width="0.00812"></path>
<path d="M1.008 0.724 Q1.809 0.605 1.752 0.188" stroke="hsl(0.0,100%,35%)" stroke-width="0.00162"></path>
<path d="M1.008 0.724 Q0.745 0.602 0.448 0.704" stroke="hsl(0.0,100%,35%)" stroke-width="0.00162"></path>
<path d="M0.960 0.830 Q1.731 0.635 1.520 0.216" stroke="hsl(0.0,100%,35%)" stroke-width="0.00162"></path>
<path d="M0.960 0.830 Q0.861 0.772 0.725 0.807" stroke="hsl(0.0,100%,35%)" stroke-width="0.00162"></path>
<path d="M0.960 0.830 Q1.726 0.762 1.761 0.373" stroke="hsl(0.0,100%,35%)" stroke-width="0.00162"></path>
<path d="M1.520 0.216 Q0.650 0.352 0.725 0.807" stroke="hsl(0.0,100%,35%)" stroke-width="0.00650"></path>
<path d="M1.520 0.216 Q1.658 0.249 1.752 0.188" stroke="hsl(0.0,100%,35%)" stroke-width="0.00650"></path>
<path d="M1.520 0.216 Q1.174 0.022 0.719 0.148" stroke="hsl(0.0,100%,35%)" stroke-width="0.00162"></path>
<path d="M1.520 0.216 Q1.515 0.343 1.761 0.373" stroke="hsl(0.0,100%,35%)" stroke-width="0.00487"></path>
<path d="M1.761 0.373 Q0.896 0.383 0.725 0.807" stroke="hsl(0.0,100%,35%)" stroke-width="0.00650"></path>
<path d="M1.761 0.373 Q1.905 0.279 1.752 0.188" stroke="hsl(0.0,100%,35%)" stroke-width="0.01786"></path>
<path d="M1.761 0.373 Q0.995 0.441 0.960 0.830" stroke="hsl(0.0,100%,35%)" stroke-width="0.00162"></path>
<path d="M1.761 0.373 Q1.670 0.221 1.353 0.233" stroke="hsl(0.0,100%,35%)" stroke-width="0.00162"></path>
<path d="M1.761 0.373 Q1.420 0.052 0.719 0.148" stroke="hsl(0.0,100%,35%)" stroke-width="0.00162"></path>
<path d="M1.761 0.373 Q0.862 0.181 0.290 0.578" stroke="hsl(0.0,100%,35%)" stroke-width="0.00162"></path>
<path d="M1.761 0.373 Q1.766 0.246 1.520 0.216" stroke="hsl(0.0,100%,35%)" stroke-width="0.00162"></path>
<path d="M0.751 0.636 Q1.126 0.386 0.719 0.148" stroke="hsl(180.0,100%,35%)" stroke-width="0.03248"></path>
<path d="M0.751 0.636 Q0.602 0.716 0.725 0.807" stroke="hsl(180.0,100%,35%)" stroke-width="0.00974"></path>
<path d="M0.751 0.636 Q0.731 0.400 0.267 0.358" stroke="hsl(180.0,100%,35%)" stroke-width="0.00325"></path>
<path d="M0.751 0.636 Q1.467 0.707 1.761 0.373" stroke="hsl(180.0,100%,35%)" stroke-width="0.01137"></path>
<path d="M0.751 0.636 Q0.940 0.462 0.640 0.331" stroke="hsl(180.0,100%,35%)" stroke-width="0.00162"></path>
<path d="M0.751 0.636 Q1.610 0.613 1.752 0.188" stroke="hsl(180.0,100%,35%)" stroke-width="0.00162"></path>
<path d="M0.665 0.894 Q0.764 0.862 0.725 0.807" stroke="hsl(0.0,100%,35%)" stroke-width="0.01461"></path>
<path d="M0.665 0.894 Q1.169 0.824 1.144 0.563" stroke="hsl(0.0,100%,35%)" stroke-width="0.00162"></path>
<path d="M0.665 0.894 Q1.103 0.607 0.640 0.331" stroke="hsl(0.0,100%,35%)" stroke-width="0.00162"></path>
<path d="M0.107 0.864 Q0.461 0.959 0.725 0.807" stroke="hsl(0.0,100%,35%)" stroke-width="0.00812"></path>
<path d="M0.107 0.864 Q0.254 0.787 0.137 0.699" stroke="hsl(0.0,100%,35%)" stroke-width="0.00650"></path>
<path d="M0.107 0.864 Q0.624 1.128 1.254 0.934" stroke="hsl(0.0,100%,35%)" stroke-width="0.00162"></path>
<path d="M0.252 0.444 Q0.198 0.720 0.725 0.807" stroke="hsl(180.0,100%,35%)" stroke-width="0.00162"></path>
<path d="M0.252 0.444 Q0.537 0.465 0.640 0.331" stroke="hsl(180.0,100%,35%)" stroke-width="0.00487"></path>
<path d="M0.252 0.444 Q0.723 0.390 0.719 0.148" stroke="hsl(180.0,100%,35%)" stroke-width="0.00487"></path>
<path d="M0.518 0.461 Q1.210 0.666 1.761 0.373" stroke="hsl(180.0,100%,35%)" stroke-width="0.00650"></path>
<path d="M0.518 0.461 Q0.683 0.420 0.640 0.331" stroke="hsl(180.0,100%,35%)" stroke-width="0.00325"></path>
<path d="M0.518 0.461 Q0.868 0.345 0.719 0.148" stroke="hsl(180.0,100%,35%)" stroke-width="0.00325"></path>
<path d="M0.290 0.578 Q0.662 0.524 0.640 0.331" stroke="hsl(180.0,100%,35%)" stroke-width="0.01299"></path>
<path d="M0.290 0.578 Q0.848 0.449 0.719 0.148" stroke="hsl(180.0,100%,35%)" stroke-width="0.01461"></path>
<path d="M0.290 0.578 Q0.498 0.565 0.518 0.461" stroke="hsl(180.0,100%,35%)" stroke-width="0.00162"></path>
<path d="M0.290 0.578 Q0.729 0.741 1.144 0.563" stroke="hsl(180.0,100%,35%)" stroke-width="0.00487"></path>
<path d="M0.290 0.578 Q0.423 0.838 0.960 0.830" stroke="hsl(180.0,100%,35%)" stroke-width="0.00162"></path>
<path d="M0.137 0.699 Q0.344 0.870 0.725 0.807" stroke="hsl(0.0,100%,35%)" stroke-width="0.00325"></path>
<path d="M0.137 0.699 Q0.507 1.040 1.254 0.934" stroke="hsl(0.0,100%,35%)" stroke-width="0.00162"></path>
<path d="M0.137 0.699 Q0.749 0.832 1.144 0.563" stroke="hsl(0.0,100%,35%)" stroke-width="0.00162"></path>
<path d="M0.137 0.699 Q0.443 0.929 0.960 0.830" stroke="hsl(0.0,100%,35%)" stroke-width="0.00162"></path>
<path d="M0.818 0.489 Q0.517 0.629 0.725 0.807" stroke="hsl(0.0,100%,35%)" stroke-width="0.00325"></path>
<path d="M0.818 0.489 Q0.667 0.549 0.751 0.636" stroke="hsl(0.0,100%,35%)" stroke-width="0.00325"></path>
<path d="M0.818 0.489 Q1.382 0.620 1.761 0.373" stroke="hsl(0.0,100%,35%)" stroke-width="0.00162"></path>
<path d="M0.384 0.976 Q0.690 0.960 0.725 0.807" stroke="hsl(0.0,100%,35%)" stroke-width="0.00487"></path>
<path d="M0.384 0.976 Q0.839 0.880 0.751 0.636" stroke="hsl(0.0,100%,35%)" stroke-width="0.00487"></path>
<path d="M0.384 0.976 Q0.483 0.788 0.137 0.699" stroke="hsl(0.0,100%,35%)" stroke-width="0.00487"></path>
<path d="M1.450 0.071 Q1.507 0.190 1.752 0.188" stroke="hsl(0.0,100%,35%)" stroke-width="0.00487"></path>
<path d="M1.450 0.071 Q0.144 0.199 0.107 0.864" stroke="hsl(0.0,100%,35%)" stroke-width="0.00325"></path>
<path d="M1.450 0.071 Q0.837 0.039 0.640 0.331" stroke="hsl(0.0,100%,35%)" stroke-width="0.00162"></path>
<path d="M0.954 0.743 Q0.952 0.899 1.254 0.934" stroke="hsl(0.0,100%,35%)" stroke-width="0.00162"></path>
<path d="M0.954 0.743 Q0.788 0.729 0.725 0.807" stroke="hsl(0.0,100%,35%)" stroke-width="0.00812"></path>
<path d="M0.954 0.743 Q1.402 0.774 1.561 0.563" stroke="hsl(0.0,100%,35%)" stroke-width="0.00162"></path>
<path d="M0.954 0.743 Q1.654 0.720 1.761 0.373" stroke="hsl(0.0,100%,35%)" stroke-width="0.00487"></path>
<path d="M0.407 0.822 Q0.578 0.878 0.725 0.807" stroke="hsl(0.0,100%,35%)" stroke-width="0.00162"></path>
<path d="M0.407 0.822 Q0.727 0.798 0.751 0.636" stroke="hsl(0.0,100%,35%)" stroke-width="0.00162"></path>
<path d="M0.407 0.822 Q0.223 0.783 0.107 0.864" stroke="hsl(0.0,100%,35%)" stroke-width="0.00162"></path>
</g>
<text x="1.144" y="0.545" font-size="0.036228" fill="hsl(0.0,100%,20%)">amaiorano</text>
<text x="0.725" y="0.775" font-size="0.064711" fill="hsl(0.0,100%,20%)">cwallez</text>
<text x="1.752" y="0.162" font-size="0.052440" fill="hsl(0.0,100%,20%)">kainino</text>
<text x="0.640" y="0.292" font-size="0.077862" fill="hsl(180.0,100%,20%)">dsinclair</text>
<text x="0.719" y="0.105" font-size="0.086603" fill="hsl(180.0,100%,20%)">jrprice</text>
<text x="0.267" y="0.336" font-size="0.045415" fill="hsl(180.0,100%,20%)">rharrison</text>
<text x="1.008" y="0.713" font-size="0.023717" fill="hsl(0.0,100%,20%)">beaufort.francois</text>
<text x="0.960" y="0.821" font-size="0.019365" fill="hsl(0.0,100%,20%)">bajones</text>
<text x="1.520" y="0.201" font-size="0.029580" fill="hsl(0.0,100%,20%)">shrekshao</text>
<text x="1.761" y="0.343" font-size="0.060725" fill="hsl(0.0,100%,20%)">lokokung</text>
<text x="0.448" y="0.700" font-size="0.007906" fill="hsl(0.0,100%,20%)">senorblanco</text>
<text x="0.751" y="0.610" font-size="0.052440" fill="hsl(180.0,100%,20%)">jiawei.shao</text>
<text x="0.665" y="0.879" font-size="0.028504" fill="hsl(0.0,100%,20%)">gman</text>
<text x="1.254" y="0.926" font-size="0.015811" fill="hsl(0.0,100%,20%)">geofflang</text>
<text x="0.107" y="0.849" font-size="0.029580" fill="hsl(0.0,100%,20%)">shaoboyan</text>
<text x="0.252" y="0.434" font-size="0.020917" fill="hsl(180.0,100%,20%)">diejorarr</text>
<text x="0.518" y="0.446" font-size="0.029580" fill="hsl(180.0,100%,20%)">dneto</text>
<text x="0.290" y="0.558" font-size="0.039528" fill="hsl(180.0,100%,20%)">petermcneeley</text>
<text x="1.363" y="0.191" font-size="0.007906" fill="hsl(0.0,100%,20%)">bsheedy</text>
<text x="0.137" y="0.685" font-size="0.027386" fill="hsl(0.0,100%,20%)">lehoangquyen</text>
<text x="1.353" y="0.229" font-size="0.007906" fill="hsl(0.0,100%,20%)">sunnyps</text>
<text x="0.818" y="0.480" font-size="0.017678" fill="hsl(0.0,100%,20%)">shanxing.mei</text>
<text x="0.384" y="0.964" font-size="0.023717" fill="hsl(0.0,100%,20%)">xing.xu</text>
<text x="1.450" y="0.061" font-size="0.019365" fill="hsl(0.0,100%,20%)">yulong.fs</text>
<text x="0.954" y="0.731" font-size="0.025000" fill="hsl(0.0,100%,20%)">zhaoming.jiang</text>
<text x="1.561" y="0.559" font-size="0.007906" fill="hsl(0.0,100%,20%)">rafael.cintron</text>
<text x="0.407" y="0.815" font-size="0.013693" fill="hsl(0.0,100%,20%)">zhuangxu</text>
</svg>
