<svg width="4000" height="2000" viewBox="-0.025 -0.025 2.05 1.05" xmlns="http://www.w3.org/2000/svg">
  <style>
    path {
      fill: none;
      stroke-linecap: round;
      stroke-opacity: 0.4;
    }

    text {
      text-anchor: middle;
      alignment-baseline: hanging;
    }
  </style>
  <g opacity="0.4">
<path d="M1.354 0.985 Q1.239 0.908 1.065 0.947" stroke="hsl(0.0,100%,35%)" stroke-width="0.00068"></path>
<path d="M1.354 0.985 Q1.446 0.530 0.579 0.385" stroke="hsl(0.0,100%,35%)" stroke-width="0.00068"></path>
<path d="M1.354 0.985 Q1.352 0.462 0.333 0.348" stroke="hsl(0.0,100%,35%)" stroke-width="0.00744"></path>
<path d="M1.354 0.985 Q1.616 0.425 0.582 0.174" stroke="hsl(0.0,100%,35%)" stroke-width="0.00316"></path>
<path d="M1.354 0.985 Q1.343 0.370 0.141 0.240" stroke="hsl(0.0,100%,35%)" stroke-width="0.01961"></path>
<path d="M1.354 0.985 Q1.768 0.498 0.909 0.189" stroke="hsl(0.0,100%,35%)" stroke-width="0.00023"></path>
<path d="M1.354 0.985 Q1.767 0.579 1.065 0.288" stroke="hsl(0.0,100%,35%)" stroke-width="0.00248"></path>
<path d="M1.354 0.985 Q1.498 0.324 0.240 0.108" stroke="hsl(0.0,100%,35%)" stroke-width="0.00023"></path>
<path d="M1.354 0.985 Q1.589 0.345 0.392 0.089" stroke="hsl(0.0,100%,35%)" stroke-width="0.00023"></path>
<path d="M1.354 0.985 Q1.571 0.716 1.094 0.551" stroke="hsl(0.0,100%,35%)" stroke-width="0.00135"></path>
<path d="M1.354 0.985 Q1.462 0.905 1.331 0.834" stroke="hsl(0.0,100%,35%)" stroke-width="0.00023"></path>
<path d="M1.354 0.985 Q1.786 0.688 1.301 0.412" stroke="hsl(0.0,100%,35%)" stroke-width="0.00023"></path>
<path d="M1.065 0.947 Q1.179 1.024 1.354 0.985" stroke="hsl(0.0,100%,35%)" stroke-width="0.00113"></path>
<path d="M1.065 0.947 Q1.169 0.409 0.141 0.240" stroke="hsl(0.0,100%,35%)" stroke-width="0.00180"></path>
<path d="M1.065 0.947 Q1.178 0.501 0.333 0.348" stroke="hsl(0.0,100%,35%)" stroke-width="0.00473"></path>
<path d="M1.065 0.947 Q1.442 0.464 0.582 0.174" stroke="hsl(0.0,100%,35%)" stroke-width="0.00045"></path>
<path d="M1.065 0.947 Q1.415 0.384 0.392 0.089" stroke="hsl(0.0,100%,35%)" stroke-width="0.00023"></path>
<path d="M1.065 0.947 Q1.592 0.618 1.065 0.288" stroke="hsl(0.0,100%,35%)" stroke-width="0.00023"></path>
<path d="M0.579 0.385 Q0.314 0.324 0.137 0.439" stroke="hsl(180.0,100%,35%)" stroke-width="0.00045"></path>
<path d="M0.579 0.385 Q0.728 0.509 1.003 0.463" stroke="hsl(180.0,100%,35%)" stroke-width="0.00383"></path>
<path d="M0.579 0.385 Q0.717 0.415 0.808 0.355" stroke="hsl(180.0,100%,35%)" stroke-width="0.00023"></path>
<path d="M0.579 0.385 Q0.899 0.434 1.065 0.288" stroke="hsl(180.0,100%,35%)" stroke-width="0.00113"></path>
<path d="M0.579 0.385 Q0.703 0.571 1.094 0.551" stroke="hsl(180.0,100%,35%)" stroke-width="0.00248"></path>
<path d="M0.579 0.385 Q0.486 0.840 1.354 0.985" stroke="hsl(180.0,100%,35%)" stroke-width="0.00023"></path>
<path d="M0.333 0.348 Q0.323 0.256 0.141 0.240" stroke="hsl(0.0,100%,35%)" stroke-width="0.13161"></path>
<path d="M0.333 0.348 Q0.747 0.465 1.065 0.288" stroke="hsl(0.0,100%,35%)" stroke-width="0.00631"></path>
<path d="M0.333 0.348 Q0.219 0.794 1.065 0.947" stroke="hsl(0.0,100%,35%)" stroke-width="0.00023"></path>
<path d="M0.333 0.348 Q0.540 0.795 1.458 0.792" stroke="hsl(0.0,100%,35%)" stroke-width="0.00135"></path>
<path d="M0.333 0.348 Q0.506 0.455 0.753 0.395" stroke="hsl(0.0,100%,35%)" stroke-width="0.00023"></path>
<path d="M0.333 0.348 Q0.260 0.426 0.397 0.479" stroke="hsl(0.0,100%,35%)" stroke-width="0.00023"></path>
<path d="M0.333 0.348 Q0.427 0.416 0.579 0.385" stroke="hsl(0.0,100%,35%)" stroke-width="0.00023"></path>
<path d="M0.333 0.348 Q0.334 0.871 1.354 0.985" stroke="hsl(0.0,100%,35%)" stroke-width="0.00428"></path>
<path d="M0.333 0.348 Q0.596 0.311 0.582 0.174" stroke="hsl(0.0,100%,35%)" stroke-width="0.00338"></path>
<path d="M0.333 0.348 Q0.551 0.602 1.094 0.551" stroke="hsl(0.0,100%,35%)" stroke-width="0.00158"></path>
<path d="M0.333 0.348 Q0.748 0.384 0.909 0.189" stroke="hsl(0.0,100%,35%)" stroke-width="0.00023"></path>
<path d="M0.333 0.348 Q0.576 0.540 1.003 0.463" stroke="hsl(0.0,100%,35%)" stroke-width="0.00180"></path>
<path d="M0.333 0.348 Q0.570 0.230 0.392 0.089" stroke="hsl(0.0,100%,35%)" stroke-width="0.00406"></path>
<path d="M0.333 0.348 Q0.448 0.452 0.675 0.418" stroke="hsl(0.0,100%,35%)" stroke-width="0.00023"></path>
<path d="M0.333 0.348 Q0.134 0.523 0.432 0.659" stroke="hsl(0.0,100%,35%)" stroke-width="0.00023"></path>
<path d="M0.333 0.348 Q0.478 0.210 0.240 0.108" stroke="hsl(0.0,100%,35%)" stroke-width="0.00113"></path>
<path d="M0.333 0.348 Q0.836 0.574 1.387 0.378" stroke="hsl(0.0,100%,35%)" stroke-width="0.00023"></path>
<path d="M0.582 0.174 Q0.309 0.119 0.141 0.240" stroke="hsl(0.0,100%,35%)" stroke-width="0.02569"></path>
<path d="M0.582 0.174 Q0.318 0.211 0.333 0.348" stroke="hsl(0.0,100%,35%)" stroke-width="0.02885"></path>
<path d="M0.582 0.174 Q0.555 0.094 0.392 0.089" stroke="hsl(0.0,100%,35%)" stroke-width="0.00090"></path>
<path d="M0.582 0.174 Q0.553 0.058 0.321 0.047" stroke="hsl(0.0,100%,35%)" stroke-width="0.00023"></path>
<path d="M0.582 0.174 Q0.319 0.734 1.354 0.985" stroke="hsl(0.0,100%,35%)" stroke-width="0.00406"></path>
<path d="M0.582 0.174 Q0.464 0.073 0.240 0.108" stroke="hsl(0.0,100%,35%)" stroke-width="0.00023"></path>
<path d="M0.582 0.174 Q0.732 0.328 1.065 0.288" stroke="hsl(0.0,100%,35%)" stroke-width="0.00023"></path>
<path d="M0.582 0.174 Q0.561 0.403 1.003 0.463" stroke="hsl(0.0,100%,35%)" stroke-width="0.00068"></path>
<path d="M0.582 0.174 Q0.822 0.437 1.387 0.378" stroke="hsl(0.0,100%,35%)" stroke-width="0.00023"></path>
<path d="M0.141 0.240 Q0.244 0.400 0.579 0.385" stroke="hsl(0.0,100%,35%)" stroke-width="0.00090"></path>
<path d="M0.141 0.240 Q0.151 0.855 1.354 0.985" stroke="hsl(0.0,100%,35%)" stroke-width="0.00879"></path>
<path d="M0.141 0.240 Q0.150 0.332 0.333 0.348" stroke="hsl(0.0,100%,35%)" stroke-width="0.06761"></path>
<path d="M0.141 0.240 Q0.265 0.436 0.675 0.418" stroke="hsl(0.0,100%,35%)" stroke-width="0.00023"></path>
<path d="M0.141 0.240 Q0.564 0.449 1.065 0.288" stroke="hsl(0.0,100%,35%)" stroke-width="0.00293"></path>
<path d="M0.141 0.240 Q0.414 0.295 0.582 0.174" stroke="hsl(0.0,100%,35%)" stroke-width="0.00361"></path>
<path d="M0.141 0.240 Q0.387 0.215 0.392 0.089" stroke="hsl(0.0,100%,35%)" stroke-width="0.00541"></path>
<path d="M0.141 0.240 Q0.037 0.778 1.065 0.947" stroke="hsl(0.0,100%,35%)" stroke-width="0.00045"></path>
<path d="M0.141 0.240 Q0.401 0.245 0.468 0.119" stroke="hsl(0.0,100%,35%)" stroke-width="0.00023"></path>
<path d="M0.141 0.240 Q0.393 0.524 1.003 0.463" stroke="hsl(0.0,100%,35%)" stroke-width="0.00045"></path>
<path d="M0.141 0.240 Q0.358 0.779 1.458 0.792" stroke="hsl(0.0,100%,35%)" stroke-width="0.00023"></path>
<path d="M0.141 0.240 Q0.296 0.194 0.240 0.108" stroke="hsl(0.0,100%,35%)" stroke-width="0.00045"></path>
<path d="M0.141 0.240 Q0.369 0.586 1.094 0.551" stroke="hsl(0.0,100%,35%)" stroke-width="0.00023"></path>
<path d="M1.065 0.288 Q0.745 0.239 0.579 0.385" stroke="hsl(180.0,100%,35%)" stroke-width="0.00834"></path>
<path d="M1.065 0.288 Q0.859 0.619 1.458 0.792" stroke="hsl(180.0,100%,35%)" stroke-width="0.00293"></path>
<path d="M1.065 0.288 Q0.870 0.425 1.094 0.551" stroke="hsl(180.0,100%,35%)" stroke-width="0.00699"></path>
<path d="M1.065 0.288 Q0.894 0.363 1.003 0.463" stroke="hsl(180.0,100%,35%)" stroke-width="0.01510"></path>
<path d="M1.065 0.288 Q0.651 0.172 0.333 0.348" stroke="hsl(180.0,100%,35%)" stroke-width="0.00496"></path>
<path d="M1.065 0.288 Q0.884 0.270 0.808 0.355" stroke="hsl(180.0,100%,35%)" stroke-width="0.00023"></path>
<path d="M1.065 0.288 Q0.968 0.219 0.811 0.251" stroke="hsl(180.0,100%,35%)" stroke-width="0.00158"></path>
<path d="M1.065 0.288 Q0.168 0.374 0.138 0.830" stroke="hsl(180.0,100%,35%)" stroke-width="0.00203"></path>
<path d="M1.065 0.288 Q1.054 0.217 0.913 0.207" stroke="hsl(180.0,100%,35%)" stroke-width="0.00158"></path>
<path d="M1.065 0.288 Q0.845 0.268 0.757 0.371" stroke="hsl(180.0,100%,35%)" stroke-width="0.00023"></path>
<path d="M1.065 0.288 Q0.888 0.054 0.392 0.089" stroke="hsl(180.0,100%,35%)" stroke-width="0.00023"></path>
<path d="M1.065 0.288 Q1.155 0.397 1.387 0.378" stroke="hsl(180.0,100%,35%)" stroke-width="0.00225"></path>
<path d="M1.065 0.288 Q0.832 0.378 0.955 0.512" stroke="hsl(180.0,100%,35%)" stroke-width="0.00045"></path>
<path d="M1.065 0.288 Q0.774 0.319 0.769 0.468" stroke="hsl(180.0,100%,35%)" stroke-width="0.00608"></path>
<path d="M1.065 0.288 Q0.811 0.335 0.845 0.469" stroke="hsl(180.0,100%,35%)" stroke-width="0.00023"></path>
<path d="M1.065 0.288 Q0.642 0.079 0.141 0.240" stroke="hsl(180.0,100%,35%)" stroke-width="0.00406"></path>
<path d="M1.065 0.288 Q1.190 0.178 1.002 0.093" stroke="hsl(180.0,100%,35%)" stroke-width="0.00023"></path>
<path d="M1.065 0.288 Q0.652 0.694 1.354 0.985" stroke="hsl(180.0,100%,35%)" stroke-width="0.00023"></path>
<path d="M1.065 0.288 Q0.874 0.285 0.826 0.378" stroke="hsl(180.0,100%,35%)" stroke-width="0.00023"></path>
<path d="M1.065 0.288 Q0.621 0.316 0.576 0.539" stroke="hsl(180.0,100%,35%)" stroke-width="0.00023"></path>
<path d="M1.065 0.288 Q1.085 0.397 1.301 0.412" stroke="hsl(180.0,100%,35%)" stroke-width="0.00180"></path>
<path d="M1.065 0.288 Q1.135 0.377 1.322 0.362" stroke="hsl(180.0,100%,35%)" stroke-width="0.00023"></path>
<path d="M1.065 0.288 Q0.767 0.275 0.675 0.418" stroke="hsl(180.0,100%,35%)" stroke-width="0.00023"></path>
<path d="M1.065 0.288 Q0.453 0.347 0.432 0.659" stroke="hsl(180.0,100%,35%)" stroke-width="0.00045"></path>
<path d="M1.065 0.288 Q0.940 0.302 0.938 0.366" stroke="hsl(180.0,100%,35%)" stroke-width="0.00023"></path>
<path d="M0.240 0.108 Q0.094 0.247 0.333 0.348" stroke="hsl(0.0,100%,35%)" stroke-width="0.00608"></path>
<path d="M0.240 0.108 Q0.085 0.154 0.141 0.240" stroke="hsl(0.0,100%,35%)" stroke-width="0.01194"></path>
<path d="M0.240 0.108 Q0.095 0.769 1.354 0.985" stroke="hsl(0.0,100%,35%)" stroke-width="0.00158"></path>
<path d="M0.240 0.108 Q0.331 0.129 0.392 0.089" stroke="hsl(0.0,100%,35%)" stroke-width="0.00090"></path>
<path d="M0.240 0.108 Q-0.076 0.253 0.137 0.439" stroke="hsl(0.0,100%,35%)" stroke-width="0.00023"></path>
<path d="M0.240 0.108 Q0.330 0.094 0.321 0.047" stroke="hsl(0.0,100%,35%)" stroke-width="0.00045"></path>
<path d="M0.240 0.108 Q0.508 0.363 1.065 0.288" stroke="hsl(0.0,100%,35%)" stroke-width="0.00045"></path>
<path d="M0.240 0.108 Q0.358 0.210 0.582 0.174" stroke="hsl(0.0,100%,35%)" stroke-width="0.00045"></path>
<path d="M0.240 0.108 Q0.313 0.500 1.094 0.551" stroke="hsl(0.0,100%,35%)" stroke-width="0.00023"></path>
<path d="M0.392 0.089 Q0.146 0.114 0.141 0.240" stroke="hsl(0.0,100%,35%)" stroke-width="0.00496"></path>
<path d="M0.392 0.089 Q0.249 0.274 0.579 0.385" stroke="hsl(0.0,100%,35%)" stroke-width="0.00045"></path>
<path d="M0.392 0.089 Q0.418 0.170 0.582 0.174" stroke="hsl(0.0,100%,35%)" stroke-width="0.00045"></path>
<path d="M0.392 0.089 Q0.390 0.054 0.321 0.047" stroke="hsl(0.0,100%,35%)" stroke-width="0.00135"></path>
<path d="M0.392 0.089 Q0.155 0.207 0.333 0.348" stroke="hsl(0.0,100%,35%)" stroke-width="0.00473"></path>
<path d="M0.392 0.089 Q0.042 0.653 1.065 0.947" stroke="hsl(0.0,100%,35%)" stroke-width="0.00023"></path>
<path d="M0.392 0.089 Q0.569 0.324 1.065 0.288" stroke="hsl(0.0,100%,35%)" stroke-width="0.00068"></path>
<path d="M0.392 0.089 Q0.156 0.729 1.354 0.985" stroke="hsl(0.0,100%,35%)" stroke-width="0.00135"></path>
<path d="M0.392 0.089 Q0.300 0.068 0.240 0.108" stroke="hsl(0.0,100%,35%)" stroke-width="0.00023"></path>
<path d="M0.392 0.089 Q0.398 0.398 1.003 0.463" stroke="hsl(0.0,100%,35%)" stroke-width="0.00248"></path>
<path d="M0.392 0.089 Q0.362 0.654 1.458 0.792" stroke="hsl(0.0,100%,35%)" stroke-width="0.00023"></path>
<path d="M0.392 0.089 Q-0.016 0.213 0.137 0.439" stroke="hsl(0.0,100%,35%)" stroke-width="0.00023"></path>
<path d="M0.392 0.089 Q0.374 0.460 1.094 0.551" stroke="hsl(0.0,100%,35%)" stroke-width="0.00045"></path>
<path d="M1.094 0.551 Q0.969 0.365 0.579 0.385" stroke="hsl(180.0,100%,35%)" stroke-width="0.00090"></path>
<path d="M1.094 0.551 Q0.876 0.297 0.333 0.348" stroke="hsl(180.0,100%,35%)" stroke-width="0.00293"></path>
<path d="M1.094 0.551 Q0.705 0.304 0.137 0.439" stroke="hsl(180.0,100%,35%)" stroke-width="0.00158"></path>
<path d="M1.094 0.551 Q1.118 0.489 1.003 0.463" stroke="hsl(180.0,100%,35%)" stroke-width="0.01555"></path>
<path d="M1.094 0.551 Q1.290 0.414 1.065 0.288" stroke="hsl(180.0,100%,35%)" stroke-width="0.00158"></path>
<path d="M1.094 0.551 Q1.112 0.179 0.392 0.089" stroke="hsl(180.0,100%,35%)" stroke-width="0.00045"></path>
<path d="M1.094 0.551 Q1.111 0.144 0.321 0.047" stroke="hsl(180.0,100%,35%)" stroke-width="0.00023"></path>
<path d="M1.094 0.551 Q0.677 0.472 0.432 0.659" stroke="hsl(180.0,100%,35%)" stroke-width="0.00023"></path>
<path d="M1.094 0.551 Q1.083 0.744 1.458 0.792" stroke="hsl(180.0,100%,35%)" stroke-width="0.00023"></path>
<path d="M1.094 0.551 Q1.139 0.260 0.582 0.174" stroke="hsl(180.0,100%,35%)" stroke-width="0.00023"></path>
<path d="M1.094 0.551 Q0.877 0.820 1.354 0.985" stroke="hsl(180.0,100%,35%)" stroke-width="0.00135"></path>
<path d="M1.094 0.551 Q1.379 0.523 1.387 0.378" stroke="hsl(180.0,100%,35%)" stroke-width="0.00045"></path>
<path d="M1.094 0.551 Q1.108 0.395 0.808 0.355" stroke="hsl(180.0,100%,35%)" stroke-width="0.00023"></path>
<path d="M1.094 0.551 Q1.309 0.523 1.301 0.412" stroke="hsl(180.0,100%,35%)" stroke-width="0.00068"></path>
<path d="M1.094 0.551 Q1.021 0.159 0.240 0.108" stroke="hsl(180.0,100%,35%)" stroke-width="0.00023"></path>
<path d="M1.094 0.551 Q0.991 0.401 0.675 0.418" stroke="hsl(180.0,100%,35%)" stroke-width="0.00023"></path>
<path d="M1.301 0.412 Q0.962 0.254 0.579 0.385" stroke="hsl(180.0,100%,35%)" stroke-width="0.00023"></path>
<path d="M1.301 0.412 Q1.087 0.440 1.094 0.551" stroke="hsl(180.0,100%,35%)" stroke-width="0.00744"></path>
<path d="M1.301 0.412 Q1.282 0.303 1.065 0.288" stroke="hsl(180.0,100%,35%)" stroke-width="0.00924"></path>
<path d="M1.301 0.412 Q1.111 0.378 1.003 0.463" stroke="hsl(180.0,100%,35%)" stroke-width="0.00518"></path>
<path d="M1.301 0.412 Q0.868 0.186 0.333 0.348" stroke="hsl(180.0,100%,35%)" stroke-width="0.00045"></path>
<path d="M1.301 0.412 Q0.859 0.094 0.141 0.240" stroke="hsl(180.0,100%,35%)" stroke-width="0.00068"></path>
<path d="M1.301 0.412 Q1.150 0.573 1.432 0.682" stroke="hsl(180.0,100%,35%)" stroke-width="0.00023"></path>
<path d="M1.301 0.412 Q1.371 0.412 1.387 0.378" stroke="hsl(180.0,100%,35%)" stroke-width="0.00135"></path>
<path d="M1.301 0.412 Q1.105 0.068 0.392 0.089" stroke="hsl(180.0,100%,35%)" stroke-width="0.00045"></path>
<path d="M1.301 0.412 Q1.103 0.033 0.321 0.047" stroke="hsl(180.0,100%,35%)" stroke-width="0.00023"></path>
<path d="M1.301 0.412 Q0.991 0.333 0.769 0.468" stroke="hsl(180.0,100%,35%)" stroke-width="0.00023"></path>
<path d="M1.301 0.412 Q1.585 0.317 1.462 0.157" stroke="hsl(180.0,100%,35%)" stroke-width="0.00023"></path>
<path d="M1.301 0.412 Q0.983 0.290 0.675 0.418" stroke="hsl(180.0,100%,35%)" stroke-width="0.00023"></path>
<path d="M1.301 0.412 Q1.075 0.633 1.458 0.792" stroke="hsl(180.0,100%,35%)" stroke-width="0.00023"></path>
<path d="M1.209 0.195 Q1.152 0.322 1.387 0.378" stroke="hsl(180.0,100%,35%)" stroke-width="0.00023"></path>
<path d="M1.209 0.195 Q1.062 0.213 1.065 0.288" stroke="hsl(180.0,100%,35%)" stroke-width="0.00023"></path>
<path d="M1.209 0.195 Q0.821 0.203 0.753 0.395" stroke="hsl(180.0,100%,35%)" stroke-width="0.00023"></path>
<path d="M1.387 0.378 Q0.977 0.220 0.579 0.385" stroke="hsl(180.0,100%,35%)" stroke-width="0.00045"></path>
<path d="M1.387 0.378 Q1.298 0.269 1.065 0.288" stroke="hsl(180.0,100%,35%)" stroke-width="0.00090"></path>
<path d="M1.387 0.378 Q0.999 0.256 0.675 0.418" stroke="hsl(180.0,100%,35%)" stroke-width="0.00023"></path>
<path d="M1.387 0.378 Q1.126 0.344 1.003 0.463" stroke="hsl(180.0,100%,35%)" stroke-width="0.00113"></path>
<path d="M1.387 0.378 Q1.102 0.406 1.094 0.551" stroke="hsl(180.0,100%,35%)" stroke-width="0.00180"></path>
<path d="M1.387 0.378 Q1.006 0.299 0.769 0.468" stroke="hsl(180.0,100%,35%)" stroke-width="0.00045"></path>
<path d="M1.387 0.378 Q0.885 0.675 1.354 0.985" stroke="hsl(180.0,100%,35%)" stroke-width="0.00023"></path>
<path d="M1.387 0.378 Q1.166 0.539 1.432 0.682" stroke="hsl(180.0,100%,35%)" stroke-width="0.00023"></path>
<path d="M0.753 0.395 Q0.994 0.404 1.065 0.288" stroke="hsl(180.0,100%,35%)" stroke-width="0.00766"></path>
<path d="M0.753 0.395 Q0.580 0.287 0.333 0.348" stroke="hsl(180.0,100%,35%)" stroke-width="0.00451"></path>
<path d="M0.753 0.395 Q0.097 0.490 0.138 0.830" stroke="hsl(180.0,100%,35%)" stroke-width="0.00090"></path>
<path d="M0.753 0.395 Q0.823 0.479 1.003 0.463" stroke="hsl(180.0,100%,35%)" stroke-width="0.00158"></path>
<path d="M0.753 0.395 Q0.174 0.558 0.366 0.876" stroke="hsl(180.0,100%,35%)" stroke-width="0.00023"></path>
<path d="M0.753 0.395 Q0.817 0.170 0.392 0.089" stroke="hsl(180.0,100%,35%)" stroke-width="0.00023"></path>
<path d="M0.753 0.395 Q0.863 0.674 1.432 0.682" stroke="hsl(180.0,100%,35%)" stroke-width="0.00023"></path>
<path d="M0.753 0.395 Q0.674 0.355 0.579 0.385" stroke="hsl(180.0,100%,35%)" stroke-width="0.00023"></path>
<path d="M0.753 0.395 Q0.799 0.541 1.094 0.551" stroke="hsl(180.0,100%,35%)" stroke-width="0.00045"></path>
<path d="M0.675 0.418 Q0.551 0.222 0.141 0.240" stroke="hsl(180.0,100%,35%)" stroke-width="0.00203"></path>
<path d="M0.675 0.418 Q0.560 0.315 0.333 0.348" stroke="hsl(180.0,100%,35%)" stroke-width="0.00135"></path>
<path d="M0.675 0.418 Q0.768 0.762 1.458 0.792" stroke="hsl(180.0,100%,35%)" stroke-width="0.00023"></path>
<path d="M0.675 0.418 Q0.797 0.197 0.392 0.089" stroke="hsl(180.0,100%,35%)" stroke-width="0.00068"></path>
<path d="M0.675 0.418 Q0.974 0.431 1.065 0.288" stroke="hsl(180.0,100%,35%)" stroke-width="0.00451"></path>
<path d="M0.675 0.418 Q0.654 0.382 0.579 0.385" stroke="hsl(180.0,100%,35%)" stroke-width="0.00023"></path>
<path d="M0.675 0.418 Q0.779 0.568 1.094 0.551" stroke="hsl(180.0,100%,35%)" stroke-width="0.00158"></path>
<path d="M0.675 0.418 Q1.064 0.540 1.387 0.378" stroke="hsl(180.0,100%,35%)" stroke-width="0.00045"></path>
<path d="M0.675 0.418 Q0.561 0.837 1.354 0.985" stroke="hsl(180.0,100%,35%)" stroke-width="0.00045"></path>
<path d="M0.675 0.418 Q0.390 0.321 0.137 0.439" stroke="hsl(180.0,100%,35%)" stroke-width="0.00023"></path>
<path d="M0.675 0.418 Q0.803 0.506 1.003 0.463" stroke="hsl(180.0,100%,35%)" stroke-width="0.00023"></path>
<path d="M1.003 0.463 Q0.853 0.339 0.579 0.385" stroke="hsl(180.0,100%,35%)" stroke-width="0.00406"></path>
<path d="M1.003 0.463 Q0.978 0.525 1.094 0.551" stroke="hsl(180.0,100%,35%)" stroke-width="0.02659"></path>
<path d="M1.003 0.463 Q1.174 0.388 1.065 0.288" stroke="hsl(180.0,100%,35%)" stroke-width="0.00901"></path>
<path d="M1.003 0.463 Q1.042 0.659 1.432 0.682" stroke="hsl(180.0,100%,35%)" stroke-width="0.00383"></path>
<path d="M1.003 0.463 Q0.760 0.272 0.333 0.348" stroke="hsl(180.0,100%,35%)" stroke-width="0.00113"></path>
<path d="M1.003 0.463 Q1.263 0.497 1.387 0.378" stroke="hsl(180.0,100%,35%)" stroke-width="0.00090"></path>
<path d="M1.003 0.463 Q0.750 0.179 0.141 0.240" stroke="hsl(180.0,100%,35%)" stroke-width="0.00180"></path>
<path d="M1.003 0.463 Q0.875 0.375 0.675 0.418" stroke="hsl(180.0,100%,35%)" stroke-width="0.00023"></path>
<path d="M1.003 0.463 Q0.882 0.419 0.769 0.468" stroke="hsl(180.0,100%,35%)" stroke-width="0.00023"></path>
<path d="M1.003 0.463 Q1.077 0.319 0.811 0.251" stroke="hsl(180.0,100%,35%)" stroke-width="0.00045"></path>
<path d="M1.003 0.463 Q1.175 0.307 0.909 0.189" stroke="hsl(180.0,100%,35%)" stroke-width="0.00023"></path>
<path d="M1.003 0.463 Q0.997 0.154 0.392 0.089" stroke="hsl(180.0,100%,35%)" stroke-width="0.00045"></path>
<path d="M1.003 0.463 Q0.761 0.794 1.354 0.985" stroke="hsl(180.0,100%,35%)" stroke-width="0.00023"></path>
<path d="M1.003 0.463 Q0.905 0.133 0.240 0.108" stroke="hsl(180.0,100%,35%)" stroke-width="0.00023"></path>
<path d="M0.769 0.468 Q1.061 0.437 1.065 0.288" stroke="hsl(180.0,100%,35%)" stroke-width="0.00225"></path>
<path d="M0.769 0.468 Q0.889 0.512 1.003 0.463" stroke="hsl(180.0,100%,35%)" stroke-width="0.00113"></path>
<path d="M0.769 0.468 Q0.647 0.321 0.333 0.348" stroke="hsl(180.0,100%,35%)" stroke-width="0.00023"></path>
<path d="M0.769 0.468 Q0.854 0.768 1.458 0.792" stroke="hsl(180.0,100%,35%)" stroke-width="0.00023"></path>
<path d="M1.432 0.682 Q1.653 0.521 1.387 0.378" stroke="hsl(180.0,100%,35%)" stroke-width="0.00045"></path>
<path d="M1.432 0.682 Q1.265 0.399 0.675 0.418" stroke="hsl(180.0,100%,35%)" stroke-width="0.00135"></path>
<path d="M1.432 0.682 Q1.357 0.742 1.458 0.792" stroke="hsl(180.0,100%,35%)" stroke-width="0.00383"></path>
<path d="M1.432 0.682 Q1.243 0.363 0.579 0.385" stroke="hsl(180.0,100%,35%)" stroke-width="0.00023"></path>
<path d="M1.432 0.682 Q1.140 0.203 0.141 0.240" stroke="hsl(180.0,100%,35%)" stroke-width="0.00113"></path>
<path d="M1.432 0.682 Q1.467 0.343 0.811 0.251" stroke="hsl(180.0,100%,35%)" stroke-width="0.00023"></path>
<path d="M1.432 0.682 Q0.979 0.302 0.137 0.439" stroke="hsl(180.0,100%,35%)" stroke-width="0.00045"></path>
<path d="M1.432 0.682 Q1.368 0.549 1.094 0.551" stroke="hsl(180.0,100%,35%)" stroke-width="0.00361"></path>
<path d="M1.432 0.682 Q1.564 0.412 1.065 0.288" stroke="hsl(180.0,100%,35%)" stroke-width="0.00203"></path>
<path d="M1.432 0.682 Q1.150 0.295 0.333 0.348" stroke="hsl(180.0,100%,35%)" stroke-width="0.00023"></path>
<path d="M1.432 0.682 Q1.392 0.487 1.003 0.463" stroke="hsl(180.0,100%,35%)" stroke-width="0.00158"></path>
<path d="M1.432 0.682 Q1.382 0.394 0.808 0.355" stroke="hsl(180.0,100%,35%)" stroke-width="0.00023"></path>
<path d="M1.458 0.792 Q1.344 0.413 0.579 0.385" stroke="hsl(180.0,100%,35%)" stroke-width="0.00316"></path>
<path d="M1.458 0.792 Q1.665 0.462 1.065 0.288" stroke="hsl(180.0,100%,35%)" stroke-width="0.00113"></path>
<path d="M1.458 0.792 Q1.250 0.345 0.333 0.348" stroke="hsl(180.0,100%,35%)" stroke-width="0.00225"></path>
<path d="M1.458 0.792 Q1.241 0.253 0.141 0.240" stroke="hsl(180.0,100%,35%)" stroke-width="0.00113"></path>
<path d="M1.458 0.792 Q1.366 0.449 0.675 0.418" stroke="hsl(180.0,100%,35%)" stroke-width="0.00023"></path>
<path d="M1.458 0.792 Q1.493 0.537 1.003 0.463" stroke="hsl(180.0,100%,35%)" stroke-width="0.00023"></path>
<path d="M1.458 0.792 Q1.514 0.308 0.582 0.174" stroke="hsl(180.0,100%,35%)" stroke-width="0.00023"></path>
<path d="M1.458 0.792 Q1.469 0.599 1.094 0.551" stroke="hsl(180.0,100%,35%)" stroke-width="0.00068"></path>
<path d="M0.366 0.876 Q1.174 0.651 0.913 0.207" stroke="hsl(180.0,100%,35%)" stroke-width="0.00068"></path>
<path d="M0.366 0.876 Q0.289 0.808 0.138 0.830" stroke="hsl(180.0,100%,35%)" stroke-width="0.00158"></path>
<path d="M0.366 0.876 Q1.186 0.722 1.065 0.288" stroke="hsl(180.0,100%,35%)" stroke-width="0.00068"></path>
<path d="M0.366 0.876 Q0.772 0.605 0.333 0.348" stroke="hsl(180.0,100%,35%)" stroke-width="0.00023"></path>
<path d="M0.138 0.830 Q1.035 0.745 1.065 0.288" stroke="hsl(180.0,100%,35%)" stroke-width="0.00766"></path>
<path d="M0.138 0.830 Q0.621 0.628 0.333 0.348" stroke="hsl(180.0,100%,35%)" stroke-width="0.00090"></path>
<path d="M0.138 0.830 Q0.216 0.899 0.366 0.876" stroke="hsl(180.0,100%,35%)" stroke-width="0.00428"></path>
<path d="M0.138 0.830 Q1.024 0.674 0.913 0.207" stroke="hsl(180.0,100%,35%)" stroke-width="0.00068"></path>
<path d="M0.138 0.830 Q0.715 0.696 0.579 0.385" stroke="hsl(180.0,100%,35%)" stroke-width="0.00023"></path>
<path d="M0.138 0.830 Q0.864 0.820 1.003 0.463" stroke="hsl(180.0,100%,35%)" stroke-width="0.00158"></path>
<path d="M0.138 0.830 Q0.794 0.736 0.753 0.395" stroke="hsl(180.0,100%,35%)" stroke-width="0.00023"></path>
<path d="M0.138 0.830 Q0.241 0.721 0.049 0.647" stroke="hsl(180.0,100%,35%)" stroke-width="0.00023"></path>
<path d="M0.138 0.830 Q0.331 0.913 0.535 0.837" stroke="hsl(180.0,100%,35%)" stroke-width="0.00135"></path>
<path d="M0.757 0.371 Q0.657 0.342 0.579 0.385" stroke="hsl(180.0,100%,35%)" stroke-width="0.00045"></path>
<path d="M0.757 0.371 Q0.807 0.466 1.003 0.463" stroke="hsl(180.0,100%,35%)" stroke-width="0.00045"></path>
<path d="M0.757 0.371 Q0.978 0.392 1.065 0.288" stroke="hsl(180.0,100%,35%)" stroke-width="0.00135"></path>
<path d="M0.757 0.371 Q0.852 0.405 0.938 0.366" stroke="hsl(180.0,100%,35%)" stroke-width="0.00023"></path>
<path d="M0.938 0.366 Q1.064 0.353 1.065 0.288" stroke="hsl(180.0,100%,35%)" stroke-width="0.00451"></path>
<path d="M0.938 0.366 Q0.892 0.428 1.003 0.463" stroke="hsl(180.0,100%,35%)" stroke-width="0.00361"></path>
<path d="M0.938 0.366 Q0.772 0.383 0.769 0.468" stroke="hsl(180.0,100%,35%)" stroke-width="0.00045"></path>
<path d="M0.938 0.366 Q0.868 0.490 1.094 0.551" stroke="hsl(180.0,100%,35%)" stroke-width="0.00023"></path>
<path d="M0.938 0.366 Q0.649 0.236 0.333 0.348" stroke="hsl(180.0,100%,35%)" stroke-width="0.00045"></path>
<path d="M0.938 0.366 Q1.153 0.462 1.387 0.378" stroke="hsl(180.0,100%,35%)" stroke-width="0.00068"></path>
<path d="M0.938 0.366 Q0.882 0.334 0.808 0.355" stroke="hsl(180.0,100%,35%)" stroke-width="0.00023"></path>
<path d="M1.322 0.362 Q1.342 0.383 1.387 0.378" stroke="hsl(180.0,100%,35%)" stroke-width="0.00068"></path>
<path d="M1.322 0.362 Q1.253 0.274 1.065 0.288" stroke="hsl(180.0,100%,35%)" stroke-width="0.00068"></path>
<path d="M1.322 0.362 Q0.840 0.680 1.354 0.985" stroke="hsl(180.0,100%,35%)" stroke-width="0.00023"></path>
<path d="M0.137 0.439 Q0.308 0.433 0.333 0.348" stroke="hsl(180.0,100%,35%)" stroke-width="0.00879"></path>
<path d="M0.137 0.439 Q0.401 0.500 0.579 0.385" stroke="hsl(180.0,100%,35%)" stroke-width="0.00203"></path>
<path d="M0.137 0.439 Q0.109 0.608 0.432 0.659" stroke="hsl(180.0,100%,35%)" stroke-width="0.00135"></path>
<path d="M0.137 0.439 Q0.526 0.686 1.094 0.551" stroke="hsl(180.0,100%,35%)" stroke-width="0.00158"></path>
<path d="M0.137 0.439 Q0.185 0.498 0.312 0.488" stroke="hsl(180.0,100%,35%)" stroke-width="0.00023"></path>
<path d="M0.137 0.439 Q0.544 0.315 0.392 0.089" stroke="hsl(180.0,100%,35%)" stroke-width="0.00045"></path>
<path d="M0.137 0.439 Q0.309 0.955 1.354 0.985" stroke="hsl(180.0,100%,35%)" stroke-width="0.00090"></path>
<path d="M0.137 0.439 Q0.811 0.658 1.387 0.378" stroke="hsl(180.0,100%,35%)" stroke-width="0.00023"></path>
<path d="M0.137 0.439 Q0.722 0.549 1.065 0.288" stroke="hsl(180.0,100%,35%)" stroke-width="0.00023"></path>
<path d="M0.137 0.439 Q0.298 0.340 0.141 0.240" stroke="hsl(180.0,100%,35%)" stroke-width="0.00023"></path>
<path d="M0.432 0.659 Q0.725 0.551 0.579 0.385" stroke="hsl(180.0,100%,35%)" stroke-width="0.00045"></path>
<path d="M0.432 0.659 Q1.045 0.600 1.065 0.288" stroke="hsl(180.0,100%,35%)" stroke-width="0.00090"></path>
<path d="M0.432 0.659 Q0.913 0.870 1.432 0.682" stroke="hsl(180.0,100%,35%)" stroke-width="0.00023"></path>
<path d="M0.432 0.659 Q0.948 0.531 0.811 0.251" stroke="hsl(180.0,100%,35%)" stroke-width="0.00023"></path>
<path d="M0.432 0.659 Q0.622 0.391 0.141 0.240" stroke="hsl(180.0,100%,35%)" stroke-width="0.00090"></path>
<path d="M0.432 0.659 Q0.776 0.345 0.240 0.108" stroke="hsl(180.0,100%,35%)" stroke-width="0.00045"></path>
<path d="M0.432 0.659 Q0.631 0.484 0.333 0.348" stroke="hsl(180.0,100%,35%)" stroke-width="0.00045"></path>
<path d="M0.432 0.659 Q0.838 0.930 1.458 0.792" stroke="hsl(180.0,100%,35%)" stroke-width="0.00045"></path>
<path d="M0.432 0.659 Q0.753 0.631 0.769 0.468" stroke="hsl(180.0,100%,35%)" stroke-width="0.00023"></path>
<path d="M0.432 0.659 Q0.894 0.446 0.582 0.174" stroke="hsl(180.0,100%,35%)" stroke-width="0.00068"></path>
<path d="M0.432 0.659 Q0.849 0.737 1.094 0.551" stroke="hsl(180.0,100%,35%)" stroke-width="0.00023"></path>
<path d="M0.492 0.433 Q0.480 0.359 0.333 0.348" stroke="hsl(0.0,100%,35%)" stroke-width="0.00045"></path>
<path d="M0.492 0.433 Q0.699 0.613 1.094 0.551" stroke="hsl(0.0,100%,35%)" stroke-width="0.00023"></path>
<path d="M0.492 0.433 Q0.895 0.476 1.065 0.288" stroke="hsl(0.0,100%,35%)" stroke-width="0.00023"></path>
<path d="M0.808 0.355 Q0.990 0.373 1.065 0.288" stroke="hsl(180.0,100%,35%)" stroke-width="0.01014"></path>
<path d="M0.808 0.355 Q0.669 0.324 0.579 0.385" stroke="hsl(180.0,100%,35%)" stroke-width="0.00248"></path>
<path d="M0.808 0.355 Q0.566 0.164 0.141 0.240" stroke="hsl(180.0,100%,35%)" stroke-width="0.00045"></path>
<path d="M0.808 0.355 Q0.858 0.643 1.432 0.682" stroke="hsl(180.0,100%,35%)" stroke-width="0.00045"></path>
<path d="M0.808 0.355 Q0.698 0.403 0.769 0.468" stroke="hsl(180.0,100%,35%)" stroke-width="0.00406"></path>
<path d="M0.808 0.355 Q0.576 0.256 0.333 0.348" stroke="hsl(180.0,100%,35%)" stroke-width="0.00023"></path>
<path d="M0.808 0.355 Q0.794 0.510 1.094 0.551" stroke="hsl(180.0,100%,35%)" stroke-width="0.00068"></path>
<path d="M0.808 0.355 Q0.818 0.448 1.003 0.463" stroke="hsl(180.0,100%,35%)" stroke-width="0.00338"></path>
<path d="M0.808 0.355 Q0.577 0.779 1.354 0.985" stroke="hsl(180.0,100%,35%)" stroke-width="0.00045"></path>
<path d="M0.808 0.355 Q1.079 0.482 1.387 0.378" stroke="hsl(180.0,100%,35%)" stroke-width="0.00023"></path>
<path d="M0.811 0.251 Q0.909 0.321 1.065 0.288" stroke="hsl(180.0,100%,35%)" stroke-width="0.01713"></path>
<path d="M0.811 0.251 Q0.588 0.271 0.579 0.385" stroke="hsl(180.0,100%,35%)" stroke-width="0.00225"></path>
<path d="M0.811 0.251 Q0.485 0.111 0.141 0.240" stroke="hsl(180.0,100%,35%)" stroke-width="0.01194"></path>
<path d="M0.811 0.251 Q0.495 0.204 0.333 0.348" stroke="hsl(180.0,100%,35%)" stroke-width="0.00248"></path>
<path d="M0.811 0.251 Q0.737 0.395 1.003 0.463" stroke="hsl(180.0,100%,35%)" stroke-width="0.01645"></path>
<path d="M0.811 0.251 Q0.496 0.726 1.354 0.985" stroke="hsl(180.0,100%,35%)" stroke-width="0.00045"></path>
<path d="M0.811 0.251 Q0.610 0.307 0.675 0.418" stroke="hsl(180.0,100%,35%)" stroke-width="0.00045"></path>
<path d="M0.811 0.251 Q0.713 0.458 1.094 0.551" stroke="hsl(180.0,100%,35%)" stroke-width="0.00338"></path>
<path d="M0.811 0.251 Q0.928 0.429 1.301 0.412" stroke="hsl(180.0,100%,35%)" stroke-width="0.00023"></path>
<path d="M0.811 0.251 Q0.464 0.348 0.576 0.539" stroke="hsl(180.0,100%,35%)" stroke-width="0.00045"></path>
<path d="M0.811 0.251 Q0.910 0.240 0.909 0.189" stroke="hsl(180.0,100%,35%)" stroke-width="0.00023"></path>
<path d="M0.811 0.251 Q0.731 0.086 0.392 0.089" stroke="hsl(180.0,100%,35%)" stroke-width="0.00045"></path>
<path d="M0.811 0.251 Q0.758 0.167 0.582 0.174" stroke="hsl(180.0,100%,35%)" stroke-width="0.00045"></path>
<path d="M0.826 0.378 Q1.017 0.381 1.065 0.288" stroke="hsl(180.0,100%,35%)" stroke-width="0.00113"></path>
<path d="M0.826 0.378 Q0.697 0.332 0.579 0.385" stroke="hsl(180.0,100%,35%)" stroke-width="0.00068"></path>
<path d="M0.826 0.378 Q0.603 0.264 0.333 0.348" stroke="hsl(180.0,100%,35%)" stroke-width="0.00023"></path>
<path d="M0.826 0.378 Q0.846 0.456 1.003 0.463" stroke="hsl(180.0,100%,35%)" stroke-width="0.00045"></path>
<path d="M0.826 0.378 Q0.891 0.394 0.938 0.366" stroke="hsl(180.0,100%,35%)" stroke-width="0.00023"></path>
<path d="M0.826 0.378 Q0.726 0.411 0.769 0.468" stroke="hsl(180.0,100%,35%)" stroke-width="0.00023"></path>
<path d="M0.576 0.539 Q1.021 0.511 1.065 0.288" stroke="hsl(180.0,100%,35%)" stroke-width="0.00113"></path>
<path d="M0.576 0.539 Q0.701 0.462 0.579 0.385" stroke="hsl(180.0,100%,35%)" stroke-width="0.00045"></path>
<path d="M0.576 0.539 Q1.110 0.620 1.387 0.378" stroke="hsl(180.0,100%,35%)" stroke-width="0.00045"></path>
<path d="M0.576 0.539 Q0.607 0.395 0.333 0.348" stroke="hsl(180.0,100%,35%)" stroke-width="0.00045"></path>
<path d="M0.576 0.539 Q0.825 0.648 1.094 0.551" stroke="hsl(180.0,100%,35%)" stroke-width="0.00023"></path>
<path d="M0.576 0.539 Q0.850 0.586 1.003 0.463" stroke="hsl(180.0,100%,35%)" stroke-width="0.00023"></path>
<path d="M0.576 0.539 Q0.608 0.917 1.354 0.985" stroke="hsl(180.0,100%,35%)" stroke-width="0.00068"></path>
<path d="M0.175 0.403 Q0.712 0.524 1.065 0.288" stroke="hsl(0.0,100%,35%)" stroke-width="0.00045"></path>
<path d="M0.175 0.403 Q0.298 0.407 0.333 0.348" stroke="hsl(0.0,100%,35%)" stroke-width="0.00068"></path>
<path d="M0.175 0.403 Q0.517 0.661 1.094 0.551" stroke="hsl(0.0,100%,35%)" stroke-width="0.00023"></path>
<path d="M0.175 0.403 Q0.562 0.370 0.582 0.174" stroke="hsl(0.0,100%,35%)" stroke-width="0.00023"></path>
<path d="M1.121 0.082 Q0.928 0.174 1.065 0.288" stroke="hsl(180.0,100%,35%)" stroke-width="0.00135"></path>
<path d="M1.121 0.082 Q0.608 0.125 0.579 0.385" stroke="hsl(180.0,100%,35%)" stroke-width="0.00045"></path>
<path d="M1.121 0.082 Q0.831 0.105 0.811 0.251" stroke="hsl(180.0,100%,35%)" stroke-width="0.00090"></path>
<path d="M1.121 0.082 Q0.757 0.249 1.003 0.463" stroke="hsl(180.0,100%,35%)" stroke-width="0.00023"></path>
<path d="M0.841 -0.174 Q0.169 -0.015 0.333 0.348" stroke="hsl(180.0,100%,35%)" stroke-width="0.00023"></path>
<path d="M0.841 -0.174 Q0.486 0.033 0.811 0.251" stroke="hsl(180.0,100%,35%)" stroke-width="0.00023"></path>
<path d="M0.841 -0.174 Q0.388 0.239 1.094 0.551" stroke="hsl(180.0,100%,35%)" stroke-width="0.00023"></path>
<path d="M0.720 0.471 Q1.039 0.449 1.065 0.288" stroke="hsl(180.0,100%,35%)" stroke-width="0.00135"></path>
<path d="M0.720 0.471 Q0.718 0.399 0.579 0.385" stroke="hsl(180.0,100%,35%)" stroke-width="0.00023"></path>
<path d="M0.720 0.471 Q0.611 0.535 0.711 0.602" stroke="hsl(180.0,100%,35%)" stroke-width="0.00023"></path>
<path d="M0.720 0.471 Q0.857 0.430 0.808 0.355" stroke="hsl(180.0,100%,35%)" stroke-width="0.00045"></path>
<path d="M0.720 0.471 Q0.867 0.524 1.003 0.463" stroke="hsl(180.0,100%,35%)" stroke-width="0.00045"></path>
<path d="M0.720 0.471 Q0.747 0.479 0.769 0.468" stroke="hsl(180.0,100%,35%)" stroke-width="0.00023"></path>
<path d="M0.720 0.471 Q0.615 0.239 0.141 0.240" stroke="hsl(180.0,100%,35%)" stroke-width="0.00023"></path>
<path d="M1.760 0.805 Q1.412 0.291 0.333 0.348" stroke="hsl(0.0,100%,35%)" stroke-width="0.00023"></path>
<path d="M1.760 0.805 Q1.894 0.745 1.806 0.666" stroke="hsl(0.0,100%,35%)" stroke-width="0.00023"></path>
<path d="M1.760 0.805 Q1.402 0.199 0.141 0.240" stroke="hsl(0.0,100%,35%)" stroke-width="0.00023"></path>
<path d="M0.228 0.583 Q0.732 0.449 0.582 0.174" stroke="hsl(180.0,100%,35%)" stroke-width="0.00090"></path>
<path d="M0.228 0.583 Q0.270 0.661 0.432 0.659" stroke="hsl(180.0,100%,35%)" stroke-width="0.00113"></path>
<path d="M0.228 0.583 Q0.459 0.394 0.141 0.240" stroke="hsl(180.0,100%,35%)" stroke-width="0.00045"></path>
<path d="M0.228 0.583 Q0.687 0.740 1.094 0.551" stroke="hsl(180.0,100%,35%)" stroke-width="0.00023"></path>
<path d="M0.728 0.400 Q0.986 0.412 1.065 0.288" stroke="hsl(180.0,100%,35%)" stroke-width="0.00045"></path>
<path d="M0.728 0.400 Q0.815 0.487 1.003 0.463" stroke="hsl(180.0,100%,35%)" stroke-width="0.00023"></path>
<path d="M0.728 0.400 Q0.572 0.295 0.333 0.348" stroke="hsl(180.0,100%,35%)" stroke-width="0.00023"></path>
<path d="M0.741 0.062 Q0.402 0.191 0.579 0.385" stroke="hsl(180.0,100%,35%)" stroke-width="0.00023"></path>
<path d="M0.741 0.062 Q0.722 0.240 1.065 0.288" stroke="hsl(180.0,100%,35%)" stroke-width="0.00023"></path>
<path d="M0.741 0.062 Q0.308 0.123 0.333 0.348" stroke="hsl(180.0,100%,35%)" stroke-width="0.00023"></path>
<path d="M0.835 0.566 Q1.172 0.473 1.065 0.288" stroke="hsl(180.0,100%,35%)" stroke-width="0.00023"></path>
<path d="M0.835 0.566 Q0.758 0.356 0.333 0.348" stroke="hsl(180.0,100%,35%)" stroke-width="0.00023"></path>
<path d="M0.835 0.566 Q1.001 0.548 1.003 0.463" stroke="hsl(180.0,100%,35%)" stroke-width="0.00045"></path>
<path d="M0.644 0.680 Q0.848 0.519 0.579 0.385" stroke="hsl(180.0,100%,35%)" stroke-width="0.00045"></path>
<path d="M0.644 0.680 Q0.723 0.596 0.576 0.539" stroke="hsl(180.0,100%,35%)" stroke-width="0.00045"></path>
<path d="M0.644 0.680 Q1.168 0.569 1.065 0.288" stroke="hsl(180.0,100%,35%)" stroke-width="0.00023"></path>
<path d="M1.194 0.076 Q0.960 0.157 1.065 0.288" stroke="hsl(180.0,100%,35%)" stroke-width="0.00113"></path>
<path d="M1.194 0.076 Q0.863 0.087 0.811 0.251" stroke="hsl(180.0,100%,35%)" stroke-width="0.00068"></path>
<path d="M1.194 0.076 Q0.668 0.187 0.769 0.468" stroke="hsl(180.0,100%,35%)" stroke-width="0.00023"></path>
<path d="M1.487 0.151 Q0.743 -0.074 0.141 0.240" stroke="hsl(180.0,100%,35%)" stroke-width="0.00158"></path>
<path d="M1.487 0.151 Q1.167 0.135 1.065 0.288" stroke="hsl(180.0,100%,35%)" stroke-width="0.00270"></path>
<path d="M1.487 0.151 Q0.875 0.166 0.769 0.468" stroke="hsl(180.0,100%,35%)" stroke-width="0.00135"></path>
<path d="M1.487 0.151 Q0.995 0.210 1.003 0.463" stroke="hsl(180.0,100%,35%)" stroke-width="0.00045"></path>
<path d="M1.487 0.151 Q1.016 -0.019 0.582 0.174" stroke="hsl(180.0,100%,35%)" stroke-width="0.00023"></path>
<path d="M1.487 0.151 Q0.753 0.019 0.333 0.348" stroke="hsl(180.0,100%,35%)" stroke-width="0.00045"></path>
<path d="M1.487 0.151 Q0.985 0.117 0.808 0.355" stroke="hsl(180.0,100%,35%)" stroke-width="0.00045"></path>
<path d="M0.688 0.553 Q0.768 0.447 0.579 0.385" stroke="hsl(180.0,100%,35%)" stroke-width="0.00090"></path>
<path d="M0.688 0.553 Q0.911 0.262 0.392 0.089" stroke="hsl(180.0,100%,35%)" stroke-width="0.00023"></path>
<path d="M0.688 0.553 Q1.089 0.496 1.065 0.288" stroke="hsl(180.0,100%,35%)" stroke-width="0.00045"></path>
<path d="M0.688 0.553 Q0.917 0.571 1.003 0.463" stroke="hsl(180.0,100%,35%)" stroke-width="0.00023"></path>
<path d="M0.688 0.553 Q0.893 0.633 1.094 0.551" stroke="hsl(180.0,100%,35%)" stroke-width="0.00023"></path>
<path d="M0.618 0.492 Q0.684 0.430 0.579 0.385" stroke="hsl(180.0,100%,35%)" stroke-width="0.00090"></path>
<path d="M0.618 0.492 Q0.590 0.363 0.333 0.348" stroke="hsl(180.0,100%,35%)" stroke-width="0.00023"></path>
<path d="M0.618 0.492 Q1.004 0.479 1.065 0.288" stroke="hsl(180.0,100%,35%)" stroke-width="0.00158"></path>
<path d="M0.618 0.492 Q0.833 0.554 1.003 0.463" stroke="hsl(180.0,100%,35%)" stroke-width="0.00068"></path>
<path d="M0.618 0.492 Q1.094 0.588 1.387 0.378" stroke="hsl(180.0,100%,35%)" stroke-width="0.00090"></path>
<path d="M0.618 0.492 Q0.907 0.410 0.811 0.251" stroke="hsl(180.0,100%,35%)" stroke-width="0.00023"></path>
<path d="M0.618 0.492 Q0.809 0.616 1.094 0.551" stroke="hsl(180.0,100%,35%)" stroke-width="0.00045"></path>
<path d="M0.398 0.409 Q0.829 0.482 1.065 0.288" stroke="hsl(0.0,100%,35%)" stroke-width="0.00045"></path>
<path d="M0.398 0.409 Q0.416 0.888 1.354 0.985" stroke="hsl(0.0,100%,35%)" stroke-width="0.00023"></path>
<path d="M0.398 0.409 Q0.414 0.366 0.333 0.348" stroke="hsl(0.0,100%,35%)" stroke-width="0.00045"></path>
<path d="M0.398 0.409 Q0.651 0.248 0.392 0.089" stroke="hsl(0.0,100%,35%)" stroke-width="0.00023"></path>
<path d="M0.398 0.409 Q0.405 0.273 0.141 0.240" stroke="hsl(0.0,100%,35%)" stroke-width="0.00045"></path>
<path d="M0.151 0.338 Q0.063 0.386 0.137 0.439" stroke="hsl(180.0,100%,35%)" stroke-width="0.00023"></path>
<path d="M0.151 0.338 Q0.234 0.380 0.333 0.348" stroke="hsl(180.0,100%,35%)" stroke-width="0.00045"></path>
<path d="M0.151 0.338 Q0.648 0.496 1.065 0.288" stroke="hsl(180.0,100%,35%)" stroke-width="0.00023"></path>
<path d="M0.394 0.749 Q1.098 0.653 1.065 0.288" stroke="hsl(180.0,100%,35%)" stroke-width="0.00023"></path>
<path d="M0.394 0.749 Q0.201 0.739 0.138 0.830" stroke="hsl(180.0,100%,35%)" stroke-width="0.00023"></path>
<path d="M0.394 0.749 Q0.279 0.807 0.366 0.876" stroke="hsl(180.0,100%,35%)" stroke-width="0.00023"></path>
<path d="M0.782 0.045 Q0.632 0.154 0.811 0.251" stroke="hsl(180.0,100%,35%)" stroke-width="0.00068"></path>
<path d="M0.782 0.045 Q0.306 0.014 0.141 0.240" stroke="hsl(180.0,100%,35%)" stroke-width="0.00023"></path>
<path d="M0.782 0.045 Q0.548 0.205 0.808 0.355" stroke="hsl(180.0,100%,35%)" stroke-width="0.00045"></path>
<path d="M0.782 0.045 Q0.730 0.224 1.065 0.288" stroke="hsl(180.0,100%,35%)" stroke-width="0.00023"></path>
<path d="M0.866 0.606 Q1.024 0.624 1.094 0.551" stroke="hsl(180.0,100%,35%)" stroke-width="0.00023"></path>
<path d="M0.866 0.606 Q1.220 0.487 1.065 0.288" stroke="hsl(180.0,100%,35%)" stroke-width="0.00023"></path>
<path d="M0.866 0.606 Q0.607 0.545 0.432 0.659" stroke="hsl(180.0,100%,35%)" stroke-width="0.00023"></path>
<path d="M1.475 0.054 Q1.083 0.090 1.065 0.288" stroke="hsl(180.0,100%,35%)" stroke-width="0.00023"></path>
<path d="M1.475 0.054 Q0.912 0.164 1.003 0.463" stroke="hsl(180.0,100%,35%)" stroke-width="0.00135"></path>
<path d="M1.475 0.054 Q0.887 0.227 1.094 0.551" stroke="hsl(180.0,100%,35%)" stroke-width="0.00113"></path>
<path d="M1.475 0.054 Q1.404 0.105 1.487 0.151" stroke="hsl(180.0,100%,35%)" stroke-width="0.00090"></path>
<path d="M1.475 0.054 Q0.669 -0.027 0.333 0.348" stroke="hsl(180.0,100%,35%)" stroke-width="0.00023"></path>
<path d="M1.140 0.384 Q1.002 0.087 0.392 0.089" stroke="hsl(180.0,100%,35%)" stroke-width="0.00045"></path>
<path d="M1.140 0.384 Q0.859 0.272 0.579 0.385" stroke="hsl(180.0,100%,35%)" stroke-width="0.00090"></path>
<path d="M1.140 0.384 Q1.180 0.322 1.065 0.288" stroke="hsl(180.0,100%,35%)" stroke-width="0.00518"></path>
<path d="M1.140 0.384 Q1.001 0.052 0.321 0.047" stroke="hsl(180.0,100%,35%)" stroke-width="0.00090"></path>
<path d="M1.140 0.384 Q1.082 0.252 0.811 0.251" stroke="hsl(180.0,100%,35%)" stroke-width="0.00023"></path>
<path d="M1.140 0.384 Q1.008 0.396 1.003 0.463" stroke="hsl(180.0,100%,35%)" stroke-width="0.00158"></path>
<path d="M1.140 0.384 Q0.984 0.458 1.094 0.551" stroke="hsl(180.0,100%,35%)" stroke-width="0.00023"></path>
<path d="M1.140 0.384 Q0.766 0.205 0.333 0.348" stroke="hsl(180.0,100%,35%)" stroke-width="0.00090"></path>
<path d="M1.140 0.384 Q0.888 0.352 0.769 0.468" stroke="hsl(180.0,100%,35%)" stroke-width="0.00068"></path>
<path d="M1.140 0.384 Q0.756 0.112 0.141 0.240" stroke="hsl(180.0,100%,35%)" stroke-width="0.00023"></path>
<path d="M1.140 0.384 Q1.048 0.592 1.432 0.682" stroke="hsl(180.0,100%,35%)" stroke-width="0.00023"></path>
<path d="M1.140 0.384 Q0.735 0.349 0.576 0.539" stroke="hsl(180.0,100%,35%)" stroke-width="0.00023"></path>
<path d="M1.437 0.536 Q1.539 0.447 1.387 0.378" stroke="hsl(180.0,100%,35%)" stroke-width="0.00023"></path>
<path d="M1.437 0.536 Q1.158 0.368 0.769 0.468" stroke="hsl(180.0,100%,35%)" stroke-width="0.00023"></path>
</g>
<text x="1.354" y="0.965" font-size="0.039191" fill="hsl(0.0,100%,20%)">amaiorano</text>
<text x="1.065" y="0.940" font-size="0.015683" fill="hsl(0.0,100%,20%)">chouinard</text>
<text x="0.579" y="0.369" font-size="0.031713" fill="hsl(180.0,100%,20%)">enga</text>
<text x="0.333" y="0.305" font-size="0.087259" fill="hsl(0.0,100%,20%)">dsinclair</text>
<text x="0.582" y="0.153" font-size="0.042791" fill="hsl(0.0,100%,20%)">rharrison</text>
<text x="0.141" y="0.196" font-size="0.087384" fill="hsl(0.0,100%,20%)">jrprice</text>
<text x="0.909" y="0.187" font-size="0.004676" fill="hsl(180.0,100%,20%)">kbr</text>
<text x="1.065" y="0.256" font-size="0.065462" fill="hsl(180.0,100%,20%)">cwallez</text>
<text x="0.240" y="0.096" font-size="0.024853" fill="hsl(0.0,100%,20%)">petermcneeley</text>
<text x="0.392" y="0.075" font-size="0.028634" fill="hsl(0.0,100%,20%)">dneto</text>
<text x="1.094" y="0.527" font-size="0.047224" fill="hsl(180.0,100%,20%)">kainino</text>
<text x="1.331" y="0.833" font-size="0.002338" fill="hsl(0.0,100%,20%)">mikt</text>
<text x="1.301" y="0.398" font-size="0.026657" fill="hsl(180.0,100%,20%)">beaufort.francois</text>
<text x="1.209" y="0.193" font-size="0.004049" fill="hsl(180.0,100%,20%)">amir</text>
<text x="1.387" y="0.368" font-size="0.019279" fill="hsl(180.0,100%,20%)">bajones</text>
<text x="0.753" y="0.385" font-size="0.020112" fill="hsl(180.0,100%,20%)">jaswant.panchumarti</text>
<text x="0.675" y="0.409" font-size="0.019420" fill="hsl(180.0,100%,20%)">gman</text>
<text x="1.003" y="0.435" font-size="0.056596" fill="hsl(180.0,100%,20%)">lokokung</text>
<text x="0.769" y="0.457" font-size="0.021171" fill="hsl(180.0,100%,20%)">geofflang</text>
<text x="1.432" y="0.671" font-size="0.022425" fill="hsl(180.0,100%,20%)">shrekshao</text>
<text x="0.321" y="0.042" font-size="0.009055" fill="hsl(180.0,100%,20%)">alanbaker</text>
<text x="1.462" y="0.156" font-size="0.002338" fill="hsl(180.0,100%,20%)">mehmetoguzderin</text>
<text x="1.458" y="0.781" font-size="0.021428" fill="hsl(180.0,100%,20%)">senorblanco</text>
<text x="0.366" y="0.869" font-size="0.013831" fill="hsl(180.0,100%,20%)">bentonian</text>
<text x="0.913" y="0.203" font-size="0.008430" fill="hsl(180.0,100%,20%)">nexa</text>
<text x="0.138" y="0.819" font-size="0.023026" fill="hsl(180.0,100%,20%)">jimblackler</text>
<text x="0.757" y="0.367" font-size="0.008099" fill="hsl(180.0,100%,20%)">blundell</text>
<text x="0.938" y="0.358" font-size="0.016198" fill="hsl(180.0,100%,20%)">kylechar</text>
<text x="1.322" y="0.359" font-size="0.006613" fill="hsl(180.0,100%,20%)">brandon1.jones</text>
<text x="0.137" y="0.428" font-size="0.021681" fill="hsl(180.0,100%,20%)">bsheedy</text>
<text x="0.432" y="0.651" font-size="0.014600" fill="hsl(180.0,100%,20%)">ynovikov</text>
<text x="0.312" y="0.487" font-size="0.002338" fill="hsl(180.0,100%,20%)">chanli</text>
<text x="0.492" y="0.431" font-size="0.004676" fill="hsl(0.0,100%,20%)">cabral.brc</text>
<text x="0.808" y="0.342" font-size="0.024632" fill="hsl(180.0,100%,20%)">lehoangquyen</text>
<text x="0.811" y="0.232" font-size="0.038700" fill="hsl(180.0,100%,20%)">jiawei.shao</text>
<text x="0.955" y="0.510" font-size="0.003306" fill="hsl(180.0,100%,20%)">fbeaufort</text>
<text x="0.845" y="0.468" font-size="0.002338" fill="hsl(180.0,100%,20%)">tiszka</text>
<text x="1.002" y="0.092" font-size="0.002338" fill="hsl(180.0,100%,20%)">arthursonzogni</text>
<text x="0.826" y="0.374" font-size="0.008748" fill="hsl(180.0,100%,20%)">hitawala</text>
<text x="0.576" y="0.533" font-size="0.010966" fill="hsl(180.0,100%,20%)">rafael.cintron</text>
<text x="0.397" y="0.477" font-size="0.002338" fill="hsl(0.0,100%,20%)">ddoman</text>
<text x="0.175" y="0.400" font-size="0.006186" fill="hsl(0.0,100%,20%)">eliemichel</text>
<text x="1.121" y="0.078" font-size="0.008430" fill="hsl(180.0,100%,20%)">hao.x.li</text>
<text x="0.841" y="-0.176" font-size="0.004049" fill="hsl(180.0,100%,20%)">hocheung</text>
<text x="0.720" y="0.467" font-size="0.008748" fill="hsl(180.0,100%,20%)">jie.a.chen</text>
<text x="0.711" y="0.601" font-size="0.002338" fill="hsl(180.0,100%,20%)">penghuang</text>
<text x="0.049" y="0.646" font-size="0.002338" fill="hsl(180.0,100%,20%)">mako</text>
<text x="0.535" y="0.834" font-size="0.005727" fill="hsl(180.0,100%,20%)">bkaya</text>
<text x="1.760" y="0.803" font-size="0.004049" fill="hsl(0.0,100%,20%)">jojwang</text>
<text x="1.806" y="0.665" font-size="0.002338" fill="hsl(0.0,100%,20%)">gavinmak</text>
<text x="0.468" y="0.118" font-size="0.002338" fill="hsl(0.0,100%,20%)">johnstiles</text>
<text x="0.228" y="0.579" font-size="0.008099" fill="hsl(180.0,100%,20%)">jwata</text>
<text x="0.728" y="0.398" font-size="0.004676" fill="hsl(180.0,100%,20%)">michaelludwig</text>
<text x="0.741" y="0.060" font-size="0.004049" fill="hsl(180.0,100%,20%)">micheal.reed</text>
<text x="0.835" y="0.563" font-size="0.004676" fill="hsl(180.0,100%,20%)">nickchavez</text>
<text x="0.644" y="0.678" font-size="0.005228" fill="hsl(180.0,100%,20%)">patrto</text>
<text x="1.194" y="0.073" font-size="0.007014" fill="hsl(180.0,100%,20%)">shaobo.yan</text>
<text x="1.487" y="0.144" font-size="0.014028" fill="hsl(180.0,100%,20%)">shaoboyan</text>
<text x="0.688" y="0.550" font-size="0.007014" fill="hsl(180.0,100%,20%)">srijan.dhungana6</text>
<text x="0.618" y="0.486" font-size="0.010966" fill="hsl(180.0,100%,20%)">sunnyps</text>
<text x="0.398" y="0.406" font-size="0.006613" fill="hsl(0.0,100%,20%)">tikuta</text>
<text x="0.151" y="0.336" font-size="0.004676" fill="hsl(180.0,100%,20%)">vplotkin</text>
<text x="0.394" y="0.747" font-size="0.004049" fill="hsl(180.0,100%,20%)">vrepets</text>
<text x="0.782" y="0.042" font-size="0.006186" fill="hsl(180.0,100%,20%)">xing.xu</text>
<text x="0.866" y="0.604" font-size="0.004049" fill="hsl(180.0,100%,20%)">ygu</text>
<text x="1.475" y="0.050" font-size="0.009640" fill="hsl(180.0,100%,20%)">yulong.fs</text>
<text x="1.140" y="0.376" font-size="0.016859" fill="hsl(180.0,100%,20%)">zhaoming.jiang</text>
<text x="1.437" y="0.535" font-size="0.003306" fill="hsl(180.0,100%,20%)">zmo</text>
</svg>
