<svg width="4000" height="2000" viewBox="-0.025 -0.025 2.05 1.05" xmlns="http://www.w3.org/2000/svg">
  <style>
    path {
      fill: none;
      stroke-linecap: round;
      stroke-opacity: 0.4;
    }

    text {
      text-anchor: middle;
      alignment-baseline: hanging;
    }
  </style>
  <g opacity="0.4">
<path d="M0.784 0.819 Q1.629 0.559 1.308 0.090" stroke="hsl(0.0,100%,35%)" stroke-width="0.00185"></path>
<path d="M0.784 0.819 Q1.125 1.072 1.694 0.961" stroke="hsl(0.0,100%,35%)" stroke-width="0.00123"></path>
<path d="M0.784 0.819 Q1.444 0.614 1.189 0.247" stroke="hsl(0.0,100%,35%)" stroke-width="0.00801"></path>
<path d="M0.784 0.819 Q0.837 0.598 0.419 0.524" stroke="hsl(0.0,100%,35%)" stroke-width="0.00185"></path>
<path d="M0.784 0.819 Q1.040 0.806 1.071 0.678" stroke="hsl(0.0,100%,35%)" stroke-width="0.00062"></path>
<path d="M0.784 0.819 Q0.777 0.458 0.070 0.382" stroke="hsl(0.0,100%,35%)" stroke-width="0.00062"></path>
<path d="M1.308 0.090 Q1.122 0.145 1.189 0.247" stroke="hsl(0.0,100%,35%)" stroke-width="0.09862"></path>
<path d="M1.308 0.090 Q1.333 0.169 1.494 0.175" stroke="hsl(0.0,100%,35%)" stroke-width="0.00185"></path>
<path d="M1.308 0.090 Q0.625 0.073 0.442 0.402" stroke="hsl(0.0,100%,35%)" stroke-width="0.00062"></path>
<path d="M1.308 0.090 Q0.875 0.047 0.696 0.248" stroke="hsl(0.0,100%,35%)" stroke-width="0.00062"></path>
<path d="M1.308 0.090 Q0.804 0.603 1.694 0.961" stroke="hsl(0.0,100%,35%)" stroke-width="0.00185"></path>
<path d="M1.308 0.090 Q1.072 0.564 1.945 0.783" stroke="hsl(0.0,100%,35%)" stroke-width="0.00062"></path>
<path d="M1.308 0.090 Q1.048 0.205 1.217 0.358" stroke="hsl(0.0,100%,35%)" stroke-width="0.00247"></path>
<path d="M1.308 0.090 Q0.516 0.129 0.419 0.524" stroke="hsl(0.0,100%,35%)" stroke-width="0.00678"></path>
<path d="M1.308 0.090 Q1.085 0.440 1.719 0.625" stroke="hsl(0.0,100%,35%)" stroke-width="0.00062"></path>
<path d="M1.694 0.961 Q1.765 0.405 0.696 0.248" stroke="hsl(180.0,100%,35%)" stroke-width="0.00062"></path>
<path d="M1.694 0.961 Q1.962 0.922 1.945 0.783" stroke="hsl(180.0,100%,35%)" stroke-width="0.01479"></path>
<path d="M1.694 0.961 Q1.353 0.708 0.784 0.819" stroke="hsl(180.0,100%,35%)" stroke-width="0.00247"></path>
<path d="M1.694 0.961 Q2.198 0.448 1.308 0.090" stroke="hsl(180.0,100%,35%)" stroke-width="0.00431"></path>
<path d="M1.694 0.961 Q1.406 0.487 0.419 0.524" stroke="hsl(180.0,100%,35%)" stroke-width="0.00123"></path>
<path d="M1.694 0.961 Q2.415 0.545 1.761 0.102" stroke="hsl(180.0,100%,35%)" stroke-width="0.00123"></path>
<path d="M1.694 0.961 Q1.975 0.798 1.719 0.625" stroke="hsl(180.0,100%,35%)" stroke-width="0.00123"></path>
<path d="M1.694 0.961 Q1.236 0.444 0.127 0.555" stroke="hsl(180.0,100%,35%)" stroke-width="0.00062"></path>
<path d="M1.694 0.961 Q1.345 0.347 0.070 0.382" stroke="hsl(180.0,100%,35%)" stroke-width="0.00185"></path>
<path d="M1.694 0.961 Q1.938 0.564 1.217 0.358" stroke="hsl(180.0,100%,35%)" stroke-width="0.00062"></path>
<path d="M1.189 0.247 Q1.374 0.192 1.308 0.090" stroke="hsl(0.0,100%,35%)" stroke-width="0.05301"></path>
<path d="M1.189 0.247 Q0.582 0.231 0.419 0.524" stroke="hsl(0.0,100%,35%)" stroke-width="0.00493"></path>
<path d="M1.189 0.247 Q1.399 0.272 1.494 0.175" stroke="hsl(0.0,100%,35%)" stroke-width="0.00123"></path>
<path d="M1.189 0.247 Q1.114 0.308 1.217 0.358" stroke="hsl(0.0,100%,35%)" stroke-width="0.00123"></path>
<path d="M1.189 0.247 Q1.046 0.261 1.042 0.334" stroke="hsl(0.0,100%,35%)" stroke-width="0.00431"></path>
<path d="M1.189 0.247 Q0.529 0.452 0.784 0.819" stroke="hsl(0.0,100%,35%)" stroke-width="0.00370"></path>
<path d="M1.189 0.247 Q0.870 0.705 1.694 0.961" stroke="hsl(0.0,100%,35%)" stroke-width="0.00062"></path>
<path d="M1.189 0.247 Q1.138 0.666 1.945 0.783" stroke="hsl(0.0,100%,35%)" stroke-width="0.00062"></path>
<path d="M0.419 0.524 Q1.211 0.485 1.308 0.090" stroke="hsl(180.0,100%,35%)" stroke-width="0.00986"></path>
<path d="M0.419 0.524 Q0.525 0.601 0.698 0.566" stroke="hsl(180.0,100%,35%)" stroke-width="0.00062"></path>
<path d="M0.419 0.524 Q0.179 0.554 0.186 0.677" stroke="hsl(180.0,100%,35%)" stroke-width="0.00740"></path>
<path d="M0.419 0.524 Q1.025 0.539 1.189 0.247" stroke="hsl(180.0,100%,35%)" stroke-width="0.00986"></path>
<path d="M0.419 0.524 Q0.528 0.468 0.442 0.402" stroke="hsl(180.0,100%,35%)" stroke-width="0.00062"></path>
<path d="M0.419 0.524 Q0.659 0.626 0.911 0.531" stroke="hsl(180.0,100%,35%)" stroke-width="0.00062"></path>
<path d="M0.419 0.524 Q0.778 0.441 0.696 0.248" stroke="hsl(180.0,100%,35%)" stroke-width="0.00123"></path>
<path d="M0.419 0.524 Q0.316 0.621 0.482 0.692" stroke="hsl(180.0,100%,35%)" stroke-width="0.00062"></path>
<path d="M0.419 0.524 Q0.975 0.959 1.945 0.783" stroke="hsl(180.0,100%,35%)" stroke-width="0.00431"></path>
<path d="M0.419 0.524 Q0.707 0.997 1.694 0.961" stroke="hsl(180.0,100%,35%)" stroke-width="0.00185"></path>
<path d="M0.419 0.524 Q0.988 0.834 1.719 0.625" stroke="hsl(180.0,100%,35%)" stroke-width="0.00308"></path>
<path d="M0.419 0.524 Q0.358 0.383 0.070 0.382" stroke="hsl(180.0,100%,35%)" stroke-width="0.00308"></path>
<path d="M0.070 0.382 Q0.131 0.523 0.419 0.524" stroke="hsl(180.0,100%,35%)" stroke-width="0.00986"></path>
<path d="M0.070 0.382 Q0.883 0.654 1.592 0.317" stroke="hsl(180.0,100%,35%)" stroke-width="0.00062"></path>
<path d="M0.070 0.382 Q-0.109 0.553 0.186 0.677" stroke="hsl(180.0,100%,35%)" stroke-width="0.00062"></path>
<path d="M0.070 0.382 Q0.687 0.957 1.945 0.783" stroke="hsl(180.0,100%,35%)" stroke-width="0.00616"></path>
<path d="M0.070 0.382 Q0.595 0.552 1.042 0.334" stroke="hsl(180.0,100%,35%)" stroke-width="0.00062"></path>
<path d="M0.070 0.382 Q0.923 0.483 1.308 0.090" stroke="hsl(180.0,100%,35%)" stroke-width="0.00062"></path>
<path d="M0.070 0.382 Q0.737 0.538 1.189 0.247" stroke="hsl(180.0,100%,35%)" stroke-width="0.00062"></path>
<path d="M0.070 0.382 Q0.419 0.996 1.694 0.961" stroke="hsl(180.0,100%,35%)" stroke-width="0.00062"></path>
<path d="M0.070 0.382 Q0.325 0.292 0.206 0.149" stroke="hsl(180.0,100%,35%)" stroke-width="0.00062"></path>
<path d="M1.719 0.625 Q1.438 0.788 1.694 0.961" stroke="hsl(180.0,100%,35%)" stroke-width="0.00247"></path>
<path d="M1.719 0.625 Q1.706 0.749 1.945 0.783" stroke="hsl(180.0,100%,35%)" stroke-width="0.00185"></path>
<path d="M1.719 0.625 Q0.911 0.344 0.186 0.677" stroke="hsl(180.0,100%,35%)" stroke-width="0.00123"></path>
<path d="M1.719 0.625 Q1.096 0.535 0.784 0.819" stroke="hsl(180.0,100%,35%)" stroke-width="0.00062"></path>
<path d="M1.719 0.625 Q1.150 0.314 0.419 0.524" stroke="hsl(180.0,100%,35%)" stroke-width="0.00185"></path>
<path d="M1.945 0.783 Q1.389 0.348 0.419 0.524" stroke="hsl(180.0,100%,35%)" stroke-width="0.00863"></path>
<path d="M1.945 0.783 Q1.996 0.364 1.189 0.247" stroke="hsl(180.0,100%,35%)" stroke-width="0.00062"></path>
<path d="M1.945 0.783 Q1.677 0.822 1.694 0.961" stroke="hsl(180.0,100%,35%)" stroke-width="0.01849"></path>
<path d="M1.945 0.783 Q1.752 0.589 1.331 0.640" stroke="hsl(180.0,100%,35%)" stroke-width="0.00123"></path>
<path d="M1.945 0.783 Q1.959 0.659 1.719 0.625" stroke="hsl(180.0,100%,35%)" stroke-width="0.00185"></path>
<path d="M1.945 0.783 Q1.853 0.378 1.042 0.334" stroke="hsl(180.0,100%,35%)" stroke-width="0.00062"></path>
<path d="M1.042 0.334 Q1.331 0.436 1.592 0.317" stroke="hsl(0.0,100%,35%)" stroke-width="0.00062"></path>
<path d="M1.042 0.334 Q1.370 0.265 1.308 0.090" stroke="hsl(0.0,100%,35%)" stroke-width="0.00185"></path>
<path d="M1.042 0.334 Q1.135 0.739 1.945 0.783" stroke="hsl(0.0,100%,35%)" stroke-width="0.00062"></path>
<path d="M1.042 0.334 Q0.525 0.525 0.784 0.819" stroke="hsl(0.0,100%,35%)" stroke-width="0.00247"></path>
<path d="M1.042 0.334 Q1.395 0.345 1.494 0.175" stroke="hsl(0.0,100%,35%)" stroke-width="0.00062"></path>
<path d="M1.042 0.334 Q0.579 0.304 0.419 0.524" stroke="hsl(0.0,100%,35%)" stroke-width="0.00062"></path>
<path d="M1.042 0.334 Q0.867 0.778 1.694 0.961" stroke="hsl(0.0,100%,35%)" stroke-width="0.00062"></path>
<path d="M0.698 0.566 Q1.162 0.800 1.719 0.625" stroke="hsl(180.0,100%,35%)" stroke-width="0.00185"></path>
<path d="M0.698 0.566 Q0.592 0.489 0.419 0.524" stroke="hsl(180.0,100%,35%)" stroke-width="0.00185"></path>
<path d="M0.698 0.566 Q0.539 0.710 0.784 0.819" stroke="hsl(180.0,100%,35%)" stroke-width="0.00062"></path>
<path d="M1.761 0.102 Q1.545 0.005 1.308 0.090" stroke="hsl(0.0,100%,35%)" stroke-width="0.00863"></path>
<path d="M1.761 0.102 Q1.322 0.355 1.719 0.625" stroke="hsl(0.0,100%,35%)" stroke-width="0.00062"></path>
<path d="M1.761 0.102 Q0.753 0.045 0.419 0.524" stroke="hsl(0.0,100%,35%)" stroke-width="0.00062"></path>
<path d="M1.761 0.102 Q1.359 0.060 1.189 0.247" stroke="hsl(0.0,100%,35%)" stroke-width="0.00062"></path>
<path d="M1.761 0.102 Q1.041 0.518 1.694 0.961" stroke="hsl(0.0,100%,35%)" stroke-width="0.00123"></path>
<path d="M1.761 0.102 Q1.112 -0.038 0.696 0.248" stroke="hsl(0.0,100%,35%)" stroke-width="0.00247"></path>
<path d="M1.761 0.102 Q0.699 0.265 0.784 0.819" stroke="hsl(0.0,100%,35%)" stroke-width="0.00062"></path>
<path d="M0.696 0.248 Q1.153 0.371 1.494 0.175" stroke="hsl(0.0,100%,35%)" stroke-width="0.00185"></path>
<path d="M0.696 0.248 Q0.696 0.707 1.591 0.807" stroke="hsl(0.0,100%,35%)" stroke-width="0.00062"></path>
<path d="M0.696 0.248 Q0.943 0.346 1.189 0.247" stroke="hsl(0.0,100%,35%)" stroke-width="0.00185"></path>
<path d="M0.696 0.248 Q0.625 0.804 1.694 0.961" stroke="hsl(0.0,100%,35%)" stroke-width="0.00062"></path>
<path d="M1.683 0.179 Q1.567 0.060 1.308 0.090" stroke="hsl(0.0,100%,35%)" stroke-width="0.00123"></path>
<path d="M1.683 0.179 Q1.063 0.573 1.694 0.961" stroke="hsl(0.0,100%,35%)" stroke-width="0.00062"></path>
<path d="M1.683 0.179 Q0.775 0.099 0.419 0.524" stroke="hsl(0.0,100%,35%)" stroke-width="0.00062"></path>
<path d="M0.442 0.402 Q0.333 0.458 0.419 0.524" stroke="hsl(180.0,100%,35%)" stroke-width="0.00493"></path>
<path d="M0.442 0.402 Q0.902 0.769 1.719 0.625" stroke="hsl(180.0,100%,35%)" stroke-width="0.00062"></path>
<path d="M0.442 0.402 Q1.125 0.419 1.308 0.090" stroke="hsl(180.0,100%,35%)" stroke-width="0.00062"></path>
<path d="M0.442 0.402 Q0.279 0.679 0.784 0.819" stroke="hsl(180.0,100%,35%)" stroke-width="0.00062"></path>
<path d="M0.442 0.402 Q0.797 0.488 1.042 0.334" stroke="hsl(180.0,100%,35%)" stroke-width="0.00123"></path>
<path d="M0.442 0.402 Q1.341 0.516 1.761 0.102" stroke="hsl(180.0,100%,35%)" stroke-width="0.00062"></path>
<path d="M0.911 0.531 Q0.671 0.429 0.419 0.524" stroke="hsl(180.0,100%,35%)" stroke-width="0.00863"></path>
<path d="M0.911 0.531 Q1.227 0.864 1.945 0.783" stroke="hsl(180.0,100%,35%)" stroke-width="0.00555"></path>
<path d="M0.911 0.531 Q1.463 0.390 1.308 0.090" stroke="hsl(180.0,100%,35%)" stroke-width="0.00185"></path>
<path d="M0.911 0.531 Q1.277 0.444 1.189 0.247" stroke="hsl(180.0,100%,35%)" stroke-width="0.00555"></path>
<path d="M0.482 0.692 Q0.585 0.595 0.419 0.524" stroke="hsl(180.0,100%,35%)" stroke-width="0.00678"></path>
<path d="M0.482 0.692 Q1.141 1.030 1.945 0.783" stroke="hsl(180.0,100%,35%)" stroke-width="0.00370"></path>
<path d="M0.482 0.692 Q1.377 0.556 1.308 0.090" stroke="hsl(180.0,100%,35%)" stroke-width="0.00062"></path>
<path d="M0.482 0.692 Q0.346 0.626 0.186 0.677" stroke="hsl(180.0,100%,35%)" stroke-width="0.00062"></path>
<path d="M0.482 0.692 Q1.154 0.906 1.719 0.625" stroke="hsl(180.0,100%,35%)" stroke-width="0.00185"></path>
<path d="M0.482 0.692 Q0.415 0.553 0.127 0.555" stroke="hsl(180.0,100%,35%)" stroke-width="0.00062"></path>
<path d="M1.494 0.175 Q1.284 0.150 1.189 0.247" stroke="hsl(0.0,100%,35%)" stroke-width="0.01726"></path>
<path d="M1.494 0.175 Q1.469 0.095 1.308 0.090" stroke="hsl(0.0,100%,35%)" stroke-width="0.02774"></path>
<path d="M1.494 0.175 Q1.209 0.211 1.217 0.358" stroke="hsl(0.0,100%,35%)" stroke-width="0.00062"></path>
<path d="M1.494 0.175 Q1.141 0.164 1.042 0.334" stroke="hsl(0.0,100%,35%)" stroke-width="0.00062"></path>
<path d="M1.494 0.175 Q0.677 0.134 0.419 0.524" stroke="hsl(0.0,100%,35%)" stroke-width="0.00062"></path>
<path d="M1.494 0.175 Q0.624 0.355 0.784 0.819" stroke="hsl(0.0,100%,35%)" stroke-width="0.00493"></path>
<path d="M1.494 0.175 Q1.233 0.569 1.945 0.783" stroke="hsl(0.0,100%,35%)" stroke-width="0.00062"></path>
<path d="M1.217 0.358 Q1.477 0.242 1.308 0.090" stroke="hsl(0.0,100%,35%)" stroke-width="0.00678"></path>
<path d="M1.217 0.358 Q1.291 0.297 1.189 0.247" stroke="hsl(0.0,100%,35%)" stroke-width="0.01109"></path>
<path d="M1.217 0.358 Q0.631 0.502 0.784 0.819" stroke="hsl(0.0,100%,35%)" stroke-width="0.00185"></path>
<path d="M1.217 0.358 Q0.685 0.281 0.419 0.524" stroke="hsl(0.0,100%,35%)" stroke-width="0.00123"></path>
<path d="M1.217 0.358 Q1.502 0.322 1.494 0.175" stroke="hsl(0.0,100%,35%)" stroke-width="0.00062"></path>
<path d="M1.217 0.358 Q1.149 0.311 1.042 0.334" stroke="hsl(0.0,100%,35%)" stroke-width="0.00062"></path>
<path d="M1.217 0.358 Q0.973 0.755 1.694 0.961" stroke="hsl(0.0,100%,35%)" stroke-width="0.00062"></path>
<path d="M1.217 0.358 Q1.437 0.413 1.592 0.317" stroke="hsl(0.0,100%,35%)" stroke-width="0.00062"></path>
<path d="M0.782 0.691 Q0.734 0.535 0.419 0.524" stroke="hsl(180.0,100%,35%)" stroke-width="0.00123"></path>
<path d="M0.782 0.691 Q1.290 0.970 1.945 0.783" stroke="hsl(180.0,100%,35%)" stroke-width="0.00123"></path>
<path d="M0.782 0.691 Q0.631 0.632 0.482 0.692" stroke="hsl(180.0,100%,35%)" stroke-width="0.00062"></path>
<path d="M0.782 0.691 Q0.494 0.565 0.186 0.677" stroke="hsl(180.0,100%,35%)" stroke-width="0.00062"></path>
<path d="M1.248 0.601 Q0.895 0.397 0.419 0.524" stroke="hsl(180.0,100%,35%)" stroke-width="0.00308"></path>
<path d="M1.248 0.601 Q1.460 0.553 1.413 0.439" stroke="hsl(180.0,100%,35%)" stroke-width="0.00185"></path>
<path d="M1.248 0.601 Q1.451 0.831 1.945 0.783" stroke="hsl(180.0,100%,35%)" stroke-width="0.00062"></path>
<path d="M0.674 0.297 Q1.181 0.400 1.494 0.175" stroke="hsl(0.0,100%,35%)" stroke-width="0.00247"></path>
<path d="M0.674 0.297 Q0.724 0.277 0.696 0.248" stroke="hsl(0.0,100%,35%)" stroke-width="0.00308"></path>
<path d="M0.674 0.297 Q0.971 0.375 1.189 0.247" stroke="hsl(0.0,100%,35%)" stroke-width="0.00123"></path>
<path d="M0.674 0.297 Q0.653 0.833 1.694 0.961" stroke="hsl(0.0,100%,35%)" stroke-width="0.00062"></path>
<path d="M0.127 0.555 Q0.298 0.598 0.419 0.524" stroke="hsl(180.0,100%,35%)" stroke-width="0.01664"></path>
<path d="M0.127 0.555 Q0.058 0.628 0.186 0.677" stroke="hsl(180.0,100%,35%)" stroke-width="0.00801"></path>
<path d="M0.127 0.555 Q0.854 1.032 1.945 0.783" stroke="hsl(180.0,100%,35%)" stroke-width="0.00493"></path>
<path d="M0.127 0.555 Q0.244 0.818 0.784 0.819" stroke="hsl(180.0,100%,35%)" stroke-width="0.00062"></path>
<path d="M1.331 0.640 Q1.575 0.415 1.189 0.247" stroke="hsl(180.0,100%,35%)" stroke-width="0.00123"></path>
<path d="M1.331 0.640 Q1.524 0.835 1.945 0.783" stroke="hsl(180.0,100%,35%)" stroke-width="0.00308"></path>
<path d="M1.331 0.640 Q1.977 0.457 1.761 0.102" stroke="hsl(180.0,100%,35%)" stroke-width="0.00062"></path>
<path d="M1.331 0.640 Q1.077 0.343 0.442 0.402" stroke="hsl(180.0,100%,35%)" stroke-width="0.00123"></path>
<path d="M1.331 0.640 Q1.256 0.873 1.694 0.961" stroke="hsl(180.0,100%,35%)" stroke-width="0.00308"></path>
<path d="M1.331 0.640 Q1.327 0.776 1.591 0.807" stroke="hsl(180.0,100%,35%)" stroke-width="0.00062"></path>
<path d="M1.331 0.640 Q0.968 0.400 0.419 0.524" stroke="hsl(180.0,100%,35%)" stroke-width="0.00247"></path>
<path d="M1.331 0.640 Q0.798 0.357 0.127 0.555" stroke="hsl(180.0,100%,35%)" stroke-width="0.00062"></path>
<path d="M1.591 0.807 Q2.023 0.392 1.308 0.090" stroke="hsl(180.0,100%,35%)" stroke-width="0.00062"></path>
<path d="M1.591 0.807 Q1.231 0.431 0.419 0.524" stroke="hsl(180.0,100%,35%)" stroke-width="0.00062"></path>
<path d="M1.591 0.807 Q1.519 0.905 1.694 0.961" stroke="hsl(180.0,100%,35%)" stroke-width="0.00185"></path>
<path d="M0.690 0.468 Q0.510 0.442 0.419 0.524" stroke="hsl(180.0,100%,35%)" stroke-width="0.00431"></path>
<path d="M0.690 0.468 Q1.117 0.457 1.189 0.247" stroke="hsl(180.0,100%,35%)" stroke-width="0.00062"></path>
<path d="M0.690 0.468 Q0.271 0.472 0.186 0.677" stroke="hsl(180.0,100%,35%)" stroke-width="0.00185"></path>
<path d="M0.690 0.468 Q1.066 0.877 1.945 0.783" stroke="hsl(180.0,100%,35%)" stroke-width="0.00062"></path>
<path d="M0.340 0.630 Q0.464 0.593 0.419 0.524" stroke="hsl(180.0,100%,35%)" stroke-width="0.00185"></path>
<path d="M0.340 0.630 Q0.752 1.066 1.694 0.961" stroke="hsl(180.0,100%,35%)" stroke-width="0.00123"></path>
<path d="M0.340 0.630 Q1.020 1.027 1.945 0.783" stroke="hsl(180.0,100%,35%)" stroke-width="0.00062"></path>
<path d="M0.719 0.422 Q0.951 0.443 1.042 0.334" stroke="hsl(180.0,100%,35%)" stroke-width="0.00062"></path>
<path d="M0.719 0.422 Q1.279 0.374 1.308 0.090" stroke="hsl(180.0,100%,35%)" stroke-width="0.00247"></path>
<path d="M0.719 0.422 Q0.487 0.413 0.419 0.524" stroke="hsl(180.0,100%,35%)" stroke-width="0.00740"></path>
<path d="M0.719 0.422 Q1.043 0.848 1.945 0.783" stroke="hsl(180.0,100%,35%)" stroke-width="0.00308"></path>
<path d="M0.719 0.422 Q0.248 0.443 0.186 0.677" stroke="hsl(180.0,100%,35%)" stroke-width="0.00123"></path>
<path d="M0.719 0.422 Q1.094 0.428 1.189 0.247" stroke="hsl(180.0,100%,35%)" stroke-width="0.00062"></path>
<path d="M1.501 0.729 Q1.693 0.720 1.719 0.625" stroke="hsl(180.0,100%,35%)" stroke-width="0.00062"></path>
<path d="M1.501 0.729 Q0.884 0.440 0.186 0.677" stroke="hsl(180.0,100%,35%)" stroke-width="0.00062"></path>
</g>
<text x="0.784" y="0.802" font-size="0.033724" fill="hsl(0.0,100%,20%)">amaiorano</text>
<text x="1.308" y="0.044" font-size="0.090658" fill="hsl(0.0,100%,20%)">dsinclair</text>
<text x="1.694" y="0.937" font-size="0.048141" fill="hsl(180.0,100%,20%)">kainino</text>
<text x="1.189" y="0.202" font-size="0.088986" fill="hsl(0.0,100%,20%)">jrprice</text>
<text x="0.419" y="0.489" font-size="0.070254" fill="hsl(180.0,100%,20%)">cwallez</text>
<text x="1.071" y="0.676" font-size="0.004632" fill="hsl(0.0,100%,20%)">mikt</text>
<text x="0.070" y="0.367" font-size="0.030021" fill="hsl(180.0,100%,20%)">beaufort.francois</text>
<text x="1.719" y="0.612" font-size="0.026611" fill="hsl(180.0,100%,20%)">bajones</text>
<text x="1.945" y="0.756" font-size="0.054221" fill="hsl(180.0,100%,20%)">lokokung</text>
<text x="0.186" y="0.663" font-size="0.027794" fill="hsl(180.0,100%,20%)">geofflang</text>
<text x="1.592" y="0.313" font-size="0.008024" fill="hsl(0.0,100%,20%)">alanbaker</text>
<text x="1.042" y="0.322" font-size="0.023621" fill="hsl(0.0,100%,20%)">dneto</text>
<text x="0.206" y="0.146" font-size="0.004632" fill="hsl(180.0,100%,20%)">mehmetoguzderin</text>
<text x="0.698" y="0.560" font-size="0.013102" fill="hsl(180.0,100%,20%)">brandon1.jones</text>
<text x="1.761" y="0.090" font-size="0.024512" fill="hsl(0.0,100%,20%)">bsheedy</text>
<text x="0.696" y="0.238" font-size="0.021228" fill="hsl(0.0,100%,20%)">ynovikov</text>
<text x="1.683" y="0.175" font-size="0.009265" fill="hsl(0.0,100%,20%)">cabral.brc</text>
<text x="0.442" y="0.392" font-size="0.019654" fill="hsl(180.0,100%,20%)">gman</text>
<text x="0.911" y="0.517" font-size="0.027794" fill="hsl(180.0,100%,20%)">jiawei.shao</text>
<text x="0.482" y="0.681" font-size="0.023162" fill="hsl(180.0,100%,20%)">kylechar</text>
<text x="1.494" y="0.152" font-size="0.046092" fill="hsl(0.0,100%,20%)">rharrison</text>
<text x="1.217" y="0.342" font-size="0.031419" fill="hsl(0.0,100%,20%)">petermcneeley</text>
<text x="0.782" y="0.685" font-size="0.011347" fill="hsl(180.0,100%,20%)">hitawala</text>
<text x="1.248" y="0.594" font-size="0.013897" fill="hsl(180.0,100%,20%)">jimblackler</text>
<text x="1.413" y="0.435" font-size="0.008024" fill="hsl(180.0,100%,20%)">bkaya</text>
<text x="0.674" y="0.289" font-size="0.016047" fill="hsl(0.0,100%,20%)">jwata</text>
<text x="0.127" y="0.538" font-size="0.033405" fill="hsl(180.0,100%,20%)">lehoangquyen</text>
<text x="1.331" y="0.629" font-size="0.022216" fill="hsl(180.0,100%,20%)">shrekshao</text>
<text x="1.591" y="0.801" font-size="0.012256" fill="hsl(180.0,100%,20%)">senorblanco</text>
<text x="0.690" y="0.460" font-size="0.016047" fill="hsl(180.0,100%,20%)">shaoboyan</text>
<text x="0.340" y="0.624" font-size="0.011347" fill="hsl(180.0,100%,20%)">sunnyps</text>
<text x="0.719" y="0.410" font-size="0.023162" fill="hsl(180.0,100%,20%)">zhaoming.jiang</text>
<text x="1.501" y="0.725" font-size="0.006551" fill="hsl(180.0,100%,20%)">zmo</text>
</svg>
