<svg width="4000" height="2000" viewBox="-0.025 -0.025 2.05 1.05" xmlns="http://www.w3.org/2000/svg">
  <style>
    path {
      fill: none;
      stroke-linecap: round;
      stroke-opacity: 0.4;
    }

    text {
      text-anchor: middle;
      alignment-baseline: hanging;
    }
  </style>
  <g opacity="0.4">
<path d="M0.619 0.355 Q0.680 0.438 0.855 0.427" stroke="hsl(0.0,100%,35%)" stroke-width="0.00703"></path>
<path d="M0.619 0.355 Q0.701 0.574 1.147 0.583" stroke="hsl(0.0,100%,35%)" stroke-width="0.00156"></path>
<path d="M0.619 0.355 Q0.514 0.466 0.707 0.542" stroke="hsl(0.0,100%,35%)" stroke-width="0.00156"></path>
<path d="M0.619 0.355 Q0.851 0.383 0.956 0.276" stroke="hsl(0.0,100%,35%)" stroke-width="0.00351"></path>
<path d="M0.619 0.355 Q0.865 0.284 0.780 0.148" stroke="hsl(0.0,100%,35%)" stroke-width="0.00039"></path>
<path d="M0.619 0.355 Q0.706 0.251 0.522 0.186" stroke="hsl(0.0,100%,35%)" stroke-width="0.00078"></path>
<path d="M0.619 0.355 Q0.317 0.528 0.590 0.714" stroke="hsl(0.0,100%,35%)" stroke-width="0.00039"></path>
<path d="M0.855 0.427 Q0.794 0.344 0.619 0.355" stroke="hsl(0.0,100%,35%)" stroke-width="0.00390"></path>
<path d="M0.855 0.427 Q0.689 0.455 0.707 0.542" stroke="hsl(0.0,100%,35%)" stroke-width="0.04919"></path>
<path d="M0.855 0.427 Q1.026 0.372 0.956 0.276" stroke="hsl(0.0,100%,35%)" stroke-width="0.00351"></path>
<path d="M0.855 0.427 Q0.493 0.517 0.590 0.714" stroke="hsl(0.0,100%,35%)" stroke-width="0.00351"></path>
<path d="M0.855 0.427 Q0.739 0.557 0.967 0.642" stroke="hsl(0.0,100%,35%)" stroke-width="0.00117"></path>
<path d="M0.855 0.427 Q0.722 0.534 0.903 0.623" stroke="hsl(0.0,100%,35%)" stroke-width="0.00273"></path>
<path d="M0.855 0.427 Q0.876 0.563 1.147 0.583" stroke="hsl(0.0,100%,35%)" stroke-width="0.00039"></path>
<path d="M0.855 0.427 Q0.739 0.591 1.033 0.683" stroke="hsl(0.0,100%,35%)" stroke-width="0.00039"></path>
<path d="M1.147 0.583 Q1.010 0.610 1.033 0.683" stroke="hsl(180.0,100%,35%)" stroke-width="0.02303"></path>
<path d="M1.147 0.583 Q0.993 0.554 0.903 0.623" stroke="hsl(180.0,100%,35%)" stroke-width="0.00039"></path>
<path d="M1.147 0.583 Q0.724 0.738 0.934 0.978" stroke="hsl(180.0,100%,35%)" stroke-width="0.00039"></path>
<path d="M1.147 0.583 Q1.021 0.499 0.829 0.542" stroke="hsl(180.0,100%,35%)" stroke-width="0.00039"></path>
<path d="M1.147 0.583 Q0.763 0.537 0.590 0.714" stroke="hsl(180.0,100%,35%)" stroke-width="0.00039"></path>
<path d="M1.147 0.583 Q1.065 0.363 0.619 0.355" stroke="hsl(180.0,100%,35%)" stroke-width="0.00234"></path>
<path d="M1.147 0.583 Q0.960 0.474 0.707 0.542" stroke="hsl(180.0,100%,35%)" stroke-width="0.00273"></path>
<path d="M1.147 0.583 Q1.297 0.391 0.956 0.276" stroke="hsl(180.0,100%,35%)" stroke-width="0.00156"></path>
<path d="M1.147 0.583 Q0.698 0.421 0.284 0.605" stroke="hsl(180.0,100%,35%)" stroke-width="0.00117"></path>
<path d="M1.147 0.583 Q1.131 0.802 1.556 0.858" stroke="hsl(180.0,100%,35%)" stroke-width="0.00078"></path>
<path d="M1.147 0.583 Q1.410 0.569 1.440 0.438" stroke="hsl(180.0,100%,35%)" stroke-width="0.00039"></path>
<path d="M1.147 0.583 Q1.152 0.259 0.522 0.186" stroke="hsl(180.0,100%,35%)" stroke-width="0.00117"></path>
<path d="M1.147 0.583 Q1.010 0.576 0.967 0.642" stroke="hsl(180.0,100%,35%)" stroke-width="0.00039"></path>
<path d="M1.147 0.583 Q1.358 0.476 1.197 0.350" stroke="hsl(180.0,100%,35%)" stroke-width="0.00039"></path>
<path d="M0.707 0.542 Q0.510 0.604 0.590 0.714" stroke="hsl(0.0,100%,35%)" stroke-width="0.00390"></path>
<path d="M0.707 0.542 Q0.873 0.514 0.855 0.427" stroke="hsl(0.0,100%,35%)" stroke-width="0.10034"></path>
<path d="M0.707 0.542 Q0.740 0.621 0.903 0.623" stroke="hsl(0.0,100%,35%)" stroke-width="0.00781"></path>
<path d="M0.707 0.542 Q1.044 0.459 0.956 0.276" stroke="hsl(0.0,100%,35%)" stroke-width="0.00547"></path>
<path d="M0.707 0.542 Q1.105 0.544 1.197 0.350" stroke="hsl(0.0,100%,35%)" stroke-width="0.00039"></path>
<path d="M0.707 0.542 Q0.471 0.805 0.934 0.978" stroke="hsl(0.0,100%,35%)" stroke-width="0.00039"></path>
<path d="M0.707 0.542 Q0.894 0.650 1.147 0.583" stroke="hsl(0.0,100%,35%)" stroke-width="0.00117"></path>
<path d="M0.707 0.542 Q0.757 0.678 1.033 0.683" stroke="hsl(0.0,100%,35%)" stroke-width="0.00156"></path>
<path d="M0.707 0.542 Q0.757 0.644 0.967 0.642" stroke="hsl(0.0,100%,35%)" stroke-width="0.00195"></path>
<path d="M0.707 0.542 Q0.878 0.869 1.556 0.858" stroke="hsl(0.0,100%,35%)" stroke-width="0.00039"></path>
<path d="M0.707 0.542 Q0.812 0.431 0.619 0.355" stroke="hsl(0.0,100%,35%)" stroke-width="0.00039"></path>
<path d="M0.956 0.276 Q0.619 0.359 0.707 0.542" stroke="hsl(180.0,100%,35%)" stroke-width="0.00625"></path>
<path d="M0.956 0.276 Q0.798 0.755 1.698 0.938" stroke="hsl(180.0,100%,35%)" stroke-width="0.00039"></path>
<path d="M0.956 0.276 Q0.971 0.543 1.496 0.595" stroke="hsl(180.0,100%,35%)" stroke-width="0.00508"></path>
<path d="M0.956 0.276 Q0.785 0.331 0.855 0.427" stroke="hsl(180.0,100%,35%)" stroke-width="0.00664"></path>
<path d="M0.956 0.276 Q1.018 0.361 1.197 0.350" stroke="hsl(180.0,100%,35%)" stroke-width="0.00078"></path>
<path d="M0.956 0.276 Q0.707 0.559 1.205 0.743" stroke="hsl(180.0,100%,35%)" stroke-width="0.00078"></path>
<path d="M0.956 0.276 Q0.384 0.623 0.934 0.978" stroke="hsl(180.0,100%,35%)" stroke-width="0.00078"></path>
<path d="M0.956 0.276 Q0.508 0.432 0.714 0.685" stroke="hsl(180.0,100%,35%)" stroke-width="0.00039"></path>
<path d="M0.956 0.276 Q0.669 0.495 1.033 0.683" stroke="hsl(180.0,100%,35%)" stroke-width="0.00351"></path>
<path d="M0.956 0.276 Q0.806 0.468 1.147 0.583" stroke="hsl(180.0,100%,35%)" stroke-width="0.00117"></path>
<path d="M0.956 0.276 Q0.791 0.687 1.556 0.858" stroke="hsl(180.0,100%,35%)" stroke-width="0.00195"></path>
<path d="M0.956 0.276 Q0.811 0.144 0.522 0.186" stroke="hsl(180.0,100%,35%)" stroke-width="0.00234"></path>
<path d="M0.956 0.276 Q0.423 0.422 0.590 0.714" stroke="hsl(180.0,100%,35%)" stroke-width="0.00039"></path>
<path d="M0.956 0.276 Q1.224 0.335 1.397 0.217" stroke="hsl(180.0,100%,35%)" stroke-width="0.00039"></path>
<path d="M0.522 0.186 Q0.380 0.537 1.033 0.683" stroke="hsl(180.0,100%,35%)" stroke-width="0.00820"></path>
<path d="M0.522 0.186 Q0.501 0.729 1.556 0.858" stroke="hsl(180.0,100%,35%)" stroke-width="0.00156"></path>
<path d="M0.522 0.186 Q0.517 0.509 1.147 0.583" stroke="hsl(180.0,100%,35%)" stroke-width="0.00508"></path>
<path d="M0.522 0.186 Q0.667 0.318 0.956 0.276" stroke="hsl(180.0,100%,35%)" stroke-width="0.01132"></path>
<path d="M0.522 0.186 Q0.363 0.481 0.903 0.623" stroke="hsl(180.0,100%,35%)" stroke-width="0.00078"></path>
<path d="M0.522 0.186 Q0.132 0.598 0.851 0.879" stroke="hsl(180.0,100%,35%)" stroke-width="0.00039"></path>
<path d="M0.522 0.186 Q0.682 0.585 1.496 0.595" stroke="hsl(180.0,100%,35%)" stroke-width="0.00039"></path>
<path d="M0.522 0.186 Q0.330 0.401 0.707 0.542" stroke="hsl(180.0,100%,35%)" stroke-width="0.00039"></path>
<path d="M0.522 0.186 Q0.496 0.373 0.855 0.427" stroke="hsl(180.0,100%,35%)" stroke-width="0.00039"></path>
<path d="M0.522 0.186 Q0.529 0.098 0.359 0.075" stroke="hsl(180.0,100%,35%)" stroke-width="0.00039"></path>
<path d="M0.522 0.186 Q0.728 0.403 1.197 0.350" stroke="hsl(180.0,100%,35%)" stroke-width="0.00039"></path>
<path d="M0.522 0.186 Q0.391 0.425 0.829 0.542" stroke="hsl(180.0,100%,35%)" stroke-width="0.00039"></path>
<path d="M0.590 0.714 Q0.786 0.651 0.707 0.542" stroke="hsl(0.0,100%,35%)" stroke-width="0.03123"></path>
<path d="M0.590 0.714 Q0.952 0.623 0.855 0.427" stroke="hsl(0.0,100%,35%)" stroke-width="0.01991"></path>
<path d="M0.590 0.714 Q0.836 0.753 0.967 0.642" stroke="hsl(0.0,100%,35%)" stroke-width="0.00039"></path>
<path d="M0.590 0.714 Q0.819 0.731 0.903 0.623" stroke="hsl(0.0,100%,35%)" stroke-width="0.00039"></path>
<path d="M0.590 0.714 Q1.123 0.568 0.956 0.276" stroke="hsl(0.0,100%,35%)" stroke-width="0.00039"></path>
<path d="M0.590 0.714 Q0.891 0.540 0.619 0.355" stroke="hsl(0.0,100%,35%)" stroke-width="0.00429"></path>
<path d="M0.590 0.714 Q0.836 0.787 1.033 0.683" stroke="hsl(0.0,100%,35%)" stroke-width="0.00117"></path>
<path d="M0.590 0.714 Q0.957 0.979 1.556 0.858" stroke="hsl(0.0,100%,35%)" stroke-width="0.00039"></path>
<path d="M1.556 0.858 Q1.571 0.638 1.147 0.583" stroke="hsl(180.0,100%,35%)" stroke-width="0.00234"></path>
<path d="M1.556 0.858 Q1.434 0.666 1.033 0.683" stroke="hsl(180.0,100%,35%)" stroke-width="0.00195"></path>
<path d="M1.556 0.858 Q1.736 0.714 1.496 0.595" stroke="hsl(180.0,100%,35%)" stroke-width="0.00078"></path>
<path d="M1.556 0.858 Q1.490 0.419 0.619 0.355" stroke="hsl(180.0,100%,35%)" stroke-width="0.00039"></path>
<path d="M1.556 0.858 Q1.721 0.447 0.956 0.276" stroke="hsl(180.0,100%,35%)" stroke-width="0.00156"></path>
<path d="M1.556 0.858 Q1.456 0.609 0.950 0.604" stroke="hsl(180.0,100%,35%)" stroke-width="0.00078"></path>
<path d="M1.033 0.683 Q1.071 0.747 1.205 0.743" stroke="hsl(180.0,100%,35%)" stroke-width="0.00039"></path>
<path d="M1.033 0.683 Q1.170 0.656 1.147 0.583" stroke="hsl(180.0,100%,35%)" stroke-width="0.02733"></path>
<path d="M1.033 0.683 Q1.149 0.519 0.855 0.427" stroke="hsl(180.0,100%,35%)" stroke-width="0.00273"></path>
<path d="M1.033 0.683 Q0.983 0.547 0.707 0.542" stroke="hsl(180.0,100%,35%)" stroke-width="0.00039"></path>
<path d="M1.033 0.683 Q1.320 0.464 0.956 0.276" stroke="hsl(180.0,100%,35%)" stroke-width="0.00703"></path>
<path d="M1.033 0.683 Q1.055 0.627 0.950 0.604" stroke="hsl(180.0,100%,35%)" stroke-width="0.00078"></path>
<path d="M1.033 0.683 Q1.155 0.875 1.556 0.858" stroke="hsl(180.0,100%,35%)" stroke-width="0.00156"></path>
<path d="M1.033 0.683 Q1.016 0.627 0.903 0.623" stroke="hsl(180.0,100%,35%)" stroke-width="0.00078"></path>
<path d="M1.033 0.683 Q1.089 0.436 0.619 0.355" stroke="hsl(180.0,100%,35%)" stroke-width="0.00039"></path>
<path d="M1.033 0.683 Q1.033 0.649 0.967 0.642" stroke="hsl(180.0,100%,35%)" stroke-width="0.00039"></path>
<path d="M1.033 0.683 Q1.556 0.580 1.469 0.302" stroke="hsl(180.0,100%,35%)" stroke-width="0.00039"></path>
<path d="M0.950 0.604 Q1.065 0.633 1.147 0.583" stroke="hsl(180.0,100%,35%)" stroke-width="0.00469"></path>
<path d="M0.950 0.604 Q0.939 0.548 0.829 0.542" stroke="hsl(180.0,100%,35%)" stroke-width="0.00156"></path>
<path d="M0.950 0.604 Q0.878 0.524 0.707 0.542" stroke="hsl(180.0,100%,35%)" stroke-width="0.00039"></path>
<path d="M0.950 0.604 Q0.928 0.660 1.033 0.683" stroke="hsl(180.0,100%,35%)" stroke-width="0.00351"></path>
<path d="M0.950 0.604 Q1.044 0.496 0.855 0.427" stroke="hsl(180.0,100%,35%)" stroke-width="0.00117"></path>
<path d="M0.950 0.604 Q0.616 0.471 0.284 0.605" stroke="hsl(180.0,100%,35%)" stroke-width="0.00039"></path>
<path d="M0.950 0.604 Q1.276 0.526 1.197 0.350" stroke="hsl(180.0,100%,35%)" stroke-width="0.00078"></path>
<path d="M0.950 0.604 Q1.215 0.441 0.956 0.276" stroke="hsl(180.0,100%,35%)" stroke-width="0.00351"></path>
<path d="M0.950 0.604 Q1.328 0.619 1.440 0.438" stroke="hsl(180.0,100%,35%)" stroke-width="0.00039"></path>
<path d="M0.903 0.623 Q0.870 0.543 0.707 0.542" stroke="hsl(0.0,100%,35%)" stroke-width="0.00273"></path>
<path d="M0.903 0.623 Q0.672 0.740 0.851 0.879" stroke="hsl(0.0,100%,35%)" stroke-width="0.00078"></path>
<path d="M0.903 0.623 Q0.931 0.567 0.829 0.542" stroke="hsl(0.0,100%,35%)" stroke-width="0.00039"></path>
<path d="M0.903 0.623 Q0.607 0.490 0.284 0.605" stroke="hsl(0.0,100%,35%)" stroke-width="0.00039"></path>
<path d="M0.903 0.623 Q1.035 0.515 0.855 0.427" stroke="hsl(0.0,100%,35%)" stroke-width="0.00078"></path>
<path d="M0.903 0.623 Q0.919 0.679 1.033 0.683" stroke="hsl(0.0,100%,35%)" stroke-width="0.00195"></path>
<path d="M0.903 0.623 Q0.975 0.432 0.619 0.355" stroke="hsl(0.0,100%,35%)" stroke-width="0.00156"></path>
<path d="M0.903 0.623 Q0.673 0.606 0.590 0.714" stroke="hsl(0.0,100%,35%)" stroke-width="0.00039"></path>
<path d="M0.903 0.623 Q1.206 0.460 0.956 0.276" stroke="hsl(0.0,100%,35%)" stroke-width="0.00039"></path>
<path d="M0.903 0.623 Q1.057 0.652 1.147 0.583" stroke="hsl(0.0,100%,35%)" stroke-width="0.00078"></path>
<path d="M1.197 0.350 Q0.985 0.456 1.147 0.583" stroke="hsl(180.0,100%,35%)" stroke-width="0.00195"></path>
<path d="M1.197 0.350 Q0.970 0.675 1.556 0.858" stroke="hsl(180.0,100%,35%)" stroke-width="0.00078"></path>
<path d="M1.197 0.350 Q0.798 0.348 0.707 0.542" stroke="hsl(180.0,100%,35%)" stroke-width="0.00117"></path>
<path d="M1.197 0.350 Q0.964 0.320 0.855 0.427" stroke="hsl(180.0,100%,35%)" stroke-width="0.00078"></path>
<path d="M1.197 0.350 Q1.135 0.265 0.956 0.276" stroke="hsl(180.0,100%,35%)" stroke-width="0.00781"></path>
<path d="M1.197 0.350 Q0.904 0.237 0.619 0.355" stroke="hsl(180.0,100%,35%)" stroke-width="0.00078"></path>
<path d="M1.197 0.350 Q0.831 0.427 0.903 0.623" stroke="hsl(180.0,100%,35%)" stroke-width="0.00078"></path>
<path d="M1.197 0.350 Q0.536 0.295 0.284 0.605" stroke="hsl(180.0,100%,35%)" stroke-width="0.00039"></path>
<path d="M1.197 0.350 Q0.848 0.484 1.033 0.683" stroke="hsl(180.0,100%,35%)" stroke-width="0.00039"></path>
<path d="M0.829 0.542 Q0.768 0.517 0.707 0.542" stroke="hsl(180.0,100%,35%)" stroke-width="0.00039"></path>
<path d="M0.829 0.542 Q1.105 0.434 0.956 0.276" stroke="hsl(180.0,100%,35%)" stroke-width="0.00039"></path>
<path d="M0.829 0.542 Q0.955 0.626 1.147 0.583" stroke="hsl(180.0,100%,35%)" stroke-width="0.00117"></path>
<path d="M0.829 0.542 Q0.818 0.653 1.033 0.683" stroke="hsl(180.0,100%,35%)" stroke-width="0.00039"></path>
<path d="M1.698 0.938 Q1.691 0.869 1.556 0.858" stroke="hsl(180.0,100%,35%)" stroke-width="0.00117"></path>
<path d="M1.698 0.938 Q1.856 0.458 0.956 0.276" stroke="hsl(180.0,100%,35%)" stroke-width="0.00117"></path>
<path d="M1.698 0.938 Q1.625 0.431 0.619 0.355" stroke="hsl(180.0,100%,35%)" stroke-width="0.00039"></path>
<path d="M0.284 0.605 Q0.651 0.547 0.619 0.355" stroke="hsl(0.0,100%,35%)" stroke-width="0.00117"></path>
<path d="M0.284 0.605 Q0.546 0.658 0.707 0.542" stroke="hsl(0.0,100%,35%)" stroke-width="0.00898"></path>
<path d="M0.284 0.605 Q0.310 0.921 0.934 0.978" stroke="hsl(0.0,100%,35%)" stroke-width="0.00195"></path>
<path d="M0.284 0.605 Q0.717 0.986 1.556 0.858" stroke="hsl(0.0,100%,35%)" stroke-width="0.00039"></path>
<path d="M0.284 0.605 Q0.883 0.575 0.956 0.276" stroke="hsl(0.0,100%,35%)" stroke-width="0.00039"></path>
<path d="M0.284 0.605 Q0.712 0.630 0.855 0.427" stroke="hsl(0.0,100%,35%)" stroke-width="0.00039"></path>
<path d="M0.284 0.605 Q0.733 0.766 1.147 0.583" stroke="hsl(0.0,100%,35%)" stroke-width="0.00117"></path>
<path d="M0.934 0.978 Q1.522 0.899 1.496 0.595" stroke="hsl(0.0,100%,35%)" stroke-width="0.00039"></path>
<path d="M0.934 0.978 Q0.973 0.777 0.590 0.714" stroke="hsl(0.0,100%,35%)" stroke-width="0.00117"></path>
<path d="M0.934 0.978 Q1.231 0.739 0.829 0.542" stroke="hsl(0.0,100%,35%)" stroke-width="0.00039"></path>
<path d="M0.934 0.978 Q1.335 0.687 0.855 0.427" stroke="hsl(0.0,100%,35%)" stroke-width="0.00117"></path>
<path d="M0.934 0.978 Q1.357 0.823 1.147 0.583" stroke="hsl(0.0,100%,35%)" stroke-width="0.00039"></path>
<path d="M0.393 0.579 Q0.580 0.623 0.707 0.542" stroke="hsl(180.0,100%,35%)" stroke-width="0.00078"></path>
<path d="M0.393 0.579 Q0.767 0.731 1.147 0.583" stroke="hsl(180.0,100%,35%)" stroke-width="0.00039"></path>
<path d="M0.393 0.579 Q0.917 0.540 0.956 0.276" stroke="hsl(180.0,100%,35%)" stroke-width="0.00039"></path>
<path d="M1.205 0.743 Q1.304 0.651 1.147 0.583" stroke="hsl(180.0,100%,35%)" stroke-width="0.00351"></path>
<path d="M1.205 0.743 Q1.166 0.679 1.033 0.683" stroke="hsl(180.0,100%,35%)" stroke-width="0.01523"></path>
<path d="M1.205 0.743 Q1.282 0.515 0.855 0.427" stroke="hsl(180.0,100%,35%)" stroke-width="0.01445"></path>
<path d="M1.205 0.743 Q1.580 0.506 1.199 0.270" stroke="hsl(180.0,100%,35%)" stroke-width="0.00039"></path>
<path d="M1.205 0.743 Q1.150 0.622 0.903 0.623" stroke="hsl(180.0,100%,35%)" stroke-width="0.00039"></path>
<path d="M1.205 0.743 Q1.454 0.460 0.956 0.276" stroke="hsl(180.0,100%,35%)" stroke-width="0.01054"></path>
<path d="M1.205 0.743 Q1.117 0.543 0.707 0.542" stroke="hsl(180.0,100%,35%)" stroke-width="0.00195"></path>
<path d="M1.205 0.743 Q0.920 0.605 0.590 0.714" stroke="hsl(180.0,100%,35%)" stroke-width="0.00078"></path>
<path d="M0.714 0.685 Q0.875 0.748 1.033 0.683" stroke="hsl(180.0,100%,35%)" stroke-width="0.00429"></path>
<path d="M0.714 0.685 Q1.012 0.720 1.147 0.583" stroke="hsl(180.0,100%,35%)" stroke-width="0.00039"></path>
<path d="M0.714 0.685 Q1.162 0.529 0.956 0.276" stroke="hsl(180.0,100%,35%)" stroke-width="0.00429"></path>
<path d="M0.714 0.685 Q0.825 0.612 0.707 0.542" stroke="hsl(180.0,100%,35%)" stroke-width="0.00078"></path>
<path d="M0.714 0.685 Q1.177 0.796 1.496 0.595" stroke="hsl(180.0,100%,35%)" stroke-width="0.00039"></path>
<path d="M0.714 0.685 Q0.996 0.940 1.556 0.858" stroke="hsl(180.0,100%,35%)" stroke-width="0.00117"></path>
<path d="M0.714 0.685 Q1.275 0.707 1.440 0.438" stroke="hsl(180.0,100%,35%)" stroke-width="0.00039"></path>
<path d="M1.397 0.217 Q0.958 0.214 0.855 0.427" stroke="hsl(180.0,100%,35%)" stroke-width="0.00273"></path>
<path d="M1.397 0.217 Q1.129 0.158 0.956 0.276" stroke="hsl(180.0,100%,35%)" stroke-width="0.00547"></path>
<path d="M1.397 0.217 Q1.144 0.426 1.496 0.595" stroke="hsl(180.0,100%,35%)" stroke-width="0.00234"></path>
<path d="M1.397 0.217 Q0.842 0.377 1.033 0.683" stroke="hsl(180.0,100%,35%)" stroke-width="0.00078"></path>
<path d="M1.397 0.217 Q0.596 0.304 0.590 0.714" stroke="hsl(180.0,100%,35%)" stroke-width="0.00039"></path>
<path d="M1.397 0.217 Q0.792 0.241 0.707 0.542" stroke="hsl(180.0,100%,35%)" stroke-width="0.00078"></path>
<path d="M1.397 0.217 Q1.242 0.336 1.440 0.438" stroke="hsl(180.0,100%,35%)" stroke-width="0.00156"></path>
<path d="M0.897 0.470 Q0.745 0.468 0.707 0.542" stroke="hsl(0.0,100%,35%)" stroke-width="0.00195"></path>
<path d="M0.897 0.470 Q0.911 0.440 0.855 0.427" stroke="hsl(0.0,100%,35%)" stroke-width="0.00195"></path>
<path d="M0.897 0.470 Q1.082 0.385 0.956 0.276" stroke="hsl(0.0,100%,35%)" stroke-width="0.00039"></path>
<path d="M0.967 0.642 Q1.083 0.512 0.855 0.427" stroke="hsl(0.0,100%,35%)" stroke-width="0.01366"></path>
<path d="M0.967 0.642 Q0.917 0.540 0.707 0.542" stroke="hsl(0.0,100%,35%)" stroke-width="0.00898"></path>
<path d="M0.967 0.642 Q0.950 0.619 0.903 0.623" stroke="hsl(0.0,100%,35%)" stroke-width="0.00117"></path>
<path d="M0.967 0.642 Q1.023 0.429 0.619 0.355" stroke="hsl(0.0,100%,35%)" stroke-width="0.00273"></path>
<path d="M0.967 0.642 Q1.254 0.457 0.956 0.276" stroke="hsl(0.0,100%,35%)" stroke-width="0.00078"></path>
<path d="M0.967 0.642 Q0.721 0.602 0.590 0.714" stroke="hsl(0.0,100%,35%)" stroke-width="0.00078"></path>
<path d="M0.967 0.642 Q1.104 0.648 1.147 0.583" stroke="hsl(0.0,100%,35%)" stroke-width="0.00039"></path>
<path d="M0.967 0.642 Q0.719 0.737 0.851 0.879" stroke="hsl(0.0,100%,35%)" stroke-width="0.00039"></path>
<path d="M0.967 0.642 Q1.089 0.868 1.556 0.858" stroke="hsl(0.0,100%,35%)" stroke-width="0.00039"></path>
<path d="M0.752 0.582 Q0.762 0.553 0.707 0.542" stroke="hsl(0.0,100%,35%)" stroke-width="0.00078"></path>
<path d="M0.752 0.582 Q0.949 0.662 1.147 0.583" stroke="hsl(0.0,100%,35%)" stroke-width="0.00039"></path>
<path d="M0.752 0.582 Q1.099 0.470 0.956 0.276" stroke="hsl(0.0,100%,35%)" stroke-width="0.00039"></path>
<path d="M0.752 0.582 Q0.566 0.616 0.590 0.714" stroke="hsl(0.0,100%,35%)" stroke-width="0.00039"></path>
<path d="M0.700 0.266 Q0.820 0.322 0.956 0.276" stroke="hsl(180.0,100%,35%)" stroke-width="0.00156"></path>
<path d="M0.700 0.266 Q0.533 0.541 1.033 0.683" stroke="hsl(180.0,100%,35%)" stroke-width="0.00078"></path>
<path d="M0.700 0.266 Q0.372 0.478 0.714 0.685" stroke="hsl(180.0,100%,35%)" stroke-width="0.00117"></path>
<path d="M0.700 0.266 Q0.835 0.590 1.496 0.595" stroke="hsl(180.0,100%,35%)" stroke-width="0.00039"></path>
<path d="M0.245 0.348 Q0.371 0.673 1.033 0.683" stroke="hsl(180.0,100%,35%)" stroke-width="0.00195"></path>
<path d="M0.245 0.348 Q0.352 0.347 0.373 0.294" stroke="hsl(180.0,100%,35%)" stroke-width="0.00039"></path>
<path d="M0.245 0.348 Q0.658 0.454 0.956 0.276" stroke="hsl(180.0,100%,35%)" stroke-width="0.00234"></path>
<path d="M0.245 0.348 Q0.071 0.369 0.072 0.458" stroke="hsl(180.0,100%,35%)" stroke-width="0.00234"></path>
<path d="M1.184 0.956 Q1.081 0.716 0.590 0.714" stroke="hsl(0.0,100%,35%)" stroke-width="0.00156"></path>
<path d="M1.184 0.956 Q1.041 0.917 0.934 0.978" stroke="hsl(0.0,100%,35%)" stroke-width="0.00195"></path>
<path d="M1.184 0.956 Q1.443 0.626 0.855 0.427" stroke="hsl(0.0,100%,35%)" stroke-width="0.00078"></path>
<path d="M1.184 0.956 Q1.464 0.762 1.147 0.583" stroke="hsl(0.0,100%,35%)" stroke-width="0.00039"></path>
<path d="M1.440 0.438 Q1.156 0.315 0.855 0.427" stroke="hsl(180.0,100%,35%)" stroke-width="0.00039"></path>
<path d="M1.440 0.438 Q1.040 0.479 1.033 0.683" stroke="hsl(180.0,100%,35%)" stroke-width="0.00508"></path>
<path d="M1.440 0.438 Q1.177 0.452 1.147 0.583" stroke="hsl(180.0,100%,35%)" stroke-width="0.00078"></path>
<path d="M1.440 0.438 Q1.327 0.260 0.956 0.276" stroke="hsl(180.0,100%,35%)" stroke-width="0.01288"></path>
<path d="M1.440 0.438 Q1.342 0.527 1.496 0.595" stroke="hsl(180.0,100%,35%)" stroke-width="0.00664"></path>
<path d="M1.440 0.438 Q1.096 0.232 0.619 0.355" stroke="hsl(180.0,100%,35%)" stroke-width="0.00078"></path>
<path d="M1.440 0.438 Q1.162 0.671 1.556 0.858" stroke="hsl(180.0,100%,35%)" stroke-width="0.00039"></path>
<path d="M1.469 0.302 Q1.233 0.186 0.956 0.276" stroke="hsl(180.0,100%,35%)" stroke-width="0.00234"></path>
<path d="M1.469 0.302 Q1.083 0.378 1.147 0.583" stroke="hsl(180.0,100%,35%)" stroke-width="0.00078"></path>
<path d="M1.469 0.302 Q0.946 0.405 1.033 0.683" stroke="hsl(180.0,100%,35%)" stroke-width="0.00039"></path>
<path d="M1.682 0.255 Q1.302 0.120 0.956 0.276" stroke="hsl(180.0,100%,35%)" stroke-width="0.00117"></path>
<path d="M1.682 0.255 Q1.015 0.339 1.033 0.683" stroke="hsl(180.0,100%,35%)" stroke-width="0.00039"></path>
<path d="M1.682 0.255 Q0.965 0.203 0.707 0.542" stroke="hsl(180.0,100%,35%)" stroke-width="0.00039"></path>
<path d="M1.682 0.255 Q1.538 0.236 1.469 0.302" stroke="hsl(180.0,100%,35%)" stroke-width="0.00039"></path>
<path d="M1.442 0.729 Q1.562 0.405 0.956 0.276" stroke="hsl(180.0,100%,35%)" stroke-width="0.00078"></path>
<path d="M1.442 0.729 Q1.313 0.689 1.205 0.743" stroke="hsl(180.0,100%,35%)" stroke-width="0.00078"></path>
<path d="M1.442 0.729 Q1.275 0.624 1.033 0.683" stroke="hsl(180.0,100%,35%)" stroke-width="0.00039"></path>
<path d="M0.488 0.269 Q0.413 0.529 0.903 0.623" stroke="hsl(0.0,100%,35%)" stroke-width="0.00039"></path>
<path d="M0.488 0.269 Q0.546 0.421 0.855 0.427" stroke="hsl(0.0,100%,35%)" stroke-width="0.00078"></path>
<path d="M0.488 0.269 Q0.380 0.449 0.707 0.542" stroke="hsl(0.0,100%,35%)" stroke-width="0.00039"></path>
<path d="M0.403 0.322 Q0.117 0.439 0.284 0.605" stroke="hsl(0.0,100%,35%)" stroke-width="0.00039"></path>
<path d="M0.403 0.322 Q0.379 0.492 0.707 0.542" stroke="hsl(0.0,100%,35%)" stroke-width="0.00078"></path>
<path d="M0.403 0.322 Q0.716 0.410 0.956 0.276" stroke="hsl(0.0,100%,35%)" stroke-width="0.00039"></path>
<path d="M1.728 0.357 Q1.158 0.445 1.205 0.743" stroke="hsl(180.0,100%,35%)" stroke-width="0.00195"></path>
<path d="M1.728 0.357 Q1.235 0.217 0.855 0.427" stroke="hsl(180.0,100%,35%)" stroke-width="0.00039"></path>
<path d="M1.728 0.357 Q1.519 0.340 1.440 0.438" stroke="hsl(180.0,100%,35%)" stroke-width="0.00156"></path>
<path d="M1.728 0.357 Q1.407 0.162 0.956 0.276" stroke="hsl(180.0,100%,35%)" stroke-width="0.00117"></path>
<path d="M1.369 0.751 Q1.392 0.622 1.147 0.583" stroke="hsl(180.0,100%,35%)" stroke-width="0.00039"></path>
<path d="M1.369 0.751 Q1.542 0.431 0.956 0.276" stroke="hsl(180.0,100%,35%)" stroke-width="0.00039"></path>
<path d="M1.369 0.751 Q0.970 0.777 0.934 0.978" stroke="hsl(180.0,100%,35%)" stroke-width="0.00039"></path>
<path d="M0.822 0.755 Q0.985 0.761 1.033 0.683" stroke="hsl(180.0,100%,35%)" stroke-width="0.00195"></path>
<path d="M0.822 0.755 Q1.122 0.734 1.147 0.583" stroke="hsl(180.0,100%,35%)" stroke-width="0.00195"></path>
<path d="M0.822 0.755 Q1.540 0.601 1.397 0.217" stroke="hsl(180.0,100%,35%)" stroke-width="0.00156"></path>
<path d="M0.822 0.755 Q0.935 0.625 0.707 0.542" stroke="hsl(180.0,100%,35%)" stroke-width="0.00039"></path>
<path d="M1.165 0.151 Q0.656 0.334 0.903 0.623" stroke="hsl(180.0,100%,35%)" stroke-width="0.00039"></path>
<path d="M1.165 0.151 Q0.623 0.255 0.707 0.542" stroke="hsl(180.0,100%,35%)" stroke-width="0.00156"></path>
<path d="M1.165 0.151 Q0.960 0.172 0.956 0.276" stroke="hsl(180.0,100%,35%)" stroke-width="0.00703"></path>
<path d="M1.165 0.151 Q0.673 0.391 1.033 0.683" stroke="hsl(180.0,100%,35%)" stroke-width="0.00312"></path>
<path d="M1.165 0.151 Q0.975 0.439 1.496 0.595" stroke="hsl(180.0,100%,35%)" stroke-width="0.00117"></path>
<path d="M1.165 0.151 Q0.789 0.227 0.855 0.427" stroke="hsl(180.0,100%,35%)" stroke-width="0.00039"></path>
<path d="M1.165 0.151 Q0.695 0.334 0.950 0.604" stroke="hsl(180.0,100%,35%)" stroke-width="0.00039"></path>
<path d="M1.165 0.151 Q1.087 0.218 1.199 0.270" stroke="hsl(180.0,100%,35%)" stroke-width="0.00039"></path>
<path d="M1.583 0.713 Q1.454 0.780 1.556 0.858" stroke="hsl(180.0,100%,35%)" stroke-width="0.00039"></path>
<path d="M1.583 0.713 Q1.634 0.636 1.496 0.595" stroke="hsl(180.0,100%,35%)" stroke-width="0.00039"></path>
</g>
<text x="0.619" y="0.339" font-size="0.032185" fill="hsl(0.0,100%,20%)">amaiorano</text>
<text x="0.855" y="0.384" font-size="0.085362" fill="hsl(0.0,100%,20%)">jrprice</text>
<text x="1.147" y="0.556" font-size="0.053263" fill="hsl(180.0,100%,20%)">kainino</text>
<text x="0.707" y="0.498" font-size="0.086594" fill="hsl(0.0,100%,20%)">dsinclair</text>
<text x="0.956" y="0.245" font-size="0.062891" fill="hsl(180.0,100%,20%)">cwallez</text>
<text x="0.780" y="0.146" font-size="0.003431" fill="hsl(0.0,100%,20%)">mikt</text>
<text x="0.522" y="0.170" font-size="0.032002" fill="hsl(180.0,100%,20%)">beaufort.francois</text>
<text x="0.590" y="0.690" font-size="0.046666" fill="hsl(0.0,100%,20%)">rharrison</text>
<text x="1.556" y="0.846" font-size="0.024017" fill="hsl(180.0,100%,20%)">bajones</text>
<text x="1.033" y="0.653" font-size="0.060797" fill="hsl(180.0,100%,20%)">lokokung</text>
<text x="1.496" y="0.583" font-size="0.023270" fill="hsl(180.0,100%,20%)">geofflang</text>
<text x="0.950" y="0.592" font-size="0.023522" fill="hsl(180.0,100%,20%)">shrekshao</text>
<text x="0.903" y="0.609" font-size="0.028084" fill="hsl(0.0,100%,20%)">dneto</text>
<text x="0.851" y="0.876" font-size="0.006862" fill="hsl(0.0,100%,20%)">alanbaker</text>
<text x="0.359" y="0.074" font-size="0.003431" fill="hsl(180.0,100%,20%)">mehmetoguzderin</text>
<text x="1.197" y="0.338" font-size="0.023016" fill="hsl(180.0,100%,20%)">gman</text>
<text x="0.829" y="0.535" font-size="0.012838" fill="hsl(180.0,100%,20%)">senorblanco</text>
<text x="1.698" y="0.933" font-size="0.009704" fill="hsl(180.0,100%,20%)">brandon1.jones</text>
<text x="0.284" y="0.593" font-size="0.022759" fill="hsl(0.0,100%,20%)">bsheedy</text>
<text x="0.934" y="0.969" font-size="0.016808" fill="hsl(0.0,100%,20%)">ynovikov</text>
<text x="0.393" y="0.575" font-size="0.006862" fill="hsl(180.0,100%,20%)">cabral.brc</text>
<text x="1.205" y="0.723" font-size="0.039269" fill="hsl(180.0,100%,20%)">jiawei.shao</text>
<text x="0.714" y="0.675" font-size="0.020006" fill="hsl(180.0,100%,20%)">kylechar</text>
<text x="1.397" y="0.206" font-size="0.021969" fill="hsl(180.0,100%,20%)">shaoboyan</text>
<text x="0.897" y="0.465" font-size="0.011379" fill="hsl(0.0,100%,20%)">diejorarr</text>
<text x="0.967" y="0.626" font-size="0.031818" fill="hsl(0.0,100%,20%)">petermcneeley</text>
<text x="0.752" y="0.579" font-size="0.007672" fill="hsl(0.0,100%,20%)">eliemichel</text>
<text x="0.700" y="0.261" font-size="0.010850" fill="hsl(180.0,100%,20%)">hitawala</text>
<text x="1.199" y="0.268" font-size="0.004852" fill="hsl(180.0,100%,20%)">rafael.cintron</text>
<text x="0.245" y="0.341" font-size="0.014556" fill="hsl(180.0,100%,20%)">jimblackler</text>
<text x="0.373" y="0.293" font-size="0.003431" fill="hsl(180.0,100%,20%)">mako</text>
<text x="0.072" y="0.454" font-size="0.008404" fill="hsl(180.0,100%,20%)">bkaya</text>
<text x="1.184" y="0.950" font-size="0.011885" fill="hsl(0.0,100%,20%)">jwata</text>
<text x="1.440" y="0.422" font-size="0.030688" fill="hsl(180.0,100%,20%)">lehoangquyen</text>
<text x="1.469" y="0.296" font-size="0.011379" fill="hsl(180.0,100%,20%)">sunnyps</text>
<text x="1.682" y="0.251" font-size="0.008404" fill="hsl(180.0,100%,20%)">michaelludwig</text>
<text x="1.442" y="0.726" font-size="0.007672" fill="hsl(180.0,100%,20%)">shanxing.mei</text>
<text x="0.488" y="0.266" font-size="0.006862" fill="hsl(0.0,100%,20%)">tikuta</text>
<text x="0.403" y="0.318" font-size="0.006862" fill="hsl(0.0,100%,20%)">vplotkin</text>
<text x="1.728" y="0.351" font-size="0.012371" fill="hsl(180.0,100%,20%)">xing.xu</text>
<text x="1.369" y="0.748" font-size="0.005943" fill="hsl(180.0,100%,20%)">ygu</text>
<text x="0.822" y="0.748" font-size="0.013288" fill="hsl(180.0,100%,20%)">yulong.fs</text>
<text x="1.165" y="0.141" font-size="0.020870" fill="hsl(180.0,100%,20%)">zhaoming.jiang</text>
<text x="1.583" y="0.711" font-size="0.004852" fill="hsl(180.0,100%,20%)">zmo</text>
</svg>
