<svg width="4000" height="2000" viewBox="-0.025 -0.025 2.05 1.05" xmlns="http://www.w3.org/2000/svg">
  <style>
    path {
      fill: none;
      stroke-linecap: round;
      stroke-opacity: 0.4;
    }

    text {
      text-anchor: middle;
      alignment-baseline: hanging;
    }
  </style>
  <g opacity="0.4">
<path d="M1.873 0.486 Q1.698 0.450 1.590 0.528" stroke="hsl(0.0,100%,35%)" stroke-width="0.02182"></path>
<path d="M1.873 0.486 Q1.610 0.251 1.094 0.328" stroke="hsl(0.0,100%,35%)" stroke-width="0.00727"></path>
<path d="M1.873 0.486 Q0.681 0.318 0.092 0.863" stroke="hsl(0.0,100%,35%)" stroke-width="0.00727"></path>
<path d="M1.873 0.486 Q0.863 0.284 0.247 0.732" stroke="hsl(0.0,100%,35%)" stroke-width="0.00727"></path>
<path d="M1.873 0.486 Q1.051 0.182 0.277 0.516" stroke="hsl(0.0,100%,35%)" stroke-width="0.00727"></path>
<path d="M0.277 0.516 Q0.089 0.618 0.247 0.732" stroke="hsl(180.0,100%,35%)" stroke-width="0.06545"></path>
<path d="M0.277 0.516 Q-0.093 0.653 0.092 0.863" stroke="hsl(180.0,100%,35%)" stroke-width="0.02909"></path>
<path d="M0.277 0.516 Q0.434 0.530 0.495 0.456" stroke="hsl(180.0,100%,35%)" stroke-width="0.02182"></path>
<path d="M1.145 0.662 Q0.985 0.429 0.495 0.456" stroke="hsl(0.0,100%,35%)" stroke-width="0.00727"></path>
<path d="M1.145 0.662 Q1.300 0.621 1.254 0.537" stroke="hsl(0.0,100%,35%)" stroke-width="0.00727"></path>
<path d="M1.145 0.662 Q1.475 0.684 1.590 0.528" stroke="hsl(0.0,100%,35%)" stroke-width="0.00727"></path>
<path d="M0.482 0.314 Q0.030 0.476 0.247 0.732" stroke="hsl(180.0,100%,35%)" stroke-width="0.02909"></path>
<path d="M0.482 0.314 Q0.680 0.281 0.659 0.177" stroke="hsl(180.0,100%,35%)" stroke-width="0.01455"></path>
<path d="M0.482 0.314 Q0.375 0.387 0.495 0.456" stroke="hsl(180.0,100%,35%)" stroke-width="0.00727"></path>
<path d="M1.220 0.928 Q1.637 0.603 1.094 0.328" stroke="hsl(0.0,100%,35%)" stroke-width="0.01455"></path>
<path d="M1.220 0.928 Q1.236 0.547 0.495 0.456" stroke="hsl(0.0,100%,35%)" stroke-width="0.00727"></path>
<path d="M1.220 0.928 Q1.551 0.739 1.254 0.537" stroke="hsl(0.0,100%,35%)" stroke-width="0.00727"></path>
<path d="M1.220 0.928 Q1.726 0.802 1.590 0.528" stroke="hsl(0.0,100%,35%)" stroke-width="0.00727"></path>
<path d="M1.220 0.928 Q1.229 0.660 0.708 0.597" stroke="hsl(0.0,100%,35%)" stroke-width="0.00727"></path>
<path d="M1.220 0.928 Q1.901 0.838 1.873 0.486" stroke="hsl(0.0,100%,35%)" stroke-width="0.00727"></path>
<path d="M0.708 0.597 Q0.965 0.486 0.806 0.337" stroke="hsl(0.0,100%,35%)" stroke-width="0.01455"></path>
<path d="M0.708 0.597 Q1.116 0.540 1.094 0.328" stroke="hsl(0.0,100%,35%)" stroke-width="0.00727"></path>
<path d="M0.708 0.597 Q1.204 0.739 1.590 0.528" stroke="hsl(0.0,100%,35%)" stroke-width="0.02182"></path>
<path d="M0.890 0.793 Q0.947 0.927 1.220 0.928" stroke="hsl(0.0,100%,35%)" stroke-width="0.02182"></path>
<path d="M0.890 0.793 Q1.452 0.800 1.590 0.528" stroke="hsl(0.0,100%,35%)" stroke-width="0.00727"></path>
<path d="M0.890 0.793 Q0.805 0.532 0.277 0.516" stroke="hsl(0.0,100%,35%)" stroke-width="0.00727"></path>
<path d="M1.508 0.619 Q1.622 0.590 1.590 0.528" stroke="hsl(0.0,100%,35%)" stroke-width="0.01455"></path>
<path d="M1.508 0.619 Q0.787 0.423 0.247 0.732" stroke="hsl(0.0,100%,35%)" stroke-width="0.00727"></path>
<path d="M1.508 0.619 Q0.975 0.321 0.277 0.516" stroke="hsl(0.0,100%,35%)" stroke-width="0.00727"></path>
</g>
<text x="1.873" y="0.459" font-size="0.053936" fill="hsl(0.0,100%,20%)">beaufort.francois</text>
<text x="1.590" y="0.496" font-size="0.063246" fill="hsl(0.0,100%,20%)">cwallez</text>
<text x="1.094" y="0.309" font-size="0.038139" fill="hsl(0.0,100%,20%)">lokokung</text>
<text x="0.092" y="0.841" font-size="0.042640" fill="hsl(180.0,100%,20%)">dneto</text>
<text x="0.247" y="0.695" font-size="0.073855" fill="hsl(180.0,100%,20%)">dsinclair</text>
<text x="0.277" y="0.475" font-size="0.083121" fill="hsl(180.0,100%,20%)">jrprice</text>
<text x="1.145" y="0.646" font-size="0.033029" fill="hsl(0.0,100%,20%)">brandon1.jones</text>
<text x="0.495" y="0.432" font-size="0.046710" fill="hsl(180.0,100%,20%)">amaiorano</text>
<text x="1.254" y="0.523" font-size="0.026968" fill="hsl(0.0,100%,20%)">bajones</text>
<text x="0.482" y="0.289" font-size="0.050452" fill="hsl(180.0,100%,20%)">bsheedy</text>
<text x="0.659" y="0.164" font-size="0.026968" fill="hsl(180.0,100%,20%)">ynovikov</text>
<text x="1.220" y="0.898" font-size="0.060302" fill="hsl(0.0,100%,20%)">kainino</text>
<text x="0.708" y="0.571" font-size="0.050452" fill="hsl(0.0,100%,20%)">lehoangquyen</text>
<text x="0.806" y="0.323" font-size="0.026968" fill="hsl(0.0,100%,20%)">geofflang</text>
<text x="0.890" y="0.771" font-size="0.042640" fill="hsl(0.0,100%,20%)">shrekshao</text>
<text x="1.508" y="0.600" font-size="0.038139" fill="hsl(0.0,100%,20%)">zhaoming.jiang</text>
</svg>
