<svg width="4000" height="2000" viewBox="-0.025 -0.025 2.05 1.05" xmlns="http://www.w3.org/2000/svg">
  <style>
    path {
      fill: none;
      stroke-linecap: round;
      stroke-opacity: 0.4;
    }

    text {
      text-anchor: middle;
      alignment-baseline: hanging;
    }
  </style>
  <g opacity="0.4">
<path d="M1.228 0.730 Q1.117 0.684 1.002 0.729" stroke="hsl(0.0,100%,35%)" stroke-width="0.00081"></path>
<path d="M1.228 0.730 Q1.356 0.662 1.252 0.585" stroke="hsl(0.0,100%,35%)" stroke-width="0.00040"></path>
<path d="M1.228 0.730 Q0.963 0.449 0.355 0.516" stroke="hsl(0.0,100%,35%)" stroke-width="0.00040"></path>
<path d="M1.228 0.730 Q0.875 0.511 0.370 0.636" stroke="hsl(0.0,100%,35%)" stroke-width="0.00040"></path>
<path d="M1.002 0.729 Q0.870 0.771 0.924 0.845" stroke="hsl(0.0,100%,35%)" stroke-width="0.00020"></path>
<path d="M1.002 0.729 Q0.849 0.493 0.355 0.516" stroke="hsl(0.0,100%,35%)" stroke-width="0.01610"></path>
<path d="M1.002 0.729 Q0.587 0.511 0.070 0.666" stroke="hsl(0.0,100%,35%)" stroke-width="0.00523"></path>
<path d="M1.002 0.729 Q1.242 0.707 1.252 0.585" stroke="hsl(0.0,100%,35%)" stroke-width="0.00020"></path>
<path d="M1.002 0.729 Q1.265 0.619 1.108 0.466" stroke="hsl(0.0,100%,35%)" stroke-width="0.00765"></path>
<path d="M1.002 0.729 Q0.687 0.435 0.045 0.525" stroke="hsl(0.0,100%,35%)" stroke-width="0.00181"></path>
<path d="M1.002 0.729 Q1.553 0.747 1.709 0.482" stroke="hsl(0.0,100%,35%)" stroke-width="0.00040"></path>
<path d="M1.002 0.729 Q1.005 0.440 0.443 0.376" stroke="hsl(0.0,100%,35%)" stroke-width="0.00040"></path>
<path d="M1.002 0.729 Q1.048 0.532 0.674 0.467" stroke="hsl(0.0,100%,35%)" stroke-width="0.00060"></path>
<path d="M1.002 0.729 Q0.986 1.055 1.619 1.134" stroke="hsl(0.0,100%,35%)" stroke-width="0.00020"></path>
<path d="M1.002 0.729 Q0.734 0.575 0.375 0.672" stroke="hsl(0.0,100%,35%)" stroke-width="0.00020"></path>
<path d="M1.002 0.729 Q0.760 0.556 0.370 0.636" stroke="hsl(0.0,100%,35%)" stroke-width="0.00101"></path>
<path d="M1.002 0.729 Q0.694 0.515 0.208 0.618" stroke="hsl(0.0,100%,35%)" stroke-width="0.00020"></path>
<path d="M1.002 0.729 Q0.988 0.629 0.791 0.615" stroke="hsl(0.0,100%,35%)" stroke-width="0.00020"></path>
<path d="M1.002 0.729 Q0.781 0.629 0.538 0.715" stroke="hsl(0.0,100%,35%)" stroke-width="0.00040"></path>
<path d="M1.252 0.585 Q1.275 0.497 1.108 0.466" stroke="hsl(180.0,100%,35%)" stroke-width="0.07427"></path>
<path d="M1.252 0.585 Q1.196 0.468 0.954 0.469" stroke="hsl(180.0,100%,35%)" stroke-width="0.00101"></path>
<path d="M1.252 0.585 Q1.012 0.607 1.002 0.729" stroke="hsl(180.0,100%,35%)" stroke-width="0.00221"></path>
<path d="M1.252 0.585 Q0.859 0.372 0.355 0.516" stroke="hsl(180.0,100%,35%)" stroke-width="0.00101"></path>
<path d="M1.252 0.585 Q1.399 0.421 1.111 0.314" stroke="hsl(180.0,100%,35%)" stroke-width="0.02133"></path>
<path d="M1.252 0.585 Q0.744 0.453 0.375 0.672" stroke="hsl(180.0,100%,35%)" stroke-width="0.00020"></path>
<path d="M1.252 0.585 Q1.562 0.625 1.709 0.482" stroke="hsl(180.0,100%,35%)" stroke-width="0.00886"></path>
<path d="M1.252 0.585 Q0.770 0.434 0.370 0.636" stroke="hsl(180.0,100%,35%)" stroke-width="0.00040"></path>
<path d="M1.252 0.585 Q1.246 0.375 0.835 0.331" stroke="hsl(180.0,100%,35%)" stroke-width="0.00141"></path>
<path d="M0.355 0.516 Q0.509 0.752 1.002 0.729" stroke="hsl(0.0,100%,35%)" stroke-width="0.00946"></path>
<path d="M0.355 0.516 Q0.094 0.534 0.070 0.666" stroke="hsl(0.0,100%,35%)" stroke-width="0.01530"></path>
<path d="M0.355 0.516 Q1.059 0.770 1.709 0.482" stroke="hsl(0.0,100%,35%)" stroke-width="0.00081"></path>
<path d="M0.355 0.516 Q0.895 0.566 1.111 0.314" stroke="hsl(0.0,100%,35%)" stroke-width="0.00081"></path>
<path d="M0.355 0.516 Q0.554 0.555 0.674 0.467" stroke="hsl(0.0,100%,35%)" stroke-width="0.00040"></path>
<path d="M0.355 0.516 Q0.512 0.464 0.443 0.376" stroke="hsl(0.0,100%,35%)" stroke-width="0.00060"></path>
<path d="M0.355 0.516 Q0.267 0.579 0.370 0.636" stroke="hsl(0.0,100%,35%)" stroke-width="0.00322"></path>
<path d="M0.355 0.516 Q0.388 0.624 0.606 0.632" stroke="hsl(0.0,100%,35%)" stroke-width="0.00081"></path>
<path d="M0.355 0.516 Q0.240 0.598 0.375 0.672" stroke="hsl(0.0,100%,35%)" stroke-width="0.00121"></path>
<path d="M0.355 0.516 Q0.396 0.791 0.942 0.832" stroke="hsl(0.0,100%,35%)" stroke-width="0.00020"></path>
<path d="M0.355 0.516 Q0.749 0.730 1.252 0.585" stroke="hsl(0.0,100%,35%)" stroke-width="0.00081"></path>
<path d="M0.355 0.516 Q0.772 0.642 1.108 0.466" stroke="hsl(0.0,100%,35%)" stroke-width="0.00403"></path>
<path d="M0.355 0.516 Q0.692 0.612 0.954 0.469" stroke="hsl(0.0,100%,35%)" stroke-width="0.00101"></path>
<path d="M0.355 0.516 Q0.193 0.458 0.045 0.525" stroke="hsl(0.0,100%,35%)" stroke-width="0.00060"></path>
<path d="M0.355 0.516 Q0.235 0.701 0.568 0.800" stroke="hsl(0.0,100%,35%)" stroke-width="0.00040"></path>
<path d="M0.355 0.516 Q0.494 0.653 0.791 0.615" stroke="hsl(0.0,100%,35%)" stroke-width="0.00201"></path>
<path d="M0.355 0.516 Q0.202 0.474 0.085 0.540" stroke="hsl(0.0,100%,35%)" stroke-width="0.00040"></path>
<path d="M0.355 0.516 Q0.226 0.645 0.448 0.736" stroke="hsl(0.0,100%,35%)" stroke-width="0.00020"></path>
<path d="M0.355 0.516 Q0.204 0.494 0.128 0.564" stroke="hsl(0.0,100%,35%)" stroke-width="0.00060"></path>
<path d="M0.355 0.516 Q0.418 0.656 0.704 0.656" stroke="hsl(0.0,100%,35%)" stroke-width="0.00020"></path>
<path d="M0.355 0.516 Q0.278 0.443 0.117 0.464" stroke="hsl(0.0,100%,35%)" stroke-width="0.00020"></path>
<path d="M0.370 0.636 Q0.458 0.573 0.355 0.516" stroke="hsl(0.0,100%,35%)" stroke-width="0.00282"></path>
<path d="M0.370 0.636 Q0.196 0.591 0.070 0.666" stroke="hsl(0.0,100%,35%)" stroke-width="0.00101"></path>
<path d="M0.370 0.636 Q0.296 0.515 0.045 0.525" stroke="hsl(0.0,100%,35%)" stroke-width="0.00020"></path>
<path d="M0.370 0.636 Q0.795 0.669 0.954 0.469" stroke="hsl(0.0,100%,35%)" stroke-width="0.00020"></path>
<path d="M0.370 0.636 Q0.338 0.757 0.568 0.800" stroke="hsl(0.0,100%,35%)" stroke-width="0.00020"></path>
<path d="M0.370 0.636 Q0.612 0.809 1.002 0.729" stroke="hsl(0.0,100%,35%)" stroke-width="0.00040"></path>
<path d="M0.370 0.636 Q0.875 0.699 1.108 0.466" stroke="hsl(0.0,100%,35%)" stroke-width="0.00020"></path>
<path d="M1.709 0.482 Q1.398 0.442 1.252 0.585" stroke="hsl(180.0,100%,35%)" stroke-width="0.00403"></path>
<path d="M1.709 0.482 Q1.159 0.464 1.002 0.729" stroke="hsl(180.0,100%,35%)" stroke-width="0.00141"></path>
<path d="M1.709 0.482 Q1.005 0.229 0.355 0.516" stroke="hsl(180.0,100%,35%)" stroke-width="0.00543"></path>
<path d="M1.709 0.482 Q1.422 0.354 1.108 0.466" stroke="hsl(180.0,100%,35%)" stroke-width="0.01530"></path>
<path d="M1.709 0.482 Q0.917 0.291 0.370 0.636" stroke="hsl(180.0,100%,35%)" stroke-width="0.00020"></path>
<path d="M1.709 0.482 Q1.545 0.279 1.111 0.314" stroke="hsl(180.0,100%,35%)" stroke-width="0.00201"></path>
<path d="M1.709 0.482 Q1.393 0.232 0.835 0.331" stroke="hsl(180.0,100%,35%)" stroke-width="0.00161"></path>
<path d="M1.709 0.482 Q1.342 0.325 0.954 0.469" stroke="hsl(180.0,100%,35%)" stroke-width="0.00020"></path>
<path d="M1.108 0.466 Q1.232 0.390 1.111 0.314" stroke="hsl(180.0,100%,35%)" stroke-width="0.04448"></path>
<path d="M1.108 0.466 Q1.396 0.594 1.709 0.482" stroke="hsl(180.0,100%,35%)" stroke-width="0.01952"></path>
<path d="M1.108 0.466 Q1.085 0.554 1.252 0.585" stroke="hsl(180.0,100%,35%)" stroke-width="0.06581"></path>
<path d="M1.108 0.466 Q0.845 0.576 1.002 0.729" stroke="hsl(180.0,100%,35%)" stroke-width="0.01167"></path>
<path d="M1.108 0.466 Q0.577 0.422 0.375 0.672" stroke="hsl(180.0,100%,35%)" stroke-width="0.00101"></path>
<path d="M1.108 0.466 Q0.692 0.341 0.355 0.516" stroke="hsl(180.0,100%,35%)" stroke-width="0.00403"></path>
<path d="M1.108 0.466 Q1.079 0.344 0.835 0.331" stroke="hsl(180.0,100%,35%)" stroke-width="0.00242"></path>
<path d="M1.108 0.466 Q1.083 0.477 1.099 0.492" stroke="hsl(180.0,100%,35%)" stroke-width="0.00020"></path>
<path d="M1.108 0.466 Q1.029 0.437 0.954 0.469" stroke="hsl(180.0,100%,35%)" stroke-width="0.00060"></path>
<path d="M1.108 0.466 Q0.732 0.616 0.942 0.832" stroke="hsl(180.0,100%,35%)" stroke-width="0.00020"></path>
<path d="M1.108 0.466 Q0.951 0.731 1.434 0.866" stroke="hsl(180.0,100%,35%)" stroke-width="0.00020"></path>
<path d="M1.111 0.314 Q1.275 0.518 1.709 0.482" stroke="hsl(180.0,100%,35%)" stroke-width="0.00161"></path>
<path d="M1.111 0.314 Q0.988 0.389 1.108 0.466" stroke="hsl(180.0,100%,35%)" stroke-width="0.05052"></path>
<path d="M1.111 0.314 Q0.571 0.264 0.355 0.516" stroke="hsl(180.0,100%,35%)" stroke-width="0.00181"></path>
<path d="M1.111 0.314 Q0.964 0.478 1.252 0.585" stroke="hsl(180.0,100%,35%)" stroke-width="0.02234"></path>
<path d="M1.111 0.314 Q0.409 0.206 0.045 0.525" stroke="hsl(180.0,100%,35%)" stroke-width="0.00020"></path>
<path d="M1.111 0.314 Q0.959 0.267 0.835 0.331" stroke="hsl(180.0,100%,35%)" stroke-width="0.00423"></path>
<path d="M1.111 0.314 Q0.725 0.499 1.002 0.729" stroke="hsl(180.0,100%,35%)" stroke-width="0.00081"></path>
<path d="M1.111 0.314 Q0.604 0.371 0.606 0.632" stroke="hsl(180.0,100%,35%)" stroke-width="0.00020"></path>
<path d="M1.111 0.314 Q0.901 0.233 0.698 0.317" stroke="hsl(180.0,100%,35%)" stroke-width="0.00020"></path>
<path d="M1.111 0.314 Q0.940 0.291 0.859 0.370" stroke="hsl(180.0,100%,35%)" stroke-width="0.00020"></path>
<path d="M0.835 0.331 Q0.987 0.378 1.111 0.314" stroke="hsl(180.0,100%,35%)" stroke-width="0.00141"></path>
<path d="M0.835 0.331 Q0.864 0.453 1.108 0.466" stroke="hsl(180.0,100%,35%)" stroke-width="0.00282"></path>
<path d="M0.835 0.331 Q0.840 0.542 1.252 0.585" stroke="hsl(180.0,100%,35%)" stroke-width="0.00221"></path>
<path d="M0.835 0.331 Q0.285 0.270 0.045 0.525" stroke="hsl(180.0,100%,35%)" stroke-width="0.00020"></path>
<path d="M0.835 0.331 Q0.600 0.563 1.002 0.729" stroke="hsl(180.0,100%,35%)" stroke-width="0.00040"></path>
<path d="M0.835 0.331 Q0.359 0.390 0.370 0.636" stroke="hsl(180.0,100%,35%)" stroke-width="0.00020"></path>
<path d="M0.835 0.331 Q0.777 0.297 0.698 0.317" stroke="hsl(180.0,100%,35%)" stroke-width="0.00040"></path>
<path d="M0.954 0.469 Q1.010 0.587 1.252 0.585" stroke="hsl(0.0,100%,35%)" stroke-width="0.00161"></path>
<path d="M0.954 0.469 Q0.617 0.373 0.355 0.516" stroke="hsl(0.0,100%,35%)" stroke-width="0.00101"></path>
<path d="M0.954 0.469 Q1.033 0.499 1.108 0.466" stroke="hsl(0.0,100%,35%)" stroke-width="0.00060"></path>
<path d="M0.954 0.469 Q1.157 0.423 1.111 0.314" stroke="hsl(0.0,100%,35%)" stroke-width="0.00040"></path>
<path d="M0.954 0.469 Q1.321 0.627 1.709 0.482" stroke="hsl(0.0,100%,35%)" stroke-width="0.00040"></path>
<path d="M0.198 0.770 Q0.480 0.675 0.355 0.516" stroke="hsl(0.0,100%,35%)" stroke-width="0.00040"></path>
<path d="M0.198 0.770 Q0.318 0.617 0.045 0.525" stroke="hsl(0.0,100%,35%)" stroke-width="0.00020"></path>
<path d="M0.198 0.770 Q0.633 0.910 1.002 0.729" stroke="hsl(0.0,100%,35%)" stroke-width="0.00020"></path>
<path d="M0.045 0.525 Q0.207 0.583 0.355 0.516" stroke="hsl(0.0,100%,35%)" stroke-width="0.00322"></path>
<path d="M0.045 0.525 Q0.118 0.645 0.370 0.636" stroke="hsl(0.0,100%,35%)" stroke-width="0.00161"></path>
<path d="M0.045 0.525 Q-0.055 0.600 0.070 0.666" stroke="hsl(0.0,100%,35%)" stroke-width="0.00060"></path>
<path d="M0.045 0.525 Q0.911 0.836 1.709 0.482" stroke="hsl(0.0,100%,35%)" stroke-width="0.00020"></path>
<path d="M0.045 0.525 Q0.594 0.586 0.835 0.331" stroke="hsl(0.0,100%,35%)" stroke-width="0.00020"></path>
<path d="M0.045 0.525 Q0.360 0.818 1.002 0.729" stroke="hsl(0.0,100%,35%)" stroke-width="0.00081"></path>
<path d="M0.045 0.525 Q0.623 0.708 1.108 0.466" stroke="hsl(0.0,100%,35%)" stroke-width="0.00060"></path>
<path d="M0.045 0.525 Q0.600 0.796 1.252 0.585" stroke="hsl(0.0,100%,35%)" stroke-width="0.00040"></path>
<path d="M0.070 0.666 Q0.486 0.884 1.002 0.729" stroke="hsl(0.0,100%,35%)" stroke-width="0.00423"></path>
<path d="M0.070 0.666 Q0.332 0.648 0.355 0.516" stroke="hsl(0.0,100%,35%)" stroke-width="0.01892"></path>
<path d="M0.070 0.666 Q1.036 0.902 1.709 0.482" stroke="hsl(0.0,100%,35%)" stroke-width="0.00020"></path>
<path d="M0.070 0.666 Q0.749 0.773 1.108 0.466" stroke="hsl(0.0,100%,35%)" stroke-width="0.00060"></path>
<path d="M0.070 0.666 Q0.246 0.845 0.634 0.799" stroke="hsl(0.0,100%,35%)" stroke-width="0.00020"></path>
<path d="M0.070 0.666 Q0.170 0.590 0.045 0.525" stroke="hsl(0.0,100%,35%)" stroke-width="0.00121"></path>
<path d="M0.070 0.666 Q0.244 0.711 0.370 0.636" stroke="hsl(0.0,100%,35%)" stroke-width="0.00141"></path>
<path d="M0.070 0.666 Q0.471 0.784 0.791 0.615" stroke="hsl(0.0,100%,35%)" stroke-width="0.00161"></path>
<path d="M0.070 0.666 Q0.872 0.698 1.111 0.314" stroke="hsl(0.0,100%,35%)" stroke-width="0.00020"></path>
<path d="M0.375 0.672 Q0.628 0.727 0.791 0.615" stroke="hsl(0.0,100%,35%)" stroke-width="0.00020"></path>
<path d="M0.375 0.672 Q0.883 0.804 1.252 0.585" stroke="hsl(0.0,100%,35%)" stroke-width="0.00081"></path>
<path d="M0.375 0.672 Q0.522 0.698 0.606 0.632" stroke="hsl(0.0,100%,35%)" stroke-width="0.00040"></path>
<path d="M0.375 0.672 Q0.906 0.716 1.108 0.466" stroke="hsl(0.0,100%,35%)" stroke-width="0.00161"></path>
<path d="M0.375 0.672 Q0.489 0.590 0.355 0.516" stroke="hsl(0.0,100%,35%)" stroke-width="0.00382"></path>
<path d="M0.375 0.672 Q0.643 0.826 1.002 0.729" stroke="hsl(0.0,100%,35%)" stroke-width="0.00101"></path>
<path d="M0.375 0.672 Q0.401 0.653 0.370 0.636" stroke="hsl(0.0,100%,35%)" stroke-width="0.00020"></path>
<path d="M0.375 0.672 Q0.228 0.608 0.070 0.666" stroke="hsl(0.0,100%,35%)" stroke-width="0.00020"></path>
<path d="M0.942 0.832 Q1.055 0.792 1.002 0.729" stroke="hsl(0.0,100%,35%)" stroke-width="0.01449"></path>
<path d="M0.942 0.832 Q0.901 0.557 0.355 0.516" stroke="hsl(0.0,100%,35%)" stroke-width="0.01509"></path>
<path d="M0.942 0.832 Q1.318 0.682 1.108 0.466" stroke="hsl(0.0,100%,35%)" stroke-width="0.00121"></path>
<path d="M0.942 0.832 Q1.294 0.771 1.252 0.585" stroke="hsl(0.0,100%,35%)" stroke-width="0.00020"></path>
<path d="M0.942 0.832 Q1.057 0.504 0.443 0.376" stroke="hsl(0.0,100%,35%)" stroke-width="0.00040"></path>
<path d="M0.942 0.832 Q1.441 0.607 1.111 0.314" stroke="hsl(0.0,100%,35%)" stroke-width="0.00020"></path>
<path d="M0.942 0.832 Q0.749 0.855 0.752 0.955" stroke="hsl(0.0,100%,35%)" stroke-width="0.00040"></path>
<path d="M0.942 0.832 Q0.813 0.619 0.370 0.636" stroke="hsl(0.0,100%,35%)" stroke-width="0.00040"></path>
<path d="M1.434 0.866 Q1.328 0.711 1.002 0.729" stroke="hsl(0.0,100%,35%)" stroke-width="0.00161"></path>
<path d="M1.434 0.866 Q1.174 0.476 0.355 0.516" stroke="hsl(0.0,100%,35%)" stroke-width="0.00121"></path>
<path d="M1.434 0.866 Q1.591 0.601 1.108 0.466" stroke="hsl(0.0,100%,35%)" stroke-width="0.00221"></path>
<path d="M1.434 0.866 Q1.714 0.525 1.111 0.314" stroke="hsl(0.0,100%,35%)" stroke-width="0.00020"></path>
<path d="M1.292 0.769 Q1.025 0.455 0.355 0.516" stroke="hsl(0.0,100%,35%)" stroke-width="0.00161"></path>
<path d="M1.292 0.769 Q0.937 0.518 0.370 0.636" stroke="hsl(0.0,100%,35%)" stroke-width="0.00020"></path>
<path d="M1.292 0.769 Q1.179 0.691 1.002 0.729" stroke="hsl(0.0,100%,35%)" stroke-width="0.00302"></path>
<path d="M1.292 0.769 Q0.763 0.473 0.070 0.666" stroke="hsl(0.0,100%,35%)" stroke-width="0.00060"></path>
<path d="M0.443 0.376 Q0.287 0.429 0.355 0.516" stroke="hsl(0.0,100%,35%)" stroke-width="0.01650"></path>
<path d="M0.443 0.376 Q0.440 0.664 1.002 0.729" stroke="hsl(0.0,100%,35%)" stroke-width="0.00684"></path>
<path d="M0.443 0.376 Q0.025 0.446 0.070 0.666" stroke="hsl(0.0,100%,35%)" stroke-width="0.00020"></path>
<path d="M0.443 0.376 Q0.703 0.554 1.108 0.466" stroke="hsl(0.0,100%,35%)" stroke-width="0.00020"></path>
<path d="M0.674 0.467 Q0.475 0.428 0.355 0.516" stroke="hsl(0.0,100%,35%)" stroke-width="0.00564"></path>
<path d="M0.674 0.467 Q0.629 0.663 1.002 0.729" stroke="hsl(0.0,100%,35%)" stroke-width="0.00221"></path>
<path d="M0.674 0.467 Q0.631 0.375 0.443 0.376" stroke="hsl(0.0,100%,35%)" stroke-width="0.00020"></path>
<path d="M0.674 0.467 Q0.213 0.445 0.070 0.666" stroke="hsl(0.0,100%,35%)" stroke-width="0.00020"></path>
<path d="M0.208 0.618 Q0.517 0.832 1.002 0.729" stroke="hsl(0.0,100%,35%)" stroke-width="0.00081"></path>
<path d="M0.208 0.618 Q0.363 0.597 0.355 0.516" stroke="hsl(0.0,100%,35%)" stroke-width="0.00141"></path>
<path d="M0.208 0.618 Q0.275 0.659 0.370 0.636" stroke="hsl(0.0,100%,35%)" stroke-width="0.00020"></path>
<path d="M0.791 0.615 Q1.069 0.604 1.108 0.466" stroke="hsl(0.0,100%,35%)" stroke-width="0.00121"></path>
<path d="M0.791 0.615 Q0.537 0.560 0.375 0.672" stroke="hsl(0.0,100%,35%)" stroke-width="0.00161"></path>
<path d="M0.791 0.615 Q0.652 0.479 0.355 0.516" stroke="hsl(0.0,100%,35%)" stroke-width="0.00624"></path>
<path d="M0.791 0.615 Q0.806 0.714 1.002 0.729" stroke="hsl(0.0,100%,35%)" stroke-width="0.00060"></path>
<path d="M0.791 0.615 Q0.390 0.496 0.070 0.666" stroke="hsl(0.0,100%,35%)" stroke-width="0.00081"></path>
<path d="M0.791 0.615 Q0.564 0.541 0.370 0.636" stroke="hsl(0.0,100%,35%)" stroke-width="0.00040"></path>
<path d="M0.791 0.615 Q1.045 0.692 1.252 0.585" stroke="hsl(0.0,100%,35%)" stroke-width="0.00020"></path>
<path d="M0.538 0.715 Q1.022 0.705 1.108 0.466" stroke="hsl(0.0,100%,35%)" stroke-width="0.00020"></path>
<path d="M0.538 0.715 Q0.606 0.579 0.355 0.516" stroke="hsl(0.0,100%,35%)" stroke-width="0.00282"></path>
<path d="M0.538 0.715 Q0.517 0.642 0.370 0.636" stroke="hsl(0.0,100%,35%)" stroke-width="0.00040"></path>
<path d="M0.606 0.632 Q0.989 0.649 1.108 0.466" stroke="hsl(0.0,100%,35%)" stroke-width="0.00020"></path>
<path d="M0.606 0.632 Q0.573 0.524 0.355 0.516" stroke="hsl(0.0,100%,35%)" stroke-width="0.00382"></path>
<path d="M0.606 0.632 Q1.276 0.778 1.709 0.482" stroke="hsl(0.0,100%,35%)" stroke-width="0.00040"></path>
<path d="M0.606 0.632 Q0.311 0.541 0.070 0.666" stroke="hsl(0.0,100%,35%)" stroke-width="0.00040"></path>
<path d="M0.606 0.632 Q0.726 0.759 1.002 0.729" stroke="hsl(0.0,100%,35%)" stroke-width="0.00020"></path>
<path d="M0.606 0.632 Q0.458 0.606 0.375 0.672" stroke="hsl(0.0,100%,35%)" stroke-width="0.00101"></path>
<path d="M0.606 0.632 Q0.411 0.466 0.045 0.525" stroke="hsl(0.0,100%,35%)" stroke-width="0.00040"></path>
<path d="M0.606 0.632 Q0.484 0.586 0.370 0.636" stroke="hsl(0.0,100%,35%)" stroke-width="0.00020"></path>
<path d="M0.085 0.540 Q0.239 0.582 0.355 0.516" stroke="hsl(0.0,100%,35%)" stroke-width="0.00825"></path>
<path d="M0.085 0.540 Q0.395 0.529 0.443 0.376" stroke="hsl(0.0,100%,35%)" stroke-width="0.00523"></path>
<path d="M0.085 0.540 Q0.393 0.818 1.002 0.729" stroke="hsl(0.0,100%,35%)" stroke-width="0.00644"></path>
<path d="M0.085 0.540 Q0.656 0.707 1.108 0.466" stroke="hsl(0.0,100%,35%)" stroke-width="0.00020"></path>
<path d="M0.704 0.656 Q0.641 0.516 0.355 0.516" stroke="hsl(0.0,100%,35%)" stroke-width="0.00221"></path>
<path d="M0.704 0.656 Q0.379 0.534 0.070 0.666" stroke="hsl(0.0,100%,35%)" stroke-width="0.00081"></path>
<path d="M0.704 0.656 Q1.058 0.642 1.108 0.466" stroke="hsl(0.0,100%,35%)" stroke-width="0.00060"></path>
<path d="M0.704 0.656 Q1.345 0.770 1.709 0.482" stroke="hsl(0.0,100%,35%)" stroke-width="0.00020"></path>
<path d="M0.704 0.656 Q0.795 0.752 1.002 0.729" stroke="hsl(0.0,100%,35%)" stroke-width="0.00201"></path>
<path d="M0.117 0.464 Q0.348 0.773 1.002 0.729" stroke="hsl(0.0,100%,35%)" stroke-width="0.00221"></path>
<path d="M0.117 0.464 Q0.194 0.538 0.355 0.516" stroke="hsl(0.0,100%,35%)" stroke-width="0.00242"></path>
<path d="M0.117 0.464 Q0.531 0.634 0.954 0.469" stroke="hsl(0.0,100%,35%)" stroke-width="0.00020"></path>
<path d="M0.117 0.464 Q-0.068 0.555 0.070 0.666" stroke="hsl(0.0,100%,35%)" stroke-width="0.00020"></path>
<path d="M0.117 0.464 Q0.734 0.588 1.111 0.314" stroke="hsl(0.0,100%,35%)" stroke-width="0.00020"></path>
<path d="M0.117 0.464 Q0.898 0.792 1.709 0.482" stroke="hsl(0.0,100%,35%)" stroke-width="0.00020"></path>
<path d="M0.117 0.464 Q0.611 0.663 1.108 0.466" stroke="hsl(0.0,100%,35%)" stroke-width="0.00161"></path>
<path d="M0.719 0.793 Q0.912 0.817 1.002 0.729" stroke="hsl(0.0,100%,35%)" stroke-width="0.00302"></path>
<path d="M0.719 0.793 Q0.758 0.582 0.355 0.516" stroke="hsl(0.0,100%,35%)" stroke-width="0.00262"></path>
<path d="M0.719 0.793 Q1.175 0.707 1.108 0.466" stroke="hsl(0.0,100%,35%)" stroke-width="0.00020"></path>
<path d="M1.500 0.127 Q0.770 0.328 1.002 0.729" stroke="hsl(0.0,100%,35%)" stroke-width="0.00060"></path>
<path d="M1.500 0.127 Q0.617 0.093 0.355 0.516" stroke="hsl(0.0,100%,35%)" stroke-width="0.00040"></path>
<path d="M1.500 0.127 Q1.658 0.173 1.782 0.106" stroke="hsl(0.0,100%,35%)" stroke-width="0.00040"></path>
<path d="M1.186 0.811 Q1.160 0.733 1.002 0.729" stroke="hsl(0.0,100%,35%)" stroke-width="0.00181"></path>
<path d="M1.186 0.811 Q1.006 0.498 0.355 0.516" stroke="hsl(0.0,100%,35%)" stroke-width="0.00161"></path>
<path d="M1.186 0.811 Q0.918 0.560 0.370 0.636" stroke="hsl(0.0,100%,35%)" stroke-width="0.00040"></path>
<path d="M1.401 0.353 Q1.164 0.351 1.108 0.466" stroke="hsl(180.0,100%,35%)" stroke-width="0.00221"></path>
<path d="M1.401 0.353 Q1.451 0.479 1.709 0.482" stroke="hsl(180.0,100%,35%)" stroke-width="0.00020"></path>
<path d="M1.401 0.353 Q1.287 0.275 1.111 0.314" stroke="hsl(180.0,100%,35%)" stroke-width="0.00020"></path>
<path d="M1.401 0.353 Q1.084 0.321 0.954 0.469" stroke="hsl(180.0,100%,35%)" stroke-width="0.00020"></path>
<path d="M1.401 0.353 Q0.747 0.225 0.355 0.516" stroke="hsl(180.0,100%,35%)" stroke-width="0.00040"></path>
<path d="M1.118 0.151 Q0.861 0.307 1.108 0.466" stroke="hsl(180.0,100%,35%)" stroke-width="0.00020"></path>
<path d="M1.118 0.151 Q0.445 0.181 0.355 0.516" stroke="hsl(180.0,100%,35%)" stroke-width="0.00060"></path>
<path d="M1.118 0.151 Q0.985 0.231 1.111 0.314" stroke="hsl(180.0,100%,35%)" stroke-width="0.00081"></path>
<path d="M0.706 0.258 Q0.477 0.553 1.002 0.729" stroke="hsl(0.0,100%,35%)" stroke-width="0.00302"></path>
<path d="M0.706 0.258 Q0.324 0.317 0.355 0.516" stroke="hsl(0.0,100%,35%)" stroke-width="0.00302"></path>
<path d="M0.706 0.258 Q0.589 0.599 1.228 0.730" stroke="hsl(0.0,100%,35%)" stroke-width="0.00020"></path>
<path d="M0.759 0.858 Q1.167 0.702 0.954 0.469" stroke="hsl(0.0,100%,35%)" stroke-width="0.00020"></path>
<path d="M0.759 0.858 Q1.224 0.820 1.252 0.585" stroke="hsl(0.0,100%,35%)" stroke-width="0.00020"></path>
<path d="M0.759 0.858 Q1.247 0.732 1.108 0.466" stroke="hsl(0.0,100%,35%)" stroke-width="0.00020"></path>
<path d="M0.759 0.858 Q0.984 0.842 1.002 0.729" stroke="hsl(0.0,100%,35%)" stroke-width="0.00020"></path>
<path d="M1.372 0.710 Q1.172 0.645 1.002 0.729" stroke="hsl(0.0,100%,35%)" stroke-width="0.00040"></path>
<path d="M1.372 0.710 Q1.218 0.449 0.674 0.467" stroke="hsl(0.0,100%,35%)" stroke-width="0.00020"></path>
<path d="M1.372 0.710 Q1.019 0.410 0.355 0.516" stroke="hsl(0.0,100%,35%)" stroke-width="0.00040"></path>
</g>
<text x="1.228" y="0.726" font-size="0.008124" fill="hsl(0.0,100%,20%)">albin.bernhardsson</text>
<text x="1.002" y="0.699" font-size="0.059248" fill="hsl(0.0,100%,20%)">cwallez</text>
<text x="1.252" y="0.546" font-size="0.079111" fill="hsl(180.0,100%,20%)">dsinclair</text>
<text x="0.355" y="0.480" font-size="0.072956" fill="hsl(0.0,100%,20%)">enga</text>
<text x="0.370" y="0.625" font-size="0.021773" fill="hsl(0.0,100%,20%)">kainino</text>
<text x="1.709" y="0.461" font-size="0.043407" fill="hsl(180.0,100%,20%)">amaiorano</text>
<text x="1.108" y="0.417" font-size="0.097493" fill="hsl(180.0,100%,20%)">bclayton</text>
<text x="1.111" y="0.280" font-size="0.067841" fill="hsl(180.0,100%,20%)">jrprice</text>
<text x="0.835" y="0.320" font-size="0.022848" fill="hsl(180.0,100%,20%)">dneto</text>
<text x="0.954" y="0.462" font-size="0.015100" fill="hsl(0.0,100%,20%)">rharrison</text>
<text x="0.198" y="0.767" font-size="0.004899" fill="hsl(0.0,100%,20%)">avi</text>
<text x="0.045" y="0.515" font-size="0.019288" fill="hsl(0.0,100%,20%)">bajones</text>
<text x="0.070" y="0.645" font-size="0.040177" fill="hsl(0.0,100%,20%)">lokokung</text>
<text x="0.375" y="0.662" font-size="0.020051" fill="hsl(0.0,100%,20%)">senorblanco</text>
<text x="1.099" y="0.491" font-size="0.002450" fill="hsl(180.0,100%,20%)">kjlubick</text>
<text x="0.942" y="0.816" font-size="0.031275" fill="hsl(0.0,100%,20%)">jiawei.shao</text>
<text x="1.434" y="0.860" font-size="0.012729" fill="hsl(0.0,100%,20%)">brandon1.jones</text>
<text x="1.292" y="0.762" font-size="0.012729" fill="hsl(0.0,100%,20%)">beaufort.francois</text>
<text x="0.924" y="0.844" font-size="0.002450" fill="hsl(0.0,100%,20%)">arthursonzogni</text>
<text x="0.443" y="0.361" font-size="0.030201" fill="hsl(0.0,100%,20%)">penghuang</text>
<text x="0.674" y="0.458" font-size="0.016794" fill="hsl(0.0,100%,20%)">lehoangquyen</text>
<text x="1.619" y="1.133" font-size="0.002450" fill="hsl(0.0,100%,20%)">fbeaufort</text>
<text x="0.208" y="0.614" font-size="0.008832" fill="hsl(0.0,100%,20%)">yunchao.he</text>
<text x="0.791" y="0.604" font-size="0.021214" fill="hsl(0.0,100%,20%)">shrekshao</text>
<text x="0.538" y="0.710" font-size="0.010678" fill="hsl(0.0,100%,20%)">ynovikov</text>
<text x="0.698" y="0.315" font-size="0.004243" fill="hsl(180.0,100%,20%)">alanbaker</text>
<text x="0.606" y="0.624" font-size="0.015493" fill="hsl(0.0,100%,20%)">gman</text>
<text x="0.568" y="0.797" font-size="0.004243" fill="hsl(0.0,100%,20%)">bsheedy</text>
<text x="0.085" y="0.527" font-size="0.024740" fill="hsl(0.0,100%,20%)">jie.a.chen</text>
<text x="0.448" y="0.735" font-size="0.002450" fill="hsl(0.0,100%,20%)">brucedawson</text>
<text x="0.128" y="0.561" font-size="0.004243" fill="hsl(0.0,100%,20%)">toji</text>
<text x="0.704" y="0.649" font-size="0.013417" fill="hsl(0.0,100%,20%)">tiszka</text>
<text x="0.117" y="0.457" font-size="0.014698" fill="hsl(0.0,100%,20%)">zhaoming.jiang</text>
<text x="0.719" y="0.786" font-size="0.013192" fill="hsl(0.0,100%,20%)">hao.x.li</text>
<text x="1.500" y="0.124" font-size="0.006481" fill="hsl(0.0,100%,20%)">hitawala</text>
<text x="1.782" y="0.104" font-size="0.003464" fill="hsl(0.0,100%,20%)">sunnyps</text>
<text x="1.186" y="0.806" font-size="0.010678" fill="hsl(0.0,100%,20%)">hogehoge</text>
<text x="1.401" y="0.348" font-size="0.009798" fill="hsl(180.0,100%,20%)">jason.erb</text>
<text x="0.752" y="0.953" font-size="0.003464" fill="hsl(0.0,100%,20%)">rafael.cintron</text>
<text x="1.118" y="0.148" font-size="0.006929" fill="hsl(180.0,100%,20%)">jojwang</text>
<text x="0.859" y="0.368" font-size="0.002450" fill="hsl(180.0,100%,20%)">johnstiles</text>
<text x="0.634" y="0.797" font-size="0.002450" fill="hsl(0.0,100%,20%)">kbr</text>
<text x="0.706" y="0.251" font-size="0.013639" fill="hsl(0.0,100%,20%)">shaobo.yan</text>
<text x="0.759" y="0.855" font-size="0.004899" fill="hsl(0.0,100%,20%)">stha09</text>
<text x="1.372" y="0.707" font-size="0.005477" fill="hsl(0.0,100%,20%)">vollick</text>
</svg>
