<svg width="4000" height="2000" viewBox="-0.025 -0.025 2.05 1.05" xmlns="http://www.w3.org/2000/svg">
  <style>
    path {
      fill: none;
      stroke-linecap: round;
      stroke-opacity: 0.4;
    }

    text {
      text-anchor: middle;
      alignment-baseline: hanging;
    }
  </style>
  <g opacity="0.4">
<path d="M0.388 0.142 Q0.170 0.310 0.451 0.453" stroke="hsl(0.0,100%,35%)" stroke-width="0.00071"></path>
<path d="M0.388 0.142 Q0.536 0.241 0.761 0.191" stroke="hsl(0.0,100%,35%)" stroke-width="0.00595"></path>
<path d="M0.388 0.142 Q0.343 0.294 0.628 0.349" stroke="hsl(0.0,100%,35%)" stroke-width="0.00404"></path>
<path d="M0.388 0.142 Q-0.037 0.387 0.347 0.648" stroke="hsl(0.0,100%,35%)" stroke-width="0.00048"></path>
<path d="M0.451 0.453 Q0.759 0.518 0.952 0.382" stroke="hsl(0.0,100%,35%)" stroke-width="0.00523"></path>
<path d="M0.451 0.453 Q0.623 0.437 0.628 0.349" stroke="hsl(0.0,100%,35%)" stroke-width="0.02236"></path>
<path d="M0.451 0.453 Q0.579 0.516 0.729 0.468" stroke="hsl(0.0,100%,35%)" stroke-width="0.00071"></path>
<path d="M0.451 0.453 Q0.816 0.384 0.761 0.191" stroke="hsl(0.0,100%,35%)" stroke-width="0.00048"></path>
<path d="M0.451 0.453 Q0.522 0.792 1.199 0.832" stroke="hsl(0.0,100%,35%)" stroke-width="0.00119"></path>
<path d="M0.451 0.453 Q0.661 0.888 1.554 0.881" stroke="hsl(0.0,100%,35%)" stroke-width="0.00190"></path>
<path d="M0.451 0.453 Q0.890 0.594 1.262 0.411" stroke="hsl(0.0,100%,35%)" stroke-width="0.00190"></path>
<path d="M0.761 0.191 Q0.524 0.323 0.729 0.468" stroke="hsl(0.0,100%,35%)" stroke-width="0.00048"></path>
<path d="M0.761 0.191 Q0.467 0.599 1.199 0.832" stroke="hsl(0.0,100%,35%)" stroke-width="0.00238"></path>
<path d="M0.761 0.191 Q0.832 0.551 1.551 0.596" stroke="hsl(0.0,100%,35%)" stroke-width="0.00048"></path>
<path d="M0.761 0.191 Q0.568 0.243 0.628 0.349" stroke="hsl(0.0,100%,35%)" stroke-width="0.00856"></path>
<path d="M0.761 0.191 Q0.836 0.401 1.262 0.411" stroke="hsl(0.0,100%,35%)" stroke-width="0.00190"></path>
<path d="M0.761 0.191 Q0.231 0.591 0.896 0.938" stroke="hsl(0.0,100%,35%)" stroke-width="0.00024"></path>
<path d="M0.761 0.191 Q0.396 0.260 0.451 0.453" stroke="hsl(0.0,100%,35%)" stroke-width="0.00119"></path>
<path d="M0.761 0.191 Q0.704 0.325 0.952 0.382" stroke="hsl(0.0,100%,35%)" stroke-width="0.00333"></path>
<path d="M0.761 0.191 Q0.606 0.694 1.554 0.881" stroke="hsl(0.0,100%,35%)" stroke-width="0.00071"></path>
<path d="M0.761 0.191 Q0.614 0.092 0.388 0.142" stroke="hsl(0.0,100%,35%)" stroke-width="0.00071"></path>
<path d="M0.628 0.349 Q0.665 0.800 1.554 0.881" stroke="hsl(0.0,100%,35%)" stroke-width="0.02664"></path>
<path d="M0.628 0.349 Q0.583 0.429 0.729 0.468" stroke="hsl(0.0,100%,35%)" stroke-width="0.01237"></path>
<path d="M0.628 0.349 Q0.456 0.366 0.451 0.453" stroke="hsl(0.0,100%,35%)" stroke-width="0.03924"></path>
<path d="M0.628 0.349 Q0.526 0.705 1.199 0.832" stroke="hsl(0.0,100%,35%)" stroke-width="0.01284"></path>
<path d="M0.628 0.349 Q0.895 0.507 1.262 0.411" stroke="hsl(0.0,100%,35%)" stroke-width="0.03734"></path>
<path d="M0.628 0.349 Q1.038 0.759 1.928 0.648" stroke="hsl(0.0,100%,35%)" stroke-width="0.00024"></path>
<path d="M0.628 0.349 Q0.763 0.430 0.952 0.382" stroke="hsl(0.0,100%,35%)" stroke-width="0.03235"></path>
<path d="M0.628 0.349 Q0.892 0.657 1.551 0.596" stroke="hsl(0.0,100%,35%)" stroke-width="0.00095"></path>
<path d="M0.628 0.349 Q0.978 0.750 1.836 0.667" stroke="hsl(0.0,100%,35%)" stroke-width="0.00048"></path>
<path d="M0.628 0.349 Q0.821 0.297 0.761 0.191" stroke="hsl(0.0,100%,35%)" stroke-width="0.00476"></path>
<path d="M0.628 0.349 Q0.532 0.217 0.255 0.235" stroke="hsl(0.0,100%,35%)" stroke-width="0.00190"></path>
<path d="M0.628 0.349 Q0.737 0.267 0.602 0.196" stroke="hsl(0.0,100%,35%)" stroke-width="0.00119"></path>
<path d="M0.628 0.349 Q0.248 0.443 0.347 0.648" stroke="hsl(0.0,100%,35%)" stroke-width="0.00048"></path>
<path d="M0.347 0.648 Q0.920 0.503 0.761 0.191" stroke="hsl(0.0,100%,35%)" stroke-width="0.00095"></path>
<path d="M0.347 0.648 Q0.727 0.555 0.628 0.349" stroke="hsl(0.0,100%,35%)" stroke-width="0.00143"></path>
<path d="M0.347 0.648 Q0.773 0.404 0.388 0.142" stroke="hsl(0.0,100%,35%)" stroke-width="0.00048"></path>
<path d="M0.347 0.648 Q0.337 0.538 0.120 0.519" stroke="hsl(0.0,100%,35%)" stroke-width="0.00048"></path>
<path d="M0.347 0.648 Q0.995 0.712 1.262 0.411" stroke="hsl(0.0,100%,35%)" stroke-width="0.00024"></path>
<path d="M1.384 0.900 Q1.484 0.924 1.554 0.881" stroke="hsl(180.0,100%,35%)" stroke-width="0.00048"></path>
<path d="M1.384 0.900 Q1.345 0.829 1.199 0.832" stroke="hsl(180.0,100%,35%)" stroke-width="0.00024"></path>
<path d="M1.384 0.900 Q1.447 0.473 0.628 0.349" stroke="hsl(180.0,100%,35%)" stroke-width="0.00024"></path>
<path d="M1.554 0.881 Q1.415 0.785 1.199 0.832" stroke="hsl(180.0,100%,35%)" stroke-width="0.02711"></path>
<path d="M1.554 0.881 Q1.599 0.795 1.442 0.754" stroke="hsl(180.0,100%,35%)" stroke-width="0.01047"></path>
<path d="M1.554 0.881 Q1.472 0.509 0.729 0.468" stroke="hsl(180.0,100%,35%)" stroke-width="0.00119"></path>
<path d="M1.554 0.881 Q1.516 0.429 0.628 0.349" stroke="hsl(180.0,100%,35%)" stroke-width="0.01736"></path>
<path d="M1.554 0.881 Q1.866 0.830 1.836 0.667" stroke="hsl(180.0,100%,35%)" stroke-width="0.00285"></path>
<path d="M1.554 0.881 Q1.780 0.738 1.551 0.596" stroke="hsl(180.0,100%,35%)" stroke-width="0.00809"></path>
<path d="M1.554 0.881 Q1.344 0.446 0.451 0.453" stroke="hsl(180.0,100%,35%)" stroke-width="0.00024"></path>
<path d="M1.554 0.881 Q1.179 0.778 0.896 0.938" stroke="hsl(180.0,100%,35%)" stroke-width="0.00048"></path>
<path d="M1.554 0.881 Q1.652 0.511 0.952 0.382" stroke="hsl(180.0,100%,35%)" stroke-width="0.00095"></path>
<path d="M1.554 0.881 Q1.709 0.377 0.761 0.191" stroke="hsl(180.0,100%,35%)" stroke-width="0.00071"></path>
<path d="M1.554 0.881 Q1.447 0.902 1.466 0.959" stroke="hsl(180.0,100%,35%)" stroke-width="0.00024"></path>
<path d="M1.554 0.881 Q1.387 0.888 1.365 0.971" stroke="hsl(180.0,100%,35%)" stroke-width="0.00048"></path>
<path d="M1.554 0.881 Q0.293 1.850 1.909 2.678" stroke="hsl(180.0,100%,35%)" stroke-width="0.00024"></path>
<path d="M1.554 0.881 Q1.294 0.808 1.097 0.919" stroke="hsl(180.0,100%,35%)" stroke-width="0.00024"></path>
<path d="M1.554 0.881 Q1.421 0.298 0.255 0.235" stroke="hsl(180.0,100%,35%)" stroke-width="0.00190"></path>
<path d="M1.554 0.881 Q1.729 0.795 1.601 0.691" stroke="hsl(180.0,100%,35%)" stroke-width="0.00166"></path>
<path d="M1.199 0.832 Q1.338 0.927 1.554 0.881" stroke="hsl(180.0,100%,35%)" stroke-width="0.01712"></path>
<path d="M1.199 0.832 Q0.963 0.825 0.896 0.938" stroke="hsl(180.0,100%,35%)" stroke-width="0.00190"></path>
<path d="M1.199 0.832 Q1.383 0.842 1.442 0.754" stroke="hsl(180.0,100%,35%)" stroke-width="0.01308"></path>
<path d="M1.199 0.832 Q1.650 0.877 1.836 0.667" stroke="hsl(180.0,100%,35%)" stroke-width="0.00499"></path>
<path d="M1.199 0.832 Q1.300 0.476 0.628 0.349" stroke="hsl(180.0,100%,35%)" stroke-width="0.00499"></path>
<path d="M1.199 0.832 Q1.513 0.842 1.601 0.691" stroke="hsl(180.0,100%,35%)" stroke-width="0.00381"></path>
<path d="M1.199 0.832 Q1.256 0.556 0.729 0.468" stroke="hsl(180.0,100%,35%)" stroke-width="0.00024"></path>
<path d="M1.199 0.832 Q1.564 0.785 1.551 0.596" stroke="hsl(180.0,100%,35%)" stroke-width="0.00381"></path>
<path d="M1.199 0.832 Q1.231 0.949 1.466 0.959" stroke="hsl(180.0,100%,35%)" stroke-width="0.00048"></path>
<path d="M1.199 0.832 Q1.128 0.493 0.451 0.453" stroke="hsl(180.0,100%,35%)" stroke-width="0.00024"></path>
<path d="M1.199 0.832 Q1.493 0.424 0.761 0.191" stroke="hsl(180.0,100%,35%)" stroke-width="0.00048"></path>
<path d="M1.199 0.832 Q1.436 0.558 0.952 0.382" stroke="hsl(180.0,100%,35%)" stroke-width="0.00095"></path>
<path d="M1.199 0.832 Q1.453 0.709 1.268 0.558" stroke="hsl(180.0,100%,35%)" stroke-width="0.00048"></path>
<path d="M1.199 0.832 Q1.567 0.634 1.262 0.411" stroke="hsl(180.0,100%,35%)" stroke-width="0.00024"></path>
<path d="M1.199 0.832 Q1.205 0.345 0.255 0.235" stroke="hsl(180.0,100%,35%)" stroke-width="0.00143"></path>
<path d="M1.199 0.832 Q1.332 0.677 1.057 0.578" stroke="hsl(180.0,100%,35%)" stroke-width="0.00048"></path>
<path d="M1.199 0.832 Q1.304 0.705 1.079 0.626" stroke="hsl(180.0,100%,35%)" stroke-width="0.00024"></path>
<path d="M0.952 0.382 Q0.816 0.301 0.628 0.349" stroke="hsl(0.0,100%,35%)" stroke-width="0.02664"></path>
<path d="M0.952 0.382 Q1.166 0.701 1.836 0.667" stroke="hsl(0.0,100%,35%)" stroke-width="0.00095"></path>
<path d="M0.952 0.382 Q0.715 0.656 1.199 0.832" stroke="hsl(0.0,100%,35%)" stroke-width="0.00214"></path>
<path d="M0.952 0.382 Q0.644 0.317 0.451 0.453" stroke="hsl(0.0,100%,35%)" stroke-width="0.00143"></path>
<path d="M0.952 0.382 Q1.219 0.341 1.197 0.202" stroke="hsl(0.0,100%,35%)" stroke-width="0.00024"></path>
<path d="M0.952 0.382 Q0.772 0.380 0.729 0.468" stroke="hsl(0.0,100%,35%)" stroke-width="0.00024"></path>
<path d="M0.952 0.382 Q1.084 0.458 1.262 0.411" stroke="hsl(0.0,100%,35%)" stroke-width="0.00143"></path>
<path d="M0.952 0.382 Q0.854 0.752 1.554 0.881" stroke="hsl(0.0,100%,35%)" stroke-width="0.00214"></path>
<path d="M0.952 0.382 Q0.926 0.219 0.602 0.196" stroke="hsl(0.0,100%,35%)" stroke-width="0.00048"></path>
<path d="M0.952 0.382 Q1.010 0.248 0.761 0.191" stroke="hsl(0.0,100%,35%)" stroke-width="0.00095"></path>
<path d="M0.729 0.468 Q0.811 0.839 1.554 0.881" stroke="hsl(0.0,100%,35%)" stroke-width="0.01213"></path>
<path d="M0.729 0.468 Q0.773 0.388 0.628 0.349" stroke="hsl(0.0,100%,35%)" stroke-width="0.01617"></path>
<path d="M0.729 0.468 Q0.967 0.336 0.761 0.191" stroke="hsl(0.0,100%,35%)" stroke-width="0.00071"></path>
<path d="M0.729 0.468 Q0.601 0.405 0.451 0.453" stroke="hsl(0.0,100%,35%)" stroke-width="0.00024"></path>
<path d="M0.729 0.468 Q0.672 0.744 1.199 0.832" stroke="hsl(0.0,100%,35%)" stroke-width="0.00143"></path>
<path d="M0.729 0.468 Q1.037 0.696 1.551 0.596" stroke="hsl(0.0,100%,35%)" stroke-width="0.00048"></path>
<path d="M0.729 0.468 Q0.678 0.256 0.255 0.235" stroke="hsl(0.0,100%,35%)" stroke-width="0.00024"></path>
<path d="M1.262 0.411 Q0.994 0.253 0.628 0.349" stroke="hsl(0.0,100%,35%)" stroke-width="0.01070"></path>
<path d="M1.262 0.411 Q0.893 0.609 1.199 0.832" stroke="hsl(0.0,100%,35%)" stroke-width="0.00024"></path>
<path d="M1.262 0.411 Q0.822 0.270 0.451 0.453" stroke="hsl(0.0,100%,35%)" stroke-width="0.00190"></path>
<path d="M1.262 0.411 Q1.130 0.334 0.952 0.382" stroke="hsl(0.0,100%,35%)" stroke-width="0.00690"></path>
<path d="M1.262 0.411 Q1.396 0.293 1.197 0.202" stroke="hsl(0.0,100%,35%)" stroke-width="0.00024"></path>
<path d="M1.551 0.596 Q1.186 0.644 1.199 0.832" stroke="hsl(180.0,100%,35%)" stroke-width="0.00928"></path>
<path d="M1.551 0.596 Q1.637 0.688 1.836 0.667" stroke="hsl(180.0,100%,35%)" stroke-width="0.00309"></path>
<path d="M1.551 0.596 Q1.325 0.739 1.554 0.881" stroke="hsl(180.0,100%,35%)" stroke-width="0.00618"></path>
<path d="M1.551 0.596 Q1.287 0.288 0.628 0.349" stroke="hsl(180.0,100%,35%)" stroke-width="0.00048"></path>
<path d="M1.551 0.596 Q0.950 0.636 0.896 0.938" stroke="hsl(180.0,100%,35%)" stroke-width="0.00071"></path>
<path d="M1.551 0.596 Q1.423 0.369 0.952 0.382" stroke="hsl(180.0,100%,35%)" stroke-width="0.00048"></path>
<path d="M1.551 0.596 Q1.370 0.653 1.442 0.754" stroke="hsl(180.0,100%,35%)" stroke-width="0.00024"></path>
<path d="M1.836 0.667 Q1.385 0.622 1.199 0.832" stroke="hsl(180.0,100%,35%)" stroke-width="0.00262"></path>
<path d="M1.836 0.667 Q1.442 0.346 0.729 0.468" stroke="hsl(180.0,100%,35%)" stroke-width="0.00071"></path>
<path d="M1.836 0.667 Q1.524 0.717 1.554 0.881" stroke="hsl(180.0,100%,35%)" stroke-width="0.00095"></path>
<path d="M1.836 0.667 Q1.569 0.632 1.442 0.754" stroke="hsl(180.0,100%,35%)" stroke-width="0.00048"></path>
<path d="M1.836 0.667 Q1.750 0.574 1.551 0.596" stroke="hsl(180.0,100%,35%)" stroke-width="0.00024"></path>
<path d="M0.896 0.938 Q1.132 0.946 1.199 0.832" stroke="hsl(180.0,100%,35%)" stroke-width="0.00714"></path>
<path d="M0.896 0.938 Q1.271 1.041 1.554 0.881" stroke="hsl(180.0,100%,35%)" stroke-width="0.00214"></path>
<path d="M0.896 0.938 Q1.316 0.955 1.442 0.754" stroke="hsl(180.0,100%,35%)" stroke-width="0.00071"></path>
<path d="M0.896 0.938 Q1.583 0.990 1.836 0.667" stroke="hsl(180.0,100%,35%)" stroke-width="0.00095"></path>
<path d="M0.896 0.938 Q1.497 0.898 1.551 0.596" stroke="hsl(180.0,100%,35%)" stroke-width="0.00024"></path>
<path d="M0.896 0.938 Q1.233 0.590 0.628 0.349" stroke="hsl(180.0,100%,35%)" stroke-width="0.00048"></path>
<path d="M0.896 0.938 Q1.369 0.671 0.952 0.382" stroke="hsl(180.0,100%,35%)" stroke-width="0.00024"></path>
<path d="M0.896 0.938 Q1.427 0.537 0.761 0.191" stroke="hsl(180.0,100%,35%)" stroke-width="0.00048"></path>
<path d="M1.442 0.754 Q1.258 0.745 1.199 0.832" stroke="hsl(180.0,100%,35%)" stroke-width="0.01189"></path>
<path d="M1.442 0.754 Q1.023 0.737 0.896 0.938" stroke="hsl(180.0,100%,35%)" stroke-width="0.00143"></path>
<path d="M1.442 0.754 Q1.397 0.840 1.554 0.881" stroke="hsl(180.0,100%,35%)" stroke-width="0.00381"></path>
<path d="M1.442 0.754 Q1.710 0.789 1.836 0.667" stroke="hsl(180.0,100%,35%)" stroke-width="0.00095"></path>
<path d="M1.928 0.648 Q1.517 0.238 0.628 0.349" stroke="hsl(180.0,100%,35%)" stroke-width="0.00238"></path>
<path d="M1.928 0.648 Q1.785 0.396 1.262 0.411" stroke="hsl(180.0,100%,35%)" stroke-width="0.00024"></path>
<path d="M1.928 0.648 Q1.555 0.690 1.554 0.881" stroke="hsl(180.0,100%,35%)" stroke-width="0.00333"></path>
<path d="M1.928 0.648 Q1.416 0.594 1.199 0.832" stroke="hsl(180.0,100%,35%)" stroke-width="0.00262"></path>
<path d="M1.928 0.648 Q1.867 0.639 1.836 0.667" stroke="hsl(180.0,100%,35%)" stroke-width="0.00143"></path>
<path d="M1.928 0.648 Q2.024 0.568 1.890 0.504" stroke="hsl(180.0,100%,35%)" stroke-width="0.00024"></path>
<path d="M1.928 0.648 Q1.730 0.604 1.601 0.691" stroke="hsl(180.0,100%,35%)" stroke-width="0.00048"></path>
<path d="M0.255 0.235 Q0.249 0.722 1.199 0.832" stroke="hsl(0.0,100%,35%)" stroke-width="0.00642"></path>
<path d="M0.255 0.235 Q0.388 0.818 1.554 0.881" stroke="hsl(0.0,100%,35%)" stroke-width="0.00333"></path>
<path d="M0.255 0.235 Q0.350 0.367 0.628 0.349" stroke="hsl(0.0,100%,35%)" stroke-width="0.01712"></path>
<path d="M0.255 0.235 Q0.178 0.383 0.451 0.453" stroke="hsl(0.0,100%,35%)" stroke-width="0.00024"></path>
<path d="M0.255 0.235 Q0.618 0.524 1.262 0.411" stroke="hsl(0.0,100%,35%)" stroke-width="0.00071"></path>
<path d="M0.255 0.235 Q0.486 0.448 0.952 0.382" stroke="hsl(0.0,100%,35%)" stroke-width="0.00071"></path>
<path d="M0.255 0.235 Q0.700 0.767 1.836 0.667" stroke="hsl(0.0,100%,35%)" stroke-width="0.00071"></path>
<path d="M0.602 0.196 Q0.492 0.278 0.628 0.349" stroke="hsl(0.0,100%,35%)" stroke-width="0.00714"></path>
<path d="M0.602 0.196 Q0.320 0.294 0.451 0.453" stroke="hsl(0.0,100%,35%)" stroke-width="0.00285"></path>
<path d="M0.602 0.196 Q0.628 0.359 0.952 0.382" stroke="hsl(0.0,100%,35%)" stroke-width="0.00166"></path>
<path d="M0.602 0.196 Q0.843 0.678 1.836 0.667" stroke="hsl(0.0,100%,35%)" stroke-width="0.00048"></path>
<path d="M1.365 0.971 Q1.532 0.964 1.554 0.881" stroke="hsl(180.0,100%,35%)" stroke-width="0.00095"></path>
<path d="M1.365 0.971 Q1.393 0.869 1.199 0.832" stroke="hsl(180.0,100%,35%)" stroke-width="0.00024"></path>
<path d="M1.365 0.971 Q1.759 0.821 1.551 0.596" stroke="hsl(180.0,100%,35%)" stroke-width="0.00024"></path>
<path d="M0.395 0.278 Q0.354 0.716 1.199 0.832" stroke="hsl(180.0,100%,35%)" stroke-width="0.00381"></path>
<path d="M0.395 0.278 Q0.805 0.761 1.836 0.667" stroke="hsl(180.0,100%,35%)" stroke-width="0.00095"></path>
<path d="M0.395 0.278 Q0.455 0.360 0.628 0.349" stroke="hsl(180.0,100%,35%)" stroke-width="0.00190"></path>
<path d="M0.395 0.278 Q0.493 0.811 1.554 0.881" stroke="hsl(180.0,100%,35%)" stroke-width="0.00166"></path>
<path d="M0.395 0.278 Q0.283 0.377 0.451 0.453" stroke="hsl(180.0,100%,35%)" stroke-width="0.00024"></path>
<path d="M0.395 0.278 Q0.538 0.726 1.442 0.754" stroke="hsl(180.0,100%,35%)" stroke-width="0.00024"></path>
<path d="M1.057 0.578 Q0.924 0.733 1.199 0.832" stroke="hsl(180.0,100%,35%)" stroke-width="0.00119"></path>
<path d="M1.057 0.578 Q1.063 0.828 1.554 0.881" stroke="hsl(180.0,100%,35%)" stroke-width="0.00048"></path>
<path d="M1.057 0.578 Q1.179 0.610 1.268 0.558" stroke="hsl(180.0,100%,35%)" stroke-width="0.00024"></path>
<path d="M1.466 0.959 Q1.573 0.937 1.554 0.881" stroke="hsl(180.0,100%,35%)" stroke-width="0.00357"></path>
<path d="M1.466 0.959 Q1.434 0.842 1.199 0.832" stroke="hsl(180.0,100%,35%)" stroke-width="0.00309"></path>
<path d="M1.466 0.959 Q1.885 0.887 1.836 0.667" stroke="hsl(180.0,100%,35%)" stroke-width="0.00024"></path>
<path d="M1.466 0.959 Q1.198 0.835 0.896 0.938" stroke="hsl(180.0,100%,35%)" stroke-width="0.00024"></path>
<path d="M1.466 0.959 Q1.799 0.795 1.551 0.596" stroke="hsl(180.0,100%,35%)" stroke-width="0.00024"></path>
<path d="M1.466 0.959 Q1.748 0.852 1.601 0.691" stroke="hsl(180.0,100%,35%)" stroke-width="0.00071"></path>
<path d="M1.097 0.919 Q1.217 0.896 1.199 0.832" stroke="hsl(180.0,100%,35%)" stroke-width="0.00119"></path>
<path d="M1.097 0.919 Q1.356 0.991 1.554 0.881" stroke="hsl(180.0,100%,35%)" stroke-width="0.00071"></path>
<path d="M1.097 0.919 Q1.511 0.488 0.761 0.191" stroke="hsl(180.0,100%,35%)" stroke-width="0.00024"></path>
<path d="M1.097 0.919 Q1.318 0.540 0.628 0.349" stroke="hsl(180.0,100%,35%)" stroke-width="0.00048"></path>
<path d="M1.097 0.919 Q1.586 0.698 1.262 0.411" stroke="hsl(180.0,100%,35%)" stroke-width="0.00024"></path>
<path d="M1.601 0.691 Q1.738 0.726 1.836 0.667" stroke="hsl(180.0,100%,35%)" stroke-width="0.00071"></path>
<path d="M1.601 0.691 Q1.426 0.776 1.554 0.881" stroke="hsl(180.0,100%,35%)" stroke-width="0.01023"></path>
<path d="M1.601 0.691 Q1.286 0.681 1.199 0.832" stroke="hsl(180.0,100%,35%)" stroke-width="0.01237"></path>
<path d="M1.601 0.691 Q1.388 0.325 0.628 0.349" stroke="hsl(180.0,100%,35%)" stroke-width="0.00166"></path>
<path d="M1.601 0.691 Q1.655 0.483 1.262 0.411" stroke="hsl(180.0,100%,35%)" stroke-width="0.00048"></path>
<path d="M1.601 0.691 Q1.471 0.691 1.442 0.754" stroke="hsl(180.0,100%,35%)" stroke-width="0.00048"></path>
<path d="M1.601 0.691 Q1.652 0.633 1.551 0.596" stroke="hsl(180.0,100%,35%)" stroke-width="0.00048"></path>
<path d="M1.601 0.691 Q1.280 0.742 1.309 0.909" stroke="hsl(180.0,100%,35%)" stroke-width="0.00024"></path>
<path d="M1.601 0.691 Q1.798 0.735 1.928 0.648" stroke="hsl(180.0,100%,35%)" stroke-width="0.00024"></path>
<path d="M1.601 0.691 Q1.292 0.194 0.255 0.235" stroke="hsl(180.0,100%,35%)" stroke-width="0.00048"></path>
<path d="M1.601 0.691 Q1.581 0.273 0.761 0.191" stroke="hsl(180.0,100%,35%)" stroke-width="0.00048"></path>
<path d="M1.307 0.966 Q1.499 0.973 1.554 0.881" stroke="hsl(180.0,100%,35%)" stroke-width="0.00119"></path>
<path d="M1.307 0.966 Q1.461 0.522 0.628 0.349" stroke="hsl(180.0,100%,35%)" stroke-width="0.00024"></path>
<path d="M1.307 0.966 Q1.360 0.878 1.199 0.832" stroke="hsl(180.0,100%,35%)" stroke-width="0.00024"></path>
<path d="M0.682 0.885 Q1.277 0.554 0.761 0.191" stroke="hsl(0.0,100%,35%)" stroke-width="0.00048"></path>
<path d="M0.682 0.885 Q0.688 0.828 0.578 0.812" stroke="hsl(0.0,100%,35%)" stroke-width="0.00048"></path>
<path d="M0.682 0.885 Q0.704 0.700 0.347 0.648" stroke="hsl(0.0,100%,35%)" stroke-width="0.00024"></path>
<path d="M1.309 0.909 Q1.315 0.849 1.199 0.832" stroke="hsl(180.0,100%,35%)" stroke-width="0.00238"></path>
<path d="M1.309 0.909 Q1.454 0.944 1.554 0.881" stroke="hsl(180.0,100%,35%)" stroke-width="0.00238"></path>
<path d="M1.309 0.909 Q1.630 0.858 1.601 0.691" stroke="hsl(180.0,100%,35%)" stroke-width="0.00048"></path>
<path d="M1.309 0.909 Q1.767 0.893 1.836 0.667" stroke="hsl(180.0,100%,35%)" stroke-width="0.00048"></path>
<path d="M1.148 0.661 Q1.175 0.852 1.554 0.881" stroke="hsl(180.0,100%,35%)" stroke-width="0.00143"></path>
<path d="M1.148 0.661 Q1.220 0.766 1.442 0.754" stroke="hsl(180.0,100%,35%)" stroke-width="0.00048"></path>
<path d="M1.148 0.661 Q1.036 0.757 1.199 0.832" stroke="hsl(180.0,100%,35%)" stroke-width="0.00166"></path>
<path d="M1.148 0.661 Q1.350 0.766 1.601 0.691" stroke="hsl(180.0,100%,35%)" stroke-width="0.00024"></path>
<path d="M1.240 0.691 Q1.246 0.848 1.554 0.881" stroke="hsl(180.0,100%,35%)" stroke-width="0.00285"></path>
<path d="M1.240 0.691 Q1.106 0.753 1.199 0.832" stroke="hsl(180.0,100%,35%)" stroke-width="0.00238"></path>
<path d="M1.240 0.691 Q0.845 0.782 0.936 0.995" stroke="hsl(180.0,100%,35%)" stroke-width="0.00024"></path>
<path d="M1.240 0.691 Q1.421 0.763 1.601 0.691" stroke="hsl(180.0,100%,35%)" stroke-width="0.00071"></path>
<path d="M1.788 0.919 Q1.619 0.481 0.729 0.468" stroke="hsl(180.0,100%,35%)" stroke-width="0.00024"></path>
<path d="M1.788 0.919 Q1.857 0.350 0.761 0.191" stroke="hsl(180.0,100%,35%)" stroke-width="0.00024"></path>
<path d="M1.788 0.919 Q1.701 0.853 1.554 0.881" stroke="hsl(180.0,100%,35%)" stroke-width="0.00048"></path>
<path d="M1.788 0.919 Q2.014 0.802 1.836 0.667" stroke="hsl(180.0,100%,35%)" stroke-width="0.00024"></path>
<path d="M1.788 0.919 Q1.562 0.758 1.199 0.832" stroke="hsl(180.0,100%,35%)" stroke-width="0.00024"></path>
<path d="M1.126 0.964 Q1.407 1.008 1.554 0.881" stroke="hsl(180.0,100%,35%)" stroke-width="0.00143"></path>
<path d="M1.126 0.964 Q1.268 0.913 1.199 0.832" stroke="hsl(180.0,100%,35%)" stroke-width="0.00095"></path>
<path d="M1.126 0.964 Q1.720 0.958 1.836 0.667" stroke="hsl(180.0,100%,35%)" stroke-width="0.00024"></path>
<path d="M1.489 0.881 Q1.522 0.894 1.554 0.881" stroke="hsl(0.0,100%,35%)" stroke-width="0.00024"></path>
<path d="M1.489 0.881 Q1.484 0.443 0.628 0.349" stroke="hsl(0.0,100%,35%)" stroke-width="0.00024"></path>
<path d="M1.489 0.881 Q1.677 0.390 0.761 0.191" stroke="hsl(0.0,100%,35%)" stroke-width="0.00024"></path>
<path d="M0.266 0.349 Q0.640 0.369 0.761 0.191" stroke="hsl(0.0,100%,35%)" stroke-width="0.00048"></path>
<path d="M0.266 0.349 Q0.485 0.872 1.554 0.881" stroke="hsl(0.0,100%,35%)" stroke-width="0.00048"></path>
<path d="M0.266 0.349 Q0.447 0.421 0.628 0.349" stroke="hsl(0.0,100%,35%)" stroke-width="0.00024"></path>
<path d="M1.621 0.431 Q1.089 0.547 1.199 0.832" stroke="hsl(180.0,100%,35%)" stroke-width="0.00048"></path>
<path d="M1.621 0.431 Q1.121 0.664 1.466 0.959" stroke="hsl(180.0,100%,35%)" stroke-width="0.00024"></path>
<path d="M1.621 0.431 Q1.403 0.557 1.601 0.691" stroke="hsl(180.0,100%,35%)" stroke-width="0.00071"></path>
<path d="M1.621 0.431 Q1.228 0.642 1.554 0.881" stroke="hsl(180.0,100%,35%)" stroke-width="0.00071"></path>
<path d="M1.846 0.918 Q1.729 0.841 1.554 0.881" stroke="hsl(180.0,100%,35%)" stroke-width="0.00476"></path>
<path d="M1.846 0.918 Q1.590 0.746 1.199 0.832" stroke="hsl(180.0,100%,35%)" stroke-width="0.00571"></path>
<path d="M1.846 0.918 Q2.042 0.790 1.836 0.667" stroke="hsl(180.0,100%,35%)" stroke-width="0.00095"></path>
<path d="M1.846 0.918 Q1.905 0.755 1.601 0.691" stroke="hsl(180.0,100%,35%)" stroke-width="0.00143"></path>
</g>
<text x="0.388" y="0.133" font-size="0.019422" fill="hsl(0.0,100%,20%)">afdx</text>
<text x="0.451" y="0.428" font-size="0.050100" fill="hsl(0.0,100%,20%)">amaiorano</text>
<text x="0.761" y="0.174" font-size="0.033855" fill="hsl(0.0,100%,20%)">rharrison</text>
<text x="0.628" y="0.300" font-size="0.098114" fill="hsl(0.0,100%,20%)">bclayton</text>
<text x="0.347" y="0.642" font-size="0.012045" fill="hsl(0.0,100%,20%)">vasniktel</text>
<text x="1.384" y="0.897" font-size="0.005387" fill="hsl(180.0,100%,20%)">aleksi</text>
<text x="1.554" y="0.843" font-size="0.075846" fill="hsl(180.0,100%,20%)">cwallez</text>
<text x="1.199" y="0.795" font-size="0.073761" fill="hsl(180.0,100%,20%)">enga</text>
<text x="0.952" y="0.356" font-size="0.052226" fill="hsl(0.0,100%,20%)">jrprice</text>
<text x="0.729" y="0.448" font-size="0.038090" fill="hsl(0.0,100%,20%)">dsinclair</text>
<text x="1.262" y="0.388" font-size="0.044420" fill="hsl(0.0,100%,20%)">dneto</text>
<text x="1.551" y="0.579" font-size="0.032987" fill="hsl(180.0,100%,20%)">bajones</text>
<text x="1.836" y="0.653" font-size="0.027990" fill="hsl(180.0,100%,20%)">kainino</text>
<text x="0.896" y="0.926" font-size="0.023012" fill="hsl(180.0,100%,20%)">shrekshao</text>
<text x="1.442" y="0.736" font-size="0.036733" fill="hsl(180.0,100%,20%)">lokokung</text>
<text x="1.928" y="0.639" font-size="0.018465" fill="hsl(180.0,100%,20%)">zhaoming.jiang</text>
<text x="0.255" y="0.219" font-size="0.032766" fill="hsl(0.0,100%,20%)">senorblanco</text>
<text x="0.602" y="0.186" font-size="0.020512" fill="hsl(0.0,100%,20%)">sarahmashay</text>
<text x="1.365" y="0.968" font-size="0.007618" fill="hsl(180.0,100%,20%)">beaufort.francois</text>
<text x="0.395" y="0.270" font-size="0.016383" fill="hsl(180.0,100%,20%)">brandon1.jones</text>
<text x="1.057" y="0.574" font-size="0.008517" fill="hsl(180.0,100%,20%)">bryan.bernhart</text>
<text x="1.268" y="0.556" font-size="0.004665" fill="hsl(180.0,100%,20%)">rafael.cintron</text>
<text x="1.466" y="0.951" font-size="0.016603" fill="hsl(180.0,100%,20%)">hao.x.li</text>
<text x="1.909" y="2.677" font-size="0.002693" fill="hsl(180.0,100%,20%)">fbeaufort</text>
<text x="1.097" y="0.914" font-size="0.009711" fill="hsl(180.0,100%,20%)">rockot</text>
<text x="1.601" y="0.674" font-size="0.034069" fill="hsl(180.0,100%,20%)">jiawei.shao</text>
<text x="1.197" y="0.200" font-size="0.003809" fill="hsl(0.0,100%,20%)">alanbaker</text>
<text x="1.079" y="0.624" font-size="0.002693" fill="hsl(180.0,100%,20%)">hob</text>
<text x="1.307" y="0.963" font-size="0.007126" fill="hsl(180.0,100%,20%)">hogehoge</text>
<text x="0.682" y="0.882" font-size="0.006023" fill="hsl(0.0,100%,20%)">jamessliu2020</text>
<text x="0.578" y="0.810" font-size="0.003809" fill="hsl(0.0,100%,20%)">paulthomson</text>
<text x="1.309" y="0.902" font-size="0.013467" fill="hsl(180.0,100%,20%)">shaobo.yan</text>
<text x="1.148" y="0.655" font-size="0.010773" fill="hsl(180.0,100%,20%)">jie.a.chen</text>
<text x="1.240" y="0.684" font-size="0.013734" fill="hsl(180.0,100%,20%)">junwei.fu</text>
<text x="0.936" y="0.994" font-size="0.002693" fill="hsl(180.0,100%,20%)">ningxin.hu</text>
<text x="1.788" y="0.915" font-size="0.006597" fill="hsl(180.0,100%,20%)">pkasting</text>
<text x="1.126" y="0.960" font-size="0.008933" fill="hsl(180.0,100%,20%)">tangm</text>
<text x="1.489" y="0.879" font-size="0.004665" fill="hsl(0.0,100%,20%)">ukai</text>
<text x="0.266" y="0.346" font-size="0.006023" fill="hsl(0.0,100%,20%)">vadimsh</text>
<text x="0.120" y="0.517" font-size="0.003809" fill="hsl(0.0,100%,20%)">allydonaldson</text>
<text x="1.621" y="0.427" font-size="0.008080" fill="hsl(180.0,100%,20%)">yang.gu</text>
<text x="1.846" y="0.908" font-size="0.019792" fill="hsl(180.0,100%,20%)">yunchao.he</text>
<text x="1.890" y="0.503" font-size="0.002693" fill="hsl(180.0,100%,20%)">ynovikov</text>
</svg>
