<svg width="4000" height="2000" viewBox="-0.025 -0.025 2.05 1.05" xmlns="http://www.w3.org/2000/svg">
  <style>
    path {
      fill: none;
      stroke-linecap: round;
      stroke-opacity: 0.4;
    }

    text {
      text-anchor: middle;
      alignment-baseline: hanging;
    }
  </style>
  <g opacity="0.4">
<path d="M1.428 0.114 Q1.060 0.041 0.837 0.205" stroke="hsl(0.0,100%,35%)" stroke-width="0.00126"></path>
<path d="M1.428 0.114 Q0.801 -0.026 0.391 0.249" stroke="hsl(0.0,100%,35%)" stroke-width="0.00063"></path>
<path d="M1.428 0.114 Q1.228 0.015 0.992 0.091" stroke="hsl(0.0,100%,35%)" stroke-width="0.00503"></path>
<path d="M1.428 0.114 Q0.768 0.459 1.296 0.856" stroke="hsl(0.0,100%,35%)" stroke-width="0.00126"></path>
<path d="M0.837 0.205 Q1.005 0.179 0.992 0.091" stroke="hsl(0.0,100%,35%)" stroke-width="0.09112"></path>
<path d="M0.837 0.205 Q0.810 0.293 0.976 0.325" stroke="hsl(0.0,100%,35%)" stroke-width="0.01006"></path>
<path d="M0.837 0.205 Q0.808 0.127 0.651 0.124" stroke="hsl(0.0,100%,35%)" stroke-width="0.00189"></path>
<path d="M0.837 0.205 Q0.545 0.622 1.296 0.856" stroke="hsl(0.0,100%,35%)" stroke-width="0.00503"></path>
<path d="M0.837 0.205 Q0.819 0.759 1.896 0.890" stroke="hsl(0.0,100%,35%)" stroke-width="0.00063"></path>
<path d="M0.837 0.205 Q1.025 0.489 1.620 0.459" stroke="hsl(0.0,100%,35%)" stroke-width="0.00063"></path>
<path d="M0.837 0.205 Q0.579 0.138 0.391 0.249" stroke="hsl(0.0,100%,35%)" stroke-width="0.00189"></path>
<path d="M0.837 0.205 Q0.432 0.220 0.373 0.421" stroke="hsl(0.0,100%,35%)" stroke-width="0.00063"></path>
<path d="M0.837 0.205 Q1.049 0.312 1.305 0.232" stroke="hsl(0.0,100%,35%)" stroke-width="0.00189"></path>
<path d="M0.837 0.205 Q0.462 0.410 0.780 0.637" stroke="hsl(0.0,100%,35%)" stroke-width="0.00063"></path>
<path d="M0.391 0.249 Q0.244 0.331 0.373 0.421" stroke="hsl(180.0,100%,35%)" stroke-width="0.01257"></path>
<path d="M0.391 0.249 Q0.622 0.404 0.976 0.325" stroke="hsl(180.0,100%,35%)" stroke-width="0.00063"></path>
<path d="M0.391 0.249 Q0.837 0.600 1.620 0.459" stroke="hsl(180.0,100%,35%)" stroke-width="0.00063"></path>
<path d="M0.391 0.249 Q0.458 0.308 0.589 0.288" stroke="hsl(180.0,100%,35%)" stroke-width="0.00063"></path>
<path d="M0.391 0.249 Q0.621 0.239 0.651 0.124" stroke="hsl(180.0,100%,35%)" stroke-width="0.00063"></path>
<path d="M0.391 0.249 Q1.017 0.389 1.428 0.114" stroke="hsl(180.0,100%,35%)" stroke-width="0.00126"></path>
<path d="M0.391 0.249 Q0.649 0.316 0.837 0.205" stroke="hsl(180.0,100%,35%)" stroke-width="0.00377"></path>
<path d="M0.391 0.249 Q0.357 0.734 1.296 0.856" stroke="hsl(180.0,100%,35%)" stroke-width="0.00063"></path>
<path d="M0.391 0.249 Q0.447 0.370 0.696 0.369" stroke="hsl(180.0,100%,35%)" stroke-width="0.00126"></path>
<path d="M0.992 0.091 Q0.823 0.117 0.837 0.205" stroke="hsl(0.0,100%,35%)" stroke-width="0.05530"></path>
<path d="M0.992 0.091 Q0.532 0.535 1.296 0.856" stroke="hsl(0.0,100%,35%)" stroke-width="0.00440"></path>
<path d="M0.992 0.091 Q0.795 0.040 0.651 0.124" stroke="hsl(0.0,100%,35%)" stroke-width="0.00126"></path>
<path d="M0.992 0.091 Q1.036 0.224 1.305 0.232" stroke="hsl(0.0,100%,35%)" stroke-width="0.00126"></path>
<path d="M0.992 0.091 Q0.797 0.205 0.976 0.325" stroke="hsl(0.0,100%,35%)" stroke-width="0.00189"></path>
<path d="M0.992 0.091 Q1.192 0.190 1.428 0.114" stroke="hsl(0.0,100%,35%)" stroke-width="0.00126"></path>
<path d="M1.296 0.856 Q1.588 0.439 0.837 0.205" stroke="hsl(180.0,100%,35%)" stroke-width="0.00943"></path>
<path d="M1.296 0.856 Q1.126 0.894 1.162 0.985" stroke="hsl(180.0,100%,35%)" stroke-width="0.00063"></path>
<path d="M1.296 0.856 Q1.476 0.810 1.424 0.712" stroke="hsl(180.0,100%,35%)" stroke-width="0.00754"></path>
<path d="M1.296 0.856 Q1.756 0.413 0.992 0.091" stroke="hsl(180.0,100%,35%)" stroke-width="0.00691"></path>
<path d="M1.296 0.856 Q1.569 0.993 1.896 0.890" stroke="hsl(180.0,100%,35%)" stroke-width="0.00063"></path>
<path d="M1.296 0.856 Q1.338 0.702 1.046 0.647" stroke="hsl(180.0,100%,35%)" stroke-width="0.00063"></path>
<path d="M1.296 0.856 Q1.776 0.723 1.620 0.459" stroke="hsl(180.0,100%,35%)" stroke-width="0.00126"></path>
<path d="M1.296 0.856 Q1.042 0.651 0.586 0.730" stroke="hsl(180.0,100%,35%)" stroke-width="0.00063"></path>
<path d="M1.296 0.856 Q1.182 0.454 0.373 0.421" stroke="hsl(180.0,100%,35%)" stroke-width="0.00063"></path>
<path d="M1.296 0.856 Q1.329 0.372 0.391 0.249" stroke="hsl(180.0,100%,35%)" stroke-width="0.00189"></path>
<path d="M0.780 0.637 Q0.896 0.365 0.391 0.249" stroke="hsl(180.0,100%,35%)" stroke-width="0.00189"></path>
<path d="M0.780 0.637 Q0.749 0.448 0.373 0.421" stroke="hsl(180.0,100%,35%)" stroke-width="0.00126"></path>
<path d="M0.780 0.637 Q1.042 0.803 1.424 0.712" stroke="hsl(180.0,100%,35%)" stroke-width="0.00063"></path>
<path d="M0.780 0.637 Q1.523 0.505 1.428 0.114" stroke="hsl(180.0,100%,35%)" stroke-width="0.00063"></path>
<path d="M0.373 0.421 Q0.519 0.339 0.391 0.249" stroke="hsl(180.0,100%,35%)" stroke-width="0.02577"></path>
<path d="M0.373 0.421 Q0.946 0.380 0.992 0.091" stroke="hsl(180.0,100%,35%)" stroke-width="0.00251"></path>
<path d="M0.373 0.421 Q0.486 0.823 1.296 0.856" stroke="hsl(180.0,100%,35%)" stroke-width="0.00880"></path>
<path d="M0.373 0.421 Q0.370 0.317 0.167 0.296" stroke="hsl(180.0,100%,35%)" stroke-width="0.00126"></path>
<path d="M0.373 0.421 Q0.403 0.611 0.780 0.637" stroke="hsl(180.0,100%,35%)" stroke-width="0.00126"></path>
<path d="M0.373 0.421 Q0.751 0.494 0.976 0.325" stroke="hsl(180.0,100%,35%)" stroke-width="0.00063"></path>
<path d="M0.836 0.925 Q1.121 0.983 1.296 0.856" stroke="hsl(180.0,100%,35%)" stroke-width="0.00880"></path>
<path d="M0.836 0.925 Q1.155 0.498 0.391 0.249" stroke="hsl(180.0,100%,35%)" stroke-width="0.00251"></path>
<path d="M0.836 0.925 Q1.386 0.653 0.976 0.325" stroke="hsl(180.0,100%,35%)" stroke-width="0.00063"></path>
<path d="M0.836 0.925 Q1.573 0.698 1.291 0.288" stroke="hsl(180.0,100%,35%)" stroke-width="0.00063"></path>
<path d="M0.836 0.925 Q1.301 0.936 1.424 0.712" stroke="hsl(180.0,100%,35%)" stroke-width="0.00063"></path>
<path d="M0.836 0.925 Q1.008 0.581 0.373 0.421" stroke="hsl(180.0,100%,35%)" stroke-width="0.00189"></path>
<path d="M0.976 0.325 Q0.800 0.291 0.696 0.369" stroke="hsl(0.0,100%,35%)" stroke-width="0.00063"></path>
<path d="M0.976 0.325 Q1.171 0.211 0.992 0.091" stroke="hsl(0.0,100%,35%)" stroke-width="0.00063"></path>
<path d="M0.976 0.325 Q1.163 0.369 1.291 0.288" stroke="hsl(0.0,100%,35%)" stroke-width="0.00063"></path>
<path d="M0.976 0.325 Q1.002 0.237 0.837 0.205" stroke="hsl(0.0,100%,35%)" stroke-width="0.00126"></path>
<path d="M0.976 0.325 Q0.597 0.252 0.373 0.421" stroke="hsl(0.0,100%,35%)" stroke-width="0.00063"></path>
<path d="M0.976 0.325 Q1.371 0.310 1.428 0.114" stroke="hsl(0.0,100%,35%)" stroke-width="0.00189"></path>
<path d="M0.976 0.325 Q0.974 0.160 0.651 0.124" stroke="hsl(0.0,100%,35%)" stroke-width="0.00063"></path>
<path d="M0.696 0.369 Q0.898 0.315 0.837 0.205" stroke="hsl(0.0,100%,35%)" stroke-width="0.00817"></path>
<path d="M0.696 0.369 Q1.086 0.599 1.620 0.459" stroke="hsl(0.0,100%,35%)" stroke-width="0.00063"></path>
<path d="M0.696 0.369 Q0.523 0.520 0.780 0.637" stroke="hsl(0.0,100%,35%)" stroke-width="0.00063"></path>
<path d="M0.696 0.369 Q0.606 0.733 1.296 0.856" stroke="hsl(0.0,100%,35%)" stroke-width="0.00063"></path>
<path d="M0.696 0.369 Q1.066 0.289 0.992 0.091" stroke="hsl(0.0,100%,35%)" stroke-width="0.00063"></path>
<path d="M0.696 0.369 Q0.639 0.248 0.391 0.249" stroke="hsl(0.0,100%,35%)" stroke-width="0.00126"></path>
<path d="M1.620 0.459 Q1.320 0.546 1.424 0.712" stroke="hsl(0.0,100%,35%)" stroke-width="0.00063"></path>
<path d="M1.620 0.459 Q1.404 0.098 0.651 0.124" stroke="hsl(0.0,100%,35%)" stroke-width="0.00189"></path>
<path d="M1.620 0.459 Q1.242 0.167 0.589 0.288" stroke="hsl(0.0,100%,35%)" stroke-width="0.00063"></path>
<path d="M1.620 0.459 Q1.600 0.150 0.992 0.091" stroke="hsl(0.0,100%,35%)" stroke-width="0.00189"></path>
<path d="M1.620 0.459 Q1.174 0.108 0.391 0.249" stroke="hsl(0.0,100%,35%)" stroke-width="0.00063"></path>
<path d="M1.896 0.890 Q1.656 0.268 0.391 0.249" stroke="hsl(180.0,100%,35%)" stroke-width="0.00251"></path>
<path d="M1.896 0.890 Q1.914 0.335 0.837 0.205" stroke="hsl(180.0,100%,35%)" stroke-width="0.00126"></path>
<path d="M1.896 0.890 Q2.082 0.310 0.992 0.091" stroke="hsl(180.0,100%,35%)" stroke-width="0.00126"></path>
<path d="M1.896 0.890 Q1.623 0.753 1.296 0.856" stroke="hsl(180.0,100%,35%)" stroke-width="0.00691"></path>
<path d="M1.896 0.890 Q1.540 0.540 0.780 0.637" stroke="hsl(180.0,100%,35%)" stroke-width="0.00063"></path>
<path d="M1.896 0.890 Q2.283 0.408 1.428 0.114" stroke="hsl(180.0,100%,35%)" stroke-width="0.00063"></path>
<path d="M1.896 0.890 Q1.888 0.423 0.976 0.325" stroke="hsl(180.0,100%,35%)" stroke-width="0.00063"></path>
<path d="M1.046 0.647 Q0.890 0.400 0.373 0.421" stroke="hsl(180.0,100%,35%)" stroke-width="0.01006"></path>
<path d="M1.046 0.647 Q1.269 0.472 0.976 0.325" stroke="hsl(180.0,100%,35%)" stroke-width="0.00063"></path>
<path d="M1.046 0.647 Q1.464 0.359 0.992 0.091" stroke="hsl(180.0,100%,35%)" stroke-width="0.00314"></path>
<path d="M1.046 0.647 Q1.004 0.802 1.296 0.856" stroke="hsl(180.0,100%,35%)" stroke-width="0.00817"></path>
<path d="M1.046 0.647 Q1.037 0.317 0.391 0.249" stroke="hsl(180.0,100%,35%)" stroke-width="0.00063"></path>
<path d="M1.046 0.647 Q1.295 0.384 0.837 0.205" stroke="hsl(180.0,100%,35%)" stroke-width="0.00189"></path>
<path d="M0.586 0.730 Q0.726 0.533 0.373 0.421" stroke="hsl(180.0,100%,35%)" stroke-width="0.00314"></path>
<path d="M0.586 0.730 Q0.873 0.450 0.391 0.249" stroke="hsl(180.0,100%,35%)" stroke-width="0.00063"></path>
<path d="M0.586 0.730 Q0.840 0.935 1.296 0.856" stroke="hsl(180.0,100%,35%)" stroke-width="0.00566"></path>
<path d="M0.586 0.730 Q1.132 0.518 0.837 0.205" stroke="hsl(180.0,100%,35%)" stroke-width="0.00063"></path>
<path d="M0.586 0.730 Q1.020 0.888 1.424 0.712" stroke="hsl(180.0,100%,35%)" stroke-width="0.00063"></path>
<path d="M0.586 0.730 Q0.757 0.722 0.780 0.637" stroke="hsl(180.0,100%,35%)" stroke-width="0.00189"></path>
<path d="M0.586 0.730 Q0.773 0.994 1.329 0.961" stroke="hsl(180.0,100%,35%)" stroke-width="0.00063"></path>
<path d="M0.651 0.124 Q0.679 0.202 0.837 0.205" stroke="hsl(0.0,100%,35%)" stroke-width="0.03079"></path>
<path d="M0.651 0.124 Q0.847 0.176 0.992 0.091" stroke="hsl(0.0,100%,35%)" stroke-width="0.01948"></path>
<path d="M0.651 0.124 Q0.892 0.309 1.305 0.232" stroke="hsl(0.0,100%,35%)" stroke-width="0.00063"></path>
<path d="M0.651 0.124 Q0.653 0.290 0.976 0.325" stroke="hsl(0.0,100%,35%)" stroke-width="0.00063"></path>
<path d="M0.651 0.124 Q0.388 0.619 1.296 0.856" stroke="hsl(0.0,100%,35%)" stroke-width="0.00063"></path>
<path d="M0.651 0.124 Q1.048 0.274 1.428 0.114" stroke="hsl(0.0,100%,35%)" stroke-width="0.00126"></path>
<path d="M1.305 0.232 Q1.092 0.125 0.837 0.205" stroke="hsl(0.0,100%,35%)" stroke-width="0.00691"></path>
<path d="M1.305 0.232 Q1.261 0.099 0.992 0.091" stroke="hsl(0.0,100%,35%)" stroke-width="0.01194"></path>
<path d="M1.305 0.232 Q1.066 0.213 0.976 0.325" stroke="hsl(0.0,100%,35%)" stroke-width="0.00063"></path>
<path d="M1.305 0.232 Q1.461 0.197 1.428 0.114" stroke="hsl(0.0,100%,35%)" stroke-width="0.00189"></path>
<path d="M1.305 0.232 Q0.801 0.542 1.296 0.856" stroke="hsl(0.0,100%,35%)" stroke-width="0.00126"></path>
<path d="M1.305 0.232 Q1.064 0.047 0.651 0.124" stroke="hsl(0.0,100%,35%)" stroke-width="0.00063"></path>
<path d="M0.976 0.889 Q1.162 0.936 1.296 0.856" stroke="hsl(180.0,100%,35%)" stroke-width="0.00126"></path>
<path d="M0.976 0.889 Q1.048 0.534 0.373 0.421" stroke="hsl(180.0,100%,35%)" stroke-width="0.00126"></path>
<path d="M0.976 0.889 Q0.908 0.731 0.586 0.730" stroke="hsl(180.0,100%,35%)" stroke-width="0.00063"></path>
<path d="M0.976 0.889 Q1.342 0.890 1.424 0.712" stroke="hsl(180.0,100%,35%)" stroke-width="0.00063"></path>
<path d="M1.793 0.494 Q1.517 0.080 0.651 0.124" stroke="hsl(0.0,100%,35%)" stroke-width="0.00251"></path>
<path d="M1.793 0.494 Q1.734 0.442 1.620 0.459" stroke="hsl(0.0,100%,35%)" stroke-width="0.00314"></path>
<path d="M1.793 0.494 Q1.714 0.132 0.992 0.091" stroke="hsl(0.0,100%,35%)" stroke-width="0.00126"></path>
<path d="M1.793 0.494 Q1.288 0.091 0.391 0.249" stroke="hsl(0.0,100%,35%)" stroke-width="0.00063"></path>
<path d="M0.589 0.288 Q0.779 0.296 0.837 0.205" stroke="hsl(180.0,100%,35%)" stroke-width="0.00063"></path>
<path d="M0.589 0.288 Q0.487 0.714 1.296 0.856" stroke="hsl(180.0,100%,35%)" stroke-width="0.00063"></path>
<path d="M0.589 0.288 Q0.521 0.229 0.391 0.249" stroke="hsl(180.0,100%,35%)" stroke-width="0.00189"></path>
<path d="M1.329 0.961 Q1.282 0.500 0.373 0.421" stroke="hsl(180.0,100%,35%)" stroke-width="0.00503"></path>
<path d="M1.329 0.961 Q1.396 0.902 1.296 0.856" stroke="hsl(180.0,100%,35%)" stroke-width="0.01445"></path>
<path d="M1.329 0.961 Q1.575 0.855 1.424 0.712" stroke="hsl(180.0,100%,35%)" stroke-width="0.00628"></path>
<path d="M1.329 0.961 Q2.056 0.557 1.428 0.114" stroke="hsl(180.0,100%,35%)" stroke-width="0.00063"></path>
<path d="M0.167 0.296 Q0.575 0.384 0.837 0.205" stroke="hsl(180.0,100%,35%)" stroke-width="0.00063"></path>
<path d="M0.167 0.296 Q0.316 0.317 0.391 0.249" stroke="hsl(180.0,100%,35%)" stroke-width="0.00189"></path>
<path d="M0.167 0.296 Q0.384 0.376 0.589 0.288" stroke="hsl(180.0,100%,35%)" stroke-width="0.00126"></path>
<path d="M0.167 0.296 Q0.169 0.400 0.373 0.421" stroke="hsl(180.0,100%,35%)" stroke-width="0.00314"></path>
<path d="M0.167 0.296 Q0.743 0.358 0.992 0.091" stroke="hsl(180.0,100%,35%)" stroke-width="0.00063"></path>
<path d="M0.167 0.296 Q0.373 0.438 0.696 0.369" stroke="hsl(180.0,100%,35%)" stroke-width="0.00063"></path>
<path d="M0.167 0.296 Q0.556 0.938 1.896 0.890" stroke="hsl(180.0,100%,35%)" stroke-width="0.00126"></path>
<path d="M0.167 0.296 Q0.283 0.802 1.296 0.856" stroke="hsl(180.0,100%,35%)" stroke-width="0.00189"></path>
<path d="M0.167 0.296 Q0.216 0.860 1.329 0.961" stroke="hsl(180.0,100%,35%)" stroke-width="0.00063"></path>
<path d="M1.501 0.749 Q1.772 0.318 0.992 0.091" stroke="hsl(180.0,100%,35%)" stroke-width="0.00189"></path>
<path d="M1.501 0.749 Q1.312 0.761 1.296 0.856" stroke="hsl(180.0,100%,35%)" stroke-width="0.00440"></path>
<path d="M1.501 0.749 Q1.492 0.715 1.424 0.712" stroke="hsl(180.0,100%,35%)" stroke-width="0.00251"></path>
<path d="M1.501 0.749 Q1.199 0.359 0.373 0.421" stroke="hsl(180.0,100%,35%)" stroke-width="0.00063"></path>
<path d="M1.501 0.749 Q1.575 0.266 0.651 0.124" stroke="hsl(180.0,100%,35%)" stroke-width="0.00063"></path>
<path d="M0.134 0.337 Q0.186 0.427 0.373 0.421" stroke="hsl(180.0,100%,35%)" stroke-width="0.00314"></path>
<path d="M0.134 0.337 Q0.333 0.345 0.391 0.249" stroke="hsl(180.0,100%,35%)" stroke-width="0.00126"></path>
<path d="M0.134 0.337 Q0.489 0.816 1.501 0.749" stroke="hsl(180.0,100%,35%)" stroke-width="0.00126"></path>
<path d="M1.109 0.921 Q1.519 0.596 0.976 0.325" stroke="hsl(180.0,100%,35%)" stroke-width="0.00063"></path>
<path d="M1.109 0.921 Q1.545 0.508 0.837 0.205" stroke="hsl(180.0,100%,35%)" stroke-width="0.00126"></path>
<path d="M1.109 0.921 Q1.254 0.926 1.296 0.856" stroke="hsl(180.0,100%,35%)" stroke-width="0.00314"></path>
<path d="M1.109 0.921 Q1.140 0.524 0.373 0.421" stroke="hsl(180.0,100%,35%)" stroke-width="0.00126"></path>
<path d="M1.109 0.921 Q1.433 0.879 1.424 0.712" stroke="hsl(180.0,100%,35%)" stroke-width="0.00126"></path>
<path d="M0.618 0.496 Q0.586 0.599 0.780 0.637" stroke="hsl(180.0,100%,35%)" stroke-width="0.00063"></path>
<path d="M0.618 0.496 Q0.849 0.765 1.424 0.712" stroke="hsl(180.0,100%,35%)" stroke-width="0.00063"></path>
</g>
<text x="1.428" y="0.101" font-size="0.025789" fill="hsl(0.0,100%,20%)">amaiorano</text>
<text x="0.837" y="0.157" font-size="0.094756" fill="hsl(0.0,100%,20%)">dsinclair</text>
<text x="0.391" y="0.224" font-size="0.050649" fill="hsl(180.0,100%,20%)">kainino</text>
<text x="0.992" y="0.046" font-size="0.089867" fill="hsl(0.0,100%,20%)">jrprice</text>
<text x="1.296" y="0.824" font-size="0.063918" fill="hsl(180.0,100%,20%)">cwallez</text>
<text x="0.780" y="0.628" font-size="0.019495" fill="hsl(180.0,100%,20%)">bajones</text>
<text x="0.373" y="0.393" font-size="0.056837" fill="hsl(180.0,100%,20%)">lokokung</text>
<text x="1.424" y="0.698" font-size="0.028418" fill="hsl(180.0,100%,20%)">geofflang</text>
<text x="0.836" y="0.913" font-size="0.023876" fill="hsl(180.0,100%,20%)">beaufort.francois</text>
<text x="0.976" y="0.310" font-size="0.029646" fill="hsl(0.0,100%,20%)">dneto</text>
<text x="1.291" y="0.284" font-size="0.006892" fill="hsl(180.0,100%,20%)">alanbaker</text>
<text x="0.696" y="0.358" font-size="0.023373" fill="hsl(0.0,100%,20%)">bsheedy</text>
<text x="1.620" y="0.449" font-size="0.021244" fill="hsl(0.0,100%,20%)">ynovikov</text>
<text x="1.162" y="0.983" font-size="0.004874" fill="hsl(180.0,100%,20%)">brandon1.jones</text>
<text x="1.896" y="0.877" font-size="0.024851" fill="hsl(180.0,100%,20%)">gman</text>
<text x="1.046" y="0.632" font-size="0.030824" fill="hsl(180.0,100%,20%)">jiawei.shao</text>
<text x="0.586" y="0.718" font-size="0.023373" fill="hsl(180.0,100%,20%)">kylechar</text>
<text x="0.651" y="0.100" font-size="0.048980" fill="hsl(0.0,100%,20%)">rharrison</text>
<text x="1.305" y="0.216" font-size="0.031959" fill="hsl(0.0,100%,20%)">petermcneeley</text>
<text x="0.976" y="0.883" font-size="0.011938" fill="hsl(180.0,100%,20%)">hitawala</text>
<text x="1.793" y="0.485" font-size="0.016883" fill="hsl(0.0,100%,20%)">jwata</text>
<text x="0.589" y="0.281" font-size="0.014621" fill="hsl(180.0,100%,20%)">senorblanco</text>
<text x="1.329" y="0.945" font-size="0.032328" fill="hsl(180.0,100%,20%)">lehoangquyen</text>
<text x="0.167" y="0.285" font-size="0.022334" fill="hsl(180.0,100%,20%)">shrekshao</text>
<text x="1.501" y="0.738" font-size="0.020677" fill="hsl(180.0,100%,20%)">shaoboyan</text>
<text x="0.134" y="0.330" font-size="0.014621" fill="hsl(180.0,100%,20%)">yulong.fs</text>
<text x="1.109" y="0.912" font-size="0.016883" fill="hsl(180.0,100%,20%)">zhaoming.jiang</text>
<text x="0.618" y="0.493" font-size="0.006892" fill="hsl(180.0,100%,20%)">zmo</text>
</svg>
