<svg width="4000" height="2000" viewBox="-0.025 -0.025 2.05 1.05" xmlns="http://www.w3.org/2000/svg">
  <style>
    path {
      fill: none;
      stroke-linecap: round;
      stroke-opacity: 0.4;
    }

    text {
      text-anchor: middle;
      alignment-baseline: hanging;
    }
  </style>
  <g opacity="0.4">
<path d="M1.041 0.805 Q0.978 0.943 1.233 1.004" stroke="hsl(0.0,100%,35%)" stroke-width="0.00848"></path>
<path d="M1.041 0.805 Q1.260 0.303 0.329 0.086" stroke="hsl(0.0,100%,35%)" stroke-width="0.00848"></path>
<path d="M1.041 0.805 Q1.328 0.389 0.580 0.159" stroke="hsl(0.0,100%,35%)" stroke-width="0.00021"></path>
<path d="M1.041 0.805 Q1.146 0.394 0.367 0.253" stroke="hsl(0.0,100%,35%)" stroke-width="0.00212"></path>
<path d="M1.041 0.805 Q1.151 0.933 1.424 0.907" stroke="hsl(0.0,100%,35%)" stroke-width="0.00254"></path>
<path d="M1.041 0.805 Q1.206 0.994 1.611 0.955" stroke="hsl(0.0,100%,35%)" stroke-width="0.00106"></path>
<path d="M1.041 0.805 Q1.253 0.451 0.608 0.269" stroke="hsl(0.0,100%,35%)" stroke-width="0.00042"></path>
<path d="M1.041 0.805 Q1.058 0.825 1.101 0.821" stroke="hsl(0.0,100%,35%)" stroke-width="0.00106"></path>
<path d="M1.041 0.805 Q1.331 0.400 0.605 0.170" stroke="hsl(0.0,100%,35%)" stroke-width="0.00021"></path>
<path d="M1.041 0.805 Q1.300 0.838 1.422 0.719" stroke="hsl(0.0,100%,35%)" stroke-width="0.00021"></path>
<path d="M1.041 0.805 Q0.883 0.747 0.735 0.812" stroke="hsl(0.0,100%,35%)" stroke-width="0.00021"></path>
<path d="M1.233 1.004 Q1.296 0.866 1.041 0.805" stroke="hsl(0.0,100%,35%)" stroke-width="0.01632"></path>
<path d="M1.233 1.004 Q1.406 0.994 1.424 0.907" stroke="hsl(0.0,100%,35%)" stroke-width="0.03413"></path>
<path d="M1.233 1.004 Q1.461 1.055 1.611 0.955" stroke="hsl(0.0,100%,35%)" stroke-width="0.04791"></path>
<path d="M1.233 1.004 Q1.401 0.455 0.367 0.253" stroke="hsl(0.0,100%,35%)" stroke-width="0.01463"></path>
<path d="M1.233 1.004 Q1.394 0.940 1.305 0.847" stroke="hsl(0.0,100%,35%)" stroke-width="0.00615"></path>
<path d="M1.233 1.004 Q1.586 0.461 0.605 0.170" stroke="hsl(0.0,100%,35%)" stroke-width="0.00021"></path>
<path d="M1.233 1.004 Q1.508 0.512 0.608 0.269" stroke="hsl(0.0,100%,35%)" stroke-width="0.00064"></path>
<path d="M1.233 1.004 Q1.515 0.364 0.329 0.086" stroke="hsl(0.0,100%,35%)" stroke-width="0.00763"></path>
<path d="M1.233 1.004 Q1.608 0.452 0.614 0.148" stroke="hsl(0.0,100%,35%)" stroke-width="0.00042"></path>
<path d="M1.233 1.004 Q1.408 0.565 0.590 0.383" stroke="hsl(0.0,100%,35%)" stroke-width="0.00021"></path>
<path d="M1.233 1.004 Q1.422 0.896 1.253 0.780" stroke="hsl(0.0,100%,35%)" stroke-width="0.00021"></path>
<path d="M1.233 1.004 Q1.313 0.886 1.101 0.821" stroke="hsl(0.0,100%,35%)" stroke-width="0.00742"></path>
<path d="M1.233 1.004 Q1.353 0.642 0.674 0.504" stroke="hsl(0.0,100%,35%)" stroke-width="0.00021"></path>
<path d="M1.233 1.004 Q1.472 0.874 1.271 0.729" stroke="hsl(0.0,100%,35%)" stroke-width="0.00021"></path>
<path d="M0.329 0.086 Q0.397 0.172 0.580 0.159" stroke="hsl(180.0,100%,35%)" stroke-width="0.00021"></path>
<path d="M0.329 0.086 Q0.215 0.177 0.367 0.253" stroke="hsl(180.0,100%,35%)" stroke-width="0.00827"></path>
<path d="M0.329 0.086 Q0.584 0.229 0.918 0.136" stroke="hsl(180.0,100%,35%)" stroke-width="0.01950"></path>
<path d="M0.329 0.086 Q0.110 0.588 1.041 0.805" stroke="hsl(180.0,100%,35%)" stroke-width="0.00148"></path>
<path d="M0.329 0.086 Q0.463 0.143 0.604 0.090" stroke="hsl(180.0,100%,35%)" stroke-width="0.00042"></path>
<path d="M0.329 0.086 Q0.208 0.662 1.305 0.847" stroke="hsl(180.0,100%,35%)" stroke-width="0.00064"></path>
<path d="M0.329 0.086 Q0.322 0.234 0.608 0.269" stroke="hsl(180.0,100%,35%)" stroke-width="0.00784"></path>
<path d="M0.329 0.086 Q0.167 0.364 0.674 0.504" stroke="hsl(180.0,100%,35%)" stroke-width="0.00106"></path>
<path d="M0.329 0.086 Q0.220 0.715 1.424 0.907" stroke="hsl(180.0,100%,35%)" stroke-width="0.00085"></path>
<path d="M0.329 0.086 Q0.023 0.349 0.469 0.556" stroke="hsl(180.0,100%,35%)" stroke-width="0.00085"></path>
<path d="M0.329 0.086 Q0.422 0.174 0.614 0.148" stroke="hsl(180.0,100%,35%)" stroke-width="0.00127"></path>
<path d="M0.329 0.086 Q0.047 0.726 1.233 1.004" stroke="hsl(180.0,100%,35%)" stroke-width="0.00170"></path>
<path d="M0.329 0.086 Q0.459 0.153 0.618 0.104" stroke="hsl(180.0,100%,35%)" stroke-width="0.00064"></path>
<path d="M0.329 0.086 Q0.275 0.777 1.611 0.955" stroke="hsl(180.0,100%,35%)" stroke-width="0.00021"></path>
<path d="M0.329 0.086 Q0.626 0.171 0.857 0.046" stroke="hsl(180.0,100%,35%)" stroke-width="0.00042"></path>
<path d="M0.329 0.086 Q0.053 0.240 0.294 0.409" stroke="hsl(180.0,100%,35%)" stroke-width="0.00021"></path>
<path d="M0.329 0.086 Q0.127 0.608 1.101 0.821" stroke="hsl(180.0,100%,35%)" stroke-width="0.00021"></path>
<path d="M0.329 0.086 Q0.744 0.250 1.156 0.084" stroke="hsl(180.0,100%,35%)" stroke-width="0.00021"></path>
<path d="M0.329 0.086 Q0.440 0.283 0.847 0.272" stroke="hsl(180.0,100%,35%)" stroke-width="0.00021"></path>
<path d="M0.329 0.086 Q0.400 0.183 0.605 0.170" stroke="hsl(180.0,100%,35%)" stroke-width="0.00042"></path>
<path d="M0.580 0.159 Q0.513 0.072 0.329 0.086" stroke="hsl(180.0,100%,35%)" stroke-width="0.00170"></path>
<path d="M0.580 0.159 Q0.230 0.712 1.233 1.004" stroke="hsl(180.0,100%,35%)" stroke-width="0.00042"></path>
<path d="M0.580 0.159 Q0.583 0.169 0.605 0.170" stroke="hsl(180.0,100%,35%)" stroke-width="0.00021"></path>
<path d="M0.580 0.159 Q0.398 0.163 0.367 0.253" stroke="hsl(180.0,100%,35%)" stroke-width="0.00064"></path>
<path d="M0.580 0.159 Q0.293 0.574 1.041 0.805" stroke="hsl(180.0,100%,35%)" stroke-width="0.00042"></path>
<path d="M0.580 0.159 Q0.505 0.220 0.608 0.269" stroke="hsl(180.0,100%,35%)" stroke-width="0.00021"></path>
<path d="M0.580 0.159 Q0.351 0.350 0.674 0.504" stroke="hsl(180.0,100%,35%)" stroke-width="0.00042"></path>
<path d="M0.367 0.253 Q0.481 0.162 0.329 0.086" stroke="hsl(180.0,100%,35%)" stroke-width="0.03265"></path>
<path d="M0.367 0.253 Q0.199 0.801 1.233 1.004" stroke="hsl(180.0,100%,35%)" stroke-width="0.01357"></path>
<path d="M0.367 0.253 Q0.319 0.440 0.674 0.504" stroke="hsl(180.0,100%,35%)" stroke-width="0.00382"></path>
<path d="M0.367 0.253 Q0.615 0.219 0.604 0.090" stroke="hsl(180.0,100%,35%)" stroke-width="0.00042"></path>
<path d="M0.367 0.253 Q0.736 0.305 0.918 0.136" stroke="hsl(180.0,100%,35%)" stroke-width="0.01654"></path>
<path d="M0.367 0.253 Q0.474 0.309 0.608 0.269" stroke="hsl(180.0,100%,35%)" stroke-width="0.00360"></path>
<path d="M0.367 0.253 Q-0.005 0.340 0.084 0.541" stroke="hsl(180.0,100%,35%)" stroke-width="0.00042"></path>
<path d="M0.367 0.253 Q0.279 0.684 1.101 0.821" stroke="hsl(180.0,100%,35%)" stroke-width="0.00021"></path>
<path d="M0.367 0.253 Q0.372 0.791 1.424 0.907" stroke="hsl(180.0,100%,35%)" stroke-width="0.00106"></path>
<path d="M0.367 0.253 Q0.365 0.294 0.446 0.305" stroke="hsl(180.0,100%,35%)" stroke-width="0.00021"></path>
<path d="M0.367 0.253 Q0.374 0.363 0.590 0.383" stroke="hsl(180.0,100%,35%)" stroke-width="0.00042"></path>
<path d="M0.367 0.253 Q0.574 0.250 0.614 0.148" stroke="hsl(180.0,100%,35%)" stroke-width="0.00085"></path>
<path d="M0.367 0.253 Q0.230 0.227 0.149 0.287" stroke="hsl(180.0,100%,35%)" stroke-width="0.00021"></path>
<path d="M0.367 0.253 Q0.262 0.664 1.041 0.805" stroke="hsl(180.0,100%,35%)" stroke-width="0.00021"></path>
<path d="M0.367 0.253 Q0.611 0.229 0.618 0.104" stroke="hsl(180.0,100%,35%)" stroke-width="0.00085"></path>
<path d="M0.367 0.253 Q0.268 0.167 0.079 0.196" stroke="hsl(180.0,100%,35%)" stroke-width="0.00042"></path>
<path d="M0.367 0.253 Q0.386 0.296 0.476 0.296" stroke="hsl(180.0,100%,35%)" stroke-width="0.00042"></path>
<path d="M0.367 0.253 Q0.427 0.852 1.611 0.955" stroke="hsl(180.0,100%,35%)" stroke-width="0.00021"></path>
<path d="M0.367 0.253 Q0.548 0.248 0.580 0.159" stroke="hsl(180.0,100%,35%)" stroke-width="0.00021"></path>
<path d="M0.367 0.253 Q0.205 0.316 0.294 0.409" stroke="hsl(180.0,100%,35%)" stroke-width="0.00021"></path>
<path d="M0.367 0.253 Q0.327 0.167 0.151 0.168" stroke="hsl(180.0,100%,35%)" stroke-width="0.00191"></path>
<path d="M0.367 0.253 Q0.324 0.371 0.546 0.418" stroke="hsl(180.0,100%,35%)" stroke-width="0.00148"></path>
<path d="M0.367 0.253 Q0.360 0.738 1.305 0.847" stroke="hsl(180.0,100%,35%)" stroke-width="0.00021"></path>
<path d="M1.424 0.907 Q1.479 0.968 1.611 0.955" stroke="hsl(0.0,100%,35%)" stroke-width="0.04325"></path>
<path d="M1.424 0.907 Q1.251 0.917 1.233 1.004" stroke="hsl(0.0,100%,35%)" stroke-width="0.02332"></path>
<path d="M1.424 0.907 Q1.314 0.779 1.041 0.805" stroke="hsl(0.0,100%,35%)" stroke-width="0.00318"></path>
<path d="M1.424 0.907 Q1.673 0.799 1.518 0.654" stroke="hsl(0.0,100%,35%)" stroke-width="0.00021"></path>
<path d="M1.424 0.907 Q1.419 0.368 0.367 0.253" stroke="hsl(0.0,100%,35%)" stroke-width="0.00297"></path>
<path d="M1.424 0.907 Q1.534 0.277 0.329 0.086" stroke="hsl(0.0,100%,35%)" stroke-width="0.00127"></path>
<path d="M1.424 0.907 Q1.331 0.799 1.101 0.821" stroke="hsl(0.0,100%,35%)" stroke-width="0.00042"></path>
<path d="M1.424 0.907 Q1.371 0.555 0.674 0.504" stroke="hsl(0.0,100%,35%)" stroke-width="0.00191"></path>
<path d="M1.424 0.907 Q1.227 0.540 0.469 0.556" stroke="hsl(0.0,100%,35%)" stroke-width="0.00021"></path>
<path d="M1.424 0.907 Q1.830 0.363 0.857 0.046" stroke="hsl(0.0,100%,35%)" stroke-width="0.00021"></path>
<path d="M1.424 0.907 Q1.526 0.425 0.608 0.269" stroke="hsl(0.0,100%,35%)" stroke-width="0.00042"></path>
<path d="M1.424 0.907 Q1.573 0.813 1.422 0.719" stroke="hsl(0.0,100%,35%)" stroke-width="0.00021"></path>
<path d="M1.424 0.907 Q1.438 0.317 0.292 0.181" stroke="hsl(0.0,100%,35%)" stroke-width="0.00021"></path>
<path d="M1.424 0.907 Q1.636 0.811 1.496 0.687" stroke="hsl(0.0,100%,35%)" stroke-width="0.00021"></path>
<path d="M1.611 0.955 Q1.383 0.904 1.233 1.004" stroke="hsl(0.0,100%,35%)" stroke-width="0.02799"></path>
<path d="M1.611 0.955 Q1.556 0.893 1.424 0.907" stroke="hsl(0.0,100%,35%)" stroke-width="0.02650"></path>
<path d="M1.611 0.955 Q1.550 0.355 0.367 0.253" stroke="hsl(0.0,100%,35%)" stroke-width="0.00148"></path>
<path d="M1.611 0.955 Q1.544 0.840 1.305 0.847" stroke="hsl(0.0,100%,35%)" stroke-width="0.00466"></path>
<path d="M1.611 0.955 Q1.446 0.766 1.041 0.805" stroke="hsl(0.0,100%,35%)" stroke-width="0.00170"></path>
<path d="M1.611 0.955 Q1.758 0.352 0.614 0.148" stroke="hsl(0.0,100%,35%)" stroke-width="0.00064"></path>
<path d="M1.611 0.955 Q1.665 0.264 0.329 0.086" stroke="hsl(0.0,100%,35%)" stroke-width="0.00233"></path>
<path d="M1.611 0.955 Q1.961 0.349 0.857 0.046" stroke="hsl(0.0,100%,35%)" stroke-width="0.00042"></path>
<path d="M1.611 0.955 Q1.546 0.801 1.233 0.799" stroke="hsl(0.0,100%,35%)" stroke-width="0.00021"></path>
<path d="M1.611 0.955 Q1.462 0.786 1.101 0.821" stroke="hsl(0.0,100%,35%)" stroke-width="0.00170"></path>
<path d="M1.611 0.955 Q1.705 0.799 1.422 0.719" stroke="hsl(0.0,100%,35%)" stroke-width="0.00064"></path>
<path d="M1.611 0.955 Q1.730 0.896 1.642 0.825" stroke="hsl(0.0,100%,35%)" stroke-width="0.00021"></path>
<path d="M0.608 0.269 Q0.615 0.122 0.329 0.086" stroke="hsl(180.0,100%,35%)" stroke-width="0.00445"></path>
<path d="M0.608 0.269 Q0.501 0.213 0.367 0.253" stroke="hsl(180.0,100%,35%)" stroke-width="0.00254"></path>
<path d="M0.608 0.269 Q0.870 0.265 0.918 0.136" stroke="hsl(180.0,100%,35%)" stroke-width="0.00318"></path>
<path d="M0.608 0.269 Q0.333 0.761 1.233 1.004" stroke="hsl(180.0,100%,35%)" stroke-width="0.00042"></path>
<path d="M0.608 0.269 Q0.339 0.276 0.294 0.409" stroke="hsl(180.0,100%,35%)" stroke-width="0.00021"></path>
<path d="M0.608 0.269 Q0.309 0.385 0.469 0.556" stroke="hsl(180.0,100%,35%)" stroke-width="0.00021"></path>
<path d="M0.608 0.269 Q0.686 0.219 0.605 0.170" stroke="hsl(180.0,100%,35%)" stroke-width="0.00106"></path>
<path d="M0.608 0.269 Q0.527 0.289 0.547 0.333" stroke="hsl(180.0,100%,35%)" stroke-width="0.00021"></path>
<path d="M0.608 0.269 Q0.506 0.751 1.424 0.907" stroke="hsl(180.0,100%,35%)" stroke-width="0.00085"></path>
<path d="M1.101 0.821 Q1.194 0.929 1.424 0.907" stroke="hsl(0.0,100%,35%)" stroke-width="0.00551"></path>
<path d="M1.101 0.821 Q1.303 0.299 0.329 0.086" stroke="hsl(0.0,100%,35%)" stroke-width="0.00064"></path>
<path d="M1.101 0.821 Q1.021 0.939 1.233 1.004" stroke="hsl(0.0,100%,35%)" stroke-width="0.00170"></path>
<path d="M1.101 0.821 Q1.249 0.990 1.611 0.955" stroke="hsl(0.0,100%,35%)" stroke-width="0.00700"></path>
<path d="M1.101 0.821 Q1.374 0.397 0.605 0.170" stroke="hsl(0.0,100%,35%)" stroke-width="0.00021"></path>
<path d="M1.101 0.821 Q1.182 0.875 1.305 0.847" stroke="hsl(0.0,100%,35%)" stroke-width="0.00042"></path>
<path d="M1.101 0.821 Q1.184 0.837 1.233 0.799" stroke="hsl(0.0,100%,35%)" stroke-width="0.00021"></path>
<path d="M0.605 0.170 Q0.535 0.073 0.329 0.086" stroke="hsl(180.0,100%,35%)" stroke-width="0.01081"></path>
<path d="M0.605 0.170 Q0.527 0.220 0.608 0.269" stroke="hsl(180.0,100%,35%)" stroke-width="0.00106"></path>
<path d="M0.605 0.170 Q0.426 0.702 1.424 0.907" stroke="hsl(180.0,100%,35%)" stroke-width="0.00042"></path>
<path d="M0.605 0.170 Q0.252 0.712 1.233 1.004" stroke="hsl(180.0,100%,35%)" stroke-width="0.00064"></path>
<path d="M0.605 0.170 Q0.602 0.159 0.580 0.159" stroke="hsl(180.0,100%,35%)" stroke-width="0.00021"></path>
<path d="M0.605 0.170 Q0.718 0.307 1.009 0.282" stroke="hsl(180.0,100%,35%)" stroke-width="0.00021"></path>
<path d="M1.422 0.719 Q1.180 0.706 1.101 0.821" stroke="hsl(0.0,100%,35%)" stroke-width="0.00064"></path>
<path d="M1.422 0.719 Q1.100 0.824 1.233 1.004" stroke="hsl(0.0,100%,35%)" stroke-width="0.00021"></path>
<path d="M1.422 0.719 Q1.163 0.686 1.041 0.805" stroke="hsl(0.0,100%,35%)" stroke-width="0.00042"></path>
<path d="M1.422 0.719 Q1.328 0.875 1.611 0.955" stroke="hsl(0.0,100%,35%)" stroke-width="0.00127"></path>
<path d="M1.422 0.719 Q1.273 0.814 1.424 0.907" stroke="hsl(0.0,100%,35%)" stroke-width="0.00148"></path>
<path d="M1.422 0.719 Q1.261 0.760 1.305 0.847" stroke="hsl(0.0,100%,35%)" stroke-width="0.00021"></path>
<path d="M1.422 0.719 Q1.268 0.275 0.367 0.253" stroke="hsl(0.0,100%,35%)" stroke-width="0.00021"></path>
<path d="M1.295 0.742 Q1.055 0.860 1.233 1.004" stroke="hsl(0.0,100%,35%)" stroke-width="0.00021"></path>
<path d="M1.295 0.742 Q1.228 0.850 1.424 0.907" stroke="hsl(0.0,100%,35%)" stroke-width="0.00021"></path>
<path d="M1.295 0.742 Q1.430 0.309 0.614 0.148" stroke="hsl(0.0,100%,35%)" stroke-width="0.00021"></path>
<path d="M1.295 0.742 Q1.222 0.312 0.367 0.253" stroke="hsl(0.0,100%,35%)" stroke-width="0.00021"></path>
<path d="M1.295 0.742 Q1.242 0.261 0.292 0.181" stroke="hsl(0.0,100%,35%)" stroke-width="0.00021"></path>
<path d="M0.614 0.148 Q0.514 0.207 0.608 0.269" stroke="hsl(180.0,100%,35%)" stroke-width="0.00212"></path>
<path d="M0.614 0.148 Q0.214 0.323 0.469 0.556" stroke="hsl(180.0,100%,35%)" stroke-width="0.00021"></path>
<path d="M0.614 0.148 Q0.406 0.151 0.367 0.253" stroke="hsl(180.0,100%,35%)" stroke-width="0.00042"></path>
<path d="M0.614 0.148 Q0.521 0.060 0.329 0.086" stroke="hsl(180.0,100%,35%)" stroke-width="0.00318"></path>
<path d="M0.614 0.148 Q0.775 0.203 0.918 0.136" stroke="hsl(180.0,100%,35%)" stroke-width="0.00064"></path>
<path d="M0.614 0.148 Q0.302 0.562 1.041 0.805" stroke="hsl(180.0,100%,35%)" stroke-width="0.00021"></path>
<path d="M0.614 0.148 Q0.400 0.636 1.305 0.847" stroke="hsl(180.0,100%,35%)" stroke-width="0.00021"></path>
<path d="M0.292 0.181 Q0.272 0.232 0.367 0.253" stroke="hsl(0.0,100%,35%)" stroke-width="0.00742"></path>
<path d="M0.292 0.181 Q0.387 0.141 0.329 0.086" stroke="hsl(0.0,100%,35%)" stroke-width="0.00042"></path>
<path d="M0.292 0.181 Q0.278 0.771 1.424 0.907" stroke="hsl(0.0,100%,35%)" stroke-width="0.00424"></path>
<path d="M0.292 0.181 Q0.232 0.146 0.151 0.168" stroke="hsl(0.0,100%,35%)" stroke-width="0.00085"></path>
<path d="M0.292 0.181 Q0.641 0.284 0.918 0.136" stroke="hsl(0.0,100%,35%)" stroke-width="0.00042"></path>
<path d="M0.292 0.181 Q0.100 0.211 0.115 0.310" stroke="hsl(0.0,100%,35%)" stroke-width="0.00021"></path>
<path d="M0.292 0.181 Q0.266 0.717 1.305 0.847" stroke="hsl(0.0,100%,35%)" stroke-width="0.00021"></path>
<path d="M0.292 0.181 Q0.080 0.404 0.469 0.556" stroke="hsl(0.0,100%,35%)" stroke-width="0.00021"></path>
<path d="M0.590 0.383 Q0.583 0.273 0.367 0.253" stroke="hsl(180.0,100%,35%)" stroke-width="0.00615"></path>
<path d="M0.590 0.383 Q0.698 0.183 0.329 0.086" stroke="hsl(180.0,100%,35%)" stroke-width="0.00085"></path>
<path d="M0.590 0.383 Q0.747 0.424 0.861 0.357" stroke="hsl(180.0,100%,35%)" stroke-width="0.00021"></path>
<path d="M0.590 0.383 Q0.415 0.822 1.233 1.004" stroke="hsl(180.0,100%,35%)" stroke-width="0.00148"></path>
<path d="M0.742 0.411 Q0.681 0.257 0.367 0.253" stroke="hsl(180.0,100%,35%)" stroke-width="0.00064"></path>
<path d="M0.742 0.411 Q0.789 0.314 0.608 0.269" stroke="hsl(180.0,100%,35%)" stroke-width="0.00064"></path>
<path d="M0.742 0.411 Q1.050 0.309 0.918 0.136" stroke="hsl(180.0,100%,35%)" stroke-width="0.00021"></path>
<path d="M0.742 0.411 Q0.489 0.429 0.469 0.556" stroke="hsl(180.0,100%,35%)" stroke-width="0.00021"></path>
<path d="M0.742 0.411 Q0.513 0.806 1.233 1.004" stroke="hsl(180.0,100%,35%)" stroke-width="0.00021"></path>
<path d="M0.742 0.411 Q0.796 0.166 0.329 0.086" stroke="hsl(180.0,100%,35%)" stroke-width="0.00021"></path>
<path d="M0.918 0.136 Q0.664 -0.007 0.329 0.086" stroke="hsl(180.0,100%,35%)" stroke-width="0.01844"></path>
<path d="M0.918 0.136 Q0.549 0.084 0.367 0.253" stroke="hsl(180.0,100%,35%)" stroke-width="0.00678"></path>
<path d="M0.918 0.136 Q0.357 0.256 0.469 0.556" stroke="hsl(180.0,100%,35%)" stroke-width="0.00148"></path>
<path d="M0.918 0.136 Q0.381 0.633 1.233 1.004" stroke="hsl(180.0,100%,35%)" stroke-width="0.00042"></path>
<path d="M0.918 0.136 Q0.657 0.141 0.608 0.269" stroke="hsl(180.0,100%,35%)" stroke-width="0.00572"></path>
<path d="M0.918 0.136 Q0.960 0.079 0.857 0.046" stroke="hsl(180.0,100%,35%)" stroke-width="0.00021"></path>
<path d="M0.918 0.136 Q0.445 0.495 1.041 0.805" stroke="hsl(180.0,100%,35%)" stroke-width="0.00021"></path>
<path d="M0.918 0.136 Q0.286 0.437 0.735 0.812" stroke="hsl(180.0,100%,35%)" stroke-width="0.00021"></path>
<path d="M0.918 0.136 Q0.757 0.081 0.614 0.148" stroke="hsl(180.0,100%,35%)" stroke-width="0.00064"></path>
<path d="M0.918 0.136 Q0.610 0.684 1.611 0.955" stroke="hsl(180.0,100%,35%)" stroke-width="0.00021"></path>
<path d="M0.469 0.556 Q0.775 0.293 0.329 0.086" stroke="hsl(180.0,100%,35%)" stroke-width="0.00700"></path>
<path d="M0.469 0.556 Q0.661 0.384 0.367 0.253" stroke="hsl(180.0,100%,35%)" stroke-width="0.00064"></path>
<path d="M0.469 0.556 Q1.030 0.436 0.918 0.136" stroke="hsl(180.0,100%,35%)" stroke-width="0.00170"></path>
<path d="M0.469 0.556 Q0.768 0.441 0.608 0.269" stroke="hsl(180.0,100%,35%)" stroke-width="0.00042"></path>
<path d="M0.469 0.556 Q0.613 0.571 0.674 0.504" stroke="hsl(180.0,100%,35%)" stroke-width="0.00509"></path>
<path d="M0.469 0.556 Q0.493 0.933 1.233 1.004" stroke="hsl(180.0,100%,35%)" stroke-width="0.00106"></path>
<path d="M0.469 0.556 Q0.666 0.923 1.424 0.907" stroke="hsl(180.0,100%,35%)" stroke-width="0.00106"></path>
<path d="M0.469 0.556 Q0.721 0.984 1.611 0.955" stroke="hsl(180.0,100%,35%)" stroke-width="0.00021"></path>
<path d="M0.469 0.556 Q0.868 0.381 0.614 0.148" stroke="hsl(180.0,100%,35%)" stroke-width="0.00042"></path>
<path d="M0.469 0.556 Q1.071 0.379 0.857 0.046" stroke="hsl(180.0,100%,35%)" stroke-width="0.00042"></path>
<path d="M1.305 0.847 Q1.144 0.911 1.233 1.004" stroke="hsl(0.0,100%,35%)" stroke-width="0.00445"></path>
<path d="M1.305 0.847 Q1.317 0.901 1.424 0.907" stroke="hsl(0.0,100%,35%)" stroke-width="0.00297"></path>
<path d="M1.305 0.847 Q1.426 0.272 0.329 0.086" stroke="hsl(0.0,100%,35%)" stroke-width="0.00212"></path>
<path d="M1.305 0.847 Q1.372 0.962 1.611 0.955" stroke="hsl(0.0,100%,35%)" stroke-width="0.00382"></path>
<path d="M1.305 0.847 Q1.207 0.773 1.041 0.805" stroke="hsl(0.0,100%,35%)" stroke-width="0.00042"></path>
<path d="M1.305 0.847 Q1.308 0.809 1.233 0.799" stroke="hsl(0.0,100%,35%)" stroke-width="0.00085"></path>
<path d="M1.305 0.847 Q1.519 0.359 0.614 0.148" stroke="hsl(0.0,100%,35%)" stroke-width="0.00021"></path>
<path d="M1.305 0.847 Q1.312 0.362 0.367 0.253" stroke="hsl(0.0,100%,35%)" stroke-width="0.00042"></path>
<path d="M1.305 0.847 Q1.224 0.793 1.101 0.821" stroke="hsl(0.0,100%,35%)" stroke-width="0.00021"></path>
<path d="M1.305 0.847 Q1.466 0.807 1.422 0.719" stroke="hsl(0.0,100%,35%)" stroke-width="0.00021"></path>
<path d="M0.674 0.504 Q0.836 0.226 0.329 0.086" stroke="hsl(180.0,100%,35%)" stroke-width="0.00721"></path>
<path d="M0.674 0.504 Q0.553 0.866 1.233 1.004" stroke="hsl(180.0,100%,35%)" stroke-width="0.00360"></path>
<path d="M0.674 0.504 Q0.727 0.855 1.424 0.907" stroke="hsl(180.0,100%,35%)" stroke-width="0.00191"></path>
<path d="M0.674 0.504 Q1.090 0.369 0.918 0.136" stroke="hsl(180.0,100%,35%)" stroke-width="0.00042"></path>
<path d="M0.674 0.504 Q0.929 0.314 0.614 0.148" stroke="hsl(180.0,100%,35%)" stroke-width="0.00021"></path>
<path d="M0.674 0.504 Q0.529 0.489 0.469 0.556" stroke="hsl(180.0,100%,35%)" stroke-width="0.00021"></path>
<path d="M0.674 0.504 Q1.132 0.311 0.857 0.046" stroke="hsl(180.0,100%,35%)" stroke-width="0.00042"></path>
<path d="M0.674 0.504 Q0.721 0.317 0.367 0.253" stroke="hsl(180.0,100%,35%)" stroke-width="0.00042"></path>
<path d="M0.674 0.504 Q0.829 0.374 0.608 0.269" stroke="hsl(180.0,100%,35%)" stroke-width="0.00021"></path>
<path d="M0.674 0.504 Q0.782 0.917 1.611 0.955" stroke="hsl(180.0,100%,35%)" stroke-width="0.00064"></path>
<path d="M0.547 0.333 Q0.354 0.805 1.233 1.004" stroke="hsl(180.0,100%,35%)" stroke-width="0.00042"></path>
<path d="M0.547 0.333 Q0.629 0.313 0.608 0.269" stroke="hsl(180.0,100%,35%)" stroke-width="0.00170"></path>
<path d="M0.547 0.333 Q0.521 0.256 0.367 0.253" stroke="hsl(180.0,100%,35%)" stroke-width="0.00466"></path>
<path d="M0.547 0.333 Q0.636 0.166 0.329 0.086" stroke="hsl(180.0,100%,35%)" stroke-width="0.00170"></path>
<path d="M0.547 0.333 Q0.890 0.309 0.918 0.136" stroke="hsl(180.0,100%,35%)" stroke-width="0.00064"></path>
<path d="M0.115 0.310 Q0.244 0.450 0.546 0.418" stroke="hsl(180.0,100%,35%)" stroke-width="0.00064"></path>
<path d="M0.115 0.310 Q0.247 0.246 0.151 0.168" stroke="hsl(180.0,100%,35%)" stroke-width="0.00106"></path>
<path d="M0.115 0.310 Q0.287 0.332 0.367 0.253" stroke="hsl(180.0,100%,35%)" stroke-width="0.00042"></path>
<path d="M0.115 0.310 Q0.293 0.870 1.424 0.907" stroke="hsl(180.0,100%,35%)" stroke-width="0.00021"></path>
<path d="M0.546 0.418 Q0.421 0.848 1.233 1.004" stroke="hsl(180.0,100%,35%)" stroke-width="0.00085"></path>
<path d="M0.546 0.418 Q0.703 0.209 0.329 0.086" stroke="hsl(180.0,100%,35%)" stroke-width="0.00021"></path>
<path d="M0.546 0.418 Q0.589 0.300 0.367 0.253" stroke="hsl(180.0,100%,35%)" stroke-width="0.00021"></path>
<path d="M0.546 0.418 Q0.549 0.214 0.151 0.168" stroke="hsl(180.0,100%,35%)" stroke-width="0.00021"></path>
<path d="M0.151 0.168 Q0.191 0.253 0.367 0.253" stroke="hsl(180.0,100%,35%)" stroke-width="0.00657"></path>
<path d="M0.151 0.168 Q0.148 0.372 0.546 0.418" stroke="hsl(180.0,100%,35%)" stroke-width="0.00148"></path>
<path d="M0.151 0.168 Q0.023 0.802 1.233 1.004" stroke="hsl(180.0,100%,35%)" stroke-width="0.00021"></path>
<path d="M0.151 0.168 Q-0.024 0.246 0.091 0.349" stroke="hsl(180.0,100%,35%)" stroke-width="0.00021"></path>
<path d="M0.151 0.168 Q-0.006 0.216 0.054 0.303" stroke="hsl(180.0,100%,35%)" stroke-width="0.00021"></path>
<path d="M0.151 0.168 Q0.019 0.232 0.115 0.310" stroke="hsl(180.0,100%,35%)" stroke-width="0.00127"></path>
<path d="M0.151 0.168 Q0.305 0.163 0.329 0.086" stroke="hsl(180.0,100%,35%)" stroke-width="0.00042"></path>
<path d="M0.151 0.168 Q0.196 0.792 1.424 0.907" stroke="hsl(180.0,100%,35%)" stroke-width="0.00127"></path>
<path d="M0.151 0.168 Q0.560 0.305 0.918 0.136" stroke="hsl(180.0,100%,35%)" stroke-width="0.00021"></path>
<path d="M0.151 0.168 Q0.210 0.203 0.292 0.181" stroke="hsl(180.0,100%,35%)" stroke-width="0.00021"></path>
<path d="M0.084 0.541 Q0.456 0.453 0.367 0.253" stroke="hsl(180.0,100%,35%)" stroke-width="0.00615"></path>
<path d="M0.084 0.541 Q0.571 0.363 0.329 0.086" stroke="hsl(180.0,100%,35%)" stroke-width="0.00297"></path>
<path d="M0.084 0.541 Q-0.005 0.600 0.090 0.656" stroke="hsl(180.0,100%,35%)" stroke-width="0.00064"></path>
<path d="M0.084 0.541 Q0.825 0.505 0.918 0.136" stroke="hsl(180.0,100%,35%)" stroke-width="0.00042"></path>
<path d="M0.620 0.373 Q0.589 0.262 0.367 0.253" stroke="hsl(180.0,100%,35%)" stroke-width="0.00127"></path>
<path d="M0.620 0.373 Q0.704 0.171 0.329 0.086" stroke="hsl(180.0,100%,35%)" stroke-width="0.00148"></path>
<path d="M0.620 0.373 Q0.422 0.811 1.233 1.004" stroke="hsl(180.0,100%,35%)" stroke-width="0.00064"></path>
<path d="M0.604 0.090 Q0.470 0.033 0.329 0.086" stroke="hsl(180.0,100%,35%)" stroke-width="0.00784"></path>
<path d="M0.604 0.090 Q0.356 0.124 0.367 0.253" stroke="hsl(180.0,100%,35%)" stroke-width="0.00382"></path>
<path d="M0.604 0.090 Q0.188 0.673 1.233 1.004" stroke="hsl(180.0,100%,35%)" stroke-width="0.00021"></path>
<path d="M0.604 0.090 Q0.725 0.176 0.918 0.136" stroke="hsl(180.0,100%,35%)" stroke-width="0.00127"></path>
<path d="M0.604 0.090 Q0.194 0.188 0.294 0.409" stroke="hsl(180.0,100%,35%)" stroke-width="0.00021"></path>
<path d="M0.604 0.090 Q0.268 0.555 1.101 0.821" stroke="hsl(180.0,100%,35%)" stroke-width="0.00021"></path>
<path d="M0.618 0.104 Q0.488 0.037 0.329 0.086" stroke="hsl(180.0,100%,35%)" stroke-width="0.00615"></path>
<path d="M0.618 0.104 Q0.374 0.128 0.367 0.253" stroke="hsl(180.0,100%,35%)" stroke-width="0.00509"></path>
<path d="M0.618 0.104 Q0.434 0.728 1.611 0.955" stroke="hsl(180.0,100%,35%)" stroke-width="0.00191"></path>
<path d="M0.618 0.104 Q0.206 0.677 1.233 1.004" stroke="hsl(180.0,100%,35%)" stroke-width="0.00021"></path>
<path d="M0.618 0.104 Q0.379 0.667 1.424 0.907" stroke="hsl(180.0,100%,35%)" stroke-width="0.00085"></path>
<path d="M0.618 0.104 Q0.182 0.300 0.469 0.556" stroke="hsl(180.0,100%,35%)" stroke-width="0.00042"></path>
<path d="M0.476 0.296 Q0.456 0.252 0.367 0.253" stroke="hsl(180.0,100%,35%)" stroke-width="0.00042"></path>
<path d="M0.476 0.296 Q0.571 0.162 0.329 0.086" stroke="hsl(180.0,100%,35%)" stroke-width="0.00064"></path>
<path d="M0.476 0.296 Q0.681 0.358 0.847 0.272" stroke="hsl(180.0,100%,35%)" stroke-width="0.00021"></path>
<path d="M0.294 0.409 Q0.455 0.345 0.367 0.253" stroke="hsl(180.0,100%,35%)" stroke-width="0.02799"></path>
<path d="M0.294 0.409 Q0.570 0.255 0.329 0.086" stroke="hsl(180.0,100%,35%)" stroke-width="0.02268"></path>
<path d="M0.294 0.409 Q0.288 0.894 1.233 1.004" stroke="hsl(180.0,100%,35%)" stroke-width="0.00424"></path>
<path d="M0.294 0.409 Q0.824 0.397 0.918 0.136" stroke="hsl(180.0,100%,35%)" stroke-width="0.00042"></path>
<path d="M0.294 0.409 Q0.516 0.945 1.611 0.955" stroke="hsl(180.0,100%,35%)" stroke-width="0.00297"></path>
<path d="M0.294 0.409 Q0.663 0.342 0.614 0.148" stroke="hsl(180.0,100%,35%)" stroke-width="0.00042"></path>
<path d="M0.294 0.409 Q0.367 0.777 1.101 0.821" stroke="hsl(180.0,100%,35%)" stroke-width="0.00064"></path>
<path d="M0.294 0.409 Q0.449 0.831 1.305 0.847" stroke="hsl(180.0,100%,35%)" stroke-width="0.00106"></path>
<path d="M0.294 0.409 Q0.704 0.312 0.604 0.090" stroke="hsl(180.0,100%,35%)" stroke-width="0.00085"></path>
<path d="M0.294 0.409 Q0.427 0.386 0.412 0.317" stroke="hsl(180.0,100%,35%)" stroke-width="0.00021"></path>
<path d="M0.294 0.409 Q0.461 0.884 1.424 0.907" stroke="hsl(180.0,100%,35%)" stroke-width="0.00085"></path>
<path d="M0.294 0.409 Q0.563 0.402 0.608 0.269" stroke="hsl(180.0,100%,35%)" stroke-width="0.00021"></path>
<path d="M1.124 0.736 Q0.964 0.891 1.233 1.004" stroke="hsl(180.0,100%,35%)" stroke-width="0.00021"></path>
<path d="M1.124 0.736 Q1.246 0.252 0.329 0.086" stroke="hsl(180.0,100%,35%)" stroke-width="0.00021"></path>
<path d="M1.124 0.736 Q1.132 0.343 0.367 0.253" stroke="hsl(180.0,100%,35%)" stroke-width="0.00021"></path>
<path d="M0.857 0.046 Q0.399 0.238 0.674 0.504" stroke="hsl(180.0,100%,35%)" stroke-width="0.00191"></path>
<path d="M0.857 0.046 Q0.561 -0.040 0.329 0.086" stroke="hsl(180.0,100%,35%)" stroke-width="0.00297"></path>
<path d="M0.857 0.046 Q0.654 0.048 0.614 0.148" stroke="hsl(180.0,100%,35%)" stroke-width="0.00085"></path>
<path d="M0.857 0.046 Q0.279 0.600 1.233 1.004" stroke="hsl(180.0,100%,35%)" stroke-width="0.00127"></path>
<path d="M0.857 0.046 Q0.815 0.103 0.918 0.136" stroke="hsl(180.0,100%,35%)" stroke-width="0.00106"></path>
<path d="M0.857 0.046 Q0.446 0.051 0.367 0.253" stroke="hsl(180.0,100%,35%)" stroke-width="0.00064"></path>
<path d="M0.857 0.046 Q0.342 0.462 1.041 0.805" stroke="hsl(180.0,100%,35%)" stroke-width="0.00042"></path>
<path d="M0.857 0.046 Q0.554 0.108 0.608 0.269" stroke="hsl(180.0,100%,35%)" stroke-width="0.00021"></path>
<path d="M0.857 0.046 Q0.507 0.651 1.611 0.955" stroke="hsl(180.0,100%,35%)" stroke-width="0.00064"></path>
<path d="M0.857 0.046 Q0.452 0.590 1.424 0.907" stroke="hsl(180.0,100%,35%)" stroke-width="0.00021"></path>
<path d="M1.156 0.084 Q0.626 0.010 0.367 0.253" stroke="hsl(180.0,100%,35%)" stroke-width="0.00233"></path>
<path d="M1.156 0.084 Q0.741 -0.080 0.329 0.086" stroke="hsl(180.0,100%,35%)" stroke-width="0.00318"></path>
<path d="M1.156 0.084 Q0.875 -0.023 0.604 0.090" stroke="hsl(180.0,100%,35%)" stroke-width="0.00233"></path>
<path d="M1.156 0.084 Q0.871 -0.013 0.618 0.104" stroke="hsl(180.0,100%,35%)" stroke-width="0.00021"></path>
<path d="M0.847 0.272 Q0.737 0.075 0.329 0.086" stroke="hsl(180.0,100%,35%)" stroke-width="0.00318"></path>
<path d="M0.847 0.272 Q0.871 0.133 0.604 0.090" stroke="hsl(180.0,100%,35%)" stroke-width="0.00042"></path>
<path d="M0.847 0.272 Q0.623 0.166 0.367 0.253" stroke="hsl(180.0,100%,35%)" stroke-width="0.00042"></path>
<path d="M0.847 0.272 Q0.628 0.705 1.424 0.907" stroke="hsl(180.0,100%,35%)" stroke-width="0.00021"></path>
<path d="M0.847 0.272 Q0.992 0.218 0.918 0.136" stroke="hsl(180.0,100%,35%)" stroke-width="0.00021"></path>
<path d="M0.847 0.272 Q0.830 0.163 0.614 0.148" stroke="hsl(180.0,100%,35%)" stroke-width="0.00021"></path>
<path d="M1.630 0.624 Q1.410 0.095 0.329 0.086" stroke="hsl(180.0,100%,35%)" stroke-width="0.00085"></path>
<path d="M1.630 0.624 Q1.295 0.185 0.367 0.253" stroke="hsl(180.0,100%,35%)" stroke-width="0.00042"></path>
<path d="M1.630 0.624 Q1.602 0.556 1.464 0.555" stroke="hsl(180.0,100%,35%)" stroke-width="0.00021"></path>
<path d="M0.678 0.130 Q0.793 0.181 0.918 0.136" stroke="hsl(0.0,100%,35%)" stroke-width="0.00021"></path>
<path d="M0.678 0.130 Q0.320 0.540 1.041 0.805" stroke="hsl(0.0,100%,35%)" stroke-width="0.00021"></path>
<path d="M0.678 0.130 Q0.539 0.038 0.329 0.086" stroke="hsl(0.0,100%,35%)" stroke-width="0.00021"></path>
<path d="M0.678 0.130 Q0.425 0.129 0.367 0.253" stroke="hsl(0.0,100%,35%)" stroke-width="0.00021"></path>
<path d="M0.031 0.331 Q0.262 0.359 0.367 0.253" stroke="hsl(180.0,100%,35%)" stroke-width="0.00339"></path>
<path d="M0.031 0.331 Q0.369 0.415 0.608 0.269" stroke="hsl(180.0,100%,35%)" stroke-width="0.00042"></path>
<path d="M0.031 0.331 Q0.100 0.422 0.294 0.409" stroke="hsl(180.0,100%,35%)" stroke-width="0.00042"></path>
<path d="M0.031 0.331 Q0.376 0.268 0.329 0.086" stroke="hsl(180.0,100%,35%)" stroke-width="0.00297"></path>
<path d="M0.031 0.331 Q0.630 0.411 0.918 0.136" stroke="hsl(180.0,100%,35%)" stroke-width="0.00021"></path>
<path d="M0.700 0.187 Q0.595 0.062 0.329 0.086" stroke="hsl(180.0,100%,35%)" stroke-width="0.00424"></path>
<path d="M0.700 0.187 Q0.481 0.153 0.367 0.253" stroke="hsl(180.0,100%,35%)" stroke-width="0.00297"></path>
<path d="M0.700 0.187 Q0.706 0.259 0.847 0.272" stroke="hsl(180.0,100%,35%)" stroke-width="0.00042"></path>
<path d="M0.863 1.023 Q1.064 1.087 1.233 1.004" stroke="hsl(0.0,100%,35%)" stroke-width="0.00148"></path>
<path d="M0.863 1.023 Q1.127 0.950 1.041 0.805" stroke="hsl(0.0,100%,35%)" stroke-width="0.00021"></path>
<path d="M0.863 1.023 Q1.292 1.138 1.611 0.955" stroke="hsl(0.0,100%,35%)" stroke-width="0.00021"></path>
<path d="M0.863 1.023 Q1.143 0.970 1.101 0.821" stroke="hsl(0.0,100%,35%)" stroke-width="0.00021"></path>
<path d="M0.863 1.023 Q1.346 0.448 0.329 0.086" stroke="hsl(0.0,100%,35%)" stroke-width="0.00021"></path>
<path d="M0.504 0.359 Q0.521 0.278 0.367 0.253" stroke="hsl(180.0,100%,35%)" stroke-width="0.00021"></path>
<path d="M0.504 0.359 Q0.635 0.188 0.329 0.086" stroke="hsl(180.0,100%,35%)" stroke-width="0.00021"></path>
<path d="M0.504 0.359 Q0.359 0.342 0.294 0.409" stroke="hsl(180.0,100%,35%)" stroke-width="0.00021"></path>
<path d="M0.412 0.317 Q0.555 0.185 0.329 0.086" stroke="hsl(180.0,100%,35%)" stroke-width="0.00212"></path>
<path d="M0.412 0.317 Q0.279 0.339 0.294 0.409" stroke="hsl(180.0,100%,35%)" stroke-width="0.00021"></path>
<path d="M0.412 0.317 Q0.440 0.275 0.367 0.253" stroke="hsl(180.0,100%,35%)" stroke-width="0.00233"></path>
<path d="M0.412 0.317 Q0.352 0.707 1.101 0.821" stroke="hsl(180.0,100%,35%)" stroke-width="0.00021"></path>
<path d="M0.412 0.317 Q0.809 0.328 0.918 0.136" stroke="hsl(180.0,100%,35%)" stroke-width="0.00021"></path>
<path d="M0.412 0.317 Q0.501 0.875 1.611 0.955" stroke="hsl(180.0,100%,35%)" stroke-width="0.00042"></path>
<path d="M0.412 0.317 Q0.436 0.722 1.233 0.799" stroke="hsl(180.0,100%,35%)" stroke-width="0.00064"></path>
<path d="M0.412 0.317 Q0.434 0.761 1.305 0.847" stroke="hsl(180.0,100%,35%)" stroke-width="0.00021"></path>
<path d="M0.694 0.585 Q0.629 0.902 1.233 1.004" stroke="hsl(0.0,100%,35%)" stroke-width="0.00021"></path>
<path d="M0.694 0.585 Q0.802 0.892 1.424 0.907" stroke="hsl(0.0,100%,35%)" stroke-width="0.00021"></path>
<path d="M0.694 0.585 Q0.378 0.874 0.872 1.092" stroke="hsl(0.0,100%,35%)" stroke-width="0.00021"></path>
<path d="M0.694 0.585 Q0.857 0.953 1.611 0.955" stroke="hsl(0.0,100%,35%)" stroke-width="0.00021"></path>
<path d="M0.576 0.132 Q0.490 0.060 0.329 0.086" stroke="hsl(180.0,100%,35%)" stroke-width="0.00021"></path>
<path d="M0.576 0.132 Q0.368 0.635 1.305 0.847" stroke="hsl(180.0,100%,35%)" stroke-width="0.00021"></path>
<path d="M0.576 0.132 Q0.375 0.150 0.367 0.253" stroke="hsl(180.0,100%,35%)" stroke-width="0.00021"></path>
<path d="M0.562 0.404 Q0.700 0.199 0.329 0.086" stroke="hsl(180.0,100%,35%)" stroke-width="0.00021"></path>
<path d="M0.562 0.404 Q0.955 0.341 0.918 0.136" stroke="hsl(180.0,100%,35%)" stroke-width="0.00064"></path>
<path d="M0.562 0.404 Q0.418 0.838 1.233 1.004" stroke="hsl(180.0,100%,35%)" stroke-width="0.00064"></path>
<path d="M0.562 0.404 Q0.481 0.700 1.041 0.805" stroke="hsl(180.0,100%,35%)" stroke-width="0.00021"></path>
<path d="M0.562 0.404 Q0.586 0.289 0.367 0.253" stroke="hsl(180.0,100%,35%)" stroke-width="0.00106"></path>
<path d="M0.276 0.282 Q0.345 0.285 0.367 0.253" stroke="hsl(180.0,100%,35%)" stroke-width="0.00042"></path>
<path d="M0.276 0.282 Q0.460 0.195 0.329 0.086" stroke="hsl(180.0,100%,35%)" stroke-width="0.00021"></path>
<path d="M0.276 0.282 Q0.590 0.262 0.618 0.104" stroke="hsl(180.0,100%,35%)" stroke-width="0.00021"></path>
</g>
<text x="1.041" y="0.787" font-size="0.035875" fill="hsl(0.0,100%,20%)">amaiorano</text>
<text x="1.233" y="0.965" font-size="0.077557" fill="hsl(0.0,100%,20%)">bclayton</text>
<text x="0.329" y="0.049" font-size="0.074944" fill="hsl(180.0,100%,20%)">enga</text>
<text x="0.580" y="0.153" font-size="0.011129" fill="hsl(180.0,100%,20%)">ynovikov</text>
<text x="0.367" y="0.216" font-size="0.072608" fill="hsl(180.0,100%,20%)">cwallez</text>
<text x="1.424" y="0.874" font-size="0.064851" fill="hsl(0.0,100%,20%)">dsinclair</text>
<text x="1.611" y="0.921" font-size="0.067735" fill="hsl(0.0,100%,20%)">jrprice</text>
<text x="0.608" y="0.254" font-size="0.031478" fill="hsl(180.0,100%,20%)">kainino</text>
<text x="1.101" y="0.808" font-size="0.027062" fill="hsl(0.0,100%,20%)">rharrison</text>
<text x="0.605" y="0.160" font-size="0.019962" fill="hsl(180.0,100%,20%)">bsheedy</text>
<text x="1.422" y="0.713" font-size="0.012058" fill="hsl(0.0,100%,20%)">chouinard</text>
<text x="0.735" y="0.810" font-size="0.003282" fill="hsl(0.0,100%,20%)">kbr</text>
<text x="1.295" y="0.739" font-size="0.005189" fill="hsl(0.0,100%,20%)">amir</text>
<text x="0.614" y="0.138" font-size="0.018419" fill="hsl(180.0,100%,20%)">bajones</text>
<text x="0.292" y="0.172" font-size="0.019276" fill="hsl(0.0,100%,20%)">jaswant.panchumarti</text>
<text x="0.590" y="0.376" font-size="0.015393" fill="hsl(180.0,100%,20%)">arthursonzogni</text>
<text x="0.861" y="0.356" font-size="0.002321" fill="hsl(180.0,100%,20%)">khaslett</text>
<text x="0.742" y="0.408" font-size="0.007338" fill="hsl(180.0,100%,20%)">austineng</text>
<text x="0.918" y="0.113" font-size="0.045769" fill="hsl(180.0,100%,20%)">lokokung</text>
<text x="0.469" y="0.544" font-size="0.023665" fill="hsl(180.0,100%,20%)">shrekshao</text>
<text x="1.305" y="0.834" font-size="0.027555" fill="hsl(0.0,100%,20%)">dneto</text>
<text x="1.253" y="0.779" font-size="0.002321" fill="hsl(0.0,100%,20%)">brucedawson</text>
<text x="0.674" y="0.490" font-size="0.027457" fill="hsl(180.0,100%,20%)">senorblanco</text>
<text x="1.271" y="0.728" font-size="0.002321" fill="hsl(0.0,100%,20%)">kjlubick</text>
<text x="0.547" y="0.325" font-size="0.015393" fill="hsl(180.0,100%,20%)">beaufort.francois</text>
<text x="0.115" y="0.305" font-size="0.009845" fill="hsl(180.0,100%,20%)">bentonian</text>
<text x="0.546" y="0.413" font-size="0.011368" fill="hsl(180.0,100%,20%)">nexa</text>
<text x="0.151" y="0.158" font-size="0.020230" fill="hsl(180.0,100%,20%)">jimblackler</text>
<text x="0.084" y="0.533" font-size="0.016409" fill="hsl(180.0,100%,20%)">blundell</text>
<text x="0.090" y="0.654" font-size="0.004019" fill="hsl(180.0,100%,20%)">nicolettep</text>
<text x="0.620" y="0.368" font-size="0.009282" fill="hsl(180.0,100%,20%)">brandon1.jones</text>
<text x="1.009" y="0.281" font-size="0.002321" fill="hsl(180.0,100%,20%)">chanli</text>
<text x="0.604" y="0.080" font-size="0.021395" fill="hsl(180.0,100%,20%)">penghuang</text>
<text x="0.446" y="0.303" font-size="0.002321" fill="hsl(180.0,100%,20%)">fhorschig</text>
<text x="0.149" y="0.286" font-size="0.002321" fill="hsl(180.0,100%,20%)">jamesgk</text>
<text x="0.618" y="0.094" font-size="0.020495" fill="hsl(180.0,100%,20%)">lehoangquyen</text>
<text x="0.079" y="0.194" font-size="0.003282" fill="hsl(180.0,100%,20%)">fbeaufort</text>
<text x="0.476" y="0.293" font-size="0.006564" fill="hsl(180.0,100%,20%)">shaobo.yan</text>
<text x="0.294" y="0.389" font-size="0.040394" fill="hsl(180.0,100%,20%)">jiawei.shao</text>
<text x="1.124" y="0.734" font-size="0.004019" fill="hsl(180.0,100%,20%)">danakj</text>
<text x="1.233" y="0.796" font-size="0.006962" fill="hsl(0.0,100%,20%)">alanbaker</text>
<text x="1.518" y="0.653" font-size="0.002321" fill="hsl(0.0,100%,20%)">yiwzhang</text>
<text x="0.857" y="0.037" font-size="0.017673" fill="hsl(180.0,100%,20%)">gman</text>
<text x="1.496" y="0.686" font-size="0.002321" fill="hsl(0.0,100%,20%)">ddoman</text>
<text x="1.156" y="0.077" font-size="0.014492" fill="hsl(180.0,100%,20%)">jie.a.chen</text>
<text x="0.847" y="0.266" font-size="0.011833" fill="hsl(180.0,100%,20%)">sunnyps</text>
<text x="1.630" y="0.621" font-size="0.006140" fill="hsl(180.0,100%,20%)">geofflang</text>
<text x="1.464" y="0.554" font-size="0.002321" fill="hsl(180.0,100%,20%)">fmalita</text>
<text x="0.678" y="0.128" font-size="0.004641" fill="hsl(0.0,100%,20%)">hans</text>
<text x="0.031" y="0.324" font-size="0.013729" fill="hsl(180.0,100%,20%)">hao.x.li</text>
<text x="0.700" y="0.180" font-size="0.013923" fill="hsl(180.0,100%,20%)">hitawala</text>
<text x="0.863" y="1.019" font-size="0.007696" fill="hsl(0.0,100%,20%)">jason.erb</text>
<text x="0.504" y="0.357" font-size="0.004019" fill="hsl(180.0,100%,20%)">jianlin.qiu</text>
<text x="0.412" y="0.310" font-size="0.012920" fill="hsl(180.0,100%,20%)">zhaoming.jiang</text>
<text x="0.091" y="0.347" font-size="0.002321" fill="hsl(180.0,100%,20%)">artyompp</text>
<text x="0.054" y="0.302" font-size="0.002321" fill="hsl(180.0,100%,20%)">vantablack</text>
<text x="0.694" y="0.583" font-size="0.004641" fill="hsl(0.0,100%,20%)">jojwang</text>
<text x="0.872" y="1.091" font-size="0.002321" fill="hsl(0.0,100%,20%)">gavinmak</text>
<text x="1.642" y="0.823" font-size="0.002321" fill="hsl(0.0,100%,20%)">johnstiles</text>
<text x="0.576" y="0.130" font-size="0.004019" fill="hsl(180.0,100%,20%)">srijan.dhungana6</text>
<text x="0.562" y="0.400" font-size="0.008367" fill="hsl(180.0,100%,20%)">tiszka</text>
<text x="0.276" y="0.280" font-size="0.004641" fill="hsl(180.0,100%,20%)">vollick</text>
</svg>
