<svg width="4000" height="2000" viewBox="-0.025 -0.025 2.05 1.05" xmlns="http://www.w3.org/2000/svg">
  <style>
    path {
      fill: none;
      stroke-linecap: round;
      stroke-opacity: 0.4;
    }

    text {
      text-anchor: middle;
      alignment-baseline: hanging;
    }
  </style>
  <g opacity="0.4">
<path d="M0.540 0.637 Q0.840 0.717 1.064 0.589" stroke="hsl(0.0,100%,35%)" stroke-width="0.00072"></path>
<path d="M0.540 0.637 Q0.645 0.696 0.784 0.658" stroke="hsl(0.0,100%,35%)" stroke-width="0.00287"></path>
<path d="M0.540 0.637 Q0.962 0.341 0.477 0.071" stroke="hsl(0.0,100%,35%)" stroke-width="0.00108"></path>
<path d="M0.540 0.637 Q0.993 0.471 0.768 0.214" stroke="hsl(0.0,100%,35%)" stroke-width="0.00179"></path>
<path d="M0.540 0.637 Q1.066 0.658 1.223 0.406" stroke="hsl(0.0,100%,35%)" stroke-width="0.00036"></path>
<path d="M0.540 0.637 Q0.687 0.797 1.032 0.761" stroke="hsl(0.0,100%,35%)" stroke-width="0.00108"></path>
<path d="M0.540 0.637 Q0.765 0.629 0.799 0.517" stroke="hsl(0.0,100%,35%)" stroke-width="0.00538"></path>
<path d="M0.540 0.637 Q0.422 0.541 0.209 0.577" stroke="hsl(0.0,100%,35%)" stroke-width="0.01649"></path>
<path d="M0.540 0.637 Q0.402 0.710 0.514 0.793" stroke="hsl(0.0,100%,35%)" stroke-width="0.00036"></path>
<path d="M0.540 0.637 Q0.709 0.524 0.526 0.417" stroke="hsl(0.0,100%,35%)" stroke-width="0.00036"></path>
<path d="M1.064 0.589 Q0.645 0.412 0.209 0.577" stroke="hsl(0.0,100%,35%)" stroke-width="0.01721"></path>
<path d="M1.064 0.589 Q1.185 0.212 0.477 0.071" stroke="hsl(0.0,100%,35%)" stroke-width="0.00108"></path>
<path d="M1.064 0.589 Q0.868 0.568 0.784 0.658" stroke="hsl(0.0,100%,35%)" stroke-width="0.00287"></path>
<path d="M1.064 0.589 Q0.764 0.508 0.540 0.637" stroke="hsl(0.0,100%,35%)" stroke-width="0.00108"></path>
<path d="M1.064 0.589 Q0.893 0.406 0.499 0.449" stroke="hsl(0.0,100%,35%)" stroke-width="0.00072"></path>
<path d="M1.064 0.589 Q0.989 0.500 0.799 0.517" stroke="hsl(0.0,100%,35%)" stroke-width="0.00072"></path>
<path d="M0.784 0.658 Q0.561 0.503 0.209 0.577" stroke="hsl(0.0,100%,35%)" stroke-width="0.01614"></path>
<path d="M0.784 0.658 Q0.980 0.679 1.064 0.589" stroke="hsl(0.0,100%,35%)" stroke-width="0.00215"></path>
<path d="M0.784 0.658 Q1.206 0.620 1.223 0.406" stroke="hsl(0.0,100%,35%)" stroke-width="0.00036"></path>
<path d="M0.784 0.658 Q0.905 0.591 0.799 0.517" stroke="hsl(0.0,100%,35%)" stroke-width="0.01147"></path>
<path d="M0.784 0.658 Q0.809 0.497 0.499 0.449" stroke="hsl(0.0,100%,35%)" stroke-width="0.00072"></path>
<path d="M0.784 0.658 Q1.315 0.489 1.101 0.193" stroke="hsl(0.0,100%,35%)" stroke-width="0.00036"></path>
<path d="M0.784 0.658 Q0.680 0.599 0.540 0.637" stroke="hsl(0.0,100%,35%)" stroke-width="0.00072"></path>
<path d="M0.477 0.071 Q0.508 0.200 0.768 0.214" stroke="hsl(180.0,100%,35%)" stroke-width="0.02044"></path>
<path d="M0.477 0.071 Q0.363 0.107 0.410 0.171" stroke="hsl(180.0,100%,35%)" stroke-width="0.02223"></path>
<path d="M0.477 0.071 Q0.239 0.179 0.398 0.318" stroke="hsl(180.0,100%,35%)" stroke-width="0.00968"></path>
<path d="M0.477 0.071 Q0.356 0.447 1.064 0.589" stroke="hsl(180.0,100%,35%)" stroke-width="0.00143"></path>
<path d="M0.477 0.071 Q0.752 0.109 0.887 -0.017" stroke="hsl(180.0,100%,35%)" stroke-width="0.00072"></path>
<path d="M0.477 0.071 Q-0.062 0.270 0.209 0.577" stroke="hsl(180.0,100%,35%)" stroke-width="0.00072"></path>
<path d="M0.477 0.071 Q0.824 0.369 1.481 0.265" stroke="hsl(180.0,100%,35%)" stroke-width="0.00466"></path>
<path d="M0.477 0.071 Q0.281 0.358 0.799 0.517" stroke="hsl(180.0,100%,35%)" stroke-width="0.00143"></path>
<path d="M0.477 0.071 Q0.388 0.265 0.748 0.351" stroke="hsl(180.0,100%,35%)" stroke-width="0.00036"></path>
<path d="M0.477 0.071 Q0.715 0.126 0.876 0.022" stroke="hsl(180.0,100%,35%)" stroke-width="0.00143"></path>
<path d="M0.477 0.071 Q0.330 0.639 1.407 0.836" stroke="hsl(180.0,100%,35%)" stroke-width="0.00323"></path>
<path d="M0.477 0.071 Q0.866 -0.069 0.679 -0.289" stroke="hsl(180.0,100%,35%)" stroke-width="0.00251"></path>
<path d="M0.477 0.071 Q0.562 0.151 0.737 0.127" stroke="hsl(180.0,100%,35%)" stroke-width="0.00036"></path>
<path d="M0.477 0.071 Q0.185 0.264 0.499 0.449" stroke="hsl(180.0,100%,35%)" stroke-width="0.00036"></path>
<path d="M0.477 0.071 Q0.701 0.669 1.918 0.691" stroke="hsl(180.0,100%,35%)" stroke-width="0.00179"></path>
<path d="M0.477 0.071 Q0.493 0.097 0.549 0.095" stroke="hsl(180.0,100%,35%)" stroke-width="0.00072"></path>
<path d="M0.477 0.071 Q0.276 0.087 0.265 0.189" stroke="hsl(180.0,100%,35%)" stroke-width="0.00430"></path>
<path d="M0.477 0.071 Q0.540 0.117 0.645 0.097" stroke="hsl(180.0,100%,35%)" stroke-width="0.00036"></path>
<path d="M0.477 0.071 Q0.481 0.095 0.529 0.098" stroke="hsl(180.0,100%,35%)" stroke-width="0.00036"></path>
<path d="M0.477 0.071 Q0.056 0.366 0.540 0.637" stroke="hsl(180.0,100%,35%)" stroke-width="0.00036"></path>
<path d="M0.477 0.071 Q0.776 -0.077 0.554 -0.255" stroke="hsl(180.0,100%,35%)" stroke-width="0.00036"></path>
<path d="M0.768 0.214 Q0.499 0.192 0.398 0.318" stroke="hsl(180.0,100%,35%)" stroke-width="0.00717"></path>
<path d="M0.768 0.214 Q0.623 0.121 0.410 0.171" stroke="hsl(180.0,100%,35%)" stroke-width="0.01076"></path>
<path d="M0.768 0.214 Q0.737 0.084 0.477 0.071" stroke="hsl(180.0,100%,35%)" stroke-width="0.00287"></path>
<path d="M0.768 0.214 Q1.084 0.382 1.481 0.265" stroke="hsl(180.0,100%,35%)" stroke-width="0.00036"></path>
<path d="M0.768 0.214 Q0.788 0.678 1.698 0.770" stroke="hsl(180.0,100%,35%)" stroke-width="0.00036"></path>
<path d="M0.768 0.214 Q0.961 0.682 1.918 0.691" stroke="hsl(180.0,100%,35%)" stroke-width="0.00036"></path>
<path d="M0.768 0.214 Q0.616 0.460 1.064 0.589" stroke="hsl(180.0,100%,35%)" stroke-width="0.00072"></path>
<path d="M0.768 0.214 Q1.246 0.472 1.856 0.295" stroke="hsl(180.0,100%,35%)" stroke-width="0.00072"></path>
<path d="M0.768 0.214 Q0.842 0.401 1.223 0.406" stroke="hsl(180.0,100%,35%)" stroke-width="0.00072"></path>
<path d="M0.768 0.214 Q0.648 0.278 0.748 0.351" stroke="hsl(180.0,100%,35%)" stroke-width="0.00036"></path>
<path d="M0.768 0.214 Q0.316 0.380 0.540 0.637" stroke="hsl(180.0,100%,35%)" stroke-width="0.00036"></path>
<path d="M1.223 0.406 Q1.150 0.219 0.768 0.214" stroke="hsl(180.0,100%,35%)" stroke-width="0.00681"></path>
<path d="M1.223 0.406 Q0.997 0.465 1.064 0.589" stroke="hsl(180.0,100%,35%)" stroke-width="0.00108"></path>
<path d="M1.223 0.406 Q0.922 0.377 0.799 0.517" stroke="hsl(180.0,100%,35%)" stroke-width="0.00430"></path>
<path d="M1.223 0.406 Q-0.397 1.410 1.206 2.421" stroke="hsl(180.0,100%,35%)" stroke-width="0.00036"></path>
<path d="M1.223 0.406 Q0.881 0.197 0.398 0.318" stroke="hsl(180.0,100%,35%)" stroke-width="0.00143"></path>
<path d="M1.223 0.406 Q1.362 0.418 1.416 0.353" stroke="hsl(180.0,100%,35%)" stroke-width="0.00036"></path>
<path d="M1.223 0.406 Q0.827 0.283 0.499 0.449" stroke="hsl(180.0,100%,35%)" stroke-width="0.00072"></path>
<path d="M1.223 0.406 Q0.697 0.385 0.540 0.637" stroke="hsl(180.0,100%,35%)" stroke-width="0.00036"></path>
<path d="M1.032 0.761 Q0.990 0.660 0.784 0.658" stroke="hsl(0.0,100%,35%)" stroke-width="0.00108"></path>
<path d="M1.032 0.761 Q1.186 0.681 1.064 0.589" stroke="hsl(0.0,100%,35%)" stroke-width="0.00036"></path>
<path d="M1.032 0.761 Q0.886 0.601 0.540 0.637" stroke="hsl(0.0,100%,35%)" stroke-width="0.00179"></path>
<path d="M1.032 0.761 Q0.767 0.504 0.209 0.577" stroke="hsl(0.0,100%,35%)" stroke-width="0.00287"></path>
<path d="M1.032 0.761 Q1.111 0.593 0.799 0.517" stroke="hsl(0.0,100%,35%)" stroke-width="0.00753"></path>
<path d="M1.032 0.761 Q1.015 0.498 0.499 0.449" stroke="hsl(0.0,100%,35%)" stroke-width="0.00036"></path>
<path d="M1.032 0.761 Q1.307 0.305 0.477 0.071" stroke="hsl(0.0,100%,35%)" stroke-width="0.00036"></path>
<path d="M0.799 0.517 Q0.456 0.429 0.209 0.577" stroke="hsl(0.0,100%,35%)" stroke-width="0.11152"></path>
<path d="M0.799 0.517 Q0.995 0.229 0.477 0.071" stroke="hsl(0.0,100%,35%)" stroke-width="0.00502"></path>
<path d="M0.799 0.517 Q0.720 0.686 1.032 0.761" stroke="hsl(0.0,100%,35%)" stroke-width="0.00036"></path>
<path d="M0.799 0.517 Q1.342 0.528 1.481 0.265" stroke="hsl(0.0,100%,35%)" stroke-width="0.00215"></path>
<path d="M0.799 0.517 Q0.574 0.525 0.540 0.637" stroke="hsl(0.0,100%,35%)" stroke-width="0.00394"></path>
<path d="M0.799 0.517 Q1.136 0.291 0.768 0.076" stroke="hsl(0.0,100%,35%)" stroke-width="0.00036"></path>
<path d="M0.799 0.517 Q0.981 0.527 1.040 0.440" stroke="hsl(0.0,100%,35%)" stroke-width="0.00036"></path>
<path d="M0.799 0.517 Q1.027 0.359 0.768 0.214" stroke="hsl(0.0,100%,35%)" stroke-width="0.00036"></path>
<path d="M0.799 0.517 Q0.679 0.585 0.784 0.658" stroke="hsl(0.0,100%,35%)" stroke-width="0.00072"></path>
<path d="M0.799 0.517 Q0.758 0.338 0.398 0.318" stroke="hsl(0.0,100%,35%)" stroke-width="0.00072"></path>
<path d="M0.799 0.517 Q0.436 0.598 0.514 0.793" stroke="hsl(0.0,100%,35%)" stroke-width="0.00036"></path>
<path d="M0.799 0.517 Q0.881 0.266 0.410 0.171" stroke="hsl(0.0,100%,35%)" stroke-width="0.00036"></path>
<path d="M0.209 0.577 Q0.627 0.754 1.064 0.589" stroke="hsl(0.0,100%,35%)" stroke-width="0.01147"></path>
<path d="M0.209 0.577 Q0.552 0.665 0.799 0.517" stroke="hsl(0.0,100%,35%)" stroke-width="0.06167"></path>
<path d="M0.209 0.577 Q0.779 0.507 0.768 0.214" stroke="hsl(0.0,100%,35%)" stroke-width="0.00215"></path>
<path d="M0.209 0.577 Q0.327 0.673 0.540 0.637" stroke="hsl(0.0,100%,35%)" stroke-width="0.00753"></path>
<path d="M0.209 0.577 Q0.432 0.733 0.784 0.658" stroke="hsl(0.0,100%,35%)" stroke-width="0.00287"></path>
<path d="M0.209 0.577 Q0.473 0.834 1.032 0.761" stroke="hsl(0.0,100%,35%)" stroke-width="0.00108"></path>
<path d="M0.209 0.577 Q1.086 0.811 1.734 0.434" stroke="hsl(0.0,100%,35%)" stroke-width="0.00036"></path>
<path d="M0.209 0.577 Q0.748 0.378 0.477 0.071" stroke="hsl(0.0,100%,35%)" stroke-width="0.00179"></path>
<path d="M0.209 0.577 Q0.456 0.571 0.499 0.449" stroke="hsl(0.0,100%,35%)" stroke-width="0.00251"></path>
<path d="M0.209 0.577 Q0.281 0.654 0.447 0.636" stroke="hsl(0.0,100%,35%)" stroke-width="0.00036"></path>
<path d="M0.209 0.577 Q0.634 0.414 0.410 0.171" stroke="hsl(0.0,100%,35%)" stroke-width="0.00036"></path>
<path d="M0.209 0.577 Q1.095 0.676 1.481 0.265" stroke="hsl(0.0,100%,35%)" stroke-width="0.00036"></path>
<path d="M0.526 0.417 Q0.583 0.522 0.799 0.517" stroke="hsl(0.0,100%,35%)" stroke-width="0.00072"></path>
<path d="M0.526 0.417 Q0.240 0.434 0.209 0.577" stroke="hsl(0.0,100%,35%)" stroke-width="0.00502"></path>
<path d="M0.526 0.417 Q0.358 0.530 0.540 0.637" stroke="hsl(0.0,100%,35%)" stroke-width="0.00036"></path>
<path d="M0.526 0.417 Q0.487 0.428 0.499 0.449" stroke="hsl(0.0,100%,35%)" stroke-width="0.00036"></path>
<path d="M1.624 0.622 Q1.716 0.716 1.918 0.691" stroke="hsl(180.0,100%,35%)" stroke-width="0.00036"></path>
<path d="M1.624 0.622 Q1.492 0.117 0.477 0.071" stroke="hsl(180.0,100%,35%)" stroke-width="0.00036"></path>
<path d="M1.624 0.622 Q1.633 0.178 0.768 0.076" stroke="hsl(180.0,100%,35%)" stroke-width="0.00036"></path>
<path d="M1.918 0.691 Q1.725 0.222 0.768 0.214" stroke="hsl(180.0,100%,35%)" stroke-width="0.00072"></path>
<path d="M1.918 0.691 Q1.694 0.092 0.477 0.071" stroke="hsl(180.0,100%,35%)" stroke-width="0.00036"></path>
<path d="M1.918 0.691 Q2.032 0.526 1.734 0.434" stroke="hsl(180.0,100%,35%)" stroke-width="0.00036"></path>
<path d="M1.918 0.691 Q1.580 0.129 0.410 0.171" stroke="hsl(180.0,100%,35%)" stroke-width="0.00036"></path>
<path d="M1.918 0.691 Q1.456 0.201 0.398 0.318" stroke="hsl(180.0,100%,35%)" stroke-width="0.00036"></path>
<path d="M0.768 0.076 Q0.627 0.015 0.477 0.071" stroke="hsl(180.0,100%,35%)" stroke-width="0.01219"></path>
<path d="M0.768 0.076 Q0.431 0.303 0.799 0.517" stroke="hsl(180.0,100%,35%)" stroke-width="0.00717"></path>
<path d="M0.768 0.076 Q0.480 0.584 1.407 0.836" stroke="hsl(180.0,100%,35%)" stroke-width="0.00143"></path>
<path d="M0.768 0.076 Q0.513 0.052 0.410 0.171" stroke="hsl(180.0,100%,35%)" stroke-width="0.00108"></path>
<path d="M0.768 0.076 Q0.582 0.484 1.336 0.664" stroke="hsl(180.0,100%,35%)" stroke-width="0.00036"></path>
<path d="M0.768 0.076 Q0.335 0.209 0.499 0.449" stroke="hsl(180.0,100%,35%)" stroke-width="0.00036"></path>
<path d="M0.768 0.076 Q1.137 0.403 1.856 0.295" stroke="hsl(180.0,100%,35%)" stroke-width="0.00036"></path>
<path d="M0.768 0.076 Q0.658 0.145 0.768 0.214" stroke="hsl(180.0,100%,35%)" stroke-width="0.00036"></path>
<path d="M1.734 0.434 Q1.397 0.001 0.477 0.071" stroke="hsl(180.0,100%,35%)" stroke-width="0.00072"></path>
<path d="M1.734 0.434 Q1.275 0.377 1.064 0.589" stroke="hsl(180.0,100%,35%)" stroke-width="0.00036"></path>
<path d="M1.734 0.434 Q0.857 0.201 0.209 0.577" stroke="hsl(180.0,100%,35%)" stroke-width="0.00179"></path>
<path d="M1.734 0.434 Q1.200 0.289 0.799 0.517" stroke="hsl(180.0,100%,35%)" stroke-width="0.00143"></path>
<path d="M1.734 0.434 Q1.743 0.299 1.481 0.265" stroke="hsl(180.0,100%,35%)" stroke-width="0.00036"></path>
<path d="M1.734 0.434 Q1.105 0.195 0.499 0.449" stroke="hsl(180.0,100%,35%)" stroke-width="0.00036"></path>
<path d="M1.734 0.434 Q1.428 0.131 0.768 0.214" stroke="hsl(180.0,100%,35%)" stroke-width="0.00036"></path>
<path d="M1.734 0.434 Q1.159 0.109 0.398 0.318" stroke="hsl(180.0,100%,35%)" stroke-width="0.00072"></path>
<path d="M0.410 0.171 Q0.555 0.264 0.768 0.214" stroke="hsl(180.0,100%,35%)" stroke-width="0.01004"></path>
<path d="M0.410 0.171 Q0.286 0.242 0.398 0.318" stroke="hsl(180.0,100%,35%)" stroke-width="0.01255"></path>
<path d="M0.410 0.171 Q1.033 0.522 1.856 0.295" stroke="hsl(180.0,100%,35%)" stroke-width="0.00394"></path>
<path d="M0.410 0.171 Q0.524 0.134 0.477 0.071" stroke="hsl(180.0,100%,35%)" stroke-width="0.00610"></path>
<path d="M0.410 0.171 Q-0.016 0.334 0.209 0.577" stroke="hsl(180.0,100%,35%)" stroke-width="0.00108"></path>
<path d="M0.410 0.171 Q0.328 0.422 0.799 0.517" stroke="hsl(180.0,100%,35%)" stroke-width="0.00036"></path>
<path d="M0.410 0.171 Q0.748 0.733 1.918 0.691" stroke="hsl(180.0,100%,35%)" stroke-width="0.00036"></path>
<path d="M0.398 0.318 Q0.754 0.274 0.746 0.091" stroke="hsl(180.0,100%,35%)" stroke-width="0.00036"></path>
<path d="M0.398 0.318 Q0.667 0.340 0.768 0.214" stroke="hsl(180.0,100%,35%)" stroke-width="0.00179"></path>
<path d="M0.398 0.318 Q0.440 0.498 0.799 0.517" stroke="hsl(180.0,100%,35%)" stroke-width="0.00179"></path>
<path d="M0.398 0.318 Q0.741 0.527 1.223 0.406" stroke="hsl(180.0,100%,35%)" stroke-width="0.00143"></path>
<path d="M0.398 0.318 Q0.522 0.247 0.410 0.171" stroke="hsl(180.0,100%,35%)" stroke-width="0.00251"></path>
<path d="M0.398 0.318 Q0.636 0.210 0.477 0.071" stroke="hsl(180.0,100%,35%)" stroke-width="0.00108"></path>
<path d="M0.398 0.318 Q0.344 0.404 0.499 0.449" stroke="hsl(180.0,100%,35%)" stroke-width="0.00036"></path>
<path d="M0.499 0.449 Q0.670 0.632 1.064 0.589" stroke="hsl(0.0,100%,35%)" stroke-width="0.00072"></path>
<path d="M0.499 0.449 Q0.251 0.455 0.209 0.577" stroke="hsl(0.0,100%,35%)" stroke-width="0.00717"></path>
<path d="M0.499 0.449 Q0.822 0.385 0.768 0.214" stroke="hsl(0.0,100%,35%)" stroke-width="0.00072"></path>
<path d="M0.499 0.449 Q0.474 0.611 0.784 0.658" stroke="hsl(0.0,100%,35%)" stroke-width="0.00036"></path>
<path d="M0.499 0.449 Q1.005 0.441 1.101 0.193" stroke="hsl(0.0,100%,35%)" stroke-width="0.00072"></path>
<path d="M0.499 0.449 Q0.595 0.543 0.799 0.517" stroke="hsl(0.0,100%,35%)" stroke-width="0.00359"></path>
<path d="M0.499 0.449 Q0.516 0.712 1.032 0.761" stroke="hsl(0.0,100%,35%)" stroke-width="0.00036"></path>
<path d="M0.499 0.449 Q0.791 0.255 0.477 0.071" stroke="hsl(0.0,100%,35%)" stroke-width="0.00036"></path>
<path d="M0.499 0.449 Q0.370 0.551 0.540 0.637" stroke="hsl(0.0,100%,35%)" stroke-width="0.00036"></path>
<path d="M0.499 0.449 Q0.538 0.439 0.526 0.417" stroke="hsl(0.0,100%,35%)" stroke-width="0.00036"></path>
<path d="M0.746 0.091 Q0.390 0.135 0.398 0.318" stroke="hsl(180.0,100%,35%)" stroke-width="0.00251"></path>
<path d="M0.746 0.091 Q0.628 0.027 0.477 0.071" stroke="hsl(180.0,100%,35%)" stroke-width="0.00323"></path>
<path d="M0.746 0.091 Q0.659 0.157 0.768 0.214" stroke="hsl(180.0,100%,35%)" stroke-width="0.00072"></path>
<path d="M1.336 0.664 Q1.770 0.056 0.679 -0.289" stroke="hsl(180.0,100%,35%)" stroke-width="0.00108"></path>
<path d="M1.336 0.664 Q1.235 0.764 1.407 0.836" stroke="hsl(180.0,100%,35%)" stroke-width="0.00215"></path>
<path d="M1.336 0.664 Q1.382 0.196 0.477 0.071" stroke="hsl(180.0,100%,35%)" stroke-width="0.00108"></path>
<path d="M1.336 0.664 Q1.185 0.483 0.799 0.517" stroke="hsl(180.0,100%,35%)" stroke-width="0.00036"></path>
<path d="M1.407 0.836 Q1.554 0.267 0.477 0.071" stroke="hsl(180.0,100%,35%)" stroke-width="0.01183"></path>
<path d="M1.407 0.836 Q1.294 0.881 1.358 0.947" stroke="hsl(180.0,100%,35%)" stroke-width="0.00036"></path>
<path d="M1.407 0.836 Q1.509 0.736 1.336 0.664" stroke="hsl(180.0,100%,35%)" stroke-width="0.00502"></path>
<path d="M1.407 0.836 Q1.586 0.397 0.768 0.214" stroke="hsl(180.0,100%,35%)" stroke-width="0.00072"></path>
<path d="M1.407 0.836 Q1.943 0.128 0.679 -0.289" stroke="hsl(180.0,100%,35%)" stroke-width="0.00143"></path>
<path d="M1.407 0.836 Q1.358 0.555 0.799 0.517" stroke="hsl(180.0,100%,35%)" stroke-width="0.00251"></path>
<path d="M1.407 0.836 Q1.440 0.304 0.410 0.171" stroke="hsl(180.0,100%,35%)" stroke-width="0.00036"></path>
<path d="M1.407 0.836 Q1.695 0.328 0.768 0.076" stroke="hsl(180.0,100%,35%)" stroke-width="0.00036"></path>
<path d="M0.737 0.127 Q0.652 0.046 0.477 0.071" stroke="hsl(180.0,100%,35%)" stroke-width="0.00215"></path>
<path d="M0.737 0.127 Q0.683 0.176 0.768 0.214" stroke="hsl(180.0,100%,35%)" stroke-width="0.00215"></path>
<path d="M0.737 0.127 Q0.538 0.083 0.410 0.171" stroke="hsl(180.0,100%,35%)" stroke-width="0.00072"></path>
<path d="M1.206 2.421 Q2.753 1.230 0.768 0.214" stroke="hsl(180.0,100%,35%)" stroke-width="0.00143"></path>
<path d="M1.206 2.421 Q3.068 1.398 1.481 0.265" stroke="hsl(180.0,100%,35%)" stroke-width="0.00108"></path>
<path d="M1.206 2.421 Q2.722 1.100 0.477 0.071" stroke="hsl(180.0,100%,35%)" stroke-width="0.00072"></path>
<path d="M1.206 2.421 Q3.231 1.488 1.856 0.295" stroke="hsl(180.0,100%,35%)" stroke-width="0.00036"></path>
<path d="M1.206 2.421 Q2.960 1.155 0.876 0.022" stroke="hsl(180.0,100%,35%)" stroke-width="0.00036"></path>
<path d="M1.206 2.421 Q2.182 1.299 0.209 0.577" stroke="hsl(180.0,100%,35%)" stroke-width="0.00036"></path>
<path d="M1.206 2.421 Q2.469 1.283 0.526 0.417" stroke="hsl(180.0,100%,35%)" stroke-width="0.00036"></path>
<path d="M1.206 2.421 Q2.525 1.388 0.799 0.517" stroke="hsl(180.0,100%,35%)" stroke-width="0.00036"></path>
<path d="M0.887 -0.017 Q0.643 0.074 0.768 0.214" stroke="hsl(180.0,100%,35%)" stroke-width="0.00036"></path>
<path d="M0.887 -0.017 Q0.612 -0.055 0.477 0.071" stroke="hsl(180.0,100%,35%)" stroke-width="0.00143"></path>
<path d="M0.887 -0.017 Q0.850 0.000 0.876 0.022" stroke="hsl(180.0,100%,35%)" stroke-width="0.00072"></path>
<path d="M0.887 -0.017 Q0.411 -0.038 0.265 0.189" stroke="hsl(180.0,100%,35%)" stroke-width="0.00036"></path>
<path d="M1.481 0.265 Q1.166 0.097 0.768 0.214" stroke="hsl(180.0,100%,35%)" stroke-width="0.00610"></path>
<path d="M1.481 0.265 Q1.135 -0.033 0.477 0.071" stroke="hsl(180.0,100%,35%)" stroke-width="0.00108"></path>
<path d="M1.481 0.265 Q0.939 0.255 0.799 0.517" stroke="hsl(180.0,100%,35%)" stroke-width="0.00323"></path>
<path d="M1.481 0.265 Q0.595 0.167 0.209 0.577" stroke="hsl(180.0,100%,35%)" stroke-width="0.00143"></path>
<path d="M1.481 0.265 Q1.473 0.400 1.734 0.434" stroke="hsl(180.0,100%,35%)" stroke-width="0.00036"></path>
<path d="M0.748 0.351 Q0.868 0.286 0.768 0.214" stroke="hsl(180.0,100%,35%)" stroke-width="0.00681"></path>
<path d="M0.748 0.351 Q0.298 0.356 0.209 0.577" stroke="hsl(180.0,100%,35%)" stroke-width="0.00323"></path>
<path d="M0.748 0.351 Q0.837 0.157 0.477 0.071" stroke="hsl(180.0,100%,35%)" stroke-width="0.00681"></path>
<path d="M0.748 0.351 Q0.716 0.533 1.064 0.589" stroke="hsl(180.0,100%,35%)" stroke-width="0.00036"></path>
<path d="M0.748 0.351 Q0.641 0.444 0.799 0.517" stroke="hsl(180.0,100%,35%)" stroke-width="0.00143"></path>
<path d="M0.748 0.351 Q1.347 0.545 1.856 0.295" stroke="hsl(180.0,100%,35%)" stroke-width="0.00072"></path>
<path d="M0.876 0.022 Q0.637 -0.033 0.477 0.071" stroke="hsl(180.0,100%,35%)" stroke-width="0.01398"></path>
<path d="M0.876 0.022 Q0.669 0.096 0.768 0.214" stroke="hsl(180.0,100%,35%)" stroke-width="0.00681"></path>
<path d="M0.876 0.022 Q0.400 0.075 0.398 0.318" stroke="hsl(180.0,100%,35%)" stroke-width="0.00072"></path>
<path d="M0.876 0.022 Q0.524 0.003 0.410 0.171" stroke="hsl(180.0,100%,35%)" stroke-width="0.00466"></path>
<path d="M0.876 0.022 Q0.321 0.322 0.784 0.658" stroke="hsl(180.0,100%,35%)" stroke-width="0.00072"></path>
<path d="M0.876 0.022 Q0.516 0.343 1.064 0.589" stroke="hsl(180.0,100%,35%)" stroke-width="0.00036"></path>
<path d="M0.876 0.022 Q0.098 0.166 0.209 0.577" stroke="hsl(180.0,100%,35%)" stroke-width="0.00896"></path>
<path d="M0.876 0.022 Q0.441 0.254 0.799 0.517" stroke="hsl(180.0,100%,35%)" stroke-width="0.00215"></path>
<path d="M0.876 0.022 Q0.216 0.262 0.540 0.637" stroke="hsl(180.0,100%,35%)" stroke-width="0.00072"></path>
<path d="M0.876 0.022 Q0.975 0.400 1.734 0.434" stroke="hsl(180.0,100%,35%)" stroke-width="0.00072"></path>
<path d="M0.876 0.022 Q0.756 0.031 0.746 0.091" stroke="hsl(180.0,100%,35%)" stroke-width="0.00036"></path>
<path d="M0.265 0.189 Q0.497 0.302 0.768 0.214" stroke="hsl(180.0,100%,35%)" stroke-width="0.00072"></path>
<path d="M0.265 0.189 Q0.466 0.172 0.477 0.071" stroke="hsl(180.0,100%,35%)" stroke-width="0.00108"></path>
<path d="M0.265 0.189 Q0.352 0.209 0.410 0.171" stroke="hsl(180.0,100%,35%)" stroke-width="0.00072"></path>
<path d="M1.698 0.770 Q1.678 0.306 0.768 0.214" stroke="hsl(180.0,100%,35%)" stroke-width="0.00179"></path>
<path d="M1.698 0.770 Q1.679 0.222 0.605 0.111" stroke="hsl(180.0,100%,35%)" stroke-width="0.00036"></path>
<path d="M1.698 0.770 Q1.647 0.176 0.477 0.071" stroke="hsl(180.0,100%,35%)" stroke-width="0.00072"></path>
<path d="M1.698 0.770 Q1.451 0.464 0.799 0.517" stroke="hsl(180.0,100%,35%)" stroke-width="0.00036"></path>
<path d="M1.698 0.770 Q1.533 0.213 0.410 0.171" stroke="hsl(180.0,100%,35%)" stroke-width="0.00072"></path>
<path d="M1.698 0.770 Q1.872 0.775 1.918 0.691" stroke="hsl(180.0,100%,35%)" stroke-width="0.00143"></path>
<path d="M1.698 0.770 Q1.885 0.232 0.876 0.022" stroke="hsl(180.0,100%,35%)" stroke-width="0.00036"></path>
<path d="M1.856 0.295 Q1.377 0.037 0.768 0.214" stroke="hsl(180.0,100%,35%)" stroke-width="0.00215"></path>
<path d="M1.856 0.295 Q1.693 0.205 1.481 0.265" stroke="hsl(180.0,100%,35%)" stroke-width="0.00502"></path>
<path d="M1.856 0.295 Q1.150 0.195 0.799 0.517" stroke="hsl(180.0,100%,35%)" stroke-width="0.00036"></path>
<path d="M1.856 0.295 Q1.232 -0.056 0.410 0.171" stroke="hsl(180.0,100%,35%)" stroke-width="0.00036"></path>
<path d="M1.856 0.295 Q1.346 -0.093 0.477 0.071" stroke="hsl(180.0,100%,35%)" stroke-width="0.00072"></path>
<path d="M1.856 0.295 Q1.570 0.506 1.918 0.691" stroke="hsl(180.0,100%,35%)" stroke-width="0.00036"></path>
<path d="M1.856 0.295 Q1.684 0.341 1.734 0.434" stroke="hsl(180.0,100%,35%)" stroke-width="0.00108"></path>
<path d="M1.856 0.295 Q0.807 0.107 0.209 0.577" stroke="hsl(180.0,100%,35%)" stroke-width="0.00072"></path>
<path d="M1.856 0.295 Q1.584 -0.037 0.876 0.022" stroke="hsl(180.0,100%,35%)" stroke-width="0.00036"></path>
<path d="M1.856 0.295 Q1.451 0.224 1.223 0.406" stroke="hsl(180.0,100%,35%)" stroke-width="0.00036"></path>
<path d="M1.856 0.295 Q1.109 0.015 0.398 0.318" stroke="hsl(180.0,100%,35%)" stroke-width="0.00108"></path>
<path d="M0.916 0.108 Q0.727 0.001 0.477 0.071" stroke="hsl(180.0,100%,35%)" stroke-width="0.00215"></path>
<path d="M0.916 0.108 Q0.758 0.131 0.768 0.214" stroke="hsl(180.0,100%,35%)" stroke-width="0.00143"></path>
<path d="M0.916 0.108 Q0.965 0.057 0.876 0.022" stroke="hsl(180.0,100%,35%)" stroke-width="0.00072"></path>
<path d="M0.942 0.295 Q0.920 0.219 0.768 0.214" stroke="hsl(180.0,100%,35%)" stroke-width="0.00143"></path>
<path d="M0.942 0.295 Q0.651 0.198 0.398 0.318" stroke="hsl(180.0,100%,35%)" stroke-width="0.00072"></path>
<path d="M0.942 0.295 Q0.693 0.377 0.799 0.517" stroke="hsl(180.0,100%,35%)" stroke-width="0.00036"></path>
<path d="M0.942 0.295 Q1.127 0.145 0.876 0.022" stroke="hsl(180.0,100%,35%)" stroke-width="0.00036"></path>
<path d="M0.515 0.281 Q0.696 0.298 0.768 0.214" stroke="hsl(180.0,100%,35%)" stroke-width="0.00072"></path>
<path d="M0.515 0.281 Q0.696 0.214 0.605 0.111" stroke="hsl(180.0,100%,35%)" stroke-width="0.00072"></path>
<path d="M0.515 0.281 Q0.664 0.168 0.477 0.071" stroke="hsl(180.0,100%,35%)" stroke-width="0.00215"></path>
<path d="M0.515 0.281 Q0.576 0.363 0.748 0.351" stroke="hsl(180.0,100%,35%)" stroke-width="0.00072"></path>
<path d="M0.515 0.281 Q0.550 0.205 0.410 0.171" stroke="hsl(180.0,100%,35%)" stroke-width="0.00036"></path>
<path d="M0.605 0.111 Q0.604 0.195 0.768 0.214" stroke="hsl(180.0,100%,35%)" stroke-width="0.00287"></path>
<path d="M0.605 0.111 Q0.459 0.102 0.410 0.171" stroke="hsl(180.0,100%,35%)" stroke-width="0.00179"></path>
<path d="M0.605 0.111 Q0.811 0.120 0.876 0.022" stroke="hsl(180.0,100%,35%)" stroke-width="0.00036"></path>
<path d="M0.605 0.111 Q0.257 0.420 0.784 0.658" stroke="hsl(180.0,100%,35%)" stroke-width="0.00036"></path>
<path d="M0.605 0.111 Q0.573 0.065 0.477 0.071" stroke="hsl(180.0,100%,35%)" stroke-width="0.00072"></path>
<path d="M1.355 0.135 Q0.771 0.215 0.799 0.517" stroke="hsl(0.0,100%,35%)" stroke-width="0.00036"></path>
<path d="M1.355 0.135 Q1.436 0.099 1.384 0.052" stroke="hsl(0.0,100%,35%)" stroke-width="0.00036"></path>
<path d="M1.355 0.135 Q0.428 0.127 0.209 0.577" stroke="hsl(0.0,100%,35%)" stroke-width="0.00036"></path>
<path d="M0.226 0.224 Q0.474 0.197 0.477 0.071" stroke="hsl(180.0,100%,35%)" stroke-width="0.00036"></path>
<path d="M0.226 0.224 Q0.278 0.485 0.799 0.517" stroke="hsl(180.0,100%,35%)" stroke-width="0.00036"></path>
<path d="M0.226 0.224 Q0.360 0.234 0.410 0.171" stroke="hsl(180.0,100%,35%)" stroke-width="0.00036"></path>
<path d="M1.878 0.543 Q1.556 0.026 0.477 0.071" stroke="hsl(180.0,100%,35%)" stroke-width="0.00072"></path>
<path d="M1.878 0.543 Q1.587 0.156 0.768 0.214" stroke="hsl(180.0,100%,35%)" stroke-width="0.00072"></path>
<path d="M1.878 0.543 Q1.780 0.625 1.918 0.691" stroke="hsl(180.0,100%,35%)" stroke-width="0.00072"></path>
<path d="M1.878 0.543 Q1.359 0.314 0.799 0.517" stroke="hsl(180.0,100%,35%)" stroke-width="0.00072"></path>
<path d="M0.699 -0.560 Q0.115 -0.160 0.768 0.214" stroke="hsl(180.0,100%,35%)" stroke-width="0.00143"></path>
<path d="M0.699 -0.560 Q-0.208 -0.096 0.499 0.449" stroke="hsl(180.0,100%,35%)" stroke-width="0.00036"></path>
<path d="M0.699 -0.560 Q0.083 -0.289 0.477 0.071" stroke="hsl(180.0,100%,35%)" stroke-width="0.00072"></path>
<path d="M0.699 -0.560 Q-0.031 -0.253 0.410 0.171" stroke="hsl(180.0,100%,35%)" stroke-width="0.00036"></path>
<path d="M0.699 -0.560 Q-0.154 -0.181 0.398 0.318" stroke="hsl(180.0,100%,35%)" stroke-width="0.00036"></path>
<path d="M1.202 0.268 Q1.212 0.210 1.101 0.193" stroke="hsl(180.0,100%,35%)" stroke-width="0.00143"></path>
<path d="M1.202 0.268 Q0.458 0.224 0.209 0.577" stroke="hsl(180.0,100%,35%)" stroke-width="0.00036"></path>
<path d="M1.202 0.268 Q0.706 0.218 0.499 0.449" stroke="hsl(180.0,100%,35%)" stroke-width="0.00036"></path>
<path d="M1.202 0.268 Q1.029 0.154 0.768 0.214" stroke="hsl(180.0,100%,35%)" stroke-width="0.00143"></path>
<path d="M1.202 0.268 Q0.998 0.024 0.477 0.071" stroke="hsl(180.0,100%,35%)" stroke-width="0.00287"></path>
<path d="M1.202 0.268 Q1.236 0.080 0.876 0.022" stroke="hsl(180.0,100%,35%)" stroke-width="0.00036"></path>
<path d="M1.202 0.268 Q0.884 0.061 0.410 0.171" stroke="hsl(180.0,100%,35%)" stroke-width="0.00036"></path>
</g>
<text x="0.540" y="0.618" font-size="0.036865" fill="hsl(0.0,100%,20%)">amaiorano</text>
<text x="1.064" y="0.571" font-size="0.035031" fill="hsl(0.0,100%,20%)">bclayton</text>
<text x="0.784" y="0.641" font-size="0.035176" fill="hsl(0.0,100%,20%)">rharrison</text>
<text x="0.477" y="0.036" font-size="0.068451" fill="hsl(180.0,100%,20%)">cwallez</text>
<text x="0.768" y="0.186" font-size="0.055800" fill="hsl(180.0,100%,20%)">enga</text>
<text x="1.223" y="0.394" font-size="0.022965" fill="hsl(180.0,100%,20%)">bsheedy</text>
<text x="1.032" y="0.750" font-size="0.022064" fill="hsl(0.0,100%,20%)">chouinard</text>
<text x="0.799" y="0.475" font-size="0.083472" fill="hsl(0.0,100%,20%)">dsinclair</text>
<text x="0.209" y="0.532" font-size="0.090244" fill="hsl(0.0,100%,20%)">jrprice</text>
<text x="0.514" y="0.791" font-size="0.004504" fill="hsl(0.0,100%,20%)">kbr</text>
<text x="0.526" y="0.410" font-size="0.014594" fill="hsl(0.0,100%,20%)">petermcneeley</text>
<text x="1.624" y="0.620" font-size="0.005516" fill="hsl(180.0,100%,20%)">amir</text>
<text x="1.918" y="0.684" font-size="0.014594" fill="hsl(180.0,100%,20%)">bajones</text>
<text x="0.768" y="0.063" font-size="0.026261" fill="hsl(180.0,100%,20%)">jaswant.panchumarti</text>
<text x="1.734" y="0.426" font-size="0.015923" fill="hsl(180.0,100%,20%)">gman</text>
<text x="0.410" y="0.147" font-size="0.048402" fill="hsl(180.0,100%,20%)">lokokung</text>
<text x="0.398" y="0.300" font-size="0.036589" fill="hsl(180.0,100%,20%)">kainino</text>
<text x="0.499" y="0.437" font-size="0.025076" fill="hsl(0.0,100%,20%)">dneto</text>
<text x="0.746" y="0.084" font-size="0.014242" fill="hsl(180.0,100%,20%)">beaufort.francois</text>
<text x="1.336" y="0.656" font-size="0.016852" fill="hsl(180.0,100%,20%)">bentonian</text>
<text x="0.679" y="-0.295" font-size="0.011916" fill="hsl(180.0,100%,20%)">nexa</text>
<text x="1.407" y="0.821" font-size="0.028838" fill="hsl(180.0,100%,20%)">jimblackler</text>
<text x="0.737" y="0.120" font-size="0.012334" fill="hsl(180.0,100%,20%)">blundell</text>
<text x="1.206" y="2.415" font-size="0.012334" fill="hsl(180.0,100%,20%)">ynovikov</text>
<text x="1.416" y="0.351" font-size="0.003185" fill="hsl(180.0,100%,20%)">chanli</text>
<text x="0.887" y="-0.022" font-size="0.010071" fill="hsl(180.0,100%,20%)">shaobo.yan</text>
<text x="1.481" y="0.252" font-size="0.027210" fill="hsl(180.0,100%,20%)">senorblanco</text>
<text x="0.748" y="0.339" font-size="0.024254" fill="hsl(180.0,100%,20%)">lehoangquyen</text>
<text x="0.876" y="0.004" font-size="0.035748" fill="hsl(180.0,100%,20%)">jiawei.shao</text>
<text x="0.549" y="0.093" font-size="0.004504" fill="hsl(180.0,100%,20%)">fbeaufort</text>
<text x="0.265" y="0.182" font-size="0.014242" fill="hsl(180.0,100%,20%)">geofflang</text>
<text x="0.645" y="0.095" font-size="0.003185" fill="hsl(180.0,100%,20%)">tiszka</text>
<text x="0.529" y="0.097" font-size="0.003185" fill="hsl(180.0,100%,20%)">arthursonzogni</text>
<text x="0.554" y="-0.257" font-size="0.003185" fill="hsl(180.0,100%,20%)">hitawala</text>
<text x="1.101" y="0.189" font-size="0.008426" fill="hsl(180.0,100%,20%)">alanbaker</text>
<text x="1.040" y="0.439" font-size="0.003185" fill="hsl(0.0,100%,20%)">ddoman</text>
<text x="1.698" y="0.764" font-size="0.013131" fill="hsl(180.0,100%,20%)">sunnyps</text>
<text x="1.856" y="0.284" font-size="0.022965" fill="hsl(180.0,100%,20%)">shrekshao</text>
<text x="0.916" y="0.103" font-size="0.011032" fill="hsl(180.0,100%,20%)">hao.x.li</text>
<text x="0.942" y="0.290" font-size="0.009008" fill="hsl(180.0,100%,20%)">hocheung</text>
<text x="0.515" y="0.276" font-size="0.011482" fill="hsl(180.0,100%,20%)">jie.a.chen</text>
<text x="0.605" y="0.104" font-size="0.014242" fill="hsl(180.0,100%,20%)">penghuang</text>
<text x="1.358" y="0.945" font-size="0.003185" fill="hsl(180.0,100%,20%)">vantablack</text>
<text x="1.355" y="0.132" font-size="0.005516" fill="hsl(0.0,100%,20%)">jojwang</text>
<text x="1.384" y="0.051" font-size="0.003185" fill="hsl(0.0,100%,20%)">gavinmak</text>
<text x="0.447" y="0.635" font-size="0.003185" fill="hsl(0.0,100%,20%)">johnstiles</text>
<text x="0.226" y="0.221" font-size="0.005516" fill="hsl(180.0,100%,20%)">nickchavez</text>
<text x="1.878" y="0.538" font-size="0.009008" fill="hsl(180.0,100%,20%)">rafael.cintron</text>
<text x="0.699" y="-0.565" font-size="0.009554" fill="hsl(180.0,100%,20%)">srijan.dhungana6</text>
<text x="1.202" y="0.261" font-size="0.014242" fill="hsl(180.0,100%,20%)">zhaoming.jiang</text>
</svg>
