<svg width="4000" height="2000" viewBox="-0.025 -0.025 2.05 1.05" xmlns="http://www.w3.org/2000/svg">
  <style>
    path {
      fill: none;
      stroke-linecap: round;
      stroke-opacity: 0.4;
    }

    text {
      text-anchor: middle;
      alignment-baseline: hanging;
    }
  </style>
  <g opacity="0.4">
<path d="M1.721 0.283 Q1.836 0.301 1.898 0.249" stroke="hsl(0.0,100%,35%)" stroke-width="0.00612"></path>
<path d="M1.721 0.283 Q1.072 0.282 0.928 0.598" stroke="hsl(0.0,100%,35%)" stroke-width="0.00634"></path>
<path d="M1.721 0.283 Q1.009 0.202 0.695 0.532" stroke="hsl(0.0,100%,35%)" stroke-width="0.00022"></path>
<path d="M1.721 0.283 Q1.198 0.507 1.520 0.811" stroke="hsl(0.0,100%,35%)" stroke-width="0.00175"></path>
<path d="M1.721 0.283 Q1.659 0.186 1.457 0.195" stroke="hsl(0.0,100%,35%)" stroke-width="0.00350"></path>
<path d="M1.721 0.283 Q1.827 0.206 1.701 0.138" stroke="hsl(0.0,100%,35%)" stroke-width="0.01049"></path>
<path d="M1.721 0.283 Q1.115 0.200 0.820 0.478" stroke="hsl(0.0,100%,35%)" stroke-width="0.00022"></path>
<path d="M1.721 0.283 Q1.585 0.350 1.685 0.431" stroke="hsl(0.0,100%,35%)" stroke-width="0.00175"></path>
<path d="M1.721 0.283 Q0.798 0.352 0.731 0.818" stroke="hsl(0.0,100%,35%)" stroke-width="0.00022"></path>
<path d="M1.721 0.283 Q1.600 0.256 1.522 0.310" stroke="hsl(0.0,100%,35%)" stroke-width="0.00066"></path>
<path d="M1.721 0.283 Q1.702 0.414 1.954 0.452" stroke="hsl(0.0,100%,35%)" stroke-width="0.00022"></path>
<path d="M1.721 0.283 Q1.672 0.237 1.573 0.251" stroke="hsl(0.0,100%,35%)" stroke-width="0.00022"></path>
<path d="M1.898 0.249 Q1.783 0.231 1.721 0.283" stroke="hsl(0.0,100%,35%)" stroke-width="0.01246"></path>
<path d="M1.898 0.249 Q1.721 0.134 1.457 0.195" stroke="hsl(0.0,100%,35%)" stroke-width="0.02229"></path>
<path d="M1.898 0.249 Q1.260 0.455 1.520 0.811" stroke="hsl(0.0,100%,35%)" stroke-width="0.01027"></path>
<path d="M1.898 0.249 Q1.711 0.215 1.605 0.299" stroke="hsl(0.0,100%,35%)" stroke-width="0.00612"></path>
<path d="M1.898 0.249 Q1.888 0.154 1.701 0.138" stroke="hsl(0.0,100%,35%)" stroke-width="0.03453"></path>
<path d="M1.898 0.249 Q0.859 0.300 0.731 0.818" stroke="hsl(0.0,100%,35%)" stroke-width="0.00022"></path>
<path d="M1.898 0.249 Q1.176 0.148 0.820 0.478" stroke="hsl(0.0,100%,35%)" stroke-width="0.00066"></path>
<path d="M1.898 0.249 Q1.134 0.230 0.928 0.598" stroke="hsl(0.0,100%,35%)" stroke-width="0.00699"></path>
<path d="M1.898 0.249 Q1.303 0.075 0.832 0.327" stroke="hsl(0.0,100%,35%)" stroke-width="0.00044"></path>
<path d="M1.898 0.249 Q1.357 0.348 1.432 0.634" stroke="hsl(0.0,100%,35%)" stroke-width="0.00022"></path>
<path d="M1.898 0.249 Q1.602 0.246 1.531 0.390" stroke="hsl(0.0,100%,35%)" stroke-width="0.00022"></path>
<path d="M1.898 0.249 Q1.646 0.297 1.685 0.431" stroke="hsl(0.0,100%,35%)" stroke-width="0.00721"></path>
<path d="M0.928 0.598 Q0.865 0.519 0.695 0.532" stroke="hsl(180.0,100%,35%)" stroke-width="0.00022"></path>
<path d="M0.928 0.598 Q1.054 0.823 1.520 0.811" stroke="hsl(180.0,100%,35%)" stroke-width="0.00612"></path>
<path d="M0.928 0.598 Q0.761 0.564 0.657 0.638" stroke="hsl(180.0,100%,35%)" stroke-width="0.01661"></path>
<path d="M0.928 0.598 Q1.577 0.599 1.721 0.283" stroke="hsl(180.0,100%,35%)" stroke-width="0.00131"></path>
<path d="M0.928 0.598 Q0.798 0.639 0.849 0.712" stroke="hsl(180.0,100%,35%)" stroke-width="0.00022"></path>
<path d="M0.928 0.598 Q1.506 0.584 1.605 0.299" stroke="hsl(180.0,100%,35%)" stroke-width="0.00066"></path>
<path d="M0.928 0.598 Q0.971 0.516 0.820 0.478" stroke="hsl(180.0,100%,35%)" stroke-width="0.00787"></path>
<path d="M0.928 0.598 Q0.728 0.309 0.120 0.344" stroke="hsl(180.0,100%,35%)" stroke-width="0.00044"></path>
<path d="M0.928 0.598 Q1.515 0.502 1.457 0.195" stroke="hsl(180.0,100%,35%)" stroke-width="0.00044"></path>
<path d="M0.928 0.598 Q0.860 0.263 0.192 0.223" stroke="hsl(180.0,100%,35%)" stroke-width="0.00087"></path>
<path d="M0.928 0.598 Q1.097 0.443 0.832 0.327" stroke="hsl(180.0,100%,35%)" stroke-width="0.00131"></path>
<path d="M0.928 0.598 Q1.693 0.618 1.898 0.249" stroke="hsl(180.0,100%,35%)" stroke-width="0.00109"></path>
<path d="M0.928 0.598 Q0.852 0.783 1.195 0.860" stroke="hsl(180.0,100%,35%)" stroke-width="0.00044"></path>
<path d="M0.928 0.598 Q0.990 0.754 1.307 0.758" stroke="hsl(180.0,100%,35%)" stroke-width="0.00022"></path>
<path d="M0.928 0.598 Q1.251 0.566 1.258 0.401" stroke="hsl(180.0,100%,35%)" stroke-width="0.00022"></path>
<path d="M0.928 0.598 Q0.654 0.669 0.731 0.818" stroke="hsl(180.0,100%,35%)" stroke-width="0.00044"></path>
<path d="M0.695 0.532 Q0.759 0.612 0.928 0.598" stroke="hsl(180.0,100%,35%)" stroke-width="0.00197"></path>
<path d="M0.695 0.532 Q1.523 0.631 1.898 0.249" stroke="hsl(180.0,100%,35%)" stroke-width="0.00022"></path>
<path d="M0.695 0.532 Q0.484 0.682 0.731 0.818" stroke="hsl(180.0,100%,35%)" stroke-width="0.00022"></path>
<path d="M0.695 0.532 Q0.885 0.837 1.520 0.811" stroke="hsl(180.0,100%,35%)" stroke-width="0.00066"></path>
<path d="M0.695 0.532 Q1.408 0.613 1.721 0.283" stroke="hsl(180.0,100%,35%)" stroke-width="0.00044"></path>
<path d="M0.695 0.532 Q0.801 0.530 0.820 0.478" stroke="hsl(180.0,100%,35%)" stroke-width="0.00022"></path>
<path d="M0.695 0.532 Q0.558 0.323 0.120 0.344" stroke="hsl(180.0,100%,35%)" stroke-width="0.00066"></path>
<path d="M0.695 0.532 Q0.690 0.277 0.192 0.223" stroke="hsl(180.0,100%,35%)" stroke-width="0.00022"></path>
<path d="M0.695 0.532 Q0.725 0.835 1.323 0.888" stroke="hsl(180.0,100%,35%)" stroke-width="0.00022"></path>
<path d="M0.695 0.532 Q1.513 0.536 1.701 0.138" stroke="hsl(180.0,100%,35%)" stroke-width="0.00022"></path>
<path d="M0.695 0.532 Q1.359 0.567 1.573 0.251" stroke="hsl(180.0,100%,35%)" stroke-width="0.00022"></path>
<path d="M0.695 0.532 Q1.346 0.516 1.457 0.195" stroke="hsl(180.0,100%,35%)" stroke-width="0.00022"></path>
<path d="M1.520 0.811 Q1.394 0.586 0.928 0.598" stroke="hsl(180.0,100%,35%)" stroke-width="0.02884"></path>
<path d="M1.520 0.811 Q2.159 0.606 1.898 0.249" stroke="hsl(180.0,100%,35%)" stroke-width="0.01180"></path>
<path d="M1.520 0.811 Q1.194 0.297 0.120 0.344" stroke="hsl(180.0,100%,35%)" stroke-width="0.00371"></path>
<path d="M1.520 0.811 Q1.264 0.627 0.849 0.712" stroke="hsl(180.0,100%,35%)" stroke-width="0.00022"></path>
<path d="M1.520 0.811 Q1.227 0.552 0.657 0.638" stroke="hsl(180.0,100%,35%)" stroke-width="0.02120"></path>
<path d="M1.520 0.811 Q1.437 0.504 0.820 0.478" stroke="hsl(180.0,100%,35%)" stroke-width="0.00787"></path>
<path d="M1.520 0.811 Q1.719 0.757 1.657 0.649" stroke="hsl(180.0,100%,35%)" stroke-width="0.00044"></path>
<path d="M1.520 0.811 Q1.907 0.654 1.685 0.431" stroke="hsl(180.0,100%,35%)" stroke-width="0.00022"></path>
<path d="M1.520 0.811 Q1.982 0.490 1.457 0.195" stroke="hsl(180.0,100%,35%)" stroke-width="0.00131"></path>
<path d="M1.520 0.811 Q1.668 0.760 1.601 0.677" stroke="hsl(180.0,100%,35%)" stroke-width="0.00022"></path>
<path d="M1.520 0.811 Q1.618 0.705 1.432 0.634" stroke="hsl(180.0,100%,35%)" stroke-width="0.00044"></path>
<path d="M1.520 0.811 Q1.563 0.431 0.832 0.327" stroke="hsl(180.0,100%,35%)" stroke-width="0.00153"></path>
<path d="M1.520 0.811 Q1.483 0.653 1.166 0.636" stroke="hsl(180.0,100%,35%)" stroke-width="0.00022"></path>
<path d="M1.520 0.811 Q1.595 0.666 1.329 0.598" stroke="hsl(180.0,100%,35%)" stroke-width="0.00066"></path>
<path d="M1.520 0.811 Q1.676 0.689 1.473 0.587" stroke="hsl(180.0,100%,35%)" stroke-width="0.00044"></path>
<path d="M1.520 0.811 Q2.149 0.511 1.701 0.138" stroke="hsl(180.0,100%,35%)" stroke-width="0.00044"></path>
<path d="M1.520 0.811 Q1.331 0.506 0.695 0.532" stroke="hsl(180.0,100%,35%)" stroke-width="0.00022"></path>
<path d="M1.520 0.811 Q1.318 0.771 1.195 0.860" stroke="hsl(180.0,100%,35%)" stroke-width="0.00022"></path>
<path d="M1.520 0.811 Q1.360 0.810 1.323 0.888" stroke="hsl(180.0,100%,35%)" stroke-width="0.00087"></path>
<path d="M1.520 0.811 Q1.350 0.676 1.050 0.730" stroke="hsl(180.0,100%,35%)" stroke-width="0.00197"></path>
<path d="M1.520 0.811 Q1.178 0.745 0.974 0.898" stroke="hsl(180.0,100%,35%)" stroke-width="0.00153"></path>
<path d="M1.520 0.811 Q1.972 0.572 1.605 0.299" stroke="hsl(180.0,100%,35%)" stroke-width="0.00022"></path>
<path d="M1.520 0.811 Q1.021 0.674 0.643 0.887" stroke="hsl(180.0,100%,35%)" stroke-width="0.00262"></path>
<path d="M1.520 0.811 Q1.544 0.733 1.397 0.705" stroke="hsl(180.0,100%,35%)" stroke-width="0.00022"></path>
<path d="M1.520 0.811 Q2.043 0.587 1.721 0.283" stroke="hsl(180.0,100%,35%)" stroke-width="0.00022"></path>
<path d="M1.520 0.811 Q1.648 0.757 1.571 0.684" stroke="hsl(180.0,100%,35%)" stroke-width="0.00022"></path>
<path d="M1.457 0.195 Q1.624 0.215 1.701 0.138" stroke="hsl(0.0,100%,35%)" stroke-width="0.07080"></path>
<path d="M1.457 0.195 Q1.634 0.310 1.898 0.249" stroke="hsl(0.0,100%,35%)" stroke-width="0.01595"></path>
<path d="M1.457 0.195 Q1.518 0.292 1.721 0.283" stroke="hsl(0.0,100%,35%)" stroke-width="0.00415"></path>
<path d="M1.457 0.195 Q1.368 0.252 1.460 0.308" stroke="hsl(0.0,100%,35%)" stroke-width="0.00022"></path>
<path d="M1.457 0.195 Q0.995 0.516 1.520 0.811" stroke="hsl(0.0,100%,35%)" stroke-width="0.00393"></path>
<path d="M1.457 0.195 Q0.870 0.291 0.928 0.598" stroke="hsl(0.0,100%,35%)" stroke-width="0.00044"></path>
<path d="M1.457 0.195 Q1.382 0.358 1.685 0.431" stroke="hsl(0.0,100%,35%)" stroke-width="0.00066"></path>
<path d="M1.457 0.195 Q0.669 0.002 0.120 0.344" stroke="hsl(0.0,100%,35%)" stroke-width="0.00197"></path>
<path d="M1.457 0.195 Q0.801 -0.044 0.192 0.223" stroke="hsl(0.0,100%,35%)" stroke-width="0.00022"></path>
<path d="M1.457 0.195 Q0.764 0.072 0.372 0.383" stroke="hsl(0.0,100%,35%)" stroke-width="0.00022"></path>
<path d="M1.457 0.195 Q1.397 0.265 1.522 0.310" stroke="hsl(0.0,100%,35%)" stroke-width="0.00022"></path>
<path d="M1.457 0.195 Q0.951 0.446 1.331 0.748" stroke="hsl(0.0,100%,35%)" stroke-width="0.00022"></path>
<path d="M1.457 0.195 Q1.307 0.223 1.330 0.302" stroke="hsl(0.0,100%,35%)" stroke-width="0.00022"></path>
<path d="M1.457 0.195 Q0.912 0.209 0.820 0.478" stroke="hsl(0.0,100%,35%)" stroke-width="0.00044"></path>
<path d="M1.457 0.195 Q1.499 0.423 1.954 0.452" stroke="hsl(0.0,100%,35%)" stroke-width="0.00022"></path>
<path d="M1.457 0.195 Q0.702 0.256 0.657 0.638" stroke="hsl(0.0,100%,35%)" stroke-width="0.00022"></path>
<path d="M1.701 0.138 Q1.710 0.233 1.898 0.249" stroke="hsl(0.0,100%,35%)" stroke-width="0.01464"></path>
<path d="M1.701 0.138 Q1.533 0.117 1.457 0.195" stroke="hsl(0.0,100%,35%)" stroke-width="0.03999"></path>
<path d="M1.701 0.138 Q1.072 0.438 1.520 0.811" stroke="hsl(0.0,100%,35%)" stroke-width="0.00175"></path>
<path d="M1.701 0.138 Q1.524 0.199 1.605 0.299" stroke="hsl(0.0,100%,35%)" stroke-width="0.00459"></path>
<path d="M1.701 0.138 Q1.595 0.214 1.721 0.283" stroke="hsl(0.0,100%,35%)" stroke-width="0.00503"></path>
<path d="M1.701 0.138 Q1.115 0.058 0.832 0.327" stroke="hsl(0.0,100%,35%)" stroke-width="0.00044"></path>
<path d="M1.701 0.138 Q0.946 0.214 0.928 0.598" stroke="hsl(0.0,100%,35%)" stroke-width="0.00153"></path>
<path d="M1.701 0.138 Q1.459 0.281 1.685 0.431" stroke="hsl(0.0,100%,35%)" stroke-width="0.00175"></path>
<path d="M1.701 0.138 Q1.474 0.188 1.522 0.310" stroke="hsl(0.0,100%,35%)" stroke-width="0.00066"></path>
<path d="M1.701 0.138 Q0.841 -0.005 0.372 0.383" stroke="hsl(0.0,100%,35%)" stroke-width="0.00022"></path>
<path d="M1.701 0.138 Q0.779 0.179 0.657 0.638" stroke="hsl(0.0,100%,35%)" stroke-width="0.00022"></path>
<path d="M1.701 0.138 Q0.746 -0.075 0.120 0.344" stroke="hsl(0.0,100%,35%)" stroke-width="0.00022"></path>
<path d="M0.820 0.478 Q0.778 0.560 0.928 0.598" stroke="hsl(180.0,100%,35%)" stroke-width="0.00306"></path>
<path d="M0.820 0.478 Q0.903 0.784 1.520 0.811" stroke="hsl(180.0,100%,35%)" stroke-width="0.00306"></path>
<path d="M0.820 0.478 Q0.610 0.525 0.657 0.638" stroke="hsl(180.0,100%,35%)" stroke-width="0.00393"></path>
<path d="M0.820 0.478 Q1.542 0.579 1.898 0.249" stroke="hsl(180.0,100%,35%)" stroke-width="0.00044"></path>
<path d="M0.820 0.478 Q0.743 0.783 1.323 0.888" stroke="hsl(180.0,100%,35%)" stroke-width="0.00022"></path>
<path d="M0.820 0.478 Q0.709 0.225 0.192 0.223" stroke="hsl(180.0,100%,35%)" stroke-width="0.00022"></path>
<path d="M0.820 0.478 Q0.503 0.630 0.731 0.818" stroke="hsl(180.0,100%,35%)" stroke-width="0.00153"></path>
<path d="M0.820 0.478 Q0.695 0.694 1.090 0.803" stroke="hsl(180.0,100%,35%)" stroke-width="0.00022"></path>
<path d="M0.820 0.478 Q1.365 0.463 1.457 0.195" stroke="hsl(180.0,100%,35%)" stroke-width="0.00109"></path>
<path d="M0.820 0.478 Q1.355 0.545 1.605 0.299" stroke="hsl(180.0,100%,35%)" stroke-width="0.00022"></path>
<path d="M1.685 0.431 Q1.760 0.267 1.457 0.195" stroke="hsl(0.0,100%,35%)" stroke-width="0.00721"></path>
<path d="M1.685 0.431 Q1.927 0.287 1.701 0.138" stroke="hsl(0.0,100%,35%)" stroke-width="0.00983"></path>
<path d="M1.685 0.431 Q1.937 0.382 1.898 0.249" stroke="hsl(0.0,100%,35%)" stroke-width="0.00131"></path>
<path d="M1.685 0.431 Q0.898 0.434 0.731 0.818" stroke="hsl(0.0,100%,35%)" stroke-width="0.00022"></path>
<path d="M1.685 0.431 Q1.750 0.349 1.605 0.299" stroke="hsl(0.0,100%,35%)" stroke-width="0.00044"></path>
<path d="M1.685 0.431 Q1.546 0.365 1.388 0.419" stroke="hsl(0.0,100%,35%)" stroke-width="0.00022"></path>
<path d="M1.685 0.431 Q1.822 0.364 1.721 0.283" stroke="hsl(0.0,100%,35%)" stroke-width="0.00044"></path>
<path d="M0.731 0.818 Q1.005 0.748 0.928 0.598" stroke="hsl(180.0,100%,35%)" stroke-width="0.01202"></path>
<path d="M0.731 0.818 Q1.048 0.666 0.820 0.478" stroke="hsl(180.0,100%,35%)" stroke-width="0.00153"></path>
<path d="M0.731 0.818 Q1.593 0.652 1.457 0.195" stroke="hsl(180.0,100%,35%)" stroke-width="0.00284"></path>
<path d="M0.731 0.818 Q1.770 0.767 1.898 0.249" stroke="hsl(180.0,100%,35%)" stroke-width="0.00066"></path>
<path d="M0.731 0.818 Q0.942 0.668 0.695 0.532" stroke="hsl(180.0,100%,35%)" stroke-width="0.00022"></path>
<path d="M0.731 0.818 Q0.710 0.728 0.530 0.718" stroke="hsl(180.0,100%,35%)" stroke-width="0.00022"></path>
<path d="M0.731 0.818 Q1.583 0.733 1.605 0.299" stroke="hsl(180.0,100%,35%)" stroke-width="0.00044"></path>
<path d="M0.731 0.818 Q1.654 0.748 1.721 0.283" stroke="hsl(180.0,100%,35%)" stroke-width="0.00022"></path>
<path d="M1.522 0.310 Q1.507 0.403 1.685 0.431" stroke="hsl(0.0,100%,35%)" stroke-width="0.00066"></path>
<path d="M1.522 0.310 Q1.758 0.355 1.898 0.249" stroke="hsl(0.0,100%,35%)" stroke-width="0.00022"></path>
<path d="M1.522 0.310 Q1.643 0.336 1.721 0.283" stroke="hsl(0.0,100%,35%)" stroke-width="0.00109"></path>
<path d="M1.522 0.310 Q1.749 0.260 1.701 0.138" stroke="hsl(0.0,100%,35%)" stroke-width="0.00175"></path>
<path d="M1.522 0.310 Q1.581 0.239 1.457 0.195" stroke="hsl(0.0,100%,35%)" stroke-width="0.00459"></path>
<path d="M1.522 0.310 Q1.572 0.321 1.605 0.299" stroke="hsl(0.0,100%,35%)" stroke-width="0.00022"></path>
<path d="M1.522 0.310 Q1.120 0.560 1.520 0.811" stroke="hsl(0.0,100%,35%)" stroke-width="0.00022"></path>
<path d="M1.573 0.251 Q1.560 0.200 1.457 0.195" stroke="hsl(0.0,100%,35%)" stroke-width="0.00044"></path>
<path d="M1.573 0.251 Q1.728 0.220 1.701 0.138" stroke="hsl(0.0,100%,35%)" stroke-width="0.00306"></path>
<path d="M1.573 0.251 Q1.622 0.297 1.721 0.283" stroke="hsl(0.0,100%,35%)" stroke-width="0.00022"></path>
<path d="M1.573 0.251 Q1.551 0.281 1.605 0.299" stroke="hsl(0.0,100%,35%)" stroke-width="0.00022"></path>
<path d="M1.181 0.614 Q1.831 0.575 1.898 0.249" stroke="hsl(0.0,100%,35%)" stroke-width="0.00022"></path>
<path d="M1.181 0.614 Q1.654 0.459 1.457 0.195" stroke="hsl(0.0,100%,35%)" stroke-width="0.00022"></path>
<path d="M1.181 0.614 Q1.236 0.400 0.832 0.327" stroke="hsl(0.0,100%,35%)" stroke-width="0.00022"></path>
<path d="M1.181 0.614 Q1.193 0.780 1.520 0.811" stroke="hsl(0.0,100%,35%)" stroke-width="0.00022"></path>
<path d="M1.181 0.614 Q1.149 0.711 1.331 0.748" stroke="hsl(0.0,100%,35%)" stroke-width="0.00022"></path>
<path d="M0.832 0.327 Q0.705 0.400 0.820 0.478" stroke="hsl(180.0,100%,35%)" stroke-width="0.00131"></path>
<path d="M0.832 0.327 Q0.594 0.147 0.192 0.223" stroke="hsl(180.0,100%,35%)" stroke-width="0.00022"></path>
<path d="M0.832 0.327 Q0.788 0.706 1.520 0.811" stroke="hsl(180.0,100%,35%)" stroke-width="0.00044"></path>
<path d="M0.832 0.327 Q0.663 0.482 0.928 0.598" stroke="hsl(180.0,100%,35%)" stroke-width="0.00175"></path>
<path d="M0.832 0.327 Q0.495 0.447 0.657 0.638" stroke="hsl(180.0,100%,35%)" stroke-width="0.00044"></path>
<path d="M0.832 0.327 Q0.557 0.263 0.372 0.383" stroke="hsl(180.0,100%,35%)" stroke-width="0.00022"></path>
<path d="M1.331 0.748 Q1.375 0.817 1.520 0.811" stroke="hsl(180.0,100%,35%)" stroke-width="0.00743"></path>
<path d="M1.331 0.748 Q1.837 0.497 1.457 0.195" stroke="hsl(180.0,100%,35%)" stroke-width="0.00437"></path>
<path d="M1.331 0.748 Q1.205 0.683 1.050 0.730" stroke="hsl(180.0,100%,35%)" stroke-width="0.00087"></path>
<path d="M1.331 0.748 Q1.082 0.558 0.657 0.638" stroke="hsl(180.0,100%,35%)" stroke-width="0.00066"></path>
<path d="M1.331 0.748 Q1.304 0.679 1.164 0.677" stroke="hsl(180.0,100%,35%)" stroke-width="0.00022"></path>
<path d="M1.331 0.748 Q1.827 0.578 1.605 0.299" stroke="hsl(180.0,100%,35%)" stroke-width="0.00022"></path>
<path d="M1.331 0.748 Q1.181 0.258 0.192 0.223" stroke="hsl(180.0,100%,35%)" stroke-width="0.00022"></path>
<path d="M1.331 0.748 Q1.249 0.593 0.928 0.598" stroke="hsl(180.0,100%,35%)" stroke-width="0.00022"></path>
<path d="M1.432 0.634 Q1.334 0.740 1.520 0.811" stroke="hsl(180.0,100%,35%)" stroke-width="0.00656"></path>
<path d="M1.432 0.634 Q1.209 0.515 0.928 0.598" stroke="hsl(180.0,100%,35%)" stroke-width="0.00087"></path>
<path d="M1.432 0.634 Q1.390 0.626 1.364 0.645" stroke="hsl(180.0,100%,35%)" stroke-width="0.00022"></path>
<path d="M1.432 0.634 Q1.973 0.535 1.898 0.249" stroke="hsl(180.0,100%,35%)" stroke-width="0.00131"></path>
<path d="M0.677 0.299 Q0.689 0.724 1.520 0.811" stroke="hsl(180.0,100%,35%)" stroke-width="0.00066"></path>
<path d="M0.677 0.299 Q0.606 0.417 0.820 0.478" stroke="hsl(180.0,100%,35%)" stroke-width="0.00066"></path>
<path d="M0.677 0.299 Q0.396 0.464 0.657 0.638" stroke="hsl(180.0,100%,35%)" stroke-width="0.00022"></path>
<path d="M0.677 0.299 Q0.495 0.164 0.192 0.223" stroke="hsl(180.0,100%,35%)" stroke-width="0.00022"></path>
<path d="M0.677 0.299 Q1.327 0.518 1.898 0.249" stroke="hsl(180.0,100%,35%)" stroke-width="0.00022"></path>
<path d="M0.677 0.299 Q0.563 0.499 0.928 0.598" stroke="hsl(180.0,100%,35%)" stroke-width="0.00022"></path>
<path d="M0.657 0.638 Q0.824 0.672 0.928 0.598" stroke="hsl(180.0,100%,35%)" stroke-width="0.01639"></path>
<path d="M0.657 0.638 Q0.950 0.897 1.520 0.811" stroke="hsl(180.0,100%,35%)" stroke-width="0.00721"></path>
<path d="M0.657 0.638 Q0.756 0.337 0.192 0.223" stroke="hsl(180.0,100%,35%)" stroke-width="0.00284"></path>
<path d="M0.657 0.638 Q1.589 0.692 1.898 0.249" stroke="hsl(180.0,100%,35%)" stroke-width="0.00022"></path>
<path d="M0.657 0.638 Q0.867 0.590 0.820 0.478" stroke="hsl(180.0,100%,35%)" stroke-width="0.01027"></path>
<path d="M0.657 0.638 Q0.719 0.453 0.372 0.383" stroke="hsl(180.0,100%,35%)" stroke-width="0.00022"></path>
<path d="M0.657 0.638 Q1.579 0.597 1.701 0.138" stroke="hsl(180.0,100%,35%)" stroke-width="0.00066"></path>
<path d="M0.657 0.638 Q1.412 0.576 1.457 0.195" stroke="hsl(180.0,100%,35%)" stroke-width="0.00022"></path>
<path d="M0.657 0.638 Q0.993 0.517 0.832 0.327" stroke="hsl(180.0,100%,35%)" stroke-width="0.00022"></path>
<path d="M0.192 0.223 Q0.260 0.558 0.928 0.598" stroke="hsl(180.0,100%,35%)" stroke-width="0.00568"></path>
<path d="M0.192 0.223 Q0.386 0.783 1.520 0.811" stroke="hsl(180.0,100%,35%)" stroke-width="0.00066"></path>
<path d="M0.192 0.223 Q0.093 0.524 0.657 0.638" stroke="hsl(180.0,100%,35%)" stroke-width="0.00175"></path>
<path d="M0.192 0.223 Q0.302 0.476 0.820 0.478" stroke="hsl(180.0,100%,35%)" stroke-width="0.00109"></path>
<path d="M0.192 0.223 Q0.059 0.269 0.120 0.344" stroke="hsl(180.0,100%,35%)" stroke-width="0.00590"></path>
<path d="M0.192 0.223 Q1.024 0.577 1.898 0.249" stroke="hsl(180.0,100%,35%)" stroke-width="0.00022"></path>
<path d="M0.192 0.223 Q0.847 0.462 1.457 0.195" stroke="hsl(180.0,100%,35%)" stroke-width="0.00109"></path>
<path d="M0.192 0.223 Q1.014 0.482 1.701 0.138" stroke="hsl(180.0,100%,35%)" stroke-width="0.00066"></path>
<path d="M0.192 0.223 Q0.429 0.403 0.832 0.327" stroke="hsl(180.0,100%,35%)" stroke-width="0.00044"></path>
<path d="M0.192 0.223 Q0.154 0.339 0.372 0.383" stroke="hsl(180.0,100%,35%)" stroke-width="0.00066"></path>
<path d="M0.192 0.223 Q0.226 0.782 1.323 0.888" stroke="hsl(180.0,100%,35%)" stroke-width="0.00022"></path>
<path d="M0.192 0.223 Q-0.015 0.628 0.731 0.818" stroke="hsl(180.0,100%,35%)" stroke-width="0.00022"></path>
<path d="M0.372 0.383 Q0.277 0.313 0.120 0.344" stroke="hsl(180.0,100%,35%)" stroke-width="0.00175"></path>
<path d="M0.372 0.383 Q0.478 0.602 0.928 0.598" stroke="hsl(180.0,100%,35%)" stroke-width="0.00153"></path>
<path d="M0.372 0.383 Q0.647 0.447 0.832 0.327" stroke="hsl(180.0,100%,35%)" stroke-width="0.00066"></path>
<path d="M0.372 0.383 Q1.242 0.621 1.898 0.249" stroke="hsl(180.0,100%,35%)" stroke-width="0.00109"></path>
<path d="M0.372 0.383 Q0.310 0.567 0.657 0.638" stroke="hsl(180.0,100%,35%)" stroke-width="0.00087"></path>
<path d="M0.372 0.383 Q0.604 0.827 1.520 0.811" stroke="hsl(180.0,100%,35%)" stroke-width="0.00066"></path>
<path d="M0.372 0.383 Q1.232 0.526 1.701 0.138" stroke="hsl(180.0,100%,35%)" stroke-width="0.00109"></path>
<path d="M0.372 0.383 Q1.065 0.506 1.457 0.195" stroke="hsl(180.0,100%,35%)" stroke-width="0.00087"></path>
<path d="M0.372 0.383 Q1.055 0.587 1.605 0.299" stroke="hsl(180.0,100%,35%)" stroke-width="0.00022"></path>
<path d="M0.372 0.383 Q0.520 0.520 0.820 0.478" stroke="hsl(180.0,100%,35%)" stroke-width="0.00044"></path>
<path d="M1.605 0.299 Q1.791 0.333 1.898 0.249" stroke="hsl(0.0,100%,35%)" stroke-width="0.00350"></path>
<path d="M1.605 0.299 Q1.614 0.217 1.457 0.195" stroke="hsl(0.0,100%,35%)" stroke-width="0.00306"></path>
<path d="M1.605 0.299 Q1.027 0.313 0.928 0.598" stroke="hsl(0.0,100%,35%)" stroke-width="0.00219"></path>
<path d="M1.605 0.299 Q1.782 0.238 1.701 0.138" stroke="hsl(0.0,100%,35%)" stroke-width="0.00546"></path>
<path d="M1.605 0.299 Q1.676 0.314 1.721 0.283" stroke="hsl(0.0,100%,35%)" stroke-width="0.00044"></path>
<path d="M1.605 0.299 Q1.401 0.315 1.388 0.419" stroke="hsl(0.0,100%,35%)" stroke-width="0.00087"></path>
<path d="M1.605 0.299 Q1.153 0.538 1.520 0.811" stroke="hsl(0.0,100%,35%)" stroke-width="0.00044"></path>
<path d="M1.605 0.299 Q1.540 0.381 1.685 0.431" stroke="hsl(0.0,100%,35%)" stroke-width="0.00022"></path>
<path d="M1.605 0.299 Q1.554 0.288 1.522 0.310" stroke="hsl(0.0,100%,35%)" stroke-width="0.00022"></path>
<path d="M1.605 0.299 Q1.627 0.269 1.573 0.251" stroke="hsl(0.0,100%,35%)" stroke-width="0.00022"></path>
<path d="M1.090 0.803 Q1.937 0.687 1.898 0.249" stroke="hsl(180.0,100%,35%)" stroke-width="0.00044"></path>
<path d="M1.090 0.803 Q1.215 0.586 0.820 0.478" stroke="hsl(180.0,100%,35%)" stroke-width="0.00219"></path>
<path d="M1.090 0.803 Q1.298 0.893 1.520 0.811" stroke="hsl(180.0,100%,35%)" stroke-width="0.00437"></path>
<path d="M1.090 0.803 Q1.173 0.668 0.928 0.598" stroke="hsl(180.0,100%,35%)" stroke-width="0.00044"></path>
<path d="M1.164 0.677 Q0.893 0.749 0.974 0.898" stroke="hsl(180.0,100%,35%)" stroke-width="0.00066"></path>
<path d="M1.164 0.677 Q1.065 0.681 1.050 0.730" stroke="hsl(180.0,100%,35%)" stroke-width="0.00131"></path>
<path d="M1.164 0.677 Q1.235 0.815 1.520 0.811" stroke="hsl(180.0,100%,35%)" stroke-width="0.00066"></path>
<path d="M1.164 0.677 Q1.696 0.494 1.457 0.195" stroke="hsl(180.0,100%,35%)" stroke-width="0.00022"></path>
<path d="M0.974 0.898 Q1.955 0.758 1.898 0.249" stroke="hsl(180.0,100%,35%)" stroke-width="0.00087"></path>
<path d="M0.974 0.898 Q1.317 0.964 1.520 0.811" stroke="hsl(180.0,100%,35%)" stroke-width="0.00022"></path>
<path d="M0.974 0.898 Q1.146 0.829 1.050 0.730" stroke="hsl(180.0,100%,35%)" stroke-width="0.00022"></path>
<path d="M1.050 0.730 Q1.220 0.865 1.520 0.811" stroke="hsl(180.0,100%,35%)" stroke-width="0.00830"></path>
<path d="M1.050 0.730 Q0.878 0.799 0.974 0.898" stroke="hsl(180.0,100%,35%)" stroke-width="0.00153"></path>
<path d="M1.050 0.730 Q1.859 0.659 1.898 0.249" stroke="hsl(180.0,100%,35%)" stroke-width="0.00022"></path>
<path d="M1.050 0.730 Q1.054 0.698 0.992 0.689" stroke="hsl(180.0,100%,35%)" stroke-width="0.00022"></path>
<path d="M1.050 0.730 Q0.991 0.740 0.997 0.771" stroke="hsl(180.0,100%,35%)" stroke-width="0.00022"></path>
<path d="M1.050 0.730 Q1.150 0.726 1.164 0.677" stroke="hsl(180.0,100%,35%)" stroke-width="0.00306"></path>
<path d="M1.050 0.730 Q1.095 0.640 0.928 0.598" stroke="hsl(180.0,100%,35%)" stroke-width="0.00044"></path>
<path d="M1.050 0.730 Q1.682 0.544 1.457 0.195" stroke="hsl(180.0,100%,35%)" stroke-width="0.00153"></path>
<path d="M1.050 0.730 Q0.927 0.605 0.657 0.638" stroke="hsl(180.0,100%,35%)" stroke-width="0.00022"></path>
<path d="M1.050 0.730 Q1.176 0.795 1.331 0.748" stroke="hsl(180.0,100%,35%)" stroke-width="0.00022"></path>
<path d="M1.657 0.649 Q1.459 0.703 1.520 0.811" stroke="hsl(180.0,100%,35%)" stroke-width="0.00677"></path>
<path d="M1.657 0.649 Q1.333 0.478 0.928 0.598" stroke="hsl(180.0,100%,35%)" stroke-width="0.00306"></path>
<path d="M1.657 0.649 Q1.655 0.529 1.420 0.504" stroke="hsl(180.0,100%,35%)" stroke-width="0.00066"></path>
<path d="M1.657 0.649 Q1.166 0.443 0.657 0.638" stroke="hsl(180.0,100%,35%)" stroke-width="0.00044"></path>
<path d="M0.845 0.767 Q1.022 0.699 0.928 0.598" stroke="hsl(180.0,100%,35%)" stroke-width="0.00087"></path>
<path d="M0.845 0.767 Q1.148 0.924 1.520 0.811" stroke="hsl(180.0,100%,35%)" stroke-width="0.00022"></path>
<path d="M0.845 0.767 Q1.600 0.685 1.605 0.299" stroke="hsl(180.0,100%,35%)" stroke-width="0.00022"></path>
<path d="M0.120 0.344 Q0.320 0.633 0.928 0.598" stroke="hsl(180.0,100%,35%)" stroke-width="0.00656"></path>
<path d="M0.120 0.344 Q1.084 0.652 1.898 0.249" stroke="hsl(180.0,100%,35%)" stroke-width="0.00306"></path>
<path d="M0.120 0.344 Q0.907 0.537 1.457 0.195" stroke="hsl(180.0,100%,35%)" stroke-width="0.00262"></path>
<path d="M0.120 0.344 Q0.153 0.598 0.657 0.638" stroke="hsl(180.0,100%,35%)" stroke-width="0.00022"></path>
<path d="M0.120 0.344 Q0.489 0.477 0.832 0.327" stroke="hsl(180.0,100%,35%)" stroke-width="0.00022"></path>
<path d="M0.120 0.344 Q0.446 0.857 1.520 0.811" stroke="hsl(180.0,100%,35%)" stroke-width="0.00066"></path>
<path d="M0.120 0.344 Q1.075 0.557 1.701 0.138" stroke="hsl(180.0,100%,35%)" stroke-width="0.00087"></path>
<path d="M0.120 0.344 Q0.214 0.414 0.372 0.383" stroke="hsl(180.0,100%,35%)" stroke-width="0.00022"></path>
<path d="M0.849 0.712 Q0.979 0.671 0.928 0.598" stroke="hsl(180.0,100%,35%)" stroke-width="0.00699"></path>
<path d="M0.849 0.712 Q1.105 0.896 1.520 0.811" stroke="hsl(180.0,100%,35%)" stroke-width="0.00350"></path>
<path d="M0.849 0.712 Q1.744 0.690 1.898 0.249" stroke="hsl(180.0,100%,35%)" stroke-width="0.00022"></path>
<path d="M0.849 0.712 Q0.812 0.637 0.657 0.638" stroke="hsl(180.0,100%,35%)" stroke-width="0.00109"></path>
<path d="M0.849 0.712 Q0.945 0.895 1.323 0.888" stroke="hsl(180.0,100%,35%)" stroke-width="0.00022"></path>
<path d="M0.849 0.712 Q1.492 0.739 1.685 0.431" stroke="hsl(180.0,100%,35%)" stroke-width="0.00022"></path>
<path d="M1.166 0.636 Q1.203 0.794 1.520 0.811" stroke="hsl(180.0,100%,35%)" stroke-width="0.00022"></path>
<path d="M1.166 0.636 Q1.077 0.570 0.928 0.598" stroke="hsl(180.0,100%,35%)" stroke-width="0.00022"></path>
<path d="M1.166 0.636 Q0.877 0.280 0.120 0.344" stroke="hsl(180.0,100%,35%)" stroke-width="0.00022"></path>
<path d="M1.473 0.587 Q1.317 0.708 1.520 0.811" stroke="hsl(180.0,100%,35%)" stroke-width="0.00109"></path>
<path d="M1.473 0.587 Q1.191 0.484 0.928 0.598" stroke="hsl(180.0,100%,35%)" stroke-width="0.00066"></path>
<path d="M1.473 0.587 Q1.514 0.451 1.258 0.401" stroke="hsl(180.0,100%,35%)" stroke-width="0.00022"></path>
<path d="M1.473 0.587 Q1.157 0.707 1.323 0.888" stroke="hsl(180.0,100%,35%)" stroke-width="0.00044"></path>
<path d="M1.473 0.587 Q0.818 0.571 0.643 0.887" stroke="hsl(180.0,100%,35%)" stroke-width="0.00022"></path>
<path d="M1.195 0.860 Q1.272 0.676 0.928 0.598" stroke="hsl(180.0,100%,35%)" stroke-width="0.00481"></path>
<path d="M1.195 0.860 Q1.397 0.901 1.520 0.811" stroke="hsl(180.0,100%,35%)" stroke-width="0.00481"></path>
<path d="M1.195 0.860 Q2.026 0.600 1.701 0.138" stroke="hsl(180.0,100%,35%)" stroke-width="0.00197"></path>
<path d="M1.195 0.860 Q2.036 0.695 1.898 0.249" stroke="hsl(180.0,100%,35%)" stroke-width="0.00022"></path>
<path d="M1.195 0.860 Q1.859 0.580 1.457 0.195" stroke="hsl(180.0,100%,35%)" stroke-width="0.00087"></path>
<path d="M1.195 0.860 Q1.203 0.341 0.192 0.223" stroke="hsl(180.0,100%,35%)" stroke-width="0.00044"></path>
<path d="M1.323 0.888 Q1.483 0.889 1.520 0.811" stroke="hsl(180.0,100%,35%)" stroke-width="0.02579"></path>
<path d="M1.323 0.888 Q1.357 0.664 0.928 0.598" stroke="hsl(180.0,100%,35%)" stroke-width="0.01726"></path>
<path d="M1.323 0.888 Q2.121 0.683 1.898 0.249" stroke="hsl(180.0,100%,35%)" stroke-width="0.00415"></path>
<path d="M1.323 0.888 Q1.190 0.630 0.657 0.638" stroke="hsl(180.0,100%,35%)" stroke-width="0.00306"></path>
<path d="M1.323 0.888 Q2.111 0.588 1.701 0.138" stroke="hsl(180.0,100%,35%)" stroke-width="0.00568"></path>
<path d="M1.323 0.888 Q1.526 0.509 0.832 0.327" stroke="hsl(180.0,100%,35%)" stroke-width="0.00044"></path>
<path d="M1.323 0.888 Q1.869 0.732 1.685 0.431" stroke="hsl(180.0,100%,35%)" stroke-width="0.00066"></path>
<path d="M1.323 0.888 Q1.935 0.650 1.605 0.299" stroke="hsl(180.0,100%,35%)" stroke-width="0.00109"></path>
<path d="M1.323 0.888 Q1.226 0.705 0.849 0.712" stroke="hsl(180.0,100%,35%)" stroke-width="0.00044"></path>
<path d="M1.323 0.888 Q1.448 0.692 1.095 0.588" stroke="hsl(180.0,100%,35%)" stroke-width="0.00022"></path>
<path d="M1.323 0.888 Q1.400 0.582 0.820 0.478" stroke="hsl(180.0,100%,35%)" stroke-width="0.00044"></path>
<path d="M1.323 0.888 Q1.944 0.568 1.457 0.195" stroke="hsl(180.0,100%,35%)" stroke-width="0.00131"></path>
<path d="M1.323 0.888 Q2.006 0.665 1.721 0.283" stroke="hsl(180.0,100%,35%)" stroke-width="0.00044"></path>
<path d="M1.323 0.888 Q1.251 0.445 0.372 0.383" stroke="hsl(180.0,100%,35%)" stroke-width="0.00044"></path>
<path d="M1.323 0.888 Q1.274 0.799 1.090 0.803" stroke="hsl(180.0,100%,35%)" stroke-width="0.00022"></path>
<path d="M0.643 0.887 Q1.017 0.800 0.928 0.598" stroke="hsl(180.0,100%,35%)" stroke-width="0.00087"></path>
<path d="M0.643 0.887 Q1.142 1.024 1.520 0.811" stroke="hsl(180.0,100%,35%)" stroke-width="0.00109"></path>
<path d="M0.643 0.887 Q0.649 0.932 0.738 0.939" stroke="hsl(180.0,100%,35%)" stroke-width="0.00022"></path>
<path d="M0.643 0.887 Q0.849 0.765 0.657 0.638" stroke="hsl(180.0,100%,35%)" stroke-width="0.00044"></path>
<path d="M1.197 0.519 Q1.125 0.730 1.520 0.811" stroke="hsl(180.0,100%,35%)" stroke-width="0.00109"></path>
<path d="M1.197 0.519 Q0.999 0.505 0.928 0.598" stroke="hsl(180.0,100%,35%)" stroke-width="0.00109"></path>
<path d="M1.197 0.519 Q1.042 0.423 0.820 0.478" stroke="hsl(180.0,100%,35%)" stroke-width="0.00022"></path>
<path d="M1.307 0.758 Q1.371 0.827 1.520 0.811" stroke="hsl(180.0,100%,35%)" stroke-width="0.00284"></path>
<path d="M1.307 0.758 Q1.246 0.603 0.928 0.598" stroke="hsl(180.0,100%,35%)" stroke-width="0.00262"></path>
<path d="M1.307 0.758 Q1.115 0.643 0.849 0.712" stroke="hsl(180.0,100%,35%)" stroke-width="0.00175"></path>
<path d="M1.307 0.758 Q1.169 0.787 1.195 0.860" stroke="hsl(180.0,100%,35%)" stroke-width="0.00044"></path>
<path d="M1.307 0.758 Q1.078 0.568 0.657 0.638" stroke="hsl(180.0,100%,35%)" stroke-width="0.00022"></path>
<path d="M1.258 0.401 Q0.936 0.434 0.928 0.598" stroke="hsl(180.0,100%,35%)" stroke-width="0.00350"></path>
<path d="M1.258 0.401 Q0.805 0.475 0.849 0.712" stroke="hsl(180.0,100%,35%)" stroke-width="0.00044"></path>
<path d="M1.258 0.401 Q1.061 0.659 1.520 0.811" stroke="hsl(180.0,100%,35%)" stroke-width="0.00044"></path>
<path d="M1.258 0.401 Q1.523 0.338 1.457 0.195" stroke="hsl(180.0,100%,35%)" stroke-width="0.00022"></path>
<path d="M1.258 0.401 Q0.768 0.399 0.657 0.638" stroke="hsl(180.0,100%,35%)" stroke-width="0.00044"></path>
<path d="M1.258 0.401 Q1.105 0.279 0.832 0.327" stroke="hsl(180.0,100%,35%)" stroke-width="0.00087"></path>
<path d="M1.258 0.401 Q0.901 0.657 1.323 0.888" stroke="hsl(180.0,100%,35%)" stroke-width="0.00022"></path>
<path d="M1.643 0.852 Q1.321 0.548 0.657 0.638" stroke="hsl(180.0,100%,35%)" stroke-width="0.00022"></path>
<path d="M1.643 0.852 Q2.138 0.583 1.721 0.283" stroke="hsl(180.0,100%,35%)" stroke-width="0.00022"></path>
<path d="M1.643 0.852 Q1.489 0.582 0.928 0.598" stroke="hsl(180.0,100%,35%)" stroke-width="0.00022"></path>
<path d="M1.643 0.852 Q1.615 0.807 1.520 0.811" stroke="hsl(180.0,100%,35%)" stroke-width="0.00022"></path>
<path d="M1.025 0.486 Q1.013 0.748 1.520 0.811" stroke="hsl(180.0,100%,35%)" stroke-width="0.00328"></path>
<path d="M1.025 0.486 Q0.930 0.441 0.820 0.478" stroke="hsl(180.0,100%,35%)" stroke-width="0.00044"></path>
<path d="M1.025 0.486 Q0.853 0.747 1.323 0.888" stroke="hsl(180.0,100%,35%)" stroke-width="0.00066"></path>
<path d="M1.025 0.486 Q0.887 0.523 0.928 0.598" stroke="hsl(180.0,100%,35%)" stroke-width="0.00262"></path>
<path d="M1.025 0.486 Q0.720 0.489 0.657 0.638" stroke="hsl(180.0,100%,35%)" stroke-width="0.00022"></path>
<path d="M0.630 0.437 Q0.650 0.578 0.928 0.598" stroke="hsl(180.0,100%,35%)" stroke-width="0.00087"></path>
<path d="M0.630 0.437 Q0.693 0.495 0.820 0.478" stroke="hsl(180.0,100%,35%)" stroke-width="0.00044"></path>
<path d="M0.630 0.437 Q1.238 0.481 1.457 0.195" stroke="hsl(180.0,100%,35%)" stroke-width="0.00022"></path>
<path d="M0.630 0.437 Q0.616 0.801 1.323 0.888" stroke="hsl(180.0,100%,35%)" stroke-width="0.00022"></path>
<path d="M0.721 0.756 Q1.076 0.943 1.520 0.811" stroke="hsl(180.0,100%,35%)" stroke-width="0.00022"></path>
<path d="M0.721 0.756 Q0.951 0.718 0.928 0.598" stroke="hsl(180.0,100%,35%)" stroke-width="0.00022"></path>
<path d="M0.721 0.756 Q0.916 0.942 1.323 0.888" stroke="hsl(180.0,100%,35%)" stroke-width="0.00022"></path>
<path d="M1.095 0.588 Q1.004 0.560 0.928 0.598" stroke="hsl(180.0,100%,35%)" stroke-width="0.00175"></path>
<path d="M1.095 0.588 Q0.970 0.783 1.323 0.888" stroke="hsl(180.0,100%,35%)" stroke-width="0.00044"></path>
<path d="M1.095 0.588 Q1.130 0.785 1.520 0.811" stroke="hsl(180.0,100%,35%)" stroke-width="0.00240"></path>
<path d="M1.095 0.588 Q1.377 0.562 1.388 0.419" stroke="hsl(180.0,100%,35%)" stroke-width="0.00087"></path>
<path d="M1.095 0.588 Q1.758 0.484 1.701 0.138" stroke="hsl(180.0,100%,35%)" stroke-width="0.00022"></path>
<path d="M1.095 0.588 Q1.581 0.546 1.605 0.299" stroke="hsl(180.0,100%,35%)" stroke-width="0.00022"></path>
<path d="M1.095 0.588 Q0.837 0.526 0.657 0.638" stroke="hsl(180.0,100%,35%)" stroke-width="0.00022"></path>
<path d="M1.912 0.854 Q2.212 0.433 1.457 0.195" stroke="hsl(0.0,100%,35%)" stroke-width="0.00022"></path>
<path d="M1.912 0.854 Q1.716 0.865 1.694 0.963" stroke="hsl(0.0,100%,35%)" stroke-width="0.00022"></path>
<path d="M1.912 0.854 Q2.379 0.454 1.701 0.138" stroke="hsl(0.0,100%,35%)" stroke-width="0.00022"></path>
<path d="M1.241 0.614 Q1.140 0.462 0.820 0.478" stroke="hsl(180.0,100%,35%)" stroke-width="0.00022"></path>
<path d="M1.241 0.614 Q1.097 0.544 0.928 0.598" stroke="hsl(180.0,100%,35%)" stroke-width="0.00022"></path>
<path d="M1.241 0.614 Q1.223 0.768 1.520 0.811" stroke="hsl(180.0,100%,35%)" stroke-width="0.00022"></path>
<path d="M0.423 0.589 Q0.794 0.920 1.520 0.811" stroke="hsl(180.0,100%,35%)" stroke-width="0.00022"></path>
<path d="M0.423 0.589 Q1.256 0.599 1.457 0.195" stroke="hsl(180.0,100%,35%)" stroke-width="0.00022"></path>
<path d="M0.423 0.589 Q0.501 0.660 0.657 0.638" stroke="hsl(180.0,100%,35%)" stroke-width="0.00022"></path>
<path d="M1.093 0.306 Q0.903 0.644 1.520 0.811" stroke="hsl(180.0,100%,35%)" stroke-width="0.00044"></path>
<path d="M1.093 0.306 Q0.777 0.419 0.928 0.598" stroke="hsl(180.0,100%,35%)" stroke-width="0.00044"></path>
<path d="M1.093 0.306 Q0.946 0.264 0.832 0.327" stroke="hsl(180.0,100%,35%)" stroke-width="0.00044"></path>
<path d="M1.093 0.306 Q1.364 0.323 1.457 0.195" stroke="hsl(180.0,100%,35%)" stroke-width="0.00044"></path>
<path d="M0.955 0.640 Q0.975 0.614 0.928 0.598" stroke="hsl(180.0,100%,35%)" stroke-width="0.00087"></path>
<path d="M0.955 0.640 Q1.553 0.599 1.605 0.299" stroke="hsl(180.0,100%,35%)" stroke-width="0.00022"></path>
<path d="M0.955 0.640 Q1.101 0.838 1.520 0.811" stroke="hsl(180.0,100%,35%)" stroke-width="0.00044"></path>
<path d="M0.955 0.640 Q0.808 0.579 0.657 0.638" stroke="hsl(180.0,100%,35%)" stroke-width="0.00022"></path>
<path d="M0.955 0.640 Q1.017 0.532 0.820 0.478" stroke="hsl(180.0,100%,35%)" stroke-width="0.00022"></path>
</g>
<text x="1.721" y="0.264" font-size="0.038192" fill="hsl(0.0,100%,20%)">amaiorano</text>
<text x="1.898" y="0.216" font-size="0.065194" fill="hsl(0.0,100%,20%)">bclayton</text>
<text x="0.928" y="0.564" font-size="0.068023" fill="hsl(180.0,100%,20%)">enga</text>
<text x="0.695" y="0.526" font-size="0.012587" fill="hsl(180.0,100%,20%)">ynovikov</text>
<text x="1.520" y="0.775" font-size="0.072343" fill="hsl(180.0,100%,20%)">cwallez</text>
<text x="1.457" y="0.159" font-size="0.071009" fill="hsl(0.0,100%,20%)">dsinclair</text>
<text x="1.701" y="0.101" font-size="0.074023" fill="hsl(0.0,100%,20%)">jrprice</text>
<text x="0.820" y="0.460" font-size="0.035601" fill="hsl(180.0,100%,20%)">kainino</text>
<text x="1.685" y="0.416" font-size="0.028721" fill="hsl(0.0,100%,20%)">rharrison</text>
<text x="0.731" y="0.807" font-size="0.023020" fill="hsl(180.0,100%,20%)">bsheedy</text>
<text x="1.522" y="0.302" font-size="0.016193" fill="hsl(0.0,100%,20%)">chouinard</text>
<text x="1.954" y="0.450" font-size="0.003305" fill="hsl(0.0,100%,20%)">kbr</text>
<text x="1.573" y="0.246" font-size="0.010711" fill="hsl(0.0,100%,20%)">petermcneeley</text>
<text x="1.181" y="0.611" font-size="0.005226" fill="hsl(0.0,100%,20%)">amir</text>
<text x="0.832" y="0.318" font-size="0.017016" fill="hsl(180.0,100%,20%)">bajones</text>
<text x="1.331" y="0.738" font-size="0.019274" fill="hsl(180.0,100%,20%)">jaswant.panchumarti</text>
<text x="1.432" y="0.626" font-size="0.015504" fill="hsl(180.0,100%,20%)">arthursonzogni</text>
<text x="1.364" y="0.643" font-size="0.002337" fill="hsl(180.0,100%,20%)">khaslett</text>
<text x="0.677" y="0.295" font-size="0.007391" fill="hsl(180.0,100%,20%)">austineng</text>
<text x="0.657" y="0.614" font-size="0.047843" fill="hsl(180.0,100%,20%)">lokokung</text>
<text x="0.192" y="0.211" font-size="0.024514" fill="hsl(180.0,100%,20%)">shrekshao</text>
<text x="0.372" y="0.374" font-size="0.016855" fill="hsl(180.0,100%,20%)">gman</text>
<text x="1.605" y="0.285" font-size="0.028242" fill="hsl(0.0,100%,20%)">dneto</text>
<text x="1.531" y="0.389" font-size="0.002337" fill="hsl(0.0,100%,20%)">brucedawson</text>
<text x="1.090" y="0.796" font-size="0.014024" fill="hsl(180.0,100%,20%)">beaufort.francois</text>
<text x="1.164" y="0.671" font-size="0.012368" fill="hsl(180.0,100%,20%)">bentonian</text>
<text x="0.974" y="0.892" font-size="0.011209" fill="hsl(180.0,100%,20%)">nexa</text>
<text x="1.050" y="0.719" font-size="0.022540" fill="hsl(180.0,100%,20%)">jimblackler</text>
<text x="1.657" y="0.641" font-size="0.016855" fill="hsl(180.0,100%,20%)">blundell</text>
<text x="1.420" y="0.502" font-size="0.004048" fill="hsl(180.0,100%,20%)">nicolettep</text>
<text x="0.530" y="0.717" font-size="0.002337" fill="hsl(180.0,100%,20%)">chanli</text>
<text x="0.845" y="0.764" font-size="0.005725" fill="hsl(180.0,100%,20%)">cduvall</text>
<text x="0.120" y="0.330" font-size="0.027056" fill="hsl(180.0,100%,20%)">senorblanco</text>
<text x="0.849" y="0.702" font-size="0.019555" fill="hsl(180.0,100%,20%)">penghuang</text>
<text x="1.601" y="0.676" font-size="0.002337" fill="hsl(180.0,100%,20%)">fhorschig</text>
<text x="1.166" y="0.634" font-size="0.004675" fill="hsl(180.0,100%,20%)">jamesgk</text>
<text x="1.329" y="0.596" font-size="0.004048" fill="hsl(180.0,100%,20%)">fbeaufort</text>
<text x="1.473" y="0.582" font-size="0.008745" fill="hsl(180.0,100%,20%)">shaobo.yan</text>
<text x="1.195" y="0.851" font-size="0.018844" fill="hsl(180.0,100%,20%)">lehoangquyen</text>
<text x="1.323" y="0.867" font-size="0.040483" fill="hsl(180.0,100%,20%)">jiawei.shao</text>
<text x="0.643" y="0.881" font-size="0.011687" fill="hsl(180.0,100%,20%)">geofflang</text>
<text x="1.397" y="0.704" font-size="0.002337" fill="hsl(180.0,100%,20%)">tiszka</text>
<text x="1.571" y="0.682" font-size="0.002337" fill="hsl(180.0,100%,20%)">hitawala</text>
<text x="1.388" y="0.415" font-size="0.007012" fill="hsl(0.0,100%,20%)">alanbaker</text>
<text x="1.460" y="0.306" font-size="0.002337" fill="hsl(0.0,100%,20%)">yiwzhang</text>
<text x="1.330" y="0.301" font-size="0.002337" fill="hsl(0.0,100%,20%)">ddoman</text>
<text x="1.197" y="0.515" font-size="0.007752" fill="hsl(180.0,100%,20%)">elie.michel.fr</text>
<text x="1.307" y="0.751" font-size="0.014217" fill="hsl(180.0,100%,20%)">jie.a.chen</text>
<text x="1.258" y="0.395" font-size="0.012802" fill="hsl(180.0,100%,20%)">sunnyps</text>
<text x="0.738" y="0.938" font-size="0.002337" fill="hsl(180.0,100%,20%)">fmalita</text>
<text x="1.643" y="0.850" font-size="0.004675" fill="hsl(180.0,100%,20%)">hans</text>
<text x="1.025" y="0.480" font-size="0.013427" fill="hsl(180.0,100%,20%)">hao.x.li</text>
<text x="0.630" y="0.434" font-size="0.006611" fill="hsl(180.0,100%,20%)">hocheung</text>
<text x="0.721" y="0.754" font-size="0.004048" fill="hsl(180.0,100%,20%)">jianlin.qiu</text>
<text x="1.095" y="0.582" font-size="0.012587" fill="hsl(180.0,100%,20%)">zhaoming.jiang</text>
<text x="0.992" y="0.688" font-size="0.002337" fill="hsl(180.0,100%,20%)">artyompp</text>
<text x="0.997" y="0.770" font-size="0.002337" fill="hsl(180.0,100%,20%)">vantablack</text>
<text x="1.912" y="0.852" font-size="0.004048" fill="hsl(0.0,100%,20%)">jojwang</text>
<text x="1.694" y="0.962" font-size="0.002337" fill="hsl(0.0,100%,20%)">gavinmak</text>
<text x="1.859" y="2.027" font-size="0.002337" fill="hsl(0.0,100%,20%)">johnstiles</text>
<text x="1.241" y="0.612" font-size="0.004048" fill="hsl(180.0,100%,20%)">kylechar</text>
<text x="0.423" y="0.587" font-size="0.004048" fill="hsl(180.0,100%,20%)">nickchavez</text>
<text x="1.093" y="0.303" font-size="0.006611" fill="hsl(180.0,100%,20%)">rafael.cintron</text>
<text x="0.955" y="0.636" font-size="0.007012" fill="hsl(180.0,100%,20%)">srijan.dhungana6</text>
</svg>
