<svg width="4000" height="2000" viewBox="-0.025 -0.025 2.05 1.05" xmlns="http://www.w3.org/2000/svg">
  <style>
    path {
      fill: none;
      stroke-linecap: round;
      stroke-opacity: 0.4;
    }

    text {
      text-anchor: middle;
      alignment-baseline: hanging;
    }
  </style>
  <g opacity="0.4">
<path d="M0.629 0.532 Q0.624 0.439 0.442 0.420" stroke="hsl(0.0,100%,35%)" stroke-width="0.00525"></path>
<path d="M0.629 0.532 Q0.851 0.358 0.561 0.212" stroke="hsl(0.0,100%,35%)" stroke-width="0.00388"></path>
<path d="M0.629 0.532 Q0.697 0.346 0.350 0.272" stroke="hsl(0.0,100%,35%)" stroke-width="0.00023"></path>
<path d="M0.629 0.532 Q1.456 0.564 1.699 0.167" stroke="hsl(0.0,100%,35%)" stroke-width="0.00046"></path>
<path d="M0.442 0.420 Q0.788 0.418 0.860 0.249" stroke="hsl(0.0,100%,35%)" stroke-width="0.00251"></path>
<path d="M0.442 0.420 Q0.620 0.486 0.787 0.413" stroke="hsl(0.0,100%,35%)" stroke-width="0.00023"></path>
<path d="M0.442 0.420 Q0.668 0.340 0.561 0.212" stroke="hsl(0.0,100%,35%)" stroke-width="0.01462"></path>
<path d="M0.442 0.420 Q0.668 0.272 0.428 0.129" stroke="hsl(0.0,100%,35%)" stroke-width="0.00183"></path>
<path d="M0.442 0.420 Q0.515 0.328 0.350 0.272" stroke="hsl(0.0,100%,35%)" stroke-width="0.00160"></path>
<path d="M0.442 0.420 Q0.343 0.302 0.090 0.324" stroke="hsl(0.0,100%,35%)" stroke-width="0.00388"></path>
<path d="M0.442 0.420 Q1.147 0.731 1.907 0.455" stroke="hsl(0.0,100%,35%)" stroke-width="0.00525"></path>
<path d="M0.442 0.420 Q0.446 0.513 0.629 0.532" stroke="hsl(0.0,100%,35%)" stroke-width="0.00069"></path>
<path d="M0.442 0.420 Q0.230 0.357 0.059 0.446" stroke="hsl(0.0,100%,35%)" stroke-width="0.00069"></path>
<path d="M0.561 0.212 Q0.408 0.200 0.350 0.272" stroke="hsl(0.0,100%,35%)" stroke-width="0.05641"></path>
<path d="M0.561 0.212 Q0.561 0.144 0.428 0.129" stroke="hsl(0.0,100%,35%)" stroke-width="0.04453"></path>
<path d="M0.561 0.212 Q0.236 0.174 0.090 0.324" stroke="hsl(0.0,100%,35%)" stroke-width="0.05252"></path>
<path d="M0.561 0.212 Q0.681 0.290 0.860 0.249" stroke="hsl(0.0,100%,35%)" stroke-width="0.01302"></path>
<path d="M0.561 0.212 Q0.335 0.292 0.442 0.420" stroke="hsl(0.0,100%,35%)" stroke-width="0.00548"></path>
<path d="M0.561 0.212 Q0.702 0.125 0.563 0.038" stroke="hsl(0.0,100%,35%)" stroke-width="0.00183"></path>
<path d="M0.561 0.212 Q1.040 0.603 1.907 0.455" stroke="hsl(0.0,100%,35%)" stroke-width="0.02603"></path>
<path d="M0.561 0.212 Q0.815 0.634 1.693 0.603" stroke="hsl(0.0,100%,35%)" stroke-width="0.00046"></path>
<path d="M0.561 0.212 Q0.544 0.258 0.629 0.276" stroke="hsl(0.0,100%,35%)" stroke-width="0.00114"></path>
<path d="M0.561 0.212 Q1.166 0.417 1.699 0.167" stroke="hsl(0.0,100%,35%)" stroke-width="0.00046"></path>
<path d="M0.561 0.212 Q0.537 0.622 1.330 0.723" stroke="hsl(0.0,100%,35%)" stroke-width="0.00023"></path>
<path d="M0.561 0.212 Q1.175 0.329 1.538 0.056" stroke="hsl(0.0,100%,35%)" stroke-width="0.00023"></path>
<path d="M0.561 0.212 Q0.820 0.410 1.263 0.327" stroke="hsl(0.0,100%,35%)" stroke-width="0.00023"></path>
<path d="M0.561 0.212 Q0.510 0.064 0.209 0.057" stroke="hsl(0.0,100%,35%)" stroke-width="0.00046"></path>
<path d="M0.350 0.272 Q0.503 0.284 0.561 0.212" stroke="hsl(0.0,100%,35%)" stroke-width="0.03197"></path>
<path d="M0.350 0.272 Q0.178 0.246 0.090 0.324" stroke="hsl(0.0,100%,35%)" stroke-width="0.00411"></path>
<path d="M0.350 0.272 Q0.503 0.216 0.428 0.129" stroke="hsl(0.0,100%,35%)" stroke-width="0.00297"></path>
<path d="M0.350 0.272 Q0.982 0.675 1.907 0.455" stroke="hsl(0.0,100%,35%)" stroke-width="0.00206"></path>
<path d="M0.350 0.272 Q0.623 0.362 0.860 0.249" stroke="hsl(0.0,100%,35%)" stroke-width="0.00069"></path>
<path d="M1.699 0.167 Q0.868 0.042 0.442 0.420" stroke="hsl(0.0,100%,35%)" stroke-width="0.00091"></path>
<path d="M1.699 0.167 Q1.094 -0.038 0.561 0.212" stroke="hsl(0.0,100%,35%)" stroke-width="0.00137"></path>
<path d="M1.699 0.167 Q0.872 0.135 0.629 0.532" stroke="hsl(0.0,100%,35%)" stroke-width="0.00046"></path>
<path d="M1.699 0.167 Q1.708 0.079 1.538 0.056" stroke="hsl(0.0,100%,35%)" stroke-width="0.00046"></path>
<path d="M1.699 0.167 Q1.094 -0.107 0.428 0.129" stroke="hsl(0.0,100%,35%)" stroke-width="0.00023"></path>
<path d="M1.174 0.360 Q1.464 0.554 1.907 0.455" stroke="hsl(180.0,100%,35%)" stroke-width="0.00046"></path>
<path d="M1.174 0.360 Q1.105 0.242 0.860 0.249" stroke="hsl(180.0,100%,35%)" stroke-width="0.00023"></path>
<path d="M1.174 0.360 Q0.986 0.164 0.561 0.212" stroke="hsl(180.0,100%,35%)" stroke-width="0.00023"></path>
<path d="M1.907 0.455 Q1.682 0.486 1.693 0.603" stroke="hsl(180.0,100%,35%)" stroke-width="0.00731"></path>
<path d="M1.907 0.455 Q1.548 0.143 0.860 0.249" stroke="hsl(180.0,100%,35%)" stroke-width="0.02443"></path>
<path d="M1.907 0.455 Q1.822 0.150 1.208 0.124" stroke="hsl(180.0,100%,35%)" stroke-width="0.00457"></path>
<path d="M1.907 0.455 Q1.428 0.065 0.561 0.212" stroke="hsl(180.0,100%,35%)" stroke-width="0.01096"></path>
<path d="M1.907 0.455 Q1.103 0.026 0.090 0.324" stroke="hsl(180.0,100%,35%)" stroke-width="0.00046"></path>
<path d="M1.907 0.455 Q1.202 0.145 0.442 0.420" stroke="hsl(180.0,100%,35%)" stroke-width="0.00206"></path>
<path d="M1.907 0.455 Q1.404 0.474 1.330 0.723" stroke="hsl(180.0,100%,35%)" stroke-width="0.00228"></path>
<path d="M1.907 0.455 Q2.074 0.380 1.965 0.283" stroke="hsl(180.0,100%,35%)" stroke-width="0.00023"></path>
<path d="M1.907 0.455 Q1.539 0.438 1.425 0.614" stroke="hsl(180.0,100%,35%)" stroke-width="0.00046"></path>
<path d="M1.907 0.455 Q1.670 0.417 1.545 0.524" stroke="hsl(180.0,100%,35%)" stroke-width="0.00023"></path>
<path d="M1.907 0.455 Q1.759 0.214 1.256 0.234" stroke="hsl(180.0,100%,35%)" stroke-width="0.00023"></path>
<path d="M1.907 0.455 Q1.569 -0.022 0.563 0.038" stroke="hsl(180.0,100%,35%)" stroke-width="0.00525"></path>
<path d="M1.907 0.455 Q1.381 0.210 0.787 0.413" stroke="hsl(180.0,100%,35%)" stroke-width="0.00023"></path>
<path d="M1.907 0.455 Q1.641 0.378 1.433 0.491" stroke="hsl(180.0,100%,35%)" stroke-width="0.00251"></path>
<path d="M1.907 0.455 Q0.975 0.426 0.714 0.874" stroke="hsl(180.0,100%,35%)" stroke-width="0.00023"></path>
<path d="M1.907 0.455 Q1.633 0.608 1.871 0.775" stroke="hsl(180.0,100%,35%)" stroke-width="0.00023"></path>
<path d="M1.907 0.455 Q1.275 0.052 0.350 0.272" stroke="hsl(180.0,100%,35%)" stroke-width="0.00023"></path>
<path d="M0.860 0.249 Q0.716 0.580 1.330 0.723" stroke="hsl(180.0,100%,35%)" stroke-width="0.00457"></path>
<path d="M0.860 0.249 Q0.994 0.593 1.693 0.603" stroke="hsl(180.0,100%,35%)" stroke-width="0.00297"></path>
<path d="M0.860 0.249 Q1.135 0.256 1.208 0.124" stroke="hsl(180.0,100%,35%)" stroke-width="0.00594"></path>
<path d="M0.860 0.249 Q0.953 0.485 1.433 0.491" stroke="hsl(180.0,100%,35%)" stroke-width="0.00411"></path>
<path d="M0.860 0.249 Q0.693 0.317 0.787 0.413" stroke="hsl(180.0,100%,35%)" stroke-width="0.00091"></path>
<path d="M0.860 0.249 Q1.219 0.562 1.907 0.455" stroke="hsl(180.0,100%,35%)" stroke-width="0.01439"></path>
<path d="M0.860 0.249 Q0.741 0.171 0.561 0.212" stroke="hsl(180.0,100%,35%)" stroke-width="0.00251"></path>
<path d="M0.860 0.249 Q1.386 0.487 1.965 0.283" stroke="hsl(180.0,100%,35%)" stroke-width="0.00046"></path>
<path d="M0.860 0.249 Q0.587 0.158 0.350 0.272" stroke="hsl(180.0,100%,35%)" stroke-width="0.00023"></path>
<path d="M0.860 0.249 Q0.514 0.251 0.442 0.420" stroke="hsl(180.0,100%,35%)" stroke-width="0.00046"></path>
<path d="M0.860 0.249 Q0.415 0.133 0.090 0.324" stroke="hsl(180.0,100%,35%)" stroke-width="0.00091"></path>
<path d="M0.860 0.249 Q0.351 0.615 0.953 0.944" stroke="hsl(180.0,100%,35%)" stroke-width="0.00046"></path>
<path d="M0.860 0.249 Q0.740 0.102 0.428 0.129" stroke="hsl(180.0,100%,35%)" stroke-width="0.00023"></path>
<path d="M0.860 0.249 Q0.881 0.084 0.563 0.038" stroke="hsl(180.0,100%,35%)" stroke-width="0.00297"></path>
<path d="M0.860 0.249 Q0.895 0.297 0.995 0.290" stroke="hsl(180.0,100%,35%)" stroke-width="0.00069"></path>
<path d="M0.860 0.249 Q0.663 0.283 0.685 0.386" stroke="hsl(180.0,100%,35%)" stroke-width="0.00023"></path>
<path d="M0.860 0.249 Q0.744 0.389 0.991 0.476" stroke="hsl(180.0,100%,35%)" stroke-width="0.00114"></path>
<path d="M0.090 0.324 Q0.415 0.362 0.561 0.212" stroke="hsl(0.0,100%,35%)" stroke-width="0.04111"></path>
<path d="M0.090 0.324 Q0.391 0.772 1.330 0.723" stroke="hsl(0.0,100%,35%)" stroke-width="0.00046"></path>
<path d="M0.090 0.324 Q0.415 0.294 0.428 0.129" stroke="hsl(0.0,100%,35%)" stroke-width="0.00228"></path>
<path d="M0.090 0.324 Q0.894 0.753 1.907 0.455" stroke="hsl(0.0,100%,35%)" stroke-width="0.00343"></path>
<path d="M0.090 0.324 Q0.262 0.350 0.350 0.272" stroke="hsl(0.0,100%,35%)" stroke-width="0.00206"></path>
<path d="M0.090 0.324 Q0.535 0.441 0.860 0.249" stroke="hsl(0.0,100%,35%)" stroke-width="0.00160"></path>
<path d="M0.090 0.324 Q0.398 0.408 0.629 0.276" stroke="hsl(0.0,100%,35%)" stroke-width="0.00046"></path>
<path d="M0.090 0.324 Q0.189 0.442 0.442 0.420" stroke="hsl(0.0,100%,35%)" stroke-width="0.00114"></path>
<path d="M0.090 0.324 Q0.669 0.784 1.693 0.603" stroke="hsl(0.0,100%,35%)" stroke-width="0.00023"></path>
<path d="M0.428 0.129 Q0.428 0.197 0.561 0.212" stroke="hsl(0.0,100%,35%)" stroke-width="0.01644"></path>
<path d="M0.428 0.129 Q0.547 0.275 0.860 0.249" stroke="hsl(0.0,100%,35%)" stroke-width="0.00023"></path>
<path d="M0.428 0.129 Q0.274 0.185 0.350 0.272" stroke="hsl(0.0,100%,35%)" stroke-width="0.00297"></path>
<path d="M0.428 0.129 Q0.102 0.159 0.090 0.324" stroke="hsl(0.0,100%,35%)" stroke-width="0.01233"></path>
<path d="M0.428 0.129 Q0.376 0.049 0.209 0.057" stroke="hsl(0.0,100%,35%)" stroke-width="0.00891"></path>
<path d="M0.428 0.129 Q0.906 0.588 1.907 0.455" stroke="hsl(0.0,100%,35%)" stroke-width="0.00023"></path>
<path d="M0.428 0.129 Q0.201 0.277 0.442 0.420" stroke="hsl(0.0,100%,35%)" stroke-width="0.00046"></path>
<path d="M1.693 0.603 Q1.559 0.259 0.860 0.249" stroke="hsl(180.0,100%,35%)" stroke-width="0.00822"></path>
<path d="M1.693 0.603 Q1.834 0.266 1.208 0.124" stroke="hsl(180.0,100%,35%)" stroke-width="0.00023"></path>
<path d="M1.693 0.603 Q1.392 0.327 0.787 0.413" stroke="hsl(180.0,100%,35%)" stroke-width="0.00046"></path>
<path d="M1.693 0.603 Q1.918 0.572 1.907 0.455" stroke="hsl(180.0,100%,35%)" stroke-width="0.00685"></path>
<path d="M1.693 0.603 Q1.440 0.181 0.561 0.212" stroke="hsl(180.0,100%,35%)" stroke-width="0.00046"></path>
<path d="M1.693 0.603 Q1.415 0.590 1.330 0.723" stroke="hsl(180.0,100%,35%)" stroke-width="0.00434"></path>
<path d="M1.693 0.603 Q1.115 0.143 0.090 0.324" stroke="hsl(180.0,100%,35%)" stroke-width="0.00023"></path>
<path d="M1.693 0.603 Q1.585 0.601 1.557 0.653" stroke="hsl(180.0,100%,35%)" stroke-width="0.00023"></path>
<path d="M1.208 0.124 Q0.933 0.117 0.860 0.249" stroke="hsl(180.0,100%,35%)" stroke-width="0.00617"></path>
<path d="M1.208 0.124 Q0.766 0.184 0.787 0.413" stroke="hsl(180.0,100%,35%)" stroke-width="0.00046"></path>
<path d="M1.208 0.124 Q0.789 0.448 1.330 0.723" stroke="hsl(180.0,100%,35%)" stroke-width="0.00069"></path>
<path d="M1.208 0.124 Q1.292 0.429 1.907 0.455" stroke="hsl(180.0,100%,35%)" stroke-width="0.00274"></path>
<path d="M0.787 0.413 Q0.955 0.346 0.860 0.249" stroke="hsl(180.0,100%,35%)" stroke-width="0.00525"></path>
<path d="M0.787 0.413 Q1.088 0.689 1.693 0.603" stroke="hsl(180.0,100%,35%)" stroke-width="0.00023"></path>
<path d="M0.787 0.413 Q0.810 0.677 1.330 0.723" stroke="hsl(180.0,100%,35%)" stroke-width="0.00069"></path>
<path d="M0.787 0.413 Q0.835 0.268 0.561 0.212" stroke="hsl(180.0,100%,35%)" stroke-width="0.00046"></path>
<path d="M0.787 0.413 Q1.313 0.658 1.907 0.455" stroke="hsl(180.0,100%,35%)" stroke-width="0.00160"></path>
<path d="M0.787 0.413 Q0.510 0.229 0.090 0.324" stroke="hsl(180.0,100%,35%)" stroke-width="0.00023"></path>
<path d="M0.787 0.413 Q0.609 0.348 0.442 0.420" stroke="hsl(180.0,100%,35%)" stroke-width="0.00046"></path>
<path d="M1.330 0.723 Q1.474 0.392 0.860 0.249" stroke="hsl(180.0,100%,35%)" stroke-width="0.00228"></path>
<path d="M1.330 0.723 Q1.833 0.705 1.907 0.455" stroke="hsl(180.0,100%,35%)" stroke-width="0.00091"></path>
<path d="M1.330 0.723 Q1.749 0.399 1.208 0.124" stroke="hsl(180.0,100%,35%)" stroke-width="0.00046"></path>
<path d="M1.330 0.723 Q1.608 0.736 1.693 0.603" stroke="hsl(180.0,100%,35%)" stroke-width="0.00023"></path>
<path d="M0.563 0.038 Q0.423 0.125 0.561 0.212" stroke="hsl(0.0,100%,35%)" stroke-width="0.01621"></path>
<path d="M0.563 0.038 Q0.543 0.203 0.860 0.249" stroke="hsl(0.0,100%,35%)" stroke-width="0.00343"></path>
<path d="M0.563 0.038 Q0.902 0.515 1.907 0.455" stroke="hsl(0.0,100%,35%)" stroke-width="0.00206"></path>
<path d="M0.563 0.038 Q0.423 0.056 0.428 0.129" stroke="hsl(0.0,100%,35%)" stroke-width="0.00069"></path>
<path d="M0.563 0.038 Q0.098 0.086 0.090 0.324" stroke="hsl(0.0,100%,35%)" stroke-width="0.00069"></path>
<path d="M0.563 0.038 Q0.398 0.534 1.330 0.723" stroke="hsl(0.0,100%,35%)" stroke-width="0.00069"></path>
<path d="M0.629 0.276 Q0.646 0.231 0.561 0.212" stroke="hsl(0.0,100%,35%)" stroke-width="0.00799"></path>
<path d="M0.629 0.276 Q0.493 0.218 0.350 0.272" stroke="hsl(0.0,100%,35%)" stroke-width="0.00343"></path>
<path d="M0.629 0.276 Q0.321 0.192 0.090 0.324" stroke="hsl(0.0,100%,35%)" stroke-width="0.00160"></path>
<path d="M0.629 0.276 Q0.622 0.640 1.330 0.723" stroke="hsl(0.0,100%,35%)" stroke-width="0.00046"></path>
<path d="M1.263 0.327 Q0.851 0.117 0.350 0.272" stroke="hsl(180.0,100%,35%)" stroke-width="0.00023"></path>
<path d="M1.263 0.327 Q1.004 0.129 0.561 0.212" stroke="hsl(180.0,100%,35%)" stroke-width="0.00251"></path>
<path d="M1.263 0.327 Q1.124 0.208 0.860 0.249" stroke="hsl(180.0,100%,35%)" stroke-width="0.00274"></path>
<path d="M1.263 0.327 Q1.398 0.214 1.208 0.124" stroke="hsl(180.0,100%,35%)" stroke-width="0.00023"></path>
<path d="M1.263 0.327 Q1.482 0.520 1.907 0.455" stroke="hsl(180.0,100%,35%)" stroke-width="0.00183"></path>
<path d="M1.263 0.327 Q0.979 0.539 1.330 0.723" stroke="hsl(180.0,100%,35%)" stroke-width="0.00046"></path>
<path d="M1.263 0.327 Q0.778 0.210 0.442 0.420" stroke="hsl(180.0,100%,35%)" stroke-width="0.00023"></path>
<path d="M1.263 0.327 Q1.004 0.061 0.428 0.129" stroke="hsl(180.0,100%,35%)" stroke-width="0.00023"></path>
<path d="M1.425 0.614 Q1.793 0.631 1.907 0.455" stroke="hsl(180.0,100%,35%)" stroke-width="0.00091"></path>
<path d="M1.425 0.614 Q1.434 0.318 0.860 0.249" stroke="hsl(180.0,100%,35%)" stroke-width="0.00023"></path>
<path d="M1.425 0.614 Q1.568 0.662 1.693 0.603" stroke="hsl(180.0,100%,35%)" stroke-width="0.00023"></path>
<path d="M0.995 0.290 Q0.960 0.243 0.860 0.249" stroke="hsl(180.0,100%,35%)" stroke-width="0.00228"></path>
<path d="M0.995 0.290 Q1.319 0.555 1.907 0.455" stroke="hsl(180.0,100%,35%)" stroke-width="0.00183"></path>
<path d="M0.995 0.290 Q0.451 0.609 0.953 0.944" stroke="hsl(180.0,100%,35%)" stroke-width="0.00023"></path>
<path d="M0.996 0.343 Q1.362 0.581 1.907 0.455" stroke="hsl(180.0,100%,35%)" stroke-width="0.00160"></path>
<path d="M0.996 0.343 Q1.003 0.269 0.860 0.249" stroke="hsl(180.0,100%,35%)" stroke-width="0.00069"></path>
<path d="M0.996 0.343 Q0.494 0.635 0.953 0.944" stroke="hsl(180.0,100%,35%)" stroke-width="0.00023"></path>
<path d="M1.965 0.283 Q1.439 0.045 0.860 0.249" stroke="hsl(180.0,100%,35%)" stroke-width="0.00411"></path>
<path d="M1.965 0.283 Q1.295 0.376 1.330 0.723" stroke="hsl(180.0,100%,35%)" stroke-width="0.00023"></path>
<path d="M1.965 0.283 Q1.272 0.112 0.787 0.413" stroke="hsl(180.0,100%,35%)" stroke-width="0.00023"></path>
<path d="M1.965 0.283 Q1.798 0.357 1.907 0.455" stroke="hsl(180.0,100%,35%)" stroke-width="0.00502"></path>
<path d="M1.965 0.283 Q1.573 0.388 1.693 0.603" stroke="hsl(180.0,100%,35%)" stroke-width="0.00023"></path>
<path d="M1.965 0.283 Q1.532 0.280 1.433 0.491" stroke="hsl(180.0,100%,35%)" stroke-width="0.00137"></path>
<path d="M1.256 0.234 Q1.046 0.162 0.860 0.249" stroke="hsl(180.0,100%,35%)" stroke-width="0.00114"></path>
<path d="M1.256 0.234 Q1.404 0.474 1.907 0.455" stroke="hsl(180.0,100%,35%)" stroke-width="0.00069"></path>
<path d="M1.256 0.234 Q0.700 0.164 0.442 0.420" stroke="hsl(180.0,100%,35%)" stroke-width="0.00023"></path>
<path d="M1.256 0.234 Q0.926 0.084 0.561 0.212" stroke="hsl(180.0,100%,35%)" stroke-width="0.00046"></path>
<path d="M1.256 0.234 Q0.926 0.015 0.428 0.129" stroke="hsl(180.0,100%,35%)" stroke-width="0.00023"></path>
<path d="M1.433 0.491 Q1.340 0.256 0.860 0.249" stroke="hsl(180.0,100%,35%)" stroke-width="0.01210"></path>
<path d="M1.433 0.491 Q1.220 0.177 0.561 0.212" stroke="hsl(180.0,100%,35%)" stroke-width="0.00046"></path>
<path d="M1.433 0.491 Q1.614 0.262 1.208 0.124" stroke="hsl(180.0,100%,35%)" stroke-width="0.00046"></path>
<path d="M1.433 0.491 Q1.474 0.599 1.693 0.603" stroke="hsl(180.0,100%,35%)" stroke-width="0.00046"></path>
<path d="M1.433 0.491 Q1.699 0.568 1.907 0.455" stroke="hsl(180.0,100%,35%)" stroke-width="0.01028"></path>
<path d="M1.433 0.491 Q1.468 0.302 1.106 0.243" stroke="hsl(180.0,100%,35%)" stroke-width="0.00023"></path>
<path d="M1.433 0.491 Q1.538 0.507 1.592 0.460" stroke="hsl(180.0,100%,35%)" stroke-width="0.00023"></path>
<path d="M1.433 0.491 Q1.361 0.091 0.563 0.038" stroke="hsl(180.0,100%,35%)" stroke-width="0.00046"></path>
<path d="M1.433 0.491 Q1.196 0.587 1.330 0.723" stroke="hsl(180.0,100%,35%)" stroke-width="0.00046"></path>
<path d="M1.433 0.491 Q0.994 0.257 0.442 0.420" stroke="hsl(180.0,100%,35%)" stroke-width="0.00046"></path>
<path d="M0.714 0.874 Q1.286 0.591 0.860 0.249" stroke="hsl(180.0,100%,35%)" stroke-width="0.00091"></path>
<path d="M0.714 0.874 Q1.380 0.826 1.433 0.491" stroke="hsl(180.0,100%,35%)" stroke-width="0.00069"></path>
<path d="M0.714 0.874 Q1.645 0.903 1.907 0.455" stroke="hsl(180.0,100%,35%)" stroke-width="0.00046"></path>
<path d="M0.714 0.874 Q0.777 0.957 0.953 0.944" stroke="hsl(180.0,100%,35%)" stroke-width="0.00046"></path>
<path d="M0.991 0.476 Q1.465 0.648 1.907 0.455" stroke="hsl(180.0,100%,35%)" stroke-width="0.00708"></path>
<path d="M0.991 0.476 Q1.106 0.336 0.860 0.249" stroke="hsl(180.0,100%,35%)" stroke-width="0.00799"></path>
<path d="M0.991 0.476 Q0.962 0.667 1.330 0.723" stroke="hsl(180.0,100%,35%)" stroke-width="0.00091"></path>
<path d="M0.991 0.476 Q1.200 0.572 1.433 0.491" stroke="hsl(180.0,100%,35%)" stroke-width="0.00137"></path>
<path d="M1.687 0.766 Q2.046 0.654 1.907 0.455" stroke="hsl(180.0,100%,35%)" stroke-width="0.00023"></path>
<path d="M1.687 0.766 Q1.454 0.762 1.396 0.875" stroke="hsl(180.0,100%,35%)" stroke-width="0.00023"></path>
<path d="M1.687 0.766 Q1.772 0.807 1.871 0.775" stroke="hsl(180.0,100%,35%)" stroke-width="0.00023"></path>
<path d="M1.106 0.243 Q0.978 0.197 0.860 0.249" stroke="hsl(180.0,100%,35%)" stroke-width="0.00228"></path>
<path d="M1.106 0.243 Q1.071 0.433 1.433 0.491" stroke="hsl(180.0,100%,35%)" stroke-width="0.00046"></path>
<path d="M1.106 0.243 Q1.337 0.509 1.907 0.455" stroke="hsl(180.0,100%,35%)" stroke-width="0.00228"></path>
<path d="M1.106 0.243 Q0.834 0.528 1.330 0.723" stroke="hsl(180.0,100%,35%)" stroke-width="0.00046"></path>
<path d="M1.592 0.460 Q1.250 0.539 1.330 0.723" stroke="hsl(180.0,100%,35%)" stroke-width="0.00114"></path>
<path d="M1.592 0.460 Q1.323 0.437 1.218 0.563" stroke="hsl(180.0,100%,35%)" stroke-width="0.00023"></path>
<path d="M1.592 0.460 Q1.753 0.520 1.907 0.455" stroke="hsl(180.0,100%,35%)" stroke-width="0.00388"></path>
<path d="M1.592 0.460 Q1.395 0.208 0.860 0.249" stroke="hsl(180.0,100%,35%)" stroke-width="0.00274"></path>
<path d="M1.592 0.460 Q1.488 0.444 1.433 0.491" stroke="hsl(180.0,100%,35%)" stroke-width="0.00046"></path>
<path d="M1.592 0.460 Q1.275 0.130 0.561 0.212" stroke="hsl(180.0,100%,35%)" stroke-width="0.00023"></path>
<path d="M0.957 0.064 Q1.119 0.450 1.907 0.455" stroke="hsl(180.0,100%,35%)" stroke-width="0.00114"></path>
<path d="M0.957 0.064 Q0.760 0.137 0.860 0.249" stroke="hsl(180.0,100%,35%)" stroke-width="0.00114"></path>
<path d="M0.957 0.064 Q0.853 0.373 1.433 0.491" stroke="hsl(180.0,100%,35%)" stroke-width="0.00023"></path>
<path d="M1.404 0.314 Q1.542 0.485 1.907 0.455" stroke="hsl(180.0,100%,35%)" stroke-width="0.00274"></path>
<path d="M1.404 0.314 Q1.184 0.173 0.860 0.249" stroke="hsl(180.0,100%,35%)" stroke-width="0.00228"></path>
<path d="M1.404 0.314 Q1.191 0.343 1.201 0.453" stroke="hsl(180.0,100%,35%)" stroke-width="0.00023"></path>
<path d="M1.404 0.314 Q1.277 0.408 1.433 0.491" stroke="hsl(180.0,100%,35%)" stroke-width="0.00069"></path>
<path d="M1.934 0.551 Q1.293 0.187 0.442 0.420" stroke="hsl(180.0,100%,35%)" stroke-width="0.00023"></path>
<path d="M1.934 0.551 Q1.998 0.498 1.907 0.455" stroke="hsl(180.0,100%,35%)" stroke-width="0.00046"></path>
<path d="M1.934 0.551 Q1.494 0.517 1.330 0.723" stroke="hsl(180.0,100%,35%)" stroke-width="0.00023"></path>
<path d="M1.934 0.551 Q1.639 0.186 0.860 0.249" stroke="hsl(180.0,100%,35%)" stroke-width="0.00023"></path>
<path d="M1.412 0.337 Q1.206 0.183 0.860 0.249" stroke="hsl(180.0,100%,35%)" stroke-width="0.00069"></path>
<path d="M1.412 0.337 Q1.481 0.189 1.208 0.124" stroke="hsl(180.0,100%,35%)" stroke-width="0.00046"></path>
<path d="M1.412 0.337 Q1.565 0.495 1.907 0.455" stroke="hsl(180.0,100%,35%)" stroke-width="0.00023"></path>
<path d="M1.928 0.585 Q2.021 0.516 1.907 0.455" stroke="hsl(180.0,100%,35%)" stroke-width="0.00137"></path>
<path d="M1.928 0.585 Q1.663 0.204 0.860 0.249" stroke="hsl(180.0,100%,35%)" stroke-width="0.00091"></path>
<path d="M1.928 0.585 Q1.518 0.535 1.330 0.723" stroke="hsl(180.0,100%,35%)" stroke-width="0.00023"></path>
<path d="M1.648 0.405 Q1.033 0.171 0.442 0.420" stroke="hsl(180.0,100%,35%)" stroke-width="0.00046"></path>
<path d="M1.648 0.405 Q1.738 0.482 1.907 0.455" stroke="hsl(180.0,100%,35%)" stroke-width="0.00046"></path>
<path d="M1.648 0.405 Q1.259 0.091 0.561 0.212" stroke="hsl(180.0,100%,35%)" stroke-width="0.00023"></path>
<path d="M1.653 0.293 Q1.292 0.113 0.860 0.249" stroke="hsl(180.0,100%,35%)" stroke-width="0.00046"></path>
<path d="M1.653 0.293 Q1.818 0.350 1.965 0.283" stroke="hsl(180.0,100%,35%)" stroke-width="0.00023"></path>
<path d="M1.653 0.293 Q1.385 0.348 1.433 0.491" stroke="hsl(180.0,100%,35%)" stroke-width="0.00069"></path>
<path d="M1.653 0.293 Q1.651 0.425 1.907 0.455" stroke="hsl(180.0,100%,35%)" stroke-width="0.00069"></path>
</g>
<text x="0.629" y="0.523" font-size="0.017979" fill="hsl(0.0,100%,20%)">afdx</text>
<text x="0.442" y="0.401" font-size="0.038050" fill="hsl(0.0,100%,20%)">rharrison</text>
<text x="0.561" y="0.161" font-size="0.102330" fill="hsl(0.0,100%,20%)">bclayton</text>
<text x="0.350" y="0.243" font-size="0.056735" fill="hsl(0.0,100%,20%)">amaiorano</text>
<text x="1.699" y="0.161" font-size="0.011311" fill="hsl(0.0,100%,20%)">vasniktel</text>
<text x="1.174" y="0.357" font-size="0.005190" fill="hsl(180.0,100%,20%)">aleksi</text>
<text x="1.907" y="0.420" font-size="0.071020" fill="hsl(180.0,100%,20%)">cwallez</text>
<text x="0.860" y="0.216" font-size="0.067420" fill="hsl(180.0,100%,20%)">enga</text>
<text x="0.090" y="0.293" font-size="0.061846" fill="hsl(0.0,100%,20%)">jrprice</text>
<text x="0.428" y="0.102" font-size="0.052864" fill="hsl(0.0,100%,20%)">dneto</text>
<text x="1.693" y="0.587" font-size="0.031355" fill="hsl(180.0,100%,20%)">bajones</text>
<text x="1.208" y="0.111" font-size="0.025689" fill="hsl(180.0,100%,20%)">lokokung</text>
<text x="0.787" y="0.404" font-size="0.018349" fill="hsl(180.0,100%,20%)">shrekshao</text>
<text x="1.330" y="0.711" font-size="0.025689" fill="hsl(180.0,100%,20%)">kainino</text>
<text x="1.557" y="0.652" font-size="0.002595" fill="hsl(180.0,100%,20%)">headlessclayton</text>
<text x="0.563" y="0.022" font-size="0.031782" fill="hsl(0.0,100%,20%)">senorblanco</text>
<text x="0.629" y="0.265" font-size="0.021082" fill="hsl(0.0,100%,20%)">sarahmashay</text>
<text x="1.538" y="0.054" font-size="0.004495" fill="hsl(0.0,100%,20%)">allydonaldson</text>
<text x="1.263" y="0.319" font-size="0.015997" fill="hsl(180.0,100%,20%)">brandon1.jones</text>
<text x="0.209" y="0.048" font-size="0.016616" fill="hsl(0.0,100%,20%)">alanbaker</text>
<text x="1.425" y="0.610" font-size="0.007340" fill="hsl(180.0,100%,20%)">beaufort.francois</text>
<text x="0.995" y="0.284" font-size="0.012172" fill="hsl(180.0,100%,20%)">bryan.bernhart</text>
<text x="0.953" y="0.941" font-size="0.006356" fill="hsl(180.0,100%,20%)">rafael.cintron</text>
<text x="0.996" y="0.338" font-size="0.008607" fill="hsl(180.0,100%,20%)">cjj19970505</text>
<text x="1.965" y="0.273" font-size="0.018892" fill="hsl(180.0,100%,20%)">hao.x.li</text>
<text x="1.545" y="0.523" font-size="0.002595" fill="hsl(180.0,100%,20%)">fbeaufort</text>
<text x="1.256" y="0.229" font-size="0.009356" fill="hsl(180.0,100%,20%)">rockot</text>
<text x="1.433" y="0.474" font-size="0.033535" fill="hsl(180.0,100%,20%)">jiawei.shao</text>
<text x="0.714" y="0.869" font-size="0.008989" fill="hsl(180.0,100%,20%)">jiajia.qin</text>
<text x="1.871" y="0.773" font-size="0.003670" fill="hsl(180.0,100%,20%)">thakis</text>
<text x="0.685" y="0.385" font-size="0.002595" fill="hsl(180.0,100%,20%)">hob</text>
<text x="0.991" y="0.464" font-size="0.023355" fill="hsl(180.0,100%,20%)">yunchao.he</text>
<text x="1.687" y="0.763" font-size="0.004495" fill="hsl(180.0,100%,20%)">hans</text>
<text x="1.396" y="0.874" font-size="0.002595" fill="hsl(180.0,100%,20%)">hwennborg</text>
<text x="1.106" y="0.237" font-size="0.012975" fill="hsl(180.0,100%,20%)">shaobo.yan</text>
<text x="1.592" y="0.452" font-size="0.016206" fill="hsl(180.0,100%,20%)">zhaoming.jiang</text>
<text x="0.957" y="0.060" font-size="0.008607" fill="hsl(180.0,100%,20%)">jie.a.chen</text>
<text x="1.404" y="0.307" font-size="0.013232" fill="hsl(180.0,100%,20%)">junwei.fu</text>
<text x="1.201" y="0.452" font-size="0.002595" fill="hsl(180.0,100%,20%)">ningxin.hu</text>
<text x="1.934" y="0.548" font-size="0.005803" fill="hsl(180.0,100%,20%)">pkasting</text>
<text x="0.059" y="0.444" font-size="0.004495" fill="hsl(0.0,100%,20%)">jmadill</text>
<text x="1.412" y="0.334" font-size="0.006356" fill="hsl(180.0,100%,20%)">sunnyps</text>
<text x="1.928" y="0.581" font-size="0.008607" fill="hsl(180.0,100%,20%)">tangm</text>
<text x="1.648" y="0.402" font-size="0.005803" fill="hsl(180.0,100%,20%)">vadimsh</text>
<text x="1.653" y="0.289" font-size="0.007785" fill="hsl(180.0,100%,20%)">yang.gu</text>
<text x="1.218" y="0.562" font-size="0.002595" fill="hsl(180.0,100%,20%)">ynovikov</text>
</svg>
