<svg width="4000" height="2000" viewBox="-0.025 -0.025 2.05 1.05" xmlns="http://www.w3.org/2000/svg">
  <style>
    path {
      fill: none;
      stroke-linecap: round;
      stroke-opacity: 0.4;
    }

    text {
      text-anchor: middle;
      alignment-baseline: hanging;
    }
  </style>
  <g opacity="0.4">
<path d="M0.398 0.514 Q0.427 0.455 0.319 0.429" stroke="hsl(0.0,100%,35%)" stroke-width="0.00124"></path>
<path d="M0.398 0.514 Q0.308 0.650 0.554 0.723" stroke="hsl(0.0,100%,35%)" stroke-width="0.00082"></path>
<path d="M0.398 0.514 Q1.184 0.751 1.819 0.419" stroke="hsl(0.0,100%,35%)" stroke-width="0.00041"></path>
<path d="M0.398 0.514 Q0.530 0.637 0.799 0.600" stroke="hsl(0.0,100%,35%)" stroke-width="0.00041"></path>
<path d="M0.319 0.429 Q1.005 0.636 1.559 0.347" stroke="hsl(0.0,100%,35%)" stroke-width="0.00990"></path>
<path d="M0.319 0.429 Q0.201 0.623 0.554 0.723" stroke="hsl(0.0,100%,35%)" stroke-width="0.02186"></path>
<path d="M0.319 0.429 Q0.422 0.610 0.799 0.600" stroke="hsl(0.0,100%,35%)" stroke-width="0.00165"></path>
<path d="M0.319 0.429 Q0.529 0.454 0.624 0.357" stroke="hsl(0.0,100%,35%)" stroke-width="0.00021"></path>
<path d="M0.319 0.429 Q0.331 0.557 0.584 0.580" stroke="hsl(0.0,100%,35%)" stroke-width="0.01134"></path>
<path d="M0.319 0.429 Q1.222 0.658 1.867 0.267" stroke="hsl(0.0,100%,35%)" stroke-width="0.00021"></path>
<path d="M0.319 0.429 Q1.077 0.724 1.819 0.419" stroke="hsl(0.0,100%,35%)" stroke-width="0.00062"></path>
<path d="M0.319 0.429 Q0.039 0.607 0.325 0.783" stroke="hsl(0.0,100%,35%)" stroke-width="0.00041"></path>
<path d="M0.319 0.429 Q0.080 0.487 0.140 0.616" stroke="hsl(0.0,100%,35%)" stroke-width="0.00021"></path>
<path d="M0.319 0.429 Q0.717 0.440 0.827 0.249" stroke="hsl(0.0,100%,35%)" stroke-width="0.00041"></path>
<path d="M0.319 0.429 Q0.318 0.784 1.010 0.863" stroke="hsl(0.0,100%,35%)" stroke-width="0.00165"></path>
<path d="M0.319 0.429 Q0.578 0.437 0.651 0.313" stroke="hsl(0.0,100%,35%)" stroke-width="0.00021"></path>
<path d="M0.319 0.429 Q0.923 0.498 1.191 0.219" stroke="hsl(0.0,100%,35%)" stroke-width="0.00021"></path>
<path d="M0.319 0.429 Q0.026 0.674 0.440 0.871" stroke="hsl(0.0,100%,35%)" stroke-width="0.00041"></path>
<path d="M0.319 0.429 Q0.172 0.687 0.645 0.816" stroke="hsl(0.0,100%,35%)" stroke-width="0.00062"></path>
<path d="M0.319 0.429 Q0.199 0.436 0.186 0.496" stroke="hsl(0.0,100%,35%)" stroke-width="0.00021"></path>
<path d="M0.319 0.429 Q0.132 0.519 0.267 0.631" stroke="hsl(0.0,100%,35%)" stroke-width="0.00021"></path>
<path d="M0.554 0.723 Q0.672 0.529 0.319 0.429" stroke="hsl(0.0,100%,35%)" stroke-width="0.00866"></path>
<path d="M0.554 0.723 Q1.430 0.824 1.819 0.419" stroke="hsl(0.0,100%,35%)" stroke-width="0.00103"></path>
<path d="M0.554 0.723 Q0.684 0.658 0.584 0.580" stroke="hsl(0.0,100%,35%)" stroke-width="0.01856"></path>
<path d="M0.554 0.723 Q0.775 0.711 0.799 0.600" stroke="hsl(0.0,100%,35%)" stroke-width="0.00516"></path>
<path d="M0.554 0.723 Q0.374 0.878 0.635 1.000" stroke="hsl(0.0,100%,35%)" stroke-width="0.00144"></path>
<path d="M0.554 0.723 Q1.276 0.599 1.191 0.219" stroke="hsl(0.0,100%,35%)" stroke-width="0.00124"></path>
<path d="M0.554 0.723 Q0.671 0.884 1.010 0.863" stroke="hsl(0.0,100%,35%)" stroke-width="0.00144"></path>
<path d="M0.554 0.723 Q1.358 0.736 1.559 0.347" stroke="hsl(0.0,100%,35%)" stroke-width="0.00289"></path>
<path d="M0.554 0.723 Q0.525 0.788 0.645 0.816" stroke="hsl(0.0,100%,35%)" stroke-width="0.00062"></path>
<path d="M0.554 0.723 Q1.178 0.775 1.415 0.481" stroke="hsl(0.0,100%,35%)" stroke-width="0.00082"></path>
<path d="M0.554 0.723 Q0.379 0.774 0.440 0.871" stroke="hsl(0.0,100%,35%)" stroke-width="0.00062"></path>
<path d="M0.554 0.723 Q0.233 0.666 0.051 0.810" stroke="hsl(0.0,100%,35%)" stroke-width="0.00062"></path>
<path d="M0.554 0.723 Q0.392 0.707 0.325 0.783" stroke="hsl(0.0,100%,35%)" stroke-width="0.00124"></path>
<path d="M0.554 0.723 Q0.738 0.407 0.161 0.248" stroke="hsl(0.0,100%,35%)" stroke-width="0.00021"></path>
<path d="M0.554 0.723 Q1.575 0.758 1.867 0.267" stroke="hsl(0.0,100%,35%)" stroke-width="0.00103"></path>
<path d="M0.554 0.723 Q0.686 0.848 0.958 0.811" stroke="hsl(0.0,100%,35%)" stroke-width="0.00041"></path>
<path d="M0.554 0.723 Q0.479 0.826 0.663 0.885" stroke="hsl(0.0,100%,35%)" stroke-width="0.00021"></path>
<path d="M0.554 0.723 Q1.468 0.702 1.627 0.251" stroke="hsl(0.0,100%,35%)" stroke-width="0.00021"></path>
<path d="M0.554 0.723 Q0.385 0.687 0.277 0.762" stroke="hsl(0.0,100%,35%)" stroke-width="0.00062"></path>
<path d="M0.554 0.723 Q0.871 0.607 0.714 0.427" stroke="hsl(0.0,100%,35%)" stroke-width="0.00021"></path>
<path d="M1.819 0.419 Q1.747 0.331 1.559 0.347" stroke="hsl(180.0,100%,35%)" stroke-width="0.05733"></path>
<path d="M1.819 0.419 Q1.665 0.194 1.191 0.219" stroke="hsl(180.0,100%,35%)" stroke-width="0.00206"></path>
<path d="M1.819 0.419 Q1.061 0.124 0.319 0.429" stroke="hsl(180.0,100%,35%)" stroke-width="0.00289"></path>
<path d="M1.819 0.419 Q0.943 0.318 0.554 0.723" stroke="hsl(180.0,100%,35%)" stroke-width="0.00103"></path>
<path d="M1.819 0.419 Q1.964 0.353 1.867 0.267" stroke="hsl(180.0,100%,35%)" stroke-width="0.00062"></path>
<path d="M1.819 0.419 Q0.781 0.302 0.325 0.783" stroke="hsl(180.0,100%,35%)" stroke-width="0.00082"></path>
<path d="M1.819 0.419 Q0.763 0.473 0.635 1.000" stroke="hsl(180.0,100%,35%)" stroke-width="0.00021"></path>
<path d="M1.819 0.419 Q0.622 0.261 0.051 0.810" stroke="hsl(180.0,100%,35%)" stroke-width="0.00021"></path>
<path d="M1.819 0.419 Q1.567 0.370 1.415 0.481" stroke="hsl(180.0,100%,35%)" stroke-width="0.02330"></path>
<path d="M1.819 0.419 Q1.164 0.306 0.799 0.600" stroke="hsl(180.0,100%,35%)" stroke-width="0.00041"></path>
<path d="M1.819 0.419 Q1.484 0.434 1.440 0.600" stroke="hsl(180.0,100%,35%)" stroke-width="0.00082"></path>
<path d="M0.799 0.600 Q0.578 0.613 0.554 0.723" stroke="hsl(0.0,100%,35%)" stroke-width="0.00268"></path>
<path d="M0.799 0.600 Q0.696 0.418 0.319 0.429" stroke="hsl(0.0,100%,35%)" stroke-width="0.00227"></path>
<path d="M0.799 0.600 Q0.707 0.547 0.584 0.580" stroke="hsl(0.0,100%,35%)" stroke-width="0.00289"></path>
<path d="M0.799 0.600 Q1.382 0.625 1.559 0.347" stroke="hsl(0.0,100%,35%)" stroke-width="0.00021"></path>
<path d="M0.799 0.600 Q0.762 0.296 0.161 0.248" stroke="hsl(0.0,100%,35%)" stroke-width="0.00021"></path>
<path d="M0.799 0.600 Q0.397 0.767 0.635 1.000" stroke="hsl(0.0,100%,35%)" stroke-width="0.00021"></path>
<path d="M0.799 0.600 Q0.694 0.774 1.010 0.863" stroke="hsl(0.0,100%,35%)" stroke-width="0.00021"></path>
<path d="M0.799 0.600 Q1.599 0.647 1.867 0.267" stroke="hsl(0.0,100%,35%)" stroke-width="0.00021"></path>
<path d="M1.191 0.219 Q1.273 0.356 1.559 0.347" stroke="hsl(180.0,100%,35%)" stroke-width="0.00866"></path>
<path d="M1.191 0.219 Q0.587 0.149 0.319 0.429" stroke="hsl(180.0,100%,35%)" stroke-width="0.00206"></path>
<path d="M1.191 0.219 Q1.345 0.444 1.819 0.419" stroke="hsl(180.0,100%,35%)" stroke-width="0.00247"></path>
<path d="M1.191 0.219 Q0.469 0.344 0.554 0.723" stroke="hsl(180.0,100%,35%)" stroke-width="0.00639"></path>
<path d="M1.191 0.219 Q1.093 0.395 1.415 0.481" stroke="hsl(180.0,100%,35%)" stroke-width="0.00124"></path>
<path d="M1.191 0.219 Q0.690 0.331 0.799 0.600" stroke="hsl(180.0,100%,35%)" stroke-width="0.00041"></path>
<path d="M1.191 0.219 Q1.010 0.459 1.440 0.600" stroke="hsl(180.0,100%,35%)" stroke-width="0.00041"></path>
<path d="M1.191 0.219 Q1.490 0.378 1.867 0.267" stroke="hsl(180.0,100%,35%)" stroke-width="0.00021"></path>
<path d="M1.559 0.347 Q1.478 0.209 1.191 0.219" stroke="hsl(180.0,100%,35%)" stroke-width="0.01712"></path>
<path d="M1.559 0.347 Q1.380 0.385 1.415 0.481" stroke="hsl(180.0,100%,35%)" stroke-width="0.04970"></path>
<path d="M1.559 0.347 Q1.631 0.435 1.819 0.419" stroke="hsl(180.0,100%,35%)" stroke-width="0.05795"></path>
<path d="M1.559 0.347 Q0.874 0.140 0.319 0.429" stroke="hsl(180.0,100%,35%)" stroke-width="0.01423"></path>
<path d="M1.559 0.347 Q0.755 0.334 0.554 0.723" stroke="hsl(180.0,100%,35%)" stroke-width="0.00763"></path>
<path d="M1.559 0.347 Q1.297 0.450 1.440 0.600" stroke="hsl(180.0,100%,35%)" stroke-width="0.00289"></path>
<path d="M1.559 0.347 Q0.872 0.495 1.010 0.863" stroke="hsl(180.0,100%,35%)" stroke-width="0.00041"></path>
<path d="M1.559 0.347 Q0.977 0.321 0.799 0.600" stroke="hsl(180.0,100%,35%)" stroke-width="0.00041"></path>
<path d="M1.559 0.347 Q1.272 0.151 0.827 0.249" stroke="hsl(180.0,100%,35%)" stroke-width="0.00021"></path>
<path d="M1.559 0.347 Q1.669 0.312 1.627 0.251" stroke="hsl(180.0,100%,35%)" stroke-width="0.00021"></path>
<path d="M1.559 0.347 Q1.777 0.369 1.867 0.267" stroke="hsl(180.0,100%,35%)" stroke-width="0.00082"></path>
<path d="M1.559 0.347 Q0.593 0.318 0.325 0.783" stroke="hsl(180.0,100%,35%)" stroke-width="0.00103"></path>
<path d="M1.559 0.347 Q1.528 0.435 1.694 0.470" stroke="hsl(180.0,100%,35%)" stroke-width="0.00021"></path>
<path d="M1.559 0.347 Q0.940 0.018 0.161 0.248" stroke="hsl(180.0,100%,35%)" stroke-width="0.00021"></path>
<path d="M1.415 0.481 Q1.595 0.443 1.559 0.347" stroke="hsl(180.0,100%,35%)" stroke-width="0.04785"></path>
<path d="M1.415 0.481 Q0.910 0.236 0.319 0.429" stroke="hsl(180.0,100%,35%)" stroke-width="0.00124"></path>
<path d="M1.415 0.481 Q1.332 0.546 1.440 0.600" stroke="hsl(180.0,100%,35%)" stroke-width="0.00639"></path>
<path d="M1.415 0.481 Q1.513 0.305 1.191 0.219" stroke="hsl(180.0,100%,35%)" stroke-width="0.00103"></path>
<path d="M1.415 0.481 Q1.667 0.531 1.819 0.419" stroke="hsl(180.0,100%,35%)" stroke-width="0.02248"></path>
<path d="M1.415 0.481 Q0.908 0.591 1.010 0.863" stroke="hsl(180.0,100%,35%)" stroke-width="0.00062"></path>
<path d="M1.415 0.481 Q0.791 0.430 0.554 0.723" stroke="hsl(180.0,100%,35%)" stroke-width="0.00124"></path>
<path d="M1.415 0.481 Q0.470 0.373 0.051 0.810" stroke="hsl(180.0,100%,35%)" stroke-width="0.00021"></path>
<path d="M1.415 0.481 Q1.206 0.587 1.367 0.712" stroke="hsl(180.0,100%,35%)" stroke-width="0.00021"></path>
<path d="M1.415 0.481 Q1.470 0.640 1.791 0.648" stroke="hsl(180.0,100%,35%)" stroke-width="0.00021"></path>
<path d="M1.440 0.600 Q0.898 0.485 0.554 0.723" stroke="hsl(180.0,100%,35%)" stroke-width="0.00041"></path>
<path d="M1.440 0.600 Q1.703 0.497 1.559 0.347" stroke="hsl(180.0,100%,35%)" stroke-width="0.00412"></path>
<path d="M1.440 0.600 Q1.523 0.536 1.415 0.481" stroke="hsl(180.0,100%,35%)" stroke-width="0.00227"></path>
<path d="M1.440 0.600 Q1.621 0.360 1.191 0.219" stroke="hsl(180.0,100%,35%)" stroke-width="0.00021"></path>
<path d="M1.440 0.600 Q1.314 0.642 1.367 0.712" stroke="hsl(180.0,100%,35%)" stroke-width="0.00041"></path>
<path d="M1.440 0.600 Q1.774 0.586 1.819 0.419" stroke="hsl(180.0,100%,35%)" stroke-width="0.00082"></path>
<path d="M1.440 0.600 Q1.015 0.646 1.010 0.863" stroke="hsl(180.0,100%,35%)" stroke-width="0.00021"></path>
<path d="M1.440 0.600 Q1.017 0.290 0.319 0.429" stroke="hsl(180.0,100%,35%)" stroke-width="0.00041"></path>
<path d="M1.440 0.600 Q1.120 0.472 0.799 0.600" stroke="hsl(180.0,100%,35%)" stroke-width="0.00021"></path>
<path d="M1.867 0.267 Q1.721 0.334 1.819 0.419" stroke="hsl(180.0,100%,35%)" stroke-width="0.00103"></path>
<path d="M1.867 0.267 Q0.846 0.233 0.554 0.723" stroke="hsl(180.0,100%,35%)" stroke-width="0.00103"></path>
<path d="M1.867 0.267 Q1.650 0.245 1.559 0.347" stroke="hsl(180.0,100%,35%)" stroke-width="0.00062"></path>
<path d="M1.867 0.267 Q1.470 0.284 1.415 0.481" stroke="hsl(180.0,100%,35%)" stroke-width="0.00021"></path>
<path d="M1.867 0.267 Q1.568 0.108 1.191 0.219" stroke="hsl(180.0,100%,35%)" stroke-width="0.00021"></path>
<path d="M0.827 0.249 Q0.429 0.237 0.319 0.429" stroke="hsl(0.0,100%,35%)" stroke-width="0.00495"></path>
<path d="M0.827 0.249 Q0.311 0.431 0.554 0.723" stroke="hsl(0.0,100%,35%)" stroke-width="0.00041"></path>
<path d="M0.827 0.249 Q0.940 0.277 1.019 0.228" stroke="hsl(0.0,100%,35%)" stroke-width="0.00021"></path>
<path d="M0.827 0.249 Q1.115 0.444 1.559 0.347" stroke="hsl(0.0,100%,35%)" stroke-width="0.00144"></path>
<path d="M0.032 0.397 Q0.150 0.470 0.319 0.429" stroke="hsl(0.0,100%,35%)" stroke-width="0.00041"></path>
<path d="M0.032 0.397 Q0.253 0.652 0.799 0.600" stroke="hsl(0.0,100%,35%)" stroke-width="0.00041"></path>
<path d="M0.032 0.397 Q0.161 0.599 0.584 0.580" stroke="hsl(0.0,100%,35%)" stroke-width="0.00021"></path>
<path d="M0.032 0.397 Q-0.148 0.819 0.635 1.000" stroke="hsl(0.0,100%,35%)" stroke-width="0.00021"></path>
<path d="M0.032 0.397 Q0.836 0.677 1.559 0.347" stroke="hsl(0.0,100%,35%)" stroke-width="0.00021"></path>
<path d="M0.032 0.397 Q0.032 0.665 0.554 0.723" stroke="hsl(0.0,100%,35%)" stroke-width="0.00021"></path>
<path d="M0.584 0.580 Q0.454 0.646 0.554 0.723" stroke="hsl(0.0,100%,35%)" stroke-width="0.02186"></path>
<path d="M0.584 0.580 Q0.274 0.800 0.635 1.000" stroke="hsl(0.0,100%,35%)" stroke-width="0.00206"></path>
<path d="M0.584 0.580 Q1.258 0.658 1.559 0.347" stroke="hsl(0.0,100%,35%)" stroke-width="0.00082"></path>
<path d="M0.584 0.580 Q0.675 0.633 0.799 0.600" stroke="hsl(0.0,100%,35%)" stroke-width="0.00371"></path>
<path d="M0.584 0.580 Q0.573 0.451 0.319 0.429" stroke="hsl(0.0,100%,35%)" stroke-width="0.00681"></path>
<path d="M0.584 0.580 Q0.133 0.589 0.051 0.810" stroke="hsl(0.0,100%,35%)" stroke-width="0.00021"></path>
<path d="M0.584 0.580 Q1.176 0.521 1.191 0.219" stroke="hsl(0.0,100%,35%)" stroke-width="0.00021"></path>
<path d="M0.584 0.580 Q0.803 0.597 0.884 0.493" stroke="hsl(0.0,100%,35%)" stroke-width="0.00021"></path>
<path d="M0.584 0.580 Q0.571 0.807 1.010 0.863" stroke="hsl(0.0,100%,35%)" stroke-width="0.00124"></path>
<path d="M0.584 0.580 Q1.078 0.697 1.415 0.481" stroke="hsl(0.0,100%,35%)" stroke-width="0.00021"></path>
<path d="M0.635 1.000 Q0.815 0.845 0.554 0.723" stroke="hsl(0.0,100%,35%)" stroke-width="0.00784"></path>
<path d="M0.635 1.000 Q0.654 0.829 0.325 0.783" stroke="hsl(0.0,100%,35%)" stroke-width="0.00412"></path>
<path d="M0.635 1.000 Q1.691 0.946 1.819 0.419" stroke="hsl(0.0,100%,35%)" stroke-width="0.00062"></path>
<path d="M0.635 1.000 Q1.440 0.896 1.415 0.481" stroke="hsl(0.0,100%,35%)" stroke-width="0.00021"></path>
<path d="M0.635 1.000 Q1.037 0.832 0.799 0.600" stroke="hsl(0.0,100%,35%)" stroke-width="0.00041"></path>
<path d="M0.635 1.000 Q0.932 1.006 1.010 0.863" stroke="hsl(0.0,100%,35%)" stroke-width="0.00021"></path>
<path d="M0.635 1.000 Q0.945 0.779 0.584 0.580" stroke="hsl(0.0,100%,35%)" stroke-width="0.00124"></path>
<path d="M0.635 1.000 Q1.620 0.858 1.559 0.347" stroke="hsl(0.0,100%,35%)" stroke-width="0.00103"></path>
<path d="M0.635 1.000 Q0.934 0.651 0.319 0.429" stroke="hsl(0.0,100%,35%)" stroke-width="0.00021"></path>
<path d="M0.548 0.802 Q0.614 0.764 0.554 0.723" stroke="hsl(0.0,100%,35%)" stroke-width="0.00041"></path>
<path d="M0.548 0.802 Q0.730 0.925 1.010 0.863" stroke="hsl(0.0,100%,35%)" stroke-width="0.00021"></path>
<path d="M0.548 0.802 Q0.732 0.569 0.319 0.429" stroke="hsl(0.0,100%,35%)" stroke-width="0.00021"></path>
<path d="M1.010 0.863 Q0.713 0.856 0.635 1.000" stroke="hsl(0.0,100%,35%)" stroke-width="0.00021"></path>
<path d="M1.010 0.863 Q1.012 0.508 0.319 0.429" stroke="hsl(0.0,100%,35%)" stroke-width="0.00062"></path>
<path d="M1.010 0.863 Q0.893 0.702 0.554 0.723" stroke="hsl(0.0,100%,35%)" stroke-width="0.00412"></path>
<path d="M1.010 0.863 Q1.115 0.689 0.799 0.600" stroke="hsl(0.0,100%,35%)" stroke-width="0.00206"></path>
<path d="M1.010 0.863 Q1.023 0.636 0.584 0.580" stroke="hsl(0.0,100%,35%)" stroke-width="0.00041"></path>
<path d="M1.010 0.863 Q1.616 0.577 1.191 0.219" stroke="hsl(0.0,100%,35%)" stroke-width="0.00021"></path>
<path d="M1.010 0.863 Q1.435 0.817 1.440 0.600" stroke="hsl(0.0,100%,35%)" stroke-width="0.00021"></path>
<path d="M0.325 0.783 Q1.291 0.812 1.559 0.347" stroke="hsl(0.0,100%,35%)" stroke-width="0.00351"></path>
<path d="M0.325 0.783 Q0.487 0.799 0.554 0.723" stroke="hsl(0.0,100%,35%)" stroke-width="0.00598"></path>
<path d="M0.325 0.783 Q1.363 0.900 1.819 0.419" stroke="hsl(0.0,100%,35%)" stroke-width="0.00144"></path>
<path d="M0.325 0.783 Q0.617 0.733 0.584 0.580" stroke="hsl(0.0,100%,35%)" stroke-width="0.00041"></path>
<path d="M0.325 0.783 Q0.604 0.960 1.010 0.863" stroke="hsl(0.0,100%,35%)" stroke-width="0.00021"></path>
<path d="M0.325 0.783 Q0.307 0.953 0.635 1.000" stroke="hsl(0.0,100%,35%)" stroke-width="0.00021"></path>
<path d="M0.325 0.783 Q0.166 0.742 0.051 0.810" stroke="hsl(0.0,100%,35%)" stroke-width="0.00041"></path>
<path d="M0.325 0.783 Q0.606 0.605 0.319 0.429" stroke="hsl(0.0,100%,35%)" stroke-width="0.00103"></path>
<path d="M0.325 0.783 Q0.708 0.786 0.799 0.600" stroke="hsl(0.0,100%,35%)" stroke-width="0.00021"></path>
<path d="M0.161 0.248 Q0.096 0.370 0.319 0.429" stroke="hsl(0.0,100%,35%)" stroke-width="0.02042"></path>
<path d="M0.161 0.248 Q-0.023 0.564 0.554 0.723" stroke="hsl(0.0,100%,35%)" stroke-width="0.01671"></path>
<path d="M0.161 0.248 Q0.781 0.577 1.559 0.347" stroke="hsl(0.0,100%,35%)" stroke-width="0.00495"></path>
<path d="M0.161 0.248 Q0.107 0.498 0.584 0.580" stroke="hsl(0.0,100%,35%)" stroke-width="0.00021"></path>
<path d="M0.161 0.248 Q0.602 0.615 1.415 0.481" stroke="hsl(0.0,100%,35%)" stroke-width="0.00041"></path>
<path d="M0.161 0.248 Q0.094 0.725 1.010 0.863" stroke="hsl(0.0,100%,35%)" stroke-width="0.00041"></path>
<path d="M0.161 0.248 Q0.999 0.599 1.867 0.267" stroke="hsl(0.0,100%,35%)" stroke-width="0.00021"></path>
<path d="M0.161 0.248 Q0.518 0.680 1.440 0.600" stroke="hsl(0.0,100%,35%)" stroke-width="0.00103"></path>
<path d="M0.161 0.248 Q-0.198 0.615 0.440 0.871" stroke="hsl(0.0,100%,35%)" stroke-width="0.00082"></path>
<path d="M0.161 0.248 Q0.069 0.625 0.786 0.753" stroke="hsl(0.0,100%,35%)" stroke-width="0.00021"></path>
<path d="M0.161 0.248 Q0.853 0.665 1.819 0.419" stroke="hsl(0.0,100%,35%)" stroke-width="0.00021"></path>
<path d="M0.161 0.248 Q0.387 0.315 0.569 0.220" stroke="hsl(0.0,100%,35%)" stroke-width="0.00041"></path>
<path d="M0.161 0.248 Q0.198 0.551 0.799 0.600" stroke="hsl(0.0,100%,35%)" stroke-width="0.00021"></path>
<path d="M0.084 0.448 Q0.217 0.486 0.319 0.429" stroke="hsl(0.0,100%,35%)" stroke-width="0.00516"></path>
<path d="M0.084 0.448 Q0.320 0.667 0.799 0.600" stroke="hsl(0.0,100%,35%)" stroke-width="0.00041"></path>
<path d="M0.084 0.448 Q0.099 0.680 0.554 0.723" stroke="hsl(0.0,100%,35%)" stroke-width="0.00165"></path>
<path d="M0.084 0.448 Q0.228 0.614 0.584 0.580" stroke="hsl(0.0,100%,35%)" stroke-width="0.00062"></path>
<path d="M0.624 0.357 Q0.415 0.332 0.319 0.429" stroke="hsl(0.0,100%,35%)" stroke-width="0.00454"></path>
<path d="M0.624 0.357 Q0.296 0.526 0.554 0.723" stroke="hsl(0.0,100%,35%)" stroke-width="0.00062"></path>
<path d="M0.624 0.357 Q0.426 0.461 0.584 0.580" stroke="hsl(0.0,100%,35%)" stroke-width="0.00021"></path>
<path d="M1.383 0.188 Q0.659 0.096 0.319 0.429" stroke="hsl(0.0,100%,35%)" stroke-width="0.00103"></path>
<path d="M1.383 0.188 Q0.540 0.290 0.554 0.723" stroke="hsl(0.0,100%,35%)" stroke-width="0.00103"></path>
<path d="M1.383 0.188 Q1.344 0.303 1.559 0.347" stroke="hsl(0.0,100%,35%)" stroke-width="0.00206"></path>
<path d="M1.383 0.188 Q1.164 0.341 1.415 0.481" stroke="hsl(0.0,100%,35%)" stroke-width="0.00021"></path>
<path d="M0.958 0.811 Q0.826 0.687 0.554 0.723" stroke="hsl(0.0,100%,35%)" stroke-width="0.00330"></path>
<path d="M0.958 0.811 Q1.047 0.674 0.799 0.600" stroke="hsl(0.0,100%,35%)" stroke-width="0.00021"></path>
<path d="M0.958 0.811 Q1.121 0.748 1.035 0.655" stroke="hsl(0.0,100%,35%)" stroke-width="0.00041"></path>
<path d="M0.440 0.871 Q0.733 0.625 0.319 0.429" stroke="hsl(0.0,100%,35%)" stroke-width="0.00846"></path>
<path d="M0.440 0.871 Q0.615 0.820 0.554 0.723" stroke="hsl(0.0,100%,35%)" stroke-width="0.01877"></path>
<path d="M0.440 0.871 Q1.419 0.832 1.559 0.347" stroke="hsl(0.0,100%,35%)" stroke-width="0.00041"></path>
<path d="M0.440 0.871 Q0.744 0.754 0.584 0.580" stroke="hsl(0.0,100%,35%)" stroke-width="0.00021"></path>
<path d="M0.645 0.816 Q0.792 0.557 0.319 0.429" stroke="hsl(0.0,100%,35%)" stroke-width="0.00289"></path>
<path d="M0.645 0.816 Q0.673 0.751 0.554 0.723" stroke="hsl(0.0,100%,35%)" stroke-width="0.00598"></path>
<path d="M0.645 0.816 Q0.498 0.802 0.440 0.871" stroke="hsl(0.0,100%,35%)" stroke-width="0.00021"></path>
<path d="M0.645 0.816 Q0.803 0.686 0.584 0.580" stroke="hsl(0.0,100%,35%)" stroke-width="0.00021"></path>
<path d="M0.267 0.631 Q0.455 0.540 0.319 0.429" stroke="hsl(0.0,100%,35%)" stroke-width="0.00041"></path>
<path d="M0.267 0.631 Q0.336 0.734 0.554 0.723" stroke="hsl(0.0,100%,35%)" stroke-width="0.00062"></path>
<path d="M0.267 0.631 Q0.558 0.722 0.799 0.600" stroke="hsl(0.0,100%,35%)" stroke-width="0.00021"></path>
<path d="M0.863 0.746 Q1.531 0.686 1.559 0.347" stroke="hsl(0.0,100%,35%)" stroke-width="0.00021"></path>
<path d="M0.863 0.746 Q0.727 0.673 0.554 0.723" stroke="hsl(0.0,100%,35%)" stroke-width="0.00021"></path>
<path d="M0.863 0.746 Q0.845 0.479 0.319 0.429" stroke="hsl(0.0,100%,35%)" stroke-width="0.00021"></path>
<path d="M0.051 0.810 Q0.372 0.868 0.554 0.723" stroke="hsl(0.0,100%,35%)" stroke-width="0.00474"></path>
<path d="M0.051 0.810 Q0.210 0.852 0.325 0.783" stroke="hsl(0.0,100%,35%)" stroke-width="0.00186"></path>
<path d="M0.051 0.810 Q0.489 1.028 1.010 0.863" stroke="hsl(0.0,100%,35%)" stroke-width="0.00082"></path>
<path d="M0.051 0.810 Q1.176 0.880 1.559 0.347" stroke="hsl(0.0,100%,35%)" stroke-width="0.00103"></path>
<path d="M0.051 0.810 Q0.501 0.802 0.584 0.580" stroke="hsl(0.0,100%,35%)" stroke-width="0.00124"></path>
<path d="M0.051 0.810 Q0.490 0.673 0.319 0.429" stroke="hsl(0.0,100%,35%)" stroke-width="0.00041"></path>
<path d="M0.051 0.810 Q1.094 0.743 1.191 0.219" stroke="hsl(0.0,100%,35%)" stroke-width="0.00041"></path>
<path d="M0.051 0.810 Q0.593 0.855 0.799 0.600" stroke="hsl(0.0,100%,35%)" stroke-width="0.00021"></path>
<path d="M0.620 0.411 Q0.456 0.360 0.319 0.429" stroke="hsl(0.0,100%,35%)" stroke-width="0.00082"></path>
<path d="M0.620 0.411 Q0.337 0.554 0.554 0.723" stroke="hsl(0.0,100%,35%)" stroke-width="0.00041"></path>
<path d="M0.620 0.411 Q1.142 0.567 1.559 0.347" stroke="hsl(0.0,100%,35%)" stroke-width="0.00021"></path>
<path d="M0.663 0.885 Q0.857 0.588 0.319 0.429" stroke="hsl(0.0,100%,35%)" stroke-width="0.00681"></path>
<path d="M0.663 0.885 Q0.738 0.783 0.554 0.723" stroke="hsl(0.0,100%,35%)" stroke-width="0.00866"></path>
<path d="M0.663 0.885 Q0.563 0.833 0.440 0.871" stroke="hsl(0.0,100%,35%)" stroke-width="0.00557"></path>
<path d="M0.663 0.885 Q1.542 0.795 1.559 0.347" stroke="hsl(0.0,100%,35%)" stroke-width="0.00021"></path>
<path d="M0.714 0.427 Q0.397 0.543 0.554 0.723" stroke="hsl(0.0,100%,35%)" stroke-width="0.00186"></path>
<path d="M0.714 0.427 Q0.526 0.478 0.584 0.580" stroke="hsl(0.0,100%,35%)" stroke-width="0.00082"></path>
<path d="M0.714 0.427 Q1.201 0.556 1.559 0.347" stroke="hsl(0.0,100%,35%)" stroke-width="0.00062"></path>
<path d="M0.714 0.427 Q1.119 0.419 1.191 0.219" stroke="hsl(0.0,100%,35%)" stroke-width="0.00021"></path>
<path d="M0.714 0.427 Q0.515 0.349 0.319 0.429" stroke="hsl(0.0,100%,35%)" stroke-width="0.00186"></path>
<path d="M0.856 0.803 Q0.887 0.509 0.319 0.429" stroke="hsl(0.0,100%,35%)" stroke-width="0.00289"></path>
<path d="M0.856 0.803 Q0.898 0.637 0.584 0.580" stroke="hsl(0.0,100%,35%)" stroke-width="0.00021"></path>
<path d="M0.856 0.803 Q0.769 0.703 0.554 0.723" stroke="hsl(0.0,100%,35%)" stroke-width="0.00289"></path>
<path d="M0.856 0.803 Q1.573 0.716 1.559 0.347" stroke="hsl(0.0,100%,35%)" stroke-width="0.00021"></path>
<path d="M0.362 0.273 Q0.097 0.537 0.554 0.723" stroke="hsl(0.0,100%,35%)" stroke-width="0.00082"></path>
<path d="M0.362 0.273 Q0.216 0.342 0.319 0.429" stroke="hsl(0.0,100%,35%)" stroke-width="0.00082"></path>
<path d="M0.362 0.273 Q-0.155 0.600 0.370 0.924" stroke="hsl(0.0,100%,35%)" stroke-width="0.00041"></path>
<path d="M0.370 0.924 Q0.623 0.861 0.554 0.723" stroke="hsl(0.0,100%,35%)" stroke-width="0.00247"></path>
<path d="M0.370 0.924 Q0.448 0.911 0.440 0.871" stroke="hsl(0.0,100%,35%)" stroke-width="0.00021"></path>
<path d="M0.370 0.924 Q0.741 0.666 0.319 0.429" stroke="hsl(0.0,100%,35%)" stroke-width="0.00021"></path>
<path d="M1.296 0.515 Q1.563 0.484 1.559 0.347" stroke="hsl(180.0,100%,35%)" stroke-width="0.00144"></path>
<path d="M1.296 0.515 Q1.481 0.346 1.191 0.219" stroke="hsl(180.0,100%,35%)" stroke-width="0.00021"></path>
<path d="M1.296 0.515 Q1.383 0.522 1.415 0.481" stroke="hsl(180.0,100%,35%)" stroke-width="0.00021"></path>
<path d="M1.296 0.515 Q1.780 0.506 1.867 0.267" stroke="hsl(180.0,100%,35%)" stroke-width="0.00021"></path>
<path d="M1.296 0.515 Q0.758 0.471 0.554 0.723" stroke="hsl(180.0,100%,35%)" stroke-width="0.00021"></path>
<path d="M0.741 0.425 Q0.528 0.343 0.319 0.429" stroke="hsl(0.0,100%,35%)" stroke-width="0.00021"></path>
<path d="M0.741 0.425 Q0.409 0.537 0.554 0.723" stroke="hsl(0.0,100%,35%)" stroke-width="0.00021"></path>
<path d="M0.741 0.425 Q0.593 0.221 0.161 0.248" stroke="hsl(0.0,100%,35%)" stroke-width="0.00021"></path>
<path d="M0.786 0.753 Q0.812 0.498 0.319 0.429" stroke="hsl(0.0,100%,35%)" stroke-width="0.00247"></path>
<path d="M0.786 0.753 Q0.693 0.692 0.554 0.723" stroke="hsl(0.0,100%,35%)" stroke-width="0.00227"></path>
<path d="M0.786 0.753 Q1.715 0.727 1.867 0.267" stroke="hsl(0.0,100%,35%)" stroke-width="0.00021"></path>
<path d="M0.786 0.753 Q0.823 0.626 0.584 0.580" stroke="hsl(0.0,100%,35%)" stroke-width="0.00021"></path>
<path d="M0.786 0.753 Q1.318 0.743 1.415 0.481" stroke="hsl(0.0,100%,35%)" stroke-width="0.00021"></path>
<path d="M0.786 0.753 Q1.416 0.567 1.191 0.219" stroke="hsl(0.0,100%,35%)" stroke-width="0.00021"></path>
<path d="M1.141 0.579 Q1.536 0.546 1.559 0.347" stroke="hsl(180.0,100%,35%)" stroke-width="0.00021"></path>
<path d="M1.141 0.579 Q0.732 0.534 0.554 0.723" stroke="hsl(180.0,100%,35%)" stroke-width="0.00062"></path>
<path d="M1.141 0.579 Q1.357 0.585 1.415 0.481" stroke="hsl(180.0,100%,35%)" stroke-width="0.00082"></path>
<path d="M0.926 0.724 Q0.859 0.455 0.319 0.429" stroke="hsl(0.0,100%,35%)" stroke-width="0.00186"></path>
<path d="M0.926 0.724 Q0.740 0.649 0.554 0.723" stroke="hsl(0.0,100%,35%)" stroke-width="0.00186"></path>
<path d="M0.926 0.724 Q0.488 0.713 0.370 0.924" stroke="hsl(0.0,100%,35%)" stroke-width="0.00021"></path>
<path d="M0.926 0.724 Q0.830 0.514 0.398 0.514" stroke="hsl(0.0,100%,35%)" stroke-width="0.00021"></path>
<path d="M1.776 0.535 Q2.035 0.419 1.867 0.267" stroke="hsl(180.0,100%,35%)" stroke-width="0.00021"></path>
<path d="M1.776 0.535 Q1.889 0.485 1.819 0.419" stroke="hsl(180.0,100%,35%)" stroke-width="0.00021"></path>
<path d="M1.776 0.535 Q1.818 0.397 1.559 0.347" stroke="hsl(180.0,100%,35%)" stroke-width="0.00021"></path>
<path d="M1.776 0.535 Q1.132 0.190 0.319 0.429" stroke="hsl(180.0,100%,35%)" stroke-width="0.00021"></path>
<path d="M0.150 0.487 Q0.281 0.492 0.319 0.429" stroke="hsl(0.0,100%,35%)" stroke-width="0.00062"></path>
<path d="M0.150 0.487 Q0.163 0.686 0.554 0.723" stroke="hsl(0.0,100%,35%)" stroke-width="0.00062"></path>
<path d="M0.150 0.487 Q0.134 0.750 0.645 0.816" stroke="hsl(0.0,100%,35%)" stroke-width="0.00021"></path>
<path d="M0.304 0.753 Q0.585 0.913 0.958 0.811" stroke="hsl(0.0,100%,35%)" stroke-width="0.00021"></path>
<path d="M0.304 0.753 Q0.453 0.788 0.554 0.723" stroke="hsl(0.0,100%,35%)" stroke-width="0.00227"></path>
<path d="M0.304 0.753 Q0.572 0.594 0.319 0.429" stroke="hsl(0.0,100%,35%)" stroke-width="0.00021"></path>
<path d="M0.304 0.753 Q1.175 0.664 1.191 0.219" stroke="hsl(0.0,100%,35%)" stroke-width="0.00041"></path>
<path d="M0.304 0.753 Q0.674 0.776 0.799 0.600" stroke="hsl(0.0,100%,35%)" stroke-width="0.00021"></path>
<path d="M0.304 0.753 Q1.257 0.801 1.559 0.347" stroke="hsl(0.0,100%,35%)" stroke-width="0.00021"></path>
</g>
<text x="0.398" y="0.509" font-size="0.009219" fill="hsl(0.0,100%,20%)">albin.bernhardsson</text>
<text x="0.319" y="0.396" font-size="0.066307" fill="hsl(0.0,100%,20%)">cwallez</text>
<text x="0.554" y="0.685" font-size="0.075945" fill="hsl(0.0,100%,20%)">enga</text>
<text x="1.819" y="0.384" font-size="0.070127" fill="hsl(180.0,100%,20%)">dsinclair</text>
<text x="0.799" y="0.587" font-size="0.026612" fill="hsl(0.0,100%,20%)">kainino</text>
<text x="1.191" y="0.201" font-size="0.035465" fill="hsl(180.0,100%,20%)">amaiorano</text>
<text x="1.559" y="0.301" font-size="0.091323" fill="hsl(180.0,100%,20%)">bclayton</text>
<text x="1.415" y="0.448" font-size="0.066563" fill="hsl(180.0,100%,20%)">jrprice</text>
<text x="1.440" y="0.588" font-size="0.023921" fill="hsl(180.0,100%,20%)">dneto</text>
<text x="1.867" y="0.260" font-size="0.013879" fill="hsl(180.0,100%,20%)">rharrison</text>
<text x="0.827" y="0.242" font-size="0.014479" fill="hsl(0.0,100%,20%)">arthursonzogni</text>
<text x="1.019" y="0.227" font-size="0.002380" fill="hsl(0.0,100%,20%)">khaslett</text>
<text x="0.032" y="0.394" font-size="0.006732" fill="hsl(0.0,100%,20%)">austineng</text>
<text x="0.584" y="0.557" font-size="0.045786" fill="hsl(0.0,100%,20%)">lokokung</text>
<text x="0.635" y="0.988" font-size="0.023683" fill="hsl(0.0,100%,20%)">shrekshao</text>
<text x="0.548" y="0.799" font-size="0.004761" fill="hsl(0.0,100%,20%)">avi</text>
<text x="1.010" y="0.852" font-size="0.020614" fill="hsl(0.0,100%,20%)">bajones</text>
<text x="1.627" y="0.250" font-size="0.003366" fill="hsl(0.0,100%,20%)">brucedawson</text>
<text x="0.325" y="0.770" font-size="0.025078" fill="hsl(0.0,100%,20%)">senorblanco</text>
<text x="1.694" y="0.469" font-size="0.002380" fill="hsl(180.0,100%,20%)">kjlubick</text>
<text x="0.161" y="0.230" font-size="0.035941" fill="hsl(0.0,100%,20%)">jiawei.shao</text>
<text x="0.084" y="0.441" font-size="0.014673" fill="hsl(0.0,100%,20%)">beaufort.francois</text>
<text x="0.624" y="0.351" font-size="0.012368" fill="hsl(0.0,100%,20%)">blundell</text>
<text x="1.383" y="0.183" font-size="0.010908" fill="hsl(0.0,100%,20%)">brandon1.jones</text>
<text x="0.958" y="0.806" font-size="0.011164" fill="hsl(0.0,100%,20%)">bsheedy</text>
<text x="1.035" y="0.653" font-size="0.003366" fill="hsl(0.0,100%,20%)">gbeaty</text>
<text x="0.140" y="0.615" font-size="0.002380" fill="hsl(0.0,100%,20%)">fhorschig</text>
<text x="0.651" y="0.312" font-size="0.002380" fill="hsl(0.0,100%,20%)">jamesgk</text>
<text x="0.440" y="0.855" font-size="0.031308" fill="hsl(0.0,100%,20%)">penghuang</text>
<text x="0.645" y="0.807" font-size="0.017164" fill="hsl(0.0,100%,20%)">lehoangquyen</text>
<text x="0.186" y="0.495" font-size="0.002380" fill="hsl(0.0,100%,20%)">fbeaufort</text>
<text x="0.267" y="0.627" font-size="0.006298" fill="hsl(0.0,100%,20%)">yunchao.he</text>
<text x="0.863" y="0.744" font-size="0.004123" fill="hsl(0.0,100%,20%)">danakj</text>
<text x="1.367" y="0.710" font-size="0.004123" fill="hsl(180.0,100%,20%)">alanbaker</text>
<text x="0.051" y="0.801" font-size="0.018438" fill="hsl(0.0,100%,20%)">gman</text>
<text x="0.620" y="0.408" font-size="0.006298" fill="hsl(0.0,100%,20%)">elie.michel.fr</text>
<text x="0.663" y="0.873" font-size="0.024274" fill="hsl(0.0,100%,20%)">jie.a.chen</text>
<text x="0.277" y="0.760" font-size="0.004123" fill="hsl(0.0,100%,20%)">toji</text>
<text x="0.714" y="0.421" font-size="0.012368" fill="hsl(0.0,100%,20%)">tiszka</text>
<text x="0.856" y="0.797" font-size="0.013037" fill="hsl(0.0,100%,20%)">hao.x.li</text>
<text x="0.362" y="0.269" font-size="0.007527" fill="hsl(0.0,100%,20%)">hitawala</text>
<text x="0.370" y="0.919" font-size="0.009814" fill="hsl(0.0,100%,20%)">sunnyps</text>
<text x="1.296" y="0.511" font-size="0.007894" fill="hsl(180.0,100%,20%)">jason.erb</text>
<text x="0.741" y="0.423" font-size="0.004123" fill="hsl(0.0,100%,20%)">jianlin.qiu</text>
<text x="0.786" y="0.747" font-size="0.012595" fill="hsl(0.0,100%,20%)">zhaoming.jiang</text>
<text x="0.569" y="0.218" font-size="0.003366" fill="hsl(0.0,100%,20%)">rafael.cintron</text>
<text x="1.141" y="0.576" font-size="0.006732" fill="hsl(180.0,100%,20%)">jojwang</text>
<text x="1.791" y="0.647" font-size="0.002380" fill="hsl(180.0,100%,20%)">johnstiles</text>
<text x="0.884" y="0.492" font-size="0.002380" fill="hsl(0.0,100%,20%)">kbr</text>
<text x="0.926" y="0.719" font-size="0.010645" fill="hsl(0.0,100%,20%)">shaobo.yan</text>
<text x="1.776" y="0.532" font-size="0.004761" fill="hsl(180.0,100%,20%)">stha09</text>
<text x="0.150" y="0.484" font-size="0.006298" fill="hsl(0.0,100%,20%)">vollick</text>
<text x="0.304" y="0.748" font-size="0.009814" fill="hsl(0.0,100%,20%)">ynovikov</text>
</svg>
