<svg width="4000" height="2000" viewBox="-0.025 -0.025 2.05 1.05" xmlns="http://www.w3.org/2000/svg">
  <style>
    path {
      fill: none;
      stroke-linecap: round;
      stroke-opacity: 0.4;
    }

    text {
      text-anchor: middle;
      alignment-baseline: hanging;
    }
  </style>
  <g opacity="0.4">
<path d="M1.553 0.801 Q1.691 0.688 1.502 0.596" stroke="hsl(0.0,100%,35%)" stroke-width="0.00020"></path>
<path d="M1.553 0.801 Q1.777 0.760 1.747 0.642" stroke="hsl(0.0,100%,35%)" stroke-width="0.00020"></path>
<path d="M1.553 0.801 Q1.278 0.309 0.257 0.335" stroke="hsl(0.0,100%,35%)" stroke-width="0.00020"></path>
<path d="M1.502 0.596 Q1.088 0.217 0.257 0.335" stroke="hsl(0.0,100%,35%)" stroke-width="0.01024"></path>
<path d="M1.502 0.596 Q1.327 0.470 1.042 0.527" stroke="hsl(0.0,100%,35%)" stroke-width="0.00276"></path>
<path d="M1.502 0.596 Q1.588 0.668 1.747 0.642" stroke="hsl(0.0,100%,35%)" stroke-width="0.03564"></path>
<path d="M1.502 0.596 Q1.432 0.778 1.770 0.852" stroke="hsl(0.0,100%,35%)" stroke-width="0.00414"></path>
<path d="M1.502 0.596 Q1.405 0.624 1.439 0.678" stroke="hsl(0.0,100%,35%)" stroke-width="0.01733"></path>
<path d="M1.502 0.596 Q0.997 0.228 0.167 0.394" stroke="hsl(0.0,100%,35%)" stroke-width="0.00177"></path>
<path d="M1.502 0.596 Q1.633 0.328 1.138 0.206" stroke="hsl(0.0,100%,35%)" stroke-width="0.00020"></path>
<path d="M1.502 0.596 Q1.385 0.136 0.462 0.093" stroke="hsl(0.0,100%,35%)" stroke-width="0.00020"></path>
<path d="M1.502 0.596 Q1.344 0.430 0.983 0.470" stroke="hsl(0.0,100%,35%)" stroke-width="0.00256"></path>
<path d="M1.502 0.596 Q1.009 0.315 0.352 0.493" stroke="hsl(0.0,100%,35%)" stroke-width="0.00138"></path>
<path d="M1.502 0.596 Q0.880 0.383 0.328 0.640" stroke="hsl(0.0,100%,35%)" stroke-width="0.00020"></path>
<path d="M1.502 0.596 Q1.179 0.583 1.082 0.738" stroke="hsl(0.0,100%,35%)" stroke-width="0.00039"></path>
<path d="M1.502 0.596 Q1.253 0.521 1.051 0.626" stroke="hsl(0.0,100%,35%)" stroke-width="0.00020"></path>
<path d="M1.502 0.596 Q1.797 0.395 1.469 0.207" stroke="hsl(0.0,100%,35%)" stroke-width="0.00020"></path>
<path d="M1.502 0.596 Q1.200 0.121 0.206 0.164" stroke="hsl(0.0,100%,35%)" stroke-width="0.00197"></path>
<path d="M1.502 0.596 Q1.527 0.729 1.791 0.746" stroke="hsl(0.0,100%,35%)" stroke-width="0.00039"></path>
<path d="M1.502 0.596 Q1.443 0.511 1.263 0.521" stroke="hsl(0.0,100%,35%)" stroke-width="0.00020"></path>
<path d="M1.502 0.596 Q1.715 0.528 1.629 0.409" stroke="hsl(0.0,100%,35%)" stroke-width="0.00020"></path>
<path d="M1.502 0.596 Q1.354 0.256 0.657 0.254" stroke="hsl(0.0,100%,35%)" stroke-width="0.00020"></path>
<path d="M1.747 0.642 Q1.591 0.752 1.770 0.852" stroke="hsl(0.0,100%,35%)" stroke-width="0.00414"></path>
<path d="M1.747 0.642 Q1.661 0.570 1.502 0.596" stroke="hsl(0.0,100%,35%)" stroke-width="0.01989"></path>
<path d="M1.747 0.642 Q1.156 0.202 0.167 0.394" stroke="hsl(0.0,100%,35%)" stroke-width="0.00020"></path>
<path d="M1.747 0.642 Q1.486 0.443 1.042 0.527" stroke="hsl(0.0,100%,35%)" stroke-width="0.00236"></path>
<path d="M1.747 0.642 Q1.564 0.598 1.439 0.678" stroke="hsl(0.0,100%,35%)" stroke-width="0.00886"></path>
<path d="M1.747 0.642 Q1.503 0.403 0.983 0.470" stroke="hsl(0.0,100%,35%)" stroke-width="0.00059"></path>
<path d="M1.747 0.642 Q1.248 0.191 0.257 0.335" stroke="hsl(0.0,100%,35%)" stroke-width="0.00394"></path>
<path d="M1.747 0.642 Q1.966 0.527 1.789 0.395" stroke="hsl(0.0,100%,35%)" stroke-width="0.00098"></path>
<path d="M1.747 0.642 Q1.616 0.658 1.619 0.726" stroke="hsl(0.0,100%,35%)" stroke-width="0.00059"></path>
<path d="M1.747 0.642 Q1.359 0.095 0.206 0.164" stroke="hsl(0.0,100%,35%)" stroke-width="0.00256"></path>
<path d="M1.747 0.642 Q1.956 0.369 1.469 0.207" stroke="hsl(0.0,100%,35%)" stroke-width="0.00020"></path>
<path d="M0.257 0.335 Q0.361 0.402 0.514 0.366" stroke="hsl(180.0,100%,35%)" stroke-width="0.03092"></path>
<path d="M0.257 0.335 Q0.522 0.375 0.657 0.254" stroke="hsl(180.0,100%,35%)" stroke-width="0.03426"></path>
<path d="M0.257 0.335 Q0.671 0.715 1.502 0.596" stroke="hsl(180.0,100%,35%)" stroke-width="0.01733"></path>
<path d="M0.257 0.335 Q0.331 0.417 0.508 0.399" stroke="hsl(180.0,100%,35%)" stroke-width="0.00118"></path>
<path d="M0.257 0.335 Q0.178 0.433 0.352 0.493" stroke="hsl(180.0,100%,35%)" stroke-width="0.03446"></path>
<path d="M0.257 0.335 Q0.757 0.787 1.747 0.642" stroke="hsl(180.0,100%,35%)" stroke-width="0.00630"></path>
<path d="M0.257 0.335 Q0.009 0.721 0.707 0.926" stroke="hsl(180.0,100%,35%)" stroke-width="0.00020"></path>
<path d="M0.257 0.335 Q0.165 0.346 0.167 0.394" stroke="hsl(180.0,100%,35%)" stroke-width="0.00512"></path>
<path d="M0.257 0.335 Q0.496 0.588 1.042 0.527" stroke="hsl(180.0,100%,35%)" stroke-width="0.00020"></path>
<path d="M0.257 0.335 Q0.192 0.613 0.720 0.706" stroke="hsl(180.0,100%,35%)" stroke-width="0.00020"></path>
<path d="M0.257 0.335 Q1.105 0.541 1.693 0.172" stroke="hsl(180.0,100%,35%)" stroke-width="0.00020"></path>
<path d="M0.257 0.335 Q0.389 0.494 0.729 0.465" stroke="hsl(180.0,100%,35%)" stroke-width="0.00039"></path>
<path d="M0.257 0.335 Q0.369 0.239 0.206 0.164" stroke="hsl(180.0,100%,35%)" stroke-width="0.05041"></path>
<path d="M0.657 0.254 Q0.392 0.215 0.257 0.335" stroke="hsl(180.0,100%,35%)" stroke-width="0.01851"></path>
<path d="M0.657 0.254 Q0.496 0.282 0.514 0.366" stroke="hsl(180.0,100%,35%)" stroke-width="0.00158"></path>
<path d="M0.657 0.254 Q0.313 0.313 0.352 0.493" stroke="hsl(180.0,100%,35%)" stroke-width="0.00158"></path>
<path d="M0.657 0.254 Q0.806 0.594 1.502 0.596" stroke="hsl(180.0,100%,35%)" stroke-width="0.00079"></path>
<path d="M0.514 0.366 Q0.910 0.751 1.747 0.642" stroke="hsl(180.0,100%,35%)" stroke-width="0.00079"></path>
<path d="M0.514 0.366 Q0.411 0.299 0.257 0.335" stroke="hsl(180.0,100%,35%)" stroke-width="0.02737"></path>
<path d="M0.514 0.366 Q0.824 0.679 1.502 0.596" stroke="hsl(180.0,100%,35%)" stroke-width="0.00256"></path>
<path d="M0.514 0.366 Q0.676 0.339 0.657 0.254" stroke="hsl(180.0,100%,35%)" stroke-width="0.00158"></path>
<path d="M0.514 0.366 Q0.319 0.310 0.167 0.394" stroke="hsl(180.0,100%,35%)" stroke-width="0.00020"></path>
<path d="M0.514 0.366 Q0.331 0.397 0.352 0.493" stroke="hsl(180.0,100%,35%)" stroke-width="0.00098"></path>
<path d="M0.514 0.366 Q0.666 0.512 0.983 0.470" stroke="hsl(180.0,100%,35%)" stroke-width="0.00020"></path>
<path d="M0.514 0.366 Q0.522 0.203 0.206 0.164" stroke="hsl(180.0,100%,35%)" stroke-width="0.00354"></path>
<path d="M0.352 0.493 Q0.431 0.395 0.257 0.335" stroke="hsl(180.0,100%,35%)" stroke-width="0.01556"></path>
<path d="M0.352 0.493 Q0.535 0.462 0.514 0.366" stroke="hsl(180.0,100%,35%)" stroke-width="0.00610"></path>
<path d="M0.352 0.493 Q0.563 0.555 0.729 0.465" stroke="hsl(180.0,100%,35%)" stroke-width="0.00768"></path>
<path d="M0.352 0.493 Q0.696 0.435 0.657 0.254" stroke="hsl(180.0,100%,35%)" stroke-width="0.00118"></path>
<path d="M0.352 0.493 Q0.844 0.775 1.502 0.596" stroke="hsl(180.0,100%,35%)" stroke-width="0.00039"></path>
<path d="M0.352 0.493 Q0.339 0.407 0.167 0.394" stroke="hsl(180.0,100%,35%)" stroke-width="0.00335"></path>
<path d="M0.352 0.493 Q0.543 0.300 0.206 0.164" stroke="hsl(180.0,100%,35%)" stroke-width="0.01753"></path>
<path d="M0.352 0.493 Q0.505 0.478 0.508 0.399" stroke="hsl(180.0,100%,35%)" stroke-width="0.00098"></path>
<path d="M0.983 0.470 Q0.832 0.324 0.514 0.366" stroke="hsl(0.0,100%,35%)" stroke-width="0.00020"></path>
<path d="M0.983 0.470 Q0.967 0.510 1.042 0.527" stroke="hsl(0.0,100%,35%)" stroke-width="0.00295"></path>
<path d="M0.983 0.470 Q1.142 0.637 1.502 0.596" stroke="hsl(0.0,100%,35%)" stroke-width="0.00354"></path>
<path d="M0.983 0.470 Q1.228 0.709 1.747 0.642" stroke="hsl(0.0,100%,35%)" stroke-width="0.00217"></path>
<path d="M0.983 0.470 Q0.728 0.257 0.257 0.335" stroke="hsl(0.0,100%,35%)" stroke-width="0.00020"></path>
<path d="M0.983 0.470 Q0.999 0.577 1.211 0.593" stroke="hsl(0.0,100%,35%)" stroke-width="0.00020"></path>
<path d="M1.042 0.527 Q1.302 0.726 1.747 0.642" stroke="hsl(0.0,100%,35%)" stroke-width="0.00256"></path>
<path d="M1.042 0.527 Q1.216 0.654 1.502 0.596" stroke="hsl(0.0,100%,35%)" stroke-width="0.00414"></path>
<path d="M1.042 0.527 Q0.723 0.372 0.352 0.493" stroke="hsl(0.0,100%,35%)" stroke-width="0.00020"></path>
<path d="M1.042 0.527 Q0.711 0.285 0.167 0.394" stroke="hsl(0.0,100%,35%)" stroke-width="0.00020"></path>
<path d="M0.508 0.399 Q0.434 0.317 0.257 0.335" stroke="hsl(180.0,100%,35%)" stroke-width="0.00414"></path>
<path d="M0.508 0.399 Q0.538 0.384 0.514 0.366" stroke="hsl(180.0,100%,35%)" stroke-width="0.00020"></path>
<path d="M0.508 0.399 Q0.699 0.357 0.657 0.254" stroke="hsl(180.0,100%,35%)" stroke-width="0.00256"></path>
<path d="M0.508 0.399 Q0.673 0.570 1.042 0.527" stroke="hsl(180.0,100%,35%)" stroke-width="0.00039"></path>
<path d="M0.508 0.399 Q0.546 0.221 0.206 0.164" stroke="hsl(180.0,100%,35%)" stroke-width="0.00670"></path>
<path d="M0.508 0.399 Q0.354 0.415 0.352 0.493" stroke="hsl(180.0,100%,35%)" stroke-width="0.00276"></path>
<path d="M0.508 0.399 Q0.342 0.328 0.167 0.394" stroke="hsl(180.0,100%,35%)" stroke-width="0.00020"></path>
<path d="M0.707 0.926 Q0.955 0.541 0.257 0.335" stroke="hsl(180.0,100%,35%)" stroke-width="0.00020"></path>
<path d="M0.707 0.926 Q0.890 0.819 0.720 0.706" stroke="hsl(180.0,100%,35%)" stroke-width="0.00020"></path>
<path d="M0.707 0.926 Q0.876 0.639 0.352 0.493" stroke="hsl(180.0,100%,35%)" stroke-width="0.00039"></path>
<path d="M0.707 0.926 Q1.067 0.445 0.206 0.164" stroke="hsl(180.0,100%,35%)" stroke-width="0.00059"></path>
<path d="M0.167 0.394 Q0.259 0.383 0.257 0.335" stroke="hsl(180.0,100%,35%)" stroke-width="0.00985"></path>
<path d="M0.167 0.394 Q0.363 0.450 0.514 0.366" stroke="hsl(180.0,100%,35%)" stroke-width="0.00138"></path>
<path d="M0.167 0.394 Q0.758 0.834 1.747 0.642" stroke="hsl(180.0,100%,35%)" stroke-width="0.00945"></path>
<path d="M0.167 0.394 Q0.672 0.762 1.502 0.596" stroke="hsl(180.0,100%,35%)" stroke-width="0.00788"></path>
<path d="M0.167 0.394 Q0.050 0.549 0.328 0.640" stroke="hsl(180.0,100%,35%)" stroke-width="0.00059"></path>
<path d="M0.167 0.394 Q0.524 0.422 0.657 0.254" stroke="hsl(180.0,100%,35%)" stroke-width="0.00039"></path>
<path d="M0.167 0.394 Q0.179 0.481 0.352 0.493" stroke="hsl(180.0,100%,35%)" stroke-width="0.00177"></path>
<path d="M0.167 0.394 Q0.370 0.287 0.206 0.164" stroke="hsl(180.0,100%,35%)" stroke-width="0.01083"></path>
<path d="M0.167 0.394 Q0.333 0.465 0.508 0.399" stroke="hsl(180.0,100%,35%)" stroke-width="0.00039"></path>
<path d="M0.167 0.394 Q0.498 0.635 1.042 0.527" stroke="hsl(180.0,100%,35%)" stroke-width="0.00039"></path>
<path d="M1.693 0.172 Q0.845 -0.033 0.257 0.335" stroke="hsl(0.0,100%,35%)" stroke-width="0.00138"></path>
<path d="M1.693 0.172 Q1.258 0.346 1.502 0.596" stroke="hsl(0.0,100%,35%)" stroke-width="0.00197"></path>
<path d="M1.693 0.172 Q1.344 0.418 1.747 0.642" stroke="hsl(0.0,100%,35%)" stroke-width="0.00236"></path>
<path d="M1.693 0.172 Q0.753 -0.022 0.167 0.394" stroke="hsl(0.0,100%,35%)" stroke-width="0.00020"></path>
<path d="M1.693 0.172 Q0.765 0.065 0.352 0.493" stroke="hsl(0.0,100%,35%)" stroke-width="0.00020"></path>
<path d="M1.693 0.172 Q1.553 0.145 1.469 0.207" stroke="hsl(0.0,100%,35%)" stroke-width="0.00059"></path>
<path d="M1.693 0.172 Q1.084 0.219 1.042 0.527" stroke="hsl(0.0,100%,35%)" stroke-width="0.00020"></path>
<path d="M0.206 0.164 Q0.094 0.260 0.257 0.335" stroke="hsl(180.0,100%,35%)" stroke-width="0.00945"></path>
<path d="M0.206 0.164 Q0.003 0.271 0.167 0.394" stroke="hsl(180.0,100%,35%)" stroke-width="0.01418"></path>
<path d="M0.206 0.164 Q0.594 0.711 1.747 0.642" stroke="hsl(180.0,100%,35%)" stroke-width="0.00098"></path>
<path d="M0.206 0.164 Q0.508 0.639 1.502 0.596" stroke="hsl(180.0,100%,35%)" stroke-width="0.00295"></path>
<path d="M0.206 0.164 Q0.168 0.342 0.508 0.399" stroke="hsl(180.0,100%,35%)" stroke-width="0.00414"></path>
<path d="M0.206 0.164 Q0.015 0.358 0.352 0.493" stroke="hsl(180.0,100%,35%)" stroke-width="0.02343"></path>
<path d="M0.206 0.164 Q0.333 0.512 1.042 0.527" stroke="hsl(180.0,100%,35%)" stroke-width="0.00059"></path>
<path d="M0.206 0.164 Q-0.063 0.256 0.058 0.407" stroke="hsl(180.0,100%,35%)" stroke-width="0.00020"></path>
<path d="M1.619 0.726 Q1.664 0.638 1.502 0.596" stroke="hsl(0.0,100%,35%)" stroke-width="0.00354"></path>
<path d="M1.619 0.726 Q1.750 0.709 1.747 0.642" stroke="hsl(0.0,100%,35%)" stroke-width="0.00414"></path>
<path d="M1.619 0.726 Q1.959 0.436 1.469 0.207" stroke="hsl(0.0,100%,35%)" stroke-width="0.00059"></path>
<path d="M1.511 0.438 Q1.380 0.516 1.502 0.596" stroke="hsl(0.0,100%,35%)" stroke-width="0.00138"></path>
<path d="M1.511 0.438 Q1.466 0.587 1.747 0.642" stroke="hsl(0.0,100%,35%)" stroke-width="0.00059"></path>
<path d="M1.511 0.438 Q1.675 0.314 1.469 0.207" stroke="hsl(0.0,100%,35%)" stroke-width="0.00020"></path>
<path d="M1.770 0.852 Q1.841 0.671 1.502 0.596" stroke="hsl(0.0,100%,35%)" stroke-width="0.00926"></path>
<path d="M1.770 0.852 Q1.927 0.742 1.747 0.642" stroke="hsl(0.0,100%,35%)" stroke-width="0.00886"></path>
<path d="M1.770 0.852 Q1.796 0.759 1.619 0.726" stroke="hsl(0.0,100%,35%)" stroke-width="0.00039"></path>
<path d="M1.770 0.852 Q2.275 0.497 1.693 0.172" stroke="hsl(0.0,100%,35%)" stroke-width="0.00020"></path>
<path d="M1.770 0.852 Q1.744 0.699 1.439 0.678" stroke="hsl(0.0,100%,35%)" stroke-width="0.00020"></path>
<path d="M1.138 0.206 Q1.094 0.546 1.747 0.642" stroke="hsl(0.0,100%,35%)" stroke-width="0.00079"></path>
<path d="M1.138 0.206 Q0.937 0.655 1.770 0.852" stroke="hsl(0.0,100%,35%)" stroke-width="0.00059"></path>
<path d="M1.138 0.206 Q1.008 0.474 1.502 0.596" stroke="hsl(0.0,100%,35%)" stroke-width="0.00039"></path>
<path d="M1.138 0.206 Q1.303 0.272 1.469 0.207" stroke="hsl(0.0,100%,35%)" stroke-width="0.00039"></path>
<path d="M1.051 0.626 Q1.300 0.701 1.502 0.596" stroke="hsl(0.0,100%,35%)" stroke-width="0.00551"></path>
<path d="M1.051 0.626 Q1.229 0.883 1.770 0.852" stroke="hsl(0.0,100%,35%)" stroke-width="0.00118"></path>
<path d="M1.051 0.626 Q1.386 0.773 1.747 0.642" stroke="hsl(0.0,100%,35%)" stroke-width="0.00335"></path>
<path d="M1.629 0.409 Q1.114 0.002 0.206 0.164" stroke="hsl(0.0,100%,35%)" stroke-width="0.00236"></path>
<path d="M1.629 0.409 Q1.416 0.477 1.502 0.596" stroke="hsl(0.0,100%,35%)" stroke-width="0.00295"></path>
<path d="M1.629 0.409 Q0.923 0.196 0.352 0.493" stroke="hsl(0.0,100%,35%)" stroke-width="0.00098"></path>
<path d="M1.629 0.409 Q1.502 0.549 1.747 0.642" stroke="hsl(0.0,100%,35%)" stroke-width="0.00256"></path>
<path d="M1.629 0.409 Q1.345 0.659 1.770 0.852" stroke="hsl(0.0,100%,35%)" stroke-width="0.00059"></path>
<path d="M1.473 0.778 Q1.719 0.765 1.747 0.642" stroke="hsl(0.0,100%,35%)" stroke-width="0.00039"></path>
<path d="M1.473 0.778 Q1.331 0.218 0.206 0.164" stroke="hsl(0.0,100%,35%)" stroke-width="0.00020"></path>
<path d="M1.473 0.778 Q1.633 0.693 1.502 0.596" stroke="hsl(0.0,100%,35%)" stroke-width="0.00079"></path>
<path d="M1.473 0.778 Q1.458 0.566 1.042 0.527" stroke="hsl(0.0,100%,35%)" stroke-width="0.00020"></path>
<path d="M0.575 0.525 Q0.568 0.366 0.257 0.335" stroke="hsl(180.0,100%,35%)" stroke-width="0.00020"></path>
<path d="M0.575 0.525 Q0.476 0.378 0.167 0.394" stroke="hsl(180.0,100%,35%)" stroke-width="0.00256"></path>
<path d="M0.575 0.525 Q0.982 0.746 1.502 0.596" stroke="hsl(180.0,100%,35%)" stroke-width="0.00039"></path>
<path d="M0.575 0.525 Q0.642 0.449 0.508 0.399" stroke="hsl(180.0,100%,35%)" stroke-width="0.00217"></path>
<path d="M0.575 0.525 Q0.489 0.464 0.352 0.493" stroke="hsl(180.0,100%,35%)" stroke-width="0.00492"></path>
<path d="M0.058 0.407 Q0.715 0.863 1.747 0.642" stroke="hsl(180.0,100%,35%)" stroke-width="0.00039"></path>
<path d="M0.058 0.407 Q0.629 0.791 1.502 0.596" stroke="hsl(180.0,100%,35%)" stroke-width="0.00039"></path>
<path d="M0.058 0.407 Q0.327 0.315 0.206 0.164" stroke="hsl(180.0,100%,35%)" stroke-width="0.00098"></path>
<path d="M1.789 0.395 Q1.570 0.510 1.747 0.642" stroke="hsl(0.0,100%,35%)" stroke-width="0.00492"></path>
<path d="M1.789 0.395 Q1.413 0.620 1.770 0.852" stroke="hsl(0.0,100%,35%)" stroke-width="0.00098"></path>
<path d="M1.789 0.395 Q1.484 0.438 1.502 0.596" stroke="hsl(0.0,100%,35%)" stroke-width="0.00512"></path>
<path d="M1.789 0.395 Q1.309 0.311 1.042 0.527" stroke="hsl(0.0,100%,35%)" stroke-width="0.00079"></path>
<path d="M1.901 0.787 Q1.940 0.684 1.747 0.642" stroke="hsl(0.0,100%,35%)" stroke-width="0.00118"></path>
<path d="M1.901 0.787 Q1.553 0.136 0.206 0.164" stroke="hsl(0.0,100%,35%)" stroke-width="0.00020"></path>
<path d="M1.901 0.787 Q1.810 0.700 1.619 0.726" stroke="hsl(0.0,100%,35%)" stroke-width="0.00079"></path>
<path d="M1.901 0.787 Q1.854 0.612 1.502 0.596" stroke="hsl(0.0,100%,35%)" stroke-width="0.00059"></path>
<path d="M1.901 0.787 Q1.349 0.243 0.167 0.394" stroke="hsl(0.0,100%,35%)" stroke-width="0.00020"></path>
<path d="M1.901 0.787 Q2.149 0.410 1.469 0.207" stroke="hsl(0.0,100%,35%)" stroke-width="0.00020"></path>
<path d="M0.794 0.203 Q0.833 0.541 1.502 0.596" stroke="hsl(0.0,100%,35%)" stroke-width="0.00020"></path>
<path d="M0.794 0.203 Q1.035 0.162 1.009 0.035" stroke="hsl(0.0,100%,35%)" stroke-width="0.00020"></path>
<path d="M0.794 0.203 Q0.716 0.081 0.462 0.093" stroke="hsl(0.0,100%,35%)" stroke-width="0.00020"></path>
<path d="M1.311 0.918 Q1.750 0.867 1.747 0.642" stroke="hsl(0.0,100%,35%)" stroke-width="0.00079"></path>
<path d="M1.311 0.918 Q1.664 0.795 1.502 0.596" stroke="hsl(0.0,100%,35%)" stroke-width="0.00020"></path>
<path d="M1.311 0.918 Q1.958 0.594 1.469 0.207" stroke="hsl(0.0,100%,35%)" stroke-width="0.00020"></path>
<path d="M1.420 0.806 Q1.715 0.789 1.747 0.642" stroke="hsl(0.0,100%,35%)" stroke-width="0.00158"></path>
<path d="M1.420 0.806 Q1.629 0.717 1.502 0.596" stroke="hsl(0.0,100%,35%)" stroke-width="0.00098"></path>
<path d="M1.420 0.806 Q1.454 0.591 1.042 0.527" stroke="hsl(0.0,100%,35%)" stroke-width="0.00039"></path>
<path d="M1.272 0.411 Q1.239 0.550 1.502 0.596" stroke="hsl(0.0,100%,35%)" stroke-width="0.00118"></path>
<path d="M1.272 0.411 Q1.325 0.621 1.747 0.642" stroke="hsl(0.0,100%,35%)" stroke-width="0.00020"></path>
<path d="M1.272 0.411 Q1.064 0.423 1.042 0.527" stroke="hsl(0.0,100%,35%)" stroke-width="0.00020"></path>
<path d="M1.469 0.984 Q1.796 0.797 1.502 0.596" stroke="hsl(0.0,100%,35%)" stroke-width="0.00059"></path>
<path d="M1.469 0.984 Q1.546 0.721 1.051 0.626" stroke="hsl(0.0,100%,35%)" stroke-width="0.00020"></path>
<path d="M1.469 0.984 Q1.725 0.978 1.770 0.852" stroke="hsl(0.0,100%,35%)" stroke-width="0.00039"></path>
<path d="M1.267 0.730 Q1.578 0.782 1.747 0.642" stroke="hsl(0.0,100%,35%)" stroke-width="0.00059"></path>
<path d="M1.267 0.730 Q1.492 0.710 1.502 0.596" stroke="hsl(0.0,100%,35%)" stroke-width="0.00118"></path>
<path d="M1.267 0.730 Q1.078 0.331 0.257 0.335" stroke="hsl(0.0,100%,35%)" stroke-width="0.00020"></path>
</g>
<text x="1.553" y="0.799" font-size="0.004270" fill="hsl(0.0,100%,20%)">aleksi.sapon</text>
<text x="1.502" y="0.559" font-size="0.073791" fill="hsl(0.0,100%,20%)">cwallez</text>
<text x="1.747" y="0.610" font-size="0.064567" fill="hsl(0.0,100%,20%)">enga</text>
<text x="0.257" y="0.289" font-size="0.093385" fill="hsl(180.0,100%,20%)">bclayton</text>
<text x="0.657" y="0.232" font-size="0.043961" fill="hsl(180.0,100%,20%)">amaiorano</text>
<text x="0.514" y="0.342" font-size="0.048933" fill="hsl(180.0,100%,20%)">jrprice</text>
<text x="0.352" y="0.462" font-size="0.062316" fill="hsl(180.0,100%,20%)">dneto</text>
<text x="0.983" y="0.460" font-size="0.019722" fill="hsl(0.0,100%,20%)">bajones</text>
<text x="1.042" y="0.515" font-size="0.023901" fill="hsl(0.0,100%,20%)">kainino</text>
<text x="1.211" y="0.592" font-size="0.002465" fill="hsl(0.0,100%,20%)">headlessclayton</text>
<text x="0.508" y="0.385" font-size="0.028215" fill="hsl(180.0,100%,20%)">sarahmashay</text>
<text x="0.707" y="0.923" font-size="0.006973" fill="hsl(180.0,100%,20%)">vasniktel</text>
<text x="0.167" y="0.370" font-size="0.046839" fill="hsl(180.0,100%,20%)">rharrison</text>
<text x="0.720" y="0.704" font-size="0.003486" fill="hsl(180.0,100%,20%)">allydonaldson</text>
<text x="1.693" y="0.165" font-size="0.014995" fill="hsl(0.0,100%,20%)">brandon1.jones</text>
<text x="0.729" y="0.457" font-size="0.015785" fill="hsl(180.0,100%,20%)">alanbaker</text>
<text x="0.206" y="0.129" font-size="0.068893" fill="hsl(180.0,100%,20%)">dsinclair</text>
<text x="1.469" y="0.203" font-size="0.008888" fill="hsl(0.0,100%,20%)">rafael.cintron</text>
<text x="1.619" y="0.717" font-size="0.017605" fill="hsl(0.0,100%,20%)">bryan.bernhart</text>
<text x="1.511" y="0.434" font-size="0.008176" fill="hsl(0.0,100%,20%)">cjj19970505</text>
<text x="1.770" y="0.837" font-size="0.030889" fill="hsl(0.0,100%,20%)">jiawei.shao</text>
<text x="1.439" y="0.664" font-size="0.028537" fill="hsl(0.0,100%,20%)">senorblanco</text>
<text x="1.138" y="0.202" font-size="0.008540" fill="hsl(0.0,100%,20%)">jiajia.qin</text>
<text x="0.462" y="0.091" font-size="0.003486" fill="hsl(0.0,100%,20%)">thakis</text>
<text x="0.328" y="0.637" font-size="0.004930" fill="hsl(180.0,100%,20%)">jmadill</text>
<text x="1.082" y="0.736" font-size="0.003486" fill="hsl(0.0,100%,20%)">penghuang</text>
<text x="1.051" y="0.617" font-size="0.017947" fill="hsl(0.0,100%,20%)">hao.x.li</text>
<text x="1.791" y="0.744" font-size="0.003486" fill="hsl(0.0,100%,20%)">shaobo.yan</text>
<text x="1.263" y="0.519" font-size="0.002465" fill="hsl(0.0,100%,20%)">johnstiles</text>
<text x="1.629" y="0.401" font-size="0.017256" fill="hsl(0.0,100%,20%)">tommek</text>
<text x="1.473" y="0.775" font-size="0.006973" fill="hsl(0.0,100%,20%)">cwoffenden</text>
<text x="0.575" y="0.516" font-size="0.017777" fill="hsl(180.0,100%,20%)">dj2</text>
<text x="0.058" y="0.403" font-size="0.007796" fill="hsl(180.0,100%,20%)">idanr</text>
<text x="1.789" y="0.385" font-size="0.019875" fill="hsl(0.0,100%,20%)">yunchao.he</text>
<text x="1.901" y="0.782" font-size="0.009861" fill="hsl(0.0,100%,20%)">enrico.galli</text>
<text x="0.794" y="0.201" font-size="0.004270" fill="hsl(0.0,100%,20%)">hans</text>
<text x="1.009" y="0.034" font-size="0.002465" fill="hsl(0.0,100%,20%)">hwennborg</text>
<text x="1.311" y="0.915" font-size="0.006038" fill="hsl(0.0,100%,20%)">natlee</text>
<text x="1.420" y="0.801" font-size="0.009548" fill="hsl(0.0,100%,20%)">shrekshao</text>
<text x="1.272" y="0.407" font-size="0.006973" fill="hsl(0.0,100%,20%)">stha09</text>
<text x="1.469" y="0.981" font-size="0.006038" fill="hsl(0.0,100%,20%)">xinghua.cao</text>
<text x="1.267" y="0.726" font-size="0.007796" fill="hsl(0.0,100%,20%)">zhaoming.jiang</text>
</svg>
