<svg width="4000" height="2000" viewBox="-0.025 -0.025 2.05 1.05" xmlns="http://www.w3.org/2000/svg">
  <style>
    path {
      fill: none;
      stroke-linecap: round;
      stroke-opacity: 0.4;
    }

    text {
      text-anchor: middle;
      alignment-baseline: hanging;
    }
  </style>
  <g opacity="0.4">
<path d="M0.881 0.678 Q1.102 0.735 1.261 0.639" stroke="hsl(0.0,100%,35%)" stroke-width="0.00122"></path>
<path d="M0.881 0.678 Q1.018 0.636 0.966 0.560" stroke="hsl(0.0,100%,35%)" stroke-width="0.00367"></path>
<path d="M0.881 0.678 Q1.611 0.567 1.553 0.186" stroke="hsl(0.0,100%,35%)" stroke-width="0.00061"></path>
<path d="M0.881 0.678 Q0.767 0.716 0.815 0.779" stroke="hsl(0.0,100%,35%)" stroke-width="0.00061"></path>
<path d="M1.261 0.639 Q0.926 0.620 0.815 0.779" stroke="hsl(0.0,100%,35%)" stroke-width="0.00245"></path>
<path d="M1.261 0.639 Q1.177 0.541 0.966 0.560" stroke="hsl(0.0,100%,35%)" stroke-width="0.07646"></path>
<path d="M1.261 0.639 Q1.342 0.215 0.532 0.082" stroke="hsl(0.0,100%,35%)" stroke-width="0.00061"></path>
<path d="M1.261 0.639 Q1.496 0.675 1.617 0.568" stroke="hsl(0.0,100%,35%)" stroke-width="0.00122"></path>
<path d="M1.261 0.639 Q1.770 0.471 1.553 0.186" stroke="hsl(0.0,100%,35%)" stroke-width="0.00245"></path>
<path d="M1.261 0.639 Q1.367 0.550 1.217 0.479" stroke="hsl(0.0,100%,35%)" stroke-width="0.02080"></path>
<path d="M1.261 0.639 Q1.203 0.316 0.559 0.273" stroke="hsl(0.0,100%,35%)" stroke-width="0.00122"></path>
<path d="M1.261 0.639 Q1.622 0.277 0.994 0.021" stroke="hsl(0.0,100%,35%)" stroke-width="0.00061"></path>
<path d="M0.966 0.560 Q1.050 0.659 1.261 0.639" stroke="hsl(0.0,100%,35%)" stroke-width="0.04771"></path>
<path d="M0.966 0.560 Q0.715 0.639 0.815 0.779" stroke="hsl(0.0,100%,35%)" stroke-width="0.00917"></path>
<path d="M0.966 0.560 Q1.285 0.694 1.617 0.568" stroke="hsl(0.0,100%,35%)" stroke-width="0.00122"></path>
<path d="M0.966 0.560 Q1.559 0.490 1.553 0.186" stroke="hsl(0.0,100%,35%)" stroke-width="0.00245"></path>
<path d="M0.966 0.560 Q1.156 0.569 1.217 0.479" stroke="hsl(0.0,100%,35%)" stroke-width="0.00306"></path>
<path d="M0.966 0.560 Q1.776 0.479 1.798 0.067" stroke="hsl(0.0,100%,35%)" stroke-width="0.00061"></path>
<path d="M0.966 0.560 Q1.131 0.234 0.532 0.082" stroke="hsl(0.0,100%,35%)" stroke-width="0.00122"></path>
<path d="M1.553 0.186 Q1.126 -0.070 0.532 0.082" stroke="hsl(180.0,100%,35%)" stroke-width="0.00673"></path>
<path d="M1.553 0.186 Q0.727 0.241 0.654 0.656" stroke="hsl(180.0,100%,35%)" stroke-width="0.00061"></path>
<path d="M1.553 0.186 Q0.960 0.255 0.966 0.560" stroke="hsl(180.0,100%,35%)" stroke-width="0.00367"></path>
<path d="M1.553 0.186 Q0.709 0.335 0.815 0.779" stroke="hsl(180.0,100%,35%)" stroke-width="0.00122"></path>
<path d="M1.553 0.186 Q1.326 0.199 1.301 0.313" stroke="hsl(180.0,100%,35%)" stroke-width="0.00061"></path>
<path d="M1.553 0.186 Q1.737 0.177 1.760 0.086" stroke="hsl(180.0,100%,35%)" stroke-width="0.00061"></path>
<path d="M1.553 0.186 Q1.544 0.061 1.298 0.038" stroke="hsl(180.0,100%,35%)" stroke-width="0.00489"></path>
<path d="M1.553 0.186 Q1.540 0.251 1.664 0.271" stroke="hsl(180.0,100%,35%)" stroke-width="0.00061"></path>
<path d="M1.553 0.186 Q1.771 0.175 1.798 0.067" stroke="hsl(180.0,100%,35%)" stroke-width="0.00061"></path>
<path d="M1.553 0.186 Q1.044 0.354 1.261 0.639" stroke="hsl(180.0,100%,35%)" stroke-width="0.00306"></path>
<path d="M1.553 0.186 Q1.483 0.331 1.750 0.397" stroke="hsl(180.0,100%,35%)" stroke-width="0.00306"></path>
<path d="M1.553 0.186 Q0.986 0.031 0.559 0.273" stroke="hsl(180.0,100%,35%)" stroke-width="0.00245"></path>
<path d="M0.815 0.779 Q1.150 0.799 1.261 0.639" stroke="hsl(0.0,100%,35%)" stroke-width="0.01101"></path>
<path d="M0.815 0.779 Q1.066 0.700 0.966 0.560" stroke="hsl(0.0,100%,35%)" stroke-width="0.01101"></path>
<path d="M0.815 0.779 Q1.877 0.620 1.798 0.067" stroke="hsl(0.0,100%,35%)" stroke-width="0.00122"></path>
<path d="M0.815 0.779 Q0.615 0.861 0.729 0.976" stroke="hsl(0.0,100%,35%)" stroke-width="0.00489"></path>
<path d="M1.435 0.100 Q1.426 0.167 1.553 0.186" stroke="hsl(180.0,100%,35%)" stroke-width="0.00122"></path>
<path d="M1.435 0.100 Q0.917 0.335 1.261 0.639" stroke="hsl(180.0,100%,35%)" stroke-width="0.00061"></path>
<path d="M1.435 0.100 Q0.998 -0.089 0.532 0.082" stroke="hsl(180.0,100%,35%)" stroke-width="0.00061"></path>
<path d="M0.532 0.082 Q0.960 0.338 1.553 0.186" stroke="hsl(180.0,100%,35%)" stroke-width="0.00917"></path>
<path d="M0.532 0.082 Q0.393 0.183 0.559 0.273" stroke="hsl(180.0,100%,35%)" stroke-width="0.02141"></path>
<path d="M0.532 0.082 Q0.812 0.144 0.994 0.021" stroke="hsl(180.0,100%,35%)" stroke-width="0.00061"></path>
<path d="M0.532 0.082 Q0.816 0.417 1.531 0.352" stroke="hsl(180.0,100%,35%)" stroke-width="0.00061"></path>
<path d="M0.532 0.082 Q0.367 0.408 0.966 0.560" stroke="hsl(180.0,100%,35%)" stroke-width="0.00122"></path>
<path d="M0.532 0.082 Q0.686 0.542 1.617 0.568" stroke="hsl(180.0,100%,35%)" stroke-width="0.00061"></path>
<path d="M0.532 0.082 Q0.743 0.220 1.058 0.148" stroke="hsl(180.0,100%,35%)" stroke-width="0.00061"></path>
<path d="M0.532 0.082 Q0.558 0.418 1.217 0.479" stroke="hsl(180.0,100%,35%)" stroke-width="0.00061"></path>
<path d="M0.532 0.082 Q0.951 0.213 1.298 0.038" stroke="hsl(180.0,100%,35%)" stroke-width="0.00061"></path>
<path d="M1.798 0.067 Q1.580 0.077 1.553 0.186" stroke="hsl(180.0,100%,35%)" stroke-width="0.00856"></path>
<path d="M1.798 0.067 Q1.013 -0.078 0.559 0.273" stroke="hsl(180.0,100%,35%)" stroke-width="0.00061"></path>
<path d="M1.798 0.067 Q1.071 0.246 1.261 0.639" stroke="hsl(180.0,100%,35%)" stroke-width="0.00061"></path>
<path d="M1.798 0.067 Q0.987 0.147 0.966 0.560" stroke="hsl(180.0,100%,35%)" stroke-width="0.00122"></path>
<path d="M1.798 0.067 Q0.736 0.227 0.815 0.779" stroke="hsl(180.0,100%,35%)" stroke-width="0.00061"></path>
<path d="M1.798 0.067 Q1.352 0.090 1.301 0.313" stroke="hsl(180.0,100%,35%)" stroke-width="0.00061"></path>
<path d="M0.559 0.273 Q0.698 0.172 0.532 0.082" stroke="hsl(180.0,100%,35%)" stroke-width="0.03548"></path>
<path d="M0.559 0.273 Q1.126 0.428 1.553 0.186" stroke="hsl(180.0,100%,35%)" stroke-width="0.00489"></path>
<path d="M0.559 0.273 Q1.344 0.418 1.798 0.067" stroke="hsl(180.0,100%,35%)" stroke-width="0.00122"></path>
<path d="M0.559 0.273 Q1.309 0.420 1.760 0.086" stroke="hsl(180.0,100%,35%)" stroke-width="0.00061"></path>
<path d="M0.559 0.273 Q0.082 0.659 0.729 0.976" stroke="hsl(180.0,100%,35%)" stroke-width="0.00122"></path>
<path d="M0.559 0.273 Q0.617 0.597 1.261 0.639" stroke="hsl(180.0,100%,35%)" stroke-width="0.00183"></path>
<path d="M0.559 0.273 Q0.852 0.632 1.617 0.568" stroke="hsl(180.0,100%,35%)" stroke-width="0.00061"></path>
<path d="M0.559 0.273 Q0.533 0.498 0.966 0.560" stroke="hsl(180.0,100%,35%)" stroke-width="0.00061"></path>
<path d="M0.559 0.273 Q0.300 0.484 0.654 0.656" stroke="hsl(180.0,100%,35%)" stroke-width="0.00061"></path>
<path d="M1.301 0.313 Q1.529 0.300 1.553 0.186" stroke="hsl(180.0,100%,35%)" stroke-width="0.00917"></path>
<path d="M1.301 0.313 Q0.962 0.145 0.559 0.273" stroke="hsl(180.0,100%,35%)" stroke-width="0.00245"></path>
<path d="M1.301 0.313 Q1.459 0.445 1.750 0.397" stroke="hsl(180.0,100%,35%)" stroke-width="0.00061"></path>
<path d="M1.301 0.313 Q0.936 0.369 0.966 0.560" stroke="hsl(180.0,100%,35%)" stroke-width="0.00183"></path>
<path d="M1.301 0.313 Q1.405 0.255 1.314 0.191" stroke="hsl(180.0,100%,35%)" stroke-width="0.00306"></path>
<path d="M1.301 0.313 Q1.101 0.044 0.532 0.082" stroke="hsl(180.0,100%,35%)" stroke-width="0.00306"></path>
<path d="M1.301 0.313 Q1.712 0.291 1.760 0.086" stroke="hsl(180.0,100%,35%)" stroke-width="0.00061"></path>
<path d="M0.994 0.021 Q0.925 0.097 1.058 0.148" stroke="hsl(180.0,100%,35%)" stroke-width="0.00122"></path>
<path d="M0.994 0.021 Q1.142 0.215 1.553 0.186" stroke="hsl(180.0,100%,35%)" stroke-width="0.00367"></path>
<path d="M0.994 0.021 Q0.714 -0.041 0.532 0.082" stroke="hsl(180.0,100%,35%)" stroke-width="0.00550"></path>
<path d="M0.994 0.021 Q1.132 0.090 1.298 0.038" stroke="hsl(180.0,100%,35%)" stroke-width="0.00122"></path>
<path d="M0.994 0.021 Q0.633 0.384 1.261 0.639" stroke="hsl(180.0,100%,35%)" stroke-width="0.00183"></path>
<path d="M1.058 0.148 Q1.275 0.266 1.553 0.186" stroke="hsl(180.0,100%,35%)" stroke-width="0.00367"></path>
<path d="M1.058 0.148 Q0.708 0.111 0.559 0.273" stroke="hsl(180.0,100%,35%)" stroke-width="0.00245"></path>
<path d="M1.058 0.148 Q0.682 0.335 0.966 0.560" stroke="hsl(180.0,100%,35%)" stroke-width="0.00061"></path>
<path d="M1.058 0.148 Q0.847 0.010 0.532 0.082" stroke="hsl(180.0,100%,35%)" stroke-width="0.00367"></path>
<path d="M1.058 0.148 Q0.766 0.434 1.261 0.639" stroke="hsl(180.0,100%,35%)" stroke-width="0.00061"></path>
<path d="M1.750 0.397 Q1.393 -0.004 0.532 0.082" stroke="hsl(180.0,100%,35%)" stroke-width="0.00122"></path>
<path d="M1.750 0.397 Q2.004 0.243 1.760 0.086" stroke="hsl(180.0,100%,35%)" stroke-width="0.00122"></path>
<path d="M1.750 0.397 Q1.820 0.252 1.553 0.186" stroke="hsl(180.0,100%,35%)" stroke-width="0.00061"></path>
<path d="M1.314 0.191 Q1.428 0.111 1.298 0.038" stroke="hsl(180.0,100%,35%)" stroke-width="0.00061"></path>
<path d="M1.314 0.191 Q1.438 0.236 1.553 0.186" stroke="hsl(180.0,100%,35%)" stroke-width="0.00367"></path>
<path d="M1.314 0.191 Q1.303 0.135 1.191 0.128" stroke="hsl(180.0,100%,35%)" stroke-width="0.00061"></path>
<path d="M1.314 0.191 Q1.010 -0.020 0.532 0.082" stroke="hsl(180.0,100%,35%)" stroke-width="0.00306"></path>
<path d="M1.760 0.086 Q1.576 0.094 1.553 0.186" stroke="hsl(180.0,100%,35%)" stroke-width="0.00734"></path>
<path d="M1.760 0.086 Q1.794 0.084 1.798 0.067" stroke="hsl(180.0,100%,35%)" stroke-width="0.00061"></path>
<path d="M1.760 0.086 Q1.067 0.263 1.261 0.639" stroke="hsl(180.0,100%,35%)" stroke-width="0.00061"></path>
<path d="M1.073 0.263 Q0.770 0.243 0.665 0.387" stroke="hsl(180.0,100%,35%)" stroke-width="0.00061"></path>
<path d="M1.073 0.263 Q0.947 0.064 0.532 0.082" stroke="hsl(180.0,100%,35%)" stroke-width="0.00061"></path>
<path d="M1.073 0.263 Q1.375 0.320 1.553 0.186" stroke="hsl(180.0,100%,35%)" stroke-width="0.00061"></path>
<path d="M1.073 0.263 Q1.025 0.173 0.840 0.177" stroke="hsl(180.0,100%,35%)" stroke-width="0.00061"></path>
<path d="M0.840 0.177 Q1.189 0.324 1.553 0.186" stroke="hsl(180.0,100%,35%)" stroke-width="0.00245"></path>
<path d="M0.840 0.177 Q0.762 0.068 0.532 0.082" stroke="hsl(180.0,100%,35%)" stroke-width="0.00612"></path>
<path d="M0.840 0.177 Q0.585 0.247 0.665 0.387" stroke="hsl(180.0,100%,35%)" stroke-width="0.00245"></path>
<path d="M0.840 0.177 Q0.888 0.267 1.073 0.263" stroke="hsl(180.0,100%,35%)" stroke-width="0.00183"></path>
<path d="M0.840 0.177 Q0.623 0.169 0.559 0.273" stroke="hsl(180.0,100%,35%)" stroke-width="0.00122"></path>
<path d="M0.840 0.177 Q0.881 0.200 0.935 0.185" stroke="hsl(180.0,100%,35%)" stroke-width="0.00061"></path>
<path d="M0.729 0.976 Q1.207 0.591 0.559 0.273" stroke="hsl(180.0,100%,35%)" stroke-width="0.00245"></path>
<path d="M0.729 0.976 Q1.265 0.914 1.261 0.639" stroke="hsl(180.0,100%,35%)" stroke-width="0.00367"></path>
<path d="M0.729 0.976 Q1.181 0.815 0.966 0.560" stroke="hsl(180.0,100%,35%)" stroke-width="0.00122"></path>
<path d="M0.729 0.976 Q0.988 0.980 1.051 0.855" stroke="hsl(180.0,100%,35%)" stroke-width="0.00245"></path>
<path d="M0.729 0.976 Q0.930 0.895 0.815 0.779" stroke="hsl(180.0,100%,35%)" stroke-width="0.00061"></path>
<path d="M0.729 0.976 Q0.953 1.056 1.158 0.964" stroke="hsl(180.0,100%,35%)" stroke-width="0.00061"></path>
<path d="M0.574 0.813 Q1.057 0.864 1.261 0.639" stroke="hsl(0.0,100%,35%)" stroke-width="0.00061"></path>
<path d="M0.574 0.813 Q0.973 0.765 0.966 0.560" stroke="hsl(0.0,100%,35%)" stroke-width="0.00061"></path>
<path d="M0.574 0.813 Q0.722 0.845 0.815 0.779" stroke="hsl(0.0,100%,35%)" stroke-width="0.00061"></path>
<path d="M0.654 0.656 Q0.887 0.670 0.966 0.560" stroke="hsl(180.0,100%,35%)" stroke-width="0.01957"></path>
<path d="M0.654 0.656 Q1.480 0.601 1.553 0.186" stroke="hsl(180.0,100%,35%)" stroke-width="0.00856"></path>
<path d="M0.654 0.656 Q0.636 0.750 0.815 0.779" stroke="hsl(180.0,100%,35%)" stroke-width="0.00122"></path>
<path d="M0.654 0.656 Q1.052 0.345 0.532 0.082" stroke="hsl(180.0,100%,35%)" stroke-width="0.00917"></path>
<path d="M0.654 0.656 Q0.971 0.769 1.261 0.639" stroke="hsl(180.0,100%,35%)" stroke-width="0.00122"></path>
<path d="M0.654 0.656 Q0.913 0.446 0.559 0.273" stroke="hsl(180.0,100%,35%)" stroke-width="0.00061"></path>
<path d="M0.654 0.656 Q1.077 0.680 1.217 0.479" stroke="hsl(180.0,100%,35%)" stroke-width="0.00122"></path>
<path d="M1.664 0.271 Q1.677 0.206 1.553 0.186" stroke="hsl(180.0,100%,35%)" stroke-width="0.00489"></path>
<path d="M1.664 0.271 Q1.063 -0.045 0.314 0.179" stroke="hsl(180.0,100%,35%)" stroke-width="0.00306"></path>
<path d="M1.664 0.271 Q1.667 0.082 1.298 0.038" stroke="hsl(180.0,100%,35%)" stroke-width="0.00061"></path>
<path d="M1.664 0.271 Q1.168 0.375 1.261 0.639" stroke="hsl(180.0,100%,35%)" stroke-width="0.00122"></path>
<path d="M1.664 0.271 Q1.084 0.276 0.966 0.560" stroke="hsl(180.0,100%,35%)" stroke-width="0.00245"></path>
<path d="M1.664 0.271 Q1.110 0.051 0.559 0.273" stroke="hsl(180.0,100%,35%)" stroke-width="0.00061"></path>
<path d="M1.664 0.271 Q1.542 0.105 1.191 0.128" stroke="hsl(180.0,100%,35%)" stroke-width="0.00061"></path>
<path d="M1.214 0.727 Q1.817 0.524 1.553 0.186" stroke="hsl(0.0,100%,35%)" stroke-width="0.00061"></path>
<path d="M1.214 0.727 Q1.308 0.693 1.261 0.639" stroke="hsl(0.0,100%,35%)" stroke-width="0.00856"></path>
<path d="M1.214 0.727 Q1.224 0.594 0.966 0.560" stroke="hsl(0.0,100%,35%)" stroke-width="0.00367"></path>
<path d="M1.214 0.727 Q1.543 0.728 1.617 0.568" stroke="hsl(0.0,100%,35%)" stroke-width="0.00122"></path>
<path d="M1.214 0.727 Q0.973 0.674 0.815 0.779" stroke="hsl(0.0,100%,35%)" stroke-width="0.00367"></path>
<path d="M1.617 0.568 Q2.108 0.353 1.798 0.067" stroke="hsl(0.0,100%,35%)" stroke-width="0.00245"></path>
<path d="M1.617 0.568 Q1.381 0.532 1.261 0.639" stroke="hsl(0.0,100%,35%)" stroke-width="0.00979"></path>
<path d="M1.617 0.568 Q1.298 0.434 0.966 0.560" stroke="hsl(0.0,100%,35%)" stroke-width="0.01284"></path>
<path d="M1.617 0.568 Q1.488 0.443 1.217 0.479" stroke="hsl(0.0,100%,35%)" stroke-width="0.00245"></path>
<path d="M1.617 0.568 Q1.743 0.170 0.994 0.021" stroke="hsl(0.0,100%,35%)" stroke-width="0.00061"></path>
<path d="M1.617 0.568 Q1.323 0.209 0.559 0.273" stroke="hsl(0.0,100%,35%)" stroke-width="0.00061"></path>
<path d="M1.217 0.479 Q1.192 0.144 0.532 0.082" stroke="hsl(0.0,100%,35%)" stroke-width="0.00306"></path>
<path d="M1.217 0.479 Q1.110 0.568 1.261 0.639" stroke="hsl(0.0,100%,35%)" stroke-width="0.00367"></path>
<path d="M1.217 0.479 Q1.027 0.469 0.966 0.560" stroke="hsl(0.0,100%,35%)" stroke-width="0.01223"></path>
<path d="M1.217 0.479 Q0.775 0.549 0.815 0.779" stroke="hsl(0.0,100%,35%)" stroke-width="0.00122"></path>
<path d="M1.217 0.479 Q1.619 0.400 1.553 0.186" stroke="hsl(0.0,100%,35%)" stroke-width="0.00061"></path>
<path d="M1.217 0.479 Q1.052 0.244 0.559 0.273" stroke="hsl(0.0,100%,35%)" stroke-width="0.00061"></path>
<path d="M1.217 0.479 Q1.485 0.298 1.191 0.128" stroke="hsl(0.0,100%,35%)" stroke-width="0.00061"></path>
<path d="M1.191 0.128 Q1.543 0.218 1.798 0.067" stroke="hsl(180.0,100%,35%)" stroke-width="0.00245"></path>
<path d="M1.191 0.128 Q1.325 0.229 1.553 0.186" stroke="hsl(180.0,100%,35%)" stroke-width="0.00550"></path>
<path d="M1.191 0.128 Q0.898 -0.027 0.532 0.082" stroke="hsl(180.0,100%,35%)" stroke-width="0.00245"></path>
<path d="M0.767 0.311 Q0.833 0.150 0.532 0.082" stroke="hsl(180.0,100%,35%)" stroke-width="0.00183"></path>
<path d="M0.767 0.311 Q0.751 0.574 1.261 0.639" stroke="hsl(180.0,100%,35%)" stroke-width="0.00061"></path>
<path d="M0.767 0.311 Q1.113 0.212 0.994 0.021" stroke="hsl(180.0,100%,35%)" stroke-width="0.00061"></path>
<path d="M0.767 0.311 Q1.260 0.406 1.553 0.186" stroke="hsl(180.0,100%,35%)" stroke-width="0.00122"></path>
<path d="M0.314 0.179 Q0.928 0.430 1.553 0.186" stroke="hsl(180.0,100%,35%)" stroke-width="0.00428"></path>
<path d="M0.314 0.179 Q0.919 0.305 1.298 0.038" stroke="hsl(180.0,100%,35%)" stroke-width="0.00061"></path>
<path d="M0.314 0.179 Q1.146 0.420 1.798 0.067" stroke="hsl(180.0,100%,35%)" stroke-width="0.00061"></path>
<path d="M0.314 0.179 Q0.780 0.236 0.994 0.021" stroke="hsl(180.0,100%,35%)" stroke-width="0.00061"></path>
<path d="M0.314 0.179 Q0.419 0.599 1.261 0.639" stroke="hsl(180.0,100%,35%)" stroke-width="0.00061"></path>
<path d="M0.314 0.179 Q0.501 0.174 0.532 0.082" stroke="hsl(180.0,100%,35%)" stroke-width="0.00245"></path>
<path d="M1.531 0.352 Q1.675 0.273 1.553 0.186" stroke="hsl(180.0,100%,35%)" stroke-width="0.00306"></path>
<path d="M1.531 0.352 Q1.108 0.118 0.559 0.273" stroke="hsl(180.0,100%,35%)" stroke-width="0.00061"></path>
<path d="M1.531 0.352 Q1.247 0.017 0.532 0.082" stroke="hsl(180.0,100%,35%)" stroke-width="0.00245"></path>
<path d="M1.531 0.352 Q1.166 0.442 1.261 0.639" stroke="hsl(180.0,100%,35%)" stroke-width="0.00061"></path>
<path d="M0.773 0.115 Q1.106 0.307 1.553 0.186" stroke="hsl(180.0,100%,35%)" stroke-width="0.00061"></path>
<path d="M0.773 0.115 Q0.540 0.152 0.559 0.273" stroke="hsl(180.0,100%,35%)" stroke-width="0.00061"></path>
<path d="M0.773 0.115 Q0.679 0.051 0.532 0.082" stroke="hsl(180.0,100%,35%)" stroke-width="0.00061"></path>
<path d="M1.542 0.315 Q1.651 0.253 1.553 0.186" stroke="hsl(180.0,100%,35%)" stroke-width="0.00122"></path>
<path d="M1.542 0.315 Q1.084 0.098 0.559 0.273" stroke="hsl(180.0,100%,35%)" stroke-width="0.00061"></path>
<path d="M1.542 0.315 Q1.642 0.128 1.298 0.038" stroke="hsl(180.0,100%,35%)" stroke-width="0.00061"></path>
<path d="M1.786 0.220 Q1.697 0.157 1.553 0.186" stroke="hsl(180.0,100%,35%)" stroke-width="0.01040"></path>
<path d="M1.786 0.220 Q0.871 0.212 0.654 0.656" stroke="hsl(180.0,100%,35%)" stroke-width="0.00856"></path>
<path d="M1.786 0.220 Q1.269 -0.099 0.532 0.082" stroke="hsl(180.0,100%,35%)" stroke-width="0.00367"></path>
<path d="M1.786 0.220 Q1.188 0.325 1.261 0.639" stroke="hsl(180.0,100%,35%)" stroke-width="0.00061"></path>
<path d="M1.786 0.220 Q1.130 0.001 0.559 0.273" stroke="hsl(180.0,100%,35%)" stroke-width="0.00061"></path>
<path d="M0.259 0.401 Q0.252 0.608 0.654 0.656" stroke="hsl(180.0,100%,35%)" stroke-width="0.00306"></path>
<path d="M0.259 0.401 Q0.464 0.301 0.314 0.179" stroke="hsl(180.0,100%,35%)" stroke-width="0.00306"></path>
<path d="M0.259 0.401 Q1.078 0.552 1.553 0.186" stroke="hsl(180.0,100%,35%)" stroke-width="0.00306"></path>
<path d="M1.920 0.354 Q1.304 0.042 0.559 0.273" stroke="hsl(180.0,100%,35%)" stroke-width="0.00183"></path>
<path d="M1.920 0.354 Q1.858 0.262 1.664 0.271" stroke="hsl(180.0,100%,35%)" stroke-width="0.00122"></path>
<path d="M1.920 0.354 Q1.362 0.365 1.261 0.639" stroke="hsl(180.0,100%,35%)" stroke-width="0.00061"></path>
<path d="M1.085 0.271 Q1.387 0.322 1.553 0.186" stroke="hsl(180.0,100%,35%)" stroke-width="0.00122"></path>
<path d="M1.085 0.271 Q0.562 0.378 0.654 0.656" stroke="hsl(180.0,100%,35%)" stroke-width="0.00061"></path>
<path d="M1.085 0.271 Q1.374 0.387 1.664 0.271" stroke="hsl(180.0,100%,35%)" stroke-width="0.00061"></path>
<path d="M1.085 0.271 Q0.960 0.066 0.532 0.082" stroke="hsl(180.0,100%,35%)" stroke-width="0.00061"></path>
<path d="M1.085 0.271 Q1.253 0.221 1.191 0.128" stroke="hsl(180.0,100%,35%)" stroke-width="0.00061"></path>
</g>
<text x="0.881" y="0.671" font-size="0.013996" fill="hsl(0.0,100%,20%)">alanbaker</text>
<text x="1.261" y="0.599" font-size="0.081369" fill="hsl(0.0,100%,20%)">dsinclair</text>
<text x="0.966" y="0.518" font-size="0.083625" fill="hsl(0.0,100%,20%)">jrprice</text>
<text x="1.553" y="0.153" font-size="0.065497" fill="hsl(180.0,100%,20%)">cwallez</text>
<text x="0.815" y="0.760" font-size="0.039833" fill="hsl(0.0,100%,20%)">rharrison</text>
<text x="1.435" y="0.096" font-size="0.008852" fill="hsl(180.0,100%,20%)">albin.bernhardsson</text>
<text x="0.532" y="0.050" font-size="0.064442" fill="hsl(180.0,100%,20%)">lokokung</text>
<text x="1.798" y="0.053" font-size="0.026555" fill="hsl(180.0,100%,20%)">amaiorano</text>
<text x="0.559" y="0.247" font-size="0.053111" fill="hsl(180.0,100%,20%)">kainino</text>
<text x="1.301" y="0.300" font-size="0.026555" fill="hsl(180.0,100%,20%)">beaufort.francois</text>
<text x="0.994" y="0.010" font-size="0.022998" fill="hsl(180.0,100%,20%)">bajones</text>
<text x="1.058" y="0.137" font-size="0.020282" fill="hsl(180.0,100%,20%)">shrekshao</text>
<text x="1.298" y="0.030" font-size="0.017141" fill="hsl(180.0,100%,20%)">geofflang</text>
<text x="1.750" y="0.389" font-size="0.014679" fill="hsl(180.0,100%,20%)">senorblanco</text>
<text x="1.314" y="0.182" font-size="0.018778" fill="hsl(180.0,100%,20%)">zhaoming.jiang</text>
<text x="1.760" y="0.076" font-size="0.019292" fill="hsl(180.0,100%,20%)">gman</text>
<text x="1.073" y="0.257" font-size="0.011710" fill="hsl(180.0,100%,20%)">bkaya</text>
<text x="0.665" y="0.382" font-size="0.009897" fill="hsl(180.0,100%,20%)">alfiebaxter</text>
<text x="0.840" y="0.166" font-size="0.022130" fill="hsl(180.0,100%,20%)">jimblackler</text>
<text x="0.729" y="0.965" font-size="0.023420" fill="hsl(180.0,100%,20%)">bsheedy</text>
<text x="1.051" y="0.850" font-size="0.008852" fill="hsl(0.0,100%,20%)">gbeaty</text>
<text x="1.158" y="0.962" font-size="0.004426" fill="hsl(0.0,100%,20%)">ynovikov</text>
<text x="0.574" y="0.809" font-size="0.007666" fill="hsl(0.0,100%,20%)">cdesouza</text>
<text x="0.654" y="0.635" font-size="0.041988" fill="hsl(180.0,100%,20%)">jiawei.shao</text>
<text x="1.664" y="0.260" font-size="0.022568" fill="hsl(180.0,100%,20%)">shaoboyan</text>
<text x="1.214" y="0.715" font-size="0.023834" fill="hsl(0.0,100%,20%)">diejorarr</text>
<text x="1.617" y="0.551" font-size="0.032823" fill="hsl(0.0,100%,20%)">petermcneeley</text>
<text x="1.217" y="0.459" font-size="0.040078" fill="hsl(0.0,100%,20%)">dneto</text>
<text x="1.191" y="0.117" font-size="0.020282" fill="hsl(180.0,100%,20%)">rafael.cintron</text>
<text x="0.935" y="0.183" font-size="0.004426" fill="hsl(180.0,100%,20%)">nikigupta</text>
<text x="0.767" y="0.305" font-size="0.011710" fill="hsl(180.0,100%,20%)">kylechar</text>
<text x="0.314" y="0.168" font-size="0.022130" fill="hsl(180.0,100%,20%)">lehoangquyen</text>
<text x="1.531" y="0.344" font-size="0.015332" fill="hsl(180.0,100%,20%)">sunnyps</text>
<text x="0.773" y="0.112" font-size="0.007666" fill="hsl(180.0,100%,20%)">manuel.winkler</text>
<text x="1.542" y="0.311" font-size="0.008852" fill="hsl(180.0,100%,20%)">rop</text>
<text x="1.786" y="0.207" font-size="0.027640" fill="hsl(180.0,100%,20%)">shanxing.mei</text>
<text x="0.259" y="0.393" font-size="0.017141" fill="hsl(180.0,100%,20%)">xing.xu</text>
<text x="1.920" y="0.349" font-size="0.010841" fill="hsl(180.0,100%,20%)">yulong.fs</text>
<text x="1.085" y="0.266" font-size="0.010841" fill="hsl(180.0,100%,20%)">zhuangxu</text>
</svg>
