<svg width="4000" height="2000" viewBox="-0.025 -0.025 2.05 1.05" xmlns="http://www.w3.org/2000/svg">
  <style>
    path {
      fill: none;
      stroke-linecap: round;
      stroke-opacity: 0.4;
    }

    text {
      text-anchor: middle;
      alignment-baseline: hanging;
    }
  </style>
  <g opacity="0.4">
<path d="M0.846 0.443 Q0.825 0.651 1.226 0.707" stroke="hsl(0.0,100%,35%)" stroke-width="0.00128"></path>
<path d="M0.846 0.443 Q0.378 0.712 0.800 0.999" stroke="hsl(0.0,100%,35%)" stroke-width="0.00106"></path>
<path d="M0.846 0.443 Q1.147 0.576 1.471 0.458" stroke="hsl(0.0,100%,35%)" stroke-width="0.00021"></path>
<path d="M0.846 0.443 Q0.392 0.583 0.564 0.835" stroke="hsl(0.0,100%,35%)" stroke-width="0.00021"></path>
<path d="M1.226 0.707 Q0.779 0.768 0.800 0.999" stroke="hsl(0.0,100%,35%)" stroke-width="0.02530"></path>
<path d="M1.226 0.707 Q1.653 0.505 1.354 0.252" stroke="hsl(0.0,100%,35%)" stroke-width="0.01361"></path>
<path d="M1.226 0.707 Q0.858 0.478 0.330 0.607" stroke="hsl(0.0,100%,35%)" stroke-width="0.00106"></path>
<path d="M1.226 0.707 Q0.919 0.716 0.869 0.867" stroke="hsl(0.0,100%,35%)" stroke-width="0.00064"></path>
<path d="M1.226 0.707 Q0.703 0.692 0.559 0.944" stroke="hsl(0.0,100%,35%)" stroke-width="0.01127"></path>
<path d="M1.226 0.707 Q0.792 0.639 0.564 0.835" stroke="hsl(0.0,100%,35%)" stroke-width="0.00276"></path>
<path d="M1.226 0.707 Q1.190 0.579 0.933 0.569" stroke="hsl(0.0,100%,35%)" stroke-width="0.00021"></path>
<path d="M1.226 0.707 Q1.775 0.563 1.615 0.264" stroke="hsl(0.0,100%,35%)" stroke-width="0.00021"></path>
<path d="M1.226 0.707 Q1.548 0.631 1.471 0.458" stroke="hsl(0.0,100%,35%)" stroke-width="0.00064"></path>
<path d="M1.226 0.707 Q1.129 0.536 0.774 0.546" stroke="hsl(0.0,100%,35%)" stroke-width="0.00021"></path>
<path d="M1.226 0.707 Q1.030 0.582 0.744 0.651" stroke="hsl(0.0,100%,35%)" stroke-width="0.00043"></path>
<path d="M1.226 0.707 Q1.164 0.610 0.962 0.619" stroke="hsl(0.0,100%,35%)" stroke-width="0.00106"></path>
<path d="M1.226 0.707 Q1.321 0.553 1.042 0.473" stroke="hsl(0.0,100%,35%)" stroke-width="0.00021"></path>
<path d="M1.226 0.707 Q1.413 0.519 1.087 0.386" stroke="hsl(0.0,100%,35%)" stroke-width="0.00021"></path>
<path d="M1.226 0.707 Q0.914 0.824 1.073 1.002" stroke="hsl(0.0,100%,35%)" stroke-width="0.00064"></path>
<path d="M1.226 0.707 Q1.131 0.607 0.916 0.632" stroke="hsl(0.0,100%,35%)" stroke-width="0.00043"></path>
<path d="M1.226 0.707 Q0.487 0.859 0.621 1.253" stroke="hsl(0.0,100%,35%)" stroke-width="0.00021"></path>
<path d="M1.226 0.707 Q1.059 0.775 1.156 0.872" stroke="hsl(0.0,100%,35%)" stroke-width="0.00021"></path>
<path d="M0.800 0.999 Q1.080 1.007 1.156 0.872" stroke="hsl(0.0,100%,35%)" stroke-width="0.00021"></path>
<path d="M0.800 0.999 Q1.247 0.938 1.226 0.707" stroke="hsl(0.0,100%,35%)" stroke-width="0.00893"></path>
<path d="M0.800 0.999 Q0.724 0.923 0.559 0.944" stroke="hsl(0.0,100%,35%)" stroke-width="0.02169"></path>
<path d="M0.800 0.999 Q1.434 0.750 1.087 0.386" stroke="hsl(0.0,100%,35%)" stroke-width="0.00191"></path>
<path d="M0.800 0.999 Q0.940 0.947 0.869 0.867" stroke="hsl(0.0,100%,35%)" stroke-width="0.00064"></path>
<path d="M0.800 0.999 Q1.803 0.826 1.686 0.299" stroke="hsl(0.0,100%,35%)" stroke-width="0.00064"></path>
<path d="M0.800 0.999 Q0.813 0.870 0.564 0.835" stroke="hsl(0.0,100%,35%)" stroke-width="0.00574"></path>
<path d="M0.800 0.999 Q0.879 0.709 0.330 0.607" stroke="hsl(0.0,100%,35%)" stroke-width="0.00170"></path>
<path d="M0.800 0.999 Q1.569 0.863 1.471 0.458" stroke="hsl(0.0,100%,35%)" stroke-width="0.00106"></path>
<path d="M0.800 0.999 Q0.716 0.720 0.152 0.699" stroke="hsl(0.0,100%,35%)" stroke-width="0.00106"></path>
<path d="M0.800 0.999 Q1.185 0.842 0.962 0.619" stroke="hsl(0.0,100%,35%)" stroke-width="0.00170"></path>
<path d="M0.800 0.999 Q1.674 0.737 1.354 0.252" stroke="hsl(0.0,100%,35%)" stroke-width="0.00213"></path>
<path d="M0.800 0.999 Q0.935 1.055 1.073 1.002" stroke="hsl(0.0,100%,35%)" stroke-width="0.00064"></path>
<path d="M0.800 0.999 Q1.606 0.795 1.384 0.357" stroke="hsl(0.0,100%,35%)" stroke-width="0.00064"></path>
<path d="M0.800 0.999 Q0.797 0.872 0.548 0.846" stroke="hsl(0.0,100%,35%)" stroke-width="0.00064"></path>
<path d="M0.800 0.999 Q1.296 0.817 1.050 0.535" stroke="hsl(0.0,100%,35%)" stroke-width="0.00021"></path>
<path d="M0.800 0.999 Q1.796 0.795 1.615 0.264" stroke="hsl(0.0,100%,35%)" stroke-width="0.00106"></path>
<path d="M0.800 0.999 Q0.722 0.853 0.420 0.859" stroke="hsl(0.0,100%,35%)" stroke-width="0.00043"></path>
<path d="M0.800 0.999 Q1.056 0.948 1.012 0.813" stroke="hsl(0.0,100%,35%)" stroke-width="0.00043"></path>
<path d="M0.800 0.999 Q1.260 0.846 1.061 0.588" stroke="hsl(0.0,100%,35%)" stroke-width="0.00021"></path>
<path d="M0.800 0.999 Q0.977 0.852 0.729 0.734" stroke="hsl(0.0,100%,35%)" stroke-width="0.00064"></path>
<path d="M1.471 0.458 Q1.509 0.390 1.384 0.357" stroke="hsl(180.0,100%,35%)" stroke-width="0.02509"></path>
<path d="M1.471 0.458 Q1.577 0.332 1.354 0.252" stroke="hsl(180.0,100%,35%)" stroke-width="0.04317"></path>
<path d="M1.471 0.458 Q1.337 0.345 1.087 0.386" stroke="hsl(180.0,100%,35%)" stroke-width="0.00298"></path>
<path d="M1.471 0.458 Q1.401 0.522 1.511 0.571" stroke="hsl(180.0,100%,35%)" stroke-width="0.00021"></path>
<path d="M1.471 0.458 Q1.150 0.533 1.226 0.707" stroke="hsl(180.0,100%,35%)" stroke-width="0.00191"></path>
<path d="M1.471 0.458 Q0.703 0.594 0.800 0.999" stroke="hsl(180.0,100%,35%)" stroke-width="0.00106"></path>
<path d="M1.471 0.458 Q1.698 0.390 1.615 0.264" stroke="hsl(180.0,100%,35%)" stroke-width="0.00043"></path>
<path d="M1.471 0.458 Q0.782 0.304 0.330 0.607" stroke="hsl(180.0,100%,35%)" stroke-width="0.00085"></path>
<path d="M1.471 0.458 Q0.619 0.315 0.152 0.699" stroke="hsl(180.0,100%,35%)" stroke-width="0.00021"></path>
<path d="M1.471 0.458 Q0.699 0.467 0.548 0.846" stroke="hsl(180.0,100%,35%)" stroke-width="0.00021"></path>
<path d="M1.471 0.458 Q0.716 0.465 0.564 0.835" stroke="hsl(180.0,100%,35%)" stroke-width="0.00043"></path>
<path d="M1.471 0.458 Q1.706 0.422 1.686 0.299" stroke="hsl(180.0,100%,35%)" stroke-width="0.00021"></path>
<path d="M0.564 0.835 Q0.551 0.964 0.800 0.999" stroke="hsl(0.0,100%,35%)" stroke-width="0.00383"></path>
<path d="M0.564 0.835 Q0.998 0.903 1.226 0.707" stroke="hsl(0.0,100%,35%)" stroke-width="0.00234"></path>
<path d="M0.564 0.835 Q0.474 0.888 0.559 0.944" stroke="hsl(0.0,100%,35%)" stroke-width="0.00298"></path>
<path d="M0.564 0.835 Q1.425 0.702 1.354 0.252" stroke="hsl(0.0,100%,35%)" stroke-width="0.00043"></path>
<path d="M0.564 0.835 Q1.047 0.782 1.050 0.535" stroke="hsl(0.0,100%,35%)" stroke-width="0.00021"></path>
<path d="M0.564 0.835 Q0.467 0.685 0.152 0.699" stroke="hsl(0.0,100%,35%)" stroke-width="0.00021"></path>
<path d="M0.564 0.835 Q0.936 0.807 0.962 0.619" stroke="hsl(0.0,100%,35%)" stroke-width="0.00021"></path>
<path d="M0.564 0.835 Q0.473 0.818 0.420 0.859" stroke="hsl(0.0,100%,35%)" stroke-width="0.00064"></path>
<path d="M1.087 0.386 Q1.328 0.373 1.354 0.252" stroke="hsl(180.0,100%,35%)" stroke-width="0.00872"></path>
<path d="M1.087 0.386 Q0.453 0.635 0.800 0.999" stroke="hsl(180.0,100%,35%)" stroke-width="0.00978"></path>
<path d="M1.087 0.386 Q0.733 0.643 1.156 0.872" stroke="hsl(180.0,100%,35%)" stroke-width="0.00021"></path>
<path d="M1.087 0.386 Q0.900 0.574 1.226 0.707" stroke="hsl(180.0,100%,35%)" stroke-width="0.00213"></path>
<path d="M1.087 0.386 Q1.222 0.499 1.471 0.458" stroke="hsl(180.0,100%,35%)" stroke-width="0.00213"></path>
<path d="M1.087 0.386 Q1.259 0.431 1.384 0.357" stroke="hsl(180.0,100%,35%)" stroke-width="0.00106"></path>
<path d="M1.087 0.386 Q0.467 0.506 0.564 0.835" stroke="hsl(180.0,100%,35%)" stroke-width="0.00043"></path>
<path d="M1.354 0.252 Q1.113 0.266 1.087 0.386" stroke="hsl(180.0,100%,35%)" stroke-width="0.01914"></path>
<path d="M1.354 0.252 Q1.248 0.379 1.471 0.458" stroke="hsl(180.0,100%,35%)" stroke-width="0.05741"></path>
<path d="M1.354 0.252 Q1.285 0.311 1.384 0.357" stroke="hsl(180.0,100%,35%)" stroke-width="0.05784"></path>
<path d="M1.354 0.252 Q0.927 0.454 1.226 0.707" stroke="hsl(180.0,100%,35%)" stroke-width="0.01552"></path>
<path d="M1.354 0.252 Q1.482 0.342 1.686 0.299" stroke="hsl(180.0,100%,35%)" stroke-width="0.00574"></path>
<path d="M1.354 0.252 Q0.401 0.369 0.420 0.859" stroke="hsl(180.0,100%,35%)" stroke-width="0.00021"></path>
<path d="M1.354 0.252 Q0.493 0.386 0.564 0.835" stroke="hsl(180.0,100%,35%)" stroke-width="0.00064"></path>
<path d="M1.354 0.252 Q0.480 0.515 0.800 0.999" stroke="hsl(180.0,100%,35%)" stroke-width="0.00787"></path>
<path d="M1.354 0.252 Q0.864 0.357 0.962 0.619" stroke="hsl(180.0,100%,35%)" stroke-width="0.00043"></path>
<path d="M1.354 0.252 Q0.731 0.330 0.744 0.651" stroke="hsl(180.0,100%,35%)" stroke-width="0.00021"></path>
<path d="M1.354 0.252 Q0.939 0.362 1.061 0.588" stroke="hsl(180.0,100%,35%)" stroke-width="0.00021"></path>
<path d="M1.354 0.252 Q1.475 0.311 1.615 0.264" stroke="hsl(180.0,100%,35%)" stroke-width="0.00617"></path>
<path d="M1.354 0.252 Q0.559 0.225 0.330 0.607" stroke="hsl(180.0,100%,35%)" stroke-width="0.00021"></path>
<path d="M1.354 0.252 Q1.185 0.187 1.021 0.255" stroke="hsl(180.0,100%,35%)" stroke-width="0.00021"></path>
<path d="M1.156 0.872 Q0.876 0.865 0.800 0.999" stroke="hsl(0.0,100%,35%)" stroke-width="0.00213"></path>
<path d="M1.156 0.872 Q1.750 0.602 1.354 0.252" stroke="hsl(0.0,100%,35%)" stroke-width="0.00043"></path>
<path d="M1.156 0.872 Q0.798 0.718 0.420 0.859" stroke="hsl(0.0,100%,35%)" stroke-width="0.00021"></path>
<path d="M1.156 0.872 Q1.323 0.803 1.226 0.707" stroke="hsl(0.0,100%,35%)" stroke-width="0.00021"></path>
<path d="M1.156 0.872 Q1.510 0.615 1.087 0.386" stroke="hsl(0.0,100%,35%)" stroke-width="0.00043"></path>
<path d="M1.156 0.872 Q0.889 0.735 0.564 0.835" stroke="hsl(0.0,100%,35%)" stroke-width="0.00021"></path>
<path d="M1.384 0.357 Q1.453 0.299 1.354 0.252" stroke="hsl(180.0,100%,35%)" stroke-width="0.04529"></path>
<path d="M1.384 0.357 Q1.347 0.425 1.471 0.458" stroke="hsl(180.0,100%,35%)" stroke-width="0.02509"></path>
<path d="M1.384 0.357 Q1.025 0.500 1.226 0.707" stroke="hsl(180.0,100%,35%)" stroke-width="0.00128"></path>
<path d="M1.384 0.357 Q1.581 0.389 1.686 0.299" stroke="hsl(180.0,100%,35%)" stroke-width="0.00617"></path>
<path d="M1.384 0.357 Q1.212 0.312 1.087 0.386" stroke="hsl(180.0,100%,35%)" stroke-width="0.00064"></path>
<path d="M1.384 0.357 Q0.963 0.404 0.962 0.619" stroke="hsl(180.0,100%,35%)" stroke-width="0.00064"></path>
<path d="M1.384 0.357 Q0.578 0.561 0.800 0.999" stroke="hsl(180.0,100%,35%)" stroke-width="0.00128"></path>
<path d="M1.384 0.357 Q0.575 0.434 0.548 0.846" stroke="hsl(180.0,100%,35%)" stroke-width="0.00021"></path>
<path d="M1.384 0.357 Q1.630 0.196 1.370 0.041" stroke="hsl(180.0,100%,35%)" stroke-width="0.00021"></path>
<path d="M1.384 0.357 Q1.309 0.352 1.282 0.388" stroke="hsl(180.0,100%,35%)" stroke-width="0.00021"></path>
<path d="M0.744 0.651 Q0.941 0.775 1.226 0.707" stroke="hsl(0.0,100%,35%)" stroke-width="0.00532"></path>
<path d="M0.744 0.651 Q0.494 0.836 0.800 0.999" stroke="hsl(0.0,100%,35%)" stroke-width="0.00043"></path>
<path d="M0.744 0.651 Q0.890 0.513 0.653 0.412" stroke="hsl(0.0,100%,35%)" stroke-width="0.00021"></path>
<path d="M0.744 0.651 Q1.368 0.573 1.354 0.252" stroke="hsl(0.0,100%,35%)" stroke-width="0.00149"></path>
<path d="M0.709 0.783 Q1.028 0.848 1.226 0.707" stroke="hsl(0.0,100%,35%)" stroke-width="0.00043"></path>
<path d="M0.709 0.783 Q0.595 0.780 0.564 0.835" stroke="hsl(0.0,100%,35%)" stroke-width="0.00043"></path>
<path d="M0.709 0.783 Q0.505 0.833 0.559 0.944" stroke="hsl(0.0,100%,35%)" stroke-width="0.00021"></path>
<path d="M0.709 0.783 Q0.497 0.630 0.152 0.699" stroke="hsl(0.0,100%,35%)" stroke-width="0.00021"></path>
<path d="M0.709 0.783 Q1.456 0.646 1.354 0.252" stroke="hsl(0.0,100%,35%)" stroke-width="0.00021"></path>
<path d="M0.709 0.783 Q0.582 0.909 0.800 0.999" stroke="hsl(0.0,100%,35%)" stroke-width="0.00021"></path>
<path d="M0.559 0.944 Q0.635 1.020 0.800 0.999" stroke="hsl(0.0,100%,35%)" stroke-width="0.02275"></path>
<path d="M0.559 0.944 Q1.082 0.959 1.226 0.707" stroke="hsl(0.0,100%,35%)" stroke-width="0.00702"></path>
<path d="M0.559 0.944 Q0.551 0.740 0.152 0.699" stroke="hsl(0.0,100%,35%)" stroke-width="0.00106"></path>
<path d="M0.559 0.944 Q1.509 0.757 1.354 0.252" stroke="hsl(0.0,100%,35%)" stroke-width="0.00064"></path>
<path d="M0.559 0.944 Q0.648 0.891 0.564 0.835" stroke="hsl(0.0,100%,35%)" stroke-width="0.00361"></path>
<path d="M0.559 0.944 Q0.632 0.893 0.548 0.846" stroke="hsl(0.0,100%,35%)" stroke-width="0.00021"></path>
<path d="M0.559 0.944 Q1.269 0.771 1.087 0.386" stroke="hsl(0.0,100%,35%)" stroke-width="0.00021"></path>
<path d="M0.559 0.944 Q0.755 0.839 0.594 0.721" stroke="hsl(0.0,100%,35%)" stroke-width="0.00021"></path>
<path d="M0.559 0.944 Q1.020 0.862 0.962 0.619" stroke="hsl(0.0,100%,35%)" stroke-width="0.00128"></path>
<path d="M0.559 0.944 Q1.441 0.816 1.384 0.357" stroke="hsl(0.0,100%,35%)" stroke-width="0.00021"></path>
<path d="M0.152 0.699 Q0.236 0.979 0.800 0.999" stroke="hsl(0.0,100%,35%)" stroke-width="0.00851"></path>
<path d="M0.152 0.699 Q0.683 0.918 1.226 0.707" stroke="hsl(0.0,100%,35%)" stroke-width="0.00043"></path>
<path d="M0.152 0.699 Q0.160 0.903 0.559 0.944" stroke="hsl(0.0,100%,35%)" stroke-width="0.00170"></path>
<path d="M0.152 0.699 Q0.249 0.850 0.564 0.835" stroke="hsl(0.0,100%,35%)" stroke-width="0.00043"></path>
<path d="M0.152 0.699 Q0.315 0.689 0.330 0.607" stroke="hsl(0.0,100%,35%)" stroke-width="0.00447"></path>
<path d="M0.152 0.699 Q1.110 0.716 1.354 0.252" stroke="hsl(0.0,100%,35%)" stroke-width="0.00106"></path>
<path d="M0.152 0.699 Q1.005 0.843 1.471 0.458" stroke="hsl(0.0,100%,35%)" stroke-width="0.00085"></path>
<path d="M0.152 0.699 Q1.042 0.775 1.384 0.357" stroke="hsl(0.0,100%,35%)" stroke-width="0.00021"></path>
<path d="M0.152 0.699 Q0.621 0.821 0.962 0.619" stroke="hsl(0.0,100%,35%)" stroke-width="0.00021"></path>
<path d="M0.902 0.734 Q0.639 0.846 0.800 0.999" stroke="hsl(0.0,100%,35%)" stroke-width="0.00043"></path>
<path d="M0.902 0.734 Q1.024 0.689 0.962 0.619" stroke="hsl(0.0,100%,35%)" stroke-width="0.00021"></path>
<path d="M0.902 0.734 Q1.086 0.785 1.226 0.707" stroke="hsl(0.0,100%,35%)" stroke-width="0.00021"></path>
<path d="M0.962 0.619 Q0.590 0.648 0.564 0.835" stroke="hsl(0.0,100%,35%)" stroke-width="0.00234"></path>
<path d="M0.962 0.619 Q0.493 0.497 0.152 0.699" stroke="hsl(0.0,100%,35%)" stroke-width="0.00021"></path>
<path d="M0.962 0.619 Q1.024 0.716 1.226 0.707" stroke="hsl(0.0,100%,35%)" stroke-width="0.00064"></path>
<path d="M0.962 0.619 Q0.577 0.777 0.800 0.999" stroke="hsl(0.0,100%,35%)" stroke-width="0.00383"></path>
<path d="M0.962 0.619 Q0.500 0.701 0.559 0.944" stroke="hsl(0.0,100%,35%)" stroke-width="0.00064"></path>
<path d="M0.962 0.619 Q1.211 0.528 1.087 0.386" stroke="hsl(0.0,100%,35%)" stroke-width="0.00021"></path>
<path d="M0.962 0.619 Q1.580 0.604 1.686 0.299" stroke="hsl(0.0,100%,35%)" stroke-width="0.00021"></path>
<path d="M1.686 0.299 Q1.558 0.209 1.354 0.252" stroke="hsl(180.0,100%,35%)" stroke-width="0.00489"></path>
<path d="M1.686 0.299 Q1.452 0.336 1.471 0.458" stroke="hsl(180.0,100%,35%)" stroke-width="0.00128"></path>
<path d="M1.686 0.299 Q0.683 0.472 0.800 0.999" stroke="hsl(180.0,100%,35%)" stroke-width="0.00170"></path>
<path d="M1.686 0.299 Q1.489 0.268 1.384 0.357" stroke="hsl(180.0,100%,35%)" stroke-width="0.00234"></path>
<path d="M1.686 0.299 Q1.317 0.223 1.087 0.386" stroke="hsl(180.0,100%,35%)" stroke-width="0.00021"></path>
<path d="M1.686 0.299 Q1.735 0.107 1.370 0.041" stroke="hsl(180.0,100%,35%)" stroke-width="0.00043"></path>
<path d="M1.686 0.299 Q1.068 0.314 0.962 0.619" stroke="hsl(180.0,100%,35%)" stroke-width="0.00021"></path>
<path d="M1.686 0.299 Q1.130 0.411 1.226 0.707" stroke="hsl(180.0,100%,35%)" stroke-width="0.00064"></path>
<path d="M0.420 0.859 Q0.498 1.005 0.800 0.999" stroke="hsl(0.0,100%,35%)" stroke-width="0.00914"></path>
<path d="M0.420 0.859 Q0.511 0.876 0.564 0.835" stroke="hsl(0.0,100%,35%)" stroke-width="0.00064"></path>
<path d="M0.420 0.859 Q1.266 0.869 1.471 0.458" stroke="hsl(0.0,100%,35%)" stroke-width="0.00021"></path>
<path d="M0.420 0.859 Q0.644 0.802 0.583 0.680" stroke="hsl(0.0,100%,35%)" stroke-width="0.00043"></path>
<path d="M1.615 0.264 Q1.388 0.332 1.471 0.458" stroke="hsl(180.0,100%,35%)" stroke-width="0.00128"></path>
<path d="M1.615 0.264 Q0.620 0.469 0.800 0.999" stroke="hsl(180.0,100%,35%)" stroke-width="0.00106"></path>
<path d="M1.615 0.264 Q1.494 0.206 1.354 0.252" stroke="hsl(180.0,100%,35%)" stroke-width="0.00064"></path>
<path d="M1.615 0.264 Q1.426 0.265 1.384 0.357" stroke="hsl(180.0,100%,35%)" stroke-width="0.00021"></path>
<path d="M1.615 0.264 Q1.254 0.220 1.087 0.386" stroke="hsl(180.0,100%,35%)" stroke-width="0.00021"></path>
<path d="M0.330 0.607 Q0.252 0.897 0.800 0.999" stroke="hsl(0.0,100%,35%)" stroke-width="0.00638"></path>
<path d="M0.330 0.607 Q1.126 0.634 1.354 0.252" stroke="hsl(0.0,100%,35%)" stroke-width="0.00383"></path>
<path d="M0.330 0.607 Q1.020 0.761 1.471 0.458" stroke="hsl(0.0,100%,35%)" stroke-width="0.00128"></path>
<path d="M0.330 0.607 Q0.175 0.821 0.559 0.944" stroke="hsl(0.0,100%,35%)" stroke-width="0.00043"></path>
<path d="M0.330 0.607 Q0.636 0.739 0.962 0.619" stroke="hsl(0.0,100%,35%)" stroke-width="0.00021"></path>
<path d="M0.330 0.607 Q0.167 0.617 0.152 0.699" stroke="hsl(0.0,100%,35%)" stroke-width="0.00021"></path>
<path d="M0.330 0.607 Q0.248 0.770 0.548 0.846" stroke="hsl(0.0,100%,35%)" stroke-width="0.00043"></path>
<path d="M0.330 0.607 Q0.698 0.836 1.226 0.707" stroke="hsl(0.0,100%,35%)" stroke-width="0.00043"></path>
<path d="M0.330 0.607 Q0.265 0.768 0.564 0.835" stroke="hsl(0.0,100%,35%)" stroke-width="0.00021"></path>
<path d="M0.700 0.557 Q1.271 0.536 1.354 0.252" stroke="hsl(0.0,100%,35%)" stroke-width="0.00043"></path>
<path d="M0.700 0.557 Q0.410 0.669 0.564 0.835" stroke="hsl(0.0,100%,35%)" stroke-width="0.00085"></path>
<path d="M0.700 0.557 Q0.844 0.737 1.226 0.707" stroke="hsl(0.0,100%,35%)" stroke-width="0.00532"></path>
<path d="M0.700 0.557 Q0.397 0.798 0.800 0.999" stroke="hsl(0.0,100%,35%)" stroke-width="0.00170"></path>
<path d="M0.700 0.557 Q0.320 0.722 0.559 0.944" stroke="hsl(0.0,100%,35%)" stroke-width="0.00064"></path>
<path d="M0.933 0.569 Q0.969 0.696 1.226 0.707" stroke="hsl(0.0,100%,35%)" stroke-width="0.00532"></path>
<path d="M0.933 0.569 Q0.522 0.757 0.800 0.999" stroke="hsl(0.0,100%,35%)" stroke-width="0.00170"></path>
<path d="M0.933 0.569 Q0.816 0.417 0.494 0.441" stroke="hsl(0.0,100%,35%)" stroke-width="0.00064"></path>
<path d="M0.933 0.569 Q0.446 0.681 0.559 0.944" stroke="hsl(0.0,100%,35%)" stroke-width="0.00021"></path>
<path d="M0.996 0.749 Q1.145 0.774 1.226 0.707" stroke="hsl(0.0,100%,35%)" stroke-width="0.00149"></path>
<path d="M0.996 0.749 Q0.698 0.835 0.800 0.999" stroke="hsl(0.0,100%,35%)" stroke-width="0.00191"></path>
<path d="M0.996 0.749 Q1.572 0.572 1.354 0.252" stroke="hsl(0.0,100%,35%)" stroke-width="0.00213"></path>
<path d="M0.996 0.749 Q1.504 0.631 1.384 0.357" stroke="hsl(0.0,100%,35%)" stroke-width="0.00021"></path>
<path d="M0.869 0.867 Q0.729 0.920 0.800 0.999" stroke="hsl(0.0,100%,35%)" stroke-width="0.01382"></path>
<path d="M0.869 0.867 Q1.176 0.858 1.226 0.707" stroke="hsl(0.0,100%,35%)" stroke-width="0.00766"></path>
<path d="M0.869 0.867 Q1.603 0.657 1.354 0.252" stroke="hsl(0.0,100%,35%)" stroke-width="0.00021"></path>
<path d="M0.869 0.867 Q0.653 0.843 0.559 0.944" stroke="hsl(0.0,100%,35%)" stroke-width="0.00021"></path>
<path d="M1.073 1.002 Q0.939 0.946 0.800 0.999" stroke="hsl(0.0,100%,35%)" stroke-width="0.00255"></path>
<path d="M1.073 1.002 Q1.386 0.885 1.226 0.707" stroke="hsl(0.0,100%,35%)" stroke-width="0.00106"></path>
<path d="M1.073 1.002 Q1.079 0.894 0.869 0.867" stroke="hsl(0.0,100%,35%)" stroke-width="0.00021"></path>
<path d="M0.621 1.253 Q1.360 1.101 1.226 0.707" stroke="hsl(0.0,100%,35%)" stroke-width="0.00043"></path>
<path d="M0.621 1.253 Q0.913 1.162 0.800 0.999" stroke="hsl(0.0,100%,35%)" stroke-width="0.00064"></path>
<path d="M0.621 1.253 Q0.926 1.033 0.564 0.835" stroke="hsl(0.0,100%,35%)" stroke-width="0.00021"></path>
<path d="M0.831 0.492 Q1.284 0.477 1.354 0.252" stroke="hsl(0.0,100%,35%)" stroke-width="0.00021"></path>
<path d="M0.831 0.492 Q0.410 0.740 0.800 0.999" stroke="hsl(0.0,100%,35%)" stroke-width="0.00021"></path>
<path d="M0.831 0.492 Q0.857 0.679 1.226 0.707" stroke="hsl(0.0,100%,35%)" stroke-width="0.00021"></path>
<path d="M0.548 0.846 Q0.630 0.683 0.330 0.607" stroke="hsl(0.0,100%,35%)" stroke-width="0.00255"></path>
<path d="M0.548 0.846 Q0.551 0.973 0.800 0.999" stroke="hsl(0.0,100%,35%)" stroke-width="0.00510"></path>
<path d="M0.548 0.846 Q0.936 0.815 0.962 0.619" stroke="hsl(0.0,100%,35%)" stroke-width="0.00085"></path>
<path d="M0.548 0.846 Q1.425 0.710 1.354 0.252" stroke="hsl(0.0,100%,35%)" stroke-width="0.00106"></path>
<path d="M0.548 0.846 Q0.475 0.897 0.559 0.944" stroke="hsl(0.0,100%,35%)" stroke-width="0.00128"></path>
<path d="M0.548 0.846 Q0.998 0.912 1.226 0.707" stroke="hsl(0.0,100%,35%)" stroke-width="0.00043"></path>
<path d="M0.548 0.846 Q1.185 0.724 1.087 0.386" stroke="hsl(0.0,100%,35%)" stroke-width="0.00043"></path>
<path d="M0.548 0.846 Q0.564 0.844 0.564 0.835" stroke="hsl(0.0,100%,35%)" stroke-width="0.00021"></path>
<path d="M0.997 0.697 Q1.104 0.748 1.226 0.707" stroke="hsl(0.0,100%,35%)" stroke-width="0.00128"></path>
<path d="M0.997 0.697 Q0.657 0.809 0.800 0.999" stroke="hsl(0.0,100%,35%)" stroke-width="0.00106"></path>
<path d="M0.997 0.697 Q1.531 0.546 1.354 0.252" stroke="hsl(0.0,100%,35%)" stroke-width="0.00021"></path>
<path d="M0.922 0.711 Q1.505 0.568 1.354 0.252" stroke="hsl(0.0,100%,35%)" stroke-width="0.00021"></path>
<path d="M0.922 0.711 Q1.077 0.770 1.226 0.707" stroke="hsl(0.0,100%,35%)" stroke-width="0.00021"></path>
<path d="M0.922 0.711 Q0.630 0.831 0.800 0.999" stroke="hsl(0.0,100%,35%)" stroke-width="0.00021"></path>
<path d="M1.050 0.535 Q1.001 0.656 1.226 0.707" stroke="hsl(0.0,100%,35%)" stroke-width="0.02807"></path>
<path d="M1.050 0.535 Q0.554 0.717 0.800 0.999" stroke="hsl(0.0,100%,35%)" stroke-width="0.02360"></path>
<path d="M1.050 0.535 Q1.428 0.455 1.354 0.252" stroke="hsl(0.0,100%,35%)" stroke-width="0.00510"></path>
<path d="M1.050 0.535 Q0.477 0.641 0.559 0.944" stroke="hsl(0.0,100%,35%)" stroke-width="0.00021"></path>
<path d="M1.050 0.535 Q1.360 0.513 1.384 0.357" stroke="hsl(0.0,100%,35%)" stroke-width="0.00043"></path>
<path d="M1.050 0.535 Q0.938 0.560 0.962 0.619" stroke="hsl(0.0,100%,35%)" stroke-width="0.00043"></path>
<path d="M1.050 0.535 Q1.549 0.513 1.615 0.264" stroke="hsl(0.0,100%,35%)" stroke-width="0.00021"></path>
<path d="M1.050 0.535 Q1.557 0.545 1.686 0.299" stroke="hsl(0.0,100%,35%)" stroke-width="0.00106"></path>
<path d="M1.050 0.535 Q0.694 0.665 0.869 0.867" stroke="hsl(0.0,100%,35%)" stroke-width="0.00085"></path>
<path d="M1.050 0.535 Q0.852 0.600 0.934 0.710" stroke="hsl(0.0,100%,35%)" stroke-width="0.00021"></path>
<path d="M1.050 0.535 Q1.322 0.581 1.471 0.458" stroke="hsl(0.0,100%,35%)" stroke-width="0.00021"></path>
<path d="M1.050 0.535 Q1.185 0.491 1.128 0.415" stroke="hsl(0.0,100%,35%)" stroke-width="0.00043"></path>
<path d="M1.050 0.535 Q0.567 0.588 0.564 0.835" stroke="hsl(0.0,100%,35%)" stroke-width="0.00021"></path>
<path d="M1.012 0.813 Q1.204 0.803 1.226 0.707" stroke="hsl(0.0,100%,35%)" stroke-width="0.00744"></path>
<path d="M1.012 0.813 Q0.757 0.864 0.800 0.999" stroke="hsl(0.0,100%,35%)" stroke-width="0.00978"></path>
<path d="M1.012 0.813 Q0.897 0.811 0.869 0.867" stroke="hsl(0.0,100%,35%)" stroke-width="0.00659"></path>
<path d="M1.585 0.956 Q1.605 0.760 1.226 0.707" stroke="hsl(0.0,100%,35%)" stroke-width="0.00043"></path>
<path d="M1.585 0.956 Q1.457 0.907 1.332 0.958" stroke="hsl(0.0,100%,35%)" stroke-width="0.00021"></path>
<path d="M1.585 0.956 Q1.158 0.821 0.800 0.999" stroke="hsl(0.0,100%,35%)" stroke-width="0.00064"></path>
<path d="M0.679 0.882 Q0.569 0.889 0.559 0.944" stroke="hsl(0.0,100%,35%)" stroke-width="0.00021"></path>
<path d="M0.679 0.882 Q1.280 0.716 1.087 0.386" stroke="hsl(0.0,100%,35%)" stroke-width="0.00021"></path>
<path d="M0.679 0.882 Q0.646 0.965 0.800 0.999" stroke="hsl(0.0,100%,35%)" stroke-width="0.00021"></path>
<path d="M1.173 0.553 Q1.076 0.640 1.226 0.707" stroke="hsl(0.0,100%,35%)" stroke-width="0.00340"></path>
<path d="M1.173 0.553 Q0.642 0.572 0.564 0.835" stroke="hsl(0.0,100%,35%)" stroke-width="0.00043"></path>
<path d="M1.173 0.553 Q1.125 0.519 1.050 0.535" stroke="hsl(0.0,100%,35%)" stroke-width="0.00043"></path>
<path d="M1.173 0.553 Q0.629 0.701 0.800 0.999" stroke="hsl(0.0,100%,35%)" stroke-width="0.00319"></path>
<path d="M1.173 0.553 Q0.553 0.625 0.559 0.944" stroke="hsl(0.0,100%,35%)" stroke-width="0.00021"></path>
<path d="M1.173 0.553 Q1.503 0.439 1.354 0.252" stroke="hsl(0.0,100%,35%)" stroke-width="0.00021"></path>
<path d="M1.005 0.607 Q0.589 0.762 0.800 0.999" stroke="hsl(0.0,100%,35%)" stroke-width="0.00298"></path>
<path d="M1.005 0.607 Q1.036 0.701 1.226 0.707" stroke="hsl(0.0,100%,35%)" stroke-width="0.00234"></path>
<path d="M1.005 0.607 Q0.867 0.774 1.161 0.877" stroke="hsl(0.0,100%,35%)" stroke-width="0.00043"></path>
<path d="M1.183 0.244 Q1.261 0.282 1.354 0.252" stroke="hsl(180.0,100%,35%)" stroke-width="0.00149"></path>
<path d="M1.183 0.244 Q1.021 0.296 1.087 0.386" stroke="hsl(180.0,100%,35%)" stroke-width="0.00021"></path>
<path d="M1.183 0.244 Q1.193 0.341 1.384 0.357" stroke="hsl(180.0,100%,35%)" stroke-width="0.00021"></path>
<path d="M1.183 0.244 Q1.382 0.341 1.615 0.264" stroke="hsl(180.0,100%,35%)" stroke-width="0.00021"></path>
<path d="M1.183 0.244 Q0.387 0.545 0.800 0.999" stroke="hsl(180.0,100%,35%)" stroke-width="0.00021"></path>
<path d="M0.686 0.632 Q0.896 0.777 1.226 0.707" stroke="hsl(0.0,100%,35%)" stroke-width="0.00021"></path>
<path d="M0.686 0.632 Q0.449 0.838 0.800 0.999" stroke="hsl(0.0,100%,35%)" stroke-width="0.00021"></path>
<path d="M0.686 0.632 Q0.945 0.656 1.050 0.535" stroke="hsl(0.0,100%,35%)" stroke-width="0.00021"></path>
<path d="M0.934 0.710 Q0.636 0.828 0.800 0.999" stroke="hsl(0.0,100%,35%)" stroke-width="0.00191"></path>
<path d="M0.934 0.710 Q1.132 0.646 1.050 0.535" stroke="hsl(0.0,100%,35%)" stroke-width="0.00021"></path>
<path d="M0.934 0.710 Q1.083 0.767 1.226 0.707" stroke="hsl(0.0,100%,35%)" stroke-width="0.00191"></path>
<path d="M0.934 0.710 Q1.631 0.624 1.615 0.264" stroke="hsl(0.0,100%,35%)" stroke-width="0.00021"></path>
<path d="M0.934 0.710 Q0.559 0.752 0.559 0.944" stroke="hsl(0.0,100%,35%)" stroke-width="0.00021"></path>
<path d="M0.934 0.710 Q1.442 0.624 1.384 0.357" stroke="hsl(0.0,100%,35%)" stroke-width="0.00021"></path>
<path d="M0.934 0.710 Q1.270 0.579 1.087 0.386" stroke="hsl(0.0,100%,35%)" stroke-width="0.00021"></path>
<path d="M0.343 0.423 Q0.557 0.741 1.226 0.707" stroke="hsl(0.0,100%,35%)" stroke-width="0.00106"></path>
<path d="M0.343 0.423 Q0.125 0.431 0.094 0.539" stroke="hsl(0.0,100%,35%)" stroke-width="0.00064"></path>
<path d="M0.343 0.423 Q0.984 0.540 1.354 0.252" stroke="hsl(0.0,100%,35%)" stroke-width="0.00021"></path>
<path d="M0.343 0.423 Q0.250 0.374 0.136 0.409" stroke="hsl(0.0,100%,35%)" stroke-width="0.00021"></path>
<path d="M1.294 0.383 Q1.428 0.330 1.354 0.252" stroke="hsl(180.0,100%,35%)" stroke-width="0.00021"></path>
<path d="M1.294 0.383 Q0.554 0.592 0.800 0.999" stroke="hsl(180.0,100%,35%)" stroke-width="0.00064"></path>
<path d="M1.294 0.383 Q1.360 0.388 1.384 0.357" stroke="hsl(180.0,100%,35%)" stroke-width="0.00085"></path>
<path d="M1.050 1.013 Q1.383 0.895 1.226 0.707" stroke="hsl(0.0,100%,35%)" stroke-width="0.00085"></path>
<path d="M1.050 1.013 Q0.937 0.956 0.800 0.999" stroke="hsl(0.0,100%,35%)" stroke-width="0.00085"></path>
<path d="M1.050 1.013 Q1.215 0.968 1.161 0.877" stroke="hsl(0.0,100%,35%)" stroke-width="0.00021"></path>
<path d="M0.697 0.781 Q0.574 0.911 0.800 0.999" stroke="hsl(0.0,100%,35%)" stroke-width="0.00170"></path>
<path d="M0.697 0.781 Q0.497 0.835 0.559 0.944" stroke="hsl(0.0,100%,35%)" stroke-width="0.00085"></path>
<path d="M0.697 0.781 Q1.448 0.648 1.354 0.252" stroke="hsl(0.0,100%,35%)" stroke-width="0.00064"></path>
<path d="M0.697 0.781 Q1.208 0.662 1.087 0.386" stroke="hsl(0.0,100%,35%)" stroke-width="0.00021"></path>
<path d="M0.697 0.781 Q1.021 0.850 1.226 0.707" stroke="hsl(0.0,100%,35%)" stroke-width="0.00191"></path>
<path d="M0.653 0.715 Q0.946 0.825 1.226 0.707" stroke="hsl(0.0,100%,35%)" stroke-width="0.00064"></path>
<path d="M0.653 0.715 Q0.499 0.886 0.800 0.999" stroke="hsl(0.0,100%,35%)" stroke-width="0.00064"></path>
<path d="M0.653 0.715 Q0.634 0.942 1.073 1.002" stroke="hsl(0.0,100%,35%)" stroke-width="0.00021"></path>
</g>
<text x="0.846" y="0.439" font-size="0.008413" fill="hsl(0.0,100%,20%)">albin.bernhardsson</text>
<text x="1.226" y="0.673" font-size="0.067832" fill="hsl(0.0,100%,20%)">cwallez</text>
<text x="0.800" y="0.960" font-size="0.077498" fill="hsl(0.0,100%,20%)">enga</text>
<text x="1.471" y="0.425" font-size="0.065670" fill="hsl(180.0,100%,20%)">dsinclair</text>
<text x="0.564" y="0.821" font-size="0.028099" fill="hsl(0.0,100%,20%)">kainino</text>
<text x="1.087" y="0.368" font-size="0.036450" fill="hsl(180.0,100%,20%)">amaiorano</text>
<text x="1.354" y="0.208" font-size="0.089193" fill="hsl(180.0,100%,20%)">bclayton</text>
<text x="1.156" y="0.867" font-size="0.010436" fill="hsl(0.0,100%,20%)">ynovikov</text>
<text x="1.384" y="0.324" font-size="0.066083" fill="hsl(180.0,100%,20%)">jrprice</text>
<text x="0.744" y="0.644" font-size="0.014385" fill="hsl(0.0,100%,20%)">arthursonzogni</text>
<text x="0.653" y="0.411" font-size="0.002333" fill="hsl(0.0,100%,20%)">khaslett</text>
<text x="0.709" y="0.779" font-size="0.006600" fill="hsl(0.0,100%,20%)">austineng</text>
<text x="0.559" y="0.921" font-size="0.045308" fill="hsl(0.0,100%,20%)">lokokung</text>
<text x="0.152" y="0.688" font-size="0.023218" fill="hsl(0.0,100%,20%)">shrekshao</text>
<text x="0.902" y="0.732" font-size="0.004667" fill="hsl(0.0,100%,20%)">avi</text>
<text x="0.962" y="0.609" font-size="0.019937" fill="hsl(0.0,100%,20%)">bajones</text>
<text x="1.686" y="0.287" font-size="0.025668" fill="hsl(180.0,100%,20%)">dneto</text>
<text x="0.420" y="0.850" font-size="0.017462" fill="hsl(0.0,100%,20%)">bsheedy</text>
<text x="1.061" y="0.586" font-size="0.003300" fill="hsl(180.0,100%,20%)">brucedawson</text>
<text x="1.615" y="0.256" font-size="0.017462" fill="hsl(180.0,100%,20%)">rharrison</text>
<text x="0.330" y="0.594" font-size="0.024915" fill="hsl(0.0,100%,20%)">senorblanco</text>
<text x="1.021" y="0.254" font-size="0.002333" fill="hsl(180.0,100%,20%)">kjlubick</text>
<text x="0.700" y="0.550" font-size="0.015123" fill="hsl(0.0,100%,20%)">beaufort.francois</text>
<text x="0.933" y="0.561" font-size="0.014385" fill="hsl(0.0,100%,20%)">blundell</text>
<text x="0.494" y="0.439" font-size="0.004042" fill="hsl(0.0,100%,20%)">nicolettep</text>
<text x="0.996" y="0.743" font-size="0.012125" fill="hsl(0.0,100%,20%)">brandon1.jones</text>
<text x="0.583" y="0.679" font-size="0.003300" fill="hsl(0.0,100%,20%)">gbeaty</text>
<text x="0.869" y="0.853" font-size="0.028099" fill="hsl(0.0,100%,20%)">penghuang</text>
<text x="0.774" y="0.545" font-size="0.002333" fill="hsl(0.0,100%,20%)">fhorschig</text>
<text x="1.042" y="0.472" font-size="0.002333" fill="hsl(0.0,100%,20%)">jamesgk</text>
<text x="1.073" y="0.996" font-size="0.011667" fill="hsl(0.0,100%,20%)">lehoangquyen</text>
<text x="0.916" y="0.630" font-size="0.003300" fill="hsl(0.0,100%,20%)">fbeaufort</text>
<text x="0.621" y="1.249" font-size="0.006174" fill="hsl(0.0,100%,20%)">yunchao.he</text>
<text x="0.831" y="0.490" font-size="0.004042" fill="hsl(0.0,100%,20%)">danakj</text>
<text x="1.370" y="0.039" font-size="0.004042" fill="hsl(180.0,100%,20%)">alanbaker</text>
<text x="1.511" y="0.569" font-size="0.002333" fill="hsl(180.0,100%,20%)">yiwzhang</text>
<text x="0.548" y="0.836" font-size="0.018668" fill="hsl(0.0,100%,20%)">gman</text>
<text x="0.997" y="0.693" font-size="0.008083" fill="hsl(0.0,100%,20%)">elie.michel.fr</text>
<text x="0.922" y="0.709" font-size="0.004042" fill="hsl(0.0,100%,20%)">emelucci</text>
<text x="1.050" y="0.515" font-size="0.039943" fill="hsl(0.0,100%,20%)">jiawei.shao</text>
<text x="1.012" y="0.800" font-size="0.024915" fill="hsl(0.0,100%,20%)">jie.a.chen</text>
<text x="0.729" y="0.732" font-size="0.004042" fill="hsl(0.0,100%,20%)">toji</text>
<text x="1.585" y="0.954" font-size="0.005716" fill="hsl(0.0,100%,20%)">geofflang</text>
<text x="1.332" y="0.957" font-size="0.002333" fill="hsl(0.0,100%,20%)">fmalita</text>
<text x="0.679" y="0.880" font-size="0.004042" fill="hsl(0.0,100%,20%)">hans</text>
<text x="1.173" y="0.545" font-size="0.014194" fill="hsl(0.0,100%,20%)">hao.x.li</text>
<text x="1.005" y="0.601" font-size="0.012125" fill="hsl(0.0,100%,20%)">hitawala</text>
<text x="1.161" y="0.875" font-size="0.004042" fill="hsl(0.0,100%,20%)">sunnyps</text>
<text x="1.183" y="0.240" font-size="0.007739" fill="hsl(180.0,100%,20%)">jason.erb</text>
<text x="0.686" y="0.630" font-size="0.004042" fill="hsl(0.0,100%,20%)">jianlin.qiu</text>
<text x="0.934" y="0.705" font-size="0.011432" fill="hsl(0.0,100%,20%)">zhaoming.jiang</text>
<text x="1.128" y="0.413" font-size="0.003300" fill="hsl(0.0,100%,20%)">rafael.cintron</text>
<text x="0.343" y="0.419" font-size="0.007379" fill="hsl(0.0,100%,20%)">jimblackler</text>
<text x="0.094" y="0.537" font-size="0.004042" fill="hsl(0.0,100%,20%)">nexa</text>
<text x="0.136" y="0.408" font-size="0.002333" fill="hsl(0.0,100%,20%)">artyompp</text>
<text x="1.294" y="0.380" font-size="0.006600" fill="hsl(180.0,100%,20%)">jojwang</text>
<text x="1.282" y="0.387" font-size="0.002333" fill="hsl(180.0,100%,20%)">johnstiles</text>
<text x="0.594" y="0.720" font-size="0.002333" fill="hsl(0.0,100%,20%)">kbr</text>
<text x="1.050" y="1.010" font-size="0.007000" fill="hsl(0.0,100%,20%)">shaobo.yan</text>
<text x="0.697" y="0.775" font-size="0.011667" fill="hsl(0.0,100%,20%)">tiszka</text>
<text x="0.653" y="0.711" font-size="0.006174" fill="hsl(0.0,100%,20%)">vollick</text>
</svg>
