<svg width="4000" height="2000" viewBox="-0.025 -0.025 2.05 1.05" xmlns="http://www.w3.org/2000/svg">
  <style>
    path {
      fill: none;
      stroke-linecap: round;
      stroke-opacity: 0.4;
    }

    text {
      text-anchor: middle;
      alignment-baseline: hanging;
    }
  </style>
  <g opacity="0.4">
<path d="M0.672 0.102 Q0.457 0.166 0.535 0.286" stroke="hsl(0.0,100%,35%)" stroke-width="0.00370"></path>
<path d="M0.672 0.102 Q0.182 0.529 0.907 0.862" stroke="hsl(0.0,100%,35%)" stroke-width="0.00212"></path>
<path d="M0.672 0.102 Q0.190 0.201 0.277 0.458" stroke="hsl(0.0,100%,35%)" stroke-width="0.00318"></path>
<path d="M0.672 0.102 Q0.269 0.150 0.273 0.357" stroke="hsl(0.0,100%,35%)" stroke-width="0.00079"></path>
<path d="M0.672 0.102 Q0.771 0.620 1.803 0.686" stroke="hsl(0.0,100%,35%)" stroke-width="0.00026"></path>
<path d="M0.535 0.286 Q0.260 0.648 0.907 0.862" stroke="hsl(0.0,100%,35%)" stroke-width="0.00026"></path>
<path d="M0.535 0.286 Q0.346 0.269 0.273 0.357" stroke="hsl(0.0,100%,35%)" stroke-width="0.00609"></path>
<path d="M0.535 0.286 Q0.268 0.320 0.277 0.458" stroke="hsl(0.0,100%,35%)" stroke-width="0.00265"></path>
<path d="M0.535 0.286 Q0.750 0.221 0.672 0.102" stroke="hsl(0.0,100%,35%)" stroke-width="0.00185"></path>
<path d="M0.535 0.286 Q0.680 0.404 0.943 0.360" stroke="hsl(0.0,100%,35%)" stroke-width="0.00026"></path>
<path d="M0.535 0.286 Q0.306 0.519 0.711 0.681" stroke="hsl(0.0,100%,35%)" stroke-width="0.00026"></path>
<path d="M0.535 0.286 Q0.171 0.696 0.892 0.964" stroke="hsl(0.0,100%,35%)" stroke-width="0.00026"></path>
<path d="M0.907 0.862 Q0.818 0.910 0.892 0.964" stroke="hsl(0.0,100%,35%)" stroke-width="0.00979"></path>
<path d="M0.907 0.862 Q1.418 0.776 1.362 0.507" stroke="hsl(0.0,100%,35%)" stroke-width="0.00741"></path>
<path d="M0.907 0.862 Q1.692 0.599 1.352 0.159" stroke="hsl(0.0,100%,35%)" stroke-width="0.01085"></path>
<path d="M0.907 0.862 Q1.327 0.618 0.943 0.360" stroke="hsl(0.0,100%,35%)" stroke-width="0.00370"></path>
<path d="M0.907 0.862 Q0.993 0.483 0.273 0.357" stroke="hsl(0.0,100%,35%)" stroke-width="0.00291"></path>
<path d="M0.907 0.862 Q1.581 0.658 1.332 0.284" stroke="hsl(0.0,100%,35%)" stroke-width="0.00423"></path>
<path d="M0.907 0.862 Q1.397 0.435 0.672 0.102" stroke="hsl(0.0,100%,35%)" stroke-width="0.00106"></path>
<path d="M0.907 0.862 Q1.182 0.499 0.535 0.286" stroke="hsl(0.0,100%,35%)" stroke-width="0.00053"></path>
<path d="M0.907 0.862 Q0.953 0.732 0.711 0.681" stroke="hsl(0.0,100%,35%)" stroke-width="0.00635"></path>
<path d="M0.907 0.862 Q0.915 0.534 0.277 0.458" stroke="hsl(0.0,100%,35%)" stroke-width="0.00318"></path>
<path d="M0.907 0.862 Q1.777 0.697 1.646 0.236" stroke="hsl(0.0,100%,35%)" stroke-width="0.00026"></path>
<path d="M0.907 0.862 Q1.391 1.002 1.771 0.796" stroke="hsl(0.0,100%,35%)" stroke-width="0.00079"></path>
<path d="M0.907 0.862 Q1.065 0.937 1.246 0.876" stroke="hsl(0.0,100%,35%)" stroke-width="0.01244"></path>
<path d="M0.907 0.862 Q1.887 0.592 1.576 0.055" stroke="hsl(0.0,100%,35%)" stroke-width="0.00079"></path>
<path d="M0.907 0.862 Q1.496 0.953 1.803 0.686" stroke="hsl(0.0,100%,35%)" stroke-width="0.00132"></path>
<path d="M0.907 0.862 Q1.531 0.669 1.292 0.322" stroke="hsl(0.0,100%,35%)" stroke-width="0.00185"></path>
<path d="M0.907 0.862 Q1.249 1.057 1.705 0.934" stroke="hsl(0.0,100%,35%)" stroke-width="0.00026"></path>
<path d="M0.907 0.862 Q1.350 0.879 1.482 0.667" stroke="hsl(0.0,100%,35%)" stroke-width="0.00079"></path>
<path d="M0.907 0.862 Q1.297 0.939 1.534 0.766" stroke="hsl(0.0,100%,35%)" stroke-width="0.00079"></path>
<path d="M0.907 0.862 Q1.923 0.723 1.875 0.196" stroke="hsl(0.0,100%,35%)" stroke-width="0.00026"></path>
<path d="M0.907 0.862 Q0.832 0.796 0.687 0.818" stroke="hsl(0.0,100%,35%)" stroke-width="0.00212"></path>
<path d="M0.907 0.862 Q1.793 0.674 1.621 0.200" stroke="hsl(0.0,100%,35%)" stroke-width="0.00026"></path>
<path d="M0.907 0.862 Q1.617 0.516 1.098 0.094" stroke="hsl(0.0,100%,35%)" stroke-width="0.00026"></path>
<path d="M0.277 0.458 Q0.780 0.700 1.362 0.507" stroke="hsl(0.0,100%,35%)" stroke-width="0.00026"></path>
<path d="M0.277 0.458 Q0.268 0.786 0.907 0.862" stroke="hsl(0.0,100%,35%)" stroke-width="0.00582"></path>
<path d="M0.277 0.458 Q0.355 0.407 0.273 0.357" stroke="hsl(0.0,100%,35%)" stroke-width="0.00582"></path>
<path d="M0.277 0.458 Q0.857 0.877 1.803 0.686" stroke="hsl(0.0,100%,35%)" stroke-width="0.00026"></path>
<path d="M0.277 0.458 Q0.688 0.542 0.943 0.360" stroke="hsl(0.0,100%,35%)" stroke-width="0.00026"></path>
<path d="M0.277 0.458 Q0.759 0.359 0.672 0.102" stroke="hsl(0.0,100%,35%)" stroke-width="0.00212"></path>
<path d="M0.277 0.458 Q0.179 0.834 0.892 0.964" stroke="hsl(0.0,100%,35%)" stroke-width="0.00079"></path>
<path d="M0.277 0.458 Q0.712 0.803 1.482 0.667" stroke="hsl(0.0,100%,35%)" stroke-width="0.00053"></path>
<path d="M0.277 0.458 Q0.979 0.440 1.098 0.094" stroke="hsl(0.0,100%,35%)" stroke-width="0.00053"></path>
<path d="M0.277 0.458 Q0.943 0.582 1.332 0.284" stroke="hsl(0.0,100%,35%)" stroke-width="0.00026"></path>
<path d="M0.277 0.458 Q0.753 0.926 1.771 0.796" stroke="hsl(0.0,100%,35%)" stroke-width="0.00026"></path>
<path d="M0.273 0.357 Q0.195 0.408 0.277 0.458" stroke="hsl(0.0,100%,35%)" stroke-width="0.02884"></path>
<path d="M0.273 0.357 Q0.461 0.374 0.535 0.286" stroke="hsl(0.0,100%,35%)" stroke-width="0.00450"></path>
<path d="M0.273 0.357 Q0.677 0.310 0.672 0.102" stroke="hsl(0.0,100%,35%)" stroke-width="0.00079"></path>
<path d="M0.273 0.357 Q0.186 0.736 0.907 0.862" stroke="hsl(0.0,100%,35%)" stroke-width="0.00397"></path>
<path d="M0.273 0.357 Q0.097 0.784 0.892 0.964" stroke="hsl(0.0,100%,35%)" stroke-width="0.00026"></path>
<path d="M0.273 0.357 Q0.897 0.391 1.098 0.094" stroke="hsl(0.0,100%,35%)" stroke-width="0.00053"></path>
<path d="M0.273 0.357 Q0.861 0.533 1.332 0.284" stroke="hsl(0.0,100%,35%)" stroke-width="0.00026"></path>
<path d="M1.803 0.686 Q1.838 0.402 1.292 0.322" stroke="hsl(180.0,100%,35%)" stroke-width="0.00159"></path>
<path d="M1.803 0.686 Q2.000 0.332 1.352 0.159" stroke="hsl(180.0,100%,35%)" stroke-width="0.00582"></path>
<path d="M1.803 0.686 Q1.214 0.595 0.907 0.862" stroke="hsl(180.0,100%,35%)" stroke-width="0.00212"></path>
<path d="M1.803 0.686 Q1.925 0.249 1.098 0.094" stroke="hsl(180.0,100%,35%)" stroke-width="0.01641"></path>
<path d="M1.803 0.686 Q1.634 0.351 0.943 0.360" stroke="hsl(180.0,100%,35%)" stroke-width="0.00344"></path>
<path d="M1.803 0.686 Q1.889 0.391 1.332 0.284" stroke="hsl(180.0,100%,35%)" stroke-width="0.00238"></path>
<path d="M1.803 0.686 Q2.231 0.456 1.875 0.196" stroke="hsl(180.0,100%,35%)" stroke-width="0.00423"></path>
<path d="M1.803 0.686 Q1.699 0.735 1.771 0.796" stroke="hsl(180.0,100%,35%)" stroke-width="0.01588"></path>
<path d="M1.803 0.686 Q1.940 0.540 1.685 0.441" stroke="hsl(180.0,100%,35%)" stroke-width="0.00026"></path>
<path d="M1.803 0.686 Q1.261 0.465 0.711 0.681" stroke="hsl(180.0,100%,35%)" stroke-width="0.00026"></path>
<path d="M1.803 0.686 Q1.658 0.612 1.482 0.667" stroke="hsl(180.0,100%,35%)" stroke-width="0.00026"></path>
<path d="M1.803 0.686 Q1.605 0.672 1.534 0.766" stroke="hsl(180.0,100%,35%)" stroke-width="0.00318"></path>
<path d="M1.803 0.686 Q2.085 0.430 1.646 0.236" stroke="hsl(180.0,100%,35%)" stroke-width="0.00079"></path>
<path d="M1.803 0.686 Q1.726 0.508 1.362 0.507" stroke="hsl(180.0,100%,35%)" stroke-width="0.00079"></path>
<path d="M1.803 0.686 Q2.195 0.325 1.576 0.055" stroke="hsl(180.0,100%,35%)" stroke-width="0.00026"></path>
<path d="M0.845 0.462 Q0.947 0.752 1.534 0.766" stroke="hsl(180.0,100%,35%)" stroke-width="0.00053"></path>
<path d="M0.845 0.462 Q0.976 0.431 0.943 0.360" stroke="hsl(180.0,100%,35%)" stroke-width="0.00079"></path>
<path d="M0.845 0.462 Q1.342 0.412 1.352 0.159" stroke="hsl(180.0,100%,35%)" stroke-width="0.00026"></path>
<path d="M0.845 0.462 Q1.573 0.535 1.875 0.196" stroke="hsl(180.0,100%,35%)" stroke-width="0.00026"></path>
<path d="M0.845 0.462 Q1.000 0.692 1.482 0.667" stroke="hsl(180.0,100%,35%)" stroke-width="0.00026"></path>
<path d="M1.534 0.766 Q2.160 0.549 1.875 0.196" stroke="hsl(180.0,100%,35%)" stroke-width="0.00079"></path>
<path d="M1.534 0.766 Q1.628 0.828 1.771 0.796" stroke="hsl(180.0,100%,35%)" stroke-width="0.00159"></path>
<path d="M1.534 0.766 Q1.854 0.343 1.098 0.094" stroke="hsl(180.0,100%,35%)" stroke-width="0.00079"></path>
<path d="M1.534 0.766 Q1.485 0.884 1.705 0.934" stroke="hsl(180.0,100%,35%)" stroke-width="0.00079"></path>
<path d="M1.534 0.766 Q1.301 0.763 1.246 0.876" stroke="hsl(180.0,100%,35%)" stroke-width="0.00026"></path>
<path d="M1.534 0.766 Q1.563 0.445 0.943 0.360" stroke="hsl(180.0,100%,35%)" stroke-width="0.00238"></path>
<path d="M1.534 0.766 Q1.732 0.780 1.803 0.686" stroke="hsl(180.0,100%,35%)" stroke-width="0.00079"></path>
<path d="M1.534 0.766 Q1.928 0.426 1.352 0.159" stroke="hsl(180.0,100%,35%)" stroke-width="0.00079"></path>
<path d="M0.943 0.360 Q1.540 0.465 1.875 0.196" stroke="hsl(180.0,100%,35%)" stroke-width="0.00423"></path>
<path d="M0.943 0.360 Q1.008 0.743 1.771 0.796" stroke="hsl(180.0,100%,35%)" stroke-width="0.00397"></path>
<path d="M0.943 0.360 Q1.035 0.517 1.362 0.507" stroke="hsl(180.0,100%,35%)" stroke-width="0.00106"></path>
<path d="M0.943 0.360 Q1.198 0.400 1.332 0.284" stroke="hsl(180.0,100%,35%)" stroke-width="0.00053"></path>
<path d="M0.943 0.360 Q1.234 0.258 1.098 0.094" stroke="hsl(180.0,100%,35%)" stroke-width="0.00212"></path>
<path d="M0.943 0.360 Q1.308 0.341 1.352 0.159" stroke="hsl(180.0,100%,35%)" stroke-width="0.00556"></path>
<path d="M0.943 0.360 Q1.112 0.695 1.803 0.686" stroke="hsl(180.0,100%,35%)" stroke-width="0.00291"></path>
<path d="M0.943 0.360 Q0.967 0.621 1.482 0.667" stroke="hsl(180.0,100%,35%)" stroke-width="0.00026"></path>
<path d="M0.943 0.360 Q1.147 0.411 1.292 0.322" stroke="hsl(180.0,100%,35%)" stroke-width="0.00026"></path>
<path d="M1.352 0.159 Q0.987 0.177 0.943 0.360" stroke="hsl(180.0,100%,35%)" stroke-width="0.00979"></path>
<path d="M1.352 0.159 Q1.078 0.335 1.362 0.507" stroke="hsl(180.0,100%,35%)" stroke-width="0.01350"></path>
<path d="M1.352 0.159 Q1.277 0.075 1.098 0.094" stroke="hsl(180.0,100%,35%)" stroke-width="0.00635"></path>
<path d="M1.352 0.159 Q1.156 0.513 1.803 0.686" stroke="hsl(180.0,100%,35%)" stroke-width="0.00476"></path>
<path d="M1.352 0.159 Q1.241 0.217 1.332 0.284" stroke="hsl(180.0,100%,35%)" stroke-width="0.01508"></path>
<path d="M1.352 0.159 Q1.262 0.314 1.546 0.392" stroke="hsl(180.0,100%,35%)" stroke-width="0.00079"></path>
<path d="M1.352 0.159 Q0.567 0.421 0.907 0.862" stroke="hsl(180.0,100%,35%)" stroke-width="0.00291"></path>
<path d="M1.352 0.159 Q1.128 0.177 1.114 0.290" stroke="hsl(180.0,100%,35%)" stroke-width="0.00291"></path>
<path d="M1.352 0.159 Q1.052 0.561 1.771 0.796" stroke="hsl(180.0,100%,35%)" stroke-width="0.00397"></path>
<path d="M1.352 0.159 Q1.191 0.229 1.292 0.322" stroke="hsl(180.0,100%,35%)" stroke-width="0.00344"></path>
<path d="M1.352 0.159 Q1.583 0.282 1.875 0.196" stroke="hsl(180.0,100%,35%)" stroke-width="0.00212"></path>
<path d="M1.352 0.159 Q1.547 0.152 1.576 0.055" stroke="hsl(180.0,100%,35%)" stroke-width="0.00079"></path>
<path d="M1.352 0.159 Q0.909 0.617 1.705 0.934" stroke="hsl(180.0,100%,35%)" stroke-width="0.00053"></path>
<path d="M1.352 0.159 Q1.011 0.439 1.482 0.667" stroke="hsl(180.0,100%,35%)" stroke-width="0.00026"></path>
<path d="M1.352 0.159 Q0.613 0.292 0.711 0.681" stroke="hsl(180.0,100%,35%)" stroke-width="0.00026"></path>
<path d="M1.352 0.159 Q1.438 0.256 1.646 0.236" stroke="hsl(180.0,100%,35%)" stroke-width="0.00026"></path>
<path d="M1.352 0.159 Q0.725 0.496 1.246 0.876" stroke="hsl(180.0,100%,35%)" stroke-width="0.00079"></path>
<path d="M1.875 0.196 Q1.729 0.170 1.646 0.236" stroke="hsl(180.0,100%,35%)" stroke-width="0.02011"></path>
<path d="M1.875 0.196 Q1.569 -0.010 1.098 0.094" stroke="hsl(180.0,100%,35%)" stroke-width="0.00476"></path>
<path d="M1.875 0.196 Q1.278 0.092 0.943 0.360" stroke="hsl(180.0,100%,35%)" stroke-width="0.00238"></path>
<path d="M1.875 0.196 Q1.302 0.353 1.482 0.667" stroke="hsl(180.0,100%,35%)" stroke-width="0.00026"></path>
<path d="M1.875 0.196 Q1.644 0.073 1.352 0.159" stroke="hsl(180.0,100%,35%)" stroke-width="0.00212"></path>
<path d="M1.875 0.196 Q1.483 0.143 1.292 0.322" stroke="hsl(180.0,100%,35%)" stroke-width="0.00106"></path>
<path d="M1.875 0.196 Q1.370 0.249 1.362 0.507" stroke="hsl(180.0,100%,35%)" stroke-width="0.00053"></path>
<path d="M1.875 0.196 Q1.134 -0.027 0.535 0.286" stroke="hsl(180.0,100%,35%)" stroke-width="0.00026"></path>
<path d="M1.875 0.196 Q1.533 0.132 1.332 0.284" stroke="hsl(180.0,100%,35%)" stroke-width="0.00053"></path>
<path d="M1.875 0.196 Q1.200 0.531 1.705 0.934" stroke="hsl(180.0,100%,35%)" stroke-width="0.00053"></path>
<path d="M1.875 0.196 Q0.859 0.335 0.907 0.862" stroke="hsl(180.0,100%,35%)" stroke-width="0.00026"></path>
<path d="M1.875 0.196 Q1.448 0.427 1.803 0.686" stroke="hsl(180.0,100%,35%)" stroke-width="0.00079"></path>
<path d="M1.875 0.196 Q1.554 0.229 1.546 0.392" stroke="hsl(180.0,100%,35%)" stroke-width="0.00026"></path>
<path d="M1.875 0.196 Q1.343 0.475 1.771 0.796" stroke="hsl(180.0,100%,35%)" stroke-width="0.00026"></path>
<path d="M1.482 0.667 Q1.627 0.741 1.803 0.686" stroke="hsl(180.0,100%,35%)" stroke-width="0.00106"></path>
<path d="M1.482 0.667 Q1.749 0.303 1.098 0.094" stroke="hsl(180.0,100%,35%)" stroke-width="0.00026"></path>
<path d="M1.482 0.667 Q1.429 0.727 1.534 0.766" stroke="hsl(180.0,100%,35%)" stroke-width="0.00053"></path>
<path d="M1.482 0.667 Q1.038 0.649 0.907 0.862" stroke="hsl(180.0,100%,35%)" stroke-width="0.00026"></path>
<path d="M1.482 0.667 Q2.055 0.510 1.875 0.196" stroke="hsl(180.0,100%,35%)" stroke-width="0.00132"></path>
<path d="M1.482 0.667 Q1.550 0.563 1.362 0.507" stroke="hsl(180.0,100%,35%)" stroke-width="0.00079"></path>
<path d="M1.482 0.667 Q1.523 0.789 1.771 0.796" stroke="hsl(180.0,100%,35%)" stroke-width="0.00106"></path>
<path d="M1.482 0.667 Q1.909 0.484 1.646 0.236" stroke="hsl(180.0,100%,35%)" stroke-width="0.00053"></path>
<path d="M1.482 0.667 Q1.824 0.387 1.352 0.159" stroke="hsl(180.0,100%,35%)" stroke-width="0.00079"></path>
<path d="M1.482 0.667 Q2.019 0.380 1.576 0.055" stroke="hsl(180.0,100%,35%)" stroke-width="0.00026"></path>
<path d="M1.482 0.667 Q1.599 0.405 1.114 0.290" stroke="hsl(180.0,100%,35%)" stroke-width="0.00026"></path>
<path d="M1.482 0.667 Q1.662 0.457 1.292 0.322" stroke="hsl(180.0,100%,35%)" stroke-width="0.00026"></path>
<path d="M1.482 0.667 Q1.458 0.405 0.943 0.360" stroke="hsl(180.0,100%,35%)" stroke-width="0.00026"></path>
<path d="M1.362 0.507 Q1.561 0.248 1.098 0.094" stroke="hsl(180.0,100%,35%)" stroke-width="0.00238"></path>
<path d="M1.362 0.507 Q1.241 0.671 1.534 0.766" stroke="hsl(180.0,100%,35%)" stroke-width="0.00079"></path>
<path d="M1.362 0.507 Q1.336 0.733 1.771 0.796" stroke="hsl(180.0,100%,35%)" stroke-width="0.00238"></path>
<path d="M1.362 0.507 Q1.271 0.350 0.943 0.360" stroke="hsl(180.0,100%,35%)" stroke-width="0.00159"></path>
<path d="M1.362 0.507 Q1.722 0.428 1.646 0.236" stroke="hsl(180.0,100%,35%)" stroke-width="0.00053"></path>
<path d="M1.362 0.507 Q1.546 0.487 1.546 0.392" stroke="hsl(180.0,100%,35%)" stroke-width="0.00132"></path>
<path d="M1.362 0.507 Q1.636 0.331 1.352 0.159" stroke="hsl(180.0,100%,35%)" stroke-width="0.01879"></path>
<path d="M1.362 0.507 Q1.525 0.390 1.332 0.284" stroke="hsl(180.0,100%,35%)" stroke-width="0.00503"></path>
<path d="M1.362 0.507 Q1.440 0.685 1.803 0.686" stroke="hsl(180.0,100%,35%)" stroke-width="0.00185"></path>
<path d="M1.362 0.507 Q1.867 0.454 1.875 0.196" stroke="hsl(180.0,100%,35%)" stroke-width="0.00132"></path>
<path d="M1.362 0.507 Q1.831 0.324 1.576 0.055" stroke="hsl(180.0,100%,35%)" stroke-width="0.00053"></path>
<path d="M1.362 0.507 Q1.475 0.401 1.292 0.322" stroke="hsl(180.0,100%,35%)" stroke-width="0.00423"></path>
<path d="M1.362 0.507 Q0.762 0.641 0.892 0.964" stroke="hsl(180.0,100%,35%)" stroke-width="0.00026"></path>
<path d="M1.362 0.507 Q0.851 0.593 0.907 0.862" stroke="hsl(180.0,100%,35%)" stroke-width="0.00053"></path>
<path d="M1.362 0.507 Q0.859 0.265 0.277 0.458" stroke="hsl(180.0,100%,35%)" stroke-width="0.00053"></path>
<path d="M1.362 0.507 Q1.412 0.349 1.114 0.290" stroke="hsl(180.0,100%,35%)" stroke-width="0.00079"></path>
<path d="M1.362 0.507 Q0.938 0.215 0.273 0.357" stroke="hsl(180.0,100%,35%)" stroke-width="0.00026"></path>
<path d="M1.362 0.507 Q1.009 0.668 1.246 0.876" stroke="hsl(180.0,100%,35%)" stroke-width="0.00026"></path>
<path d="M1.098 0.094 Q1.173 0.177 1.352 0.159" stroke="hsl(180.0,100%,35%)" stroke-width="0.02011"></path>
<path d="M1.098 0.094 Q0.873 0.579 1.771 0.796" stroke="hsl(180.0,100%,35%)" stroke-width="0.00106"></path>
<path d="M1.098 0.094 Q0.977 0.531 1.803 0.686" stroke="hsl(180.0,100%,35%)" stroke-width="0.00423"></path>
<path d="M1.098 0.094 Q1.259 0.274 1.646 0.236" stroke="hsl(180.0,100%,35%)" stroke-width="0.00079"></path>
<path d="M1.098 0.094 Q1.404 0.300 1.875 0.196" stroke="hsl(180.0,100%,35%)" stroke-width="0.00370"></path>
<path d="M1.098 0.094 Q0.899 0.353 1.362 0.507" stroke="hsl(180.0,100%,35%)" stroke-width="0.00212"></path>
<path d="M1.098 0.094 Q0.808 0.196 0.943 0.360" stroke="hsl(180.0,100%,35%)" stroke-width="0.00423"></path>
<path d="M1.098 0.094 Q1.062 0.236 1.332 0.284" stroke="hsl(180.0,100%,35%)" stroke-width="0.00556"></path>
<path d="M1.098 0.094 Q0.778 0.517 1.534 0.766" stroke="hsl(180.0,100%,35%)" stroke-width="0.00053"></path>
<path d="M1.098 0.094 Q0.832 0.457 1.482 0.667" stroke="hsl(180.0,100%,35%)" stroke-width="0.00159"></path>
<path d="M1.098 0.094 Q1.368 0.170 1.576 0.055" stroke="hsl(180.0,100%,35%)" stroke-width="0.00079"></path>
<path d="M1.098 0.094 Q1.012 0.247 1.292 0.322" stroke="hsl(180.0,100%,35%)" stroke-width="0.00053"></path>
<path d="M1.098 0.094 Q0.299 0.487 0.892 0.964" stroke="hsl(180.0,100%,35%)" stroke-width="0.00026"></path>
<path d="M1.098 0.094 Q0.546 0.514 1.246 0.876" stroke="hsl(180.0,100%,35%)" stroke-width="0.00026"></path>
<path d="M1.098 0.094 Q0.949 0.195 1.114 0.290" stroke="hsl(180.0,100%,35%)" stroke-width="0.00026"></path>
<path d="M1.098 0.094 Q1.083 0.332 1.546 0.392" stroke="hsl(180.0,100%,35%)" stroke-width="0.00026"></path>
<path d="M1.098 0.094 Q0.475 0.061 0.273 0.357" stroke="hsl(180.0,100%,35%)" stroke-width="0.00026"></path>
<path d="M1.098 0.094 Q0.388 0.439 0.907 0.862" stroke="hsl(180.0,100%,35%)" stroke-width="0.00053"></path>
<path d="M1.332 0.284 Q1.367 0.142 1.098 0.094" stroke="hsl(180.0,100%,35%)" stroke-width="0.02090"></path>
<path d="M1.332 0.284 Q1.142 0.628 1.771 0.796" stroke="hsl(180.0,100%,35%)" stroke-width="0.00397"></path>
<path d="M1.332 0.284 Q1.246 0.580 1.803 0.686" stroke="hsl(180.0,100%,35%)" stroke-width="0.00609"></path>
<path d="M1.332 0.284 Q1.168 0.402 1.362 0.507" stroke="hsl(180.0,100%,35%)" stroke-width="0.00688"></path>
<path d="M1.332 0.284 Q0.657 0.488 0.907 0.862" stroke="hsl(180.0,100%,35%)" stroke-width="0.00265"></path>
<path d="M1.332 0.284 Q1.077 0.244 0.943 0.360" stroke="hsl(180.0,100%,35%)" stroke-width="0.00609"></path>
<path d="M1.332 0.284 Q1.442 0.226 1.352 0.159" stroke="hsl(180.0,100%,35%)" stroke-width="0.01826"></path>
<path d="M1.332 0.284 Q0.815 0.563 1.246 0.876" stroke="hsl(180.0,100%,35%)" stroke-width="0.00238"></path>
<path d="M1.332 0.284 Q1.218 0.244 1.114 0.290" stroke="hsl(180.0,100%,35%)" stroke-width="0.00238"></path>
<path d="M1.332 0.284 Q0.704 0.359 0.711 0.681" stroke="hsl(180.0,100%,35%)" stroke-width="0.00026"></path>
<path d="M1.332 0.284 Q1.674 0.349 1.875 0.196" stroke="hsl(180.0,100%,35%)" stroke-width="0.00106"></path>
<path d="M1.332 0.284 Q0.665 0.160 0.277 0.458" stroke="hsl(180.0,100%,35%)" stroke-width="0.00053"></path>
<path d="M1.332 0.284 Q1.352 0.381 1.546 0.392" stroke="hsl(180.0,100%,35%)" stroke-width="0.00079"></path>
<path d="M1.332 0.284 Q0.568 0.536 0.892 0.964" stroke="hsl(180.0,100%,35%)" stroke-width="0.00026"></path>
<path d="M1.332 0.284 Q1.638 0.218 1.576 0.055" stroke="hsl(180.0,100%,35%)" stroke-width="0.00106"></path>
<path d="M1.332 0.284 Q1.544 0.300 1.621 0.200" stroke="hsl(180.0,100%,35%)" stroke-width="0.00079"></path>
<path d="M1.332 0.284 Q1.528 0.323 1.646 0.236" stroke="hsl(180.0,100%,35%)" stroke-width="0.00079"></path>
<path d="M1.332 0.284 Q1.281 0.295 1.292 0.322" stroke="hsl(180.0,100%,35%)" stroke-width="0.00079"></path>
<path d="M1.332 0.284 Q0.999 0.684 1.705 0.934" stroke="hsl(180.0,100%,35%)" stroke-width="0.00026"></path>
<path d="M1.546 0.392 Q1.636 0.237 1.352 0.159" stroke="hsl(180.0,100%,35%)" stroke-width="0.00688"></path>
<path d="M1.546 0.392 Q1.362 0.413 1.362 0.507" stroke="hsl(180.0,100%,35%)" stroke-width="0.00741"></path>
<path d="M1.546 0.392 Q1.867 0.360 1.875 0.196" stroke="hsl(180.0,100%,35%)" stroke-width="0.00185"></path>
<path d="M1.546 0.392 Q1.525 0.295 1.332 0.284" stroke="hsl(180.0,100%,35%)" stroke-width="0.00053"></path>
<path d="M1.546 0.392 Q0.851 0.499 0.907 0.862" stroke="hsl(180.0,100%,35%)" stroke-width="0.00026"></path>
<path d="M1.546 0.392 Q1.475 0.306 1.292 0.322" stroke="hsl(180.0,100%,35%)" stroke-width="0.00053"></path>
<path d="M1.546 0.392 Q1.721 0.334 1.646 0.236" stroke="hsl(180.0,100%,35%)" stroke-width="0.00106"></path>
<path d="M1.546 0.392 Q1.831 0.229 1.576 0.055" stroke="hsl(180.0,100%,35%)" stroke-width="0.00026"></path>
<path d="M1.114 0.290 Q0.895 0.730 1.705 0.934" stroke="hsl(180.0,100%,35%)" stroke-width="0.00079"></path>
<path d="M1.114 0.290 Q1.038 0.675 1.771 0.796" stroke="hsl(180.0,100%,35%)" stroke-width="0.00423"></path>
<path d="M1.114 0.290 Q1.142 0.626 1.803 0.686" stroke="hsl(180.0,100%,35%)" stroke-width="0.00106"></path>
<path d="M1.114 0.290 Q0.973 0.291 0.943 0.360" stroke="hsl(180.0,100%,35%)" stroke-width="0.00265"></path>
<path d="M1.114 0.290 Q1.338 0.272 1.352 0.159" stroke="hsl(180.0,100%,35%)" stroke-width="0.00662"></path>
<path d="M1.114 0.290 Q1.228 0.331 1.332 0.284" stroke="hsl(180.0,100%,35%)" stroke-width="0.00053"></path>
<path d="M1.114 0.290 Q0.464 0.583 0.892 0.964" stroke="hsl(180.0,100%,35%)" stroke-width="0.00026"></path>
<path d="M1.114 0.290 Q0.561 0.207 0.277 0.458" stroke="hsl(180.0,100%,35%)" stroke-width="0.00026"></path>
<path d="M1.114 0.290 Q1.263 0.189 1.098 0.094" stroke="hsl(180.0,100%,35%)" stroke-width="0.00053"></path>
<path d="M1.114 0.290 Q1.424 0.370 1.646 0.236" stroke="hsl(180.0,100%,35%)" stroke-width="0.00026"></path>
<path d="M1.771 0.796 Q1.798 0.570 1.362 0.507" stroke="hsl(180.0,100%,35%)" stroke-width="0.00662"></path>
<path d="M1.771 0.796 Q2.267 0.386 1.576 0.055" stroke="hsl(180.0,100%,35%)" stroke-width="0.00026"></path>
<path d="M1.771 0.796 Q1.961 0.452 1.332 0.284" stroke="hsl(180.0,100%,35%)" stroke-width="0.00106"></path>
<path d="M1.771 0.796 Q1.628 0.852 1.705 0.934" stroke="hsl(180.0,100%,35%)" stroke-width="0.00820"></path>
<path d="M1.771 0.796 Q1.677 0.733 1.534 0.766" stroke="hsl(180.0,100%,35%)" stroke-width="0.00529"></path>
<path d="M1.771 0.796 Q1.875 0.748 1.803 0.686" stroke="hsl(180.0,100%,35%)" stroke-width="0.00450"></path>
<path d="M1.771 0.796 Q2.303 0.517 1.875 0.196" stroke="hsl(180.0,100%,35%)" stroke-width="0.00132"></path>
<path d="M1.771 0.796 Q1.706 0.412 0.943 0.360" stroke="hsl(180.0,100%,35%)" stroke-width="0.00344"></path>
<path d="M1.771 0.796 Q1.286 0.656 0.907 0.862" stroke="hsl(180.0,100%,35%)" stroke-width="0.00053"></path>
<path d="M1.771 0.796 Q1.444 0.731 1.246 0.876" stroke="hsl(180.0,100%,35%)" stroke-width="0.00026"></path>
<path d="M1.771 0.796 Q2.157 0.491 1.646 0.236" stroke="hsl(180.0,100%,35%)" stroke-width="0.00053"></path>
<path d="M1.771 0.796 Q1.996 0.310 1.098 0.094" stroke="hsl(180.0,100%,35%)" stroke-width="0.00079"></path>
<path d="M1.771 0.796 Q2.071 0.394 1.352 0.159" stroke="hsl(180.0,100%,35%)" stroke-width="0.00159"></path>
<path d="M1.771 0.796 Q1.910 0.463 1.292 0.322" stroke="hsl(180.0,100%,35%)" stroke-width="0.00026"></path>
<path d="M1.771 0.796 Q1.847 0.412 1.114 0.290" stroke="hsl(180.0,100%,35%)" stroke-width="0.00026"></path>
<path d="M1.771 0.796 Q1.730 0.674 1.482 0.667" stroke="hsl(180.0,100%,35%)" stroke-width="0.00026"></path>
<path d="M1.292 0.322 Q1.453 0.253 1.352 0.159" stroke="hsl(180.0,100%,35%)" stroke-width="0.00953"></path>
<path d="M1.292 0.322 Q1.684 0.376 1.875 0.196" stroke="hsl(180.0,100%,35%)" stroke-width="0.00026"></path>
<path d="M1.292 0.322 Q1.179 0.429 1.362 0.507" stroke="hsl(180.0,100%,35%)" stroke-width="0.00609"></path>
<path d="M1.292 0.322 Q1.058 0.592 1.534 0.766" stroke="hsl(180.0,100%,35%)" stroke-width="0.00026"></path>
<path d="M1.292 0.322 Q1.363 0.408 1.546 0.392" stroke="hsl(180.0,100%,35%)" stroke-width="0.00053"></path>
<path d="M1.292 0.322 Q1.342 0.311 1.332 0.284" stroke="hsl(180.0,100%,35%)" stroke-width="0.00344"></path>
<path d="M1.292 0.322 Q1.088 0.271 0.943 0.360" stroke="hsl(180.0,100%,35%)" stroke-width="0.00053"></path>
<path d="M1.292 0.322 Q1.378 0.169 1.098 0.094" stroke="hsl(180.0,100%,35%)" stroke-width="0.00053"></path>
<path d="M1.292 0.322 Q0.714 0.386 0.711 0.681" stroke="hsl(180.0,100%,35%)" stroke-width="0.00026"></path>
<path d="M1.292 0.322 Q1.257 0.607 1.803 0.686" stroke="hsl(180.0,100%,35%)" stroke-width="0.00159"></path>
<path d="M1.292 0.322 Q0.579 0.563 0.892 0.964" stroke="hsl(180.0,100%,35%)" stroke-width="0.00026"></path>
<path d="M1.292 0.322 Q1.538 0.350 1.646 0.236" stroke="hsl(180.0,100%,35%)" stroke-width="0.00026"></path>
<path d="M1.576 0.055 Q1.039 0.342 1.482 0.667" stroke="hsl(180.0,100%,35%)" stroke-width="0.00026"></path>
<path d="M1.576 0.055 Q1.185 0.416 1.803 0.686" stroke="hsl(180.0,100%,35%)" stroke-width="0.00026"></path>
<path d="M1.576 0.055 Q1.306 -0.021 1.098 0.094" stroke="hsl(180.0,100%,35%)" stroke-width="0.00053"></path>
<path d="M1.576 0.055 Q1.381 0.062 1.352 0.159" stroke="hsl(180.0,100%,35%)" stroke-width="0.00132"></path>
<path d="M1.576 0.055 Q1.270 0.121 1.332 0.284" stroke="hsl(180.0,100%,35%)" stroke-width="0.00291"></path>
<path d="M1.576 0.055 Q0.507 0.372 0.892 0.964" stroke="hsl(180.0,100%,35%)" stroke-width="0.00026"></path>
<path d="M1.705 0.934 Q1.848 0.878 1.771 0.796" stroke="hsl(180.0,100%,35%)" stroke-width="0.00185"></path>
<path d="M1.705 0.934 Q1.754 0.815 1.534 0.766" stroke="hsl(180.0,100%,35%)" stroke-width="0.00079"></path>
<path d="M1.705 0.934 Q2.074 0.392 1.098 0.094" stroke="hsl(180.0,100%,35%)" stroke-width="0.00053"></path>
<path d="M1.705 0.934 Q2.038 0.534 1.332 0.284" stroke="hsl(180.0,100%,35%)" stroke-width="0.00026"></path>
<path d="M1.705 0.934 Q1.924 0.494 1.114 0.290" stroke="hsl(180.0,100%,35%)" stroke-width="0.00053"></path>
<path d="M1.705 0.934 Q1.783 0.494 0.943 0.360" stroke="hsl(180.0,100%,35%)" stroke-width="0.00053"></path>
<path d="M1.705 0.934 Q2.380 0.599 1.875 0.196" stroke="hsl(180.0,100%,35%)" stroke-width="0.00026"></path>
<path d="M1.705 0.934 Q1.952 0.829 1.803 0.686" stroke="hsl(180.0,100%,35%)" stroke-width="0.00026"></path>
<path d="M0.711 0.681 Q0.664 0.811 0.907 0.862" stroke="hsl(0.0,100%,35%)" stroke-width="0.00635"></path>
<path d="M0.711 0.681 Q1.535 0.646 1.646 0.236" stroke="hsl(0.0,100%,35%)" stroke-width="0.00053"></path>
<path d="M0.711 0.681 Q1.645 0.541 1.576 0.055" stroke="hsl(0.0,100%,35%)" stroke-width="0.00026"></path>
<path d="M0.711 0.681 Q0.575 0.859 0.892 0.964" stroke="hsl(0.0,100%,35%)" stroke-width="0.00106"></path>
<path d="M0.711 0.681 Q0.939 0.448 0.535 0.286" stroke="hsl(0.0,100%,35%)" stroke-width="0.00026"></path>
<path d="M0.711 0.681 Q0.751 0.432 0.273 0.357" stroke="hsl(0.0,100%,35%)" stroke-width="0.00291"></path>
<path d="M0.711 0.681 Q0.673 0.483 0.277 0.458" stroke="hsl(0.0,100%,35%)" stroke-width="0.00053"></path>
<path d="M0.711 0.681 Q1.449 0.548 1.352 0.159" stroke="hsl(0.0,100%,35%)" stroke-width="0.00026"></path>
<path d="M1.646 0.236 Q1.792 0.262 1.875 0.196" stroke="hsl(180.0,100%,35%)" stroke-width="0.01323"></path>
<path d="M1.646 0.236 Q1.196 0.157 0.943 0.360" stroke="hsl(180.0,100%,35%)" stroke-width="0.00053"></path>
<path d="M1.646 0.236 Q1.486 0.055 1.098 0.094" stroke="hsl(180.0,100%,35%)" stroke-width="0.00503"></path>
<path d="M1.646 0.236 Q1.287 0.315 1.362 0.507" stroke="hsl(180.0,100%,35%)" stroke-width="0.00185"></path>
<path d="M1.646 0.236 Q0.822 0.271 0.711 0.681" stroke="hsl(180.0,100%,35%)" stroke-width="0.00053"></path>
<path d="M1.646 0.236 Q1.450 0.197 1.332 0.284" stroke="hsl(180.0,100%,35%)" stroke-width="0.00053"></path>
<path d="M1.646 0.236 Q1.260 0.541 1.771 0.796" stroke="hsl(180.0,100%,35%)" stroke-width="0.00053"></path>
<path d="M1.646 0.236 Q1.561 0.138 1.352 0.159" stroke="hsl(180.0,100%,35%)" stroke-width="0.00026"></path>
<path d="M1.646 0.236 Q1.336 0.157 1.114 0.290" stroke="hsl(180.0,100%,35%)" stroke-width="0.00079"></path>
<path d="M1.646 0.236 Q0.776 0.401 0.907 0.862" stroke="hsl(180.0,100%,35%)" stroke-width="0.00053"></path>
<path d="M1.246 0.876 Q1.088 0.801 0.907 0.862" stroke="hsl(0.0,100%,35%)" stroke-width="0.01217"></path>
<path d="M1.246 0.876 Q1.762 0.597 1.332 0.284" stroke="hsl(0.0,100%,35%)" stroke-width="0.00053"></path>
<path d="M1.246 0.876 Q1.508 0.557 0.943 0.360" stroke="hsl(0.0,100%,35%)" stroke-width="0.00053"></path>
<path d="M1.246 0.876 Q1.873 0.539 1.352 0.159" stroke="hsl(0.0,100%,35%)" stroke-width="0.00106"></path>
<path d="M1.246 0.876 Q1.712 0.608 1.292 0.322" stroke="hsl(0.0,100%,35%)" stroke-width="0.00026"></path>
<path d="M1.246 0.876 Q2.104 0.662 1.875 0.196" stroke="hsl(0.0,100%,35%)" stroke-width="0.00026"></path>
<path d="M1.246 0.876 Q1.134 0.672 0.711 0.681" stroke="hsl(0.0,100%,35%)" stroke-width="0.00026"></path>
<path d="M0.892 0.964 Q1.766 0.653 1.352 0.159" stroke="hsl(0.0,100%,35%)" stroke-width="0.00026"></path>
<path d="M0.892 0.964 Q1.027 0.786 0.711 0.681" stroke="hsl(0.0,100%,35%)" stroke-width="0.00185"></path>
<path d="M0.892 0.964 Q0.981 0.916 0.907 0.862" stroke="hsl(0.0,100%,35%)" stroke-width="0.00529"></path>
<path d="M0.892 0.964 Q1.655 0.712 1.332 0.284" stroke="hsl(0.0,100%,35%)" stroke-width="0.00026"></path>
<path d="M0.892 0.964 Q0.989 0.588 0.277 0.458" stroke="hsl(0.0,100%,35%)" stroke-width="0.00132"></path>
<path d="M0.892 0.964 Q1.139 0.991 1.246 0.876" stroke="hsl(0.0,100%,35%)" stroke-width="0.00185"></path>
<path d="M0.892 0.964 Q1.465 1.056 1.771 0.796" stroke="hsl(0.0,100%,35%)" stroke-width="0.00026"></path>
<path d="M0.892 0.964 Q1.400 0.672 0.943 0.360" stroke="hsl(0.0,100%,35%)" stroke-width="0.00053"></path>
<path d="M1.361 0.026 Q1.250 0.091 1.352 0.159" stroke="hsl(180.0,100%,35%)" stroke-width="0.00106"></path>
<path d="M1.361 0.026 Q1.054 0.445 1.803 0.686" stroke="hsl(180.0,100%,35%)" stroke-width="0.00053"></path>
<path d="M1.361 0.026 Q0.885 0.109 0.943 0.360" stroke="hsl(180.0,100%,35%)" stroke-width="0.00053"></path>
<path d="M1.111 0.472 Q1.286 0.717 1.803 0.686" stroke="hsl(180.0,100%,35%)" stroke-width="0.00053"></path>
<path d="M1.111 0.472 Q1.117 0.382 0.943 0.360" stroke="hsl(180.0,100%,35%)" stroke-width="0.00079"></path>
<path d="M1.111 0.472 Q1.141 0.644 1.482 0.667" stroke="hsl(180.0,100%,35%)" stroke-width="0.00026"></path>
<path d="M1.111 0.472 Q1.182 0.766 1.771 0.796" stroke="hsl(180.0,100%,35%)" stroke-width="0.00053"></path>
<path d="M1.266 0.621 Q1.483 0.761 1.803 0.686" stroke="hsl(180.0,100%,35%)" stroke-width="0.00026"></path>
<path d="M1.266 0.621 Q1.379 0.810 1.771 0.796" stroke="hsl(180.0,100%,35%)" stroke-width="0.00026"></path>
<path d="M1.266 0.621 Q1.285 0.747 1.534 0.766" stroke="hsl(180.0,100%,35%)" stroke-width="0.00026"></path>
<path d="M1.266 0.621 Q1.314 0.426 0.943 0.360" stroke="hsl(180.0,100%,35%)" stroke-width="0.00026"></path>
<path d="M0.705 0.380 Q0.905 0.801 1.771 0.796" stroke="hsl(180.0,100%,35%)" stroke-width="0.00026"></path>
<path d="M0.705 0.380 Q0.840 0.417 0.943 0.360" stroke="hsl(180.0,100%,35%)" stroke-width="0.00106"></path>
<path d="M0.705 0.380 Q0.702 0.524 0.983 0.558" stroke="hsl(180.0,100%,35%)" stroke-width="0.00053"></path>
<path d="M0.687 0.818 Q0.808 0.754 0.711 0.681" stroke="hsl(0.0,100%,35%)" stroke-width="0.00053"></path>
<path d="M0.687 0.818 Q0.762 0.884 0.907 0.862" stroke="hsl(0.0,100%,35%)" stroke-width="0.00132"></path>
<path d="M0.687 0.818 Q1.182 0.640 0.943 0.360" stroke="hsl(0.0,100%,35%)" stroke-width="0.00053"></path>
<path d="M0.687 0.818 Q1.472 0.538 1.098 0.094" stroke="hsl(0.0,100%,35%)" stroke-width="0.00026"></path>
<path d="M0.687 0.818 Q0.673 0.932 0.892 0.964" stroke="hsl(0.0,100%,35%)" stroke-width="0.00026"></path>
<path d="M0.687 0.818 Q1.547 0.621 1.352 0.159" stroke="hsl(0.0,100%,35%)" stroke-width="0.00026"></path>
<path d="M0.687 0.818 Q0.848 0.505 0.273 0.357" stroke="hsl(0.0,100%,35%)" stroke-width="0.00026"></path>
<path d="M0.687 0.818 Q1.351 0.975 1.803 0.686" stroke="hsl(0.0,100%,35%)" stroke-width="0.00026"></path>
<path d="M0.974 0.457 Q0.849 0.590 1.080 0.680" stroke="hsl(0.0,100%,35%)" stroke-width="0.00053"></path>
<path d="M0.974 0.457 Q1.037 0.402 0.943 0.360" stroke="hsl(0.0,100%,35%)" stroke-width="0.00053"></path>
<path d="M0.974 0.457 Q1.241 0.453 1.292 0.322" stroke="hsl(0.0,100%,35%)" stroke-width="0.00026"></path>
<path d="M1.149 0.737 Q1.203 0.388 0.535 0.286" stroke="hsl(0.0,100%,35%)" stroke-width="0.00026"></path>
<path d="M1.149 0.737 Q0.928 0.751 0.907 0.862" stroke="hsl(0.0,100%,35%)" stroke-width="0.00053"></path>
<path d="M1.149 0.737 Q1.347 0.507 0.943 0.360" stroke="hsl(0.0,100%,35%)" stroke-width="0.00026"></path>
<path d="M0.084 0.482 Q0.781 0.928 1.803 0.686" stroke="hsl(0.0,100%,35%)" stroke-width="0.00212"></path>
<path d="M0.084 0.482 Q0.047 0.525 0.122 0.553" stroke="hsl(0.0,100%,35%)" stroke-width="0.00238"></path>
<path d="M0.084 0.482 Q0.682 0.410 0.672 0.102" stroke="hsl(0.0,100%,35%)" stroke-width="0.00026"></path>
<path d="M0.084 0.482 Q0.200 0.509 0.277 0.458" stroke="hsl(0.0,100%,35%)" stroke-width="0.00079"></path>
<path d="M0.084 0.482 Q1.208 0.698 1.875 0.196" stroke="hsl(0.0,100%,35%)" stroke-width="0.00026"></path>
<path d="M0.915 0.640 Q0.742 0.421 0.277 0.458" stroke="hsl(0.0,100%,35%)" stroke-width="0.00053"></path>
<path d="M0.915 0.640 Q0.966 0.694 1.080 0.680" stroke="hsl(0.0,100%,35%)" stroke-width="0.00106"></path>
<path d="M0.915 0.640 Q0.734 0.750 0.907 0.862" stroke="hsl(0.0,100%,35%)" stroke-width="0.00026"></path>
<path d="M0.915 0.640 Q1.153 0.506 0.943 0.360" stroke="hsl(0.0,100%,35%)" stroke-width="0.00053"></path>
<path d="M0.915 0.640 Q1.444 0.404 1.098 0.094" stroke="hsl(0.0,100%,35%)" stroke-width="0.00026"></path>
<path d="M1.725 0.348 Q0.816 0.489 0.892 0.964" stroke="hsl(0.0,100%,35%)" stroke-width="0.00026"></path>
<path d="M1.725 0.348 Q1.886 0.172 1.576 0.055" stroke="hsl(0.0,100%,35%)" stroke-width="0.00026"></path>
<path d="M1.725 0.348 Q1.494 0.533 1.803 0.686" stroke="hsl(0.0,100%,35%)" stroke-width="0.00026"></path>
<path d="M1.725 0.348 Q1.529 0.249 1.292 0.322" stroke="hsl(0.0,100%,35%)" stroke-width="0.00026"></path>
<path d="M1.465 0.806 Q1.852 0.376 1.098 0.094" stroke="hsl(180.0,100%,35%)" stroke-width="0.00079"></path>
<path d="M1.465 0.806 Q2.158 0.583 1.875 0.196" stroke="hsl(180.0,100%,35%)" stroke-width="0.00079"></path>
<path d="M1.465 0.806 Q1.626 0.862 1.771 0.796" stroke="hsl(180.0,100%,35%)" stroke-width="0.00132"></path>
<path d="M1.465 0.806 Q1.730 0.814 1.803 0.686" stroke="hsl(180.0,100%,35%)" stroke-width="0.00053"></path>
<path d="M1.465 0.806 Q1.653 0.636 1.362 0.507" stroke="hsl(180.0,100%,35%)" stroke-width="0.00053"></path>
<path d="M1.465 0.806 Q2.012 0.557 1.646 0.236" stroke="hsl(180.0,100%,35%)" stroke-width="0.00026"></path>
<path d="M0.139 0.670 Q0.958 1.011 1.803 0.686" stroke="hsl(180.0,100%,35%)" stroke-width="0.00397"></path>
<path d="M0.139 0.670 Q0.225 0.608 0.122 0.553" stroke="hsl(180.0,100%,35%)" stroke-width="0.00397"></path>
<path d="M0.139 0.670 Q0.416 0.790 0.711 0.681" stroke="hsl(180.0,100%,35%)" stroke-width="0.00053"></path>
<path d="M0.139 0.670 Q0.378 0.592 0.277 0.458" stroke="hsl(180.0,100%,35%)" stroke-width="0.00026"></path>
<path d="M0.139 0.670 Q1.386 0.781 1.875 0.196" stroke="hsl(180.0,100%,35%)" stroke-width="0.00106"></path>
<path d="M0.139 0.670 Q0.789 0.676 0.943 0.360" stroke="hsl(180.0,100%,35%)" stroke-width="0.00026"></path>
<path d="M0.399 0.568 Q1.128 0.471 1.098 0.094" stroke="hsl(180.0,100%,35%)" stroke-width="0.00026"></path>
<path d="M0.399 0.568 Q0.338 0.593 0.374 0.629" stroke="hsl(180.0,100%,35%)" stroke-width="0.00026"></path>
<path d="M0.399 0.568 Q0.532 0.595 0.614 0.536" stroke="hsl(180.0,100%,35%)" stroke-width="0.00026"></path>
<path d="M0.842 0.181 Q1.040 0.188 1.098 0.094" stroke="hsl(180.0,100%,35%)" stroke-width="0.00026"></path>
<path d="M0.842 0.181 Q1.310 0.264 1.576 0.055" stroke="hsl(180.0,100%,35%)" stroke-width="0.00026"></path>
<path d="M0.842 0.181 Q0.749 0.290 0.943 0.360" stroke="hsl(180.0,100%,35%)" stroke-width="0.00026"></path>
<path d="M0.737 0.874 Q0.832 0.902 0.907 0.862" stroke="hsl(0.0,100%,35%)" stroke-width="0.00026"></path>
<path d="M0.737 0.874 Q1.506 0.698 1.332 0.284" stroke="hsl(0.0,100%,35%)" stroke-width="0.00026"></path>
<path d="M0.737 0.874 Q0.840 0.574 0.277 0.458" stroke="hsl(0.0,100%,35%)" stroke-width="0.00026"></path>
<path d="M1.590 0.567 Q1.119 0.392 0.675 0.583" stroke="hsl(180.0,100%,35%)" stroke-width="0.00026"></path>
<path d="M1.590 0.567 Q1.602 0.669 1.803 0.686" stroke="hsl(180.0,100%,35%)" stroke-width="0.00106"></path>
<path d="M1.590 0.567 Q1.738 0.523 1.685 0.441" stroke="hsl(180.0,100%,35%)" stroke-width="0.00053"></path>
<path d="M1.651 0.540 Q1.731 0.206 1.098 0.094" stroke="hsl(180.0,100%,35%)" stroke-width="0.00026"></path>
<path d="M1.651 0.540 Q1.610 0.643 1.803 0.686" stroke="hsl(180.0,100%,35%)" stroke-width="0.00106"></path>
<path d="M1.651 0.540 Q1.179 0.627 1.246 0.876" stroke="hsl(180.0,100%,35%)" stroke-width="0.00026"></path>
<path d="M1.651 0.540 Q2.002 0.282 1.576 0.055" stroke="hsl(180.0,100%,35%)" stroke-width="0.00026"></path>
<path d="M1.651 0.540 Q1.806 0.289 1.352 0.159" stroke="hsl(180.0,100%,35%)" stroke-width="0.00026"></path>
<path d="M1.651 0.540 Q1.465 0.569 1.482 0.667" stroke="hsl(180.0,100%,35%)" stroke-width="0.00053"></path>
<path d="M0.774 0.550 Q0.698 0.547 0.675 0.583" stroke="hsl(180.0,100%,35%)" stroke-width="0.00053"></path>
<path d="M0.774 0.550 Q1.180 0.824 1.803 0.686" stroke="hsl(180.0,100%,35%)" stroke-width="0.00026"></path>
<path d="M0.774 0.550 Q1.571 0.463 1.576 0.055" stroke="hsl(180.0,100%,35%)" stroke-width="0.00026"></path>
<path d="M1.471 0.894 Q1.605 0.842 1.534 0.766" stroke="hsl(180.0,100%,35%)" stroke-width="0.00106"></path>
<path d="M1.471 0.894 Q1.803 0.856 1.803 0.686" stroke="hsl(180.0,100%,35%)" stroke-width="0.00159"></path>
<path d="M1.471 0.894 Q1.999 0.502 1.352 0.159" stroke="hsl(180.0,100%,35%)" stroke-width="0.00053"></path>
<path d="M0.493 -0.086 Q-0.148 0.519 0.892 0.964" stroke="hsl(0.0,100%,35%)" stroke-width="0.00026"></path>
<path d="M0.493 -0.086 Q-0.050 0.143 0.277 0.458" stroke="hsl(0.0,100%,35%)" stroke-width="0.00026"></path>
<path d="M0.493 -0.086 Q0.332 0.548 1.534 0.766" stroke="hsl(0.0,100%,35%)" stroke-width="0.00026"></path>
<path d="M0.493 -0.086 Q0.426 0.611 1.771 0.796" stroke="hsl(0.0,100%,35%)" stroke-width="0.00026"></path>
<path d="M1.559 0.649 Q1.933 0.460 1.646 0.236" stroke="hsl(180.0,100%,35%)" stroke-width="0.00026"></path>
<path d="M1.559 0.649 Q1.686 0.432 1.292 0.322" stroke="hsl(180.0,100%,35%)" stroke-width="0.00079"></path>
<path d="M1.559 0.649 Q1.651 0.716 1.803 0.686" stroke="hsl(180.0,100%,35%)" stroke-width="0.00053"></path>
</g>
<text x="0.672" y="0.092" font-size="0.020960" fill="hsl(0.0,100%,20%)">aixba</text>
<text x="0.535" y="0.274" font-size="0.024003" fill="hsl(0.0,100%,20%)">asraine</text>
<text x="0.907" y="0.833" font-size="0.057433" fill="hsl(0.0,100%,20%)">jacktfranklin</text>
<text x="0.277" y="0.438" font-size="0.040433" fill="hsl(0.0,100%,20%)">paulirish</text>
<text x="0.273" y="0.337" font-size="0.039895" fill="hsl(0.0,100%,20%)">cjamcl</text>
<text x="1.803" y="0.660" font-size="0.052862" fill="hsl(180.0,100%,20%)">dsv</text>
<text x="0.845" y="0.459" font-size="0.007591" fill="hsl(180.0,100%,20%)">aksen5240</text>
<text x="1.534" y="0.753" font-size="0.024742" fill="hsl(180.0,100%,20%)">changhaohan</text>
<text x="0.943" y="0.338" font-size="0.043604" fill="hsl(180.0,100%,20%)">szuend</text>
<text x="1.352" y="0.124" font-size="0.070340" fill="hsl(180.0,100%,20%)">alexrudenko</text>
<text x="1.875" y="0.174" font-size="0.044503" fill="hsl(180.0,100%,20%)">kimanh</text>
<text x="1.482" y="0.657" font-size="0.018976" fill="hsl(180.0,100%,20%)">yangguo</text>
<text x="1.362" y="0.481" font-size="0.051969" fill="hsl(180.0,100%,20%)">ergunsh</text>
<text x="1.098" y="0.066" font-size="0.055325" fill="hsl(180.0,100%,20%)">bmeurer</text>
<text x="1.332" y="0.256" font-size="0.057244" fill="hsl(180.0,100%,20%)">nvitkov</text>
<text x="1.546" y="0.380" font-size="0.024887" fill="hsl(180.0,100%,20%)">samiyac</text>
<text x="1.114" y="0.277" font-size="0.026294" fill="hsl(180.0,100%,20%)">liviurau</text>
<text x="1.771" y="0.773" font-size="0.046637" fill="hsl(180.0,100%,20%)">pfaffe</text>
<text x="1.292" y="0.306" font-size="0.032977" fill="hsl(180.0,100%,20%)">wolfi</text>
<text x="1.576" y="0.046" font-size="0.018003" fill="hsl(180.0,100%,20%)">mathias</text>
<text x="1.705" y="0.923" font-size="0.021131" fill="hsl(180.0,100%,20%)">leese</text>
<text x="0.711" y="0.669" font-size="0.025318" fill="hsl(0.0,100%,20%)">nancyly</text>
<text x="1.646" y="0.217" font-size="0.037283" fill="hsl(180.0,100%,20%)">kprokopenko</text>
<text x="1.246" y="0.861" font-size="0.030362" fill="hsl(0.0,100%,20%)">alinavarkki</text>
<text x="0.892" y="0.950" font-size="0.026702" fill="hsl(0.0,100%,20%)">andoli</text>
<text x="1.361" y="0.022" font-size="0.007591" fill="hsl(180.0,100%,20%)">apavlov</text>
<text x="1.111" y="0.468" font-size="0.007591" fill="hsl(180.0,100%,20%)">cwu631</text>
<text x="1.266" y="0.619" font-size="0.005367" fill="hsl(180.0,100%,20%)">dbaron</text>
<text x="1.685" y="0.439" font-size="0.004648" fill="hsl(180.0,100%,20%)">kenoss</text>
<text x="0.705" y="0.376" font-size="0.007100" fill="hsl(180.0,100%,20%)">elormcoch</text>
<text x="0.983" y="0.556" font-size="0.003795" fill="hsl(180.0,100%,20%)">petermueller</text>
<text x="0.687" y="0.812" font-size="0.012587" fill="hsl(0.0,100%,20%)">finnur</text>
<text x="0.974" y="0.454" font-size="0.006001" fill="hsl(0.0,100%,20%)">garimachadha</text>
<text x="1.080" y="0.677" font-size="0.006574" fill="hsl(0.0,100%,20%)">rob.paveza</text>
<text x="1.149" y="0.734" font-size="0.005367" fill="hsl(0.0,100%,20%)">hocheung</text>
<text x="1.621" y="0.197" font-size="0.005367" fill="hsl(180.0,100%,20%)">victorporof</text>
<text x="0.084" y="0.476" font-size="0.012587" fill="hsl(0.0,100%,20%)">jalonthomas</text>
<text x="0.122" y="0.546" font-size="0.013147" fill="hsl(0.0,100%,20%)">shuuran</text>
<text x="0.915" y="0.636" font-size="0.008486" fill="hsl(0.0,100%,20%)">jaysonchen</text>
<text x="1.725" y="0.346" font-size="0.005367" fill="hsl(0.0,100%,20%)">jdh</text>
<text x="1.465" y="0.801" font-size="0.010735" fill="hsl(180.0,100%,20%)">marcelpuetz</text>
<text x="0.139" y="0.662" font-size="0.016543" fill="hsl(180.0,100%,20%)">masnoble</text>
<text x="0.399" y="0.566" font-size="0.004648" fill="hsl(180.0,100%,20%)">monicach</text>
<text x="0.374" y="0.627" font-size="0.002684" fill="hsl(180.0,100%,20%)">sisidovski</text>
<text x="0.614" y="0.535" font-size="0.002684" fill="hsl(180.0,100%,20%)">yyanagisawa</text>
<text x="0.842" y="0.178" font-size="0.004648" fill="hsl(180.0,100%,20%)">petermarshall</text>
<text x="0.737" y="0.872" font-size="0.004648" fill="hsl(0.0,100%,20%)">petrcermak</text>
<text x="1.590" y="0.563" font-size="0.007100" fill="hsl(180.0,100%,20%)">robertlin</text>
<text x="0.675" y="0.581" font-size="0.004648" fill="hsl(180.0,100%,20%)">domenic</text>
<text x="1.651" y="0.535" font-size="0.008486" fill="hsl(180.0,100%,20%)">semel</text>
<text x="0.774" y="0.547" font-size="0.005367" fill="hsl(180.0,100%,20%)">stevenwei</text>
<text x="1.471" y="0.889" font-size="0.009296" fill="hsl(180.0,100%,20%)">vkrot</text>
<text x="0.493" y="-0.089" font-size="0.005367" fill="hsl(0.0,100%,20%)">yanlingwang</text>
<text x="1.559" y="0.645" font-size="0.006574" fill="hsl(180.0,100%,20%)">yaoxia</text>
</svg>
