<svg width="4000" height="2000" viewBox="-0.025 -0.025 2.05 1.05" xmlns="http://www.w3.org/2000/svg">
  <style>
    path {
      fill: none;
      stroke-linecap: round;
      stroke-opacity: 0.4;
    }

    text {
      text-anchor: middle;
      alignment-baseline: hanging;
    }
  </style>
  <g opacity="0.4">
<path d="M1.020 0.131 Q1.135 0.153 1.204 0.102" stroke="hsl(0.0,100%,35%)" stroke-width="0.00483"></path>
<path d="M1.020 0.131 Q0.378 0.268 0.506 0.612" stroke="hsl(0.0,100%,35%)" stroke-width="0.00028"></path>
<path d="M1.020 0.131 Q0.336 0.365 0.643 0.750" stroke="hsl(0.0,100%,35%)" stroke-width="0.00227"></path>
<path d="M1.020 0.131 Q1.297 0.176 1.447 0.052" stroke="hsl(0.0,100%,35%)" stroke-width="0.00341"></path>
<path d="M1.020 0.131 Q1.394 0.241 1.692 0.083" stroke="hsl(0.0,100%,35%)" stroke-width="0.00085"></path>
<path d="M1.020 0.131 Q0.777 0.472 1.389 0.665" stroke="hsl(0.0,100%,35%)" stroke-width="0.00028"></path>
<path d="M1.204 0.102 Q1.464 0.190 1.692 0.083" stroke="hsl(0.0,100%,35%)" stroke-width="0.00993"></path>
<path d="M1.204 0.102 Q1.153 0.147 1.230 0.182" stroke="hsl(0.0,100%,35%)" stroke-width="0.00057"></path>
<path d="M1.204 0.102 Q0.405 0.314 0.643 0.750" stroke="hsl(0.0,100%,35%)" stroke-width="0.00114"></path>
<path d="M1.204 0.102 Q1.366 0.125 1.447 0.052" stroke="hsl(0.0,100%,35%)" stroke-width="0.00369"></path>
<path d="M1.204 0.102 Q1.089 0.080 1.020 0.131" stroke="hsl(0.0,100%,35%)" stroke-width="0.00255"></path>
<path d="M1.204 0.102 Q0.552 0.380 0.952 0.760" stroke="hsl(0.0,100%,35%)" stroke-width="0.00028"></path>
<path d="M1.204 0.102 Q0.447 0.217 0.506 0.612" stroke="hsl(0.0,100%,35%)" stroke-width="0.00028"></path>
<path d="M0.506 0.612 Q0.464 0.709 0.643 0.750" stroke="hsl(0.0,100%,35%)" stroke-width="0.00766"></path>
<path d="M0.506 0.612 Q0.611 0.775 0.952 0.760" stroke="hsl(0.0,100%,35%)" stroke-width="0.00284"></path>
<path d="M0.506 0.612 Q0.713 0.644 0.822 0.550" stroke="hsl(0.0,100%,35%)" stroke-width="0.00312"></path>
<path d="M0.506 0.612 Q1.029 0.708 1.331 0.473" stroke="hsl(0.0,100%,35%)" stroke-width="0.00028"></path>
<path d="M0.506 0.612 Q1.263 0.497 1.204 0.102" stroke="hsl(0.0,100%,35%)" stroke-width="0.00028"></path>
<path d="M0.506 0.612 Q1.143 0.708 1.470 0.419" stroke="hsl(0.0,100%,35%)" stroke-width="0.00057"></path>
<path d="M0.506 0.612 Q1.035 0.633 1.191 0.379" stroke="hsl(0.0,100%,35%)" stroke-width="0.00028"></path>
<path d="M0.506 0.612 Q1.271 0.626 1.466 0.255" stroke="hsl(0.0,100%,35%)" stroke-width="0.00028"></path>
<path d="M0.506 0.612 Q1.425 0.520 1.447 0.052" stroke="hsl(0.0,100%,35%)" stroke-width="0.00142"></path>
<path d="M0.506 0.612 Q1.055 0.803 1.547 0.577" stroke="hsl(0.0,100%,35%)" stroke-width="0.00028"></path>
<path d="M0.506 0.612 Q1.212 0.542 1.230 0.182" stroke="hsl(0.0,100%,35%)" stroke-width="0.00057"></path>
<path d="M0.643 0.750 Q1.214 0.674 1.191 0.379" stroke="hsl(0.0,100%,35%)" stroke-width="0.01022"></path>
<path d="M0.643 0.750 Q1.083 0.857 1.389 0.665" stroke="hsl(0.0,100%,35%)" stroke-width="0.00142"></path>
<path d="M0.643 0.750 Q1.701 0.626 1.692 0.083" stroke="hsl(0.0,100%,35%)" stroke-width="0.00170"></path>
<path d="M0.643 0.750 Q0.685 0.654 0.506 0.612" stroke="hsl(0.0,100%,35%)" stroke-width="0.01192"></path>
<path d="M0.643 0.750 Q0.892 0.686 0.822 0.550" stroke="hsl(0.0,100%,35%)" stroke-width="0.00852"></path>
<path d="M0.643 0.750 Q1.108 0.598 0.912 0.337" stroke="hsl(0.0,100%,35%)" stroke-width="0.00681"></path>
<path d="M0.643 0.750 Q1.391 0.584 1.230 0.182" stroke="hsl(0.0,100%,35%)" stroke-width="0.00227"></path>
<path d="M0.643 0.750 Q1.450 0.667 1.466 0.255" stroke="hsl(0.0,100%,35%)" stroke-width="0.00426"></path>
<path d="M0.643 0.750 Q1.327 0.516 1.020 0.131" stroke="hsl(0.0,100%,35%)" stroke-width="0.00114"></path>
<path d="M0.643 0.750 Q1.442 0.538 1.204 0.102" stroke="hsl(0.0,100%,35%)" stroke-width="0.00057"></path>
<path d="M0.643 0.750 Q0.790 0.817 0.952 0.760" stroke="hsl(0.0,100%,35%)" stroke-width="0.00568"></path>
<path d="M0.643 0.750 Q1.604 0.562 1.447 0.052" stroke="hsl(0.0,100%,35%)" stroke-width="0.00227"></path>
<path d="M0.643 0.750 Q0.472 0.642 0.223 0.702" stroke="hsl(0.0,100%,35%)" stroke-width="0.00028"></path>
<path d="M0.643 0.750 Q1.234 0.844 1.547 0.577" stroke="hsl(0.0,100%,35%)" stroke-width="0.00085"></path>
<path d="M0.643 0.750 Q1.293 0.624 1.190 0.279" stroke="hsl(0.0,100%,35%)" stroke-width="0.00085"></path>
<path d="M0.643 0.750 Q1.250 0.602 1.093 0.273" stroke="hsl(0.0,100%,35%)" stroke-width="0.00057"></path>
<path d="M0.643 0.750 Q1.208 0.750 1.331 0.473" stroke="hsl(0.0,100%,35%)" stroke-width="0.00028"></path>
<path d="M0.643 0.750 Q0.995 0.857 1.281 0.709" stroke="hsl(0.0,100%,35%)" stroke-width="0.00085"></path>
<path d="M0.643 0.750 Q1.205 0.919 1.658 0.682" stroke="hsl(0.0,100%,35%)" stroke-width="0.00057"></path>
<path d="M0.643 0.750 Q0.591 0.532 0.154 0.509" stroke="hsl(0.0,100%,35%)" stroke-width="0.00028"></path>
<path d="M0.643 0.750 Q0.802 0.587 0.519 0.474" stroke="hsl(0.0,100%,35%)" stroke-width="0.00170"></path>
<path d="M0.643 0.750 Q1.558 0.604 1.474 0.125" stroke="hsl(0.0,100%,35%)" stroke-width="0.00028"></path>
<path d="M1.447 0.052 Q1.544 0.116 1.692 0.083" stroke="hsl(0.0,100%,35%)" stroke-width="0.00426"></path>
<path d="M1.447 0.052 Q1.234 0.073 1.230 0.182" stroke="hsl(0.0,100%,35%)" stroke-width="0.00057"></path>
<path d="M1.447 0.052 Q0.951 0.087 0.912 0.337" stroke="hsl(0.0,100%,35%)" stroke-width="0.00057"></path>
<path d="M1.447 0.052 Q0.486 0.240 0.643 0.750" stroke="hsl(0.0,100%,35%)" stroke-width="0.00511"></path>
<path d="M1.447 0.052 Q0.927 0.347 1.389 0.665" stroke="hsl(0.0,100%,35%)" stroke-width="0.00028"></path>
<path d="M1.447 0.052 Q1.170 0.006 1.020 0.131" stroke="hsl(0.0,100%,35%)" stroke-width="0.00227"></path>
<path d="M1.447 0.052 Q0.528 0.144 0.506 0.612" stroke="hsl(0.0,100%,35%)" stroke-width="0.00085"></path>
<path d="M1.447 0.052 Q0.838 0.347 1.281 0.709" stroke="hsl(0.0,100%,35%)" stroke-width="0.00057"></path>
<path d="M1.447 0.052 Q1.165 0.240 1.470 0.419" stroke="hsl(0.0,100%,35%)" stroke-width="0.00028"></path>
<path d="M1.447 0.052 Q1.293 0.157 1.466 0.255" stroke="hsl(0.0,100%,35%)" stroke-width="0.00028"></path>
<path d="M1.692 0.083 Q1.433 -0.005 1.204 0.102" stroke="hsl(0.0,100%,35%)" stroke-width="0.00511"></path>
<path d="M1.692 0.083 Q1.318 -0.028 1.020 0.131" stroke="hsl(0.0,100%,35%)" stroke-width="0.00142"></path>
<path d="M1.692 0.083 Q1.594 0.018 1.447 0.052" stroke="hsl(0.0,100%,35%)" stroke-width="0.02356"></path>
<path d="M1.692 0.083 Q1.312 0.206 1.470 0.419" stroke="hsl(0.0,100%,35%)" stroke-width="0.00085"></path>
<path d="M1.692 0.083 Q0.633 0.207 0.643 0.750" stroke="hsl(0.0,100%,35%)" stroke-width="0.00227"></path>
<path d="M1.692 0.083 Q0.675 0.110 0.506 0.612" stroke="hsl(0.0,100%,35%)" stroke-width="0.00028"></path>
<path d="M1.692 0.083 Q1.441 0.124 1.466 0.255" stroke="hsl(0.0,100%,35%)" stroke-width="0.00028"></path>
<path d="M1.389 0.665 Q1.539 0.653 1.547 0.577" stroke="hsl(120.0,100%,35%)" stroke-width="0.01675"></path>
<path d="M1.389 0.665 Q1.696 0.392 1.230 0.182" stroke="hsl(120.0,100%,35%)" stroke-width="0.00312"></path>
<path d="M1.389 0.665 Q1.555 0.410 1.093 0.273" stroke="hsl(120.0,100%,35%)" stroke-width="0.00170"></path>
<path d="M1.389 0.665 Q1.519 0.483 1.191 0.379" stroke="hsl(120.0,100%,35%)" stroke-width="0.00454"></path>
<path d="M1.389 0.665 Q0.948 0.559 0.643 0.750" stroke="hsl(120.0,100%,35%)" stroke-width="0.00199"></path>
<path d="M1.389 0.665 Q1.627 0.558 1.470 0.419" stroke="hsl(120.0,100%,35%)" stroke-width="0.01760"></path>
<path d="M1.389 0.665 Q1.755 0.476 1.466 0.255" stroke="hsl(120.0,100%,35%)" stroke-width="0.00255"></path>
<path d="M1.389 0.665 Q0.896 0.340 0.154 0.509" stroke="hsl(120.0,100%,35%)" stroke-width="0.00312"></path>
<path d="M1.389 0.665 Q1.147 0.347 0.472 0.395" stroke="hsl(120.0,100%,35%)" stroke-width="0.00028"></path>
<path d="M1.389 0.665 Q1.095 0.625 0.952 0.760" stroke="hsl(120.0,100%,35%)" stroke-width="0.00028"></path>
<path d="M1.389 0.665 Q1.300 0.665 1.281 0.709" stroke="hsl(120.0,100%,35%)" stroke-width="0.00028"></path>
<path d="M1.389 0.665 Q1.510 0.727 1.658 0.682" stroke="hsl(120.0,100%,35%)" stroke-width="0.00312"></path>
<path d="M1.389 0.665 Q0.777 0.450 0.223 0.702" stroke="hsl(120.0,100%,35%)" stroke-width="0.00085"></path>
<path d="M1.389 0.665 Q1.413 0.406 0.912 0.337" stroke="hsl(120.0,100%,35%)" stroke-width="0.00085"></path>
<path d="M1.389 0.665 Q1.598 0.432 1.190 0.279" stroke="hsl(120.0,100%,35%)" stroke-width="0.00028"></path>
<path d="M1.380 0.490 Q1.365 0.641 1.658 0.682" stroke="hsl(120.0,100%,35%)" stroke-width="0.00057"></path>
<path d="M1.380 0.490 Q1.551 0.306 1.230 0.182" stroke="hsl(120.0,100%,35%)" stroke-width="0.00085"></path>
<path d="M1.380 0.490 Q1.374 0.397 1.191 0.379" stroke="hsl(120.0,100%,35%)" stroke-width="0.00028"></path>
<path d="M1.380 0.490 Q0.752 0.254 0.154 0.509" stroke="hsl(120.0,100%,35%)" stroke-width="0.00028"></path>
<path d="M1.380 0.490 Q1.155 0.580 1.281 0.709" stroke="hsl(120.0,100%,35%)" stroke-width="0.00028"></path>
<path d="M1.658 0.682 Q1.774 0.513 1.470 0.419" stroke="hsl(120.0,100%,35%)" stroke-width="0.00142"></path>
<path d="M1.658 0.682 Q1.044 0.295 0.154 0.509" stroke="hsl(120.0,100%,35%)" stroke-width="0.00057"></path>
<path d="M1.658 0.682 Q1.686 0.607 1.547 0.577" stroke="hsl(120.0,100%,35%)" stroke-width="0.00170"></path>
<path d="M1.658 0.682 Q1.661 0.512 1.331 0.473" stroke="hsl(120.0,100%,35%)" stroke-width="0.00085"></path>
<path d="M1.658 0.682 Q1.345 0.449 0.822 0.550" stroke="hsl(120.0,100%,35%)" stroke-width="0.00028"></path>
<path d="M1.658 0.682 Q1.843 0.346 1.230 0.182" stroke="hsl(120.0,100%,35%)" stroke-width="0.00199"></path>
<path d="M1.658 0.682 Q1.536 0.620 1.389 0.665" stroke="hsl(120.0,100%,35%)" stroke-width="0.00057"></path>
<path d="M1.658 0.682 Q1.667 0.437 1.191 0.379" stroke="hsl(120.0,100%,35%)" stroke-width="0.00085"></path>
<path d="M1.230 0.182 Q1.053 0.273 1.191 0.379" stroke="hsl(120.0,100%,35%)" stroke-width="0.00341"></path>
<path d="M1.230 0.182 Q0.922 0.456 1.389 0.665" stroke="hsl(120.0,100%,35%)" stroke-width="0.00284"></path>
<path d="M1.230 0.182 Q1.161 0.349 1.470 0.419" stroke="hsl(120.0,100%,35%)" stroke-width="0.00170"></path>
<path d="M1.230 0.182 Q0.430 0.130 0.154 0.509" stroke="hsl(120.0,100%,35%)" stroke-width="0.00426"></path>
<path d="M1.230 0.182 Q1.073 0.443 1.547 0.577" stroke="hsl(120.0,100%,35%)" stroke-width="0.00284"></path>
<path d="M1.230 0.182 Q0.947 0.196 0.912 0.337" stroke="hsl(120.0,100%,35%)" stroke-width="0.00085"></path>
<path d="M1.230 0.182 Q1.289 0.266 1.466 0.255" stroke="hsl(120.0,100%,35%)" stroke-width="0.00057"></path>
<path d="M1.230 0.182 Q0.834 0.456 1.281 0.709" stroke="hsl(120.0,100%,35%)" stroke-width="0.00028"></path>
<path d="M1.191 0.379 Q1.085 0.302 0.912 0.337" stroke="hsl(120.0,100%,35%)" stroke-width="0.01362"></path>
<path d="M1.191 0.379 Q1.368 0.288 1.230 0.182" stroke="hsl(120.0,100%,35%)" stroke-width="0.00710"></path>
<path d="M1.191 0.379 Q0.972 0.562 1.281 0.709" stroke="hsl(120.0,100%,35%)" stroke-width="0.00057"></path>
<path d="M1.191 0.379 Q0.937 0.318 0.763 0.429" stroke="hsl(120.0,100%,35%)" stroke-width="0.00114"></path>
<path d="M1.191 0.379 Q1.227 0.306 1.093 0.273" stroke="hsl(120.0,100%,35%)" stroke-width="0.00369"></path>
<path d="M1.191 0.379 Q1.270 0.329 1.190 0.279" stroke="hsl(120.0,100%,35%)" stroke-width="0.00085"></path>
<path d="M1.191 0.379 Q1.299 0.455 1.470 0.419" stroke="hsl(120.0,100%,35%)" stroke-width="0.00426"></path>
<path d="M1.191 0.379 Q1.061 0.562 1.389 0.665" stroke="hsl(120.0,100%,35%)" stroke-width="0.00369"></path>
<path d="M1.191 0.379 Q1.427 0.372 1.466 0.255" stroke="hsl(120.0,100%,35%)" stroke-width="0.01448"></path>
<path d="M1.191 0.379 Q0.620 0.455 0.643 0.750" stroke="hsl(120.0,100%,35%)" stroke-width="0.00255"></path>
<path d="M1.191 0.379 Q1.023 0.382 0.993 0.464" stroke="hsl(120.0,100%,35%)" stroke-width="0.00057"></path>
<path d="M1.191 0.379 Q1.211 0.549 1.547 0.577" stroke="hsl(120.0,100%,35%)" stroke-width="0.00227"></path>
<path d="M1.191 0.379 Q0.568 0.237 0.154 0.509" stroke="hsl(120.0,100%,35%)" stroke-width="0.00170"></path>
<path d="M1.191 0.379 Q1.185 0.454 1.331 0.473" stroke="hsl(120.0,100%,35%)" stroke-width="0.00057"></path>
<path d="M0.154 0.509 Q0.646 0.834 1.389 0.665" stroke="hsl(120.0,100%,35%)" stroke-width="0.00142"></path>
<path d="M0.154 0.509 Q0.035 0.619 0.223 0.702" stroke="hsl(120.0,100%,35%)" stroke-width="0.02072"></path>
<path d="M0.154 0.509 Q0.352 0.794 0.952 0.760" stroke="hsl(120.0,100%,35%)" stroke-width="0.00057"></path>
<path d="M0.154 0.509 Q0.884 0.727 1.470 0.419" stroke="hsl(120.0,100%,35%)" stroke-width="0.00539"></path>
<path d="M0.154 0.509 Q0.953 0.561 1.230 0.182" stroke="hsl(120.0,100%,35%)" stroke-width="0.00170"></path>
<path d="M0.154 0.509 Q0.558 0.834 1.281 0.709" stroke="hsl(120.0,100%,35%)" stroke-width="0.00028"></path>
<path d="M0.154 0.509 Q0.777 0.651 1.191 0.379" stroke="hsl(120.0,100%,35%)" stroke-width="0.00170"></path>
<path d="M0.154 0.509 Q0.812 0.579 1.093 0.273" stroke="hsl(120.0,100%,35%)" stroke-width="0.00057"></path>
<path d="M0.154 0.509 Q0.671 0.575 0.912 0.337" stroke="hsl(120.0,100%,35%)" stroke-width="0.00057"></path>
<path d="M0.154 0.509 Q1.005 0.516 1.204 0.102" stroke="hsl(120.0,100%,35%)" stroke-width="0.00028"></path>
<path d="M0.154 0.509 Q1.013 0.645 1.466 0.255" stroke="hsl(120.0,100%,35%)" stroke-width="0.00057"></path>
<path d="M0.154 0.509 Q0.771 0.727 1.331 0.473" stroke="hsl(120.0,100%,35%)" stroke-width="0.00057"></path>
<path d="M0.154 0.509 Q0.205 0.727 0.643 0.750" stroke="hsl(120.0,100%,35%)" stroke-width="0.00028"></path>
<path d="M1.281 0.709 Q0.929 0.602 0.643 0.750" stroke="hsl(120.0,100%,35%)" stroke-width="0.00057"></path>
<path d="M1.281 0.709 Q1.394 0.449 0.912 0.337" stroke="hsl(120.0,100%,35%)" stroke-width="0.00057"></path>
<path d="M1.281 0.709 Q0.877 0.384 0.154 0.509" stroke="hsl(120.0,100%,35%)" stroke-width="0.00170"></path>
<path d="M1.281 0.709 Q1.607 0.602 1.470 0.419" stroke="hsl(120.0,100%,35%)" stroke-width="0.00085"></path>
<path d="M1.281 0.709 Q1.369 0.709 1.389 0.665" stroke="hsl(120.0,100%,35%)" stroke-width="0.00142"></path>
<path d="M1.281 0.709 Q1.491 0.771 1.658 0.682" stroke="hsl(120.0,100%,35%)" stroke-width="0.00057"></path>
<path d="M1.281 0.709 Q1.519 0.696 1.547 0.577" stroke="hsl(120.0,100%,35%)" stroke-width="0.00085"></path>
<path d="M1.281 0.709 Q0.758 0.494 0.223 0.702" stroke="hsl(120.0,100%,35%)" stroke-width="0.00057"></path>
<path d="M1.281 0.709 Q1.500 0.526 1.191 0.379" stroke="hsl(120.0,100%,35%)" stroke-width="0.00085"></path>
<path d="M1.281 0.709 Q1.579 0.476 1.190 0.279" stroke="hsl(120.0,100%,35%)" stroke-width="0.00028"></path>
<path d="M1.281 0.709 Q1.332 0.529 0.993 0.464" stroke="hsl(120.0,100%,35%)" stroke-width="0.00028"></path>
<path d="M1.281 0.709 Q1.535 0.453 1.093 0.273" stroke="hsl(120.0,100%,35%)" stroke-width="0.00028"></path>
<path d="M0.912 0.337 Q1.010 0.659 1.658 0.682" stroke="hsl(120.0,100%,35%)" stroke-width="0.00142"></path>
<path d="M0.912 0.337 Q1.038 0.584 1.547 0.577" stroke="hsl(120.0,100%,35%)" stroke-width="0.00199"></path>
<path d="M0.912 0.337 Q1.018 0.414 1.191 0.379" stroke="hsl(120.0,100%,35%)" stroke-width="0.01731"></path>
<path d="M0.912 0.337 Q1.195 0.323 1.230 0.182" stroke="hsl(120.0,100%,35%)" stroke-width="0.00199"></path>
<path d="M0.912 0.337 Q1.126 0.490 1.470 0.419" stroke="hsl(120.0,100%,35%)" stroke-width="0.00170"></path>
<path d="M0.912 0.337 Q0.276 0.382 0.223 0.702" stroke="hsl(120.0,100%,35%)" stroke-width="0.00057"></path>
<path d="M0.912 0.337 Q0.764 0.353 0.763 0.429" stroke="hsl(120.0,100%,35%)" stroke-width="0.00142"></path>
<path d="M0.912 0.337 Q1.255 0.407 1.466 0.255" stroke="hsl(120.0,100%,35%)" stroke-width="0.00539"></path>
<path d="M0.912 0.337 Q0.888 0.597 1.389 0.665" stroke="hsl(120.0,100%,35%)" stroke-width="0.00199"></path>
<path d="M0.912 0.337 Q0.396 0.272 0.154 0.509" stroke="hsl(120.0,100%,35%)" stroke-width="0.00142"></path>
<path d="M0.912 0.337 Q1.098 0.364 1.190 0.279" stroke="hsl(120.0,100%,35%)" stroke-width="0.00057"></path>
<path d="M0.912 0.337 Q1.054 0.341 1.093 0.273" stroke="hsl(120.0,100%,35%)" stroke-width="0.00454"></path>
<path d="M0.912 0.337 Q0.489 0.393 0.506 0.612" stroke="hsl(120.0,100%,35%)" stroke-width="0.00028"></path>
<path d="M0.912 0.337 Q0.447 0.490 0.643 0.750" stroke="hsl(120.0,100%,35%)" stroke-width="0.00057"></path>
<path d="M0.912 0.337 Q1.408 0.301 1.447 0.052" stroke="hsl(120.0,100%,35%)" stroke-width="0.00057"></path>
<path d="M0.912 0.337 Q0.851 0.417 0.993 0.464" stroke="hsl(120.0,100%,35%)" stroke-width="0.00085"></path>
<path d="M0.912 0.337 Q1.506 0.366 1.692 0.083" stroke="hsl(120.0,100%,35%)" stroke-width="0.00028"></path>
<path d="M0.763 0.429 Q0.911 0.413 0.912 0.337" stroke="hsl(120.0,100%,35%)" stroke-width="0.00795"></path>
<path d="M0.763 0.429 Q0.838 0.255 0.515 0.181" stroke="hsl(120.0,100%,35%)" stroke-width="0.00028"></path>
<path d="M0.763 0.429 Q1.017 0.490 1.191 0.379" stroke="hsl(120.0,100%,35%)" stroke-width="0.00653"></path>
<path d="M0.763 0.429 Q1.125 0.565 1.470 0.419" stroke="hsl(120.0,100%,35%)" stroke-width="0.00028"></path>
<path d="M0.763 0.429 Q0.395 0.347 0.154 0.509" stroke="hsl(120.0,100%,35%)" stroke-width="0.00170"></path>
<path d="M0.763 0.429 Q1.254 0.483 1.466 0.255" stroke="hsl(120.0,100%,35%)" stroke-width="0.00057"></path>
<path d="M0.763 0.429 Q0.446 0.566 0.643 0.750" stroke="hsl(120.0,100%,35%)" stroke-width="0.00028"></path>
<path d="M1.093 0.273 Q1.057 0.346 1.191 0.379" stroke="hsl(120.0,100%,35%)" stroke-width="0.01249"></path>
<path d="M1.093 0.273 Q1.165 0.421 1.470 0.419" stroke="hsl(120.0,100%,35%)" stroke-width="0.00114"></path>
<path d="M1.093 0.273 Q0.803 0.285 0.763 0.429" stroke="hsl(120.0,100%,35%)" stroke-width="0.00085"></path>
<path d="M1.093 0.273 Q0.435 0.203 0.154 0.509" stroke="hsl(120.0,100%,35%)" stroke-width="0.00028"></path>
<path d="M1.093 0.273 Q0.951 0.269 0.912 0.337" stroke="hsl(120.0,100%,35%)" stroke-width="0.00624"></path>
<path d="M1.093 0.273 Q1.049 0.590 1.658 0.682" stroke="hsl(120.0,100%,35%)" stroke-width="0.00028"></path>
<path d="M1.093 0.273 Q1.294 0.339 1.466 0.255" stroke="hsl(120.0,100%,35%)" stroke-width="0.00369"></path>
<path d="M1.093 0.273 Q1.234 0.255 1.230 0.182" stroke="hsl(120.0,100%,35%)" stroke-width="0.00057"></path>
<path d="M1.093 0.273 Q0.633 0.488 0.952 0.760" stroke="hsl(120.0,100%,35%)" stroke-width="0.00028"></path>
<path d="M1.093 0.273 Q0.927 0.528 1.389 0.665" stroke="hsl(120.0,100%,35%)" stroke-width="0.00142"></path>
<path d="M1.093 0.273 Q0.528 0.325 0.506 0.612" stroke="hsl(120.0,100%,35%)" stroke-width="0.00028"></path>
<path d="M1.093 0.273 Q0.315 0.313 0.223 0.702" stroke="hsl(120.0,100%,35%)" stroke-width="0.00028"></path>
<path d="M1.190 0.279 Q0.891 0.512 1.281 0.709" stroke="hsl(120.0,100%,35%)" stroke-width="0.00028"></path>
<path d="M1.190 0.279 Q0.980 0.512 1.389 0.665" stroke="hsl(120.0,100%,35%)" stroke-width="0.00028"></path>
<path d="M1.190 0.279 Q1.218 0.405 1.470 0.419" stroke="hsl(120.0,100%,35%)" stroke-width="0.00028"></path>
<path d="M1.190 0.279 Q1.111 0.329 1.191 0.379" stroke="hsl(120.0,100%,35%)" stroke-width="0.00085"></path>
<path d="M1.190 0.279 Q1.347 0.322 1.466 0.255" stroke="hsl(120.0,100%,35%)" stroke-width="0.00312"></path>
<path d="M1.190 0.279 Q0.581 0.309 0.506 0.612" stroke="hsl(120.0,100%,35%)" stroke-width="0.00028"></path>
<path d="M1.470 0.419 Q1.398 0.270 1.093 0.273" stroke="hsl(120.0,100%,35%)" stroke-width="0.00057"></path>
<path d="M1.470 0.419 Q1.232 0.526 1.389 0.665" stroke="hsl(120.0,100%,35%)" stroke-width="0.00596"></path>
<path d="M1.470 0.419 Q1.539 0.252 1.230 0.182" stroke="hsl(120.0,100%,35%)" stroke-width="0.00312"></path>
<path d="M1.470 0.419 Q0.833 0.323 0.506 0.612" stroke="hsl(120.0,100%,35%)" stroke-width="0.00057"></path>
<path d="M1.470 0.419 Q1.354 0.588 1.658 0.682" stroke="hsl(120.0,100%,35%)" stroke-width="0.00511"></path>
<path d="M1.470 0.419 Q1.108 0.283 0.763 0.429" stroke="hsl(120.0,100%,35%)" stroke-width="0.00114"></path>
<path d="M1.470 0.419 Q1.041 0.355 0.822 0.550" stroke="hsl(120.0,100%,35%)" stroke-width="0.00057"></path>
<path d="M1.470 0.419 Q1.599 0.336 1.466 0.255" stroke="hsl(120.0,100%,35%)" stroke-width="0.00823"></path>
<path d="M1.470 0.419 Q0.620 0.311 0.223 0.702" stroke="hsl(120.0,100%,35%)" stroke-width="0.00114"></path>
<path d="M1.470 0.419 Q1.363 0.343 1.191 0.379" stroke="hsl(120.0,100%,35%)" stroke-width="0.02044"></path>
<path d="M1.470 0.419 Q1.382 0.513 1.547 0.577" stroke="hsl(120.0,100%,35%)" stroke-width="0.00114"></path>
<path d="M1.470 0.419 Q0.740 0.201 0.154 0.509" stroke="hsl(120.0,100%,35%)" stroke-width="0.00255"></path>
<path d="M1.470 0.419 Q1.256 0.266 0.912 0.337" stroke="hsl(120.0,100%,35%)" stroke-width="0.00170"></path>
<path d="M1.470 0.419 Q1.143 0.526 1.281 0.709" stroke="hsl(120.0,100%,35%)" stroke-width="0.00142"></path>
<path d="M1.470 0.419 Q1.442 0.293 1.190 0.279" stroke="hsl(120.0,100%,35%)" stroke-width="0.00085"></path>
<path d="M1.470 0.419 Q1.195 0.346 0.993 0.464" stroke="hsl(120.0,100%,35%)" stroke-width="0.00028"></path>
<path d="M1.466 0.255 Q1.230 0.262 1.191 0.379" stroke="hsl(120.0,100%,35%)" stroke-width="0.01703"></path>
<path d="M1.466 0.255 Q1.337 0.338 1.470 0.419" stroke="hsl(120.0,100%,35%)" stroke-width="0.02555"></path>
<path d="M1.466 0.255 Q1.249 0.432 1.547 0.577" stroke="hsl(120.0,100%,35%)" stroke-width="0.00426"></path>
<path d="M1.466 0.255 Q1.099 0.445 1.389 0.665" stroke="hsl(120.0,100%,35%)" stroke-width="0.00596"></path>
<path d="M1.466 0.255 Q1.124 0.186 0.912 0.337" stroke="hsl(120.0,100%,35%)" stroke-width="0.00738"></path>
<path d="M1.466 0.255 Q0.658 0.338 0.643 0.750" stroke="hsl(120.0,100%,35%)" stroke-width="0.00227"></path>
<path d="M1.466 0.255 Q1.406 0.172 1.230 0.182" stroke="hsl(120.0,100%,35%)" stroke-width="0.00653"></path>
<path d="M1.466 0.255 Q0.908 0.274 0.822 0.550" stroke="hsl(120.0,100%,35%)" stroke-width="0.00255"></path>
<path d="M1.466 0.255 Q1.062 0.265 0.993 0.464" stroke="hsl(120.0,100%,35%)" stroke-width="0.00227"></path>
<path d="M1.466 0.255 Q0.805 0.405 0.952 0.760" stroke="hsl(120.0,100%,35%)" stroke-width="0.00028"></path>
<path d="M1.466 0.255 Q0.607 0.120 0.154 0.509" stroke="hsl(120.0,100%,35%)" stroke-width="0.00114"></path>
<path d="M1.466 0.255 Q1.620 0.150 1.447 0.052" stroke="hsl(120.0,100%,35%)" stroke-width="0.00057"></path>
<path d="M1.466 0.255 Q0.975 0.202 0.763 0.429" stroke="hsl(120.0,100%,35%)" stroke-width="0.00057"></path>
<path d="M1.466 0.255 Q0.700 0.242 0.506 0.612" stroke="hsl(120.0,100%,35%)" stroke-width="0.00028"></path>
<path d="M1.466 0.255 Q1.309 0.212 1.190 0.279" stroke="hsl(120.0,100%,35%)" stroke-width="0.00114"></path>
<path d="M1.466 0.255 Q1.574 0.192 1.474 0.125" stroke="hsl(120.0,100%,35%)" stroke-width="0.00085"></path>
<path d="M1.466 0.255 Q0.488 0.230 0.223 0.702" stroke="hsl(120.0,100%,35%)" stroke-width="0.00085"></path>
<path d="M1.466 0.255 Q1.265 0.190 1.093 0.273" stroke="hsl(120.0,100%,35%)" stroke-width="0.00057"></path>
<path d="M1.466 0.255 Q1.224 0.338 1.331 0.473" stroke="hsl(120.0,100%,35%)" stroke-width="0.00028"></path>
<path d="M0.993 0.464 Q1.155 0.537 1.331 0.473" stroke="hsl(120.0,100%,35%)" stroke-width="0.00085"></path>
<path d="M0.993 0.464 Q1.180 0.631 1.547 0.577" stroke="hsl(120.0,100%,35%)" stroke-width="0.00454"></path>
<path d="M0.993 0.464 Q1.030 0.644 1.389 0.665" stroke="hsl(120.0,100%,35%)" stroke-width="0.00085"></path>
<path d="M0.993 0.464 Q1.337 0.371 1.230 0.182" stroke="hsl(120.0,100%,35%)" stroke-width="0.00284"></path>
<path d="M0.993 0.464 Q1.160 0.461 1.191 0.379" stroke="hsl(120.0,100%,35%)" stroke-width="0.00454"></path>
<path d="M0.993 0.464 Q1.397 0.455 1.466 0.255" stroke="hsl(120.0,100%,35%)" stroke-width="0.00057"></path>
<path d="M0.993 0.464 Q0.631 0.441 0.506 0.612" stroke="hsl(120.0,100%,35%)" stroke-width="0.00028"></path>
<path d="M0.993 0.464 Q1.550 0.349 1.447 0.052" stroke="hsl(120.0,100%,35%)" stroke-width="0.00028"></path>
<path d="M1.547 0.577 Q1.421 0.330 0.912 0.337" stroke="hsl(120.0,100%,35%)" stroke-width="0.00539"></path>
<path d="M1.547 0.577 Q1.606 0.356 1.190 0.279" stroke="hsl(120.0,100%,35%)" stroke-width="0.00028"></path>
<path d="M1.547 0.577 Q1.763 0.400 1.466 0.255" stroke="hsl(120.0,100%,35%)" stroke-width="0.00114"></path>
<path d="M1.547 0.577 Q1.521 0.482 1.331 0.473" stroke="hsl(120.0,100%,35%)" stroke-width="0.00766"></path>
<path d="M1.547 0.577 Q1.518 0.651 1.658 0.682" stroke="hsl(120.0,100%,35%)" stroke-width="0.00284"></path>
<path d="M1.547 0.577 Q1.397 0.589 1.389 0.665" stroke="hsl(120.0,100%,35%)" stroke-width="0.00397"></path>
<path d="M1.547 0.577 Q0.904 0.264 0.154 0.509" stroke="hsl(120.0,100%,35%)" stroke-width="0.00142"></path>
<path d="M1.547 0.577 Q1.704 0.316 1.230 0.182" stroke="hsl(120.0,100%,35%)" stroke-width="0.00284"></path>
<path d="M1.547 0.577 Q0.956 0.483 0.643 0.750" stroke="hsl(120.0,100%,35%)" stroke-width="0.00057"></path>
<path d="M1.547 0.577 Q1.205 0.418 0.822 0.550" stroke="hsl(120.0,100%,35%)" stroke-width="0.00028"></path>
<path d="M1.547 0.577 Q0.785 0.374 0.223 0.702" stroke="hsl(120.0,100%,35%)" stroke-width="0.00057"></path>
<path d="M1.547 0.577 Q1.635 0.482 1.470 0.419" stroke="hsl(120.0,100%,35%)" stroke-width="0.00085"></path>
<path d="M1.547 0.577 Q1.527 0.407 1.191 0.379" stroke="hsl(120.0,100%,35%)" stroke-width="0.00085"></path>
<path d="M1.331 0.473 Q1.337 0.398 1.191 0.379" stroke="hsl(120.0,100%,35%)" stroke-width="0.00028"></path>
<path d="M1.331 0.473 Q0.913 0.541 0.952 0.760" stroke="hsl(120.0,100%,35%)" stroke-width="0.00028"></path>
<path d="M1.331 0.473 Q1.445 0.474 1.470 0.419" stroke="hsl(120.0,100%,35%)" stroke-width="0.00085"></path>
<path d="M1.331 0.473 Q1.357 0.568 1.547 0.577" stroke="hsl(120.0,100%,35%)" stroke-width="0.00199"></path>
<path d="M1.331 0.473 Q1.328 0.643 1.658 0.682" stroke="hsl(120.0,100%,35%)" stroke-width="0.00057"></path>
<path d="M1.331 0.473 Q1.573 0.391 1.466 0.255" stroke="hsl(120.0,100%,35%)" stroke-width="0.00028"></path>
<path d="M1.331 0.473 Q1.169 0.401 0.993 0.464" stroke="hsl(120.0,100%,35%)" stroke-width="0.00057"></path>
<path d="M1.331 0.473 Q1.514 0.307 1.230 0.182" stroke="hsl(120.0,100%,35%)" stroke-width="0.00028"></path>
<path d="M0.822 0.550 Q0.572 0.615 0.643 0.750" stroke="hsl(0.0,100%,35%)" stroke-width="0.01135"></path>
<path d="M0.822 0.550 Q0.614 0.518 0.506 0.612" stroke="hsl(0.0,100%,35%)" stroke-width="0.00085"></path>
<path d="M0.822 0.550 Q0.719 0.681 0.952 0.760" stroke="hsl(0.0,100%,35%)" stroke-width="0.00114"></path>
<path d="M0.822 0.550 Q1.380 0.532 1.466 0.255" stroke="hsl(0.0,100%,35%)" stroke-width="0.00057"></path>
<path d="M0.822 0.550 Q1.320 0.448 1.230 0.182" stroke="hsl(0.0,100%,35%)" stroke-width="0.00057"></path>
<path d="M0.822 0.550 Q1.144 0.539 1.191 0.379" stroke="hsl(0.0,100%,35%)" stroke-width="0.00057"></path>
<path d="M0.822 0.550 Q1.179 0.466 1.093 0.273" stroke="hsl(0.0,100%,35%)" stroke-width="0.00028"></path>
<path d="M0.952 0.760 Q0.805 0.693 0.643 0.750" stroke="hsl(0.0,100%,35%)" stroke-width="0.00653"></path>
<path d="M0.952 0.760 Q0.847 0.597 0.506 0.612" stroke="hsl(0.0,100%,35%)" stroke-width="0.00284"></path>
<path d="M0.952 0.760 Q0.753 0.475 0.154 0.509" stroke="hsl(0.0,100%,35%)" stroke-width="0.00114"></path>
<path d="M0.952 0.760 Q1.054 0.629 0.822 0.550" stroke="hsl(0.0,100%,35%)" stroke-width="0.00057"></path>
<path d="M0.952 0.760 Q1.766 0.505 1.447 0.052" stroke="hsl(0.0,100%,35%)" stroke-width="0.00057"></path>
<path d="M0.952 0.760 Q0.634 0.585 0.223 0.702" stroke="hsl(0.0,100%,35%)" stroke-width="0.00057"></path>
<path d="M0.952 0.760 Q1.455 0.567 1.190 0.279" stroke="hsl(0.0,100%,35%)" stroke-width="0.00028"></path>
<path d="M0.952 0.760 Q1.604 0.481 1.204 0.102" stroke="hsl(0.0,100%,35%)" stroke-width="0.00028"></path>
<path d="M0.952 0.760 Q1.863 0.569 1.692 0.083" stroke="hsl(0.0,100%,35%)" stroke-width="0.00255"></path>
<path d="M1.027 0.603 Q1.289 0.524 1.191 0.379" stroke="hsl(120.0,100%,35%)" stroke-width="0.00114"></path>
<path d="M1.027 0.603 Q1.158 0.707 1.389 0.665" stroke="hsl(120.0,100%,35%)" stroke-width="0.00057"></path>
<path d="M1.027 0.603 Q1.465 0.433 1.230 0.182" stroke="hsl(120.0,100%,35%)" stroke-width="0.00057"></path>
<path d="M0.223 0.702 Q0.343 0.592 0.154 0.509" stroke="hsl(120.0,100%,35%)" stroke-width="0.01249"></path>
<path d="M0.223 0.702 Q1.142 0.643 1.230 0.182" stroke="hsl(120.0,100%,35%)" stroke-width="0.00057"></path>
<path d="M0.223 0.702 Q1.073 0.810 1.470 0.419" stroke="hsl(120.0,100%,35%)" stroke-width="0.00483"></path>
<path d="M0.223 0.702 Q0.859 0.657 0.912 0.337" stroke="hsl(120.0,100%,35%)" stroke-width="0.00142"></path>
<path d="M0.223 0.702 Q0.541 0.876 0.952 0.760" stroke="hsl(120.0,100%,35%)" stroke-width="0.00028"></path>
<path d="M0.223 0.702 Q1.201 0.727 1.466 0.255" stroke="hsl(120.0,100%,35%)" stroke-width="0.00057"></path>
<path d="M0.223 0.702 Q0.985 0.904 1.547 0.577" stroke="hsl(120.0,100%,35%)" stroke-width="0.00057"></path>
<path d="M0.223 0.702 Q0.965 0.734 1.191 0.379" stroke="hsl(120.0,100%,35%)" stroke-width="0.00028"></path>
<path d="M0.223 0.702 Q0.798 0.737 0.993 0.464" stroke="hsl(120.0,100%,35%)" stroke-width="0.00028"></path>
<path d="M1.251 0.500 Q1.187 0.610 1.389 0.665" stroke="hsl(120.0,100%,35%)" stroke-width="0.00057"></path>
<path d="M1.251 0.500 Q1.495 0.337 1.230 0.182" stroke="hsl(120.0,100%,35%)" stroke-width="0.00085"></path>
<path d="M1.251 0.500 Q1.099 0.610 1.281 0.709" stroke="hsl(120.0,100%,35%)" stroke-width="0.00028"></path>
<path d="M1.251 0.500 Q1.337 0.597 1.547 0.577" stroke="hsl(120.0,100%,35%)" stroke-width="0.00057"></path>
<path d="M0.472 0.395 Q0.714 0.713 1.389 0.665" stroke="hsl(120.0,100%,35%)" stroke-width="0.00199"></path>
<path d="M0.472 0.395 Q0.601 0.369 0.578 0.300" stroke="hsl(120.0,100%,35%)" stroke-width="0.00028"></path>
<path d="M0.472 0.395 Q1.021 0.440 1.230 0.182" stroke="hsl(120.0,100%,35%)" stroke-width="0.00028"></path>
<path d="M0.472 0.395 Q0.310 0.749 0.965 0.906" stroke="hsl(120.0,100%,35%)" stroke-width="0.00028"></path>
<path d="M0.439 0.062 Q0.562 0.371 1.191 0.379" stroke="hsl(120.0,100%,35%)" stroke-width="0.00028"></path>
<path d="M0.439 0.062 Q0.597 0.299 1.093 0.273" stroke="hsl(120.0,100%,35%)" stroke-width="0.00028"></path>
<path d="M0.439 0.062 Q0.581 0.541 1.547 0.577" stroke="hsl(120.0,100%,35%)" stroke-width="0.00028"></path>
<path d="M0.439 0.062 Q0.738 0.280 1.230 0.182" stroke="hsl(120.0,100%,35%)" stroke-width="0.00085"></path>
<path d="M0.439 0.062 Q0.382 0.137 0.515 0.181" stroke="hsl(120.0,100%,35%)" stroke-width="0.00057"></path>
<path d="M0.519 0.474 Q0.507 0.703 0.952 0.760" stroke="hsl(0.0,100%,35%)" stroke-width="0.00057"></path>
<path d="M0.519 0.474 Q0.360 0.637 0.643 0.750" stroke="hsl(0.0,100%,35%)" stroke-width="0.00114"></path>
<path d="M0.519 0.474 Q1.108 0.470 1.230 0.182" stroke="hsl(0.0,100%,35%)" stroke-width="0.00057"></path>
<path d="M0.519 0.474 Q1.039 0.637 1.470 0.419" stroke="hsl(0.0,100%,35%)" stroke-width="0.00028"></path>
<path d="M0.519 0.474 Q0.402 0.540 0.506 0.612" stroke="hsl(0.0,100%,35%)" stroke-width="0.00028"></path>
<path d="M0.519 0.474 Q0.931 0.561 1.191 0.379" stroke="hsl(0.0,100%,35%)" stroke-width="0.00028"></path>
<path d="M0.365 0.285 Q0.208 0.235 0.075 0.301" stroke="hsl(0.0,100%,35%)" stroke-width="0.00057"></path>
<path d="M0.365 0.285 Q0.880 0.407 1.230 0.182" stroke="hsl(0.0,100%,35%)" stroke-width="0.00057"></path>
<path d="M0.365 0.285 Q0.739 0.425 1.093 0.273" stroke="hsl(0.0,100%,35%)" stroke-width="0.00028"></path>
<path d="M0.625 0.942 Q1.586 0.638 1.204 0.102" stroke="hsl(0.0,100%,35%)" stroke-width="0.00028"></path>
<path d="M0.625 0.942 Q0.787 0.850 0.643 0.750" stroke="hsl(0.0,100%,35%)" stroke-width="0.00057"></path>
<path d="M0.625 0.942 Q1.535 0.683 1.230 0.182" stroke="hsl(0.0,100%,35%)" stroke-width="0.00028"></path>
<path d="M1.154 0.510 Q1.147 0.634 1.389 0.665" stroke="hsl(120.0,100%,35%)" stroke-width="0.00312"></path>
<path d="M1.154 0.510 Q0.853 0.594 0.952 0.760" stroke="hsl(120.0,100%,35%)" stroke-width="0.00028"></path>
<path d="M1.154 0.510 Q0.955 0.464 0.822 0.550" stroke="hsl(120.0,100%,35%)" stroke-width="0.00028"></path>
<path d="M1.154 0.510 Q0.655 0.309 0.154 0.509" stroke="hsl(120.0,100%,35%)" stroke-width="0.00057"></path>
<path d="M1.154 0.510 Q0.862 0.711 1.190 0.897" stroke="hsl(120.0,100%,35%)" stroke-width="0.00255"></path>
<path d="M1.154 0.510 Q1.390 0.293 1.020 0.131" stroke="hsl(120.0,100%,35%)" stroke-width="0.00028"></path>
<path d="M1.154 0.510 Q1.667 0.339 1.447 0.052" stroke="hsl(120.0,100%,35%)" stroke-width="0.00085"></path>
<path d="M1.190 0.897 Q1.475 0.821 1.389 0.665" stroke="hsl(120.0,100%,35%)" stroke-width="0.00057"></path>
<path d="M1.190 0.897 Q1.641 0.566 1.093 0.273" stroke="hsl(120.0,100%,35%)" stroke-width="0.00028"></path>
<path d="M1.190 0.897 Q1.625 0.808 1.547 0.577" stroke="hsl(120.0,100%,35%)" stroke-width="0.00028"></path>
<path d="M0.092 0.192 Q-0.079 0.581 0.643 0.750" stroke="hsl(0.0,100%,35%)" stroke-width="0.00057"></path>
<path d="M0.092 0.192 Q-0.003 0.243 0.075 0.301" stroke="hsl(0.0,100%,35%)" stroke-width="0.00142"></path>
<path d="M0.092 0.192 Q0.882 0.393 1.447 0.052" stroke="hsl(0.0,100%,35%)" stroke-width="0.00085"></path>
<path d="M0.092 0.192 Q0.669 0.415 1.230 0.182" stroke="hsl(0.0,100%,35%)" stroke-width="0.00028"></path>
<path d="M0.092 0.192 Q0.600 0.581 1.470 0.419" stroke="hsl(0.0,100%,35%)" stroke-width="0.00028"></path>
<path d="M1.111 0.612 Q0.808 0.491 0.506 0.612" stroke="hsl(120.0,100%,35%)" stroke-width="0.00028"></path>
<path d="M1.111 0.612 Q1.417 0.461 1.190 0.279" stroke="hsl(120.0,100%,35%)" stroke-width="0.00028"></path>
<path d="M1.111 0.612 Q1.207 0.694 1.389 0.665" stroke="hsl(120.0,100%,35%)" stroke-width="0.00028"></path>
<path d="M1.111 0.612 Q1.373 0.439 1.093 0.273" stroke="hsl(120.0,100%,35%)" stroke-width="0.00028"></path>
<path d="M1.797 0.412 Q1.628 0.350 1.470 0.419" stroke="hsl(120.0,100%,35%)" stroke-width="0.00114"></path>
<path d="M1.797 0.412 Q1.096 0.417 0.952 0.760" stroke="hsl(120.0,100%,35%)" stroke-width="0.00028"></path>
<path d="M1.797 0.412 Q0.898 0.132 0.154 0.509" stroke="hsl(120.0,100%,35%)" stroke-width="0.00085"></path>
<path d="M1.797 0.412 Q1.540 0.444 1.547 0.577" stroke="hsl(120.0,100%,35%)" stroke-width="0.00114"></path>
<path d="M1.797 0.412 Q1.390 0.457 1.389 0.665" stroke="hsl(120.0,100%,35%)" stroke-width="0.00057"></path>
<path d="M1.797 0.412 Q1.414 0.198 0.912 0.337" stroke="hsl(120.0,100%,35%)" stroke-width="0.00028"></path>
<path d="M1.797 0.412 Q0.778 0.242 0.223 0.702" stroke="hsl(120.0,100%,35%)" stroke-width="0.00028"></path>
<path d="M1.393 0.823 Q1.517 0.743 1.389 0.665" stroke="hsl(120.0,100%,35%)" stroke-width="0.00511"></path>
<path d="M1.393 0.823 Q1.232 0.819 1.190 0.897" stroke="hsl(120.0,100%,35%)" stroke-width="0.00511"></path>
<path d="M1.393 0.823 Q1.223 0.703 0.952 0.760" stroke="hsl(120.0,100%,35%)" stroke-width="0.00057"></path>
<path d="M1.393 0.823 Q2.037 0.448 1.447 0.052" stroke="hsl(120.0,100%,35%)" stroke-width="0.00028"></path>
<path d="M1.393 0.823 Q1.025 0.418 0.154 0.509" stroke="hsl(120.0,100%,35%)" stroke-width="0.00114"></path>
<path d="M1.393 0.823 Q1.824 0.470 1.230 0.182" stroke="hsl(120.0,100%,35%)" stroke-width="0.00028"></path>
<path d="M1.709 0.257 Q1.460 0.290 1.470 0.419" stroke="hsl(240.0,100%,35%)" stroke-width="0.00028"></path>
<path d="M1.709 0.257 Q1.919 0.245 1.941 0.140" stroke="hsl(240.0,100%,35%)" stroke-width="0.00028"></path>
<path d="M1.709 0.257 Q1.719 0.283 1.773 0.284" stroke="hsl(240.0,100%,35%)" stroke-width="0.00028"></path>
<path d="M1.537 0.447 Q1.527 0.420 1.470 0.419" stroke="hsl(120.0,100%,35%)" stroke-width="0.00028"></path>
<path d="M1.537 0.447 Q1.498 0.294 1.190 0.279" stroke="hsl(120.0,100%,35%)" stroke-width="0.00028"></path>
<path d="M1.537 0.447 Q1.596 0.253 1.230 0.182" stroke="hsl(120.0,100%,35%)" stroke-width="0.00028"></path>
<path d="M0.740 0.579 Q0.554 0.645 0.643 0.750" stroke="hsl(0.0,100%,35%)" stroke-width="0.00028"></path>
<path d="M0.740 0.579 Q1.362 0.562 1.466 0.255" stroke="hsl(0.0,100%,35%)" stroke-width="0.00028"></path>
<path d="M0.740 0.579 Q1.515 0.456 1.447 0.052" stroke="hsl(0.0,100%,35%)" stroke-width="0.00028"></path>
<path d="M0.451 0.452 Q0.345 0.782 0.965 0.906" stroke="hsl(120.0,100%,35%)" stroke-width="0.00028"></path>
<path d="M0.451 0.452 Q0.749 0.746 1.389 0.665" stroke="hsl(120.0,100%,35%)" stroke-width="0.00114"></path>
<path d="M0.451 0.452 Q0.507 0.428 0.472 0.395" stroke="hsl(120.0,100%,35%)" stroke-width="0.00057"></path>
<path d="M1.296 0.602 Q1.650 0.334 1.204 0.102" stroke="hsl(120.0,100%,35%)" stroke-width="0.00028"></path>
<path d="M1.296 0.602 Q1.530 0.545 1.470 0.419" stroke="hsl(120.0,100%,35%)" stroke-width="0.00028"></path>
<path d="M1.296 0.602 Q1.292 0.652 1.389 0.665" stroke="hsl(120.0,100%,35%)" stroke-width="0.00114"></path>
<path d="M1.296 0.602 Q1.100 0.481 0.822 0.550" stroke="hsl(120.0,100%,35%)" stroke-width="0.00028"></path>
<path d="M1.296 0.602 Q1.501 0.419 1.190 0.279" stroke="hsl(120.0,100%,35%)" stroke-width="0.00028"></path>
<path d="M1.296 0.602 Q1.422 0.469 1.191 0.379" stroke="hsl(120.0,100%,35%)" stroke-width="0.00028"></path>
<path d="M1.296 0.602 Q1.203 0.652 1.281 0.709" stroke="hsl(120.0,100%,35%)" stroke-width="0.00028"></path>
<path d="M1.080 0.957 Q1.064 0.908 0.965 0.906" stroke="hsl(120.0,100%,35%)" stroke-width="0.00057"></path>
<path d="M1.080 0.957 Q1.468 0.873 1.389 0.665" stroke="hsl(120.0,100%,35%)" stroke-width="0.00028"></path>
<path d="M1.080 0.957 Q1.677 0.640 1.190 0.279" stroke="hsl(120.0,100%,35%)" stroke-width="0.00028"></path>
<path d="M1.152 0.764 Q1.471 0.824 1.658 0.682" stroke="hsl(120.0,100%,35%)" stroke-width="0.00114"></path>
<path d="M1.152 0.764 Q1.349 0.762 1.389 0.665" stroke="hsl(120.0,100%,35%)" stroke-width="0.00170"></path>
<path d="M1.152 0.764 Q1.479 0.579 1.191 0.379" stroke="hsl(120.0,100%,35%)" stroke-width="0.00057"></path>
<path d="M0.973 0.649 Q0.874 0.700 0.952 0.760" stroke="hsl(120.0,100%,35%)" stroke-width="0.00028"></path>
<path d="M0.973 0.649 Q1.475 0.467 1.230 0.182" stroke="hsl(120.0,100%,35%)" stroke-width="0.00028"></path>
<path d="M0.973 0.649 Q0.769 0.537 0.506 0.612" stroke="hsl(120.0,100%,35%)" stroke-width="0.00028"></path>
<path d="M0.973 0.649 Q1.688 0.445 1.447 0.052" stroke="hsl(120.0,100%,35%)" stroke-width="0.00028"></path>
<path d="M0.973 0.649 Q1.289 0.802 1.658 0.682" stroke="hsl(120.0,100%,35%)" stroke-width="0.00028"></path>
<path d="M0.973 0.649 Q1.318 0.727 1.547 0.577" stroke="hsl(120.0,100%,35%)" stroke-width="0.00028"></path>
<path d="M1.226 0.295 Q0.399 0.298 0.223 0.702" stroke="hsl(120.0,100%,35%)" stroke-width="0.00028"></path>
<path d="M1.226 0.295 Q1.177 0.257 1.093 0.273" stroke="hsl(120.0,100%,35%)" stroke-width="0.00057"></path>
<path d="M1.226 0.295 Q1.011 0.513 1.389 0.665" stroke="hsl(120.0,100%,35%)" stroke-width="0.00028"></path>
</g>
<text x="1.020" y="0.119" font-size="0.023087" fill="hsl(0.0,100%,20%)">aixba</text>
<text x="1.204" y="0.088" font-size="0.028750" fill="hsl(0.0,100%,20%)">asraine</text>
<text x="0.506" y="0.596" font-size="0.032053" fill="hsl(0.0,100%,20%)">andoli</text>
<text x="0.643" y="0.723" font-size="0.055029" fill="hsl(0.0,100%,20%)">jacktfranklin</text>
<text x="1.447" y="0.032" font-size="0.038311" fill="hsl(0.0,100%,20%)">paulirish</text>
<text x="1.692" y="0.064" font-size="0.038109" fill="hsl(0.0,100%,20%)">cjamcl</text>
<text x="1.389" y="0.638" font-size="0.053966" fill="hsl(120.0,100%,20%)">dsv</text>
<text x="1.380" y="0.486" font-size="0.007861" fill="hsl(120.0,100%,20%)">aksen5240</text>
<text x="1.658" y="0.669" font-size="0.025924" fill="hsl(120.0,100%,20%)">changhaohan</text>
<text x="1.230" y="0.162" font-size="0.040373" fill="hsl(120.0,100%,20%)">szuend</text>
<text x="1.191" y="0.346" font-size="0.066589" fill="hsl(120.0,100%,20%)">alexrudenko</text>
<text x="0.154" y="0.487" font-size="0.044034" fill="hsl(120.0,100%,20%)">kimanh</text>
<text x="1.281" y="0.699" font-size="0.019653" fill="hsl(120.0,100%,20%)">yangguo</text>
<text x="0.912" y="0.312" font-size="0.051400" fill="hsl(120.0,100%,20%)">ergunsh</text>
<text x="0.763" y="0.417" font-size="0.024860" fill="hsl(120.0,100%,20%)">samiyac</text>
<text x="1.093" y="0.256" font-size="0.033927" fill="hsl(120.0,100%,20%)">wolfi</text>
<text x="1.190" y="0.270" font-size="0.017797" fill="hsl(120.0,100%,20%)">mathias</text>
<text x="1.470" y="0.390" font-size="0.058499" fill="hsl(120.0,100%,20%)">bmeurer</text>
<text x="1.466" y="0.226" font-size="0.059025" fill="hsl(120.0,100%,20%)">nvitkov</text>
<text x="0.993" y="0.453" font-size="0.023254" fill="hsl(120.0,100%,20%)">liviurau</text>
<text x="1.547" y="0.555" font-size="0.044034" fill="hsl(120.0,100%,20%)">pfaffe</text>
<text x="1.331" y="0.463" font-size="0.021167" fill="hsl(120.0,100%,20%)">leese</text>
<text x="0.822" y="0.536" font-size="0.029414" fill="hsl(0.0,100%,20%)">alinavarkki</text>
<text x="0.952" y="0.746" font-size="0.028208" fill="hsl(0.0,100%,20%)">nancyly</text>
<text x="1.027" y="0.599" font-size="0.007861" fill="hsl(120.0,100%,20%)">apavlov</text>
<text x="0.223" y="0.684" font-size="0.036239" fill="hsl(120.0,100%,20%)">kprokopenko</text>
<text x="1.251" y="0.496" font-size="0.007861" fill="hsl(120.0,100%,20%)">cwu631</text>
<text x="0.472" y="0.390" font-size="0.010021" fill="hsl(120.0,100%,20%)">kenoss</text>
<text x="0.439" y="0.058" font-size="0.007861" fill="hsl(120.0,100%,20%)">elormcoch</text>
<text x="0.515" y="0.178" font-size="0.004814" fill="hsl(120.0,100%,20%)">petermueller</text>
<text x="0.519" y="0.468" font-size="0.011460" fill="hsl(0.0,100%,20%)">finnur</text>
<text x="0.365" y="0.282" font-size="0.006215" fill="hsl(0.0,100%,20%)">garimachadha</text>
<text x="0.075" y="0.297" font-size="0.007354" fill="hsl(0.0,100%,20%)">rob.paveza</text>
<text x="0.625" y="0.939" font-size="0.005559" fill="hsl(0.0,100%,20%)">hocheung</text>
<text x="1.474" y="0.123" font-size="0.005559" fill="hsl(120.0,100%,20%)">victorporof</text>
<text x="1.154" y="0.502" font-size="0.014707" fill="hsl(120.0,100%,20%)">jalonthomas</text>
<text x="1.190" y="0.889" font-size="0.015475" fill="hsl(120.0,100%,20%)">shuuran</text>
<text x="0.092" y="0.188" font-size="0.009628" fill="hsl(0.0,100%,20%)">jaysonchen</text>
<text x="1.111" y="0.609" font-size="0.005559" fill="hsl(120.0,100%,20%)">jdh</text>
<text x="0.578" y="0.298" font-size="0.002779" fill="hsl(120.0,100%,20%)">lingqi</text>
<text x="0.965" y="0.903" font-size="0.005559" fill="hsl(120.0,100%,20%)">domenic</text>
<text x="1.797" y="0.406" font-size="0.011118" fill="hsl(120.0,100%,20%)">marcelpuetz</text>
<text x="1.393" y="0.814" font-size="0.018436" fill="hsl(120.0,100%,20%)">masnoble</text>
<text x="1.709" y="0.254" font-size="0.004814" fill="hsl(240.0,100%,20%)">monicach</text>
<text x="1.941" y="0.138" font-size="0.002779" fill="hsl(240.0,100%,20%)">sisidovski</text>
<text x="1.773" y="0.282" font-size="0.002779" fill="hsl(240.0,100%,20%)">yyanagisawa</text>
<text x="1.537" y="0.445" font-size="0.004814" fill="hsl(120.0,100%,20%)">petermarshall</text>
<text x="0.740" y="0.576" font-size="0.004814" fill="hsl(0.0,100%,20%)">petrcermak</text>
<text x="0.451" y="0.449" font-size="0.007354" fill="hsl(120.0,100%,20%)">robertlin</text>
<text x="1.296" y="0.598" font-size="0.008789" fill="hsl(120.0,100%,20%)">semel</text>
<text x="1.080" y="0.954" font-size="0.005559" fill="hsl(120.0,100%,20%)">stevenwei</text>
<text x="1.152" y="0.759" font-size="0.009628" fill="hsl(120.0,100%,20%)">vkrot</text>
<text x="0.973" y="0.645" font-size="0.006808" fill="hsl(120.0,100%,20%)">yanlingwang</text>
<text x="1.226" y="0.292" font-size="0.005559" fill="hsl(120.0,100%,20%)">yaoxia</text>
</svg>
