<svg width="4000" height="2000" viewBox="-0.025 -0.025 2.05 1.05" xmlns="http://www.w3.org/2000/svg">
  <style>
    path {
      fill: none;
      stroke-linecap: round;
      stroke-opacity: 0.4;
    }

    text {
      text-anchor: middle;
      alignment-baseline: hanging;
    }
  </style>
  <g opacity="0.4">
<path d="M0.786 0.602 Q0.733 0.679 0.872 0.722" stroke="hsl(0.0,100%,35%)" stroke-width="0.00630"></path>
<path d="M0.786 0.602 Q0.740 0.455 0.443 0.445" stroke="hsl(0.0,100%,35%)" stroke-width="0.00945"></path>
<path d="M0.786 0.602 Q1.563 0.537 1.608 0.144" stroke="hsl(0.0,100%,35%)" stroke-width="0.01102"></path>
<path d="M0.786 0.602 Q0.968 0.603 1.011 0.515" stroke="hsl(0.0,100%,35%)" stroke-width="0.01575"></path>
<path d="M0.786 0.602 Q0.547 0.668 0.625 0.799" stroke="hsl(0.0,100%,35%)" stroke-width="0.00157"></path>
<path d="M0.786 0.602 Q1.398 0.520 1.373 0.204" stroke="hsl(0.0,100%,35%)" stroke-width="0.00315"></path>
<path d="M0.786 0.602 Q0.530 0.580 0.431 0.700" stroke="hsl(0.0,100%,35%)" stroke-width="0.00315"></path>
<path d="M0.786 0.602 Q1.383 0.796 1.893 0.547" stroke="hsl(0.0,100%,35%)" stroke-width="0.00315"></path>
<path d="M0.872 0.722 Q0.879 0.498 0.443 0.445" stroke="hsl(0.0,100%,35%)" stroke-width="0.00157"></path>
<path d="M0.872 0.722 Q0.518 0.619 0.239 0.770" stroke="hsl(0.0,100%,35%)" stroke-width="0.00157"></path>
<path d="M0.872 0.722 Q1.107 0.646 1.011 0.515" stroke="hsl(0.0,100%,35%)" stroke-width="0.00315"></path>
<path d="M0.872 0.722 Q1.336 0.590 1.180 0.334" stroke="hsl(0.0,100%,35%)" stroke-width="0.00157"></path>
<path d="M0.872 0.722 Q1.702 0.581 1.608 0.144" stroke="hsl(0.0,100%,35%)" stroke-width="0.00315"></path>
<path d="M0.872 0.722 Q0.925 0.645 0.786 0.602" stroke="hsl(0.0,100%,35%)" stroke-width="0.00787"></path>
<path d="M0.872 0.722 Q1.435 0.910 1.924 0.676" stroke="hsl(0.0,100%,35%)" stroke-width="0.00315"></path>
<path d="M0.443 0.445 Q1.087 0.786 1.893 0.547" stroke="hsl(0.0,100%,35%)" stroke-width="0.00157"></path>
<path d="M0.443 0.445 Q0.490 0.592 0.786 0.602" stroke="hsl(0.0,100%,35%)" stroke-width="0.00315"></path>
<path d="M0.443 0.445 Q0.999 0.857 1.924 0.676" stroke="hsl(0.0,100%,35%)" stroke-width="0.00787"></path>
<path d="M0.443 0.445 Q1.027 0.609 1.474 0.360" stroke="hsl(0.0,100%,35%)" stroke-width="0.00157"></path>
<path d="M1.608 0.144 Q1.340 0.473 1.924 0.676" stroke="hsl(0.0,100%,35%)" stroke-width="0.00315"></path>
<path d="M1.608 0.144 Q0.831 0.209 0.786 0.602" stroke="hsl(0.0,100%,35%)" stroke-width="0.01417"></path>
<path d="M1.608 0.144 Q0.785 0.062 0.443 0.445" stroke="hsl(0.0,100%,35%)" stroke-width="0.00787"></path>
<path d="M1.608 0.144 Q1.765 0.170 1.851 0.100" stroke="hsl(0.0,100%,35%)" stroke-width="0.00157"></path>
<path d="M1.608 0.144 Q1.013 0.210 1.011 0.515" stroke="hsl(0.0,100%,35%)" stroke-width="0.00945"></path>
<path d="M1.608 0.144 Q1.443 0.127 1.373 0.204" stroke="hsl(0.0,100%,35%)" stroke-width="0.02362"></path>
<path d="M1.608 0.144 Q1.428 0.403 1.893 0.547" stroke="hsl(0.0,100%,35%)" stroke-width="0.00315"></path>
<path d="M1.608 0.144 Q1.369 0.225 1.474 0.360" stroke="hsl(0.0,100%,35%)" stroke-width="0.00157"></path>
<path d="M1.608 0.144 Q1.242 0.154 1.180 0.334" stroke="hsl(0.0,100%,35%)" stroke-width="0.00157"></path>
<path d="M1.011 0.515 Q1.240 0.458 1.180 0.334" stroke="hsl(0.0,100%,35%)" stroke-width="0.00157"></path>
<path d="M1.011 0.515 Q1.606 0.449 1.608 0.144" stroke="hsl(0.0,100%,35%)" stroke-width="0.00472"></path>
<path d="M1.011 0.515 Q0.776 0.591 0.872 0.722" stroke="hsl(0.0,100%,35%)" stroke-width="0.00787"></path>
<path d="M1.011 0.515 Q0.829 0.513 0.786 0.602" stroke="hsl(0.0,100%,35%)" stroke-width="0.01575"></path>
<path d="M1.011 0.515 Q1.233 0.359 0.978 0.217" stroke="hsl(0.0,100%,35%)" stroke-width="0.00157"></path>
<path d="M1.011 0.515 Q1.426 0.707 1.893 0.547" stroke="hsl(0.0,100%,35%)" stroke-width="0.00157"></path>
<path d="M1.011 0.515 Q1.338 0.778 1.924 0.676" stroke="hsl(0.0,100%,35%)" stroke-width="0.00630"></path>
<path d="M1.011 0.515 Q0.590 0.580 0.625 0.799" stroke="hsl(0.0,100%,35%)" stroke-width="0.00157"></path>
<path d="M1.011 0.515 Q0.783 0.367 0.443 0.445" stroke="hsl(0.0,100%,35%)" stroke-width="0.00472"></path>
<path d="M1.011 0.515 Q1.441 0.432 1.373 0.204" stroke="hsl(0.0,100%,35%)" stroke-width="0.00157"></path>
<path d="M1.011 0.515 Q1.585 0.370 1.429 0.058" stroke="hsl(0.0,100%,35%)" stroke-width="0.00157"></path>
<path d="M1.011 0.515 Q0.402 0.627 0.486 0.948" stroke="hsl(0.0,100%,35%)" stroke-width="0.00157"></path>
<path d="M1.011 0.515 Q0.354 0.561 0.301 0.892" stroke="hsl(0.0,100%,35%)" stroke-width="0.00157"></path>
<path d="M1.373 0.204 Q1.538 0.221 1.608 0.144" stroke="hsl(0.0,100%,35%)" stroke-width="0.00787"></path>
<path d="M1.373 0.204 Q0.715 0.139 0.443 0.445" stroke="hsl(0.0,100%,35%)" stroke-width="0.00315"></path>
<path d="M1.373 0.204 Q0.761 0.285 0.786 0.602" stroke="hsl(0.0,100%,35%)" stroke-width="0.01732"></path>
<path d="M1.373 0.204 Q0.240 0.281 0.143 0.850" stroke="hsl(0.0,100%,35%)" stroke-width="0.00157"></path>
<path d="M1.373 0.204 Q0.522 0.352 0.625 0.799" stroke="hsl(0.0,100%,35%)" stroke-width="0.00157"></path>
<path d="M1.373 0.204 Q0.943 0.287 1.011 0.515" stroke="hsl(0.0,100%,35%)" stroke-width="0.00315"></path>
<path d="M1.373 0.204 Q1.270 0.550 1.924 0.676" stroke="hsl(0.0,100%,35%)" stroke-width="0.00315"></path>
<path d="M1.373 0.204 Q1.298 0.302 1.474 0.360" stroke="hsl(0.0,100%,35%)" stroke-width="0.00315"></path>
<path d="M1.373 0.204 Q1.517 0.142 1.429 0.058" stroke="hsl(0.0,100%,35%)" stroke-width="0.00157"></path>
<path d="M1.373 0.204 Q1.165 0.131 0.978 0.217" stroke="hsl(0.0,100%,35%)" stroke-width="0.00157"></path>
<path d="M0.431 0.700 Q0.212 0.770 0.301 0.892" stroke="hsl(180.0,100%,35%)" stroke-width="0.00315"></path>
<path d="M0.431 0.700 Q0.687 0.722 0.786 0.602" stroke="hsl(180.0,100%,35%)" stroke-width="0.00315"></path>
<path d="M0.431 0.700 Q0.279 0.696 0.239 0.770" stroke="hsl(180.0,100%,35%)" stroke-width="0.01732"></path>
<path d="M0.431 0.700 Q0.167 0.717 0.143 0.850" stroke="hsl(180.0,100%,35%)" stroke-width="0.00630"></path>
<path d="M0.431 0.700 Q0.537 0.849 0.852 0.830" stroke="hsl(180.0,100%,35%)" stroke-width="0.00630"></path>
<path d="M0.431 0.700 Q0.869 0.723 1.011 0.515" stroke="hsl(180.0,100%,35%)" stroke-width="0.00157"></path>
<path d="M0.431 0.700 Q0.448 0.789 0.625 0.799" stroke="hsl(180.0,100%,35%)" stroke-width="0.00157"></path>
<path d="M0.431 0.700 Q1.464 0.658 1.608 0.144" stroke="hsl(180.0,100%,35%)" stroke-width="0.00315"></path>
<path d="M0.431 0.700 Q0.641 0.575 0.443 0.445" stroke="hsl(180.0,100%,35%)" stroke-width="0.00157"></path>
<path d="M0.431 0.700 Q1.197 0.987 1.924 0.676" stroke="hsl(180.0,100%,35%)" stroke-width="0.00315"></path>
<path d="M0.431 0.700 Q1.084 0.898 1.615 0.623" stroke="hsl(180.0,100%,35%)" stroke-width="0.00157"></path>
<path d="M1.893 0.547 Q1.250 0.206 0.443 0.445" stroke="hsl(0.0,100%,35%)" stroke-width="0.00315"></path>
<path d="M1.893 0.547 Q1.478 0.355 1.011 0.515" stroke="hsl(0.0,100%,35%)" stroke-width="0.00630"></path>
<path d="M1.893 0.547 Q1.707 0.298 1.180 0.334" stroke="hsl(0.0,100%,35%)" stroke-width="0.00157"></path>
<path d="M1.893 0.547 Q1.914 0.472 1.770 0.445" stroke="hsl(0.0,100%,35%)" stroke-width="0.00787"></path>
<path d="M1.893 0.547 Q1.805 0.618 1.924 0.676" stroke="hsl(0.0,100%,35%)" stroke-width="0.00472"></path>
<path d="M1.893 0.547 Q1.908 0.271 1.373 0.204" stroke="hsl(0.0,100%,35%)" stroke-width="0.00315"></path>
<path d="M1.893 0.547 Q1.040 0.331 0.431 0.700" stroke="hsl(0.0,100%,35%)" stroke-width="0.00157"></path>
<path d="M1.893 0.547 Q1.296 0.353 0.786 0.602" stroke="hsl(0.0,100%,35%)" stroke-width="0.00472"></path>
<path d="M0.239 0.770 Q0.601 0.648 0.443 0.445" stroke="hsl(180.0,100%,35%)" stroke-width="0.00157"></path>
<path d="M0.239 0.770 Q0.391 0.773 0.431 0.700" stroke="hsl(180.0,100%,35%)" stroke-width="0.00787"></path>
<path d="M0.239 0.770 Q0.126 0.791 0.143 0.850" stroke="hsl(180.0,100%,35%)" stroke-width="0.00472"></path>
<path d="M1.924 0.676 Q2.012 0.606 1.893 0.547" stroke="hsl(0.0,100%,35%)" stroke-width="0.02204"></path>
<path d="M1.924 0.676 Q2.026 0.330 1.373 0.204" stroke="hsl(0.0,100%,35%)" stroke-width="0.00945"></path>
<path d="M1.924 0.676 Q1.597 0.413 1.011 0.515" stroke="hsl(0.0,100%,35%)" stroke-width="0.00472"></path>
<path d="M1.924 0.676 Q1.812 0.588 1.615 0.623" stroke="hsl(0.0,100%,35%)" stroke-width="0.00787"></path>
<path d="M1.924 0.676 Q1.176 0.478 0.625 0.799" stroke="hsl(0.0,100%,35%)" stroke-width="0.00157"></path>
<path d="M1.924 0.676 Q1.414 0.411 0.786 0.602" stroke="hsl(0.0,100%,35%)" stroke-width="0.00157"></path>
<path d="M1.924 0.676 Q1.825 0.357 1.180 0.334" stroke="hsl(0.0,100%,35%)" stroke-width="0.00315"></path>
<path d="M1.924 0.676 Q1.368 0.265 0.443 0.445" stroke="hsl(0.0,100%,35%)" stroke-width="0.00157"></path>
<path d="M1.924 0.676 Q1.158 0.390 0.431 0.700" stroke="hsl(0.0,100%,35%)" stroke-width="0.00157"></path>
<path d="M1.474 0.360 Q0.680 0.321 0.431 0.700" stroke="hsl(0.0,100%,35%)" stroke-width="0.00157"></path>
<path d="M1.474 0.360 Q1.348 0.288 1.180 0.334" stroke="hsl(0.0,100%,35%)" stroke-width="0.00315"></path>
<path d="M1.474 0.360 Q1.549 0.262 1.373 0.204" stroke="hsl(0.0,100%,35%)" stroke-width="0.00472"></path>
<path d="M1.615 0.623 Q1.171 0.300 0.443 0.445" stroke="hsl(0.0,100%,35%)" stroke-width="0.00157"></path>
<path d="M1.615 0.623 Q1.727 0.711 1.924 0.676" stroke="hsl(0.0,100%,35%)" stroke-width="0.00315"></path>
<path d="M1.615 0.623 Q1.835 0.565 1.770 0.445" stroke="hsl(0.0,100%,35%)" stroke-width="0.00157"></path>
<path d="M1.615 0.623 Q1.815 0.641 1.893 0.547" stroke="hsl(0.0,100%,35%)" stroke-width="0.00315"></path>
<path d="M0.486 0.948 Q0.438 0.883 0.301 0.892" stroke="hsl(180.0,100%,35%)" stroke-width="0.03149"></path>
<path d="M0.486 0.948 Q1.525 0.754 1.373 0.204" stroke="hsl(180.0,100%,35%)" stroke-width="0.00157"></path>
<path d="M0.486 0.948 Q0.657 0.813 0.431 0.700" stroke="hsl(180.0,100%,35%)" stroke-width="0.00157"></path>
<path d="M1.180 0.334 Q1.546 0.325 1.608 0.144" stroke="hsl(0.0,100%,35%)" stroke-width="0.00315"></path>
<path d="M1.180 0.334 Q1.366 0.583 1.893 0.547" stroke="hsl(0.0,100%,35%)" stroke-width="0.00315"></path>
<path d="M1.180 0.334 Q1.307 0.406 1.474 0.360" stroke="hsl(0.0,100%,35%)" stroke-width="0.00315"></path>
<path d="M1.180 0.334 Q0.951 0.391 1.011 0.515" stroke="hsl(0.0,100%,35%)" stroke-width="0.00157"></path>
<path d="M0.061 0.587 Q0.262 0.867 0.852 0.830" stroke="hsl(180.0,100%,35%)" stroke-width="0.00315"></path>
<path d="M0.061 0.587 Q0.155 0.717 0.431 0.700" stroke="hsl(180.0,100%,35%)" stroke-width="0.00630"></path>
<path d="M0.061 0.587 Q0.365 0.593 0.443 0.445" stroke="hsl(180.0,100%,35%)" stroke-width="0.00315"></path>
<path d="M0.061 0.587 Q1.023 0.658 1.373 0.204" stroke="hsl(180.0,100%,35%)" stroke-width="0.00157"></path>
<path d="M0.852 0.830 Q0.574 0.816 0.486 0.948" stroke="hsl(180.0,100%,35%)" stroke-width="0.01417"></path>
<path d="M0.852 0.830 Q0.745 0.681 0.431 0.700" stroke="hsl(180.0,100%,35%)" stroke-width="0.00157"></path>
<path d="M0.852 0.830 Q0.526 0.751 0.301 0.892" stroke="hsl(180.0,100%,35%)" stroke-width="0.00157"></path>
<path d="M1.111 0.726 Q1.213 0.684 1.155 0.625" stroke="hsl(0.0,100%,35%)" stroke-width="0.00157"></path>
<path d="M1.111 0.726 Q1.001 0.452 0.443 0.445" stroke="hsl(0.0,100%,35%)" stroke-width="0.00157"></path>
<path d="M1.111 0.726 Q0.994 0.676 0.872 0.722" stroke="hsl(0.0,100%,35%)" stroke-width="0.00157"></path>
<path d="M0.634 0.811 Q0.357 0.732 0.143 0.850" stroke="hsl(180.0,100%,35%)" stroke-width="0.00157"></path>
<path d="M0.634 0.811 Q0.639 0.803 0.625 0.799" stroke="hsl(180.0,100%,35%)" stroke-width="0.00157"></path>
<path d="M0.634 0.811 Q0.878 0.737 0.786 0.602" stroke="hsl(180.0,100%,35%)" stroke-width="0.00157"></path>
<path d="M1.417 0.462 Q1.387 0.582 1.615 0.623" stroke="hsl(0.0,100%,35%)" stroke-width="0.00315"></path>
<path d="M1.417 0.462 Q1.499 0.671 1.924 0.676" stroke="hsl(0.0,100%,35%)" stroke-width="0.00630"></path>
<path d="M1.417 0.462 Q0.990 0.406 0.786 0.602" stroke="hsl(0.0,100%,35%)" stroke-width="0.00315"></path>
</g>
<text x="0.786" y="0.567" font-size="0.069631" fill="hsl(0.0,100%,20%)">alexrudenko</text>
<text x="0.872" y="0.703" font-size="0.038139" fill="hsl(0.0,100%,20%)">wolfi</text>
<text x="0.443" y="0.422" font-size="0.046057" fill="hsl(0.0,100%,20%)">szuend</text>
<text x="1.608" y="0.113" font-size="0.061791" fill="hsl(0.0,100%,20%)">nvitkov</text>
<text x="1.011" y="0.484" font-size="0.061299" fill="hsl(0.0,100%,20%)">ergunsh</text>
<text x="0.625" y="0.790" font-size="0.019069" fill="hsl(180.0,100%,20%)">mathias</text>
<text x="1.373" y="0.174" font-size="0.059798" fill="hsl(0.0,100%,20%)">bmeurer</text>
<text x="0.431" y="0.673" font-size="0.053371" fill="hsl(180.0,100%,20%)">jacktfranklin</text>
<text x="1.893" y="0.521" font-size="0.052223" fill="hsl(0.0,100%,20%)">pfaffe</text>
<text x="0.239" y="0.752" font-size="0.035675" fill="hsl(180.0,100%,20%)">andoli</text>
<text x="0.143" y="0.839" font-size="0.023355" fill="hsl(180.0,100%,20%)">alinavarkki</text>
<text x="1.924" y="0.646" font-size="0.060302" fill="hsl(0.0,100%,20%)">dsv</text>
<text x="1.474" y="0.346" font-size="0.026968" fill="hsl(0.0,100%,20%)">kimanh</text>
<text x="1.429" y="0.052" font-size="0.011010" fill="hsl(0.0,100%,20%)">liviurau</text>
<text x="0.978" y="0.212" font-size="0.011010" fill="hsl(0.0,100%,20%)">samiyac</text>
<text x="1.615" y="0.609" font-size="0.029129" fill="hsl(0.0,100%,20%)">changhaohan</text>
<text x="1.770" y="0.435" font-size="0.019069" fill="hsl(0.0,100%,20%)">leese</text>
<text x="0.486" y="0.926" font-size="0.044039" fill="hsl(180.0,100%,20%)">cjamcl</text>
<text x="0.301" y="0.873" font-size="0.038139" fill="hsl(180.0,100%,20%)">paulirish</text>
<text x="1.180" y="0.319" font-size="0.030151" fill="hsl(0.0,100%,20%)">kprokopenko</text>
<text x="0.061" y="0.575" font-size="0.023355" fill="hsl(180.0,100%,20%)">finnur</text>
<text x="0.852" y="0.814" font-size="0.032098" fill="hsl(180.0,100%,20%)">nancyly</text>
<text x="1.111" y="0.719" font-size="0.013484" fill="hsl(0.0,100%,20%)">garimachadha</text>
<text x="1.155" y="0.621" font-size="0.007785" fill="hsl(0.0,100%,20%)">rob.paveza</text>
<text x="1.851" y="0.096" font-size="0.007785" fill="hsl(0.0,100%,20%)">victorporof</text>
<text x="0.634" y="0.804" font-size="0.013484" fill="hsl(180.0,100%,20%)">semel</text>
<text x="1.417" y="0.451" font-size="0.022019" fill="hsl(0.0,100%,20%)">vkrot</text>
</svg>
