<svg width="4000" height="2000" viewBox="-0.025 -0.025 2.05 1.05" xmlns="http://www.w3.org/2000/svg">
  <style>
    path {
      fill: none;
      stroke-linecap: round;
      stroke-opacity: 0.4;
    }

    text {
      text-anchor: middle;
      alignment-baseline: hanging;
    }
  </style>
  <g opacity="0.4">
<path d="M0.053 0.739 Q0.539 0.847 0.858 0.634" stroke="hsl(0.0,100%,35%)" stroke-width="0.00485"></path>
<path d="M0.053 0.739 Q0.214 0.776 0.321 0.705" stroke="hsl(0.0,100%,35%)" stroke-width="0.02427"></path>
<path d="M0.053 0.739 Q1.184 0.709 1.374 0.151" stroke="hsl(0.0,100%,35%)" stroke-width="0.01942"></path>
<path d="M0.053 0.739 Q1.053 0.802 1.396 0.329" stroke="hsl(0.0,100%,35%)" stroke-width="0.00324"></path>
<path d="M0.053 0.739 Q0.378 0.731 0.434 0.571" stroke="hsl(0.0,100%,35%)" stroke-width="0.00324"></path>
<path d="M0.053 0.739 Q0.507 0.609 0.352 0.359" stroke="hsl(0.0,100%,35%)" stroke-width="0.00162"></path>
<path d="M0.858 0.634 Q1.169 0.330 0.645 0.112" stroke="hsl(0.0,100%,35%)" stroke-width="0.00162"></path>
<path d="M0.858 0.634 Q0.532 0.562 0.321 0.705" stroke="hsl(0.0,100%,35%)" stroke-width="0.00647"></path>
<path d="M0.858 0.634 Q1.371 0.589 1.396 0.329" stroke="hsl(0.0,100%,35%)" stroke-width="0.00971"></path>
<path d="M0.858 0.634 Q1.290 0.427 0.981 0.171" stroke="hsl(0.0,100%,35%)" stroke-width="0.00324"></path>
<path d="M0.858 0.634 Q0.664 0.644 0.643 0.741" stroke="hsl(0.0,100%,35%)" stroke-width="0.00162"></path>
<path d="M0.858 0.634 Q0.747 0.776 1.000 0.861" stroke="hsl(0.0,100%,35%)" stroke-width="0.00485"></path>
<path d="M0.858 0.634 Q1.503 0.496 1.374 0.151" stroke="hsl(0.0,100%,35%)" stroke-width="0.00324"></path>
<path d="M0.858 0.634 Q0.371 0.525 0.053 0.739" stroke="hsl(0.0,100%,35%)" stroke-width="0.00809"></path>
<path d="M0.321 0.705 Q1.291 0.639 1.374 0.151" stroke="hsl(0.0,100%,35%)" stroke-width="0.02427"></path>
<path d="M0.321 0.705 Q1.160 0.732 1.396 0.329" stroke="hsl(0.0,100%,35%)" stroke-width="0.00647"></path>
<path d="M0.321 0.705 Q0.947 0.550 0.781 0.210" stroke="hsl(0.0,100%,35%)" stroke-width="0.00162"></path>
<path d="M0.321 0.705 Q0.160 0.668 0.053 0.739" stroke="hsl(0.0,100%,35%)" stroke-width="0.00485"></path>
<path d="M1.374 0.151 Q1.243 0.244 1.396 0.329" stroke="hsl(0.0,100%,35%)" stroke-width="0.00647"></path>
<path d="M1.374 0.151 Q0.730 0.289 0.858 0.634" stroke="hsl(0.0,100%,35%)" stroke-width="0.00162"></path>
<path d="M1.374 0.151 Q1.228 0.310 1.506 0.416" stroke="hsl(0.0,100%,35%)" stroke-width="0.00324"></path>
<path d="M1.374 0.151 Q0.404 0.217 0.321 0.705" stroke="hsl(0.0,100%,35%)" stroke-width="0.00485"></path>
<path d="M1.374 0.151 Q0.243 0.181 0.053 0.739" stroke="hsl(0.0,100%,35%)" stroke-width="0.00162"></path>
<path d="M1.396 0.329 Q1.528 0.235 1.374 0.151" stroke="hsl(0.0,100%,35%)" stroke-width="0.00485"></path>
<path d="M1.396 0.329 Q0.396 0.265 0.053 0.739" stroke="hsl(0.0,100%,35%)" stroke-width="0.00485"></path>
<path d="M1.396 0.329 Q1.381 0.394 1.506 0.416" stroke="hsl(0.0,100%,35%)" stroke-width="0.00485"></path>
<path d="M1.396 0.329 Q0.850 0.135 0.352 0.359" stroke="hsl(0.0,100%,35%)" stroke-width="0.00162"></path>
<path d="M1.396 0.329 Q1.172 0.458 1.374 0.595" stroke="hsl(0.0,100%,35%)" stroke-width="0.00162"></path>
<path d="M1.396 0.329 Q0.672 0.171 0.206 0.489" stroke="hsl(0.0,100%,35%)" stroke-width="0.00324"></path>
<path d="M1.396 0.329 Q1.383 0.605 1.919 0.672" stroke="hsl(0.0,100%,35%)" stroke-width="0.00162"></path>
<path d="M1.396 0.329 Q1.512 0.371 1.620 0.324" stroke="hsl(0.0,100%,35%)" stroke-width="0.00162"></path>
<path d="M1.396 0.329 Q1.315 0.167 0.981 0.171" stroke="hsl(0.0,100%,35%)" stroke-width="0.00324"></path>
<path d="M0.434 0.571 Q1.096 0.918 1.919 0.672" stroke="hsl(0.0,100%,35%)" stroke-width="0.00647"></path>
<path d="M0.434 0.571 Q0.109 0.579 0.053 0.739" stroke="hsl(0.0,100%,35%)" stroke-width="0.01294"></path>
<path d="M0.434 0.571 Q1.109 0.642 1.396 0.329" stroke="hsl(0.0,100%,35%)" stroke-width="0.00162"></path>
<path d="M0.434 0.571 Q0.563 0.448 0.352 0.359" stroke="hsl(0.0,100%,35%)" stroke-width="0.00162"></path>
<path d="M1.611 0.886 Q1.936 0.840 1.919 0.672" stroke="hsl(0.0,100%,35%)" stroke-width="0.01133"></path>
<path d="M1.611 0.886 Q1.691 0.263 0.493 0.087" stroke="hsl(0.0,100%,35%)" stroke-width="0.00485"></path>
<path d="M1.611 0.886 Q1.736 0.382 0.781 0.210" stroke="hsl(0.0,100%,35%)" stroke-width="0.00162"></path>
<path d="M1.919 0.672 Q1.568 0.575 1.303 0.725" stroke="hsl(0.0,100%,35%)" stroke-width="0.00162"></path>
<path d="M1.919 0.672 Q1.418 0.120 0.231 0.243" stroke="hsl(0.0,100%,35%)" stroke-width="0.00324"></path>
<path d="M1.919 0.672 Q1.932 0.396 1.396 0.329" stroke="hsl(0.0,100%,35%)" stroke-width="0.00809"></path>
<path d="M1.919 0.672 Q2.047 0.438 1.620 0.324" stroke="hsl(0.0,100%,35%)" stroke-width="0.00162"></path>
<path d="M1.919 0.672 Q1.594 0.717 1.611 0.886" stroke="hsl(0.0,100%,35%)" stroke-width="0.01780"></path>
<path d="M1.919 0.672 Q1.729 0.137 0.645 0.112" stroke="hsl(0.0,100%,35%)" stroke-width="0.00162"></path>
<path d="M1.919 0.672 Q1.386 0.202 0.352 0.359" stroke="hsl(0.0,100%,35%)" stroke-width="0.00162"></path>
<path d="M1.919 0.672 Q1.673 0.094 0.493 0.087" stroke="hsl(0.0,100%,35%)" stroke-width="0.01133"></path>
<path d="M1.919 0.672 Q2.063 0.302 1.374 0.151" stroke="hsl(0.0,100%,35%)" stroke-width="0.00162"></path>
<path d="M1.919 0.672 Q0.932 0.332 0.053 0.739" stroke="hsl(0.0,100%,35%)" stroke-width="0.00485"></path>
<path d="M0.781 0.210 Q0.912 0.231 0.981 0.171" stroke="hsl(0.0,100%,35%)" stroke-width="0.01294"></path>
<path d="M0.781 0.210 Q0.448 0.199 0.352 0.359" stroke="hsl(0.0,100%,35%)" stroke-width="0.00485"></path>
<path d="M0.781 0.210 Q0.981 0.669 1.919 0.672" stroke="hsl(0.0,100%,35%)" stroke-width="0.00162"></path>
<path d="M0.781 0.210 Q0.270 0.235 0.206 0.489" stroke="hsl(0.0,100%,35%)" stroke-width="0.00162"></path>
<path d="M0.781 0.210 Q-0.006 0.329 0.053 0.739" stroke="hsl(0.0,100%,35%)" stroke-width="0.00162"></path>
<path d="M0.781 0.210 Q0.155 0.366 0.321 0.705" stroke="hsl(0.0,100%,35%)" stroke-width="0.00162"></path>
<path d="M1.339 0.435 Q1.115 0.715 1.611 0.886" stroke="hsl(0.0,100%,35%)" stroke-width="0.00162"></path>
<path d="M1.339 0.435 Q1.453 0.393 1.396 0.329" stroke="hsl(0.0,100%,35%)" stroke-width="0.00324"></path>
<path d="M1.339 0.435 Q0.614 0.366 0.321 0.705" stroke="hsl(0.0,100%,35%)" stroke-width="0.00162"></path>
<path d="M0.206 0.489 Q0.716 0.465 0.781 0.210" stroke="hsl(0.0,100%,35%)" stroke-width="0.00162"></path>
<path d="M0.206 0.489 Q0.091 0.620 0.321 0.705" stroke="hsl(0.0,100%,35%)" stroke-width="0.00485"></path>
<path d="M0.206 0.489 Q-0.070 0.584 0.053 0.739" stroke="hsl(0.0,100%,35%)" stroke-width="0.01618"></path>
<path d="M0.206 0.489 Q0.929 0.647 1.396 0.329" stroke="hsl(0.0,100%,35%)" stroke-width="0.00809"></path>
<path d="M0.206 0.489 Q1.061 0.554 1.374 0.151" stroke="hsl(0.0,100%,35%)" stroke-width="0.00809"></path>
<path d="M0.206 0.489 Q0.848 0.485 0.981 0.171" stroke="hsl(0.0,100%,35%)" stroke-width="0.00162"></path>
<path d="M0.981 0.171 Q0.850 0.151 0.781 0.210" stroke="hsl(0.0,100%,35%)" stroke-width="0.01942"></path>
<path d="M0.981 0.171 Q0.339 0.175 0.206 0.489" stroke="hsl(0.0,100%,35%)" stroke-width="0.00647"></path>
<path d="M0.981 0.171 Q0.063 0.269 0.053 0.739" stroke="hsl(0.0,100%,35%)" stroke-width="0.00162"></path>
<path d="M0.981 0.171 Q0.668 0.238 0.730 0.406" stroke="hsl(0.0,100%,35%)" stroke-width="0.00162"></path>
<path d="M1.506 0.416 Q1.637 0.393 1.620 0.324" stroke="hsl(0.0,100%,35%)" stroke-width="0.00162"></path>
<path d="M1.506 0.416 Q1.297 0.479 1.374 0.595" stroke="hsl(0.0,100%,35%)" stroke-width="0.00162"></path>
<path d="M1.506 0.416 Q0.682 0.324 0.321 0.705" stroke="hsl(0.0,100%,35%)" stroke-width="0.00162"></path>
<path d="M1.506 0.416 Q0.521 0.287 0.053 0.739" stroke="hsl(0.0,100%,35%)" stroke-width="0.00162"></path>
<path d="M1.506 0.416 Q1.521 0.350 1.396 0.329" stroke="hsl(0.0,100%,35%)" stroke-width="0.00162"></path>
<path d="M1.632 0.066 Q1.304 0.150 1.396 0.329" stroke="hsl(0.0,100%,35%)" stroke-width="0.00485"></path>
<path d="M1.632 0.066 Q1.436 0.057 1.374 0.151" stroke="hsl(0.0,100%,35%)" stroke-width="0.00647"></path>
<path d="M1.632 0.066 Q0.304 0.087 0.053 0.739" stroke="hsl(0.0,100%,35%)" stroke-width="0.00162"></path>
<path d="M0.231 0.243 Q0.232 0.564 0.858 0.634" stroke="hsl(0.0,100%,35%)" stroke-width="0.00162"></path>
<path d="M0.231 0.243 Q0.070 0.447 0.434 0.571" stroke="hsl(0.0,100%,35%)" stroke-width="0.00647"></path>
<path d="M0.231 0.243 Q0.199 0.325 0.352 0.359" stroke="hsl(0.0,100%,35%)" stroke-width="0.02913"></path>
<path d="M0.231 0.243 Q-0.255 0.455 0.053 0.739" stroke="hsl(0.0,100%,35%)" stroke-width="0.00162"></path>
<path d="M0.645 0.112 Q0.589 0.069 0.493 0.087" stroke="hsl(0.0,100%,35%)" stroke-width="0.00809"></path>
<path d="M0.645 0.112 Q0.833 0.436 1.506 0.416" stroke="hsl(0.0,100%,35%)" stroke-width="0.00162"></path>
<path d="M0.645 0.112 Q0.301 0.177 0.352 0.359" stroke="hsl(0.0,100%,35%)" stroke-width="0.00162"></path>
<path d="M1.000 0.861 Q0.785 0.647 0.321 0.705" stroke="hsl(0.0,100%,35%)" stroke-width="0.02427"></path>
<path d="M1.000 0.861 Q1.755 0.581 1.374 0.151" stroke="hsl(0.0,100%,35%)" stroke-width="0.00324"></path>
<path d="M1.000 0.861 Q0.624 0.610 0.053 0.739" stroke="hsl(0.0,100%,35%)" stroke-width="0.00971"></path>
<path d="M1.000 0.861 Q1.421 0.416 0.645 0.112" stroke="hsl(0.0,100%,35%)" stroke-width="0.00162"></path>
<path d="M1.000 0.861 Q1.623 0.674 1.396 0.329" stroke="hsl(0.0,100%,35%)" stroke-width="0.00162"></path>
<path d="M0.643 0.741 Q0.836 0.731 0.858 0.634" stroke="hsl(0.0,100%,35%)" stroke-width="0.00485"></path>
<path d="M0.643 0.741 Q1.349 0.686 1.396 0.329" stroke="hsl(0.0,100%,35%)" stroke-width="0.00162"></path>
<path d="M0.643 0.741 Q0.803 0.492 0.352 0.359" stroke="hsl(0.0,100%,35%)" stroke-width="0.00324"></path>
<path d="M0.536 0.845 Q1.510 0.666 1.374 0.151" stroke="hsl(0.0,100%,35%)" stroke-width="0.00162"></path>
<path d="M0.536 0.845 Q0.540 0.732 0.321 0.705" stroke="hsl(0.0,100%,35%)" stroke-width="0.00324"></path>
<path d="M0.536 0.845 Q1.379 0.759 1.396 0.329" stroke="hsl(0.0,100%,35%)" stroke-width="0.00162"></path>
</g>
<text x="0.053" y="0.703" font-size="0.071507" fill="hsl(0.0,100%,20%)">alexrudenko</text>
<text x="0.858" y="0.611" font-size="0.045510" fill="hsl(0.0,100%,20%)">nvitkov</text>
<text x="0.321" y="0.672" font-size="0.066342" fill="hsl(0.0,100%,20%)">szuend</text>
<text x="1.374" y="0.121" font-size="0.060205" fill="hsl(0.0,100%,20%)">pfaffe</text>
<text x="1.396" y="0.299" font-size="0.058570" fill="hsl(0.0,100%,20%)">dsv</text>
<text x="0.434" y="0.553" font-size="0.035979" fill="hsl(0.0,100%,20%)">wolfi</text>
<text x="0.352" y="0.338" font-size="0.042571" fill="hsl(0.0,100%,20%)">ergunsh</text>
<text x="1.611" y="0.866" font-size="0.038583" fill="hsl(0.0,100%,20%)">alinavarkki</text>
<text x="1.919" y="0.644" font-size="0.054565" fill="hsl(0.0,100%,20%)">jacktfranklin</text>
<text x="0.493" y="0.072" font-size="0.031159" fill="hsl(0.0,100%,20%)">cjamcl</text>
<text x="0.781" y="0.188" font-size="0.044065" fill="hsl(0.0,100%,20%)">kimanh</text>
<text x="1.339" y="0.427" font-size="0.016090" fill="hsl(0.0,100%,20%)">alphonsea</text>
<text x="0.206" y="0.467" font-size="0.045510" fill="hsl(0.0,100%,20%)">bmeurer</text>
<text x="0.981" y="0.149" font-size="0.044794" fill="hsl(0.0,100%,20%)">kprokopenko</text>
<text x="1.506" y="0.403" font-size="0.026683" fill="hsl(0.0,100%,20%)">changhaohan</text>
<text x="1.620" y="0.317" font-size="0.013935" fill="hsl(0.0,100%,20%)">yangguo</text>
<text x="1.374" y="0.590" font-size="0.011378" fill="hsl(0.0,100%,20%)">leese</text>
<text x="1.632" y="0.055" font-size="0.022755" fill="hsl(0.0,100%,20%)">clarej</text>
<text x="1.303" y="0.721" font-size="0.008045" fill="hsl(0.0,100%,20%)">finnur</text>
<text x="0.231" y="0.222" font-size="0.041023" fill="hsl(0.0,100%,20%)">samiyac</text>
<text x="0.645" y="0.100" font-size="0.025441" fill="hsl(0.0,100%,20%)">paulirish</text>
<text x="0.730" y="0.402" font-size="0.008045" fill="hsl(0.0,100%,20%)">victorporof</text>
<text x="1.000" y="0.839" font-size="0.042571" fill="hsl(0.0,100%,20%)">liviurau</text>
<text x="0.643" y="0.730" font-size="0.021286" fill="hsl(0.0,100%,20%)">nharshunova</text>
<text x="0.536" y="0.837" font-size="0.016090" fill="hsl(0.0,100%,20%)">vzaidman</text>
</svg>
