<svg width="4000" height="2000" viewBox="-0.025 -0.025 2.05 1.05" xmlns="http://www.w3.org/2000/svg">
  <style>
    path {
      fill: none;
      stroke-linecap: round;
      stroke-opacity: 0.4;
    }

    text {
      text-anchor: middle;
      alignment-baseline: hanging;
    }
  </style>
  <g opacity="0.4">
<path d="M0.468 0.871 Q1.271 0.618 0.955 0.171" stroke="hsl(0.0,100%,35%)" stroke-width="0.00258"></path>
<path d="M0.468 0.871 Q0.474 0.768 0.275 0.743" stroke="hsl(0.0,100%,35%)" stroke-width="0.00488"></path>
<path d="M0.468 0.871 Q0.917 0.603 0.493 0.325" stroke="hsl(0.0,100%,35%)" stroke-width="0.00029"></path>
<path d="M0.468 0.871 Q1.513 0.804 1.612 0.280" stroke="hsl(0.0,100%,35%)" stroke-width="0.00344"></path>
<path d="M0.468 0.871 Q1.460 0.935 1.803 0.465" stroke="hsl(0.0,100%,35%)" stroke-width="0.00086"></path>
<path d="M0.468 0.871 Q1.008 0.775 0.939 0.491" stroke="hsl(0.0,100%,35%)" stroke-width="0.00029"></path>
<path d="M0.955 0.171 Q0.157 0.321 0.275 0.743" stroke="hsl(0.0,100%,35%)" stroke-width="0.00086"></path>
<path d="M0.955 0.171 Q0.601 0.156 0.493 0.325" stroke="hsl(0.0,100%,35%)" stroke-width="0.01263"></path>
<path d="M0.955 0.171 Q0.461 0.316 0.634 0.589" stroke="hsl(0.0,100%,35%)" stroke-width="0.00115"></path>
<path d="M0.955 0.171 Q0.717 0.109 0.543 0.211" stroke="hsl(0.0,100%,35%)" stroke-width="0.00603"></path>
<path d="M0.955 0.171 Q1.015 0.330 1.338 0.336" stroke="hsl(0.0,100%,35%)" stroke-width="0.00861"></path>
<path d="M0.955 0.171 Q0.691 0.328 0.939 0.491" stroke="hsl(0.0,100%,35%)" stroke-width="0.00143"></path>
<path d="M0.955 0.171 Q1.196 0.357 1.612 0.280" stroke="hsl(0.0,100%,35%)" stroke-width="0.00230"></path>
<path d="M0.955 0.171 Q1.144 0.487 1.803 0.465" stroke="hsl(0.0,100%,35%)" stroke-width="0.00201"></path>
<path d="M0.955 0.171 Q0.914 0.083 0.734 0.084" stroke="hsl(0.0,100%,35%)" stroke-width="0.00861"></path>
<path d="M0.955 0.171 Q1.056 0.236 1.205 0.201" stroke="hsl(0.0,100%,35%)" stroke-width="0.00689"></path>
<path d="M0.955 0.171 Q0.887 0.298 1.120 0.359" stroke="hsl(0.0,100%,35%)" stroke-width="0.00201"></path>
<path d="M0.955 0.171 Q1.075 0.601 1.941 0.637" stroke="hsl(0.0,100%,35%)" stroke-width="0.00430"></path>
<path d="M0.955 0.171 Q0.151 0.423 0.468 0.871" stroke="hsl(0.0,100%,35%)" stroke-width="0.00115"></path>
<path d="M0.955 0.171 Q0.443 0.593 1.154 0.935" stroke="hsl(0.0,100%,35%)" stroke-width="0.00029"></path>
<path d="M0.955 0.171 Q0.687 0.637 1.538 0.870" stroke="hsl(0.0,100%,35%)" stroke-width="0.00057"></path>
<path d="M0.955 0.171 Q0.901 0.380 1.297 0.452" stroke="hsl(0.0,100%,35%)" stroke-width="0.00057"></path>
<path d="M0.955 0.171 Q0.547 0.198 0.510 0.403" stroke="hsl(0.0,100%,35%)" stroke-width="0.00029"></path>
<path d="M0.955 0.171 Q0.410 0.471 0.877 0.803" stroke="hsl(0.0,100%,35%)" stroke-width="0.00057"></path>
<path d="M0.955 0.171 Q0.622 0.466 1.124 0.693" stroke="hsl(0.0,100%,35%)" stroke-width="0.00057"></path>
<path d="M0.955 0.171 Q0.588 0.560 1.267 0.825" stroke="hsl(0.0,100%,35%)" stroke-width="0.00029"></path>
<path d="M0.955 0.171 Q0.785 0.041 0.494 0.096" stroke="hsl(0.0,100%,35%)" stroke-width="0.00086"></path>
<path d="M0.955 0.171 Q0.803 0.576 1.560 0.739" stroke="hsl(0.0,100%,35%)" stroke-width="0.00029"></path>
<path d="M0.275 0.743 Q1.262 0.909 1.803 0.465" stroke="hsl(0.0,100%,35%)" stroke-width="0.01090"></path>
<path d="M0.275 0.743 Q1.073 0.593 0.955 0.171" stroke="hsl(0.0,100%,35%)" stroke-width="0.00143"></path>
<path d="M0.275 0.743 Q1.314 0.779 1.612 0.280" stroke="hsl(0.0,100%,35%)" stroke-width="0.00402"></path>
<path d="M0.275 0.743 Q1.005 0.720 1.120 0.359" stroke="hsl(0.0,100%,35%)" stroke-width="0.00057"></path>
<path d="M0.275 0.743 Q0.269 0.845 0.468 0.871" stroke="hsl(0.0,100%,35%)" stroke-width="0.00258"></path>
<path d="M0.275 0.743 Q0.835 0.531 0.543 0.211" stroke="hsl(0.0,100%,35%)" stroke-width="0.00029"></path>
<path d="M0.275 0.743 Q0.719 0.577 0.493 0.325" stroke="hsl(0.0,100%,35%)" stroke-width="0.00029"></path>
<path d="M0.493 0.325 Q0.847 0.340 0.955 0.171" stroke="hsl(0.0,100%,35%)" stroke-width="0.00947"></path>
<path d="M0.493 0.325 Q0.610 0.278 0.543 0.211" stroke="hsl(0.0,100%,35%)" stroke-width="0.00316"></path>
<path d="M0.493 0.325 Q0.807 0.252 0.734 0.084" stroke="hsl(0.0,100%,35%)" stroke-width="0.00316"></path>
<path d="M0.493 0.325 Q0.439 0.367 0.510 0.403" stroke="hsl(0.0,100%,35%)" stroke-width="0.00029"></path>
<path d="M0.493 0.325 Q0.050 0.490 0.275 0.743" stroke="hsl(0.0,100%,35%)" stroke-width="0.00029"></path>
<path d="M0.493 0.325 Q0.775 0.828 1.820 0.802" stroke="hsl(0.0,100%,35%)" stroke-width="0.00057"></path>
<path d="M0.493 0.325 Q0.907 0.499 1.338 0.336" stroke="hsl(0.0,100%,35%)" stroke-width="0.00029"></path>
<path d="M0.493 0.325 Q0.967 0.770 1.941 0.637" stroke="hsl(0.0,100%,35%)" stroke-width="0.00029"></path>
<path d="M0.493 0.325 Q1.088 0.526 1.612 0.280" stroke="hsl(0.0,100%,35%)" stroke-width="0.00143"></path>
<path d="M0.493 0.325 Q0.353 0.485 0.634 0.589" stroke="hsl(0.0,100%,35%)" stroke-width="0.00029"></path>
<path d="M0.493 0.325 Q0.779 0.467 1.120 0.359" stroke="hsl(0.0,100%,35%)" stroke-width="0.00057"></path>
<path d="M1.612 0.280 Q1.559 0.410 1.803 0.465" stroke="hsl(0.0,100%,35%)" stroke-width="0.00459"></path>
<path d="M1.612 0.280 Q1.303 0.221 1.120 0.359" stroke="hsl(0.0,100%,35%)" stroke-width="0.00057"></path>
<path d="M1.612 0.280 Q1.472 0.159 1.205 0.201" stroke="hsl(0.0,100%,35%)" stroke-width="0.00057"></path>
<path d="M1.612 0.280 Q1.371 0.094 0.955 0.171" stroke="hsl(0.0,100%,35%)" stroke-width="0.00516"></path>
<path d="M1.612 0.280 Q1.107 0.251 0.939 0.491" stroke="hsl(0.0,100%,35%)" stroke-width="0.00029"></path>
<path d="M1.612 0.280 Q0.567 0.347 0.468 0.871" stroke="hsl(0.0,100%,35%)" stroke-width="0.00230"></path>
<path d="M1.612 0.280 Q1.017 0.079 0.493 0.325" stroke="hsl(0.0,100%,35%)" stroke-width="0.00086"></path>
<path d="M1.612 0.280 Q0.826 0.394 0.877 0.803" stroke="hsl(0.0,100%,35%)" stroke-width="0.00057"></path>
<path d="M1.612 0.280 Q1.299 0.582 1.820 0.802" stroke="hsl(0.0,100%,35%)" stroke-width="0.00029"></path>
<path d="M1.612 0.280 Q1.490 0.524 1.941 0.637" stroke="hsl(0.0,100%,35%)" stroke-width="0.00029"></path>
<path d="M1.803 0.465 Q0.810 0.401 0.468 0.871" stroke="hsl(0.0,100%,35%)" stroke-width="0.00172"></path>
<path d="M1.803 0.465 Q1.855 0.334 1.612 0.280" stroke="hsl(0.0,100%,35%)" stroke-width="0.02353"></path>
<path d="M1.803 0.465 Q0.816 0.298 0.275 0.743" stroke="hsl(0.0,100%,35%)" stroke-width="0.00545"></path>
<path d="M1.803 0.465 Q1.614 0.148 0.955 0.171" stroke="hsl(0.0,100%,35%)" stroke-width="0.00258"></path>
<path d="M1.803 0.465 Q1.101 0.570 1.154 0.935" stroke="hsl(0.0,100%,35%)" stroke-width="0.00029"></path>
<path d="M1.803 0.465 Q1.542 0.637 1.820 0.802" stroke="hsl(0.0,100%,35%)" stroke-width="0.00086"></path>
<path d="M1.803 0.465 Q1.260 0.133 0.493 0.325" stroke="hsl(0.0,100%,35%)" stroke-width="0.00029"></path>
<path d="M1.803 0.465 Q1.734 0.578 1.941 0.637" stroke="hsl(0.0,100%,35%)" stroke-width="0.00029"></path>
<path d="M0.939 0.491 Q0.709 0.479 0.634 0.589" stroke="hsl(120.0,100%,35%)" stroke-width="0.01693"></path>
<path d="M0.939 0.491 Q1.135 0.461 1.120 0.359" stroke="hsl(120.0,100%,35%)" stroke-width="0.00316"></path>
<path d="M0.939 0.491 Q1.150 0.543 1.297 0.452" stroke="hsl(120.0,100%,35%)" stroke-width="0.00172"></path>
<path d="M0.939 0.491 Q1.263 0.493 1.338 0.336" stroke="hsl(120.0,100%,35%)" stroke-width="0.00287"></path>
<path d="M0.939 0.491 Q1.203 0.334 0.955 0.171" stroke="hsl(120.0,100%,35%)" stroke-width="0.00201"></path>
<path d="M0.939 0.491 Q1.131 0.822 1.820 0.802" stroke="hsl(120.0,100%,35%)" stroke-width="0.01750"></path>
<path d="M0.939 0.491 Q1.323 0.764 1.941 0.637" stroke="hsl(120.0,100%,35%)" stroke-width="0.00258"></path>
<path d="M0.939 0.491 Q0.836 0.724 1.267 0.825" stroke="hsl(120.0,100%,35%)" stroke-width="0.00287"></path>
<path d="M0.939 0.491 Q0.893 0.378 0.663 0.376" stroke="hsl(120.0,100%,35%)" stroke-width="0.00029"></path>
<path d="M0.939 0.491 Q0.965 0.272 0.543 0.211" stroke="hsl(120.0,100%,35%)" stroke-width="0.00029"></path>
<path d="M0.939 0.491 Q0.658 0.634 0.877 0.803" stroke="hsl(120.0,100%,35%)" stroke-width="0.00029"></path>
<path d="M0.939 0.491 Q0.870 0.629 1.124 0.693" stroke="hsl(120.0,100%,35%)" stroke-width="0.00316"></path>
<path d="M0.939 0.491 Q0.691 0.756 1.154 0.935" stroke="hsl(120.0,100%,35%)" stroke-width="0.00086"></path>
<path d="M0.939 0.491 Q1.304 0.399 1.205 0.201" stroke="hsl(120.0,100%,35%)" stroke-width="0.00086"></path>
<path d="M0.939 0.491 Q0.935 0.800 1.538 0.870" stroke="hsl(120.0,100%,35%)" stroke-width="0.00029"></path>
<path d="M1.206 0.620 Q1.107 0.640 1.124 0.693" stroke="hsl(120.0,100%,35%)" stroke-width="0.00057"></path>
<path d="M1.206 0.620 Q1.372 0.472 1.120 0.359" stroke="hsl(120.0,100%,35%)" stroke-width="0.00086"></path>
<path d="M1.206 0.620 Q1.500 0.504 1.338 0.336" stroke="hsl(120.0,100%,35%)" stroke-width="0.00029"></path>
<path d="M1.206 0.620 Q1.073 0.735 1.267 0.825" stroke="hsl(120.0,100%,35%)" stroke-width="0.00029"></path>
<path d="M1.206 0.620 Q0.895 0.646 0.877 0.803" stroke="hsl(120.0,100%,35%)" stroke-width="0.00029"></path>
<path d="M1.124 0.693 Q1.385 0.886 1.820 0.802" stroke="hsl(120.0,100%,35%)" stroke-width="0.00143"></path>
<path d="M1.124 0.693 Q1.090 0.788 1.267 0.825" stroke="hsl(120.0,100%,35%)" stroke-width="0.00057"></path>
<path d="M1.124 0.693 Q0.962 0.543 0.634 0.589" stroke="hsl(120.0,100%,35%)" stroke-width="0.00172"></path>
<path d="M1.124 0.693 Q1.048 0.425 0.510 0.403" stroke="hsl(120.0,100%,35%)" stroke-width="0.00086"></path>
<path d="M1.124 0.693 Q1.416 0.310 0.734 0.084" stroke="hsl(120.0,100%,35%)" stroke-width="0.00029"></path>
<path d="M1.124 0.693 Q1.389 0.525 1.120 0.359" stroke="hsl(120.0,100%,35%)" stroke-width="0.00143"></path>
<path d="M1.124 0.693 Q1.193 0.555 0.939 0.491" stroke="hsl(120.0,100%,35%)" stroke-width="0.00057"></path>
<path d="M1.120 0.359 Q1.248 0.391 1.338 0.336" stroke="hsl(120.0,100%,35%)" stroke-width="0.00316"></path>
<path d="M1.120 0.359 Q0.924 0.389 0.939 0.491" stroke="hsl(120.0,100%,35%)" stroke-width="0.00287"></path>
<path d="M1.120 0.359 Q1.116 0.720 1.820 0.802" stroke="hsl(120.0,100%,35%)" stroke-width="0.00172"></path>
<path d="M1.120 0.359 Q0.821 0.621 1.267 0.825" stroke="hsl(120.0,100%,35%)" stroke-width="0.00430"></path>
<path d="M1.120 0.359 Q0.694 0.377 0.634 0.589" stroke="hsl(120.0,100%,35%)" stroke-width="0.00287"></path>
<path d="M1.120 0.359 Q1.289 0.297 1.205 0.201" stroke="hsl(120.0,100%,35%)" stroke-width="0.00086"></path>
<path d="M1.120 0.359 Q1.308 0.662 1.941 0.637" stroke="hsl(120.0,100%,35%)" stroke-width="0.00057"></path>
<path d="M1.120 0.359 Q0.643 0.532 0.877 0.803" stroke="hsl(120.0,100%,35%)" stroke-width="0.00029"></path>
<path d="M1.338 0.336 Q1.015 0.333 0.939 0.491" stroke="hsl(120.0,100%,35%)" stroke-width="0.00373"></path>
<path d="M1.338 0.336 Q1.225 0.385 1.297 0.452" stroke="hsl(120.0,100%,35%)" stroke-width="0.00373"></path>
<path d="M1.338 0.336 Q1.211 0.304 1.120 0.359" stroke="hsl(120.0,100%,35%)" stroke-width="0.00689"></path>
<path d="M1.338 0.336 Q1.379 0.242 1.205 0.201" stroke="hsl(120.0,100%,35%)" stroke-width="0.01377"></path>
<path d="M1.338 0.336 Q0.734 0.477 0.877 0.803" stroke="hsl(120.0,100%,35%)" stroke-width="0.00057"></path>
<path d="M1.338 0.336 Q1.193 0.244 0.983 0.295" stroke="hsl(120.0,100%,35%)" stroke-width="0.00115"></path>
<path d="M1.338 0.336 Q1.011 0.643 1.538 0.870" stroke="hsl(120.0,100%,35%)" stroke-width="0.00086"></path>
<path d="M1.338 0.336 Q1.207 0.665 1.820 0.802" stroke="hsl(120.0,100%,35%)" stroke-width="0.00430"></path>
<path d="M1.338 0.336 Q1.398 0.607 1.941 0.637" stroke="hsl(120.0,100%,35%)" stroke-width="0.01377"></path>
<path d="M1.338 0.336 Q1.278 0.177 0.955 0.171" stroke="hsl(120.0,100%,35%)" stroke-width="0.00201"></path>
<path d="M1.338 0.336 Q1.051 0.233 0.789 0.351" stroke="hsl(120.0,100%,35%)" stroke-width="0.00057"></path>
<path d="M1.338 0.336 Q0.784 0.321 0.634 0.589" stroke="hsl(120.0,100%,35%)" stroke-width="0.00201"></path>
<path d="M1.338 0.336 Q0.911 0.566 1.267 0.825" stroke="hsl(120.0,100%,35%)" stroke-width="0.00086"></path>
<path d="M1.338 0.336 Q0.870 0.204 0.510 0.403" stroke="hsl(120.0,100%,35%)" stroke-width="0.00029"></path>
<path d="M1.267 0.825 Q1.371 0.592 0.939 0.491" stroke="hsl(120.0,100%,35%)" stroke-width="0.00115"></path>
<path d="M1.267 0.825 Q1.122 0.858 1.154 0.935" stroke="hsl(120.0,100%,35%)" stroke-width="0.02095"></path>
<path d="M1.267 0.825 Q1.397 0.373 0.543 0.211" stroke="hsl(120.0,100%,35%)" stroke-width="0.00057"></path>
<path d="M1.267 0.825 Q1.563 0.924 1.820 0.802" stroke="hsl(120.0,100%,35%)" stroke-width="0.00516"></path>
<path d="M1.267 0.825 Q1.567 0.563 1.120 0.359" stroke="hsl(120.0,100%,35%)" stroke-width="0.00143"></path>
<path d="M1.267 0.825 Q1.090 0.736 0.877 0.803" stroke="hsl(120.0,100%,35%)" stroke-width="0.00029"></path>
<path d="M1.267 0.825 Q1.694 0.595 1.338 0.336" stroke="hsl(120.0,100%,35%)" stroke-width="0.00143"></path>
<path d="M1.267 0.825 Q1.581 0.644 1.297 0.452" stroke="hsl(120.0,100%,35%)" stroke-width="0.00057"></path>
<path d="M1.267 0.825 Q1.735 0.501 1.205 0.201" stroke="hsl(120.0,100%,35%)" stroke-width="0.00057"></path>
<path d="M1.267 0.825 Q0.837 0.586 0.275 0.743" stroke="hsl(120.0,100%,35%)" stroke-width="0.00029"></path>
<path d="M1.267 0.825 Q1.754 0.866 1.941 0.637" stroke="hsl(120.0,100%,35%)" stroke-width="0.00029"></path>
<path d="M1.267 0.825 Q1.226 0.463 0.510 0.403" stroke="hsl(120.0,100%,35%)" stroke-width="0.00057"></path>
<path d="M1.267 0.825 Q1.634 0.436 0.955 0.171" stroke="hsl(120.0,100%,35%)" stroke-width="0.00029"></path>
<path d="M0.877 0.803 Q1.184 0.440 0.543 0.211" stroke="hsl(120.0,100%,35%)" stroke-width="0.00029"></path>
<path d="M0.877 0.803 Q1.422 0.503 0.955 0.171" stroke="hsl(120.0,100%,35%)" stroke-width="0.00057"></path>
<path d="M0.877 0.803 Q1.523 0.568 1.205 0.201" stroke="hsl(120.0,100%,35%)" stroke-width="0.00057"></path>
<path d="M0.877 0.803 Q1.054 0.892 1.267 0.825" stroke="hsl(120.0,100%,35%)" stroke-width="0.00143"></path>
<path d="M0.877 0.803 Q1.350 0.991 1.820 0.802" stroke="hsl(120.0,100%,35%)" stroke-width="0.00086"></path>
<path d="M0.877 0.803 Q1.158 0.659 0.939 0.491" stroke="hsl(120.0,100%,35%)" stroke-width="0.00115"></path>
<path d="M0.877 0.803 Q1.089 0.797 1.124 0.693" stroke="hsl(120.0,100%,35%)" stroke-width="0.00057"></path>
<path d="M0.877 0.803 Q0.927 0.647 0.634 0.589" stroke="hsl(120.0,100%,35%)" stroke-width="0.00086"></path>
<path d="M0.877 0.803 Q0.909 0.925 1.154 0.935" stroke="hsl(120.0,100%,35%)" stroke-width="0.00029"></path>
<path d="M0.877 0.803 Q1.482 0.662 1.338 0.336" stroke="hsl(120.0,100%,35%)" stroke-width="0.00086"></path>
<path d="M0.877 0.803 Q1.154 0.969 1.538 0.870" stroke="hsl(120.0,100%,35%)" stroke-width="0.00029"></path>
<path d="M0.877 0.803 Q1.195 0.560 0.789 0.351" stroke="hsl(120.0,100%,35%)" stroke-width="0.00029"></path>
<path d="M1.297 0.452 Q1.451 0.308 1.205 0.201" stroke="hsl(120.0,100%,35%)" stroke-width="0.00689"></path>
<path d="M1.297 0.452 Q1.410 0.402 1.338 0.336" stroke="hsl(120.0,100%,35%)" stroke-width="0.01205"></path>
<path d="M1.297 0.452 Q1.279 0.731 1.820 0.802" stroke="hsl(120.0,100%,35%)" stroke-width="0.00115"></path>
<path d="M1.297 0.452 Q1.265 0.310 0.983 0.295" stroke="hsl(120.0,100%,35%)" stroke-width="0.00086"></path>
<path d="M1.297 0.452 Q0.983 0.632 1.267 0.825" stroke="hsl(120.0,100%,35%)" stroke-width="0.00029"></path>
<path d="M1.297 0.452 Q1.017 0.537 1.124 0.693" stroke="hsl(120.0,100%,35%)" stroke-width="0.00029"></path>
<path d="M1.297 0.452 Q1.470 0.673 1.941 0.637" stroke="hsl(120.0,100%,35%)" stroke-width="0.00344"></path>
<path d="M1.297 0.452 Q1.283 0.370 1.120 0.359" stroke="hsl(120.0,100%,35%)" stroke-width="0.00057"></path>
<path d="M1.297 0.452 Q1.113 0.181 0.543 0.211" stroke="hsl(120.0,100%,35%)" stroke-width="0.00029"></path>
<path d="M1.297 0.452 Q1.087 0.400 0.939 0.491" stroke="hsl(120.0,100%,35%)" stroke-width="0.00115"></path>
<path d="M1.297 0.452 Q0.997 0.227 0.493 0.325" stroke="hsl(120.0,100%,35%)" stroke-width="0.00029"></path>
<path d="M1.297 0.452 Q0.838 0.665 1.154 0.935" stroke="hsl(120.0,100%,35%)" stroke-width="0.00029"></path>
<path d="M1.205 0.201 Q1.164 0.295 1.338 0.336" stroke="hsl(120.0,100%,35%)" stroke-width="0.01808"></path>
<path d="M1.205 0.201 Q0.771 0.431 1.124 0.693" stroke="hsl(120.0,100%,35%)" stroke-width="0.00143"></path>
<path d="M1.205 0.201 Q0.610 0.281 0.634 0.589" stroke="hsl(120.0,100%,35%)" stroke-width="0.00201"></path>
<path d="M1.205 0.201 Q1.037 0.263 1.120 0.359" stroke="hsl(120.0,100%,35%)" stroke-width="0.00201"></path>
<path d="M1.205 0.201 Q1.033 0.624 1.820 0.802" stroke="hsl(120.0,100%,35%)" stroke-width="0.00172"></path>
<path d="M1.205 0.201 Q0.592 0.558 1.154 0.935" stroke="hsl(120.0,100%,35%)" stroke-width="0.00057"></path>
<path d="M1.205 0.201 Q1.019 0.203 0.983 0.295" stroke="hsl(120.0,100%,35%)" stroke-width="0.00143"></path>
<path d="M1.205 0.201 Q1.224 0.566 1.941 0.637" stroke="hsl(120.0,100%,35%)" stroke-width="0.00545"></path>
<path d="M1.205 0.201 Q0.841 0.293 0.939 0.491" stroke="hsl(120.0,100%,35%)" stroke-width="0.00201"></path>
<path d="M1.205 0.201 Q0.737 0.525 1.267 0.825" stroke="hsl(120.0,100%,35%)" stroke-width="0.00143"></path>
<path d="M1.205 0.201 Q0.837 0.602 1.538 0.870" stroke="hsl(120.0,100%,35%)" stroke-width="0.00057"></path>
<path d="M1.205 0.201 Q1.051 0.345 1.297 0.452" stroke="hsl(120.0,100%,35%)" stroke-width="0.00459"></path>
<path d="M1.205 0.201 Q0.750 0.120 0.493 0.325" stroke="hsl(120.0,100%,35%)" stroke-width="0.00029"></path>
<path d="M1.205 0.201 Q1.104 0.136 0.955 0.171" stroke="hsl(120.0,100%,35%)" stroke-width="0.00057"></path>
<path d="M1.205 0.201 Q1.346 0.322 1.612 0.280" stroke="hsl(120.0,100%,35%)" stroke-width="0.00057"></path>
<path d="M1.205 0.201 Q0.877 0.193 0.789 0.351" stroke="hsl(120.0,100%,35%)" stroke-width="0.00086"></path>
<path d="M1.205 0.201 Q1.293 0.452 1.803 0.465" stroke="hsl(120.0,100%,35%)" stroke-width="0.00029"></path>
<path d="M0.983 0.295 Q1.169 0.292 1.205 0.201" stroke="hsl(120.0,100%,35%)" stroke-width="0.00803"></path>
<path d="M0.983 0.295 Q0.373 0.219 0.092 0.500" stroke="hsl(120.0,100%,35%)" stroke-width="0.00029"></path>
<path d="M0.983 0.295 Q1.128 0.386 1.338 0.336" stroke="hsl(120.0,100%,35%)" stroke-width="0.00574"></path>
<path d="M0.983 0.295 Q0.996 0.716 1.820 0.802" stroke="hsl(120.0,100%,35%)" stroke-width="0.00029"></path>
<path d="M0.983 0.295 Q0.701 0.617 1.267 0.825" stroke="hsl(120.0,100%,35%)" stroke-width="0.00143"></path>
<path d="M1.538 0.870 Q1.261 0.704 0.877 0.803" stroke="hsl(120.0,100%,35%)" stroke-width="0.00029"></path>
<path d="M1.538 0.870 Q1.542 0.561 0.939 0.491" stroke="hsl(120.0,100%,35%)" stroke-width="0.00029"></path>
<path d="M1.538 0.870 Q1.734 0.892 1.820 0.802" stroke="hsl(120.0,100%,35%)" stroke-width="0.00029"></path>
<path d="M1.538 0.870 Q1.866 0.563 1.338 0.336" stroke="hsl(120.0,100%,35%)" stroke-width="0.00086"></path>
<path d="M1.538 0.870 Q1.926 0.834 1.941 0.637" stroke="hsl(120.0,100%,35%)" stroke-width="0.00316"></path>
<path d="M1.538 0.870 Q1.452 0.388 0.493 0.325" stroke="hsl(120.0,100%,35%)" stroke-width="0.00029"></path>
<path d="M1.820 0.802 Q1.628 0.470 0.939 0.491" stroke="hsl(120.0,100%,35%)" stroke-width="0.00660"></path>
<path d="M1.820 0.802 Q1.839 0.522 1.297 0.452" stroke="hsl(120.0,100%,35%)" stroke-width="0.00057"></path>
<path d="M1.820 0.802 Q1.824 0.440 1.120 0.359" stroke="hsl(120.0,100%,35%)" stroke-width="0.00316"></path>
<path d="M1.820 0.802 Q1.538 0.298 0.493 0.325" stroke="hsl(120.0,100%,35%)" stroke-width="0.00057"></path>
<path d="M1.820 0.802 Q1.559 0.608 1.124 0.693" stroke="hsl(120.0,100%,35%)" stroke-width="0.00516"></path>
<path d="M1.820 0.802 Q1.807 0.381 0.983 0.295" stroke="hsl(120.0,100%,35%)" stroke-width="0.00115"></path>
<path d="M1.820 0.802 Q1.852 0.225 0.734 0.084" stroke="hsl(120.0,100%,35%)" stroke-width="0.00057"></path>
<path d="M1.820 0.802 Q2.012 0.743 1.941 0.637" stroke="hsl(120.0,100%,35%)" stroke-width="0.00832"></path>
<path d="M1.820 0.802 Q1.380 0.735 1.154 0.935" stroke="hsl(120.0,100%,35%)" stroke-width="0.00115"></path>
<path d="M1.820 0.802 Q1.952 0.472 1.338 0.336" stroke="hsl(120.0,100%,35%)" stroke-width="0.02066"></path>
<path d="M1.820 0.802 Q1.398 0.458 0.634 0.589" stroke="hsl(120.0,100%,35%)" stroke-width="0.00115"></path>
<path d="M1.820 0.802 Q1.525 0.703 1.267 0.825" stroke="hsl(120.0,100%,35%)" stroke-width="0.00258"></path>
<path d="M1.820 0.802 Q1.993 0.378 1.205 0.201" stroke="hsl(120.0,100%,35%)" stroke-width="0.00172"></path>
<path d="M1.820 0.802 Q1.347 0.614 0.877 0.803" stroke="hsl(120.0,100%,35%)" stroke-width="0.00143"></path>
<path d="M1.820 0.802 Q1.625 0.779 1.538 0.870" stroke="hsl(120.0,100%,35%)" stroke-width="0.00086"></path>
<path d="M1.820 0.802 Q1.665 0.370 0.789 0.351" stroke="hsl(120.0,100%,35%)" stroke-width="0.00029"></path>
<path d="M1.941 0.637 Q1.753 0.334 1.120 0.359" stroke="hsl(120.0,100%,35%)" stroke-width="0.00689"></path>
<path d="M1.941 0.637 Q1.922 0.272 1.205 0.201" stroke="hsl(120.0,100%,35%)" stroke-width="0.00803"></path>
<path d="M1.941 0.637 Q1.557 0.364 0.939 0.491" stroke="hsl(120.0,100%,35%)" stroke-width="0.00660"></path>
<path d="M1.941 0.637 Q1.749 0.695 1.820 0.802" stroke="hsl(120.0,100%,35%)" stroke-width="0.02611"></path>
<path d="M1.941 0.637 Q1.553 0.673 1.538 0.870" stroke="hsl(120.0,100%,35%)" stroke-width="0.00143"></path>
<path d="M1.941 0.637 Q1.881 0.366 1.338 0.336" stroke="hsl(120.0,100%,35%)" stroke-width="0.01578"></path>
<path d="M1.941 0.637 Q1.326 0.352 0.634 0.589" stroke="hsl(120.0,100%,35%)" stroke-width="0.00430"></path>
<path d="M1.941 0.637 Q1.821 0.207 0.955 0.171" stroke="hsl(120.0,100%,35%)" stroke-width="0.00230"></path>
<path d="M1.941 0.637 Q1.780 0.119 0.734 0.084" stroke="hsl(120.0,100%,35%)" stroke-width="0.00258"></path>
<path d="M1.941 0.637 Q1.594 0.264 0.789 0.351" stroke="hsl(120.0,100%,35%)" stroke-width="0.00230"></path>
<path d="M1.941 0.637 Q1.583 0.145 0.543 0.211" stroke="hsl(120.0,100%,35%)" stroke-width="0.00029"></path>
<path d="M1.941 0.637 Q1.453 0.596 1.267 0.825" stroke="hsl(120.0,100%,35%)" stroke-width="0.00115"></path>
<path d="M1.941 0.637 Q2.062 0.393 1.612 0.280" stroke="hsl(120.0,100%,35%)" stroke-width="0.00057"></path>
<path d="M1.941 0.637 Q1.736 0.274 0.983 0.295" stroke="hsl(120.0,100%,35%)" stroke-width="0.00057"></path>
<path d="M1.941 0.637 Q1.467 0.191 0.493 0.325" stroke="hsl(120.0,100%,35%)" stroke-width="0.00029"></path>
<path d="M1.941 0.637 Q1.669 0.612 1.560 0.739" stroke="hsl(120.0,100%,35%)" stroke-width="0.00086"></path>
<path d="M1.941 0.637 Q1.308 0.629 1.154 0.935" stroke="hsl(120.0,100%,35%)" stroke-width="0.00086"></path>
<path d="M1.941 0.637 Q1.767 0.416 1.297 0.452" stroke="hsl(120.0,100%,35%)" stroke-width="0.00029"></path>
<path d="M1.941 0.637 Q1.412 0.234 0.510 0.403" stroke="hsl(120.0,100%,35%)" stroke-width="0.00029"></path>
<path d="M0.789 0.351 Q0.608 0.321 0.510 0.403" stroke="hsl(120.0,100%,35%)" stroke-width="0.00086"></path>
<path d="M0.789 0.351 Q0.522 0.439 0.634 0.589" stroke="hsl(120.0,100%,35%)" stroke-width="0.00459"></path>
<path d="M0.789 0.351 Q0.752 0.451 0.939 0.491" stroke="hsl(120.0,100%,35%)" stroke-width="0.00086"></path>
<path d="M0.789 0.351 Q0.948 0.421 1.120 0.359" stroke="hsl(120.0,100%,35%)" stroke-width="0.00287"></path>
<path d="M0.789 0.351 Q1.076 0.453 1.338 0.336" stroke="hsl(120.0,100%,35%)" stroke-width="0.00287"></path>
<path d="M0.789 0.351 Q1.136 0.724 1.941 0.637" stroke="hsl(120.0,100%,35%)" stroke-width="0.00057"></path>
<path d="M0.789 0.351 Q0.662 0.279 0.493 0.325" stroke="hsl(120.0,100%,35%)" stroke-width="0.00029"></path>
<path d="M0.789 0.351 Q1.258 0.480 1.612 0.280" stroke="hsl(120.0,100%,35%)" stroke-width="0.00029"></path>
<path d="M0.634 0.589 Q1.189 0.603 1.338 0.336" stroke="hsl(120.0,100%,35%)" stroke-width="0.00115"></path>
<path d="M0.634 0.589 Q1.230 0.509 1.205 0.201" stroke="hsl(120.0,100%,35%)" stroke-width="0.00545"></path>
<path d="M0.634 0.589 Q0.861 0.910 1.538 0.870" stroke="hsl(120.0,100%,35%)" stroke-width="0.00029"></path>
<path d="M0.634 0.589 Q1.249 0.874 1.941 0.637" stroke="hsl(120.0,100%,35%)" stroke-width="0.00086"></path>
<path d="M0.634 0.589 Q0.720 0.471 0.510 0.403" stroke="hsl(120.0,100%,35%)" stroke-width="0.00775"></path>
<path d="M0.634 0.589 Q0.796 0.739 1.124 0.693" stroke="hsl(120.0,100%,35%)" stroke-width="0.00258"></path>
<path d="M0.634 0.589 Q0.865 0.601 0.939 0.491" stroke="hsl(120.0,100%,35%)" stroke-width="0.00402"></path>
<path d="M0.634 0.589 Q0.761 0.833 1.267 0.825" stroke="hsl(120.0,100%,35%)" stroke-width="0.00143"></path>
<path d="M0.634 0.589 Q1.061 0.571 1.120 0.359" stroke="hsl(120.0,100%,35%)" stroke-width="0.00287"></path>
<path d="M0.634 0.589 Q1.129 0.444 0.955 0.171" stroke="hsl(120.0,100%,35%)" stroke-width="0.00057"></path>
<path d="M0.634 0.589 Q1.088 0.356 0.734 0.084" stroke="hsl(120.0,100%,35%)" stroke-width="0.00029"></path>
<path d="M0.634 0.589 Q0.616 0.866 1.154 0.935" stroke="hsl(120.0,100%,35%)" stroke-width="0.00057"></path>
<path d="M0.634 0.589 Q1.057 0.932 1.820 0.802" stroke="hsl(120.0,100%,35%)" stroke-width="0.00086"></path>
<path d="M0.510 0.403 Q0.978 0.535 1.338 0.336" stroke="hsl(120.0,100%,35%)" stroke-width="0.00029"></path>
<path d="M0.510 0.403 Q0.681 0.314 0.543 0.211" stroke="hsl(120.0,100%,35%)" stroke-width="0.00029"></path>
<path d="M0.510 0.403 Q0.846 0.865 1.820 0.802" stroke="hsl(120.0,100%,35%)" stroke-width="0.00086"></path>
<path d="M0.510 0.403 Q0.424 0.521 0.634 0.589" stroke="hsl(120.0,100%,35%)" stroke-width="0.00172"></path>
<path d="M0.510 0.403 Q0.585 0.671 1.124 0.693" stroke="hsl(120.0,100%,35%)" stroke-width="0.00057"></path>
<path d="M0.510 0.403 Q1.038 0.806 1.941 0.637" stroke="hsl(120.0,100%,35%)" stroke-width="0.00029"></path>
<path d="M0.510 0.403 Q0.691 0.433 0.789 0.351" stroke="hsl(120.0,100%,35%)" stroke-width="0.00057"></path>
<path d="M0.510 0.403 Q0.851 0.503 1.120 0.359" stroke="hsl(120.0,100%,35%)" stroke-width="0.00029"></path>
<path d="M0.734 0.084 Q0.775 0.171 0.955 0.171" stroke="hsl(0.0,100%,35%)" stroke-width="0.01176"></path>
<path d="M0.734 0.084 Q0.421 0.156 0.493 0.325" stroke="hsl(0.0,100%,35%)" stroke-width="0.00086"></path>
<path d="M0.734 0.084 Q0.537 0.109 0.543 0.211" stroke="hsl(0.0,100%,35%)" stroke-width="0.00115"></path>
<path d="M0.734 0.084 Q0.895 0.602 1.941 0.637" stroke="hsl(0.0,100%,35%)" stroke-width="0.00057"></path>
<path d="M0.734 0.084 Q0.707 0.299 1.120 0.359" stroke="hsl(0.0,100%,35%)" stroke-width="0.00057"></path>
<path d="M0.734 0.084 Q0.835 0.330 1.338 0.336" stroke="hsl(0.0,100%,35%)" stroke-width="0.00057"></path>
<path d="M0.734 0.084 Q0.721 0.380 1.297 0.452" stroke="hsl(0.0,100%,35%)" stroke-width="0.00029"></path>
<path d="M0.543 0.211 Q0.781 0.273 0.955 0.171" stroke="hsl(0.0,100%,35%)" stroke-width="0.00775"></path>
<path d="M0.543 0.211 Q0.427 0.258 0.493 0.325" stroke="hsl(0.0,100%,35%)" stroke-width="0.00287"></path>
<path d="M0.543 0.211 Q0.414 0.663 1.267 0.825" stroke="hsl(0.0,100%,35%)" stroke-width="0.00115"></path>
<path d="M0.543 0.211 Q0.741 0.185 0.734 0.084" stroke="hsl(0.0,100%,35%)" stroke-width="0.00057"></path>
<path d="M0.543 0.211 Q1.022 0.459 1.612 0.280" stroke="hsl(0.0,100%,35%)" stroke-width="0.00057"></path>
<path d="M0.543 0.211 Q0.269 0.695 1.154 0.935" stroke="hsl(0.0,100%,35%)" stroke-width="0.00057"></path>
<path d="M0.543 0.211 Q0.514 0.739 1.538 0.870" stroke="hsl(0.0,100%,35%)" stroke-width="0.00029"></path>
<path d="M0.543 0.211 Q-0.016 0.423 0.275 0.743" stroke="hsl(0.0,100%,35%)" stroke-width="0.00029"></path>
<path d="M0.543 0.211 Q0.970 0.590 1.803 0.465" stroke="hsl(0.0,100%,35%)" stroke-width="0.00258"></path>
<path d="M1.510 0.483 Q1.542 0.375 1.338 0.336" stroke="hsl(120.0,100%,35%)" stroke-width="0.00115"></path>
<path d="M1.510 0.483 Q1.218 0.373 0.939 0.491" stroke="hsl(120.0,100%,35%)" stroke-width="0.00057"></path>
<path d="M1.510 0.483 Q1.414 0.343 1.120 0.359" stroke="hsl(120.0,100%,35%)" stroke-width="0.00057"></path>
<path d="M1.154 0.935 Q1.299 0.903 1.267 0.825" stroke="hsl(120.0,100%,35%)" stroke-width="0.01406"></path>
<path d="M1.154 0.935 Q0.971 0.505 0.092 0.500" stroke="hsl(120.0,100%,35%)" stroke-width="0.00029"></path>
<path d="M1.154 0.935 Q1.594 1.002 1.820 0.802" stroke="hsl(120.0,100%,35%)" stroke-width="0.00516"></path>
<path d="M1.154 0.935 Q1.598 0.641 1.120 0.359" stroke="hsl(120.0,100%,35%)" stroke-width="0.00057"></path>
<path d="M1.154 0.935 Q1.767 0.579 1.205 0.201" stroke="hsl(120.0,100%,35%)" stroke-width="0.00143"></path>
<path d="M1.154 0.935 Q1.428 0.451 0.543 0.211" stroke="hsl(120.0,100%,35%)" stroke-width="0.00029"></path>
<path d="M1.154 0.935 Q1.786 0.944 1.941 0.637" stroke="hsl(120.0,100%,35%)" stroke-width="0.00057"></path>
<path d="M1.154 0.935 Q1.171 0.658 0.634 0.589" stroke="hsl(120.0,100%,35%)" stroke-width="0.00057"></path>
<path d="M0.887 0.636 Q1.030 0.574 0.939 0.491" stroke="hsl(120.0,100%,35%)" stroke-width="0.00057"></path>
<path d="M0.887 0.636 Q1.226 0.544 1.120 0.359" stroke="hsl(120.0,100%,35%)" stroke-width="0.00086"></path>
<path d="M0.887 0.636 Q0.749 0.718 0.877 0.803" stroke="hsl(120.0,100%,35%)" stroke-width="0.00029"></path>
<path d="M0.887 0.636 Q0.799 0.562 0.634 0.589" stroke="hsl(120.0,100%,35%)" stroke-width="0.00057"></path>
<path d="M0.663 0.376 Q0.709 0.488 0.939 0.491" stroke="hsl(120.0,100%,35%)" stroke-width="0.00201"></path>
<path d="M0.663 0.376 Q0.512 0.337 0.405 0.402" stroke="hsl(120.0,100%,35%)" stroke-width="0.00029"></path>
<path d="M0.663 0.376 Q0.905 0.459 1.120 0.359" stroke="hsl(120.0,100%,35%)" stroke-width="0.00029"></path>
<path d="M0.663 0.376 Q0.087 0.421 0.049 0.712" stroke="hsl(120.0,100%,35%)" stroke-width="0.00029"></path>
<path d="M0.050 0.388 Q0.736 0.620 1.338 0.336" stroke="hsl(120.0,100%,35%)" stroke-width="0.00029"></path>
<path d="M0.050 0.388 Q0.623 0.669 1.297 0.452" stroke="hsl(120.0,100%,35%)" stroke-width="0.00029"></path>
<path d="M0.050 0.388 Q0.182 0.605 0.634 0.589" stroke="hsl(120.0,100%,35%)" stroke-width="0.00029"></path>
<path d="M0.050 0.388 Q0.609 0.588 1.120 0.359" stroke="hsl(120.0,100%,35%)" stroke-width="0.00086"></path>
<path d="M0.050 0.388 Q-0.018 0.453 0.092 0.500" stroke="hsl(120.0,100%,35%)" stroke-width="0.00057"></path>
<path d="M0.494 0.096 Q0.427 0.163 0.543 0.211" stroke="hsl(0.0,100%,35%)" stroke-width="0.00057"></path>
<path d="M0.494 0.096 Q0.664 0.226 0.955 0.171" stroke="hsl(0.0,100%,35%)" stroke-width="0.00115"></path>
<path d="M0.494 0.096 Q0.597 0.353 1.120 0.359" stroke="hsl(0.0,100%,35%)" stroke-width="0.00057"></path>
<path d="M0.494 0.096 Q0.593 0.714 1.820 0.802" stroke="hsl(0.0,100%,35%)" stroke-width="0.00029"></path>
<path d="M0.494 0.096 Q0.311 0.210 0.493 0.325" stroke="hsl(0.0,100%,35%)" stroke-width="0.00029"></path>
<path d="M0.908 0.273 Q0.335 0.589 0.826 0.938" stroke="hsl(120.0,100%,35%)" stroke-width="0.00029"></path>
<path d="M0.908 0.273 Q0.945 0.358 1.120 0.359" stroke="hsl(120.0,100%,35%)" stroke-width="0.00029"></path>
<path d="M0.908 0.273 Q0.960 0.440 1.297 0.452" stroke="hsl(120.0,100%,35%)" stroke-width="0.00029"></path>
<path d="M0.371 0.245 Q-0.075 0.475 0.275 0.743" stroke="hsl(0.0,100%,35%)" stroke-width="0.00029"></path>
<path d="M0.371 0.245 Q0.722 0.325 0.955 0.171" stroke="hsl(0.0,100%,35%)" stroke-width="0.00057"></path>
<path d="M0.371 0.245 Q0.655 0.452 1.120 0.359" stroke="hsl(0.0,100%,35%)" stroke-width="0.00029"></path>
<path d="M0.951 0.677 Q1.094 0.581 0.939 0.491" stroke="hsl(120.0,100%,35%)" stroke-width="0.00316"></path>
<path d="M0.951 0.677 Q1.120 0.362 0.543 0.211" stroke="hsl(120.0,100%,35%)" stroke-width="0.00029"></path>
<path d="M0.951 0.677 Q1.317 0.337 0.734 0.084" stroke="hsl(120.0,100%,35%)" stroke-width="0.00029"></path>
<path d="M0.951 0.677 Q0.990 0.814 1.267 0.825" stroke="hsl(120.0,100%,35%)" stroke-width="0.00057"></path>
<path d="M0.951 0.677 Q0.716 0.516 0.352 0.596" stroke="hsl(120.0,100%,35%)" stroke-width="0.00258"></path>
<path d="M0.951 0.677 Q0.554 0.677 0.468 0.871" stroke="hsl(120.0,100%,35%)" stroke-width="0.00029"></path>
<path d="M0.951 0.677 Q1.599 0.610 1.612 0.280" stroke="hsl(120.0,100%,35%)" stroke-width="0.00086"></path>
<path d="M0.352 0.596 Q0.730 0.661 0.939 0.491" stroke="hsl(120.0,100%,35%)" stroke-width="0.00057"></path>
<path d="M0.352 0.596 Q0.940 0.713 1.297 0.452" stroke="hsl(120.0,100%,35%)" stroke-width="0.00029"></path>
<path d="M0.352 0.596 Q0.499 0.649 0.634 0.589" stroke="hsl(120.0,100%,35%)" stroke-width="0.00029"></path>
<path d="M0.651 0.955 Q1.430 0.624 0.955 0.171" stroke="hsl(0.0,100%,35%)" stroke-width="0.00057"></path>
<path d="M0.651 0.955 Q0.752 0.981 0.826 0.938" stroke="hsl(0.0,100%,35%)" stroke-width="0.00143"></path>
<path d="M0.651 0.955 Q1.671 0.809 1.612 0.280" stroke="hsl(0.0,100%,35%)" stroke-width="0.00086"></path>
<path d="M0.651 0.955 Q1.362 0.751 1.120 0.359" stroke="hsl(0.0,100%,35%)" stroke-width="0.00029"></path>
<path d="M0.651 0.955 Q1.358 1.112 1.820 0.802" stroke="hsl(0.0,100%,35%)" stroke-width="0.00029"></path>
<path d="M1.398 0.942 Q1.439 0.453 0.493 0.325" stroke="hsl(120.0,100%,35%)" stroke-width="0.00029"></path>
<path d="M1.398 0.942 Q1.526 0.934 1.538 0.870" stroke="hsl(120.0,100%,35%)" stroke-width="0.00029"></path>
<path d="M1.398 0.942 Q1.529 0.625 0.939 0.491" stroke="hsl(120.0,100%,35%)" stroke-width="0.00029"></path>
<path d="M1.398 0.942 Q1.740 0.677 1.297 0.452" stroke="hsl(120.0,100%,35%)" stroke-width="0.00029"></path>
<path d="M1.174 0.553 Q1.299 0.806 1.820 0.802" stroke="hsl(120.0,100%,35%)" stroke-width="0.00115"></path>
<path d="M1.174 0.553 Q1.133 0.256 0.543 0.211" stroke="hsl(120.0,100%,35%)" stroke-width="0.00029"></path>
<path d="M1.174 0.553 Q1.003 0.708 1.267 0.825" stroke="hsl(120.0,100%,35%)" stroke-width="0.00086"></path>
<path d="M1.174 0.553 Q0.876 0.463 0.634 0.589" stroke="hsl(120.0,100%,35%)" stroke-width="0.00115"></path>
<path d="M1.174 0.553 Q1.107 0.475 0.939 0.491" stroke="hsl(120.0,100%,35%)" stroke-width="0.00057"></path>
<path d="M1.174 0.553 Q1.471 0.383 1.205 0.201" stroke="hsl(120.0,100%,35%)" stroke-width="0.00029"></path>
<path d="M1.174 0.553 Q0.858 0.740 1.154 0.935" stroke="hsl(120.0,100%,35%)" stroke-width="0.00029"></path>
<path d="M0.335 0.491 Q0.637 0.612 0.939 0.491" stroke="hsl(120.0,100%,35%)" stroke-width="0.00516"></path>
<path d="M0.335 0.491 Q0.259 0.547 0.352 0.596" stroke="hsl(120.0,100%,35%)" stroke-width="0.00516"></path>
<path d="M0.335 0.491 Q0.663 0.392 0.543 0.211" stroke="hsl(120.0,100%,35%)" stroke-width="0.00057"></path>
<path d="M0.335 0.491 Q1.142 0.641 1.612 0.280" stroke="hsl(120.0,100%,35%)" stroke-width="0.00029"></path>
<path d="M0.335 0.491 Q0.534 0.844 1.267 0.825" stroke="hsl(120.0,100%,35%)" stroke-width="0.00115"></path>
<path d="M0.335 0.491 Q0.833 0.582 1.120 0.359" stroke="hsl(120.0,100%,35%)" stroke-width="0.00029"></path>
<path d="M1.568 0.109 Q1.141 0.506 1.820 0.802" stroke="hsl(240.0,100%,35%)" stroke-width="0.00029"></path>
<path d="M1.568 0.109 Q1.689 0.131 1.759 0.077" stroke="hsl(240.0,100%,35%)" stroke-width="0.00029"></path>
<path d="M1.568 0.109 Q1.479 0.026 1.297 0.051" stroke="hsl(240.0,100%,35%)" stroke-width="0.00029"></path>
<path d="M1.656 0.957 Q1.862 0.912 1.820 0.802" stroke="hsl(120.0,100%,35%)" stroke-width="0.00029"></path>
<path d="M1.656 0.957 Q1.666 0.890 1.538 0.870" stroke="hsl(120.0,100%,35%)" stroke-width="0.00029"></path>
<path d="M1.656 0.957 Q1.866 0.551 1.120 0.359" stroke="hsl(120.0,100%,35%)" stroke-width="0.00029"></path>
<path d="M1.633 0.565 Q1.609 0.233 0.955 0.171" stroke="hsl(0.0,100%,35%)" stroke-width="0.00029"></path>
<path d="M1.633 0.565 Q1.729 0.663 1.941 0.637" stroke="hsl(0.0,100%,35%)" stroke-width="0.00029"></path>
<path d="M1.633 0.565 Q1.851 0.418 1.612 0.280" stroke="hsl(0.0,100%,35%)" stroke-width="0.00029"></path>
<path d="M0.725 0.407 Q0.143 0.424 0.049 0.712" stroke="hsl(120.0,100%,35%)" stroke-width="0.00029"></path>
<path d="M0.725 0.407 Q0.765 0.492 0.939 0.491" stroke="hsl(120.0,100%,35%)" stroke-width="0.00115"></path>
<path d="M0.725 0.407 Q0.719 0.379 0.663 0.376" stroke="hsl(120.0,100%,35%)" stroke-width="0.00057"></path>
<path d="M0.853 0.532 Q0.396 0.522 0.275 0.743" stroke="hsl(120.0,100%,35%)" stroke-width="0.00029"></path>
<path d="M0.853 0.532 Q1.122 0.860 1.820 0.802" stroke="hsl(120.0,100%,35%)" stroke-width="0.00029"></path>
<path d="M0.853 0.532 Q0.930 0.529 0.939 0.491" stroke="hsl(120.0,100%,35%)" stroke-width="0.00115"></path>
<path d="M0.853 0.532 Q1.153 0.284 0.734 0.084" stroke="hsl(120.0,100%,35%)" stroke-width="0.00029"></path>
<path d="M0.853 0.532 Q0.926 0.838 1.538 0.870" stroke="hsl(120.0,100%,35%)" stroke-width="0.00029"></path>
<path d="M0.853 0.532 Q1.253 0.531 1.338 0.336" stroke="hsl(120.0,100%,35%)" stroke-width="0.00029"></path>
<path d="M0.462 0.709 Q0.254 0.628 0.049 0.712" stroke="hsl(120.0,100%,35%)" stroke-width="0.00057"></path>
<path d="M0.462 0.709 Q0.876 0.695 0.939 0.491" stroke="hsl(120.0,100%,35%)" stroke-width="0.00029"></path>
<path d="M0.462 0.709 Q0.872 1.005 1.538 0.870" stroke="hsl(120.0,100%,35%)" stroke-width="0.00029"></path>
<path d="M1.005 0.579 Q0.973 0.660 1.124 0.693" stroke="hsl(120.0,100%,35%)" stroke-width="0.00115"></path>
<path d="M1.005 0.579 Q1.042 0.522 0.939 0.491" stroke="hsl(120.0,100%,35%)" stroke-width="0.00172"></path>
<path d="M1.005 0.579 Q1.366 0.524 1.338 0.336" stroke="hsl(120.0,100%,35%)" stroke-width="0.00057"></path>
<path d="M0.659 0.699 Q0.992 0.432 0.543 0.211" stroke="hsl(120.0,100%,35%)" stroke-width="0.00029"></path>
<path d="M0.659 0.699 Q1.162 0.621 1.120 0.359" stroke="hsl(120.0,100%,35%)" stroke-width="0.00029"></path>
<path d="M0.659 0.699 Q0.876 0.479 0.493 0.325" stroke="hsl(120.0,100%,35%)" stroke-width="0.00029"></path>
<path d="M0.659 0.699 Q1.471 0.680 1.612 0.280" stroke="hsl(120.0,100%,35%)" stroke-width="0.00029"></path>
<path d="M0.659 0.699 Q0.897 0.789 1.124 0.693" stroke="hsl(120.0,100%,35%)" stroke-width="0.00029"></path>
<path d="M0.659 0.699 Q0.735 0.639 0.634 0.589" stroke="hsl(120.0,100%,35%)" stroke-width="0.00029"></path>
<path d="M1.421 0.494 Q0.934 0.661 1.154 0.935" stroke="hsl(120.0,100%,35%)" stroke-width="0.00029"></path>
<path d="M1.421 0.494 Q1.393 0.448 1.297 0.452" stroke="hsl(120.0,100%,35%)" stroke-width="0.00057"></path>
<path d="M1.421 0.494 Q1.183 0.396 0.939 0.491" stroke="hsl(120.0,100%,35%)" stroke-width="0.00029"></path>
</g>
<text x="0.468" y="0.859" font-size="0.023547" fill="hsl(0.0,100%,20%)">aixba</text>
<text x="0.955" y="0.143" font-size="0.055681" fill="hsl(0.0,100%,20%)">jacktfranklin</text>
<text x="0.275" y="0.728" font-size="0.029838" fill="hsl(0.0,100%,20%)">asraine</text>
<text x="0.493" y="0.308" font-size="0.033301" fill="hsl(0.0,100%,20%)">andoli</text>
<text x="1.612" y="0.261" font-size="0.038621" fill="hsl(0.0,100%,20%)">paulirish</text>
<text x="1.803" y="0.445" font-size="0.039124" fill="hsl(0.0,100%,20%)">cjamcl</text>
<text x="0.939" y="0.464" font-size="0.053754" fill="hsl(120.0,100%,20%)">dsv</text>
<text x="1.206" y="0.616" font-size="0.007904" fill="hsl(120.0,100%,20%)">aksen5240</text>
<text x="1.124" y="0.680" font-size="0.025151" fill="hsl(120.0,100%,20%)">changhaohan</text>
<text x="1.120" y="0.339" font-size="0.040012" fill="hsl(120.0,100%,20%)">szuend</text>
<text x="1.338" y="0.303" font-size="0.064396" fill="hsl(120.0,100%,20%)">alexrudenko</text>
<text x="1.267" y="0.803" font-size="0.043741" fill="hsl(120.0,100%,20%)">kimanh</text>
<text x="0.877" y="0.794" font-size="0.018746" fill="hsl(120.0,100%,20%)">yangguo</text>
<text x="1.297" y="0.435" font-size="0.033651" fill="hsl(120.0,100%,20%)">wolfi</text>
<text x="1.205" y="0.175" font-size="0.052131" fill="hsl(120.0,100%,20%)">ergunsh</text>
<text x="0.983" y="0.283" font-size="0.023877" fill="hsl(120.0,100%,20%)">samiyac</text>
<text x="1.538" y="0.861" font-size="0.017894" fill="hsl(120.0,100%,20%)">mathias</text>
<text x="1.820" y="0.772" font-size="0.058951" fill="hsl(120.0,100%,20%)">bmeurer</text>
<text x="1.941" y="0.608" font-size="0.058885" fill="hsl(120.0,100%,20%)">nvitkov</text>
<text x="0.789" y="0.340" font-size="0.022181" fill="hsl(120.0,100%,20%)">liviurau</text>
<text x="0.634" y="0.567" font-size="0.044097" fill="hsl(120.0,100%,20%)">pfaffe</text>
<text x="0.510" y="0.393" font-size="0.020912" fill="hsl(120.0,100%,20%)">leese</text>
<text x="0.734" y="0.069" font-size="0.029706" fill="hsl(0.0,100%,20%)">alinavarkki</text>
<text x="0.543" y="0.196" font-size="0.029309" fill="hsl(0.0,100%,20%)">nancyly</text>
<text x="1.510" y="0.479" font-size="0.007904" fill="hsl(120.0,100%,20%)">apavlov</text>
<text x="1.154" y="0.917" font-size="0.036968" fill="hsl(120.0,100%,20%)">kprokopenko</text>
<text x="0.887" y="0.632" font-size="0.007904" fill="hsl(120.0,100%,20%)">cwu631</text>
<text x="0.663" y="0.370" font-size="0.010076" fill="hsl(120.0,100%,20%)">kenoss</text>
<text x="0.050" y="0.384" font-size="0.007904" fill="hsl(120.0,100%,20%)">elormcoch</text>
<text x="0.092" y="0.497" font-size="0.005589" fill="hsl(120.0,100%,20%)">petermueller</text>
<text x="0.494" y="0.091" font-size="0.010076" fill="hsl(0.0,100%,20%)">finnur</text>
<text x="0.908" y="0.270" font-size="0.004840" fill="hsl(120.0,100%,20%)">garimachadha</text>
<text x="0.826" y="0.935" font-size="0.006845" fill="hsl(0.0,100%,20%)">rob.paveza</text>
<text x="0.371" y="0.242" font-size="0.005589" fill="hsl(0.0,100%,20%)">hocheung</text>
<text x="1.560" y="0.736" font-size="0.005589" fill="hsl(120.0,100%,20%)">victorporof</text>
<text x="0.951" y="0.669" font-size="0.014787" fill="hsl(120.0,100%,20%)">jalonthomas</text>
<text x="0.352" y="0.589" font-size="0.015559" fill="hsl(120.0,100%,20%)">shuuran</text>
<text x="0.651" y="0.950" font-size="0.009681" fill="hsl(0.0,100%,20%)">jaysonchen</text>
<text x="1.398" y="0.939" font-size="0.005589" fill="hsl(120.0,100%,20%)">jdh</text>
<text x="0.405" y="0.401" font-size="0.002795" fill="hsl(120.0,100%,20%)">lingqi</text>
<text x="0.049" y="0.709" font-size="0.005589" fill="hsl(120.0,100%,20%)">domenic</text>
<text x="1.174" y="0.547" font-size="0.011178" fill="hsl(120.0,100%,20%)">marcelpuetz</text>
<text x="0.335" y="0.481" font-size="0.018537" fill="hsl(120.0,100%,20%)">masnoble</text>
<text x="1.568" y="0.107" font-size="0.004840" fill="hsl(240.0,100%,20%)">monicach</text>
<text x="1.759" y="0.076" font-size="0.002795" fill="hsl(240.0,100%,20%)">sisidovski</text>
<text x="1.297" y="0.050" font-size="0.002795" fill="hsl(240.0,100%,20%)">yyanagisawa</text>
<text x="1.656" y="0.954" font-size="0.004840" fill="hsl(120.0,100%,20%)">petermarshall</text>
<text x="1.633" y="0.563" font-size="0.004840" fill="hsl(0.0,100%,20%)">petrcermak</text>
<text x="0.725" y="0.403" font-size="0.007394" fill="hsl(120.0,100%,20%)">robertlin</text>
<text x="0.853" y="0.528" font-size="0.008384" fill="hsl(120.0,100%,20%)">semel</text>
<text x="0.462" y="0.707" font-size="0.005589" fill="hsl(120.0,100%,20%)">stevenwei</text>
<text x="1.005" y="0.574" font-size="0.009681" fill="hsl(120.0,100%,20%)">vkrot</text>
<text x="0.659" y="0.696" font-size="0.006845" fill="hsl(120.0,100%,20%)">yanlingwang</text>
<text x="1.421" y="0.491" font-size="0.005589" fill="hsl(120.0,100%,20%)">yaoxia</text>
</svg>
