<svg width="4000" height="2000" viewBox="-0.025 -0.025 2.05 1.05" xmlns="http://www.w3.org/2000/svg">
  <style>
    path {
      fill: none;
      stroke-linecap: round;
      stroke-opacity: 0.4;
    }

    text {
      text-anchor: middle;
      alignment-baseline: hanging;
    }
  </style>
  <g opacity="0.4">
<path d="M0.803 0.843 Q0.488 0.826 0.386 0.976" stroke="hsl(0.0,100%,35%)" stroke-width="0.00778"></path>
<path d="M0.803 0.843 Q1.255 0.627 0.933 0.359" stroke="hsl(0.0,100%,35%)" stroke-width="0.00404"></path>
<path d="M0.803 0.843 Q0.473 0.674 0.070 0.797" stroke="hsl(0.0,100%,35%)" stroke-width="0.00490"></path>
<path d="M0.803 0.843 Q0.423 0.744 0.147 0.908" stroke="hsl(0.0,100%,35%)" stroke-width="0.00202"></path>
<path d="M0.803 0.843 Q1.144 0.680 0.900 0.477" stroke="hsl(0.0,100%,35%)" stroke-width="0.00029"></path>
<path d="M0.386 0.976 Q0.371 0.824 0.070 0.797" stroke="hsl(0.0,100%,35%)" stroke-width="0.00922"></path>
<path d="M0.386 0.976 Q0.321 0.894 0.147 0.908" stroke="hsl(0.0,100%,35%)" stroke-width="0.01153"></path>
<path d="M0.386 0.976 Q0.701 0.993 0.803 0.843" stroke="hsl(0.0,100%,35%)" stroke-width="0.00404"></path>
<path d="M0.386 0.976 Q1.153 0.777 0.933 0.359" stroke="hsl(0.0,100%,35%)" stroke-width="0.00346"></path>
<path d="M0.386 0.976 Q1.327 0.714 1.022 0.197" stroke="hsl(0.0,100%,35%)" stroke-width="0.00029"></path>
<path d="M0.386 0.976 Q0.764 0.861 0.622 0.651" stroke="hsl(0.0,100%,35%)" stroke-width="0.00029"></path>
<path d="M0.386 0.976 Q0.876 0.829 0.698 0.558" stroke="hsl(0.0,100%,35%)" stroke-width="0.00058"></path>
<path d="M0.933 0.359 Q1.107 0.296 1.022 0.197" stroke="hsl(0.0,100%,35%)" stroke-width="0.01038"></path>
<path d="M0.933 0.359 Q0.822 0.412 0.900 0.477" stroke="hsl(0.0,100%,35%)" stroke-width="0.01067"></path>
<path d="M0.933 0.359 Q0.773 0.263 0.550 0.320" stroke="hsl(0.0,100%,35%)" stroke-width="0.00548"></path>
<path d="M0.933 0.359 Q0.166 0.558 0.386 0.976" stroke="hsl(0.0,100%,35%)" stroke-width="0.00202"></path>
<path d="M0.933 0.359 Q0.481 0.575 0.803 0.843" stroke="hsl(0.0,100%,35%)" stroke-width="0.00288"></path>
<path d="M0.933 0.359 Q0.151 0.406 0.070 0.797" stroke="hsl(0.0,100%,35%)" stroke-width="0.00288"></path>
<path d="M0.933 0.359 Q0.101 0.476 0.147 0.908" stroke="hsl(0.0,100%,35%)" stroke-width="0.00461"></path>
<path d="M0.933 0.359 Q0.339 0.547 0.575 0.878" stroke="hsl(0.0,100%,35%)" stroke-width="0.00231"></path>
<path d="M0.933 0.359 Q0.395 0.477 0.506 0.765" stroke="hsl(0.0,100%,35%)" stroke-width="0.00058"></path>
<path d="M0.933 0.359 Q0.656 0.412 0.698 0.558" stroke="hsl(0.0,100%,35%)" stroke-width="0.00173"></path>
<path d="M0.933 0.359 Q0.544 0.443 0.622 0.651" stroke="hsl(0.0,100%,35%)" stroke-width="0.00058"></path>
<path d="M0.933 0.359 Q0.334 0.444 0.368 0.755" stroke="hsl(0.0,100%,35%)" stroke-width="0.00202"></path>
<path d="M0.933 0.359 Q0.956 0.257 0.761 0.223" stroke="hsl(0.0,100%,35%)" stroke-width="0.00029"></path>
<path d="M0.933 0.359 Q0.442 0.356 0.328 0.595" stroke="hsl(0.0,100%,35%)" stroke-width="0.00115"></path>
<path d="M0.933 0.359 Q0.476 0.670 0.982 0.961" stroke="hsl(0.0,100%,35%)" stroke-width="0.00519"></path>
<path d="M0.933 0.359 Q0.939 0.660 1.528 0.723" stroke="hsl(0.0,100%,35%)" stroke-width="0.00029"></path>
<path d="M0.933 0.359 Q0.413 0.604 0.777 0.911" stroke="hsl(0.0,100%,35%)" stroke-width="0.00029"></path>
<path d="M0.070 0.797 Q0.852 0.751 0.933 0.359" stroke="hsl(0.0,100%,35%)" stroke-width="0.00865"></path>
<path d="M0.070 0.797 Q0.085 0.950 0.386 0.976" stroke="hsl(0.0,100%,35%)" stroke-width="0.00231"></path>
<path d="M0.070 0.797 Q0.021 0.868 0.147 0.908" stroke="hsl(0.0,100%,35%)" stroke-width="0.00721"></path>
<path d="M0.070 0.797 Q0.693 0.655 0.550 0.320" stroke="hsl(0.0,100%,35%)" stroke-width="0.00058"></path>
<path d="M0.070 0.797 Q0.401 0.967 0.803 0.843" stroke="hsl(0.0,100%,35%)" stroke-width="0.00317"></path>
<path d="M0.070 0.797 Q0.860 1.105 1.633 0.788" stroke="hsl(0.0,100%,35%)" stroke-width="0.00029"></path>
<path d="M0.070 0.797 Q0.576 0.803 0.698 0.558" stroke="hsl(0.0,100%,35%)" stroke-width="0.00115"></path>
<path d="M0.070 0.797 Q0.464 0.834 0.622 0.651" stroke="hsl(0.0,100%,35%)" stroke-width="0.00058"></path>
<path d="M0.070 0.797 Q0.362 0.748 0.328 0.595" stroke="hsl(0.0,100%,35%)" stroke-width="0.00029"></path>
<path d="M0.070 0.797 Q0.396 1.062 0.982 0.961" stroke="hsl(0.0,100%,35%)" stroke-width="0.00086"></path>
<path d="M0.070 0.797 Q1.035 0.868 1.383 0.413" stroke="hsl(0.0,100%,35%)" stroke-width="0.00029"></path>
<path d="M0.070 0.797 Q0.253 0.836 0.368 0.755" stroke="hsl(0.0,100%,35%)" stroke-width="0.00058"></path>
<path d="M0.070 0.797 Q0.741 0.803 0.900 0.477" stroke="hsl(0.0,100%,35%)" stroke-width="0.00058"></path>
<path d="M0.070 0.797 Q0.693 0.959 1.145 0.691" stroke="hsl(0.0,100%,35%)" stroke-width="0.00058"></path>
<path d="M0.070 0.797 Q0.558 0.901 0.867 0.685" stroke="hsl(0.0,100%,35%)" stroke-width="0.00029"></path>
<path d="M0.070 0.797 Q0.258 0.938 0.575 0.878" stroke="hsl(0.0,100%,35%)" stroke-width="0.00029"></path>
<path d="M0.147 0.908 Q0.197 0.837 0.070 0.797" stroke="hsl(0.0,100%,35%)" stroke-width="0.02738"></path>
<path d="M0.147 0.908 Q0.979 0.791 0.933 0.359" stroke="hsl(0.0,100%,35%)" stroke-width="0.00461"></path>
<path d="M0.147 0.908 Q0.212 0.990 0.386 0.976" stroke="hsl(0.0,100%,35%)" stroke-width="0.00951"></path>
<path d="M0.147 0.908 Q0.527 1.007 0.803 0.843" stroke="hsl(0.0,100%,35%)" stroke-width="0.00288"></path>
<path d="M0.147 0.908 Q0.685 0.940 0.867 0.685" stroke="hsl(0.0,100%,35%)" stroke-width="0.00086"></path>
<path d="M0.147 0.908 Q0.702 0.843 0.698 0.558" stroke="hsl(0.0,100%,35%)" stroke-width="0.00029"></path>
<path d="M0.147 0.908 Q0.986 1.091 1.528 0.723" stroke="hsl(0.0,100%,35%)" stroke-width="0.00029"></path>
<path d="M0.147 0.908 Q0.868 0.843 0.900 0.477" stroke="hsl(0.0,100%,35%)" stroke-width="0.00029"></path>
<path d="M0.900 0.477 Q1.011 0.425 0.933 0.359" stroke="hsl(0.0,100%,35%)" stroke-width="0.00922"></path>
<path d="M0.900 0.477 Q0.852 0.329 0.550 0.320" stroke="hsl(0.0,100%,35%)" stroke-width="0.00288"></path>
<path d="M0.900 0.477 Q0.180 0.542 0.147 0.908" stroke="hsl(0.0,100%,35%)" stroke-width="0.00029"></path>
<path d="M0.900 0.477 Q0.555 0.736 0.982 0.961" stroke="hsl(0.0,100%,35%)" stroke-width="0.00058"></path>
<path d="M0.900 0.477 Q0.623 0.508 0.622 0.651" stroke="hsl(0.0,100%,35%)" stroke-width="0.00029"></path>
<path d="M0.900 0.477 Q1.185 0.362 1.022 0.197" stroke="hsl(0.0,100%,35%)" stroke-width="0.00173"></path>
<path d="M0.900 0.477 Q0.229 0.471 0.070 0.797" stroke="hsl(0.0,100%,35%)" stroke-width="0.00058"></path>
<path d="M0.900 0.477 Q0.521 0.422 0.328 0.595" stroke="hsl(0.0,100%,35%)" stroke-width="0.00029"></path>
<path d="M0.900 0.477 Q1.194 0.542 1.383 0.413" stroke="hsl(0.0,100%,35%)" stroke-width="0.00029"></path>
<path d="M0.900 0.477 Q0.244 0.624 0.386 0.976" stroke="hsl(0.0,100%,35%)" stroke-width="0.00029"></path>
<path d="M0.900 0.477 Q0.717 0.575 0.867 0.685" stroke="hsl(0.0,100%,35%)" stroke-width="0.00058"></path>
<path d="M0.900 0.477 Q0.417 0.612 0.575 0.878" stroke="hsl(0.0,100%,35%)" stroke-width="0.00029"></path>
<path d="M0.982 0.961 Q1.163 0.703 0.698 0.558" stroke="hsl(180.0,100%,35%)" stroke-width="0.00951"></path>
<path d="M0.982 0.961 Q0.845 0.838 0.575 0.878" stroke="hsl(180.0,100%,35%)" stroke-width="0.01240"></path>
<path d="M0.982 0.961 Q0.948 0.647 0.328 0.595" stroke="hsl(180.0,100%,35%)" stroke-width="0.00317"></path>
<path d="M0.982 0.961 Q1.147 0.921 1.104 0.832" stroke="hsl(180.0,100%,35%)" stroke-width="0.00144"></path>
<path d="M0.982 0.961 Q0.840 0.735 0.368 0.755" stroke="hsl(180.0,100%,35%)" stroke-width="0.00980"></path>
<path d="M0.982 0.961 Q0.657 0.697 0.070 0.797" stroke="hsl(180.0,100%,35%)" stroke-width="0.00058"></path>
<path d="M0.982 0.961 Q1.279 0.554 0.550 0.320" stroke="hsl(180.0,100%,35%)" stroke-width="0.00058"></path>
<path d="M0.982 0.961 Q1.051 0.734 0.622 0.651" stroke="hsl(180.0,100%,35%)" stroke-width="0.00259"></path>
<path d="M0.982 0.961 Q1.145 0.800 0.867 0.685" stroke="hsl(180.0,100%,35%)" stroke-width="0.00404"></path>
<path d="M0.982 0.961 Q0.920 0.895 0.777 0.911" stroke="hsl(180.0,100%,35%)" stroke-width="0.00173"></path>
<path d="M0.982 0.961 Q0.901 0.768 0.506 0.765" stroke="hsl(180.0,100%,35%)" stroke-width="0.00144"></path>
<path d="M0.982 0.961 Q1.439 0.650 0.933 0.359" stroke="hsl(180.0,100%,35%)" stroke-width="0.00115"></path>
<path d="M0.982 0.961 Q0.607 0.767 0.147 0.908" stroke="hsl(180.0,100%,35%)" stroke-width="0.00029"></path>
<path d="M0.982 0.961 Q1.280 0.859 1.145 0.691" stroke="hsl(180.0,100%,35%)" stroke-width="0.00029"></path>
<path d="M0.982 0.961 Q1.713 0.662 1.290 0.240" stroke="hsl(180.0,100%,35%)" stroke-width="0.00029"></path>
<path d="M0.698 0.558 Q0.937 0.699 1.265 0.613" stroke="hsl(180.0,100%,35%)" stroke-width="0.00577"></path>
<path d="M0.698 0.558 Q0.484 0.502 0.328 0.595" stroke="hsl(180.0,100%,35%)" stroke-width="0.00490"></path>
<path d="M0.698 0.558 Q0.518 0.816 0.982 0.961" stroke="hsl(180.0,100%,35%)" stroke-width="0.00432"></path>
<path d="M0.698 0.558 Q0.680 0.655 0.867 0.685" stroke="hsl(180.0,100%,35%)" stroke-width="0.00404"></path>
<path d="M0.698 0.558 Q0.815 0.714 1.145 0.691" stroke="hsl(180.0,100%,35%)" stroke-width="0.00029"></path>
<path d="M0.698 0.558 Q0.875 0.611 1.016 0.536" stroke="hsl(180.0,100%,35%)" stroke-width="0.00029"></path>
<path d="M0.698 0.558 Q0.586 0.589 0.622 0.651" stroke="hsl(180.0,100%,35%)" stroke-width="0.00086"></path>
<path d="M0.698 0.558 Q0.375 0.591 0.368 0.755" stroke="hsl(180.0,100%,35%)" stroke-width="0.00115"></path>
<path d="M0.698 0.558 Q0.981 0.806 1.528 0.723" stroke="hsl(180.0,100%,35%)" stroke-width="0.00029"></path>
<path d="M0.698 0.558 Q1.157 0.622 1.383 0.413" stroke="hsl(180.0,100%,35%)" stroke-width="0.00115"></path>
<path d="M0.698 0.558 Q0.380 0.693 0.575 0.878" stroke="hsl(180.0,100%,35%)" stroke-width="0.00058"></path>
<path d="M0.575 0.878 Q0.569 0.775 0.368 0.755" stroke="hsl(180.0,100%,35%)" stroke-width="0.01787"></path>
<path d="M0.575 0.878 Q0.712 1.001 0.982 0.961" stroke="hsl(180.0,100%,35%)" stroke-width="0.01730"></path>
<path d="M0.575 0.878 Q1.175 0.991 1.528 0.723" stroke="hsl(180.0,100%,35%)" stroke-width="0.00115"></path>
<path d="M0.575 0.878 Q1.168 0.690 0.933 0.359" stroke="hsl(180.0,100%,35%)" stroke-width="0.00086"></path>
<path d="M0.575 0.878 Q0.630 0.808 0.506 0.765" stroke="hsl(180.0,100%,35%)" stroke-width="0.00144"></path>
<path d="M0.575 0.878 Q0.876 0.961 1.104 0.832" stroke="hsl(180.0,100%,35%)" stroke-width="0.00115"></path>
<path d="M0.575 0.878 Q0.780 0.774 0.622 0.651" stroke="hsl(180.0,100%,35%)" stroke-width="0.00317"></path>
<path d="M0.575 0.878 Q1.131 0.883 1.265 0.613" stroke="hsl(180.0,100%,35%)" stroke-width="0.00086"></path>
<path d="M0.575 0.878 Q0.875 0.840 0.867 0.685" stroke="hsl(180.0,100%,35%)" stroke-width="0.01153"></path>
<path d="M0.575 0.878 Q0.649 0.935 0.777 0.911" stroke="hsl(180.0,100%,35%)" stroke-width="0.00144"></path>
<path d="M0.575 0.878 Q0.892 0.742 0.698 0.558" stroke="hsl(180.0,100%,35%)" stroke-width="0.00173"></path>
<path d="M0.575 0.878 Q0.678 0.687 0.328 0.595" stroke="hsl(180.0,100%,35%)" stroke-width="0.00231"></path>
<path d="M0.575 0.878 Q1.342 0.627 1.022 0.197" stroke="hsl(180.0,100%,35%)" stroke-width="0.00231"></path>
<path d="M0.575 0.878 Q1.442 0.702 1.290 0.240" stroke="hsl(180.0,100%,35%)" stroke-width="0.00029"></path>
<path d="M0.575 0.878 Q1.009 0.594 0.550 0.320" stroke="hsl(180.0,100%,35%)" stroke-width="0.00029"></path>
<path d="M0.575 0.878 Q0.387 0.737 0.070 0.797" stroke="hsl(180.0,100%,35%)" stroke-width="0.00029"></path>
<path d="M0.575 0.878 Q1.058 0.743 0.900 0.477" stroke="hsl(180.0,100%,35%)" stroke-width="0.00029"></path>
<path d="M0.575 0.878 Q1.191 0.588 0.761 0.223" stroke="hsl(180.0,100%,35%)" stroke-width="0.00029"></path>
<path d="M0.328 0.595 Q0.220 0.683 0.368 0.755" stroke="hsl(180.0,100%,35%)" stroke-width="0.00519"></path>
<path d="M0.328 0.595 Q1.001 0.715 1.383 0.413" stroke="hsl(180.0,100%,35%)" stroke-width="0.00202"></path>
<path d="M0.328 0.595 Q0.542 0.650 0.698 0.558" stroke="hsl(180.0,100%,35%)" stroke-width="0.00029"></path>
<path d="M0.328 0.595 Q0.719 0.703 1.016 0.536" stroke="hsl(180.0,100%,35%)" stroke-width="0.00144"></path>
<path d="M0.328 0.595 Q0.362 0.909 0.982 0.961" stroke="hsl(180.0,100%,35%)" stroke-width="0.00086"></path>
<path d="M0.328 0.595 Q0.430 0.682 0.622 0.651" stroke="hsl(180.0,100%,35%)" stroke-width="0.00115"></path>
<path d="M0.328 0.595 Q0.299 0.843 0.777 0.911" stroke="hsl(180.0,100%,35%)" stroke-width="0.00029"></path>
<path d="M0.328 0.595 Q0.225 0.785 0.575 0.878" stroke="hsl(180.0,100%,35%)" stroke-width="0.00058"></path>
<path d="M0.328 0.595 Q0.782 0.791 1.265 0.613" stroke="hsl(180.0,100%,35%)" stroke-width="0.00029"></path>
<path d="M1.104 0.832 Q0.798 0.647 0.368 0.755" stroke="hsl(180.0,100%,35%)" stroke-width="0.01297"></path>
<path d="M1.104 0.832 Q1.360 0.755 1.265 0.613" stroke="hsl(180.0,100%,35%)" stroke-width="0.00058"></path>
<path d="M1.104 0.832 Q0.803 0.749 0.575 0.878" stroke="hsl(180.0,100%,35%)" stroke-width="0.00144"></path>
<path d="M1.104 0.832 Q0.940 0.872 0.982 0.961" stroke="hsl(180.0,100%,35%)" stroke-width="0.00749"></path>
<path d="M1.104 0.832 Q0.859 0.679 0.506 0.765" stroke="hsl(180.0,100%,35%)" stroke-width="0.00086"></path>
<path d="M1.104 0.832 Q0.615 0.608 0.070 0.797" stroke="hsl(180.0,100%,35%)" stroke-width="0.00029"></path>
<path d="M1.104 0.832 Q1.490 0.919 1.745 0.750" stroke="hsl(180.0,100%,35%)" stroke-width="0.00029"></path>
<path d="M1.104 0.832 Q1.103 0.711 0.867 0.685" stroke="hsl(180.0,100%,35%)" stroke-width="0.00029"></path>
<path d="M0.368 0.755 Q0.374 0.858 0.575 0.878" stroke="hsl(180.0,100%,35%)" stroke-width="0.01384"></path>
<path d="M0.368 0.755 Q0.974 0.971 1.528 0.723" stroke="hsl(180.0,100%,35%)" stroke-width="0.00144"></path>
<path d="M0.368 0.755 Q0.511 0.981 0.982 0.961" stroke="hsl(180.0,100%,35%)" stroke-width="0.01441"></path>
<path d="M0.368 0.755 Q0.675 0.941 1.104 0.832" stroke="hsl(180.0,100%,35%)" stroke-width="0.00144"></path>
<path d="M0.368 0.755 Q0.691 0.723 0.698 0.558" stroke="hsl(180.0,100%,35%)" stroke-width="0.00144"></path>
<path d="M0.368 0.755 Q0.430 0.788 0.506 0.765" stroke="hsl(180.0,100%,35%)" stroke-width="0.00144"></path>
<path d="M0.368 0.755 Q0.674 0.820 0.867 0.685" stroke="hsl(180.0,100%,35%)" stroke-width="0.00115"></path>
<path d="M0.368 0.755 Q0.868 0.775 1.016 0.536" stroke="hsl(180.0,100%,35%)" stroke-width="0.00288"></path>
<path d="M0.368 0.755 Q0.477 0.667 0.328 0.595" stroke="hsl(180.0,100%,35%)" stroke-width="0.00231"></path>
<path d="M0.368 0.755 Q0.931 0.864 1.265 0.613" stroke="hsl(180.0,100%,35%)" stroke-width="0.00058"></path>
<path d="M0.368 0.755 Q0.579 0.754 0.622 0.651" stroke="hsl(180.0,100%,35%)" stroke-width="0.00058"></path>
<path d="M0.368 0.755 Q0.448 0.915 0.777 0.911" stroke="hsl(180.0,100%,35%)" stroke-width="0.00029"></path>
<path d="M0.550 0.320 Q0.884 0.353 1.022 0.197" stroke="hsl(0.0,100%,35%)" stroke-width="0.00548"></path>
<path d="M0.550 0.320 Q0.710 0.416 0.933 0.359" stroke="hsl(0.0,100%,35%)" stroke-width="0.00721"></path>
<path d="M0.550 0.320 Q0.116 0.604 0.575 0.878" stroke="hsl(0.0,100%,35%)" stroke-width="0.00029"></path>
<path d="M0.550 0.320 Q-0.122 0.533 0.147 0.908" stroke="hsl(0.0,100%,35%)" stroke-width="0.00029"></path>
<path d="M0.550 0.320 Q-0.072 0.463 0.070 0.797" stroke="hsl(0.0,100%,35%)" stroke-width="0.00173"></path>
<path d="M0.550 0.320 Q0.599 0.469 0.900 0.477" stroke="hsl(0.0,100%,35%)" stroke-width="0.00317"></path>
<path d="M0.550 0.320 Q0.717 0.717 1.528 0.723" stroke="hsl(0.0,100%,35%)" stroke-width="0.00086"></path>
<path d="M0.550 0.320 Q0.673 0.609 1.265 0.613" stroke="hsl(0.0,100%,35%)" stroke-width="0.00144"></path>
<path d="M0.550 0.320 Q0.191 0.661 0.777 0.911" stroke="hsl(0.0,100%,35%)" stroke-width="0.00029"></path>
<path d="M0.550 0.320 Q-0.057 0.615 0.386 0.976" stroke="hsl(0.0,100%,35%)" stroke-width="0.00029"></path>
<path d="M0.622 0.651 Q0.717 0.717 0.867 0.685" stroke="hsl(180.0,100%,35%)" stroke-width="0.01153"></path>
<path d="M0.622 0.651 Q0.520 0.564 0.328 0.595" stroke="hsl(180.0,100%,35%)" stroke-width="0.00432"></path>
<path d="M0.622 0.651 Q0.554 0.878 0.982 0.961" stroke="hsl(180.0,100%,35%)" stroke-width="0.00259"></path>
<path d="M0.622 0.651 Q0.974 0.761 1.265 0.613" stroke="hsl(180.0,100%,35%)" stroke-width="0.00086"></path>
<path d="M0.622 0.651 Q1.193 0.684 1.383 0.413" stroke="hsl(180.0,100%,35%)" stroke-width="0.00029"></path>
<path d="M0.622 0.651 Q0.734 0.619 0.698 0.558" stroke="hsl(180.0,100%,35%)" stroke-width="0.00202"></path>
<path d="M0.622 0.651 Q1.011 0.567 0.933 0.359" stroke="hsl(180.0,100%,35%)" stroke-width="0.00144"></path>
<path d="M0.622 0.651 Q0.229 0.614 0.070 0.797" stroke="hsl(180.0,100%,35%)" stroke-width="0.00058"></path>
<path d="M0.622 0.651 Q1.017 0.868 1.528 0.723" stroke="hsl(180.0,100%,35%)" stroke-width="0.00029"></path>
<path d="M0.622 0.651 Q0.911 0.672 1.016 0.536" stroke="hsl(180.0,100%,35%)" stroke-width="0.00029"></path>
<path d="M0.622 0.651 Q0.473 0.685 0.506 0.765" stroke="hsl(180.0,100%,35%)" stroke-width="0.00202"></path>
<path d="M0.622 0.651 Q0.417 0.755 0.575 0.878" stroke="hsl(180.0,100%,35%)" stroke-width="0.00115"></path>
<path d="M0.867 0.685 Q1.167 0.836 1.528 0.723" stroke="hsl(180.0,100%,35%)" stroke-width="0.00519"></path>
<path d="M0.867 0.685 Q1.001 0.744 1.145 0.691" stroke="hsl(180.0,100%,35%)" stroke-width="0.00490"></path>
<path d="M0.867 0.685 Q0.772 0.619 0.622 0.651" stroke="hsl(180.0,100%,35%)" stroke-width="0.01153"></path>
<path d="M0.867 0.685 Q1.254 0.893 1.745 0.750" stroke="hsl(180.0,100%,35%)" stroke-width="0.00086"></path>
<path d="M0.867 0.685 Q0.884 0.588 0.698 0.558" stroke="hsl(180.0,100%,35%)" stroke-width="0.00317"></path>
<path d="M0.867 0.685 Q0.704 0.846 0.982 0.961" stroke="hsl(180.0,100%,35%)" stroke-width="0.01268"></path>
<path d="M0.867 0.685 Q0.379 0.582 0.070 0.797" stroke="hsl(180.0,100%,35%)" stroke-width="0.00029"></path>
<path d="M0.867 0.685 Q1.168 0.890 1.633 0.788" stroke="hsl(180.0,100%,35%)" stroke-width="0.00029"></path>
<path d="M0.867 0.685 Q1.123 0.729 1.265 0.613" stroke="hsl(180.0,100%,35%)" stroke-width="0.00346"></path>
<path d="M0.867 0.685 Q1.061 0.641 1.016 0.536" stroke="hsl(180.0,100%,35%)" stroke-width="0.00519"></path>
<path d="M0.867 0.685 Q0.670 0.532 0.328 0.595" stroke="hsl(180.0,100%,35%)" stroke-width="0.00058"></path>
<path d="M0.867 0.685 Q0.622 0.653 0.506 0.765" stroke="hsl(180.0,100%,35%)" stroke-width="0.00058"></path>
<path d="M0.867 0.685 Q0.561 0.621 0.368 0.755" stroke="hsl(180.0,100%,35%)" stroke-width="0.00058"></path>
<path d="M0.867 0.685 Q1.050 0.588 0.900 0.477" stroke="hsl(180.0,100%,35%)" stroke-width="0.00029"></path>
<path d="M0.867 0.685 Q0.868 0.806 1.104 0.832" stroke="hsl(180.0,100%,35%)" stroke-width="0.00086"></path>
<path d="M0.867 0.685 Q1.334 0.472 1.022 0.197" stroke="hsl(180.0,100%,35%)" stroke-width="0.00029"></path>
<path d="M0.867 0.685 Q0.567 0.723 0.575 0.878" stroke="hsl(180.0,100%,35%)" stroke-width="0.00346"></path>
<path d="M0.777 0.911 Q1.002 0.816 0.867 0.685" stroke="hsl(180.0,100%,35%)" stroke-width="0.00058"></path>
<path d="M0.777 0.911 Q1.137 0.875 1.145 0.691" stroke="hsl(180.0,100%,35%)" stroke-width="0.00029"></path>
<path d="M0.777 0.911 Q0.908 0.750 0.622 0.651" stroke="hsl(180.0,100%,35%)" stroke-width="0.00029"></path>
<path d="M0.506 0.765 Q0.445 0.733 0.368 0.755" stroke="hsl(180.0,100%,35%)" stroke-width="0.00951"></path>
<path d="M0.506 0.765 Q1.051 0.948 1.528 0.723" stroke="hsl(180.0,100%,35%)" stroke-width="0.00086"></path>
<path d="M0.506 0.765 Q1.227 0.764 1.383 0.413" stroke="hsl(180.0,100%,35%)" stroke-width="0.00029"></path>
<path d="M0.506 0.765 Q0.554 0.644 0.328 0.595" stroke="hsl(180.0,100%,35%)" stroke-width="0.00115"></path>
<path d="M0.506 0.765 Q0.588 0.958 0.982 0.961" stroke="hsl(180.0,100%,35%)" stroke-width="0.01038"></path>
<path d="M0.506 0.765 Q0.451 0.835 0.575 0.878" stroke="hsl(180.0,100%,35%)" stroke-width="0.00577"></path>
<path d="M0.506 0.765 Q0.656 0.731 0.622 0.651" stroke="hsl(180.0,100%,35%)" stroke-width="0.00029"></path>
<path d="M0.506 0.765 Q0.751 0.797 0.867 0.685" stroke="hsl(180.0,100%,35%)" stroke-width="0.00115"></path>
<path d="M0.506 0.765 Q0.752 0.918 1.104 0.832" stroke="hsl(180.0,100%,35%)" stroke-width="0.00058"></path>
<path d="M0.506 0.765 Q1.007 0.841 1.265 0.613" stroke="hsl(180.0,100%,35%)" stroke-width="0.00029"></path>
<path d="M0.506 0.765 Q0.945 0.753 1.016 0.536" stroke="hsl(180.0,100%,35%)" stroke-width="0.00029"></path>
<path d="M1.145 0.691 Q1.304 0.483 0.933 0.359" stroke="hsl(180.0,100%,35%)" stroke-width="0.00086"></path>
<path d="M1.145 0.691 Q0.814 0.479 0.328 0.595" stroke="hsl(180.0,100%,35%)" stroke-width="0.00086"></path>
<path d="M1.145 0.691 Q0.916 0.566 0.622 0.651" stroke="hsl(180.0,100%,35%)" stroke-width="0.00115"></path>
<path d="M1.145 0.691 Q1.145 0.386 0.550 0.320" stroke="hsl(180.0,100%,35%)" stroke-width="0.00029"></path>
<path d="M1.145 0.691 Q1.267 0.676 1.265 0.613" stroke="hsl(180.0,100%,35%)" stroke-width="0.00173"></path>
<path d="M1.145 0.691 Q0.705 0.568 0.368 0.755" stroke="hsl(180.0,100%,35%)" stroke-width="0.00058"></path>
<path d="M1.145 0.691 Q1.010 0.632 0.867 0.685" stroke="hsl(180.0,100%,35%)" stroke-width="0.00086"></path>
<path d="M1.145 0.691 Q1.205 0.588 1.016 0.536" stroke="hsl(180.0,100%,35%)" stroke-width="0.00029"></path>
<path d="M1.145 0.691 Q1.311 0.783 1.528 0.723" stroke="hsl(180.0,100%,35%)" stroke-width="0.00029"></path>
<path d="M1.145 0.691 Q0.848 0.793 0.982 0.961" stroke="hsl(180.0,100%,35%)" stroke-width="0.00029"></path>
<path d="M1.290 0.240 Q0.979 0.422 1.265 0.613" stroke="hsl(180.0,100%,35%)" stroke-width="0.00029"></path>
<path d="M1.290 0.240 Q0.740 0.281 0.698 0.558" stroke="hsl(180.0,100%,35%)" stroke-width="0.00144"></path>
<path d="M1.290 0.240 Q0.497 0.473 0.777 0.911" stroke="hsl(180.0,100%,35%)" stroke-width="0.00058"></path>
<path d="M1.290 0.240 Q1.198 0.345 1.383 0.413" stroke="hsl(180.0,100%,35%)" stroke-width="0.00058"></path>
<path d="M1.290 0.240 Q0.525 0.225 0.328 0.595" stroke="hsl(180.0,100%,35%)" stroke-width="0.00173"></path>
<path d="M1.290 0.240 Q0.628 0.312 0.622 0.651" stroke="hsl(180.0,100%,35%)" stroke-width="0.00058"></path>
<path d="M1.290 0.240 Q0.559 0.539 0.982 0.961" stroke="hsl(180.0,100%,35%)" stroke-width="0.00115"></path>
<path d="M1.290 0.240 Q1.428 0.176 1.333 0.095" stroke="hsl(180.0,100%,35%)" stroke-width="0.00029"></path>
<path d="M1.022 0.197 Q0.848 0.261 0.933 0.359" stroke="hsl(0.0,100%,35%)" stroke-width="0.01067"></path>
<path d="M1.022 0.197 Q0.688 0.164 0.550 0.320" stroke="hsl(0.0,100%,35%)" stroke-width="0.00432"></path>
<path d="M1.022 0.197 Q0.811 0.454 1.265 0.613" stroke="hsl(0.0,100%,35%)" stroke-width="0.00029"></path>
<path d="M1.022 0.197 Q0.854 0.561 1.528 0.723" stroke="hsl(0.0,100%,35%)" stroke-width="0.00029"></path>
<path d="M1.022 0.197 Q0.737 0.313 0.900 0.477" stroke="hsl(0.0,100%,35%)" stroke-width="0.00086"></path>
<path d="M1.022 0.197 Q0.254 0.448 0.575 0.878" stroke="hsl(0.0,100%,35%)" stroke-width="0.00058"></path>
<path d="M1.022 0.197 Q0.571 0.313 0.698 0.558" stroke="hsl(0.0,100%,35%)" stroke-width="0.00058"></path>
<path d="M1.265 0.613 Q1.309 0.720 1.528 0.723" stroke="hsl(180.0,100%,35%)" stroke-width="0.01845"></path>
<path d="M1.265 0.613 Q1.026 0.472 0.698 0.558" stroke="hsl(180.0,100%,35%)" stroke-width="0.00259"></path>
<path d="M1.265 0.613 Q0.811 0.416 0.328 0.595" stroke="hsl(180.0,100%,35%)" stroke-width="0.00115"></path>
<path d="M1.265 0.613 Q0.913 0.503 0.622 0.651" stroke="hsl(180.0,100%,35%)" stroke-width="0.00086"></path>
<path d="M1.265 0.613 Q1.484 0.537 1.383 0.413" stroke="hsl(180.0,100%,35%)" stroke-width="0.00029"></path>
<path d="M1.265 0.613 Q0.703 0.505 0.368 0.755" stroke="hsl(180.0,100%,35%)" stroke-width="0.00202"></path>
<path d="M1.265 0.613 Q1.576 0.432 1.290 0.240" stroke="hsl(180.0,100%,35%)" stroke-width="0.00029"></path>
<path d="M1.265 0.613 Q1.008 0.569 0.867 0.685" stroke="hsl(180.0,100%,35%)" stroke-width="0.00346"></path>
<path d="M1.265 0.613 Q1.202 0.525 1.016 0.536" stroke="hsl(180.0,100%,35%)" stroke-width="0.00029"></path>
<path d="M1.265 0.613 Q0.845 0.731 0.982 0.961" stroke="hsl(180.0,100%,35%)" stroke-width="0.00115"></path>
<path d="M1.265 0.613 Q0.708 0.607 0.575 0.878" stroke="hsl(180.0,100%,35%)" stroke-width="0.00029"></path>
<path d="M1.265 0.613 Q1.142 0.324 0.550 0.320" stroke="hsl(180.0,100%,35%)" stroke-width="0.00058"></path>
<path d="M1.265 0.613 Q1.143 0.628 1.145 0.691" stroke="hsl(180.0,100%,35%)" stroke-width="0.00029"></path>
<path d="M1.265 0.613 Q0.764 0.537 0.506 0.765" stroke="hsl(180.0,100%,35%)" stroke-width="0.00058"></path>
<path d="M1.528 0.723 Q1.227 0.572 0.867 0.685" stroke="hsl(180.0,100%,35%)" stroke-width="0.00692"></path>
<path d="M1.528 0.723 Q0.927 0.610 0.575 0.878" stroke="hsl(180.0,100%,35%)" stroke-width="0.00029"></path>
<path d="M1.528 0.723 Q1.528 0.776 1.633 0.788" stroke="hsl(180.0,100%,35%)" stroke-width="0.00058"></path>
<path d="M1.528 0.723 Q1.484 0.615 1.265 0.613" stroke="hsl(180.0,100%,35%)" stroke-width="0.01614"></path>
<path d="M1.528 0.723 Q0.922 0.507 0.368 0.755" stroke="hsl(180.0,100%,35%)" stroke-width="0.00115"></path>
<path d="M1.528 0.723 Q1.361 0.326 0.550 0.320" stroke="hsl(180.0,100%,35%)" stroke-width="0.00058"></path>
<path d="M1.528 0.723 Q1.244 0.474 0.698 0.558" stroke="hsl(180.0,100%,35%)" stroke-width="0.00086"></path>
<path d="M1.528 0.723 Q1.614 0.780 1.745 0.750" stroke="hsl(180.0,100%,35%)" stroke-width="0.00058"></path>
<path d="M0.258 0.718 Q0.882 0.673 0.933 0.359" stroke="hsl(0.0,100%,35%)" stroke-width="0.00029"></path>
<path d="M0.258 0.718 Q0.344 0.791 0.506 0.765" stroke="hsl(0.0,100%,35%)" stroke-width="0.00058"></path>
<path d="M0.258 0.718 Q1.056 0.610 1.022 0.197" stroke="hsl(0.0,100%,35%)" stroke-width="0.00029"></path>
<path d="M1.383 0.413 Q0.907 0.446 0.867 0.685" stroke="hsl(180.0,100%,35%)" stroke-width="0.00058"></path>
<path d="M1.383 0.413 Q0.681 0.541 0.777 0.911" stroke="hsl(180.0,100%,35%)" stroke-width="0.00029"></path>
<path d="M1.383 0.413 Q0.663 0.414 0.506 0.765" stroke="hsl(180.0,100%,35%)" stroke-width="0.00029"></path>
<path d="M1.383 0.413 Q0.924 0.348 0.698 0.558" stroke="hsl(180.0,100%,35%)" stroke-width="0.00058"></path>
<path d="M1.383 0.413 Q0.602 0.381 0.368 0.755" stroke="hsl(180.0,100%,35%)" stroke-width="0.00058"></path>
<path d="M1.383 0.413 Q1.041 0.200 0.550 0.320" stroke="hsl(180.0,100%,35%)" stroke-width="0.00058"></path>
<path d="M1.383 0.413 Q0.744 0.607 0.982 0.961" stroke="hsl(180.0,100%,35%)" stroke-width="0.00058"></path>
<path d="M1.383 0.413 Q0.710 0.293 0.328 0.595" stroke="hsl(180.0,100%,35%)" stroke-width="0.00115"></path>
<path d="M1.383 0.413 Q0.812 0.380 0.622 0.651" stroke="hsl(180.0,100%,35%)" stroke-width="0.00029"></path>
<path d="M1.383 0.413 Q1.201 0.296 0.933 0.359" stroke="hsl(180.0,100%,35%)" stroke-width="0.00029"></path>
<path d="M1.383 0.413 Q1.101 0.401 1.016 0.536" stroke="hsl(180.0,100%,35%)" stroke-width="0.00029"></path>
<path d="M1.633 0.788 Q0.858 0.632 0.386 0.976" stroke="hsl(180.0,100%,35%)" stroke-width="0.00029"></path>
<path d="M1.633 0.788 Q1.331 0.583 0.867 0.685" stroke="hsl(180.0,100%,35%)" stroke-width="0.00029"></path>
<path d="M1.633 0.788 Q1.237 0.517 0.622 0.651" stroke="hsl(180.0,100%,35%)" stroke-width="0.00058"></path>
<path d="M1.016 0.536 Q0.625 0.428 0.328 0.595" stroke="hsl(180.0,100%,35%)" stroke-width="0.00173"></path>
<path d="M1.016 0.536 Q0.839 0.483 0.698 0.558" stroke="hsl(180.0,100%,35%)" stroke-width="0.00058"></path>
<path d="M1.016 0.536 Q0.822 0.581 0.867 0.685" stroke="hsl(180.0,100%,35%)" stroke-width="0.00115"></path>
<path d="M1.016 0.536 Q1.079 0.624 1.265 0.613" stroke="hsl(180.0,100%,35%)" stroke-width="0.00058"></path>
<path d="M1.016 0.536 Q1.298 0.548 1.383 0.413" stroke="hsl(180.0,100%,35%)" stroke-width="0.00058"></path>
<path d="M1.016 0.536 Q1.290 0.368 1.022 0.197" stroke="hsl(180.0,100%,35%)" stroke-width="0.00029"></path>
<path d="M0.826 0.811 Q0.852 0.690 0.622 0.651" stroke="hsl(180.0,100%,35%)" stroke-width="0.00058"></path>
<path d="M0.826 0.811 Q0.964 0.659 0.698 0.558" stroke="hsl(180.0,100%,35%)" stroke-width="0.00086"></path>
<path d="M0.826 0.811 Q1.081 0.815 1.145 0.691" stroke="hsl(180.0,100%,35%)" stroke-width="0.00029"></path>
<path d="M0.826 0.811 Q0.750 0.603 0.328 0.595" stroke="hsl(180.0,100%,35%)" stroke-width="0.00058"></path>
<path d="M0.915 0.499 Q0.759 0.485 0.698 0.558" stroke="hsl(180.0,100%,35%)" stroke-width="0.00058"></path>
<path d="M0.915 0.499 Q0.579 0.744 0.982 0.961" stroke="hsl(180.0,100%,35%)" stroke-width="0.00029"></path>
<path d="M0.915 0.499 Q0.498 0.551 0.506 0.765" stroke="hsl(180.0,100%,35%)" stroke-width="0.00029"></path>
<path d="M0.915 0.499 Q0.545 0.430 0.328 0.595" stroke="hsl(180.0,100%,35%)" stroke-width="0.00029"></path>
<path d="M1.113 0.498 Q1.034 0.498 1.016 0.536" stroke="hsl(180.0,100%,35%)" stroke-width="0.00115"></path>
<path d="M1.113 0.498 Q0.643 0.389 0.328 0.595" stroke="hsl(180.0,100%,35%)" stroke-width="0.00086"></path>
<path d="M1.113 0.498 Q0.677 0.704 0.982 0.961" stroke="hsl(180.0,100%,35%)" stroke-width="0.00029"></path>
<path d="M0.248 0.975 Q0.301 0.851 0.070 0.797" stroke="hsl(0.0,100%,35%)" stroke-width="0.00029"></path>
<path d="M0.248 0.975 Q0.251 0.921 0.147 0.908" stroke="hsl(0.0,100%,35%)" stroke-width="0.00058"></path>
<path d="M0.248 0.975 Q1.083 0.804 0.933 0.359" stroke="hsl(0.0,100%,35%)" stroke-width="0.00029"></path>
<path d="M0.248 0.975 Q0.626 1.115 0.982 0.961" stroke="hsl(0.0,100%,35%)" stroke-width="0.00029"></path>
<path d="M1.322 0.372 Q1.320 0.405 1.383 0.413" stroke="hsl(180.0,100%,35%)" stroke-width="0.00058"></path>
<path d="M1.322 0.372 Q0.599 0.405 0.506 0.765" stroke="hsl(180.0,100%,35%)" stroke-width="0.00058"></path>
<path d="M1.322 0.372 Q0.538 0.373 0.368 0.755" stroke="hsl(180.0,100%,35%)" stroke-width="0.00086"></path>
<path d="M1.322 0.372 Q0.647 0.284 0.328 0.595" stroke="hsl(180.0,100%,35%)" stroke-width="0.00086"></path>
<path d="M1.753 0.498 Q1.066 0.348 0.622 0.651" stroke="hsl(180.0,100%,35%)" stroke-width="0.00317"></path>
<path d="M1.753 0.498 Q1.837 0.429 1.721 0.374" stroke="hsl(180.0,100%,35%)" stroke-width="0.00288"></path>
<path d="M1.753 0.498 Q1.295 0.169 0.550 0.320" stroke="hsl(180.0,100%,35%)" stroke-width="0.00029"></path>
<path d="M1.753 0.498 Q1.628 0.202 1.022 0.197" stroke="hsl(180.0,100%,35%)" stroke-width="0.00029"></path>
<path d="M1.753 0.498 Q1.418 0.458 1.265 0.613" stroke="hsl(180.0,100%,35%)" stroke-width="0.00058"></path>
<path d="M1.753 0.498 Q1.003 0.481 0.803 0.843" stroke="hsl(180.0,100%,35%)" stroke-width="0.00029"></path>
<path d="M1.753 0.498 Q0.673 0.311 0.070 0.797" stroke="hsl(180.0,100%,35%)" stroke-width="0.00058"></path>
<path d="M1.721 0.374 Q0.800 0.327 0.506 0.765" stroke="hsl(180.0,100%,35%)" stroke-width="0.00058"></path>
<path d="M1.721 0.374 Q0.950 0.292 0.622 0.651" stroke="hsl(180.0,100%,35%)" stroke-width="0.00058"></path>
<path d="M1.721 0.374 Q0.847 0.206 0.328 0.595" stroke="hsl(180.0,100%,35%)" stroke-width="0.00029"></path>
<path d="M1.911 0.768 Q1.749 0.368 0.933 0.359" stroke="hsl(0.0,100%,35%)" stroke-width="0.00086"></path>
<path d="M1.911 0.768 Q1.756 0.669 1.528 0.723" stroke="hsl(0.0,100%,35%)" stroke-width="0.00086"></path>
<path d="M1.911 0.768 Q0.967 0.415 0.070 0.797" stroke="hsl(0.0,100%,35%)" stroke-width="0.00115"></path>
<path d="M1.911 0.768 Q1.842 0.726 1.745 0.750" stroke="hsl(0.0,100%,35%)" stroke-width="0.00058"></path>
<path d="M1.911 0.768 Q1.688 0.817 1.735 0.937" stroke="hsl(0.0,100%,35%)" stroke-width="0.00115"></path>
<path d="M1.839 0.198 Q1.714 0.142 1.576 0.191" stroke="hsl(0.0,100%,35%)" stroke-width="0.00029"></path>
<path d="M1.839 0.198 Q1.264 0.398 1.528 0.723" stroke="hsl(0.0,100%,35%)" stroke-width="0.00029"></path>
<path d="M1.839 0.198 Q0.475 0.144 0.070 0.797" stroke="hsl(0.0,100%,35%)" stroke-width="0.00029"></path>
<path d="M1.229 0.772 Q1.023 0.590 0.622 0.651" stroke="hsl(180.0,100%,35%)" stroke-width="0.00173"></path>
<path d="M1.229 0.772 Q1.243 0.791 1.283 0.789" stroke="hsl(180.0,100%,35%)" stroke-width="0.00029"></path>
<path d="M1.229 0.772 Q1.135 0.559 0.698 0.558" stroke="hsl(180.0,100%,35%)" stroke-width="0.00029"></path>
<path d="M1.229 0.772 Q1.433 0.536 1.017 0.385" stroke="hsl(180.0,100%,35%)" stroke-width="0.00029"></path>
<path d="M0.759 0.610 Q0.752 0.669 0.867 0.685" stroke="hsl(180.0,100%,35%)" stroke-width="0.00115"></path>
<path d="M0.759 0.610 Q0.887 0.423 0.550 0.320" stroke="hsl(180.0,100%,35%)" stroke-width="0.00029"></path>
<path d="M0.759 0.610 Q1.009 0.713 1.265 0.613" stroke="hsl(180.0,100%,35%)" stroke-width="0.00058"></path>
<path d="M0.759 0.610 Q0.556 0.516 0.328 0.595" stroke="hsl(180.0,100%,35%)" stroke-width="0.00086"></path>
<path d="M0.759 0.610 Q0.658 0.603 0.622 0.651" stroke="hsl(180.0,100%,35%)" stroke-width="0.00058"></path>
<path d="M0.759 0.610 Q0.447 0.605 0.368 0.755" stroke="hsl(180.0,100%,35%)" stroke-width="0.00029"></path>
<path d="M0.759 0.610 Q1.053 0.820 1.528 0.723" stroke="hsl(180.0,100%,35%)" stroke-width="0.00029"></path>
<path d="M1.539 0.478 Q0.943 0.381 0.622 0.651" stroke="hsl(180.0,100%,35%)" stroke-width="0.00807"></path>
<path d="M1.539 0.478 Q1.714 0.462 1.721 0.374" stroke="hsl(180.0,100%,35%)" stroke-width="0.01124"></path>
<path d="M1.539 0.478 Q0.793 0.415 0.506 0.765" stroke="hsl(180.0,100%,35%)" stroke-width="0.00058"></path>
<path d="M1.539 0.478 Q1.037 0.447 0.867 0.685" stroke="hsl(180.0,100%,35%)" stroke-width="0.00029"></path>
<path d="M1.539 0.478 Q1.294 0.491 1.265 0.613" stroke="hsl(180.0,100%,35%)" stroke-width="0.00288"></path>
<path d="M1.539 0.478 Q0.841 0.294 0.328 0.595" stroke="hsl(180.0,100%,35%)" stroke-width="0.00058"></path>
<path d="M1.539 0.478 Q1.331 0.298 0.933 0.359" stroke="hsl(180.0,100%,35%)" stroke-width="0.00029"></path>
<path d="M1.539 0.478 Q1.338 0.598 1.528 0.723" stroke="hsl(180.0,100%,35%)" stroke-width="0.00029"></path>
<path d="M1.539 0.478 Q1.172 0.201 0.550 0.320" stroke="hsl(180.0,100%,35%)" stroke-width="0.00058"></path>
<path d="M1.539 0.478 Q0.550 0.344 0.070 0.797" stroke="hsl(180.0,100%,35%)" stroke-width="0.00029"></path>
<path d="M0.675 0.382 Q0.722 0.527 1.016 0.536" stroke="hsl(180.0,100%,35%)" stroke-width="0.00029"></path>
<path d="M0.675 0.382 Q0.303 0.667 0.777 0.911" stroke="hsl(180.0,100%,35%)" stroke-width="0.00029"></path>
<path d="M0.675 0.382 Q0.365 0.733 0.982 0.961" stroke="hsl(180.0,100%,35%)" stroke-width="0.00029"></path>
<path d="M0.675 0.382 Q0.433 0.506 0.622 0.651" stroke="hsl(180.0,100%,35%)" stroke-width="0.00029"></path>
<path d="M0.778 0.087 Q0.181 0.565 0.982 0.961" stroke="hsl(180.0,100%,35%)" stroke-width="0.00029"></path>
<path d="M0.778 0.087 Q0.570 0.067 0.485 0.164" stroke="hsl(180.0,100%,35%)" stroke-width="0.00029"></path>
<path d="M0.778 0.087 Q0.725 0.038 0.618 0.052" stroke="hsl(180.0,100%,35%)" stroke-width="0.00029"></path>
<path d="M0.829 0.502 Q1.002 0.752 1.528 0.723" stroke="hsl(0.0,100%,35%)" stroke-width="0.00029"></path>
<path d="M0.829 0.502 Q1.088 0.809 1.745 0.750" stroke="hsl(0.0,100%,35%)" stroke-width="0.00029"></path>
<path d="M0.829 0.502 Q0.835 0.355 0.550 0.320" stroke="hsl(0.0,100%,35%)" stroke-width="0.00029"></path>
<path d="M0.829 0.502 Q0.719 0.504 0.698 0.558" stroke="hsl(0.0,100%,35%)" stroke-width="0.00029"></path>
<path d="M0.829 0.502 Q0.884 0.504 0.900 0.477" stroke="hsl(0.0,100%,35%)" stroke-width="0.00029"></path>
<path d="M0.829 0.502 Q0.213 0.498 0.070 0.797" stroke="hsl(0.0,100%,35%)" stroke-width="0.00029"></path>
</g>
<text x="0.803" y="0.828" font-size="0.030219" fill="hsl(0.0,100%,20%)">aixba</text>
<text x="0.386" y="0.957" font-size="0.038309" fill="hsl(0.0,100%,20%)">asraine</text>
<text x="0.933" y="0.332" font-size="0.055147" fill="hsl(0.0,100%,20%)">jacktfranklin</text>
<text x="0.070" y="0.774" font-size="0.047351" fill="hsl(0.0,100%,20%)">paulirish</text>
<text x="0.147" y="0.885" font-size="0.045418" fill="hsl(0.0,100%,20%)">cjamcl</text>
<text x="0.900" y="0.462" font-size="0.031018" fill="hsl(0.0,100%,20%)">andoli</text>
<text x="0.982" y="0.931" font-size="0.060774" fill="hsl(180.0,100%,20%)">alexrudenko</text>
<text x="0.698" y="0.538" font-size="0.039151" fill="hsl(180.0,100%,20%)">szuend</text>
<text x="0.575" y="0.850" font-size="0.055294" fill="hsl(180.0,100%,20%)">nvitkov</text>
<text x="0.328" y="0.577" font-size="0.035088" fill="hsl(180.0,100%,20%)">pfaffe</text>
<text x="1.104" y="0.818" font-size="0.028979" fill="hsl(180.0,100%,20%)">samiyac</text>
<text x="0.368" y="0.728" font-size="0.054999" fill="hsl(180.0,100%,20%)">ergunsh</text>
<text x="0.550" y="0.303" font-size="0.033054" fill="hsl(0.0,100%,20%)">nancyly</text>
<text x="0.622" y="0.629" font-size="0.043865" fill="hsl(180.0,100%,20%)">dsv</text>
<text x="0.867" y="0.658" font-size="0.054477" fill="hsl(180.0,100%,20%)">bmeurer</text>
<text x="0.777" y="0.904" font-size="0.013694" fill="hsl(180.0,100%,20%)">mathias</text>
<text x="0.506" y="0.748" font-size="0.034620" fill="hsl(180.0,100%,20%)">wolfi</text>
<text x="1.145" y="0.681" font-size="0.019988" fill="hsl(180.0,100%,20%)">yangguo</text>
<text x="1.290" y="0.233" font-size="0.014560" fill="hsl(180.0,100%,20%)">liviurau</text>
<text x="1.022" y="0.181" font-size="0.033177" fill="hsl(0.0,100%,20%)">alinavarkki</text>
<text x="1.265" y="0.591" font-size="0.044328" fill="hsl(180.0,100%,20%)">kimanh</text>
<text x="1.528" y="0.702" font-size="0.040783" fill="hsl(180.0,100%,20%)">kprokopenko</text>
<text x="0.258" y="0.715" font-size="0.005711" fill="hsl(0.0,100%,20%)">amarjotgill</text>
<text x="1.383" y="0.404" font-size="0.018283" fill="hsl(180.0,100%,20%)">leese</text>
<text x="1.745" y="0.746" font-size="0.008566" fill="hsl(0.0,100%,20%)">petermueller</text>
<text x="1.633" y="0.783" font-size="0.008076" fill="hsl(180.0,100%,20%)">semel</text>
<text x="1.016" y="0.525" font-size="0.022301" fill="hsl(180.0,100%,20%)">changhaohan</text>
<text x="0.826" y="0.807" font-size="0.008076" fill="hsl(180.0,100%,20%)">cwu631</text>
<text x="0.915" y="0.496" font-size="0.006385" fill="hsl(180.0,100%,20%)">elormcoch</text>
<text x="1.113" y="0.494" font-size="0.008076" fill="hsl(180.0,100%,20%)">futhark</text>
<text x="0.248" y="0.972" font-size="0.006385" fill="hsl(0.0,100%,20%)">gux</text>
<text x="1.322" y="0.367" font-size="0.009030" fill="hsl(180.0,100%,20%)">ionutvoicila</text>
<text x="0.761" y="0.221" font-size="0.004038" fill="hsl(0.0,100%,20%)">victorporof</text>
<text x="1.753" y="0.491" font-size="0.015109" fill="hsl(180.0,100%,20%)">jalonthomas</text>
<text x="1.721" y="0.363" font-size="0.020983" fill="hsl(180.0,100%,20%)">shuuran</text>
<text x="1.911" y="0.762" font-size="0.011422" fill="hsl(0.0,100%,20%)">jaysonchen</text>
<text x="1.735" y="0.934" font-size="0.005711" fill="hsl(0.0,100%,20%)">rob.paveza</text>
<text x="1.839" y="0.196" font-size="0.004946" fill="hsl(0.0,100%,20%)">kenneth.r.christiansen</text>
<text x="1.576" y="0.189" font-size="0.002855" fill="hsl(0.0,100%,20%)">jec</text>
<text x="1.229" y="0.768" font-size="0.008566" fill="hsl(180.0,100%,20%)">kenoss</text>
<text x="1.283" y="0.787" font-size="0.002855" fill="hsl(180.0,100%,20%)">lingqi</text>
<text x="1.017" y="0.383" font-size="0.002855" fill="hsl(180.0,100%,20%)">domenic</text>
<text x="1.333" y="0.094" font-size="0.002855" fill="hsl(180.0,100%,20%)">alexschulze</text>
<text x="0.759" y="0.605" font-size="0.010684" fill="hsl(180.0,100%,20%)">marcelpuetz</text>
<text x="1.539" y="0.465" font-size="0.026633" fill="hsl(180.0,100%,20%)">masnoble</text>
<text x="0.675" y="0.379" font-size="0.005711" fill="hsl(180.0,100%,20%)">nsatragno</text>
<text x="0.778" y="0.084" font-size="0.004946" fill="hsl(180.0,100%,20%)">suzukikeita</text>
<text x="0.485" y="0.163" font-size="0.002855" fill="hsl(180.0,100%,20%)">sisidovski</text>
<text x="0.618" y="0.051" font-size="0.002855" fill="hsl(180.0,100%,20%)">yyanagisawa</text>
<text x="0.829" y="0.499" font-size="0.006994" fill="hsl(0.0,100%,20%)">yanlingwang</text>
</svg>
