<svg width="4000" height="2000" viewBox="-0.025 -0.025 2.05 1.05" xmlns="http://www.w3.org/2000/svg">
  <style>
    path {
      fill: none;
      stroke-linecap: round;
      stroke-opacity: 0.4;
    }

    text {
      text-anchor: middle;
      alignment-baseline: hanging;
    }
  </style>
  <g opacity="0.4">
<path d="M0.227 0.153 Q0.210 0.194 0.287 0.211" stroke="hsl(0.0,100%,35%)" stroke-width="0.00792"></path>
<path d="M0.227 0.153 Q0.449 0.183 0.555 0.081" stroke="hsl(0.0,100%,35%)" stroke-width="0.00792"></path>
<path d="M0.227 0.153 Q0.069 0.195 0.116 0.281" stroke="hsl(0.0,100%,35%)" stroke-width="0.00792"></path>
<path d="M0.828 0.696 Q0.950 0.619 0.827 0.543" stroke="hsl(90.0,100%,35%)" stroke-width="0.02376"></path>
<path d="M0.828 0.696 Q0.701 0.646 0.575 0.697" stroke="hsl(90.0,100%,35%)" stroke-width="0.01584"></path>
<path d="M0.828 0.696 Q0.969 0.802 1.205 0.756" stroke="hsl(90.0,100%,35%)" stroke-width="0.06335"></path>
<path d="M0.828 0.696 Q1.127 0.607 1.019 0.442" stroke="hsl(90.0,100%,35%)" stroke-width="0.00792"></path>
<path d="M0.828 0.696 Q0.835 0.541 0.532 0.503" stroke="hsl(90.0,100%,35%)" stroke-width="0.00792"></path>
<path d="M1.716 0.532 Q0.768 0.543 0.580 1.008" stroke="hsl(180.0,100%,35%)" stroke-width="0.03168"></path>
<path d="M1.716 0.532 Q0.731 0.316 0.092 0.749" stroke="hsl(180.0,100%,35%)" stroke-width="0.00792"></path>
<path d="M1.716 0.532 Q1.824 0.577 1.935 0.534" stroke="hsl(180.0,100%,35%)" stroke-width="0.00792"></path>
<path d="M1.716 0.532 Q1.606 0.475 1.470 0.516" stroke="hsl(180.0,100%,35%)" stroke-width="0.00792"></path>
<path d="M0.656 0.867 Q0.578 0.756 0.344 0.770" stroke="hsl(180.0,100%,35%)" stroke-width="0.01584"></path>
<path d="M0.656 0.867 Q0.806 0.882 0.868 0.812" stroke="hsl(180.0,100%,35%)" stroke-width="0.01584"></path>
<path d="M0.656 0.867 Q0.505 0.922 0.580 1.008" stroke="hsl(180.0,100%,35%)" stroke-width="0.02376"></path>
<path d="M0.656 0.867 Q0.468 0.695 0.092 0.749" stroke="hsl(180.0,100%,35%)" stroke-width="0.00792"></path>
<path d="M0.656 0.867 Q1.344 0.854 1.470 0.516" stroke="hsl(180.0,100%,35%)" stroke-width="0.00792"></path>
<path d="M0.656 0.867 Q0.745 0.949 0.925 0.923" stroke="hsl(180.0,100%,35%)" stroke-width="0.01584"></path>
<path d="M0.351 0.964 Q0.393 0.804 0.092 0.749" stroke="hsl(180.0,100%,35%)" stroke-width="0.04752"></path>
<path d="M0.351 0.964 Q0.502 0.865 0.344 0.770" stroke="hsl(180.0,100%,35%)" stroke-width="0.04752"></path>
<path d="M0.351 0.964 Q0.430 1.032 0.580 1.008" stroke="hsl(180.0,100%,35%)" stroke-width="0.05544"></path>
<path d="M1.402 0.255 Q1.463 0.153 1.279 0.101" stroke="hsl(270.0,100%,35%)" stroke-width="0.00792"></path>
<path d="M1.402 0.255 Q1.295 0.185 1.135 0.221" stroke="hsl(270.0,100%,35%)" stroke-width="0.00792"></path>
<path d="M1.402 0.255 Q1.509 0.369 1.755 0.341" stroke="hsl(270.0,100%,35%)" stroke-width="0.00792"></path>
<path d="M1.402 0.255 Q1.176 0.227 1.073 0.332" stroke="hsl(270.0,100%,35%)" stroke-width="0.00792"></path>
<path d="M1.021 0.082 Q0.434 0.351 0.828 0.696" stroke="hsl(90.0,100%,35%)" stroke-width="0.00792"></path>
<path d="M1.021 0.082 Q0.556 0.274 0.827 0.543" stroke="hsl(90.0,100%,35%)" stroke-width="0.00792"></path>
<path d="M1.021 0.082 Q0.783 0.109 0.783 0.231" stroke="hsl(90.0,100%,35%)" stroke-width="0.00792"></path>
<path d="M1.224 0.594 Q1.362 0.548 1.302 0.471" stroke="hsl(90.0,100%,35%)" stroke-width="0.01584"></path>
<path d="M1.224 0.594 Q1.243 0.477 1.019 0.442" stroke="hsl(90.0,100%,35%)" stroke-width="0.01584"></path>
<path d="M1.224 0.594 Q1.410 0.604 1.470 0.516" stroke="hsl(90.0,100%,35%)" stroke-width="0.01584"></path>
</g>
<text x="0.227" y="0.138" font-size="0.029704" fill="hsl(0.0,100%,20%)">alcooper</text>
<text x="0.287" y="0.203" font-size="0.017150" fill="hsl(0.0,100%,20%)">bialpio</text>
<text x="0.555" y="0.072" font-size="0.017150" fill="hsl(0.0,100%,20%)">bajones</text>
<text x="0.116" y="0.272" font-size="0.017150" fill="hsl(0.0,100%,20%)">klausw</text>
<text x="0.828" y="0.662" font-size="0.068599" fill="hsl(90.0,100%,20%)">andruud</text>
<text x="0.827" y="0.525" font-size="0.034300" fill="hsl(90.0,100%,20%)">futhark</text>
<text x="0.575" y="0.685" font-size="0.024254" fill="hsl(90.0,100%,20%)">kevers</text>
<text x="1.205" y="0.732" font-size="0.048507" fill="hsl(90.0,100%,20%)">ikilpatrick</text>
<text x="1.019" y="0.427" font-size="0.029704" fill="hsl(90.0,100%,20%)">flackr</text>
<text x="0.532" y="0.495" font-size="0.017150" fill="hsl(90.0,100%,20%)">yoavweiss</text>
<text x="1.716" y="0.510" font-size="0.045374" fill="hsl(180.0,100%,20%)">hferreiro</text>
<text x="0.580" y="0.976" font-size="0.064169" fill="hsl(180.0,100%,20%)">rego</text>
<text x="0.092" y="0.725" font-size="0.048507" fill="hsl(180.0,100%,20%)">jfernandez</text>
<text x="1.935" y="0.526" font-size="0.017150" fill="hsl(180.0,100%,20%)">lpz</text>
<text x="1.470" y="0.499" font-size="0.034300" fill="hsl(90.0,100%,20%)">pdr</text>
<text x="0.656" y="0.838" font-size="0.056880" fill="hsl(180.0,100%,20%)">jkim</text>
<text x="0.344" y="0.745" font-size="0.048507" fill="hsl(180.0,100%,20%)">cbiesinger</text>
<text x="0.868" y="0.800" font-size="0.024254" fill="hsl(180.0,100%,20%)">dgrogan</text>
<text x="0.925" y="0.911" font-size="0.024254" fill="hsl(180.0,100%,20%)">robertma</text>
<text x="0.351" y="0.926" font-size="0.074754" fill="hsl(180.0,100%,20%)">mario</text>
<text x="1.402" y="0.238" font-size="0.034300" fill="hsl(270.0,100%,20%)">mkwst</text>
<text x="1.279" y="0.093" font-size="0.017150" fill="hsl(270.0,100%,20%)">falken</text>
<text x="1.135" y="0.213" font-size="0.017150" fill="hsl(270.0,100%,20%)">horo</text>
<text x="1.755" y="0.333" font-size="0.017150" fill="hsl(270.0,100%,20%)">kinuko</text>
<text x="1.073" y="0.323" font-size="0.017150" fill="hsl(270.0,100%,20%)">wanderview</text>
<text x="1.021" y="0.068" font-size="0.029704" fill="hsl(90.0,100%,20%)">tkent</text>
<text x="0.783" y="0.223" font-size="0.017150" fill="hsl(90.0,100%,20%)">kojii</text>
<text x="1.224" y="0.573" font-size="0.042008" fill="hsl(90.0,100%,20%)">wangxianzhu</text>
<text x="1.302" y="0.458" font-size="0.024254" fill="hsl(90.0,100%,20%)">bokan</text>
</svg>
