<svg width="4000" height="2000" viewBox="-0.025 -0.025 2.05 1.05" xmlns="http://www.w3.org/2000/svg">
  <style>
    path {
      fill: none;
      stroke-linecap: round;
      stroke-opacity: 0.4;
    }

    text {
      text-anchor: middle;
      alignment-baseline: hanging;
    }
  </style>
  <g opacity="0.4">
<path d="M0.951 0.397 Q1.063 0.457 1.205 0.415" stroke="hsl(0.0,100%,35%)" stroke-width="0.00650"></path>
<path d="M0.951 0.397 Q0.989 0.415 1.032 0.401" stroke="hsl(0.0,100%,35%)" stroke-width="0.00650"></path>
<path d="M0.951 0.397 Q0.397 0.467 0.411 0.752" stroke="hsl(0.0,100%,35%)" stroke-width="0.00650"></path>
<path d="M0.951 0.397 Q0.927 0.491 1.106 0.524" stroke="hsl(0.0,100%,35%)" stroke-width="0.00650"></path>
<path d="M0.951 0.397 Q1.167 0.524 1.461 0.446" stroke="hsl(0.0,100%,35%)" stroke-width="0.00650"></path>
<path d="M0.951 0.397 Q0.965 0.478 1.126 0.489" stroke="hsl(0.0,100%,35%)" stroke-width="0.00650"></path>
<path d="M0.951 0.397 Q0.808 0.400 0.781 0.470" stroke="hsl(0.0,100%,35%)" stroke-width="0.00650"></path>
<path d="M0.951 0.397 Q0.890 0.442 0.965 0.482" stroke="hsl(0.0,100%,35%)" stroke-width="0.00650"></path>
<path d="M0.279 0.099 Q0.259 0.585 1.203 0.702" stroke="hsl(0.0,100%,35%)" stroke-width="0.00650"></path>
<path d="M0.279 0.099 Q0.114 0.121 0.120 0.206" stroke="hsl(0.0,100%,35%)" stroke-width="0.00650"></path>
<path d="M0.279 0.099 Q0.285 0.069 0.228 0.060" stroke="hsl(0.0,100%,35%)" stroke-width="0.00650"></path>
<path d="M1.670 0.211 Q0.960 0.521 1.408 0.936" stroke="hsl(90.0,100%,35%)" stroke-width="0.00650"></path>
<path d="M1.670 0.211 Q1.626 0.249 1.690 0.279" stroke="hsl(90.0,100%,35%)" stroke-width="0.00650"></path>
<path d="M1.670 0.211 Q1.505 0.195 1.438 0.273" stroke="hsl(90.0,100%,35%)" stroke-width="0.00650"></path>
<path d="M1.408 0.936 Q1.342 0.849 1.159 0.862" stroke="hsl(0.0,100%,35%)" stroke-width="0.02600"></path>
<path d="M1.408 0.936 Q1.537 0.863 1.423 0.784" stroke="hsl(0.0,100%,35%)" stroke-width="0.00650"></path>
<path d="M1.408 0.936 Q1.827 0.701 1.461 0.446" stroke="hsl(0.0,100%,35%)" stroke-width="0.01950"></path>
<path d="M1.438 0.273 Q1.603 0.288 1.670 0.211" stroke="hsl(90.0,100%,35%)" stroke-width="0.02600"></path>
<path d="M1.438 0.273 Q1.448 0.188 1.286 0.165" stroke="hsl(90.0,100%,35%)" stroke-width="0.01300"></path>
<path d="M1.438 0.273 Q1.365 0.298 1.399 0.339" stroke="hsl(90.0,100%,35%)" stroke-width="0.00650"></path>
<path d="M0.569 0.040 Q0.542 0.085 0.625 0.108" stroke="hsl(0.0,100%,35%)" stroke-width="0.01300"></path>
<path d="M0.569 0.040 Q0.690 0.421 1.461 0.446" stroke="hsl(0.0,100%,35%)" stroke-width="0.00650"></path>
<path d="M0.569 0.040 Q0.672 0.067 0.749 0.023" stroke="hsl(0.0,100%,35%)" stroke-width="0.00650"></path>
<path d="M0.749 0.023 Q1.074 0.420 1.920 0.348" stroke="hsl(0.0,100%,35%)" stroke-width="0.00650"></path>
<path d="M0.749 0.023 Q-0.007 0.404 0.571 0.856" stroke="hsl(0.0,100%,35%)" stroke-width="0.00650"></path>
<path d="M0.749 0.023 Q0.646 -0.005 0.569 0.040" stroke="hsl(0.0,100%,35%)" stroke-width="0.00650"></path>
<path d="M1.159 0.862 Q1.310 0.791 1.203 0.702" stroke="hsl(0.0,100%,35%)" stroke-width="0.00650"></path>
<path d="M1.159 0.862 Q1.233 0.765 1.060 0.708" stroke="hsl(0.0,100%,35%)" stroke-width="0.00650"></path>
<path d="M1.159 0.862 Q1.160 0.762 0.963 0.739" stroke="hsl(0.0,100%,35%)" stroke-width="0.01950"></path>
<path d="M1.159 0.862 Q1.257 0.811 1.178 0.752" stroke="hsl(0.0,100%,35%)" stroke-width="0.01300"></path>
<path d="M1.159 0.862 Q1.225 0.949 1.408 0.936" stroke="hsl(0.0,100%,35%)" stroke-width="0.00650"></path>
<path d="M0.446 0.653 Q0.608 0.655 0.647 0.575" stroke="hsl(45.0,100%,35%)" stroke-width="0.01950"></path>
<path d="M0.446 0.653 Q0.761 0.745 1.010 0.611" stroke="hsl(45.0,100%,35%)" stroke-width="0.00650"></path>
<path d="M0.446 0.653 Q0.624 0.594 0.548 0.494" stroke="hsl(45.0,100%,35%)" stroke-width="0.00650"></path>
<path d="M1.010 0.611 Q0.906 0.611 0.883 0.662" stroke="hsl(45.0,100%,35%)" stroke-width="0.02600"></path>
<path d="M1.010 0.611 Q1.115 0.875 1.653 0.882" stroke="hsl(45.0,100%,35%)" stroke-width="0.00650"></path>
<path d="M1.010 0.611 Q1.368 0.619 1.461 0.446" stroke="hsl(45.0,100%,35%)" stroke-width="0.00650"></path>
<path d="M0.966 0.136 Q0.712 0.646 1.653 0.882" stroke="hsl(0.0,100%,35%)" stroke-width="0.00650"></path>
<path d="M0.966 0.136 Q1.083 0.109 1.056 0.045" stroke="hsl(0.0,100%,35%)" stroke-width="0.02600"></path>
<path d="M0.966 0.136 Q0.192 0.417 0.571 0.856" stroke="hsl(0.0,100%,35%)" stroke-width="0.00650"></path>
<path d="M0.343 0.515 Q0.491 0.484 0.463 0.405" stroke="hsl(135.0,100%,35%)" stroke-width="0.01300"></path>
<path d="M0.343 0.515 Q0.514 0.452 0.429 0.355" stroke="hsl(135.0,100%,35%)" stroke-width="0.00650"></path>
<path d="M0.343 0.515 Q0.466 0.533 0.528 0.477" stroke="hsl(135.0,100%,35%)" stroke-width="0.00650"></path>
<path d="M1.887 0.828 Q1.762 0.749 1.581 0.792" stroke="hsl(45.0,100%,35%)" stroke-width="0.00650"></path>
<path d="M1.887 0.828 Q1.726 0.808 1.653 0.882" stroke="hsl(45.0,100%,35%)" stroke-width="0.01300"></path>
<path d="M1.887 0.828 Q1.927 0.784 1.851 0.755" stroke="hsl(45.0,100%,35%)" stroke-width="0.00650"></path>
<path d="M1.887 0.828 Q1.903 0.789 1.831 0.772" stroke="hsl(45.0,100%,35%)" stroke-width="0.00650"></path>
<path d="M1.887 0.828 Q1.666 0.142 0.279 0.099" stroke="hsl(45.0,100%,35%)" stroke-width="0.00650"></path>
<path d="M1.887 0.828 Q1.469 0.453 0.647 0.575" stroke="hsl(45.0,100%,35%)" stroke-width="0.00650"></path>
<path d="M1.887 0.828 Q1.495 0.699 1.159 0.862" stroke="hsl(45.0,100%,35%)" stroke-width="0.00650"></path>
<path d="M1.887 0.828 Q1.948 0.767 1.843 0.724" stroke="hsl(45.0,100%,35%)" stroke-width="0.00650"></path>
<path d="M1.887 0.828 Q1.829 0.856 1.871 0.890" stroke="hsl(45.0,100%,35%)" stroke-width="0.00650"></path>
<path d="M1.195 0.376 Q1.334 0.314 1.242 0.232" stroke="hsl(0.0,100%,35%)" stroke-width="0.01300"></path>
<path d="M1.195 0.376 Q0.919 0.183 0.480 0.275" stroke="hsl(0.0,100%,35%)" stroke-width="0.01300"></path>
<path d="M1.195 0.376 Q1.214 0.276 1.023 0.245" stroke="hsl(0.0,100%,35%)" stroke-width="0.01300"></path>
<path d="M0.480 0.275 Q0.895 0.406 1.242 0.232" stroke="hsl(0.0,100%,35%)" stroke-width="0.00650"></path>
<path d="M0.480 0.275 Q0.776 0.368 1.023 0.245" stroke="hsl(0.0,100%,35%)" stroke-width="0.00650"></path>
<path d="M0.480 0.275 Q0.586 0.334 0.724 0.296" stroke="hsl(0.0,100%,35%)" stroke-width="0.00650"></path>
<path d="M1.934 0.585 Q1.871 0.639 1.964 0.682" stroke="hsl(180.0,100%,35%)" stroke-width="0.01950"></path>
<path d="M1.934 0.585 Q1.750 0.565 1.671 0.650" stroke="hsl(180.0,100%,35%)" stroke-width="0.00650"></path>
<path d="M1.934 0.585 Q1.810 0.517 1.650 0.562" stroke="hsl(180.0,100%,35%)" stroke-width="0.00650"></path>
<path d="M0.121 0.810 Q0.203 0.858 0.313 0.828" stroke="hsl(225.0,100%,35%)" stroke-width="0.00650"></path>
<path d="M0.121 0.810 Q0.180 0.862 0.293 0.844" stroke="hsl(225.0,100%,35%)" stroke-width="0.00650"></path>
<path d="M0.121 0.810 Q0.067 0.888 0.207 0.932" stroke="hsl(225.0,100%,35%)" stroke-width="0.03250"></path>
<path d="M0.654 0.374 Q1.061 0.421 1.242 0.232" stroke="hsl(0.0,100%,35%)" stroke-width="0.00650"></path>
<path d="M0.654 0.374 Q0.646 0.290 0.480 0.275" stroke="hsl(0.0,100%,35%)" stroke-width="0.00650"></path>
<path d="M0.654 0.374 Q0.751 0.349 0.724 0.296" stroke="hsl(0.0,100%,35%)" stroke-width="0.00650"></path>
<path d="M0.451 0.948 Q0.342 0.891 0.207 0.932" stroke="hsl(225.0,100%,35%)" stroke-width="0.01300"></path>
<path d="M0.451 0.948 Q0.396 0.813 0.121 0.810" stroke="hsl(225.0,100%,35%)" stroke-width="0.00650"></path>
<path d="M0.451 0.948 Q0.654 1.053 0.904 0.977" stroke="hsl(225.0,100%,35%)" stroke-width="0.00650"></path>
<path d="M0.451 0.948 Q0.585 0.994 0.704 0.938" stroke="hsl(225.0,100%,35%)" stroke-width="0.00650"></path>
<path d="M0.808 0.822 Q0.718 0.862 0.777 0.915" stroke="hsl(0.0,100%,35%)" stroke-width="0.00650"></path>
<path d="M0.808 0.822 Q0.662 0.792 0.571 0.856" stroke="hsl(0.0,100%,35%)" stroke-width="0.00650"></path>
<path d="M0.808 0.822 Q1.082 0.483 0.480 0.275" stroke="hsl(0.0,100%,35%)" stroke-width="0.00650"></path>
<path d="M0.519 0.157 Q0.406 0.208 0.480 0.275" stroke="hsl(0.0,100%,35%)" stroke-width="0.01950"></path>
<path d="M0.519 0.157 Q0.511 0.267 0.724 0.296" stroke="hsl(0.0,100%,35%)" stroke-width="0.00650"></path>
<path d="M0.519 0.157 Q0.821 0.339 1.242 0.232" stroke="hsl(0.0,100%,35%)" stroke-width="0.00650"></path>
<path d="M0.519 0.157 Q0.347 0.186 0.366 0.277" stroke="hsl(0.0,100%,35%)" stroke-width="0.00650"></path>
<path d="M0.519 0.157 Q0.701 0.302 1.023 0.245" stroke="hsl(0.0,100%,35%)" stroke-width="0.00650"></path>
<path d="M0.134 0.404 Q0.182 0.348 0.083 0.312" stroke="hsl(270.0,100%,35%)" stroke-width="0.01300"></path>
<path d="M0.134 0.404 Q0.048 0.446 0.112 0.497" stroke="hsl(270.0,100%,35%)" stroke-width="0.00650"></path>
<path d="M0.134 0.404 Q-0.023 0.534 0.197 0.639" stroke="hsl(270.0,100%,35%)" stroke-width="0.00650"></path>
<path d="M1.552 0.107 Q1.623 0.108 1.640 0.073" stroke="hsl(315.0,100%,35%)" stroke-width="0.01300"></path>
<path d="M1.552 0.107 Q1.592 0.071 1.531 0.043" stroke="hsl(315.0,100%,35%)" stroke-width="0.01300"></path>
<path d="M1.552 0.107 Q1.467 0.080 1.396 0.116" stroke="hsl(315.0,100%,35%)" stroke-width="0.01300"></path>
<path d="M0.789 0.507 Q0.401 0.706 0.704 0.938" stroke="hsl(225.0,100%,35%)" stroke-width="0.00650"></path>
<path d="M0.789 0.507 Q0.597 0.598 0.731 0.711" stroke="hsl(225.0,100%,35%)" stroke-width="0.00650"></path>
<path d="M0.789 0.507 Q0.813 0.454 0.714 0.431" stroke="hsl(225.0,100%,35%)" stroke-width="0.00650"></path>
<path d="M0.569 0.726 Q1.376 0.589 1.286 0.165" stroke="hsl(90.0,100%,35%)" stroke-width="0.00650"></path>
<path d="M0.569 0.726 Q0.489 0.742 0.503 0.784" stroke="hsl(90.0,100%,35%)" stroke-width="0.01300"></path>
<path d="M0.569 0.726 Q0.470 0.708 0.411 0.752" stroke="hsl(90.0,100%,35%)" stroke-width="0.00650"></path>
<path d="M1.095 0.998 Q1.016 0.949 0.904 0.977" stroke="hsl(225.0,100%,35%)" stroke-width="0.01300"></path>
<path d="M1.095 0.998 Q1.142 0.782 0.731 0.711" stroke="hsl(225.0,100%,35%)" stroke-width="0.00650"></path>
<path d="M1.095 0.998 Q1.154 0.988 1.148 0.958" stroke="hsl(225.0,100%,35%)" stroke-width="0.00650"></path>
<path d="M1.651 0.419 Q1.517 0.041 0.749 0.023" stroke="hsl(0.0,100%,35%)" stroke-width="0.00650"></path>
<path d="M1.651 0.419 Q1.535 0.394 1.461 0.446" stroke="hsl(0.0,100%,35%)" stroke-width="0.01950"></path>
<path d="M1.651 0.419 Q1.842 0.437 1.920 0.348" stroke="hsl(0.0,100%,35%)" stroke-width="0.01300"></path>
</g>
<text x="0.951" y="0.380" font-size="0.033686" fill="hsl(0.0,100%,20%)">aleventhal</text>
<text x="1.205" y="0.409" font-size="0.011910" fill="hsl(0.0,100%,20%)">alexmos</text>
<text x="1.032" y="0.395" font-size="0.011910" fill="hsl(0.0,100%,20%)">chrishtr</text>
<text x="0.411" y="0.744" font-size="0.016843" fill="hsl(0.0,100%,20%)">dcheng</text>
<text x="1.106" y="0.518" font-size="0.011910" fill="hsl(0.0,100%,20%)">dpapad</text>
<text x="1.461" y="0.428" font-size="0.035729" fill="hsl(0.0,100%,20%)">masonf</text>
<text x="1.126" y="0.484" font-size="0.011910" fill="hsl(0.0,100%,20%)">thakis</text>
<text x="0.781" y="0.464" font-size="0.011910" fill="hsl(0.0,100%,20%)">torne</text>
<text x="0.965" y="0.476" font-size="0.011910" fill="hsl(0.0,100%,20%)">zork</text>
<text x="0.279" y="0.087" font-size="0.023820" fill="hsl(0.0,100%,20%)">beaufort.francois</text>
<text x="1.203" y="0.694" font-size="0.016843" fill="hsl(0.0,100%,20%)">arthursonzogni</text>
<text x="0.120" y="0.200" font-size="0.011910" fill="hsl(0.0,100%,20%)">mattreynolds</text>
<text x="0.228" y="0.054" font-size="0.011910" fill="hsl(45.0,100%,20%)">yoavweiss</text>
<text x="1.670" y="0.195" font-size="0.031510" fill="hsl(90.0,100%,20%)">behamilton</text>
<text x="1.408" y="0.917" font-size="0.037662" fill="hsl(0.0,100%,20%)">dom</text>
<text x="1.690" y="0.273" font-size="0.011910" fill="hsl(90.0,100%,20%)">fmalita</text>
<text x="1.438" y="0.256" font-size="0.033686" fill="hsl(90.0,100%,20%)">morlovich</text>
<text x="0.569" y="0.026" font-size="0.026631" fill="hsl(0.0,100%,20%)">chromium</text>
<text x="0.625" y="0.100" font-size="0.016843" fill="hsl(0.0,100%,20%)">lwarlow</text>
<text x="0.749" y="0.010" font-size="0.026631" fill="hsl(0.0,100%,20%)">jarhar</text>
<text x="1.159" y="0.841" font-size="0.042941" fill="hsl(0.0,100%,20%)">nrosenthal</text>
<text x="1.423" y="0.778" font-size="0.011910" fill="hsl(0.0,100%,20%)">japhet</text>
<text x="0.446" y="0.640" font-size="0.026631" fill="hsl(45.0,100%,20%)">fs</text>
<text x="0.647" y="0.564" font-size="0.023820" fill="hsl(45.0,100%,20%)">pdr</text>
<text x="1.010" y="0.595" font-size="0.031510" fill="hsl(45.0,100%,20%)">futhark</text>
<text x="0.548" y="0.488" font-size="0.011910" fill="hsl(45.0,100%,20%)">schenney</text>
<text x="0.883" y="0.650" font-size="0.023820" fill="hsl(45.0,100%,20%)">andruud</text>
<text x="1.653" y="0.870" font-size="0.023820" fill="hsl(0.0,100%,20%)">mstensho</text>
<text x="0.966" y="0.121" font-size="0.029173" fill="hsl(0.0,100%,20%)">ikilpatrick</text>
<text x="1.056" y="0.034" font-size="0.023820" fill="hsl(0.0,100%,20%)">dgrogan</text>
<text x="0.571" y="0.846" font-size="0.020628" fill="hsl(0.0,100%,20%)">dbaron</text>
<text x="0.343" y="0.503" font-size="0.023820" fill="hsl(135.0,100%,20%)">janiceliu</text>
<text x="0.463" y="0.397" font-size="0.016843" fill="hsl(135.0,100%,20%)">awillia</text>
<text x="0.429" y="0.349" font-size="0.011910" fill="hsl(135.0,100%,20%)">kyraseevers</text>
<text x="0.528" y="0.471" font-size="0.011910" fill="hsl(135.0,100%,20%)">tkent</text>
<text x="1.920" y="0.338" font-size="0.020628" fill="hsl(0.0,100%,20%)">tcaptan</text>
<text x="1.887" y="0.809" font-size="0.037662" fill="hsl(45.0,100%,20%)">jonathanjlee</text>
<text x="1.581" y="0.786" font-size="0.011910" fill="hsl(45.0,100%,20%)">finnur</text>
<text x="1.851" y="0.749" font-size="0.011910" fill="hsl(45.0,100%,20%)">arichiv</text>
<text x="1.831" y="0.766" font-size="0.011910" fill="hsl(45.0,100%,20%)">chengweih</text>
<text x="1.843" y="0.718" font-size="0.011910" fill="hsl(45.0,100%,20%)">iclelland</text>
<text x="1.871" y="0.884" font-size="0.011910" fill="hsl(45.0,100%,20%)">reillyg</text>
<text x="1.195" y="0.362" font-size="0.029173" fill="hsl(0.0,100%,20%)">lisha.guo</text>
<text x="1.242" y="0.219" font-size="0.026631" fill="hsl(0.0,100%,20%)">ajgo</text>
<text x="0.480" y="0.256" font-size="0.037662" fill="hsl(0.0,100%,20%)">ningxin.hu</text>
<text x="1.023" y="0.233" font-size="0.023820" fill="hsl(0.0,100%,20%)">rafael.cintron</text>
<text x="1.934" y="0.571" font-size="0.026631" fill="hsl(180.0,100%,20%)">memmott</text>
<text x="1.964" y="0.672" font-size="0.020628" fill="hsl(180.0,100%,20%)">christinesm</text>
<text x="1.671" y="0.644" font-size="0.011910" fill="hsl(180.0,100%,20%)">danakj</text>
<text x="1.650" y="0.556" font-size="0.011910" fill="hsl(180.0,100%,20%)">ayui</text>
<text x="1.286" y="0.155" font-size="0.020628" fill="hsl(90.0,100%,20%)">mmenke</text>
<text x="1.399" y="0.333" font-size="0.011910" fill="hsl(90.0,100%,20%)">qingxinwu</text>
<text x="0.724" y="0.286" font-size="0.020628" fill="hsl(0.0,100%,20%)">weizhong</text>
<text x="1.060" y="0.702" font-size="0.011910" fill="hsl(0.0,100%,20%)">haraken</text>
<text x="0.963" y="0.729" font-size="0.020628" fill="hsl(0.0,100%,20%)">khushalsagar</text>
<text x="1.178" y="0.744" font-size="0.016843" fill="hsl(0.0,100%,20%)">vmpstr</text>
<text x="0.121" y="0.794" font-size="0.033686" fill="hsl(225.0,100%,20%)">nsatragno</text>
<text x="0.313" y="0.822" font-size="0.011910" fill="hsl(225.0,100%,20%)">natiahlyi</text>
<text x="0.293" y="0.838" font-size="0.011910" fill="hsl(225.0,100%,20%)">lbrady</text>
<text x="0.207" y="0.916" font-size="0.031510" fill="hsl(225.0,100%,20%)">kenrb</text>
<text x="0.654" y="0.363" font-size="0.020628" fill="hsl(0.0,100%,20%)">patrto</text>
<text x="0.451" y="0.935" font-size="0.026631" fill="hsl(225.0,100%,20%)">pkotwicz</text>
<text x="0.904" y="0.967" font-size="0.020628" fill="hsl(225.0,100%,20%)">cbiesinger</text>
<text x="0.704" y="0.930" font-size="0.016843" fill="hsl(225.0,100%,20%)">avi</text>
<text x="0.808" y="0.812" font-size="0.020628" fill="hsl(0.0,100%,20%)">shanxing.mei</text>
<text x="0.777" y="0.909" font-size="0.011910" fill="hsl(0.0,100%,20%)">asully</text>
<text x="0.519" y="0.141" font-size="0.031510" fill="hsl(0.0,100%,20%)">shiyi.zou</text>
<text x="0.366" y="0.271" font-size="0.011910" fill="hsl(0.0,100%,20%)">kojii</text>
<text x="0.134" y="0.392" font-size="0.023820" fill="hsl(270.0,100%,20%)">sunggch</text>
<text x="0.083" y="0.304" font-size="0.016843" fill="hsl(270.0,100%,20%)">gabrielbrito</text>
<text x="0.112" y="0.491" font-size="0.011910" fill="hsl(270.0,100%,20%)">mjwilson</text>
<text x="0.197" y="0.633" font-size="0.011910" fill="hsl(270.0,100%,20%)">handellm</text>
<text x="1.552" y="0.092" font-size="0.029173" fill="hsl(315.0,100%,20%)">suzukikeita</text>
<text x="1.640" y="0.064" font-size="0.016843" fill="hsl(315.0,100%,20%)">sisidovski</text>
<text x="1.531" y="0.034" font-size="0.016843" fill="hsl(315.0,100%,20%)">toyoshim</text>
<text x="1.396" y="0.107" font-size="0.016843" fill="hsl(315.0,100%,20%)">yyanagisawa</text>
<text x="0.789" y="0.497" font-size="0.020628" fill="hsl(225.0,100%,20%)">xiaobincui</text>
<text x="0.731" y="0.703" font-size="0.016843" fill="hsl(225.0,100%,20%)">dtapuska</text>
<text x="0.714" y="0.425" font-size="0.011910" fill="hsl(225.0,100%,20%)">jkim</text>
<text x="0.569" y="0.715" font-size="0.023820" fill="hsl(90.0,100%,20%)">ybourouphael</text>
<text x="0.503" y="0.776" font-size="0.016843" fill="hsl(0.0,100%,20%)">orrb</text>
<text x="1.095" y="0.986" font-size="0.023820" fill="hsl(225.0,100%,20%)">yigu</text>
<text x="1.148" y="0.952" font-size="0.011910" fill="hsl(225.0,100%,20%)">joenotcharles</text>
<text x="1.651" y="0.405" font-size="0.029173" fill="hsl(0.0,100%,20%)">zhoupeng.1996</text>
</svg>
