<svg width="4000" height="2000" viewBox="-0.025 -0.025 2.05 1.05" xmlns="http://www.w3.org/2000/svg">
  <style>
    path {
      fill: none;
      stroke-linecap: round;
      stroke-opacity: 0.4;
    }

    text {
      text-anchor: middle;
      alignment-baseline: hanging;
    }
  </style>
  <g opacity="0.4">
<path d="M1.276 0.876 Q1.314 0.681 0.942 0.619" stroke="hsl(0.0,100%,35%)" stroke-width="0.02440"></path>
<path d="M1.276 0.876 Q1.340 0.993 1.583 0.987" stroke="hsl(0.0,100%,35%)" stroke-width="0.00407"></path>
<path d="M1.276 0.876 Q1.489 0.804 1.395 0.684" stroke="hsl(0.0,100%,35%)" stroke-width="0.00407"></path>
<path d="M1.276 0.876 Q1.876 0.689 1.643 0.355" stroke="hsl(0.0,100%,35%)" stroke-width="0.00407"></path>
<path d="M1.276 0.876 Q0.965 0.720 0.594 0.838" stroke="hsl(0.0,100%,35%)" stroke-width="0.00813"></path>
<path d="M1.276 0.876 Q1.936 0.589 1.522 0.204" stroke="hsl(0.0,100%,35%)" stroke-width="0.00407"></path>
<path d="M0.942 0.619 Q0.527 0.727 0.645 0.953" stroke="hsl(0.0,100%,35%)" stroke-width="0.00407"></path>
<path d="M0.942 0.619 Q0.593 0.659 0.594 0.838" stroke="hsl(0.0,100%,35%)" stroke-width="0.01627"></path>
<path d="M0.942 0.619 Q0.950 0.679 1.070 0.689" stroke="hsl(0.0,100%,35%)" stroke-width="0.00407"></path>
<path d="M0.942 0.619 Q1.564 0.527 1.522 0.204" stroke="hsl(0.0,100%,35%)" stroke-width="0.00407"></path>
<path d="M1.643 0.355 Q1.082 0.347 0.942 0.619" stroke="hsl(0.0,100%,35%)" stroke-width="0.01627"></path>
<path d="M1.643 0.355 Q1.703 0.255 1.522 0.204" stroke="hsl(0.0,100%,35%)" stroke-width="0.00407"></path>
<path d="M1.643 0.355 Q1.393 0.366 1.358 0.490" stroke="hsl(0.0,100%,35%)" stroke-width="0.00407"></path>
<path d="M1.643 0.355 Q0.733 0.387 0.594 0.838" stroke="hsl(0.0,100%,35%)" stroke-width="0.02034"></path>
<path d="M1.643 0.355 Q0.666 0.455 0.645 0.953" stroke="hsl(0.0,100%,35%)" stroke-width="0.00407"></path>
<path d="M0.594 0.838 Q0.527 0.906 0.645 0.953" stroke="hsl(0.0,100%,35%)" stroke-width="0.03254"></path>
<path d="M0.594 0.838 Q0.943 0.798 0.942 0.619" stroke="hsl(0.0,100%,35%)" stroke-width="0.03660"></path>
<path d="M0.594 0.838 Q1.504 0.806 1.643 0.355" stroke="hsl(0.0,100%,35%)" stroke-width="0.00813"></path>
<path d="M1.522 0.204 Q0.900 0.296 0.942 0.619" stroke="hsl(0.0,100%,35%)" stroke-width="0.02847"></path>
<path d="M1.522 0.204 Q0.484 0.403 0.645 0.953" stroke="hsl(0.0,100%,35%)" stroke-width="0.00813"></path>
<path d="M1.522 0.204 Q0.551 0.335 0.594 0.838" stroke="hsl(0.0,100%,35%)" stroke-width="0.01220"></path>
<path d="M1.522 0.204 Q1.461 0.304 1.643 0.355" stroke="hsl(0.0,100%,35%)" stroke-width="0.05287"></path>
<path d="M1.522 0.204 Q1.366 0.418 1.749 0.541" stroke="hsl(0.0,100%,35%)" stroke-width="0.00813"></path>
<path d="M0.750 0.255 Q0.555 0.476 0.942 0.619" stroke="hsl(0.0,100%,35%)" stroke-width="0.00407"></path>
<path d="M0.750 0.255 Q1.116 0.484 1.643 0.355" stroke="hsl(0.0,100%,35%)" stroke-width="0.00407"></path>
<path d="M0.750 0.255 Q0.946 0.310 1.097 0.227" stroke="hsl(0.0,100%,35%)" stroke-width="0.00407"></path>
<path d="M0.750 0.255 Q0.139 0.583 0.645 0.953" stroke="hsl(0.0,100%,35%)" stroke-width="0.00407"></path>
<path d="M1.749 0.541 Q1.283 0.419 0.942 0.619" stroke="hsl(0.0,100%,35%)" stroke-width="0.01220"></path>
<path d="M1.749 0.541 Q1.458 0.542 1.395 0.684" stroke="hsl(0.0,100%,35%)" stroke-width="0.00813"></path>
<path d="M1.749 0.541 Q1.905 0.327 1.522 0.204" stroke="hsl(0.0,100%,35%)" stroke-width="0.00813"></path>
<path d="M0.643 0.492 Q0.691 0.616 0.942 0.619" stroke="hsl(0.0,100%,35%)" stroke-width="0.00813"></path>
<path d="M0.643 0.492 Q1.252 0.624 1.643 0.355" stroke="hsl(0.0,100%,35%)" stroke-width="0.00407"></path>
<path d="M0.643 0.492 Q0.342 0.655 0.594 0.838" stroke="hsl(0.0,100%,35%)" stroke-width="0.00407"></path>
</g>
<text x="1.276" y="0.850" font-size="0.051075" fill="hsl(0.0,100%,20%)">aaronwood</text>
<text x="0.942" y="0.573" font-size="0.092077" fill="hsl(0.0,100%,20%)">brettw</text>
<text x="1.583" y="0.980" font-size="0.014744" fill="hsl(0.0,100%,20%)">computerdruid</text>
<text x="1.395" y="0.671" font-size="0.025538" fill="hsl(0.0,100%,20%)">tmandry</text>
<text x="1.643" y="0.315" font-size="0.080757" fill="hsl(0.0,100%,20%)">sdefresne</text>
<text x="0.594" y="0.795" font-size="0.085973" fill="hsl(0.0,100%,20%)">tikuta</text>
<text x="1.522" y="0.162" font-size="0.083406" fill="hsl(0.0,100%,20%)">digit</text>
<text x="0.750" y="0.240" font-size="0.029488" fill="hsl(0.0,100%,20%)">andrewsavage</text>
<text x="1.097" y="0.219" font-size="0.014744" fill="hsl(0.0,100%,20%)">mcgrathr</text>
<text x="0.645" y="0.927" font-size="0.053161" fill="hsl(0.0,100%,20%)">phosek</text>
<text x="1.070" y="0.681" font-size="0.014744" fill="hsl(0.0,100%,20%)">thakis</text>
<text x="1.749" y="0.519" font-size="0.044233" fill="hsl(0.0,100%,20%)">danakj</text>
<text x="0.643" y="0.477" font-size="0.029488" fill="hsl(0.0,100%,20%)">mfarazma</text>
<text x="1.358" y="0.483" font-size="0.014744" fill="hsl(0.0,100%,20%)">justincohen</text>
</svg>
