<svg width="4000" height="2000" viewBox="-0.025 -0.025 2.05 1.05" xmlns="http://www.w3.org/2000/svg">
  <style>
    path {
      fill: none;
      stroke-linecap: round;
      stroke-opacity: 0.4;
    }

    text {
      text-anchor: middle;
      alignment-baseline: hanging;
    }
  </style>
  <g opacity="0.4">
<path d="M1.622 0.364 Q1.278 0.292 1.063 0.444" stroke="hsl(0.0,100%,35%)" stroke-width="0.01463"></path>
<path d="M1.622 0.364 Q1.098 0.441 1.134 0.714" stroke="hsl(0.0,100%,35%)" stroke-width="0.01463"></path>
<path d="M1.622 0.364 Q1.064 0.568 1.340 0.885" stroke="hsl(0.0,100%,35%)" stroke-width="0.00732"></path>
<path d="M1.622 0.364 Q1.535 0.502 1.787 0.575" stroke="hsl(0.0,100%,35%)" stroke-width="0.00732"></path>
<path d="M1.134 0.714 Q0.901 0.645 0.716 0.743" stroke="hsl(0.0,100%,35%)" stroke-width="0.02195"></path>
<path d="M1.134 0.714 Q1.100 0.841 1.340 0.885" stroke="hsl(0.0,100%,35%)" stroke-width="0.00732"></path>
<path d="M1.134 0.714 Q1.314 0.565 1.063 0.444" stroke="hsl(0.0,100%,35%)" stroke-width="0.01463"></path>
<path d="M1.340 0.885 Q1.374 0.758 1.134 0.714" stroke="hsl(0.0,100%,35%)" stroke-width="0.12439"></path>
<path d="M1.340 0.885 Q1.554 0.609 1.063 0.444" stroke="hsl(0.0,100%,35%)" stroke-width="0.02195"></path>
<path d="M1.340 0.885 Q1.536 0.866 1.542 0.767" stroke="hsl(0.0,100%,35%)" stroke-width="0.00732"></path>
<path d="M1.410 0.561 Q1.116 0.709 1.340 0.885" stroke="hsl(0.0,100%,35%)" stroke-width="0.01463"></path>
<path d="M1.410 0.561 Q0.918 0.514 0.716 0.743" stroke="hsl(0.0,100%,35%)" stroke-width="0.00732"></path>
<path d="M1.410 0.561 Q1.330 0.434 1.063 0.444" stroke="hsl(0.0,100%,35%)" stroke-width="0.00732"></path>
<path d="M1.762 0.789 Q1.508 0.625 1.134 0.714" stroke="hsl(0.0,100%,35%)" stroke-width="0.01463"></path>
<path d="M1.762 0.789 Q1.688 0.477 1.063 0.444" stroke="hsl(0.0,100%,35%)" stroke-width="0.00732"></path>
<path d="M1.762 0.789 Q1.670 0.733 1.542 0.767" stroke="hsl(0.0,100%,35%)" stroke-width="0.00732"></path>
</g>
<text x="1.622" y="0.336" font-size="0.054100" fill="hsl(0.0,100%,20%)">danakj</text>
<text x="1.063" y="0.411" font-size="0.066259" fill="hsl(0.0,100%,20%)">brettw</text>
<text x="1.134" y="0.656" font-size="0.114764" fill="hsl(0.0,100%,20%)">tikuta</text>
<text x="1.340" y="0.830" font-size="0.110432" fill="hsl(0.0,100%,20%)">digit</text>
<text x="1.787" y="0.564" font-size="0.022086" fill="hsl(0.0,100%,20%)">tmandry</text>
<text x="1.542" y="0.751" font-size="0.031235" fill="hsl(0.0,100%,20%)">sdefresne</text>
<text x="1.410" y="0.539" font-size="0.044173" fill="hsl(0.0,100%,20%)">dpranke</text>
<text x="0.716" y="0.721" font-size="0.044173" fill="hsl(0.0,100%,20%)">phosek</text>
<text x="1.762" y="0.766" font-size="0.044173" fill="hsl(0.0,100%,20%)">thakis</text>
</svg>
