<svg width="4000" height="2000" viewBox="-0.025 -0.025 2.05 1.05" xmlns="http://www.w3.org/2000/svg">
  <style>
    path {
      fill: none;
      stroke-linecap: round;
      stroke-opacity: 0.4;
    }

    text {
      text-anchor: middle;
      alignment-baseline: hanging;
    }
  </style>
  <g opacity="0.4">
<path d="M1.721 0.710 Q1.854 0.514 1.500 0.406" stroke="hsl(0.0,100%,35%)" stroke-width="0.00337"></path>
<path d="M1.721 0.710 Q1.988 0.355 1.354 0.147" stroke="hsl(0.0,100%,35%)" stroke-width="0.00337"></path>
<path d="M1.721 0.710 Q1.965 0.630 1.864 0.493" stroke="hsl(0.0,100%,35%)" stroke-width="0.00337"></path>
<path d="M1.721 0.710 Q1.582 0.424 0.995 0.429" stroke="hsl(0.0,100%,35%)" stroke-width="0.00337"></path>
<path d="M1.500 0.406 Q1.635 0.247 1.354 0.147" stroke="hsl(0.0,100%,35%)" stroke-width="0.00674"></path>
<path d="M1.500 0.406 Q1.612 0.522 1.864 0.493" stroke="hsl(0.0,100%,35%)" stroke-width="0.00337"></path>
<path d="M1.500 0.406 Q1.396 0.463 1.485 0.526" stroke="hsl(0.0,100%,35%)" stroke-width="0.00337"></path>
<path d="M1.500 0.406 Q1.229 0.317 0.995 0.429" stroke="hsl(0.0,100%,35%)" stroke-width="0.00674"></path>
<path d="M1.500 0.406 Q1.280 0.520 1.454 0.652" stroke="hsl(0.0,100%,35%)" stroke-width="0.00674"></path>
<path d="M1.354 0.147 Q1.220 0.305 1.500 0.406" stroke="hsl(0.0,100%,35%)" stroke-width="0.07409"></path>
<path d="M1.354 0.147 Q1.332 0.422 1.864 0.493" stroke="hsl(0.0,100%,35%)" stroke-width="0.00674"></path>
<path d="M1.354 0.147 Q0.982 0.083 0.777 0.250" stroke="hsl(0.0,100%,35%)" stroke-width="0.05388"></path>
<path d="M1.354 0.147 Q0.710 0.425 1.112 0.800" stroke="hsl(0.0,100%,35%)" stroke-width="0.00674"></path>
<path d="M1.354 0.147 Q0.949 0.216 0.995 0.429" stroke="hsl(0.0,100%,35%)" stroke-width="0.01684"></path>
<path d="M1.354 0.147 Q1.554 0.147 1.598 0.049" stroke="hsl(0.0,100%,35%)" stroke-width="0.00337"></path>
<path d="M1.354 0.147 Q1.116 0.363 1.485 0.526" stroke="hsl(0.0,100%,35%)" stroke-width="0.00337"></path>
<path d="M1.864 0.493 Q1.481 0.288 0.995 0.429" stroke="hsl(0.0,100%,35%)" stroke-width="0.02357"></path>
<path d="M1.864 0.493 Q1.752 0.377 1.500 0.406" stroke="hsl(0.0,100%,35%)" stroke-width="0.03031"></path>
<path d="M1.864 0.493 Q1.515 0.154 0.777 0.250" stroke="hsl(0.0,100%,35%)" stroke-width="0.00674"></path>
<path d="M0.841 0.951 Q1.369 0.588 0.777 0.250" stroke="hsl(0.0,100%,35%)" stroke-width="0.00337"></path>
<path d="M0.841 0.951 Q0.986 1.022 1.156 0.967" stroke="hsl(0.0,100%,35%)" stroke-width="0.00337"></path>
<path d="M0.841 0.951 Q1.335 0.721 0.995 0.429" stroke="hsl(0.0,100%,35%)" stroke-width="0.00337"></path>
<path d="M0.777 0.250 Q1.126 0.589 1.864 0.493" stroke="hsl(0.0,100%,35%)" stroke-width="0.00674"></path>
<path d="M0.777 0.250 Q0.743 0.384 0.995 0.429" stroke="hsl(0.0,100%,35%)" stroke-width="0.01347"></path>
<path d="M0.777 0.250 Q1.014 0.473 1.500 0.406" stroke="hsl(0.0,100%,35%)" stroke-width="0.02021"></path>
<path d="M0.777 0.250 Q1.148 0.314 1.354 0.147" stroke="hsl(0.0,100%,35%)" stroke-width="0.00337"></path>
<path d="M1.112 0.800 Q1.621 0.681 1.500 0.406" stroke="hsl(0.0,100%,35%)" stroke-width="0.01684"></path>
<path d="M1.112 0.800 Q1.295 0.853 1.439 0.775" stroke="hsl(0.0,100%,35%)" stroke-width="0.01010"></path>
<path d="M1.112 0.800 Q1.756 0.522 1.354 0.147" stroke="hsl(0.0,100%,35%)" stroke-width="0.00674"></path>
<path d="M1.439 0.775 Q1.765 0.603 1.500 0.406" stroke="hsl(0.0,100%,35%)" stroke-width="0.00337"></path>
<path d="M1.439 0.775 Q1.465 0.873 1.661 0.881" stroke="hsl(0.0,100%,35%)" stroke-width="0.00337"></path>
<path d="M1.439 0.775 Q1.494 0.514 0.995 0.429" stroke="hsl(0.0,100%,35%)" stroke-width="0.00674"></path>
<path d="M1.685 0.194 Q1.423 0.263 1.500 0.406" stroke="hsl(0.0,100%,35%)" stroke-width="0.01347"></path>
<path d="M1.685 0.194 Q1.186 0.041 0.777 0.250" stroke="hsl(0.0,100%,35%)" stroke-width="0.00337"></path>
<path d="M1.685 0.194 Q1.535 0.380 1.864 0.493" stroke="hsl(0.0,100%,35%)" stroke-width="0.00337"></path>
</g>
<text x="1.721" y="0.696" font-size="0.026375" fill="hsl(0.0,100%,20%)">aaronwood</text>
<text x="1.500" y="0.356" font-size="0.098687" fill="hsl(0.0,100%,20%)">brettw</text>
<text x="1.354" y="0.098" font-size="0.097802" fill="hsl(0.0,100%,20%)">digit</text>
<text x="1.864" y="0.460" font-size="0.065938" fill="hsl(0.0,100%,20%)">tikuta</text>
<text x="0.995" y="0.399" font-size="0.061855" fill="hsl(0.0,100%,20%)">phosek</text>
<text x="0.841" y="0.939" font-size="0.022842" fill="hsl(0.0,100%,20%)">andrewsavage</text>
<text x="0.777" y="0.213" font-size="0.075757" fill="hsl(0.0,100%,20%)">sdefresne</text>
<text x="1.156" y="0.960" font-size="0.013188" fill="hsl(0.0,100%,20%)">mcgrathr</text>
<text x="1.485" y="0.517" font-size="0.018650" fill="hsl(0.0,100%,20%)">dpranke</text>
<text x="1.454" y="0.643" font-size="0.018650" fill="hsl(0.0,100%,20%)">scottmg</text>
<text x="1.112" y="0.777" font-size="0.045683" fill="hsl(0.0,100%,20%)">danakj</text>
<text x="1.439" y="0.758" font-size="0.034891" fill="hsl(0.0,100%,20%)">tmandry</text>
<text x="1.598" y="0.043" font-size="0.013188" fill="hsl(0.0,100%,20%)">thakis</text>
<text x="1.685" y="0.178" font-size="0.032303" fill="hsl(0.0,100%,20%)">mfarazma</text>
<text x="1.661" y="0.875" font-size="0.013188" fill="hsl(0.0,100%,20%)">bwb</text>
</svg>
