<svg width="4000" height="2000" viewBox="-0.025 -0.025 2.05 1.05" xmlns="http://www.w3.org/2000/svg">
  <style>
    path {
      fill: none;
      stroke-linecap: round;
      stroke-opacity: 0.4;
    }

    text {
      text-anchor: middle;
      alignment-baseline: hanging;
    }
  </style>
  <g opacity="0.4">
<path d="M1.103 0.630 Q0.718 0.383 0.151 0.517" stroke="hsl(0.0,100%,35%)" stroke-width="0.01605"></path>
<path d="M1.103 0.630 Q1.013 0.737 1.202 0.804" stroke="hsl(0.0,100%,35%)" stroke-width="0.01070"></path>
<path d="M1.103 0.630 Q0.816 0.471 0.441 0.576" stroke="hsl(0.0,100%,35%)" stroke-width="0.02675"></path>
<path d="M1.103 0.630 Q0.555 0.511 0.202 0.752" stroke="hsl(0.0,100%,35%)" stroke-width="0.01070"></path>
<path d="M0.151 0.517 Q0.581 0.429 0.504 0.200" stroke="hsl(0.0,100%,35%)" stroke-width="0.00535"></path>
<path d="M0.151 0.517 Q0.270 0.686 0.627 0.665" stroke="hsl(0.0,100%,35%)" stroke-width="0.00535"></path>
<path d="M0.151 0.517 Q-0.012 0.645 0.202 0.752" stroke="hsl(0.0,100%,35%)" stroke-width="0.02675"></path>
<path d="M0.151 0.517 Q0.248 0.604 0.441 0.576" stroke="hsl(0.0,100%,35%)" stroke-width="0.01070"></path>
<path d="M0.441 0.576 Q0.180 0.616 0.202 0.752" stroke="hsl(0.0,100%,35%)" stroke-width="0.04280"></path>
<path d="M0.441 0.576 Q0.343 0.488 0.151 0.517" stroke="hsl(0.0,100%,35%)" stroke-width="0.01070"></path>
<path d="M0.441 0.576 Q0.463 0.657 0.627 0.665" stroke="hsl(0.0,100%,35%)" stroke-width="0.00535"></path>
<path d="M0.202 0.752 Q0.365 0.624 0.151 0.517" stroke="hsl(0.0,100%,35%)" stroke-width="0.02140"></path>
<path d="M0.202 0.752 Q0.463 0.712 0.441 0.576" stroke="hsl(0.0,100%,35%)" stroke-width="0.06954"></path>
<path d="M0.202 0.752 Q0.210 0.810 0.326 0.819" stroke="hsl(0.0,100%,35%)" stroke-width="0.00535"></path>
<path d="M0.202 0.752 Q0.247 0.848 0.444 0.848" stroke="hsl(0.0,100%,35%)" stroke-width="0.01070"></path>
<path d="M0.202 0.752 Q0.795 0.536 0.504 0.200" stroke="hsl(0.0,100%,35%)" stroke-width="0.00535"></path>
<path d="M0.202 0.752 Q0.040 0.862 0.218 0.965" stroke="hsl(0.0,100%,35%)" stroke-width="0.01070"></path>
<path d="M0.282 0.281 Q0.125 0.460 0.441 0.576" stroke="hsl(0.0,100%,35%)" stroke-width="0.01605"></path>
<path d="M0.282 0.281 Q0.458 0.284 0.504 0.200" stroke="hsl(0.0,100%,35%)" stroke-width="0.01605"></path>
<path d="M0.282 0.281 Q-0.135 0.500 0.202 0.752" stroke="hsl(0.0,100%,35%)" stroke-width="0.00535"></path>
</g>
<text x="1.103" y="0.599" font-size="0.062217" fill="hsl(0.0,100%,20%)">agrieve</text>
<text x="0.151" y="0.478" font-size="0.076200" fill="hsl(0.0,100%,20%)">dpranke</text>
<text x="1.202" y="0.792" font-size="0.025400" fill="hsl(0.0,100%,20%)">mcgrathr</text>
<text x="0.441" y="0.523" font-size="0.104727" fill="hsl(0.0,100%,20%)">digit</text>
<text x="0.202" y="0.696" font-size="0.112163" fill="hsl(0.0,100%,20%)">tikuta</text>
<text x="0.627" y="0.652" font-size="0.025400" fill="hsl(0.0,100%,20%)">thakis</text>
<text x="0.504" y="0.179" font-size="0.040161" fill="hsl(0.0,100%,20%)">sdefresne</text>
<text x="0.282" y="0.257" font-size="0.047519" fill="hsl(0.0,100%,20%)">jkim</text>
<text x="0.326" y="0.810" font-size="0.017961" fill="hsl(0.0,100%,20%)">brettw</text>
<text x="0.444" y="0.835" font-size="0.025400" fill="hsl(0.0,100%,20%)">philwo</text>
<text x="0.218" y="0.952" font-size="0.025400" fill="hsl(0.0,100%,20%)">phosek</text>
</svg>
