<svg width="4000" height="2000" viewBox="-0.025 -0.025 2.05 1.05" xmlns="http://www.w3.org/2000/svg">
  <style>
    path {
      fill: none;
      stroke-linecap: round;
      stroke-opacity: 0.4;
    }

    text {
      text-anchor: middle;
      alignment-baseline: hanging;
    }
  </style>
  <g opacity="0.4">
<path d="M0.120 0.426 Q0.549 0.872 1.514 0.761" stroke="hsl(0.0,100%,35%)" stroke-width="0.00349"></path>
<path d="M0.120 0.426 Q0.178 0.659 0.644 0.681" stroke="hsl(0.0,100%,35%)" stroke-width="0.00698"></path>
<path d="M0.120 0.426 Q0.886 0.690 1.569 0.374" stroke="hsl(0.0,100%,35%)" stroke-width="0.00349"></path>
<path d="M0.120 0.426 Q0.744 0.768 1.549 0.539" stroke="hsl(0.0,100%,35%)" stroke-width="0.00349"></path>
<path d="M1.514 0.761 Q1.851 0.579 1.569 0.374" stroke="hsl(0.0,100%,35%)" stroke-width="0.01047"></path>
<path d="M1.514 0.761 Q1.143 0.547 0.644 0.681" stroke="hsl(0.0,100%,35%)" stroke-width="0.00698"></path>
<path d="M1.514 0.761 Q1.040 0.460 0.349 0.625" stroke="hsl(0.0,100%,35%)" stroke-width="0.01396"></path>
<path d="M1.514 0.761 Q1.709 0.657 1.549 0.539" stroke="hsl(0.0,100%,35%)" stroke-width="0.00349"></path>
<path d="M0.644 0.681 Q0.542 0.594 0.349 0.625" stroke="hsl(0.0,100%,35%)" stroke-width="0.02442"></path>
<path d="M0.644 0.681 Q1.352 0.713 1.569 0.374" stroke="hsl(0.0,100%,35%)" stroke-width="0.03140"></path>
<path d="M0.644 0.681 Q1.015 0.895 1.514 0.761" stroke="hsl(0.0,100%,35%)" stroke-width="0.00698"></path>
<path d="M1.569 0.374 Q1.427 0.453 1.549 0.539" stroke="hsl(0.0,100%,35%)" stroke-width="0.00698"></path>
<path d="M1.569 0.374 Q0.861 0.343 0.644 0.681" stroke="hsl(0.0,100%,35%)" stroke-width="0.00349"></path>
<path d="M1.569 0.374 Q1.488 0.595 1.901 0.683" stroke="hsl(0.0,100%,35%)" stroke-width="0.00349"></path>
<path d="M1.569 0.374 Q0.758 0.256 0.349 0.625" stroke="hsl(0.0,100%,35%)" stroke-width="0.00698"></path>
<path d="M1.569 0.374 Q1.262 0.323 1.095 0.461" stroke="hsl(0.0,100%,35%)" stroke-width="0.00698"></path>
<path d="M1.549 0.539 Q1.691 0.460 1.569 0.374" stroke="hsl(0.0,100%,35%)" stroke-width="0.07676"></path>
<path d="M1.549 0.539 Q0.983 0.429 0.644 0.681" stroke="hsl(0.0,100%,35%)" stroke-width="0.00698"></path>
<path d="M1.549 0.539 Q1.354 0.643 1.514 0.761" stroke="hsl(0.0,100%,35%)" stroke-width="0.04885"></path>
<path d="M1.549 0.539 Q0.675 0.537 0.481 0.963" stroke="hsl(0.0,100%,35%)" stroke-width="0.00698"></path>
<path d="M1.549 0.539 Q0.880 0.342 0.349 0.625" stroke="hsl(0.0,100%,35%)" stroke-width="0.01745"></path>
<path d="M1.549 0.539 Q1.388 0.513 1.304 0.586" stroke="hsl(0.0,100%,35%)" stroke-width="0.00349"></path>
<path d="M1.549 0.539 Q1.610 0.681 1.901 0.683" stroke="hsl(0.0,100%,35%)" stroke-width="0.00349"></path>
<path d="M1.371 0.412 Q1.163 0.615 1.514 0.761" stroke="hsl(0.0,100%,35%)" stroke-width="0.00349"></path>
<path d="M1.371 0.412 Q1.461 0.322 1.305 0.258" stroke="hsl(0.0,100%,35%)" stroke-width="0.00349"></path>
<path d="M1.371 0.412 Q0.690 0.314 0.349 0.625" stroke="hsl(0.0,100%,35%)" stroke-width="0.00349"></path>
<path d="M0.481 0.963 Q1.496 0.886 1.569 0.374" stroke="hsl(0.0,100%,35%)" stroke-width="0.01745"></path>
<path d="M0.481 0.963 Q0.843 0.977 0.949 0.804" stroke="hsl(0.0,100%,35%)" stroke-width="0.01047"></path>
<path d="M0.481 0.963 Q1.355 0.965 1.549 0.539" stroke="hsl(0.0,100%,35%)" stroke-width="0.00698"></path>
<path d="M0.949 0.804 Q1.603 0.713 1.569 0.374" stroke="hsl(0.0,100%,35%)" stroke-width="0.00349"></path>
<path d="M0.949 0.804 Q1.027 0.895 1.221 0.877" stroke="hsl(0.0,100%,35%)" stroke-width="0.00349"></path>
<path d="M0.949 0.804 Q0.792 0.595 0.349 0.625" stroke="hsl(0.0,100%,35%)" stroke-width="0.00698"></path>
<path d="M1.250 0.238 Q1.301 0.370 1.569 0.374" stroke="hsl(0.0,100%,35%)" stroke-width="0.01396"></path>
<path d="M1.250 0.238 Q0.964 0.553 1.514 0.761" stroke="hsl(0.0,100%,35%)" stroke-width="0.00349"></path>
<path d="M1.250 0.238 Q0.593 0.339 0.644 0.681" stroke="hsl(0.0,100%,35%)" stroke-width="0.00349"></path>
</g>
<text x="0.120" y="0.411" font-size="0.030015" fill="hsl(0.0,100%,20%)">aaronwood</text>
<text x="1.514" y="0.725" font-size="0.072286" fill="hsl(0.0,100%,20%)">sdefresne</text>
<text x="0.644" y="0.647" font-size="0.068445" fill="hsl(0.0,100%,20%)">tikuta</text>
<text x="1.569" y="0.325" font-size="0.097722" fill="hsl(0.0,100%,20%)">brettw</text>
<text x="1.549" y="0.490" font-size="0.097722" fill="hsl(0.0,100%,20%)">digit</text>
<text x="1.371" y="0.400" font-size="0.023250" fill="hsl(0.0,100%,20%)">andrewsavage</text>
<text x="1.305" y="0.251" font-size="0.013423" fill="hsl(0.0,100%,20%)">mcgrathr</text>
<text x="0.349" y="0.594" font-size="0.061512" fill="hsl(0.0,100%,20%)">phosek</text>
<text x="1.901" y="0.673" font-size="0.018983" fill="hsl(0.0,100%,20%)">dpranke</text>
<text x="1.095" y="0.451" font-size="0.018983" fill="hsl(0.0,100%,20%)">scottmg</text>
<text x="0.481" y="0.940" font-size="0.046499" fill="hsl(0.0,100%,20%)">danakj</text>
<text x="0.949" y="0.786" font-size="0.035514" fill="hsl(0.0,100%,20%)">tmandry</text>
<text x="1.304" y="0.580" font-size="0.013423" fill="hsl(0.0,100%,20%)">thakis</text>
<text x="1.250" y="0.222" font-size="0.032880" fill="hsl(0.0,100%,20%)">mfarazma</text>
<text x="1.221" y="0.870" font-size="0.013423" fill="hsl(0.0,100%,20%)">bwb</text>
</svg>
