<svg width="4000" height="2000" viewBox="-0.025 -0.025 2.05 1.05" xmlns="http://www.w3.org/2000/svg">
  <style>
    path {
      fill: none;
      stroke-linecap: round;
      stroke-opacity: 0.4;
    }

    text {
      text-anchor: middle;
      alignment-baseline: hanging;
    }
  </style>
  <g opacity="0.4">
<path d="M0.714 0.501 Q1.163 0.784 1.816 0.628" stroke="hsl(0.0,100%,35%)" stroke-width="0.00662"></path>
<path d="M0.714 0.501 Q0.483 0.557 0.543 0.682" stroke="hsl(0.0,100%,35%)" stroke-width="0.00331"></path>
<path d="M0.714 0.501 Q0.572 0.762 1.051 0.888" stroke="hsl(0.0,100%,35%)" stroke-width="0.00331"></path>
<path d="M0.714 0.501 Q0.842 0.901 1.652 0.926" stroke="hsl(0.0,100%,35%)" stroke-width="0.00662"></path>
<path d="M0.714 0.501 Q0.903 0.630 1.196 0.565" stroke="hsl(0.0,100%,35%)" stroke-width="0.00331"></path>
<path d="M1.816 0.628 Q1.743 0.390 1.265 0.374" stroke="hsl(0.0,100%,35%)" stroke-width="0.00331"></path>
<path d="M1.816 0.628 Q1.556 0.473 1.196 0.565" stroke="hsl(0.0,100%,35%)" stroke-width="0.00662"></path>
<path d="M1.816 0.628 Q1.495 0.744 1.652 0.926" stroke="hsl(0.0,100%,35%)" stroke-width="0.00331"></path>
<path d="M1.816 0.628 Q1.923 0.422 1.546 0.325" stroke="hsl(0.0,100%,35%)" stroke-width="0.00331"></path>
<path d="M1.816 0.628 Q1.633 0.601 1.542 0.685" stroke="hsl(0.0,100%,35%)" stroke-width="0.00662"></path>
<path d="M1.051 0.888 Q1.321 1.028 1.652 0.926" stroke="hsl(0.0,100%,35%)" stroke-width="0.01323"></path>
<path d="M1.051 0.888 Q1.642 0.911 1.816 0.628" stroke="hsl(0.0,100%,35%)" stroke-width="0.01323"></path>
<path d="M1.051 0.888 Q1.459 0.885 1.542 0.685" stroke="hsl(0.0,100%,35%)" stroke-width="0.01323"></path>
<path d="M1.051 0.888 Q1.382 0.756 1.196 0.565" stroke="hsl(0.0,100%,35%)" stroke-width="0.00331"></path>
<path d="M1.652 0.926 Q1.790 0.784 1.542 0.685" stroke="hsl(0.0,100%,35%)" stroke-width="0.02315"></path>
<path d="M1.652 0.926 Q1.973 0.810 1.816 0.628" stroke="hsl(0.0,100%,35%)" stroke-width="0.02977"></path>
<path d="M1.652 0.926 Q1.382 0.787 1.051 0.888" stroke="hsl(0.0,100%,35%)" stroke-width="0.00662"></path>
<path d="M1.196 0.565 Q1.457 0.720 1.816 0.628" stroke="hsl(0.0,100%,35%)" stroke-width="0.07277"></path>
<path d="M1.196 0.565 Q1.135 0.837 1.652 0.926" stroke="hsl(0.0,100%,35%)" stroke-width="0.00662"></path>
<path d="M1.196 0.565 Q0.865 0.698 1.051 0.888" stroke="hsl(0.0,100%,35%)" stroke-width="0.04631"></path>
<path d="M1.196 0.565 Q1.408 0.598 1.518 0.502" stroke="hsl(0.0,100%,35%)" stroke-width="0.00662"></path>
<path d="M1.196 0.565 Q1.273 0.694 1.542 0.685" stroke="hsl(0.0,100%,35%)" stroke-width="0.00992"></path>
<path d="M1.196 0.565 Q1.384 0.483 1.265 0.374" stroke="hsl(0.0,100%,35%)" stroke-width="0.00331"></path>
<path d="M1.196 0.565 Q1.563 0.515 1.546 0.325" stroke="hsl(0.0,100%,35%)" stroke-width="0.00331"></path>
<path d="M0.705 0.816 Q1.411 0.944 1.816 0.628" stroke="hsl(0.0,100%,35%)" stroke-width="0.00331"></path>
<path d="M0.705 0.816 Q0.820 0.922 1.051 0.888" stroke="hsl(0.0,100%,35%)" stroke-width="0.00331"></path>
<path d="M0.705 0.816 Q0.538 0.798 0.465 0.874" stroke="hsl(0.0,100%,35%)" stroke-width="0.00331"></path>
<path d="M0.705 0.816 Q1.228 0.918 1.542 0.685" stroke="hsl(0.0,100%,35%)" stroke-width="0.00331"></path>
<path d="M1.518 0.502 Q1.567 0.625 1.816 0.628" stroke="hsl(0.0,100%,35%)" stroke-width="0.01654"></path>
<path d="M1.518 0.502 Q0.886 0.397 0.543 0.682" stroke="hsl(0.0,100%,35%)" stroke-width="0.00992"></path>
<path d="M1.518 0.502 Q1.307 0.470 1.196 0.565" stroke="hsl(0.0,100%,35%)" stroke-width="0.00662"></path>
<path d="M1.085 0.277 Q1.170 0.599 1.816 0.628" stroke="hsl(0.0,100%,35%)" stroke-width="0.00992"></path>
<path d="M1.085 0.277 Q0.579 0.576 1.051 0.888" stroke="hsl(0.0,100%,35%)" stroke-width="0.00331"></path>
<path d="M1.085 0.277 Q0.849 0.715 1.652 0.926" stroke="hsl(0.0,100%,35%)" stroke-width="0.00331"></path>
</g>
<text x="0.714" y="0.483" font-size="0.035839" fill="hsl(0.0,100%,20%)">aaronwood</text>
<text x="1.816" y="0.578" font-size="0.098614" fill="hsl(0.0,100%,20%)">brettw</text>
<text x="0.543" y="0.669" font-size="0.027091" fill="hsl(0.0,100%,20%)">tmandry</text>
<text x="1.051" y="0.850" font-size="0.076626" fill="hsl(0.0,100%,20%)">sdefresne</text>
<text x="1.652" y="0.890" font-size="0.071677" fill="hsl(0.0,100%,20%)">tikuta</text>
<text x="1.196" y="0.517" font-size="0.096736" fill="hsl(0.0,100%,20%)">digit</text>
<text x="0.705" y="0.803" font-size="0.027091" fill="hsl(0.0,100%,20%)">andrewsavage</text>
<text x="0.465" y="0.868" font-size="0.013546" fill="hsl(0.0,100%,20%)">mcgrathr</text>
<text x="1.542" y="0.657" font-size="0.055850" fill="hsl(0.0,100%,20%)">phosek</text>
<text x="1.265" y="0.364" font-size="0.019157" fill="hsl(0.0,100%,20%)">thakis</text>
<text x="1.546" y="0.315" font-size="0.019157" fill="hsl(0.0,100%,20%)">dpranke</text>
<text x="1.518" y="0.479" font-size="0.046924" fill="hsl(0.0,100%,20%)">danakj</text>
<text x="1.085" y="0.262" font-size="0.030289" fill="hsl(0.0,100%,20%)">mfarazma</text>
</svg>
