<svg width="4000" height="2000" viewBox="-0.025 -0.025 2.05 1.05" xmlns="http://www.w3.org/2000/svg">
  <style>
    path {
      fill: none;
      stroke-linecap: round;
      stroke-opacity: 0.4;
    }

    text {
      text-anchor: middle;
      alignment-baseline: hanging;
    }
  </style>
  <g opacity="0.4">
<path d="M1.036 0.517 Q0.673 0.629 0.810 0.830" stroke="hsl(0.0,100%,35%)" stroke-width="0.00325"></path>
<path d="M1.036 0.517 Q0.508 0.599 0.551 0.874" stroke="hsl(0.0,100%,35%)" stroke-width="0.00325"></path>
<path d="M1.036 0.517 Q0.791 0.385 0.479 0.476" stroke="hsl(0.0,100%,35%)" stroke-width="0.02278"></path>
<path d="M1.036 0.517 Q1.030 0.367 0.735 0.337" stroke="hsl(0.0,100%,35%)" stroke-width="0.01301"></path>
<path d="M1.036 0.517 Q0.515 0.480 0.326 0.726" stroke="hsl(0.0,100%,35%)" stroke-width="0.00976"></path>
<path d="M0.810 0.830 Q1.253 0.483 0.673 0.190" stroke="hsl(120.0,100%,35%)" stroke-width="0.00325"></path>
<path d="M0.810 0.830 Q0.811 0.706 0.569 0.678" stroke="hsl(120.0,100%,35%)" stroke-width="0.00325"></path>
<path d="M0.810 0.830 Q1.011 0.939 1.268 0.865" stroke="hsl(120.0,100%,35%)" stroke-width="0.00325"></path>
<path d="M0.551 0.874 Q1.072 0.642 0.735 0.337" stroke="hsl(0.0,100%,35%)" stroke-width="0.00651"></path>
<path d="M0.551 0.874 Q1.079 0.793 1.036 0.517" stroke="hsl(0.0,100%,35%)" stroke-width="0.00325"></path>
<path d="M0.551 0.874 Q0.833 0.661 0.479 0.476" stroke="hsl(0.0,100%,35%)" stroke-width="0.00325"></path>
<path d="M0.735 0.337 Q0.821 0.251 0.673 0.190" stroke="hsl(240.0,100%,35%)" stroke-width="0.01627"></path>
<path d="M0.735 0.337 Q0.157 0.370 0.095 0.659" stroke="hsl(240.0,100%,35%)" stroke-width="0.01952"></path>
<path d="M0.735 0.337 Q0.378 0.474 0.569 0.678" stroke="hsl(240.0,100%,35%)" stroke-width="0.00325"></path>
<path d="M0.735 0.337 Q0.378 0.598 0.810 0.830" stroke="hsl(240.0,100%,35%)" stroke-width="0.01952"></path>
<path d="M0.673 0.190 Q0.230 0.538 0.810 0.830" stroke="hsl(240.0,100%,35%)" stroke-width="0.00325"></path>
<path d="M0.673 0.190 Q0.587 0.276 0.735 0.337" stroke="hsl(240.0,100%,35%)" stroke-width="0.00325"></path>
<path d="M0.673 0.190 Q0.009 0.309 0.095 0.659" stroke="hsl(240.0,100%,35%)" stroke-width="0.00325"></path>
<path d="M0.569 0.678 Q1.011 0.455 0.673 0.190" stroke="hsl(120.0,100%,35%)" stroke-width="0.00325"></path>
<path d="M0.569 0.678 Q0.568 0.803 0.810 0.830" stroke="hsl(120.0,100%,35%)" stroke-width="0.02928"></path>
<path d="M0.569 0.678 Q0.347 0.574 0.095 0.659" stroke="hsl(120.0,100%,35%)" stroke-width="0.00651"></path>
<path d="M1.268 0.865 Q1.067 0.756 0.810 0.830" stroke="hsl(120.0,100%,35%)" stroke-width="0.07158"></path>
<path d="M1.268 0.865 Q1.273 0.653 0.860 0.603" stroke="hsl(120.0,100%,35%)" stroke-width="0.00325"></path>
<path d="M1.268 0.865 Q1.068 0.632 0.569 0.678" stroke="hsl(120.0,100%,35%)" stroke-width="0.00651"></path>
<path d="M0.223 0.518 Q0.624 0.530 0.735 0.337" stroke="hsl(240.0,100%,35%)" stroke-width="0.01301"></path>
<path d="M0.223 0.518 Q0.047 0.563 0.095 0.659" stroke="hsl(240.0,100%,35%)" stroke-width="0.01627"></path>
<path d="M0.223 0.518 Q0.267 0.792 0.810 0.830" stroke="hsl(240.0,100%,35%)" stroke-width="0.00651"></path>
<path d="M0.095 0.659 Q0.316 0.888 0.810 0.830" stroke="hsl(240.0,100%,35%)" stroke-width="0.01301"></path>
<path d="M0.095 0.659 Q0.673 0.626 0.735 0.337" stroke="hsl(240.0,100%,35%)" stroke-width="0.00651"></path>
<path d="M0.095 0.659 Q0.759 0.540 0.673 0.190" stroke="hsl(240.0,100%,35%)" stroke-width="0.00651"></path>
<path d="M0.095 0.659 Q0.316 0.764 0.569 0.678" stroke="hsl(240.0,100%,35%)" stroke-width="0.00325"></path>
<path d="M1.032 0.932 Q1.002 0.836 0.810 0.830" stroke="hsl(120.0,100%,35%)" stroke-width="0.01952"></path>
<path d="M1.032 0.932 Q1.445 0.489 0.673 0.190" stroke="hsl(120.0,100%,35%)" stroke-width="0.00325"></path>
<path d="M1.032 0.932 Q1.359 0.575 0.735 0.337" stroke="hsl(120.0,100%,35%)" stroke-width="0.00325"></path>
<path d="M1.062 0.752 Q0.874 0.741 0.810 0.830" stroke="hsl(240.0,100%,35%)" stroke-width="0.00976"></path>
<path d="M1.062 0.752 Q1.231 0.479 0.735 0.337" stroke="hsl(240.0,100%,35%)" stroke-width="0.00651"></path>
<path d="M1.062 0.752 Q0.653 0.512 0.095 0.659" stroke="hsl(240.0,100%,35%)" stroke-width="0.00325"></path>
</g>
<text x="1.036" y="0.490" font-size="0.054374" fill="hsl(0.0,100%,20%)">aaronwood</text>
<text x="0.810" y="0.780" font-size="0.099564" fill="hsl(120.0,100%,20%)">brettw</text>
<text x="0.551" y="0.859" font-size="0.029488" fill="hsl(0.0,100%,20%)">paulfaria</text>
<text x="0.479" y="0.457" font-size="0.037300" fill="hsl(0.0,100%,20%)">tmandry</text>
<text x="0.735" y="0.298" font-size="0.076896" fill="hsl(240.0,100%,20%)">phosek</text>
<text x="0.326" y="0.714" font-size="0.022842" fill="hsl(0.0,100%,20%)">bwb</text>
<text x="0.673" y="0.167" font-size="0.047549" fill="hsl(240.0,100%,20%)">dpranke</text>
<text x="0.569" y="0.651" font-size="0.054374" fill="hsl(120.0,100%,20%)">thakis</text>
<text x="1.268" y="0.832" font-size="0.067244" fill="hsl(120.0,100%,20%)">sdefresne</text>
<text x="0.223" y="0.497" font-size="0.043738" fill="hsl(240.0,100%,20%)">digit</text>
<text x="0.095" y="0.627" font-size="0.064606" fill="hsl(240.0,100%,20%)">scottmg</text>
<text x="1.032" y="0.913" font-size="0.037300" fill="hsl(120.0,100%,20%)">rjascani</text>
<text x="0.860" y="0.597" font-size="0.013188" fill="hsl(120.0,100%,20%)">justincohen</text>
<text x="1.062" y="0.736" font-size="0.032303" fill="hsl(240.0,100%,20%)">shayba</text>
</svg>
