<svg width="4000" height="2000" viewBox="-0.025 -0.025 2.05 1.05" xmlns="http://www.w3.org/2000/svg">
  <style>
    path {
      fill: none;
      stroke-linecap: round;
      stroke-opacity: 0.4;
    }

    text {
      text-anchor: middle;
      alignment-baseline: hanging;
    }
  </style>
  <g opacity="0.4">
<path d="M0.275 0.793 Q0.925 0.854 1.186 0.551" stroke="hsl(0.0,100%,35%)" stroke-width="0.00424"></path>
<path d="M0.275 0.793 Q0.627 0.710 0.542 0.520" stroke="hsl(0.0,100%,35%)" stroke-width="0.00424"></path>
<path d="M0.275 0.793 Q0.555 1.039 1.095 0.956" stroke="hsl(0.0,100%,35%)" stroke-width="0.00424"></path>
<path d="M1.186 0.551 Q0.816 0.735 1.095 0.956" stroke="hsl(0.0,100%,35%)" stroke-width="0.01273"></path>
<path d="M1.186 0.551 Q1.221 0.820 1.755 0.862" stroke="hsl(0.0,100%,35%)" stroke-width="0.03818"></path>
<path d="M1.186 0.551 Q1.236 0.656 1.453 0.655" stroke="hsl(0.0,100%,35%)" stroke-width="0.00424"></path>
<path d="M1.095 0.956 Q1.500 1.041 1.755 0.862" stroke="hsl(0.0,100%,35%)" stroke-width="0.00848"></path>
<path d="M1.095 0.956 Q1.465 0.772 1.186 0.551" stroke="hsl(0.0,100%,35%)" stroke-width="0.00424"></path>
<path d="M1.095 0.956 Q1.008 0.889 0.857 0.917" stroke="hsl(0.0,100%,35%)" stroke-width="0.00424"></path>
<path d="M1.755 0.862 Q1.770 0.698 1.453 0.655" stroke="hsl(0.0,100%,35%)" stroke-width="0.00424"></path>
<path d="M1.755 0.862 Q1.618 0.809 1.484 0.864" stroke="hsl(0.0,100%,35%)" stroke-width="0.00424"></path>
<path d="M1.755 0.862 Q1.350 0.778 1.095 0.956" stroke="hsl(0.0,100%,35%)" stroke-width="0.00848"></path>
<path d="M1.755 0.862 Q1.506 0.653 1.043 0.729" stroke="hsl(0.0,100%,35%)" stroke-width="0.00848"></path>
<path d="M1.453 0.655 Q1.403 0.549 1.186 0.551" stroke="hsl(0.0,100%,35%)" stroke-width="0.06363"></path>
<path d="M1.453 0.655 Q1.438 0.819 1.755 0.862" stroke="hsl(0.0,100%,35%)" stroke-width="0.08908"></path>
<path d="M1.453 0.655 Q1.693 0.443 1.333 0.280" stroke="hsl(0.0,100%,35%)" stroke-width="0.00848"></path>
<path d="M1.453 0.655 Q1.033 0.734 1.095 0.956" stroke="hsl(0.0,100%,35%)" stroke-width="0.02121"></path>
<path d="M1.453 0.655 Q1.661 0.652 1.701 0.549" stroke="hsl(0.0,100%,35%)" stroke-width="0.00424"></path>
<path d="M1.453 0.655 Q1.301 0.766 1.484 0.864" stroke="hsl(0.0,100%,35%)" stroke-width="0.00424"></path>
<path d="M1.333 0.280 Q1.078 0.655 1.755 0.862" stroke="hsl(0.0,100%,35%)" stroke-width="0.02121"></path>
<path d="M1.333 0.280 Q1.436 0.364 1.623 0.333" stroke="hsl(0.0,100%,35%)" stroke-width="0.01273"></path>
<path d="M1.333 0.280 Q1.093 0.491 1.453 0.655" stroke="hsl(0.0,100%,35%)" stroke-width="0.00848"></path>
<path d="M1.623 0.333 Q1.265 0.624 1.755 0.862" stroke="hsl(0.0,100%,35%)" stroke-width="0.00424"></path>
<path d="M1.623 0.333 Q1.456 0.121 1.007 0.156" stroke="hsl(0.0,100%,35%)" stroke-width="0.00424"></path>
<path d="M1.623 0.333 Q0.860 0.539 1.095 0.956" stroke="hsl(0.0,100%,35%)" stroke-width="0.00848"></path>
</g>
<text x="0.275" y="0.780" font-size="0.026568" fill="hsl(0.0,100%,20%)">andrewsavage</text>
<text x="1.186" y="0.509" font-size="0.084017" fill="hsl(0.0,100%,20%)">sdefresne</text>
<text x="0.542" y="0.513" font-size="0.015339" fill="hsl(0.0,100%,20%)">mcgrathr</text>
<text x="1.095" y="0.925" font-size="0.063246" fill="hsl(0.0,100%,20%)">phosek</text>
<text x="1.755" y="0.812" font-size="0.101749" fill="hsl(0.0,100%,20%)">brettw</text>
<text x="1.453" y="0.601" font-size="0.107375" fill="hsl(0.0,100%,20%)">digit</text>
<text x="1.484" y="0.853" font-size="0.021693" fill="hsl(0.0,100%,20%)">dpranke</text>
<text x="1.043" y="0.718" font-size="0.021693" fill="hsl(0.0,100%,20%)">scottmg</text>
<text x="1.333" y="0.253" font-size="0.053137" fill="hsl(0.0,100%,20%)">danakj</text>
<text x="1.623" y="0.312" font-size="0.040584" fill="hsl(0.0,100%,20%)">tmandry</text>
<text x="1.701" y="0.542" font-size="0.015339" fill="hsl(0.0,100%,20%)">thakis</text>
<text x="0.857" y="0.910" font-size="0.015339" fill="hsl(0.0,100%,20%)">iannucci</text>
<text x="1.007" y="0.148" font-size="0.015339" fill="hsl(0.0,100%,20%)">bwb</text>
</svg>
