<svg width="4000" height="2000" viewBox="-0.025 -0.025 2.05 1.05" xmlns="http://www.w3.org/2000/svg">
  <style>
    path {
      fill: none;
      stroke-linecap: round;
      stroke-opacity: 0.4;
    }

    text {
      text-anchor: middle;
      alignment-baseline: hanging;
    }
  </style>
  <g opacity="0.4">
<path d="M1.424 0.454 Q0.879 0.521 0.890 0.801" stroke="hsl(0.0,100%,35%)" stroke-width="0.02245"></path>
<path d="M1.424 0.454 Q1.575 0.469 1.636 0.398" stroke="hsl(0.0,100%,35%)" stroke-width="0.00374"></path>
<path d="M1.424 0.454 Q1.074 0.544 1.171 0.734" stroke="hsl(0.0,100%,35%)" stroke-width="0.00374"></path>
<path d="M1.424 0.454 Q0.967 0.411 0.781 0.624" stroke="hsl(0.0,100%,35%)" stroke-width="0.00374"></path>
<path d="M1.424 0.454 Q1.522 0.579 1.787 0.559" stroke="hsl(0.0,100%,35%)" stroke-width="0.00748"></path>
<path d="M1.424 0.454 Q1.275 0.323 0.985 0.367" stroke="hsl(0.0,100%,35%)" stroke-width="0.00374"></path>
<path d="M0.890 0.801 Q1.299 0.873 1.528 0.689" stroke="hsl(0.0,100%,35%)" stroke-width="0.00374"></path>
<path d="M0.890 0.801 Q1.532 0.860 1.787 0.559" stroke="hsl(0.0,100%,35%)" stroke-width="0.01497"></path>
<path d="M0.890 0.801 Q0.903 0.942 1.179 0.966" stroke="hsl(0.0,100%,35%)" stroke-width="0.00374"></path>
<path d="M0.890 0.801 Q1.285 0.603 0.985 0.367" stroke="hsl(0.0,100%,35%)" stroke-width="0.00374"></path>
<path d="M0.781 0.624 Q0.694 0.734 0.890 0.801" stroke="hsl(0.0,100%,35%)" stroke-width="0.01871"></path>
<path d="M0.781 0.624 Q1.089 0.536 0.985 0.367" stroke="hsl(0.0,100%,35%)" stroke-width="0.00748"></path>
<path d="M0.781 0.624 Q0.907 0.561 0.813 0.486" stroke="hsl(0.0,100%,35%)" stroke-width="0.00374"></path>
<path d="M0.781 0.624 Q1.336 0.793 1.787 0.559" stroke="hsl(0.0,100%,35%)" stroke-width="0.01871"></path>
<path d="M0.781 0.624 Q1.103 0.806 1.528 0.689" stroke="hsl(0.0,100%,35%)" stroke-width="0.00748"></path>
<path d="M1.787 0.559 Q1.554 0.572 1.528 0.689" stroke="hsl(0.0,100%,35%)" stroke-width="0.02993"></path>
<path d="M1.787 0.559 Q1.145 0.501 0.890 0.801" stroke="hsl(0.0,100%,35%)" stroke-width="0.03367"></path>
<path d="M1.787 0.559 Q1.232 0.390 0.781 0.624" stroke="hsl(0.0,100%,35%)" stroke-width="0.00748"></path>
<path d="M0.985 0.367 Q0.590 0.565 0.890 0.801" stroke="hsl(0.0,100%,35%)" stroke-width="0.02993"></path>
<path d="M0.985 0.367 Q0.999 0.636 1.528 0.689" stroke="hsl(0.0,100%,35%)" stroke-width="0.00748"></path>
<path d="M0.985 0.367 Q1.232 0.623 1.787 0.559" stroke="hsl(0.0,100%,35%)" stroke-width="0.01122"></path>
<path d="M0.985 0.367 Q0.677 0.455 0.781 0.624" stroke="hsl(0.0,100%,35%)" stroke-width="0.05238"></path>
<path d="M0.985 0.367 Q0.822 0.674 1.385 0.821" stroke="hsl(0.0,100%,35%)" stroke-width="0.00748"></path>
<path d="M0.104 0.795 Q0.492 0.955 0.890 0.801" stroke="hsl(0.0,100%,35%)" stroke-width="0.00374"></path>
<path d="M0.104 0.795 Q0.580 0.845 0.781 0.624" stroke="hsl(0.0,100%,35%)" stroke-width="0.00374"></path>
<path d="M0.104 0.795 Q0.149 0.875 0.314 0.870" stroke="hsl(0.0,100%,35%)" stroke-width="0.00374"></path>
<path d="M0.104 0.795 Q0.901 1.027 1.528 0.689" stroke="hsl(0.0,100%,35%)" stroke-width="0.00374"></path>
<path d="M1.385 0.821 Q1.153 0.712 0.890 0.801" stroke="hsl(0.0,100%,35%)" stroke-width="0.01871"></path>
<path d="M1.385 0.821 Q1.348 0.734 1.171 0.734" stroke="hsl(0.0,100%,35%)" stroke-width="0.01122"></path>
<path d="M1.385 0.821 Q1.548 0.514 0.985 0.367" stroke="hsl(0.0,100%,35%)" stroke-width="0.00748"></path>
<path d="M0.809 0.925 Q0.948 0.879 0.890 0.801" stroke="hsl(0.0,100%,35%)" stroke-width="0.00748"></path>
<path d="M0.809 0.925 Q1.035 0.769 0.781 0.624" stroke="hsl(0.0,100%,35%)" stroke-width="0.00374"></path>
<path d="M0.809 0.925 Q1.590 0.937 1.787 0.559" stroke="hsl(0.0,100%,35%)" stroke-width="0.00374"></path>
</g>
<text x="1.424" y="0.430" font-size="0.048990" fill="hsl(0.0,100%,20%)">aaronwood</text>
<text x="0.890" y="0.755" font-size="0.092736" fill="hsl(0.0,100%,20%)">brettw</text>
<text x="1.636" y="0.391" font-size="0.014142" fill="hsl(0.0,100%,20%)">computerdruid</text>
<text x="1.171" y="0.720" font-size="0.028284" fill="hsl(0.0,100%,20%)">tmandry</text>
<text x="0.781" y="0.583" font-size="0.082462" fill="hsl(0.0,100%,20%)">sdefresne</text>
<text x="1.787" y="0.518" font-size="0.082462" fill="hsl(0.0,100%,20%)">tikuta</text>
<text x="0.985" y="0.325" font-size="0.083666" fill="hsl(0.0,100%,20%)">digit</text>
<text x="0.104" y="0.781" font-size="0.028284" fill="hsl(0.0,100%,20%)">andrewsavage</text>
<text x="0.314" y="0.863" font-size="0.014142" fill="hsl(0.0,100%,20%)">mcgrathr</text>
<text x="1.528" y="0.662" font-size="0.052915" fill="hsl(0.0,100%,20%)">phosek</text>
<text x="1.179" y="0.959" font-size="0.014142" fill="hsl(0.0,100%,20%)">thakis</text>
<text x="1.385" y="0.796" font-size="0.048990" fill="hsl(0.0,100%,20%)">danakj</text>
<text x="0.809" y="0.910" font-size="0.028284" fill="hsl(0.0,100%,20%)">mfarazma</text>
<text x="0.813" y="0.479" font-size="0.014142" fill="hsl(0.0,100%,20%)">justincohen</text>
</svg>
