<svg width="4000" height="2000" viewBox="-0.025 -0.025 2.05 1.05" xmlns="http://www.w3.org/2000/svg">
  <style>
    path {
      fill: none;
      stroke-linecap: round;
      stroke-opacity: 0.4;
    }

    text {
      text-anchor: middle;
      alignment-baseline: hanging;
    }
  </style>
  <g opacity="0.4">
<path d="M1.818 0.289 Q0.796 0.243 0.483 0.732" stroke="hsl(0.0,100%,35%)" stroke-width="0.00673"></path>
<path d="M1.818 0.289 Q1.527 0.443 1.765 0.619" stroke="hsl(0.0,100%,35%)" stroke-width="0.03364"></path>
<path d="M1.818 0.289 Q1.525 0.329 1.539 0.481" stroke="hsl(0.0,100%,35%)" stroke-width="0.00673"></path>
<path d="M1.818 0.289 Q1.311 0.194 1.016 0.421" stroke="hsl(0.0,100%,35%)" stroke-width="0.00673"></path>
<path d="M0.483 0.732 Q0.555 0.631 0.374 0.574" stroke="hsl(0.0,100%,35%)" stroke-width="0.00673"></path>
<path d="M0.483 0.732 Q1.214 0.932 1.765 0.619" stroke="hsl(0.0,100%,35%)" stroke-width="0.01346"></path>
<path d="M0.483 0.732 Q0.280 0.800 0.368 0.914" stroke="hsl(0.0,100%,35%)" stroke-width="0.02018"></path>
<path d="M1.052 0.571 Q1.369 0.738 1.765 0.619" stroke="hsl(0.0,100%,35%)" stroke-width="0.01346"></path>
<path d="M1.052 0.571 Q0.638 0.538 0.483 0.732" stroke="hsl(0.0,100%,35%)" stroke-width="0.01346"></path>
<path d="M1.052 0.571 Q0.710 0.437 0.374 0.574" stroke="hsl(0.0,100%,35%)" stroke-width="0.00673"></path>
<path d="M1.052 0.571 Q1.153 0.489 1.016 0.421" stroke="hsl(0.0,100%,35%)" stroke-width="0.00673"></path>
<path d="M0.374 0.574 Q0.301 0.675 0.483 0.732" stroke="hsl(0.0,100%,35%)" stroke-width="0.08747"></path>
<path d="M0.374 0.574 Q1.033 0.875 1.765 0.619" stroke="hsl(0.0,100%,35%)" stroke-width="0.04037"></path>
<path d="M0.374 0.574 Q0.560 0.670 0.789 0.600" stroke="hsl(0.0,100%,35%)" stroke-width="0.00673"></path>
<path d="M0.374 0.574 Q0.099 0.743 0.368 0.914" stroke="hsl(0.0,100%,35%)" stroke-width="0.00673"></path>
<path d="M0.789 0.600 Q0.530 0.605 0.483 0.732" stroke="hsl(0.0,100%,35%)" stroke-width="0.02018"></path>
<path d="M0.789 0.600 Q1.262 0.805 1.765 0.619" stroke="hsl(0.0,100%,35%)" stroke-width="0.00673"></path>
<path d="M0.789 0.600 Q0.602 0.504 0.374 0.574" stroke="hsl(0.0,100%,35%)" stroke-width="0.00673"></path>
<path d="M0.789 0.600 Q0.953 0.467 0.729 0.357" stroke="hsl(0.0,100%,35%)" stroke-width="0.00673"></path>
</g>
<text x="1.818" y="0.259" font-size="0.058346" fill="hsl(0.0,100%,20%)">aaronwood</text>
<text x="0.483" y="0.681" font-size="0.103142" fill="hsl(0.0,100%,20%)">tikuta</text>
<text x="1.765" y="0.578" font-size="0.082514" fill="hsl(0.0,100%,20%)">brettw</text>
<text x="1.539" y="0.470" font-size="0.020628" fill="hsl(0.0,100%,20%)">computerdruid</text>
<text x="1.016" y="0.406" font-size="0.029173" fill="hsl(0.0,100%,20%)">tmandry</text>
<text x="1.052" y="0.545" font-size="0.050529" fill="hsl(0.0,100%,20%)">danakj</text>
<text x="0.374" y="0.523" font-size="0.101058" fill="hsl(0.0,100%,20%)">digit</text>
<text x="0.789" y="0.573" font-size="0.054578" fill="hsl(0.0,100%,20%)">sdefresne</text>
<text x="0.368" y="0.893" font-size="0.041257" fill="hsl(0.0,100%,20%)">phosek</text>
<text x="0.729" y="0.347" font-size="0.020628" fill="hsl(0.0,100%,20%)">justincohen</text>
</svg>
