<svg width="4000" height="2000" viewBox="-0.025 -0.025 2.05 1.05" xmlns="http://www.w3.org/2000/svg">
  <style>
    path {
      fill: none;
      stroke-linecap: round;
      stroke-opacity: 0.4;
    }

    text {
      text-anchor: middle;
      alignment-baseline: hanging;
    }
  </style>
  <g opacity="0.4">
<path d="M0.678 0.459 Q0.896 0.380 0.790 0.256" stroke="hsl(0.0,100%,35%)" stroke-width="0.01860"></path>
<path d="M0.678 0.459 Q0.811 0.270 0.470 0.163" stroke="hsl(0.0,100%,35%)" stroke-width="0.00620"></path>
<path d="M0.790 0.256 Q0.462 0.618 1.096 0.858" stroke="hsl(0.0,100%,35%)" stroke-width="0.02480"></path>
<path d="M0.790 0.256 Q0.704 0.146 0.470 0.163" stroke="hsl(0.0,100%,35%)" stroke-width="0.07441"></path>
<path d="M0.790 0.256 Q0.746 0.425 1.066 0.483" stroke="hsl(0.0,100%,35%)" stroke-width="0.00620"></path>
<path d="M0.790 0.256 Q0.632 0.232 0.550 0.303" stroke="hsl(0.0,100%,35%)" stroke-width="0.01240"></path>
<path d="M0.790 0.256 Q0.063 0.487 0.354 0.892" stroke="hsl(0.0,100%,35%)" stroke-width="0.00620"></path>
<path d="M0.790 0.256 Q1.197 0.339 1.448 0.159" stroke="hsl(0.0,100%,35%)" stroke-width="0.01240"></path>
<path d="M0.470 0.163 Q0.555 0.274 0.790 0.256" stroke="hsl(0.0,100%,35%)" stroke-width="0.04960"></path>
<path d="M0.470 0.163 Q0.228 0.636 1.096 0.858" stroke="hsl(0.0,100%,35%)" stroke-width="0.01240"></path>
<path d="M0.470 0.163 Q0.532 0.581 1.359 0.642" stroke="hsl(0.0,100%,35%)" stroke-width="0.00620"></path>
<path d="M1.096 0.858 Q0.698 0.726 0.354 0.892" stroke="hsl(0.0,100%,35%)" stroke-width="0.00620"></path>
<path d="M1.096 0.858 Q1.400 0.803 1.359 0.642" stroke="hsl(0.0,100%,35%)" stroke-width="0.00620"></path>
<path d="M1.096 0.858 Q1.424 0.496 0.790 0.256" stroke="hsl(0.0,100%,35%)" stroke-width="0.03100"></path>
<path d="M1.096 0.858 Q1.339 0.385 0.470 0.163" stroke="hsl(0.0,100%,35%)" stroke-width="0.01240"></path>
<path d="M0.672 0.911 Q1.169 0.497 0.470 0.163" stroke="hsl(0.0,100%,35%)" stroke-width="0.01240"></path>
<path d="M0.672 0.911 Q0.528 0.838 0.354 0.892" stroke="hsl(0.0,100%,35%)" stroke-width="0.01240"></path>
<path d="M0.672 0.911 Q1.254 0.607 0.790 0.256" stroke="hsl(0.0,100%,35%)" stroke-width="0.00620"></path>
</g>
<text x="0.678" y="0.439" font-size="0.039606" fill="hsl(0.0,100%,20%)">danakj</text>
<text x="0.790" y="0.194" font-size="0.123669" fill="hsl(0.0,100%,20%)">tikuta</text>
<text x="0.470" y="0.111" font-size="0.104787" fill="hsl(0.0,100%,20%)">digit</text>
<text x="1.096" y="0.819" font-size="0.076697" fill="hsl(0.0,100%,20%)">dpranke</text>
<text x="1.359" y="0.628" font-size="0.028006" fill="hsl(0.0,100%,20%)">thakis</text>
<text x="0.354" y="0.872" font-size="0.039606" fill="hsl(0.0,100%,20%)">sdefresne</text>
<text x="0.672" y="0.889" font-size="0.044281" fill="hsl(0.0,100%,20%)">jkim</text>
<text x="1.066" y="0.473" font-size="0.019803" fill="hsl(0.0,100%,20%)">brettw</text>
<text x="0.550" y="0.289" font-size="0.028006" fill="hsl(0.0,100%,20%)">philwo</text>
<text x="1.448" y="0.145" font-size="0.028006" fill="hsl(0.0,100%,20%)">phosek</text>
</svg>
