<svg width="4000" height="2000" viewBox="-0.025 -0.025 2.05 1.05" xmlns="http://www.w3.org/2000/svg">
  <style>
    path {
      fill: none;
      stroke-linecap: round;
      stroke-opacity: 0.4;
    }

    text {
      text-anchor: middle;
      alignment-baseline: hanging;
    }
  </style>
  <g opacity="0.4">
<path d="M0.641 0.515 Q0.548 0.673 0.837 0.752" stroke="hsl(0.0,100%,35%)" stroke-width="0.02460"></path>
<path d="M0.641 0.515 Q1.219 0.429 1.179 0.128" stroke="hsl(0.0,100%,35%)" stroke-width="0.01230"></path>
<path d="M0.641 0.515 Q0.878 0.327 0.565 0.170" stroke="hsl(0.0,100%,35%)" stroke-width="0.01230"></path>
<path d="M1.179 0.128 Q1.069 0.150 1.087 0.209" stroke="hsl(0.0,100%,35%)" stroke-width="0.01230"></path>
<path d="M1.179 0.128 Q0.509 0.372 0.837 0.752" stroke="hsl(0.0,100%,35%)" stroke-width="0.12298"></path>
<path d="M1.179 0.128 Q0.839 0.026 0.565 0.170" stroke="hsl(0.0,100%,35%)" stroke-width="0.06149"></path>
<path d="M1.179 0.128 Q1.231 0.337 1.650 0.357" stroke="hsl(0.0,100%,35%)" stroke-width="0.01230"></path>
<path d="M1.179 0.128 Q0.579 0.083 0.360 0.366" stroke="hsl(0.0,100%,35%)" stroke-width="0.01230"></path>
<path d="M1.179 0.128 Q0.792 0.112 0.675 0.297" stroke="hsl(0.0,100%,35%)" stroke-width="0.01230"></path>
</g>
<text x="0.641" y="0.485" font-size="0.058977" fill="hsl(0.0,100%,20%)">akhoroshilov</text>
<text x="0.837" y="0.701" font-size="0.102151" fill="hsl(0.0,100%,20%)">sdefresne</text>
<text x="1.179" y="0.062" font-size="0.131876" fill="hsl(0.0,100%,20%)">tikuta</text>
<text x="0.565" y="0.134" font-size="0.072232" fill="hsl(0.0,100%,20%)">digit</text>
<text x="1.087" y="0.194" font-size="0.029488" fill="hsl(0.0,100%,20%)">agrieve</text>
<text x="1.650" y="0.342" font-size="0.029488" fill="hsl(0.0,100%,20%)">dpranke</text>
<text x="0.360" y="0.352" font-size="0.029488" fill="hsl(0.0,100%,20%)">thakis</text>
<text x="0.675" y="0.283" font-size="0.029488" fill="hsl(0.0,100%,20%)">msta</text>
</svg>
