<svg width="4000" height="2000" viewBox="-0.025 -0.025 2.05 1.05" xmlns="http://www.w3.org/2000/svg">
  <style>
    path {
      fill: none;
      stroke-linecap: round;
      stroke-opacity: 0.4;
    }

    text {
      text-anchor: middle;
      alignment-baseline: hanging;
    }
  </style>
  <g opacity="0.4">
<path d="M1.486 0.590 Q1.502 0.732 1.782 0.755" stroke="hsl(0.0,100%,35%)" stroke-width="0.02635"></path>
<path d="M1.486 0.590 Q1.924 0.470 1.786 0.230" stroke="hsl(0.0,100%,35%)" stroke-width="0.01318"></path>
<path d="M1.486 0.590 Q1.449 0.439 1.145 0.423" stroke="hsl(0.0,100%,35%)" stroke-width="0.01318"></path>
<path d="M1.786 0.230 Q1.311 0.198 1.145 0.423" stroke="hsl(0.0,100%,35%)" stroke-width="0.06588"></path>
<path d="M1.786 0.230 Q1.514 0.161 1.318 0.278" stroke="hsl(0.0,100%,35%)" stroke-width="0.01318"></path>
<path d="M1.786 0.230 Q1.364 0.492 1.782 0.755" stroke="hsl(0.0,100%,35%)" stroke-width="0.06588"></path>
<path d="M0.640 0.487 Q0.408 0.554 0.486 0.682" stroke="hsl(180.0,100%,35%)" stroke-width="0.01318"></path>
<path d="M0.640 0.487 Q0.819 0.644 1.165 0.591" stroke="hsl(180.0,100%,35%)" stroke-width="0.01318"></path>
<path d="M0.640 0.487 Q0.798 0.519 0.894 0.449" stroke="hsl(180.0,100%,35%)" stroke-width="0.01318"></path>
<path d="M1.766 0.847 Q1.848 0.804 1.782 0.755" stroke="hsl(0.0,100%,35%)" stroke-width="0.02635"></path>
<path d="M1.766 0.847 Q1.795 0.511 1.145 0.423" stroke="hsl(0.0,100%,35%)" stroke-width="0.02635"></path>
<path d="M1.766 0.847 Q2.270 0.543 1.786 0.230" stroke="hsl(0.0,100%,35%)" stroke-width="0.02635"></path>
</g>
<text x="1.486" y="0.562" font-size="0.057735" fill="hsl(0.0,100%,20%)">akhoroshilov</text>
<text x="1.782" y="0.712" font-size="0.086603" fill="hsl(0.0,100%,20%)">sdefresne</text>
<text x="1.786" y="0.176" font-size="0.108012" fill="hsl(0.0,100%,20%)">tikuta</text>
<text x="1.145" y="0.382" font-size="0.081650" fill="hsl(0.0,100%,20%)">digit</text>
<text x="0.640" y="0.462" font-size="0.050000" fill="hsl(180.0,100%,20%)">mliedtke</text>
<text x="0.486" y="0.667" font-size="0.028868" fill="hsl(180.0,100%,20%)">agrieve</text>
<text x="1.165" y="0.577" font-size="0.028868" fill="hsl(180.0,100%,20%)">grt</text>
<text x="0.894" y="0.434" font-size="0.028868" fill="hsl(180.0,100%,20%)">machenbach</text>
<text x="1.318" y="0.264" font-size="0.028868" fill="hsl(0.0,100%,20%)">msta</text>
<text x="1.766" y="0.812" font-size="0.070711" fill="hsl(0.0,100%,20%)">yuje</text>
</svg>
