<svg width="4000" height="2000" viewBox="-0.025 -0.025 2.05 1.05" xmlns="http://www.w3.org/2000/svg">
  <style>
    path {
      fill: none;
      stroke-linecap: round;
      stroke-opacity: 0.4;
    }

    text {
      text-anchor: middle;
      alignment-baseline: hanging;
    }
  </style>
  <g opacity="0.4">
<path d="M1.470 0.570 Q1.556 0.713 1.854 0.703" stroke="hsl(0.0,100%,35%)" stroke-width="0.02018"></path>
<path d="M1.470 0.570 Q1.051 0.662 1.139 0.886" stroke="hsl(0.0,100%,35%)" stroke-width="0.01346"></path>
<path d="M1.470 0.570 Q1.207 0.367 0.753 0.451" stroke="hsl(0.0,100%,35%)" stroke-width="0.04710"></path>
<path d="M1.470 0.570 Q1.317 0.163 0.490 0.148" stroke="hsl(0.0,100%,35%)" stroke-width="0.02018"></path>
<path d="M0.490 0.148 Q0.379 0.352 0.753 0.451" stroke="hsl(0.0,100%,35%)" stroke-width="0.08074"></path>
<path d="M0.490 0.148 Q0.519 0.413 1.041 0.457" stroke="hsl(0.0,100%,35%)" stroke-width="0.01346"></path>
<path d="M0.490 0.148 Q0.286 0.235 0.410 0.353" stroke="hsl(0.0,100%,35%)" stroke-width="0.04710"></path>
<path d="M0.490 0.148 Q0.642 0.555 1.470 0.570" stroke="hsl(0.0,100%,35%)" stroke-width="0.00673"></path>
<path d="M0.490 0.148 Q0.728 0.698 1.854 0.703" stroke="hsl(0.0,100%,35%)" stroke-width="0.00673"></path>
<path d="M0.490 0.148 Q0.511 0.255 0.723 0.268" stroke="hsl(0.0,100%,35%)" stroke-width="0.00673"></path>
<path d="M0.490 0.148 Q0.835 0.355 1.314 0.232" stroke="hsl(0.0,100%,35%)" stroke-width="0.00673"></path>
<path d="M1.388 0.357 Q0.995 0.277 0.753 0.451" stroke="hsl(0.0,100%,35%)" stroke-width="0.02018"></path>
<path d="M1.388 0.357 Q0.902 0.159 0.410 0.353" stroke="hsl(0.0,100%,35%)" stroke-width="0.02018"></path>
<path d="M1.388 0.357 Q1.106 0.073 0.490 0.148" stroke="hsl(0.0,100%,35%)" stroke-width="0.00673"></path>
</g>
<text x="1.470" y="0.529" font-size="0.082514" fill="hsl(0.0,100%,20%)">agrieve</text>
<text x="1.854" y="0.682" font-size="0.041257" fill="hsl(0.0,100%,20%)">dpranke</text>
<text x="1.139" y="0.872" font-size="0.029173" fill="hsl(0.0,100%,20%)">mcgrathr</text>
<text x="0.753" y="0.403" font-size="0.096756" fill="hsl(0.0,100%,20%)">digit</text>
<text x="0.490" y="0.093" font-size="0.111087" fill="hsl(0.0,100%,20%)">tikuta</text>
<text x="1.388" y="0.329" font-size="0.054578" fill="hsl(0.0,100%,20%)">jkim</text>
<text x="0.410" y="0.321" font-size="0.065233" fill="hsl(0.0,100%,20%)">sdefresne</text>
<text x="1.041" y="0.442" font-size="0.029173" fill="hsl(0.0,100%,20%)">phosek</text>
<text x="0.723" y="0.257" font-size="0.020628" fill="hsl(0.0,100%,20%)">thakis</text>
<text x="1.314" y="0.221" font-size="0.020628" fill="hsl(0.0,100%,20%)">msta</text>
</svg>
