<svg width="4000" height="2000" viewBox="-0.025 -0.025 2.05 1.05" xmlns="http://www.w3.org/2000/svg">
  <style>
    path {
      fill: none;
      stroke-linecap: round;
      stroke-opacity: 0.4;
    }

    text {
      text-anchor: middle;
      alignment-baseline: hanging;
    }
  </style>
  <g opacity="0.4">
<path d="M1.133 0.975 Q1.426 0.825 1.196 0.649" stroke="hsl(0.0,100%,35%)" stroke-width="0.00091"></path>
<path d="M1.133 0.975 Q1.855 0.749 1.573 0.347" stroke="hsl(0.0,100%,35%)" stroke-width="0.00454"></path>
<path d="M1.133 0.975 Q1.465 0.557 0.722 0.303" stroke="hsl(0.0,100%,35%)" stroke-width="0.00636"></path>
<path d="M1.133 0.975 Q1.296 1.025 1.429 0.956" stroke="hsl(0.0,100%,35%)" stroke-width="0.00091"></path>
<path d="M1.133 0.975 Q1.224 0.909 1.115 0.850" stroke="hsl(0.0,100%,35%)" stroke-width="0.00727"></path>
<path d="M1.133 0.975 Q1.419 0.645 0.837 0.433" stroke="hsl(0.0,100%,35%)" stroke-width="0.00091"></path>
<path d="M1.133 0.975 Q1.955 0.822 1.837 0.387" stroke="hsl(0.0,100%,35%)" stroke-width="0.00182"></path>
<path d="M1.133 0.975 Q1.314 0.629 0.679 0.466" stroke="hsl(0.0,100%,35%)" stroke-width="0.00454"></path>
<path d="M1.133 0.975 Q1.186 0.652 0.566 0.555" stroke="hsl(0.0,100%,35%)" stroke-width="0.00091"></path>
<path d="M1.133 0.975 Q1.430 0.972 1.490 0.827" stroke="hsl(0.0,100%,35%)" stroke-width="0.00272"></path>
<path d="M1.196 0.649 Q1.236 0.381 0.722 0.303" stroke="hsl(0.0,100%,35%)" stroke-width="0.00999"></path>
<path d="M1.196 0.649 Q1.084 0.454 0.679 0.466" stroke="hsl(0.0,100%,35%)" stroke-width="0.00363"></path>
<path d="M1.196 0.649 Q1.284 0.689 1.382 0.655" stroke="hsl(0.0,100%,35%)" stroke-width="0.00182"></path>
<path d="M1.196 0.649 Q1.189 0.469 0.837 0.433" stroke="hsl(0.0,100%,35%)" stroke-width="0.00182"></path>
<path d="M1.196 0.649 Q1.537 0.404 1.135 0.184" stroke="hsl(0.0,100%,35%)" stroke-width="0.00091"></path>
<path d="M1.196 0.649 Q1.159 0.734 1.317 0.771" stroke="hsl(0.0,100%,35%)" stroke-width="0.00091"></path>
<path d="M1.196 0.649 Q1.726 0.646 1.837 0.387" stroke="hsl(0.0,100%,35%)" stroke-width="0.00363"></path>
<path d="M1.196 0.649 Q1.101 0.366 0.528 0.350" stroke="hsl(0.0,100%,35%)" stroke-width="0.00091"></path>
<path d="M1.196 0.649 Q1.226 0.519 0.979 0.476" stroke="hsl(0.0,100%,35%)" stroke-width="0.00091"></path>
<path d="M1.196 0.649 Q1.626 0.573 1.573 0.347" stroke="hsl(0.0,100%,35%)" stroke-width="0.00454"></path>
<path d="M1.573 0.347 Q1.143 0.423 1.196 0.649" stroke="hsl(0.0,100%,35%)" stroke-width="0.00908"></path>
<path d="M1.573 0.347 Q1.136 0.243 0.837 0.433" stroke="hsl(0.0,100%,35%)" stroke-width="0.01090"></path>
<path d="M1.573 0.347 Q1.183 0.155 0.722 0.303" stroke="hsl(0.0,100%,35%)" stroke-width="0.01453"></path>
<path d="M1.573 0.347 Q1.031 0.228 0.679 0.466" stroke="hsl(0.0,100%,35%)" stroke-width="0.01453"></path>
<path d="M1.573 0.347 Q1.673 0.420 1.837 0.387" stroke="hsl(0.0,100%,35%)" stroke-width="0.02452"></path>
<path d="M1.573 0.347 Q1.048 0.140 0.528 0.350" stroke="hsl(0.0,100%,35%)" stroke-width="0.00091"></path>
<path d="M1.573 0.347 Q1.577 0.296 1.477 0.283" stroke="hsl(0.0,100%,35%)" stroke-width="0.00182"></path>
<path d="M1.573 0.347 Q1.732 0.344 1.762 0.266" stroke="hsl(0.0,100%,35%)" stroke-width="0.00091"></path>
<path d="M1.573 0.347 Q1.173 0.293 0.979 0.476" stroke="hsl(0.0,100%,35%)" stroke-width="0.00091"></path>
<path d="M1.573 0.347 Q1.480 0.392 1.548 0.448" stroke="hsl(0.0,100%,35%)" stroke-width="0.00091"></path>
<path d="M0.722 0.303 Q1.112 0.495 1.573 0.347" stroke="hsl(0.0,100%,35%)" stroke-width="0.00636"></path>
<path d="M0.722 0.303 Q0.571 0.376 0.679 0.466" stroke="hsl(0.0,100%,35%)" stroke-width="0.00363"></path>
<path d="M0.722 0.303 Q0.712 0.441 0.979 0.476" stroke="hsl(0.0,100%,35%)" stroke-width="0.00363"></path>
<path d="M0.722 0.303 Q1.212 0.568 1.837 0.387" stroke="hsl(0.0,100%,35%)" stroke-width="0.00182"></path>
<path d="M0.722 0.303 Q0.683 0.571 1.196 0.649" stroke="hsl(0.0,100%,35%)" stroke-width="0.00908"></path>
<path d="M0.722 0.303 Q0.587 0.288 0.528 0.350" stroke="hsl(0.0,100%,35%)" stroke-width="0.01635"></path>
<path d="M0.722 0.303 Q0.676 0.391 0.837 0.433" stroke="hsl(0.0,100%,35%)" stroke-width="0.00091"></path>
<path d="M0.722 0.303 Q0.595 0.509 0.968 0.616" stroke="hsl(0.0,100%,35%)" stroke-width="0.00091"></path>
<path d="M0.722 0.303 Q0.776 0.396 0.968 0.390" stroke="hsl(0.0,100%,35%)" stroke-width="0.00272"></path>
<path d="M0.722 0.303 Q0.374 0.361 0.411 0.544" stroke="hsl(0.0,100%,35%)" stroke-width="0.00091"></path>
<path d="M0.722 0.303 Q1.371 0.437 1.774 0.150" stroke="hsl(0.0,100%,35%)" stroke-width="0.00182"></path>
<path d="M0.722 0.303 Q0.932 0.396 1.160 0.314" stroke="hsl(0.0,100%,35%)" stroke-width="0.00182"></path>
<path d="M0.722 0.303 Q0.774 0.256 0.693 0.220" stroke="hsl(0.0,100%,35%)" stroke-width="0.00091"></path>
<path d="M0.722 0.303 Q0.813 0.503 1.223 0.502" stroke="hsl(0.0,100%,35%)" stroke-width="0.00091"></path>
<path d="M1.115 0.850 Q1.356 0.498 0.722 0.303" stroke="hsl(0.0,100%,35%)" stroke-width="0.00091"></path>
<path d="M1.115 0.850 Q1.321 0.914 1.490 0.827" stroke="hsl(0.0,100%,35%)" stroke-width="0.00091"></path>
<path d="M1.115 0.850 Q1.205 0.571 0.679 0.466" stroke="hsl(0.0,100%,35%)" stroke-width="0.00182"></path>
<path d="M1.115 0.850 Q1.746 0.690 1.573 0.347" stroke="hsl(0.0,100%,35%)" stroke-width="0.00182"></path>
<path d="M0.837 0.433 Q1.374 0.610 1.837 0.387" stroke="hsl(0.0,100%,35%)" stroke-width="0.00817"></path>
<path d="M0.837 0.433 Q1.274 0.537 1.573 0.347" stroke="hsl(0.0,100%,35%)" stroke-width="0.01181"></path>
<path d="M0.837 0.433 Q0.884 0.345 0.722 0.303" stroke="hsl(0.0,100%,35%)" stroke-width="0.04905"></path>
<path d="M0.837 0.433 Q0.742 0.475 0.803 0.531" stroke="hsl(0.0,100%,35%)" stroke-width="0.00182"></path>
<path d="M0.837 0.433 Q0.732 0.418 0.679 0.466" stroke="hsl(0.0,100%,35%)" stroke-width="0.00363"></path>
<path d="M0.837 0.433 Q0.874 0.483 0.979 0.476" stroke="hsl(0.0,100%,35%)" stroke-width="0.00545"></path>
<path d="M0.837 0.433 Q0.844 0.613 1.196 0.649" stroke="hsl(0.0,100%,35%)" stroke-width="0.00091"></path>
<path d="M0.837 0.433 Q0.813 0.471 0.883 0.492" stroke="hsl(0.0,100%,35%)" stroke-width="0.00272"></path>
<path d="M0.837 0.433 Q0.797 0.468 0.856 0.496" stroke="hsl(0.0,100%,35%)" stroke-width="0.00091"></path>
<path d="M1.837 0.387 Q1.307 0.390 1.196 0.649" stroke="hsl(0.0,100%,35%)" stroke-width="0.00545"></path>
<path d="M1.837 0.387 Q1.737 0.314 1.573 0.347" stroke="hsl(0.0,100%,35%)" stroke-width="0.02907"></path>
<path d="M1.837 0.387 Q1.347 0.122 0.722 0.303" stroke="hsl(0.0,100%,35%)" stroke-width="0.03270"></path>
<path d="M1.837 0.387 Q1.300 0.210 0.837 0.433" stroke="hsl(0.0,100%,35%)" stroke-width="0.01544"></path>
<path d="M1.837 0.387 Q1.195 0.195 0.679 0.466" stroke="hsl(0.0,100%,35%)" stroke-width="0.00999"></path>
<path d="M1.837 0.387 Q1.606 0.399 1.579 0.514" stroke="hsl(0.0,100%,35%)" stroke-width="0.00182"></path>
<path d="M1.837 0.387 Q1.337 0.260 0.979 0.476" stroke="hsl(0.0,100%,35%)" stroke-width="0.00182"></path>
<path d="M1.837 0.387 Q1.212 0.107 0.528 0.350" stroke="hsl(0.0,100%,35%)" stroke-width="0.00727"></path>
<path d="M1.837 0.387 Q1.312 0.538 1.490 0.827" stroke="hsl(0.0,100%,35%)" stroke-width="0.00091"></path>
<path d="M0.679 0.466 Q0.830 0.393 0.722 0.303" stroke="hsl(0.0,100%,35%)" stroke-width="0.03270"></path>
<path d="M0.679 0.466 Q0.791 0.661 1.196 0.649" stroke="hsl(0.0,100%,35%)" stroke-width="0.00817"></path>
<path d="M0.679 0.466 Q0.696 0.378 0.528 0.350" stroke="hsl(0.0,100%,35%)" stroke-width="0.02543"></path>
<path d="M0.679 0.466 Q1.221 0.585 1.573 0.347" stroke="hsl(0.0,100%,35%)" stroke-width="0.00091"></path>
<path d="M0.679 0.466 Q0.784 0.481 0.837 0.433" stroke="hsl(0.0,100%,35%)" stroke-width="0.00091"></path>
<path d="M0.679 0.466 Q0.879 0.701 1.382 0.655" stroke="hsl(0.0,100%,35%)" stroke-width="0.00091"></path>
<path d="M0.679 0.466 Q0.820 0.531 0.979 0.476" stroke="hsl(0.0,100%,35%)" stroke-width="0.00091"></path>
<path d="M0.679 0.466 Q0.884 0.486 0.968 0.390" stroke="hsl(0.0,100%,35%)" stroke-width="0.00272"></path>
<path d="M0.679 0.466 Q0.482 0.451 0.411 0.544" stroke="hsl(0.0,100%,35%)" stroke-width="0.00091"></path>
<path d="M0.679 0.466 Q0.703 0.598 0.968 0.616" stroke="hsl(0.0,100%,35%)" stroke-width="0.00091"></path>
<path d="M0.679 0.466 Q0.549 0.512 0.612 0.586" stroke="hsl(0.0,100%,35%)" stroke-width="0.00363"></path>
<path d="M0.679 0.466 Q0.509 0.465 0.470 0.548" stroke="hsl(0.0,100%,35%)" stroke-width="0.00182"></path>
<path d="M0.566 0.555 Q0.694 0.533 0.679 0.466" stroke="hsl(0.0,100%,35%)" stroke-width="0.00182"></path>
<path d="M0.566 0.555 Q0.514 0.878 1.133 0.975" stroke="hsl(0.0,100%,35%)" stroke-width="0.00091"></path>
<path d="M0.566 0.555 Q0.605 0.812 1.115 0.850" stroke="hsl(0.0,100%,35%)" stroke-width="0.00091"></path>
<path d="M1.195 0.366 Q1.399 0.432 1.573 0.347" stroke="hsl(0.0,100%,35%)" stroke-width="0.00091"></path>
<path d="M1.195 0.366 Q0.767 0.592 1.115 0.850" stroke="hsl(0.0,100%,35%)" stroke-width="0.00182"></path>
<path d="M1.195 0.366 Q1.008 0.240 0.722 0.303" stroke="hsl(0.0,100%,35%)" stroke-width="0.00908"></path>
<path d="M1.195 0.366 Q0.857 0.312 0.679 0.466" stroke="hsl(0.0,100%,35%)" stroke-width="0.00545"></path>
<path d="M1.762 0.266 Q1.212 0.077 0.722 0.303" stroke="hsl(0.0,100%,35%)" stroke-width="0.00454"></path>
<path d="M1.762 0.266 Q1.173 0.344 1.196 0.649" stroke="hsl(0.0,100%,35%)" stroke-width="0.00272"></path>
<path d="M1.762 0.266 Q0.864 0.135 0.411 0.544" stroke="hsl(0.0,100%,35%)" stroke-width="0.00182"></path>
<path d="M1.762 0.266 Q1.703 0.342 1.837 0.387" stroke="hsl(0.0,100%,35%)" stroke-width="0.00636"></path>
<path d="M1.762 0.266 Q1.603 0.269 1.573 0.347" stroke="hsl(0.0,100%,35%)" stroke-width="0.00272"></path>
<path d="M0.411 0.544 Q0.608 0.558 0.679 0.466" stroke="hsl(0.0,100%,35%)" stroke-width="0.00182"></path>
<path d="M0.411 0.544 Q1.150 0.678 1.573 0.347" stroke="hsl(0.0,100%,35%)" stroke-width="0.00091"></path>
<path d="M0.411 0.544 Q0.625 0.471 0.528 0.350" stroke="hsl(0.0,100%,35%)" stroke-width="0.00091"></path>
<path d="M1.084 0.430 Q1.004 0.294 0.722 0.303" stroke="hsl(0.0,100%,35%)" stroke-width="0.00182"></path>
<path d="M1.084 0.430 Q0.958 0.382 0.837 0.433" stroke="hsl(0.0,100%,35%)" stroke-width="0.00091"></path>
<path d="M1.084 0.430 Q0.656 0.353 0.411 0.544" stroke="hsl(0.0,100%,35%)" stroke-width="0.00091"></path>
<path d="M1.084 0.430 Q0.853 0.367 0.679 0.466" stroke="hsl(0.0,100%,35%)" stroke-width="0.00091"></path>
<path d="M1.084 0.430 Q1.394 0.486 1.573 0.347" stroke="hsl(0.0,100%,35%)" stroke-width="0.00091"></path>
<path d="M1.411 0.505 Q1.188 0.534 1.196 0.649" stroke="hsl(0.0,100%,35%)" stroke-width="0.00091"></path>
<path d="M1.411 0.505 Q1.618 0.458 1.573 0.347" stroke="hsl(0.0,100%,35%)" stroke-width="0.00182"></path>
<path d="M1.411 0.505 Q1.228 0.266 0.722 0.303" stroke="hsl(0.0,100%,35%)" stroke-width="0.00091"></path>
<path d="M1.411 0.505 Q1.718 0.531 1.837 0.387" stroke="hsl(0.0,100%,35%)" stroke-width="0.00091"></path>
<path d="M1.281 0.213 Q0.883 0.234 0.837 0.433" stroke="hsl(0.0,100%,35%)" stroke-width="0.00091"></path>
<path d="M1.281 0.213 Q1.319 0.338 1.573 0.347" stroke="hsl(0.0,100%,35%)" stroke-width="0.00182"></path>
<path d="M1.281 0.213 Q0.890 0.414 1.196 0.649" stroke="hsl(0.0,100%,35%)" stroke-width="0.00091"></path>
<path d="M0.979 0.476 Q1.380 0.530 1.573 0.347" stroke="hsl(0.0,100%,35%)" stroke-width="0.00182"></path>
<path d="M0.979 0.476 Q0.989 0.338 0.722 0.303" stroke="hsl(0.0,100%,35%)" stroke-width="0.02725"></path>
<path d="M0.979 0.476 Q0.943 0.426 0.837 0.433" stroke="hsl(0.0,100%,35%)" stroke-width="0.00091"></path>
<path d="M0.979 0.476 Q0.950 0.606 1.196 0.649" stroke="hsl(0.0,100%,35%)" stroke-width="0.00363"></path>
<path d="M0.979 0.476 Q0.855 0.323 0.528 0.350" stroke="hsl(0.0,100%,35%)" stroke-width="0.01362"></path>
<path d="M0.979 0.476 Q0.838 0.411 0.679 0.466" stroke="hsl(0.0,100%,35%)" stroke-width="0.00182"></path>
<path d="M0.528 0.350 Q0.662 0.365 0.722 0.303" stroke="hsl(0.0,100%,35%)" stroke-width="0.06994"></path>
<path d="M0.528 0.350 Q0.511 0.438 0.679 0.466" stroke="hsl(0.0,100%,35%)" stroke-width="0.01362"></path>
<path d="M0.528 0.350 Q0.623 0.633 1.196 0.649" stroke="hsl(0.0,100%,35%)" stroke-width="0.00908"></path>
<path d="M0.528 0.350 Q0.653 0.504 0.979 0.476" stroke="hsl(0.0,100%,35%)" stroke-width="0.00817"></path>
<path d="M0.968 0.616 Q1.095 0.410 0.722 0.303" stroke="hsl(0.0,100%,35%)" stroke-width="0.00908"></path>
<path d="M0.968 0.616 Q1.085 0.548 0.979 0.476" stroke="hsl(0.0,100%,35%)" stroke-width="0.00091"></path>
<path d="M0.968 0.616 Q1.056 0.678 1.196 0.649" stroke="hsl(0.0,100%,35%)" stroke-width="0.01635"></path>
<path d="M0.968 0.616 Q0.896 0.657 0.961 0.701" stroke="hsl(0.0,100%,35%)" stroke-width="0.00091"></path>
<path d="M0.968 0.616 Q1.292 0.615 1.361 0.456" stroke="hsl(0.0,100%,35%)" stroke-width="0.00091"></path>
<path d="M0.968 0.390 Q0.915 0.297 0.722 0.303" stroke="hsl(0.0,100%,35%)" stroke-width="0.04087"></path>
<path d="M0.968 0.390 Q0.763 0.370 0.679 0.466" stroke="hsl(0.0,100%,35%)" stroke-width="0.00182"></path>
<path d="M0.968 0.390 Q0.780 0.282 0.528 0.350" stroke="hsl(0.0,100%,35%)" stroke-width="0.00454"></path>
<path d="M0.968 0.390 Q0.788 0.503 0.968 0.616" stroke="hsl(0.0,100%,35%)" stroke-width="0.00091"></path>
<path d="M0.968 0.390 Q0.875 0.565 1.196 0.649" stroke="hsl(0.0,100%,35%)" stroke-width="0.00272"></path>
<path d="M0.968 0.390 Q0.566 0.356 0.411 0.544" stroke="hsl(0.0,100%,35%)" stroke-width="0.00091"></path>
<path d="M1.223 0.502 Q1.132 0.302 0.722 0.303" stroke="hsl(0.0,100%,35%)" stroke-width="0.00363"></path>
<path d="M1.223 0.502 Q1.093 0.570 1.196 0.649" stroke="hsl(0.0,100%,35%)" stroke-width="0.00363"></path>
<path d="M1.223 0.502 Q1.122 0.441 0.979 0.476" stroke="hsl(0.0,100%,35%)" stroke-width="0.00182"></path>
<path d="M1.223 0.502 Q1.780 0.436 1.774 0.150" stroke="hsl(0.0,100%,35%)" stroke-width="0.00091"></path>
<path d="M1.223 0.502 Q1.310 0.487 1.299 0.442" stroke="hsl(0.0,100%,35%)" stroke-width="0.00091"></path>
<path d="M1.223 0.502 Q1.227 0.489 1.203 0.485" stroke="hsl(0.0,100%,35%)" stroke-width="0.00091"></path>
<path d="M1.223 0.502 Q1.222 0.210 0.652 0.147" stroke="hsl(0.0,100%,35%)" stroke-width="0.00091"></path>
<path d="M1.223 0.502 Q0.997 0.287 0.528 0.350" stroke="hsl(0.0,100%,35%)" stroke-width="0.00091"></path>
<path d="M1.223 0.502 Q1.086 0.390 0.837 0.433" stroke="hsl(0.0,100%,35%)" stroke-width="0.00091"></path>
<path d="M1.223 0.502 Q1.522 0.495 1.573 0.347" stroke="hsl(0.0,100%,35%)" stroke-width="0.00091"></path>
<path d="M1.303 0.534 Q1.197 0.302 0.722 0.303" stroke="hsl(0.0,100%,35%)" stroke-width="0.00091"></path>
<path d="M1.303 0.534 Q1.157 0.570 1.196 0.649" stroke="hsl(0.0,100%,35%)" stroke-width="0.00091"></path>
<path d="M1.579 0.514 Q1.319 0.237 0.722 0.303" stroke="hsl(0.0,100%,35%)" stroke-width="0.00636"></path>
<path d="M1.579 0.514 Q1.710 0.429 1.573 0.347" stroke="hsl(0.0,100%,35%)" stroke-width="0.00454"></path>
<path d="M1.579 0.514 Q1.810 0.502 1.837 0.387" stroke="hsl(0.0,100%,35%)" stroke-width="0.00363"></path>
<path d="M1.579 0.514 Q1.078 0.589 1.115 0.850" stroke="hsl(0.0,100%,35%)" stroke-width="0.00363"></path>
<path d="M1.943 0.383 Q1.357 0.367 1.196 0.649" stroke="hsl(0.0,100%,35%)" stroke-width="0.00091"></path>
<path d="M1.943 0.383 Q2.045 0.233 1.774 0.150" stroke="hsl(0.0,100%,35%)" stroke-width="0.00182"></path>
<path d="M1.943 0.383 Q1.856 0.205 1.490 0.208" stroke="hsl(0.0,100%,35%)" stroke-width="0.00182"></path>
<path d="M1.943 0.383 Q1.885 0.429 1.962 0.467" stroke="hsl(0.0,100%,35%)" stroke-width="0.00091"></path>
<path d="M1.490 0.208 Q1.678 0.236 1.774 0.150" stroke="hsl(0.0,100%,35%)" stroke-width="0.00182"></path>
<path d="M1.490 0.208 Q1.478 0.164 1.389 0.160" stroke="hsl(0.0,100%,35%)" stroke-width="0.00182"></path>
<path d="M1.490 0.208 Q0.991 0.370 1.196 0.649" stroke="hsl(0.0,100%,35%)" stroke-width="0.00091"></path>
<path d="M1.490 0.208 Q1.555 0.110 1.378 0.057" stroke="hsl(0.0,100%,35%)" stroke-width="0.00091"></path>
<path d="M0.883 0.393 Q0.875 0.316 0.722 0.303" stroke="hsl(0.0,100%,35%)" stroke-width="0.00363"></path>
<path d="M0.883 0.393 Q0.929 0.409 0.968 0.390" stroke="hsl(0.0,100%,35%)" stroke-width="0.00182"></path>
<path d="M0.883 0.393 Q0.740 0.301 0.528 0.350" stroke="hsl(0.0,100%,35%)" stroke-width="0.00091"></path>
<path d="M0.473 0.465 Q0.727 0.434 0.722 0.303" stroke="hsl(0.0,100%,35%)" stroke-width="0.00363"></path>
<path d="M0.473 0.465 Q0.687 0.701 1.196 0.649" stroke="hsl(0.0,100%,35%)" stroke-width="0.00091"></path>
<path d="M0.473 0.465 Q0.592 0.418 0.528 0.350" stroke="hsl(0.0,100%,35%)" stroke-width="0.00091"></path>
<path d="M0.692 0.907 Q0.589 0.904 0.561 0.955" stroke="hsl(0.0,100%,35%)" stroke-width="0.00091"></path>
<path d="M0.692 0.907 Q1.450 0.888 1.579 0.514" stroke="hsl(0.0,100%,35%)" stroke-width="0.00091"></path>
<path d="M0.692 0.907 Q0.672 0.951 0.753 0.970" stroke="hsl(0.0,100%,35%)" stroke-width="0.00091"></path>
<path d="M1.803 0.473 Q1.889 0.437 1.837 0.387" stroke="hsl(0.0,100%,35%)" stroke-width="0.00272"></path>
<path d="M1.803 0.473 Q1.352 0.260 0.837 0.433" stroke="hsl(0.0,100%,35%)" stroke-width="0.00272"></path>
<path d="M1.803 0.473 Q1.789 0.364 1.573 0.347" stroke="hsl(0.0,100%,35%)" stroke-width="0.00091"></path>
<path d="M0.995 0.512 Q1.026 0.353 0.722 0.303" stroke="hsl(0.0,100%,35%)" stroke-width="0.00363"></path>
<path d="M0.995 0.512 Q0.891 0.337 0.528 0.350" stroke="hsl(0.0,100%,35%)" stroke-width="0.00363"></path>
<path d="M0.995 0.512 Q0.986 0.620 1.196 0.649" stroke="hsl(0.0,100%,35%)" stroke-width="0.00272"></path>
<path d="M0.168 0.832 Q0.829 0.946 1.196 0.649" stroke="hsl(0.0,100%,35%)" stroke-width="0.00091"></path>
<path d="M0.168 0.832 Q0.266 0.843 0.310 0.798" stroke="hsl(0.0,100%,35%)" stroke-width="0.00091"></path>
<path d="M0.168 0.832 Q0.228 0.769 0.119 0.727" stroke="hsl(0.0,100%,35%)" stroke-width="0.00091"></path>
<path d="M0.168 0.832 Q0.303 0.737 0.148 0.651" stroke="hsl(0.0,100%,35%)" stroke-width="0.00091"></path>
<path d="M0.526 0.698 Q0.488 0.767 0.615 0.801" stroke="hsl(0.0,100%,35%)" stroke-width="0.00272"></path>
<path d="M0.526 0.698 Q1.489 0.730 1.762 0.266" stroke="hsl(0.0,100%,35%)" stroke-width="0.00182"></path>
<path d="M0.526 0.698 Q0.384 0.737 0.428 0.814" stroke="hsl(0.0,100%,35%)" stroke-width="0.00182"></path>
<path d="M0.905 0.222 Q0.748 0.226 0.722 0.303" stroke="hsl(0.0,100%,35%)" stroke-width="0.00454"></path>
<path d="M0.905 0.222 Q1.239 0.491 1.837 0.387" stroke="hsl(0.0,100%,35%)" stroke-width="0.00091"></path>
<path d="M0.905 0.222 Q0.702 0.314 0.837 0.433" stroke="hsl(0.0,100%,35%)" stroke-width="0.00091"></path>
<path d="M0.905 0.222 Q1.138 0.418 1.573 0.347" stroke="hsl(0.0,100%,35%)" stroke-width="0.00091"></path>
<path d="M0.852 0.066 Q0.687 0.066 0.652 0.147" stroke="hsl(0.0,100%,35%)" stroke-width="0.00091"></path>
<path d="M0.852 0.066 Q0.821 0.033 0.750 0.040" stroke="hsl(0.0,100%,35%)" stroke-width="0.00091"></path>
<path d="M0.852 0.066 Q0.462 0.143 0.528 0.350" stroke="hsl(0.0,100%,35%)" stroke-width="0.00091"></path>
<path d="M0.324 0.095 Q0.357 0.279 0.722 0.303" stroke="hsl(0.0,100%,35%)" stroke-width="0.00091"></path>
<path d="M0.324 0.095 Q0.317 0.546 1.196 0.649" stroke="hsl(0.0,100%,35%)" stroke-width="0.00091"></path>
<path d="M0.324 0.095 Q0.327 0.144 0.422 0.153" stroke="hsl(0.0,100%,35%)" stroke-width="0.00091"></path>
<path d="M0.324 0.095 Q0.178 0.078 0.113 0.146" stroke="hsl(0.0,100%,35%)" stroke-width="0.00091"></path>
<path d="M0.324 0.095 Q0.457 0.103 0.502 0.040" stroke="hsl(0.0,100%,35%)" stroke-width="0.00091"></path>
<path d="M0.324 0.095 Q0.210 0.120 0.233 0.181" stroke="hsl(0.0,100%,35%)" stroke-width="0.00091"></path>
<path d="M0.324 0.095 Q0.423 0.155 0.562 0.121" stroke="hsl(0.0,100%,35%)" stroke-width="0.00091"></path>
<path d="M1.776 0.620 Q1.463 0.518 1.196 0.649" stroke="hsl(0.0,100%,35%)" stroke-width="0.00182"></path>
<path d="M1.776 0.620 Q1.503 0.251 0.722 0.303" stroke="hsl(0.0,100%,35%)" stroke-width="0.00091"></path>
<path d="M1.776 0.620 Q1.351 0.323 0.679 0.466" stroke="hsl(0.0,100%,35%)" stroke-width="0.00091"></path>
<path d="M1.776 0.620 Q1.893 0.443 1.573 0.347" stroke="hsl(0.0,100%,35%)" stroke-width="0.00182"></path>
<path d="M0.067 0.538 Q0.543 0.819 1.196 0.649" stroke="hsl(0.0,100%,35%)" stroke-width="0.00091"></path>
<path d="M0.067 0.538 Q0.122 0.579 0.214 0.561" stroke="hsl(0.0,100%,35%)" stroke-width="0.00091"></path>
<path d="M0.067 0.538 Q0.573 0.690 0.979 0.476" stroke="hsl(0.0,100%,35%)" stroke-width="0.00091"></path>
<path d="M1.071 0.119 Q0.703 0.229 0.837 0.433" stroke="hsl(0.0,100%,35%)" stroke-width="0.00182"></path>
<path d="M1.071 0.119 Q0.710 0.409 1.196 0.649" stroke="hsl(0.0,100%,35%)" stroke-width="0.00091"></path>
<path d="M1.071 0.119 Q1.051 0.164 1.135 0.184" stroke="hsl(0.0,100%,35%)" stroke-width="0.00091"></path>
<path d="M1.036 0.479 Q1.020 0.328 0.722 0.303" stroke="hsl(0.0,100%,35%)" stroke-width="0.00182"></path>
<path d="M1.036 0.479 Q1.010 0.466 0.979 0.476" stroke="hsl(0.0,100%,35%)" stroke-width="0.00091"></path>
<path d="M1.036 0.479 Q0.868 0.401 0.679 0.466" stroke="hsl(0.0,100%,35%)" stroke-width="0.00182"></path>
<path d="M1.352 0.431 Q1.130 0.379 0.979 0.476" stroke="hsl(0.0,100%,35%)" stroke-width="0.00091"></path>
<path d="M1.352 0.431 Q1.005 0.226 0.528 0.350" stroke="hsl(0.0,100%,35%)" stroke-width="0.00091"></path>
<path d="M1.352 0.431 Q1.093 0.329 0.837 0.433" stroke="hsl(0.0,100%,35%)" stroke-width="0.00091"></path>
<path d="M1.352 0.431 Q1.530 0.433 1.573 0.347" stroke="hsl(0.0,100%,35%)" stroke-width="0.00272"></path>
<path d="M1.352 0.431 Q1.100 0.509 1.196 0.649" stroke="hsl(0.0,100%,35%)" stroke-width="0.00091"></path>
<path d="M0.915 0.351 Q0.857 0.289 0.722 0.303" stroke="hsl(0.0,100%,35%)" stroke-width="0.00545"></path>
<path d="M0.915 0.351 Q0.817 0.556 1.196 0.649" stroke="hsl(0.0,100%,35%)" stroke-width="0.00091"></path>
<path d="M0.915 0.351 Q0.705 0.361 0.679 0.466" stroke="hsl(0.0,100%,35%)" stroke-width="0.00091"></path>
<path d="M0.883 0.492 Q0.914 0.633 1.196 0.649" stroke="hsl(0.0,100%,35%)" stroke-width="0.00091"></path>
<path d="M0.883 0.492 Q0.953 0.365 0.722 0.303" stroke="hsl(0.0,100%,35%)" stroke-width="0.00091"></path>
<path d="M0.883 0.492 Q0.907 0.453 0.837 0.433" stroke="hsl(0.0,100%,35%)" stroke-width="0.00091"></path>
<path d="M0.883 0.492 Q0.819 0.350 0.528 0.350" stroke="hsl(0.0,100%,35%)" stroke-width="0.00091"></path>
<path d="M0.883 0.492 Q0.943 0.503 0.979 0.476" stroke="hsl(0.0,100%,35%)" stroke-width="0.00091"></path>
<path d="M1.185 0.724 Q1.290 0.421 0.722 0.303" stroke="hsl(0.0,100%,35%)" stroke-width="0.00091"></path>
<path d="M1.185 0.724 Q1.381 0.621 1.223 0.502" stroke="hsl(0.0,100%,35%)" stroke-width="0.00091"></path>
<path d="M1.185 0.724 Q1.250 0.688 1.196 0.649" stroke="hsl(0.0,100%,35%)" stroke-width="0.00091"></path>
<path d="M1.304 0.353 Q1.053 0.212 0.722 0.303" stroke="hsl(0.0,100%,35%)" stroke-width="0.00363"></path>
<path d="M1.304 0.353 Q1.543 0.476 1.837 0.387" stroke="hsl(0.0,100%,35%)" stroke-width="0.00091"></path>
<path d="M1.304 0.353 Q0.901 0.284 0.679 0.466" stroke="hsl(0.0,100%,35%)" stroke-width="0.00182"></path>
<path d="M1.304 0.353 Q0.918 0.196 0.528 0.350" stroke="hsl(0.0,100%,35%)" stroke-width="0.00091"></path>
<path d="M1.484 0.072 Q0.739 -0.165 0.113 0.146" stroke="hsl(0.0,100%,35%)" stroke-width="0.00091"></path>
<path d="M1.484 0.072 Q1.443 0.043 1.378 0.057" stroke="hsl(0.0,100%,35%)" stroke-width="0.00091"></path>
<path d="M1.484 0.072 Q1.519 0.110 1.600 0.102" stroke="hsl(0.0,100%,35%)" stroke-width="0.00091"></path>
<path d="M1.361 0.456 Q1.164 0.252 0.722 0.303" stroke="hsl(0.0,100%,35%)" stroke-width="0.00091"></path>
<path d="M1.361 0.456 Q1.125 0.520 1.196 0.649" stroke="hsl(0.0,100%,35%)" stroke-width="0.00182"></path>
<path d="M1.361 0.456 Q1.555 0.444 1.573 0.347" stroke="hsl(0.0,100%,35%)" stroke-width="0.00363"></path>
<path d="M1.212 0.437 Q1.166 0.472 1.223 0.502" stroke="hsl(0.0,100%,35%)" stroke-width="0.00091"></path>
<path d="M1.212 0.437 Q1.035 0.540 1.196 0.649" stroke="hsl(0.0,100%,35%)" stroke-width="0.00091"></path>
<path d="M1.212 0.437 Q1.565 0.537 1.837 0.387" stroke="hsl(0.0,100%,35%)" stroke-width="0.00091"></path>
<path d="M1.212 0.437 Q1.465 0.464 1.573 0.347" stroke="hsl(0.0,100%,35%)" stroke-width="0.00091"></path>
<path d="M1.273 0.168 Q0.737 0.198 0.679 0.466" stroke="hsl(0.0,100%,35%)" stroke-width="0.00091"></path>
<path d="M1.273 0.168 Q1.140 0.267 1.304 0.353" stroke="hsl(0.0,100%,35%)" stroke-width="0.00091"></path>
<path d="M1.273 0.168 Q0.889 0.125 0.722 0.303" stroke="hsl(0.0,100%,35%)" stroke-width="0.00091"></path>
<path d="M1.273 0.168 Q0.943 0.218 0.968 0.390" stroke="hsl(0.0,100%,35%)" stroke-width="0.00091"></path>
<path d="M1.881 0.584 Q1.526 0.212 0.722 0.303" stroke="hsl(0.0,100%,35%)" stroke-width="0.00182"></path>
<path d="M1.881 0.584 Q1.487 0.480 1.196 0.649" stroke="hsl(0.0,100%,35%)" stroke-width="0.00182"></path>
<path d="M1.881 0.584 Q1.800 0.581 1.776 0.620" stroke="hsl(0.0,100%,35%)" stroke-width="0.00182"></path>
<path d="M1.881 0.584 Q0.924 0.377 0.310 0.798" stroke="hsl(0.0,100%,35%)" stroke-width="0.00091"></path>
<path d="M1.881 0.584 Q0.886 0.303 0.119 0.727" stroke="hsl(0.0,100%,35%)" stroke-width="0.00091"></path>
<path d="M1.881 0.584 Q1.736 0.305 1.160 0.314" stroke="hsl(0.0,100%,35%)" stroke-width="0.00091"></path>
<path d="M1.881 0.584 Q1.516 0.350 0.979 0.476" stroke="hsl(0.0,100%,35%)" stroke-width="0.00091"></path>
<path d="M1.890 0.108 Q1.150 -0.028 0.722 0.303" stroke="hsl(0.0,100%,35%)" stroke-width="0.00091"></path>
<path d="M1.890 0.108 Q1.111 0.240 1.196 0.649" stroke="hsl(0.0,100%,35%)" stroke-width="0.00091"></path>
<path d="M1.890 0.108 Q1.723 0.085 1.641 0.161" stroke="hsl(0.0,100%,35%)" stroke-width="0.00091"></path>
</g>
<text x="1.133" y="0.962" font-size="0.026184" fill="hsl(0.0,100%,20%)">aaronwood</text>
<text x="1.196" y="0.623" font-size="0.051614" fill="hsl(0.0,100%,20%)">dpranke</text>
<text x="1.573" y="0.317" font-size="0.059709" fill="hsl(0.0,100%,20%)">tikuta</text>
<text x="0.722" y="0.256" font-size="0.093679" fill="hsl(0.0,100%,20%)">brettw</text>
<text x="1.429" y="0.954" font-size="0.004426" fill="hsl(0.0,100%,20%)">computerdruid</text>
<text x="1.115" y="0.840" font-size="0.020282" fill="hsl(0.0,100%,20%)">tmandry</text>
<text x="0.837" y="0.407" font-size="0.052181" fill="hsl(0.0,100%,20%)">sdefresne</text>
<text x="1.837" y="0.358" font-size="0.058883" fill="hsl(0.0,100%,20%)">digit</text>
<text x="0.679" y="0.437" font-size="0.057876" fill="hsl(0.0,100%,20%)">phosek</text>
<text x="0.566" y="0.550" font-size="0.009897" fill="hsl(0.0,100%,20%)">paulfaria</text>
<text x="1.490" y="0.822" font-size="0.009897" fill="hsl(0.0,100%,20%)">bwb</text>
<text x="1.195" y="0.356" font-size="0.019292" fill="hsl(0.0,100%,20%)">adetaylor</text>
<text x="1.762" y="0.256" font-size="0.021226" fill="hsl(0.0,100%,20%)">agrieve</text>
<text x="0.411" y="0.537" font-size="0.013996" fill="hsl(0.0,100%,20%)">mcgrathr</text>
<text x="1.084" y="0.425" font-size="0.010841" fill="hsl(0.0,100%,20%)">andrewsavage</text>
<text x="1.411" y="0.500" font-size="0.009897" fill="hsl(0.0,100%,20%)">baghdadi</text>
<text x="1.281" y="0.208" font-size="0.008852" fill="hsl(0.0,100%,20%)">bpastene</text>
<text x="0.979" y="0.456" font-size="0.041044" fill="hsl(0.0,100%,20%)">thakis</text>
<text x="0.528" y="0.319" font-size="0.062435" fill="hsl(0.0,100%,20%)">scottmg</text>
<text x="0.968" y="0.603" font-size="0.025807" fill="hsl(0.0,100%,20%)">thomasanderson</text>
<text x="0.968" y="0.372" font-size="0.035956" fill="hsl(0.0,100%,20%)">juliehockett</text>
<text x="1.774" y="0.144" font-size="0.011710" fill="hsl(0.0,100%,20%)">dcheng</text>
<text x="1.160" y="0.311" font-size="0.007666" fill="hsl(0.0,100%,20%)">wfh</text>
<text x="0.693" y="0.218" font-size="0.004426" fill="hsl(0.0,100%,20%)">rockot</text>
<text x="1.223" y="0.492" font-size="0.019793" fill="hsl(0.0,100%,20%)">brucedawson</text>
<text x="1.299" y="0.440" font-size="0.004426" fill="hsl(0.0,100%,20%)">jam</text>
<text x="1.203" y="0.483" font-size="0.004426" fill="hsl(0.0,100%,20%)">mef</text>
<text x="0.652" y="0.144" font-size="0.006259" fill="hsl(0.0,100%,20%)">sky</text>
<text x="1.303" y="0.530" font-size="0.006259" fill="hsl(0.0,100%,20%)">bungeman</text>
<text x="1.579" y="0.504" font-size="0.021226" fill="hsl(0.0,100%,20%)">danakj</text>
<text x="1.382" y="0.651" font-size="0.007666" fill="hsl(0.0,100%,20%)">iannucci</text>
<text x="1.135" y="0.181" font-size="0.006259" fill="hsl(0.0,100%,20%)">liaoyuke</text>
<text x="1.317" y="0.769" font-size="0.004426" fill="hsl(0.0,100%,20%)">smut</text>
<text x="1.943" y="0.378" font-size="0.010841" fill="hsl(0.0,100%,20%)">erikchen</text>
<text x="1.490" y="0.202" font-size="0.012518" fill="hsl(0.0,100%,20%)">ssid</text>
<text x="1.962" y="0.465" font-size="0.004426" fill="hsl(0.0,100%,20%)">haraken</text>
<text x="0.883" y="0.388" font-size="0.011710" fill="hsl(0.0,100%,20%)">haowei</text>
<text x="0.473" y="0.459" font-size="0.010841" fill="hsl(0.0,100%,20%)">jamesr</text>
<text x="0.692" y="0.903" font-size="0.007666" fill="hsl(0.0,100%,20%)">jbroman</text>
<text x="0.561" y="0.952" font-size="0.004426" fill="hsl(0.0,100%,20%)">dalecurtis</text>
<text x="0.753" y="0.968" font-size="0.004426" fill="hsl(0.0,100%,20%)">tzik</text>
<text x="1.803" y="0.467" font-size="0.011710" fill="hsl(0.0,100%,20%)">jkim</text>
<text x="0.995" y="0.505" font-size="0.014679" fill="hsl(0.0,100%,20%)">joearmstrong334</text>
<text x="0.168" y="0.827" font-size="0.008852" fill="hsl(0.0,100%,20%)">jyan</text>
<text x="0.310" y="0.795" font-size="0.006259" fill="hsl(0.0,100%,20%)">mark</text>
<text x="0.119" y="0.723" font-size="0.006259" fill="hsl(0.0,100%,20%)">palmer</text>
<text x="0.148" y="0.648" font-size="0.004426" fill="hsl(0.0,100%,20%)">scroggo</text>
<text x="0.526" y="0.692" font-size="0.011710" fill="hsl(0.0,100%,20%)">lizeb</text>
<text x="0.615" y="0.797" font-size="0.007666" fill="hsl(0.0,100%,20%)">mattcary</text>
<text x="0.428" y="0.811" font-size="0.006259" fill="hsl(0.0,100%,20%)">pasko</text>
<text x="0.905" y="0.216" font-size="0.012518" fill="hsl(0.0,100%,20%)">mfarazma</text>
<text x="0.852" y="0.062" font-size="0.007666" fill="hsl(0.0,100%,20%)">michaelpg</text>
<text x="0.750" y="0.038" font-size="0.004426" fill="hsl(0.0,100%,20%)">xhwang</text>
<text x="0.324" y="0.089" font-size="0.011710" fill="hsl(0.0,100%,20%)">msimonides</text>
<text x="0.422" y="0.151" font-size="0.004426" fill="hsl(0.0,100%,20%)">grt</text>
<text x="0.113" y="0.143" font-size="0.006259" fill="hsl(0.0,100%,20%)">jochen</text>
<text x="0.502" y="0.038" font-size="0.004426" fill="hsl(0.0,100%,20%)">pkasting</text>
<text x="0.233" y="0.179" font-size="0.004426" fill="hsl(0.0,100%,20%)">reveman</text>
<text x="0.562" y="0.118" font-size="0.004426" fill="hsl(0.0,100%,20%)">yzshen</text>
<text x="1.776" y="0.614" font-size="0.012518" fill="hsl(0.0,100%,20%)">pcc</text>
<text x="0.067" y="0.534" font-size="0.007666" fill="hsl(0.0,100%,20%)">pennymac</text>
<text x="0.214" y="0.559" font-size="0.004426" fill="hsl(0.0,100%,20%)">mmoroz</text>
<text x="1.071" y="0.115" font-size="0.008852" fill="hsl(0.0,100%,20%)">peterhanspers</text>
<text x="0.612" y="0.582" font-size="0.008852" fill="hsl(0.0,100%,20%)">vadimsh</text>
<text x="0.470" y="0.545" font-size="0.006259" fill="hsl(0.0,100%,20%)">tandrii</text>
<text x="1.036" y="0.474" font-size="0.009897" fill="hsl(0.0,100%,20%)">raphael.kubo.da.costa</text>
<text x="1.352" y="0.426" font-size="0.011710" fill="hsl(0.0,100%,20%)">ribalda</text>
<text x="0.915" y="0.345" font-size="0.012518" fill="hsl(0.0,100%,20%)">rjascani</text>
<text x="0.883" y="0.485" font-size="0.012518" fill="hsl(0.0,100%,20%)">rsesek</text>
<text x="1.185" y="0.720" font-size="0.007666" fill="hsl(0.0,100%,20%)">samogot</text>
<text x="0.803" y="0.527" font-size="0.006259" fill="hsl(0.0,100%,20%)">justincohen</text>
<text x="0.856" y="0.494" font-size="0.004426" fill="hsl(0.0,100%,20%)">noyau</text>
<text x="1.304" y="0.346" font-size="0.013278" fill="hsl(0.0,100%,20%)">shayba</text>
<text x="1.484" y="0.068" font-size="0.007666" fill="hsl(0.0,100%,20%)">skyostil</text>
<text x="1.378" y="0.054" font-size="0.006259" fill="hsl(0.0,100%,20%)">primiano</text>
<text x="1.600" y="0.099" font-size="0.004426" fill="hsl(0.0,100%,20%)">tdresser</text>
<text x="1.389" y="0.157" font-size="0.006259" fill="hsl(0.0,100%,20%)">xunjieli</text>
<text x="1.361" y="0.450" font-size="0.012518" fill="hsl(0.0,100%,20%)">thestig</text>
<text x="0.961" y="0.699" font-size="0.004426" fill="hsl(0.0,100%,20%)">fdoray</text>
<text x="1.477" y="0.280" font-size="0.006259" fill="hsl(0.0,100%,20%)">philwo</text>
<text x="1.548" y="0.445" font-size="0.004426" fill="hsl(0.0,100%,20%)">msta</text>
<text x="1.212" y="0.433" font-size="0.008852" fill="hsl(0.0,100%,20%)">tmoniuszko</text>
<text x="1.273" y="0.163" font-size="0.008852" fill="hsl(0.0,100%,20%)">tsniatowski</text>
<text x="1.881" y="0.577" font-size="0.013996" fill="hsl(0.0,100%,20%)">vtsyrklevich</text>
<text x="1.890" y="0.104" font-size="0.007666" fill="hsl(0.0,100%,20%)">wangqing-hf</text>
<text x="1.641" y="0.159" font-size="0.004426" fill="hsl(0.0,100%,20%)">machenbach</text>
</svg>
