<svg width="4000" height="2000" viewBox="-0.025 -0.025 2.05 1.05" xmlns="http://www.w3.org/2000/svg">
  <style>
    path {
      fill: none;
      stroke-linecap: round;
      stroke-opacity: 0.4;
    }

    text {
      text-anchor: middle;
      alignment-baseline: hanging;
    }
  </style>
  <g opacity="0.4">
<path d="M1.420 0.679 Q1.421 0.423 0.922 0.367" stroke="hsl(0.0,100%,35%)" stroke-width="0.00097"></path>
<path d="M1.420 0.679 Q0.676 0.487 0.137 0.808" stroke="hsl(0.0,100%,35%)" stroke-width="0.00485"></path>
<path d="M1.420 0.679 Q1.077 0.626 0.897 0.782" stroke="hsl(0.0,100%,35%)" stroke-width="0.00679"></path>
<path d="M1.420 0.679 Q1.509 0.692 1.554 0.652" stroke="hsl(0.0,100%,35%)" stroke-width="0.00097"></path>
<path d="M1.420 0.679 Q1.441 0.647 1.384 0.630" stroke="hsl(0.0,100%,35%)" stroke-width="0.00776"></path>
<path d="M1.420 0.679 Q1.219 0.709 1.234 0.814" stroke="hsl(0.0,100%,35%)" stroke-width="0.00097"></path>
<path d="M1.420 0.679 Q0.639 0.561 0.237 0.916" stroke="hsl(0.0,100%,35%)" stroke-width="0.00194"></path>
<path d="M1.420 0.679 Q1.373 0.593 1.196 0.598" stroke="hsl(0.0,100%,35%)" stroke-width="0.00485"></path>
<path d="M1.420 0.679 Q1.336 0.666 1.292 0.705" stroke="hsl(0.0,100%,35%)" stroke-width="0.00097"></path>
<path d="M1.420 0.679 Q1.297 0.750 1.409 0.826" stroke="hsl(0.0,100%,35%)" stroke-width="0.00291"></path>
<path d="M0.922 0.367 Q0.578 0.569 0.897 0.782" stroke="hsl(0.0,100%,35%)" stroke-width="0.01067"></path>
<path d="M0.922 0.367 Q0.874 0.537 1.196 0.598" stroke="hsl(0.0,100%,35%)" stroke-width="0.00388"></path>
<path d="M0.922 0.367 Q0.935 0.244 0.697 0.211" stroke="hsl(0.0,100%,35%)" stroke-width="0.00194"></path>
<path d="M0.922 0.367 Q0.720 0.653 1.234 0.814" stroke="hsl(0.0,100%,35%)" stroke-width="0.00194"></path>
<path d="M0.922 0.367 Q0.849 0.221 0.549 0.224" stroke="hsl(0.0,100%,35%)" stroke-width="0.00097"></path>
<path d="M0.922 0.367 Q1.066 0.392 1.147 0.328" stroke="hsl(0.0,100%,35%)" stroke-width="0.00097"></path>
<path d="M0.922 0.367 Q0.140 0.505 0.237 0.916" stroke="hsl(0.0,100%,35%)" stroke-width="0.00194"></path>
<path d="M0.922 0.367 Q0.700 0.494 0.899 0.630" stroke="hsl(0.0,100%,35%)" stroke-width="0.00097"></path>
<path d="M0.922 0.367 Q0.908 0.453 1.074 0.479" stroke="hsl(0.0,100%,35%)" stroke-width="0.00097"></path>
<path d="M0.922 0.367 Q0.177 0.430 0.137 0.808" stroke="hsl(0.0,100%,35%)" stroke-width="0.00194"></path>
<path d="M0.137 0.808 Q0.882 0.744 0.922 0.367" stroke="hsl(0.0,100%,35%)" stroke-width="0.00873"></path>
<path d="M0.137 0.808 Q0.680 1.030 1.234 0.814" stroke="hsl(0.0,100%,35%)" stroke-width="0.00485"></path>
<path d="M0.137 0.808 Q0.538 0.947 0.897 0.782" stroke="hsl(0.0,100%,35%)" stroke-width="0.01552"></path>
<path d="M0.137 0.808 Q0.834 0.914 1.196 0.598" stroke="hsl(0.0,100%,35%)" stroke-width="0.01358"></path>
<path d="M0.137 0.808 Q0.100 0.882 0.237 0.916" stroke="hsl(0.0,100%,35%)" stroke-width="0.01455"></path>
<path d="M0.137 0.808 Q0.660 0.871 0.899 0.630" stroke="hsl(0.0,100%,35%)" stroke-width="0.00097"></path>
<path d="M0.137 0.808 Q0.372 0.796 0.401 0.679" stroke="hsl(0.0,100%,35%)" stroke-width="0.00194"></path>
<path d="M0.897 0.782 Q0.497 0.643 0.137 0.808" stroke="hsl(0.0,100%,35%)" stroke-width="0.00679"></path>
<path d="M0.897 0.782 Q1.193 0.749 1.196 0.598" stroke="hsl(0.0,100%,35%)" stroke-width="0.00388"></path>
<path d="M0.897 0.782 Q1.228 0.665 1.074 0.479" stroke="hsl(0.0,100%,35%)" stroke-width="0.00388"></path>
<path d="M0.897 0.782 Q0.459 0.717 0.237 0.916" stroke="hsl(0.0,100%,35%)" stroke-width="0.00194"></path>
<path d="M0.897 0.782 Q1.241 0.579 0.922 0.367" stroke="hsl(0.0,100%,35%)" stroke-width="0.00970"></path>
<path d="M0.897 0.782 Q1.020 0.706 0.899 0.630" stroke="hsl(0.0,100%,35%)" stroke-width="0.01746"></path>
<path d="M0.897 0.782 Q1.039 0.865 1.234 0.814" stroke="hsl(0.0,100%,35%)" stroke-width="0.00097"></path>
<path d="M0.897 0.782 Q1.103 0.534 0.664 0.379" stroke="hsl(0.0,100%,35%)" stroke-width="0.00097"></path>
<path d="M0.897 0.782 Q0.942 0.917 1.216 0.925" stroke="hsl(0.0,100%,35%)" stroke-width="0.00291"></path>
<path d="M0.897 0.782 Q1.421 0.735 1.444 0.469" stroke="hsl(0.0,100%,35%)" stroke-width="0.00097"></path>
<path d="M0.897 0.782 Q1.627 0.844 1.909 0.502" stroke="hsl(0.0,100%,35%)" stroke-width="0.00194"></path>
<path d="M0.897 0.782 Q0.831 0.794 0.842 0.829" stroke="hsl(0.0,100%,35%)" stroke-width="0.00194"></path>
<path d="M0.897 0.782 Q0.839 0.878 1.015 0.928" stroke="hsl(0.0,100%,35%)" stroke-width="0.00097"></path>
<path d="M0.897 0.782 Q1.403 0.525 1.014 0.222" stroke="hsl(0.0,100%,35%)" stroke-width="0.00097"></path>
<path d="M1.384 0.630 Q1.020 0.609 0.897 0.782" stroke="hsl(0.0,100%,35%)" stroke-width="0.00097"></path>
<path d="M1.384 0.630 Q1.240 0.733 1.409 0.826" stroke="hsl(0.0,100%,35%)" stroke-width="0.00097"></path>
<path d="M1.384 0.630 Q1.316 0.577 1.196 0.598" stroke="hsl(0.0,100%,35%)" stroke-width="0.00194"></path>
<path d="M1.384 0.630 Q0.619 0.470 0.137 0.808" stroke="hsl(0.0,100%,35%)" stroke-width="0.00194"></path>
<path d="M1.234 0.814 Q0.654 0.666 0.237 0.916" stroke="hsl(0.0,100%,35%)" stroke-width="0.00873"></path>
<path d="M1.234 0.814 Q0.691 0.592 0.137 0.808" stroke="hsl(0.0,100%,35%)" stroke-width="0.00873"></path>
<path d="M1.234 0.814 Q1.092 0.731 0.897 0.782" stroke="hsl(0.0,100%,35%)" stroke-width="0.05239"></path>
<path d="M1.234 0.814 Q1.528 0.755 1.476 0.598" stroke="hsl(0.0,100%,35%)" stroke-width="0.00194"></path>
<path d="M1.234 0.814 Q1.388 0.699 1.196 0.598" stroke="hsl(0.0,100%,35%)" stroke-width="0.00388"></path>
<path d="M1.234 0.814 Q1.422 0.614 1.074 0.479" stroke="hsl(0.0,100%,35%)" stroke-width="0.00582"></path>
<path d="M1.234 0.814 Q1.436 0.528 0.922 0.367" stroke="hsl(0.0,100%,35%)" stroke-width="0.00097"></path>
<path d="M1.234 0.814 Q1.368 0.835 1.437 0.774" stroke="hsl(0.0,100%,35%)" stroke-width="0.00291"></path>
<path d="M1.234 0.814 Q1.355 0.874 1.497 0.828" stroke="hsl(0.0,100%,35%)" stroke-width="0.00097"></path>
<path d="M0.237 0.916 Q1.018 0.779 0.922 0.367" stroke="hsl(0.0,100%,35%)" stroke-width="0.00582"></path>
<path d="M0.237 0.916 Q0.274 0.842 0.137 0.808" stroke="hsl(0.0,100%,35%)" stroke-width="0.02814"></path>
<path d="M0.237 0.916 Q0.675 0.981 0.897 0.782" stroke="hsl(0.0,100%,35%)" stroke-width="0.03493"></path>
<path d="M0.237 0.916 Q0.817 1.065 1.234 0.814" stroke="hsl(0.0,100%,35%)" stroke-width="0.01649"></path>
<path d="M0.237 0.916 Q0.971 0.949 1.196 0.598" stroke="hsl(0.0,100%,35%)" stroke-width="0.01067"></path>
<path d="M0.237 0.916 Q0.368 0.889 0.343 0.819" stroke="hsl(0.0,100%,35%)" stroke-width="0.00194"></path>
<path d="M0.237 0.916 Q1.005 0.865 1.074 0.479" stroke="hsl(0.0,100%,35%)" stroke-width="0.00097"></path>
<path d="M0.237 0.916 Q0.797 0.905 0.899 0.630" stroke="hsl(0.0,100%,35%)" stroke-width="0.00776"></path>
<path d="M0.237 0.916 Q0.895 1.106 1.409 0.826" stroke="hsl(0.0,100%,35%)" stroke-width="0.00097"></path>
<path d="M1.196 0.598 Q0.900 0.630 0.897 0.782" stroke="hsl(0.0,100%,35%)" stroke-width="0.03493"></path>
<path d="M1.196 0.598 Q1.243 0.428 0.922 0.367" stroke="hsl(0.0,100%,35%)" stroke-width="0.00873"></path>
<path d="M1.196 0.598 Q1.022 0.554 0.899 0.630" stroke="hsl(0.0,100%,35%)" stroke-width="0.02717"></path>
<path d="M1.196 0.598 Q0.499 0.491 0.137 0.808" stroke="hsl(0.0,100%,35%)" stroke-width="0.00097"></path>
<path d="M1.196 0.598 Q1.042 0.714 1.234 0.814" stroke="hsl(0.0,100%,35%)" stroke-width="0.00097"></path>
<path d="M1.196 0.598 Q1.256 0.305 0.697 0.211" stroke="hsl(0.0,100%,35%)" stroke-width="0.00097"></path>
<path d="M1.196 0.598 Q1.230 0.514 1.074 0.479" stroke="hsl(0.0,100%,35%)" stroke-width="0.00097"></path>
<path d="M1.196 0.598 Q0.944 0.766 1.216 0.925" stroke="hsl(0.0,100%,35%)" stroke-width="0.00291"></path>
<path d="M1.196 0.598 Q1.423 0.583 1.444 0.469" stroke="hsl(0.0,100%,35%)" stroke-width="0.00097"></path>
<path d="M1.196 0.598 Q1.105 0.382 0.664 0.379" stroke="hsl(0.0,100%,35%)" stroke-width="0.00097"></path>
<path d="M1.196 0.598 Q1.222 0.541 1.117 0.516" stroke="hsl(0.0,100%,35%)" stroke-width="0.00388"></path>
<path d="M1.196 0.598 Q1.425 0.565 1.412 0.446" stroke="hsl(0.0,100%,35%)" stroke-width="0.00194"></path>
<path d="M1.292 0.705 Q1.329 0.632 1.196 0.598" stroke="hsl(0.0,100%,35%)" stroke-width="0.00194"></path>
<path d="M1.292 0.705 Q1.377 0.717 1.420 0.679" stroke="hsl(0.0,100%,35%)" stroke-width="0.00097"></path>
<path d="M1.292 0.705 Q1.398 0.686 1.384 0.630" stroke="hsl(0.0,100%,35%)" stroke-width="0.00097"></path>
<path d="M0.764 0.867 Q0.498 0.712 0.137 0.808" stroke="hsl(0.0,100%,35%)" stroke-width="0.00097"></path>
<path d="M0.764 0.867 Q1.263 0.873 1.384 0.630" stroke="hsl(0.0,100%,35%)" stroke-width="0.00194"></path>
<path d="M0.764 0.867 Q0.899 0.851 0.897 0.782" stroke="hsl(0.0,100%,35%)" stroke-width="0.00970"></path>
<path d="M0.764 0.867 Q1.195 0.819 1.196 0.598" stroke="hsl(0.0,100%,35%)" stroke-width="0.00582"></path>
<path d="M1.197 0.658 Q0.949 0.660 0.897 0.782" stroke="hsl(0.0,100%,35%)" stroke-width="0.00194"></path>
<path d="M1.197 0.658 Q1.091 0.744 1.234 0.814" stroke="hsl(0.0,100%,35%)" stroke-width="0.00097"></path>
<path d="M1.197 0.658 Q1.472 0.613 1.444 0.469" stroke="hsl(0.0,100%,35%)" stroke-width="0.00097"></path>
<path d="M1.197 0.658 Q1.245 0.628 1.196 0.598" stroke="hsl(0.0,100%,35%)" stroke-width="0.00097"></path>
<path d="M1.444 0.469 Q1.216 0.484 1.196 0.598" stroke="hsl(0.0,100%,35%)" stroke-width="0.00194"></path>
<path d="M1.444 0.469 Q0.520 0.377 0.137 0.808" stroke="hsl(0.0,100%,35%)" stroke-width="0.00097"></path>
<path d="M1.444 0.469 Q1.043 0.440 0.899 0.630" stroke="hsl(0.0,100%,35%)" stroke-width="0.00097"></path>
<path d="M0.850 0.230 Q0.776 0.313 0.922 0.367" stroke="hsl(0.0,100%,35%)" stroke-width="0.00097"></path>
<path d="M0.850 0.230 Q0.032 0.376 0.137 0.808" stroke="hsl(0.0,100%,35%)" stroke-width="0.00097"></path>
<path d="M0.850 0.230 Q0.432 0.515 0.897 0.782" stroke="hsl(0.0,100%,35%)" stroke-width="0.00097"></path>
<path d="M0.443 0.644 Q0.702 0.887 1.234 0.814" stroke="hsl(0.0,100%,35%)" stroke-width="0.00097"></path>
<path d="M0.443 0.644 Q0.159 0.665 0.137 0.808" stroke="hsl(0.0,100%,35%)" stroke-width="0.00194"></path>
<path d="M0.443 0.644 Q0.904 0.601 0.922 0.367" stroke="hsl(0.0,100%,35%)" stroke-width="0.00097"></path>
<path d="M1.074 0.479 Q0.342 0.456 0.137 0.808" stroke="hsl(0.0,100%,35%)" stroke-width="0.00194"></path>
<path d="M1.074 0.479 Q0.743 0.595 0.897 0.782" stroke="hsl(0.0,100%,35%)" stroke-width="0.02911"></path>
<path d="M1.074 0.479 Q0.885 0.679 1.234 0.814" stroke="hsl(0.0,100%,35%)" stroke-width="0.00097"></path>
<path d="M1.074 0.479 Q1.087 0.392 0.922 0.367" stroke="hsl(0.0,100%,35%)" stroke-width="0.00388"></path>
<path d="M1.074 0.479 Q0.865 0.519 0.899 0.630" stroke="hsl(0.0,100%,35%)" stroke-width="0.01455"></path>
<path d="M1.074 0.479 Q1.039 0.563 1.196 0.598" stroke="hsl(0.0,100%,35%)" stroke-width="0.00194"></path>
<path d="M0.899 0.630 Q0.777 0.705 0.897 0.782" stroke="hsl(0.0,100%,35%)" stroke-width="0.07471"></path>
<path d="M0.899 0.630 Q1.072 0.673 1.196 0.598" stroke="hsl(0.0,100%,35%)" stroke-width="0.01455"></path>
<path d="M0.899 0.630 Q1.120 0.503 0.922 0.367" stroke="hsl(0.0,100%,35%)" stroke-width="0.00970"></path>
<path d="M0.899 0.630 Q1.107 0.589 1.074 0.479" stroke="hsl(0.0,100%,35%)" stroke-width="0.00873"></path>
<path d="M0.664 0.379 Q0.459 0.627 0.897 0.782" stroke="hsl(0.0,100%,35%)" stroke-width="0.00970"></path>
<path d="M0.664 0.379 Q0.789 0.511 1.074 0.479" stroke="hsl(0.0,100%,35%)" stroke-width="0.00097"></path>
<path d="M0.664 0.379 Q0.802 0.425 0.922 0.367" stroke="hsl(0.0,100%,35%)" stroke-width="0.01746"></path>
<path d="M0.664 0.379 Q0.564 0.345 0.475 0.386" stroke="hsl(0.0,100%,35%)" stroke-width="0.00097"></path>
<path d="M0.664 0.379 Q0.486 0.325 0.342 0.400" stroke="hsl(0.0,100%,35%)" stroke-width="0.00097"></path>
<path d="M1.216 0.925 Q1.172 0.790 0.897 0.782" stroke="hsl(0.0,100%,35%)" stroke-width="0.04366"></path>
<path d="M1.216 0.925 Q1.468 0.757 1.196 0.598" stroke="hsl(0.0,100%,35%)" stroke-width="0.00194"></path>
<path d="M1.216 0.925 Q1.294 0.714 0.899 0.630" stroke="hsl(0.0,100%,35%)" stroke-width="0.00485"></path>
<path d="M1.216 0.925 Q1.377 0.542 0.664 0.379" stroke="hsl(0.0,100%,35%)" stroke-width="0.00097"></path>
<path d="M1.216 0.925 Q1.516 0.587 0.922 0.367" stroke="hsl(0.0,100%,35%)" stroke-width="0.00291"></path>
<path d="M1.216 0.925 Q1.696 0.742 1.444 0.469" stroke="hsl(0.0,100%,35%)" stroke-width="0.00097"></path>
<path d="M1.014 0.222 Q0.508 0.479 0.897 0.782" stroke="hsl(0.0,100%,35%)" stroke-width="0.00388"></path>
<path d="M1.014 0.222 Q0.852 0.276 0.922 0.367" stroke="hsl(0.0,100%,35%)" stroke-width="0.00388"></path>
<path d="M1.014 0.222 Q0.839 0.362 1.074 0.479" stroke="hsl(0.0,100%,35%)" stroke-width="0.00194"></path>
<path d="M1.014 0.222 Q1.238 0.541 1.909 0.502" stroke="hsl(0.0,100%,35%)" stroke-width="0.00097"></path>
<path d="M1.014 0.222 Q1.215 0.186 1.188 0.080" stroke="hsl(0.0,100%,35%)" stroke-width="0.00097"></path>
<path d="M1.014 0.222 Q0.998 0.179 0.910 0.177" stroke="hsl(0.0,100%,35%)" stroke-width="0.00097"></path>
<path d="M1.014 0.222 Q1.260 0.236 1.340 0.119" stroke="hsl(0.0,100%,35%)" stroke-width="0.00097"></path>
<path d="M1.014 0.222 Q0.631 0.403 0.899 0.630" stroke="hsl(0.0,100%,35%)" stroke-width="0.00097"></path>
<path d="M1.014 0.222 Q0.650 0.562 1.234 0.814" stroke="hsl(0.0,100%,35%)" stroke-width="0.00097"></path>
<path d="M1.014 0.222 Q0.108 0.339 0.137 0.808" stroke="hsl(0.0,100%,35%)" stroke-width="0.00097"></path>
<path d="M0.732 0.457 Q0.555 0.652 0.897 0.782" stroke="hsl(0.0,100%,35%)" stroke-width="0.00097"></path>
<path d="M0.732 0.457 Q0.898 0.450 0.922 0.367" stroke="hsl(0.0,100%,35%)" stroke-width="0.00097"></path>
<path d="M0.343 0.819 Q0.650 0.911 0.897 0.782" stroke="hsl(0.0,100%,35%)" stroke-width="0.00679"></path>
<path d="M0.343 0.819 Q0.249 0.772 0.137 0.808" stroke="hsl(0.0,100%,35%)" stroke-width="0.00485"></path>
<path d="M0.343 0.819 Q0.212 0.846 0.237 0.916" stroke="hsl(0.0,100%,35%)" stroke-width="0.00388"></path>
<path d="M0.343 0.819 Q1.014 0.933 1.384 0.630" stroke="hsl(0.0,100%,35%)" stroke-width="0.00388"></path>
<path d="M1.890 0.421 Q1.449 0.200 0.922 0.367" stroke="hsl(0.0,100%,35%)" stroke-width="0.00097"></path>
<path d="M1.890 0.421 Q1.834 0.465 1.909 0.502" stroke="hsl(0.0,100%,35%)" stroke-width="0.00194"></path>
<path d="M1.890 0.421 Q1.664 0.462 1.695 0.581" stroke="hsl(0.0,100%,35%)" stroke-width="0.00194"></path>
<path d="M1.890 0.421 Q1.895 0.358 1.774 0.342" stroke="hsl(0.0,100%,35%)" stroke-width="0.00097"></path>
<path d="M1.695 0.581 Q1.865 0.584 1.909 0.502" stroke="hsl(0.0,100%,35%)" stroke-width="0.00194"></path>
<path d="M1.695 0.581 Q1.744 0.623 1.837 0.608" stroke="hsl(0.0,100%,35%)" stroke-width="0.00194"></path>
<path d="M1.695 0.581 Q1.479 0.319 0.922 0.367" stroke="hsl(0.0,100%,35%)" stroke-width="0.00097"></path>
<path d="M1.695 0.581 Q2.153 0.384 1.869 0.117" stroke="hsl(0.0,100%,35%)" stroke-width="0.00097"></path>
<path d="M1.095 0.666 Q0.904 0.684 0.897 0.782" stroke="hsl(0.0,100%,35%)" stroke-width="0.00388"></path>
<path d="M1.095 0.666 Q0.949 0.820 1.216 0.925" stroke="hsl(0.0,100%,35%)" stroke-width="0.00194"></path>
<path d="M1.095 0.666 Q1.027 0.609 0.899 0.630" stroke="hsl(0.0,100%,35%)" stroke-width="0.00097"></path>
<path d="M1.159 0.681 Q0.948 0.679 0.897 0.782" stroke="hsl(0.0,100%,35%)" stroke-width="0.00388"></path>
<path d="M1.159 0.681 Q1.292 0.477 0.922 0.367" stroke="hsl(0.0,100%,35%)" stroke-width="0.00097"></path>
<path d="M1.159 0.681 Q1.070 0.604 0.899 0.630" stroke="hsl(0.0,100%,35%)" stroke-width="0.00097"></path>
<path d="M0.089 0.207 Q0.214 0.211 0.249 0.151" stroke="hsl(0.0,100%,35%)" stroke-width="0.00097"></path>
<path d="M0.089 0.207 Q-0.273 0.564 0.343 0.819" stroke="hsl(0.0,100%,35%)" stroke-width="0.00097"></path>
<path d="M0.089 0.207 Q0.111 0.279 0.255 0.283" stroke="hsl(0.0,100%,35%)" stroke-width="0.00097"></path>
<path d="M0.737 0.635 Q0.700 0.740 0.897 0.782" stroke="hsl(0.0,100%,35%)" stroke-width="0.00388"></path>
<path d="M0.737 0.635 Q0.822 0.665 0.899 0.630" stroke="hsl(0.0,100%,35%)" stroke-width="0.00388"></path>
<path d="M0.737 0.635 Q1.044 0.538 0.922 0.367" stroke="hsl(0.0,100%,35%)" stroke-width="0.00291"></path>
<path d="M1.789 0.224 Q1.241 0.122 0.922 0.367" stroke="hsl(0.0,100%,35%)" stroke-width="0.00097"></path>
<path d="M1.789 0.224 Q1.761 0.333 1.970 0.371" stroke="hsl(0.0,100%,35%)" stroke-width="0.00097"></path>
<path d="M1.789 0.224 Q1.712 0.176 1.602 0.203" stroke="hsl(0.0,100%,35%)" stroke-width="0.00097"></path>
<path d="M1.789 0.224 Q1.859 0.239 1.905 0.208" stroke="hsl(0.0,100%,35%)" stroke-width="0.00097"></path>
<path d="M0.710 0.970 Q0.668 0.908 0.537 0.915" stroke="hsl(180.0,100%,35%)" stroke-width="0.00291"></path>
<path d="M0.710 0.970 Q0.620 0.900 0.462 0.928" stroke="hsl(180.0,100%,35%)" stroke-width="0.00194"></path>
<path d="M0.710 0.970 Q0.814 0.945 0.786 0.889" stroke="hsl(180.0,100%,35%)" stroke-width="0.00194"></path>
<path d="M0.969 0.850 Q0.988 0.801 0.897 0.782" stroke="hsl(0.0,100%,35%)" stroke-width="0.00485"></path>
<path d="M0.969 0.850 Q0.550 0.737 0.237 0.916" stroke="hsl(0.0,100%,35%)" stroke-width="0.00097"></path>
<path d="M0.969 0.850 Q1.130 0.885 1.234 0.814" stroke="hsl(0.0,100%,35%)" stroke-width="0.00097"></path>
<path d="M0.969 0.850 Q0.587 0.662 0.137 0.808" stroke="hsl(0.0,100%,35%)" stroke-width="0.00097"></path>
<path d="M0.122 0.461 Q1.004 0.534 1.340 0.119" stroke="hsl(0.0,100%,35%)" stroke-width="0.00097"></path>
<path d="M0.122 0.461 Q0.219 0.473 0.264 0.428" stroke="hsl(0.0,100%,35%)" stroke-width="0.00097"></path>
<path d="M0.122 0.461 Q0.376 0.701 0.899 0.630" stroke="hsl(0.0,100%,35%)" stroke-width="0.00097"></path>
<path d="M1.604 0.377 Q0.927 0.438 0.897 0.782" stroke="hsl(0.0,100%,35%)" stroke-width="0.00097"></path>
<path d="M1.604 0.377 Q1.270 0.235 0.922 0.367" stroke="hsl(0.0,100%,35%)" stroke-width="0.00097"></path>
<path d="M1.604 0.377 Q1.582 0.322 1.471 0.321" stroke="hsl(0.0,100%,35%)" stroke-width="0.00097"></path>
<path d="M1.604 0.377 Q1.880 0.258 1.708 0.097" stroke="hsl(0.0,100%,35%)" stroke-width="0.00097"></path>
<path d="M1.604 0.377 Q1.672 0.320 1.577 0.274" stroke="hsl(0.0,100%,35%)" stroke-width="0.00097"></path>
<path d="M1.604 0.377 Q1.586 0.417 1.660 0.434" stroke="hsl(0.0,100%,35%)" stroke-width="0.00097"></path>
<path d="M1.604 0.377 Q1.582 0.270 1.369 0.257" stroke="hsl(0.0,100%,35%)" stroke-width="0.00097"></path>
<path d="M0.931 0.034 Q0.660 0.199 0.922 0.367" stroke="hsl(0.0,100%,35%)" stroke-width="0.00097"></path>
<path d="M0.931 0.034 Q0.316 0.401 0.897 0.782" stroke="hsl(0.0,100%,35%)" stroke-width="0.00097"></path>
<path d="M0.931 0.034 Q0.612 0.369 1.196 0.598" stroke="hsl(0.0,100%,35%)" stroke-width="0.00097"></path>
<path d="M0.477 0.545 Q0.842 0.545 0.922 0.367" stroke="hsl(0.0,100%,35%)" stroke-width="0.00097"></path>
<path d="M0.477 0.545 Q0.361 0.492 0.232 0.537" stroke="hsl(0.0,100%,35%)" stroke-width="0.00097"></path>
<path d="M0.477 0.545 Q0.829 0.631 1.074 0.479" stroke="hsl(0.0,100%,35%)" stroke-width="0.00097"></path>
<path d="M1.473 0.849 Q1.381 0.784 1.234 0.814" stroke="hsl(0.0,100%,35%)" stroke-width="0.00194"></path>
<path d="M1.473 0.849 Q1.583 0.498 0.922 0.367" stroke="hsl(0.0,100%,35%)" stroke-width="0.00097"></path>
<path d="M1.473 0.849 Q1.510 0.352 0.549 0.224" stroke="hsl(0.0,100%,35%)" stroke-width="0.00097"></path>
<path d="M1.355 0.697 Q1.058 0.648 0.897 0.782" stroke="hsl(0.0,100%,35%)" stroke-width="0.00194"></path>
<path d="M1.355 0.697 Q1.389 0.532 1.074 0.479" stroke="hsl(0.0,100%,35%)" stroke-width="0.00097"></path>
<path d="M1.355 0.697 Q1.354 0.616 1.196 0.598" stroke="hsl(0.0,100%,35%)" stroke-width="0.00194"></path>
<path d="M0.564 0.829 Q1.099 0.756 1.074 0.479" stroke="hsl(0.0,100%,35%)" stroke-width="0.00097"></path>
<path d="M0.564 0.829 Q0.891 0.796 0.899 0.630" stroke="hsl(0.0,100%,35%)" stroke-width="0.00097"></path>
<path d="M0.564 0.829 Q0.910 0.956 1.234 0.814" stroke="hsl(0.0,100%,35%)" stroke-width="0.00097"></path>
<path d="M0.564 0.829 Q0.368 0.733 0.137 0.808" stroke="hsl(0.0,100%,35%)" stroke-width="0.00291"></path>
<path d="M0.564 0.829 Q1.112 0.670 0.922 0.367" stroke="hsl(0.0,100%,35%)" stroke-width="0.00097"></path>
<path d="M1.146 0.691 Q0.949 0.687 0.897 0.782" stroke="hsl(0.0,100%,35%)" stroke-width="0.00582"></path>
<path d="M1.146 0.691 Q1.293 0.484 0.922 0.367" stroke="hsl(0.0,100%,35%)" stroke-width="0.00097"></path>
<path d="M1.146 0.691 Q1.245 0.654 1.196 0.598" stroke="hsl(0.0,100%,35%)" stroke-width="0.00097"></path>
<path d="M1.437 0.774 Q1.505 0.467 0.922 0.367" stroke="hsl(0.0,100%,35%)" stroke-width="0.00097"></path>
<path d="M1.437 0.774 Q1.161 0.670 0.897 0.782" stroke="hsl(0.0,100%,35%)" stroke-width="0.00097"></path>
<path d="M1.437 0.774 Q1.303 0.754 1.234 0.814" stroke="hsl(0.0,100%,35%)" stroke-width="0.00097"></path>
<path d="M1.437 0.774 Q1.284 0.594 0.899 0.630" stroke="hsl(0.0,100%,35%)" stroke-width="0.00097"></path>
<path d="M1.437 0.774 Q1.492 0.554 1.074 0.479" stroke="hsl(0.0,100%,35%)" stroke-width="0.00097"></path>
<path d="M1.254 0.265 Q0.662 0.452 0.897 0.782" stroke="hsl(0.0,100%,35%)" stroke-width="0.00097"></path>
<path d="M1.254 0.265 Q1.168 0.196 1.014 0.222" stroke="hsl(0.0,100%,35%)" stroke-width="0.00097"></path>
<path d="M1.254 0.265 Q1.006 0.249 0.922 0.367" stroke="hsl(0.0,100%,35%)" stroke-width="0.00097"></path>
<path d="M1.500 0.518 Q0.988 0.529 0.897 0.782" stroke="hsl(0.0,100%,35%)" stroke-width="0.00388"></path>
<path d="M1.500 0.518 Q0.550 0.464 0.237 0.916" stroke="hsl(0.0,100%,35%)" stroke-width="0.00097"></path>
<path d="M1.500 0.518 Q1.284 0.497 1.196 0.598" stroke="hsl(0.0,100%,35%)" stroke-width="0.00194"></path>
<path d="M1.500 0.518 Q1.111 0.454 0.899 0.630" stroke="hsl(0.0,100%,35%)" stroke-width="0.00097"></path>
<path d="M1.737 0.071 Q1.702 0.078 1.708 0.097" stroke="hsl(0.0,100%,35%)" stroke-width="0.00097"></path>
<path d="M1.737 0.071 Q1.766 0.121 1.869 0.117" stroke="hsl(0.0,100%,35%)" stroke-width="0.00097"></path>
<path d="M1.737 0.071 Q1.596 0.033 1.492 0.094" stroke="hsl(0.0,100%,35%)" stroke-width="0.00097"></path>
<path d="M1.468 0.558 Q1.300 0.523 1.196 0.598" stroke="hsl(0.0,100%,35%)" stroke-width="0.00097"></path>
<path d="M1.468 0.558 Q1.516 0.544 1.500 0.518" stroke="hsl(0.0,100%,35%)" stroke-width="0.00097"></path>
<path d="M1.468 0.558 Q1.004 0.555 0.897 0.782" stroke="hsl(0.0,100%,35%)" stroke-width="0.00097"></path>
<path d="M1.468 0.558 Q1.048 0.691 1.216 0.925" stroke="hsl(0.0,100%,35%)" stroke-width="0.00097"></path>
<path d="M0.746 0.041 Q0.230 0.442 0.897 0.782" stroke="hsl(0.0,100%,35%)" stroke-width="0.00194"></path>
<path d="M0.746 0.041 Q0.573 0.239 0.922 0.367" stroke="hsl(0.0,100%,35%)" stroke-width="0.00194"></path>
<path d="M0.746 0.041 Q0.844 0.075 0.931 0.034" stroke="hsl(0.0,100%,35%)" stroke-width="0.00194"></path>
<path d="M0.746 0.041 Q1.094 0.451 1.970 0.371" stroke="hsl(0.0,100%,35%)" stroke-width="0.00097"></path>
<path d="M0.746 0.041 Q1.045 0.293 1.602 0.203" stroke="hsl(0.0,100%,35%)" stroke-width="0.00097"></path>
<path d="M0.746 0.041 Q0.164 0.455 0.842 0.829" stroke="hsl(0.0,100%,35%)" stroke-width="0.00097"></path>
<path d="M0.746 0.041 Q0.560 0.326 1.074 0.479" stroke="hsl(0.0,100%,35%)" stroke-width="0.00097"></path>
<path d="M1.228 0.324 Q0.697 0.487 0.897 0.782" stroke="hsl(0.0,100%,35%)" stroke-width="0.00097"></path>
<path d="M1.228 0.324 Q1.040 0.284 0.922 0.367" stroke="hsl(0.0,100%,35%)" stroke-width="0.00097"></path>
<path d="M1.228 0.324 Q1.207 0.381 1.313 0.404" stroke="hsl(0.0,100%,35%)" stroke-width="0.00097"></path>
</g>
<text x="1.420" y="0.665" font-size="0.027303" fill="hsl(0.0,100%,20%)">aaronwood</text>
<text x="0.922" y="0.341" font-size="0.051184" fill="hsl(0.0,100%,20%)">dpranke</text>
<text x="0.137" y="0.781" font-size="0.053424" fill="hsl(0.0,100%,20%)">tikuta</text>
<text x="0.897" y="0.733" font-size="0.097027" fill="hsl(0.0,100%,20%)">brettw</text>
<text x="1.554" y="0.649" font-size="0.004615" fill="hsl(0.0,100%,20%)">computerdruid</text>
<text x="1.384" y="0.620" font-size="0.021149" fill="hsl(0.0,100%,20%)">tmandry</text>
<text x="1.234" y="0.789" font-size="0.051599" fill="hsl(0.0,100%,20%)">sdefresne</text>
<text x="0.237" y="0.888" font-size="0.055955" fill="hsl(0.0,100%,20%)">digit</text>
<text x="1.196" y="0.568" font-size="0.059996" fill="hsl(0.0,100%,20%)">phosek</text>
<text x="1.292" y="0.699" font-size="0.010320" fill="hsl(0.0,100%,20%)">paulfaria</text>
<text x="1.409" y="0.821" font-size="0.010320" fill="hsl(0.0,100%,20%)">bwb</text>
<text x="0.764" y="0.857" font-size="0.020117" fill="hsl(0.0,100%,20%)">adetaylor</text>
<text x="1.197" y="0.653" font-size="0.010320" fill="hsl(0.0,100%,20%)">andrewsavage</text>
<text x="1.444" y="0.462" font-size="0.013054" fill="hsl(0.0,100%,20%)">mcgrathr</text>
<text x="0.850" y="0.226" font-size="0.007994" fill="hsl(0.0,100%,20%)">baghdadi</text>
<text x="0.443" y="0.639" font-size="0.009230" fill="hsl(0.0,100%,20%)">bpastene</text>
<text x="1.074" y="0.457" font-size="0.042298" fill="hsl(0.0,100%,20%)">thakis</text>
<text x="0.899" y="0.597" font-size="0.065104" fill="hsl(0.0,100%,20%)">scottmg</text>
<text x="0.664" y="0.366" font-size="0.026910" fill="hsl(0.0,100%,20%)">thomasanderson</text>
<text x="1.216" y="0.906" font-size="0.037493" fill="hsl(0.0,100%,20%)">juliehockett</text>
<text x="1.909" y="0.496" font-size="0.012210" fill="hsl(0.0,100%,20%)">dcheng</text>
<text x="0.842" y="0.825" font-size="0.007994" fill="hsl(0.0,100%,20%)">wfh</text>
<text x="1.015" y="0.926" font-size="0.004615" fill="hsl(0.0,100%,20%)">rockot</text>
<text x="1.014" y="0.212" font-size="0.020117" fill="hsl(0.0,100%,20%)">brucedawson</text>
<text x="1.188" y="0.077" font-size="0.004615" fill="hsl(0.0,100%,20%)">jam</text>
<text x="0.910" y="0.175" font-size="0.004615" fill="hsl(0.0,100%,20%)">mef</text>
<text x="1.340" y="0.116" font-size="0.006527" fill="hsl(0.0,100%,20%)">sky</text>
<text x="0.732" y="0.453" font-size="0.006527" fill="hsl(0.0,100%,20%)">bungeman</text>
<text x="0.343" y="0.808" font-size="0.022133" fill="hsl(0.0,100%,20%)">danakj</text>
<text x="0.697" y="0.207" font-size="0.007994" fill="hsl(0.0,100%,20%)">iannucci</text>
<text x="0.549" y="0.221" font-size="0.006527" fill="hsl(0.0,100%,20%)">liaoyuke</text>
<text x="1.147" y="0.325" font-size="0.004615" fill="hsl(0.0,100%,20%)">smut</text>
<text x="1.890" y="0.415" font-size="0.011305" fill="hsl(0.0,100%,20%)">erikchen</text>
<text x="1.695" y="0.574" font-size="0.013054" fill="hsl(0.0,100%,20%)">ssid</text>
<text x="1.774" y="0.339" font-size="0.004615" fill="hsl(0.0,100%,20%)">haraken</text>
<text x="1.095" y="0.660" font-size="0.012210" fill="hsl(0.0,100%,20%)">haowei</text>
<text x="1.159" y="0.676" font-size="0.011305" fill="hsl(0.0,100%,20%)">jamesr</text>
<text x="0.089" y="0.203" font-size="0.007994" fill="hsl(0.0,100%,20%)">jbroman</text>
<text x="0.249" y="0.149" font-size="0.004615" fill="hsl(0.0,100%,20%)">dalecurtis</text>
<text x="0.255" y="0.281" font-size="0.004615" fill="hsl(0.0,100%,20%)">tzik</text>
<text x="0.737" y="0.627" font-size="0.015307" fill="hsl(0.0,100%,20%)">joearmstrong334</text>
<text x="1.789" y="0.219" font-size="0.009230" fill="hsl(0.0,100%,20%)">jyan</text>
<text x="1.970" y="0.368" font-size="0.006527" fill="hsl(0.0,100%,20%)">mark</text>
<text x="1.602" y="0.199" font-size="0.006527" fill="hsl(0.0,100%,20%)">palmer</text>
<text x="1.905" y="0.206" font-size="0.004615" fill="hsl(0.0,100%,20%)">scroggo</text>
<text x="0.710" y="0.964" font-size="0.012210" fill="hsl(180.0,100%,20%)">lizeb</text>
<text x="0.537" y="0.911" font-size="0.007994" fill="hsl(180.0,100%,20%)">mattcary</text>
<text x="0.462" y="0.925" font-size="0.006527" fill="hsl(180.0,100%,20%)">agrieve</text>
<text x="0.786" y="0.886" font-size="0.006527" fill="hsl(180.0,100%,20%)">pasko</text>
<text x="0.969" y="0.844" font-size="0.013054" fill="hsl(0.0,100%,20%)">mfarazma</text>
<text x="0.122" y="0.457" font-size="0.007994" fill="hsl(0.0,100%,20%)">michaelpg</text>
<text x="0.264" y="0.426" font-size="0.004615" fill="hsl(0.0,100%,20%)">xhwang</text>
<text x="1.604" y="0.371" font-size="0.012210" fill="hsl(0.0,100%,20%)">msimonides</text>
<text x="1.471" y="0.319" font-size="0.004615" fill="hsl(0.0,100%,20%)">grt</text>
<text x="1.708" y="0.094" font-size="0.006527" fill="hsl(0.0,100%,20%)">jochen</text>
<text x="1.577" y="0.272" font-size="0.004615" fill="hsl(0.0,100%,20%)">pkasting</text>
<text x="1.660" y="0.432" font-size="0.004615" fill="hsl(0.0,100%,20%)">reveman</text>
<text x="1.369" y="0.255" font-size="0.004615" fill="hsl(0.0,100%,20%)">yzshen</text>
<text x="0.931" y="0.029" font-size="0.010320" fill="hsl(0.0,100%,20%)">pcc</text>
<text x="0.477" y="0.541" font-size="0.007994" fill="hsl(0.0,100%,20%)">pennymac</text>
<text x="0.232" y="0.535" font-size="0.004615" fill="hsl(0.0,100%,20%)">mmoroz</text>
<text x="1.473" y="0.844" font-size="0.009230" fill="hsl(0.0,100%,20%)">peterhanspers</text>
<text x="1.117" y="0.512" font-size="0.009230" fill="hsl(0.0,100%,20%)">vadimsh</text>
<text x="1.412" y="0.443" font-size="0.006527" fill="hsl(0.0,100%,20%)">tandrii</text>
<text x="1.355" y="0.692" font-size="0.010320" fill="hsl(0.0,100%,20%)">raphael.kubo.da.costa</text>
<text x="0.564" y="0.823" font-size="0.012210" fill="hsl(0.0,100%,20%)">ribalda</text>
<text x="1.146" y="0.684" font-size="0.013054" fill="hsl(0.0,100%,20%)">rjascani</text>
<text x="1.437" y="0.768" font-size="0.013054" fill="hsl(0.0,100%,20%)">rsesek</text>
<text x="1.254" y="0.261" font-size="0.007994" fill="hsl(0.0,100%,20%)">samogot</text>
<text x="1.476" y="0.595" font-size="0.006527" fill="hsl(0.0,100%,20%)">justincohen</text>
<text x="1.497" y="0.825" font-size="0.004615" fill="hsl(0.0,100%,20%)">noyau</text>
<text x="1.500" y="0.511" font-size="0.013845" fill="hsl(0.0,100%,20%)">shayba</text>
<text x="1.737" y="0.067" font-size="0.007994" fill="hsl(0.0,100%,20%)">skyostil</text>
<text x="1.869" y="0.114" font-size="0.006527" fill="hsl(0.0,100%,20%)">primiano</text>
<text x="1.492" y="0.091" font-size="0.004615" fill="hsl(0.0,100%,20%)">tdresser</text>
<text x="1.837" y="0.605" font-size="0.006527" fill="hsl(0.0,100%,20%)">xunjieli</text>
<text x="0.475" y="0.383" font-size="0.004615" fill="hsl(0.0,100%,20%)">fdoray</text>
<text x="0.342" y="0.397" font-size="0.004615" fill="hsl(0.0,100%,20%)">thestig</text>
<text x="0.401" y="0.676" font-size="0.006527" fill="hsl(0.0,100%,20%)">philwo</text>
<text x="1.468" y="0.553" font-size="0.009230" fill="hsl(0.0,100%,20%)">tsniatowski</text>
<text x="0.746" y="0.034" font-size="0.014594" fill="hsl(0.0,100%,20%)">vtsyrklevich</text>
<text x="1.228" y="0.320" font-size="0.007994" fill="hsl(0.0,100%,20%)">wangqing-hf</text>
<text x="1.313" y="0.402" font-size="0.004615" fill="hsl(0.0,100%,20%)">machenbach</text>
</svg>
