<svg width="4000" height="2000" viewBox="-0.025 -0.025 2.05 1.05" xmlns="http://www.w3.org/2000/svg">
  <style>
    path {
      fill: none;
      stroke-linecap: round;
      stroke-opacity: 0.4;
    }

    text {
      text-anchor: middle;
      alignment-baseline: hanging;
    }
  </style>
  <g opacity="0.4">
<path d="M0.881 0.627 Q1.227 0.774 1.590 0.638" stroke="hsl(0.0,100%,35%)" stroke-width="0.00089"></path>
<path d="M0.881 0.627 Q0.987 0.363 0.495 0.253" stroke="hsl(0.0,100%,35%)" stroke-width="0.00447"></path>
<path d="M0.881 0.627 Q0.778 0.877 1.244 0.982" stroke="hsl(0.0,100%,35%)" stroke-width="0.00626"></path>
<path d="M0.881 0.627 Q0.619 0.653 0.612 0.786" stroke="hsl(0.0,100%,35%)" stroke-width="0.00089"></path>
<path d="M0.881 0.627 Q0.799 0.606 0.740 0.641" stroke="hsl(0.0,100%,35%)" stroke-width="0.00716"></path>
<path d="M0.881 0.627 Q0.989 0.727 1.208 0.696" stroke="hsl(0.0,100%,35%)" stroke-width="0.00089"></path>
<path d="M0.881 0.627 Q0.985 0.483 0.726 0.400" stroke="hsl(0.0,100%,35%)" stroke-width="0.00179"></path>
<path d="M0.881 0.627 Q0.723 0.806 1.037 0.922" stroke="hsl(0.0,100%,35%)" stroke-width="0.00447"></path>
<path d="M0.881 0.627 Q0.774 0.658 0.810 0.716" stroke="hsl(0.0,100%,35%)" stroke-width="0.00089"></path>
<path d="M0.881 0.627 Q0.990 0.649 1.056 0.600" stroke="hsl(0.0,100%,35%)" stroke-width="0.00268"></path>
<path d="M1.590 0.638 Q1.141 0.741 1.244 0.982" stroke="hsl(180.0,100%,35%)" stroke-width="0.00984"></path>
<path d="M1.590 0.638 Q1.086 0.669 1.037 0.922" stroke="hsl(180.0,100%,35%)" stroke-width="0.00358"></path>
<path d="M1.590 0.638 Q1.728 0.581 1.647 0.501" stroke="hsl(180.0,100%,35%)" stroke-width="0.00179"></path>
<path d="M1.590 0.638 Q1.352 0.590 1.208 0.696" stroke="hsl(180.0,100%,35%)" stroke-width="0.00179"></path>
<path d="M1.590 0.638 Q1.540 0.579 1.414 0.590" stroke="hsl(180.0,100%,35%)" stroke-width="0.00089"></path>
<path d="M1.590 0.638 Q1.792 0.584 1.732 0.474" stroke="hsl(180.0,100%,35%)" stroke-width="0.00089"></path>
<path d="M1.590 0.638 Q1.348 0.346 0.726 0.400" stroke="hsl(180.0,100%,35%)" stroke-width="0.00358"></path>
<path d="M1.590 0.638 Q1.353 0.748 1.517 0.888" stroke="hsl(180.0,100%,35%)" stroke-width="0.00089"></path>
<path d="M1.590 0.638 Q1.182 0.633 1.084 0.831" stroke="hsl(180.0,100%,35%)" stroke-width="0.00089"></path>
<path d="M1.590 0.638 Q1.350 0.226 0.495 0.253" stroke="hsl(180.0,100%,35%)" stroke-width="0.00447"></path>
<path d="M0.495 0.253 Q0.735 0.664 1.590 0.638" stroke="hsl(0.0,100%,35%)" stroke-width="0.00895"></path>
<path d="M0.495 0.253 Q0.497 0.617 1.208 0.696" stroke="hsl(0.0,100%,35%)" stroke-width="0.01521"></path>
<path d="M0.495 0.253 Q0.286 0.767 1.244 0.982" stroke="hsl(0.0,100%,35%)" stroke-width="0.01432"></path>
<path d="M0.495 0.253 Q0.231 0.696 1.037 0.922" stroke="hsl(0.0,100%,35%)" stroke-width="0.01432"></path>
<path d="M0.495 0.253 Q0.493 0.373 0.726 0.400" stroke="hsl(0.0,100%,35%)" stroke-width="0.02685"></path>
<path d="M0.495 0.253 Q0.498 0.775 1.517 0.888" stroke="hsl(0.0,100%,35%)" stroke-width="0.00089"></path>
<path d="M0.495 0.253 Q0.665 0.269 0.734 0.190" stroke="hsl(0.0,100%,35%)" stroke-width="0.00179"></path>
<path d="M0.495 0.253 Q0.595 0.418 0.939 0.406" stroke="hsl(0.0,100%,35%)" stroke-width="0.00089"></path>
<path d="M0.495 0.253 Q0.327 0.660 1.084 0.831" stroke="hsl(0.0,100%,35%)" stroke-width="0.00089"></path>
<path d="M0.495 0.253 Q0.402 0.233 0.344 0.275" stroke="hsl(0.0,100%,35%)" stroke-width="0.00089"></path>
<path d="M1.244 0.982 Q1.453 0.468 0.495 0.253" stroke="hsl(180.0,100%,35%)" stroke-width="0.00626"></path>
<path d="M1.244 0.982 Q1.189 0.911 1.037 0.922" stroke="hsl(180.0,100%,35%)" stroke-width="0.00358"></path>
<path d="M1.244 0.982 Q1.285 0.875 1.084 0.831" stroke="hsl(180.0,100%,35%)" stroke-width="0.00358"></path>
<path d="M1.244 0.982 Q1.451 0.588 0.726 0.400" stroke="hsl(180.0,100%,35%)" stroke-width="0.00179"></path>
<path d="M1.244 0.982 Q1.693 0.879 1.590 0.638" stroke="hsl(180.0,100%,35%)" stroke-width="0.00895"></path>
<path d="M1.244 0.982 Q1.456 0.990 1.517 0.888" stroke="hsl(180.0,100%,35%)" stroke-width="0.01611"></path>
<path d="M1.244 0.982 Q1.455 0.832 1.208 0.696" stroke="hsl(180.0,100%,35%)" stroke-width="0.00089"></path>
<path d="M1.244 0.982 Q1.941 0.912 1.957 0.556" stroke="hsl(180.0,100%,35%)" stroke-width="0.00089"></path>
<path d="M1.244 0.982 Q1.190 0.975 1.164 0.999" stroke="hsl(180.0,100%,35%)" stroke-width="0.00268"></path>
<path d="M1.244 0.982 Q1.473 0.654 0.883 0.471" stroke="hsl(180.0,100%,35%)" stroke-width="0.00089"></path>
<path d="M1.244 0.982 Q1.969 0.758 1.690 0.355" stroke="hsl(180.0,100%,35%)" stroke-width="0.00179"></path>
<path d="M1.244 0.982 Q1.416 0.880 1.254 0.773" stroke="hsl(180.0,100%,35%)" stroke-width="0.00179"></path>
<path d="M1.244 0.982 Q1.514 0.910 1.433 0.763" stroke="hsl(180.0,100%,35%)" stroke-width="0.00089"></path>
<path d="M1.244 0.982 Q1.689 0.780 1.392 0.519" stroke="hsl(180.0,100%,35%)" stroke-width="0.00089"></path>
<path d="M0.740 0.641 Q0.719 0.913 1.244 0.982" stroke="hsl(0.0,100%,35%)" stroke-width="0.00089"></path>
<path d="M0.740 0.641 Q0.931 0.684 1.056 0.600" stroke="hsl(0.0,100%,35%)" stroke-width="0.00089"></path>
<path d="M0.740 0.641 Q0.664 0.841 1.037 0.922" stroke="hsl(0.0,100%,35%)" stroke-width="0.00179"></path>
<path d="M0.740 0.641 Q0.928 0.398 0.495 0.253" stroke="hsl(0.0,100%,35%)" stroke-width="0.00179"></path>
<path d="M1.208 0.696 Q1.204 0.452 0.726 0.400" stroke="hsl(0.0,100%,35%)" stroke-width="0.00805"></path>
<path d="M1.208 0.696 Q1.206 0.332 0.495 0.253" stroke="hsl(0.0,100%,35%)" stroke-width="0.01163"></path>
<path d="M1.208 0.696 Q0.997 0.846 1.244 0.982" stroke="hsl(0.0,100%,35%)" stroke-width="0.04832"></path>
<path d="M1.208 0.696 Q1.269 0.653 1.199 0.613" stroke="hsl(0.0,100%,35%)" stroke-width="0.00179"></path>
<path d="M1.208 0.696 Q0.942 0.775 1.037 0.922" stroke="hsl(0.0,100%,35%)" stroke-width="0.00358"></path>
<path d="M1.208 0.696 Q1.037 0.739 1.084 0.831" stroke="hsl(0.0,100%,35%)" stroke-width="0.00537"></path>
<path d="M1.208 0.696 Q1.445 0.743 1.590 0.638" stroke="hsl(0.0,100%,35%)" stroke-width="0.00089"></path>
<path d="M1.208 0.696 Q1.223 0.631 1.100 0.609" stroke="hsl(0.0,100%,35%)" stroke-width="0.00268"></path>
<path d="M1.208 0.696 Q1.369 0.797 1.602 0.740" stroke="hsl(0.0,100%,35%)" stroke-width="0.00089"></path>
<path d="M0.726 0.400 Q0.968 0.692 1.590 0.638" stroke="hsl(0.0,100%,35%)" stroke-width="0.00537"></path>
<path d="M0.726 0.400 Q0.729 0.280 0.495 0.253" stroke="hsl(0.0,100%,35%)" stroke-width="0.02953"></path>
<path d="M0.726 0.400 Q0.520 0.795 1.244 0.982" stroke="hsl(0.0,100%,35%)" stroke-width="0.03222"></path>
<path d="M0.726 0.400 Q0.731 0.644 1.208 0.696" stroke="hsl(0.0,100%,35%)" stroke-width="0.01521"></path>
<path d="M0.726 0.400 Q0.465 0.723 1.037 0.922" stroke="hsl(0.0,100%,35%)" stroke-width="0.00984"></path>
<path d="M0.726 0.400 Q0.576 0.363 0.470 0.428" stroke="hsl(0.0,100%,35%)" stroke-width="0.00179"></path>
<path d="M0.726 0.400 Q0.560 0.687 1.084 0.831" stroke="hsl(0.0,100%,35%)" stroke-width="0.00179"></path>
<path d="M0.726 0.400 Q0.732 0.802 1.517 0.888" stroke="hsl(0.0,100%,35%)" stroke-width="0.00716"></path>
<path d="M0.726 0.400 Q0.731 0.566 1.056 0.600" stroke="hsl(0.0,100%,35%)" stroke-width="0.00089"></path>
<path d="M1.037 0.922 Q1.092 0.993 1.244 0.982" stroke="hsl(180.0,100%,35%)" stroke-width="0.03222"></path>
<path d="M1.037 0.922 Q1.541 0.890 1.590 0.638" stroke="hsl(180.0,100%,35%)" stroke-width="0.00805"></path>
<path d="M1.037 0.922 Q1.304 1.001 1.517 0.888" stroke="hsl(180.0,100%,35%)" stroke-width="0.02506"></path>
<path d="M1.037 0.922 Q1.301 0.479 0.495 0.253" stroke="hsl(180.0,100%,35%)" stroke-width="0.00089"></path>
<path d="M1.037 0.922 Q1.303 0.843 1.208 0.696" stroke="hsl(180.0,100%,35%)" stroke-width="0.00089"></path>
<path d="M1.037 0.922 Q1.679 0.833 1.647 0.501" stroke="hsl(180.0,100%,35%)" stroke-width="0.00089"></path>
<path d="M1.037 0.922 Q1.133 0.886 1.084 0.831" stroke="hsl(180.0,100%,35%)" stroke-width="0.00089"></path>
<path d="M1.037 0.922 Q1.038 0.986 1.164 0.999" stroke="hsl(180.0,100%,35%)" stroke-width="0.00268"></path>
<path d="M1.037 0.922 Q1.321 0.665 0.883 0.471" stroke="hsl(180.0,100%,35%)" stroke-width="0.00089"></path>
<path d="M1.037 0.922 Q1.789 0.923 1.957 0.556" stroke="hsl(180.0,100%,35%)" stroke-width="0.00089"></path>
<path d="M1.037 0.922 Q1.137 0.830 0.981 0.761" stroke="hsl(180.0,100%,35%)" stroke-width="0.00358"></path>
<path d="M1.037 0.922 Q0.852 0.918 0.804 1.007" stroke="hsl(180.0,100%,35%)" stroke-width="0.00179"></path>
<path d="M0.810 0.716 Q0.759 0.864 1.037 0.922" stroke="hsl(0.0,100%,35%)" stroke-width="0.00179"></path>
<path d="M0.810 0.716 Q0.916 0.686 0.881 0.627" stroke="hsl(0.0,100%,35%)" stroke-width="0.00089"></path>
<path d="M0.810 0.716 Q0.835 0.665 0.740 0.641" stroke="hsl(0.0,100%,35%)" stroke-width="0.00089"></path>
<path d="M0.909 0.784 Q1.127 0.436 0.495 0.253" stroke="hsl(180.0,100%,35%)" stroke-width="0.00089"></path>
<path d="M0.909 0.784 Q0.939 0.679 0.740 0.641" stroke="hsl(180.0,100%,35%)" stroke-width="0.00179"></path>
<path d="M0.909 0.784 Q0.918 0.950 1.244 0.982" stroke="hsl(180.0,100%,35%)" stroke-width="0.00895"></path>
<path d="M0.909 0.784 Q0.863 0.879 1.037 0.922" stroke="hsl(180.0,100%,35%)" stroke-width="0.00537"></path>
<path d="M0.939 0.406 Q0.631 0.755 1.244 0.982" stroke="hsl(0.0,100%,35%)" stroke-width="0.00447"></path>
<path d="M0.939 0.406 Q1.079 0.652 1.590 0.638" stroke="hsl(0.0,100%,35%)" stroke-width="0.00358"></path>
<path d="M0.939 0.406 Q0.859 0.427 0.883 0.471" stroke="hsl(0.0,100%,35%)" stroke-width="0.00179"></path>
<path d="M0.939 0.406 Q0.837 0.360 0.726 0.400" stroke="hsl(0.0,100%,35%)" stroke-width="0.00626"></path>
<path d="M0.939 0.406 Q0.840 0.241 0.495 0.253" stroke="hsl(0.0,100%,35%)" stroke-width="0.00268"></path>
<path d="M0.939 0.406 Q0.842 0.605 1.208 0.696" stroke="hsl(0.0,100%,35%)" stroke-width="0.00089"></path>
<path d="M0.883 0.471 Q0.600 0.727 1.037 0.922" stroke="hsl(180.0,100%,35%)" stroke-width="0.00179"></path>
<path d="M0.883 0.471 Q0.864 0.284 0.495 0.253" stroke="hsl(180.0,100%,35%)" stroke-width="0.00089"></path>
<path d="M0.883 0.471 Q0.867 0.806 1.517 0.888" stroke="hsl(180.0,100%,35%)" stroke-width="0.00089"></path>
<path d="M1.296 0.760 Q1.541 0.757 1.590 0.638" stroke="hsl(0.0,100%,35%)" stroke-width="0.00089"></path>
<path d="M1.296 0.760 Q1.301 0.346 0.495 0.253" stroke="hsl(0.0,100%,35%)" stroke-width="0.00179"></path>
<path d="M1.296 0.760 Q1.303 0.710 1.208 0.696" stroke="hsl(0.0,100%,35%)" stroke-width="0.00179"></path>
<path d="M1.296 0.760 Q1.299 0.466 0.726 0.400" stroke="hsl(0.0,100%,35%)" stroke-width="0.00089"></path>
<path d="M1.082 0.702 Q0.939 0.874 1.244 0.982" stroke="hsl(180.0,100%,35%)" stroke-width="0.00179"></path>
<path d="M1.082 0.702 Q1.150 0.724 1.208 0.696" stroke="hsl(180.0,100%,35%)" stroke-width="0.00089"></path>
<path d="M1.082 0.702 Q1.167 0.547 0.883 0.471" stroke="hsl(180.0,100%,35%)" stroke-width="0.00089"></path>
<path d="M1.082 0.702 Q0.884 0.803 1.037 0.922" stroke="hsl(180.0,100%,35%)" stroke-width="0.00089"></path>
<path d="M1.082 0.702 Q1.148 0.360 0.495 0.253" stroke="hsl(180.0,100%,35%)" stroke-width="0.00089"></path>
<path d="M0.762 0.282 Q0.891 0.625 1.590 0.638" stroke="hsl(0.0,100%,35%)" stroke-width="0.00089"></path>
<path d="M0.762 0.282 Q0.652 0.214 0.495 0.253" stroke="hsl(0.0,100%,35%)" stroke-width="0.00179"></path>
<path d="M0.762 0.282 Q0.443 0.728 1.244 0.982" stroke="hsl(0.0,100%,35%)" stroke-width="0.00089"></path>
<path d="M0.762 0.282 Q0.649 0.334 0.726 0.400" stroke="hsl(0.0,100%,35%)" stroke-width="0.00089"></path>
<path d="M0.908 0.238 Q0.691 0.527 1.208 0.696" stroke="hsl(0.0,100%,35%)" stroke-width="0.00089"></path>
<path d="M0.908 0.238 Q0.689 0.163 0.495 0.253" stroke="hsl(0.0,100%,35%)" stroke-width="0.00179"></path>
<path d="M0.908 0.238 Q0.929 0.574 1.590 0.638" stroke="hsl(0.0,100%,35%)" stroke-width="0.00089"></path>
<path d="M1.084 0.831 Q1.252 0.424 0.495 0.253" stroke="hsl(180.0,100%,35%)" stroke-width="0.00179"></path>
<path d="M1.084 0.831 Q1.043 0.939 1.244 0.982" stroke="hsl(180.0,100%,35%)" stroke-width="0.02685"></path>
<path d="M1.084 0.831 Q1.254 0.788 1.208 0.696" stroke="hsl(180.0,100%,35%)" stroke-width="0.00089"></path>
<path d="M1.084 0.831 Q1.492 0.836 1.590 0.638" stroke="hsl(180.0,100%,35%)" stroke-width="0.00358"></path>
<path d="M1.084 0.831 Q1.255 0.946 1.517 0.888" stroke="hsl(180.0,100%,35%)" stroke-width="0.01342"></path>
<path d="M1.084 0.831 Q0.988 0.867 1.037 0.922" stroke="hsl(180.0,100%,35%)" stroke-width="0.00179"></path>
<path d="M1.517 0.888 Q1.305 0.880 1.244 0.982" stroke="hsl(180.0,100%,35%)" stroke-width="0.06891"></path>
<path d="M1.517 0.888 Q1.250 0.809 1.037 0.922" stroke="hsl(180.0,100%,35%)" stroke-width="0.01342"></path>
<path d="M1.517 0.888 Q1.754 0.777 1.590 0.638" stroke="hsl(180.0,100%,35%)" stroke-width="0.00895"></path>
<path d="M1.517 0.888 Q1.345 0.773 1.084 0.831" stroke="hsl(180.0,100%,35%)" stroke-width="0.00805"></path>
<path d="M1.957 0.556 Q1.259 0.627 1.244 0.982" stroke="hsl(180.0,100%,35%)" stroke-width="0.00895"></path>
<path d="M1.957 0.556 Q1.300 0.519 1.084 0.831" stroke="hsl(180.0,100%,35%)" stroke-width="0.00089"></path>
<path d="M1.957 0.556 Q1.708 0.523 1.590 0.638" stroke="hsl(180.0,100%,35%)" stroke-width="0.01611"></path>
<path d="M1.957 0.556 Q1.974 0.490 1.848 0.467" stroke="hsl(180.0,100%,35%)" stroke-width="0.00089"></path>
<path d="M1.957 0.556 Q1.660 0.108 0.721 0.154" stroke="hsl(180.0,100%,35%)" stroke-width="0.00089"></path>
<path d="M1.164 0.999 Q1.218 1.007 1.244 0.982" stroke="hsl(180.0,100%,35%)" stroke-width="0.04027"></path>
<path d="M1.164 0.999 Q1.163 0.935 1.037 0.922" stroke="hsl(180.0,100%,35%)" stroke-width="0.00179"></path>
<path d="M1.164 0.999 Q1.430 1.014 1.517 0.888" stroke="hsl(180.0,100%,35%)" stroke-width="0.00447"></path>
<path d="M1.164 0.999 Q1.915 0.936 1.957 0.556" stroke="hsl(180.0,100%,35%)" stroke-width="0.00089"></path>
<path d="M1.164 0.999 Q1.666 0.904 1.590 0.638" stroke="hsl(180.0,100%,35%)" stroke-width="0.00268"></path>
<path d="M1.164 0.999 Q1.446 0.679 0.883 0.471" stroke="hsl(180.0,100%,35%)" stroke-width="0.00089"></path>
<path d="M1.690 0.355 Q0.965 0.579 1.244 0.982" stroke="hsl(180.0,100%,35%)" stroke-width="0.00089"></path>
<path d="M1.690 0.355 Q1.274 0.230 0.939 0.406" stroke="hsl(180.0,100%,35%)" stroke-width="0.00089"></path>
<path d="M1.690 0.355 Q1.835 0.344 1.845 0.271" stroke="hsl(180.0,100%,35%)" stroke-width="0.00089"></path>
<path d="M1.392 0.519 Q0.948 0.721 1.244 0.982" stroke="hsl(180.0,100%,35%)" stroke-width="0.00358"></path>
<path d="M1.392 0.519 Q1.396 0.618 1.590 0.638" stroke="hsl(180.0,100%,35%)" stroke-width="0.00358"></path>
<path d="M1.392 0.519 Q0.988 0.613 1.084 0.831" stroke="hsl(180.0,100%,35%)" stroke-width="0.00179"></path>
<path d="M1.392 0.519 Q1.672 0.496 1.690 0.355" stroke="hsl(180.0,100%,35%)" stroke-width="0.00089"></path>
<path d="M1.392 0.519 Q1.500 0.482 1.453 0.421" stroke="hsl(180.0,100%,35%)" stroke-width="0.00089"></path>
<path d="M1.392 0.519 Q1.302 0.450 1.149 0.479" stroke="hsl(180.0,100%,35%)" stroke-width="0.00089"></path>
<path d="M1.392 0.519 Q1.568 0.434 1.441 0.329" stroke="hsl(180.0,100%,35%)" stroke-width="0.00089"></path>
<path d="M1.392 0.519 Q1.159 0.728 1.517 0.888" stroke="hsl(180.0,100%,35%)" stroke-width="0.00089"></path>
<path d="M1.392 0.519 Q1.158 0.570 1.208 0.696" stroke="hsl(180.0,100%,35%)" stroke-width="0.00089"></path>
<path d="M1.392 0.519 Q1.157 0.207 0.495 0.253" stroke="hsl(180.0,100%,35%)" stroke-width="0.00089"></path>
<path d="M1.614 0.404 Q0.967 0.619 1.244 0.982" stroke="hsl(180.0,100%,35%)" stroke-width="0.00089"></path>
<path d="M1.614 0.404 Q1.415 0.516 1.590 0.638" stroke="hsl(180.0,100%,35%)" stroke-width="0.00089"></path>
<path d="M0.470 0.428 Q0.414 0.860 1.244 0.982" stroke="hsl(0.0,100%,35%)" stroke-width="0.00626"></path>
<path d="M0.470 0.428 Q0.623 0.345 0.495 0.253" stroke="hsl(0.0,100%,35%)" stroke-width="0.00447"></path>
<path d="M0.470 0.428 Q0.620 0.465 0.726 0.400" stroke="hsl(0.0,100%,35%)" stroke-width="0.00358"></path>
<path d="M0.470 0.428 Q0.434 0.588 0.740 0.641" stroke="hsl(0.0,100%,35%)" stroke-width="0.00358"></path>
<path d="M1.571 0.256 Q1.275 0.450 1.590 0.638" stroke="hsl(180.0,100%,35%)" stroke-width="0.00089"></path>
<path d="M1.571 0.256 Q1.551 0.329 1.690 0.355" stroke="hsl(180.0,100%,35%)" stroke-width="0.00179"></path>
<path d="M1.571 0.256 Q1.222 0.585 1.789 0.828" stroke="hsl(180.0,100%,35%)" stroke-width="0.00179"></path>
<path d="M1.571 0.256 Q1.585 0.233 1.545 0.221" stroke="hsl(180.0,100%,35%)" stroke-width="0.00089"></path>
<path d="M1.789 0.828 Q2.118 0.571 1.690 0.355" stroke="hsl(180.0,100%,35%)" stroke-width="0.00179"></path>
<path d="M1.789 0.828 Q1.856 0.861 1.936 0.835" stroke="hsl(180.0,100%,35%)" stroke-width="0.00179"></path>
<path d="M1.789 0.828 Q1.841 0.693 1.590 0.638" stroke="hsl(180.0,100%,35%)" stroke-width="0.00089"></path>
<path d="M1.789 0.828 Q1.941 0.432 1.202 0.271" stroke="hsl(180.0,100%,35%)" stroke-width="0.00089"></path>
<path d="M1.209 0.412 Q0.977 0.310 0.726 0.400" stroke="hsl(0.0,100%,35%)" stroke-width="0.00179"></path>
<path d="M1.209 0.412 Q1.218 0.601 1.590 0.638" stroke="hsl(0.0,100%,35%)" stroke-width="0.00179"></path>
<path d="M1.209 0.412 Q1.079 0.355 0.939 0.406" stroke="hsl(0.0,100%,35%)" stroke-width="0.00268"></path>
<path d="M1.209 0.412 Q0.981 0.554 1.208 0.696" stroke="hsl(0.0,100%,35%)" stroke-width="0.00268"></path>
<path d="M1.006 0.771 Q0.956 0.924 1.244 0.982" stroke="hsl(180.0,100%,35%)" stroke-width="0.00358"></path>
<path d="M1.006 0.771 Q0.902 0.917 1.164 0.999" stroke="hsl(180.0,100%,35%)" stroke-width="0.00179"></path>
<path d="M1.006 0.771 Q1.168 0.931 1.517 0.888" stroke="hsl(180.0,100%,35%)" stroke-width="0.00089"></path>
<path d="M1.250 0.750 Q1.061 0.865 1.244 0.982" stroke="hsl(180.0,100%,35%)" stroke-width="0.00358"></path>
<path d="M1.250 0.750 Q1.509 0.762 1.590 0.638" stroke="hsl(180.0,100%,35%)" stroke-width="0.00089"></path>
<path d="M1.250 0.750 Q1.273 0.872 1.517 0.888" stroke="hsl(180.0,100%,35%)" stroke-width="0.00089"></path>
<path d="M1.111 0.037 Q1.219 0.078 1.322 0.034" stroke="hsl(0.0,100%,35%)" stroke-width="0.00089"></path>
<path d="M1.111 0.037 Q0.478 0.104 0.470 0.428" stroke="hsl(0.0,100%,35%)" stroke-width="0.00089"></path>
<path d="M1.111 0.037 Q0.954 0.064 0.971 0.146" stroke="hsl(0.0,100%,35%)" stroke-width="0.00089"></path>
<path d="M1.305 0.603 Q1.178 0.386 0.726 0.400" stroke="hsl(0.0,100%,35%)" stroke-width="0.00268"></path>
<path d="M1.305 0.603 Q1.182 0.630 1.208 0.696" stroke="hsl(0.0,100%,35%)" stroke-width="0.00268"></path>
<path d="M1.305 0.603 Q1.180 0.266 0.495 0.253" stroke="hsl(0.0,100%,35%)" stroke-width="0.00089"></path>
<path d="M1.253 0.797 Q1.100 0.888 1.244 0.982" stroke="hsl(180.0,100%,35%)" stroke-width="0.00358"></path>
<path d="M1.253 0.797 Q1.312 0.895 1.517 0.888" stroke="hsl(180.0,100%,35%)" stroke-width="0.00358"></path>
<path d="M1.253 0.797 Q1.549 0.784 1.590 0.638" stroke="hsl(180.0,100%,35%)" stroke-width="0.00268"></path>
<path d="M1.020 0.510 Q1.203 0.688 1.590 0.638" stroke="hsl(180.0,100%,35%)" stroke-width="0.00089"></path>
<path d="M1.020 0.510 Q1.063 0.537 1.127 0.522" stroke="hsl(180.0,100%,35%)" stroke-width="0.00089"></path>
<path d="M1.020 0.510 Q0.945 0.509 0.927 0.545" stroke="hsl(180.0,100%,35%)" stroke-width="0.00089"></path>
<path d="M1.020 0.510 Q0.894 0.492 0.833 0.550" stroke="hsl(180.0,100%,35%)" stroke-width="0.00089"></path>
<path d="M1.684 0.775 Q1.720 0.756 1.691 0.735" stroke="hsl(0.0,100%,35%)" stroke-width="0.00268"></path>
<path d="M1.684 0.775 Q1.607 0.441 0.939 0.406" stroke="hsl(0.0,100%,35%)" stroke-width="0.00179"></path>
<path d="M1.684 0.775 Q1.762 0.797 1.823 0.763" stroke="hsl(0.0,100%,35%)" stroke-width="0.00179"></path>
<path d="M1.113 1.009 Q1.509 0.672 0.939 0.406" stroke="hsl(180.0,100%,35%)" stroke-width="0.00089"></path>
<path d="M1.113 1.009 Q1.407 0.627 0.726 0.400" stroke="hsl(180.0,100%,35%)" stroke-width="0.00179"></path>
<path d="M1.113 1.009 Q1.200 1.022 1.244 0.982" stroke="hsl(180.0,100%,35%)" stroke-width="0.00447"></path>
<path d="M1.113 1.009 Q1.411 0.871 1.208 0.696" stroke="hsl(180.0,100%,35%)" stroke-width="0.00089"></path>
<path d="M1.113 1.009 Q1.409 0.507 0.495 0.253" stroke="hsl(180.0,100%,35%)" stroke-width="0.00089"></path>
<path d="M1.735 1.030 Q2.148 0.621 1.441 0.329" stroke="hsl(180.0,100%,35%)" stroke-width="0.00089"></path>
<path d="M1.735 1.030 Q1.750 1.022 1.737 1.012" stroke="hsl(180.0,100%,35%)" stroke-width="0.00089"></path>
<path d="M1.735 1.030 Q1.740 0.915 1.517 0.888" stroke="hsl(180.0,100%,35%)" stroke-width="0.00089"></path>
<path d="M0.933 0.437 Q0.961 0.423 0.939 0.406" stroke="hsl(0.0,100%,35%)" stroke-width="0.00089"></path>
<path d="M0.933 0.437 Q1.091 0.479 1.209 0.412" stroke="hsl(0.0,100%,35%)" stroke-width="0.00089"></path>
<path d="M0.933 0.437 Q1.204 0.746 1.866 0.682" stroke="hsl(0.0,100%,35%)" stroke-width="0.00089"></path>
<path d="M1.833 0.714 Q1.324 0.730 1.244 0.982" stroke="hsl(180.0,100%,35%)" stroke-width="0.00089"></path>
<path d="M1.833 0.714 Q1.772 0.627 1.590 0.638" stroke="hsl(180.0,100%,35%)" stroke-width="0.00089"></path>
<path d="M1.833 0.714 Q1.762 0.438 1.209 0.412" stroke="hsl(180.0,100%,35%)" stroke-width="0.00089"></path>
<path d="M1.833 0.714 Q2.207 0.303 1.487 0.030" stroke="hsl(180.0,100%,35%)" stroke-width="0.00089"></path>
<path d="M1.833 0.714 Q1.836 0.742 1.891 0.747" stroke="hsl(180.0,100%,35%)" stroke-width="0.00089"></path>
<path d="M1.833 0.714 Q1.899 0.726 1.938 0.697" stroke="hsl(180.0,100%,35%)" stroke-width="0.00089"></path>
<path d="M1.833 0.714 Q1.899 0.683 1.853 0.644" stroke="hsl(180.0,100%,35%)" stroke-width="0.00089"></path>
<path d="M1.707 0.098 Q1.217 0.345 1.590 0.638" stroke="hsl(180.0,100%,35%)" stroke-width="0.00179"></path>
<path d="M1.707 0.098 Q0.769 0.448 1.244 0.982" stroke="hsl(180.0,100%,35%)" stroke-width="0.00089"></path>
<path d="M1.707 0.098 Q0.714 0.376 1.037 0.922" stroke="hsl(180.0,100%,35%)" stroke-width="0.00089"></path>
<path d="M1.707 0.098 Q0.978 -0.067 0.495 0.253" stroke="hsl(180.0,100%,35%)" stroke-width="0.00179"></path>
<path d="M0.845 0.062 Q0.757 0.499 1.590 0.638" stroke="hsl(180.0,100%,35%)" stroke-width="0.00089"></path>
<path d="M0.845 0.062 Q0.767 0.009 0.646 0.035" stroke="hsl(180.0,100%,35%)" stroke-width="0.00089"></path>
<path d="M0.845 0.062 Q0.349 0.495 1.084 0.831" stroke="hsl(180.0,100%,35%)" stroke-width="0.00089"></path>
<path d="M1.444 0.642 Q1.283 0.622 1.208 0.696" stroke="hsl(180.0,100%,35%)" stroke-width="0.00179"></path>
<path d="M1.444 0.642 Q1.520 0.669 1.590 0.638" stroke="hsl(180.0,100%,35%)" stroke-width="0.00089"></path>
<path d="M1.444 0.642 Q1.470 0.610 1.414 0.590" stroke="hsl(180.0,100%,35%)" stroke-width="0.00089"></path>
<path d="M1.101 1.015 Q1.199 1.027 1.244 0.982" stroke="hsl(180.0,100%,35%)" stroke-width="0.00179"></path>
<path d="M1.101 1.015 Q1.240 0.920 1.084 0.831" stroke="hsl(180.0,100%,35%)" stroke-width="0.00089"></path>
<path d="M1.101 1.015 Q1.144 0.956 1.037 0.922" stroke="hsl(180.0,100%,35%)" stroke-width="0.00179"></path>
<path d="M0.737 0.185 Q0.393 0.577 1.084 0.831" stroke="hsl(0.0,100%,35%)" stroke-width="0.00089"></path>
<path d="M0.737 0.185 Q0.565 0.692 1.517 0.888" stroke="hsl(0.0,100%,35%)" stroke-width="0.00089"></path>
<path d="M0.737 0.185 Q0.564 0.535 1.208 0.696" stroke="hsl(0.0,100%,35%)" stroke-width="0.00089"></path>
<path d="M0.737 0.185 Q0.562 0.171 0.495 0.253" stroke="hsl(0.0,100%,35%)" stroke-width="0.00268"></path>
<path d="M0.737 0.185 Q0.802 0.582 1.590 0.638" stroke="hsl(0.0,100%,35%)" stroke-width="0.00089"></path>
<path d="M1.176 0.784 Q1.052 0.897 1.244 0.982" stroke="hsl(180.0,100%,35%)" stroke-width="0.00537"></path>
<path d="M1.176 0.784 Q1.501 0.794 1.590 0.638" stroke="hsl(180.0,100%,35%)" stroke-width="0.00089"></path>
<path d="M1.176 0.784 Q0.997 0.825 1.037 0.922" stroke="hsl(180.0,100%,35%)" stroke-width="0.00089"></path>
<path d="M1.100 0.609 Q1.322 0.722 1.590 0.638" stroke="hsl(0.0,100%,35%)" stroke-width="0.00089"></path>
<path d="M1.100 0.609 Q0.874 0.825 1.244 0.982" stroke="hsl(0.0,100%,35%)" stroke-width="0.00089"></path>
<path d="M1.100 0.609 Q1.085 0.674 1.208 0.696" stroke="hsl(0.0,100%,35%)" stroke-width="0.00089"></path>
<path d="M1.100 0.609 Q1.086 0.832 1.517 0.888" stroke="hsl(0.0,100%,35%)" stroke-width="0.00089"></path>
<path d="M1.100 0.609 Q0.914 0.717 1.084 0.831" stroke="hsl(0.0,100%,35%)" stroke-width="0.00089"></path>
<path d="M1.223 0.497 Q0.846 0.744 1.244 0.982" stroke="hsl(180.0,100%,35%)" stroke-width="0.00089"></path>
<path d="M1.223 0.497 Q1.291 0.542 1.392 0.519" stroke="hsl(180.0,100%,35%)" stroke-width="0.00089"></path>
<path d="M1.223 0.497 Q1.294 0.641 1.590 0.638" stroke="hsl(180.0,100%,35%)" stroke-width="0.00089"></path>
<path d="M1.356 0.780 Q1.350 0.866 1.517 0.888" stroke="hsl(180.0,100%,35%)" stroke-width="0.00179"></path>
<path d="M1.356 0.780 Q1.345 0.464 0.726 0.400" stroke="hsl(180.0,100%,35%)" stroke-width="0.00089"></path>
<path d="M1.356 0.780 Q1.347 0.344 0.495 0.253" stroke="hsl(180.0,100%,35%)" stroke-width="0.00089"></path>
<path d="M1.467 1.012 Q1.379 0.953 1.244 0.982" stroke="hsl(180.0,100%,35%)" stroke-width="0.00358"></path>
<path d="M1.467 1.012 Q1.586 0.558 0.726 0.400" stroke="hsl(180.0,100%,35%)" stroke-width="0.00089"></path>
<path d="M1.467 1.012 Q1.324 0.881 1.037 0.922" stroke="hsl(180.0,100%,35%)" stroke-width="0.00179"></path>
<path d="M1.467 1.012 Q1.591 0.960 1.517 0.888" stroke="hsl(180.0,100%,35%)" stroke-width="0.00089"></path>
<path d="M1.295 0.121 Q1.464 0.114 1.487 0.030" stroke="hsl(180.0,100%,35%)" stroke-width="0.00089"></path>
<path d="M1.295 0.121 Q1.129 0.178 1.202 0.271" stroke="hsl(180.0,100%,35%)" stroke-width="0.00089"></path>
<path d="M1.295 0.121 Q1.221 0.118 1.199 0.154" stroke="hsl(180.0,100%,35%)" stroke-width="0.00089"></path>
<path d="M0.721 0.154 Q0.320 0.673 1.244 0.982" stroke="hsl(0.0,100%,35%)" stroke-width="0.00089"></path>
<path d="M0.721 0.154 Q0.769 0.570 1.590 0.638" stroke="hsl(0.0,100%,35%)" stroke-width="0.00179"></path>
<path d="M0.721 0.154 Q0.529 0.158 0.495 0.253" stroke="hsl(0.0,100%,35%)" stroke-width="0.00358"></path>
<path d="M1.383 0.375 Q1.273 0.449 1.392 0.519" stroke="hsl(180.0,100%,35%)" stroke-width="0.00089"></path>
<path d="M1.383 0.375 Q1.277 0.548 1.590 0.638" stroke="hsl(180.0,100%,35%)" stroke-width="0.00089"></path>
<path d="M1.383 0.375 Q1.035 0.256 0.726 0.400" stroke="hsl(180.0,100%,35%)" stroke-width="0.00089"></path>
<path d="M1.383 0.375 Q1.037 0.137 0.495 0.253" stroke="hsl(180.0,100%,35%)" stroke-width="0.00089"></path>
<path d="M1.054 0.746 Q0.905 0.831 1.037 0.922" stroke="hsl(180.0,100%,35%)" stroke-width="0.00089"></path>
<path d="M1.054 0.746 Q1.047 0.962 1.467 1.012" stroke="hsl(180.0,100%,35%)" stroke-width="0.00089"></path>
<path d="M1.054 0.746 Q0.960 0.902 1.244 0.982" stroke="hsl(180.0,100%,35%)" stroke-width="0.00089"></path>
<path d="M1.054 0.746 Q0.906 0.895 1.164 0.999" stroke="hsl(180.0,100%,35%)" stroke-width="0.00089"></path>
<path d="M1.866 0.171 Q0.906 0.452 1.244 0.982" stroke="hsl(180.0,100%,35%)" stroke-width="0.00179"></path>
<path d="M1.866 0.171 Q1.354 0.349 1.590 0.638" stroke="hsl(180.0,100%,35%)" stroke-width="0.00179"></path>
<path d="M1.866 0.171 Q1.844 0.103 1.707 0.098" stroke="hsl(180.0,100%,35%)" stroke-width="0.00179"></path>
<path d="M1.866 0.171 Q1.215 0.199 1.127 0.522" stroke="hsl(180.0,100%,35%)" stroke-width="0.00089"></path>
<path d="M1.866 0.171 Q1.097 0.170 0.927 0.545" stroke="hsl(180.0,100%,35%)" stroke-width="0.00089"></path>
<path d="M1.866 0.171 Q1.078 0.350 1.254 0.773" stroke="hsl(180.0,100%,35%)" stroke-width="0.00089"></path>
<path d="M1.866 0.171 Q0.946 0.345 1.084 0.831" stroke="hsl(180.0,100%,35%)" stroke-width="0.00089"></path>
<path d="M1.825 0.807 Q1.394 0.778 1.244 0.982" stroke="hsl(180.0,100%,35%)" stroke-width="0.00089"></path>
<path d="M1.825 0.807 Q1.843 0.675 1.590 0.638" stroke="hsl(180.0,100%,35%)" stroke-width="0.00089"></path>
<path d="M1.825 0.807 Q1.945 0.753 1.866 0.682" stroke="hsl(180.0,100%,35%)" stroke-width="0.00089"></path>
<path d="M0.418 0.355 Q0.541 0.683 1.208 0.696" stroke="hsl(0.0,100%,35%)" stroke-width="0.00179"></path>
<path d="M0.418 0.355 Q0.536 0.439 0.726 0.400" stroke="hsl(0.0,100%,35%)" stroke-width="0.00179"></path>
<path d="M0.418 0.355 Q0.539 0.319 0.495 0.253" stroke="hsl(0.0,100%,35%)" stroke-width="0.00179"></path>
</g>
<text x="0.881" y="0.614" font-size="0.025625" fill="hsl(0.0,100%,20%)">aaronwood</text>
<text x="1.590" y="0.612" font-size="0.051251" fill="hsl(180.0,100%,20%)">dpranke</text>
<text x="0.495" y="0.223" font-size="0.060641" fill="hsl(0.0,100%,20%)">tikuta</text>
<text x="1.244" y="0.936" font-size="0.091782" fill="hsl(180.0,100%,20%)">brettw</text>
<text x="0.612" y="0.784" font-size="0.004331" fill="hsl(0.0,100%,20%)">computerdruid</text>
<text x="0.740" y="0.631" font-size="0.019849" fill="hsl(0.0,100%,20%)">tmandry</text>
<text x="1.208" y="0.669" font-size="0.053402" fill="hsl(0.0,100%,20%)">sdefresne</text>
<text x="0.726" y="0.371" font-size="0.059390" fill="hsl(0.0,100%,20%)">digit</text>
<text x="1.037" y="0.893" font-size="0.056641" fill="hsl(180.0,100%,20%)">phosek</text>
<text x="0.810" y="0.711" font-size="0.009685" fill="hsl(0.0,100%,20%)">paulfaria</text>
<text x="1.056" y="0.595" font-size="0.009685" fill="hsl(0.0,100%,20%)">bwb</text>
<text x="0.909" y="0.775" font-size="0.018880" fill="hsl(180.0,100%,20%)">adetaylor</text>
<text x="0.939" y="0.394" font-size="0.024117" fill="hsl(0.0,100%,20%)">agrieve</text>
<text x="0.883" y="0.464" font-size="0.013697" fill="hsl(180.0,100%,20%)">mcgrathr</text>
<text x="1.296" y="0.755" font-size="0.010610" fill="hsl(0.0,100%,20%)">akhoroshilov</text>
<text x="1.082" y="0.696" font-size="0.010610" fill="hsl(180.0,100%,20%)">andrewsavage</text>
<text x="0.762" y="0.277" font-size="0.009685" fill="hsl(0.0,100%,20%)">baghdadi</text>
<text x="0.908" y="0.233" font-size="0.008663" fill="hsl(0.0,100%,20%)">bpastene</text>
<text x="1.084" y="0.811" font-size="0.040169" fill="hsl(180.0,100%,20%)">thakis</text>
<text x="1.517" y="0.857" font-size="0.061409" fill="hsl(180.0,100%,20%)">scottmg</text>
<text x="1.957" y="0.543" font-size="0.025257" fill="hsl(180.0,100%,20%)">thomasanderson</text>
<text x="1.164" y="0.982" font-size="0.035189" fill="hsl(180.0,100%,20%)">juliehockett</text>
<text x="1.690" y="0.348" font-size="0.013697" fill="hsl(180.0,100%,20%)">dcheng</text>
<text x="1.254" y="0.769" font-size="0.007502" fill="hsl(180.0,100%,20%)">wfh</text>
<text x="1.433" y="0.761" font-size="0.004331" fill="hsl(180.0,100%,20%)">rockot</text>
<text x="1.392" y="0.509" font-size="0.019371" fill="hsl(180.0,100%,20%)">brucedawson</text>
<text x="1.453" y="0.419" font-size="0.004331" fill="hsl(180.0,100%,20%)">jam</text>
<text x="1.149" y="0.477" font-size="0.004331" fill="hsl(180.0,100%,20%)">mef</text>
<text x="1.441" y="0.326" font-size="0.006126" fill="hsl(180.0,100%,20%)">sky</text>
<text x="1.614" y="0.401" font-size="0.006126" fill="hsl(180.0,100%,20%)">bungeman</text>
<text x="0.470" y="0.417" font-size="0.020773" fill="hsl(0.0,100%,20%)">danakj</text>
<text x="1.845" y="0.268" font-size="0.004331" fill="hsl(180.0,100%,20%)">lukasza</text>
<text x="1.647" y="0.497" font-size="0.007502" fill="hsl(180.0,100%,20%)">iannucci</text>
<text x="1.414" y="0.587" font-size="0.006126" fill="hsl(180.0,100%,20%)">liaoyuke</text>
<text x="1.732" y="0.471" font-size="0.004331" fill="hsl(180.0,100%,20%)">smut</text>
<text x="1.571" y="0.250" font-size="0.010610" fill="hsl(180.0,100%,20%)">erikchen</text>
<text x="1.789" y="0.822" font-size="0.012251" fill="hsl(180.0,100%,20%)">ssid</text>
<text x="1.545" y="0.219" font-size="0.004331" fill="hsl(180.0,100%,20%)">haraken</text>
<text x="1.209" y="0.404" font-size="0.015005" fill="hsl(0.0,100%,20%)">grt</text>
<text x="1.006" y="0.765" font-size="0.011460" fill="hsl(180.0,100%,20%)">haowei</text>
<text x="1.250" y="0.744" font-size="0.010610" fill="hsl(180.0,100%,20%)">jamesr</text>
<text x="1.111" y="0.034" font-size="0.007502" fill="hsl(0.0,100%,20%)">jbroman</text>
<text x="1.322" y="0.032" font-size="0.004331" fill="hsl(0.0,100%,20%)">dalecurtis</text>
<text x="0.971" y="0.144" font-size="0.004331" fill="hsl(0.0,100%,20%)">tzik</text>
<text x="1.305" y="0.597" font-size="0.011460" fill="hsl(0.0,100%,20%)">jkim</text>
<text x="1.253" y="0.789" font-size="0.014366" fill="hsl(180.0,100%,20%)">joearmstrong334</text>
<text x="1.020" y="0.505" font-size="0.008663" fill="hsl(180.0,100%,20%)">jyan</text>
<text x="1.127" y="0.519" font-size="0.006126" fill="hsl(180.0,100%,20%)">mark</text>
<text x="0.927" y="0.542" font-size="0.006126" fill="hsl(180.0,100%,20%)">palmer</text>
<text x="0.833" y="0.548" font-size="0.004331" fill="hsl(180.0,100%,20%)">scroggo</text>
<text x="1.684" y="0.769" font-size="0.011460" fill="hsl(0.0,100%,20%)">lizeb</text>
<text x="1.691" y="0.731" font-size="0.007502" fill="hsl(0.0,100%,20%)">mattcary</text>
<text x="1.823" y="0.760" font-size="0.006126" fill="hsl(0.0,100%,20%)">pasko</text>
<text x="1.113" y="1.002" font-size="0.013697" fill="hsl(180.0,100%,20%)">mfarazma</text>
<text x="1.735" y="1.026" font-size="0.007502" fill="hsl(180.0,100%,20%)">michaelpg</text>
<text x="1.737" y="1.010" font-size="0.004331" fill="hsl(180.0,100%,20%)">xhwang</text>
<text x="0.933" y="0.433" font-size="0.007502" fill="hsl(0.0,100%,20%)">mliedtke</text>
<text x="1.866" y="0.679" font-size="0.006126" fill="hsl(180.0,100%,20%)">machenbach</text>
<text x="1.833" y="0.708" font-size="0.011460" fill="hsl(180.0,100%,20%)">msimonides</text>
<text x="1.487" y="0.027" font-size="0.006126" fill="hsl(180.0,100%,20%)">jochen</text>
<text x="1.891" y="0.745" font-size="0.004331" fill="hsl(180.0,100%,20%)">pkasting</text>
<text x="1.938" y="0.694" font-size="0.004331" fill="hsl(180.0,100%,20%)">reveman</text>
<text x="1.853" y="0.642" font-size="0.004331" fill="hsl(180.0,100%,20%)">yzshen</text>
<text x="1.707" y="0.092" font-size="0.012251" fill="hsl(180.0,100%,20%)">pcc</text>
<text x="0.845" y="0.059" font-size="0.007502" fill="hsl(180.0,100%,20%)">pennymac</text>
<text x="0.646" y="0.033" font-size="0.004331" fill="hsl(180.0,100%,20%)">mmoroz</text>
<text x="1.444" y="0.638" font-size="0.008663" fill="hsl(180.0,100%,20%)">peterhanspers</text>
<text x="0.981" y="0.757" font-size="0.008663" fill="hsl(180.0,100%,20%)">vadimsh</text>
<text x="0.804" y="1.004" font-size="0.006126" fill="hsl(180.0,100%,20%)">tandrii</text>
<text x="1.101" y="1.011" font-size="0.009685" fill="hsl(180.0,100%,20%)">raphael.kubo.da.costa</text>
<text x="0.737" y="0.179" font-size="0.011460" fill="hsl(0.0,100%,20%)">ribalda</text>
<text x="1.176" y="0.778" font-size="0.012251" fill="hsl(180.0,100%,20%)">rjascani</text>
<text x="1.100" y="0.603" font-size="0.012251" fill="hsl(0.0,100%,20%)">rsesek</text>
<text x="1.223" y="0.494" font-size="0.007502" fill="hsl(180.0,100%,20%)">samogot</text>
<text x="1.356" y="0.775" font-size="0.008663" fill="hsl(180.0,100%,20%)">sbaig1</text>
<text x="1.199" y="0.610" font-size="0.006126" fill="hsl(0.0,100%,20%)">justincohen</text>
<text x="1.602" y="0.738" font-size="0.004331" fill="hsl(0.0,100%,20%)">noyau</text>
<text x="1.467" y="1.006" font-size="0.012994" fill="hsl(180.0,100%,20%)">shayba</text>
<text x="1.295" y="0.117" font-size="0.007502" fill="hsl(180.0,100%,20%)">skyostil</text>
<text x="1.202" y="0.268" font-size="0.006126" fill="hsl(180.0,100%,20%)">primiano</text>
<text x="1.199" y="0.152" font-size="0.004331" fill="hsl(180.0,100%,20%)">tdresser</text>
<text x="1.936" y="0.832" font-size="0.006126" fill="hsl(180.0,100%,20%)">xunjieli</text>
<text x="0.721" y="0.148" font-size="0.012251" fill="hsl(0.0,100%,20%)">thestig</text>
<text x="1.848" y="0.465" font-size="0.004331" fill="hsl(180.0,100%,20%)">fdoray</text>
<text x="0.734" y="0.186" font-size="0.006126" fill="hsl(0.0,100%,20%)">philwo</text>
<text x="0.344" y="0.272" font-size="0.004331" fill="hsl(0.0,100%,20%)">msta</text>
<text x="1.383" y="0.371" font-size="0.008663" fill="hsl(180.0,100%,20%)">tmoniuszko</text>
<text x="1.054" y="0.742" font-size="0.008663" fill="hsl(180.0,100%,20%)">tsniatowski</text>
<text x="1.866" y="0.164" font-size="0.013697" fill="hsl(180.0,100%,20%)">vtsyrklevich</text>
<text x="1.825" y="0.803" font-size="0.007502" fill="hsl(180.0,100%,20%)">wangqing-hf</text>
<text x="0.418" y="0.350" font-size="0.010610" fill="hsl(0.0,100%,20%)">yuje</text>
</svg>
