<svg width="4000" height="2000" viewBox="-0.025 -0.025 2.05 1.05" xmlns="http://www.w3.org/2000/svg">
  <style>
    path {
      fill: none;
      stroke-linecap: round;
      stroke-opacity: 0.4;
    }

    text {
      text-anchor: middle;
      alignment-baseline: hanging;
    }
  </style>
  <g opacity="0.4">
<path d="M0.818 0.121 Q0.045 0.233 0.092 0.635" stroke="hsl(0.0,100%,35%)" stroke-width="0.00091"></path>
<path d="M0.818 0.121 Q1.278 0.330 1.786 0.151" stroke="hsl(0.0,100%,35%)" stroke-width="0.00453"></path>
<path d="M0.818 0.121 Q0.482 0.530 1.207 0.784" stroke="hsl(0.0,100%,35%)" stroke-width="0.00635"></path>
<path d="M0.818 0.121 Q0.948 0.146 1.024 0.088" stroke="hsl(0.0,100%,35%)" stroke-width="0.00091"></path>
<path d="M0.818 0.121 Q0.697 0.200 0.823 0.276" stroke="hsl(0.0,100%,35%)" stroke-width="0.00725"></path>
<path d="M0.818 0.121 Q1.131 0.426 1.795 0.341" stroke="hsl(0.0,100%,35%)" stroke-width="0.00091"></path>
<path d="M0.818 0.121 Q1.128 0.313 1.570 0.204" stroke="hsl(0.0,100%,35%)" stroke-width="0.00181"></path>
<path d="M0.818 0.121 Q0.398 0.579 1.199 0.884" stroke="hsl(0.0,100%,35%)" stroke-width="0.00453"></path>
<path d="M0.818 0.121 Q0.690 0.092 0.605 0.148" stroke="hsl(0.0,100%,35%)" stroke-width="0.00091"></path>
<path d="M0.818 0.121 Q0.828 0.196 0.977 0.208" stroke="hsl(0.0,100%,35%)" stroke-width="0.00272"></path>
<path d="M0.092 0.635 Q0.530 0.932 1.207 0.784" stroke="hsl(0.0,100%,35%)" stroke-width="0.00997"></path>
<path d="M0.092 0.635 Q0.446 0.981 1.199 0.884" stroke="hsl(0.0,100%,35%)" stroke-width="0.00363"></path>
<path d="M0.092 0.635 Q0.340 0.590 0.307 0.459" stroke="hsl(0.0,100%,35%)" stroke-width="0.00181"></path>
<path d="M0.092 0.635 Q1.179 0.828 1.795 0.341" stroke="hsl(0.0,100%,35%)" stroke-width="0.00181"></path>
<path d="M0.092 0.635 Q0.071 0.690 0.175 0.713" stroke="hsl(0.0,100%,35%)" stroke-width="0.00091"></path>
<path d="M0.092 0.635 Q0.204 0.692 0.341 0.650" stroke="hsl(0.0,100%,35%)" stroke-width="0.00091"></path>
<path d="M0.092 0.635 Q1.176 0.715 1.570 0.204" stroke="hsl(0.0,100%,35%)" stroke-width="0.00363"></path>
<path d="M0.092 0.635 Q0.385 0.917 1.000 0.837" stroke="hsl(0.0,100%,35%)" stroke-width="0.00091"></path>
<path d="M0.092 0.635 Q0.766 0.967 1.562 0.711" stroke="hsl(0.0,100%,35%)" stroke-width="0.00091"></path>
<path d="M0.092 0.635 Q1.326 0.732 1.786 0.151" stroke="hsl(0.0,100%,35%)" stroke-width="0.00453"></path>
<path d="M1.786 0.151 Q0.552 0.054 0.092 0.635" stroke="hsl(0.0,100%,35%)" stroke-width="0.00907"></path>
<path d="M1.786 0.151 Q1.639 0.248 1.795 0.341" stroke="hsl(0.0,100%,35%)" stroke-width="0.01088"></path>
<path d="M1.786 0.151 Q0.990 0.352 1.207 0.784" stroke="hsl(0.0,100%,35%)" stroke-width="0.01450"></path>
<path d="M1.786 0.151 Q0.906 0.401 1.199 0.884" stroke="hsl(0.0,100%,35%)" stroke-width="0.01450"></path>
<path d="M1.786 0.151 Q1.636 0.134 1.570 0.204" stroke="hsl(0.0,100%,35%)" stroke-width="0.02266"></path>
<path d="M1.786 0.151 Q0.845 0.337 1.000 0.837" stroke="hsl(0.0,100%,35%)" stroke-width="0.00091"></path>
<path d="M1.786 0.151 Q1.682 0.181 1.718 0.239" stroke="hsl(0.0,100%,35%)" stroke-width="0.00181"></path>
<path d="M1.786 0.151 Q1.786 0.085 1.657 0.070" stroke="hsl(0.0,100%,35%)" stroke-width="0.00091"></path>
<path d="M1.786 0.151 Q1.226 0.387 1.562 0.711" stroke="hsl(0.0,100%,35%)" stroke-width="0.00091"></path>
<path d="M1.207 0.784 Q2.003 0.584 1.786 0.151" stroke="hsl(0.0,100%,35%)" stroke-width="0.00635"></path>
<path d="M1.207 0.784 Q1.123 0.833 1.199 0.884" stroke="hsl(0.0,100%,35%)" stroke-width="0.00363"></path>
<path d="M1.207 0.784 Q1.443 0.819 1.562 0.711" stroke="hsl(0.0,100%,35%)" stroke-width="0.00363"></path>
<path d="M1.207 0.784 Q1.853 0.567 1.570 0.204" stroke="hsl(0.0,100%,35%)" stroke-width="0.00181"></path>
<path d="M1.207 0.784 Q0.769 0.486 0.092 0.635" stroke="hsl(0.0,100%,35%)" stroke-width="0.00907"></path>
<path d="M1.207 0.784 Q1.062 0.769 1.000 0.837" stroke="hsl(0.0,100%,35%)" stroke-width="0.01632"></path>
<path d="M1.207 0.784 Q1.856 0.680 1.795 0.341" stroke="hsl(0.0,100%,35%)" stroke-width="0.00091"></path>
<path d="M1.207 0.784 Q0.962 0.399 0.157 0.433" stroke="hsl(0.0,100%,35%)" stroke-width="0.00091"></path>
<path d="M1.207 0.784 Q1.336 0.762 1.321 0.694" stroke="hsl(0.0,100%,35%)" stroke-width="0.00272"></path>
<path d="M1.207 0.784 Q1.803 0.462 1.306 0.101" stroke="hsl(0.0,100%,35%)" stroke-width="0.00091"></path>
<path d="M1.207 0.784 Q0.648 0.683 0.328 0.934" stroke="hsl(0.0,100%,35%)" stroke-width="0.00181"></path>
<path d="M1.207 0.784 Q1.442 0.742 1.412 0.618" stroke="hsl(0.0,100%,35%)" stroke-width="0.00181"></path>
<path d="M1.207 0.784 Q1.358 0.726 1.278 0.640" stroke="hsl(0.0,100%,35%)" stroke-width="0.00091"></path>
<path d="M1.207 0.784 Q1.044 0.658 0.762 0.710" stroke="hsl(0.0,100%,35%)" stroke-width="0.00091"></path>
<path d="M0.823 0.276 Q0.608 0.607 1.207 0.784" stroke="hsl(0.0,100%,35%)" stroke-width="0.00091"></path>
<path d="M0.823 0.276 Q0.954 0.273 0.977 0.208" stroke="hsl(0.0,100%,35%)" stroke-width="0.00091"></path>
<path d="M0.823 0.276 Q0.524 0.656 1.199 0.884" stroke="hsl(0.0,100%,35%)" stroke-width="0.00181"></path>
<path d="M0.823 0.276 Q1.404 0.406 1.786 0.151" stroke="hsl(0.0,100%,35%)" stroke-width="0.00181"></path>
<path d="M1.795 0.341 Q1.792 0.227 1.570 0.204" stroke="hsl(0.0,100%,35%)" stroke-width="0.00816"></path>
<path d="M1.795 0.341 Q1.942 0.244 1.786 0.151" stroke="hsl(0.0,100%,35%)" stroke-width="0.01088"></path>
<path d="M1.795 0.341 Q1.146 0.445 1.207 0.784" stroke="hsl(0.0,100%,35%)" stroke-width="0.04895"></path>
<path d="M1.795 0.341 Q1.724 0.424 1.870 0.477" stroke="hsl(0.0,100%,35%)" stroke-width="0.00181"></path>
<path d="M1.795 0.341 Q1.062 0.493 1.199 0.884" stroke="hsl(0.0,100%,35%)" stroke-width="0.00363"></path>
<path d="M1.795 0.341 Q1.382 0.479 1.562 0.711" stroke="hsl(0.0,100%,35%)" stroke-width="0.00544"></path>
<path d="M1.795 0.341 Q0.708 0.147 0.092 0.635" stroke="hsl(0.0,100%,35%)" stroke-width="0.00091"></path>
<path d="M1.795 0.341 Q1.558 0.336 1.496 0.450" stroke="hsl(0.0,100%,35%)" stroke-width="0.00272"></path>
<path d="M1.795 0.341 Q1.627 0.398 1.702 0.492" stroke="hsl(0.0,100%,35%)" stroke-width="0.00091"></path>
<path d="M1.570 0.204 Q0.486 0.124 0.092 0.635" stroke="hsl(0.0,100%,35%)" stroke-width="0.00544"></path>
<path d="M1.570 0.204 Q1.720 0.221 1.786 0.151" stroke="hsl(0.0,100%,35%)" stroke-width="0.02901"></path>
<path d="M1.570 0.204 Q0.924 0.421 1.207 0.784" stroke="hsl(0.0,100%,35%)" stroke-width="0.03264"></path>
<path d="M1.570 0.204 Q1.573 0.317 1.795 0.341" stroke="hsl(0.0,100%,35%)" stroke-width="0.01541"></path>
<path d="M1.570 0.204 Q0.840 0.470 1.199 0.884" stroke="hsl(0.0,100%,35%)" stroke-width="0.00997"></path>
<path d="M1.570 0.204 Q1.100 0.325 1.234 0.581" stroke="hsl(0.0,100%,35%)" stroke-width="0.00181"></path>
<path d="M1.570 0.204 Q1.160 0.456 1.562 0.711" stroke="hsl(0.0,100%,35%)" stroke-width="0.00181"></path>
<path d="M1.570 0.204 Q0.779 0.406 1.000 0.837" stroke="hsl(0.0,100%,35%)" stroke-width="0.00725"></path>
<path d="M1.570 0.204 Q1.270 0.087 0.977 0.208" stroke="hsl(0.0,100%,35%)" stroke-width="0.00091"></path>
<path d="M1.199 0.884 Q1.283 0.836 1.207 0.784" stroke="hsl(0.0,100%,35%)" stroke-width="0.03264"></path>
<path d="M1.199 0.884 Q0.846 0.538 0.092 0.635" stroke="hsl(0.0,100%,35%)" stroke-width="0.00816"></path>
<path d="M1.199 0.884 Q1.138 0.821 1.000 0.837" stroke="hsl(0.0,100%,35%)" stroke-width="0.02538"></path>
<path d="M1.199 0.884 Q2.079 0.635 1.786 0.151" stroke="hsl(0.0,100%,35%)" stroke-width="0.00091"></path>
<path d="M1.199 0.884 Q1.932 0.732 1.795 0.341" stroke="hsl(0.0,100%,35%)" stroke-width="0.00091"></path>
<path d="M1.199 0.884 Q1.094 0.493 0.307 0.459" stroke="hsl(0.0,100%,35%)" stroke-width="0.00091"></path>
<path d="M1.199 0.884 Q1.519 0.871 1.562 0.711" stroke="hsl(0.0,100%,35%)" stroke-width="0.00091"></path>
<path d="M1.199 0.884 Q1.413 0.813 1.321 0.694" stroke="hsl(0.0,100%,35%)" stroke-width="0.00272"></path>
<path d="M1.199 0.884 Q1.879 0.514 1.306 0.101" stroke="hsl(0.0,100%,35%)" stroke-width="0.00091"></path>
<path d="M1.199 0.884 Q1.039 0.450 0.157 0.433" stroke="hsl(0.0,100%,35%)" stroke-width="0.00091"></path>
<path d="M1.199 0.884 Q1.277 0.922 1.367 0.891" stroke="hsl(0.0,100%,35%)" stroke-width="0.00363"></path>
<path d="M1.199 0.884 Q1.355 0.965 1.545 0.906" stroke="hsl(0.0,100%,35%)" stroke-width="0.00181"></path>
<path d="M0.605 0.148 Q0.313 0.635 1.199 0.884" stroke="hsl(0.0,100%,35%)" stroke-width="0.00181"></path>
<path d="M0.605 0.148 Q0.733 0.178 0.818 0.121" stroke="hsl(0.0,100%,35%)" stroke-width="0.00091"></path>
<path d="M0.605 0.148 Q0.611 0.256 0.823 0.276" stroke="hsl(0.0,100%,35%)" stroke-width="0.00091"></path>
<path d="M1.482 0.887 Q2.222 0.580 1.786 0.151" stroke="hsl(0.0,100%,35%)" stroke-width="0.00091"></path>
<path d="M1.482 0.887 Q1.640 0.450 0.823 0.276" stroke="hsl(0.0,100%,35%)" stroke-width="0.00181"></path>
<path d="M1.482 0.887 Q1.426 0.780 1.207 0.784" stroke="hsl(0.0,100%,35%)" stroke-width="0.00907"></path>
<path d="M1.482 0.887 Q1.342 0.829 1.199 0.884" stroke="hsl(0.0,100%,35%)" stroke-width="0.00544"></path>
<path d="M1.657 0.070 Q0.861 0.337 1.207 0.784" stroke="hsl(0.0,100%,35%)" stroke-width="0.00453"></path>
<path d="M1.657 0.070 Q0.423 0.039 0.092 0.635" stroke="hsl(0.0,100%,35%)" stroke-width="0.00272"></path>
<path d="M1.657 0.070 Q1.457 0.015 1.306 0.101" stroke="hsl(0.0,100%,35%)" stroke-width="0.00181"></path>
<path d="M1.657 0.070 Q1.507 0.120 1.570 0.204" stroke="hsl(0.0,100%,35%)" stroke-width="0.00635"></path>
<path d="M1.657 0.070 Q1.657 0.137 1.786 0.151" stroke="hsl(0.0,100%,35%)" stroke-width="0.00272"></path>
<path d="M1.306 0.101 Q0.625 0.471 1.199 0.884" stroke="hsl(0.0,100%,35%)" stroke-width="0.00181"></path>
<path d="M1.306 0.101 Q1.505 0.222 1.786 0.151" stroke="hsl(0.0,100%,35%)" stroke-width="0.00091"></path>
<path d="M1.306 0.101 Q0.564 0.408 1.000 0.837" stroke="hsl(0.0,100%,35%)" stroke-width="0.00091"></path>
<path d="M1.435 0.669 Q1.228 0.681 1.207 0.784" stroke="hsl(0.0,100%,35%)" stroke-width="0.00181"></path>
<path d="M1.435 0.669 Q1.877 0.577 1.795 0.341" stroke="hsl(0.0,100%,35%)" stroke-width="0.00091"></path>
<path d="M1.435 0.669 Q1.824 0.359 1.306 0.101" stroke="hsl(0.0,100%,35%)" stroke-width="0.00091"></path>
<path d="M1.435 0.669 Q1.144 0.729 1.199 0.884" stroke="hsl(0.0,100%,35%)" stroke-width="0.00091"></path>
<path d="M1.435 0.669 Q2.024 0.480 1.786 0.151" stroke="hsl(0.0,100%,35%)" stroke-width="0.00091"></path>
<path d="M1.385 0.236 Q0.420 0.177 0.092 0.635" stroke="hsl(0.0,100%,35%)" stroke-width="0.00091"></path>
<path d="M1.385 0.236 Q1.653 0.274 1.786 0.151" stroke="hsl(0.0,100%,35%)" stroke-width="0.00181"></path>
<path d="M1.385 0.236 Q0.858 0.474 1.207 0.784" stroke="hsl(0.0,100%,35%)" stroke-width="0.00091"></path>
<path d="M1.385 0.236 Q1.503 0.257 1.570 0.204" stroke="hsl(0.0,100%,35%)" stroke-width="0.00091"></path>
<path d="M1.560 0.304 Q1.648 0.369 1.795 0.341" stroke="hsl(0.0,100%,35%)" stroke-width="0.00091"></path>
<path d="M1.560 0.304 Q1.795 0.273 1.786 0.151" stroke="hsl(0.0,100%,35%)" stroke-width="0.00181"></path>
<path d="M1.560 0.304 Q0.562 0.176 0.092 0.635" stroke="hsl(0.0,100%,35%)" stroke-width="0.00091"></path>
<path d="M1.562 0.711 Q2.122 0.476 1.786 0.151" stroke="hsl(0.0,100%,35%)" stroke-width="0.00181"></path>
<path d="M1.562 0.711 Q1.326 0.677 1.207 0.784" stroke="hsl(0.0,100%,35%)" stroke-width="0.02720"></path>
<path d="M1.562 0.711 Q1.975 0.573 1.795 0.341" stroke="hsl(0.0,100%,35%)" stroke-width="0.00091"></path>
<path d="M1.562 0.711 Q0.889 0.379 0.092 0.635" stroke="hsl(0.0,100%,35%)" stroke-width="0.00363"></path>
<path d="M1.562 0.711 Q1.181 0.662 1.000 0.837" stroke="hsl(0.0,100%,35%)" stroke-width="0.01360"></path>
<path d="M1.562 0.711 Q1.242 0.725 1.199 0.884" stroke="hsl(0.0,100%,35%)" stroke-width="0.00181"></path>
<path d="M1.000 0.837 Q1.145 0.852 1.207 0.784" stroke="hsl(0.0,100%,35%)" stroke-width="0.06980"></path>
<path d="M1.000 0.837 Q1.061 0.900 1.199 0.884" stroke="hsl(0.0,100%,35%)" stroke-width="0.01360"></path>
<path d="M1.000 0.837 Q0.708 0.554 0.092 0.635" stroke="hsl(0.0,100%,35%)" stroke-width="0.00907"></path>
<path d="M1.000 0.837 Q1.381 0.886 1.562 0.711" stroke="hsl(0.0,100%,35%)" stroke-width="0.00816"></path>
<path d="M0.157 0.433 Q0.401 0.819 1.207 0.784" stroke="hsl(0.0,100%,35%)" stroke-width="0.00907"></path>
<path d="M0.157 0.433 Q0.637 0.853 1.562 0.711" stroke="hsl(0.0,100%,35%)" stroke-width="0.00091"></path>
<path d="M0.157 0.433 Q-0.037 0.521 0.092 0.635" stroke="hsl(0.0,100%,35%)" stroke-width="0.01632"></path>
<path d="M0.157 0.433 Q0.271 0.484 0.396 0.440" stroke="hsl(0.0,100%,35%)" stroke-width="0.00091"></path>
<path d="M0.157 0.433 Q1.245 0.678 1.962 0.201" stroke="hsl(0.0,100%,35%)" stroke-width="0.00091"></path>
<path d="M1.321 0.694 Q1.191 0.716 1.207 0.784" stroke="hsl(0.0,100%,35%)" stroke-width="0.04079"></path>
<path d="M1.321 0.694 Q1.107 0.765 1.199 0.884" stroke="hsl(0.0,100%,35%)" stroke-width="0.00181"></path>
<path d="M1.321 0.694 Q1.046 0.701 1.000 0.837" stroke="hsl(0.0,100%,35%)" stroke-width="0.00453"></path>
<path d="M1.321 0.694 Q0.947 0.331 0.157 0.433" stroke="hsl(0.0,100%,35%)" stroke-width="0.00091"></path>
<path d="M1.321 0.694 Q0.754 0.418 0.092 0.635" stroke="hsl(0.0,100%,35%)" stroke-width="0.00272"></path>
<path d="M1.321 0.694 Q1.788 0.394 1.306 0.101" stroke="hsl(0.0,100%,35%)" stroke-width="0.00091"></path>
<path d="M0.762 0.710 Q0.925 0.836 1.207 0.784" stroke="hsl(0.0,100%,35%)" stroke-width="0.00363"></path>
<path d="M0.762 0.710 Q0.487 0.538 0.092 0.635" stroke="hsl(0.0,100%,35%)" stroke-width="0.00363"></path>
<path d="M0.762 0.710 Q1.161 0.871 1.562 0.711" stroke="hsl(0.0,100%,35%)" stroke-width="0.00181"></path>
<path d="M0.762 0.710 Q0.366 0.735 0.328 0.934" stroke="hsl(0.0,100%,35%)" stroke-width="0.00091"></path>
<path d="M0.762 0.710 Q0.909 0.692 0.906 0.616" stroke="hsl(0.0,100%,35%)" stroke-width="0.00091"></path>
<path d="M0.762 0.710 Q0.863 0.732 0.928 0.688" stroke="hsl(0.0,100%,35%)" stroke-width="0.00091"></path>
<path d="M0.762 0.710 Q0.857 0.343 0.162 0.216" stroke="hsl(0.0,100%,35%)" stroke-width="0.00091"></path>
<path d="M0.762 0.710 Q0.780 0.821 1.000 0.837" stroke="hsl(0.0,100%,35%)" stroke-width="0.00091"></path>
<path d="M0.762 0.710 Q1.574 0.732 1.795 0.341" stroke="hsl(0.0,100%,35%)" stroke-width="0.00091"></path>
<path d="M0.762 0.710 Q1.721 0.635 1.786 0.151" stroke="hsl(0.0,100%,35%)" stroke-width="0.00091"></path>
<path d="M0.224 0.629 Q0.591 0.903 1.207 0.784" stroke="hsl(0.0,100%,35%)" stroke-width="0.00091"></path>
<path d="M0.224 0.629 Q0.154 0.606 0.092 0.635" stroke="hsl(0.0,100%,35%)" stroke-width="0.00091"></path>
<path d="M1.234 0.581 Q1.057 0.677 1.207 0.784" stroke="hsl(0.0,100%,35%)" stroke-width="0.00635"></path>
<path d="M1.234 0.581 Q1.853 0.476 1.786 0.151" stroke="hsl(0.0,100%,35%)" stroke-width="0.00453"></path>
<path d="M1.234 0.581 Q1.703 0.460 1.570 0.204" stroke="hsl(0.0,100%,35%)" stroke-width="0.00363"></path>
<path d="M1.234 0.581 Q1.272 0.346 0.823 0.276" stroke="hsl(0.0,100%,35%)" stroke-width="0.00363"></path>
<path d="M0.578 0.939 Q0.579 0.690 0.092 0.635" stroke="hsl(0.0,100%,35%)" stroke-width="0.00091"></path>
<path d="M0.578 0.939 Q0.457 0.886 0.328 0.934" stroke="hsl(0.0,100%,35%)" stroke-width="0.00181"></path>
<path d="M0.578 0.939 Q0.706 0.937 0.729 0.873" stroke="hsl(0.0,100%,35%)" stroke-width="0.00181"></path>
<path d="M0.578 0.939 Q0.666 0.999 0.802 0.970" stroke="hsl(0.0,100%,35%)" stroke-width="0.00091"></path>
<path d="M0.729 0.873 Q0.480 0.823 0.328 0.934" stroke="hsl(0.0,100%,35%)" stroke-width="0.00181"></path>
<path d="M0.729 0.873 Q0.664 0.838 0.580 0.862" stroke="hsl(0.0,100%,35%)" stroke-width="0.00181"></path>
<path d="M0.729 0.873 Q0.602 0.627 0.092 0.635" stroke="hsl(0.0,100%,35%)" stroke-width="0.00091"></path>
<path d="M0.729 0.873 Q1.171 0.726 0.981 0.478" stroke="hsl(0.0,100%,35%)" stroke-width="0.00091"></path>
<path d="M1.033 0.612 Q0.982 0.733 1.207 0.784" stroke="hsl(0.0,100%,35%)" stroke-width="0.00363"></path>
<path d="M1.033 0.612 Q1.112 0.710 1.321 0.694" stroke="hsl(0.0,100%,35%)" stroke-width="0.00181"></path>
<path d="M1.033 0.612 Q0.837 0.718 1.000 0.837" stroke="hsl(0.0,100%,35%)" stroke-width="0.00091"></path>
<path d="M1.367 0.662 Q1.190 0.691 1.207 0.784" stroke="hsl(0.0,100%,35%)" stroke-width="0.00363"></path>
<path d="M1.367 0.662 Q0.752 0.393 0.092 0.635" stroke="hsl(0.0,100%,35%)" stroke-width="0.00091"></path>
<path d="M1.367 0.662 Q1.044 0.676 1.000 0.837" stroke="hsl(0.0,100%,35%)" stroke-width="0.00091"></path>
<path d="M1.592 0.578 Q1.575 0.538 1.492 0.537" stroke="hsl(0.0,100%,35%)" stroke-width="0.00091"></path>
<path d="M1.592 0.578 Q1.411 0.508 1.234 0.581" stroke="hsl(0.0,100%,35%)" stroke-width="0.00091"></path>
<path d="M1.592 0.578 Q1.637 0.660 1.805 0.656" stroke="hsl(0.0,100%,35%)" stroke-width="0.00091"></path>
<path d="M1.671 0.089 Q1.529 0.126 1.570 0.204" stroke="hsl(0.0,100%,35%)" stroke-width="0.00272"></path>
<path d="M1.671 0.089 Q1.532 0.240 1.795 0.341" stroke="hsl(0.0,100%,35%)" stroke-width="0.00272"></path>
<path d="M1.671 0.089 Q1.678 0.143 1.786 0.151" stroke="hsl(0.0,100%,35%)" stroke-width="0.00091"></path>
<path d="M1.033 0.780 Q1.117 0.817 1.207 0.784" stroke="hsl(0.0,100%,35%)" stroke-width="0.00363"></path>
<path d="M1.033 0.780 Q0.972 0.802 1.000 0.837" stroke="hsl(0.0,100%,35%)" stroke-width="0.00363"></path>
<path d="M1.033 0.780 Q0.679 0.519 0.092 0.635" stroke="hsl(0.0,100%,35%)" stroke-width="0.00272"></path>
<path d="M0.210 0.871 Q0.340 0.729 0.092 0.635" stroke="hsl(0.0,100%,35%)" stroke-width="0.00091"></path>
<path d="M0.210 0.871 Q0.717 0.741 0.574 0.465" stroke="hsl(0.0,100%,35%)" stroke-width="0.00091"></path>
<path d="M0.210 0.871 Q0.219 0.802 0.087 0.783" stroke="hsl(0.0,100%,35%)" stroke-width="0.00091"></path>
<path d="M0.210 0.871 Q0.281 0.887 0.327 0.856" stroke="hsl(0.0,100%,35%)" stroke-width="0.00091"></path>
<path d="M1.760 0.592 Q1.785 0.644 1.893 0.644" stroke="hsl(0.0,100%,35%)" stroke-width="0.00272"></path>
<path d="M1.760 0.592 Q2.125 0.310 1.657 0.070" stroke="hsl(0.0,100%,35%)" stroke-width="0.00181"></path>
<path d="M1.760 0.592 Q1.856 0.604 1.902 0.560" stroke="hsl(0.0,100%,35%)" stroke-width="0.00181"></path>
<path d="M1.284 0.915 Q1.350 0.834 1.207 0.784" stroke="hsl(0.0,100%,35%)" stroke-width="0.00453"></path>
<path d="M1.284 0.915 Q1.996 0.616 1.570 0.204" stroke="hsl(0.0,100%,35%)" stroke-width="0.00091"></path>
<path d="M1.284 0.915 Q1.999 0.730 1.795 0.341" stroke="hsl(0.0,100%,35%)" stroke-width="0.00091"></path>
<path d="M1.284 0.915 Q2.145 0.633 1.786 0.151" stroke="hsl(0.0,100%,35%)" stroke-width="0.00091"></path>
<path d="M0.217 0.130 Q0.121 0.162 0.162 0.216" stroke="hsl(0.0,100%,35%)" stroke-width="0.00091"></path>
<path d="M0.217 0.130 Q0.152 0.119 0.116 0.148" stroke="hsl(0.0,100%,35%)" stroke-width="0.00091"></path>
<path d="M0.217 0.130 Q0.044 0.640 1.000 0.837" stroke="hsl(0.0,100%,35%)" stroke-width="0.00091"></path>
<path d="M0.321 0.283 Q0.363 0.711 1.207 0.784" stroke="hsl(0.0,100%,35%)" stroke-width="0.00091"></path>
<path d="M0.321 0.283 Q-0.074 0.413 0.092 0.635" stroke="hsl(0.0,100%,35%)" stroke-width="0.00091"></path>
<path d="M0.321 0.283 Q0.494 0.250 0.466 0.158" stroke="hsl(0.0,100%,35%)" stroke-width="0.00091"></path>
<path d="M0.321 0.283 Q0.222 0.419 0.466 0.497" stroke="hsl(0.0,100%,35%)" stroke-width="0.00091"></path>
<path d="M0.321 0.283 Q0.413 0.252 0.373 0.201" stroke="hsl(0.0,100%,35%)" stroke-width="0.00091"></path>
<path d="M0.321 0.283 Q0.419 0.336 0.543 0.300" stroke="hsl(0.0,100%,35%)" stroke-width="0.00091"></path>
<path d="M0.321 0.283 Q0.237 0.282 0.217 0.323" stroke="hsl(0.0,100%,35%)" stroke-width="0.00091"></path>
<path d="M0.499 0.589 Q0.259 0.530 0.092 0.635" stroke="hsl(0.0,100%,35%)" stroke-width="0.00181"></path>
<path d="M0.499 0.589 Q0.697 0.828 1.207 0.784" stroke="hsl(0.0,100%,35%)" stroke-width="0.00091"></path>
<path d="M0.499 0.589 Q0.613 0.876 1.199 0.884" stroke="hsl(0.0,100%,35%)" stroke-width="0.00091"></path>
<path d="M0.499 0.589 Q1.492 0.627 1.786 0.151" stroke="hsl(0.0,100%,35%)" stroke-width="0.00181"></path>
<path d="M0.546 0.694 Q0.366 0.573 0.092 0.635" stroke="hsl(0.0,100%,35%)" stroke-width="0.00091"></path>
<path d="M0.546 0.694 Q0.580 0.683 0.567 0.665" stroke="hsl(0.0,100%,35%)" stroke-width="0.00091"></path>
<path d="M0.546 0.694 Q1.040 0.906 1.562 0.711" stroke="hsl(0.0,100%,35%)" stroke-width="0.00091"></path>
<path d="M1.727 0.418 Q1.823 0.393 1.795 0.341" stroke="hsl(0.0,100%,35%)" stroke-width="0.00181"></path>
<path d="M1.727 0.418 Q0.736 0.200 0.092 0.635" stroke="hsl(0.0,100%,35%)" stroke-width="0.00091"></path>
<path d="M1.727 0.418 Q0.715 0.255 0.175 0.713" stroke="hsl(0.0,100%,35%)" stroke-width="0.00091"></path>
<path d="M1.666 0.971 Q1.586 0.785 1.207 0.784" stroke="hsl(0.0,100%,35%)" stroke-width="0.00181"></path>
<path d="M1.666 0.971 Q1.822 0.820 1.562 0.711" stroke="hsl(0.0,100%,35%)" stroke-width="0.00091"></path>
<path d="M1.666 0.971 Q1.502 0.834 1.199 0.884" stroke="hsl(0.0,100%,35%)" stroke-width="0.00181"></path>
<path d="M1.615 0.263 Q1.230 0.476 1.562 0.711" stroke="hsl(0.0,100%,35%)" stroke-width="0.00091"></path>
<path d="M1.615 0.263 Q0.849 0.427 1.000 0.837" stroke="hsl(0.0,100%,35%)" stroke-width="0.00091"></path>
<path d="M1.615 0.263 Q1.643 0.337 1.795 0.341" stroke="hsl(0.0,100%,35%)" stroke-width="0.00091"></path>
<path d="M1.615 0.263 Q1.790 0.241 1.786 0.151" stroke="hsl(0.0,100%,35%)" stroke-width="0.00272"></path>
<path d="M1.615 0.263 Q0.556 0.144 0.092 0.635" stroke="hsl(0.0,100%,35%)" stroke-width="0.00091"></path>
<path d="M1.046 0.669 Q1.034 0.759 1.207 0.784" stroke="hsl(0.0,100%,35%)" stroke-width="0.00544"></path>
<path d="M1.046 0.669 Q0.596 0.461 0.092 0.635" stroke="hsl(0.0,100%,35%)" stroke-width="0.00091"></path>
<path d="M1.046 0.669 Q0.950 0.807 1.199 0.884" stroke="hsl(0.0,100%,35%)" stroke-width="0.00091"></path>
<path d="M1.496 0.450 Q0.647 0.262 0.092 0.635" stroke="hsl(0.0,100%,35%)" stroke-width="0.00091"></path>
<path d="M1.496 0.450 Q1.085 0.559 1.207 0.784" stroke="hsl(0.0,100%,35%)" stroke-width="0.00091"></path>
<path d="M1.496 0.450 Q1.733 0.455 1.795 0.341" stroke="hsl(0.0,100%,35%)" stroke-width="0.00091"></path>
<path d="M1.496 0.450 Q0.940 0.544 1.000 0.837" stroke="hsl(0.0,100%,35%)" stroke-width="0.00091"></path>
<path d="M1.496 0.450 Q1.321 0.594 1.562 0.711" stroke="hsl(0.0,100%,35%)" stroke-width="0.00091"></path>
<path d="M0.776 0.599 Q0.843 0.778 1.207 0.784" stroke="hsl(0.0,100%,35%)" stroke-width="0.00091"></path>
<path d="M0.776 0.599 Q0.680 0.652 0.762 0.710" stroke="hsl(0.0,100%,35%)" stroke-width="0.00091"></path>
<path d="M0.776 0.599 Q0.406 0.480 0.092 0.635" stroke="hsl(0.0,100%,35%)" stroke-width="0.00091"></path>
<path d="M1.555 0.781 Q1.379 0.713 1.207 0.784" stroke="hsl(0.0,100%,35%)" stroke-width="0.00363"></path>
<path d="M1.555 0.781 Q2.024 0.495 1.570 0.204" stroke="hsl(0.0,100%,35%)" stroke-width="0.00091"></path>
<path d="M1.555 0.781 Q1.295 0.761 1.199 0.884" stroke="hsl(0.0,100%,35%)" stroke-width="0.00181"></path>
<path d="M1.555 0.781 Q1.233 0.698 1.000 0.837" stroke="hsl(0.0,100%,35%)" stroke-width="0.00091"></path>
<path d="M0.653 0.390 Q0.474 0.407 0.466 0.497" stroke="hsl(0.0,100%,35%)" stroke-width="0.00091"></path>
<path d="M0.653 0.390 Q0.747 0.500 0.981 0.478" stroke="hsl(0.0,100%,35%)" stroke-width="0.00091"></path>
<path d="M0.653 0.390 Q0.589 0.335 0.467 0.354" stroke="hsl(0.0,100%,35%)" stroke-width="0.00091"></path>
<path d="M1.962 0.201 Q1.118 0.342 1.207 0.784" stroke="hsl(0.0,100%,35%)" stroke-width="0.00091"></path>
<path d="M1.962 0.201 Q0.680 0.044 0.092 0.635" stroke="hsl(0.0,100%,35%)" stroke-width="0.00181"></path>
<path d="M1.962 0.201 Q1.914 0.141 1.786 0.151" stroke="hsl(0.0,100%,35%)" stroke-width="0.00363"></path>
<path d="M0.832 0.622 Q0.727 0.652 0.762 0.710" stroke="hsl(0.0,100%,35%)" stroke-width="0.00091"></path>
<path d="M0.832 0.622 Q0.452 0.480 0.092 0.635" stroke="hsl(0.0,100%,35%)" stroke-width="0.00091"></path>
<path d="M0.832 0.622 Q1.536 0.560 1.570 0.204" stroke="hsl(0.0,100%,35%)" stroke-width="0.00091"></path>
<path d="M0.832 0.622 Q1.686 0.577 1.786 0.151" stroke="hsl(0.0,100%,35%)" stroke-width="0.00091"></path>
<path d="M1.466 0.920 Q1.361 0.849 1.199 0.884" stroke="hsl(0.0,100%,35%)" stroke-width="0.00091"></path>
<path d="M1.466 0.920 Q1.622 0.868 1.555 0.781" stroke="hsl(0.0,100%,35%)" stroke-width="0.00091"></path>
<path d="M1.466 0.920 Q1.445 0.800 1.207 0.784" stroke="hsl(0.0,100%,35%)" stroke-width="0.00091"></path>
<path d="M1.466 0.920 Q1.575 0.778 1.321 0.694" stroke="hsl(0.0,100%,35%)" stroke-width="0.00091"></path>
<path d="M0.747 0.492 Q0.743 0.730 1.207 0.784" stroke="hsl(0.0,100%,35%)" stroke-width="0.00181"></path>
<path d="M0.747 0.492 Q0.306 0.432 0.092 0.635" stroke="hsl(0.0,100%,35%)" stroke-width="0.00181"></path>
<path d="M0.747 0.492 Q0.546 0.491 0.499 0.589" stroke="hsl(0.0,100%,35%)" stroke-width="0.00181"></path>
<path d="M0.747 0.492 Q0.682 0.444 0.574 0.465" stroke="hsl(0.0,100%,35%)" stroke-width="0.00091"></path>
<path d="M0.747 0.492 Q0.185 0.506 0.087 0.783" stroke="hsl(0.0,100%,35%)" stroke-width="0.00091"></path>
<path d="M0.747 0.492 Q0.979 0.688 1.412 0.618" stroke="hsl(0.0,100%,35%)" stroke-width="0.00091"></path>
<path d="M0.747 0.492 Q0.979 0.765 1.562 0.711" stroke="hsl(0.0,100%,35%)" stroke-width="0.00091"></path>
<path d="M1.945 0.298 Q1.187 0.394 1.207 0.784" stroke="hsl(0.0,100%,35%)" stroke-width="0.00091"></path>
<path d="M1.945 0.298 Q0.749 0.096 0.092 0.635" stroke="hsl(0.0,100%,35%)" stroke-width="0.00091"></path>
<path d="M1.945 0.298 Q1.951 0.295 1.946 0.291" stroke="hsl(0.0,100%,35%)" stroke-width="0.00091"></path>
</g>
<text x="0.818" y="0.108" font-size="0.026235" fill="hsl(0.0,100%,20%)">aaronwood</text>
<text x="0.092" y="0.609" font-size="0.051716" fill="hsl(0.0,100%,20%)">dpranke</text>
<text x="1.786" y="0.122" font-size="0.059165" fill="hsl(0.0,100%,20%)">tikuta</text>
<text x="1.207" y="0.737" font-size="0.093863" fill="hsl(0.0,100%,20%)">brettw</text>
<text x="1.024" y="0.086" font-size="0.004435" fill="hsl(0.0,100%,20%)">computerdruid</text>
<text x="0.823" y="0.266" font-size="0.020322" fill="hsl(0.0,100%,20%)">tmandry</text>
<text x="1.795" y="0.315" font-size="0.052095" fill="hsl(0.0,100%,20%)">sdefresne</text>
<text x="1.570" y="0.174" font-size="0.058664" fill="hsl(0.0,100%,20%)">digit</text>
<text x="1.199" y="0.855" font-size="0.057990" fill="hsl(0.0,100%,20%)">phosek</text>
<text x="0.605" y="0.143" font-size="0.009916" fill="hsl(0.0,100%,20%)">paulfaria</text>
<text x="0.977" y="0.203" font-size="0.009916" fill="hsl(0.0,100%,20%)">bwb</text>
<text x="1.482" y="0.877" font-size="0.019330" fill="hsl(0.0,100%,20%)">adetaylor</text>
<text x="1.657" y="0.060" font-size="0.021268" fill="hsl(0.0,100%,20%)">agrieve</text>
<text x="1.306" y="0.094" font-size="0.014023" fill="hsl(0.0,100%,20%)">mcgrathr</text>
<text x="1.435" y="0.663" font-size="0.010863" fill="hsl(0.0,100%,20%)">andrewsavage</text>
<text x="1.385" y="0.231" font-size="0.009916" fill="hsl(0.0,100%,20%)">baghdadi</text>
<text x="1.560" y="0.300" font-size="0.008869" fill="hsl(0.0,100%,20%)">bpastene</text>
<text x="1.562" y="0.691" font-size="0.041125" fill="hsl(0.0,100%,20%)">thakis</text>
<text x="1.000" y="0.805" font-size="0.062558" fill="hsl(0.0,100%,20%)">scottmg</text>
<text x="0.157" y="0.420" font-size="0.025858" fill="hsl(0.0,100%,20%)">thomasanderson</text>
<text x="1.321" y="0.676" font-size="0.036027" fill="hsl(0.0,100%,20%)">juliehockett</text>
<text x="0.328" y="0.928" font-size="0.011733" fill="hsl(0.0,100%,20%)">dcheng</text>
<text x="1.412" y="0.614" font-size="0.007681" fill="hsl(0.0,100%,20%)">wfh</text>
<text x="1.278" y="0.637" font-size="0.004435" fill="hsl(0.0,100%,20%)">rockot</text>
<text x="0.762" y="0.700" font-size="0.019832" fill="hsl(0.0,100%,20%)">brucedawson</text>
<text x="0.906" y="0.614" font-size="0.004435" fill="hsl(0.0,100%,20%)">jam</text>
<text x="0.928" y="0.685" font-size="0.004435" fill="hsl(0.0,100%,20%)">mef</text>
<text x="0.162" y="0.213" font-size="0.006271" fill="hsl(0.0,100%,20%)">sky</text>
<text x="0.224" y="0.626" font-size="0.006271" fill="hsl(0.0,100%,20%)">bungeman</text>
<text x="1.234" y="0.570" font-size="0.021268" fill="hsl(0.0,100%,20%)">danakj</text>
<text x="0.307" y="0.455" font-size="0.007681" fill="hsl(0.0,100%,20%)">iannucci</text>
<text x="0.175" y="0.710" font-size="0.006271" fill="hsl(0.0,100%,20%)">liaoyuke</text>
<text x="0.341" y="0.648" font-size="0.004435" fill="hsl(0.0,100%,20%)">smut</text>
<text x="0.578" y="0.934" font-size="0.010863" fill="hsl(0.0,100%,20%)">erikchen</text>
<text x="0.729" y="0.867" font-size="0.012543" fill="hsl(0.0,100%,20%)">ssid</text>
<text x="0.802" y="0.967" font-size="0.004435" fill="hsl(0.0,100%,20%)">haraken</text>
<text x="1.033" y="0.606" font-size="0.011733" fill="hsl(0.0,100%,20%)">haowei</text>
<text x="1.367" y="0.657" font-size="0.010863" fill="hsl(0.0,100%,20%)">jamesr</text>
<text x="1.592" y="0.575" font-size="0.007681" fill="hsl(0.0,100%,20%)">jbroman</text>
<text x="1.492" y="0.535" font-size="0.004435" fill="hsl(0.0,100%,20%)">dalecurtis</text>
<text x="1.805" y="0.654" font-size="0.004435" fill="hsl(0.0,100%,20%)">tzik</text>
<text x="1.671" y="0.083" font-size="0.011733" fill="hsl(0.0,100%,20%)">jkim</text>
<text x="1.033" y="0.773" font-size="0.014708" fill="hsl(0.0,100%,20%)">joearmstrong334</text>
<text x="0.210" y="0.867" font-size="0.008869" fill="hsl(0.0,100%,20%)">jyan</text>
<text x="0.574" y="0.462" font-size="0.006271" fill="hsl(0.0,100%,20%)">mark</text>
<text x="0.087" y="0.780" font-size="0.006271" fill="hsl(0.0,100%,20%)">palmer</text>
<text x="0.327" y="0.853" font-size="0.004435" fill="hsl(0.0,100%,20%)">scroggo</text>
<text x="1.760" y="0.586" font-size="0.011733" fill="hsl(0.0,100%,20%)">lizeb</text>
<text x="1.893" y="0.640" font-size="0.007681" fill="hsl(0.0,100%,20%)">mattcary</text>
<text x="1.902" y="0.556" font-size="0.006271" fill="hsl(0.0,100%,20%)">pasko</text>
<text x="1.284" y="0.908" font-size="0.012543" fill="hsl(0.0,100%,20%)">mfarazma</text>
<text x="0.217" y="0.126" font-size="0.007681" fill="hsl(0.0,100%,20%)">michaelpg</text>
<text x="0.116" y="0.146" font-size="0.004435" fill="hsl(0.0,100%,20%)">xhwang</text>
<text x="0.321" y="0.277" font-size="0.011733" fill="hsl(0.0,100%,20%)">msimonides</text>
<text x="0.466" y="0.156" font-size="0.004435" fill="hsl(0.0,100%,20%)">grt</text>
<text x="0.466" y="0.494" font-size="0.006271" fill="hsl(0.0,100%,20%)">jochen</text>
<text x="0.373" y="0.199" font-size="0.004435" fill="hsl(0.0,100%,20%)">pkasting</text>
<text x="0.543" y="0.298" font-size="0.004435" fill="hsl(0.0,100%,20%)">reveman</text>
<text x="0.217" y="0.321" font-size="0.004435" fill="hsl(0.0,100%,20%)">yzshen</text>
<text x="0.499" y="0.582" font-size="0.012543" fill="hsl(0.0,100%,20%)">pcc</text>
<text x="0.546" y="0.690" font-size="0.007681" fill="hsl(0.0,100%,20%)">pennymac</text>
<text x="0.567" y="0.662" font-size="0.004435" fill="hsl(0.0,100%,20%)">mmoroz</text>
<text x="1.727" y="0.414" font-size="0.008869" fill="hsl(0.0,100%,20%)">peterhanspers</text>
<text x="1.367" y="0.887" font-size="0.008869" fill="hsl(0.0,100%,20%)">vadimsh</text>
<text x="1.545" y="0.903" font-size="0.006271" fill="hsl(0.0,100%,20%)">tandrii</text>
<text x="1.666" y="0.966" font-size="0.009916" fill="hsl(0.0,100%,20%)">raphael.kubo.da.costa</text>
<text x="1.615" y="0.257" font-size="0.011733" fill="hsl(0.0,100%,20%)">ribalda</text>
<text x="1.046" y="0.662" font-size="0.012543" fill="hsl(0.0,100%,20%)">rjascani</text>
<text x="1.496" y="0.444" font-size="0.012543" fill="hsl(0.0,100%,20%)">rsesek</text>
<text x="0.776" y="0.595" font-size="0.007681" fill="hsl(0.0,100%,20%)">samogot</text>
<text x="1.870" y="0.474" font-size="0.006271" fill="hsl(0.0,100%,20%)">justincohen</text>
<text x="1.702" y="0.490" font-size="0.004435" fill="hsl(0.0,100%,20%)">noyau</text>
<text x="1.555" y="0.774" font-size="0.013304" fill="hsl(0.0,100%,20%)">shayba</text>
<text x="0.653" y="0.387" font-size="0.007681" fill="hsl(0.0,100%,20%)">skyostil</text>
<text x="0.981" y="0.475" font-size="0.006271" fill="hsl(0.0,100%,20%)">primiano</text>
<text x="0.467" y="0.352" font-size="0.004435" fill="hsl(0.0,100%,20%)">tdresser</text>
<text x="0.580" y="0.859" font-size="0.006271" fill="hsl(0.0,100%,20%)">xunjieli</text>
<text x="1.962" y="0.195" font-size="0.012543" fill="hsl(0.0,100%,20%)">thestig</text>
<text x="0.396" y="0.438" font-size="0.004435" fill="hsl(0.0,100%,20%)">fdoray</text>
<text x="1.718" y="0.235" font-size="0.006271" fill="hsl(0.0,100%,20%)">philwo</text>
<text x="0.832" y="0.618" font-size="0.008869" fill="hsl(0.0,100%,20%)">tmoniuszko</text>
<text x="1.466" y="0.915" font-size="0.008869" fill="hsl(0.0,100%,20%)">tsniatowski</text>
<text x="0.747" y="0.485" font-size="0.014023" fill="hsl(0.0,100%,20%)">vtsyrklevich</text>
<text x="1.945" y="0.295" font-size="0.007681" fill="hsl(0.0,100%,20%)">wangqing-hf</text>
<text x="1.946" y="0.289" font-size="0.004435" fill="hsl(0.0,100%,20%)">machenbach</text>
</svg>
