<svg width="4000" height="2000" viewBox="-0.025 -0.025 2.05 1.05" xmlns="http://www.w3.org/2000/svg">
  <style>
    path {
      fill: none;
      stroke-linecap: round;
      stroke-opacity: 0.4;
    }

    text {
      text-anchor: middle;
      alignment-baseline: hanging;
    }
  </style>
  <g opacity="0.4">
<path d="M0.077 0.616 Q0.143 0.688 0.297 0.671" stroke="hsl(0.0,100%,35%)" stroke-width="0.00093"></path>
<path d="M0.077 0.616 Q0.898 0.576 1.000 0.167" stroke="hsl(0.0,100%,35%)" stroke-width="0.00093"></path>
<path d="M0.077 0.616 Q0.848 0.742 1.264 0.394" stroke="hsl(0.0,100%,35%)" stroke-width="0.00093"></path>
<path d="M0.077 0.616 Q0.266 0.637 0.348 0.549" stroke="hsl(0.0,100%,35%)" stroke-width="0.00093"></path>
<path d="M0.577 0.758 Q0.553 0.848 0.724 0.880" stroke="hsl(0.0,100%,35%)" stroke-width="0.00093"></path>
<path d="M0.577 0.758 Q0.284 0.776 0.256 0.923" stroke="hsl(0.0,100%,35%)" stroke-width="0.00093"></path>
<path d="M0.577 0.758 Q0.416 0.813 0.487 0.903" stroke="hsl(0.0,100%,35%)" stroke-width="0.00093"></path>
<path d="M0.256 0.923 Q0.387 0.959 0.487 0.903" stroke="hsl(0.0,100%,35%)" stroke-width="0.00186"></path>
<path d="M0.256 0.923 Q0.256 0.861 0.135 0.847" stroke="hsl(0.0,100%,35%)" stroke-width="0.00186"></path>
<path d="M0.256 0.923 Q1.504 0.897 1.728 0.283" stroke="hsl(0.0,100%,35%)" stroke-width="0.00186"></path>
<path d="M0.256 0.923 Q1.124 1.020 1.504 0.617" stroke="hsl(0.0,100%,35%)" stroke-width="0.00093"></path>
<path d="M0.256 0.923 Q1.441 0.815 1.492 0.214" stroke="hsl(0.0,100%,35%)" stroke-width="0.00093"></path>
<path d="M1.572 0.494 Q1.439 0.542 1.504 0.617" stroke="hsl(0.0,100%,35%)" stroke-width="0.08188"></path>
<path d="M1.572 0.494 Q1.401 0.447 1.271 0.520" stroke="hsl(0.0,100%,35%)" stroke-width="0.01117"></path>
<path d="M1.572 0.494 Q1.548 0.335 1.232 0.311" stroke="hsl(0.0,100%,35%)" stroke-width="0.01582"></path>
<path d="M1.572 0.494 Q1.819 0.420 1.728 0.283" stroke="hsl(0.0,100%,35%)" stroke-width="0.03722"></path>
<path d="M1.572 0.494 Q0.839 0.517 0.724 0.880" stroke="hsl(0.0,100%,35%)" stroke-width="0.00093"></path>
<path d="M1.572 0.494 Q1.567 0.389 1.361 0.368" stroke="hsl(0.0,100%,35%)" stroke-width="0.00093"></path>
<path d="M1.572 0.494 Q1.611 0.539 1.708 0.530" stroke="hsl(0.0,100%,35%)" stroke-width="0.00279"></path>
<path d="M1.572 0.494 Q1.599 0.404 1.431 0.371" stroke="hsl(0.0,100%,35%)" stroke-width="0.00093"></path>
<path d="M1.572 0.494 Q1.597 0.541 1.693 0.539" stroke="hsl(0.0,100%,35%)" stroke-width="0.00279"></path>
<path d="M1.572 0.494 Q1.622 0.401 1.450 0.356" stroke="hsl(0.0,100%,35%)" stroke-width="0.00093"></path>
<path d="M1.572 0.494 Q1.756 0.338 1.492 0.214" stroke="hsl(0.0,100%,35%)" stroke-width="0.00372"></path>
<path d="M1.572 0.494 Q1.774 0.306 1.450 0.166" stroke="hsl(0.0,100%,35%)" stroke-width="0.00372"></path>
<path d="M1.572 0.494 Q1.745 0.495 1.786 0.411" stroke="hsl(0.0,100%,35%)" stroke-width="0.00186"></path>
<path d="M1.572 0.494 Q1.536 0.399 1.343 0.395" stroke="hsl(0.0,100%,35%)" stroke-width="0.00186"></path>
<path d="M1.572 0.494 Q1.984 0.381 1.854 0.156" stroke="hsl(0.0,100%,35%)" stroke-width="0.00093"></path>
<path d="M1.572 0.494 Q1.232 0.560 1.286 0.740" stroke="hsl(0.0,100%,35%)" stroke-width="0.00372"></path>
<path d="M1.572 0.494 Q1.623 0.372 1.396 0.320" stroke="hsl(0.0,100%,35%)" stroke-width="0.00093"></path>
<path d="M1.572 0.494 Q1.620 0.390 1.427 0.343" stroke="hsl(0.0,100%,35%)" stroke-width="0.00651"></path>
<path d="M1.572 0.494 Q1.350 0.250 0.824 0.304" stroke="hsl(0.0,100%,35%)" stroke-width="0.00372"></path>
<path d="M1.572 0.494 Q1.541 0.332 1.219 0.312" stroke="hsl(0.0,100%,35%)" stroke-width="0.00279"></path>
<path d="M1.572 0.494 Q1.400 0.326 1.033 0.373" stroke="hsl(0.0,100%,35%)" stroke-width="0.00372"></path>
<path d="M1.572 0.494 Q1.721 0.040 0.869 -0.132" stroke="hsl(0.0,100%,35%)" stroke-width="0.00093"></path>
<path d="M1.572 0.494 Q1.498 0.383 1.264 0.394" stroke="hsl(0.0,100%,35%)" stroke-width="0.00186"></path>
<path d="M1.572 0.494 Q1.061 0.169 0.315 0.347" stroke="hsl(0.0,100%,35%)" stroke-width="0.00093"></path>
<path d="M1.572 0.494 Q1.383 0.333 1.027 0.390" stroke="hsl(0.0,100%,35%)" stroke-width="0.00186"></path>
<path d="M1.572 0.494 Q1.770 0.285 1.406 0.142" stroke="hsl(0.0,100%,35%)" stroke-width="0.00093"></path>
<path d="M1.572 0.494 Q1.952 0.317 1.690 0.093" stroke="hsl(0.0,100%,35%)" stroke-width="0.00093"></path>
<path d="M1.572 0.494 Q1.793 0.254 1.374 0.093" stroke="hsl(0.0,100%,35%)" stroke-width="0.00093"></path>
<path d="M1.572 0.494 Q1.547 0.216 1.000 0.167" stroke="hsl(0.0,100%,35%)" stroke-width="0.00186"></path>
<path d="M1.271 0.520 Q1.442 0.567 1.572 0.494" stroke="hsl(0.0,100%,35%)" stroke-width="0.02419"></path>
<path d="M1.271 0.520 Q1.310 0.615 1.504 0.617" stroke="hsl(0.0,100%,35%)" stroke-width="0.02512"></path>
<path d="M1.271 0.520 Q1.102 0.633 1.286 0.740" stroke="hsl(0.0,100%,35%)" stroke-width="0.00093"></path>
<path d="M1.271 0.520 Q1.644 0.379 1.450 0.166" stroke="hsl(0.0,100%,35%)" stroke-width="0.00186"></path>
<path d="M1.271 0.520 Q1.689 0.493 1.728 0.283" stroke="hsl(0.0,100%,35%)" stroke-width="0.00837"></path>
<path d="M1.232 0.311 Q1.256 0.471 1.572 0.494" stroke="hsl(0.0,100%,35%)" stroke-width="0.01675"></path>
<path d="M1.232 0.311 Q1.123 0.519 1.504 0.617" stroke="hsl(0.0,100%,35%)" stroke-width="0.06141"></path>
<path d="M1.232 0.311 Q1.083 0.302 1.033 0.373" stroke="hsl(0.0,100%,35%)" stroke-width="0.05862"></path>
<path d="M1.232 0.311 Q1.033 0.226 0.824 0.304" stroke="hsl(0.0,100%,35%)" stroke-width="0.00465"></path>
<path d="M1.232 0.311 Q0.847 0.453 1.039 0.672" stroke="hsl(0.0,100%,35%)" stroke-width="0.00093"></path>
<path d="M1.232 0.311 Q0.916 0.537 1.286 0.740" stroke="hsl(0.0,100%,35%)" stroke-width="0.00093"></path>
<path d="M1.232 0.311 Q0.720 0.631 1.231 0.951" stroke="hsl(0.0,100%,35%)" stroke-width="0.00093"></path>
<path d="M1.232 0.311 Q1.405 0.017 0.869 -0.132" stroke="hsl(0.0,100%,35%)" stroke-width="0.00093"></path>
<path d="M1.232 0.311 Q1.010 0.243 0.829 0.336" stroke="hsl(0.0,100%,35%)" stroke-width="0.00093"></path>
<path d="M1.232 0.311 Q1.503 0.396 1.728 0.283" stroke="hsl(0.0,100%,35%)" stroke-width="0.00837"></path>
<path d="M1.232 0.311 Q1.454 0.262 1.406 0.142" stroke="hsl(0.0,100%,35%)" stroke-width="0.00093"></path>
<path d="M1.232 0.311 Q1.084 0.424 1.271 0.520" stroke="hsl(0.0,100%,35%)" stroke-width="0.00093"></path>
<path d="M1.728 0.283 Q1.481 0.357 1.572 0.494" stroke="hsl(0.0,100%,35%)" stroke-width="0.04280"></path>
<path d="M1.728 0.283 Q1.457 0.198 1.232 0.311" stroke="hsl(0.0,100%,35%)" stroke-width="0.00093"></path>
<path d="M1.728 0.283 Q1.801 0.124 1.509 0.054" stroke="hsl(0.0,100%,35%)" stroke-width="0.00093"></path>
<path d="M1.728 0.283 Q1.141 0.423 1.286 0.740" stroke="hsl(0.0,100%,35%)" stroke-width="0.00093"></path>
<path d="M1.728 0.283 Q1.348 0.405 1.504 0.617" stroke="hsl(0.0,100%,35%)" stroke-width="0.09677"></path>
<path d="M1.728 0.283 Q1.665 0.201 1.492 0.214" stroke="hsl(0.0,100%,35%)" stroke-width="0.01303"></path>
<path d="M1.728 0.283 Q1.702 0.117 1.374 0.093" stroke="hsl(0.0,100%,35%)" stroke-width="0.00651"></path>
<path d="M1.728 0.283 Q1.072 0.339 1.039 0.672" stroke="hsl(0.0,100%,35%)" stroke-width="0.00093"></path>
<path d="M1.728 0.283 Q1.710 0.134 1.416 0.110" stroke="hsl(0.0,100%,35%)" stroke-width="0.00093"></path>
<path d="M1.728 0.283 Q1.685 0.132 1.382 0.120" stroke="hsl(0.0,100%,35%)" stroke-width="0.00186"></path>
<path d="M1.728 0.283 Q1.861 0.181 1.690 0.093" stroke="hsl(0.0,100%,35%)" stroke-width="0.00372"></path>
<path d="M1.728 0.283 Q1.859 0.196 1.718 0.113" stroke="hsl(0.0,100%,35%)" stroke-width="0.00186"></path>
<path d="M1.728 0.283 Q1.835 0.204 1.705 0.135" stroke="hsl(0.0,100%,35%)" stroke-width="0.00093"></path>
<path d="M1.728 0.283 Q1.407 0.246 1.264 0.394" stroke="hsl(0.0,100%,35%)" stroke-width="0.00186"></path>
<path d="M1.728 0.283 Q1.766 0.164 1.543 0.120" stroke="hsl(0.0,100%,35%)" stroke-width="0.00093"></path>
<path d="M1.728 0.283 Q1.529 0.253 1.427 0.343" stroke="hsl(0.0,100%,35%)" stroke-width="0.00093"></path>
<path d="M1.728 0.283 Q0.612 0.250 0.303 0.787" stroke="hsl(0.0,100%,35%)" stroke-width="0.00093"></path>
<path d="M1.728 0.283 Q1.476 0.252 1.361 0.368" stroke="hsl(0.0,100%,35%)" stroke-width="0.00093"></path>
<path d="M1.728 0.283 Q0.970 0.032 0.315 0.347" stroke="hsl(0.0,100%,35%)" stroke-width="0.00093"></path>
<path d="M1.728 0.283 Q0.905 0.278 0.715 0.679" stroke="hsl(0.0,100%,35%)" stroke-width="0.00093"></path>
<path d="M1.728 0.283 Q1.310 0.310 1.271 0.520" stroke="hsl(0.0,100%,35%)" stroke-width="0.00465"></path>
<path d="M1.728 0.283 Q1.744 0.355 1.889 0.363" stroke="hsl(0.0,100%,35%)" stroke-width="0.00093"></path>
<path d="M1.728 0.283 Q1.683 0.169 1.450 0.166" stroke="hsl(0.0,100%,35%)" stroke-width="0.01489"></path>
<path d="M1.728 0.283 Q1.259 0.113 0.824 0.304" stroke="hsl(0.0,100%,35%)" stroke-width="0.00279"></path>
<path d="M1.728 0.283 Q1.456 0.079 1.000 0.167" stroke="hsl(0.0,100%,35%)" stroke-width="0.00093"></path>
<path d="M1.492 0.214 Q1.175 0.418 1.504 0.617" stroke="hsl(0.0,100%,35%)" stroke-width="0.00651"></path>
<path d="M1.492 0.214 Q1.233 0.258 1.264 0.394" stroke="hsl(0.0,100%,35%)" stroke-width="0.00093"></path>
<path d="M1.492 0.214 Q1.555 0.296 1.728 0.283" stroke="hsl(0.0,100%,35%)" stroke-width="0.00186"></path>
<path d="M1.492 0.214 Q1.719 0.257 1.854 0.156" stroke="hsl(0.0,100%,35%)" stroke-width="0.00093"></path>
<path d="M1.492 0.214 Q1.283 0.092 1.000 0.167" stroke="hsl(0.0,100%,35%)" stroke-width="0.00093"></path>
<path d="M1.492 0.214 Q1.085 0.126 0.824 0.304" stroke="hsl(0.0,100%,35%)" stroke-width="0.00093"></path>
<path d="M1.492 0.214 Q1.308 0.370 1.572 0.494" stroke="hsl(0.0,100%,35%)" stroke-width="0.00093"></path>
<path d="M1.450 0.166 Q1.249 0.354 1.572 0.494" stroke="hsl(0.0,100%,35%)" stroke-width="0.00279"></path>
<path d="M1.450 0.166 Q1.496 0.280 1.728 0.283" stroke="hsl(0.0,100%,35%)" stroke-width="0.00372"></path>
<path d="M1.450 0.166 Q1.116 0.402 1.504 0.617" stroke="hsl(0.0,100%,35%)" stroke-width="0.00186"></path>
<path d="M1.427 0.343 Q1.379 0.447 1.572 0.494" stroke="hsl(0.0,100%,35%)" stroke-width="0.01024"></path>
<path d="M1.427 0.343 Q0.970 0.430 1.039 0.672" stroke="hsl(0.0,100%,35%)" stroke-width="0.00093"></path>
<path d="M1.427 0.343 Q1.626 0.373 1.728 0.283" stroke="hsl(0.0,100%,35%)" stroke-width="0.00558"></path>
<path d="M1.427 0.343 Q1.207 0.400 1.271 0.520" stroke="hsl(0.0,100%,35%)" stroke-width="0.00279"></path>
<path d="M1.427 0.343 Q1.246 0.495 1.504 0.617" stroke="hsl(0.0,100%,35%)" stroke-width="0.00558"></path>
<path d="M1.427 0.343 Q1.039 0.513 1.286 0.740" stroke="hsl(0.0,100%,35%)" stroke-width="0.00186"></path>
<path d="M1.427 0.343 Q1.581 0.259 1.450 0.166" stroke="hsl(0.0,100%,35%)" stroke-width="0.00279"></path>
<path d="M1.033 0.373 Q1.182 0.382 1.232 0.311" stroke="hsl(0.0,100%,35%)" stroke-width="0.00744"></path>
<path d="M1.033 0.373 Q1.073 0.589 1.504 0.617" stroke="hsl(0.0,100%,35%)" stroke-width="0.00651"></path>
<path d="M1.033 0.373 Q1.404 0.332 1.406 0.142" stroke="hsl(0.0,100%,35%)" stroke-width="0.00186"></path>
<path d="M1.033 0.373 Q0.960 0.314 0.829 0.336" stroke="hsl(0.0,100%,35%)" stroke-width="0.00093"></path>
<path d="M1.033 0.373 Q1.453 0.467 1.728 0.283" stroke="hsl(0.0,100%,35%)" stroke-width="0.00093"></path>
<path d="M1.033 0.373 Q0.822 0.688 1.390 0.860" stroke="hsl(0.0,100%,35%)" stroke-width="0.00093"></path>
<path d="M1.033 0.373 Q1.206 0.541 1.572 0.494" stroke="hsl(0.0,100%,35%)" stroke-width="0.00651"></path>
<path d="M1.406 0.142 Q1.183 0.192 1.232 0.311" stroke="hsl(0.0,100%,35%)" stroke-width="0.00186"></path>
<path d="M1.406 0.142 Q1.035 0.183 1.033 0.373" stroke="hsl(0.0,100%,35%)" stroke-width="0.00186"></path>
<path d="M1.406 0.142 Q1.075 0.399 1.504 0.617" stroke="hsl(0.0,100%,35%)" stroke-width="0.00093"></path>
<path d="M0.303 0.787 Q1.148 0.735 1.232 0.311" stroke="hsl(0.0,100%,35%)" stroke-width="0.00186"></path>
<path d="M0.303 0.787 Q1.039 0.942 1.504 0.617" stroke="hsl(0.0,100%,35%)" stroke-width="0.00186"></path>
<path d="M0.303 0.787 Q0.171 0.783 0.135 0.847" stroke="hsl(0.0,100%,35%)" stroke-width="0.00093"></path>
<path d="M0.303 0.787 Q1.172 0.894 1.572 0.494" stroke="hsl(0.0,100%,35%)" stroke-width="0.00093"></path>
<path d="M0.303 0.787 Q0.950 0.650 0.824 0.304" stroke="hsl(0.0,100%,35%)" stroke-width="0.00186"></path>
<path d="M1.090 0.073 Q1.241 0.305 1.728 0.283" stroke="hsl(0.0,100%,35%)" stroke-width="0.00093"></path>
<path d="M1.090 0.073 Q1.178 0.224 1.492 0.214" stroke="hsl(0.0,100%,35%)" stroke-width="0.00093"></path>
<path d="M1.090 0.073 Q0.969 0.102 1.000 0.167" stroke="hsl(0.0,100%,35%)" stroke-width="0.00186"></path>
<path d="M1.090 0.073 Q0.994 0.380 1.572 0.494" stroke="hsl(0.0,100%,35%)" stroke-width="0.00093"></path>
<path d="M1.390 0.860 Q1.434 0.779 1.286 0.740" stroke="hsl(0.0,100%,35%)" stroke-width="0.00093"></path>
<path d="M1.390 0.860 Q1.238 0.874 1.231 0.951" stroke="hsl(0.0,100%,35%)" stroke-width="0.00093"></path>
<path d="M1.390 0.860 Q1.340 0.927 1.460 0.967" stroke="hsl(0.0,100%,35%)" stroke-width="0.00093"></path>
<path d="M0.927 0.681 Q1.059 0.783 1.286 0.740" stroke="hsl(0.0,100%,35%)" stroke-width="0.00093"></path>
<path d="M0.927 0.681 Q1.646 0.642 1.728 0.283" stroke="hsl(0.0,100%,35%)" stroke-width="0.00093"></path>
<path d="M0.927 0.681 Q0.398 0.606 0.135 0.847" stroke="hsl(0.0,100%,35%)" stroke-width="0.00093"></path>
<path d="M1.219 0.419 Q1.203 0.575 1.504 0.617" stroke="hsl(0.0,100%,35%)" stroke-width="0.01210"></path>
<path d="M1.219 0.419 Q1.582 0.453 1.728 0.283" stroke="hsl(0.0,100%,35%)" stroke-width="0.00744"></path>
<path d="M1.219 0.419 Q1.335 0.527 1.572 0.494" stroke="hsl(0.0,100%,35%)" stroke-width="0.01210"></path>
<path d="M1.219 0.419 Q0.996 0.593 1.286 0.740" stroke="hsl(0.0,100%,35%)" stroke-width="0.00093"></path>
<path d="M1.219 0.419 Q1.113 0.283 0.824 0.304" stroke="hsl(0.0,100%,35%)" stroke-width="0.00093"></path>
<path d="M1.219 0.419 Q1.305 0.365 1.219 0.312" stroke="hsl(0.0,100%,35%)" stroke-width="0.00093"></path>
<path d="M0.936 0.811 Q1.507 0.779 1.572 0.494" stroke="hsl(0.0,100%,35%)" stroke-width="0.00093"></path>
<path d="M0.936 0.811 Q0.931 0.700 0.715 0.679" stroke="hsl(0.0,100%,35%)" stroke-width="0.00093"></path>
<path d="M0.936 0.811 Q1.168 0.845 1.286 0.740" stroke="hsl(0.0,100%,35%)" stroke-width="0.00093"></path>
<path d="M1.638 0.525 Q1.630 0.496 1.572 0.494" stroke="hsl(0.0,100%,35%)" stroke-width="0.00093"></path>
<path d="M1.638 0.525 Q1.606 0.337 1.232 0.311" stroke="hsl(0.0,100%,35%)" stroke-width="0.00093"></path>
<path d="M1.638 0.525 Q1.497 0.544 1.504 0.617" stroke="hsl(0.0,100%,35%)" stroke-width="0.00186"></path>
<path d="M1.638 0.525 Q1.605 0.218 1.000 0.167" stroke="hsl(0.0,100%,35%)" stroke-width="0.00093"></path>
<path d="M0.072 0.444 Q0.782 0.769 1.572 0.494" stroke="hsl(0.0,100%,35%)" stroke-width="0.00093"></path>
<path d="M0.072 0.444 Q1.029 0.695 1.728 0.283" stroke="hsl(0.0,100%,35%)" stroke-width="0.00093"></path>
<path d="M0.072 0.444 Q0.271 0.444 0.315 0.347" stroke="hsl(0.0,100%,35%)" stroke-width="0.00279"></path>
<path d="M0.072 0.444 Q0.650 0.817 1.504 0.617" stroke="hsl(0.0,100%,35%)" stroke-width="0.00186"></path>
<path d="M1.191 0.385 Q1.270 0.356 1.232 0.311" stroke="hsl(0.0,100%,35%)" stroke-width="0.00279"></path>
<path d="M1.191 0.385 Q1.162 0.564 1.504 0.617" stroke="hsl(0.0,100%,35%)" stroke-width="0.00093"></path>
<path d="M1.191 0.385 Q1.122 0.347 1.033 0.373" stroke="hsl(0.0,100%,35%)" stroke-width="0.00186"></path>
<path d="M0.462 0.217 Q-0.206 0.466 0.135 0.847" stroke="hsl(0.0,100%,35%)" stroke-width="0.00093"></path>
<path d="M0.462 0.217 Q0.666 0.228 0.732 0.132" stroke="hsl(0.0,100%,35%)" stroke-width="0.00279"></path>
<path d="M0.462 0.217 Q0.771 0.300 1.000 0.167" stroke="hsl(0.0,100%,35%)" stroke-width="0.00093"></path>
<path d="M0.462 0.217 Q0.376 0.316 0.549 0.380" stroke="hsl(0.0,100%,35%)" stroke-width="0.00093"></path>
<path d="M0.462 0.217 Q0.553 0.274 0.685 0.242" stroke="hsl(0.0,100%,35%)" stroke-width="0.00093"></path>
<path d="M0.462 0.217 Q0.383 0.172 0.278 0.200" stroke="hsl(0.0,100%,35%)" stroke-width="0.00093"></path>
</g>
<text x="0.077" y="0.611" font-size="0.009684" fill="hsl(0.0,100%,20%)">abarth</text>
<text x="0.297" y="0.669" font-size="0.004842" fill="hsl(0.0,100%,20%)">ddorwin</text>
<text x="1.000" y="0.160" font-size="0.014527" fill="hsl(0.0,100%,20%)">tsepez</text>
<text x="1.264" y="0.388" font-size="0.011861" fill="hsl(0.0,100%,20%)">wez</text>
<text x="0.348" y="0.547" font-size="0.004842" fill="hsl(0.0,100%,20%)">kmarshall</text>
<text x="0.577" y="0.754" font-size="0.008387" fill="hsl(0.0,100%,20%)">avi</text>
<text x="0.724" y="0.877" font-size="0.006848" fill="hsl(0.0,100%,20%)">asvitkine</text>
<text x="0.256" y="0.915" font-size="0.014527" fill="hsl(0.0,100%,20%)">mark</text>
<text x="0.487" y="0.899" font-size="0.008387" fill="hsl(0.0,100%,20%)">rsesek</text>
<text x="1.572" y="0.449" font-size="0.089809" fill="hsl(0.0,100%,20%)">bartekn</text>
<text x="1.504" y="0.573" font-size="0.087829" fill="hsl(0.0,100%,20%)">haraken</text>
<text x="1.271" y="0.498" font-size="0.044904" fill="hsl(0.0,100%,20%)">tasak</text>
<text x="1.232" y="0.277" font-size="0.068820" fill="hsl(0.0,100%,20%)">bikineev</text>
<text x="1.728" y="0.241" font-size="0.084287" fill="hsl(0.0,100%,20%)">lizeb</text>
<text x="1.361" y="0.364" font-size="0.006848" fill="hsl(0.0,100%,20%)">grt</text>
<text x="1.708" y="0.526" font-size="0.008387" fill="hsl(0.0,100%,20%)">isherman</text>
<text x="1.431" y="0.369" font-size="0.004842" fill="hsl(0.0,100%,20%)">robertshield</text>
<text x="1.693" y="0.535" font-size="0.008387" fill="hsl(0.0,100%,20%)">sebmarchand</text>
<text x="1.450" y="0.353" font-size="0.004842" fill="hsl(0.0,100%,20%)">ydago</text>
<text x="1.492" y="0.200" font-size="0.028234" fill="hsl(0.0,100%,20%)">palmer</text>
<text x="1.450" y="0.152" font-size="0.028234" fill="hsl(0.0,100%,20%)">yukishiino</text>
<text x="1.786" y="0.408" font-size="0.006848" fill="hsl(0.0,100%,20%)">yutak</text>
<text x="1.343" y="0.392" font-size="0.006848" fill="hsl(0.0,100%,20%)">erikchen</text>
<text x="1.854" y="0.152" font-size="0.006848" fill="hsl(0.0,100%,20%)">mpdenton</text>
<text x="1.286" y="0.731" font-size="0.017459" fill="hsl(0.0,100%,20%)">dcheng</text>
<text x="1.396" y="0.318" font-size="0.004842" fill="hsl(0.0,100%,20%)">primiano</text>
<text x="1.427" y="0.328" font-size="0.030625" fill="hsl(0.0,100%,20%)">keishi</text>
<text x="0.824" y="0.295" font-size="0.019369" fill="hsl(0.0,100%,20%)">wfh</text>
<text x="1.219" y="0.307" font-size="0.009684" fill="hsl(0.0,100%,20%)">rockot</text>
<text x="1.033" y="0.349" font-size="0.047935" fill="hsl(0.0,100%,20%)">mlippautz</text>
<text x="0.869" y="-0.135" font-size="0.006848" fill="hsl(0.0,100%,20%)">holte</text>
<text x="0.315" y="0.342" font-size="0.010827" fill="hsl(0.0,100%,20%)">ajwong</text>
<text x="1.027" y="0.386" font-size="0.006848" fill="hsl(0.0,100%,20%)">rmcilroy</text>
<text x="1.406" y="0.135" font-size="0.014527" fill="hsl(0.0,100%,20%)">hpayer</text>
<text x="1.690" y="0.088" font-size="0.010827" fill="hsl(0.0,100%,20%)">ssid</text>
<text x="1.374" y="0.087" font-size="0.013696" fill="hsl(0.0,100%,20%)">pasko</text>
<text x="1.039" y="0.667" font-size="0.008387" fill="hsl(0.0,100%,20%)">fdoray</text>
<text x="1.231" y="0.948" font-size="0.006848" fill="hsl(0.0,100%,20%)">gab</text>
<text x="0.829" y="0.333" font-size="0.006848" fill="hsl(0.0,100%,20%)">ulan</text>
<text x="0.303" y="0.779" font-size="0.014527" fill="hsl(0.0,100%,20%)">brucedawson</text>
<text x="0.135" y="0.841" font-size="0.010827" fill="hsl(0.0,100%,20%)">thakis</text>
<text x="1.090" y="0.067" font-size="0.010827" fill="hsl(0.0,100%,20%)">ellyjones</text>
<text x="1.390" y="0.855" font-size="0.009684" fill="hsl(0.0,100%,20%)">eseckler</text>
<text x="1.460" y="0.964" font-size="0.004842" fill="hsl(0.0,100%,20%)">skyostil</text>
<text x="0.927" y="0.677" font-size="0.008387" fill="hsl(0.0,100%,20%)">gabor.kertesz</text>
<text x="1.219" y="0.404" font-size="0.029454" fill="hsl(0.0,100%,20%)">glazunov</text>
<text x="0.936" y="0.807" font-size="0.008387" fill="hsl(0.0,100%,20%)">jannh</text>
<text x="0.715" y="0.675" font-size="0.006848" fill="hsl(0.0,100%,20%)">danakj</text>
<text x="1.509" y="0.051" font-size="0.004842" fill="hsl(0.0,100%,20%)">caitlinfischer</text>
<text x="1.416" y="0.108" font-size="0.004842" fill="hsl(0.0,100%,20%)">sinansahin</text>
<text x="1.382" y="0.116" font-size="0.006848" fill="hsl(0.0,100%,20%)">alexilin</text>
<text x="1.718" y="0.109" font-size="0.006848" fill="hsl(0.0,100%,20%)">arthursonzogni</text>
<text x="1.705" y="0.132" font-size="0.004842" fill="hsl(0.0,100%,20%)">agrieve</text>
<text x="1.543" y="0.117" font-size="0.004842" fill="hsl(0.0,100%,20%)">hendrich</text>
<text x="1.889" y="0.361" font-size="0.004842" fill="hsl(0.0,100%,20%)">jwd</text>
<text x="1.638" y="0.519" font-size="0.010827" fill="hsl(0.0,100%,20%)">ptworek</text>
<text x="0.072" y="0.438" font-size="0.012811" fill="hsl(0.0,100%,20%)">richard.townsend</text>
<text x="1.191" y="0.379" font-size="0.011861" fill="hsl(0.0,100%,20%)">stha09</text>
<text x="0.462" y="0.210" font-size="0.013696" fill="hsl(0.0,100%,20%)">thestig</text>
<text x="0.732" y="0.127" font-size="0.008387" fill="hsl(0.0,100%,20%)">pbos</text>
<text x="0.549" y="0.377" font-size="0.004842" fill="hsl(0.0,100%,20%)">ajgo</text>
<text x="0.685" y="0.240" font-size="0.004842" fill="hsl(0.0,100%,20%)">pkasting</text>
<text x="0.278" y="0.198" font-size="0.004842" fill="hsl(0.0,100%,20%)">dhoss</text>
</svg>
