<svg width="4000" height="2000" viewBox="-0.025 -0.025 2.05 1.05" xmlns="http://www.w3.org/2000/svg">
  <style>
    path {
      fill: none;
      stroke-linecap: round;
      stroke-opacity: 0.4;
    }

    text {
      text-anchor: middle;
      alignment-baseline: hanging;
    }
  </style>
  <g opacity="0.4">
<path d="M1.277 0.090 Q0.254 0.398 0.631 0.965" stroke="hsl(0.0,100%,35%)" stroke-width="0.00507"></path>
<path d="M1.277 0.090 Q0.919 0.172 1.001 0.365" stroke="hsl(0.0,100%,35%)" stroke-width="0.00507"></path>
<path d="M1.277 0.090 Q1.211 0.137 1.289 0.180" stroke="hsl(0.0,100%,35%)" stroke-width="0.00507"></path>
<path d="M1.277 0.090 Q1.090 0.256 1.374 0.383" stroke="hsl(0.0,100%,35%)" stroke-width="0.00507"></path>
<path d="M1.277 0.090 Q1.284 0.246 1.590 0.277" stroke="hsl(0.0,100%,35%)" stroke-width="0.00507"></path>
<path d="M0.631 0.965 Q0.759 1.040 0.933 0.993" stroke="hsl(120.0,100%,35%)" stroke-width="0.09634"></path>
<path d="M0.631 0.965 Q1.470 0.546 0.837 0.045" stroke="hsl(120.0,100%,35%)" stroke-width="0.01014"></path>
<path d="M0.631 0.965 Q0.884 0.916 0.844 0.782" stroke="hsl(120.0,100%,35%)" stroke-width="0.00507"></path>
<path d="M0.631 0.965 Q0.918 1.038 1.123 0.914" stroke="hsl(120.0,100%,35%)" stroke-width="0.00507"></path>
<path d="M0.631 0.965 Q0.814 0.959 0.843 0.869" stroke="hsl(120.0,100%,35%)" stroke-width="0.00507"></path>
<path d="M0.631 0.965 Q1.154 0.943 1.225 0.683" stroke="hsl(120.0,100%,35%)" stroke-width="0.00507"></path>
<path d="M0.631 0.965 Q0.773 0.937 0.751 0.862" stroke="hsl(120.0,100%,35%)" stroke-width="0.01014"></path>
<path d="M1.001 0.365 Q0.702 0.294 0.498 0.424" stroke="hsl(0.0,100%,35%)" stroke-width="0.00507"></path>
<path d="M1.001 0.365 Q1.293 0.330 1.289 0.180" stroke="hsl(0.0,100%,35%)" stroke-width="0.00507"></path>
<path d="M1.001 0.365 Q0.840 0.342 0.759 0.416" stroke="hsl(0.0,100%,35%)" stroke-width="0.00507"></path>
<path d="M1.001 0.365 Q0.979 0.291 0.829 0.285" stroke="hsl(0.0,100%,35%)" stroke-width="0.00507"></path>
<path d="M1.001 0.365 Q0.336 0.591 0.631 0.965" stroke="hsl(0.0,100%,35%)" stroke-width="0.00507"></path>
<path d="M1.374 0.383 Q1.567 0.373 1.590 0.277" stroke="hsl(0.0,100%,35%)" stroke-width="0.01014"></path>
<path d="M1.374 0.383 Q1.447 0.460 1.612 0.441" stroke="hsl(0.0,100%,35%)" stroke-width="0.00507"></path>
<path d="M1.374 0.383 Q1.494 0.264 1.289 0.180" stroke="hsl(0.0,100%,35%)" stroke-width="0.01014"></path>
<path d="M1.934 0.433 Q1.895 0.349 1.724 0.350" stroke="hsl(120.0,100%,35%)" stroke-width="0.00507"></path>
<path d="M1.934 0.433 Q2.002 0.342 1.840 0.289" stroke="hsl(120.0,100%,35%)" stroke-width="0.01014"></path>
<path d="M1.934 0.433 Q2.067 0.213 1.668 0.100" stroke="hsl(120.0,100%,35%)" stroke-width="0.00507"></path>
<path d="M1.840 0.289 Q0.695 0.385 0.631 0.965" stroke="hsl(120.0,100%,35%)" stroke-width="0.00507"></path>
<path d="M1.840 0.289 Q0.948 0.336 0.844 0.782" stroke="hsl(120.0,100%,35%)" stroke-width="0.00507"></path>
<path d="M1.840 0.289 Q1.564 0.147 1.226 0.250" stroke="hsl(120.0,100%,35%)" stroke-width="0.00507"></path>
<path d="M0.954 0.477 Q1.039 0.533 1.166 0.504" stroke="hsl(0.0,100%,35%)" stroke-width="0.00507"></path>
<path d="M0.954 0.477 Q1.097 0.213 0.615 0.086" stroke="hsl(0.0,100%,35%)" stroke-width="0.01014"></path>
<path d="M0.954 0.477 Q0.402 0.656 0.631 0.965" stroke="hsl(0.0,100%,35%)" stroke-width="0.00507"></path>
<path d="M0.954 0.477 Q1.241 0.237 0.837 0.045" stroke="hsl(0.0,100%,35%)" stroke-width="0.01014"></path>
<path d="M0.954 0.477 Q0.544 0.629 0.751 0.862" stroke="hsl(0.0,100%,35%)" stroke-width="0.00507"></path>
<path d="M0.954 0.477 Q0.833 0.536 0.921 0.607" stroke="hsl(0.0,100%,35%)" stroke-width="0.00507"></path>
<path d="M0.954 0.477 Q1.067 0.430 1.001 0.365" stroke="hsl(0.0,100%,35%)" stroke-width="0.01014"></path>
<path d="M0.615 0.086 Q-0.080 0.529 0.631 0.965" stroke="hsl(0.0,100%,35%)" stroke-width="0.04563"></path>
<path d="M0.615 0.086 Q0.877 0.267 1.289 0.180" stroke="hsl(0.0,100%,35%)" stroke-width="0.00507"></path>
<path d="M0.615 0.086 Q0.759 0.110 0.837 0.045" stroke="hsl(0.0,100%,35%)" stroke-width="0.05070"></path>
<path d="M0.615 0.086 Q0.280 0.132 0.296 0.305" stroke="hsl(0.0,100%,35%)" stroke-width="0.00507"></path>
<path d="M0.615 0.086 Q0.949 0.376 1.590 0.277" stroke="hsl(0.0,100%,35%)" stroke-width="0.02028"></path>
<path d="M0.615 0.086 Q0.206 0.601 1.123 0.914" stroke="hsl(0.0,100%,35%)" stroke-width="0.00507"></path>
<path d="M0.615 0.086 Q0.048 0.603 0.933 0.993" stroke="hsl(0.0,100%,35%)" stroke-width="0.00507"></path>
<path d="M0.615 0.086 Q0.829 0.463 1.612 0.441" stroke="hsl(0.0,100%,35%)" stroke-width="0.01014"></path>
<path d="M0.615 0.086 Q0.942 0.220 1.277 0.090" stroke="hsl(0.0,100%,35%)" stroke-width="0.00507"></path>
<path d="M0.615 0.086 Q0.471 0.349 0.954 0.477" stroke="hsl(0.0,100%,35%)" stroke-width="0.00507"></path>
<path d="M0.615 0.086 Q0.556 0.405 1.166 0.504" stroke="hsl(0.0,100%,35%)" stroke-width="0.00507"></path>
<path d="M1.612 0.441 Q1.659 0.246 1.289 0.180" stroke="hsl(0.0,100%,35%)" stroke-width="0.00507"></path>
<path d="M1.612 0.441 Q1.732 0.354 1.590 0.277" stroke="hsl(0.0,100%,35%)" stroke-width="0.00507"></path>
<path d="M1.612 0.441 Q0.955 0.458 0.844 0.782" stroke="hsl(0.0,100%,35%)" stroke-width="0.00507"></path>
<path d="M1.612 0.441 Q0.844 0.479 0.751 0.862" stroke="hsl(0.0,100%,35%)" stroke-width="0.00507"></path>
<path d="M0.121 0.742 Q0.258 0.646 0.101 0.559" stroke="hsl(240.0,100%,35%)" stroke-width="0.00507"></path>
<path d="M0.121 0.742 Q0.291 0.710 0.266 0.620" stroke="hsl(240.0,100%,35%)" stroke-width="0.01521"></path>
<path d="M0.121 0.742 Q0.091 0.811 0.218 0.840" stroke="hsl(240.0,100%,35%)" stroke-width="0.01521"></path>
<path d="M0.549 0.702 Q0.694 0.669 0.662 0.591" stroke="hsl(120.0,100%,35%)" stroke-width="0.00507"></path>
<path d="M0.549 0.702 Q0.430 0.742 0.481 0.809" stroke="hsl(120.0,100%,35%)" stroke-width="0.00507"></path>
<path d="M0.549 0.702 Q0.380 0.850 0.631 0.965" stroke="hsl(120.0,100%,35%)" stroke-width="0.00507"></path>
<path d="M1.226 0.250 Q1.314 0.227 1.289 0.180" stroke="hsl(0.0,100%,35%)" stroke-width="0.02028"></path>
<path d="M1.226 0.250 Q1.386 0.336 1.590 0.277" stroke="hsl(0.0,100%,35%)" stroke-width="0.02028"></path>
<path d="M1.226 0.250 Q1.379 0.180 1.277 0.090" stroke="hsl(0.0,100%,35%)" stroke-width="0.01014"></path>
</g>
<text x="1.277" y="0.071" font-size="0.037300" fill="hsl(0.0,100%,20%)">arthursonzogni</text>
<text x="0.631" y="0.923" font-size="0.084442" fill="hsl(120.0,100%,20%)">tasak</text>
<text x="1.001" y="0.347" font-size="0.037300" fill="hsl(0.0,100%,20%)">lizeb</text>
<text x="1.289" y="0.159" font-size="0.041703" fill="hsl(0.0,100%,20%)">haraken</text>
<text x="1.374" y="0.367" font-size="0.032303" fill="hsl(0.0,100%,20%)">tikuta</text>
<text x="1.590" y="0.254" font-size="0.045683" fill="hsl(0.0,100%,20%)">dcheng</text>
<text x="1.934" y="0.420" font-size="0.026375" fill="hsl(120.0,100%,20%)">dloehr</text>
<text x="1.724" y="0.343" font-size="0.013188" fill="hsl(120.0,100%,20%)">avi</text>
<text x="1.840" y="0.274" font-size="0.029488" fill="hsl(120.0,100%,20%)">thakis</text>
<text x="1.668" y="0.094" font-size="0.013188" fill="hsl(120.0,100%,20%)">hans</text>
<text x="0.954" y="0.455" font-size="0.043738" fill="hsl(0.0,100%,20%)">justincohen</text>
<text x="1.166" y="0.494" font-size="0.018650" fill="hsl(0.0,100%,20%)">marq</text>
<text x="0.615" y="0.047" font-size="0.076896" fill="hsl(0.0,100%,20%)">mikt</text>
<text x="0.837" y="0.020" font-size="0.049344" fill="hsl(0.0,100%,20%)">keishi</text>
<text x="0.751" y="0.849" font-size="0.026375" fill="hsl(120.0,100%,20%)">nuskos</text>
<text x="0.921" y="0.601" font-size="0.013188" fill="hsl(0.0,100%,20%)">rohitrao</text>
<text x="0.498" y="0.418" font-size="0.013188" fill="hsl(0.0,100%,20%)">acondor</text>
<text x="0.759" y="0.409" font-size="0.013188" fill="hsl(0.0,100%,20%)">bikineev</text>
<text x="0.829" y="0.279" font-size="0.013188" fill="hsl(0.0,100%,20%)">eseckler</text>
<text x="0.296" y="0.299" font-size="0.013188" fill="hsl(0.0,100%,20%)">paulsemel</text>
<text x="1.123" y="0.905" font-size="0.018650" fill="hsl(0.0,100%,20%)">glazunov</text>
<text x="0.933" y="0.964" font-size="0.058977" fill="hsl(120.0,100%,20%)">yukishiino</text>
<text x="1.612" y="0.423" font-size="0.034891" fill="hsl(0.0,100%,20%)">thestig</text>
<text x="0.121" y="0.725" font-size="0.034891" fill="hsl(240.0,100%,20%)">rop</text>
<text x="0.101" y="0.552" font-size="0.013188" fill="hsl(240.0,100%,20%)">jsca</text>
<text x="0.266" y="0.609" font-size="0.022842" fill="hsl(240.0,100%,20%)">qjw</text>
<text x="0.218" y="0.829" font-size="0.022842" fill="hsl(240.0,100%,20%)">renewitt</text>
<text x="0.549" y="0.690" font-size="0.022842" fill="hsl(120.0,100%,20%)">stefanoduo</text>
<text x="0.662" y="0.585" font-size="0.013188" fill="hsl(120.0,100%,20%)">bpastene</text>
<text x="0.481" y="0.802" font-size="0.013188" fill="hsl(120.0,100%,20%)">edechamps</text>
<text x="0.844" y="0.771" font-size="0.022842" fill="hsl(120.0,100%,20%)">kdlee</text>
<text x="0.843" y="0.862" font-size="0.013188" fill="hsl(120.0,100%,20%)">kojii</text>
<text x="1.225" y="0.676" font-size="0.013188" fill="hsl(120.0,100%,20%)">danielyip</text>
<text x="1.226" y="0.228" font-size="0.043738" fill="hsl(0.0,100%,20%)">tsepez</text>
</svg>
