<svg width="4000" height="2000" viewBox="-0.025 -0.025 2.05 1.05" xmlns="http://www.w3.org/2000/svg">
  <style>
    path {
      fill: none;
      stroke-linecap: round;
      stroke-opacity: 0.4;
    }

    text {
      text-anchor: middle;
      alignment-baseline: hanging;
    }
  </style>
  <g opacity="0.4">
<path d="M1.385 0.570 Q1.398 0.663 1.584 0.677" stroke="hsl(0.0,100%,35%)" stroke-width="0.00288"></path>
<path d="M1.385 0.570 Q1.491 0.435 1.252 0.353" stroke="hsl(0.0,100%,35%)" stroke-width="0.00144"></path>
<path d="M1.385 0.570 Q1.609 0.691 1.894 0.608" stroke="hsl(0.0,100%,35%)" stroke-width="0.00144"></path>
<path d="M1.584 0.677 Q1.634 0.752 1.790 0.744" stroke="hsl(0.0,100%,35%)" stroke-width="0.01294"></path>
<path d="M1.584 0.677 Q1.343 0.514 0.972 0.596" stroke="hsl(0.0,100%,35%)" stroke-width="0.01150"></path>
<path d="M1.584 0.677 Q1.441 0.651 1.358 0.715" stroke="hsl(0.0,100%,35%)" stroke-width="0.00575"></path>
<path d="M1.584 0.677 Q1.898 0.503 1.626 0.311" stroke="hsl(0.0,100%,35%)" stroke-width="0.00719"></path>
<path d="M1.584 0.677 Q1.392 0.782 1.553 0.898" stroke="hsl(0.0,100%,35%)" stroke-width="0.02157"></path>
<path d="M1.584 0.677 Q1.750 0.562 1.562 0.456" stroke="hsl(0.0,100%,35%)" stroke-width="0.00144"></path>
<path d="M1.584 0.677 Q1.409 0.620 1.259 0.693" stroke="hsl(0.0,100%,35%)" stroke-width="0.01726"></path>
<path d="M1.584 0.677 Q1.524 0.596 1.353 0.608" stroke="hsl(0.0,100%,35%)" stroke-width="0.02013"></path>
<path d="M1.584 0.677 Q1.987 0.315 1.368 0.039" stroke="hsl(0.0,100%,35%)" stroke-width="0.00144"></path>
<path d="M1.584 0.677 Q1.716 0.616 1.626 0.538" stroke="hsl(0.0,100%,35%)" stroke-width="0.05465"></path>
<path d="M1.584 0.677 Q1.415 0.437 0.909 0.467" stroke="hsl(0.0,100%,35%)" stroke-width="0.00288"></path>
<path d="M1.584 0.677 Q1.556 0.564 1.329 0.553" stroke="hsl(0.0,100%,35%)" stroke-width="0.00719"></path>
<path d="M1.584 0.677 Q1.847 0.482 1.523 0.310" stroke="hsl(0.0,100%,35%)" stroke-width="0.00575"></path>
<path d="M1.584 0.677 Q1.895 0.395 1.412 0.182" stroke="hsl(0.0,100%,35%)" stroke-width="0.00863"></path>
<path d="M1.584 0.677 Q1.452 0.705 1.477 0.775" stroke="hsl(0.0,100%,35%)" stroke-width="0.00719"></path>
<path d="M1.584 0.677 Q1.640 0.526 1.357 0.465" stroke="hsl(0.0,100%,35%)" stroke-width="0.00144"></path>
<path d="M1.584 0.677 Q1.828 0.659 1.846 0.535" stroke="hsl(0.0,100%,35%)" stroke-width="0.00431"></path>
<path d="M1.584 0.677 Q1.801 0.530 1.561 0.391" stroke="hsl(0.0,100%,35%)" stroke-width="0.00288"></path>
<path d="M1.584 0.677 Q1.554 0.386 0.980 0.337" stroke="hsl(0.0,100%,35%)" stroke-width="0.00144"></path>
<path d="M1.584 0.677 Q1.407 0.727 1.465 0.824" stroke="hsl(0.0,100%,35%)" stroke-width="0.00431"></path>
<path d="M1.584 0.677 Q1.789 0.531 1.548 0.398" stroke="hsl(0.0,100%,35%)" stroke-width="0.00288"></path>
<path d="M1.584 0.677 Q1.703 0.789 1.946 0.755" stroke="hsl(0.0,100%,35%)" stroke-width="0.00288"></path>
<path d="M1.894 0.608 Q1.684 0.581 1.584 0.677" stroke="hsl(0.0,100%,35%)" stroke-width="0.01438"></path>
<path d="M1.894 0.608 Q1.541 0.554 1.358 0.715" stroke="hsl(0.0,100%,35%)" stroke-width="0.00144"></path>
<path d="M1.894 0.608 Q1.998 0.406 1.626 0.311" stroke="hsl(0.0,100%,35%)" stroke-width="0.03595"></path>
<path d="M1.894 0.608 Q1.850 0.466 1.562 0.456" stroke="hsl(0.0,100%,35%)" stroke-width="0.00144"></path>
<path d="M1.894 0.608 Q1.624 0.500 1.353 0.608" stroke="hsl(0.0,100%,35%)" stroke-width="0.00288"></path>
<path d="M1.894 0.608 Q1.074 0.437 0.560 0.799" stroke="hsl(0.0,100%,35%)" stroke-width="0.00144"></path>
<path d="M1.894 0.608 Q2.087 0.218 1.368 0.039" stroke="hsl(0.0,100%,35%)" stroke-width="0.00144"></path>
<path d="M1.894 0.608 Q1.816 0.520 1.626 0.538" stroke="hsl(0.0,100%,35%)" stroke-width="0.00431"></path>
<path d="M1.894 0.608 Q1.443 0.418 0.972 0.596" stroke="hsl(0.0,100%,35%)" stroke-width="0.00288"></path>
<path d="M1.894 0.608 Q1.552 0.608 1.477 0.775" stroke="hsl(0.0,100%,35%)" stroke-width="0.00144"></path>
<path d="M1.894 0.608 Q1.956 0.598 1.950 0.566" stroke="hsl(0.0,100%,35%)" stroke-width="0.00144"></path>
<path d="M1.894 0.608 Q2.080 0.529 1.966 0.421" stroke="hsl(0.0,100%,35%)" stroke-width="0.00144"></path>
<path d="M1.894 0.608 Q2.045 0.550 1.966 0.464" stroke="hsl(0.0,100%,35%)" stroke-width="0.00144"></path>
<path d="M1.894 0.608 Q1.929 0.582 1.886 0.560" stroke="hsl(0.0,100%,35%)" stroke-width="0.00144"></path>
<path d="M1.894 0.608 Q1.982 0.591 1.967 0.545" stroke="hsl(0.0,100%,35%)" stroke-width="0.00144"></path>
<path d="M0.885 0.843 Q1.236 0.928 1.477 0.775" stroke="hsl(0.0,100%,35%)" stroke-width="0.00144"></path>
<path d="M0.885 0.843 Q1.192 0.843 1.259 0.693" stroke="hsl(0.0,100%,35%)" stroke-width="0.00144"></path>
<path d="M0.885 0.843 Q1.126 0.737 0.972 0.596" stroke="hsl(0.0,100%,35%)" stroke-width="0.00144"></path>
<path d="M0.885 0.843 Q0.758 0.756 0.560 0.799" stroke="hsl(0.0,100%,35%)" stroke-width="0.00144"></path>
<path d="M1.259 0.693 Q1.483 0.825 1.790 0.744" stroke="hsl(0.0,100%,35%)" stroke-width="0.00431"></path>
<path d="M1.259 0.693 Q1.433 0.750 1.584 0.677" stroke="hsl(0.0,100%,35%)" stroke-width="0.01007"></path>
<path d="M1.259 0.693 Q1.373 0.669 1.353 0.608" stroke="hsl(0.0,100%,35%)" stroke-width="0.00288"></path>
<path d="M1.259 0.693 Q1.566 0.689 1.626 0.538" stroke="hsl(0.0,100%,35%)" stroke-width="0.00144"></path>
<path d="M1.259 0.693 Q1.836 0.388 1.368 0.039" stroke="hsl(0.0,100%,35%)" stroke-width="0.00144"></path>
<path d="M1.329 0.553 Q1.668 0.384 1.412 0.182" stroke="hsl(0.0,100%,35%)" stroke-width="0.00431"></path>
<path d="M1.329 0.553 Q1.671 0.492 1.626 0.311" stroke="hsl(0.0,100%,35%)" stroke-width="0.00288"></path>
<path d="M1.329 0.553 Q1.357 0.666 1.584 0.677" stroke="hsl(0.0,100%,35%)" stroke-width="0.01582"></path>
<path d="M1.329 0.553 Q1.407 0.741 1.790 0.744" stroke="hsl(0.0,100%,35%)" stroke-width="0.00431"></path>
<path d="M1.329 0.553 Q1.572 0.299 1.130 0.124" stroke="hsl(0.0,100%,35%)" stroke-width="0.00144"></path>
<path d="M1.329 0.553 Q1.182 0.609 1.259 0.693" stroke="hsl(0.0,100%,35%)" stroke-width="0.00144"></path>
<path d="M1.329 0.553 Q1.297 0.585 1.353 0.608" stroke="hsl(0.0,100%,35%)" stroke-width="0.00144"></path>
<path d="M1.412 0.182 Q1.074 0.351 1.329 0.553" stroke="hsl(0.0,100%,35%)" stroke-width="0.00288"></path>
<path d="M1.412 0.182 Q1.244 0.208 1.258 0.296" stroke="hsl(0.0,100%,35%)" stroke-width="0.00144"></path>
<path d="M1.412 0.182 Q1.152 0.539 1.790 0.744" stroke="hsl(0.0,100%,35%)" stroke-width="0.00144"></path>
<path d="M1.412 0.182 Q1.102 0.464 1.584 0.677" stroke="hsl(0.0,100%,35%)" stroke-width="0.00288"></path>
<path d="M1.412 0.182 Q0.970 0.492 1.477 0.775" stroke="hsl(0.0,100%,35%)" stroke-width="0.00144"></path>
<path d="M1.626 0.311 Q1.312 0.486 1.584 0.677" stroke="hsl(0.0,100%,35%)" stroke-width="0.02013"></path>
<path d="M1.626 0.311 Q1.523 0.513 1.894 0.608" stroke="hsl(0.0,100%,35%)" stroke-width="0.00863"></path>
<path d="M1.626 0.311 Q1.684 0.431 1.930 0.429" stroke="hsl(0.0,100%,35%)" stroke-width="0.00288"></path>
<path d="M1.626 0.311 Q1.120 0.590 1.553 0.898" stroke="hsl(0.0,100%,35%)" stroke-width="0.00144"></path>
<path d="M1.626 0.311 Q0.825 0.039 0.117 0.370" stroke="hsl(0.0,100%,35%)" stroke-width="0.00144"></path>
<path d="M1.626 0.311 Q1.252 0.405 1.353 0.608" stroke="hsl(0.0,100%,35%)" stroke-width="0.00144"></path>
<path d="M1.626 0.311 Q1.284 0.373 1.329 0.553" stroke="hsl(0.0,100%,35%)" stroke-width="0.00144"></path>
<path d="M1.626 0.311 Q1.180 0.513 1.477 0.775" stroke="hsl(0.0,100%,35%)" stroke-width="0.00144"></path>
<path d="M1.626 0.311 Q1.761 0.402 1.968 0.356" stroke="hsl(0.0,100%,35%)" stroke-width="0.00144"></path>
<path d="M1.626 0.311 Q1.071 0.323 0.972 0.596" stroke="hsl(0.0,100%,35%)" stroke-width="0.00288"></path>
<path d="M1.626 0.311 Q1.445 0.425 1.626 0.538" stroke="hsl(0.0,100%,35%)" stroke-width="0.00431"></path>
<path d="M1.626 0.311 Q1.772 0.371 1.921 0.313" stroke="hsl(0.0,100%,35%)" stroke-width="0.00144"></path>
<path d="M1.790 0.744 Q1.741 0.670 1.584 0.677" stroke="hsl(0.0,100%,35%)" stroke-width="0.02301"></path>
<path d="M1.790 0.744 Q1.681 0.589 1.353 0.608" stroke="hsl(0.0,100%,35%)" stroke-width="0.00431"></path>
<path d="M1.790 0.744 Q2.055 0.495 1.626 0.311" stroke="hsl(0.0,100%,35%)" stroke-width="0.00144"></path>
<path d="M1.790 0.744 Q1.859 0.509 1.414 0.423" stroke="hsl(0.0,100%,35%)" stroke-width="0.00144"></path>
<path d="M1.790 0.744 Q1.713 0.556 1.329 0.553" stroke="hsl(0.0,100%,35%)" stroke-width="0.00144"></path>
<path d="M1.790 0.744 Q1.500 0.507 0.972 0.596" stroke="hsl(0.0,100%,35%)" stroke-width="0.00288"></path>
<path d="M1.790 0.744 Q1.347 1.057 1.861 1.342" stroke="hsl(0.0,100%,35%)" stroke-width="0.00144"></path>
<path d="M1.790 0.744 Q1.598 0.643 1.358 0.715" stroke="hsl(0.0,100%,35%)" stroke-width="0.00144"></path>
<path d="M1.790 0.744 Q1.720 0.737 1.690 0.769" stroke="hsl(0.0,100%,35%)" stroke-width="0.00144"></path>
<path d="M1.790 0.744 Q1.815 0.805 1.938 0.806" stroke="hsl(0.0,100%,35%)" stroke-width="0.00144"></path>
<path d="M1.790 0.744 Q1.873 0.608 1.626 0.538" stroke="hsl(0.0,100%,35%)" stroke-width="0.00144"></path>
<path d="M1.790 0.744 Q1.777 0.770 1.824 0.783" stroke="hsl(0.0,100%,35%)" stroke-width="0.00288"></path>
<path d="M1.790 0.744 Q1.609 0.697 1.477 0.775" stroke="hsl(0.0,100%,35%)" stroke-width="0.00144"></path>
<path d="M1.790 0.744 Q2.143 0.307 1.368 0.039" stroke="hsl(0.0,100%,35%)" stroke-width="0.00144"></path>
<path d="M1.130 0.124 Q0.886 0.378 1.329 0.553" stroke="hsl(0.0,100%,35%)" stroke-width="0.00144"></path>
<path d="M1.130 0.124 Q0.964 0.566 1.790 0.744" stroke="hsl(0.0,100%,35%)" stroke-width="0.00144"></path>
<path d="M1.130 0.124 Q0.914 0.492 1.584 0.677" stroke="hsl(0.0,100%,35%)" stroke-width="0.00144"></path>
<path d="M1.353 0.608 Q1.170 0.639 1.191 0.735" stroke="hsl(0.0,100%,35%)" stroke-width="0.00144"></path>
<path d="M1.353 0.608 Q1.413 0.689 1.584 0.677" stroke="hsl(0.0,100%,35%)" stroke-width="0.01294"></path>
<path d="M1.353 0.608 Q1.462 0.764 1.790 0.744" stroke="hsl(0.0,100%,35%)" stroke-width="0.00144"></path>
<path d="M1.353 0.608 Q0.925 0.242 0.117 0.370" stroke="hsl(0.0,100%,35%)" stroke-width="0.00144"></path>
<path d="M1.353 0.608 Q1.623 0.716 1.894 0.608" stroke="hsl(0.0,100%,35%)" stroke-width="0.00144"></path>
<path d="M1.353 0.608 Q1.238 0.632 1.259 0.693" stroke="hsl(0.0,100%,35%)" stroke-width="0.00144"></path>
<path d="M1.626 0.538 Q1.494 0.599 1.584 0.677" stroke="hsl(0.0,100%,35%)" stroke-width="0.07191"></path>
<path d="M1.626 0.538 Q1.544 0.674 1.790 0.744" stroke="hsl(0.0,100%,35%)" stroke-width="0.03451"></path>
<path d="M1.626 0.538 Q1.618 0.431 1.406 0.411" stroke="hsl(0.0,100%,35%)" stroke-width="0.00144"></path>
<path d="M1.626 0.538 Q1.612 0.438 1.414 0.423" stroke="hsl(0.0,100%,35%)" stroke-width="0.00431"></path>
<path d="M1.626 0.538 Q1.808 0.425 1.626 0.311" stroke="hsl(0.0,100%,35%)" stroke-width="0.05465"></path>
<path d="M1.626 0.538 Q1.695 0.471 1.580 0.423" stroke="hsl(0.0,100%,35%)" stroke-width="0.00431"></path>
<path d="M1.626 0.538 Q1.692 0.474 1.581 0.427" stroke="hsl(0.0,100%,35%)" stroke-width="0.00144"></path>
<path d="M1.626 0.538 Q1.007 0.152 0.117 0.370" stroke="hsl(0.0,100%,35%)" stroke-width="0.00288"></path>
<path d="M1.626 0.538 Q1.804 0.317 1.412 0.182" stroke="hsl(0.0,100%,35%)" stroke-width="0.00288"></path>
<path d="M1.626 0.538 Q1.587 0.371 1.252 0.353" stroke="hsl(0.0,100%,35%)" stroke-width="0.00288"></path>
<path d="M1.626 0.538 Q0.925 0.327 0.359 0.622" stroke="hsl(0.0,100%,35%)" stroke-width="0.00144"></path>
<path d="M1.626 0.538 Q1.319 0.542 1.259 0.693" stroke="hsl(0.0,100%,35%)" stroke-width="0.00144"></path>
<path d="M1.626 0.538 Q1.424 0.075 0.477 0.072" stroke="hsl(0.0,100%,35%)" stroke-width="0.00144"></path>
<path d="M1.626 0.538 Q1.175 0.594 1.184 0.826" stroke="hsl(0.0,100%,35%)" stroke-width="0.00144"></path>
<path d="M1.626 0.538 Q1.897 0.237 1.368 0.039" stroke="hsl(0.0,100%,35%)" stroke-width="0.00431"></path>
<path d="M1.626 0.538 Q1.434 0.518 1.353 0.608" stroke="hsl(0.0,100%,35%)" stroke-width="0.00431"></path>
<path d="M1.626 0.538 Q1.704 0.627 1.894 0.608" stroke="hsl(0.0,100%,35%)" stroke-width="0.00288"></path>
<path d="M1.626 0.538 Q1.362 0.627 1.477 0.775" stroke="hsl(0.0,100%,35%)" stroke-width="0.00144"></path>
<path d="M1.626 0.538 Q1.673 0.453 1.516 0.411" stroke="hsl(0.0,100%,35%)" stroke-width="0.00431"></path>
<path d="M1.626 0.538 Q1.302 0.704 1.553 0.898" stroke="hsl(0.0,100%,35%)" stroke-width="0.00288"></path>
<path d="M1.626 0.538 Q1.253 0.436 0.972 0.596" stroke="hsl(0.0,100%,35%)" stroke-width="0.00431"></path>
<path d="M1.626 0.538 Q1.699 0.453 1.548 0.398" stroke="hsl(0.0,100%,35%)" stroke-width="0.00144"></path>
<path d="M1.626 0.538 Q1.711 0.452 1.561 0.391" stroke="hsl(0.0,100%,35%)" stroke-width="0.00288"></path>
<path d="M1.626 0.538 Q1.943 0.516 1.968 0.356" stroke="hsl(0.0,100%,35%)" stroke-width="0.00144"></path>
<path d="M1.626 0.538 Q1.757 0.397 1.511 0.302" stroke="hsl(0.0,100%,35%)" stroke-width="0.00288"></path>
<path d="M1.626 0.538 Q1.738 0.581 1.846 0.535" stroke="hsl(0.0,100%,35%)" stroke-width="0.00144"></path>
<path d="M1.626 0.538 Q1.660 0.484 1.562 0.456" stroke="hsl(0.0,100%,35%)" stroke-width="0.00144"></path>
<path d="M1.357 0.465 Q1.272 0.504 1.329 0.553" stroke="hsl(0.0,100%,35%)" stroke-width="0.00431"></path>
<path d="M1.357 0.465 Q1.300 0.617 1.584 0.677" stroke="hsl(0.0,100%,35%)" stroke-width="0.00288"></path>
<path d="M1.357 0.465 Q1.169 0.644 1.477 0.775" stroke="hsl(0.0,100%,35%)" stroke-width="0.00431"></path>
<path d="M1.357 0.465 Q1.611 0.335 1.412 0.182" stroke="hsl(0.0,100%,35%)" stroke-width="0.00288"></path>
<path d="M1.357 0.465 Q1.059 0.454 0.972 0.596" stroke="hsl(0.0,100%,35%)" stroke-width="0.00288"></path>
<path d="M1.357 0.465 Q1.126 0.559 1.259 0.693" stroke="hsl(0.0,100%,35%)" stroke-width="0.00144"></path>
<path d="M0.980 0.337 Q1.324 0.453 1.626 0.311" stroke="hsl(0.0,100%,35%)" stroke-width="0.00288"></path>
<path d="M0.980 0.337 Q1.010 0.628 1.584 0.677" stroke="hsl(0.0,100%,35%)" stroke-width="0.00144"></path>
<path d="M0.980 0.337 Q1.142 0.567 1.626 0.538" stroke="hsl(0.0,100%,35%)" stroke-width="0.00144"></path>
<path d="M0.980 0.337 Q0.878 0.656 1.477 0.775" stroke="hsl(0.0,100%,35%)" stroke-width="0.00144"></path>
<path d="M1.946 0.755 Q1.827 0.644 1.584 0.677" stroke="hsl(0.0,100%,35%)" stroke-width="0.00719"></path>
<path d="M1.946 0.755 Q1.877 0.719 1.790 0.744" stroke="hsl(0.0,100%,35%)" stroke-width="0.00575"></path>
<path d="M1.946 0.755 Q1.653 0.586 1.259 0.693" stroke="hsl(0.0,100%,35%)" stroke-width="0.00144"></path>
<path d="M1.946 0.755 Q1.768 0.563 1.353 0.608" stroke="hsl(0.0,100%,35%)" stroke-width="0.00144"></path>
<path d="M1.946 0.755 Q1.587 0.481 0.972 0.596" stroke="hsl(0.0,100%,35%)" stroke-width="0.00144"></path>
<path d="M0.117 0.370 Q0.305 0.446 0.495 0.371" stroke="hsl(0.0,100%,35%)" stroke-width="0.00144"></path>
<path d="M0.117 0.370 Q0.249 0.390 0.316 0.330" stroke="hsl(0.0,100%,35%)" stroke-width="0.00144"></path>
<path d="M0.117 0.370 Q0.575 0.526 0.980 0.337" stroke="hsl(0.0,100%,35%)" stroke-width="0.00144"></path>
<path d="M1.133 0.454 Q1.180 0.656 1.584 0.677" stroke="hsl(0.0,100%,35%)" stroke-width="0.00144"></path>
<path d="M1.133 0.454 Q1.120 0.575 1.353 0.608" stroke="hsl(0.0,100%,35%)" stroke-width="0.00144"></path>
<path d="M1.133 0.454 Q1.011 0.416 0.909 0.467" stroke="hsl(0.0,100%,35%)" stroke-width="0.00144"></path>
<path d="M1.917 0.214 Q1.973 0.145 1.850 0.102" stroke="hsl(0.0,100%,35%)" stroke-width="0.00144"></path>
<path d="M1.917 0.214 Q1.139 0.216 0.972 0.596" stroke="hsl(0.0,100%,35%)" stroke-width="0.00144"></path>
<path d="M1.917 0.214 Q1.829 0.196 1.774 0.235" stroke="hsl(0.0,100%,35%)" stroke-width="0.00144"></path>
<path d="M1.917 0.214 Q1.024 -0.048 0.316 0.330" stroke="hsl(0.0,100%,35%)" stroke-width="0.00144"></path>
<path d="M1.917 0.214 Q1.893 0.240 1.938 0.257" stroke="hsl(0.0,100%,35%)" stroke-width="0.00144"></path>
<path d="M0.477 0.072 Q0.486 0.515 1.353 0.608" stroke="hsl(0.0,100%,35%)" stroke-width="0.00144"></path>
<path d="M0.477 0.072 Q0.354 0.701 1.553 0.898" stroke="hsl(0.0,100%,35%)" stroke-width="0.00144"></path>
<path d="M0.477 0.072 Q0.725 0.450 1.516 0.411" stroke="hsl(0.0,100%,35%)" stroke-width="0.00144"></path>
<path d="M0.477 0.072 Q0.349 0.110 0.394 0.181" stroke="hsl(0.0,100%,35%)" stroke-width="0.00288"></path>
<path d="M0.965 0.035 Q0.519 0.317 0.972 0.596" stroke="hsl(0.0,100%,35%)" stroke-width="0.00144"></path>
<path d="M0.965 0.035 Q1.210 0.297 1.774 0.235" stroke="hsl(0.0,100%,35%)" stroke-width="0.00144"></path>
<path d="M0.965 0.035 Q0.882 0.027 0.849 0.066" stroke="hsl(0.0,100%,35%)" stroke-width="0.00144"></path>
<path d="M1.805 0.386 Q1.461 0.487 1.584 0.677" stroke="hsl(0.0,100%,35%)" stroke-width="0.00863"></path>
<path d="M1.805 0.386 Q1.775 0.313 1.626 0.311" stroke="hsl(0.0,100%,35%)" stroke-width="0.02157"></path>
<path d="M1.805 0.386 Q1.594 0.426 1.626 0.538" stroke="hsl(0.0,100%,35%)" stroke-width="0.01294"></path>
<path d="M0.859 0.463 Q1.100 0.790 1.790 0.744" stroke="hsl(0.0,100%,35%)" stroke-width="0.00144"></path>
<path d="M0.859 0.463 Q1.022 0.602 1.329 0.553" stroke="hsl(0.0,100%,35%)" stroke-width="0.00144"></path>
<path d="M0.859 0.463 Q0.809 0.552 0.972 0.596" stroke="hsl(0.0,100%,35%)" stroke-width="0.00144"></path>
<path d="M1.206 0.047 Q0.403 -0.009 0.117 0.370" stroke="hsl(0.0,100%,35%)" stroke-width="0.00288"></path>
<path d="M1.206 0.047 Q1.106 0.057 1.103 0.108" stroke="hsl(0.0,100%,35%)" stroke-width="0.00144"></path>
<path d="M1.206 0.047 Q1.293 0.075 1.368 0.039" stroke="hsl(0.0,100%,35%)" stroke-width="0.00288"></path>
<path d="M1.336 0.391 Q1.231 0.584 1.584 0.677" stroke="hsl(0.0,100%,35%)" stroke-width="0.00288"></path>
<path d="M1.336 0.391 Q1.309 0.345 1.214 0.349" stroke="hsl(0.0,100%,35%)" stroke-width="0.00144"></path>
<path d="M1.336 0.391 Q1.677 0.309 1.592 0.125" stroke="hsl(0.0,100%,35%)" stroke-width="0.00144"></path>
<path d="M1.592 0.125 Q0.954 0.504 1.553 0.898" stroke="hsl(0.0,100%,35%)" stroke-width="0.00144"></path>
<path d="M1.592 0.125 Q1.348 0.271 1.580 0.423" stroke="hsl(0.0,100%,35%)" stroke-width="0.00144"></path>
<path d="M1.592 0.125 Q0.905 0.236 0.972 0.596" stroke="hsl(0.0,100%,35%)" stroke-width="0.00288"></path>
<path d="M1.592 0.125 Q1.685 0.174 1.803 0.140" stroke="hsl(0.0,100%,35%)" stroke-width="0.00144"></path>
<path d="M1.592 0.125 Q1.457 0.117 1.412 0.182" stroke="hsl(0.0,100%,35%)" stroke-width="0.00863"></path>
<path d="M1.592 0.125 Q1.682 0.120 1.692 0.075" stroke="hsl(0.0,100%,35%)" stroke-width="0.00144"></path>
<path d="M0.645 0.249 Q1.086 0.476 1.626 0.311" stroke="hsl(0.0,100%,35%)" stroke-width="0.00144"></path>
<path d="M0.645 0.249 Q1.082 0.369 1.412 0.182" stroke="hsl(0.0,100%,35%)" stroke-width="0.00144"></path>
<path d="M0.645 0.249 Q0.742 0.360 0.980 0.337" stroke="hsl(0.0,100%,35%)" stroke-width="0.00288"></path>
<path d="M0.645 0.249 Q0.531 0.488 0.972 0.596" stroke="hsl(0.0,100%,35%)" stroke-width="0.00144"></path>
<path d="M1.150 0.577 Q1.258 0.601 1.329 0.553" stroke="hsl(0.0,100%,35%)" stroke-width="0.00288"></path>
<path d="M1.150 0.577 Q1.286 0.714 1.584 0.677" stroke="hsl(0.0,100%,35%)" stroke-width="0.00144"></path>
<path d="M1.150 0.577 Q1.155 0.741 1.477 0.775" stroke="hsl(0.0,100%,35%)" stroke-width="0.00144"></path>
<path d="M0.913 0.683 Q1.012 0.651 0.972 0.596" stroke="hsl(0.0,100%,35%)" stroke-width="0.00288"></path>
<path d="M0.913 0.683 Q1.193 0.733 1.353 0.608" stroke="hsl(0.0,100%,35%)" stroke-width="0.00144"></path>
<path d="M0.913 0.683 Q1.567 0.639 1.626 0.311" stroke="hsl(0.0,100%,35%)" stroke-width="0.00144"></path>
<path d="M1.136 0.159 Q1.097 0.098 0.971 0.104" stroke="hsl(0.0,100%,35%)" stroke-width="0.00144"></path>
<path d="M1.136 0.159 Q1.010 0.122 0.910 0.175" stroke="hsl(0.0,100%,35%)" stroke-width="0.00144"></path>
<path d="M1.136 0.159 Q1.146 0.380 1.580 0.423" stroke="hsl(0.0,100%,35%)" stroke-width="0.00144"></path>
<path d="M1.136 0.159 Q1.033 0.177 1.047 0.231" stroke="hsl(0.0,100%,35%)" stroke-width="0.00144"></path>
<path d="M1.366 0.569 Q1.388 0.667 1.584 0.677" stroke="hsl(0.0,100%,35%)" stroke-width="0.03451"></path>
<path d="M1.366 0.569 Q1.256 0.695 1.477 0.775" stroke="hsl(0.0,100%,35%)" stroke-width="0.00144"></path>
<path d="M1.366 0.569 Q1.069 0.661 1.184 0.826" stroke="hsl(0.0,100%,35%)" stroke-width="0.00288"></path>
<path d="M1.366 0.569 Q1.328 0.586 1.353 0.608" stroke="hsl(0.0,100%,35%)" stroke-width="0.00144"></path>
<path d="M1.366 0.569 Q1.424 0.768 1.824 0.783" stroke="hsl(0.0,100%,35%)" stroke-width="0.00144"></path>
<path d="M1.366 0.569 Q1.147 0.504 0.972 0.596" stroke="hsl(0.0,100%,35%)" stroke-width="0.00144"></path>
<path d="M1.335 0.582 Q1.143 0.517 0.972 0.596" stroke="hsl(0.0,100%,35%)" stroke-width="0.00144"></path>
<path d="M1.335 0.582 Q1.324 0.599 1.353 0.608" stroke="hsl(0.0,100%,35%)" stroke-width="0.00144"></path>
<path d="M1.335 0.582 Q1.383 0.680 1.584 0.677" stroke="hsl(0.0,100%,35%)" stroke-width="0.00144"></path>
<path d="M0.090 0.243 Q0.205 0.197 0.142 0.132" stroke="hsl(0.0,100%,35%)" stroke-width="0.00144"></path>
<path d="M0.090 0.243 Q0.002 0.312 0.117 0.370" stroke="hsl(0.0,100%,35%)" stroke-width="0.00288"></path>
<path d="M0.090 0.243 Q0.347 0.732 1.358 0.715" stroke="hsl(0.0,100%,35%)" stroke-width="0.00144"></path>
<path d="M0.090 0.243 Q0.196 0.264 0.261 0.217" stroke="hsl(0.0,100%,35%)" stroke-width="0.00144"></path>
<path d="M1.119 0.699 Q1.237 0.809 1.477 0.775" stroke="hsl(0.0,100%,35%)" stroke-width="0.00144"></path>
<path d="M1.119 0.699 Q1.368 0.781 1.584 0.677" stroke="hsl(0.0,100%,35%)" stroke-width="0.00144"></path>
<path d="M1.119 0.699 Q1.679 0.499 1.412 0.182" stroke="hsl(0.0,100%,35%)" stroke-width="0.00144"></path>
<path d="M1.119 0.699 Q1.128 0.618 0.972 0.596" stroke="hsl(0.0,100%,35%)" stroke-width="0.00144"></path>
<path d="M1.119 0.699 Q1.309 0.700 1.353 0.608" stroke="hsl(0.0,100%,35%)" stroke-width="0.00144"></path>
<path d="M1.380 0.787 Q1.635 0.387 0.910 0.175" stroke="hsl(0.0,100%,35%)" stroke-width="0.00144"></path>
<path d="M1.380 0.787 Q1.510 0.692 1.353 0.608" stroke="hsl(0.0,100%,35%)" stroke-width="0.00288"></path>
<path d="M1.380 0.787 Q1.443 0.371 0.645 0.249" stroke="hsl(0.0,100%,35%)" stroke-width="0.00144"></path>
<path d="M0.349 0.486 Q0.462 0.535 0.584 0.491" stroke="hsl(0.0,100%,35%)" stroke-width="0.00144"></path>
<path d="M0.349 0.486 Q1.123 0.546 1.412 0.182" stroke="hsl(0.0,100%,35%)" stroke-width="0.00144"></path>
<path d="M0.349 0.486 Q0.199 0.447 0.091 0.511" stroke="hsl(0.0,100%,35%)" stroke-width="0.00144"></path>
<path d="M0.349 0.486 Q0.244 0.556 0.359 0.622" stroke="hsl(0.0,100%,35%)" stroke-width="0.00144"></path>
</g>
<text x="1.385" y="0.564" font-size="0.011043" fill="hsl(0.0,100%,20%)">ajuma</text>
<text x="1.584" y="0.629" font-size="0.097060" fill="hsl(0.0,100%,20%)">bartekn</text>
<text x="1.252" y="0.349" font-size="0.009564" fill="hsl(0.0,100%,20%)">gab</text>
<text x="1.894" y="0.587" font-size="0.043477" fill="hsl(0.0,100%,20%)">yukishiino</text>
<text x="0.885" y="0.838" font-size="0.011043" fill="hsl(0.0,100%,20%)">andre.kempe</text>
<text x="1.477" y="0.764" font-size="0.023426" fill="hsl(0.0,100%,20%)">dcheng</text>
<text x="1.259" y="0.677" font-size="0.031235" fill="hsl(0.0,100%,20%)">glazunov</text>
<text x="0.972" y="0.581" font-size="0.031235" fill="hsl(0.0,100%,20%)">haraken</text>
<text x="0.560" y="0.795" font-size="0.007809" fill="hsl(0.0,100%,20%)">joenotcharles</text>
<text x="1.329" y="0.536" font-size="0.034037" fill="hsl(0.0,100%,20%)">arthursonzogni</text>
<text x="1.412" y="0.167" font-size="0.029735" fill="hsl(0.0,100%,20%)">danakj</text>
<text x="1.626" y="0.281" font-size="0.061486" fill="hsl(0.0,100%,20%)">tasak</text>
<text x="1.790" y="0.720" font-size="0.049386" fill="hsl(0.0,100%,20%)">keishi</text>
<text x="1.130" y="0.119" font-size="0.011043" fill="hsl(0.0,100%,20%)">pmeuleman</text>
<text x="1.353" y="0.589" font-size="0.038651" fill="hsl(0.0,100%,20%)">lizeb</text>
<text x="1.358" y="0.707" font-size="0.014609" fill="hsl(0.0,100%,20%)">mark</text>
<text x="1.553" y="0.886" font-size="0.024693" fill="hsl(0.0,100%,20%)">bikineev</text>
<text x="1.562" y="0.451" font-size="0.009564" fill="hsl(0.0,100%,20%)">erikchen</text>
<text x="1.368" y="0.031" font-size="0.016565" fill="hsl(0.0,100%,20%)">mpdenton</text>
<text x="1.626" y="0.498" font-size="0.080206" fill="hsl(0.0,100%,20%)">kdlee</text>
<text x="0.909" y="0.462" font-size="0.009564" fill="hsl(0.0,100%,20%)">wfh</text>
<text x="1.523" y="0.305" font-size="0.011043" fill="hsl(0.0,100%,20%)">tsepez</text>
<text x="1.357" y="0.455" font-size="0.020660" fill="hsl(0.0,100%,20%)">paulsemel</text>
<text x="1.846" y="0.530" font-size="0.011043" fill="hsl(0.0,100%,20%)">altimin</text>
<text x="1.561" y="0.386" font-size="0.011043" fill="hsl(0.0,100%,20%)">bgeffon</text>
<text x="0.980" y="0.329" font-size="0.016565" fill="hsl(0.0,100%,20%)">thestig</text>
<text x="1.465" y="0.819" font-size="0.009564" fill="hsl(0.0,100%,20%)">gbeaty</text>
<text x="1.548" y="0.394" font-size="0.009564" fill="hsl(0.0,100%,20%)">jochen</text>
<text x="1.946" y="0.745" font-size="0.020660" fill="hsl(0.0,100%,20%)">richard.townsend</text>
<text x="1.258" y="0.294" font-size="0.005522" fill="hsl(0.0,100%,20%)">janagrill</text>
<text x="0.117" y="0.361" font-size="0.018313" fill="hsl(0.0,100%,20%)">fdoray</text>
<text x="0.495" y="0.368" font-size="0.005522" fill="hsl(0.0,100%,20%)">brucedawson</text>
<text x="0.316" y="0.326" font-size="0.007809" fill="hsl(0.0,100%,20%)">rsesek</text>
<text x="1.133" y="0.450" font-size="0.009564" fill="hsl(0.0,100%,20%)">floresa</text>
<text x="1.917" y="0.208" font-size="0.012347" fill="hsl(0.0,100%,20%)">guochengwei</text>
<text x="1.850" y="0.099" font-size="0.005522" fill="hsl(0.0,100%,20%)">dnicoara</text>
<text x="1.774" y="0.231" font-size="0.007809" fill="hsl(0.0,100%,20%)">kimstephanie</text>
<text x="1.938" y="0.254" font-size="0.005522" fill="hsl(0.0,100%,20%)">smaier</text>
<text x="0.477" y="0.066" font-size="0.013525" fill="hsl(0.0,100%,20%)">hans</text>
<text x="1.516" y="0.406" font-size="0.011043" fill="hsl(0.0,100%,20%)">mlippautz</text>
<text x="0.394" y="0.177" font-size="0.007809" fill="hsl(0.0,100%,20%)">thakis</text>
<text x="0.965" y="0.030" font-size="0.009564" fill="hsl(0.0,100%,20%)">hnakashima</text>
<text x="0.849" y="0.063" font-size="0.005522" fill="hsl(0.0,100%,20%)">thiabaud</text>
<text x="1.805" y="0.371" font-size="0.030243" fill="hsl(0.0,100%,20%)">honokaanada</text>
<text x="0.859" y="0.458" font-size="0.009564" fill="hsl(0.0,100%,20%)">jdapena</text>
<text x="1.206" y="0.041" font-size="0.012347" fill="hsl(0.0,100%,20%)">jkoshy</text>
<text x="1.103" y="0.105" font-size="0.005522" fill="hsl(0.0,100%,20%)">anasalazar</text>
<text x="1.406" y="0.409" font-size="0.005522" fill="hsl(0.0,100%,20%)">rogerm</text>
<text x="1.414" y="0.418" font-size="0.011043" fill="hsl(0.0,100%,20%)">tkent</text>
<text x="1.580" y="0.417" font-size="0.012347" fill="hsl(0.0,100%,20%)">kylechar</text>
<text x="1.581" y="0.424" font-size="0.005522" fill="hsl(0.0,100%,20%)">danilchap</text>
<text x="0.359" y="0.618" font-size="0.007809" fill="hsl(0.0,100%,20%)">sdefresne</text>
<text x="1.184" y="0.821" font-size="0.009564" fill="hsl(0.0,100%,20%)">leszeks</text>
<text x="1.968" y="0.352" font-size="0.007809" fill="hsl(0.0,100%,20%)">etienneb</text>
<text x="1.511" y="0.299" font-size="0.007809" fill="hsl(0.0,100%,20%)">metzman</text>
<text x="1.861" y="1.340" font-size="0.005522" fill="hsl(0.0,100%,20%)">ccameron</text>
<text x="1.690" y="0.767" font-size="0.005522" fill="hsl(0.0,100%,20%)">rakina</text>
<text x="1.938" y="0.803" font-size="0.005522" fill="hsl(0.0,100%,20%)">wrong</text>
<text x="1.824" y="0.778" font-size="0.009564" fill="hsl(0.0,100%,20%)">ssid</text>
<text x="1.191" y="0.733" font-size="0.005522" fill="hsl(0.0,100%,20%)">pasko</text>
<text x="1.336" y="0.386" font-size="0.011043" fill="hsl(0.0,100%,20%)">marshall</text>
<text x="1.214" y="0.346" font-size="0.005522" fill="hsl(0.0,100%,20%)">perrier</text>
<text x="1.592" y="0.115" font-size="0.019908" fill="hsl(0.0,100%,20%)">pkasting</text>
<text x="0.645" y="0.242" font-size="0.013525" fill="hsl(0.0,100%,20%)">pbos</text>
<text x="1.150" y="0.571" font-size="0.011043" fill="hsl(0.0,100%,20%)">piotr.tworek</text>
<text x="1.803" y="0.137" font-size="0.005522" fill="hsl(0.0,100%,20%)">agrieve</text>
<text x="1.692" y="0.073" font-size="0.005522" fill="hsl(0.0,100%,20%)">wittman</text>
<text x="0.913" y="0.677" font-size="0.011043" fill="hsl(0.0,100%,20%)">qitiezheng</text>
<text x="1.136" y="0.153" font-size="0.011043" fill="hsl(0.0,100%,20%)">rwkeane</text>
<text x="0.971" y="0.101" font-size="0.005522" fill="hsl(0.0,100%,20%)">ajgo</text>
<text x="0.910" y="0.171" font-size="0.007809" fill="hsl(0.0,100%,20%)">ddorwin</text>
<text x="1.047" y="0.228" font-size="0.005522" fill="hsl(0.0,100%,20%)">mfoltz</text>
<text x="1.366" y="0.554" font-size="0.030243" fill="hsl(0.0,100%,20%)">sroettger</text>
<text x="1.335" y="0.578" font-size="0.009564" fill="hsl(0.0,100%,20%)">stha09</text>
<text x="1.930" y="0.425" font-size="0.007809" fill="hsl(0.0,100%,20%)">boliu</text>
<text x="1.921" y="0.311" font-size="0.005522" fill="hsl(0.0,100%,20%)">tikuta</text>
<text x="0.090" y="0.237" font-size="0.012347" fill="hsl(0.0,100%,20%)">vollick</text>
<text x="0.142" y="0.129" font-size="0.005522" fill="hsl(0.0,100%,20%)">dtapuska</text>
<text x="0.261" y="0.215" font-size="0.005522" fill="hsl(0.0,100%,20%)">anthonyvd</text>
<text x="1.119" y="0.693" font-size="0.012347" fill="hsl(0.0,100%,20%)">wangqing-hf</text>
<text x="1.380" y="0.782" font-size="0.011043" fill="hsl(0.0,100%,20%)">wez</text>
<text x="1.950" y="0.563" font-size="0.005522" fill="hsl(0.0,100%,20%)">rockot</text>
<text x="1.966" y="0.418" font-size="0.005522" fill="hsl(0.0,100%,20%)">rohitrao</text>
<text x="1.966" y="0.461" font-size="0.005522" fill="hsl(0.0,100%,20%)">mamir</text>
<text x="1.886" y="0.557" font-size="0.005522" fill="hsl(0.0,100%,20%)">meacer</text>
<text x="1.967" y="0.542" font-size="0.005522" fill="hsl(0.0,100%,20%)">victortan</text>
<text x="0.349" y="0.480" font-size="0.011043" fill="hsl(0.0,100%,20%)">zhaojiazhong-hf</text>
<text x="0.584" y="0.488" font-size="0.005522" fill="hsl(0.0,100%,20%)">cwallez</text>
<text x="0.091" y="0.508" font-size="0.005522" fill="hsl(0.0,100%,20%)">kbr</text>
</svg>
