<svg width="4000" height="2000" viewBox="-0.025 -0.025 2.05 1.05" xmlns="http://www.w3.org/2000/svg">
  <style>
    path {
      fill: none;
      stroke-linecap: round;
      stroke-opacity: 0.4;
    }

    text {
      text-anchor: middle;
      alignment-baseline: hanging;
    }
  </style>
  <g opacity="0.4">
<path d="M1.652 0.307 Q0.849 0.112 0.291 0.461" stroke="hsl(0.0,100%,35%)" stroke-width="0.00428"></path>
<path d="M1.652 0.307 Q1.587 0.400 1.754 0.452" stroke="hsl(0.0,100%,35%)" stroke-width="0.00856"></path>
<path d="M1.652 0.307 Q1.346 0.365 1.391 0.527" stroke="hsl(0.0,100%,35%)" stroke-width="0.00998"></path>
<path d="M1.652 0.307 Q1.201 0.056 0.612 0.221" stroke="hsl(0.0,100%,35%)" stroke-width="0.00570"></path>
<path d="M1.652 0.307 Q0.718 0.264 0.428 0.710" stroke="hsl(0.0,100%,35%)" stroke-width="0.00143"></path>
<path d="M1.652 0.307 Q1.245 0.448 1.429 0.677" stroke="hsl(0.0,100%,35%)" stroke-width="0.00143"></path>
<path d="M0.291 0.461 Q0.668 0.303 0.442 0.084" stroke="hsl(0.0,100%,35%)" stroke-width="0.01711"></path>
<path d="M0.291 0.461 Q0.386 0.339 0.169 0.265" stroke="hsl(0.0,100%,35%)" stroke-width="0.01426"></path>
<path d="M0.291 0.461 Q1.029 0.749 1.754 0.452" stroke="hsl(0.0,100%,35%)" stroke-width="0.01426"></path>
<path d="M0.291 0.461 Q0.643 0.405 0.612 0.221" stroke="hsl(0.0,100%,35%)" stroke-width="0.02282"></path>
<path d="M0.291 0.461 Q0.160 0.613 0.428 0.710" stroke="hsl(0.0,100%,35%)" stroke-width="0.00998"></path>
<path d="M0.291 0.461 Q0.463 0.477 0.533 0.397" stroke="hsl(0.0,100%,35%)" stroke-width="0.00143"></path>
<path d="M0.291 0.461 Q0.874 0.522 1.121 0.251" stroke="hsl(0.0,100%,35%)" stroke-width="0.00143"></path>
<path d="M0.291 0.461 Q0.394 0.387 0.272 0.320" stroke="hsl(0.0,100%,35%)" stroke-width="0.01141"></path>
<path d="M0.291 0.461 Q0.304 0.547 0.474 0.559" stroke="hsl(0.0,100%,35%)" stroke-width="0.00428"></path>
<path d="M0.291 0.461 Q0.290 0.360 0.092 0.338" stroke="hsl(0.0,100%,35%)" stroke-width="0.00285"></path>
<path d="M0.291 0.461 Q0.511 0.810 1.239 0.779" stroke="hsl(0.0,100%,35%)" stroke-width="0.00143"></path>
<path d="M0.291 0.461 Q0.687 0.797 1.429 0.677" stroke="hsl(0.0,100%,35%)" stroke-width="0.01141"></path>
<path d="M0.291 0.461 Q0.798 0.736 1.447 0.549" stroke="hsl(0.0,100%,35%)" stroke-width="0.00143"></path>
<path d="M0.291 0.461 Q0.560 0.418 0.535 0.276" stroke="hsl(0.0,100%,35%)" stroke-width="0.00143"></path>
<path d="M0.291 0.461 Q0.743 0.479 0.878 0.263" stroke="hsl(0.0,100%,35%)" stroke-width="0.00143"></path>
<path d="M0.291 0.461 Q0.538 0.600 0.863 0.510" stroke="hsl(0.0,100%,35%)" stroke-width="0.00998"></path>
<path d="M0.291 0.461 Q0.717 0.473 0.834 0.267" stroke="hsl(0.0,100%,35%)" stroke-width="0.00143"></path>
<path d="M0.291 0.461 Q0.497 0.472 0.563 0.374" stroke="hsl(0.0,100%,35%)" stroke-width="0.00285"></path>
<path d="M0.291 0.461 Q0.889 0.625 1.340 0.370" stroke="hsl(0.0,100%,35%)" stroke-width="0.00143"></path>
<path d="M0.291 0.461 Q0.788 0.714 1.391 0.527" stroke="hsl(0.0,100%,35%)" stroke-width="0.00856"></path>
<path d="M0.291 0.461 Q0.258 0.733 0.781 0.808" stroke="hsl(0.0,100%,35%)" stroke-width="0.00143"></path>
<path d="M0.291 0.461 Q0.923 0.770 1.664 0.529" stroke="hsl(0.0,100%,35%)" stroke-width="0.00143"></path>
<path d="M0.291 0.461 Q0.629 0.334 0.455 0.141" stroke="hsl(0.0,100%,35%)" stroke-width="0.00143"></path>
<path d="M0.291 0.461 Q0.509 0.366 0.371 0.239" stroke="hsl(0.0,100%,35%)" stroke-width="0.00143"></path>
<path d="M1.754 0.452 Q1.513 0.417 1.391 0.527" stroke="hsl(0.0,100%,35%)" stroke-width="0.04706"></path>
<path d="M1.754 0.452 Q1.411 0.500 1.429 0.677" stroke="hsl(0.0,100%,35%)" stroke-width="0.01711"></path>
<path d="M1.754 0.452 Q1.392 0.006 0.442 0.084" stroke="hsl(0.0,100%,35%)" stroke-width="0.01569"></path>
<path d="M1.754 0.452 Q1.015 0.164 0.291 0.461" stroke="hsl(0.0,100%,35%)" stroke-width="0.01996"></path>
<path d="M1.754 0.452 Q0.983 0.436 0.781 0.808" stroke="hsl(0.0,100%,35%)" stroke-width="0.00143"></path>
<path d="M1.754 0.452 Q0.884 0.316 0.428 0.710" stroke="hsl(0.0,100%,35%)" stroke-width="0.00285"></path>
<path d="M1.754 0.452 Q1.233 0.069 0.371 0.239" stroke="hsl(0.0,100%,35%)" stroke-width="0.00143"></path>
<path d="M1.754 0.452 Q1.935 0.405 1.884 0.306" stroke="hsl(0.0,100%,35%)" stroke-width="0.00143"></path>
<path d="M1.754 0.452 Q1.647 0.473 1.664 0.529" stroke="hsl(0.0,100%,35%)" stroke-width="0.00143"></path>
<path d="M1.754 0.452 Q1.262 0.303 0.863 0.510" stroke="hsl(0.0,100%,35%)" stroke-width="0.00143"></path>
<path d="M1.754 0.452 Q1.951 0.417 1.926 0.312" stroke="hsl(0.0,100%,35%)" stroke-width="0.00143"></path>
<path d="M1.391 0.527 Q1.246 0.218 0.612 0.221" stroke="hsl(0.0,100%,35%)" stroke-width="0.00143"></path>
<path d="M1.391 0.527 Q1.526 0.583 1.664 0.529" stroke="hsl(0.0,100%,35%)" stroke-width="0.00143"></path>
<path d="M1.391 0.527 Q1.290 0.610 1.429 0.677" stroke="hsl(0.0,100%,35%)" stroke-width="0.03708"></path>
<path d="M1.391 0.527 Q0.894 0.274 0.291 0.461" stroke="hsl(0.0,100%,35%)" stroke-width="0.00998"></path>
<path d="M1.391 0.527 Q0.998 0.199 0.272 0.320" stroke="hsl(0.0,100%,35%)" stroke-width="0.00143"></path>
<path d="M1.391 0.527 Q1.141 0.413 0.863 0.510" stroke="hsl(0.0,100%,35%)" stroke-width="0.00285"></path>
<path d="M1.391 0.527 Q1.482 0.636 1.716 0.616" stroke="hsl(0.0,100%,35%)" stroke-width="0.00713"></path>
<path d="M1.391 0.527 Q1.112 0.179 0.371 0.239" stroke="hsl(0.0,100%,35%)" stroke-width="0.00285"></path>
<path d="M1.391 0.527 Q1.414 0.577 1.517 0.577" stroke="hsl(0.0,100%,35%)" stroke-width="0.00143"></path>
<path d="M1.391 0.527 Q1.401 0.549 1.447 0.549" stroke="hsl(0.0,100%,35%)" stroke-width="0.00143"></path>
<path d="M1.391 0.527 Q1.632 0.562 1.754 0.452" stroke="hsl(0.0,100%,35%)" stroke-width="0.00713"></path>
<path d="M1.391 0.527 Q1.477 0.335 1.121 0.251" stroke="hsl(0.0,100%,35%)" stroke-width="0.00143"></path>
<path d="M1.391 0.527 Q0.763 0.426 0.428 0.710" stroke="hsl(0.0,100%,35%)" stroke-width="0.00143"></path>
<path d="M0.612 0.221 Q0.129 0.429 0.428 0.710" stroke="hsl(0.0,100%,35%)" stroke-width="0.00428"></path>
<path d="M0.612 0.221 Q0.260 0.277 0.291 0.461" stroke="hsl(0.0,100%,35%)" stroke-width="0.03993"></path>
<path d="M0.612 0.221 Q0.227 0.549 0.781 0.808" stroke="hsl(0.0,100%,35%)" stroke-width="0.00143"></path>
<path d="M0.612 0.221 Q0.273 0.363 0.474 0.559" stroke="hsl(0.0,100%,35%)" stroke-width="0.00285"></path>
<path d="M0.612 0.221 Q0.757 0.530 1.391 0.527" stroke="hsl(0.0,100%,35%)" stroke-width="0.00713"></path>
<path d="M0.612 0.221 Q0.637 0.119 0.442 0.084" stroke="hsl(0.0,100%,35%)" stroke-width="0.03137"></path>
<path d="M0.612 0.221 Q0.478 0.182 0.371 0.239" stroke="hsl(0.0,100%,35%)" stroke-width="0.00998"></path>
<path d="M0.612 0.221 Q0.998 0.565 1.754 0.452" stroke="hsl(0.0,100%,35%)" stroke-width="0.00285"></path>
<path d="M0.612 0.221 Q0.801 0.151 0.705 0.043" stroke="hsl(0.0,100%,35%)" stroke-width="0.00143"></path>
<path d="M0.612 0.221 Q0.843 0.338 1.121 0.251" stroke="hsl(0.0,100%,35%)" stroke-width="0.00285"></path>
<path d="M0.612 0.221 Q0.571 0.532 1.168 0.620" stroke="hsl(0.0,100%,35%)" stroke-width="0.00143"></path>
<path d="M0.612 0.221 Q0.656 0.613 1.429 0.677" stroke="hsl(0.0,100%,35%)" stroke-width="0.00428"></path>
<path d="M0.612 0.221 Q0.686 0.289 0.834 0.267" stroke="hsl(0.0,100%,35%)" stroke-width="0.00428"></path>
<path d="M0.612 0.221 Q0.555 0.311 0.717 0.358" stroke="hsl(0.0,100%,35%)" stroke-width="0.00285"></path>
<path d="M0.612 0.221 Q0.756 0.184 0.714 0.105" stroke="hsl(0.0,100%,35%)" stroke-width="0.00143"></path>
<path d="M0.612 0.221 Q0.848 0.639 1.716 0.616" stroke="hsl(0.0,100%,35%)" stroke-width="0.00285"></path>
<path d="M0.612 0.221 Q0.749 0.233 0.801 0.168" stroke="hsl(0.0,100%,35%)" stroke-width="0.00143"></path>
<path d="M0.428 0.710 Q0.559 0.558 0.291 0.461" stroke="hsl(0.0,100%,35%)" stroke-width="0.03850"></path>
<path d="M0.428 0.710 Q0.572 0.644 0.474 0.559" stroke="hsl(0.0,100%,35%)" stroke-width="0.04991"></path>
<path d="M0.428 0.710 Q1.056 0.811 1.391 0.527" stroke="hsl(0.0,100%,35%)" stroke-width="0.00713"></path>
<path d="M0.428 0.710 Q0.911 0.502 0.612 0.221" stroke="hsl(0.0,100%,35%)" stroke-width="0.00143"></path>
<path d="M0.428 0.710 Q0.545 0.779 0.705 0.737" stroke="hsl(0.0,100%,35%)" stroke-width="0.00143"></path>
<path d="M0.428 0.710 Q0.955 0.894 1.429 0.677" stroke="hsl(0.0,100%,35%)" stroke-width="0.00143"></path>
<path d="M0.428 0.710 Q0.777 0.463 0.371 0.239" stroke="hsl(0.0,100%,35%)" stroke-width="0.00285"></path>
<path d="M0.428 0.710 Q0.344 0.748 0.399 0.797" stroke="hsl(0.0,100%,35%)" stroke-width="0.00143"></path>
<path d="M0.428 0.710 Q0.936 0.400 0.442 0.084" stroke="hsl(0.0,100%,35%)" stroke-width="0.00285"></path>
<path d="M0.428 0.710 Q0.806 0.697 0.863 0.510" stroke="hsl(0.0,100%,35%)" stroke-width="0.00143"></path>
<path d="M1.429 0.677 Q1.385 0.286 0.612 0.221" stroke="hsl(0.0,100%,35%)" stroke-width="0.00143"></path>
<path d="M1.429 0.677 Q1.530 0.595 1.391 0.527" stroke="hsl(0.0,100%,35%)" stroke-width="0.00713"></path>
<path d="M1.429 0.677 Q1.033 0.341 0.291 0.461" stroke="hsl(0.0,100%,35%)" stroke-width="0.00143"></path>
<path d="M1.429 0.677 Q1.251 0.246 0.371 0.239" stroke="hsl(0.0,100%,35%)" stroke-width="0.00143"></path>
<path d="M1.429 0.677 Q1.555 0.743 1.712 0.696" stroke="hsl(0.0,100%,35%)" stroke-width="0.00143"></path>
<path d="M1.429 0.677 Q1.436 0.768 1.615 0.784" stroke="hsl(0.0,100%,35%)" stroke-width="0.00143"></path>
<path d="M1.429 0.677 Q1.366 0.578 1.160 0.587" stroke="hsl(0.0,100%,35%)" stroke-width="0.00143"></path>
<path d="M1.429 0.677 Q1.328 0.375 0.717 0.358" stroke="hsl(0.0,100%,35%)" stroke-width="0.00285"></path>
<path d="M1.429 0.677 Q1.621 0.704 1.716 0.616" stroke="hsl(0.0,100%,35%)" stroke-width="0.00143"></path>
<path d="M1.171 0.571 Q1.314 0.540 1.285 0.463" stroke="hsl(0.0,100%,35%)" stroke-width="0.00143"></path>
<path d="M1.171 0.571 Q1.066 0.479 0.863 0.510" stroke="hsl(0.0,100%,35%)" stroke-width="0.00428"></path>
<path d="M1.171 0.571 Q1.164 0.575 1.169 0.579" stroke="hsl(0.0,100%,35%)" stroke-width="0.00143"></path>
<path d="M1.171 0.571 Q1.055 0.551 0.990 0.603" stroke="hsl(0.0,100%,35%)" stroke-width="0.00143"></path>
<path d="M0.863 0.510 Q1.199 0.432 1.121 0.251" stroke="hsl(0.0,100%,35%)" stroke-width="0.00143"></path>
<path d="M0.863 0.510 Q0.935 0.565 1.059 0.542" stroke="hsl(0.0,100%,35%)" stroke-width="0.00143"></path>
<path d="M0.863 0.510 Q0.927 0.626 1.168 0.620" stroke="hsl(0.0,100%,35%)" stroke-width="0.00285"></path>
<path d="M0.863 0.510 Q0.773 0.564 0.859 0.620" stroke="hsl(0.0,100%,35%)" stroke-width="0.00143"></path>
<path d="M0.863 0.510 Q0.616 0.371 0.291 0.461" stroke="hsl(0.0,100%,35%)" stroke-width="0.00143"></path>
<path d="M0.863 0.510 Q1.012 0.707 1.429 0.677" stroke="hsl(0.0,100%,35%)" stroke-width="0.00570"></path>
<path d="M0.533 0.397 Q0.360 0.381 0.291 0.461" stroke="hsl(0.0,100%,35%)" stroke-width="0.00856"></path>
<path d="M0.533 0.397 Q0.944 0.441 1.121 0.251" stroke="hsl(0.0,100%,35%)" stroke-width="0.00285"></path>
<path d="M0.533 0.397 Q0.230 0.532 0.428 0.710" stroke="hsl(0.0,100%,35%)" stroke-width="0.00285"></path>
<path d="M0.533 0.397 Q0.637 0.434 0.732 0.391" stroke="hsl(0.0,100%,35%)" stroke-width="0.00143"></path>
<path d="M0.638 0.965 Q1.320 0.662 0.878 0.263" stroke="hsl(0.0,100%,35%)" stroke-width="0.00428"></path>
<path d="M0.638 0.965 Q0.724 1.008 0.827 0.976" stroke="hsl(0.0,100%,35%)" stroke-width="0.00428"></path>
<path d="M0.638 0.965 Q0.729 0.930 0.680 0.877" stroke="hsl(0.0,100%,35%)" stroke-width="0.00143"></path>
<path d="M0.535 0.276 Q0.848 0.381 1.121 0.251" stroke="hsl(0.0,100%,35%)" stroke-width="0.00285"></path>
<path d="M0.535 0.276 Q0.642 0.162 0.442 0.084" stroke="hsl(0.0,100%,35%)" stroke-width="0.00570"></path>
<path d="M0.535 0.276 Q0.265 0.320 0.291 0.461" stroke="hsl(0.0,100%,35%)" stroke-width="0.00143"></path>
<path d="M0.535 0.276 Q0.561 0.353 0.717 0.358" stroke="hsl(0.0,100%,35%)" stroke-width="0.00143"></path>
<path d="M0.535 0.276 Q0.854 0.682 1.716 0.616" stroke="hsl(0.0,100%,35%)" stroke-width="0.00143"></path>
<path d="M0.442 0.084 Q0.065 0.242 0.291 0.461" stroke="hsl(0.0,100%,35%)" stroke-width="0.01996"></path>
<path d="M0.442 0.084 Q0.417 0.187 0.612 0.221" stroke="hsl(0.0,100%,35%)" stroke-width="0.00143"></path>
<path d="M0.442 0.084 Q0.285 0.151 0.380 0.242" stroke="hsl(0.0,100%,35%)" stroke-width="0.00143"></path>
<path d="M0.442 0.084 Q0.410 0.274 0.774 0.331" stroke="hsl(0.0,100%,35%)" stroke-width="0.00143"></path>
<path d="M0.474 0.559 Q0.679 0.378 0.371 0.239" stroke="hsl(0.0,100%,35%)" stroke-width="0.00143"></path>
<path d="M0.474 0.559 Q1.259 0.453 1.224 0.048" stroke="hsl(0.0,100%,35%)" stroke-width="0.00143"></path>
<path d="M0.474 0.559 Q0.913 0.492 0.878 0.263" stroke="hsl(0.0,100%,35%)" stroke-width="0.00143"></path>
<path d="M0.474 0.559 Q0.708 0.612 0.863 0.510" stroke="hsl(0.0,100%,35%)" stroke-width="0.00143"></path>
<path d="M0.371 0.239 Q0.023 0.486 0.428 0.710" stroke="hsl(0.0,100%,35%)" stroke-width="0.00285"></path>
<path d="M0.371 0.239 Q0.580 0.346 0.834 0.267" stroke="hsl(0.0,100%,35%)" stroke-width="0.00143"></path>
<path d="M0.371 0.239 Q0.153 0.334 0.291 0.461" stroke="hsl(0.0,100%,35%)" stroke-width="0.00143"></path>
<path d="M0.371 0.239 Q0.651 0.587 1.391 0.527" stroke="hsl(0.0,100%,35%)" stroke-width="0.00428"></path>
<path d="M0.371 0.239 Q0.344 0.772 1.378 0.903" stroke="hsl(0.0,100%,35%)" stroke-width="0.00143"></path>
<path d="M0.951 0.373 Q1.134 0.346 1.121 0.251" stroke="hsl(0.0,100%,35%)" stroke-width="0.00998"></path>
<path d="M0.951 0.373 Q1.048 0.538 1.391 0.527" stroke="hsl(0.0,100%,35%)" stroke-width="0.00143"></path>
<path d="M0.951 0.373 Q0.928 0.127 0.442 0.084" stroke="hsl(0.0,100%,35%)" stroke-width="0.00143"></path>
<path d="M0.951 0.373 Q1.002 0.303 0.878 0.263" stroke="hsl(0.0,100%,35%)" stroke-width="0.01426"></path>
<path d="M0.951 0.373 Q1.134 0.431 1.287 0.354" stroke="hsl(0.0,100%,35%)" stroke-width="0.00285"></path>
<path d="M0.951 0.373 Q0.925 0.319 0.815 0.320" stroke="hsl(0.0,100%,35%)" stroke-width="0.00143"></path>
<path d="M0.951 0.373 Q0.896 0.317 0.774 0.331" stroke="hsl(0.0,100%,35%)" stroke-width="0.00143"></path>
<path d="M0.951 0.373 Q1.067 0.346 1.039 0.283" stroke="hsl(0.0,100%,35%)" stroke-width="0.00143"></path>
<path d="M0.951 0.373 Q1.013 0.425 1.129 0.406" stroke="hsl(0.0,100%,35%)" stroke-width="0.00143"></path>
<path d="M0.951 0.373 Q0.550 0.285 0.291 0.461" stroke="hsl(0.0,100%,35%)" stroke-width="0.00143"></path>
<path d="M0.169 0.265 Q0.073 0.388 0.291 0.461" stroke="hsl(0.0,100%,35%)" stroke-width="0.00428"></path>
<path d="M0.169 0.265 Q0.293 0.174 0.142 0.093" stroke="hsl(0.0,100%,35%)" stroke-width="0.00143"></path>
<path d="M0.169 0.265 Q0.671 0.552 1.340 0.370" stroke="hsl(0.0,100%,35%)" stroke-width="0.00143"></path>
<path d="M0.272 0.320 Q0.038 0.546 0.428 0.710" stroke="hsl(0.0,100%,35%)" stroke-width="0.00143"></path>
<path d="M0.272 0.320 Q0.168 0.394 0.291 0.461" stroke="hsl(0.0,100%,35%)" stroke-width="0.02139"></path>
<path d="M0.272 0.320 Q0.387 0.299 0.371 0.239" stroke="hsl(0.0,100%,35%)" stroke-width="0.00856"></path>
<path d="M0.272 0.320 Q0.907 0.682 1.754 0.452" stroke="hsl(0.0,100%,35%)" stroke-width="0.00570"></path>
<path d="M0.272 0.320 Q0.564 0.730 1.429 0.677" stroke="hsl(0.0,100%,35%)" stroke-width="0.00285"></path>
<path d="M0.272 0.320 Q0.181 0.480 0.474 0.559" stroke="hsl(0.0,100%,35%)" stroke-width="0.00285"></path>
<path d="M0.092 0.338 Q0.093 0.439 0.291 0.461" stroke="hsl(0.0,100%,35%)" stroke-width="0.00143"></path>
<path d="M0.092 0.338 Q0.311 0.344 0.371 0.239" stroke="hsl(0.0,100%,35%)" stroke-width="0.00143"></path>
<path d="M0.092 0.338 Q0.470 0.281 0.442 0.084" stroke="hsl(0.0,100%,35%)" stroke-width="0.00143"></path>
<path d="M1.340 0.370 Q0.989 0.344 0.863 0.510" stroke="hsl(0.0,100%,35%)" stroke-width="0.00143"></path>
<path d="M1.340 0.370 Q1.481 0.493 1.754 0.452" stroke="hsl(0.0,100%,35%)" stroke-width="0.00285"></path>
<path d="M1.340 0.370 Q1.120 0.047 0.442 0.084" stroke="hsl(0.0,100%,35%)" stroke-width="0.00143"></path>
<path d="M1.340 0.370 Q1.240 0.459 1.391 0.527" stroke="hsl(0.0,100%,35%)" stroke-width="0.00143"></path>
<path d="M1.224 0.048 Q1.329 0.118 1.490 0.083" stroke="hsl(0.0,100%,35%)" stroke-width="0.00143"></path>
<path d="M1.224 0.048 Q0.924 0.321 1.391 0.527" stroke="hsl(0.0,100%,35%)" stroke-width="0.00143"></path>
<path d="M1.224 0.048 Q0.645 -0.027 0.371 0.239" stroke="hsl(0.0,100%,35%)" stroke-width="0.00143"></path>
<path d="M0.993 0.842 Q0.914 0.783 0.781 0.808" stroke="hsl(0.0,100%,35%)" stroke-width="0.00143"></path>
<path d="M0.993 0.842 Q1.323 0.353 0.442 0.084" stroke="hsl(0.0,100%,35%)" stroke-width="0.00143"></path>
<path d="M0.993 0.842 Q0.946 0.511 0.291 0.461" stroke="hsl(0.0,100%,35%)" stroke-width="0.00143"></path>
<path d="M1.378 0.903 Q1.640 0.483 0.878 0.263" stroke="hsl(0.0,100%,35%)" stroke-width="0.00143"></path>
<path d="M1.378 0.903 Q1.406 0.369 0.371 0.239" stroke="hsl(0.0,100%,35%)" stroke-width="0.00285"></path>
<path d="M1.378 0.903 Q1.544 0.942 1.658 0.870" stroke="hsl(0.0,100%,35%)" stroke-width="0.00143"></path>
<path d="M1.919 0.841 Q1.775 0.856 1.773 0.929" stroke="hsl(0.0,100%,35%)" stroke-width="0.00143"></path>
<path d="M1.919 0.841 Q1.992 0.386 1.121 0.251" stroke="hsl(0.0,100%,35%)" stroke-width="0.00143"></path>
<path d="M1.919 0.841 Q1.790 0.756 1.594 0.800" stroke="hsl(0.0,100%,35%)" stroke-width="0.00143"></path>
<path d="M1.490 0.083 Q0.588 0.032 0.291 0.461" stroke="hsl(0.0,100%,35%)" stroke-width="0.00143"></path>
<path d="M1.490 0.083 Q1.385 0.012 1.224 0.048" stroke="hsl(0.0,100%,35%)" stroke-width="0.00143"></path>
<path d="M1.490 0.083 Q0.587 -0.069 0.092 0.338" stroke="hsl(0.0,100%,35%)" stroke-width="0.00143"></path>
<path d="M1.490 0.083 Q0.940 0.263 1.171 0.571" stroke="hsl(0.0,100%,35%)" stroke-width="0.00143"></path>
<path d="M1.232 0.862 Q1.300 0.378 0.371 0.239" stroke="hsl(0.0,100%,35%)" stroke-width="0.00143"></path>
<path d="M1.232 0.862 Q1.272 0.911 1.378 0.903" stroke="hsl(0.0,100%,35%)" stroke-width="0.00143"></path>
<path d="M1.232 0.862 Q1.239 0.666 0.859 0.620" stroke="hsl(0.0,100%,35%)" stroke-width="0.00143"></path>
<path d="M0.859 0.620 Q0.949 0.566 0.863 0.510" stroke="hsl(0.0,100%,35%)" stroke-width="0.00570"></path>
<path d="M0.859 0.620 Q0.920 0.332 0.371 0.239" stroke="hsl(0.0,100%,35%)" stroke-width="0.00143"></path>
<path d="M0.859 0.620 Q0.688 0.647 0.705 0.737" stroke="hsl(0.0,100%,35%)" stroke-width="0.00143"></path>
<path d="M0.859 0.620 Q0.803 0.668 0.884 0.706" stroke="hsl(0.0,100%,35%)" stroke-width="0.00143"></path>
<path d="M0.859 0.620 Q0.702 0.427 0.291 0.461" stroke="hsl(0.0,100%,35%)" stroke-width="0.00143"></path>
<path d="M1.356 0.209 Q0.840 0.027 0.371 0.239" stroke="hsl(0.0,100%,35%)" stroke-width="0.00143"></path>
<path d="M1.356 0.209 Q1.343 0.251 1.422 0.266" stroke="hsl(0.0,100%,35%)" stroke-width="0.00143"></path>
<path d="M1.356 0.209 Q1.205 0.183 1.121 0.251" stroke="hsl(0.0,100%,35%)" stroke-width="0.00285"></path>
<path d="M1.356 0.209 Q1.120 0.375 1.391 0.527" stroke="hsl(0.0,100%,35%)" stroke-width="0.00143"></path>
<path d="M1.356 0.209 Q0.622 0.122 0.291 0.461" stroke="hsl(0.0,100%,35%)" stroke-width="0.00143"></path>
<path d="M0.114 0.641 Q0.047 0.666 0.081 0.704" stroke="hsl(0.0,100%,35%)" stroke-width="0.00143"></path>
<path d="M0.114 0.641 Q0.565 0.491 0.371 0.239" stroke="hsl(0.0,100%,35%)" stroke-width="0.00143"></path>
<path d="M0.114 0.641 Q0.031 0.713 0.153 0.770" stroke="hsl(0.0,100%,35%)" stroke-width="0.00143"></path>
<path d="M1.063 0.440 Q1.152 0.433 1.158 0.388" stroke="hsl(0.0,100%,35%)" stroke-width="0.00143"></path>
<path d="M1.063 0.440 Q0.907 0.435 0.863 0.510" stroke="hsl(0.0,100%,35%)" stroke-width="0.00285"></path>
<path d="M1.063 0.440 Q0.660 0.296 0.291 0.461" stroke="hsl(0.0,100%,35%)" stroke-width="0.00285"></path>
<path d="M1.063 0.440 Q1.158 0.549 1.391 0.527" stroke="hsl(0.0,100%,35%)" stroke-width="0.00143"></path>
<path d="M1.691 0.152 Q0.743 0.026 0.291 0.461" stroke="hsl(0.0,100%,35%)" stroke-width="0.00143"></path>
<path d="M1.691 0.152 Q1.774 0.208 1.902 0.180" stroke="hsl(0.0,100%,35%)" stroke-width="0.00143"></path>
<path d="M1.691 0.152 Q1.790 0.171 1.851 0.127" stroke="hsl(0.0,100%,35%)" stroke-width="0.00143"></path>
<path d="M0.665 0.458 Q0.722 0.523 0.863 0.510" stroke="hsl(0.0,100%,35%)" stroke-width="0.00143"></path>
<path d="M0.665 0.458 Q0.752 0.438 0.732 0.391" stroke="hsl(0.0,100%,35%)" stroke-width="0.00143"></path>
<path d="M0.665 0.458 Q0.852 0.226 0.442 0.084" stroke="hsl(0.0,100%,35%)" stroke-width="0.00143"></path>
<path d="M0.665 0.458 Q0.973 0.638 1.391 0.527" stroke="hsl(0.0,100%,35%)" stroke-width="0.00143"></path>
<path d="M0.665 0.458 Q0.475 0.384 0.291 0.461" stroke="hsl(0.0,100%,35%)" stroke-width="0.00143"></path>
<path d="M1.156 0.738 Q1.165 0.775 1.239 0.779" stroke="hsl(0.0,100%,35%)" stroke-width="0.00143"></path>
<path d="M1.156 0.738 Q1.059 0.707 0.977 0.748" stroke="hsl(0.0,100%,35%)" stroke-width="0.00143"></path>
<path d="M1.156 0.738 Q1.192 0.565 0.863 0.510" stroke="hsl(0.0,100%,35%)" stroke-width="0.00143"></path>
<path d="M1.243 0.290 Q1.214 0.246 1.121 0.251" stroke="hsl(0.0,100%,35%)" stroke-width="0.00428"></path>
<path d="M1.243 0.290 Q1.128 0.438 1.391 0.527" stroke="hsl(0.0,100%,35%)" stroke-width="0.00428"></path>
<path d="M1.243 0.290 Q1.008 0.027 0.442 0.084" stroke="hsl(0.0,100%,35%)" stroke-width="0.00143"></path>
</g>
<text x="1.652" y="0.294" font-size="0.026323" fill="hsl(0.0,100%,20%)">adarom</text>
<text x="0.291" y="0.418" font-size="0.085849" fill="hsl(0.0,100%,20%)">bartekn</text>
<text x="1.754" y="0.423" font-size="0.058052" fill="hsl(0.0,100%,20%)">kdlee</text>
<text x="1.391" y="0.495" font-size="0.063246" fill="hsl(0.0,100%,20%)">tasak</text>
<text x="0.612" y="0.192" font-size="0.058861" fill="hsl(0.0,100%,20%)">mikt</text>
<text x="0.428" y="0.683" font-size="0.054700" fill="hsl(0.0,100%,20%)">arthursonzogni</text>
<text x="1.429" y="0.653" font-size="0.047289" fill="hsl(0.0,100%,20%)">yukishiino</text>
<text x="1.171" y="0.563" font-size="0.014848" fill="hsl(0.0,100%,20%)">agrieve</text>
<text x="1.285" y="0.460" font-size="0.005612" fill="hsl(0.0,100%,20%)">ayzhao</text>
<text x="0.863" y="0.493" font-size="0.032724" fill="hsl(0.0,100%,20%)">lizeb</text>
<text x="1.169" y="0.576" font-size="0.005612" fill="hsl(0.0,100%,20%)">richard.townsend</text>
<text x="0.990" y="0.600" font-size="0.005612" fill="hsl(0.0,100%,20%)">wnwen</text>
<text x="0.533" y="0.387" font-size="0.019441" fill="hsl(0.0,100%,20%)">ahijazi</text>
<text x="1.121" y="0.237" font-size="0.026323" fill="hsl(0.0,100%,20%)">haraken</text>
<text x="0.732" y="0.387" font-size="0.007937" fill="hsl(0.0,100%,20%)">nuskos</text>
<text x="0.638" y="0.958" font-size="0.014848" fill="hsl(0.0,100%,20%)">ajuma</text>
<text x="0.878" y="0.252" font-size="0.022449" fill="hsl(0.0,100%,20%)">mark</text>
<text x="0.827" y="0.971" font-size="0.009721" fill="hsl(0.0,100%,20%)">vollick</text>
<text x="0.680" y="0.875" font-size="0.005612" fill="hsl(0.0,100%,20%)">anthonyvd</text>
<text x="0.535" y="0.268" font-size="0.017747" fill="hsl(0.0,100%,20%)">andre.kempe</text>
<text x="0.442" y="0.060" font-size="0.048277" fill="hsl(0.0,100%,20%)">keishi</text>
<text x="0.717" y="0.352" font-size="0.012549" fill="hsl(0.0,100%,20%)">mpdenton</text>
<text x="1.716" y="0.608" font-size="0.016836" fill="hsl(0.0,100%,20%)">wfh</text>
<text x="0.474" y="0.540" font-size="0.038063" fill="hsl(0.0,100%,20%)">danakj</text>
<text x="0.705" y="0.733" font-size="0.007937" fill="hsl(0.0,100%,20%)">jam</text>
<text x="0.371" y="0.222" font-size="0.034137" fill="hsl(0.0,100%,20%)">dcheng</text>
<text x="0.399" y="0.795" font-size="0.005612" fill="hsl(0.0,100%,20%)">ashleynewson</text>
<text x="0.951" y="0.359" font-size="0.028616" fill="hsl(0.0,100%,20%)">avi</text>
<text x="1.287" y="0.350" font-size="0.007937" fill="hsl(0.0,100%,20%)">sdefresne</text>
<text x="0.815" y="0.317" font-size="0.005612" fill="hsl(0.0,100%,20%)">robertogden</text>
<text x="0.774" y="0.327" font-size="0.007937" fill="hsl(0.0,100%,20%)">rsesek</text>
<text x="1.039" y="0.280" font-size="0.005612" fill="hsl(0.0,100%,20%)">senorblanco</text>
<text x="1.129" y="0.404" font-size="0.005612" fill="hsl(0.0,100%,20%)">zmo</text>
<text x="0.169" y="0.255" font-size="0.021736" fill="hsl(0.0,100%,20%)">glazunov</text>
<text x="0.272" y="0.302" font-size="0.035048" fill="hsl(0.0,100%,20%)">tsepez</text>
<text x="0.092" y="0.331" font-size="0.013747" fill="hsl(0.0,100%,20%)">lukasza</text>
<text x="1.239" y="0.775" font-size="0.007937" fill="hsl(0.0,100%,20%)">brucedawson</text>
<text x="1.447" y="0.545" font-size="0.007937" fill="hsl(0.0,100%,20%)">blundell</text>
<text x="0.834" y="0.261" font-size="0.012549" fill="hsl(0.0,100%,20%)">mlippautz</text>
<text x="0.563" y="0.370" font-size="0.007937" fill="hsl(0.0,100%,20%)">ssid</text>
<text x="1.340" y="0.362" font-size="0.014848" fill="hsl(0.0,100%,20%)">thestig</text>
<text x="0.781" y="0.802" font-size="0.011224" fill="hsl(0.0,100%,20%)">bikineev</text>
<text x="1.664" y="0.524" font-size="0.009721" fill="hsl(0.0,100%,20%)">thiabaud</text>
<text x="0.455" y="0.138" font-size="0.005612" fill="hsl(0.0,100%,20%)">junov</text>
<text x="1.224" y="0.041" font-size="0.012549" fill="hsl(0.0,100%,20%)">hans</text>
<text x="0.993" y="0.837" font-size="0.009721" fill="hsl(0.0,100%,20%)">davidben</text>
<text x="1.378" y="0.896" font-size="0.013747" fill="hsl(0.0,100%,20%)">pkasting</text>
<text x="1.919" y="0.836" font-size="0.009721" fill="hsl(0.0,100%,20%)">fmil</text>
<text x="1.773" y="0.927" font-size="0.005612" fill="hsl(0.0,100%,20%)">dayeung</text>
<text x="1.594" y="0.797" font-size="0.005612" fill="hsl(0.0,100%,20%)">kojii</text>
<text x="0.142" y="0.090" font-size="0.005612" fill="hsl(0.0,100%,20%)">hashimoto</text>
<text x="1.490" y="0.076" font-size="0.012549" fill="hsl(0.0,100%,20%)">thakis</text>
<text x="1.232" y="0.857" font-size="0.009721" fill="hsl(0.0,100%,20%)">jbroman</text>
<text x="0.859" y="0.611" font-size="0.017747" fill="hsl(0.0,100%,20%)">sky</text>
<text x="1.356" y="0.203" font-size="0.013747" fill="hsl(0.0,100%,20%)">jdapena</text>
<text x="1.422" y="0.264" font-size="0.005612" fill="hsl(0.0,100%,20%)">pbos</text>
<text x="0.114" y="0.636" font-size="0.009721" fill="hsl(0.0,100%,20%)">jeffyoon</text>
<text x="0.081" y="0.701" font-size="0.005612" fill="hsl(0.0,100%,20%)">davidbienvenu</text>
<text x="0.153" y="0.767" font-size="0.005612" fill="hsl(0.0,100%,20%)">skyostil</text>
<text x="1.063" y="0.433" font-size="0.013747" fill="hsl(0.0,100%,20%)">justincohen</text>
<text x="1.158" y="0.386" font-size="0.005612" fill="hsl(0.0,100%,20%)">ginnyhuang</text>
<text x="1.884" y="0.303" font-size="0.005612" fill="hsl(0.0,100%,20%)">leszeks</text>
<text x="1.926" y="0.310" font-size="0.005612" fill="hsl(0.0,100%,20%)">pasko</text>
<text x="0.380" y="0.239" font-size="0.005612" fill="hsl(0.0,100%,20%)">elkurin</text>
<text x="1.691" y="0.147" font-size="0.009721" fill="hsl(0.0,100%,20%)">leimy</text>
<text x="1.902" y="0.177" font-size="0.005612" fill="hsl(0.0,100%,20%)">chikamune</text>
<text x="1.851" y="0.124" font-size="0.005612" fill="hsl(0.0,100%,20%)">kouhei</text>
<text x="1.059" y="0.539" font-size="0.005612" fill="hsl(0.0,100%,20%)">fdoray</text>
<text x="1.168" y="0.615" font-size="0.009721" fill="hsl(0.0,100%,20%)">paulsemel</text>
<text x="0.705" y="0.040" font-size="0.005612" fill="hsl(0.0,100%,20%)">liviutinta</text>
<text x="0.714" y="0.102" font-size="0.005612" fill="hsl(0.0,100%,20%)">caitkp</text>
<text x="0.801" y="0.166" font-size="0.005612" fill="hsl(0.0,100%,20%)">yoavweiss</text>
<text x="1.658" y="0.867" font-size="0.005612" fill="hsl(0.0,100%,20%)">gab</text>
<text x="0.884" y="0.703" font-size="0.005612" fill="hsl(0.0,100%,20%)">ffred</text>
<text x="0.665" y="0.451" font-size="0.012549" fill="hsl(0.0,100%,20%)">stha09</text>
<text x="1.517" y="0.574" font-size="0.005612" fill="hsl(0.0,100%,20%)">erikchen</text>
<text x="1.156" y="0.733" font-size="0.009721" fill="hsl(0.0,100%,20%)">titouan</text>
<text x="0.977" y="0.745" font-size="0.005612" fill="hsl(0.0,100%,20%)">isaboori</text>
<text x="1.243" y="0.283" font-size="0.014848" fill="hsl(0.0,100%,20%)">tpearson</text>
<text x="1.712" y="0.694" font-size="0.005612" fill="hsl(0.0,100%,20%)">dfried</text>
<text x="1.615" y="0.781" font-size="0.005612" fill="hsl(0.0,100%,20%)">msw</text>
<text x="1.160" y="0.584" font-size="0.005612" fill="hsl(0.0,100%,20%)">nektar</text>
</svg>
