<svg width="4000" height="2000" viewBox="-0.025 -0.025 2.05 1.05" xmlns="http://www.w3.org/2000/svg">
  <style>
    path {
      fill: none;
      stroke-linecap: round;
      stroke-opacity: 0.4;
    }

    text {
      text-anchor: middle;
      alignment-baseline: hanging;
    }
  </style>
  <g opacity="0.4">
<path d="M1.469 0.880 Q1.091 0.497 0.262 0.598" stroke="hsl(0.0,100%,35%)" stroke-width="0.00575"></path>
<path d="M1.469 0.880 Q1.312 0.854 1.228 0.925" stroke="hsl(0.0,100%,35%)" stroke-width="0.01150"></path>
<path d="M1.469 0.880 Q1.612 0.928 1.739 0.869" stroke="hsl(0.0,100%,35%)" stroke-width="0.01342"></path>
<path d="M1.469 0.880 Q1.064 0.591 0.413 0.725" stroke="hsl(0.0,100%,35%)" stroke-width="0.00767"></path>
<path d="M1.469 0.880 Q2.012 0.602 1.590 0.276" stroke="hsl(0.0,100%,35%)" stroke-width="0.00192"></path>
<path d="M1.469 0.880 Q1.743 0.894 1.831 0.764" stroke="hsl(0.0,100%,35%)" stroke-width="0.00192"></path>
<path d="M0.262 0.598 Q0.196 0.543 0.075 0.563" stroke="hsl(0.0,100%,35%)" stroke-width="0.01534"></path>
<path d="M0.262 0.598 Q0.331 0.483 0.123 0.425" stroke="hsl(0.0,100%,35%)" stroke-width="0.01150"></path>
<path d="M0.262 0.598 Q0.484 0.954 1.228 0.925" stroke="hsl(0.0,100%,35%)" stroke-width="0.00767"></path>
<path d="M0.262 0.598 Q0.235 0.692 0.413 0.725" stroke="hsl(0.0,100%,35%)" stroke-width="0.00959"></path>
<path d="M0.262 0.598 Q1.183 0.703 1.590 0.276" stroke="hsl(0.0,100%,35%)" stroke-width="0.00575"></path>
<path d="M0.262 0.598 Q0.770 1.060 1.783 0.913" stroke="hsl(0.0,100%,35%)" stroke-width="0.00192"></path>
<path d="M0.262 0.598 Q0.436 0.716 0.705 0.657" stroke="hsl(0.0,100%,35%)" stroke-width="0.00192"></path>
<path d="M0.262 0.598 Q0.499 0.377 0.121 0.213" stroke="hsl(0.0,100%,35%)" stroke-width="0.00192"></path>
<path d="M0.262 0.598 Q0.784 1.029 1.739 0.869" stroke="hsl(0.0,100%,35%)" stroke-width="0.00383"></path>
<path d="M0.262 0.598 Q1.390 0.751 1.936 0.234" stroke="hsl(0.0,100%,35%)" stroke-width="0.00192"></path>
<path d="M1.228 0.925 Q1.528 0.999 1.739 0.869" stroke="hsl(0.0,100%,35%)" stroke-width="0.03068"></path>
<path d="M1.228 0.925 Q1.659 0.965 1.831 0.764" stroke="hsl(0.0,100%,35%)" stroke-width="0.00383"></path>
<path d="M1.228 0.925 Q0.941 0.513 0.075 0.563" stroke="hsl(0.0,100%,35%)" stroke-width="0.02301"></path>
<path d="M1.228 0.925 Q1.007 0.568 0.262 0.598" stroke="hsl(0.0,100%,35%)" stroke-width="0.02301"></path>
<path d="M1.228 0.925 Q1.308 0.826 1.133 0.766" stroke="hsl(0.0,100%,35%)" stroke-width="0.00192"></path>
<path d="M1.739 0.869 Q1.191 0.532 0.413 0.725" stroke="hsl(0.0,100%,35%)" stroke-width="0.00767"></path>
<path d="M1.739 0.869 Q1.798 0.914 1.899 0.895" stroke="hsl(0.0,100%,35%)" stroke-width="0.00192"></path>
<path d="M1.739 0.869 Q1.218 0.438 0.262 0.598" stroke="hsl(0.0,100%,35%)" stroke-width="0.00192"></path>
<path d="M1.739 0.869 Q2.139 0.543 1.590 0.276" stroke="hsl(0.0,100%,35%)" stroke-width="0.00192"></path>
<path d="M1.739 0.869 Q1.152 0.383 0.075 0.563" stroke="hsl(0.0,100%,35%)" stroke-width="0.00767"></path>
<path d="M1.739 0.869 Q1.869 0.835 1.831 0.764" stroke="hsl(0.0,100%,35%)" stroke-width="0.02876"></path>
<path d="M1.739 0.869 Q1.099 0.583 0.401 0.833" stroke="hsl(0.0,100%,35%)" stroke-width="0.00192"></path>
<path d="M1.739 0.869 Q1.725 0.900 1.783 0.913" stroke="hsl(0.0,100%,35%)" stroke-width="0.00192"></path>
<path d="M0.413 0.725 Q1.360 0.736 1.590 0.276" stroke="hsl(0.0,100%,35%)" stroke-width="0.00767"></path>
<path d="M0.413 0.725 Q0.439 0.631 0.262 0.598" stroke="hsl(0.0,100%,35%)" stroke-width="0.01726"></path>
<path d="M0.413 0.725 Q0.740 0.890 1.133 0.766" stroke="hsl(0.0,100%,35%)" stroke-width="0.00192"></path>
<path d="M0.413 0.725 Q1.568 0.784 1.936 0.234" stroke="hsl(0.0,100%,35%)" stroke-width="0.00383"></path>
<path d="M0.413 0.725 Q0.961 1.062 1.739 0.869" stroke="hsl(0.0,100%,35%)" stroke-width="0.02876"></path>
<path d="M0.413 0.725 Q0.373 0.577 0.075 0.563" stroke="hsl(0.0,100%,35%)" stroke-width="0.02109"></path>
<path d="M0.413 0.725 Q0.613 0.750 0.705 0.657" stroke="hsl(0.0,100%,35%)" stroke-width="0.00767"></path>
<path d="M0.413 0.725 Q1.265 0.943 1.878 0.576" stroke="hsl(0.0,100%,35%)" stroke-width="0.00383"></path>
<path d="M0.413 0.725 Q0.661 0.988 1.228 0.925" stroke="hsl(0.0,100%,35%)" stroke-width="0.00192"></path>
<path d="M0.413 0.725 Q0.611 0.778 0.758 0.693" stroke="hsl(0.0,100%,35%)" stroke-width="0.00192"></path>
<path d="M0.413 0.725 Q0.629 0.699 0.624 0.588" stroke="hsl(0.0,100%,35%)" stroke-width="0.00192"></path>
<path d="M0.413 0.725 Q0.416 0.809 0.580 0.825" stroke="hsl(0.0,100%,35%)" stroke-width="0.00192"></path>
<path d="M0.413 0.725 Q1.272 0.541 1.101 0.082" stroke="hsl(0.0,100%,35%)" stroke-width="0.00192"></path>
<path d="M0.413 0.725 Q0.515 0.796 0.677 0.762" stroke="hsl(0.0,100%,35%)" stroke-width="0.00192"></path>
<path d="M0.413 0.725 Q1.091 1.028 1.831 0.764" stroke="hsl(0.0,100%,35%)" stroke-width="0.00575"></path>
<path d="M0.413 0.725 Q0.571 0.678 0.514 0.591" stroke="hsl(0.0,100%,35%)" stroke-width="0.00192"></path>
<path d="M0.413 0.725 Q0.622 0.724 0.666 0.622" stroke="hsl(0.0,100%,35%)" stroke-width="0.00192"></path>
<path d="M0.413 0.725 Q0.881 0.554 0.648 0.288" stroke="hsl(0.0,100%,35%)" stroke-width="0.00192"></path>
<path d="M1.590 0.276 Q0.669 0.172 0.262 0.598" stroke="hsl(180.0,100%,35%)" stroke-width="0.02493"></path>
<path d="M1.590 0.276 Q1.797 0.324 1.936 0.234" stroke="hsl(180.0,100%,35%)" stroke-width="0.05368"></path>
<path d="M1.590 0.276 Q0.843 0.290 0.705 0.657" stroke="hsl(180.0,100%,35%)" stroke-width="0.00575"></path>
<path d="M1.590 0.276 Q1.699 0.188 1.550 0.115" stroke="hsl(180.0,100%,35%)" stroke-width="0.00192"></path>
<path d="M1.590 0.276 Q1.191 0.603 1.739 0.869" stroke="hsl(180.0,100%,35%)" stroke-width="0.01342"></path>
<path d="M1.590 0.276 Q0.603 0.117 0.075 0.563" stroke="hsl(180.0,100%,35%)" stroke-width="0.01534"></path>
<path d="M1.590 0.276 Q0.906 -0.049 0.121 0.213" stroke="hsl(180.0,100%,35%)" stroke-width="0.00192"></path>
<path d="M1.590 0.276 Q0.642 0.265 0.413 0.725" stroke="hsl(180.0,100%,35%)" stroke-width="0.00192"></path>
<path d="M1.590 0.276 Q1.838 0.257 1.856 0.132" stroke="hsl(180.0,100%,35%)" stroke-width="0.00767"></path>
<path d="M1.590 0.276 Q1.110 0.094 0.648 0.288" stroke="hsl(180.0,100%,35%)" stroke-width="0.00767"></path>
<path d="M1.590 0.276 Q0.738 0.057 0.123 0.425" stroke="hsl(180.0,100%,35%)" stroke-width="0.00192"></path>
<path d="M1.590 0.276 Q1.680 0.163 1.478 0.094" stroke="hsl(180.0,100%,35%)" stroke-width="0.00383"></path>
<path d="M1.831 0.764 Q1.153 0.461 0.413 0.725" stroke="hsl(0.0,100%,35%)" stroke-width="0.01150"></path>
<path d="M1.831 0.764 Q1.701 0.798 1.739 0.869" stroke="hsl(0.0,100%,35%)" stroke-width="0.02301"></path>
<path d="M1.831 0.764 Q2.005 0.679 1.878 0.576" stroke="hsl(0.0,100%,35%)" stroke-width="0.00383"></path>
<path d="M1.831 0.764 Q1.813 0.668 1.622 0.656" stroke="hsl(0.0,100%,35%)" stroke-width="0.00192"></path>
<path d="M1.831 0.764 Q1.248 0.253 0.123 0.425" stroke="hsl(0.0,100%,35%)" stroke-width="0.00767"></path>
<path d="M1.831 0.764 Q2.147 0.546 1.791 0.344" stroke="hsl(0.0,100%,35%)" stroke-width="0.00192"></path>
<path d="M1.936 0.234 Q0.982 0.199 0.705 0.657" stroke="hsl(180.0,100%,35%)" stroke-width="0.00192"></path>
<path d="M1.936 0.234 Q1.663 0.226 1.587 0.358" stroke="hsl(180.0,100%,35%)" stroke-width="0.00575"></path>
<path d="M1.936 0.234 Q1.776 0.260 1.791 0.344" stroke="hsl(180.0,100%,35%)" stroke-width="0.00383"></path>
<path d="M1.936 0.234 Q1.702 0.260 1.701 0.380" stroke="hsl(180.0,100%,35%)" stroke-width="0.00383"></path>
<path d="M1.936 0.234 Q1.045 -0.140 0.121 0.213" stroke="hsl(180.0,100%,35%)" stroke-width="0.00192"></path>
<path d="M1.936 0.234 Q1.867 0.282 1.947 0.327" stroke="hsl(180.0,100%,35%)" stroke-width="0.00192"></path>
<path d="M1.936 0.234 Q0.566 0.183 0.165 0.840" stroke="hsl(180.0,100%,35%)" stroke-width="0.00192"></path>
<path d="M0.075 0.563 Q0.141 0.618 0.262 0.598" stroke="hsl(0.0,100%,35%)" stroke-width="0.02109"></path>
<path d="M0.075 0.563 Q0.114 0.712 0.413 0.725" stroke="hsl(0.0,100%,35%)" stroke-width="0.00192"></path>
<path d="M0.075 0.563 Q0.662 1.049 1.739 0.869" stroke="hsl(0.0,100%,35%)" stroke-width="0.00959"></path>
<path d="M0.075 0.563 Q-0.005 0.641 0.128 0.697" stroke="hsl(0.0,100%,35%)" stroke-width="0.00192"></path>
<path d="M0.075 0.563 Q0.029 0.600 0.090 0.630" stroke="hsl(0.0,100%,35%)" stroke-width="0.00192"></path>
<path d="M0.121 0.213 Q0.325 0.356 0.648 0.288" stroke="hsl(180.0,100%,35%)" stroke-width="0.00192"></path>
<path d="M0.121 0.213 Q0.164 0.285 0.314 0.279" stroke="hsl(180.0,100%,35%)" stroke-width="0.00192"></path>
<path d="M0.121 0.213 Q-0.116 0.434 0.262 0.598" stroke="hsl(180.0,100%,35%)" stroke-width="0.00192"></path>
<path d="M0.121 0.213 Q0.535 0.830 1.831 0.764" stroke="hsl(180.0,100%,35%)" stroke-width="0.00767"></path>
<path d="M0.121 0.213 Q-0.143 0.527 0.413 0.725" stroke="hsl(180.0,100%,35%)" stroke-width="0.00383"></path>
<path d="M0.121 0.213 Q0.391 0.895 1.783 0.913" stroke="hsl(180.0,100%,35%)" stroke-width="0.00192"></path>
<path d="M0.121 0.213 Q-0.182 0.379 0.075 0.563" stroke="hsl(180.0,100%,35%)" stroke-width="0.00192"></path>
<path d="M0.121 0.213 Q-0.048 0.319 0.123 0.425" stroke="hsl(180.0,100%,35%)" stroke-width="0.00192"></path>
<path d="M0.121 0.213 Q0.405 0.865 1.739 0.869" stroke="hsl(180.0,100%,35%)" stroke-width="0.00383"></path>
<path d="M1.219 0.484 Q1.464 0.354 1.263 0.206" stroke="hsl(0.0,100%,35%)" stroke-width="0.00192"></path>
<path d="M1.219 0.484 Q0.584 0.295 0.075 0.563" stroke="hsl(0.0,100%,35%)" stroke-width="0.00192"></path>
<path d="M1.219 0.484 Q1.361 0.448 1.321 0.371" stroke="hsl(0.0,100%,35%)" stroke-width="0.00192"></path>
<path d="M0.401 0.952 Q1.536 0.852 1.590 0.276" stroke="hsl(180.0,100%,35%)" stroke-width="0.00192"></path>
<path d="M0.401 0.952 Q1.060 0.505 0.333 0.086" stroke="hsl(180.0,100%,35%)" stroke-width="0.00192"></path>
<path d="M0.401 0.952 Q0.372 0.849 0.165 0.840" stroke="hsl(180.0,100%,35%)" stroke-width="0.00192"></path>
<path d="M0.333 0.086 Q0.391 0.135 0.500 0.117" stroke="hsl(180.0,100%,35%)" stroke-width="0.00192"></path>
<path d="M0.333 0.086 Q0.125 0.107 0.121 0.213" stroke="hsl(180.0,100%,35%)" stroke-width="0.00575"></path>
<path d="M0.333 0.086 Q0.329 0.250 0.648 0.288" stroke="hsl(180.0,100%,35%)" stroke-width="0.00192"></path>
<path d="M1.109 0.370 Q1.009 0.437 1.117 0.500" stroke="hsl(180.0,100%,35%)" stroke-width="0.00192"></path>
<path d="M1.109 0.370 Q0.945 0.237 0.648 0.288" stroke="hsl(180.0,100%,35%)" stroke-width="0.00192"></path>
<path d="M1.109 0.370 Q0.994 0.372 0.973 0.429" stroke="hsl(180.0,100%,35%)" stroke-width="0.00192"></path>
<path d="M0.550 0.544 Q0.537 0.631 0.705 0.657" stroke="hsl(180.0,100%,35%)" stroke-width="0.00192"></path>
<path d="M0.550 0.544 Q0.704 0.579 0.807 0.512" stroke="hsl(180.0,100%,35%)" stroke-width="0.00192"></path>
<path d="M0.550 0.544 Q0.552 0.507 0.481 0.498" stroke="hsl(180.0,100%,35%)" stroke-width="0.00192"></path>
<path d="M0.550 0.544 Q0.804 0.435 0.648 0.288" stroke="hsl(180.0,100%,35%)" stroke-width="0.00383"></path>
<path d="M0.334 0.378 Q0.123 0.474 0.262 0.598" stroke="hsl(0.0,100%,35%)" stroke-width="0.00383"></path>
<path d="M0.334 0.378 Q0.360 0.253 0.121 0.213" stroke="hsl(0.0,100%,35%)" stroke-width="0.00192"></path>
<path d="M0.334 0.378 Q0.644 0.905 1.739 0.869" stroke="hsl(0.0,100%,35%)" stroke-width="0.00192"></path>
<path d="M0.314 0.279 Q0.270 0.207 0.121 0.213" stroke="hsl(180.0,100%,35%)" stroke-width="0.00767"></path>
<path d="M0.314 0.279 Q0.207 0.546 0.705 0.657" stroke="hsl(180.0,100%,35%)" stroke-width="0.00192"></path>
<path d="M0.314 0.279 Q0.404 0.265 0.395 0.218" stroke="hsl(180.0,100%,35%)" stroke-width="0.00192"></path>
<path d="M0.314 0.279 Q0.297 0.305 0.344 0.319" stroke="hsl(180.0,100%,35%)" stroke-width="0.00192"></path>
<path d="M0.314 0.279 Q0.033 0.428 0.262 0.598" stroke="hsl(180.0,100%,35%)" stroke-width="0.00192"></path>
<path d="M0.314 0.279 Q0.474 0.350 0.648 0.288" stroke="hsl(180.0,100%,35%)" stroke-width="0.00192"></path>
<path d="M0.314 0.279 Q-0.033 0.373 0.075 0.563" stroke="hsl(180.0,100%,35%)" stroke-width="0.00192"></path>
<path d="M0.589 0.411 Q0.718 0.361 0.648 0.288" stroke="hsl(180.0,100%,35%)" stroke-width="0.00192"></path>
<path d="M0.589 0.411 Q1.197 0.544 1.590 0.276" stroke="hsl(180.0,100%,35%)" stroke-width="0.00192"></path>
<path d="M0.589 0.411 Q1.131 0.584 1.587 0.358" stroke="hsl(180.0,100%,35%)" stroke-width="0.00192"></path>
<path d="M0.589 0.411 Q0.820 0.430 0.908 0.322" stroke="hsl(180.0,100%,35%)" stroke-width="0.00383"></path>
<path d="M0.589 0.411 Q0.738 0.415 0.778 0.343" stroke="hsl(180.0,100%,35%)" stroke-width="0.00767"></path>
<path d="M0.589 0.411 Q0.450 0.557 0.705 0.657" stroke="hsl(180.0,100%,35%)" stroke-width="0.00383"></path>
<path d="M0.589 0.411 Q1.405 0.592 1.936 0.234" stroke="hsl(180.0,100%,35%)" stroke-width="0.00383"></path>
<path d="M0.589 0.411 Q0.210 0.384 0.075 0.563" stroke="hsl(180.0,100%,35%)" stroke-width="0.00192"></path>
<path d="M0.589 0.411 Q0.513 0.218 0.121 0.213" stroke="hsl(180.0,100%,35%)" stroke-width="0.00575"></path>
<path d="M0.589 0.411 Q1.445 0.525 1.856 0.132" stroke="hsl(180.0,100%,35%)" stroke-width="0.00192"></path>
<path d="M0.589 0.411 Q0.602 0.464 0.709 0.469" stroke="hsl(180.0,100%,35%)" stroke-width="0.00192"></path>
<path d="M0.589 0.411 Q0.618 0.505 0.807 0.512" stroke="hsl(180.0,100%,35%)" stroke-width="0.00192"></path>
<path d="M0.589 0.411 Q0.928 0.836 1.831 0.764" stroke="hsl(180.0,100%,35%)" stroke-width="0.00192"></path>
<path d="M0.105 0.694 Q0.195 0.623 0.075 0.563" stroke="hsl(180.0,100%,35%)" stroke-width="0.00192"></path>
<path d="M0.105 0.694 Q0.573 0.649 0.589 0.411" stroke="hsl(180.0,100%,35%)" stroke-width="0.00192"></path>
<path d="M0.105 0.694 Q0.782 1.108 1.739 0.869" stroke="hsl(180.0,100%,35%)" stroke-width="0.00192"></path>
<path d="M0.927 0.192 Q1.103 0.172 1.101 0.082" stroke="hsl(0.0,100%,35%)" stroke-width="0.00192"></path>
<path d="M0.927 0.192 Q1.096 0.574 1.878 0.576" stroke="hsl(0.0,100%,35%)" stroke-width="0.00192"></path>
<path d="M0.927 0.192 Q0.792 0.693 1.739 0.869" stroke="hsl(0.0,100%,35%)" stroke-width="0.00192"></path>
<path d="M0.401 0.833 Q0.520 0.687 0.262 0.598" stroke="hsl(180.0,100%,35%)" stroke-width="0.00192"></path>
<path d="M0.401 0.833 Q1.374 0.832 1.587 0.358" stroke="hsl(180.0,100%,35%)" stroke-width="0.00192"></path>
<path d="M0.401 0.833 Q0.277 0.789 0.165 0.840" stroke="hsl(180.0,100%,35%)" stroke-width="0.00192"></path>
<path d="M0.804 0.360 Q0.656 0.343 0.589 0.411" stroke="hsl(180.0,100%,35%)" stroke-width="0.00192"></path>
<path d="M0.804 0.360 Q0.864 0.802 1.739 0.869" stroke="hsl(180.0,100%,35%)" stroke-width="0.00192"></path>
<path d="M0.804 0.360 Q0.224 0.516 0.401 0.833" stroke="hsl(180.0,100%,35%)" stroke-width="0.00192"></path>
<path d="M0.747 0.169 Q0.603 0.209 0.648 0.288" stroke="hsl(180.0,100%,35%)" stroke-width="0.00767"></path>
<path d="M0.747 0.169 Q0.683 0.717 1.739 0.869" stroke="hsl(180.0,100%,35%)" stroke-width="0.00767"></path>
<path d="M0.747 0.169 Q0.095 0.232 0.075 0.563" stroke="hsl(180.0,100%,35%)" stroke-width="0.00383"></path>
</g>
<text x="1.469" y="0.863" font-size="0.033002" fill="hsl(0.0,100%,20%)">adarom</text>
<text x="0.262" y="0.565" font-size="0.065249" fill="hsl(0.0,100%,20%)">bartekn</text>
<text x="1.228" y="0.899" font-size="0.051704" fill="hsl(0.0,100%,20%)">kdlee</text>
<text x="1.739" y="0.833" font-size="0.071060" fill="hsl(0.0,100%,20%)">tasak</text>
<text x="0.413" y="0.693" font-size="0.064101" fill="hsl(0.0,100%,20%)">mikt</text>
<text x="1.590" y="0.244" font-size="0.064486" fill="hsl(180.0,100%,20%)">arthursonzogni</text>
<text x="1.831" y="0.738" font-size="0.050737" fill="hsl(0.0,100%,20%)">yukishiino</text>
<text x="1.936" y="0.210" font-size="0.046671" fill="hsl(180.0,100%,20%)">danakj</text>
<text x="0.705" y="0.644" font-size="0.025369" fill="hsl(180.0,100%,20%)">dcheng</text>
<text x="1.550" y="0.112" font-size="0.007036" fill="hsl(180.0,100%,20%)">ashleynewson</text>
<text x="0.075" y="0.534" font-size="0.058445" fill="hsl(0.0,100%,20%)">keishi</text>
<text x="0.121" y="0.194" font-size="0.037231" fill="hsl(180.0,100%,20%)">lizeb</text>
<text x="1.856" y="0.124" font-size="0.015733" fill="hsl(180.0,100%,20%)">blundell</text>
<text x="0.648" y="0.273" font-size="0.028144" fill="hsl(180.0,100%,20%)">haraken</text>
<text x="0.123" y="0.413" font-size="0.024373" fill="hsl(0.0,100%,20%)">glazunov</text>
<text x="1.478" y="0.089" font-size="0.009950" fill="hsl(180.0,100%,20%)">wez</text>
<text x="1.783" y="0.907" font-size="0.012187" fill="hsl(0.0,100%,20%)">ahijazi</text>
<text x="1.219" y="0.478" font-size="0.012187" fill="hsl(0.0,100%,20%)">bwwilliams</text>
<text x="1.263" y="0.202" font-size="0.007036" fill="hsl(0.0,100%,20%)">ajuma</text>
<text x="1.321" y="0.368" font-size="0.007036" fill="hsl(0.0,100%,20%)">noyau</text>
<text x="1.587" y="0.350" font-size="0.015733" fill="hsl(180.0,100%,20%)">hans</text>
<text x="1.791" y="0.338" font-size="0.012187" fill="hsl(180.0,100%,20%)">mark</text>
<text x="1.701" y="0.375" font-size="0.009950" fill="hsl(180.0,100%,20%)">avi</text>
<text x="1.947" y="0.324" font-size="0.007036" fill="hsl(180.0,100%,20%)">adetaylor</text>
<text x="0.165" y="0.834" font-size="0.012187" fill="hsl(180.0,100%,20%)">lukasza</text>
<text x="0.401" y="0.946" font-size="0.012187" fill="hsl(180.0,100%,20%)">edechamps</text>
<text x="0.333" y="0.077" font-size="0.017235" fill="hsl(180.0,100%,20%)">fdoray</text>
<text x="0.500" y="0.113" font-size="0.007036" fill="hsl(180.0,100%,20%)">grt</text>
<text x="1.109" y="0.364" font-size="0.012187" fill="hsl(180.0,100%,20%)">fmil</text>
<text x="1.117" y="0.497" font-size="0.007036" fill="hsl(180.0,100%,20%)">dayeung</text>
<text x="0.973" y="0.425" font-size="0.007036" fill="hsl(180.0,100%,20%)">kojii</text>
<text x="0.550" y="0.536" font-size="0.015733" fill="hsl(180.0,100%,20%)">jdapena</text>
<text x="0.807" y="0.507" font-size="0.009950" fill="hsl(180.0,100%,20%)">pbos</text>
<text x="0.481" y="0.494" font-size="0.007036" fill="hsl(180.0,100%,20%)">asvitkine</text>
<text x="0.334" y="0.371" font-size="0.014072" fill="hsl(0.0,100%,20%)">justincohen</text>
<text x="1.133" y="0.761" font-size="0.009950" fill="hsl(0.0,100%,20%)">bikineev</text>
<text x="0.128" y="0.693" font-size="0.007036" fill="hsl(0.0,100%,20%)">wittman</text>
<text x="0.090" y="0.626" font-size="0.007036" fill="hsl(0.0,100%,20%)">qjw</text>
<text x="0.314" y="0.267" font-size="0.023336" fill="hsl(180.0,100%,20%)">sky</text>
<text x="1.878" y="0.568" font-size="0.015733" fill="hsl(0.0,100%,20%)">mpdenton</text>
<text x="0.758" y="0.689" font-size="0.007036" fill="hsl(0.0,100%,20%)">dpranke</text>
<text x="0.624" y="0.584" font-size="0.007036" fill="hsl(0.0,100%,20%)">jwata</text>
<text x="0.580" y="0.822" font-size="0.007036" fill="hsl(0.0,100%,20%)">kouhei</text>
<text x="1.101" y="0.077" font-size="0.009950" fill="hsl(0.0,100%,20%)">mlippautz</text>
<text x="0.677" y="0.758" font-size="0.007036" fill="hsl(0.0,100%,20%)">rogerm</text>
<text x="0.514" y="0.587" font-size="0.007036" fill="hsl(0.0,100%,20%)">marq</text>
<text x="0.666" y="0.618" font-size="0.007036" fill="hsl(0.0,100%,20%)">nuskos</text>
<text x="0.589" y="0.394" font-size="0.033743" fill="hsl(180.0,100%,20%)">pkasting</text>
<text x="0.908" y="0.317" font-size="0.009950" fill="hsl(180.0,100%,20%)">jbroman</text>
<text x="0.778" y="0.336" font-size="0.014072" fill="hsl(180.0,100%,20%)">thestig</text>
<text x="0.709" y="0.466" font-size="0.007036" fill="hsl(180.0,100%,20%)">kylechar</text>
<text x="0.105" y="0.688" font-size="0.012187" fill="hsl(180.0,100%,20%)">rsworktech</text>
<text x="0.395" y="0.214" font-size="0.007036" fill="hsl(180.0,100%,20%)">jam</text>
<text x="0.344" y="0.315" font-size="0.007036" fill="hsl(180.0,100%,20%)">ffred</text>
<text x="0.927" y="0.186" font-size="0.012187" fill="hsl(0.0,100%,20%)">sroettger</text>
<text x="1.899" y="0.892" font-size="0.007036" fill="hsl(0.0,100%,20%)">thiabaud</text>
<text x="0.401" y="0.825" font-size="0.015733" fill="hsl(180.0,100%,20%)">thakis</text>
<text x="0.804" y="0.354" font-size="0.012187" fill="hsl(180.0,100%,20%)">tikuta</text>
<text x="0.747" y="0.158" font-size="0.022250" fill="hsl(180.0,100%,20%)">tpearson</text>
<text x="1.622" y="0.653" font-size="0.007036" fill="hsl(0.0,100%,20%)">wfh</text>
</svg>
