<svg width="4000" height="2000" viewBox="-0.025 -0.025 2.05 1.05" xmlns="http://www.w3.org/2000/svg">
  <style>
    path {
      fill: none;
      stroke-linecap: round;
      stroke-opacity: 0.4;
    }

    text {
      text-anchor: middle;
      alignment-baseline: hanging;
    }
  </style>
  <g opacity="0.4">
<path d="M1.638 -0.021 Q1.460 -0.026 1.410 0.059" stroke="hsl(0.0,100%,35%)" stroke-width="0.00367"></path>
<path d="M1.638 -0.021 Q1.145 -0.095 0.892 0.129" stroke="hsl(0.0,100%,35%)" stroke-width="0.00122"></path>
<path d="M1.638 -0.021 Q1.240 0.022 1.236 0.225" stroke="hsl(0.0,100%,35%)" stroke-width="0.00122"></path>
<path d="M1.410 0.059 Q1.182 0.066 1.145 0.179" stroke="hsl(0.0,100%,35%)" stroke-width="0.00856"></path>
<path d="M1.410 0.059 Q0.957 0.450 1.620 0.757" stroke="hsl(0.0,100%,35%)" stroke-width="0.00734"></path>
<path d="M1.410 0.059 Q0.365 0.314 0.634 0.880" stroke="hsl(0.0,100%,35%)" stroke-width="0.00245"></path>
<path d="M1.410 0.059 Q0.815 0.496 1.535 0.882" stroke="hsl(0.0,100%,35%)" stroke-width="0.00122"></path>
<path d="M1.410 0.059 Q1.434 0.142 1.600 0.148" stroke="hsl(0.0,100%,35%)" stroke-width="0.00367"></path>
<path d="M1.410 0.059 Q1.064 0.169 1.202 0.362" stroke="hsl(0.0,100%,35%)" stroke-width="0.00611"></path>
<path d="M1.410 0.059 Q1.462 0.145 1.641 0.139" stroke="hsl(0.0,100%,35%)" stroke-width="0.00245"></path>
<path d="M1.410 0.059 Q1.374 0.128 1.499 0.160" stroke="hsl(0.0,100%,35%)" stroke-width="0.00367"></path>
<path d="M1.410 0.059 Q1.386 0.150 1.557 0.182" stroke="hsl(0.0,100%,35%)" stroke-width="0.01834"></path>
<path d="M1.410 0.059 Q1.137 -0.003 0.956 0.116" stroke="hsl(0.0,100%,35%)" stroke-width="0.03546"></path>
<path d="M1.410 0.059 Q1.349 0.113 1.441 0.155" stroke="hsl(0.0,100%,35%)" stroke-width="0.00245"></path>
<path d="M1.410 0.059 Q1.548 0.243 1.937 0.217" stroke="hsl(0.0,100%,35%)" stroke-width="0.00122"></path>
<path d="M1.410 0.059 Q0.833 0.149 0.881 0.450" stroke="hsl(0.0,100%,35%)" stroke-width="0.01712"></path>
<path d="M1.410 0.059 Q1.251 0.077 1.250 0.158" stroke="hsl(0.0,100%,35%)" stroke-width="0.00367"></path>
<path d="M1.410 0.059 Q1.147 0.167 1.299 0.318" stroke="hsl(0.0,100%,35%)" stroke-width="0.00367"></path>
<path d="M1.410 0.059 Q1.177 0.147 1.298 0.280" stroke="hsl(0.0,100%,35%)" stroke-width="0.00367"></path>
<path d="M1.410 0.059 Q1.364 -0.046 1.148 -0.046" stroke="hsl(0.0,100%,35%)" stroke-width="0.00245"></path>
<path d="M1.410 0.059 Q1.030 0.074 0.974 0.262" stroke="hsl(0.0,100%,35%)" stroke-width="0.00978"></path>
<path d="M1.410 0.059 Q1.180 0.219 1.440 0.366" stroke="hsl(0.0,100%,35%)" stroke-width="0.00245"></path>
<path d="M1.410 0.059 Q1.384 0.316 1.879 0.386" stroke="hsl(0.0,100%,35%)" stroke-width="0.00122"></path>
<path d="M1.410 0.059 Q1.588 0.065 1.638 -0.021" stroke="hsl(0.0,100%,35%)" stroke-width="0.00122"></path>
<path d="M1.410 0.059 Q1.190 0.107 1.236 0.225" stroke="hsl(0.0,100%,35%)" stroke-width="0.00489"></path>
<path d="M1.410 0.059 Q1.295 0.072 1.294 0.131" stroke="hsl(0.0,100%,35%)" stroke-width="0.00122"></path>
<path d="M1.236 0.225 Q1.040 0.456 1.448 0.603" stroke="hsl(0.0,100%,35%)" stroke-width="0.00122"></path>
<path d="M1.236 0.225 Q0.878 0.267 0.881 0.450" stroke="hsl(0.0,100%,35%)" stroke-width="0.00978"></path>
<path d="M1.236 0.225 Q1.334 0.205 1.317 0.153" stroke="hsl(0.0,100%,35%)" stroke-width="0.00245"></path>
<path d="M1.236 0.225 Q1.183 0.115 0.956 0.116" stroke="hsl(0.0,100%,35%)" stroke-width="0.01223"></path>
<path d="M1.236 0.225 Q1.075 0.191 0.974 0.262" stroke="hsl(0.0,100%,35%)" stroke-width="0.02690"></path>
<path d="M1.236 0.225 Q1.110 0.287 1.202 0.362" stroke="hsl(0.0,100%,35%)" stroke-width="0.00978"></path>
<path d="M1.236 0.225 Q1.002 0.568 1.620 0.757" stroke="hsl(0.0,100%,35%)" stroke-width="0.00122"></path>
<path d="M1.236 0.225 Q1.316 0.284 1.448 0.258" stroke="hsl(0.0,100%,35%)" stroke-width="0.00122"></path>
<path d="M1.236 0.225 Q0.445 0.108 0.043 0.468" stroke="hsl(0.0,100%,35%)" stroke-width="0.00122"></path>
<path d="M1.236 0.225 Q1.197 0.248 1.232 0.272" stroke="hsl(0.0,100%,35%)" stroke-width="0.00122"></path>
<path d="M1.236 0.225 Q1.363 0.306 1.549 0.262" stroke="hsl(0.0,100%,35%)" stroke-width="0.00122"></path>
<path d="M1.236 0.225 Q1.491 0.325 1.741 0.222" stroke="hsl(0.0,100%,35%)" stroke-width="0.00122"></path>
<path d="M1.236 0.225 Q1.456 0.177 1.410 0.059" stroke="hsl(0.0,100%,35%)" stroke-width="0.01956"></path>
<path d="M1.236 0.225 Q1.268 0.308 1.436 0.311" stroke="hsl(0.0,100%,35%)" stroke-width="0.00122"></path>
<path d="M1.236 0.225 Q1.229 0.185 1.149 0.179" stroke="hsl(0.0,100%,35%)" stroke-width="0.00122"></path>
<path d="M1.288 0.698 Q1.407 0.794 1.620 0.757" stroke="hsl(0.0,100%,35%)" stroke-width="0.00122"></path>
<path d="M1.288 0.698 Q1.632 0.410 1.145 0.179" stroke="hsl(0.0,100%,35%)" stroke-width="0.00122"></path>
<path d="M1.288 0.698 Q1.514 0.513 1.202 0.362" stroke="hsl(0.0,100%,35%)" stroke-width="0.00122"></path>
<path d="M1.288 0.698 Q1.445 0.683 1.448 0.603" stroke="hsl(0.0,100%,35%)" stroke-width="0.00122"></path>
<path d="M1.145 0.179 Q1.373 0.172 1.410 0.059" stroke="hsl(0.0,100%,35%)" stroke-width="0.00856"></path>
<path d="M1.145 0.179 Q0.796 0.262 0.881 0.450" stroke="hsl(0.0,100%,35%)" stroke-width="0.00245"></path>
<path d="M1.145 0.179 Q1.100 0.110 0.956 0.116" stroke="hsl(0.0,100%,35%)" stroke-width="0.00122"></path>
<path d="M1.145 0.179 Q1.214 0.190 1.250 0.158" stroke="hsl(0.0,100%,35%)" stroke-width="0.00245"></path>
<path d="M1.145 0.179 Q1.252 0.201 1.317 0.153" stroke="hsl(0.0,100%,35%)" stroke-width="0.00122"></path>
<path d="M1.641 0.139 Q1.209 0.067 0.974 0.262" stroke="hsl(0.0,100%,35%)" stroke-width="0.00122"></path>
<path d="M1.641 0.139 Q1.430 0.070 1.250 0.158" stroke="hsl(0.0,100%,35%)" stroke-width="0.00367"></path>
<path d="M1.641 0.139 Q1.826 0.021 1.637 -0.095" stroke="hsl(0.0,100%,35%)" stroke-width="0.00122"></path>
<path d="M1.641 0.139 Q0.544 0.308 0.634 0.880" stroke="hsl(0.0,100%,35%)" stroke-width="0.00122"></path>
<path d="M1.641 0.139 Q1.589 0.053 1.410 0.059" stroke="hsl(0.0,100%,35%)" stroke-width="0.00978"></path>
<path d="M1.641 0.139 Q1.361 0.060 1.145 0.179" stroke="hsl(0.0,100%,35%)" stroke-width="0.00122"></path>
<path d="M1.641 0.139 Q1.012 0.143 0.881 0.450" stroke="hsl(0.0,100%,35%)" stroke-width="0.00122"></path>
<path d="M0.974 0.262 Q0.646 0.472 0.983 0.678" stroke="hsl(0.0,100%,35%)" stroke-width="0.00122"></path>
<path d="M0.974 0.262 Q0.777 0.338 0.881 0.450" stroke="hsl(0.0,100%,35%)" stroke-width="0.00611"></path>
<path d="M0.974 0.262 Q1.406 0.334 1.641 0.139" stroke="hsl(0.0,100%,35%)" stroke-width="0.00122"></path>
<path d="M0.974 0.262 Q1.355 0.248 1.410 0.059" stroke="hsl(0.0,100%,35%)" stroke-width="0.02934"></path>
<path d="M0.974 0.262 Q0.901 0.639 1.620 0.757" stroke="hsl(0.0,100%,35%)" stroke-width="0.00245"></path>
<path d="M0.974 0.262 Q1.015 0.159 0.822 0.116" stroke="hsl(0.0,100%,35%)" stroke-width="0.00122"></path>
<path d="M0.974 0.262 Q1.008 0.358 1.202 0.362" stroke="hsl(0.0,100%,35%)" stroke-width="0.01589"></path>
<path d="M0.974 0.262 Q1.082 0.186 0.956 0.116" stroke="hsl(0.0,100%,35%)" stroke-width="0.00611"></path>
<path d="M0.974 0.262 Q0.906 0.291 0.948 0.331" stroke="hsl(0.0,100%,35%)" stroke-width="0.00122"></path>
<path d="M0.974 0.262 Q1.135 0.296 1.236 0.225" stroke="hsl(0.0,100%,35%)" stroke-width="0.02323"></path>
<path d="M0.974 0.262 Q1.330 0.338 1.557 0.182" stroke="hsl(0.0,100%,35%)" stroke-width="0.00122"></path>
<path d="M0.974 0.262 Q0.913 0.375 1.119 0.429" stroke="hsl(0.0,100%,35%)" stroke-width="0.00122"></path>
<path d="M1.250 0.158 Q1.409 0.141 1.410 0.059" stroke="hsl(0.0,100%,35%)" stroke-width="0.01223"></path>
<path d="M1.250 0.158 Q1.524 0.270 1.803 0.161" stroke="hsl(0.0,100%,35%)" stroke-width="0.00122"></path>
<path d="M1.250 0.158 Q1.461 0.226 1.641 0.139" stroke="hsl(0.0,100%,35%)" stroke-width="0.00122"></path>
<path d="M1.250 0.158 Q1.063 0.250 1.202 0.362" stroke="hsl(0.0,100%,35%)" stroke-width="0.00245"></path>
<path d="M1.250 0.158 Q1.280 0.259 1.483 0.267" stroke="hsl(0.0,100%,35%)" stroke-width="0.00122"></path>
<path d="M1.250 0.158 Q1.146 0.248 1.299 0.318" stroke="hsl(0.0,100%,35%)" stroke-width="0.00122"></path>
<path d="M1.250 0.158 Q1.309 0.313 1.624 0.318" stroke="hsl(0.0,100%,35%)" stroke-width="0.00122"></path>
<path d="M1.250 0.158 Q1.424 0.306 1.751 0.253" stroke="hsl(0.0,100%,35%)" stroke-width="0.00122"></path>
<path d="M1.250 0.158 Q1.136 0.078 0.956 0.116" stroke="hsl(0.0,100%,35%)" stroke-width="0.00122"></path>
<path d="M1.250 0.158 Q0.832 0.230 0.881 0.450" stroke="hsl(0.0,100%,35%)" stroke-width="0.00367"></path>
<path d="M1.250 0.158 Q1.314 0.254 1.515 0.244" stroke="hsl(0.0,100%,35%)" stroke-width="0.00367"></path>
<path d="M1.250 0.158 Q0.956 0.531 1.620 0.757" stroke="hsl(0.0,100%,35%)" stroke-width="0.00122"></path>
<path d="M1.250 0.158 Q1.288 0.169 1.317 0.153" stroke="hsl(0.0,100%,35%)" stroke-width="0.00122"></path>
<path d="M0.634 0.880 Q1.679 0.625 1.410 0.059" stroke="hsl(0.0,100%,35%)" stroke-width="0.00245"></path>
<path d="M0.634 0.880 Q1.225 1.016 1.620 0.757" stroke="hsl(0.0,100%,35%)" stroke-width="0.00122"></path>
<path d="M0.634 0.880 Q0.526 0.822 0.389 0.861" stroke="hsl(0.0,100%,35%)" stroke-width="0.00122"></path>
<path d="M0.634 0.880 Q0.770 0.885 0.809 0.819" stroke="hsl(0.0,100%,35%)" stroke-width="0.00122"></path>
<path d="M0.881 0.450 Q1.459 0.361 1.410 0.059" stroke="hsl(0.0,100%,35%)" stroke-width="0.01467"></path>
<path d="M0.881 0.450 Q1.300 0.378 1.250 0.158" stroke="hsl(0.0,100%,35%)" stroke-width="0.00122"></path>
<path d="M0.881 0.450 Q0.750 0.585 0.983 0.678" stroke="hsl(0.0,100%,35%)" stroke-width="0.00122"></path>
<path d="M0.881 0.450 Q1.239 0.409 1.236 0.225" stroke="hsl(0.0,100%,35%)" stroke-width="0.00489"></path>
<path d="M0.881 0.450 Q1.230 0.367 1.145 0.179" stroke="hsl(0.0,100%,35%)" stroke-width="0.00122"></path>
<path d="M0.881 0.450 Q0.801 0.510 0.899 0.562" stroke="hsl(0.0,100%,35%)" stroke-width="0.00978"></path>
<path d="M0.881 0.450 Q0.630 0.395 0.466 0.505" stroke="hsl(0.0,100%,35%)" stroke-width="0.00245"></path>
<path d="M0.881 0.450 Q1.112 0.470 1.202 0.362" stroke="hsl(0.0,100%,35%)" stroke-width="0.00611"></path>
<path d="M0.099 0.381 Q0.559 0.873 1.620 0.757" stroke="hsl(0.0,100%,35%)" stroke-width="0.00122"></path>
<path d="M0.099 0.381 Q0.749 0.590 1.299 0.318" stroke="hsl(0.0,100%,35%)" stroke-width="0.00245"></path>
<path d="M0.099 0.381 Q0.435 0.572 0.881 0.450" stroke="hsl(0.0,100%,35%)" stroke-width="0.00122"></path>
<path d="M0.099 0.381 Q-0.033 0.738 0.634 0.880" stroke="hsl(0.0,100%,35%)" stroke-width="0.00122"></path>
<path d="M0.099 0.381 Q0.170 0.437 0.293 0.414" stroke="hsl(0.0,100%,35%)" stroke-width="0.00122"></path>
<path d="M0.099 0.381 Q0.182 0.325 0.090 0.272" stroke="hsl(0.0,100%,35%)" stroke-width="0.00122"></path>
<path d="M0.099 0.381 Q0.295 0.354 0.284 0.252" stroke="hsl(0.0,100%,35%)" stroke-width="0.00122"></path>
<path d="M0.099 0.381 Q0.002 0.414 0.043 0.468" stroke="hsl(0.0,100%,35%)" stroke-width="0.00122"></path>
<path d="M0.099 0.381 Q0.183 0.517 0.466 0.505" stroke="hsl(0.0,100%,35%)" stroke-width="0.00122"></path>
<path d="M0.099 0.381 Q0.240 0.396 0.301 0.331" stroke="hsl(0.0,100%,35%)" stroke-width="0.00122"></path>
<path d="M0.099 0.381 Q0.082 0.449 0.211 0.473" stroke="hsl(0.0,100%,35%)" stroke-width="0.00122"></path>
<path d="M1.535 0.882 Q2.131 0.445 1.410 0.059" stroke="hsl(0.0,100%,35%)" stroke-width="0.00122"></path>
<path d="M1.535 0.882 Q1.677 0.836 1.620 0.757" stroke="hsl(0.0,100%,35%)" stroke-width="0.00367"></path>
<path d="M1.535 0.882 Q2.182 0.531 1.641 0.139" stroke="hsl(0.0,100%,35%)" stroke-width="0.00245"></path>
<path d="M1.535 0.882 Q1.086 0.701 0.634 0.880" stroke="hsl(0.0,100%,35%)" stroke-width="0.00245"></path>
<path d="M1.535 0.882 Q1.784 0.555 1.202 0.362" stroke="hsl(0.0,100%,35%)" stroke-width="0.00245"></path>
<path d="M1.535 0.882 Q1.902 0.452 1.145 0.179" stroke="hsl(0.0,100%,35%)" stroke-width="0.00122"></path>
<path d="M0.956 0.116 Q0.848 0.193 0.974 0.262" stroke="hsl(0.0,100%,35%)" stroke-width="0.05502"></path>
<path d="M0.956 0.116 Q1.229 0.179 1.410 0.059" stroke="hsl(0.0,100%,35%)" stroke-width="0.10148"></path>
<path d="M0.956 0.116 Q1.070 0.196 1.250 0.158" stroke="hsl(0.0,100%,35%)" stroke-width="0.02201"></path>
<path d="M0.956 0.116 Q1.025 0.148 1.103 0.122" stroke="hsl(0.0,100%,35%)" stroke-width="0.00122"></path>
<path d="M0.956 0.116 Q0.520 0.403 0.983 0.678" stroke="hsl(0.0,100%,35%)" stroke-width="0.00245"></path>
<path d="M0.956 0.116 Q0.184 0.434 0.634 0.880" stroke="hsl(0.0,100%,35%)" stroke-width="0.00367"></path>
<path d="M0.956 0.116 Q0.914 0.110 0.892 0.129" stroke="hsl(0.0,100%,35%)" stroke-width="0.00245"></path>
<path d="M0.956 0.116 Q1.040 0.310 1.436 0.311" stroke="hsl(0.0,100%,35%)" stroke-width="0.00122"></path>
<path d="M0.956 0.116 Q1.000 0.185 1.145 0.179" stroke="hsl(0.0,100%,35%)" stroke-width="0.00122"></path>
<path d="M0.956 0.116 Q0.282 0.556 0.992 0.981" stroke="hsl(0.0,100%,35%)" stroke-width="0.00122"></path>
<path d="M0.956 0.116 Q1.275 0.344 1.789 0.238" stroke="hsl(0.0,100%,35%)" stroke-width="0.00122"></path>
<path d="M0.956 0.116 Q1.107 0.207 1.317 0.153" stroke="hsl(0.0,100%,35%)" stroke-width="0.00367"></path>
<path d="M0.956 0.116 Q0.651 0.268 0.881 0.450" stroke="hsl(0.0,100%,35%)" stroke-width="0.00489"></path>
<path d="M0.956 0.116 Q1.009 0.227 1.236 0.225" stroke="hsl(0.0,100%,35%)" stroke-width="0.04279"></path>
<path d="M0.956 0.116 Q0.775 0.569 1.620 0.757" stroke="hsl(0.0,100%,35%)" stroke-width="0.00489"></path>
<path d="M0.956 0.116 Q0.996 0.127 1.026 0.110" stroke="hsl(0.0,100%,35%)" stroke-width="0.00245"></path>
<path d="M0.956 0.116 Q1.002 0.186 1.149 0.179" stroke="hsl(0.0,100%,35%)" stroke-width="0.00489"></path>
<path d="M0.956 0.116 Q1.344 0.308 1.803 0.161" stroke="hsl(0.0,100%,35%)" stroke-width="0.00245"></path>
<path d="M0.956 0.116 Q1.204 0.269 1.557 0.182" stroke="hsl(0.0,100%,35%)" stroke-width="0.00245"></path>
<path d="M0.956 0.116 Q0.882 0.288 1.202 0.362" stroke="hsl(0.0,100%,35%)" stroke-width="0.02445"></path>
<path d="M0.956 0.116 Q1.182 0.073 1.148 -0.046" stroke="hsl(0.0,100%,35%)" stroke-width="0.00122"></path>
<path d="M0.956 0.116 Q1.167 0.232 1.441 0.155" stroke="hsl(0.0,100%,35%)" stroke-width="0.00489"></path>
<path d="M0.956 0.116 Q0.889 0.089 0.822 0.116" stroke="hsl(0.0,100%,35%)" stroke-width="0.00122"></path>
<path d="M0.956 0.116 Q1.197 0.084 1.187 -0.041" stroke="hsl(0.0,100%,35%)" stroke-width="0.00245"></path>
<path d="M0.956 0.116 Q1.192 0.247 1.499 0.160" stroke="hsl(0.0,100%,35%)" stroke-width="0.00122"></path>
<path d="M0.956 0.116 Q0.888 0.224 1.083 0.281" stroke="hsl(0.0,100%,35%)" stroke-width="0.00122"></path>
<path d="M0.956 0.116 Q0.953 0.230 1.176 0.257" stroke="hsl(0.0,100%,35%)" stroke-width="0.00122"></path>
<path d="M0.956 0.116 Q0.897 0.114 0.880 0.143" stroke="hsl(0.0,100%,35%)" stroke-width="0.00122"></path>
<path d="M0.956 0.116 Q1.202 0.436 1.879 0.386" stroke="hsl(0.0,100%,35%)" stroke-width="0.00245"></path>
<path d="M0.956 0.116 Q0.983 0.152 1.059 0.147" stroke="hsl(0.0,100%,35%)" stroke-width="0.00122"></path>
<path d="M1.440 0.366 Q1.512 0.224 1.250 0.158" stroke="hsl(0.0,100%,35%)" stroke-width="0.00245"></path>
<path d="M1.440 0.366 Q1.093 0.296 0.881 0.450" stroke="hsl(0.0,100%,35%)" stroke-width="0.00245"></path>
<path d="M1.440 0.366 Q1.671 0.207 1.410 0.059" stroke="hsl(0.0,100%,35%)" stroke-width="0.00611"></path>
<path d="M1.440 0.366 Q1.325 0.316 1.202 0.362" stroke="hsl(0.0,100%,35%)" stroke-width="0.00245"></path>
<path d="M1.440 0.366 Q1.646 0.297 1.557 0.182" stroke="hsl(0.0,100%,35%)" stroke-width="0.00122"></path>
<path d="M0.389 0.861 Q0.538 0.844 0.538 0.767" stroke="hsl(0.0,100%,35%)" stroke-width="0.00122"></path>
<path d="M0.389 0.861 Q0.496 0.920 0.634 0.880" stroke="hsl(0.0,100%,35%)" stroke-width="0.01223"></path>
<path d="M0.389 0.861 Q0.478 0.792 0.363 0.733" stroke="hsl(0.0,100%,35%)" stroke-width="0.00122"></path>
<path d="M0.389 0.861 Q0.963 0.754 0.881 0.450" stroke="hsl(0.0,100%,35%)" stroke-width="0.00122"></path>
<path d="M0.389 0.861 Q1.541 0.664 1.410 0.059" stroke="hsl(0.0,100%,35%)" stroke-width="0.00122"></path>
<path d="M0.389 0.861 Q0.548 0.792 0.449 0.700" stroke="hsl(0.0,100%,35%)" stroke-width="0.00245"></path>
<path d="M0.389 0.861 Q1.087 1.055 1.620 0.757" stroke="hsl(0.0,100%,35%)" stroke-width="0.00245"></path>
<path d="M0.389 0.861 Q0.421 0.780 0.269 0.746" stroke="hsl(0.0,100%,35%)" stroke-width="0.00245"></path>
<path d="M1.905 0.271 Q1.965 0.250 1.937 0.217" stroke="hsl(0.0,100%,35%)" stroke-width="0.00245"></path>
<path d="M1.905 0.271 Q1.481 0.176 1.202 0.362" stroke="hsl(0.0,100%,35%)" stroke-width="0.00122"></path>
<path d="M1.905 0.271 Q1.250 0.156 0.881 0.450" stroke="hsl(0.0,100%,35%)" stroke-width="0.00122"></path>
<path d="M1.640 0.419 Q1.813 0.193 1.410 0.059" stroke="hsl(0.0,100%,35%)" stroke-width="0.00122"></path>
<path d="M1.640 0.419 Q1.236 0.283 0.881 0.450" stroke="hsl(0.0,100%,35%)" stroke-width="0.00122"></path>
<path d="M1.640 0.419 Q1.786 0.450 1.879 0.386" stroke="hsl(0.0,100%,35%)" stroke-width="0.00122"></path>
<path d="M0.458 0.401 Q0.341 0.415 0.344 0.475" stroke="hsl(0.0,100%,35%)" stroke-width="0.00122"></path>
<path d="M0.458 0.401 Q0.861 0.530 1.202 0.362" stroke="hsl(0.0,100%,35%)" stroke-width="0.00122"></path>
<path d="M0.458 0.401 Q0.384 0.486 0.534 0.541" stroke="hsl(0.0,100%,35%)" stroke-width="0.00122"></path>
<path d="M0.458 0.401 Q0.378 0.455 0.466 0.505" stroke="hsl(0.0,100%,35%)" stroke-width="0.00122"></path>
<path d="M0.458 0.401 Q0.553 0.365 0.505 0.311" stroke="hsl(0.0,100%,35%)" stroke-width="0.00122"></path>
<path d="M0.992 0.981 Q1.361 0.693 0.881 0.450" stroke="hsl(0.0,100%,35%)" stroke-width="0.00122"></path>
<path d="M0.992 0.981 Q1.914 0.694 1.557 0.182" stroke="hsl(0.0,100%,35%)" stroke-width="0.00122"></path>
<path d="M0.992 0.981 Q1.712 0.611 1.149 0.179" stroke="hsl(0.0,100%,35%)" stroke-width="0.00122"></path>
<path d="M0.992 0.981 Q1.143 1.022 1.257 0.957" stroke="hsl(0.0,100%,35%)" stroke-width="0.00245"></path>
<path d="M0.343 0.612 Q0.973 0.659 1.202 0.362" stroke="hsl(0.0,100%,35%)" stroke-width="0.00122"></path>
<path d="M0.343 0.612 Q0.496 0.615 0.534 0.541" stroke="hsl(0.0,100%,35%)" stroke-width="0.00122"></path>
<path d="M0.343 0.612 Q0.661 0.698 0.899 0.562" stroke="hsl(0.0,100%,35%)" stroke-width="0.00122"></path>
<path d="M0.833 0.307 Q1.320 0.299 1.410 0.059" stroke="hsl(0.0,100%,35%)" stroke-width="0.00734"></path>
<path d="M0.833 0.307 Q0.939 0.313 0.974 0.262" stroke="hsl(0.0,100%,35%)" stroke-width="0.01834"></path>
<path d="M0.833 0.307 Q1.047 0.236 0.956 0.116" stroke="hsl(0.0,100%,35%)" stroke-width="0.01100"></path>
<path d="M0.612 0.632 Q1.469 0.505 1.410 0.059" stroke="hsl(0.0,100%,35%)" stroke-width="0.00245"></path>
<path d="M0.612 0.632 Q0.592 0.679 0.679 0.699" stroke="hsl(0.0,100%,35%)" stroke-width="0.00122"></path>
<path d="M0.612 0.632 Q0.317 0.702 0.389 0.861" stroke="hsl(0.0,100%,35%)" stroke-width="0.00122"></path>
<path d="M1.876 0.152 Q0.672 0.268 0.634 0.880" stroke="hsl(0.0,100%,35%)" stroke-width="0.00122"></path>
<path d="M1.876 0.152 Q1.855 0.197 1.937 0.217" stroke="hsl(0.0,100%,35%)" stroke-width="0.00245"></path>
<path d="M1.876 0.152 Q1.371 0.122 1.202 0.362" stroke="hsl(0.0,100%,35%)" stroke-width="0.00122"></path>
<path d="M1.454 0.415 Q1.371 0.338 1.202 0.362" stroke="hsl(0.0,100%,35%)" stroke-width="0.00245"></path>
<path d="M1.454 0.415 Q1.139 0.318 0.881 0.450" stroke="hsl(0.0,100%,35%)" stroke-width="0.00122"></path>
<path d="M1.454 0.415 Q1.336 0.243 0.974 0.262" stroke="hsl(0.0,100%,35%)" stroke-width="0.00122"></path>
<path d="M0.519 0.012 Q0.521 0.104 0.701 0.123" stroke="hsl(0.0,100%,35%)" stroke-width="0.00367"></path>
<path d="M0.519 0.012 Q0.218 0.183 0.487 0.368" stroke="hsl(0.0,100%,35%)" stroke-width="0.00122"></path>
<path d="M0.519 0.012 Q0.694 0.163 1.026 0.110" stroke="hsl(0.0,100%,35%)" stroke-width="0.00122"></path>
<path d="M0.519 0.012 Q0.353 0.089 0.466 0.186" stroke="hsl(0.0,100%,35%)" stroke-width="0.00122"></path>
<path d="M0.519 0.012 Q0.475 0.112 0.660 0.155" stroke="hsl(0.0,100%,35%)" stroke-width="0.00245"></path>
<path d="M0.519 0.012 Q-0.226 0.410 0.389 0.861" stroke="hsl(0.0,100%,35%)" stroke-width="0.00245"></path>
<path d="M0.519 0.012 Q0.900 0.471 1.879 0.386" stroke="hsl(0.0,100%,35%)" stroke-width="0.00245"></path>
<path d="M0.519 0.012 Q0.544 0.100 0.721 0.107" stroke="hsl(0.0,100%,35%)" stroke-width="0.00122"></path>
<path d="M1.804 0.601 Q2.040 0.251 1.410 0.059" stroke="hsl(0.0,100%,35%)" stroke-width="0.00367"></path>
<path d="M1.804 0.601 Q1.587 0.642 1.620 0.757" stroke="hsl(0.0,100%,35%)" stroke-width="0.00367"></path>
<path d="M1.804 0.601 Q1.812 0.258 1.145 0.179" stroke="hsl(0.0,100%,35%)" stroke-width="0.00122"></path>
<path d="M1.638 0.123 Q1.575 0.045 1.410 0.059" stroke="hsl(0.0,100%,35%)" stroke-width="0.01956"></path>
<path d="M1.638 0.123 Q1.122 0.436 1.620 0.757" stroke="hsl(0.0,100%,35%)" stroke-width="0.00122"></path>
<path d="M1.638 0.123 Q1.621 0.211 1.789 0.238" stroke="hsl(0.0,100%,35%)" stroke-width="0.00245"></path>
<path d="M1.638 0.123 Q0.998 0.135 0.881 0.450" stroke="hsl(0.0,100%,35%)" stroke-width="0.00122"></path>
<path d="M1.638 0.123 Q1.480 0.159 1.515 0.244" stroke="hsl(0.0,100%,35%)" stroke-width="0.00122"></path>
<path d="M1.638 0.123 Q1.229 0.155 1.202 0.362" stroke="hsl(0.0,100%,35%)" stroke-width="0.00122"></path>
<path d="M0.670 0.410 Q0.975 0.492 1.202 0.362" stroke="hsl(0.0,100%,35%)" stroke-width="0.00245"></path>
<path d="M0.670 0.410 Q0.743 0.472 0.881 0.450" stroke="hsl(0.0,100%,35%)" stroke-width="0.00245"></path>
<path d="M0.670 0.410 Q1.321 0.383 1.410 0.059" stroke="hsl(0.0,100%,35%)" stroke-width="0.00122"></path>
<path d="M0.964 0.854 Q1.073 0.831 1.052 0.773" stroke="hsl(0.0,100%,35%)" stroke-width="0.00122"></path>
<path d="M0.964 0.854 Q1.114 0.770 0.983 0.678" stroke="hsl(0.0,100%,35%)" stroke-width="0.00245"></path>
<path d="M0.964 0.854 Q1.560 0.653 1.299 0.318" stroke="hsl(0.0,100%,35%)" stroke-width="0.00122"></path>
<path d="M0.964 0.854 Q0.927 0.798 0.810 0.804" stroke="hsl(0.0,100%,35%)" stroke-width="0.00122"></path>
<path d="M1.127 0.529 Q1.644 0.351 1.410 0.059" stroke="hsl(0.0,100%,35%)" stroke-width="0.00122"></path>
<path d="M1.127 0.529 Q0.599 0.606 0.634 0.880" stroke="hsl(0.0,100%,35%)" stroke-width="0.00122"></path>
<path d="M1.127 0.529 Q1.298 0.460 1.202 0.362" stroke="hsl(0.0,100%,35%)" stroke-width="0.00122"></path>
<path d="M1.127 0.529 Q1.067 0.440 0.881 0.450" stroke="hsl(0.0,100%,35%)" stroke-width="0.00122"></path>
</g>
<text x="1.638" y="-0.027" font-size="0.012301" fill="hsl(0.0,100%,20%)">ajuma</text>
<text x="1.410" y="0.014" font-size="0.089837" fill="hsl(0.0,100%,20%)">bartekn</text>
<text x="0.892" y="0.124" font-size="0.008698" fill="hsl(0.0,100%,20%)">gab</text>
<text x="1.236" y="0.196" font-size="0.058995" fill="hsl(0.0,100%,20%)">yukishiino</text>
<text x="1.288" y="0.693" font-size="0.010044" fill="hsl(0.0,100%,20%)">andre.kempe</text>
<text x="1.620" y="0.744" font-size="0.025607" fill="hsl(0.0,100%,20%)">dcheng</text>
<text x="1.145" y="0.166" font-size="0.025607" fill="hsl(0.0,100%,20%)">glazunov</text>
<text x="1.202" y="0.341" font-size="0.041413" fill="hsl(0.0,100%,20%)">haraken</text>
<text x="1.448" y="0.599" font-size="0.007102" fill="hsl(0.0,100%,20%)">joenotcharles</text>
<text x="1.641" y="0.127" font-size="0.023555" fill="hsl(0.0,100%,20%)">arthursonzogni</text>
<text x="0.974" y="0.230" font-size="0.064704" fill="hsl(0.0,100%,20%)">tasak</text>
<text x="1.250" y="0.139" font-size="0.037581" fill="hsl(0.0,100%,20%)">keishi</text>
<text x="1.637" y="-0.098" font-size="0.005022" fill="hsl(0.0,100%,20%)">pmeuleman</text>
<text x="0.634" y="0.867" font-size="0.025607" fill="hsl(0.0,100%,20%)">danakj</text>
<text x="0.881" y="0.428" font-size="0.045753" fill="hsl(0.0,100%,20%)">lizeb</text>
<text x="0.099" y="0.373" font-size="0.017397" fill="hsl(0.0,100%,20%)">avi</text>
<text x="1.299" y="0.312" font-size="0.013287" fill="hsl(0.0,100%,20%)">mark</text>
<text x="0.293" y="0.412" font-size="0.005022" fill="hsl(0.0,100%,20%)">garykac</text>
<text x="0.090" y="0.270" font-size="0.005022" fill="hsl(0.0,100%,20%)">khorimoto</text>
<text x="0.284" y="0.250" font-size="0.005022" fill="hsl(0.0,100%,20%)">mbonadei</text>
<text x="0.043" y="0.465" font-size="0.007102" fill="hsl(0.0,100%,20%)">rohitrao</text>
<text x="0.466" y="0.500" font-size="0.010044" fill="hsl(0.0,100%,20%)">rsesek</text>
<text x="0.301" y="0.328" font-size="0.005022" fill="hsl(0.0,100%,20%)">tedchoc</text>
<text x="0.211" y="0.471" font-size="0.005022" fill="hsl(0.0,100%,20%)">vovoy</text>
<text x="1.535" y="0.873" font-size="0.017397" fill="hsl(0.0,100%,20%)">paulsemel</text>
<text x="1.600" y="0.144" font-size="0.008698" fill="hsl(0.0,100%,20%)">tsepez</text>
<text x="1.499" y="0.155" font-size="0.010044" fill="hsl(0.0,100%,20%)">altimin</text>
<text x="1.557" y="0.170" font-size="0.022459" fill="hsl(0.0,100%,20%)">bikineev</text>
<text x="0.956" y="0.072" font-size="0.087562" fill="hsl(0.0,100%,20%)">kdlee</text>
<text x="1.441" y="0.149" font-size="0.012301" fill="hsl(0.0,100%,20%)">bgeffon</text>
<text x="1.937" y="0.211" font-size="0.011230" fill="hsl(0.0,100%,20%)">thestig</text>
<text x="1.298" y="0.276" font-size="0.008698" fill="hsl(0.0,100%,20%)">gbeaty</text>
<text x="1.148" y="-0.051" font-size="0.008698" fill="hsl(0.0,100%,20%)">jochen</text>
<text x="1.440" y="0.357" font-size="0.018791" fill="hsl(0.0,100%,20%)">richard.townsend</text>
<text x="1.879" y="0.380" font-size="0.012301" fill="hsl(0.0,100%,20%)">wfh</text>
<text x="1.294" y="0.128" font-size="0.005022" fill="hsl(0.0,100%,20%)">asully</text>
<text x="0.389" y="0.849" font-size="0.024603" fill="hsl(0.0,100%,20%)">pkasting</text>
<text x="0.809" y="0.817" font-size="0.005022" fill="hsl(0.0,100%,20%)">lukasza</text>
<text x="1.905" y="0.266" font-size="0.010044" fill="hsl(0.0,100%,20%)">dsanders11</text>
<text x="1.640" y="0.415" font-size="0.008698" fill="hsl(0.0,100%,20%)">floresa</text>
<text x="1.317" y="0.146" font-size="0.013287" fill="hsl(0.0,100%,20%)">mpdenton</text>
<text x="0.458" y="0.395" font-size="0.011230" fill="hsl(0.0,100%,20%)">guochengwei</text>
<text x="0.344" y="0.473" font-size="0.005022" fill="hsl(0.0,100%,20%)">dnicoara</text>
<text x="0.534" y="0.537" font-size="0.007102" fill="hsl(0.0,100%,20%)">kimstephanie</text>
<text x="0.505" y="0.308" font-size="0.005022" fill="hsl(0.0,100%,20%)">smaier</text>
<text x="0.992" y="0.975" font-size="0.012301" fill="hsl(0.0,100%,20%)">hans</text>
<text x="1.149" y="0.173" font-size="0.012301" fill="hsl(0.0,100%,20%)">mlippautz</text>
<text x="1.257" y="0.953" font-size="0.007102" fill="hsl(0.0,100%,20%)">thakis</text>
<text x="0.343" y="0.608" font-size="0.008698" fill="hsl(0.0,100%,20%)">hnakashima</text>
<text x="0.899" y="0.555" font-size="0.015066" fill="hsl(0.0,100%,20%)">thiabaud</text>
<text x="0.833" y="0.293" font-size="0.027507" fill="hsl(0.0,100%,20%)">honokaanada</text>
<text x="1.103" y="0.119" font-size="0.005022" fill="hsl(0.0,100%,20%)">danilchap</text>
<text x="0.983" y="0.672" font-size="0.012301" fill="hsl(0.0,100%,20%)">fdoray</text>
<text x="1.436" y="0.307" font-size="0.007102" fill="hsl(0.0,100%,20%)">sdefresne</text>
<text x="1.789" y="0.234" font-size="0.008698" fill="hsl(0.0,100%,20%)">leszeks</text>
<text x="1.026" y="0.106" font-size="0.008698" fill="hsl(0.0,100%,20%)">kylechar</text>
<text x="1.803" y="0.156" font-size="0.008698" fill="hsl(0.0,100%,20%)">tkent</text>
<text x="0.822" y="0.113" font-size="0.007102" fill="hsl(0.0,100%,20%)">etienneb</text>
<text x="1.187" y="-0.045" font-size="0.007102" fill="hsl(0.0,100%,20%)">metzman</text>
<text x="1.083" y="0.278" font-size="0.005022" fill="hsl(0.0,100%,20%)">erikchen</text>
<text x="1.176" y="0.254" font-size="0.005022" fill="hsl(0.0,100%,20%)">ayui</text>
<text x="0.880" y="0.140" font-size="0.005022" fill="hsl(0.0,100%,20%)">primiano</text>
<text x="1.059" y="0.145" font-size="0.005022" fill="hsl(0.0,100%,20%)">wez</text>
<text x="1.483" y="0.264" font-size="0.005022" fill="hsl(0.0,100%,20%)">ccameron</text>
<text x="1.624" y="0.316" font-size="0.005022" fill="hsl(0.0,100%,20%)">rakina</text>
<text x="1.751" y="0.251" font-size="0.005022" fill="hsl(0.0,100%,20%)">wrong</text>
<text x="1.515" y="0.239" font-size="0.010044" fill="hsl(0.0,100%,20%)">ssid</text>
<text x="0.612" y="0.627" font-size="0.010044" fill="hsl(0.0,100%,20%)">marshall</text>
<text x="0.679" y="0.697" font-size="0.005022" fill="hsl(0.0,100%,20%)">perrier</text>
<text x="1.876" y="0.147" font-size="0.010044" fill="hsl(0.0,100%,20%)">pbos</text>
<text x="0.538" y="0.765" font-size="0.005022" fill="hsl(0.0,100%,20%)">agrieve</text>
<text x="0.363" y="0.731" font-size="0.005022" fill="hsl(0.0,100%,20%)">wittman</text>
<text x="0.449" y="0.696" font-size="0.007102" fill="hsl(0.0,100%,20%)">behdadb</text>
<text x="0.269" y="0.742" font-size="0.007102" fill="hsl(0.0,100%,20%)">nicolaso</text>
<text x="1.454" y="0.410" font-size="0.010044" fill="hsl(0.0,100%,20%)">qitiezheng</text>
<text x="0.519" y="0.003" font-size="0.018107" fill="hsl(0.0,100%,20%)">rwkeane</text>
<text x="0.701" y="0.118" font-size="0.008698" fill="hsl(0.0,100%,20%)">ajgo</text>
<text x="0.487" y="0.365" font-size="0.005022" fill="hsl(0.0,100%,20%)">ddorwin</text>
<text x="0.466" y="0.184" font-size="0.005022" fill="hsl(0.0,100%,20%)">mfoltz</text>
<text x="0.660" y="0.151" font-size="0.007102" fill="hsl(0.0,100%,20%)">jshin</text>
<text x="0.721" y="0.104" font-size="0.005022" fill="hsl(0.0,100%,20%)">kmarshall</text>
<text x="1.804" y="0.594" font-size="0.013287" fill="hsl(0.0,100%,20%)">saelo</text>
<text x="1.638" y="0.111" font-size="0.023555" fill="hsl(0.0,100%,20%)">sroettger</text>
<text x="0.670" y="0.405" font-size="0.011230" fill="hsl(0.0,100%,20%)">stha09</text>
<text x="0.948" y="0.328" font-size="0.005022" fill="hsl(0.0,100%,20%)">tikuta</text>
<text x="1.119" y="0.426" font-size="0.005022" fill="hsl(0.0,100%,20%)">estaab</text>
<text x="0.964" y="0.849" font-size="0.011230" fill="hsl(0.0,100%,20%)">vollick</text>
<text x="1.052" y="0.771" font-size="0.005022" fill="hsl(0.0,100%,20%)">dtapuska</text>
<text x="0.810" y="0.802" font-size="0.005022" fill="hsl(0.0,100%,20%)">anthonyvd</text>
<text x="1.127" y="0.524" font-size="0.010044" fill="hsl(0.0,100%,20%)">wangqing-hf</text>
<text x="1.448" y="0.256" font-size="0.005022" fill="hsl(0.0,100%,20%)">rockot</text>
<text x="1.232" y="0.269" font-size="0.005022" fill="hsl(0.0,100%,20%)">mamir</text>
<text x="1.549" y="0.259" font-size="0.005022" fill="hsl(0.0,100%,20%)">meacer</text>
<text x="1.741" y="0.220" font-size="0.005022" fill="hsl(0.0,100%,20%)">victortan</text>
</svg>
