<svg width="4000" height="2000" viewBox="-0.025 -0.025 2.05 1.05" xmlns="http://www.w3.org/2000/svg">
  <style>
    path {
      fill: none;
      stroke-linecap: round;
      stroke-opacity: 0.4;
    }

    text {
      text-anchor: middle;
      alignment-baseline: hanging;
    }
  </style>
  <g opacity="0.4">
<path d="M1.009 0.730 Q1.629 0.669 1.646 0.353" stroke="hsl(0.0,100%,35%)" stroke-width="0.00419"></path>
<path d="M1.009 0.730 Q0.812 0.726 0.761 0.821" stroke="hsl(0.0,100%,35%)" stroke-width="0.00838"></path>
<path d="M1.009 0.730 Q0.888 0.829 1.055 0.910" stroke="hsl(0.0,100%,35%)" stroke-width="0.00977"></path>
<path d="M1.009 0.730 Q1.685 0.547 1.477 0.178" stroke="hsl(0.0,100%,35%)" stroke-width="0.00559"></path>
<path d="M1.009 0.730 Q1.232 0.810 1.437 0.718" stroke="hsl(0.0,100%,35%)" stroke-width="0.00140"></path>
<path d="M1.009 0.730 Q0.967 0.751 0.999 0.776" stroke="hsl(0.0,100%,35%)" stroke-width="0.00140"></path>
<path d="M1.646 0.353 Q1.847 0.259 1.708 0.141" stroke="hsl(120.0,100%,35%)" stroke-width="0.02374"></path>
<path d="M1.646 0.353 Q1.503 0.311 1.389 0.371" stroke="hsl(120.0,100%,35%)" stroke-width="0.00977"></path>
<path d="M1.646 0.353 Q0.829 0.410 0.761 0.821" stroke="hsl(120.0,100%,35%)" stroke-width="0.01955"></path>
<path d="M1.646 0.353 Q1.702 0.232 1.477 0.178" stroke="hsl(120.0,100%,35%)" stroke-width="0.02234"></path>
<path d="M1.646 0.353 Q1.249 0.494 1.437 0.718" stroke="hsl(120.0,100%,35%)" stroke-width="0.00838"></path>
<path d="M1.646 0.353 Q1.817 0.360 1.869 0.278" stroke="hsl(120.0,100%,35%)" stroke-width="0.00140"></path>
<path d="M1.646 0.353 Q0.743 0.252 0.346 0.670" stroke="hsl(120.0,100%,35%)" stroke-width="0.00140"></path>
<path d="M1.646 0.353 Q1.731 0.387 1.814 0.353" stroke="hsl(120.0,100%,35%)" stroke-width="0.01117"></path>
<path d="M1.646 0.353 Q1.299 0.595 1.695 0.817" stroke="hsl(120.0,100%,35%)" stroke-width="0.00279"></path>
<path d="M1.646 0.353 Q1.430 0.083 0.855 0.129" stroke="hsl(120.0,100%,35%)" stroke-width="0.00279"></path>
<path d="M1.646 0.353 Q1.101 0.266 0.811 0.512" stroke="hsl(120.0,100%,35%)" stroke-width="0.00140"></path>
<path d="M1.646 0.353 Q0.984 0.435 0.999 0.776" stroke="hsl(120.0,100%,35%)" stroke-width="0.01117"></path>
<path d="M1.646 0.353 Q0.756 0.459 0.769 0.917" stroke="hsl(120.0,100%,35%)" stroke-width="0.00140"></path>
<path d="M1.646 0.353 Q1.852 0.307 1.807 0.196" stroke="hsl(120.0,100%,35%)" stroke-width="0.00140"></path>
<path d="M1.646 0.353 Q0.630 0.333 0.369 0.824" stroke="hsl(120.0,100%,35%)" stroke-width="0.00140"></path>
<path d="M1.646 0.353 Q0.918 0.018 0.105 0.300" stroke="hsl(120.0,100%,35%)" stroke-width="0.01117"></path>
<path d="M1.646 0.353 Q1.320 0.249 1.045 0.385" stroke="hsl(120.0,100%,35%)" stroke-width="0.00279"></path>
<path d="M1.646 0.353 Q1.647 0.268 1.481 0.248" stroke="hsl(120.0,100%,35%)" stroke-width="0.00419"></path>
<path d="M1.646 0.353 Q0.935 0.287 0.650 0.619" stroke="hsl(120.0,100%,35%)" stroke-width="0.00279"></path>
<path d="M1.646 0.353 Q0.905 0.513 1.055 0.910" stroke="hsl(120.0,100%,35%)" stroke-width="0.01117"></path>
<path d="M1.646 0.353 Q1.529 0.255 1.312 0.290" stroke="hsl(120.0,100%,35%)" stroke-width="0.00279"></path>
<path d="M1.646 0.353 Q0.707 0.473 0.735 0.958" stroke="hsl(120.0,100%,35%)" stroke-width="0.00140"></path>
<path d="M1.646 0.353 Q1.428 0.367 1.408 0.476" stroke="hsl(120.0,100%,35%)" stroke-width="0.00140"></path>
<path d="M1.646 0.353 Q1.690 0.132 1.269 0.062" stroke="hsl(120.0,100%,35%)" stroke-width="0.00140"></path>
<path d="M1.646 0.353 Q1.540 0.187 1.192 0.202" stroke="hsl(120.0,100%,35%)" stroke-width="0.00140"></path>
<path d="M0.761 0.821 Q0.837 0.924 1.055 0.910" stroke="hsl(0.0,100%,35%)" stroke-width="0.03631"></path>
<path d="M0.761 0.821 Q0.916 0.846 0.999 0.776" stroke="hsl(0.0,100%,35%)" stroke-width="0.01676"></path>
<path d="M0.761 0.821 Q1.779 0.670 1.708 0.141" stroke="hsl(0.0,100%,35%)" stroke-width="0.01117"></path>
<path d="M0.761 0.821 Q1.578 0.764 1.646 0.353" stroke="hsl(0.0,100%,35%)" stroke-width="0.01955"></path>
<path d="M0.761 0.821 Q1.461 0.666 1.312 0.290" stroke="hsl(0.0,100%,35%)" stroke-width="0.00140"></path>
<path d="M0.761 0.821 Q1.181 0.905 1.437 0.718" stroke="hsl(0.0,100%,35%)" stroke-width="0.00279"></path>
<path d="M0.761 0.821 Q1.472 0.598 1.192 0.202" stroke="hsl(0.0,100%,35%)" stroke-width="0.00140"></path>
<path d="M0.761 0.821 Q0.687 0.905 0.834 0.959" stroke="hsl(0.0,100%,35%)" stroke-width="0.00140"></path>
<path d="M0.761 0.821 Q0.639 0.884 0.735 0.958" stroke="hsl(0.0,100%,35%)" stroke-width="0.00140"></path>
<path d="M0.761 0.821 Q0.850 0.429 0.105 0.300" stroke="hsl(0.0,100%,35%)" stroke-width="0.00140"></path>
<path d="M0.761 0.821 Q1.011 0.480 0.400 0.283" stroke="hsl(0.0,100%,35%)" stroke-width="0.00140"></path>
<path d="M0.761 0.821 Q0.785 0.846 0.840 0.840" stroke="hsl(0.0,100%,35%)" stroke-width="0.00140"></path>
<path d="M1.055 0.910 Q1.852 0.628 1.477 0.178" stroke="hsl(0.0,100%,35%)" stroke-width="0.00140"></path>
<path d="M1.055 0.910 Q0.857 0.870 0.735 0.958" stroke="hsl(0.0,100%,35%)" stroke-width="0.00140"></path>
<path d="M1.055 0.910 Q1.134 0.832 0.999 0.776" stroke="hsl(0.0,100%,35%)" stroke-width="0.03910"></path>
<path d="M1.055 0.910 Q1.796 0.750 1.646 0.353" stroke="hsl(0.0,100%,35%)" stroke-width="0.01117"></path>
<path d="M1.055 0.910 Q1.881 0.783 1.814 0.353" stroke="hsl(0.0,100%,35%)" stroke-width="0.00140"></path>
<path d="M1.055 0.910 Q1.068 0.415 0.105 0.300" stroke="hsl(0.0,100%,35%)" stroke-width="0.00419"></path>
<path d="M1.055 0.910 Q1.002 0.825 0.825 0.832" stroke="hsl(0.0,100%,35%)" stroke-width="0.00698"></path>
<path d="M1.055 0.910 Q1.690 0.583 1.192 0.202" stroke="hsl(0.0,100%,35%)" stroke-width="0.00279"></path>
<path d="M1.055 0.910 Q1.120 0.750 0.821 0.683" stroke="hsl(0.0,100%,35%)" stroke-width="0.00140"></path>
<path d="M1.055 0.910 Q0.907 0.856 0.769 0.917" stroke="hsl(0.0,100%,35%)" stroke-width="0.00140"></path>
<path d="M1.055 0.910 Q0.979 0.807 0.761 0.821" stroke="hsl(0.0,100%,35%)" stroke-width="0.00698"></path>
<path d="M1.055 0.910 Q0.893 0.648 0.346 0.670" stroke="hsl(0.0,100%,35%)" stroke-width="0.00140"></path>
<path d="M1.477 0.178 Q1.024 0.440 1.437 0.718" stroke="hsl(120.0,100%,35%)" stroke-width="0.00419"></path>
<path d="M1.477 0.178 Q1.421 0.299 1.646 0.353" stroke="hsl(120.0,100%,35%)" stroke-width="0.03910"></path>
<path d="M1.477 0.178 Q1.304 0.201 1.312 0.290" stroke="hsl(120.0,100%,35%)" stroke-width="0.00140"></path>
<path d="M1.477 0.178 Q1.074 0.541 1.695 0.817" stroke="hsl(120.0,100%,35%)" stroke-width="0.00279"></path>
<path d="M1.477 0.178 Q0.680 0.459 1.055 0.910" stroke="hsl(120.0,100%,35%)" stroke-width="0.00698"></path>
<path d="M1.477 0.178 Q1.622 0.205 1.708 0.141" stroke="hsl(120.0,100%,35%)" stroke-width="0.03072"></path>
<path d="M1.477 0.178 Q1.315 0.133 1.192 0.202" stroke="hsl(120.0,100%,35%)" stroke-width="0.00977"></path>
<path d="M1.477 0.178 Q0.604 0.356 0.761 0.821" stroke="hsl(120.0,100%,35%)" stroke-width="0.00279"></path>
<path d="M1.477 0.178 Q1.565 0.136 1.503 0.084" stroke="hsl(120.0,100%,35%)" stroke-width="0.00140"></path>
<path d="M1.477 0.178 Q0.518 0.198 0.346 0.670" stroke="hsl(120.0,100%,35%)" stroke-width="0.00279"></path>
<path d="M1.477 0.178 Q0.822 -0.018 0.296 0.259" stroke="hsl(120.0,100%,35%)" stroke-width="0.00140"></path>
<path d="M1.477 0.178 Q0.759 0.381 0.999 0.776" stroke="hsl(120.0,100%,35%)" stroke-width="0.00419"></path>
<path d="M1.477 0.178 Q1.096 0.195 1.045 0.385" stroke="hsl(120.0,100%,35%)" stroke-width="0.00419"></path>
<path d="M1.477 0.178 Q1.466 0.078 1.269 0.062" stroke="hsl(120.0,100%,35%)" stroke-width="0.00279"></path>
<path d="M1.477 0.178 Q1.572 0.120 1.481 0.062" stroke="hsl(120.0,100%,35%)" stroke-width="0.00140"></path>
<path d="M1.477 0.178 Q0.627 0.375 0.825 0.832" stroke="hsl(120.0,100%,35%)" stroke-width="0.00279"></path>
<path d="M1.477 0.178 Q1.387 0.140 1.294 0.176" stroke="hsl(120.0,100%,35%)" stroke-width="0.00140"></path>
<path d="M1.437 0.718 Q1.833 0.578 1.646 0.353" stroke="hsl(120.0,100%,35%)" stroke-width="0.02932"></path>
<path d="M1.437 0.718 Q1.487 0.819 1.695 0.817" stroke="hsl(120.0,100%,35%)" stroke-width="0.03770"></path>
<path d="M1.437 0.718 Q1.093 0.738 1.055 0.910" stroke="hsl(120.0,100%,35%)" stroke-width="0.00559"></path>
<path d="M1.437 0.718 Q1.889 0.456 1.477 0.178" stroke="hsl(120.0,100%,35%)" stroke-width="0.00140"></path>
<path d="M1.437 0.718 Q1.545 0.690 1.513 0.631" stroke="hsl(120.0,100%,35%)" stroke-width="0.00140"></path>
<path d="M1.437 0.718 Q1.171 0.660 0.999 0.776" stroke="hsl(120.0,100%,35%)" stroke-width="0.00140"></path>
<path d="M1.437 0.718 Q1.727 0.411 1.192 0.202" stroke="hsl(120.0,100%,35%)" stroke-width="0.00140"></path>
<path d="M1.437 0.718 Q1.557 0.655 1.459 0.583" stroke="hsl(120.0,100%,35%)" stroke-width="0.00140"></path>
<path d="M0.999 0.776 Q1.717 0.573 1.477 0.178" stroke="hsl(0.0,100%,35%)" stroke-width="0.00140"></path>
<path d="M0.999 0.776 Q0.920 0.854 1.055 0.910" stroke="hsl(0.0,100%,35%)" stroke-width="0.04468"></path>
<path d="M0.999 0.776 Q1.661 0.694 1.646 0.353" stroke="hsl(0.0,100%,35%)" stroke-width="0.01815"></path>
<path d="M0.999 0.776 Q1.555 0.528 1.192 0.202" stroke="hsl(0.0,100%,35%)" stroke-width="0.00559"></path>
<path d="M0.999 0.776 Q1.041 0.706 0.914 0.670" stroke="hsl(0.0,100%,35%)" stroke-width="0.00140"></path>
<path d="M0.999 0.776 Q1.165 0.793 1.233 0.715" stroke="hsl(0.0,100%,35%)" stroke-width="0.00140"></path>
<path d="M0.999 0.776 Q1.075 0.710 0.963 0.659" stroke="hsl(0.0,100%,35%)" stroke-width="0.00140"></path>
<path d="M0.999 0.776 Q0.933 0.359 0.105 0.300" stroke="hsl(0.0,100%,35%)" stroke-width="0.00559"></path>
<path d="M0.999 0.776 Q0.722 0.814 0.735 0.958" stroke="hsl(0.0,100%,35%)" stroke-width="0.00140"></path>
<path d="M0.999 0.776 Q1.544 0.596 1.312 0.290" stroke="hsl(0.0,100%,35%)" stroke-width="0.00140"></path>
<path d="M0.999 0.776 Q0.927 0.706 0.773 0.725" stroke="hsl(0.0,100%,35%)" stroke-width="0.00140"></path>
<path d="M0.999 0.776 Q0.646 0.674 0.369 0.824" stroke="hsl(0.0,100%,35%)" stroke-width="0.00140"></path>
<path d="M0.999 0.776 Q0.985 0.694 0.821 0.683" stroke="hsl(0.0,100%,35%)" stroke-width="0.00140"></path>
<path d="M0.999 0.776 Q1.706 0.473 1.269 0.062" stroke="hsl(0.0,100%,35%)" stroke-width="0.00279"></path>
<path d="M0.999 0.776 Q0.867 0.769 0.825 0.832" stroke="hsl(0.0,100%,35%)" stroke-width="0.00140"></path>
<path d="M0.388 0.189 Q0.500 0.132 0.415 0.065" stroke="hsl(240.0,100%,35%)" stroke-width="0.00140"></path>
<path d="M0.388 0.189 Q0.158 0.188 0.105 0.300" stroke="hsl(240.0,100%,35%)" stroke-width="0.00419"></path>
<path d="M0.388 0.189 Q0.524 0.223 0.619 0.164" stroke="hsl(240.0,100%,35%)" stroke-width="0.00140"></path>
<path d="M0.388 0.189 Q0.403 0.134 0.300 0.115" stroke="hsl(240.0,100%,35%)" stroke-width="0.00140"></path>
<path d="M0.105 0.300 Q-0.071 0.533 0.346 0.670" stroke="hsl(240.0,100%,35%)" stroke-width="0.00140"></path>
<path d="M0.105 0.300 Q0.276 0.376 0.463 0.310" stroke="hsl(240.0,100%,35%)" stroke-width="0.00140"></path>
<path d="M0.105 0.300 Q0.233 0.318 0.296 0.259" stroke="hsl(240.0,100%,35%)" stroke-width="0.00279"></path>
<path d="M0.105 0.300 Q1.034 0.541 1.708 0.141" stroke="hsl(240.0,100%,35%)" stroke-width="0.00140"></path>
<path d="M0.105 0.300 Q0.265 0.350 0.400 0.283" stroke="hsl(240.0,100%,35%)" stroke-width="0.00140"></path>
<path d="M0.105 0.300 Q0.169 0.367 0.315 0.351" stroke="hsl(240.0,100%,35%)" stroke-width="0.00140"></path>
<path d="M0.105 0.300 Q0.833 0.635 1.646 0.353" stroke="hsl(240.0,100%,35%)" stroke-width="0.00140"></path>
<path d="M1.869 0.278 Q1.698 0.271 1.646 0.353" stroke="hsl(120.0,100%,35%)" stroke-width="0.00977"></path>
<path d="M1.869 0.278 Q0.795 0.169 0.346 0.670" stroke="hsl(120.0,100%,35%)" stroke-width="0.00279"></path>
<path d="M1.869 0.278 Q1.301 0.412 1.437 0.718" stroke="hsl(120.0,100%,35%)" stroke-width="0.00279"></path>
<path d="M1.869 0.278 Q1.794 0.331 1.879 0.379" stroke="hsl(120.0,100%,35%)" stroke-width="0.00140"></path>
<path d="M1.848 0.526 Q0.869 0.379 0.369 0.824" stroke="hsl(240.0,100%,35%)" stroke-width="0.00419"></path>
<path d="M1.848 0.526 Q1.930 0.513 1.924 0.471" stroke="hsl(240.0,100%,35%)" stroke-width="0.00419"></path>
<path d="M1.848 0.526 Q1.731 0.503 1.661 0.555" stroke="hsl(240.0,100%,35%)" stroke-width="0.00140"></path>
<path d="M1.807 0.196 Q0.697 0.141 0.346 0.670" stroke="hsl(120.0,100%,35%)" stroke-width="0.00279"></path>
<path d="M1.807 0.196 Q1.802 0.148 1.708 0.141" stroke="hsl(120.0,100%,35%)" stroke-width="0.00559"></path>
<path d="M1.807 0.196 Q1.601 0.242 1.646 0.353" stroke="hsl(120.0,100%,35%)" stroke-width="0.00140"></path>
<path d="M1.807 0.196 Q1.645 0.021 1.269 0.062" stroke="hsl(120.0,100%,35%)" stroke-width="0.00140"></path>
<path d="M1.807 0.196 Q0.807 0.318 0.825 0.832" stroke="hsl(120.0,100%,35%)" stroke-width="0.00140"></path>
<path d="M1.708 0.141 Q1.507 0.234 1.646 0.353" stroke="hsl(120.0,100%,35%)" stroke-width="0.02234"></path>
<path d="M1.708 0.141 Q1.563 0.113 1.477 0.178" stroke="hsl(120.0,100%,35%)" stroke-width="0.00140"></path>
<path d="M1.708 0.141 Q1.798 0.180 1.894 0.144" stroke="hsl(120.0,100%,35%)" stroke-width="0.00140"></path>
<path d="M1.708 0.141 Q0.410 0.103 0.053 0.728" stroke="hsl(120.0,100%,35%)" stroke-width="0.00140"></path>
<path d="M1.192 0.202 Q0.901 0.509 1.437 0.718" stroke="hsl(120.0,100%,35%)" stroke-width="0.00279"></path>
<path d="M1.192 0.202 Q0.972 0.264 1.045 0.385" stroke="hsl(120.0,100%,35%)" stroke-width="0.00140"></path>
<path d="M1.192 0.202 Q1.298 0.368 1.646 0.353" stroke="hsl(120.0,100%,35%)" stroke-width="0.00140"></path>
<path d="M1.192 0.202 Q0.557 0.529 1.055 0.910" stroke="hsl(120.0,100%,35%)" stroke-width="0.00419"></path>
<path d="M1.192 0.202 Q0.932 0.390 1.242 0.558" stroke="hsl(120.0,100%,35%)" stroke-width="0.00140"></path>
<path d="M1.192 0.202 Q1.499 0.275 1.708 0.141" stroke="hsl(120.0,100%,35%)" stroke-width="0.00140"></path>
<path d="M0.116 0.859 Q0.382 0.810 0.346 0.670" stroke="hsl(240.0,100%,35%)" stroke-width="0.00977"></path>
<path d="M0.116 0.859 Q0.544 1.072 1.055 0.910" stroke="hsl(240.0,100%,35%)" stroke-width="0.00140"></path>
<path d="M0.116 0.859 Q1.487 0.818 1.708 0.141" stroke="hsl(240.0,100%,35%)" stroke-width="0.00140"></path>
<path d="M0.116 0.859 Q0.270 0.892 0.369 0.824" stroke="hsl(240.0,100%,35%)" stroke-width="0.02234"></path>
<path d="M0.116 0.859 Q0.270 0.805 0.200 0.718" stroke="hsl(240.0,100%,35%)" stroke-width="0.00279"></path>
<path d="M0.116 0.859 Q0.230 0.844 0.225 0.785" stroke="hsl(240.0,100%,35%)" stroke-width="0.00140"></path>
<path d="M0.116 0.859 Q0.189 0.781 0.053 0.728" stroke="hsl(240.0,100%,35%)" stroke-width="0.00140"></path>
<path d="M0.116 0.859 Q0.175 0.804 0.082 0.764" stroke="hsl(240.0,100%,35%)" stroke-width="0.00140"></path>
<path d="M0.116 0.859 Q0.291 0.745 0.108 0.635" stroke="hsl(240.0,100%,35%)" stroke-width="0.00140"></path>
<path d="M0.116 0.859 Q1.285 0.912 1.646 0.353" stroke="hsl(240.0,100%,35%)" stroke-width="0.00140"></path>
<path d="M1.389 0.371 Q1.532 0.413 1.646 0.353" stroke="hsl(120.0,100%,35%)" stroke-width="0.00419"></path>
<path d="M1.389 0.371 Q1.489 0.456 1.677 0.426" stroke="hsl(120.0,100%,35%)" stroke-width="0.00140"></path>
<path d="M1.389 0.371 Q0.821 0.347 0.650 0.619" stroke="hsl(120.0,100%,35%)" stroke-width="0.00140"></path>
<path d="M1.814 0.353 Q1.333 0.460 1.437 0.718" stroke="hsl(120.0,100%,35%)" stroke-width="0.00140"></path>
<path d="M1.814 0.353 Q1.730 0.319 1.646 0.353" stroke="hsl(120.0,100%,35%)" stroke-width="0.02095"></path>
<path d="M1.814 0.353 Q1.623 0.153 1.192 0.202" stroke="hsl(120.0,100%,35%)" stroke-width="0.00838"></path>
<path d="M1.814 0.353 Q0.913 0.376 0.761 0.821" stroke="hsl(120.0,100%,35%)" stroke-width="0.00559"></path>
<path d="M1.814 0.353 Q1.068 0.401 0.999 0.776" stroke="hsl(120.0,100%,35%)" stroke-width="0.00279"></path>
<path d="M1.814 0.353 Q1.383 0.561 1.695 0.817" stroke="hsl(120.0,100%,35%)" stroke-width="0.00279"></path>
<path d="M0.650 0.619 Q0.633 0.351 0.105 0.300" stroke="hsl(0.0,100%,35%)" stroke-width="0.00140"></path>
<path d="M0.650 0.619 Q0.544 0.743 0.761 0.821" stroke="hsl(0.0,100%,35%)" stroke-width="0.00419"></path>
<path d="M0.650 0.619 Q1.562 0.592 1.708 0.141" stroke="hsl(0.0,100%,35%)" stroke-width="0.00140"></path>
<path d="M0.650 0.619 Q0.620 0.846 1.055 0.910" stroke="hsl(0.0,100%,35%)" stroke-width="0.00140"></path>
<path d="M0.650 0.619 Q0.605 0.541 0.442 0.545" stroke="hsl(0.0,100%,35%)" stroke-width="0.00140"></path>
<path d="M1.282 0.379 Q1.368 0.341 1.312 0.290" stroke="hsl(120.0,100%,35%)" stroke-width="0.00140"></path>
<path d="M1.282 0.379 Q1.686 0.345 1.708 0.141" stroke="hsl(120.0,100%,35%)" stroke-width="0.00140"></path>
<path d="M1.282 0.379 Q1.138 0.681 1.695 0.817" stroke="hsl(120.0,100%,35%)" stroke-width="0.00140"></path>
<path d="M1.282 0.379 Q1.485 0.439 1.646 0.353" stroke="hsl(120.0,100%,35%)" stroke-width="0.00140"></path>
<path d="M1.242 0.558 Q0.592 0.517 0.369 0.824" stroke="hsl(240.0,100%,35%)" stroke-width="0.00140"></path>
<path d="M1.242 0.558 Q1.502 0.370 1.192 0.202" stroke="hsl(240.0,100%,35%)" stroke-width="0.00279"></path>
<path d="M1.242 0.558 Q1.320 0.517 1.256 0.470" stroke="hsl(240.0,100%,35%)" stroke-width="0.00140"></path>
<path d="M1.242 0.558 Q1.491 0.438 1.312 0.290" stroke="hsl(240.0,100%,35%)" stroke-width="0.00140"></path>
<path d="M1.836 0.066 Q1.846 0.083 1.881 0.082" stroke="hsl(240.0,100%,35%)" stroke-width="0.00140"></path>
<path d="M1.836 0.066 Q0.608 0.070 0.346 0.670" stroke="hsl(240.0,100%,35%)" stroke-width="0.00140"></path>
<path d="M1.836 0.066 Q1.768 0.118 1.854 0.163" stroke="hsl(240.0,100%,35%)" stroke-width="0.00140"></path>
<path d="M1.059 0.029 Q0.953 -0.007 0.858 0.037" stroke="hsl(240.0,100%,35%)" stroke-width="0.00140"></path>
<path d="M1.059 0.029 Q0.353 0.469 1.055 0.910" stroke="hsl(240.0,100%,35%)" stroke-width="0.00140"></path>
<path d="M1.059 0.029 Q0.987 0.142 1.192 0.202" stroke="hsl(240.0,100%,35%)" stroke-width="0.00140"></path>
<path d="M0.858 0.037 Q0.999 0.353 1.646 0.353" stroke="hsl(240.0,100%,35%)" stroke-width="0.00140"></path>
<path d="M0.858 0.037 Q0.965 0.073 1.059 0.029" stroke="hsl(240.0,100%,35%)" stroke-width="0.00140"></path>
<path d="M0.858 0.037 Q0.784 0.082 0.855 0.129" stroke="hsl(240.0,100%,35%)" stroke-width="0.00140"></path>
<path d="M0.858 0.037 Q0.502 0.019 0.388 0.189" stroke="hsl(240.0,100%,35%)" stroke-width="0.00140"></path>
<path d="M1.008 0.500 Q1.338 0.388 1.192 0.202" stroke="hsl(0.0,100%,35%)" stroke-width="0.00140"></path>
<path d="M1.008 0.500 Q1.078 0.576 1.242 0.558" stroke="hsl(0.0,100%,35%)" stroke-width="0.00140"></path>
<path d="M1.008 0.500 Q0.781 0.287 0.315 0.351" stroke="hsl(0.0,100%,35%)" stroke-width="0.00140"></path>
<path d="M0.315 0.351 Q0.251 0.283 0.105 0.300" stroke="hsl(240.0,100%,35%)" stroke-width="0.00559"></path>
<path d="M0.315 0.351 Q0.873 0.452 1.192 0.202" stroke="hsl(240.0,100%,35%)" stroke-width="0.00140"></path>
<path d="M0.315 0.351 Q0.691 0.730 1.513 0.631" stroke="hsl(240.0,100%,35%)" stroke-width="0.00140"></path>
<path d="M0.315 0.351 Q0.208 0.322 0.127 0.368" stroke="hsl(240.0,100%,35%)" stroke-width="0.00140"></path>
<path d="M0.315 0.351 Q0.979 0.618 1.646 0.353" stroke="hsl(240.0,100%,35%)" stroke-width="0.00140"></path>
<path d="M0.485 0.716 Q1.249 0.600 1.192 0.202" stroke="hsl(120.0,100%,35%)" stroke-width="0.00140"></path>
<path d="M0.485 0.716 Q0.314 0.766 0.375 0.860" stroke="hsl(120.0,100%,35%)" stroke-width="0.00140"></path>
<path d="M0.485 0.716 Q0.452 0.665 0.346 0.670" stroke="hsl(120.0,100%,35%)" stroke-width="0.00419"></path>
<path d="M0.485 0.716 Q0.614 0.927 1.055 0.910" stroke="hsl(120.0,100%,35%)" stroke-width="0.00140"></path>
<path d="M0.485 0.716 Q1.355 0.767 1.646 0.353" stroke="hsl(120.0,100%,35%)" stroke-width="0.00140"></path>
<path d="M0.485 0.716 Q1.556 0.673 1.708 0.141" stroke="hsl(120.0,100%,35%)" stroke-width="0.00140"></path>
<path d="M1.574 0.924 Q1.521 0.889 1.442 0.907" stroke="hsl(0.0,100%,35%)" stroke-width="0.00140"></path>
<path d="M1.574 0.924 Q1.960 0.486 1.192 0.202" stroke="hsl(0.0,100%,35%)" stroke-width="0.00140"></path>
<path d="M1.574 0.924 Q1.627 0.931 1.653 0.907" stroke="hsl(0.0,100%,35%)" stroke-width="0.00140"></path>
<path d="M0.739 0.233 Q0.655 0.283 0.734 0.335" stroke="hsl(240.0,100%,35%)" stroke-width="0.00140"></path>
<path d="M0.739 0.233 Q0.368 0.139 0.105 0.300" stroke="hsl(240.0,100%,35%)" stroke-width="0.00279"></path>
<path d="M0.739 0.233 Q1.096 0.474 1.646 0.353" stroke="hsl(240.0,100%,35%)" stroke-width="0.00279"></path>
<path d="M0.739 0.233 Q0.355 0.635 1.055 0.910" stroke="hsl(240.0,100%,35%)" stroke-width="0.00140"></path>
<path d="M1.126 0.980 Q1.888 0.771 1.646 0.353" stroke="hsl(240.0,100%,35%)" stroke-width="0.00140"></path>
<path d="M1.126 0.980 Q1.244 0.999 1.306 0.946" stroke="hsl(240.0,100%,35%)" stroke-width="0.00140"></path>
<path d="M1.126 0.980 Q1.248 1.015 1.344 0.963" stroke="hsl(240.0,100%,35%)" stroke-width="0.00140"></path>
<path d="M0.580 0.252 Q0.128 0.414 0.346 0.670" stroke="hsl(120.0,100%,35%)" stroke-width="0.00140"></path>
<path d="M0.580 0.252 Q1.233 0.422 1.708 0.141" stroke="hsl(120.0,100%,35%)" stroke-width="0.00140"></path>
<path d="M0.580 0.252 Q0.670 0.216 0.619 0.164" stroke="hsl(120.0,100%,35%)" stroke-width="0.00140"></path>
<path d="M1.403 0.606 Q1.330 0.669 1.437 0.718" stroke="hsl(120.0,100%,35%)" stroke-width="0.00279"></path>
<path d="M1.403 0.606 Q1.727 0.528 1.646 0.353" stroke="hsl(120.0,100%,35%)" stroke-width="0.00140"></path>
<path d="M1.403 0.606 Q1.621 0.362 1.192 0.202" stroke="hsl(120.0,100%,35%)" stroke-width="0.00140"></path>
<path d="M1.549 0.826 Q1.629 0.851 1.695 0.817" stroke="hsl(120.0,100%,35%)" stroke-width="0.00279"></path>
<path d="M1.549 0.826 Q1.579 0.750 1.437 0.718" stroke="hsl(120.0,100%,35%)" stroke-width="0.00140"></path>
<path d="M1.549 0.826 Q1.976 0.609 1.646 0.353" stroke="hsl(120.0,100%,35%)" stroke-width="0.00279"></path>
<path d="M0.651 0.077 Q0.706 0.081 0.725 0.055" stroke="hsl(240.0,100%,35%)" stroke-width="0.00140"></path>
<path d="M0.651 0.077 Q0.787 0.099 0.858 0.037" stroke="hsl(240.0,100%,35%)" stroke-width="0.00279"></path>
<path d="M0.651 0.077 Q0.087 0.210 0.221 0.514" stroke="hsl(240.0,100%,35%)" stroke-width="0.00140"></path>
<path d="M0.221 0.514 Q0.334 0.383 0.105 0.300" stroke="hsl(240.0,100%,35%)" stroke-width="0.00279"></path>
<path d="M0.221 0.514 Q0.126 0.509 0.096 0.554" stroke="hsl(240.0,100%,35%)" stroke-width="0.00140"></path>
<path d="M0.221 0.514 Q0.665 0.859 1.437 0.718" stroke="hsl(240.0,100%,35%)" stroke-width="0.00140"></path>
<path d="M0.221 0.514 Q0.207 0.455 0.088 0.449" stroke="hsl(240.0,100%,35%)" stroke-width="0.00140"></path>
<path d="M0.470 0.436 Q0.396 0.295 0.105 0.300" stroke="hsl(120.0,100%,35%)" stroke-width="0.00140"></path>
<path d="M0.470 0.436 Q1.220 0.689 1.879 0.379" stroke="hsl(120.0,100%,35%)" stroke-width="0.00140"></path>
<path d="M0.470 0.436 Q1.325 0.536 1.708 0.141" stroke="hsl(120.0,100%,35%)" stroke-width="0.00140"></path>
<path d="M0.470 0.436 Q0.383 0.790 1.055 0.910" stroke="hsl(120.0,100%,35%)" stroke-width="0.00140"></path>
<path d="M0.470 0.436 Q1.124 0.630 1.646 0.353" stroke="hsl(120.0,100%,35%)" stroke-width="0.00140"></path>
<path d="M0.688 0.496 Q0.736 0.529 0.811 0.512" stroke="hsl(240.0,100%,35%)" stroke-width="0.00140"></path>
<path d="M0.688 0.496 Q0.781 0.460 0.732 0.407" stroke="hsl(240.0,100%,35%)" stroke-width="0.00140"></path>
<path d="M0.688 0.496 Q0.553 0.281 0.105 0.300" stroke="hsl(240.0,100%,35%)" stroke-width="0.00140"></path>
<path d="M1.095 0.244 Q1.073 0.206 0.995 0.209" stroke="hsl(120.0,100%,35%)" stroke-width="0.00140"></path>
<path d="M1.095 0.244 Q0.936 0.650 1.695 0.817" stroke="hsl(120.0,100%,35%)" stroke-width="0.00140"></path>
<path d="M1.095 0.244 Q0.981 0.246 0.960 0.302" stroke="hsl(120.0,100%,35%)" stroke-width="0.00140"></path>
<path d="M1.095 0.244 Q0.268 0.302 0.200 0.718" stroke="hsl(120.0,100%,35%)" stroke-width="0.00140"></path>
</g>
<text x="1.009" y="0.717" font-size="0.025107" fill="hsl(0.0,100%,20%)">adarom</text>
<text x="1.646" y="0.310" font-size="0.085980" fill="hsl(120.0,100%,20%)">bartekn</text>
<text x="0.761" y="0.794" font-size="0.054326" fill="hsl(0.0,100%,20%)">kdlee</text>
<text x="1.055" y="0.877" font-size="0.065121" fill="hsl(0.0,100%,20%)">tasak</text>
<text x="1.477" y="0.150" font-size="0.056141" fill="hsl(120.0,100%,20%)">mikt</text>
<text x="1.437" y="0.695" font-size="0.047275" fill="hsl(120.0,100%,20%)">arthursonzogni</text>
<text x="0.999" y="0.747" font-size="0.058638" fill="hsl(0.0,100%,20%)">yukishiino</text>
<text x="0.388" y="0.182" font-size="0.014162" fill="hsl(240.0,100%,20%)">agrieve</text>
<text x="0.415" y="0.063" font-size="0.005353" fill="hsl(240.0,100%,20%)">ayzhao</text>
<text x="0.105" y="0.283" font-size="0.032997" fill="hsl(240.0,100%,20%)">lizeb</text>
<text x="0.619" y="0.160" font-size="0.007570" fill="hsl(240.0,100%,20%)">richard.townsend</text>
<text x="0.300" y="0.112" font-size="0.005353" fill="hsl(240.0,100%,20%)">wnwen</text>
<text x="1.869" y="0.269" font-size="0.019300" fill="hsl(120.0,100%,20%)">ahijazi</text>
<text x="0.346" y="0.657" font-size="0.024530" fill="hsl(120.0,100%,20%)">haraken</text>
<text x="1.879" y="0.375" font-size="0.007570" fill="hsl(120.0,100%,20%)">nuskos</text>
<text x="1.848" y="0.519" font-size="0.014162" fill="hsl(240.0,100%,20%)">ajuma</text>
<text x="0.369" y="0.812" font-size="0.025107" fill="hsl(240.0,100%,20%)">mark</text>
<text x="1.924" y="0.466" font-size="0.009271" fill="hsl(240.0,100%,20%)">vollick</text>
<text x="1.661" y="0.553" font-size="0.005353" fill="hsl(240.0,100%,20%)">anthonyvd</text>
<text x="1.807" y="0.187" font-size="0.016927" fill="hsl(120.0,100%,20%)">andre.kempe</text>
<text x="1.708" y="0.117" font-size="0.047275" fill="hsl(120.0,100%,20%)">keishi</text>
<text x="1.269" y="0.055" font-size="0.013112" fill="hsl(120.0,100%,20%)">mpdenton</text>
<text x="0.825" y="0.824" font-size="0.016059" fill="hsl(0.0,100%,20%)">wfh</text>
<text x="1.695" y="0.801" font-size="0.032560" fill="hsl(120.0,100%,20%)">danakj</text>
<text x="1.513" y="0.627" font-size="0.007570" fill="hsl(240.0,100%,20%)">jam</text>
<text x="1.192" y="0.185" font-size="0.033429" fill="hsl(120.0,100%,20%)">dcheng</text>
<text x="1.459" y="0.580" font-size="0.005353" fill="hsl(120.0,100%,20%)">ashleynewson</text>
<text x="0.116" y="0.843" font-size="0.030280" fill="hsl(240.0,100%,20%)">avi</text>
<text x="0.200" y="0.714" font-size="0.009271" fill="hsl(240.0,100%,20%)">sdefresne</text>
<text x="0.225" y="0.782" font-size="0.005353" fill="hsl(240.0,100%,20%)">robertogden</text>
<text x="0.053" y="0.724" font-size="0.007570" fill="hsl(120.0,100%,20%)">rsesek</text>
<text x="0.082" y="0.761" font-size="0.005353" fill="hsl(240.0,100%,20%)">senorblanco</text>
<text x="0.108" y="0.632" font-size="0.005353" fill="hsl(240.0,100%,20%)">zmo</text>
<text x="1.389" y="0.361" font-size="0.018543" fill="hsl(120.0,100%,20%)">glazunov</text>
<text x="1.814" y="0.336" font-size="0.033429" fill="hsl(120.0,100%,20%)">tsepez</text>
<text x="0.855" y="0.124" font-size="0.009271" fill="hsl(240.0,100%,20%)">lukasza</text>
<text x="0.811" y="0.509" font-size="0.007570" fill="hsl(240.0,100%,20%)">brucedawson</text>
<text x="0.769" y="0.913" font-size="0.007570" fill="hsl(0.0,100%,20%)">blundell</text>
<text x="1.045" y="0.378" font-size="0.013112" fill="hsl(120.0,100%,20%)">mlippautz</text>
<text x="1.481" y="0.244" font-size="0.009271" fill="hsl(120.0,100%,20%)">ssid</text>
<text x="0.650" y="0.611" font-size="0.016927" fill="hsl(0.0,100%,20%)">thestig</text>
<text x="1.312" y="0.283" font-size="0.014162" fill="hsl(240.0,100%,20%)">bikineev</text>
<text x="0.735" y="0.952" font-size="0.010706" fill="hsl(0.0,100%,20%)">thiabaud</text>
<text x="1.408" y="0.474" font-size="0.005353" fill="hsl(120.0,100%,20%)">junov</text>
<text x="1.282" y="0.374" font-size="0.010706" fill="hsl(120.0,100%,20%)">davidben</text>
<text x="1.242" y="0.551" font-size="0.014162" fill="hsl(240.0,100%,20%)">pkasting</text>
<text x="1.836" y="0.062" font-size="0.009271" fill="hsl(240.0,100%,20%)">fmil</text>
<text x="1.881" y="0.079" font-size="0.005353" fill="hsl(240.0,100%,20%)">dayeung</text>
<text x="1.854" y="0.160" font-size="0.005353" fill="hsl(240.0,100%,20%)">kojii</text>
<text x="1.677" y="0.423" font-size="0.005353" fill="hsl(120.0,100%,20%)">hashimoto</text>
<text x="1.059" y="0.024" font-size="0.010706" fill="hsl(240.0,100%,20%)">hans</text>
<text x="0.858" y="0.030" font-size="0.014162" fill="hsl(240.0,100%,20%)">thakis</text>
<text x="1.008" y="0.495" font-size="0.009271" fill="hsl(0.0,100%,20%)">jbroman</text>
<text x="0.315" y="0.343" font-size="0.016927" fill="hsl(240.0,100%,20%)">sky</text>
<text x="0.485" y="0.708" font-size="0.015140" fill="hsl(120.0,100%,20%)">jdapena</text>
<text x="0.375" y="0.857" font-size="0.005353" fill="hsl(120.0,100%,20%)">pbos</text>
<text x="1.574" y="0.919" font-size="0.009271" fill="hsl(0.0,100%,20%)">jeffyoon</text>
<text x="1.442" y="0.905" font-size="0.005353" fill="hsl(0.0,100%,20%)">davidbienvenu</text>
<text x="1.653" y="0.904" font-size="0.005353" fill="hsl(0.0,100%,20%)">skyostil</text>
<text x="0.739" y="0.226" font-size="0.013112" fill="hsl(240.0,100%,20%)">justincohen</text>
<text x="0.734" y="0.332" font-size="0.005353" fill="hsl(240.0,100%,20%)">ginnyhuang</text>
<text x="0.834" y="0.957" font-size="0.005353" fill="hsl(0.0,100%,20%)">leszeks</text>
<text x="0.400" y="0.279" font-size="0.007570" fill="hsl(240.0,100%,20%)">pasko</text>
<text x="0.840" y="0.837" font-size="0.005353" fill="hsl(0.0,100%,20%)">rogerm</text>
<text x="1.894" y="0.142" font-size="0.005353" fill="hsl(120.0,100%,20%)">elkurin</text>
<text x="1.126" y="0.976" font-size="0.009271" fill="hsl(240.0,100%,20%)">leimy</text>
<text x="1.306" y="0.943" font-size="0.005353" fill="hsl(240.0,100%,20%)">chikamune</text>
<text x="1.344" y="0.961" font-size="0.005353" fill="hsl(240.0,100%,20%)">kouhei</text>
<text x="0.463" y="0.307" font-size="0.005353" fill="hsl(240.0,100%,20%)">fdoray</text>
<text x="0.296" y="0.254" font-size="0.009271" fill="hsl(240.0,100%,20%)">paulsemel</text>
<text x="1.503" y="0.082" font-size="0.005353" fill="hsl(120.0,100%,20%)">liviutinta</text>
<text x="1.481" y="0.059" font-size="0.005353" fill="hsl(120.0,100%,20%)">caitkp</text>
<text x="1.294" y="0.173" font-size="0.005353" fill="hsl(120.0,100%,20%)">yoavweiss</text>
<text x="0.580" y="0.247" font-size="0.009271" fill="hsl(120.0,100%,20%)">nathan.teodosio</text>
<text x="1.403" y="0.601" font-size="0.010706" fill="hsl(120.0,100%,20%)">piotr.tworek</text>
<text x="1.256" y="0.467" font-size="0.005353" fill="hsl(240.0,100%,20%)">gab</text>
<text x="1.549" y="0.820" font-size="0.011969" fill="hsl(120.0,100%,20%)">pmeuleman</text>
<text x="0.651" y="0.072" font-size="0.010706" fill="hsl(240.0,100%,20%)">prashanthsw</text>
<text x="0.725" y="0.052" font-size="0.005353" fill="hsl(240.0,100%,20%)">ntfschr</text>
<text x="0.221" y="0.507" font-size="0.013112" fill="hsl(240.0,100%,20%)">wez</text>
<text x="0.127" y="0.365" font-size="0.005353" fill="hsl(240.0,100%,20%)">ffred</text>
<text x="0.470" y="0.430" font-size="0.011969" fill="hsl(120.0,100%,20%)">stha09</text>
<text x="0.821" y="0.679" font-size="0.007570" fill="hsl(0.0,100%,20%)">erikchen</text>
<text x="0.442" y="0.542" font-size="0.005353" fill="hsl(0.0,100%,20%)">olivierli</text>
<text x="0.688" y="0.491" font-size="0.009271" fill="hsl(240.0,100%,20%)">titouan</text>
<text x="0.732" y="0.405" font-size="0.005353" fill="hsl(240.0,100%,20%)">isaboori</text>
<text x="0.096" y="0.551" font-size="0.005353" fill="hsl(120.0,100%,20%)">iclelland</text>
<text x="0.088" y="0.446" font-size="0.005353" fill="hsl(120.0,100%,20%)">cbruni</text>
<text x="0.914" y="0.668" font-size="0.005353" fill="hsl(0.0,100%,20%)">dfried</text>
<text x="1.233" y="0.713" font-size="0.005353" fill="hsl(0.0,100%,20%)">msw</text>
<text x="0.963" y="0.656" font-size="0.005353" fill="hsl(0.0,100%,20%)">nektar</text>
<text x="0.773" y="0.722" font-size="0.005353" fill="hsl(0.0,100%,20%)">khokhlov</text>
<text x="1.095" y="0.238" font-size="0.010706" fill="hsl(120.0,100%,20%)">zhaojiazhong-hf</text>
<text x="0.995" y="0.206" font-size="0.005353" fill="hsl(120.0,100%,20%)">cwallez</text>
<text x="0.960" y="0.299" font-size="0.005353" fill="hsl(120.0,100%,20%)">kbr</text>
</svg>
