<svg width="4000" height="2000" viewBox="-0.025 -0.025 2.05 1.05" xmlns="http://www.w3.org/2000/svg">
  <style>
    path {
      fill: none;
      stroke-linecap: round;
      stroke-opacity: 0.4;
    }

    text {
      text-anchor: middle;
      alignment-baseline: hanging;
    }
  </style>
  <g opacity="0.4">
<path d="M0.623 0.304 Q0.399 0.710 1.142 0.909" stroke="hsl(0.0,100%,35%)" stroke-width="0.01620"></path>
<path d="M0.623 0.304 Q0.402 0.583 0.900 0.753" stroke="hsl(0.0,100%,35%)" stroke-width="0.00270"></path>
<path d="M0.623 0.304 Q0.466 0.355 0.533 0.443" stroke="hsl(0.0,100%,35%)" stroke-width="0.03511"></path>
<path d="M0.623 0.304 Q0.695 0.213 0.534 0.159" stroke="hsl(0.0,100%,35%)" stroke-width="0.01080"></path>
<path d="M0.623 0.304 Q1.277 0.440 1.686 0.151" stroke="hsl(0.0,100%,35%)" stroke-width="0.01080"></path>
<path d="M0.623 0.304 Q0.636 0.555 1.129 0.604" stroke="hsl(0.0,100%,35%)" stroke-width="0.01890"></path>
<path d="M0.623 0.304 Q0.542 0.170 0.264 0.180" stroke="hsl(0.0,100%,35%)" stroke-width="0.00270"></path>
<path d="M0.623 0.304 Q0.364 0.458 0.609 0.619" stroke="hsl(0.0,100%,35%)" stroke-width="0.00270"></path>
<path d="M0.623 0.304 Q0.717 0.368 0.863 0.336" stroke="hsl(0.0,100%,35%)" stroke-width="0.00540"></path>
<path d="M0.623 0.304 Q0.174 0.535 0.526 0.805" stroke="hsl(0.0,100%,35%)" stroke-width="0.00270"></path>
<path d="M0.623 0.304 Q0.966 0.582 1.585 0.477" stroke="hsl(0.0,100%,35%)" stroke-width="0.00540"></path>
<path d="M1.142 0.909 Q1.379 0.753 1.129 0.604" stroke="hsl(120.0,100%,35%)" stroke-width="0.01350"></path>
<path d="M1.142 0.909 Q0.984 0.841 0.817 0.903" stroke="hsl(120.0,100%,35%)" stroke-width="0.00270"></path>
<path d="M1.142 0.909 Q1.286 0.369 0.264 0.180" stroke="hsl(120.0,100%,35%)" stroke-width="0.00270"></path>
<path d="M1.142 0.909 Q1.326 0.865 1.282 0.766" stroke="hsl(120.0,100%,35%)" stroke-width="0.00270"></path>
<path d="M0.900 0.753 Q0.671 0.704 0.526 0.805" stroke="hsl(120.0,100%,35%)" stroke-width="0.02161"></path>
<path d="M0.900 0.753 Q1.121 0.473 0.623 0.304" stroke="hsl(120.0,100%,35%)" stroke-width="0.00270"></path>
<path d="M0.900 0.753 Q1.087 0.724 1.071 0.626" stroke="hsl(120.0,100%,35%)" stroke-width="0.00270"></path>
<path d="M0.900 0.753 Q0.813 0.763 0.813 0.807" stroke="hsl(120.0,100%,35%)" stroke-width="0.00270"></path>
<path d="M0.900 0.753 Q0.896 0.879 1.142 0.909" stroke="hsl(120.0,100%,35%)" stroke-width="0.04321"></path>
<path d="M0.900 0.753 Q0.831 0.749 0.809 0.782" stroke="hsl(120.0,100%,35%)" stroke-width="0.00270"></path>
<path d="M0.900 0.753 Q0.949 0.907 1.260 0.917" stroke="hsl(120.0,100%,35%)" stroke-width="0.00270"></path>
<path d="M0.900 0.753 Q0.769 0.756 0.746 0.820" stroke="hsl(120.0,100%,35%)" stroke-width="0.00270"></path>
<path d="M0.900 0.753 Q1.133 0.724 1.129 0.604" stroke="hsl(120.0,100%,35%)" stroke-width="0.07832"></path>
<path d="M0.900 0.753 Q1.103 0.631 0.909 0.504" stroke="hsl(120.0,100%,35%)" stroke-width="0.01350"></path>
<path d="M0.900 0.753 Q0.751 0.623 0.465 0.667" stroke="hsl(120.0,100%,35%)" stroke-width="0.00270"></path>
<path d="M0.900 0.753 Q0.551 0.567 0.111 0.696" stroke="hsl(120.0,100%,35%)" stroke-width="0.00270"></path>
<path d="M0.900 0.753 Q1.604 0.466 1.199 0.059" stroke="hsl(120.0,100%,35%)" stroke-width="0.00810"></path>
<path d="M0.900 0.753 Q1.774 0.609 1.686 0.151" stroke="hsl(120.0,100%,35%)" stroke-width="0.01080"></path>
<path d="M0.900 0.753 Q1.232 0.627 1.060 0.438" stroke="hsl(120.0,100%,35%)" stroke-width="0.00270"></path>
<path d="M0.900 0.753 Q1.463 0.752 1.585 0.477" stroke="hsl(120.0,100%,35%)" stroke-width="0.00270"></path>
<path d="M0.900 0.753 Q0.862 0.628 0.609 0.619" stroke="hsl(120.0,100%,35%)" stroke-width="0.00540"></path>
<path d="M0.900 0.753 Q1.215 0.537 0.863 0.336" stroke="hsl(120.0,100%,35%)" stroke-width="0.00270"></path>
<path d="M0.900 0.753 Q0.727 0.757 0.697 0.843" stroke="hsl(120.0,100%,35%)" stroke-width="0.00270"></path>
<path d="M0.900 0.753 Q0.852 0.659 0.658 0.662" stroke="hsl(120.0,100%,35%)" stroke-width="0.00270"></path>
<path d="M0.900 0.753 Q1.387 0.772 1.531 0.539" stroke="hsl(120.0,100%,35%)" stroke-width="0.00270"></path>
<path d="M0.900 0.753 Q0.774 0.597 0.442 0.624" stroke="hsl(120.0,100%,35%)" stroke-width="0.00540"></path>
<path d="M0.533 0.443 Q0.698 0.498 0.842 0.430" stroke="hsl(0.0,100%,35%)" stroke-width="0.00540"></path>
<path d="M0.533 0.443 Q0.643 0.459 0.699 0.409" stroke="hsl(0.0,100%,35%)" stroke-width="0.00540"></path>
<path d="M0.533 0.443 Q0.375 0.452 0.358 0.531" stroke="hsl(0.0,100%,35%)" stroke-width="0.00270"></path>
<path d="M0.533 0.443 Q0.882 0.512 1.092 0.356" stroke="hsl(0.0,100%,35%)" stroke-width="0.00270"></path>
<path d="M0.533 0.443 Q0.190 0.407 0.045 0.567" stroke="hsl(0.0,100%,35%)" stroke-width="0.00270"></path>
<path d="M1.129 0.604 Q0.892 0.759 1.142 0.909" stroke="hsl(120.0,100%,35%)" stroke-width="0.01350"></path>
<path d="M1.129 0.604 Q0.895 0.633 0.900 0.753" stroke="hsl(120.0,100%,35%)" stroke-width="0.01080"></path>
<path d="M1.129 0.604 Q1.098 0.510 0.909 0.504" stroke="hsl(120.0,100%,35%)" stroke-width="0.05401"></path>
<path d="M1.129 0.604 Q1.250 0.725 1.513 0.693" stroke="hsl(120.0,100%,35%)" stroke-width="0.00270"></path>
<path d="M1.129 0.604 Q1.584 0.577 1.630 0.348" stroke="hsl(120.0,100%,35%)" stroke-width="0.00270"></path>
<path d="M1.585 0.477 Q1.021 0.478 0.900 0.753" stroke="hsl(0.0,100%,35%)" stroke-width="0.00540"></path>
<path d="M1.585 0.477 Q1.710 0.422 1.630 0.348" stroke="hsl(0.0,100%,35%)" stroke-width="0.00270"></path>
<path d="M1.585 0.477 Q1.018 0.604 1.142 0.909" stroke="hsl(0.0,100%,35%)" stroke-width="0.00540"></path>
<path d="M1.585 0.477 Q0.983 0.353 0.609 0.619" stroke="hsl(0.0,100%,35%)" stroke-width="0.00540"></path>
<path d="M1.585 0.477 Q1.255 0.449 1.129 0.604" stroke="hsl(0.0,100%,35%)" stroke-width="0.00540"></path>
<path d="M1.585 0.477 Q1.225 0.355 0.909 0.504" stroke="hsl(0.0,100%,35%)" stroke-width="0.00270"></path>
<path d="M1.585 0.477 Q1.453 0.445 1.363 0.503" stroke="hsl(0.0,100%,35%)" stroke-width="0.00270"></path>
<path d="M0.259 0.312 Q0.204 0.361 0.286 0.398" stroke="hsl(0.0,100%,35%)" stroke-width="0.00270"></path>
<path d="M0.259 0.312 Q0.224 0.787 1.142 0.909" stroke="hsl(0.0,100%,35%)" stroke-width="0.00270"></path>
<path d="M0.259 0.312 Q0.150 0.286 0.075 0.333" stroke="hsl(0.0,100%,35%)" stroke-width="0.00270"></path>
<path d="M1.400 0.144 Q1.537 0.204 1.686 0.151" stroke="hsl(0.0,100%,35%)" stroke-width="0.00810"></path>
<path d="M1.400 0.144 Q0.659 0.475 1.142 0.909" stroke="hsl(0.0,100%,35%)" stroke-width="0.00270"></path>
<path d="M1.400 0.144 Q0.892 0.175 0.842 0.430" stroke="hsl(0.0,100%,35%)" stroke-width="0.00270"></path>
<path d="M1.166 0.424 Q1.319 0.437 1.377 0.365" stroke="hsl(120.0,100%,35%)" stroke-width="0.00810"></path>
<path d="M1.166 0.424 Q1.102 0.410 1.060 0.438" stroke="hsl(120.0,100%,35%)" stroke-width="0.00270"></path>
<path d="M1.166 0.424 Q1.125 0.628 1.513 0.693" stroke="hsl(120.0,100%,35%)" stroke-width="0.00270"></path>
<path d="M0.062 0.474 Q0.479 0.501 0.623 0.304" stroke="hsl(0.0,100%,35%)" stroke-width="0.00270"></path>
<path d="M0.062 0.474 Q0.745 0.800 1.531 0.539" stroke="hsl(0.0,100%,35%)" stroke-width="0.00270"></path>
<path d="M0.062 0.474 Q-0.021 0.517 0.045 0.567" stroke="hsl(0.0,100%,35%)" stroke-width="0.00270"></path>
<path d="M1.531 0.539 Q1.631 0.603 1.778 0.568" stroke="hsl(0.0,100%,35%)" stroke-width="0.00540"></path>
<path d="M1.531 0.539 Q1.608 0.518 1.585 0.477" stroke="hsl(0.0,100%,35%)" stroke-width="0.01080"></path>
<path d="M1.531 0.539 Q1.919 0.376 1.686 0.151" stroke="hsl(0.0,100%,35%)" stroke-width="0.00270"></path>
<path d="M0.849 0.867 Q1.199 0.791 1.129 0.604" stroke="hsl(120.0,100%,35%)" stroke-width="0.00540"></path>
<path d="M0.849 0.867 Q0.962 0.946 1.142 0.909" stroke="hsl(120.0,100%,35%)" stroke-width="0.01350"></path>
<path d="M0.849 0.867 Q0.928 0.695 0.609 0.619" stroke="hsl(120.0,100%,35%)" stroke-width="0.00270"></path>
<path d="M0.849 0.867 Q1.015 0.974 1.260 0.917" stroke="hsl(120.0,100%,35%)" stroke-width="0.00270"></path>
<path d="M0.909 0.504 Q0.668 0.502 0.609 0.619" stroke="hsl(120.0,100%,35%)" stroke-width="0.01080"></path>
<path d="M0.909 0.504 Q0.706 0.627 0.900 0.753" stroke="hsl(120.0,100%,35%)" stroke-width="0.01350"></path>
<path d="M0.909 0.504 Q0.939 0.598 1.129 0.604" stroke="hsl(120.0,100%,35%)" stroke-width="0.02431"></path>
<path d="M0.909 0.504 Q0.612 0.407 0.358 0.531" stroke="hsl(120.0,100%,35%)" stroke-width="0.00270"></path>
<path d="M0.909 0.504 Q1.580 0.483 1.686 0.151" stroke="hsl(120.0,100%,35%)" stroke-width="0.00270"></path>
<path d="M0.909 0.504 Q0.589 0.674 0.849 0.867" stroke="hsl(120.0,100%,35%)" stroke-width="0.00270"></path>
<path d="M1.199 0.059 Q1.175 0.033 1.119 0.039" stroke="hsl(120.0,100%,35%)" stroke-width="0.00540"></path>
<path d="M1.199 0.059 Q0.378 0.393 0.849 0.867" stroke="hsl(120.0,100%,35%)" stroke-width="0.00270"></path>
<path d="M1.199 0.059 Q0.491 0.473 1.142 0.909" stroke="hsl(120.0,100%,35%)" stroke-width="0.00270"></path>
<path d="M1.044 0.202 Q1.406 0.305 1.686 0.151" stroke="hsl(0.0,100%,35%)" stroke-width="0.00270"></path>
<path d="M1.044 0.202 Q0.753 0.169 0.623 0.304" stroke="hsl(0.0,100%,35%)" stroke-width="0.00270"></path>
<path d="M1.044 0.202 Q0.706 0.236 0.699 0.409" stroke="hsl(0.0,100%,35%)" stroke-width="0.00270"></path>
<path d="M1.044 0.202 Q1.145 0.120 1.005 0.052" stroke="hsl(0.0,100%,35%)" stroke-width="0.00540"></path>
<path d="M1.044 0.202 Q0.937 0.199 0.907 0.251" stroke="hsl(0.0,100%,35%)" stroke-width="0.01080"></path>
<path d="M1.044 0.202 Q0.303 0.400 0.526 0.805" stroke="hsl(0.0,100%,35%)" stroke-width="0.00540"></path>
<path d="M1.044 0.202 Q0.596 0.220 0.533 0.443" stroke="hsl(0.0,100%,35%)" stroke-width="0.00540"></path>
<path d="M1.044 0.202 Q0.528 0.575 1.142 0.909" stroke="hsl(0.0,100%,35%)" stroke-width="0.00270"></path>
<path d="M1.044 0.202 Q1.095 0.448 1.585 0.477" stroke="hsl(0.0,100%,35%)" stroke-width="0.00810"></path>
<path d="M1.044 0.202 Q0.824 0.079 0.534 0.159" stroke="hsl(0.0,100%,35%)" stroke-width="0.00270"></path>
<path d="M1.044 0.202 Q1.030 0.076 0.779 0.055" stroke="hsl(0.0,100%,35%)" stroke-width="0.00270"></path>
<path d="M1.044 0.202 Q0.944 0.258 1.031 0.319" stroke="hsl(0.0,100%,35%)" stroke-width="0.00270"></path>
<path d="M1.044 0.202 Q0.735 0.326 0.909 0.504" stroke="hsl(0.0,100%,35%)" stroke-width="0.00270"></path>
<path d="M0.907 0.251 Q1.000 0.127 0.779 0.055" stroke="hsl(0.0,100%,35%)" stroke-width="0.00270"></path>
<path d="M0.907 0.251 Q1.377 0.357 1.686 0.151" stroke="hsl(0.0,100%,35%)" stroke-width="0.00270"></path>
<path d="M0.907 0.251 Q0.274 0.452 0.526 0.805" stroke="hsl(0.0,100%,35%)" stroke-width="0.00270"></path>
<path d="M0.907 0.251 Q0.386 0.547 0.849 0.867" stroke="hsl(0.0,100%,35%)" stroke-width="0.00270"></path>
<path d="M1.676 0.749 Q1.466 0.679 1.282 0.766" stroke="hsl(240.0,100%,35%)" stroke-width="0.00540"></path>
<path d="M1.676 0.749 Q1.821 0.776 1.905 0.711" stroke="hsl(240.0,100%,35%)" stroke-width="0.00540"></path>
<path d="M1.676 0.749 Q1.534 0.737 1.478 0.803" stroke="hsl(240.0,100%,35%)" stroke-width="0.00270"></path>
<path d="M1.141 0.258 Q0.622 0.584 1.142 0.909" stroke="hsl(120.0,100%,35%)" stroke-width="0.00270"></path>
<path d="M1.141 0.258 Q1.138 0.211 1.044 0.202" stroke="hsl(120.0,100%,35%)" stroke-width="0.00270"></path>
<path d="M1.141 0.258 Q0.858 0.429 1.129 0.604" stroke="hsl(120.0,100%,35%)" stroke-width="0.00270"></path>
<path d="M0.100 0.766 Q0.560 1.073 1.260 0.917" stroke="hsl(120.0,100%,35%)" stroke-width="0.00270"></path>
<path d="M0.100 0.766 Q0.162 0.733 0.111 0.696" stroke="hsl(120.0,100%,35%)" stroke-width="0.00270"></path>
<path d="M0.100 0.766 Q0.744 0.891 1.129 0.604" stroke="hsl(120.0,100%,35%)" stroke-width="0.00270"></path>
<path d="M1.435 0.642 Q1.312 0.561 1.129 0.604" stroke="hsl(120.0,100%,35%)" stroke-width="0.00270"></path>
<path d="M1.435 0.642 Q1.434 0.683 1.513 0.693" stroke="hsl(120.0,100%,35%)" stroke-width="0.00270"></path>
<path d="M1.435 0.642 Q0.850 0.541 0.526 0.805" stroke="hsl(120.0,100%,35%)" stroke-width="0.00270"></path>
<path d="M1.435 0.642 Q1.484 0.341 0.907 0.251" stroke="hsl(120.0,100%,35%)" stroke-width="0.00270"></path>
<path d="M0.881 0.850 Q1.843 0.661 1.686 0.151" stroke="hsl(0.0,100%,35%)" stroke-width="0.00270"></path>
<path d="M0.881 0.850 Q0.965 0.932 1.142 0.909" stroke="hsl(0.0,100%,35%)" stroke-width="0.00270"></path>
<path d="M0.881 0.850 Q1.202 0.777 1.129 0.604" stroke="hsl(0.0,100%,35%)" stroke-width="0.00270"></path>
</g>
<text x="0.623" y="0.275" font-size="0.056493" fill="hsl(0.0,100%,20%)">arthursonzogni</text>
<text x="1.142" y="0.879" font-size="0.058346" fill="hsl(120.0,100%,20%)">keishi</text>
<text x="0.900" y="0.712" font-size="0.082083" fill="hsl(120.0,100%,20%)">mikt</text>
<text x="0.533" y="0.424" font-size="0.039500" fill="hsl(0.0,100%,20%)">danakj</text>
<text x="0.534" y="0.149" font-size="0.018831" fill="hsl(0.0,100%,20%)">blundell</text>
<text x="1.686" y="0.134" font-size="0.033686" fill="hsl(0.0,100%,20%)">haraken</text>
<text x="1.129" y="0.564" font-size="0.079448" fill="hsl(120.0,100%,20%)">tasak</text>
<text x="0.264" y="0.174" font-size="0.011910" fill="hsl(0.0,100%,20%)">bartekn</text>
<text x="0.609" y="0.605" font-size="0.026631" fill="hsl(120.0,100%,20%)">glazunov</text>
<text x="0.863" y="0.329" font-size="0.014586" fill="hsl(0.0,100%,20%)">wez</text>
<text x="0.526" y="0.789" font-size="0.030364" fill="hsl(120.0,100%,20%)">dcheng</text>
<text x="1.585" y="0.457" font-size="0.038592" fill="hsl(0.0,100%,20%)">lizeb</text>
<text x="0.259" y="0.305" font-size="0.014586" fill="hsl(0.0,100%,20%)">bwwilliams</text>
<text x="0.286" y="0.394" font-size="0.008422" fill="hsl(0.0,100%,20%)">ajuma</text>
<text x="0.075" y="0.329" font-size="0.008422" fill="hsl(0.0,100%,20%)">noyau</text>
<text x="0.842" y="0.422" font-size="0.014586" fill="hsl(0.0,100%,20%)">avi</text>
<text x="0.699" y="0.401" font-size="0.014586" fill="hsl(0.0,100%,20%)">hans</text>
<text x="0.358" y="0.525" font-size="0.011910" fill="hsl(0.0,100%,20%)">mark</text>
<text x="1.092" y="0.352" font-size="0.008422" fill="hsl(0.0,100%,20%)">adetaylor</text>
<text x="0.045" y="0.561" font-size="0.011910" fill="hsl(0.0,100%,20%)">lukasza</text>
<text x="1.400" y="0.134" font-size="0.018831" fill="hsl(0.0,100%,20%)">dloehr</text>
<text x="1.166" y="0.415" font-size="0.018831" fill="hsl(120.0,100%,20%)">dtapuska</text>
<text x="1.377" y="0.357" font-size="0.014586" fill="hsl(120.0,100%,20%)">wfh</text>
<text x="1.060" y="0.432" font-size="0.011910" fill="hsl(120.0,100%,20%)">justincohen</text>
<text x="1.513" y="0.685" font-size="0.014586" fill="hsl(120.0,100%,20%)">thakis</text>
<text x="0.062" y="0.466" font-size="0.014586" fill="hsl(0.0,100%,20%)">edechamps</text>
<text x="1.531" y="0.526" font-size="0.025265" fill="hsl(0.0,100%,20%)">fdoray</text>
<text x="1.778" y="0.562" font-size="0.011910" fill="hsl(0.0,100%,20%)">grt</text>
<text x="0.849" y="0.852" font-size="0.029173" fill="hsl(120.0,100%,20%)">kdlee</text>
<text x="1.260" y="0.909" font-size="0.014586" fill="hsl(120.0,100%,20%)">mlippautz</text>
<text x="0.817" y="0.899" font-size="0.008422" fill="hsl(120.0,100%,20%)">wittman</text>
<text x="1.282" y="0.758" font-size="0.014586" fill="hsl(240.0,100%,20%)">qjw</text>
<text x="1.630" y="0.343" font-size="0.011910" fill="hsl(0.0,100%,20%)">ahijazi</text>
<text x="0.909" y="0.475" font-size="0.058346" fill="hsl(120.0,100%,20%)">yukishiino</text>
<text x="1.363" y="0.499" font-size="0.008422" fill="hsl(0.0,100%,20%)">acondor</text>
<text x="1.071" y="0.622" font-size="0.008422" fill="hsl(120.0,100%,20%)">dpranke</text>
<text x="0.813" y="0.803" font-size="0.008422" fill="hsl(120.0,100%,20%)">jwata</text>
<text x="0.809" y="0.778" font-size="0.008422" fill="hsl(120.0,100%,20%)">kouhei</text>
<text x="0.746" y="0.815" font-size="0.008422" fill="hsl(120.0,100%,20%)">rogerm</text>
<text x="0.465" y="0.663" font-size="0.008422" fill="hsl(120.0,100%,20%)">marq</text>
<text x="0.111" y="0.690" font-size="0.011910" fill="hsl(120.0,100%,20%)">mpdenton</text>
<text x="1.199" y="0.048" font-size="0.022281" fill="hsl(120.0,100%,20%)">nuskos</text>
<text x="0.697" y="0.838" font-size="0.008422" fill="hsl(120.0,100%,20%)">gab</text>
<text x="0.658" y="0.657" font-size="0.008422" fill="hsl(120.0,100%,20%)">thiabaud</text>
<text x="0.442" y="0.618" font-size="0.011910" fill="hsl(120.0,100%,20%)">paulsemel</text>
<text x="1.119" y="0.034" font-size="0.011910" fill="hsl(120.0,100%,20%)">ajgo</text>
<text x="1.044" y="0.183" font-size="0.039500" fill="hsl(0.0,100%,20%)">pkasting</text>
<text x="1.005" y="0.046" font-size="0.011910" fill="hsl(0.0,100%,20%)">jbroman</text>
<text x="0.907" y="0.238" font-size="0.025265" fill="hsl(0.0,100%,20%)">thestig</text>
<text x="0.779" y="0.049" font-size="0.011910" fill="hsl(0.0,100%,20%)">kylechar</text>
<text x="1.031" y="0.315" font-size="0.008422" fill="hsl(0.0,100%,20%)">pbos</text>
<text x="1.676" y="0.740" font-size="0.018831" fill="hsl(240.0,100%,20%)">rop</text>
<text x="1.905" y="0.705" font-size="0.011910" fill="hsl(240.0,100%,20%)">renewitt</text>
<text x="1.478" y="0.799" font-size="0.008422" fill="hsl(240.0,100%,20%)">jsca</text>
<text x="1.141" y="0.251" font-size="0.014586" fill="hsl(120.0,100%,20%)">rsworktech</text>
<text x="0.100" y="0.759" font-size="0.014586" fill="hsl(120.0,100%,20%)">sroettger</text>
<text x="1.435" y="0.633" font-size="0.016843" fill="hsl(120.0,100%,20%)">tikuta</text>
<text x="0.881" y="0.843" font-size="0.014586" fill="hsl(0.0,100%,20%)">tpearson</text>
</svg>
