<svg width="4000" height="2000" viewBox="-0.025 -0.025 2.05 1.05" xmlns="http://www.w3.org/2000/svg">
  <style>
    path {
      fill: none;
      stroke-linecap: round;
      stroke-opacity: 0.4;
    }

    text {
      text-anchor: middle;
      alignment-baseline: hanging;
    }
  </style>
  <g opacity="0.4">
<path d="M0.406 0.319 Q0.426 0.375 0.540 0.378" stroke="hsl(0.0,100%,35%)" stroke-width="0.00281"></path>
<path d="M0.406 0.319 Q0.360 0.379 0.467 0.415" stroke="hsl(0.0,100%,35%)" stroke-width="0.00421"></path>
<path d="M0.406 0.319 Q0.638 0.406 0.858 0.312" stroke="hsl(0.0,100%,35%)" stroke-width="0.00140"></path>
<path d="M0.858 0.312 Q0.793 0.576 1.294 0.665" stroke="hsl(0.0,100%,35%)" stroke-width="0.01825"></path>
<path d="M0.858 0.312 Q0.907 0.234 0.766 0.192" stroke="hsl(0.0,100%,35%)" stroke-width="0.03089"></path>
<path d="M0.858 0.312 Q0.641 0.601 1.158 0.771" stroke="hsl(0.0,100%,35%)" stroke-width="0.00702"></path>
<path d="M0.858 0.312 Q0.911 0.458 1.207 0.464" stroke="hsl(0.0,100%,35%)" stroke-width="0.00140"></path>
<path d="M0.858 0.312 Q0.918 0.654 1.599 0.700" stroke="hsl(0.0,100%,35%)" stroke-width="0.00421"></path>
<path d="M0.858 0.312 Q0.996 0.299 1.001 0.228" stroke="hsl(0.0,100%,35%)" stroke-width="0.00281"></path>
<path d="M0.858 0.312 Q0.815 0.704 1.571 0.811" stroke="hsl(0.0,100%,35%)" stroke-width="0.00140"></path>
<path d="M0.858 0.312 Q0.503 0.342 0.485 0.522" stroke="hsl(0.0,100%,35%)" stroke-width="0.00140"></path>
<path d="M0.858 0.312 Q1.136 0.520 1.604 0.431" stroke="hsl(0.0,100%,35%)" stroke-width="0.00140"></path>
<path d="M0.858 0.312 Q0.975 0.391 1.156 0.352" stroke="hsl(0.0,100%,35%)" stroke-width="0.00140"></path>
<path d="M0.858 0.312 Q1.041 0.335 1.125 0.251" stroke="hsl(0.0,100%,35%)" stroke-width="0.00140"></path>
<path d="M0.493 0.201 Q1.151 0.521 1.919 0.270" stroke="hsl(0.0,100%,35%)" stroke-width="0.00421"></path>
<path d="M0.493 0.201 Q0.361 0.150 0.233 0.203" stroke="hsl(0.0,100%,35%)" stroke-width="0.00421"></path>
<path d="M0.493 0.201 Q0.307 0.156 0.177 0.236" stroke="hsl(0.0,100%,35%)" stroke-width="0.00140"></path>
<path d="M0.493 0.201 Q0.522 0.593 1.294 0.665" stroke="hsl(0.0,100%,35%)" stroke-width="0.00281"></path>
<path d="M0.493 0.201 Q0.492 0.121 0.335 0.104" stroke="hsl(0.0,100%,35%)" stroke-width="0.00140"></path>
<path d="M0.493 0.201 Q0.636 0.251 0.766 0.192" stroke="hsl(0.0,100%,35%)" stroke-width="0.00140"></path>
<path d="M0.233 0.203 Q0.518 0.725 1.599 0.700" stroke="hsl(180.0,100%,35%)" stroke-width="0.00140"></path>
<path d="M0.233 0.203 Q0.171 0.247 0.243 0.286" stroke="hsl(180.0,100%,35%)" stroke-width="0.00140"></path>
<path d="M0.233 0.203 Q0.104 0.413 0.485 0.522" stroke="hsl(180.0,100%,35%)" stroke-width="0.00281"></path>
<path d="M0.233 0.203 Q1.022 0.574 1.919 0.270" stroke="hsl(180.0,100%,35%)" stroke-width="0.00140"></path>
<path d="M0.233 0.203 Q0.179 0.208 0.177 0.236" stroke="hsl(180.0,100%,35%)" stroke-width="0.00140"></path>
<path d="M1.294 0.665 Q1.636 0.610 1.604 0.431" stroke="hsl(0.0,100%,35%)" stroke-width="0.00702"></path>
<path d="M1.294 0.665 Q1.256 0.755 1.423 0.793" stroke="hsl(0.0,100%,35%)" stroke-width="0.00702"></path>
<path d="M1.294 0.665 Q1.445 0.624 1.398 0.542" stroke="hsl(0.0,100%,35%)" stroke-width="0.00140"></path>
<path d="M1.294 0.665 Q1.419 0.744 1.599 0.700" stroke="hsl(0.0,100%,35%)" stroke-width="0.01825"></path>
<path d="M1.294 0.665 Q1.142 0.691 1.158 0.771" stroke="hsl(0.0,100%,35%)" stroke-width="0.04914"></path>
<path d="M1.294 0.665 Q1.408 0.323 0.766 0.192" stroke="hsl(0.0,100%,35%)" stroke-width="0.00702"></path>
<path d="M1.294 0.665 Q1.009 0.660 0.936 0.797" stroke="hsl(0.0,100%,35%)" stroke-width="0.01965"></path>
<path d="M1.294 0.665 Q1.359 0.401 0.858 0.312" stroke="hsl(0.0,100%,35%)" stroke-width="0.00983"></path>
<path d="M1.294 0.665 Q1.315 0.794 1.571 0.811" stroke="hsl(0.0,100%,35%)" stroke-width="0.01965"></path>
<path d="M1.294 0.665 Q1.478 0.670 1.529 0.581" stroke="hsl(0.0,100%,35%)" stroke-width="0.00140"></path>
<path d="M1.294 0.665 Q0.984 0.753 1.088 0.924" stroke="hsl(0.0,100%,35%)" stroke-width="0.00140"></path>
<path d="M1.294 0.665 Q1.541 0.779 1.818 0.684" stroke="hsl(0.0,100%,35%)" stroke-width="0.00281"></path>
<path d="M1.294 0.665 Q1.378 0.517 1.107 0.443" stroke="hsl(0.0,100%,35%)" stroke-width="0.00140"></path>
<path d="M1.294 0.665 Q0.854 0.546 0.525 0.734" stroke="hsl(0.0,100%,35%)" stroke-width="0.00281"></path>
<path d="M1.294 0.665 Q1.217 0.372 0.629 0.345" stroke="hsl(0.0,100%,35%)" stroke-width="0.00281"></path>
<path d="M1.294 0.665 Q1.411 0.547 1.207 0.464" stroke="hsl(0.0,100%,35%)" stroke-width="0.00842"></path>
<path d="M1.294 0.665 Q1.923 0.593 1.919 0.270" stroke="hsl(0.0,100%,35%)" stroke-width="0.00421"></path>
<path d="M1.294 0.665 Q1.382 0.765 1.596 0.744" stroke="hsl(0.0,100%,35%)" stroke-width="0.00140"></path>
<path d="M1.294 0.665 Q1.112 0.762 1.261 0.872" stroke="hsl(0.0,100%,35%)" stroke-width="0.01544"></path>
<path d="M1.294 0.665 Q1.081 0.374 0.467 0.415" stroke="hsl(0.0,100%,35%)" stroke-width="0.00140"></path>
<path d="M1.294 0.665 Q1.588 0.676 1.675 0.536" stroke="hsl(0.0,100%,35%)" stroke-width="0.00842"></path>
<path d="M1.294 0.665 Q1.476 0.481 1.156 0.352" stroke="hsl(0.0,100%,35%)" stroke-width="0.00421"></path>
<path d="M1.294 0.665 Q1.209 0.656 1.172 0.695" stroke="hsl(0.0,100%,35%)" stroke-width="0.00140"></path>
<path d="M1.294 0.665 Q1.169 0.740 1.288 0.818" stroke="hsl(0.0,100%,35%)" stroke-width="0.00421"></path>
<path d="M1.294 0.665 Q1.165 0.721 1.245 0.796" stroke="hsl(0.0,100%,35%)" stroke-width="0.00140"></path>
<path d="M0.766 0.192 Q0.717 0.270 0.858 0.312" stroke="hsl(0.0,100%,35%)" stroke-width="0.04212"></path>
<path d="M0.766 0.192 Q0.652 0.534 1.294 0.665" stroke="hsl(0.0,100%,35%)" stroke-width="0.01825"></path>
<path d="M0.766 0.192 Q0.834 0.350 1.156 0.352" stroke="hsl(0.0,100%,35%)" stroke-width="0.00562"></path>
<path d="M0.766 0.192 Q0.990 0.162 0.980 0.046" stroke="hsl(0.0,100%,35%)" stroke-width="0.00140"></path>
<path d="M0.766 0.192 Q1.083 0.227 1.221 0.080" stroke="hsl(0.0,100%,35%)" stroke-width="0.00140"></path>
<path d="M0.766 0.192 Q0.877 0.194 0.905 0.140" stroke="hsl(0.0,100%,35%)" stroke-width="0.00140"></path>
<path d="M0.766 0.192 Q0.777 0.613 1.599 0.700" stroke="hsl(0.0,100%,35%)" stroke-width="0.00702"></path>
<path d="M0.766 0.192 Q0.836 0.539 1.529 0.581" stroke="hsl(0.0,100%,35%)" stroke-width="0.00140"></path>
<path d="M0.766 0.192 Q0.673 0.663 1.571 0.811" stroke="hsl(0.0,100%,35%)" stroke-width="0.00140"></path>
<path d="M0.766 0.192 Q0.980 0.304 1.245 0.225" stroke="hsl(0.0,100%,35%)" stroke-width="0.00140"></path>
<path d="M0.766 0.192 Q1.280 0.462 1.919 0.270" stroke="hsl(0.0,100%,35%)" stroke-width="0.00140"></path>
<path d="M0.766 0.192 Q0.740 0.634 1.596 0.744" stroke="hsl(0.0,100%,35%)" stroke-width="0.00140"></path>
<path d="M0.766 0.192 Q0.832 0.275 1.009 0.261" stroke="hsl(0.0,100%,35%)" stroke-width="0.00140"></path>
<path d="M0.766 0.192 Q0.212 0.415 0.525 0.734" stroke="hsl(0.0,100%,35%)" stroke-width="0.00140"></path>
<path d="M0.766 0.192 Q0.500 0.560 1.158 0.771" stroke="hsl(0.0,100%,35%)" stroke-width="0.00140"></path>
<path d="M1.247 0.366 Q0.747 0.520 0.936 0.797" stroke="hsl(180.0,100%,35%)" stroke-width="0.00140"></path>
<path d="M1.247 0.366 Q1.031 0.525 1.294 0.665" stroke="hsl(180.0,100%,35%)" stroke-width="0.00140"></path>
<path d="M1.247 0.366 Q0.591 0.406 0.525 0.734" stroke="hsl(180.0,100%,35%)" stroke-width="0.00140"></path>
<path d="M1.247 0.366 Q0.818 0.235 0.467 0.415" stroke="hsl(180.0,100%,35%)" stroke-width="0.00140"></path>
<path d="M1.247 0.366 Q1.213 0.341 1.156 0.352" stroke="hsl(180.0,100%,35%)" stroke-width="0.00140"></path>
<path d="M1.247 0.366 Q0.849 0.622 1.261 0.872" stroke="hsl(180.0,100%,35%)" stroke-width="0.00140"></path>
<path d="M1.247 0.366 Q1.149 0.407 1.207 0.464" stroke="hsl(180.0,100%,35%)" stroke-width="0.00140"></path>
<path d="M1.247 0.366 Q1.212 0.266 1.009 0.261" stroke="hsl(180.0,100%,35%)" stroke-width="0.00140"></path>
<path d="M0.936 0.797 Q0.815 0.767 0.730 0.820" stroke="hsl(0.0,100%,35%)" stroke-width="0.00140"></path>
<path d="M0.936 0.797 Q1.221 0.803 1.294 0.665" stroke="hsl(0.0,100%,35%)" stroke-width="0.01544"></path>
<path d="M0.936 0.797 Q1.819 0.632 1.691 0.166" stroke="hsl(0.0,100%,35%)" stroke-width="0.00140"></path>
<path d="M0.936 0.797 Q1.345 0.881 1.599 0.700" stroke="hsl(0.0,100%,35%)" stroke-width="0.00140"></path>
<path d="M0.936 0.797 Q1.285 0.539 0.858 0.312" stroke="hsl(0.0,100%,35%)" stroke-width="0.00140"></path>
<path d="M0.936 0.797 Q0.869 0.780 0.821 0.809" stroke="hsl(0.0,100%,35%)" stroke-width="0.00140"></path>
<path d="M1.261 0.872 Q1.443 0.775 1.294 0.665" stroke="hsl(0.0,100%,35%)" stroke-width="0.00983"></path>
<path d="M1.261 0.872 Q1.170 0.917 1.237 0.971" stroke="hsl(0.0,100%,35%)" stroke-width="0.00140"></path>
<path d="M1.261 0.872 Q1.367 0.482 0.629 0.345" stroke="hsl(0.0,100%,35%)" stroke-width="0.00140"></path>
<path d="M1.261 0.872 Q1.159 0.770 0.936 0.797" stroke="hsl(0.0,100%,35%)" stroke-width="0.00421"></path>
<path d="M1.261 0.872 Q1.568 0.854 1.599 0.700" stroke="hsl(0.0,100%,35%)" stroke-width="0.00140"></path>
<path d="M1.261 0.872 Q1.291 0.801 1.158 0.771" stroke="hsl(0.0,100%,35%)" stroke-width="0.00140"></path>
<path d="M1.604 0.431 Q1.555 0.497 1.675 0.536" stroke="hsl(0.0,100%,35%)" stroke-width="0.00983"></path>
<path d="M1.604 0.431 Q1.326 0.222 0.858 0.312" stroke="hsl(0.0,100%,35%)" stroke-width="0.00562"></path>
<path d="M1.604 0.431 Q1.375 0.144 0.766 0.192" stroke="hsl(0.0,100%,35%)" stroke-width="0.00140"></path>
<path d="M1.604 0.431 Q1.261 0.486 1.294 0.665" stroke="hsl(0.0,100%,35%)" stroke-width="0.01544"></path>
<path d="M1.604 0.431 Q0.977 0.480 0.936 0.797" stroke="hsl(0.0,100%,35%)" stroke-width="0.00281"></path>
<path d="M1.604 0.431 Q1.513 0.426 1.485 0.470" stroke="hsl(0.0,100%,35%)" stroke-width="0.00140"></path>
<path d="M1.604 0.431 Q1.079 0.583 1.261 0.872" stroke="hsl(0.0,100%,35%)" stroke-width="0.00140"></path>
<path d="M1.675 0.536 Q1.723 0.469 1.604 0.431" stroke="hsl(0.0,100%,35%)" stroke-width="0.00281"></path>
<path d="M1.675 0.536 Q1.740 0.582 1.845 0.560" stroke="hsl(0.0,100%,35%)" stroke-width="0.00140"></path>
<path d="M1.675 0.536 Q1.096 0.519 0.936 0.797" stroke="hsl(0.0,100%,35%)" stroke-width="0.00140"></path>
<path d="M1.675 0.536 Q1.381 0.524 1.294 0.665" stroke="hsl(0.0,100%,35%)" stroke-width="0.00281"></path>
<path d="M1.485 0.470 Q1.527 0.541 1.675 0.536" stroke="hsl(0.0,100%,35%)" stroke-width="0.00281"></path>
<path d="M1.485 0.470 Q1.576 0.474 1.604 0.431" stroke="hsl(0.0,100%,35%)" stroke-width="0.00281"></path>
<path d="M1.485 0.470 Q1.233 0.529 1.294 0.665" stroke="hsl(0.0,100%,35%)" stroke-width="0.00281"></path>
<path d="M1.485 0.470 Q0.948 0.524 0.936 0.797" stroke="hsl(0.0,100%,35%)" stroke-width="0.00140"></path>
<path d="M1.879 0.157 Q0.895 0.288 0.936 0.797" stroke="hsl(180.0,100%,35%)" stroke-width="0.00140"></path>
<path d="M1.879 0.157 Q1.808 0.221 1.919 0.270" stroke="hsl(180.0,100%,35%)" stroke-width="0.02106"></path>
<path d="M1.879 0.157 Q1.709 0.171 1.699 0.257" stroke="hsl(180.0,100%,35%)" stroke-width="0.00281"></path>
<path d="M1.879 0.157 Q1.818 0.041 1.579 0.045" stroke="hsl(180.0,100%,35%)" stroke-width="0.00140"></path>
<path d="M1.879 0.157 Q1.777 0.124 1.691 0.166" stroke="hsl(180.0,100%,35%)" stroke-width="0.00140"></path>
<path d="M1.879 0.157 Q1.737 0.089 1.574 0.144" stroke="hsl(180.0,100%,35%)" stroke-width="0.00140"></path>
<path d="M1.879 0.157 Q1.890 0.088 1.759 0.068" stroke="hsl(180.0,100%,35%)" stroke-width="0.00140"></path>
<path d="M1.879 0.157 Q1.179 0.294 1.294 0.665" stroke="hsl(180.0,100%,35%)" stroke-width="0.00140"></path>
<path d="M1.879 0.157 Q1.297 0.176 1.207 0.464" stroke="hsl(180.0,100%,35%)" stroke-width="0.00140"></path>
<path d="M1.879 0.157 Q1.361 0.110 1.156 0.352" stroke="hsl(180.0,100%,35%)" stroke-width="0.00140"></path>
<path d="M1.423 0.793 Q1.804 0.648 1.604 0.431" stroke="hsl(0.0,100%,35%)" stroke-width="0.00140"></path>
<path d="M1.423 0.793 Q1.461 0.703 1.294 0.665" stroke="hsl(0.0,100%,35%)" stroke-width="0.02808"></path>
<path d="M1.423 0.793 Q1.643 0.519 1.156 0.352" stroke="hsl(0.0,100%,35%)" stroke-width="0.00842"></path>
<path d="M1.423 0.793 Q1.309 0.729 1.158 0.771" stroke="hsl(0.0,100%,35%)" stroke-width="0.00562"></path>
<path d="M1.423 0.793 Q1.575 0.361 0.766 0.192" stroke="hsl(0.0,100%,35%)" stroke-width="0.00281"></path>
<path d="M1.423 0.793 Q1.755 0.715 1.675 0.536" stroke="hsl(0.0,100%,35%)" stroke-width="0.00702"></path>
<path d="M1.398 0.542 Q1.312 0.319 0.858 0.312" stroke="hsl(0.0,100%,35%)" stroke-width="0.00281"></path>
<path d="M1.398 0.542 Q1.247 0.583 1.294 0.665" stroke="hsl(0.0,100%,35%)" stroke-width="0.02106"></path>
<path d="M1.398 0.542 Q1.429 0.398 1.156 0.352" stroke="hsl(0.0,100%,35%)" stroke-width="0.00281"></path>
<path d="M1.398 0.542 Q1.331 0.434 1.107 0.443" stroke="hsl(0.0,100%,35%)" stroke-width="0.00421"></path>
<path d="M1.398 0.542 Q0.807 0.463 0.525 0.734" stroke="hsl(0.0,100%,35%)" stroke-width="0.00140"></path>
<path d="M1.398 0.542 Q1.329 0.474 1.182 0.493" stroke="hsl(0.0,100%,35%)" stroke-width="0.00140"></path>
<path d="M1.398 0.542 Q1.034 0.292 0.467 0.415" stroke="hsl(0.0,100%,35%)" stroke-width="0.00281"></path>
<path d="M1.398 0.542 Q1.371 0.490 1.265 0.492" stroke="hsl(0.0,100%,35%)" stroke-width="0.00140"></path>
<path d="M1.398 0.542 Q1.361 0.241 0.766 0.192" stroke="hsl(0.0,100%,35%)" stroke-width="0.00140"></path>
<path d="M1.398 0.542 Q0.963 0.577 0.936 0.797" stroke="hsl(0.0,100%,35%)" stroke-width="0.00562"></path>
<path d="M1.398 0.542 Q1.365 0.465 1.207 0.464" stroke="hsl(0.0,100%,35%)" stroke-width="0.00140"></path>
<path d="M1.599 0.700 Q1.190 0.616 0.936 0.797" stroke="hsl(0.0,100%,35%)" stroke-width="0.00281"></path>
<path d="M1.599 0.700 Q1.686 0.713 1.730 0.674" stroke="hsl(0.0,100%,35%)" stroke-width="0.00140"></path>
<path d="M1.599 0.700 Q1.475 0.621 1.294 0.665" stroke="hsl(0.0,100%,35%)" stroke-width="0.00702"></path>
<path d="M1.599 0.700 Q1.185 0.388 0.485 0.522" stroke="hsl(0.0,100%,35%)" stroke-width="0.00140"></path>
<path d="M1.599 0.700 Q1.589 0.280 0.766 0.192" stroke="hsl(0.0,100%,35%)" stroke-width="0.00140"></path>
<path d="M1.158 0.771 Q1.653 0.690 1.604 0.431" stroke="hsl(0.0,100%,35%)" stroke-width="0.00140"></path>
<path d="M1.158 0.771 Q1.026 0.739 0.936 0.797" stroke="hsl(0.0,100%,35%)" stroke-width="0.03650"></path>
<path d="M1.158 0.771 Q1.311 0.745 1.294 0.665" stroke="hsl(0.0,100%,35%)" stroke-width="0.03510"></path>
<path d="M1.158 0.771 Q1.492 0.561 1.156 0.352" stroke="hsl(0.0,100%,35%)" stroke-width="0.00140"></path>
<path d="M1.158 0.771 Q1.097 0.666 0.879 0.673" stroke="hsl(0.0,100%,35%)" stroke-width="0.00281"></path>
<path d="M1.158 0.771 Q1.375 0.481 0.858 0.312" stroke="hsl(0.0,100%,35%)" stroke-width="0.03369"></path>
<path d="M1.158 0.771 Q1.425 0.403 0.766 0.192" stroke="hsl(0.0,100%,35%)" stroke-width="0.01123"></path>
<path d="M1.158 0.771 Q1.495 0.750 1.529 0.581" stroke="hsl(0.0,100%,35%)" stroke-width="0.00140"></path>
<path d="M1.158 0.771 Q1.435 0.824 1.599 0.700" stroke="hsl(0.0,100%,35%)" stroke-width="0.00421"></path>
<path d="M1.158 0.771 Q1.522 0.837 1.730 0.674" stroke="hsl(0.0,100%,35%)" stroke-width="0.00140"></path>
<path d="M1.158 0.771 Q0.963 0.796 0.970 0.897" stroke="hsl(0.0,100%,35%)" stroke-width="0.00140"></path>
<path d="M1.158 0.771 Q0.959 0.723 0.821 0.809" stroke="hsl(0.0,100%,35%)" stroke-width="0.00140"></path>
<path d="M1.158 0.771 Q1.252 0.657 1.051 0.587" stroke="hsl(0.0,100%,35%)" stroke-width="0.00140"></path>
<path d="M1.158 0.771 Q1.273 0.648 1.058 0.565" stroke="hsl(0.0,100%,35%)" stroke-width="0.00140"></path>
<path d="M1.158 0.771 Q1.021 0.511 0.485 0.522" stroke="hsl(0.0,100%,35%)" stroke-width="0.00140"></path>
<path d="M1.158 0.771 Q1.605 0.756 1.675 0.536" stroke="hsl(0.0,100%,35%)" stroke-width="0.00281"></path>
<path d="M1.158 0.771 Q1.280 0.273 0.335 0.104" stroke="hsl(0.0,100%,35%)" stroke-width="0.00140"></path>
<path d="M1.158 0.771 Q1.840 0.622 1.699 0.257" stroke="hsl(0.0,100%,35%)" stroke-width="0.00140"></path>
<path d="M1.158 0.771 Q1.129 0.842 1.261 0.872" stroke="hsl(0.0,100%,35%)" stroke-width="0.00140"></path>
<path d="M1.158 0.771 Q1.280 0.607 0.988 0.512" stroke="hsl(0.0,100%,35%)" stroke-width="0.00140"></path>
<path d="M1.158 0.771 Q0.871 0.626 0.525 0.734" stroke="hsl(0.0,100%,35%)" stroke-width="0.00140"></path>
<path d="M0.629 0.345 Q0.554 0.664 1.158 0.771" stroke="hsl(0.0,100%,35%)" stroke-width="0.00562"></path>
<path d="M0.629 0.345 Q0.421 0.633 0.936 0.797" stroke="hsl(0.0,100%,35%)" stroke-width="0.00140"></path>
<path d="M0.629 0.345 Q0.771 0.374 0.858 0.312" stroke="hsl(0.0,100%,35%)" stroke-width="0.00421"></path>
<path d="M0.629 0.345 Q0.630 0.245 0.434 0.223" stroke="hsl(0.0,100%,35%)" stroke-width="0.00140"></path>
<path d="M0.629 0.345 Q0.706 0.638 1.294 0.665" stroke="hsl(0.0,100%,35%)" stroke-width="0.00140"></path>
<path d="M0.629 0.345 Q0.888 0.454 1.156 0.352" stroke="hsl(0.0,100%,35%)" stroke-width="0.00140"></path>
<path d="M1.172 0.695 Q1.599 0.649 1.604 0.431" stroke="hsl(0.0,100%,35%)" stroke-width="0.00140"></path>
<path d="M1.172 0.695 Q1.257 0.705 1.294 0.665" stroke="hsl(0.0,100%,35%)" stroke-width="0.00281"></path>
<path d="M1.172 0.695 Q1.439 0.520 1.156 0.352" stroke="hsl(0.0,100%,35%)" stroke-width="0.00140"></path>
<path d="M1.424 0.878 Q1.551 0.874 1.571 0.811" stroke="hsl(0.0,100%,35%)" stroke-width="0.00140"></path>
<path d="M1.424 0.878 Q1.245 0.740 0.936 0.797" stroke="hsl(0.0,100%,35%)" stroke-width="0.00140"></path>
<path d="M1.424 0.878 Q1.823 0.757 1.675 0.536" stroke="hsl(0.0,100%,35%)" stroke-width="0.00140"></path>
<path d="M0.485 0.522 Q0.627 0.461 0.540 0.378" stroke="hsl(0.0,100%,35%)" stroke-width="0.00140"></path>
<path d="M0.485 0.522 Q1.372 0.585 1.691 0.166" stroke="hsl(0.0,100%,35%)" stroke-width="0.00140"></path>
<path d="M0.485 0.522 Q0.698 0.462 0.629 0.345" stroke="hsl(0.0,100%,35%)" stroke-width="0.00140"></path>
<path d="M1.041 0.451 Q0.996 0.609 1.294 0.665" stroke="hsl(180.0,100%,35%)" stroke-width="0.00140"></path>
<path d="M1.041 0.451 Q1.114 0.491 1.207 0.464" stroke="hsl(180.0,100%,35%)" stroke-width="0.00281"></path>
<path d="M1.041 0.451 Q0.712 0.603 0.936 0.797" stroke="hsl(180.0,100%,35%)" stroke-width="0.00140"></path>
<path d="M1.041 0.451 Q1.339 0.553 1.604 0.431" stroke="hsl(180.0,100%,35%)" stroke-width="0.00140"></path>
<path d="M0.507 0.619 Q0.574 0.566 0.485 0.522" stroke="hsl(180.0,100%,35%)" stroke-width="0.00281"></path>
<path d="M0.507 0.619 Q0.411 0.562 0.278 0.596" stroke="hsl(180.0,100%,35%)" stroke-width="0.00140"></path>
<path d="M0.507 0.619 Q0.423 0.680 0.525 0.734" stroke="hsl(180.0,100%,35%)" stroke-width="0.00281"></path>
<path d="M0.516 0.069 Q0.428 0.523 1.294 0.665" stroke="hsl(0.0,100%,35%)" stroke-width="0.00140"></path>
<path d="M0.516 0.069 Q0.554 0.053 0.531 0.031" stroke="hsl(0.0,100%,35%)" stroke-width="0.00140"></path>
<path d="M0.516 0.069 Q0.604 0.088 0.660 0.049" stroke="hsl(0.0,100%,35%)" stroke-width="0.00140"></path>
<path d="M1.334 0.404 Q1.223 0.408 1.207 0.464" stroke="hsl(180.0,100%,35%)" stroke-width="0.00140"></path>
<path d="M1.334 0.404 Q0.820 0.521 0.936 0.797" stroke="hsl(180.0,100%,35%)" stroke-width="0.00140"></path>
<path d="M1.334 0.404 Q0.714 0.485 0.736 0.805" stroke="hsl(180.0,100%,35%)" stroke-width="0.00140"></path>
<path d="M0.736 0.805 Q1.127 0.847 1.294 0.665" stroke="hsl(0.0,100%,35%)" stroke-width="0.00421"></path>
<path d="M0.736 0.805 Q0.843 0.841 0.936 0.797" stroke="hsl(0.0,100%,35%)" stroke-width="0.00562"></path>
<path d="M0.736 0.805 Q0.945 0.944 1.261 0.872" stroke="hsl(0.0,100%,35%)" stroke-width="0.00140"></path>
<path d="M0.736 0.805 Q1.252 0.925 1.599 0.700" stroke="hsl(0.0,100%,35%)" stroke-width="0.00140"></path>
<path d="M0.638 0.235 Q0.686 0.317 0.858 0.312" stroke="hsl(0.0,100%,35%)" stroke-width="0.00140"></path>
<path d="M0.638 0.235 Q0.916 0.592 1.675 0.536" stroke="hsl(0.0,100%,35%)" stroke-width="0.00140"></path>
<path d="M0.638 0.235 Q0.545 0.288 0.629 0.345" stroke="hsl(0.0,100%,35%)" stroke-width="0.00140"></path>
<path d="M1.410 0.275 Q1.382 0.392 1.604 0.431" stroke="hsl(0.0,100%,35%)" stroke-width="0.00281"></path>
<path d="M1.410 0.275 Q1.040 0.447 1.294 0.665" stroke="hsl(0.0,100%,35%)" stroke-width="0.00140"></path>
<path d="M1.410 0.275 Q1.222 0.263 1.156 0.352" stroke="hsl(0.0,100%,35%)" stroke-width="0.00140"></path>
<path d="M1.840 0.440 Q1.356 -0.029 0.335 0.104" stroke="hsl(180.0,100%,35%)" stroke-width="0.00140"></path>
<path d="M1.840 0.440 Q1.408 0.572 1.571 0.811" stroke="hsl(180.0,100%,35%)" stroke-width="0.00140"></path>
<path d="M1.840 0.440 Q1.328 0.356 1.051 0.587" stroke="hsl(180.0,100%,35%)" stroke-width="0.00140"></path>
<path d="M1.840 0.440 Q1.504 0.325 1.207 0.464" stroke="hsl(180.0,100%,35%)" stroke-width="0.00281"></path>
<path d="M1.840 0.440 Q1.833 0.426 1.805 0.427" stroke="hsl(180.0,100%,35%)" stroke-width="0.00140"></path>
<path d="M0.306 0.745 Q0.158 0.752 0.140 0.825" stroke="hsl(180.0,100%,35%)" stroke-width="0.00140"></path>
<path d="M0.306 0.745 Q0.266 0.694 0.158 0.703" stroke="hsl(180.0,100%,35%)" stroke-width="0.00421"></path>
<path d="M0.306 0.745 Q1.127 1.040 1.883 0.704" stroke="hsl(180.0,100%,35%)" stroke-width="0.00140"></path>
<path d="M1.883 0.704 Q1.745 0.645 1.599 0.700" stroke="hsl(180.0,100%,35%)" stroke-width="0.00421"></path>
<path d="M1.883 0.704 Q2.008 0.641 1.913 0.567" stroke="hsl(180.0,100%,35%)" stroke-width="0.00140"></path>
<path d="M1.883 0.704 Q1.962 0.512 1.604 0.431" stroke="hsl(180.0,100%,35%)" stroke-width="0.00140"></path>
<path d="M1.883 0.704 Q2.021 0.658 1.962 0.581" stroke="hsl(180.0,100%,35%)" stroke-width="0.00140"></path>
<path d="M1.883 0.704 Q2.038 0.631 1.929 0.540" stroke="hsl(180.0,100%,35%)" stroke-width="0.00140"></path>
<path d="M1.477 0.724 Q1.432 0.658 1.294 0.665" stroke="hsl(0.0,100%,35%)" stroke-width="0.02527"></path>
<path d="M1.477 0.724 Q1.614 0.473 1.156 0.352" stroke="hsl(0.0,100%,35%)" stroke-width="0.00140"></path>
<path d="M1.477 0.724 Q1.219 0.579 0.879 0.673" stroke="hsl(0.0,100%,35%)" stroke-width="0.00140"></path>
<path d="M1.477 0.724 Q1.557 0.736 1.599 0.700" stroke="hsl(0.0,100%,35%)" stroke-width="0.00140"></path>
<path d="M1.477 0.724 Q1.680 0.772 1.818 0.684" stroke="hsl(0.0,100%,35%)" stroke-width="0.00140"></path>
<path d="M0.100 0.358 Q0.304 0.456 0.540 0.378" stroke="hsl(0.0,100%,35%)" stroke-width="0.00140"></path>
<path d="M0.100 0.358 Q0.128 0.384 0.185 0.376" stroke="hsl(0.0,100%,35%)" stroke-width="0.00140"></path>
<path d="M0.100 0.358 Q0.576 0.829 1.599 0.700" stroke="hsl(0.0,100%,35%)" stroke-width="0.00140"></path>
<path d="M1.848 0.372 Q1.454 0.290 1.207 0.464" stroke="hsl(0.0,100%,35%)" stroke-width="0.00140"></path>
<path d="M1.848 0.372 Q1.487 0.367 1.398 0.542" stroke="hsl(0.0,100%,35%)" stroke-width="0.00140"></path>
<path d="M1.848 0.372 Q1.965 0.335 1.919 0.270" stroke="hsl(0.0,100%,35%)" stroke-width="0.00140"></path>
<path d="M0.044 0.467 Q0.169 0.511 0.283 0.460" stroke="hsl(180.0,100%,35%)" stroke-width="0.00140"></path>
<path d="M0.044 0.467 Q0.804 0.827 1.675 0.536" stroke="hsl(180.0,100%,35%)" stroke-width="0.00140"></path>
<path d="M0.044 0.467 Q-0.015 0.532 0.100 0.575" stroke="hsl(180.0,100%,35%)" stroke-width="0.00140"></path>
<path d="M0.044 0.467 Q1.039 0.693 1.699 0.257" stroke="hsl(180.0,100%,35%)" stroke-width="0.00140"></path>
</g>
<text x="0.406" y="0.313" font-size="0.013363" fill="hsl(0.0,100%,20%)">ajgo</text>
<text x="0.540" y="0.372" font-size="0.010911" fill="hsl(180.0,100%,20%)">brucedawson</text>
<text x="0.467" y="0.407" font-size="0.014434" fill="hsl(180.0,100%,20%)">wfh</text>
<text x="0.858" y="0.281" font-size="0.060749" fill="hsl(0.0,100%,20%)">tasak</text>
<text x="0.493" y="0.192" font-size="0.018094" fill="hsl(0.0,100%,20%)">ajuma</text>
<text x="1.919" y="0.257" font-size="0.026726" fill="hsl(180.0,100%,20%)">mark</text>
<text x="0.233" y="0.195" font-size="0.016366" fill="hsl(180.0,100%,20%)">vollick</text>
<text x="0.177" y="0.232" font-size="0.007715" fill="hsl(180.0,100%,20%)">anthonyvd</text>
<text x="1.294" y="0.618" font-size="0.094333" fill="hsl(0.0,100%,20%)">bartekn</text>
<text x="0.335" y="0.099" font-size="0.009449" fill="hsl(180.0,100%,20%)">gab</text>
<text x="0.766" y="0.165" font-size="0.055635" fill="hsl(0.0,100%,20%)">yukishiino</text>
<text x="1.247" y="0.359" font-size="0.015430" fill="hsl(180.0,100%,20%)">andre.kempe</text>
<text x="0.936" y="0.773" font-size="0.048489" fill="hsl(0.0,100%,20%)">keishi</text>
<text x="0.525" y="0.727" font-size="0.015430" fill="hsl(180.0,100%,20%)">mpdenton</text>
<text x="1.156" y="0.339" font-size="0.026163" fill="hsl(0.0,100%,20%)">dcheng</text>
<text x="1.261" y="0.858" font-size="0.029378" fill="hsl(0.0,100%,20%)">glazunov</text>
<text x="1.207" y="0.453" font-size="0.021822" fill="hsl(180.0,100%,20%)">haraken</text>
<text x="1.009" y="0.257" font-size="0.007715" fill="hsl(180.0,100%,20%)">joenotcharles</text>
<text x="1.604" y="0.412" font-size="0.036187" fill="hsl(0.0,100%,20%)">arthursonzogni</text>
<text x="1.675" y="0.520" font-size="0.030375" fill="hsl(0.0,100%,20%)">danakj</text>
<text x="1.485" y="0.462" font-size="0.015430" fill="hsl(0.0,100%,20%)">pmeuleman</text>
<text x="1.879" y="0.143" font-size="0.027277" fill="hsl(180.0,100%,20%)">avi</text>
<text x="1.699" y="0.252" font-size="0.010911" fill="hsl(180.0,100%,20%)">sdefresne</text>
<text x="1.579" y="0.042" font-size="0.005455" fill="hsl(180.0,100%,20%)">robertogden</text>
<text x="1.691" y="0.161" font-size="0.009449" fill="hsl(180.0,100%,20%)">rsesek</text>
<text x="1.574" y="0.141" font-size="0.005455" fill="hsl(180.0,100%,20%)">senorblanco</text>
<text x="1.759" y="0.065" font-size="0.005455" fill="hsl(180.0,100%,20%)">zmo</text>
<text x="1.423" y="0.775" font-size="0.035774" fill="hsl(0.0,100%,20%)">tsepez</text>
<text x="1.398" y="0.525" font-size="0.032275" fill="hsl(0.0,100%,20%)">mikt</text>
<text x="1.599" y="0.682" font-size="0.035774" fill="hsl(0.0,100%,20%)">lizeb</text>
<text x="1.158" y="0.737" font-size="0.067700" fill="hsl(0.0,100%,20%)">kdlee</text>
<text x="1.571" y="0.800" font-size="0.023146" fill="hsl(0.0,100%,20%)">bikineev</text>
<text x="1.529" y="0.576" font-size="0.009449" fill="hsl(0.0,100%,20%)">thiabaud</text>
<text x="1.088" y="0.921" font-size="0.005455" fill="hsl(0.0,100%,20%)">junov</text>
<text x="1.818" y="0.679" font-size="0.009449" fill="hsl(0.0,100%,20%)">ssid</text>
<text x="1.107" y="0.437" font-size="0.010911" fill="hsl(0.0,100%,20%)">mlippautz</text>
<text x="0.629" y="0.335" font-size="0.021822" fill="hsl(0.0,100%,20%)">thestig</text>
<text x="1.596" y="0.740" font-size="0.007715" fill="hsl(0.0,100%,20%)">erikchen</text>
<text x="1.172" y="0.689" font-size="0.012199" fill="hsl(0.0,100%,20%)">paulsemel</text>
<text x="1.288" y="0.813" font-size="0.009449" fill="hsl(0.0,100%,20%)">altimin</text>
<text x="1.245" y="0.793" font-size="0.005455" fill="hsl(0.0,100%,20%)">bgeffon</text>
<text x="1.845" y="0.557" font-size="0.005455" fill="hsl(0.0,100%,20%)">janagrill</text>
<text x="1.424" y="0.873" font-size="0.009449" fill="hsl(0.0,100%,20%)">davidben</text>
<text x="0.485" y="0.513" font-size="0.017252" fill="hsl(0.0,100%,20%)">fdoray</text>
<text x="1.237" y="0.968" font-size="0.005455" fill="hsl(0.0,100%,20%)">hashimoto</text>
<text x="1.041" y="0.445" font-size="0.012199" fill="hsl(180.0,100%,20%)">jdapena</text>
<text x="0.507" y="0.613" font-size="0.012199" fill="hsl(180.0,100%,20%)">jkoshy</text>
<text x="0.278" y="0.593" font-size="0.005455" fill="hsl(180.0,100%,20%)">anasalazar</text>
<text x="0.879" y="0.668" font-size="0.009449" fill="hsl(0.0,100%,20%)">leszeks</text>
<text x="1.730" y="0.670" font-size="0.007715" fill="hsl(0.0,100%,20%)">pasko</text>
<text x="0.970" y="0.895" font-size="0.005455" fill="hsl(0.0,100%,20%)">rogerm</text>
<text x="0.821" y="0.805" font-size="0.007715" fill="hsl(0.0,100%,20%)">tkent</text>
<text x="1.051" y="0.583" font-size="0.007715" fill="hsl(180.0,100%,20%)">kylechar</text>
<text x="1.058" y="0.562" font-size="0.005455" fill="hsl(0.0,100%,20%)">danilchap</text>
<text x="0.988" y="0.509" font-size="0.005455" fill="hsl(180.0,100%,20%)">hans</text>
<text x="0.730" y="0.817" font-size="0.005455" fill="hsl(0.0,100%,20%)">elkurin</text>
<text x="0.516" y="0.065" font-size="0.009449" fill="hsl(0.0,100%,20%)">leimy</text>
<text x="0.531" y="0.028" font-size="0.005455" fill="hsl(0.0,100%,20%)">chikamune</text>
<text x="0.660" y="0.046" font-size="0.005455" fill="hsl(0.0,100%,20%)">kouhei</text>
<text x="1.182" y="0.490" font-size="0.005455" fill="hsl(0.0,100%,20%)">caitkp</text>
<text x="1.265" y="0.489" font-size="0.005455" fill="hsl(0.0,100%,20%)">yoavweiss</text>
<text x="1.334" y="0.399" font-size="0.009449" fill="hsl(180.0,100%,20%)">nathan.teodosio</text>
<text x="0.736" y="0.797" font-size="0.017252" fill="hsl(0.0,100%,20%)">richard.townsend</text>
<text x="0.638" y="0.230" font-size="0.009449" fill="hsl(0.0,100%,20%)">pbos</text>
<text x="1.410" y="0.270" font-size="0.010911" fill="hsl(0.0,100%,20%)">piotr.tworek</text>
<text x="1.840" y="0.433" font-size="0.013363" fill="hsl(180.0,100%,20%)">pkasting</text>
<text x="1.805" y="0.424" font-size="0.005455" fill="hsl(180.0,100%,20%)">agrieve</text>
<text x="0.306" y="0.739" font-size="0.012199" fill="hsl(180.0,100%,20%)">prashanthsw</text>
<text x="0.140" y="0.823" font-size="0.005455" fill="hsl(0.0,100%,20%)">ntfschr</text>
<text x="0.158" y="0.698" font-size="0.009449" fill="hsl(0.0,100%,20%)">thakis</text>
<text x="1.883" y="0.696" font-size="0.015430" fill="hsl(180.0,100%,20%)">wez</text>
<text x="1.477" y="0.711" font-size="0.025588" fill="hsl(0.0,100%,20%)">sroettger</text>
<text x="1.001" y="0.225" font-size="0.007715" fill="hsl(0.0,100%,20%)">boliu</text>
<text x="1.125" y="0.248" font-size="0.005455" fill="hsl(0.0,100%,20%)">etienneb</text>
<text x="0.434" y="0.220" font-size="0.005455" fill="hsl(0.0,100%,20%)">olivierli</text>
<text x="0.100" y="0.353" font-size="0.009449" fill="hsl(0.0,100%,20%)">titouan</text>
<text x="0.185" y="0.374" font-size="0.005455" fill="hsl(180.0,100%,20%)">isaboori</text>
<text x="1.848" y="0.368" font-size="0.009449" fill="hsl(0.0,100%,20%)">uioptt24</text>
<text x="0.243" y="0.284" font-size="0.005455" fill="hsl(180.0,100%,20%)">dtapuska</text>
<text x="1.913" y="0.564" font-size="0.005455" fill="hsl(180.0,100%,20%)">iclelland</text>
<text x="1.962" y="0.578" font-size="0.005455" fill="hsl(180.0,100%,20%)">cbruni</text>
<text x="1.929" y="0.537" font-size="0.005455" fill="hsl(180.0,100%,20%)">ddorwin</text>
<text x="0.980" y="0.043" font-size="0.005455" fill="hsl(0.0,100%,20%)">dfried</text>
<text x="1.221" y="0.077" font-size="0.005455" fill="hsl(0.0,100%,20%)">msw</text>
<text x="0.905" y="0.137" font-size="0.005455" fill="hsl(0.0,100%,20%)">nektar</text>
<text x="1.245" y="0.222" font-size="0.005455" fill="hsl(0.0,100%,20%)">khokhlov</text>
<text x="0.044" y="0.461" font-size="0.010911" fill="hsl(180.0,100%,20%)">zhaojiazhong-hf</text>
<text x="0.283" y="0.458" font-size="0.005455" fill="hsl(180.0,100%,20%)">cwallez</text>
<text x="0.100" y="0.573" font-size="0.005455" fill="hsl(180.0,100%,20%)">kbr</text>
</svg>
