<svg width="4000" height="2000" viewBox="-0.025 -0.025 2.05 1.05" xmlns="http://www.w3.org/2000/svg">
  <style>
    path {
      fill: none;
      stroke-linecap: round;
      stroke-opacity: 0.4;
    }

    text {
      text-anchor: middle;
      alignment-baseline: hanging;
    }
  </style>
  <g opacity="0.4">
<path d="M0.766 0.096 Q0.443 0.270 0.712 0.466" stroke="hsl(0.0,100%,35%)" stroke-width="0.00115"></path>
<path d="M0.766 0.096 Q0.746 0.040 0.632 0.038" stroke="hsl(0.0,100%,35%)" stroke-width="0.00115"></path>
<path d="M0.766 0.096 Q1.040 0.306 1.509 0.218" stroke="hsl(0.0,100%,35%)" stroke-width="0.00115"></path>
<path d="M1.372 0.229 Q1.042 0.455 1.409 0.665" stroke="hsl(0.0,100%,35%)" stroke-width="0.00115"></path>
<path d="M1.372 0.229 Q1.328 0.199 1.259 0.213" stroke="hsl(0.0,100%,35%)" stroke-width="0.00115"></path>
<path d="M1.372 0.229 Q1.580 0.315 1.793 0.232" stroke="hsl(0.0,100%,35%)" stroke-width="0.00115"></path>
<path d="M1.372 0.229 Q0.923 0.475 1.303 0.747" stroke="hsl(0.0,100%,35%)" stroke-width="0.00231"></path>
<path d="M1.372 0.229 Q0.868 0.603 1.487 0.931" stroke="hsl(0.0,100%,35%)" stroke-width="0.00115"></path>
<path d="M1.372 0.229 Q0.661 0.170 0.389 0.504" stroke="hsl(0.0,100%,35%)" stroke-width="0.00115"></path>
<path d="M1.372 0.229 Q1.450 0.251 1.509 0.218" stroke="hsl(0.0,100%,35%)" stroke-width="0.00115"></path>
<path d="M1.487 0.931 Q1.607 0.888 1.549 0.820" stroke="hsl(120.0,100%,35%)" stroke-width="0.06802"></path>
<path d="M1.487 0.931 Q1.542 0.803 1.303 0.747" stroke="hsl(120.0,100%,35%)" stroke-width="0.07032"></path>
<path d="M1.487 0.931 Q2.069 0.579 1.509 0.218" stroke="hsl(120.0,100%,35%)" stroke-width="0.00115"></path>
<path d="M1.487 0.931 Q1.847 0.845 1.757 0.650" stroke="hsl(120.0,100%,35%)" stroke-width="0.00115"></path>
<path d="M1.487 0.931 Q1.646 0.920 1.658 0.839" stroke="hsl(120.0,100%,35%)" stroke-width="0.00807"></path>
<path d="M1.487 0.931 Q1.571 0.997 1.718 0.971" stroke="hsl(120.0,100%,35%)" stroke-width="0.00692"></path>
<path d="M1.487 0.931 Q1.797 0.494 1.011 0.246" stroke="hsl(120.0,100%,35%)" stroke-width="0.00115"></path>
<path d="M1.487 0.931 Q1.345 0.373 0.226 0.320" stroke="hsl(120.0,100%,35%)" stroke-width="0.02421"></path>
<path d="M1.487 0.931 Q1.860 0.562 1.220 0.299" stroke="hsl(120.0,100%,35%)" stroke-width="0.00115"></path>
<path d="M1.487 0.931 Q1.538 0.860 1.410 0.819" stroke="hsl(120.0,100%,35%)" stroke-width="0.00461"></path>
<path d="M1.487 0.931 Q1.320 0.877 1.177 0.947" stroke="hsl(120.0,100%,35%)" stroke-width="0.00115"></path>
<path d="M1.487 0.931 Q1.504 0.996 1.634 1.001" stroke="hsl(120.0,100%,35%)" stroke-width="0.00576"></path>
<path d="M1.487 0.931 Q1.274 0.864 1.097 0.953" stroke="hsl(120.0,100%,35%)" stroke-width="0.00231"></path>
<path d="M1.487 0.931 Q1.410 0.841 1.216 0.858" stroke="hsl(120.0,100%,35%)" stroke-width="0.02652"></path>
<path d="M1.487 0.931 Q1.365 0.888 1.254 0.938" stroke="hsl(120.0,100%,35%)" stroke-width="0.01614"></path>
<path d="M1.487 0.931 Q1.280 0.498 0.389 0.504" stroke="hsl(120.0,100%,35%)" stroke-width="0.00231"></path>
<path d="M1.487 0.931 Q1.541 0.988 1.662 0.974" stroke="hsl(120.0,100%,35%)" stroke-width="0.00231"></path>
<path d="M1.487 0.931 Q1.529 0.991 1.654 0.983" stroke="hsl(120.0,100%,35%)" stroke-width="0.00231"></path>
<path d="M1.487 0.931 Q1.665 0.534 0.928 0.359" stroke="hsl(120.0,100%,35%)" stroke-width="0.00115"></path>
<path d="M1.487 0.931 Q1.571 0.695 1.129 0.602" stroke="hsl(120.0,100%,35%)" stroke-width="0.00115"></path>
<path d="M1.487 0.931 Q1.266 0.925 1.205 1.032" stroke="hsl(120.0,100%,35%)" stroke-width="0.00115"></path>
<path d="M1.487 0.931 Q1.536 0.447 0.601 0.316" stroke="hsl(120.0,100%,35%)" stroke-width="0.00115"></path>
<path d="M1.487 0.931 Q1.372 0.925 1.333 0.979" stroke="hsl(120.0,100%,35%)" stroke-width="0.00231"></path>
<path d="M1.487 0.931 Q1.534 0.988 1.656 0.977" stroke="hsl(120.0,100%,35%)" stroke-width="0.00231"></path>
<path d="M1.487 0.931 Q1.661 0.783 1.409 0.665" stroke="hsl(120.0,100%,35%)" stroke-width="0.00231"></path>
<path d="M1.487 0.931 Q1.459 0.853 1.301 0.849" stroke="hsl(120.0,100%,35%)" stroke-width="0.00115"></path>
<path d="M1.487 0.931 Q1.901 0.622 1.387 0.352" stroke="hsl(120.0,100%,35%)" stroke-width="0.00231"></path>
<path d="M1.487 0.931 Q2.146 0.461 1.373 0.037" stroke="hsl(120.0,100%,35%)" stroke-width="0.00115"></path>
<path d="M1.487 0.931 Q1.517 0.972 1.603 0.966" stroke="hsl(120.0,100%,35%)" stroke-width="0.00231"></path>
<path d="M1.487 0.931 Q1.288 0.898 1.179 0.988" stroke="hsl(120.0,100%,35%)" stroke-width="0.00231"></path>
<path d="M1.487 0.931 Q1.390 0.920 1.346 0.965" stroke="hsl(120.0,100%,35%)" stroke-width="0.00346"></path>
<path d="M1.487 0.931 Q1.321 0.906 1.235 0.982" stroke="hsl(120.0,100%,35%)" stroke-width="0.00115"></path>
<path d="M1.487 0.931 Q1.526 0.995 1.658 0.989" stroke="hsl(120.0,100%,35%)" stroke-width="0.00231"></path>
<path d="M1.487 0.931 Q1.902 0.613 1.373 0.341" stroke="hsl(120.0,100%,35%)" stroke-width="0.00115"></path>
<path d="M1.487 0.931 Q1.851 0.855 1.782 0.660" stroke="hsl(120.0,100%,35%)" stroke-width="0.00115"></path>
<path d="M1.487 0.931 Q1.418 0.934 1.407 0.967" stroke="hsl(120.0,100%,35%)" stroke-width="0.00115"></path>
<path d="M1.487 0.931 Q1.512 1.040 1.728 1.051" stroke="hsl(120.0,100%,35%)" stroke-width="0.00115"></path>
<path d="M1.487 0.931 Q1.411 1.070 1.666 1.138" stroke="hsl(120.0,100%,35%)" stroke-width="0.00115"></path>
<path d="M1.487 0.931 Q1.707 0.827 1.552 0.696" stroke="hsl(120.0,100%,35%)" stroke-width="0.00115"></path>
<path d="M1.487 0.931 Q1.651 1.024 1.868 0.964" stroke="hsl(120.0,100%,35%)" stroke-width="0.00231"></path>
<path d="M1.487 0.931 Q1.922 0.746 1.656 0.493" stroke="hsl(120.0,100%,35%)" stroke-width="0.00115"></path>
<path d="M0.389 0.504 Q0.454 0.379 0.226 0.320" stroke="hsl(240.0,100%,35%)" stroke-width="0.00692"></path>
<path d="M0.389 0.504 Q0.651 0.809 1.303 0.747" stroke="hsl(240.0,100%,35%)" stroke-width="0.00346"></path>
<path d="M0.389 0.504 Q0.324 0.492 0.286 0.521" stroke="hsl(240.0,100%,35%)" stroke-width="0.00231"></path>
<path d="M0.389 0.504 Q0.725 0.369 0.536 0.175" stroke="hsl(240.0,100%,35%)" stroke-width="0.00115"></path>
<path d="M0.389 0.504 Q0.716 0.894 1.549 0.820" stroke="hsl(240.0,100%,35%)" stroke-width="0.00115"></path>
<path d="M0.389 0.504 Q1.019 0.732 1.603 0.475" stroke="hsl(240.0,100%,35%)" stroke-width="0.00115"></path>
<path d="M0.389 0.504 Q0.596 0.937 1.487 0.931" stroke="hsl(240.0,100%,35%)" stroke-width="0.00231"></path>
<path d="M1.220 0.299 Q1.261 0.359 1.387 0.352" stroke="hsl(0.0,100%,35%)" stroke-width="0.00346"></path>
<path d="M1.220 0.299 Q1.021 0.520 1.409 0.665" stroke="hsl(0.0,100%,35%)" stroke-width="0.00115"></path>
<path d="M1.220 0.299 Q1.006 0.656 1.658 0.839" stroke="hsl(0.0,100%,35%)" stroke-width="0.00115"></path>
<path d="M1.549 0.820 Q1.381 0.764 1.234 0.834" stroke="hsl(120.0,100%,35%)" stroke-width="0.00346"></path>
<path d="M1.549 0.820 Q1.371 0.780 1.252 0.858" stroke="hsl(120.0,100%,35%)" stroke-width="0.00461"></path>
<path d="M1.549 0.820 Q1.513 0.929 1.718 0.971" stroke="hsl(120.0,100%,35%)" stroke-width="0.03228"></path>
<path d="M1.549 0.820 Q1.429 0.864 1.487 0.931" stroke="hsl(120.0,100%,35%)" stroke-width="0.07263"></path>
<path d="M1.549 0.820 Q1.352 0.773 1.216 0.858" stroke="hsl(120.0,100%,35%)" stroke-width="0.00115"></path>
<path d="M1.549 0.820 Q1.484 0.735 1.303 0.747" stroke="hsl(120.0,100%,35%)" stroke-width="0.06917"></path>
<path d="M1.549 0.820 Q1.542 0.909 1.714 0.932" stroke="hsl(120.0,100%,35%)" stroke-width="0.00231"></path>
<path d="M1.549 0.820 Q1.633 0.873 1.754 0.843" stroke="hsl(120.0,100%,35%)" stroke-width="0.00115"></path>
<path d="M1.549 0.820 Q1.588 0.852 1.658 0.839" stroke="hsl(120.0,100%,35%)" stroke-width="0.00692"></path>
<path d="M1.549 0.820 Q1.287 0.306 0.226 0.320" stroke="hsl(120.0,100%,35%)" stroke-width="0.00461"></path>
<path d="M1.549 0.820 Q1.307 0.820 1.254 0.938" stroke="hsl(120.0,100%,35%)" stroke-width="0.00231"></path>
<path d="M1.549 0.820 Q1.661 0.720 1.490 0.644" stroke="hsl(120.0,100%,35%)" stroke-width="0.00115"></path>
<path d="M1.549 0.820 Q1.513 0.627 1.129 0.602" stroke="hsl(120.0,100%,35%)" stroke-width="0.00115"></path>
<path d="M1.549 0.820 Q1.802 0.645 1.515 0.482" stroke="hsl(120.0,100%,35%)" stroke-width="0.00115"></path>
<path d="M1.549 0.820 Q1.262 0.809 1.177 0.947" stroke="hsl(120.0,100%,35%)" stroke-width="0.00461"></path>
<path d="M1.549 0.820 Q2.141 0.575 1.793 0.232" stroke="hsl(120.0,100%,35%)" stroke-width="0.00231"></path>
<path d="M1.549 0.820 Q1.276 0.714 1.007 0.823" stroke="hsl(120.0,100%,35%)" stroke-width="0.00115"></path>
<path d="M1.549 0.820 Q1.610 0.861 1.702 0.839" stroke="hsl(120.0,100%,35%)" stroke-width="0.00231"></path>
<path d="M1.549 0.820 Q2.169 0.456 1.595 0.074" stroke="hsl(120.0,100%,35%)" stroke-width="0.00115"></path>
<path d="M1.549 0.820 Q1.644 0.887 1.795 0.855" stroke="hsl(120.0,100%,35%)" stroke-width="0.00115"></path>
<path d="M1.549 0.820 Q2.129 0.549 1.726 0.206" stroke="hsl(120.0,100%,35%)" stroke-width="0.00115"></path>
<path d="M1.549 0.820 Q2.120 0.497 1.614 0.147" stroke="hsl(120.0,100%,35%)" stroke-width="0.00115"></path>
<path d="M1.549 0.820 Q1.649 0.759 1.552 0.696" stroke="hsl(120.0,100%,35%)" stroke-width="0.00461"></path>
<path d="M1.549 0.820 Q1.684 0.653 1.387 0.550" stroke="hsl(120.0,100%,35%)" stroke-width="0.00115"></path>
<path d="M1.549 0.820 Q1.381 0.352 0.429 0.331" stroke="hsl(120.0,100%,35%)" stroke-width="0.00115"></path>
<path d="M1.549 0.820 Q1.745 0.795 1.737 0.693" stroke="hsl(120.0,100%,35%)" stroke-width="0.00115"></path>
<path d="M1.549 0.820 Q1.603 0.715 1.409 0.665" stroke="hsl(120.0,100%,35%)" stroke-width="0.00115"></path>
<path d="M1.549 0.820 Q2.011 0.511 1.509 0.218" stroke="hsl(120.0,100%,35%)" stroke-width="0.00115"></path>
<path d="M1.549 0.820 Q1.398 0.913 1.545 1.006" stroke="hsl(120.0,100%,35%)" stroke-width="0.00115"></path>
<path d="M1.718 0.971 Q1.634 0.905 1.487 0.931" stroke="hsl(120.0,100%,35%)" stroke-width="0.02421"></path>
<path d="M1.718 0.971 Q1.689 0.776 1.303 0.747" stroke="hsl(120.0,100%,35%)" stroke-width="0.00807"></path>
<path d="M1.718 0.971 Q1.754 0.862 1.549 0.820" stroke="hsl(120.0,100%,35%)" stroke-width="0.02652"></path>
<path d="M1.718 0.971 Q1.557 0.814 1.216 0.858" stroke="hsl(120.0,100%,35%)" stroke-width="0.00692"></path>
<path d="M1.718 0.971 Q1.793 0.893 1.658 0.839" stroke="hsl(120.0,100%,35%)" stroke-width="0.00231"></path>
<path d="M1.718 0.971 Q1.492 0.347 0.226 0.320" stroke="hsl(120.0,100%,35%)" stroke-width="0.00115"></path>
<path d="M1.718 0.971 Q2.468 0.555 1.820 0.098" stroke="hsl(120.0,100%,35%)" stroke-width="0.00115"></path>
<path d="M1.011 0.246 Q0.701 0.684 1.487 0.931" stroke="hsl(120.0,100%,35%)" stroke-width="0.00346"></path>
<path d="M1.011 0.246 Q0.756 0.555 1.303 0.747" stroke="hsl(120.0,100%,35%)" stroke-width="0.00461"></path>
<path d="M1.011 0.246 Q0.860 0.672 1.658 0.839" stroke="hsl(120.0,100%,35%)" stroke-width="0.00115"></path>
<path d="M1.011 0.246 Q0.820 0.641 1.549 0.820" stroke="hsl(120.0,100%,35%)" stroke-width="0.00115"></path>
<path d="M1.011 0.246 Q0.937 0.231 0.891 0.264" stroke="hsl(120.0,100%,35%)" stroke-width="0.00346"></path>
<path d="M0.226 0.320 Q0.160 0.445 0.389 0.504" stroke="hsl(240.0,100%,35%)" stroke-width="0.09684"></path>
<path d="M0.226 0.320 Q0.367 0.878 1.487 0.931" stroke="hsl(240.0,100%,35%)" stroke-width="0.02997"></path>
<path d="M0.226 0.320 Q0.423 0.749 1.303 0.747" stroke="hsl(240.0,100%,35%)" stroke-width="0.05303"></path>
<path d="M0.226 0.320 Q0.527 0.866 1.658 0.839" stroke="hsl(240.0,100%,35%)" stroke-width="0.00231"></path>
<path d="M0.226 0.320 Q0.487 0.835 1.549 0.820" stroke="hsl(240.0,100%,35%)" stroke-width="0.00346"></path>
<path d="M0.226 0.320 Q0.277 0.409 0.463 0.404" stroke="hsl(240.0,100%,35%)" stroke-width="0.00115"></path>
<path d="M0.226 0.320 Q0.300 0.400 0.472 0.381" stroke="hsl(240.0,100%,35%)" stroke-width="0.00115"></path>
<path d="M0.226 0.320 Q0.458 0.318 0.506 0.205" stroke="hsl(240.0,100%,35%)" stroke-width="0.00231"></path>
<path d="M0.226 0.320 Q0.155 0.811 1.097 0.953" stroke="hsl(240.0,100%,35%)" stroke-width="0.00115"></path>
<path d="M0.226 0.320 Q0.416 0.393 0.601 0.316" stroke="hsl(240.0,100%,35%)" stroke-width="0.00576"></path>
<path d="M0.226 0.320 Q0.319 0.366 0.429 0.331" stroke="hsl(240.0,100%,35%)" stroke-width="0.00115"></path>
<path d="M0.226 0.320 Q0.421 0.934 1.662 0.974" stroke="hsl(240.0,100%,35%)" stroke-width="0.00115"></path>
<path d="M0.226 0.320 Q0.288 0.398 0.454 0.384" stroke="hsl(240.0,100%,35%)" stroke-width="0.00115"></path>
<path d="M0.226 0.320 Q0.496 0.310 0.536 0.175" stroke="hsl(240.0,100%,35%)" stroke-width="0.00115"></path>
<path d="M1.634 1.001 Q1.616 0.937 1.487 0.931" stroke="hsl(120.0,100%,35%)" stroke-width="0.00461"></path>
<path d="M1.634 1.001 Q1.672 0.808 1.303 0.747" stroke="hsl(120.0,100%,35%)" stroke-width="0.00231"></path>
<path d="M1.634 1.001 Q1.736 0.894 1.549 0.820" stroke="hsl(120.0,100%,35%)" stroke-width="0.00231"></path>
<path d="M1.216 0.858 Q1.293 0.949 1.487 0.931" stroke="hsl(120.0,100%,35%)" stroke-width="0.01614"></path>
<path d="M1.216 0.858 Q1.377 1.015 1.718 0.971" stroke="hsl(120.0,100%,35%)" stroke-width="0.00115"></path>
<path d="M1.216 0.858 Q1.171 0.906 1.254 0.938" stroke="hsl(120.0,100%,35%)" stroke-width="0.00115"></path>
<path d="M1.216 0.858 Q1.413 0.906 1.549 0.820" stroke="hsl(120.0,100%,35%)" stroke-width="0.00461"></path>
<path d="M1.216 0.858 Q1.151 0.391 0.226 0.320" stroke="hsl(120.0,100%,35%)" stroke-width="0.00115"></path>
<path d="M1.216 0.858 Q1.348 0.820 1.303 0.747" stroke="hsl(120.0,100%,35%)" stroke-width="0.01268"></path>
<path d="M1.216 0.858 Q1.086 0.516 0.389 0.504" stroke="hsl(120.0,100%,35%)" stroke-width="0.00231"></path>
<path d="M1.216 0.858 Q1.452 0.937 1.658 0.839" stroke="hsl(120.0,100%,35%)" stroke-width="0.00231"></path>
<path d="M1.254 0.938 Q1.376 0.981 1.487 0.931" stroke="hsl(120.0,100%,35%)" stroke-width="0.00922"></path>
<path d="M1.254 0.938 Q1.495 0.938 1.549 0.820" stroke="hsl(120.0,100%,35%)" stroke-width="0.00461"></path>
<path d="M1.254 0.938 Q1.234 0.423 0.226 0.320" stroke="hsl(120.0,100%,35%)" stroke-width="0.00231"></path>
<path d="M1.254 0.938 Q1.431 0.853 1.303 0.747" stroke="hsl(120.0,100%,35%)" stroke-width="0.00231"></path>
<path d="M1.254 0.938 Q1.415 1.045 1.658 0.989" stroke="hsl(120.0,100%,35%)" stroke-width="0.00115"></path>
<path d="M1.254 0.938 Q1.427 0.909 1.410 0.819" stroke="hsl(120.0,100%,35%)" stroke-width="0.00115"></path>
<path d="M1.254 0.938 Q1.209 0.927 1.177 0.947" stroke="hsl(120.0,100%,35%)" stroke-width="0.00115"></path>
<path d="M1.254 0.938 Q1.328 0.469 0.429 0.331" stroke="hsl(120.0,100%,35%)" stroke-width="0.00115"></path>
<path d="M1.254 0.938 Q1.299 0.891 1.216 0.858" stroke="hsl(120.0,100%,35%)" stroke-width="0.00115"></path>
<path d="M0.928 0.359 Q0.874 0.337 0.818 0.359" stroke="hsl(0.0,100%,35%)" stroke-width="0.00115"></path>
<path d="M0.928 0.359 Q1.163 0.447 1.387 0.352" stroke="hsl(0.0,100%,35%)" stroke-width="0.00115"></path>
<path d="M0.928 0.359 Q0.970 0.652 1.552 0.696" stroke="hsl(0.0,100%,35%)" stroke-width="0.00346"></path>
<path d="M0.928 0.359 Q1.123 0.387 1.220 0.299" stroke="hsl(0.0,100%,35%)" stroke-width="0.00231"></path>
<path d="M0.928 0.359 Q1.332 0.405 1.509 0.218" stroke="hsl(0.0,100%,35%)" stroke-width="0.00115"></path>
<path d="M1.129 0.602 Q1.198 0.615 1.238 0.584" stroke="hsl(120.0,100%,35%)" stroke-width="0.00115"></path>
<path d="M1.129 0.602 Q1.164 0.795 1.549 0.820" stroke="hsl(120.0,100%,35%)" stroke-width="0.00115"></path>
<path d="M1.129 0.602 Q1.020 0.595 0.982 0.646" stroke="hsl(120.0,100%,35%)" stroke-width="0.00115"></path>
<path d="M1.552 0.696 Q1.331 0.801 1.487 0.931" stroke="hsl(0.0,100%,35%)" stroke-width="0.00231"></path>
<path d="M1.552 0.696 Q1.387 0.672 1.303 0.747" stroke="hsl(0.0,100%,35%)" stroke-width="0.00231"></path>
<path d="M1.552 0.696 Q1.451 0.758 1.549 0.820" stroke="hsl(0.0,100%,35%)" stroke-width="0.00115"></path>
<path d="M1.552 0.696 Q1.619 0.183 0.632 0.038" stroke="hsl(0.0,100%,35%)" stroke-width="0.00115"></path>
<path d="M1.552 0.696 Q1.509 0.403 0.928 0.359" stroke="hsl(0.0,100%,35%)" stroke-width="0.00115"></path>
<path d="M1.163 0.407 Q0.911 0.442 0.923 0.572" stroke="hsl(0.0,100%,35%)" stroke-width="0.00115"></path>
<path d="M1.163 0.407 Q1.177 0.472 1.305 0.479" stroke="hsl(0.0,100%,35%)" stroke-width="0.00115"></path>
<path d="M1.163 0.407 Q1.152 0.474 1.280 0.494" stroke="hsl(0.0,100%,35%)" stroke-width="0.00115"></path>
<path d="M1.163 0.407 Q1.328 0.529 1.603 0.475" stroke="hsl(0.0,100%,35%)" stroke-width="0.00115"></path>
<path d="M1.163 0.407 Q0.961 0.606 1.303 0.747" stroke="hsl(0.0,100%,35%)" stroke-width="0.00115"></path>
<path d="M1.163 0.407 Q1.055 0.404 1.024 0.456" stroke="hsl(0.0,100%,35%)" stroke-width="0.00115"></path>
<path d="M1.163 0.407 Q1.102 0.460 1.190 0.501" stroke="hsl(0.0,100%,35%)" stroke-width="0.00115"></path>
<path d="M1.163 0.407 Q1.240 0.416 1.273 0.380" stroke="hsl(0.0,100%,35%)" stroke-width="0.00115"></path>
<path d="M1.163 0.407 Q1.097 0.363 0.996 0.386" stroke="hsl(0.0,100%,35%)" stroke-width="0.00115"></path>
<path d="M1.163 0.407 Q1.218 0.503 1.417 0.497" stroke="hsl(0.0,100%,35%)" stroke-width="0.00115"></path>
<path d="M1.163 0.407 Q1.049 0.430 1.068 0.491" stroke="hsl(0.0,100%,35%)" stroke-width="0.00115"></path>
<path d="M1.163 0.407 Q1.618 0.446 1.793 0.232" stroke="hsl(0.0,100%,35%)" stroke-width="0.00115"></path>
<path d="M1.878 0.732 Q1.682 0.741 1.658 0.839" stroke="hsl(0.0,100%,35%)" stroke-width="0.00115"></path>
<path d="M1.878 0.732 Q1.642 0.710 1.549 0.820" stroke="hsl(0.0,100%,35%)" stroke-width="0.00115"></path>
<path d="M1.878 0.732 Q2.235 0.465 1.793 0.232" stroke="hsl(0.0,100%,35%)" stroke-width="0.00115"></path>
<path d="M0.286 0.521 Q0.417 0.409 0.226 0.320" stroke="hsl(240.0,100%,35%)" stroke-width="0.00231"></path>
<path d="M0.286 0.521 Q0.614 0.838 1.303 0.747" stroke="hsl(240.0,100%,35%)" stroke-width="0.00115"></path>
<path d="M0.286 0.521 Q0.351 0.533 0.389 0.504" stroke="hsl(240.0,100%,35%)" stroke-width="0.00231"></path>
<path d="M1.761 0.847 Q1.557 0.834 1.487 0.931" stroke="hsl(0.0,100%,35%)" stroke-width="0.00115"></path>
<path d="M1.761 0.847 Q1.970 0.525 1.387 0.352" stroke="hsl(0.0,100%,35%)" stroke-width="0.00115"></path>
<path d="M1.761 0.847 Q1.716 0.823 1.658 0.839" stroke="hsl(0.0,100%,35%)" stroke-width="0.00115"></path>
<path d="M0.228 0.075 Q0.157 0.072 0.134 0.105" stroke="hsl(120.0,100%,35%)" stroke-width="0.00115"></path>
<path d="M0.228 0.075 Q0.228 0.626 1.303 0.747" stroke="hsl(120.0,100%,35%)" stroke-width="0.00115"></path>
<path d="M0.228 0.075 Q0.307 0.113 0.399 0.083" stroke="hsl(120.0,100%,35%)" stroke-width="0.00115"></path>
<path d="M0.839 0.510 Q0.945 0.807 1.549 0.820" stroke="hsl(0.0,100%,35%)" stroke-width="0.00346"></path>
<path d="M0.839 0.510 Q0.811 0.462 0.712 0.466" stroke="hsl(0.0,100%,35%)" stroke-width="0.00231"></path>
<path d="M0.839 0.510 Q0.729 0.494 0.675 0.545" stroke="hsl(0.0,100%,35%)" stroke-width="0.00231"></path>
<path d="M1.234 0.834 Q1.338 0.805 1.303 0.747" stroke="hsl(120.0,100%,35%)" stroke-width="0.00461"></path>
<path d="M1.234 0.834 Q1.402 0.890 1.549 0.820" stroke="hsl(120.0,100%,35%)" stroke-width="0.00576"></path>
<path d="M1.234 0.834 Q1.240 0.708 0.996 0.677" stroke="hsl(120.0,100%,35%)" stroke-width="0.00231"></path>
<path d="M1.234 0.834 Q1.116 0.879 1.177 0.947" stroke="hsl(120.0,100%,35%)" stroke-width="0.00231"></path>
<path d="M1.234 0.834 Q1.250 0.681 0.955 0.640" stroke="hsl(120.0,100%,35%)" stroke-width="0.00115"></path>
<path d="M1.595 0.074 Q1.228 0.111 1.220 0.299" stroke="hsl(0.0,100%,35%)" stroke-width="0.00115"></path>
<path d="M1.595 0.074 Q1.688 0.131 1.820 0.098" stroke="hsl(0.0,100%,35%)" stroke-width="0.00115"></path>
<path d="M1.595 0.074 Q1.409 -0.028 1.170 0.040" stroke="hsl(0.0,100%,35%)" stroke-width="0.00231"></path>
<path d="M1.595 0.074 Q0.713 -0.077 0.226 0.320" stroke="hsl(0.0,100%,35%)" stroke-width="0.00115"></path>
<path d="M1.595 0.074 Q1.546 0.114 1.614 0.147" stroke="hsl(0.0,100%,35%)" stroke-width="0.00115"></path>
<path d="M1.595 0.074 Q1.670 0.116 1.768 0.088" stroke="hsl(0.0,100%,35%)" stroke-width="0.00115"></path>
<path d="M1.595 0.074 Q0.910 0.352 1.303 0.747" stroke="hsl(0.0,100%,35%)" stroke-width="0.00115"></path>
<path d="M1.595 0.074 Q1.437 0.128 1.509 0.218" stroke="hsl(0.0,100%,35%)" stroke-width="0.00115"></path>
<path d="M1.595 0.074 Q1.631 0.140 1.768 0.136" stroke="hsl(0.0,100%,35%)" stroke-width="0.00115"></path>
<path d="M1.595 0.074 Q1.571 0.153 1.720 0.181" stroke="hsl(0.0,100%,35%)" stroke-width="0.00115"></path>
<path d="M1.595 0.074 Q1.567 0.193 1.793 0.232" stroke="hsl(0.0,100%,35%)" stroke-width="0.00231"></path>
<path d="M1.595 0.074 Q1.503 0.117 1.568 0.172" stroke="hsl(0.0,100%,35%)" stroke-width="0.00346"></path>
<path d="M1.595 0.074 Q1.142 -0.137 0.632 0.038" stroke="hsl(0.0,100%,35%)" stroke-width="0.00115"></path>
<path d="M1.595 0.074 Q1.432 0.185 1.613 0.289" stroke="hsl(0.0,100%,35%)" stroke-width="0.00115"></path>
<path d="M1.170 0.040 Q0.667 0.477 1.410 0.819" stroke="hsl(0.0,100%,35%)" stroke-width="0.00115"></path>
<path d="M1.170 0.040 Q1.198 0.197 1.509 0.218" stroke="hsl(0.0,100%,35%)" stroke-width="0.00115"></path>
<path d="M1.170 0.040 Q1.264 0.186 1.568 0.172" stroke="hsl(0.0,100%,35%)" stroke-width="0.00231"></path>
<path d="M1.170 0.040 Q0.669 0.606 1.662 0.974" stroke="hsl(0.0,100%,35%)" stroke-width="0.00115"></path>
<path d="M1.170 0.040 Q0.671 0.421 1.303 0.747" stroke="hsl(0.0,100%,35%)" stroke-width="0.00115"></path>
<path d="M1.170 0.040 Q1.275 0.079 1.373 0.037" stroke="hsl(0.0,100%,35%)" stroke-width="0.00115"></path>
<path d="M1.170 0.040 Q0.403 0.482 1.097 0.953" stroke="hsl(0.0,100%,35%)" stroke-width="0.00115"></path>
<path d="M1.170 0.040 Q1.029 0.240 1.387 0.352" stroke="hsl(0.0,100%,35%)" stroke-width="0.00231"></path>
<path d="M1.170 0.040 Q0.567 0.037 0.429 0.331" stroke="hsl(0.0,100%,35%)" stroke-width="0.00115"></path>
<path d="M1.170 0.040 Q1.048 -0.011 0.920 0.037" stroke="hsl(0.0,100%,35%)" stroke-width="0.00115"></path>
<path d="M1.170 0.040 Q1.093 0.072 1.138 0.117" stroke="hsl(0.0,100%,35%)" stroke-width="0.00115"></path>
<path d="M1.170 0.040 Q1.211 0.123 1.380 0.121" stroke="hsl(0.0,100%,35%)" stroke-width="0.00115"></path>
<path d="M1.170 0.040 Q0.519 0.194 0.675 0.545" stroke="hsl(0.0,100%,35%)" stroke-width="0.00115"></path>
<path d="M1.170 0.040 Q1.008 -0.024 0.847 0.041" stroke="hsl(0.0,100%,35%)" stroke-width="0.00115"></path>
<path d="M1.170 0.040 Q1.042 0.068 1.067 0.136" stroke="hsl(0.0,100%,35%)" stroke-width="0.00115"></path>
<path d="M1.170 0.040 Q1.212 0.102 1.341 0.095" stroke="hsl(0.0,100%,35%)" stroke-width="0.00115"></path>
<path d="M0.644 0.764 Q0.932 1.016 1.487 0.931" stroke="hsl(120.0,100%,35%)" stroke-width="0.00461"></path>
<path d="M0.644 0.764 Q0.787 0.721 0.735 0.642" stroke="hsl(120.0,100%,35%)" stroke-width="0.00115"></path>
<path d="M0.644 0.764 Q1.051 0.973 1.549 0.820" stroke="hsl(120.0,100%,35%)" stroke-width="0.00461"></path>
<path d="M0.644 0.764 Q0.790 0.458 0.226 0.320" stroke="hsl(120.0,100%,35%)" stroke-width="0.00115"></path>
<path d="M0.644 0.764 Q0.817 1.010 1.333 0.979" stroke="hsl(120.0,100%,35%)" stroke-width="0.00115"></path>
<path d="M0.644 0.764 Q0.987 0.888 1.303 0.747" stroke="hsl(120.0,100%,35%)" stroke-width="0.00231"></path>
<path d="M0.644 0.764 Q0.983 0.945 1.410 0.819" stroke="hsl(120.0,100%,35%)" stroke-width="0.00115"></path>
<path d="M0.644 0.764 Q0.725 0.583 0.389 0.504" stroke="hsl(120.0,100%,35%)" stroke-width="0.00115"></path>
<path d="M0.644 0.764 Q0.855 0.926 1.216 0.858" stroke="hsl(120.0,100%,35%)" stroke-width="0.00115"></path>
<path d="M0.850 0.958 Q1.349 1.060 1.658 0.839" stroke="hsl(120.0,100%,35%)" stroke-width="0.00115"></path>
<path d="M0.850 0.958 Q0.772 0.900 0.642 0.925" stroke="hsl(120.0,100%,35%)" stroke-width="0.00115"></path>
<path d="M0.850 0.958 Q0.990 1.039 1.179 0.988" stroke="hsl(120.0,100%,35%)" stroke-width="0.00115"></path>
<path d="M0.271 0.382 Q0.440 0.900 1.487 0.931" stroke="hsl(120.0,100%,35%)" stroke-width="0.00231"></path>
<path d="M0.271 0.382 Q0.298 0.342 0.226 0.320" stroke="hsl(120.0,100%,35%)" stroke-width="0.00346"></path>
<path d="M0.271 0.382 Q0.495 0.771 1.303 0.747" stroke="hsl(120.0,100%,35%)" stroke-width="0.00115"></path>
<path d="M0.271 0.382 Q0.233 0.467 0.389 0.504" stroke="hsl(120.0,100%,35%)" stroke-width="0.00115"></path>
</g>
<text x="0.766" y="0.092" font-size="0.008085" fill="hsl(0.0,100%,20%)">abarth</text>
<text x="0.712" y="0.462" font-size="0.008085" fill="hsl(0.0,100%,20%)">ddorwin</text>
<text x="0.632" y="0.034" font-size="0.008085" fill="hsl(0.0,100%,20%)">tsepez</text>
<text x="1.509" y="0.211" font-size="0.012349" fill="hsl(0.0,100%,20%)">wez</text>
<text x="1.372" y="0.223" font-size="0.013202" fill="hsl(0.0,100%,20%)">andre.kempe</text>
<text x="1.409" y="0.660" font-size="0.010437" fill="hsl(0.0,100%,20%)">agrieve</text>
<text x="1.259" y="0.211" font-size="0.004668" fill="hsl(0.0,100%,20%)">mfoltz</text>
<text x="1.793" y="0.226" font-size="0.012349" fill="hsl(0.0,100%,20%)">thakis</text>
<text x="1.303" y="0.713" font-size="0.067961" fill="hsl(120.0,100%,20%)">haraken</text>
<text x="1.487" y="0.885" font-size="0.093001" fill="hsl(120.0,100%,20%)">bartekn</text>
<text x="0.389" y="0.480" font-size="0.048731" fill="hsl(240.0,100%,20%)">mlippautz</text>
<text x="1.220" y="0.292" font-size="0.014003" fill="hsl(0.0,100%,20%)">avi</text>
<text x="1.387" y="0.345" font-size="0.014003" fill="hsl(0.0,100%,20%)">danakj</text>
<text x="1.658" y="0.828" font-size="0.022866" fill="hsl(120.0,100%,20%)">dcheng</text>
<text x="1.549" y="0.779" font-size="0.082446" fill="hsl(120.0,100%,20%)">lizeb</text>
<text x="1.757" y="0.648" font-size="0.004668" fill="hsl(120.0,100%,20%)">ajuma</text>
<text x="1.718" y="0.948" font-size="0.045733" fill="hsl(120.0,100%,20%)">yukishiino</text>
<text x="1.011" y="0.238" font-size="0.016829" fill="hsl(120.0,100%,20%)">richard.townsend</text>
<text x="0.226" y="0.286" font-size="0.068758" fill="hsl(240.0,100%,20%)">bikineev</text>
<text x="1.410" y="0.812" font-size="0.012349" fill="hsl(120.0,100%,20%)">mpdenton</text>
<text x="1.177" y="0.940" font-size="0.013202" fill="hsl(120.0,100%,20%)">ssid</text>
<text x="1.634" y="0.993" font-size="0.016829" fill="hsl(120.0,100%,20%)">glazunov</text>
<text x="1.097" y="0.949" font-size="0.009335" fill="hsl(0.0,100%,20%)">lukasza</text>
<text x="1.216" y="0.839" font-size="0.038490" fill="hsl(120.0,100%,20%)">tasak</text>
<text x="1.254" y="0.924" font-size="0.028773" fill="hsl(120.0,100%,20%)">keishi</text>
<text x="1.662" y="0.969" font-size="0.009335" fill="hsl(0.0,100%,20%)">gab</text>
<text x="1.654" y="0.980" font-size="0.006601" fill="hsl(120.0,100%,20%)">bgeffon</text>
<text x="0.928" y="0.352" font-size="0.014760" fill="hsl(0.0,100%,20%)">brucedawson</text>
<text x="1.129" y="0.597" font-size="0.010437" fill="hsl(120.0,100%,20%)">ellyjones</text>
<text x="1.205" y="1.030" font-size="0.004668" fill="hsl(120.0,100%,20%)">gbeaty</text>
<text x="0.601" y="0.311" font-size="0.011433" fill="hsl(240.0,100%,20%)">wfh</text>
<text x="1.333" y="0.975" font-size="0.008085" fill="hsl(120.0,100%,20%)">erikchen</text>
<text x="1.656" y="0.974" font-size="0.006601" fill="hsl(120.0,100%,20%)">agl</text>
<text x="1.301" y="0.847" font-size="0.004668" fill="hsl(120.0,100%,20%)">yukiy</text>
<text x="1.373" y="0.033" font-size="0.006601" fill="hsl(0.0,100%,20%)">kinuko</text>
<text x="1.603" y="0.963" font-size="0.006601" fill="hsl(120.0,100%,20%)">tikuta</text>
<text x="1.179" y="0.984" font-size="0.008085" fill="hsl(120.0,100%,20%)">mark</text>
<text x="1.346" y="0.961" font-size="0.008085" fill="hsl(120.0,100%,20%)">sebmarchand</text>
<text x="1.235" y="0.979" font-size="0.004668" fill="hsl(120.0,100%,20%)">sweilun</text>
<text x="1.658" y="0.985" font-size="0.008085" fill="hsl(120.0,100%,20%)">isherman</text>
<text x="1.373" y="0.338" font-size="0.004668" fill="hsl(120.0,100%,20%)">jbroman</text>
<text x="1.782" y="0.658" font-size="0.004668" fill="hsl(120.0,100%,20%)">asvitkine</text>
<text x="1.407" y="0.965" font-size="0.004668" fill="hsl(120.0,100%,20%)">grt</text>
<text x="1.728" y="1.049" font-size="0.004668" fill="hsl(120.0,100%,20%)">robertshield</text>
<text x="1.666" y="1.135" font-size="0.004668" fill="hsl(120.0,100%,20%)">ydago</text>
<text x="1.552" y="0.687" font-size="0.018078" fill="hsl(0.0,100%,20%)">palmer</text>
<text x="1.868" y="0.961" font-size="0.006601" fill="hsl(120.0,100%,20%)">yutak</text>
<text x="1.656" y="0.490" font-size="0.004668" fill="hsl(120.0,100%,20%)">primiano</text>
<text x="0.463" y="0.401" font-size="0.004668" fill="hsl(240.0,100%,20%)">oysteine</text>
<text x="0.472" y="0.379" font-size="0.004668" fill="hsl(240.0,100%,20%)">altimin</text>
<text x="0.506" y="0.201" font-size="0.006601" fill="hsl(240.0,100%,20%)">creis</text>
<text x="0.429" y="0.326" font-size="0.009335" fill="hsl(0.0,100%,20%)">fdoray</text>
<text x="0.454" y="0.382" font-size="0.004668" fill="hsl(240.0,100%,20%)">holte</text>
<text x="0.536" y="0.172" font-size="0.006601" fill="hsl(240.0,100%,20%)">ulan</text>
<text x="0.818" y="0.356" font-size="0.004668" fill="hsl(0.0,100%,20%)">cassew</text>
<text x="1.163" y="0.399" font-size="0.016169" fill="hsl(0.0,100%,20%)">dsanders11</text>
<text x="0.923" y="0.570" font-size="0.004668" fill="hsl(0.0,100%,20%)">acourbot</text>
<text x="1.305" y="0.477" font-size="0.004668" fill="hsl(0.0,100%,20%)">aleventhal</text>
<text x="1.280" y="0.492" font-size="0.004668" fill="hsl(0.0,100%,20%)">austinct</text>
<text x="1.603" y="0.472" font-size="0.006601" fill="hsl(0.0,100%,20%)">eseckler</text>
<text x="1.024" y="0.453" font-size="0.004668" fill="hsl(0.0,100%,20%)">jamiewalch</text>
<text x="1.190" y="0.498" font-size="0.004668" fill="hsl(0.0,100%,20%)">michaeldo</text>
<text x="1.273" y="0.377" font-size="0.004668" fill="hsl(0.0,100%,20%)">mmoskvitin</text>
<text x="0.996" y="0.384" font-size="0.004668" fill="hsl(0.0,100%,20%)">olivierrobin</text>
<text x="1.417" y="0.494" font-size="0.004668" fill="hsl(0.0,100%,20%)">tbansal</text>
<text x="1.068" y="0.489" font-size="0.004668" fill="hsl(0.0,100%,20%)">tguilbert</text>
<text x="1.238" y="0.582" font-size="0.004668" fill="hsl(120.0,100%,20%)">elainechien</text>
<text x="0.982" y="0.644" font-size="0.004668" fill="hsl(120.0,100%,20%)">tkent</text>
<text x="1.878" y="0.728" font-size="0.008085" fill="hsl(0.0,100%,20%)">gabor.kertesz</text>
<text x="0.286" y="0.515" font-size="0.012349" fill="hsl(240.0,100%,20%)">hpayer</text>
<text x="1.761" y="0.843" font-size="0.008085" fill="hsl(0.0,100%,20%)">jannh</text>
<text x="0.228" y="0.071" font-size="0.008085" fill="hsl(120.0,100%,20%)">kbr</text>
<text x="0.134" y="0.103" font-size="0.004668" fill="hsl(120.0,100%,20%)">ccameron</text>
<text x="0.399" y="0.081" font-size="0.004668" fill="hsl(120.0,100%,20%)">martiniss</text>
<text x="0.839" y="0.504" font-size="0.012349" fill="hsl(0.0,100%,20%)">kmarshall</text>
<text x="0.675" y="0.541" font-size="0.008085" fill="hsl(0.0,100%,20%)">kylechar</text>
<text x="1.234" y="0.824" font-size="0.019245" fill="hsl(120.0,100%,20%)">thiabaud</text>
<text x="1.252" y="0.853" font-size="0.009335" fill="hsl(120.0,100%,20%)">pasko</text>
<text x="1.714" y="0.929" font-size="0.006601" fill="hsl(120.0,100%,20%)">alexilin</text>
<text x="1.754" y="0.841" font-size="0.004668" fill="hsl(120.0,100%,20%)">msramek</text>
<text x="1.490" y="0.642" font-size="0.004668" fill="hsl(120.0,100%,20%)">mamir</text>
<text x="1.515" y="0.480" font-size="0.004668" fill="hsl(120.0,100%,20%)">amraboelkher</text>
<text x="1.007" y="0.821" font-size="0.004668" fill="hsl(120.0,100%,20%)">skyostil</text>
<text x="1.702" y="0.836" font-size="0.006601" fill="hsl(120.0,100%,20%)">arthursonzogni</text>
<text x="1.595" y="0.064" font-size="0.020346" fill="hsl(0.0,100%,20%)">thestig</text>
<text x="1.795" y="0.853" font-size="0.004668" fill="hsl(120.0,100%,20%)">asully</text>
<text x="1.726" y="0.204" font-size="0.004668" fill="hsl(120.0,100%,20%)">etiennep</text>
<text x="1.614" y="0.143" font-size="0.006601" fill="hsl(0.0,100%,20%)">rsesek</text>
<text x="1.387" y="0.548" font-size="0.004668" fill="hsl(120.0,100%,20%)">caitlinfischer</text>
<text x="1.737" y="0.691" font-size="0.004668" fill="hsl(120.0,100%,20%)">sinansahin</text>
<text x="1.545" y="1.004" font-size="0.004668" fill="hsl(120.0,100%,20%)">hendrich</text>
<text x="1.170" y="0.030" font-size="0.020874" fill="hsl(0.0,100%,20%)">pkasting</text>
<text x="1.568" y="0.167" font-size="0.010437" fill="hsl(0.0,100%,20%)">pbos</text>
<text x="0.920" y="0.034" font-size="0.004668" fill="hsl(0.0,100%,20%)">abigailbklein</text>
<text x="1.138" y="0.115" font-size="0.004668" fill="hsl(0.0,100%,20%)">bajones</text>
<text x="1.380" y="0.119" font-size="0.004668" fill="hsl(0.0,100%,20%)">droger</text>
<text x="0.847" y="0.038" font-size="0.004668" fill="hsl(0.0,100%,20%)">renjietang</text>
<text x="1.067" y="0.134" font-size="0.004668" fill="hsl(0.0,100%,20%)">sadrul</text>
<text x="1.341" y="0.093" font-size="0.004668" fill="hsl(0.0,100%,20%)">sandersd</text>
<text x="0.891" y="0.260" font-size="0.008085" fill="hsl(120.0,100%,20%)">ajwong</text>
<text x="0.644" y="0.755" font-size="0.018670" fill="hsl(120.0,100%,20%)">saelo</text>
<text x="0.735" y="0.640" font-size="0.004668" fill="hsl(120.0,100%,20%)">cbruni</text>
<text x="0.850" y="0.954" font-size="0.008085" fill="hsl(120.0,100%,20%)">ssyed</text>
<text x="0.642" y="0.923" font-size="0.004668" fill="hsl(120.0,100%,20%)">abhijeet</text>
<text x="0.271" y="0.376" font-size="0.012349" fill="hsl(120.0,100%,20%)">stha09</text>
<text x="1.820" y="0.094" font-size="0.006601" fill="hsl(0.0,100%,20%)">dpranke</text>
<text x="1.768" y="0.086" font-size="0.004668" fill="hsl(0.0,100%,20%)">sunnyps</text>
<text x="1.768" y="0.134" font-size="0.004668" fill="hsl(0.0,100%,20%)">sammc</text>
<text x="1.720" y="0.179" font-size="0.004668" fill="hsl(0.0,100%,20%)">sdefresne</text>
<text x="1.613" y="0.286" font-size="0.004668" fill="hsl(0.0,100%,20%)">ajgo</text>
<text x="0.996" y="0.674" font-size="0.006601" fill="hsl(120.0,100%,20%)">rkaplow</text>
<text x="0.955" y="0.638" font-size="0.004668" fill="hsl(120.0,100%,20%)">chanli</text>
</svg>
