<svg width="4000" height="2000" viewBox="-0.025 -0.025 2.05 1.05" xmlns="http://www.w3.org/2000/svg">
  <style>
    path {
      fill: none;
      stroke-linecap: round;
      stroke-opacity: 0.4;
    }

    text {
      text-anchor: middle;
      alignment-baseline: hanging;
    }
  </style>
  <g opacity="0.4">
<path d="M1.034 0.586 Q0.929 0.693 1.114 0.767" stroke="hsl(0.0,100%,35%)" stroke-width="0.00113"></path>
<path d="M1.034 0.586 Q0.763 0.696 0.918 0.852" stroke="hsl(0.0,100%,35%)" stroke-width="0.00113"></path>
<path d="M1.034 0.586 Q1.142 0.375 0.754 0.276" stroke="hsl(0.0,100%,35%)" stroke-width="0.00113"></path>
<path d="M1.114 0.767 Q0.949 0.770 0.918 0.852" stroke="hsl(0.0,100%,35%)" stroke-width="0.04745"></path>
<path d="M1.114 0.767 Q1.517 0.593 1.264 0.358" stroke="hsl(0.0,100%,35%)" stroke-width="0.01808"></path>
<path d="M1.114 0.767 Q1.220 0.660 1.034 0.586" stroke="hsl(0.0,100%,35%)" stroke-width="0.00226"></path>
<path d="M1.114 0.767 Q0.987 0.853 1.125 0.934" stroke="hsl(0.0,100%,35%)" stroke-width="0.00791"></path>
<path d="M1.114 0.767 Q0.866 0.814 0.903 0.946" stroke="hsl(0.0,100%,35%)" stroke-width="0.00226"></path>
<path d="M1.114 0.767 Q1.409 0.655 1.255 0.487" stroke="hsl(0.0,100%,35%)" stroke-width="0.00904"></path>
<path d="M1.114 0.767 Q1.258 0.664 1.087 0.571" stroke="hsl(0.0,100%,35%)" stroke-width="0.00113"></path>
<path d="M1.114 0.767 Q0.963 0.807 1.008 0.890" stroke="hsl(0.0,100%,35%)" stroke-width="0.00113"></path>
<path d="M1.114 0.767 Q1.327 0.450 0.754 0.276" stroke="hsl(0.0,100%,35%)" stroke-width="0.01808"></path>
<path d="M1.114 0.767 Q1.192 0.676 1.031 0.619" stroke="hsl(0.0,100%,35%)" stroke-width="0.00678"></path>
<path d="M1.114 0.767 Q1.353 0.715 1.304 0.587" stroke="hsl(0.0,100%,35%)" stroke-width="0.00113"></path>
<path d="M1.114 0.767 Q1.115 0.686 0.957 0.668" stroke="hsl(0.0,100%,35%)" stroke-width="0.03616"></path>
<path d="M1.114 0.767 Q1.091 0.756 1.063 0.765" stroke="hsl(0.0,100%,35%)" stroke-width="0.00113"></path>
<path d="M1.114 0.767 Q1.264 0.763 1.289 0.689" stroke="hsl(0.0,100%,35%)" stroke-width="0.00226"></path>
<path d="M1.114 0.767 Q1.095 0.577 0.718 0.545" stroke="hsl(0.0,100%,35%)" stroke-width="0.00113"></path>
<path d="M1.114 0.767 Q1.138 0.934 1.468 0.958" stroke="hsl(0.0,100%,35%)" stroke-width="0.00113"></path>
<path d="M1.114 0.767 Q1.281 0.610 1.010 0.494" stroke="hsl(0.0,100%,35%)" stroke-width="0.00226"></path>
<path d="M1.114 0.767 Q1.530 0.818 1.719 0.626" stroke="hsl(0.0,100%,35%)" stroke-width="0.00113"></path>
<path d="M1.114 0.767 Q1.287 0.617 1.032 0.500" stroke="hsl(0.0,100%,35%)" stroke-width="0.00226"></path>
<path d="M1.114 0.767 Q1.229 0.835 1.387 0.794" stroke="hsl(0.0,100%,35%)" stroke-width="0.01356"></path>
<path d="M1.114 0.767 Q1.128 0.456 0.523 0.380" stroke="hsl(0.0,100%,35%)" stroke-width="0.00113"></path>
<path d="M1.114 0.767 Q1.161 0.623 0.890 0.569" stroke="hsl(0.0,100%,35%)" stroke-width="0.00226"></path>
<path d="M1.114 0.767 Q1.373 0.714 1.324 0.576" stroke="hsl(0.0,100%,35%)" stroke-width="0.00226"></path>
<path d="M1.114 0.767 Q0.892 0.539 0.398 0.598" stroke="hsl(0.0,100%,35%)" stroke-width="0.00113"></path>
<path d="M1.114 0.767 Q1.558 0.882 1.878 0.690" stroke="hsl(0.0,100%,35%)" stroke-width="0.00113"></path>
<path d="M1.114 0.767 Q1.194 0.861 1.394 0.842" stroke="hsl(0.0,100%,35%)" stroke-width="0.00113"></path>
<path d="M1.114 0.767 Q1.447 0.694 1.376 0.515" stroke="hsl(0.0,100%,35%)" stroke-width="0.00113"></path>
<path d="M1.114 0.767 Q1.366 0.899 1.678 0.805" stroke="hsl(0.0,100%,35%)" stroke-width="0.00113"></path>
<path d="M1.114 0.767 Q1.194 0.669 1.019 0.609" stroke="hsl(0.0,100%,35%)" stroke-width="0.00226"></path>
<path d="M1.114 0.767 Q1.331 0.777 1.398 0.674" stroke="hsl(0.0,100%,35%)" stroke-width="0.00226"></path>
<path d="M1.114 0.767 Q1.201 0.798 1.279 0.763" stroke="hsl(0.0,100%,35%)" stroke-width="0.00113"></path>
<path d="M1.114 0.767 Q0.640 0.542 0.097 0.724" stroke="hsl(0.0,100%,35%)" stroke-width="0.00113"></path>
<path d="M1.114 0.767 Q0.638 0.605 0.217 0.802" stroke="hsl(0.0,100%,35%)" stroke-width="0.00113"></path>
<path d="M1.114 0.767 Q1.224 0.668 1.055 0.593" stroke="hsl(0.0,100%,35%)" stroke-width="0.00226"></path>
<path d="M1.114 0.767 Q1.280 0.676 1.139 0.576" stroke="hsl(0.0,100%,35%)" stroke-width="0.00113"></path>
<path d="M1.114 0.767 Q1.353 0.745 1.362 0.624" stroke="hsl(0.0,100%,35%)" stroke-width="0.00113"></path>
<path d="M0.918 0.852 Q1.560 0.773 1.547 0.442" stroke="hsl(0.0,100%,35%)" stroke-width="0.01243"></path>
<path d="M0.918 0.852 Q1.058 0.774 0.937 0.689" stroke="hsl(0.0,100%,35%)" stroke-width="0.00339"></path>
<path d="M0.918 0.852 Q1.084 0.849 1.114 0.767" stroke="hsl(0.0,100%,35%)" stroke-width="0.05649"></path>
<path d="M0.918 0.852 Q1.085 0.767 0.957 0.668" stroke="hsl(0.0,100%,35%)" stroke-width="0.03729"></path>
<path d="M0.918 0.852 Q1.378 0.737 1.255 0.487" stroke="hsl(0.0,100%,35%)" stroke-width="0.03616"></path>
<path d="M0.918 0.852 Q0.578 0.788 0.380 0.941" stroke="hsl(0.0,100%,35%)" stroke-width="0.00113"></path>
<path d="M0.918 0.852 Q0.963 0.878 1.023 0.861" stroke="hsl(0.0,100%,35%)" stroke-width="0.00339"></path>
<path d="M0.918 0.852 Q1.486 0.674 1.264 0.358" stroke="hsl(0.0,100%,35%)" stroke-width="0.00113"></path>
<path d="M0.918 0.852 Q1.009 0.821 0.969 0.770" stroke="hsl(0.0,100%,35%)" stroke-width="0.00113"></path>
<path d="M0.918 0.852 Q1.051 0.719 0.820 0.624" stroke="hsl(0.0,100%,35%)" stroke-width="0.00113"></path>
<path d="M0.918 0.852 Q0.956 0.934 1.125 0.934" stroke="hsl(0.0,100%,35%)" stroke-width="0.00565"></path>
<path d="M0.918 0.852 Q1.297 0.531 0.754 0.276" stroke="hsl(0.0,100%,35%)" stroke-width="0.00339"></path>
<path d="M0.918 0.852 Q1.199 0.917 1.387 0.794" stroke="hsl(0.0,100%,35%)" stroke-width="0.00226"></path>
<path d="M0.918 0.852 Q0.949 0.730 0.719 0.688" stroke="hsl(0.0,100%,35%)" stroke-width="0.00113"></path>
<path d="M0.918 0.852 Q1.527 0.963 1.878 0.690" stroke="hsl(0.0,100%,35%)" stroke-width="0.00113"></path>
<path d="M0.918 0.852 Q0.973 0.871 1.022 0.849" stroke="hsl(0.0,100%,35%)" stroke-width="0.00113"></path>
<path d="M0.918 0.852 Q1.499 0.899 1.719 0.626" stroke="hsl(0.0,100%,35%)" stroke-width="0.00339"></path>
<path d="M0.918 0.852 Q0.868 0.933 1.016 0.976" stroke="hsl(0.0,100%,35%)" stroke-width="0.00113"></path>
<path d="M0.918 0.852 Q1.171 0.668 0.868 0.504" stroke="hsl(0.0,100%,35%)" stroke-width="0.00113"></path>
<path d="M0.918 0.852 Q1.060 0.837 1.063 0.765" stroke="hsl(0.0,100%,35%)" stroke-width="0.00113"></path>
<path d="M0.918 0.852 Q0.876 0.761 0.691 0.762" stroke="hsl(0.0,100%,35%)" stroke-width="0.00113"></path>
<path d="M0.918 0.852 Q0.933 0.889 1.008 0.890" stroke="hsl(0.0,100%,35%)" stroke-width="0.00113"></path>
<path d="M0.918 0.852 Q0.906 0.925 1.046 0.946" stroke="hsl(0.0,100%,35%)" stroke-width="0.00113"></path>
<path d="M0.918 0.852 Q0.927 0.665 0.564 0.619" stroke="hsl(0.0,100%,35%)" stroke-width="0.00113"></path>
<path d="M0.754 0.276 Q0.555 0.282 0.523 0.380" stroke="hsl(0.0,100%,35%)" stroke-width="0.05084"></path>
<path d="M0.754 0.276 Q0.541 0.594 1.114 0.767" stroke="hsl(0.0,100%,35%)" stroke-width="0.02599"></path>
<path d="M0.754 0.276 Q0.542 0.512 0.957 0.668" stroke="hsl(0.0,100%,35%)" stroke-width="0.01921"></path>
<path d="M0.754 0.276 Q0.413 0.679 1.125 0.934" stroke="hsl(0.0,100%,35%)" stroke-width="0.00113"></path>
<path d="M0.754 0.276 Q0.375 0.597 0.918 0.852" stroke="hsl(0.0,100%,35%)" stroke-width="0.00339"></path>
<path d="M0.754 0.276 Q0.913 0.223 0.844 0.133" stroke="hsl(0.0,100%,35%)" stroke-width="0.00113"></path>
<path d="M0.754 0.276 Q0.621 0.251 0.544 0.310" stroke="hsl(0.0,100%,35%)" stroke-width="0.00113"></path>
<path d="M0.754 0.276 Q0.764 0.178 0.576 0.152" stroke="hsl(0.0,100%,35%)" stroke-width="0.00226"></path>
<path d="M0.754 0.276 Q0.714 0.444 1.032 0.500" stroke="hsl(0.0,100%,35%)" stroke-width="0.00113"></path>
<path d="M0.724 0.466 Q0.895 0.705 1.398 0.674" stroke="hsl(120.0,100%,35%)" stroke-width="0.00113"></path>
<path d="M0.724 0.466 Q0.646 0.444 0.585 0.477" stroke="hsl(120.0,100%,35%)" stroke-width="0.00113"></path>
<path d="M0.724 0.466 Q0.462 0.779 1.016 0.976" stroke="hsl(120.0,100%,35%)" stroke-width="0.00113"></path>
<path d="M0.724 0.466 Q0.679 0.613 0.957 0.668" stroke="hsl(120.0,100%,35%)" stroke-width="0.00226"></path>
<path d="M0.724 0.466 Q0.678 0.695 1.114 0.767" stroke="hsl(120.0,100%,35%)" stroke-width="0.00113"></path>
<path d="M0.724 0.466 Q0.692 0.383 0.523 0.380" stroke="hsl(120.0,100%,35%)" stroke-width="0.00113"></path>
<path d="M0.724 0.466 Q0.658 0.504 0.718 0.545" stroke="hsl(120.0,100%,35%)" stroke-width="0.00113"></path>
<path d="M1.016 0.976 Q0.984 0.938 0.903 0.946" stroke="hsl(120.0,100%,35%)" stroke-width="0.00226"></path>
<path d="M1.016 0.976 Q1.565 0.818 1.376 0.515" stroke="hsl(120.0,100%,35%)" stroke-width="0.00113"></path>
<path d="M1.016 0.976 Q1.206 0.817 0.937 0.689" stroke="hsl(120.0,100%,35%)" stroke-width="0.00113"></path>
<path d="M1.063 0.765 Q1.087 0.776 1.114 0.767" stroke="hsl(0.0,100%,35%)" stroke-width="0.00452"></path>
<path d="M1.063 0.765 Q1.087 0.695 0.957 0.668" stroke="hsl(0.0,100%,35%)" stroke-width="0.00339"></path>
<path d="M1.063 0.765 Q1.164 0.685 1.031 0.619" stroke="hsl(0.0,100%,35%)" stroke-width="0.00226"></path>
<path d="M1.063 0.765 Q0.921 0.779 0.918 0.852" stroke="hsl(0.0,100%,35%)" stroke-width="0.00113"></path>
<path d="M1.468 0.958 Q1.278 0.795 0.918 0.852" stroke="hsl(120.0,100%,35%)" stroke-width="0.00113"></path>
<path d="M1.468 0.958 Q0.970 0.567 0.097 0.724" stroke="hsl(120.0,100%,35%)" stroke-width="0.00452"></path>
<path d="M1.468 0.958 Q1.361 0.912 1.247 0.954" stroke="hsl(120.0,100%,35%)" stroke-width="0.00113"></path>
<path d="M1.468 0.958 Q1.553 0.948 1.551 0.905" stroke="hsl(120.0,100%,35%)" stroke-width="0.00113"></path>
<path d="M1.468 0.958 Q1.560 0.997 1.655 0.960" stroke="hsl(120.0,100%,35%)" stroke-width="0.00113"></path>
<path d="M1.468 0.958 Q1.565 0.959 1.587 0.912" stroke="hsl(120.0,100%,35%)" stroke-width="0.00113"></path>
<path d="M1.468 0.958 Q1.418 0.717 0.937 0.689" stroke="hsl(120.0,100%,35%)" stroke-width="0.00113"></path>
<path d="M1.468 0.958 Q1.339 0.913 1.221 0.966" stroke="hsl(120.0,100%,35%)" stroke-width="0.00113"></path>
<path d="M1.468 0.958 Q1.398 0.890 1.250 0.909" stroke="hsl(120.0,100%,35%)" stroke-width="0.00113"></path>
<path d="M1.468 0.958 Q1.661 0.802 1.398 0.674" stroke="hsl(120.0,100%,35%)" stroke-width="0.00113"></path>
<path d="M1.468 0.958 Q1.316 0.878 1.125 0.934" stroke="hsl(120.0,100%,35%)" stroke-width="0.00113"></path>
<path d="M1.264 0.358 Q0.861 0.533 1.114 0.767" stroke="hsl(0.0,100%,35%)" stroke-width="0.02373"></path>
<path d="M1.264 0.358 Q1.005 0.429 1.087 0.571" stroke="hsl(0.0,100%,35%)" stroke-width="0.00226"></path>
<path d="M1.264 0.358 Q1.156 0.421 1.255 0.487" stroke="hsl(0.0,100%,35%)" stroke-width="0.01695"></path>
<path d="M1.264 0.358 Q0.862 0.451 0.957 0.668" stroke="hsl(0.0,100%,35%)" stroke-width="0.01921"></path>
<path d="M1.264 0.358 Q1.074 0.215 0.754 0.276" stroke="hsl(0.0,100%,35%)" stroke-width="0.00226"></path>
<path d="M1.264 0.358 Q0.696 0.536 0.918 0.852" stroke="hsl(0.0,100%,35%)" stroke-width="0.00904"></path>
<path d="M1.264 0.358 Q0.734 0.618 1.125 0.934" stroke="hsl(0.0,100%,35%)" stroke-width="0.00226"></path>
<path d="M1.264 0.358 Q1.450 0.353 1.482 0.261" stroke="hsl(0.0,100%,35%)" stroke-width="0.00113"></path>
<path d="M1.264 0.358 Q0.976 0.601 1.387 0.794" stroke="hsl(0.0,100%,35%)" stroke-width="0.00113"></path>
<path d="M1.264 0.358 Q0.875 0.221 0.523 0.380" stroke="hsl(0.0,100%,35%)" stroke-width="0.00226"></path>
<path d="M1.255 0.487 Q0.960 0.599 1.114 0.767" stroke="hsl(0.0,100%,35%)" stroke-width="0.03841"></path>
<path d="M1.255 0.487 Q1.104 0.495 1.087 0.571" stroke="hsl(0.0,100%,35%)" stroke-width="0.00791"></path>
<path d="M1.255 0.487 Q1.363 0.424 1.264 0.358" stroke="hsl(0.0,100%,35%)" stroke-width="0.01130"></path>
<path d="M1.255 0.487 Q1.075 0.444 0.950 0.521" stroke="hsl(0.0,100%,35%)" stroke-width="0.00113"></path>
<path d="M1.255 0.487 Q0.961 0.518 0.957 0.668" stroke="hsl(0.0,100%,35%)" stroke-width="0.01243"></path>
<path d="M1.255 0.487 Q0.795 0.602 0.918 0.852" stroke="hsl(0.0,100%,35%)" stroke-width="0.03051"></path>
<path d="M1.255 0.487 Q1.127 0.442 1.010 0.494" stroke="hsl(0.0,100%,35%)" stroke-width="0.00113"></path>
<path d="M1.255 0.487 Q0.974 0.287 0.523 0.380" stroke="hsl(0.0,100%,35%)" stroke-width="0.00113"></path>
<path d="M1.255 0.487 Q0.833 0.685 1.125 0.934" stroke="hsl(0.0,100%,35%)" stroke-width="0.00226"></path>
<path d="M1.255 0.487 Q1.173 0.281 0.754 0.276" stroke="hsl(0.0,100%,35%)" stroke-width="0.00113"></path>
<path d="M1.255 0.487 Q0.749 0.576 0.811 0.842" stroke="hsl(0.0,100%,35%)" stroke-width="0.00113"></path>
<path d="M1.087 0.571 Q0.943 0.675 1.114 0.767" stroke="hsl(0.0,100%,35%)" stroke-width="0.05084"></path>
<path d="M1.087 0.571 Q1.346 0.500 1.264 0.358" stroke="hsl(0.0,100%,35%)" stroke-width="0.01017"></path>
<path d="M1.087 0.571 Q0.469 0.449 0.097 0.724" stroke="hsl(0.0,100%,35%)" stroke-width="0.00113"></path>
<path d="M1.087 0.571 Q1.237 0.563 1.255 0.487" stroke="hsl(0.0,100%,35%)" stroke-width="0.03729"></path>
<path d="M1.087 0.571 Q1.202 0.621 1.324 0.576" stroke="hsl(0.0,100%,35%)" stroke-width="0.00226"></path>
<path d="M1.087 0.571 Q0.944 0.593 0.957 0.668" stroke="hsl(0.0,100%,35%)" stroke-width="0.01921"></path>
<path d="M1.087 0.571 Q1.227 0.623 1.359 0.566" stroke="hsl(0.0,100%,35%)" stroke-width="0.00113"></path>
<path d="M1.087 0.571 Q1.231 0.638 1.394 0.583" stroke="hsl(0.0,100%,35%)" stroke-width="0.00113"></path>
<path d="M1.087 0.571 Q0.816 0.760 1.125 0.934" stroke="hsl(0.0,100%,35%)" stroke-width="0.00339"></path>
<path d="M1.087 0.571 Q1.276 0.601 1.376 0.515" stroke="hsl(0.0,100%,35%)" stroke-width="0.00226"></path>
<path d="M1.087 0.571 Q0.957 0.363 0.523 0.380" stroke="hsl(0.0,100%,35%)" stroke-width="0.00113"></path>
<path d="M1.087 0.571 Q0.924 0.484 0.718 0.545" stroke="hsl(0.0,100%,35%)" stroke-width="0.00113"></path>
<path d="M1.087 0.571 Q1.058 0.742 1.387 0.794" stroke="hsl(0.0,100%,35%)" stroke-width="0.00339"></path>
<path d="M1.087 0.571 Q0.778 0.677 0.918 0.852" stroke="hsl(0.0,100%,35%)" stroke-width="0.00226"></path>
<path d="M1.289 0.689 Q1.139 0.693 1.114 0.767" stroke="hsl(0.0,100%,35%)" stroke-width="0.00339"></path>
<path d="M1.289 0.689 Q1.140 0.612 0.957 0.668" stroke="hsl(0.0,100%,35%)" stroke-width="0.00339"></path>
<path d="M1.289 0.689 Q1.352 0.375 0.754 0.276" stroke="hsl(0.0,100%,35%)" stroke-width="0.00113"></path>
<path d="M1.289 0.689 Q0.974 0.696 0.918 0.852" stroke="hsl(0.0,100%,35%)" stroke-width="0.00113"></path>
<path d="M1.289 0.689 Q1.012 0.779 1.125 0.934" stroke="hsl(0.0,100%,35%)" stroke-width="0.00113"></path>
<path d="M1.387 0.794 Q1.272 0.726 1.114 0.767" stroke="hsl(0.0,100%,35%)" stroke-width="0.00678"></path>
<path d="M1.387 0.794 Q1.107 0.729 0.918 0.852" stroke="hsl(0.0,100%,35%)" stroke-width="0.00339"></path>
<path d="M1.387 0.794 Q1.688 0.776 1.719 0.626" stroke="hsl(0.0,100%,35%)" stroke-width="0.00226"></path>
<path d="M1.387 0.794 Q1.485 0.408 0.754 0.276" stroke="hsl(0.0,100%,35%)" stroke-width="0.00226"></path>
<path d="M1.387 0.794 Q1.273 0.645 0.957 0.668" stroke="hsl(0.0,100%,35%)" stroke-width="0.00226"></path>
<path d="M1.387 0.794 Q1.315 0.841 1.392 0.887" stroke="hsl(0.0,100%,35%)" stroke-width="0.00113"></path>
<path d="M1.387 0.794 Q1.438 0.569 1.010 0.494" stroke="hsl(0.0,100%,35%)" stroke-width="0.00113"></path>
<path d="M0.398 0.598 Q0.455 0.829 0.918 0.852" stroke="hsl(120.0,100%,35%)" stroke-width="0.00113"></path>
<path d="M0.398 0.598 Q0.274 0.756 0.556 0.852" stroke="hsl(120.0,100%,35%)" stroke-width="0.00113"></path>
<path d="M0.398 0.598 Q0.146 0.601 0.097 0.724" stroke="hsl(120.0,100%,35%)" stroke-width="0.00113"></path>
<path d="M0.398 0.598 Q0.464 0.642 0.564 0.619" stroke="hsl(120.0,100%,35%)" stroke-width="0.00339"></path>
<path d="M0.398 0.598 Q0.644 0.992 1.468 0.958" stroke="hsl(120.0,100%,35%)" stroke-width="0.00226"></path>
<path d="M0.398 0.598 Q0.601 0.635 0.718 0.545" stroke="hsl(120.0,100%,35%)" stroke-width="0.00113"></path>
<path d="M1.878 0.690 Q1.634 0.779 1.753 0.918" stroke="hsl(0.0,100%,35%)" stroke-width="0.00113"></path>
<path d="M1.878 0.690 Q1.269 0.579 0.918 0.852" stroke="hsl(0.0,100%,35%)" stroke-width="0.00113"></path>
<path d="M1.878 0.690 Q1.796 0.748 1.890 0.801" stroke="hsl(0.0,100%,35%)" stroke-width="0.00113"></path>
<path d="M0.564 0.619 Q0.721 0.803 1.114 0.767" stroke="hsl(120.0,100%,35%)" stroke-width="0.00226"></path>
<path d="M0.564 0.619 Q0.721 0.722 0.957 0.668" stroke="hsl(120.0,100%,35%)" stroke-width="0.00226"></path>
<path d="M0.564 0.619 Q0.555 0.806 0.918 0.852" stroke="hsl(120.0,100%,35%)" stroke-width="0.00113"></path>
<path d="M0.564 0.619 Q0.677 0.611 0.686 0.554" stroke="hsl(120.0,100%,35%)" stroke-width="0.00113"></path>
<path d="M0.564 0.619 Q0.498 0.575 0.398 0.598" stroke="hsl(120.0,100%,35%)" stroke-width="0.00113"></path>
<path d="M0.219 0.308 Q0.092 0.630 0.691 0.762" stroke="hsl(120.0,100%,35%)" stroke-width="0.00226"></path>
<path d="M0.219 0.308 Q0.300 0.636 0.957 0.668" stroke="hsl(120.0,100%,35%)" stroke-width="0.00226"></path>
<path d="M0.219 0.308 Q0.134 0.720 0.918 0.852" stroke="hsl(120.0,100%,35%)" stroke-width="0.00113"></path>
<path d="M0.219 0.308 Q0.149 0.389 0.292 0.441" stroke="hsl(120.0,100%,35%)" stroke-width="0.00113"></path>
<path d="M0.219 0.308 Q0.406 0.282 0.395 0.184" stroke="hsl(120.0,100%,35%)" stroke-width="0.00113"></path>
<path d="M0.219 0.308 Q0.439 0.307 0.484 0.199" stroke="hsl(120.0,100%,35%)" stroke-width="0.00113"></path>
<path d="M0.219 0.308 Q0.130 0.282 0.059 0.320" stroke="hsl(120.0,100%,35%)" stroke-width="0.00113"></path>
<path d="M0.219 0.308 Q0.091 0.363 0.171 0.438" stroke="hsl(120.0,100%,35%)" stroke-width="0.00113"></path>
<path d="M0.219 0.308 Q0.362 0.289 0.356 0.215" stroke="hsl(120.0,100%,35%)" stroke-width="0.00113"></path>
<path d="M0.219 0.308 Q0.358 0.298 0.368 0.227" stroke="hsl(120.0,100%,35%)" stroke-width="0.00113"></path>
<path d="M0.219 0.308 Q0.111 0.296 0.063 0.346" stroke="hsl(120.0,100%,35%)" stroke-width="0.00113"></path>
<path d="M0.219 0.308 Q0.243 0.351 0.333 0.349" stroke="hsl(120.0,100%,35%)" stroke-width="0.00113"></path>
<path d="M0.219 0.308 Q0.195 0.388 0.345 0.417" stroke="hsl(120.0,100%,35%)" stroke-width="0.00113"></path>
<path d="M0.219 0.308 Q0.083 0.802 1.016 0.976" stroke="hsl(120.0,100%,35%)" stroke-width="0.00113"></path>
<path d="M0.691 0.762 Q0.898 0.849 1.114 0.767" stroke="hsl(120.0,100%,35%)" stroke-width="0.00113"></path>
<path d="M0.691 0.762 Q0.682 0.934 1.016 0.976" stroke="hsl(120.0,100%,35%)" stroke-width="0.00113"></path>
<path d="M0.691 0.762 Q0.922 1.016 1.468 0.958" stroke="hsl(120.0,100%,35%)" stroke-width="0.00113"></path>
<path d="M0.691 0.762 Q0.687 0.826 0.811 0.842" stroke="hsl(120.0,100%,35%)" stroke-width="0.00113"></path>
<path d="M0.691 0.762 Q0.497 0.703 0.340 0.785" stroke="hsl(120.0,100%,35%)" stroke-width="0.00113"></path>
<path d="M0.691 0.762 Q1.112 0.531 0.754 0.276" stroke="hsl(120.0,100%,35%)" stroke-width="0.00113"></path>
<path d="M0.691 0.762 Q0.873 0.774 0.937 0.689" stroke="hsl(120.0,100%,35%)" stroke-width="0.00113"></path>
<path d="M0.691 0.762 Q0.640 0.825 0.751 0.863" stroke="hsl(120.0,100%,35%)" stroke-width="0.00113"></path>
<path d="M0.691 0.762 Q0.899 0.768 0.957 0.668" stroke="hsl(120.0,100%,35%)" stroke-width="0.00113"></path>
<path d="M0.691 0.762 Q0.879 0.659 0.718 0.545" stroke="hsl(120.0,100%,35%)" stroke-width="0.00113"></path>
<path d="M0.821 0.399 Q0.886 0.324 0.754 0.276" stroke="hsl(0.0,100%,35%)" stroke-width="0.00113"></path>
<path d="M0.821 0.399 Q0.674 0.560 0.957 0.668" stroke="hsl(0.0,100%,35%)" stroke-width="0.00113"></path>
<path d="M0.821 0.399 Q0.687 0.330 0.523 0.380" stroke="hsl(0.0,100%,35%)" stroke-width="0.00113"></path>
<path d="M1.000 0.281 Q1.202 0.307 1.298 0.214" stroke="hsl(240.0,100%,35%)" stroke-width="0.00113"></path>
<path d="M1.000 0.281 Q0.669 0.466 0.957 0.668" stroke="hsl(240.0,100%,35%)" stroke-width="0.00113"></path>
<path d="M1.000 0.281 Q1.133 0.241 1.084 0.168" stroke="hsl(240.0,100%,35%)" stroke-width="0.00113"></path>
<path d="M0.734 0.043 Q0.179 0.484 0.918 0.852" stroke="hsl(120.0,100%,35%)" stroke-width="0.00339"></path>
<path d="M0.734 0.043 Q0.810 0.099 0.937 0.074" stroke="hsl(120.0,100%,35%)" stroke-width="0.00226"></path>
<path d="M0.734 0.043 Q0.650 0.069 0.682 0.115" stroke="hsl(120.0,100%,35%)" stroke-width="0.00226"></path>
<path d="M1.547 0.442 Q0.905 0.521 0.918 0.852" stroke="hsl(0.0,100%,35%)" stroke-width="0.01808"></path>
<path d="M1.547 0.442 Q1.071 0.437 0.957 0.668" stroke="hsl(0.0,100%,35%)" stroke-width="0.00678"></path>
<path d="M1.547 0.442 Q1.611 0.534 1.804 0.522" stroke="hsl(0.0,100%,35%)" stroke-width="0.00113"></path>
<path d="M1.547 0.442 Q0.862 0.164 0.171 0.438" stroke="hsl(0.0,100%,35%)" stroke-width="0.00113"></path>
<path d="M1.547 0.442 Q0.854 0.603 1.016 0.976" stroke="hsl(0.0,100%,35%)" stroke-width="0.00113"></path>
<path d="M1.547 0.442 Q1.673 0.441 1.698 0.379" stroke="hsl(0.0,100%,35%)" stroke-width="0.00226"></path>
<path d="M1.547 0.442 Q1.486 0.568 1.719 0.626" stroke="hsl(0.0,100%,35%)" stroke-width="0.00226"></path>
<path d="M1.547 0.442 Q1.512 0.517 1.649 0.550" stroke="hsl(0.0,100%,35%)" stroke-width="0.00113"></path>
<path d="M0.340 0.785 Q0.267 0.706 0.097 0.724" stroke="hsl(120.0,100%,35%)" stroke-width="0.00678"></path>
<path d="M0.340 0.785 Q0.576 0.934 0.918 0.852" stroke="hsl(120.0,100%,35%)" stroke-width="0.00113"></path>
<path d="M0.340 0.785 Q0.741 0.931 1.114 0.767" stroke="hsl(120.0,100%,35%)" stroke-width="0.00113"></path>
<path d="M0.340 0.785 Q0.318 0.841 0.422 0.865" stroke="hsl(120.0,100%,35%)" stroke-width="0.00226"></path>
<path d="M0.340 0.785 Q0.614 1.016 1.125 0.934" stroke="hsl(120.0,100%,35%)" stroke-width="0.00226"></path>
<path d="M0.340 0.785 Q0.256 0.828 0.321 0.878" stroke="hsl(120.0,100%,35%)" stroke-width="0.00226"></path>
<path d="M0.340 0.785 Q0.908 0.774 1.010 0.494" stroke="hsl(120.0,100%,35%)" stroke-width="0.00113"></path>
<path d="M0.340 0.785 Q0.722 0.740 0.718 0.545" stroke="hsl(120.0,100%,35%)" stroke-width="0.00113"></path>
<path d="M0.340 0.785 Q0.508 0.835 0.641 0.764" stroke="hsl(120.0,100%,35%)" stroke-width="0.00226"></path>
<path d="M0.340 0.785 Q0.788 0.787 0.890 0.569" stroke="hsl(120.0,100%,35%)" stroke-width="0.00113"></path>
<path d="M0.340 0.785 Q0.742 0.850 0.957 0.668" stroke="hsl(120.0,100%,35%)" stroke-width="0.00113"></path>
<path d="M0.340 0.785 Q0.265 0.769 0.217 0.802" stroke="hsl(120.0,100%,35%)" stroke-width="0.00113"></path>
<path d="M0.340 0.785 Q0.914 0.781 1.032 0.500" stroke="hsl(120.0,100%,35%)" stroke-width="0.00113"></path>
<path d="M0.340 0.785 Q0.236 0.871 0.380 0.941" stroke="hsl(120.0,100%,35%)" stroke-width="0.00113"></path>
<path d="M0.340 0.785 Q0.291 0.836 0.380 0.872" stroke="hsl(120.0,100%,35%)" stroke-width="0.00113"></path>
<path d="M0.340 0.785 Q0.250 0.850 0.357 0.909" stroke="hsl(120.0,100%,35%)" stroke-width="0.00113"></path>
<path d="M0.340 0.785 Q0.513 0.778 0.537 0.692" stroke="hsl(120.0,100%,35%)" stroke-width="0.00113"></path>
<path d="M0.340 0.785 Q1.047 0.519 0.682 0.115" stroke="hsl(120.0,100%,35%)" stroke-width="0.00113"></path>
<path d="M0.340 0.785 Q0.320 0.904 0.548 0.940" stroke="hsl(120.0,100%,35%)" stroke-width="0.00113"></path>
<path d="M0.340 0.785 Q0.339 0.868 0.501 0.887" stroke="hsl(120.0,100%,35%)" stroke-width="0.00113"></path>
<path d="M0.340 0.785 Q0.447 0.830 0.557 0.787" stroke="hsl(120.0,100%,35%)" stroke-width="0.00113"></path>
<path d="M0.224 0.088 Q0.304 0.124 0.392 0.093" stroke="hsl(120.0,100%,35%)" stroke-width="0.00113"></path>
<path d="M0.224 0.088 Q0.126 0.525 0.957 0.668" stroke="hsl(120.0,100%,35%)" stroke-width="0.00113"></path>
<path d="M0.224 0.088 Q0.099 0.115 0.125 0.182" stroke="hsl(120.0,100%,35%)" stroke-width="0.00113"></path>
<path d="M0.224 0.088 Q0.106 0.415 0.718 0.545" stroke="hsl(120.0,100%,35%)" stroke-width="0.00113"></path>
<path d="M0.148 0.904 Q0.192 0.848 0.094 0.814" stroke="hsl(120.0,100%,35%)" stroke-width="0.00226"></path>
<path d="M0.148 0.904 Q0.163 0.956 0.270 0.960" stroke="hsl(120.0,100%,35%)" stroke-width="0.00226"></path>
<path d="M0.148 0.904 Q0.339 0.883 0.340 0.785" stroke="hsl(120.0,100%,35%)" stroke-width="0.00226"></path>
<path d="M0.148 0.904 Q1.072 0.955 1.376 0.515" stroke="hsl(120.0,100%,35%)" stroke-width="0.00226"></path>
<path d="M0.148 0.904 Q1.129 0.591 0.734 0.043" stroke="hsl(120.0,100%,35%)" stroke-width="0.00113"></path>
<path d="M1.637 0.697 Q1.319 0.628 1.114 0.767" stroke="hsl(0.0,100%,35%)" stroke-width="0.00791"></path>
<path d="M1.637 0.697 Q1.192 0.713 1.125 0.934" stroke="hsl(0.0,100%,35%)" stroke-width="0.00339"></path>
<path d="M1.637 0.697 Q1.397 0.537 1.031 0.619" stroke="hsl(0.0,100%,35%)" stroke-width="0.00113"></path>
<path d="M1.637 0.697 Q1.703 0.620 1.567 0.571" stroke="hsl(0.0,100%,35%)" stroke-width="0.00113"></path>
<path d="M1.637 0.697 Q1.154 0.631 0.918 0.852" stroke="hsl(0.0,100%,35%)" stroke-width="0.00452"></path>
<path d="M1.637 0.697 Q1.532 0.310 0.754 0.276" stroke="hsl(0.0,100%,35%)" stroke-width="0.00113"></path>
<path d="M1.637 0.697 Q1.571 0.760 1.678 0.805" stroke="hsl(0.0,100%,35%)" stroke-width="0.00113"></path>
<path d="M1.637 0.697 Q1.320 0.547 0.957 0.668" stroke="hsl(0.0,100%,35%)" stroke-width="0.00226"></path>
<path d="M1.637 0.697 Q1.486 0.470 1.010 0.494" stroke="hsl(0.0,100%,35%)" stroke-width="0.00113"></path>
<path d="M1.637 0.697 Q1.333 0.316 0.523 0.380" stroke="hsl(0.0,100%,35%)" stroke-width="0.00113"></path>
<path d="M1.637 0.697 Q1.722 0.453 1.264 0.358" stroke="hsl(0.0,100%,35%)" stroke-width="0.00113"></path>
<path d="M0.121 0.503 Q0.279 0.919 1.125 0.934" stroke="hsl(120.0,100%,35%)" stroke-width="0.00113"></path>
<path d="M0.121 0.503 Q0.057 0.560 0.154 0.604" stroke="hsl(120.0,100%,35%)" stroke-width="0.00113"></path>
<path d="M0.121 0.503 Q0.158 0.881 0.903 0.946" stroke="hsl(120.0,100%,35%)" stroke-width="0.00113"></path>
<path d="M1.519 0.624 Q1.202 0.533 0.957 0.668" stroke="hsl(0.0,100%,35%)" stroke-width="0.00226"></path>
<path d="M1.519 0.624 Q1.036 0.618 0.918 0.852" stroke="hsl(0.0,100%,35%)" stroke-width="0.00113"></path>
<path d="M1.519 0.624 Q1.201 0.615 1.114 0.767" stroke="hsl(0.0,100%,35%)" stroke-width="0.00226"></path>
</g>
<text x="1.034" y="0.580" font-size="0.010287" fill="hsl(0.0,100%,20%)">ajuma</text>
<text x="1.114" y="0.723" font-size="0.089443" fill="hsl(0.0,100%,20%)">bartekn</text>
<text x="0.918" y="0.813" font-size="0.076567" fill="hsl(0.0,100%,20%)">lizeb</text>
<text x="0.754" y="0.250" font-size="0.051021" fill="hsl(0.0,100%,20%)">bikineev</text>
<text x="0.724" y="0.459" font-size="0.013012" fill="hsl(120.0,100%,20%)">andre.kempe</text>
<text x="1.398" y="0.669" font-size="0.009201" fill="hsl(120.0,100%,20%)">agrieve</text>
<text x="0.585" y="0.475" font-size="0.004600" fill="hsl(120.0,100%,20%)">mfoltz</text>
<text x="1.016" y="0.969" font-size="0.013801" fill="hsl(120.0,100%,20%)">thakis</text>
<text x="0.957" y="0.639" font-size="0.057459" fill="hsl(0.0,100%,20%)">haraken</text>
<text x="0.523" y="0.364" font-size="0.033492" fill="hsl(0.0,100%,20%)">mlippautz</text>
<text x="0.718" y="0.538" font-size="0.012172" fill="hsl(120.0,100%,20%)">wez</text>
<text x="1.063" y="0.757" font-size="0.015936" fill="hsl(0.0,100%,20%)">arthursonzogni</text>
<text x="1.031" y="0.612" font-size="0.013801" fill="hsl(0.0,100%,20%)">glazunov</text>
<text x="1.468" y="0.949" font-size="0.019518" fill="hsl(120.0,100%,20%)">avi</text>
<text x="0.097" y="0.716" font-size="0.016587" fill="hsl(120.0,100%,20%)">danakj</text>
<text x="1.247" y="0.952" font-size="0.004600" fill="hsl(120.0,100%,20%)">garykac</text>
<text x="1.551" y="0.902" font-size="0.004600" fill="hsl(120.0,100%,20%)">khorimoto</text>
<text x="1.655" y="0.958" font-size="0.004600" fill="hsl(120.0,100%,20%)">mbonadei</text>
<text x="1.587" y="0.910" font-size="0.004600" fill="hsl(120.0,100%,20%)">rohitrao</text>
<text x="0.937" y="0.683" font-size="0.011269" fill="hsl(120.0,100%,20%)">rsesek</text>
<text x="1.221" y="0.963" font-size="0.004600" fill="hsl(120.0,100%,20%)">tedchoc</text>
<text x="1.250" y="0.907" font-size="0.004600" fill="hsl(120.0,100%,20%)">vovoy</text>
<text x="1.125" y="0.922" font-size="0.024343" fill="hsl(0.0,100%,20%)">dcheng</text>
<text x="1.264" y="0.334" font-size="0.047809" fill="hsl(0.0,100%,20%)">tasak</text>
<text x="0.903" y="0.940" font-size="0.010287" fill="hsl(120.0,100%,20%)">mark</text>
<text x="1.255" y="0.456" font-size="0.062403" fill="hsl(0.0,100%,20%)">yukishiino</text>
<text x="1.087" y="0.544" font-size="0.052654" fill="hsl(0.0,100%,20%)">kdlee</text>
<text x="1.008" y="0.887" font-size="0.006506" fill="hsl(0.0,100%,20%)">asully</text>
<text x="1.304" y="0.585" font-size="0.004600" fill="hsl(0.0,100%,20%)">hypan</text>
<text x="1.289" y="0.682" font-size="0.015258" fill="hsl(0.0,100%,20%)">richard.townsend</text>
<text x="1.010" y="0.489" font-size="0.011269" fill="hsl(0.0,100%,20%)">mpdenton</text>
<text x="1.719" y="0.619" font-size="0.013012" fill="hsl(0.0,100%,20%)">ssid</text>
<text x="1.032" y="0.495" font-size="0.009201" fill="hsl(0.0,100%,20%)">lukasza</text>
<text x="1.387" y="0.780" font-size="0.027217" fill="hsl(0.0,100%,20%)">keishi</text>
<text x="0.890" y="0.565" font-size="0.007968" fill="hsl(120.0,100%,20%)">gab</text>
<text x="1.324" y="0.571" font-size="0.009201" fill="hsl(0.0,100%,20%)">bgeffon</text>
<text x="0.398" y="0.590" font-size="0.015258" fill="hsl(120.0,100%,20%)">brucedawson</text>
<text x="1.878" y="0.685" font-size="0.010287" fill="hsl(0.0,100%,20%)">ellyjones</text>
<text x="1.394" y="0.840" font-size="0.004600" fill="hsl(0.0,100%,20%)">gbeaty</text>
<text x="1.376" y="0.510" font-size="0.011269" fill="hsl(120.0,100%,20%)">wfh</text>
<text x="1.678" y="0.802" font-size="0.006506" fill="hsl(0.0,100%,20%)">erikchen</text>
<text x="1.019" y="0.605" font-size="0.006506" fill="hsl(0.0,100%,20%)">agl</text>
<text x="1.279" y="0.760" font-size="0.004600" fill="hsl(0.0,100%,20%)">yukiy</text>
<text x="0.217" y="0.799" font-size="0.006506" fill="hsl(120.0,100%,20%)">kinuko</text>
<text x="1.055" y="0.590" font-size="0.006506" fill="hsl(0.0,100%,20%)">tikuta</text>
<text x="1.139" y="0.573" font-size="0.004600" fill="hsl(0.0,100%,20%)">sebmarchand</text>
<text x="1.362" y="0.622" font-size="0.004600" fill="hsl(0.0,100%,20%)">sweilun</text>
<text x="0.844" y="0.131" font-size="0.004600" fill="hsl(0.0,100%,20%)">oysteine</text>
<text x="0.544" y="0.308" font-size="0.004600" fill="hsl(0.0,100%,20%)">altimin</text>
<text x="0.576" y="0.148" font-size="0.006506" fill="hsl(0.0,100%,20%)">creis</text>
<text x="0.556" y="0.850" font-size="0.004600" fill="hsl(120.0,100%,20%)">cassew</text>
<text x="0.564" y="0.612" font-size="0.015258" fill="hsl(120.0,100%,20%)">palmer</text>
<text x="0.219" y="0.299" font-size="0.018402" fill="hsl(120.0,100%,20%)">dsanders11</text>
<text x="0.691" y="0.754" font-size="0.016587" fill="hsl(120.0,100%,20%)">thestig</text>
<text x="0.292" y="0.439" font-size="0.004600" fill="hsl(120.0,100%,20%)">acourbot</text>
<text x="0.395" y="0.182" font-size="0.004600" fill="hsl(120.0,100%,20%)">aleventhal</text>
<text x="0.484" y="0.197" font-size="0.004600" fill="hsl(120.0,100%,20%)">austinct</text>
<text x="0.059" y="0.318" font-size="0.004600" fill="hsl(120.0,100%,20%)">eseckler</text>
<text x="0.171" y="0.434" font-size="0.006506" fill="hsl(120.0,100%,20%)">jamiewalch</text>
<text x="0.356" y="0.213" font-size="0.004600" fill="hsl(120.0,100%,20%)">michaeldo</text>
<text x="0.368" y="0.225" font-size="0.004600" fill="hsl(120.0,100%,20%)">mmoskvitin</text>
<text x="0.063" y="0.343" font-size="0.004600" fill="hsl(120.0,100%,20%)">olivierrobin</text>
<text x="0.333" y="0.346" font-size="0.004600" fill="hsl(120.0,100%,20%)">tbansal</text>
<text x="0.345" y="0.414" font-size="0.004600" fill="hsl(120.0,100%,20%)">tguilbert</text>
<text x="1.753" y="0.916" font-size="0.004600" fill="hsl(0.0,100%,20%)">elainechien</text>
<text x="1.890" y="0.799" font-size="0.004600" fill="hsl(0.0,100%,20%)">tkent</text>
<text x="0.821" y="0.395" font-size="0.007968" fill="hsl(0.0,100%,20%)">hpayer</text>
<text x="1.000" y="0.277" font-size="0.007968" fill="hsl(240.0,100%,20%)">kbr</text>
<text x="1.298" y="0.212" font-size="0.004600" fill="hsl(240.0,100%,20%)">ccameron</text>
<text x="1.084" y="0.165" font-size="0.004600" fill="hsl(240.0,100%,20%)">martiniss</text>
<text x="1.359" y="0.564" font-size="0.004600" fill="hsl(0.0,100%,20%)">ayui</text>
<text x="1.394" y="0.581" font-size="0.004600" fill="hsl(0.0,100%,20%)">primiano</text>
<text x="1.392" y="0.885" font-size="0.004600" fill="hsl(0.0,100%,20%)">isherman</text>
<text x="0.734" y="0.037" font-size="0.013012" fill="hsl(120.0,100%,20%)">kmarshall</text>
<text x="0.937" y="0.071" font-size="0.006506" fill="hsl(120.0,100%,20%)">ddorwin</text>
<text x="0.682" y="0.111" font-size="0.007968" fill="hsl(120.0,100%,20%)">kylechar</text>
<text x="1.547" y="0.427" font-size="0.029457" fill="hsl(0.0,100%,20%)">thiabaud</text>
<text x="0.380" y="0.937" font-size="0.006506" fill="hsl(120.0,100%,20%)">fdoray</text>
<text x="1.023" y="0.857" font-size="0.007968" fill="hsl(0.0,100%,20%)">pasko</text>
<text x="0.969" y="0.768" font-size="0.004600" fill="hsl(0.0,100%,20%)">alexilin</text>
<text x="0.820" y="0.622" font-size="0.004600" fill="hsl(0.0,100%,20%)">msramek</text>
<text x="0.719" y="0.686" font-size="0.004600" fill="hsl(0.0,100%,20%)">mamir</text>
<text x="1.022" y="0.846" font-size="0.004600" fill="hsl(0.0,100%,20%)">amraboelkher</text>
<text x="0.868" y="0.501" font-size="0.004600" fill="hsl(0.0,100%,20%)">skyostil</text>
<text x="1.046" y="0.944" font-size="0.004600" fill="hsl(0.0,100%,20%)">etiennep</text>
<text x="0.686" y="0.552" font-size="0.004600" fill="hsl(120.0,100%,20%)">tsepez</text>
<text x="0.340" y="0.772" font-size="0.026427" fill="hsl(120.0,100%,20%)">pkasting</text>
<text x="0.422" y="0.862" font-size="0.006506" fill="hsl(120.0,100%,20%)">behdadb</text>
<text x="0.321" y="0.875" font-size="0.006506" fill="hsl(120.0,100%,20%)">nicolaso</text>
<text x="0.641" y="0.761" font-size="0.006506" fill="hsl(120.0,100%,20%)">pbos</text>
<text x="0.380" y="0.869" font-size="0.004600" fill="hsl(120.0,100%,20%)">abigailbklein</text>
<text x="0.357" y="0.906" font-size="0.004600" fill="hsl(120.0,100%,20%)">bajones</text>
<text x="0.537" y="0.690" font-size="0.004600" fill="hsl(120.0,100%,20%)">droger</text>
<text x="0.548" y="0.938" font-size="0.004600" fill="hsl(120.0,100%,20%)">renjietang</text>
<text x="0.501" y="0.885" font-size="0.004600" fill="hsl(120.0,100%,20%)">sadrul</text>
<text x="0.557" y="0.785" font-size="0.004600" fill="hsl(120.0,100%,20%)">sandersd</text>
<text x="0.224" y="0.084" font-size="0.009201" fill="hsl(120.0,100%,20%)">rohpavone</text>
<text x="0.392" y="0.091" font-size="0.004600" fill="hsl(120.0,100%,20%)">bsheedy</text>
<text x="0.125" y="0.180" font-size="0.004600" fill="hsl(120.0,100%,20%)">johnchen</text>
<text x="0.148" y="0.897" font-size="0.013801" fill="hsl(120.0,100%,20%)">rwkeane</text>
<text x="0.094" y="0.811" font-size="0.006506" fill="hsl(120.0,100%,20%)">ajgo</text>
<text x="0.270" y="0.957" font-size="0.006506" fill="hsl(120.0,100%,20%)">jshin</text>
<text x="1.637" y="0.686" font-size="0.022063" fill="hsl(0.0,100%,20%)">saelo</text>
<text x="1.567" y="0.569" font-size="0.004600" fill="hsl(0.0,100%,20%)">cbruni</text>
<text x="0.121" y="0.499" font-size="0.007968" fill="hsl(120.0,100%,20%)">ssyed</text>
<text x="0.154" y="0.601" font-size="0.004600" fill="hsl(120.0,100%,20%)">abhijeet</text>
<text x="1.519" y="0.618" font-size="0.010287" fill="hsl(0.0,100%,20%)">stha09</text>
<text x="1.482" y="0.259" font-size="0.004600" fill="hsl(0.0,100%,20%)">estaab</text>
<text x="0.811" y="0.839" font-size="0.006506" fill="hsl(120.0,100%,20%)">dpranke</text>
<text x="0.751" y="0.861" font-size="0.004600" fill="hsl(120.0,100%,20%)">sunnyps</text>
<text x="1.804" y="0.520" font-size="0.004600" fill="hsl(0.0,100%,20%)">dgozman</text>
<text x="1.698" y="0.376" font-size="0.006506" fill="hsl(0.0,100%,20%)">rkaplow</text>
<text x="1.649" y="0.548" font-size="0.004600" fill="hsl(0.0,100%,20%)">chanli</text>
<text x="0.950" y="0.519" font-size="0.004600" fill="hsl(0.0,100%,20%)">sdefresne</text>
</svg>
