<svg width="4000" height="2000" viewBox="-0.025 -0.025 2.05 1.05" xmlns="http://www.w3.org/2000/svg">
  <style>
    path {
      fill: none;
      stroke-linecap: round;
      stroke-opacity: 0.4;
    }

    text {
      text-anchor: middle;
      alignment-baseline: hanging;
    }
  </style>
  <g opacity="0.4">
<path d="M1.540 0.571 Q1.662 0.466 1.486 0.384" stroke="hsl(0.0,100%,35%)" stroke-width="0.00114"></path>
<path d="M1.540 0.571 Q1.369 0.427 1.051 0.479" stroke="hsl(0.0,100%,35%)" stroke-width="0.00114"></path>
<path d="M1.540 0.571 Q1.207 0.526 1.046 0.678" stroke="hsl(0.0,100%,35%)" stroke-width="0.00114"></path>
<path d="M1.486 0.384 Q1.193 0.344 1.051 0.479" stroke="hsl(0.0,100%,35%)" stroke-width="0.04682"></path>
<path d="M1.486 0.384 Q1.458 0.250 1.190 0.234" stroke="hsl(0.0,100%,35%)" stroke-width="0.01028"></path>
<path d="M1.486 0.384 Q1.364 0.488 1.540 0.571" stroke="hsl(0.0,100%,35%)" stroke-width="0.00228"></path>
<path d="M1.486 0.384 Q1.582 0.355 1.547 0.302" stroke="hsl(0.0,100%,35%)" stroke-width="0.00799"></path>
<path d="M1.486 0.384 Q0.469 0.450 0.374 0.961" stroke="hsl(0.0,100%,35%)" stroke-width="0.00228"></path>
<path d="M1.486 0.384 Q1.256 0.429 1.293 0.551" stroke="hsl(0.0,100%,35%)" stroke-width="0.00914"></path>
<path d="M1.486 0.384 Q1.338 0.359 1.256 0.426" stroke="hsl(0.0,100%,35%)" stroke-width="0.00114"></path>
<path d="M1.486 0.384 Q1.174 0.250 0.844 0.373" stroke="hsl(0.0,100%,35%)" stroke-width="0.00114"></path>
<path d="M1.486 0.384 Q1.031 0.443 1.046 0.678" stroke="hsl(0.0,100%,35%)" stroke-width="0.01827"></path>
<path d="M1.486 0.384 Q1.620 0.444 1.767 0.392" stroke="hsl(0.0,100%,35%)" stroke-width="0.00685"></path>
<path d="M1.486 0.384 Q1.469 0.288 1.279 0.276" stroke="hsl(0.0,100%,35%)" stroke-width="0.00114"></path>
<path d="M1.486 0.384 Q1.599 0.291 1.442 0.216" stroke="hsl(0.0,100%,35%)" stroke-width="0.02512"></path>
<path d="M1.486 0.384 Q1.476 0.375 1.455 0.378" stroke="hsl(0.0,100%,35%)" stroke-width="0.00114"></path>
<path d="M1.486 0.384 Q1.567 0.298 1.417 0.239" stroke="hsl(0.0,100%,35%)" stroke-width="0.00228"></path>
<path d="M1.486 0.384 Q0.715 0.362 0.503 0.734" stroke="hsl(0.0,100%,35%)" stroke-width="0.00114"></path>
<path d="M1.486 0.384 Q1.314 0.693 1.878 0.845" stroke="hsl(0.0,100%,35%)" stroke-width="0.00114"></path>
<path d="M1.486 0.384 Q1.535 0.422 1.620 0.407" stroke="hsl(0.0,100%,35%)" stroke-width="0.00228"></path>
<path d="M1.486 0.384 Q1.157 0.261 0.845 0.395" stroke="hsl(0.0,100%,35%)" stroke-width="0.00114"></path>
<path d="M1.486 0.384 Q1.553 0.306 1.415 0.256" stroke="hsl(0.0,100%,35%)" stroke-width="0.00228"></path>
<path d="M1.486 0.384 Q1.493 0.465 1.653 0.480" stroke="hsl(0.0,100%,35%)" stroke-width="0.01256"></path>
<path d="M1.486 0.384 Q0.810 0.443 0.775 0.785" stroke="hsl(0.0,100%,35%)" stroke-width="0.00114"></path>
<path d="M1.486 0.384 Q1.444 0.423 1.512 0.452" stroke="hsl(0.0,100%,35%)" stroke-width="0.00228"></path>
<path d="M1.486 0.384 Q1.371 0.417 1.410 0.480" stroke="hsl(0.0,100%,35%)" stroke-width="0.00228"></path>
<path d="M1.486 0.384 Q1.483 0.596 1.897 0.644" stroke="hsl(0.0,100%,35%)" stroke-width="0.00114"></path>
<path d="M1.486 0.384 Q0.548 0.250 0.080 0.678" stroke="hsl(0.0,100%,35%)" stroke-width="0.00114"></path>
<path d="M1.486 0.384 Q1.388 0.482 1.558 0.552" stroke="hsl(0.0,100%,35%)" stroke-width="0.00114"></path>
<path d="M1.486 0.384 Q1.388 0.433 1.462 0.492" stroke="hsl(0.0,100%,35%)" stroke-width="0.00114"></path>
<path d="M1.486 0.384 Q1.515 0.572 1.888 0.599" stroke="hsl(0.0,100%,35%)" stroke-width="0.00114"></path>
<path d="M1.486 0.384 Q1.440 0.307 1.280 0.313" stroke="hsl(0.0,100%,35%)" stroke-width="0.00228"></path>
<path d="M1.486 0.384 Q1.561 0.314 1.441 0.262" stroke="hsl(0.0,100%,35%)" stroke-width="0.00228"></path>
<path d="M1.486 0.384 Q1.462 0.435 1.556 0.457" stroke="hsl(0.0,100%,35%)" stroke-width="0.00114"></path>
<path d="M1.486 0.384 Q0.974 0.561 1.206 0.850" stroke="hsl(0.0,100%,35%)" stroke-width="0.00114"></path>
<path d="M1.486 0.384 Q0.998 0.626 1.362 0.917" stroke="hsl(0.0,100%,35%)" stroke-width="0.00114"></path>
<path d="M1.486 0.384 Q1.174 0.448 1.230 0.614" stroke="hsl(0.0,100%,35%)" stroke-width="0.00228"></path>
<path d="M1.486 0.384 Q1.497 0.275 1.286 0.245" stroke="hsl(0.0,100%,35%)" stroke-width="0.00114"></path>
<path d="M1.486 0.384 Q1.425 0.421 1.484 0.459" stroke="hsl(0.0,100%,35%)" stroke-width="0.00114"></path>
<path d="M1.051 0.479 Q1.345 0.518 1.486 0.384" stroke="hsl(0.0,100%,35%)" stroke-width="0.05481"></path>
<path d="M1.051 0.479 Q1.095 0.359 0.872 0.312" stroke="hsl(0.0,100%,35%)" stroke-width="0.01256"></path>
<path d="M1.051 0.479 Q1.167 0.445 1.126 0.381" stroke="hsl(0.0,100%,35%)" stroke-width="0.00343"></path>
<path d="M1.051 0.479 Q1.457 0.426 1.442 0.216" stroke="hsl(0.0,100%,35%)" stroke-width="0.03654"></path>
<path d="M1.051 0.479 Q1.115 0.563 1.293 0.551" stroke="hsl(0.0,100%,35%)" stroke-width="0.03654"></path>
<path d="M1.051 0.479 Q0.891 0.783 1.449 0.928" stroke="hsl(0.0,100%,35%)" stroke-width="0.00114"></path>
<path d="M1.051 0.479 Q1.243 0.376 1.085 0.260" stroke="hsl(0.0,100%,35%)" stroke-width="0.00343"></path>
<path d="M1.051 0.479 Q1.316 0.384 1.190 0.234" stroke="hsl(0.0,100%,35%)" stroke-width="0.00114"></path>
<path d="M1.051 0.479 Q1.100 0.502 1.156 0.483" stroke="hsl(0.0,100%,35%)" stroke-width="0.00114"></path>
<path d="M1.051 0.479 Q1.480 0.298 1.222 0.049" stroke="hsl(0.0,100%,35%)" stroke-width="0.00114"></path>
<path d="M1.051 0.479 Q1.441 0.489 1.547 0.302" stroke="hsl(0.0,100%,35%)" stroke-width="0.00571"></path>
<path d="M1.051 0.479 Q0.889 0.578 1.046 0.678" stroke="hsl(0.0,100%,35%)" stroke-width="0.00343"></path>
<path d="M1.051 0.479 Q1.351 0.600 1.653 0.480" stroke="hsl(0.0,100%,35%)" stroke-width="0.00228"></path>
<path d="M1.051 0.479 Q1.076 0.500 1.124 0.493" stroke="hsl(0.0,100%,35%)" stroke-width="0.00114"></path>
<path d="M1.051 0.479 Q0.406 0.384 0.080 0.678" stroke="hsl(0.0,100%,35%)" stroke-width="0.00114"></path>
<path d="M1.051 0.479 Q1.025 0.544 1.147 0.571" stroke="hsl(0.0,100%,35%)" stroke-width="0.00114"></path>
<path d="M1.051 0.479 Q1.015 0.396 0.845 0.395" stroke="hsl(0.0,100%,35%)" stroke-width="0.00343"></path>
<path d="M1.051 0.479 Q0.473 0.610 0.603 0.921" stroke="hsl(0.0,100%,35%)" stroke-width="0.00114"></path>
<path d="M1.051 0.479 Q1.170 0.390 1.024 0.313" stroke="hsl(0.0,100%,35%)" stroke-width="0.00114"></path>
<path d="M1.051 0.479 Q1.334 0.509 1.455 0.378" stroke="hsl(0.0,100%,35%)" stroke-width="0.00114"></path>
<path d="M1.051 0.479 Q0.369 0.474 0.210 0.806" stroke="hsl(0.0,100%,35%)" stroke-width="0.00114"></path>
<path d="M1.051 0.479 Q1.032 0.385 0.844 0.373" stroke="hsl(0.0,100%,35%)" stroke-width="0.00114"></path>
<path d="M1.051 0.479 Q0.980 0.579 1.160 0.636" stroke="hsl(0.0,100%,35%)" stroke-width="0.00114"></path>
<path d="M1.046 0.678 Q0.825 0.678 0.775 0.785" stroke="hsl(0.0,100%,35%)" stroke-width="0.05139"></path>
<path d="M1.046 0.678 Q1.502 0.619 1.486 0.384" stroke="hsl(0.0,100%,35%)" stroke-width="0.02626"></path>
<path d="M1.046 0.678 Q1.614 0.526 1.442 0.216" stroke="hsl(0.0,100%,35%)" stroke-width="0.01941"></path>
<path d="M1.046 0.678 Q1.598 0.590 1.547 0.302" stroke="hsl(0.0,100%,35%)" stroke-width="0.00114"></path>
<path d="M1.046 0.678 Q1.208 0.580 1.051 0.479" stroke="hsl(0.0,100%,35%)" stroke-width="0.00343"></path>
<path d="M1.046 0.678 Q1.024 0.574 0.815 0.562" stroke="hsl(0.0,100%,35%)" stroke-width="0.00114"></path>
<path d="M1.046 0.678 Q1.014 0.620 0.894 0.624" stroke="hsl(0.0,100%,35%)" stroke-width="0.00114"></path>
<path d="M1.046 0.678 Q1.064 0.584 0.884 0.555" stroke="hsl(0.0,100%,35%)" stroke-width="0.00228"></path>
<path d="M1.046 0.678 Q1.568 0.541 1.415 0.256" stroke="hsl(0.0,100%,35%)" stroke-width="0.00114"></path>
<path d="M1.276 0.685 Q1.697 0.507 1.441 0.262" stroke="hsl(180.0,100%,35%)" stroke-width="0.00114"></path>
<path d="M1.276 0.685 Q1.231 0.708 1.266 0.735" stroke="hsl(180.0,100%,35%)" stroke-width="0.00114"></path>
<path d="M1.276 0.685 Q0.751 0.669 0.603 0.921" stroke="hsl(180.0,100%,35%)" stroke-width="0.00114"></path>
<path d="M1.276 0.685 Q1.735 0.484 1.442 0.216" stroke="hsl(180.0,100%,35%)" stroke-width="0.00228"></path>
<path d="M1.276 0.685 Q1.622 0.577 1.486 0.384" stroke="hsl(180.0,100%,35%)" stroke-width="0.00114"></path>
<path d="M1.276 0.685 Q0.946 0.635 0.775 0.785" stroke="hsl(180.0,100%,35%)" stroke-width="0.00114"></path>
<path d="M1.276 0.685 Q0.851 0.555 0.503 0.734" stroke="hsl(180.0,100%,35%)" stroke-width="0.00114"></path>
<path d="M0.603 0.921 Q0.457 0.896 0.374 0.961" stroke="hsl(180.0,100%,35%)" stroke-width="0.00228"></path>
<path d="M0.603 0.921 Q1.376 0.879 1.462 0.492" stroke="hsl(180.0,100%,35%)" stroke-width="0.00114"></path>
<path d="M0.603 0.921 Q1.297 0.756 1.126 0.381" stroke="hsl(180.0,100%,35%)" stroke-width="0.00114"></path>
<path d="M1.455 0.378 Q1.466 0.387 1.486 0.384" stroke="hsl(0.0,100%,35%)" stroke-width="0.00457"></path>
<path d="M1.455 0.378 Q1.578 0.294 1.442 0.216" stroke="hsl(0.0,100%,35%)" stroke-width="0.00343"></path>
<path d="M1.455 0.378 Q1.600 0.447 1.767 0.392" stroke="hsl(0.0,100%,35%)" stroke-width="0.00228"></path>
<path d="M1.455 0.378 Q1.172 0.347 1.051 0.479" stroke="hsl(0.0,100%,35%)" stroke-width="0.00114"></path>
<path d="M1.878 0.845 Q1.757 0.496 1.051 0.479" stroke="hsl(180.0,100%,35%)" stroke-width="0.00114"></path>
<path d="M1.878 0.845 Q1.538 0.713 1.206 0.850" stroke="hsl(180.0,100%,35%)" stroke-width="0.00457"></path>
<path d="M1.878 0.845 Q1.873 0.787 1.759 0.777" stroke="hsl(180.0,100%,35%)" stroke-width="0.00114"></path>
<path d="M1.878 0.845 Q1.935 0.795 1.851 0.757" stroke="hsl(180.0,100%,35%)" stroke-width="0.00114"></path>
<path d="M1.878 0.845 Q1.969 0.797 1.895 0.742" stroke="hsl(180.0,100%,35%)" stroke-width="0.00114"></path>
<path d="M1.878 0.845 Q1.820 0.846 1.810 0.875" stroke="hsl(180.0,100%,35%)" stroke-width="0.00114"></path>
<path d="M1.878 0.845 Q1.873 0.462 1.126 0.381" stroke="hsl(180.0,100%,35%)" stroke-width="0.00114"></path>
<path d="M1.878 0.845 Q1.913 0.780 1.795 0.749" stroke="hsl(180.0,100%,35%)" stroke-width="0.00114"></path>
<path d="M1.878 0.845 Q1.890 0.749 1.707 0.723" stroke="hsl(180.0,100%,35%)" stroke-width="0.00114"></path>
<path d="M1.878 0.845 Q2.126 0.466 1.441 0.262" stroke="hsl(180.0,100%,35%)" stroke-width="0.00114"></path>
<path d="M1.878 0.845 Q2.147 0.507 1.547 0.302" stroke="hsl(180.0,100%,35%)" stroke-width="0.00114"></path>
<path d="M1.190 0.234 Q1.218 0.368 1.486 0.384" stroke="hsl(0.0,100%,35%)" stroke-width="0.02512"></path>
<path d="M1.190 0.234 Q1.331 0.276 1.442 0.216" stroke="hsl(0.0,100%,35%)" stroke-width="0.02055"></path>
<path d="M1.190 0.234 Q1.069 0.343 1.256 0.426" stroke="hsl(0.0,100%,35%)" stroke-width="0.00228"></path>
<path d="M1.190 0.234 Q0.988 0.413 1.293 0.551" stroke="hsl(0.0,100%,35%)" stroke-width="0.01713"></path>
<path d="M1.190 0.234 Q0.763 0.427 1.046 0.678" stroke="hsl(0.0,100%,35%)" stroke-width="0.00228"></path>
<path d="M1.190 0.234 Q0.925 0.329 1.051 0.479" stroke="hsl(0.0,100%,35%)" stroke-width="0.00914"></path>
<path d="M1.190 0.234 Q1.314 0.339 1.547 0.302" stroke="hsl(0.0,100%,35%)" stroke-width="0.00228"></path>
<path d="M1.190 0.234 Q1.153 0.260 1.195 0.284" stroke="hsl(0.0,100%,35%)" stroke-width="0.00114"></path>
<path d="M1.190 0.234 Q1.225 0.450 1.653 0.480" stroke="hsl(0.0,100%,35%)" stroke-width="0.00114"></path>
<path d="M1.190 0.234 Q0.541 0.427 0.775 0.785" stroke="hsl(0.0,100%,35%)" stroke-width="0.00228"></path>
<path d="M1.293 0.551 Q1.523 0.506 1.486 0.384" stroke="hsl(0.0,100%,35%)" stroke-width="0.04225"></path>
<path d="M1.293 0.551 Q1.375 0.481 1.256 0.426" stroke="hsl(0.0,100%,35%)" stroke-width="0.00914"></path>
<path d="M1.293 0.551 Q1.495 0.372 1.190 0.234" stroke="hsl(0.0,100%,35%)" stroke-width="0.01256"></path>
<path d="M1.293 0.551 Q1.135 0.507 1.015 0.575" stroke="hsl(0.0,100%,35%)" stroke-width="0.00114"></path>
<path d="M1.293 0.551 Q1.636 0.413 1.442 0.216" stroke="hsl(0.0,100%,35%)" stroke-width="0.01256"></path>
<path d="M1.293 0.551 Q1.230 0.466 1.051 0.479" stroke="hsl(0.0,100%,35%)" stroke-width="0.03083"></path>
<path d="M1.293 0.551 Q1.572 0.544 1.620 0.407" stroke="hsl(0.0,100%,35%)" stroke-width="0.00114"></path>
<path d="M1.293 0.551 Q0.846 0.565 0.775 0.785" stroke="hsl(0.0,100%,35%)" stroke-width="0.00114"></path>
<path d="M1.293 0.551 Q1.619 0.477 1.547 0.302" stroke="hsl(0.0,100%,35%)" stroke-width="0.00228"></path>
<path d="M1.293 0.551 Q1.068 0.565 1.046 0.678" stroke="hsl(0.0,100%,35%)" stroke-width="0.00114"></path>
<path d="M1.293 0.551 Q0.608 0.518 0.393 0.845" stroke="hsl(0.0,100%,35%)" stroke-width="0.00114"></path>
<path d="M1.256 0.426 Q1.405 0.451 1.486 0.384" stroke="hsl(0.0,100%,35%)" stroke-width="0.05139"></path>
<path d="M1.256 0.426 Q1.377 0.317 1.190 0.234" stroke="hsl(0.0,100%,35%)" stroke-width="0.01028"></path>
<path d="M1.256 0.426 Q0.892 0.628 1.206 0.850" stroke="hsl(0.0,100%,35%)" stroke-width="0.00114"></path>
<path d="M1.256 0.426 Q1.175 0.496 1.293 0.551" stroke="hsl(0.0,100%,35%)" stroke-width="0.03768"></path>
<path d="M1.256 0.426 Q1.289 0.484 1.410 0.480" stroke="hsl(0.0,100%,35%)" stroke-width="0.00228"></path>
<path d="M1.256 0.426 Q1.517 0.358 1.442 0.216" stroke="hsl(0.0,100%,35%)" stroke-width="0.01941"></path>
<path d="M1.256 0.426 Q1.261 0.524 1.454 0.544" stroke="hsl(0.0,100%,35%)" stroke-width="0.00114"></path>
<path d="M1.256 0.426 Q1.226 0.539 1.440 0.578" stroke="hsl(0.0,100%,35%)" stroke-width="0.00114"></path>
<path d="M1.256 0.426 Q1.501 0.422 1.547 0.302" stroke="hsl(0.0,100%,35%)" stroke-width="0.00343"></path>
<path d="M1.256 0.426 Q1.306 0.500 1.462 0.492" stroke="hsl(0.0,100%,35%)" stroke-width="0.00228"></path>
<path d="M1.256 0.426 Q0.728 0.510 0.775 0.785" stroke="hsl(0.0,100%,35%)" stroke-width="0.00114"></path>
<path d="M1.256 0.426 Q0.633 0.429 0.503 0.734" stroke="hsl(0.0,100%,35%)" stroke-width="0.00114"></path>
<path d="M1.256 0.426 Q1.411 0.532 1.653 0.480" stroke="hsl(0.0,100%,35%)" stroke-width="0.00343"></path>
<path d="M1.256 0.426 Q1.111 0.411 1.051 0.479" stroke="hsl(0.0,100%,35%)" stroke-width="0.00228"></path>
<path d="M1.417 0.239 Q1.336 0.326 1.486 0.384" stroke="hsl(0.0,100%,35%)" stroke-width="0.00457"></path>
<path d="M1.417 0.239 Q1.448 0.233 1.442 0.216" stroke="hsl(0.0,100%,35%)" stroke-width="0.00457"></path>
<path d="M1.417 0.239 Q0.880 0.385 1.046 0.678" stroke="hsl(0.0,100%,35%)" stroke-width="0.00114"></path>
<path d="M1.417 0.239 Q1.042 0.286 1.051 0.479" stroke="hsl(0.0,100%,35%)" stroke-width="0.00114"></path>
<path d="M1.417 0.239 Q1.432 0.297 1.547 0.302" stroke="hsl(0.0,100%,35%)" stroke-width="0.00114"></path>
<path d="M1.653 0.480 Q1.647 0.399 1.486 0.384" stroke="hsl(0.0,100%,35%)" stroke-width="0.00685"></path>
<path d="M1.653 0.480 Q1.353 0.359 1.051 0.479" stroke="hsl(0.0,100%,35%)" stroke-width="0.00343"></path>
<path d="M1.653 0.480 Q1.317 0.276 0.845 0.395" stroke="hsl(0.0,100%,35%)" stroke-width="0.00228"></path>
<path d="M1.653 0.480 Q1.191 0.458 1.046 0.678" stroke="hsl(0.0,100%,35%)" stroke-width="0.00228"></path>
<path d="M1.653 0.480 Q1.759 0.306 1.442 0.216" stroke="hsl(0.0,100%,35%)" stroke-width="0.00228"></path>
<path d="M1.653 0.480 Q1.472 0.539 1.548 0.640" stroke="hsl(0.0,100%,35%)" stroke-width="0.00114"></path>
<path d="M1.653 0.480 Q1.695 0.437 1.620 0.407" stroke="hsl(0.0,100%,35%)" stroke-width="0.00114"></path>
<path d="M1.897 0.644 Q1.606 0.392 1.051 0.479" stroke="hsl(180.0,100%,35%)" stroke-width="0.00114"></path>
<path d="M1.897 0.644 Q1.875 0.682 1.945 0.701" stroke="hsl(180.0,100%,35%)" stroke-width="0.00114"></path>
<path d="M1.897 0.644 Q1.387 0.609 1.206 0.850" stroke="hsl(180.0,100%,35%)" stroke-width="0.00114"></path>
<path d="M1.897 0.644 Q1.817 0.604 1.722 0.634" stroke="hsl(180.0,100%,35%)" stroke-width="0.00343"></path>
<path d="M1.897 0.644 Q1.727 0.741 1.878 0.845" stroke="hsl(180.0,100%,35%)" stroke-width="0.00228"></path>
<path d="M1.897 0.644 Q1.128 0.410 0.503 0.734" stroke="hsl(180.0,100%,35%)" stroke-width="0.00114"></path>
<path d="M0.080 0.678 Q0.027 0.701 0.060 0.732" stroke="hsl(0.0,100%,35%)" stroke-width="0.00114"></path>
<path d="M0.080 0.678 Q0.725 0.773 1.051 0.479" stroke="hsl(0.0,100%,35%)" stroke-width="0.00114"></path>
<path d="M0.080 0.678 Q0.115 0.641 0.050 0.616" stroke="hsl(0.0,100%,35%)" stroke-width="0.00114"></path>
<path d="M1.722 0.634 Q1.804 0.462 1.486 0.384" stroke="hsl(180.0,100%,35%)" stroke-width="0.00228"></path>
<path d="M1.722 0.634 Q1.917 0.369 1.442 0.216" stroke="hsl(180.0,100%,35%)" stroke-width="0.00228"></path>
<path d="M1.722 0.634 Q1.511 0.422 1.051 0.479" stroke="hsl(180.0,100%,35%)" stroke-width="0.00114"></path>
<path d="M1.722 0.634 Q1.889 0.633 1.924 0.552" stroke="hsl(180.0,100%,35%)" stroke-width="0.00114"></path>
<path d="M1.722 0.634 Q1.801 0.674 1.897 0.644" stroke="hsl(180.0,100%,35%)" stroke-width="0.00114"></path>
<path d="M0.359 0.585 Q0.107 0.666 0.210 0.806" stroke="hsl(180.0,100%,35%)" stroke-width="0.00228"></path>
<path d="M0.359 0.585 Q1.196 0.617 1.442 0.216" stroke="hsl(180.0,100%,35%)" stroke-width="0.00228"></path>
<path d="M0.359 0.585 Q0.790 0.670 1.051 0.479" stroke="hsl(180.0,100%,35%)" stroke-width="0.00114"></path>
<path d="M0.359 0.585 Q0.503 0.513 0.395 0.427" stroke="hsl(180.0,100%,35%)" stroke-width="0.00114"></path>
<path d="M0.359 0.585 Q0.536 0.627 0.658 0.551" stroke="hsl(180.0,100%,35%)" stroke-width="0.00114"></path>
<path d="M0.359 0.585 Q0.286 0.501 0.106 0.518" stroke="hsl(180.0,100%,35%)" stroke-width="0.00114"></path>
<path d="M0.359 0.585 Q0.346 0.637 0.446 0.655" stroke="hsl(180.0,100%,35%)" stroke-width="0.00114"></path>
<path d="M0.359 0.585 Q0.214 0.607 0.225 0.683" stroke="hsl(180.0,100%,35%)" stroke-width="0.00114"></path>
<path d="M0.359 0.585 Q0.492 0.566 0.486 0.497" stroke="hsl(180.0,100%,35%)" stroke-width="0.00114"></path>
<path d="M0.359 0.585 Q0.510 0.534 0.444 0.450" stroke="hsl(180.0,100%,35%)" stroke-width="0.00114"></path>
<path d="M0.359 0.585 Q0.255 0.626 0.314 0.686" stroke="hsl(180.0,100%,35%)" stroke-width="0.00114"></path>
<path d="M0.359 0.585 Q0.358 0.533 0.258 0.522" stroke="hsl(180.0,100%,35%)" stroke-width="0.00114"></path>
<path d="M0.359 0.585 Q0.295 0.539 0.191 0.560" stroke="hsl(180.0,100%,35%)" stroke-width="0.00114"></path>
<path d="M0.359 0.585 Q0.211 0.802 0.603 0.921" stroke="hsl(180.0,100%,35%)" stroke-width="0.00114"></path>
<path d="M0.210 0.806 Q1.186 0.850 1.486 0.384" stroke="hsl(180.0,100%,35%)" stroke-width="0.00114"></path>
<path d="M0.210 0.806 Q0.314 0.942 0.603 0.921" stroke="hsl(180.0,100%,35%)" stroke-width="0.00114"></path>
<path d="M0.210 0.806 Q1.014 1.159 1.878 0.845" stroke="hsl(180.0,100%,35%)" stroke-width="0.00114"></path>
<path d="M0.210 0.806 Q0.270 0.862 0.393 0.845" stroke="hsl(180.0,100%,35%)" stroke-width="0.00114"></path>
<path d="M0.210 0.806 Q0.896 1.084 1.589 0.811" stroke="hsl(180.0,100%,35%)" stroke-width="0.00114"></path>
<path d="M0.210 0.806 Q0.731 0.909 1.046 0.678" stroke="hsl(180.0,100%,35%)" stroke-width="0.00114"></path>
<path d="M0.210 0.806 Q1.008 0.777 1.126 0.381" stroke="hsl(180.0,100%,35%)" stroke-width="0.00114"></path>
<path d="M0.210 0.806 Q0.309 0.837 0.390 0.795" stroke="hsl(180.0,100%,35%)" stroke-width="0.00114"></path>
<path d="M0.210 0.806 Q1.299 0.758 1.442 0.216" stroke="hsl(180.0,100%,35%)" stroke-width="0.00114"></path>
<path d="M0.210 0.806 Q0.414 0.829 0.503 0.734" stroke="hsl(180.0,100%,35%)" stroke-width="0.00114"></path>
<path d="M0.966 0.740 Q1.056 0.725 1.046 0.678" stroke="hsl(0.0,100%,35%)" stroke-width="0.00114"></path>
<path d="M0.966 0.740 Q1.624 0.574 1.442 0.216" stroke="hsl(0.0,100%,35%)" stroke-width="0.00114"></path>
<path d="M0.966 0.740 Q0.835 0.725 0.775 0.785" stroke="hsl(0.0,100%,35%)" stroke-width="0.00114"></path>
<path d="M0.335 0.220 Q0.483 0.242 0.559 0.175" stroke="hsl(0.0,100%,35%)" stroke-width="0.00114"></path>
<path d="M0.335 0.220 Q0.892 0.439 1.442 0.216" stroke="hsl(0.0,100%,35%)" stroke-width="0.00114"></path>
<path d="M0.335 0.220 Q0.403 0.164 0.309 0.119" stroke="hsl(0.0,100%,35%)" stroke-width="0.00114"></path>
<path d="M0.095 0.259 Q0.397 0.560 1.051 0.479" stroke="hsl(180.0,100%,35%)" stroke-width="0.00343"></path>
<path d="M0.095 0.259 Q0.114 0.339 0.274 0.347" stroke="hsl(180.0,100%,35%)" stroke-width="0.00228"></path>
<path d="M0.095 0.259 Q-0.051 0.341 0.077 0.430" stroke="hsl(180.0,100%,35%)" stroke-width="0.00228"></path>
<path d="M0.872 0.312 Q0.828 0.431 1.051 0.479" stroke="hsl(0.0,100%,35%)" stroke-width="0.01827"></path>
<path d="M0.872 0.312 Q1.234 0.378 1.442 0.216" stroke="hsl(0.0,100%,35%)" stroke-width="0.00685"></path>
<path d="M0.872 0.312 Q0.764 0.296 0.710 0.346" stroke="hsl(0.0,100%,35%)" stroke-width="0.00114"></path>
<path d="M0.872 0.312 Q0.252 0.368 0.225 0.683" stroke="hsl(0.0,100%,35%)" stroke-width="0.00114"></path>
<path d="M0.872 0.312 Q0.250 0.563 0.603 0.921" stroke="hsl(0.0,100%,35%)" stroke-width="0.00114"></path>
<path d="M0.872 0.312 Q0.800 0.343 0.847 0.386" stroke="hsl(0.0,100%,35%)" stroke-width="0.00228"></path>
<path d="M0.872 0.312 Q0.791 0.348 0.845 0.395" stroke="hsl(0.0,100%,35%)" stroke-width="0.00228"></path>
<path d="M0.872 0.312 Q0.800 0.328 0.817 0.367" stroke="hsl(0.0,100%,35%)" stroke-width="0.00114"></path>
<path d="M1.589 0.811 Q1.367 0.754 1.206 0.850" stroke="hsl(180.0,100%,35%)" stroke-width="0.00685"></path>
<path d="M1.589 0.811 Q1.586 0.537 1.051 0.479" stroke="hsl(180.0,100%,35%)" stroke-width="0.00114"></path>
<path d="M1.589 0.811 Q1.879 0.577 1.486 0.384" stroke="hsl(180.0,100%,35%)" stroke-width="0.00114"></path>
<path d="M1.589 0.811 Q1.540 0.858 1.622 0.893" stroke="hsl(180.0,100%,35%)" stroke-width="0.00228"></path>
<path d="M1.589 0.811 Q1.975 0.548 1.547 0.302" stroke="hsl(180.0,100%,35%)" stroke-width="0.00228"></path>
<path d="M1.589 0.811 Q1.452 0.810 1.421 0.877" stroke="hsl(180.0,100%,35%)" stroke-width="0.00228"></path>
<path d="M1.589 0.811 Q1.927 0.615 1.620 0.407" stroke="hsl(180.0,100%,35%)" stroke-width="0.00114"></path>
<path d="M1.589 0.811 Q1.108 0.555 0.503 0.734" stroke="hsl(180.0,100%,35%)" stroke-width="0.00114"></path>
<path d="M1.589 0.811 Q1.520 0.863 1.607 0.908" stroke="hsl(180.0,100%,35%)" stroke-width="0.00228"></path>
<path d="M1.589 0.811 Q1.837 0.616 1.512 0.452" stroke="hsl(180.0,100%,35%)" stroke-width="0.00114"></path>
<path d="M1.589 0.811 Q1.992 0.484 1.442 0.216" stroke="hsl(180.0,100%,35%)" stroke-width="0.00114"></path>
<path d="M1.589 0.811 Q1.391 0.818 1.362 0.917" stroke="hsl(180.0,100%,35%)" stroke-width="0.00114"></path>
<path d="M1.589 0.811 Q1.946 0.499 1.415 0.256" stroke="hsl(180.0,100%,35%)" stroke-width="0.00114"></path>
<path d="M1.589 0.811 Q1.426 0.841 1.449 0.928" stroke="hsl(180.0,100%,35%)" stroke-width="0.00114"></path>
<path d="M1.589 0.811 Q1.477 0.793 1.418 0.844" stroke="hsl(180.0,100%,35%)" stroke-width="0.00114"></path>
<path d="M1.589 0.811 Q1.464 0.874 1.561 0.950" stroke="hsl(180.0,100%,35%)" stroke-width="0.00114"></path>
<path d="M1.589 0.811 Q1.505 0.755 1.378 0.784" stroke="hsl(180.0,100%,35%)" stroke-width="0.00114"></path>
<path d="M1.589 0.811 Q1.138 0.318 0.077 0.430" stroke="hsl(180.0,100%,35%)" stroke-width="0.00114"></path>
<path d="M1.589 0.811 Q1.572 0.909 1.759 0.939" stroke="hsl(180.0,100%,35%)" stroke-width="0.00114"></path>
<path d="M1.589 0.811 Q1.424 0.851 1.467 0.940" stroke="hsl(180.0,100%,35%)" stroke-width="0.00114"></path>
<path d="M1.589 0.811 Q1.599 0.722 1.427 0.697" stroke="hsl(180.0,100%,35%)" stroke-width="0.00114"></path>
<path d="M0.555 0.352 Q0.541 0.400 0.632 0.417" stroke="hsl(180.0,100%,35%)" stroke-width="0.00114"></path>
<path d="M0.555 0.352 Q1.108 0.462 1.442 0.216" stroke="hsl(180.0,100%,35%)" stroke-width="0.00114"></path>
<path d="M0.555 0.352 Q0.640 0.331 0.617 0.285" stroke="hsl(180.0,100%,35%)" stroke-width="0.00114"></path>
<path d="M0.555 0.352 Q0.224 0.533 0.503 0.734" stroke="hsl(180.0,100%,35%)" stroke-width="0.00114"></path>
<path d="M0.997 0.993 Q1.109 0.966 1.081 0.906" stroke="hsl(180.0,100%,35%)" stroke-width="0.00343"></path>
<path d="M0.997 0.993 Q1.153 0.525 0.274 0.347" stroke="hsl(180.0,100%,35%)" stroke-width="0.00114"></path>
<path d="M0.997 0.993 Q0.987 0.527 0.077 0.430" stroke="hsl(180.0,100%,35%)" stroke-width="0.00114"></path>
<path d="M0.997 0.993 Q1.338 0.917 1.266 0.735" stroke="hsl(180.0,100%,35%)" stroke-width="0.00114"></path>
<path d="M0.997 0.993 Q1.128 1.037 1.243 0.983" stroke="hsl(180.0,100%,35%)" stroke-width="0.00228"></path>
<path d="M0.997 0.993 Q1.439 1.020 1.589 0.811" stroke="hsl(180.0,100%,35%)" stroke-width="0.00228"></path>
<path d="M0.997 0.993 Q1.630 0.835 1.462 0.492" stroke="hsl(180.0,100%,35%)" stroke-width="0.00228"></path>
<path d="M0.997 0.993 Q1.133 0.445 0.095 0.259" stroke="hsl(180.0,100%,35%)" stroke-width="0.00114"></path>
<path d="M1.921 0.448 Q1.755 0.329 1.486 0.384" stroke="hsl(0.0,100%,35%)" stroke-width="0.00799"></path>
<path d="M1.921 0.448 Q1.851 0.300 1.547 0.302" stroke="hsl(0.0,100%,35%)" stroke-width="0.00343"></path>
<path d="M1.921 0.448 Q1.889 0.389 1.767 0.392" stroke="hsl(0.0,100%,35%)" stroke-width="0.00114"></path>
<path d="M1.921 0.448 Q1.847 0.438 1.813 0.473" stroke="hsl(0.0,100%,35%)" stroke-width="0.00114"></path>
<path d="M1.921 0.448 Q1.461 0.289 1.051 0.479" stroke="hsl(0.0,100%,35%)" stroke-width="0.00457"></path>
<path d="M1.921 0.448 Q1.299 0.388 1.046 0.678" stroke="hsl(0.0,100%,35%)" stroke-width="0.00114"></path>
<path d="M1.921 0.448 Q1.783 0.517 1.888 0.599" stroke="hsl(0.0,100%,35%)" stroke-width="0.00114"></path>
<path d="M1.921 0.448 Q1.867 0.236 1.442 0.216" stroke="hsl(0.0,100%,35%)" stroke-width="0.00228"></path>
<path d="M1.921 0.448 Q1.803 0.367 1.620 0.407" stroke="hsl(0.0,100%,35%)" stroke-width="0.00114"></path>
<path d="M1.921 0.448 Q1.078 0.387 0.775 0.785" stroke="hsl(0.0,100%,35%)" stroke-width="0.00114"></path>
<path d="M1.921 0.448 Q1.726 0.195 1.190 0.234" stroke="hsl(0.0,100%,35%)" stroke-width="0.00114"></path>
<path d="M0.267 0.913 Q1.396 0.863 1.547 0.302" stroke="hsl(180.0,100%,35%)" stroke-width="0.00114"></path>
<path d="M0.267 0.913 Q0.249 0.921 0.261 0.931" stroke="hsl(180.0,100%,35%)" stroke-width="0.00114"></path>
<path d="M0.267 0.913 Q0.282 0.958 0.374 0.961" stroke="hsl(180.0,100%,35%)" stroke-width="0.00114"></path>
<path d="M1.749 0.245 Q1.619 0.169 1.442 0.216" stroke="hsl(0.0,100%,35%)" stroke-width="0.00228"></path>
<path d="M1.749 0.245 Q1.213 0.222 1.051 0.479" stroke="hsl(0.0,100%,35%)" stroke-width="0.00114"></path>
<path d="M1.749 0.245 Q1.507 0.262 1.486 0.384" stroke="hsl(0.0,100%,35%)" stroke-width="0.00228"></path>
</g>
<text x="1.540" y="0.565" font-size="0.010342" fill="hsl(0.0,100%,20%)">ajuma</text>
<text x="1.486" y="0.340" font-size="0.087996" fill="hsl(0.0,100%,20%)">bartekn</text>
<text x="1.051" y="0.441" font-size="0.076277" fill="hsl(0.0,100%,20%)">lizeb</text>
<text x="1.046" y="0.653" font-size="0.051293" fill="hsl(0.0,100%,20%)">bikineev</text>
<text x="1.276" y="0.679" font-size="0.013081" fill="hsl(180.0,100%,20%)">andre.kempe</text>
<text x="1.441" y="0.258" font-size="0.009250" fill="hsl(180.0,100%,20%)">agrieve</text>
<text x="1.266" y="0.732" font-size="0.006541" fill="hsl(180.0,100%,20%)">mfoltz</text>
<text x="0.603" y="0.914" font-size="0.013875" fill="hsl(180.0,100%,20%)">thakis</text>
<text x="1.442" y="0.188" font-size="0.056075" fill="hsl(0.0,100%,20%)">haraken</text>
<text x="0.775" y="0.769" font-size="0.033670" fill="hsl(0.0,100%,20%)">mlippautz</text>
<text x="0.503" y="0.728" font-size="0.012237" fill="hsl(180.0,100%,20%)">wez</text>
<text x="1.455" y="0.370" font-size="0.016021" fill="hsl(0.0,100%,20%)">arthursonzogni</text>
<text x="1.767" y="0.385" font-size="0.013875" fill="hsl(0.0,100%,20%)">glazunov</text>
<text x="1.878" y="0.835" font-size="0.019622" fill="hsl(180.0,100%,20%)">avi</text>
<text x="1.206" y="0.841" font-size="0.016676" fill="hsl(180.0,100%,20%)">danakj</text>
<text x="1.759" y="0.775" font-size="0.004625" fill="hsl(180.0,100%,20%)">garykac</text>
<text x="1.851" y="0.755" font-size="0.004625" fill="hsl(180.0,100%,20%)">khorimoto</text>
<text x="1.895" y="0.740" font-size="0.004625" fill="hsl(180.0,100%,20%)">mbonadei</text>
<text x="1.810" y="0.873" font-size="0.004625" fill="hsl(180.0,100%,20%)">rohitrao</text>
<text x="1.126" y="0.375" font-size="0.011329" fill="hsl(180.0,100%,20%)">rsesek</text>
<text x="1.795" y="0.746" font-size="0.004625" fill="hsl(180.0,100%,20%)">tedchoc</text>
<text x="1.707" y="0.720" font-size="0.004625" fill="hsl(180.0,100%,20%)">vovoy</text>
<text x="1.547" y="0.290" font-size="0.024473" fill="hsl(0.0,100%,20%)">dcheng</text>
<text x="1.190" y="0.211" font-size="0.047166" fill="hsl(0.0,100%,20%)">tasak</text>
<text x="0.374" y="0.956" font-size="0.010342" fill="hsl(180.0,100%,20%)">mark</text>
<text x="1.293" y="0.519" font-size="0.063583" fill="hsl(0.0,100%,20%)">yukishiino</text>
<text x="1.256" y="0.399" font-size="0.053137" fill="hsl(0.0,100%,20%)">kdlee</text>
<text x="0.844" y="0.370" font-size="0.006541" fill="hsl(0.0,100%,20%)">asully</text>
<text x="1.279" y="0.274" font-size="0.004625" fill="hsl(0.0,100%,20%)">hypan</text>
<text x="1.417" y="0.231" font-size="0.016676" fill="hsl(0.0,100%,20%)">richard.townsend</text>
<text x="1.620" y="0.401" font-size="0.011329" fill="hsl(0.0,100%,20%)">mpdenton</text>
<text x="0.845" y="0.389" font-size="0.013081" fill="hsl(0.0,100%,20%)">ssid</text>
<text x="1.415" y="0.251" font-size="0.009250" fill="hsl(0.0,100%,20%)">lukasza</text>
<text x="1.653" y="0.467" font-size="0.026968" fill="hsl(0.0,100%,20%)">keishi</text>
<text x="1.512" y="0.448" font-size="0.008011" fill="hsl(0.0,100%,20%)">gab</text>
<text x="1.410" y="0.476" font-size="0.009250" fill="hsl(0.0,100%,20%)">bgeffon</text>
<text x="1.897" y="0.636" font-size="0.015339" fill="hsl(180.0,100%,20%)">brucedawson</text>
<text x="0.080" y="0.673" font-size="0.010342" fill="hsl(0.0,100%,20%)">ellyjones</text>
<text x="1.558" y="0.550" font-size="0.004625" fill="hsl(0.0,100%,20%)">gbeaty</text>
<text x="1.462" y="0.486" font-size="0.011329" fill="hsl(180.0,100%,20%)">wfh</text>
<text x="1.888" y="0.596" font-size="0.006541" fill="hsl(0.0,100%,20%)">erikchen</text>
<text x="1.280" y="0.310" font-size="0.006541" fill="hsl(0.0,100%,20%)">agl</text>
<text x="1.556" y="0.455" font-size="0.004625" fill="hsl(0.0,100%,20%)">yukiy</text>
<text x="1.362" y="0.913" font-size="0.006541" fill="hsl(180.0,100%,20%)">kinuko</text>
<text x="1.230" y="0.611" font-size="0.006541" fill="hsl(0.0,100%,20%)">tikuta</text>
<text x="1.286" y="0.243" font-size="0.004625" fill="hsl(0.0,100%,20%)">sebmarchand</text>
<text x="1.484" y="0.456" font-size="0.004625" fill="hsl(0.0,100%,20%)">sweilun</text>
<text x="0.815" y="0.559" font-size="0.004625" fill="hsl(0.0,100%,20%)">oysteine</text>
<text x="0.894" y="0.621" font-size="0.004625" fill="hsl(0.0,100%,20%)">altimin</text>
<text x="0.884" y="0.552" font-size="0.006541" fill="hsl(0.0,100%,20%)">creis</text>
<text x="1.945" y="0.699" font-size="0.004625" fill="hsl(180.0,100%,20%)">cassew</text>
<text x="1.722" y="0.627" font-size="0.014625" fill="hsl(180.0,100%,20%)">palmer</text>
<text x="0.359" y="0.575" font-size="0.018500" fill="hsl(180.0,100%,20%)">dsanders11</text>
<text x="0.210" y="0.798" font-size="0.016676" fill="hsl(180.0,100%,20%)">thestig</text>
<text x="0.395" y="0.424" font-size="0.004625" fill="hsl(180.0,100%,20%)">acourbot</text>
<text x="0.658" y="0.548" font-size="0.004625" fill="hsl(180.0,100%,20%)">aleventhal</text>
<text x="0.106" y="0.516" font-size="0.004625" fill="hsl(180.0,100%,20%)">austinct</text>
<text x="0.446" y="0.653" font-size="0.004625" fill="hsl(180.0,100%,20%)">eseckler</text>
<text x="0.225" y="0.679" font-size="0.006541" fill="hsl(180.0,100%,20%)">jamiewalch</text>
<text x="0.486" y="0.495" font-size="0.004625" fill="hsl(180.0,100%,20%)">michaeldo</text>
<text x="0.444" y="0.447" font-size="0.004625" fill="hsl(180.0,100%,20%)">mmoskvitin</text>
<text x="0.314" y="0.684" font-size="0.004625" fill="hsl(180.0,100%,20%)">olivierrobin</text>
<text x="0.258" y="0.520" font-size="0.004625" fill="hsl(180.0,100%,20%)">tbansal</text>
<text x="0.191" y="0.557" font-size="0.004625" fill="hsl(180.0,100%,20%)">tguilbert</text>
<text x="0.060" y="0.730" font-size="0.004625" fill="hsl(0.0,100%,20%)">elainechien</text>
<text x="0.050" y="0.614" font-size="0.004625" fill="hsl(0.0,100%,20%)">tkent</text>
<text x="0.966" y="0.736" font-size="0.008011" fill="hsl(0.0,100%,20%)">hpayer</text>
<text x="0.335" y="0.216" font-size="0.008011" fill="hsl(0.0,100%,20%)">kbr</text>
<text x="0.559" y="0.173" font-size="0.004625" fill="hsl(0.0,100%,20%)">ccameron</text>
<text x="0.309" y="0.116" font-size="0.004625" fill="hsl(0.0,100%,20%)">martiniss</text>
<text x="1.454" y="0.541" font-size="0.004625" fill="hsl(0.0,100%,20%)">ayui</text>
<text x="1.440" y="0.576" font-size="0.004625" fill="hsl(0.0,100%,20%)">primiano</text>
<text x="1.548" y="0.638" font-size="0.004625" fill="hsl(0.0,100%,20%)">isherman</text>
<text x="0.095" y="0.252" font-size="0.013081" fill="hsl(180.0,100%,20%)">kmarshall</text>
<text x="0.274" y="0.343" font-size="0.008011" fill="hsl(180.0,100%,20%)">ddorwin</text>
<text x="0.077" y="0.426" font-size="0.009250" fill="hsl(180.0,100%,20%)">kylechar</text>
<text x="0.872" y="0.297" font-size="0.029614" fill="hsl(0.0,100%,20%)">thiabaud</text>
<text x="1.449" y="0.924" font-size="0.006541" fill="hsl(180.0,100%,20%)">fdoray</text>
<text x="1.085" y="0.256" font-size="0.008011" fill="hsl(0.0,100%,20%)">pasko</text>
<text x="1.156" y="0.481" font-size="0.004625" fill="hsl(0.0,100%,20%)">alexilin</text>
<text x="1.222" y="0.047" font-size="0.004625" fill="hsl(0.0,100%,20%)">msramek</text>
<text x="1.124" y="0.491" font-size="0.004625" fill="hsl(0.0,100%,20%)">mamir</text>
<text x="1.147" y="0.569" font-size="0.004625" fill="hsl(0.0,100%,20%)">amraboelkher</text>
<text x="1.024" y="0.311" font-size="0.004625" fill="hsl(0.0,100%,20%)">skyostil</text>
<text x="1.160" y="0.634" font-size="0.004625" fill="hsl(0.0,100%,20%)">etiennep</text>
<text x="1.924" y="0.549" font-size="0.004625" fill="hsl(180.0,100%,20%)">tsepez</text>
<text x="1.589" y="0.797" font-size="0.026568" fill="hsl(180.0,100%,20%)">pkasting</text>
<text x="1.622" y="0.889" font-size="0.006541" fill="hsl(180.0,100%,20%)">behdadb</text>
<text x="1.421" y="0.874" font-size="0.006541" fill="hsl(180.0,100%,20%)">nicolaso</text>
<text x="1.607" y="0.905" font-size="0.006541" fill="hsl(180.0,100%,20%)">pbos</text>
<text x="1.418" y="0.842" font-size="0.004625" fill="hsl(180.0,100%,20%)">abigailbklein</text>
<text x="1.561" y="0.947" font-size="0.004625" fill="hsl(180.0,100%,20%)">bajones</text>
<text x="1.378" y="0.781" font-size="0.004625" fill="hsl(180.0,100%,20%)">droger</text>
<text x="1.759" y="0.936" font-size="0.004625" fill="hsl(180.0,100%,20%)">renjietang</text>
<text x="1.467" y="0.938" font-size="0.004625" fill="hsl(180.0,100%,20%)">sadrul</text>
<text x="1.427" y="0.695" font-size="0.004625" fill="hsl(180.0,100%,20%)">sandersd</text>
<text x="0.555" y="0.348" font-size="0.009250" fill="hsl(180.0,100%,20%)">rohpavone</text>
<text x="0.632" y="0.415" font-size="0.004625" fill="hsl(180.0,100%,20%)">bsheedy</text>
<text x="0.617" y="0.283" font-size="0.004625" fill="hsl(180.0,100%,20%)">johnchen</text>
<text x="0.997" y="0.984" font-size="0.016676" fill="hsl(180.0,100%,20%)">rwkeane</text>
<text x="1.081" y="0.902" font-size="0.008011" fill="hsl(180.0,100%,20%)">ajgo</text>
<text x="1.243" y="0.980" font-size="0.006541" fill="hsl(180.0,100%,20%)">jshin</text>
<text x="1.921" y="0.437" font-size="0.022181" fill="hsl(0.0,100%,20%)">saelo</text>
<text x="1.813" y="0.470" font-size="0.004625" fill="hsl(0.0,100%,20%)">cbruni</text>
<text x="0.267" y="0.909" font-size="0.008011" fill="hsl(180.0,100%,20%)">ssyed</text>
<text x="0.261" y="0.929" font-size="0.004625" fill="hsl(180.0,100%,20%)">abhijeet</text>
<text x="1.749" y="0.240" font-size="0.010342" fill="hsl(0.0,100%,20%)">stha09</text>
<text x="1.195" y="0.282" font-size="0.004625" fill="hsl(0.0,100%,20%)">estaab</text>
<text x="0.393" y="0.842" font-size="0.006541" fill="hsl(180.0,100%,20%)">dpranke</text>
<text x="0.390" y="0.793" font-size="0.004625" fill="hsl(180.0,100%,20%)">sunnyps</text>
<text x="0.710" y="0.344" font-size="0.004625" fill="hsl(0.0,100%,20%)">dgozman</text>
<text x="0.847" y="0.382" font-size="0.006541" fill="hsl(0.0,100%,20%)">rkaplow</text>
<text x="0.817" y="0.365" font-size="0.004625" fill="hsl(0.0,100%,20%)">chanli</text>
<text x="1.015" y="0.573" font-size="0.004625" fill="hsl(0.0,100%,20%)">sdefresne</text>
</svg>
