<svg width="4000" height="2000" viewBox="-0.025 -0.025 2.05 1.05" xmlns="http://www.w3.org/2000/svg">
  <style>
    path {
      fill: none;
      stroke-linecap: round;
      stroke-opacity: 0.4;
    }

    text {
      text-anchor: middle;
      alignment-baseline: hanging;
    }
  </style>
  <g opacity="0.4">
<path d="M1.572 0.466 Q1.179 0.473 1.107 0.666" stroke="hsl(0.0,100%,35%)" stroke-width="0.00433"></path>
<path d="M1.572 0.466 Q1.427 0.438 1.340 0.502" stroke="hsl(0.0,100%,35%)" stroke-width="0.00866"></path>
<path d="M1.572 0.466 Q1.683 0.261 1.308 0.162" stroke="hsl(0.0,100%,35%)" stroke-width="0.01010"></path>
<path d="M1.572 0.466 Q0.919 0.409 0.665 0.716" stroke="hsl(0.0,100%,35%)" stroke-width="0.00577"></path>
<path d="M1.572 0.466 Q0.788 0.474 0.631 0.858" stroke="hsl(0.0,100%,35%)" stroke-width="0.00144"></path>
<path d="M1.572 0.466 Q1.592 0.316 1.304 0.273" stroke="hsl(0.0,100%,35%)" stroke-width="0.00144"></path>
<path d="M1.107 0.666 Q1.026 0.557 0.796 0.572" stroke="hsl(0.0,100%,35%)" stroke-width="0.01732"></path>
<path d="M1.107 0.666 Q1.160 0.567 0.979 0.520" stroke="hsl(0.0,100%,35%)" stroke-width="0.01443"></path>
<path d="M1.107 0.666 Q1.354 0.631 1.340 0.502" stroke="hsl(0.0,100%,35%)" stroke-width="0.01299"></path>
<path d="M1.107 0.666 Q0.846 0.602 0.665 0.716" stroke="hsl(0.0,100%,35%)" stroke-width="0.02309"></path>
<path d="M1.107 0.666 Q0.716 0.667 0.631 0.858" stroke="hsl(0.0,100%,35%)" stroke-width="0.01010"></path>
<path d="M1.107 0.666 Q1.099 0.520 0.814 0.492" stroke="hsl(0.0,100%,35%)" stroke-width="0.00144"></path>
<path d="M1.107 0.666 Q1.346 0.401 0.881 0.226" stroke="hsl(0.0,100%,35%)" stroke-width="0.00144"></path>
<path d="M1.107 0.666 Q1.221 0.572 1.063 0.495" stroke="hsl(0.0,100%,35%)" stroke-width="0.01155"></path>
<path d="M1.107 0.666 Q0.650 0.735 0.685 0.973" stroke="hsl(0.0,100%,35%)" stroke-width="0.00433"></path>
<path d="M1.107 0.666 Q1.124 0.561 0.923 0.529" stroke="hsl(0.0,100%,35%)" stroke-width="0.00289"></path>
<path d="M1.107 0.666 Q1.200 0.540 0.975 0.466" stroke="hsl(0.0,100%,35%)" stroke-width="0.00144"></path>
<path d="M1.107 0.666 Q1.519 0.509 1.304 0.273" stroke="hsl(0.0,100%,35%)" stroke-width="0.01010"></path>
<path d="M1.107 0.666 Q0.755 0.704 0.752 0.883" stroke="hsl(0.0,100%,35%)" stroke-width="0.00144"></path>
<path d="M1.107 0.666 Q1.117 0.515 0.825 0.476" stroke="hsl(0.0,100%,35%)" stroke-width="0.00144"></path>
<path d="M1.107 0.666 Q1.449 0.299 0.809 0.052" stroke="hsl(0.0,100%,35%)" stroke-width="0.00144"></path>
<path d="M1.107 0.666 Q0.687 0.384 0.045 0.526" stroke="hsl(0.0,100%,35%)" stroke-width="0.00433"></path>
<path d="M1.107 0.666 Q0.944 0.526 0.636 0.575" stroke="hsl(0.0,100%,35%)" stroke-width="0.00144"></path>
<path d="M1.107 0.666 Q1.016 0.571 0.810 0.594" stroke="hsl(0.0,100%,35%)" stroke-width="0.00144"></path>
<path d="M1.107 0.666 Q1.600 0.592 1.565 0.335" stroke="hsl(0.0,100%,35%)" stroke-width="0.00144"></path>
<path d="M1.107 0.666 Q1.611 0.454 1.308 0.162" stroke="hsl(0.0,100%,35%)" stroke-width="0.00722"></path>
<path d="M1.107 0.666 Q0.901 0.655 0.835 0.753" stroke="hsl(0.0,100%,35%)" stroke-width="0.00144"></path>
<path d="M1.340 0.502 Q1.596 0.325 1.308 0.162" stroke="hsl(0.0,100%,35%)" stroke-width="0.04041"></path>
<path d="M1.340 0.502 Q1.505 0.380 1.304 0.273" stroke="hsl(0.0,100%,35%)" stroke-width="0.01443"></path>
<path d="M1.340 0.502 Q1.012 0.429 0.796 0.572" stroke="hsl(0.0,100%,35%)" stroke-width="0.01443"></path>
<path d="M1.340 0.502 Q1.092 0.537 1.107 0.666" stroke="hsl(0.0,100%,35%)" stroke-width="0.01876"></path>
<path d="M1.340 0.502 Q1.488 0.279 1.086 0.158" stroke="hsl(0.0,100%,35%)" stroke-width="0.00144"></path>
<path d="M1.340 0.502 Q0.701 0.538 0.631 0.858" stroke="hsl(0.0,100%,35%)" stroke-width="0.00289"></path>
<path d="M1.340 0.502 Q0.887 0.526 0.835 0.753" stroke="hsl(0.0,100%,35%)" stroke-width="0.00144"></path>
<path d="M1.340 0.502 Q1.311 0.402 1.108 0.394" stroke="hsl(0.0,100%,35%)" stroke-width="0.00144"></path>
<path d="M1.308 0.162 Q0.543 0.310 0.665 0.716" stroke="hsl(0.0,100%,35%)" stroke-width="0.00433"></path>
<path d="M1.308 0.162 Q1.476 0.181 1.550 0.103" stroke="hsl(0.0,100%,35%)" stroke-width="0.00144"></path>
<path d="M1.308 0.162 Q1.216 0.217 1.304 0.273" stroke="hsl(0.0,100%,35%)" stroke-width="0.03320"></path>
<path d="M1.308 0.162 Q0.804 0.373 1.107 0.666" stroke="hsl(0.0,100%,35%)" stroke-width="0.00866"></path>
<path d="M1.308 0.162 Q0.918 0.280 1.063 0.495" stroke="hsl(0.0,100%,35%)" stroke-width="0.00144"></path>
<path d="M1.308 0.162 Q0.385 0.091 0.045 0.526" stroke="hsl(0.0,100%,35%)" stroke-width="0.00144"></path>
<path d="M1.308 0.162 Q1.320 0.218 1.432 0.225" stroke="hsl(0.0,100%,35%)" stroke-width="0.00722"></path>
<path d="M1.308 0.162 Q0.599 0.363 0.835 0.753" stroke="hsl(0.0,100%,35%)" stroke-width="0.00289"></path>
<path d="M1.308 0.162 Q1.473 0.174 1.532 0.096" stroke="hsl(0.0,100%,35%)" stroke-width="0.00144"></path>
<path d="M1.308 0.162 Q0.453 0.411 0.752 0.883" stroke="hsl(0.0,100%,35%)" stroke-width="0.00144"></path>
<path d="M1.308 0.162 Q1.052 0.338 1.340 0.502" stroke="hsl(0.0,100%,35%)" stroke-width="0.00722"></path>
<path d="M1.308 0.162 Q0.413 0.374 0.631 0.858" stroke="hsl(0.0,100%,35%)" stroke-width="0.00144"></path>
<path d="M1.308 0.162 Q0.723 0.265 0.796 0.572" stroke="hsl(0.0,100%,35%)" stroke-width="0.00433"></path>
<path d="M1.308 0.162 Q0.459 0.289 0.521 0.732" stroke="hsl(0.0,100%,35%)" stroke-width="0.00144"></path>
<path d="M0.665 0.716 Q0.534 0.780 0.631 0.858" stroke="hsl(0.0,100%,35%)" stroke-width="0.00577"></path>
<path d="M0.665 0.716 Q0.926 0.779 1.107 0.666" stroke="hsl(0.0,100%,35%)" stroke-width="0.03608"></path>
<path d="M0.665 0.716 Q1.321 0.521 1.086 0.158" stroke="hsl(0.0,100%,35%)" stroke-width="0.00144"></path>
<path d="M0.665 0.716 Q0.469 0.848 0.685 0.973" stroke="hsl(0.0,100%,35%)" stroke-width="0.00289"></path>
<path d="M0.665 0.716 Q1.430 0.567 1.308 0.162" stroke="hsl(0.0,100%,35%)" stroke-width="0.00866"></path>
<path d="M0.665 0.716 Q0.845 0.670 0.796 0.572" stroke="hsl(0.0,100%,35%)" stroke-width="0.03031"></path>
<path d="M0.665 0.716 Q0.720 0.768 0.835 0.753" stroke="hsl(0.0,100%,35%)" stroke-width="0.01299"></path>
<path d="M0.665 0.716 Q1.173 0.744 1.340 0.502" stroke="hsl(0.0,100%,35%)" stroke-width="0.00289"></path>
<path d="M0.665 0.716 Q0.864 0.850 1.170 0.782" stroke="hsl(0.0,100%,35%)" stroke-width="0.00144"></path>
<path d="M0.665 0.716 Q1.165 0.514 0.881 0.226" stroke="hsl(0.0,100%,35%)" stroke-width="0.00144"></path>
<path d="M0.665 0.716 Q0.654 0.524 0.277 0.487" stroke="hsl(0.0,100%,35%)" stroke-width="0.00144"></path>
<path d="M0.665 0.716 Q1.338 0.622 1.304 0.273" stroke="hsl(0.0,100%,35%)" stroke-width="0.00577"></path>
<path d="M0.665 0.716 Q0.763 0.640 0.636 0.575" stroke="hsl(0.0,100%,35%)" stroke-width="0.00577"></path>
<path d="M0.665 0.716 Q1.382 0.696 1.501 0.342" stroke="hsl(0.0,100%,35%)" stroke-width="0.00289"></path>
<path d="M0.665 0.716 Q0.786 0.835 1.047 0.803" stroke="hsl(0.0,100%,35%)" stroke-width="0.00144"></path>
<path d="M0.665 0.716 Q1.441 0.624 1.432 0.225" stroke="hsl(0.0,100%,35%)" stroke-width="0.00289"></path>
<path d="M0.665 0.716 Q0.838 0.783 1.008 0.714" stroke="hsl(0.0,100%,35%)" stroke-width="0.00144"></path>
<path d="M0.665 0.716 Q0.854 0.801 1.062 0.728" stroke="hsl(0.0,100%,35%)" stroke-width="0.00144"></path>
<path d="M0.665 0.716 Q0.755 0.787 0.914 0.758" stroke="hsl(0.0,100%,35%)" stroke-width="0.00144"></path>
<path d="M0.665 0.716 Q1.063 0.473 0.678 0.226" stroke="hsl(0.0,100%,35%)" stroke-width="0.00144"></path>
<path d="M0.665 0.716 Q0.799 0.778 0.950 0.726" stroke="hsl(0.0,100%,35%)" stroke-width="0.00144"></path>
<path d="M0.631 0.858 Q1.022 0.857 1.107 0.666" stroke="hsl(0.0,100%,35%)" stroke-width="0.03753"></path>
<path d="M0.631 0.858 Q0.565 0.926 0.685 0.973" stroke="hsl(0.0,100%,35%)" stroke-width="0.05773"></path>
<path d="M0.631 0.858 Q1.526 0.645 1.308 0.162" stroke="hsl(0.0,100%,35%)" stroke-width="0.01010"></path>
<path d="M0.631 0.858 Q0.762 0.793 0.665 0.716" stroke="hsl(0.0,100%,35%)" stroke-width="0.00289"></path>
<path d="M0.631 0.858 Q0.663 0.678 0.320 0.623" stroke="hsl(0.0,100%,35%)" stroke-width="0.00144"></path>
<path d="M0.631 0.858 Q1.435 0.700 1.304 0.273" stroke="hsl(0.0,100%,35%)" stroke-width="0.00144"></path>
<path d="M0.631 0.858 Q0.817 0.846 0.835 0.753" stroke="hsl(0.0,100%,35%)" stroke-width="0.00289"></path>
<path d="M0.631 0.858 Q0.532 0.837 0.470 0.880" stroke="hsl(0.0,100%,35%)" stroke-width="0.00144"></path>
<path d="M0.631 0.858 Q0.942 0.748 0.796 0.572" stroke="hsl(0.0,100%,35%)" stroke-width="0.00722"></path>
<path d="M0.631 0.858 Q0.603 0.575 0.045 0.526" stroke="hsl(0.0,100%,35%)" stroke-width="0.00144"></path>
<path d="M0.631 0.858 Q0.671 0.895 0.752 0.883" stroke="hsl(0.0,100%,35%)" stroke-width="0.00577"></path>
<path d="M0.631 0.858 Q1.262 0.592 0.881 0.226" stroke="hsl(0.0,100%,35%)" stroke-width="0.00577"></path>
<path d="M0.631 0.858 Q1.076 0.758 0.979 0.520" stroke="hsl(0.0,100%,35%)" stroke-width="0.00144"></path>
<path d="M1.304 0.273 Q0.630 0.367 0.665 0.716" stroke="hsl(0.0,100%,35%)" stroke-width="0.00289"></path>
<path d="M1.304 0.273 Q1.395 0.218 1.308 0.162" stroke="hsl(0.0,100%,35%)" stroke-width="0.01299"></path>
<path d="M1.304 0.273 Q0.891 0.430 1.107 0.666" stroke="hsl(0.0,100%,35%)" stroke-width="0.00144"></path>
<path d="M1.304 0.273 Q0.686 0.419 0.835 0.753" stroke="hsl(0.0,100%,35%)" stroke-width="0.00144"></path>
<path d="M1.304 0.273 Q1.181 0.237 1.083 0.289" stroke="hsl(0.0,100%,35%)" stroke-width="0.00144"></path>
<path d="M1.304 0.273 Q1.214 0.296 1.239 0.345" stroke="hsl(0.0,100%,35%)" stroke-width="0.00144"></path>
<path d="M1.304 0.273 Q1.326 0.348 1.476 0.353" stroke="hsl(0.0,100%,35%)" stroke-width="0.00144"></path>
<path d="M1.304 0.273 Q1.348 0.347 1.501 0.342" stroke="hsl(0.0,100%,35%)" stroke-width="0.00289"></path>
<path d="M1.304 0.273 Q1.407 0.275 1.432 0.225" stroke="hsl(0.0,100%,35%)" stroke-width="0.00144"></path>
<path d="M1.304 0.273 Q0.944 0.332 0.979 0.520" stroke="hsl(0.0,100%,35%)" stroke-width="0.00289"></path>
<path d="M1.304 0.273 Q1.233 0.064 0.809 0.052" stroke="hsl(0.0,100%,35%)" stroke-width="0.00144"></path>
<path d="M0.090 0.295 Q0.086 0.358 0.208 0.373" stroke="hsl(0.0,100%,35%)" stroke-width="0.00144"></path>
<path d="M0.090 0.295 Q-0.118 0.401 0.045 0.526" stroke="hsl(0.0,100%,35%)" stroke-width="0.00433"></path>
<path d="M0.090 0.295 Q0.172 0.310 0.221 0.273" stroke="hsl(0.0,100%,35%)" stroke-width="0.00144"></path>
<path d="M0.090 0.295 Q0.215 0.337 0.326 0.286" stroke="hsl(0.0,100%,35%)" stroke-width="0.00144"></path>
<path d="M0.045 0.526 Q0.703 0.543 0.881 0.226" stroke="hsl(0.0,100%,35%)" stroke-width="0.00144"></path>
<path d="M0.045 0.526 Q0.055 0.610 0.222 0.624" stroke="hsl(0.0,100%,35%)" stroke-width="0.00144"></path>
<path d="M0.045 0.526 Q0.192 0.553 0.277 0.487" stroke="hsl(0.0,100%,35%)" stroke-width="0.00289"></path>
<path d="M0.045 0.526 Q-0.035 0.596 0.084 0.650" stroke="hsl(0.0,100%,35%)" stroke-width="0.00144"></path>
<path d="M0.045 0.526 Q0.464 0.808 1.107 0.666" stroke="hsl(0.0,100%,35%)" stroke-width="0.00144"></path>
<path d="M0.045 0.526 Q0.876 0.651 1.304 0.273" stroke="hsl(0.0,100%,35%)" stroke-width="0.00577"></path>
<path d="M0.814 0.492 Q0.821 0.637 1.107 0.666" stroke="hsl(0.0,100%,35%)" stroke-width="0.00866"></path>
<path d="M0.814 0.492 Q1.061 0.372 0.881 0.226" stroke="hsl(0.0,100%,35%)" stroke-width="0.00289"></path>
<path d="M0.814 0.492 Q0.430 0.638 0.631 0.858" stroke="hsl(0.0,100%,35%)" stroke-width="0.00289"></path>
<path d="M0.814 0.492 Q0.842 0.176 0.230 0.093" stroke="hsl(0.0,100%,35%)" stroke-width="0.00144"></path>
<path d="M0.685 0.973 Q0.936 0.893 0.835 0.753" stroke="hsl(0.0,100%,35%)" stroke-width="0.00144"></path>
<path d="M0.685 0.973 Q0.707 0.845 0.462 0.806" stroke="hsl(0.0,100%,35%)" stroke-width="0.00433"></path>
<path d="M0.685 0.973 Q1.484 0.537 0.809 0.052" stroke="hsl(0.0,100%,35%)" stroke-width="0.00289"></path>
<path d="M0.685 0.973 Q1.509 0.589 0.942 0.103" stroke="hsl(0.0,100%,35%)" stroke-width="0.00289"></path>
<path d="M0.685 0.973 Q0.722 0.622 0.045 0.526" stroke="hsl(0.0,100%,35%)" stroke-width="0.00144"></path>
<path d="M0.685 0.973 Q0.528 0.884 0.321 0.941" stroke="hsl(0.0,100%,35%)" stroke-width="0.00144"></path>
<path d="M0.835 0.753 Q0.649 0.764 0.631 0.858" stroke="hsl(0.0,100%,35%)" stroke-width="0.00289"></path>
<path d="M0.835 0.753 Q0.877 0.624 0.636 0.575" stroke="hsl(0.0,100%,35%)" stroke-width="0.00144"></path>
<path d="M0.835 0.753 Q1.040 0.764 1.107 0.666" stroke="hsl(0.0,100%,35%)" stroke-width="0.00144"></path>
<path d="M0.835 0.753 Q1.544 0.552 1.308 0.162" stroke="hsl(0.0,100%,35%)" stroke-width="0.00433"></path>
<path d="M0.835 0.753 Q0.778 0.597 0.461 0.590" stroke="hsl(0.0,100%,35%)" stroke-width="0.00144"></path>
<path d="M0.796 0.572 Q0.877 0.681 1.107 0.666" stroke="hsl(0.0,100%,35%)" stroke-width="0.02021"></path>
<path d="M0.796 0.572 Q0.616 0.618 0.665 0.716" stroke="hsl(0.0,100%,35%)" stroke-width="0.00144"></path>
<path d="M0.796 0.572 Q0.912 0.536 0.867 0.472" stroke="hsl(0.0,100%,35%)" stroke-width="0.00144"></path>
<path d="M0.796 0.572 Q0.739 0.711 0.997 0.769" stroke="hsl(0.0,100%,35%)" stroke-width="0.00144"></path>
<path d="M0.796 0.572 Q1.381 0.469 1.308 0.162" stroke="hsl(0.0,100%,35%)" stroke-width="0.00289"></path>
<path d="M0.796 0.572 Q0.674 0.672 0.842 0.754" stroke="hsl(0.0,100%,35%)" stroke-width="0.00144"></path>
<path d="M0.942 0.103 Q0.813 0.152 0.881 0.226" stroke="hsl(0.0,100%,35%)" stroke-width="0.00866"></path>
<path d="M0.942 0.103 Q1.078 0.206 1.308 0.162" stroke="hsl(0.0,100%,35%)" stroke-width="0.00144"></path>
<path d="M0.942 0.103 Q0.493 0.309 0.796 0.572" stroke="hsl(0.0,100%,35%)" stroke-width="0.00144"></path>
<path d="M0.942 0.103 Q0.916 0.051 0.809 0.052" stroke="hsl(0.0,100%,35%)" stroke-width="0.00722"></path>
<path d="M1.063 0.495 Q0.557 0.590 0.631 0.858" stroke="hsl(0.0,100%,35%)" stroke-width="0.00144"></path>
<path d="M1.063 0.495 Q0.948 0.589 1.107 0.666" stroke="hsl(0.0,100%,35%)" stroke-width="0.01010"></path>
<path d="M1.063 0.495 Q0.743 0.579 0.835 0.753" stroke="hsl(0.0,100%,35%)" stroke-width="0.00577"></path>
<path d="M1.063 0.495 Q1.196 0.554 1.340 0.502" stroke="hsl(0.0,100%,35%)" stroke-width="0.00144"></path>
<path d="M0.923 0.529 Q0.906 0.634 1.107 0.666" stroke="hsl(0.0,100%,35%)" stroke-width="0.00144"></path>
<path d="M0.923 0.529 Q0.700 0.623 0.835 0.753" stroke="hsl(0.0,100%,35%)" stroke-width="0.00144"></path>
<path d="M0.923 0.529 Q0.825 0.526 0.796 0.572" stroke="hsl(0.0,100%,35%)" stroke-width="0.00144"></path>
<path d="M1.565 0.335 Q0.652 0.127 0.045 0.526" stroke="hsl(0.0,100%,35%)" stroke-width="0.00144"></path>
<path d="M1.565 0.335 Q1.319 0.374 1.340 0.502" stroke="hsl(0.0,100%,35%)" stroke-width="0.00289"></path>
<path d="M1.565 0.335 Q0.991 0.300 0.796 0.572" stroke="hsl(0.0,100%,35%)" stroke-width="0.00144"></path>
<path d="M0.462 0.806 Q0.551 0.780 0.521 0.732" stroke="hsl(0.0,100%,35%)" stroke-width="0.00144"></path>
<path d="M0.462 0.806 Q1.400 0.653 1.308 0.162" stroke="hsl(0.0,100%,35%)" stroke-width="0.00144"></path>
<path d="M0.462 0.806 Q0.691 0.854 0.835 0.753" stroke="hsl(0.0,100%,35%)" stroke-width="0.00144"></path>
<path d="M1.028 0.112 Q1.020 0.147 1.086 0.158" stroke="hsl(0.0,100%,35%)" stroke-width="0.00144"></path>
<path d="M1.028 0.112 Q0.544 0.296 0.796 0.572" stroke="hsl(0.0,100%,35%)" stroke-width="0.00144"></path>
<path d="M1.028 0.112 Q0.624 0.405 1.107 0.666" stroke="hsl(0.0,100%,35%)" stroke-width="0.00144"></path>
<path d="M0.461 0.590 Q1.066 0.391 0.809 0.052" stroke="hsl(0.0,100%,35%)" stroke-width="0.00144"></path>
<path d="M0.461 0.590 Q0.518 0.746 0.835 0.753" stroke="hsl(0.0,100%,35%)" stroke-width="0.00289"></path>
<path d="M0.461 0.590 Q0.426 0.583 0.404 0.599" stroke="hsl(0.0,100%,35%)" stroke-width="0.00144"></path>
<path d="M0.461 0.590 Q0.963 0.492 0.881 0.226" stroke="hsl(0.0,100%,35%)" stroke-width="0.00144"></path>
<path d="M0.461 0.590 Q0.332 0.758 0.631 0.858" stroke="hsl(0.0,100%,35%)" stroke-width="0.00144"></path>
<path d="M0.247 0.169 Q0.195 0.140 0.126 0.158" stroke="hsl(0.0,100%,35%)" stroke-width="0.00144"></path>
<path d="M0.247 0.169 Q0.519 0.324 0.881 0.226" stroke="hsl(0.0,100%,35%)" stroke-width="0.00144"></path>
<path d="M0.247 0.169 Q0.310 0.258 0.497 0.247" stroke="hsl(0.0,100%,35%)" stroke-width="0.00144"></path>
<path d="M0.521 0.732 Q0.866 0.816 1.107 0.666" stroke="hsl(0.0,100%,35%)" stroke-width="0.00144"></path>
<path d="M0.521 0.732 Q0.432 0.757 0.462 0.806" stroke="hsl(0.0,100%,35%)" stroke-width="0.00144"></path>
<path d="M0.521 0.732 Q0.884 0.711 0.923 0.529" stroke="hsl(0.0,100%,35%)" stroke-width="0.00144"></path>
<path d="M0.521 0.732 Q0.655 0.427 0.090 0.295" stroke="hsl(0.0,100%,35%)" stroke-width="0.00144"></path>
<path d="M0.556 0.441 Q0.446 0.652 0.835 0.753" stroke="hsl(0.0,100%,35%)" stroke-width="0.00144"></path>
<path d="M0.556 0.441 Q0.389 0.496 0.461 0.590" stroke="hsl(0.0,100%,35%)" stroke-width="0.00144"></path>
<path d="M0.556 0.441 Q0.152 0.451 0.084 0.650" stroke="hsl(0.0,100%,35%)" stroke-width="0.00144"></path>
<path d="M0.084 0.650 Q0.163 0.580 0.045 0.526" stroke="hsl(0.0,100%,35%)" stroke-width="0.00577"></path>
<path d="M0.084 0.650 Q0.377 0.852 0.835 0.753" stroke="hsl(0.0,100%,35%)" stroke-width="0.00144"></path>
<path d="M0.084 0.650 Q0.223 0.684 0.320 0.623" stroke="hsl(0.0,100%,35%)" stroke-width="0.00144"></path>
<path d="M0.084 0.650 Q0.001 0.690 0.059 0.739" stroke="hsl(0.0,100%,35%)" stroke-width="0.00144"></path>
<path d="M0.084 0.650 Q0.582 0.863 1.107 0.666" stroke="hsl(0.0,100%,35%)" stroke-width="0.00144"></path>
<path d="M1.551 0.601 Q1.071 0.533 0.835 0.753" stroke="hsl(0.0,100%,35%)" stroke-width="0.00144"></path>
<path d="M1.551 0.601 Q1.410 0.595 1.368 0.663" stroke="hsl(0.0,100%,35%)" stroke-width="0.00144"></path>
<path d="M1.551 0.601 Q1.516 0.279 0.881 0.226" stroke="hsl(0.0,100%,35%)" stroke-width="0.00433"></path>
<path d="M1.551 0.601 Q1.781 0.332 1.308 0.162" stroke="hsl(0.0,100%,35%)" stroke-width="0.00144"></path>
<path d="M1.551 0.601 Q1.277 0.544 1.107 0.666" stroke="hsl(0.0,100%,35%)" stroke-width="0.00144"></path>
<path d="M1.551 0.601 Q1.272 0.695 1.394 0.852" stroke="hsl(0.0,100%,35%)" stroke-width="0.00144"></path>
<path d="M0.219 0.854 Q0.328 0.810 0.266 0.747" stroke="hsl(0.0,100%,35%)" stroke-width="0.00144"></path>
<path d="M0.219 0.854 Q0.608 0.926 0.835 0.753" stroke="hsl(0.0,100%,35%)" stroke-width="0.00144"></path>
<path d="M0.219 0.854 Q0.157 0.909 0.251 0.952" stroke="hsl(0.0,100%,35%)" stroke-width="0.00144"></path>
<path d="M0.386 0.365 Q0.476 0.392 0.547 0.354" stroke="hsl(0.0,100%,35%)" stroke-width="0.00144"></path>
<path d="M0.386 0.365 Q0.087 0.378 0.045 0.526" stroke="hsl(0.0,100%,35%)" stroke-width="0.00289"></path>
<path d="M0.386 0.365 Q0.506 0.660 1.107 0.666" stroke="hsl(0.0,100%,35%)" stroke-width="0.00289"></path>
<path d="M0.386 0.365 Q1.010 0.448 1.308 0.162" stroke="hsl(0.0,100%,35%)" stroke-width="0.00144"></path>
<path d="M0.616 0.134 Q0.436 0.498 1.107 0.666" stroke="hsl(0.0,100%,35%)" stroke-width="0.00144"></path>
<path d="M0.616 0.134 Q0.655 0.084 0.566 0.054" stroke="hsl(0.0,100%,35%)" stroke-width="0.00144"></path>
<path d="M0.616 0.134 Q0.574 0.192 0.678 0.226" stroke="hsl(0.0,100%,35%)" stroke-width="0.00144"></path>
<path d="M0.375 0.065 Q-0.159 0.229 0.045 0.526" stroke="hsl(0.0,100%,35%)" stroke-width="0.00144"></path>
<path d="M0.375 0.065 Q0.280 0.050 0.230 0.093" stroke="hsl(0.0,100%,35%)" stroke-width="0.00144"></path>
<path d="M0.375 0.065 Q0.179 0.403 0.796 0.572" stroke="hsl(0.0,100%,35%)" stroke-width="0.00144"></path>
<path d="M0.375 0.065 Q0.764 0.300 1.308 0.162" stroke="hsl(0.0,100%,35%)" stroke-width="0.00144"></path>
<path d="M1.028 0.334 Q1.041 0.250 0.881 0.226" stroke="hsl(0.0,100%,35%)" stroke-width="0.00577"></path>
<path d="M1.028 0.334 Q1.306 0.304 1.308 0.162" stroke="hsl(0.0,100%,35%)" stroke-width="0.00577"></path>
<path d="M1.028 0.334 Q0.721 0.407 0.796 0.572" stroke="hsl(0.0,100%,35%)" stroke-width="0.00289"></path>
</g>
<text x="1.572" y="0.453" font-size="0.026990" fill="hsl(0.0,100%,20%)">adarom</text>
<text x="1.107" y="0.625" font-size="0.081987" fill="hsl(0.0,100%,20%)">bartekn</text>
<text x="1.340" y="0.475" font-size="0.054893" fill="hsl(0.0,100%,20%)">kdlee</text>
<text x="1.308" y="0.129" font-size="0.065610" fill="hsl(0.0,100%,20%)">tasak</text>
<text x="0.665" y="0.684" font-size="0.062773" fill="hsl(0.0,100%,20%)">mikt</text>
<text x="0.631" y="0.827" font-size="0.061976" fill="hsl(0.0,100%,20%)">arthursonzogni</text>
<text x="1.304" y="0.249" font-size="0.048827" fill="hsl(0.0,100%,20%)">yukishiino</text>
<text x="0.090" y="0.287" font-size="0.015225" fill="hsl(0.0,100%,20%)">agrieve</text>
<text x="0.208" y="0.370" font-size="0.005754" fill="hsl(0.0,100%,20%)">ayzhao</text>
<text x="0.045" y="0.511" font-size="0.029900" fill="hsl(0.0,100%,20%)">lizeb</text>
<text x="0.221" y="0.270" font-size="0.005754" fill="hsl(0.0,100%,20%)">richard.townsend</text>
<text x="0.326" y="0.283" font-size="0.005754" fill="hsl(0.0,100%,20%)">wnwen</text>
<text x="0.814" y="0.482" font-size="0.019934" fill="hsl(0.0,100%,20%)">ahijazi</text>
<text x="0.881" y="0.212" font-size="0.028190" fill="hsl(0.0,100%,20%)">haraken</text>
<text x="0.230" y="0.089" font-size="0.008138" fill="hsl(0.0,100%,20%)">nuskos</text>
<text x="0.685" y="0.952" font-size="0.042675" fill="hsl(0.0,100%,20%)">danakj</text>
<text x="0.320" y="0.619" font-size="0.008138" fill="hsl(0.0,100%,20%)">jam</text>
<text x="0.835" y="0.735" font-size="0.035002" fill="hsl(0.0,100%,20%)">dcheng</text>
<text x="0.470" y="0.877" font-size="0.005754" fill="hsl(0.0,100%,20%)">ashleynewson</text>
<text x="0.796" y="0.547" font-size="0.050821" fill="hsl(0.0,100%,20%)">keishi</text>
<text x="0.752" y="0.876" font-size="0.014095" fill="hsl(0.0,100%,20%)">blundell</text>
<text x="0.979" y="0.509" font-size="0.020748" fill="hsl(0.0,100%,20%)">glazunov</text>
<text x="0.942" y="0.092" font-size="0.022287" fill="hsl(0.0,100%,20%)">avi</text>
<text x="0.809" y="0.043" font-size="0.018197" fill="hsl(0.0,100%,20%)">mark</text>
<text x="1.063" y="0.482" font-size="0.026990" fill="hsl(0.0,100%,20%)">tsepez</text>
<text x="0.923" y="0.522" font-size="0.014095" fill="hsl(0.0,100%,20%)">lukasza</text>
<text x="0.975" y="0.463" font-size="0.005754" fill="hsl(0.0,100%,20%)">brucedawson</text>
<text x="0.825" y="0.473" font-size="0.005754" fill="hsl(0.0,100%,20%)">andre.kempe</text>
<text x="0.636" y="0.568" font-size="0.014095" fill="hsl(0.0,100%,20%)">mlippautz</text>
<text x="0.810" y="0.591" font-size="0.005754" fill="hsl(0.0,100%,20%)">ssid</text>
<text x="1.565" y="0.329" font-size="0.012867" fill="hsl(0.0,100%,20%)">thestig</text>
<text x="0.462" y="0.798" font-size="0.015225" fill="hsl(0.0,100%,20%)">hans</text>
<text x="0.321" y="0.938" font-size="0.005754" fill="hsl(0.0,100%,20%)">adetaylor</text>
<text x="1.028" y="0.107" font-size="0.009967" fill="hsl(0.0,100%,20%)">davidben</text>
<text x="1.086" y="0.153" font-size="0.009967" fill="hsl(0.0,100%,20%)">bikineev</text>
<text x="0.461" y="0.582" font-size="0.016276" fill="hsl(0.0,100%,20%)">pkasting</text>
<text x="0.247" y="0.164" font-size="0.009967" fill="hsl(0.0,100%,20%)">fmil</text>
<text x="0.126" y="0.155" font-size="0.005754" fill="hsl(0.0,100%,20%)">dayeung</text>
<text x="0.497" y="0.244" font-size="0.005754" fill="hsl(0.0,100%,20%)">kojii</text>
<text x="0.521" y="0.725" font-size="0.014095" fill="hsl(0.0,100%,20%)">thakis</text>
<text x="0.556" y="0.436" font-size="0.009967" fill="hsl(0.0,100%,20%)">jbroman</text>
<text x="0.084" y="0.641" font-size="0.018197" fill="hsl(0.0,100%,20%)">sky</text>
<text x="1.551" y="0.592" font-size="0.016276" fill="hsl(0.0,100%,20%)">jdapena</text>
<text x="1.368" y="0.660" font-size="0.005754" fill="hsl(0.0,100%,20%)">pbos</text>
<text x="1.394" y="0.849" font-size="0.005754" fill="hsl(0.0,100%,20%)">asvitkine</text>
<text x="0.219" y="0.849" font-size="0.009967" fill="hsl(0.0,100%,20%)">jeffyoon</text>
<text x="0.266" y="0.744" font-size="0.005754" fill="hsl(0.0,100%,20%)">davidbienvenu</text>
<text x="0.251" y="0.949" font-size="0.005754" fill="hsl(0.0,100%,20%)">skyostil</text>
<text x="0.386" y="0.358" font-size="0.014095" fill="hsl(0.0,100%,20%)">justincohen</text>
<text x="0.547" y="0.351" font-size="0.005754" fill="hsl(0.0,100%,20%)">ginnyhuang</text>
<text x="1.108" y="0.391" font-size="0.005754" fill="hsl(0.0,100%,20%)">leszeks</text>
<text x="0.867" y="0.469" font-size="0.005754" fill="hsl(0.0,100%,20%)">elkurin</text>
<text x="0.997" y="0.766" font-size="0.005754" fill="hsl(0.0,100%,20%)">rsesek</text>
<text x="0.842" y="0.751" font-size="0.005754" fill="hsl(0.0,100%,20%)">wittman</text>
<text x="0.616" y="0.129" font-size="0.009967" fill="hsl(0.0,100%,20%)">leimy</text>
<text x="0.566" y="0.051" font-size="0.005754" fill="hsl(0.0,100%,20%)">chikamune</text>
<text x="0.678" y="0.222" font-size="0.008138" fill="hsl(0.0,100%,20%)">kouhei</text>
<text x="0.222" y="0.621" font-size="0.005754" fill="hsl(0.0,100%,20%)">fdoray</text>
<text x="0.277" y="0.482" font-size="0.009967" fill="hsl(0.0,100%,20%)">paulsemel</text>
<text x="1.170" y="0.779" font-size="0.005754" fill="hsl(0.0,100%,20%)">liviutinta</text>
<text x="1.501" y="0.336" font-size="0.011509" fill="hsl(0.0,100%,20%)">mpdenton</text>
<text x="1.047" y="0.800" font-size="0.005754" fill="hsl(0.0,100%,20%)">caitkp</text>
<text x="1.432" y="0.217" font-size="0.016276" fill="hsl(0.0,100%,20%)">wfh</text>
<text x="1.008" y="0.711" font-size="0.005754" fill="hsl(0.0,100%,20%)">yoavweiss</text>
<text x="1.062" y="0.725" font-size="0.005754" fill="hsl(0.0,100%,20%)">dpranke</text>
<text x="0.914" y="0.755" font-size="0.005754" fill="hsl(0.0,100%,20%)">jwata</text>
<text x="0.950" y="0.723" font-size="0.005754" fill="hsl(0.0,100%,20%)">rogerm</text>
<text x="0.404" y="0.596" font-size="0.005754" fill="hsl(0.0,100%,20%)">gab</text>
<text x="0.059" y="0.736" font-size="0.005754" fill="hsl(0.0,100%,20%)">ffred</text>
<text x="0.375" y="0.059" font-size="0.011509" fill="hsl(0.0,100%,20%)">stha09</text>
<text x="1.550" y="0.100" font-size="0.005754" fill="hsl(0.0,100%,20%)">thiabaud</text>
<text x="1.532" y="0.093" font-size="0.005754" fill="hsl(0.0,100%,20%)">erikchen</text>
<text x="1.028" y="0.325" font-size="0.018197" fill="hsl(0.0,100%,20%)">tpearson</text>
<text x="1.083" y="0.286" font-size="0.005754" fill="hsl(0.0,100%,20%)">dfried</text>
<text x="1.239" y="0.342" font-size="0.005754" fill="hsl(0.0,100%,20%)">msw</text>
<text x="1.476" y="0.350" font-size="0.005754" fill="hsl(0.0,100%,20%)">nektar</text>
</svg>
