<svg width="4000" height="2000" viewBox="-0.025 -0.025 2.05 1.05" xmlns="http://www.w3.org/2000/svg">
  <style>
    path {
      fill: none;
      stroke-linecap: round;
      stroke-opacity: 0.4;
    }

    text {
      text-anchor: middle;
      alignment-baseline: hanging;
    }
  </style>
  <g opacity="0.4">
<path d="M0.250 0.333 Q0.613 0.723 1.454 0.631" stroke="hsl(0.0,100%,35%)" stroke-width="0.00653"></path>
<path d="M0.250 0.333 Q0.852 0.429 1.173 0.157" stroke="hsl(0.0,100%,35%)" stroke-width="0.02177"></path>
<path d="M0.250 0.333 Q0.366 0.411 0.544 0.371" stroke="hsl(0.0,100%,35%)" stroke-width="0.05661"></path>
<path d="M0.250 0.333 Q0.290 0.460 0.546 0.468" stroke="hsl(0.0,100%,35%)" stroke-width="0.00218"></path>
<path d="M0.250 0.333 Q0.472 0.813 1.458 0.810" stroke="hsl(0.0,100%,35%)" stroke-width="0.01960"></path>
<path d="M0.250 0.333 Q0.939 0.494 1.406 0.194" stroke="hsl(0.0,100%,35%)" stroke-width="0.01742"></path>
<path d="M0.250 0.333 Q0.722 0.582 1.312 0.406" stroke="hsl(0.0,100%,35%)" stroke-width="0.00653"></path>
<path d="M0.250 0.333 Q0.301 0.838 1.298 0.924" stroke="hsl(0.0,100%,35%)" stroke-width="0.00218"></path>
<path d="M0.250 0.333 Q0.180 0.429 0.352 0.484" stroke="hsl(0.0,100%,35%)" stroke-width="0.00871"></path>
<path d="M0.250 0.333 Q0.831 0.819 1.907 0.642" stroke="hsl(0.0,100%,35%)" stroke-width="0.00871"></path>
<path d="M0.250 0.333 Q0.714 0.339 0.828 0.114" stroke="hsl(0.0,100%,35%)" stroke-width="0.00218"></path>
<path d="M0.250 0.333 Q0.095 0.365 0.124 0.448" stroke="hsl(0.0,100%,35%)" stroke-width="0.00435"></path>
<path d="M1.173 0.157 Q1.034 0.067 0.828 0.114" stroke="hsl(180.0,100%,35%)" stroke-width="0.01089"></path>
<path d="M1.173 0.157 Q0.622 0.565 1.298 0.924" stroke="hsl(180.0,100%,35%)" stroke-width="0.00871"></path>
<path d="M1.173 0.157 Q1.260 0.222 1.406 0.194" stroke="hsl(180.0,100%,35%)" stroke-width="0.00871"></path>
<path d="M1.173 0.157 Q0.934 0.450 1.454 0.631" stroke="hsl(180.0,100%,35%)" stroke-width="0.00218"></path>
<path d="M1.173 0.157 Q1.386 0.202 1.521 0.108" stroke="hsl(180.0,100%,35%)" stroke-width="0.00435"></path>
<path d="M1.173 0.157 Q1.043 0.309 1.312 0.406" stroke="hsl(180.0,100%,35%)" stroke-width="0.00218"></path>
<path d="M1.173 0.157 Q0.793 0.540 1.458 0.810" stroke="hsl(180.0,100%,35%)" stroke-width="0.00435"></path>
<path d="M1.173 0.157 Q0.687 0.138 0.544 0.371" stroke="hsl(180.0,100%,35%)" stroke-width="0.00218"></path>
<path d="M1.173 0.157 Q0.570 0.060 0.250 0.333" stroke="hsl(180.0,100%,35%)" stroke-width="0.00218"></path>
<path d="M0.544 0.371 Q0.157 0.394 0.117 0.588" stroke="hsl(0.0,100%,35%)" stroke-width="0.00653"></path>
<path d="M0.544 0.371 Q0.302 0.466 0.433 0.605" stroke="hsl(0.0,100%,35%)" stroke-width="0.00435"></path>
<path d="M0.544 0.371 Q0.087 0.528 0.293 0.785" stroke="hsl(0.0,100%,35%)" stroke-width="0.00435"></path>
<path d="M0.544 0.371 Q0.900 0.542 1.312 0.406" stroke="hsl(0.0,100%,35%)" stroke-width="0.00218"></path>
<path d="M0.544 0.371 Q0.497 0.494 0.726 0.544" stroke="hsl(0.0,100%,35%)" stroke-width="0.00218"></path>
<path d="M0.544 0.371 Q0.639 0.636 1.177 0.648" stroke="hsl(0.0,100%,35%)" stroke-width="0.00218"></path>
<path d="M1.458 0.810 Q1.839 0.426 1.173 0.157" stroke="hsl(180.0,100%,35%)" stroke-width="0.00218"></path>
<path d="M1.458 0.810 Q1.236 0.330 0.250 0.333" stroke="hsl(180.0,100%,35%)" stroke-width="0.00218"></path>
<path d="M1.458 0.810 Q1.926 0.491 1.406 0.194" stroke="hsl(180.0,100%,35%)" stroke-width="0.00871"></path>
<path d="M1.458 0.810 Q1.287 0.835 1.298 0.924" stroke="hsl(180.0,100%,35%)" stroke-width="0.00871"></path>
<path d="M1.458 0.810 Q1.330 0.722 1.130 0.765" stroke="hsl(180.0,100%,35%)" stroke-width="0.03266"></path>
<path d="M1.458 0.810 Q1.121 0.710 0.850 0.852" stroke="hsl(180.0,100%,35%)" stroke-width="0.00218"></path>
<path d="M1.458 0.810 Q1.569 0.510 1.008 0.390" stroke="hsl(180.0,100%,35%)" stroke-width="0.00218"></path>
<path d="M1.406 0.194 Q1.319 0.128 1.173 0.157" stroke="hsl(180.0,100%,35%)" stroke-width="0.00871"></path>
<path d="M1.406 0.194 Q0.939 0.512 1.458 0.810" stroke="hsl(180.0,100%,35%)" stroke-width="0.01089"></path>
<path d="M1.406 0.194 Q1.207 0.078 0.937 0.149" stroke="hsl(180.0,100%,35%)" stroke-width="0.00218"></path>
<path d="M1.406 0.194 Q1.151 0.150 1.010 0.265" stroke="hsl(180.0,100%,35%)" stroke-width="0.00218"></path>
<path d="M1.312 0.406 Q1.394 0.329 1.263 0.273" stroke="hsl(180.0,100%,35%)" stroke-width="0.00218"></path>
<path d="M1.312 0.406 Q1.442 0.253 1.173 0.157" stroke="hsl(180.0,100%,35%)" stroke-width="0.00218"></path>
<path d="M1.312 0.406 Q0.933 0.549 1.130 0.765" stroke="hsl(180.0,100%,35%)" stroke-width="0.00871"></path>
<path d="M1.312 0.406 Q0.890 0.662 1.298 0.924" stroke="hsl(180.0,100%,35%)" stroke-width="0.00435"></path>
<path d="M1.312 0.406 Q1.172 0.337 1.008 0.390" stroke="hsl(180.0,100%,35%)" stroke-width="0.00218"></path>
<path d="M1.312 0.406 Q1.529 0.318 1.406 0.194" stroke="hsl(180.0,100%,35%)" stroke-width="0.00218"></path>
<path d="M1.312 0.406 Q1.303 0.163 0.828 0.114" stroke="hsl(180.0,100%,35%)" stroke-width="0.00435"></path>
<path d="M1.312 0.406 Q1.061 0.637 1.458 0.810" stroke="hsl(180.0,100%,35%)" stroke-width="0.00435"></path>
<path d="M1.298 0.924 Q1.849 0.515 1.173 0.157" stroke="hsl(180.0,100%,35%)" stroke-width="0.01089"></path>
<path d="M1.298 0.924 Q1.936 0.580 1.406 0.194" stroke="hsl(180.0,100%,35%)" stroke-width="0.02177"></path>
<path d="M1.298 0.924 Q1.388 0.995 1.547 0.967" stroke="hsl(180.0,100%,35%)" stroke-width="0.00435"></path>
<path d="M1.298 0.924 Q2.062 0.561 1.521 0.108" stroke="hsl(180.0,100%,35%)" stroke-width="0.00218"></path>
<path d="M1.298 0.924 Q1.610 0.809 1.454 0.631" stroke="hsl(180.0,100%,35%)" stroke-width="0.01306"></path>
<path d="M1.298 0.924 Q1.247 0.419 0.250 0.333" stroke="hsl(180.0,100%,35%)" stroke-width="0.00218"></path>
<path d="M1.298 0.924 Q1.401 1.011 1.594 0.980" stroke="hsl(180.0,100%,35%)" stroke-width="0.00218"></path>
<path d="M1.298 0.924 Q1.335 0.985 1.462 0.980" stroke="hsl(180.0,100%,35%)" stroke-width="0.00218"></path>
<path d="M1.298 0.924 Q1.108 0.878 0.978 0.961" stroke="hsl(180.0,100%,35%)" stroke-width="0.00218"></path>
<path d="M1.298 0.924 Q1.694 0.961 1.854 0.775" stroke="hsl(180.0,100%,35%)" stroke-width="0.00218"></path>
<path d="M1.298 0.924 Q1.571 0.987 1.754 0.867" stroke="hsl(180.0,100%,35%)" stroke-width="0.00218"></path>
<path d="M1.298 0.924 Q1.469 0.899 1.458 0.810" stroke="hsl(180.0,100%,35%)" stroke-width="0.03484"></path>
<path d="M1.298 0.924 Q1.341 0.810 1.130 0.765" stroke="hsl(180.0,100%,35%)" stroke-width="0.00653"></path>
<path d="M1.298 0.924 Q1.205 0.915 1.168 0.959" stroke="hsl(180.0,100%,35%)" stroke-width="0.00218"></path>
<path d="M1.298 0.924 Q1.365 0.991 1.511 0.974" stroke="hsl(180.0,100%,35%)" stroke-width="0.00218"></path>
<path d="M1.298 0.924 Q1.828 0.905 1.907 0.642" stroke="hsl(180.0,100%,35%)" stroke-width="0.00218"></path>
<path d="M1.298 0.924 Q1.282 0.734 0.908 0.700" stroke="hsl(180.0,100%,35%)" stroke-width="0.00218"></path>
<path d="M1.298 0.924 Q1.719 0.667 1.312 0.406" stroke="hsl(180.0,100%,35%)" stroke-width="0.00218"></path>
<path d="M1.521 0.108 Q1.309 0.063 1.173 0.157" stroke="hsl(180.0,100%,35%)" stroke-width="0.02395"></path>
<path d="M1.521 0.108 Q0.928 0.446 1.458 0.810" stroke="hsl(180.0,100%,35%)" stroke-width="0.02830"></path>
<path d="M1.521 0.108 Q1.395 0.128 1.406 0.194" stroke="hsl(180.0,100%,35%)" stroke-width="0.02177"></path>
<path d="M1.521 0.108 Q1.170 -0.027 0.828 0.114" stroke="hsl(180.0,100%,35%)" stroke-width="0.00218"></path>
<path d="M0.728 0.234 Q0.772 0.134 0.587 0.091" stroke="hsl(180.0,100%,35%)" stroke-width="0.00218"></path>
<path d="M0.728 0.234 Q1.099 0.350 1.406 0.194" stroke="hsl(180.0,100%,35%)" stroke-width="0.00218"></path>
<path d="M0.728 0.234 Q0.737 0.267 0.804 0.270" stroke="hsl(180.0,100%,35%)" stroke-width="0.00218"></path>
<path d="M1.019 0.596 Q1.109 0.552 1.043 0.498" stroke="hsl(180.0,100%,35%)" stroke-width="0.00653"></path>
<path d="M1.019 0.596 Q0.881 0.626 0.908 0.700" stroke="hsl(180.0,100%,35%)" stroke-width="0.00218"></path>
<path d="M1.019 0.596 Q0.730 0.690 0.850 0.852" stroke="hsl(180.0,100%,35%)" stroke-width="0.00218"></path>
<path d="M1.302 0.553 Q0.952 0.232 0.250 0.333" stroke="hsl(0.0,100%,35%)" stroke-width="0.00218"></path>
<path d="M1.302 0.553 Q1.338 0.531 1.304 0.509" stroke="hsl(0.0,100%,35%)" stroke-width="0.00218"></path>
<path d="M1.302 0.553 Q1.164 0.575 1.177 0.648" stroke="hsl(0.0,100%,35%)" stroke-width="0.00218"></path>
<path d="M1.304 0.509 Q1.396 0.533 1.463 0.493" stroke="hsl(180.0,100%,35%)" stroke-width="0.00218"></path>
<path d="M1.304 0.509 Q1.391 0.459 1.312 0.406" stroke="hsl(180.0,100%,35%)" stroke-width="0.00653"></path>
<path d="M1.304 0.509 Q1.499 0.696 1.907 0.642" stroke="hsl(180.0,100%,35%)" stroke-width="0.00218"></path>
<path d="M1.263 0.273 Q1.311 0.197 1.173 0.157" stroke="hsl(180.0,100%,35%)" stroke-width="0.00218"></path>
<path d="M1.263 0.273 Q1.181 0.349 1.312 0.406" stroke="hsl(180.0,100%,35%)" stroke-width="0.00218"></path>
<path d="M1.263 0.273 Q1.290 0.586 1.907 0.642" stroke="hsl(180.0,100%,35%)" stroke-width="0.00218"></path>
<path d="M1.263 0.273 Q1.398 0.262 1.406 0.194" stroke="hsl(180.0,100%,35%)" stroke-width="0.00218"></path>
<path d="M1.130 0.765 Q1.177 0.949 1.547 0.967" stroke="hsl(180.0,100%,35%)" stroke-width="0.00435"></path>
<path d="M1.130 0.765 Q1.299 0.614 1.043 0.498" stroke="hsl(180.0,100%,35%)" stroke-width="0.00218"></path>
<path d="M1.130 0.765 Q1.258 0.853 1.458 0.810" stroke="hsl(180.0,100%,35%)" stroke-width="0.02395"></path>
<path d="M1.130 0.765 Q1.499 0.379 0.828 0.114" stroke="hsl(180.0,100%,35%)" stroke-width="0.00871"></path>
<path d="M1.130 0.765 Q1.087 0.878 1.298 0.924" stroke="hsl(180.0,100%,35%)" stroke-width="0.01089"></path>
<path d="M1.130 0.765 Q0.909 0.545 0.433 0.605" stroke="hsl(180.0,100%,35%)" stroke-width="0.00218"></path>
<path d="M1.644 0.422 Q1.599 0.585 1.907 0.642" stroke="hsl(0.0,100%,35%)" stroke-width="0.00218"></path>
<path d="M1.644 0.422 Q1.018 0.099 0.250 0.333" stroke="hsl(0.0,100%,35%)" stroke-width="0.00218"></path>
<path d="M1.644 0.422 Q0.748 0.200 0.117 0.588" stroke="hsl(0.0,100%,35%)" stroke-width="0.00218"></path>
<path d="M1.644 0.422 Q1.629 0.373 1.529 0.369" stroke="hsl(0.0,100%,35%)" stroke-width="0.00435"></path>
<path d="M1.644 0.422 Q1.863 0.404 1.876 0.293" stroke="hsl(0.0,100%,35%)" stroke-width="0.00871"></path>
<path d="M1.644 0.422 Q1.382 0.489 1.454 0.631" stroke="hsl(0.0,100%,35%)" stroke-width="0.00435"></path>
<path d="M1.644 0.422 Q1.135 0.177 0.544 0.371" stroke="hsl(0.0,100%,35%)" stroke-width="0.00435"></path>
<path d="M1.644 0.422 Q1.708 0.260 1.406 0.194" stroke="hsl(0.0,100%,35%)" stroke-width="0.00218"></path>
<path d="M1.644 0.422 Q1.491 0.348 1.312 0.406" stroke="hsl(0.0,100%,35%)" stroke-width="0.00653"></path>
<path d="M1.644 0.422 Q0.948 0.195 0.352 0.484" stroke="hsl(0.0,100%,35%)" stroke-width="0.00218"></path>
<path d="M1.644 0.422 Q1.868 0.349 1.774 0.223" stroke="hsl(0.0,100%,35%)" stroke-width="0.00218"></path>
<path d="M1.644 0.422 Q1.739 0.361 1.641 0.302" stroke="hsl(0.0,100%,35%)" stroke-width="0.00218"></path>
<path d="M1.644 0.422 Q1.113 0.491 1.130 0.765" stroke="hsl(0.0,100%,35%)" stroke-width="0.00218"></path>
<path d="M1.547 0.293 Q1.556 0.215 1.406 0.194" stroke="hsl(0.0,100%,35%)" stroke-width="0.00218"></path>
<path d="M1.547 0.293 Q1.492 0.377 1.644 0.422" stroke="hsl(0.0,100%,35%)" stroke-width="0.00218"></path>
<path d="M1.547 0.293 Q1.089 0.534 1.458 0.810" stroke="hsl(0.0,100%,35%)" stroke-width="0.00218"></path>
<path d="M1.797 0.912 Q1.935 0.855 1.854 0.775" stroke="hsl(180.0,100%,35%)" stroke-width="0.00218"></path>
<path d="M1.797 0.912 Q1.628 0.889 1.547 0.967" stroke="hsl(180.0,100%,35%)" stroke-width="0.00218"></path>
<path d="M1.797 0.912 Q1.709 0.793 1.458 0.810" stroke="hsl(180.0,100%,35%)" stroke-width="0.00218"></path>
<path d="M0.687 0.928 Q1.570 0.866 1.644 0.422" stroke="hsl(0.0,100%,35%)" stroke-width="0.00218"></path>
<path d="M0.687 0.928 Q1.167 1.023 1.458 0.810" stroke="hsl(0.0,100%,35%)" stroke-width="0.00218"></path>
<path d="M0.687 0.928 Q0.829 0.923 0.850 0.852" stroke="hsl(0.0,100%,35%)" stroke-width="0.00218"></path>
<path d="M1.741 0.561 Q1.759 0.635 1.907 0.642" stroke="hsl(0.0,100%,35%)" stroke-width="0.00871"></path>
<path d="M1.741 0.561 Q1.400 0.629 1.458 0.810" stroke="hsl(0.0,100%,35%)" stroke-width="0.00871"></path>
<path d="M1.741 0.561 Q1.867 0.311 1.406 0.194" stroke="hsl(0.0,100%,35%)" stroke-width="0.00435"></path>
</g>
<text x="0.250" y="0.298" font-size="0.068521" fill="hsl(0.0,100%,20%)">arthursonzogni</text>
<text x="1.454" y="0.618" font-size="0.027050" fill="hsl(180.0,100%,20%)">dcheng</text>
<text x="1.173" y="0.128" font-size="0.057382" fill="hsl(180.0,100%,20%)">bartekn</text>
<text x="0.544" y="0.347" font-size="0.048765" fill="hsl(0.0,100%,20%)">danakj</text>
<text x="0.546" y="0.464" font-size="0.007809" fill="hsl(0.0,100%,20%)">ashleynewson</text>
<text x="1.458" y="0.773" font-size="0.074898" fill="hsl(180.0,100%,20%)">tasak</text>
<text x="1.406" y="0.165" font-size="0.057382" fill="hsl(180.0,100%,20%)">keishi</text>
<text x="1.312" y="0.385" font-size="0.040575" fill="hsl(180.0,100%,20%)">lizeb</text>
<text x="1.298" y="0.891" font-size="0.065332" fill="hsl(180.0,100%,20%)">mikt</text>
<text x="0.352" y="0.476" font-size="0.017461" fill="hsl(0.0,100%,20%)">blundell</text>
<text x="1.907" y="0.629" font-size="0.027050" fill="hsl(0.0,100%,20%)">haraken</text>
<text x="0.828" y="0.100" font-size="0.028155" fill="hsl(180.0,100%,20%)">glazunov</text>
<text x="0.124" y="0.443" font-size="0.011043" fill="hsl(0.0,100%,20%)">wez</text>
<text x="1.521" y="0.084" font-size="0.048136" fill="hsl(180.0,100%,20%)">kdlee</text>
<text x="0.728" y="0.227" font-size="0.013525" fill="hsl(180.0,100%,20%)">bwwilliams</text>
<text x="0.587" y="0.087" font-size="0.007809" fill="hsl(180.0,100%,20%)">ajuma</text>
<text x="0.804" y="0.266" font-size="0.007809" fill="hsl(180.0,100%,20%)">noyau</text>
<text x="0.117" y="0.580" font-size="0.015617" fill="hsl(0.0,100%,20%)">hans</text>
<text x="0.433" y="0.598" font-size="0.013525" fill="hsl(0.0,100%,20%)">mark</text>
<text x="0.293" y="0.780" font-size="0.011043" fill="hsl(0.0,100%,20%)">avi</text>
<text x="0.726" y="0.540" font-size="0.007809" fill="hsl(0.0,100%,20%)">adetaylor</text>
<text x="1.177" y="0.642" font-size="0.011043" fill="hsl(0.0,100%,20%)">lukasza</text>
<text x="1.019" y="0.587" font-size="0.017461" fill="hsl(180.0,100%,20%)">dtapuska</text>
<text x="1.043" y="0.490" font-size="0.015617" fill="hsl(180.0,100%,20%)">wfh</text>
<text x="0.908" y="0.694" font-size="0.011043" fill="hsl(180.0,100%,20%)">justincohen</text>
<text x="0.850" y="0.845" font-size="0.013525" fill="hsl(180.0,100%,20%)">thakis</text>
<text x="1.302" y="0.546" font-size="0.013525" fill="hsl(0.0,100%,20%)">edechamps</text>
<text x="1.304" y="0.499" font-size="0.019127" fill="hsl(180.0,100%,20%)">fdoray</text>
<text x="1.463" y="0.489" font-size="0.007809" fill="hsl(180.0,100%,20%)">grt</text>
<text x="0.937" y="0.145" font-size="0.007809" fill="hsl(180.0,100%,20%)">wittman</text>
<text x="1.010" y="0.262" font-size="0.007809" fill="hsl(0.0,100%,20%)">qjw</text>
<text x="1.263" y="0.264" font-size="0.017461" fill="hsl(180.0,100%,20%)">sky</text>
<text x="1.130" y="0.738" font-size="0.053534" fill="hsl(180.0,100%,20%)">yukishiino</text>
<text x="1.008" y="0.385" font-size="0.011043" fill="hsl(180.0,100%,20%)">ahijazi</text>
<text x="1.547" y="0.958" font-size="0.017461" fill="hsl(180.0,100%,20%)">mpdenton</text>
<text x="1.594" y="0.976" font-size="0.007809" fill="hsl(180.0,100%,20%)">dpranke</text>
<text x="1.462" y="0.977" font-size="0.007809" fill="hsl(180.0,100%,20%)">jwata</text>
<text x="0.978" y="0.957" font-size="0.007809" fill="hsl(180.0,100%,20%)">kouhei</text>
<text x="1.854" y="0.770" font-size="0.011043" fill="hsl(180.0,100%,20%)">mlippautz</text>
<text x="1.754" y="0.863" font-size="0.007809" fill="hsl(180.0,100%,20%)">rogerm</text>
<text x="1.168" y="0.955" font-size="0.007809" fill="hsl(180.0,100%,20%)">marq</text>
<text x="1.511" y="0.970" font-size="0.007809" fill="hsl(180.0,100%,20%)">nuskos</text>
<text x="1.644" y="0.403" font-size="0.037449" fill="hsl(0.0,100%,20%)">pkasting</text>
<text x="1.529" y="0.364" font-size="0.011043" fill="hsl(0.0,100%,20%)">jbroman</text>
<text x="1.876" y="0.286" font-size="0.015617" fill="hsl(0.0,100%,20%)">thestig</text>
<text x="1.774" y="0.219" font-size="0.007809" fill="hsl(0.0,100%,20%)">kylechar</text>
<text x="1.641" y="0.298" font-size="0.007809" fill="hsl(0.0,100%,20%)">pbos</text>
<text x="1.547" y="0.286" font-size="0.013525" fill="hsl(0.0,100%,20%)">rsworktech</text>
<text x="1.797" y="0.905" font-size="0.013525" fill="hsl(180.0,100%,20%)">sroettger</text>
<text x="0.687" y="0.921" font-size="0.013525" fill="hsl(0.0,100%,20%)">tikuta</text>
<text x="1.741" y="0.549" font-size="0.024693" fill="hsl(0.0,100%,20%)">tpearson</text>
</svg>
