<svg width="4000" height="2000" viewBox="-0.025 -0.025 2.05 1.05" xmlns="http://www.w3.org/2000/svg">
  <style>
    path {
      fill: none;
      stroke-linecap: round;
      stroke-opacity: 0.4;
    }

    text {
      text-anchor: middle;
      alignment-baseline: hanging;
    }
  </style>
  <g opacity="0.4">
<path d="M0.825 0.506 Q0.838 0.298 0.436 0.247" stroke="hsl(0.0,100%,35%)" stroke-width="0.02051"></path>
<path d="M0.825 0.506 Q1.041 0.420 0.921 0.296" stroke="hsl(0.0,100%,35%)" stroke-width="0.04103"></path>
<path d="M0.825 0.506 Q1.009 0.315 0.676 0.183" stroke="hsl(0.0,100%,35%)" stroke-width="0.01539"></path>
<path d="M0.825 0.506 Q0.653 0.569 0.739 0.667" stroke="hsl(0.0,100%,35%)" stroke-width="0.01026"></path>
<path d="M0.825 0.506 Q1.292 0.598 1.575 0.391" stroke="hsl(0.0,100%,35%)" stroke-width="0.00513"></path>
<path d="M0.825 0.506 Q0.779 0.698 1.145 0.763" stroke="hsl(0.0,100%,35%)" stroke-width="0.01026"></path>
<path d="M0.436 0.247 Q0.463 0.173 0.325 0.143" stroke="hsl(180.0,100%,35%)" stroke-width="0.00513"></path>
<path d="M0.436 0.247 Q0.248 0.268 0.247 0.364" stroke="hsl(180.0,100%,35%)" stroke-width="0.04103"></path>
<path d="M0.436 0.247 Q0.148 0.240 0.072 0.379" stroke="hsl(180.0,100%,35%)" stroke-width="0.00513"></path>
<path d="M0.436 0.247 Q0.607 0.263 0.676 0.183" stroke="hsl(180.0,100%,35%)" stroke-width="0.00513"></path>
<path d="M1.145 0.763 Q1.230 0.289 0.325 0.143" stroke="hsl(0.0,100%,35%)" stroke-width="0.01026"></path>
<path d="M1.145 0.763 Q0.916 0.356 0.072 0.379" stroke="hsl(0.0,100%,35%)" stroke-width="0.00513"></path>
<path d="M1.145 0.763 Q1.374 0.379 0.676 0.183" stroke="hsl(0.0,100%,35%)" stroke-width="0.00513"></path>
<path d="M1.145 0.763 Q1.189 0.470 0.628 0.384" stroke="hsl(0.0,100%,35%)" stroke-width="0.00513"></path>
<path d="M1.145 0.763 Q1.203 0.363 0.436 0.247" stroke="hsl(0.0,100%,35%)" stroke-width="0.01026"></path>
<path d="M1.926 0.777 Q1.592 0.421 0.825 0.506" stroke="hsl(0.0,100%,35%)" stroke-width="0.00513"></path>
<path d="M1.926 0.777 Q1.276 0.308 0.218 0.522" stroke="hsl(0.0,100%,35%)" stroke-width="0.00513"></path>
<path d="M1.926 0.777 Q1.980 0.717 1.874 0.677" stroke="hsl(0.0,100%,35%)" stroke-width="0.00513"></path>
<path d="M0.218 0.522 Q0.096 0.583 0.188 0.655" stroke="hsl(0.0,100%,35%)" stroke-width="0.00513"></path>
<path d="M0.218 0.522 Q0.489 0.828 1.145 0.763" stroke="hsl(0.0,100%,35%)" stroke-width="0.01539"></path>
<path d="M0.218 0.522 Q0.223 0.624 0.424 0.644" stroke="hsl(0.0,100%,35%)" stroke-width="0.00513"></path>
<path d="M0.325 0.143 Q0.298 0.217 0.436 0.247" stroke="hsl(180.0,100%,35%)" stroke-width="0.06154"></path>
<path d="M0.325 0.143 Q0.109 0.238 0.247 0.364" stroke="hsl(180.0,100%,35%)" stroke-width="0.01026"></path>
<path d="M0.325 0.143 Q0.089 0.162 0.074 0.281" stroke="hsl(180.0,100%,35%)" stroke-width="0.00513"></path>
<path d="M0.325 0.143 Q0.469 0.234 0.676 0.183" stroke="hsl(180.0,100%,35%)" stroke-width="0.02564"></path>
<path d="M0.325 0.143 Q0.440 0.135 0.450 0.077" stroke="hsl(180.0,100%,35%)" stroke-width="0.00513"></path>
<path d="M0.325 0.143 Q0.542 0.165 0.633 0.064" stroke="hsl(180.0,100%,35%)" stroke-width="0.00513"></path>
<path d="M0.325 0.143 Q-0.026 0.413 0.424 0.644" stroke="hsl(180.0,100%,35%)" stroke-width="0.00513"></path>
<path d="M0.325 0.143 Q0.752 0.517 1.575 0.391" stroke="hsl(180.0,100%,35%)" stroke-width="0.01026"></path>
<path d="M0.325 0.143 Q0.205 0.187 0.263 0.255" stroke="hsl(180.0,100%,35%)" stroke-width="0.00513"></path>
<path d="M0.247 0.364 Q0.463 0.269 0.325 0.143" stroke="hsl(180.0,100%,35%)" stroke-width="0.02051"></path>
<path d="M0.247 0.364 Q0.436 0.343 0.436 0.247" stroke="hsl(180.0,100%,35%)" stroke-width="0.02564"></path>
<path d="M0.247 0.364 Q0.421 0.450 0.628 0.384" stroke="hsl(180.0,100%,35%)" stroke-width="0.01026"></path>
<path d="M1.428 0.528 Q1.583 0.377 1.323 0.268" stroke="hsl(0.0,100%,35%)" stroke-width="0.01539"></path>
<path d="M1.428 0.528 Q1.434 0.430 1.244 0.406" stroke="hsl(0.0,100%,35%)" stroke-width="0.00513"></path>
<path d="M1.428 0.528 Q1.611 0.489 1.575 0.391" stroke="hsl(0.0,100%,35%)" stroke-width="0.01026"></path>
<path d="M1.428 0.528 Q1.360 0.311 0.921 0.296" stroke="hsl(0.0,100%,35%)" stroke-width="0.01026"></path>
<path d="M1.428 0.528 Q1.328 0.205 0.676 0.183" stroke="hsl(0.0,100%,35%)" stroke-width="0.00513"></path>
<path d="M1.428 0.528 Q1.098 0.588 1.145 0.763" stroke="hsl(0.0,100%,35%)" stroke-width="0.01539"></path>
<path d="M1.428 0.528 Q1.278 0.506 1.204 0.575" stroke="hsl(0.0,100%,35%)" stroke-width="0.00513"></path>
<path d="M1.428 0.528 Q1.334 0.554 1.365 0.606" stroke="hsl(0.0,100%,35%)" stroke-width="0.00513"></path>
<path d="M1.428 0.528 Q1.573 0.670 1.882 0.631" stroke="hsl(0.0,100%,35%)" stroke-width="0.00513"></path>
<path d="M1.428 0.528 Q0.969 0.210 0.247 0.364" stroke="hsl(0.0,100%,35%)" stroke-width="0.00513"></path>
<path d="M1.653 0.553 Q1.460 0.173 0.676 0.183" stroke="hsl(180.0,100%,35%)" stroke-width="0.00513"></path>
<path d="M1.653 0.553 Q1.561 0.495 1.428 0.528" stroke="hsl(180.0,100%,35%)" stroke-width="0.00513"></path>
<path d="M1.653 0.553 Q1.290 0.156 0.436 0.247" stroke="hsl(180.0,100%,35%)" stroke-width="0.00513"></path>
<path d="M1.101 0.901 Q1.285 0.961 1.442 0.884" stroke="hsl(180.0,100%,35%)" stroke-width="0.00513"></path>
<path d="M1.101 0.901 Q1.435 0.359 0.450 0.077" stroke="hsl(180.0,100%,35%)" stroke-width="0.00513"></path>
<path d="M1.101 0.901 Q1.292 0.441 0.436 0.247" stroke="hsl(180.0,100%,35%)" stroke-width="0.00513"></path>
</g>
<text x="0.825" y="0.474" font-size="0.063246" fill="hsl(0.0,100%,20%)">arthursonzogni</text>
<text x="0.436" y="0.205" font-size="0.082808" fill="hsl(180.0,100%,20%)">tasak</text>
<text x="0.921" y="0.275" font-size="0.043644" fill="hsl(0.0,100%,20%)">danakj</text>
<text x="0.676" y="0.159" font-size="0.047809" fill="hsl(0.0,100%,20%)">keishi</text>
<text x="0.739" y="0.657" font-size="0.019518" fill="hsl(0.0,100%,20%)">wez</text>
<text x="1.575" y="0.376" font-size="0.030861" fill="hsl(0.0,100%,20%)">dcheng</text>
<text x="1.145" y="0.736" font-size="0.053452" fill="hsl(0.0,100%,20%)">lizeb</text>
<text x="1.926" y="0.765" font-size="0.023905" fill="hsl(0.0,100%,20%)">edechamps</text>
<text x="0.218" y="0.505" font-size="0.033806" fill="hsl(0.0,100%,20%)">fdoray</text>
<text x="1.874" y="0.670" font-size="0.013801" fill="hsl(0.0,100%,20%)">lukasza</text>
<text x="0.188" y="0.648" font-size="0.013801" fill="hsl(0.0,100%,20%)">grt</text>
<text x="0.424" y="0.634" font-size="0.019518" fill="hsl(0.0,100%,20%)">haraken</text>
<text x="0.325" y="0.104" font-size="0.079282" fill="hsl(180.0,100%,20%)">mikt</text>
<text x="0.072" y="0.369" font-size="0.019518" fill="hsl(0.0,100%,20%)">ahijazi</text>
<text x="0.628" y="0.372" font-size="0.023905" fill="hsl(0.0,100%,20%)">glazunov</text>
<text x="0.247" y="0.332" font-size="0.064734" fill="hsl(180.0,100%,20%)">yukishiino</text>
<text x="0.074" y="0.274" font-size="0.013801" fill="hsl(180.0,100%,20%)">marq</text>
<text x="0.450" y="0.068" font-size="0.019518" fill="hsl(180.0,100%,20%)">mpdenton</text>
<text x="0.633" y="0.057" font-size="0.013801" fill="hsl(180.0,100%,20%)">nuskos</text>
<text x="0.263" y="0.248" font-size="0.013801" fill="hsl(180.0,100%,20%)">justincohen</text>
<text x="1.428" y="0.499" font-size="0.056904" fill="hsl(0.0,100%,20%)">pkasting</text>
<text x="1.323" y="0.256" font-size="0.023905" fill="hsl(0.0,100%,20%)">thestig</text>
<text x="1.244" y="0.399" font-size="0.013801" fill="hsl(0.0,100%,20%)">jbroman</text>
<text x="1.204" y="0.568" font-size="0.013801" fill="hsl(0.0,100%,20%)">blundell</text>
<text x="1.365" y="0.599" font-size="0.013801" fill="hsl(0.0,100%,20%)">kylechar</text>
<text x="1.882" y="0.624" font-size="0.013801" fill="hsl(0.0,100%,20%)">pbos</text>
<text x="1.653" y="0.541" font-size="0.023905" fill="hsl(180.0,100%,20%)">rsworktech</text>
<text x="1.101" y="0.889" font-size="0.023905" fill="hsl(180.0,100%,20%)">sroettger</text>
<text x="1.442" y="0.877" font-size="0.013801" fill="hsl(180.0,100%,20%)">mlippautz</text>
</svg>
