<svg width="4000" height="2000" viewBox="-0.025 -0.025 2.05 1.05" xmlns="http://www.w3.org/2000/svg">
  <style>
    path {
      fill: none;
      stroke-linecap: round;
      stroke-opacity: 0.4;
    }

    text {
      text-anchor: middle;
      alignment-baseline: hanging;
    }
  </style>
  <g opacity="0.4">
<path d="M0.458 0.206 Q0.425 0.578 1.144 0.676" stroke="hsl(0.0,100%,35%)" stroke-width="0.01740"></path>
<path d="M0.458 0.206 Q0.943 0.554 1.729 0.394" stroke="hsl(0.0,100%,35%)" stroke-width="0.00290"></path>
<path d="M0.458 0.206 Q0.327 0.126 0.144 0.173" stroke="hsl(0.0,100%,35%)" stroke-width="0.02610"></path>
<path d="M0.458 0.206 Q0.693 0.213 0.759 0.100" stroke="hsl(0.0,100%,35%)" stroke-width="0.00290"></path>
<path d="M0.458 0.206 Q1.007 0.467 1.638 0.257" stroke="hsl(0.0,100%,35%)" stroke-width="0.00290"></path>
<path d="M0.458 0.206 Q1.016 0.624 1.955 0.443" stroke="hsl(0.0,100%,35%)" stroke-width="0.01450"></path>
<path d="M0.458 0.206 Q0.405 0.262 0.503 0.300" stroke="hsl(0.0,100%,35%)" stroke-width="0.00580"></path>
<path d="M0.458 0.206 Q0.704 0.531 1.393 0.483" stroke="hsl(0.0,100%,35%)" stroke-width="0.00290"></path>
<path d="M0.458 0.206 Q0.045 0.264 0.070 0.479" stroke="hsl(0.0,100%,35%)" stroke-width="0.00580"></path>
<path d="M1.144 0.676 Q1.736 0.722 1.955 0.443" stroke="hsl(180.0,100%,35%)" stroke-width="0.01450"></path>
<path d="M1.144 0.676 Q1.283 0.592 1.149 0.505" stroke="hsl(180.0,100%,35%)" stroke-width="0.00290"></path>
<path d="M1.144 0.676 Q1.413 0.311 0.759 0.100" stroke="hsl(180.0,100%,35%)" stroke-width="0.00290"></path>
<path d="M1.144 0.676 Q1.686 0.472 1.407 0.163" stroke="hsl(180.0,100%,35%)" stroke-width="0.00290"></path>
<path d="M1.729 0.394 Q1.489 0.371 1.393 0.483" stroke="hsl(180.0,100%,35%)" stroke-width="0.02320"></path>
<path d="M1.729 0.394 Q1.244 0.046 0.458 0.206" stroke="hsl(180.0,100%,35%)" stroke-width="0.00290"></path>
<path d="M1.729 0.394 Q1.611 0.455 1.704 0.525" stroke="hsl(180.0,100%,35%)" stroke-width="0.00290"></path>
<path d="M1.729 0.394 Q1.383 0.287 1.099 0.432" stroke="hsl(180.0,100%,35%)" stroke-width="0.00290"></path>
<path d="M1.729 0.394 Q1.210 0.418 1.144 0.676" stroke="hsl(180.0,100%,35%)" stroke-width="0.04641"></path>
<path d="M1.729 0.394 Q1.590 0.485 1.738 0.572" stroke="hsl(180.0,100%,35%)" stroke-width="0.00290"></path>
<path d="M1.729 0.394 Q0.704 0.357 0.407 0.848" stroke="hsl(180.0,100%,35%)" stroke-width="0.00290"></path>
<path d="M1.729 0.394 Q1.693 0.260 1.424 0.248" stroke="hsl(180.0,100%,35%)" stroke-width="0.00290"></path>
<path d="M1.729 0.394 Q1.802 0.464 1.955 0.443" stroke="hsl(180.0,100%,35%)" stroke-width="0.08411"></path>
<path d="M1.729 0.394 Q1.942 0.350 1.903 0.236" stroke="hsl(180.0,100%,35%)" stroke-width="0.01450"></path>
<path d="M1.729 0.394 Q1.554 0.409 1.547 0.498" stroke="hsl(180.0,100%,35%)" stroke-width="0.00290"></path>
<path d="M1.729 0.394 Q0.569 0.399 0.326 0.966" stroke="hsl(180.0,100%,35%)" stroke-width="0.00290"></path>
<path d="M1.729 0.394 Q1.484 0.651 1.933 0.827" stroke="hsl(180.0,100%,35%)" stroke-width="0.00870"></path>
<path d="M1.729 0.394 Q0.949 0.041 0.090 0.344" stroke="hsl(180.0,100%,35%)" stroke-width="0.01160"></path>
<path d="M1.729 0.394 Q1.638 0.285 1.405 0.305" stroke="hsl(180.0,100%,35%)" stroke-width="0.00290"></path>
<path d="M1.729 0.394 Q0.831 0.105 0.070 0.479" stroke="hsl(180.0,100%,35%)" stroke-width="0.00290"></path>
<path d="M1.729 0.394 Q1.793 0.307 1.638 0.257" stroke="hsl(180.0,100%,35%)" stroke-width="0.00580"></path>
<path d="M1.729 0.394 Q1.191 0.102 0.503 0.300" stroke="hsl(180.0,100%,35%)" stroke-width="0.00290"></path>
<path d="M1.729 0.394 Q1.549 0.250 1.228 0.306" stroke="hsl(180.0,100%,35%)" stroke-width="0.00290"></path>
<path d="M1.729 0.394 Q1.654 0.305 1.465 0.323" stroke="hsl(180.0,100%,35%)" stroke-width="0.00290"></path>
<path d="M1.729 0.394 Q1.431 0.494 1.561 0.661" stroke="hsl(180.0,100%,35%)" stroke-width="0.00290"></path>
<path d="M1.729 0.394 Q1.475 0.262 1.163 0.357" stroke="hsl(180.0,100%,35%)" stroke-width="0.00580"></path>
<path d="M1.955 0.443 Q1.363 0.398 1.144 0.676" stroke="hsl(180.0,100%,35%)" stroke-width="0.01450"></path>
<path d="M1.955 0.443 Q1.881 0.373 1.729 0.394" stroke="hsl(180.0,100%,35%)" stroke-width="0.01160"></path>
<path d="M1.955 0.443 Q2.094 0.329 1.903 0.236" stroke="hsl(180.0,100%,35%)" stroke-width="0.05801"></path>
<path d="M1.955 0.443 Q1.764 0.541 1.913 0.656" stroke="hsl(180.0,100%,35%)" stroke-width="0.00290"></path>
<path d="M1.955 0.443 Q0.981 0.132 0.160 0.538" stroke="hsl(180.0,100%,35%)" stroke-width="0.00290"></path>
<path d="M0.070 0.479 Q0.967 0.768 1.729 0.394" stroke="hsl(0.0,100%,35%)" stroke-width="0.00580"></path>
<path d="M0.070 0.479 Q0.067 0.527 0.160 0.538" stroke="hsl(0.0,100%,35%)" stroke-width="0.00290"></path>
<path d="M0.070 0.479 Q0.449 0.793 1.144 0.676" stroke="hsl(0.0,100%,35%)" stroke-width="0.00580"></path>
<path d="M0.070 0.479 Q1.031 0.682 1.638 0.257" stroke="hsl(0.0,100%,35%)" stroke-width="0.00580"></path>
<path d="M0.070 0.479 Q1.041 0.838 1.955 0.443" stroke="hsl(0.0,100%,35%)" stroke-width="0.00580"></path>
<path d="M0.070 0.479 Q1.180 0.724 1.903 0.236" stroke="hsl(0.0,100%,35%)" stroke-width="0.00290"></path>
<path d="M0.070 0.479 Q0.060 0.529 0.156 0.544" stroke="hsl(0.0,100%,35%)" stroke-width="0.00290"></path>
<path d="M0.843 0.751 Q0.768 0.701 0.654 0.726" stroke="hsl(0.0,100%,35%)" stroke-width="0.00290"></path>
<path d="M0.843 0.751 Q1.053 0.774 1.144 0.676" stroke="hsl(0.0,100%,35%)" stroke-width="0.00290"></path>
<path d="M0.843 0.751 Q0.762 0.659 0.565 0.678" stroke="hsl(0.0,100%,35%)" stroke-width="0.00290"></path>
<path d="M0.248 0.258 Q0.101 0.269 0.090 0.344" stroke="hsl(0.0,100%,35%)" stroke-width="0.00870"></path>
<path d="M0.248 0.258 Q0.362 0.646 1.144 0.676" stroke="hsl(0.0,100%,35%)" stroke-width="0.00290"></path>
<path d="M0.248 0.258 Q0.229 0.211 0.134 0.210" stroke="hsl(0.0,100%,35%)" stroke-width="0.00290"></path>
<path d="M0.144 0.673 Q0.283 0.689 0.343 0.624" stroke="hsl(0.0,100%,35%)" stroke-width="0.00870"></path>
<path d="M0.144 0.673 Q1.069 0.741 1.405 0.305" stroke="hsl(0.0,100%,35%)" stroke-width="0.00290"></path>
<path d="M0.144 0.673 Q1.043 1.018 1.913 0.656" stroke="hsl(0.0,100%,35%)" stroke-width="0.00290"></path>
<path d="M0.865 0.274 Q0.716 0.158 0.458 0.206" stroke="hsl(0.0,100%,35%)" stroke-width="0.00290"></path>
<path d="M0.865 0.274 Q0.903 0.607 1.561 0.661" stroke="hsl(0.0,100%,35%)" stroke-width="0.00290"></path>
<path d="M0.865 0.274 Q0.773 0.326 0.854 0.382" stroke="hsl(0.0,100%,35%)" stroke-width="0.00290"></path>
<path d="M1.561 0.661 Q1.526 0.714 1.621 0.742" stroke="hsl(0.0,100%,35%)" stroke-width="0.00580"></path>
<path d="M1.561 0.661 Q0.961 0.272 0.070 0.479" stroke="hsl(0.0,100%,35%)" stroke-width="0.01160"></path>
<path d="M1.561 0.661 Q1.079 0.208 0.090 0.344" stroke="hsl(0.0,100%,35%)" stroke-width="0.00290"></path>
<path d="M0.906 0.557 Q1.521 0.710 1.955 0.443" stroke="hsl(0.0,100%,35%)" stroke-width="0.00580"></path>
<path d="M0.906 0.557 Q0.930 0.664 1.144 0.676" stroke="hsl(0.0,100%,35%)" stroke-width="0.01450"></path>
<path d="M0.906 0.557 Q1.512 0.554 1.638 0.257" stroke="hsl(0.0,100%,35%)" stroke-width="0.00290"></path>
<path d="M0.906 0.557 Q0.424 0.603 0.407 0.848" stroke="hsl(0.0,100%,35%)" stroke-width="0.00290"></path>
<path d="M1.903 0.236 Q1.754 0.194 1.638 0.257" stroke="hsl(180.0,100%,35%)" stroke-width="0.01160"></path>
<path d="M1.903 0.236 Q1.690 0.280 1.729 0.394" stroke="hsl(180.0,100%,35%)" stroke-width="0.01450"></path>
<path d="M1.903 0.236 Q1.763 0.350 1.955 0.443" stroke="hsl(180.0,100%,35%)" stroke-width="0.02610"></path>
<path d="M1.903 0.236 Q1.910 0.188 1.817 0.174" stroke="hsl(180.0,100%,35%)" stroke-width="0.00290"></path>
<path d="M1.903 0.236 Q0.910 -0.072 0.090 0.344" stroke="hsl(180.0,100%,35%)" stroke-width="0.00290"></path>
<path d="M1.903 0.236 Q1.147 0.197 0.906 0.557" stroke="hsl(180.0,100%,35%)" stroke-width="0.00290"></path>
<path d="M1.933 0.827 Q1.880 0.748 1.714 0.756" stroke="hsl(180.0,100%,35%)" stroke-width="0.00580"></path>
<path d="M1.933 0.827 Q1.635 0.486 0.906 0.557" stroke="hsl(180.0,100%,35%)" stroke-width="0.00290"></path>
<path d="M1.933 0.827 Q1.659 0.594 1.144 0.676" stroke="hsl(180.0,100%,35%)" stroke-width="0.00290"></path>
<path d="M1.337 0.975 Q1.218 0.410 0.090 0.344" stroke="hsl(0.0,100%,35%)" stroke-width="0.00290"></path>
<path d="M1.337 0.975 Q1.513 0.415 0.458 0.206" stroke="hsl(0.0,100%,35%)" stroke-width="0.00290"></path>
<path d="M1.337 0.975 Q1.425 0.903 1.305 0.844" stroke="hsl(0.0,100%,35%)" stroke-width="0.00290"></path>
<path d="M1.337 0.975 Q1.528 0.912 1.447 0.804" stroke="hsl(0.0,100%,35%)" stroke-width="0.00580"></path>
<path d="M1.337 0.975 Q1.204 0.859 0.949 0.899" stroke="hsl(0.0,100%,35%)" stroke-width="0.01160"></path>
<path d="M1.337 0.975 Q1.758 0.740 1.393 0.483" stroke="hsl(0.0,100%,35%)" stroke-width="0.00580"></path>
<path d="M1.337 0.975 Q1.382 0.335 0.144 0.173" stroke="hsl(0.0,100%,35%)" stroke-width="0.00580"></path>
<path d="M1.337 0.975 Q1.479 0.787 1.144 0.676" stroke="hsl(0.0,100%,35%)" stroke-width="0.00290"></path>
<path d="M1.337 0.975 Q1.100 0.474 0.070 0.479" stroke="hsl(0.0,100%,35%)" stroke-width="0.00870"></path>
<path d="M1.337 0.975 Q1.533 0.930 1.489 0.825" stroke="hsl(0.0,100%,35%)" stroke-width="0.00290"></path>
<path d="M1.337 0.975 Q1.393 0.867 1.196 0.816" stroke="hsl(0.0,100%,35%)" stroke-width="0.00290"></path>
<path d="M1.337 0.975 Q1.223 0.943 1.137 0.992" stroke="hsl(0.0,100%,35%)" stroke-width="0.00290"></path>
<path d="M1.337 0.975 Q2.211 0.719 1.903 0.236" stroke="hsl(0.0,100%,35%)" stroke-width="0.00290"></path>
<path d="M0.949 0.899 Q1.138 0.907 1.196 0.816" stroke="hsl(0.0,100%,35%)" stroke-width="0.00290"></path>
<path d="M0.949 0.899 Q0.964 0.450 0.090 0.344" stroke="hsl(0.0,100%,35%)" stroke-width="0.00290"></path>
<path d="M0.949 0.899 Q1.503 0.780 1.393 0.483" stroke="hsl(0.0,100%,35%)" stroke-width="0.00290"></path>
<path d="M0.949 0.899 Q1.201 0.719 0.906 0.557" stroke="hsl(0.0,100%,35%)" stroke-width="0.00290"></path>
<path d="M1.634 0.138 Q1.500 0.105 1.407 0.163" stroke="hsl(0.0,100%,35%)" stroke-width="0.00580"></path>
<path d="M1.634 0.138 Q1.643 0.159 1.685 0.159" stroke="hsl(0.0,100%,35%)" stroke-width="0.00580"></path>
<path d="M1.634 0.138 Q1.661 0.069 1.532 0.041" stroke="hsl(0.0,100%,35%)" stroke-width="0.00290"></path>
<path d="M1.409 0.617 Q1.229 0.594 1.144 0.676" stroke="hsl(0.0,100%,35%)" stroke-width="0.00290"></path>
<path d="M1.409 0.617 Q1.086 0.781 1.337 0.975" stroke="hsl(0.0,100%,35%)" stroke-width="0.00290"></path>
<path d="M1.409 0.617 Q1.820 0.639 1.955 0.443" stroke="hsl(0.0,100%,35%)" stroke-width="0.00290"></path>
<path d="M0.675 0.942 Q0.616 0.842 0.407 0.848" stroke="hsl(180.0,100%,35%)" stroke-width="0.00290"></path>
<path d="M0.675 0.942 Q0.481 0.884 0.326 0.966" stroke="hsl(180.0,100%,35%)" stroke-width="0.00290"></path>
<path d="M0.675 0.942 Q1.714 0.949 1.955 0.443" stroke="hsl(180.0,100%,35%)" stroke-width="0.00290"></path>
<path d="M1.912 0.552 Q2.020 0.506 1.955 0.443" stroke="hsl(0.0,100%,35%)" stroke-width="0.00290"></path>
<path d="M1.912 0.552 Q1.830 0.604 1.913 0.656" stroke="hsl(0.0,100%,35%)" stroke-width="0.00290"></path>
<path d="M1.912 0.552 Q1.708 0.414 1.393 0.483" stroke="hsl(0.0,100%,35%)" stroke-width="0.00290"></path>
<path d="M1.912 0.552 Q1.153 0.533 0.949 0.899" stroke="hsl(0.0,100%,35%)" stroke-width="0.00290"></path>
</g>
<text x="0.458" y="0.181" font-size="0.049021" fill="hsl(0.0,100%,20%)">arthursonzogni</text>
<text x="1.144" y="0.646" font-size="0.060361" fill="hsl(180.0,100%,20%)">keishi</text>
<text x="1.729" y="0.351" font-size="0.085816" fill="hsl(180.0,100%,20%)">mikt</text>
<text x="0.144" y="0.158" font-size="0.029201" fill="hsl(0.0,100%,20%)">danakj</text>
<text x="0.759" y="0.094" font-size="0.012451" fill="hsl(0.0,100%,20%)">bartekn</text>
<text x="1.638" y="0.243" font-size="0.027842" fill="hsl(180.0,100%,20%)">glazunov</text>
<text x="1.955" y="0.403" font-size="0.081650" fill="hsl(180.0,100%,20%)">tasak</text>
<text x="0.503" y="0.292" font-size="0.015250" fill="hsl(0.0,100%,20%)">wez</text>
<text x="1.393" y="0.467" font-size="0.031745" fill="hsl(180.0,100%,20%)">dcheng</text>
<text x="0.070" y="0.459" font-size="0.040347" fill="hsl(0.0,100%,20%)">lizeb</text>
<text x="0.843" y="0.744" font-size="0.015250" fill="hsl(0.0,100%,20%)">bwwilliams</text>
<text x="0.654" y="0.722" font-size="0.008805" fill="hsl(0.0,100%,20%)">ajuma</text>
<text x="0.565" y="0.673" font-size="0.008805" fill="hsl(0.0,100%,20%)">noyau</text>
<text x="0.248" y="0.248" font-size="0.019687" fill="hsl(0.0,100%,20%)">dloehr</text>
<text x="0.090" y="0.329" font-size="0.029201" fill="hsl(0.0,100%,20%)">haraken</text>
<text x="0.134" y="0.206" font-size="0.008805" fill="hsl(0.0,100%,20%)">avi</text>
<text x="0.144" y="0.663" font-size="0.019687" fill="hsl(0.0,100%,20%)">dtapuska</text>
<text x="0.343" y="0.616" font-size="0.015250" fill="hsl(0.0,100%,20%)">wfh</text>
<text x="1.405" y="0.299" font-size="0.012451" fill="hsl(0.0,100%,20%)">justincohen</text>
<text x="1.913" y="0.648" font-size="0.015250" fill="hsl(0.0,100%,20%)">thakis</text>
<text x="0.865" y="0.266" font-size="0.015250" fill="hsl(0.0,100%,20%)">edechamps</text>
<text x="1.561" y="0.648" font-size="0.026414" fill="hsl(0.0,100%,20%)">fdoray</text>
<text x="0.854" y="0.377" font-size="0.008805" fill="hsl(0.0,100%,20%)">lukasza</text>
<text x="1.621" y="0.736" font-size="0.012451" fill="hsl(0.0,100%,20%)">grt</text>
<text x="0.906" y="0.542" font-size="0.030500" fill="hsl(0.0,100%,20%)">kdlee</text>
<text x="0.407" y="0.840" font-size="0.015250" fill="hsl(0.0,100%,20%)">mlippautz</text>
<text x="1.149" y="0.501" font-size="0.008805" fill="hsl(180.0,100%,20%)">wittman</text>
<text x="1.407" y="0.155" font-size="0.015250" fill="hsl(0.0,100%,20%)">qjw</text>
<text x="0.160" y="0.532" font-size="0.012451" fill="hsl(0.0,100%,20%)">ahijazi</text>
<text x="1.903" y="0.206" font-size="0.060999" fill="hsl(180.0,100%,20%)">yukishiino</text>
<text x="0.156" y="0.540" font-size="0.008805" fill="hsl(0.0,100%,20%)">acondor</text>
<text x="1.704" y="0.521" font-size="0.008805" fill="hsl(180.0,100%,20%)">dpranke</text>
<text x="1.099" y="0.428" font-size="0.008805" fill="hsl(180.0,100%,20%)">jwata</text>
<text x="1.738" y="0.568" font-size="0.008805" fill="hsl(180.0,100%,20%)">kouhei</text>
<text x="1.424" y="0.244" font-size="0.008805" fill="hsl(180.0,100%,20%)">rogerm</text>
<text x="1.547" y="0.493" font-size="0.008805" fill="hsl(180.0,100%,20%)">marq</text>
<text x="0.326" y="0.960" font-size="0.012451" fill="hsl(0.0,100%,20%)">mpdenton</text>
<text x="1.933" y="0.815" font-size="0.023295" fill="hsl(180.0,100%,20%)">nuskos</text>
<text x="1.228" y="0.301" font-size="0.008805" fill="hsl(180.0,100%,20%)">gab</text>
<text x="1.465" y="0.318" font-size="0.008805" fill="hsl(180.0,100%,20%)">thiabaud</text>
<text x="1.163" y="0.351" font-size="0.012451" fill="hsl(180.0,100%,20%)">paulsemel</text>
<text x="1.714" y="0.750" font-size="0.012451" fill="hsl(0.0,100%,20%)">ajgo</text>
<text x="1.337" y="0.954" font-size="0.041297" fill="hsl(0.0,100%,20%)">pkasting</text>
<text x="1.305" y="0.840" font-size="0.008805" fill="hsl(0.0,100%,20%)">hans</text>
<text x="1.447" y="0.798" font-size="0.012451" fill="hsl(0.0,100%,20%)">jbroman</text>
<text x="0.949" y="0.886" font-size="0.026414" fill="hsl(0.0,100%,20%)">thestig</text>
<text x="1.489" y="0.820" font-size="0.008805" fill="hsl(0.0,100%,20%)">blundell</text>
<text x="1.196" y="0.810" font-size="0.012451" fill="hsl(0.0,100%,20%)">kylechar</text>
<text x="1.137" y="0.987" font-size="0.008805" fill="hsl(0.0,100%,20%)">pbos</text>
<text x="1.634" y="0.128" font-size="0.019687" fill="hsl(0.0,100%,20%)">rop</text>
<text x="1.685" y="0.153" font-size="0.012451" fill="hsl(0.0,100%,20%)">renewitt</text>
<text x="1.532" y="0.037" font-size="0.008805" fill="hsl(0.0,100%,20%)">jsca</text>
<text x="1.409" y="0.609" font-size="0.015250" fill="hsl(0.0,100%,20%)">rsworktech</text>
<text x="0.675" y="0.935" font-size="0.015250" fill="hsl(180.0,100%,20%)">sroettger</text>
<text x="1.912" y="0.543" font-size="0.017609" fill="hsl(0.0,100%,20%)">tikuta</text>
<text x="1.817" y="0.170" font-size="0.008805" fill="hsl(180.0,100%,20%)">mark</text>
</svg>
