<svg width="4000" height="2000" viewBox="-0.025 -0.025 2.05 1.05" xmlns="http://www.w3.org/2000/svg">
  <style>
    path {
      fill: none;
      stroke-linecap: round;
      stroke-opacity: 0.4;
    }

    text {
      text-anchor: middle;
      alignment-baseline: hanging;
    }
  </style>
  <g opacity="0.4">
<path d="M0.199 0.678 Q0.312 0.638 0.258 0.575" stroke="hsl(0.0,100%,35%)" stroke-width="0.01026"></path>
<path d="M0.199 0.678 Q0.421 0.565 0.249 0.432" stroke="hsl(0.0,100%,35%)" stroke-width="0.01026"></path>
<path d="M0.199 0.678 Q0.283 0.939 0.809 0.955" stroke="hsl(0.0,100%,35%)" stroke-width="0.01026"></path>
<path d="M1.098 1.040 Q1.021 0.940 0.809 0.955" stroke="hsl(0.0,100%,35%)" stroke-width="0.04103"></path>
<path d="M1.098 1.040 Q0.938 0.680 0.199 0.678" stroke="hsl(0.0,100%,35%)" stroke-width="0.01026"></path>
<path d="M1.098 1.040 Q1.295 1.028 1.315 0.929" stroke="hsl(0.0,100%,35%)" stroke-width="0.14359"></path>
<path d="M1.098 1.040 Q1.435 1.032 1.492 0.866" stroke="hsl(0.0,100%,35%)" stroke-width="0.02051"></path>
<path d="M1.098 1.040 Q1.050 0.640 0.258 0.575" stroke="hsl(0.0,100%,35%)" stroke-width="0.01026"></path>
<path d="M1.098 1.040 Q0.830 0.861 0.420 0.952" stroke="hsl(0.0,100%,35%)" stroke-width="0.01026"></path>
<path d="M1.098 1.040 Q1.017 0.846 0.620 0.843" stroke="hsl(0.0,100%,35%)" stroke-width="0.01026"></path>
<path d="M1.098 1.040 Q1.401 0.863 1.122 0.676" stroke="hsl(0.0,100%,35%)" stroke-width="0.01026"></path>
<path d="M1.098 1.040 Q1.232 0.943 1.071 0.855" stroke="hsl(0.0,100%,35%)" stroke-width="0.01026"></path>
<path d="M1.098 1.040 Q1.280 0.820 0.890 0.683" stroke="hsl(0.0,100%,35%)" stroke-width="0.01026"></path>
<path d="M1.098 1.040 Q1.160 0.566 0.249 0.432" stroke="hsl(0.0,100%,35%)" stroke-width="0.01026"></path>
<path d="M1.098 1.040 Q1.106 0.721 0.486 0.647" stroke="hsl(0.0,100%,35%)" stroke-width="0.03077"></path>
<path d="M1.098 1.040 Q0.961 0.775 0.413 0.784" stroke="hsl(0.0,100%,35%)" stroke-width="0.02051"></path>
<path d="M1.512 0.673 Q1.584 0.721 1.693 0.696" stroke="hsl(0.0,100%,35%)" stroke-width="0.01026"></path>
<path d="M1.512 0.673 Q1.020 0.455 0.486 0.647" stroke="hsl(0.0,100%,35%)" stroke-width="0.01026"></path>
<path d="M1.512 0.673 Q1.348 0.766 1.492 0.866" stroke="hsl(0.0,100%,35%)" stroke-width="0.01026"></path>
</g>
<text x="0.199" y="0.656" font-size="0.045291" fill="hsl(0.0,100%,20%)">lizeb</text>
<text x="0.258" y="0.559" font-size="0.032026" fill="hsl(0.0,100%,20%)">glazunov</text>
<text x="0.249" y="0.416" font-size="0.032026" fill="hsl(0.0,100%,20%)">yukishiino</text>
<text x="0.809" y="0.930" font-size="0.050637" fill="hsl(0.0,100%,20%)">keishi</text>
<text x="1.098" y="0.975" font-size="0.130089" fill="hsl(0.0,100%,20%)">mikt</text>
<text x="1.315" y="0.887" font-size="0.084732" fill="hsl(0.0,100%,20%)">tasak</text>
<text x="1.492" y="0.846" font-size="0.039223" fill="hsl(0.0,100%,20%)">dcheng</text>
<text x="0.420" y="0.941" font-size="0.022646" fill="hsl(0.0,100%,20%)">wez</text>
<text x="0.620" y="0.832" font-size="0.022646" fill="hsl(0.0,100%,20%)">gab</text>
<text x="1.122" y="0.665" font-size="0.022646" fill="hsl(0.0,100%,20%)">thiabaud</text>
<text x="1.071" y="0.844" font-size="0.022646" fill="hsl(0.0,100%,20%)">fdoray</text>
<text x="0.890" y="0.671" font-size="0.022646" fill="hsl(0.0,100%,20%)">paulsemel</text>
<text x="0.486" y="0.624" font-size="0.045291" fill="hsl(0.0,100%,20%)">haraken</text>
<text x="0.413" y="0.768" font-size="0.032026" fill="hsl(0.0,100%,20%)">nuskos</text>
<text x="1.512" y="0.654" font-size="0.039223" fill="hsl(0.0,100%,20%)">thestig</text>
<text x="1.693" y="0.684" font-size="0.022646" fill="hsl(0.0,100%,20%)">kylechar</text>
</svg>
