<svg width="4000" height="2000" viewBox="-0.025 -0.025 2.05 1.05" xmlns="http://www.w3.org/2000/svg">
  <style>
    path {
      fill: none;
      stroke-linecap: round;
      stroke-opacity: 0.4;
    }

    text {
      text-anchor: middle;
      alignment-baseline: hanging;
    }
  </style>
  <g opacity="0.4">
<path d="M1.958 0.369 Q1.442 0.143 0.888 0.346" stroke="hsl(0.0,100%,35%)" stroke-width="0.00441"></path>
<path d="M1.958 0.369 Q1.917 0.296 1.766 0.301" stroke="hsl(0.0,100%,35%)" stroke-width="0.00881"></path>
<path d="M1.958 0.369 Q2.025 0.197 1.704 0.127" stroke="hsl(0.0,100%,35%)" stroke-width="0.01028"></path>
<path d="M1.958 0.369 Q1.513 0.216 1.117 0.400" stroke="hsl(0.0,100%,35%)" stroke-width="0.00588"></path>
<path d="M1.958 0.369 Q1.370 0.297 1.101 0.568" stroke="hsl(0.0,100%,35%)" stroke-width="0.00147"></path>
<path d="M1.958 0.369 Q1.849 0.230 1.553 0.253" stroke="hsl(0.0,100%,35%)" stroke-width="0.00147"></path>
<path d="M0.888 0.346 Q1.121 0.454 1.384 0.363" stroke="hsl(180.0,100%,35%)" stroke-width="0.01763"></path>
<path d="M0.888 0.346 Q0.960 0.234 0.757 0.174" stroke="hsl(180.0,100%,35%)" stroke-width="0.01469"></path>
<path d="M0.888 0.346 Q1.363 0.499 1.766 0.301" stroke="hsl(180.0,100%,35%)" stroke-width="0.01322"></path>
<path d="M0.888 0.346 Q0.959 0.419 1.117 0.400" stroke="hsl(180.0,100%,35%)" stroke-width="0.02351"></path>
<path d="M0.888 0.346 Q0.816 0.499 1.101 0.568" stroke="hsl(180.0,100%,35%)" stroke-width="0.01028"></path>
<path d="M0.888 0.346 Q0.811 0.409 0.917 0.460" stroke="hsl(180.0,100%,35%)" stroke-width="0.00147"></path>
<path d="M0.888 0.346 Q0.311 0.464 0.417 0.772" stroke="hsl(180.0,100%,35%)" stroke-width="0.00147"></path>
<path d="M0.888 0.346 Q0.703 0.355 0.680 0.446" stroke="hsl(180.0,100%,35%)" stroke-width="0.01175"></path>
<path d="M0.888 0.346 Q0.646 0.460 0.816 0.603" stroke="hsl(180.0,100%,35%)" stroke-width="0.00441"></path>
<path d="M0.888 0.346 Q0.857 0.386 0.928 0.409" stroke="hsl(180.0,100%,35%)" stroke-width="0.00294"></path>
<path d="M0.888 0.346 Q0.827 0.376 0.875 0.413" stroke="hsl(180.0,100%,35%)" stroke-width="0.00147"></path>
<path d="M0.888 0.346 Q1.295 0.432 1.553 0.253" stroke="hsl(180.0,100%,35%)" stroke-width="0.01028"></path>
<path d="M0.888 0.346 Q0.845 0.427 0.993 0.465" stroke="hsl(180.0,100%,35%)" stroke-width="0.00147"></path>
<path d="M0.888 0.346 Q0.844 0.388 0.917 0.418" stroke="hsl(180.0,100%,35%)" stroke-width="0.00147"></path>
<path d="M0.888 0.346 Q0.411 0.376 0.367 0.615" stroke="hsl(180.0,100%,35%)" stroke-width="0.00147"></path>
<path d="M0.888 0.346 Q0.505 0.584 0.887 0.823" stroke="hsl(180.0,100%,35%)" stroke-width="0.00441"></path>
<path d="M0.888 0.346 Q1.177 0.318 1.186 0.170" stroke="hsl(180.0,100%,35%)" stroke-width="0.00147"></path>
<path d="M0.888 0.346 Q1.008 0.272 0.891 0.196" stroke="hsl(180.0,100%,35%)" stroke-width="0.00147"></path>
<path d="M0.888 0.346 Q1.339 0.577 1.891 0.408" stroke="hsl(180.0,100%,35%)" stroke-width="0.00147"></path>
<path d="M0.888 0.346 Q1.471 0.399 1.704 0.127" stroke="hsl(180.0,100%,35%)" stroke-width="0.00735"></path>
<path d="M0.888 0.346 Q0.963 0.468 1.218 0.459" stroke="hsl(180.0,100%,35%)" stroke-width="0.00147"></path>
<path d="M1.766 0.301 Q1.874 0.201 1.704 0.127" stroke="hsl(0.0,100%,35%)" stroke-width="0.04114"></path>
<path d="M1.766 0.301 Q1.698 0.234 1.553 0.253" stroke="hsl(0.0,100%,35%)" stroke-width="0.01469"></path>
<path d="M1.766 0.301 Q1.525 0.256 1.384 0.363" stroke="hsl(0.0,100%,35%)" stroke-width="0.01469"></path>
<path d="M1.766 0.301 Q1.291 0.147 0.888 0.346" stroke="hsl(0.0,100%,35%)" stroke-width="0.01910"></path>
<path d="M1.766 0.301 Q1.158 0.026 0.490 0.263" stroke="hsl(0.0,100%,35%)" stroke-width="0.00147"></path>
<path d="M1.766 0.301 Q1.220 0.301 1.101 0.568" stroke="hsl(0.0,100%,35%)" stroke-width="0.00294"></path>
<path d="M1.766 0.301 Q1.366 0.270 1.218 0.459" stroke="hsl(0.0,100%,35%)" stroke-width="0.00147"></path>
<path d="M1.766 0.301 Q1.902 0.263 1.858 0.188" stroke="hsl(0.0,100%,35%)" stroke-width="0.00147"></path>
<path d="M1.704 0.127 Q1.192 0.146 1.117 0.400" stroke="hsl(0.0,100%,35%)" stroke-width="0.00294"></path>
<path d="M1.704 0.127 Q1.531 0.099 1.439 0.177" stroke="hsl(0.0,100%,35%)" stroke-width="0.00147"></path>
<path d="M1.704 0.127 Q1.527 0.160 1.553 0.253" stroke="hsl(0.0,100%,35%)" stroke-width="0.02938"></path>
<path d="M1.704 0.127 Q1.121 0.073 0.888 0.346" stroke="hsl(0.0,100%,35%)" stroke-width="0.00881"></path>
<path d="M1.704 0.127 Q0.936 0.082 0.680 0.446" stroke="hsl(0.0,100%,35%)" stroke-width="0.00147"></path>
<path d="M1.704 0.127 Q0.738 0.311 0.887 0.823" stroke="hsl(0.0,100%,35%)" stroke-width="0.00147"></path>
<path d="M1.704 0.127 Q1.648 0.164 1.710 0.200" stroke="hsl(0.0,100%,35%)" stroke-width="0.00735"></path>
<path d="M1.704 0.127 Q1.195 0.196 1.218 0.459" stroke="hsl(0.0,100%,35%)" stroke-width="0.00294"></path>
<path d="M1.704 0.127 Q1.662 0.069 1.540 0.076" stroke="hsl(0.0,100%,35%)" stroke-width="0.00147"></path>
<path d="M1.704 0.127 Q1.078 0.154 0.993 0.465" stroke="hsl(0.0,100%,35%)" stroke-width="0.00147"></path>
<path d="M1.704 0.127 Q1.596 0.226 1.766 0.301" stroke="hsl(0.0,100%,35%)" stroke-width="0.00735"></path>
<path d="M1.704 0.127 Q1.049 0.227 1.101 0.568" stroke="hsl(0.0,100%,35%)" stroke-width="0.00147"></path>
<path d="M1.704 0.127 Q1.354 0.181 1.384 0.363" stroke="hsl(0.0,100%,35%)" stroke-width="0.00441"></path>
<path d="M1.117 0.400 Q0.975 0.481 1.101 0.568" stroke="hsl(180.0,100%,35%)" stroke-width="0.00588"></path>
<path d="M1.117 0.400 Q1.046 0.327 0.888 0.346" stroke="hsl(180.0,100%,35%)" stroke-width="0.03673"></path>
<path d="M1.117 0.400 Q0.913 0.206 0.490 0.263" stroke="hsl(180.0,100%,35%)" stroke-width="0.00147"></path>
<path d="M1.117 0.400 Q0.804 0.441 0.816 0.603" stroke="hsl(180.0,100%,35%)" stroke-width="0.00294"></path>
<path d="M1.117 0.400 Q1.629 0.381 1.704 0.127" stroke="hsl(180.0,100%,35%)" stroke-width="0.00881"></path>
<path d="M1.117 0.400 Q1.280 0.435 1.384 0.363" stroke="hsl(180.0,100%,35%)" stroke-width="0.03085"></path>
<path d="M1.117 0.400 Q1.121 0.449 1.218 0.459" stroke="hsl(180.0,100%,35%)" stroke-width="0.01322"></path>
<path d="M1.117 0.400 Q1.521 0.480 1.766 0.301" stroke="hsl(180.0,100%,35%)" stroke-width="0.00294"></path>
<path d="M1.117 0.400 Q1.142 0.492 1.327 0.500" stroke="hsl(180.0,100%,35%)" stroke-width="0.00147"></path>
<path d="M1.117 0.400 Q0.470 0.446 0.417 0.772" stroke="hsl(180.0,100%,35%)" stroke-width="0.00147"></path>
<path d="M1.117 0.400 Q0.706 0.664 1.132 0.923" stroke="hsl(180.0,100%,35%)" stroke-width="0.00147"></path>
<path d="M1.117 0.400 Q1.453 0.413 1.553 0.253" stroke="hsl(180.0,100%,35%)" stroke-width="0.00588"></path>
<path d="M1.117 0.400 Q1.335 0.299 1.186 0.170" stroke="hsl(180.0,100%,35%)" stroke-width="0.00588"></path>
<path d="M1.117 0.400 Q1.289 0.264 1.062 0.151" stroke="hsl(180.0,100%,35%)" stroke-width="0.00294"></path>
<path d="M1.117 0.400 Q1.159 0.445 1.256 0.435" stroke="hsl(180.0,100%,35%)" stroke-width="0.00147"></path>
<path d="M1.117 0.400 Q1.574 0.418 1.710 0.200" stroke="hsl(180.0,100%,35%)" stroke-width="0.00294"></path>
<path d="M1.117 0.400 Q1.009 0.411 1.007 0.467" stroke="hsl(180.0,100%,35%)" stroke-width="0.00147"></path>
<path d="M1.117 0.400 Q1.431 0.308 1.321 0.135" stroke="hsl(180.0,100%,35%)" stroke-width="0.00147"></path>
<path d="M1.117 0.400 Q1.291 0.224 0.987 0.101" stroke="hsl(180.0,100%,35%)" stroke-width="0.00147"></path>
<path d="M1.117 0.400 Q1.539 0.277 1.390 0.044" stroke="hsl(180.0,100%,35%)" stroke-width="0.00147"></path>
<path d="M1.117 0.400 Q1.221 0.446 1.335 0.406" stroke="hsl(180.0,100%,35%)" stroke-width="0.00147"></path>
<path d="M1.101 0.568 Q1.172 0.414 0.888 0.346" stroke="hsl(180.0,100%,35%)" stroke-width="0.03820"></path>
<path d="M1.101 0.568 Q0.930 0.529 0.816 0.603" stroke="hsl(180.0,100%,35%)" stroke-width="0.05876"></path>
<path d="M1.101 0.568 Q1.755 0.468 1.704 0.127" stroke="hsl(180.0,100%,35%)" stroke-width="0.01028"></path>
<path d="M1.101 0.568 Q1.244 0.487 1.117 0.400" stroke="hsl(180.0,100%,35%)" stroke-width="0.00294"></path>
<path d="M1.101 0.568 Q0.983 0.703 1.220 0.791" stroke="hsl(180.0,100%,35%)" stroke-width="0.00147"></path>
<path d="M1.101 0.568 Q1.579 0.501 1.553 0.253" stroke="hsl(180.0,100%,35%)" stroke-width="0.00147"></path>
<path d="M1.101 0.568 Q1.247 0.537 1.218 0.459" stroke="hsl(180.0,100%,35%)" stroke-width="0.00294"></path>
<path d="M1.101 0.568 Q1.151 0.646 1.314 0.639" stroke="hsl(180.0,100%,35%)" stroke-width="0.00147"></path>
<path d="M1.101 0.568 Q1.406 0.522 1.384 0.363" stroke="hsl(180.0,100%,35%)" stroke-width="0.00735"></path>
<path d="M1.101 0.568 Q0.790 0.652 0.887 0.823" stroke="hsl(180.0,100%,35%)" stroke-width="0.00147"></path>
<path d="M1.101 0.568 Q1.129 0.495 0.993 0.465" stroke="hsl(180.0,100%,35%)" stroke-width="0.00588"></path>
<path d="M1.101 0.568 Q0.596 0.533 0.417 0.772" stroke="hsl(180.0,100%,35%)" stroke-width="0.00588"></path>
<path d="M1.101 0.568 Q1.244 0.302 0.757 0.174" stroke="hsl(180.0,100%,35%)" stroke-width="0.00147"></path>
<path d="M1.553 0.253 Q1.217 0.239 1.117 0.400" stroke="hsl(0.0,100%,35%)" stroke-width="0.00294"></path>
<path d="M1.553 0.253 Q1.729 0.220 1.704 0.127" stroke="hsl(0.0,100%,35%)" stroke-width="0.01175"></path>
<path d="M1.553 0.253 Q1.146 0.166 0.888 0.346" stroke="hsl(0.0,100%,35%)" stroke-width="0.00147"></path>
<path d="M1.553 0.253 Q1.221 0.289 1.218 0.459" stroke="hsl(0.0,100%,35%)" stroke-width="0.00147"></path>
<path d="M1.553 0.253 Q1.761 0.296 1.891 0.204" stroke="hsl(0.0,100%,35%)" stroke-width="0.00147"></path>
<path d="M1.553 0.253 Q1.794 0.247 1.836 0.128" stroke="hsl(0.0,100%,35%)" stroke-width="0.00147"></path>
<path d="M1.553 0.253 Q1.751 0.299 1.885 0.213" stroke="hsl(0.0,100%,35%)" stroke-width="0.00147"></path>
<path d="M1.553 0.253 Q1.389 0.104 1.062 0.151" stroke="hsl(0.0,100%,35%)" stroke-width="0.00294"></path>
<path d="M1.553 0.253 Q1.674 0.258 1.710 0.200" stroke="hsl(0.0,100%,35%)" stroke-width="0.00147"></path>
<path d="M1.553 0.253 Q1.218 0.054 0.757 0.174" stroke="hsl(0.0,100%,35%)" stroke-width="0.00147"></path>
<path d="M0.814 0.695 Q0.723 0.691 0.694 0.734" stroke="hsl(180.0,100%,35%)" stroke-width="0.00147"></path>
<path d="M0.814 0.695 Q0.748 0.773 0.887 0.823" stroke="hsl(180.0,100%,35%)" stroke-width="0.00441"></path>
<path d="M0.814 0.695 Q0.679 0.713 0.684 0.783" stroke="hsl(180.0,100%,35%)" stroke-width="0.00147"></path>
<path d="M0.814 0.695 Q0.764 0.640 0.645 0.652" stroke="hsl(180.0,100%,35%)" stroke-width="0.00147"></path>
<path d="M0.887 0.823 Q0.693 0.703 0.417 0.772" stroke="hsl(180.0,100%,35%)" stroke-width="0.00147"></path>
<path d="M0.887 0.823 Q0.759 0.862 0.808 0.933" stroke="hsl(180.0,100%,35%)" stroke-width="0.00147"></path>
<path d="M0.887 0.823 Q0.929 0.922 1.132 0.923" stroke="hsl(180.0,100%,35%)" stroke-width="0.00294"></path>
<path d="M0.887 0.823 Q1.029 0.865 1.144 0.805" stroke="hsl(180.0,100%,35%)" stroke-width="0.00147"></path>
<path d="M0.887 0.823 Q1.269 0.584 0.888 0.346" stroke="hsl(180.0,100%,35%)" stroke-width="0.00147"></path>
<path d="M0.887 0.823 Q1.676 0.671 1.553 0.253" stroke="hsl(180.0,100%,35%)" stroke-width="0.00588"></path>
<path d="M0.917 0.460 Q0.994 0.397 0.888 0.346" stroke="hsl(180.0,100%,35%)" stroke-width="0.00881"></path>
<path d="M0.917 0.460 Q0.418 0.516 0.417 0.772" stroke="hsl(180.0,100%,35%)" stroke-width="0.00294"></path>
<path d="M0.917 0.460 Q0.923 0.551 1.101 0.568" stroke="hsl(180.0,100%,35%)" stroke-width="0.00294"></path>
<path d="M0.917 0.460 Q1.228 0.693 1.751 0.592" stroke="hsl(180.0,100%,35%)" stroke-width="0.00147"></path>
<path d="M0.134 0.527 Q0.180 0.618 0.367 0.615" stroke="hsl(180.0,100%,35%)" stroke-width="0.00441"></path>
<path d="M0.134 0.527 Q0.377 0.539 0.454 0.423" stroke="hsl(180.0,100%,35%)" stroke-width="0.00441"></path>
<path d="M0.134 0.527 Q0.166 0.458 0.039 0.428" stroke="hsl(180.0,100%,35%)" stroke-width="0.00147"></path>
<path d="M0.816 0.603 Q1.133 0.611 1.218 0.459" stroke="hsl(180.0,100%,35%)" stroke-width="0.00147"></path>
<path d="M0.816 0.603 Q0.708 0.531 0.543 0.567" stroke="hsl(180.0,100%,35%)" stroke-width="0.00441"></path>
<path d="M0.816 0.603 Q0.582 0.519 0.367 0.615" stroke="hsl(180.0,100%,35%)" stroke-width="0.00294"></path>
<path d="M0.816 0.603 Q0.345 0.566 0.169 0.788" stroke="hsl(180.0,100%,35%)" stroke-width="0.00294"></path>
<path d="M0.816 0.603 Q0.676 0.727 0.887 0.823" stroke="hsl(180.0,100%,35%)" stroke-width="0.00147"></path>
<path d="M0.816 0.603 Q0.698 0.571 0.610 0.622" stroke="hsl(180.0,100%,35%)" stroke-width="0.00147"></path>
<path d="M1.218 0.459 Q1.072 0.490 1.101 0.568" stroke="hsl(180.0,100%,35%)" stroke-width="0.00294"></path>
<path d="M1.218 0.459 Q1.433 0.308 1.186 0.170" stroke="hsl(180.0,100%,35%)" stroke-width="0.00147"></path>
<path d="M1.218 0.459 Q1.143 0.336 0.888 0.346" stroke="hsl(180.0,100%,35%)" stroke-width="0.00147"></path>
<path d="M1.218 0.459 Q1.726 0.390 1.704 0.127" stroke="hsl(180.0,100%,35%)" stroke-width="0.00441"></path>
<path d="M1.218 0.459 Q1.362 0.519 1.513 0.462" stroke="hsl(180.0,100%,35%)" stroke-width="0.00147"></path>
<path d="M1.384 0.363 Q1.150 0.255 0.888 0.346" stroke="hsl(180.0,100%,35%)" stroke-width="0.02057"></path>
<path d="M1.384 0.363 Q1.221 0.328 1.117 0.400" stroke="hsl(180.0,100%,35%)" stroke-width="0.00147"></path>
<path d="M1.384 0.363 Q1.359 0.198 1.032 0.174" stroke="hsl(180.0,100%,35%)" stroke-width="0.00147"></path>
<path d="M1.384 0.363 Q1.325 0.269 1.129 0.277" stroke="hsl(180.0,100%,35%)" stroke-width="0.00147"></path>
<path d="M1.384 0.363 Q1.733 0.309 1.704 0.127" stroke="hsl(180.0,100%,35%)" stroke-width="0.00294"></path>
<path d="M1.384 0.363 Q1.322 0.251 1.089 0.257" stroke="hsl(180.0,100%,35%)" stroke-width="0.00147"></path>
<path d="M0.169 0.788 Q0.306 0.829 0.417 0.772" stroke="hsl(180.0,100%,35%)" stroke-width="0.00881"></path>
<path d="M0.169 0.788 Q1.465 0.764 1.704 0.127" stroke="hsl(180.0,100%,35%)" stroke-width="0.00147"></path>
<path d="M0.169 0.788 Q1.116 0.818 1.384 0.363" stroke="hsl(180.0,100%,35%)" stroke-width="0.00147"></path>
<path d="M0.169 0.788 Q0.406 0.741 0.367 0.615" stroke="hsl(180.0,100%,35%)" stroke-width="0.00735"></path>
<path d="M0.680 0.446 Q0.793 0.591 1.101 0.568" stroke="hsl(180.0,100%,35%)" stroke-width="0.00147"></path>
<path d="M0.680 0.446 Q0.865 0.437 0.888 0.346" stroke="hsl(180.0,100%,35%)" stroke-width="0.01175"></path>
<path d="M0.680 0.446 Q0.940 0.560 1.218 0.459" stroke="hsl(180.0,100%,35%)" stroke-width="0.00588"></path>
<path d="M0.680 0.446 Q1.340 0.591 1.766 0.301" stroke="hsl(180.0,100%,35%)" stroke-width="0.00294"></path>
<path d="M0.680 0.446 Q1.272 0.524 1.553 0.253" stroke="hsl(180.0,100%,35%)" stroke-width="0.00147"></path>
<path d="M0.928 0.409 Q0.959 0.369 0.888 0.346" stroke="hsl(180.0,100%,35%)" stroke-width="0.00147"></path>
<path d="M0.928 0.409 Q1.034 0.492 1.218 0.459" stroke="hsl(180.0,100%,35%)" stroke-width="0.00147"></path>
<path d="M0.928 0.409 Q1.193 0.478 1.384 0.363" stroke="hsl(180.0,100%,35%)" stroke-width="0.00147"></path>
<path d="M1.891 0.408 Q1.057 0.415 0.887 0.823" stroke="hsl(0.0,100%,35%)" stroke-width="0.00147"></path>
<path d="M1.891 0.408 Q1.915 0.330 1.766 0.301" stroke="hsl(0.0,100%,35%)" stroke-width="0.00294"></path>
<path d="M1.891 0.408 Q1.673 0.285 1.384 0.363" stroke="hsl(0.0,100%,35%)" stroke-width="0.00147"></path>
<path d="M0.543 0.567 Q0.674 0.562 0.692 0.497" stroke="hsl(180.0,100%,35%)" stroke-width="0.00147"></path>
<path d="M0.543 0.567 Q1.476 0.579 1.704 0.127" stroke="hsl(180.0,100%,35%)" stroke-width="0.00147"></path>
<path d="M0.543 0.567 Q0.968 0.648 1.218 0.459" stroke="hsl(180.0,100%,35%)" stroke-width="0.00147"></path>
<path d="M0.345 0.185 Q0.355 0.253 0.490 0.263" stroke="hsl(180.0,100%,35%)" stroke-width="0.00147"></path>
<path d="M0.345 0.185 Q0.722 0.482 1.384 0.363" stroke="hsl(180.0,100%,35%)" stroke-width="0.00147"></path>
<path d="M0.345 0.185 Q0.488 0.374 0.888 0.346" stroke="hsl(180.0,100%,35%)" stroke-width="0.00147"></path>
<path d="M1.513 0.462 Q0.818 0.310 0.367 0.615" stroke="hsl(180.0,100%,35%)" stroke-width="0.00147"></path>
<path d="M1.513 0.462 Q1.369 0.402 1.218 0.459" stroke="hsl(180.0,100%,35%)" stroke-width="0.00294"></path>
<path d="M1.513 0.462 Q1.638 0.462 1.665 0.401" stroke="hsl(180.0,100%,35%)" stroke-width="0.00147"></path>
<path d="M1.281 0.681 Q1.403 0.715 1.497 0.664" stroke="hsl(180.0,100%,35%)" stroke-width="0.00147"></path>
<path d="M1.281 0.681 Q0.776 0.553 0.417 0.772" stroke="hsl(180.0,100%,35%)" stroke-width="0.00147"></path>
<path d="M1.281 0.681 Q1.285 0.761 1.443 0.777" stroke="hsl(180.0,100%,35%)" stroke-width="0.00147"></path>
<path d="M0.692 0.497 Q0.911 0.460 0.888 0.346" stroke="hsl(180.0,100%,35%)" stroke-width="0.00147"></path>
<path d="M0.692 0.497 Q0.561 0.502 0.543 0.567" stroke="hsl(180.0,100%,35%)" stroke-width="0.00147"></path>
<path d="M0.692 0.497 Q0.880 0.500 0.928 0.409" stroke="hsl(180.0,100%,35%)" stroke-width="0.00147"></path>
<path d="M0.692 0.497 Q0.594 0.620 0.814 0.695" stroke="hsl(180.0,100%,35%)" stroke-width="0.00147"></path>
<path d="M1.055 0.690 Q1.321 0.607 1.218 0.459" stroke="hsl(180.0,100%,35%)" stroke-width="0.00147"></path>
<path d="M1.055 0.690 Q1.465 0.668 1.513 0.462" stroke="hsl(180.0,100%,35%)" stroke-width="0.00147"></path>
<path d="M1.055 0.690 Q1.007 0.765 1.144 0.805" stroke="hsl(180.0,100%,35%)" stroke-width="0.00147"></path>
<path d="M1.144 0.805 Q1.001 0.763 0.887 0.823" stroke="hsl(180.0,100%,35%)" stroke-width="0.00588"></path>
<path d="M1.144 0.805 Q1.458 0.647 1.218 0.459" stroke="hsl(180.0,100%,35%)" stroke-width="0.00147"></path>
<path d="M1.144 0.805 Q1.194 0.813 1.220 0.791" stroke="hsl(180.0,100%,35%)" stroke-width="0.00147"></path>
<path d="M1.144 0.805 Q1.175 0.743 1.059 0.714" stroke="hsl(180.0,100%,35%)" stroke-width="0.00147"></path>
<path d="M1.144 0.805 Q1.383 0.524 0.888 0.346" stroke="hsl(180.0,100%,35%)" stroke-width="0.00147"></path>
<path d="M0.569 0.947 Q1.284 0.832 1.218 0.459" stroke="hsl(180.0,100%,35%)" stroke-width="0.00147"></path>
<path d="M0.569 0.947 Q0.442 0.911 0.345 0.965" stroke="hsl(180.0,100%,35%)" stroke-width="0.00147"></path>
<path d="M0.569 0.947 Q0.633 0.829 0.417 0.772" stroke="hsl(180.0,100%,35%)" stroke-width="0.00441"></path>
<path d="M0.569 0.947 Q1.792 0.764 1.704 0.127" stroke="hsl(180.0,100%,35%)" stroke-width="0.00147"></path>
<path d="M0.569 0.947 Q1.209 0.710 0.888 0.346" stroke="hsl(180.0,100%,35%)" stroke-width="0.00147"></path>
<path d="M0.569 0.947 Q0.467 0.884 0.323 0.920" stroke="hsl(180.0,100%,35%)" stroke-width="0.00147"></path>
<path d="M1.663 0.772 Q1.717 0.850 1.880 0.841" stroke="hsl(180.0,100%,35%)" stroke-width="0.00147"></path>
<path d="M1.663 0.772 Q1.692 0.526 1.218 0.459" stroke="hsl(180.0,100%,35%)" stroke-width="0.00147"></path>
<path d="M1.663 0.772 Q1.561 0.834 1.658 0.897" stroke="hsl(180.0,100%,35%)" stroke-width="0.00147"></path>
<path d="M0.990 0.980 Q1.222 1.044 1.399 0.945" stroke="hsl(180.0,100%,35%)" stroke-width="0.00147"></path>
<path d="M0.990 0.980 Q1.064 0.881 0.887 0.823" stroke="hsl(180.0,100%,35%)" stroke-width="0.00294"></path>
<path d="M0.990 0.980 Q1.447 0.642 0.888 0.346" stroke="hsl(180.0,100%,35%)" stroke-width="0.00294"></path>
<path d="M0.990 0.980 Q2.030 0.696 1.704 0.127" stroke="hsl(180.0,100%,35%)" stroke-width="0.00147"></path>
<path d="M1.337 0.214 Q1.007 0.190 0.888 0.346" stroke="hsl(180.0,100%,35%)" stroke-width="0.00147"></path>
<path d="M1.337 0.214 Q1.463 0.130 1.327 0.050" stroke="hsl(180.0,100%,35%)" stroke-width="0.00147"></path>
<path d="M1.337 0.214 Q1.500 0.140 1.390 0.044" stroke="hsl(180.0,100%,35%)" stroke-width="0.00147"></path>
<path d="M1.830 0.683 Q1.246 0.564 0.887 0.823" stroke="hsl(180.0,100%,35%)" stroke-width="0.00147"></path>
<path d="M1.830 0.683 Q1.863 0.622 1.751 0.592" stroke="hsl(180.0,100%,35%)" stroke-width="0.00147"></path>
<path d="M1.830 0.683 Q1.862 0.434 1.384 0.363" stroke="hsl(180.0,100%,35%)" stroke-width="0.00147"></path>
<path d="M1.830 0.683 Q2.212 0.379 1.704 0.127" stroke="hsl(180.0,100%,35%)" stroke-width="0.00147"></path>
<path d="M1.830 0.683 Q1.629 0.326 0.888 0.346" stroke="hsl(180.0,100%,35%)" stroke-width="0.00147"></path>
<path d="M0.571 0.846 Q0.554 0.778 0.417 0.772" stroke="hsl(180.0,100%,35%)" stroke-width="0.00588"></path>
<path d="M0.571 0.846 Q1.713 0.713 1.704 0.127" stroke="hsl(180.0,100%,35%)" stroke-width="0.00588"></path>
<path d="M0.571 0.846 Q1.364 0.767 1.384 0.363" stroke="hsl(180.0,100%,35%)" stroke-width="0.00294"></path>
</g>
<text x="1.958" y="0.355" font-size="0.026968" fill="hsl(0.0,100%,20%)">adarom</text>
<text x="0.888" y="0.304" font-size="0.082322" fill="hsl(180.0,100%,20%)">bartekn</text>
<text x="1.766" y="0.273" font-size="0.055148" fill="hsl(0.0,100%,20%)">kdlee</text>
<text x="1.704" y="0.095" font-size="0.064025" fill="hsl(0.0,100%,20%)">tasak</text>
<text x="1.117" y="0.369" font-size="0.062457" fill="hsl(180.0,100%,20%)">mikt</text>
<text x="1.101" y="0.537" font-size="0.061658" fill="hsl(180.0,100%,20%)">arthursonzogni</text>
<text x="1.553" y="0.229" font-size="0.047062" fill="hsl(0.0,100%,20%)">yukishiino</text>
<text x="0.814" y="0.688" font-size="0.015212" fill="hsl(180.0,100%,20%)">agrieve</text>
<text x="0.694" y="0.731" font-size="0.005750" fill="hsl(180.0,100%,20%)">ayzhao</text>
<text x="0.887" y="0.808" font-size="0.029876" fill="hsl(180.0,100%,20%)">lizeb</text>
<text x="0.684" y="0.780" font-size="0.005750" fill="hsl(180.0,100%,20%)">richard.townsend</text>
<text x="0.645" y="0.649" font-size="0.005750" fill="hsl(180.0,100%,20%)">wnwen</text>
<text x="0.917" y="0.450" font-size="0.019917" fill="hsl(180.0,100%,20%)">ahijazi</text>
<text x="0.417" y="0.758" font-size="0.027574" fill="hsl(180.0,100%,20%)">haraken</text>
<text x="1.751" y="0.588" font-size="0.008131" fill="hsl(180.0,100%,20%)">nuskos</text>
<text x="0.134" y="0.519" font-size="0.015212" fill="hsl(180.0,100%,20%)">ajuma</text>
<text x="0.367" y="0.605" font-size="0.019917" fill="hsl(180.0,100%,20%)">mark</text>
<text x="0.454" y="0.418" font-size="0.009959" fill="hsl(180.0,100%,20%)">vollick</text>
<text x="0.039" y="0.425" font-size="0.005750" fill="hsl(180.0,100%,20%)">anthonyvd</text>
<text x="0.816" y="0.582" font-size="0.042640" fill="hsl(180.0,100%,20%)">danakj</text>
<text x="1.220" y="0.787" font-size="0.008131" fill="hsl(180.0,100%,20%)">jam</text>
<text x="1.218" y="0.441" font-size="0.034973" fill="hsl(180.0,100%,20%)">dcheng</text>
<text x="1.314" y="0.636" font-size="0.005750" fill="hsl(180.0,100%,20%)">ashleynewson</text>
<text x="1.384" y="0.338" font-size="0.050779" fill="hsl(180.0,100%,20%)">keishi</text>
<text x="0.993" y="0.458" font-size="0.014084" fill="hsl(180.0,100%,20%)">blundell</text>
<text x="0.757" y="0.164" font-size="0.019917" fill="hsl(180.0,100%,20%)">glazunov</text>
<text x="0.169" y="0.776" font-size="0.022268" fill="hsl(180.0,100%,20%)">avi</text>
<text x="0.680" y="0.432" font-size="0.028748" fill="hsl(180.0,100%,20%)">tsepez</text>
<text x="0.928" y="0.402" font-size="0.014084" fill="hsl(180.0,100%,20%)">lukasza</text>
<text x="0.875" y="0.410" font-size="0.005750" fill="hsl(180.0,100%,20%)">brucedawson</text>
<text x="0.917" y="0.415" font-size="0.005750" fill="hsl(180.0,100%,20%)">andre.kempe</text>
<text x="1.186" y="0.163" font-size="0.014084" fill="hsl(180.0,100%,20%)">mlippautz</text>
<text x="0.891" y="0.194" font-size="0.005750" fill="hsl(180.0,100%,20%)">ssid</text>
<text x="1.891" y="0.402" font-size="0.012856" fill="hsl(0.0,100%,20%)">thestig</text>
<text x="0.543" y="0.560" font-size="0.015212" fill="hsl(180.0,100%,20%)">hans</text>
<text x="0.610" y="0.619" font-size="0.005750" fill="hsl(180.0,100%,20%)">adetaylor</text>
<text x="0.345" y="0.180" font-size="0.009959" fill="hsl(180.0,100%,20%)">davidben</text>
<text x="0.490" y="0.258" font-size="0.009959" fill="hsl(180.0,100%,20%)">bikineev</text>
<text x="1.513" y="0.455" font-size="0.014084" fill="hsl(180.0,100%,20%)">pkasting</text>
<text x="1.281" y="0.676" font-size="0.009959" fill="hsl(180.0,100%,20%)">fmil</text>
<text x="1.497" y="0.661" font-size="0.005750" fill="hsl(180.0,100%,20%)">dayeung</text>
<text x="1.443" y="0.774" font-size="0.005750" fill="hsl(180.0,100%,20%)">kojii</text>
<text x="0.692" y="0.491" font-size="0.012856" fill="hsl(180.0,100%,20%)">thakis</text>
<text x="1.055" y="0.685" font-size="0.009959" fill="hsl(180.0,100%,20%)">jbroman</text>
<text x="1.144" y="0.796" font-size="0.018182" fill="hsl(180.0,100%,20%)">sky</text>
<text x="0.569" y="0.938" font-size="0.016262" fill="hsl(180.0,100%,20%)">jdapena</text>
<text x="0.345" y="0.962" font-size="0.005750" fill="hsl(180.0,100%,20%)">pbos</text>
<text x="0.323" y="0.917" font-size="0.005750" fill="hsl(180.0,100%,20%)">asvitkine</text>
<text x="1.663" y="0.767" font-size="0.009959" fill="hsl(180.0,100%,20%)">jeffyoon</text>
<text x="1.880" y="0.838" font-size="0.005750" fill="hsl(180.0,100%,20%)">davidbienvenu</text>
<text x="1.658" y="0.894" font-size="0.005750" fill="hsl(180.0,100%,20%)">skyostil</text>
<text x="0.990" y="0.973" font-size="0.014084" fill="hsl(180.0,100%,20%)">justincohen</text>
<text x="1.399" y="0.942" font-size="0.005750" fill="hsl(180.0,100%,20%)">ginnyhuang</text>
<text x="1.858" y="0.185" font-size="0.005750" fill="hsl(0.0,100%,20%)">leszeks</text>
<text x="1.032" y="0.172" font-size="0.005750" fill="hsl(180.0,100%,20%)">elkurin</text>
<text x="1.129" y="0.274" font-size="0.005750" fill="hsl(180.0,100%,20%)">rsesek</text>
<text x="1.089" y="0.254" font-size="0.005750" fill="hsl(180.0,100%,20%)">wittman</text>
<text x="1.337" y="0.209" font-size="0.009959" fill="hsl(180.0,100%,20%)">leimy</text>
<text x="1.327" y="0.047" font-size="0.005750" fill="hsl(180.0,100%,20%)">chikamune</text>
<text x="1.390" y="0.040" font-size="0.008131" fill="hsl(180.0,100%,20%)">kouhei</text>
<text x="0.808" y="0.930" font-size="0.005750" fill="hsl(180.0,100%,20%)">fdoray</text>
<text x="1.132" y="0.918" font-size="0.009959" fill="hsl(180.0,100%,20%)">paulsemel</text>
<text x="1.327" y="0.498" font-size="0.005750" fill="hsl(180.0,100%,20%)">liviutinta</text>
<text x="1.062" y="0.145" font-size="0.011499" fill="hsl(180.0,100%,20%)">mpdenton</text>
<text x="1.256" y="0.432" font-size="0.005750" fill="hsl(180.0,100%,20%)">caitkp</text>
<text x="1.710" y="0.192" font-size="0.016262" fill="hsl(0.0,100%,20%)">wfh</text>
<text x="1.007" y="0.464" font-size="0.005750" fill="hsl(180.0,100%,20%)">yoavweiss</text>
<text x="1.321" y="0.132" font-size="0.005750" fill="hsl(180.0,100%,20%)">dpranke</text>
<text x="0.987" y="0.098" font-size="0.005750" fill="hsl(180.0,100%,20%)">jwata</text>
<text x="1.335" y="0.403" font-size="0.005750" fill="hsl(180.0,100%,20%)">rogerm</text>
<text x="1.665" y="0.399" font-size="0.005750" fill="hsl(180.0,100%,20%)">gab</text>
<text x="1.059" y="0.711" font-size="0.005750" fill="hsl(180.0,100%,20%)">ffred</text>
<text x="1.830" y="0.676" font-size="0.012856" fill="hsl(180.0,100%,20%)">stha09</text>
<text x="1.439" y="0.174" font-size="0.005750" fill="hsl(0.0,100%,20%)">thiabaud</text>
<text x="1.540" y="0.074" font-size="0.005750" fill="hsl(0.0,100%,20%)">erikchen</text>
<text x="0.571" y="0.837" font-size="0.018182" fill="hsl(180.0,100%,20%)">tpearson</text>
<text x="1.891" y="0.201" font-size="0.005750" fill="hsl(0.0,100%,20%)">dfried</text>
<text x="1.836" y="0.125" font-size="0.005750" fill="hsl(0.0,100%,20%)">msw</text>
<text x="1.885" y="0.211" font-size="0.005750" fill="hsl(0.0,100%,20%)">nektar</text>
</svg>
