<svg width="4000" height="2000" viewBox="-0.025 -0.025 2.05 1.05" xmlns="http://www.w3.org/2000/svg">
  <style>
    path {
      fill: none;
      stroke-linecap: round;
      stroke-opacity: 0.4;
    }

    text {
      text-anchor: middle;
      alignment-baseline: hanging;
    }
  </style>
  <g opacity="0.4">
<path d="M0.965 0.115 Q0.713 0.570 1.546 0.793" stroke="hsl(0.0,100%,35%)" stroke-width="0.00375"></path>
<path d="M0.965 0.115 Q0.404 0.488 1.010 0.844" stroke="hsl(0.0,100%,35%)" stroke-width="0.00027"></path>
<path d="M0.965 0.115 Q1.003 0.193 1.163 0.191" stroke="hsl(0.0,100%,35%)" stroke-width="0.00134"></path>
<path d="M0.965 0.115 Q0.494 0.160 0.478 0.399" stroke="hsl(0.0,100%,35%)" stroke-width="0.00054"></path>
<path d="M0.965 0.115 Q0.737 0.036 0.533 0.130" stroke="hsl(0.0,100%,35%)" stroke-width="0.00027"></path>
<path d="M1.546 0.793 Q1.836 0.416 1.163 0.191" stroke="hsl(0.0,100%,35%)" stroke-width="0.05090"></path>
<path d="M1.546 0.793 Q1.237 0.711 1.010 0.844" stroke="hsl(0.0,100%,35%)" stroke-width="0.06376"></path>
<path d="M1.546 0.793 Q1.418 0.635 1.081 0.662" stroke="hsl(0.0,100%,35%)" stroke-width="0.00080"></path>
<path d="M1.546 0.793 Q1.522 0.452 0.851 0.389" stroke="hsl(0.0,100%,35%)" stroke-width="0.01366"></path>
<path d="M1.546 0.793 Q1.515 0.692 1.312 0.685" stroke="hsl(0.0,100%,35%)" stroke-width="0.00054"></path>
<path d="M1.546 0.793 Q1.391 0.558 0.898 0.582" stroke="hsl(0.0,100%,35%)" stroke-width="0.00027"></path>
<path d="M1.010 0.844 Q1.318 0.926 1.546 0.793" stroke="hsl(0.0,100%,35%)" stroke-width="0.10796"></path>
<path d="M1.010 0.844 Q1.294 0.585 0.851 0.389" stroke="hsl(0.0,100%,35%)" stroke-width="0.00054"></path>
<path d="M1.010 0.844 Q1.609 0.548 1.163 0.191" stroke="hsl(0.0,100%,35%)" stroke-width="0.00107"></path>
<path d="M1.010 0.844 Q1.276 0.982 1.604 0.883" stroke="hsl(0.0,100%,35%)" stroke-width="0.00027"></path>
<path d="M1.163 0.191 Q0.849 0.228 0.851 0.389" stroke="hsl(0.0,100%,35%)" stroke-width="0.00991"></path>
<path d="M1.163 0.191 Q0.565 0.487 1.010 0.844" stroke="hsl(0.0,100%,35%)" stroke-width="0.00027"></path>
<path d="M1.163 0.191 Q0.873 0.569 1.546 0.793" stroke="hsl(0.0,100%,35%)" stroke-width="0.02920"></path>
<path d="M1.163 0.191 Q0.654 0.158 0.478 0.399" stroke="hsl(0.0,100%,35%)" stroke-width="0.00027"></path>
<path d="M0.851 0.389 Q1.166 0.353 1.163 0.191" stroke="hsl(0.0,100%,35%)" stroke-width="0.02893"></path>
<path d="M0.851 0.389 Q0.875 0.730 1.546 0.793" stroke="hsl(0.0,100%,35%)" stroke-width="0.01366"></path>
<path d="M0.851 0.389 Q0.567 0.648 1.010 0.844" stroke="hsl(0.0,100%,35%)" stroke-width="0.00295"></path>
<path d="M0.851 0.389 Q0.657 0.320 0.478 0.399" stroke="hsl(0.0,100%,35%)" stroke-width="0.00054"></path>
</g>
<text x="0.965" y="0.105" font-size="0.019276" fill="hsl(0.0,100%,20%)">kjlubick</text>
<text x="1.546" y="0.728" font-size="0.130984" fill="hsl(0.0,100%,20%)">thestig</text>
<text x="1.010" y="0.792" font-size="0.103337" fill="hsl(0.0,100%,20%)">tsepez</text>
<text x="1.163" y="0.148" font-size="0.085735" fill="hsl(0.0,100%,20%)">nigi</text>
<text x="0.478" y="0.395" font-size="0.008988" fill="hsl(0.0,100%,20%)">bungeman</text>
<text x="0.533" y="0.128" font-size="0.004019" fill="hsl(0.0,100%,20%)">npm</text>
<text x="0.851" y="0.357" font-size="0.065059" fill="hsl(0.0,100%,20%)">kmoon</text>
<text x="1.081" y="0.659" font-size="0.006962" fill="hsl(0.0,100%,20%)">drott</text>
<text x="1.312" y="0.682" font-size="0.005684" fill="hsl(0.0,100%,20%)">thomasanderson</text>
<text x="0.898" y="0.580" font-size="0.004019" fill="hsl(0.0,100%,20%)">thakis</text>
<text x="1.604" y="0.881" font-size="0.004019" fill="hsl(0.0,100%,20%)">dcheng</text>
</svg>
