<svg width="4000" height="2000" viewBox="-0.025 -0.025 2.05 1.05" xmlns="http://www.w3.org/2000/svg">
  <style>
    path {
      fill: none;
      stroke-linecap: round;
      stroke-opacity: 0.4;
    }

    text {
      text-anchor: middle;
      alignment-baseline: hanging;
    }
  </style>
  <g opacity="0.4">
<path d="M1.300 0.701 Q1.104 0.386 0.445 0.412" stroke="hsl(0.0,100%,35%)" stroke-width="0.00110"></path>
<path d="M1.300 0.701 Q1.135 0.573 0.848 0.625" stroke="hsl(0.0,100%,35%)" stroke-width="0.00073"></path>
<path d="M1.300 0.701 Q1.289 0.399 0.697 0.338" stroke="hsl(0.0,100%,35%)" stroke-width="0.00073"></path>
<path d="M0.445 0.412 Q0.528 0.341 0.408 0.285" stroke="hsl(0.0,100%,35%)" stroke-width="0.06575"></path>
<path d="M0.445 0.412 Q0.630 0.425 0.697 0.338" stroke="hsl(0.0,100%,35%)" stroke-width="0.06575"></path>
<path d="M0.445 0.412 Q0.476 0.599 0.848 0.625" stroke="hsl(0.0,100%,35%)" stroke-width="0.02411"></path>
<path d="M0.445 0.412 Q0.540 0.218 0.184 0.130" stroke="hsl(0.0,100%,35%)" stroke-width="0.00110"></path>
<path d="M0.445 0.412 Q0.439 0.497 0.603 0.519" stroke="hsl(0.0,100%,35%)" stroke-width="0.00073"></path>
<path d="M0.445 0.412 Q0.076 0.489 0.147 0.686" stroke="hsl(0.0,100%,35%)" stroke-width="0.00037"></path>
<path d="M0.848 0.625 Q0.817 0.438 0.445 0.412" stroke="hsl(0.0,100%,35%)" stroke-width="0.01717"></path>
<path d="M0.848 0.625 Q0.900 0.367 0.408 0.285" stroke="hsl(0.0,100%,35%)" stroke-width="0.00329"></path>
<path d="M0.848 0.625 Q1.002 0.451 0.697 0.338" stroke="hsl(0.0,100%,35%)" stroke-width="0.03945"></path>
<path d="M0.848 0.625 Q0.549 0.437 0.117 0.542" stroke="hsl(0.0,100%,35%)" stroke-width="0.00037"></path>
<path d="M0.697 0.338 Q0.512 0.325 0.445 0.412" stroke="hsl(0.0,100%,35%)" stroke-width="0.02045"></path>
<path d="M0.697 0.338 Q0.544 0.512 0.848 0.625" stroke="hsl(0.0,100%,35%)" stroke-width="0.01461"></path>
<path d="M0.697 0.338 Q0.595 0.254 0.408 0.285" stroke="hsl(0.0,100%,35%)" stroke-width="0.00037"></path>
<path d="M0.697 0.338 Q0.244 0.324 0.117 0.542" stroke="hsl(0.0,100%,35%)" stroke-width="0.00037"></path>
<path d="M0.169 0.407 Q0.304 0.465 0.445 0.412" stroke="hsl(0.0,100%,35%)" stroke-width="0.00402"></path>
<path d="M0.169 0.407 Q0.386 0.394 0.408 0.285" stroke="hsl(0.0,100%,35%)" stroke-width="0.00037"></path>
<path d="M0.169 0.407 Q0.488 0.479 0.697 0.338" stroke="hsl(0.0,100%,35%)" stroke-width="0.00183"></path>
<path d="M0.169 0.407 Q0.035 0.464 0.117 0.542" stroke="hsl(0.0,100%,35%)" stroke-width="0.00073"></path>
<path d="M0.169 0.407 Q0.164 0.561 0.463 0.597" stroke="hsl(0.0,100%,35%)" stroke-width="0.00037"></path>
<path d="M0.408 0.285 Q0.325 0.356 0.445 0.412" stroke="hsl(0.0,100%,35%)" stroke-width="0.06465"></path>
<path d="M0.408 0.285 Q0.510 0.369 0.697 0.338" stroke="hsl(0.0,100%,35%)" stroke-width="0.00219"></path>
<path d="M0.408 0.285 Q0.356 0.543 0.848 0.625" stroke="hsl(0.0,100%,35%)" stroke-width="0.00110"></path>
</g>
<text x="1.300" y="0.695" font-size="0.012417" fill="hsl(0.0,100%,20%)">brianosman</text>
<text x="0.445" y="0.348" font-size="0.126456" fill="hsl(0.0,100%,20%)">thestig</text>
<text x="0.848" y="0.586" font-size="0.077970" fill="hsl(0.0,100%,20%)">kmoon</text>
<text x="0.697" y="0.292" font-size="0.093747" fill="hsl(0.0,100%,20%)">nigi</text>
<text x="0.169" y="0.397" font-size="0.020989" fill="hsl(0.0,100%,20%)">kjlubick</text>
<text x="0.408" y="0.239" font-size="0.091126" fill="hsl(0.0,100%,20%)">tsepez</text>
<text x="0.117" y="0.538" font-size="0.009386" fill="hsl(0.0,100%,20%)">bungeman</text>
<text x="0.463" y="0.595" font-size="0.004693" fill="hsl(0.0,100%,20%)">npm</text>
<text x="0.184" y="0.126" font-size="0.008129" fill="hsl(0.0,100%,20%)">drott</text>
<text x="0.603" y="0.515" font-size="0.006637" fill="hsl(0.0,100%,20%)">thomasanderson</text>
<text x="0.147" y="0.684" font-size="0.004693" fill="hsl(0.0,100%,20%)">thakis</text>
</svg>
