<svg width="4000" height="2000" viewBox="-0.025 -0.025 2.05 1.05" xmlns="http://www.w3.org/2000/svg">
  <style>
    path {
      fill: none;
      stroke-linecap: round;
      stroke-opacity: 0.4;
    }

    text {
      text-anchor: middle;
      alignment-baseline: hanging;
    }
  </style>
  <g opacity="0.4">
<path d="M1.016 0.711 Q1.498 0.877 1.929 0.679" stroke="hsl(0.0,100%,35%)" stroke-width="0.01786"></path>
<path d="M1.016 0.711 Q1.217 0.912 1.653 0.858" stroke="hsl(0.0,100%,35%)" stroke-width="0.00031"></path>
<path d="M1.016 0.711 Q0.892 0.850 1.136 0.941" stroke="hsl(0.0,100%,35%)" stroke-width="0.00031"></path>
<path d="M1.929 0.679 Q1.647 0.713 1.653 0.858" stroke="hsl(0.0,100%,35%)" stroke-width="0.12871"></path>
<path d="M1.929 0.679 Q1.687 0.464 1.216 0.535" stroke="hsl(0.0,100%,35%)" stroke-width="0.00185"></path>
<path d="M1.929 0.679 Q1.254 0.526 0.809 0.822" stroke="hsl(0.0,100%,35%)" stroke-width="0.00801"></path>
<path d="M1.929 0.679 Q1.323 0.651 1.136 0.941" stroke="hsl(0.0,100%,35%)" stroke-width="0.03541"></path>
<path d="M1.929 0.679 Q1.546 0.720 1.543 0.916" stroke="hsl(0.0,100%,35%)" stroke-width="0.00216"></path>
<path d="M1.653 0.858 Q1.935 0.824 1.929 0.679" stroke="hsl(0.0,100%,35%)" stroke-width="0.10223"></path>
<path d="M1.653 0.858 Q2.206 0.645 1.912 0.329" stroke="hsl(0.0,100%,35%)" stroke-width="0.00031"></path>
<path d="M1.653 0.858 Q1.329 0.796 1.136 0.941" stroke="hsl(0.0,100%,35%)" stroke-width="0.00062"></path>
<path d="M1.653 0.858 Q1.552 0.865 1.543 0.916" stroke="hsl(0.0,100%,35%)" stroke-width="0.00031"></path>
<path d="M1.240 0.536 Q1.470 0.745 1.929 0.679" stroke="hsl(0.0,100%,35%)" stroke-width="0.01232"></path>
<path d="M1.240 0.536 Q1.189 0.780 1.653 0.858" stroke="hsl(0.0,100%,35%)" stroke-width="0.00031"></path>
<path d="M1.240 0.536 Q0.864 0.717 1.136 0.941" stroke="hsl(0.0,100%,35%)" stroke-width="0.00031"></path>
<path d="M1.280 1.211 Q2.031 1.075 1.929 0.679" stroke="hsl(0.0,100%,35%)" stroke-width="0.00092"></path>
<path d="M1.280 1.211 Q1.648 1.116 1.543 0.916" stroke="hsl(0.0,100%,35%)" stroke-width="0.00031"></path>
<path d="M1.280 1.211 Q1.424 1.047 1.136 0.941" stroke="hsl(0.0,100%,35%)" stroke-width="0.00031"></path>
<path d="M1.543 0.916 Q1.926 0.874 1.929 0.679" stroke="hsl(0.0,100%,35%)" stroke-width="0.00185"></path>
<path d="M1.543 0.916 Q1.644 0.909 1.653 0.858" stroke="hsl(0.0,100%,35%)" stroke-width="0.00031"></path>
<path d="M1.543 0.916 Q1.320 0.847 1.136 0.941" stroke="hsl(0.0,100%,35%)" stroke-width="0.00092"></path>
<path d="M1.216 0.535 Q1.458 0.750 1.929 0.679" stroke="hsl(0.0,100%,35%)" stroke-width="0.00031"></path>
<path d="M1.216 0.535 Q0.852 0.722 1.136 0.941" stroke="hsl(0.0,100%,35%)" stroke-width="0.00031"></path>
</g>
<text x="1.016" y="0.694" font-size="0.034183" fill="hsl(0.0,100%,20%)">andyphan</text>
<text x="1.929" y="0.608" font-size="0.140385" fill="hsl(0.0,100%,20%)">thestig</text>
<text x="1.653" y="0.798" font-size="0.121417" fill="hsl(0.0,100%,20%)">tsepez</text>
<text x="1.136" y="0.916" font-size="0.049141" fill="hsl(0.0,100%,20%)">nigi</text>
<text x="1.240" y="0.521" font-size="0.028599" fill="hsl(0.0,100%,20%)">awscreen</text>
<text x="1.280" y="1.206" font-size="0.009868" fill="hsl(0.0,100%,20%)">brianosman</text>
<text x="1.543" y="0.906" font-size="0.019236" fill="hsl(0.0,100%,20%)">kmoon</text>
<text x="1.216" y="0.529" font-size="0.012482" fill="hsl(0.0,100%,20%)">bungeman</text>
<text x="0.809" y="0.811" font-size="0.022502" fill="hsl(0.0,100%,20%)">drott</text>
<text x="1.912" y="0.327" font-size="0.004413" fill="hsl(0.0,100%,20%)">thakis</text>
</svg>
