<svg width="4000" height="2000" viewBox="-0.025 -0.025 2.05 1.05" xmlns="http://www.w3.org/2000/svg">
  <style>
    path {
      fill: none;
      stroke-linecap: round;
      stroke-opacity: 0.4;
    }

    text {
      text-anchor: middle;
      alignment-baseline: hanging;
    }
  </style>
  <g opacity="0.4">
<path d="M1.862 0.416 Q1.670 0.488 1.768 0.598" stroke="hsl(0.0,100%,35%)" stroke-width="0.00378"></path>
<path d="M1.862 0.416 Q1.521 0.626 1.855 0.838" stroke="hsl(0.0,100%,35%)" stroke-width="0.00027"></path>
<path d="M1.862 0.416 Q1.764 0.133 1.190 0.119" stroke="hsl(0.0,100%,35%)" stroke-width="0.00135"></path>
<path d="M1.862 0.416 Q1.185 0.284 0.779 0.586" stroke="hsl(0.0,100%,35%)" stroke-width="0.00054"></path>
<path d="M1.862 0.416 Q0.837 0.728 1.221 1.297" stroke="hsl(0.0,100%,35%)" stroke-width="0.00027"></path>
<path d="M1.768 0.598 Q1.620 0.735 1.855 0.838" stroke="hsl(0.0,100%,35%)" stroke-width="0.06455"></path>
<path d="M1.768 0.598 Q1.646 0.609 1.641 0.671" stroke="hsl(0.0,100%,35%)" stroke-width="0.00081"></path>
<path d="M1.768 0.598 Q1.735 0.367 1.279 0.333" stroke="hsl(0.0,100%,35%)" stroke-width="0.01377"></path>
<path d="M1.768 0.598 Q1.862 0.243 1.190 0.119" stroke="hsl(0.0,100%,35%)" stroke-width="0.04834"></path>
<path d="M1.768 0.598 Q1.627 0.630 1.659 0.706" stroke="hsl(0.0,100%,35%)" stroke-width="0.00054"></path>
<path d="M1.768 0.598 Q1.470 0.568 1.347 0.708" stroke="hsl(0.0,100%,35%)" stroke-width="0.00027"></path>
<path d="M1.855 0.838 Q2.004 0.700 1.768 0.598" stroke="hsl(0.0,100%,35%)" stroke-width="0.10911"></path>
<path d="M1.855 0.838 Q1.970 0.470 1.279 0.333" stroke="hsl(0.0,100%,35%)" stroke-width="0.00054"></path>
<path d="M1.855 0.838 Q2.098 0.345 1.190 0.119" stroke="hsl(0.0,100%,35%)" stroke-width="0.00108"></path>
<path d="M1.855 0.838 Q1.531 0.664 1.121 0.784" stroke="hsl(0.0,100%,35%)" stroke-width="0.00027"></path>
<path d="M1.190 0.119 Q1.063 0.244 1.279 0.333" stroke="hsl(0.0,100%,35%)" stroke-width="0.00972"></path>
<path d="M1.190 0.119 Q0.948 0.611 1.855 0.838" stroke="hsl(0.0,100%,35%)" stroke-width="0.00027"></path>
<path d="M1.190 0.119 Q1.096 0.474 1.768 0.598" stroke="hsl(0.0,100%,35%)" stroke-width="0.02944"></path>
<path d="M1.190 0.119 Q0.611 0.270 0.779 0.586" stroke="hsl(0.0,100%,35%)" stroke-width="0.00027"></path>
<path d="M1.279 0.333 Q1.406 0.208 1.190 0.119" stroke="hsl(0.0,100%,35%)" stroke-width="0.02917"></path>
<path d="M1.279 0.333 Q1.312 0.563 1.768 0.598" stroke="hsl(0.0,100%,35%)" stroke-width="0.01377"></path>
<path d="M1.279 0.333 Q1.163 0.701 1.855 0.838" stroke="hsl(0.0,100%,35%)" stroke-width="0.00297"></path>
<path d="M1.279 0.333 Q0.827 0.359 0.779 0.586" stroke="hsl(0.0,100%,35%)" stroke-width="0.00054"></path>
</g>
<text x="1.862" y="0.406" font-size="0.019354" fill="hsl(0.0,100%,20%)">kjlubick</text>
<text x="1.768" y="0.532" font-size="0.130957" fill="hsl(0.0,100%,20%)">thestig</text>
<text x="1.855" y="0.786" font-size="0.103914" fill="hsl(0.0,100%,20%)">tsepez</text>
<text x="1.190" y="0.076" font-size="0.084941" fill="hsl(0.0,100%,20%)">nigi</text>
<text x="0.779" y="0.581" font-size="0.009024" fill="hsl(0.0,100%,20%)">bungeman</text>
<text x="1.221" y="1.295" font-size="0.004036" fill="hsl(0.0,100%,20%)">npm</text>
<text x="1.279" y="0.300" font-size="0.065198" fill="hsl(0.0,100%,20%)">kmoon</text>
<text x="1.641" y="0.668" font-size="0.006990" fill="hsl(0.0,100%,20%)">drott</text>
<text x="1.659" y="0.703" font-size="0.005707" fill="hsl(0.0,100%,20%)">thomasanderson</text>
<text x="1.347" y="0.705" font-size="0.004036" fill="hsl(0.0,100%,20%)">thakis</text>
<text x="1.121" y="0.782" font-size="0.004036" fill="hsl(0.0,100%,20%)">dcheng</text>
</svg>
