<svg width="4000" height="2000" viewBox="-0.025 -0.025 2.05 1.05" xmlns="http://www.w3.org/2000/svg">
  <style>
    path {
      fill: none;
      stroke-linecap: round;
      stroke-opacity: 0.4;
    }

    text {
      text-anchor: middle;
      alignment-baseline: hanging;
    }
  </style>
  <g opacity="0.4">
<path d="M0.756 -0.922 Q-0.173 -0.445 0.553 0.113" stroke="hsl(0.0,100%,35%)" stroke-width="0.00019"></path>
<path d="M0.756 -0.922 Q-0.011 -0.147 1.332 0.397" stroke="hsl(0.0,100%,35%)" stroke-width="0.00038"></path>
<path d="M0.756 -0.922 Q-0.630 -0.007 0.852 0.870" stroke="hsl(0.0,100%,35%)" stroke-width="0.00038"></path>
<path d="M0.756 -0.922 Q-0.503 -0.440 0.161 0.280" stroke="hsl(0.0,100%,35%)" stroke-width="0.00019"></path>
<path d="M0.756 -0.922 Q-0.367 -0.038 1.111 0.703" stroke="hsl(0.0,100%,35%)" stroke-width="0.00019"></path>
<path d="M0.988 0.972 Q1.128 1.007 1.228 0.946" stroke="hsl(180.0,100%,35%)" stroke-width="0.00472"></path>
<path d="M0.988 0.972 Q1.543 0.949 1.620 0.674" stroke="hsl(180.0,100%,35%)" stroke-width="0.00170"></path>
<path d="M0.988 0.972 Q1.329 0.969 1.399 0.802" stroke="hsl(180.0,100%,35%)" stroke-width="0.00208"></path>
<path d="M0.988 0.972 Q1.264 0.862 1.111 0.703" stroke="hsl(180.0,100%,35%)" stroke-width="0.00094"></path>
<path d="M0.988 0.972 Q1.001 0.894 0.852 0.870" stroke="hsl(180.0,100%,35%)" stroke-width="0.00094"></path>
<path d="M0.988 0.972 Q1.343 1.084 1.640 0.935" stroke="hsl(180.0,100%,35%)" stroke-width="0.00321"></path>
<path d="M0.988 0.972 Q1.596 1.044 1.871 0.764" stroke="hsl(180.0,100%,35%)" stroke-width="0.00057"></path>
<path d="M0.988 0.972 Q1.239 0.372 0.124 0.118" stroke="hsl(180.0,100%,35%)" stroke-width="0.00019"></path>
<path d="M0.988 0.972 Q1.458 0.455 0.553 0.113" stroke="hsl(180.0,100%,35%)" stroke-width="0.00038"></path>
<path d="M0.988 0.972 Q1.523 0.976 1.648 0.715" stroke="hsl(180.0,100%,35%)" stroke-width="0.00019"></path>
<path d="M0.988 0.972 Q1.620 0.753 1.332 0.397" stroke="hsl(180.0,100%,35%)" stroke-width="0.00038"></path>
<path d="M0.988 0.972 Q1.679 0.894 1.679 0.540" stroke="hsl(180.0,100%,35%)" stroke-width="0.00038"></path>
<path d="M0.553 0.113 Q0.537 0.308 0.913 0.358" stroke="hsl(0.0,100%,35%)" stroke-width="0.00491"></path>
<path d="M0.553 0.113 Q0.638 0.607 1.620 0.674" stroke="hsl(0.0,100%,35%)" stroke-width="0.00491"></path>
<path d="M0.553 0.113 Q0.439 0.245 0.671 0.329" stroke="hsl(0.0,100%,35%)" stroke-width="0.00113"></path>
<path d="M0.553 0.113 Q0.715 0.411 1.332 0.397" stroke="hsl(0.0,100%,35%)" stroke-width="0.01906"></path>
<path d="M0.553 0.113 Q0.096 0.551 0.852 0.870" stroke="hsl(0.0,100%,35%)" stroke-width="0.01849"></path>
<path d="M0.553 0.113 Q-0.166 0.460 0.353 0.886" stroke="hsl(0.0,100%,35%)" stroke-width="0.00038"></path>
<path d="M0.553 0.113 Q0.380 0.124 0.364 0.210" stroke="hsl(0.0,100%,35%)" stroke-width="0.00623"></path>
<path d="M0.553 0.113 Q0.359 0.520 1.111 0.703" stroke="hsl(0.0,100%,35%)" stroke-width="0.00698"></path>
<path d="M0.553 0.113 Q0.223 0.665 1.228 0.946" stroke="hsl(0.0,100%,35%)" stroke-width="0.00660"></path>
<path d="M0.553 0.113 Q0.691 0.702 1.871 0.764" stroke="hsl(0.0,100%,35%)" stroke-width="0.00019"></path>
<path d="M0.553 0.113 Q0.973 0.452 1.728 0.322" stroke="hsl(0.0,100%,35%)" stroke-width="0.00226"></path>
<path d="M0.553 0.113 Q0.424 0.627 1.399 0.802" stroke="hsl(0.0,100%,35%)" stroke-width="0.00245"></path>
<path d="M0.553 0.113 Q0.438 0.742 1.640 0.935" stroke="hsl(0.0,100%,35%)" stroke-width="0.00510"></path>
<path d="M0.553 0.113 Q0.083 0.629 0.988 0.972" stroke="hsl(0.0,100%,35%)" stroke-width="0.00528"></path>
<path d="M0.553 0.113 Q-0.220 0.372 0.116 0.805" stroke="hsl(0.0,100%,35%)" stroke-width="0.00189"></path>
<path d="M0.553 0.113 Q-0.015 0.515 0.644 0.880" stroke="hsl(0.0,100%,35%)" stroke-width="0.00321"></path>
<path d="M0.553 0.113 Q0.334 0.030 0.124 0.118" stroke="hsl(0.0,100%,35%)" stroke-width="0.00075"></path>
<path d="M0.553 0.113 Q0.223 0.118 0.161 0.280" stroke="hsl(0.0,100%,35%)" stroke-width="0.00245"></path>
<path d="M0.553 0.113 Q0.138 0.657 1.109 0.978" stroke="hsl(0.0,100%,35%)" stroke-width="0.00038"></path>
<path d="M0.553 0.113 Q0.672 0.486 1.425 0.509" stroke="hsl(0.0,100%,35%)" stroke-width="0.00170"></path>
<path d="M0.553 0.113 Q0.253 0.207 0.372 0.374" stroke="hsl(0.0,100%,35%)" stroke-width="0.00038"></path>
<path d="M0.553 0.113 Q0.448 0.186 0.567 0.253" stroke="hsl(0.0,100%,35%)" stroke-width="0.00057"></path>
<path d="M0.553 0.113 Q0.774 0.552 1.679 0.540" stroke="hsl(0.0,100%,35%)" stroke-width="0.00075"></path>
<path d="M0.553 0.113 Q0.190 0.370 0.613 0.604" stroke="hsl(0.0,100%,35%)" stroke-width="0.00019"></path>
<path d="M0.553 0.113 Q0.311 0.302 0.628 0.462" stroke="hsl(0.0,100%,35%)" stroke-width="0.00019"></path>
<path d="M0.553 0.113 Q0.319 0.135 0.312 0.254" stroke="hsl(0.0,100%,35%)" stroke-width="0.00019"></path>
<path d="M1.332 0.397 Q1.289 0.472 1.425 0.509" stroke="hsl(0.0,100%,35%)" stroke-width="0.00264"></path>
<path d="M1.332 0.397 Q0.602 0.501 0.644 0.880" stroke="hsl(0.0,100%,35%)" stroke-width="0.00189"></path>
<path d="M1.332 0.397 Q0.976 0.506 1.111 0.703" stroke="hsl(0.0,100%,35%)" stroke-width="0.00283"></path>
<path d="M1.332 0.397 Q1.170 0.099 0.553 0.113" stroke="hsl(0.0,100%,35%)" stroke-width="0.00547"></path>
<path d="M1.332 0.397 Q0.713 0.537 0.852 0.870" stroke="hsl(0.0,100%,35%)" stroke-width="0.01340"></path>
<path d="M1.332 0.397 Q1.590 0.439 1.728 0.322" stroke="hsl(0.0,100%,35%)" stroke-width="0.00321"></path>
<path d="M1.332 0.397 Q0.840 0.651 1.228 0.946" stroke="hsl(0.0,100%,35%)" stroke-width="0.00019"></path>
<path d="M1.332 0.397 Q1.154 0.294 0.913 0.358" stroke="hsl(0.0,100%,35%)" stroke-width="0.00132"></path>
<path d="M1.332 0.397 Q1.255 0.593 1.620 0.674" stroke="hsl(0.0,100%,35%)" stroke-width="0.00019"></path>
<path d="M1.332 0.397 Q0.700 0.616 0.988 0.972" stroke="hsl(0.0,100%,35%)" stroke-width="0.00019"></path>
<path d="M1.332 0.397 Q1.235 0.619 1.648 0.715" stroke="hsl(0.0,100%,35%)" stroke-width="0.00019"></path>
<path d="M1.332 0.397 Q0.840 0.105 0.161 0.280" stroke="hsl(0.0,100%,35%)" stroke-width="0.00019"></path>
<path d="M1.332 0.397 Q0.997 0.110 0.364 0.210" stroke="hsl(0.0,100%,35%)" stroke-width="0.00019"></path>
<path d="M1.332 0.397 Q0.397 0.358 0.116 0.805" stroke="hsl(0.0,100%,35%)" stroke-width="0.00075"></path>
<path d="M1.332 0.397 Q1.041 0.613 1.399 0.802" stroke="hsl(0.0,100%,35%)" stroke-width="0.00019"></path>
<path d="M1.332 0.397 Q1.055 0.728 1.640 0.935" stroke="hsl(0.0,100%,35%)" stroke-width="0.00038"></path>
<path d="M1.332 0.397 Q0.755 0.643 1.109 0.978" stroke="hsl(0.0,100%,35%)" stroke-width="0.00019"></path>
<path d="M0.852 0.870 Q1.180 0.945 1.399 0.802" stroke="hsl(180.0,100%,35%)" stroke-width="0.00226"></path>
<path d="M0.852 0.870 Q0.740 0.833 0.644 0.880" stroke="hsl(180.0,100%,35%)" stroke-width="0.00340"></path>
<path d="M0.852 0.870 Q1.114 0.839 1.111 0.703" stroke="hsl(180.0,100%,35%)" stroke-width="0.01227"></path>
<path d="M0.852 0.870 Q1.308 0.432 0.553 0.113" stroke="hsl(180.0,100%,35%)" stroke-width="0.00679"></path>
<path d="M0.852 0.870 Q1.194 1.060 1.640 0.935" stroke="hsl(180.0,100%,35%)" stroke-width="0.00472"></path>
<path d="M0.852 0.870 Q1.393 0.926 1.620 0.674" stroke="hsl(180.0,100%,35%)" stroke-width="0.00377"></path>
<path d="M0.852 0.870 Q1.470 0.730 1.332 0.397" stroke="hsl(180.0,100%,35%)" stroke-width="0.00415"></path>
<path d="M0.852 0.870 Q0.535 0.691 0.116 0.805" stroke="hsl(180.0,100%,35%)" stroke-width="0.00019"></path>
<path d="M0.852 0.870 Q1.136 0.443 0.364 0.210" stroke="hsl(180.0,100%,35%)" stroke-width="0.00038"></path>
<path d="M0.852 0.870 Q1.292 0.626 0.913 0.358" stroke="hsl(180.0,100%,35%)" stroke-width="0.00038"></path>
<path d="M0.852 0.870 Q0.979 0.983 1.228 0.946" stroke="hsl(180.0,100%,35%)" stroke-width="0.00038"></path>
<path d="M0.852 0.870 Q1.373 0.952 1.648 0.715" stroke="hsl(180.0,100%,35%)" stroke-width="0.00019"></path>
<path d="M0.852 0.870 Q0.838 0.948 0.988 0.972" stroke="hsl(180.0,100%,35%)" stroke-width="0.00208"></path>
<path d="M0.852 0.870 Q1.090 0.348 0.124 0.118" stroke="hsl(180.0,100%,35%)" stroke-width="0.00019"></path>
<path d="M0.852 0.870 Q1.728 0.771 1.728 0.322" stroke="hsl(180.0,100%,35%)" stroke-width="0.00019"></path>
<path d="M0.852 0.870 Q1.446 1.021 1.871 0.764" stroke="hsl(180.0,100%,35%)" stroke-width="0.00057"></path>
<path d="M0.852 0.870 Q0.589 0.778 0.353 0.886" stroke="hsl(180.0,100%,35%)" stroke-width="0.00019"></path>
<path d="M0.161 0.280 Q0.273 0.192 0.124 0.118" stroke="hsl(0.0,100%,35%)" stroke-width="0.00094"></path>
<path d="M0.161 0.280 Q0.021 0.792 0.988 0.972" stroke="hsl(0.0,100%,35%)" stroke-width="0.00038"></path>
<path d="M0.161 0.280 Q0.035 0.713 0.852 0.870" stroke="hsl(0.0,100%,35%)" stroke-width="0.00038"></path>
<path d="M0.161 0.280 Q0.557 0.795 1.648 0.715" stroke="hsl(0.0,100%,35%)" stroke-width="0.00019"></path>
<path d="M0.161 0.280 Q0.653 0.573 1.332 0.397" stroke="hsl(0.0,100%,35%)" stroke-width="0.00057"></path>
<path d="M0.161 0.280 Q0.298 0.682 1.111 0.703" stroke="hsl(0.0,100%,35%)" stroke-width="0.00094"></path>
<path d="M0.161 0.280 Q0.377 0.904 1.640 0.935" stroke="hsl(0.0,100%,35%)" stroke-width="0.00057"></path>
<path d="M0.161 0.280 Q0.104 0.275 0.079 0.301" stroke="hsl(0.0,100%,35%)" stroke-width="0.00057"></path>
<path d="M0.161 0.280 Q0.491 0.275 0.553 0.113" stroke="hsl(0.0,100%,35%)" stroke-width="0.00038"></path>
<path d="M0.161 0.280 Q0.576 0.769 1.620 0.674" stroke="hsl(0.0,100%,35%)" stroke-width="0.00019"></path>
<path d="M0.161 0.280 Q0.363 0.789 1.399 0.802" stroke="hsl(0.0,100%,35%)" stroke-width="0.00019"></path>
<path d="M1.111 0.703 Q0.835 0.813 0.988 0.972" stroke="hsl(180.0,100%,35%)" stroke-width="0.00604"></path>
<path d="M1.111 0.703 Q0.848 0.735 0.852 0.870" stroke="hsl(180.0,100%,35%)" stroke-width="0.05114"></path>
<path d="M1.111 0.703 Q1.176 0.810 1.399 0.802" stroke="hsl(180.0,100%,35%)" stroke-width="0.00453"></path>
<path d="M1.111 0.703 Q1.304 0.296 0.553 0.113" stroke="hsl(180.0,100%,35%)" stroke-width="0.01019"></path>
<path d="M1.111 0.703 Q0.736 0.698 0.644 0.880" stroke="hsl(180.0,100%,35%)" stroke-width="0.00491"></path>
<path d="M1.111 0.703 Q1.190 0.925 1.640 0.935" stroke="hsl(180.0,100%,35%)" stroke-width="0.01340"></path>
<path d="M1.111 0.703 Q1.390 0.790 1.620 0.674" stroke="hsl(180.0,100%,35%)" stroke-width="0.00434"></path>
<path d="M1.111 0.703 Q1.525 0.736 1.679 0.540" stroke="hsl(180.0,100%,35%)" stroke-width="0.01698"></path>
<path d="M1.111 0.703 Q1.467 0.594 1.332 0.397" stroke="hsl(180.0,100%,35%)" stroke-width="0.00132"></path>
<path d="M1.111 0.703 Q1.288 0.491 0.913 0.358" stroke="hsl(180.0,100%,35%)" stroke-width="0.00094"></path>
<path d="M1.111 0.703 Q1.443 0.886 1.871 0.764" stroke="hsl(180.0,100%,35%)" stroke-width="0.00528"></path>
<path d="M1.111 0.703 Q0.975 0.848 1.228 0.946" stroke="hsl(180.0,100%,35%)" stroke-width="0.00623"></path>
<path d="M1.111 0.703 Q1.191 0.428 0.671 0.329" stroke="hsl(180.0,100%,35%)" stroke-width="0.00038"></path>
<path d="M1.111 0.703 Q1.086 0.213 0.124 0.118" stroke="hsl(180.0,100%,35%)" stroke-width="0.00075"></path>
<path d="M1.111 0.703 Q0.585 0.643 0.353 0.886" stroke="hsl(180.0,100%,35%)" stroke-width="0.00038"></path>
<path d="M1.111 0.703 Q0.974 0.302 0.161 0.280" stroke="hsl(180.0,100%,35%)" stroke-width="0.00038"></path>
<path d="M1.111 0.703 Q0.917 0.296 0.079 0.301" stroke="hsl(180.0,100%,35%)" stroke-width="0.00019"></path>
<path d="M1.111 0.703 Q0.890 0.841 1.109 0.978" stroke="hsl(180.0,100%,35%)" stroke-width="0.00057"></path>
<path d="M1.111 0.703 Q1.199 0.369 0.567 0.253" stroke="hsl(180.0,100%,35%)" stroke-width="0.00113"></path>
<path d="M1.111 0.703 Q0.532 0.555 0.116 0.805" stroke="hsl(180.0,100%,35%)" stroke-width="0.00057"></path>
<path d="M1.111 0.703 Q1.132 0.308 0.364 0.210" stroke="hsl(180.0,100%,35%)" stroke-width="0.00019"></path>
<path d="M1.679 0.540 Q1.597 0.690 1.871 0.764" stroke="hsl(180.0,100%,35%)" stroke-width="0.00132"></path>
<path d="M1.679 0.540 Q1.543 0.595 1.620 0.674" stroke="hsl(180.0,100%,35%)" stroke-width="0.00660"></path>
<path d="M1.679 0.540 Q1.344 0.730 1.640 0.935" stroke="hsl(180.0,100%,35%)" stroke-width="0.00793"></path>
<path d="M1.679 0.540 Q1.129 0.653 1.228 0.946" stroke="hsl(180.0,100%,35%)" stroke-width="0.00094"></path>
<path d="M1.679 0.540 Q1.002 0.540 0.852 0.870" stroke="hsl(180.0,100%,35%)" stroke-width="0.00189"></path>
<path d="M1.679 0.540 Q1.458 0.101 0.553 0.113" stroke="hsl(180.0,100%,35%)" stroke-width="0.00132"></path>
<path d="M1.679 0.540 Q1.265 0.508 1.111 0.703" stroke="hsl(180.0,100%,35%)" stroke-width="0.00340"></path>
<path d="M1.679 0.540 Q0.988 0.618 0.988 0.972" stroke="hsl(180.0,100%,35%)" stroke-width="0.00075"></path>
<path d="M1.679 0.540 Q1.330 0.615 1.399 0.802" stroke="hsl(180.0,100%,35%)" stroke-width="0.00019"></path>
<path d="M1.679 0.540 Q1.095 0.359 0.613 0.604" stroke="hsl(180.0,100%,35%)" stroke-width="0.00019"></path>
<path d="M1.871 0.764 Q1.618 0.803 1.640 0.935" stroke="hsl(180.0,100%,35%)" stroke-width="0.00585"></path>
<path d="M1.871 0.764 Q1.263 0.691 0.988 0.972" stroke="hsl(180.0,100%,35%)" stroke-width="0.00113"></path>
<path d="M1.871 0.764 Q1.276 0.613 0.852 0.870" stroke="hsl(180.0,100%,35%)" stroke-width="0.00075"></path>
<path d="M1.871 0.764 Q1.539 0.582 1.111 0.703" stroke="hsl(180.0,100%,35%)" stroke-width="0.00226"></path>
<path d="M1.871 0.764 Q1.818 0.668 1.620 0.674" stroke="hsl(180.0,100%,35%)" stroke-width="0.00151"></path>
<path d="M1.871 0.764 Q1.604 0.688 1.399 0.802" stroke="hsl(180.0,100%,35%)" stroke-width="0.00170"></path>
<path d="M1.871 0.764 Q1.954 0.614 1.679 0.540" stroke="hsl(180.0,100%,35%)" stroke-width="0.00019"></path>
<path d="M1.871 0.764 Q1.732 0.174 0.553 0.113" stroke="hsl(180.0,100%,35%)" stroke-width="0.00019"></path>
<path d="M1.871 0.764 Q1.627 0.247 0.567 0.253" stroke="hsl(180.0,100%,35%)" stroke-width="0.00019"></path>
<path d="M1.620 0.674 Q1.421 0.808 1.640 0.935" stroke="hsl(180.0,100%,35%)" stroke-width="0.01510"></path>
<path d="M1.620 0.674 Q1.065 0.696 0.988 0.972" stroke="hsl(180.0,100%,35%)" stroke-width="0.00340"></path>
<path d="M1.620 0.674 Q1.342 0.587 1.111 0.703" stroke="hsl(180.0,100%,35%)" stroke-width="0.00283"></path>
<path d="M1.620 0.674 Q1.407 0.693 1.399 0.802" stroke="hsl(180.0,100%,35%)" stroke-width="0.00755"></path>
<path d="M1.620 0.674 Q1.697 0.478 1.332 0.397" stroke="hsl(180.0,100%,35%)" stroke-width="0.00094"></path>
<path d="M1.620 0.674 Q1.206 0.731 1.228 0.946" stroke="hsl(180.0,100%,35%)" stroke-width="0.00566"></path>
<path d="M1.620 0.674 Q1.535 0.180 0.553 0.113" stroke="hsl(180.0,100%,35%)" stroke-width="0.00170"></path>
<path d="M1.620 0.674 Q1.756 0.619 1.679 0.540" stroke="hsl(180.0,100%,35%)" stroke-width="0.00642"></path>
<path d="M1.620 0.674 Q1.674 0.769 1.871 0.764" stroke="hsl(180.0,100%,35%)" stroke-width="0.00321"></path>
<path d="M1.620 0.674 Q1.079 0.618 0.852 0.870" stroke="hsl(180.0,100%,35%)" stroke-width="0.00679"></path>
<path d="M1.620 0.674 Q0.967 0.581 0.644 0.880" stroke="hsl(180.0,100%,35%)" stroke-width="0.00094"></path>
<path d="M1.620 0.674 Q1.956 0.519 1.728 0.322" stroke="hsl(180.0,100%,35%)" stroke-width="0.00038"></path>
<path d="M1.620 0.674 Q1.205 0.185 0.161 0.280" stroke="hsl(180.0,100%,35%)" stroke-width="0.00019"></path>
<path d="M1.620 0.674 Q1.519 0.374 0.913 0.358" stroke="hsl(180.0,100%,35%)" stroke-width="0.00057"></path>
<path d="M1.640 0.935 Q1.626 0.820 1.399 0.802" stroke="hsl(180.0,100%,35%)" stroke-width="0.02208"></path>
<path d="M1.640 0.935 Q1.840 0.800 1.620 0.674" stroke="hsl(180.0,100%,35%)" stroke-width="0.00585"></path>
<path d="M1.640 0.935 Q1.754 0.307 0.553 0.113" stroke="hsl(180.0,100%,35%)" stroke-width="0.00075"></path>
<path d="M1.640 0.935 Q1.893 0.896 1.871 0.764" stroke="hsl(180.0,100%,35%)" stroke-width="0.00793"></path>
<path d="M1.640 0.935 Q1.975 0.746 1.679 0.540" stroke="hsl(180.0,100%,35%)" stroke-width="0.00264"></path>
<path d="M1.640 0.935 Q1.298 0.745 0.852 0.870" stroke="hsl(180.0,100%,35%)" stroke-width="0.01547"></path>
<path d="M1.640 0.935 Q1.561 0.714 1.111 0.703" stroke="hsl(180.0,100%,35%)" stroke-width="0.00321"></path>
<path d="M1.640 0.935 Q1.917 0.605 1.332 0.397" stroke="hsl(180.0,100%,35%)" stroke-width="0.00038"></path>
<path d="M1.640 0.935 Q1.285 0.823 0.988 0.972" stroke="hsl(180.0,100%,35%)" stroke-width="0.00434"></path>
<path d="M1.640 0.935 Q1.425 0.858 1.228 0.946" stroke="hsl(180.0,100%,35%)" stroke-width="0.00226"></path>
<path d="M1.640 0.935 Q1.187 0.708 0.644 0.880" stroke="hsl(180.0,100%,35%)" stroke-width="0.00132"></path>
<path d="M1.640 0.935 Q1.739 0.501 0.913 0.358" stroke="hsl(180.0,100%,35%)" stroke-width="0.00019"></path>
<path d="M1.640 0.935 Q1.424 0.312 0.161 0.280" stroke="hsl(180.0,100%,35%)" stroke-width="0.00019"></path>
<path d="M1.228 0.946 Q1.443 1.023 1.640 0.935" stroke="hsl(180.0,100%,35%)" stroke-width="0.00113"></path>
<path d="M1.228 0.946 Q1.088 0.911 0.988 0.972" stroke="hsl(180.0,100%,35%)" stroke-width="0.00472"></path>
<path d="M1.228 0.946 Q1.557 0.394 0.553 0.113" stroke="hsl(180.0,100%,35%)" stroke-width="0.00094"></path>
<path d="M1.228 0.946 Q1.364 0.802 1.111 0.703" stroke="hsl(180.0,100%,35%)" stroke-width="0.00038"></path>
<path d="M1.228 0.946 Q1.429 0.908 1.399 0.802" stroke="hsl(180.0,100%,35%)" stroke-width="0.00094"></path>
<path d="M1.228 0.946 Q1.643 0.888 1.620 0.674" stroke="hsl(180.0,100%,35%)" stroke-width="0.00472"></path>
<path d="M1.228 0.946 Q1.101 0.833 0.852 0.870" stroke="hsl(180.0,100%,35%)" stroke-width="0.00019"></path>
<path d="M1.228 0.946 Q1.696 0.984 1.871 0.764" stroke="hsl(180.0,100%,35%)" stroke-width="0.00038"></path>
<path d="M1.228 0.946 Q1.339 0.311 0.124 0.118" stroke="hsl(180.0,100%,35%)" stroke-width="0.00019"></path>
<path d="M1.228 0.946 Q0.989 0.796 0.644 0.880" stroke="hsl(180.0,100%,35%)" stroke-width="0.00019"></path>
<path d="M1.228 0.946 Q1.444 0.526 0.671 0.329" stroke="hsl(180.0,100%,35%)" stroke-width="0.00019"></path>
<path d="M1.399 0.802 Q1.613 0.782 1.620 0.674" stroke="hsl(180.0,100%,35%)" stroke-width="0.01661"></path>
<path d="M1.399 0.802 Q1.334 0.695 1.111 0.703" stroke="hsl(180.0,100%,35%)" stroke-width="0.00170"></path>
<path d="M1.399 0.802 Q1.057 0.805 0.988 0.972" stroke="hsl(180.0,100%,35%)" stroke-width="0.00434"></path>
<path d="M1.399 0.802 Q1.413 0.917 1.640 0.935" stroke="hsl(180.0,100%,35%)" stroke-width="0.01076"></path>
<path d="M1.399 0.802 Q1.511 0.483 0.913 0.358" stroke="hsl(180.0,100%,35%)" stroke-width="0.00057"></path>
<path d="M1.399 0.802 Q1.071 0.727 0.852 0.870" stroke="hsl(180.0,100%,35%)" stroke-width="0.00226"></path>
<path d="M1.399 0.802 Q1.198 0.840 1.228 0.946" stroke="hsl(180.0,100%,35%)" stroke-width="0.00717"></path>
<path d="M1.399 0.802 Q1.527 0.288 0.553 0.113" stroke="hsl(180.0,100%,35%)" stroke-width="0.00132"></path>
<path d="M1.399 0.802 Q1.197 0.294 0.161 0.280" stroke="hsl(180.0,100%,35%)" stroke-width="0.00057"></path>
<path d="M1.399 0.802 Q1.593 0.809 1.648 0.715" stroke="hsl(180.0,100%,35%)" stroke-width="0.00019"></path>
<path d="M1.399 0.802 Q0.959 0.690 0.644 0.880" stroke="hsl(180.0,100%,35%)" stroke-width="0.00019"></path>
<path d="M0.613 0.604 Q0.519 0.785 0.852 0.870" stroke="hsl(180.0,100%,35%)" stroke-width="0.00396"></path>
<path d="M0.613 0.604 Q1.138 0.644 1.332 0.397" stroke="hsl(180.0,100%,35%)" stroke-width="0.00019"></path>
<path d="M0.613 0.604 Q0.646 0.352 0.161 0.280" stroke="hsl(180.0,100%,35%)" stroke-width="0.00075"></path>
<path d="M1.843 0.833 Q1.774 0.215 0.553 0.113" stroke="hsl(180.0,100%,35%)" stroke-width="0.00019"></path>
<path d="M1.843 0.833 Q1.659 0.844 1.640 0.935" stroke="hsl(180.0,100%,35%)" stroke-width="0.00019"></path>
<path d="M1.843 0.833 Q1.206 0.617 0.644 0.880" stroke="hsl(180.0,100%,35%)" stroke-width="0.00019"></path>
<path d="M0.644 0.880 Q1.019 0.885 1.111 0.703" stroke="hsl(180.0,100%,35%)" stroke-width="0.00283"></path>
<path d="M0.644 0.880 Q0.756 0.916 0.852 0.870" stroke="hsl(180.0,100%,35%)" stroke-width="0.01113"></path>
<path d="M0.644 0.880 Q1.297 0.972 1.620 0.674" stroke="hsl(180.0,100%,35%)" stroke-width="0.00340"></path>
<path d="M0.644 0.880 Q1.374 0.776 1.332 0.397" stroke="hsl(180.0,100%,35%)" stroke-width="0.00038"></path>
<path d="M0.644 0.880 Q1.212 0.478 0.553 0.113" stroke="hsl(180.0,100%,35%)" stroke-width="0.00170"></path>
<path d="M0.644 0.880 Q1.084 0.992 1.399 0.802" stroke="hsl(180.0,100%,35%)" stroke-width="0.00019"></path>
<path d="M0.644 0.880 Q1.098 1.107 1.640 0.935" stroke="hsl(180.0,100%,35%)" stroke-width="0.00019"></path>
<path d="M1.132 0.858 Q0.969 0.886 0.988 0.972" stroke="hsl(180.0,100%,35%)" stroke-width="0.00038"></path>
<path d="M1.132 0.858 Q1.311 0.884 1.399 0.802" stroke="hsl(180.0,100%,35%)" stroke-width="0.00019"></path>
<path d="M1.132 0.858 Q1.325 0.998 1.640 0.935" stroke="hsl(180.0,100%,35%)" stroke-width="0.00019"></path>
<path d="M0.116 0.805 Q0.888 0.546 0.553 0.113" stroke="hsl(0.0,100%,35%)" stroke-width="0.00057"></path>
<path d="M0.116 0.805 Q0.974 1.040 1.620 0.674" stroke="hsl(0.0,100%,35%)" stroke-width="0.00038"></path>
<path d="M0.116 0.805 Q0.169 0.893 0.353 0.886" stroke="hsl(0.0,100%,35%)" stroke-width="0.00132"></path>
<path d="M0.116 0.805 Q0.716 0.558 0.364 0.210" stroke="hsl(0.0,100%,35%)" stroke-width="0.00019"></path>
<path d="M0.116 0.805 Q1.051 0.844 1.332 0.397" stroke="hsl(0.0,100%,35%)" stroke-width="0.00019"></path>
<path d="M0.116 0.805 Q0.695 0.953 1.111 0.703" stroke="hsl(0.0,100%,35%)" stroke-width="0.00019"></path>
<path d="M0.353 0.886 Q0.943 1.054 1.399 0.802" stroke="hsl(0.0,100%,35%)" stroke-width="0.00019"></path>
<path d="M0.353 0.886 Q1.072 0.540 0.553 0.113" stroke="hsl(0.0,100%,35%)" stroke-width="0.00038"></path>
<path d="M0.353 0.886 Q0.657 1.084 1.109 0.978" stroke="hsl(0.0,100%,35%)" stroke-width="0.00019"></path>
<path d="M0.353 0.886 Q0.899 0.551 0.364 0.210" stroke="hsl(0.0,100%,35%)" stroke-width="0.00019"></path>
<path d="M0.364 0.210 Q0.537 0.199 0.553 0.113" stroke="hsl(0.0,100%,35%)" stroke-width="0.01812"></path>
<path d="M0.364 0.210 Q0.656 0.572 1.425 0.509" stroke="hsl(0.0,100%,35%)" stroke-width="0.00019"></path>
<path d="M0.364 0.210 Q0.080 0.638 0.852 0.870" stroke="hsl(0.0,100%,35%)" stroke-width="0.00094"></path>
<path d="M0.364 0.210 Q0.699 0.497 1.332 0.397" stroke="hsl(0.0,100%,35%)" stroke-width="0.00019"></path>
<path d="M0.364 0.210 Q0.343 0.606 1.111 0.703" stroke="hsl(0.0,100%,35%)" stroke-width="0.00189"></path>
<path d="M0.364 0.210 Q-0.236 0.458 0.116 0.805" stroke="hsl(0.0,100%,35%)" stroke-width="0.00019"></path>
<path d="M0.364 0.210 Q0.622 0.693 1.620 0.674" stroke="hsl(0.0,100%,35%)" stroke-width="0.00019"></path>
<path d="M0.364 0.210 Q0.432 0.272 0.567 0.253" stroke="hsl(0.0,100%,35%)" stroke-width="0.00019"></path>
<path d="M0.364 0.210 Q0.675 0.788 1.871 0.764" stroke="hsl(0.0,100%,35%)" stroke-width="0.00019"></path>
<path d="M0.364 0.210 Q0.122 0.743 1.109 0.978" stroke="hsl(0.0,100%,35%)" stroke-width="0.00019"></path>
<path d="M0.913 0.358 Q0.929 0.163 0.553 0.113" stroke="hsl(0.0,100%,35%)" stroke-width="0.00264"></path>
<path d="M0.913 0.358 Q0.801 0.677 1.399 0.802" stroke="hsl(0.0,100%,35%)" stroke-width="0.00038"></path>
<path d="M0.913 0.358 Q0.473 0.602 0.852 0.870" stroke="hsl(0.0,100%,35%)" stroke-width="0.00170"></path>
<path d="M0.913 0.358 Q0.688 0.353 0.628 0.462" stroke="hsl(0.0,100%,35%)" stroke-width="0.00057"></path>
<path d="M0.913 0.358 Q0.816 0.295 0.671 0.329" stroke="hsl(0.0,100%,35%)" stroke-width="0.00245"></path>
<path d="M0.913 0.358 Q1.150 0.254 1.000 0.116" stroke="hsl(0.0,100%,35%)" stroke-width="0.00038"></path>
<path d="M0.913 0.358 Q1.092 0.461 1.332 0.397" stroke="hsl(0.0,100%,35%)" stroke-width="0.00170"></path>
<path d="M0.913 0.358 Q0.736 0.570 1.111 0.703" stroke="hsl(0.0,100%,35%)" stroke-width="0.00019"></path>
<path d="M0.913 0.358 Q1.015 0.657 1.620 0.674" stroke="hsl(0.0,100%,35%)" stroke-width="0.00019"></path>
<path d="M0.913 0.358 Q0.815 0.792 1.640 0.935" stroke="hsl(0.0,100%,35%)" stroke-width="0.00019"></path>
<path d="M0.124 0.118 Q-0.127 0.718 0.988 0.972" stroke="hsl(0.0,100%,35%)" stroke-width="0.00094"></path>
<path d="M0.124 0.118 Q0.013 0.753 1.228 0.946" stroke="hsl(0.0,100%,35%)" stroke-width="0.00075"></path>
<path d="M0.124 0.118 Q0.012 0.207 0.161 0.280" stroke="hsl(0.0,100%,35%)" stroke-width="0.00264"></path>
<path d="M0.124 0.118 Q0.214 0.715 1.399 0.802" stroke="hsl(0.0,100%,35%)" stroke-width="0.00094"></path>
<path d="M0.124 0.118 Q0.342 0.201 0.553 0.113" stroke="hsl(0.0,100%,35%)" stroke-width="0.00019"></path>
<path d="M0.124 0.118 Q0.149 0.608 1.111 0.703" stroke="hsl(0.0,100%,35%)" stroke-width="0.00094"></path>
<path d="M0.124 0.118 Q-0.045 0.201 0.079 0.301" stroke="hsl(0.0,100%,35%)" stroke-width="0.00019"></path>
<path d="M0.124 0.118 Q-0.114 0.639 0.852 0.870" stroke="hsl(0.0,100%,35%)" stroke-width="0.00038"></path>
<path d="M0.124 0.118 Q0.428 0.695 1.620 0.674" stroke="hsl(0.0,100%,35%)" stroke-width="0.00019"></path>
<path d="M1.728 0.322 Q1.470 0.280 1.332 0.397" stroke="hsl(0.0,100%,35%)" stroke-width="0.00377"></path>
<path d="M1.728 0.322 Q1.308 -0.018 0.553 0.113" stroke="hsl(0.0,100%,35%)" stroke-width="0.00113"></path>
<path d="M1.728 0.322 Q1.427 0.355 1.425 0.509" stroke="hsl(0.0,100%,35%)" stroke-width="0.00038"></path>
<path d="M1.728 0.322 Q1.292 0.177 0.913 0.358" stroke="hsl(0.0,100%,35%)" stroke-width="0.00038"></path>
<path d="M1.728 0.322 Q0.851 0.421 0.852 0.870" stroke="hsl(0.0,100%,35%)" stroke-width="0.00038"></path>
<path d="M1.728 0.322 Q0.979 0.534 1.228 0.946" stroke="hsl(0.0,100%,35%)" stroke-width="0.00019"></path>
<path d="M0.872 0.971 Q0.929 0.995 0.988 0.972" stroke="hsl(180.0,100%,35%)" stroke-width="0.00340"></path>
<path d="M0.872 0.971 Q1.271 0.992 1.399 0.802" stroke="hsl(180.0,100%,35%)" stroke-width="0.00094"></path>
<path d="M0.872 0.971 Q1.485 0.972 1.620 0.674" stroke="hsl(180.0,100%,35%)" stroke-width="0.00075"></path>
<path d="M0.872 0.971 Q1.538 1.067 1.871 0.764" stroke="hsl(180.0,100%,35%)" stroke-width="0.00019"></path>
<path d="M0.872 0.971 Q1.206 0.885 1.111 0.703" stroke="hsl(180.0,100%,35%)" stroke-width="0.00019"></path>
<path d="M0.872 0.971 Q0.943 0.917 0.852 0.870" stroke="hsl(180.0,100%,35%)" stroke-width="0.00019"></path>
<path d="M0.872 0.971 Q1.285 1.107 1.640 0.935" stroke="hsl(180.0,100%,35%)" stroke-width="0.00019"></path>
<path d="M1.425 0.509 Q1.306 0.136 0.553 0.113" stroke="hsl(0.0,100%,35%)" stroke-width="0.00321"></path>
<path d="M1.425 0.509 Q1.468 0.434 1.332 0.397" stroke="hsl(0.0,100%,35%)" stroke-width="0.01019"></path>
<path d="M1.425 0.509 Q1.727 0.476 1.728 0.322" stroke="hsl(0.0,100%,35%)" stroke-width="0.00038"></path>
<path d="M1.425 0.509 Q0.850 0.575 0.852 0.870" stroke="hsl(0.0,100%,35%)" stroke-width="0.00075"></path>
<path d="M1.425 0.509 Q0.976 0.142 0.161 0.280" stroke="hsl(0.0,100%,35%)" stroke-width="0.00019"></path>
<path d="M1.425 0.509 Q0.836 0.653 0.988 0.972" stroke="hsl(0.0,100%,35%)" stroke-width="0.00019"></path>
<path d="M1.425 0.509 Q1.290 0.331 0.913 0.358" stroke="hsl(0.0,100%,35%)" stroke-width="0.00019"></path>
<path d="M1.425 0.509 Q0.919 0.136 0.079 0.301" stroke="hsl(0.0,100%,35%)" stroke-width="0.00019"></path>
<path d="M1.109 0.978 Q0.804 0.781 0.353 0.886" stroke="hsl(180.0,100%,35%)" stroke-width="0.00019"></path>
<path d="M1.109 0.978 Q1.067 0.873 0.852 0.870" stroke="hsl(180.0,100%,35%)" stroke-width="0.00019"></path>
<path d="M1.109 0.978 Q1.523 0.434 0.553 0.113" stroke="hsl(180.0,100%,35%)" stroke-width="0.00019"></path>
<path d="M1.109 0.978 Q1.686 0.732 1.332 0.397" stroke="hsl(180.0,100%,35%)" stroke-width="0.00019"></path>
<path d="M1.109 0.978 Q1.330 0.841 1.111 0.703" stroke="hsl(180.0,100%,35%)" stroke-width="0.00038"></path>
<path d="M1.109 0.978 Q1.054 0.951 0.988 0.972" stroke="hsl(180.0,100%,35%)" stroke-width="0.00057"></path>
<path d="M0.567 0.253 Q0.672 0.180 0.553 0.113" stroke="hsl(0.0,100%,35%)" stroke-width="0.00453"></path>
<path d="M0.567 0.253 Q0.499 0.191 0.364 0.210" stroke="hsl(0.0,100%,35%)" stroke-width="0.00057"></path>
<path d="M0.567 0.253 Q0.257 0.724 1.109 0.978" stroke="hsl(0.0,100%,35%)" stroke-width="0.00038"></path>
<path d="M0.567 0.253 Q0.757 0.674 1.620 0.674" stroke="hsl(0.0,100%,35%)" stroke-width="0.00075"></path>
<path d="M0.567 0.253 Q0.834 0.478 1.332 0.397" stroke="hsl(0.0,100%,35%)" stroke-width="0.00019"></path>
<path d="M0.567 0.253 Q0.927 0.384 1.262 0.237" stroke="hsl(0.0,100%,35%)" stroke-width="0.00019"></path>
<path d="M0.567 0.253 Q0.893 0.271 1.000 0.116" stroke="hsl(0.0,100%,35%)" stroke-width="0.00038"></path>
<path d="M1.000 0.116 Q1.034 0.229 1.262 0.237" stroke="hsl(0.0,100%,35%)" stroke-width="0.00340"></path>
<path d="M1.000 0.116 Q0.006 0.284 0.116 0.805" stroke="hsl(0.0,100%,35%)" stroke-width="0.00038"></path>
<path d="M1.000 0.116 Q0.779 0.025 0.553 0.113" stroke="hsl(0.0,100%,35%)" stroke-width="0.00019"></path>
<path d="M1.000 0.116 Q0.674 0.098 0.567 0.253" stroke="hsl(0.0,100%,35%)" stroke-width="0.00094"></path>
<path d="M1.000 0.116 Q0.650 0.539 1.399 0.802" stroke="hsl(0.0,100%,35%)" stroke-width="0.00019"></path>
<path d="M0.802 0.977 Q1.175 0.902 1.111 0.703" stroke="hsl(180.0,100%,35%)" stroke-width="0.00019"></path>
<path d="M0.802 0.977 Q1.254 1.123 1.640 0.935" stroke="hsl(180.0,100%,35%)" stroke-width="0.00019"></path>
<path d="M0.802 0.977 Q0.912 0.933 0.852 0.870" stroke="hsl(180.0,100%,35%)" stroke-width="0.00038"></path>
<path d="M0.802 0.977 Q1.369 0.495 0.553 0.113" stroke="hsl(180.0,100%,35%)" stroke-width="0.00038"></path>
<path d="M0.671 0.329 Q0.785 0.197 0.553 0.113" stroke="hsl(0.0,100%,35%)" stroke-width="0.00113"></path>
<path d="M0.671 0.329 Q0.769 0.392 0.913 0.358" stroke="hsl(0.0,100%,35%)" stroke-width="0.00340"></path>
<path d="M0.671 0.329 Q0.670 0.826 1.640 0.935" stroke="hsl(0.0,100%,35%)" stroke-width="0.00019"></path>
<path d="M0.671 0.329 Q0.656 0.711 1.399 0.802" stroke="hsl(0.0,100%,35%)" stroke-width="0.00019"></path>
<path d="M0.671 0.329 Q0.456 0.749 1.228 0.946" stroke="hsl(0.0,100%,35%)" stroke-width="0.00019"></path>
<path d="M0.671 0.329 Q0.870 0.691 1.620 0.674" stroke="hsl(0.0,100%,35%)" stroke-width="0.00019"></path>
<path d="M1.007 0.696 Q0.790 0.752 0.852 0.870" stroke="hsl(180.0,100%,35%)" stroke-width="0.00075"></path>
<path d="M1.007 0.696 Q0.777 0.830 0.988 0.972" stroke="hsl(180.0,100%,35%)" stroke-width="0.00057"></path>
<path d="M1.007 0.696 Q1.385 0.903 1.871 0.764" stroke="hsl(180.0,100%,35%)" stroke-width="0.00019"></path>
<path d="M1.007 0.696 Q1.132 0.942 1.640 0.935" stroke="hsl(180.0,100%,35%)" stroke-width="0.00038"></path>
<path d="M1.007 0.696 Q1.332 0.807 1.620 0.674" stroke="hsl(180.0,100%,35%)" stroke-width="0.00019"></path>
<path d="M0.672 0.237 Q1.132 0.491 1.728 0.322" stroke="hsl(0.0,100%,35%)" stroke-width="0.00019"></path>
<path d="M0.672 0.237 Q0.255 0.589 0.852 0.870" stroke="hsl(0.0,100%,35%)" stroke-width="0.00019"></path>
<path d="M0.672 0.237 Q0.711 0.151 0.553 0.113" stroke="hsl(0.0,100%,35%)" stroke-width="0.00019"></path>
<path d="M0.214 0.174 Q0.102 0.216 0.161 0.280" stroke="hsl(0.0,100%,35%)" stroke-width="0.00019"></path>
<path d="M0.214 0.174 Q-0.024 0.649 0.852 0.870" stroke="hsl(0.0,100%,35%)" stroke-width="0.00019"></path>
<path d="M0.214 0.174 Q0.432 0.211 0.553 0.113" stroke="hsl(0.0,100%,35%)" stroke-width="0.00019"></path>
<path d="M0.813 0.679 Q0.680 0.782 0.852 0.870" stroke="hsl(0.0,100%,35%)" stroke-width="0.00057"></path>
<path d="M0.813 0.679 Q1.298 0.642 1.332 0.397" stroke="hsl(0.0,100%,35%)" stroke-width="0.00038"></path>
<path d="M0.813 0.679 Q1.120 0.539 0.913 0.358" stroke="hsl(0.0,100%,35%)" stroke-width="0.00019"></path>
<path d="M1.622 0.808 Q1.173 0.763 0.988 0.972" stroke="hsl(180.0,100%,35%)" stroke-width="0.00019"></path>
<path d="M1.622 0.808 Q1.187 0.685 0.852 0.870" stroke="hsl(180.0,100%,35%)" stroke-width="0.00038"></path>
<path d="M1.622 0.808 Q1.529 0.875 1.640 0.935" stroke="hsl(180.0,100%,35%)" stroke-width="0.00038"></path>
<path d="M1.622 0.808 Q1.643 0.246 0.553 0.113" stroke="hsl(180.0,100%,35%)" stroke-width="0.00019"></path>
<path d="M1.608 0.398 Q0.852 0.483 0.852 0.870" stroke="hsl(0.0,100%,35%)" stroke-width="0.00132"></path>
<path d="M1.608 0.398 Q1.471 0.342 1.332 0.397" stroke="hsl(0.0,100%,35%)" stroke-width="0.00208"></path>
<path d="M1.608 0.398 Q1.293 0.239 0.913 0.358" stroke="hsl(0.0,100%,35%)" stroke-width="0.00189"></path>
<path d="M1.608 0.398 Q1.180 0.558 1.399 0.802" stroke="hsl(0.0,100%,35%)" stroke-width="0.00019"></path>
<path d="M0.072 0.159 Q-0.107 0.670 0.852 0.870" stroke="hsl(0.0,100%,35%)" stroke-width="0.00019"></path>
<path d="M0.072 0.159 Q0.019 0.237 0.161 0.280" stroke="hsl(0.0,100%,35%)" stroke-width="0.00094"></path>
<path d="M0.072 0.159 Q-0.219 0.634 0.644 0.880" stroke="hsl(0.0,100%,35%)" stroke-width="0.00019"></path>
<path d="M1.726 0.804 Q1.578 0.853 1.640 0.935" stroke="hsl(180.0,100%,35%)" stroke-width="0.00226"></path>
<path d="M1.726 0.804 Q1.474 0.141 0.124 0.118" stroke="hsl(180.0,100%,35%)" stroke-width="0.00019"></path>
<path d="M1.726 0.804 Q1.125 0.626 0.644 0.880" stroke="hsl(180.0,100%,35%)" stroke-width="0.00019"></path>
<path d="M1.726 0.804 Q1.855 0.522 1.332 0.397" stroke="hsl(180.0,100%,35%)" stroke-width="0.00019"></path>
<path d="M1.726 0.804 Q1.223 0.740 0.988 0.972" stroke="hsl(180.0,100%,35%)" stroke-width="0.00189"></path>
<path d="M1.726 0.804 Q1.564 0.738 1.399 0.802" stroke="hsl(180.0,100%,35%)" stroke-width="0.00019"></path>
<path d="M1.726 0.804 Q1.236 0.662 0.852 0.870" stroke="hsl(180.0,100%,35%)" stroke-width="0.00038"></path>
<path d="M1.726 0.804 Q1.778 0.718 1.620 0.674" stroke="hsl(180.0,100%,35%)" stroke-width="0.00019"></path>
<path d="M0.543 0.658 Q0.528 0.826 0.852 0.870" stroke="hsl(180.0,100%,35%)" stroke-width="0.00075"></path>
<path d="M0.543 0.658 Q1.070 0.881 1.620 0.674" stroke="hsl(180.0,100%,35%)" stroke-width="0.00038"></path>
<path d="M0.543 0.658 Q0.417 0.789 0.644 0.880" stroke="hsl(180.0,100%,35%)" stroke-width="0.00019"></path>
<path d="M0.543 0.658 Q0.791 0.794 1.111 0.703" stroke="hsl(180.0,100%,35%)" stroke-width="0.00019"></path>
<path d="M1.963 0.536 Q1.127 0.559 0.988 0.972" stroke="hsl(180.0,100%,35%)" stroke-width="0.00113"></path>
<path d="M1.963 0.536 Q1.682 0.536 1.620 0.674" stroke="hsl(180.0,100%,35%)" stroke-width="0.00094"></path>
<path d="M1.963 0.536 Q1.482 0.671 1.640 0.935" stroke="hsl(180.0,100%,35%)" stroke-width="0.00132"></path>
<path d="M1.963 0.536 Q1.140 0.481 0.852 0.870" stroke="hsl(180.0,100%,35%)" stroke-width="0.00038"></path>
<path d="M1.907 0.718 Q1.876 0.443 1.332 0.397" stroke="hsl(180.0,100%,35%)" stroke-width="0.00019"></path>
<path d="M1.907 0.718 Q1.599 0.773 1.640 0.935" stroke="hsl(180.0,100%,35%)" stroke-width="0.00038"></path>
<path d="M1.907 0.718 Q1.257 0.583 0.852 0.870" stroke="hsl(180.0,100%,35%)" stroke-width="0.00019"></path>
</g>
<text x="0.756" y="-0.925" font-size="0.006636" fill="hsl(0.0,100%,20%)">aperez</text>
<text x="0.988" y="0.951" font-size="0.041043" fill="hsl(180.0,100%,20%)">egdaniel</text>
<text x="0.553" y="0.078" font-size="0.068607" fill="hsl(0.0,100%,20%)">kjlubick</text>
<text x="1.332" y="0.373" font-size="0.048427" fill="hsl(0.0,100%,20%)">bungeman</text>
<text x="0.852" y="0.834" font-size="0.072356" fill="hsl(180.0,100%,20%)">brianosman</text>
<text x="0.161" y="0.270" font-size="0.020319" fill="hsl(0.0,100%,20%)">scroggo</text>
<text x="1.111" y="0.668" font-size="0.071398" fill="hsl(180.0,100%,20%)">johnstiles</text>
<text x="1.679" y="0.521" font-size="0.038909" fill="hsl(180.0,100%,20%)">armansito</text>
<text x="1.871" y="0.748" font-size="0.031391" fill="hsl(180.0,100%,20%)">jamesgk</text>
<text x="1.620" y="0.645" font-size="0.057616" fill="hsl(180.0,100%,20%)">jvanverth</text>
<text x="1.640" y="0.903" font-size="0.064084" fill="hsl(180.0,100%,20%)">michaelludwig</text>
<text x="1.228" y="0.927" font-size="0.037906" fill="hsl(180.0,100%,20%)">nicolettep</text>
<text x="1.399" y="0.776" font-size="0.052202" fill="hsl(180.0,100%,20%)">robertphillips</text>
<text x="0.613" y="0.598" font-size="0.012415" fill="hsl(180.0,100%,20%)">ccameron</text>
<text x="1.843" y="0.831" font-size="0.004064" fill="hsl(180.0,100%,20%)">ayzhao</text>
<text x="0.644" y="0.864" font-size="0.032680" fill="hsl(180.0,100%,20%)">herb</text>
<text x="1.132" y="0.856" font-size="0.004693" fill="hsl(180.0,100%,20%)">blundell</text>
<text x="0.116" y="0.798" font-size="0.014078" fill="hsl(0.0,100%,20%)">borenet</text>
<text x="0.353" y="0.881" font-size="0.009954" fill="hsl(0.0,100%,20%)">rmistry</text>
<text x="0.364" y="0.196" font-size="0.029679" fill="hsl(0.0,100%,20%)">lovisolo</text>
<text x="0.913" y="0.345" font-size="0.027160" fill="hsl(0.0,100%,20%)">fmalita</text>
<text x="1.648" y="0.713" font-size="0.005246" fill="hsl(0.0,100%,20%)">jreck</text>
<text x="0.124" y="0.109" font-size="0.017401" fill="hsl(0.0,100%,20%)">nscobie</text>
<text x="1.728" y="0.312" font-size="0.019348" fill="hsl(0.0,100%,20%)">jlavrova</text>
<text x="0.872" y="0.965" font-size="0.013064" fill="hsl(180.0,100%,20%)">briansalomon</text>
<text x="1.425" y="0.497" font-size="0.024270" fill="hsl(0.0,100%,20%)">drott</text>
<text x="1.109" y="0.973" font-size="0.010227" fill="hsl(180.0,100%,20%)">jcgregorio</text>
<text x="0.567" y="0.244" font-size="0.017081" fill="hsl(0.0,100%,20%)">cmumford</text>
<text x="1.262" y="0.232" font-size="0.010227" fill="hsl(0.0,100%,20%)">hcm</text>
<text x="1.000" y="0.109" font-size="0.013064" fill="hsl(0.0,100%,20%)">sharaks</text>
<text x="0.802" y="0.974" font-size="0.005747" fill="hsl(180.0,100%,20%)">dcheng</text>
<text x="0.079" y="0.298" font-size="0.005747" fill="hsl(0.0,100%,20%)">djsollen</text>
<text x="0.628" y="0.459" font-size="0.004693" fill="hsl(0.0,100%,20%)">bwils</text>
<text x="0.671" y="0.321" font-size="0.016591" fill="hsl(0.0,100%,20%)">jmbetancourt</text>
<text x="1.007" y="0.692" font-size="0.007782" fill="hsl(180.0,100%,20%)">hitawala</text>
<text x="0.672" y="0.235" font-size="0.004064" fill="hsl(0.0,100%,20%)">jacksongardner</text>
<text x="0.214" y="0.172" font-size="0.004064" fill="hsl(0.0,100%,20%)">jgaillard</text>
<text x="0.372" y="0.372" font-size="0.003318" fill="hsl(0.0,100%,20%)">tdenniston</text>
<text x="0.312" y="0.253" font-size="0.002346" fill="hsl(0.0,100%,20%)">mingkong</text>
<text x="0.813" y="0.676" font-size="0.005747" fill="hsl(0.0,100%,20%)">kschmi</text>
<text x="1.622" y="0.805" font-size="0.005747" fill="hsl(180.0,100%,20%)">lokokung</text>
<text x="1.608" y="0.392" font-size="0.012635" fill="hsl(0.0,100%,20%)">mike</text>
<text x="0.072" y="0.156" font-size="0.006208" fill="hsl(0.0,100%,20%)">nigeltao</text>
<text x="1.726" y="0.798" font-size="0.012635" fill="hsl(180.0,100%,20%)">penghuang</text>
<text x="0.543" y="0.655" font-size="0.006636" fill="hsl(180.0,100%,20%)">sky</text>
<text x="1.963" y="0.531" font-size="0.010493" fill="hsl(180.0,100%,20%)">sunnyps</text>
<text x="1.907" y="0.716" font-size="0.004693" fill="hsl(180.0,100%,20%)">tangm</text>
</svg>
