<svg width="4000" height="2000" viewBox="-0.025 -0.025 2.05 1.05" xmlns="http://www.w3.org/2000/svg">
  <style>
    path {
      fill: none;
      stroke-linecap: round;
      stroke-opacity: 0.4;
    }

    text {
      text-anchor: middle;
      alignment-baseline: hanging;
    }
  </style>
  <g opacity="0.4">
<path d="M0.802 0.296 Q0.243 0.549 0.615 0.878" stroke="hsl(0.0,100%,35%)" stroke-width="0.00020"></path>
<path d="M0.802 0.296 Q0.522 0.630 1.114 0.840" stroke="hsl(0.0,100%,35%)" stroke-width="0.00020"></path>
<path d="M0.802 0.296 Q0.529 0.728 1.313 0.956" stroke="hsl(0.0,100%,35%)" stroke-width="0.00039"></path>
<path d="M0.802 0.296 Q0.946 0.249 0.885 0.168" stroke="hsl(0.0,100%,35%)" stroke-width="0.00039"></path>
<path d="M0.802 0.296 Q0.429 0.240 0.238 0.410" stroke="hsl(0.0,100%,35%)" stroke-width="0.00020"></path>
<path d="M0.802 0.296 Q1.084 0.232 1.023 0.081" stroke="hsl(0.0,100%,35%)" stroke-width="0.00020"></path>
<path d="M0.615 0.878 Q0.777 0.839 0.737 0.752" stroke="hsl(180.0,100%,35%)" stroke-width="0.00570"></path>
<path d="M0.615 0.878 Q1.306 0.874 1.449 0.536" stroke="hsl(180.0,100%,35%)" stroke-width="0.00177"></path>
<path d="M0.615 0.878 Q1.295 0.757 1.207 0.398" stroke="hsl(180.0,100%,35%)" stroke-width="0.00216"></path>
<path d="M0.615 0.878 Q1.457 0.561 1.023 0.081" stroke="hsl(180.0,100%,35%)" stroke-width="0.00137"></path>
<path d="M0.615 0.878 Q1.318 0.577 0.885 0.168" stroke="hsl(180.0,100%,35%)" stroke-width="0.00098"></path>
<path d="M0.615 0.878 Q1.118 0.864 1.201 0.616" stroke="hsl(180.0,100%,35%)" stroke-width="0.00353"></path>
<path d="M0.615 0.878 Q1.003 0.783 0.903 0.573" stroke="hsl(180.0,100%,35%)" stroke-width="0.00079"></path>
<path d="M0.615 0.878 Q0.932 0.547 0.356 0.321" stroke="hsl(180.0,100%,35%)" stroke-width="0.00020"></path>
<path d="M0.615 0.878 Q0.895 0.959 1.114 0.840" stroke="hsl(180.0,100%,35%)" stroke-width="0.00039"></path>
<path d="M0.615 0.878 Q0.982 0.698 0.711 0.480" stroke="hsl(180.0,100%,35%)" stroke-width="0.00020"></path>
<path d="M0.615 0.878 Q0.901 1.057 1.313 0.956" stroke="hsl(180.0,100%,35%)" stroke-width="0.00039"></path>
<path d="M0.615 0.878 Q1.571 0.615 1.267 0.091" stroke="hsl(180.0,100%,35%)" stroke-width="0.00039"></path>
<path d="M1.114 0.840 Q1.337 0.314 0.359 0.090" stroke="hsl(0.0,100%,35%)" stroke-width="0.00511"></path>
<path d="M1.114 0.840 Q1.525 0.755 1.449 0.536" stroke="hsl(0.0,100%,35%)" stroke-width="0.00471"></path>
<path d="M1.114 0.840 Q1.464 0.374 0.631 0.100" stroke="hsl(0.0,100%,35%)" stroke-width="0.00137"></path>
<path d="M1.114 0.840 Q1.120 0.938 1.313 0.956" stroke="hsl(0.0,100%,35%)" stroke-width="0.01925"></path>
<path d="M1.114 0.840 Q1.537 0.459 0.885 0.168" stroke="hsl(0.0,100%,35%)" stroke-width="0.01709"></path>
<path d="M1.114 0.840 Q0.930 0.572 0.366 0.602" stroke="hsl(0.0,100%,35%)" stroke-width="0.00039"></path>
<path d="M1.114 0.840 Q1.261 0.796 1.206 0.715" stroke="hsl(0.0,100%,35%)" stroke-width="0.00648"></path>
<path d="M1.114 0.840 Q1.676 0.442 1.023 0.081" stroke="hsl(0.0,100%,35%)" stroke-width="0.00668"></path>
<path d="M1.114 0.840 Q0.997 0.721 0.737 0.752" stroke="hsl(0.0,100%,35%)" stroke-width="0.00746"></path>
<path d="M1.114 0.840 Q1.222 0.665 0.903 0.573" stroke="hsl(0.0,100%,35%)" stroke-width="0.00020"></path>
<path d="M1.114 0.840 Q1.322 1.029 1.737 0.969" stroke="hsl(0.0,100%,35%)" stroke-width="0.00236"></path>
<path d="M1.114 0.840 Q1.514 0.638 1.207 0.398" stroke="hsl(0.0,100%,35%)" stroke-width="0.00196"></path>
<path d="M1.114 0.840 Q1.337 0.745 1.201 0.616" stroke="hsl(0.0,100%,35%)" stroke-width="0.00412"></path>
<path d="M1.114 0.840 Q0.835 0.760 0.615 0.878" stroke="hsl(0.0,100%,35%)" stroke-width="0.00550"></path>
<path d="M1.114 0.840 Q0.768 0.567 0.158 0.676" stroke="hsl(0.0,100%,35%)" stroke-width="0.00118"></path>
<path d="M1.114 0.840 Q1.498 0.552 1.019 0.301" stroke="hsl(0.0,100%,35%)" stroke-width="0.00236"></path>
<path d="M1.114 0.840 Q1.151 0.429 0.356 0.321" stroke="hsl(0.0,100%,35%)" stroke-width="0.00098"></path>
<path d="M1.114 0.840 Q1.021 0.450 0.238 0.410" stroke="hsl(0.0,100%,35%)" stroke-width="0.00177"></path>
<path d="M1.114 0.840 Q1.772 0.583 1.413 0.205" stroke="hsl(0.0,100%,35%)" stroke-width="0.00020"></path>
<path d="M1.114 0.840 Q1.271 0.908 1.438 0.846" stroke="hsl(0.0,100%,35%)" stroke-width="0.00118"></path>
<path d="M1.114 0.840 Q0.974 0.788 0.841 0.844" stroke="hsl(0.0,100%,35%)" stroke-width="0.00039"></path>
<path d="M1.114 0.840 Q1.041 0.855 1.054 0.894" stroke="hsl(0.0,100%,35%)" stroke-width="0.00059"></path>
<path d="M1.114 0.840 Q1.790 0.497 1.267 0.091" stroke="hsl(0.0,100%,35%)" stroke-width="0.00059"></path>
<path d="M1.114 0.840 Q1.154 0.365 0.235 0.241" stroke="hsl(0.0,100%,35%)" stroke-width="0.00059"></path>
<path d="M1.114 0.840 Q0.962 0.804 0.858 0.870" stroke="hsl(0.0,100%,35%)" stroke-width="0.00020"></path>
<path d="M1.114 0.840 Q1.314 0.622 0.933 0.477" stroke="hsl(0.0,100%,35%)" stroke-width="0.00020"></path>
<path d="M1.313 0.956 Q1.464 0.927 1.438 0.846" stroke="hsl(0.0,100%,35%)" stroke-width="0.00255"></path>
<path d="M1.313 0.956 Q1.690 0.570 1.019 0.301" stroke="hsl(0.0,100%,35%)" stroke-width="0.00177"></path>
<path d="M1.313 0.956 Q1.868 0.461 1.023 0.081" stroke="hsl(0.0,100%,35%)" stroke-width="0.00216"></path>
<path d="M1.313 0.956 Q1.306 0.859 1.114 0.840" stroke="hsl(0.0,100%,35%)" stroke-width="0.00570"></path>
<path d="M1.313 0.956 Q1.730 0.477 0.885 0.168" stroke="hsl(0.0,100%,35%)" stroke-width="0.01551"></path>
<path d="M1.313 0.956 Q1.515 1.048 1.737 0.969" stroke="hsl(0.0,100%,35%)" stroke-width="0.00334"></path>
<path d="M1.313 0.956 Q1.189 0.739 0.737 0.752" stroke="hsl(0.0,100%,35%)" stroke-width="0.00020"></path>
<path d="M1.313 0.956 Q1.529 0.333 0.359 0.090" stroke="hsl(0.0,100%,35%)" stroke-width="0.00137"></path>
<path d="M1.313 0.956 Q1.717 0.774 1.449 0.536" stroke="hsl(0.0,100%,35%)" stroke-width="0.00020"></path>
<path d="M1.313 0.956 Q1.027 0.778 0.615 0.878" stroke="hsl(0.0,100%,35%)" stroke-width="0.00020"></path>
<path d="M1.313 0.956 Q1.393 0.598 0.711 0.480" stroke="hsl(0.0,100%,35%)" stroke-width="0.00020"></path>
<path d="M1.313 0.956 Q1.213 0.468 0.238 0.410" stroke="hsl(0.0,100%,35%)" stroke-width="0.00020"></path>
<path d="M1.313 0.956 Q1.453 0.814 1.206 0.715" stroke="hsl(0.0,100%,35%)" stroke-width="0.00020"></path>
<path d="M1.313 0.956 Q0.960 0.585 0.158 0.676" stroke="hsl(0.0,100%,35%)" stroke-width="0.00118"></path>
<path d="M1.313 0.956 Q1.706 0.656 1.207 0.398" stroke="hsl(0.0,100%,35%)" stroke-width="0.00020"></path>
<path d="M1.313 0.956 Q1.529 0.764 1.201 0.616" stroke="hsl(0.0,100%,35%)" stroke-width="0.00039"></path>
<path d="M1.313 0.956 Q1.964 0.601 1.413 0.205" stroke="hsl(0.0,100%,35%)" stroke-width="0.00020"></path>
<path d="M0.885 0.168 Q0.862 0.348 1.207 0.398" stroke="hsl(180.0,100%,35%)" stroke-width="0.00275"></path>
<path d="M0.885 0.168 Q0.846 0.262 1.019 0.301" stroke="hsl(180.0,100%,35%)" stroke-width="0.00216"></path>
<path d="M0.885 0.168 Q1.024 0.152 1.023 0.081" stroke="hsl(180.0,100%,35%)" stroke-width="0.01139"></path>
<path d="M0.885 0.168 Q0.462 0.550 1.114 0.840" stroke="hsl(180.0,100%,35%)" stroke-width="0.00668"></path>
<path d="M0.885 0.168 Q0.685 0.455 1.201 0.616" stroke="hsl(180.0,100%,35%)" stroke-width="0.00452"></path>
<path d="M0.885 0.168 Q0.873 0.465 1.449 0.536" stroke="hsl(180.0,100%,35%)" stroke-width="0.00353"></path>
<path d="M0.885 0.168 Q0.469 0.648 1.313 0.956" stroke="hsl(180.0,100%,35%)" stroke-width="0.00511"></path>
<path d="M0.885 0.168 Q0.116 0.277 0.158 0.676" stroke="hsl(180.0,100%,35%)" stroke-width="0.00039"></path>
<path d="M0.885 0.168 Q0.609 0.506 1.206 0.715" stroke="hsl(180.0,100%,35%)" stroke-width="0.00039"></path>
<path d="M0.885 0.168 Q0.685 0.024 0.359 0.090" stroke="hsl(180.0,100%,35%)" stroke-width="0.00039"></path>
<path d="M0.885 0.168 Q0.345 0.430 0.737 0.752" stroke="hsl(180.0,100%,35%)" stroke-width="0.00039"></path>
<path d="M0.885 0.168 Q0.549 0.289 0.711 0.480" stroke="hsl(180.0,100%,35%)" stroke-width="0.00020"></path>
<path d="M0.885 0.168 Q0.183 0.469 0.615 0.878" stroke="hsl(180.0,100%,35%)" stroke-width="0.00255"></path>
<path d="M0.885 0.168 Q0.499 0.139 0.356 0.321" stroke="hsl(180.0,100%,35%)" stroke-width="0.00020"></path>
<path d="M0.885 0.168 Q0.671 0.739 1.737 0.969" stroke="hsl(180.0,100%,35%)" stroke-width="0.00020"></path>
<path d="M0.885 0.168 Q0.570 0.374 0.903 0.573" stroke="hsl(180.0,100%,35%)" stroke-width="0.00059"></path>
<path d="M0.885 0.168 Q0.279 0.281 0.366 0.602" stroke="hsl(180.0,100%,35%)" stroke-width="0.00020"></path>
<path d="M0.238 0.410 Q0.369 0.389 0.356 0.321" stroke="hsl(180.0,100%,35%)" stroke-width="0.00118"></path>
<path d="M0.238 0.410 Q0.052 0.719 0.615 0.878" stroke="hsl(180.0,100%,35%)" stroke-width="0.00039"></path>
<path d="M0.238 0.410 Q0.755 0.418 0.885 0.168" stroke="hsl(180.0,100%,35%)" stroke-width="0.00059"></path>
<path d="M0.238 0.410 Q0.419 0.539 0.711 0.480" stroke="hsl(180.0,100%,35%)" stroke-width="0.00020"></path>
<path d="M0.238 0.410 Q0.338 0.898 1.313 0.956" stroke="hsl(180.0,100%,35%)" stroke-width="0.00059"></path>
<path d="M0.238 0.410 Q0.894 0.402 1.023 0.081" stroke="hsl(180.0,100%,35%)" stroke-width="0.00079"></path>
<path d="M0.238 0.410 Q0.555 0.705 1.201 0.616" stroke="hsl(180.0,100%,35%)" stroke-width="0.00059"></path>
<path d="M0.238 0.410 Q0.471 0.371 0.447 0.249" stroke="hsl(180.0,100%,35%)" stroke-width="0.00059"></path>
<path d="M0.238 0.410 Q0.332 0.800 1.114 0.840" stroke="hsl(180.0,100%,35%)" stroke-width="0.00039"></path>
<path d="M0.238 0.410 Q0.743 0.715 1.449 0.536" stroke="hsl(180.0,100%,35%)" stroke-width="0.00020"></path>
<path d="M0.238 0.410 Q0.732 0.598 1.207 0.398" stroke="hsl(180.0,100%,35%)" stroke-width="0.00020"></path>
<path d="M1.023 0.081 Q0.181 0.398 0.615 0.878" stroke="hsl(180.0,100%,35%)" stroke-width="0.00648"></path>
<path d="M1.023 0.081 Q0.884 0.097 0.885 0.168" stroke="hsl(180.0,100%,35%)" stroke-width="0.04988"></path>
<path d="M1.023 0.081 Q0.861 0.277 1.207 0.398" stroke="hsl(180.0,100%,35%)" stroke-width="0.00511"></path>
<path d="M1.023 0.081 Q0.461 0.479 1.114 0.840" stroke="hsl(180.0,100%,35%)" stroke-width="0.01080"></path>
<path d="M1.023 0.081 Q0.845 0.190 1.019 0.301" stroke="hsl(180.0,100%,35%)" stroke-width="0.00353"></path>
<path d="M1.023 0.081 Q0.684 0.384 1.201 0.616" stroke="hsl(180.0,100%,35%)" stroke-width="0.01296"></path>
<path d="M1.023 0.081 Q0.872 0.394 1.449 0.536" stroke="hsl(180.0,100%,35%)" stroke-width="0.00412"></path>
<path d="M1.023 0.081 Q1.137 0.135 1.267 0.091" stroke="hsl(180.0,100%,35%)" stroke-width="0.01218"></path>
<path d="M1.023 0.081 Q0.467 0.577 1.313 0.956" stroke="hsl(180.0,100%,35%)" stroke-width="0.00137"></path>
<path d="M1.023 0.081 Q0.683 -0.047 0.359 0.090" stroke="hsl(180.0,100%,35%)" stroke-width="0.00137"></path>
<path d="M1.023 0.081 Q0.569 0.303 0.903 0.573" stroke="hsl(180.0,100%,35%)" stroke-width="0.00550"></path>
<path d="M1.023 0.081 Q0.343 0.359 0.737 0.752" stroke="hsl(180.0,100%,35%)" stroke-width="0.00648"></path>
<path d="M1.023 0.081 Q0.811 0.012 0.631 0.100" stroke="hsl(180.0,100%,35%)" stroke-width="0.00039"></path>
<path d="M1.023 0.081 Q0.498 0.067 0.356 0.321" stroke="hsl(180.0,100%,35%)" stroke-width="0.00079"></path>
<path d="M1.023 0.081 Q0.277 0.210 0.366 0.602" stroke="hsl(180.0,100%,35%)" stroke-width="0.00020"></path>
<path d="M1.023 0.081 Q0.367 0.088 0.238 0.410" stroke="hsl(180.0,100%,35%)" stroke-width="0.00059"></path>
<path d="M1.023 0.081 Q0.600 0.050 0.447 0.249" stroke="hsl(180.0,100%,35%)" stroke-width="0.00020"></path>
<path d="M1.023 0.081 Q1.119 0.221 1.413 0.205" stroke="hsl(180.0,100%,35%)" stroke-width="0.00059"></path>
<path d="M1.023 0.081 Q0.388 0.494 1.054 0.894" stroke="hsl(180.0,100%,35%)" stroke-width="0.00098"></path>
<path d="M1.023 0.081 Q0.115 0.205 0.158 0.676" stroke="hsl(180.0,100%,35%)" stroke-width="0.00039"></path>
<path d="M1.023 0.081 Q0.607 0.434 1.206 0.715" stroke="hsl(180.0,100%,35%)" stroke-width="0.00020"></path>
<path d="M1.267 0.091 Q0.699 0.259 0.903 0.573" stroke="hsl(180.0,100%,35%)" stroke-width="0.00137"></path>
<path d="M1.267 0.091 Q1.002 0.350 1.449 0.536" stroke="hsl(180.0,100%,35%)" stroke-width="0.00687"></path>
<path d="M1.267 0.091 Q0.814 0.340 1.201 0.616" stroke="hsl(180.0,100%,35%)" stroke-width="0.00786"></path>
<path d="M1.267 0.091 Q0.474 0.316 0.737 0.752" stroke="hsl(180.0,100%,35%)" stroke-width="0.00098"></path>
<path d="M1.267 0.091 Q1.015 0.053 0.885 0.168" stroke="hsl(180.0,100%,35%)" stroke-width="0.00177"></path>
<path d="M1.267 0.091 Q0.591 0.435 1.114 0.840" stroke="hsl(180.0,100%,35%)" stroke-width="0.00157"></path>
<path d="M1.267 0.091 Q1.153 0.037 1.023 0.081" stroke="hsl(180.0,100%,35%)" stroke-width="0.00353"></path>
<path d="M1.267 0.091 Q0.312 0.354 0.615 0.878" stroke="hsl(180.0,100%,35%)" stroke-width="0.00079"></path>
<path d="M1.267 0.091 Q0.991 0.233 1.207 0.398" stroke="hsl(180.0,100%,35%)" stroke-width="0.00020"></path>
<path d="M1.267 0.091 Q1.134 0.106 1.133 0.175" stroke="hsl(180.0,100%,35%)" stroke-width="0.00020"></path>
<path d="M0.903 0.573 Q1.018 0.654 1.201 0.616" stroke="hsl(180.0,100%,35%)" stroke-width="0.00609"></path>
<path d="M0.903 0.573 Q0.515 0.668 0.615 0.878" stroke="hsl(180.0,100%,35%)" stroke-width="0.00118"></path>
<path d="M0.903 0.573 Q1.218 0.367 0.885 0.168" stroke="hsl(180.0,100%,35%)" stroke-width="0.00079"></path>
<path d="M0.903 0.573 Q1.356 0.351 1.023 0.081" stroke="hsl(180.0,100%,35%)" stroke-width="0.00196"></path>
<path d="M0.903 0.573 Q1.205 0.664 1.449 0.536" stroke="hsl(180.0,100%,35%)" stroke-width="0.00157"></path>
<path d="M0.903 0.573 Q1.194 0.547 1.207 0.398" stroke="hsl(180.0,100%,35%)" stroke-width="0.00118"></path>
<path d="M0.903 0.573 Q1.470 0.405 1.267 0.091" stroke="hsl(180.0,100%,35%)" stroke-width="0.00020"></path>
<path d="M0.903 0.573 Q0.794 0.749 1.114 0.840" stroke="hsl(180.0,100%,35%)" stroke-width="0.00020"></path>
<path d="M0.903 0.573 Q0.722 0.764 1.054 0.894" stroke="hsl(180.0,100%,35%)" stroke-width="0.00020"></path>
<path d="M1.449 0.536 Q1.261 0.526 1.201 0.616" stroke="hsl(180.0,100%,35%)" stroke-width="0.01551"></path>
<path d="M1.449 0.536 Q0.759 0.540 0.615 0.878" stroke="hsl(180.0,100%,35%)" stroke-width="0.00353"></path>
<path d="M1.449 0.536 Q1.600 0.223 1.023 0.081" stroke="hsl(180.0,100%,35%)" stroke-width="0.00275"></path>
<path d="M1.449 0.536 Q1.438 0.419 1.207 0.398" stroke="hsl(180.0,100%,35%)" stroke-width="0.00825"></path>
<path d="M1.449 0.536 Q1.045 0.719 1.313 0.956" stroke="hsl(180.0,100%,35%)" stroke-width="0.00177"></path>
<path d="M1.449 0.536 Q0.921 0.502 0.737 0.752" stroke="hsl(180.0,100%,35%)" stroke-width="0.00393"></path>
<path d="M1.449 0.536 Q1.038 0.621 1.114 0.840" stroke="hsl(180.0,100%,35%)" stroke-width="0.00177"></path>
<path d="M1.449 0.536 Q1.714 0.277 1.267 0.091" stroke="hsl(180.0,100%,35%)" stroke-width="0.00648"></path>
<path d="M1.449 0.536 Q1.146 0.445 0.903 0.573" stroke="hsl(180.0,100%,35%)" stroke-width="0.00314"></path>
<path d="M1.449 0.536 Q1.462 0.240 0.885 0.168" stroke="hsl(180.0,100%,35%)" stroke-width="0.00766"></path>
<path d="M1.449 0.536 Q1.422 0.333 1.019 0.301" stroke="hsl(180.0,100%,35%)" stroke-width="0.00079"></path>
<path d="M1.449 0.536 Q1.247 0.810 1.737 0.969" stroke="hsl(180.0,100%,35%)" stroke-width="0.00039"></path>
<path d="M1.449 0.536 Q0.945 0.231 0.238 0.410" stroke="hsl(180.0,100%,35%)" stroke-width="0.00020"></path>
<path d="M1.201 0.616 Q1.378 0.508 1.207 0.398" stroke="hsl(180.0,100%,35%)" stroke-width="0.02298"></path>
<path d="M1.201 0.616 Q1.389 0.626 1.449 0.536" stroke="hsl(180.0,100%,35%)" stroke-width="0.00707"></path>
<path d="M1.201 0.616 Q0.978 0.711 1.114 0.840" stroke="hsl(180.0,100%,35%)" stroke-width="0.00098"></path>
<path d="M1.201 0.616 Q1.086 0.535 0.903 0.573" stroke="hsl(180.0,100%,35%)" stroke-width="0.00825"></path>
<path d="M1.201 0.616 Q1.654 0.367 1.267 0.091" stroke="hsl(180.0,100%,35%)" stroke-width="0.00275"></path>
<path d="M1.201 0.616 Q1.401 0.329 0.885 0.168" stroke="hsl(180.0,100%,35%)" stroke-width="0.01276"></path>
<path d="M1.201 0.616 Q1.540 0.313 1.023 0.081" stroke="hsl(180.0,100%,35%)" stroke-width="0.00295"></path>
<path d="M1.201 0.616 Q0.984 0.809 1.313 0.956" stroke="hsl(180.0,100%,35%)" stroke-width="0.00039"></path>
<path d="M1.201 0.616 Q0.698 0.630 0.615 0.878" stroke="hsl(180.0,100%,35%)" stroke-width="0.00550"></path>
<path d="M1.201 0.616 Q0.860 0.591 0.737 0.752" stroke="hsl(180.0,100%,35%)" stroke-width="0.00216"></path>
<path d="M1.201 0.616 Q1.362 0.422 1.019 0.301" stroke="hsl(180.0,100%,35%)" stroke-width="0.00118"></path>
<path d="M1.201 0.616 Q1.200 0.185 0.359 0.090" stroke="hsl(180.0,100%,35%)" stroke-width="0.00020"></path>
<path d="M1.201 0.616 Q0.884 0.320 0.238 0.410" stroke="hsl(180.0,100%,35%)" stroke-width="0.00020"></path>
<path d="M0.737 0.752 Q1.078 0.776 1.201 0.616" stroke="hsl(180.0,100%,35%)" stroke-width="0.00098"></path>
<path d="M0.737 0.752 Q0.575 0.790 0.615 0.878" stroke="hsl(180.0,100%,35%)" stroke-width="0.00570"></path>
<path d="M0.737 0.752 Q0.855 0.871 1.114 0.840" stroke="hsl(180.0,100%,35%)" stroke-width="0.00079"></path>
<path d="M0.737 0.752 Q1.417 0.473 1.023 0.081" stroke="hsl(180.0,100%,35%)" stroke-width="0.00020"></path>
<path d="M0.737 0.752 Q1.255 0.669 1.207 0.398" stroke="hsl(180.0,100%,35%)" stroke-width="0.00098"></path>
<path d="M0.737 0.752 Q1.266 0.786 1.449 0.536" stroke="hsl(180.0,100%,35%)" stroke-width="0.00334"></path>
<path d="M0.737 0.752 Q1.278 0.490 0.885 0.168" stroke="hsl(180.0,100%,35%)" stroke-width="0.00020"></path>
<path d="M0.737 0.752 Q0.963 0.695 0.903 0.573" stroke="hsl(180.0,100%,35%)" stroke-width="0.00039"></path>
<path d="M0.737 0.752 Q0.892 0.460 0.356 0.321" stroke="hsl(180.0,100%,35%)" stroke-width="0.00039"></path>
<path d="M0.737 0.752 Q1.239 0.583 1.019 0.301" stroke="hsl(180.0,100%,35%)" stroke-width="0.00020"></path>
<path d="M0.737 0.752 Q1.205 0.405 0.631 0.100" stroke="hsl(180.0,100%,35%)" stroke-width="0.00020"></path>
<path d="M1.207 0.398 Q1.218 0.516 1.449 0.536" stroke="hsl(180.0,100%,35%)" stroke-width="0.01610"></path>
<path d="M1.207 0.398 Q1.369 0.203 1.023 0.081" stroke="hsl(180.0,100%,35%)" stroke-width="0.00177"></path>
<path d="M1.207 0.398 Q0.527 0.520 0.615 0.878" stroke="hsl(180.0,100%,35%)" stroke-width="0.00550"></path>
<path d="M1.207 0.398 Q1.030 0.506 1.201 0.616" stroke="hsl(180.0,100%,35%)" stroke-width="0.01119"></path>
<path d="M1.207 0.398 Q1.030 0.075 0.359 0.090" stroke="hsl(180.0,100%,35%)" stroke-width="0.00059"></path>
<path d="M1.207 0.398 Q1.230 0.219 0.885 0.168" stroke="hsl(180.0,100%,35%)" stroke-width="0.00216"></path>
<path d="M1.207 0.398 Q0.690 0.481 0.737 0.752" stroke="hsl(180.0,100%,35%)" stroke-width="0.00746"></path>
<path d="M1.207 0.398 Q0.807 0.601 1.114 0.840" stroke="hsl(180.0,100%,35%)" stroke-width="0.00118"></path>
<path d="M1.207 0.398 Q0.714 0.210 0.238 0.410" stroke="hsl(180.0,100%,35%)" stroke-width="0.00079"></path>
<path d="M1.207 0.398 Q0.894 0.340 0.711 0.480" stroke="hsl(180.0,100%,35%)" stroke-width="0.00020"></path>
<path d="M1.207 0.398 Q0.813 0.699 1.313 0.956" stroke="hsl(180.0,100%,35%)" stroke-width="0.00020"></path>
<path d="M1.133 0.175 Q1.014 0.122 0.885 0.168" stroke="hsl(180.0,100%,35%)" stroke-width="0.00491"></path>
<path d="M1.133 0.175 Q0.597 0.601 1.313 0.956" stroke="hsl(180.0,100%,35%)" stroke-width="0.00039"></path>
<path d="M1.133 0.175 Q0.498 0.113 0.238 0.410" stroke="hsl(180.0,100%,35%)" stroke-width="0.00079"></path>
<path d="M0.587 0.603 Q0.381 0.746 0.615 0.878" stroke="hsl(180.0,100%,35%)" stroke-width="0.00098"></path>
<path d="M0.587 0.603 Q1.060 0.625 1.207 0.398" stroke="hsl(180.0,100%,35%)" stroke-width="0.00020"></path>
<path d="M0.587 0.603 Q0.884 0.732 1.201 0.616" stroke="hsl(180.0,100%,35%)" stroke-width="0.00039"></path>
<path d="M0.587 0.603 Q0.543 0.707 0.737 0.752" stroke="hsl(180.0,100%,35%)" stroke-width="0.00039"></path>
<path d="M0.158 0.676 Q0.504 0.949 1.114 0.840" stroke="hsl(0.0,100%,35%)" stroke-width="0.00059"></path>
<path d="M0.158 0.676 Q0.915 0.864 1.449 0.536" stroke="hsl(0.0,100%,35%)" stroke-width="0.00039"></path>
<path d="M0.158 0.676 Q0.321 0.680 0.366 0.602" stroke="hsl(0.0,100%,35%)" stroke-width="0.00137"></path>
<path d="M0.158 0.676 Q0.651 0.905 1.206 0.715" stroke="hsl(0.0,100%,35%)" stroke-width="0.00020"></path>
<path d="M0.158 0.676 Q0.511 1.047 1.313 0.956" stroke="hsl(0.0,100%,35%)" stroke-width="0.00020"></path>
<path d="M0.158 0.676 Q1.066 0.551 1.023 0.081" stroke="hsl(0.0,100%,35%)" stroke-width="0.00020"></path>
<path d="M0.158 0.676 Q0.225 0.868 0.615 0.878" stroke="hsl(0.0,100%,35%)" stroke-width="0.00020"></path>
<path d="M0.366 0.602 Q0.950 0.669 1.207 0.398" stroke="hsl(0.0,100%,35%)" stroke-width="0.00020"></path>
<path d="M0.366 0.602 Q0.549 0.871 1.114 0.840" stroke="hsl(0.0,100%,35%)" stroke-width="0.00020"></path>
<path d="M0.366 0.602 Q1.208 0.613 1.413 0.205" stroke="hsl(0.0,100%,35%)" stroke-width="0.00020"></path>
<path d="M0.366 0.602 Q0.696 0.826 1.206 0.715" stroke="hsl(0.0,100%,35%)" stroke-width="0.00020"></path>
<path d="M1.206 0.715 Q1.059 0.759 1.114 0.840" stroke="hsl(0.0,100%,35%)" stroke-width="0.01748"></path>
<path d="M1.206 0.715 Q1.217 0.827 1.438 0.846" stroke="hsl(0.0,100%,35%)" stroke-width="0.00020"></path>
<path d="M1.206 0.715 Q1.483 0.377 0.885 0.168" stroke="hsl(0.0,100%,35%)" stroke-width="0.00098"></path>
<path d="M1.206 0.715 Q1.066 0.857 1.313 0.956" stroke="hsl(0.0,100%,35%)" stroke-width="0.00020"></path>
<path d="M1.206 0.715 Q1.621 0.361 1.023 0.081" stroke="hsl(0.0,100%,35%)" stroke-width="0.00196"></path>
<path d="M1.206 0.715 Q0.713 0.486 0.158 0.676" stroke="hsl(0.0,100%,35%)" stroke-width="0.00020"></path>
<path d="M1.206 0.715 Q1.470 0.674 1.449 0.536" stroke="hsl(0.0,100%,35%)" stroke-width="0.00020"></path>
<path d="M1.206 0.715 Q0.987 0.774 1.054 0.894" stroke="hsl(0.0,100%,35%)" stroke-width="0.00020"></path>
<path d="M1.206 0.715 Q1.167 0.583 0.903 0.573" stroke="hsl(0.0,100%,35%)" stroke-width="0.00020"></path>
<path d="M1.019 0.301 Q1.197 0.192 1.023 0.081" stroke="hsl(180.0,100%,35%)" stroke-width="0.00295"></path>
<path d="M1.019 0.301 Q1.059 0.208 0.885 0.168" stroke="hsl(180.0,100%,35%)" stroke-width="0.01119"></path>
<path d="M1.019 0.301 Q1.046 0.505 1.449 0.536" stroke="hsl(180.0,100%,35%)" stroke-width="0.00177"></path>
<path d="M1.019 0.301 Q0.642 0.688 1.313 0.956" stroke="hsl(180.0,100%,35%)" stroke-width="0.00039"></path>
<path d="M1.019 0.301 Q0.635 0.590 1.114 0.840" stroke="hsl(180.0,100%,35%)" stroke-width="0.00137"></path>
<path d="M1.019 0.301 Q1.035 0.387 1.207 0.398" stroke="hsl(180.0,100%,35%)" stroke-width="0.00020"></path>
<path d="M1.019 0.301 Q0.859 0.495 1.201 0.616" stroke="hsl(180.0,100%,35%)" stroke-width="0.00020"></path>
<path d="M0.359 0.090 Q0.136 0.616 1.114 0.840" stroke="hsl(0.0,100%,35%)" stroke-width="0.00295"></path>
<path d="M0.359 0.090 Q0.536 0.414 1.207 0.398" stroke="hsl(0.0,100%,35%)" stroke-width="0.00039"></path>
<path d="M0.359 0.090 Q0.560 0.235 0.885 0.168" stroke="hsl(0.0,100%,35%)" stroke-width="0.00137"></path>
<path d="M0.359 0.090 Q0.177 0.141 0.235 0.241" stroke="hsl(0.0,100%,35%)" stroke-width="0.00079"></path>
<path d="M0.359 0.090 Q0.487 0.149 0.631 0.100" stroke="hsl(0.0,100%,35%)" stroke-width="0.00236"></path>
<path d="M0.359 0.090 Q-0.163 0.278 0.089 0.575" stroke="hsl(0.0,100%,35%)" stroke-width="0.00039"></path>
<path d="M0.359 0.090 Q0.143 0.714 1.313 0.956" stroke="hsl(0.0,100%,35%)" stroke-width="0.00177"></path>
<path d="M0.359 0.090 Q0.698 0.218 1.023 0.081" stroke="hsl(0.0,100%,35%)" stroke-width="0.00020"></path>
<path d="M0.359 0.090 Q0.547 0.531 1.449 0.536" stroke="hsl(0.0,100%,35%)" stroke-width="0.00020"></path>
<path d="M0.359 0.090 Q0.359 0.521 1.201 0.616" stroke="hsl(0.0,100%,35%)" stroke-width="0.00020"></path>
<path d="M0.356 0.321 Q0.040 0.651 0.615 0.878" stroke="hsl(180.0,100%,35%)" stroke-width="0.00098"></path>
<path d="M0.356 0.321 Q0.202 0.612 0.737 0.752" stroke="hsl(180.0,100%,35%)" stroke-width="0.00079"></path>
<path d="M0.356 0.321 Q0.226 0.342 0.238 0.410" stroke="hsl(180.0,100%,35%)" stroke-width="0.00255"></path>
<path d="M0.356 0.321 Q0.719 0.530 1.207 0.398" stroke="hsl(180.0,100%,35%)" stroke-width="0.00098"></path>
<path d="M0.356 0.321 Q0.319 0.732 1.114 0.840" stroke="hsl(180.0,100%,35%)" stroke-width="0.00020"></path>
<path d="M0.356 0.321 Q0.881 0.334 1.023 0.081" stroke="hsl(180.0,100%,35%)" stroke-width="0.00098"></path>
<path d="M0.356 0.321 Q0.459 0.303 0.447 0.249" stroke="hsl(180.0,100%,35%)" stroke-width="0.00020"></path>
<path d="M0.356 0.321 Q0.743 0.350 0.885 0.168" stroke="hsl(180.0,100%,35%)" stroke-width="0.00039"></path>
<path d="M0.356 0.321 Q0.730 0.647 1.449 0.536" stroke="hsl(180.0,100%,35%)" stroke-width="0.00020"></path>
<path d="M1.737 0.969 Q1.535 0.878 1.313 0.956" stroke="hsl(0.0,100%,35%)" stroke-width="0.00373"></path>
<path d="M1.737 0.969 Q1.528 0.780 1.114 0.840" stroke="hsl(0.0,100%,35%)" stroke-width="0.00118"></path>
<path d="M1.737 0.969 Q1.686 0.848 1.438 0.846" stroke="hsl(0.0,100%,35%)" stroke-width="0.00039"></path>
<path d="M1.737 0.969 Q1.751 0.254 0.359 0.090" stroke="hsl(0.0,100%,35%)" stroke-width="0.00039"></path>
<path d="M1.737 0.969 Q1.952 0.398 0.885 0.168" stroke="hsl(0.0,100%,35%)" stroke-width="0.00039"></path>
<path d="M1.737 0.969 Q1.411 0.660 0.737 0.752" stroke="hsl(0.0,100%,35%)" stroke-width="0.00020"></path>
<path d="M0.614 0.975 Q0.693 0.927 0.615 0.878" stroke="hsl(180.0,100%,35%)" stroke-width="0.00353"></path>
<path d="M0.614 0.975 Q1.372 0.805 1.207 0.398" stroke="hsl(180.0,100%,35%)" stroke-width="0.00098"></path>
<path d="M0.614 0.975 Q1.383 0.923 1.449 0.536" stroke="hsl(180.0,100%,35%)" stroke-width="0.00079"></path>
<path d="M0.614 0.975 Q1.080 0.832 0.903 0.573" stroke="hsl(180.0,100%,35%)" stroke-width="0.00020"></path>
<path d="M0.614 0.975 Q1.534 0.610 1.023 0.081" stroke="hsl(180.0,100%,35%)" stroke-width="0.00020"></path>
<path d="M0.614 0.975 Q1.395 0.626 0.885 0.168" stroke="hsl(180.0,100%,35%)" stroke-width="0.00020"></path>
<path d="M0.614 0.975 Q1.195 0.913 1.201 0.616" stroke="hsl(180.0,100%,35%)" stroke-width="0.00020"></path>
<path d="M1.438 0.846 Q1.281 0.778 1.114 0.840" stroke="hsl(0.0,100%,35%)" stroke-width="0.00314"></path>
<path d="M1.438 0.846 Q1.287 0.876 1.313 0.956" stroke="hsl(0.0,100%,35%)" stroke-width="0.01002"></path>
<path d="M1.438 0.846 Q1.489 0.967 1.737 0.969" stroke="hsl(0.0,100%,35%)" stroke-width="0.00039"></path>
<path d="M1.438 0.846 Q1.704 0.397 0.885 0.168" stroke="hsl(0.0,100%,35%)" stroke-width="0.00079"></path>
<path d="M1.438 0.846 Q1.188 0.388 0.238 0.410" stroke="hsl(0.0,100%,35%)" stroke-width="0.00020"></path>
<path d="M1.438 0.846 Q1.002 0.698 0.615 0.878" stroke="hsl(0.0,100%,35%)" stroke-width="0.00020"></path>
<path d="M1.438 0.846 Q1.504 0.252 0.359 0.090" stroke="hsl(0.0,100%,35%)" stroke-width="0.00020"></path>
<path d="M1.413 0.205 Q0.572 0.194 0.366 0.602" stroke="hsl(180.0,100%,35%)" stroke-width="0.00020"></path>
<path d="M1.413 0.205 Q1.178 0.081 0.885 0.168" stroke="hsl(180.0,100%,35%)" stroke-width="0.00020"></path>
<path d="M1.413 0.205 Q0.755 0.463 1.114 0.840" stroke="hsl(180.0,100%,35%)" stroke-width="0.00020"></path>
<path d="M1.413 0.205 Q0.762 0.561 1.313 0.956" stroke="hsl(180.0,100%,35%)" stroke-width="0.00020"></path>
<path d="M1.413 0.205 Q1.317 0.065 1.023 0.081" stroke="hsl(180.0,100%,35%)" stroke-width="0.00039"></path>
<path d="M1.413 0.205 Q0.476 0.382 0.615 0.878" stroke="hsl(180.0,100%,35%)" stroke-width="0.00059"></path>
<path d="M0.235 0.241 Q0.194 0.716 1.114 0.840" stroke="hsl(0.0,100%,35%)" stroke-width="0.00020"></path>
<path d="M0.235 0.241 Q0.417 0.190 0.359 0.090" stroke="hsl(0.0,100%,35%)" stroke-width="0.00039"></path>
<path d="M0.235 0.241 Q0.545 0.250 0.631 0.100" stroke="hsl(0.0,100%,35%)" stroke-width="0.00020"></path>
<path d="M0.631 0.100 Q0.280 0.567 1.114 0.840" stroke="hsl(0.0,100%,35%)" stroke-width="0.00098"></path>
<path d="M0.631 0.100 Q0.503 0.041 0.359 0.090" stroke="hsl(0.0,100%,35%)" stroke-width="0.00295"></path>
<path d="M0.631 0.100 Q0.503 0.472 1.201 0.616" stroke="hsl(0.0,100%,35%)" stroke-width="0.00020"></path>
<path d="M0.631 0.100 Q0.163 0.447 0.737 0.752" stroke="hsl(0.0,100%,35%)" stroke-width="0.00020"></path>
<path d="M0.631 0.100 Q0.691 0.482 1.449 0.536" stroke="hsl(0.0,100%,35%)" stroke-width="0.00020"></path>
<path d="M0.631 0.100 Q0.320 0.091 0.235 0.241" stroke="hsl(0.0,100%,35%)" stroke-width="0.00020"></path>
<path d="M1.054 0.894 Q1.127 0.879 1.114 0.840" stroke="hsl(0.0,100%,35%)" stroke-width="0.00393"></path>
<path d="M1.054 0.894 Q1.273 0.835 1.206 0.715" stroke="hsl(0.0,100%,35%)" stroke-width="0.00039"></path>
<path d="M1.054 0.894 Q1.785 0.621 1.413 0.205" stroke="hsl(0.0,100%,35%)" stroke-width="0.00020"></path>
<path d="M1.054 0.894 Q1.538 0.794 1.449 0.536" stroke="hsl(0.0,100%,35%)" stroke-width="0.00020"></path>
<path d="M1.679 0.838 Q1.818 0.344 0.885 0.168" stroke="hsl(0.0,100%,35%)" stroke-width="0.00020"></path>
<path d="M1.679 0.838 Q1.401 0.824 1.313 0.956" stroke="hsl(0.0,100%,35%)" stroke-width="0.00039"></path>
<path d="M1.679 0.838 Q1.617 0.631 1.201 0.616" stroke="hsl(0.0,100%,35%)" stroke-width="0.00020"></path>
<path d="M0.971 0.317 Q1.186 0.209 1.023 0.081" stroke="hsl(180.0,100%,35%)" stroke-width="0.00020"></path>
<path d="M0.971 0.317 Q0.847 0.512 1.201 0.616" stroke="hsl(180.0,100%,35%)" stroke-width="0.00020"></path>
<path d="M0.971 0.317 Q1.047 0.225 0.885 0.168" stroke="hsl(180.0,100%,35%)" stroke-width="0.00039"></path>
<path d="M0.971 0.317 Q0.623 0.607 1.114 0.840" stroke="hsl(180.0,100%,35%)" stroke-width="0.00039"></path>
<path d="M0.089 0.575 Q0.184 0.520 0.097 0.462" stroke="hsl(0.0,100%,35%)" stroke-width="0.00393"></path>
<path d="M0.089 0.575 Q0.043 0.639 0.158 0.676" stroke="hsl(0.0,100%,35%)" stroke-width="0.00039"></path>
<path d="M0.089 0.575 Q0.389 0.912 1.114 0.840" stroke="hsl(0.0,100%,35%)" stroke-width="0.00020"></path>
<path d="M0.089 0.575 Q0.316 0.927 1.054 0.894" stroke="hsl(0.0,100%,35%)" stroke-width="0.00098"></path>
<path d="M0.089 0.575 Q0.789 0.710 1.207 0.398" stroke="hsl(0.0,100%,35%)" stroke-width="0.00020"></path>
<path d="M0.263 0.766 Q1.053 0.592 0.885 0.168" stroke="hsl(180.0,100%,35%)" stroke-width="0.00079"></path>
<path d="M0.263 0.766 Q0.350 0.893 0.615 0.878" stroke="hsl(180.0,100%,35%)" stroke-width="0.00059"></path>
<path d="M0.263 0.766 Q0.737 0.798 0.903 0.573" stroke="hsl(180.0,100%,35%)" stroke-width="0.00020"></path>
<path d="M0.263 0.766 Q0.852 0.879 1.201 0.616" stroke="hsl(180.0,100%,35%)" stroke-width="0.00039"></path>
<path d="M0.667 0.080 Q0.189 0.159 0.238 0.410" stroke="hsl(180.0,100%,35%)" stroke-width="0.00020"></path>
<path d="M0.667 0.080 Q0.705 0.168 0.885 0.168" stroke="hsl(180.0,100%,35%)" stroke-width="0.00020"></path>
<path d="M0.667 0.080 Q0.282 0.550 1.114 0.840" stroke="hsl(180.0,100%,35%)" stroke-width="0.00020"></path>
<path d="M0.933 0.477 Q0.956 0.600 1.201 0.616" stroke="hsl(180.0,100%,35%)" stroke-width="0.00157"></path>
<path d="M0.933 0.477 Q0.732 0.695 1.114 0.840" stroke="hsl(180.0,100%,35%)" stroke-width="0.00039"></path>
<path d="M0.933 0.477 Q0.841 0.519 0.903 0.573" stroke="hsl(180.0,100%,35%)" stroke-width="0.00079"></path>
<path d="M0.933 0.477 Q1.295 0.297 1.023 0.081" stroke="hsl(180.0,100%,35%)" stroke-width="0.00020"></path>
<path d="M0.497 0.195 Q0.713 0.259 0.885 0.168" stroke="hsl(180.0,100%,35%)" stroke-width="0.00059"></path>
<path d="M0.497 0.195 Q0.296 0.739 1.313 0.956" stroke="hsl(180.0,100%,35%)" stroke-width="0.00039"></path>
<path d="M0.497 0.195 Q0.512 0.115 0.359 0.090" stroke="hsl(180.0,100%,35%)" stroke-width="0.00020"></path>
<path d="M0.869 1.033 Q0.866 0.905 0.615 0.878" stroke="hsl(180.0,100%,35%)" stroke-width="0.00020"></path>
<path d="M0.869 1.033 Q1.569 0.604 0.885 0.168" stroke="hsl(180.0,100%,35%)" stroke-width="0.00039"></path>
<path d="M0.869 1.033 Q1.369 0.891 1.201 0.616" stroke="hsl(180.0,100%,35%)" stroke-width="0.00039"></path>
<path d="M0.869 1.033 Q1.146 0.986 1.114 0.840" stroke="hsl(180.0,100%,35%)" stroke-width="0.00020"></path>
<path d="M0.091 0.166 Q0.486 0.326 0.885 0.168" stroke="hsl(0.0,100%,35%)" stroke-width="0.00137"></path>
<path d="M0.091 0.166 Q0.069 0.806 1.313 0.956" stroke="hsl(0.0,100%,35%)" stroke-width="0.00216"></path>
<path d="M0.091 0.166 Q0.286 0.182 0.359 0.090" stroke="hsl(0.0,100%,35%)" stroke-width="0.00196"></path>
<path d="M0.091 0.166 Q0.463 0.506 1.207 0.398" stroke="hsl(0.0,100%,35%)" stroke-width="0.00020"></path>
<path d="M0.418 0.496 Q0.914 0.426 0.885 0.168" stroke="hsl(180.0,100%,35%)" stroke-width="0.00020"></path>
<path d="M0.418 0.496 Q0.397 0.417 0.238 0.410" stroke="hsl(180.0,100%,35%)" stroke-width="0.00098"></path>
<path d="M0.418 0.496 Q0.874 0.519 1.019 0.301" stroke="hsl(180.0,100%,35%)" stroke-width="0.00020"></path>
<path d="M1.081 0.486 Q1.037 0.575 1.201 0.616" stroke="hsl(180.0,100%,35%)" stroke-width="0.00255"></path>
<path d="M1.081 0.486 Q0.851 0.258 0.356 0.321" stroke="hsl(180.0,100%,35%)" stroke-width="0.00020"></path>
<path d="M1.081 0.486 Q1.197 0.381 1.019 0.301" stroke="hsl(180.0,100%,35%)" stroke-width="0.00020"></path>
<path d="M1.081 0.486 Q0.820 0.767 1.313 0.956" stroke="hsl(180.0,100%,35%)" stroke-width="0.00020"></path>
<path d="M1.081 0.486 Q0.534 0.589 0.615 0.878" stroke="hsl(180.0,100%,35%)" stroke-width="0.00216"></path>
<path d="M1.081 0.486 Q1.214 0.467 1.207 0.398" stroke="hsl(180.0,100%,35%)" stroke-width="0.00020"></path>
<path d="M1.081 0.486 Q1.237 0.288 0.885 0.168" stroke="hsl(180.0,100%,35%)" stroke-width="0.00039"></path>
<path d="M1.081 0.486 Q1.224 0.585 1.449 0.536" stroke="hsl(180.0,100%,35%)" stroke-width="0.00020"></path>
<path d="M0.684 0.255 Q0.854 0.252 0.885 0.168" stroke="hsl(180.0,100%,35%)" stroke-width="0.00098"></path>
<path d="M0.684 0.255 Q0.841 0.549 1.449 0.536" stroke="hsl(180.0,100%,35%)" stroke-width="0.00059"></path>
<path d="M0.684 0.255 Q0.814 0.345 1.019 0.301" stroke="hsl(180.0,100%,35%)" stroke-width="0.00020"></path>
<path d="M0.684 0.255 Q0.992 0.236 1.023 0.081" stroke="hsl(180.0,100%,35%)" stroke-width="0.00020"></path>
<path d="M0.684 0.255 Q0.654 0.539 1.201 0.616" stroke="hsl(180.0,100%,35%)" stroke-width="0.00039"></path>
<path d="M0.507 0.687 Q0.408 0.804 0.615 0.878" stroke="hsl(180.0,100%,35%)" stroke-width="0.00118"></path>
<path d="M0.507 0.687 Q1.099 0.800 1.449 0.536" stroke="hsl(180.0,100%,35%)" stroke-width="0.00059"></path>
<path d="M0.507 0.687 Q0.911 0.790 1.201 0.616" stroke="hsl(180.0,100%,35%)" stroke-width="0.00118"></path>
<path d="M0.507 0.687 Q1.111 0.503 0.885 0.168" stroke="hsl(180.0,100%,35%)" stroke-width="0.00020"></path>
<path d="M1.005 0.400 Q0.714 0.740 1.313 0.956" stroke="hsl(180.0,100%,35%)" stroke-width="0.00020"></path>
<path d="M1.005 0.400 Q0.931 0.547 1.201 0.616" stroke="hsl(180.0,100%,35%)" stroke-width="0.00039"></path>
<path d="M1.005 0.400 Q1.131 0.260 0.885 0.168" stroke="hsl(180.0,100%,35%)" stroke-width="0.00020"></path>
</g>
<text x="0.802" y="0.292" font-size="0.006770" fill="hsl(0.0,100%,20%)">aperez</text>
<text x="0.615" y="0.856" font-size="0.043874" fill="hsl(180.0,100%,20%)">egdaniel</text>
<text x="1.114" y="0.807" font-size="0.067742" fill="hsl(0.0,100%,20%)">kjlubick</text>
<text x="1.313" y="0.932" font-size="0.049864" fill="hsl(0.0,100%,20%)">bungeman</text>
<text x="0.885" y="0.132" font-size="0.072005" fill="hsl(180.0,100%,20%)">brianosman</text>
<text x="0.238" y="0.400" font-size="0.020450" fill="hsl(180.0,100%,20%)">scroggo</text>
<text x="1.023" y="0.046" font-size="0.069865" fill="hsl(180.0,100%,20%)">johnstiles</text>
<text x="1.267" y="0.073" font-size="0.037312" fill="hsl(180.0,100%,20%)">armansito</text>
<text x="0.903" y="0.557" font-size="0.031934" fill="hsl(180.0,100%,20%)">jamesgk</text>
<text x="1.449" y="0.508" font-size="0.056894" fill="hsl(180.0,100%,20%)">jvanverth</text>
<text x="1.201" y="0.583" font-size="0.064714" fill="hsl(180.0,100%,20%)">michaelludwig</text>
<text x="0.737" y="0.733" font-size="0.038072" fill="hsl(180.0,100%,20%)">nicolettep</text>
<text x="1.207" y="0.372" font-size="0.053091" fill="hsl(180.0,100%,20%)">robertphillips</text>
<text x="1.133" y="0.168" font-size="0.013540" fill="hsl(180.0,100%,20%)">ccameron</text>
<text x="0.587" y="0.599" font-size="0.007569" fill="hsl(180.0,100%,20%)">blundell</text>
<text x="0.158" y="0.668" font-size="0.014160" fill="hsl(0.0,100%,20%)">borenet</text>
<text x="0.366" y="0.598" font-size="0.009574" fill="hsl(0.0,100%,20%)">rmistry</text>
<text x="1.206" y="0.700" font-size="0.029412" fill="hsl(0.0,100%,20%)">lovisolo</text>
<text x="1.019" y="0.286" font-size="0.029895" fill="hsl(180.0,100%,20%)">herb</text>
<text x="0.359" y="0.076" font-size="0.027395" fill="hsl(0.0,100%,20%)">fmalita</text>
<text x="0.711" y="0.477" font-size="0.005352" fill="hsl(180.0,100%,20%)">jreck</text>
<text x="0.356" y="0.311" font-size="0.018071" fill="hsl(180.0,100%,20%)">nscobie</text>
<text x="1.737" y="0.959" font-size="0.019445" fill="hsl(0.0,100%,20%)">jlavrova</text>
<text x="0.614" y="0.969" font-size="0.013327" fill="hsl(180.0,100%,20%)">briansalomon</text>
<text x="1.438" y="0.834" font-size="0.023695" fill="hsl(0.0,100%,20%)">drott</text>
<text x="1.413" y="0.200" font-size="0.009574" fill="hsl(180.0,100%,20%)">jcgregorio</text>
<text x="0.235" y="0.237" font-size="0.008291" fill="hsl(0.0,100%,20%)">bwils</text>
<text x="0.631" y="0.092" font-size="0.016409" fill="hsl(0.0,100%,20%)">jmbetancourt</text>
<text x="1.054" y="0.886" font-size="0.014948" fill="hsl(0.0,100%,20%)">cmumford</text>
<text x="1.679" y="0.835" font-size="0.004787" fill="hsl(0.0,100%,20%)">coldpalelight</text>
<text x="0.971" y="0.314" font-size="0.005863" fill="hsl(180.0,100%,20%)">dcheng</text>
<text x="0.089" y="0.568" font-size="0.013327" fill="hsl(0.0,100%,20%)">sharaks</text>
<text x="0.263" y="0.763" font-size="0.007569" fill="hsl(180.0,100%,20%)">hitawala</text>
<text x="0.667" y="0.078" font-size="0.004146" fill="hsl(180.0,100%,20%)">jgaillard</text>
<text x="0.447" y="0.246" font-size="0.005352" fill="hsl(180.0,100%,20%)">djsollen</text>
<text x="0.841" y="0.843" font-size="0.003385" fill="hsl(0.0,100%,20%)">tdenniston</text>
<text x="0.858" y="0.869" font-size="0.002394" fill="hsl(0.0,100%,20%)">mingkong</text>
<text x="0.933" y="0.472" font-size="0.009574" fill="hsl(180.0,100%,20%)">nathanasanchez</text>
<text x="0.497" y="0.192" font-size="0.005863" fill="hsl(180.0,100%,20%)">kschmi</text>
<text x="0.869" y="1.030" font-size="0.005863" fill="hsl(180.0,100%,20%)">lokokung</text>
<text x="0.091" y="0.160" font-size="0.012890" fill="hsl(0.0,100%,20%)">mike</text>
<text x="0.418" y="0.493" font-size="0.006333" fill="hsl(180.0,100%,20%)">nigeltao</text>
<text x="1.081" y="0.479" font-size="0.013327" fill="hsl(180.0,100%,20%)">penghuang</text>
<text x="0.097" y="0.456" font-size="0.010704" fill="hsl(0.0,100%,20%)">hcm</text>
<text x="0.684" y="0.251" font-size="0.008291" fill="hsl(180.0,100%,20%)">sky</text>
<text x="0.507" y="0.682" font-size="0.009574" fill="hsl(180.0,100%,20%)">sunnyps</text>
<text x="1.005" y="0.398" font-size="0.004787" fill="hsl(180.0,100%,20%)">tangm</text>
</svg>
