<svg width="4000" height="2000" viewBox="-0.025 -0.025 2.05 1.05" xmlns="http://www.w3.org/2000/svg">
  <style>
    path {
      fill: none;
      stroke-linecap: round;
      stroke-opacity: 0.4;
    }

    text {
      text-anchor: middle;
      alignment-baseline: hanging;
    }
  </style>
  <g opacity="0.4">
<path d="M1.338 0.684 Q1.435 0.253 0.616 0.111" stroke="hsl(0.0,100%,35%)" stroke-width="0.00022"></path>
<path d="M1.338 0.684 Q1.756 0.577 1.638 0.349" stroke="hsl(0.0,100%,35%)" stroke-width="0.00022"></path>
<path d="M1.338 0.684 Q1.580 0.615 1.499 0.481" stroke="hsl(0.0,100%,35%)" stroke-width="0.00044"></path>
<path d="M1.338 0.684 Q0.948 0.728 0.948 0.927" stroke="hsl(0.0,100%,35%)" stroke-width="0.00044"></path>
<path d="M1.338 0.684 Q1.569 0.773 1.794 0.680" stroke="hsl(0.0,100%,35%)" stroke-width="0.00022"></path>
<path d="M1.338 0.684 Q1.000 0.809 1.171 1.002" stroke="hsl(0.0,100%,35%)" stroke-width="0.00022"></path>
<path d="M0.616 0.111 Q0.449 0.090 0.372 0.166" stroke="hsl(180.0,100%,35%)" stroke-width="0.00730"></path>
<path d="M0.616 0.111 Q0.284 0.285 0.552 0.485" stroke="hsl(180.0,100%,35%)" stroke-width="0.00199"></path>
<path d="M0.616 0.111 Q0.557 0.223 0.763 0.276" stroke="hsl(180.0,100%,35%)" stroke-width="0.00265"></path>
<path d="M0.616 0.111 Q0.181 0.667 1.171 1.002" stroke="hsl(180.0,100%,35%)" stroke-width="0.00155"></path>
<path d="M0.616 0.111 Q0.129 0.585 0.948 0.927" stroke="hsl(180.0,100%,35%)" stroke-width="0.00066"></path>
<path d="M0.616 0.111 Q0.459 0.316 0.825 0.438" stroke="hsl(180.0,100%,35%)" stroke-width="0.00442"></path>
<path d="M0.616 0.111 Q0.281 0.404 0.779 0.631" stroke="hsl(180.0,100%,35%)" stroke-width="0.00088"></path>
<path d="M0.616 0.111 Q0.719 0.702 1.897 0.782" stroke="hsl(180.0,100%,35%)" stroke-width="0.00066"></path>
<path d="M0.616 0.111 Q0.936 0.434 1.638 0.349" stroke="hsl(180.0,100%,35%)" stroke-width="0.00044"></path>
<path d="M0.616 0.111 Q0.849 0.526 1.711 0.504" stroke="hsl(180.0,100%,35%)" stroke-width="0.00022"></path>
<path d="M0.616 0.111 Q0.761 0.473 1.499 0.481" stroke="hsl(180.0,100%,35%)" stroke-width="0.00044"></path>
<path d="M0.616 0.111 Q0.423 0.372 0.890 0.524" stroke="hsl(180.0,100%,35%)" stroke-width="0.00044"></path>
<path d="M0.616 0.111 Q0.749 0.631 1.794 0.680" stroke="hsl(180.0,100%,35%)" stroke-width="0.00022"></path>
<path d="M1.638 0.349 Q0.922 0.060 0.199 0.345" stroke="hsl(0.0,100%,35%)" stroke-width="0.00531"></path>
<path d="M1.638 0.349 Q0.986 0.200 0.552 0.485" stroke="hsl(0.0,100%,35%)" stroke-width="0.00508"></path>
<path d="M1.638 0.349 Q0.757 0.125 0.127 0.505" stroke="hsl(0.0,100%,35%)" stroke-width="0.00199"></path>
<path d="M1.638 0.349 Q1.462 0.387 1.499 0.481" stroke="hsl(0.0,100%,35%)" stroke-width="0.02255"></path>
<path d="M1.638 0.349 Q0.831 0.500 0.948 0.927" stroke="hsl(0.0,100%,35%)" stroke-width="0.01481"></path>
<path d="M1.638 0.349 Q1.102 -0.080 0.147 0.087" stroke="hsl(0.0,100%,35%)" stroke-width="0.00044"></path>
<path d="M1.638 0.349 Q1.417 0.211 1.100 0.289" stroke="hsl(0.0,100%,35%)" stroke-width="0.00641"></path>
<path d="M1.638 0.349 Q0.882 0.582 1.171 1.002" stroke="hsl(0.0,100%,35%)" stroke-width="0.00796"></path>
<path d="M1.638 0.349 Q1.151 0.005 0.372 0.166" stroke="hsl(0.0,100%,35%)" stroke-width="0.00951"></path>
<path d="M1.638 0.349 Q0.983 0.318 0.779 0.631" stroke="hsl(0.0,100%,35%)" stroke-width="0.00022"></path>
<path d="M1.638 0.349 Q1.657 0.494 1.944 0.517" stroke="hsl(0.0,100%,35%)" stroke-width="0.00199"></path>
<path d="M1.638 0.349 Q1.259 0.137 0.763 0.276" stroke="hsl(0.0,100%,35%)" stroke-width="0.00287"></path>
<path d="M1.638 0.349 Q1.161 0.231 0.825 0.438" stroke="hsl(0.0,100%,35%)" stroke-width="0.00398"></path>
<path d="M1.638 0.349 Q1.317 0.025 0.616 0.111" stroke="hsl(0.0,100%,35%)" stroke-width="0.00685"></path>
<path d="M1.638 0.349 Q0.995 -0.004 0.165 0.232" stroke="hsl(0.0,100%,35%)" stroke-width="0.00133"></path>
<path d="M1.638 0.349 Q0.930 0.404 0.882 0.761" stroke="hsl(0.0,100%,35%)" stroke-width="0.00088"></path>
<path d="M1.638 0.349 Q1.421 0.617 1.897 0.782" stroke="hsl(0.0,100%,35%)" stroke-width="0.00199"></path>
<path d="M1.638 0.349 Q1.451 0.546 1.794 0.680" stroke="hsl(0.0,100%,35%)" stroke-width="0.00088"></path>
<path d="M1.638 0.349 Q1.434 0.289 1.272 0.376" stroke="hsl(0.0,100%,35%)" stroke-width="0.00022"></path>
<path d="M1.638 0.349 Q1.563 0.444 1.733 0.502" stroke="hsl(0.0,100%,35%)" stroke-width="0.00088"></path>
<path d="M1.638 0.349 Q1.601 0.218 1.337 0.207" stroke="hsl(0.0,100%,35%)" stroke-width="0.00044"></path>
<path d="M1.638 0.349 Q1.124 0.546 1.396 0.841" stroke="hsl(0.0,100%,35%)" stroke-width="0.00044"></path>
<path d="M1.638 0.349 Q1.124 0.287 0.890 0.524" stroke="hsl(0.0,100%,35%)" stroke-width="0.00044"></path>
<path d="M1.638 0.349 Q0.950 0.096 0.305 0.376" stroke="hsl(0.0,100%,35%)" stroke-width="0.00066"></path>
<path d="M1.638 0.349 Q1.297 0.371 1.265 0.542" stroke="hsl(0.0,100%,35%)" stroke-width="0.00022"></path>
<path d="M1.638 0.349 Q1.037 0.261 0.733 0.535" stroke="hsl(0.0,100%,35%)" stroke-width="0.00022"></path>
<path d="M1.638 0.349 Q1.632 0.172 1.285 0.136" stroke="hsl(0.0,100%,35%)" stroke-width="0.00022"></path>
<path d="M1.499 0.481 Q1.600 0.538 1.733 0.502" stroke="hsl(0.0,100%,35%)" stroke-width="0.00287"></path>
<path d="M1.499 0.481 Q0.967 0.498 0.882 0.761" stroke="hsl(0.0,100%,35%)" stroke-width="0.00111"></path>
<path d="M1.499 0.481 Q0.919 0.676 1.171 1.002" stroke="hsl(0.0,100%,35%)" stroke-width="0.00265"></path>
<path d="M1.499 0.481 Q1.674 0.443 1.638 0.349" stroke="hsl(0.0,100%,35%)" stroke-width="0.00619"></path>
<path d="M1.499 0.481 Q0.867 0.594 0.948 0.927" stroke="hsl(0.0,100%,35%)" stroke-width="0.02056"></path>
<path d="M1.499 0.481 Q1.693 0.588 1.944 0.517" stroke="hsl(0.0,100%,35%)" stroke-width="0.00309"></path>
<path d="M1.499 0.481 Q1.187 0.099 0.372 0.166" stroke="hsl(0.0,100%,35%)" stroke-width="0.00022"></path>
<path d="M1.499 0.481 Q0.958 0.154 0.199 0.345" stroke="hsl(0.0,100%,35%)" stroke-width="0.00177"></path>
<path d="M1.499 0.481 Q1.022 0.294 0.552 0.485" stroke="hsl(0.0,100%,35%)" stroke-width="0.00044"></path>
<path d="M1.499 0.481 Q1.354 0.119 0.616 0.111" stroke="hsl(0.0,100%,35%)" stroke-width="0.00022"></path>
<path d="M1.499 0.481 Q1.587 0.535 1.711 0.504" stroke="hsl(0.0,100%,35%)" stroke-width="0.00022"></path>
<path d="M1.499 0.481 Q1.488 0.640 1.794 0.680" stroke="hsl(0.0,100%,35%)" stroke-width="0.00022"></path>
<path d="M1.499 0.481 Q1.032 0.090 0.165 0.232" stroke="hsl(0.0,100%,35%)" stroke-width="0.00155"></path>
<path d="M1.499 0.481 Q1.295 0.231 0.763 0.276" stroke="hsl(0.0,100%,35%)" stroke-width="0.00044"></path>
<path d="M1.499 0.481 Q1.197 0.325 0.825 0.438" stroke="hsl(0.0,100%,35%)" stroke-width="0.00044"></path>
<path d="M1.499 0.481 Q1.470 0.383 1.272 0.376" stroke="hsl(0.0,100%,35%)" stroke-width="0.00022"></path>
<path d="M1.499 0.481 Q1.108 0.704 1.458 0.943" stroke="hsl(0.0,100%,35%)" stroke-width="0.00022"></path>
<path d="M0.948 0.927 Q1.377 0.564 0.763 0.276" stroke="hsl(0.0,100%,35%)" stroke-width="0.00287"></path>
<path d="M0.948 0.927 Q1.048 0.831 0.882 0.761" stroke="hsl(0.0,100%,35%)" stroke-width="0.00111"></path>
<path d="M0.948 0.927 Q1.000 1.009 1.171 1.002" stroke="hsl(0.0,100%,35%)" stroke-width="0.01127"></path>
<path d="M0.948 0.927 Q1.755 0.776 1.638 0.349" stroke="hsl(0.0,100%,35%)" stroke-width="0.00287"></path>
<path d="M0.948 0.927 Q1.278 0.658 0.825 0.438" stroke="hsl(0.0,100%,35%)" stroke-width="0.00508"></path>
<path d="M0.948 0.927 Q1.104 0.627 0.552 0.485" stroke="hsl(0.0,100%,35%)" stroke-width="0.00309"></path>
<path d="M0.948 0.927 Q1.580 0.814 1.499 0.481" stroke="hsl(0.0,100%,35%)" stroke-width="0.00663"></path>
<path d="M0.948 0.927 Q1.113 0.423 0.165 0.232" stroke="hsl(0.0,100%,35%)" stroke-width="0.00044"></path>
<path d="M0.948 0.927 Q1.535 0.638 1.100 0.289" stroke="hsl(0.0,100%,35%)" stroke-width="0.00022"></path>
<path d="M0.948 0.927 Q1.039 0.486 0.199 0.345" stroke="hsl(0.0,100%,35%)" stroke-width="0.00133"></path>
<path d="M0.948 0.927 Q1.268 0.431 0.372 0.166" stroke="hsl(0.0,100%,35%)" stroke-width="0.00022"></path>
<path d="M0.948 0.927 Q1.668 0.868 1.711 0.504" stroke="hsl(0.0,100%,35%)" stroke-width="0.00022"></path>
<path d="M0.948 0.927 Q1.435 0.452 0.616 0.111" stroke="hsl(0.0,100%,35%)" stroke-width="0.00332"></path>
<path d="M0.948 0.927 Q1.220 0.347 0.147 0.087" stroke="hsl(0.0,100%,35%)" stroke-width="0.00022"></path>
<path d="M0.948 0.927 Q1.100 0.745 0.779 0.631" stroke="hsl(0.0,100%,35%)" stroke-width="0.00022"></path>
<path d="M0.948 0.927 Q0.875 0.552 0.127 0.505" stroke="hsl(0.0,100%,35%)" stroke-width="0.00022"></path>
<path d="M1.794 0.680 Q1.764 0.751 1.897 0.782" stroke="hsl(0.0,100%,35%)" stroke-width="0.00177"></path>
<path d="M1.794 0.680 Q1.660 0.160 0.616 0.111" stroke="hsl(0.0,100%,35%)" stroke-width="0.00044"></path>
<path d="M1.794 0.680 Q1.173 0.634 0.948 0.927" stroke="hsl(0.0,100%,35%)" stroke-width="0.00066"></path>
<path d="M1.794 0.680 Q1.893 0.575 1.711 0.504" stroke="hsl(0.0,100%,35%)" stroke-width="0.00022"></path>
<path d="M1.794 0.680 Q1.805 0.522 1.499 0.481" stroke="hsl(0.0,100%,35%)" stroke-width="0.00066"></path>
<path d="M1.794 0.680 Q1.225 0.716 1.171 1.002" stroke="hsl(0.0,100%,35%)" stroke-width="0.00066"></path>
<path d="M1.794 0.680 Q1.503 0.365 0.825 0.438" stroke="hsl(0.0,100%,35%)" stroke-width="0.00066"></path>
<path d="M1.794 0.680 Q1.899 0.689 1.939 0.639" stroke="hsl(0.0,100%,35%)" stroke-width="0.00066"></path>
<path d="M1.794 0.680 Q1.980 0.483 1.638 0.349" stroke="hsl(0.0,100%,35%)" stroke-width="0.00022"></path>
<path d="M1.794 0.680 Q1.329 0.334 0.552 0.485" stroke="hsl(0.0,100%,35%)" stroke-width="0.00022"></path>
<path d="M1.794 0.680 Q1.602 0.272 0.763 0.276" stroke="hsl(0.0,100%,35%)" stroke-width="0.00022"></path>
<path d="M1.794 0.680 Q1.100 0.259 0.127 0.505" stroke="hsl(0.0,100%,35%)" stroke-width="0.00022"></path>
<path d="M1.794 0.680 Q1.415 0.744 1.458 0.943" stroke="hsl(0.0,100%,35%)" stroke-width="0.00022"></path>
<path d="M1.171 1.002 Q1.606 0.445 0.616 0.111" stroke="hsl(180.0,100%,35%)" stroke-width="0.00730"></path>
<path d="M1.171 1.002 Q1.119 0.920 0.948 0.927" stroke="hsl(180.0,100%,35%)" stroke-width="0.04687"></path>
<path d="M1.171 1.002 Q1.548 0.557 0.763 0.276" stroke="hsl(180.0,100%,35%)" stroke-width="0.00730"></path>
<path d="M1.171 1.002 Q1.926 0.769 1.638 0.349" stroke="hsl(180.0,100%,35%)" stroke-width="0.01061"></path>
<path d="M1.171 1.002 Q1.219 0.824 0.882 0.761" stroke="hsl(180.0,100%,35%)" stroke-width="0.00309"></path>
<path d="M1.171 1.002 Q1.449 0.651 0.825 0.438" stroke="hsl(180.0,100%,35%)" stroke-width="0.01172"></path>
<path d="M1.171 1.002 Q1.275 0.620 0.552 0.485" stroke="hsl(180.0,100%,35%)" stroke-width="0.00420"></path>
<path d="M1.171 1.002 Q1.413 0.706 0.890 0.524" stroke="hsl(180.0,100%,35%)" stroke-width="0.00707"></path>
<path d="M1.171 1.002 Q1.751 0.807 1.499 0.481" stroke="hsl(180.0,100%,35%)" stroke-width="0.00221"></path>
<path d="M1.171 1.002 Q1.210 0.479 0.199 0.345" stroke="hsl(180.0,100%,35%)" stroke-width="0.00133"></path>
<path d="M1.171 1.002 Q1.271 0.738 0.779 0.631" stroke="hsl(180.0,100%,35%)" stroke-width="0.00486"></path>
<path d="M1.171 1.002 Q1.439 0.424 0.372 0.166" stroke="hsl(180.0,100%,35%)" stroke-width="0.00663"></path>
<path d="M1.171 1.002 Q1.046 0.544 0.127 0.505" stroke="hsl(180.0,100%,35%)" stroke-width="0.00044"></path>
<path d="M1.171 1.002 Q1.709 1.037 1.897 0.782" stroke="hsl(180.0,100%,35%)" stroke-width="0.00111"></path>
<path d="M1.171 1.002 Q1.391 0.339 0.147 0.087" stroke="hsl(180.0,100%,35%)" stroke-width="0.00022"></path>
<path d="M1.171 1.002 Q1.740 0.965 1.794 0.680" stroke="hsl(180.0,100%,35%)" stroke-width="0.00044"></path>
<path d="M1.171 1.002 Q1.845 0.974 1.939 0.639" stroke="hsl(180.0,100%,35%)" stroke-width="0.00022"></path>
<path d="M1.171 1.002 Q1.722 0.709 1.272 0.376" stroke="hsl(180.0,100%,35%)" stroke-width="0.00022"></path>
<path d="M1.171 1.002 Q1.412 0.966 1.396 0.841" stroke="hsl(180.0,100%,35%)" stroke-width="0.00088"></path>
<path d="M1.171 1.002 Q1.284 0.416 0.165 0.232" stroke="hsl(180.0,100%,35%)" stroke-width="0.00044"></path>
<path d="M1.171 1.002 Q1.705 0.631 1.100 0.289" stroke="hsl(180.0,100%,35%)" stroke-width="0.00022"></path>
<path d="M1.171 1.002 Q1.325 0.680 0.733 0.535" stroke="hsl(180.0,100%,35%)" stroke-width="0.00376"></path>
<path d="M0.890 0.524 Q0.749 0.555 0.779 0.631" stroke="hsl(180.0,100%,35%)" stroke-width="0.00155"></path>
<path d="M0.890 0.524 Q0.752 0.437 0.552 0.485" stroke="hsl(180.0,100%,35%)" stroke-width="0.00553"></path>
<path d="M0.890 0.524 Q0.926 0.468 0.825 0.438" stroke="hsl(180.0,100%,35%)" stroke-width="0.00531"></path>
<path d="M0.890 0.524 Q0.917 0.241 0.372 0.166" stroke="hsl(180.0,100%,35%)" stroke-width="0.00111"></path>
<path d="M0.890 0.524 Q0.596 0.737 0.948 0.927" stroke="hsl(180.0,100%,35%)" stroke-width="0.00066"></path>
<path d="M0.890 0.524 Q1.404 0.586 1.638 0.349" stroke="hsl(180.0,100%,35%)" stroke-width="0.00177"></path>
<path d="M0.890 0.524 Q0.648 0.819 1.171 1.002" stroke="hsl(180.0,100%,35%)" stroke-width="0.00111"></path>
<path d="M0.890 0.524 Q1.083 0.262 0.616 0.111" stroke="hsl(180.0,100%,35%)" stroke-width="0.00088"></path>
<path d="M0.890 0.524 Q1.025 0.374 0.763 0.276" stroke="hsl(180.0,100%,35%)" stroke-width="0.00022"></path>
<path d="M0.890 0.524 Q0.633 0.619 0.762 0.765" stroke="hsl(180.0,100%,35%)" stroke-width="0.00022"></path>
<path d="M0.779 0.631 Q0.957 0.544 0.825 0.438" stroke="hsl(180.0,100%,35%)" stroke-width="0.00685"></path>
<path d="M0.779 0.631 Q1.114 0.338 0.616 0.111" stroke="hsl(180.0,100%,35%)" stroke-width="0.00155"></path>
<path d="M0.779 0.631 Q0.627 0.813 0.948 0.927" stroke="hsl(180.0,100%,35%)" stroke-width="0.00044"></path>
<path d="M0.779 0.631 Q0.679 0.895 1.171 1.002" stroke="hsl(180.0,100%,35%)" stroke-width="0.00111"></path>
<path d="M0.779 0.631 Q0.783 0.513 0.552 0.485" stroke="hsl(180.0,100%,35%)" stroke-width="0.00155"></path>
<path d="M0.779 0.631 Q1.056 0.450 0.763 0.276" stroke="hsl(180.0,100%,35%)" stroke-width="0.00155"></path>
<path d="M0.779 0.631 Q0.921 0.600 0.890 0.524" stroke="hsl(180.0,100%,35%)" stroke-width="0.00022"></path>
<path d="M0.779 0.631 Q0.947 0.317 0.372 0.166" stroke="hsl(180.0,100%,35%)" stroke-width="0.00022"></path>
<path d="M0.779 0.631 Q0.554 0.438 0.127 0.505" stroke="hsl(180.0,100%,35%)" stroke-width="0.00022"></path>
<path d="M0.779 0.631 Q1.248 0.858 1.794 0.680" stroke="hsl(180.0,100%,35%)" stroke-width="0.00022"></path>
<path d="M0.552 0.485 Q0.726 0.516 0.825 0.438" stroke="hsl(180.0,100%,35%)" stroke-width="0.01746"></path>
<path d="M0.552 0.485 Q0.883 0.311 0.616 0.111" stroke="hsl(180.0,100%,35%)" stroke-width="0.00398"></path>
<path d="M0.552 0.485 Q0.448 0.867 1.171 1.002" stroke="hsl(180.0,100%,35%)" stroke-width="0.00287"></path>
<path d="M0.552 0.485 Q0.825 0.423 0.763 0.276" stroke="hsl(180.0,100%,35%)" stroke-width="0.01017"></path>
<path d="M0.552 0.485 Q1.028 0.673 1.499 0.481" stroke="hsl(180.0,100%,35%)" stroke-width="0.00199"></path>
<path d="M0.552 0.485 Q0.717 0.290 0.372 0.166" stroke="hsl(180.0,100%,35%)" stroke-width="0.00265"></path>
<path d="M0.552 0.485 Q1.204 0.634 1.638 0.349" stroke="hsl(180.0,100%,35%)" stroke-width="0.00265"></path>
<path d="M0.552 0.485 Q0.690 0.572 0.890 0.524" stroke="hsl(180.0,100%,35%)" stroke-width="0.00730"></path>
<path d="M0.552 0.485 Q0.549 0.604 0.779 0.631" stroke="hsl(180.0,100%,35%)" stroke-width="0.00265"></path>
<path d="M0.552 0.485 Q0.396 0.785 0.948 0.927" stroke="hsl(180.0,100%,35%)" stroke-width="0.00707"></path>
<path d="M0.552 0.485 Q0.496 0.689 0.882 0.761" stroke="hsl(180.0,100%,35%)" stroke-width="0.00088"></path>
<path d="M0.552 0.485 Q1.223 0.779 1.944 0.517" stroke="hsl(180.0,100%,35%)" stroke-width="0.00044"></path>
<path d="M0.552 0.485 Q1.017 0.831 1.794 0.680" stroke="hsl(180.0,100%,35%)" stroke-width="0.00022"></path>
<path d="M0.552 0.485 Q0.561 0.281 0.165 0.232" stroke="hsl(180.0,100%,35%)" stroke-width="0.00022"></path>
<path d="M0.825 0.438 Q0.924 0.344 0.763 0.276" stroke="hsl(180.0,100%,35%)" stroke-width="0.02697"></path>
<path d="M0.825 0.438 Q0.651 0.407 0.552 0.485" stroke="hsl(180.0,100%,35%)" stroke-width="0.01039"></path>
<path d="M0.825 0.438 Q1.303 0.556 1.638 0.349" stroke="hsl(180.0,100%,35%)" stroke-width="0.00111"></path>
<path d="M0.825 0.438 Q0.648 0.525 0.779 0.631" stroke="hsl(180.0,100%,35%)" stroke-width="0.01061"></path>
<path d="M0.825 0.438 Q0.789 0.494 0.890 0.524" stroke="hsl(180.0,100%,35%)" stroke-width="0.00287"></path>
<path d="M0.825 0.438 Q0.495 0.707 0.948 0.927" stroke="hsl(180.0,100%,35%)" stroke-width="0.01127"></path>
<path d="M0.825 0.438 Q0.547 0.789 1.171 1.002" stroke="hsl(180.0,100%,35%)" stroke-width="0.00420"></path>
<path d="M0.825 0.438 Q1.127 0.594 1.499 0.481" stroke="hsl(180.0,100%,35%)" stroke-width="0.00044"></path>
<path d="M0.825 0.438 Q0.982 0.232 0.616 0.111" stroke="hsl(180.0,100%,35%)" stroke-width="0.00752"></path>
<path d="M0.825 0.438 Q0.816 0.211 0.372 0.166" stroke="hsl(180.0,100%,35%)" stroke-width="0.00287"></path>
<path d="M0.825 0.438 Q0.595 0.611 0.882 0.761" stroke="hsl(180.0,100%,35%)" stroke-width="0.00133"></path>
<path d="M0.825 0.438 Q1.116 0.753 1.794 0.680" stroke="hsl(180.0,100%,35%)" stroke-width="0.00022"></path>
<path d="M0.825 0.438 Q0.702 0.468 0.733 0.535" stroke="hsl(180.0,100%,35%)" stroke-width="0.00022"></path>
<path d="M0.372 0.166 Q0.381 0.393 0.825 0.438" stroke="hsl(180.0,100%,35%)" stroke-width="0.00133"></path>
<path d="M0.372 0.166 Q0.538 0.187 0.616 0.111" stroke="hsl(180.0,100%,35%)" stroke-width="0.00707"></path>
<path d="M0.372 0.166 Q0.859 0.511 1.638 0.349" stroke="hsl(180.0,100%,35%)" stroke-width="0.00111"></path>
<path d="M0.372 0.166 Q0.103 0.744 1.171 1.002" stroke="hsl(180.0,100%,35%)" stroke-width="0.00022"></path>
<path d="M0.372 0.166 Q0.480 0.299 0.763 0.276" stroke="hsl(180.0,100%,35%)" stroke-width="0.00177"></path>
<path d="M0.372 0.166 Q0.207 0.362 0.552 0.485" stroke="hsl(180.0,100%,35%)" stroke-width="0.00111"></path>
<path d="M0.372 0.166 Q0.051 0.662 0.948 0.927" stroke="hsl(180.0,100%,35%)" stroke-width="0.00022"></path>
<path d="M0.372 0.166 Q0.204 0.480 0.779 0.631" stroke="hsl(180.0,100%,35%)" stroke-width="0.00022"></path>
<path d="M0.372 0.166 Q0.642 0.779 1.897 0.782" stroke="hsl(180.0,100%,35%)" stroke-width="0.00044"></path>
<path d="M0.763 0.276 Q0.490 0.338 0.552 0.485" stroke="hsl(180.0,100%,35%)" stroke-width="0.01636"></path>
<path d="M0.763 0.276 Q0.386 0.720 1.171 1.002" stroke="hsl(180.0,100%,35%)" stroke-width="0.00199"></path>
<path d="M0.763 0.276 Q0.821 0.164 0.616 0.111" stroke="hsl(180.0,100%,35%)" stroke-width="0.00774"></path>
<path d="M0.763 0.276 Q0.664 0.369 0.825 0.438" stroke="hsl(180.0,100%,35%)" stroke-width="0.01194"></path>
<path d="M0.763 0.276 Q0.425 0.198 0.199 0.345" stroke="hsl(180.0,100%,35%)" stroke-width="0.00044"></path>
<path d="M0.763 0.276 Q0.334 0.638 0.948 0.927" stroke="hsl(180.0,100%,35%)" stroke-width="0.00111"></path>
<path d="M0.763 0.276 Q0.655 0.143 0.372 0.166" stroke="hsl(180.0,100%,35%)" stroke-width="0.00840"></path>
<path d="M0.763 0.276 Q1.142 0.487 1.638 0.349" stroke="hsl(180.0,100%,35%)" stroke-width="0.00111"></path>
<path d="M0.763 0.276 Q0.955 0.684 1.794 0.680" stroke="hsl(180.0,100%,35%)" stroke-width="0.00022"></path>
<path d="M0.763 0.276 Q0.966 0.526 1.499 0.481" stroke="hsl(180.0,100%,35%)" stroke-width="0.00022"></path>
<path d="M0.763 0.276 Q0.541 0.399 0.733 0.535" stroke="hsl(180.0,100%,35%)" stroke-width="0.00022"></path>
<path d="M0.762 0.765 Q0.726 0.883 0.948 0.927" stroke="hsl(0.0,100%,35%)" stroke-width="0.00553"></path>
<path d="M0.762 0.765 Q1.358 0.771 1.499 0.481" stroke="hsl(0.0,100%,35%)" stroke-width="0.00044"></path>
<path d="M0.762 0.765 Q1.347 0.929 1.794 0.680" stroke="hsl(0.0,100%,35%)" stroke-width="0.00088"></path>
<path d="M0.945 0.022 Q0.710 0.001 0.616 0.111" stroke="hsl(180.0,100%,35%)" stroke-width="0.00111"></path>
<path d="M0.945 0.022 Q0.651 0.112 0.763 0.276" stroke="hsl(180.0,100%,35%)" stroke-width="0.00022"></path>
<path d="M0.945 0.022 Q0.553 0.206 0.825 0.438" stroke="hsl(180.0,100%,35%)" stroke-width="0.00044"></path>
<path d="M0.945 0.022 Q0.543 -0.020 0.372 0.166" stroke="hsl(180.0,100%,35%)" stroke-width="0.00044"></path>
<path d="M0.165 0.232 Q0.808 0.585 1.638 0.349" stroke="hsl(0.0,100%,35%)" stroke-width="0.00088"></path>
<path d="M0.165 0.232 Q0.156 0.436 0.552 0.485" stroke="hsl(0.0,100%,35%)" stroke-width="0.00044"></path>
<path d="M0.165 0.232 Q0.272 0.156 0.147 0.087" stroke="hsl(0.0,100%,35%)" stroke-width="0.00155"></path>
<path d="M0.165 0.232 Q0.587 0.447 1.100 0.289" stroke="hsl(0.0,100%,35%)" stroke-width="0.00022"></path>
<path d="M0.165 0.232 Q0.632 0.623 1.499 0.481" stroke="hsl(0.0,100%,35%)" stroke-width="0.00022"></path>
<path d="M0.165 0.232 Q0.052 0.818 1.171 1.002" stroke="hsl(0.0,100%,35%)" stroke-width="0.00022"></path>
<path d="M0.165 0.232 Q0.487 0.261 0.616 0.111" stroke="hsl(0.0,100%,35%)" stroke-width="0.00022"></path>
<path d="M0.165 0.232 Q0.429 0.373 0.763 0.276" stroke="hsl(0.0,100%,35%)" stroke-width="0.00022"></path>
<path d="M0.147 0.087 Q0.304 0.305 0.763 0.276" stroke="hsl(0.0,100%,35%)" stroke-width="0.00022"></path>
<path d="M0.147 0.087 Q0.682 0.516 1.638 0.349" stroke="hsl(0.0,100%,35%)" stroke-width="0.00022"></path>
<path d="M0.147 0.087 Q0.478 0.456 1.272 0.376" stroke="hsl(0.0,100%,35%)" stroke-width="0.00022"></path>
<path d="M1.100 0.289 Q1.320 0.427 1.638 0.349" stroke="hsl(0.0,100%,35%)" stroke-width="0.01592"></path>
<path d="M1.100 0.289 Q1.246 0.522 1.733 0.502" stroke="hsl(0.0,100%,35%)" stroke-width="0.00022"></path>
<path d="M1.100 0.289 Q0.513 0.578 0.948 0.927" stroke="hsl(0.0,100%,35%)" stroke-width="0.00088"></path>
<path d="M1.100 0.289 Q1.145 0.465 1.499 0.481" stroke="hsl(0.0,100%,35%)" stroke-width="0.00022"></path>
<path d="M1.100 0.289 Q0.565 0.659 1.171 1.002" stroke="hsl(0.0,100%,35%)" stroke-width="0.00133"></path>
<path d="M1.100 0.289 Q0.678 0.073 0.165 0.232" stroke="hsl(0.0,100%,35%)" stroke-width="0.00022"></path>
<path d="M1.100 0.289 Q0.669 0.277 0.552 0.485" stroke="hsl(0.0,100%,35%)" stroke-width="0.00022"></path>
<path d="M1.100 0.289 Q0.806 0.624 1.396 0.841" stroke="hsl(0.0,100%,35%)" stroke-width="0.00022"></path>
<path d="M0.882 0.761 Q0.834 0.939 1.171 1.002" stroke="hsl(0.0,100%,35%)" stroke-width="0.00199"></path>
<path d="M0.882 0.761 Q0.783 0.857 0.948 0.927" stroke="hsl(0.0,100%,35%)" stroke-width="0.00707"></path>
<path d="M0.882 0.761 Q0.938 0.557 0.552 0.485" stroke="hsl(0.0,100%,35%)" stroke-width="0.00199"></path>
<path d="M0.882 0.761 Q1.414 0.745 1.499 0.481" stroke="hsl(0.0,100%,35%)" stroke-width="0.00044"></path>
<path d="M0.882 0.761 Q1.590 0.706 1.638 0.349" stroke="hsl(0.0,100%,35%)" stroke-width="0.00044"></path>
<path d="M0.882 0.761 Q1.211 0.495 0.763 0.276" stroke="hsl(0.0,100%,35%)" stroke-width="0.00022"></path>
<path d="M0.199 0.345 Q0.915 0.635 1.638 0.349" stroke="hsl(0.0,100%,35%)" stroke-width="0.00332"></path>
<path d="M0.199 0.345 Q0.537 0.423 0.763 0.276" stroke="hsl(0.0,100%,35%)" stroke-width="0.00044"></path>
<path d="M0.199 0.345 Q0.108 0.786 0.948 0.927" stroke="hsl(0.0,100%,35%)" stroke-width="0.00111"></path>
<path d="M0.199 0.345 Q0.228 0.382 0.305 0.376" stroke="hsl(0.0,100%,35%)" stroke-width="0.00088"></path>
<path d="M0.199 0.345 Q0.035 0.411 0.127 0.505" stroke="hsl(0.0,100%,35%)" stroke-width="0.00243"></path>
<path d="M0.199 0.345 Q0.480 0.936 1.693 0.928" stroke="hsl(0.0,100%,35%)" stroke-width="0.00044"></path>
<path d="M0.199 0.345 Q0.740 0.673 1.499 0.481" stroke="hsl(0.0,100%,35%)" stroke-width="0.00199"></path>
<path d="M0.199 0.345 Q0.160 0.868 1.171 1.002" stroke="hsl(0.0,100%,35%)" stroke-width="0.00066"></path>
<path d="M0.199 0.345 Q0.438 0.517 0.825 0.438" stroke="hsl(0.0,100%,35%)" stroke-width="0.00022"></path>
<path d="M0.127 0.505 Q1.007 0.729 1.638 0.349" stroke="hsl(0.0,100%,35%)" stroke-width="0.00088"></path>
<path d="M0.127 0.505 Q0.291 0.440 0.199 0.345" stroke="hsl(0.0,100%,35%)" stroke-width="0.00155"></path>
<path d="M0.127 0.505 Q0.530 0.611 0.825 0.438" stroke="hsl(0.0,100%,35%)" stroke-width="0.00022"></path>
<path d="M0.127 0.505 Q0.520 0.385 0.372 0.166" stroke="hsl(0.0,100%,35%)" stroke-width="0.00022"></path>
<path d="M0.127 0.505 Q0.355 0.580 0.552 0.485" stroke="hsl(0.0,100%,35%)" stroke-width="0.00022"></path>
<path d="M0.127 0.505 Q0.319 0.476 0.305 0.376" stroke="hsl(0.0,100%,35%)" stroke-width="0.00044"></path>
<path d="M0.127 0.505 Q0.831 0.768 1.499 0.481" stroke="hsl(0.0,100%,35%)" stroke-width="0.00022"></path>
<path d="M0.773 0.045 Q0.642 0.047 0.616 0.111" stroke="hsl(180.0,100%,35%)" stroke-width="0.00398"></path>
<path d="M0.773 0.045 Q0.584 0.158 0.763 0.276" stroke="hsl(180.0,100%,35%)" stroke-width="0.00111"></path>
<path d="M0.773 0.045 Q0.311 0.221 0.552 0.485" stroke="hsl(180.0,100%,35%)" stroke-width="0.00066"></path>
<path d="M0.773 0.045 Q0.307 0.339 0.779 0.631" stroke="hsl(180.0,100%,35%)" stroke-width="0.00022"></path>
<path d="M0.773 0.045 Q0.207 0.603 1.171 1.002" stroke="hsl(180.0,100%,35%)" stroke-width="0.00022"></path>
<path d="M0.773 0.045 Q0.485 0.252 0.825 0.438" stroke="hsl(180.0,100%,35%)" stroke-width="0.00022"></path>
<path d="M1.733 0.502 Q1.807 0.406 1.638 0.349" stroke="hsl(0.0,100%,35%)" stroke-width="0.00309"></path>
<path d="M1.733 0.502 Q1.632 0.445 1.499 0.481" stroke="hsl(0.0,100%,35%)" stroke-width="0.01105"></path>
<path d="M1.733 0.502 Q1.826 0.551 1.944 0.517" stroke="hsl(0.0,100%,35%)" stroke-width="0.00066"></path>
<path d="M1.733 0.502 Q1.000 0.557 0.948 0.927" stroke="hsl(0.0,100%,35%)" stroke-width="0.00088"></path>
<path d="M1.733 0.502 Q1.621 0.603 1.794 0.680" stroke="hsl(0.0,100%,35%)" stroke-width="0.00022"></path>
<path d="M1.733 0.502 Q1.487 0.083 0.616 0.111" stroke="hsl(0.0,100%,35%)" stroke-width="0.00022"></path>
<path d="M1.944 0.517 Q1.750 0.410 1.499 0.481" stroke="hsl(0.0,100%,35%)" stroke-width="0.00332"></path>
<path d="M1.944 0.517 Q1.925 0.372 1.638 0.349" stroke="hsl(0.0,100%,35%)" stroke-width="0.00088"></path>
<path d="M1.944 0.517 Q1.851 0.467 1.733 0.502" stroke="hsl(0.0,100%,35%)" stroke-width="0.00044"></path>
<path d="M1.944 0.517 Q1.209 0.082 0.199 0.345" stroke="hsl(0.0,100%,35%)" stroke-width="0.00044"></path>
<path d="M1.944 0.517 Q1.118 0.523 0.948 0.927" stroke="hsl(0.0,100%,35%)" stroke-width="0.00022"></path>
<path d="M1.272 0.376 Q0.940 0.006 0.147 0.087" stroke="hsl(0.0,100%,35%)" stroke-width="0.00022"></path>
<path d="M1.272 0.376 Q0.669 0.587 0.948 0.927" stroke="hsl(0.0,100%,35%)" stroke-width="0.00022"></path>
<path d="M1.272 0.376 Q1.476 0.436 1.638 0.349" stroke="hsl(0.0,100%,35%)" stroke-width="0.00022"></path>
<path d="M1.272 0.376 Q1.301 0.474 1.499 0.481" stroke="hsl(0.0,100%,35%)" stroke-width="0.00022"></path>
<path d="M1.272 0.376 Q0.721 0.668 1.171 1.002" stroke="hsl(0.0,100%,35%)" stroke-width="0.00044"></path>
<path d="M1.272 0.376 Q1.156 0.112 0.616 0.111" stroke="hsl(0.0,100%,35%)" stroke-width="0.00066"></path>
<path d="M0.305 0.376 Q0.993 0.629 1.638 0.349" stroke="hsl(0.0,100%,35%)" stroke-width="0.00022"></path>
<path d="M0.305 0.376 Q0.277 0.339 0.199 0.345" stroke="hsl(0.0,100%,35%)" stroke-width="0.00044"></path>
<path d="M0.305 0.376 Q0.113 0.405 0.127 0.505" stroke="hsl(0.0,100%,35%)" stroke-width="0.00022"></path>
<path d="M0.649 0.930 Q0.801 0.988 0.948 0.927" stroke="hsl(0.0,100%,35%)" stroke-width="0.00111"></path>
<path d="M0.649 0.930 Q1.422 1.034 1.794 0.680" stroke="hsl(0.0,100%,35%)" stroke-width="0.00022"></path>
<path d="M0.649 0.930 Q1.230 0.626 0.763 0.276" stroke="hsl(0.0,100%,35%)" stroke-width="0.00022"></path>
<path d="M0.649 0.930 Q0.853 1.070 1.171 1.002" stroke="hsl(0.0,100%,35%)" stroke-width="0.00044"></path>
<path d="M1.548 0.599 Q0.986 0.643 0.948 0.927" stroke="hsl(0.0,100%,35%)" stroke-width="0.00022"></path>
<path d="M1.548 0.599 Q1.618 0.531 1.499 0.481" stroke="hsl(0.0,100%,35%)" stroke-width="0.00044"></path>
<path d="M1.548 0.599 Q1.316 0.374 0.825 0.438" stroke="hsl(0.0,100%,35%)" stroke-width="0.00022"></path>
<path d="M1.181 0.821 Q1.032 0.909 1.171 1.002" stroke="hsl(0.0,100%,35%)" stroke-width="0.00022"></path>
<path d="M1.181 0.821 Q1.310 0.559 0.825 0.438" stroke="hsl(0.0,100%,35%)" stroke-width="0.00022"></path>
<path d="M1.181 0.821 Q0.980 0.828 0.948 0.927" stroke="hsl(0.0,100%,35%)" stroke-width="0.00044"></path>
<path d="M1.181 0.821 Q1.787 0.677 1.638 0.349" stroke="hsl(0.0,100%,35%)" stroke-width="0.00044"></path>
<path d="M1.897 0.782 Q1.793 0.190 0.616 0.111" stroke="hsl(0.0,100%,35%)" stroke-width="0.00133"></path>
<path d="M1.897 0.782 Q1.626 0.169 0.372 0.166" stroke="hsl(0.0,100%,35%)" stroke-width="0.00088"></path>
<path d="M1.897 0.782 Q1.927 0.710 1.794 0.680" stroke="hsl(0.0,100%,35%)" stroke-width="0.00332"></path>
<path d="M1.897 0.782 Q1.735 0.302 0.763 0.276" stroke="hsl(0.0,100%,35%)" stroke-width="0.00111"></path>
<path d="M1.897 0.782 Q2.113 0.514 1.638 0.349" stroke="hsl(0.0,100%,35%)" stroke-width="0.00022"></path>
<path d="M1.897 0.782 Q1.358 0.747 1.171 1.002" stroke="hsl(0.0,100%,35%)" stroke-width="0.00088"></path>
<path d="M1.897 0.782 Q1.462 0.365 0.552 0.485" stroke="hsl(0.0,100%,35%)" stroke-width="0.00022"></path>
<path d="M1.897 0.782 Q1.306 0.665 0.948 0.927" stroke="hsl(0.0,100%,35%)" stroke-width="0.00022"></path>
<path d="M1.693 0.928 Q1.563 0.889 1.458 0.943" stroke="hsl(180.0,100%,35%)" stroke-width="0.00398"></path>
<path d="M1.693 0.928 Q1.486 0.274 0.165 0.232" stroke="hsl(180.0,100%,35%)" stroke-width="0.00044"></path>
<path d="M1.693 0.928 Q2.129 0.628 1.638 0.349" stroke="hsl(180.0,100%,35%)" stroke-width="0.00022"></path>
<path d="M1.693 0.928 Q1.615 0.825 1.396 0.841" stroke="hsl(180.0,100%,35%)" stroke-width="0.00044"></path>
<path d="M1.693 0.928 Q1.322 0.779 0.948 0.927" stroke="hsl(180.0,100%,35%)" stroke-width="0.00044"></path>
<path d="M1.077 0.495 Q1.154 0.211 0.616 0.111" stroke="hsl(180.0,100%,35%)" stroke-width="0.00022"></path>
<path d="M1.077 0.495 Q0.997 0.416 0.825 0.438" stroke="hsl(180.0,100%,35%)" stroke-width="0.00022"></path>
<path d="M1.077 0.495 Q0.667 0.685 0.948 0.927" stroke="hsl(180.0,100%,35%)" stroke-width="0.00022"></path>
<path d="M0.855 0.117 Q0.254 0.541 0.948 0.927" stroke="hsl(180.0,100%,35%)" stroke-width="0.00066"></path>
<path d="M0.855 0.117 Q0.741 0.066 0.616 0.111" stroke="hsl(180.0,100%,35%)" stroke-width="0.00088"></path>
<path d="M0.855 0.117 Q0.406 0.359 0.779 0.631" stroke="hsl(180.0,100%,35%)" stroke-width="0.00022"></path>
<path d="M0.855 0.117 Q0.584 0.272 0.825 0.438" stroke="hsl(180.0,100%,35%)" stroke-width="0.00022"></path>
<path d="M1.283 0.526 Q1.416 0.705 1.794 0.680" stroke="hsl(0.0,100%,35%)" stroke-width="0.00022"></path>
<path d="M1.283 0.526 Q0.795 0.660 0.948 0.927" stroke="hsl(0.0,100%,35%)" stroke-width="0.00022"></path>
<path d="M1.283 0.526 Q1.602 0.509 1.638 0.349" stroke="hsl(0.0,100%,35%)" stroke-width="0.00022"></path>
<path d="M0.733 0.535 Q0.856 0.505 0.825 0.438" stroke="hsl(180.0,100%,35%)" stroke-width="0.00531"></path>
<path d="M0.733 0.535 Q1.334 0.623 1.638 0.349" stroke="hsl(180.0,100%,35%)" stroke-width="0.00066"></path>
<path d="M0.733 0.535 Q0.679 0.592 0.779 0.631" stroke="hsl(180.0,100%,35%)" stroke-width="0.00332"></path>
<path d="M0.733 0.535 Q0.578 0.856 1.171 1.002" stroke="hsl(180.0,100%,35%)" stroke-width="0.00243"></path>
<path d="M0.733 0.535 Q0.820 0.561 0.890 0.524" stroke="hsl(180.0,100%,35%)" stroke-width="0.00022"></path>
<path d="M0.733 0.535 Q0.955 0.411 0.763 0.276" stroke="hsl(180.0,100%,35%)" stroke-width="0.00022"></path>
<path d="M0.733 0.535 Q0.847 0.278 0.372 0.166" stroke="hsl(180.0,100%,35%)" stroke-width="0.00044"></path>
<path d="M1.020 0.741 Q0.835 0.819 0.948 0.927" stroke="hsl(0.0,100%,35%)" stroke-width="0.00088"></path>
<path d="M1.020 0.741 Q1.467 0.707 1.499 0.481" stroke="hsl(0.0,100%,35%)" stroke-width="0.00066"></path>
<path d="M1.020 0.741 Q0.926 0.379 0.199 0.345" stroke="hsl(0.0,100%,35%)" stroke-width="0.00022"></path>
<path d="M1.042 0.483 Q1.127 0.212 0.616 0.111" stroke="hsl(180.0,100%,35%)" stroke-width="0.00022"></path>
<path d="M1.042 0.483 Q0.640 0.686 0.948 0.927" stroke="hsl(180.0,100%,35%)" stroke-width="0.00044"></path>
<path d="M1.042 0.483 Q0.970 0.417 0.825 0.438" stroke="hsl(180.0,100%,35%)" stroke-width="0.00066"></path>
<path d="M1.042 0.483 Q0.960 0.191 0.372 0.166" stroke="hsl(180.0,100%,35%)" stroke-width="0.00022"></path>
<path d="M0.429 0.277 Q0.168 0.706 0.948 0.927" stroke="hsl(0.0,100%,35%)" stroke-width="0.00177"></path>
<path d="M0.429 0.277 Q0.800 0.593 1.499 0.481" stroke="hsl(0.0,100%,35%)" stroke-width="0.00133"></path>
<path d="M0.429 0.277 Q0.259 0.265 0.199 0.345" stroke="hsl(0.0,100%,35%)" stroke-width="0.00243"></path>
<path d="M0.429 0.277 Q0.597 0.343 0.763 0.276" stroke="hsl(0.0,100%,35%)" stroke-width="0.00022"></path>
<path d="M1.652 0.751 Q1.159 0.698 0.948 0.927" stroke="hsl(0.0,100%,35%)" stroke-width="0.00022"></path>
<path d="M1.652 0.751 Q1.780 0.744 1.794 0.680" stroke="hsl(0.0,100%,35%)" stroke-width="0.00044"></path>
<path d="M1.652 0.751 Q1.259 0.602 0.882 0.761" stroke="hsl(0.0,100%,35%)" stroke-width="0.00022"></path>
<path d="M1.083 0.436 Q0.952 0.385 0.825 0.438" stroke="hsl(180.0,100%,35%)" stroke-width="0.00243"></path>
<path d="M1.083 0.436 Q1.213 0.771 1.897 0.782" stroke="hsl(180.0,100%,35%)" stroke-width="0.00022"></path>
<path d="M1.083 0.436 Q0.722 0.558 0.882 0.761" stroke="hsl(180.0,100%,35%)" stroke-width="0.00022"></path>
<path d="M1.083 0.436 Q1.254 0.542 1.499 0.481" stroke="hsl(180.0,100%,35%)" stroke-width="0.00022"></path>
<path d="M1.083 0.436 Q1.109 0.180 0.616 0.111" stroke="hsl(180.0,100%,35%)" stroke-width="0.00243"></path>
<path d="M1.083 0.436 Q1.051 0.292 0.763 0.276" stroke="hsl(180.0,100%,35%)" stroke-width="0.00022"></path>
<path d="M1.083 0.436 Q0.778 0.354 0.552 0.485" stroke="hsl(180.0,100%,35%)" stroke-width="0.00022"></path>
<path d="M0.885 0.143 Q0.776 0.073 0.616 0.111" stroke="hsl(180.0,100%,35%)" stroke-width="0.00066"></path>
<path d="M0.885 0.143 Q0.619 0.278 0.825 0.438" stroke="hsl(180.0,100%,35%)" stroke-width="0.00044"></path>
<path d="M0.885 0.143 Q0.609 0.052 0.372 0.166" stroke="hsl(180.0,100%,35%)" stroke-width="0.00022"></path>
<path d="M0.885 0.143 Q0.717 0.185 0.763 0.276" stroke="hsl(180.0,100%,35%)" stroke-width="0.00022"></path>
<path d="M0.654 0.819 Q0.714 0.932 0.948 0.927" stroke="hsl(0.0,100%,35%)" stroke-width="0.00111"></path>
<path d="M0.654 0.819 Q0.870 0.632 0.552 0.485" stroke="hsl(0.0,100%,35%)" stroke-width="0.00066"></path>
<path d="M0.654 0.819 Q0.814 0.836 0.882 0.761" stroke="hsl(0.0,100%,35%)" stroke-width="0.00022"></path>
<path d="M0.654 0.819 Q0.766 1.014 1.171 1.002" stroke="hsl(0.0,100%,35%)" stroke-width="0.00022"></path>
<path d="M0.654 0.819 Q1.044 0.663 0.825 0.438" stroke="hsl(0.0,100%,35%)" stroke-width="0.00044"></path>
<path d="M1.237 0.493 Q1.232 0.177 0.616 0.111" stroke="hsl(180.0,100%,35%)" stroke-width="0.00199"></path>
<path d="M1.237 0.493 Q0.901 0.352 0.552 0.485" stroke="hsl(180.0,100%,35%)" stroke-width="0.00044"></path>
<path d="M1.237 0.493 Q1.075 0.383 0.825 0.438" stroke="hsl(180.0,100%,35%)" stroke-width="0.00332"></path>
<path d="M1.050 0.538 Q1.319 0.599 1.499 0.481" stroke="hsl(180.0,100%,35%)" stroke-width="0.00022"></path>
<path d="M1.050 0.538 Q1.017 0.443 0.825 0.438" stroke="hsl(180.0,100%,35%)" stroke-width="0.00044"></path>
<path d="M1.050 0.538 Q0.687 0.712 0.948 0.927" stroke="hsl(180.0,100%,35%)" stroke-width="0.00022"></path>
<path d="M0.714 0.733 Q1.162 0.402 0.616 0.111" stroke="hsl(0.0,100%,35%)" stroke-width="0.00022"></path>
<path d="M0.714 0.733 Q0.676 0.877 0.948 0.927" stroke="hsl(0.0,100%,35%)" stroke-width="0.00044"></path>
<path d="M0.714 0.733 Q0.831 0.577 0.552 0.485" stroke="hsl(0.0,100%,35%)" stroke-width="0.00044"></path>
</g>
<text x="1.338" y="0.681" font-size="0.007004" fill="hsl(0.0,100%,20%)">aperez</text>
<text x="0.616" y="0.087" font-size="0.048014" fill="hsl(180.0,100%,20%)">egdaniel</text>
<text x="1.638" y="0.316" font-size="0.065559" fill="hsl(0.0,100%,20%)">kjlubick</text>
<text x="1.499" y="0.455" font-size="0.052410" fill="hsl(0.0,100%,20%)">bungeman</text>
<text x="0.948" y="0.893" font-size="0.068397" fill="hsl(0.0,100%,20%)">brianosman</text>
<text x="1.794" y="0.670" font-size="0.020419" fill="hsl(0.0,100%,20%)">scroggo</text>
<text x="1.171" y="0.968" font-size="0.067857" fill="hsl(180.0,100%,20%)">johnstiles</text>
<text x="0.890" y="0.508" font-size="0.031999" fill="hsl(180.0,100%,20%)">armansito</text>
<text x="0.779" y="0.615" font-size="0.032850" fill="hsl(180.0,100%,20%)">jamesgk</text>
<text x="0.552" y="0.457" font-size="0.056735" fill="hsl(180.0,100%,20%)">jvanverth</text>
<text x="0.825" y="0.404" font-size="0.067494" fill="hsl(180.0,100%,20%)">michaelludwig</text>
<text x="0.372" y="0.147" font-size="0.039073" fill="hsl(180.0,100%,20%)">nicolettep</text>
<text x="0.763" y="0.248" font-size="0.055589" fill="hsl(180.0,100%,20%)">robertphillips</text>
<text x="0.762" y="0.758" font-size="0.014007" fill="hsl(0.0,100%,20%)">ccameron</text>
<text x="0.945" y="0.018" font-size="0.007830" fill="hsl(180.0,100%,20%)">blundell</text>
<text x="0.165" y="0.224" font-size="0.015463" fill="hsl(0.0,100%,20%)">borenet</text>
<text x="0.147" y="0.082" font-size="0.009590" fill="hsl(0.0,100%,20%)">rmistry</text>
<text x="1.100" y="0.275" font-size="0.027011" fill="hsl(0.0,100%,20%)">lovisolo</text>
<text x="0.882" y="0.749" font-size="0.024261" fill="hsl(0.0,100%,20%)">herb</text>
<text x="0.199" y="0.332" font-size="0.027237" fill="hsl(0.0,100%,20%)">fmalita</text>
<text x="1.711" y="0.501" font-size="0.004952" fill="hsl(0.0,100%,20%)">jreck</text>
<text x="0.127" y="0.497" font-size="0.016237" fill="hsl(0.0,100%,20%)">jmbetancourt</text>
<text x="0.773" y="0.039" font-size="0.013334" fill="hsl(180.0,100%,20%)">briansalomon</text>
<text x="1.733" y="0.490" font-size="0.023879" fill="hsl(0.0,100%,20%)">drott</text>
<text x="1.944" y="0.508" font-size="0.017856" fill="hsl(0.0,100%,20%)">jlavrova</text>
<text x="1.272" y="0.371" font-size="0.008928" fill="hsl(0.0,100%,20%)">jcgregorio</text>
<text x="1.458" y="0.938" font-size="0.011074" fill="hsl(0.0,100%,20%)">hcm</text>
<text x="0.305" y="0.371" font-size="0.008928" fill="hsl(0.0,100%,20%)">bwils</text>
<text x="0.649" y="0.926" font-size="0.007428" fill="hsl(0.0,100%,20%)">chengyangyang-hf</text>
<text x="1.548" y="0.597" font-size="0.004952" fill="hsl(0.0,100%,20%)">coldpalelight</text>
<text x="1.181" y="0.818" font-size="0.006065" fill="hsl(0.0,100%,20%)">dcheng</text>
<text x="1.897" y="0.772" font-size="0.019963" fill="hsl(0.0,100%,20%)">nscobie</text>
<text x="1.693" y="0.922" font-size="0.012866" fill="hsl(180.0,100%,20%)">sharaks</text>
<text x="1.077" y="0.493" font-size="0.004289" fill="hsl(180.0,100%,20%)">geofflang</text>
<text x="0.855" y="0.114" font-size="0.007428" fill="hsl(180.0,100%,20%)">hitawala</text>
<text x="1.283" y="0.524" font-size="0.004289" fill="hsl(0.0,100%,20%)">jgaillard</text>
<text x="1.939" y="0.637" font-size="0.004952" fill="hsl(0.0,100%,20%)">djsollen</text>
<text x="1.396" y="0.837" font-size="0.007428" fill="hsl(180.0,100%,20%)">cmumford</text>
<text x="0.733" y="0.524" font-size="0.021728" fill="hsl(180.0,100%,20%)">nathanasanchez</text>
<text x="1.337" y="0.205" font-size="0.003502" fill="hsl(0.0,100%,20%)">tdenniston</text>
<text x="1.265" y="0.541" font-size="0.002476" fill="hsl(0.0,100%,20%)">mingkong</text>
<text x="1.285" y="0.135" font-size="0.002476" fill="hsl(0.0,100%,20%)">ashwinpv</text>
<text x="1.020" y="0.737" font-size="0.007004" fill="hsl(0.0,100%,20%)">kschmi</text>
<text x="1.042" y="0.480" font-size="0.006551" fill="hsl(180.0,100%,20%)">lokokung</text>
<text x="0.429" y="0.271" font-size="0.012626" fill="hsl(0.0,100%,20%)">mike</text>
<text x="1.652" y="0.748" font-size="0.004952" fill="hsl(0.0,100%,20%)">nigeltao</text>
<text x="1.083" y="0.429" font-size="0.012866" fill="hsl(180.0,100%,20%)">penghuang</text>
<text x="0.885" y="0.139" font-size="0.006551" fill="hsl(180.0,100%,20%)">petermcneeley</text>
<text x="0.654" y="0.815" font-size="0.008578" fill="hsl(0.0,100%,20%)">sky</text>
<text x="1.237" y="0.486" font-size="0.012626" fill="hsl(180.0,100%,20%)">sunnyps</text>
<text x="1.050" y="0.535" font-size="0.004952" fill="hsl(180.0,100%,20%)">tangm</text>
<text x="0.714" y="0.730" font-size="0.005537" fill="hsl(0.0,100%,20%)">zhusida</text>
</svg>
