<svg width="4000" height="2000" viewBox="-0.025 -0.025 2.05 1.05" xmlns="http://www.w3.org/2000/svg">
  <style>
    path {
      fill: none;
      stroke-linecap: round;
      stroke-opacity: 0.4;
    }

    text {
      text-anchor: middle;
      alignment-baseline: hanging;
    }
  </style>
  <g opacity="0.4">
<path d="M1.572 0.819 Q1.528 0.705 1.296 0.702" stroke="hsl(0.0,100%,35%)" stroke-width="0.02083"></path>
<path d="M1.572 0.819 Q1.638 0.529 1.087 0.433" stroke="hsl(0.0,100%,35%)" stroke-width="0.00044"></path>
<path d="M1.572 0.819 Q1.281 0.410 0.421 0.462" stroke="hsl(0.0,100%,35%)" stroke-width="0.00059"></path>
<path d="M1.572 0.819 Q1.366 0.356 0.418 0.356" stroke="hsl(0.0,100%,35%)" stroke-width="0.00059"></path>
<path d="M1.572 0.819 Q1.088 0.642 0.637 0.839" stroke="hsl(0.0,100%,35%)" stroke-width="0.00059"></path>
<path d="M1.572 0.819 Q1.744 0.451 1.066 0.287" stroke="hsl(0.0,100%,35%)" stroke-width="0.00798"></path>
<path d="M1.572 0.819 Q1.909 0.400 1.167 0.144" stroke="hsl(0.0,100%,35%)" stroke-width="0.00089"></path>
<path d="M1.572 0.819 Q1.417 0.781 1.311 0.849" stroke="hsl(0.0,100%,35%)" stroke-width="0.00044"></path>
<path d="M1.572 0.819 Q0.807 0.567 0.149 0.885" stroke="hsl(0.0,100%,35%)" stroke-width="0.00015"></path>
<path d="M1.572 0.819 Q2.244 0.538 1.844 0.148" stroke="hsl(0.0,100%,35%)" stroke-width="0.00059"></path>
<path d="M1.572 0.819 Q1.425 0.639 1.042 0.671" stroke="hsl(0.0,100%,35%)" stroke-width="0.00030"></path>
<path d="M1.572 0.819 Q1.078 0.693 0.726 0.906" stroke="hsl(0.0,100%,35%)" stroke-width="0.00044"></path>
<path d="M1.572 0.819 Q1.723 0.492 1.120 0.347" stroke="hsl(0.0,100%,35%)" stroke-width="0.00044"></path>
<path d="M1.572 0.819 Q0.964 0.537 0.282 0.772" stroke="hsl(0.0,100%,35%)" stroke-width="0.00015"></path>
<path d="M1.572 0.819 Q1.524 0.533 0.957 0.494" stroke="hsl(0.0,100%,35%)" stroke-width="0.00015"></path>
<path d="M1.572 0.819 Q2.251 0.475 1.729 0.068" stroke="hsl(0.0,100%,35%)" stroke-width="0.00015"></path>
<path d="M1.296 0.702 Q1.293 0.530 0.957 0.494" stroke="hsl(0.0,100%,35%)" stroke-width="0.00177"></path>
<path d="M1.296 0.702 Q1.513 0.448 1.066 0.287" stroke="hsl(0.0,100%,35%)" stroke-width="0.00857"></path>
<path d="M1.296 0.702 Q2.013 0.534 1.844 0.148" stroke="hsl(0.0,100%,35%)" stroke-width="0.00030"></path>
<path d="M1.296 0.702 Q1.341 0.815 1.572 0.819" stroke="hsl(0.0,100%,35%)" stroke-width="0.01507"></path>
<path d="M1.296 0.702 Q0.576 0.564 0.149 0.885" stroke="hsl(0.0,100%,35%)" stroke-width="0.00030"></path>
<path d="M1.296 0.702 Q1.407 0.525 1.087 0.433" stroke="hsl(0.0,100%,35%)" stroke-width="0.00059"></path>
<path d="M1.296 0.702 Q1.135 0.353 0.418 0.356" stroke="hsl(0.0,100%,35%)" stroke-width="0.00103"></path>
<path d="M1.296 0.702 Q1.492 0.489 1.120 0.347" stroke="hsl(0.0,100%,35%)" stroke-width="0.00650"></path>
<path d="M1.296 0.702 Q1.678 0.397 1.167 0.144" stroke="hsl(0.0,100%,35%)" stroke-width="0.00192"></path>
<path d="M1.296 0.702 Q1.283 0.278 0.454 0.192" stroke="hsl(0.0,100%,35%)" stroke-width="0.00015"></path>
<path d="M1.296 0.702 Q1.186 0.778 1.311 0.849" stroke="hsl(0.0,100%,35%)" stroke-width="0.00044"></path>
<path d="M1.296 0.702 Q1.213 0.410 0.626 0.387" stroke="hsl(0.0,100%,35%)" stroke-width="0.00015"></path>
<path d="M1.296 0.702 Q0.771 0.708 0.667 0.966" stroke="hsl(0.0,100%,35%)" stroke-width="0.00015"></path>
<path d="M1.296 0.702 Q0.733 0.534 0.282 0.772" stroke="hsl(0.0,100%,35%)" stroke-width="0.00030"></path>
<path d="M1.296 0.702 Q0.857 0.639 0.637 0.839" stroke="hsl(0.0,100%,35%)" stroke-width="0.00015"></path>
<path d="M1.296 0.702 Q1.373 0.596 1.184 0.536" stroke="hsl(0.0,100%,35%)" stroke-width="0.00015"></path>
<path d="M1.296 0.702 Q1.405 0.629 1.287 0.560" stroke="hsl(0.0,100%,35%)" stroke-width="0.00015"></path>
<path d="M1.087 0.433 Q0.976 0.609 1.296 0.702" stroke="hsl(0.0,100%,35%)" stroke-width="0.00606"></path>
<path d="M1.087 0.433 Q0.973 0.437 0.957 0.494" stroke="hsl(0.0,100%,35%)" stroke-width="0.00606"></path>
<path d="M1.087 0.433 Q0.256 0.471 0.149 0.885" stroke="hsl(0.0,100%,35%)" stroke-width="0.00310"></path>
<path d="M1.087 0.433 Q1.193 0.355 1.066 0.287" stroke="hsl(0.0,100%,35%)" stroke-width="0.01093"></path>
<path d="M1.087 0.433 Q1.172 0.396 1.120 0.347" stroke="hsl(0.0,100%,35%)" stroke-width="0.00665"></path>
<path d="M1.087 0.433 Q0.874 0.543 1.042 0.671" stroke="hsl(0.0,100%,35%)" stroke-width="0.00059"></path>
<path d="M1.087 0.433 Q1.021 0.723 1.572 0.819" stroke="hsl(0.0,100%,35%)" stroke-width="0.00177"></path>
<path d="M1.087 0.433 Q1.693 0.442 1.844 0.148" stroke="hsl(0.0,100%,35%)" stroke-width="0.00251"></path>
<path d="M1.087 0.433 Q1.358 0.304 1.167 0.144" stroke="hsl(0.0,100%,35%)" stroke-width="0.00340"></path>
<path d="M1.087 0.433 Q0.866 0.686 1.311 0.849" stroke="hsl(0.0,100%,35%)" stroke-width="0.00148"></path>
<path d="M1.087 0.433 Q0.814 0.260 0.418 0.356" stroke="hsl(0.0,100%,35%)" stroke-width="0.00015"></path>
<path d="M1.087 0.433 Q0.537 0.546 0.637 0.839" stroke="hsl(0.0,100%,35%)" stroke-width="0.00030"></path>
<path d="M1.087 0.433 Q0.413 0.442 0.282 0.772" stroke="hsl(0.0,100%,35%)" stroke-width="0.00207"></path>
<path d="M1.087 0.433 Q0.905 0.767 1.518 0.929" stroke="hsl(0.0,100%,35%)" stroke-width="0.00074"></path>
<path d="M1.087 0.433 Q0.783 0.485 0.819 0.645" stroke="hsl(0.0,100%,35%)" stroke-width="0.00015"></path>
<path d="M1.087 0.433 Q0.527 0.597 0.726 0.906" stroke="hsl(0.0,100%,35%)" stroke-width="0.00015"></path>
<path d="M1.087 0.433 Q0.783 0.761 1.356 0.981" stroke="hsl(0.0,100%,35%)" stroke-width="0.00030"></path>
<path d="M0.421 0.462 Q0.505 0.408 0.418 0.356" stroke="hsl(120.0,100%,35%)" stroke-width="0.00222"></path>
<path d="M0.421 0.462 Q0.629 0.392 0.537 0.276" stroke="hsl(120.0,100%,35%)" stroke-width="0.00118"></path>
<path d="M0.421 0.462 Q0.778 0.581 1.087 0.433" stroke="hsl(120.0,100%,35%)" stroke-width="0.00059"></path>
<path d="M0.421 0.462 Q0.667 0.757 1.296 0.702" stroke="hsl(120.0,100%,35%)" stroke-width="0.00103"></path>
<path d="M0.421 0.462 Q1.384 0.590 1.844 0.148" stroke="hsl(120.0,100%,35%)" stroke-width="0.00044"></path>
<path d="M0.421 0.462 Q0.884 0.503 1.066 0.287" stroke="hsl(120.0,100%,35%)" stroke-width="0.00015"></path>
<path d="M0.421 0.462 Q0.414 0.314 0.122 0.285" stroke="hsl(120.0,100%,35%)" stroke-width="0.00015"></path>
<path d="M0.421 0.462 Q0.584 0.466 0.626 0.387" stroke="hsl(120.0,100%,35%)" stroke-width="0.00044"></path>
<path d="M0.421 0.462 Q0.228 0.694 0.637 0.839" stroke="hsl(120.0,100%,35%)" stroke-width="0.00030"></path>
<path d="M0.421 0.462 Q0.491 0.278 0.147 0.204" stroke="hsl(120.0,100%,35%)" stroke-width="0.00015"></path>
<path d="M0.418 0.356 Q1.297 0.537 1.844 0.148" stroke="hsl(120.0,100%,35%)" stroke-width="0.00044"></path>
<path d="M0.418 0.356 Q0.334 0.410 0.421 0.462" stroke="hsl(120.0,100%,35%)" stroke-width="0.00207"></path>
<path d="M0.418 0.356 Q0.542 0.339 0.537 0.276" stroke="hsl(120.0,100%,35%)" stroke-width="0.00015"></path>
<path d="M0.418 0.356 Q0.567 0.281 0.454 0.192" stroke="hsl(120.0,100%,35%)" stroke-width="0.00148"></path>
<path d="M0.418 0.356 Q0.141 0.641 0.637 0.839" stroke="hsl(120.0,100%,35%)" stroke-width="0.00030"></path>
<path d="M0.418 0.356 Q0.404 0.225 0.147 0.204" stroke="hsl(120.0,100%,35%)" stroke-width="0.00030"></path>
<path d="M0.418 0.356 Q0.797 0.451 1.066 0.287" stroke="hsl(120.0,100%,35%)" stroke-width="0.00015"></path>
<path d="M0.637 0.839 Q0.356 0.765 0.149 0.885" stroke="hsl(240.0,100%,35%)" stroke-width="0.01462"></path>
<path d="M0.637 0.839 Q0.966 0.979 1.311 0.849" stroke="hsl(240.0,100%,35%)" stroke-width="0.00857"></path>
<path d="M0.637 0.839 Q1.293 0.649 1.066 0.287" stroke="hsl(240.0,100%,35%)" stroke-width="0.00133"></path>
<path d="M0.637 0.839 Q1.187 0.726 1.087 0.433" stroke="hsl(240.0,100%,35%)" stroke-width="0.00074"></path>
<path d="M0.637 0.839 Q0.915 0.554 0.418 0.356" stroke="hsl(240.0,100%,35%)" stroke-width="0.00340"></path>
<path d="M0.637 0.839 Q0.883 1.054 1.356 0.981" stroke="hsl(240.0,100%,35%)" stroke-width="0.00118"></path>
<path d="M0.637 0.839 Q1.063 0.479 0.454 0.192" stroke="hsl(240.0,100%,35%)" stroke-width="0.00030"></path>
<path d="M0.637 0.839 Q1.121 1.016 1.572 0.819" stroke="hsl(240.0,100%,35%)" stroke-width="0.00044"></path>
<path d="M0.637 0.839 Q1.458 0.597 1.167 0.144" stroke="hsl(240.0,100%,35%)" stroke-width="0.00044"></path>
<path d="M0.637 0.839 Q0.974 0.836 1.042 0.671" stroke="hsl(240.0,100%,35%)" stroke-width="0.01477"></path>
<path d="M0.637 0.839 Q0.513 0.735 0.282 0.772" stroke="hsl(240.0,100%,35%)" stroke-width="0.00207"></path>
<path d="M0.637 0.839 Q0.884 0.778 0.819 0.645" stroke="hsl(240.0,100%,35%)" stroke-width="0.00015"></path>
<path d="M0.637 0.839 Q1.073 0.731 0.957 0.494" stroke="hsl(240.0,100%,35%)" stroke-width="0.00059"></path>
<path d="M0.637 0.839 Q0.551 0.908 0.667 0.966" stroke="hsl(240.0,100%,35%)" stroke-width="0.00015"></path>
<path d="M0.637 0.839 Q0.900 0.423 0.147 0.204" stroke="hsl(240.0,100%,35%)" stroke-width="0.00044"></path>
<path d="M0.637 0.839 Q0.627 0.890 0.726 0.906" stroke="hsl(240.0,100%,35%)" stroke-width="0.00074"></path>
<path d="M0.637 0.839 Q1.272 0.690 1.120 0.347" stroke="hsl(240.0,100%,35%)" stroke-width="0.00030"></path>
<path d="M0.637 0.839 Q1.038 0.537 0.537 0.276" stroke="hsl(240.0,100%,35%)" stroke-width="0.00044"></path>
<path d="M0.637 0.839 Q0.477 0.845 0.454 0.925" stroke="hsl(240.0,100%,35%)" stroke-width="0.00015"></path>
<path d="M0.637 0.839 Q1.793 0.735 1.844 0.148" stroke="hsl(240.0,100%,35%)" stroke-width="0.00103"></path>
<path d="M0.637 0.839 Q0.823 0.459 0.122 0.285" stroke="hsl(240.0,100%,35%)" stroke-width="0.00030"></path>
<path d="M0.637 0.839 Q1.089 0.502 0.531 0.208" stroke="hsl(240.0,100%,35%)" stroke-width="0.00015"></path>
<path d="M0.637 0.839 Q0.858 0.622 0.484 0.467" stroke="hsl(240.0,100%,35%)" stroke-width="0.00015"></path>
<path d="M0.637 0.839 Q1.390 0.827 1.533 0.458" stroke="hsl(240.0,100%,35%)" stroke-width="0.00015"></path>
<path d="M0.637 0.839 Q1.800 0.672 1.729 0.068" stroke="hsl(240.0,100%,35%)" stroke-width="0.00015"></path>
<path d="M1.066 0.287 Q0.959 0.364 1.087 0.433" stroke="hsl(0.0,100%,35%)" stroke-width="0.00074"></path>
<path d="M1.066 0.287 Q1.044 0.328 1.120 0.347" stroke="hsl(0.0,100%,35%)" stroke-width="0.01462"></path>
<path d="M1.066 0.287 Q1.572 0.310 1.729 0.068" stroke="hsl(0.0,100%,35%)" stroke-width="0.00030"></path>
<path d="M1.066 0.287 Q0.849 0.540 1.296 0.702" stroke="hsl(0.0,100%,35%)" stroke-width="0.01329"></path>
<path d="M1.066 0.287 Q1.231 0.235 1.167 0.144" stroke="hsl(0.0,100%,35%)" stroke-width="0.00458"></path>
<path d="M1.066 0.287 Q0.409 0.477 0.637 0.839" stroke="hsl(0.0,100%,35%)" stroke-width="0.00133"></path>
<path d="M1.066 0.287 Q0.846 0.369 0.957 0.494" stroke="hsl(0.0,100%,35%)" stroke-width="0.00901"></path>
<path d="M1.066 0.287 Q0.128 0.403 0.149 0.885" stroke="hsl(0.0,100%,35%)" stroke-width="0.00517"></path>
<path d="M1.066 0.287 Q0.687 0.192 0.418 0.356" stroke="hsl(0.0,100%,35%)" stroke-width="0.00015"></path>
<path d="M1.066 0.287 Q0.746 0.474 1.042 0.671" stroke="hsl(0.0,100%,35%)" stroke-width="0.00015"></path>
<path d="M1.066 0.287 Q0.739 0.617 1.311 0.849" stroke="hsl(0.0,100%,35%)" stroke-width="0.00059"></path>
<path d="M1.066 0.287 Q0.285 0.373 0.282 0.772" stroke="hsl(0.0,100%,35%)" stroke-width="0.00059"></path>
<path d="M1.066 0.287 Q0.893 0.654 1.572 0.819" stroke="hsl(0.0,100%,35%)" stroke-width="0.00162"></path>
<path d="M1.066 0.287 Q0.595 0.097 0.122 0.285" stroke="hsl(0.0,100%,35%)" stroke-width="0.00015"></path>
<path d="M1.066 0.287 Q1.566 0.373 1.844 0.148" stroke="hsl(0.0,100%,35%)" stroke-width="0.00059"></path>
<path d="M1.066 0.287 Q0.672 0.062 0.147 0.204" stroke="hsl(0.0,100%,35%)" stroke-width="0.00074"></path>
<path d="M1.066 0.287 Q0.458 0.609 0.954 0.977" stroke="hsl(0.0,100%,35%)" stroke-width="0.00030"></path>
<path d="M1.066 0.287 Q0.656 0.416 0.819 0.645" stroke="hsl(0.0,100%,35%)" stroke-width="0.00015"></path>
<path d="M1.167 0.144 Q0.980 0.236 1.120 0.347" stroke="hsl(0.0,100%,35%)" stroke-width="0.00945"></path>
<path d="M1.167 0.144 Q0.782 0.277 0.957 0.494" stroke="hsl(0.0,100%,35%)" stroke-width="0.00044"></path>
<path d="M1.167 0.144 Q0.221 0.281 0.282 0.772" stroke="hsl(0.0,100%,35%)" stroke-width="0.00133"></path>
<path d="M1.167 0.144 Q1.002 0.195 1.066 0.287" stroke="hsl(0.0,100%,35%)" stroke-width="0.00355"></path>
<path d="M1.167 0.144 Q0.623 0.100 0.418 0.356" stroke="hsl(0.0,100%,35%)" stroke-width="0.00059"></path>
<path d="M1.167 0.144 Q0.675 0.525 1.311 0.849" stroke="hsl(0.0,100%,35%)" stroke-width="0.00030"></path>
<path d="M1.167 0.144 Q0.064 0.311 0.149 0.885" stroke="hsl(0.0,100%,35%)" stroke-width="0.00310"></path>
<path d="M1.167 0.144 Q1.502 0.281 1.844 0.148" stroke="hsl(0.0,100%,35%)" stroke-width="0.00015"></path>
<path d="M1.167 0.144 Q0.772 0.025 0.454 0.192" stroke="hsl(0.0,100%,35%)" stroke-width="0.00030"></path>
<path d="M1.167 0.144 Q0.609 -0.030 0.147 0.204" stroke="hsl(0.0,100%,35%)" stroke-width="0.00015"></path>
<path d="M1.167 0.144 Q0.785 0.449 1.296 0.702" stroke="hsl(0.0,100%,35%)" stroke-width="0.00074"></path>
<path d="M1.167 0.144 Q0.829 0.562 1.572 0.819" stroke="hsl(0.0,100%,35%)" stroke-width="0.00118"></path>
<path d="M1.167 0.144 Q0.895 0.272 1.087 0.433" stroke="hsl(0.0,100%,35%)" stroke-width="0.00044"></path>
<path d="M1.167 0.144 Q1.396 0.388 1.923 0.330" stroke="hsl(0.0,100%,35%)" stroke-width="0.00015"></path>
<path d="M1.167 0.144 Q0.539 0.154 0.421 0.462" stroke="hsl(0.0,100%,35%)" stroke-width="0.00030"></path>
<path d="M1.167 0.144 Q1.209 0.207 1.341 0.200" stroke="hsl(0.0,100%,35%)" stroke-width="0.00015"></path>
<path d="M1.167 0.144 Q0.683 0.382 1.042 0.671" stroke="hsl(0.0,100%,35%)" stroke-width="0.00030"></path>
<path d="M1.167 0.144 Q0.346 0.385 0.637 0.839" stroke="hsl(0.0,100%,35%)" stroke-width="0.00118"></path>
<path d="M1.167 0.144 Q0.592 0.325 0.819 0.645" stroke="hsl(0.0,100%,35%)" stroke-width="0.00015"></path>
<path d="M1.167 0.144 Q1.364 0.230 1.576 0.152" stroke="hsl(0.0,100%,35%)" stroke-width="0.00015"></path>
<path d="M1.311 0.849 Q1.319 0.706 1.042 0.671" stroke="hsl(240.0,100%,35%)" stroke-width="0.00044"></path>
<path d="M1.311 0.849 Q0.895 0.778 0.667 0.966" stroke="hsl(240.0,100%,35%)" stroke-width="0.00281"></path>
<path d="M1.311 0.849 Q2.138 0.605 1.844 0.148" stroke="hsl(240.0,100%,35%)" stroke-width="0.00207"></path>
<path d="M1.311 0.849 Q1.228 0.924 1.356 0.981" stroke="hsl(240.0,100%,35%)" stroke-width="0.00753"></path>
<path d="M1.311 0.849 Q2.032 0.712 1.923 0.330" stroke="hsl(240.0,100%,35%)" stroke-width="0.00044"></path>
<path d="M1.311 0.849 Q0.972 0.761 0.726 0.906" stroke="hsl(240.0,100%,35%)" stroke-width="0.00133"></path>
<path d="M1.311 0.849 Q1.167 0.329 0.122 0.285" stroke="hsl(240.0,100%,35%)" stroke-width="0.00044"></path>
<path d="M1.311 0.849 Q1.638 0.519 1.066 0.287" stroke="hsl(240.0,100%,35%)" stroke-width="0.00325"></path>
<path d="M1.311 0.849 Q1.418 0.601 0.957 0.494" stroke="hsl(240.0,100%,35%)" stroke-width="0.00118"></path>
<path d="M1.311 0.849 Q0.857 0.605 0.282 0.772" stroke="hsl(240.0,100%,35%)" stroke-width="0.00044"></path>
<path d="M1.311 0.849 Q0.700 0.635 0.149 0.885" stroke="hsl(240.0,100%,35%)" stroke-width="0.00103"></path>
<path d="M1.311 0.849 Q0.982 0.709 0.637 0.839" stroke="hsl(240.0,100%,35%)" stroke-width="0.00384"></path>
<path d="M1.311 0.849 Q1.245 0.294 0.147 0.204" stroke="hsl(240.0,100%,35%)" stroke-width="0.00044"></path>
<path d="M1.311 0.849 Q1.421 0.772 1.296 0.702" stroke="hsl(240.0,100%,35%)" stroke-width="0.00074"></path>
<path d="M1.311 0.849 Q2.145 0.542 1.729 0.068" stroke="hsl(240.0,100%,35%)" stroke-width="0.00015"></path>
<path d="M1.311 0.849 Q1.191 0.737 0.946 0.771" stroke="hsl(240.0,100%,35%)" stroke-width="0.00015"></path>
<path d="M1.311 0.849 Q1.350 0.930 1.518 0.929" stroke="hsl(240.0,100%,35%)" stroke-width="0.00015"></path>
<path d="M1.311 0.849 Q1.532 0.596 1.087 0.433" stroke="hsl(240.0,100%,35%)" stroke-width="0.00015"></path>
<path d="M1.311 0.849 Q1.235 0.765 1.055 0.784" stroke="hsl(240.0,100%,35%)" stroke-width="0.00015"></path>
<path d="M0.149 0.885 Q0.980 0.847 1.087 0.433" stroke="hsl(240.0,100%,35%)" stroke-width="0.00044"></path>
<path d="M0.149 0.885 Q1.065 0.810 1.120 0.347" stroke="hsl(240.0,100%,35%)" stroke-width="0.00118"></path>
<path d="M0.149 0.885 Q0.306 0.856 0.282 0.772" stroke="hsl(240.0,100%,35%)" stroke-width="0.03471"></path>
<path d="M0.149 0.885 Q0.767 0.957 1.042 0.671" stroke="hsl(240.0,100%,35%)" stroke-width="0.00059"></path>
<path d="M0.149 0.885 Q0.869 1.023 1.296 0.702" stroke="hsl(240.0,100%,35%)" stroke-width="0.00074"></path>
<path d="M0.149 0.885 Q1.086 0.769 1.066 0.287" stroke="hsl(240.0,100%,35%)" stroke-width="0.00827"></path>
<path d="M0.149 0.885 Q0.430 0.960 0.637 0.839" stroke="hsl(240.0,100%,35%)" stroke-width="0.01344"></path>
<path d="M0.149 0.885 Q0.866 0.851 0.957 0.494" stroke="hsl(240.0,100%,35%)" stroke-width="0.00487"></path>
<path d="M0.149 0.885 Q0.676 1.175 1.356 0.981" stroke="hsl(240.0,100%,35%)" stroke-width="0.00059"></path>
<path d="M0.149 0.885 Q0.540 1.132 1.107 0.996" stroke="hsl(240.0,100%,35%)" stroke-width="0.00015"></path>
<path d="M0.149 0.885 Q0.616 0.580 0.122 0.285" stroke="hsl(240.0,100%,35%)" stroke-width="0.00030"></path>
<path d="M0.149 0.885 Q1.586 0.856 1.844 0.148" stroke="hsl(240.0,100%,35%)" stroke-width="0.00222"></path>
<path d="M0.149 0.885 Q0.759 1.099 1.311 0.849" stroke="hsl(240.0,100%,35%)" stroke-width="0.00162"></path>
<path d="M0.149 0.885 Q0.693 0.544 0.147 0.204" stroke="hsl(240.0,100%,35%)" stroke-width="0.00030"></path>
<path d="M0.149 0.885 Q0.676 0.899 0.819 0.645" stroke="hsl(240.0,100%,35%)" stroke-width="0.00487"></path>
<path d="M0.149 0.885 Q0.831 0.658 0.537 0.276" stroke="hsl(240.0,100%,35%)" stroke-width="0.00089"></path>
<path d="M0.149 0.885 Q1.251 0.718 1.167 0.144" stroke="hsl(240.0,100%,35%)" stroke-width="0.00059"></path>
<path d="M0.149 0.885 Q0.707 0.674 0.418 0.356" stroke="hsl(240.0,100%,35%)" stroke-width="0.00044"></path>
<path d="M0.149 0.885 Q0.786 0.732 0.626 0.387" stroke="hsl(240.0,100%,35%)" stroke-width="0.00015"></path>
<path d="M0.149 0.885 Q0.270 0.939 0.401 0.892" stroke="hsl(240.0,100%,35%)" stroke-width="0.00015"></path>
<path d="M1.844 0.148 Q1.851 0.085 1.729 0.068" stroke="hsl(120.0,100%,35%)" stroke-width="0.00739"></path>
<path d="M1.844 0.148 Q1.017 0.392 1.311 0.849" stroke="hsl(120.0,100%,35%)" stroke-width="0.00162"></path>
<path d="M1.844 0.148 Q1.509 0.010 1.167 0.144" stroke="hsl(120.0,100%,35%)" stroke-width="0.00030"></path>
<path d="M1.844 0.148 Q0.601 0.321 0.667 0.966" stroke="hsl(120.0,100%,35%)" stroke-width="0.00044"></path>
<path d="M1.844 0.148 Q1.025 0.249 1.042 0.671" stroke="hsl(120.0,100%,35%)" stroke-width="0.00044"></path>
<path d="M1.844 0.148 Q0.797 0.425 1.107 0.996" stroke="hsl(120.0,100%,35%)" stroke-width="0.00015"></path>
<path d="M1.844 0.148 Q1.706 0.097 1.576 0.152" stroke="hsl(120.0,100%,35%)" stroke-width="0.00074"></path>
<path d="M1.844 0.148 Q0.881 0.021 0.421 0.462" stroke="hsl(120.0,100%,35%)" stroke-width="0.00059"></path>
<path d="M1.844 0.148 Q1.114 -0.108 0.454 0.192" stroke="hsl(120.0,100%,35%)" stroke-width="0.00030"></path>
<path d="M1.844 0.148 Q0.406 0.178 0.149 0.885" stroke="hsl(120.0,100%,35%)" stroke-width="0.00044"></path>
<path d="M1.844 0.148 Q0.678 0.304 0.726 0.906" stroke="hsl(120.0,100%,35%)" stroke-width="0.00089"></path>
<path d="M1.844 0.148 Q0.965 -0.033 0.418 0.356" stroke="hsl(120.0,100%,35%)" stroke-width="0.00236"></path>
<path d="M1.844 0.148 Q1.088 -0.049 0.537 0.276" stroke="hsl(120.0,100%,35%)" stroke-width="0.00059"></path>
<path d="M1.844 0.148 Q0.951 -0.163 0.147 0.204" stroke="hsl(120.0,100%,35%)" stroke-width="0.00059"></path>
<path d="M1.844 0.148 Q1.738 0.255 1.923 0.330" stroke="hsl(120.0,100%,35%)" stroke-width="0.00103"></path>
<path d="M1.844 0.148 Q1.044 0.024 0.626 0.387" stroke="hsl(120.0,100%,35%)" stroke-width="0.00015"></path>
<path d="M1.844 0.148 Q1.237 0.139 1.087 0.433" stroke="hsl(120.0,100%,35%)" stroke-width="0.00103"></path>
<path d="M1.844 0.148 Q1.344 0.062 1.066 0.287" stroke="hsl(120.0,100%,35%)" stroke-width="0.00015"></path>
<path d="M1.844 0.148 Q0.934 0.467 1.356 0.981" stroke="hsl(120.0,100%,35%)" stroke-width="0.00030"></path>
<path d="M1.844 0.148 Q0.688 0.252 0.637 0.839" stroke="hsl(120.0,100%,35%)" stroke-width="0.00059"></path>
<path d="M1.844 0.148 Q1.709 0.183 1.747 0.256" stroke="hsl(120.0,100%,35%)" stroke-width="0.00015"></path>
<path d="M1.844 0.148 Q0.736 0.384 0.954 0.977" stroke="hsl(120.0,100%,35%)" stroke-width="0.00015"></path>
<path d="M1.042 0.671 Q0.695 0.725 0.726 0.906" stroke="hsl(0.0,100%,35%)" stroke-width="0.00709"></path>
<path d="M1.042 0.671 Q0.424 0.599 0.149 0.885" stroke="hsl(0.0,100%,35%)" stroke-width="0.00074"></path>
<path d="M1.042 0.671 Q1.189 0.851 1.572 0.819" stroke="hsl(0.0,100%,35%)" stroke-width="0.00030"></path>
<path d="M1.042 0.671 Q1.144 0.737 1.296 0.702" stroke="hsl(0.0,100%,35%)" stroke-width="0.02083"></path>
<path d="M1.042 0.671 Q1.034 0.814 1.311 0.849" stroke="hsl(0.0,100%,35%)" stroke-width="0.00089"></path>
<path d="M1.042 0.671 Q1.361 0.483 1.066 0.287" stroke="hsl(0.0,100%,35%)" stroke-width="0.00148"></path>
<path d="M1.042 0.671 Q1.255 0.561 1.087 0.433" stroke="hsl(0.0,100%,35%)" stroke-width="0.00089"></path>
<path d="M1.042 0.671 Q0.619 0.743 0.667 0.966" stroke="hsl(0.0,100%,35%)" stroke-width="0.00059"></path>
<path d="M1.042 0.671 Q1.141 0.565 0.957 0.494" stroke="hsl(0.0,100%,35%)" stroke-width="0.00222"></path>
<path d="M1.042 0.671 Q0.705 0.674 0.637 0.839" stroke="hsl(0.0,100%,35%)" stroke-width="0.00266"></path>
<path d="M1.042 0.671 Q1.526 0.432 1.167 0.144" stroke="hsl(0.0,100%,35%)" stroke-width="0.00044"></path>
<path d="M1.042 0.671 Q1.062 0.446 0.626 0.387" stroke="hsl(0.0,100%,35%)" stroke-width="0.00015"></path>
<path d="M1.042 0.671 Q1.106 0.372 0.537 0.276" stroke="hsl(0.0,100%,35%)" stroke-width="0.00015"></path>
<path d="M0.726 0.906 Q1.072 0.852 1.042 0.671" stroke="hsl(0.0,100%,35%)" stroke-width="0.00650"></path>
<path d="M0.726 0.906 Q1.370 0.706 1.120 0.347" stroke="hsl(0.0,100%,35%)" stroke-width="0.00015"></path>
<path d="M0.726 0.906 Q0.454 0.781 0.149 0.885" stroke="hsl(0.0,100%,35%)" stroke-width="0.00059"></path>
<path d="M0.726 0.906 Q0.735 0.855 0.637 0.839" stroke="hsl(0.0,100%,35%)" stroke-width="0.00665"></path>
<path d="M0.726 0.906 Q1.892 0.751 1.844 0.148" stroke="hsl(0.0,100%,35%)" stroke-width="0.00103"></path>
<path d="M0.726 0.906 Q0.281 1.253 0.860 1.546" stroke="hsl(0.0,100%,35%)" stroke-width="0.00059"></path>
<path d="M0.726 0.906 Q1.064 0.995 1.311 0.849" stroke="hsl(0.0,100%,35%)" stroke-width="0.00251"></path>
<path d="M0.726 0.906 Q0.611 0.751 0.282 0.772" stroke="hsl(0.0,100%,35%)" stroke-width="0.00015"></path>
<path d="M0.726 0.906 Q0.998 0.439 0.147 0.204" stroke="hsl(0.0,100%,35%)" stroke-width="0.00044"></path>
<path d="M0.726 0.906 Q0.649 0.924 0.667 0.966" stroke="hsl(0.0,100%,35%)" stroke-width="0.00325"></path>
<path d="M0.726 0.906 Q0.982 1.070 1.356 0.981" stroke="hsl(0.0,100%,35%)" stroke-width="0.00044"></path>
<path d="M0.726 0.906 Q1.557 0.613 1.167 0.144" stroke="hsl(0.0,100%,35%)" stroke-width="0.00030"></path>
<path d="M0.726 0.906 Q0.929 0.624 0.421 0.462" stroke="hsl(0.0,100%,35%)" stroke-width="0.00030"></path>
<path d="M0.726 0.906 Q0.859 0.845 0.768 0.766" stroke="hsl(0.0,100%,35%)" stroke-width="0.00015"></path>
<path d="M0.726 0.906 Q1.391 0.665 1.066 0.287" stroke="hsl(0.0,100%,35%)" stroke-width="0.00015"></path>
<path d="M0.726 0.906 Q0.766 0.943 0.846 0.931" stroke="hsl(0.0,100%,35%)" stroke-width="0.00015"></path>
<path d="M0.726 0.906 Q0.921 0.475 0.122 0.285" stroke="hsl(0.0,100%,35%)" stroke-width="0.00015"></path>
<path d="M0.726 0.906 Q1.162 0.495 0.454 0.192" stroke="hsl(0.0,100%,35%)" stroke-width="0.00015"></path>
<path d="M0.726 0.906 Q1.136 0.553 0.537 0.276" stroke="hsl(0.0,100%,35%)" stroke-width="0.00015"></path>
<path d="M1.120 0.347 Q1.141 0.306 1.066 0.287" stroke="hsl(0.0,100%,35%)" stroke-width="0.01211"></path>
<path d="M1.120 0.347 Q1.035 0.383 1.087 0.433" stroke="hsl(0.0,100%,35%)" stroke-width="0.00103"></path>
<path d="M1.120 0.347 Q1.306 0.255 1.167 0.144" stroke="hsl(0.0,100%,35%)" stroke-width="0.00945"></path>
<path d="M1.120 0.347 Q0.924 0.560 1.296 0.702" stroke="hsl(0.0,100%,35%)" stroke-width="0.00458"></path>
<path d="M1.120 0.347 Q0.204 0.422 0.149 0.885" stroke="hsl(0.0,100%,35%)" stroke-width="0.00281"></path>
<path d="M1.120 0.347 Q1.641 0.392 1.844 0.148" stroke="hsl(0.0,100%,35%)" stroke-width="0.00015"></path>
<path d="M1.120 0.347 Q0.969 0.673 1.572 0.819" stroke="hsl(0.0,100%,35%)" stroke-width="0.00044"></path>
<path d="M1.120 0.347 Q0.361 0.392 0.282 0.772" stroke="hsl(0.0,100%,35%)" stroke-width="0.00059"></path>
<path d="M1.120 0.347 Q0.485 0.497 0.637 0.839" stroke="hsl(0.0,100%,35%)" stroke-width="0.00015"></path>
<path d="M1.120 0.347 Q0.670 0.117 0.122 0.285" stroke="hsl(0.0,100%,35%)" stroke-width="0.00030"></path>
<path d="M1.120 0.347 Q1.157 0.170 0.820 0.113" stroke="hsl(0.0,100%,35%)" stroke-width="0.00015"></path>
<path d="M1.120 0.347 Q1.051 0.133 0.618 0.120" stroke="hsl(0.0,100%,35%)" stroke-width="0.00015"></path>
<path d="M1.120 0.347 Q0.921 0.388 0.957 0.494" stroke="hsl(0.0,100%,35%)" stroke-width="0.00030"></path>
<path d="M1.120 0.347 Q0.731 0.436 0.819 0.645" stroke="hsl(0.0,100%,35%)" stroke-width="0.00030"></path>
<path d="M1.120 0.347 Q0.822 0.493 1.042 0.671" stroke="hsl(0.0,100%,35%)" stroke-width="0.00015"></path>
<path d="M1.120 0.347 Q0.731 0.711 1.356 0.981" stroke="hsl(0.0,100%,35%)" stroke-width="0.00015"></path>
<path d="M1.120 0.347 Q1.269 0.412 1.429 0.353" stroke="hsl(0.0,100%,35%)" stroke-width="0.00030"></path>
<path d="M1.120 0.347 Q0.877 0.320 0.770 0.432" stroke="hsl(0.0,100%,35%)" stroke-width="0.00015"></path>
<path d="M1.120 0.347 Q1.107 0.178 0.775 0.147" stroke="hsl(0.0,100%,35%)" stroke-width="0.00015"></path>
<path d="M1.120 0.347 Q0.911 0.136 0.454 0.192" stroke="hsl(0.0,100%,35%)" stroke-width="0.00015"></path>
<path d="M1.120 0.347 Q0.475 0.548 0.726 0.906" stroke="hsl(0.0,100%,35%)" stroke-width="0.00015"></path>
<path d="M0.282 0.772 Q0.846 0.940 1.296 0.702" stroke="hsl(240.0,100%,35%)" stroke-width="0.00030"></path>
<path d="M0.282 0.772 Q0.125 0.802 0.149 0.885" stroke="hsl(240.0,100%,35%)" stroke-width="0.10340"></path>
<path d="M0.282 0.772 Q0.653 0.816 0.819 0.645" stroke="hsl(240.0,100%,35%)" stroke-width="0.03796"></path>
<path d="M0.282 0.772 Q0.320 0.946 0.667 0.966" stroke="hsl(240.0,100%,35%)" stroke-width="0.00030"></path>
<path d="M0.282 0.772 Q1.062 0.686 1.066 0.287" stroke="hsl(240.0,100%,35%)" stroke-width="0.00842"></path>
<path d="M0.282 0.772 Q0.406 0.877 0.637 0.839" stroke="hsl(240.0,100%,35%)" stroke-width="0.00931"></path>
<path d="M0.282 0.772 Q0.843 0.768 0.957 0.494" stroke="hsl(240.0,100%,35%)" stroke-width="0.00517"></path>
<path d="M0.282 0.772 Q1.227 0.635 1.167 0.144" stroke="hsl(240.0,100%,35%)" stroke-width="0.00103"></path>
<path d="M0.282 0.772 Q1.041 0.727 1.120 0.347" stroke="hsl(240.0,100%,35%)" stroke-width="0.00207"></path>
<path d="M0.282 0.772 Q0.956 0.763 1.087 0.433" stroke="hsl(240.0,100%,35%)" stroke-width="0.00059"></path>
<path d="M0.282 0.772 Q0.592 0.497 0.122 0.285" stroke="hsl(240.0,100%,35%)" stroke-width="0.00030"></path>
<path d="M0.282 0.772 Q0.890 1.053 1.572 0.819" stroke="hsl(240.0,100%,35%)" stroke-width="0.00059"></path>
<path d="M0.282 0.772 Q0.743 0.874 1.042 0.671" stroke="hsl(240.0,100%,35%)" stroke-width="0.00030"></path>
<path d="M0.282 0.772 Q0.397 0.928 0.726 0.906" stroke="hsl(240.0,100%,35%)" stroke-width="0.00162"></path>
<path d="M0.282 0.772 Q0.735 1.016 1.311 0.849" stroke="hsl(240.0,100%,35%)" stroke-width="0.00074"></path>
<path d="M0.282 0.772 Q0.653 1.091 1.356 0.981" stroke="hsl(240.0,100%,35%)" stroke-width="0.00059"></path>
<path d="M0.282 0.772 Q0.833 0.517 0.454 0.192" stroke="hsl(240.0,100%,35%)" stroke-width="0.00030"></path>
<path d="M0.282 0.772 Q0.763 0.648 0.626 0.387" stroke="hsl(240.0,100%,35%)" stroke-width="0.00030"></path>
<path d="M0.957 0.494 Q1.177 0.412 1.066 0.287" stroke="hsl(0.0,100%,35%)" stroke-width="0.00753"></path>
<path d="M0.957 0.494 Q1.071 0.489 1.087 0.433" stroke="hsl(0.0,100%,35%)" stroke-width="0.00281"></path>
<path d="M0.957 0.494 Q0.850 0.742 1.311 0.849" stroke="hsl(0.0,100%,35%)" stroke-width="0.00517"></path>
<path d="M0.957 0.494 Q0.961 0.666 1.296 0.702" stroke="hsl(0.0,100%,35%)" stroke-width="0.00517"></path>
<path d="M0.957 0.494 Q0.858 0.599 1.042 0.671" stroke="hsl(0.0,100%,35%)" stroke-width="0.00089"></path>
<path d="M0.957 0.494 Q0.240 0.528 0.149 0.885" stroke="hsl(0.0,100%,35%)" stroke-width="0.00281"></path>
<path d="M0.957 0.494 Q1.156 0.453 1.120 0.347" stroke="hsl(0.0,100%,35%)" stroke-width="0.00059"></path>
<path d="M0.957 0.494 Q0.767 0.817 1.356 0.981" stroke="hsl(0.0,100%,35%)" stroke-width="0.00133"></path>
<path d="M0.957 0.494 Q1.165 0.567 1.353 0.482" stroke="hsl(0.0,100%,35%)" stroke-width="0.00015"></path>
<path d="M0.957 0.494 Q0.890 0.823 1.518 0.929" stroke="hsl(0.0,100%,35%)" stroke-width="0.00015"></path>
<path d="M0.957 0.494 Q0.521 0.602 0.637 0.839" stroke="hsl(0.0,100%,35%)" stroke-width="0.00148"></path>
<path d="M0.957 0.494 Q0.707 0.223 0.122 0.285" stroke="hsl(0.0,100%,35%)" stroke-width="0.00074"></path>
<path d="M0.957 0.494 Q0.397 0.498 0.282 0.772" stroke="hsl(0.0,100%,35%)" stroke-width="0.00074"></path>
<path d="M0.957 0.494 Q1.342 0.361 1.167 0.144" stroke="hsl(0.0,100%,35%)" stroke-width="0.00074"></path>
<path d="M0.957 0.494 Q1.677 0.498 1.844 0.148" stroke="hsl(0.0,100%,35%)" stroke-width="0.00030"></path>
<path d="M0.957 0.494 Q0.784 0.187 0.147 0.204" stroke="hsl(0.0,100%,35%)" stroke-width="0.00015"></path>
<path d="M0.957 0.494 Q0.768 0.542 0.819 0.645" stroke="hsl(0.0,100%,35%)" stroke-width="0.00030"></path>
<path d="M0.957 0.494 Q0.947 0.242 0.454 0.192" stroke="hsl(0.0,100%,35%)" stroke-width="0.00015"></path>
<path d="M1.729 0.068 Q0.566 0.235 0.637 0.839" stroke="hsl(120.0,100%,35%)" stroke-width="0.00044"></path>
<path d="M1.729 0.068 Q1.116 0.122 1.087 0.433" stroke="hsl(120.0,100%,35%)" stroke-width="0.00044"></path>
<path d="M1.729 0.068 Q0.967 -0.067 0.537 0.276" stroke="hsl(120.0,100%,35%)" stroke-width="0.00015"></path>
<path d="M1.729 0.068 Q0.829 -0.181 0.147 0.204" stroke="hsl(120.0,100%,35%)" stroke-width="0.00015"></path>
<path d="M1.729 0.068 Q1.222 0.044 1.066 0.287" stroke="hsl(120.0,100%,35%)" stroke-width="0.00015"></path>
<path d="M1.729 0.068 Q1.722 0.131 1.844 0.148" stroke="hsl(120.0,100%,35%)" stroke-width="0.00679"></path>
<path d="M1.729 0.068 Q1.635 0.041 1.562 0.081" stroke="hsl(120.0,100%,35%)" stroke-width="0.00015"></path>
<path d="M1.729 0.068 Q0.752 -0.145 0.122 0.285" stroke="hsl(120.0,100%,35%)" stroke-width="0.00030"></path>
<path d="M1.729 0.068 Q1.585 0.079 1.576 0.152" stroke="hsl(120.0,100%,35%)" stroke-width="0.00044"></path>
<path d="M1.729 0.068 Q0.812 0.450 1.356 0.981" stroke="hsl(120.0,100%,35%)" stroke-width="0.00015"></path>
<path d="M1.729 0.068 Q1.506 0.115 1.549 0.234" stroke="hsl(120.0,100%,35%)" stroke-width="0.00030"></path>
<path d="M1.729 0.068 Q0.844 -0.051 0.418 0.356" stroke="hsl(120.0,100%,35%)" stroke-width="0.00015"></path>
<path d="M0.537 0.276 Q0.414 0.292 0.418 0.356" stroke="hsl(120.0,100%,35%)" stroke-width="0.00177"></path>
<path d="M0.537 0.276 Q0.493 0.349 0.626 0.387" stroke="hsl(120.0,100%,35%)" stroke-width="0.00044"></path>
<path d="M0.537 0.276 Q0.012 0.473 0.282 0.772" stroke="hsl(120.0,100%,35%)" stroke-width="0.00015"></path>
<path d="M0.537 0.276 Q1.293 0.473 1.844 0.148" stroke="hsl(120.0,100%,35%)" stroke-width="0.00044"></path>
<path d="M0.537 0.276 Q0.383 0.792 1.356 0.981" stroke="hsl(120.0,100%,35%)" stroke-width="0.00030"></path>
<path d="M0.537 0.276 Q0.137 0.577 0.637 0.839" stroke="hsl(120.0,100%,35%)" stroke-width="0.00015"></path>
<path d="M0.537 0.276 Q0.793 0.387 1.066 0.287" stroke="hsl(120.0,100%,35%)" stroke-width="0.00015"></path>
<path d="M0.537 0.276 Q0.330 0.346 0.421 0.462" stroke="hsl(120.0,100%,35%)" stroke-width="0.00015"></path>
<path d="M0.454 0.192 Q1.184 0.448 1.844 0.148" stroke="hsl(120.0,100%,35%)" stroke-width="0.00074"></path>
<path d="M0.454 0.192 Q0.305 0.267 0.418 0.356" stroke="hsl(120.0,100%,35%)" stroke-width="0.00148"></path>
<path d="M0.454 0.192 Q1.047 0.396 1.576 0.152" stroke="hsl(120.0,100%,35%)" stroke-width="0.00015"></path>
<path d="M0.454 0.192 Q0.028 0.552 0.637 0.839" stroke="hsl(120.0,100%,35%)" stroke-width="0.00015"></path>
<path d="M0.454 0.192 Q0.467 0.615 1.296 0.702" stroke="hsl(120.0,100%,35%)" stroke-width="0.00015"></path>
<path d="M0.454 0.192 Q0.429 0.250 0.537 0.276" stroke="hsl(120.0,100%,35%)" stroke-width="0.00089"></path>
<path d="M0.454 0.192 Q0.396 0.773 1.518 0.929" stroke="hsl(120.0,100%,35%)" stroke-width="0.00015"></path>
<path d="M0.454 0.192 Q0.663 0.403 1.120 0.347" stroke="hsl(120.0,100%,35%)" stroke-width="0.00015"></path>
<path d="M0.147 0.204 Q1.040 0.515 1.844 0.148" stroke="hsl(240.0,100%,35%)" stroke-width="0.00044"></path>
<path d="M0.147 0.204 Q0.070 0.240 0.122 0.285" stroke="hsl(240.0,100%,35%)" stroke-width="0.00340"></path>
<path d="M0.147 0.204 Q0.031 0.278 0.150 0.351" stroke="hsl(240.0,100%,35%)" stroke-width="0.00030"></path>
<path d="M0.147 0.204 Q0.285 0.318 0.537 0.276" stroke="hsl(240.0,100%,35%)" stroke-width="0.00015"></path>
<path d="M0.147 0.204 Q-0.397 0.545 0.149 0.885" stroke="hsl(240.0,100%,35%)" stroke-width="0.00030"></path>
<path d="M0.147 0.204 Q0.213 0.759 1.311 0.849" stroke="hsl(240.0,100%,35%)" stroke-width="0.00015"></path>
<path d="M0.147 0.204 Q0.161 0.334 0.418 0.356" stroke="hsl(240.0,100%,35%)" stroke-width="0.00030"></path>
<path d="M0.147 0.204 Q-0.116 0.620 0.637 0.839" stroke="hsl(240.0,100%,35%)" stroke-width="0.00222"></path>
<path d="M0.147 0.204 Q0.519 0.470 1.120 0.347" stroke="hsl(240.0,100%,35%)" stroke-width="0.00015"></path>
<path d="M0.147 0.204 Q-0.067 0.752 0.954 0.977" stroke="hsl(240.0,100%,35%)" stroke-width="0.00015"></path>
<path d="M1.356 0.981 Q1.439 0.906 1.311 0.849" stroke="hsl(120.0,100%,35%)" stroke-width="0.00399"></path>
<path d="M1.356 0.981 Q1.479 0.987 1.518 0.929" stroke="hsl(120.0,100%,35%)" stroke-width="0.00635"></path>
<path d="M1.356 0.981 Q1.220 0.939 1.107 0.996" stroke="hsl(120.0,100%,35%)" stroke-width="0.00148"></path>
<path d="M1.356 0.981 Q1.296 0.386 0.122 0.285" stroke="hsl(120.0,100%,35%)" stroke-width="0.00074"></path>
<path d="M1.356 0.981 Q2.266 0.662 1.844 0.148" stroke="hsl(120.0,100%,35%)" stroke-width="0.00118"></path>
<path d="M1.356 0.981 Q0.829 0.692 0.149 0.885" stroke="hsl(120.0,100%,35%)" stroke-width="0.00118"></path>
<path d="M1.356 0.981 Q1.110 0.766 0.637 0.839" stroke="hsl(120.0,100%,35%)" stroke-width="0.00177"></path>
<path d="M1.356 0.981 Q1.100 0.817 0.726 0.906" stroke="hsl(120.0,100%,35%)" stroke-width="0.00236"></path>
<path d="M1.356 0.981 Q1.511 0.464 0.537 0.276" stroke="hsl(120.0,100%,35%)" stroke-width="0.00015"></path>
<path d="M1.356 0.981 Q1.594 0.943 1.572 0.819" stroke="hsl(120.0,100%,35%)" stroke-width="0.00015"></path>
<path d="M1.356 0.981 Q1.447 0.763 1.042 0.671" stroke="hsl(120.0,100%,35%)" stroke-width="0.00015"></path>
<path d="M1.356 0.981 Q2.273 0.599 1.729 0.068" stroke="hsl(120.0,100%,35%)" stroke-width="0.00015"></path>
<path d="M1.356 0.981 Q1.546 0.658 0.957 0.494" stroke="hsl(120.0,100%,35%)" stroke-width="0.00015"></path>
<path d="M1.356 0.981 Q1.550 0.829 1.296 0.702" stroke="hsl(120.0,100%,35%)" stroke-width="0.00015"></path>
<path d="M1.107 0.996 Q1.244 1.038 1.356 0.981" stroke="hsl(0.0,100%,35%)" stroke-width="0.00384"></path>
<path d="M1.107 0.996 Q1.327 0.963 1.311 0.849" stroke="hsl(0.0,100%,35%)" stroke-width="0.00044"></path>
<path d="M1.107 0.996 Q1.046 0.956 0.954 0.977" stroke="hsl(0.0,100%,35%)" stroke-width="0.00207"></path>
<path d="M1.107 0.996 Q2.154 0.719 1.844 0.148" stroke="hsl(0.0,100%,35%)" stroke-width="0.00015"></path>
<path d="M1.107 0.996 Q1.125 0.968 1.074 0.953" stroke="hsl(0.0,100%,35%)" stroke-width="0.00030"></path>
<path d="M1.107 0.996 Q1.183 0.444 0.122 0.285" stroke="hsl(0.0,100%,35%)" stroke-width="0.00177"></path>
<path d="M1.107 0.996 Q1.244 0.763 0.819 0.645" stroke="hsl(0.0,100%,35%)" stroke-width="0.00015"></path>
<path d="M1.107 0.996 Q1.354 0.595 0.626 0.387" stroke="hsl(0.0,100%,35%)" stroke-width="0.00015"></path>
<path d="M0.122 0.285 Q0.593 0.475 1.066 0.287" stroke="hsl(240.0,100%,35%)" stroke-width="0.00015"></path>
<path d="M0.122 0.285 Q0.572 0.516 1.120 0.347" stroke="hsl(240.0,100%,35%)" stroke-width="0.00030"></path>
<path d="M0.122 0.285 Q-0.345 0.591 0.149 0.885" stroke="hsl(240.0,100%,35%)" stroke-width="0.00015"></path>
<path d="M0.122 0.285 Q-0.063 0.665 0.637 0.839" stroke="hsl(240.0,100%,35%)" stroke-width="0.00044"></path>
<path d="M0.122 0.285 Q0.200 0.250 0.147 0.204" stroke="hsl(240.0,100%,35%)" stroke-width="0.00030"></path>
<path d="M0.122 0.285 Q0.305 0.886 1.518 0.929" stroke="hsl(240.0,100%,35%)" stroke-width="0.00015"></path>
<path d="M0.122 0.285 Q-0.073 0.716 0.726 0.906" stroke="hsl(240.0,100%,35%)" stroke-width="0.00030"></path>
<path d="M0.122 0.285 Q-0.187 0.561 0.282 0.772" stroke="hsl(240.0,100%,35%)" stroke-width="0.00030"></path>
<path d="M0.122 0.285 Q0.046 0.838 1.107 0.996" stroke="hsl(240.0,100%,35%)" stroke-width="0.00015"></path>
<path d="M0.122 0.285 Q-0.015 0.797 0.954 0.977" stroke="hsl(240.0,100%,35%)" stroke-width="0.00015"></path>
<path d="M0.819 0.645 Q0.448 0.601 0.282 0.772" stroke="hsl(240.0,100%,35%)" stroke-width="0.01920"></path>
<path d="M0.819 0.645 Q0.291 0.631 0.149 0.885" stroke="hsl(240.0,100%,35%)" stroke-width="0.00872"></path>
<path d="M0.819 0.645 Q0.573 0.706 0.637 0.839" stroke="hsl(240.0,100%,35%)" stroke-width="0.00015"></path>
<path d="M0.819 0.645 Q1.394 0.464 1.167 0.144" stroke="hsl(240.0,100%,35%)" stroke-width="0.00015"></path>
<path d="M0.819 0.645 Q0.621 0.838 0.954 0.977" stroke="hsl(240.0,100%,35%)" stroke-width="0.00015"></path>
<path d="M0.819 0.645 Q1.229 0.515 1.066 0.287" stroke="hsl(240.0,100%,35%)" stroke-width="0.00044"></path>
<path d="M0.667 0.966 Q0.744 0.948 0.726 0.906" stroke="hsl(120.0,100%,35%)" stroke-width="0.00975"></path>
<path d="M0.667 0.966 Q1.083 1.036 1.311 0.849" stroke="hsl(120.0,100%,35%)" stroke-width="0.00133"></path>
<path d="M0.667 0.966 Q1.090 0.893 1.042 0.671" stroke="hsl(120.0,100%,35%)" stroke-width="0.00015"></path>
<path d="M0.667 0.966 Q0.668 1.047 0.826 1.064" stroke="hsl(120.0,100%,35%)" stroke-width="0.00015"></path>
<path d="M0.667 0.966 Q1.016 0.481 0.147 0.204" stroke="hsl(120.0,100%,35%)" stroke-width="0.00015"></path>
<path d="M0.667 0.966 Q1.193 0.960 1.296 0.702" stroke="hsl(120.0,100%,35%)" stroke-width="0.00015"></path>
<path d="M1.518 0.929 Q1.396 0.922 1.356 0.981" stroke="hsl(120.0,100%,35%)" stroke-width="0.00901"></path>
<path d="M1.518 0.929 Q1.699 0.594 1.087 0.433" stroke="hsl(120.0,100%,35%)" stroke-width="0.00103"></path>
<path d="M1.518 0.929 Q2.305 0.604 1.844 0.148" stroke="hsl(120.0,100%,35%)" stroke-width="0.00044"></path>
<path d="M1.518 0.929 Q1.149 0.708 0.637 0.839" stroke="hsl(120.0,100%,35%)" stroke-width="0.00015"></path>
<path d="M1.518 0.929 Q1.343 0.476 0.421 0.462" stroke="hsl(120.0,100%,35%)" stroke-width="0.00015"></path>
<path d="M1.518 0.929 Q1.478 0.847 1.311 0.849" stroke="hsl(120.0,100%,35%)" stroke-width="0.00015"></path>
<path d="M0.927 0.037 Q0.418 0.095 0.418 0.356" stroke="hsl(120.0,100%,35%)" stroke-width="0.00059"></path>
<path d="M0.927 0.037 Q-0.141 0.306 0.149 0.885" stroke="hsl(120.0,100%,35%)" stroke-width="0.00015"></path>
<path d="M0.927 0.037 Q0.796 0.190 1.066 0.287" stroke="hsl(120.0,100%,35%)" stroke-width="0.00044"></path>
<path d="M0.927 0.037 Q0.140 0.380 0.637 0.839" stroke="hsl(120.0,100%,35%)" stroke-width="0.00030"></path>
<path d="M0.927 0.037 Q0.806 -0.019 0.669 0.027" stroke="hsl(120.0,100%,35%)" stroke-width="0.00015"></path>
<path d="M1.341 0.425 Q0.995 0.488 1.042 0.671" stroke="hsl(240.0,100%,35%)" stroke-width="0.00015"></path>
<path d="M1.341 0.425 Q1.411 0.479 1.533 0.458" stroke="hsl(240.0,100%,35%)" stroke-width="0.00015"></path>
<path d="M1.341 0.425 Q0.658 0.491 0.637 0.839" stroke="hsl(240.0,100%,35%)" stroke-width="0.00044"></path>
<path d="M1.429 0.353 Q1.279 0.288 1.120 0.347" stroke="hsl(0.0,100%,35%)" stroke-width="0.00369"></path>
<path d="M1.429 0.353 Q1.431 0.095 0.927 0.037" stroke="hsl(0.0,100%,35%)" stroke-width="0.00044"></path>
<path d="M1.429 0.353 Q0.644 0.438 0.637 0.839" stroke="hsl(0.0,100%,35%)" stroke-width="0.00030"></path>
<path d="M1.429 0.353 Q1.466 0.196 1.167 0.144" stroke="hsl(0.0,100%,35%)" stroke-width="0.00015"></path>
<path d="M1.429 0.353 Q1.084 0.501 1.296 0.702" stroke="hsl(0.0,100%,35%)" stroke-width="0.00015"></path>
<path d="M1.429 0.353 Q1.071 0.078 0.454 0.192" stroke="hsl(0.0,100%,35%)" stroke-width="0.00015"></path>
<path d="M1.549 0.234 Q1.765 0.250 1.844 0.148" stroke="hsl(120.0,100%,35%)" stroke-width="0.00133"></path>
<path d="M1.549 0.234 Q0.609 0.354 0.637 0.839" stroke="hsl(120.0,100%,35%)" stroke-width="0.00059"></path>
<path d="M1.549 0.234 Q1.772 0.187 1.729 0.068" stroke="hsl(120.0,100%,35%)" stroke-width="0.00030"></path>
<path d="M1.747 0.256 Q1.882 0.221 1.844 0.148" stroke="hsl(120.0,100%,35%)" stroke-width="0.00030"></path>
<path d="M1.747 0.256 Q1.776 0.328 1.923 0.330" stroke="hsl(120.0,100%,35%)" stroke-width="0.00015"></path>
<path d="M1.023 0.850 Q0.839 0.768 0.637 0.839" stroke="hsl(240.0,100%,35%)" stroke-width="0.00015"></path>
<path d="M1.023 0.850 Q0.829 0.819 0.726 0.906" stroke="hsl(240.0,100%,35%)" stroke-width="0.00030"></path>
<path d="M1.023 0.850 Q1.012 0.883 1.074 0.896" stroke="hsl(240.0,100%,35%)" stroke-width="0.00015"></path>
<path d="M0.715 0.408 Q0.517 0.228 0.122 0.285" stroke="hsl(120.0,100%,35%)" stroke-width="0.00015"></path>
<path d="M0.715 0.408 Q0.688 0.380 0.626 0.387" stroke="hsl(120.0,100%,35%)" stroke-width="0.00015"></path>
<path d="M0.715 0.408 Q0.555 0.501 0.702 0.600" stroke="hsl(120.0,100%,35%)" stroke-width="0.00015"></path>
<path d="M0.253 0.243 Q0.154 0.238 0.122 0.285" stroke="hsl(120.0,100%,35%)" stroke-width="0.00044"></path>
<path d="M0.253 0.243 Q0.232 0.202 0.147 0.204" stroke="hsl(120.0,100%,35%)" stroke-width="0.00044"></path>
<path d="M0.253 0.243 Q0.335 0.182 0.233 0.129" stroke="hsl(120.0,100%,35%)" stroke-width="0.00015"></path>
<path d="M1.606 0.287 Q1.009 0.509 1.311 0.849" stroke="hsl(120.0,100%,35%)" stroke-width="0.00015"></path>
<path d="M1.606 0.287 Q1.836 0.265 1.844 0.148" stroke="hsl(120.0,100%,35%)" stroke-width="0.00103"></path>
<path d="M1.606 0.287 Q1.119 0.433 1.296 0.702" stroke="hsl(120.0,100%,35%)" stroke-width="0.00015"></path>
<path d="M1.606 0.287 Q0.398 0.295 0.149 0.885" stroke="hsl(120.0,100%,35%)" stroke-width="0.00015"></path>
<path d="M1.606 0.287 Q0.680 0.369 0.637 0.839" stroke="hsl(120.0,100%,35%)" stroke-width="0.00015"></path>
</g>
<text x="1.572" y="0.800" font-size="0.037365" fill="hsl(0.0,100%,20%)">adlai</text>
<text x="1.296" y="0.675" font-size="0.052876" fill="hsl(0.0,100%,20%)">robertphillips</text>
<text x="1.087" y="0.414" font-size="0.038045" fill="hsl(0.0,100%,20%)">csmartdalton</text>
<text x="0.421" y="0.454" font-size="0.016355" fill="hsl(120.0,100%,20%)">rmistry</text>
<text x="0.418" y="0.344" font-size="0.022324" fill="hsl(120.0,100%,20%)">borenet</text>
<text x="0.637" y="0.814" font-size="0.050392" fill="hsl(240.0,100%,20%)">mtklein</text>
<text x="1.066" y="0.258" font-size="0.056657" fill="hsl(0.0,100%,20%)">bsalomon</text>
<text x="1.167" y="0.126" font-size="0.034669" fill="hsl(0.0,100%,20%)">jvanverth</text>
<text x="1.311" y="0.830" font-size="0.037706" fill="hsl(240.0,100%,20%)">reed</text>
<text x="0.149" y="0.848" font-size="0.074803" fill="hsl(240.0,100%,20%)">brianosman</text>
<text x="1.844" y="0.131" font-size="0.033486" fill="hsl(120.0,100%,20%)">kjlubick</text>
<text x="1.042" y="0.651" font-size="0.039925" fill="hsl(0.0,100%,20%)">herb</text>
<text x="0.726" y="0.889" font-size="0.034827" fill="hsl(0.0,100%,20%)">bungeman</text>
<text x="1.120" y="0.325" font-size="0.044524" fill="hsl(0.0,100%,20%)">egdaniel</text>
<text x="0.282" y="0.734" font-size="0.076522" fill="hsl(240.0,100%,20%)">johnstiles</text>
<text x="0.957" y="0.474" font-size="0.039556" fill="hsl(0.0,100%,20%)">michaelludwig</text>
<text x="1.729" y="0.057" font-size="0.021316" fill="hsl(120.0,100%,20%)">nifong</text>
<text x="0.537" y="0.268" font-size="0.014452" fill="hsl(120.0,100%,20%)">jcgregorio</text>
<text x="0.454" y="0.185" font-size="0.013400" fill="hsl(120.0,100%,20%)">westont</text>
<text x="0.147" y="0.195" font-size="0.017440" fill="hsl(240.0,100%,20%)">scroggo</text>
<text x="1.356" y="0.964" font-size="0.033649" fill="hsl(120.0,100%,20%)">fmalita</text>
<text x="1.107" y="0.988" font-size="0.016355" fill="hsl(0.0,100%,20%)">jmbetancourt</text>
<text x="0.122" y="0.277" font-size="0.017228" fill="hsl(240.0,100%,20%)">djsollen</text>
<text x="0.819" y="0.623" font-size="0.042546" fill="hsl(240.0,100%,20%)">ethannicholas</text>
<text x="0.626" y="0.383" font-size="0.007162" fill="hsl(120.0,100%,20%)">hcm</text>
<text x="0.401" y="0.891" font-size="0.001914" fill="hsl(240.0,100%,20%)">dalecurtis</text>
<text x="0.954" y="0.972" font-size="0.008561" fill="hsl(0.0,100%,20%)">stani</text>
<text x="0.860" y="1.544" font-size="0.003828" fill="hsl(120.0,100%,20%)">drott</text>
<text x="0.667" y="0.955" font-size="0.022076" fill="hsl(120.0,100%,20%)">jlavrova</text>
<text x="0.768" y="0.765" font-size="0.001914" fill="hsl(120.0,100%,20%)">xster</text>
<text x="0.846" y="0.930" font-size="0.001914" fill="hsl(120.0,100%,20%)">dmazzoni</text>
<text x="1.518" y="0.918" font-size="0.021487" fill="hsl(120.0,100%,20%)">tdenniston</text>
<text x="0.927" y="0.033" font-size="0.007162" fill="hsl(120.0,100%,20%)">cwallez</text>
<text x="0.669" y="0.026" font-size="0.001914" fill="hsl(120.0,100%,20%)">zmo</text>
<text x="1.341" y="0.422" font-size="0.004280" fill="hsl(240.0,100%,20%)">dragonbear</text>
<text x="1.533" y="0.456" font-size="0.002707" fill="hsl(240.0,100%,20%)">guruji</text>
<text x="0.820" y="0.112" font-size="0.001914" fill="hsl(0.0,100%,20%)">sugoi</text>
<text x="0.618" y="0.119" font-size="0.001914" fill="hsl(0.0,100%,20%)">enga</text>
<text x="1.429" y="0.348" font-size="0.011325" fill="hsl(0.0,100%,20%)">senorblanco</text>
<text x="0.770" y="0.431" font-size="0.001914" fill="hsl(0.0,100%,20%)">emircan</text>
<text x="0.775" y="0.146" font-size="0.001914" fill="hsl(0.0,100%,20%)">penghuang</text>
<text x="1.549" y="0.230" font-size="0.007893" fill="hsl(120.0,100%,20%)">elliotevans</text>
<text x="1.747" y="0.254" font-size="0.004280" fill="hsl(120.0,100%,20%)">het</text>
<text x="1.923" y="0.327" font-size="0.006631" fill="hsl(120.0,100%,20%)">yjbanov</text>
<text x="1.023" y="0.849" font-size="0.003828" fill="hsl(240.0,100%,20%)">james</text>
<text x="1.074" y="0.895" font-size="0.001914" fill="hsl(240.0,100%,20%)">cbracken</text>
<text x="0.826" y="1.063" font-size="0.001914" fill="hsl(120.0,100%,20%)">jsimmons</text>
<text x="1.074" y="0.952" font-size="0.002707" fill="hsl(0.0,100%,20%)">fuego</text>
<text x="1.341" y="0.199" font-size="0.001914" fill="hsl(0.0,100%,20%)">chinmaygarde</text>
<text x="1.576" y="0.149" font-size="0.006053" fill="hsl(120.0,100%,20%)">lovisolo</text>
<text x="1.353" y="0.481" font-size="0.001914" fill="hsl(0.0,100%,20%)">fs</text>
<text x="0.454" y="0.924" font-size="0.001914" fill="hsl(120.0,100%,20%)">pefoley</text>
<text x="0.531" y="0.207" font-size="0.001914" fill="hsl(240.0,100%,20%)">vyng</text>
<text x="0.484" y="0.466" font-size="0.001914" fill="hsl(120.0,100%,20%)">shuangshuang.zhou</text>
<text x="1.562" y="0.080" font-size="0.001914" fill="hsl(120.0,100%,20%)">alecmouri</text>
<text x="0.715" y="0.406" font-size="0.003316" fill="hsl(120.0,100%,20%)">nikolay.igotti</text>
<text x="0.702" y="0.599" font-size="0.001914" fill="hsl(120.0,100%,20%)">jsproch</text>
<text x="0.946" y="0.770" font-size="0.001914" fill="hsl(240.0,100%,20%)">thiabaud</text>
<text x="1.055" y="0.783" font-size="0.001914" fill="hsl(120.0,100%,20%)">jimgraham</text>
<text x="1.184" y="0.535" font-size="0.001914" fill="hsl(0.0,100%,20%)">kobi.robinson</text>
<text x="1.287" y="0.559" font-size="0.001914" fill="hsl(0.0,100%,20%)">trevor.barton</text>
<text x="0.150" y="0.350" font-size="0.002707" fill="hsl(120.0,100%,20%)">nigeltao</text>
<text x="0.253" y="0.241" font-size="0.005065" fill="hsl(120.0,100%,20%)">vigneshv</text>
<text x="0.233" y="0.128" font-size="0.001914" fill="hsl(0.0,100%,20%)">chz</text>
<text x="1.606" y="0.284" font-size="0.006349" fill="hsl(120.0,100%,20%)">zepenghu</text>
</svg>
