<svg width="4000" height="2000" viewBox="-0.025 -0.025 2.05 1.05" xmlns="http://www.w3.org/2000/svg">
  <style>
    path {
      fill: none;
      stroke-linecap: round;
      stroke-opacity: 0.4;
    }

    text {
      text-anchor: middle;
      alignment-baseline: hanging;
    }
  </style>
  <g opacity="0.4">
<path d="M1.649 0.194 Q1.286 -0.056 0.719 0.067" stroke="hsl(0.0,100%,35%)" stroke-width="0.00139"></path>
<path d="M1.649 0.194 Q0.700 0.193 0.489 0.656" stroke="hsl(0.0,100%,35%)" stroke-width="0.00279"></path>
<path d="M1.649 0.194 Q1.472 0.060 1.173 0.117" stroke="hsl(0.0,100%,35%)" stroke-width="0.00279"></path>
<path d="M1.649 0.194 Q1.414 0.307 1.584 0.447" stroke="hsl(0.0,100%,35%)" stroke-width="0.00139"></path>
<path d="M0.719 0.067 Q0.905 0.183 1.173 0.117" stroke="hsl(180.0,100%,35%)" stroke-width="0.00279"></path>
<path d="M0.719 0.067 Q0.714 0.299 1.166 0.352" stroke="hsl(180.0,100%,35%)" stroke-width="0.00139"></path>
<path d="M0.719 0.067 Q0.457 0.504 1.253 0.727" stroke="hsl(180.0,100%,35%)" stroke-width="0.00139"></path>
<path d="M0.719 0.067 Q0.092 0.132 0.083 0.452" stroke="hsl(180.0,100%,35%)" stroke-width="0.00139"></path>
<path d="M0.719 0.067 Q0.390 0.164 0.509 0.346" stroke="hsl(180.0,100%,35%)" stroke-width="0.00418"></path>
<path d="M0.719 0.067 Q0.589 0.102 0.631 0.173" stroke="hsl(180.0,100%,35%)" stroke-width="0.00557"></path>
<path d="M0.719 0.067 Q0.400 0.080 0.355 0.238" stroke="hsl(180.0,100%,35%)" stroke-width="0.00418"></path>
<path d="M0.719 0.067 Q0.133 0.315 0.489 0.656" stroke="hsl(180.0,100%,35%)" stroke-width="0.00139"></path>
<path d="M0.489 0.656 Q0.449 0.473 0.083 0.452" stroke="hsl(0.0,100%,35%)" stroke-width="0.02228"></path>
<path d="M0.489 0.656 Q0.288 0.666 0.264 0.766" stroke="hsl(0.0,100%,35%)" stroke-width="0.00696"></path>
<path d="M0.489 0.656 Q1.071 0.639 1.166 0.352" stroke="hsl(0.0,100%,35%)" stroke-width="0.00696"></path>
<path d="M0.489 0.656 Q0.410 0.531 0.148 0.542" stroke="hsl(0.0,100%,35%)" stroke-width="0.00418"></path>
<path d="M0.489 0.656 Q1.262 0.523 1.173 0.117" stroke="hsl(0.0,100%,35%)" stroke-width="0.00139"></path>
<path d="M0.489 0.656 Q0.946 0.443 0.631 0.173" stroke="hsl(0.0,100%,35%)" stroke-width="0.00696"></path>
<path d="M0.489 0.656 Q0.757 0.420 0.355 0.238" stroke="hsl(0.0,100%,35%)" stroke-width="0.00279"></path>
<path d="M0.489 0.656 Q1.203 0.770 1.584 0.447" stroke="hsl(0.0,100%,35%)" stroke-width="0.00279"></path>
<path d="M1.173 0.117 Q0.986 0.001 0.719 0.067" stroke="hsl(180.0,100%,35%)" stroke-width="0.01114"></path>
<path d="M1.173 0.117 Q0.668 0.014 0.355 0.238" stroke="hsl(180.0,100%,35%)" stroke-width="0.00557"></path>
<path d="M1.173 0.117 Q0.360 0.067 0.083 0.452" stroke="hsl(180.0,100%,35%)" stroke-width="0.00279"></path>
<path d="M1.173 0.117 Q0.400 0.250 0.489 0.656" stroke="hsl(180.0,100%,35%)" stroke-width="0.00279"></path>
<path d="M1.173 0.117 Q1.033 0.078 0.927 0.138" stroke="hsl(180.0,100%,35%)" stroke-width="0.00279"></path>
<path d="M1.173 0.117 Q0.855 0.117 0.784 0.272" stroke="hsl(180.0,100%,35%)" stroke-width="0.00139"></path>
<path d="M1.584 0.447 Q1.451 0.316 1.166 0.352" stroke="hsl(0.0,100%,35%)" stroke-width="0.00557"></path>
<path d="M1.584 0.447 Q0.829 0.149 0.083 0.452" stroke="hsl(0.0,100%,35%)" stroke-width="0.00139"></path>
<path d="M1.584 0.447 Q0.870 0.332 0.489 0.656" stroke="hsl(0.0,100%,35%)" stroke-width="0.00696"></path>
<path d="M0.413 0.355 Q0.478 0.285 0.355 0.238" stroke="hsl(0.0,100%,35%)" stroke-width="0.00418"></path>
<path d="M0.413 0.355 Q0.170 0.337 0.083 0.452" stroke="hsl(0.0,100%,35%)" stroke-width="0.00279"></path>
<path d="M0.413 0.355 Q0.983 0.388 1.173 0.117" stroke="hsl(0.0,100%,35%)" stroke-width="0.00139"></path>
<path d="M0.355 0.238 Q0.674 0.225 0.719 0.067" stroke="hsl(180.0,100%,35%)" stroke-width="0.01532"></path>
<path d="M0.355 0.238 Q0.670 0.457 1.166 0.352" stroke="hsl(180.0,100%,35%)" stroke-width="0.00279"></path>
<path d="M0.355 0.238 Q0.542 0.341 0.784 0.272" stroke="hsl(180.0,100%,35%)" stroke-width="0.00139"></path>
<path d="M0.355 0.238 Q0.048 0.291 0.083 0.452" stroke="hsl(180.0,100%,35%)" stroke-width="0.00557"></path>
<path d="M0.355 0.238 Q0.430 0.150 0.275 0.095" stroke="hsl(180.0,100%,35%)" stroke-width="0.00139"></path>
<path d="M0.355 0.238 Q0.802 0.588 1.584 0.447" stroke="hsl(180.0,100%,35%)" stroke-width="0.00418"></path>
<path d="M0.355 0.238 Q0.301 0.349 0.506 0.400" stroke="hsl(180.0,100%,35%)" stroke-width="0.01950"></path>
<path d="M0.355 0.238 Q0.088 0.474 0.489 0.656" stroke="hsl(180.0,100%,35%)" stroke-width="0.01950"></path>
<path d="M0.355 0.238 Q0.346 0.323 0.509 0.346" stroke="hsl(180.0,100%,35%)" stroke-width="0.00557"></path>
<path d="M0.355 0.238 Q0.009 0.348 0.148 0.542" stroke="hsl(180.0,100%,35%)" stroke-width="0.00557"></path>
<path d="M0.355 0.238 Q0.861 0.341 1.173 0.117" stroke="hsl(180.0,100%,35%)" stroke-width="0.00975"></path>
<path d="M0.355 0.238 Q0.545 0.261 0.631 0.173" stroke="hsl(180.0,100%,35%)" stroke-width="0.01114"></path>
<path d="M0.083 0.452 Q0.837 0.750 1.584 0.447" stroke="hsl(0.0,100%,35%)" stroke-width="0.01114"></path>
<path d="M0.083 0.452 Q0.123 0.635 0.489 0.656" stroke="hsl(0.0,100%,35%)" stroke-width="0.01950"></path>
<path d="M0.083 0.452 Q0.391 0.399 0.355 0.238" stroke="hsl(0.0,100%,35%)" stroke-width="0.00139"></path>
<path d="M0.083 0.452 Q0.381 0.484 0.509 0.346" stroke="hsl(0.0,100%,35%)" stroke-width="0.00139"></path>
<path d="M0.774 0.603 Q0.510 0.447 0.148 0.542" stroke="hsl(0.0,100%,35%)" stroke-width="0.00139"></path>
<path d="M0.774 0.603 Q0.590 0.572 0.489 0.656" stroke="hsl(0.0,100%,35%)" stroke-width="0.00279"></path>
<path d="M0.774 0.603 Q1.304 0.687 1.584 0.447" stroke="hsl(0.0,100%,35%)" stroke-width="0.00139"></path>
<path d="M0.148 0.542 Q0.228 0.667 0.489 0.656" stroke="hsl(0.0,100%,35%)" stroke-width="0.01811"></path>
<path d="M0.148 0.542 Q0.027 0.677 0.264 0.766" stroke="hsl(0.0,100%,35%)" stroke-width="0.00418"></path>
<path d="M0.148 0.542 Q0.187 0.484 0.083 0.452" stroke="hsl(0.0,100%,35%)" stroke-width="0.01671"></path>
<path d="M0.148 0.542 Q1.000 0.534 1.173 0.117" stroke="hsl(0.0,100%,35%)" stroke-width="0.00279"></path>
<path d="M0.148 0.542 Q0.942 0.782 1.584 0.447" stroke="hsl(0.0,100%,35%)" stroke-width="0.00557"></path>
<path d="M0.927 0.138 Q1.066 0.177 1.173 0.117" stroke="hsl(180.0,100%,35%)" stroke-width="0.01671"></path>
<path d="M0.927 0.138 Q0.214 0.184 0.148 0.542" stroke="hsl(180.0,100%,35%)" stroke-width="0.00139"></path>
<path d="M0.927 0.138 Q0.093 0.319 0.264 0.766" stroke="hsl(180.0,100%,35%)" stroke-width="0.00139"></path>
<path d="M0.927 0.138 Q0.294 0.309 0.489 0.656" stroke="hsl(180.0,100%,35%)" stroke-width="0.00279"></path>
<path d="M0.927 0.138 Q0.561 0.074 0.355 0.238" stroke="hsl(180.0,100%,35%)" stroke-width="0.00139"></path>
<path d="M1.116 0.477 Q0.580 0.316 0.148 0.542" stroke="hsl(0.0,100%,35%)" stroke-width="0.00279"></path>
<path d="M1.116 0.477 Q1.241 0.424 1.166 0.352" stroke="hsl(0.0,100%,35%)" stroke-width="0.00557"></path>
<path d="M1.116 0.477 Q0.459 0.451 0.264 0.766" stroke="hsl(0.0,100%,35%)" stroke-width="0.00279"></path>
<path d="M1.166 0.352 Q1.298 0.483 1.584 0.447" stroke="hsl(0.0,100%,35%)" stroke-width="0.00696"></path>
<path d="M1.166 0.352 Q0.584 0.368 0.489 0.656" stroke="hsl(0.0,100%,35%)" stroke-width="0.00139"></path>
<path d="M1.166 0.352 Q0.544 0.185 0.083 0.452" stroke="hsl(0.0,100%,35%)" stroke-width="0.00139"></path>
<path d="M0.264 0.766 Q0.465 0.756 0.489 0.656" stroke="hsl(0.0,100%,35%)" stroke-width="0.01114"></path>
<path d="M0.264 0.766 Q1.046 0.739 1.166 0.352" stroke="hsl(0.0,100%,35%)" stroke-width="0.00139"></path>
<path d="M0.264 0.766 Q0.806 0.433 0.275 0.095" stroke="hsl(0.0,100%,35%)" stroke-width="0.00139"></path>
<path d="M0.264 0.766 Q1.179 0.871 1.584 0.447" stroke="hsl(0.0,100%,35%)" stroke-width="0.00139"></path>
<path d="M0.264 0.766 Q0.424 0.573 0.083 0.452" stroke="hsl(0.0,100%,35%)" stroke-width="0.00696"></path>
<path d="M0.264 0.766 Q1.237 0.623 1.173 0.117" stroke="hsl(0.0,100%,35%)" stroke-width="0.00139"></path>
<path d="M1.409 0.127 Q0.793 -0.028 0.355 0.238" stroke="hsl(180.0,100%,35%)" stroke-width="0.00279"></path>
<path d="M1.409 0.127 Q1.299 0.075 1.173 0.117" stroke="hsl(180.0,100%,35%)" stroke-width="0.00279"></path>
<path d="M0.275 0.095 Q0.390 0.205 0.631 0.173" stroke="hsl(180.0,100%,35%)" stroke-width="0.02507"></path>
<path d="M0.275 0.095 Q0.201 0.182 0.355 0.238" stroke="hsl(180.0,100%,35%)" stroke-width="0.02368"></path>
<path d="M0.275 0.095 Q0.520 0.169 0.719 0.067" stroke="hsl(180.0,100%,35%)" stroke-width="0.01811"></path>
<path d="M0.275 0.095 Q-0.150 0.615 0.770 0.936" stroke="hsl(180.0,100%,35%)" stroke-width="0.00139"></path>
<path d="M0.275 0.095 Q-0.066 0.418 0.489 0.656" stroke="hsl(180.0,100%,35%)" stroke-width="0.00139"></path>
<path d="M0.275 0.095 Q-0.146 0.293 0.148 0.542" stroke="hsl(180.0,100%,35%)" stroke-width="0.00139"></path>
<path d="M0.490 0.500 Q0.286 0.453 0.148 0.542" stroke="hsl(0.0,100%,35%)" stroke-width="0.00139"></path>
<path d="M0.490 0.500 Q0.365 0.578 0.489 0.656" stroke="hsl(0.0,100%,35%)" stroke-width="0.00418"></path>
<path d="M0.490 0.500 Q1.079 0.692 1.584 0.447" stroke="hsl(0.0,100%,35%)" stroke-width="0.00279"></path>
<path d="M1.302 0.605 Q1.569 0.583 1.584 0.447" stroke="hsl(0.0,100%,35%)" stroke-width="0.00418"></path>
<path d="M1.302 0.605 Q1.437 0.451 1.166 0.352" stroke="hsl(0.0,100%,35%)" stroke-width="0.00279"></path>
<path d="M1.302 0.605 Q1.179 0.656 1.253 0.727" stroke="hsl(0.0,100%,35%)" stroke-width="0.00139"></path>
<path d="M1.302 0.605 Q0.855 0.468 0.489 0.656" stroke="hsl(0.0,100%,35%)" stroke-width="0.00139"></path>
<path d="M1.015 0.849 Q1.174 0.412 0.355 0.238" stroke="hsl(0.0,100%,35%)" stroke-width="0.00418"></path>
<path d="M1.015 0.849 Q1.363 0.434 0.631 0.173" stroke="hsl(0.0,100%,35%)" stroke-width="0.00139"></path>
<path d="M1.015 0.849 Q0.823 0.844 0.770 0.936" stroke="hsl(0.0,100%,35%)" stroke-width="0.00557"></path>
<path d="M1.015 0.849 Q1.354 0.785 1.302 0.605" stroke="hsl(0.0,100%,35%)" stroke-width="0.00418"></path>
</g>
<text x="1.649" y="0.185" font-size="0.018283" fill="hsl(0.0,100%,20%)">aperez</text>
<text x="0.719" y="0.040" font-size="0.052248" fill="hsl(180.0,100%,20%)">fmalita</text>
<text x="0.489" y="0.617" font-size="0.077567" fill="hsl(0.0,100%,20%)">michaelludwig</text>
<text x="1.173" y="0.091" font-size="0.052248" fill="hsl(180.0,100%,20%)">bungeman</text>
<text x="1.584" y="0.424" font-size="0.047206" fill="hsl(0.0,100%,20%)">egdaniel</text>
<text x="0.413" y="0.345" font-size="0.018283" fill="hsl(0.0,100%,20%)">arthursonzogni</text>
<text x="0.355" y="0.199" font-size="0.077926" fill="hsl(180.0,100%,20%)">kjlubick</text>
<text x="0.083" y="0.421" font-size="0.061549" fill="hsl(0.0,100%,20%)">robertphillips</text>
<text x="0.774" y="0.595" font-size="0.014928" fill="hsl(0.0,100%,20%)">beaufort.francois</text>
<text x="0.148" y="0.516" font-size="0.051170" fill="hsl(0.0,100%,20%)">jvanverth</text>
<text x="0.927" y="0.122" font-size="0.032535" fill="hsl(180.0,100%,20%)">jlavrova</text>
<text x="0.784" y="0.267" font-size="0.010556" fill="hsl(180.0,100%,20%)">brettos</text>
<text x="1.116" y="0.466" font-size="0.021111" fill="hsl(0.0,100%,20%)">cwallez</text>
<text x="1.166" y="0.333" font-size="0.038059" fill="hsl(0.0,100%,20%)">nicolettep</text>
<text x="0.264" y="0.746" font-size="0.039495" fill="hsl(0.0,100%,20%)">jamesgk</text>
<text x="1.409" y="0.119" font-size="0.014928" fill="hsl(180.0,100%,20%)">drott</text>
<text x="1.253" y="0.722" font-size="0.010556" fill="hsl(0.0,100%,20%)">jmbetancourt</text>
<text x="0.509" y="0.336" font-size="0.021111" fill="hsl(180.0,100%,20%)">maxhudnell</text>
<text x="0.631" y="0.151" font-size="0.044784" fill="hsl(180.0,100%,20%)">danieldilan</text>
<text x="0.275" y="0.068" font-size="0.054338" fill="hsl(180.0,100%,20%)">lukasza</text>
<text x="0.490" y="0.491" font-size="0.018283" fill="hsl(0.0,100%,20%)">jie.a.chen</text>
<text x="0.506" y="0.386" font-size="0.027927" fill="hsl(180.0,100%,20%)">borenet</text>
<text x="0.770" y="0.928" font-size="0.016690" fill="hsl(0.0,100%,20%)">ccameron</text>
<text x="1.302" y="0.593" font-size="0.023603" fill="hsl(0.0,100%,20%)">nscobie</text>
<text x="1.015" y="0.837" font-size="0.024755" fill="hsl(0.0,100%,20%)">vigneshv</text>
</svg>
