<svg width="4000" height="2000" viewBox="-0.025 -0.025 2.05 1.05" xmlns="http://www.w3.org/2000/svg">
  <style>
    path {
      fill: none;
      stroke-linecap: round;
      stroke-opacity: 0.4;
    }

    text {
      text-anchor: middle;
      alignment-baseline: hanging;
    }
  </style>
  <g opacity="0.4">
<path d="M1.450 0.923 Q1.649 0.860 1.569 0.749" stroke="hsl(0.0,100%,35%)" stroke-width="0.00031"></path>
<path d="M1.450 0.923 Q1.265 0.817 1.017 0.884" stroke="hsl(0.0,100%,35%)" stroke-width="0.00125"></path>
<path d="M1.450 0.923 Q1.261 0.904 1.183 0.993" stroke="hsl(0.0,100%,35%)" stroke-width="0.00031"></path>
<path d="M1.569 0.749 Q1.043 0.471 0.383 0.666" stroke="hsl(0.0,100%,35%)" stroke-width="0.00031"></path>
<path d="M1.569 0.749 Q1.248 0.530 0.749 0.638" stroke="hsl(0.0,100%,35%)" stroke-width="0.00031"></path>
<path d="M1.569 0.749 Q1.425 0.675 1.249 0.729" stroke="hsl(0.0,100%,35%)" stroke-width="0.00156"></path>
<path d="M1.569 0.749 Q1.411 0.553 0.994 0.587" stroke="hsl(0.0,100%,35%)" stroke-width="0.00031"></path>
<path d="M1.569 0.749 Q1.483 0.523 1.022 0.515" stroke="hsl(0.0,100%,35%)" stroke-width="0.00031"></path>
<path d="M1.569 0.749 Q1.831 0.289 0.990 0.060" stroke="hsl(0.0,100%,35%)" stroke-width="0.00063"></path>
<path d="M1.569 0.749 Q1.430 0.754 1.409 0.824" stroke="hsl(0.0,100%,35%)" stroke-width="0.00031"></path>
<path d="M1.569 0.749 Q1.336 0.632 1.056 0.720" stroke="hsl(0.0,100%,35%)" stroke-width="0.00031"></path>
<path d="M1.017 0.884 Q1.591 0.541 1.047 0.186" stroke="hsl(0.0,100%,35%)" stroke-width="0.00219"></path>
<path d="M1.017 0.884 Q1.685 0.810 1.686 0.468" stroke="hsl(0.0,100%,35%)" stroke-width="0.00626"></path>
<path d="M1.017 0.884 Q1.163 0.599 0.639 0.466" stroke="hsl(0.0,100%,35%)" stroke-width="0.00031"></path>
<path d="M1.017 0.884 Q1.352 0.985 1.623 0.844" stroke="hsl(0.0,100%,35%)" stroke-width="0.00282"></path>
<path d="M1.017 0.884 Q1.080 0.708 0.749 0.638" stroke="hsl(0.0,100%,35%)" stroke-width="0.00063"></path>
<path d="M1.017 0.884 Q0.859 0.954 0.960 1.046" stroke="hsl(0.0,100%,35%)" stroke-width="0.00063"></path>
<path d="M1.017 0.884 Q1.262 0.932 1.409 0.824" stroke="hsl(0.0,100%,35%)" stroke-width="0.00188"></path>
<path d="M1.017 0.884 Q1.779 0.532 1.258 0.083" stroke="hsl(0.0,100%,35%)" stroke-width="0.00063"></path>
<path d="M1.017 0.884 Q1.168 0.810 1.056 0.720" stroke="hsl(0.0,100%,35%)" stroke-width="0.00031"></path>
<path d="M1.017 0.884 Q1.315 0.701 1.022 0.515" stroke="hsl(0.0,100%,35%)" stroke-width="0.00125"></path>
<path d="M1.017 0.884 Q1.480 0.792 1.401 0.546" stroke="hsl(0.0,100%,35%)" stroke-width="0.00094"></path>
<path d="M1.017 0.884 Q1.013 0.972 1.183 0.993" stroke="hsl(0.0,100%,35%)" stroke-width="0.00219"></path>
<path d="M1.017 0.884 Q1.257 0.853 1.249 0.729" stroke="hsl(0.0,100%,35%)" stroke-width="0.00031"></path>
<path d="M1.183 0.993 Q1.854 0.831 1.686 0.468" stroke="hsl(0.0,100%,35%)" stroke-width="0.00282"></path>
<path d="M1.183 0.993 Q1.833 0.488 0.990 0.060" stroke="hsl(0.0,100%,35%)" stroke-width="0.00063"></path>
<path d="M1.183 0.993 Q1.044 0.670 0.383 0.666" stroke="hsl(0.0,100%,35%)" stroke-width="0.00094"></path>
<path d="M1.183 0.993 Q1.187 0.905 1.017 0.884" stroke="hsl(0.0,100%,35%)" stroke-width="0.00626"></path>
<path d="M1.183 0.993 Q1.571 0.948 1.569 0.749" stroke="hsl(0.0,100%,35%)" stroke-width="0.00031"></path>
<path d="M1.183 0.993 Q1.250 0.729 0.749 0.638" stroke="hsl(0.0,100%,35%)" stroke-width="0.00188"></path>
<path d="M1.183 0.993 Q1.485 0.722 1.022 0.515" stroke="hsl(0.0,100%,35%)" stroke-width="0.00063"></path>
<path d="M1.183 0.993 Q1.601 0.537 0.804 0.233" stroke="hsl(0.0,100%,35%)" stroke-width="0.00031"></path>
<path d="M0.381 0.527 Q1.059 0.415 0.990 0.060" stroke="hsl(180.0,100%,35%)" stroke-width="0.00031"></path>
<path d="M0.381 0.527 Q0.476 0.656 0.749 0.638" stroke="hsl(180.0,100%,35%)" stroke-width="0.00094"></path>
<path d="M0.381 0.527 Q0.413 0.833 1.017 0.884" stroke="hsl(180.0,100%,35%)" stroke-width="0.00031"></path>
<path d="M0.381 0.527 Q0.986 0.490 1.047 0.186" stroke="hsl(180.0,100%,35%)" stroke-width="0.00063"></path>
<path d="M0.381 0.527 Q0.271 0.597 0.383 0.666" stroke="hsl(180.0,100%,35%)" stroke-width="0.00031"></path>
<path d="M0.990 0.060 Q0.917 0.135 1.047 0.186" stroke="hsl(0.0,100%,35%)" stroke-width="0.00845"></path>
<path d="M0.990 0.060 Q0.570 0.324 0.994 0.587" stroke="hsl(0.0,100%,35%)" stroke-width="0.00250"></path>
<path d="M0.990 0.060 Q0.407 0.301 0.749 0.638" stroke="hsl(0.0,100%,35%)" stroke-width="0.00250"></path>
<path d="M0.990 0.060 Q0.201 0.242 0.383 0.666" stroke="hsl(0.0,100%,35%)" stroke-width="0.00250"></path>
<path d="M0.990 0.060 Q1.105 0.125 1.258 0.083" stroke="hsl(0.0,100%,35%)" stroke-width="0.00282"></path>
<path d="M0.990 0.060 Q0.246 0.279 0.511 0.689" stroke="hsl(0.0,100%,35%)" stroke-width="0.00031"></path>
<path d="M0.990 0.060 Q0.344 0.478 1.017 0.884" stroke="hsl(0.0,100%,35%)" stroke-width="0.00188"></path>
<path d="M0.990 0.060 Q0.642 0.294 1.022 0.515" stroke="hsl(0.0,100%,35%)" stroke-width="0.00282"></path>
<path d="M0.990 0.060 Q1.011 0.403 1.686 0.468" stroke="hsl(0.0,100%,35%)" stroke-width="0.00125"></path>
<path d="M0.990 0.060 Q1.258 0.311 1.807 0.235" stroke="hsl(0.0,100%,35%)" stroke-width="0.00031"></path>
<path d="M0.990 0.060 Q0.588 0.526 1.409 0.824" stroke="hsl(0.0,100%,35%)" stroke-width="0.00031"></path>
<path d="M0.990 0.060 Q0.758 0.109 0.804 0.233" stroke="hsl(0.0,100%,35%)" stroke-width="0.00031"></path>
<path d="M0.990 0.060 Q0.340 0.565 1.183 0.993" stroke="hsl(0.0,100%,35%)" stroke-width="0.00031"></path>
<path d="M0.749 0.638 Q0.589 0.616 0.511 0.689" stroke="hsl(180.0,100%,35%)" stroke-width="0.01095"></path>
<path d="M0.749 0.638 Q0.544 0.579 0.383 0.666" stroke="hsl(180.0,100%,35%)" stroke-width="0.01376"></path>
<path d="M0.749 0.638 Q0.912 0.662 0.994 0.587" stroke="hsl(180.0,100%,35%)" stroke-width="0.01376"></path>
<path d="M0.749 0.638 Q0.984 0.631 1.022 0.515" stroke="hsl(180.0,100%,35%)" stroke-width="0.02816"></path>
<path d="M0.749 0.638 Q0.519 0.611 0.415 0.717" stroke="hsl(180.0,100%,35%)" stroke-width="0.00156"></path>
<path d="M0.749 0.638 Q1.447 0.462 1.258 0.083" stroke="hsl(180.0,100%,35%)" stroke-width="0.00188"></path>
<path d="M0.749 0.638 Q1.332 0.397 0.990 0.060" stroke="hsl(180.0,100%,35%)" stroke-width="0.00375"></path>
<path d="M0.749 0.638 Q1.070 0.858 1.569 0.749" stroke="hsl(180.0,100%,35%)" stroke-width="0.00031"></path>
<path d="M0.749 0.638 Q0.832 0.530 0.639 0.466" stroke="hsl(180.0,100%,35%)" stroke-width="0.00907"></path>
<path d="M0.749 0.638 Q1.354 0.740 1.686 0.468" stroke="hsl(180.0,100%,35%)" stroke-width="0.00344"></path>
<path d="M0.749 0.638 Q0.583 0.668 0.606 0.756" stroke="hsl(180.0,100%,35%)" stroke-width="0.00031"></path>
<path d="M0.749 0.638 Q0.931 0.863 1.409 0.824" stroke="hsl(180.0,100%,35%)" stroke-width="0.00031"></path>
<path d="M0.749 0.638 Q1.259 0.472 1.047 0.186" stroke="hsl(180.0,100%,35%)" stroke-width="0.00063"></path>
<path d="M0.749 0.638 Q0.682 0.902 1.183 0.993" stroke="hsl(180.0,100%,35%)" stroke-width="0.00156"></path>
<path d="M0.749 0.638 Q0.686 0.815 1.017 0.884" stroke="hsl(180.0,100%,35%)" stroke-width="0.00031"></path>
<path d="M1.047 0.186 Q1.120 0.112 0.990 0.060" stroke="hsl(0.0,100%,35%)" stroke-width="0.01783"></path>
<path d="M1.047 0.186 Q0.977 0.115 0.822 0.133" stroke="hsl(0.0,100%,35%)" stroke-width="0.00313"></path>
<path d="M1.047 0.186 Q0.888 0.161 0.804 0.233" stroke="hsl(0.0,100%,35%)" stroke-width="0.00720"></path>
<path d="M1.047 0.186 Q1.141 0.455 1.686 0.468" stroke="hsl(0.0,100%,35%)" stroke-width="0.00782"></path>
<path d="M1.047 0.186 Q1.388 0.363 1.807 0.235" stroke="hsl(0.0,100%,35%)" stroke-width="0.00375"></path>
<path d="M1.047 0.186 Q0.772 0.346 1.022 0.515" stroke="hsl(0.0,100%,35%)" stroke-width="0.00188"></path>
<path d="M1.047 0.186 Q1.235 0.177 1.258 0.083" stroke="hsl(0.0,100%,35%)" stroke-width="0.00156"></path>
<path d="M1.047 0.186 Q0.537 0.353 0.749 0.638" stroke="hsl(0.0,100%,35%)" stroke-width="0.00125"></path>
<path d="M1.047 0.186 Q0.347 0.213 0.245 0.561" stroke="hsl(0.0,100%,35%)" stroke-width="0.00031"></path>
<path d="M1.047 0.186 Q0.474 0.529 1.017 0.884" stroke="hsl(0.0,100%,35%)" stroke-width="0.00845"></path>
<path d="M1.047 0.186 Q0.625 0.455 1.056 0.720" stroke="hsl(0.0,100%,35%)" stroke-width="0.00031"></path>
<path d="M1.047 0.186 Q0.700 0.376 0.994 0.587" stroke="hsl(0.0,100%,35%)" stroke-width="0.00031"></path>
<path d="M1.047 0.186 Q0.620 0.245 0.639 0.466" stroke="hsl(0.0,100%,35%)" stroke-width="0.00031"></path>
<path d="M1.047 0.186 Q0.719 0.577 1.409 0.824" stroke="hsl(0.0,100%,35%)" stroke-width="0.00031"></path>
<path d="M1.047 0.186 Q0.470 0.617 1.183 0.993" stroke="hsl(0.0,100%,35%)" stroke-width="0.00156"></path>
<path d="M1.047 0.186 Q0.864 0.053 0.563 0.113" stroke="hsl(0.0,100%,35%)" stroke-width="0.00063"></path>
<path d="M0.383 0.666 Q1.099 0.559 1.047 0.186" stroke="hsl(180.0,100%,35%)" stroke-width="0.00094"></path>
<path d="M0.383 0.666 Q1.287 0.550 1.258 0.083" stroke="hsl(180.0,100%,35%)" stroke-width="0.00125"></path>
<path d="M0.383 0.666 Q0.589 0.725 0.749 0.638" stroke="hsl(180.0,100%,35%)" stroke-width="0.00813"></path>
<path d="M0.383 0.666 Q0.672 0.617 0.639 0.466" stroke="hsl(180.0,100%,35%)" stroke-width="0.00813"></path>
<path d="M0.383 0.666 Q0.359 0.698 0.415 0.717" stroke="hsl(180.0,100%,35%)" stroke-width="0.00063"></path>
<path d="M0.383 0.666 Q1.194 0.828 1.686 0.468" stroke="hsl(180.0,100%,35%)" stroke-width="0.00031"></path>
<path d="M0.383 0.666 Q0.429 0.703 0.511 0.689" stroke="hsl(180.0,100%,35%)" stroke-width="0.00063"></path>
<path d="M0.383 0.666 Q0.766 0.871 1.249 0.729" stroke="hsl(180.0,100%,35%)" stroke-width="0.00063"></path>
<path d="M0.383 0.666 Q0.910 0.945 1.569 0.749" stroke="hsl(180.0,100%,35%)" stroke-width="0.00031"></path>
<path d="M0.383 0.666 Q0.824 0.718 1.022 0.515" stroke="hsl(180.0,100%,35%)" stroke-width="0.00188"></path>
<path d="M0.383 0.666 Q0.752 0.749 0.994 0.587" stroke="hsl(180.0,100%,35%)" stroke-width="0.00156"></path>
<path d="M0.383 0.666 Q0.771 0.950 1.409 0.824" stroke="hsl(180.0,100%,35%)" stroke-width="0.00031"></path>
<path d="M0.415 0.717 Q0.645 0.744 0.749 0.638" stroke="hsl(180.0,100%,35%)" stroke-width="0.00219"></path>
<path d="M0.415 0.717 Q0.485 0.722 0.511 0.689" stroke="hsl(180.0,100%,35%)" stroke-width="0.00063"></path>
<path d="M0.415 0.717 Q0.808 0.768 0.994 0.587" stroke="hsl(180.0,100%,35%)" stroke-width="0.00282"></path>
<path d="M0.415 0.717 Q0.728 0.636 0.639 0.466" stroke="hsl(180.0,100%,35%)" stroke-width="0.00031"></path>
<path d="M0.415 0.717 Q0.880 0.737 1.022 0.515" stroke="hsl(180.0,100%,35%)" stroke-width="0.00031"></path>
<path d="M0.415 0.717 Q0.440 0.686 0.383 0.666" stroke="hsl(180.0,100%,35%)" stroke-width="0.00031"></path>
<path d="M0.415 0.717 Q1.250 0.847 1.686 0.468" stroke="hsl(180.0,100%,35%)" stroke-width="0.00094"></path>
<path d="M0.415 0.717 Q1.344 0.512 1.148 0.014" stroke="hsl(180.0,100%,35%)" stroke-width="0.00031"></path>
<path d="M0.511 0.689 Q0.671 0.711 0.749 0.638" stroke="hsl(180.0,100%,35%)" stroke-width="0.01064"></path>
<path d="M0.511 0.689 Q0.906 0.704 1.022 0.515" stroke="hsl(180.0,100%,35%)" stroke-width="0.00532"></path>
<path d="M0.511 0.689 Q1.369 0.536 1.258 0.083" stroke="hsl(180.0,100%,35%)" stroke-width="0.00063"></path>
<path d="M0.511 0.689 Q0.754 0.603 0.639 0.466" stroke="hsl(180.0,100%,35%)" stroke-width="0.00063"></path>
<path d="M0.511 0.689 Q0.466 0.652 0.383 0.666" stroke="hsl(180.0,100%,35%)" stroke-width="0.00125"></path>
<path d="M0.511 0.689 Q0.853 0.936 1.409 0.824" stroke="hsl(180.0,100%,35%)" stroke-width="0.00031"></path>
<path d="M0.511 0.689 Q0.992 0.931 1.569 0.749" stroke="hsl(180.0,100%,35%)" stroke-width="0.00031"></path>
<path d="M0.511 0.689 Q1.254 0.470 0.990 0.060" stroke="hsl(180.0,100%,35%)" stroke-width="0.00125"></path>
<path d="M0.511 0.689 Q1.523 0.721 1.807 0.235" stroke="hsl(180.0,100%,35%)" stroke-width="0.00031"></path>
<path d="M0.511 0.689 Q0.757 0.924 1.269 0.856" stroke="hsl(180.0,100%,35%)" stroke-width="0.00031"></path>
<path d="M0.511 0.689 Q1.181 0.545 1.047 0.186" stroke="hsl(180.0,100%,35%)" stroke-width="0.00031"></path>
<path d="M0.511 0.689 Q0.834 0.735 0.994 0.587" stroke="hsl(180.0,100%,35%)" stroke-width="0.00063"></path>
<path d="M0.511 0.689 Q1.276 0.814 1.686 0.468" stroke="hsl(180.0,100%,35%)" stroke-width="0.00063"></path>
<path d="M0.994 0.587 Q1.066 0.557 1.022 0.515" stroke="hsl(180.0,100%,35%)" stroke-width="0.02471"></path>
<path d="M0.994 0.587 Q0.600 0.536 0.415 0.717" stroke="hsl(180.0,100%,35%)" stroke-width="0.00156"></path>
<path d="M0.994 0.587 Q0.831 0.564 0.749 0.638" stroke="hsl(180.0,100%,35%)" stroke-width="0.02065"></path>
<path d="M0.994 0.587 Q1.435 0.666 1.686 0.468" stroke="hsl(180.0,100%,35%)" stroke-width="0.00313"></path>
<path d="M0.994 0.587 Q1.529 0.388 1.258 0.083" stroke="hsl(180.0,100%,35%)" stroke-width="0.00063"></path>
<path d="M0.994 0.587 Q0.625 0.505 0.383 0.666" stroke="hsl(180.0,100%,35%)" stroke-width="0.00344"></path>
<path d="M0.994 0.587 Q1.414 0.323 0.990 0.060" stroke="hsl(180.0,100%,35%)" stroke-width="0.00407"></path>
<path d="M0.994 0.587 Q1.341 0.398 1.047 0.186" stroke="hsl(180.0,100%,35%)" stroke-width="0.00188"></path>
<path d="M0.994 0.587 Q1.682 0.574 1.807 0.235" stroke="hsl(180.0,100%,35%)" stroke-width="0.00031"></path>
<path d="M0.994 0.587 Q0.671 0.542 0.511 0.689" stroke="hsl(180.0,100%,35%)" stroke-width="0.00250"></path>
<path d="M0.994 0.587 Q0.914 0.456 0.639 0.466" stroke="hsl(180.0,100%,35%)" stroke-width="0.00156"></path>
<path d="M0.994 0.587 Q0.768 0.740 1.017 0.884" stroke="hsl(180.0,100%,35%)" stroke-width="0.00031"></path>
<path d="M0.994 0.587 Q1.158 0.264 0.563 0.113" stroke="hsl(180.0,100%,35%)" stroke-width="0.00031"></path>
<path d="M0.994 0.587 Q0.805 0.634 0.856 0.737" stroke="hsl(180.0,100%,35%)" stroke-width="0.00063"></path>
<path d="M0.639 0.466 Q0.351 0.515 0.383 0.666" stroke="hsl(180.0,100%,35%)" stroke-width="0.00594"></path>
<path d="M0.639 0.466 Q0.556 0.574 0.749 0.638" stroke="hsl(180.0,100%,35%)" stroke-width="0.00282"></path>
<path d="M0.639 0.466 Q0.792 0.567 1.022 0.515" stroke="hsl(180.0,100%,35%)" stroke-width="0.00219"></path>
<path d="M0.639 0.466 Q0.733 0.720 1.249 0.729" stroke="hsl(180.0,100%,35%)" stroke-width="0.00031"></path>
<path d="M0.639 0.466 Q0.719 0.597 0.994 0.587" stroke="hsl(180.0,100%,35%)" stroke-width="0.00125"></path>
<path d="M0.639 0.466 Q1.161 0.676 1.686 0.468" stroke="hsl(180.0,100%,35%)" stroke-width="0.00125"></path>
<path d="M0.639 0.466 Q1.139 0.333 0.990 0.060" stroke="hsl(180.0,100%,35%)" stroke-width="0.00031"></path>
<path d="M0.639 0.466 Q0.396 0.552 0.511 0.689" stroke="hsl(180.0,100%,35%)" stroke-width="0.00031"></path>
<path d="M1.022 0.515 Q0.950 0.545 0.994 0.587" stroke="hsl(180.0,100%,35%)" stroke-width="0.02096"></path>
<path d="M1.022 0.515 Q0.582 0.463 0.383 0.666" stroke="hsl(180.0,100%,35%)" stroke-width="0.01283"></path>
<path d="M1.022 0.515 Q0.787 0.522 0.749 0.638" stroke="hsl(180.0,100%,35%)" stroke-width="0.02159"></path>
<path d="M1.022 0.515 Q1.392 0.624 1.686 0.468" stroke="hsl(180.0,100%,35%)" stroke-width="0.00156"></path>
<path d="M1.022 0.515 Q1.370 0.281 0.990 0.060" stroke="hsl(180.0,100%,35%)" stroke-width="0.00031"></path>
<path d="M1.022 0.515 Q1.108 0.741 1.569 0.749" stroke="hsl(180.0,100%,35%)" stroke-width="0.00031"></path>
<path d="M1.022 0.515 Q1.297 0.356 1.047 0.186" stroke="hsl(180.0,100%,35%)" stroke-width="0.00125"></path>
<path d="M1.022 0.515 Q0.621 0.552 0.606 0.756" stroke="hsl(180.0,100%,35%)" stroke-width="0.00031"></path>
<path d="M1.022 0.515 Q1.639 0.532 1.807 0.235" stroke="hsl(180.0,100%,35%)" stroke-width="0.00063"></path>
<path d="M1.022 0.515 Q1.187 0.606 1.401 0.546" stroke="hsl(180.0,100%,35%)" stroke-width="0.00031"></path>
<path d="M1.022 0.515 Q0.870 0.414 0.639 0.466" stroke="hsl(180.0,100%,35%)" stroke-width="0.00063"></path>
<path d="M1.022 0.515 Q0.724 0.699 1.017 0.884" stroke="hsl(180.0,100%,35%)" stroke-width="0.00031"></path>
<path d="M1.686 0.468 Q1.780 0.190 1.258 0.083" stroke="hsl(0.0,100%,35%)" stroke-width="0.00407"></path>
<path d="M1.686 0.468 Q1.433 0.174 0.804 0.233" stroke="hsl(0.0,100%,35%)" stroke-width="0.00125"></path>
<path d="M1.686 0.468 Q1.245 0.389 0.994 0.587" stroke="hsl(0.0,100%,35%)" stroke-width="0.00501"></path>
<path d="M1.686 0.468 Q1.165 0.257 0.639 0.466" stroke="hsl(0.0,100%,35%)" stroke-width="0.00876"></path>
<path d="M1.686 0.468 Q1.665 0.125 0.990 0.060" stroke="hsl(0.0,100%,35%)" stroke-width="0.00501"></path>
<path d="M1.686 0.468 Q1.592 0.199 1.047 0.186" stroke="hsl(0.0,100%,35%)" stroke-width="0.01564"></path>
<path d="M1.686 0.468 Q1.082 0.366 0.749 0.638" stroke="hsl(0.0,100%,35%)" stroke-width="0.01189"></path>
<path d="M1.686 0.468 Q0.876 0.307 0.383 0.666" stroke="hsl(0.0,100%,35%)" stroke-width="0.00688"></path>
<path d="M1.686 0.468 Q1.354 0.643 1.623 0.844" stroke="hsl(0.0,100%,35%)" stroke-width="0.00125"></path>
<path d="M1.686 0.468 Q1.933 0.376 1.807 0.235" stroke="hsl(0.0,100%,35%)" stroke-width="0.01032"></path>
<path d="M1.686 0.468 Q1.019 0.542 1.017 0.884" stroke="hsl(0.0,100%,35%)" stroke-width="0.01251"></path>
<path d="M1.686 0.468 Q1.761 0.336 1.519 0.270" stroke="hsl(0.0,100%,35%)" stroke-width="0.00031"></path>
<path d="M1.686 0.468 Q0.851 0.338 0.415 0.717" stroke="hsl(0.0,100%,35%)" stroke-width="0.00031"></path>
<path d="M1.686 0.468 Q0.916 0.396 0.606 0.756" stroke="hsl(0.0,100%,35%)" stroke-width="0.00031"></path>
<path d="M1.686 0.468 Q1.259 0.511 1.249 0.729" stroke="hsl(0.0,100%,35%)" stroke-width="0.00250"></path>
<path d="M1.686 0.468 Q1.456 0.432 1.334 0.536" stroke="hsl(0.0,100%,35%)" stroke-width="0.00063"></path>
<path d="M1.686 0.468 Q1.263 0.590 1.409 0.824" stroke="hsl(0.0,100%,35%)" stroke-width="0.00188"></path>
<path d="M1.686 0.468 Q1.317 0.359 1.022 0.515" stroke="hsl(0.0,100%,35%)" stroke-width="0.00438"></path>
<path d="M1.686 0.468 Q1.565 0.335 1.278 0.365" stroke="hsl(0.0,100%,35%)" stroke-width="0.00031"></path>
<path d="M1.686 0.468 Q1.409 0.066 0.563 0.113" stroke="hsl(0.0,100%,35%)" stroke-width="0.00031"></path>
<path d="M1.686 0.468 Q1.167 0.578 1.269 0.856" stroke="hsl(0.0,100%,35%)" stroke-width="0.00031"></path>
<path d="M1.686 0.468 Q1.481 0.450 1.401 0.546" stroke="hsl(0.0,100%,35%)" stroke-width="0.00125"></path>
<path d="M1.686 0.468 Q1.015 0.630 1.183 0.993" stroke="hsl(0.0,100%,35%)" stroke-width="0.00782"></path>
<path d="M1.148 0.014 Q1.032 0.005 0.990 0.060" stroke="hsl(0.0,100%,35%)" stroke-width="0.00626"></path>
<path d="M1.148 0.014 Q0.960 0.080 1.047 0.186" stroke="hsl(0.0,100%,35%)" stroke-width="0.00031"></path>
<path d="M1.148 0.014 Q0.771 0.466 1.569 0.749" stroke="hsl(0.0,100%,35%)" stroke-width="0.00031"></path>
<path d="M1.148 0.014 Q0.383 0.510 1.183 0.993" stroke="hsl(0.0,100%,35%)" stroke-width="0.00063"></path>
<path d="M1.446 0.649 Q1.689 0.263 0.990 0.060" stroke="hsl(0.0,100%,35%)" stroke-width="0.00031"></path>
<path d="M1.446 0.649 Q1.711 0.607 1.686 0.468" stroke="hsl(0.0,100%,35%)" stroke-width="0.00156"></path>
<path d="M1.446 0.649 Q1.342 0.497 1.022 0.515" stroke="hsl(0.0,100%,35%)" stroke-width="0.00094"></path>
<path d="M1.446 0.649 Q1.617 0.338 1.047 0.186" stroke="hsl(0.0,100%,35%)" stroke-width="0.00031"></path>
<path d="M0.611 0.757 Q0.570 0.666 0.383 0.666" stroke="hsl(180.0,100%,35%)" stroke-width="0.00094"></path>
<path d="M0.611 0.757 Q0.775 0.725 0.749 0.638" stroke="hsl(180.0,100%,35%)" stroke-width="0.00094"></path>
<path d="M0.611 0.757 Q1.011 0.718 1.022 0.515" stroke="hsl(180.0,100%,35%)" stroke-width="0.00031"></path>
<path d="M0.611 0.757 Q0.938 0.749 0.994 0.587" stroke="hsl(180.0,100%,35%)" stroke-width="0.00031"></path>
<path d="M0.357 0.451 Q0.198 0.564 0.383 0.666" stroke="hsl(180.0,100%,35%)" stroke-width="0.00125"></path>
<path d="M0.357 0.451 Q0.403 0.623 0.749 0.638" stroke="hsl(180.0,100%,35%)" stroke-width="0.00063"></path>
<path d="M0.357 0.451 Q0.486 0.515 0.639 0.466" stroke="hsl(180.0,100%,35%)" stroke-width="0.00063"></path>
<path d="M1.807 0.235 Q1.330 0.291 1.334 0.536" stroke="hsl(0.0,100%,35%)" stroke-width="0.00156"></path>
<path d="M1.807 0.235 Q1.466 0.059 1.047 0.186" stroke="hsl(0.0,100%,35%)" stroke-width="0.00156"></path>
<path d="M1.807 0.235 Q1.654 0.049 1.258 0.083" stroke="hsl(0.0,100%,35%)" stroke-width="0.00031"></path>
<path d="M1.807 0.235 Q1.118 0.248 0.994 0.587" stroke="hsl(0.0,100%,35%)" stroke-width="0.00031"></path>
<path d="M1.807 0.235 Q0.750 0.166 0.383 0.666" stroke="hsl(0.0,100%,35%)" stroke-width="0.00063"></path>
<path d="M1.807 0.235 Q1.191 0.218 1.022 0.515" stroke="hsl(0.0,100%,35%)" stroke-width="0.00125"></path>
<path d="M1.807 0.235 Q1.560 0.327 1.686 0.468" stroke="hsl(0.0,100%,35%)" stroke-width="0.01376"></path>
<path d="M1.807 0.235 Q1.538 -0.016 0.990 0.060" stroke="hsl(0.0,100%,35%)" stroke-width="0.00094"></path>
<path d="M1.807 0.235 Q1.227 0.503 1.623 0.844" stroke="hsl(0.0,100%,35%)" stroke-width="0.00031"></path>
<path d="M1.807 0.235 Q0.956 0.225 0.749 0.638" stroke="hsl(0.0,100%,35%)" stroke-width="0.00031"></path>
<path d="M1.807 0.235 Q0.889 0.489 1.183 0.993" stroke="hsl(0.0,100%,35%)" stroke-width="0.00031"></path>
<path d="M1.258 0.083 Q0.354 0.200 0.383 0.666" stroke="hsl(0.0,100%,35%)" stroke-width="0.00156"></path>
<path d="M1.258 0.083 Q0.722 0.282 0.994 0.587" stroke="hsl(0.0,100%,35%)" stroke-width="0.00219"></path>
<path d="M1.258 0.083 Q0.642 0.151 0.639 0.466" stroke="hsl(0.0,100%,35%)" stroke-width="0.00250"></path>
<path d="M1.258 0.083 Q1.142 0.018 0.990 0.060" stroke="hsl(0.0,100%,35%)" stroke-width="0.01189"></path>
<path d="M1.258 0.083 Q0.560 0.259 0.749 0.638" stroke="hsl(0.0,100%,35%)" stroke-width="0.00501"></path>
<path d="M1.258 0.083 Q0.399 0.237 0.511 0.689" stroke="hsl(0.0,100%,35%)" stroke-width="0.00156"></path>
<path d="M1.258 0.083 Q0.795 0.252 1.022 0.515" stroke="hsl(0.0,100%,35%)" stroke-width="0.00469"></path>
<path d="M1.258 0.083 Q1.241 0.166 1.399 0.192" stroke="hsl(0.0,100%,35%)" stroke-width="0.00031"></path>
<path d="M1.258 0.083 Q1.411 0.269 1.807 0.235" stroke="hsl(0.0,100%,35%)" stroke-width="0.00031"></path>
<path d="M1.258 0.083 Q1.070 0.093 1.047 0.186" stroke="hsl(0.0,100%,35%)" stroke-width="0.00156"></path>
<path d="M1.258 0.083 Q1.164 0.361 1.686 0.468" stroke="hsl(0.0,100%,35%)" stroke-width="0.00532"></path>
<path d="M1.258 0.083 Q0.329 0.231 0.415 0.717" stroke="hsl(0.0,100%,35%)" stroke-width="0.00031"></path>
<path d="M1.258 0.083 Q0.497 0.436 1.017 0.884" stroke="hsl(0.0,100%,35%)" stroke-width="0.00094"></path>
<path d="M1.258 0.083 Q0.881 0.478 1.569 0.749" stroke="hsl(0.0,100%,35%)" stroke-width="0.00031"></path>
<path d="M1.258 0.083 Q0.736 0.405 1.249 0.729" stroke="hsl(0.0,100%,35%)" stroke-width="0.00031"></path>
<path d="M1.258 0.083 Q0.394 0.289 0.606 0.756" stroke="hsl(0.0,100%,35%)" stroke-width="0.00532"></path>
<path d="M1.623 0.844 Q1.955 0.669 1.686 0.468" stroke="hsl(0.0,100%,35%)" stroke-width="0.00063"></path>
<path d="M1.623 0.844 Q1.288 0.743 1.017 0.884" stroke="hsl(0.0,100%,35%)" stroke-width="0.00094"></path>
<path d="M1.623 0.844 Q1.533 0.791 1.409 0.824" stroke="hsl(0.0,100%,35%)" stroke-width="0.00031"></path>
<path d="M1.409 0.824 Q1.311 0.491 0.639 0.466" stroke="hsl(0.0,100%,35%)" stroke-width="0.00031"></path>
<path d="M1.409 0.824 Q1.391 0.622 0.994 0.587" stroke="hsl(0.0,100%,35%)" stroke-width="0.00031"></path>
<path d="M1.409 0.824 Q1.499 0.877 1.623 0.844" stroke="hsl(0.0,100%,35%)" stroke-width="0.00063"></path>
<path d="M1.409 0.824 Q1.165 0.776 1.017 0.884" stroke="hsl(0.0,100%,35%)" stroke-width="0.00094"></path>
<path d="M1.409 0.824 Q1.738 0.433 1.047 0.186" stroke="hsl(0.0,100%,35%)" stroke-width="0.00063"></path>
<path d="M1.409 0.824 Q1.832 0.701 1.686 0.468" stroke="hsl(0.0,100%,35%)" stroke-width="0.00094"></path>
<path d="M1.409 0.824 Q1.811 0.358 0.990 0.060" stroke="hsl(0.0,100%,35%)" stroke-width="0.00031"></path>
<path d="M1.409 0.824 Q1.022 0.540 0.383 0.666" stroke="hsl(0.0,100%,35%)" stroke-width="0.00125"></path>
<path d="M0.804 0.233 Q0.963 0.258 1.047 0.186" stroke="hsl(0.0,100%,35%)" stroke-width="0.00594"></path>
<path d="M0.804 0.233 Q1.036 0.184 0.990 0.060" stroke="hsl(0.0,100%,35%)" stroke-width="0.00125"></path>
<path d="M0.804 0.233 Q0.390 0.601 1.017 0.884" stroke="hsl(0.0,100%,35%)" stroke-width="0.00031"></path>
<path d="M0.804 0.233 Q0.616 0.448 0.994 0.587" stroke="hsl(0.0,100%,35%)" stroke-width="0.00031"></path>
<path d="M0.804 0.233 Q0.293 0.403 0.511 0.689" stroke="hsl(0.0,100%,35%)" stroke-width="0.00031"></path>
<path d="M0.804 0.233 Q0.453 0.425 0.749 0.638" stroke="hsl(0.0,100%,35%)" stroke-width="0.00063"></path>
<path d="M0.804 0.233 Q1.058 0.527 1.686 0.468" stroke="hsl(0.0,100%,35%)" stroke-width="0.00156"></path>
<path d="M0.804 0.233 Q0.852 0.509 1.401 0.546" stroke="hsl(0.0,100%,35%)" stroke-width="0.00031"></path>
<path d="M0.577 0.515 Q0.359 0.552 0.383 0.666" stroke="hsl(180.0,100%,35%)" stroke-width="0.00375"></path>
<path d="M0.577 0.515 Q0.565 0.611 0.749 0.638" stroke="hsl(180.0,100%,35%)" stroke-width="0.00375"></path>
<path d="M0.577 0.515 Q1.148 0.370 0.990 0.060" stroke="hsl(180.0,100%,35%)" stroke-width="0.00031"></path>
<path d="M0.577 0.515 Q0.502 0.788 1.017 0.884" stroke="hsl(180.0,100%,35%)" stroke-width="0.00063"></path>
<path d="M0.577 0.515 Q1.170 0.713 1.686 0.468" stroke="hsl(180.0,100%,35%)" stroke-width="0.00188"></path>
<path d="M0.577 0.515 Q0.648 0.503 0.639 0.466" stroke="hsl(180.0,100%,35%)" stroke-width="0.00031"></path>
<path d="M0.822 0.133 Q0.892 0.205 1.047 0.186" stroke="hsl(0.0,100%,35%)" stroke-width="0.01001"></path>
<path d="M0.822 0.133 Q0.986 0.474 1.686 0.468" stroke="hsl(0.0,100%,35%)" stroke-width="0.00469"></path>
<path d="M0.822 0.133 Q0.733 0.180 0.804 0.233" stroke="hsl(0.0,100%,35%)" stroke-width="0.00063"></path>
<path d="M0.822 0.133 Q0.221 0.349 0.511 0.689" stroke="hsl(0.0,100%,35%)" stroke-width="0.00031"></path>
<path d="M0.245 0.561 Q0.809 0.766 1.334 0.536" stroke="hsl(0.0,100%,35%)" stroke-width="0.00031"></path>
<path d="M0.245 0.561 Q1.018 0.459 0.990 0.060" stroke="hsl(0.0,100%,35%)" stroke-width="0.00031"></path>
<path d="M0.245 0.561 Q1.040 0.803 1.686 0.468" stroke="hsl(0.0,100%,35%)" stroke-width="0.00031"></path>
<path d="M0.245 0.561 Q0.946 0.534 1.047 0.186" stroke="hsl(0.0,100%,35%)" stroke-width="0.00031"></path>
<path d="M0.245 0.561 Q1.134 0.524 1.258 0.083" stroke="hsl(0.0,100%,35%)" stroke-width="0.00063"></path>
<path d="M0.245 0.561 Q0.230 0.641 0.383 0.666" stroke="hsl(0.0,100%,35%)" stroke-width="0.00094"></path>
<path d="M1.305 0.076 Q1.160 0.005 0.990 0.060" stroke="hsl(0.0,100%,35%)" stroke-width="0.00125"></path>
<path d="M1.305 0.076 Q0.898 0.465 1.569 0.749" stroke="hsl(0.0,100%,35%)" stroke-width="0.00031"></path>
<path d="M1.305 0.076 Q0.812 0.239 1.022 0.515" stroke="hsl(0.0,100%,35%)" stroke-width="0.00031"></path>
<path d="M1.305 0.076 Q1.276 0.070 1.258 0.083" stroke="hsl(0.0,100%,35%)" stroke-width="0.00063"></path>
<path d="M1.167 0.255 Q1.161 0.197 1.047 0.186" stroke="hsl(0.0,100%,35%)" stroke-width="0.00094"></path>
<path d="M1.167 0.255 Q0.651 0.363 0.749 0.638" stroke="hsl(0.0,100%,35%)" stroke-width="0.00031"></path>
<path d="M1.167 0.255 Q0.588 0.540 1.017 0.884" stroke="hsl(0.0,100%,35%)" stroke-width="0.00063"></path>
<path d="M0.899 0.329 Q0.417 0.432 0.511 0.689" stroke="hsl(180.0,100%,35%)" stroke-width="0.00094"></path>
<path d="M0.899 0.329 Q1.182 0.556 1.686 0.468" stroke="hsl(180.0,100%,35%)" stroke-width="0.00031"></path>
<path d="M0.899 0.329 Q0.740 0.477 0.994 0.587" stroke="hsl(180.0,100%,35%)" stroke-width="0.00063"></path>
<path d="M0.899 0.329 Q0.660 0.346 0.639 0.466" stroke="hsl(180.0,100%,35%)" stroke-width="0.00125"></path>
<path d="M1.249 0.729 Q1.155 0.476 0.639 0.466" stroke="hsl(0.0,100%,35%)" stroke-width="0.00156"></path>
<path d="M1.249 0.729 Q1.235 0.607 0.994 0.587" stroke="hsl(0.0,100%,35%)" stroke-width="0.00031"></path>
<path d="M1.249 0.729 Q1.655 0.343 0.990 0.060" stroke="hsl(0.0,100%,35%)" stroke-width="0.00094"></path>
<path d="M1.249 0.729 Q1.393 0.803 1.569 0.749" stroke="hsl(0.0,100%,35%)" stroke-width="0.00125"></path>
<path d="M1.249 0.729 Q0.867 0.525 0.383 0.666" stroke="hsl(0.0,100%,35%)" stroke-width="0.00313"></path>
<path d="M1.249 0.729 Q1.072 0.584 0.749 0.638" stroke="hsl(0.0,100%,35%)" stroke-width="0.00063"></path>
<path d="M1.249 0.729 Q1.677 0.686 1.686 0.468" stroke="hsl(0.0,100%,35%)" stroke-width="0.00094"></path>
<path d="M1.249 0.729 Q1.254 0.809 1.409 0.824" stroke="hsl(0.0,100%,35%)" stroke-width="0.00063"></path>
<path d="M1.122 0.113 Q0.310 0.242 0.383 0.666" stroke="hsl(0.0,100%,35%)" stroke-width="0.00031"></path>
<path d="M1.122 0.113 Q0.516 0.301 0.749 0.638" stroke="hsl(0.0,100%,35%)" stroke-width="0.00031"></path>
<path d="M1.122 0.113 Q1.098 0.060 0.990 0.060" stroke="hsl(0.0,100%,35%)" stroke-width="0.00063"></path>
<path d="M1.269 0.856 Q1.766 0.402 0.990 0.060" stroke="hsl(0.0,100%,35%)" stroke-width="0.00438"></path>
<path d="M1.269 0.856 Q1.504 0.863 1.569 0.749" stroke="hsl(0.0,100%,35%)" stroke-width="0.00094"></path>
<path d="M1.269 0.856 Q1.788 0.746 1.686 0.468" stroke="hsl(0.0,100%,35%)" stroke-width="0.00688"></path>
<path d="M1.269 0.856 Q1.116 0.907 1.183 0.993" stroke="hsl(0.0,100%,35%)" stroke-width="0.00688"></path>
<path d="M1.269 0.856 Q1.120 0.820 1.017 0.884" stroke="hsl(0.0,100%,35%)" stroke-width="0.00939"></path>
<path d="M1.269 0.856 Q1.882 0.411 1.148 0.014" stroke="hsl(0.0,100%,35%)" stroke-width="0.00031"></path>
<path d="M1.269 0.856 Q1.183 0.643 0.749 0.638" stroke="hsl(0.0,100%,35%)" stroke-width="0.00031"></path>
<path d="M1.269 0.856 Q1.346 0.667 0.994 0.587" stroke="hsl(0.0,100%,35%)" stroke-width="0.00031"></path>
<path d="M0.451 0.697 Q0.441 0.668 0.383 0.666" stroke="hsl(180.0,100%,35%)" stroke-width="0.00094"></path>
<path d="M0.451 0.697 Q0.647 0.727 0.749 0.638" stroke="hsl(180.0,100%,35%)" stroke-width="0.00125"></path>
<path d="M0.451 0.697 Q0.810 0.751 0.994 0.587" stroke="hsl(180.0,100%,35%)" stroke-width="0.00031"></path>
<path d="M0.606 0.756 Q0.772 0.726 0.749 0.638" stroke="hsl(180.0,100%,35%)" stroke-width="0.00751"></path>
<path d="M0.606 0.756 Q1.377 0.828 1.686 0.468" stroke="hsl(180.0,100%,35%)" stroke-width="0.00094"></path>
<path d="M0.606 0.756 Q0.612 0.704 0.511 0.689" stroke="hsl(180.0,100%,35%)" stroke-width="0.00469"></path>
<path d="M0.606 0.756 Q1.470 0.550 1.258 0.083" stroke="hsl(180.0,100%,35%)" stroke-width="0.00344"></path>
<path d="M0.606 0.756 Q0.542 0.698 0.415 0.717" stroke="hsl(180.0,100%,35%)" stroke-width="0.00031"></path>
<path d="M0.606 0.756 Q1.007 0.719 1.022 0.515" stroke="hsl(180.0,100%,35%)" stroke-width="0.00031"></path>
<path d="M0.606 0.756 Q0.855 0.617 0.639 0.466" stroke="hsl(180.0,100%,35%)" stroke-width="0.00063"></path>
<path d="M0.730 0.069 Q0.794 0.191 1.047 0.186" stroke="hsl(0.0,100%,35%)" stroke-width="0.00031"></path>
<path d="M0.730 0.069 Q0.635 0.166 0.804 0.233" stroke="hsl(0.0,100%,35%)" stroke-width="0.00031"></path>
<path d="M0.730 0.069 Q0.079 0.299 0.383 0.666" stroke="hsl(0.0,100%,35%)" stroke-width="0.00031"></path>
<path d="M0.800 0.805 Q0.908 0.711 0.749 0.638" stroke="hsl(180.0,100%,35%)" stroke-width="0.00125"></path>
<path d="M0.800 0.805 Q0.991 0.603 0.639 0.466" stroke="hsl(180.0,100%,35%)" stroke-width="0.00063"></path>
<path d="M0.800 0.805 Q1.071 0.735 0.994 0.587" stroke="hsl(180.0,100%,35%)" stroke-width="0.00063"></path>
<path d="M0.578 0.321 Q0.993 0.272 0.990 0.060" stroke="hsl(180.0,100%,35%)" stroke-width="0.00031"></path>
<path d="M0.578 0.321 Q0.410 0.514 0.749 0.638" stroke="hsl(180.0,100%,35%)" stroke-width="0.00219"></path>
<path d="M0.578 0.321 Q0.493 0.405 0.639 0.466" stroke="hsl(180.0,100%,35%)" stroke-width="0.00156"></path>
<path d="M0.578 0.321 Q0.249 0.492 0.511 0.689" stroke="hsl(180.0,100%,35%)" stroke-width="0.00094"></path>
<path d="M0.578 0.321 Q0.573 0.537 0.994 0.587" stroke="hsl(180.0,100%,35%)" stroke-width="0.00031"></path>
<path d="M0.578 0.321 Q0.645 0.507 1.022 0.515" stroke="hsl(180.0,100%,35%)" stroke-width="0.00031"></path>
<path d="M1.233 0.135 Q1.171 0.049 0.990 0.060" stroke="hsl(0.0,100%,35%)" stroke-width="0.00063"></path>
<path d="M1.233 0.135 Q0.526 0.467 1.017 0.884" stroke="hsl(0.0,100%,35%)" stroke-width="0.00063"></path>
<path d="M1.233 0.135 Q1.099 0.124 1.047 0.186" stroke="hsl(0.0,100%,35%)" stroke-width="0.00031"></path>
<path d="M1.233 0.135 Q0.589 0.290 0.749 0.638" stroke="hsl(0.0,100%,35%)" stroke-width="0.00031"></path>
<path d="M0.605 0.693 Q0.515 0.635 0.383 0.666" stroke="hsl(180.0,100%,35%)" stroke-width="0.00125"></path>
<path d="M0.605 0.693 Q0.884 0.718 0.994 0.587" stroke="hsl(180.0,100%,35%)" stroke-width="0.00031"></path>
<path d="M0.605 0.693 Q0.721 0.694 0.749 0.638" stroke="hsl(180.0,100%,35%)" stroke-width="0.00094"></path>
<path d="M0.748 0.384 Q0.339 0.452 0.383 0.666" stroke="hsl(180.0,100%,35%)" stroke-width="0.00031"></path>
<path d="M0.748 0.384 Q0.545 0.511 0.749 0.638" stroke="hsl(180.0,100%,35%)" stroke-width="0.00031"></path>
<path d="M0.748 0.384 Q0.628 0.403 0.639 0.466" stroke="hsl(180.0,100%,35%)" stroke-width="0.00031"></path>
<path d="M0.748 0.384 Q0.780 0.504 1.022 0.515" stroke="hsl(180.0,100%,35%)" stroke-width="0.00031"></path>
<path d="M0.544 0.810 Q1.482 0.589 1.258 0.083" stroke="hsl(180.0,100%,35%)" stroke-width="0.00031"></path>
<path d="M0.544 0.810 Q0.784 0.765 0.749 0.638" stroke="hsl(180.0,100%,35%)" stroke-width="0.00063"></path>
<path d="M0.544 0.810 Q1.367 0.524 0.990 0.060" stroke="hsl(180.0,100%,35%)" stroke-width="0.00031"></path>
<path d="M0.544 0.810 Q0.947 0.789 0.994 0.587" stroke="hsl(180.0,100%,35%)" stroke-width="0.00031"></path>
<path d="M0.481 0.702 Q1.176 0.557 1.047 0.186" stroke="hsl(0.0,100%,35%)" stroke-width="0.00031"></path>
<path d="M0.481 0.702 Q0.666 0.723 0.749 0.638" stroke="hsl(0.0,100%,35%)" stroke-width="0.00063"></path>
<path d="M0.481 0.702 Q1.249 0.482 0.990 0.060" stroke="hsl(0.0,100%,35%)" stroke-width="0.00031"></path>
<path d="M1.230 0.467 Q1.457 0.559 1.686 0.468" stroke="hsl(0.0,100%,35%)" stroke-width="0.00156"></path>
<path d="M1.230 0.467 Q0.789 0.633 1.017 0.884" stroke="hsl(0.0,100%,35%)" stroke-width="0.00031"></path>
<path d="M1.230 0.467 Q1.173 0.676 1.569 0.749" stroke="hsl(0.0,100%,35%)" stroke-width="0.00031"></path>
<path d="M1.230 0.467 Q0.785 0.720 1.183 0.993" stroke="hsl(0.0,100%,35%)" stroke-width="0.00031"></path>
<path d="M1.230 0.467 Q1.551 0.224 1.148 0.014" stroke="hsl(0.0,100%,35%)" stroke-width="0.00125"></path>
<path d="M1.230 0.467 Q1.029 0.602 1.249 0.729" stroke="hsl(0.0,100%,35%)" stroke-width="0.00282"></path>
<path d="M1.230 0.467 Q1.034 0.681 1.409 0.824" stroke="hsl(0.0,100%,35%)" stroke-width="0.00031"></path>
</g>
<text x="1.450" y="0.919" font-size="0.007147" fill="hsl(0.0,100%,20%)">alecmouri</text>
<text x="1.569" y="0.741" font-size="0.015982" fill="hsl(0.0,100%,20%)">scroggo</text>
<text x="1.017" y="0.863" font-size="0.042586" fill="hsl(0.0,100%,20%)">fmalita</text>
<text x="1.183" y="0.977" font-size="0.031155" fill="hsl(0.0,100%,20%)">danieldilan</text>
<text x="0.381" y="0.523" font-size="0.008253" fill="hsl(180.0,100%,20%)">aperez</text>
<text x="0.990" y="0.035" font-size="0.049690" fill="hsl(0.0,100%,20%)">brianosman</text>
<text x="0.749" y="0.601" font-size="0.074335" fill="hsl(180.0,100%,20%)">michaelludwig</text>
<text x="1.047" y="0.159" font-size="0.054978" fill="hsl(0.0,100%,20%)">bungeman</text>
<text x="0.383" y="0.642" font-size="0.049519" fill="hsl(180.0,100%,20%)">egdaniel</text>
<text x="0.415" y="0.708" font-size="0.018455" fill="hsl(180.0,100%,20%)">armansito</text>
<text x="0.511" y="0.672" font-size="0.035618" fill="hsl(180.0,100%,20%)">jamesgk</text>
<text x="0.994" y="0.559" font-size="0.057476" fill="hsl(180.0,100%,20%)">jvanverth</text>
<text x="0.639" y="0.447" font-size="0.038268" fill="hsl(180.0,100%,20%)">nicolettep</text>
<text x="1.022" y="0.484" font-size="0.062446" fill="hsl(180.0,100%,20%)">robertphillips</text>
<text x="1.686" y="0.434" font-size="0.068742" fill="hsl(0.0,100%,20%)">kjlubick</text>
<text x="1.148" y="0.006" font-size="0.015982" fill="hsl(0.0,100%,20%)">ccameron</text>
<text x="1.446" y="0.645" font-size="0.009227" fill="hsl(0.0,100%,20%)">arthursonzogni</text>
<text x="0.611" y="0.753" font-size="0.008253" fill="hsl(180.0,100%,20%)">beaufort.francois</text>
<text x="0.357" y="0.447" font-size="0.008253" fill="hsl(180.0,100%,20%)">blundell</text>
<text x="1.807" y="0.219" font-size="0.031831" fill="hsl(0.0,100%,20%)">borenet</text>
<text x="1.334" y="0.532" font-size="0.008253" fill="hsl(0.0,100%,20%)">rmistry</text>
<text x="1.258" y="0.062" font-size="0.041369" fill="hsl(0.0,100%,20%)">johnstiles</text>
<text x="1.623" y="0.837" font-size="0.013686" fill="hsl(0.0,100%,20%)">bwils</text>
<text x="1.409" y="0.814" font-size="0.018222" fill="hsl(0.0,100%,20%)">jmbetancourt</text>
<text x="0.804" y="0.222" font-size="0.023705" fill="hsl(0.0,100%,20%)">jlavrova</text>
<text x="0.577" y="0.507" font-size="0.017014" fill="hsl(180.0,100%,20%)">briansalomon</text>
<text x="0.822" y="0.122" font-size="0.022602" fill="hsl(0.0,100%,20%)">drott</text>
<text x="0.245" y="0.556" font-size="0.009227" fill="hsl(0.0,100%,20%)">jcgregorio</text>
<text x="1.056" y="0.717" font-size="0.005054" fill="hsl(0.0,100%,20%)">hcm</text>
<text x="0.563" y="0.111" font-size="0.005836" fill="hsl(0.0,100%,20%)">brettos</text>
<text x="1.305" y="0.072" font-size="0.008253" fill="hsl(0.0,100%,20%)">chengyangyang-hf</text>
<text x="1.167" y="0.251" font-size="0.007147" fill="hsl(0.0,100%,20%)">coldpalelight</text>
<text x="0.899" y="0.325" font-size="0.009227" fill="hsl(180.0,100%,20%)">cwallez</text>
<text x="1.249" y="0.718" font-size="0.022030" fill="hsl(0.0,100%,20%)">nscobie</text>
<text x="0.346" y="3.358" font-size="0.002918" fill="hsl(180.0,100%,20%)">jreck</text>
<text x="0.960" y="1.044" font-size="0.004127" fill="hsl(0.0,100%,20%)">sharaks</text>
<text x="1.401" y="0.542" font-size="0.008754" fill="hsl(0.0,100%,20%)">maxhudnell</text>
<text x="1.122" y="0.110" font-size="0.005836" fill="hsl(0.0,100%,20%)">geofflang</text>
<text x="1.269" y="0.842" font-size="0.028590" fill="hsl(0.0,100%,20%)">lukasza</text>
<text x="0.451" y="0.693" font-size="0.008253" fill="hsl(180.0,100%,20%)">jie.a.chen</text>
<text x="1.399" y="0.191" font-size="0.002918" fill="hsl(0.0,100%,20%)">lovisolo</text>
<text x="0.606" y="0.743" font-size="0.025605" fill="hsl(180.0,100%,20%)">nathanasanchez</text>
<text x="0.730" y="0.067" font-size="0.005054" fill="hsl(0.0,100%,20%)">jsimmons</text>
<text x="0.856" y="0.735" font-size="0.004127" fill="hsl(180.0,100%,20%)">thomsmit</text>
<text x="1.519" y="0.269" font-size="0.002918" fill="hsl(0.0,100%,20%)">mingkong</text>
<text x="1.278" y="0.364" font-size="0.002918" fill="hsl(0.0,100%,20%)">ashwinpv</text>
<text x="0.800" y="0.800" font-size="0.008253" fill="hsl(180.0,100%,20%)">kylechar</text>
<text x="0.578" y="0.314" font-size="0.012380" fill="hsl(180.0,100%,20%)">lokokung</text>
<text x="1.233" y="0.132" font-size="0.007147" fill="hsl(0.0,100%,20%)">mike</text>
<text x="0.605" y="0.689" font-size="0.008253" fill="hsl(180.0,100%,20%)">penghuang</text>
<text x="0.748" y="0.381" font-size="0.005836" fill="hsl(180.0,100%,20%)">petermcneeley</text>
<text x="0.544" y="0.807" font-size="0.006525" fill="hsl(180.0,100%,20%)">sky</text>
<text x="0.481" y="0.699" font-size="0.005836" fill="hsl(0.0,100%,20%)">tangm</text>
<text x="1.230" y="0.460" font-size="0.013686" fill="hsl(0.0,100%,20%)">vigneshv</text>
</svg>
