<svg width="4000" height="2000" viewBox="-0.025 -0.025 2.05 1.05" xmlns="http://www.w3.org/2000/svg">
  <style>
    path {
      fill: none;
      stroke-linecap: round;
      stroke-opacity: 0.4;
    }

    text {
      text-anchor: middle;
      alignment-baseline: hanging;
    }
  </style>
  <g opacity="0.4">
<path d="M0.100 0.620 Q0.328 0.579 0.298 0.459" stroke="hsl(0.0,100%,35%)" stroke-width="0.00130"></path>
<path d="M0.100 0.620 Q0.476 0.926 1.157 0.810" stroke="hsl(0.0,100%,35%)" stroke-width="0.00065"></path>
<path d="M0.100 0.620 Q0.904 0.577 0.997 0.175" stroke="hsl(0.0,100%,35%)" stroke-width="0.00065"></path>
<path d="M0.298 0.459 Q0.502 0.405 0.442 0.294" stroke="hsl(180.0,100%,35%)" stroke-width="0.00848"></path>
<path d="M0.298 0.459 Q0.362 0.367 0.198 0.315" stroke="hsl(180.0,100%,35%)" stroke-width="0.01369"></path>
<path d="M0.298 0.459 Q0.761 0.605 1.148 0.412" stroke="hsl(180.0,100%,35%)" stroke-width="0.00391"></path>
<path d="M0.298 0.459 Q0.187 0.420 0.087 0.465" stroke="hsl(180.0,100%,35%)" stroke-width="0.00130"></path>
<path d="M0.298 0.459 Q0.641 0.395 0.593 0.214" stroke="hsl(180.0,100%,35%)" stroke-width="0.00065"></path>
<path d="M0.298 0.459 Q0.641 0.504 0.805 0.346" stroke="hsl(180.0,100%,35%)" stroke-width="0.00326"></path>
<path d="M0.298 0.459 Q0.597 0.553 0.847 0.428" stroke="hsl(180.0,100%,35%)" stroke-width="0.00326"></path>
<path d="M0.298 0.459 Q0.239 0.550 0.403 0.599" stroke="hsl(180.0,100%,35%)" stroke-width="0.00261"></path>
<path d="M1.157 0.810 Q1.352 0.399 0.593 0.214" stroke="hsl(0.0,100%,35%)" stroke-width="0.00261"></path>
<path d="M1.157 0.810 Q1.585 0.461 0.997 0.175" stroke="hsl(0.0,100%,35%)" stroke-width="0.01043"></path>
<path d="M1.157 0.810 Q0.934 0.806 0.877 0.914" stroke="hsl(0.0,100%,35%)" stroke-width="0.00587"></path>
<path d="M1.157 0.810 Q1.483 0.673 1.286 0.484" stroke="hsl(0.0,100%,35%)" stroke-width="0.00065"></path>
<path d="M1.157 0.810 Q1.009 0.463 0.298 0.459" stroke="hsl(0.0,100%,35%)" stroke-width="0.00065"></path>
<path d="M1.157 0.810 Q1.625 0.545 1.210 0.259" stroke="hsl(0.0,100%,35%)" stroke-width="0.00130"></path>
<path d="M1.157 0.810 Q1.480 0.529 1.001 0.310" stroke="hsl(0.0,100%,35%)" stroke-width="0.00065"></path>
<path d="M0.997 0.175 Q0.763 0.114 0.593 0.214" stroke="hsl(0.0,100%,35%)" stroke-width="0.01500"></path>
<path d="M0.997 0.175 Q0.421 0.177 0.298 0.459" stroke="hsl(0.0,100%,35%)" stroke-width="0.00130"></path>
<path d="M0.997 0.175 Q0.720 0.272 0.847 0.428" stroke="hsl(0.0,100%,35%)" stroke-width="0.00326"></path>
<path d="M0.997 0.175 Q0.883 0.324 1.148 0.412" stroke="hsl(0.0,100%,35%)" stroke-width="0.00587"></path>
<path d="M0.997 0.175 Q0.891 0.243 1.001 0.310" stroke="hsl(0.0,100%,35%)" stroke-width="0.00130"></path>
<path d="M0.997 0.175 Q1.037 0.260 1.210 0.259" stroke="hsl(0.0,100%,35%)" stroke-width="0.00717"></path>
<path d="M0.997 0.175 Q0.345 0.521 0.877 0.914" stroke="hsl(0.0,100%,35%)" stroke-width="0.01108"></path>
<path d="M0.997 0.175 Q0.569 0.525 1.157 0.810" stroke="hsl(0.0,100%,35%)" stroke-width="0.00978"></path>
<path d="M0.997 0.175 Q0.624 0.124 0.442 0.294" stroke="hsl(0.0,100%,35%)" stroke-width="0.00065"></path>
<path d="M0.969 0.522 Q1.147 0.503 1.148 0.412" stroke="hsl(180.0,100%,35%)" stroke-width="0.00196"></path>
<path d="M0.969 0.522 Q1.027 0.293 0.593 0.214" stroke="hsl(180.0,100%,35%)" stroke-width="0.00130"></path>
<path d="M0.969 0.522 Q0.684 0.356 0.298 0.459" stroke="hsl(180.0,100%,35%)" stroke-width="0.00065"></path>
<path d="M1.148 0.412 Q0.834 0.613 1.157 0.810" stroke="hsl(180.0,100%,35%)" stroke-width="0.00391"></path>
<path d="M1.148 0.412 Q1.029 0.310 0.805 0.346" stroke="hsl(180.0,100%,35%)" stroke-width="0.01565"></path>
<path d="M1.148 0.412 Q1.262 0.263 0.997 0.175" stroke="hsl(180.0,100%,35%)" stroke-width="0.01434"></path>
<path d="M1.148 0.412 Q1.028 0.202 0.593 0.214" stroke="hsl(180.0,100%,35%)" stroke-width="0.00261"></path>
<path d="M1.148 0.412 Q0.889 0.212 0.442 0.294" stroke="hsl(180.0,100%,35%)" stroke-width="0.01825"></path>
<path d="M1.148 0.412 Q0.958 0.515 1.117 0.631" stroke="hsl(180.0,100%,35%)" stroke-width="0.00261"></path>
<path d="M1.148 0.412 Q1.301 0.348 1.210 0.259" stroke="hsl(180.0,100%,35%)" stroke-width="0.00326"></path>
<path d="M1.148 0.412 Q0.685 0.265 0.298 0.459" stroke="hsl(180.0,100%,35%)" stroke-width="0.01043"></path>
<path d="M1.148 0.412 Q0.985 0.360 0.847 0.428" stroke="hsl(180.0,100%,35%)" stroke-width="0.01760"></path>
<path d="M1.148 0.412 Q0.610 0.609 0.877 0.914" stroke="hsl(180.0,100%,35%)" stroke-width="0.00326"></path>
<path d="M1.148 0.412 Q0.807 0.441 0.791 0.614" stroke="hsl(180.0,100%,35%)" stroke-width="0.00065"></path>
<path d="M1.148 0.412 Q1.159 0.475 1.286 0.484" stroke="hsl(180.0,100%,35%)" stroke-width="0.00130"></path>
<path d="M0.593 0.214 Q0.398 0.625 1.157 0.810" stroke="hsl(0.0,100%,35%)" stroke-width="0.00456"></path>
<path d="M0.593 0.214 Q0.826 0.276 0.997 0.175" stroke="hsl(0.0,100%,35%)" stroke-width="0.02869"></path>
<path d="M0.593 0.214 Q0.713 0.424 1.148 0.412" stroke="hsl(0.0,100%,35%)" stroke-width="0.00065"></path>
<path d="M0.593 0.214 Q0.522 0.527 1.117 0.631" stroke="hsl(0.0,100%,35%)" stroke-width="0.00065"></path>
<path d="M0.593 0.214 Q0.250 0.278 0.298 0.459" stroke="hsl(0.0,100%,35%)" stroke-width="0.00196"></path>
<path d="M0.593 0.214 Q0.866 0.360 1.210 0.259" stroke="hsl(0.0,100%,35%)" stroke-width="0.00913"></path>
<path d="M0.593 0.214 Q0.175 0.621 0.877 0.914" stroke="hsl(0.0,100%,35%)" stroke-width="0.00130"></path>
<path d="M0.593 0.214 Q0.454 0.224 0.442 0.294" stroke="hsl(0.0,100%,35%)" stroke-width="0.00065"></path>
<path d="M0.593 0.214 Q0.721 0.344 1.001 0.310" stroke="hsl(0.0,100%,35%)" stroke-width="0.00065"></path>
<path d="M1.705 0.770 Q1.867 0.415 1.210 0.259" stroke="hsl(0.0,100%,35%)" stroke-width="0.00065"></path>
<path d="M1.705 0.770 Q1.827 0.331 0.997 0.175" stroke="hsl(0.0,100%,35%)" stroke-width="0.00130"></path>
<path d="M1.705 0.770 Q1.399 0.681 1.157 0.810" stroke="hsl(0.0,100%,35%)" stroke-width="0.00065"></path>
<path d="M1.210 0.259 Q1.170 0.174 0.997 0.175" stroke="hsl(0.0,100%,35%)" stroke-width="0.01500"></path>
<path d="M1.210 0.259 Q0.937 0.113 0.593 0.214" stroke="hsl(0.0,100%,35%)" stroke-width="0.02543"></path>
<path d="M1.210 0.259 Q0.594 0.176 0.298 0.459" stroke="hsl(0.0,100%,35%)" stroke-width="0.00130"></path>
<path d="M1.210 0.259 Q0.742 0.524 1.157 0.810" stroke="hsl(0.0,100%,35%)" stroke-width="0.00456"></path>
<path d="M1.210 0.259 Q1.065 0.242 1.001 0.310" stroke="hsl(0.0,100%,35%)" stroke-width="0.00261"></path>
<path d="M1.210 0.259 Q0.798 0.123 0.442 0.294" stroke="hsl(0.0,100%,35%)" stroke-width="0.00065"></path>
<path d="M1.210 0.259 Q0.519 0.520 0.877 0.914" stroke="hsl(0.0,100%,35%)" stroke-width="0.00261"></path>
<path d="M1.210 0.259 Q0.483 0.137 0.087 0.465" stroke="hsl(0.0,100%,35%)" stroke-width="0.00065"></path>
<path d="M1.210 0.259 Q1.511 0.245 1.550 0.095" stroke="hsl(0.0,100%,35%)" stroke-width="0.00130"></path>
<path d="M1.210 0.259 Q1.057 0.323 1.148 0.412" stroke="hsl(0.0,100%,35%)" stroke-width="0.00261"></path>
<path d="M0.805 0.346 Q0.925 0.448 1.148 0.412" stroke="hsl(180.0,100%,35%)" stroke-width="0.01760"></path>
<path d="M0.805 0.346 Q0.610 0.649 1.157 0.810" stroke="hsl(180.0,100%,35%)" stroke-width="0.00065"></path>
<path d="M0.805 0.346 Q0.805 0.238 0.593 0.214" stroke="hsl(180.0,100%,35%)" stroke-width="0.00130"></path>
<path d="M0.805 0.346 Q1.038 0.299 0.997 0.175" stroke="hsl(180.0,100%,35%)" stroke-width="0.00065"></path>
<path d="M0.805 0.346 Q0.462 0.301 0.298 0.459" stroke="hsl(180.0,100%,35%)" stroke-width="0.00130"></path>
<path d="M0.805 0.346 Q0.761 0.395 0.847 0.428" stroke="hsl(180.0,100%,35%)" stroke-width="0.00065"></path>
<path d="M0.847 0.428 Q0.752 0.280 0.442 0.294" stroke="hsl(180.0,100%,35%)" stroke-width="0.00848"></path>
<path d="M0.847 0.428 Q1.124 0.331 0.997 0.175" stroke="hsl(180.0,100%,35%)" stroke-width="0.00391"></path>
<path d="M0.847 0.428 Q1.011 0.480 1.148 0.412" stroke="hsl(180.0,100%,35%)" stroke-width="0.00522"></path>
<path d="M0.847 0.428 Q0.891 0.270 0.593 0.214" stroke="hsl(180.0,100%,35%)" stroke-width="0.00130"></path>
<path d="M0.847 0.428 Q0.612 0.242 0.198 0.315" stroke="hsl(180.0,100%,35%)" stroke-width="0.00065"></path>
<path d="M1.406 0.816 Q1.286 0.763 1.157 0.810" stroke="hsl(0.0,100%,35%)" stroke-width="0.00717"></path>
<path d="M1.406 0.816 Q1.714 0.414 0.997 0.175" stroke="hsl(0.0,100%,35%)" stroke-width="0.00652"></path>
<path d="M1.406 0.816 Q1.342 0.362 0.442 0.294" stroke="hsl(0.0,100%,35%)" stroke-width="0.00130"></path>
<path d="M1.406 0.816 Q1.601 0.562 1.148 0.412" stroke="hsl(0.0,100%,35%)" stroke-width="0.00391"></path>
<path d="M1.406 0.816 Q1.063 0.759 0.877 0.914" stroke="hsl(0.0,100%,35%)" stroke-width="0.00065"></path>
<path d="M0.442 0.294 Q0.238 0.347 0.298 0.459" stroke="hsl(180.0,100%,35%)" stroke-width="0.00065"></path>
<path d="M0.442 0.294 Q0.163 0.691 0.877 0.914" stroke="hsl(180.0,100%,35%)" stroke-width="0.00065"></path>
<path d="M0.442 0.294 Q0.510 0.597 1.117 0.631" stroke="hsl(180.0,100%,35%)" stroke-width="0.00196"></path>
<path d="M0.442 0.294 Q0.537 0.442 0.847 0.428" stroke="hsl(180.0,100%,35%)" stroke-width="0.00456"></path>
<path d="M0.442 0.294 Q0.701 0.494 1.148 0.412" stroke="hsl(180.0,100%,35%)" stroke-width="0.00587"></path>
<path d="M0.442 0.294 Q0.814 0.346 0.997 0.175" stroke="hsl(180.0,100%,35%)" stroke-width="0.00065"></path>
<path d="M0.442 0.294 Q0.416 0.356 0.531 0.382" stroke="hsl(180.0,100%,35%)" stroke-width="0.00326"></path>
<path d="M0.442 0.294 Q0.712 0.558 1.286 0.484" stroke="hsl(180.0,100%,35%)" stroke-width="0.00065"></path>
<path d="M0.442 0.294 Q0.927 0.515 1.463 0.327" stroke="hsl(180.0,100%,35%)" stroke-width="0.00065"></path>
<path d="M0.442 0.294 Q0.581 0.284 0.593 0.214" stroke="hsl(180.0,100%,35%)" stroke-width="0.00196"></path>
<path d="M0.877 0.914 Q1.100 0.918 1.157 0.810" stroke="hsl(0.0,100%,35%)" stroke-width="0.00522"></path>
<path d="M0.877 0.914 Q1.294 0.508 0.593 0.214" stroke="hsl(0.0,100%,35%)" stroke-width="0.00065"></path>
<path d="M0.877 0.914 Q1.528 0.569 0.997 0.175" stroke="hsl(0.0,100%,35%)" stroke-width="0.00196"></path>
<path d="M0.877 0.914 Q1.568 0.653 1.210 0.259" stroke="hsl(0.0,100%,35%)" stroke-width="0.00196"></path>
<path d="M0.877 0.914 Q1.414 0.717 1.148 0.412" stroke="hsl(0.0,100%,35%)" stroke-width="0.00065"></path>
<path d="M0.198 0.315 Q0.133 0.407 0.298 0.459" stroke="hsl(180.0,100%,35%)" stroke-width="0.00717"></path>
<path d="M0.198 0.315 Q0.604 0.473 1.001 0.310" stroke="hsl(180.0,100%,35%)" stroke-width="0.00065"></path>
<path d="M0.198 0.315 Q0.710 0.405 0.997 0.175" stroke="hsl(180.0,100%,35%)" stroke-width="0.00130"></path>
<path d="M0.198 0.315 Q0.596 0.554 1.148 0.412" stroke="hsl(180.0,100%,35%)" stroke-width="0.00326"></path>
<path d="M0.198 0.315 Q0.405 0.657 1.117 0.631" stroke="hsl(180.0,100%,35%)" stroke-width="0.00065"></path>
<path d="M0.403 0.599 Q0.463 0.507 0.298 0.459" stroke="hsl(180.0,100%,35%)" stroke-width="0.00782"></path>
<path d="M0.403 0.599 Q0.925 0.654 1.148 0.412" stroke="hsl(180.0,100%,35%)" stroke-width="0.00522"></path>
<path d="M0.403 0.599 Q0.933 0.574 1.001 0.310" stroke="hsl(180.0,100%,35%)" stroke-width="0.00065"></path>
<path d="M1.001 0.310 Q1.106 0.242 0.997 0.175" stroke="hsl(0.0,100%,35%)" stroke-width="0.00913"></path>
<path d="M1.001 0.310 Q0.844 0.089 0.380 0.117" stroke="hsl(0.0,100%,35%)" stroke-width="0.00065"></path>
<path d="M1.001 0.310 Q0.678 0.591 1.157 0.810" stroke="hsl(0.0,100%,35%)" stroke-width="0.00130"></path>
<path d="M1.001 0.310 Q0.873 0.180 0.593 0.214" stroke="hsl(0.0,100%,35%)" stroke-width="0.00913"></path>
<path d="M1.001 0.310 Q0.530 0.243 0.298 0.459" stroke="hsl(0.0,100%,35%)" stroke-width="0.00065"></path>
<path d="M1.001 0.310 Q1.146 0.326 1.210 0.259" stroke="hsl(0.0,100%,35%)" stroke-width="0.00130"></path>
<path d="M1.001 0.310 Q0.993 0.390 1.148 0.412" stroke="hsl(0.0,100%,35%)" stroke-width="0.00130"></path>
<path d="M1.463 0.327 Q0.923 0.507 1.157 0.810" stroke="hsl(0.0,100%,35%)" stroke-width="0.00456"></path>
<path d="M1.463 0.327 Q0.700 0.503 0.877 0.914" stroke="hsl(0.0,100%,35%)" stroke-width="0.00130"></path>
<path d="M1.463 0.327 Q1.351 0.158 0.997 0.175" stroke="hsl(0.0,100%,35%)" stroke-width="0.00065"></path>
<path d="M1.463 0.327 Q1.249 0.370 1.286 0.484" stroke="hsl(0.0,100%,35%)" stroke-width="0.00065"></path>
<path d="M1.463 0.327 Q1.238 0.306 1.148 0.412" stroke="hsl(0.0,100%,35%)" stroke-width="0.00065"></path>
<path d="M1.463 0.327 Q0.775 0.159 0.298 0.459" stroke="hsl(0.0,100%,35%)" stroke-width="0.00065"></path>
<path d="M0.380 0.117 Q0.529 0.418 1.148 0.412" stroke="hsl(180.0,100%,35%)" stroke-width="0.01108"></path>
<path d="M0.380 0.117 Q0.365 0.366 0.847 0.428" stroke="hsl(180.0,100%,35%)" stroke-width="0.00913"></path>
<path d="M0.380 0.117 Q0.270 0.218 0.442 0.294" stroke="hsl(180.0,100%,35%)" stroke-width="0.01891"></path>
<path d="M0.380 0.117 Q1.059 0.469 1.893 0.215" stroke="hsl(180.0,100%,35%)" stroke-width="0.00065"></path>
<path d="M0.380 0.117 Q0.642 0.270 0.997 0.175" stroke="hsl(180.0,100%,35%)" stroke-width="0.00065"></path>
<path d="M0.380 0.117 Q0.682 0.354 1.210 0.259" stroke="hsl(180.0,100%,35%)" stroke-width="0.00065"></path>
<path d="M1.027 0.315 Q1.164 0.324 1.210 0.259" stroke="hsl(0.0,100%,35%)" stroke-width="0.00130"></path>
<path d="M1.027 0.315 Q1.124 0.239 0.997 0.175" stroke="hsl(0.0,100%,35%)" stroke-width="0.00196"></path>
<path d="M1.027 0.315 Q0.473 0.585 0.877 0.914" stroke="hsl(0.0,100%,35%)" stroke-width="0.00065"></path>
<path d="M0.574 0.402 Q0.967 0.373 0.997 0.175" stroke="hsl(0.0,100%,35%)" stroke-width="0.00391"></path>
<path d="M0.574 0.402 Q0.315 0.719 0.877 0.914" stroke="hsl(0.0,100%,35%)" stroke-width="0.00261"></path>
<path d="M0.574 0.402 Q0.861 0.441 1.001 0.310" stroke="hsl(0.0,100%,35%)" stroke-width="0.00196"></path>
<path d="M0.574 0.402 Q1.006 0.458 1.210 0.259" stroke="hsl(0.0,100%,35%)" stroke-width="0.00065"></path>
<path d="M0.574 0.402 Q0.733 0.312 0.593 0.214" stroke="hsl(0.0,100%,35%)" stroke-width="0.00065"></path>
<path d="M1.747 0.348 Q1.927 0.311 1.893 0.215" stroke="hsl(0.0,100%,35%)" stroke-width="0.00261"></path>
<path d="M1.747 0.348 Q1.622 0.281 1.463 0.327" stroke="hsl(0.0,100%,35%)" stroke-width="0.00587"></path>
<path d="M1.747 0.348 Q1.407 0.324 1.286 0.484" stroke="hsl(0.0,100%,35%)" stroke-width="0.00065"></path>
<path d="M1.747 0.348 Q1.397 0.260 1.148 0.412" stroke="hsl(0.0,100%,35%)" stroke-width="0.00065"></path>
</g>
<text x="0.100" y="0.615" font-size="0.009841" fill="hsl(0.0,100%,20%)">aperez</text>
<text x="0.298" y="0.433" font-size="0.052076" fill="hsl(180.0,100%,20%)">bungeman</text>
<text x="1.157" y="0.786" font-size="0.049207" fill="hsl(0.0,100%,20%)">egdaniel</text>
<text x="0.997" y="0.137" font-size="0.076389" fill="hsl(0.0,100%,20%)">michaelludwig</text>
<text x="0.969" y="0.516" font-size="0.012053" fill="hsl(180.0,100%,20%)">arthursonzogni</text>
<text x="1.148" y="0.373" font-size="0.078113" fill="hsl(180.0,100%,20%)">kjlubick</text>
<text x="0.593" y="0.182" font-size="0.064158" fill="hsl(0.0,100%,20%)">robertphillips</text>
<text x="1.705" y="0.765" font-size="0.009841" fill="hsl(0.0,100%,20%)">beaufort.francois</text>
<text x="1.210" y="0.231" font-size="0.055888" fill="hsl(0.0,100%,20%)">jvanverth</text>
<text x="0.805" y="0.327" font-size="0.039057" fill="hsl(180.0,100%,20%)">borenet</text>
<text x="0.847" y="0.405" font-size="0.046422" fill="hsl(180.0,100%,20%)">danieldilan</text>
<text x="1.406" y="0.803" font-size="0.026952" fill="hsl(0.0,100%,20%)">briansalomon</text>
<text x="0.442" y="0.267" font-size="0.053903" fill="hsl(180.0,100%,20%)">fmalita</text>
<text x="0.877" y="0.895" font-size="0.038745" fill="hsl(0.0,100%,20%)">nicolettep</text>
<text x="0.198" y="0.299" font-size="0.031890" fill="hsl(180.0,100%,20%)">jlavrova</text>
<text x="0.087" y="0.461" font-size="0.008523" fill="hsl(180.0,100%,20%)">brettos</text>
<text x="0.403" y="0.586" font-size="0.024603" fill="hsl(180.0,100%,20%)">drott</text>
<text x="1.001" y="0.292" font-size="0.034445" fill="hsl(0.0,100%,20%)">jamesgk</text>
<text x="1.286" y="0.478" font-size="0.012053" fill="hsl(0.0,100%,20%)">jmbetancourt</text>
<text x="1.117" y="0.623" font-size="0.014762" fill="hsl(180.0,100%,20%)">maxhudnell</text>
<text x="0.531" y="0.377" font-size="0.011003" fill="hsl(180.0,100%,20%)">bwils</text>
<text x="1.463" y="0.315" font-size="0.023599" fill="hsl(0.0,100%,20%)">nscobie</text>
<text x="0.380" y="0.098" font-size="0.039365" fill="hsl(180.0,100%,20%)">lukasza</text>
<text x="1.550" y="0.092" font-size="0.006959" fill="hsl(0.0,100%,20%)">thomsmit</text>
<text x="0.791" y="0.612" font-size="0.004921" fill="hsl(180.0,100%,20%)">rmistry</text>
<text x="1.027" y="0.309" font-size="0.012053" fill="hsl(0.0,100%,20%)">kylechar</text>
<text x="0.574" y="0.392" font-size="0.019058" fill="hsl(0.0,100%,20%)">lokokung</text>
<text x="1.893" y="0.209" font-size="0.011003" fill="hsl(0.0,100%,20%)">ccameron</text>
<text x="1.747" y="0.339" font-size="0.019058" fill="hsl(0.0,100%,20%)">vigneshv</text>
</svg>
