<svg width="4000" height="2000" viewBox="-0.025 -0.025 2.05 1.05" xmlns="http://www.w3.org/2000/svg">
  <style>
    path {
      fill: none;
      stroke-linecap: round;
      stroke-opacity: 0.4;
    }

    text {
      text-anchor: middle;
      alignment-baseline: hanging;
    }
  </style>
  <g opacity="0.4">
<path d="M1.086 0.783 Q1.223 0.813 1.312 0.752" stroke="hsl(0.0,100%,35%)" stroke-width="0.00534"></path>
<path d="M1.086 0.783 Q1.135 0.854 1.285 0.846" stroke="hsl(0.0,100%,35%)" stroke-width="0.01556"></path>
<path d="M1.086 0.783 Q1.540 0.376 0.846 0.065" stroke="hsl(0.0,100%,35%)" stroke-width="0.00044"></path>
<path d="M1.086 0.783 Q1.805 0.563 1.535 0.164" stroke="hsl(0.0,100%,35%)" stroke-width="0.00059"></path>
<path d="M1.086 0.783 Q1.665 0.522 1.284 0.183" stroke="hsl(0.0,100%,35%)" stroke-width="0.00059"></path>
<path d="M1.086 0.783 Q1.228 0.650 1.000 0.552" stroke="hsl(0.0,100%,35%)" stroke-width="0.00059"></path>
<path d="M1.086 0.783 Q1.389 0.452 0.812 0.232" stroke="hsl(0.0,100%,35%)" stroke-width="0.00059"></path>
<path d="M1.086 0.783 Q1.296 0.898 1.566 0.821" stroke="hsl(0.0,100%,35%)" stroke-width="0.00015"></path>
<path d="M1.086 0.783 Q1.518 0.751 1.550 0.533" stroke="hsl(0.0,100%,35%)" stroke-width="0.00015"></path>
<path d="M1.086 0.783 Q0.565 0.722 0.331 0.963" stroke="hsl(0.0,100%,35%)" stroke-width="0.00059"></path>
<path d="M1.086 0.783 Q1.078 0.684 0.883 0.666" stroke="hsl(0.0,100%,35%)" stroke-width="0.00030"></path>
<path d="M1.086 0.783 Q1.295 0.994 1.753 0.938" stroke="hsl(0.0,100%,35%)" stroke-width="0.00030"></path>
<path d="M1.086 0.783 Q1.493 0.571 1.169 0.326" stroke="hsl(0.0,100%,35%)" stroke-width="0.00044"></path>
<path d="M1.312 0.752 Q1.629 0.316 0.846 0.065" stroke="hsl(0.0,100%,35%)" stroke-width="0.00089"></path>
<path d="M1.312 0.752 Q1.479 0.392 0.812 0.232" stroke="hsl(0.0,100%,35%)" stroke-width="0.00534"></path>
<path d="M1.312 0.752 Q1.607 0.690 1.550 0.533" stroke="hsl(0.0,100%,35%)" stroke-width="0.00356"></path>
<path d="M1.312 0.752 Q1.422 0.681 1.306 0.612" stroke="hsl(0.0,100%,35%)" stroke-width="0.00104"></path>
<path d="M1.312 0.752 Q1.224 0.793 1.285 0.846" stroke="hsl(0.0,100%,35%)" stroke-width="0.01349"></path>
<path d="M1.312 0.752 Q1.099 0.756 1.060 0.862" stroke="hsl(0.0,100%,35%)" stroke-width="0.00771"></path>
<path d="M1.312 0.752 Q1.560 0.606 1.329 0.454" stroke="hsl(0.0,100%,35%)" stroke-width="0.00044"></path>
<path d="M1.312 0.752 Q1.385 0.837 1.566 0.821" stroke="hsl(0.0,100%,35%)" stroke-width="0.00074"></path>
<path d="M1.312 0.752 Q1.582 0.510 1.169 0.326" stroke="hsl(0.0,100%,35%)" stroke-width="0.01097"></path>
<path d="M1.312 0.752 Q1.175 0.722 1.086 0.783" stroke="hsl(0.0,100%,35%)" stroke-width="0.00178"></path>
<path d="M1.312 0.752 Q0.896 1.133 1.548 1.419" stroke="hsl(0.0,100%,35%)" stroke-width="0.00044"></path>
<path d="M1.312 0.752 Q1.907 0.421 1.391 0.058" stroke="hsl(0.0,100%,35%)" stroke-width="0.00030"></path>
<path d="M1.312 0.752 Q0.813 0.626 0.456 0.842" stroke="hsl(0.0,100%,35%)" stroke-width="0.00030"></path>
<path d="M1.312 0.752 Q1.317 0.590 1.000 0.552" stroke="hsl(0.0,100%,35%)" stroke-width="0.00059"></path>
<path d="M1.312 0.752 Q1.754 0.462 1.284 0.183" stroke="hsl(0.0,100%,35%)" stroke-width="0.00015"></path>
<path d="M1.312 0.752 Q1.167 0.624 0.883 0.666" stroke="hsl(0.0,100%,35%)" stroke-width="0.00015"></path>
<path d="M1.312 0.752 Q0.654 0.661 0.331 0.963" stroke="hsl(0.0,100%,35%)" stroke-width="0.00059"></path>
<path d="M1.312 0.752 Q1.828 0.379 1.211 0.045" stroke="hsl(0.0,100%,35%)" stroke-width="0.00044"></path>
<path d="M1.285 0.846 Q1.159 0.809 1.060 0.862" stroke="hsl(0.0,100%,35%)" stroke-width="0.01082"></path>
<path d="M1.285 0.846 Q1.689 0.368 0.846 0.065" stroke="hsl(0.0,100%,35%)" stroke-width="0.00133"></path>
<path d="M1.285 0.846 Q1.643 0.563 1.169 0.326" stroke="hsl(0.0,100%,35%)" stroke-width="0.00534"></path>
<path d="M1.285 0.846 Q1.373 0.804 1.312 0.752" stroke="hsl(0.0,100%,35%)" stroke-width="0.00608"></path>
<path d="M1.285 0.846 Q1.568 0.854 1.647 0.718" stroke="hsl(0.0,100%,35%)" stroke-width="0.00015"></path>
<path d="M1.285 0.846 Q1.668 0.742 1.550 0.533" stroke="hsl(0.0,100%,35%)" stroke-width="0.00059"></path>
<path d="M1.285 0.846 Q1.445 0.985 1.753 0.938" stroke="hsl(0.0,100%,35%)" stroke-width="0.00030"></path>
<path d="M1.285 0.846 Q1.814 0.514 1.284 0.183" stroke="hsl(0.0,100%,35%)" stroke-width="0.00030"></path>
<path d="M1.285 0.846 Q1.445 0.889 1.566 0.821" stroke="hsl(0.0,100%,35%)" stroke-width="0.00030"></path>
<path d="M1.285 0.846 Q1.236 0.774 1.086 0.783" stroke="hsl(0.0,100%,35%)" stroke-width="0.00889"></path>
<path d="M1.285 0.846 Q0.714 0.713 0.331 0.963" stroke="hsl(0.0,100%,35%)" stroke-width="0.00015"></path>
<path d="M1.285 0.846 Q1.539 0.444 0.812 0.232" stroke="hsl(0.0,100%,35%)" stroke-width="0.00030"></path>
<path d="M1.285 0.846 Q1.981 0.595 1.646 0.201" stroke="hsl(0.0,100%,35%)" stroke-width="0.00015"></path>
<path d="M1.285 0.846 Q2.006 0.501 1.492 0.074" stroke="hsl(0.0,100%,35%)" stroke-width="0.00015"></path>
<path d="M1.285 0.846 Q1.548 0.953 1.816 0.848" stroke="hsl(0.0,100%,35%)" stroke-width="0.00015"></path>
<path d="M0.846 0.065 Q0.799 0.260 1.169 0.326" stroke="hsl(0.0,100%,35%)" stroke-width="0.00697"></path>
<path d="M0.846 0.065 Q0.441 0.543 1.285 0.846" stroke="hsl(0.0,100%,35%)" stroke-width="0.00845"></path>
<path d="M0.846 0.065 Q0.316 0.506 1.060 0.862" stroke="hsl(0.0,100%,35%)" stroke-width="0.00875"></path>
<path d="M0.846 0.065 Q0.529 0.502 1.312 0.752" stroke="hsl(0.0,100%,35%)" stroke-width="0.01764"></path>
<path d="M0.846 0.065 Q1.124 0.171 1.391 0.058" stroke="hsl(0.0,100%,35%)" stroke-width="0.00015"></path>
<path d="M0.846 0.065 Q0.696 0.142 0.812 0.232" stroke="hsl(0.0,100%,35%)" stroke-width="0.00415"></path>
<path d="M0.846 0.065 Q0.824 0.440 1.550 0.533" stroke="hsl(0.0,100%,35%)" stroke-width="0.00400"></path>
<path d="M0.846 0.065 Q0.639 0.430 1.306 0.612" stroke="hsl(0.0,100%,35%)" stroke-width="0.00296"></path>
<path d="M0.846 0.065 Q0.601 0.683 1.753 0.938" stroke="hsl(0.0,100%,35%)" stroke-width="0.00015"></path>
<path d="M0.846 0.065 Q0.384 0.373 0.883 0.666" stroke="hsl(0.0,100%,35%)" stroke-width="0.00059"></path>
<path d="M0.846 0.065 Q0.627 0.045 0.540 0.147" stroke="hsl(0.0,100%,35%)" stroke-width="0.00030"></path>
<path d="M0.846 0.065 Q0.921 0.129 1.061 0.106" stroke="hsl(0.0,100%,35%)" stroke-width="0.00015"></path>
<path d="M0.846 0.065 Q-0.129 0.411 0.331 0.963" stroke="hsl(0.0,100%,35%)" stroke-width="0.00193"></path>
<path d="M0.846 0.065 Q0.392 0.472 1.086 0.783" stroke="hsl(0.0,100%,35%)" stroke-width="0.00252"></path>
<path d="M0.846 0.065 Q0.602 0.587 1.566 0.821" stroke="hsl(0.0,100%,35%)" stroke-width="0.00133"></path>
<path d="M0.846 0.065 Q0.797 0.519 1.670 0.642" stroke="hsl(0.0,100%,35%)" stroke-width="0.00193"></path>
<path d="M0.846 0.065 Q1.045 0.128 1.211 0.045" stroke="hsl(0.0,100%,35%)" stroke-width="0.00015"></path>
<path d="M0.846 0.065 Q0.971 0.212 1.284 0.183" stroke="hsl(0.0,100%,35%)" stroke-width="0.00015"></path>
<path d="M0.846 0.065 Q0.534 0.339 1.000 0.552" stroke="hsl(0.0,100%,35%)" stroke-width="0.00030"></path>
<path d="M0.846 0.065 Q0.777 0.356 1.329 0.454" stroke="hsl(0.0,100%,35%)" stroke-width="0.00015"></path>
<path d="M1.535 0.164 Q1.394 0.123 1.284 0.183" stroke="hsl(120.0,100%,35%)" stroke-width="0.00163"></path>
<path d="M1.535 0.164 Q1.024 0.594 1.753 0.938" stroke="hsl(120.0,100%,35%)" stroke-width="0.00015"></path>
<path d="M1.535 0.164 Q1.269 -0.023 0.846 0.065" stroke="hsl(120.0,100%,35%)" stroke-width="0.00074"></path>
<path d="M1.535 0.164 Q1.344 0.040 1.061 0.106" stroke="hsl(120.0,100%,35%)" stroke-width="0.00133"></path>
<path d="M1.535 0.164 Q0.864 0.455 1.285 0.846" stroke="hsl(120.0,100%,35%)" stroke-width="0.00104"></path>
<path d="M1.535 0.164 Q0.294 0.322 0.331 0.963" stroke="hsl(120.0,100%,35%)" stroke-width="0.00044"></path>
<path d="M1.535 0.164 Q0.953 0.414 1.312 0.752" stroke="hsl(120.0,100%,35%)" stroke-width="0.00015"></path>
<path d="M1.535 0.164 Q1.548 0.082 1.391 0.058" stroke="hsl(120.0,100%,35%)" stroke-width="0.00015"></path>
<path d="M1.535 0.164 Q1.585 0.110 1.492 0.074" stroke="hsl(120.0,100%,35%)" stroke-width="0.00030"></path>
<path d="M1.284 0.183 Q1.419 0.167 1.418 0.097" stroke="hsl(120.0,100%,35%)" stroke-width="0.00015"></path>
<path d="M1.284 0.183 Q1.425 0.223 1.535 0.164" stroke="hsl(120.0,100%,35%)" stroke-width="0.00267"></path>
<path d="M1.284 0.183 Q0.629 0.477 1.060 0.862" stroke="hsl(120.0,100%,35%)" stroke-width="0.00015"></path>
<path d="M1.284 0.183 Q1.358 0.100 1.211 0.045" stroke="hsl(120.0,100%,35%)" stroke-width="0.00015"></path>
<path d="M1.284 0.183 Q1.090 0.327 1.329 0.454" stroke="hsl(120.0,100%,35%)" stroke-width="0.00015"></path>
<path d="M1.284 0.183 Q0.842 0.473 1.312 0.752" stroke="hsl(120.0,100%,35%)" stroke-width="0.00015"></path>
<path d="M1.284 0.183 Q1.112 0.231 1.169 0.326" stroke="hsl(120.0,100%,35%)" stroke-width="0.00015"></path>
<path d="M1.284 0.183 Q1.234 0.100 1.061 0.106" stroke="hsl(120.0,100%,35%)" stroke-width="0.00030"></path>
<path d="M1.284 0.183 Q0.184 0.382 0.331 0.963" stroke="hsl(120.0,100%,35%)" stroke-width="0.00044"></path>
<path d="M1.284 0.183 Q1.450 0.264 1.646 0.201" stroke="hsl(120.0,100%,35%)" stroke-width="0.00148"></path>
<path d="M1.284 0.183 Q0.847 0.311 1.000 0.552" stroke="hsl(120.0,100%,35%)" stroke-width="0.00015"></path>
<path d="M1.000 0.552 Q1.290 0.652 1.550 0.533" stroke="hsl(120.0,100%,35%)" stroke-width="0.01023"></path>
<path d="M1.000 0.552 Q1.068 0.800 1.566 0.821" stroke="hsl(120.0,100%,35%)" stroke-width="0.00415"></path>
<path d="M1.000 0.552 Q0.996 0.715 1.312 0.752" stroke="hsl(120.0,100%,35%)" stroke-width="0.00074"></path>
<path d="M1.000 0.552 Q1.312 0.278 0.846 0.065" stroke="hsl(120.0,100%,35%)" stroke-width="0.00074"></path>
<path d="M1.000 0.552 Q1.437 0.424 1.284 0.183" stroke="hsl(120.0,100%,35%)" stroke-width="0.00341"></path>
<path d="M1.000 0.552 Q1.191 0.764 1.647 0.718" stroke="hsl(120.0,100%,35%)" stroke-width="0.00074"></path>
<path d="M1.000 0.552 Q1.604 0.505 1.646 0.201" stroke="hsl(120.0,100%,35%)" stroke-width="0.00030"></path>
<path d="M1.000 0.552 Q0.858 0.684 1.086 0.783" stroke="hsl(120.0,100%,35%)" stroke-width="0.00044"></path>
<path d="M1.000 0.552 Q1.162 0.354 0.812 0.232" stroke="hsl(120.0,100%,35%)" stroke-width="0.00030"></path>
<path d="M1.000 0.552 Q0.850 0.586 0.883 0.666" stroke="hsl(120.0,100%,35%)" stroke-width="0.00860"></path>
<path d="M1.000 0.552 Q1.105 0.643 1.306 0.612" stroke="hsl(120.0,100%,35%)" stroke-width="0.00148"></path>
<path d="M1.000 0.552 Q1.243 0.569 1.329 0.454" stroke="hsl(120.0,100%,35%)" stroke-width="0.00015"></path>
<path d="M1.000 0.552 Q0.782 0.719 1.060 0.862" stroke="hsl(120.0,100%,35%)" stroke-width="0.00044"></path>
<path d="M1.000 0.552 Q1.171 0.863 1.816 0.848" stroke="hsl(120.0,100%,35%)" stroke-width="0.00015"></path>
<path d="M1.000 0.552 Q1.511 0.341 1.211 0.045" stroke="hsl(120.0,100%,35%)" stroke-width="0.00015"></path>
<path d="M1.000 0.552 Q1.067 0.895 1.753 0.938" stroke="hsl(120.0,100%,35%)" stroke-width="0.00015"></path>
<path d="M1.000 0.552 Q1.266 0.473 1.169 0.326" stroke="hsl(120.0,100%,35%)" stroke-width="0.00015"></path>
<path d="M1.000 0.552 Q1.387 0.341 1.061 0.106" stroke="hsl(120.0,100%,35%)" stroke-width="0.00044"></path>
<path d="M1.000 0.552 Q0.967 0.589 1.032 0.613" stroke="hsl(120.0,100%,35%)" stroke-width="0.00015"></path>
<path d="M1.000 0.552 Q0.337 0.623 0.331 0.963" stroke="hsl(120.0,100%,35%)" stroke-width="0.00030"></path>
<path d="M0.812 0.232 Q0.916 0.350 1.169 0.326" stroke="hsl(0.0,100%,35%)" stroke-width="0.00741"></path>
<path d="M0.812 0.232 Q0.646 0.592 1.312 0.752" stroke="hsl(0.0,100%,35%)" stroke-width="0.00385"></path>
<path d="M0.812 0.232 Q0.755 0.520 1.306 0.612" stroke="hsl(0.0,100%,35%)" stroke-width="0.00163"></path>
<path d="M0.812 0.232 Q0.717 0.773 1.753 0.938" stroke="hsl(0.0,100%,35%)" stroke-width="0.00015"></path>
<path d="M0.812 0.232 Q0.940 0.530 1.550 0.533" stroke="hsl(0.0,100%,35%)" stroke-width="0.00282"></path>
<path d="M0.812 0.232 Q0.962 0.155 0.846 0.065" stroke="hsl(0.0,100%,35%)" stroke-width="0.00044"></path>
<path d="M0.812 0.232 Q0.508 0.562 1.086 0.783" stroke="hsl(0.0,100%,35%)" stroke-width="0.00104"></path>
<path d="M0.812 0.232 Q0.432 0.596 1.060 0.862" stroke="hsl(0.0,100%,35%)" stroke-width="0.00044"></path>
<path d="M0.812 0.232 Q1.087 0.302 1.284 0.183" stroke="hsl(0.0,100%,35%)" stroke-width="0.00030"></path>
<path d="M0.812 0.232 Q0.718 0.677 1.566 0.821" stroke="hsl(0.0,100%,35%)" stroke-width="0.00015"></path>
<path d="M0.812 0.232 Q-0.013 0.501 0.331 0.963" stroke="hsl(0.0,100%,35%)" stroke-width="0.00015"></path>
<path d="M0.812 0.232 Q1.254 0.383 1.646 0.201" stroke="hsl(0.0,100%,35%)" stroke-width="0.00030"></path>
<path d="M0.812 0.232 Q1.161 0.218 1.211 0.045" stroke="hsl(0.0,100%,35%)" stroke-width="0.00015"></path>
<path d="M0.812 0.232 Q0.557 0.633 1.285 0.846" stroke="hsl(0.0,100%,35%)" stroke-width="0.00030"></path>
<path d="M0.812 0.232 Q0.552 0.703 1.414 0.933" stroke="hsl(0.0,100%,35%)" stroke-width="0.00015"></path>
<path d="M0.812 0.232 Q1.228 0.342 1.535 0.164" stroke="hsl(0.0,100%,35%)" stroke-width="0.00030"></path>
<path d="M0.812 0.232 Q0.978 0.253 1.056 0.177" stroke="hsl(0.0,100%,35%)" stroke-width="0.00015"></path>
<path d="M0.812 0.232 Q0.500 0.463 0.883 0.666" stroke="hsl(0.0,100%,35%)" stroke-width="0.00030"></path>
<path d="M0.812 0.232 Q0.650 0.429 1.000 0.552" stroke="hsl(0.0,100%,35%)" stroke-width="0.00044"></path>
<path d="M0.812 0.232 Q0.893 0.446 1.329 0.454" stroke="hsl(0.0,100%,35%)" stroke-width="0.00015"></path>
<path d="M1.566 0.821 Q1.494 0.736 1.312 0.752" stroke="hsl(240.0,100%,35%)" stroke-width="0.00326"></path>
<path d="M1.566 0.821 Q1.689 0.785 1.647 0.718" stroke="hsl(240.0,100%,35%)" stroke-width="0.00786"></path>
<path d="M1.566 0.821 Q1.460 0.860 1.513 0.921" stroke="hsl(240.0,100%,35%)" stroke-width="0.00015"></path>
<path d="M1.566 0.821 Q1.761 0.752 1.670 0.642" stroke="hsl(240.0,100%,35%)" stroke-width="0.00059"></path>
<path d="M1.566 0.821 Q1.789 0.673 1.550 0.533" stroke="hsl(240.0,100%,35%)" stroke-width="0.00222"></path>
<path d="M1.566 0.821 Q1.348 0.607 0.883 0.666" stroke="hsl(240.0,100%,35%)" stroke-width="0.00104"></path>
<path d="M1.566 0.821 Q1.603 0.664 1.306 0.612" stroke="hsl(240.0,100%,35%)" stroke-width="0.00044"></path>
<path d="M1.566 0.821 Q1.280 0.740 1.060 0.862" stroke="hsl(240.0,100%,35%)" stroke-width="0.00119"></path>
<path d="M1.566 0.821 Q0.835 0.645 0.331 0.963" stroke="hsl(240.0,100%,35%)" stroke-width="0.00282"></path>
<path d="M1.566 0.821 Q1.566 0.917 1.753 0.938" stroke="hsl(240.0,100%,35%)" stroke-width="0.00089"></path>
<path d="M1.566 0.821 Q1.400 0.846 1.414 0.933" stroke="hsl(240.0,100%,35%)" stroke-width="0.00119"></path>
<path d="M1.566 0.821 Q1.731 0.836 1.797 0.759" stroke="hsl(240.0,100%,35%)" stroke-width="0.00015"></path>
<path d="M1.566 0.821 Q1.810 0.299 0.846 0.065" stroke="hsl(240.0,100%,35%)" stroke-width="0.00015"></path>
<path d="M1.566 0.821 Q1.669 0.884 1.816 0.848" stroke="hsl(240.0,100%,35%)" stroke-width="0.00178"></path>
<path d="M1.566 0.821 Q2.089 0.404 1.391 0.058" stroke="hsl(240.0,100%,35%)" stroke-width="0.00044"></path>
<path d="M1.566 0.821 Q1.498 0.573 1.000 0.552" stroke="hsl(240.0,100%,35%)" stroke-width="0.00222"></path>
<path d="M1.566 0.821 Q2.009 0.362 1.211 0.045" stroke="hsl(240.0,100%,35%)" stroke-width="0.00015"></path>
<path d="M1.566 0.821 Q1.406 0.777 1.285 0.846" stroke="hsl(240.0,100%,35%)" stroke-width="0.00015"></path>
<path d="M1.566 0.821 Q0.995 0.609 0.456 0.842" stroke="hsl(240.0,100%,35%)" stroke-width="0.00015"></path>
<path d="M1.566 0.821 Q1.380 0.850 1.397 0.947" stroke="hsl(240.0,100%,35%)" stroke-width="0.00015"></path>
<path d="M1.550 0.533 Q1.365 0.523 1.306 0.612" stroke="hsl(120.0,100%,35%)" stroke-width="0.03691"></path>
<path d="M1.550 0.533 Q1.572 0.158 0.846 0.065" stroke="hsl(120.0,100%,35%)" stroke-width="0.00074"></path>
<path d="M1.550 0.533 Q1.256 0.595 1.312 0.752" stroke="hsl(120.0,100%,35%)" stroke-width="0.01052"></path>
<path d="M1.550 0.533 Q1.422 0.235 0.812 0.232" stroke="hsl(120.0,100%,35%)" stroke-width="0.00074"></path>
<path d="M1.550 0.533 Q0.597 0.504 0.331 0.963" stroke="hsl(120.0,100%,35%)" stroke-width="0.00267"></path>
<path d="M1.550 0.533 Q1.167 0.636 1.285 0.846" stroke="hsl(120.0,100%,35%)" stroke-width="0.00059"></path>
<path d="M1.550 0.533 Q1.697 0.304 1.284 0.183" stroke="hsl(120.0,100%,35%)" stroke-width="0.00133"></path>
<path d="M1.550 0.533 Q1.042 0.599 1.060 0.862" stroke="hsl(120.0,100%,35%)" stroke-width="0.00445"></path>
<path d="M1.550 0.533 Q1.328 0.680 1.566 0.821" stroke="hsl(120.0,100%,35%)" stroke-width="0.00311"></path>
<path d="M1.550 0.533 Q1.110 0.466 0.883 0.666" stroke="hsl(120.0,100%,35%)" stroke-width="0.00074"></path>
<path d="M1.550 0.533 Q1.450 0.645 1.647 0.718" stroke="hsl(120.0,100%,35%)" stroke-width="0.00089"></path>
<path d="M1.550 0.533 Q1.503 0.449 1.329 0.454" stroke="hsl(120.0,100%,35%)" stroke-width="0.00563"></path>
<path d="M1.550 0.533 Q1.647 0.221 1.061 0.106" stroke="hsl(120.0,100%,35%)" stroke-width="0.00059"></path>
<path d="M1.550 0.533 Q1.525 0.353 1.169 0.326" stroke="hsl(120.0,100%,35%)" stroke-width="0.00059"></path>
<path d="M1.550 0.533 Q1.327 0.776 1.753 0.938" stroke="hsl(120.0,100%,35%)" stroke-width="0.00015"></path>
<path d="M1.550 0.533 Q1.590 0.672 1.871 0.684" stroke="hsl(120.0,100%,35%)" stroke-width="0.00030"></path>
<path d="M1.550 0.533 Q1.260 0.432 1.000 0.552" stroke="hsl(120.0,100%,35%)" stroke-width="0.00875"></path>
<path d="M1.550 0.533 Q1.850 0.264 1.391 0.058" stroke="hsl(120.0,100%,35%)" stroke-width="0.00030"></path>
<path d="M1.550 0.533 Q1.771 0.221 1.211 0.045" stroke="hsl(120.0,100%,35%)" stroke-width="0.00015"></path>
<path d="M1.550 0.533 Q1.888 0.291 1.492 0.074" stroke="hsl(120.0,100%,35%)" stroke-width="0.00015"></path>
<path d="M0.331 0.963 Q0.990 1.054 1.312 0.752" stroke="hsl(120.0,100%,35%)" stroke-width="0.00030"></path>
<path d="M0.331 0.963 Q1.099 0.982 1.306 0.612" stroke="hsl(120.0,100%,35%)" stroke-width="0.00059"></path>
<path d="M0.331 0.963 Q1.431 0.763 1.284 0.183" stroke="hsl(120.0,100%,35%)" stroke-width="0.00282"></path>
<path d="M0.331 0.963 Q1.185 1.103 1.647 0.718" stroke="hsl(120.0,100%,35%)" stroke-width="0.00044"></path>
<path d="M0.331 0.963 Q1.062 1.234 1.753 0.938" stroke="hsl(120.0,100%,35%)" stroke-width="0.00119"></path>
<path d="M0.331 0.963 Q1.285 0.991 1.550 0.533" stroke="hsl(120.0,100%,35%)" stroke-width="0.00119"></path>
<path d="M0.331 0.963 Q1.062 1.139 1.566 0.821" stroke="hsl(120.0,100%,35%)" stroke-width="0.00222"></path>
<path d="M0.331 0.963 Q1.381 0.680 1.061 0.106" stroke="hsl(120.0,100%,35%)" stroke-width="0.00074"></path>
<path d="M0.331 0.963 Q1.306 0.617 0.846 0.065" stroke="hsl(120.0,100%,35%)" stroke-width="0.00104"></path>
<path d="M0.331 0.963 Q1.324 1.131 1.871 0.684" stroke="hsl(120.0,100%,35%)" stroke-width="0.00030"></path>
<path d="M0.331 0.963 Q0.424 0.827 0.180 0.753" stroke="hsl(120.0,100%,35%)" stroke-width="0.00148"></path>
<path d="M0.331 0.963 Q1.257 1.070 1.670 0.642" stroke="hsl(120.0,100%,35%)" stroke-width="0.00015"></path>
<path d="M0.331 0.963 Q0.490 0.927 0.456 0.842" stroke="hsl(120.0,100%,35%)" stroke-width="0.00593"></path>
<path d="M0.331 0.963 Q0.844 0.925 0.883 0.666" stroke="hsl(120.0,100%,35%)" stroke-width="0.00059"></path>
<path d="M0.331 0.963 Q1.572 0.804 1.535 0.164" stroke="hsl(120.0,100%,35%)" stroke-width="0.00089"></path>
<path d="M0.331 0.963 Q1.585 0.722 1.391 0.058" stroke="hsl(120.0,100%,35%)" stroke-width="0.00015"></path>
<path d="M0.331 0.963 Q1.156 0.693 0.812 0.232" stroke="hsl(120.0,100%,35%)" stroke-width="0.00030"></path>
<path d="M0.331 0.963 Q1.165 1.202 1.816 0.848" stroke="hsl(120.0,100%,35%)" stroke-width="0.00044"></path>
<path d="M0.331 0.963 Q1.598 0.844 1.646 0.201" stroke="hsl(120.0,100%,35%)" stroke-width="0.00015"></path>
<path d="M0.331 0.963 Q1.505 0.680 1.211 0.045" stroke="hsl(120.0,100%,35%)" stroke-width="0.00044"></path>
<path d="M0.331 0.963 Q0.896 1.164 1.414 0.933" stroke="hsl(120.0,100%,35%)" stroke-width="0.00089"></path>
<path d="M0.331 0.963 Q0.994 0.891 1.000 0.552" stroke="hsl(120.0,100%,35%)" stroke-width="0.00044"></path>
<path d="M0.331 0.963 Q0.330 0.898 0.204 0.884" stroke="hsl(120.0,100%,35%)" stroke-width="0.00015"></path>
<path d="M0.883 0.666 Q1.101 0.976 1.753 0.938" stroke="hsl(120.0,100%,35%)" stroke-width="0.00563"></path>
<path d="M0.883 0.666 Q0.941 0.836 1.285 0.846" stroke="hsl(120.0,100%,35%)" stroke-width="0.00875"></path>
<path d="M0.883 0.666 Q1.324 0.733 1.550 0.533" stroke="hsl(120.0,100%,35%)" stroke-width="0.00296"></path>
<path d="M0.883 0.666 Q1.102 0.880 1.566 0.821" stroke="hsl(120.0,100%,35%)" stroke-width="0.00237"></path>
<path d="M0.883 0.666 Q1.138 0.723 1.306 0.612" stroke="hsl(120.0,100%,35%)" stroke-width="0.00015"></path>
<path d="M0.883 0.666 Q1.346 0.358 0.846 0.065" stroke="hsl(120.0,100%,35%)" stroke-width="0.00074"></path>
<path d="M0.883 0.666 Q0.651 0.599 0.467 0.697" stroke="hsl(120.0,100%,35%)" stroke-width="0.00015"></path>
<path d="M0.883 0.666 Q0.371 0.704 0.331 0.963" stroke="hsl(120.0,100%,35%)" stroke-width="0.00015"></path>
<path d="M0.883 0.666 Q1.029 0.795 1.312 0.752" stroke="hsl(120.0,100%,35%)" stroke-width="0.00089"></path>
<path d="M0.883 0.666 Q0.892 0.765 1.086 0.783" stroke="hsl(120.0,100%,35%)" stroke-width="0.00030"></path>
<path d="M0.883 0.666 Q1.204 0.944 1.816 0.848" stroke="hsl(120.0,100%,35%)" stroke-width="0.00059"></path>
<path d="M0.883 0.666 Q0.815 0.799 1.060 0.862" stroke="hsl(120.0,100%,35%)" stroke-width="0.00222"></path>
<path d="M0.883 0.666 Q1.034 0.632 1.000 0.552" stroke="hsl(120.0,100%,35%)" stroke-width="0.00208"></path>
<path d="M0.883 0.666 Q1.195 0.435 0.812 0.232" stroke="hsl(120.0,100%,35%)" stroke-width="0.00015"></path>
<path d="M1.753 0.938 Q1.753 0.842 1.566 0.821" stroke="hsl(240.0,100%,35%)" stroke-width="0.00222"></path>
<path d="M1.753 0.938 Q1.535 0.628 0.883 0.666" stroke="hsl(240.0,100%,35%)" stroke-width="0.00534"></path>
<path d="M1.753 0.938 Q1.790 0.685 1.306 0.612" stroke="hsl(240.0,100%,35%)" stroke-width="0.00030"></path>
<path d="M1.753 0.938 Q1.593 0.798 1.285 0.846" stroke="hsl(240.0,100%,35%)" stroke-width="0.00044"></path>
<path d="M1.753 0.938 Q1.659 0.925 1.614 0.968" stroke="hsl(240.0,100%,35%)" stroke-width="0.00015"></path>
<path d="M1.753 0.938 Q1.876 0.807 1.647 0.718" stroke="hsl(240.0,100%,35%)" stroke-width="0.00104"></path>
<path d="M1.753 0.938 Q2.314 0.454 1.492 0.074" stroke="hsl(240.0,100%,35%)" stroke-width="0.00015"></path>
<path d="M1.753 0.938 Q1.567 0.893 1.439 0.974" stroke="hsl(240.0,100%,35%)" stroke-width="0.00074"></path>
<path d="M1.753 0.938 Q1.951 0.515 1.169 0.326" stroke="hsl(240.0,100%,35%)" stroke-width="0.00030"></path>
<path d="M1.753 0.938 Q1.976 0.695 1.550 0.533" stroke="hsl(240.0,100%,35%)" stroke-width="0.00074"></path>
<path d="M1.753 0.938 Q1.022 0.666 0.331 0.963" stroke="hsl(240.0,100%,35%)" stroke-width="0.00074"></path>
<path d="M1.753 0.938 Q1.685 0.594 1.000 0.552" stroke="hsl(240.0,100%,35%)" stroke-width="0.00208"></path>
<path d="M1.753 0.938 Q2.196 0.383 1.211 0.045" stroke="hsl(240.0,100%,35%)" stroke-width="0.00044"></path>
<path d="M1.753 0.938 Q1.856 0.906 1.816 0.848" stroke="hsl(240.0,100%,35%)" stroke-width="0.00089"></path>
<path d="M1.753 0.938 Q1.847 0.397 0.812 0.232" stroke="hsl(240.0,100%,35%)" stroke-width="0.00015"></path>
<path d="M1.753 0.938 Q2.263 0.507 1.535 0.164" stroke="hsl(240.0,100%,35%)" stroke-width="0.00015"></path>
<path d="M1.169 0.326 Q1.216 0.131 0.846 0.065" stroke="hsl(0.0,100%,35%)" stroke-width="0.00178"></path>
<path d="M1.169 0.326 Q1.066 0.207 0.812 0.232" stroke="hsl(0.0,100%,35%)" stroke-width="0.00682"></path>
<path d="M1.169 0.326 Q0.900 0.568 1.312 0.752" stroke="hsl(0.0,100%,35%)" stroke-width="0.00904"></path>
<path d="M1.169 0.326 Q0.811 0.609 1.285 0.846" stroke="hsl(0.0,100%,35%)" stroke-width="0.00267"></path>
<path d="M1.169 0.326 Q0.972 0.653 1.566 0.821" stroke="hsl(0.0,100%,35%)" stroke-width="0.00015"></path>
<path d="M1.169 0.326 Q0.686 0.572 1.060 0.862" stroke="hsl(0.0,100%,35%)" stroke-width="0.00030"></path>
<path d="M1.169 0.326 Q1.415 0.194 1.211 0.045" stroke="hsl(0.0,100%,35%)" stroke-width="0.00015"></path>
<path d="M1.169 0.326 Q1.194 0.505 1.550 0.533" stroke="hsl(0.0,100%,35%)" stroke-width="0.00163"></path>
<path d="M1.169 0.326 Q0.241 0.476 0.331 0.963" stroke="hsl(0.0,100%,35%)" stroke-width="0.00015"></path>
<path d="M1.169 0.326 Q0.762 0.537 1.086 0.783" stroke="hsl(0.0,100%,35%)" stroke-width="0.00030"></path>
<path d="M1.169 0.326 Q1.009 0.496 1.306 0.612" stroke="hsl(0.0,100%,35%)" stroke-width="0.00044"></path>
<path d="M1.169 0.326 Q0.904 0.405 1.000 0.552" stroke="hsl(0.0,100%,35%)" stroke-width="0.00015"></path>
<path d="M1.169 0.326 Q1.495 0.236 1.391 0.058" stroke="hsl(0.0,100%,35%)" stroke-width="0.00015"></path>
<path d="M1.169 0.326 Q1.382 0.414 1.600 0.330" stroke="hsl(0.0,100%,35%)" stroke-width="0.00015"></path>
<path d="M1.169 0.326 Q1.341 0.373 1.472 0.300" stroke="hsl(0.0,100%,35%)" stroke-width="0.00015"></path>
<path d="M1.169 0.326 Q1.147 0.422 1.329 0.454" stroke="hsl(0.0,100%,35%)" stroke-width="0.00015"></path>
<path d="M1.060 0.862 Q1.185 0.899 1.285 0.846" stroke="hsl(0.0,100%,35%)" stroke-width="0.00608"></path>
<path d="M1.060 0.862 Q1.468 0.907 1.647 0.718" stroke="hsl(0.0,100%,35%)" stroke-width="0.00178"></path>
<path d="M1.060 0.862 Q1.568 0.795 1.550 0.533" stroke="hsl(0.0,100%,35%)" stroke-width="0.00119"></path>
<path d="M1.060 0.862 Q1.273 0.858 1.312 0.752" stroke="hsl(0.0,100%,35%)" stroke-width="0.00593"></path>
<path d="M1.060 0.862 Q1.346 0.943 1.566 0.821" stroke="hsl(0.0,100%,35%)" stroke-width="0.00534"></path>
<path d="M1.060 0.862 Q1.868 0.526 1.391 0.058" stroke="hsl(0.0,100%,35%)" stroke-width="0.00089"></path>
<path d="M1.060 0.862 Q1.440 0.497 0.812 0.232" stroke="hsl(0.0,100%,35%)" stroke-width="0.00074"></path>
<path d="M1.060 0.862 Q1.590 0.421 0.846 0.065" stroke="hsl(0.0,100%,35%)" stroke-width="0.00178"></path>
<path d="M1.060 0.862 Q1.383 0.786 1.306 0.612" stroke="hsl(0.0,100%,35%)" stroke-width="0.00030"></path>
<path d="M1.060 0.862 Q1.543 0.616 1.169 0.326" stroke="hsl(0.0,100%,35%)" stroke-width="0.00044"></path>
<path d="M1.060 0.862 Q1.128 0.729 0.883 0.666" stroke="hsl(0.0,100%,35%)" stroke-width="0.00074"></path>
<path d="M1.060 0.862 Q0.893 0.817 0.768 0.888" stroke="hsl(0.0,100%,35%)" stroke-width="0.00015"></path>
<path d="M1.060 0.862 Q1.541 0.874 1.670 0.642" stroke="hsl(0.0,100%,35%)" stroke-width="0.00015"></path>
<path d="M1.060 0.862 Q1.278 0.695 1.000 0.552" stroke="hsl(0.0,100%,35%)" stroke-width="0.00119"></path>
<path d="M1.060 0.862 Q0.615 0.766 0.331 0.963" stroke="hsl(0.0,100%,35%)" stroke-width="0.00015"></path>
<path d="M1.060 0.862 Q1.789 0.484 1.211 0.045" stroke="hsl(0.0,100%,35%)" stroke-width="0.00015"></path>
<path d="M1.211 0.045 Q1.138 0.129 1.284 0.183" stroke="hsl(120.0,100%,35%)" stroke-width="0.00015"></path>
<path d="M1.211 0.045 Q1.291 0.088 1.391 0.058" stroke="hsl(120.0,100%,35%)" stroke-width="0.00296"></path>
<path d="M1.211 0.045 Q1.279 0.169 1.535 0.164" stroke="hsl(120.0,100%,35%)" stroke-width="0.00015"></path>
<path d="M1.211 0.045 Q1.188 0.013 1.120 0.017" stroke="hsl(120.0,100%,35%)" stroke-width="0.00044"></path>
<path d="M1.211 0.045 Q0.038 0.328 0.331 0.963" stroke="hsl(120.0,100%,35%)" stroke-width="0.00030"></path>
<path d="M1.211 0.045 Q1.088 0.045 1.061 0.106" stroke="hsl(120.0,100%,35%)" stroke-width="0.00015"></path>
<path d="M1.211 0.045 Q0.991 0.357 1.550 0.533" stroke="hsl(120.0,100%,35%)" stroke-width="0.00015"></path>
<path d="M1.211 0.045 Q0.769 0.504 1.566 0.821" stroke="hsl(120.0,100%,35%)" stroke-width="0.00015"></path>
<path d="M1.329 0.454 Q1.191 0.528 1.306 0.612" stroke="hsl(120.0,100%,35%)" stroke-width="0.02520"></path>
<path d="M1.329 0.454 Q1.377 0.537 1.550 0.533" stroke="hsl(120.0,100%,35%)" stroke-width="0.00964"></path>
<path d="M1.329 0.454 Q1.082 0.600 1.312 0.752" stroke="hsl(120.0,100%,35%)" stroke-width="0.00030"></path>
<path d="M1.329 0.454 Q1.086 0.437 1.000 0.552" stroke="hsl(120.0,100%,35%)" stroke-width="0.00015"></path>
<path d="M1.061 0.106 Q1.111 0.189 1.284 0.183" stroke="hsl(120.0,100%,35%)" stroke-width="0.00163"></path>
<path d="M1.061 0.106 Q0.669 0.479 1.312 0.752" stroke="hsl(120.0,100%,35%)" stroke-width="0.00030"></path>
<path d="M1.061 0.106 Q0.741 0.660 1.753 0.938" stroke="hsl(120.0,100%,35%)" stroke-width="0.00015"></path>
<path d="M1.061 0.106 Q0.674 0.317 1.000 0.552" stroke="hsl(120.0,100%,35%)" stroke-width="0.00030"></path>
<path d="M1.061 0.106 Q0.532 0.449 1.086 0.783" stroke="hsl(120.0,100%,35%)" stroke-width="0.00015"></path>
<path d="M1.061 0.106 Q1.251 0.230 1.535 0.164" stroke="hsl(120.0,100%,35%)" stroke-width="0.00030"></path>
<path d="M1.061 0.106 Q0.986 0.043 0.846 0.065" stroke="hsl(120.0,100%,35%)" stroke-width="0.00015"></path>
<path d="M1.061 0.106 Q1.302 0.176 1.492 0.074" stroke="hsl(120.0,100%,35%)" stroke-width="0.00044"></path>
<path d="M1.061 0.106 Q0.778 0.408 1.306 0.612" stroke="hsl(120.0,100%,35%)" stroke-width="0.00015"></path>
<path d="M1.061 0.106 Q0.011 0.388 0.331 0.963" stroke="hsl(120.0,100%,35%)" stroke-width="0.00015"></path>
<path d="M1.061 0.106 Q0.864 0.529 1.647 0.718" stroke="hsl(120.0,100%,35%)" stroke-width="0.00030"></path>
<path d="M1.646 0.201 Q0.379 0.319 0.331 0.963" stroke="hsl(120.0,100%,35%)" stroke-width="0.00074"></path>
<path d="M1.646 0.201 Q1.479 0.119 1.284 0.183" stroke="hsl(120.0,100%,35%)" stroke-width="0.00148"></path>
<path d="M1.646 0.201 Q0.471 0.184 0.180 0.753" stroke="hsl(120.0,100%,35%)" stroke-width="0.00015"></path>
<path d="M1.646 0.201 Q1.042 0.247 1.000 0.552" stroke="hsl(120.0,100%,35%)" stroke-width="0.00015"></path>
<path d="M1.646 0.201 Q0.949 0.451 1.285 0.846" stroke="hsl(120.0,100%,35%)" stroke-width="0.00015"></path>
<path d="M1.646 0.201 Q1.429 0.036 1.061 0.106" stroke="hsl(120.0,100%,35%)" stroke-width="0.00015"></path>
<path d="M1.646 0.201 Q1.305 0.426 1.670 0.642" stroke="hsl(120.0,100%,35%)" stroke-width="0.00015"></path>
<path d="M1.646 0.201 Q1.307 0.168 1.169 0.326" stroke="hsl(120.0,100%,35%)" stroke-width="0.00015"></path>
<path d="M1.306 0.612 Q1.444 0.537 1.329 0.454" stroke="hsl(120.0,100%,35%)" stroke-width="0.04343"></path>
<path d="M1.306 0.612 Q1.491 0.621 1.550 0.533" stroke="hsl(120.0,100%,35%)" stroke-width="0.11147"></path>
<path d="M1.306 0.612 Q1.051 0.555 0.883 0.666" stroke="hsl(120.0,100%,35%)" stroke-width="0.00059"></path>
<path d="M1.306 0.612 Q0.538 0.592 0.331 0.963" stroke="hsl(120.0,100%,35%)" stroke-width="0.00044"></path>
<path d="M1.306 0.612 Q1.196 0.683 1.312 0.752" stroke="hsl(120.0,100%,35%)" stroke-width="0.00489"></path>
<path d="M1.306 0.612 Q1.363 0.323 0.812 0.232" stroke="hsl(120.0,100%,35%)" stroke-width="0.00104"></path>
<path d="M1.306 0.612 Q1.268 0.864 1.753 0.938" stroke="hsl(120.0,100%,35%)" stroke-width="0.00089"></path>
<path d="M1.306 0.612 Q1.466 0.441 1.169 0.326" stroke="hsl(120.0,100%,35%)" stroke-width="0.00163"></path>
<path d="M1.306 0.612 Q1.269 0.768 1.566 0.821" stroke="hsl(120.0,100%,35%)" stroke-width="0.00193"></path>
<path d="M1.306 0.612 Q1.108 0.724 1.285 0.846" stroke="hsl(120.0,100%,35%)" stroke-width="0.00133"></path>
<path d="M1.306 0.612 Q1.391 0.733 1.647 0.718" stroke="hsl(120.0,100%,35%)" stroke-width="0.00015"></path>
<path d="M1.306 0.612 Q1.464 0.700 1.670 0.642" stroke="hsl(120.0,100%,35%)" stroke-width="0.00015"></path>
<path d="M1.306 0.612 Q1.712 0.310 1.211 0.045" stroke="hsl(120.0,100%,35%)" stroke-width="0.00030"></path>
<path d="M1.306 0.612 Q1.531 0.761 1.871 0.684" stroke="hsl(120.0,100%,35%)" stroke-width="0.00015"></path>
<path d="M1.306 0.612 Q1.791 0.352 1.391 0.058" stroke="hsl(120.0,100%,35%)" stroke-width="0.00044"></path>
<path d="M1.306 0.612 Q0.983 0.687 1.060 0.862" stroke="hsl(120.0,100%,35%)" stroke-width="0.00148"></path>
<path d="M1.306 0.612 Q1.779 0.433 1.535 0.164" stroke="hsl(120.0,100%,35%)" stroke-width="0.00030"></path>
<path d="M1.306 0.612 Q1.372 0.832 1.816 0.848" stroke="hsl(120.0,100%,35%)" stroke-width="0.00030"></path>
<path d="M1.306 0.612 Q1.588 0.310 1.061 0.106" stroke="hsl(120.0,100%,35%)" stroke-width="0.00015"></path>
<path d="M1.306 0.612 Q1.201 0.521 1.000 0.552" stroke="hsl(120.0,100%,35%)" stroke-width="0.00222"></path>
<path d="M1.306 0.612 Q1.513 0.246 0.846 0.065" stroke="hsl(120.0,100%,35%)" stroke-width="0.00059"></path>
<path d="M1.306 0.612 Q1.059 0.653 1.086 0.783" stroke="hsl(120.0,100%,35%)" stroke-width="0.00044"></path>
<path d="M1.647 0.718 Q1.786 0.746 1.871 0.684" stroke="hsl(240.0,100%,35%)" stroke-width="0.00430"></path>
<path d="M1.647 0.718 Q1.524 0.849 1.753 0.938" stroke="hsl(240.0,100%,35%)" stroke-width="0.00178"></path>
<path d="M1.647 0.718 Q1.561 0.597 1.306 0.612" stroke="hsl(240.0,100%,35%)" stroke-width="0.00015"></path>
<path d="M1.647 0.718 Q0.793 0.577 0.331 0.963" stroke="hsl(240.0,100%,35%)" stroke-width="0.00044"></path>
<path d="M1.647 0.718 Q1.524 0.753 1.566 0.821" stroke="hsl(240.0,100%,35%)" stroke-width="0.00237"></path>
<path d="M1.647 0.718 Q2.047 0.337 1.391 0.058" stroke="hsl(240.0,100%,35%)" stroke-width="0.00089"></path>
<path d="M1.647 0.718 Q1.719 0.685 1.670 0.642" stroke="hsl(240.0,100%,35%)" stroke-width="0.00623"></path>
<path d="M1.647 0.718 Q1.747 0.606 1.550 0.533" stroke="hsl(240.0,100%,35%)" stroke-width="0.00119"></path>
<path d="M1.647 0.718 Q1.456 0.506 1.000 0.552" stroke="hsl(240.0,100%,35%)" stroke-width="0.00089"></path>
<path d="M1.647 0.718 Q1.843 0.295 1.061 0.106" stroke="hsl(240.0,100%,35%)" stroke-width="0.00015"></path>
<path d="M1.647 0.718 Q1.315 0.638 1.086 0.783" stroke="hsl(240.0,100%,35%)" stroke-width="0.00015"></path>
<path d="M1.647 0.718 Q1.306 0.540 0.883 0.666" stroke="hsl(240.0,100%,35%)" stroke-width="0.00015"></path>
<path d="M1.871 0.684 Q1.731 0.656 1.647 0.718" stroke="hsl(240.0,100%,35%)" stroke-width="0.00652"></path>
<path d="M1.871 0.684 Q1.609 0.691 1.566 0.821" stroke="hsl(240.0,100%,35%)" stroke-width="0.00015"></path>
<path d="M1.871 0.684 Q1.121 0.987 1.548 1.419" stroke="hsl(240.0,100%,35%)" stroke-width="0.00044"></path>
<path d="M1.871 0.684 Q0.878 0.515 0.331 0.963" stroke="hsl(240.0,100%,35%)" stroke-width="0.00015"></path>
<path d="M1.871 0.684 Q1.806 0.758 1.937 0.806" stroke="hsl(240.0,100%,35%)" stroke-width="0.00030"></path>
<path d="M1.871 0.684 Q2.132 0.275 1.391 0.058" stroke="hsl(240.0,100%,35%)" stroke-width="0.00044"></path>
<path d="M1.871 0.684 Q1.784 0.460 1.329 0.454" stroke="hsl(240.0,100%,35%)" stroke-width="0.00015"></path>
<path d="M1.871 0.684 Q2.169 0.303 1.492 0.074" stroke="hsl(240.0,100%,35%)" stroke-width="0.00015"></path>
<path d="M1.391 0.058 Q0.797 0.389 1.312 0.752" stroke="hsl(120.0,100%,35%)" stroke-width="0.00015"></path>
<path d="M1.391 0.058 Q1.066 0.148 1.169 0.326" stroke="hsl(120.0,100%,35%)" stroke-width="0.00030"></path>
<path d="M1.391 0.058 Q1.091 0.327 1.550 0.533" stroke="hsl(120.0,100%,35%)" stroke-width="0.00015"></path>
<path d="M1.391 0.058 Q0.801 0.227 1.000 0.552" stroke="hsl(120.0,100%,35%)" stroke-width="0.00015"></path>
<path d="M0.456 0.842 Q0.956 0.968 1.312 0.752" stroke="hsl(120.0,100%,35%)" stroke-width="0.00044"></path>
<path d="M0.456 0.842 Q1.471 0.595 1.211 0.045" stroke="hsl(120.0,100%,35%)" stroke-width="0.00044"></path>
<path d="M0.456 0.842 Q0.297 0.877 0.331 0.963" stroke="hsl(120.0,100%,35%)" stroke-width="0.00311"></path>
<path d="M0.456 0.842 Q0.960 0.806 1.000 0.552" stroke="hsl(120.0,100%,35%)" stroke-width="0.00044"></path>
<path d="M0.456 0.842 Q1.272 0.531 0.846 0.065" stroke="hsl(120.0,100%,35%)" stroke-width="0.00030"></path>
<path d="M0.456 0.842 Q1.347 0.595 1.061 0.106" stroke="hsl(120.0,100%,35%)" stroke-width="0.00015"></path>
<path d="M0.456 0.842 Q0.484 0.921 0.646 0.925" stroke="hsl(120.0,100%,35%)" stroke-width="0.00015"></path>
<path d="M0.456 0.842 Q1.551 0.637 1.391 0.058" stroke="hsl(120.0,100%,35%)" stroke-width="0.00030"></path>
<path d="M0.456 0.842 Q0.389 0.742 0.180 0.753" stroke="hsl(120.0,100%,35%)" stroke-width="0.00044"></path>
<path d="M0.456 0.842 Q1.150 1.018 1.647 0.718" stroke="hsl(120.0,100%,35%)" stroke-width="0.00015"></path>
<path d="M1.816 0.848 Q1.712 0.880 1.753 0.938" stroke="hsl(240.0,100%,35%)" stroke-width="0.00741"></path>
<path d="M1.816 0.848 Q1.750 0.628 1.306 0.612" stroke="hsl(240.0,100%,35%)" stroke-width="0.00015"></path>
<path d="M1.816 0.848 Q0.982 0.608 0.331 0.963" stroke="hsl(240.0,100%,35%)" stroke-width="0.00030"></path>
<path d="M1.816 0.848 Q1.713 0.784 1.566 0.821" stroke="hsl(240.0,100%,35%)" stroke-width="0.00074"></path>
<path d="M1.816 0.848 Q1.495 0.571 0.883 0.666" stroke="hsl(240.0,100%,35%)" stroke-width="0.00015"></path>
<path d="M1.816 0.848 Q1.931 0.834 1.929 0.774" stroke="hsl(240.0,100%,35%)" stroke-width="0.00015"></path>
<path d="M1.670 0.642 Q1.476 0.711 1.566 0.821" stroke="hsl(240.0,100%,35%)" stroke-width="0.00059"></path>
<path d="M1.670 0.642 Q1.598 0.675 1.647 0.718" stroke="hsl(240.0,100%,35%)" stroke-width="0.00875"></path>
<path d="M1.670 0.642 Q1.720 0.189 0.846 0.065" stroke="hsl(240.0,100%,35%)" stroke-width="0.00104"></path>
<path d="M1.670 0.642 Q0.745 0.535 0.331 0.963" stroke="hsl(240.0,100%,35%)" stroke-width="0.00044"></path>
<path d="M1.670 0.642 Q1.408 0.463 1.000 0.552" stroke="hsl(240.0,100%,35%)" stroke-width="0.00015"></path>
<path d="M1.670 0.642 Q1.985 0.376 1.535 0.164" stroke="hsl(240.0,100%,35%)" stroke-width="0.00015"></path>
<path d="M1.467 0.079 Q1.220 0.091 1.190 0.215" stroke="hsl(0.0,100%,35%)" stroke-width="0.00044"></path>
<path d="M1.467 0.079 Q1.146 0.322 1.550 0.533" stroke="hsl(0.0,100%,35%)" stroke-width="0.00030"></path>
<path d="M1.467 0.079 Q1.293 0.094 1.284 0.183" stroke="hsl(0.0,100%,35%)" stroke-width="0.00044"></path>
<path d="M1.467 0.079 Q0.851 0.385 1.312 0.752" stroke="hsl(0.0,100%,35%)" stroke-width="0.00030"></path>
<path d="M1.190 0.215 Q1.091 0.266 1.169 0.326" stroke="hsl(0.0,100%,35%)" stroke-width="0.00119"></path>
<path d="M1.190 0.215 Q1.437 0.202 1.467 0.079" stroke="hsl(0.0,100%,35%)" stroke-width="0.00044"></path>
<path d="M1.190 0.215 Q0.825 0.345 1.000 0.552" stroke="hsl(0.0,100%,35%)" stroke-width="0.00015"></path>
<path d="M1.190 0.215 Q1.263 0.314 1.472 0.300" stroke="hsl(0.0,100%,35%)" stroke-width="0.00015"></path>
<path d="M0.715 0.838 Q1.087 0.752 1.000 0.552" stroke="hsl(240.0,100%,35%)" stroke-width="0.00015"></path>
<path d="M0.715 0.838 Q1.154 1.095 1.753 0.938" stroke="hsl(240.0,100%,35%)" stroke-width="0.00030"></path>
<path d="M0.715 0.838 Q0.734 0.798 0.661 0.780" stroke="hsl(240.0,100%,35%)" stroke-width="0.00015"></path>
<path d="M1.584 0.951 Q0.948 0.706 0.331 0.963" stroke="hsl(120.0,100%,35%)" stroke-width="0.00015"></path>
<path d="M1.584 0.951 Q1.679 0.978 1.753 0.938" stroke="hsl(120.0,100%,35%)" stroke-width="0.00015"></path>
<path d="M1.584 0.951 Q1.679 0.882 1.566 0.821" stroke="hsl(120.0,100%,35%)" stroke-width="0.00015"></path>
<path d="M0.821 0.274 Q1.279 0.280 1.391 0.058" stroke="hsl(120.0,100%,35%)" stroke-width="0.00044"></path>
<path d="M0.821 0.274 Q1.199 0.238 1.211 0.045" stroke="hsl(120.0,100%,35%)" stroke-width="0.00044"></path>
<path d="M0.821 0.274 Q0.678 0.311 0.718 0.389" stroke="hsl(120.0,100%,35%)" stroke-width="0.00015"></path>
</g>
<text x="1.086" y="0.766" font-size="0.033516" fill="hsl(0.0,100%,20%)">adlai</text>
<text x="1.312" y="0.724" font-size="0.056693" fill="hsl(0.0,100%,20%)">bsalomon</text>
<text x="1.285" y="0.820" font-size="0.050344" fill="hsl(0.0,100%,20%)">robertphillips</text>
<text x="0.846" y="0.043" font-size="0.045153" fill="hsl(0.0,100%,20%)">csmartdalton</text>
<text x="1.535" y="0.155" font-size="0.017545" fill="hsl(120.0,100%,20%)">rmistry</text>
<text x="1.284" y="0.171" font-size="0.023402" fill="hsl(120.0,100%,20%)">borenet</text>
<text x="1.000" y="0.532" font-size="0.039180" fill="hsl(120.0,100%,20%)">mtklein</text>
<text x="0.812" y="0.215" font-size="0.033337" fill="hsl(0.0,100%,20%)">jvanverth</text>
<text x="1.566" y="0.801" font-size="0.038615" fill="hsl(240.0,100%,20%)">reed</text>
<text x="1.550" y="0.493" font-size="0.079349" fill="hsl(120.0,100%,20%)">brianosman</text>
<text x="0.331" y="0.946" font-size="0.033036" fill="hsl(120.0,100%,20%)">kjlubick</text>
<text x="0.883" y="0.649" font-size="0.035373" fill="hsl(120.0,100%,20%)">herb</text>
<text x="1.753" y="0.922" font-size="0.030975" fill="hsl(240.0,100%,20%)">bungeman</text>
<text x="1.169" y="0.306" font-size="0.040287" fill="hsl(0.0,100%,20%)">egdaniel</text>
<text x="1.418" y="0.096" font-size="0.001999" fill="hsl(120.0,100%,20%)">erikrose</text>
<text x="1.060" y="0.841" font-size="0.041844" fill="hsl(0.0,100%,20%)">michaelludwig</text>
<text x="1.211" y="0.038" font-size="0.014828" fill="hsl(120.0,100%,20%)">scroggo</text>
<text x="1.329" y="0.430" font-size="0.048069" fill="hsl(120.0,100%,20%)">ethannicholas</text>
<text x="1.061" y="0.098" font-size="0.014962" fill="hsl(120.0,100%,20%)">jcgregorio</text>
<text x="1.646" y="0.195" font-size="0.012162" fill="hsl(120.0,100%,20%)">westont</text>
<text x="1.306" y="0.571" font-size="0.081486" fill="hsl(120.0,100%,20%)">johnstiles</text>
<text x="1.647" y="0.700" font-size="0.035766" fill="hsl(240.0,100%,20%)">fmalita</text>
<text x="1.871" y="0.674" font-size="0.018968" fill="hsl(240.0,100%,20%)">jmbetancourt</text>
<text x="1.391" y="0.050" font-size="0.015358" fill="hsl(120.0,100%,20%)">djsollen</text>
<text x="1.492" y="0.070" font-size="0.006323" fill="hsl(120.0,100%,20%)">hcm</text>
<text x="1.548" y="1.417" font-size="0.004898" fill="hsl(240.0,100%,20%)">stani</text>
<text x="0.456" y="0.833" font-size="0.018215" fill="hsl(120.0,100%,20%)">nifong</text>
<text x="1.614" y="0.967" font-size="0.001999" fill="hsl(240.0,100%,20%)">grieger</text>
<text x="1.439" y="0.971" font-size="0.004471" fill="hsl(240.0,100%,20%)">drott</text>
<text x="1.816" y="0.838" font-size="0.018862" fill="hsl(240.0,100%,20%)">jlavrova</text>
<text x="0.540" y="0.146" font-size="0.002828" fill="hsl(0.0,100%,20%)">junov</text>
<text x="1.670" y="0.630" font-size="0.023488" fill="hsl(240.0,100%,20%)">tdenniston</text>
<text x="1.467" y="0.075" font-size="0.007209" fill="hsl(0.0,100%,20%)">cwallez</text>
<text x="1.190" y="0.211" font-size="0.007998" fill="hsl(0.0,100%,20%)">senorblanco</text>
<text x="1.600" y="0.329" font-size="0.001999" fill="hsl(0.0,100%,20%)">sugoi</text>
<text x="1.472" y="0.298" font-size="0.002828" fill="hsl(0.0,100%,20%)">enga</text>
<text x="0.467" y="0.696" font-size="0.001999" fill="hsl(120.0,100%,20%)">jiulongw</text>
<text x="0.715" y="0.836" font-size="0.003999" fill="hsl(240.0,100%,20%)">james</text>
<text x="0.661" y="0.779" font-size="0.001999" fill="hsl(240.0,100%,20%)">cbracken</text>
<text x="1.929" y="0.773" font-size="0.001999" fill="hsl(240.0,100%,20%)">jsimmons</text>
<text x="1.937" y="0.805" font-size="0.002828" fill="hsl(240.0,100%,20%)">fuego</text>
<text x="1.414" y="0.929" font-size="0.007744" fill="hsl(120.0,100%,20%)">yjbanov</text>
<text x="1.056" y="0.176" font-size="0.001999" fill="hsl(0.0,100%,20%)">chinmaygarde</text>
<text x="0.180" y="0.749" font-size="0.007481" fill="hsl(120.0,100%,20%)">lovisolo</text>
<text x="0.204" y="0.883" font-size="0.001999" fill="hsl(120.0,100%,20%)">het</text>
<text x="0.768" y="0.887" font-size="0.001999" fill="hsl(0.0,100%,20%)">fs</text>
<text x="1.032" y="0.612" font-size="0.001999" fill="hsl(120.0,100%,20%)">pefoley</text>
<text x="0.646" y="0.924" font-size="0.001999" fill="hsl(120.0,100%,20%)">alecmouri</text>
<text x="1.584" y="0.949" font-size="0.003463" fill="hsl(120.0,100%,20%)">pkasting</text>
<text x="1.513" y="0.920" font-size="0.001999" fill="hsl(240.0,100%,20%)">whesse</text>
<text x="1.797" y="0.758" font-size="0.001999" fill="hsl(240.0,100%,20%)">mdebbar</text>
<text x="1.397" y="0.946" font-size="0.001999" fill="hsl(120.0,100%,20%)">thiabaud</text>
<text x="1.120" y="0.015" font-size="0.003463" fill="hsl(120.0,100%,20%)">nigeltao</text>
<text x="0.821" y="0.271" font-size="0.005290" fill="hsl(120.0,100%,20%)">vigneshv</text>
<text x="0.718" y="0.388" font-size="0.001999" fill="hsl(120.0,100%,20%)">chz</text>
</svg>
