<svg width="4000" height="2000" viewBox="-0.025 -0.025 2.05 1.05" xmlns="http://www.w3.org/2000/svg">
  <style>
    path {
      fill: none;
      stroke-linecap: round;
      stroke-opacity: 0.4;
    }

    text {
      text-anchor: middle;
      alignment-baseline: hanging;
    }
  </style>
  <g opacity="0.4">
<path d="M1.650 0.438 Q0.825 0.255 0.287 0.618" stroke="hsl(0.0,100%,35%)" stroke-width="0.00774"></path>
<path d="M1.650 0.438 Q1.739 0.390 1.663 0.335" stroke="hsl(0.0,100%,35%)" stroke-width="0.01912"></path>
<path d="M1.650 0.438 Q0.987 0.216 0.407 0.490" stroke="hsl(0.0,100%,35%)" stroke-width="0.00044"></path>
<path d="M1.650 0.438 Q1.483 0.378 1.329 0.446" stroke="hsl(0.0,100%,35%)" stroke-width="0.00058"></path>
<path d="M1.650 0.438 Q1.333 0.355 1.101 0.491" stroke="hsl(0.0,100%,35%)" stroke-width="0.00058"></path>
<path d="M1.650 0.438 Q1.756 0.294 1.498 0.211" stroke="hsl(0.0,100%,35%)" stroke-width="0.00058"></path>
<path d="M1.650 0.438 Q1.135 0.256 0.666 0.467" stroke="hsl(0.0,100%,35%)" stroke-width="0.00088"></path>
<path d="M1.650 0.438 Q1.245 0.543 1.361 0.763" stroke="hsl(0.0,100%,35%)" stroke-width="0.00044"></path>
<path d="M1.650 0.438 Q0.913 0.370 0.619 0.715" stroke="hsl(0.0,100%,35%)" stroke-width="0.00015"></path>
<path d="M1.650 0.438 Q1.404 0.431 1.336 0.549" stroke="hsl(0.0,100%,35%)" stroke-width="0.00058"></path>
<path d="M1.650 0.438 Q1.579 0.304 1.302 0.309" stroke="hsl(0.0,100%,35%)" stroke-width="0.00029"></path>
<path d="M1.650 0.438 Q1.707 0.150 1.158 0.059" stroke="hsl(0.0,100%,35%)" stroke-width="0.00029"></path>
<path d="M1.650 0.438 Q0.843 0.181 0.164 0.518" stroke="hsl(0.0,100%,35%)" stroke-width="0.00044"></path>
<path d="M1.650 0.438 Q0.840 0.436 0.657 0.830" stroke="hsl(0.0,100%,35%)" stroke-width="0.00015"></path>
<path d="M1.650 0.438 Q1.192 0.115 0.461 0.268" stroke="hsl(0.0,100%,35%)" stroke-width="0.00015"></path>
<path d="M1.650 0.438 Q1.465 0.473 1.492 0.571" stroke="hsl(0.0,100%,35%)" stroke-width="0.00015"></path>
<path d="M0.287 0.618 Q1.201 0.752 1.663 0.335" stroke="hsl(0.0,100%,35%)" stroke-width="0.01387"></path>
<path d="M0.287 0.618 Q0.305 0.543 0.164 0.518" stroke="hsl(0.0,100%,35%)" stroke-width="0.01270"></path>
<path d="M0.287 0.618 Q0.654 0.478 0.461 0.268" stroke="hsl(0.0,100%,35%)" stroke-width="0.00628"></path>
<path d="M0.287 0.618 Q0.597 0.618 0.666 0.467" stroke="hsl(0.0,100%,35%)" stroke-width="0.00496"></path>
<path d="M0.287 0.618 Q0.375 0.733 0.619 0.715" stroke="hsl(0.0,100%,35%)" stroke-width="0.00336"></path>
<path d="M0.287 0.618 Q1.112 0.801 1.650 0.438" stroke="hsl(0.0,100%,35%)" stroke-width="0.00190"></path>
<path d="M0.287 0.618 Q0.872 0.844 1.443 0.609" stroke="hsl(0.0,100%,35%)" stroke-width="0.00044"></path>
<path d="M0.287 0.618 Q0.227 0.693 0.361 0.738" stroke="hsl(0.0,100%,35%)" stroke-width="0.00029"></path>
<path d="M0.287 0.618 Q0.449 0.578 0.407 0.490" stroke="hsl(0.0,100%,35%)" stroke-width="0.00044"></path>
<path d="M0.287 0.618 Q0.927 0.835 1.492 0.571" stroke="hsl(0.0,100%,35%)" stroke-width="0.00029"></path>
<path d="M0.287 0.618 Q1.218 0.656 1.498 0.211" stroke="hsl(0.0,100%,35%)" stroke-width="0.00131"></path>
<path d="M0.287 0.618 Q0.796 0.717 1.101 0.491" stroke="hsl(0.0,100%,35%)" stroke-width="0.00015"></path>
<path d="M0.287 0.618 Q1.041 0.666 1.302 0.309" stroke="hsl(0.0,100%,35%)" stroke-width="0.00015"></path>
<path d="M0.287 0.618 Q0.707 0.905 1.361 0.763" stroke="hsl(0.0,100%,35%)" stroke-width="0.00058"></path>
<path d="M0.287 0.618 Q0.302 0.798 0.657 0.830" stroke="hsl(0.0,100%,35%)" stroke-width="0.00029"></path>
<path d="M0.287 0.618 Q0.866 0.793 1.336 0.549" stroke="hsl(0.0,100%,35%)" stroke-width="0.00058"></path>
<path d="M0.287 0.618 Q0.101 0.654 0.131 0.752" stroke="hsl(0.0,100%,35%)" stroke-width="0.00073"></path>
<path d="M1.663 0.335 Q0.768 0.127 0.164 0.518" stroke="hsl(0.0,100%,35%)" stroke-width="0.00380"></path>
<path d="M1.663 0.335 Q0.749 0.201 0.287 0.618" stroke="hsl(0.0,100%,35%)" stroke-width="0.00759"></path>
<path d="M1.663 0.335 Q1.632 0.096 1.158 0.059" stroke="hsl(0.0,100%,35%)" stroke-width="0.00015"></path>
<path d="M1.663 0.335 Q1.116 0.061 0.461 0.268" stroke="hsl(0.0,100%,35%)" stroke-width="0.00686"></path>
<path d="M1.663 0.335 Q1.170 0.489 1.361 0.763" stroke="hsl(0.0,100%,35%)" stroke-width="0.00058"></path>
<path d="M1.663 0.335 Q1.574 0.384 1.650 0.438" stroke="hsl(0.0,100%,35%)" stroke-width="0.01358"></path>
<path d="M1.663 0.335 Q1.329 0.377 1.336 0.549" stroke="hsl(0.0,100%,35%)" stroke-width="0.00029"></path>
<path d="M1.663 0.335 Q0.838 0.316 0.619 0.715" stroke="hsl(0.0,100%,35%)" stroke-width="0.00029"></path>
<path d="M1.663 0.335 Q0.912 0.161 0.407 0.490" stroke="hsl(0.0,100%,35%)" stroke-width="0.00058"></path>
<path d="M1.663 0.335 Q1.258 0.301 1.101 0.491" stroke="hsl(0.0,100%,35%)" stroke-width="0.00073"></path>
<path d="M1.663 0.335 Q1.060 0.202 0.666 0.467" stroke="hsl(0.0,100%,35%)" stroke-width="0.00190"></path>
<path d="M1.663 0.335 Q1.390 0.248 1.159 0.362" stroke="hsl(0.0,100%,35%)" stroke-width="0.00015"></path>
<path d="M1.663 0.335 Q1.419 0.297 1.290 0.408" stroke="hsl(0.0,100%,35%)" stroke-width="0.00015"></path>
<path d="M1.663 0.335 Q1.502 0.025 0.860 0.035" stroke="hsl(0.0,100%,35%)" stroke-width="0.00015"></path>
<path d="M1.663 0.335 Q0.764 0.382 0.657 0.830" stroke="hsl(0.0,100%,35%)" stroke-width="0.00029"></path>
<path d="M0.407 0.490 Q0.245 0.530 0.287 0.618" stroke="hsl(0.0,100%,35%)" stroke-width="0.01445"></path>
<path d="M0.407 0.490 Q0.333 0.644 0.619 0.715" stroke="hsl(0.0,100%,35%)" stroke-width="0.00307"></path>
<path d="M0.407 0.490 Q0.824 0.705 1.336 0.549" stroke="hsl(0.0,100%,35%)" stroke-width="0.00190"></path>
<path d="M0.407 0.490 Q1.070 0.712 1.650 0.438" stroke="hsl(0.0,100%,35%)" stroke-width="0.00248"></path>
<path d="M0.407 0.490 Q0.612 0.390 0.461 0.268" stroke="hsl(0.0,100%,35%)" stroke-width="0.00774"></path>
<path d="M0.407 0.490 Q1.159 0.664 1.663 0.335" stroke="hsl(0.0,100%,35%)" stroke-width="0.00730"></path>
<path d="M0.407 0.490 Q0.260 0.710 0.657 0.830" stroke="hsl(0.0,100%,35%)" stroke-width="0.00234"></path>
<path d="M0.407 0.490 Q0.263 0.455 0.164 0.518" stroke="hsl(0.0,100%,35%)" stroke-width="0.00672"></path>
<path d="M0.407 0.490 Q0.665 0.817 1.361 0.763" stroke="hsl(0.0,100%,35%)" stroke-width="0.00131"></path>
<path d="M0.407 0.490 Q0.555 0.530 0.666 0.467" stroke="hsl(0.0,100%,35%)" stroke-width="0.00438"></path>
<path d="M0.407 0.490 Q0.950 0.821 1.715 0.629" stroke="hsl(0.0,100%,35%)" stroke-width="0.00190"></path>
<path d="M0.407 0.490 Q0.059 0.566 0.131 0.752" stroke="hsl(0.0,100%,35%)" stroke-width="0.00015"></path>
<path d="M0.407 0.490 Q0.999 0.578 1.302 0.309" stroke="hsl(0.0,100%,35%)" stroke-width="0.00058"></path>
<path d="M0.407 0.490 Q0.754 0.629 1.101 0.491" stroke="hsl(0.0,100%,35%)" stroke-width="0.00015"></path>
<path d="M0.407 0.490 Q1.176 0.568 1.498 0.211" stroke="hsl(0.0,100%,35%)" stroke-width="0.00029"></path>
<path d="M0.407 0.490 Q0.051 0.670 0.326 0.884" stroke="hsl(0.0,100%,35%)" stroke-width="0.00015"></path>
<path d="M1.329 0.446 Q1.180 0.423 1.101 0.491" stroke="hsl(120.0,100%,35%)" stroke-width="0.00277"></path>
<path d="M1.329 0.446 Q1.585 0.458 1.663 0.335" stroke="hsl(120.0,100%,35%)" stroke-width="0.00102"></path>
<path d="M1.329 0.446 Q1.335 0.464 1.370 0.464" stroke="hsl(120.0,100%,35%)" stroke-width="0.00117"></path>
<path d="M1.329 0.446 Q0.834 0.284 0.407 0.490" stroke="hsl(120.0,100%,35%)" stroke-width="0.00058"></path>
<path d="M1.329 0.446 Q1.250 0.499 1.336 0.549" stroke="hsl(120.0,100%,35%)" stroke-width="0.00044"></path>
<path d="M1.329 0.446 Q0.671 0.324 0.287 0.618" stroke="hsl(120.0,100%,35%)" stroke-width="0.00015"></path>
<path d="M1.329 0.446 Q0.611 0.399 0.361 0.738" stroke="hsl(120.0,100%,35%)" stroke-width="0.00015"></path>
<path d="M1.329 0.446 Q1.340 0.419 1.290 0.408" stroke="hsl(120.0,100%,35%)" stroke-width="0.00044"></path>
<path d="M1.101 0.491 Q0.593 0.391 0.287 0.618" stroke="hsl(120.0,100%,35%)" stroke-width="0.00029"></path>
<path d="M1.101 0.491 Q1.250 0.514 1.329 0.446" stroke="hsl(120.0,100%,35%)" stroke-width="0.00292"></path>
<path d="M1.101 0.491 Q0.611 0.317 0.164 0.518" stroke="hsl(120.0,100%,35%)" stroke-width="0.00015"></path>
<path d="M1.101 0.491 Q1.257 0.531 1.370 0.464" stroke="hsl(120.0,100%,35%)" stroke-width="0.00029"></path>
<path d="M1.101 0.491 Q1.172 0.567 1.336 0.549" stroke="hsl(120.0,100%,35%)" stroke-width="0.00058"></path>
<path d="M1.101 0.491 Q1.233 0.438 1.159 0.362" stroke="hsl(120.0,100%,35%)" stroke-width="0.00146"></path>
<path d="M1.101 0.491 Q1.524 0.430 1.498 0.211" stroke="hsl(120.0,100%,35%)" stroke-width="0.00015"></path>
<path d="M1.101 0.491 Q0.407 0.428 0.131 0.752" stroke="hsl(120.0,100%,35%)" stroke-width="0.00029"></path>
<path d="M1.498 0.211 Q0.655 0.287 0.619 0.715" stroke="hsl(240.0,100%,35%)" stroke-width="0.01226"></path>
<path d="M1.498 0.211 Q0.987 0.460 1.361 0.763" stroke="hsl(240.0,100%,35%)" stroke-width="0.00730"></path>
<path d="M1.498 0.211 Q0.567 0.172 0.287 0.618" stroke="hsl(240.0,100%,35%)" stroke-width="0.00131"></path>
<path d="M1.498 0.211 Q0.729 0.132 0.407 0.490" stroke="hsl(240.0,100%,35%)" stroke-width="0.00073"></path>
<path d="M1.498 0.211 Q1.076 0.271 1.101 0.491" stroke="hsl(240.0,100%,35%)" stroke-width="0.00336"></path>
<path d="M1.498 0.211 Q1.141 0.526 1.677 0.769" stroke="hsl(240.0,100%,35%)" stroke-width="0.00088"></path>
<path d="M1.498 0.211 Q1.207 0.218 1.159 0.362" stroke="hsl(240.0,100%,35%)" stroke-width="0.00029"></path>
<path d="M1.498 0.211 Q1.392 0.355 1.650 0.438" stroke="hsl(240.0,100%,35%)" stroke-width="0.00044"></path>
<path d="M1.498 0.211 Q0.877 0.173 0.666 0.467" stroke="hsl(240.0,100%,35%)" stroke-width="0.00044"></path>
<path d="M1.498 0.211 Q1.321 0.220 1.302 0.309" stroke="hsl(240.0,100%,35%)" stroke-width="0.01255"></path>
<path d="M1.498 0.211 Q0.582 0.352 0.657 0.830" stroke="hsl(240.0,100%,35%)" stroke-width="0.00175"></path>
<path d="M1.498 0.211 Q0.373 0.313 0.326 0.884" stroke="hsl(240.0,100%,35%)" stroke-width="0.00015"></path>
<path d="M1.498 0.211 Q0.934 0.032 0.461 0.268" stroke="hsl(240.0,100%,35%)" stroke-width="0.00058"></path>
<path d="M1.498 0.211 Q1.320 -0.005 0.860 0.035" stroke="hsl(240.0,100%,35%)" stroke-width="0.00015"></path>
<path d="M1.498 0.211 Q0.381 0.208 0.131 0.752" stroke="hsl(240.0,100%,35%)" stroke-width="0.00044"></path>
<path d="M1.498 0.211 Q1.450 0.067 1.158 0.059" stroke="hsl(240.0,100%,35%)" stroke-width="0.00058"></path>
<path d="M1.498 0.211 Q0.585 0.098 0.164 0.518" stroke="hsl(240.0,100%,35%)" stroke-width="0.00029"></path>
<path d="M1.498 0.211 Q1.231 0.312 1.370 0.464" stroke="hsl(240.0,100%,35%)" stroke-width="0.00044"></path>
<path d="M1.498 0.211 Q1.606 0.130 1.472 0.059" stroke="hsl(240.0,100%,35%)" stroke-width="0.00015"></path>
<path d="M1.498 0.211 Q1.146 0.348 1.336 0.549" stroke="hsl(240.0,100%,35%)" stroke-width="0.00088"></path>
<path d="M0.666 0.467 Q0.375 0.392 0.164 0.518" stroke="hsl(0.0,100%,35%)" stroke-width="0.00701"></path>
<path d="M0.666 0.467 Q1.239 0.361 1.158 0.059" stroke="hsl(0.0,100%,35%)" stroke-width="0.00015"></path>
<path d="M0.666 0.467 Q0.445 0.581 0.619 0.715" stroke="hsl(0.0,100%,35%)" stroke-width="0.00350"></path>
<path d="M0.666 0.467 Q0.519 0.427 0.407 0.490" stroke="hsl(0.0,100%,35%)" stroke-width="0.00073"></path>
<path d="M0.666 0.467 Q1.181 0.649 1.650 0.438" stroke="hsl(0.0,100%,35%)" stroke-width="0.00131"></path>
<path d="M0.666 0.467 Q0.371 0.647 0.657 0.830" stroke="hsl(0.0,100%,35%)" stroke-width="0.00146"></path>
<path d="M0.666 0.467 Q0.356 0.466 0.287 0.618" stroke="hsl(0.0,100%,35%)" stroke-width="0.00365"></path>
<path d="M0.666 0.467 Q0.723 0.326 0.461 0.268" stroke="hsl(0.0,100%,35%)" stroke-width="0.00044"></path>
<path d="M0.666 0.467 Q0.865 0.566 1.101 0.491" stroke="hsl(0.0,100%,35%)" stroke-width="0.00029"></path>
<path d="M0.666 0.467 Q0.777 0.754 1.361 0.763" stroke="hsl(0.0,100%,35%)" stroke-width="0.00015"></path>
<path d="M0.666 0.467 Q0.936 0.642 1.336 0.549" stroke="hsl(0.0,100%,35%)" stroke-width="0.00015"></path>
<path d="M0.666 0.467 Q0.997 0.513 1.159 0.362" stroke="hsl(0.0,100%,35%)" stroke-width="0.00029"></path>
<path d="M0.666 0.467 Q0.171 0.503 0.131 0.752" stroke="hsl(0.0,100%,35%)" stroke-width="0.00015"></path>
<path d="M0.666 0.467 Q1.270 0.601 1.663 0.335" stroke="hsl(0.0,100%,35%)" stroke-width="0.00073"></path>
<path d="M0.666 0.467 Q0.672 0.673 1.076 0.716" stroke="hsl(0.0,100%,35%)" stroke-width="0.00015"></path>
<path d="M0.666 0.467 Q1.014 0.589 1.329 0.446" stroke="hsl(0.0,100%,35%)" stroke-width="0.00029"></path>
<path d="M0.666 0.467 Q0.763 0.262 0.383 0.170" stroke="hsl(0.0,100%,35%)" stroke-width="0.00015"></path>
<path d="M0.666 0.467 Q1.111 0.515 1.302 0.309" stroke="hsl(0.0,100%,35%)" stroke-width="0.00029"></path>
<path d="M0.666 0.467 Q1.287 0.505 1.498 0.211" stroke="hsl(0.0,100%,35%)" stroke-width="0.00102"></path>
<path d="M0.666 0.467 Q0.163 0.607 0.326 0.884" stroke="hsl(0.0,100%,35%)" stroke-width="0.00015"></path>
<path d="M1.361 0.763 Q1.515 0.829 1.677 0.769" stroke="hsl(120.0,100%,35%)" stroke-width="0.00701"></path>
<path d="M1.361 0.763 Q1.029 0.591 0.619 0.715" stroke="hsl(120.0,100%,35%)" stroke-width="0.00146"></path>
<path d="M1.361 0.763 Q1.156 0.770 1.124 0.872" stroke="hsl(120.0,100%,35%)" stroke-width="0.00015"></path>
<path d="M1.361 0.763 Q1.256 0.683 1.076 0.716" stroke="hsl(120.0,100%,35%)" stroke-width="0.00088"></path>
<path d="M1.361 0.763 Q1.823 0.370 1.158 0.059" stroke="hsl(120.0,100%,35%)" stroke-width="0.00131"></path>
<path d="M1.361 0.763 Q0.956 0.656 0.657 0.830" stroke="hsl(120.0,100%,35%)" stroke-width="0.00029"></path>
<path d="M1.361 0.763 Q1.103 0.436 0.407 0.490" stroke="hsl(120.0,100%,35%)" stroke-width="0.00015"></path>
<path d="M1.361 0.763 Q1.520 0.651 1.336 0.549" stroke="hsl(120.0,100%,35%)" stroke-width="0.00234"></path>
<path d="M1.361 0.763 Q1.645 0.767 1.715 0.629" stroke="hsl(120.0,100%,35%)" stroke-width="0.00044"></path>
<path d="M1.361 0.763 Q1.695 0.524 1.302 0.309" stroke="hsl(120.0,100%,35%)" stroke-width="0.00058"></path>
<path d="M1.361 0.763 Q1.694 0.299 0.860 0.035" stroke="hsl(120.0,100%,35%)" stroke-width="0.00190"></path>
<path d="M1.361 0.763 Q0.881 0.551 0.361 0.738" stroke="hsl(120.0,100%,35%)" stroke-width="0.00044"></path>
<path d="M1.361 0.763 Q0.941 0.476 0.287 0.618" stroke="hsl(120.0,100%,35%)" stroke-width="0.00321"></path>
<path d="M1.361 0.763 Q1.308 0.336 0.461 0.268" stroke="hsl(120.0,100%,35%)" stroke-width="0.00102"></path>
<path d="M1.361 0.763 Q1.872 0.514 1.498 0.211" stroke="hsl(120.0,100%,35%)" stroke-width="0.00336"></path>
<path d="M1.361 0.763 Q0.755 0.512 0.131 0.752" stroke="hsl(120.0,100%,35%)" stroke-width="0.00044"></path>
<path d="M1.361 0.763 Q1.854 0.610 1.663 0.335" stroke="hsl(120.0,100%,35%)" stroke-width="0.00073"></path>
<path d="M1.361 0.763 Q1.581 0.693 1.492 0.571" stroke="hsl(120.0,100%,35%)" stroke-width="0.00015"></path>
<path d="M0.619 0.715 Q0.337 0.740 0.326 0.884" stroke="hsl(240.0,100%,35%)" stroke-width="0.00555"></path>
<path d="M0.619 0.715 Q0.531 0.600 0.287 0.618" stroke="hsl(240.0,100%,35%)" stroke-width="0.00993"></path>
<path d="M0.619 0.715 Q0.898 0.460 0.461 0.268" stroke="hsl(240.0,100%,35%)" stroke-width="0.00555"></path>
<path d="M0.619 0.715 Q0.549 0.525 0.164 0.518" stroke="hsl(240.0,100%,35%)" stroke-width="0.00073"></path>
<path d="M0.619 0.715 Q1.413 0.494 1.158 0.059" stroke="hsl(240.0,100%,35%)" stroke-width="0.00015"></path>
<path d="M0.619 0.715 Q0.693 0.560 0.407 0.490" stroke="hsl(240.0,100%,35%)" stroke-width="0.00073"></path>
<path d="M0.619 0.715 Q0.546 0.780 0.657 0.830" stroke="hsl(240.0,100%,35%)" stroke-width="0.03752"></path>
<path d="M0.619 0.715 Q1.163 0.840 1.527 0.602" stroke="hsl(240.0,100%,35%)" stroke-width="0.00029"></path>
<path d="M0.619 0.715 Q1.110 0.775 1.336 0.549" stroke="hsl(240.0,100%,35%)" stroke-width="0.00263"></path>
<path d="M0.619 0.715 Q0.951 0.887 1.361 0.763" stroke="hsl(240.0,100%,35%)" stroke-width="0.00175"></path>
<path d="M0.619 0.715 Q1.462 0.638 1.498 0.211" stroke="hsl(240.0,100%,35%)" stroke-width="0.01080"></path>
<path d="M0.619 0.715 Q1.039 0.699 1.101 0.491" stroke="hsl(240.0,100%,35%)" stroke-width="0.00073"></path>
<path d="M0.619 0.715 Q0.841 0.600 0.666 0.467" stroke="hsl(240.0,100%,35%)" stroke-width="0.00073"></path>
<path d="M0.619 0.715 Q1.285 0.648 1.302 0.309" stroke="hsl(240.0,100%,35%)" stroke-width="0.00058"></path>
<path d="M0.619 0.715 Q1.444 0.734 1.663 0.335" stroke="hsl(240.0,100%,35%)" stroke-width="0.00058"></path>
<path d="M0.619 0.715 Q1.105 0.953 1.677 0.769" stroke="hsl(240.0,100%,35%)" stroke-width="0.00058"></path>
<path d="M0.619 0.715 Q0.471 0.675 0.361 0.738" stroke="hsl(240.0,100%,35%)" stroke-width="0.00029"></path>
<path d="M0.619 0.715 Q0.345 0.636 0.131 0.752" stroke="hsl(240.0,100%,35%)" stroke-width="0.00029"></path>
<path d="M0.619 0.715 Q1.195 0.740 1.370 0.464" stroke="hsl(240.0,100%,35%)" stroke-width="0.00088"></path>
<path d="M0.619 0.715 Q1.200 0.696 1.290 0.408" stroke="hsl(240.0,100%,35%)" stroke-width="0.00015"></path>
<path d="M0.619 0.715 Q0.448 0.815 0.606 0.921" stroke="hsl(240.0,100%,35%)" stroke-width="0.00015"></path>
<path d="M1.336 0.549 Q1.421 0.514 1.370 0.464" stroke="hsl(120.0,100%,35%)" stroke-width="0.00088"></path>
<path d="M1.336 0.549 Q0.845 0.489 0.619 0.715" stroke="hsl(120.0,100%,35%)" stroke-width="0.00102"></path>
<path d="M1.336 0.549 Q1.331 0.727 1.677 0.769" stroke="hsl(120.0,100%,35%)" stroke-width="0.00044"></path>
<path d="M1.336 0.549 Q1.640 0.268 1.158 0.059" stroke="hsl(120.0,100%,35%)" stroke-width="0.00102"></path>
<path d="M1.336 0.549 Q1.177 0.661 1.361 0.763" stroke="hsl(120.0,100%,35%)" stroke-width="0.00204"></path>
<path d="M1.336 0.549 Q0.920 0.334 0.407 0.490" stroke="hsl(120.0,100%,35%)" stroke-width="0.00102"></path>
<path d="M1.336 0.549 Q1.389 0.614 1.527 0.602" stroke="hsl(120.0,100%,35%)" stroke-width="0.00029"></path>
<path d="M1.336 0.549 Q0.772 0.554 0.657 0.830" stroke="hsl(120.0,100%,35%)" stroke-width="0.00015"></path>
<path d="M1.336 0.549 Q1.395 0.399 1.114 0.337" stroke="hsl(120.0,100%,35%)" stroke-width="0.00146"></path>
<path d="M1.336 0.549 Q1.462 0.665 1.715 0.629" stroke="hsl(120.0,100%,35%)" stroke-width="0.00015"></path>
<path d="M1.336 0.549 Q1.397 0.591 1.492 0.571" stroke="hsl(120.0,100%,35%)" stroke-width="0.00628"></path>
<path d="M1.336 0.549 Q1.512 0.422 1.302 0.309" stroke="hsl(120.0,100%,35%)" stroke-width="0.00058"></path>
<path d="M1.336 0.549 Q1.415 0.496 1.329 0.446" stroke="hsl(120.0,100%,35%)" stroke-width="0.00088"></path>
<path d="M1.336 0.549 Q1.266 0.473 1.101 0.491" stroke="hsl(120.0,100%,35%)" stroke-width="0.00234"></path>
<path d="M1.336 0.549 Q0.698 0.449 0.361 0.738" stroke="hsl(120.0,100%,35%)" stroke-width="0.00015"></path>
<path d="M1.336 0.549 Q1.067 0.374 0.666 0.467" stroke="hsl(120.0,100%,35%)" stroke-width="0.00029"></path>
<path d="M1.336 0.549 Q1.510 0.197 0.860 0.035" stroke="hsl(120.0,100%,35%)" stroke-width="0.00044"></path>
<path d="M1.336 0.549 Q1.397 0.420 1.159 0.362" stroke="hsl(120.0,100%,35%)" stroke-width="0.00015"></path>
<path d="M1.336 0.549 Q0.571 0.410 0.131 0.752" stroke="hsl(120.0,100%,35%)" stroke-width="0.00044"></path>
<path d="M1.336 0.549 Q1.073 0.581 1.076 0.716" stroke="hsl(120.0,100%,35%)" stroke-width="0.00088"></path>
<path d="M1.336 0.549 Q1.426 0.469 1.290 0.408" stroke="hsl(120.0,100%,35%)" stroke-width="0.00015"></path>
<path d="M1.336 0.549 Q0.757 0.374 0.287 0.618" stroke="hsl(120.0,100%,35%)" stroke-width="0.00015"></path>
<path d="M1.336 0.549 Q1.688 0.412 1.498 0.211" stroke="hsl(120.0,100%,35%)" stroke-width="0.00058"></path>
<path d="M1.336 0.549 Q1.137 0.475 0.948 0.555" stroke="hsl(120.0,100%,35%)" stroke-width="0.00015"></path>
<path d="M1.336 0.549 Q1.342 0.600 1.443 0.609" stroke="hsl(120.0,100%,35%)" stroke-width="0.00015"></path>
<path d="M1.302 0.309 Q0.968 0.548 1.361 0.763" stroke="hsl(0.0,100%,35%)" stroke-width="0.00102"></path>
<path d="M1.302 0.309 Q0.636 0.375 0.619 0.715" stroke="hsl(0.0,100%,35%)" stroke-width="0.00073"></path>
<path d="M1.302 0.309 Q0.710 0.220 0.407 0.490" stroke="hsl(0.0,100%,35%)" stroke-width="0.00102"></path>
<path d="M1.302 0.309 Q1.430 0.155 1.158 0.059" stroke="hsl(0.0,100%,35%)" stroke-width="0.00672"></path>
<path d="M1.302 0.309 Q1.308 0.226 1.148 0.204" stroke="hsl(0.0,100%,35%)" stroke-width="0.00015"></path>
<path d="M1.302 0.309 Q1.126 0.436 1.336 0.549" stroke="hsl(0.0,100%,35%)" stroke-width="0.00015"></path>
<path d="M1.302 0.309 Q0.547 0.260 0.287 0.618" stroke="hsl(0.0,100%,35%)" stroke-width="0.00117"></path>
<path d="M1.302 0.309 Q1.372 0.443 1.650 0.438" stroke="hsl(0.0,100%,35%)" stroke-width="0.00029"></path>
<path d="M1.302 0.309 Q1.461 0.394 1.663 0.335" stroke="hsl(0.0,100%,35%)" stroke-width="0.01460"></path>
<path d="M1.302 0.309 Q1.300 0.083 0.860 0.035" stroke="hsl(0.0,100%,35%)" stroke-width="0.00058"></path>
<path d="M1.302 0.309 Q0.914 0.120 0.461 0.268" stroke="hsl(0.0,100%,35%)" stroke-width="0.00219"></path>
<path d="M1.302 0.309 Q1.478 0.299 1.498 0.211" stroke="hsl(0.0,100%,35%)" stroke-width="0.00263"></path>
<path d="M1.302 0.309 Q0.857 0.261 0.666 0.467" stroke="hsl(0.0,100%,35%)" stroke-width="0.00029"></path>
<path d="M1.302 0.309 Q1.216 0.356 1.290 0.408" stroke="hsl(0.0,100%,35%)" stroke-width="0.00015"></path>
<path d="M1.302 0.309 Q1.211 0.400 1.370 0.464" stroke="hsl(0.0,100%,35%)" stroke-width="0.00015"></path>
<path d="M1.158 0.059 Q1.013 0.031 0.927 0.096" stroke="hsl(0.0,100%,35%)" stroke-width="0.00073"></path>
<path d="M1.158 0.059 Q0.696 0.452 1.361 0.763" stroke="hsl(0.0,100%,35%)" stroke-width="0.00204"></path>
<path d="M1.158 0.059 Q0.294 0.089 0.164 0.518" stroke="hsl(0.0,100%,35%)" stroke-width="0.00029"></path>
<path d="M1.158 0.059 Q0.364 0.279 0.619 0.715" stroke="hsl(0.0,100%,35%)" stroke-width="0.00073"></path>
<path d="M1.158 0.059 Q0.849 0.518 1.677 0.769" stroke="hsl(0.0,100%,35%)" stroke-width="0.00088"></path>
<path d="M1.158 0.059 Q0.854 0.340 1.336 0.549" stroke="hsl(0.0,100%,35%)" stroke-width="0.00088"></path>
<path d="M1.158 0.059 Q1.030 0.212 1.302 0.309" stroke="hsl(0.0,100%,35%)" stroke-width="0.00599"></path>
<path d="M1.158 0.059 Q1.206 0.203 1.498 0.211" stroke="hsl(0.0,100%,35%)" stroke-width="0.00467"></path>
<path d="M1.158 0.059 Q0.290 0.344 0.657 0.830" stroke="hsl(0.0,100%,35%)" stroke-width="0.00015"></path>
<path d="M1.158 0.059 Q0.090 0.200 0.131 0.752" stroke="hsl(0.0,100%,35%)" stroke-width="0.00044"></path>
<path d="M1.158 0.059 Q1.028 -0.013 0.860 0.035" stroke="hsl(0.0,100%,35%)" stroke-width="0.00088"></path>
<path d="M1.158 0.059 Q0.585 0.165 0.666 0.467" stroke="hsl(0.0,100%,35%)" stroke-width="0.00029"></path>
<path d="M1.158 0.059 Q0.933 0.287 1.329 0.446" stroke="hsl(0.0,100%,35%)" stroke-width="0.00015"></path>
<path d="M1.158 0.059 Q1.072 0.099 1.133 0.150" stroke="hsl(0.0,100%,35%)" stroke-width="0.00015"></path>
<path d="M1.158 0.059 Q0.275 0.164 0.287 0.618" stroke="hsl(0.0,100%,35%)" stroke-width="0.00015"></path>
<path d="M1.158 0.059 Q0.892 0.074 0.864 0.207" stroke="hsl(0.0,100%,35%)" stroke-width="0.00015"></path>
<path d="M0.164 0.518 Q0.456 0.593 0.666 0.467" stroke="hsl(0.0,100%,35%)" stroke-width="0.00803"></path>
<path d="M0.164 0.518 Q0.308 0.552 0.407 0.490" stroke="hsl(0.0,100%,35%)" stroke-width="0.00161"></path>
<path d="M0.164 0.518 Q0.146 0.592 0.287 0.618" stroke="hsl(0.0,100%,35%)" stroke-width="0.00993"></path>
<path d="M0.164 0.518 Q1.060 0.726 1.663 0.335" stroke="hsl(0.0,100%,35%)" stroke-width="0.00409"></path>
<path d="M0.164 0.518 Q0.566 0.880 1.361 0.763" stroke="hsl(0.0,100%,35%)" stroke-width="0.00015"></path>
<path d="M0.164 0.518 Q0.513 0.452 0.461 0.268" stroke="hsl(0.0,100%,35%)" stroke-width="0.00029"></path>
<path d="M0.164 0.518 Q-0.040 0.628 0.131 0.752" stroke="hsl(0.0,100%,35%)" stroke-width="0.00015"></path>
<path d="M0.164 0.518 Q0.234 0.707 0.619 0.715" stroke="hsl(0.0,100%,35%)" stroke-width="0.00161"></path>
<path d="M0.164 0.518 Q0.725 0.768 1.336 0.549" stroke="hsl(0.0,100%,35%)" stroke-width="0.00015"></path>
<path d="M0.164 0.518 Q0.971 0.775 1.650 0.438" stroke="hsl(0.0,100%,35%)" stroke-width="0.00044"></path>
<path d="M0.164 0.518 Q0.161 0.773 0.657 0.830" stroke="hsl(0.0,100%,35%)" stroke-width="0.00044"></path>
<path d="M0.164 0.518 Q1.077 0.631 1.498 0.211" stroke="hsl(0.0,100%,35%)" stroke-width="0.00015"></path>
<path d="M0.164 0.518 Q0.086 0.667 0.361 0.738" stroke="hsl(0.0,100%,35%)" stroke-width="0.00015"></path>
<path d="M0.164 0.518 Q0.082 0.516 0.061 0.556" stroke="hsl(0.0,100%,35%)" stroke-width="0.00015"></path>
<path d="M0.164 0.518 Q0.385 0.404 0.211 0.272" stroke="hsl(0.0,100%,35%)" stroke-width="0.00015"></path>
<path d="M0.164 0.518 Q-0.048 0.733 0.326 0.884" stroke="hsl(0.0,100%,35%)" stroke-width="0.00015"></path>
<path d="M0.164 0.518 Q0.900 0.641 1.302 0.309" stroke="hsl(0.0,100%,35%)" stroke-width="0.00015"></path>
<path d="M0.164 0.518 Q0.720 0.946 1.677 0.769" stroke="hsl(0.0,100%,35%)" stroke-width="0.00015"></path>
<path d="M0.164 0.518 Q0.134 0.523 0.136 0.539" stroke="hsl(0.0,100%,35%)" stroke-width="0.00029"></path>
<path d="M0.164 0.518 Q0.123 0.499 0.078 0.515" stroke="hsl(0.0,100%,35%)" stroke-width="0.00015"></path>
<path d="M0.657 0.830 Q0.731 0.765 0.619 0.715" stroke="hsl(240.0,100%,35%)" stroke-width="0.10817"></path>
<path d="M0.657 0.830 Q1.063 0.938 1.361 0.763" stroke="hsl(240.0,100%,35%)" stroke-width="0.00117"></path>
<path d="M0.657 0.830 Q0.952 0.651 0.666 0.467" stroke="hsl(240.0,100%,35%)" stroke-width="0.00088"></path>
<path d="M0.657 0.830 Q1.009 0.510 0.461 0.268" stroke="hsl(240.0,100%,35%)" stroke-width="0.00292"></path>
<path d="M0.657 0.830 Q0.449 0.791 0.326 0.884" stroke="hsl(240.0,100%,35%)" stroke-width="0.03956"></path>
<path d="M0.657 0.830 Q0.661 0.575 0.164 0.518" stroke="hsl(240.0,100%,35%)" stroke-width="0.00204"></path>
<path d="M0.657 0.830 Q1.556 0.784 1.663 0.335" stroke="hsl(240.0,100%,35%)" stroke-width="0.00044"></path>
<path d="M0.657 0.830 Q0.642 0.650 0.287 0.618" stroke="hsl(240.0,100%,35%)" stroke-width="0.00730"></path>
<path d="M0.657 0.830 Q1.395 0.473 0.860 0.035" stroke="hsl(240.0,100%,35%)" stroke-width="0.00029"></path>
<path d="M0.657 0.830 Q1.573 0.689 1.498 0.211" stroke="hsl(240.0,100%,35%)" stroke-width="0.00788"></path>
<path d="M0.657 0.830 Q0.805 0.610 0.407 0.490" stroke="hsl(240.0,100%,35%)" stroke-width="0.00058"></path>
<path d="M0.657 0.830 Q0.583 0.725 0.361 0.738" stroke="hsl(240.0,100%,35%)" stroke-width="0.00015"></path>
<path d="M0.657 0.830 Q1.467 0.833 1.650 0.438" stroke="hsl(240.0,100%,35%)" stroke-width="0.00044"></path>
<path d="M0.657 0.830 Q1.397 0.698 1.302 0.309" stroke="hsl(240.0,100%,35%)" stroke-width="0.00015"></path>
<path d="M0.657 0.830 Q1.525 0.545 1.158 0.059" stroke="hsl(240.0,100%,35%)" stroke-width="0.00088"></path>
<path d="M0.657 0.830 Q1.216 1.004 1.677 0.769" stroke="hsl(240.0,100%,35%)" stroke-width="0.00029"></path>
<path d="M0.461 0.268 Q1.008 0.542 1.663 0.335" stroke="hsl(0.0,100%,35%)" stroke-width="0.00584"></path>
<path d="M0.461 0.268 Q0.113 0.333 0.164 0.518" stroke="hsl(0.0,100%,35%)" stroke-width="0.00058"></path>
<path d="M0.461 0.268 Q0.094 0.408 0.287 0.618" stroke="hsl(0.0,100%,35%)" stroke-width="0.00526"></path>
<path d="M0.461 0.268 Q0.183 0.523 0.619 0.715" stroke="hsl(0.0,100%,35%)" stroke-width="0.00073"></path>
<path d="M0.461 0.268 Q0.515 0.696 1.361 0.763" stroke="hsl(0.0,100%,35%)" stroke-width="0.00482"></path>
<path d="M0.461 0.268 Q0.257 0.368 0.407 0.490" stroke="hsl(0.0,100%,35%)" stroke-width="0.00190"></path>
<path d="M0.461 0.268 Q0.849 0.456 1.302 0.309" stroke="hsl(0.0,100%,35%)" stroke-width="0.00088"></path>
<path d="M0.461 0.268 Q0.669 0.762 1.677 0.769" stroke="hsl(0.0,100%,35%)" stroke-width="0.00131"></path>
<path d="M0.461 0.268 Q0.437 0.204 0.307 0.202" stroke="hsl(0.0,100%,35%)" stroke-width="0.00015"></path>
<path d="M0.461 0.268 Q0.799 0.699 1.715 0.629" stroke="hsl(0.0,100%,35%)" stroke-width="0.00015"></path>
<path d="M0.461 0.268 Q1.025 0.447 1.498 0.211" stroke="hsl(0.0,100%,35%)" stroke-width="0.00146"></path>
<path d="M0.461 0.268 Q0.035 0.483 0.361 0.738" stroke="hsl(0.0,100%,35%)" stroke-width="0.00058"></path>
<path d="M0.461 0.268 Q0.109 0.588 0.657 0.830" stroke="hsl(0.0,100%,35%)" stroke-width="0.00044"></path>
<path d="M0.461 0.268 Q0.404 0.408 0.666 0.467" stroke="hsl(0.0,100%,35%)" stroke-width="0.00073"></path>
<path d="M0.461 0.268 Q0.674 0.583 1.336 0.549" stroke="hsl(0.0,100%,35%)" stroke-width="0.00029"></path>
<path d="M0.461 0.268 Q-0.091 0.444 0.131 0.752" stroke="hsl(0.0,100%,35%)" stroke-width="0.00015"></path>
<path d="M1.492 0.571 Q0.852 0.353 0.287 0.618" stroke="hsl(120.0,100%,35%)" stroke-width="0.00044"></path>
<path d="M1.492 0.571 Q0.666 0.389 0.131 0.752" stroke="hsl(120.0,100%,35%)" stroke-width="0.00044"></path>
<path d="M1.492 0.571 Q1.431 0.529 1.336 0.549" stroke="hsl(120.0,100%,35%)" stroke-width="0.00511"></path>
<path d="M1.492 0.571 Q1.783 0.392 1.498 0.211" stroke="hsl(120.0,100%,35%)" stroke-width="0.00044"></path>
<path d="M1.492 0.571 Q1.015 0.313 0.407 0.490" stroke="hsl(120.0,100%,35%)" stroke-width="0.00029"></path>
<path d="M1.492 0.571 Q1.516 0.493 1.370 0.464" stroke="hsl(120.0,100%,35%)" stroke-width="0.00015"></path>
<path d="M1.492 0.571 Q1.558 0.579 1.589 0.549" stroke="hsl(120.0,100%,35%)" stroke-width="0.00015"></path>
<path d="M1.492 0.571 Q0.793 0.428 0.361 0.738" stroke="hsl(120.0,100%,35%)" stroke-width="0.00029"></path>
<path d="M1.492 0.571 Q1.490 0.378 1.114 0.337" stroke="hsl(120.0,100%,35%)" stroke-width="0.00044"></path>
<path d="M1.492 0.571 Q1.426 0.707 1.677 0.769" stroke="hsl(120.0,100%,35%)" stroke-width="0.00015"></path>
<path d="M1.492 0.571 Q1.605 0.176 0.860 0.035" stroke="hsl(120.0,100%,35%)" stroke-width="0.00015"></path>
<path d="M1.492 0.571 Q1.274 0.492 1.072 0.581" stroke="hsl(120.0,100%,35%)" stroke-width="0.00015"></path>
<path d="M1.492 0.571 Q1.361 0.453 1.101 0.491" stroke="hsl(120.0,100%,35%)" stroke-width="0.00015"></path>
<path d="M1.370 0.464 Q0.706 0.324 0.287 0.618" stroke="hsl(120.0,100%,35%)" stroke-width="0.00029"></path>
<path d="M1.370 0.464 Q1.588 0.219 1.158 0.059" stroke="hsl(120.0,100%,35%)" stroke-width="0.00015"></path>
<path d="M1.370 0.464 Q1.637 0.363 1.498 0.211" stroke="hsl(120.0,100%,35%)" stroke-width="0.00029"></path>
<path d="M1.370 0.464 Q1.531 0.507 1.650 0.438" stroke="hsl(120.0,100%,35%)" stroke-width="0.00015"></path>
<path d="M1.370 0.464 Q1.364 0.447 1.329 0.446" stroke="hsl(120.0,100%,35%)" stroke-width="0.00029"></path>
<path d="M1.370 0.464 Q0.868 0.284 0.407 0.490" stroke="hsl(120.0,100%,35%)" stroke-width="0.00015"></path>
<path d="M1.370 0.464 Q1.214 0.424 1.101 0.491" stroke="hsl(120.0,100%,35%)" stroke-width="0.00161"></path>
<path d="M1.370 0.464 Q1.375 0.420 1.290 0.408" stroke="hsl(120.0,100%,35%)" stroke-width="0.00044"></path>
<path d="M1.370 0.464 Q0.721 0.505 0.657 0.830" stroke="hsl(120.0,100%,35%)" stroke-width="0.00015"></path>
<path d="M1.370 0.464 Q1.285 0.500 1.336 0.549" stroke="hsl(120.0,100%,35%)" stroke-width="0.00044"></path>
<path d="M1.370 0.464 Q1.280 0.678 1.677 0.769" stroke="hsl(120.0,100%,35%)" stroke-width="0.00029"></path>
<path d="M1.159 0.362 Q1.097 0.491 1.336 0.549" stroke="hsl(120.0,100%,35%)" stroke-width="0.00073"></path>
<path d="M1.159 0.362 Q1.027 0.415 1.101 0.491" stroke="hsl(120.0,100%,35%)" stroke-width="0.00146"></path>
<path d="M1.159 0.362 Q1.156 0.341 1.114 0.337" stroke="hsl(120.0,100%,35%)" stroke-width="0.00015"></path>
<path d="M1.159 0.362 Q1.449 0.354 1.498 0.211" stroke="hsl(120.0,100%,35%)" stroke-width="0.00015"></path>
<path d="M1.159 0.362 Q1.432 0.450 1.663 0.335" stroke="hsl(120.0,100%,35%)" stroke-width="0.00015"></path>
<path d="M1.159 0.362 Q1.182 0.455 1.370 0.464" stroke="hsl(120.0,100%,35%)" stroke-width="0.00073"></path>
<path d="M1.159 0.362 Q1.223 0.607 1.715 0.629" stroke="hsl(120.0,100%,35%)" stroke-width="0.00015"></path>
<path d="M1.159 0.362 Q0.537 0.241 0.164 0.518" stroke="hsl(120.0,100%,35%)" stroke-width="0.00015"></path>
<path d="M0.131 0.752 Q0.486 0.743 0.546 0.568" stroke="hsl(120.0,100%,35%)" stroke-width="0.00044"></path>
<path d="M0.131 0.752 Q0.896 0.892 1.336 0.549" stroke="hsl(120.0,100%,35%)" stroke-width="0.00044"></path>
<path d="M0.131 0.752 Q0.257 0.791 0.361 0.738" stroke="hsl(120.0,100%,35%)" stroke-width="0.00277"></path>
<path d="M0.131 0.752 Q0.981 0.856 1.370 0.464" stroke="hsl(120.0,100%,35%)" stroke-width="0.00015"></path>
<path d="M0.131 0.752 Q0.405 0.831 0.619 0.715" stroke="hsl(120.0,100%,35%)" stroke-width="0.00029"></path>
<path d="M0.131 0.752 Q0.737 1.004 1.361 0.763" stroke="hsl(120.0,100%,35%)" stroke-width="0.00015"></path>
<path d="M0.131 0.752 Q0.826 0.816 1.101 0.491" stroke="hsl(120.0,100%,35%)" stroke-width="0.00029"></path>
<path d="M0.131 0.752 Q1.248 0.755 1.498 0.211" stroke="hsl(120.0,100%,35%)" stroke-width="0.00190"></path>
<path d="M0.131 0.752 Q0.336 0.642 0.164 0.518" stroke="hsl(120.0,100%,35%)" stroke-width="0.00015"></path>
<path d="M0.131 0.752 Q0.902 0.943 1.443 0.609" stroke="hsl(120.0,100%,35%)" stroke-width="0.00015"></path>
<path d="M0.326 0.884 Q0.608 0.858 0.619 0.715" stroke="hsl(240.0,100%,35%)" stroke-width="0.00934"></path>
<path d="M0.326 0.884 Q0.534 0.923 0.657 0.830" stroke="hsl(240.0,100%,35%)" stroke-width="0.02146"></path>
<path d="M0.326 0.884 Q1.450 0.782 1.498 0.211" stroke="hsl(240.0,100%,35%)" stroke-width="0.00015"></path>
<path d="M0.326 0.884 Q0.829 0.744 0.666 0.467" stroke="hsl(240.0,100%,35%)" stroke-width="0.00015"></path>
<path d="M0.326 0.884 Q1.104 0.970 1.443 0.609" stroke="hsl(240.0,100%,35%)" stroke-width="0.00015"></path>
<path d="M1.527 0.602 Q1.469 0.716 1.677 0.769" stroke="hsl(120.0,100%,35%)" stroke-width="0.00569"></path>
<path d="M1.527 0.602 Q1.315 0.650 1.361 0.763" stroke="hsl(120.0,100%,35%)" stroke-width="0.00029"></path>
<path d="M1.527 0.602 Q1.479 0.589 1.443 0.609" stroke="hsl(120.0,100%,35%)" stroke-width="0.00161"></path>
<path d="M1.527 0.602 Q1.474 0.538 1.336 0.549" stroke="hsl(120.0,100%,35%)" stroke-width="0.00015"></path>
<path d="M1.527 0.602 Q1.215 0.595 1.132 0.745" stroke="hsl(120.0,100%,35%)" stroke-width="0.00029"></path>
<path d="M1.527 0.602 Q0.835 0.437 0.361 0.738" stroke="hsl(120.0,100%,35%)" stroke-width="0.00102"></path>
<path d="M1.527 0.602 Q0.701 0.503 0.326 0.884" stroke="hsl(120.0,100%,35%)" stroke-width="0.00015"></path>
<path d="M1.527 0.602 Q1.564 0.458 1.290 0.408" stroke="hsl(120.0,100%,35%)" stroke-width="0.00015"></path>
<path d="M1.677 0.769 Q1.986 0.310 1.158 0.059" stroke="hsl(120.0,100%,35%)" stroke-width="0.00204"></path>
<path d="M1.677 0.769 Q1.735 0.655 1.527 0.602" stroke="hsl(120.0,100%,35%)" stroke-width="0.00394"></path>
<path d="M1.677 0.769 Q1.524 0.703 1.361 0.763" stroke="hsl(120.0,100%,35%)" stroke-width="0.00365"></path>
<path d="M1.677 0.769 Q1.044 0.490 0.361 0.738" stroke="hsl(120.0,100%,35%)" stroke-width="0.00088"></path>
<path d="M1.677 0.769 Q1.808 0.707 1.715 0.629" stroke="hsl(120.0,100%,35%)" stroke-width="0.00613"></path>
<path d="M1.677 0.769 Q1.682 0.591 1.336 0.549" stroke="hsl(120.0,100%,35%)" stroke-width="0.00088"></path>
<path d="M1.677 0.769 Q1.192 0.530 0.619 0.715" stroke="hsl(120.0,100%,35%)" stroke-width="0.00117"></path>
<path d="M1.677 0.769 Q2.034 0.454 1.498 0.211" stroke="hsl(120.0,100%,35%)" stroke-width="0.00088"></path>
<path d="M1.677 0.769 Q1.767 0.555 1.370 0.464" stroke="hsl(120.0,100%,35%)" stroke-width="0.00015"></path>
<path d="M1.677 0.769 Q1.928 0.598 1.650 0.438" stroke="hsl(120.0,100%,35%)" stroke-width="0.00015"></path>
<path d="M1.677 0.769 Q1.858 0.464 1.302 0.309" stroke="hsl(120.0,100%,35%)" stroke-width="0.00015"></path>
<path d="M1.677 0.769 Q1.743 0.633 1.492 0.571" stroke="hsl(120.0,100%,35%)" stroke-width="0.00015"></path>
<path d="M1.677 0.769 Q1.470 0.275 0.461 0.268" stroke="hsl(120.0,100%,35%)" stroke-width="0.00015"></path>
<path d="M1.677 0.769 Q2.017 0.549 1.663 0.335" stroke="hsl(120.0,100%,35%)" stroke-width="0.00015"></path>
<path d="M0.361 0.738 Q0.420 0.663 0.287 0.618" stroke="hsl(120.0,100%,35%)" stroke-width="0.00015"></path>
<path d="M0.361 0.738 Q0.439 0.589 0.164 0.518" stroke="hsl(120.0,100%,35%)" stroke-width="0.00029"></path>
<path d="M0.361 0.738 Q0.509 0.778 0.619 0.715" stroke="hsl(120.0,100%,35%)" stroke-width="0.00015"></path>
<path d="M0.361 0.738 Q1.351 0.702 1.498 0.211" stroke="hsl(120.0,100%,35%)" stroke-width="0.00015"></path>
<path d="M0.361 0.738 Q0.235 0.699 0.131 0.752" stroke="hsl(120.0,100%,35%)" stroke-width="0.00015"></path>
<path d="M0.361 0.738 Q1.125 0.954 1.715 0.629" stroke="hsl(120.0,100%,35%)" stroke-width="0.00015"></path>
<path d="M0.860 0.035 Q0.528 0.499 1.361 0.763" stroke="hsl(0.0,100%,35%)" stroke-width="0.00117"></path>
<path d="M0.860 0.035 Q0.990 0.106 1.158 0.059" stroke="hsl(0.0,100%,35%)" stroke-width="0.00803"></path>
<path d="M0.860 0.035 Q0.862 0.260 1.302 0.309" stroke="hsl(0.0,100%,35%)" stroke-width="0.00015"></path>
<path d="M0.860 0.035 Q0.707 0.068 0.739 0.151" stroke="hsl(0.0,100%,35%)" stroke-width="0.00015"></path>
<path d="M0.860 0.035 Q0.687 0.387 1.336 0.549" stroke="hsl(0.0,100%,35%)" stroke-width="0.00015"></path>
<path d="M0.860 0.035 Q-0.078 0.248 0.131 0.752" stroke="hsl(0.0,100%,35%)" stroke-width="0.00015"></path>
<path d="M0.860 0.035 Q1.021 0.346 1.663 0.335" stroke="hsl(0.0,100%,35%)" stroke-width="0.00015"></path>
<path d="M1.715 0.629 Q1.431 0.625 1.361 0.763" stroke="hsl(120.0,100%,35%)" stroke-width="0.00044"></path>
<path d="M1.715 0.629 Q1.584 0.692 1.677 0.769" stroke="hsl(120.0,100%,35%)" stroke-width="0.00891"></path>
<path d="M1.715 0.629 Q1.173 0.298 0.407 0.490" stroke="hsl(120.0,100%,35%)" stroke-width="0.00102"></path>
<path d="M1.715 0.629 Q1.589 0.513 1.336 0.549" stroke="hsl(120.0,100%,35%)" stroke-width="0.00044"></path>
<path d="M1.715 0.629 Q1.941 0.376 1.498 0.211" stroke="hsl(120.0,100%,35%)" stroke-width="0.00015"></path>
<path d="M1.715 0.629 Q1.668 0.461 1.329 0.446" stroke="hsl(120.0,100%,35%)" stroke-width="0.00015"></path>
<path d="M0.900 0.362 Q0.377 0.298 0.136 0.539" stroke="hsl(120.0,100%,35%)" stroke-width="0.00015"></path>
<path d="M0.900 0.362 Q0.898 0.467 1.101 0.491" stroke="hsl(120.0,100%,35%)" stroke-width="0.00058"></path>
<path d="M0.900 0.362 Q0.478 0.482 0.619 0.715" stroke="hsl(120.0,100%,35%)" stroke-width="0.00015"></path>
<path d="M0.900 0.362 Q0.389 0.367 0.287 0.618" stroke="hsl(120.0,100%,35%)" stroke-width="0.00044"></path>
<path d="M0.900 0.362 Q1.320 0.406 1.498 0.211" stroke="hsl(120.0,100%,35%)" stroke-width="0.00029"></path>
<path d="M0.136 0.539 Q0.167 0.534 0.164 0.518" stroke="hsl(0.0,100%,35%)" stroke-width="0.00161"></path>
<path d="M0.136 0.539 Q0.660 0.603 0.900 0.362" stroke="hsl(0.0,100%,35%)" stroke-width="0.00058"></path>
<path d="M0.136 0.539 Q1.080 0.647 1.498 0.211" stroke="hsl(0.0,100%,35%)" stroke-width="0.00029"></path>
<path d="M0.136 0.539 Q0.459 0.609 0.666 0.467" stroke="hsl(0.0,100%,35%)" stroke-width="0.00015"></path>
<path d="M0.136 0.539 Q0.387 0.420 0.211 0.272" stroke="hsl(0.0,100%,35%)" stroke-width="0.00015"></path>
<path d="M1.904 0.370 Q1.651 0.219 1.302 0.309" stroke="hsl(0.0,100%,35%)" stroke-width="0.00015"></path>
<path d="M1.904 0.370 Q1.920 0.372 1.928 0.365" stroke="hsl(0.0,100%,35%)" stroke-width="0.00015"></path>
<path d="M1.904 0.370 Q1.828 0.209 1.498 0.211" stroke="hsl(0.0,100%,35%)" stroke-width="0.00015"></path>
<path d="M1.072 0.581 Q1.230 0.618 1.336 0.549" stroke="hsl(120.0,100%,35%)" stroke-width="0.00088"></path>
<path d="M1.072 0.581 Q1.582 0.481 1.498 0.211" stroke="hsl(120.0,100%,35%)" stroke-width="0.00044"></path>
<path d="M1.072 0.581 Q1.291 0.660 1.492 0.571" stroke="hsl(120.0,100%,35%)" stroke-width="0.00029"></path>
<path d="M0.948 0.555 Q1.147 0.630 1.336 0.549" stroke="hsl(120.0,100%,35%)" stroke-width="0.00044"></path>
<path d="M0.948 0.555 Q0.883 0.661 1.076 0.716" stroke="hsl(120.0,100%,35%)" stroke-width="0.00015"></path>
<path d="M0.948 0.555 Q0.656 0.569 0.619 0.715" stroke="hsl(120.0,100%,35%)" stroke-width="0.00015"></path>
<path d="M0.661 0.149 Q1.030 0.347 1.498 0.211" stroke="hsl(0.0,100%,35%)" stroke-width="0.00015"></path>
<path d="M0.661 0.149 Q0.982 0.203 1.158 0.059" stroke="hsl(0.0,100%,35%)" stroke-width="0.00029"></path>
<path d="M0.661 0.149 Q0.619 0.196 0.701 0.227" stroke="hsl(0.0,100%,35%)" stroke-width="0.00015"></path>
<path d="M1.922 0.705 Q1.115 0.409 0.361 0.738" stroke="hsl(120.0,100%,35%)" stroke-width="0.00015"></path>
<path d="M1.922 0.705 Q1.843 0.430 1.290 0.408" stroke="hsl(120.0,100%,35%)" stroke-width="0.00015"></path>
<path d="M1.922 0.705 Q2.035 0.647 1.948 0.579" stroke="hsl(120.0,100%,35%)" stroke-width="0.00015"></path>
<path d="M0.235 0.612 Q0.197 0.700 0.361 0.738" stroke="hsl(120.0,100%,35%)" stroke-width="0.00044"></path>
<path d="M0.235 0.612 Q0.071 0.661 0.131 0.752" stroke="hsl(120.0,100%,35%)" stroke-width="0.00044"></path>
<path d="M0.235 0.612 Q0.180 0.679 0.298 0.721" stroke="hsl(120.0,100%,35%)" stroke-width="0.00015"></path>
<path d="M0.988 0.632 Q1.069 0.772 1.361 0.763" stroke="hsl(120.0,100%,35%)" stroke-width="0.00015"></path>
<path d="M0.988 0.632 Q1.228 0.660 1.336 0.549" stroke="hsl(120.0,100%,35%)" stroke-width="0.00058"></path>
<path d="M0.988 0.632 Q1.563 0.619 1.663 0.335" stroke="hsl(120.0,100%,35%)" stroke-width="0.00015"></path>
<path d="M0.988 0.632 Q0.737 0.599 0.619 0.715" stroke="hsl(120.0,100%,35%)" stroke-width="0.00015"></path>
</g>
<text x="1.650" y="0.420" font-size="0.037244" fill="hsl(0.0,100%,20%)">adlai</text>
<text x="0.287" y="0.590" font-size="0.056102" fill="hsl(0.0,100%,20%)">bsalomon</text>
<text x="1.663" y="0.309" font-size="0.052312" fill="hsl(0.0,100%,20%)">robertphillips</text>
<text x="0.407" y="0.469" font-size="0.041549" fill="hsl(0.0,100%,20%)">csmartdalton</text>
<text x="1.329" y="0.438" font-size="0.017581" fill="hsl(120.0,100%,20%)">rmistry</text>
<text x="1.101" y="0.479" font-size="0.023459" fill="hsl(120.0,100%,20%)">borenet</text>
<text x="1.498" y="0.187" font-size="0.046918" fill="hsl(240.0,100%,20%)">mtklein</text>
<text x="0.666" y="0.450" font-size="0.034512" fill="hsl(0.0,100%,20%)">jvanverth</text>
<text x="1.361" y="0.744" font-size="0.037747" fill="hsl(120.0,100%,20%)">reed</text>
<text x="0.619" y="0.676" font-size="0.076903" fill="hsl(240.0,100%,20%)">brianosman</text>
<text x="1.336" y="0.532" font-size="0.033739" fill="hsl(120.0,100%,20%)">kjlubick</text>
<text x="1.302" y="0.290" font-size="0.037697" fill="hsl(0.0,100%,20%)">herb</text>
<text x="1.158" y="0.042" font-size="0.032254" fill="hsl(0.0,100%,20%)">bungeman</text>
<text x="0.164" y="0.497" font-size="0.041047" fill="hsl(0.0,100%,20%)">egdaniel</text>
<text x="0.657" y="0.791" font-size="0.078719" fill="hsl(240.0,100%,20%)">johnstiles</text>
<text x="0.461" y="0.248" font-size="0.039168" fill="hsl(0.0,100%,20%)">michaelludwig</text>
<text x="1.492" y="0.561" font-size="0.020083" fill="hsl(120.0,100%,20%)">nifong</text>
<text x="1.370" y="0.457" font-size="0.015410" fill="hsl(120.0,100%,20%)">jcgregorio</text>
<text x="1.159" y="0.356" font-size="0.012431" fill="hsl(120.0,100%,20%)">westont</text>
<text x="0.131" y="0.744" font-size="0.017256" fill="hsl(120.0,100%,20%)">scroggo</text>
<text x="0.326" y="0.861" font-size="0.044612" fill="hsl(240.0,100%,20%)">ethannicholas</text>
<text x="1.527" y="0.593" font-size="0.018923" fill="hsl(120.0,100%,20%)">jmbetancourt</text>
<text x="1.677" y="0.752" font-size="0.034838" fill="hsl(120.0,100%,20%)">fmalita</text>
<text x="0.361" y="0.730" font-size="0.015039" fill="hsl(120.0,100%,20%)">djsollen</text>
<text x="1.290" y="0.405" font-size="0.006725" fill="hsl(120.0,100%,20%)">hcm</text>
<text x="0.606" y="0.920" font-size="0.001941" fill="hsl(240.0,100%,20%)">dalecurtis</text>
<text x="1.443" y="0.605" font-size="0.008005" fill="hsl(120.0,100%,20%)">stani</text>
<text x="0.927" y="0.093" font-size="0.004341" fill="hsl(0.0,100%,20%)">drott</text>
<text x="0.860" y="0.025" font-size="0.019317" fill="hsl(0.0,100%,20%)">jlavrova</text>
<text x="1.133" y="0.149" font-size="0.001941" fill="hsl(0.0,100%,20%)">xster</text>
<text x="0.864" y="0.206" font-size="0.001941" fill="hsl(0.0,100%,20%)">dmazzoni</text>
<text x="1.715" y="0.618" font-size="0.022807" fill="hsl(120.0,100%,20%)">tdenniston</text>
<text x="0.900" y="0.358" font-size="0.007519" fill="hsl(120.0,100%,20%)">cwallez</text>
<text x="0.136" y="0.534" font-size="0.009106" fill="hsl(0.0,100%,20%)">senorblanco</text>
<text x="1.904" y="0.368" font-size="0.003363" fill="hsl(0.0,100%,20%)">dragonbear</text>
<text x="1.928" y="0.364" font-size="0.001941" fill="hsl(0.0,100%,20%)">guruji</text>
<text x="0.061" y="0.555" font-size="0.001941" fill="hsl(0.0,100%,20%)">sugoi</text>
<text x="0.211" y="0.270" font-size="0.002746" fill="hsl(0.0,100%,20%)">enga</text>
<text x="0.078" y="0.514" font-size="0.001941" fill="hsl(0.0,100%,20%)">emircan</text>
<text x="1.072" y="0.578" font-size="0.006725" fill="hsl(120.0,100%,20%)">elliotevans</text>
<text x="1.148" y="0.203" font-size="0.001941" fill="hsl(0.0,100%,20%)">jiulongw</text>
<text x="0.948" y="0.553" font-size="0.004756" fill="hsl(120.0,100%,20%)">het</text>
<text x="1.076" y="0.712" font-size="0.007264" fill="hsl(120.0,100%,20%)">yjbanov</text>
<text x="0.661" y="0.147" font-size="0.003883" fill="hsl(0.0,100%,20%)">james</text>
<text x="0.701" y="0.226" font-size="0.001941" fill="hsl(0.0,100%,20%)">cbracken</text>
<text x="0.739" y="0.150" font-size="0.001941" fill="hsl(0.0,100%,20%)">jsimmons</text>
<text x="1.132" y="0.744" font-size="0.002746" fill="hsl(120.0,100%,20%)">fuego</text>
<text x="0.383" y="0.169" font-size="0.001941" fill="hsl(0.0,100%,20%)">chinmaygarde</text>
<text x="1.114" y="0.334" font-size="0.007264" fill="hsl(120.0,100%,20%)">lovisolo</text>
<text x="0.307" y="0.201" font-size="0.001941" fill="hsl(0.0,100%,20%)">fs</text>
<text x="1.472" y="0.058" font-size="0.001941" fill="hsl(240.0,100%,20%)">pefoley</text>
<text x="1.589" y="0.548" font-size="0.001941" fill="hsl(120.0,100%,20%)">alecmouri</text>
<text x="1.922" y="0.703" font-size="0.003363" fill="hsl(120.0,100%,20%)">nikolay.igotti</text>
<text x="1.948" y="0.579" font-size="0.001941" fill="hsl(120.0,100%,20%)">jsproch</text>
<text x="1.124" y="0.871" font-size="0.001941" fill="hsl(120.0,100%,20%)">mdebbar</text>
<text x="1.531" y="4.201" font-size="0.001941" fill="hsl(120.0,100%,20%)">thiabaud</text>
<text x="0.546" y="0.567" font-size="0.003363" fill="hsl(120.0,100%,20%)">nigeltao</text>
<text x="0.235" y="0.609" font-size="0.005137" fill="hsl(120.0,100%,20%)">vigneshv</text>
<text x="0.298" y="0.720" font-size="0.001941" fill="hsl(120.0,100%,20%)">chz</text>
<text x="0.988" y="0.629" font-size="0.005137" fill="hsl(120.0,100%,20%)">zepenghu</text>
</svg>
