<svg width="4000" height="2000" viewBox="-0.025 -0.025 2.05 1.05" xmlns="http://www.w3.org/2000/svg">
  <style>
    path {
      fill: none;
      stroke-linecap: round;
      stroke-opacity: 0.4;
    }

    text {
      text-anchor: middle;
      alignment-baseline: hanging;
    }
  </style>
  <g opacity="0.4">
<path d="M1.730 0.739 Q1.686 0.699 1.596 0.712" stroke="hsl(0.0,100%,35%)" stroke-width="0.02065"></path>
<path d="M1.730 0.739 Q1.452 0.627 1.171 0.738" stroke="hsl(0.0,100%,35%)" stroke-width="0.00791"></path>
<path d="M1.730 0.739 Q1.638 0.607 1.360 0.624" stroke="hsl(0.0,100%,35%)" stroke-width="0.00044"></path>
<path d="M1.730 0.739 Q1.318 0.737 1.223 0.938" stroke="hsl(0.0,100%,35%)" stroke-width="0.00059"></path>
<path d="M1.730 0.739 Q1.175 0.713 1.002 0.978" stroke="hsl(0.0,100%,35%)" stroke-width="0.00059"></path>
<path d="M1.730 0.739 Q1.326 0.253 0.289 0.344" stroke="hsl(0.0,100%,35%)" stroke-width="0.00059"></path>
<path d="M1.730 0.739 Q1.257 0.476 0.639 0.649" stroke="hsl(0.0,100%,35%)" stroke-width="0.00088"></path>
<path d="M1.730 0.739 Q1.121 0.276 0.084 0.472" stroke="hsl(0.0,100%,35%)" stroke-width="0.00044"></path>
<path d="M1.730 0.739 Q1.256 0.207 0.114 0.321" stroke="hsl(0.0,100%,35%)" stroke-width="0.00015"></path>
<path d="M1.730 0.739 Q1.994 0.474 1.535 0.287" stroke="hsl(0.0,100%,35%)" stroke-width="0.00059"></path>
<path d="M1.730 0.739 Q1.693 0.618 1.448 0.610" stroke="hsl(0.0,100%,35%)" stroke-width="0.00029"></path>
<path d="M1.730 0.739 Q1.211 0.633 0.890 0.863" stroke="hsl(0.0,100%,35%)" stroke-width="0.00044"></path>
<path d="M1.730 0.739 Q1.301 0.582 0.899 0.756" stroke="hsl(0.0,100%,35%)" stroke-width="0.00044"></path>
<path d="M1.730 0.739 Q1.530 0.533 1.085 0.586" stroke="hsl(0.0,100%,35%)" stroke-width="0.00015"></path>
<path d="M1.730 0.739 Q2.109 0.549 1.821 0.323" stroke="hsl(0.0,100%,35%)" stroke-width="0.00015"></path>
<path d="M1.596 0.712 Q1.441 0.546 1.085 0.586" stroke="hsl(0.0,100%,35%)" stroke-width="0.00410"></path>
<path d="M1.596 0.712 Q1.363 0.640 1.171 0.738" stroke="hsl(0.0,100%,35%)" stroke-width="0.00849"></path>
<path d="M1.596 0.712 Q1.641 0.752 1.730 0.739" stroke="hsl(0.0,100%,35%)" stroke-width="0.01494"></path>
<path d="M1.596 0.712 Q1.905 0.487 1.535 0.287" stroke="hsl(0.0,100%,35%)" stroke-width="0.00029"></path>
<path d="M1.596 0.712 Q1.167 0.220 0.114 0.321" stroke="hsl(0.0,100%,35%)" stroke-width="0.00029"></path>
<path d="M1.596 0.712 Q1.548 0.620 1.360 0.624" stroke="hsl(0.0,100%,35%)" stroke-width="0.00059"></path>
<path d="M1.596 0.712 Q1.086 0.726 1.002 0.978" stroke="hsl(0.0,100%,35%)" stroke-width="0.00088"></path>
<path d="M1.596 0.712 Q1.212 0.595 0.899 0.756" stroke="hsl(0.0,100%,35%)" stroke-width="0.00630"></path>
<path d="M1.596 0.712 Q1.168 0.489 0.639 0.649" stroke="hsl(0.0,100%,35%)" stroke-width="0.00190"></path>
<path d="M1.596 0.712 Q1.221 0.787 1.286 0.987" stroke="hsl(0.0,100%,35%)" stroke-width="0.00015"></path>
<path d="M1.596 0.712 Q1.032 0.289 0.084 0.472" stroke="hsl(0.0,100%,35%)" stroke-width="0.00044"></path>
<path d="M1.596 0.712 Q1.002 0.689 0.828 0.974" stroke="hsl(0.0,100%,35%)" stroke-width="0.00015"></path>
<path d="M1.596 0.712 Q1.179 0.698 1.061 0.899" stroke="hsl(0.0,100%,35%)" stroke-width="0.00015"></path>
<path d="M1.596 0.712 Q1.343 0.143 0.178 0.141" stroke="hsl(0.0,100%,35%)" stroke-width="0.00029"></path>
<path d="M1.596 0.712 Q1.236 0.266 0.289 0.344" stroke="hsl(0.0,100%,35%)" stroke-width="0.00015"></path>
<path d="M1.596 0.712 Q1.441 0.722 1.427 0.800" stroke="hsl(0.0,100%,35%)" stroke-width="0.00015"></path>
<path d="M1.596 0.712 Q1.479 0.750 1.529 0.816" stroke="hsl(0.0,100%,35%)" stroke-width="0.00015"></path>
<path d="M1.171 0.738 Q1.405 0.810 1.596 0.712" stroke="hsl(0.0,100%,35%)" stroke-width="0.01406"></path>
<path d="M1.171 0.738 Q0.976 0.318 0.114 0.321" stroke="hsl(0.0,100%,35%)" stroke-width="0.00469"></path>
<path d="M1.171 0.738 Q0.976 0.587 0.639 0.649" stroke="hsl(0.0,100%,35%)" stroke-width="0.00483"></path>
<path d="M1.171 0.738 Q1.450 0.850 1.730 0.739" stroke="hsl(0.0,100%,35%)" stroke-width="0.00205"></path>
<path d="M1.171 0.738 Q1.235 0.363 0.518 0.250" stroke="hsl(0.0,100%,35%)" stroke-width="0.00044"></path>
<path d="M1.171 0.738 Q1.021 0.693 0.899 0.756" stroke="hsl(0.0,100%,35%)" stroke-width="0.01377"></path>
<path d="M1.171 0.738 Q1.250 0.645 1.085 0.586" stroke="hsl(0.0,100%,35%)" stroke-width="0.00805"></path>
<path d="M1.171 0.738 Q1.921 0.509 1.639 0.093" stroke="hsl(0.0,100%,35%)" stroke-width="0.00029"></path>
<path d="M1.171 0.738 Q1.357 0.719 1.360 0.624" stroke="hsl(0.0,100%,35%)" stroke-width="0.00073"></path>
<path d="M1.171 0.738 Q1.828 0.660 1.821 0.323" stroke="hsl(0.0,100%,35%)" stroke-width="0.00029"></path>
<path d="M1.171 0.738 Q1.045 0.365 0.289 0.344" stroke="hsl(0.0,100%,35%)" stroke-width="0.00132"></path>
<path d="M1.171 0.738 Q0.895 0.824 1.002 0.978" stroke="hsl(0.0,100%,35%)" stroke-width="0.00015"></path>
<path d="M1.171 0.738 Q1.412 0.729 1.448 0.610" stroke="hsl(0.0,100%,35%)" stroke-width="0.00015"></path>
<path d="M1.171 0.738 Q0.841 0.388 0.084 0.472" stroke="hsl(0.0,100%,35%)" stroke-width="0.00059"></path>
<path d="M1.171 0.738 Q1.152 0.241 0.178 0.141" stroke="hsl(0.0,100%,35%)" stroke-width="0.00059"></path>
<path d="M1.171 0.738 Q1.714 0.585 1.535 0.287" stroke="hsl(0.0,100%,35%)" stroke-width="0.00059"></path>
<path d="M1.171 0.738 Q2.000 0.589 1.892 0.152" stroke="hsl(0.0,100%,35%)" stroke-width="0.00073"></path>
<path d="M1.171 0.738 Q1.242 0.304 0.410 0.174" stroke="hsl(0.0,100%,35%)" stroke-width="0.00015"></path>
<path d="M1.360 0.624 Q1.174 0.643 1.171 0.738" stroke="hsl(0.0,100%,35%)" stroke-width="0.01215"></path>
<path d="M1.360 0.624 Q1.212 0.341 0.628 0.351" stroke="hsl(0.0,100%,35%)" stroke-width="0.00176"></path>
<path d="M1.360 0.624 Q0.979 0.492 0.639 0.649" stroke="hsl(0.0,100%,35%)" stroke-width="0.00381"></path>
<path d="M1.360 0.624 Q1.408 0.715 1.596 0.712" stroke="hsl(0.0,100%,35%)" stroke-width="0.00659"></path>
<path d="M1.360 0.624 Q1.253 0.550 1.085 0.586" stroke="hsl(0.0,100%,35%)" stroke-width="0.00688"></path>
<path d="M1.360 0.624 Q1.023 0.598 0.899 0.756" stroke="hsl(0.0,100%,35%)" stroke-width="0.00659"></path>
<path d="M1.360 0.624 Q1.453 0.756 1.730 0.739" stroke="hsl(0.0,100%,35%)" stroke-width="0.00176"></path>
<path d="M1.360 0.624 Q2.003 0.494 1.892 0.152" stroke="hsl(0.0,100%,35%)" stroke-width="0.00015"></path>
<path d="M1.360 0.624 Q0.979 0.223 0.114 0.321" stroke="hsl(0.0,100%,35%)" stroke-width="0.00278"></path>
<path d="M1.360 0.624 Q1.415 0.634 1.448 0.610" stroke="hsl(0.0,100%,35%)" stroke-width="0.00059"></path>
<path d="M1.360 0.624 Q1.717 0.491 1.535 0.287" stroke="hsl(0.0,100%,35%)" stroke-width="0.00146"></path>
<path d="M1.360 0.624 Q0.843 0.293 0.084 0.472" stroke="hsl(0.0,100%,35%)" stroke-width="0.00132"></path>
<path d="M1.360 0.624 Q0.897 0.729 1.002 0.978" stroke="hsl(0.0,100%,35%)" stroke-width="0.00015"></path>
<path d="M1.360 0.624 Q1.048 0.270 0.289 0.344" stroke="hsl(0.0,100%,35%)" stroke-width="0.00029"></path>
<path d="M1.360 0.624 Q1.155 0.146 0.178 0.141" stroke="hsl(0.0,100%,35%)" stroke-width="0.00205"></path>
<path d="M1.360 0.624 Q1.245 0.209 0.410 0.174" stroke="hsl(0.0,100%,35%)" stroke-width="0.00015"></path>
<path d="M1.360 0.624 Q0.933 0.649 0.890 0.863" stroke="hsl(0.0,100%,35%)" stroke-width="0.00015"></path>
<path d="M1.223 0.938 Q1.080 0.914 1.002 0.978" stroke="hsl(120.0,100%,35%)" stroke-width="0.00264"></path>
<path d="M1.223 0.938 Q1.591 0.899 1.596 0.712" stroke="hsl(120.0,100%,35%)" stroke-width="0.00117"></path>
<path d="M1.223 0.938 Q1.301 0.998 1.436 0.973" stroke="hsl(120.0,100%,35%)" stroke-width="0.00117"></path>
<path d="M1.223 0.938 Q1.543 0.808 1.360 0.624" stroke="hsl(120.0,100%,35%)" stroke-width="0.00059"></path>
<path d="M1.223 0.938 Q1.900 0.675 1.535 0.287" stroke="hsl(120.0,100%,35%)" stroke-width="0.00044"></path>
<path d="M1.223 0.938 Q1.357 0.828 1.171 0.738" stroke="hsl(120.0,100%,35%)" stroke-width="0.00015"></path>
<path d="M1.223 0.938 Q2.107 0.599 1.639 0.093" stroke="hsl(120.0,100%,35%)" stroke-width="0.00015"></path>
<path d="M1.223 0.938 Q0.997 0.877 0.828 0.974" stroke="hsl(120.0,100%,35%)" stroke-width="0.00044"></path>
<path d="M1.223 0.938 Q1.231 0.454 0.289 0.344" stroke="hsl(120.0,100%,35%)" stroke-width="0.00015"></path>
<path d="M1.223 0.938 Q2.186 0.679 1.892 0.152" stroke="hsl(120.0,100%,35%)" stroke-width="0.00015"></path>
<path d="M1.002 0.978 Q1.223 1.062 1.436 0.973" stroke="hsl(120.0,100%,35%)" stroke-width="0.00029"></path>
<path d="M1.002 0.978 Q1.821 0.739 1.535 0.287" stroke="hsl(120.0,100%,35%)" stroke-width="0.00059"></path>
<path d="M1.002 0.978 Q1.144 1.002 1.223 0.938" stroke="hsl(120.0,100%,35%)" stroke-width="0.00249"></path>
<path d="M1.002 0.978 Q1.137 1.039 1.286 0.987" stroke="hsl(120.0,100%,35%)" stroke-width="0.00146"></path>
<path d="M1.002 0.978 Q1.152 0.519 0.289 0.344" stroke="hsl(120.0,100%,35%)" stroke-width="0.00029"></path>
<path d="M1.002 0.978 Q2.107 0.743 1.892 0.152" stroke="hsl(120.0,100%,35%)" stroke-width="0.00029"></path>
<path d="M1.002 0.978 Q1.278 0.892 1.171 0.738" stroke="hsl(120.0,100%,35%)" stroke-width="0.00015"></path>
<path d="M0.289 0.344 Q0.220 0.298 0.114 0.321" stroke="hsl(120.0,100%,35%)" stroke-width="0.01347"></path>
<path d="M0.289 0.344 Q0.084 0.367 0.084 0.472" stroke="hsl(120.0,100%,35%)" stroke-width="0.00791"></path>
<path d="M0.289 0.344 Q0.415 0.718 1.171 0.738" stroke="hsl(120.0,100%,35%)" stroke-width="0.00132"></path>
<path d="M0.289 0.344 Q0.601 0.698 1.360 0.624" stroke="hsl(120.0,100%,35%)" stroke-width="0.00073"></path>
<path d="M0.289 0.344 Q0.138 0.804 1.002 0.978" stroke="hsl(120.0,100%,35%)" stroke-width="0.00337"></path>
<path d="M0.289 0.344 Q0.411 0.476 0.695 0.445" stroke="hsl(120.0,100%,35%)" stroke-width="0.00103"></path>
<path d="M0.289 0.344 Q0.273 0.865 1.286 0.987" stroke="hsl(120.0,100%,35%)" stroke-width="0.00029"></path>
<path d="M0.289 0.344 Q0.694 0.830 1.730 0.739" stroke="hsl(120.0,100%,35%)" stroke-width="0.00044"></path>
<path d="M0.289 0.344 Q0.220 0.567 0.639 0.649" stroke="hsl(120.0,100%,35%)" stroke-width="0.00044"></path>
<path d="M0.289 0.344 Q0.656 0.709 1.448 0.610" stroke="hsl(120.0,100%,35%)" stroke-width="0.01391"></path>
<path d="M0.289 0.344 Q0.396 0.221 0.178 0.141" stroke="hsl(120.0,100%,35%)" stroke-width="0.00205"></path>
<path d="M0.289 0.344 Q0.486 0.283 0.410 0.174" stroke="hsl(120.0,100%,35%)" stroke-width="0.00015"></path>
<path d="M0.289 0.344 Q0.494 0.624 1.085 0.586" stroke="hsl(120.0,100%,35%)" stroke-width="0.00059"></path>
<path d="M0.289 0.344 Q0.231 0.776 1.061 0.899" stroke="hsl(120.0,100%,35%)" stroke-width="0.00015"></path>
<path d="M0.289 0.344 Q1.244 0.569 1.892 0.152" stroke="hsl(120.0,100%,35%)" stroke-width="0.00044"></path>
<path d="M0.289 0.344 Q0.174 0.724 0.890 0.863" stroke="hsl(120.0,100%,35%)" stroke-width="0.00073"></path>
<path d="M0.289 0.344 Q0.264 0.672 0.899 0.756" stroke="hsl(120.0,100%,35%)" stroke-width="0.00029"></path>
<path d="M0.289 0.344 Q0.359 0.888 1.436 0.973" stroke="hsl(120.0,100%,35%)" stroke-width="0.00044"></path>
<path d="M0.289 0.344 Q0.155 0.307 0.054 0.364" stroke="hsl(120.0,100%,35%)" stroke-width="0.00015"></path>
<path d="M0.289 0.344 Q0.957 0.565 1.535 0.287" stroke="hsl(120.0,100%,35%)" stroke-width="0.00103"></path>
<path d="M0.289 0.344 Q1.165 0.489 1.639 0.093" stroke="hsl(120.0,100%,35%)" stroke-width="0.00015"></path>
<path d="M0.289 0.344 Q0.198 0.325 0.141 0.365" stroke="hsl(120.0,100%,35%)" stroke-width="0.00015"></path>
<path d="M0.289 0.344 Q0.187 0.350 0.176 0.401" stroke="hsl(120.0,100%,35%)" stroke-width="0.00015"></path>
<path d="M0.639 0.649 Q0.834 0.800 1.171 0.738" stroke="hsl(0.0,100%,35%)" stroke-width="0.00366"></path>
<path d="M0.639 0.649 Q0.683 0.755 0.899 0.756" stroke="hsl(0.0,100%,35%)" stroke-width="0.00820"></path>
<path d="M0.639 0.649 Q1.019 0.781 1.360 0.624" stroke="hsl(0.0,100%,35%)" stroke-width="0.00059"></path>
<path d="M0.639 0.649 Q0.912 0.707 1.085 0.586" stroke="hsl(0.0,100%,35%)" stroke-width="0.00044"></path>
<path d="M0.639 0.649 Q0.814 0.303 0.178 0.141" stroke="hsl(0.0,100%,35%)" stroke-width="0.00132"></path>
<path d="M0.639 0.649 Q0.557 0.886 1.002 0.978" stroke="hsl(0.0,100%,35%)" stroke-width="0.00059"></path>
<path d="M0.639 0.649 Q0.503 0.450 0.084 0.472" stroke="hsl(0.0,100%,35%)" stroke-width="0.00029"></path>
<path d="M0.639 0.649 Q0.638 0.380 0.114 0.321" stroke="hsl(0.0,100%,35%)" stroke-width="0.00308"></path>
<path d="M0.639 0.649 Q1.376 0.647 1.535 0.287" stroke="hsl(0.0,100%,35%)" stroke-width="0.00015"></path>
<path d="M0.639 0.649 Q0.692 0.948 1.286 0.987" stroke="hsl(0.0,100%,35%)" stroke-width="0.00029"></path>
<path d="M0.639 0.649 Q1.663 0.651 1.892 0.152" stroke="hsl(0.0,100%,35%)" stroke-width="0.00015"></path>
<path d="M0.639 0.649 Q1.067 0.872 1.596 0.712" stroke="hsl(0.0,100%,35%)" stroke-width="0.00073"></path>
<path d="M0.639 0.649 Q1.112 0.912 1.730 0.739" stroke="hsl(0.0,100%,35%)" stroke-width="0.00117"></path>
<path d="M0.639 0.649 Q1.191 0.619 1.254 0.342" stroke="hsl(0.0,100%,35%)" stroke-width="0.00015"></path>
<path d="M0.639 0.649 Q0.700 0.910 1.223 0.938" stroke="hsl(0.0,100%,35%)" stroke-width="0.00029"></path>
<path d="M0.639 0.649 Q0.470 0.771 0.672 0.880" stroke="hsl(0.0,100%,35%)" stroke-width="0.00015"></path>
<path d="M0.639 0.649 Q1.074 0.791 1.448 0.610" stroke="hsl(0.0,100%,35%)" stroke-width="0.00029"></path>
<path d="M0.639 0.649 Q0.707 0.427 0.289 0.344" stroke="hsl(0.0,100%,35%)" stroke-width="0.00117"></path>
<path d="M0.639 0.649 Q0.904 0.366 0.410 0.174" stroke="hsl(0.0,100%,35%)" stroke-width="0.00015"></path>
<path d="M0.639 0.649 Q1.343 0.734 1.663 0.409" stroke="hsl(0.0,100%,35%)" stroke-width="0.00015"></path>
<path d="M0.084 0.472 Q0.958 0.670 1.535 0.287" stroke="hsl(120.0,100%,35%)" stroke-width="0.00234"></path>
<path d="M0.084 0.472 Q0.411 0.581 0.695 0.445" stroke="hsl(120.0,100%,35%)" stroke-width="0.00659"></path>
<path d="M0.084 0.472 Q0.453 0.521 0.628 0.351" stroke="hsl(120.0,100%,35%)" stroke-width="0.00044"></path>
<path d="M0.084 0.472 Q0.656 0.814 1.448 0.610" stroke="hsl(120.0,100%,35%)" stroke-width="0.00059"></path>
<path d="M0.084 0.472 Q0.773 0.641 1.254 0.342" stroke="hsl(120.0,100%,35%)" stroke-width="0.00059"></path>
<path d="M0.084 0.472 Q0.231 0.881 1.061 0.899" stroke="hsl(120.0,100%,35%)" stroke-width="0.00220"></path>
<path d="M0.084 0.472 Q0.174 0.829 0.890 0.863" stroke="hsl(120.0,100%,35%)" stroke-width="0.00088"></path>
<path d="M0.084 0.472 Q1.165 0.593 1.639 0.093" stroke="hsl(120.0,100%,35%)" stroke-width="0.00044"></path>
<path d="M0.084 0.472 Q0.415 0.822 1.171 0.738" stroke="hsl(120.0,100%,35%)" stroke-width="0.00322"></path>
<path d="M0.084 0.472 Q0.494 0.729 1.085 0.586" stroke="hsl(120.0,100%,35%)" stroke-width="0.00117"></path>
<path d="M0.084 0.472 Q0.396 0.326 0.178 0.141" stroke="hsl(120.0,100%,35%)" stroke-width="0.00044"></path>
<path d="M0.084 0.472 Q0.220 0.402 0.114 0.321" stroke="hsl(120.0,100%,35%)" stroke-width="0.00088"></path>
<path d="M0.084 0.472 Q0.289 0.449 0.289 0.344" stroke="hsl(120.0,100%,35%)" stroke-width="0.00366"></path>
<path d="M0.084 0.472 Q1.244 0.674 1.892 0.152" stroke="hsl(120.0,100%,35%)" stroke-width="0.00044"></path>
<path d="M0.084 0.472 Q0.649 0.894 1.596 0.712" stroke="hsl(120.0,100%,35%)" stroke-width="0.00073"></path>
<path d="M0.084 0.472 Q1.072 0.745 1.821 0.323" stroke="hsl(120.0,100%,35%)" stroke-width="0.00015"></path>
<path d="M0.084 0.472 Q0.225 0.526 0.360 0.469" stroke="hsl(120.0,100%,35%)" stroke-width="0.00015"></path>
<path d="M0.084 0.472 Q0.601 0.803 1.360 0.624" stroke="hsl(120.0,100%,35%)" stroke-width="0.00015"></path>
<path d="M0.114 0.321 Q0.290 0.244 0.178 0.141" stroke="hsl(240.0,100%,35%)" stroke-width="0.03573"></path>
<path d="M0.114 0.321 Q0.032 0.827 1.002 0.978" stroke="hsl(240.0,100%,35%)" stroke-width="0.00073"></path>
<path d="M0.114 0.321 Q0.114 0.590 0.639 0.649" stroke="hsl(240.0,100%,35%)" stroke-width="0.00073"></path>
<path d="M0.114 0.321 Q0.309 0.741 1.171 0.738" stroke="hsl(240.0,100%,35%)" stroke-width="0.00879"></path>
<path d="M0.114 0.321 Q0.388 0.648 1.085 0.586" stroke="hsl(240.0,100%,35%)" stroke-width="0.00483"></path>
<path d="M0.114 0.321 Q0.380 0.307 0.410 0.174" stroke="hsl(240.0,100%,35%)" stroke-width="0.00483"></path>
<path d="M0.114 0.321 Q0.495 0.722 1.360 0.624" stroke="hsl(240.0,100%,35%)" stroke-width="0.00044"></path>
<path d="M0.114 0.321 Q0.158 0.696 0.899 0.756" stroke="hsl(240.0,100%,35%)" stroke-width="0.00117"></path>
<path d="M0.114 0.321 Q0.550 0.732 1.448 0.610" stroke="hsl(240.0,100%,35%)" stroke-width="0.00059"></path>
<path d="M0.114 0.321 Q0.543 0.813 1.596 0.712" stroke="hsl(240.0,100%,35%)" stroke-width="0.00073"></path>
<path d="M0.114 0.321 Q0.183 0.368 0.289 0.344" stroke="hsl(240.0,100%,35%)" stroke-width="0.01318"></path>
<path d="M0.114 0.321 Q0.305 0.500 0.695 0.445" stroke="hsl(240.0,100%,35%)" stroke-width="0.00059"></path>
<path d="M0.114 0.321 Q0.401 0.357 0.535 0.225" stroke="hsl(240.0,100%,35%)" stroke-width="0.00015"></path>
<path d="M0.114 0.321 Q1.059 0.512 1.639 0.093" stroke="hsl(240.0,100%,35%)" stroke-width="0.00029"></path>
<path d="M0.114 0.321 Q0.851 0.589 1.535 0.287" stroke="hsl(240.0,100%,35%)" stroke-width="0.00220"></path>
<path d="M0.114 0.321 Q-0.022 0.391 0.084 0.472" stroke="hsl(240.0,100%,35%)" stroke-width="0.00117"></path>
<path d="M0.114 0.321 Q1.138 0.592 1.892 0.152" stroke="hsl(240.0,100%,35%)" stroke-width="0.00029"></path>
<path d="M0.114 0.321 Q0.253 0.912 1.436 0.973" stroke="hsl(240.0,100%,35%)" stroke-width="0.00088"></path>
<path d="M0.114 0.321 Q-0.051 0.791 0.828 0.974" stroke="hsl(240.0,100%,35%)" stroke-width="0.00015"></path>
<path d="M0.114 0.321 Q-0.232 0.732 0.494 0.990" stroke="hsl(240.0,100%,35%)" stroke-width="0.00015"></path>
<path d="M1.535 0.287 Q1.650 0.362 1.821 0.323" stroke="hsl(120.0,100%,35%)" stroke-width="0.00718"></path>
<path d="M1.535 0.287 Q0.797 0.020 0.114 0.321" stroke="hsl(120.0,100%,35%)" stroke-width="0.00059"></path>
<path d="M1.535 0.287 Q0.662 0.090 0.084 0.472" stroke="hsl(120.0,100%,35%)" stroke-width="0.00190"></path>
<path d="M1.535 0.287 Q1.233 0.431 1.448 0.610" stroke="hsl(120.0,100%,35%)" stroke-width="0.00059"></path>
<path d="M1.535 0.287 Q1.502 0.374 1.663 0.409" stroke="hsl(120.0,100%,35%)" stroke-width="0.00132"></path>
<path d="M1.535 0.287 Q0.859 0.550 1.223 0.938" stroke="hsl(120.0,100%,35%)" stroke-width="0.00088"></path>
<path d="M1.535 0.287 Q0.716 0.526 1.002 0.978" stroke="hsl(120.0,100%,35%)" stroke-width="0.00264"></path>
<path d="M1.535 0.287 Q1.742 0.211 1.639 0.093" stroke="hsl(120.0,100%,35%)" stroke-width="0.00015"></path>
<path d="M1.535 0.287 Q0.798 0.289 0.639 0.649" stroke="hsl(120.0,100%,35%)" stroke-width="0.00029"></path>
<path d="M1.535 0.287 Q0.809 0.498 1.061 0.899" stroke="hsl(120.0,100%,35%)" stroke-width="0.00044"></path>
<path d="M1.535 0.287 Q1.085 0.056 0.535 0.225" stroke="hsl(120.0,100%,35%)" stroke-width="0.00015"></path>
<path d="M1.535 0.287 Q0.851 0.587 1.286 0.987" stroke="hsl(120.0,100%,35%)" stroke-width="0.00029"></path>
<path d="M1.535 0.287 Q0.752 0.446 0.890 0.863" stroke="hsl(120.0,100%,35%)" stroke-width="0.00088"></path>
<path d="M1.535 0.287 Q0.937 0.610 1.436 0.973" stroke="hsl(120.0,100%,35%)" stroke-width="0.00059"></path>
<path d="M1.535 0.287 Q1.822 0.291 1.892 0.152" stroke="hsl(120.0,100%,35%)" stroke-width="0.00059"></path>
<path d="M1.535 0.287 Q1.350 0.259 1.254 0.342" stroke="hsl(120.0,100%,35%)" stroke-width="0.00088"></path>
<path d="M1.535 0.287 Q0.632 0.489 0.828 0.974" stroke="hsl(120.0,100%,35%)" stroke-width="0.00015"></path>
<path d="M1.535 0.287 Q1.178 0.420 1.360 0.624" stroke="hsl(120.0,100%,35%)" stroke-width="0.00103"></path>
<path d="M1.535 0.287 Q0.993 0.440 1.171 0.738" stroke="hsl(120.0,100%,35%)" stroke-width="0.00015"></path>
<path d="M1.535 0.287 Q0.989 0.198 0.695 0.445" stroke="hsl(120.0,100%,35%)" stroke-width="0.00029"></path>
<path d="M1.535 0.287 Q0.866 0.066 0.289 0.344" stroke="hsl(120.0,100%,35%)" stroke-width="0.00059"></path>
<path d="M1.535 0.287 Q1.680 0.308 1.752 0.242" stroke="hsl(120.0,100%,35%)" stroke-width="0.00015"></path>
<path d="M1.535 0.287 Q1.057 0.065 0.518 0.250" stroke="hsl(120.0,100%,35%)" stroke-width="0.00015"></path>
<path d="M1.448 0.610 Q0.966 0.625 0.890 0.863" stroke="hsl(120.0,100%,35%)" stroke-width="0.00688"></path>
<path d="M1.448 0.610 Q1.722 0.637 1.835 0.509" stroke="hsl(120.0,100%,35%)" stroke-width="0.00015"></path>
<path d="M1.448 0.610 Q1.749 0.466 1.535 0.287" stroke="hsl(120.0,100%,35%)" stroke-width="0.00015"></path>
<path d="M1.448 0.610 Q1.207 0.619 1.171 0.738" stroke="hsl(120.0,100%,35%)" stroke-width="0.00146"></path>
<path d="M1.448 0.610 Q1.012 0.199 0.114 0.321" stroke="hsl(120.0,100%,35%)" stroke-width="0.00073"></path>
<path d="M1.448 0.610 Q1.486 0.731 1.730 0.739" stroke="hsl(120.0,100%,35%)" stroke-width="0.00029"></path>
<path d="M1.448 0.610 Q1.441 0.690 1.596 0.712" stroke="hsl(120.0,100%,35%)" stroke-width="0.01699"></path>
<path d="M1.448 0.610 Q0.876 0.268 0.084 0.472" stroke="hsl(120.0,100%,35%)" stroke-width="0.00073"></path>
<path d="M1.448 0.610 Q1.393 0.599 1.360 0.624" stroke="hsl(120.0,100%,35%)" stroke-width="0.00088"></path>
<path d="M1.448 0.610 Q1.023 0.677 1.061 0.899" stroke="hsl(120.0,100%,35%)" stroke-width="0.00059"></path>
<path d="M1.448 0.610 Q1.285 0.525 1.085 0.586" stroke="hsl(120.0,100%,35%)" stroke-width="0.00220"></path>
<path d="M1.448 0.610 Q1.081 0.245 0.289 0.344" stroke="hsl(120.0,100%,35%)" stroke-width="0.00264"></path>
<path d="M1.448 0.610 Q1.012 0.468 0.639 0.649" stroke="hsl(120.0,100%,35%)" stroke-width="0.00029"></path>
<path d="M1.448 0.610 Q0.847 0.668 0.828 0.974" stroke="hsl(120.0,100%,35%)" stroke-width="0.00015"></path>
<path d="M1.448 0.610 Q1.151 0.789 1.436 0.973" stroke="hsl(120.0,100%,35%)" stroke-width="0.00015"></path>
<path d="M0.890 0.863 Q1.127 0.615 0.695 0.445" stroke="hsl(120.0,100%,35%)" stroke-width="0.00073"></path>
<path d="M0.890 0.863 Q1.372 0.848 1.448 0.610" stroke="hsl(120.0,100%,35%)" stroke-width="0.00600"></path>
<path d="M0.890 0.863 Q0.980 0.812 0.899 0.756" stroke="hsl(120.0,100%,35%)" stroke-width="0.00015"></path>
<path d="M0.890 0.863 Q0.935 0.437 0.114 0.321" stroke="hsl(120.0,100%,35%)" stroke-width="0.00059"></path>
<path d="M0.890 0.863 Q1.005 0.483 0.289 0.344" stroke="hsl(120.0,100%,35%)" stroke-width="0.00615"></path>
<path d="M0.890 0.863 Q1.673 0.704 1.535 0.287" stroke="hsl(120.0,100%,35%)" stroke-width="0.00103"></path>
<path d="M0.890 0.863 Q0.694 0.808 0.543 0.892" stroke="hsl(120.0,100%,35%)" stroke-width="0.00059"></path>
<path d="M0.890 0.863 Q0.800 0.507 0.084 0.472" stroke="hsl(120.0,100%,35%)" stroke-width="0.00176"></path>
<path d="M0.890 0.863 Q1.111 0.360 0.178 0.141" stroke="hsl(120.0,100%,35%)" stroke-width="0.00015"></path>
<path d="M0.890 0.863 Q1.960 0.708 1.892 0.152" stroke="hsl(120.0,100%,35%)" stroke-width="0.00044"></path>
<path d="M0.890 0.863 Q0.947 0.915 1.061 0.899" stroke="hsl(120.0,100%,35%)" stroke-width="0.00117"></path>
<path d="M0.890 0.863 Q0.936 0.706 0.639 0.649" stroke="hsl(120.0,100%,35%)" stroke-width="0.00029"></path>
<path d="M0.890 0.863 Q0.997 0.967 1.223 0.938" stroke="hsl(120.0,100%,35%)" stroke-width="0.00029"></path>
<path d="M0.890 0.863 Q0.803 0.735 0.533 0.749" stroke="hsl(120.0,100%,35%)" stroke-width="0.00015"></path>
<path d="M0.890 0.863 Q1.131 0.857 1.171 0.738" stroke="hsl(120.0,100%,35%)" stroke-width="0.00015"></path>
<path d="M0.890 0.863 Q0.946 0.931 1.089 0.918" stroke="hsl(120.0,100%,35%)" stroke-width="0.00015"></path>
<path d="M0.890 0.863 Q1.881 0.628 1.639 0.093" stroke="hsl(120.0,100%,35%)" stroke-width="0.00015"></path>
<path d="M0.899 0.756 Q1.879 0.653 1.892 0.152" stroke="hsl(0.0,100%,35%)" stroke-width="0.00015"></path>
<path d="M0.899 0.756 Q0.855 0.651 0.639 0.649" stroke="hsl(0.0,100%,35%)" stroke-width="0.00893"></path>
<path d="M0.899 0.756 Q1.050 0.802 1.171 0.738" stroke="hsl(0.0,100%,35%)" stroke-width="0.01098"></path>
<path d="M0.899 0.756 Q1.236 0.782 1.360 0.624" stroke="hsl(0.0,100%,35%)" stroke-width="0.00103"></path>
<path d="M0.899 0.756 Q1.284 0.873 1.596 0.712" stroke="hsl(0.0,100%,35%)" stroke-width="0.00439"></path>
<path d="M0.899 0.756 Q0.855 0.382 0.114 0.321" stroke="hsl(0.0,100%,35%)" stroke-width="0.00278"></path>
<path d="M0.899 0.756 Q1.592 0.649 1.535 0.287" stroke="hsl(0.0,100%,35%)" stroke-width="0.00015"></path>
<path d="M0.899 0.756 Q1.329 0.914 1.730 0.739" stroke="hsl(0.0,100%,35%)" stroke-width="0.00044"></path>
<path d="M0.899 0.756 Q1.031 0.305 0.178 0.141" stroke="hsl(0.0,100%,35%)" stroke-width="0.00059"></path>
<path d="M0.899 0.756 Q0.924 0.428 0.289 0.344" stroke="hsl(0.0,100%,35%)" stroke-width="0.00015"></path>
<path d="M0.899 0.756 Q1.800 0.573 1.639 0.093" stroke="hsl(0.0,100%,35%)" stroke-width="0.00029"></path>
<path d="M0.899 0.756 Q0.965 0.668 0.806 0.616" stroke="hsl(0.0,100%,35%)" stroke-width="0.00015"></path>
<path d="M0.899 0.756 Q1.032 0.635 0.824 0.544" stroke="hsl(0.0,100%,35%)" stroke-width="0.00015"></path>
<path d="M0.899 0.756 Q1.129 0.708 1.085 0.586" stroke="hsl(0.0,100%,35%)" stroke-width="0.00029"></path>
<path d="M0.899 0.756 Q1.121 0.367 0.410 0.174" stroke="hsl(0.0,100%,35%)" stroke-width="0.00029"></path>
<path d="M0.899 0.756 Q1.291 0.793 1.448 0.610" stroke="hsl(0.0,100%,35%)" stroke-width="0.00015"></path>
<path d="M0.899 0.756 Q1.046 0.560 0.695 0.445" stroke="hsl(0.0,100%,35%)" stroke-width="0.00015"></path>
<path d="M0.899 0.756 Q0.770 0.717 0.664 0.771" stroke="hsl(0.0,100%,35%)" stroke-width="0.00029"></path>
<path d="M0.899 0.756 Q0.710 0.740 0.636 0.828" stroke="hsl(0.0,100%,35%)" stroke-width="0.00015"></path>
<path d="M0.899 0.756 Q0.761 0.729 0.677 0.791" stroke="hsl(0.0,100%,35%)" stroke-width="0.00015"></path>
<path d="M0.899 0.756 Q0.908 0.949 1.286 0.987" stroke="hsl(0.0,100%,35%)" stroke-width="0.00015"></path>
<path d="M0.178 0.141 Q0.047 0.593 0.899 0.756" stroke="hsl(240.0,100%,35%)" stroke-width="0.00278"></path>
<path d="M0.178 0.141 Q0.431 0.710 1.596 0.712" stroke="hsl(240.0,100%,35%)" stroke-width="0.00044"></path>
<path d="M0.178 0.141 Q0.002 0.218 0.114 0.321" stroke="hsl(240.0,100%,35%)" stroke-width="0.10778"></path>
<path d="M0.178 0.141 Q0.197 0.638 1.171 0.738" stroke="hsl(240.0,100%,35%)" stroke-width="0.00879"></path>
<path d="M0.178 0.141 Q0.268 0.204 0.410 0.174" stroke="hsl(240.0,100%,35%)" stroke-width="0.03969"></path>
<path d="M0.178 0.141 Q0.014 0.697 1.061 0.899" stroke="hsl(240.0,100%,35%)" stroke-width="0.00029"></path>
<path d="M0.178 0.141 Q0.071 0.265 0.289 0.344" stroke="hsl(240.0,100%,35%)" stroke-width="0.00908"></path>
<path d="M0.178 0.141 Q0.276 0.545 1.085 0.586" stroke="hsl(240.0,100%,35%)" stroke-width="0.00454"></path>
<path d="M0.178 0.141 Q0.002 0.487 0.639 0.649" stroke="hsl(240.0,100%,35%)" stroke-width="0.00103"></path>
<path d="M0.178 0.141 Q0.383 0.619 1.360 0.624" stroke="hsl(240.0,100%,35%)" stroke-width="0.00059"></path>
<path d="M0.178 0.141 Q0.947 0.409 1.639 0.093" stroke="hsl(240.0,100%,35%)" stroke-width="0.00015"></path>
<path d="M0.178 0.141 Q0.476 0.751 1.730 0.739" stroke="hsl(240.0,100%,35%)" stroke-width="0.00059"></path>
<path d="M0.178 0.141 Q0.438 0.630 1.448 0.610" stroke="hsl(240.0,100%,35%)" stroke-width="0.00015"></path>
<path d="M0.178 0.141 Q-0.043 0.645 0.890 0.863" stroke="hsl(240.0,100%,35%)" stroke-width="0.00132"></path>
<path d="M0.178 0.141 Q-0.133 0.288 0.084 0.472" stroke="hsl(240.0,100%,35%)" stroke-width="0.00059"></path>
<path d="M0.178 0.141 Q0.194 0.397 0.695 0.445" stroke="hsl(240.0,100%,35%)" stroke-width="0.00044"></path>
<path d="M0.178 0.141 Q0.056 0.786 1.286 0.987" stroke="hsl(240.0,100%,35%)" stroke-width="0.00029"></path>
<path d="M0.178 0.141 Q-0.163 0.688 0.828 0.974" stroke="hsl(240.0,100%,35%)" stroke-width="0.00029"></path>
<path d="M1.085 0.586 Q0.856 0.634 0.899 0.756" stroke="hsl(0.0,100%,35%)" stroke-width="0.00073"></path>
<path d="M1.085 0.586 Q1.240 0.751 1.596 0.712" stroke="hsl(0.0,100%,35%)" stroke-width="0.00542"></path>
<path d="M1.085 0.586 Q1.006 0.679 1.171 0.738" stroke="hsl(0.0,100%,35%)" stroke-width="0.00718"></path>
<path d="M1.085 0.586 Q0.811 0.259 0.114 0.321" stroke="hsl(0.0,100%,35%)" stroke-width="0.00220"></path>
<path d="M1.085 0.586 Q0.676 0.329 0.084 0.472" stroke="hsl(0.0,100%,35%)" stroke-width="0.00498"></path>
<path d="M1.085 0.586 Q1.192 0.660 1.360 0.624" stroke="hsl(0.0,100%,35%)" stroke-width="0.00264"></path>
<path d="M1.085 0.586 Q1.247 0.670 1.448 0.610" stroke="hsl(0.0,100%,35%)" stroke-width="0.00088"></path>
<path d="M1.085 0.586 Q1.003 0.438 0.695 0.445" stroke="hsl(0.0,100%,35%)" stroke-width="0.00132"></path>
<path d="M1.085 0.586 Q1.012 0.532 0.890 0.556" stroke="hsl(0.0,100%,35%)" stroke-width="0.00015"></path>
<path d="M1.085 0.586 Q1.044 0.377 0.628 0.351" stroke="hsl(0.0,100%,35%)" stroke-width="0.00015"></path>
<path d="M1.085 0.586 Q0.880 0.306 0.289 0.344" stroke="hsl(0.0,100%,35%)" stroke-width="0.00146"></path>
<path d="M1.085 0.586 Q1.756 0.450 1.639 0.093" stroke="hsl(0.0,100%,35%)" stroke-width="0.00073"></path>
<path d="M1.085 0.586 Q0.987 0.182 0.178 0.141" stroke="hsl(0.0,100%,35%)" stroke-width="0.00073"></path>
<path d="M1.085 0.586 Q0.811 0.528 0.639 0.649" stroke="hsl(0.0,100%,35%)" stroke-width="0.00073"></path>
<path d="M1.085 0.586 Q1.549 0.527 1.535 0.287" stroke="hsl(0.0,100%,35%)" stroke-width="0.00029"></path>
<path d="M1.085 0.586 Q1.835 0.530 1.892 0.152" stroke="hsl(0.0,100%,35%)" stroke-width="0.00015"></path>
<path d="M1.821 0.323 Q1.164 0.400 1.171 0.738" stroke="hsl(120.0,100%,35%)" stroke-width="0.00029"></path>
<path d="M1.821 0.323 Q1.993 0.252 1.892 0.152" stroke="hsl(120.0,100%,35%)" stroke-width="0.00029"></path>
<path d="M1.821 0.323 Q1.707 0.248 1.535 0.287" stroke="hsl(120.0,100%,35%)" stroke-width="0.00556"></path>
<path d="M1.821 0.323 Q1.038 0.027 0.289 0.344" stroke="hsl(120.0,100%,35%)" stroke-width="0.00044"></path>
<path d="M1.821 0.323 Q1.350 0.381 1.360 0.624" stroke="hsl(120.0,100%,35%)" stroke-width="0.00044"></path>
<path d="M1.821 0.323 Q1.108 0.571 1.436 0.973" stroke="hsl(120.0,100%,35%)" stroke-width="0.00015"></path>
<path d="M1.821 0.323 Q1.802 0.395 1.939 0.420" stroke="hsl(120.0,100%,35%)" stroke-width="0.00015"></path>
<path d="M1.821 0.323 Q1.914 0.171 1.639 0.093" stroke="hsl(120.0,100%,35%)" stroke-width="0.00029"></path>
<path d="M1.821 0.323 Q1.673 0.335 1.663 0.409" stroke="hsl(120.0,100%,35%)" stroke-width="0.00044"></path>
<path d="M1.821 0.323 Q1.160 0.159 0.695 0.445" stroke="hsl(120.0,100%,35%)" stroke-width="0.00015"></path>
<path d="M1.821 0.323 Q0.980 0.459 1.061 0.899" stroke="hsl(120.0,100%,35%)" stroke-width="0.00015"></path>
<path d="M1.821 0.323 Q1.568 0.300 1.469 0.419" stroke="hsl(120.0,100%,35%)" stroke-width="0.00015"></path>
<path d="M1.821 0.323 Q0.887 0.486 1.002 0.978" stroke="hsl(120.0,100%,35%)" stroke-width="0.00015"></path>
<path d="M1.436 0.973 Q1.770 0.915 1.730 0.739" stroke="hsl(120.0,100%,35%)" stroke-width="0.00015"></path>
<path d="M1.436 0.973 Q1.357 0.913 1.223 0.938" stroke="hsl(120.0,100%,35%)" stroke-width="0.00029"></path>
<path d="M1.436 0.973 Q1.677 0.783 1.360 0.624" stroke="hsl(120.0,100%,35%)" stroke-width="0.00015"></path>
<path d="M1.436 0.973 Q1.215 0.889 1.002 0.978" stroke="hsl(120.0,100%,35%)" stroke-width="0.00190"></path>
<path d="M1.436 0.973 Q1.131 0.852 0.828 0.974" stroke="hsl(120.0,100%,35%)" stroke-width="0.00044"></path>
<path d="M1.436 0.973 Q2.034 0.650 1.535 0.287" stroke="hsl(120.0,100%,35%)" stroke-width="0.00044"></path>
<path d="M1.436 0.973 Q1.488 0.561 0.695 0.445" stroke="hsl(120.0,100%,35%)" stroke-width="0.00029"></path>
<path d="M1.436 0.973 Q1.365 0.429 0.289 0.344" stroke="hsl(120.0,100%,35%)" stroke-width="0.00015"></path>
<path d="M1.436 0.973 Q1.491 0.803 1.171 0.738" stroke="hsl(120.0,100%,35%)" stroke-width="0.00015"></path>
<path d="M1.286 0.987 Q1.971 0.687 1.535 0.287" stroke="hsl(120.0,100%,35%)" stroke-width="0.00073"></path>
<path d="M1.286 0.987 Q1.151 0.926 1.002 0.978" stroke="hsl(120.0,100%,35%)" stroke-width="0.00146"></path>
<path d="M1.286 0.987 Q1.937 0.774 1.663 0.409" stroke="hsl(120.0,100%,35%)" stroke-width="0.00015"></path>
<path d="M1.286 0.987 Q1.302 0.466 0.289 0.344" stroke="hsl(120.0,100%,35%)" stroke-width="0.00015"></path>
<path d="M1.286 0.987 Q1.662 0.911 1.596 0.712" stroke="hsl(120.0,100%,35%)" stroke-width="0.00015"></path>
<path d="M1.286 0.987 Q1.372 1.010 1.436 0.973" stroke="hsl(120.0,100%,35%)" stroke-width="0.00088"></path>
<path d="M1.286 0.987 Q1.466 0.538 0.628 0.351" stroke="hsl(120.0,100%,35%)" stroke-width="0.00015"></path>
<path d="M1.286 0.987 Q1.277 0.794 0.899 0.756" stroke="hsl(120.0,100%,35%)" stroke-width="0.00015"></path>
<path d="M1.892 0.152 Q1.762 0.111 1.652 0.165" stroke="hsl(120.0,100%,35%)" stroke-width="0.00044"></path>
<path d="M1.892 0.152 Q1.605 0.148 1.535 0.287" stroke="hsl(120.0,100%,35%)" stroke-width="0.00044"></path>
<path d="M1.892 0.152 Q1.813 0.072 1.639 0.093" stroke="hsl(120.0,100%,35%)" stroke-width="0.00293"></path>
<path d="M1.892 0.152 Q1.007 0.471 1.436 0.973" stroke="hsl(120.0,100%,35%)" stroke-width="0.00015"></path>
<path d="M1.892 0.152 Q0.868 -0.119 0.114 0.321" stroke="hsl(120.0,100%,35%)" stroke-width="0.00029"></path>
<path d="M1.892 0.152 Q0.786 0.387 1.002 0.978" stroke="hsl(120.0,100%,35%)" stroke-width="0.00029"></path>
<path d="M1.892 0.152 Q0.937 -0.072 0.289 0.344" stroke="hsl(120.0,100%,35%)" stroke-width="0.00205"></path>
<path d="M1.892 0.152 Q0.912 0.256 0.899 0.756" stroke="hsl(120.0,100%,35%)" stroke-width="0.00015"></path>
<path d="M1.892 0.152 Q1.127 -0.074 0.518 0.250" stroke="hsl(120.0,100%,35%)" stroke-width="0.00015"></path>
<path d="M0.410 0.174 Q0.320 0.111 0.178 0.141" stroke="hsl(240.0,100%,35%)" stroke-width="0.01962"></path>
<path d="M0.410 0.174 Q0.144 0.188 0.114 0.321" stroke="hsl(240.0,100%,35%)" stroke-width="0.00835"></path>
<path d="M0.410 0.174 Q0.213 0.235 0.289 0.344" stroke="hsl(240.0,100%,35%)" stroke-width="0.00015"></path>
<path d="M0.410 0.174 Q0.144 0.457 0.639 0.649" stroke="hsl(240.0,100%,35%)" stroke-width="0.00015"></path>
<path d="M0.410 0.174 Q0.403 0.233 0.518 0.250" stroke="hsl(240.0,100%,35%)" stroke-width="0.00015"></path>
<path d="M0.695 0.445 Q0.737 0.385 0.628 0.351" stroke="hsl(120.0,100%,35%)" stroke-width="0.00644"></path>
<path d="M0.695 0.445 Q0.792 0.303 0.535 0.225" stroke="hsl(120.0,100%,35%)" stroke-width="0.00322"></path>
<path d="M0.695 0.445 Q0.368 0.337 0.084 0.472" stroke="hsl(120.0,100%,35%)" stroke-width="0.00351"></path>
<path d="M0.695 0.445 Q1.449 0.458 1.639 0.093" stroke="hsl(120.0,100%,35%)" stroke-width="0.00073"></path>
<path d="M0.695 0.445 Q1.242 0.534 1.535 0.287" stroke="hsl(120.0,100%,35%)" stroke-width="0.00117"></path>
<path d="M0.695 0.445 Q0.504 0.267 0.114 0.321" stroke="hsl(120.0,100%,35%)" stroke-width="0.00117"></path>
<path d="M0.695 0.445 Q0.573 0.313 0.289 0.344" stroke="hsl(120.0,100%,35%)" stroke-width="0.00176"></path>
<path d="M0.695 0.445 Q0.458 0.693 0.890 0.863" stroke="hsl(120.0,100%,35%)" stroke-width="0.00205"></path>
<path d="M0.695 0.445 Q0.643 0.857 1.436 0.973" stroke="hsl(120.0,100%,35%)" stroke-width="0.00015"></path>
<path d="M0.695 0.445 Q0.978 0.799 1.730 0.739" stroke="hsl(120.0,100%,35%)" stroke-width="0.00015"></path>
<path d="M0.695 0.445 Q0.940 0.678 1.448 0.610" stroke="hsl(120.0,100%,35%)" stroke-width="0.00015"></path>
<path d="M0.695 0.445 Q1.356 0.609 1.821 0.323" stroke="hsl(120.0,100%,35%)" stroke-width="0.00015"></path>
<path d="M0.695 0.445 Q0.778 0.593 1.085 0.586" stroke="hsl(120.0,100%,35%)" stroke-width="0.00015"></path>
<path d="M0.695 0.445 Q0.933 0.759 1.596 0.712" stroke="hsl(120.0,100%,35%)" stroke-width="0.00015"></path>
<path d="M0.535 0.225 Q0.438 0.367 0.695 0.445" stroke="hsl(120.0,100%,35%)" stroke-width="0.00483"></path>
<path d="M0.535 0.225 Q0.112 0.258 0.084 0.472" stroke="hsl(120.0,100%,35%)" stroke-width="0.00044"></path>
<path d="M0.535 0.225 Q0.506 0.234 0.518 0.250" stroke="hsl(120.0,100%,35%)" stroke-width="0.00205"></path>
<path d="M0.535 0.225 Q0.985 0.456 1.535 0.287" stroke="hsl(120.0,100%,35%)" stroke-width="0.00015"></path>
<path d="M0.535 0.225 Q0.678 0.255 0.768 0.192" stroke="hsl(120.0,100%,35%)" stroke-width="0.00029"></path>
<path d="M0.535 0.225 Q1.192 0.380 1.639 0.093" stroke="hsl(120.0,100%,35%)" stroke-width="0.00176"></path>
<path d="M0.535 0.225 Q0.513 0.174 0.410 0.174" stroke="hsl(120.0,100%,35%)" stroke-width="0.00015"></path>
<path d="M0.535 0.225 Q0.082 0.658 0.828 0.974" stroke="hsl(120.0,100%,35%)" stroke-width="0.00015"></path>
<path d="M1.639 0.093 Q0.889 0.322 1.171 0.738" stroke="hsl(120.0,100%,35%)" stroke-width="0.00015"></path>
<path d="M1.639 0.093 Q0.738 0.277 0.899 0.756" stroke="hsl(120.0,100%,35%)" stroke-width="0.00029"></path>
<path d="M1.639 0.093 Q0.694 -0.098 0.114 0.321" stroke="hsl(120.0,100%,35%)" stroke-width="0.00015"></path>
<path d="M1.639 0.093 Q0.763 -0.051 0.289 0.344" stroke="hsl(120.0,100%,35%)" stroke-width="0.00044"></path>
<path d="M1.639 0.093 Q1.718 0.173 1.892 0.152" stroke="hsl(120.0,100%,35%)" stroke-width="0.00029"></path>
<path d="M1.639 0.093 Q0.927 0.020 0.628 0.351" stroke="hsl(120.0,100%,35%)" stroke-width="0.00015"></path>
<path d="M1.639 0.093 Q0.648 0.328 0.890 0.863" stroke="hsl(120.0,100%,35%)" stroke-width="0.00029"></path>
<path d="M1.639 0.093 Q0.870 -0.175 0.178 0.141" stroke="hsl(120.0,100%,35%)" stroke-width="0.00029"></path>
<path d="M1.639 0.093 Q0.982 -0.062 0.535 0.225" stroke="hsl(120.0,100%,35%)" stroke-width="0.00015"></path>
<path d="M1.639 0.093 Q0.953 -0.053 0.518 0.250" stroke="hsl(120.0,100%,35%)" stroke-width="0.00015"></path>
<path d="M1.061 0.899 Q0.914 0.490 0.084 0.472" stroke="hsl(120.0,100%,35%)" stroke-width="0.00146"></path>
<path d="M1.061 0.899 Q1.004 0.847 0.890 0.863" stroke="hsl(120.0,100%,35%)" stroke-width="0.00893"></path>
<path d="M1.061 0.899 Q1.486 0.832 1.448 0.610" stroke="hsl(120.0,100%,35%)" stroke-width="0.00015"></path>
<path d="M1.061 0.899 Q1.198 0.900 1.230 0.833" stroke="hsl(120.0,100%,35%)" stroke-width="0.00015"></path>
<path d="M1.061 0.899 Q1.787 0.688 1.535 0.287" stroke="hsl(120.0,100%,35%)" stroke-width="0.00015"></path>
<path d="M1.061 0.899 Q2.074 0.692 1.892 0.152" stroke="hsl(120.0,100%,35%)" stroke-width="0.00015"></path>
<path d="M1.061 0.899 Q1.479 0.912 1.596 0.712" stroke="hsl(120.0,100%,35%)" stroke-width="0.00015"></path>
<path d="M0.628 0.351 Q0.260 0.303 0.084 0.472" stroke="hsl(120.0,100%,35%)" stroke-width="0.00029"></path>
<path d="M0.628 0.351 Q0.587 0.412 0.695 0.445" stroke="hsl(120.0,100%,35%)" stroke-width="0.00893"></path>
<path d="M0.628 0.351 Q0.776 0.634 1.360 0.624" stroke="hsl(120.0,100%,35%)" stroke-width="0.00103"></path>
<path d="M0.628 0.351 Q1.133 0.501 1.535 0.287" stroke="hsl(120.0,100%,35%)" stroke-width="0.00044"></path>
<path d="M0.628 0.351 Q0.464 0.280 0.289 0.344" stroke="hsl(120.0,100%,35%)" stroke-width="0.00015"></path>
<path d="M0.628 0.351 Q0.456 0.764 1.223 0.938" stroke="hsl(120.0,100%,35%)" stroke-width="0.00015"></path>
<path d="M0.563 0.968 Q0.771 0.890 0.664 0.771" stroke="hsl(120.0,100%,35%)" stroke-width="0.00015"></path>
<path d="M0.563 0.968 Q0.774 1.061 1.002 0.978" stroke="hsl(120.0,100%,35%)" stroke-width="0.00059"></path>
<path d="M0.563 0.968 Q0.856 0.555 0.114 0.321" stroke="hsl(120.0,100%,35%)" stroke-width="0.00015"></path>
<path d="M0.563 0.968 Q1.051 0.975 1.171 0.738" stroke="hsl(120.0,100%,35%)" stroke-width="0.00044"></path>
<path d="M0.563 0.968 Q0.925 0.601 0.289 0.344" stroke="hsl(120.0,100%,35%)" stroke-width="0.00029"></path>
<path d="M0.664 0.771 Q0.793 0.811 0.899 0.756" stroke="hsl(0.0,100%,35%)" stroke-width="0.00308"></path>
<path d="M0.664 0.771 Q0.456 0.849 0.563 0.968" stroke="hsl(0.0,100%,35%)" stroke-width="0.00059"></path>
<path d="M0.664 0.771 Q0.818 0.482 0.289 0.344" stroke="hsl(0.0,100%,35%)" stroke-width="0.00029"></path>
<path d="M0.664 0.771 Q0.749 0.705 0.639 0.649" stroke="hsl(0.0,100%,35%)" stroke-width="0.00015"></path>
<path d="M0.664 0.771 Q1.178 0.928 1.596 0.712" stroke="hsl(0.0,100%,35%)" stroke-width="0.00015"></path>
<path d="M0.664 0.771 Q0.926 0.689 0.824 0.544" stroke="hsl(0.0,100%,35%)" stroke-width="0.00015"></path>
<path d="M0.383 0.566 Q0.880 0.801 1.448 0.610" stroke="hsl(120.0,100%,35%)" stroke-width="0.00015"></path>
<path d="M0.383 0.566 Q0.301 0.576 0.303 0.619" stroke="hsl(120.0,100%,35%)" stroke-width="0.00015"></path>
<path d="M0.383 0.566 Q0.513 0.436 0.289 0.344" stroke="hsl(120.0,100%,35%)" stroke-width="0.00044"></path>
<path d="M1.469 0.419 Q1.607 0.366 1.535 0.287" stroke="hsl(120.0,100%,35%)" stroke-width="0.00117"></path>
<path d="M1.469 0.419 Q0.938 0.145 0.289 0.344" stroke="hsl(120.0,100%,35%)" stroke-width="0.00059"></path>
<path d="M1.469 0.419 Q1.721 0.441 1.821 0.323" stroke="hsl(120.0,100%,35%)" stroke-width="0.00029"></path>
<path d="M1.752 0.242 Q1.607 0.221 1.535 0.287" stroke="hsl(120.0,100%,35%)" stroke-width="0.00029"></path>
<path d="M1.752 0.242 Q1.422 0.193 1.254 0.342" stroke="hsl(120.0,100%,35%)" stroke-width="0.00015"></path>
<path d="M1.752 0.242 Q0.869 -0.046 0.114 0.321" stroke="hsl(120.0,100%,35%)" stroke-width="0.00015"></path>
<path d="M1.196 0.224 Q0.646 0.103 0.289 0.344" stroke="hsl(120.0,100%,35%)" stroke-width="0.00015"></path>
<path d="M1.196 0.224 Q0.532 0.483 0.890 0.863" stroke="hsl(120.0,100%,35%)" stroke-width="0.00029"></path>
<path d="M1.196 0.224 Q1.460 -0.064 0.956 -0.256" stroke="hsl(120.0,100%,35%)" stroke-width="0.00015"></path>
<path d="M0.347 0.766 Q1.531 0.688 1.639 0.093" stroke="hsl(120.0,100%,35%)" stroke-width="0.00015"></path>
<path d="M0.347 0.766 Q0.421 0.966 0.828 0.974" stroke="hsl(120.0,100%,35%)" stroke-width="0.00015"></path>
<path d="M0.347 0.766 Q0.299 0.837 0.428 0.876" stroke="hsl(120.0,100%,35%)" stroke-width="0.00015"></path>
<path d="M1.412 0.059 Q1.498 0.121 1.639 0.093" stroke="hsl(120.0,100%,35%)" stroke-width="0.00044"></path>
<path d="M1.412 0.059 Q1.577 0.202 1.892 0.152" stroke="hsl(120.0,100%,35%)" stroke-width="0.00044"></path>
<path d="M1.412 0.059 Q1.807 -0.361 1.074 -0.647" stroke="hsl(120.0,100%,35%)" stroke-width="0.00015"></path>
<path d="M1.670 0.360 Q0.787 0.099 0.084 0.472" stroke="hsl(120.0,100%,35%)" stroke-width="0.00015"></path>
<path d="M1.670 0.360 Q1.660 0.297 1.535 0.287" stroke="hsl(120.0,100%,35%)" stroke-width="0.00103"></path>
<path d="M1.670 0.360 Q1.352 0.521 1.596 0.712" stroke="hsl(120.0,100%,35%)" stroke-width="0.00015"></path>
<path d="M1.670 0.360 Q0.923 0.029 0.114 0.321" stroke="hsl(120.0,100%,35%)" stroke-width="0.00015"></path>
<path d="M1.670 0.360 Q0.992 0.076 0.289 0.344" stroke="hsl(120.0,100%,35%)" stroke-width="0.00015"></path>
</g>
<text x="1.730" y="0.720" font-size="0.037543" fill="hsl(0.0,100%,20%)">adlai</text>
<text x="1.596" y="0.685" font-size="0.052921" fill="hsl(0.0,100%,20%)">robertphillips</text>
<text x="1.171" y="0.710" font-size="0.056792" fill="hsl(0.0,100%,20%)">bsalomon</text>
<text x="1.360" y="0.604" font-size="0.038931" fill="hsl(0.0,100%,20%)">csmartdalton</text>
<text x="1.223" y="0.929" font-size="0.017326" fill="hsl(120.0,100%,20%)">rmistry</text>
<text x="1.002" y="0.966" font-size="0.023277" fill="hsl(120.0,100%,20%)">borenet</text>
<text x="0.289" y="0.320" font-size="0.049341" fill="hsl(120.0,100%,20%)">mtklein</text>
<text x="0.639" y="0.632" font-size="0.034441" fill="hsl(0.0,100%,20%)">jvanverth</text>
<text x="0.084" y="0.454" font-size="0.036455" fill="hsl(120.0,100%,20%)">reed</text>
<text x="0.114" y="0.283" font-size="0.075499" fill="hsl(240.0,100%,20%)">brianosman</text>
<text x="1.535" y="0.271" font-size="0.033416" fill="hsl(120.0,100%,20%)">kjlubick</text>
<text x="1.448" y="0.591" font-size="0.038363" fill="hsl(120.0,100%,20%)">herb</text>
<text x="0.890" y="0.847" font-size="0.032696" fill="hsl(120.0,100%,20%)">bungeman</text>
<text x="0.899" y="0.735" font-size="0.043548" fill="hsl(0.0,100%,20%)">egdaniel</text>
<text x="0.178" y="0.102" font-size="0.077933" fill="hsl(240.0,100%,20%)">johnstiles</text>
<text x="1.085" y="0.566" font-size="0.039723" fill="hsl(0.0,100%,20%)">michaelludwig</text>
<text x="1.821" y="0.313" font-size="0.020519" fill="hsl(120.0,100%,20%)">nifong</text>
<text x="1.436" y="0.966" font-size="0.014944" fill="hsl(120.0,100%,20%)">jcgregorio</text>
<text x="1.286" y="0.981" font-size="0.012977" fill="hsl(120.0,100%,20%)">westont</text>
<text x="1.892" y="0.143" font-size="0.017432" fill="hsl(120.0,100%,20%)">scroggo</text>
<text x="0.410" y="0.152" font-size="0.042998" fill="hsl(240.0,100%,20%)">ethannicholas</text>
<text x="0.695" y="0.428" font-size="0.034013" fill="hsl(120.0,100%,20%)">fmalita</text>
<text x="0.535" y="0.215" font-size="0.018352" fill="hsl(120.0,100%,20%)">jmbetancourt</text>
<text x="1.639" y="0.085" font-size="0.016898" fill="hsl(120.0,100%,20%)">djsollen</text>
<text x="0.828" y="0.970" font-size="0.007159" fill="hsl(120.0,100%,20%)">hcm</text>
<text x="0.494" y="0.989" font-size="0.001913" fill="hsl(240.0,100%,20%)">dalecurtis</text>
<text x="0.518" y="0.245" font-size="0.008768" fill="hsl(120.0,100%,20%)">stani</text>
<text x="0.543" y="0.890" font-size="0.003827" fill="hsl(120.0,100%,20%)">drott</text>
<text x="1.061" y="0.889" font-size="0.020159" fill="hsl(120.0,100%,20%)">jlavrova</text>
<text x="0.533" y="0.748" font-size="0.001913" fill="hsl(120.0,100%,20%)">xster</text>
<text x="1.089" y="0.917" font-size="0.001913" fill="hsl(120.0,100%,20%)">dmazzoni</text>
<text x="0.628" y="0.340" font-size="0.022395" fill="hsl(120.0,100%,20%)">tdenniston</text>
<text x="0.563" y="0.964" font-size="0.007410" fill="hsl(120.0,100%,20%)">cwallez</text>
<text x="0.664" y="0.765" font-size="0.010991" fill="hsl(0.0,100%,20%)">senorblanco</text>
<text x="0.383" y="0.564" font-size="0.004278" fill="hsl(120.0,100%,20%)">dragonbear</text>
<text x="0.303" y="0.618" font-size="0.001913" fill="hsl(120.0,100%,20%)">guruji</text>
<text x="0.806" y="0.615" font-size="0.001913" fill="hsl(0.0,100%,20%)">sugoi</text>
<text x="0.824" y="0.542" font-size="0.002706" fill="hsl(0.0,100%,20%)">enga</text>
<text x="0.636" y="0.827" font-size="0.001913" fill="hsl(0.0,100%,20%)">emircan</text>
<text x="0.677" y="0.790" font-size="0.001913" fill="hsl(0.0,100%,20%)">penghuang</text>
<text x="1.469" y="0.415" font-size="0.007410" fill="hsl(120.0,100%,20%)">elliotevans</text>
<text x="1.835" y="0.508" font-size="0.001913" fill="hsl(120.0,100%,20%)">jiulongw</text>
<text x="1.752" y="0.240" font-size="0.004278" fill="hsl(120.0,100%,20%)">het</text>
<text x="1.254" y="0.339" font-size="0.006628" fill="hsl(120.0,100%,20%)">yjbanov</text>
<text x="1.196" y="0.222" font-size="0.003827" fill="hsl(120.0,100%,20%)">james</text>
<text x="0.956" y="-0.257" font-size="0.001913" fill="hsl(120.0,100%,20%)">cbracken</text>
<text x="1.230" y="0.832" font-size="0.001913" fill="hsl(120.0,100%,20%)">jsimmons</text>
<text x="0.768" y="0.191" font-size="0.002706" fill="hsl(120.0,100%,20%)">fuego</text>
<text x="0.672" y="0.879" font-size="0.001913" fill="hsl(0.0,100%,20%)">chinmaygarde</text>
<text x="1.663" y="0.406" font-size="0.007159" fill="hsl(120.0,100%,20%)">lovisolo</text>
<text x="0.890" y="0.555" font-size="0.001913" fill="hsl(0.0,100%,20%)">fs</text>
<text x="0.054" y="0.363" font-size="0.001913" fill="hsl(120.0,100%,20%)">pefoley</text>
<text x="0.141" y="0.364" font-size="0.001913" fill="hsl(240.0,100%,20%)">vyng</text>
<text x="0.176" y="0.400" font-size="0.001913" fill="hsl(120.0,100%,20%)">shuangshuang.zhou</text>
<text x="1.939" y="0.419" font-size="0.001913" fill="hsl(120.0,100%,20%)">alecmouri</text>
<text x="0.347" y="0.764" font-size="0.003314" fill="hsl(120.0,100%,20%)">nikolay.igotti</text>
<text x="0.428" y="0.875" font-size="0.001913" fill="hsl(120.0,100%,20%)">jsproch</text>
<text x="0.360" y="0.468" font-size="0.001913" fill="hsl(120.0,100%,20%)">thiabaud</text>
<text x="1.427" y="0.799" font-size="0.001913" fill="hsl(0.0,100%,20%)">kobi.robinson</text>
<text x="1.529" y="0.815" font-size="0.001913" fill="hsl(0.0,100%,20%)">trevor.barton</text>
<text x="1.652" y="0.163" font-size="0.003314" fill="hsl(120.0,100%,20%)">nigeltao</text>
<text x="1.412" y="0.056" font-size="0.005062" fill="hsl(120.0,100%,20%)">vigneshv</text>
<text x="1.074" y="-0.648" font-size="0.001913" fill="hsl(120.0,100%,20%)">chz</text>
<text x="1.670" y="0.357" font-size="0.006346" fill="hsl(120.0,100%,20%)">zepenghu</text>
</svg>
