<svg width="4000" height="2000" viewBox="-0.025 -0.025 2.05 1.05" xmlns="http://www.w3.org/2000/svg">
  <style>
    path {
      fill: none;
      stroke-linecap: round;
      stroke-opacity: 0.4;
    }

    text {
      text-anchor: middle;
      alignment-baseline: hanging;
    }
  </style>
  <g opacity="0.4">
<path d="M1.802 0.620 Q2.100 0.468 1.871 0.290" stroke="hsl(0.0,100%,35%)" stroke-width="0.02457"></path>
<path d="M1.802 0.620 Q1.557 0.560 1.386 0.666" stroke="hsl(0.0,100%,35%)" stroke-width="0.02457"></path>
<path d="M1.802 0.620 Q1.370 0.096 0.253 0.192" stroke="hsl(0.0,100%,35%)" stroke-width="0.03685"></path>
<path d="M0.253 0.192 Q0.073 0.209 0.068 0.301" stroke="hsl(0.0,100%,35%)" stroke-width="0.02457"></path>
<path d="M0.253 0.192 Q0.441 0.655 1.386 0.666" stroke="hsl(0.0,100%,35%)" stroke-width="0.01228"></path>
<path d="M0.253 0.192 Q0.686 0.539 1.458 0.404" stroke="hsl(0.0,100%,35%)" stroke-width="0.01228"></path>
<path d="M0.812 0.380 Q0.598 0.554 0.889 0.697" stroke="hsl(180.0,100%,35%)" stroke-width="0.02457"></path>
<path d="M0.812 0.380 Q1.116 0.521 1.458 0.404" stroke="hsl(180.0,100%,35%)" stroke-width="0.04914"></path>
<path d="M0.812 0.380 Q0.915 0.307 0.794 0.240" stroke="hsl(180.0,100%,35%)" stroke-width="0.03685"></path>
<path d="M0.889 0.697 Q0.810 0.785 0.965 0.844" stroke="hsl(180.0,100%,35%)" stroke-width="0.01228"></path>
<path d="M0.889 0.697 Q0.628 0.758 0.691 0.899" stroke="hsl(180.0,100%,35%)" stroke-width="0.01228"></path>
<path d="M0.889 0.697 Q1.104 0.523 0.812 0.380" stroke="hsl(180.0,100%,35%)" stroke-width="0.01228"></path>
<path d="M0.965 0.844 Q1.362 0.508 0.794 0.240" stroke="hsl(180.0,100%,35%)" stroke-width="0.01228"></path>
<path d="M0.965 0.844 Q1.259 0.581 0.812 0.380" stroke="hsl(180.0,100%,35%)" stroke-width="0.01228"></path>
<path d="M0.965 0.844 Q0.783 0.817 0.691 0.899" stroke="hsl(180.0,100%,35%)" stroke-width="0.01228"></path>
<path d="M0.965 0.844 Q1.045 0.755 0.889 0.697" stroke="hsl(180.0,100%,35%)" stroke-width="0.01228"></path>
</g>
<text x="1.802" y="0.584" font-size="0.072008" fill="hsl(0.0,100%,20%)">bungeman</text>
<text x="1.871" y="0.271" font-size="0.038490" fill="hsl(0.0,100%,20%)">drott</text>
<text x="1.386" y="0.642" font-size="0.047140" fill="hsl(0.0,100%,20%)">jlavrova</text>
<text x="0.253" y="0.156" font-size="0.072008" fill="hsl(0.0,100%,20%)">danieldilan</text>
<text x="0.068" y="0.282" font-size="0.038490" fill="hsl(0.0,100%,20%)">fmalita</text>
<text x="1.458" y="0.374" font-size="0.060858" fill="hsl(180.0,100%,20%)">robertphillips</text>
<text x="0.812" y="0.335" font-size="0.090267" fill="hsl(180.0,100%,20%)">jvanverth</text>
<text x="0.889" y="0.663" font-size="0.066667" fill="hsl(180.0,100%,20%)">michaelludwig</text>
<text x="0.794" y="0.213" font-size="0.054433" fill="hsl(180.0,100%,20%)">kjlubick</text>
<text x="0.965" y="0.813" font-size="0.060858" fill="hsl(180.0,100%,20%)">nicolettep</text>
<text x="0.691" y="0.880" font-size="0.038490" fill="hsl(180.0,100%,20%)">egdaniel</text>
</svg>
