<svg width="4000" height="2000" viewBox="-0.025 -0.025 2.05 1.05" xmlns="http://www.w3.org/2000/svg">
  <style>
    path {
      fill: none;
      stroke-linecap: round;
      stroke-opacity: 0.4;
    }

    text {
      text-anchor: middle;
      alignment-baseline: hanging;
    }
  </style>
  <g opacity="0.4">
<path d="M0.561 0.139 Q0.356 0.199 0.429 0.312" stroke="hsl(0.0,100%,35%)" stroke-width="0.02566"></path>
<path d="M0.561 0.139 Q0.246 0.440 0.766 0.660" stroke="hsl(0.0,100%,35%)" stroke-width="0.00342"></path>
<path d="M0.561 0.139 Q0.299 0.738 1.410 0.997" stroke="hsl(0.0,100%,35%)" stroke-width="0.00171"></path>
<path d="M0.561 0.139 Q0.528 0.088 0.421 0.092" stroke="hsl(0.0,100%,35%)" stroke-width="0.01369"></path>
<path d="M0.561 0.139 Q0.163 0.592 0.960 0.885" stroke="hsl(0.0,100%,35%)" stroke-width="0.00342"></path>
<path d="M0.429 0.312 Q0.372 0.851 1.410 0.997" stroke="hsl(0.0,100%,35%)" stroke-width="0.00513"></path>
<path d="M0.429 0.312 Q0.634 0.252 0.561 0.139" stroke="hsl(0.0,100%,35%)" stroke-width="0.00855"></path>
<path d="M0.429 0.312 Q0.504 0.432 0.754 0.421" stroke="hsl(0.0,100%,35%)" stroke-width="0.00513"></path>
<path d="M0.429 0.312 Q0.213 0.463 0.460 0.602" stroke="hsl(0.0,100%,35%)" stroke-width="0.00171"></path>
<path d="M0.429 0.312 Q0.236 0.705 0.960 0.885" stroke="hsl(0.0,100%,35%)" stroke-width="0.00171"></path>
<path d="M0.429 0.312 Q0.455 0.641 1.101 0.701" stroke="hsl(0.0,100%,35%)" stroke-width="0.00342"></path>
<path d="M0.429 0.312 Q0.531 0.883 1.667 0.959" stroke="hsl(0.0,100%,35%)" stroke-width="0.00171"></path>
<path d="M0.429 0.312 Q0.601 0.201 0.421 0.092" stroke="hsl(0.0,100%,35%)" stroke-width="0.00342"></path>
<path d="M0.766 0.660 Q0.683 0.812 0.960 0.885" stroke="hsl(180.0,100%,35%)" stroke-width="0.01026"></path>
<path d="M0.766 0.660 Q0.901 0.747 1.101 0.701" stroke="hsl(180.0,100%,35%)" stroke-width="0.00855"></path>
<path d="M0.766 0.660 Q0.613 0.733 0.721 0.824" stroke="hsl(180.0,100%,35%)" stroke-width="0.01198"></path>
<path d="M0.766 0.660 Q0.876 0.419 0.429 0.312" stroke="hsl(180.0,100%,35%)" stroke-width="0.00513"></path>
<path d="M1.410 0.997 Q1.467 0.458 0.429 0.312" stroke="hsl(0.0,100%,35%)" stroke-width="0.00342"></path>
<path d="M1.410 0.997 Q1.545 0.894 1.376 0.806" stroke="hsl(0.0,100%,35%)" stroke-width="0.00171"></path>
<path d="M1.410 0.997 Q1.569 1.029 1.667 0.959" stroke="hsl(0.0,100%,35%)" stroke-width="0.01540"></path>
<path d="M1.410 0.997 Q1.672 0.398 0.561 0.139" stroke="hsl(0.0,100%,35%)" stroke-width="0.00684"></path>
<path d="M1.410 0.997 Q1.654 0.909 1.536 0.770" stroke="hsl(0.0,100%,35%)" stroke-width="0.00171"></path>
<path d="M1.410 0.997 Q1.204 0.772 0.721 0.824" stroke="hsl(0.0,100%,35%)" stroke-width="0.00342"></path>
<path d="M1.410 0.997 Q1.492 0.787 1.101 0.701" stroke="hsl(0.0,100%,35%)" stroke-width="0.00171"></path>
<path d="M1.410 0.997 Q1.542 0.578 0.754 0.421" stroke="hsl(0.0,100%,35%)" stroke-width="0.00513"></path>
<path d="M0.960 0.885 Q1.044 0.734 0.766 0.660" stroke="hsl(180.0,100%,35%)" stroke-width="0.00342"></path>
<path d="M0.960 0.885 Q0.890 0.807 0.721 0.824" stroke="hsl(180.0,100%,35%)" stroke-width="0.00513"></path>
<path d="M0.960 0.885 Q1.179 0.821 1.101 0.701" stroke="hsl(180.0,100%,35%)" stroke-width="0.00171"></path>
<path d="M1.676 0.797 Q1.516 0.425 0.754 0.421" stroke="hsl(0.0,100%,35%)" stroke-width="0.00171"></path>
<path d="M1.676 0.797 Q1.331 0.547 0.766 0.660" stroke="hsl(0.0,100%,35%)" stroke-width="0.00171"></path>
<path d="M1.676 0.797 Q1.466 0.634 1.101 0.701" stroke="hsl(0.0,100%,35%)" stroke-width="0.00171"></path>
<path d="M1.676 0.797 Q1.384 0.844 1.410 0.997" stroke="hsl(0.0,100%,35%)" stroke-width="0.00171"></path>
<path d="M1.676 0.797 Q1.440 0.305 0.429 0.312" stroke="hsl(0.0,100%,35%)" stroke-width="0.00171"></path>
<path d="M0.754 0.421 Q0.679 0.302 0.429 0.312" stroke="hsl(0.0,100%,35%)" stroke-width="0.00684"></path>
<path d="M0.754 0.421 Q0.622 0.840 1.410 0.997" stroke="hsl(0.0,100%,35%)" stroke-width="0.00171"></path>
<path d="M0.754 0.421 Q0.569 0.543 0.766 0.660" stroke="hsl(0.0,100%,35%)" stroke-width="0.00171"></path>
<path d="M1.101 0.701 Q0.966 0.613 0.766 0.660" stroke="hsl(180.0,100%,35%)" stroke-width="0.00684"></path>
<path d="M1.101 0.701 Q1.225 0.631 1.117 0.556" stroke="hsl(180.0,100%,35%)" stroke-width="0.00342"></path>
<path d="M1.101 0.701 Q1.019 0.910 1.410 0.997" stroke="hsl(180.0,100%,35%)" stroke-width="0.00171"></path>
<path d="M1.101 0.701 Q0.883 0.765 0.960 0.885" stroke="hsl(180.0,100%,35%)" stroke-width="0.00513"></path>
<path d="M1.101 0.701 Q0.812 0.686 0.721 0.824" stroke="hsl(180.0,100%,35%)" stroke-width="0.00171"></path>
<path d="M1.101 0.701 Q1.177 0.943 1.667 0.959" stroke="hsl(180.0,100%,35%)" stroke-width="0.00171"></path>
<path d="M0.838 0.221 Q0.636 0.304 0.754 0.421" stroke="hsl(180.0,100%,35%)" stroke-width="0.00171"></path>
<path d="M0.838 0.221 Q0.561 0.185 0.429 0.312" stroke="hsl(180.0,100%,35%)" stroke-width="0.00171"></path>
<path d="M0.838 0.221 Q0.710 0.444 1.117 0.556" stroke="hsl(180.0,100%,35%)" stroke-width="0.00171"></path>
<path d="M0.721 0.824 Q0.874 0.751 0.766 0.660" stroke="hsl(180.0,100%,35%)" stroke-width="0.00684"></path>
<path d="M0.721 0.824 Q1.009 0.838 1.101 0.701" stroke="hsl(180.0,100%,35%)" stroke-width="0.00171"></path>
<path d="M0.721 0.824 Q0.927 1.048 1.410 0.997" stroke="hsl(180.0,100%,35%)" stroke-width="0.00171"></path>
<path d="M0.721 0.824 Q0.791 0.902 0.960 0.885" stroke="hsl(180.0,100%,35%)" stroke-width="0.00342"></path>
<path d="M0.401 0.566 Q0.720 1.016 1.667 0.959" stroke="hsl(0.0,100%,35%)" stroke-width="0.04106"></path>
<path d="M0.401 0.566 Q0.618 0.445 0.429 0.312" stroke="hsl(0.0,100%,35%)" stroke-width="0.07356"></path>
<path d="M0.401 0.566 Q0.508 0.686 0.766 0.660" stroke="hsl(0.0,100%,35%)" stroke-width="0.00855"></path>
<path d="M0.401 0.566 Q0.693 0.564 0.754 0.421" stroke="hsl(0.0,100%,35%)" stroke-width="0.02395"></path>
<path d="M0.401 0.566 Q0.561 0.983 1.410 0.997" stroke="hsl(0.0,100%,35%)" stroke-width="0.01026"></path>
<path d="M0.401 0.566 Q0.823 0.384 0.561 0.139" stroke="hsl(0.0,100%,35%)" stroke-width="0.00684"></path>
<path d="M0.401 0.566 Q0.790 0.333 0.421 0.092" stroke="hsl(0.0,100%,35%)" stroke-width="0.00171"></path>
<path d="M0.401 0.566 Q0.425 0.837 0.960 0.885" stroke="hsl(0.0,100%,35%)" stroke-width="0.00513"></path>
<path d="M1.175 0.448 Q0.936 0.560 1.101 0.701" stroke="hsl(180.0,100%,35%)" stroke-width="0.01711"></path>
<path d="M1.175 0.448 Q0.801 0.472 0.766 0.660" stroke="hsl(180.0,100%,35%)" stroke-width="0.01026"></path>
<path d="M1.175 0.448 Q1.060 0.490 1.117 0.556" stroke="hsl(180.0,100%,35%)" stroke-width="0.00171"></path>
<path d="M1.175 0.448 Q1.188 0.267 0.838 0.221" stroke="hsl(180.0,100%,35%)" stroke-width="0.00171"></path>
</g>
<text x="0.561" y="0.110" font-size="0.057502" fill="hsl(0.0,100%,20%)">bungeman</text>
<text x="0.429" y="0.271" font-size="0.083762" fill="hsl(0.0,100%,20%)">fmalita</text>
<text x="0.766" y="0.630" font-size="0.060907" fill="hsl(180.0,100%,20%)">michaelludwig</text>
<text x="1.410" y="0.969" font-size="0.054625" fill="hsl(0.0,100%,20%)">kjlubick</text>
<text x="0.421" y="0.077" font-size="0.029784" fill="hsl(0.0,100%,20%)">jlavrova</text>
<text x="0.960" y="0.864" font-size="0.043068" fill="hsl(180.0,100%,20%)">robertphillips</text>
<text x="1.676" y="0.787" font-size="0.020080" fill="hsl(0.0,100%,20%)">ccameron</text>
<text x="0.754" y="0.398" font-size="0.047519" fill="hsl(0.0,100%,20%)">danieldilan</text>
<text x="1.101" y="0.675" font-size="0.051588" fill="hsl(180.0,100%,20%)">nicolettep</text>
<text x="0.460" y="0.598" font-size="0.008980" fill="hsl(0.0,100%,20%)">bwils</text>
<text x="1.667" y="0.933" font-size="0.053128" fill="hsl(0.0,100%,20%)">borenet</text>
<text x="0.838" y="0.212" font-size="0.017961" fill="hsl(180.0,100%,20%)">jreck</text>
<text x="1.117" y="0.547" font-size="0.017961" fill="hsl(180.0,100%,20%)">nscobie</text>
<text x="1.376" y="0.802" font-size="0.008980" fill="hsl(0.0,100%,20%)">lukasza</text>
<text x="1.536" y="0.766" font-size="0.008980" fill="hsl(0.0,100%,20%)">jmbetancourt</text>
<text x="0.721" y="0.803" font-size="0.041153" fill="hsl(180.0,100%,20%)">thomsmit</text>
<text x="0.401" y="0.521" font-size="0.089803" fill="hsl(0.0,100%,20%)">mike</text>
<text x="1.175" y="0.429" font-size="0.038100" fill="hsl(180.0,100%,20%)">syoussefi</text>
</svg>
