<svg width="4000" height="2000" viewBox="-0.025 -0.025 2.05 1.05" xmlns="http://www.w3.org/2000/svg">
  <style>
    path {
      fill: none;
      stroke-linecap: round;
      stroke-opacity: 0.4;
    }

    text {
      text-anchor: middle;
      alignment-baseline: hanging;
    }
  </style>
  <g opacity="0.4">
<path d="M1.885 0.277 Q1.786 0.354 1.916 0.420" stroke="hsl(0.0,100%,35%)" stroke-width="0.00980"></path>
<path d="M1.885 0.277 Q1.301 0.074 0.777 0.314" stroke="hsl(0.0,100%,35%)" stroke-width="0.00098"></path>
<path d="M1.885 0.277 Q1.726 0.116 1.378 0.159" stroke="hsl(0.0,100%,35%)" stroke-width="0.00588"></path>
<path d="M1.885 0.277 Q1.678 0.283 1.644 0.385" stroke="hsl(0.0,100%,35%)" stroke-width="0.00196"></path>
<path d="M1.916 0.420 Q1.431 0.139 0.777 0.314" stroke="hsl(0.0,100%,35%)" stroke-width="0.01078"></path>
<path d="M1.916 0.420 Q1.860 0.487 1.978 0.529" stroke="hsl(0.0,100%,35%)" stroke-width="0.00196"></path>
<path d="M1.916 0.420 Q1.712 0.442 1.712 0.547" stroke="hsl(0.0,100%,35%)" stroke-width="0.00392"></path>
<path d="M1.916 0.420 Q2.015 0.342 1.885 0.277" stroke="hsl(0.0,100%,35%)" stroke-width="0.00588"></path>
<path d="M1.916 0.420 Q1.807 0.348 1.644 0.385" stroke="hsl(0.0,100%,35%)" stroke-width="0.00490"></path>
<path d="M1.916 0.420 Q1.334 0.026 0.437 0.223" stroke="hsl(0.0,100%,35%)" stroke-width="0.00588"></path>
<path d="M1.916 0.420 Q1.647 0.590 1.919 0.758" stroke="hsl(0.0,100%,35%)" stroke-width="0.00098"></path>
<path d="M1.916 0.420 Q1.273 0.623 1.528 0.981" stroke="hsl(0.0,100%,35%)" stroke-width="0.00098"></path>
<path d="M1.916 0.420 Q1.753 0.116 1.124 0.128" stroke="hsl(0.0,100%,35%)" stroke-width="0.00588"></path>
<path d="M1.916 0.420 Q1.606 0.333 1.368 0.465" stroke="hsl(0.0,100%,35%)" stroke-width="0.00098"></path>
<path d="M1.916 0.420 Q1.652 0.115 0.999 0.177" stroke="hsl(0.0,100%,35%)" stroke-width="0.00196"></path>
<path d="M0.777 0.314 Q1.201 0.356 1.378 0.159" stroke="hsl(0.0,100%,35%)" stroke-width="0.00882"></path>
<path d="M0.777 0.314 Q0.951 0.507 1.368 0.465" stroke="hsl(0.0,100%,35%)" stroke-width="0.00098"></path>
<path d="M0.777 0.314 Q0.619 0.797 1.528 0.981" stroke="hsl(0.0,100%,35%)" stroke-width="0.00196"></path>
<path d="M0.777 0.314 Q1.099 0.290 1.124 0.128" stroke="hsl(0.0,100%,35%)" stroke-width="0.00686"></path>
<path d="M0.777 0.314 Q1.261 0.595 1.916 0.420" stroke="hsl(0.0,100%,35%)" stroke-width="0.00098"></path>
<path d="M0.777 0.314 Q1.073 0.391 1.287 0.263" stroke="hsl(0.0,100%,35%)" stroke-width="0.00098"></path>
<path d="M0.777 0.314 Q0.357 0.242 0.124 0.430" stroke="hsl(0.0,100%,35%)" stroke-width="0.00098"></path>
<path d="M1.378 0.159 Q1.537 0.319 1.885 0.277" stroke="hsl(0.0,100%,35%)" stroke-width="0.00294"></path>
<path d="M1.378 0.159 Q1.438 0.397 1.916 0.420" stroke="hsl(0.0,100%,35%)" stroke-width="0.00392"></path>
<path d="M1.378 0.159 Q0.795 0.600 1.528 0.981" stroke="hsl(0.0,100%,35%)" stroke-width="0.00098"></path>
<path d="M1.378 0.159 Q1.275 0.093 1.124 0.128" stroke="hsl(0.0,100%,35%)" stroke-width="0.00196"></path>
<path d="M1.378 0.159 Q1.330 0.325 1.644 0.385" stroke="hsl(0.0,100%,35%)" stroke-width="0.00294"></path>
<path d="M1.644 0.385 Q1.483 0.627 1.919 0.758" stroke="hsl(0.0,100%,35%)" stroke-width="0.00392"></path>
<path d="M1.644 0.385 Q1.443 0.370 1.368 0.465" stroke="hsl(0.0,100%,35%)" stroke-width="0.00784"></path>
<path d="M1.644 0.385 Q1.268 0.176 0.777 0.314" stroke="hsl(0.0,100%,35%)" stroke-width="0.00392"></path>
<path d="M1.644 0.385 Q1.752 0.457 1.916 0.420" stroke="hsl(0.0,100%,35%)" stroke-width="0.00490"></path>
<path d="M1.644 0.385 Q1.281 0.441 1.310 0.630" stroke="hsl(0.0,100%,35%)" stroke-width="0.00392"></path>
<path d="M1.644 0.385 Q1.692 0.219 1.378 0.159" stroke="hsl(0.0,100%,35%)" stroke-width="0.01373"></path>
<path d="M1.644 0.385 Q1.590 0.153 1.124 0.128" stroke="hsl(0.0,100%,35%)" stroke-width="0.00098"></path>
<path d="M1.644 0.385 Q1.285 0.563 1.553 0.777" stroke="hsl(0.0,100%,35%)" stroke-width="0.00098"></path>
<path d="M1.644 0.385 Q1.851 0.379 1.885 0.277" stroke="hsl(0.0,100%,35%)" stroke-width="0.00098"></path>
<path d="M1.919 0.758 Q2.080 0.517 1.644 0.385" stroke="hsl(0.0,100%,35%)" stroke-width="0.00294"></path>
<path d="M1.919 0.758 Q2.189 0.588 1.916 0.420" stroke="hsl(0.0,100%,35%)" stroke-width="0.00098"></path>
<path d="M1.310 0.630 Q1.673 0.575 1.644 0.385" stroke="hsl(0.0,100%,35%)" stroke-width="0.00196"></path>
<path d="M1.310 0.630 Q0.877 0.293 0.124 0.430" stroke="hsl(0.0,100%,35%)" stroke-width="0.00098"></path>
<path d="M1.310 0.630 Q1.297 0.365 0.777 0.314" stroke="hsl(0.0,100%,35%)" stroke-width="0.00098"></path>
<path d="M1.310 0.630 Q1.619 0.342 1.124 0.128" stroke="hsl(0.0,100%,35%)" stroke-width="0.00098"></path>
<path d="M1.310 0.630 Q1.199 0.252 0.437 0.223" stroke="hsl(0.0,100%,35%)" stroke-width="0.00098"></path>
<path d="M1.124 0.128 Q0.705 0.038 0.437 0.223" stroke="hsl(180.0,100%,35%)" stroke-width="0.01078"></path>
<path d="M1.124 0.128 Q1.230 0.499 1.978 0.529" stroke="hsl(180.0,100%,35%)" stroke-width="0.00098"></path>
<path d="M1.124 0.128 Q0.497 0.462 1.010 0.841" stroke="hsl(180.0,100%,35%)" stroke-width="0.00294"></path>
<path d="M1.124 0.128 Q0.644 0.635 1.528 0.981" stroke="hsl(180.0,100%,35%)" stroke-width="0.01667"></path>
<path d="M1.124 0.128 Q0.970 0.194 1.064 0.284" stroke="hsl(180.0,100%,35%)" stroke-width="0.00490"></path>
<path d="M1.124 0.128 Q0.802 0.151 0.777 0.314" stroke="hsl(180.0,100%,35%)" stroke-width="0.00196"></path>
<path d="M1.124 0.128 Q1.022 0.127 0.999 0.177" stroke="hsl(180.0,100%,35%)" stroke-width="0.01275"></path>
<path d="M1.124 0.128 Q1.287 0.432 1.916 0.420" stroke="hsl(180.0,100%,35%)" stroke-width="0.00294"></path>
<path d="M1.124 0.128 Q1.385 0.355 1.885 0.277" stroke="hsl(180.0,100%,35%)" stroke-width="0.00098"></path>
<path d="M1.124 0.128 Q0.815 0.416 1.310 0.630" stroke="hsl(180.0,100%,35%)" stroke-width="0.00098"></path>
<path d="M0.124 0.430 Q0.544 0.503 0.777 0.314" stroke="hsl(0.0,100%,35%)" stroke-width="0.00392"></path>
<path d="M0.124 0.430 Q1.028 0.784 1.916 0.420" stroke="hsl(0.0,100%,35%)" stroke-width="0.00196"></path>
<path d="M0.124 0.430 Q0.866 0.479 1.124 0.128" stroke="hsl(0.0,100%,35%)" stroke-width="0.00196"></path>
<path d="M1.528 0.981 Q1.381 0.807 1.010 0.841" stroke="hsl(180.0,100%,35%)" stroke-width="0.01667"></path>
<path d="M1.528 0.981 Q1.854 0.539 1.064 0.284" stroke="hsl(180.0,100%,35%)" stroke-width="0.00098"></path>
<path d="M1.528 0.981 Q2.008 0.474 1.124 0.128" stroke="hsl(180.0,100%,35%)" stroke-width="0.01863"></path>
<path d="M1.528 0.981 Q1.589 0.384 0.437 0.223" stroke="hsl(180.0,100%,35%)" stroke-width="0.00490"></path>
<path d="M1.528 0.981 Q2.110 0.540 1.378 0.159" stroke="hsl(180.0,100%,35%)" stroke-width="0.00098"></path>
<path d="M1.528 0.981 Q1.907 0.473 0.999 0.177" stroke="hsl(180.0,100%,35%)" stroke-width="0.00588"></path>
<path d="M1.528 0.981 Q2.062 0.706 1.644 0.385" stroke="hsl(180.0,100%,35%)" stroke-width="0.00098"></path>
<path d="M1.528 0.981 Q1.699 0.762 1.310 0.630" stroke="hsl(180.0,100%,35%)" stroke-width="0.00294"></path>
<path d="M1.287 0.263 Q1.476 0.467 1.916 0.420" stroke="hsl(0.0,100%,35%)" stroke-width="0.00098"></path>
<path d="M1.287 0.263 Q1.416 0.229 1.378 0.159" stroke="hsl(0.0,100%,35%)" stroke-width="0.00980"></path>
<path d="M1.287 0.263 Q0.991 0.186 0.777 0.314" stroke="hsl(0.0,100%,35%)" stroke-width="0.00196"></path>
<path d="M1.287 0.263 Q0.894 0.073 0.437 0.223" stroke="hsl(0.0,100%,35%)" stroke-width="0.00098"></path>
<path d="M1.064 0.284 Q1.218 0.218 1.124 0.128" stroke="hsl(180.0,100%,35%)" stroke-width="0.01078"></path>
<path d="M1.064 0.284 Q0.738 0.725 1.528 0.981" stroke="hsl(180.0,100%,35%)" stroke-width="0.00196"></path>
<path d="M1.064 0.284 Q0.799 0.128 0.437 0.223" stroke="hsl(180.0,100%,35%)" stroke-width="0.00196"></path>
<path d="M0.437 0.223 Q1.019 0.617 1.916 0.420" stroke="hsl(180.0,100%,35%)" stroke-width="0.00294"></path>
<path d="M0.437 0.223 Q0.229 0.647 1.010 0.841" stroke="hsl(180.0,100%,35%)" stroke-width="0.00196"></path>
<path d="M0.437 0.223 Q0.963 0.684 1.978 0.529" stroke="hsl(180.0,100%,35%)" stroke-width="0.00098"></path>
<path d="M0.437 0.223 Q0.856 0.313 1.124 0.128" stroke="hsl(180.0,100%,35%)" stroke-width="0.00686"></path>
<path d="M0.437 0.223 Q0.376 0.820 1.528 0.981" stroke="hsl(180.0,100%,35%)" stroke-width="0.00294"></path>
<path d="M0.437 0.223 Q0.547 0.601 1.310 0.630" stroke="hsl(180.0,100%,35%)" stroke-width="0.00098"></path>
<path d="M0.437 0.223 Q0.702 0.379 1.064 0.284" stroke="hsl(180.0,100%,35%)" stroke-width="0.00294"></path>
<path d="M0.437 0.223 Q0.755 0.312 0.999 0.177" stroke="hsl(180.0,100%,35%)" stroke-width="0.00098"></path>
<path d="M0.437 0.223 Q0.959 0.379 1.378 0.159" stroke="hsl(180.0,100%,35%)" stroke-width="0.00098"></path>
<path d="M1.712 0.547 Q1.915 0.524 1.916 0.420" stroke="hsl(0.0,100%,35%)" stroke-width="0.00392"></path>
<path d="M1.712 0.547 Q1.807 0.452 1.644 0.385" stroke="hsl(0.0,100%,35%)" stroke-width="0.00098"></path>
<path d="M1.712 0.547 Q1.753 0.220 1.124 0.128" stroke="hsl(0.0,100%,35%)" stroke-width="0.00196"></path>
<path d="M1.112 0.576 Q1.167 0.643 1.310 0.630" stroke="hsl(0.0,100%,35%)" stroke-width="0.00294"></path>
<path d="M1.112 0.576 Q1.530 0.587 1.644 0.385" stroke="hsl(0.0,100%,35%)" stroke-width="0.00098"></path>
<path d="M1.112 0.576 Q1.154 0.378 0.777 0.314" stroke="hsl(0.0,100%,35%)" stroke-width="0.00098"></path>
<path d="M1.112 0.576 Q1.639 0.659 1.916 0.420" stroke="hsl(0.0,100%,35%)" stroke-width="0.00098"></path>
<path d="M1.010 0.841 Q1.638 0.507 1.124 0.128" stroke="hsl(180.0,100%,35%)" stroke-width="0.00686"></path>
<path d="M1.010 0.841 Q1.158 1.014 1.528 0.981" stroke="hsl(180.0,100%,35%)" stroke-width="0.01569"></path>
<path d="M1.010 0.841 Q1.800 0.811 1.916 0.420" stroke="hsl(180.0,100%,35%)" stroke-width="0.00392"></path>
<path d="M1.010 0.841 Q1.536 0.506 0.999 0.177" stroke="hsl(180.0,100%,35%)" stroke-width="0.00098"></path>
<path d="M0.999 0.177 Q1.100 0.177 1.124 0.128" stroke="hsl(180.0,100%,35%)" stroke-width="0.01863"></path>
<path d="M0.999 0.177 Q0.620 0.684 1.528 0.981" stroke="hsl(180.0,100%,35%)" stroke-width="0.00490"></path>
<path d="M0.999 0.177 Q1.362 0.404 1.885 0.277" stroke="hsl(180.0,100%,35%)" stroke-width="0.00098"></path>
<path d="M0.880 0.454 Q1.365 0.406 1.378 0.159" stroke="hsl(0.0,100%,35%)" stroke-width="0.03529"></path>
<path d="M0.880 0.454 Q1.426 0.644 1.916 0.420" stroke="hsl(0.0,100%,35%)" stroke-width="0.00294"></path>
<path d="M0.880 0.454 Q1.317 0.573 1.644 0.385" stroke="hsl(0.0,100%,35%)" stroke-width="0.01275"></path>
<path d="M0.880 0.454 Q1.162 0.339 0.999 0.177" stroke="hsl(0.0,100%,35%)" stroke-width="0.00098"></path>
<path d="M0.880 0.454 Q0.729 0.443 0.673 0.514" stroke="hsl(0.0,100%,35%)" stroke-width="0.00098"></path>
<path d="M0.880 0.454 Q0.941 0.363 0.777 0.314" stroke="hsl(0.0,100%,35%)" stroke-width="0.01569"></path>
<path d="M0.880 0.454 Q0.573 0.513 0.621 0.676" stroke="hsl(0.0,100%,35%)" stroke-width="0.00098"></path>
<path d="M0.880 0.454 Q1.263 0.340 1.124 0.128" stroke="hsl(0.0,100%,35%)" stroke-width="0.00588"></path>
<path d="M0.880 0.454 Q1.525 0.567 1.885 0.277" stroke="hsl(0.0,100%,35%)" stroke-width="0.00294"></path>
<path d="M1.776 0.680 Q1.569 0.297 0.777 0.314" stroke="hsl(0.0,100%,35%)" stroke-width="0.00098"></path>
<path d="M1.776 0.680 Q1.994 0.340 1.378 0.159" stroke="hsl(0.0,100%,35%)" stroke-width="0.00098"></path>
<path d="M1.776 0.680 Q2.054 0.578 1.916 0.420" stroke="hsl(0.0,100%,35%)" stroke-width="0.00098"></path>
<path d="M0.917 0.065 Q0.970 0.138 1.124 0.128" stroke="hsl(180.0,100%,35%)" stroke-width="0.03039"></path>
<path d="M0.917 0.065 Q0.551 0.048 0.437 0.223" stroke="hsl(180.0,100%,35%)" stroke-width="0.01667"></path>
<path d="M0.917 0.065 Q0.490 0.645 1.528 0.981" stroke="hsl(180.0,100%,35%)" stroke-width="0.00392"></path>
<path d="M0.917 0.065 Q0.869 0.164 1.052 0.209" stroke="hsl(180.0,100%,35%)" stroke-width="0.00098"></path>
<path d="M1.327 0.324 Q1.382 0.185 1.124 0.128" stroke="hsl(180.0,100%,35%)" stroke-width="0.00294"></path>
<path d="M1.327 0.324 Q0.963 0.095 0.437 0.223" stroke="hsl(180.0,100%,35%)" stroke-width="0.00098"></path>
<path d="M1.327 0.324 Q0.755 0.519 1.010 0.841" stroke="hsl(180.0,100%,35%)" stroke-width="0.00098"></path>
<path d="M1.327 0.324 Q0.902 0.693 1.528 0.981" stroke="hsl(180.0,100%,35%)" stroke-width="0.00098"></path>
<path d="M1.327 0.324 Q1.545 0.490 1.916 0.420" stroke="hsl(180.0,100%,35%)" stroke-width="0.00098"></path>
<path d="M1.327 0.324 Q1.280 0.185 0.999 0.177" stroke="hsl(180.0,100%,35%)" stroke-width="0.00098"></path>
</g>
<text x="1.885" y="0.259" font-size="0.035819" fill="hsl(0.0,100%,20%)">borenet</text>
<text x="1.916" y="0.391" font-size="0.057952" fill="hsl(0.0,100%,20%)">kjlubick</text>
<text x="0.777" y="0.289" font-size="0.049526" fill="hsl(0.0,100%,20%)">danieldilan</text>
<text x="1.378" y="0.129" font-size="0.058600" fill="hsl(0.0,100%,20%)">fmalita</text>
<text x="1.644" y="0.359" font-size="0.052485" fill="hsl(0.0,100%,20%)">bungeman</text>
<text x="1.919" y="0.749" font-size="0.018429" fill="hsl(0.0,100%,20%)">drott</text>
<text x="1.368" y="0.455" font-size="0.019426" fill="hsl(0.0,100%,20%)">jlavrova</text>
<text x="1.310" y="0.617" font-size="0.026062" fill="hsl(0.0,100%,20%)">nscobie</text>
<text x="1.124" y="0.087" font-size="0.082645" fill="hsl(180.0,100%,20%)">michaelludwig</text>
<text x="1.553" y="0.774" font-size="0.006143" fill="hsl(0.0,100%,20%)">hcm</text>
<text x="0.124" y="0.421" font-size="0.019426" fill="hsl(0.0,100%,20%)">ccameron</text>
<text x="1.528" y="0.949" font-size="0.062947" fill="hsl(180.0,100%,20%)">robertphillips</text>
<text x="1.287" y="0.251" font-size="0.023792" fill="hsl(0.0,100%,20%)">lukasza</text>
<text x="1.064" y="0.269" font-size="0.030094" fill="hsl(180.0,100%,20%)">jamesgk</text>
<text x="0.437" y="0.198" font-size="0.049906" fill="hsl(180.0,100%,20%)">nicolettep</text>
<text x="1.712" y="0.536" font-size="0.020374" fill="hsl(0.0,100%,20%)">jmbetancourt</text>
<text x="1.112" y="0.568" font-size="0.015047" fill="hsl(0.0,100%,20%)">jreck</text>
<text x="1.010" y="0.819" font-size="0.043869" fill="hsl(180.0,100%,20%)">jvanverth</text>
<text x="0.999" y="0.155" font-size="0.043437" fill="hsl(180.0,100%,20%)">thomsmit</text>
<text x="1.978" y="0.523" font-size="0.012286" fill="hsl(0.0,100%,20%)">egdaniel</text>
<text x="0.880" y="0.427" font-size="0.054944" fill="hsl(0.0,100%,20%)">mike</text>
<text x="0.673" y="0.511" font-size="0.006143" fill="hsl(0.0,100%,20%)">bwils</text>
<text x="0.621" y="0.673" font-size="0.006143" fill="hsl(0.0,100%,20%)">sharaks</text>
<text x="1.776" y="0.675" font-size="0.010640" fill="hsl(0.0,100%,20%)">sam</text>
<text x="0.917" y="0.043" font-size="0.044721" fill="hsl(180.0,100%,20%)">syoussefi</text>
<text x="1.052" y="0.206" font-size="0.006143" fill="hsl(180.0,100%,20%)">brettos</text>
<text x="1.327" y="0.315" font-size="0.017375" fill="hsl(180.0,100%,20%)">zengyonghust</text>
</svg>
