<svg width="4000" height="2000" viewBox="-0.025 -0.025 2.05 1.05" xmlns="http://www.w3.org/2000/svg">
  <style>
    path {
      fill: none;
      stroke-linecap: round;
      stroke-opacity: 0.4;
    }

    text {
      text-anchor: middle;
      alignment-baseline: hanging;
    }
  </style>
  <g opacity="0.4">
<path d="M1.149 0.122 Q0.659 0.364 1.025 0.656" stroke="hsl(0.0,100%,35%)" stroke-width="0.00046"></path>
<path d="M1.149 0.122 Q0.984 0.370 1.433 0.505" stroke="hsl(0.0,100%,35%)" stroke-width="0.00598"></path>
<path d="M1.149 0.122 Q1.026 0.035 0.831 0.076" stroke="hsl(0.0,100%,35%)" stroke-width="0.00843"></path>
<path d="M1.149 0.122 Q0.062 0.346 0.261 0.926" stroke="hsl(0.0,100%,35%)" stroke-width="0.00123"></path>
<path d="M1.149 0.122 Q0.324 0.262 0.417 0.695" stroke="hsl(0.0,100%,35%)" stroke-width="0.00874"></path>
<path d="M1.149 0.122 Q0.819 0.097 0.700 0.253" stroke="hsl(0.0,100%,35%)" stroke-width="0.00353"></path>
<path d="M1.149 0.122 Q0.937 0.416 1.465 0.583" stroke="hsl(0.0,100%,35%)" stroke-width="0.00031"></path>
<path d="M1.149 0.122 Q0.870 0.331 1.218 0.513" stroke="hsl(0.0,100%,35%)" stroke-width="0.00092"></path>
<path d="M1.149 0.122 Q0.146 0.282 0.238 0.806" stroke="hsl(0.0,100%,35%)" stroke-width="0.00015"></path>
<path d="M1.149 0.122 Q0.193 0.171 0.081 0.648" stroke="hsl(0.0,100%,35%)" stroke-width="0.00015"></path>
<path d="M1.149 0.122 Q0.725 0.245 0.872 0.478" stroke="hsl(0.0,100%,35%)" stroke-width="0.00046"></path>
<path d="M1.025 0.656 Q0.690 0.554 0.417 0.695" stroke="hsl(0.0,100%,35%)" stroke-width="0.00414"></path>
<path d="M1.025 0.656 Q0.814 0.409 0.286 0.458" stroke="hsl(0.0,100%,35%)" stroke-width="0.00276"></path>
<path d="M1.025 0.656 Q1.515 0.414 1.149 0.122" stroke="hsl(0.0,100%,35%)" stroke-width="0.00015"></path>
<path d="M1.025 0.656 Q1.236 0.623 1.218 0.513" stroke="hsl(0.0,100%,35%)" stroke-width="0.00199"></path>
<path d="M1.025 0.656 Q1.392 0.327 0.831 0.076" stroke="hsl(0.0,100%,35%)" stroke-width="0.00215"></path>
<path d="M1.025 0.656 Q1.350 0.662 1.433 0.505" stroke="hsl(0.0,100%,35%)" stroke-width="0.00184"></path>
<path d="M1.025 0.656 Q0.428 0.638 0.261 0.926" stroke="hsl(0.0,100%,35%)" stroke-width="0.00077"></path>
<path d="M1.025 0.656 Q1.185 0.390 0.700 0.253" stroke="hsl(0.0,100%,35%)" stroke-width="0.00077"></path>
<path d="M1.025 0.656 Q0.513 0.698 0.483 0.957" stroke="hsl(0.0,100%,35%)" stroke-width="0.00015"></path>
<path d="M1.025 0.656 Q1.303 0.708 1.465 0.583" stroke="hsl(0.0,100%,35%)" stroke-width="0.00046"></path>
<path d="M1.025 0.656 Q1.012 0.873 1.432 0.927" stroke="hsl(0.0,100%,35%)" stroke-width="0.00015"></path>
<path d="M1.025 0.656 Q1.091 0.537 0.872 0.478" stroke="hsl(0.0,100%,35%)" stroke-width="0.00015"></path>
<path d="M1.025 0.656 Q1.510 0.526 1.362 0.260" stroke="hsl(0.0,100%,35%)" stroke-width="0.00015"></path>
<path d="M1.433 0.505 Q0.773 0.397 0.417 0.695" stroke="hsl(0.0,100%,35%)" stroke-width="0.00675"></path>
<path d="M1.433 0.505 Q1.268 0.232 0.700 0.253" stroke="hsl(0.0,100%,35%)" stroke-width="0.00567"></path>
<path d="M1.433 0.505 Q1.108 0.499 1.025 0.656" stroke="hsl(0.0,100%,35%)" stroke-width="0.00276"></path>
<path d="M1.433 0.505 Q0.897 0.252 0.286 0.458" stroke="hsl(0.0,100%,35%)" stroke-width="0.00813"></path>
<path d="M1.433 0.505 Q1.597 0.256 1.149 0.122" stroke="hsl(0.0,100%,35%)" stroke-width="0.00307"></path>
<path d="M1.433 0.505 Q1.319 0.466 1.218 0.513" stroke="hsl(0.0,100%,35%)" stroke-width="0.00537"></path>
<path d="M1.433 0.505 Q1.386 0.551 1.465 0.583" stroke="hsl(0.0,100%,35%)" stroke-width="0.00644"></path>
<path d="M1.433 0.505 Q0.510 0.481 0.261 0.926" stroke="hsl(0.0,100%,35%)" stroke-width="0.00092"></path>
<path d="M1.433 0.505 Q1.475 0.170 0.831 0.076" stroke="hsl(0.0,100%,35%)" stroke-width="0.00138"></path>
<path d="M1.433 0.505 Q1.174 0.379 0.872 0.478" stroke="hsl(0.0,100%,35%)" stroke-width="0.00031"></path>
<path d="M1.433 0.505 Q1.086 0.291 0.592 0.413" stroke="hsl(0.0,100%,35%)" stroke-width="0.00015"></path>
<path d="M1.433 0.505 Q0.873 0.498 0.736 0.769" stroke="hsl(0.0,100%,35%)" stroke-width="0.00077"></path>
<path d="M1.433 0.505 Q0.642 0.306 0.081 0.648" stroke="hsl(0.0,100%,35%)" stroke-width="0.00153"></path>
<path d="M1.433 0.505 Q1.616 0.311 1.278 0.179" stroke="hsl(0.0,100%,35%)" stroke-width="0.00031"></path>
<path d="M1.433 0.505 Q1.639 0.522 1.717 0.425" stroke="hsl(0.0,100%,35%)" stroke-width="0.00015"></path>
<path d="M1.433 0.505 Q1.409 0.218 0.843 0.167" stroke="hsl(0.0,100%,35%)" stroke-width="0.00077"></path>
<path d="M1.433 0.505 Q0.711 0.495 0.533 0.844" stroke="hsl(0.0,100%,35%)" stroke-width="0.00015"></path>
<path d="M0.831 0.076 Q0.624 0.138 0.700 0.253" stroke="hsl(0.0,100%,35%)" stroke-width="0.07941"></path>
<path d="M0.831 0.076 Q-0.133 0.387 0.261 0.926" stroke="hsl(0.0,100%,35%)" stroke-width="0.01058"></path>
<path d="M0.831 0.076 Q0.464 0.405 1.025 0.656" stroke="hsl(0.0,100%,35%)" stroke-width="0.00414"></path>
<path d="M0.831 0.076 Q0.742 0.457 1.465 0.583" stroke="hsl(0.0,100%,35%)" stroke-width="0.00721"></path>
<path d="M0.831 0.076 Q0.129 0.303 0.417 0.695" stroke="hsl(0.0,100%,35%)" stroke-width="0.01027"></path>
<path d="M0.831 0.076 Q0.675 0.372 1.218 0.513" stroke="hsl(0.0,100%,35%)" stroke-width="0.00383"></path>
<path d="M0.831 0.076 Q0.789 0.411 1.433 0.505" stroke="hsl(0.0,100%,35%)" stroke-width="0.00506"></path>
<path d="M0.831 0.076 Q-0.002 0.212 0.081 0.648" stroke="hsl(0.0,100%,35%)" stroke-width="0.01012"></path>
<path d="M0.831 0.076 Q0.530 0.286 0.872 0.478" stroke="hsl(0.0,100%,35%)" stroke-width="0.00138"></path>
<path d="M0.831 0.076 Q0.954 0.163 1.149 0.122" stroke="hsl(0.0,100%,35%)" stroke-width="0.03173"></path>
<path d="M0.831 0.076 Q0.253 0.158 0.286 0.458" stroke="hsl(0.0,100%,35%)" stroke-width="0.00245"></path>
<path d="M0.831 0.076 Q0.532 0.567 1.424 0.821" stroke="hsl(0.0,100%,35%)" stroke-width="0.00015"></path>
<path d="M0.831 0.076 Q0.949 0.275 1.362 0.260" stroke="hsl(0.0,100%,35%)" stroke-width="0.00092"></path>
<path d="M0.831 0.076 Q0.893 0.145 1.041 0.130" stroke="hsl(0.0,100%,35%)" stroke-width="0.00077"></path>
<path d="M0.831 0.076 Q-0.048 0.447 0.483 0.957" stroke="hsl(0.0,100%,35%)" stroke-width="0.00138"></path>
<path d="M0.831 0.076 Q0.973 0.217 1.278 0.179" stroke="hsl(0.0,100%,35%)" stroke-width="0.00077"></path>
<path d="M0.831 0.076 Q0.451 0.622 1.432 0.927" stroke="hsl(0.0,100%,35%)" stroke-width="0.00015"></path>
<path d="M0.831 0.076 Q0.229 0.404 0.736 0.769" stroke="hsl(0.0,100%,35%)" stroke-width="0.00077"></path>
<path d="M0.831 0.076 Q0.067 0.401 0.533 0.844" stroke="hsl(0.0,100%,35%)" stroke-width="0.00031"></path>
<path d="M0.831 0.076 Q-0.050 0.323 0.238 0.806" stroke="hsl(0.0,100%,35%)" stroke-width="0.00015"></path>
<path d="M0.831 0.076 Q0.097 0.490 0.744 0.939" stroke="hsl(0.0,100%,35%)" stroke-width="0.00015"></path>
<path d="M0.831 0.076 Q0.442 0.197 0.592 0.413" stroke="hsl(0.0,100%,35%)" stroke-width="0.00046"></path>
<path d="M0.831 0.076 Q0.995 0.428 1.717 0.425" stroke="hsl(0.0,100%,35%)" stroke-width="0.00015"></path>
<path d="M0.831 0.076 Q0.765 0.124 0.843 0.167" stroke="hsl(0.0,100%,35%)" stroke-width="0.00107"></path>
<path d="M0.831 0.076 Q0.040 0.362 0.423 0.810" stroke="hsl(0.0,100%,35%)" stroke-width="0.00015"></path>
<path d="M0.261 0.926 Q0.845 1.161 1.432 0.927" stroke="hsl(180.0,100%,35%)" stroke-width="0.00368"></path>
<path d="M0.261 0.926 Q1.019 0.677 0.700 0.253" stroke="hsl(180.0,100%,35%)" stroke-width="0.02085"></path>
<path d="M0.261 0.926 Q0.925 0.824 0.872 0.478" stroke="hsl(180.0,100%,35%)" stroke-width="0.01502"></path>
<path d="M0.261 0.926 Q0.393 0.751 0.081 0.648" stroke="hsl(180.0,100%,35%)" stroke-width="0.00751"></path>
<path d="M0.261 0.926 Q0.836 0.735 0.592 0.413" stroke="hsl(180.0,100%,35%)" stroke-width="0.00107"></path>
<path d="M0.261 0.926 Q1.070 0.910 1.218 0.513" stroke="hsl(180.0,100%,35%)" stroke-width="0.00307"></path>
<path d="M0.261 0.926 Q1.225 0.615 0.831 0.076" stroke="hsl(180.0,100%,35%)" stroke-width="0.00859"></path>
<path d="M0.261 0.926 Q0.345 0.861 0.238 0.806" stroke="hsl(180.0,100%,35%)" stroke-width="0.00337"></path>
<path d="M0.261 0.926 Q1.367 0.756 1.278 0.179" stroke="hsl(180.0,100%,35%)" stroke-width="0.00245"></path>
<path d="M0.261 0.926 Q0.492 1.029 0.744 0.939" stroke="hsl(180.0,100%,35%)" stroke-width="0.00061"></path>
<path d="M0.261 0.926 Q0.647 0.697 0.286 0.458" stroke="hsl(180.0,100%,35%)" stroke-width="0.00138"></path>
<path d="M0.261 0.926 Q0.958 0.769 0.805 0.395" stroke="hsl(180.0,100%,35%)" stroke-width="0.00138"></path>
<path d="M0.261 0.926 Q1.184 0.950 1.433 0.505" stroke="hsl(180.0,100%,35%)" stroke-width="0.00245"></path>
<path d="M0.261 0.926 Q0.434 0.900 0.423 0.810" stroke="hsl(180.0,100%,35%)" stroke-width="0.00077"></path>
<path d="M0.261 0.926 Q0.347 0.986 0.483 0.957" stroke="hsl(180.0,100%,35%)" stroke-width="0.00169"></path>
<path d="M0.261 0.926 Q0.523 0.842 0.417 0.695" stroke="hsl(180.0,100%,35%)" stroke-width="0.00951"></path>
<path d="M0.261 0.926 Q1.348 0.701 1.149 0.122" stroke="hsl(180.0,100%,35%)" stroke-width="0.00092"></path>
<path d="M0.261 0.926 Q1.137 0.995 1.465 0.583" stroke="hsl(180.0,100%,35%)" stroke-width="0.00107"></path>
<path d="M0.261 0.926 Q0.623 0.942 0.736 0.769" stroke="hsl(180.0,100%,35%)" stroke-width="0.00153"></path>
<path d="M0.261 0.926 Q1.344 0.813 1.362 0.260" stroke="hsl(180.0,100%,35%)" stroke-width="0.00138"></path>
<path d="M0.261 0.926 Q0.993 0.583 0.484 0.150" stroke="hsl(180.0,100%,35%)" stroke-width="0.00046"></path>
<path d="M0.261 0.926 Q0.462 0.939 0.533 0.844" stroke="hsl(180.0,100%,35%)" stroke-width="0.00215"></path>
<path d="M0.261 0.926 Q1.288 0.684 1.041 0.130" stroke="hsl(180.0,100%,35%)" stroke-width="0.00107"></path>
<path d="M0.261 0.926 Q0.859 0.944 1.025 0.656" stroke="hsl(180.0,100%,35%)" stroke-width="0.00015"></path>
<path d="M0.261 0.926 Q1.159 0.663 0.843 0.167" stroke="hsl(180.0,100%,35%)" stroke-width="0.00061"></path>
<path d="M0.261 0.926 Q0.926 1.106 1.424 0.821" stroke="hsl(180.0,100%,35%)" stroke-width="0.00015"></path>
<path d="M0.261 0.926 Q0.446 0.864 0.366 0.760" stroke="hsl(180.0,100%,35%)" stroke-width="0.00015"></path>
<path d="M0.417 0.695 Q0.912 0.531 0.700 0.253" stroke="hsl(0.0,100%,35%)" stroke-width="0.01196"></path>
<path d="M0.417 0.695 Q0.541 0.551 0.286 0.458" stroke="hsl(0.0,100%,35%)" stroke-width="0.01671"></path>
<path d="M0.417 0.695 Q1.078 0.803 1.433 0.505" stroke="hsl(0.0,100%,35%)" stroke-width="0.00429"></path>
<path d="M0.417 0.695 Q1.030 0.849 1.465 0.583" stroke="hsl(0.0,100%,35%)" stroke-width="0.00169"></path>
<path d="M0.417 0.695 Q1.242 0.555 1.149 0.122" stroke="hsl(0.0,100%,35%)" stroke-width="0.00153"></path>
<path d="M0.417 0.695 Q0.752 0.797 1.025 0.656" stroke="hsl(0.0,100%,35%)" stroke-width="0.00077"></path>
<path d="M0.417 0.695 Q1.119 0.469 0.831 0.076" stroke="hsl(0.0,100%,35%)" stroke-width="0.00138"></path>
<path d="M0.417 0.695 Q0.964 0.764 1.218 0.513" stroke="hsl(0.0,100%,35%)" stroke-width="0.00153"></path>
<path d="M0.417 0.695 Q0.287 0.605 0.081 0.648" stroke="hsl(0.0,100%,35%)" stroke-width="0.00107"></path>
<path d="M0.417 0.695 Q0.818 0.678 0.872 0.478" stroke="hsl(0.0,100%,35%)" stroke-width="0.00015"></path>
<path d="M0.417 0.695 Q0.155 0.779 0.261 0.926" stroke="hsl(0.0,100%,35%)" stroke-width="0.00077"></path>
<path d="M0.417 0.695 Q0.517 0.796 0.736 0.769" stroke="hsl(0.0,100%,35%)" stroke-width="0.00031"></path>
<path d="M0.700 0.253 Q0.205 0.418 0.417 0.695" stroke="hsl(0.0,100%,35%)" stroke-width="0.00383"></path>
<path d="M0.700 0.253 Q0.907 0.191 0.831 0.076" stroke="hsl(0.0,100%,35%)" stroke-width="0.01073"></path>
<path d="M0.700 0.253 Q0.329 0.273 0.286 0.458" stroke="hsl(0.0,100%,35%)" stroke-width="0.00307"></path>
<path d="M0.700 0.253 Q0.818 0.571 1.465 0.583" stroke="hsl(0.0,100%,35%)" stroke-width="0.00031"></path>
<path d="M0.700 0.253 Q0.865 0.526 1.433 0.505" stroke="hsl(0.0,100%,35%)" stroke-width="0.00276"></path>
<path d="M0.700 0.253 Q0.640 0.120 0.366 0.120" stroke="hsl(0.0,100%,35%)" stroke-width="0.00061"></path>
<path d="M0.700 0.253 Q-0.058 0.502 0.261 0.926" stroke="hsl(0.0,100%,35%)" stroke-width="0.00736"></path>
<path d="M0.700 0.253 Q0.751 0.486 1.218 0.513" stroke="hsl(0.0,100%,35%)" stroke-width="0.00184"></path>
<path d="M0.700 0.253 Q0.606 0.400 0.872 0.478" stroke="hsl(0.0,100%,35%)" stroke-width="0.00276"></path>
<path d="M0.700 0.253 Q0.074 0.327 0.081 0.648" stroke="hsl(0.0,100%,35%)" stroke-width="0.00399"></path>
<path d="M0.700 0.253 Q0.026 0.437 0.238 0.806" stroke="hsl(0.0,100%,35%)" stroke-width="0.00015"></path>
<path d="M0.700 0.253 Q0.969 0.260 1.041 0.130" stroke="hsl(0.0,100%,35%)" stroke-width="0.00031"></path>
<path d="M0.700 0.253 Q0.518 0.311 0.592 0.413" stroke="hsl(0.0,100%,35%)" stroke-width="0.00015"></path>
<path d="M0.700 0.253 Q0.540 0.520 1.025 0.656" stroke="hsl(0.0,100%,35%)" stroke-width="0.00031"></path>
<path d="M0.700 0.253 Q0.173 0.605 0.744 0.939" stroke="hsl(0.0,100%,35%)" stroke-width="0.00015"></path>
<path d="M0.700 0.253 Q0.305 0.518 0.736 0.769" stroke="hsl(0.0,100%,35%)" stroke-width="0.00015"></path>
<path d="M0.700 0.253 Q0.527 0.737 1.432 0.927" stroke="hsl(0.0,100%,35%)" stroke-width="0.00015"></path>
<path d="M0.700 0.253 Q1.025 0.389 1.362 0.260" stroke="hsl(0.0,100%,35%)" stroke-width="0.00015"></path>
<path d="M0.700 0.253 Q0.840 0.239 0.843 0.167" stroke="hsl(0.0,100%,35%)" stroke-width="0.00061"></path>
<path d="M0.700 0.253 Q0.674 0.159 0.484 0.150" stroke="hsl(0.0,100%,35%)" stroke-width="0.00031"></path>
<path d="M1.465 0.583 Q0.975 0.285 0.286 0.458" stroke="hsl(0.0,100%,35%)" stroke-width="0.00138"></path>
<path d="M1.465 0.583 Q1.398 0.499 1.218 0.513" stroke="hsl(0.0,100%,35%)" stroke-width="0.00245"></path>
<path d="M1.465 0.583 Q0.589 0.514 0.261 0.926" stroke="hsl(0.0,100%,35%)" stroke-width="0.00061"></path>
<path d="M1.465 0.583 Q1.512 0.538 1.433 0.505" stroke="hsl(0.0,100%,35%)" stroke-width="0.00506"></path>
<path d="M1.465 0.583 Q0.721 0.339 0.081 0.648" stroke="hsl(0.0,100%,35%)" stroke-width="0.00015"></path>
<path d="M1.465 0.583 Q1.187 0.532 1.025 0.656" stroke="hsl(0.0,100%,35%)" stroke-width="0.00015"></path>
<path d="M1.465 0.583 Q0.820 0.617 0.744 0.939" stroke="hsl(0.0,100%,35%)" stroke-width="0.00015"></path>
<path d="M1.465 0.583 Q1.553 0.203 0.831 0.076" stroke="hsl(0.0,100%,35%)" stroke-width="0.00092"></path>
<path d="M1.465 0.583 Q0.851 0.430 0.417 0.695" stroke="hsl(0.0,100%,35%)" stroke-width="0.00046"></path>
<path d="M1.465 0.583 Q1.616 0.272 1.041 0.130" stroke="hsl(0.0,100%,35%)" stroke-width="0.00015"></path>
<path d="M1.465 0.583 Q0.790 0.528 0.533 0.844" stroke="hsl(0.0,100%,35%)" stroke-width="0.00015"></path>
<path d="M1.218 0.513 Q0.409 0.528 0.261 0.926" stroke="hsl(0.0,100%,35%)" stroke-width="0.00031"></path>
<path d="M1.218 0.513 Q1.332 0.552 1.433 0.505" stroke="hsl(0.0,100%,35%)" stroke-width="0.00184"></path>
<path d="M1.218 0.513 Q1.285 0.597 1.465 0.583" stroke="hsl(0.0,100%,35%)" stroke-width="0.00138"></path>
<path d="M1.218 0.513 Q0.795 0.299 0.286 0.458" stroke="hsl(0.0,100%,35%)" stroke-width="0.00245"></path>
<path d="M1.218 0.513 Q1.373 0.217 0.831 0.076" stroke="hsl(0.0,100%,35%)" stroke-width="0.00031"></path>
<path d="M1.218 0.513 Q1.006 0.546 1.025 0.656" stroke="hsl(0.0,100%,35%)" stroke-width="0.00061"></path>
<path d="M1.218 0.513 Q1.106 0.146 0.366 0.120" stroke="hsl(0.0,100%,35%)" stroke-width="0.00031"></path>
<path d="M1.218 0.513 Q1.166 0.279 0.700 0.253" stroke="hsl(0.0,100%,35%)" stroke-width="0.00061"></path>
<path d="M1.218 0.513 Q0.671 0.444 0.417 0.695" stroke="hsl(0.0,100%,35%)" stroke-width="0.00046"></path>
<path d="M1.218 0.513 Q1.307 0.265 0.843 0.167" stroke="hsl(0.0,100%,35%)" stroke-width="0.00031"></path>
<path d="M0.238 0.806 Q0.154 0.871 0.261 0.926" stroke="hsl(180.0,100%,35%)" stroke-width="0.01180"></path>
<path d="M0.238 0.806 Q1.118 0.560 0.831 0.076" stroke="hsl(180.0,100%,35%)" stroke-width="0.00123"></path>
<path d="M0.238 0.806 Q1.077 0.895 1.433 0.505" stroke="hsl(180.0,100%,35%)" stroke-width="0.00015"></path>
<path d="M0.238 0.806 Q0.240 0.931 0.483 0.957" stroke="hsl(180.0,100%,35%)" stroke-width="0.00015"></path>
<path d="M0.238 0.806 Q0.911 0.622 0.700 0.253" stroke="hsl(180.0,100%,35%)" stroke-width="0.00046"></path>
<path d="M0.238 0.806 Q0.751 0.889 1.025 0.656" stroke="hsl(180.0,100%,35%)" stroke-width="0.00015"></path>
<path d="M0.238 0.806 Q1.237 0.758 1.362 0.260" stroke="hsl(180.0,100%,35%)" stroke-width="0.00107"></path>
<path d="M0.238 0.806 Q0.355 0.884 0.533 0.844" stroke="hsl(180.0,100%,35%)" stroke-width="0.00015"></path>
<path d="M0.238 0.806 Q1.260 0.701 1.278 0.179" stroke="hsl(180.0,100%,35%)" stroke-width="0.00015"></path>
<path d="M0.238 0.806 Q0.416 0.787 0.417 0.695" stroke="hsl(180.0,100%,35%)" stroke-width="0.00015"></path>
<path d="M0.081 0.648 Q0.707 0.574 0.700 0.253" stroke="hsl(0.0,100%,35%)" stroke-width="0.00996"></path>
<path d="M0.081 0.648 Q-0.051 0.823 0.261 0.926" stroke="hsl(0.0,100%,35%)" stroke-width="0.00506"></path>
<path d="M0.081 0.648 Q0.872 0.847 1.433 0.505" stroke="hsl(0.0,100%,35%)" stroke-width="0.00368"></path>
<path d="M0.081 0.648 Q0.336 0.594 0.286 0.458" stroke="hsl(0.0,100%,35%)" stroke-width="0.01472"></path>
<path d="M0.081 0.648 Q0.914 0.512 0.831 0.076" stroke="hsl(0.0,100%,35%)" stroke-width="0.00552"></path>
<path d="M0.081 0.648 Q0.212 0.739 0.417 0.695" stroke="hsl(0.0,100%,35%)" stroke-width="0.00046"></path>
<path d="M0.081 0.648 Q0.312 0.840 0.736 0.769" stroke="hsl(0.0,100%,35%)" stroke-width="0.00015"></path>
<path d="M0.081 0.648 Q0.613 0.722 0.872 0.478" stroke="hsl(0.0,100%,35%)" stroke-width="0.00092"></path>
<path d="M0.081 0.648 Q0.180 0.926 0.744 0.939" stroke="hsl(0.0,100%,35%)" stroke-width="0.00015"></path>
<path d="M0.081 0.648 Q0.848 0.560 0.843 0.167" stroke="hsl(0.0,100%,35%)" stroke-width="0.00031"></path>
<path d="M0.081 0.648 Q1.055 0.653 1.278 0.179" stroke="hsl(0.0,100%,35%)" stroke-width="0.00015"></path>
<path d="M0.872 0.478 Q1.173 0.269 0.831 0.076" stroke="hsl(180.0,100%,35%)" stroke-width="0.00169"></path>
<path d="M0.872 0.478 Q0.966 0.331 0.700 0.253" stroke="hsl(180.0,100%,35%)" stroke-width="0.00445"></path>
<path d="M0.872 0.478 Q0.209 0.580 0.261 0.926" stroke="hsl(180.0,100%,35%)" stroke-width="0.00383"></path>
<path d="M0.872 0.478 Q0.784 0.390 0.592 0.413" stroke="hsl(180.0,100%,35%)" stroke-width="0.00169"></path>
<path d="M0.872 0.478 Q0.293 0.515 0.238 0.806" stroke="hsl(180.0,100%,35%)" stroke-width="0.00015"></path>
<path d="M0.872 0.478 Q0.341 0.405 0.081 0.648" stroke="hsl(180.0,100%,35%)" stroke-width="0.00261"></path>
<path d="M0.872 0.478 Q0.906 0.423 0.805 0.395" stroke="hsl(180.0,100%,35%)" stroke-width="0.00046"></path>
<path d="M0.872 0.478 Q0.571 0.596 0.736 0.769" stroke="hsl(180.0,100%,35%)" stroke-width="0.00031"></path>
<path d="M0.872 0.478 Q1.107 0.317 0.843 0.167" stroke="hsl(180.0,100%,35%)" stroke-width="0.00015"></path>
<path d="M0.872 0.478 Q0.409 0.593 0.533 0.844" stroke="hsl(180.0,100%,35%)" stroke-width="0.00031"></path>
<path d="M0.872 0.478 Q1.018 0.565 1.218 0.513" stroke="hsl(180.0,100%,35%)" stroke-width="0.00046"></path>
<path d="M0.872 0.478 Q0.595 0.351 0.286 0.458" stroke="hsl(180.0,100%,35%)" stroke-width="0.00015"></path>
<path d="M0.132 0.741 Q0.049 0.859 0.261 0.926" stroke="hsl(0.0,100%,35%)" stroke-width="0.00015"></path>
<path d="M0.132 0.741 Q0.311 0.775 0.417 0.695" stroke="hsl(0.0,100%,35%)" stroke-width="0.00015"></path>
<path d="M0.132 0.741 Q0.180 0.684 0.081 0.648" stroke="hsl(0.0,100%,35%)" stroke-width="0.00031"></path>
<path d="M1.397 0.691 Q1.450 0.566 1.218 0.513" stroke="hsl(0.0,100%,35%)" stroke-width="0.00015"></path>
<path d="M1.397 0.691 Q1.027 0.352 0.286 0.458" stroke="hsl(0.0,100%,35%)" stroke-width="0.00015"></path>
<path d="M1.397 0.691 Q1.564 0.605 1.433 0.505" stroke="hsl(0.0,100%,35%)" stroke-width="0.00031"></path>
<path d="M0.286 0.458 Q0.708 0.672 1.218 0.513" stroke="hsl(0.0,100%,35%)" stroke-width="0.00966"></path>
<path d="M0.286 0.458 Q0.775 0.757 1.465 0.583" stroke="hsl(0.0,100%,35%)" stroke-width="0.00169"></path>
<path d="M0.286 0.458 Q0.162 0.603 0.417 0.695" stroke="hsl(0.0,100%,35%)" stroke-width="0.01119"></path>
<path d="M0.286 0.458 Q0.657 0.438 0.700 0.253" stroke="hsl(0.0,100%,35%)" stroke-width="0.00230"></path>
<path d="M0.286 0.458 Q0.822 0.711 1.433 0.505" stroke="hsl(0.0,100%,35%)" stroke-width="0.01012"></path>
<path d="M0.286 0.458 Q0.484 0.922 1.432 0.927" stroke="hsl(0.0,100%,35%)" stroke-width="0.00046"></path>
<path d="M0.286 0.458 Q-0.101 0.687 0.261 0.926" stroke="hsl(0.0,100%,35%)" stroke-width="0.00092"></path>
<path d="M0.286 0.458 Q0.597 0.305 0.366 0.120" stroke="hsl(0.0,100%,35%)" stroke-width="0.00015"></path>
<path d="M0.286 0.458 Q0.262 0.704 0.736 0.769" stroke="hsl(0.0,100%,35%)" stroke-width="0.00046"></path>
<path d="M0.286 0.458 Q0.031 0.512 0.081 0.648" stroke="hsl(0.0,100%,35%)" stroke-width="0.00031"></path>
<path d="M0.286 0.458 Q0.864 0.376 0.831 0.076" stroke="hsl(0.0,100%,35%)" stroke-width="0.00092"></path>
<path d="M0.286 0.458 Q0.497 0.705 1.025 0.656" stroke="hsl(0.0,100%,35%)" stroke-width="0.00368"></path>
<path d="M0.286 0.458 Q1.006 0.517 1.278 0.179" stroke="hsl(0.0,100%,35%)" stroke-width="0.00153"></path>
<path d="M0.286 0.458 Q0.798 0.424 0.843 0.167" stroke="hsl(0.0,100%,35%)" stroke-width="0.00046"></path>
<path d="M0.286 0.458 Q0.073 0.662 0.423 0.810" stroke="hsl(0.0,100%,35%)" stroke-width="0.00015"></path>
<path d="M1.278 0.179 Q0.172 0.349 0.261 0.926" stroke="hsl(180.0,100%,35%)" stroke-width="0.00015"></path>
<path d="M1.278 0.179 Q0.930 0.100 0.700 0.253" stroke="hsl(180.0,100%,35%)" stroke-width="0.00015"></path>
<path d="M1.278 0.179 Q1.255 0.236 1.362 0.260" stroke="hsl(180.0,100%,35%)" stroke-width="0.00092"></path>
<path d="M1.362 0.260 Q0.943 0.271 0.872 0.478" stroke="hsl(180.0,100%,35%)" stroke-width="0.00015"></path>
<path d="M1.362 0.260 Q0.363 0.308 0.238 0.806" stroke="hsl(180.0,100%,35%)" stroke-width="0.00015"></path>
<path d="M1.362 0.260 Q1.385 0.203 1.278 0.179" stroke="hsl(180.0,100%,35%)" stroke-width="0.00123"></path>
<path d="M1.362 0.260 Q0.480 0.387 0.533 0.844" stroke="hsl(180.0,100%,35%)" stroke-width="0.00092"></path>
<path d="M1.362 0.260 Q1.088 0.358 1.218 0.513" stroke="hsl(180.0,100%,35%)" stroke-width="0.00015"></path>
<path d="M1.362 0.260 Q0.279 0.373 0.261 0.926" stroke="hsl(180.0,100%,35%)" stroke-width="0.00031"></path>
<path d="M1.041 0.130 Q0.979 0.061 0.831 0.076" stroke="hsl(180.0,100%,35%)" stroke-width="0.00061"></path>
<path d="M1.041 0.130 Q0.890 0.441 1.465 0.583" stroke="hsl(180.0,100%,35%)" stroke-width="0.00031"></path>
<path d="M1.041 0.130 Q0.599 0.607 1.432 0.927" stroke="hsl(180.0,100%,35%)" stroke-width="0.00107"></path>
<path d="M1.041 0.130 Q0.401 0.143 0.286 0.458" stroke="hsl(180.0,100%,35%)" stroke-width="0.00046"></path>
<path d="M1.041 0.130 Q0.823 0.357 1.218 0.513" stroke="hsl(180.0,100%,35%)" stroke-width="0.00015"></path>
<path d="M1.041 0.130 Q0.680 0.552 1.424 0.821" stroke="hsl(180.0,100%,35%)" stroke-width="0.00015"></path>
<path d="M1.041 0.130 Q0.772 0.123 0.700 0.253" stroke="hsl(180.0,100%,35%)" stroke-width="0.00077"></path>
<path d="M1.041 0.130 Q0.678 0.270 0.872 0.478" stroke="hsl(180.0,100%,35%)" stroke-width="0.00015"></path>
<path d="M1.041 0.130 Q0.712 -0.010 0.366 0.120" stroke="hsl(180.0,100%,35%)" stroke-width="0.00015"></path>
<path d="M0.592 0.413 Q0.016 0.603 0.261 0.926" stroke="hsl(180.0,100%,35%)" stroke-width="0.00123"></path>
<path d="M0.592 0.413 Q0.774 0.355 0.700 0.253" stroke="hsl(180.0,100%,35%)" stroke-width="0.00046"></path>
<path d="M0.592 0.413 Q0.680 0.502 0.872 0.478" stroke="hsl(180.0,100%,35%)" stroke-width="0.00414"></path>
<path d="M0.592 0.413 Q0.892 0.673 1.465 0.583" stroke="hsl(180.0,100%,35%)" stroke-width="0.00015"></path>
<path d="M0.592 0.413 Q0.100 0.539 0.238 0.806" stroke="hsl(180.0,100%,35%)" stroke-width="0.00015"></path>
<path d="M0.592 0.413 Q0.279 0.519 0.417 0.695" stroke="hsl(180.0,100%,35%)" stroke-width="0.00015"></path>
<path d="M0.744 0.939 Q0.513 0.836 0.261 0.926" stroke="hsl(180.0,100%,35%)" stroke-width="0.00184"></path>
<path d="M0.744 0.939 Q0.876 0.852 0.736 0.769" stroke="hsl(180.0,100%,35%)" stroke-width="0.00583"></path>
<path d="M0.744 0.939 Q0.776 0.752 0.417 0.695" stroke="hsl(180.0,100%,35%)" stroke-width="0.00015"></path>
<path d="M0.744 0.939 Q0.900 0.607 0.286 0.458" stroke="hsl(180.0,100%,35%)" stroke-width="0.00015"></path>
<path d="M0.744 0.939 Q0.599 0.896 0.483 0.957" stroke="hsl(180.0,100%,35%)" stroke-width="0.00015"></path>
<path d="M0.744 0.939 Q1.098 1.071 1.432 0.927" stroke="hsl(180.0,100%,35%)" stroke-width="0.00077"></path>
<path d="M0.736 0.769 Q1.131 0.504 0.700 0.253" stroke="hsl(180.0,100%,35%)" stroke-width="0.00107"></path>
<path d="M0.736 0.769 Q0.604 0.856 0.744 0.939" stroke="hsl(180.0,100%,35%)" stroke-width="0.00491"></path>
<path d="M0.736 0.769 Q0.760 0.524 0.286 0.458" stroke="hsl(180.0,100%,35%)" stroke-width="0.00015"></path>
<path d="M0.736 0.769 Q0.373 0.753 0.261 0.926" stroke="hsl(180.0,100%,35%)" stroke-width="0.00184"></path>
<path d="M0.736 0.769 Q1.037 0.651 0.872 0.478" stroke="hsl(180.0,100%,35%)" stroke-width="0.00123"></path>
<path d="M0.736 0.769 Q1.296 0.777 1.433 0.505" stroke="hsl(180.0,100%,35%)" stroke-width="0.00015"></path>
<path d="M0.736 0.769 Q0.958 0.988 1.432 0.927" stroke="hsl(180.0,100%,35%)" stroke-width="0.00015"></path>
<path d="M0.736 0.769 Q0.505 0.578 0.081 0.648" stroke="hsl(180.0,100%,35%)" stroke-width="0.00031"></path>
<path d="M0.736 0.769 Q1.338 0.442 0.831 0.076" stroke="hsl(180.0,100%,35%)" stroke-width="0.00015"></path>
<path d="M0.736 0.769 Q1.272 0.490 0.843 0.167" stroke="hsl(180.0,100%,35%)" stroke-width="0.00015"></path>
<path d="M0.736 0.769 Q1.456 0.640 1.362 0.260" stroke="hsl(180.0,100%,35%)" stroke-width="0.00015"></path>
<path d="M0.736 0.769 Q1.400 0.511 1.041 0.130" stroke="hsl(180.0,100%,35%)" stroke-width="0.00015"></path>
<path d="M0.736 0.769 Q0.949 0.562 0.592 0.413" stroke="hsl(180.0,100%,35%)" stroke-width="0.00015"></path>
<path d="M1.432 0.927 Q1.512 0.591 0.872 0.478" stroke="hsl(180.0,100%,35%)" stroke-width="0.00031"></path>
<path d="M1.432 0.927 Q1.812 0.382 0.831 0.076" stroke="hsl(180.0,100%,35%)" stroke-width="0.00077"></path>
<path d="M1.432 0.927 Q1.110 0.608 0.417 0.695" stroke="hsl(180.0,100%,35%)" stroke-width="0.00031"></path>
<path d="M1.432 0.927 Q1.513 0.872 1.424 0.821" stroke="hsl(180.0,100%,35%)" stroke-width="0.00092"></path>
<path d="M1.432 0.927 Q1.875 0.450 1.041 0.130" stroke="hsl(180.0,100%,35%)" stroke-width="0.00061"></path>
<path d="M1.432 0.927 Q0.848 0.692 0.261 0.926" stroke="hsl(180.0,100%,35%)" stroke-width="0.00046"></path>
<path d="M1.432 0.927 Q1.606 0.444 0.700 0.253" stroke="hsl(180.0,100%,35%)" stroke-width="0.00015"></path>
<path d="M0.843 0.167 Q0.307 0.447 0.736 0.769" stroke="hsl(0.0,100%,35%)" stroke-width="0.00123"></path>
<path d="M0.843 0.167 Q0.702 0.181 0.700 0.253" stroke="hsl(0.0,100%,35%)" stroke-width="0.00322"></path>
<path d="M0.843 0.167 Q0.909 0.119 0.831 0.076" stroke="hsl(0.0,100%,35%)" stroke-width="0.00092"></path>
<path d="M0.843 0.167 Q0.207 0.346 0.417 0.695" stroke="hsl(0.0,100%,35%)" stroke-width="0.00031"></path>
<path d="M0.843 0.167 Q0.077 0.255 0.081 0.648" stroke="hsl(0.0,100%,35%)" stroke-width="0.00138"></path>
<path d="M0.843 0.167 Q0.331 0.201 0.286 0.458" stroke="hsl(0.0,100%,35%)" stroke-width="0.00077"></path>
<path d="M0.484 0.150 Q0.510 0.245 0.700 0.253" stroke="hsl(0.0,100%,35%)" stroke-width="0.00721"></path>
<path d="M0.484 0.150 Q0.337 0.728 1.432 0.927" stroke="hsl(0.0,100%,35%)" stroke-width="0.00061"></path>
<path d="M0.484 0.150 Q0.450 0.111 0.366 0.120" stroke="hsl(0.0,100%,35%)" stroke-width="0.00031"></path>
<path d="M0.484 0.150 Q0.717 0.183 0.831 0.076" stroke="hsl(0.0,100%,35%)" stroke-width="0.00015"></path>
<path d="M0.484 0.150 Q-0.116 0.319 0.081 0.648" stroke="hsl(0.0,100%,35%)" stroke-width="0.00015"></path>
<path d="M1.023 0.145 Q0.826 0.368 1.218 0.513" stroke="hsl(180.0,100%,35%)" stroke-width="0.00015"></path>
<path d="M1.023 0.145 Q0.982 0.072 0.831 0.076" stroke="hsl(180.0,100%,35%)" stroke-width="0.00015"></path>
<path d="M1.023 0.145 Q0.775 0.134 0.700 0.253" stroke="hsl(180.0,100%,35%)" stroke-width="0.00015"></path>
<path d="M1.023 0.145 Q0.940 0.407 1.433 0.505" stroke="hsl(180.0,100%,35%)" stroke-width="0.00015"></path>
<path d="M1.023 0.145 Q0.017 0.383 0.261 0.926" stroke="hsl(180.0,100%,35%)" stroke-width="0.00046"></path>
<path d="M0.805 0.395 Q0.772 0.450 0.872 0.478" stroke="hsl(180.0,100%,35%)" stroke-width="0.00399"></path>
<path d="M0.805 0.395 Q0.108 0.551 0.261 0.926" stroke="hsl(180.0,100%,35%)" stroke-width="0.00337"></path>
<path d="M0.805 0.395 Q0.471 0.568 0.736 0.769" stroke="hsl(180.0,100%,35%)" stroke-width="0.00015"></path>
<path d="M0.805 0.395 Q0.774 0.731 1.424 0.821" stroke="hsl(180.0,100%,35%)" stroke-width="0.00015"></path>
<path d="M0.533 0.844 Q0.718 0.602 0.286 0.458" stroke="hsl(180.0,100%,35%)" stroke-width="0.00015"></path>
<path d="M0.533 0.844 Q0.332 0.831 0.261 0.926" stroke="hsl(180.0,100%,35%)" stroke-width="0.00077"></path>
<path d="M0.533 0.844 Q1.415 0.718 1.362 0.260" stroke="hsl(180.0,100%,35%)" stroke-width="0.00031"></path>
<path d="M0.533 0.844 Q0.416 0.766 0.238 0.806" stroke="hsl(180.0,100%,35%)" stroke-width="0.00015"></path>
<path d="M0.533 0.844 Q1.438 0.661 1.278 0.179" stroke="hsl(180.0,100%,35%)" stroke-width="0.00031"></path>
<path d="M0.483 0.957 Q0.397 0.897 0.261 0.926" stroke="hsl(180.0,100%,35%)" stroke-width="0.00552"></path>
<path d="M0.483 0.957 Q0.481 0.833 0.238 0.806" stroke="hsl(180.0,100%,35%)" stroke-width="0.00046"></path>
<path d="M0.483 0.957 Q1.480 0.785 1.362 0.260" stroke="hsl(180.0,100%,35%)" stroke-width="0.00031"></path>
<path d="M0.483 0.957 Q1.320 0.921 1.433 0.505" stroke="hsl(180.0,100%,35%)" stroke-width="0.00077"></path>
<path d="M0.483 0.957 Q1.060 0.796 0.872 0.478" stroke="hsl(180.0,100%,35%)" stroke-width="0.00015"></path>
<path d="M0.483 0.957 Q1.525 0.938 1.717 0.425" stroke="hsl(180.0,100%,35%)" stroke-width="0.00015"></path>
<path d="M0.483 0.957 Q1.541 0.864 1.591 0.326" stroke="hsl(180.0,100%,35%)" stroke-width="0.00031"></path>
<path d="M0.483 0.957 Q1.361 0.586 0.831 0.076" stroke="hsl(180.0,100%,35%)" stroke-width="0.00092"></path>
<path d="M0.483 0.957 Q0.598 0.911 0.533 0.844" stroke="hsl(180.0,100%,35%)" stroke-width="0.00061"></path>
<path d="M0.483 0.957 Q1.503 0.727 1.278 0.179" stroke="hsl(180.0,100%,35%)" stroke-width="0.00015"></path>
<path d="M0.483 0.957 Q1.154 0.648 0.700 0.253" stroke="hsl(180.0,100%,35%)" stroke-width="0.00031"></path>
<path d="M0.483 0.957 Q0.628 1.000 0.744 0.939" stroke="hsl(180.0,100%,35%)" stroke-width="0.00031"></path>
<path d="M0.483 0.957 Q0.783 0.668 0.286 0.458" stroke="hsl(180.0,100%,35%)" stroke-width="0.00015"></path>
<path d="M0.483 0.957 Q0.659 0.813 0.417 0.695" stroke="hsl(180.0,100%,35%)" stroke-width="0.00015"></path>
<path d="M0.483 0.957 Q1.206 0.882 1.218 0.513" stroke="hsl(180.0,100%,35%)" stroke-width="0.00015"></path>
<path d="M1.591 0.326 Q1.575 0.401 1.717 0.425" stroke="hsl(180.0,100%,35%)" stroke-width="0.00169"></path>
<path d="M1.591 0.326 Q0.447 0.360 0.261 0.926" stroke="hsl(180.0,100%,35%)" stroke-width="0.00015"></path>
<path d="M1.591 0.326 Q0.533 0.420 0.483 0.957" stroke="hsl(180.0,100%,35%)" stroke-width="0.00092"></path>
<path d="M1.591 0.326 Q0.833 0.131 0.286 0.458" stroke="hsl(180.0,100%,35%)" stroke-width="0.00015"></path>
<path d="M1.591 0.326 Q1.553 0.190 1.278 0.179" stroke="hsl(180.0,100%,35%)" stroke-width="0.00031"></path>
<path d="M1.591 0.326 Q1.345 0.097 0.843 0.167" stroke="hsl(180.0,100%,35%)" stroke-width="0.00015"></path>
<path d="M0.776 0.589 Q1.007 0.406 0.700 0.253" stroke="hsl(0.0,100%,35%)" stroke-width="0.00015"></path>
<path d="M0.776 0.589 Q0.512 0.571 0.417 0.695" stroke="hsl(0.0,100%,35%)" stroke-width="0.00015"></path>
<path d="M0.776 0.589 Q1.172 0.678 1.433 0.505" stroke="hsl(0.0,100%,35%)" stroke-width="0.00015"></path>
<path d="M1.076 0.392 Q0.817 0.306 0.592 0.413" stroke="hsl(180.0,100%,35%)" stroke-width="0.00015"></path>
<path d="M1.076 0.392 Q0.999 0.248 0.700 0.253" stroke="hsl(180.0,100%,35%)" stroke-width="0.00015"></path>
<path d="M1.076 0.392 Q0.242 0.496 0.261 0.926" stroke="hsl(180.0,100%,35%)" stroke-width="0.00015"></path>
<path d="M0.957 0.304 Q0.687 0.285 0.592 0.413" stroke="hsl(180.0,100%,35%)" stroke-width="0.00061"></path>
<path d="M0.957 0.304 Q0.112 0.475 0.261 0.926" stroke="hsl(180.0,100%,35%)" stroke-width="0.00046"></path>
<path d="M0.957 0.304 Q1.010 0.212 0.843 0.167" stroke="hsl(180.0,100%,35%)" stroke-width="0.00015"></path>
<path d="M0.407 0.309 Q0.598 0.340 0.700 0.253" stroke="hsl(0.0,100%,35%)" stroke-width="0.00123"></path>
<path d="M0.407 0.309 Q0.538 0.207 0.366 0.120" stroke="hsl(0.0,100%,35%)" stroke-width="0.00015"></path>
<path d="M0.407 0.309 Q0.425 0.824 1.432 0.927" stroke="hsl(0.0,100%,35%)" stroke-width="0.00015"></path>
<path d="M0.573 0.516 Q0.898 0.643 1.218 0.513" stroke="hsl(0.0,100%,35%)" stroke-width="0.00153"></path>
<path d="M0.573 0.516 Q0.351 0.574 0.417 0.695" stroke="hsl(0.0,100%,35%)" stroke-width="0.00199"></path>
<path d="M0.573 0.516 Q1.012 0.682 1.433 0.505" stroke="hsl(0.0,100%,35%)" stroke-width="0.00015"></path>
<path d="M0.573 0.516 Q0.965 0.728 1.465 0.583" stroke="hsl(0.0,100%,35%)" stroke-width="0.00092"></path>
<path d="M1.408 0.357 Q0.642 0.328 0.417 0.695" stroke="hsl(0.0,100%,35%)" stroke-width="0.00031"></path>
<path d="M1.408 0.357 Q0.380 0.412 0.261 0.926" stroke="hsl(0.0,100%,35%)" stroke-width="0.00015"></path>
<path d="M1.408 0.357 Q1.302 0.436 1.433 0.505" stroke="hsl(0.0,100%,35%)" stroke-width="0.00031"></path>
<path d="M0.688 0.839 Q1.163 0.548 0.700 0.253" stroke="hsl(180.0,100%,35%)" stroke-width="0.00107"></path>
<path d="M0.688 0.839 Q0.768 0.814 0.736 0.769" stroke="hsl(180.0,100%,35%)" stroke-width="0.00107"></path>
<path d="M0.688 0.839 Q1.069 0.696 0.872 0.478" stroke="hsl(180.0,100%,35%)" stroke-width="0.00077"></path>
<path d="M0.688 0.839 Q0.406 0.797 0.261 0.926" stroke="hsl(180.0,100%,35%)" stroke-width="0.00015"></path>
<path d="M0.688 0.839 Q1.215 0.782 1.218 0.513" stroke="hsl(180.0,100%,35%)" stroke-width="0.00015"></path>
<path d="M1.182 0.305 Q1.034 0.416 1.218 0.513" stroke="hsl(0.0,100%,35%)" stroke-width="0.00015"></path>
<path d="M1.182 0.305 Q1.148 0.455 1.433 0.505" stroke="hsl(0.0,100%,35%)" stroke-width="0.00015"></path>
<path d="M1.182 0.305 Q1.190 0.120 0.831 0.076" stroke="hsl(0.0,100%,35%)" stroke-width="0.00015"></path>
<path d="M1.662 0.956 Q1.743 0.412 0.700 0.253" stroke="hsl(180.0,100%,35%)" stroke-width="0.00015"></path>
<path d="M1.662 0.956 Q1.570 0.896 1.432 0.927" stroke="hsl(180.0,100%,35%)" stroke-width="0.00077"></path>
<path d="M1.662 0.956 Q1.117 0.486 0.081 0.648" stroke="hsl(180.0,100%,35%)" stroke-width="0.00015"></path>
<path d="M1.240 0.593 Q0.747 0.480 0.417 0.695" stroke="hsl(0.0,100%,35%)" stroke-width="0.00138"></path>
<path d="M1.240 0.593 Q1.293 0.549 1.218 0.513" stroke="hsl(0.0,100%,35%)" stroke-width="0.00169"></path>
<path d="M1.240 0.593 Q1.242 0.315 0.700 0.253" stroke="hsl(0.0,100%,35%)" stroke-width="0.00061"></path>
<path d="M1.240 0.593 Q1.407 0.588 1.433 0.505" stroke="hsl(0.0,100%,35%)" stroke-width="0.00092"></path>
<path d="M0.062 0.493 Q0.780 0.439 0.831 0.076" stroke="hsl(0.0,100%,35%)" stroke-width="0.00015"></path>
<path d="M0.062 0.493 Q0.573 0.501 0.700 0.253" stroke="hsl(0.0,100%,35%)" stroke-width="0.00031"></path>
<path d="M0.062 0.493 Q-0.052 0.575 0.081 0.648" stroke="hsl(0.0,100%,35%)" stroke-width="0.00031"></path>
<path d="M1.024 0.557 Q1.156 0.574 1.218 0.513" stroke="hsl(0.0,100%,35%)" stroke-width="0.00092"></path>
<path d="M1.024 0.557 Q1.270 0.613 1.433 0.505" stroke="hsl(0.0,100%,35%)" stroke-width="0.00077"></path>
<path d="M1.024 0.557 Q1.105 0.340 0.700 0.253" stroke="hsl(0.0,100%,35%)" stroke-width="0.00046"></path>
<path d="M1.024 0.557 Q0.610 0.505 0.417 0.695" stroke="hsl(0.0,100%,35%)" stroke-width="0.00107"></path>
<path d="M1.024 0.557 Q0.479 0.414 0.081 0.648" stroke="hsl(0.0,100%,35%)" stroke-width="0.00015"></path>
<path d="M1.024 0.557 Q0.348 0.589 0.261 0.926" stroke="hsl(0.0,100%,35%)" stroke-width="0.00046"></path>
<path d="M1.024 0.557 Q1.223 0.659 1.465 0.583" stroke="hsl(0.0,100%,35%)" stroke-width="0.00015"></path>
</g>
<text x="1.149" y="0.099" font-size="0.044701" fill="hsl(0.0,100%,20%)">armansito</text>
<text x="1.025" y="0.642" font-size="0.029153" fill="hsl(0.0,100%,20%)">jamesgk</text>
<text x="1.433" y="0.479" font-size="0.051995" fill="hsl(0.0,100%,20%)">jvanverth</text>
<text x="0.831" y="0.036" font-size="0.080684" fill="hsl(0.0,100%,20%)">johnstiles</text>
<text x="0.261" y="0.892" font-size="0.067572" fill="hsl(180.0,100%,20%)">kjlubick</text>
<text x="0.417" y="0.668" font-size="0.055445" fill="hsl(0.0,100%,20%)">michaelludwig</text>
<text x="0.700" y="0.215" font-size="0.076278" fill="hsl(0.0,100%,20%)">brianosman</text>
<text x="1.465" y="0.568" font-size="0.031537" fill="hsl(0.0,100%,20%)">nicolettep</text>
<text x="1.218" y="0.494" font-size="0.036395" fill="hsl(0.0,100%,20%)">egdaniel</text>
<text x="0.238" y="0.794" font-size="0.024521" fill="hsl(180.0,100%,20%)">lovisolo</text>
<text x="0.081" y="0.626" font-size="0.045849" fill="hsl(0.0,100%,20%)">herb</text>
<text x="0.872" y="0.459" font-size="0.037737" fill="hsl(180.0,100%,20%)">bungeman</text>
<text x="0.132" y="0.739" font-size="0.004252" fill="hsl(0.0,100%,20%)">ayzhao</text>
<text x="1.397" y="0.689" font-size="0.004252" fill="hsl(0.0,100%,20%)">blundell</text>
<text x="0.286" y="0.431" font-size="0.054125" fill="hsl(0.0,100%,20%)">robertphillips</text>
<text x="1.278" y="0.171" font-size="0.015911" fill="hsl(180.0,100%,20%)">borenet</text>
<text x="1.362" y="0.252" font-size="0.015624" fill="hsl(180.0,100%,20%)">jcgregorio</text>
<text x="0.366" y="0.116" font-size="0.007052" fill="hsl(0.0,100%,20%)">jreck</text>
<text x="1.041" y="0.123" font-size="0.014263" fill="hsl(180.0,100%,20%)">nscobie</text>
<text x="0.592" y="0.404" font-size="0.017789" fill="hsl(180.0,100%,20%)">jlavrova</text>
<text x="0.744" y="0.928" font-size="0.021262" fill="hsl(180.0,100%,20%)">jmbetancourt</text>
<text x="0.736" y="0.756" font-size="0.026214" fill="hsl(180.0,100%,20%)">fmalita</text>
<text x="1.432" y="0.918" font-size="0.018536" fill="hsl(180.0,100%,20%)">scroggo</text>
<text x="0.843" y="0.157" font-size="0.019254" fill="hsl(0.0,100%,20%)">bsalomon</text>
<text x="0.484" y="0.142" font-size="0.016470" fill="hsl(0.0,100%,20%)">ccameron</text>
<text x="1.023" y="0.142" font-size="0.005625" fill="hsl(180.0,100%,20%)">briansalomon</text>
<text x="0.805" y="0.386" font-size="0.016742" fill="hsl(180.0,100%,20%)">drott</text>
<text x="0.533" y="0.838" font-size="0.013779" fill="hsl(180.0,100%,20%)">rmistry</text>
<text x="0.483" y="0.947" font-size="0.020941" fill="hsl(180.0,100%,20%)">cmumford</text>
<text x="1.717" y="0.421" font-size="0.007956" fill="hsl(180.0,100%,20%)">hcm</text>
<text x="1.591" y="0.321" font-size="0.010416" fill="hsl(180.0,100%,20%)">sharaks</text>
<text x="1.424" y="0.817" font-size="0.006724" fill="hsl(180.0,100%,20%)">djsollen</text>
<text x="0.776" y="0.588" font-size="0.003683" fill="hsl(0.0,100%,20%)">hitawala</text>
<text x="1.076" y="0.391" font-size="0.003683" fill="hsl(180.0,100%,20%)">jacksongardner</text>
<text x="0.423" y="0.807" font-size="0.005625" fill="hsl(180.0,100%,20%)">tdenniston</text>
<text x="0.957" y="0.301" font-size="0.006014" fill="hsl(180.0,100%,20%)">jsimmons</text>
<text x="0.366" y="0.759" font-size="0.002126" fill="hsl(180.0,100%,20%)">wrightgeorge</text>
<text x="0.407" y="0.306" font-size="0.006724" fill="hsl(0.0,100%,20%)">kyslov</text>
<text x="0.573" y="0.510" font-size="0.011646" fill="hsl(0.0,100%,20%)">lehoangquyen</text>
<text x="1.408" y="0.354" font-size="0.004754" fill="hsl(0.0,100%,20%)">lokokung</text>
<text x="0.688" y="0.834" font-size="0.009744" fill="hsl(180.0,100%,20%)">mike</text>
<text x="1.182" y="0.303" font-size="0.003683" fill="hsl(0.0,100%,20%)">nathbappai</text>
<text x="1.662" y="0.953" font-size="0.005625" fill="hsl(180.0,100%,20%)">nigeltao</text>
<text x="1.240" y="0.587" font-size="0.011646" fill="hsl(0.0,100%,20%)">penghuang</text>
<text x="0.062" y="0.491" font-size="0.004754" fill="hsl(0.0,100%,20%)">sky</text>
<text x="1.024" y="0.552" font-size="0.010842" fill="hsl(0.0,100%,20%)">sunnyps</text>
</svg>
