<svg width="4000" height="2000" viewBox="-0.025 -0.025 2.05 1.05" xmlns="http://www.w3.org/2000/svg">
  <style>
    path {
      fill: none;
      stroke-linecap: round;
      stroke-opacity: 0.4;
    }

    text {
      text-anchor: middle;
      alignment-baseline: hanging;
    }
  </style>
  <g opacity="0.4">
<path d="M1.538 0.258 Q1.499 0.345 1.660 0.383" stroke="hsl(0.0,100%,35%)" stroke-width="0.02635"></path>
<path d="M1.538 0.258 Q1.233 0.295 1.237 0.452" stroke="hsl(0.0,100%,35%)" stroke-width="0.05270"></path>
<path d="M1.538 0.258 Q1.169 0.473 1.507 0.700" stroke="hsl(0.0,100%,35%)" stroke-width="0.02635"></path>
<path d="M1.507 0.700 Q1.876 0.485 1.538 0.258" stroke="hsl(0.0,100%,35%)" stroke-width="0.02635"></path>
<path d="M1.507 0.700 Q1.395 0.601 1.177 0.633" stroke="hsl(0.0,100%,35%)" stroke-width="0.02635"></path>
<path d="M1.507 0.700 Q1.645 0.588 1.457 0.496" stroke="hsl(0.0,100%,35%)" stroke-width="0.02635"></path>
<path d="M0.588 0.765 Q0.798 0.707 0.732 0.592" stroke="hsl(180.0,100%,35%)" stroke-width="0.02635"></path>
<path d="M0.588 0.765 Q0.756 0.547 0.368 0.417" stroke="hsl(180.0,100%,35%)" stroke-width="0.05270"></path>
<path d="M0.588 0.765 Q1.163 0.738 1.237 0.452" stroke="hsl(180.0,100%,35%)" stroke-width="0.02635"></path>
<path d="M0.588 0.765 Q0.712 0.640 0.495 0.552" stroke="hsl(180.0,100%,35%)" stroke-width="0.02635"></path>
</g>
<text x="1.538" y="0.213" font-size="0.091287" fill="hsl(0.0,100%,20%)">kjlubick</text>
<text x="1.660" y="0.363" font-size="0.040825" fill="hsl(0.0,100%,20%)">brettos</text>
<text x="1.237" y="0.416" font-size="0.070711" fill="hsl(0.0,100%,20%)">robertphillips</text>
<text x="1.507" y="0.659" font-size="0.081650" fill="hsl(0.0,100%,20%)">lukasza</text>
<text x="1.177" y="0.613" font-size="0.040825" fill="hsl(0.0,100%,20%)">danieldilan</text>
<text x="1.457" y="0.476" font-size="0.040825" fill="hsl(0.0,100%,20%)">fmalita</text>
<text x="0.588" y="0.719" font-size="0.091287" fill="hsl(180.0,100%,20%)">michaelludwig</text>
<text x="0.732" y="0.572" font-size="0.040825" fill="hsl(180.0,100%,20%)">jvanverth</text>
<text x="0.368" y="0.388" font-size="0.057735" fill="hsl(180.0,100%,20%)">jamesgk</text>
<text x="0.495" y="0.531" font-size="0.040825" fill="hsl(180.0,100%,20%)">nicolettep</text>
</svg>
