<svg width="4000" height="2000" viewBox="-0.025 -0.025 2.05 1.05" xmlns="http://www.w3.org/2000/svg">
  <style>
    path {
      fill: none;
      stroke-linecap: round;
      stroke-opacity: 0.4;
    }

    text {
      text-anchor: middle;
      alignment-baseline: hanging;
    }
  </style>
  <g opacity="0.4">
<path d="M0.654 0.972 Q1.111 0.827 0.927 0.572" stroke="hsl(0.0,100%,35%)" stroke-width="0.00111"></path>
<path d="M0.654 0.972 Q1.053 0.910 1.020 0.702" stroke="hsl(0.0,100%,35%)" stroke-width="0.00048"></path>
<path d="M0.654 0.972 Q0.749 1.000 0.823 0.959" stroke="hsl(0.0,100%,35%)" stroke-width="0.00302"></path>
<path d="M0.654 0.972 Q1.586 1.068 1.977 0.634" stroke="hsl(0.0,100%,35%)" stroke-width="0.00175"></path>
<path d="M0.654 0.972 Q1.393 0.917 1.448 0.545" stroke="hsl(0.0,100%,35%)" stroke-width="0.00095"></path>
<path d="M0.654 0.972 Q0.624 0.881 0.438 0.875" stroke="hsl(0.0,100%,35%)" stroke-width="0.00207"></path>
<path d="M0.654 0.972 Q1.122 1.090 1.455 0.888" stroke="hsl(0.0,100%,35%)" stroke-width="0.00016"></path>
<path d="M0.654 0.972 Q1.710 0.977 1.952 0.463" stroke="hsl(0.0,100%,35%)" stroke-width="0.00016"></path>
<path d="M0.654 0.972 Q0.816 0.642 0.207 0.491" stroke="hsl(0.0,100%,35%)" stroke-width="0.00016"></path>
<path d="M0.654 0.972 Q0.894 0.942 0.887 0.818" stroke="hsl(0.0,100%,35%)" stroke-width="0.00016"></path>
<path d="M0.654 0.972 Q0.511 0.780 0.106 0.808" stroke="hsl(0.0,100%,35%)" stroke-width="0.00016"></path>
<path d="M0.927 0.572 Q1.210 0.663 1.448 0.545" stroke="hsl(120.0,100%,35%)" stroke-width="0.00302"></path>
<path d="M0.927 0.572 Q0.870 0.656 1.020 0.702" stroke="hsl(120.0,100%,35%)" stroke-width="0.00890"></path>
<path d="M0.927 0.572 Q0.848 0.498 0.685 0.520" stroke="hsl(120.0,100%,35%)" stroke-width="0.00016"></path>
<path d="M0.927 0.572 Q1.096 0.355 0.709 0.226" stroke="hsl(120.0,100%,35%)" stroke-width="0.00524"></path>
<path d="M0.927 0.572 Q1.403 0.813 1.977 0.634" stroke="hsl(120.0,100%,35%)" stroke-width="0.00095"></path>
<path d="M0.927 0.572 Q1.165 0.736 1.537 0.657" stroke="hsl(120.0,100%,35%)" stroke-width="0.00032"></path>
<path d="M0.927 0.572 Q0.867 0.359 0.439 0.342" stroke="hsl(120.0,100%,35%)" stroke-width="0.00620"></path>
<path d="M0.927 0.572 Q0.989 0.438 0.740 0.378" stroke="hsl(120.0,100%,35%)" stroke-width="0.00016"></path>
<path d="M0.927 0.572 Q0.328 0.526 0.106 0.808" stroke="hsl(120.0,100%,35%)" stroke-width="0.00032"></path>
<path d="M0.927 0.572 Q0.938 0.836 1.455 0.888" stroke="hsl(120.0,100%,35%)" stroke-width="0.00016"></path>
<path d="M0.927 0.572 Q0.315 0.586 0.207 0.888" stroke="hsl(120.0,100%,35%)" stroke-width="0.00016"></path>
<path d="M0.927 0.572 Q0.441 0.626 0.438 0.875" stroke="hsl(120.0,100%,35%)" stroke-width="0.00032"></path>
<path d="M0.927 0.572 Q1.319 0.522 1.307 0.320" stroke="hsl(120.0,100%,35%)" stroke-width="0.00127"></path>
<path d="M0.927 0.572 Q1.527 0.722 1.952 0.463" stroke="hsl(120.0,100%,35%)" stroke-width="0.00032"></path>
<path d="M0.927 0.572 Q0.711 0.687 0.887 0.818" stroke="hsl(120.0,100%,35%)" stroke-width="0.00016"></path>
<path d="M0.927 0.572 Q1.426 0.664 1.715 0.440" stroke="hsl(120.0,100%,35%)" stroke-width="0.00016"></path>
<path d="M1.020 0.702 Q1.246 0.402 0.709 0.226" stroke="hsl(120.0,100%,35%)" stroke-width="0.00795"></path>
<path d="M1.020 0.702 Q1.077 0.619 0.927 0.572" stroke="hsl(120.0,100%,35%)" stroke-width="0.01351"></path>
<path d="M1.020 0.702 Q0.716 0.791 0.823 0.959" stroke="hsl(120.0,100%,35%)" stroke-width="0.00127"></path>
<path d="M1.020 0.702 Q1.017 0.406 0.439 0.342" stroke="hsl(120.0,100%,35%)" stroke-width="0.00667"></path>
<path d="M1.020 0.702 Q1.010 0.309 0.242 0.228" stroke="hsl(120.0,100%,35%)" stroke-width="0.00286"></path>
<path d="M1.020 0.702 Q0.478 0.572 0.106 0.808" stroke="hsl(120.0,100%,35%)" stroke-width="0.00016"></path>
<path d="M1.020 0.702 Q1.360 0.709 1.448 0.545" stroke="hsl(120.0,100%,35%)" stroke-width="0.00143"></path>
<path d="M1.020 0.702 Q0.621 0.764 0.654 0.972" stroke="hsl(120.0,100%,35%)" stroke-width="0.00016"></path>
<path d="M1.020 0.702 Q1.677 0.769 1.952 0.463" stroke="hsl(120.0,100%,35%)" stroke-width="0.00032"></path>
<path d="M1.020 0.702 Q1.553 0.859 1.977 0.634" stroke="hsl(120.0,100%,35%)" stroke-width="0.00064"></path>
<path d="M1.020 0.702 Q1.652 0.636 1.663 0.313" stroke="hsl(120.0,100%,35%)" stroke-width="0.00048"></path>
<path d="M1.020 0.702 Q0.591 0.672 0.438 0.875" stroke="hsl(120.0,100%,35%)" stroke-width="0.00159"></path>
<path d="M1.020 0.702 Q1.469 0.569 1.307 0.320" stroke="hsl(120.0,100%,35%)" stroke-width="0.00016"></path>
<path d="M1.020 0.702 Q0.861 0.733 0.887 0.818" stroke="hsl(120.0,100%,35%)" stroke-width="0.00016"></path>
<path d="M0.823 0.959 Q1.246 0.652 0.740 0.378" stroke="hsl(0.0,100%,35%)" stroke-width="0.00079"></path>
<path d="M0.823 0.959 Q0.698 0.840 0.438 0.875" stroke="hsl(0.0,100%,35%)" stroke-width="0.08868"></path>
<path d="M0.823 0.959 Q0.728 0.932 0.654 0.972" stroke="hsl(0.0,100%,35%)" stroke-width="0.00874"></path>
<path d="M0.823 0.959 Q1.185 0.787 0.927 0.572" stroke="hsl(0.0,100%,35%)" stroke-width="0.00222"></path>
<path d="M0.823 0.959 Q1.240 1.142 1.688 0.979" stroke="hsl(0.0,100%,35%)" stroke-width="0.00079"></path>
<path d="M0.823 0.959 Q1.125 0.574 0.439 0.342" stroke="hsl(0.0,100%,35%)" stroke-width="0.00795"></path>
<path d="M0.823 0.959 Q1.353 0.570 0.709 0.226" stroke="hsl(0.0,100%,35%)" stroke-width="0.00445"></path>
<path d="M0.823 0.959 Q1.128 0.870 1.020 0.702" stroke="hsl(0.0,100%,35%)" stroke-width="0.00270"></path>
<path d="M0.823 0.959 Q1.660 1.027 1.977 0.634" stroke="hsl(0.0,100%,35%)" stroke-width="0.00318"></path>
<path d="M0.823 0.959 Q1.467 0.877 1.448 0.545" stroke="hsl(0.0,100%,35%)" stroke-width="0.00207"></path>
<path d="M0.823 0.959 Q1.118 0.478 0.242 0.228" stroke="hsl(0.0,100%,35%)" stroke-width="0.00191"></path>
<path d="M0.823 0.959 Q0.890 0.602 0.207 0.491" stroke="hsl(0.0,100%,35%)" stroke-width="0.00079"></path>
<path d="M0.823 0.959 Q0.968 0.902 0.887 0.818" stroke="hsl(0.0,100%,35%)" stroke-width="0.02050"></path>
<path d="M0.823 0.959 Q1.447 1.072 1.803 0.792" stroke="hsl(0.0,100%,35%)" stroke-width="0.00032"></path>
<path d="M0.823 0.959 Q1.785 0.937 1.952 0.463" stroke="hsl(0.0,100%,35%)" stroke-width="0.00350"></path>
<path d="M0.823 0.959 Q1.422 0.951 1.537 0.657" stroke="hsl(0.0,100%,35%)" stroke-width="0.00095"></path>
<path d="M0.823 0.959 Q1.006 0.796 0.726 0.671" stroke="hsl(0.0,100%,35%)" stroke-width="0.00016"></path>
<path d="M0.823 0.959 Q0.586 0.740 0.106 0.808" stroke="hsl(0.0,100%,35%)" stroke-width="0.00079"></path>
<path d="M0.823 0.959 Q0.572 0.800 0.207 0.888" stroke="hsl(0.0,100%,35%)" stroke-width="0.00191"></path>
<path d="M0.823 0.959 Q1.576 0.737 1.307 0.320" stroke="hsl(0.0,100%,35%)" stroke-width="0.00048"></path>
<path d="M0.823 0.959 Q0.871 0.686 0.348 0.602" stroke="hsl(0.0,100%,35%)" stroke-width="0.00016"></path>
<path d="M0.823 0.959 Q1.760 0.804 1.663 0.313" stroke="hsl(0.0,100%,35%)" stroke-width="0.00032"></path>
<path d="M0.823 0.959 Q1.196 1.050 1.455 0.888" stroke="hsl(0.0,100%,35%)" stroke-width="0.00016"></path>
<path d="M0.823 0.959 Q1.655 0.629 1.192 0.151" stroke="hsl(0.0,100%,35%)" stroke-width="0.00016"></path>
<path d="M1.977 0.634 Q2.101 0.543 1.952 0.463" stroke="hsl(240.0,100%,35%)" stroke-width="0.01112"></path>
<path d="M1.977 0.634 Q1.808 0.625 1.753 0.706" stroke="hsl(240.0,100%,35%)" stroke-width="0.00556"></path>
<path d="M1.977 0.634 Q2.076 0.411 1.663 0.313" stroke="hsl(240.0,100%,35%)" stroke-width="0.00095"></path>
<path d="M1.977 0.634 Q1.513 0.657 1.455 0.888" stroke="hsl(240.0,100%,35%)" stroke-width="0.00540"></path>
<path d="M1.977 0.634 Q1.015 0.447 0.438 0.875" stroke="hsl(240.0,100%,35%)" stroke-width="0.00890"></path>
<path d="M1.977 0.634 Q0.889 0.407 0.207 0.888" stroke="hsl(240.0,100%,35%)" stroke-width="0.00143"></path>
<path d="M1.977 0.634 Q1.784 0.484 1.448 0.545" stroke="hsl(240.0,100%,35%)" stroke-width="0.00413"></path>
<path d="M1.977 0.634 Q1.670 0.176 0.709 0.226" stroke="hsl(240.0,100%,35%)" stroke-width="0.00286"></path>
<path d="M1.977 0.634 Q1.739 0.557 1.537 0.657" stroke="hsl(240.0,100%,35%)" stroke-width="0.00540"></path>
<path d="M1.977 0.634 Q1.557 0.749 1.688 0.979" stroke="hsl(240.0,100%,35%)" stroke-width="0.00143"></path>
<path d="M1.977 0.634 Q1.763 0.679 1.803 0.792" stroke="hsl(240.0,100%,35%)" stroke-width="0.00381"></path>
<path d="M1.977 0.634 Q1.501 0.393 0.927 0.572" stroke="hsl(240.0,100%,35%)" stroke-width="0.00191"></path>
<path d="M1.977 0.634 Q1.422 0.319 0.685 0.520" stroke="hsl(240.0,100%,35%)" stroke-width="0.00016"></path>
<path d="M1.977 0.634 Q1.207 0.208 0.207 0.491" stroke="hsl(240.0,100%,35%)" stroke-width="0.00064"></path>
<path d="M1.977 0.634 Q2.001 0.485 1.715 0.440" stroke="hsl(240.0,100%,35%)" stroke-width="0.00381"></path>
<path d="M1.977 0.634 Q1.045 0.539 0.654 0.972" stroke="hsl(240.0,100%,35%)" stroke-width="0.00048"></path>
<path d="M1.977 0.634 Q1.188 0.292 0.348 0.602" stroke="hsl(240.0,100%,35%)" stroke-width="0.00048"></path>
<path d="M1.977 0.634 Q1.434 0.084 0.242 0.228" stroke="hsl(240.0,100%,35%)" stroke-width="0.00143"></path>
<path d="M1.977 0.634 Q1.140 0.566 0.823 0.959" stroke="hsl(240.0,100%,35%)" stroke-width="0.00381"></path>
<path d="M1.977 0.634 Q1.697 0.612 1.592 0.743" stroke="hsl(240.0,100%,35%)" stroke-width="0.00016"></path>
<path d="M1.977 0.634 Q1.441 0.180 0.439 0.342" stroke="hsl(240.0,100%,35%)" stroke-width="0.00222"></path>
<path d="M1.977 0.634 Q0.902 0.347 0.106 0.808" stroke="hsl(240.0,100%,35%)" stroke-width="0.00032"></path>
<path d="M1.977 0.634 Q1.912 0.545 1.725 0.557" stroke="hsl(240.0,100%,35%)" stroke-width="0.00207"></path>
<path d="M1.977 0.634 Q1.679 0.620 1.586 0.762" stroke="hsl(240.0,100%,35%)" stroke-width="0.00032"></path>
<path d="M1.448 0.545 Q1.105 0.241 0.439 0.342" stroke="hsl(120.0,100%,35%)" stroke-width="0.00286"></path>
<path d="M1.448 0.545 Q0.679 0.508 0.438 0.875" stroke="hsl(120.0,100%,35%)" stroke-width="0.00652"></path>
<path d="M1.448 0.545 Q1.108 0.538 1.020 0.702" stroke="hsl(120.0,100%,35%)" stroke-width="0.00191"></path>
<path d="M1.448 0.545 Q1.165 0.454 0.927 0.572" stroke="hsl(120.0,100%,35%)" stroke-width="0.00588"></path>
<path d="M1.448 0.545 Q1.641 0.695 1.977 0.634" stroke="hsl(120.0,100%,35%)" stroke-width="0.00032"></path>
<path d="M1.448 0.545 Q1.334 0.237 0.709 0.226" stroke="hsl(120.0,100%,35%)" stroke-width="0.00334"></path>
<path d="M1.448 0.545 Q0.709 0.600 0.654 0.972" stroke="hsl(120.0,100%,35%)" stroke-width="0.00032"></path>
<path d="M1.448 0.545 Q1.765 0.604 1.952 0.463" stroke="hsl(120.0,100%,35%)" stroke-width="0.00064"></path>
<path d="M1.448 0.545 Q1.665 0.546 1.715 0.440" stroke="hsl(120.0,100%,35%)" stroke-width="0.00016"></path>
<path d="M1.448 0.545 Q0.804 0.627 0.823 0.959" stroke="hsl(120.0,100%,35%)" stroke-width="0.00032"></path>
<path d="M1.448 0.545 Q0.566 0.408 0.106 0.808" stroke="hsl(120.0,100%,35%)" stroke-width="0.00016"></path>
<path d="M1.448 0.545 Q0.852 0.353 0.348 0.602" stroke="hsl(120.0,100%,35%)" stroke-width="0.00016"></path>
<path d="M1.448 0.545 Q1.098 0.145 0.242 0.228" stroke="hsl(120.0,100%,35%)" stroke-width="0.00016"></path>
<path d="M1.448 0.545 Q1.557 0.404 1.307 0.320" stroke="hsl(120.0,100%,35%)" stroke-width="0.00048"></path>
<path d="M0.438 0.875 Q0.858 0.512 0.242 0.228" stroke="hsl(0.0,100%,35%)" stroke-width="0.00397"></path>
<path d="M0.438 0.875 Q1.094 0.605 0.709 0.226" stroke="hsl(0.0,100%,35%)" stroke-width="0.00524"></path>
<path d="M0.438 0.875 Q1.400 1.062 1.977 0.634" stroke="hsl(0.0,100%,35%)" stroke-width="0.00270"></path>
<path d="M0.438 0.875 Q0.630 0.637 0.207 0.491" stroke="hsl(0.0,100%,35%)" stroke-width="0.00048"></path>
<path d="M0.438 0.875 Q0.563 0.994 0.823 0.959" stroke="hsl(0.0,100%,35%)" stroke-width="0.01367"></path>
<path d="M0.438 0.875 Q1.208 0.912 1.448 0.545" stroke="hsl(0.0,100%,35%)" stroke-width="0.00540"></path>
<path d="M0.438 0.875 Q0.865 0.609 0.439 0.342" stroke="hsl(0.0,100%,35%)" stroke-width="0.00159"></path>
<path d="M0.438 0.875 Q0.868 0.905 1.020 0.702" stroke="hsl(0.0,100%,35%)" stroke-width="0.00064"></path>
<path d="M0.438 0.875 Q0.313 0.835 0.207 0.888" stroke="hsl(0.0,100%,35%)" stroke-width="0.00064"></path>
<path d="M0.438 0.875 Q0.469 0.967 0.654 0.972" stroke="hsl(0.0,100%,35%)" stroke-width="0.00079"></path>
<path d="M0.438 0.875 Q0.925 0.822 0.927 0.572" stroke="hsl(0.0,100%,35%)" stroke-width="0.00191"></path>
<path d="M0.438 0.875 Q1.424 0.913 1.715 0.440" stroke="hsl(0.0,100%,35%)" stroke-width="0.00079"></path>
<path d="M0.438 0.875 Q1.187 1.107 1.803 0.792" stroke="hsl(0.0,100%,35%)" stroke-width="0.00016"></path>
<path d="M0.438 0.875 Q1.525 0.972 1.952 0.463" stroke="hsl(0.0,100%,35%)" stroke-width="0.00079"></path>
<path d="M0.438 0.875 Q0.708 0.936 0.887 0.818" stroke="hsl(0.0,100%,35%)" stroke-width="0.00095"></path>
<path d="M0.438 0.875 Q1.336 0.974 1.725 0.557" stroke="hsl(0.0,100%,35%)" stroke-width="0.00016"></path>
<path d="M0.438 0.875 Q1.162 0.986 1.537 0.657" stroke="hsl(0.0,100%,35%)" stroke-width="0.00048"></path>
<path d="M0.438 0.875 Q0.612 0.721 0.348 0.602" stroke="hsl(0.0,100%,35%)" stroke-width="0.00032"></path>
<path d="M0.438 0.875 Q0.326 0.775 0.106 0.808" stroke="hsl(0.0,100%,35%)" stroke-width="0.00095"></path>
<path d="M0.438 0.875 Q0.936 1.085 1.455 0.888" stroke="hsl(0.0,100%,35%)" stroke-width="0.00032"></path>
<path d="M0.438 0.875 Q1.317 0.771 1.307 0.320" stroke="hsl(0.0,100%,35%)" stroke-width="0.00016"></path>
<path d="M1.455 0.888 Q1.943 0.716 1.715 0.440" stroke="hsl(240.0,100%,35%)" stroke-width="0.00207"></path>
<path d="M1.455 0.888 Q1.377 0.316 0.242 0.228" stroke="hsl(240.0,100%,35%)" stroke-width="0.00016"></path>
<path d="M1.455 0.888 Q1.681 0.789 1.537 0.657" stroke="hsl(240.0,100%,35%)" stroke-width="0.00175"></path>
<path d="M1.455 0.888 Q1.727 0.715 1.448 0.545" stroke="hsl(240.0,100%,35%)" stroke-width="0.00016"></path>
<path d="M1.455 0.888 Q1.919 0.866 1.977 0.634" stroke="hsl(240.0,100%,35%)" stroke-width="0.00064"></path>
<path d="M1.455 0.888 Q1.384 0.412 0.439 0.342" stroke="hsl(240.0,100%,35%)" stroke-width="0.00048"></path>
<path d="M1.455 0.888 Q1.613 0.408 0.709 0.226" stroke="hsl(240.0,100%,35%)" stroke-width="0.00016"></path>
<path d="M1.455 0.888 Q1.750 0.857 1.753 0.706" stroke="hsl(240.0,100%,35%)" stroke-width="0.00016"></path>
<path d="M1.455 0.888 Q0.957 0.678 0.438 0.875" stroke="hsl(240.0,100%,35%)" stroke-width="0.00016"></path>
<path d="M1.455 0.888 Q1.130 0.524 0.348 0.602" stroke="hsl(240.0,100%,35%)" stroke-width="0.00016"></path>
<path d="M1.952 0.463 Q1.407 0.668 1.688 0.979" stroke="hsl(240.0,100%,35%)" stroke-width="0.00127"></path>
<path d="M1.952 0.463 Q1.827 0.553 1.977 0.634" stroke="hsl(240.0,100%,35%)" stroke-width="0.00127"></path>
<path d="M1.952 0.463 Q1.285 0.003 0.242 0.228" stroke="hsl(240.0,100%,35%)" stroke-width="0.01271"></path>
<path d="M1.952 0.463 Q0.865 0.366 0.438 0.875" stroke="hsl(240.0,100%,35%)" stroke-width="0.00175"></path>
<path d="M1.952 0.463 Q0.752 0.266 0.106 0.808" stroke="hsl(240.0,100%,35%)" stroke-width="0.00143"></path>
<path d="M1.952 0.463 Q0.990 0.485 0.823 0.959" stroke="hsl(240.0,100%,35%)" stroke-width="0.00079"></path>
<path d="M1.952 0.463 Q1.589 0.477 1.537 0.657" stroke="hsl(240.0,100%,35%)" stroke-width="0.00016"></path>
<path d="M1.952 0.463 Q1.292 0.100 0.439 0.342" stroke="hsl(240.0,100%,35%)" stroke-width="0.00032"></path>
<path d="M1.952 0.463 Q1.294 0.396 1.020 0.702" stroke="hsl(240.0,100%,35%)" stroke-width="0.00016"></path>
<path d="M1.952 0.463 Q2.083 0.359 1.911 0.272" stroke="hsl(240.0,100%,35%)" stroke-width="0.00032"></path>
<path d="M1.952 0.463 Q0.739 0.326 0.207 0.888" stroke="hsl(240.0,100%,35%)" stroke-width="0.00016"></path>
<path d="M1.952 0.463 Q1.520 0.096 0.709 0.226" stroke="hsl(240.0,100%,35%)" stroke-width="0.00032"></path>
<path d="M1.952 0.463 Q1.057 0.128 0.207 0.491" stroke="hsl(240.0,100%,35%)" stroke-width="0.00032"></path>
<path d="M1.952 0.463 Q1.352 0.313 0.927 0.572" stroke="hsl(240.0,100%,35%)" stroke-width="0.00032"></path>
<path d="M1.952 0.463 Q1.038 0.212 0.348 0.602" stroke="hsl(240.0,100%,35%)" stroke-width="0.00032"></path>
<path d="M1.952 0.463 Q1.822 0.155 1.192 0.151" stroke="hsl(240.0,100%,35%)" stroke-width="0.00016"></path>
<path d="M0.207 0.491 Q1.102 0.825 1.952 0.463" stroke="hsl(240.0,100%,35%)" stroke-width="0.00318"></path>
<path d="M0.207 0.491 Q0.445 0.759 1.020 0.702" stroke="hsl(240.0,100%,35%)" stroke-width="0.00016"></path>
<path d="M0.207 0.491 Q0.015 0.729 0.438 0.875" stroke="hsl(240.0,100%,35%)" stroke-width="0.00095"></path>
<path d="M0.207 0.491 Q0.435 0.366 0.242 0.228" stroke="hsl(240.0,100%,35%)" stroke-width="0.00048"></path>
<path d="M0.207 0.491 Q-0.097 0.629 0.106 0.808" stroke="hsl(240.0,100%,35%)" stroke-width="0.00016"></path>
<path d="M0.207 0.491 Q0.140 0.848 0.823 0.959" stroke="hsl(240.0,100%,35%)" stroke-width="0.00222"></path>
<path d="M0.207 0.491 Q0.764 0.961 1.803 0.792" stroke="hsl(240.0,100%,35%)" stroke-width="0.00016"></path>
<path d="M0.207 0.491 Q0.972 0.518 1.192 0.151" stroke="hsl(240.0,100%,35%)" stroke-width="0.00032"></path>
<path d="M0.207 0.491 Q0.977 0.916 1.977 0.634" stroke="hsl(240.0,100%,35%)" stroke-width="0.00032"></path>
<path d="M0.207 0.491 Q0.557 1.031 1.688 0.979" stroke="hsl(240.0,100%,35%)" stroke-width="0.00032"></path>
<path d="M0.887 0.818 Q0.742 0.876 0.823 0.959" stroke="hsl(0.0,100%,35%)" stroke-width="0.02273"></path>
<path d="M0.887 0.818 Q0.647 0.849 0.654 0.972" stroke="hsl(0.0,100%,35%)" stroke-width="0.00032"></path>
<path d="M0.887 0.818 Q0.617 0.757 0.438 0.875" stroke="hsl(0.0,100%,35%)" stroke-width="0.00890"></path>
<path d="M0.887 0.818 Q1.386 0.794 1.448 0.545" stroke="hsl(0.0,100%,35%)" stroke-width="0.00032"></path>
<path d="M0.106 0.808 Q0.093 0.868 0.207 0.888" stroke="hsl(240.0,100%,35%)" stroke-width="0.00191"></path>
<path d="M0.106 0.808 Q0.218 0.908 0.438 0.875" stroke="hsl(240.0,100%,35%)" stroke-width="0.00048"></path>
<path d="M0.106 0.808 Q0.343 1.027 0.823 0.959" stroke="hsl(240.0,100%,35%)" stroke-width="0.00016"></path>
<path d="M0.106 0.808 Q1.116 1.006 1.725 0.557" stroke="hsl(240.0,100%,35%)" stroke-width="0.00048"></path>
<path d="M0.106 0.808 Q0.705 0.854 0.927 0.572" stroke="hsl(240.0,100%,35%)" stroke-width="0.00016"></path>
<path d="M0.106 0.808 Q0.873 0.638 0.709 0.226" stroke="hsl(240.0,100%,35%)" stroke-width="0.00016"></path>
<path d="M0.106 0.808 Q0.391 0.753 0.348 0.602" stroke="hsl(240.0,100%,35%)" stroke-width="0.00016"></path>
<path d="M1.239 0.589 Q0.735 0.691 0.823 0.959" stroke="hsl(0.0,100%,35%)" stroke-width="0.00016"></path>
<path d="M1.239 0.589 Q0.610 0.572 0.438 0.875" stroke="hsl(0.0,100%,35%)" stroke-width="0.00016"></path>
<path d="M1.239 0.589 Q1.595 0.610 1.715 0.440" stroke="hsl(0.0,100%,35%)" stroke-width="0.00016"></path>
<path d="M1.715 0.440 Q1.453 0.513 1.537 0.657" stroke="hsl(240.0,100%,35%)" stroke-width="0.00032"></path>
<path d="M1.715 0.440 Q1.226 0.613 1.455 0.888" stroke="hsl(240.0,100%,35%)" stroke-width="0.00207"></path>
<path d="M1.715 0.440 Q0.902 0.248 0.348 0.602" stroke="hsl(240.0,100%,35%)" stroke-width="0.00016"></path>
<path d="M1.715 0.440 Q1.691 0.590 1.977 0.634" stroke="hsl(240.0,100%,35%)" stroke-width="0.00016"></path>
<path d="M1.715 0.440 Q0.729 0.403 0.438 0.875" stroke="hsl(240.0,100%,35%)" stroke-width="0.00016"></path>
<path d="M1.715 0.440 Q0.616 0.302 0.106 0.808" stroke="hsl(240.0,100%,35%)" stroke-width="0.00016"></path>
<path d="M1.715 0.440 Q0.854 0.522 0.823 0.959" stroke="hsl(240.0,100%,35%)" stroke-width="0.00032"></path>
<path d="M1.715 0.440 Q1.790 0.367 1.663 0.313" stroke="hsl(240.0,100%,35%)" stroke-width="0.00032"></path>
<path d="M1.715 0.440 Q1.384 0.132 0.709 0.226" stroke="hsl(240.0,100%,35%)" stroke-width="0.00016"></path>
<path d="M1.715 0.440 Q0.603 0.363 0.207 0.888" stroke="hsl(240.0,100%,35%)" stroke-width="0.00016"></path>
<path d="M1.537 0.657 Q1.799 0.584 1.715 0.440" stroke="hsl(240.0,100%,35%)" stroke-width="0.00111"></path>
<path d="M1.537 0.657 Q1.300 0.493 0.927 0.572" stroke="hsl(240.0,100%,35%)" stroke-width="0.00095"></path>
<path d="M1.537 0.657 Q1.775 0.733 1.977 0.634" stroke="hsl(240.0,100%,35%)" stroke-width="0.00016"></path>
<path d="M1.537 0.657 Q1.311 0.756 1.455 0.888" stroke="hsl(240.0,100%,35%)" stroke-width="0.00095"></path>
<path d="M1.537 0.657 Q0.938 0.665 0.823 0.959" stroke="hsl(240.0,100%,35%)" stroke-width="0.00032"></path>
<path d="M1.537 0.657 Q1.899 0.643 1.952 0.463" stroke="hsl(240.0,100%,35%)" stroke-width="0.00048"></path>
<path d="M1.537 0.657 Q1.874 0.510 1.663 0.313" stroke="hsl(240.0,100%,35%)" stroke-width="0.00016"></path>
<path d="M1.537 0.657 Q0.813 0.546 0.438 0.875" stroke="hsl(240.0,100%,35%)" stroke-width="0.00016"></path>
<path d="M0.348 0.602 Q0.200 0.601 0.165 0.672" stroke="hsl(240.0,100%,35%)" stroke-width="0.00016"></path>
<path d="M0.348 0.602 Q1.160 0.795 1.715 0.440" stroke="hsl(240.0,100%,35%)" stroke-width="0.00095"></path>
<path d="M0.348 0.602 Q1.137 0.944 1.977 0.634" stroke="hsl(240.0,100%,35%)" stroke-width="0.00016"></path>
<path d="M0.348 0.602 Q0.899 0.867 1.537 0.657" stroke="hsl(240.0,100%,35%)" stroke-width="0.00016"></path>
<path d="M1.663 0.313 Q1.031 0.379 1.020 0.702" stroke="hsl(240.0,100%,35%)" stroke-width="0.00064"></path>
<path d="M1.663 0.313 Q1.688 0.446 1.952 0.463" stroke="hsl(240.0,100%,35%)" stroke-width="0.00095"></path>
<path d="M1.663 0.313 Q1.088 0.296 0.927 0.572" stroke="hsl(240.0,100%,35%)" stroke-width="0.00016"></path>
<path d="M1.663 0.313 Q1.563 0.536 1.977 0.634" stroke="hsl(240.0,100%,35%)" stroke-width="0.00032"></path>
<path d="M1.663 0.313 Q0.774 0.195 0.348 0.602" stroke="hsl(240.0,100%,35%)" stroke-width="0.00016"></path>
<path d="M1.663 0.313 Q1.099 0.559 1.455 0.888" stroke="hsl(240.0,100%,35%)" stroke-width="0.00048"></path>
<path d="M1.663 0.313 Q1.325 0.460 1.537 0.657" stroke="hsl(240.0,100%,35%)" stroke-width="0.00048"></path>
<path d="M1.663 0.313 Q1.394 0.528 1.753 0.706" stroke="hsl(240.0,100%,35%)" stroke-width="0.00032"></path>
<path d="M0.709 0.226 Q0.541 0.443 0.927 0.572" stroke="hsl(120.0,100%,35%)" stroke-width="0.00652"></path>
<path d="M0.709 0.226 Q1.016 0.683 1.977 0.634" stroke="hsl(120.0,100%,35%)" stroke-width="0.00191"></path>
<path d="M0.709 0.226 Q0.462 0.368 0.685 0.520" stroke="hsl(120.0,100%,35%)" stroke-width="0.00048"></path>
<path d="M0.709 0.226 Q0.054 0.496 0.438 0.875" stroke="hsl(120.0,100%,35%)" stroke-width="0.00381"></path>
<path d="M0.709 0.226 Q0.824 0.533 1.448 0.545" stroke="hsl(120.0,100%,35%)" stroke-width="0.00191"></path>
<path d="M0.709 0.226 Q0.597 0.798 1.688 0.979" stroke="hsl(120.0,100%,35%)" stroke-width="0.00048"></path>
<path d="M0.709 0.226 Q0.484 0.526 1.020 0.702" stroke="hsl(120.0,100%,35%)" stroke-width="0.00810"></path>
<path d="M0.709 0.226 Q0.179 0.615 0.823 0.959" stroke="hsl(120.0,100%,35%)" stroke-width="0.00095"></path>
<path d="M0.709 0.226 Q-0.071 0.456 0.207 0.888" stroke="hsl(120.0,100%,35%)" stroke-width="0.00016"></path>
<path d="M0.709 0.226 Q0.602 0.308 0.740 0.378" stroke="hsl(120.0,100%,35%)" stroke-width="0.00016"></path>
<path d="M0.709 0.226 Q0.481 0.230 0.439 0.342" stroke="hsl(120.0,100%,35%)" stroke-width="0.01271"></path>
<path d="M0.709 0.226 Q0.474 0.133 0.242 0.228" stroke="hsl(120.0,100%,35%)" stroke-width="0.00079"></path>
<path d="M0.709 0.226 Q0.552 0.706 1.455 0.888" stroke="hsl(120.0,100%,35%)" stroke-width="0.00016"></path>
<path d="M0.709 0.226 Q0.803 0.728 1.803 0.792" stroke="hsl(120.0,100%,35%)" stroke-width="0.00016"></path>
<path d="M0.709 0.226 Q1.141 0.593 1.952 0.463" stroke="hsl(120.0,100%,35%)" stroke-width="0.00032"></path>
<path d="M0.709 0.226 Q0.932 0.392 1.307 0.320" stroke="hsl(120.0,100%,35%)" stroke-width="0.00238"></path>
<path d="M0.709 0.226 Q1.011 0.285 1.192 0.151" stroke="hsl(120.0,100%,35%)" stroke-width="0.00095"></path>
<path d="M0.207 0.888 Q0.221 0.828 0.106 0.808" stroke="hsl(240.0,100%,35%)" stroke-width="0.00159"></path>
<path d="M0.207 0.888 Q0.831 1.138 1.455 0.888" stroke="hsl(240.0,100%,35%)" stroke-width="0.00048"></path>
<path d="M0.207 0.888 Q0.333 0.928 0.438 0.875" stroke="hsl(240.0,100%,35%)" stroke-width="0.00048"></path>
<path d="M0.207 0.888 Q0.753 0.565 0.242 0.228" stroke="hsl(240.0,100%,35%)" stroke-width="0.00016"></path>
<path d="M0.207 0.888 Q0.458 1.047 0.823 0.959" stroke="hsl(240.0,100%,35%)" stroke-width="0.00016"></path>
<path d="M0.207 0.888 Q1.102 0.964 1.448 0.545" stroke="hsl(240.0,100%,35%)" stroke-width="0.00016"></path>
<path d="M0.207 0.888 Q0.820 0.874 0.927 0.572" stroke="hsl(240.0,100%,35%)" stroke-width="0.00079"></path>
<path d="M0.207 0.888 Q0.506 0.773 0.348 0.602" stroke="hsl(240.0,100%,35%)" stroke-width="0.00016"></path>
<path d="M0.207 0.888 Q1.295 1.115 1.977 0.634" stroke="hsl(240.0,100%,35%)" stroke-width="0.00048"></path>
<path d="M0.207 0.888 Q1.319 0.966 1.715 0.440" stroke="hsl(240.0,100%,35%)" stroke-width="0.00016"></path>
<path d="M0.242 0.228 Q0.249 0.324 0.439 0.342" stroke="hsl(120.0,100%,35%)" stroke-width="0.02908"></path>
<path d="M0.242 0.228 Q-0.052 0.710 0.823 0.959" stroke="hsl(120.0,100%,35%)" stroke-width="0.00302"></path>
<path d="M0.242 0.228 Q-0.177 0.591 0.438 0.875" stroke="hsl(120.0,100%,35%)" stroke-width="0.01033"></path>
<path d="M0.242 0.228 Q0.785 0.778 1.977 0.634" stroke="hsl(120.0,100%,35%)" stroke-width="0.00079"></path>
<path d="M0.242 0.228 Q0.252 0.621 1.020 0.702" stroke="hsl(120.0,100%,35%)" stroke-width="0.00207"></path>
<path d="M0.242 0.228 Q0.592 0.627 1.448 0.545" stroke="hsl(120.0,100%,35%)" stroke-width="0.00064"></path>
<path d="M0.242 0.228 Q0.909 0.687 1.952 0.463" stroke="hsl(120.0,100%,35%)" stroke-width="0.00667"></path>
<path d="M0.242 0.228 Q0.309 0.537 0.927 0.572" stroke="hsl(120.0,100%,35%)" stroke-width="0.00159"></path>
<path d="M0.242 0.228 Q0.808 0.629 1.715 0.440" stroke="hsl(120.0,100%,35%)" stroke-width="0.00016"></path>
<path d="M0.242 0.228 Q0.478 0.320 0.709 0.226" stroke="hsl(120.0,100%,35%)" stroke-width="0.00079"></path>
<path d="M0.242 0.228 Q-0.147 0.682 0.654 0.972" stroke="hsl(120.0,100%,35%)" stroke-width="0.00016"></path>
<path d="M0.242 0.228 Q0.093 0.652 0.887 0.818" stroke="hsl(120.0,100%,35%)" stroke-width="0.00016"></path>
<path d="M0.242 0.228 Q0.779 0.379 1.192 0.151" stroke="hsl(120.0,100%,35%)" stroke-width="0.00016"></path>
<path d="M0.242 0.228 Q0.701 0.487 1.307 0.320" stroke="hsl(120.0,100%,35%)" stroke-width="0.00016"></path>
<path d="M0.439 0.342 Q0.667 0.338 0.709 0.226" stroke="hsl(120.0,100%,35%)" stroke-width="0.01828"></path>
<path d="M0.439 0.342 Q0.499 0.555 0.927 0.572" stroke="hsl(120.0,100%,35%)" stroke-width="0.00636"></path>
<path d="M0.439 0.342 Q0.441 0.638 1.020 0.702" stroke="hsl(120.0,100%,35%)" stroke-width="0.00779"></path>
<path d="M0.439 0.342 Q0.137 0.727 0.823 0.959" stroke="hsl(120.0,100%,35%)" stroke-width="0.00191"></path>
<path d="M0.439 0.342 Q0.012 0.608 0.438 0.875" stroke="hsl(120.0,100%,35%)" stroke-width="0.00302"></path>
<path d="M0.439 0.342 Q0.998 0.646 1.715 0.440" stroke="hsl(120.0,100%,35%)" stroke-width="0.00111"></path>
<path d="M0.439 0.342 Q0.431 0.246 0.242 0.228" stroke="hsl(120.0,100%,35%)" stroke-width="0.00079"></path>
<path d="M0.439 0.342 Q0.510 0.818 1.455 0.888" stroke="hsl(120.0,100%,35%)" stroke-width="0.00032"></path>
<path d="M0.439 0.342 Q0.890 0.505 1.307 0.320" stroke="hsl(120.0,100%,35%)" stroke-width="0.00048"></path>
<path d="M0.439 0.342 Q0.781 0.645 1.448 0.545" stroke="hsl(120.0,100%,35%)" stroke-width="0.00048"></path>
<path d="M0.439 0.342 Q0.974 0.796 1.977 0.634" stroke="hsl(120.0,100%,35%)" stroke-width="0.00016"></path>
<path d="M0.439 0.342 Q0.554 0.910 1.688 0.979" stroke="hsl(120.0,100%,35%)" stroke-width="0.00048"></path>
<path d="M0.439 0.342 Q0.204 0.370 0.207 0.491" stroke="hsl(120.0,100%,35%)" stroke-width="0.00016"></path>
<path d="M1.803 0.792 Q1.597 0.863 1.688 0.979" stroke="hsl(240.0,100%,35%)" stroke-width="0.00461"></path>
<path d="M1.803 0.792 Q2.017 0.748 1.977 0.634" stroke="hsl(240.0,100%,35%)" stroke-width="0.00111"></path>
<path d="M1.803 0.792 Q2.141 0.657 1.952 0.463" stroke="hsl(240.0,100%,35%)" stroke-width="0.00048"></path>
<path d="M1.803 0.792 Q1.180 0.680 0.823 0.959" stroke="hsl(240.0,100%,35%)" stroke-width="0.00032"></path>
<path d="M1.803 0.792 Q1.055 0.561 0.438 0.875" stroke="hsl(240.0,100%,35%)" stroke-width="0.00032"></path>
<path d="M1.803 0.792 Q1.824 0.597 1.448 0.545" stroke="hsl(240.0,100%,35%)" stroke-width="0.00032"></path>
<path d="M1.725 0.557 Q1.789 0.646 1.977 0.634" stroke="hsl(240.0,100%,35%)" stroke-width="0.00064"></path>
<path d="M1.725 0.557 Q0.715 0.359 0.106 0.808" stroke="hsl(240.0,100%,35%)" stroke-width="0.00143"></path>
<path d="M1.725 0.557 Q0.827 0.459 0.438 0.875" stroke="hsl(240.0,100%,35%)" stroke-width="0.00016"></path>
<path d="M1.725 0.557 Q0.702 0.419 0.207 0.888" stroke="hsl(240.0,100%,35%)" stroke-width="0.00032"></path>
<path d="M1.307 0.320 Q1.084 0.153 0.709 0.226" stroke="hsl(120.0,100%,35%)" stroke-width="0.00445"></path>
<path d="M1.307 0.320 Q0.916 0.370 0.927 0.572" stroke="hsl(120.0,100%,35%)" stroke-width="0.00397"></path>
<path d="M1.307 0.320 Q0.858 0.454 1.020 0.702" stroke="hsl(120.0,100%,35%)" stroke-width="0.00048"></path>
<path d="M1.307 0.320 Q1.177 0.656 1.803 0.792" stroke="hsl(120.0,100%,35%)" stroke-width="0.00016"></path>
<path d="M1.307 0.320 Q0.856 0.157 0.439 0.342" stroke="hsl(120.0,100%,35%)" stroke-width="0.00095"></path>
<path d="M1.307 0.320 Q0.429 0.424 0.438 0.875" stroke="hsl(120.0,100%,35%)" stroke-width="0.00032"></path>
<path d="M1.307 0.320 Q0.849 0.061 0.242 0.228" stroke="hsl(120.0,100%,35%)" stroke-width="0.00032"></path>
<path d="M1.307 0.320 Q1.198 0.461 1.448 0.545" stroke="hsl(120.0,100%,35%)" stroke-width="0.00079"></path>
<path d="M1.688 0.979 Q2.233 0.773 1.952 0.463" stroke="hsl(240.0,100%,35%)" stroke-width="0.00222"></path>
<path d="M1.688 0.979 Q1.146 0.677 0.438 0.875" stroke="hsl(240.0,100%,35%)" stroke-width="0.00191"></path>
<path d="M1.688 0.979 Q1.566 0.314 0.242 0.228" stroke="hsl(240.0,100%,35%)" stroke-width="0.00016"></path>
<path d="M1.688 0.979 Q1.895 0.909 1.803 0.792" stroke="hsl(240.0,100%,35%)" stroke-width="0.00381"></path>
<path d="M1.688 0.979 Q1.271 0.796 0.823 0.959" stroke="hsl(240.0,100%,35%)" stroke-width="0.00016"></path>
<path d="M1.688 0.979 Q1.915 0.713 1.448 0.545" stroke="hsl(240.0,100%,35%)" stroke-width="0.00079"></path>
<path d="M1.688 0.979 Q1.338 0.438 0.207 0.491" stroke="hsl(240.0,100%,35%)" stroke-width="0.00016"></path>
<path d="M1.688 0.979 Q2.108 0.864 1.977 0.634" stroke="hsl(240.0,100%,35%)" stroke-width="0.00095"></path>
<path d="M1.688 0.979 Q1.633 0.623 0.927 0.572" stroke="hsl(240.0,100%,35%)" stroke-width="0.00016"></path>
<path d="M1.688 0.979 Q1.034 0.577 0.106 0.808" stroke="hsl(240.0,100%,35%)" stroke-width="0.00016"></path>
<path d="M1.688 0.979 Q1.801 0.406 0.709 0.226" stroke="hsl(240.0,100%,35%)" stroke-width="0.00016"></path>
<path d="M1.688 0.979 Q2.103 0.465 1.192 0.151" stroke="hsl(240.0,100%,35%)" stroke-width="0.00032"></path>
<path d="M1.688 0.979 Q1.021 0.637 0.207 0.888" stroke="hsl(240.0,100%,35%)" stroke-width="0.00016"></path>
<path d="M1.911 0.272 Q1.779 0.376 1.952 0.463" stroke="hsl(240.0,100%,35%)" stroke-width="0.00461"></path>
<path d="M1.911 0.272 Q1.654 0.466 1.977 0.634" stroke="hsl(240.0,100%,35%)" stroke-width="0.00016"></path>
<path d="M1.911 0.272 Q1.235 0.581 1.688 0.979" stroke="hsl(240.0,100%,35%)" stroke-width="0.00079"></path>
<path d="M1.911 0.272 Q1.119 0.013 0.439 0.342" stroke="hsl(240.0,100%,35%)" stroke-width="0.00016"></path>
<path d="M1.911 0.272 Q1.462 0.316 1.448 0.545" stroke="hsl(240.0,100%,35%)" stroke-width="0.00016"></path>
<path d="M1.911 0.272 Q0.580 0.179 0.106 0.808" stroke="hsl(240.0,100%,35%)" stroke-width="0.00032"></path>
<path d="M1.911 0.272 Q1.112 -0.084 0.242 0.228" stroke="hsl(240.0,100%,35%)" stroke-width="0.00016"></path>
<path d="M1.192 0.151 Q0.409 0.207 0.348 0.602" stroke="hsl(240.0,100%,35%)" stroke-width="0.00016"></path>
<path d="M1.192 0.151 Q0.656 -0.001 0.242 0.228" stroke="hsl(240.0,100%,35%)" stroke-width="0.00016"></path>
<path d="M1.192 0.151 Q0.778 0.664 1.688 0.979" stroke="hsl(240.0,100%,35%)" stroke-width="0.00032"></path>
<path d="M1.192 0.151 Q1.005 0.399 1.448 0.545" stroke="hsl(240.0,100%,35%)" stroke-width="0.00016"></path>
<path d="M1.582 0.408 Q1.723 0.509 1.952 0.463" stroke="hsl(240.0,100%,35%)" stroke-width="0.00016"></path>
<path d="M1.582 0.408 Q1.123 0.359 0.927 0.572" stroke="hsl(240.0,100%,35%)" stroke-width="0.00016"></path>
<path d="M1.582 0.408 Q1.599 0.600 1.977 0.634" stroke="hsl(240.0,100%,35%)" stroke-width="0.00016"></path>
<path d="M1.582 0.408 Q1.179 0.715 1.688 0.979" stroke="hsl(240.0,100%,35%)" stroke-width="0.00016"></path>
<path d="M1.582 0.408 Q0.829 0.174 0.207 0.491" stroke="hsl(240.0,100%,35%)" stroke-width="0.00016"></path>
<path d="M0.685 0.520 Q0.933 0.378 0.709 0.226" stroke="hsl(120.0,100%,35%)" stroke-width="0.00048"></path>
<path d="M0.685 0.520 Q0.764 0.595 0.927 0.572" stroke="hsl(120.0,100%,35%)" stroke-width="0.00111"></path>
<path d="M0.685 0.520 Q0.278 0.648 0.438 0.875" stroke="hsl(120.0,100%,35%)" stroke-width="0.00016"></path>
<path d="M0.685 0.520 Q1.240 0.835 1.977 0.634" stroke="hsl(120.0,100%,35%)" stroke-width="0.00048"></path>
<path d="M0.685 0.520 Q1.026 0.880 1.803 0.792" stroke="hsl(120.0,100%,35%)" stroke-width="0.00016"></path>
<path d="M0.740 0.378 Q0.847 0.296 0.709 0.226" stroke="hsl(120.0,100%,35%)" stroke-width="0.00016"></path>
<path d="M0.740 0.378 Q0.621 0.596 1.020 0.702" stroke="hsl(120.0,100%,35%)" stroke-width="0.00048"></path>
<path d="M0.740 0.378 Q0.316 0.686 0.823 0.959" stroke="hsl(120.0,100%,35%)" stroke-width="0.00048"></path>
<path d="M0.740 0.378 Q0.618 0.300 0.439 0.342" stroke="hsl(120.0,100%,35%)" stroke-width="0.00064"></path>
<path d="M0.740 0.378 Q1.154 0.754 1.977 0.634" stroke="hsl(120.0,100%,35%)" stroke-width="0.00048"></path>
<path d="M0.740 0.378 Q0.678 0.513 0.927 0.572" stroke="hsl(120.0,100%,35%)" stroke-width="0.00032"></path>
<path d="M1.169 0.504 Q0.631 0.663 0.823 0.959" stroke="hsl(120.0,100%,35%)" stroke-width="0.00016"></path>
<path d="M1.169 0.504 Q0.993 0.490 0.927 0.572" stroke="hsl(120.0,100%,35%)" stroke-width="0.00016"></path>
<path d="M1.169 0.504 Q0.933 0.277 0.439 0.342" stroke="hsl(120.0,100%,35%)" stroke-width="0.00016"></path>
<path d="M1.169 0.504 Q1.276 0.580 1.448 0.545" stroke="hsl(120.0,100%,35%)" stroke-width="0.00016"></path>
<path d="M1.169 0.504 Q0.926 0.181 0.242 0.228" stroke="hsl(120.0,100%,35%)" stroke-width="0.00016"></path>
<path d="M1.753 0.706 Q1.922 0.715 1.977 0.634" stroke="hsl(240.0,100%,35%)" stroke-width="0.00111"></path>
<path d="M1.753 0.706 Q1.684 0.638 1.537 0.657" stroke="hsl(240.0,100%,35%)" stroke-width="0.00064"></path>
<path d="M1.753 0.706 Q1.615 0.257 0.709 0.226" stroke="hsl(240.0,100%,35%)" stroke-width="0.00016"></path>
<path d="M1.753 0.706 Q1.946 0.565 1.715 0.440" stroke="hsl(240.0,100%,35%)" stroke-width="0.00032"></path>
<path d="M1.753 0.706 Q0.960 0.527 0.438 0.875" stroke="hsl(240.0,100%,35%)" stroke-width="0.00016"></path>
<path d="M1.753 0.706 Q0.848 0.427 0.106 0.808" stroke="hsl(240.0,100%,35%)" stroke-width="0.00016"></path>
<path d="M0.575 1.386 Q0.916 1.103 0.438 0.875" stroke="hsl(240.0,100%,35%)" stroke-width="0.00048"></path>
<path d="M0.575 1.386 Q2.002 1.200 1.952 0.463" stroke="hsl(240.0,100%,35%)" stroke-width="0.00016"></path>
<path d="M0.575 1.386 Q1.878 1.290 1.977 0.634" stroke="hsl(240.0,100%,35%)" stroke-width="0.00016"></path>
<path d="M0.224 0.402 Q0.914 0.869 1.977 0.634" stroke="hsl(240.0,100%,35%)" stroke-width="0.00016"></path>
<path d="M0.224 0.402 Q0.144 0.443 0.207 0.491" stroke="hsl(240.0,100%,35%)" stroke-width="0.00238"></path>
<path d="M0.224 0.402 Q1.039 0.778 1.952 0.463" stroke="hsl(240.0,100%,35%)" stroke-width="0.00079"></path>
<path d="M0.479 0.709 Q0.325 0.784 0.438 0.875" stroke="hsl(120.0,100%,35%)" stroke-width="0.00032"></path>
<path d="M0.479 0.709 Q1.412 0.880 1.952 0.463" stroke="hsl(120.0,100%,35%)" stroke-width="0.00016"></path>
<path d="M0.479 0.709 Q0.812 0.730 0.927 0.572" stroke="hsl(120.0,100%,35%)" stroke-width="0.00032"></path>
<path d="M1.264 0.693 Q1.192 0.565 0.927 0.572" stroke="hsl(120.0,100%,35%)" stroke-width="0.00079"></path>
<path d="M1.264 0.693 Q1.203 0.829 1.455 0.888" stroke="hsl(120.0,100%,35%)" stroke-width="0.00016"></path>
<path d="M1.264 0.693 Q1.499 0.797 1.753 0.706" stroke="hsl(120.0,100%,35%)" stroke-width="0.00016"></path>
<path d="M1.722 0.750 Q1.407 0.289 0.439 0.342" stroke="hsl(240.0,100%,35%)" stroke-width="0.00016"></path>
<path d="M1.722 0.750 Q0.868 0.456 0.106 0.808" stroke="hsl(240.0,100%,35%)" stroke-width="0.00032"></path>
<path d="M1.722 0.750 Q2.067 0.652 1.952 0.463" stroke="hsl(240.0,100%,35%)" stroke-width="0.00048"></path>
<path d="M1.722 0.750 Q1.400 0.193 0.242 0.228" stroke="hsl(240.0,100%,35%)" stroke-width="0.00016"></path>
</g>
<text x="0.654" y="0.959" font-size="0.025540" fill="hsl(0.0,100%,20%)">armansito</text>
<text x="0.927" y="0.548" font-size="0.049122" fill="hsl(120.0,100%,20%)">egdaniel</text>
<text x="1.020" y="0.678" font-size="0.047083" fill="hsl(120.0,100%,20%)">jvanverth</text>
<text x="0.823" y="0.919" font-size="0.080429" fill="hsl(0.0,100%,20%)">johnstiles</text>
<text x="1.977" y="0.608" font-size="0.052780" fill="hsl(240.0,100%,20%)">kjlubick</text>
<text x="1.448" y="0.526" font-size="0.037778" fill="hsl(120.0,100%,20%)">bsalomon</text>
<text x="0.438" y="0.837" font-size="0.075426" fill="hsl(0.0,100%,20%)">brianosman</text>
<text x="1.455" y="0.877" font-size="0.022693" fill="hsl(240.0,100%,20%)">rmistry</text>
<text x="1.952" y="0.441" font-size="0.042771" fill="hsl(240.0,100%,20%)">bungeman</text>
<text x="0.207" y="0.480" font-size="0.020417" fill="hsl(240.0,100%,20%)">jlavrova</text>
<text x="0.887" y="0.798" font-size="0.040955" fill="hsl(0.0,100%,20%)">ethannicholas</text>
<text x="0.106" y="0.798" font-size="0.019306" fill="hsl(240.0,100%,20%)">djsollen</text>
<text x="1.239" y="0.587" font-size="0.003836" fill="hsl(0.0,100%,20%)">bajones</text>
<text x="1.715" y="0.430" font-size="0.021471" fill="hsl(240.0,100%,20%)">borenet</text>
<text x="1.537" y="0.646" font-size="0.021471" fill="hsl(240.0,100%,20%)">jcgregorio</text>
<text x="0.348" y="0.597" font-size="0.010849" fill="hsl(240.0,100%,20%)">hcm</text>
<text x="1.663" y="0.307" font-size="0.013287" fill="hsl(240.0,100%,20%)">erikrose</text>
<text x="0.709" y="0.198" font-size="0.054516" fill="hsl(120.0,100%,20%)">michaelludwig</text>
<text x="0.207" y="0.878" font-size="0.018921" fill="hsl(240.0,100%,20%)">scroggo</text>
<text x="0.242" y="0.203" font-size="0.050403" fill="hsl(120.0,100%,20%)">herb</text>
<text x="0.439" y="0.312" font-size="0.059175" fill="hsl(120.0,100%,20%)">robertphillips</text>
<text x="1.803" y="0.781" font-size="0.022146" fill="hsl(240.0,100%,20%)">jmbetancourt</text>
<text x="1.725" y="0.551" font-size="0.012722" fill="hsl(240.0,100%,20%)">nifong</text>
<text x="1.307" y="0.309" font-size="0.022908" fill="hsl(120.0,100%,20%)">csmartdalton</text>
<text x="1.688" y="0.966" font-size="0.026015" fill="hsl(240.0,100%,20%)">fmalita</text>
<text x="1.911" y="0.265" font-size="0.014352" fill="hsl(240.0,100%,20%)">drott</text>
<text x="1.192" y="0.146" font-size="0.009396" fill="hsl(240.0,100%,20%)">reed</text>
<text x="1.582" y="0.406" font-size="0.004952" fill="hsl(240.0,100%,20%)">dnfield</text>
<text x="0.685" y="0.515" font-size="0.009904" fill="hsl(120.0,100%,20%)">nicolettep</text>
<text x="0.740" y="0.373" font-size="0.010621" fill="hsl(120.0,100%,20%)">jamesgk</text>
<text x="1.169" y="0.502" font-size="0.004952" fill="hsl(120.0,100%,20%)">emaxx</text>
<text x="1.753" y="0.697" font-size="0.016424" fill="hsl(240.0,100%,20%)">lovisolo</text>
<text x="1.180" y="6.842" font-size="0.003132" fill="hsl(240.0,100%,20%)">tdenniston</text>
<text x="0.165" y="0.671" font-size="0.002215" fill="hsl(240.0,100%,20%)">sharaks</text>
<text x="0.575" y="1.383" font-size="0.004952" fill="hsl(240.0,100%,20%)">iapres</text>
<text x="0.726" y="0.669" font-size="0.002215" fill="hsl(0.0,100%,20%)">wrightgeorge</text>
<text x="0.224" y="0.397" font-size="0.010148" fill="hsl(240.0,100%,20%)">jsimmons</text>
<text x="1.592" y="0.742" font-size="0.002215" fill="hsl(240.0,100%,20%)">cmumford</text>
<text x="1.586" y="0.761" font-size="0.003132" fill="hsl(240.0,100%,20%)">yjbanov</text>
<text x="0.479" y="0.706" font-size="0.004952" fill="hsl(120.0,100%,20%)">sergeyu</text>
<text x="1.264" y="0.690" font-size="0.005859" fill="hsl(120.0,100%,20%)">shuangshuang.zhou</text>
<text x="1.722" y="0.747" font-size="0.005859" fill="hsl(240.0,100%,20%)">thestig</text>
</svg>
