<svg width="4000" height="2000" viewBox="-0.025 -0.025 2.05 1.05" xmlns="http://www.w3.org/2000/svg">
  <style>
    path {
      fill: none;
      stroke-linecap: round;
      stroke-opacity: 0.4;
    }

    text {
      text-anchor: middle;
      alignment-baseline: hanging;
    }
  </style>
  <g opacity="0.4">
<path d="M0.992 1.016 Q1.644 0.777 1.319 0.406" stroke="hsl(0.0,100%,35%)" stroke-width="0.00515"></path>
<path d="M0.992 1.016 Q1.353 1.024 1.447 0.849" stroke="hsl(0.0,100%,35%)" stroke-width="0.00687"></path>
<path d="M0.992 1.016 Q0.844 0.966 0.712 1.027" stroke="hsl(0.0,100%,35%)" stroke-width="0.00687"></path>
<path d="M0.992 1.016 Q1.040 0.794 0.616 0.722" stroke="hsl(0.0,100%,35%)" stroke-width="0.01030"></path>
<path d="M0.992 1.016 Q1.073 1.108 1.269 1.089" stroke="hsl(0.0,100%,35%)" stroke-width="0.00172"></path>
<path d="M0.992 1.016 Q1.073 0.903 0.869 0.839" stroke="hsl(0.0,100%,35%)" stroke-width="0.00172"></path>
<path d="M0.992 1.016 Q0.770 0.721 0.146 0.765" stroke="hsl(0.0,100%,35%)" stroke-width="0.00172"></path>
<path d="M1.447 0.849 Q1.686 0.795 1.634 0.667" stroke="hsl(180.0,100%,35%)" stroke-width="0.00343"></path>
<path d="M1.447 0.849 Q1.166 0.728 0.869 0.839" stroke="hsl(180.0,100%,35%)" stroke-width="0.00687"></path>
<path d="M1.447 0.849 Q0.864 0.547 0.146 0.765" stroke="hsl(180.0,100%,35%)" stroke-width="0.01888"></path>
<path d="M0.869 0.839 Q0.567 0.657 0.146 0.765" stroke="hsl(180.0,100%,35%)" stroke-width="0.06180"></path>
<path d="M0.869 0.839 Q1.150 0.959 1.447 0.849" stroke="hsl(180.0,100%,35%)" stroke-width="0.01888"></path>
<path d="M0.869 0.839 Q0.583 0.772 0.390 0.897" stroke="hsl(180.0,100%,35%)" stroke-width="0.00515"></path>
<path d="M0.869 0.839 Q0.788 0.952 0.992 1.016" stroke="hsl(180.0,100%,35%)" stroke-width="0.01030"></path>
<path d="M0.869 0.839 Q1.440 0.712 1.319 0.406" stroke="hsl(180.0,100%,35%)" stroke-width="0.00172"></path>
<path d="M0.869 0.839 Q0.836 0.729 0.616 0.722" stroke="hsl(180.0,100%,35%)" stroke-width="0.02403"></path>
<path d="M1.230 0.917 Q1.112 0.806 0.869 0.839" stroke="hsl(180.0,100%,35%)" stroke-width="0.06524"></path>
<path d="M1.230 0.917 Q1.546 0.843 1.472 0.673" stroke="hsl(180.0,100%,35%)" stroke-width="0.00172"></path>
<path d="M1.230 0.917 Q0.810 0.624 0.146 0.765" stroke="hsl(180.0,100%,35%)" stroke-width="0.00172"></path>
<path d="M1.230 0.917 Q1.393 0.926 1.447 0.849" stroke="hsl(180.0,100%,35%)" stroke-width="0.00343"></path>
<path d="M1.230 0.917 Q1.597 0.998 1.837 0.837" stroke="hsl(180.0,100%,35%)" stroke-width="0.00172"></path>
<path d="M0.848 0.952 Q1.622 0.856 1.604 0.457" stroke="hsl(0.0,100%,35%)" stroke-width="0.00172"></path>
<path d="M0.848 0.952 Q0.869 1.013 0.992 1.016" stroke="hsl(0.0,100%,35%)" stroke-width="0.02918"></path>
<path d="M0.848 0.952 Q1.520 0.773 1.319 0.406" stroke="hsl(0.0,100%,35%)" stroke-width="0.00515"></path>
<path d="M1.604 0.457 Q1.502 0.375 1.319 0.406" stroke="hsl(0.0,100%,35%)" stroke-width="0.01202"></path>
<path d="M1.604 0.457 Q1.451 0.568 1.634 0.667" stroke="hsl(0.0,100%,35%)" stroke-width="0.00172"></path>
<path d="M1.604 0.457 Q0.830 0.553 0.848 0.952" stroke="hsl(0.0,100%,35%)" stroke-width="0.00343"></path>
<path d="M1.604 0.457 Q0.629 0.319 0.146 0.765" stroke="hsl(0.0,100%,35%)" stroke-width="0.00172"></path>
<path d="M0.650 0.882 Q0.713 1.017 0.992 1.016" stroke="hsl(180.0,100%,35%)" stroke-width="0.00172"></path>
<path d="M0.650 0.882 Q0.794 0.904 0.869 0.839" stroke="hsl(180.0,100%,35%)" stroke-width="0.06009"></path>
<path d="M0.650 0.882 Q0.491 0.722 0.146 0.765" stroke="hsl(180.0,100%,35%)" stroke-width="0.02403"></path>
</g>
<text x="0.992" y="0.986" font-size="0.061456" fill="hsl(0.0,100%,20%)">bclayton</text>
<text x="1.319" y="0.389" font-size="0.034666" fill="hsl(0.0,100%,20%)">geofflang</text>
<text x="1.447" y="0.822" font-size="0.054023" fill="hsl(180.0,100%,20%)">syoussefi</text>
<text x="0.712" y="1.017" font-size="0.018530" fill="hsl(0.0,100%,20%)">cwallez</text>
<text x="0.616" y="0.701" font-size="0.041434" fill="hsl(0.0,100%,20%)">amaiorano</text>
<text x="1.269" y="1.084" font-size="0.009265" fill="hsl(0.0,100%,20%)">dneto</text>
<text x="0.869" y="0.782" font-size="0.113092" fill="hsl(180.0,100%,20%)">sugoi</text>
<text x="0.146" y="0.728" font-size="0.074119" fill="hsl(180.0,100%,20%)">nicolascapens</text>
<text x="1.230" y="0.886" font-size="0.060753" fill="hsl(180.0,100%,20%)">capn</text>
<text x="1.472" y="0.669" font-size="0.009265" fill="hsl(180.0,100%,20%)">jmadill</text>
<text x="1.837" y="0.832" font-size="0.009265" fill="hsl(180.0,100%,20%)">srisser</text>
<text x="0.848" y="0.930" font-size="0.044433" fill="hsl(0.0,100%,20%)">jif</text>
<text x="1.604" y="0.441" font-size="0.032094" fill="hsl(0.0,100%,20%)">natsu</text>
<text x="1.634" y="0.659" font-size="0.016047" fill="hsl(0.0,100%,20%)">chrisforbes</text>
<text x="0.390" y="0.889" font-size="0.016047" fill="hsl(180.0,100%,20%)">jonahr</text>
<text x="0.650" y="0.849" font-size="0.065512" fill="hsl(180.0,100%,20%)">swiftshader.regress</text>
</svg>
