<svg width="4000" height="2000" viewBox="-0.025 -0.025 2.05 1.05" xmlns="http://www.w3.org/2000/svg">
  <style>
    path {
      fill: none;
      stroke-linecap: round;
      stroke-opacity: 0.4;
    }

    text {
      text-anchor: middle;
      alignment-baseline: hanging;
    }
  </style>
  <g opacity="0.4">
<path d="M1.093 0.805 Q1.187 0.949 1.489 0.935" stroke="hsl(0.0,100%,35%)" stroke-width="0.00952"></path>
<path d="M1.093 0.805 Q1.031 0.630 0.677 0.622" stroke="hsl(0.0,100%,35%)" stroke-width="0.01270"></path>
<path d="M1.093 0.805 Q1.313 0.738 1.231 0.617" stroke="hsl(0.0,100%,35%)" stroke-width="0.01270"></path>
<path d="M1.093 0.805 Q1.222 0.682 1.010 0.592" stroke="hsl(0.0,100%,35%)" stroke-width="0.01905"></path>
<path d="M1.093 0.805 Q1.502 0.939 1.854 0.769" stroke="hsl(0.0,100%,35%)" stroke-width="0.00317"></path>
<path d="M1.093 0.805 Q1.016 0.483 0.371 0.451" stroke="hsl(0.0,100%,35%)" stroke-width="0.00317"></path>
<path d="M0.677 0.622 Q0.739 0.797 1.093 0.805" stroke="hsl(180.0,100%,35%)" stroke-width="0.00635"></path>
<path d="M0.677 0.622 Q0.976 0.538 0.877 0.373" stroke="hsl(180.0,100%,35%)" stroke-width="0.00635"></path>
<path d="M0.677 0.622 Q0.661 0.475 0.371 0.451" stroke="hsl(180.0,100%,35%)" stroke-width="0.00317"></path>
<path d="M0.371 0.451 Q0.215 0.424 0.129 0.494" stroke="hsl(180.0,100%,35%)" stroke-width="0.04127"></path>
<path d="M0.371 0.451 Q0.387 0.598 0.677 0.622" stroke="hsl(180.0,100%,35%)" stroke-width="0.02857"></path>
<path d="M0.371 0.451 Q0.369 0.698 0.851 0.754" stroke="hsl(180.0,100%,35%)" stroke-width="0.00952"></path>
<path d="M0.371 0.451 Q0.449 0.772 1.093 0.805" stroke="hsl(180.0,100%,35%)" stroke-width="0.00635"></path>
<path d="M0.371 0.451 Q0.543 0.916 1.489 0.935" stroke="hsl(180.0,100%,35%)" stroke-width="0.00317"></path>
<path d="M0.371 0.451 Q0.578 0.649 1.010 0.592" stroke="hsl(180.0,100%,35%)" stroke-width="0.00317"></path>
<path d="M0.321 0.209 Q0.152 0.340 0.371 0.451" stroke="hsl(180.0,100%,35%)" stroke-width="0.04444"></path>
<path d="M0.321 0.209 Q0.479 0.237 0.569 0.167" stroke="hsl(180.0,100%,35%)" stroke-width="0.00317"></path>
<path d="M0.321 0.209 Q-0.004 0.313 0.129 0.494" stroke="hsl(180.0,100%,35%)" stroke-width="0.00317"></path>
<path d="M0.894 0.831 Q1.393 0.970 1.773 0.757" stroke="hsl(0.0,100%,35%)" stroke-width="0.00317"></path>
<path d="M0.894 0.831 Q1.015 0.858 1.093 0.805" stroke="hsl(0.0,100%,35%)" stroke-width="0.05397"></path>
<path d="M0.894 0.831 Q1.108 1.002 1.489 0.935" stroke="hsl(0.0,100%,35%)" stroke-width="0.00952"></path>
<path d="M1.773 0.757 Q1.488 0.789 1.489 0.935" stroke="hsl(0.0,100%,35%)" stroke-width="0.02540"></path>
<path d="M1.773 0.757 Q1.632 0.386 0.877 0.373" stroke="hsl(0.0,100%,35%)" stroke-width="0.00317"></path>
<path d="M1.773 0.757 Q1.274 0.618 0.894 0.831" stroke="hsl(0.0,100%,35%)" stroke-width="0.00635"></path>
<path d="M1.773 0.757 Q1.161 0.297 0.129 0.494" stroke="hsl(0.0,100%,35%)" stroke-width="0.00317"></path>
<path d="M1.310 0.476 Q1.158 0.530 1.231 0.617" stroke="hsl(180.0,100%,35%)" stroke-width="0.00317"></path>
<path d="M1.310 0.476 Q0.705 0.249 0.129 0.494" stroke="hsl(180.0,100%,35%)" stroke-width="0.00317"></path>
<path d="M1.310 0.476 Q0.861 0.276 0.371 0.451" stroke="hsl(180.0,100%,35%)" stroke-width="0.00317"></path>
<path d="M0.322 0.659 Q0.591 0.886 1.093 0.805" stroke="hsl(180.0,100%,35%)" stroke-width="0.00317"></path>
<path d="M0.322 0.659 Q0.513 0.565 0.371 0.451" stroke="hsl(180.0,100%,35%)" stroke-width="0.04762"></path>
<path d="M0.322 0.659 Q0.358 0.538 0.129 0.494" stroke="hsl(180.0,100%,35%)" stroke-width="0.01587"></path>
</g>
<text x="1.093" y="0.764" font-size="0.080672" fill="hsl(0.0,100%,20%)">bclayton</text>
<text x="1.489" y="0.911" font-size="0.048795" fill="hsl(0.0,100%,20%)">geofflang</text>
<text x="0.677" y="0.596" font-size="0.053452" fill="hsl(180.0,100%,20%)">syoussefi</text>
<text x="1.231" y="0.603" font-size="0.028172" fill="hsl(0.0,100%,20%)">cwallez</text>
<text x="1.010" y="0.576" font-size="0.033333" fill="hsl(0.0,100%,20%)">amaiorano</text>
<text x="1.854" y="0.762" font-size="0.012599" fill="hsl(0.0,100%,20%)">dneto</text>
<text x="0.371" y="0.401" font-size="0.098400" fill="hsl(180.0,100%,20%)">sugoi</text>
<text x="0.321" y="0.184" font-size="0.050395" fill="hsl(180.0,100%,20%)">capn</text>
<text x="0.569" y="0.160" font-size="0.012599" fill="hsl(180.0,100%,20%)">jmadill</text>
<text x="0.129" y="0.465" font-size="0.057735" fill="hsl(180.0,100%,20%)">nicolascapens</text>
<text x="0.894" y="0.801" font-size="0.060422" fill="hsl(0.0,100%,20%)">jif</text>
<text x="1.773" y="0.734" font-size="0.045426" fill="hsl(0.0,100%,20%)">natsu</text>
<text x="1.310" y="0.465" font-size="0.021822" fill="hsl(180.0,100%,20%)">lokokung</text>
<text x="0.877" y="0.362" font-size="0.021822" fill="hsl(180.0,100%,20%)">chrisforbes</text>
<text x="0.851" y="0.743" font-size="0.021822" fill="hsl(180.0,100%,20%)">jonahr</text>
<text x="0.322" y="0.630" font-size="0.057735" fill="hsl(180.0,100%,20%)">swiftshader.regress</text>
</svg>
