<svg width="4000" height="2000" viewBox="-0.025 -0.025 2.05 1.05" xmlns="http://www.w3.org/2000/svg">
  <style>
    path {
      fill: none;
      stroke-linecap: round;
      stroke-opacity: 0.4;
    }

    text {
      text-anchor: middle;
      alignment-baseline: hanging;
    }
  </style>
  <g opacity="0.4">
<path d="M1.278 0.207 Q1.244 0.112 1.051 0.107" stroke="hsl(0.0,100%,35%)" stroke-width="0.05852"></path>
<path d="M1.278 0.207 Q0.513 0.544 1.002 0.991" stroke="hsl(0.0,100%,35%)" stroke-width="0.00304"></path>
<path d="M1.278 0.207 Q0.950 0.022 0.517 0.142" stroke="hsl(0.0,100%,35%)" stroke-width="0.01672"></path>
<path d="M1.002 0.991 Q1.734 0.559 1.051 0.107" stroke="hsl(0.0,100%,35%)" stroke-width="0.03192"></path>
<path d="M1.002 0.991 Q1.439 0.469 0.517 0.142" stroke="hsl(0.0,100%,35%)" stroke-width="0.00076"></path>
<path d="M1.002 0.991 Q1.133 0.891 0.967 0.805" stroke="hsl(0.0,100%,35%)" stroke-width="0.00532"></path>
<path d="M1.002 0.991 Q1.239 1.012 1.333 0.902" stroke="hsl(0.0,100%,35%)" stroke-width="0.00076"></path>
<path d="M1.002 0.991 Q1.767 0.654 1.278 0.207" stroke="hsl(0.0,100%,35%)" stroke-width="0.00304"></path>
<path d="M0.517 0.142 Q0.845 0.326 1.278 0.207" stroke="hsl(0.0,100%,35%)" stroke-width="0.04408"></path>
<path d="M0.517 0.142 Q0.211 0.563 0.967 0.805" stroke="hsl(0.0,100%,35%)" stroke-width="0.00228"></path>
<path d="M0.517 0.142 Q0.812 0.231 1.051 0.107" stroke="hsl(0.0,100%,35%)" stroke-width="0.05548"></path>
<path d="M0.517 0.142 Q0.080 0.663 1.002 0.991" stroke="hsl(0.0,100%,35%)" stroke-width="0.01976"></path>
<path d="M0.517 0.142 Q0.454 0.187 0.529 0.228" stroke="hsl(0.0,100%,35%)" stroke-width="0.00076"></path>
<path d="M0.517 0.142 Q0.592 0.223 0.767 0.205" stroke="hsl(0.0,100%,35%)" stroke-width="0.00076"></path>
<path d="M1.662 0.284 Q1.531 0.169 1.278 0.207" stroke="hsl(0.0,100%,35%)" stroke-width="0.06384"></path>
<path d="M1.662 0.284 Q0.767 0.505 1.002 0.991" stroke="hsl(0.0,100%,35%)" stroke-width="0.05472"></path>
<path d="M1.662 0.284 Q0.898 0.405 0.967 0.805" stroke="hsl(0.0,100%,35%)" stroke-width="0.00380"></path>
<path d="M1.662 0.284 Q1.622 0.390 1.820 0.433" stroke="hsl(0.0,100%,35%)" stroke-width="0.00608"></path>
<path d="M1.662 0.284 Q1.152 0.078 0.638 0.281" stroke="hsl(0.0,100%,35%)" stroke-width="0.00228"></path>
<path d="M1.662 0.284 Q1.203 -0.016 0.517 0.142" stroke="hsl(0.0,100%,35%)" stroke-width="0.02128"></path>
<path d="M1.662 0.284 Q1.498 0.073 1.051 0.107" stroke="hsl(0.0,100%,35%)" stroke-width="0.00608"></path>
<path d="M1.662 0.284 Q1.245 0.123 0.839 0.291" stroke="hsl(0.0,100%,35%)" stroke-width="0.00076"></path>
<path d="M1.662 0.284 Q1.713 0.147 1.458 0.093" stroke="hsl(0.0,100%,35%)" stroke-width="0.00076"></path>
<path d="M1.662 0.284 Q1.392 0.170 1.110 0.277" stroke="hsl(0.0,100%,35%)" stroke-width="0.00076"></path>
<path d="M0.638 0.281 Q0.984 0.277 1.051 0.107" stroke="hsl(0.0,100%,35%)" stroke-width="0.01140"></path>
<path d="M0.638 0.281 Q0.730 0.326 0.839 0.291" stroke="hsl(0.0,100%,35%)" stroke-width="0.00152"></path>
<path d="M0.638 0.281 Q0.689 0.187 0.517 0.142" stroke="hsl(0.0,100%,35%)" stroke-width="0.00076"></path>
<path d="M1.238 0.413 Q1.422 0.318 1.278 0.207" stroke="hsl(0.0,100%,35%)" stroke-width="0.00076"></path>
<path d="M1.238 0.413 Q1.389 0.223 1.051 0.107" stroke="hsl(0.0,100%,35%)" stroke-width="0.00304"></path>
<path d="M1.238 0.413 Q0.658 0.655 1.002 0.991" stroke="hsl(0.0,100%,35%)" stroke-width="0.00228"></path>
<path d="M0.780 0.020 Q0.846 0.118 1.051 0.107" stroke="hsl(0.0,100%,35%)" stroke-width="0.00456"></path>
<path d="M0.780 0.020 Q0.879 0.213 1.278 0.207" stroke="hsl(0.0,100%,35%)" stroke-width="0.00152"></path>
<path d="M0.780 0.020 Q0.551 0.028 0.517 0.142" stroke="hsl(0.0,100%,35%)" stroke-width="0.00456"></path>
<path d="M0.780 0.020 Q0.245 0.450 0.967 0.805" stroke="hsl(0.0,100%,35%)" stroke-width="0.00076"></path>
<path d="M0.303 0.568 Q0.423 0.692 0.691 0.660" stroke="hsl(180.0,100%,35%)" stroke-width="0.00076"></path>
<path d="M0.303 0.568 Q1.045 0.487 1.051 0.107" stroke="hsl(180.0,100%,35%)" stroke-width="0.00076"></path>
<path d="M0.303 0.568 Q0.195 0.635 0.303 0.702" stroke="hsl(180.0,100%,35%)" stroke-width="0.00076"></path>
<path d="M0.773 0.030 Q0.850 0.124 1.051 0.107" stroke="hsl(0.0,100%,35%)" stroke-width="0.00152"></path>
<path d="M0.773 0.030 Q0.250 0.456 0.967 0.805" stroke="hsl(0.0,100%,35%)" stroke-width="0.00076"></path>
<path d="M0.773 0.030 Q0.744 0.220 1.110 0.277" stroke="hsl(0.0,100%,35%)" stroke-width="0.00076"></path>
<path d="M1.133 0.609 Q1.493 0.341 1.051 0.107" stroke="hsl(0.0,100%,35%)" stroke-width="0.01064"></path>
<path d="M1.133 0.609 Q1.617 0.658 1.820 0.433" stroke="hsl(0.0,100%,35%)" stroke-width="0.00380"></path>
<path d="M1.133 0.609 Q0.762 0.774 1.002 0.991" stroke="hsl(0.0,100%,35%)" stroke-width="0.00988"></path>
<path d="M1.133 0.609 Q1.527 0.437 1.278 0.207" stroke="hsl(0.0,100%,35%)" stroke-width="0.00228"></path>
<path d="M1.133 0.609 Q1.199 0.252 0.517 0.142" stroke="hsl(0.0,100%,35%)" stroke-width="0.00228"></path>
<path d="M1.133 0.609 Q0.893 0.674 0.967 0.805" stroke="hsl(0.0,100%,35%)" stroke-width="0.00152"></path>
<path d="M1.133 0.609 Q1.116 0.480 0.861 0.460" stroke="hsl(0.0,100%,35%)" stroke-width="0.00076"></path>
<path d="M1.060 0.213 Q1.140 0.158 1.051 0.107" stroke="hsl(0.0,100%,35%)" stroke-width="0.00380"></path>
<path d="M1.060 0.213 Q0.887 0.208 0.839 0.291" stroke="hsl(0.0,100%,35%)" stroke-width="0.00152"></path>
<path d="M1.060 0.213 Q0.795 0.162 0.638 0.281" stroke="hsl(0.0,100%,35%)" stroke-width="0.00076"></path>
<path d="M1.060 0.213 Q0.540 0.490 0.967 0.805" stroke="hsl(0.0,100%,35%)" stroke-width="0.00076"></path>
<path d="M1.060 0.213 Q1.074 0.060 0.780 0.020" stroke="hsl(0.0,100%,35%)" stroke-width="0.00152"></path>
</g>
<text x="1.278" y="0.162" font-size="0.089902" fill="hsl(0.0,100%,20%)">amaiorano</text>
<text x="1.051" y="0.063" font-size="0.088481" fill="hsl(0.0,100%,20%)">nicolascapens</text>
<text x="1.002" y="0.954" font-size="0.074050" fill="hsl(0.0,100%,20%)">sugoi</text>
<text x="0.517" y="0.099" font-size="0.084072" fill="hsl(0.0,100%,20%)">bclayton</text>
<text x="0.967" y="0.792" font-size="0.025178" fill="hsl(0.0,100%,20%)">chrisforbes</text>
<text x="0.529" y="0.225" font-size="0.005630" fill="hsl(0.0,100%,20%)">jaebaek</text>
<text x="0.767" y="0.202" font-size="0.005630" fill="hsl(0.0,100%,20%)">paulthomson</text>
<text x="1.662" y="0.243" font-size="0.081779" fill="hsl(0.0,100%,20%)">capn</text>
<text x="1.820" y="0.423" font-size="0.020299" fill="hsl(0.0,100%,20%)">srisser</text>
<text x="0.638" y="0.268" font-size="0.026407" fill="hsl(0.0,100%,20%)">natsu</text>
<text x="0.839" y="0.285" font-size="0.012589" fill="hsl(0.0,100%,20%)">vantablack</text>
<text x="1.458" y="0.090" font-size="0.005630" fill="hsl(0.0,100%,20%)">madesroches</text>
<text x="1.110" y="0.273" font-size="0.007962" fill="hsl(0.0,100%,20%)">lfy</text>
<text x="1.238" y="0.405" font-size="0.015924" fill="hsl(0.0,100%,20%)">caramelli.devel</text>
<text x="0.780" y="0.008" font-size="0.023213" fill="hsl(0.0,100%,20%)">digit</text>
<text x="0.303" y="0.563" font-size="0.009751" fill="hsl(180.0,100%,20%)">eholk</text>
<text x="0.691" y="0.657" font-size="0.005630" fill="hsl(180.0,100%,20%)">kschimpf</text>
<text x="0.303" y="0.699" font-size="0.005630" fill="hsl(180.0,100%,20%)">stichnot</text>
<text x="0.773" y="0.024" font-size="0.011260" fill="hsl(0.0,100%,20%)">pcc</text>
<text x="1.333" y="0.899" font-size="0.005630" fill="hsl(0.0,100%,20%)">cwallez</text>
<text x="1.133" y="0.591" font-size="0.036049" fill="hsl(0.0,100%,20%)">swiftshader.regress</text>
<text x="0.861" y="0.457" font-size="0.005630" fill="hsl(0.0,100%,20%)">nicolas.capens</text>
<text x="1.060" y="0.203" font-size="0.018672" fill="hsl(0.0,100%,20%)">zzyiwei</text>
</svg>
