<svg width="4000" height="2000" viewBox="-0.025 -0.025 2.05 1.05" xmlns="http://www.w3.org/2000/svg">
  <style>
    path {
      fill: none;
      stroke-linecap: round;
      stroke-opacity: 0.4;
    }

    text {
      text-anchor: middle;
      alignment-baseline: hanging;
    }
  </style>
  <g opacity="0.4">
<path d="M1.873 0.373 Q1.957 0.184 1.607 0.101" stroke="hsl(0.0,100%,35%)" stroke-width="0.00225"></path>
<path d="M1.873 0.373 Q1.779 0.100 1.226 0.085" stroke="hsl(0.0,100%,35%)" stroke-width="0.00225"></path>
<path d="M1.873 0.373 Q1.629 0.036 0.919 0.081" stroke="hsl(0.0,100%,35%)" stroke-width="0.00113"></path>
<path d="M1.873 0.373 Q1.434 0.098 0.802 0.252" stroke="hsl(0.0,100%,35%)" stroke-width="0.00113"></path>
<path d="M0.919 0.081 Q0.724 0.143 0.802 0.252" stroke="hsl(0.0,100%,35%)" stroke-width="0.07435"></path>
<path d="M0.919 0.081 Q0.397 0.624 1.343 0.998" stroke="hsl(0.0,100%,35%)" stroke-width="0.01239"></path>
<path d="M0.919 0.081 Q1.090 0.260 1.477 0.216" stroke="hsl(0.0,100%,35%)" stroke-width="0.00338"></path>
<path d="M0.919 0.081 Q1.163 0.418 1.873 0.373" stroke="hsl(0.0,100%,35%)" stroke-width="0.00676"></path>
<path d="M0.919 0.081 Q1.247 0.229 1.607 0.101" stroke="hsl(0.0,100%,35%)" stroke-width="0.00113"></path>
<path d="M0.919 0.081 Q1.069 0.145 1.226 0.085" stroke="hsl(0.0,100%,35%)" stroke-width="0.01577"></path>
<path d="M0.919 0.081 Q0.544 0.207 0.707 0.418" stroke="hsl(0.0,100%,35%)" stroke-width="0.00113"></path>
<path d="M0.663 0.126 Q0.826 0.155 0.919 0.081" stroke="hsl(0.0,100%,35%)" stroke-width="0.10702"></path>
<path d="M0.663 0.126 Q0.327 0.058 0.122 0.208" stroke="hsl(0.0,100%,35%)" stroke-width="0.00113"></path>
<path d="M0.663 0.126 Q0.631 0.217 0.802 0.252" stroke="hsl(0.0,100%,35%)" stroke-width="0.00113"></path>
<path d="M0.663 0.126 Q0.305 0.698 1.343 0.998" stroke="hsl(0.0,100%,35%)" stroke-width="0.00225"></path>
<path d="M0.663 0.126 Q0.451 0.281 0.707 0.418" stroke="hsl(0.0,100%,35%)" stroke-width="0.00789"></path>
<path d="M0.663 0.126 Q0.976 0.218 1.226 0.085" stroke="hsl(0.0,100%,35%)" stroke-width="0.00338"></path>
<path d="M0.663 0.126 Q0.468 0.158 0.488 0.260" stroke="hsl(0.0,100%,35%)" stroke-width="0.00113"></path>
<path d="M1.343 0.998 Q1.686 0.972 1.710 0.799" stroke="hsl(0.0,100%,35%)" stroke-width="0.00225"></path>
<path d="M1.343 0.998 Q1.864 0.455 0.919 0.081" stroke="hsl(0.0,100%,35%)" stroke-width="0.00563"></path>
<path d="M1.343 0.998 Q1.669 0.517 0.802 0.252" stroke="hsl(0.0,100%,35%)" stroke-width="0.01239"></path>
<path d="M0.707 0.418 Q1.233 0.356 1.226 0.085" stroke="hsl(0.0,100%,35%)" stroke-width="0.00113"></path>
<path d="M0.707 0.418 Q1.083 0.292 0.919 0.081" stroke="hsl(0.0,100%,35%)" stroke-width="0.00338"></path>
<path d="M0.707 0.418 Q0.888 0.354 0.802 0.252" stroke="hsl(0.0,100%,35%)" stroke-width="0.01127"></path>
<path d="M0.553 0.748 Q0.347 0.796 0.395 0.907" stroke="hsl(0.0,100%,35%)" stroke-width="0.00113"></path>
<path d="M0.553 0.748 Q1.075 0.550 0.802 0.252" stroke="hsl(0.0,100%,35%)" stroke-width="0.00113"></path>
<path d="M0.553 0.748 Q1.270 0.488 0.919 0.081" stroke="hsl(0.0,100%,35%)" stroke-width="0.00113"></path>
<path d="M1.246 0.287 Q1.247 0.119 0.919 0.081" stroke="hsl(0.0,100%,35%)" stroke-width="0.01239"></path>
<path d="M1.246 0.287 Q0.726 0.662 1.343 0.998" stroke="hsl(0.0,100%,35%)" stroke-width="0.00338"></path>
<path d="M1.246 0.287 Q0.872 0.245 0.707 0.418" stroke="hsl(0.0,100%,35%)" stroke-width="0.00113"></path>
<path d="M0.968 0.193 Q0.512 0.670 1.343 0.998" stroke="hsl(0.0,100%,35%)" stroke-width="0.00113"></path>
<path d="M0.968 0.193 Q0.839 0.189 0.802 0.252" stroke="hsl(0.0,100%,35%)" stroke-width="0.00113"></path>
<path d="M0.968 0.193 Q1.033 0.127 0.919 0.081" stroke="hsl(0.0,100%,35%)" stroke-width="0.00113"></path>
<path d="M0.429 0.179 Q0.752 0.228 0.919 0.081" stroke="hsl(0.0,100%,35%)" stroke-width="0.06083"></path>
<path d="M0.429 0.179 Q0.557 0.290 0.802 0.252" stroke="hsl(0.0,100%,35%)" stroke-width="0.04056"></path>
<path d="M0.429 0.179 Q0.377 0.354 0.707 0.418" stroke="hsl(0.0,100%,35%)" stroke-width="0.00563"></path>
</g>
<text x="1.873" y="0.360" font-size="0.025607" fill="hsl(0.0,100%,20%)">bclayton</text>
<text x="1.607" y="0.095" font-size="0.012804" fill="hsl(0.0,100%,20%)">geofflang</text>
<text x="1.226" y="0.069" font-size="0.033059" fill="hsl(0.0,100%,20%)">amaiorano</text>
<text x="0.919" y="0.020" font-size="0.122139" fill="hsl(0.0,100%,20%)">sugoi</text>
<text x="0.802" y="0.210" font-size="0.083306" fill="hsl(0.0,100%,20%)">nicolascapens</text>
<text x="0.663" y="0.087" font-size="0.077530" fill="hsl(0.0,100%,20%)">capn</text>
<text x="0.122" y="0.204" font-size="0.007392" fill="hsl(0.0,100%,20%)">jmadill</text>
<text x="1.343" y="0.976" font-size="0.043733" fill="hsl(0.0,100%,20%)">syoussefi</text>
<text x="0.707" y="0.399" font-size="0.039116" fill="hsl(0.0,100%,20%)">srisser</text>
<text x="0.488" y="0.256" font-size="0.007392" fill="hsl(0.0,100%,20%)">aeubanks</text>
<text x="0.553" y="0.742" font-size="0.012804" fill="hsl(0.0,100%,20%)">ericcurtin17</text>
<text x="0.395" y="0.904" font-size="0.007392" fill="hsl(0.0,100%,20%)">caramelli.devel</text>
<text x="1.246" y="0.273" font-size="0.028630" fill="hsl(0.0,100%,20%)">nicolas.capens</text>
<text x="0.968" y="0.187" font-size="0.012804" fill="hsl(0.0,100%,20%)">stha09</text>
<text x="1.477" y="0.210" font-size="0.012804" fill="hsl(0.0,100%,20%)">jonahr</text>
<text x="0.429" y="0.143" font-size="0.072050" fill="hsl(0.0,100%,20%)">swiftshader.regress</text>
<text x="1.710" y="0.794" font-size="0.010454" fill="hsl(0.0,100%,20%)">chrisforbes</text>
</svg>
