<svg width="4000" height="2000" viewBox="-0.025 -0.025 2.05 1.05" xmlns="http://www.w3.org/2000/svg">
  <style>
    path {
      fill: none;
      stroke-linecap: round;
      stroke-opacity: 0.4;
    }

    text {
      text-anchor: middle;
      alignment-baseline: hanging;
    }
  </style>
  <g opacity="0.4">
<path d="M0.183 0.888 Q1.003 1.006 1.413 0.631" stroke="hsl(0.0,100%,35%)" stroke-width="0.00593"></path>
<path d="M0.183 0.888 Q1.265 0.711 1.158 0.144" stroke="hsl(0.0,100%,35%)" stroke-width="0.00790"></path>
<path d="M0.183 0.888 Q0.306 0.811 0.184 0.734" stroke="hsl(0.0,100%,35%)" stroke-width="0.00790"></path>
<path d="M0.183 0.888 Q0.951 0.785 0.919 0.388" stroke="hsl(0.0,100%,35%)" stroke-width="0.01186"></path>
<path d="M0.183 0.888 Q0.480 0.946 0.659 0.814" stroke="hsl(0.0,100%,35%)" stroke-width="0.00198"></path>
<path d="M0.183 0.888 Q0.508 0.888 0.579 0.729" stroke="hsl(0.0,100%,35%)" stroke-width="0.00198"></path>
<path d="M1.158 0.144 Q0.076 0.321 0.183 0.888" stroke="hsl(0.0,100%,35%)" stroke-width="0.00395"></path>
<path d="M1.158 0.144 Q1.028 0.091 0.894 0.143" stroke="hsl(0.0,100%,35%)" stroke-width="0.00395"></path>
<path d="M1.158 0.144 Q0.401 0.321 0.579 0.729" stroke="hsl(0.0,100%,35%)" stroke-width="0.00198"></path>
<path d="M1.158 0.144 Q0.708 0.347 1.004 0.610" stroke="hsl(0.0,100%,35%)" stroke-width="0.00790"></path>
<path d="M0.579 0.729 Q0.886 0.755 1.004 0.610" stroke="hsl(180.0,100%,35%)" stroke-width="0.04940"></path>
<path d="M0.579 0.729 Q1.336 0.552 1.158 0.144" stroke="hsl(180.0,100%,35%)" stroke-width="0.02174"></path>
<path d="M0.579 0.729 Q0.725 0.518 0.346 0.401" stroke="hsl(180.0,100%,35%)" stroke-width="0.00593"></path>
<path d="M0.579 0.729 Q0.253 0.729 0.183 0.888" stroke="hsl(180.0,100%,35%)" stroke-width="0.01186"></path>
<path d="M0.579 0.729 Q1.074 0.847 1.413 0.631" stroke="hsl(180.0,100%,35%)" stroke-width="0.00198"></path>
<path d="M0.579 0.729 Q1.022 0.626 0.919 0.388" stroke="hsl(180.0,100%,35%)" stroke-width="0.02766"></path>
<path d="M0.920 0.742 Q0.760 0.667 0.579 0.729" stroke="hsl(180.0,100%,35%)" stroke-width="0.06521"></path>
<path d="M0.920 0.742 Q1.153 0.840 1.396 0.748" stroke="hsl(180.0,100%,35%)" stroke-width="0.00198"></path>
<path d="M0.920 0.742 Q1.067 0.693 1.004 0.610" stroke="hsl(180.0,100%,35%)" stroke-width="0.00198"></path>
<path d="M0.920 0.742 Q1.517 0.491 1.158 0.144" stroke="hsl(180.0,100%,35%)" stroke-width="0.00198"></path>
<path d="M0.391 0.932 Q1.302 0.932 1.504 0.488" stroke="hsl(0.0,100%,35%)" stroke-width="0.00198"></path>
<path d="M0.391 0.932 Q0.322 0.868 0.183 0.888" stroke="hsl(0.0,100%,35%)" stroke-width="0.03359"></path>
<path d="M0.391 0.932 Q1.142 0.986 1.413 0.631" stroke="hsl(0.0,100%,35%)" stroke-width="0.00593"></path>
<path d="M1.504 0.488 Q1.344 0.541 1.413 0.631" stroke="hsl(0.0,100%,35%)" stroke-width="0.01581"></path>
<path d="M1.504 0.488 Q1.475 0.193 0.894 0.143" stroke="hsl(0.0,100%,35%)" stroke-width="0.00198"></path>
<path d="M1.504 0.488 Q0.593 0.487 0.391 0.932" stroke="hsl(0.0,100%,35%)" stroke-width="0.00395"></path>
<path d="M1.504 0.488 Q1.156 0.449 1.004 0.610" stroke="hsl(0.0,100%,35%)" stroke-width="0.00198"></path>
<path d="M0.521 0.546 Q0.078 0.649 0.183 0.888" stroke="hsl(180.0,100%,35%)" stroke-width="0.00198"></path>
<path d="M0.521 0.546 Q0.404 0.649 0.579 0.729" stroke="hsl(180.0,100%,35%)" stroke-width="0.05533"></path>
<path d="M0.521 0.546 Q0.711 0.675 1.004 0.610" stroke="hsl(180.0,100%,35%)" stroke-width="0.01976"></path>
</g>
<text x="0.183" y="0.854" font-size="0.067763" fill="hsl(0.0,100%,20%)">bclayton</text>
<text x="1.413" y="0.612" font-size="0.039123" fill="hsl(0.0,100%,20%)">geofflang</text>
<text x="1.158" y="0.119" font-size="0.050508" fill="hsl(0.0,100%,20%)">syoussefi</text>
<text x="0.184" y="0.724" font-size="0.020203" fill="hsl(0.0,100%,20%)">cwallez</text>
<text x="0.919" y="0.365" font-size="0.045175" fill="hsl(180.0,100%,20%)">amaiorano</text>
<text x="0.659" y="0.809" font-size="0.010102" fill="hsl(0.0,100%,20%)">dneto</text>
<text x="0.579" y="0.673" font-size="0.112031" fill="hsl(180.0,100%,20%)">sugoi</text>
<text x="0.920" y="0.711" font-size="0.060609" fill="hsl(180.0,100%,20%)">capn</text>
<text x="1.396" y="0.742" font-size="0.010102" fill="hsl(180.0,100%,20%)">jmadill</text>
<text x="1.004" y="0.578" font-size="0.064681" fill="hsl(180.0,100%,20%)">nicolascapens</text>
<text x="0.391" y="0.907" font-size="0.048445" fill="hsl(0.0,100%,20%)">jif</text>
<text x="1.504" y="0.470" font-size="0.036422" fill="hsl(0.0,100%,20%)">natsu</text>
<text x="0.894" y="0.134" font-size="0.017496" fill="hsl(0.0,100%,20%)">chrisforbes</text>
<text x="0.346" y="0.392" font-size="0.017496" fill="hsl(180.0,100%,20%)">jonahr</text>
<text x="0.521" y="0.514" font-size="0.063084" fill="hsl(180.0,100%,20%)">swiftshader.regress</text>
</svg>
