<svg width="4000" height="2000" viewBox="-0.025 -0.025 2.05 1.05" xmlns="http://www.w3.org/2000/svg">
  <style>
    path {
      fill: none;
      stroke-linecap: round;
      stroke-opacity: 0.4;
    }

    text {
      text-anchor: middle;
      alignment-baseline: hanging;
    }
  </style>
  <g opacity="0.4">
<path d="M1.131 0.299 Q1.519 0.306 1.618 0.118" stroke="hsl(0.0,100%,35%)" stroke-width="0.04580"></path>
<path d="M1.131 0.299 Q1.466 0.400 1.738 0.259" stroke="hsl(0.0,100%,35%)" stroke-width="0.01726"></path>
<path d="M1.131 0.299 Q1.070 0.350 1.157 0.391" stroke="hsl(0.0,100%,35%)" stroke-width="0.00332"></path>
<path d="M1.738 0.259 Q1.403 0.158 1.131 0.299" stroke="hsl(0.0,100%,35%)" stroke-width="0.04381"></path>
<path d="M1.738 0.259 Q1.791 0.165 1.618 0.118" stroke="hsl(0.0,100%,35%)" stroke-width="0.05842"></path>
<path d="M1.738 0.259 Q1.342 0.209 1.157 0.391" stroke="hsl(0.0,100%,35%)" stroke-width="0.02323"></path>
<path d="M1.738 0.259 Q1.636 0.301 1.695 0.360" stroke="hsl(0.0,100%,35%)" stroke-width="0.00066"></path>
<path d="M1.738 0.259 Q1.154 0.223 0.954 0.500" stroke="hsl(0.0,100%,35%)" stroke-width="0.00730"></path>
<path d="M1.738 0.259 Q1.668 0.151 1.442 0.161" stroke="hsl(0.0,100%,35%)" stroke-width="0.00133"></path>
<path d="M1.738 0.259 Q1.766 0.343 1.936 0.347" stroke="hsl(0.0,100%,35%)" stroke-width="0.00066"></path>
<path d="M1.738 0.259 Q1.396 0.508 1.806 0.729" stroke="hsl(0.0,100%,35%)" stroke-width="0.00066"></path>
<path d="M1.157 0.391 Q1.553 0.441 1.738 0.259" stroke="hsl(0.0,100%,35%)" stroke-width="0.00199"></path>
<path d="M1.157 0.391 Q1.606 0.347 1.618 0.118" stroke="hsl(0.0,100%,35%)" stroke-width="0.03186"></path>
<path d="M1.157 0.391 Q0.969 0.405 0.954 0.500" stroke="hsl(0.0,100%,35%)" stroke-width="0.01128"></path>
<path d="M1.157 0.391 Q1.347 0.602 1.801 0.556" stroke="hsl(0.0,100%,35%)" stroke-width="0.00066"></path>
<path d="M1.157 0.391 Q1.218 0.340 1.131 0.299" stroke="hsl(0.0,100%,35%)" stroke-width="0.00996"></path>
<path d="M1.157 0.391 Q1.475 0.324 1.414 0.155" stroke="hsl(0.0,100%,35%)" stroke-width="0.00066"></path>
<path d="M0.918 0.336 Q0.805 0.425 0.954 0.500" stroke="hsl(0.0,100%,35%)" stroke-width="0.00066"></path>
<path d="M0.918 0.336 Q1.389 0.462 1.738 0.259" stroke="hsl(0.0,100%,35%)" stroke-width="0.00066"></path>
<path d="M0.918 0.336 Q0.993 0.411 1.157 0.391" stroke="hsl(0.0,100%,35%)" stroke-width="0.00066"></path>
<path d="M0.954 0.500 Q1.591 0.442 1.618 0.118" stroke="hsl(0.0,100%,35%)" stroke-width="0.00863"></path>
<path d="M0.954 0.500 Q1.538 0.536 1.738 0.259" stroke="hsl(0.0,100%,35%)" stroke-width="0.00664"></path>
<path d="M0.954 0.500 Q1.142 0.486 1.157 0.391" stroke="hsl(0.0,100%,35%)" stroke-width="0.00266"></path>
<path d="M1.936 0.347 Q1.960 0.169 1.618 0.118" stroke="hsl(0.0,100%,35%)" stroke-width="0.00465"></path>
<path d="M1.936 0.347 Q1.572 0.162 1.131 0.299" stroke="hsl(0.0,100%,35%)" stroke-width="0.00133"></path>
<path d="M1.936 0.347 Q1.907 0.264 1.738 0.259" stroke="hsl(0.0,100%,35%)" stroke-width="0.00730"></path>
<path d="M1.936 0.347 Q1.323 0.227 0.954 0.500" stroke="hsl(0.0,100%,35%)" stroke-width="0.00199"></path>
<path d="M1.936 0.347 Q1.511 0.214 1.157 0.391" stroke="hsl(0.0,100%,35%)" stroke-width="0.00066"></path>
<path d="M1.806 0.729 Q2.200 0.386 1.618 0.118" stroke="hsl(0.0,100%,35%)" stroke-width="0.00199"></path>
<path d="M1.806 0.729 Q1.752 0.430 1.157 0.391" stroke="hsl(0.0,100%,35%)" stroke-width="0.00199"></path>
<path d="M1.806 0.729 Q1.942 0.641 1.801 0.556" stroke="hsl(0.0,100%,35%)" stroke-width="0.00133"></path>
<path d="M1.360 0.536 Q1.823 0.379 1.618 0.118" stroke="hsl(0.0,100%,35%)" stroke-width="0.00531"></path>
<path d="M1.360 0.536 Q1.692 0.356 1.414 0.155" stroke="hsl(0.0,100%,35%)" stroke-width="0.00398"></path>
<path d="M1.360 0.536 Q1.435 0.372 1.131 0.299" stroke="hsl(0.0,100%,35%)" stroke-width="0.04116"></path>
<path d="M1.360 0.536 Q1.770 0.473 1.738 0.259" stroke="hsl(0.0,100%,35%)" stroke-width="0.02323"></path>
<path d="M1.360 0.536 Q1.374 0.423 1.157 0.391" stroke="hsl(0.0,100%,35%)" stroke-width="0.04116"></path>
<path d="M1.360 0.536 Q1.186 0.437 0.954 0.500" stroke="hsl(0.0,100%,35%)" stroke-width="0.00398"></path>
<path d="M1.360 0.536 Q0.529 0.427 0.134 0.809" stroke="hsl(0.0,100%,35%)" stroke-width="0.00066"></path>
<path d="M1.360 0.536 Q1.083 0.548 1.044 0.685" stroke="hsl(0.0,100%,35%)" stroke-width="0.00066"></path>
<path d="M1.360 0.536 Q1.323 0.576 1.393 0.603" stroke="hsl(0.0,100%,35%)" stroke-width="0.00066"></path>
<path d="M1.360 0.536 Q1.799 0.557 1.936 0.347" stroke="hsl(0.0,100%,35%)" stroke-width="0.00066"></path>
<path d="M1.414 0.155 Q1.545 0.177 1.618 0.118" stroke="hsl(0.0,100%,35%)" stroke-width="0.00929"></path>
<path d="M1.414 0.155 Q1.096 0.221 1.157 0.391" stroke="hsl(0.0,100%,35%)" stroke-width="0.00465"></path>
<path d="M1.414 0.155 Q1.492 0.272 1.738 0.259" stroke="hsl(0.0,100%,35%)" stroke-width="0.00066"></path>
<path d="M0.360 0.482 Q0.256 0.427 0.125 0.465" stroke="hsl(180.0,100%,35%)" stroke-width="0.00066"></path>
<path d="M0.360 0.482 Q1.280 0.552 1.618 0.118" stroke="hsl(180.0,100%,35%)" stroke-width="0.00066"></path>
<path d="M0.360 0.482 Q0.226 0.514 0.259 0.586" stroke="hsl(180.0,100%,35%)" stroke-width="0.00066"></path>
<path d="M0.654 0.567 Q1.495 0.536 1.618 0.118" stroke="hsl(0.0,100%,35%)" stroke-width="0.00332"></path>
<path d="M0.654 0.567 Q0.201 0.584 0.134 0.809" stroke="hsl(0.0,100%,35%)" stroke-width="0.00133"></path>
<path d="M0.654 0.567 Q1.442 0.630 1.738 0.259" stroke="hsl(0.0,100%,35%)" stroke-width="0.00066"></path>
<path d="M0.654 0.567 Q0.858 0.594 0.954 0.500" stroke="hsl(0.0,100%,35%)" stroke-width="0.00066"></path>
<path d="M0.654 0.567 Q1.046 0.580 1.157 0.391" stroke="hsl(0.0,100%,35%)" stroke-width="0.00066"></path>
<path d="M1.563 0.975 Q2.276 0.558 1.618 0.118" stroke="hsl(0.0,100%,35%)" stroke-width="0.00133"></path>
<path d="M1.563 0.975 Q1.639 0.616 0.954 0.500" stroke="hsl(0.0,100%,35%)" stroke-width="0.00066"></path>
<path d="M1.563 0.975 Q1.776 0.755 1.393 0.603" stroke="hsl(0.0,100%,35%)" stroke-width="0.00066"></path>
<path d="M0.409 0.404 Q1.242 0.503 1.618 0.118" stroke="hsl(0.0,100%,35%)" stroke-width="0.01062"></path>
<path d="M0.409 0.404 Q0.793 0.547 1.157 0.391" stroke="hsl(0.0,100%,35%)" stroke-width="0.01195"></path>
<path d="M0.409 0.404 Q1.111 0.480 1.414 0.155" stroke="hsl(0.0,100%,35%)" stroke-width="0.00199"></path>
<path d="M0.409 0.404 Q0.854 0.496 1.131 0.299" stroke="hsl(0.0,100%,35%)" stroke-width="0.00199"></path>
<path d="M0.409 0.404 Q1.189 0.598 1.738 0.259" stroke="hsl(0.0,100%,35%)" stroke-width="0.00465"></path>
<path d="M0.409 0.404 Q0.605 0.561 0.954 0.500" stroke="hsl(0.0,100%,35%)" stroke-width="0.00730"></path>
<path d="M0.409 0.404 Q0.672 0.406 0.733 0.278" stroke="hsl(0.0,100%,35%)" stroke-width="0.00133"></path>
<path d="M1.873 0.412 Q1.956 0.392 1.936 0.347" stroke="hsl(0.0,100%,35%)" stroke-width="0.00066"></path>
<path d="M1.873 0.412 Q1.981 0.214 1.618 0.118" stroke="hsl(0.0,100%,35%)" stroke-width="0.00133"></path>
<path d="M1.873 0.412 Q0.686 0.263 0.134 0.809" stroke="hsl(0.0,100%,35%)" stroke-width="0.00066"></path>
</g>
<text x="1.131" y="0.258" font-size="0.081981" fill="hsl(0.0,100%,20%)">amaiorano</text>
<text x="1.618" y="0.075" font-size="0.086485" fill="hsl(0.0,100%,20%)">nicolascapens</text>
<text x="1.738" y="0.214" font-size="0.090167" fill="hsl(0.0,100%,20%)">bclayton</text>
<text x="1.157" y="0.352" font-size="0.077565" fill="hsl(0.0,100%,20%)">sugoi</text>
<text x="0.918" y="0.332" font-size="0.009017" fill="hsl(0.0,100%,20%)">awoloszyn</text>
<text x="0.954" y="0.477" font-size="0.045976" fill="hsl(0.0,100%,20%)">chrisforbes</text>
<text x="1.695" y="0.357" font-size="0.005206" fill="hsl(0.0,100%,20%)">jaebaek</text>
<text x="1.442" y="0.158" font-size="0.007362" fill="hsl(0.0,100%,20%)">paulthomson</text>
<text x="1.936" y="0.334" font-size="0.027050" fill="hsl(0.0,100%,20%)">digit</text>
<text x="1.806" y="0.721" font-size="0.015617" fill="hsl(0.0,100%,20%)">jmadill</text>
<text x="1.360" y="0.501" font-size="0.070423" fill="hsl(0.0,100%,20%)">capn</text>
<text x="1.414" y="0.140" font-size="0.029448" fill="hsl(0.0,100%,20%)">srisser</text>
<text x="0.134" y="0.804" font-size="0.010412" fill="hsl(0.0,100%,20%)">vantablack</text>
<text x="1.044" y="0.683" font-size="0.005206" fill="hsl(0.0,100%,20%)">madesroches</text>
<text x="1.393" y="0.599" font-size="0.007362" fill="hsl(0.0,100%,20%)">lfy</text>
<text x="0.360" y="0.478" font-size="0.009017" fill="hsl(180.0,100%,20%)">eholk</text>
<text x="0.125" y="0.463" font-size="0.005206" fill="hsl(180.0,100%,20%)">kschimpf</text>
<text x="0.259" y="0.584" font-size="0.005206" fill="hsl(180.0,100%,20%)">stichnot</text>
<text x="1.801" y="0.551" font-size="0.009017" fill="hsl(0.0,100%,20%)">cwallez</text>
<text x="0.654" y="0.559" font-size="0.016462" fill="hsl(0.0,100%,20%)">natsu</text>
<text x="1.563" y="0.970" font-size="0.010412" fill="hsl(0.0,100%,20%)">pcc</text>
<text x="0.409" y="0.384" font-size="0.040324" fill="hsl(0.0,100%,20%)">swiftshader.regress</text>
<text x="0.733" y="0.275" font-size="0.007362" fill="hsl(0.0,100%,20%)">nicolas.capens</text>
<text x="1.873" y="0.407" font-size="0.010412" fill="hsl(0.0,100%,20%)">zzyiwei</text>
</svg>
