<svg width="4000" height="2000" viewBox="-0.025 -0.025 2.05 1.05" xmlns="http://www.w3.org/2000/svg">
  <style>
    path {
      fill: none;
      stroke-linecap: round;
      stroke-opacity: 0.4;
    }

    text {
      text-anchor: middle;
      alignment-baseline: hanging;
    }
  </style>
  <g opacity="0.4">
<path d="M0.930 0.642 Q0.411 0.605 0.226 0.850" stroke="hsl(0.0,100%,35%)" stroke-width="0.00769"></path>
<path d="M0.930 0.642 Q1.638 0.538 1.592 0.170" stroke="hsl(0.0,100%,35%)" stroke-width="0.01026"></path>
<path d="M0.930 0.642 Q1.354 0.598 1.361 0.381" stroke="hsl(0.0,100%,35%)" stroke-width="0.01026"></path>
<path d="M0.930 0.642 Q0.735 0.646 0.700 0.742" stroke="hsl(0.0,100%,35%)" stroke-width="0.01539"></path>
<path d="M0.930 0.642 Q1.059 0.703 1.207 0.654" stroke="hsl(0.0,100%,35%)" stroke-width="0.00256"></path>
<path d="M0.930 0.642 Q1.041 0.884 1.538 0.882" stroke="hsl(0.0,100%,35%)" stroke-width="0.00256"></path>
<path d="M1.592 0.170 Q0.883 0.274 0.930 0.642" stroke="hsl(180.0,100%,35%)" stroke-width="0.00513"></path>
<path d="M1.592 0.170 Q1.350 -0.002 0.961 0.078" stroke="hsl(180.0,100%,35%)" stroke-width="0.00513"></path>
<path d="M1.592 0.170 Q0.995 0.515 1.538 0.882" stroke="hsl(180.0,100%,35%)" stroke-width="0.00256"></path>
<path d="M1.592 0.170 Q0.923 0.422 1.267 0.803" stroke="hsl(180.0,100%,35%)" stroke-width="0.00256"></path>
<path d="M1.538 0.882 Q1.466 0.789 1.267 0.803" stroke="hsl(180.0,100%,35%)" stroke-width="0.05386"></path>
<path d="M1.538 0.882 Q2.135 0.537 1.592 0.170" stroke="hsl(180.0,100%,35%)" stroke-width="0.02308"></path>
<path d="M1.538 0.882 Q1.883 0.797 1.791 0.610" stroke="hsl(180.0,100%,35%)" stroke-width="0.00769"></path>
<path d="M1.538 0.882 Q1.426 0.640 0.930 0.642" stroke="hsl(180.0,100%,35%)" stroke-width="0.00769"></path>
<path d="M1.538 0.882 Q0.908 0.604 0.226 0.850" stroke="hsl(180.0,100%,35%)" stroke-width="0.00256"></path>
<path d="M1.538 0.882 Q1.231 0.645 0.700 0.742" stroke="hsl(180.0,100%,35%)" stroke-width="0.00256"></path>
<path d="M1.521 0.598 Q1.301 0.743 1.538 0.882" stroke="hsl(180.0,100%,35%)" stroke-width="0.06412"></path>
<path d="M1.521 0.598 Q1.771 0.633 1.894 0.518" stroke="hsl(180.0,100%,35%)" stroke-width="0.00256"></path>
<path d="M1.521 0.598 Q1.229 0.650 1.267 0.803" stroke="hsl(180.0,100%,35%)" stroke-width="0.00256"></path>
<path d="M1.521 0.598 Q1.898 0.398 1.592 0.170" stroke="hsl(180.0,100%,35%)" stroke-width="0.00256"></path>
<path d="M0.391 0.673 Q0.242 0.651 0.166 0.718" stroke="hsl(0.0,100%,35%)" stroke-width="0.00256"></path>
<path d="M0.391 0.673 Q0.685 0.765 0.930 0.642" stroke="hsl(0.0,100%,35%)" stroke-width="0.04360"></path>
<path d="M0.391 0.673 Q0.167 0.728 0.226 0.850" stroke="hsl(0.0,100%,35%)" stroke-width="0.00769"></path>
<path d="M0.166 0.718 Q0.090 0.796 0.226 0.850" stroke="hsl(0.0,100%,35%)" stroke-width="0.02052"></path>
<path d="M0.166 0.718 Q1.076 0.557 0.961 0.078" stroke="hsl(0.0,100%,35%)" stroke-width="0.00256"></path>
<path d="M0.166 0.718 Q0.314 0.741 0.391 0.673" stroke="hsl(0.0,100%,35%)" stroke-width="0.00513"></path>
<path d="M0.166 0.718 Q0.648 0.981 1.267 0.803" stroke="hsl(0.0,100%,35%)" stroke-width="0.00256"></path>
<path d="M1.799 0.919 Q1.586 0.607 0.930 0.642" stroke="hsl(180.0,100%,35%)" stroke-width="0.00256"></path>
<path d="M1.799 0.919 Q1.698 0.849 1.538 0.882" stroke="hsl(180.0,100%,35%)" stroke-width="0.04617"></path>
<path d="M1.799 0.919 Q1.626 0.755 1.267 0.803" stroke="hsl(180.0,100%,35%)" stroke-width="0.02052"></path>
</g>
<text x="0.930" y="0.604" font-size="0.074585" fill="hsl(0.0,100%,20%)">bclayton</text>
<text x="0.226" y="0.827" font-size="0.044573" fill="hsl(0.0,100%,20%)">geofflang</text>
<text x="1.592" y="0.144" font-size="0.051468" fill="hsl(180.0,100%,20%)">syoussefi</text>
<text x="1.361" y="0.370" font-size="0.023017" fill="hsl(0.0,100%,20%)">cwallez</text>
<text x="0.700" y="0.727" font-size="0.030449" fill="hsl(0.0,100%,20%)">amaiorano</text>
<text x="1.207" y="0.648" font-size="0.011509" fill="hsl(0.0,100%,20%)">dneto</text>
<text x="1.538" y="0.830" font-size="0.104849" fill="hsl(180.0,100%,20%)">sugoi</text>
<text x="1.521" y="0.567" font-size="0.060898" fill="hsl(180.0,100%,20%)">capn</text>
<text x="1.894" y="0.512" font-size="0.011509" fill="hsl(180.0,100%,20%)">jmadill</text>
<text x="1.267" y="0.771" font-size="0.065103" fill="hsl(180.0,100%,20%)">nicolascapens</text>
<text x="0.391" y="0.645" font-size="0.055194" fill="hsl(0.0,100%,20%)">jif</text>
<text x="0.166" y="0.698" font-size="0.041495" fill="hsl(0.0,100%,20%)">natsu</text>
<text x="0.961" y="0.068" font-size="0.019934" fill="hsl(180.0,100%,20%)">chrisforbes</text>
<text x="1.791" y="0.600" font-size="0.019934" fill="hsl(180.0,100%,20%)">jonahr</text>
<text x="1.799" y="0.889" font-size="0.059801" fill="hsl(180.0,100%,20%)">swiftshader.regress</text>
</svg>
