<svg width="4000" height="2000" viewBox="-0.025 -0.025 2.05 1.05" xmlns="http://www.w3.org/2000/svg">
  <style>
    path {
      fill: none;
      stroke-linecap: round;
      stroke-opacity: 0.4;
    }

    text {
      text-anchor: middle;
      alignment-baseline: hanging;
    }
  </style>
  <g opacity="0.4">
<path d="M1.354 0.108 Q1.039 0.131 1.013 0.289" stroke="hsl(0.0,100%,35%)" stroke-width="0.01200"></path>
<path d="M1.354 0.108 Q1.449 0.196 1.640 0.168" stroke="hsl(0.0,100%,35%)" stroke-width="0.02400"></path>
<path d="M1.354 0.108 Q0.616 0.389 1.001 0.810" stroke="hsl(0.0,100%,35%)" stroke-width="0.01200"></path>
<path d="M1.640 0.168 Q1.096 0.293 1.220 0.585" stroke="hsl(0.0,100%,35%)" stroke-width="0.01200"></path>
<path d="M1.640 0.168 Q1.477 0.159 1.422 0.237" stroke="hsl(0.0,100%,35%)" stroke-width="0.04800"></path>
<path d="M1.640 0.168 Q0.807 0.362 1.001 0.810" stroke="hsl(0.0,100%,35%)" stroke-width="0.02400"></path>
<path d="M0.475 0.276 Q0.339 0.331 0.417 0.409" stroke="hsl(0.0,100%,35%)" stroke-width="0.01200"></path>
<path d="M0.475 0.276 Q1.143 0.455 1.640 0.168" stroke="hsl(0.0,100%,35%)" stroke-width="0.02400"></path>
<path d="M0.475 0.276 Q0.734 0.390 1.013 0.289" stroke="hsl(0.0,100%,35%)" stroke-width="0.01200"></path>
<path d="M0.325 0.918 Q1.172 0.741 1.013 0.289" stroke="hsl(0.0,100%,35%)" stroke-width="0.01200"></path>
<path d="M0.325 0.918 Q0.749 0.999 1.001 0.810" stroke="hsl(0.0,100%,35%)" stroke-width="0.06000"></path>
<path d="M0.325 0.918 Q1.038 0.931 1.220 0.585" stroke="hsl(0.0,100%,35%)" stroke-width="0.01200"></path>
<path d="M0.325 0.918 Q1.582 0.806 1.640 0.168" stroke="hsl(0.0,100%,35%)" stroke-width="0.03600"></path>
</g>
<text x="1.354" y="0.080" font-size="0.056569" fill="hsl(0.0,100%,20%)">dcheng</text>
<text x="1.013" y="0.265" font-size="0.048990" fill="hsl(0.0,100%,20%)">geofflang</text>
<text x="1.640" y="0.116" font-size="0.105830" fill="hsl(0.0,100%,20%)">syoussefi</text>
<text x="1.001" y="0.770" font-size="0.080000" fill="hsl(0.0,100%,20%)">ynovikov</text>
<text x="0.475" y="0.248" font-size="0.056569" fill="hsl(0.0,100%,20%)">rsworktech</text>
<text x="0.417" y="0.395" font-size="0.028284" fill="hsl(0.0,100%,20%)">cwallez</text>
<text x="0.325" y="0.873" font-size="0.089443" fill="hsl(0.0,100%,20%)">swiftshader.regress</text>
<text x="1.220" y="0.565" font-size="0.040000" fill="hsl(0.0,100%,20%)">bclayton</text>
<text x="1.422" y="0.208" font-size="0.056569" fill="hsl(0.0,100%,20%)">chrisforbes</text>
</svg>
