<svg width="4000" height="2000" viewBox="-0.025 -0.025 2.05 1.05" xmlns="http://www.w3.org/2000/svg">
  <style>
    path {
      fill: none;
      stroke-linecap: round;
      stroke-opacity: 0.4;
    }

    text {
      text-anchor: middle;
      alignment-baseline: hanging;
    }
  </style>
  <g opacity="0.4">
<path d="M0.388 0.805 Q0.724 0.995 1.168 0.872" stroke="hsl(0.0,100%,35%)" stroke-width="0.00445"></path>
<path d="M0.388 0.805 Q0.196 0.762 0.070 0.847" stroke="hsl(0.0,100%,35%)" stroke-width="0.00445"></path>
<path d="M0.388 0.805 Q0.477 0.778 0.444 0.729" stroke="hsl(0.0,100%,35%)" stroke-width="0.00445"></path>
<path d="M1.168 0.872 Q0.791 0.626 0.228 0.756" stroke="hsl(0.0,100%,35%)" stroke-width="0.00445"></path>
<path d="M1.168 0.872 Q1.759 0.646 1.447 0.308" stroke="hsl(0.0,100%,35%)" stroke-width="0.00445"></path>
<path d="M1.168 0.872 Q0.992 0.927 1.061 1.025" stroke="hsl(0.0,100%,35%)" stroke-width="0.01781"></path>
<path d="M1.168 0.872 Q1.516 0.921 1.687 0.762" stroke="hsl(0.0,100%,35%)" stroke-width="0.00445"></path>
<path d="M1.168 0.872 Q1.180 0.569 0.590 0.496" stroke="hsl(0.0,100%,35%)" stroke-width="0.00445"></path>
<path d="M0.852 0.926 Q1.376 0.472 0.606 0.116" stroke="hsl(0.0,100%,35%)" stroke-width="0.01336"></path>
<path d="M0.852 0.926 Q0.884 0.819 0.684 0.780" stroke="hsl(0.0,100%,35%)" stroke-width="0.00445"></path>
<path d="M0.852 0.926 Q1.295 0.531 0.622 0.228" stroke="hsl(0.0,100%,35%)" stroke-width="0.00445"></path>
<path d="M0.852 0.926 Q0.877 1.017 1.061 1.025" stroke="hsl(0.0,100%,35%)" stroke-width="0.00891"></path>
<path d="M0.606 0.116 Q0.282 0.607 1.168 0.872" stroke="hsl(0.0,100%,35%)" stroke-width="0.00445"></path>
<path d="M0.606 0.116 Q0.822 0.217 1.066 0.133" stroke="hsl(0.0,100%,35%)" stroke-width="0.00891"></path>
<path d="M0.606 0.116 Q0.873 0.380 1.447 0.308" stroke="hsl(0.0,100%,35%)" stroke-width="0.00445"></path>
<path d="M0.606 0.116 Q0.524 0.176 0.622 0.228" stroke="hsl(0.0,100%,35%)" stroke-width="0.01336"></path>
<path d="M0.622 0.228 Q0.704 0.169 0.606 0.116" stroke="hsl(0.0,100%,35%)" stroke-width="0.04008"></path>
<path d="M0.622 0.228 Q0.572 0.308 0.716 0.351" stroke="hsl(0.0,100%,35%)" stroke-width="0.03117"></path>
<path d="M0.622 0.228 Q0.283 0.442 0.625 0.654" stroke="hsl(0.0,100%,35%)" stroke-width="0.00445"></path>
<path d="M0.622 0.228 Q0.380 0.659 1.168 0.872" stroke="hsl(0.0,100%,35%)" stroke-width="0.00891"></path>
<path d="M1.061 1.025 Q1.237 0.970 1.168 0.872" stroke="hsl(0.0,100%,35%)" stroke-width="0.00891"></path>
<path d="M1.061 1.025 Q1.036 0.933 0.852 0.926" stroke="hsl(0.0,100%,35%)" stroke-width="0.01336"></path>
<path d="M1.061 1.025 Q1.219 1.032 1.268 0.957" stroke="hsl(0.0,100%,35%)" stroke-width="0.00891"></path>
<path d="M1.613 0.422 Q1.354 0.068 0.606 0.116" stroke="hsl(0.0,100%,35%)" stroke-width="0.00445"></path>
<path d="M1.613 0.422 Q0.694 0.369 0.388 0.805" stroke="hsl(0.0,100%,35%)" stroke-width="0.00445"></path>
<path d="M1.613 0.422 Q1.468 0.392 1.377 0.456" stroke="hsl(0.0,100%,35%)" stroke-width="0.00445"></path>
<path d="M1.066 0.133 Q0.526 0.523 1.168 0.872" stroke="hsl(0.0,100%,35%)" stroke-width="0.00445"></path>
<path d="M1.066 0.133 Q0.429 0.305 0.625 0.654" stroke="hsl(0.0,100%,35%)" stroke-width="0.00445"></path>
<path d="M1.066 0.133 Q0.850 0.032 0.606 0.116" stroke="hsl(0.0,100%,35%)" stroke-width="0.00445"></path>
<path d="M1.066 0.133 Q0.278 0.307 0.444 0.729" stroke="hsl(0.0,100%,35%)" stroke-width="0.00445"></path>
<path d="M1.447 0.308 Q1.438 0.398 1.613 0.422" stroke="hsl(0.0,100%,35%)" stroke-width="0.01781"></path>
<path d="M1.447 0.308 Q1.180 0.044 0.606 0.116" stroke="hsl(0.0,100%,35%)" stroke-width="0.00445"></path>
<path d="M1.447 0.308 Q0.856 0.534 1.168 0.872" stroke="hsl(0.0,100%,35%)" stroke-width="0.00891"></path>
<path d="M1.447 0.308 Q0.520 0.345 0.388 0.805" stroke="hsl(0.0,100%,35%)" stroke-width="0.00891"></path>
<path d="M1.447 0.308 Q0.609 0.318 0.444 0.729" stroke="hsl(0.0,100%,35%)" stroke-width="0.00445"></path>
<path d="M0.228 0.756 Q0.424 0.650 0.261 0.531" stroke="hsl(0.0,100%,35%)" stroke-width="0.00891"></path>
<path d="M0.228 0.756 Q1.187 0.866 1.613 0.422" stroke="hsl(0.0,100%,35%)" stroke-width="0.00445"></path>
<path d="M0.228 0.756 Q0.269 0.812 0.388 0.805" stroke="hsl(0.0,100%,35%)" stroke-width="0.00445"></path>
<path d="M0.115 0.330 Q0.208 0.812 1.168 0.872" stroke="hsl(0.0,100%,35%)" stroke-width="0.01781"></path>
<path d="M0.115 0.330 Q0.176 0.291 0.113 0.253" stroke="hsl(0.0,100%,35%)" stroke-width="0.00445"></path>
<path d="M0.115 0.330 Q0.110 0.594 0.625 0.654" stroke="hsl(0.0,100%,35%)" stroke-width="0.00445"></path>
<path d="M0.115 0.330 Q0.270 0.314 0.273 0.235" stroke="hsl(0.0,100%,35%)" stroke-width="0.00445"></path>
<path d="M0.716 0.351 Q0.767 0.271 0.622 0.228" stroke="hsl(0.0,100%,35%)" stroke-width="0.01781"></path>
<path d="M0.716 0.351 Q0.903 0.434 1.106 0.361" stroke="hsl(0.0,100%,35%)" stroke-width="0.00445"></path>
<path d="M0.716 0.351 Q0.349 0.757 1.061 1.025" stroke="hsl(0.0,100%,35%)" stroke-width="0.00445"></path>
<path d="M0.716 0.351 Q0.525 0.702 1.168 0.872" stroke="hsl(0.0,100%,35%)" stroke-width="0.00445"></path>
<path d="M0.508 0.984 Q0.620 0.951 0.581 0.889" stroke="hsl(0.0,100%,35%)" stroke-width="0.02672"></path>
<path d="M0.508 0.984 Q0.759 0.917 0.684 0.780" stroke="hsl(0.0,100%,35%)" stroke-width="0.00445"></path>
<path d="M0.508 0.984 Q0.591 0.871 0.388 0.805" stroke="hsl(0.0,100%,35%)" stroke-width="0.00445"></path>
<path d="M1.268 0.957 Q1.110 0.950 1.061 1.025" stroke="hsl(0.0,100%,35%)" stroke-width="0.02227"></path>
<path d="M1.268 0.957 Q1.085 0.858 0.852 0.926" stroke="hsl(0.0,100%,35%)" stroke-width="0.02227"></path>
<path d="M1.268 0.957 Q1.189 0.677 0.625 0.654" stroke="hsl(0.0,100%,35%)" stroke-width="0.00891"></path>
<path d="M1.268 0.957 Q0.909 0.649 0.228 0.756" stroke="hsl(0.0,100%,35%)" stroke-width="0.00445"></path>
<path d="M0.502 0.611 Q0.529 0.657 0.625 0.654" stroke="hsl(0.0,100%,35%)" stroke-width="0.00445"></path>
<path d="M0.502 0.611 Q0.950 0.384 0.606 0.116" stroke="hsl(0.0,100%,35%)" stroke-width="0.00445"></path>
<path d="M0.502 0.611 Q0.379 0.659 0.444 0.729" stroke="hsl(0.0,100%,35%)" stroke-width="0.00445"></path>
<path d="M0.390 0.396 Q0.722 0.299 0.606 0.116" stroke="hsl(0.0,100%,35%)" stroke-width="0.01336"></path>
<path d="M0.390 0.396 Q0.399 0.790 1.168 0.872" stroke="hsl(0.0,100%,35%)" stroke-width="0.00891"></path>
<path d="M0.390 0.396 Q0.410 0.486 0.590 0.496" stroke="hsl(0.0,100%,35%)" stroke-width="0.00891"></path>
<path d="M0.846 0.597 Q0.899 0.721 1.154 0.723" stroke="hsl(180.0,100%,35%)" stroke-width="0.00891"></path>
<path d="M0.846 0.597 Q0.960 0.544 0.882 0.476" stroke="hsl(180.0,100%,35%)" stroke-width="0.00445"></path>
<path d="M0.846 0.597 Q1.020 0.630 1.123 0.552" stroke="hsl(180.0,100%,35%)" stroke-width="0.00445"></path>
<path d="M0.947 0.686 Q1.142 0.654 1.123 0.552" stroke="hsl(180.0,100%,35%)" stroke-width="0.01336"></path>
<path d="M0.947 0.686 Q1.021 0.746 1.154 0.723" stroke="hsl(180.0,100%,35%)" stroke-width="0.01781"></path>
<path d="M0.947 0.686 Q0.968 0.621 0.846 0.597" stroke="hsl(180.0,100%,35%)" stroke-width="0.00445"></path>
</g>
<text x="0.388" y="0.787" font-size="0.035218" fill="hsl(0.0,100%,20%)">clemensb</text>
<text x="1.168" y="0.842" font-size="0.060999" fill="hsl(0.0,100%,20%)">leszeks</text>
<text x="0.070" y="0.840" font-size="0.012451" fill="hsl(0.0,100%,20%)">jgruber</text>
<text x="0.444" y="0.717" font-size="0.024903" fill="hsl(0.0,100%,20%)">mliedtke</text>
<text x="0.852" y="0.902" font-size="0.048224" fill="hsl(0.0,100%,20%)">dinfuehr</text>
<text x="0.606" y="0.084" font-size="0.063490" fill="hsl(0.0,100%,20%)">dmercadier</text>
<text x="0.684" y="0.771" font-size="0.017609" fill="hsl(0.0,100%,20%)">ishell</text>
<text x="0.622" y="0.196" font-size="0.064700" fill="hsl(0.0,100%,20%)">victorgomes</text>
<text x="1.061" y="0.998" font-size="0.054275" fill="hsl(0.0,100%,20%)">mlippautz</text>
<text x="1.613" y="0.405" font-size="0.035218" fill="hsl(0.0,100%,20%)">dlehmann</text>
<text x="1.377" y="0.450" font-size="0.012451" fill="hsl(0.0,100%,20%)">thibaudm</text>
<text x="1.066" y="0.118" font-size="0.030500" fill="hsl(0.0,100%,20%)">nicohartmann</text>
<text x="1.447" y="0.286" font-size="0.043133" fill="hsl(0.0,100%,20%)">jkummerow</text>
<text x="0.228" y="0.740" font-size="0.030500" fill="hsl(0.0,100%,20%)">manoskouk</text>
<text x="1.687" y="0.755" font-size="0.012451" fill="hsl(0.0,100%,20%)">verwaest</text>
<text x="0.590" y="0.486" font-size="0.021567" fill="hsl(0.0,100%,20%)">cbruni</text>
<text x="0.115" y="0.313" font-size="0.032943" fill="hsl(0.0,100%,20%)">manishearth</text>
<text x="0.113" y="0.246" font-size="0.012451" fill="hsl(0.0,100%,20%)">gdeepti</text>
<text x="0.625" y="0.639" font-size="0.030500" fill="hsl(0.0,100%,20%)">machenbach</text>
<text x="0.273" y="0.228" font-size="0.012451" fill="hsl(0.0,100%,20%)">rezvan</text>
<text x="0.261" y="0.523" font-size="0.017609" fill="hsl(0.0,100%,20%)">ecmziegler</text>
<text x="0.716" y="0.327" font-size="0.046589" fill="hsl(0.0,100%,20%)">marja</text>
<text x="1.106" y="0.355" font-size="0.012451" fill="hsl(0.0,100%,20%)">bikineev</text>
<text x="0.508" y="0.966" font-size="0.035218" fill="hsl(0.0,100%,20%)">mfarazma</text>
<text x="0.581" y="0.874" font-size="0.030500" fill="hsl(0.0,100%,20%)">junyan1</text>
<text x="1.268" y="0.933" font-size="0.048224" fill="hsl(0.0,100%,20%)">omerkatz</text>
<text x="0.502" y="0.601" font-size="0.021567" fill="hsl(0.0,100%,20%)">paolosev</text>
<text x="0.390" y="0.380" font-size="0.032943" fill="hsl(0.0,100%,20%)">rherouart</text>
<text x="0.846" y="0.583" font-size="0.027842" fill="hsl(180.0,100%,20%)">yahan</text>
<text x="1.154" y="0.708" font-size="0.030500" fill="hsl(180.0,100%,20%)">kasperl</text>
<text x="0.882" y="0.470" font-size="0.012451" fill="hsl(180.0,100%,20%)">qiuji</text>
<text x="1.123" y="0.539" font-size="0.024903" fill="hsl(180.0,100%,20%)">floitsch</text>
<text x="0.947" y="0.668" font-size="0.035218" fill="hsl(180.0,100%,20%)">zhijin.zeng</text>
</svg>
