<svg width="4000" height="2000" viewBox="-0.025 -0.025 2.05 1.05" xmlns="http://www.w3.org/2000/svg">
  <style>
    path {
      fill: none;
      stroke-linecap: round;
      stroke-opacity: 0.4;
    }

    text {
      text-anchor: middle;
      alignment-baseline: hanging;
    }
  </style>
  <g opacity="0.4">
<path d="M1.152 0.255 Q0.352 0.229 0.123 0.613" stroke="hsl(0.0,100%,35%)" stroke-width="0.00449"></path>
<path d="M1.152 0.255 Q0.677 0.242 0.547 0.471" stroke="hsl(0.0,100%,35%)" stroke-width="0.00449"></path>
<path d="M1.152 0.255 Q0.936 0.235 0.849 0.337" stroke="hsl(0.0,100%,35%)" stroke-width="0.00898"></path>
<path d="M1.152 0.255 Q0.995 0.055 0.570 0.088" stroke="hsl(0.0,100%,35%)" stroke-width="0.00449"></path>
<path d="M0.123 0.613 Q0.449 0.627 0.547 0.471" stroke="hsl(0.0,100%,35%)" stroke-width="0.00898"></path>
<path d="M0.123 0.613 Q0.742 1.053 1.735 0.847" stroke="hsl(0.0,100%,35%)" stroke-width="0.01346"></path>
<path d="M0.123 0.613 Q0.195 0.683 0.346 0.664" stroke="hsl(0.0,100%,35%)" stroke-width="0.00449"></path>
<path d="M0.547 0.471 Q0.704 0.810 1.399 0.808" stroke="hsl(0.0,100%,35%)" stroke-width="0.00449"></path>
<path d="M0.547 0.471 Q0.222 0.458 0.123 0.613" stroke="hsl(0.0,100%,35%)" stroke-width="0.00449"></path>
<path d="M0.547 0.471 Q0.110 0.541 0.150 0.770" stroke="hsl(0.0,100%,35%)" stroke-width="0.00449"></path>
<path d="M0.849 0.337 Q0.884 0.769 1.735 0.847" stroke="hsl(0.0,100%,35%)" stroke-width="0.00449"></path>
<path d="M0.849 0.337 Q1.066 0.357 1.152 0.255" stroke="hsl(0.0,100%,35%)" stroke-width="0.01346"></path>
<path d="M0.849 0.337 Q1.183 0.312 1.208 0.144" stroke="hsl(0.0,100%,35%)" stroke-width="0.00449"></path>
<path d="M1.661 0.537 Q1.784 0.601 1.935 0.556" stroke="hsl(0.0,100%,35%)" stroke-width="0.00898"></path>
<path d="M1.661 0.537 Q1.893 0.523 1.917 0.407" stroke="hsl(0.0,100%,35%)" stroke-width="0.00898"></path>
<path d="M1.661 0.537 Q1.613 0.429 1.391 0.428" stroke="hsl(0.0,100%,35%)" stroke-width="0.00898"></path>
<path d="M0.305 0.455 Q0.555 0.425 0.552 0.297" stroke="hsl(180.0,100%,35%)" stroke-width="0.04488"></path>
<path d="M0.305 0.455 Q0.297 0.621 0.619 0.661" stroke="hsl(180.0,100%,35%)" stroke-width="0.05834"></path>
<path d="M0.305 0.455 Q0.505 0.299 0.243 0.167" stroke="hsl(180.0,100%,35%)" stroke-width="0.02693"></path>
<path d="M0.552 0.297 Q0.501 0.170 0.243 0.167" stroke="hsl(180.0,100%,35%)" stroke-width="0.00898"></path>
<path d="M0.552 0.297 Q0.294 0.492 0.619 0.661" stroke="hsl(180.0,100%,35%)" stroke-width="0.00898"></path>
<path d="M0.552 0.297 Q0.728 0.196 0.570 0.088" stroke="hsl(180.0,100%,35%)" stroke-width="0.01346"></path>
<path d="M0.619 0.661 Q0.827 0.339 0.243 0.167" stroke="hsl(180.0,100%,35%)" stroke-width="0.02693"></path>
<path d="M0.619 0.661 Q0.877 0.465 0.552 0.297" stroke="hsl(180.0,100%,35%)" stroke-width="0.00898"></path>
<path d="M0.619 0.661 Q0.567 0.860 0.944 0.930" stroke="hsl(180.0,100%,35%)" stroke-width="0.00449"></path>
<path d="M1.503 0.974 Q1.721 0.957 1.735 0.847" stroke="hsl(0.0,100%,35%)" stroke-width="0.03590"></path>
<path d="M1.503 0.974 Q1.382 0.930 1.268 0.979" stroke="hsl(0.0,100%,35%)" stroke-width="0.01346"></path>
<path d="M1.503 0.974 Q1.102 0.518 0.123 0.613" stroke="hsl(0.0,100%,35%)" stroke-width="0.00898"></path>
<path d="M1.503 0.974 Q1.584 0.870 1.399 0.808" stroke="hsl(0.0,100%,35%)" stroke-width="0.01795"></path>
<path d="M1.503 0.974 Q1.686 0.525 0.849 0.337" stroke="hsl(0.0,100%,35%)" stroke-width="0.00898"></path>
<path d="M1.411 0.592 Q1.393 0.172 0.570 0.088" stroke="hsl(180.0,100%,35%)" stroke-width="0.00449"></path>
<path d="M1.411 0.592 Q1.551 0.372 1.152 0.255" stroke="hsl(180.0,100%,35%)" stroke-width="0.00449"></path>
<path d="M1.411 0.592 Q0.520 0.476 0.098 0.885" stroke="hsl(180.0,100%,35%)" stroke-width="0.00449"></path>
<path d="M1.411 0.592 Q1.322 0.461 1.047 0.475" stroke="hsl(180.0,100%,35%)" stroke-width="0.00898"></path>
<path d="M0.098 0.885 Q0.947 1.194 1.735 0.847" stroke="hsl(0.0,100%,35%)" stroke-width="0.00898"></path>
<path d="M0.098 0.885 Q0.912 0.761 0.849 0.337" stroke="hsl(0.0,100%,35%)" stroke-width="0.00449"></path>
<path d="M0.098 0.885 Q0.216 0.838 0.150 0.770" stroke="hsl(0.0,100%,35%)" stroke-width="0.00898"></path>
<path d="M0.098 0.885 Q0.900 0.870 1.047 0.475" stroke="hsl(0.0,100%,35%)" stroke-width="0.00449"></path>
<path d="M0.602 0.906 Q0.755 0.986 0.944 0.930" stroke="hsl(0.0,100%,35%)" stroke-width="0.01346"></path>
<path d="M0.602 0.906 Q1.216 1.103 1.735 0.847" stroke="hsl(0.0,100%,35%)" stroke-width="0.00449"></path>
<path d="M0.602 0.906 Q1.170 0.780 1.047 0.475" stroke="hsl(0.0,100%,35%)" stroke-width="0.00449"></path>
<path d="M1.393 0.302 Q1.128 0.643 1.735 0.847" stroke="hsl(0.0,100%,35%)" stroke-width="0.00898"></path>
<path d="M1.393 0.302 Q1.093 0.210 0.849 0.337" stroke="hsl(0.0,100%,35%)" stroke-width="0.01346"></path>
<path d="M1.393 0.302 Q1.290 0.365 1.391 0.428" stroke="hsl(0.0,100%,35%)" stroke-width="0.00449"></path>
<path d="M1.393 0.302 Q0.509 0.204 0.123 0.613" stroke="hsl(0.0,100%,35%)" stroke-width="0.00898"></path>
<path d="M1.036 0.605 Q1.233 0.673 1.411 0.592" stroke="hsl(0.0,100%,35%)" stroke-width="0.00449"></path>
<path d="M1.036 0.605 Q1.145 0.542 1.047 0.475" stroke="hsl(0.0,100%,35%)" stroke-width="0.00449"></path>
<path d="M1.036 0.605 Q1.192 0.866 1.735 0.847" stroke="hsl(0.0,100%,35%)" stroke-width="0.00449"></path>
<path d="M0.832 0.807 Q1.115 0.921 1.399 0.808" stroke="hsl(0.0,100%,35%)" stroke-width="0.00449"></path>
<path d="M0.832 0.807 Q1.252 1.008 1.735 0.847" stroke="hsl(0.0,100%,35%)" stroke-width="0.00898"></path>
<path d="M0.832 0.807 Q1.034 0.711 0.891 0.592" stroke="hsl(0.0,100%,35%)" stroke-width="0.00449"></path>
</g>
<text x="1.152" y="0.236" font-size="0.038730" fill="hsl(0.0,100%,20%)">dinfuehr</text>
<text x="0.123" y="0.591" font-size="0.044721" fill="hsl(0.0,100%,20%)">ishell</text>
<text x="0.547" y="0.455" font-size="0.031623" fill="hsl(0.0,100%,20%)">pthier</text>
<text x="0.849" y="0.313" font-size="0.046547" fill="hsl(0.0,100%,20%)">mlippautz</text>
<text x="0.570" y="0.074" font-size="0.028868" fill="hsl(180.0,100%,20%)">ahaas</text>
<text x="1.661" y="0.522" font-size="0.031623" fill="hsl(0.0,100%,20%)">emromero</text>
<text x="1.935" y="0.547" font-size="0.018257" fill="hsl(0.0,100%,20%)">jkummerow</text>
<text x="1.917" y="0.398" font-size="0.018257" fill="hsl(0.0,100%,20%)">paolosev</text>
<text x="1.391" y="0.417" font-size="0.022361" fill="hsl(0.0,100%,20%)">clemensb</text>
<text x="0.305" y="0.421" font-size="0.069522" fill="hsl(180.0,100%,20%)">floitsch</text>
<text x="0.552" y="0.269" font-size="0.056273" fill="hsl(180.0,100%,20%)">kasperl</text>
<text x="0.619" y="0.630" font-size="0.063246" fill="hsl(180.0,100%,20%)">yahan</text>
<text x="0.243" y="0.143" font-size="0.048305" fill="hsl(180.0,100%,20%)">qiuji</text>
<text x="1.735" y="0.818" font-size="0.057735" fill="hsl(0.0,100%,20%)">leszeks</text>
<text x="0.346" y="0.657" font-size="0.012910" fill="hsl(0.0,100%,20%)">hpayer</text>
<text x="1.503" y="0.946" font-size="0.056273" fill="hsl(0.0,100%,20%)">manishearth</text>
<text x="1.268" y="0.968" font-size="0.022361" fill="hsl(0.0,100%,20%)">rezvan</text>
<text x="1.399" y="0.792" font-size="0.031623" fill="hsl(0.0,100%,20%)">jgruber</text>
<text x="1.411" y="0.576" font-size="0.031623" fill="hsl(180.0,100%,20%)">marja</text>
<text x="0.098" y="0.868" font-size="0.034157" fill="hsl(0.0,100%,20%)">olivf</text>
<text x="1.047" y="0.461" font-size="0.028868" fill="hsl(0.0,100%,20%)">victorgomes</text>
<text x="1.208" y="0.138" font-size="0.012910" fill="hsl(0.0,100%,20%)">omerkatz</text>
<text x="0.602" y="0.892" font-size="0.028868" fill="hsl(0.0,100%,20%)">nicohartmann</text>
<text x="0.944" y="0.917" font-size="0.025820" fill="hsl(0.0,100%,20%)">mliedtke</text>
<text x="0.150" y="0.758" font-size="0.022361" fill="hsl(0.0,100%,20%)">verwaest</text>
<text x="1.393" y="0.283" font-size="0.036515" fill="hsl(0.0,100%,20%)">saelo</text>
<text x="1.036" y="0.594" font-size="0.022361" fill="hsl(0.0,100%,20%)">seokho</text>
<text x="0.832" y="0.794" font-size="0.025820" fill="hsl(0.0,100%,20%)">tikuta</text>
<text x="0.891" y="0.585" font-size="0.012910" fill="hsl(0.0,100%,20%)">machenbach</text>
</svg>
