<svg width="4000" height="2000" viewBox="-0.025 -0.025 2.05 1.05" xmlns="http://www.w3.org/2000/svg">
  <style>
    path {
      fill: none;
      stroke-linecap: round;
      stroke-opacity: 0.4;
    }

    text {
      text-anchor: middle;
      alignment-baseline: hanging;
    }
  </style>
  <g opacity="0.4">
<path d="M0.701 0.367 Q0.614 0.188 0.246 0.192" stroke="hsl(0.0,100%,35%)" stroke-width="0.00907"></path>
<path d="M0.701 0.367 Q0.922 0.348 0.933 0.237" stroke="hsl(0.0,100%,35%)" stroke-width="0.01814"></path>
<path d="M0.701 0.367 Q0.602 0.495 0.830 0.572" stroke="hsl(0.0,100%,35%)" stroke-width="0.00907"></path>
<path d="M0.701 0.367 Q1.013 0.477 1.295 0.349" stroke="hsl(0.0,100%,35%)" stroke-width="0.00907"></path>
<path d="M0.701 0.367 Q0.626 0.293 0.464 0.313" stroke="hsl(0.0,100%,35%)" stroke-width="0.00907"></path>
<path d="M1.295 0.349 Q0.574 0.252 0.228 0.583" stroke="hsl(0.0,100%,35%)" stroke-width="0.00907"></path>
<path d="M1.295 0.349 Q1.475 0.194 1.212 0.072" stroke="hsl(0.0,100%,35%)" stroke-width="0.00907"></path>
<path d="M1.295 0.349 Q0.896 0.060 0.246 0.192" stroke="hsl(0.0,100%,35%)" stroke-width="0.00907"></path>
<path d="M1.295 0.349 Q1.043 0.386 1.061 0.517" stroke="hsl(0.0,100%,35%)" stroke-width="0.00907"></path>
<path d="M0.464 0.313 Q0.539 0.387 0.701 0.367" stroke="hsl(0.0,100%,35%)" stroke-width="0.03629"></path>
<path d="M0.464 0.313 Q0.759 0.368 0.933 0.237" stroke="hsl(0.0,100%,35%)" stroke-width="0.01814"></path>
<path d="M0.464 0.313 Q0.652 0.227 0.525 0.116" stroke="hsl(0.0,100%,35%)" stroke-width="0.00907"></path>
<path d="M1.413 0.565 Q1.350 0.629 1.461 0.674" stroke="hsl(90.0,100%,35%)" stroke-width="0.00907"></path>
<path d="M1.413 0.565 Q0.915 0.662 0.994 0.926" stroke="hsl(90.0,100%,35%)" stroke-width="0.00907"></path>
<path d="M1.413 0.565 Q1.553 0.600 1.651 0.539" stroke="hsl(90.0,100%,35%)" stroke-width="0.00907"></path>
<path d="M1.814 0.413 Q1.606 0.277 1.295 0.349" stroke="hsl(180.0,100%,35%)" stroke-width="0.00907"></path>
<path d="M1.814 0.413 Q1.725 0.339 1.561 0.367" stroke="hsl(180.0,100%,35%)" stroke-width="0.01814"></path>
<path d="M1.814 0.413 Q0.989 0.391 0.764 0.788" stroke="hsl(180.0,100%,35%)" stroke-width="0.00907"></path>
<path d="M1.561 0.367 Q1.032 0.323 0.830 0.572" stroke="hsl(180.0,100%,35%)" stroke-width="0.00907"></path>
<path d="M1.561 0.367 Q0.722 0.208 0.228 0.583" stroke="hsl(180.0,100%,35%)" stroke-width="0.00907"></path>
<path d="M1.561 0.367 Q0.825 0.418 0.764 0.788" stroke="hsl(180.0,100%,35%)" stroke-width="0.00907"></path>
<path d="M1.241 0.859 Q1.318 0.916 1.446 0.891" stroke="hsl(270.0,100%,35%)" stroke-width="0.05443"></path>
<path d="M1.241 0.859 Q1.331 0.726 1.092 0.653" stroke="hsl(270.0,100%,35%)" stroke-width="0.01814"></path>
<path d="M1.241 0.859 Q1.424 0.652 1.061 0.517" stroke="hsl(270.0,100%,35%)" stroke-width="0.00907"></path>
<path d="M0.710 0.985 Q0.796 0.927 0.701 0.872" stroke="hsl(0.0,100%,35%)" stroke-width="0.00907"></path>
<path d="M0.710 0.985 Q1.512 0.784 1.295 0.349" stroke="hsl(0.0,100%,35%)" stroke-width="0.01814"></path>
<path d="M0.710 0.985 Q0.900 1.012 0.994 0.926" stroke="hsl(0.0,100%,35%)" stroke-width="0.02722"></path>
<path d="M0.191 0.447 Q0.101 0.522 0.228 0.583" stroke="hsl(180.0,100%,35%)" stroke-width="0.01814"></path>
<path d="M0.191 0.447 Q0.204 0.732 0.764 0.788" stroke="hsl(180.0,100%,35%)" stroke-width="0.00907"></path>
<path d="M0.191 0.447 Q0.386 0.862 1.241 0.859" stroke="hsl(180.0,100%,35%)" stroke-width="0.00907"></path>
<path d="M0.406 0.822 Q0.612 0.877 0.764 0.788" stroke="hsl(180.0,100%,35%)" stroke-width="0.03629"></path>
<path d="M0.406 0.822 Q0.977 0.801 1.061 0.517" stroke="hsl(180.0,100%,35%)" stroke-width="0.00907"></path>
<path d="M0.406 0.822 Q0.508 0.667 0.228 0.583" stroke="hsl(180.0,100%,35%)" stroke-width="0.01814"></path>
<path d="M0.406 0.822 Q1.030 0.493 0.525 0.116" stroke="hsl(180.0,100%,35%)" stroke-width="0.00907"></path>
</g>
<text x="0.701" y="0.337" font-size="0.060858" fill="hsl(0.0,100%,20%)">dinfuehr</text>
<text x="0.246" y="0.178" font-size="0.027217" fill="hsl(0.0,100%,20%)">nicohartmann</text>
<text x="0.933" y="0.217" font-size="0.038490" fill="hsl(0.0,100%,20%)">mlippautz</text>
<text x="0.830" y="0.558" font-size="0.027217" fill="hsl(0.0,100%,20%)">dmercadier</text>
<text x="1.295" y="0.322" font-size="0.054433" fill="hsl(0.0,100%,20%)">leszeks</text>
<text x="0.464" y="0.285" font-size="0.054433" fill="hsl(0.0,100%,20%)">omerkatz</text>
<text x="1.413" y="0.549" font-size="0.033333" fill="hsl(90.0,100%,20%)">domagoj.stolfa</text>
<text x="1.461" y="0.665" font-size="0.019245" fill="hsl(90.0,100%,20%)">qiuji</text>
<text x="0.994" y="0.907" font-size="0.038490" fill="hsl(0.0,100%,20%)">victorgomes</text>
<text x="1.651" y="0.530" font-size="0.019245" fill="hsl(90.0,100%,20%)">yahan</text>
<text x="1.814" y="0.394" font-size="0.038490" fill="hsl(180.0,100%,20%)">gergely.balint</text>
<text x="1.561" y="0.345" font-size="0.043033" fill="hsl(180.0,100%,20%)">sam.parker</text>
<text x="0.764" y="0.763" font-size="0.050918" fill="hsl(180.0,100%,20%)">mliedtke</text>
<text x="0.228" y="0.559" font-size="0.047140" fill="hsl(180.0,100%,20%)">jkummerow</text>
<text x="1.212" y="0.063" font-size="0.019245" fill="hsl(0.0,100%,20%)">ishell</text>
<text x="1.061" y="0.501" font-size="0.033333" fill="hsl(180.0,100%,20%)">cbruni</text>
<text x="1.241" y="0.828" font-size="0.060858" fill="hsl(270.0,100%,20%)">machenbach</text>
<text x="1.446" y="0.867" font-size="0.047140" fill="hsl(270.0,100%,20%)">sroettger</text>
<text x="1.092" y="0.639" font-size="0.027217" fill="hsl(270.0,100%,20%)">manoskouk</text>
<text x="0.710" y="0.961" font-size="0.047140" fill="hsl(0.0,100%,20%)">marja</text>
<text x="0.701" y="0.862" font-size="0.019245" fill="hsl(0.0,100%,20%)">jgruber</text>
<text x="0.525" y="0.103" font-size="0.027217" fill="hsl(0.0,100%,20%)">nikolaos</text>
<text x="0.191" y="0.427" font-size="0.038490" fill="hsl(180.0,100%,20%)">paolosev</text>
<text x="0.406" y="0.795" font-size="0.054433" fill="hsl(180.0,100%,20%)">thibaudm</text>
</svg>
