<svg width="4000" height="2000" viewBox="-0.025 -0.025 2.05 1.05" xmlns="http://www.w3.org/2000/svg">
  <style>
    path {
      fill: none;
      stroke-linecap: round;
      stroke-opacity: 0.4;
    }

    text {
      text-anchor: middle;
      alignment-baseline: hanging;
    }
  </style>
  <g opacity="0.4">
<path d="M0.284 0.903 Q0.472 0.875 0.458 0.777" stroke="hsl(0.0,100%,35%)" stroke-width="0.00187"></path>
<path d="M0.284 0.903 Q0.410 0.977 0.582 0.932" stroke="hsl(0.0,100%,35%)" stroke-width="0.00187"></path>
<path d="M0.284 0.903 Q0.497 0.915 0.567 0.814" stroke="hsl(0.0,100%,35%)" stroke-width="0.00125"></path>
<path d="M0.582 0.932 Q0.669 0.869 0.567 0.814" stroke="hsl(0.0,100%,35%)" stroke-width="0.00062"></path>
<path d="M0.582 0.932 Q1.066 0.612 0.548 0.306" stroke="hsl(0.0,100%,35%)" stroke-width="0.00187"></path>
<path d="M0.582 0.932 Q0.424 0.920 0.367 0.994" stroke="hsl(0.0,100%,35%)" stroke-width="0.00125"></path>
<path d="M0.567 0.814 Q0.542 0.774 0.458 0.777" stroke="hsl(0.0,100%,35%)" stroke-width="0.00187"></path>
<path d="M0.567 0.814 Q0.868 1.091 1.476 1.005" stroke="hsl(0.0,100%,35%)" stroke-width="0.00062"></path>
<path d="M0.567 0.814 Q1.040 0.464 0.462 0.157" stroke="hsl(0.0,100%,35%)" stroke-width="0.00062"></path>
<path d="M0.462 0.157 Q0.413 0.406 0.889 0.485" stroke="hsl(0.0,100%,35%)" stroke-width="0.00375"></path>
<path d="M0.462 0.157 Q0.581 0.451 1.182 0.458" stroke="hsl(0.0,100%,35%)" stroke-width="0.00250"></path>
<path d="M0.462 0.157 Q0.386 0.249 0.548 0.306" stroke="hsl(0.0,100%,35%)" stroke-width="0.01062"></path>
<path d="M0.462 0.157 Q-0.154 0.393 0.171 0.745" stroke="hsl(0.0,100%,35%)" stroke-width="0.00125"></path>
<path d="M0.462 0.157 Q0.096 0.168 0.038 0.349" stroke="hsl(0.0,100%,35%)" stroke-width="0.00625"></path>
<path d="M0.462 0.157 Q0.033 0.383 0.379 0.642" stroke="hsl(0.0,100%,35%)" stroke-width="0.00062"></path>
<path d="M0.462 0.157 Q0.592 0.392 1.079 0.380" stroke="hsl(0.0,100%,35%)" stroke-width="0.00187"></path>
<path d="M0.462 0.157 Q0.323 0.476 0.916 0.614" stroke="hsl(0.0,100%,35%)" stroke-width="0.00125"></path>
<path d="M0.462 0.157 Q0.501 0.551 1.278 0.618" stroke="hsl(0.0,100%,35%)" stroke-width="0.00250"></path>
<path d="M0.462 0.157 Q0.291 0.784 1.476 1.005" stroke="hsl(0.0,100%,35%)" stroke-width="0.00187"></path>
<path d="M0.462 0.157 Q0.185 0.713 1.209 0.971" stroke="hsl(0.0,100%,35%)" stroke-width="0.00062"></path>
<path d="M0.462 0.157 Q0.257 0.363 0.615 0.509" stroke="hsl(0.0,100%,35%)" stroke-width="0.00062"></path>
<path d="M0.889 0.485 Q0.221 0.635 0.367 0.994" stroke="hsl(90.0,100%,35%)" stroke-width="0.00062"></path>
<path d="M0.889 0.485 Q1.057 0.530 1.182 0.458" stroke="hsl(90.0,100%,35%)" stroke-width="0.03187"></path>
<path d="M0.889 0.485 Q0.938 0.235 0.462 0.157" stroke="hsl(90.0,100%,35%)" stroke-width="0.00187"></path>
<path d="M0.889 0.485 Q0.572 0.247 0.038 0.349" stroke="hsl(90.0,100%,35%)" stroke-width="0.00062"></path>
<path d="M0.889 0.485 Q1.068 0.470 1.079 0.380" stroke="hsl(90.0,100%,35%)" stroke-width="0.01062"></path>
<path d="M0.889 0.485 Q0.834 0.406 0.669 0.416" stroke="hsl(90.0,100%,35%)" stroke-width="0.00125"></path>
<path d="M0.889 0.485 Q0.509 0.461 0.379 0.642" stroke="hsl(90.0,100%,35%)" stroke-width="0.00187"></path>
<path d="M0.889 0.485 Q0.698 0.280 0.255 0.328" stroke="hsl(90.0,100%,35%)" stroke-width="0.00250"></path>
<path d="M0.889 0.485 Q0.862 0.327 0.548 0.306" stroke="hsl(90.0,100%,35%)" stroke-width="0.00312"></path>
<path d="M0.889 0.485 Q0.322 0.471 0.171 0.745" stroke="hsl(90.0,100%,35%)" stroke-width="0.00062"></path>
<path d="M0.889 0.485 Q0.661 0.792 1.209 0.971" stroke="hsl(90.0,100%,35%)" stroke-width="0.00062"></path>
<path d="M0.889 0.485 Q1.243 0.651 1.644 0.514" stroke="hsl(90.0,100%,35%)" stroke-width="0.00062"></path>
<path d="M1.182 0.458 Q1.014 0.413 0.889 0.485" stroke="hsl(90.0,100%,35%)" stroke-width="0.00562"></path>
<path d="M1.182 0.458 Q1.092 0.688 1.522 0.782" stroke="hsl(90.0,100%,35%)" stroke-width="0.00062"></path>
<path d="M1.182 0.458 Q1.192 0.398 1.079 0.380" stroke="hsl(90.0,100%,35%)" stroke-width="0.01562"></path>
<path d="M1.182 0.458 Q0.986 0.255 0.548 0.306" stroke="hsl(90.0,100%,35%)" stroke-width="0.00125"></path>
<path d="M1.182 0.458 Q0.446 0.399 0.171 0.745" stroke="hsl(90.0,100%,35%)" stroke-width="0.00250"></path>
<path d="M1.182 0.458 Q0.785 0.720 1.209 0.971" stroke="hsl(90.0,100%,35%)" stroke-width="0.00062"></path>
<path d="M1.182 0.458 Q0.891 0.790 1.476 1.005" stroke="hsl(90.0,100%,35%)" stroke-width="0.00250"></path>
<path d="M1.182 0.458 Q1.218 0.355 1.024 0.315" stroke="hsl(90.0,100%,35%)" stroke-width="0.00062"></path>
<path d="M1.182 0.458 Q0.565 0.473 0.458 0.777" stroke="hsl(90.0,100%,35%)" stroke-width="0.00125"></path>
<path d="M1.182 0.458 Q0.766 0.268 0.305 0.429" stroke="hsl(90.0,100%,35%)" stroke-width="0.00062"></path>
<path d="M1.182 0.458 Q0.853 0.649 1.153 0.851" stroke="hsl(90.0,100%,35%)" stroke-width="0.00062"></path>
<path d="M0.548 0.306 Q0.384 0.258 0.255 0.328" stroke="hsl(0.0,100%,35%)" stroke-width="0.00375"></path>
<path d="M0.548 0.306 Q0.414 0.699 1.153 0.851" stroke="hsl(0.0,100%,35%)" stroke-width="0.00312"></path>
<path d="M0.548 0.306 Q0.378 0.395 0.515 0.498" stroke="hsl(0.0,100%,35%)" stroke-width="0.00375"></path>
<path d="M0.548 0.306 Q0.258 0.226 0.038 0.349" stroke="hsl(0.0,100%,35%)" stroke-width="0.01125"></path>
<path d="M0.548 0.306 Q0.485 0.534 0.916 0.614" stroke="hsl(0.0,100%,35%)" stroke-width="0.00062"></path>
<path d="M0.548 0.306 Q0.347 0.770 1.209 0.971" stroke="hsl(0.0,100%,35%)" stroke-width="0.00062"></path>
<path d="M0.548 0.306 Q0.426 0.328 0.443 0.393" stroke="hsl(0.0,100%,35%)" stroke-width="0.00187"></path>
<path d="M0.548 0.306 Q0.453 0.841 1.476 1.005" stroke="hsl(0.0,100%,35%)" stroke-width="0.00062"></path>
<path d="M0.171 0.745 Q0.983 1.116 1.885 0.802" stroke="hsl(90.0,100%,35%)" stroke-width="0.00062"></path>
<path d="M0.171 0.745 Q0.616 1.136 1.476 1.005" stroke="hsl(90.0,100%,35%)" stroke-width="0.00125"></path>
<path d="M0.171 0.745 Q0.907 0.804 1.182 0.458" stroke="hsl(90.0,100%,35%)" stroke-width="0.00375"></path>
<path d="M0.171 0.745 Q0.917 0.744 1.079 0.380" stroke="hsl(90.0,100%,35%)" stroke-width="0.00250"></path>
<path d="M0.171 0.745 Q0.739 0.759 0.889 0.485" stroke="hsl(90.0,100%,35%)" stroke-width="0.00062"></path>
<path d="M0.171 0.745 Q0.510 1.066 1.209 0.971" stroke="hsl(90.0,100%,35%)" stroke-width="0.00250"></path>
<path d="M0.171 0.745 Q0.547 0.554 0.255 0.328" stroke="hsl(90.0,100%,35%)" stroke-width="0.00062"></path>
<path d="M0.171 0.745 Q0.817 1.034 1.522 0.782" stroke="hsl(90.0,100%,35%)" stroke-width="0.00062"></path>
<path d="M0.171 0.745 Q0.491 0.614 0.305 0.429" stroke="hsl(90.0,100%,35%)" stroke-width="0.00062"></path>
<path d="M0.038 0.349 Q0.157 0.519 0.515 0.498" stroke="hsl(0.0,100%,35%)" stroke-width="0.00125"></path>
<path d="M0.038 0.349 Q0.164 0.382 0.255 0.328" stroke="hsl(0.0,100%,35%)" stroke-width="0.00937"></path>
<path d="M0.038 0.349 Q0.328 0.430 0.548 0.306" stroke="hsl(0.0,100%,35%)" stroke-width="0.01562"></path>
<path d="M0.038 0.349 Q0.108 0.443 0.305 0.429" stroke="hsl(0.0,100%,35%)" stroke-width="0.00187"></path>
<path d="M0.038 0.349 Q0.135 0.733 0.905 0.770" stroke="hsl(0.0,100%,35%)" stroke-width="0.00062"></path>
<path d="M0.379 0.642 Q0.539 0.811 0.905 0.770" stroke="hsl(90.0,100%,35%)" stroke-width="0.00062"></path>
<path d="M0.379 0.642 Q0.399 0.556 0.236 0.528" stroke="hsl(90.0,100%,35%)" stroke-width="0.02312"></path>
<path d="M0.379 0.642 Q0.192 0.652 0.171 0.745" stroke="hsl(90.0,100%,35%)" stroke-width="0.02249"></path>
<path d="M0.379 0.642 Q0.938 0.651 1.079 0.380" stroke="hsl(90.0,100%,35%)" stroke-width="0.00125"></path>
<path d="M0.379 0.642 Q0.732 0.508 0.548 0.306" stroke="hsl(90.0,100%,35%)" stroke-width="0.00062"></path>
<path d="M0.379 0.642 Q0.670 0.735 0.916 0.614" stroke="hsl(90.0,100%,35%)" stroke-width="0.00125"></path>
<path d="M0.379 0.642 Q0.760 0.665 0.889 0.485" stroke="hsl(90.0,100%,35%)" stroke-width="0.00312"></path>
<path d="M0.379 0.642 Q1.403 0.758 1.854 0.284" stroke="hsl(90.0,100%,35%)" stroke-width="0.00062"></path>
<path d="M0.379 0.642 Q0.599 0.901 1.153 0.851" stroke="hsl(90.0,100%,35%)" stroke-width="0.00062"></path>
<path d="M0.379 0.642 Q0.808 0.416 0.462 0.157" stroke="hsl(90.0,100%,35%)" stroke-width="0.00062"></path>
<path d="M0.379 0.642 Q0.637 1.043 1.476 1.005" stroke="hsl(90.0,100%,35%)" stroke-width="0.00250"></path>
<path d="M0.379 0.642 Q0.568 0.460 0.255 0.328" stroke="hsl(90.0,100%,35%)" stroke-width="0.00062"></path>
<path d="M0.379 0.642 Q0.531 0.972 1.209 0.971" stroke="hsl(90.0,100%,35%)" stroke-width="0.00062"></path>
<path d="M0.379 0.642 Q0.928 0.710 1.182 0.458" stroke="hsl(90.0,100%,35%)" stroke-width="0.00125"></path>
<path d="M0.379 0.642 Q0.740 0.869 1.263 0.743" stroke="hsl(90.0,100%,35%)" stroke-width="0.00125"></path>
<path d="M0.379 0.642 Q0.525 0.750 0.767 0.702" stroke="hsl(90.0,100%,35%)" stroke-width="0.00062"></path>
<path d="M1.079 0.380 Q1.068 0.440 1.182 0.458" stroke="hsl(90.0,100%,35%)" stroke-width="0.00375"></path>
<path d="M1.079 0.380 Q0.665 0.479 0.767 0.702" stroke="hsl(90.0,100%,35%)" stroke-width="0.00312"></path>
<path d="M1.079 0.380 Q0.333 0.381 0.171 0.745" stroke="hsl(90.0,100%,35%)" stroke-width="0.00062"></path>
<path d="M1.079 0.380 Q0.810 0.465 0.916 0.614" stroke="hsl(90.0,100%,35%)" stroke-width="0.00062"></path>
<path d="M1.079 0.380 Q0.680 0.540 0.905 0.770" stroke="hsl(90.0,100%,35%)" stroke-width="0.00062"></path>
<path d="M1.079 0.380 Q0.900 0.395 0.889 0.485" stroke="hsl(90.0,100%,35%)" stroke-width="0.00125"></path>
<path d="M1.079 0.380 Q0.778 0.772 1.476 1.005" stroke="hsl(90.0,100%,35%)" stroke-width="0.00062"></path>
<path d="M1.079 0.380 Q0.520 0.371 0.379 0.642" stroke="hsl(90.0,100%,35%)" stroke-width="0.00125"></path>
<path d="M1.079 0.380 Q0.744 0.352 0.615 0.509" stroke="hsl(90.0,100%,35%)" stroke-width="0.00250"></path>
<path d="M1.079 0.380 Q0.672 0.701 1.209 0.971" stroke="hsl(90.0,100%,35%)" stroke-width="0.00062"></path>
<path d="M1.079 0.380 Q0.653 0.250 0.305 0.429" stroke="hsl(90.0,100%,35%)" stroke-width="0.00062"></path>
<path d="M1.079 0.380 Q0.583 0.157 0.038 0.349" stroke="hsl(90.0,100%,35%)" stroke-width="0.00062"></path>
<path d="M0.916 0.614 Q0.883 0.921 1.476 1.005" stroke="hsl(180.0,100%,35%)" stroke-width="0.00687"></path>
<path d="M0.916 0.614 Q0.438 0.531 0.171 0.745" stroke="hsl(180.0,100%,35%)" stroke-width="0.00312"></path>
<path d="M0.916 0.614 Q0.785 0.690 0.905 0.770" stroke="hsl(180.0,100%,35%)" stroke-width="0.00312"></path>
<path d="M0.916 0.614 Q0.771 0.628 0.767 0.702" stroke="hsl(180.0,100%,35%)" stroke-width="0.01437"></path>
<path d="M0.916 0.614 Q1.094 0.689 1.278 0.618" stroke="hsl(180.0,100%,35%)" stroke-width="0.00312"></path>
<path d="M0.916 0.614 Q0.626 0.521 0.379 0.642" stroke="hsl(180.0,100%,35%)" stroke-width="0.00250"></path>
<path d="M0.916 0.614 Q0.979 0.386 0.548 0.306" stroke="hsl(180.0,100%,35%)" stroke-width="0.00062"></path>
<path d="M0.916 0.614 Q1.649 0.637 1.854 0.284" stroke="hsl(180.0,100%,35%)" stroke-width="0.00125"></path>
<path d="M0.916 0.614 Q0.986 0.748 1.263 0.743" stroke="hsl(180.0,100%,35%)" stroke-width="0.00062"></path>
<path d="M0.916 0.614 Q0.777 0.851 1.209 0.971" stroke="hsl(180.0,100%,35%)" stroke-width="0.00062"></path>
<path d="M1.278 0.618 Q1.068 0.851 1.476 1.005" stroke="hsl(180.0,100%,35%)" stroke-width="0.00687"></path>
<path d="M1.278 0.618 Q0.623 0.460 0.171 0.745" stroke="hsl(180.0,100%,35%)" stroke-width="0.00062"></path>
<path d="M1.278 0.618 Q1.101 0.544 0.916 0.614" stroke="hsl(180.0,100%,35%)" stroke-width="0.00062"></path>
<path d="M1.278 0.618 Q1.239 0.224 0.462 0.157" stroke="hsl(180.0,100%,35%)" stroke-width="0.00250"></path>
<path d="M1.278 0.618 Q0.956 0.558 0.767 0.702" stroke="hsl(180.0,100%,35%)" stroke-width="0.01000"></path>
<path d="M1.278 0.618 Q0.962 0.780 1.209 0.971" stroke="hsl(180.0,100%,35%)" stroke-width="0.00250"></path>
<path d="M1.278 0.618 Q0.970 0.620 0.905 0.770" stroke="hsl(180.0,100%,35%)" stroke-width="0.00625"></path>
<path d="M1.278 0.618 Q1.171 0.678 1.263 0.743" stroke="hsl(180.0,100%,35%)" stroke-width="0.00250"></path>
<path d="M1.278 0.618 Q0.810 0.450 0.379 0.642" stroke="hsl(180.0,100%,35%)" stroke-width="0.00062"></path>
<path d="M1.278 0.618 Q1.029 0.709 1.153 0.851" stroke="hsl(180.0,100%,35%)" stroke-width="0.00062"></path>
<path d="M1.476 1.005 Q1.677 0.903 1.522 0.782" stroke="hsl(180.0,100%,35%)" stroke-width="0.00375"></path>
<path d="M1.476 1.005 Q1.578 0.832 1.263 0.743" stroke="hsl(180.0,100%,35%)" stroke-width="0.00125"></path>
<path d="M1.476 1.005 Q1.218 0.604 0.379 0.642" stroke="hsl(180.0,100%,35%)" stroke-width="0.00312"></path>
<path d="M1.476 1.005 Q1.767 0.673 1.182 0.458" stroke="hsl(180.0,100%,35%)" stroke-width="0.00312"></path>
<path d="M1.476 1.005 Q1.378 0.773 0.905 0.770" stroke="hsl(180.0,100%,35%)" stroke-width="0.00125"></path>
<path d="M1.476 1.005 Q1.370 0.934 1.209 0.971" stroke="hsl(180.0,100%,35%)" stroke-width="0.01062"></path>
<path d="M1.476 1.005 Q1.571 0.470 0.548 0.306" stroke="hsl(180.0,100%,35%)" stroke-width="0.00437"></path>
<path d="M1.476 1.005 Q1.777 0.613 1.079 0.380" stroke="hsl(180.0,100%,35%)" stroke-width="0.00062"></path>
<path d="M1.476 1.005 Q1.643 1.033 1.735 0.958" stroke="hsl(180.0,100%,35%)" stroke-width="0.00062"></path>
<path d="M1.476 1.005 Q1.031 0.614 0.171 0.745" stroke="hsl(180.0,100%,35%)" stroke-width="0.00062"></path>
<path d="M1.476 1.005 Q1.686 0.772 1.278 0.618" stroke="hsl(180.0,100%,35%)" stroke-width="0.00125"></path>
<path d="M1.476 1.005 Q1.437 0.863 1.153 0.851" stroke="hsl(180.0,100%,35%)" stroke-width="0.00062"></path>
<path d="M1.476 1.005 Q0.930 0.778 0.367 0.994" stroke="hsl(180.0,100%,35%)" stroke-width="0.00062"></path>
<path d="M1.476 1.005 Q1.351 0.483 0.305 0.429" stroke="hsl(180.0,100%,35%)" stroke-width="0.00062"></path>
<path d="M1.209 0.971 Q1.276 0.900 1.153 0.851" stroke="hsl(180.0,100%,35%)" stroke-width="0.00625"></path>
<path d="M1.209 0.971 Q1.315 1.041 1.476 1.005" stroke="hsl(180.0,100%,35%)" stroke-width="0.00250"></path>
<path d="M1.209 0.971 Q0.870 0.650 0.171 0.745" stroke="hsl(180.0,100%,35%)" stroke-width="0.00062"></path>
<path d="M1.209 0.971 Q1.516 0.939 1.522 0.782" stroke="hsl(180.0,100%,35%)" stroke-width="0.00250"></path>
<path d="M1.209 0.971 Q1.203 0.748 0.767 0.702" stroke="hsl(180.0,100%,35%)" stroke-width="0.00125"></path>
<path d="M1.209 0.971 Q1.525 0.808 1.278 0.618" stroke="hsl(180.0,100%,35%)" stroke-width="0.00062"></path>
<path d="M1.209 0.971 Q1.410 0.506 0.548 0.306" stroke="hsl(180.0,100%,35%)" stroke-width="0.00250"></path>
<path d="M1.209 0.971 Q1.013 0.764 0.567 0.814" stroke="hsl(180.0,100%,35%)" stroke-width="0.00062"></path>
<path d="M1.209 0.971 Q1.057 0.640 0.379 0.642" stroke="hsl(180.0,100%,35%)" stroke-width="0.00062"></path>
<path d="M1.209 0.971 Q1.246 0.459 0.255 0.328" stroke="hsl(180.0,100%,35%)" stroke-width="0.00125"></path>
<path d="M1.209 0.971 Q1.217 0.810 0.905 0.770" stroke="hsl(180.0,100%,35%)" stroke-width="0.00062"></path>
<path d="M0.615 0.509 Q0.536 0.636 0.767 0.702" stroke="hsl(90.0,100%,35%)" stroke-width="0.00062"></path>
<path d="M0.615 0.509 Q0.975 0.493 1.024 0.315" stroke="hsl(90.0,100%,35%)" stroke-width="0.00062"></path>
<path d="M0.615 0.509 Q0.744 0.394 0.548 0.306" stroke="hsl(90.0,100%,35%)" stroke-width="0.00062"></path>
<path d="M1.332 0.289 Q1.452 0.254 1.409 0.188" stroke="hsl(270.0,100%,35%)" stroke-width="0.00125"></path>
<path d="M1.332 0.289 Q1.449 0.321 1.537 0.271" stroke="hsl(270.0,100%,35%)" stroke-width="0.00125"></path>
<path d="M1.332 0.289 Q1.003 0.049 0.462 0.157" stroke="hsl(270.0,100%,35%)" stroke-width="0.00062"></path>
<path d="M1.332 0.289 Q1.133 0.284 1.079 0.380" stroke="hsl(270.0,100%,35%)" stroke-width="0.00062"></path>
<path d="M1.537 0.271 Q1.539 0.204 1.409 0.188" stroke="hsl(270.0,100%,35%)" stroke-width="0.01000"></path>
<path d="M1.537 0.271 Q0.807 0.333 0.767 0.702" stroke="hsl(270.0,100%,35%)" stroke-width="0.00125"></path>
<path d="M1.537 0.271 Q1.245 0.190 1.024 0.315" stroke="hsl(270.0,100%,35%)" stroke-width="0.00062"></path>
<path d="M0.342 0.879 Q0.482 0.852 0.458 0.777" stroke="hsl(0.0,100%,35%)" stroke-width="0.00437"></path>
<path d="M0.342 0.879 Q0.561 0.831 0.515 0.714" stroke="hsl(0.0,100%,35%)" stroke-width="0.00125"></path>
<path d="M0.342 0.879 Q0.507 0.892 0.567 0.814" stroke="hsl(0.0,100%,35%)" stroke-width="0.00437"></path>
<path d="M0.342 0.879 Q0.262 0.942 0.367 0.994" stroke="hsl(0.0,100%,35%)" stroke-width="0.00125"></path>
<path d="M0.342 0.879 Q0.532 0.915 0.642 0.829" stroke="hsl(0.0,100%,35%)" stroke-width="0.00062"></path>
<path d="M1.315 0.416 Q1.215 0.410 1.182 0.458" stroke="hsl(90.0,100%,35%)" stroke-width="0.00062"></path>
<path d="M1.315 0.416 Q1.225 0.351 1.079 0.380" stroke="hsl(90.0,100%,35%)" stroke-width="0.00062"></path>
<path d="M1.315 0.416 Q1.221 0.234 0.845 0.240" stroke="hsl(90.0,100%,35%)" stroke-width="0.00062"></path>
<path d="M1.315 0.416 Q0.709 0.556 0.850 0.882" stroke="hsl(90.0,100%,35%)" stroke-width="0.00062"></path>
<path d="M1.315 0.416 Q1.250 0.307 1.024 0.315" stroke="hsl(90.0,100%,35%)" stroke-width="0.00062"></path>
<path d="M0.845 0.240 Q0.839 0.416 1.182 0.458" stroke="hsl(90.0,100%,35%)" stroke-width="0.00250"></path>
<path d="M0.845 0.240 Q1.315 0.464 1.854 0.284" stroke="hsl(90.0,100%,35%)" stroke-width="0.00187"></path>
<path d="M0.845 0.240 Q0.875 0.313 1.024 0.315" stroke="hsl(90.0,100%,35%)" stroke-width="0.00187"></path>
<path d="M0.850 0.882 Q0.732 0.892 0.726 0.952" stroke="hsl(180.0,100%,35%)" stroke-width="0.00812"></path>
<path d="M0.850 0.882 Q1.065 1.069 1.476 1.005" stroke="hsl(180.0,100%,35%)" stroke-width="0.00500"></path>
<path d="M0.850 0.882 Q1.160 0.534 0.548 0.306" stroke="hsl(180.0,100%,35%)" stroke-width="0.00062"></path>
<path d="M0.850 0.882 Q1.831 0.784 1.854 0.284" stroke="hsl(180.0,100%,35%)" stroke-width="0.00187"></path>
<path d="M0.850 0.882 Q1.275 0.836 1.278 0.618" stroke="hsl(180.0,100%,35%)" stroke-width="0.00062"></path>
<path d="M0.850 0.882 Q0.866 0.912 0.928 0.910" stroke="hsl(180.0,100%,35%)" stroke-width="0.00500"></path>
<path d="M0.850 0.882 Q1.391 0.633 1.024 0.315" stroke="hsl(180.0,100%,35%)" stroke-width="0.00312"></path>
<path d="M0.850 0.882 Q1.236 0.442 0.462 0.157" stroke="hsl(180.0,100%,35%)" stroke-width="0.00062"></path>
<path d="M0.850 0.882 Q1.366 0.677 1.079 0.380" stroke="hsl(180.0,100%,35%)" stroke-width="0.00062"></path>
<path d="M0.850 0.882 Q0.953 0.776 0.767 0.702" stroke="hsl(180.0,100%,35%)" stroke-width="0.00062"></path>
<path d="M0.850 0.882 Q1.356 0.736 1.182 0.458" stroke="hsl(180.0,100%,35%)" stroke-width="0.00187"></path>
<path d="M0.850 0.882 Q0.967 0.837 0.905 0.770" stroke="hsl(180.0,100%,35%)" stroke-width="0.00062"></path>
<path d="M0.850 0.882 Q0.940 0.547 0.305 0.429" stroke="hsl(180.0,100%,35%)" stroke-width="0.00062"></path>
<path d="M0.850 0.882 Q1.266 0.966 1.522 0.782" stroke="hsl(180.0,100%,35%)" stroke-width="0.00125"></path>
<path d="M0.850 0.882 Q0.959 0.998 1.209 0.971" stroke="hsl(180.0,100%,35%)" stroke-width="0.00125"></path>
<path d="M1.024 0.315 Q0.665 0.330 0.615 0.509" stroke="hsl(90.0,100%,35%)" stroke-width="0.00125"></path>
<path d="M1.024 0.315 Q0.989 0.418 1.182 0.458" stroke="hsl(90.0,100%,35%)" stroke-width="0.01125"></path>
<path d="M1.024 0.315 Q0.821 0.373 0.889 0.485" stroke="hsl(90.0,100%,35%)" stroke-width="0.00062"></path>
<path d="M1.024 0.315 Q0.659 0.609 1.153 0.851" stroke="hsl(90.0,100%,35%)" stroke-width="0.00125"></path>
<path d="M1.024 0.315 Q0.440 0.349 0.379 0.642" stroke="hsl(90.0,100%,35%)" stroke-width="0.00062"></path>
<path d="M1.024 0.315 Q0.152 0.523 0.367 0.994" stroke="hsl(90.0,100%,35%)" stroke-width="0.00062"></path>
<path d="M1.024 0.315 Q0.999 0.358 1.079 0.380" stroke="hsl(90.0,100%,35%)" stroke-width="0.00062"></path>
<path d="M0.599 0.565 Q0.686 0.960 1.476 1.005" stroke="hsl(90.0,100%,35%)" stroke-width="0.00062"></path>
<path d="M0.599 0.565 Q0.241 0.569 0.171 0.745" stroke="hsl(90.0,100%,35%)" stroke-width="0.00062"></path>
<path d="M0.599 0.565 Q0.781 0.425 0.548 0.306" stroke="hsl(90.0,100%,35%)" stroke-width="0.00062"></path>
<path d="M0.255 0.328 Q0.419 0.375 0.548 0.306" stroke="hsl(0.0,100%,35%)" stroke-width="0.00937"></path>
<path d="M0.255 0.328 Q0.199 0.389 0.305 0.429" stroke="hsl(0.0,100%,35%)" stroke-width="0.00062"></path>
<path d="M0.255 0.328 Q0.630 0.281 0.621 0.088" stroke="hsl(0.0,100%,35%)" stroke-width="0.00062"></path>
<path d="M0.255 0.328 Q0.324 0.910 1.476 1.005" stroke="hsl(0.0,100%,35%)" stroke-width="0.00687"></path>
<path d="M0.255 0.328 Q0.286 0.769 1.153 0.851" stroke="hsl(0.0,100%,35%)" stroke-width="0.00062"></path>
<path d="M0.255 0.328 Q0.218 0.840 1.209 0.971" stroke="hsl(0.0,100%,35%)" stroke-width="0.00375"></path>
<path d="M0.255 0.328 Q0.249 0.465 0.515 0.498" stroke="hsl(0.0,100%,35%)" stroke-width="0.00062"></path>
<path d="M0.255 0.328 Q-0.222 0.683 0.367 0.994" stroke="hsl(0.0,100%,35%)" stroke-width="0.00062"></path>
<path d="M0.255 0.328 Q0.130 0.295 0.038 0.349" stroke="hsl(0.0,100%,35%)" stroke-width="0.00375"></path>
<path d="M0.255 0.328 Q0.212 0.617 0.767 0.702" stroke="hsl(0.0,100%,35%)" stroke-width="0.00062"></path>
<path d="M0.255 0.328 Q0.525 0.808 1.522 0.782" stroke="hsl(0.0,100%,35%)" stroke-width="0.00062"></path>
<path d="M0.255 0.328 Q0.066 0.510 0.379 0.642" stroke="hsl(0.0,100%,35%)" stroke-width="0.00250"></path>
<path d="M1.644 0.514 Q1.697 0.596 1.868 0.589" stroke="hsl(0.0,100%,35%)" stroke-width="0.00125"></path>
<path d="M1.644 0.514 Q1.494 0.290 1.024 0.315" stroke="hsl(0.0,100%,35%)" stroke-width="0.00125"></path>
<path d="M1.644 0.514 Q1.873 0.504 1.903 0.390" stroke="hsl(0.0,100%,35%)" stroke-width="0.00062"></path>
<path d="M1.746 0.925 Q1.547 0.911 1.476 1.005" stroke="hsl(180.0,100%,35%)" stroke-width="0.00125"></path>
<path d="M1.746 0.925 Q2.313 0.626 1.854 0.284" stroke="hsl(180.0,100%,35%)" stroke-width="0.00062"></path>
<path d="M1.746 0.925 Q1.838 0.579 1.182 0.458" stroke="hsl(180.0,100%,35%)" stroke-width="0.00062"></path>
<path d="M1.854 0.284 Q1.960 0.228 1.874 0.164" stroke="hsl(0.0,100%,35%)" stroke-width="0.00062"></path>
<path d="M1.854 0.284 Q1.793 0.347 1.903 0.390" stroke="hsl(0.0,100%,35%)" stroke-width="0.01000"></path>
<path d="M1.854 0.284 Q1.191 0.395 1.263 0.743" stroke="hsl(0.0,100%,35%)" stroke-width="0.00062"></path>
<path d="M1.854 0.284 Q1.050 0.427 1.153 0.851" stroke="hsl(0.0,100%,35%)" stroke-width="0.00062"></path>
<path d="M1.854 0.284 Q1.088 0.569 1.476 1.005" stroke="hsl(0.0,100%,35%)" stroke-width="0.00125"></path>
<path d="M1.854 0.284 Q1.183 0.034 0.548 0.306" stroke="hsl(0.0,100%,35%)" stroke-width="0.00187"></path>
<path d="M1.854 0.284 Q1.211 0.191 0.889 0.485" stroke="hsl(0.0,100%,35%)" stroke-width="0.00062"></path>
<path d="M1.854 0.284 Q0.542 0.342 0.367 0.994" stroke="hsl(0.0,100%,35%)" stroke-width="0.00187"></path>
<path d="M1.854 0.284 Q0.830 0.168 0.379 0.642" stroke="hsl(0.0,100%,35%)" stroke-width="0.00250"></path>
<path d="M1.854 0.284 Q0.976 0.276 0.767 0.702" stroke="hsl(0.0,100%,35%)" stroke-width="0.00187"></path>
<path d="M1.854 0.284 Q0.990 0.337 0.905 0.770" stroke="hsl(0.0,100%,35%)" stroke-width="0.00250"></path>
<path d="M1.854 0.284 Q1.565 0.357 1.644 0.514" stroke="hsl(0.0,100%,35%)" stroke-width="0.00250"></path>
<path d="M1.854 0.284 Q1.121 0.261 0.916 0.614" stroke="hsl(0.0,100%,35%)" stroke-width="0.00187"></path>
<path d="M1.854 0.284 Q1.908 0.212 1.780 0.170" stroke="hsl(0.0,100%,35%)" stroke-width="0.00062"></path>
<path d="M1.854 0.284 Q1.617 0.439 1.868 0.589" stroke="hsl(0.0,100%,35%)" stroke-width="0.00062"></path>
<path d="M1.854 0.284 Q1.289 0.466 1.522 0.782" stroke="hsl(0.0,100%,35%)" stroke-width="0.00062"></path>
<path d="M1.590 0.866 Q1.316 0.842 1.209 0.971" stroke="hsl(180.0,100%,35%)" stroke-width="0.00687"></path>
<path d="M1.590 0.866 Q1.422 0.913 1.476 1.005" stroke="hsl(180.0,100%,35%)" stroke-width="0.00562"></path>
<path d="M1.590 0.866 Q1.452 0.814 1.319 0.869" stroke="hsl(180.0,100%,35%)" stroke-width="0.00062"></path>
<path d="M1.590 0.866 Q1.517 0.378 0.548 0.306" stroke="hsl(180.0,100%,35%)" stroke-width="0.00062"></path>
<path d="M0.305 0.429 Q0.526 0.416 0.548 0.306" stroke="hsl(0.0,100%,35%)" stroke-width="0.00750"></path>
<path d="M0.305 0.429 Q0.236 0.336 0.038 0.349" stroke="hsl(0.0,100%,35%)" stroke-width="0.01000"></path>
<path d="M0.305 0.429 Q0.907 0.740 1.644 0.514" stroke="hsl(0.0,100%,35%)" stroke-width="0.00062"></path>
<path d="M0.305 0.429 Q0.430 0.951 1.476 1.005" stroke="hsl(0.0,100%,35%)" stroke-width="0.00312"></path>
<path d="M0.305 0.429 Q0.602 0.325 0.462 0.157" stroke="hsl(0.0,100%,35%)" stroke-width="0.00062"></path>
<path d="M0.305 0.429 Q0.362 0.369 0.255 0.328" stroke="hsl(0.0,100%,35%)" stroke-width="0.00062"></path>
<path d="M0.305 0.429 Q0.631 0.849 1.522 0.782" stroke="hsl(0.0,100%,35%)" stroke-width="0.00062"></path>
<path d="M0.305 0.429 Q0.721 0.619 1.182 0.458" stroke="hsl(0.0,100%,35%)" stroke-width="0.00062"></path>
<path d="M0.305 0.429 Q1.135 0.729 1.903 0.390" stroke="hsl(0.0,100%,35%)" stroke-width="0.00062"></path>
<path d="M0.305 0.429 Q0.355 0.506 0.515 0.498" stroke="hsl(0.0,100%,35%)" stroke-width="0.00062"></path>
<path d="M0.305 0.429 Q0.129 0.674 0.567 0.814" stroke="hsl(0.0,100%,35%)" stroke-width="0.00062"></path>
<path d="M0.621 0.088 Q0.410 0.183 0.548 0.306" stroke="hsl(0.0,100%,35%)" stroke-width="0.00250"></path>
<path d="M0.621 0.088 Q0.246 0.135 0.255 0.328" stroke="hsl(0.0,100%,35%)" stroke-width="0.00062"></path>
<path d="M0.621 0.088 Q0.190 0.196 0.305 0.429" stroke="hsl(0.0,100%,35%)" stroke-width="0.00062"></path>
<path d="M0.621 0.088 Q-0.231 0.491 0.367 0.994" stroke="hsl(0.0,100%,35%)" stroke-width="0.00062"></path>
<path d="M1.153 0.851 Q1.294 0.819 1.263 0.743" stroke="hsl(180.0,100%,35%)" stroke-width="0.00562"></path>
<path d="M1.153 0.851 Q1.482 0.660 1.182 0.458" stroke="hsl(180.0,100%,35%)" stroke-width="0.00062"></path>
<path d="M1.153 0.851 Q1.402 0.760 1.278 0.618" stroke="hsl(180.0,100%,35%)" stroke-width="0.00187"></path>
<path d="M1.153 0.851 Q1.191 0.993 1.476 1.005" stroke="hsl(180.0,100%,35%)" stroke-width="0.01000"></path>
<path d="M1.153 0.851 Q1.085 0.922 1.209 0.971" stroke="hsl(180.0,100%,35%)" stroke-width="0.00375"></path>
<path d="M1.153 0.851 Q1.957 0.708 1.854 0.284" stroke="hsl(180.0,100%,35%)" stroke-width="0.00125"></path>
<path d="M1.153 0.851 Q1.286 0.458 0.548 0.306" stroke="hsl(180.0,100%,35%)" stroke-width="0.00125"></path>
<path d="M1.153 0.851 Q0.933 0.592 0.379 0.642" stroke="hsl(180.0,100%,35%)" stroke-width="0.00062"></path>
<path d="M1.153 0.851 Q1.066 0.471 0.305 0.429" stroke="hsl(180.0,100%,35%)" stroke-width="0.00062"></path>
<path d="M1.153 0.851 Q0.890 0.715 0.567 0.814" stroke="hsl(180.0,100%,35%)" stroke-width="0.00062"></path>
<path d="M0.767 0.702 Q0.781 0.764 0.905 0.770" stroke="hsl(180.0,100%,35%)" stroke-width="0.01375"></path>
<path d="M0.767 0.702 Q0.879 0.995 1.476 1.005" stroke="hsl(180.0,100%,35%)" stroke-width="0.00375"></path>
<path d="M0.767 0.702 Q1.181 0.603 1.079 0.380" stroke="hsl(180.0,100%,35%)" stroke-width="0.00875"></path>
<path d="M0.767 0.702 Q1.090 0.763 1.278 0.618" stroke="hsl(180.0,100%,35%)" stroke-width="0.00187"></path>
<path d="M0.767 0.702 Q1.170 0.663 1.182 0.458" stroke="hsl(180.0,100%,35%)" stroke-width="0.00062"></path>
<path d="M0.767 0.702 Q0.622 0.594 0.379 0.642" stroke="hsl(180.0,100%,35%)" stroke-width="0.00125"></path>
<path d="M0.767 0.702 Q0.841 0.854 1.153 0.851" stroke="hsl(180.0,100%,35%)" stroke-width="0.00062"></path>
<path d="M0.767 0.702 Q0.982 0.822 1.263 0.743" stroke="hsl(180.0,100%,35%)" stroke-width="0.00250"></path>
<path d="M0.767 0.702 Q0.912 0.688 0.916 0.614" stroke="hsl(180.0,100%,35%)" stroke-width="0.00125"></path>
<path d="M1.522 0.782 Q1.443 0.507 0.889 0.485" stroke="hsl(180.0,100%,35%)" stroke-width="0.00062"></path>
<path d="M1.522 0.782 Q1.214 0.814 1.209 0.971" stroke="hsl(180.0,100%,35%)" stroke-width="0.01187"></path>
<path d="M1.522 0.782 Q0.774 0.657 0.367 0.994" stroke="hsl(180.0,100%,35%)" stroke-width="0.00187"></path>
<path d="M1.522 0.782 Q1.252 0.302 0.255 0.328" stroke="hsl(180.0,100%,35%)" stroke-width="0.00062"></path>
<path d="M1.522 0.782 Q1.320 0.884 1.476 1.005" stroke="hsl(180.0,100%,35%)" stroke-width="0.00312"></path>
<path d="M1.522 0.782 Q1.245 0.439 0.515 0.498" stroke="hsl(180.0,100%,35%)" stroke-width="0.00062"></path>
<path d="M1.522 0.782 Q1.626 0.729 1.545 0.666" stroke="hsl(180.0,100%,35%)" stroke-width="0.00062"></path>
<path d="M1.522 0.782 Q1.423 0.711 1.263 0.743" stroke="hsl(180.0,100%,35%)" stroke-width="0.00125"></path>
<path d="M1.522 0.782 Q1.353 0.577 0.916 0.614" stroke="hsl(180.0,100%,35%)" stroke-width="0.00062"></path>
<path d="M0.905 0.770 Q0.891 0.709 0.767 0.702" stroke="hsl(180.0,100%,35%)" stroke-width="0.00687"></path>
<path d="M0.905 0.770 Q1.003 1.002 1.476 1.005" stroke="hsl(180.0,100%,35%)" stroke-width="0.00312"></path>
<path d="M0.905 0.770 Q1.304 0.610 1.079 0.380" stroke="hsl(180.0,100%,35%)" stroke-width="0.00312"></path>
<path d="M0.905 0.770 Q0.558 0.611 0.171 0.745" stroke="hsl(180.0,100%,35%)" stroke-width="0.00062"></path>
<path d="M0.905 0.770 Q1.293 0.670 1.182 0.458" stroke="hsl(180.0,100%,35%)" stroke-width="0.00062"></path>
<path d="M0.905 0.770 Q1.213 0.769 1.278 0.618" stroke="hsl(180.0,100%,35%)" stroke-width="0.00125"></path>
<path d="M0.905 0.770 Q1.174 0.375 0.462 0.157" stroke="hsl(180.0,100%,35%)" stroke-width="0.00062"></path>
<path d="M1.263 0.743 Q1.122 0.775 1.153 0.851" stroke="hsl(180.0,100%,35%)" stroke-width="0.00875"></path>
<path d="M1.263 0.743 Q1.160 0.917 1.476 1.005" stroke="hsl(180.0,100%,35%)" stroke-width="0.00500"></path>
<path d="M1.263 0.743 Q1.054 0.846 1.209 0.971" stroke="hsl(180.0,100%,35%)" stroke-width="0.00250"></path>
<path d="M1.263 0.743 Q1.371 0.684 1.278 0.618" stroke="hsl(180.0,100%,35%)" stroke-width="0.01000"></path>
<path d="M1.263 0.743 Q0.614 0.690 0.367 0.994" stroke="hsl(180.0,100%,35%)" stroke-width="0.00125"></path>
<path d="M1.263 0.743 Q1.926 0.632 1.854 0.284" stroke="hsl(180.0,100%,35%)" stroke-width="0.00062"></path>
<path d="M1.263 0.743 Q1.048 0.624 0.767 0.702" stroke="hsl(180.0,100%,35%)" stroke-width="0.00937"></path>
<path d="M1.263 0.743 Q1.451 0.584 1.182 0.458" stroke="hsl(180.0,100%,35%)" stroke-width="0.00187"></path>
<path d="M1.263 0.743 Q1.256 0.382 0.548 0.306" stroke="hsl(180.0,100%,35%)" stroke-width="0.00125"></path>
<path d="M1.263 0.743 Q1.062 0.685 0.905 0.770" stroke="hsl(180.0,100%,35%)" stroke-width="0.00125"></path>
<path d="M1.263 0.743 Q1.193 0.609 0.916 0.614" stroke="hsl(180.0,100%,35%)" stroke-width="0.00062"></path>
<path d="M1.263 0.743 Q1.362 0.814 1.522 0.782" stroke="hsl(180.0,100%,35%)" stroke-width="0.00625"></path>
<path d="M1.263 0.743 Q1.092 0.334 0.255 0.328" stroke="hsl(180.0,100%,35%)" stroke-width="0.00437"></path>
<path d="M1.263 0.743 Q0.715 0.526 0.171 0.745" stroke="hsl(180.0,100%,35%)" stroke-width="0.00062"></path>
<path d="M0.789 0.216 Q0.844 0.188 0.801 0.155" stroke="hsl(0.0,100%,35%)" stroke-width="0.00062"></path>
<path d="M0.789 0.216 Q0.597 0.213 0.548 0.306" stroke="hsl(0.0,100%,35%)" stroke-width="0.00187"></path>
<path d="M0.789 0.216 Q0.475 0.235 0.443 0.393" stroke="hsl(0.0,100%,35%)" stroke-width="0.00062"></path>
<path d="M0.789 0.216 Q0.056 0.357 0.171 0.745" stroke="hsl(0.0,100%,35%)" stroke-width="0.00062"></path>
<path d="M0.789 0.216 Q0.243 0.347 0.379 0.642" stroke="hsl(0.0,100%,35%)" stroke-width="0.00062"></path>
<path d="M0.789 0.216 Q0.395 0.677 1.209 0.971" stroke="hsl(0.0,100%,35%)" stroke-width="0.00062"></path>
<path d="M0.709 0.348 Q0.663 0.295 0.548 0.306" stroke="hsl(0.0,100%,35%)" stroke-width="0.00625"></path>
<path d="M0.709 0.348 Q0.858 0.498 1.182 0.458" stroke="hsl(0.0,100%,35%)" stroke-width="0.00062"></path>
<path d="M0.709 0.348 Q0.529 0.688 1.153 0.851" stroke="hsl(0.0,100%,35%)" stroke-width="0.00062"></path>
<path d="M0.709 0.348 Q0.461 0.759 1.209 0.971" stroke="hsl(0.0,100%,35%)" stroke-width="0.00062"></path>
<path d="M1.903 0.390 Q1.727 0.483 1.868 0.589" stroke="hsl(0.0,100%,35%)" stroke-width="0.00062"></path>
<path d="M1.903 0.390 Q1.963 0.327 1.854 0.284" stroke="hsl(0.0,100%,35%)" stroke-width="0.01562"></path>
<path d="M1.903 0.390 Q1.674 0.401 1.644 0.514" stroke="hsl(0.0,100%,35%)" stroke-width="0.00125"></path>
<path d="M0.503 0.977 Q1.258 0.853 1.182 0.458" stroke="hsl(0.0,100%,35%)" stroke-width="0.00125"></path>
<path d="M0.503 0.977 Q0.579 0.970 0.582 0.932" stroke="hsl(0.0,100%,35%)" stroke-width="0.00250"></path>
<path d="M0.503 0.977 Q0.421 0.958 0.367 0.994" stroke="hsl(0.0,100%,35%)" stroke-width="0.00062"></path>
<path d="M0.503 0.977 Q0.861 1.115 1.209 0.971" stroke="hsl(0.0,100%,35%)" stroke-width="0.00062"></path>
<path d="M0.613 0.891 Q0.407 0.894 0.367 0.994" stroke="hsl(0.0,100%,35%)" stroke-width="0.00062"></path>
<path d="M0.613 0.891 Q0.565 0.905 0.582 0.932" stroke="hsl(0.0,100%,35%)" stroke-width="0.00062"></path>
<path d="M0.613 0.891 Q0.627 0.803 0.458 0.777" stroke="hsl(0.0,100%,35%)" stroke-width="0.00062"></path>
<path d="M0.613 0.891 Q0.652 0.843 0.567 0.814" stroke="hsl(0.0,100%,35%)" stroke-width="0.00062"></path>
<path d="M0.255 0.086 Q0.226 0.255 0.548 0.306" stroke="hsl(180.0,100%,35%)" stroke-width="0.00062"></path>
<path d="M0.255 0.086 Q0.421 0.457 1.182 0.458" stroke="hsl(180.0,100%,35%)" stroke-width="0.00062"></path>
<path d="M0.255 0.086 Q0.092 0.648 1.153 0.851" stroke="hsl(180.0,100%,35%)" stroke-width="0.00062"></path>
<path d="M0.581 0.488 Q0.582 0.505 0.615 0.509" stroke="hsl(90.0,100%,35%)" stroke-width="0.00250"></path>
<path d="M0.581 0.488 Q0.421 0.310 0.038 0.349" stroke="hsl(90.0,100%,35%)" stroke-width="0.00062"></path>
<path d="M0.581 0.488 Q0.738 0.548 0.889 0.485" stroke="hsl(90.0,100%,35%)" stroke-width="0.00062"></path>
<path d="M0.581 0.488 Q0.906 0.593 1.182 0.458" stroke="hsl(90.0,100%,35%)" stroke-width="0.00312"></path>
<path d="M0.581 0.488 Q0.069 0.698 0.367 0.994" stroke="hsl(90.0,100%,35%)" stroke-width="0.00062"></path>
<path d="M0.581 0.488 Q0.589 0.413 0.443 0.393" stroke="hsl(90.0,100%,35%)" stroke-width="0.00062"></path>
<path d="M0.581 0.488 Q0.529 0.530 0.599 0.565" stroke="hsl(90.0,100%,35%)" stroke-width="0.00062"></path>
<path d="M0.581 0.488 Q0.711 0.390 0.548 0.306" stroke="hsl(90.0,100%,35%)" stroke-width="0.00062"></path>
<path d="M0.568 0.410 Q0.471 0.443 0.515 0.498" stroke="hsl(0.0,100%,35%)" stroke-width="0.00062"></path>
<path d="M0.568 0.410 Q0.352 0.274 0.038 0.349" stroke="hsl(0.0,100%,35%)" stroke-width="0.00062"></path>
<path d="M0.568 0.410 Q0.847 0.497 1.079 0.380" stroke="hsl(0.0,100%,35%)" stroke-width="0.00062"></path>
<path d="M0.568 0.410 Q0.448 0.657 0.905 0.770" stroke="hsl(0.0,100%,35%)" stroke-width="0.00062"></path>
<path d="M0.669 0.773 Q0.781 0.980 1.209 0.971" stroke="hsl(180.0,100%,35%)" stroke-width="0.00062"></path>
<path d="M0.669 0.773 Q0.611 0.796 0.642 0.829" stroke="hsl(180.0,100%,35%)" stroke-width="0.00062"></path>
<path d="M0.669 0.773 Q0.887 1.050 1.476 1.005" stroke="hsl(180.0,100%,35%)" stroke-width="0.00062"></path>
<path d="M0.669 0.773 Q0.982 0.515 0.548 0.306" stroke="hsl(180.0,100%,35%)" stroke-width="0.00062"></path>
<path d="M1.885 0.802 Q1.518 0.821 1.476 1.005" stroke="hsl(180.0,100%,35%)" stroke-width="0.00187"></path>
<path d="M1.885 0.802 Q1.613 0.286 0.548 0.306" stroke="hsl(180.0,100%,35%)" stroke-width="0.00125"></path>
<path d="M1.885 0.802 Q1.479 0.680 1.153 0.851" stroke="hsl(180.0,100%,35%)" stroke-width="0.00062"></path>
<path d="M1.966 0.485 Q1.193 0.354 0.767 0.702" stroke="hsl(0.0,100%,35%)" stroke-width="0.00062"></path>
<path d="M1.966 0.485 Q1.782 0.435 1.644 0.514" stroke="hsl(0.0,100%,35%)" stroke-width="0.00062"></path>
<path d="M1.966 0.485 Q2.071 0.362 1.854 0.284" stroke="hsl(0.0,100%,35%)" stroke-width="0.00187"></path>
<path d="M1.966 0.485 Q2.010 0.425 1.903 0.390" stroke="hsl(0.0,100%,35%)" stroke-width="0.00062"></path>
<path d="M1.966 0.485 Q1.596 0.314 1.182 0.458" stroke="hsl(0.0,100%,35%)" stroke-width="0.00062"></path>
<path d="M1.818 0.859 Q0.984 0.637 0.367 0.994" stroke="hsl(180.0,100%,35%)" stroke-width="0.00062"></path>
<path d="M1.818 0.859 Q1.821 0.531 1.182 0.458" stroke="hsl(180.0,100%,35%)" stroke-width="0.00062"></path>
<path d="M1.818 0.859 Q1.530 0.864 1.476 1.005" stroke="hsl(180.0,100%,35%)" stroke-width="0.00187"></path>
<path d="M1.818 0.859 Q1.653 0.487 0.889 0.485" stroke="hsl(180.0,100%,35%)" stroke-width="0.00062"></path>
<path d="M0.641 0.177 Q0.491 0.223 0.548 0.306" stroke="hsl(0.0,100%,35%)" stroke-width="0.00125"></path>
<path d="M0.641 0.177 Q0.298 0.526 0.905 0.770" stroke="hsl(0.0,100%,35%)" stroke-width="0.00062"></path>
<path d="M0.641 0.177 Q0.290 0.687 1.209 0.971" stroke="hsl(0.0,100%,35%)" stroke-width="0.00062"></path>
<path d="M0.781 0.221 Q0.389 0.459 0.767 0.702" stroke="hsl(0.0,100%,35%)" stroke-width="0.00062"></path>
<path d="M0.781 0.221 Q0.827 0.316 1.024 0.315" stroke="hsl(0.0,100%,35%)" stroke-width="0.00062"></path>
<path d="M0.781 0.221 Q0.501 0.752 1.476 1.005" stroke="hsl(0.0,100%,35%)" stroke-width="0.00062"></path>
<path d="M0.781 0.221 Q0.802 0.360 1.079 0.380" stroke="hsl(0.0,100%,35%)" stroke-width="0.00062"></path>
<path d="M0.781 0.221 Q0.792 0.419 1.182 0.458" stroke="hsl(0.0,100%,35%)" stroke-width="0.00062"></path>
<path d="M0.781 0.221 Q0.596 0.217 0.548 0.306" stroke="hsl(0.0,100%,35%)" stroke-width="0.00125"></path>
<path d="M0.781 0.221 Q0.395 0.681 1.209 0.971" stroke="hsl(0.0,100%,35%)" stroke-width="0.00062"></path>
<path d="M1.743 0.112 Q1.515 0.083 1.409 0.188" stroke="hsl(270.0,100%,35%)" stroke-width="0.00187"></path>
<path d="M1.743 0.112 Q1.513 0.150 1.537 0.271" stroke="hsl(270.0,100%,35%)" stroke-width="0.00187"></path>
<path d="M1.743 0.112 Q1.105 0.272 1.278 0.618" stroke="hsl(270.0,100%,35%)" stroke-width="0.00125"></path>
<path d="M0.820 0.319 Q0.741 0.311 0.709 0.348" stroke="hsl(0.0,100%,35%)" stroke-width="0.00250"></path>
<path d="M0.820 0.319 Q0.599 0.793 1.476 1.005" stroke="hsl(0.0,100%,35%)" stroke-width="0.00187"></path>
<path d="M0.820 0.319 Q0.810 0.560 1.278 0.618" stroke="hsl(0.0,100%,35%)" stroke-width="0.00062"></path>
<path d="M1.503 0.620 Q0.635 0.580 0.367 0.994" stroke="hsl(180.0,100%,35%)" stroke-width="0.00062"></path>
<path d="M1.503 0.620 Q1.392 0.574 1.278 0.618" stroke="hsl(180.0,100%,35%)" stroke-width="0.00125"></path>
<path d="M1.503 0.620 Q1.069 0.514 0.767 0.702" stroke="hsl(180.0,100%,35%)" stroke-width="0.00062"></path>
<path d="M1.503 0.620 Q1.181 0.807 1.476 1.005" stroke="hsl(180.0,100%,35%)" stroke-width="0.00062"></path>
<path d="M1.503 0.620 Q1.799 0.452 1.537 0.271" stroke="hsl(180.0,100%,35%)" stroke-width="0.00062"></path>
<path d="M0.991 0.669 Q0.965 0.934 1.476 1.005" stroke="hsl(180.0,100%,35%)" stroke-width="0.00250"></path>
<path d="M0.991 0.669 Q1.731 0.649 1.854 0.284" stroke="hsl(180.0,100%,35%)" stroke-width="0.00062"></path>
<path d="M0.991 0.669 Q0.867 0.702 0.905 0.770" stroke="hsl(180.0,100%,35%)" stroke-width="0.00312"></path>
<path d="M0.991 0.669 Q1.068 0.761 1.263 0.743" stroke="hsl(180.0,100%,35%)" stroke-width="0.00125"></path>
<path d="M0.991 0.669 Q1.291 0.498 1.024 0.315" stroke="hsl(180.0,100%,35%)" stroke-width="0.00125"></path>
<path d="M0.991 0.669 Q1.266 0.542 1.079 0.380" stroke="hsl(180.0,100%,35%)" stroke-width="0.00062"></path>
<path d="M0.991 0.669 Q0.853 0.641 0.767 0.702" stroke="hsl(180.0,100%,35%)" stroke-width="0.00062"></path>
</g>
<text x="0.284" y="0.898" font-size="0.010855" fill="hsl(0.0,100%,20%)">abhishek.shanthkumar</text>
<text x="0.458" y="0.769" font-size="0.015351" fill="hsl(0.0,100%,20%)">bmeurer</text>
<text x="0.582" y="0.924" font-size="0.014359" fill="hsl(0.0,100%,20%)">seth.brenith</text>
<text x="0.567" y="0.805" font-size="0.016728" fill="hsl(0.0,100%,20%)">szuend</text>
<text x="0.462" y="0.141" font-size="0.031413" fill="hsl(0.0,100%,20%)">ahaas</text>
<text x="0.889" y="0.464" font-size="0.041688" fill="hsl(90.0,100%,20%)">clemensb</text>
<text x="1.182" y="0.433" font-size="0.050184" fill="hsl(90.0,100%,20%)">jkummerow</text>
<text x="0.548" y="0.281" font-size="0.050037" fill="hsl(0.0,100%,20%)">mlippautz</text>
<text x="0.171" y="0.729" font-size="0.033675" fill="hsl(90.0,100%,20%)">sroettger</text>
<text x="0.038" y="0.330" font-size="0.038376" fill="hsl(0.0,100%,20%)">omerkatz</text>
<text x="0.379" y="0.620" font-size="0.043418" fill="hsl(90.0,100%,20%)">machenbach</text>
<text x="1.079" y="0.361" font-size="0.039136" fill="hsl(90.0,100%,20%)">mliedtke</text>
<text x="0.916" y="0.598" font-size="0.032564" fill="hsl(180.0,100%,20%)">marja</text>
<text x="1.278" y="0.600" font-size="0.037405" fill="hsl(180.0,100%,20%)">victorgomes</text>
<text x="1.476" y="0.979" font-size="0.052619" fill="hsl(180.0,100%,20%)">leszeks</text>
<text x="1.209" y="0.950" font-size="0.041511" fill="hsl(180.0,100%,20%)">ishell</text>
<text x="0.615" y="0.501" font-size="0.014359" fill="hsl(90.0,100%,20%)">dlehmann</text>
<text x="1.332" y="0.285" font-size="0.009400" fill="hsl(270.0,100%,20%)">alexey.pavlyutkin</text>
<text x="1.409" y="0.179" font-size="0.017586" fill="hsl(270.0,100%,20%)">qiuji</text>
<text x="1.537" y="0.261" font-size="0.019188" fill="hsl(270.0,100%,20%)">yahan</text>
<text x="0.342" y="0.871" font-size="0.016728" fill="hsl(0.0,100%,20%)">andoli</text>
<text x="0.515" y="0.711" font-size="0.005427" fill="hsl(0.0,100%,20%)">leese</text>
<text x="0.367" y="0.985" font-size="0.018000" fill="hsl(0.0,100%,20%)">cbruni</text>
<text x="0.642" y="0.827" font-size="0.005427" fill="hsl(0.0,100%,20%)">yangguo</text>
<text x="1.315" y="0.412" font-size="0.008581" fill="hsl(90.0,100%,20%)">baghdadi</text>
<text x="0.845" y="0.234" font-size="0.012728" fill="hsl(90.0,100%,20%)">fgm</text>
<text x="0.850" y="0.868" font-size="0.027674" fill="hsl(180.0,100%,20%)">mfarazma</text>
<text x="1.024" y="0.302" font-size="0.025165" fill="hsl(90.0,100%,20%)">thibaudm</text>
<text x="0.599" y="0.561" font-size="0.007675" fill="hsl(90.0,100%,20%)">choongwoo.han</text>
<text x="0.669" y="0.414" font-size="0.005427" fill="hsl(90.0,100%,20%)">evih</text>
<text x="0.255" y="0.310" font-size="0.036000" fill="hsl(0.0,100%,20%)">dinfuehr</text>
<text x="1.644" y="0.507" font-size="0.014359" fill="hsl(0.0,100%,20%)">irezvov</text>
<text x="1.746" y="0.921" font-size="0.007675" fill="hsl(180.0,100%,20%)">cwu631</text>
<text x="1.854" y="0.265" font-size="0.036609" fill="hsl(0.0,100%,20%)">syg</text>
<text x="1.590" y="0.857" font-size="0.018000" fill="hsl(180.0,100%,20%)">dima00782</text>
<text x="1.319" y="0.868" font-size="0.003838" fill="hsl(180.0,100%,20%)">mseaborn</text>
<text x="0.305" y="0.416" font-size="0.027674" fill="hsl(0.0,100%,20%)">nikolaos</text>
<text x="0.621" y="0.083" font-size="0.010855" fill="hsl(0.0,100%,20%)">etiennep</text>
<text x="1.153" y="0.834" font-size="0.034963" fill="hsl(180.0,100%,20%)">verwaest</text>
<text x="0.515" y="0.492" font-size="0.013294" fill="hsl(0.0,100%,20%)">bikineev</text>
<text x="0.767" y="0.679" font-size="0.045408" fill="hsl(180.0,100%,20%)">dmercadier</text>
<text x="1.522" y="0.767" font-size="0.029973" fill="hsl(180.0,100%,20%)">pthier</text>
<text x="0.905" y="0.753" font-size="0.034963" fill="hsl(180.0,100%,20%)">nicohartmann</text>
<text x="1.263" y="0.723" font-size="0.040795" fill="hsl(180.0,100%,20%)">olivf</text>
<text x="0.789" y="0.210" font-size="0.010855" fill="hsl(0.0,100%,20%)">dtapuska</text>
<text x="0.801" y="0.153" font-size="0.003838" fill="hsl(0.0,100%,20%)">hpayer</text>
<text x="0.443" y="0.388" font-size="0.008581" fill="hsl(0.0,100%,20%)">manoskouk</text>
<text x="0.709" y="0.340" font-size="0.015823" fill="hsl(0.0,100%,20%)">erikcorry</text>
<text x="1.868" y="0.585" font-size="0.007675" fill="hsl(0.0,100%,20%)">gdeepti</text>
<text x="1.903" y="0.377" font-size="0.026310" fill="hsl(0.0,100%,20%)">rezvan</text>
<text x="0.503" y="0.971" font-size="0.010855" fill="hsl(0.0,100%,20%)">issackjohn</text>
<text x="0.613" y="0.887" font-size="0.007675" fill="hsl(0.0,100%,20%)">jaysonchen</text>
<text x="0.255" y="0.083" font-size="0.006647" fill="hsl(180.0,100%,20%)">joyee</text>
<text x="1.735" y="0.956" font-size="0.003838" fill="hsl(180.0,100%,20%)">ecmziegler</text>
<text x="0.236" y="0.516" font-size="0.023343" fill="hsl(90.0,100%,20%)">cffsmith</text>
<text x="0.726" y="0.945" font-size="0.013837" fill="hsl(180.0,100%,20%)">junyan</text>
<text x="0.928" y="0.905" font-size="0.010855" fill="hsl(180.0,100%,20%)">midawson</text>
<text x="0.581" y="0.481" font-size="0.014863" fill="hsl(90.0,100%,20%)">paolosev</text>
<text x="0.568" y="0.406" font-size="0.007675" fill="hsl(0.0,100%,20%)">pkasting</text>
<text x="1.545" y="0.664" font-size="0.003838" fill="hsl(180.0,100%,20%)">jgruber</text>
<text x="0.669" y="0.769" font-size="0.007675" fill="hsl(180.0,100%,20%)">qzmiss</text>
<text x="1.885" y="0.797" font-size="0.010153" fill="hsl(180.0,100%,20%)">saelo</text>
<text x="1.966" y="0.480" font-size="0.010153" fill="hsl(0.0,100%,20%)">seokho</text>
<text x="1.818" y="0.855" font-size="0.009400" fill="hsl(180.0,100%,20%)">snek</text>
<text x="1.874" y="0.162" font-size="0.003838" fill="hsl(0.0,100%,20%)">adamk</text>
<text x="1.780" y="0.168" font-size="0.003838" fill="hsl(0.0,100%,20%)">lpardosixtos</text>
<text x="0.641" y="0.173" font-size="0.007675" fill="hsl(0.0,100%,20%)">thestig</text>
<text x="0.781" y="0.215" font-size="0.010855" fill="hsl(0.0,100%,20%)">tikuta</text>
<text x="1.743" y="0.106" font-size="0.010855" fill="hsl(270.0,100%,20%)">vladimir.kempik</text>
<text x="0.820" y="0.313" font-size="0.010855" fill="hsl(0.0,100%,20%)">yagiz</text>
<text x="1.503" y="0.615" font-size="0.009400" fill="hsl(180.0,100%,20%)">yuri.gaevsky</text>
<text x="0.991" y="0.661" font-size="0.015351" fill="hsl(180.0,100%,20%)">zhaojiazhong-hf</text>
</svg>
