<svg width="4000" height="2000" viewBox="-0.025 -0.025 2.05 1.05" xmlns="http://www.w3.org/2000/svg">
  <style>
    path {
      fill: none;
      stroke-linecap: round;
      stroke-opacity: 0.4;
    }

    text {
      text-anchor: middle;
      alignment-baseline: hanging;
    }
  </style>
  <g opacity="0.4">
<path d="M0.999 0.311 Q1.101 0.262 1.026 0.202" stroke="hsl(0.0,100%,35%)" stroke-width="0.00476"></path>
<path d="M0.999 0.311 Q0.856 0.081 0.375 0.100" stroke="hsl(0.0,100%,35%)" stroke-width="0.00476"></path>
<path d="M0.999 0.311 Q1.214 0.337 1.311 0.238" stroke="hsl(0.0,100%,35%)" stroke-width="0.00159"></path>
<path d="M1.275 0.084 Q0.600 0.222 0.721 0.582" stroke="hsl(180.0,100%,35%)" stroke-width="0.00159"></path>
<path d="M1.275 0.084 Q1.444 0.142 1.596 0.073" stroke="hsl(180.0,100%,35%)" stroke-width="0.00318"></path>
<path d="M1.275 0.084 Q0.691 0.050 0.498 0.328" stroke="hsl(180.0,100%,35%)" stroke-width="0.00159"></path>
<path d="M1.275 0.084 Q0.812 -0.088 0.375 0.100" stroke="hsl(180.0,100%,35%)" stroke-width="0.00159"></path>
<path d="M0.721 0.582 Q1.437 0.642 1.712 0.307" stroke="hsl(180.0,100%,35%)" stroke-width="0.00159"></path>
<path d="M0.721 0.582 Q0.575 0.559 0.498 0.625" stroke="hsl(180.0,100%,35%)" stroke-width="0.01111"></path>
<path d="M0.721 0.582 Q0.569 0.422 0.225 0.461" stroke="hsl(180.0,100%,35%)" stroke-width="0.01747"></path>
<path d="M0.721 0.582 Q0.536 0.781 0.886 0.916" stroke="hsl(180.0,100%,35%)" stroke-width="0.00476"></path>
<path d="M0.721 0.582 Q0.633 0.890 1.216 1.001" stroke="hsl(180.0,100%,35%)" stroke-width="0.00159"></path>
<path d="M0.721 0.582 Q1.268 0.514 1.257 0.233" stroke="hsl(180.0,100%,35%)" stroke-width="0.00318"></path>
<path d="M0.721 0.582 Q0.512 0.603 0.507 0.709" stroke="hsl(180.0,100%,35%)" stroke-width="0.00159"></path>
<path d="M0.721 0.582 Q1.637 0.573 1.821 0.124" stroke="hsl(180.0,100%,35%)" stroke-width="0.00159"></path>
<path d="M0.721 0.582 Q0.586 0.689 0.766 0.778" stroke="hsl(180.0,100%,35%)" stroke-width="0.00635"></path>
<path d="M0.721 0.582 Q0.724 0.825 1.199 0.877" stroke="hsl(180.0,100%,35%)" stroke-width="0.00159"></path>
<path d="M0.721 0.582 Q0.934 0.271 0.375 0.100" stroke="hsl(180.0,100%,35%)" stroke-width="0.00159"></path>
<path d="M0.721 0.582 Q0.447 0.423 0.077 0.522" stroke="hsl(180.0,100%,35%)" stroke-width="0.00159"></path>
<path d="M0.721 0.582 Q0.814 0.677 1.020 0.652" stroke="hsl(180.0,100%,35%)" stroke-width="0.00953"></path>
<path d="M0.721 0.582 Q0.672 0.522 0.545 0.533" stroke="hsl(180.0,100%,35%)" stroke-width="0.00159"></path>
<path d="M0.721 0.582 Q1.566 0.502 1.596 0.073" stroke="hsl(180.0,100%,35%)" stroke-width="0.00159"></path>
<path d="M1.596 0.073 Q1.667 0.143 1.821 0.124" stroke="hsl(180.0,100%,35%)" stroke-width="0.00159"></path>
<path d="M1.596 0.073 Q1.467 0.213 1.712 0.307" stroke="hsl(180.0,100%,35%)" stroke-width="0.00318"></path>
<path d="M1.596 0.073 Q1.298 0.085 1.257 0.233" stroke="hsl(180.0,100%,35%)" stroke-width="0.00635"></path>
<path d="M1.596 0.073 Q1.492 0.091 1.504 0.146" stroke="hsl(180.0,100%,35%)" stroke-width="0.00159"></path>
<path d="M0.607 0.391 Q1.227 0.570 1.712 0.307" stroke="hsl(180.0,100%,35%)" stroke-width="0.00476"></path>
<path d="M0.607 0.391 Q0.327 0.709 0.886 0.916" stroke="hsl(180.0,100%,35%)" stroke-width="0.00159"></path>
<path d="M0.607 0.391 Q0.360 0.350 0.225 0.461" stroke="hsl(180.0,100%,35%)" stroke-width="0.00635"></path>
<path d="M1.712 0.307 Q0.845 0.086 0.225 0.461" stroke="hsl(180.0,100%,35%)" stroke-width="0.00159"></path>
<path d="M1.712 0.307 Q0.812 0.446 0.886 0.916" stroke="hsl(180.0,100%,35%)" stroke-width="0.00318"></path>
<path d="M1.712 0.307 Q1.544 0.179 1.257 0.233" stroke="hsl(180.0,100%,35%)" stroke-width="0.00159"></path>
<path d="M1.712 0.307 Q1.841 0.166 1.596 0.073" stroke="hsl(180.0,100%,35%)" stroke-width="0.00318"></path>
<path d="M1.712 0.307 Q1.016 0.416 1.076 0.779" stroke="hsl(180.0,100%,35%)" stroke-width="0.00159"></path>
<path d="M1.712 0.307 Q1.737 0.184 1.504 0.146" stroke="hsl(180.0,100%,35%)" stroke-width="0.00159"></path>
<path d="M0.886 0.916 Q0.982 1.024 1.216 1.001" stroke="hsl(180.0,100%,35%)" stroke-width="0.00318"></path>
<path d="M0.886 0.916 Q1.786 0.776 1.712 0.307" stroke="hsl(180.0,100%,35%)" stroke-width="0.01270"></path>
<path d="M0.886 0.916 Q0.919 0.556 0.225 0.461" stroke="hsl(180.0,100%,35%)" stroke-width="0.00476"></path>
<path d="M0.886 0.916 Q1.164 0.811 1.020 0.652" stroke="hsl(180.0,100%,35%)" stroke-width="0.00159"></path>
<path d="M0.886 0.916 Q1.090 0.885 1.076 0.779" stroke="hsl(180.0,100%,35%)" stroke-width="0.00159"></path>
<path d="M0.225 0.461 Q0.102 0.462 0.077 0.522" stroke="hsl(0.0,100%,35%)" stroke-width="0.00476"></path>
<path d="M0.225 0.461 Q1.092 0.681 1.712 0.307" stroke="hsl(0.0,100%,35%)" stroke-width="0.00159"></path>
<path d="M0.225 0.461 Q0.230 0.598 0.498 0.625" stroke="hsl(0.0,100%,35%)" stroke-width="0.00318"></path>
<path d="M0.225 0.461 Q0.722 0.436 0.784 0.188" stroke="hsl(0.0,100%,35%)" stroke-width="0.02223"></path>
<path d="M0.225 0.461 Q0.067 0.495 0.098 0.579" stroke="hsl(0.0,100%,35%)" stroke-width="0.00159"></path>
<path d="M0.225 0.461 Q0.467 0.449 0.498 0.328" stroke="hsl(0.0,100%,35%)" stroke-width="0.00635"></path>
<path d="M0.225 0.461 Q0.524 0.386 0.443 0.223" stroke="hsl(0.0,100%,35%)" stroke-width="0.00159"></path>
<path d="M0.225 0.461 Q0.025 0.588 0.228 0.713" stroke="hsl(0.0,100%,35%)" stroke-width="0.00159"></path>
<path d="M0.225 0.461 Q0.469 0.716 1.020 0.652" stroke="hsl(0.0,100%,35%)" stroke-width="0.00159"></path>
<path d="M0.225 0.461 Q0.391 0.403 0.314 0.308" stroke="hsl(0.0,100%,35%)" stroke-width="0.00318"></path>
<path d="M0.225 0.461 Q0.327 0.561 0.545 0.533" stroke="hsl(0.0,100%,35%)" stroke-width="0.00159"></path>
<path d="M0.225 0.461 Q0.192 0.821 0.886 0.916" stroke="hsl(0.0,100%,35%)" stroke-width="0.00159"></path>
<path d="M1.923 0.341 Q1.129 0.221 0.721 0.582" stroke="hsl(180.0,100%,35%)" stroke-width="0.02858"></path>
<path d="M1.923 0.341 Q0.978 0.061 0.225 0.461" stroke="hsl(180.0,100%,35%)" stroke-width="0.03811"></path>
<path d="M1.923 0.341 Q1.845 0.282 1.712 0.307" stroke="hsl(180.0,100%,35%)" stroke-width="0.02699"></path>
<path d="M0.498 0.625 Q0.645 0.648 0.721 0.582" stroke="hsl(180.0,100%,35%)" stroke-width="0.00794"></path>
<path d="M0.498 0.625 Q1.360 0.709 1.712 0.307" stroke="hsl(180.0,100%,35%)" stroke-width="0.00318"></path>
<path d="M0.498 0.625 Q0.738 0.743 1.020 0.652" stroke="hsl(180.0,100%,35%)" stroke-width="0.00159"></path>
<path d="M0.498 0.625 Q0.289 0.729 0.446 0.854" stroke="hsl(180.0,100%,35%)" stroke-width="0.00159"></path>
<path d="M0.498 0.625 Q0.493 0.488 0.225 0.461" stroke="hsl(180.0,100%,35%)" stroke-width="0.00794"></path>
<path d="M0.498 0.625 Q0.556 0.957 1.216 1.001" stroke="hsl(180.0,100%,35%)" stroke-width="0.00159"></path>
<path d="M1.216 1.001 Q1.307 0.936 1.199 0.877" stroke="hsl(180.0,100%,35%)" stroke-width="0.00318"></path>
<path d="M1.216 1.001 Q1.152 0.533 0.225 0.461" stroke="hsl(180.0,100%,35%)" stroke-width="0.00159"></path>
<path d="M1.216 1.001 Q1.119 0.892 0.886 0.916" stroke="hsl(180.0,100%,35%)" stroke-width="0.00476"></path>
<path d="M1.216 1.001 Q2.020 0.753 1.712 0.307" stroke="hsl(180.0,100%,35%)" stroke-width="0.00318"></path>
<path d="M1.216 1.001 Q1.304 0.693 0.721 0.582" stroke="hsl(180.0,100%,35%)" stroke-width="0.00159"></path>
<path d="M1.257 0.233 Q1.555 0.220 1.596 0.073" stroke="hsl(180.0,100%,35%)" stroke-width="0.00794"></path>
<path d="M1.257 0.233 Q0.558 0.140 0.225 0.461" stroke="hsl(180.0,100%,35%)" stroke-width="0.00159"></path>
<path d="M1.257 0.233 Q0.710 0.300 0.721 0.582" stroke="hsl(180.0,100%,35%)" stroke-width="0.00159"></path>
<path d="M0.545 0.533 Q0.442 0.433 0.225 0.461" stroke="hsl(0.0,100%,35%)" stroke-width="0.01270"></path>
<path d="M0.545 0.533 Q1.309 0.653 1.712 0.307" stroke="hsl(0.0,100%,35%)" stroke-width="0.00953"></path>
<path d="M0.545 0.533 Q0.689 0.474 0.607 0.391" stroke="hsl(0.0,100%,35%)" stroke-width="0.00159"></path>
<path d="M0.545 0.533 Q0.940 0.408 0.784 0.188" stroke="hsl(0.0,100%,35%)" stroke-width="0.00159"></path>
<path d="M0.545 0.533 Q0.594 0.592 0.721 0.582" stroke="hsl(0.0,100%,35%)" stroke-width="0.00159"></path>
<path d="M0.545 0.533 Q0.609 0.374 0.314 0.308" stroke="hsl(0.0,100%,35%)" stroke-width="0.00159"></path>
<path d="M0.545 0.533 Q0.806 0.282 0.375 0.100" stroke="hsl(0.0,100%,35%)" stroke-width="0.00159"></path>
<path d="M0.545 0.533 Q0.447 0.570 0.498 0.625" stroke="hsl(0.0,100%,35%)" stroke-width="0.00159"></path>
<path d="M0.314 0.308 Q0.645 0.342 0.784 0.188" stroke="hsl(0.0,100%,35%)" stroke-width="0.00794"></path>
<path d="M0.314 0.308 Q0.447 0.292 0.443 0.223" stroke="hsl(0.0,100%,35%)" stroke-width="0.00159"></path>
<path d="M0.314 0.308 Q0.147 0.367 0.225 0.461" stroke="hsl(0.0,100%,35%)" stroke-width="0.01905"></path>
<path d="M0.314 0.308 Q1.015 0.587 1.712 0.307" stroke="hsl(0.0,100%,35%)" stroke-width="0.00794"></path>
<path d="M0.314 0.308 Q0.548 0.564 1.098 0.507" stroke="hsl(0.0,100%,35%)" stroke-width="0.00159"></path>
<path d="M0.314 0.308 Q0.302 0.770 1.199 0.877" stroke="hsl(0.0,100%,35%)" stroke-width="0.00159"></path>
<path d="M0.314 0.308 Q0.846 0.459 1.257 0.233" stroke="hsl(0.0,100%,35%)" stroke-width="0.00159"></path>
<path d="M0.314 0.308 Q0.511 0.216 0.375 0.100" stroke="hsl(0.0,100%,35%)" stroke-width="0.00159"></path>
<path d="M0.314 0.308 Q0.250 0.467 0.545 0.533" stroke="hsl(0.0,100%,35%)" stroke-width="0.00159"></path>
<path d="M0.314 0.308 Q0.390 0.355 0.498 0.328" stroke="hsl(0.0,100%,35%)" stroke-width="0.00159"></path>
<path d="M0.784 0.188 Q0.286 0.213 0.225 0.461" stroke="hsl(0.0,100%,35%)" stroke-width="0.01270"></path>
<path d="M0.784 0.188 Q0.453 0.154 0.314 0.308" stroke="hsl(0.0,100%,35%)" stroke-width="0.00318"></path>
<path d="M0.784 0.188 Q1.154 0.433 1.712 0.307" stroke="hsl(0.0,100%,35%)" stroke-width="0.00159"></path>
<path d="M0.784 0.188 Q0.650 0.062 0.375 0.100" stroke="hsl(0.0,100%,35%)" stroke-width="0.00953"></path>
<path d="M0.784 0.188 Q0.606 0.247 0.681 0.346" stroke="hsl(0.0,100%,35%)" stroke-width="0.00159"></path>
<path d="M0.784 0.188 Q0.438 0.372 0.721 0.582" stroke="hsl(0.0,100%,35%)" stroke-width="0.00318"></path>
<path d="M0.784 0.188 Q0.985 0.305 1.257 0.233" stroke="hsl(0.0,100%,35%)" stroke-width="0.00159"></path>
<path d="M0.681 0.346 Q0.859 0.288 0.784 0.188" stroke="hsl(180.0,100%,35%)" stroke-width="0.01111"></path>
<path d="M0.681 0.346 Q1.358 0.392 1.596 0.073" stroke="hsl(180.0,100%,35%)" stroke-width="0.00794"></path>
<path d="M0.681 0.346 Q0.361 0.312 0.225 0.461" stroke="hsl(180.0,100%,35%)" stroke-width="0.00318"></path>
<path d="M0.681 0.346 Q1.060 0.405 1.257 0.233" stroke="hsl(180.0,100%,35%)" stroke-width="0.00635"></path>
<path d="M0.681 0.346 Q0.513 0.472 0.721 0.582" stroke="hsl(180.0,100%,35%)" stroke-width="0.00159"></path>
<path d="M1.516 0.180 Q1.143 0.038 0.784 0.188" stroke="hsl(180.0,100%,35%)" stroke-width="0.00159"></path>
<path d="M1.516 0.180 Q0.965 0.096 0.681 0.346" stroke="hsl(180.0,100%,35%)" stroke-width="0.00159"></path>
<path d="M1.516 0.180 Q1.641 0.142 1.596 0.073" stroke="hsl(180.0,100%,35%)" stroke-width="0.00159"></path>
<path d="M0.811 0.675 Q1.388 0.543 1.257 0.233" stroke="hsl(180.0,100%,35%)" stroke-width="0.00318"></path>
<path d="M0.811 0.675 Q0.689 0.451 0.225 0.461" stroke="hsl(180.0,100%,35%)" stroke-width="0.00318"></path>
<path d="M0.811 0.675 Q0.841 0.610 0.721 0.582" stroke="hsl(180.0,100%,35%)" stroke-width="0.00318"></path>
<path d="M0.396 0.509 Q0.501 0.610 0.721 0.582" stroke="hsl(0.0,100%,35%)" stroke-width="0.00794"></path>
<path d="M0.396 0.509 Q1.345 0.531 1.596 0.073" stroke="hsl(0.0,100%,35%)" stroke-width="0.00476"></path>
<path d="M0.396 0.509 Q0.349 0.451 0.225 0.461" stroke="hsl(0.0,100%,35%)" stroke-width="0.05081"></path>
<path d="M0.396 0.509 Q0.272 0.479 0.185 0.533" stroke="hsl(0.0,100%,35%)" stroke-width="0.00476"></path>
<path d="M0.396 0.509 Q1.216 0.671 1.712 0.307" stroke="hsl(0.0,100%,35%)" stroke-width="0.01111"></path>
<path d="M0.396 0.509 Q0.452 0.550 0.545 0.533" stroke="hsl(0.0,100%,35%)" stroke-width="0.01747"></path>
<path d="M0.396 0.509 Q0.412 0.919 1.216 1.001" stroke="hsl(0.0,100%,35%)" stroke-width="0.00159"></path>
<path d="M0.396 0.509 Q0.847 0.426 0.784 0.188" stroke="hsl(0.0,100%,35%)" stroke-width="0.01905"></path>
<path d="M0.396 0.509 Q1.048 0.543 1.257 0.233" stroke="hsl(0.0,100%,35%)" stroke-width="0.00159"></path>
<path d="M0.396 0.509 Q0.149 0.577 0.228 0.713" stroke="hsl(0.0,100%,35%)" stroke-width="0.00159"></path>
<path d="M0.396 0.509 Q0.431 0.328 0.085 0.271" stroke="hsl(0.0,100%,35%)" stroke-width="0.00318"></path>
<path d="M0.396 0.509 Q0.316 0.810 0.886 0.916" stroke="hsl(0.0,100%,35%)" stroke-width="0.00159"></path>
<path d="M0.396 0.509 Q0.226 0.452 0.077 0.522" stroke="hsl(0.0,100%,35%)" stroke-width="0.00159"></path>
<path d="M0.396 0.509 Q0.713 0.300 0.375 0.100" stroke="hsl(0.0,100%,35%)" stroke-width="0.00318"></path>
<path d="M0.396 0.509 Q0.594 0.705 1.020 0.652" stroke="hsl(0.0,100%,35%)" stroke-width="0.00159"></path>
<path d="M0.396 0.509 Q0.243 0.511 0.214 0.587" stroke="hsl(0.0,100%,35%)" stroke-width="0.00159"></path>
<path d="M1.307 0.502 Q0.599 0.392 0.228 0.713" stroke="hsl(0.0,100%,35%)" stroke-width="0.00159"></path>
<path d="M1.307 0.502 Q0.799 0.265 0.225 0.461" stroke="hsl(0.0,100%,35%)" stroke-width="0.00159"></path>
<path d="M1.307 0.502 Q1.199 0.462 1.098 0.507" stroke="hsl(0.0,100%,35%)" stroke-width="0.00159"></path>
<path d="M1.307 0.502 Q1.041 0.253 0.498 0.328" stroke="hsl(0.0,100%,35%)" stroke-width="0.00159"></path>
<path d="M1.307 0.502 Q1.234 0.539 1.291 0.583" stroke="hsl(0.0,100%,35%)" stroke-width="0.00159"></path>
<path d="M1.307 0.502 Q1.407 0.295 1.026 0.202" stroke="hsl(0.0,100%,35%)" stroke-width="0.00159"></path>
<path d="M0.249 0.826 Q0.529 0.639 0.225 0.461" stroke="hsl(0.0,100%,35%)" stroke-width="0.00159"></path>
<path d="M0.249 0.826 Q0.611 0.516 0.085 0.271" stroke="hsl(0.0,100%,35%)" stroke-width="0.00159"></path>
<path d="M0.249 0.826 Q0.329 0.765 0.228 0.713" stroke="hsl(0.0,100%,35%)" stroke-width="0.00159"></path>
<path d="M0.249 0.826 Q1.137 0.669 1.026 0.202" stroke="hsl(0.0,100%,35%)" stroke-width="0.00159"></path>
<path d="M1.157 0.097 Q0.400 0.093 0.225 0.461" stroke="hsl(180.0,100%,35%)" stroke-width="0.00159"></path>
<path d="M1.157 0.097 Q1.099 0.185 1.257 0.233" stroke="hsl(180.0,100%,35%)" stroke-width="0.00318"></path>
<path d="M1.157 0.097 Q0.463 0.561 1.216 1.001" stroke="hsl(180.0,100%,35%)" stroke-width="0.00159"></path>
<path d="M1.157 0.097 Q0.367 0.452 0.886 0.916" stroke="hsl(180.0,100%,35%)" stroke-width="0.00159"></path>
<path d="M1.157 0.097 Q1.267 0.313 1.712 0.307" stroke="hsl(180.0,100%,35%)" stroke-width="0.00159"></path>
</g>
<text x="0.999" y="0.302" font-size="0.018411" fill="hsl(0.0,100%,20%)">agpalak</text>
<text x="1.026" y="0.194" font-size="0.015561" fill="hsl(0.0,100%,20%)">henrika</text>
<text x="0.375" y="0.086" font-size="0.026952" fill="hsl(0.0,100%,20%)">ilnik</text>
<text x="1.311" y="0.234" font-size="0.006959" fill="hsl(0.0,100%,20%)">mfoltz</text>
<text x="1.275" y="0.076" font-size="0.015561" fill="hsl(180.0,100%,20%)">apehrson</text>
<text x="0.721" y="0.551" font-size="0.061852" fill="hsl(180.0,100%,20%)">danilchap</text>
<text x="1.596" y="0.054" font-size="0.036159" fill="hsl(180.0,100%,20%)">ssilkin</text>
<text x="0.498" y="0.319" font-size="0.018411" fill="hsl(0.0,100%,20%)">tommi</text>
<text x="0.607" y="0.381" font-size="0.020877" fill="hsl(180.0,100%,20%)">boivie</text>
<text x="1.712" y="0.279" font-size="0.055671" fill="hsl(180.0,100%,20%)">mbonadei</text>
<text x="0.886" y="0.897" font-size="0.036159" fill="hsl(180.0,100%,20%)">jleconte</text>
<text x="0.225" y="0.418" font-size="0.084944" fill="hsl(0.0,100%,20%)">hta</text>
<text x="1.923" y="0.314" font-size="0.053452" fill="hsl(180.0,100%,20%)">btsirkin</text>
<text x="0.498" y="0.608" font-size="0.034794" fill="hsl(180.0,100%,20%)">perkj</text>
<text x="1.216" y="0.988" font-size="0.026952" fill="hsl(180.0,100%,20%)">terelius</text>
<text x="1.257" y="0.215" font-size="0.034794" fill="hsl(180.0,100%,20%)">sprang</text>
<text x="0.507" y="0.706" font-size="0.006959" fill="hsl(180.0,100%,20%)">brandtr</text>
<text x="1.821" y="0.119" font-size="0.009841" fill="hsl(180.0,100%,20%)">asapersson</text>
<text x="0.766" y="0.771" font-size="0.013918" fill="hsl(180.0,100%,20%)">saza</text>
<text x="1.199" y="0.870" font-size="0.013918" fill="hsl(180.0,100%,20%)">peah</text>
<text x="0.077" y="0.514" font-size="0.015561" fill="hsl(0.0,100%,20%)">kron</text>
<text x="1.020" y="0.641" font-size="0.022006" fill="hsl(180.0,100%,20%)">titovartem</text>
<text x="0.545" y="0.512" font-size="0.040577" fill="hsl(0.0,100%,20%)">jonaso</text>
<text x="0.314" y="0.288" font-size="0.040577" fill="hsl(0.0,100%,20%)">eshr</text>
<text x="0.784" y="0.161" font-size="0.054351" fill="hsl(0.0,100%,20%)">hbos</text>
<text x="0.443" y="0.218" font-size="0.009841" fill="hsl(0.0,100%,20%)">olka</text>
<text x="1.098" y="0.502" font-size="0.009841" fill="hsl(0.0,100%,20%)">stefan</text>
<text x="0.681" y="0.331" font-size="0.031890" fill="hsl(180.0,100%,20%)">jianlin.qiu</text>
<text x="0.098" y="0.575" font-size="0.006959" fill="hsl(0.0,100%,20%)">solenberg</text>
<text x="0.228" y="0.706" font-size="0.013918" fill="hsl(0.0,100%,20%)">henrik.lundin</text>
<text x="1.076" y="0.774" font-size="0.009841" fill="hsl(180.0,100%,20%)">jansson</text>
<text x="1.516" y="0.173" font-size="0.012053" fill="hsl(180.0,100%,20%)">kacp.was</text>
<text x="0.811" y="0.666" font-size="0.017046" fill="hsl(180.0,100%,20%)">linderborg</text>
<text x="1.504" y="0.141" font-size="0.009841" fill="hsl(180.0,100%,20%)">xalep</text>
<text x="0.446" y="0.850" font-size="0.006959" fill="hsl(180.0,100%,20%)">diepbp</text>
<text x="0.396" y="0.477" font-size="0.063779" fill="hsl(0.0,100%,20%)">phancke</text>
<text x="0.185" y="0.527" font-size="0.012053" fill="hsl(0.0,100%,20%)">orphis</text>
<text x="0.085" y="0.265" font-size="0.012053" fill="hsl(0.0,100%,20%)">jakobi</text>
<text x="0.214" y="0.583" font-size="0.006959" fill="hsl(0.0,100%,20%)">guidou</text>
<text x="1.307" y="0.493" font-size="0.017046" fill="hsl(0.0,100%,20%)">tikuta</text>
<text x="1.291" y="0.580" font-size="0.006959" fill="hsl(0.0,100%,20%)">alcooper</text>
<text x="0.249" y="0.819" font-size="0.013918" fill="hsl(0.0,100%,20%)">tomasl</text>
<text x="1.157" y="0.089" font-size="0.017046" fill="hsl(180.0,100%,20%)">vardar</text>
</svg>
