<svg width="4000" height="2000" viewBox="-0.025 -0.025 2.05 1.05" xmlns="http://www.w3.org/2000/svg">
  <style>
    path {
      fill: none;
      stroke-linecap: round;
      stroke-opacity: 0.4;
    }

    text {
      text-anchor: middle;
      alignment-baseline: hanging;
    }
  </style>
  <g opacity="0.4">
<path d="M0.819 0.097 Q0.838 0.054 0.759 0.036" stroke="hsl(0.0,100%,35%)" stroke-width="0.00499"></path>
<path d="M0.819 0.097 Q0.530 0.269 0.802 0.448" stroke="hsl(0.0,100%,35%)" stroke-width="0.00499"></path>
<path d="M0.819 0.097 Q0.949 0.130 1.043 0.074" stroke="hsl(0.0,100%,35%)" stroke-width="0.00125"></path>
<path d="M0.819 0.097 Q0.493 0.381 0.977 0.603" stroke="hsl(0.0,100%,35%)" stroke-width="0.00125"></path>
<path d="M0.819 0.097 Q0.100 0.455 0.640 0.884" stroke="hsl(0.0,100%,35%)" stroke-width="0.00249"></path>
<path d="M0.819 0.097 Q0.545 0.397 1.070 0.596" stroke="hsl(0.0,100%,35%)" stroke-width="0.00125"></path>
<path d="M0.802 0.448 Q1.110 0.233 0.759 0.036" stroke="hsl(0.0,100%,35%)" stroke-width="0.00249"></path>
<path d="M0.802 0.448 Q1.075 0.857 1.933 0.814" stroke="hsl(0.0,100%,35%)" stroke-width="0.00249"></path>
<path d="M0.802 0.448 Q0.469 0.519 0.536 0.698" stroke="hsl(0.0,100%,35%)" stroke-width="0.00125"></path>
<path d="M0.802 0.448 Q0.526 0.722 1.000 0.917" stroke="hsl(0.0,100%,35%)" stroke-width="0.00125"></path>
<path d="M0.802 0.448 Q0.543 0.460 0.510 0.590" stroke="hsl(0.0,100%,35%)" stroke-width="0.00249"></path>
<path d="M0.640 0.884 Q0.728 0.860 0.700 0.812" stroke="hsl(0.0,100%,35%)" stroke-width="0.01246"></path>
<path d="M0.640 0.884 Q0.794 0.972 1.000 0.917" stroke="hsl(0.0,100%,35%)" stroke-width="0.02742"></path>
<path d="M0.640 0.884 Q0.472 0.858 0.383 0.934" stroke="hsl(0.0,100%,35%)" stroke-width="0.00125"></path>
<path d="M0.640 0.884 Q0.811 0.711 0.510 0.590" stroke="hsl(0.0,100%,35%)" stroke-width="0.00125"></path>
<path d="M0.640 0.884 Q0.657 0.675 0.253 0.621" stroke="hsl(0.0,100%,35%)" stroke-width="0.00872"></path>
<path d="M0.640 0.884 Q0.473 0.863 0.396 0.941" stroke="hsl(0.0,100%,35%)" stroke-width="0.00125"></path>
<path d="M0.640 0.884 Q0.966 0.807 0.887 0.631" stroke="hsl(0.0,100%,35%)" stroke-width="0.00125"></path>
<path d="M0.640 0.884 Q0.698 0.954 0.846 0.941" stroke="hsl(0.0,100%,35%)" stroke-width="0.00125"></path>
<path d="M0.640 0.884 Q1.380 0.636 1.059 0.221" stroke="hsl(0.0,100%,35%)" stroke-width="0.00623"></path>
<path d="M0.640 0.884 Q1.033 0.811 0.977 0.603" stroke="hsl(0.0,100%,35%)" stroke-width="0.00249"></path>
<path d="M0.532 0.460 Q1.028 0.702 1.610 0.513" stroke="hsl(0.0,100%,35%)" stroke-width="0.00125"></path>
<path d="M0.532 0.460 Q0.263 0.485 0.253 0.621" stroke="hsl(0.0,100%,35%)" stroke-width="0.00125"></path>
<path d="M0.532 0.460 Q0.344 0.580 0.536 0.698" stroke="hsl(0.0,100%,35%)" stroke-width="0.00125"></path>
<path d="M0.253 0.621 Q0.258 0.708 0.430 0.725" stroke="hsl(0.0,100%,35%)" stroke-width="0.00125"></path>
<path d="M0.253 0.621 Q0.887 0.754 1.286 0.475" stroke="hsl(0.0,100%,35%)" stroke-width="0.00125"></path>
<path d="M0.253 0.621 Q1.018 0.838 1.610 0.513" stroke="hsl(0.0,100%,35%)" stroke-width="0.00125"></path>
<path d="M0.253 0.621 Q0.406 0.657 0.510 0.590" stroke="hsl(0.0,100%,35%)" stroke-width="0.00499"></path>
<path d="M0.253 0.621 Q0.236 0.830 0.640 0.884" stroke="hsl(0.0,100%,35%)" stroke-width="0.00374"></path>
<path d="M0.253 0.621 Q0.069 0.809 0.396 0.941" stroke="hsl(0.0,100%,35%)" stroke-width="0.00125"></path>
<path d="M0.253 0.621 Q0.976 0.582 1.059 0.221" stroke="hsl(0.0,100%,35%)" stroke-width="0.00125"></path>
<path d="M0.253 0.621 Q0.323 0.806 0.700 0.812" stroke="hsl(0.0,100%,35%)" stroke-width="0.00125"></path>
<path d="M0.536 0.698 Q0.456 0.603 0.253 0.621" stroke="hsl(0.0,100%,35%)" stroke-width="0.00125"></path>
<path d="M0.536 0.698 Q1.179 0.564 1.059 0.221" stroke="hsl(0.0,100%,35%)" stroke-width="0.00249"></path>
<path d="M0.536 0.698 Q0.610 0.639 0.510 0.590" stroke="hsl(0.0,100%,35%)" stroke-width="0.00499"></path>
<path d="M0.536 0.698 Q0.593 0.900 1.000 0.917" stroke="hsl(0.0,100%,35%)" stroke-width="0.00125"></path>
<path d="M0.536 0.698 Q0.439 0.812 0.640 0.884" stroke="hsl(0.0,100%,35%)" stroke-width="0.00125"></path>
<path d="M1.059 0.221 Q1.187 0.314 1.396 0.271" stroke="hsl(0.0,100%,35%)" stroke-width="0.00125"></path>
<path d="M1.059 0.221 Q1.011 0.325 1.203 0.371" stroke="hsl(0.0,100%,35%)" stroke-width="0.00249"></path>
<path d="M1.059 0.221 Q0.490 0.296 0.510 0.590" stroke="hsl(0.0,100%,35%)" stroke-width="0.00249"></path>
<path d="M1.059 0.221 Q0.749 0.283 0.802 0.448" stroke="hsl(0.0,100%,35%)" stroke-width="0.00125"></path>
<path d="M1.059 0.221 Q0.765 0.411 1.070 0.596" stroke="hsl(0.0,100%,35%)" stroke-width="0.00125"></path>
<path d="M1.059 0.221 Q0.887 0.179 0.766 0.253" stroke="hsl(0.0,100%,35%)" stroke-width="0.01246"></path>
<path d="M1.059 0.221 Q1.283 0.242 1.374 0.138" stroke="hsl(0.0,100%,35%)" stroke-width="0.00623"></path>
<path d="M1.059 0.221 Q0.319 0.469 0.640 0.884" stroke="hsl(0.0,100%,35%)" stroke-width="0.02243"></path>
<path d="M1.059 0.221 Q0.151 0.442 0.383 0.934" stroke="hsl(0.0,100%,35%)" stroke-width="0.00125"></path>
<path d="M1.059 0.221 Q0.970 0.393 1.286 0.475" stroke="hsl(0.0,100%,35%)" stroke-width="0.00125"></path>
<path d="M1.059 0.221 Q0.336 0.260 0.253 0.621" stroke="hsl(0.0,100%,35%)" stroke-width="0.00374"></path>
<path d="M1.059 0.221 Q0.840 0.406 1.153 0.554" stroke="hsl(0.0,100%,35%)" stroke-width="0.00125"></path>
<path d="M0.510 0.590 Q0.357 0.554 0.253 0.621" stroke="hsl(0.0,100%,35%)" stroke-width="0.01869"></path>
<path d="M0.510 0.590 Q0.908 0.473 0.766 0.253" stroke="hsl(0.0,100%,35%)" stroke-width="0.00374"></path>
<path d="M0.510 0.590 Q0.362 0.641 0.430 0.725" stroke="hsl(0.0,100%,35%)" stroke-width="0.00249"></path>
<path d="M0.510 0.590 Q0.437 0.649 0.536 0.698" stroke="hsl(0.0,100%,35%)" stroke-width="0.00499"></path>
<path d="M0.510 0.590 Q0.770 0.577 0.802 0.448" stroke="hsl(0.0,100%,35%)" stroke-width="0.00374"></path>
<path d="M0.510 0.590 Q0.340 0.763 0.640 0.884" stroke="hsl(0.0,100%,35%)" stroke-width="0.00872"></path>
<path d="M0.510 0.590 Q0.494 0.851 1.000 0.917" stroke="hsl(0.0,100%,35%)" stroke-width="0.00125"></path>
<path d="M0.510 0.590 Q0.567 0.767 0.925 0.779" stroke="hsl(0.0,100%,35%)" stroke-width="0.00125"></path>
<path d="M0.510 0.590 Q1.304 0.537 1.374 0.138" stroke="hsl(0.0,100%,35%)" stroke-width="0.00125"></path>
<path d="M0.510 0.590 Q0.990 0.687 1.286 0.475" stroke="hsl(0.0,100%,35%)" stroke-width="0.00249"></path>
<path d="M0.510 0.590 Q0.861 0.700 1.153 0.554" stroke="hsl(0.0,100%,35%)" stroke-width="0.00125"></path>
<path d="M0.510 0.590 Q0.588 0.649 0.720 0.624" stroke="hsl(0.0,100%,35%)" stroke-width="0.00125"></path>
<path d="M0.766 0.253 Q0.353 0.632 1.000 0.917" stroke="hsl(0.0,100%,35%)" stroke-width="0.00125"></path>
<path d="M0.766 0.253 Q0.199 0.543 0.640 0.884" stroke="hsl(0.0,100%,35%)" stroke-width="0.00125"></path>
<path d="M0.766 0.253 Q0.286 0.519 0.700 0.812" stroke="hsl(0.0,100%,35%)" stroke-width="0.00125"></path>
<path d="M0.766 0.253 Q0.216 0.334 0.253 0.621" stroke="hsl(0.0,100%,35%)" stroke-width="0.00125"></path>
<path d="M1.374 0.138 Q1.150 0.116 1.059 0.221" stroke="hsl(0.0,100%,35%)" stroke-width="0.00249"></path>
<path d="M1.374 0.138 Q0.507 0.250 0.536 0.698" stroke="hsl(0.0,100%,35%)" stroke-width="0.00125"></path>
<path d="M1.374 0.138 Q0.978 0.074 0.766 0.253" stroke="hsl(0.0,100%,35%)" stroke-width="0.00125"></path>
<path d="M1.374 0.138 Q0.410 0.364 0.640 0.884" stroke="hsl(0.0,100%,35%)" stroke-width="0.00249"></path>
<path d="M1.374 0.138 Q1.445 0.241 1.663 0.229" stroke="hsl(0.0,100%,35%)" stroke-width="0.00125"></path>
<path d="M0.383 0.934 Q0.569 0.752 0.253 0.621" stroke="hsl(0.0,100%,35%)" stroke-width="0.00748"></path>
<path d="M0.383 0.934 Q0.706 1.049 1.000 0.917" stroke="hsl(0.0,100%,35%)" stroke-width="0.00249"></path>
<path d="M0.383 0.934 Q1.292 0.713 1.059 0.221" stroke="hsl(0.0,100%,35%)" stroke-width="0.00125"></path>
<path d="M0.383 0.934 Q0.639 0.936 0.700 0.812" stroke="hsl(0.0,100%,35%)" stroke-width="0.00125"></path>
<path d="M0.383 0.934 Q0.982 0.775 0.802 0.448" stroke="hsl(0.0,100%,35%)" stroke-width="0.00249"></path>
<path d="M0.383 0.934 Q1.516 0.734 1.374 0.138" stroke="hsl(0.0,100%,35%)" stroke-width="0.00249"></path>
<path d="M0.383 0.934 Q0.850 0.588 0.278 0.284" stroke="hsl(0.0,100%,35%)" stroke-width="0.00249"></path>
<path d="M0.383 0.934 Q0.552 0.960 0.640 0.884" stroke="hsl(0.0,100%,35%)" stroke-width="0.02493"></path>
<path d="M0.383 0.934 Q0.649 0.847 0.536 0.698" stroke="hsl(0.0,100%,35%)" stroke-width="0.00125"></path>
<path d="M0.383 0.934 Q0.527 1.022 0.730 0.971" stroke="hsl(0.0,100%,35%)" stroke-width="0.00374"></path>
<path d="M1.286 0.475 Q0.652 0.341 0.253 0.621" stroke="hsl(0.0,100%,35%)" stroke-width="0.00374"></path>
<path d="M1.286 0.475 Q1.328 0.406 1.203 0.371" stroke="hsl(0.0,100%,35%)" stroke-width="0.00748"></path>
<path d="M1.286 0.475 Q1.417 0.559 1.610 0.513" stroke="hsl(0.0,100%,35%)" stroke-width="0.00125"></path>
<path d="M1.286 0.475 Q1.376 0.302 1.059 0.221" stroke="hsl(0.0,100%,35%)" stroke-width="0.00374"></path>
<path d="M1.286 0.475 Q1.157 0.488 1.153 0.554" stroke="hsl(0.0,100%,35%)" stroke-width="0.00249"></path>
<path d="M1.286 0.475 Q1.168 0.518 1.228 0.586" stroke="hsl(0.0,100%,35%)" stroke-width="0.00249"></path>
<path d="M1.286 0.475 Q1.438 0.482 1.486 0.410" stroke="hsl(0.0,100%,35%)" stroke-width="0.00125"></path>
<path d="M0.700 0.812 Q0.613 0.836 0.640 0.884" stroke="hsl(0.0,100%,35%)" stroke-width="0.07104"></path>
<path d="M0.700 0.812 Q1.043 0.650 0.802 0.448" stroke="hsl(0.0,100%,35%)" stroke-width="0.00125"></path>
<path d="M0.700 0.812 Q0.444 0.810 0.383 0.934" stroke="hsl(0.0,100%,35%)" stroke-width="0.00125"></path>
<path d="M0.700 0.812 Q0.629 0.627 0.253 0.621" stroke="hsl(0.0,100%,35%)" stroke-width="0.00997"></path>
<path d="M0.700 0.812 Q0.445 0.816 0.396 0.941" stroke="hsl(0.0,100%,35%)" stroke-width="0.00374"></path>
<path d="M0.700 0.812 Q1.180 0.546 0.766 0.253" stroke="hsl(0.0,100%,35%)" stroke-width="0.00125"></path>
<path d="M0.700 0.812 Q0.935 0.381 0.146 0.171" stroke="hsl(0.0,100%,35%)" stroke-width="0.00125"></path>
<path d="M0.700 0.812 Q0.886 0.756 0.818 0.653" stroke="hsl(0.0,100%,35%)" stroke-width="0.00125"></path>
<path d="M0.146 0.171 Q0.122 0.254 0.278 0.284" stroke="hsl(0.0,100%,35%)" stroke-width="0.00249"></path>
<path d="M0.146 0.171 Q0.561 0.226 0.759 0.036" stroke="hsl(0.0,100%,35%)" stroke-width="0.00125"></path>
<path d="M0.146 0.171 Q-0.024 0.285 0.162 0.393" stroke="hsl(0.0,100%,35%)" stroke-width="0.00125"></path>
<path d="M1.901 0.708 Q1.806 0.676 1.723 0.716" stroke="hsl(0.0,100%,35%)" stroke-width="0.00125"></path>
<path d="M1.901 0.708 Q1.560 0.358 0.802 0.448" stroke="hsl(0.0,100%,35%)" stroke-width="0.00374"></path>
<path d="M1.901 0.708 Q1.832 0.767 1.933 0.814" stroke="hsl(0.0,100%,35%)" stroke-width="0.00374"></path>
<path d="M1.000 0.917 Q0.934 0.804 0.700 0.812" stroke="hsl(0.0,100%,35%)" stroke-width="0.00374"></path>
<path d="M1.000 0.917 Q0.863 0.619 0.253 0.621" stroke="hsl(0.0,100%,35%)" stroke-width="0.00125"></path>
<path d="M1.000 0.917 Q0.846 0.828 0.640 0.884" stroke="hsl(0.0,100%,35%)" stroke-width="0.01620"></path>
<path d="M1.000 0.917 Q1.276 0.643 0.802 0.448" stroke="hsl(0.0,100%,35%)" stroke-width="0.00872"></path>
<path d="M1.000 0.917 Q1.295 0.846 1.222 0.687" stroke="hsl(0.0,100%,35%)" stroke-width="0.00249"></path>
<path d="M1.000 0.917 Q1.586 0.581 1.059 0.221" stroke="hsl(0.0,100%,35%)" stroke-width="0.00249"></path>
<path d="M1.000 0.917 Q1.538 0.684 1.203 0.371" stroke="hsl(0.0,100%,35%)" stroke-width="0.00374"></path>
<path d="M1.000 0.917 Q1.497 0.753 1.286 0.475" stroke="hsl(0.0,100%,35%)" stroke-width="0.00125"></path>
<path d="M1.000 0.917 Q1.186 0.941 1.274 0.855" stroke="hsl(0.0,100%,35%)" stroke-width="0.00249"></path>
<path d="M1.222 0.687 Q0.928 0.757 1.000 0.917" stroke="hsl(0.0,100%,35%)" stroke-width="0.00499"></path>
<path d="M1.222 0.687 Q1.465 0.525 1.203 0.371" stroke="hsl(0.0,100%,35%)" stroke-width="0.00374"></path>
<path d="M1.222 0.687 Q1.424 0.594 1.286 0.475" stroke="hsl(0.0,100%,35%)" stroke-width="0.00249"></path>
<path d="M1.222 0.687 Q0.774 0.669 0.640 0.884" stroke="hsl(0.0,100%,35%)" stroke-width="0.00125"></path>
<path d="M1.274 0.855 Q1.626 0.599 1.203 0.371" stroke="hsl(0.0,100%,35%)" stroke-width="0.00125"></path>
<path d="M1.274 0.855 Q1.088 0.831 1.000 0.917" stroke="hsl(0.0,100%,35%)" stroke-width="0.00374"></path>
<path d="M1.274 0.855 Q1.383 0.761 1.222 0.687" stroke="hsl(0.0,100%,35%)" stroke-width="0.00125"></path>
<path d="M1.274 0.855 Q1.585 0.667 1.286 0.475" stroke="hsl(0.0,100%,35%)" stroke-width="0.00125"></path>
<path d="M1.274 0.855 Q1.260 0.666 0.887 0.631" stroke="hsl(0.0,100%,35%)" stroke-width="0.00125"></path>
<path d="M1.274 0.855 Q1.674 0.495 1.059 0.221" stroke="hsl(0.0,100%,35%)" stroke-width="0.00125"></path>
<path d="M1.274 0.855 Q0.934 0.743 0.640 0.884" stroke="hsl(0.0,100%,35%)" stroke-width="0.00125"></path>
<path d="M0.846 0.941 Q0.789 0.871 0.640 0.884" stroke="hsl(0.0,100%,35%)" stroke-width="0.00623"></path>
<path d="M0.846 0.941 Q0.620 0.845 0.383 0.934" stroke="hsl(0.0,100%,35%)" stroke-width="0.00125"></path>
<path d="M0.846 0.941 Q0.621 0.851 0.396 0.941" stroke="hsl(0.0,100%,35%)" stroke-width="0.00125"></path>
<path d="M0.925 0.779 Q0.699 0.774 0.640 0.884" stroke="hsl(0.0,100%,35%)" stroke-width="0.06481"></path>
<path d="M0.925 0.779 Q0.869 0.601 0.510 0.590" stroke="hsl(0.0,100%,35%)" stroke-width="0.00249"></path>
<path d="M0.925 0.779 Q0.715 0.565 0.253 0.621" stroke="hsl(0.0,100%,35%)" stroke-width="0.01371"></path>
<path d="M0.925 0.779 Q1.349 0.699 1.286 0.475" stroke="hsl(0.0,100%,35%)" stroke-width="0.00125"></path>
<path d="M0.925 0.779 Q0.853 0.863 1.000 0.917" stroke="hsl(0.0,100%,35%)" stroke-width="0.02493"></path>
<path d="M0.925 0.779 Q0.530 0.748 0.383 0.934" stroke="hsl(0.0,100%,35%)" stroke-width="0.00748"></path>
<path d="M0.925 0.779 Q1.129 0.589 0.802 0.448" stroke="hsl(0.0,100%,35%)" stroke-width="0.00499"></path>
<path d="M0.925 0.779 Q0.997 0.402 0.278 0.284" stroke="hsl(0.0,100%,35%)" stroke-width="0.00249"></path>
<path d="M0.925 0.779 Q1.266 0.484 0.766 0.253" stroke="hsl(0.0,100%,35%)" stroke-width="0.00125"></path>
<path d="M0.925 0.779 Q1.438 0.527 1.059 0.221" stroke="hsl(0.0,100%,35%)" stroke-width="0.01745"></path>
<path d="M0.925 0.779 Q1.091 0.701 0.977 0.603" stroke="hsl(0.0,100%,35%)" stroke-width="0.00125"></path>
<path d="M0.925 0.779 Q1.038 0.887 1.274 0.855" stroke="hsl(0.0,100%,35%)" stroke-width="0.00125"></path>
<path d="M0.925 0.779 Q1.089 0.734 1.037 0.644" stroke="hsl(0.0,100%,35%)" stroke-width="0.00125"></path>
<path d="M0.925 0.779 Q1.390 0.630 1.203 0.371" stroke="hsl(0.0,100%,35%)" stroke-width="0.00374"></path>
<path d="M0.925 0.779 Q0.796 0.660 0.536 0.698" stroke="hsl(0.0,100%,35%)" stroke-width="0.00249"></path>
<path d="M0.925 0.779 Q1.144 0.716 1.070 0.596" stroke="hsl(0.0,100%,35%)" stroke-width="0.00374"></path>
<path d="M0.925 0.779 Q1.024 0.698 0.887 0.631" stroke="hsl(0.0,100%,35%)" stroke-width="0.00249"></path>
<path d="M0.925 0.779 Q1.662 0.548 1.374 0.138" stroke="hsl(0.0,100%,35%)" stroke-width="0.00125"></path>
<path d="M0.925 0.779 Q0.786 0.750 0.700 0.812" stroke="hsl(0.0,100%,35%)" stroke-width="0.00499"></path>
<path d="M0.925 0.779 Q0.720 0.653 0.430 0.725" stroke="hsl(0.0,100%,35%)" stroke-width="0.00125"></path>
<path d="M0.925 0.779 Q0.756 0.844 0.846 0.941" stroke="hsl(0.0,100%,35%)" stroke-width="0.00125"></path>
<path d="M0.925 0.779 Q0.531 0.754 0.396 0.941" stroke="hsl(0.0,100%,35%)" stroke-width="0.00125"></path>
<path d="M1.043 0.987 Q1.011 0.831 0.700 0.812" stroke="hsl(0.0,100%,35%)" stroke-width="0.00125"></path>
<path d="M1.043 0.987 Q0.924 0.855 0.640 0.884" stroke="hsl(0.0,100%,35%)" stroke-width="0.00249"></path>
<path d="M1.043 0.987 Q1.616 0.711 1.203 0.371" stroke="hsl(0.0,100%,35%)" stroke-width="0.00125"></path>
<path d="M1.455 0.635 Q1.002 0.685 1.000 0.917" stroke="hsl(0.0,100%,35%)" stroke-width="0.00125"></path>
<path d="M1.455 0.635 Q1.296 0.614 1.222 0.687" stroke="hsl(0.0,100%,35%)" stroke-width="0.00125"></path>
<path d="M1.455 0.635 Q1.498 0.521 1.286 0.475" stroke="hsl(0.0,100%,35%)" stroke-width="0.00125"></path>
<path d="M1.063 0.429 Q0.488 0.572 0.640 0.884" stroke="hsl(0.0,100%,35%)" stroke-width="0.00249"></path>
<path d="M1.063 0.429 Q1.180 0.428 1.203 0.371" stroke="hsl(0.0,100%,35%)" stroke-width="0.00249"></path>
<path d="M1.063 0.429 Q1.227 0.324 1.059 0.221" stroke="hsl(0.0,100%,35%)" stroke-width="0.00374"></path>
<path d="M0.996 0.547 Q1.320 0.809 1.901 0.708" stroke="hsl(0.0,100%,35%)" stroke-width="0.00125"></path>
<path d="M0.996 0.547 Q0.549 0.644 0.640 0.884" stroke="hsl(0.0,100%,35%)" stroke-width="0.00125"></path>
<path d="M0.996 0.547 Q0.979 0.459 0.802 0.448" stroke="hsl(0.0,100%,35%)" stroke-width="0.00125"></path>
<path d="M1.911 0.534 Q1.646 0.379 1.286 0.475" stroke="hsl(0.0,100%,35%)" stroke-width="0.00249"></path>
<path d="M1.911 0.534 Q1.777 0.463 1.610 0.513" stroke="hsl(0.0,100%,35%)" stroke-width="0.00374"></path>
<path d="M1.911 0.534 Q2.009 0.476 1.918 0.416" stroke="hsl(0.0,100%,35%)" stroke-width="0.00125"></path>
<path d="M0.508 0.065 Q0.502 0.117 0.601 0.131" stroke="hsl(0.0,100%,35%)" stroke-width="0.00249"></path>
<path d="M0.508 0.065 Q0.657 0.101 0.759 0.036" stroke="hsl(0.0,100%,35%)" stroke-width="0.00125"></path>
<path d="M0.508 0.065 Q0.933 0.522 1.918 0.416" stroke="hsl(0.0,100%,35%)" stroke-width="0.00125"></path>
<path d="M0.508 0.065 Q0.883 0.275 1.374 0.138" stroke="hsl(0.0,100%,35%)" stroke-width="0.00125"></path>
<path d="M0.980 0.341 Q1.068 0.401 1.203 0.371" stroke="hsl(0.0,100%,35%)" stroke-width="0.00748"></path>
<path d="M0.980 0.341 Q0.473 0.431 0.536 0.698" stroke="hsl(0.0,100%,35%)" stroke-width="0.00125"></path>
<path d="M0.980 0.341 Q0.546 0.372 0.510 0.590" stroke="hsl(0.0,100%,35%)" stroke-width="0.00125"></path>
<path d="M0.980 0.341 Q0.393 0.336 0.253 0.621" stroke="hsl(0.0,100%,35%)" stroke-width="0.00249"></path>
<path d="M0.980 0.341 Q0.951 0.402 1.063 0.429" stroke="hsl(0.0,100%,35%)" stroke-width="0.00374"></path>
<path d="M0.980 0.341 Q0.943 0.254 0.766 0.253" stroke="hsl(0.0,100%,35%)" stroke-width="0.00125"></path>
</g>
<text x="0.819" y="0.086" font-size="0.021301" fill="hsl(0.0,100%,20%)">agpalak</text>
<text x="0.759" y="0.027" font-size="0.016710" fill="hsl(0.0,100%,20%)">henrika</text>
<text x="0.802" y="0.430" font-size="0.034449" fill="hsl(0.0,100%,20%)">ilnik</text>
<text x="1.043" y="0.071" font-size="0.005908" fill="hsl(0.0,100%,20%)">mfoltz</text>
<text x="0.977" y="0.597" font-size="0.011816" fill="hsl(0.0,100%,20%)">guidou</text>
<text x="0.640" y="0.838" font-size="0.091335" fill="hsl(0.0,100%,20%)">hta</text>
<text x="1.070" y="0.590" font-size="0.013211" fill="hsl(0.0,100%,20%)">kron</text>
<text x="0.532" y="0.455" font-size="0.010233" fill="hsl(0.0,100%,20%)">daniel.l</text>
<text x="1.610" y="0.506" font-size="0.014471" fill="hsl(0.0,100%,20%)">xalep</text>
<text x="0.253" y="0.596" font-size="0.050131" fill="hsl(0.0,100%,20%)">mbonadei</text>
<text x="0.536" y="0.684" font-size="0.026421" fill="hsl(0.0,100%,20%)">terelius</text>
<text x="1.059" y="0.195" font-size="0.052842" fill="hsl(0.0,100%,20%)">danilchap</text>
<text x="1.396" y="0.268" font-size="0.005908" fill="hsl(0.0,100%,20%)">saza</text>
<text x="1.203" y="0.356" font-size="0.030699" fill="hsl(0.0,100%,20%)">sprang</text>
<text x="0.510" y="0.568" font-size="0.044604" fill="hsl(0.0,100%,20%)">jleconte</text>
<text x="0.766" y="0.240" font-size="0.027074" fill="hsl(0.0,100%,20%)">titovartem</text>
<text x="1.374" y="0.126" font-size="0.024359" fill="hsl(0.0,100%,20%)">perkj</text>
<text x="0.383" y="0.913" font-size="0.041776" fill="hsl(0.0,100%,20%)">jonaso</text>
<text x="1.286" y="0.458" font-size="0.032359" fill="hsl(0.0,100%,20%)">ssilkin</text>
<text x="1.153" y="0.548" font-size="0.011816" fill="hsl(0.0,100%,20%)">brandtr</text>
<text x="0.700" y="0.783" font-size="0.057280" fill="hsl(0.0,100%,20%)">eshr</text>
<text x="0.396" y="0.933" font-size="0.015631" fill="hsl(0.0,100%,20%)">tommi</text>
<text x="0.146" y="0.165" font-size="0.013211" fill="hsl(0.0,100%,20%)">peterhanspers</text>
<text x="0.818" y="0.650" font-size="0.005908" fill="hsl(0.0,100%,20%)">yinwa</text>
<text x="1.901" y="0.700" font-size="0.016710" fill="hsl(0.0,100%,20%)">grulja</text>
<text x="1.723" y="0.713" font-size="0.005908" fill="hsl(0.0,100%,20%)">apehrson</text>
<text x="1.933" y="0.807" font-size="0.013211" fill="hsl(0.0,100%,20%)">alcooper</text>
<text x="1.000" y="0.889" font-size="0.056048" fill="hsl(0.0,100%,20%)">hbos</text>
<text x="1.222" y="0.676" font-size="0.022106" fill="hsl(0.0,100%,20%)">jianlin.qiu</text>
<text x="1.274" y="0.845" font-size="0.020466" fill="hsl(0.0,100%,20%)">philipel</text>
<text x="0.887" y="0.626" font-size="0.011816" fill="hsl(0.0,100%,20%)">boivie</text>
<text x="0.846" y="0.932" font-size="0.017724" fill="hsl(0.0,100%,20%)">solenberg</text>
<text x="0.430" y="0.719" font-size="0.011816" fill="hsl(0.0,100%,20%)">jansson</text>
<text x="0.925" y="0.744" font-size="0.068644" fill="hsl(0.0,100%,20%)">phancke</text>
<text x="0.720" y="0.621" font-size="0.005908" fill="hsl(0.0,100%,20%)">manashi</text>
<text x="1.043" y="0.981" font-size="0.011816" fill="hsl(0.0,100%,20%)">joachimr</text>
<text x="0.278" y="0.277" font-size="0.014471" fill="hsl(0.0,100%,20%)">jakobi</text>
<text x="0.730" y="0.966" font-size="0.010233" fill="hsl(0.0,100%,20%)">samvi</text>
<text x="1.455" y="0.629" font-size="0.010233" fill="hsl(0.0,100%,20%)">kacp.was</text>
<text x="1.063" y="0.420" font-size="0.018683" fill="hsl(0.0,100%,20%)">linderborg</text>
<text x="0.996" y="0.542" font-size="0.010233" fill="hsl(0.0,100%,20%)">me</text>
<text x="1.663" y="0.226" font-size="0.005908" fill="hsl(0.0,100%,20%)">diepbp</text>
<text x="0.162" y="0.390" font-size="0.005908" fill="hsl(0.0,100%,20%)">andersc</text>
<text x="1.037" y="0.641" font-size="0.005908" fill="hsl(0.0,100%,20%)">peah</text>
<text x="1.911" y="0.526" font-size="0.014471" fill="hsl(0.0,100%,20%)">ranvr</text>
<text x="1.918" y="0.412" font-size="0.008355" fill="hsl(0.0,100%,20%)">magjed</text>
<text x="1.228" y="0.581" font-size="0.008355" fill="hsl(0.0,100%,20%)">asapersson</text>
<text x="1.486" y="0.407" font-size="0.005908" fill="hsl(0.0,100%,20%)">kthelgason</text>
<text x="0.508" y="0.059" font-size="0.013211" fill="hsl(0.0,100%,20%)">tomasl</text>
<text x="0.601" y="0.127" font-size="0.008355" fill="hsl(0.0,100%,20%)">henrik.lundin</text>
<text x="0.980" y="0.330" font-size="0.022106" fill="hsl(0.0,100%,20%)">vardar</text>
</svg>
