<svg width="4000" height="2000" viewBox="-0.025 -0.025 2.05 1.05" xmlns="http://www.w3.org/2000/svg">
  <style>
    path {
      fill: none;
      stroke-linecap: round;
      stroke-opacity: 0.4;
    }

    text {
      text-anchor: middle;
      alignment-baseline: hanging;
    }
  </style>
  <g opacity="0.4">
<path d="M0.894 0.087 Q0.039 0.309 0.285 0.775" stroke="hsl(0.0,100%,35%)" stroke-width="0.00078"></path>
<path d="M0.894 0.087 Q1.261 0.360 1.876 0.241" stroke="hsl(0.0,100%,35%)" stroke-width="0.00078"></path>
<path d="M0.894 0.087 Q0.847 0.023 0.712 0.032" stroke="hsl(0.0,100%,35%)" stroke-width="0.00156"></path>
<path d="M0.285 0.775 Q0.840 0.608 0.636 0.301" stroke="hsl(0.0,100%,35%)" stroke-width="0.00700"></path>
<path d="M0.285 0.775 Q0.314 0.851 0.469 0.853" stroke="hsl(0.0,100%,35%)" stroke-width="0.01944"></path>
<path d="M0.285 0.775 Q0.428 0.725 0.361 0.644" stroke="hsl(0.0,100%,35%)" stroke-width="0.00078"></path>
<path d="M0.285 0.775 Q0.970 0.977 1.515 0.687" stroke="hsl(0.0,100%,35%)" stroke-width="0.00622"></path>
<path d="M0.285 0.775 Q0.897 0.694 0.872 0.377" stroke="hsl(0.0,100%,35%)" stroke-width="0.00311"></path>
<path d="M0.285 0.775 Q1.551 0.835 1.945 0.231" stroke="hsl(0.0,100%,35%)" stroke-width="0.00078"></path>
<path d="M0.285 0.775 Q1.580 0.741 1.797 0.102" stroke="hsl(0.0,100%,35%)" stroke-width="0.00233"></path>
<path d="M0.285 0.775 Q0.709 0.693 0.642 0.469" stroke="hsl(0.0,100%,35%)" stroke-width="0.00156"></path>
<path d="M0.285 0.775 Q0.847 1.113 1.629 0.912" stroke="hsl(0.0,100%,35%)" stroke-width="0.00467"></path>
<path d="M0.285 0.775 Q0.762 0.494 0.317 0.199" stroke="hsl(0.0,100%,35%)" stroke-width="0.00078"></path>
<path d="M0.285 0.775 Q1.268 0.955 1.835 0.515" stroke="hsl(0.0,100%,35%)" stroke-width="0.00233"></path>
<path d="M0.285 0.775 Q0.525 0.718 0.467 0.588" stroke="hsl(0.0,100%,35%)" stroke-width="0.00078"></path>
<path d="M0.285 0.775 Q1.010 1.151 1.903 0.880" stroke="hsl(0.0,100%,35%)" stroke-width="0.00078"></path>
<path d="M0.285 0.775 Q1.194 0.780 1.403 0.338" stroke="hsl(0.0,100%,35%)" stroke-width="0.00078"></path>
<path d="M0.285 0.775 Q1.556 0.812 1.906 0.200" stroke="hsl(0.0,100%,35%)" stroke-width="0.00078"></path>
<path d="M1.876 0.241 Q1.552 0.051 1.111 0.167" stroke="hsl(0.0,100%,35%)" stroke-width="0.00078"></path>
<path d="M1.876 0.241 Q1.208 0.023 0.636 0.301" stroke="hsl(0.0,100%,35%)" stroke-width="0.00078"></path>
<path d="M1.876 0.241 Q1.461 -0.096 0.712 0.032" stroke="hsl(0.0,100%,35%)" stroke-width="0.00078"></path>
<path d="M1.211 0.303 Q0.370 0.354 0.285 0.775" stroke="hsl(0.0,100%,35%)" stroke-width="0.00078"></path>
<path d="M1.211 0.303 Q0.925 0.187 0.636 0.301" stroke="hsl(0.0,100%,35%)" stroke-width="0.00156"></path>
<path d="M1.211 0.303 Q1.279 0.359 1.403 0.338" stroke="hsl(0.0,100%,35%)" stroke-width="0.00233"></path>
<path d="M1.211 0.303 Q1.565 0.294 1.626 0.120" stroke="hsl(0.0,100%,35%)" stroke-width="0.00389"></path>
<path d="M1.211 0.303 Q1.270 0.215 1.111 0.167" stroke="hsl(0.0,100%,35%)" stroke-width="0.00078"></path>
<path d="M1.211 0.303 Q1.125 0.368 1.233 0.424" stroke="hsl(0.0,100%,35%)" stroke-width="0.00078"></path>
<path d="M1.211 0.303 Q1.489 0.362 1.666 0.239" stroke="hsl(0.0,100%,35%)" stroke-width="0.00078"></path>
<path d="M1.211 0.303 Q0.982 0.272 0.872 0.377" stroke="hsl(0.0,100%,35%)" stroke-width="0.00078"></path>
<path d="M0.636 0.301 Q0.694 0.387 0.872 0.377" stroke="hsl(0.0,100%,35%)" stroke-width="0.00078"></path>
<path d="M0.636 0.301 Q0.505 0.386 0.642 0.469" stroke="hsl(0.0,100%,35%)" stroke-width="0.00389"></path>
<path d="M0.636 0.301 Q0.476 0.275 0.389 0.347" stroke="hsl(0.0,100%,35%)" stroke-width="0.00389"></path>
<path d="M0.636 0.301 Q1.352 0.504 1.906 0.200" stroke="hsl(0.0,100%,35%)" stroke-width="0.00078"></path>
<path d="M0.636 0.301 Q0.082 0.468 0.285 0.775" stroke="hsl(0.0,100%,35%)" stroke-width="0.00778"></path>
<path d="M0.636 0.301 Q0.551 0.218 0.370 0.241" stroke="hsl(0.0,100%,35%)" stroke-width="0.00156"></path>
<path d="M0.636 0.301 Q0.111 0.544 0.469 0.853" stroke="hsl(0.0,100%,35%)" stroke-width="0.00078"></path>
<path d="M0.636 0.301 Q0.558 0.186 0.317 0.199" stroke="hsl(0.0,100%,35%)" stroke-width="0.00544"></path>
<path d="M0.636 0.301 Q0.848 0.601 1.479 0.564" stroke="hsl(0.0,100%,35%)" stroke-width="0.00078"></path>
<path d="M0.636 0.301 Q0.767 0.670 1.515 0.687" stroke="hsl(0.0,100%,35%)" stroke-width="0.00078"></path>
<path d="M0.636 0.301 Q0.254 0.568 0.691 0.813" stroke="hsl(0.0,100%,35%)" stroke-width="0.00078"></path>
<path d="M0.636 0.301 Q0.371 0.358 0.425 0.500" stroke="hsl(0.0,100%,35%)" stroke-width="0.00078"></path>
<path d="M0.636 0.301 Q1.171 0.437 1.552 0.205" stroke="hsl(0.0,100%,35%)" stroke-width="0.00078"></path>
<path d="M0.636 0.301 Q0.496 0.695 1.232 0.849" stroke="hsl(0.0,100%,35%)" stroke-width="0.00078"></path>
<path d="M0.636 0.301 Q0.990 0.473 1.403 0.338" stroke="hsl(0.0,100%,35%)" stroke-width="0.00078"></path>
<path d="M0.636 0.301 Q0.816 0.754 1.738 0.765" stroke="hsl(0.0,100%,35%)" stroke-width="0.00078"></path>
<path d="M1.626 0.120 Q1.471 0.137 1.470 0.217" stroke="hsl(0.0,100%,35%)" stroke-width="0.00389"></path>
<path d="M1.626 0.120 Q1.726 0.145 1.797 0.102" stroke="hsl(0.0,100%,35%)" stroke-width="0.00311"></path>
<path d="M1.626 0.120 Q0.721 0.070 0.425 0.500" stroke="hsl(0.0,100%,35%)" stroke-width="0.00078"></path>
<path d="M1.626 0.120 Q1.340 0.184 1.403 0.338" stroke="hsl(0.0,100%,35%)" stroke-width="0.00778"></path>
<path d="M1.626 0.120 Q0.986 0.012 0.636 0.301" stroke="hsl(0.0,100%,35%)" stroke-width="0.00078"></path>
<path d="M1.626 0.120 Q1.558 0.185 1.672 0.233" stroke="hsl(0.0,100%,35%)" stroke-width="0.00078"></path>
<path d="M1.626 0.120 Q0.993 0.517 1.629 0.912" stroke="hsl(0.0,100%,35%)" stroke-width="0.00156"></path>
<path d="M1.626 0.120 Q0.431 0.179 0.285 0.775" stroke="hsl(0.0,100%,35%)" stroke-width="0.00078"></path>
<path d="M0.872 0.377 Q1.379 0.467 1.666 0.239" stroke="hsl(0.0,100%,35%)" stroke-width="0.00233"></path>
<path d="M0.872 0.377 Q0.815 0.292 0.636 0.301" stroke="hsl(0.0,100%,35%)" stroke-width="0.00389"></path>
<path d="M0.872 0.377 Q1.555 0.424 1.797 0.102" stroke="hsl(0.0,100%,35%)" stroke-width="0.00078"></path>
<path d="M0.872 0.377 Q0.839 0.410 0.897 0.434" stroke="hsl(0.0,100%,35%)" stroke-width="0.00233"></path>
<path d="M0.872 0.377 Q0.590 0.458 0.685 0.614" stroke="hsl(0.0,100%,35%)" stroke-width="0.00156"></path>
<path d="M0.872 0.377 Q0.260 0.459 0.285 0.775" stroke="hsl(0.0,100%,35%)" stroke-width="0.00233"></path>
<path d="M0.060 0.594 Q0.056 0.586 0.041 0.586" stroke="hsl(0.0,100%,35%)" stroke-width="0.00078"></path>
<path d="M0.060 0.594 Q0.170 0.679 0.361 0.644" stroke="hsl(0.0,100%,35%)" stroke-width="0.00078"></path>
<path d="M0.060 0.594 Q0.835 0.443 0.712 0.032" stroke="hsl(0.0,100%,35%)" stroke-width="0.00078"></path>
<path d="M0.361 0.644 Q0.904 0.896 1.515 0.687" stroke="hsl(0.0,100%,35%)" stroke-width="0.00311"></path>
<path d="M0.361 0.644 Q0.781 1.032 1.629 0.912" stroke="hsl(0.0,100%,35%)" stroke-width="0.00078"></path>
<path d="M0.361 0.644 Q0.219 0.695 0.285 0.775" stroke="hsl(0.0,100%,35%)" stroke-width="0.00622"></path>
<path d="M0.361 0.644 Q0.773 0.528 0.636 0.301" stroke="hsl(0.0,100%,35%)" stroke-width="0.00156"></path>
<path d="M0.361 0.644 Q0.613 0.501 0.389 0.347" stroke="hsl(0.0,100%,35%)" stroke-width="0.00078"></path>
<path d="M0.361 0.644 Q0.985 0.828 1.479 0.564" stroke="hsl(0.0,100%,35%)" stroke-width="0.00156"></path>
<path d="M0.361 0.644 Q0.180 0.826 0.496 0.955" stroke="hsl(0.0,100%,35%)" stroke-width="0.00078"></path>
<path d="M1.347 0.053 Q1.533 0.167 1.797 0.102" stroke="hsl(180.0,100%,35%)" stroke-width="0.00078"></path>
<path d="M1.347 0.053 Q0.653 0.428 1.232 0.849" stroke="hsl(180.0,100%,35%)" stroke-width="0.00156"></path>
<path d="M1.347 0.053 Q0.850 0.120 0.872 0.377" stroke="hsl(180.0,100%,35%)" stroke-width="0.00078"></path>
<path d="M1.347 0.053 Q1.004 0.335 1.479 0.564" stroke="hsl(180.0,100%,35%)" stroke-width="0.00078"></path>
<path d="M1.797 0.102 Q1.697 0.076 1.626 0.120" stroke="hsl(0.0,100%,35%)" stroke-width="0.02333"></path>
<path d="M1.797 0.102 Q1.114 0.055 0.872 0.377" stroke="hsl(0.0,100%,35%)" stroke-width="0.00156"></path>
<path d="M1.797 0.102 Q1.081 0.088 0.897 0.434" stroke="hsl(0.0,100%,35%)" stroke-width="0.00078"></path>
<path d="M1.797 0.102 Q1.773 0.172 1.906 0.200" stroke="hsl(0.0,100%,35%)" stroke-width="0.00467"></path>
<path d="M1.797 0.102 Q0.531 0.212 0.469 0.853" stroke="hsl(0.0,100%,35%)" stroke-width="0.00156"></path>
<path d="M1.797 0.102 Q0.831 0.135 0.685 0.614" stroke="hsl(0.0,100%,35%)" stroke-width="0.00078"></path>
<path d="M1.797 0.102 Q1.661 0.186 1.797 0.271" stroke="hsl(0.0,100%,35%)" stroke-width="0.00233"></path>
<path d="M1.797 0.102 Q0.916 0.363 1.232 0.849" stroke="hsl(0.0,100%,35%)" stroke-width="0.00078"></path>
<path d="M1.797 0.102 Q0.926 0.054 0.642 0.469" stroke="hsl(0.0,100%,35%)" stroke-width="0.00233"></path>
<path d="M1.797 0.102 Q1.268 0.269 1.479 0.564" stroke="hsl(0.0,100%,35%)" stroke-width="0.00078"></path>
<path d="M1.797 0.102 Q1.057 -0.031 0.636 0.301" stroke="hsl(0.0,100%,35%)" stroke-width="0.01089"></path>
<path d="M1.797 0.102 Q1.629 0.142 1.672 0.233" stroke="hsl(0.0,100%,35%)" stroke-width="0.01244"></path>
<path d="M1.797 0.102 Q1.725 0.187 1.876 0.241" stroke="hsl(0.0,100%,35%)" stroke-width="0.00311"></path>
<path d="M1.797 0.102 Q1.064 0.473 1.629 0.912" stroke="hsl(0.0,100%,35%)" stroke-width="0.00233"></path>
<path d="M1.797 0.102 Q0.979 -0.146 0.317 0.199" stroke="hsl(0.0,100%,35%)" stroke-width="0.00078"></path>
<path d="M1.797 0.102 Q0.502 0.136 0.285 0.775" stroke="hsl(0.0,100%,35%)" stroke-width="0.01633"></path>
<path d="M1.797 0.102 Q1.455 0.229 1.628 0.423" stroke="hsl(0.0,100%,35%)" stroke-width="0.00078"></path>
<path d="M1.797 0.102 Q1.591 0.105 1.552 0.205" stroke="hsl(0.0,100%,35%)" stroke-width="0.00156"></path>
<path d="M1.797 0.102 Q0.675 0.236 0.691 0.813" stroke="hsl(0.0,100%,35%)" stroke-width="0.00233"></path>
<path d="M1.797 0.102 Q1.767 0.196 1.945 0.231" stroke="hsl(0.0,100%,35%)" stroke-width="0.00078"></path>
<path d="M1.797 0.102 Q1.621 0.144 1.666 0.239" stroke="hsl(0.0,100%,35%)" stroke-width="0.00467"></path>
<path d="M1.797 0.102 Q0.896 -0.057 0.389 0.347" stroke="hsl(0.0,100%,35%)" stroke-width="0.00078"></path>
<path d="M1.797 0.102 Q0.792 0.026 0.425 0.500" stroke="hsl(0.0,100%,35%)" stroke-width="0.00078"></path>
<path d="M1.232 0.849 Q1.584 0.756 1.479 0.564" stroke="hsl(180.0,100%,35%)" stroke-width="0.00855"></path>
<path d="M1.232 0.849 Q0.990 0.723 0.691 0.813" stroke="hsl(180.0,100%,35%)" stroke-width="0.00855"></path>
<path d="M1.232 0.849 Q1.170 0.875 1.208 0.911" stroke="hsl(180.0,100%,35%)" stroke-width="0.00078"></path>
<path d="M1.232 0.849 Q1.108 0.513 0.425 0.500" stroke="hsl(180.0,100%,35%)" stroke-width="0.00078"></path>
<path d="M1.232 0.849 Q1.372 0.456 0.636 0.301" stroke="hsl(180.0,100%,35%)" stroke-width="0.00311"></path>
<path d="M1.232 0.849 Q2.113 0.588 1.797 0.102" stroke="hsl(180.0,100%,35%)" stroke-width="0.00544"></path>
<path d="M1.232 0.849 Q1.213 0.776 1.065 0.769" stroke="hsl(180.0,100%,35%)" stroke-width="0.00156"></path>
<path d="M1.232 0.849 Q1.801 0.803 1.835 0.515" stroke="hsl(180.0,100%,35%)" stroke-width="0.00078"></path>
<path d="M1.232 0.849 Q1.907 0.591 1.552 0.205" stroke="hsl(180.0,100%,35%)" stroke-width="0.00078"></path>
<path d="M1.232 0.849 Q1.945 0.629 1.672 0.233" stroke="hsl(180.0,100%,35%)" stroke-width="0.00078"></path>
<path d="M1.479 0.564 Q0.886 0.531 0.691 0.813" stroke="hsl(180.0,100%,35%)" stroke-width="0.00311"></path>
<path d="M1.479 0.564 Q1.127 0.657 1.232 0.849" stroke="hsl(180.0,100%,35%)" stroke-width="0.00311"></path>
<path d="M1.479 0.564 Q2.008 0.396 1.797 0.102" stroke="hsl(180.0,100%,35%)" stroke-width="0.00156"></path>
<path d="M1.479 0.564 Q1.268 0.264 0.636 0.301" stroke="hsl(180.0,100%,35%)" stroke-width="0.00156"></path>
<path d="M1.479 0.564 Q1.137 0.349 0.642 0.469" stroke="hsl(180.0,100%,35%)" stroke-width="0.00156"></path>
<path d="M1.479 0.564 Q1.398 0.633 1.515 0.687" stroke="hsl(180.0,100%,35%)" stroke-width="0.00078"></path>
<path d="M1.672 0.233 Q0.717 0.327 0.691 0.813" stroke="hsl(0.0,100%,35%)" stroke-width="0.00156"></path>
<path d="M1.672 0.233 Q0.959 0.453 1.232 0.849" stroke="hsl(0.0,100%,35%)" stroke-width="0.00078"></path>
<path d="M1.672 0.233 Q0.545 0.227 0.285 0.775" stroke="hsl(0.0,100%,35%)" stroke-width="0.00078"></path>
<path d="M0.691 0.813 Q1.678 0.763 1.797 0.271" stroke="hsl(180.0,100%,35%)" stroke-width="0.00233"></path>
<path d="M0.691 0.813 Q0.933 0.940 1.232 0.849" stroke="hsl(180.0,100%,35%)" stroke-width="0.00467"></path>
<path d="M0.691 0.813 Q0.898 0.809 0.936 0.708" stroke="hsl(180.0,100%,35%)" stroke-width="0.00156"></path>
<path d="M0.691 0.813 Q1.646 0.719 1.672 0.233" stroke="hsl(180.0,100%,35%)" stroke-width="0.00078"></path>
<path d="M0.691 0.813 Q0.519 0.713 0.285 0.775" stroke="hsl(180.0,100%,35%)" stroke-width="0.00078"></path>
<path d="M0.294 0.876 Q1.664 0.789 1.797 0.102" stroke="hsl(0.0,100%,35%)" stroke-width="0.00078"></path>
<path d="M0.294 0.876 Q0.370 0.824 0.285 0.775" stroke="hsl(0.0,100%,35%)" stroke-width="0.00078"></path>
<path d="M0.294 0.876 Q0.399 0.899 0.469 0.853" stroke="hsl(0.0,100%,35%)" stroke-width="0.00078"></path>
<path d="M0.469 0.853 Q0.439 0.778 0.285 0.775" stroke="hsl(0.0,100%,35%)" stroke-width="0.01011"></path>
<path d="M0.469 0.853 Q0.994 0.611 0.636 0.301" stroke="hsl(0.0,100%,35%)" stroke-width="0.00233"></path>
<path d="M0.469 0.853 Q1.052 0.696 0.872 0.377" stroke="hsl(0.0,100%,35%)" stroke-width="0.00078"></path>
<path d="M0.469 0.853 Q1.734 0.743 1.797 0.102" stroke="hsl(0.0,100%,35%)" stroke-width="0.00078"></path>
<path d="M0.496 0.955 Q0.563 0.899 0.469 0.853" stroke="hsl(0.0,100%,35%)" stroke-width="0.00389"></path>
<path d="M0.496 0.955 Q1.089 0.656 0.636 0.301" stroke="hsl(0.0,100%,35%)" stroke-width="0.00233"></path>
<path d="M0.496 0.955 Q0.958 0.741 0.642 0.469" stroke="hsl(0.0,100%,35%)" stroke-width="0.00078"></path>
<path d="M0.642 0.469 Q0.508 0.441 0.425 0.500" stroke="hsl(0.0,100%,35%)" stroke-width="0.01477"></path>
<path d="M0.642 0.469 Q0.830 0.469 0.872 0.377" stroke="hsl(0.0,100%,35%)" stroke-width="0.00078"></path>
<path d="M0.642 0.469 Q1.489 0.587 1.906 0.200" stroke="hsl(0.0,100%,35%)" stroke-width="0.00233"></path>
<path d="M0.642 0.469 Q0.773 0.384 0.636 0.301" stroke="hsl(0.0,100%,35%)" stroke-width="0.01555"></path>
<path d="M0.642 0.469 Q1.026 0.264 0.712 0.032" stroke="hsl(0.0,100%,35%)" stroke-width="0.00078"></path>
<path d="M0.642 0.469 Q0.633 0.777 1.232 0.849" stroke="hsl(0.0,100%,35%)" stroke-width="0.00078"></path>
<path d="M0.642 0.469 Q0.695 0.269 0.317 0.199" stroke="hsl(0.0,100%,35%)" stroke-width="0.00233"></path>
<path d="M0.642 0.469 Q0.218 0.551 0.285 0.775" stroke="hsl(0.0,100%,35%)" stroke-width="0.00855"></path>
<path d="M0.642 0.469 Q0.247 0.626 0.469 0.853" stroke="hsl(0.0,100%,35%)" stroke-width="0.00078"></path>
<path d="M0.642 0.469 Q1.513 0.516 1.797 0.102" stroke="hsl(0.0,100%,35%)" stroke-width="0.00078"></path>
<path d="M1.009 0.253 Q0.842 0.288 0.872 0.377" stroke="hsl(180.0,100%,35%)" stroke-width="0.00156"></path>
<path d="M1.009 0.253 Q0.915 0.571 1.515 0.687" stroke="hsl(180.0,100%,35%)" stroke-width="0.00389"></path>
<path d="M1.009 0.253 Q0.230 0.369 0.285 0.775" stroke="hsl(180.0,100%,35%)" stroke-width="0.00233"></path>
<path d="M1.009 0.253 Q1.524 0.335 1.797 0.102" stroke="hsl(180.0,100%,35%)" stroke-width="0.00389"></path>
<path d="M1.009 0.253 Q1.129 0.230 1.111 0.167" stroke="hsl(180.0,100%,35%)" stroke-width="0.00311"></path>
<path d="M1.009 0.253 Q0.996 0.502 1.479 0.564" stroke="hsl(180.0,100%,35%)" stroke-width="0.00078"></path>
<path d="M1.515 0.687 Q1.596 0.619 1.479 0.564" stroke="hsl(180.0,100%,35%)" stroke-width="0.01322"></path>
<path d="M1.515 0.687 Q1.244 0.712 1.232 0.849" stroke="hsl(180.0,100%,35%)" stroke-width="0.00233"></path>
<path d="M1.515 0.687 Q1.384 0.319 0.636 0.301" stroke="hsl(180.0,100%,35%)" stroke-width="0.00078"></path>
<path d="M1.515 0.687 Q1.729 0.346 1.111 0.167" stroke="hsl(180.0,100%,35%)" stroke-width="0.00311"></path>
<path d="M1.515 0.687 Q0.972 0.435 0.361 0.644" stroke="hsl(180.0,100%,35%)" stroke-width="0.00078"></path>
<path d="M1.515 0.687 Q0.830 0.485 0.285 0.775" stroke="hsl(180.0,100%,35%)" stroke-width="0.00078"></path>
<path d="M0.996 0.508 Q1.112 0.493 1.108 0.433" stroke="hsl(0.0,100%,35%)" stroke-width="0.00078"></path>
<path d="M0.996 0.508 Q0.427 0.499 0.285 0.775" stroke="hsl(0.0,100%,35%)" stroke-width="0.00078"></path>
<path d="M0.996 0.508 Q1.650 0.550 1.876 0.241" stroke="hsl(0.0,100%,35%)" stroke-width="0.00078"></path>
<path d="M1.629 0.912 Q1.666 0.844 1.540 0.810" stroke="hsl(0.0,100%,35%)" stroke-width="0.00700"></path>
<path d="M1.629 0.912 Q2.226 0.625 1.797 0.271" stroke="hsl(0.0,100%,35%)" stroke-width="0.00078"></path>
<path d="M1.629 0.912 Q1.357 0.465 0.425 0.500" stroke="hsl(0.0,100%,35%)" stroke-width="0.00233"></path>
<path d="M1.629 0.912 Q1.067 0.575 0.285 0.775" stroke="hsl(0.0,100%,35%)" stroke-width="0.00778"></path>
<path d="M1.629 0.912 Q1.210 0.525 0.361 0.644" stroke="hsl(0.0,100%,35%)" stroke-width="0.00233"></path>
<path d="M1.629 0.912 Q1.096 0.651 0.469 0.853" stroke="hsl(0.0,100%,35%)" stroke-width="0.00078"></path>
<path d="M1.629 0.912 Q1.239 0.675 0.691 0.813" stroke="hsl(0.0,100%,35%)" stroke-width="0.00078"></path>
<path d="M1.629 0.912 Q2.362 0.541 1.797 0.102" stroke="hsl(0.0,100%,35%)" stroke-width="0.00622"></path>
<path d="M1.629 0.912 Q1.621 0.408 0.636 0.301" stroke="hsl(0.0,100%,35%)" stroke-width="0.00156"></path>
<path d="M1.629 0.912 Q2.338 0.611 1.906 0.200" stroke="hsl(0.0,100%,35%)" stroke-width="0.00078"></path>
<path d="M0.425 0.500 Q0.559 0.528 0.642 0.469" stroke="hsl(0.0,100%,35%)" stroke-width="0.00778"></path>
<path d="M0.425 0.500 Q1.405 0.646 1.906 0.200" stroke="hsl(0.0,100%,35%)" stroke-width="0.00078"></path>
<path d="M0.425 0.500 Q0.747 0.528 0.872 0.377" stroke="hsl(0.0,100%,35%)" stroke-width="0.00078"></path>
<path d="M0.425 0.500 Q0.164 0.685 0.469 0.853" stroke="hsl(0.0,100%,35%)" stroke-width="0.00156"></path>
<path d="M0.425 0.500 Q0.689 0.443 0.636 0.301" stroke="hsl(0.0,100%,35%)" stroke-width="0.00544"></path>
<path d="M0.425 0.500 Q1.262 0.616 1.672 0.233" stroke="hsl(0.0,100%,35%)" stroke-width="0.00078"></path>
<path d="M0.425 0.500 Q0.697 0.947 1.629 0.912" stroke="hsl(0.0,100%,35%)" stroke-width="0.00156"></path>
<path d="M0.425 0.500 Q1.358 0.661 1.876 0.241" stroke="hsl(0.0,100%,35%)" stroke-width="0.00156"></path>
<path d="M0.425 0.500 Q0.307 0.710 0.691 0.813" stroke="hsl(0.0,100%,35%)" stroke-width="0.00078"></path>
<path d="M0.425 0.500 Q1.224 0.578 1.552 0.205" stroke="hsl(0.0,100%,35%)" stroke-width="0.00078"></path>
<path d="M0.425 0.500 Q0.549 0.836 1.232 0.849" stroke="hsl(0.0,100%,35%)" stroke-width="0.00078"></path>
<path d="M0.425 0.500 Q0.529 0.416 0.389 0.347" stroke="hsl(0.0,100%,35%)" stroke-width="0.00156"></path>
<path d="M0.425 0.500 Q0.611 0.328 0.317 0.199" stroke="hsl(0.0,100%,35%)" stroke-width="0.00078"></path>
<path d="M0.425 0.500 Q0.135 0.610 0.285 0.775" stroke="hsl(0.0,100%,35%)" stroke-width="0.00389"></path>
<path d="M0.425 0.500 Q0.576 0.590 0.784 0.535" stroke="hsl(0.0,100%,35%)" stroke-width="0.00078"></path>
<path d="M0.425 0.500 Q0.901 0.743 1.479 0.564" stroke="hsl(0.0,100%,35%)" stroke-width="0.00078"></path>
<path d="M0.425 0.500 Q0.464 0.609 0.685 0.614" stroke="hsl(0.0,100%,35%)" stroke-width="0.00233"></path>
<path d="M0.382 0.629 Q0.217 0.683 0.285 0.775" stroke="hsl(0.0,100%,35%)" stroke-width="0.02644"></path>
<path d="M0.382 0.629 Q0.771 0.516 0.636 0.301" stroke="hsl(0.0,100%,35%)" stroke-width="0.01244"></path>
<path d="M0.382 0.629 Q0.640 0.601 0.642 0.469" stroke="hsl(0.0,100%,35%)" stroke-width="0.00078"></path>
<path d="M0.382 0.629 Q1.439 0.734 1.876 0.241" stroke="hsl(0.0,100%,35%)" stroke-width="0.00078"></path>
<path d="M0.382 0.629 Q1.511 0.648 1.797 0.102" stroke="hsl(0.0,100%,35%)" stroke-width="0.01477"></path>
<path d="M0.382 0.629 Q1.125 0.688 1.403 0.338" stroke="hsl(0.0,100%,35%)" stroke-width="0.00078"></path>
<path d="M0.382 0.629 Q0.507 0.573 0.425 0.500" stroke="hsl(0.0,100%,35%)" stroke-width="0.00078"></path>
<path d="M1.738 0.765 Q2.131 0.486 1.672 0.233" stroke="hsl(180.0,100%,35%)" stroke-width="0.00078"></path>
<path d="M1.738 0.765 Q1.770 0.613 1.479 0.564" stroke="hsl(180.0,100%,35%)" stroke-width="0.00156"></path>
<path d="M1.738 0.765 Q1.566 0.817 1.629 0.912" stroke="hsl(180.0,100%,35%)" stroke-width="0.00078"></path>
<path d="M1.738 0.765 Q1.176 0.580 0.691 0.813" stroke="hsl(180.0,100%,35%)" stroke-width="0.00156"></path>
<path d="M1.738 0.765 Q2.093 0.448 1.552 0.205" stroke="hsl(180.0,100%,35%)" stroke-width="0.00078"></path>
<path d="M1.738 0.765 Q1.616 0.398 0.872 0.377" stroke="hsl(180.0,100%,35%)" stroke-width="0.00078"></path>
<path d="M1.738 0.765 Q1.689 0.682 1.515 0.687" stroke="hsl(180.0,100%,35%)" stroke-width="0.00311"></path>
<path d="M1.738 0.765 Q1.558 0.313 0.636 0.301" stroke="hsl(180.0,100%,35%)" stroke-width="0.00156"></path>
<path d="M1.738 0.765 Q1.729 0.856 1.903 0.880" stroke="hsl(180.0,100%,35%)" stroke-width="0.00078"></path>
<path d="M1.738 0.765 Q1.004 0.480 0.285 0.775" stroke="hsl(180.0,100%,35%)" stroke-width="0.00311"></path>
<path d="M1.862 0.284 Q1.976 0.180 1.797 0.102" stroke="hsl(180.0,100%,35%)" stroke-width="0.00078"></path>
<path d="M1.862 0.284 Q0.889 0.222 0.553 0.683" stroke="hsl(180.0,100%,35%)" stroke-width="0.00078"></path>
<path d="M1.862 0.284 Q1.096 0.441 1.232 0.849" stroke="hsl(180.0,100%,35%)" stroke-width="0.00078"></path>
<path d="M0.553 0.683 Q0.346 0.676 0.285 0.775" stroke="hsl(0.0,100%,35%)" stroke-width="0.04510"></path>
<path d="M0.553 0.683 Q0.900 0.509 0.636 0.301" stroke="hsl(0.0,100%,35%)" stroke-width="0.01089"></path>
<path d="M0.553 0.683 Q0.908 1.013 1.629 0.912" stroke="hsl(0.0,100%,35%)" stroke-width="0.00156"></path>
<path d="M0.553 0.683 Q0.636 0.566 0.425 0.500" stroke="hsl(0.0,100%,35%)" stroke-width="0.00233"></path>
<path d="M0.553 0.683 Q0.784 0.481 0.439 0.324" stroke="hsl(0.0,100%,35%)" stroke-width="0.00156"></path>
<path d="M0.553 0.683 Q1.112 0.809 1.479 0.564" stroke="hsl(0.0,100%,35%)" stroke-width="0.00156"></path>
<path d="M0.553 0.683 Q1.640 0.641 1.797 0.102" stroke="hsl(0.0,100%,35%)" stroke-width="0.01011"></path>
<path d="M0.553 0.683 Q0.760 0.902 1.232 0.849" stroke="hsl(0.0,100%,35%)" stroke-width="0.00467"></path>
<path d="M0.553 0.683 Q0.375 0.751 0.469 0.853" stroke="hsl(0.0,100%,35%)" stroke-width="0.00933"></path>
<path d="M0.553 0.683 Q1.031 0.877 1.515 0.687" stroke="hsl(0.0,100%,35%)" stroke-width="0.00855"></path>
<path d="M0.553 0.683 Q0.518 0.776 0.691 0.813" stroke="hsl(0.0,100%,35%)" stroke-width="0.00156"></path>
<path d="M0.553 0.683 Q0.550 0.588 0.365 0.569" stroke="hsl(0.0,100%,35%)" stroke-width="0.00389"></path>
<path d="M0.553 0.683 Q0.488 0.625 0.361 0.644" stroke="hsl(0.0,100%,35%)" stroke-width="0.00467"></path>
<path d="M0.553 0.683 Q0.769 0.594 0.642 0.469" stroke="hsl(0.0,100%,35%)" stroke-width="0.00233"></path>
<path d="M0.553 0.683 Q0.822 0.394 0.317 0.199" stroke="hsl(0.0,100%,35%)" stroke-width="0.00233"></path>
<path d="M0.475 0.333 Q0.450 0.434 0.642 0.469" stroke="hsl(0.0,100%,35%)" stroke-width="0.00156"></path>
<path d="M0.475 0.333 Q0.580 0.349 0.636 0.301" stroke="hsl(0.0,100%,35%)" stroke-width="0.00311"></path>
<path d="M0.475 0.333 Q0.503 0.234 0.317 0.199" stroke="hsl(0.0,100%,35%)" stroke-width="0.00078"></path>
<path d="M0.475 0.333 Q0.925 0.377 1.111 0.167" stroke="hsl(0.0,100%,35%)" stroke-width="0.00078"></path>
<path d="M1.257 0.043 Q1.147 0.014 1.066 0.061" stroke="hsl(180.0,100%,35%)" stroke-width="0.00156"></path>
<path d="M1.257 0.043 Q0.952 0.348 1.479 0.564" stroke="hsl(180.0,100%,35%)" stroke-width="0.00544"></path>
<path d="M1.257 0.043 Q1.295 0.066 1.347 0.053" stroke="hsl(180.0,100%,35%)" stroke-width="0.00311"></path>
<path d="M0.439 0.324 Q1.296 0.484 1.797 0.102" stroke="hsl(0.0,100%,35%)" stroke-width="0.00078"></path>
<path d="M0.439 0.324 Q0.767 0.652 1.479 0.564" stroke="hsl(0.0,100%,35%)" stroke-width="0.00078"></path>
<path d="M0.439 0.324 Q0.555 0.352 0.636 0.301" stroke="hsl(0.0,100%,35%)" stroke-width="0.00389"></path>
<path d="M0.439 0.324 Q0.291 0.409 0.425 0.500" stroke="hsl(0.0,100%,35%)" stroke-width="0.00078"></path>
<path d="M0.439 0.324 Q0.144 0.469 0.361 0.644" stroke="hsl(0.0,100%,35%)" stroke-width="0.00078"></path>
<path d="M0.439 0.324 Q0.613 0.437 0.872 0.377" stroke="hsl(0.0,100%,35%)" stroke-width="0.00078"></path>
<path d="M0.439 0.324 Q0.425 0.437 0.642 0.469" stroke="hsl(0.0,100%,35%)" stroke-width="0.00078"></path>
<path d="M0.439 0.324 Q0.686 0.276 0.647 0.145" stroke="hsl(0.0,100%,35%)" stroke-width="0.00078"></path>
<path d="M1.708 0.273 Q1.207 0.158 0.872 0.377" stroke="hsl(0.0,100%,35%)" stroke-width="0.00078"></path>
<path d="M1.708 0.273 Q1.889 0.205 1.797 0.102" stroke="hsl(0.0,100%,35%)" stroke-width="0.00078"></path>
<path d="M1.708 0.273 Q0.595 0.239 0.285 0.775" stroke="hsl(0.0,100%,35%)" stroke-width="0.00078"></path>
<path d="M0.462 0.717 Q0.881 0.544 0.636 0.301" stroke="hsl(0.0,100%,35%)" stroke-width="0.00156"></path>
<path d="M0.462 0.717 Q0.327 0.711 0.285 0.775" stroke="hsl(0.0,100%,35%)" stroke-width="0.00233"></path>
<path d="M0.462 0.717 Q1.622 0.676 1.797 0.102" stroke="hsl(0.0,100%,35%)" stroke-width="0.00156"></path>
<path d="M1.835 0.515 Q1.291 0.140 0.439 0.324" stroke="hsl(180.0,100%,35%)" stroke-width="0.00233"></path>
<path d="M1.835 0.515 Q1.618 0.468 1.479 0.564" stroke="hsl(180.0,100%,35%)" stroke-width="0.00389"></path>
<path d="M1.835 0.515 Q1.025 0.436 0.691 0.813" stroke="hsl(180.0,100%,35%)" stroke-width="0.00156"></path>
<path d="M1.835 0.515 Q2.012 0.385 1.797 0.271" stroke="hsl(180.0,100%,35%)" stroke-width="0.00156"></path>
<path d="M1.835 0.515 Q0.852 0.335 0.285 0.775" stroke="hsl(180.0,100%,35%)" stroke-width="0.00078"></path>
<path d="M1.835 0.515 Q1.267 0.562 1.232 0.849" stroke="hsl(180.0,100%,35%)" stroke-width="0.00156"></path>
<path d="M1.835 0.515 Q1.942 0.304 1.552 0.205" stroke="hsl(180.0,100%,35%)" stroke-width="0.00078"></path>
<path d="M1.470 0.217 Q1.272 0.208 1.211 0.303" stroke="hsl(0.0,100%,35%)" stroke-width="0.00078"></path>
<path d="M1.470 0.217 Q0.431 0.259 0.285 0.775" stroke="hsl(0.0,100%,35%)" stroke-width="0.00078"></path>
<path d="M1.470 0.217 Q1.626 0.199 1.626 0.120" stroke="hsl(0.0,100%,35%)" stroke-width="0.00078"></path>
<path d="M1.404 0.903 Q1.632 0.817 1.515 0.687" stroke="hsl(180.0,100%,35%)" stroke-width="0.00078"></path>
<path d="M1.404 0.903 Q1.119 0.715 0.691 0.813" stroke="hsl(180.0,100%,35%)" stroke-width="0.00078"></path>
<path d="M1.404 0.903 Q1.361 0.841 1.232 0.849" stroke="hsl(180.0,100%,35%)" stroke-width="0.00078"></path>
<path d="M1.205 0.726 Q0.705 0.566 0.285 0.775" stroke="hsl(180.0,100%,35%)" stroke-width="0.00622"></path>
<path d="M1.205 0.726 Q1.865 0.616 1.797 0.271" stroke="hsl(180.0,100%,35%)" stroke-width="0.00078"></path>
<path d="M1.205 0.726 Q0.878 0.667 0.691 0.813" stroke="hsl(180.0,100%,35%)" stroke-width="0.00544"></path>
<path d="M1.205 0.726 Q1.120 0.793 1.232 0.849" stroke="hsl(180.0,100%,35%)" stroke-width="0.00700"></path>
<path d="M1.205 0.726 Q1.391 0.768 1.515 0.687" stroke="hsl(180.0,100%,35%)" stroke-width="0.00544"></path>
<path d="M1.205 0.726 Q1.471 0.700 1.479 0.564" stroke="hsl(180.0,100%,35%)" stroke-width="0.00233"></path>
<path d="M1.367 0.228 Q1.297 0.290 1.403 0.338" stroke="hsl(0.0,100%,35%)" stroke-width="0.00078"></path>
<path d="M1.367 0.228 Q1.583 0.226 1.626 0.120" stroke="hsl(0.0,100%,35%)" stroke-width="0.00078"></path>
<path d="M1.367 0.228 Q0.802 0.512 1.232 0.849" stroke="hsl(0.0,100%,35%)" stroke-width="0.00078"></path>
<path d="M1.812 0.379 Q2.026 0.237 1.797 0.102" stroke="hsl(0.0,100%,35%)" stroke-width="0.00233"></path>
<path d="M1.812 0.379 Q0.761 0.347 0.469 0.853" stroke="hsl(0.0,100%,35%)" stroke-width="0.00078"></path>
<path d="M1.812 0.379 Q1.859 0.278 1.672 0.233" stroke="hsl(0.0,100%,35%)" stroke-width="0.00156"></path>
<path d="M0.936 0.708 Q0.729 0.712 0.691 0.813" stroke="hsl(180.0,100%,35%)" stroke-width="0.02877"></path>
<path d="M0.936 0.708 Q1.851 0.577 1.797 0.102" stroke="hsl(180.0,100%,35%)" stroke-width="0.00078"></path>
<path d="M0.936 0.708 Q0.556 0.611 0.285 0.775" stroke="hsl(180.0,100%,35%)" stroke-width="0.00156"></path>
<path d="M0.936 0.708 Q1.646 0.580 1.552 0.205" stroke="hsl(180.0,100%,35%)" stroke-width="0.00078"></path>
<path d="M0.936 0.708 Q1.684 0.617 1.672 0.233" stroke="hsl(180.0,100%,35%)" stroke-width="0.00078"></path>
<path d="M1.379 0.176 Q1.467 0.290 1.708 0.273" stroke="hsl(0.0,100%,35%)" stroke-width="0.00078"></path>
<path d="M1.379 0.176 Q0.353 0.257 0.285 0.775" stroke="hsl(0.0,100%,35%)" stroke-width="0.00078"></path>
<path d="M1.379 0.176 Q1.548 0.197 1.626 0.120" stroke="hsl(0.0,100%,35%)" stroke-width="0.00311"></path>
<path d="M1.379 0.176 Q1.108 0.271 1.233 0.424" stroke="hsl(0.0,100%,35%)" stroke-width="0.00078"></path>
<path d="M1.379 0.176 Q1.262 0.262 1.403 0.338" stroke="hsl(0.0,100%,35%)" stroke-width="0.00078"></path>
<path d="M1.379 0.176 Q1.161 -0.029 0.712 0.032" stroke="hsl(0.0,100%,35%)" stroke-width="0.00078"></path>
<path d="M1.054 0.918 Q1.873 0.661 1.552 0.205" stroke="hsl(180.0,100%,35%)" stroke-width="0.00078"></path>
<path d="M1.054 0.918 Q1.550 0.826 1.479 0.564" stroke="hsl(180.0,100%,35%)" stroke-width="0.00078"></path>
<path d="M1.054 0.918 Q1.339 0.526 0.636 0.301" stroke="hsl(180.0,100%,35%)" stroke-width="0.00078"></path>
<path d="M1.054 0.918 Q0.957 0.793 0.691 0.813" stroke="hsl(180.0,100%,35%)" stroke-width="0.00078"></path>
<path d="M1.054 0.918 Q1.198 0.919 1.232 0.849" stroke="hsl(180.0,100%,35%)" stroke-width="0.00156"></path>
<path d="M1.054 0.918 Q2.079 0.658 1.797 0.102" stroke="hsl(180.0,100%,35%)" stroke-width="0.00078"></path>
<path d="M1.260 0.946 Q1.675 0.799 1.479 0.564" stroke="hsl(180.0,100%,35%)" stroke-width="0.00078"></path>
<path d="M1.260 0.946 Q1.323 0.892 1.232 0.849" stroke="hsl(180.0,100%,35%)" stroke-width="0.00156"></path>
<path d="M1.260 0.946 Q2.036 0.672 1.672 0.233" stroke="hsl(180.0,100%,35%)" stroke-width="0.00078"></path>
<path d="M0.370 0.241 Q0.455 0.324 0.636 0.301" stroke="hsl(0.0,100%,35%)" stroke-width="0.00156"></path>
<path d="M0.370 0.241 Q0.324 0.409 0.642 0.469" stroke="hsl(0.0,100%,35%)" stroke-width="0.00078"></path>
<path d="M0.370 0.241 Q0.295 0.298 0.389 0.347" stroke="hsl(0.0,100%,35%)" stroke-width="0.00078"></path>
<path d="M0.579 0.065 Q0.340 0.080 0.317 0.199" stroke="hsl(0.0,100%,35%)" stroke-width="0.00078"></path>
<path d="M0.579 0.065 Q0.288 0.279 0.642 0.469" stroke="hsl(0.0,100%,35%)" stroke-width="0.00078"></path>
<path d="M0.579 0.065 Q0.418 0.195 0.636 0.301" stroke="hsl(0.0,100%,35%)" stroke-width="0.00078"></path>
<path d="M0.579 0.065 Q-0.136 0.361 0.285 0.775" stroke="hsl(0.0,100%,35%)" stroke-width="0.00078"></path>
<path d="M1.314 0.418 Q1.245 0.424 1.242 0.459" stroke="hsl(0.0,100%,35%)" stroke-width="0.00156"></path>
<path d="M1.314 0.418 Q0.908 0.197 0.389 0.347" stroke="hsl(0.0,100%,35%)" stroke-width="0.00156"></path>
<path d="M1.314 0.418 Q1.466 0.483 1.628 0.423" stroke="hsl(0.0,100%,35%)" stroke-width="0.00078"></path>
<path d="M1.102 0.675 Q1.028 0.788 1.232 0.849" stroke="hsl(180.0,100%,35%)" stroke-width="0.00622"></path>
<path d="M1.102 0.675 Q1.741 0.568 1.672 0.233" stroke="hsl(180.0,100%,35%)" stroke-width="0.00078"></path>
<path d="M1.102 0.675 Q1.908 0.527 1.797 0.102" stroke="hsl(180.0,100%,35%)" stroke-width="0.00622"></path>
<path d="M1.102 0.675 Q0.614 0.562 0.285 0.775" stroke="hsl(180.0,100%,35%)" stroke-width="0.00233"></path>
<path d="M1.102 0.675 Q1.380 0.695 1.479 0.564" stroke="hsl(180.0,100%,35%)" stroke-width="0.00156"></path>
<path d="M1.102 0.675 Q0.786 0.662 0.691 0.813" stroke="hsl(180.0,100%,35%)" stroke-width="0.00078"></path>
<path d="M1.102 0.675 Q1.168 0.395 0.636 0.301" stroke="hsl(180.0,100%,35%)" stroke-width="0.00078"></path>
<path d="M0.212 0.884 Q0.335 0.844 0.285 0.775" stroke="hsl(0.0,100%,35%)" stroke-width="0.00078"></path>
<path d="M0.212 0.884 Q0.364 0.920 0.469 0.853" stroke="hsl(0.0,100%,35%)" stroke-width="0.00311"></path>
<path d="M0.212 0.884 Q1.630 0.810 1.797 0.102" stroke="hsl(0.0,100%,35%)" stroke-width="0.00156"></path>
<path d="M0.212 0.884 Q0.890 0.678 0.636 0.301" stroke="hsl(0.0,100%,35%)" stroke-width="0.00078"></path>
<path d="M1.294 0.193 Q0.902 0.234 0.897 0.434" stroke="hsl(0.0,100%,35%)" stroke-width="0.00078"></path>
<path d="M1.294 0.193 Q1.223 0.143 1.111 0.167" stroke="hsl(0.0,100%,35%)" stroke-width="0.00078"></path>
<path d="M1.294 0.193 Q0.653 0.282 0.685 0.614" stroke="hsl(0.0,100%,35%)" stroke-width="0.00078"></path>
<path d="M1.294 0.193 Q1.442 0.290 1.666 0.239" stroke="hsl(0.0,100%,35%)" stroke-width="0.00078"></path>
<path d="M0.143 0.669 Q1.424 0.716 1.797 0.102" stroke="hsl(0.0,100%,35%)" stroke-width="0.00078"></path>
<path d="M0.143 0.669 Q0.129 0.751 0.285 0.775" stroke="hsl(0.0,100%,35%)" stroke-width="0.00156"></path>
<path d="M0.143 0.669 Q0.159 0.826 0.469 0.853" stroke="hsl(0.0,100%,35%)" stroke-width="0.00078"></path>
<path d="M0.143 0.669 Q0.692 1.088 1.629 0.912" stroke="hsl(0.0,100%,35%)" stroke-width="0.00078"></path>
<path d="M0.813 0.156 Q0.477 0.278 0.642 0.469" stroke="hsl(0.0,100%,35%)" stroke-width="0.00078"></path>
<path d="M0.813 0.156 Q0.953 0.221 1.111 0.167" stroke="hsl(0.0,100%,35%)" stroke-width="0.00078"></path>
<path d="M0.813 0.156 Q0.608 0.193 0.636 0.301" stroke="hsl(0.0,100%,35%)" stroke-width="0.00078"></path>
<path d="M0.813 0.156 Q0.962 0.365 1.403 0.338" stroke="hsl(0.0,100%,35%)" stroke-width="0.00078"></path>
<path d="M0.813 0.156 Q0.054 0.360 0.285 0.775" stroke="hsl(0.0,100%,35%)" stroke-width="0.00078"></path>
<path d="M0.813 0.156 Q0.739 0.117 0.647 0.145" stroke="hsl(0.0,100%,35%)" stroke-width="0.00078"></path>
<path d="M0.813 0.156 Q0.666 0.278 0.872 0.377" stroke="hsl(0.0,100%,35%)" stroke-width="0.00078"></path>
<path d="M0.926 0.877 Q1.453 0.831 1.479 0.564" stroke="hsl(180.0,100%,35%)" stroke-width="0.00156"></path>
<path d="M0.926 0.877 Q1.241 0.531 0.636 0.301" stroke="hsl(180.0,100%,35%)" stroke-width="0.00233"></path>
<path d="M0.926 0.877 Q1.957 0.734 1.906 0.200" stroke="hsl(180.0,100%,35%)" stroke-width="0.00156"></path>
<path d="M0.926 0.877 Q0.859 0.798 0.691 0.813" stroke="hsl(180.0,100%,35%)" stroke-width="0.01866"></path>
<path d="M0.926 0.877 Q1.372 0.900 1.515 0.687" stroke="hsl(180.0,100%,35%)" stroke-width="0.00622"></path>
<path d="M0.926 0.877 Q1.066 0.794 0.936 0.708" stroke="hsl(180.0,100%,35%)" stroke-width="0.00467"></path>
<path d="M0.926 0.877 Q1.814 0.704 1.672 0.233" stroke="hsl(180.0,100%,35%)" stroke-width="0.00156"></path>
<path d="M0.926 0.877 Q0.687 0.698 0.285 0.775" stroke="hsl(180.0,100%,35%)" stroke-width="0.00389"></path>
<path d="M0.926 0.877 Q1.981 0.663 1.797 0.102" stroke="hsl(180.0,100%,35%)" stroke-width="0.00078"></path>
<path d="M0.926 0.877 Q1.101 0.924 1.232 0.849" stroke="hsl(180.0,100%,35%)" stroke-width="0.00078"></path>
<path d="M1.300 0.988 Q2.257 0.644 1.797 0.102" stroke="hsl(180.0,100%,35%)" stroke-width="0.00078"></path>
<path d="M1.300 0.988 Q1.377 0.905 1.232 0.849" stroke="hsl(180.0,100%,35%)" stroke-width="0.00156"></path>
<path d="M1.300 0.988 Q1.135 0.779 0.691 0.813" stroke="hsl(180.0,100%,35%)" stroke-width="0.00078"></path>
</g>
<text x="0.894" y="0.082" font-size="0.008366" fill="hsl(0.0,100%,20%)">abbyyeh</text>
<text x="0.285" y="0.740" font-size="0.070618" fill="hsl(0.0,100%,20%)">hta</text>
<text x="1.876" y="0.234" font-size="0.014490" fill="hsl(0.0,100%,20%)">kthelgason</text>
<text x="0.712" y="0.027" font-size="0.010246" fill="hsl(0.0,100%,20%)">peterhanspers</text>
<text x="1.211" y="0.294" font-size="0.016732" fill="hsl(0.0,100%,20%)">alessiob</text>
<text x="0.636" y="0.274" font-size="0.054380" fill="hsl(0.0,100%,20%)">mbonadei</text>
<text x="1.403" y="0.329" font-size="0.018233" fill="hsl(0.0,100%,20%)">henrik.lundin</text>
<text x="1.626" y="0.103" font-size="0.033983" fill="hsl(0.0,100%,20%)">jakobi</text>
<text x="1.111" y="0.159" font-size="0.015082" fill="hsl(180.0,100%,20%)">henrika</text>
<text x="1.233" y="0.421" font-size="0.005916" fill="hsl(0.0,100%,20%)">devicentepena</text>
<text x="1.666" y="0.233" font-size="0.013874" fill="hsl(0.0,100%,20%)">saza</text>
<text x="0.872" y="0.365" font-size="0.024747" fill="hsl(0.0,100%,20%)">tommi</text>
<text x="0.060" y="0.590" font-size="0.007245" fill="hsl(0.0,100%,20%)">andytamilo</text>
<text x="0.041" y="0.584" font-size="0.004183" fill="hsl(0.0,100%,20%)">deadbeef</text>
<text x="0.361" y="0.633" font-size="0.023663" fill="hsl(0.0,100%,20%)">jonaso</text>
<text x="1.347" y="0.046" font-size="0.012549" fill="hsl(180.0,100%,20%)">apehrson</text>
<text x="1.797" y="0.071" font-size="0.061049" fill="hsl(0.0,100%,20%)">danilchap</text>
<text x="1.232" y="0.829" font-size="0.040771" fill="hsl(180.0,100%,20%)">ssilkin</text>
<text x="1.479" y="0.546" font-size="0.036467" fill="hsl(180.0,100%,20%)">ilnik</text>
<text x="1.672" y="0.221" font-size="0.023663" fill="hsl(0.0,100%,20%)">asapersson</text>
<text x="0.691" y="0.791" font-size="0.044663" fill="hsl(180.0,100%,20%)">sprang</text>
<text x="0.294" y="0.872" font-size="0.007245" fill="hsl(0.0,100%,20%)">ayp</text>
<text x="0.469" y="0.835" font-size="0.035984" fill="hsl(0.0,100%,20%)">orphis</text>
<text x="0.496" y="0.948" font-size="0.013228" fill="hsl(0.0,100%,20%)">boivie</text>
<text x="0.642" y="0.448" font-size="0.040556" fill="hsl(0.0,100%,20%)">jleconte</text>
<text x="1.009" y="0.244" font-size="0.018707" fill="hsl(180.0,100%,20%)">brandstrom</text>
<text x="1.515" y="0.669" font-size="0.036706" fill="hsl(180.0,100%,20%)">hbos</text>
<text x="0.996" y="0.504" font-size="0.007245" fill="hsl(0.0,100%,20%)">bwwilliams</text>
<text x="1.108" y="0.431" font-size="0.004183" fill="hsl(0.0,100%,20%)">haysc</text>
<text x="0.897" y="0.429" font-size="0.009354" fill="hsl(0.0,100%,20%)">gustaf</text>
<text x="1.906" y="0.192" font-size="0.016201" fill="hsl(0.0,100%,20%)">titovartem</text>
<text x="0.685" y="0.608" font-size="0.011067" fill="hsl(0.0,100%,20%)">peah</text>
<text x="1.797" y="0.264" font-size="0.013228" fill="hsl(180.0,100%,20%)">philipel</text>
<text x="1.629" y="0.897" font-size="0.031581" fill="hsl(0.0,100%,20%)">perkj</text>
<text x="0.317" y="0.190" font-size="0.017747" fill="hsl(0.0,100%,20%)">jansson</text>
<text x="1.628" y="0.420" font-size="0.005916" fill="hsl(0.0,100%,20%)">magjed</text>
<text x="1.552" y="0.199" font-size="0.012549" fill="hsl(180.0,100%,20%)">brandtr</text>
<text x="1.945" y="0.228" font-size="0.005916" fill="hsl(0.0,100%,20%)">lndmrk</text>
<text x="0.389" y="0.340" font-size="0.014490" fill="hsl(0.0,100%,20%)">xalep</text>
<text x="0.425" y="0.482" font-size="0.035740" fill="hsl(0.0,100%,20%)">terelius</text>
<text x="0.382" y="0.611" font-size="0.035740" fill="hsl(0.0,100%,20%)">dorhen</text>
<text x="1.738" y="0.756" font-size="0.018707" fill="hsl(180.0,100%,20%)">eshr</text>
<text x="1.903" y="0.877" font-size="0.005916" fill="hsl(180.0,100%,20%)">olka</text>
<text x="1.862" y="0.281" font-size="0.007245" fill="hsl(180.0,100%,20%)">gaochun.dev</text>
<text x="0.553" y="0.658" font-size="0.050022" fill="hsl(0.0,100%,20%)">phancke</text>
<text x="0.475" y="0.327" font-size="0.011831" fill="hsl(0.0,100%,20%)">gavinmak</text>
<text x="1.257" y="0.036" font-size="0.015082" fill="hsl(180.0,100%,20%)">grulja</text>
<text x="1.066" y="0.058" font-size="0.005916" fill="hsl(180.0,100%,20%)">alcooper</text>
<text x="0.439" y="0.315" font-size="0.017247" fill="hsl(0.0,100%,20%)">handellm</text>
<text x="0.647" y="0.142" font-size="0.005916" fill="hsl(0.0,100%,20%)">stefan</text>
<text x="1.708" y="0.269" font-size="0.008366" fill="hsl(0.0,100%,20%)">herre</text>
<text x="0.462" y="0.712" font-size="0.011067" fill="hsl(0.0,100%,20%)">hocheung</text>
<text x="1.835" y="0.506" font-size="0.018707" fill="hsl(180.0,100%,20%)">kron</text>
<text x="0.467" y="0.586" font-size="0.004183" fill="hsl(0.0,100%,20%)">solenberg</text>
<text x="1.470" y="0.211" font-size="0.011831" fill="hsl(0.0,100%,20%)">tomasl</text>
<text x="1.404" y="0.899" font-size="0.007245" fill="hsl(180.0,100%,20%)">jianjun.zhu</text>
<text x="1.205" y="0.713" font-size="0.024747" fill="hsl(180.0,100%,20%)">jianlin.qiu</text>
<text x="1.367" y="0.224" font-size="0.007245" fill="hsl(0.0,100%,20%)">karllen.zheng</text>
<text x="1.812" y="0.374" font-size="0.010246" fill="hsl(0.0,100%,20%)">kinu</text>
<text x="0.936" y="0.693" font-size="0.029579" fill="hsl(180.0,100%,20%)">linderborg</text>
<text x="1.379" y="0.170" font-size="0.012549" fill="hsl(0.0,100%,20%)">lionelk</text>
<text x="1.054" y="0.913" font-size="0.011067" fill="hsl(180.0,100%,20%)">lishunbo</text>
<text x="1.260" y="0.942" font-size="0.008366" fill="hsl(180.0,100%,20%)">lynnworld7</text>
<text x="0.370" y="0.236" font-size="0.010246" fill="hsl(0.0,100%,20%)">mheikal</text>
<text x="0.579" y="0.061" font-size="0.008366" fill="hsl(0.0,100%,20%)">pareynolds</text>
<text x="1.540" y="0.804" font-size="0.012549" fill="hsl(0.0,100%,20%)">diepbp</text>
<text x="0.365" y="0.564" font-size="0.009354" fill="hsl(0.0,100%,20%)">davidben</text>
<text x="1.314" y="0.413" font-size="0.009354" fill="hsl(0.0,100%,20%)">ranvr</text>
<text x="1.242" y="0.456" font-size="0.005916" fill="hsl(0.0,100%,20%)">fabianbergmark</text>
<text x="1.102" y="0.665" font-size="0.020493" fill="hsl(180.0,100%,20%)">sergio.garcia.murillo</text>
<text x="0.212" y="0.878" font-size="0.011831" fill="hsl(0.0,100%,20%)">shigemasa7watanabe</text>
<text x="1.294" y="0.188" font-size="0.008366" fill="hsl(0.0,100%,20%)">silen</text>
<text x="1.208" y="0.909" font-size="0.004183" fill="hsl(180.0,100%,20%)">dwtan</text>
<text x="1.065" y="0.766" font-size="0.005916" fill="hsl(180.0,100%,20%)">marpan</text>
<text x="0.143" y="0.665" font-size="0.009354" fill="hsl(0.0,100%,20%)">sushin</text>
<text x="0.784" y="0.533" font-size="0.004183" fill="hsl(0.0,100%,20%)">mirtad</text>
<text x="0.813" y="0.150" font-size="0.011067" fill="hsl(0.0,100%,20%)">tikuta</text>
<text x="0.926" y="0.861" font-size="0.030739" fill="hsl(180.0,100%,20%)">vardar</text>
<text x="1.300" y="0.984" font-size="0.008366" fill="hsl(180.0,100%,20%)">yingying.ma</text>
</svg>
