<svg width="4000" height="2000" viewBox="-0.025 -0.025 2.05 1.05" xmlns="http://www.w3.org/2000/svg">
  <style>
    path {
      fill: none;
      stroke-linecap: round;
      stroke-opacity: 0.4;
    }

    text {
      text-anchor: middle;
      alignment-baseline: hanging;
    }
  </style>
  <g opacity="0.4">
<path d="M0.638 0.956 Q1.440 0.932 1.570 0.536" stroke="hsl(0.0,100%,35%)" stroke-width="0.00055"></path>
<path d="M0.638 0.956 Q0.975 0.748 0.643 0.537" stroke="hsl(0.0,100%,35%)" stroke-width="0.00055"></path>
<path d="M0.638 0.956 Q0.744 0.922 0.702 0.863" stroke="hsl(0.0,100%,35%)" stroke-width="0.00329"></path>
<path d="M0.638 0.956 Q1.140 0.956 1.252 0.712" stroke="hsl(0.0,100%,35%)" stroke-width="0.00329"></path>
<path d="M0.638 0.956 Q1.691 0.667 1.358 0.089" stroke="hsl(0.0,100%,35%)" stroke-width="0.00055"></path>
<path d="M0.702 0.863 Q0.952 0.501 0.299 0.299" stroke="hsl(0.0,100%,35%)" stroke-width="0.00110"></path>
<path d="M0.702 0.863 Q1.098 0.898 1.252 0.712" stroke="hsl(0.0,100%,35%)" stroke-width="0.00219"></path>
<path d="M0.702 0.863 Q1.219 1.014 1.626 0.794" stroke="hsl(0.0,100%,35%)" stroke-width="0.00110"></path>
<path d="M0.702 0.863 Q1.367 0.758 1.309 0.411" stroke="hsl(0.0,100%,35%)" stroke-width="0.00055"></path>
<path d="M0.702 0.863 Q0.596 0.897 0.638 0.956" stroke="hsl(0.0,100%,35%)" stroke-width="0.00055"></path>
<path d="M0.702 0.863 Q0.483 0.854 0.417 0.959" stroke="hsl(0.0,100%,35%)" stroke-width="0.00055"></path>
<path d="M1.252 0.712 Q1.203 0.785 1.337 0.825" stroke="hsl(0.0,100%,35%)" stroke-width="0.02140"></path>
<path d="M1.252 0.712 Q1.647 0.661 1.635 0.457" stroke="hsl(0.0,100%,35%)" stroke-width="0.00110"></path>
<path d="M1.252 0.712 Q1.332 0.608 1.147 0.546" stroke="hsl(0.0,100%,35%)" stroke-width="0.02030"></path>
<path d="M1.252 0.712 Q1.261 0.904 1.638 0.941" stroke="hsl(0.0,100%,35%)" stroke-width="0.00658"></path>
<path d="M1.252 0.712 Q1.531 0.616 1.405 0.458" stroke="hsl(0.0,100%,35%)" stroke-width="0.00110"></path>
<path d="M1.252 0.712 Q1.521 0.573 1.309 0.411" stroke="hsl(0.0,100%,35%)" stroke-width="0.00165"></path>
<path d="M1.252 0.712 Q1.372 0.525 1.034 0.425" stroke="hsl(0.0,100%,35%)" stroke-width="0.00165"></path>
<path d="M1.252 0.712 Q1.373 0.828 1.626 0.794" stroke="hsl(0.0,100%,35%)" stroke-width="0.00329"></path>
<path d="M1.252 0.712 Q1.436 0.245 0.567 0.053" stroke="hsl(0.0,100%,35%)" stroke-width="0.00165"></path>
<path d="M1.252 0.712 Q1.155 0.443 0.610 0.431" stroke="hsl(0.0,100%,35%)" stroke-width="0.00165"></path>
<path d="M1.252 0.712 Q1.550 0.816 1.818 0.693" stroke="hsl(0.0,100%,35%)" stroke-width="0.00219"></path>
<path d="M1.252 0.712 Q0.819 0.528 0.365 0.699" stroke="hsl(0.0,100%,35%)" stroke-width="0.00274"></path>
<path d="M1.252 0.712 Q0.855 0.678 0.702 0.863" stroke="hsl(0.0,100%,35%)" stroke-width="0.00055"></path>
<path d="M1.252 0.712 Q0.997 0.599 0.721 0.699" stroke="hsl(0.0,100%,35%)" stroke-width="0.00055"></path>
<path d="M1.252 0.712 Q0.893 0.451 0.305 0.569" stroke="hsl(0.0,100%,35%)" stroke-width="0.00165"></path>
<path d="M1.873 0.486 Q1.382 0.474 1.252 0.712" stroke="hsl(0.0,100%,35%)" stroke-width="0.00110"></path>
<path d="M1.873 0.486 Q2.068 0.358 1.861 0.234" stroke="hsl(0.0,100%,35%)" stroke-width="0.00055"></path>
<path d="M1.873 0.486 Q1.286 0.206 0.610 0.431" stroke="hsl(0.0,100%,35%)" stroke-width="0.00055"></path>
<path d="M0.610 0.431 Q0.706 0.700 1.252 0.712" stroke="hsl(0.0,100%,35%)" stroke-width="0.00768"></path>
<path d="M0.610 0.431 Q0.986 0.604 1.405 0.458" stroke="hsl(0.0,100%,35%)" stroke-width="0.00055"></path>
<path d="M0.610 0.431 Q0.703 0.359 0.582 0.298" stroke="hsl(0.0,100%,35%)" stroke-width="0.00055"></path>
<path d="M0.610 0.431 Q0.716 0.892 1.638 0.941" stroke="hsl(0.0,100%,35%)" stroke-width="0.00110"></path>
<path d="M0.610 0.431 Q0.787 0.596 1.147 0.546" stroke="hsl(0.0,100%,35%)" stroke-width="0.00274"></path>
<path d="M0.610 0.431 Q0.466 0.350 0.277 0.403" stroke="hsl(0.0,100%,35%)" stroke-width="0.00055"></path>
<path d="M0.610 0.431 Q0.913 0.757 1.616 0.681" stroke="hsl(0.0,100%,35%)" stroke-width="0.00055"></path>
<path d="M0.610 0.431 Q0.504 0.406 0.432 0.452" stroke="hsl(0.0,100%,35%)" stroke-width="0.00055"></path>
<path d="M0.610 0.431 Q0.976 0.561 1.309 0.411" stroke="hsl(0.0,100%,35%)" stroke-width="0.00055"></path>
<path d="M1.662 0.132 Q1.462 0.118 1.391 0.213" stroke="hsl(0.0,100%,35%)" stroke-width="0.00658"></path>
<path d="M1.662 0.132 Q1.200 0.398 1.616 0.681" stroke="hsl(0.0,100%,35%)" stroke-width="0.00110"></path>
<path d="M1.662 0.132 Q1.291 0.444 1.818 0.693" stroke="hsl(0.0,100%,35%)" stroke-width="0.00055"></path>
<path d="M1.662 0.132 Q1.263 0.201 1.309 0.411" stroke="hsl(0.0,100%,35%)" stroke-width="0.00055"></path>
<path d="M1.662 0.132 Q0.833 0.480 1.330 0.961" stroke="hsl(0.0,100%,35%)" stroke-width="0.00055"></path>
<path d="M1.662 0.132 Q0.993 0.340 1.252 0.712" stroke="hsl(0.0,100%,35%)" stroke-width="0.00055"></path>
<path d="M1.818 0.693 Q1.520 0.589 1.252 0.712" stroke="hsl(0.0,100%,35%)" stroke-width="0.00055"></path>
<path d="M1.818 0.693 Q1.641 0.705 1.626 0.794" stroke="hsl(0.0,100%,35%)" stroke-width="0.00055"></path>
<path d="M1.818 0.693 Q1.124 0.555 0.702 0.863" stroke="hsl(0.0,100%,35%)" stroke-width="0.00055"></path>
<path d="M1.818 0.693 Q1.424 0.321 0.610 0.431" stroke="hsl(0.0,100%,35%)" stroke-width="0.00055"></path>
<path d="M1.309 0.411 Q1.435 0.499 1.635 0.457" stroke="hsl(0.0,100%,35%)" stroke-width="0.00384"></path>
<path d="M1.309 0.411 Q0.879 0.690 1.330 0.961" stroke="hsl(0.0,100%,35%)" stroke-width="0.00274"></path>
<path d="M1.309 0.411 Q1.039 0.550 1.252 0.712" stroke="hsl(0.0,100%,35%)" stroke-width="0.00439"></path>
<path d="M1.309 0.411 Q0.643 0.516 0.702 0.863" stroke="hsl(0.0,100%,35%)" stroke-width="0.00110"></path>
<path d="M1.309 0.411 Q0.998 0.681 1.458 0.892" stroke="hsl(0.0,100%,35%)" stroke-width="0.00055"></path>
<path d="M1.309 0.411 Q0.875 0.341 0.643 0.537" stroke="hsl(0.0,100%,35%)" stroke-width="0.00110"></path>
<path d="M1.309 0.411 Q1.160 0.363 1.034 0.425" stroke="hsl(0.0,100%,35%)" stroke-width="0.00110"></path>
<path d="M1.309 0.411 Q1.381 0.592 1.750 0.596" stroke="hsl(0.0,100%,35%)" stroke-width="0.00110"></path>
<path d="M1.309 0.411 Q1.337 0.654 1.818 0.693" stroke="hsl(0.0,100%,35%)" stroke-width="0.00055"></path>
<path d="M1.309 0.411 Q1.224 0.083 0.567 0.053" stroke="hsl(0.0,100%,35%)" stroke-width="0.00274"></path>
<path d="M1.309 0.411 Q1.049 0.742 1.638 0.941" stroke="hsl(0.0,100%,35%)" stroke-width="0.00110"></path>
<path d="M1.309 0.411 Q1.120 0.446 1.147 0.546" stroke="hsl(0.0,100%,35%)" stroke-width="0.00055"></path>
<path d="M1.309 0.411 Q1.036 0.209 0.582 0.298" stroke="hsl(0.0,100%,35%)" stroke-width="0.00055"></path>
<path d="M1.330 0.961 Q1.886 0.770 1.635 0.457" stroke="hsl(0.0,100%,35%)" stroke-width="0.00165"></path>
<path d="M1.330 0.961 Q1.760 0.682 1.309 0.411" stroke="hsl(0.0,100%,35%)" stroke-width="0.00110"></path>
<path d="M1.330 0.961 Q0.801 0.670 0.117 0.864" stroke="hsl(0.0,100%,35%)" stroke-width="0.00055"></path>
<path d="M1.330 0.961 Q1.612 0.937 1.626 0.794" stroke="hsl(0.0,100%,35%)" stroke-width="0.00329"></path>
<path d="M1.330 0.961 Q1.500 1.013 1.638 0.941" stroke="hsl(0.0,100%,35%)" stroke-width="0.00384"></path>
<path d="M1.330 0.961 Q1.788 0.925 1.818 0.693" stroke="hsl(0.0,100%,35%)" stroke-width="0.00055"></path>
<path d="M1.330 0.961 Q1.449 0.952 1.458 0.892" stroke="hsl(0.0,100%,35%)" stroke-width="0.00055"></path>
<path d="M1.330 0.961 Q1.394 0.552 0.610 0.431" stroke="hsl(0.0,100%,35%)" stroke-width="0.00055"></path>
<path d="M1.330 0.961 Q1.571 0.717 1.147 0.546" stroke="hsl(0.0,100%,35%)" stroke-width="0.00165"></path>
<path d="M1.330 0.961 Q1.344 0.424 0.299 0.299" stroke="hsl(0.0,100%,35%)" stroke-width="0.00055"></path>
<path d="M1.330 0.961 Q1.490 0.821 1.252 0.712" stroke="hsl(0.0,100%,35%)" stroke-width="0.00055"></path>
<path d="M1.330 0.961 Q1.487 0.480 0.582 0.298" stroke="hsl(0.0,100%,35%)" stroke-width="0.00055"></path>
<path d="M1.330 0.961 Q1.697 0.878 1.616 0.681" stroke="hsl(0.0,100%,35%)" stroke-width="0.00055"></path>
<path d="M0.074 0.188 Q0.244 0.685 1.252 0.712" stroke="hsl(0.0,100%,35%)" stroke-width="0.00165"></path>
<path d="M0.074 0.188 Q0.428 0.219 0.567 0.053" stroke="hsl(0.0,100%,35%)" stroke-width="0.00055"></path>
<path d="M0.074 0.188 Q0.639 0.635 1.635 0.457" stroke="hsl(0.0,100%,35%)" stroke-width="0.00110"></path>
<path d="M0.074 0.188 Q0.097 0.289 0.299 0.299" stroke="hsl(0.0,100%,35%)" stroke-width="0.00110"></path>
<path d="M0.074 0.188 Q0.169 0.209 0.231 0.167" stroke="hsl(0.0,100%,35%)" stroke-width="0.00110"></path>
<path d="M0.074 0.188 Q0.324 0.581 1.147 0.546" stroke="hsl(0.0,100%,35%)" stroke-width="0.00110"></path>
<path d="M0.567 0.053 Q0.777 0.469 1.635 0.457" stroke="hsl(0.0,100%,35%)" stroke-width="0.00219"></path>
<path d="M0.567 0.053 Q0.222 0.660 1.330 0.961" stroke="hsl(0.0,100%,35%)" stroke-width="0.00055"></path>
<path d="M0.567 0.053 Q0.462 0.415 1.147 0.546" stroke="hsl(0.0,100%,35%)" stroke-width="0.00055"></path>
<path d="M0.567 0.053 Q0.507 0.569 1.503 0.712" stroke="hsl(0.0,100%,35%)" stroke-width="0.00055"></path>
<path d="M0.567 0.053 Q0.023 0.258 0.305 0.569" stroke="hsl(0.0,100%,35%)" stroke-width="0.00055"></path>
<path d="M0.567 0.053 Q0.382 0.519 1.252 0.712" stroke="hsl(0.0,100%,35%)" stroke-width="0.00055"></path>
<path d="M0.567 0.053 Q0.651 0.380 1.309 0.411" stroke="hsl(0.0,100%,35%)" stroke-width="0.00384"></path>
<path d="M1.635 0.457 Q1.240 0.508 1.252 0.712" stroke="hsl(0.0,100%,35%)" stroke-width="0.00329"></path>
<path d="M1.635 0.457 Q1.199 0.639 1.458 0.892" stroke="hsl(0.0,100%,35%)" stroke-width="0.00055"></path>
<path d="M1.635 0.457 Q1.509 0.369 1.309 0.411" stroke="hsl(0.0,100%,35%)" stroke-width="0.00494"></path>
<path d="M1.635 0.457 Q1.321 0.404 1.147 0.546" stroke="hsl(0.0,100%,35%)" stroke-width="0.00165"></path>
<path d="M1.635 0.457 Q0.624 0.465 0.417 0.959" stroke="hsl(0.0,100%,35%)" stroke-width="0.00055"></path>
<path d="M1.635 0.457 Q1.425 0.041 0.567 0.053" stroke="hsl(0.0,100%,35%)" stroke-width="0.00274"></path>
<path d="M1.635 0.457 Q1.249 0.700 1.638 0.941" stroke="hsl(0.0,100%,35%)" stroke-width="0.00165"></path>
<path d="M1.635 0.457 Q1.361 0.624 1.626 0.794" stroke="hsl(0.0,100%,35%)" stroke-width="0.00055"></path>
<path d="M1.635 0.457 Q1.165 0.031 0.231 0.167" stroke="hsl(0.0,100%,35%)" stroke-width="0.00055"></path>
<path d="M1.635 0.457 Q1.365 0.558 1.503 0.712" stroke="hsl(0.0,100%,35%)" stroke-width="0.00055"></path>
<path d="M1.635 0.457 Q1.255 0.001 0.280 0.086" stroke="hsl(0.0,100%,35%)" stroke-width="0.00055"></path>
<path d="M0.299 0.299 Q0.567 0.394 0.811 0.284" stroke="hsl(0.0,100%,35%)" stroke-width="0.00329"></path>
<path d="M0.299 0.299 Q0.841 0.646 1.635 0.457" stroke="hsl(0.0,100%,35%)" stroke-width="0.00055"></path>
<path d="M0.299 0.299 Q0.455 0.888 1.638 0.941" stroke="hsl(0.0,100%,35%)" stroke-width="0.00274"></path>
<path d="M0.299 0.299 Q0.442 0.355 0.582 0.298" stroke="hsl(0.0,100%,35%)" stroke-width="0.00329"></path>
<path d="M0.299 0.299 Q0.205 0.347 0.277 0.403" stroke="hsl(0.0,100%,35%)" stroke-width="0.00110"></path>
<path d="M0.299 0.299 Q0.567 0.812 1.626 0.794" stroke="hsl(0.0,100%,35%)" stroke-width="0.00165"></path>
<path d="M0.299 0.299 Q0.526 0.592 1.147 0.546" stroke="hsl(0.0,100%,35%)" stroke-width="0.00055"></path>
<path d="M1.147 0.546 Q1.307 0.552 1.355 0.475" stroke="hsl(0.0,100%,35%)" stroke-width="0.00494"></path>
<path d="M1.147 0.546 Q1.273 0.707 1.616 0.681" stroke="hsl(0.0,100%,35%)" stroke-width="0.00439"></path>
<path d="M1.147 0.546 Q1.462 0.599 1.635 0.457" stroke="hsl(0.0,100%,35%)" stroke-width="0.00494"></path>
<path d="M1.147 0.546 Q1.067 0.650 1.252 0.712" stroke="hsl(0.0,100%,35%)" stroke-width="0.03127"></path>
<path d="M1.147 0.546 Q1.188 0.766 1.626 0.794" stroke="hsl(0.0,100%,35%)" stroke-width="0.01207"></path>
<path d="M1.147 0.546 Q0.634 0.466 0.365 0.699" stroke="hsl(0.0,100%,35%)" stroke-width="0.00055"></path>
<path d="M1.147 0.546 Q1.018 0.723 1.337 0.825" stroke="hsl(0.0,100%,35%)" stroke-width="0.00055"></path>
<path d="M1.147 0.546 Q1.076 0.842 1.638 0.941" stroke="hsl(0.0,100%,35%)" stroke-width="0.00110"></path>
<path d="M1.147 0.546 Q0.970 0.381 0.610 0.431" stroke="hsl(0.0,100%,35%)" stroke-width="0.00055"></path>
<path d="M1.147 0.546 Q0.920 0.253 0.299 0.299" stroke="hsl(0.0,100%,35%)" stroke-width="0.00055"></path>
<path d="M1.147 0.546 Q0.826 0.300 0.277 0.403" stroke="hsl(0.0,100%,35%)" stroke-width="0.00055"></path>
<path d="M1.147 0.546 Q1.116 0.192 0.419 0.129" stroke="hsl(0.0,100%,35%)" stroke-width="0.00055"></path>
<path d="M1.425 0.430 Q1.508 0.485 1.635 0.457" stroke="hsl(0.0,100%,35%)" stroke-width="0.00219"></path>
<path d="M1.425 0.430 Q0.424 0.385 0.117 0.864" stroke="hsl(0.0,100%,35%)" stroke-width="0.00110"></path>
<path d="M1.425 0.430 Q1.382 0.397 1.309 0.411" stroke="hsl(0.0,100%,35%)" stroke-width="0.00055"></path>
<path d="M1.626 0.794 Q1.514 0.870 1.638 0.941" stroke="hsl(0.0,100%,35%)" stroke-width="0.01865"></path>
<path d="M1.626 0.794 Q1.345 0.818 1.330 0.961" stroke="hsl(0.0,100%,35%)" stroke-width="0.00604"></path>
<path d="M1.626 0.794 Q1.774 0.539 1.309 0.411" stroke="hsl(0.0,100%,35%)" stroke-width="0.00494"></path>
<path d="M1.626 0.794 Q1.901 0.628 1.635 0.457" stroke="hsl(0.0,100%,35%)" stroke-width="0.00878"></path>
<path d="M1.626 0.794 Q1.072 0.494 0.365 0.699" stroke="hsl(0.0,100%,35%)" stroke-width="0.00165"></path>
<path d="M1.626 0.794 Q1.505 0.678 1.252 0.712" stroke="hsl(0.0,100%,35%)" stroke-width="0.03456"></path>
<path d="M1.626 0.794 Q1.716 0.663 1.479 0.590" stroke="hsl(0.0,100%,35%)" stroke-width="0.00055"></path>
<path d="M1.626 0.794 Q1.803 0.782 1.818 0.693" stroke="hsl(0.0,100%,35%)" stroke-width="0.00713"></path>
<path d="M1.626 0.794 Q1.340 0.469 0.643 0.537" stroke="hsl(0.0,100%,35%)" stroke-width="0.00439"></path>
<path d="M1.626 0.794 Q1.464 0.810 1.458 0.892" stroke="hsl(0.0,100%,35%)" stroke-width="0.00274"></path>
<path d="M1.626 0.794 Q1.630 0.728 1.503 0.712" stroke="hsl(0.0,100%,35%)" stroke-width="0.00384"></path>
<path d="M1.626 0.794 Q1.586 0.574 1.147 0.546" stroke="hsl(0.0,100%,35%)" stroke-width="0.00274"></path>
<path d="M1.626 0.794 Q2.174 0.470 1.662 0.132" stroke="hsl(0.0,100%,35%)" stroke-width="0.00219"></path>
<path d="M1.626 0.794 Q0.816 0.527 0.117 0.864" stroke="hsl(0.0,100%,35%)" stroke-width="0.00219"></path>
<path d="M1.626 0.794 Q2.056 0.388 1.358 0.089" stroke="hsl(0.0,100%,35%)" stroke-width="0.00110"></path>
<path d="M1.626 0.794 Q1.109 0.644 0.702 0.863" stroke="hsl(0.0,100%,35%)" stroke-width="0.00110"></path>
<path d="M1.626 0.794 Q1.712 0.736 1.616 0.681" stroke="hsl(0.0,100%,35%)" stroke-width="0.00713"></path>
<path d="M1.626 0.794 Q1.554 0.220 0.419 0.129" stroke="hsl(0.0,100%,35%)" stroke-width="0.00165"></path>
<path d="M1.626 0.794 Q1.627 0.376 0.811 0.284" stroke="hsl(0.0,100%,35%)" stroke-width="0.00055"></path>
<path d="M1.626 0.794 Q1.846 0.720 1.750 0.596" stroke="hsl(0.0,100%,35%)" stroke-width="0.00055"></path>
<path d="M1.626 0.794 Q1.974 0.456 1.391 0.213" stroke="hsl(0.0,100%,35%)" stroke-width="0.00494"></path>
<path d="M1.626 0.794 Q1.626 0.491 1.034 0.425" stroke="hsl(0.0,100%,35%)" stroke-width="0.00055"></path>
<path d="M1.626 0.794 Q1.746 0.580 1.355 0.475" stroke="hsl(0.0,100%,35%)" stroke-width="0.00055"></path>
<path d="M1.626 0.794 Q1.359 0.281 0.299 0.299" stroke="hsl(0.0,100%,35%)" stroke-width="0.00274"></path>
<path d="M1.626 0.794 Q1.543 0.795 1.526 0.835" stroke="hsl(0.0,100%,35%)" stroke-width="0.00055"></path>
<path d="M1.626 0.794 Q1.457 0.752 1.337 0.825" stroke="hsl(0.0,100%,35%)" stroke-width="0.00494"></path>
<path d="M1.626 0.794 Q1.409 0.409 0.610 0.431" stroke="hsl(0.0,100%,35%)" stroke-width="0.00110"></path>
<path d="M1.626 0.794 Q1.742 0.856 1.889 0.814" stroke="hsl(0.0,100%,35%)" stroke-width="0.00055"></path>
<path d="M1.626 0.794 Q1.502 0.337 0.582 0.298" stroke="hsl(0.0,100%,35%)" stroke-width="0.00110"></path>
<path d="M1.638 0.941 Q1.468 0.890 1.330 0.961" stroke="hsl(0.0,100%,35%)" stroke-width="0.00768"></path>
<path d="M1.638 0.941 Q1.482 0.353 0.299 0.299" stroke="hsl(0.0,100%,35%)" stroke-width="0.00274"></path>
<path d="M1.638 0.941 Q1.679 0.971 1.746 0.957" stroke="hsl(0.0,100%,35%)" stroke-width="0.00439"></path>
<path d="M1.638 0.941 Q1.835 0.807 1.616 0.681" stroke="hsl(0.0,100%,35%)" stroke-width="0.00110"></path>
<path d="M1.638 0.941 Q2.024 0.699 1.635 0.457" stroke="hsl(0.0,100%,35%)" stroke-width="0.00384"></path>
<path d="M1.638 0.941 Q1.580 0.823 1.337 0.825" stroke="hsl(0.0,100%,35%)" stroke-width="0.00055"></path>
<path d="M1.638 0.941 Q1.629 0.749 1.252 0.712" stroke="hsl(0.0,100%,35%)" stroke-width="0.00768"></path>
<path d="M1.638 0.941 Q1.750 0.866 1.626 0.794" stroke="hsl(0.0,100%,35%)" stroke-width="0.00549"></path>
<path d="M1.638 0.941 Q1.388 0.400 0.277 0.403" stroke="hsl(0.0,100%,35%)" stroke-width="0.00055"></path>
<path d="M1.638 0.941 Q1.813 0.283 0.567 0.053" stroke="hsl(0.0,100%,35%)" stroke-width="0.00055"></path>
<path d="M1.638 0.941 Q1.532 0.481 0.610 0.431" stroke="hsl(0.0,100%,35%)" stroke-width="0.00055"></path>
<path d="M0.365 0.699 Q0.798 0.883 1.252 0.712" stroke="hsl(0.0,100%,35%)" stroke-width="0.00494"></path>
<path d="M0.365 0.699 Q0.983 0.416 0.567 0.053" stroke="hsl(0.0,100%,35%)" stroke-width="0.00055"></path>
<path d="M0.365 0.699 Q0.439 0.622 0.305 0.569" stroke="hsl(0.0,100%,35%)" stroke-width="0.00110"></path>
<path d="M0.365 0.699 Q0.402 0.848 0.702 0.863" stroke="hsl(0.0,100%,35%)" stroke-width="0.00055"></path>
<path d="M0.419 0.129 Q0.610 0.490 1.355 0.475" stroke="hsl(0.0,100%,35%)" stroke-width="0.00165"></path>
<path d="M0.419 0.129 Q0.485 0.193 0.624 0.174" stroke="hsl(0.0,100%,35%)" stroke-width="0.00055"></path>
<path d="M0.419 0.129 Q0.384 0.080 0.280 0.086" stroke="hsl(0.0,100%,35%)" stroke-width="0.00274"></path>
<path d="M0.419 0.129 Q0.205 0.378 0.643 0.537" stroke="hsl(0.0,100%,35%)" stroke-width="0.00055"></path>
<path d="M0.419 0.129 Q0.765 0.537 1.635 0.457" stroke="hsl(0.0,100%,35%)" stroke-width="0.00055"></path>
<path d="M0.419 0.129 Q0.466 0.167 0.550 0.153" stroke="hsl(0.0,100%,35%)" stroke-width="0.00110"></path>
<path d="M1.750 0.596 Q1.505 0.135 0.550 0.153" stroke="hsl(0.0,100%,35%)" stroke-width="0.00110"></path>
<path d="M1.750 0.596 Q1.649 0.457 1.355 0.475" stroke="hsl(0.0,100%,35%)" stroke-width="0.00165"></path>
<path d="M1.750 0.596 Q1.530 0.671 1.626 0.794" stroke="hsl(0.0,100%,35%)" stroke-width="0.03127"></path>
<path d="M1.750 0.596 Q1.408 0.554 1.252 0.712" stroke="hsl(0.0,100%,35%)" stroke-width="0.06255"></path>
<path d="M1.750 0.596 Q1.418 0.747 1.638 0.941" stroke="hsl(0.0,100%,35%)" stroke-width="0.00219"></path>
<path d="M1.750 0.596 Q1.688 0.458 1.405 0.458" stroke="hsl(0.0,100%,35%)" stroke-width="0.00165"></path>
<path d="M1.750 0.596 Q1.678 0.415 1.309 0.411" stroke="hsl(0.0,100%,35%)" stroke-width="0.00604"></path>
<path d="M1.750 0.596 Q1.405 0.214 0.582 0.298" stroke="hsl(0.0,100%,35%)" stroke-width="0.00384"></path>
<path d="M1.750 0.596 Q1.593 0.088 0.567 0.053" stroke="hsl(0.0,100%,35%)" stroke-width="0.00110"></path>
<path d="M1.750 0.596 Q1.804 0.504 1.635 0.457" stroke="hsl(0.0,100%,35%)" stroke-width="0.00768"></path>
<path d="M1.750 0.596 Q0.719 0.404 0.117 0.864" stroke="hsl(0.0,100%,35%)" stroke-width="0.00055"></path>
<path d="M1.750 0.596 Q1.360 0.628 1.337 0.825" stroke="hsl(0.0,100%,35%)" stroke-width="0.00878"></path>
<path d="M1.750 0.596 Q1.615 0.612 1.616 0.681" stroke="hsl(0.0,100%,35%)" stroke-width="0.00110"></path>
<path d="M1.750 0.596 Q1.367 0.686 1.458 0.892" stroke="hsl(0.0,100%,35%)" stroke-width="0.00055"></path>
<path d="M1.750 0.596 Q1.262 0.158 0.299 0.299" stroke="hsl(0.0,100%,35%)" stroke-width="0.00274"></path>
<path d="M1.750 0.596 Q1.529 0.368 1.034 0.425" stroke="hsl(0.0,100%,35%)" stroke-width="0.00055"></path>
<path d="M1.750 0.596 Q1.312 0.286 0.610 0.431" stroke="hsl(0.0,100%,35%)" stroke-width="0.00604"></path>
<path d="M1.750 0.596 Q1.049 0.294 0.305 0.569" stroke="hsl(0.0,100%,35%)" stroke-width="0.00274"></path>
<path d="M1.750 0.596 Q1.012 0.520 0.702 0.863" stroke="hsl(0.0,100%,35%)" stroke-width="0.00219"></path>
<path d="M1.750 0.596 Q1.708 0.530 1.570 0.536" stroke="hsl(0.0,100%,35%)" stroke-width="0.00110"></path>
<path d="M1.750 0.596 Q1.619 0.539 1.479 0.590" stroke="hsl(0.0,100%,35%)" stroke-width="0.00219"></path>
<path d="M1.750 0.596 Q1.489 0.451 1.147 0.546" stroke="hsl(0.0,100%,35%)" stroke-width="0.00165"></path>
<path d="M1.750 0.596 Q1.706 0.658 1.818 0.693" stroke="hsl(0.0,100%,35%)" stroke-width="0.00055"></path>
<path d="M1.750 0.596 Q1.960 0.265 1.358 0.089" stroke="hsl(0.0,100%,35%)" stroke-width="0.00219"></path>
<path d="M1.750 0.596 Q1.900 0.566 1.873 0.486" stroke="hsl(0.0,100%,35%)" stroke-width="0.00110"></path>
<path d="M1.750 0.596 Q0.793 0.511 0.417 0.959" stroke="hsl(0.0,100%,35%)" stroke-width="0.00055"></path>
<path d="M1.750 0.596 Q1.534 0.605 1.503 0.712" stroke="hsl(0.0,100%,35%)" stroke-width="0.00110"></path>
<path d="M1.750 0.596 Q1.244 0.346 0.643 0.537" stroke="hsl(0.0,100%,35%)" stroke-width="0.00055"></path>
<path d="M1.750 0.596 Q1.248 0.695 1.330 0.961" stroke="hsl(0.0,100%,35%)" stroke-width="0.00055"></path>
<path d="M1.750 0.596 Q1.835 0.218 1.117 0.093" stroke="hsl(0.0,100%,35%)" stroke-width="0.00055"></path>
<path d="M1.750 0.596 Q0.975 0.371 0.365 0.699" stroke="hsl(0.0,100%,35%)" stroke-width="0.00110"></path>
<path d="M1.034 0.425 Q0.914 0.612 1.252 0.712" stroke="hsl(0.0,100%,35%)" stroke-width="0.00055"></path>
<path d="M1.034 0.425 Q0.994 0.508 1.147 0.546" stroke="hsl(0.0,100%,35%)" stroke-width="0.00055"></path>
<path d="M1.034 0.425 Q0.517 0.578 0.702 0.863" stroke="hsl(0.0,100%,35%)" stroke-width="0.00055"></path>
<path d="M1.034 0.425 Q0.910 0.271 0.582 0.298" stroke="hsl(0.0,100%,35%)" stroke-width="0.00055"></path>
<path d="M1.337 0.825 Q1.385 0.751 1.252 0.712" stroke="hsl(0.0,100%,35%)" stroke-width="0.03018"></path>
<path d="M1.337 0.825 Q1.780 0.701 1.635 0.457" stroke="hsl(0.0,100%,35%)" stroke-width="0.00549"></path>
<path d="M1.337 0.825 Q1.465 0.647 1.147 0.546" stroke="hsl(0.0,100%,35%)" stroke-width="0.00439"></path>
<path d="M1.337 0.825 Q1.626 0.654 1.355 0.475" stroke="hsl(0.0,100%,35%)" stroke-width="0.00055"></path>
<path d="M1.337 0.825 Q1.239 0.355 0.299 0.299" stroke="hsl(0.0,100%,35%)" stroke-width="0.00219"></path>
<path d="M1.337 0.825 Q0.989 0.717 0.702 0.863" stroke="hsl(0.0,100%,35%)" stroke-width="0.00329"></path>
<path d="M1.337 0.825 Q1.225 0.892 1.330 0.961" stroke="hsl(0.0,100%,35%)" stroke-width="0.00055"></path>
<path d="M1.337 0.825 Q1.289 0.483 0.610 0.431" stroke="hsl(0.0,100%,35%)" stroke-width="0.00165"></path>
<path d="M1.337 0.825 Q1.394 0.944 1.638 0.941" stroke="hsl(0.0,100%,35%)" stroke-width="0.00165"></path>
<path d="M1.337 0.825 Q1.344 0.883 1.458 0.892" stroke="hsl(0.0,100%,35%)" stroke-width="0.00165"></path>
<path d="M1.337 0.825 Q1.220 0.542 0.643 0.537" stroke="hsl(0.0,100%,35%)" stroke-width="0.00110"></path>
<path d="M1.337 0.825 Q1.683 0.855 1.818 0.693" stroke="hsl(0.0,100%,35%)" stroke-width="0.00055"></path>
<path d="M1.337 0.825 Q1.507 0.449 0.811 0.284" stroke="hsl(0.0,100%,35%)" stroke-width="0.00055"></path>
<path d="M1.337 0.825 Q1.592 0.809 1.616 0.681" stroke="hsl(0.0,100%,35%)" stroke-width="0.00055"></path>
<path d="M1.337 0.825 Q1.506 0.868 1.626 0.794" stroke="hsl(0.0,100%,35%)" stroke-width="0.01207"></path>
<path d="M1.337 0.825 Q0.952 0.568 0.365 0.699" stroke="hsl(0.0,100%,35%)" stroke-width="0.00110"></path>
<path d="M1.337 0.825 Q1.654 0.612 1.309 0.411" stroke="hsl(0.0,100%,35%)" stroke-width="0.00110"></path>
<path d="M1.337 0.825 Q1.876 0.763 1.873 0.486" stroke="hsl(0.0,100%,35%)" stroke-width="0.00055"></path>
<path d="M0.582 0.298 Q0.537 0.712 1.337 0.825" stroke="hsl(0.0,100%,35%)" stroke-width="0.00055"></path>
<path d="M0.582 0.298 Q1.055 0.417 1.391 0.213" stroke="hsl(0.0,100%,35%)" stroke-width="0.00110"></path>
<path d="M0.582 0.298 Q0.189 0.604 0.702 0.863" stroke="hsl(0.0,100%,35%)" stroke-width="0.00110"></path>
<path d="M0.582 0.298 Q0.439 0.242 0.299 0.299" stroke="hsl(0.0,100%,35%)" stroke-width="0.00165"></path>
<path d="M0.582 0.298 Q0.153 0.455 0.365 0.699" stroke="hsl(0.0,100%,35%)" stroke-width="0.00110"></path>
<path d="M0.582 0.298 Q0.586 0.639 1.252 0.712" stroke="hsl(0.0,100%,35%)" stroke-width="0.00165"></path>
<path d="M0.280 0.086 Q0.362 0.174 0.550 0.153" stroke="hsl(0.0,100%,35%)" stroke-width="0.00055"></path>
<path d="M0.280 0.086 Q0.101 0.384 0.643 0.537" stroke="hsl(0.0,100%,35%)" stroke-width="0.00165"></path>
<path d="M0.280 0.086 Q0.661 0.543 1.635 0.457" stroke="hsl(0.0,100%,35%)" stroke-width="0.00055"></path>
<path d="M0.280 0.086 Q0.506 0.496 1.355 0.475" stroke="hsl(0.0,100%,35%)" stroke-width="0.00110"></path>
<path d="M0.280 0.086 Q0.315 0.136 0.419 0.129" stroke="hsl(0.0,100%,35%)" stroke-width="0.00329"></path>
<path d="M1.746 0.957 Q1.705 0.928 1.638 0.941" stroke="hsl(0.0,100%,35%)" stroke-width="0.00274"></path>
<path d="M1.746 0.957 Q2.164 0.514 1.391 0.213" stroke="hsl(0.0,100%,35%)" stroke-width="0.00055"></path>
<path d="M1.746 0.957 Q1.902 0.793 1.616 0.681" stroke="hsl(0.0,100%,35%)" stroke-width="0.00055"></path>
<path d="M1.117 0.093 Q1.241 0.140 1.358 0.089" stroke="hsl(0.0,100%,35%)" stroke-width="0.00165"></path>
<path d="M1.117 0.093 Q0.690 0.430 1.252 0.712" stroke="hsl(0.0,100%,35%)" stroke-width="0.00055"></path>
<path d="M1.117 0.093 Q0.293 0.395 0.702 0.863" stroke="hsl(0.0,100%,35%)" stroke-width="0.00055"></path>
<path d="M1.117 0.093 Q1.031 0.471 1.750 0.596" stroke="hsl(0.0,100%,35%)" stroke-width="0.00055"></path>
<path d="M0.305 0.569 Q0.745 0.726 1.147 0.546" stroke="hsl(0.0,100%,35%)" stroke-width="0.00055"></path>
<path d="M0.305 0.569 Q0.871 0.887 1.616 0.681" stroke="hsl(0.0,100%,35%)" stroke-width="0.00219"></path>
<path d="M0.305 0.569 Q0.664 0.830 1.252 0.712" stroke="hsl(0.0,100%,35%)" stroke-width="0.00274"></path>
<path d="M0.305 0.569 Q0.568 0.561 0.610 0.431" stroke="hsl(0.0,100%,35%)" stroke-width="0.00055"></path>
<path d="M0.743 0.409 Q0.755 0.662 1.252 0.712" stroke="hsl(0.0,100%,35%)" stroke-width="0.00439"></path>
<path d="M0.743 0.409 Q0.359 0.628 0.702 0.863" stroke="hsl(0.0,100%,35%)" stroke-width="0.00110"></path>
<path d="M0.743 0.409 Q0.962 0.720 1.616 0.681" stroke="hsl(0.0,100%,35%)" stroke-width="0.00055"></path>
<path d="M0.743 0.409 Q1.053 0.766 1.818 0.693" stroke="hsl(0.0,100%,35%)" stroke-width="0.00055"></path>
<path d="M0.743 0.409 Q0.659 0.394 0.610 0.431" stroke="hsl(0.0,100%,35%)" stroke-width="0.00329"></path>
<path d="M0.110 0.747 Q0.350 0.697 0.305 0.569" stroke="hsl(0.0,100%,35%)" stroke-width="0.00274"></path>
<path d="M0.110 0.747 Q0.709 0.958 1.252 0.712" stroke="hsl(0.0,100%,35%)" stroke-width="0.00274"></path>
<path d="M0.110 0.747 Q0.211 0.699 0.141 0.639" stroke="hsl(0.0,100%,35%)" stroke-width="0.00165"></path>
<path d="M0.110 0.747 Q0.276 0.774 0.365 0.699" stroke="hsl(0.0,100%,35%)" stroke-width="0.00219"></path>
<path d="M0.110 0.747 Q0.789 0.854 1.147 0.546" stroke="hsl(0.0,100%,35%)" stroke-width="0.00055"></path>
<path d="M0.110 0.747 Q0.830 1.074 1.626 0.794" stroke="hsl(0.0,100%,35%)" stroke-width="0.00165"></path>
<path d="M0.110 0.747 Q0.718 1.150 1.638 0.941" stroke="hsl(0.0,100%,35%)" stroke-width="0.00110"></path>
<path d="M0.110 0.747 Q1.378 0.750 1.662 0.132" stroke="hsl(0.0,100%,35%)" stroke-width="0.00055"></path>
<path d="M1.405 0.458 Q1.077 0.628 1.337 0.825" stroke="hsl(0.0,100%,35%)" stroke-width="0.00055"></path>
<path d="M1.405 0.458 Q1.125 0.554 1.252 0.712" stroke="hsl(0.0,100%,35%)" stroke-width="0.00274"></path>
<path d="M1.405 0.458 Q1.521 0.504 1.635 0.457" stroke="hsl(0.0,100%,35%)" stroke-width="0.00055"></path>
<path d="M1.405 0.458 Q1.206 0.450 1.147 0.546" stroke="hsl(0.0,100%,35%)" stroke-width="0.00274"></path>
<path d="M1.405 0.458 Q0.961 0.345 0.643 0.537" stroke="hsl(0.0,100%,35%)" stroke-width="0.00055"></path>
<path d="M0.721 0.699 Q0.543 0.628 0.365 0.699" stroke="hsl(0.0,100%,35%)" stroke-width="0.00329"></path>
<path d="M0.721 0.699 Q0.976 0.811 1.252 0.712" stroke="hsl(0.0,100%,35%)" stroke-width="0.00549"></path>
<path d="M0.721 0.699 Q1.245 0.672 1.309 0.411" stroke="hsl(0.0,100%,35%)" stroke-width="0.00110"></path>
<path d="M0.721 0.699 Q0.985 1.003 1.638 0.941" stroke="hsl(0.0,100%,35%)" stroke-width="0.00055"></path>
<path d="M0.721 0.699 Q1.467 0.823 1.873 0.486" stroke="hsl(0.0,100%,35%)" stroke-width="0.00110"></path>
<path d="M1.003 0.701 Q1.240 0.872 1.626 0.794" stroke="hsl(0.0,100%,35%)" stroke-width="0.00055"></path>
<path d="M1.003 0.701 Q0.430 0.605 0.117 0.864" stroke="hsl(0.0,100%,35%)" stroke-width="0.00055"></path>
<path d="M1.003 0.701 Q1.119 0.756 1.252 0.712" stroke="hsl(0.0,100%,35%)" stroke-width="0.00055"></path>
<path d="M1.003 0.701 Q1.022 0.487 0.610 0.431" stroke="hsl(0.0,100%,35%)" stroke-width="0.00055"></path>
<path d="M1.003 0.701 Q1.215 0.336 0.550 0.153" stroke="hsl(0.0,100%,35%)" stroke-width="0.00055"></path>
<path d="M1.003 0.701 Q1.359 0.658 1.355 0.475" stroke="hsl(0.0,100%,35%)" stroke-width="0.00055"></path>
<path d="M0.724 0.069 Q0.658 0.029 0.567 0.053" stroke="hsl(0.0,100%,35%)" stroke-width="0.00658"></path>
<path d="M0.724 0.069 Q0.869 0.445 1.635 0.457" stroke="hsl(0.0,100%,35%)" stroke-width="0.00604"></path>
<path d="M0.724 0.069 Q0.313 0.636 1.330 0.961" stroke="hsl(0.0,100%,35%)" stroke-width="0.00055"></path>
<path d="M1.373 0.497 Q1.092 0.654 1.337 0.825" stroke="hsl(0.0,100%,35%)" stroke-width="0.00055"></path>
<path d="M1.373 0.497 Q1.140 0.580 1.252 0.712" stroke="hsl(0.0,100%,35%)" stroke-width="0.00658"></path>
<path d="M1.373 0.497 Q1.221 0.476 1.147 0.546" stroke="hsl(0.0,100%,35%)" stroke-width="0.00604"></path>
<path d="M0.624 0.174 Q0.604 0.149 0.550 0.153" stroke="hsl(0.0,100%,35%)" stroke-width="0.00055"></path>
<path d="M0.624 0.174 Q0.749 0.471 1.355 0.475" stroke="hsl(0.0,100%,35%)" stroke-width="0.00055"></path>
<path d="M0.624 0.174 Q0.557 0.111 0.419 0.129" stroke="hsl(0.0,100%,35%)" stroke-width="0.00055"></path>
<path d="M0.948 0.969 Q1.306 0.901 1.252 0.712" stroke="hsl(0.0,100%,35%)" stroke-width="0.00055"></path>
<path d="M0.948 0.969 Q1.052 0.934 1.006 0.876" stroke="hsl(0.0,100%,35%)" stroke-width="0.00055"></path>
<path d="M0.948 0.969 Q1.315 1.093 1.638 0.941" stroke="hsl(0.0,100%,35%)" stroke-width="0.00055"></path>
<path d="M1.657 0.287 Q1.115 0.418 1.252 0.712" stroke="hsl(0.0,100%,35%)" stroke-width="0.00055"></path>
<path d="M1.657 0.287 Q1.510 0.368 1.635 0.457" stroke="hsl(0.0,100%,35%)" stroke-width="0.00110"></path>
<path d="M1.657 0.287 Q1.666 0.128 1.358 0.089" stroke="hsl(0.0,100%,35%)" stroke-width="0.00055"></path>
<path d="M1.657 0.287 Q1.073 0.550 1.458 0.892" stroke="hsl(0.0,100%,35%)" stroke-width="0.00055"></path>
<path d="M1.530 0.611 Q1.310 0.605 1.252 0.712" stroke="hsl(0.0,100%,35%)" stroke-width="0.00219"></path>
<path d="M1.530 0.611 Q1.391 0.502 1.147 0.546" stroke="hsl(0.0,100%,35%)" stroke-width="0.00165"></path>
<path d="M1.530 0.611 Q0.951 0.345 0.305 0.569" stroke="hsl(0.0,100%,35%)" stroke-width="0.00055"></path>
<path d="M1.530 0.611 Q1.214 0.337 0.610 0.431" stroke="hsl(0.0,100%,35%)" stroke-width="0.00055"></path>
<path d="M0.499 0.517 Q0.555 0.556 0.643 0.537" stroke="hsl(0.0,100%,35%)" stroke-width="0.00110"></path>
<path d="M0.499 0.517 Q0.720 0.765 1.252 0.712" stroke="hsl(0.0,100%,35%)" stroke-width="0.00110"></path>
<path d="M0.499 0.517 Q0.287 0.581 0.365 0.699" stroke="hsl(0.0,100%,35%)" stroke-width="0.00055"></path>
<path d="M0.499 0.517 Q0.800 0.661 1.147 0.546" stroke="hsl(0.0,100%,35%)" stroke-width="0.00055"></path>
<path d="M0.230 0.929 Q0.226 0.874 0.117 0.864" stroke="hsl(0.0,100%,35%)" stroke-width="0.00055"></path>
<path d="M0.230 0.929 Q0.840 0.548 0.231 0.167" stroke="hsl(0.0,100%,35%)" stroke-width="0.00055"></path>
<path d="M0.230 0.929 Q1.156 0.927 1.355 0.475" stroke="hsl(0.0,100%,35%)" stroke-width="0.00055"></path>
<path d="M0.230 0.929 Q0.996 0.921 1.147 0.546" stroke="hsl(0.0,100%,35%)" stroke-width="0.00055"></path>
<path d="M0.230 0.929 Q0.915 1.025 1.252 0.712" stroke="hsl(0.0,100%,35%)" stroke-width="0.00055"></path>
<path d="M0.230 0.929 Q1.311 0.974 1.635 0.457" stroke="hsl(0.0,100%,35%)" stroke-width="0.00055"></path>
<path d="M1.817 0.494 Q1.312 0.563 1.337 0.825" stroke="hsl(0.0,100%,35%)" stroke-width="0.00055"></path>
<path d="M1.817 0.494 Q1.360 0.490 1.252 0.712" stroke="hsl(0.0,100%,35%)" stroke-width="0.00055"></path>
<path d="M1.817 0.494 Q1.701 0.531 1.750 0.596" stroke="hsl(0.0,100%,35%)" stroke-width="0.00055"></path>
<path d="M0.581 0.611 Q0.220 0.752 0.417 0.959" stroke="hsl(0.0,100%,35%)" stroke-width="0.00055"></path>
<path d="M0.581 0.611 Q0.951 0.401 0.624 0.174" stroke="hsl(0.0,100%,35%)" stroke-width="0.00055"></path>
<path d="M0.581 0.611 Q1.504 0.588 1.662 0.132" stroke="hsl(0.0,100%,35%)" stroke-width="0.00055"></path>
<path d="M0.581 0.611 Q0.402 0.612 0.365 0.699" stroke="hsl(0.0,100%,35%)" stroke-width="0.00165"></path>
<path d="M0.581 0.611 Q0.832 0.454 0.582 0.298" stroke="hsl(0.0,100%,35%)" stroke-width="0.00055"></path>
<path d="M0.581 0.611 Q0.835 0.795 1.252 0.712" stroke="hsl(0.0,100%,35%)" stroke-width="0.00110"></path>
<path d="M0.581 0.611 Q0.689 0.399 0.299 0.299" stroke="hsl(0.0,100%,35%)" stroke-width="0.00110"></path>
<path d="M0.531 0.886 Q1.582 0.653 1.358 0.089" stroke="hsl(0.0,100%,35%)" stroke-width="0.00165"></path>
<path d="M0.531 0.886 Q1.031 0.943 1.252 0.712" stroke="hsl(0.0,100%,35%)" stroke-width="0.00055"></path>
<path d="M0.531 0.886 Q0.635 0.909 0.702 0.863" stroke="hsl(0.0,100%,35%)" stroke-width="0.00165"></path>
<path d="M1.133 0.592 Q1.097 0.676 1.252 0.712" stroke="hsl(0.0,100%,35%)" stroke-width="0.00219"></path>
<path d="M1.133 0.592 Q1.177 0.572 1.147 0.546" stroke="hsl(0.0,100%,35%)" stroke-width="0.00055"></path>
<path d="M1.133 0.592 Q1.438 0.717 1.750 0.596" stroke="hsl(0.0,100%,35%)" stroke-width="0.00055"></path>
<path d="M1.133 0.592 Q1.217 0.489 1.034 0.425" stroke="hsl(0.0,100%,35%)" stroke-width="0.00110"></path>
<path d="M0.456 0.250 Q0.606 0.338 0.811 0.284" stroke="hsl(0.0,100%,35%)" stroke-width="0.00549"></path>
<path d="M0.456 0.250 Q0.338 0.243 0.299 0.299" stroke="hsl(0.0,100%,35%)" stroke-width="0.00768"></path>
<path d="M0.456 0.250 Q0.484 0.640 1.252 0.712" stroke="hsl(0.0,100%,35%)" stroke-width="0.00110"></path>
<path d="M0.456 0.250 Q0.879 0.589 1.635 0.457" stroke="hsl(0.0,100%,35%)" stroke-width="0.00165"></path>
<path d="M0.456 0.250 Q0.605 0.756 1.626 0.794" stroke="hsl(0.0,100%,35%)" stroke-width="0.00110"></path>
<path d="M0.456 0.250 Q0.443 0.772 1.458 0.892" stroke="hsl(0.0,100%,35%)" stroke-width="0.00110"></path>
<path d="M0.125 0.175 Q0.465 0.727 1.616 0.681" stroke="hsl(0.0,100%,35%)" stroke-width="0.00055"></path>
<path d="M0.125 0.175 Q0.499 0.571 1.355 0.475" stroke="hsl(0.0,100%,35%)" stroke-width="0.00055"></path>
<path d="M0.125 0.175 Q0.162 0.400 0.610 0.431" stroke="hsl(0.0,100%,35%)" stroke-width="0.00055"></path>
<path d="M0.125 0.175 Q0.184 0.192 0.231 0.167" stroke="hsl(0.0,100%,35%)" stroke-width="0.00055"></path>
<path d="M0.312 0.853 Q1.291 0.920 1.635 0.457" stroke="hsl(0.0,100%,35%)" stroke-width="0.00165"></path>
<path d="M0.312 0.853 Q0.206 0.820 0.117 0.864" stroke="hsl(0.0,100%,35%)" stroke-width="0.00110"></path>
<path d="M0.312 0.853 Q1.016 1.087 1.626 0.794" stroke="hsl(0.0,100%,35%)" stroke-width="0.00055"></path>
<path d="M0.312 0.853 Q0.499 0.936 0.702 0.863" stroke="hsl(0.0,100%,35%)" stroke-width="0.00055"></path>
</g>
<text x="0.638" y="0.948" font-size="0.014591" fill="hsl(0.0,100%,20%)">agpalak</text>
<text x="1.570" y="0.533" font-size="0.006318" fill="hsl(0.0,100%,20%)">eladalon</text>
<text x="0.643" y="0.529" font-size="0.016716" fill="hsl(0.0,100%,20%)">henrika</text>
<text x="0.702" y="0.851" font-size="0.024197" fill="hsl(0.0,100%,20%)">ilnik</text>
<text x="1.252" y="0.669" font-size="0.085782" fill="hsl(0.0,100%,20%)">hta</text>
<text x="1.358" y="0.082" font-size="0.013649" fill="hsl(0.0,100%,20%)">alcooper</text>
<text x="1.873" y="0.480" font-size="0.010944" fill="hsl(0.0,100%,20%)">boivie</text>
<text x="1.861" y="0.233" font-size="0.003648" fill="hsl(0.0,100%,20%)">lndmrk</text>
<text x="0.610" y="0.417" font-size="0.028491" fill="hsl(0.0,100%,20%)">jonaso</text>
<text x="1.662" y="0.123" font-size="0.017871" fill="hsl(0.0,100%,20%)">brandtr</text>
<text x="1.391" y="0.204" font-size="0.017871" fill="hsl(0.0,100%,20%)">asapersson</text>
<text x="1.616" y="0.670" font-size="0.022189" fill="hsl(0.0,100%,20%)">jakobi</text>
<text x="1.818" y="0.684" font-size="0.018955" fill="hsl(0.0,100%,20%)">philipel</text>
<text x="1.309" y="0.394" font-size="0.034220" fill="hsl(0.0,100%,20%)">jleconte</text>
<text x="1.330" y="0.946" font-size="0.029183" fill="hsl(0.0,100%,20%)">terelius</text>
<text x="0.074" y="0.181" font-size="0.012636" fill="hsl(0.0,100%,20%)">daniel.l</text>
<text x="0.567" y="0.040" font-size="0.024741" fill="hsl(0.0,100%,20%)">jansson</text>
<text x="1.635" y="0.436" font-size="0.042227" fill="hsl(0.0,100%,20%)">mbonadei</text>
<text x="0.299" y="0.284" font-size="0.030081" fill="hsl(0.0,100%,20%)">sprang</text>
<text x="0.231" y="0.163" font-size="0.008157" fill="hsl(0.0,100%,20%)">zlep</text>
<text x="1.147" y="0.519" font-size="0.052483" fill="hsl(0.0,100%,20%)">tommi</text>
<text x="1.425" y="0.425" font-size="0.009651" fill="hsl(0.0,100%,20%)">danieltwhite</text>
<text x="0.117" y="0.858" font-size="0.012636" fill="hsl(0.0,100%,20%)">kthelgason</text>
<text x="1.626" y="0.759" font-size="0.070451" fill="hsl(0.0,100%,20%)">danilchap</text>
<text x="1.638" y="0.919" font-size="0.044228" fill="hsl(0.0,100%,20%)">perkj</text>
<text x="0.365" y="0.687" font-size="0.023641" fill="hsl(0.0,100%,20%)">hbos</text>
<text x="1.479" y="0.586" font-size="0.008157" fill="hsl(0.0,100%,20%)">samvi</text>
<text x="1.458" y="0.885" font-size="0.014128" fill="hsl(0.0,100%,20%)">titovartem</text>
<text x="1.503" y="0.706" font-size="0.012099" fill="hsl(0.0,100%,20%)">xalep</text>
<text x="0.419" y="0.121" font-size="0.017871" fill="hsl(0.0,100%,20%)">saza</text>
<text x="0.811" y="0.276" font-size="0.015476" fill="hsl(0.0,100%,20%)">linderborg</text>
<text x="1.750" y="0.565" font-size="0.062441" fill="hsl(0.0,100%,20%)">phancke</text>
<text x="1.034" y="0.419" font-size="0.013152" fill="hsl(0.0,100%,20%)">kron</text>
<text x="1.355" y="0.467" font-size="0.017494" fill="hsl(0.0,100%,20%)">peah</text>
<text x="1.526" y="0.834" font-size="0.003648" fill="hsl(0.0,100%,20%)">yinwa</text>
<text x="1.337" y="0.800" font-size="0.051070" fill="hsl(0.0,100%,20%)">eshr</text>
<text x="1.889" y="0.812" font-size="0.003648" fill="hsl(0.0,100%,20%)">magjed</text>
<text x="0.582" y="0.287" font-size="0.020955" fill="hsl(0.0,100%,20%)">ssilkin</text>
<text x="0.280" y="0.078" font-size="0.015901" fill="hsl(0.0,100%,20%)">devicentepena</text>
<text x="0.550" y="0.148" font-size="0.009651" fill="hsl(0.0,100%,20%)">gustaf</text>
<text x="1.746" y="0.950" font-size="0.014128" fill="hsl(0.0,100%,20%)">diepbp</text>
<text x="1.117" y="0.089" font-size="0.009651" fill="hsl(0.0,100%,20%)">grulja</text>
<text x="0.305" y="0.559" font-size="0.019303" fill="hsl(0.0,100%,20%)">guidou</text>
<text x="0.743" y="0.401" font-size="0.015476" fill="hsl(0.0,100%,20%)">helmern</text>
<text x="0.110" y="0.738" font-size="0.017871" fill="hsl(0.0,100%,20%)">herre</text>
<text x="0.141" y="0.636" font-size="0.006318" fill="hsl(0.0,100%,20%)">stefan</text>
<text x="1.405" y="0.450" font-size="0.015901" fill="hsl(0.0,100%,20%)">solenberg</text>
<text x="0.721" y="0.690" font-size="0.017110" fill="hsl(0.0,100%,20%)">philipp.hancke</text>
<text x="0.417" y="0.956" font-size="0.007296" fill="hsl(0.0,100%,20%)">henrik.lundin</text>
<text x="1.003" y="0.696" font-size="0.008935" fill="hsl(0.0,100%,20%)">joachimr</text>
<text x="0.277" y="0.399" font-size="0.008157" fill="hsl(0.0,100%,20%)">handellm</text>
<text x="0.432" y="0.451" font-size="0.003648" fill="hsl(0.0,100%,20%)">peterhanspers</text>
<text x="0.724" y="0.060" font-size="0.017871" fill="hsl(0.0,100%,20%)">jwata</text>
<text x="1.373" y="0.488" font-size="0.017871" fill="hsl(0.0,100%,20%)">lenakaplan</text>
<text x="0.624" y="0.170" font-size="0.008157" fill="hsl(0.0,100%,20%)">lionelk</text>
<text x="0.948" y="0.966" font-size="0.006318" fill="hsl(0.0,100%,20%)">marcinserwin</text>
<text x="1.006" y="0.874" font-size="0.003648" fill="hsl(0.0,100%,20%)">mflodman</text>
<text x="1.657" y="0.283" font-size="0.008157" fill="hsl(0.0,100%,20%)">mitchella</text>
<text x="1.530" y="0.605" font-size="0.010944" fill="hsl(0.0,100%,20%)">ortuno</text>
<text x="0.499" y="0.513" font-size="0.008935" fill="hsl(0.0,100%,20%)">qjw</text>
<text x="0.230" y="0.925" font-size="0.008935" fill="hsl(0.0,100%,20%)">rop</text>
<text x="1.817" y="0.490" font-size="0.006318" fill="hsl(0.0,100%,20%)">santoin351</text>
<text x="0.581" y="0.604" font-size="0.012099" fill="hsl(0.0,100%,20%)">shigemasa7watanabe</text>
<text x="0.531" y="0.882" font-size="0.009651" fill="hsl(0.0,100%,20%)">sunggch</text>
<text x="1.133" y="0.587" font-size="0.010318" fill="hsl(0.0,100%,20%)">tov</text>
<text x="0.456" y="0.239" font-size="0.020955" fill="hsl(0.0,100%,20%)">vardar</text>
<text x="0.125" y="0.171" font-size="0.007296" fill="hsl(0.0,100%,20%)">wilhelmsson</text>
<text x="0.312" y="0.848" font-size="0.009651" fill="hsl(0.0,100%,20%)">yura.yaroshevich</text>
</svg>
