<svg width="4000" height="2000" viewBox="-0.025 -0.025 2.05 1.05" xmlns="http://www.w3.org/2000/svg">
  <style>
    path {
      fill: none;
      stroke-linecap: round;
      stroke-opacity: 0.4;
    }

    text {
      text-anchor: middle;
      alignment-baseline: hanging;
    }
  </style>
  <g opacity="0.4">
<path d="M0.250 0.801 Q0.159 0.863 0.260 0.921" stroke="hsl(0.0,100%,35%)" stroke-width="0.03030"></path>
<path d="M0.250 0.801 Q1.163 0.636 1.042 0.154" stroke="hsl(0.0,100%,35%)" stroke-width="0.00758"></path>
<path d="M0.250 0.801 Q0.482 0.807 0.546 0.696" stroke="hsl(0.0,100%,35%)" stroke-width="0.00758"></path>
<path d="M0.546 0.696 Q0.626 0.635 0.524 0.582" stroke="hsl(240.0,100%,35%)" stroke-width="0.05303"></path>
<path d="M0.546 0.696 Q0.809 0.618 0.716 0.473" stroke="hsl(240.0,100%,35%)" stroke-width="0.01515"></path>
<path d="M0.546 0.696 Q0.459 0.530 0.116 0.536" stroke="hsl(240.0,100%,35%)" stroke-width="0.00758"></path>
<path d="M0.546 0.696 Q1.009 0.468 0.666 0.192" stroke="hsl(240.0,100%,35%)" stroke-width="0.01515"></path>
<path d="M0.546 0.696 Q1.175 0.820 1.555 0.540" stroke="hsl(240.0,100%,35%)" stroke-width="0.00758"></path>
<path d="M0.368 0.273 Q0.582 0.292 0.666 0.192" stroke="hsl(120.0,100%,35%)" stroke-width="0.02273"></path>
<path d="M0.368 0.273 Q0.800 0.348 1.042 0.154" stroke="hsl(120.0,100%,35%)" stroke-width="0.02273"></path>
<path d="M0.368 0.273 Q0.448 0.307 0.532 0.276" stroke="hsl(120.0,100%,35%)" stroke-width="0.00758"></path>
<path d="M0.368 0.273 Q0.410 0.150 0.180 0.104" stroke="hsl(120.0,100%,35%)" stroke-width="0.00758"></path>
<path d="M0.368 0.273 Q0.748 0.643 1.555 0.540" stroke="hsl(120.0,100%,35%)" stroke-width="0.00758"></path>
<path d="M0.368 0.273 Q0.296 0.332 0.397 0.381" stroke="hsl(120.0,100%,35%)" stroke-width="0.00758"></path>
<path d="M0.666 0.192 Q0.885 0.248 1.042 0.154" stroke="hsl(120.0,100%,35%)" stroke-width="0.03030"></path>
<path d="M0.666 0.192 Q0.466 0.342 0.716 0.473" stroke="hsl(120.0,100%,35%)" stroke-width="0.00758"></path>
<path d="M0.666 0.192 Q0.453 0.173 0.368 0.273" stroke="hsl(120.0,100%,35%)" stroke-width="0.01515"></path>
<path d="M0.666 0.192 Q0.941 0.682 1.956 0.656" stroke="hsl(120.0,100%,35%)" stroke-width="0.00758"></path>
<path d="M0.666 0.192 Q0.203 0.420 0.546 0.696" stroke="hsl(120.0,100%,35%)" stroke-width="0.01515"></path>
<path d="M0.666 0.192 Q0.229 0.570 0.869 0.866" stroke="hsl(120.0,100%,35%)" stroke-width="0.00758"></path>
<path d="M0.869 0.866 Q0.844 0.716 0.546 0.696" stroke="hsl(240.0,100%,35%)" stroke-width="0.01515"></path>
<path d="M0.869 0.866 Q1.173 0.503 0.532 0.276" stroke="hsl(240.0,100%,35%)" stroke-width="0.00758"></path>
<path d="M0.869 0.866 Q1.307 0.489 0.666 0.192" stroke="hsl(240.0,100%,35%)" stroke-width="0.00758"></path>
<path d="M1.281 0.890 Q1.069 0.646 0.546 0.696" stroke="hsl(240.0,100%,35%)" stroke-width="0.02273"></path>
<path d="M1.281 0.890 Q1.398 0.433 0.532 0.276" stroke="hsl(240.0,100%,35%)" stroke-width="0.00758"></path>
<path d="M1.281 0.890 Q1.208 0.704 0.829 0.699" stroke="hsl(240.0,100%,35%)" stroke-width="0.01515"></path>
<path d="M1.855 0.840 Q1.945 0.630 1.555 0.540" stroke="hsl(120.0,100%,35%)" stroke-width="0.01515"></path>
<path d="M1.855 0.840 Q1.316 0.506 0.546 0.696" stroke="hsl(120.0,100%,35%)" stroke-width="0.01515"></path>
<path d="M1.855 0.840 Q2.053 0.768 1.956 0.656" stroke="hsl(120.0,100%,35%)" stroke-width="0.01515"></path>
</g>
<text x="0.250" y="0.777" font-size="0.046291" fill="hsl(0.0,100%,20%)">brandtr</text>
<text x="0.260" y="0.902" font-size="0.037796" fill="hsl(0.0,100%,20%)">asapersson</text>
<text x="1.042" y="0.128" font-size="0.053452" fill="hsl(120.0,100%,20%)">terelius</text>
<text x="0.546" y="0.650" font-size="0.090633" fill="hsl(240.0,100%,20%)">hta</text>
<text x="0.368" y="0.240" font-size="0.065465" fill="hsl(120.0,100%,20%)">danilchap</text>
<text x="0.666" y="0.153" font-size="0.077919" fill="hsl(120.0,100%,20%)">perkj</text>
<text x="0.532" y="0.259" font-size="0.032733" fill="hsl(240.0,100%,20%)">jleconte</text>
<text x="0.180" y="0.094" font-size="0.018898" fill="hsl(120.0,100%,20%)">mbonadei</text>
<text x="1.555" y="0.521" font-size="0.037796" fill="hsl(120.0,100%,20%)">hbos</text>
<text x="0.397" y="0.371" font-size="0.018898" fill="hsl(120.0,100%,20%)">eshr</text>
<text x="0.524" y="0.557" font-size="0.050000" fill="hsl(240.0,100%,20%)">tommi</text>
<text x="0.716" y="0.457" font-size="0.032733" fill="hsl(240.0,100%,20%)">jansson</text>
<text x="0.116" y="0.526" font-size="0.018898" fill="hsl(240.0,100%,20%)">guidou</text>
<text x="0.869" y="0.845" font-size="0.042258" fill="hsl(240.0,100%,20%)">jonaso</text>
<text x="1.956" y="0.639" font-size="0.032733" fill="hsl(120.0,100%,20%)">sprang</text>
<text x="1.281" y="0.867" font-size="0.046291" fill="hsl(240.0,100%,20%)">philipp.hancke</text>
<text x="0.829" y="0.686" font-size="0.026726" fill="hsl(240.0,100%,20%)">boivie</text>
<text x="1.855" y="0.817" font-size="0.046291" fill="hsl(120.0,100%,20%)">shigemasa7watanabe</text>
</svg>
