<svg width="4000" height="2000" viewBox="-0.025 -0.025 2.05 1.05" xmlns="http://www.w3.org/2000/svg">
  <style>
    path {
      fill: none;
      stroke-linecap: round;
      stroke-opacity: 0.4;
    }

    text {
      text-anchor: middle;
      alignment-baseline: hanging;
    }
  </style>
  <g opacity="0.4">
<path d="M0.996 0.696 Q1.114 0.767 1.278 0.725" stroke="hsl(0.0,100%,35%)" stroke-width="0.04286"></path>
<path d="M0.996 0.696 Q0.847 0.756 0.932 0.842" stroke="hsl(0.0,100%,35%)" stroke-width="0.04286"></path>
<path d="M0.996 0.696 Q1.584 0.773 1.865 0.504" stroke="hsl(0.0,100%,35%)" stroke-width="0.04286"></path>
<path d="M0.803 0.393 Q0.979 0.491 1.207 0.426" stroke="hsl(180.0,100%,35%)" stroke-width="0.04286"></path>
<path d="M0.803 0.393 Q0.794 0.457 0.917 0.475" stroke="hsl(180.0,100%,35%)" stroke-width="0.04286"></path>
<path d="M0.803 0.393 Q0.342 0.472 0.395 0.715" stroke="hsl(180.0,100%,35%)" stroke-width="0.04286"></path>
<path d="M0.803 0.393 Q1.187 0.345 1.177 0.147" stroke="hsl(180.0,100%,35%)" stroke-width="0.04286"></path>
</g>
<text x="0.996" y="0.650" font-size="0.092582" fill="hsl(0.0,100%,20%)">samomekarajr</text>
<text x="1.278" y="0.698" font-size="0.053452" fill="hsl(0.0,100%,20%)">almaher</text>
<text x="0.932" y="0.816" font-size="0.053452" fill="hsl(0.0,100%,20%)">javiercon</text>
<text x="1.865" y="0.477" font-size="0.053452" fill="hsl(0.0,100%,20%)">kbabbitt</text>
<text x="0.803" y="0.340" font-size="0.106904" fill="hsl(180.0,100%,20%)">wei4.wang</text>
<text x="1.207" y="0.400" font-size="0.053452" fill="hsl(180.0,100%,20%)">ajgo</text>
<text x="0.917" y="0.449" font-size="0.053452" fill="hsl(180.0,100%,20%)">ningxin.hu</text>
<text x="0.395" y="0.688" font-size="0.053452" fill="hsl(180.0,100%,20%)">phillis</text>
<text x="1.177" y="0.120" font-size="0.053452" fill="hsl(180.0,100%,20%)">rafael.cintron</text>
</svg>
