<svg width="4000" height="2000" viewBox="-0.025 -0.025 2.05 1.05" xmlns="http://www.w3.org/2000/svg">
  <style>
    path {
      fill: none;
      stroke-linecap: round;
      stroke-opacity: 0.4;
    }

    text {
      text-anchor: middle;
      alignment-baseline: hanging;
    }
  </style>
  <g opacity="0.4">
<path d="M0.285 0.377 Q0.251 0.434 0.354 0.463" stroke="hsl(0.0,100%,35%)" stroke-width="0.00443"></path>
<path d="M0.285 0.377 Q0.250 0.423 0.332 0.451" stroke="hsl(0.0,100%,35%)" stroke-width="0.00443"></path>
<path d="M0.285 0.377 Q0.265 0.450 0.403 0.476" stroke="hsl(0.0,100%,35%)" stroke-width="0.00443"></path>
<path d="M0.970 0.098 Q0.880 0.194 1.049 0.259" stroke="hsl(45.0,100%,35%)" stroke-width="0.00443"></path>
<path d="M0.970 0.098 Q0.816 0.108 0.801 0.185" stroke="hsl(45.0,100%,35%)" stroke-width="0.01772"></path>
<path d="M0.970 0.098 Q1.063 0.370 1.615 0.384" stroke="hsl(45.0,100%,35%)" stroke-width="0.00443"></path>
<path d="M0.970 0.098 Q1.028 0.297 1.429 0.312" stroke="hsl(45.0,100%,35%)" stroke-width="0.00886"></path>
<path d="M0.074 0.246 Q-0.265 0.463 0.083 0.676" stroke="hsl(90.0,100%,35%)" stroke-width="0.00886"></path>
<path d="M0.074 0.246 Q0.107 0.294 0.208 0.289" stroke="hsl(90.0,100%,35%)" stroke-width="0.00443"></path>
<path d="M0.074 0.246 Q0.304 0.271 0.403 0.164" stroke="hsl(90.0,100%,35%)" stroke-width="0.00886"></path>
<path d="M0.074 0.246 Q0.060 0.309 0.179 0.330" stroke="hsl(90.0,100%,35%)" stroke-width="0.00443"></path>
<path d="M0.074 0.246 Q0.175 0.637 0.959 0.673" stroke="hsl(90.0,100%,35%)" stroke-width="0.00443"></path>
<path d="M0.074 0.246 Q0.202 0.284 0.304 0.230" stroke="hsl(90.0,100%,35%)" stroke-width="0.00443"></path>
<path d="M0.959 0.673 Q1.112 0.710 1.217 0.643" stroke="hsl(45.0,100%,35%)" stroke-width="0.06644"></path>
<path d="M0.959 0.673 Q0.901 0.621 0.786 0.638" stroke="hsl(45.0,100%,35%)" stroke-width="0.00886"></path>
<path d="M0.959 0.673 Q1.055 0.611 0.956 0.551" stroke="hsl(45.0,100%,35%)" stroke-width="0.00443"></path>
<path d="M0.959 0.673 Q1.294 0.756 1.529 0.611" stroke="hsl(45.0,100%,35%)" stroke-width="0.00443"></path>
<path d="M0.959 0.673 Q1.037 0.611 0.933 0.560" stroke="hsl(45.0,100%,35%)" stroke-width="0.00443"></path>
<path d="M0.360 0.636 Q0.629 0.774 0.959 0.673" stroke="hsl(45.0,100%,35%)" stroke-width="0.00886"></path>
<path d="M0.360 0.636 Q0.190 0.600 0.083 0.676" stroke="hsl(45.0,100%,35%)" stroke-width="0.00443"></path>
<path d="M0.360 0.636 Q0.506 0.653 0.572 0.586" stroke="hsl(45.0,100%,35%)" stroke-width="0.00443"></path>
<path d="M1.633 0.048 Q1.630 0.098 1.727 0.110" stroke="hsl(135.0,100%,35%)" stroke-width="0.02215"></path>
<path d="M1.633 0.048 Q1.518 0.031 1.460 0.084" stroke="hsl(135.0,100%,35%)" stroke-width="0.01329"></path>
<path d="M1.633 0.048 Q1.548 0.052 1.536 0.094" stroke="hsl(135.0,100%,35%)" stroke-width="0.00886"></path>
<path d="M1.633 0.048 Q1.563 0.026 1.505 0.055" stroke="hsl(135.0,100%,35%)" stroke-width="0.00443"></path>
<path d="M1.684 0.246 Q1.612 0.166 1.439 0.183" stroke="hsl(45.0,100%,35%)" stroke-width="0.06644"></path>
<path d="M1.684 0.246 Q1.552 0.215 1.463 0.273" stroke="hsl(45.0,100%,35%)" stroke-width="0.01329"></path>
<path d="M1.684 0.246 Q1.504 0.228 1.429 0.312" stroke="hsl(45.0,100%,35%)" stroke-width="0.01329"></path>
<path d="M1.684 0.246 Q1.133 0.351 1.217 0.643" stroke="hsl(45.0,100%,35%)" stroke-width="0.00443"></path>
<path d="M1.684 0.246 Q1.594 0.427 1.927 0.511" stroke="hsl(45.0,100%,35%)" stroke-width="0.00443"></path>
<path d="M1.684 0.246 Q1.539 0.301 1.615 0.384" stroke="hsl(45.0,100%,35%)" stroke-width="0.00886"></path>
<path d="M1.439 0.183 Q1.511 0.264 1.684 0.246" stroke="hsl(45.0,100%,35%)" stroke-width="0.04872"></path>
<path d="M1.439 0.183 Q1.331 0.246 1.429 0.312" stroke="hsl(45.0,100%,35%)" stroke-width="0.00886"></path>
<path d="M1.439 0.183 Q1.367 0.319 1.615 0.384" stroke="hsl(45.0,100%,35%)" stroke-width="0.00443"></path>
<path d="M1.463 0.273 Q1.719 0.224 1.681 0.089" stroke="hsl(45.0,100%,35%)" stroke-width="0.00443"></path>
<path d="M1.463 0.273 Q1.440 0.329 1.544 0.353" stroke="hsl(45.0,100%,35%)" stroke-width="0.00443"></path>
<path d="M1.463 0.273 Q1.415 0.286 1.429 0.312" stroke="hsl(45.0,100%,35%)" stroke-width="0.00443"></path>
<path d="M1.927 0.511 Q1.614 0.648 1.812 0.830" stroke="hsl(45.0,100%,35%)" stroke-width="0.00443"></path>
<path d="M1.927 0.511 Q1.819 0.590 1.949 0.660" stroke="hsl(45.0,100%,35%)" stroke-width="0.02657"></path>
<path d="M1.927 0.511 Q2.017 0.330 1.684 0.246" stroke="hsl(45.0,100%,35%)" stroke-width="0.00886"></path>
<path d="M1.927 0.511 Q1.339 0.225 0.652 0.449" stroke="hsl(45.0,100%,35%)" stroke-width="0.00443"></path>
<path d="M1.927 0.511 Q1.945 0.250 1.439 0.183" stroke="hsl(45.0,100%,35%)" stroke-width="0.00886"></path>
<path d="M1.927 0.511 Q1.837 0.312 1.429 0.312" stroke="hsl(45.0,100%,35%)" stroke-width="0.00443"></path>
<path d="M1.279 0.747 Q1.355 0.757 1.392 0.722" stroke="hsl(180.0,100%,35%)" stroke-width="0.00443"></path>
<path d="M1.279 0.747 Q1.365 0.792 1.472 0.760" stroke="hsl(180.0,100%,35%)" stroke-width="0.00443"></path>
<path d="M1.279 0.747 Q1.160 0.723 1.088 0.775" stroke="hsl(180.0,100%,35%)" stroke-width="0.01329"></path>
<path d="M1.498 0.687 Q1.574 0.655 1.529 0.611" stroke="hsl(45.0,100%,35%)" stroke-width="0.00443"></path>
<path d="M1.498 0.687 Q1.745 0.763 1.949 0.660" stroke="hsl(45.0,100%,35%)" stroke-width="0.00886"></path>
<path d="M1.498 0.687 Q1.489 0.705 1.523 0.713" stroke="hsl(45.0,100%,35%)" stroke-width="0.00443"></path>
<path d="M1.949 0.660 Q1.853 0.596 1.707 0.629" stroke="hsl(45.0,100%,35%)" stroke-width="0.00443"></path>
<path d="M1.949 0.660 Q2.057 0.581 1.927 0.511" stroke="hsl(45.0,100%,35%)" stroke-width="0.00886"></path>
<path d="M1.949 0.660 Q1.877 0.555 1.657 0.567" stroke="hsl(45.0,100%,35%)" stroke-width="0.00443"></path>
<path d="M1.305 0.468 Q1.404 0.562 1.607 0.534" stroke="hsl(90.0,100%,35%)" stroke-width="0.00443"></path>
<path d="M1.305 0.468 Q1.097 0.136 0.403 0.164" stroke="hsl(90.0,100%,35%)" stroke-width="0.00443"></path>
<path d="M1.305 0.468 Q1.377 0.518 1.489 0.494" stroke="hsl(90.0,100%,35%)" stroke-width="0.00443"></path>
<path d="M1.305 0.468 Q1.289 0.528 1.402 0.550" stroke="hsl(90.0,100%,35%)" stroke-width="0.00443"></path>
<path d="M1.305 0.468 Q0.995 0.149 0.304 0.230" stroke="hsl(90.0,100%,35%)" stroke-width="0.00443"></path>
<path d="M1.894 0.380 Q1.773 0.377 1.741 0.436" stroke="hsl(45.0,100%,35%)" stroke-width="0.00886"></path>
<path d="M1.894 0.380 Q1.972 0.344 1.918 0.298" stroke="hsl(45.0,100%,35%)" stroke-width="0.00443"></path>
<path d="M1.894 0.380 Q2.035 0.323 1.955 0.242" stroke="hsl(45.0,100%,35%)" stroke-width="0.00443"></path>
<path d="M1.894 0.380 Q1.751 0.326 1.615 0.384" stroke="hsl(45.0,100%,35%)" stroke-width="0.00443"></path>
<path d="M1.894 0.380 Q0.923 0.201 0.360 0.636" stroke="hsl(45.0,100%,35%)" stroke-width="0.00443"></path>
<path d="M0.246 0.560 Q0.412 0.588 0.503 0.514" stroke="hsl(45.0,100%,35%)" stroke-width="0.00443"></path>
<path d="M0.246 0.560 Q0.072 0.585 0.083 0.676" stroke="hsl(45.0,100%,35%)" stroke-width="0.00886"></path>
<path d="M0.246 0.560 Q0.512 0.759 0.959 0.673" stroke="hsl(45.0,100%,35%)" stroke-width="0.00443"></path>
<path d="M0.246 0.560 Q0.242 0.621 0.360 0.636" stroke="hsl(45.0,100%,35%)" stroke-width="0.00443"></path>
<path d="M0.503 0.351 Q0.570 0.414 0.708 0.395" stroke="hsl(45.0,100%,35%)" stroke-width="0.00443"></path>
<path d="M0.503 0.351 Q0.671 0.364 0.732 0.285" stroke="hsl(45.0,100%,35%)" stroke-width="0.00886"></path>
<path d="M0.503 0.351 Q0.549 0.457 0.767 0.458" stroke="hsl(45.0,100%,35%)" stroke-width="0.00443"></path>
<path d="M0.503 0.351 Q0.499 0.430 0.652 0.449" stroke="hsl(45.0,100%,35%)" stroke-width="0.00443"></path>
<path d="M0.503 0.351 Q0.415 0.551 0.786 0.638" stroke="hsl(45.0,100%,35%)" stroke-width="0.00886"></path>
<path d="M0.786 0.638 Q0.922 0.628 0.933 0.560" stroke="hsl(45.0,100%,35%)" stroke-width="0.00443"></path>
<path d="M0.786 0.638 Q1.156 0.414 0.801 0.185" stroke="hsl(45.0,100%,35%)" stroke-width="0.00443"></path>
<path d="M0.786 0.638 Q0.844 0.690 0.959 0.673" stroke="hsl(45.0,100%,35%)" stroke-width="0.01329"></path>
<path d="M0.786 0.638 Q0.873 0.438 0.503 0.351" stroke="hsl(45.0,100%,35%)" stroke-width="0.00443"></path>
<path d="M0.786 0.638 Q0.701 0.630 0.668 0.670" stroke="hsl(45.0,100%,35%)" stroke-width="0.00443"></path>
<path d="M0.786 0.638 Q0.786 0.550 0.617 0.531" stroke="hsl(45.0,100%,35%)" stroke-width="0.00443"></path>
<path d="M0.786 0.638 Q1.403 0.677 1.615 0.384" stroke="hsl(45.0,100%,35%)" stroke-width="0.00443"></path>
<path d="M1.038 0.918 Q0.918 0.771 0.603 0.797" stroke="hsl(225.0,100%,35%)" stroke-width="0.01772"></path>
<path d="M1.038 0.918 Q1.014 0.791 0.761 0.776" stroke="hsl(225.0,100%,35%)" stroke-width="0.00443"></path>
<path d="M1.038 0.918 Q1.037 0.836 0.877 0.819" stroke="hsl(225.0,100%,35%)" stroke-width="0.01772"></path>
<path d="M0.957 0.349 Q0.897 0.400 0.983 0.440" stroke="hsl(270.0,100%,35%)" stroke-width="0.00886"></path>
<path d="M0.957 0.349 Q0.824 0.397 0.887 0.472" stroke="hsl(270.0,100%,35%)" stroke-width="0.00443"></path>
<path d="M0.957 0.349 Q1.090 0.336 1.093 0.268" stroke="hsl(270.0,100%,35%)" stroke-width="0.00443"></path>
<path d="M0.957 0.349 Q0.975 0.405 1.087 0.408" stroke="hsl(270.0,100%,35%)" stroke-width="0.00443"></path>
<path d="M1.212 0.078 Q1.108 0.138 1.202 0.202" stroke="hsl(45.0,100%,35%)" stroke-width="0.01329"></path>
<path d="M1.212 0.078 Q1.313 0.257 1.684 0.246" stroke="hsl(45.0,100%,35%)" stroke-width="0.01329"></path>
<path d="M1.212 0.078 Q0.763 0.361 1.217 0.643" stroke="hsl(45.0,100%,35%)" stroke-width="0.01329"></path>
<path d="M1.212 0.078 Q0.921 0.049 0.801 0.185" stroke="hsl(45.0,100%,35%)" stroke-width="0.00443"></path>
<path d="M1.212 0.078 Q0.910 0.574 1.812 0.830" stroke="hsl(45.0,100%,35%)" stroke-width="0.00443"></path>
<path d="M1.812 0.830 Q1.664 0.618 1.217 0.643" stroke="hsl(45.0,100%,35%)" stroke-width="0.00886"></path>
<path d="M1.812 0.830 Q1.858 0.755 1.721 0.716" stroke="hsl(45.0,100%,35%)" stroke-width="0.01329"></path>
<path d="M1.812 0.830 Q2.070 0.568 1.615 0.384" stroke="hsl(45.0,100%,35%)" stroke-width="0.00443"></path>
<path d="M0.065 0.819 Q0.226 0.834 0.291 0.759" stroke="hsl(315.0,100%,35%)" stroke-width="0.03986"></path>
<path d="M0.065 0.819 Q0.059 0.887 0.190 0.905" stroke="hsl(315.0,100%,35%)" stroke-width="0.00443"></path>
<path d="M0.065 0.819 Q0.237 0.907 0.446 0.842" stroke="hsl(315.0,100%,35%)" stroke-width="0.00443"></path>
<path d="M0.065 0.819 Q0.112 0.932 0.343 0.934" stroke="hsl(315.0,100%,35%)" stroke-width="0.00443"></path>
<path d="M0.065 0.819 Q0.133 0.896 0.299 0.880" stroke="hsl(315.0,100%,35%)" stroke-width="0.00443"></path>
<path d="M0.065 0.819 Q0.017 0.883 0.131 0.920" stroke="hsl(315.0,100%,35%)" stroke-width="0.01329"></path>
<path d="M0.065 0.819 Q0.194 0.775 0.136 0.702" stroke="hsl(315.0,100%,35%)" stroke-width="0.00443"></path>
<path d="M0.065 0.819 Q0.173 0.893 0.342 0.857" stroke="hsl(315.0,100%,35%)" stroke-width="0.00443"></path>
<path d="M1.347 0.881 Q1.444 0.922 1.546 0.884" stroke="hsl(90.0,100%,35%)" stroke-width="0.00443"></path>
<path d="M1.347 0.881 Q1.534 0.886 1.585 0.796" stroke="hsl(90.0,100%,35%)" stroke-width="0.00886"></path>
<path d="M1.347 0.881 Q0.880 0.526 0.083 0.676" stroke="hsl(90.0,100%,35%)" stroke-width="0.00443"></path>
<path d="M1.347 0.881 Q1.493 0.879 1.521 0.807" stroke="hsl(90.0,100%,35%)" stroke-width="0.00886"></path>
<path d="M1.347 0.881 Q1.728 0.716 1.489 0.494" stroke="hsl(90.0,100%,35%)" stroke-width="0.00443"></path>
<path d="M0.042 0.420 Q0.058 0.461 0.141 0.462" stroke="hsl(45.0,100%,35%)" stroke-width="0.00443"></path>
<path d="M0.042 0.420 Q0.029 0.591 0.360 0.636" stroke="hsl(45.0,100%,35%)" stroke-width="0.00443"></path>
<path d="M0.042 0.420 Q-0.002 0.478 0.101 0.512" stroke="hsl(45.0,100%,35%)" stroke-width="0.00443"></path>
</g>
<text x="0.285" y="0.369" font-size="0.016784" fill="hsl(0.0,100%,20%)">alcooper</text>
<text x="0.354" y="0.459" font-size="0.009690" fill="hsl(0.0,100%,20%)">bajones</text>
<text x="0.332" y="0.446" font-size="0.009690" fill="hsl(0.0,100%,20%)">ellyjones</text>
<text x="0.403" y="0.471" font-size="0.009690" fill="hsl(0.0,100%,20%)">miketaylr</text>
<text x="0.970" y="0.084" font-size="0.027408" fill="hsl(45.0,100%,20%)">awogbemila</text>
<text x="1.049" y="0.254" font-size="0.009690" fill="hsl(45.0,100%,20%)">mustaq</text>
<text x="0.801" y="0.173" font-size="0.023736" fill="hsl(45.0,100%,20%)">kevers</text>
<text x="1.615" y="0.371" font-size="0.025637" fill="hsl(45.0,100%,20%)">flackr</text>
<text x="1.429" y="0.297" font-size="0.029070" fill="hsl(45.0,100%,20%)">andruud</text>
<text x="0.074" y="0.232" font-size="0.027408" fill="hsl(90.0,100%,20%)">david.risney</text>
<text x="0.083" y="0.664" font-size="0.023736" fill="hsl(45.0,100%,20%)">domenic</text>
<text x="0.208" y="0.284" font-size="0.009690" fill="hsl(90.0,100%,20%)">gyuyoung</text>
<text x="0.403" y="0.156" font-size="0.016784" fill="hsl(90.0,100%,20%)">nhiroki</text>
<text x="0.179" y="0.325" font-size="0.009690" fill="hsl(90.0,100%,20%)">peter</text>
<text x="0.959" y="0.648" font-size="0.050351" fill="hsl(45.0,100%,20%)">nrosenthal</text>
<text x="0.304" y="0.223" font-size="0.013704" fill="hsl(90.0,100%,20%)">yyanagisawa</text>
<text x="0.360" y="0.623" font-size="0.025637" fill="hsl(45.0,100%,20%)">dom</text>
<text x="0.572" y="0.581" font-size="0.009690" fill="hsl(45.0,100%,20%)">wjmaclean</text>
<text x="1.633" y="0.032" font-size="0.032138" fill="hsl(135.0,100%,20%)">feng.dai</text>
<text x="1.727" y="0.099" font-size="0.021668" fill="hsl(135.0,100%,20%)">ningxin.hu</text>
<text x="1.460" y="0.076" font-size="0.016784" fill="hsl(135.0,100%,20%)">phillis</text>
<text x="1.536" y="0.087" font-size="0.013704" fill="hsl(135.0,100%,20%)">asully</text>
<text x="1.505" y="0.050" font-size="0.009690" fill="hsl(135.0,100%,20%)">weizhong</text>
<text x="1.684" y="0.215" font-size="0.062046" fill="hsl(45.0,100%,20%)">futhark</text>
<text x="1.439" y="0.156" font-size="0.053952" fill="hsl(45.0,100%,20%)">sakhapov</text>
<text x="1.463" y="0.261" font-size="0.023736" fill="hsl(45.0,100%,20%)">moonira</text>
<text x="1.217" y="0.621" font-size="0.044405" fill="hsl(45.0,100%,20%)">fs</text>
<text x="1.927" y="0.492" font-size="0.038760" fill="hsl(45.0,100%,20%)">mstensho</text>
<text x="1.279" y="0.736" font-size="0.021668" fill="hsl(180.0,100%,20%)">hbos</text>
<text x="1.392" y="0.718" font-size="0.009690" fill="hsl(180.0,100%,20%)">eshr</text>
<text x="1.472" y="0.755" font-size="0.009690" fill="hsl(180.0,100%,20%)">mbonadei</text>
<text x="1.088" y="0.767" font-size="0.016784" fill="hsl(180.0,100%,20%)">hta</text>
<text x="1.498" y="0.677" font-size="0.019380" fill="hsl(45.0,100%,20%)">hchao</text>
<text x="1.529" y="0.604" font-size="0.013704" fill="hsl(45.0,100%,20%)">clamy</text>
<text x="1.949" y="0.643" font-size="0.033567" fill="hsl(45.0,100%,20%)">ikilpatrick</text>
<text x="1.523" y="0.708" font-size="0.009690" fill="hsl(45.0,100%,20%)">lbrady</text>
<text x="1.305" y="0.458" font-size="0.021668" fill="hsl(90.0,100%,20%)">hiroshige</text>
<text x="1.607" y="0.529" font-size="0.009690" fill="hsl(90.0,100%,20%)">kenoss</text>
<text x="1.489" y="0.487" font-size="0.013704" fill="hsl(90.0,100%,20%)">taiyo</text>
<text x="1.402" y="0.545" font-size="0.009690" fill="hsl(90.0,100%,20%)">toyoshim</text>
<text x="1.707" y="0.624" font-size="0.009690" fill="hsl(45.0,100%,20%)">obrufau</text>
<text x="1.657" y="0.563" font-size="0.009690" fill="hsl(45.0,100%,20%)">dgrogan</text>
<text x="1.894" y="0.368" font-size="0.023736" fill="hsl(45.0,100%,20%)">janiceliu</text>
<text x="1.741" y="0.429" font-size="0.013704" fill="hsl(45.0,100%,20%)">awillia</text>
<text x="1.918" y="0.293" font-size="0.009690" fill="hsl(45.0,100%,20%)">boliu</text>
<text x="1.955" y="0.237" font-size="0.009690" fill="hsl(45.0,100%,20%)">fergal</text>
<text x="0.246" y="0.549" font-size="0.021668" fill="hsl(45.0,100%,20%)">japhet</text>
<text x="0.503" y="0.509" font-size="0.009690" fill="hsl(45.0,100%,20%)">alexmos</text>
<text x="0.503" y="0.338" font-size="0.027408" fill="hsl(45.0,100%,20%)">jarhar</text>
<text x="0.708" y="0.390" font-size="0.009690" fill="hsl(45.0,100%,20%)">aleventhal</text>
<text x="0.732" y="0.278" font-size="0.013704" fill="hsl(45.0,100%,20%)">tcaptan</text>
<text x="0.767" y="0.453" font-size="0.009690" fill="hsl(45.0,100%,20%)">lwarlow</text>
<text x="0.652" y="0.442" font-size="0.013704" fill="hsl(45.0,100%,20%)">dizhangg</text>
<text x="0.786" y="0.620" font-size="0.034938" fill="hsl(45.0,100%,20%)">vmpstr</text>
<text x="1.038" y="0.904" font-size="0.029070" fill="hsl(225.0,100%,20%)">javiercon</text>
<text x="0.603" y="0.787" font-size="0.019380" fill="hsl(225.0,100%,20%)">almaher</text>
<text x="0.761" y="0.771" font-size="0.009690" fill="hsl(225.0,100%,20%)">kbabbitt</text>
<text x="0.877" y="0.809" font-size="0.019380" fill="hsl(225.0,100%,20%)">samomekarajr</text>
<text x="0.957" y="0.338" font-size="0.021668" fill="hsl(270.0,100%,20%)">jpgravel</text>
<text x="0.983" y="0.433" font-size="0.013704" fill="hsl(270.0,100%,20%)">blundell</text>
<text x="0.887" y="0.467" font-size="0.009690" fill="hsl(270.0,100%,20%)">rbyers</text>
<text x="1.093" y="0.263" font-size="0.009690" fill="hsl(270.0,100%,20%)">fserb</text>
<text x="1.087" y="0.404" font-size="0.009690" fill="hsl(270.0,100%,20%)">vasilyt</text>
<text x="1.212" y="0.062" font-size="0.032138" fill="hsl(45.0,100%,20%)">m.jason.liu</text>
<text x="1.202" y="0.193" font-size="0.016784" fill="hsl(45.0,100%,20%)">aaronhk</text>
<text x="1.812" y="0.817" font-size="0.027408" fill="hsl(45.0,100%,20%)">wangxianzhu</text>
<text x="0.065" y="0.799" font-size="0.041111" fill="hsl(315.0,100%,20%)">memmott</text>
<text x="0.291" y="0.745" font-size="0.029070" fill="hsl(315.0,100%,20%)">christinesm</text>
<text x="0.190" y="0.900" font-size="0.009690" fill="hsl(315.0,100%,20%)">rkaplow</text>
<text x="0.446" y="0.837" font-size="0.009690" fill="hsl(315.0,100%,20%)">yrsun</text>
<text x="0.343" y="0.929" font-size="0.009690" fill="hsl(315.0,100%,20%)">erikchen</text>
<text x="0.299" y="0.875" font-size="0.009690" fill="hsl(315.0,100%,20%)">mpdenton</text>
<text x="0.131" y="0.912" font-size="0.016784" fill="hsl(315.0,100%,20%)">dslee</text>
<text x="0.136" y="0.697" font-size="0.009690" fill="hsl(315.0,100%,20%)">msw</text>
<text x="0.342" y="0.852" font-size="0.009690" fill="hsl(315.0,100%,20%)">btriebw</text>
<text x="1.681" y="0.084" font-size="0.009690" fill="hsl(45.0,100%,20%)">drott</text>
<text x="1.544" y="0.348" font-size="0.009690" fill="hsl(45.0,100%,20%)">schenney</text>
<text x="0.956" y="0.546" font-size="0.009690" fill="hsl(45.0,100%,20%)">dbaron</text>
<text x="0.933" y="0.553" font-size="0.013704" fill="hsl(45.0,100%,20%)">kylechar</text>
<text x="1.347" y="0.868" font-size="0.025637" fill="hsl(90.0,100%,20%)">stevenwei</text>
<text x="1.546" y="0.879" font-size="0.009690" fill="hsl(90.0,100%,20%)">alexrudenko</text>
<text x="1.585" y="0.790" font-size="0.013704" fill="hsl(90.0,100%,20%)">ayui</text>
<text x="1.521" y="0.800" font-size="0.013704" fill="hsl(90.0,100%,20%)">lingqi</text>
<text x="0.668" y="0.665" font-size="0.009690" fill="hsl(45.0,100%,20%)">jbroman</text>
<text x="0.617" y="0.526" font-size="0.009690" fill="hsl(45.0,100%,20%)">nasko</text>
<text x="1.721" y="0.708" font-size="0.016784" fill="hsl(45.0,100%,20%)">pdr</text>
<text x="0.042" y="0.412" font-size="0.016784" fill="hsl(45.0,100%,20%)">yaoxia</text>
<text x="0.141" y="0.457" font-size="0.009690" fill="hsl(45.0,100%,20%)">cammie</text>
<text x="0.101" y="0.507" font-size="0.009690" fill="hsl(45.0,100%,20%)">morlovich</text>
</svg>
