<svg width="4000" height="2000" viewBox="-0.025 -0.025 2.05 1.05" xmlns="http://www.w3.org/2000/svg">
  <style>
    path {
      fill: none;
      stroke-linecap: round;
      stroke-opacity: 0.4;
    }

    text {
      text-anchor: middle;
      alignment-baseline: hanging;
    }
  </style>
  <g opacity="0.4">
<path d="M0.966 0.618 Q0.829 0.588 0.741 0.648" stroke="hsl(0.0,100%,35%)" stroke-width="0.04491"></path>
<path d="M0.966 0.618 Q0.647 0.535 0.414 0.672" stroke="hsl(0.0,100%,35%)" stroke-width="0.03930"></path>
<path d="M0.966 0.618 Q0.938 0.572 0.842 0.575" stroke="hsl(0.0,100%,35%)" stroke-width="0.00561"></path>
<path d="M1.445 0.593 Q1.347 0.618 1.375 0.671" stroke="hsl(120.0,100%,35%)" stroke-width="0.01123"></path>
<path d="M1.445 0.593 Q1.192 0.779 1.501 0.943" stroke="hsl(120.0,100%,35%)" stroke-width="0.00187"></path>
<path d="M1.445 0.593 Q1.359 0.271 0.712 0.241" stroke="hsl(120.0,100%,35%)" stroke-width="0.00749"></path>
<path d="M1.375 0.671 Q1.574 0.659 1.594 0.560" stroke="hsl(120.0,100%,35%)" stroke-width="0.01123"></path>
<path d="M1.375 0.671 Q1.388 0.324 0.712 0.241" stroke="hsl(120.0,100%,35%)" stroke-width="0.00187"></path>
<path d="M1.375 0.671 Q1.320 0.628 1.223 0.646" stroke="hsl(120.0,100%,35%)" stroke-width="0.00187"></path>
<path d="M1.375 0.671 Q1.382 0.556 1.160 0.528" stroke="hsl(120.0,100%,35%)" stroke-width="0.00374"></path>
<path d="M0.712 0.241 Q0.733 0.314 0.880 0.320" stroke="hsl(120.0,100%,35%)" stroke-width="0.01123"></path>
<path d="M0.712 0.241 Q0.792 0.296 0.916 0.270" stroke="hsl(120.0,100%,35%)" stroke-width="0.00187"></path>
<path d="M0.712 0.241 Q0.700 0.589 1.375 0.671" stroke="hsl(120.0,100%,35%)" stroke-width="0.00374"></path>
<path d="M1.925 0.311 Q1.877 0.355 1.952 0.388" stroke="hsl(180.0,100%,35%)" stroke-width="0.00187"></path>
<path d="M1.925 0.311 Q1.894 0.354 1.971 0.379" stroke="hsl(180.0,100%,35%)" stroke-width="0.00187"></path>
<path d="M1.925 0.311 Q1.969 0.286 1.931 0.259" stroke="hsl(180.0,100%,35%)" stroke-width="0.00187"></path>
<path d="M1.925 0.311 Q1.985 0.284 1.944 0.249" stroke="hsl(180.0,100%,35%)" stroke-width="0.00187"></path>
<path d="M1.925 0.311 Q1.862 0.349 1.922 0.388" stroke="hsl(180.0,100%,35%)" stroke-width="0.00187"></path>
<path d="M0.305 0.190 Q0.183 0.233 0.239 0.301" stroke="hsl(240.0,100%,35%)" stroke-width="0.02994"></path>
<path d="M0.305 0.190 Q0.455 0.645 1.375 0.671" stroke="hsl(240.0,100%,35%)" stroke-width="0.00374"></path>
<path d="M0.305 0.190 Q0.322 0.266 0.474 0.274" stroke="hsl(240.0,100%,35%)" stroke-width="0.00187"></path>
<path d="M0.239 0.301 Q0.361 0.259 0.305 0.190" stroke="hsl(240.0,100%,35%)" stroke-width="0.00187"></path>
<path d="M0.239 0.301 Q0.223 0.344 0.304 0.362" stroke="hsl(240.0,100%,35%)" stroke-width="0.00187"></path>
<path d="M0.239 0.301 Q0.214 0.841 1.261 0.972" stroke="hsl(240.0,100%,35%)" stroke-width="0.00187"></path>
<path d="M0.239 0.301 Q0.797 0.371 1.056 0.115" stroke="hsl(240.0,100%,35%)" stroke-width="0.00561"></path>
<path d="M0.076 0.594 Q0.099 0.571 0.058 0.554" stroke="hsl(120.0,100%,35%)" stroke-width="0.00561"></path>
<path d="M0.076 0.594 Q0.156 0.614 0.213 0.579" stroke="hsl(120.0,100%,35%)" stroke-width="0.00187"></path>
<path d="M0.076 0.594 Q0.086 0.573 0.046 0.563" stroke="hsl(120.0,100%,35%)" stroke-width="0.00374"></path>
<path d="M0.076 0.594 Q0.509 1.054 1.501 0.943" stroke="hsl(120.0,100%,35%)" stroke-width="0.00187"></path>
<path d="M0.076 0.594 Q0.046 0.604 0.058 0.620" stroke="hsl(120.0,100%,35%)" stroke-width="0.00187"></path>
<path d="M1.656 0.800 Q1.748 0.749 1.667 0.693" stroke="hsl(120.0,100%,35%)" stroke-width="0.01123"></path>
<path d="M1.656 0.800 Q1.464 0.841 1.501 0.943" stroke="hsl(120.0,100%,35%)" stroke-width="0.00374"></path>
<path d="M1.656 0.800 Q1.724 0.480 1.113 0.376" stroke="hsl(120.0,100%,35%)" stroke-width="0.00374"></path>
<path d="M1.656 0.800 Q1.235 0.717 0.979 0.904" stroke="hsl(120.0,100%,35%)" stroke-width="0.00187"></path>
<path d="M1.656 0.800 Q1.322 0.807 1.261 0.972" stroke="hsl(120.0,100%,35%)" stroke-width="0.00187"></path>
<path d="M1.667 0.693 Q1.546 0.509 1.160 0.528" stroke="hsl(120.0,100%,35%)" stroke-width="0.00374"></path>
<path d="M1.667 0.693 Q1.670 0.499 1.292 0.455" stroke="hsl(120.0,100%,35%)" stroke-width="0.00749"></path>
<path d="M1.667 0.693 Q1.643 0.424 1.113 0.376" stroke="hsl(120.0,100%,35%)" stroke-width="0.00187"></path>
<path d="M1.667 0.693 Q1.241 0.751 1.261 0.972" stroke="hsl(120.0,100%,35%)" stroke-width="0.00749"></path>
<path d="M1.667 0.693 Q1.576 0.745 1.656 0.800" stroke="hsl(120.0,100%,35%)" stroke-width="0.00374"></path>
<path d="M1.667 0.693 Q1.326 0.612 1.093 0.760" stroke="hsl(120.0,100%,35%)" stroke-width="0.00187"></path>
<path d="M0.979 0.904 Q1.400 0.988 1.656 0.800" stroke="hsl(120.0,100%,35%)" stroke-width="0.00187"></path>
<path d="M0.979 0.904 Q1.151 0.855 1.093 0.760" stroke="hsl(120.0,100%,35%)" stroke-width="0.00374"></path>
<path d="M0.979 0.904 Q1.468 0.667 1.113 0.376" stroke="hsl(120.0,100%,35%)" stroke-width="0.00187"></path>
<path d="M1.261 0.972 Q1.404 1.005 1.501 0.943" stroke="hsl(120.0,100%,35%)" stroke-width="0.03743"></path>
<path d="M1.261 0.972 Q1.687 0.914 1.667 0.693" stroke="hsl(120.0,100%,35%)" stroke-width="0.01310"></path>
<path d="M1.261 0.972 Q1.346 0.832 1.093 0.760" stroke="hsl(120.0,100%,35%)" stroke-width="0.00187"></path>
<path d="M1.261 0.972 Q1.447 0.642 0.845 0.479" stroke="hsl(120.0,100%,35%)" stroke-width="0.00187"></path>
<path d="M1.261 0.972 Q1.503 0.801 1.223 0.646" stroke="hsl(120.0,100%,35%)" stroke-width="0.00561"></path>
<path d="M1.261 0.972 Q2.008 0.520 1.290 0.056" stroke="hsl(120.0,100%,35%)" stroke-width="0.00187"></path>
<path d="M1.261 0.972 Q1.174 0.881 0.979 0.904" stroke="hsl(120.0,100%,35%)" stroke-width="0.00187"></path>
<path d="M1.261 0.972 Q1.232 0.812 0.914 0.791" stroke="hsl(120.0,100%,35%)" stroke-width="0.00374"></path>
<path d="M1.261 0.972 Q1.447 0.918 1.383 0.816" stroke="hsl(120.0,100%,35%)" stroke-width="0.00187"></path>
<path d="M1.261 0.972 Q1.565 0.729 1.160 0.528" stroke="hsl(120.0,100%,35%)" stroke-width="0.00187"></path>
<path d="M1.261 0.972 Q1.522 0.646 0.943 0.447" stroke="hsl(120.0,100%,35%)" stroke-width="0.00187"></path>
<path d="M1.261 0.972 Q1.229 0.885 1.052 0.881" stroke="hsl(120.0,100%,35%)" stroke-width="0.00187"></path>
<path d="M1.261 0.972 Q1.844 0.502 1.056 0.115" stroke="hsl(120.0,100%,35%)" stroke-width="0.00187"></path>
<path d="M1.592 0.353 Q1.530 0.288 1.390 0.304" stroke="hsl(180.0,100%,35%)" stroke-width="0.02807"></path>
<path d="M1.592 0.353 Q1.680 0.305 1.605 0.251" stroke="hsl(180.0,100%,35%)" stroke-width="0.02807"></path>
<path d="M1.592 0.353 Q1.821 0.302 1.771 0.179" stroke="hsl(180.0,100%,35%)" stroke-width="0.00187"></path>
<path d="M1.592 0.353 Q1.229 0.469 1.375 0.671" stroke="hsl(180.0,100%,35%)" stroke-width="0.00187"></path>
<path d="M1.110 0.199 Q1.045 0.088 0.812 0.095" stroke="hsl(60.0,100%,35%)" stroke-width="0.00561"></path>
<path d="M1.110 0.199 Q0.970 0.288 1.113 0.376" stroke="hsl(60.0,100%,35%)" stroke-width="0.00374"></path>
<path d="M1.110 0.199 Q1.023 0.178 0.962 0.216" stroke="hsl(60.0,100%,35%)" stroke-width="0.00936"></path>
<path d="M1.110 0.199 Q0.494 0.150 0.261 0.439" stroke="hsl(60.0,100%,35%)" stroke-width="0.00187"></path>
<path d="M1.110 0.199 Q1.078 0.250 1.170 0.277" stroke="hsl(60.0,100%,35%)" stroke-width="0.00374"></path>
<path d="M1.240 0.258 Q1.276 0.245 1.258 0.224" stroke="hsl(180.0,100%,35%)" stroke-width="0.00374"></path>
<path d="M1.240 0.258 Q1.354 0.243 1.349 0.184" stroke="hsl(180.0,100%,35%)" stroke-width="0.00187"></path>
<path d="M1.240 0.258 Q1.349 0.235 1.327 0.177" stroke="hsl(180.0,100%,35%)" stroke-width="0.00187"></path>
<path d="M0.058 0.483 Q0.242 0.387 0.095 0.277" stroke="hsl(120.0,100%,35%)" stroke-width="0.00374"></path>
<path d="M0.058 0.483 Q0.354 0.829 1.093 0.760" stroke="hsl(120.0,100%,35%)" stroke-width="0.00374"></path>
<path d="M0.058 0.483 Q0.060 0.474 0.043 0.472" stroke="hsl(120.0,100%,35%)" stroke-width="0.00187"></path>
<path d="M0.058 0.483 Q0.031 0.487 0.034 0.501" stroke="hsl(120.0,100%,35%)" stroke-width="0.00187"></path>
<path d="M1.093 0.760 Q1.081 0.444 0.460 0.380" stroke="hsl(120.0,100%,35%)" stroke-width="0.00187"></path>
<path d="M1.093 0.760 Q1.008 0.900 1.261 0.972" stroke="hsl(120.0,100%,35%)" stroke-width="0.00187"></path>
<path d="M1.093 0.760 Q1.178 0.448 0.587 0.337" stroke="hsl(120.0,100%,35%)" stroke-width="0.00187"></path>
<path d="M1.093 0.760 Q0.921 0.809 0.979 0.904" stroke="hsl(120.0,100%,35%)" stroke-width="0.00374"></path>
<path d="M1.485 0.071 Q1.498 0.111 1.580 0.114" stroke="hsl(60.0,100%,35%)" stroke-width="0.00187"></path>
<path d="M1.485 0.071 Q1.450 0.316 1.922 0.388" stroke="hsl(60.0,100%,35%)" stroke-width="0.00187"></path>
<path d="M1.485 0.071 Q1.586 0.076 1.618 0.028" stroke="hsl(60.0,100%,35%)" stroke-width="0.00187"></path>
<path d="M1.485 0.071 Q1.578 0.100 1.655 0.061" stroke="hsl(60.0,100%,35%)" stroke-width="0.00187"></path>
<path d="M1.485 0.071 Q1.399 0.024 1.290 0.056" stroke="hsl(60.0,100%,35%)" stroke-width="0.00561"></path>
<path d="M1.485 0.071 Q1.235 0.007 1.056 0.115" stroke="hsl(60.0,100%,35%)" stroke-width="0.00374"></path>
<path d="M1.290 0.056 Q0.686 0.542 1.501 0.943" stroke="hsl(60.0,100%,35%)" stroke-width="0.00187"></path>
<path d="M1.290 0.056 Q1.376 0.102 1.485 0.071" stroke="hsl(60.0,100%,35%)" stroke-width="0.00936"></path>
<path d="M1.290 0.056 Q1.236 0.081 1.273 0.113" stroke="hsl(60.0,100%,35%)" stroke-width="0.00187"></path>
<path d="M1.290 0.056 Q1.126 0.038 1.056 0.115" stroke="hsl(60.0,100%,35%)" stroke-width="0.01684"></path>
<path d="M1.290 0.056 Q1.391 0.111 1.520 0.074" stroke="hsl(60.0,100%,35%)" stroke-width="0.00187"></path>
<path d="M1.290 0.056 Q1.232 0.108 1.321 0.148" stroke="hsl(60.0,100%,35%)" stroke-width="0.01310"></path>
<path d="M1.290 0.056 Q1.333 0.093 1.415 0.080" stroke="hsl(60.0,100%,35%)" stroke-width="0.00187"></path>
<path d="M1.056 0.115 Q1.220 0.132 1.290 0.056" stroke="hsl(60.0,100%,35%)" stroke-width="0.02807"></path>
<path d="M1.056 0.115 Q0.875 0.257 1.113 0.376" stroke="hsl(60.0,100%,35%)" stroke-width="0.00187"></path>
<path d="M1.056 0.115 Q1.306 0.179 1.485 0.071" stroke="hsl(60.0,100%,35%)" stroke-width="0.00374"></path>
<path d="M1.056 0.115 Q0.615 0.618 1.501 0.943" stroke="hsl(60.0,100%,35%)" stroke-width="0.00374"></path>
<path d="M1.056 0.115 Q1.162 0.184 1.321 0.148" stroke="hsl(60.0,100%,35%)" stroke-width="0.00374"></path>
<path d="M1.056 0.115 Q0.473 0.584 1.261 0.972" stroke="hsl(60.0,100%,35%)" stroke-width="0.00187"></path>
<path d="M1.812 0.462 Q1.793 0.424 1.713 0.424" stroke="hsl(60.0,100%,35%)" stroke-width="0.00187"></path>
<path d="M1.812 0.462 Q1.926 0.447 1.922 0.388" stroke="hsl(60.0,100%,35%)" stroke-width="0.00187"></path>
<path d="M1.812 0.462 Q1.584 0.169 0.962 0.216" stroke="hsl(60.0,100%,35%)" stroke-width="0.00187"></path>
<path d="M1.812 0.462 Q1.639 0.241 1.170 0.277" stroke="hsl(60.0,100%,35%)" stroke-width="0.00187"></path>
<path d="M0.914 0.791 Q1.526 0.481 1.056 0.115" stroke="hsl(120.0,100%,35%)" stroke-width="0.00187"></path>
<path d="M0.914 0.791 Q1.028 0.812 1.093 0.760" stroke="hsl(120.0,100%,35%)" stroke-width="0.00936"></path>
<path d="M0.914 0.791 Q1.929 0.610 1.799 0.076" stroke="hsl(120.0,100%,35%)" stroke-width="0.00187"></path>
<path d="M0.914 0.791 Q1.241 0.823 1.375 0.671" stroke="hsl(120.0,100%,35%)" stroke-width="0.00187"></path>
<path d="M1.223 0.646 Q0.981 0.816 1.261 0.972" stroke="hsl(120.0,100%,35%)" stroke-width="0.00936"></path>
<path d="M1.223 0.646 Q1.278 0.689 1.375 0.671" stroke="hsl(120.0,100%,35%)" stroke-width="0.01310"></path>
<path d="M1.223 0.646 Q1.315 0.810 1.656 0.800" stroke="hsl(120.0,100%,35%)" stroke-width="0.00187"></path>
<path d="M1.223 0.646 Q1.256 0.584 1.144 0.555" stroke="hsl(120.0,100%,35%)" stroke-width="0.00187"></path>
<path d="M1.223 0.646 Q1.066 0.677 1.093 0.760" stroke="hsl(120.0,100%,35%)" stroke-width="0.00187"></path>
<path d="M1.223 0.646 Q1.291 0.341 0.712 0.241" stroke="hsl(120.0,100%,35%)" stroke-width="0.00374"></path>
<path d="M1.223 0.646 Q1.128 0.234 0.305 0.190" stroke="hsl(120.0,100%,35%)" stroke-width="0.00187"></path>
<path d="M1.160 0.528 Q1.284 0.518 1.292 0.455" stroke="hsl(60.0,100%,35%)" stroke-width="0.00561"></path>
<path d="M1.160 0.528 Q1.438 0.300 1.056 0.115" stroke="hsl(60.0,100%,35%)" stroke-width="0.00187"></path>
<path d="M1.160 0.528 Q1.153 0.643 1.375 0.671" stroke="hsl(60.0,100%,35%)" stroke-width="0.00374"></path>
<path d="M1.160 0.528 Q0.855 0.770 1.261 0.972" stroke="hsl(60.0,100%,35%)" stroke-width="0.00187"></path>
<path d="M1.160 0.528 Q0.953 0.441 0.739 0.523" stroke="hsl(60.0,100%,35%)" stroke-width="0.00187"></path>
<path d="M1.160 0.528 Q0.768 0.680 0.979 0.904" stroke="hsl(60.0,100%,35%)" stroke-width="0.00187"></path>
<path d="M0.943 0.447 Q0.825 0.807 1.501 0.943" stroke="hsl(120.0,100%,35%)" stroke-width="0.00936"></path>
<path d="M0.943 0.447 Q0.683 0.773 1.261 0.972" stroke="hsl(120.0,100%,35%)" stroke-width="0.00561"></path>
<path d="M0.943 0.447 Q1.084 0.446 1.113 0.376" stroke="hsl(120.0,100%,35%)" stroke-width="0.00936"></path>
<path d="M0.943 0.447 Q1.017 0.766 1.656 0.800" stroke="hsl(120.0,100%,35%)" stroke-width="0.00187"></path>
<path d="M0.943 0.447 Q0.826 0.680 1.254 0.788" stroke="hsl(120.0,100%,35%)" stroke-width="0.00187"></path>
<path d="M0.053 0.372 Q0.151 0.333 0.095 0.277" stroke="hsl(60.0,100%,35%)" stroke-width="0.00749"></path>
<path d="M0.053 0.372 Q0.136 0.318 0.048 0.265" stroke="hsl(60.0,100%,35%)" stroke-width="0.00374"></path>
<path d="M0.053 0.372 Q0.508 0.512 0.880 0.320" stroke="hsl(60.0,100%,35%)" stroke-width="0.00374"></path>
<path d="M0.053 0.372 Q0.094 0.412 0.179 0.400" stroke="hsl(60.0,100%,35%)" stroke-width="0.00936"></path>
<path d="M0.053 0.372 Q0.140 0.332 0.080 0.281" stroke="hsl(60.0,100%,35%)" stroke-width="0.00187"></path>
<path d="M0.179 0.400 Q0.665 0.575 1.113 0.376" stroke="hsl(60.0,100%,35%)" stroke-width="0.00187"></path>
<path d="M0.179 0.400 Q0.689 0.844 1.667 0.693" stroke="hsl(60.0,100%,35%)" stroke-width="0.00187"></path>
<path d="M0.179 0.400 Q0.567 0.660 1.160 0.528" stroke="hsl(60.0,100%,35%)" stroke-width="0.00187"></path>
<path d="M0.383 0.418 Q0.306 0.429 0.311 0.469" stroke="hsl(120.0,100%,35%)" stroke-width="0.00561"></path>
<path d="M0.383 0.418 Q0.385 0.450 0.448 0.456" stroke="hsl(120.0,100%,35%)" stroke-width="0.00187"></path>
<path d="M0.383 0.418 Q0.452 0.415 0.460 0.380" stroke="hsl(120.0,100%,35%)" stroke-width="0.00374"></path>
<path d="M0.460 0.380 Q0.423 0.378 0.411 0.395" stroke="hsl(120.0,100%,35%)" stroke-width="0.00187"></path>
<path d="M0.460 0.380 Q0.393 0.416 0.448 0.456" stroke="hsl(120.0,100%,35%)" stroke-width="0.00187"></path>
<path d="M0.460 0.380 Q0.451 0.365 0.420 0.367" stroke="hsl(120.0,100%,35%)" stroke-width="0.00187"></path>
<path d="M1.714 0.438 Q1.659 0.306 1.390 0.304" stroke="hsl(180.0,100%,35%)" stroke-width="0.00187"></path>
<path d="M1.714 0.438 Q1.858 0.454 1.922 0.388" stroke="hsl(180.0,100%,35%)" stroke-width="0.00187"></path>
<path d="M1.714 0.438 Q1.898 0.455 1.971 0.369" stroke="hsl(180.0,100%,35%)" stroke-width="0.00187"></path>
<path d="M0.537 0.127 Q0.625 0.367 1.113 0.376" stroke="hsl(240.0,100%,35%)" stroke-width="0.00374"></path>
<path d="M0.537 0.127 Q0.649 0.636 1.667 0.693" stroke="hsl(240.0,100%,35%)" stroke-width="0.00374"></path>
<path d="M0.537 0.127 Q0.370 0.112 0.305 0.190" stroke="hsl(240.0,100%,35%)" stroke-width="0.01497"></path>
<path d="M0.537 0.127 Q0.362 0.165 0.397 0.258" stroke="hsl(240.0,100%,35%)" stroke-width="0.00936"></path>
<path d="M0.397 0.258 Q0.405 0.206 0.305 0.190" stroke="hsl(240.0,100%,35%)" stroke-width="0.02246"></path>
<path d="M0.397 0.258 Q0.506 0.258 0.530 0.205" stroke="hsl(240.0,100%,35%)" stroke-width="0.00374"></path>
<path d="M0.397 0.258 Q0.343 0.648 1.093 0.760" stroke="hsl(240.0,100%,35%)" stroke-width="0.00374"></path>
<path d="M0.397 0.258 Q0.572 0.221 0.537 0.127" stroke="hsl(240.0,100%,35%)" stroke-width="0.00187"></path>
<path d="M0.397 0.258 Q0.284 0.248 0.239 0.301" stroke="hsl(240.0,100%,35%)" stroke-width="0.00187"></path>
<path d="M0.683 0.402 Q0.911 0.650 1.445 0.593" stroke="hsl(120.0,100%,35%)" stroke-width="0.00187"></path>
<path d="M0.683 0.402 Q0.813 0.675 1.375 0.671" stroke="hsl(120.0,100%,35%)" stroke-width="0.00187"></path>
<path d="M0.683 0.402 Q0.826 0.328 0.712 0.241" stroke="hsl(120.0,100%,35%)" stroke-width="0.00749"></path>
<path d="M0.683 0.402 Q0.846 0.400 0.880 0.320" stroke="hsl(120.0,100%,35%)" stroke-width="0.00749"></path>
<path d="M1.795 0.724 Q1.664 0.735 1.656 0.800" stroke="hsl(120.0,100%,35%)" stroke-width="0.00187"></path>
<path d="M1.795 0.724 Q1.756 0.683 1.667 0.693" stroke="hsl(120.0,100%,35%)" stroke-width="0.00374"></path>
<path d="M1.795 0.724 Q1.303 0.160 0.095 0.277" stroke="hsl(120.0,100%,35%)" stroke-width="0.00187"></path>
<path d="M1.037 0.287 Q1.057 0.236 0.962 0.216" stroke="hsl(60.0,100%,35%)" stroke-width="0.00936"></path>
<path d="M1.037 0.287 Q1.112 0.308 1.170 0.277" stroke="hsl(60.0,100%,35%)" stroke-width="0.00561"></path>
<path d="M1.037 0.287 Q0.527 0.208 0.261 0.439" stroke="hsl(60.0,100%,35%)" stroke-width="0.00374"></path>
<path d="M1.292 0.455 Q1.167 0.465 1.160 0.528" stroke="hsl(60.0,100%,35%)" stroke-width="0.00749"></path>
<path d="M1.292 0.455 Q0.961 0.379 0.739 0.523" stroke="hsl(60.0,100%,35%)" stroke-width="0.00187"></path>
<path d="M1.292 0.455 Q1.289 0.649 1.667 0.693" stroke="hsl(60.0,100%,35%)" stroke-width="0.00187"></path>
<path d="M1.812 0.885 Q1.827 0.907 1.875 0.905" stroke="hsl(180.0,100%,35%)" stroke-width="0.00749"></path>
<path d="M1.812 0.885 Q1.794 0.886 1.793 0.896" stroke="hsl(180.0,100%,35%)" stroke-width="0.00187"></path>
<path d="M1.812 0.885 Q1.861 0.852 1.808 0.821" stroke="hsl(180.0,100%,35%)" stroke-width="0.00187"></path>
<path d="M1.812 0.885 Q2.063 0.444 1.258 0.224" stroke="hsl(180.0,100%,35%)" stroke-width="0.00187"></path>
<path d="M1.812 0.885 Q1.792 0.915 1.847 0.931" stroke="hsl(180.0,100%,35%)" stroke-width="0.00187"></path>
<path d="M1.812 0.885 Q1.799 0.909 1.845 0.921" stroke="hsl(180.0,100%,35%)" stroke-width="0.00187"></path>
<path d="M1.812 0.885 Q1.797 0.416 0.880 0.320" stroke="hsl(180.0,100%,35%)" stroke-width="0.00187"></path>
<path d="M1.254 0.788 Q1.111 0.881 1.261 0.972" stroke="hsl(120.0,100%,35%)" stroke-width="0.01497"></path>
<path d="M1.254 0.788 Q1.513 0.554 1.113 0.376" stroke="hsl(120.0,100%,35%)" stroke-width="0.00374"></path>
<path d="M1.254 0.788 Q1.296 0.828 1.383 0.816" stroke="hsl(120.0,100%,35%)" stroke-width="0.00187"></path>
<path d="M1.254 0.788 Q1.693 0.412 1.056 0.115" stroke="hsl(120.0,100%,35%)" stroke-width="0.00374"></path>
<path d="M1.254 0.788 Q1.253 0.915 1.501 0.943" stroke="hsl(120.0,100%,35%)" stroke-width="0.00187"></path>
<path d="M1.254 0.788 Q1.195 0.742 1.093 0.760" stroke="hsl(120.0,100%,35%)" stroke-width="0.01684"></path>
<path d="M1.254 0.788 Q1.537 0.823 1.667 0.693" stroke="hsl(120.0,100%,35%)" stroke-width="0.00561"></path>
<path d="M1.784 0.582 Q1.879 0.620 1.974 0.582" stroke="hsl(60.0,100%,35%)" stroke-width="0.00187"></path>
<path d="M1.784 0.582 Q1.792 0.569 1.769 0.563" stroke="hsl(60.0,100%,35%)" stroke-width="0.00187"></path>
<path d="M1.784 0.582 Q1.786 0.624 1.869 0.633" stroke="hsl(60.0,100%,35%)" stroke-width="0.00374"></path>
<path d="M0.739 0.523 Q1.224 0.382 1.056 0.115" stroke="hsl(60.0,100%,35%)" stroke-width="0.00374"></path>
<path d="M0.739 0.523 Q0.828 0.522 0.845 0.479" stroke="hsl(60.0,100%,35%)" stroke-width="0.00561"></path>
<path d="M0.739 0.523 Q0.946 0.610 1.160 0.528" stroke="hsl(60.0,100%,35%)" stroke-width="0.00187"></path>
<path d="M0.739 0.523 Q0.742 0.458 0.616 0.442" stroke="hsl(60.0,100%,35%)" stroke-width="0.00187"></path>
<path d="M0.739 0.523 Q0.432 0.358 0.043 0.472" stroke="hsl(60.0,100%,35%)" stroke-width="0.00187"></path>
<path d="M0.739 0.523 Q0.726 0.712 1.093 0.760" stroke="hsl(60.0,100%,35%)" stroke-width="0.00187"></path>
<path d="M0.739 0.523 Q0.612 0.692 0.914 0.791" stroke="hsl(60.0,100%,35%)" stroke-width="0.00187"></path>
<path d="M0.397 0.520 Q0.772 0.676 1.160 0.528" stroke="hsl(60.0,100%,35%)" stroke-width="0.00187"></path>
<path d="M0.397 0.520 Q0.638 0.466 0.587 0.337" stroke="hsl(60.0,100%,35%)" stroke-width="0.00187"></path>
<path d="M0.397 0.520 Q1.050 0.449 1.056 0.115" stroke="hsl(60.0,100%,35%)" stroke-width="0.00187"></path>
<path d="M0.397 0.520 Q0.409 0.527 0.426 0.523" stroke="hsl(60.0,100%,35%)" stroke-width="0.00187"></path>
<path d="M0.397 0.520 Q0.381 0.828 0.979 0.904" stroke="hsl(60.0,100%,35%)" stroke-width="0.00187"></path>
<path d="M0.397 0.520 Q0.552 0.779 1.093 0.760" stroke="hsl(60.0,100%,35%)" stroke-width="0.00187"></path>
<path d="M1.492 0.157 Q1.399 0.146 1.356 0.189" stroke="hsl(300.0,100%,35%)" stroke-width="0.00187"></path>
<path d="M1.492 0.157 Q1.456 0.155 1.444 0.173" stroke="hsl(300.0,100%,35%)" stroke-width="0.00561"></path>
<path d="M1.492 0.157 Q1.447 0.162 1.446 0.185" stroke="hsl(300.0,100%,35%)" stroke-width="0.00374"></path>
<path d="M0.511 0.508 Q0.448 0.466 0.352 0.488" stroke="hsl(120.0,100%,35%)" stroke-width="0.00187"></path>
<path d="M0.511 0.508 Q0.845 0.488 0.880 0.320" stroke="hsl(120.0,100%,35%)" stroke-width="0.00561"></path>
<path d="M0.511 0.508 Q0.504 0.529 0.543 0.537" stroke="hsl(120.0,100%,35%)" stroke-width="0.00187"></path>
<path d="M0.275 0.795 Q0.626 0.815 0.741 0.648" stroke="hsl(0.0,100%,35%)" stroke-width="0.04304"></path>
<path d="M0.275 0.795 Q0.443 0.761 0.414 0.672" stroke="hsl(0.0,100%,35%)" stroke-width="0.03556"></path>
<path d="M0.275 0.795 Q0.194 0.818 0.220 0.862" stroke="hsl(0.0,100%,35%)" stroke-width="0.00749"></path>
<path d="M1.615 0.456 Q1.599 0.553 1.784 0.582" stroke="hsl(60.0,100%,35%)" stroke-width="0.00374"></path>
<path d="M1.615 0.456 Q1.633 0.482 1.687 0.479" stroke="hsl(60.0,100%,35%)" stroke-width="0.00187"></path>
<path d="M1.615 0.456 Q1.503 0.115 0.812 0.095" stroke="hsl(60.0,100%,35%)" stroke-width="0.00187"></path>
<path d="M0.536 0.548 Q0.556 0.523 0.511 0.508" stroke="hsl(120.0,100%,35%)" stroke-width="0.00187"></path>
<path d="M0.536 0.548 Q0.890 0.503 0.880 0.320" stroke="hsl(120.0,100%,35%)" stroke-width="0.00187"></path>
<path d="M0.536 0.548 Q0.603 0.532 0.586 0.496" stroke="hsl(120.0,100%,35%)" stroke-width="0.00187"></path>
<path d="M0.536 0.548 Q0.870 0.430 0.712 0.241" stroke="hsl(120.0,100%,35%)" stroke-width="0.00187"></path>
<path d="M1.912 0.177 Q1.929 0.143 1.868 0.128" stroke="hsl(60.0,100%,35%)" stroke-width="0.00187"></path>
<path d="M1.912 0.177 Q1.698 -0.008 1.290 0.056" stroke="hsl(60.0,100%,35%)" stroke-width="0.00187"></path>
<path d="M1.912 0.177 Q1.058 0.162 0.842 0.575" stroke="hsl(60.0,100%,35%)" stroke-width="0.00187"></path>
<path d="M1.644 0.139 Q1.096 0.004 0.712 0.241" stroke="hsl(120.0,100%,35%)" stroke-width="0.00187"></path>
<path d="M1.644 0.139 Q1.537 0.128 1.491 0.178" stroke="hsl(120.0,100%,35%)" stroke-width="0.00187"></path>
<path d="M1.644 0.139 Q1.755 0.112 1.727 0.052" stroke="hsl(120.0,100%,35%)" stroke-width="0.00187"></path>
<path d="M1.644 0.139 Q1.772 0.138 1.799 0.076" stroke="hsl(120.0,100%,35%)" stroke-width="0.00374"></path>
<path d="M1.952 0.513 Q1.896 0.453 1.765 0.467" stroke="hsl(60.0,100%,35%)" stroke-width="0.00374"></path>
<path d="M1.952 0.513 Q1.822 0.134 1.056 0.115" stroke="hsl(60.0,100%,35%)" stroke-width="0.00749"></path>
<path d="M1.952 0.513 Q1.924 0.470 1.834 0.474" stroke="hsl(60.0,100%,35%)" stroke-width="0.00374"></path>
<path d="M1.912 0.707 Q1.973 0.401 1.390 0.304" stroke="hsl(180.0,100%,35%)" stroke-width="0.00561"></path>
<path d="M1.912 0.707 Q1.831 0.760 1.917 0.811" stroke="hsl(180.0,100%,35%)" stroke-width="0.00749"></path>
<path d="M1.912 0.707 Q2.123 0.418 1.605 0.251" stroke="hsl(180.0,100%,35%)" stroke-width="0.00749"></path>
<path d="M1.912 0.707 Q2.172 0.549 1.922 0.388" stroke="hsl(180.0,100%,35%)" stroke-width="0.00187"></path>
<path d="M1.912 0.707 Q1.517 0.743 1.501 0.943" stroke="hsl(180.0,100%,35%)" stroke-width="0.00187"></path>
<path d="M1.912 0.707 Q1.971 0.335 1.258 0.224" stroke="hsl(180.0,100%,35%)" stroke-width="0.00187"></path>
<path d="M1.912 0.707 Q1.776 0.382 1.113 0.376" stroke="hsl(180.0,100%,35%)" stroke-width="0.00187"></path>
<path d="M1.912 0.707 Q1.829 0.751 1.897 0.801" stroke="hsl(180.0,100%,35%)" stroke-width="0.00187"></path>
<path d="M0.261 0.535 Q0.889 0.425 0.812 0.095" stroke="hsl(60.0,100%,35%)" stroke-width="0.00187"></path>
<path d="M0.261 0.535 Q0.867 0.515 0.962 0.216" stroke="hsl(60.0,100%,35%)" stroke-width="0.00561"></path>
<path d="M0.261 0.535 Q0.338 0.487 0.261 0.439" stroke="hsl(60.0,100%,35%)" stroke-width="0.00561"></path>
<path d="M0.261 0.535 Q0.277 0.547 0.304 0.542" stroke="hsl(60.0,100%,35%)" stroke-width="0.00187"></path>
<path d="M0.044 0.708 Q0.075 0.688 0.043 0.669" stroke="hsl(120.0,100%,35%)" stroke-width="0.00187"></path>
<path d="M0.044 0.708 Q0.236 0.672 0.206 0.570" stroke="hsl(120.0,100%,35%)" stroke-width="0.00187"></path>
<path d="M0.044 0.708 Q0.080 0.694 0.059 0.673" stroke="hsl(120.0,100%,35%)" stroke-width="0.00187"></path>
<path d="M0.044 0.708 Q0.772 0.681 0.880 0.320" stroke="hsl(120.0,100%,35%)" stroke-width="0.00187"></path>
<path d="M0.044 0.708 Q0.105 0.716 0.133 0.688" stroke="hsl(120.0,100%,35%)" stroke-width="0.00187"></path>
<path d="M0.044 0.708 Q0.232 0.678 0.213 0.579" stroke="hsl(120.0,100%,35%)" stroke-width="0.00187"></path>
<path d="M0.610 0.978 Q0.673 0.656 0.058 0.554" stroke="hsl(120.0,100%,35%)" stroke-width="0.00374"></path>
<path d="M0.610 0.978 Q0.506 0.943 0.415 0.986" stroke="hsl(120.0,100%,35%)" stroke-width="0.00936"></path>
<path d="M0.610 0.978 Q0.660 0.658 0.046 0.563" stroke="hsl(120.0,100%,35%)" stroke-width="0.00187"></path>
<path d="M0.610 0.978 Q1.025 0.966 1.093 0.760" stroke="hsl(120.0,100%,35%)" stroke-width="0.00374"></path>
<path d="M0.552 0.333 Q1.143 0.342 1.290 0.056" stroke="hsl(60.0,100%,35%)" stroke-width="0.00187"></path>
<path d="M0.552 0.333 Q0.480 0.655 1.093 0.760" stroke="hsl(60.0,100%,35%)" stroke-width="0.00187"></path>
<path d="M0.552 0.333 Q0.566 0.342 0.587 0.337" stroke="hsl(60.0,100%,35%)" stroke-width="0.00187"></path>
<path d="M0.552 0.333 Q0.726 0.392 0.880 0.320" stroke="hsl(60.0,100%,35%)" stroke-width="0.00187"></path>
<path d="M0.552 0.333 Q0.978 0.325 1.056 0.115" stroke="hsl(60.0,100%,35%)" stroke-width="0.00187"></path>
<path d="M0.076 0.813 Q0.069 0.801 0.043 0.802" stroke="hsl(120.0,100%,35%)" stroke-width="0.00187"></path>
<path d="M0.076 0.813 Q0.090 0.802 0.072 0.793" stroke="hsl(120.0,100%,35%)" stroke-width="0.00187"></path>
<path d="M0.076 0.813 Q0.110 0.782 0.056 0.759" stroke="hsl(120.0,100%,35%)" stroke-width="0.00374"></path>
<path d="M0.076 0.813 Q0.872 0.727 0.880 0.320" stroke="hsl(120.0,100%,35%)" stroke-width="0.00187"></path>
</g>
<text x="0.966" y="0.599" font-size="0.038760" fill="hsl(0.0,100%,20%)">2mesaqlain</text>
<text x="0.741" y="0.629" font-size="0.038354" fill="hsl(0.0,100%,20%)">hongchan</text>
<text x="0.414" y="0.654" font-size="0.035383" fill="hsl(0.0,100%,20%)">mjwilson</text>
<text x="0.842" y="0.569" font-size="0.011189" fill="hsl(60.0,100%,20%)">mattreynolds</text>
<text x="1.445" y="0.583" font-size="0.019380" fill="hsl(120.0,100%,20%)">abotella</text>
<text x="1.375" y="0.655" font-size="0.031648" fill="hsl(120.0,100%,20%)">ikilpatrick</text>
<text x="1.501" y="0.927" font-size="0.032622" fill="hsl(120.0,100%,20%)">andruud</text>
<text x="0.712" y="0.228" font-size="0.026241" fill="hsl(120.0,100%,20%)">kojii</text>
<text x="1.925" y="0.305" font-size="0.012510" fill="hsl(180.0,100%,20%)">alcooper</text>
<text x="1.952" y="0.386" font-size="0.005595" fill="hsl(180.0,100%,20%)">bsheedy</text>
<text x="1.971" y="0.376" font-size="0.005595" fill="hsl(180.0,100%,20%)">ffred</text>
<text x="1.931" y="0.257" font-size="0.005595" fill="hsl(60.0,100%,20%)">tsepez</text>
<text x="1.944" y="0.246" font-size="0.005595" fill="hsl(180.0,100%,20%)">bajones</text>
<text x="1.922" y="0.381" font-size="0.012510" fill="hsl(60.0,100%,20%)">dcheng</text>
<text x="0.305" y="0.172" font-size="0.035823" fill="hsl(240.0,100%,20%)">almaher</text>
<text x="0.239" y="0.288" font-size="0.026830" fill="hsl(240.0,100%,20%)">kschmi</text>
<text x="0.474" y="0.271" font-size="0.005595" fill="hsl(240.0,100%,20%)">celestepan</text>
<text x="0.076" y="0.586" font-size="0.015824" fill="hsl(120.0,100%,20%)">annasato</text>
<text x="0.058" y="0.548" font-size="0.012510" fill="hsl(120.0,100%,20%)">fergal</text>
<text x="0.213" y="0.575" font-size="0.007912" fill="hsl(120.0,100%,20%)">haraken</text>
<text x="0.046" y="0.558" font-size="0.009690" fill="hsl(120.0,100%,20%)">leimy</text>
<text x="0.058" y="0.617" font-size="0.005595" fill="hsl(120.0,100%,20%)">guiperez</text>
<text x="1.656" y="0.789" font-size="0.023736" fill="hsl(120.0,100%,20%)">awogbemila</text>
<text x="1.667" y="0.676" font-size="0.033567" fill="hsl(120.0,100%,20%)">kevers</text>
<text x="1.113" y="0.364" font-size="0.023736" fill="hsl(120.0,100%,20%)">flackr</text>
<text x="0.979" y="0.895" font-size="0.017691" fill="hsl(120.0,100%,20%)">szager</text>
<text x="1.261" y="0.949" font-size="0.045450" fill="hsl(120.0,100%,20%)">futhark</text>
<text x="1.592" y="0.337" font-size="0.031648" fill="hsl(180.0,100%,20%)">bhanjaimukund</text>
<text x="1.390" y="0.292" font-size="0.024386" fill="hsl(180.0,100%,20%)">cbiesinger</text>
<text x="1.605" y="0.239" font-size="0.024386" fill="hsl(180.0,100%,20%)">npm</text>
<text x="1.771" y="0.176" font-size="0.005595" fill="hsl(180.0,100%,20%)">ekovac</text>
<text x="1.110" y="0.189" font-size="0.020171" fill="hsl(60.0,100%,20%)">bin.miao</text>
<text x="0.812" y="0.089" font-size="0.012510" fill="hsl(60.0,100%,20%)">ajgo</text>
<text x="0.962" y="0.205" font-size="0.020933" fill="hsl(60.0,100%,20%)">ningxin.hu</text>
<text x="0.261" y="0.432" font-size="0.013704" fill="hsl(60.0,100%,20%)">phillis</text>
<text x="1.170" y="0.270" font-size="0.013704" fill="hsl(60.0,100%,20%)">reillyg</text>
<text x="1.240" y="0.252" font-size="0.011189" fill="hsl(180.0,100%,20%)">carlosil</text>
<text x="1.258" y="0.218" font-size="0.011189" fill="hsl(180.0,100%,20%)">clamy</text>
<text x="1.349" y="0.181" font-size="0.005595" fill="hsl(180.0,100%,20%)">bashi</text>
<text x="1.327" y="0.174" font-size="0.005595" fill="hsl(180.0,100%,20%)">meacer</text>
<text x="0.058" y="0.476" font-size="0.013704" fill="hsl(120.0,100%,20%)">clchambers</text>
<text x="0.095" y="0.269" font-size="0.014802" fill="hsl(60.0,100%,20%)">gerchiko</text>
<text x="1.093" y="0.744" font-size="0.032138" fill="hsl(120.0,100%,20%)">pdr</text>
<text x="0.043" y="0.468" font-size="0.007912" fill="hsl(60.0,100%,20%)">kylechar</text>
<text x="0.034" y="0.498" font-size="0.005595" fill="hsl(120.0,100%,20%)">michaelludwig</text>
<text x="1.485" y="0.059" font-size="0.022378" fill="hsl(60.0,100%,20%)">dom</text>
<text x="1.580" y="0.111" font-size="0.005595" fill="hsl(60.0,100%,20%)">creis</text>
<text x="1.618" y="0.025" font-size="0.005595" fill="hsl(60.0,100%,20%)">holte</text>
<text x="1.655" y="0.058" font-size="0.005595" fill="hsl(60.0,100%,20%)">mmenke</text>
<text x="1.290" y="0.037" font-size="0.037944" fill="hsl(60.0,100%,20%)">jarhar</text>
<text x="1.056" y="0.095" font-size="0.039559" fill="hsl(60.0,100%,20%)">masonf</text>
<text x="1.812" y="0.456" font-size="0.011189" fill="hsl(60.0,100%,20%)">enrico.galli</text>
<text x="1.713" y="0.422" font-size="0.005595" fill="hsl(60.0,100%,20%)">bryan.bernhart</text>
<text x="0.914" y="0.782" font-size="0.018555" fill="hsl(120.0,100%,20%)">fs</text>
<text x="1.799" y="0.071" font-size="0.009690" fill="hsl(120.0,100%,20%)">drott</text>
<text x="0.845" y="0.473" font-size="0.011189" fill="hsl(60.0,100%,20%)">foolip</text>
<text x="1.223" y="0.632" font-size="0.026241" fill="hsl(120.0,100%,20%)">mstensho</text>
<text x="1.383" y="0.812" font-size="0.007912" fill="hsl(120.0,100%,20%)">sesse</text>
<text x="1.160" y="0.515" font-size="0.025637" fill="hsl(60.0,100%,20%)">vmpstr</text>
<text x="0.943" y="0.436" font-size="0.022378" fill="hsl(120.0,100%,20%)">moonira</text>
<text x="1.052" y="0.879" font-size="0.005595" fill="hsl(120.0,100%,20%)">chrishtr</text>
<text x="0.053" y="0.362" font-size="0.020933" fill="hsl(60.0,100%,20%)">gastonr</text>
<text x="0.048" y="0.261" font-size="0.007912" fill="hsl(60.0,100%,20%)">avi</text>
<text x="0.880" y="0.308" font-size="0.025020" fill="hsl(120.0,100%,20%)">tkent</text>
<text x="0.179" y="0.392" font-size="0.015824" fill="hsl(60.0,100%,20%)">mustaq</text>
<text x="0.080" y="0.278" font-size="0.005595" fill="hsl(60.0,100%,20%)">arakeri</text>
<text x="0.383" y="0.411" font-size="0.013704" fill="hsl(120.0,100%,20%)">guohuideng</text>
<text x="0.311" y="0.464" font-size="0.009690" fill="hsl(120.0,100%,20%)">jonathanjlee</text>
<text x="0.448" y="0.452" font-size="0.007912" fill="hsl(120.0,100%,20%)">mmocny</text>
<text x="0.460" y="0.373" font-size="0.013704" fill="hsl(120.0,100%,20%)">shaseley</text>
<text x="1.714" y="0.433" font-size="0.009690" fill="hsl(180.0,100%,20%)">helmut</text>
<text x="1.971" y="0.366" font-size="0.005595" fill="hsl(180.0,100%,20%)">yoavweiss</text>
<text x="1.594" y="0.553" font-size="0.013704" fill="hsl(120.0,100%,20%)">dgrogan</text>
<text x="1.273" y="0.110" font-size="0.005595" fill="hsl(60.0,100%,20%)">benjamin.beaudry</text>
<text x="1.520" y="0.071" font-size="0.005595" fill="hsl(60.0,100%,20%)">keithamus</text>
<text x="1.321" y="0.139" font-size="0.016784" fill="hsl(60.0,100%,20%)">dbaron</text>
<text x="1.415" y="0.077" font-size="0.005595" fill="hsl(60.0,100%,20%)">lwarlow</text>
<text x="0.537" y="0.115" font-size="0.023736" fill="hsl(240.0,100%,20%)">javiercon</text>
<text x="0.397" y="0.245" font-size="0.026830" fill="hsl(240.0,100%,20%)">samomekarajr</text>
<text x="0.683" y="0.393" font-size="0.017691" fill="hsl(120.0,100%,20%)">jja08111</text>
<text x="1.795" y="0.718" font-size="0.011189" fill="hsl(120.0,100%,20%)">johna</text>
<text x="1.037" y="0.278" font-size="0.017691" fill="hsl(60.0,100%,20%)">junwei.fu</text>
<text x="1.292" y="0.445" font-size="0.020171" fill="hsl(60.0,100%,20%)">skobes</text>
<text x="0.916" y="0.267" font-size="0.005595" fill="hsl(120.0,100%,20%)">fmalita</text>
<text x="0.304" y="0.359" font-size="0.005595" fill="hsl(240.0,100%,20%)">sisidovski</text>
<text x="1.812" y="0.876" font-size="0.017691" fill="hsl(180.0,100%,20%)">mkwst</text>
<text x="1.875" y="0.899" font-size="0.011189" fill="hsl(180.0,100%,20%)">antoniosartori</text>
<text x="1.793" y="0.893" font-size="0.005595" fill="hsl(180.0,100%,20%)">mlippautz</text>
<text x="1.808" y="0.818" font-size="0.005595" fill="hsl(180.0,100%,20%)">antoniori</text>
<text x="1.847" y="0.928" font-size="0.005595" fill="hsl(180.0,100%,20%)">ddorwin</text>
<text x="1.845" y="0.918" font-size="0.005595" fill="hsl(180.0,100%,20%)">vogelheim</text>
<text x="1.254" y="0.774" font-size="0.029070" fill="hsl(120.0,100%,20%)">sakhapov</text>
<text x="1.144" y="0.552" font-size="0.005595" fill="hsl(120.0,100%,20%)">hiroshige</text>
<text x="1.784" y="0.575" font-size="0.013704" fill="hsl(60.0,100%,20%)">msw</text>
<text x="1.974" y="0.579" font-size="0.005595" fill="hsl(60.0,100%,20%)">cduvall</text>
<text x="1.769" y="0.560" font-size="0.005595" fill="hsl(60.0,100%,20%)">btriebw</text>
<text x="1.869" y="0.629" font-size="0.007912" fill="hsl(60.0,100%,20%)">memmott</text>
<text x="0.739" y="0.513" font-size="0.019380" fill="hsl(60.0,100%,20%)">nrosenthal</text>
<text x="0.616" y="0.439" font-size="0.005595" fill="hsl(60.0,100%,20%)">japhet</text>
<text x="0.587" y="0.333" font-size="0.009690" fill="hsl(120.0,100%,20%)">wangxianzhu</text>
<text x="0.397" y="0.513" font-size="0.013704" fill="hsl(60.0,100%,20%)">perryuwang</text>
<text x="0.426" y="0.520" font-size="0.005595" fill="hsl(60.0,100%,20%)">bokan</text>
<text x="1.492" y="0.150" font-size="0.013704" fill="hsl(300.0,100%,20%)">philipp.hancke</text>
<text x="1.356" y="0.186" font-size="0.005595" fill="hsl(300.0,100%,20%)">guidou</text>
<text x="1.444" y="0.168" font-size="0.009690" fill="hsl(300.0,100%,20%)">hbos</text>
<text x="1.446" y="0.181" font-size="0.007912" fill="hsl(300.0,100%,20%)">hta</text>
<text x="0.511" y="0.501" font-size="0.013704" fill="hsl(120.0,100%,20%)">pranavmodi</text>
<text x="0.352" y="0.485" font-size="0.005595" fill="hsl(120.0,100%,20%)">roraja</text>
<text x="0.543" y="0.534" font-size="0.005595" fill="hsl(120.0,100%,20%)">sambamurthy.bandaru</text>
<text x="0.275" y="0.776" font-size="0.037944" fill="hsl(0.0,100%,20%)">punithbnayak</text>
<text x="0.220" y="0.857" font-size="0.011189" fill="hsl(0.0,100%,20%)">alvinji</text>
<text x="1.615" y="0.451" font-size="0.011189" fill="hsl(60.0,100%,20%)">queeniezhang</text>
<text x="1.687" y="0.476" font-size="0.005595" fill="hsl(60.0,100%,20%)">rmcelrath</text>
<text x="0.536" y="0.543" font-size="0.011189" fill="hsl(120.0,100%,20%)">ragoulik</text>
<text x="0.586" y="0.493" font-size="0.005595" fill="hsl(120.0,100%,20%)">ashishkum</text>
<text x="1.912" y="0.172" font-size="0.009690" fill="hsl(60.0,100%,20%)">ravjit</text>
<text x="1.868" y="0.125" font-size="0.005595" fill="hsl(60.0,100%,20%)">andypaicu</text>
<text x="0.530" y="0.202" font-size="0.007912" fill="hsl(240.0,100%,20%)">kbabbitt</text>
<text x="1.644" y="0.133" font-size="0.012510" fill="hsl(120.0,100%,20%)">sejalanand</text>
<text x="1.491" y="0.175" font-size="0.005595" fill="hsl(120.0,100%,20%)">dileepmaurya</text>
<text x="1.727" y="0.049" font-size="0.005595" fill="hsl(120.0,100%,20%)">dmangal</text>
<text x="0.411" y="0.393" font-size="0.005595" fill="hsl(120.0,100%,20%)">jbroman</text>
<text x="0.420" y="0.364" font-size="0.005595" fill="hsl(120.0,100%,20%)">johannes</text>
<text x="1.952" y="0.505" font-size="0.015824" fill="hsl(60.0,100%,20%)">stephanie.zhang</text>
<text x="1.765" y="0.463" font-size="0.007912" fill="hsl(60.0,100%,20%)">daniec</text>
<text x="1.834" y="0.470" font-size="0.007912" fill="hsl(60.0,100%,20%)">ansollan</text>
<text x="1.912" y="0.695" font-size="0.022378" fill="hsl(180.0,100%,20%)">sureshpotti</text>
<text x="1.917" y="0.805" font-size="0.011189" fill="hsl(180.0,100%,20%)">dtapuska</text>
<text x="1.897" y="0.798" font-size="0.005595" fill="hsl(180.0,100%,20%)">ortuno</text>
<text x="0.261" y="0.527" font-size="0.015824" fill="hsl(60.0,100%,20%)">wei4.wang</text>
<text x="0.304" y="0.539" font-size="0.005595" fill="hsl(60.0,100%,20%)">rafael.cintron</text>
<text x="0.044" y="0.702" font-size="0.013704" fill="hsl(120.0,100%,20%)">yoichio</text>
<text x="0.043" y="0.666" font-size="0.005595" fill="hsl(120.0,100%,20%)">jonross</text>
<text x="0.206" y="0.568" font-size="0.005595" fill="hsl(120.0,100%,20%)">lingqi</text>
<text x="0.059" y="0.671" font-size="0.005595" fill="hsl(120.0,100%,20%)">nhiroki</text>
<text x="0.133" y="0.685" font-size="0.005595" fill="hsl(120.0,100%,20%)">toyoshim</text>
<text x="0.610" y="0.969" font-size="0.017691" fill="hsl(120.0,100%,20%)">zeesuyeon</text>
<text x="0.415" y="0.980" font-size="0.012510" fill="hsl(120.0,100%,20%)">zino</text>
<text x="0.552" y="0.327" font-size="0.012510" fill="hsl(60.0,100%,20%)">zhoupeng.1996</text>
<text x="0.076" y="0.807" font-size="0.012510" fill="hsl(120.0,100%,20%)">zsun</text>
<text x="0.043" y="0.799" font-size="0.005595" fill="hsl(120.0,100%,20%)">schenney</text>
<text x="0.072" y="0.791" font-size="0.005595" fill="hsl(120.0,100%,20%)">emilio</text>
<text x="0.056" y="0.755" font-size="0.007912" fill="hsl(120.0,100%,20%)">rego</text>
</svg>
