<svg width="4000" height="2000" viewBox="-0.025 -0.025 2.05 1.05" xmlns="http://www.w3.org/2000/svg">
  <style>
    path {
      fill: none;
      stroke-linecap: round;
      stroke-opacity: 0.4;
    }

    text {
      text-anchor: middle;
      alignment-baseline: hanging;
    }
  </style>
  <g opacity="0.4">
<path d="M0.046 0.594 Q-0.033 0.662 0.080 0.715" stroke="hsl(0.0,100%,35%)" stroke-width="0.00352"></path>
<path d="M0.046 0.594 Q0.135 0.674 0.310 0.648" stroke="hsl(0.0,100%,35%)" stroke-width="0.01407"></path>
<path d="M0.046 0.594 Q1.247 0.673 1.665 0.104" stroke="hsl(0.0,100%,35%)" stroke-width="0.01407"></path>
<path d="M0.046 0.594 Q1.120 0.639 1.442 0.124" stroke="hsl(0.0,100%,35%)" stroke-width="0.00352"></path>
<path d="M0.898 0.257 Q0.732 0.292 0.764 0.380" stroke="hsl(90.0,100%,35%)" stroke-width="0.01055"></path>
<path d="M0.898 0.257 Q0.966 0.188 0.847 0.139" stroke="hsl(90.0,100%,35%)" stroke-width="0.00352"></path>
<path d="M0.898 0.257 Q0.851 0.164 0.660 0.166" stroke="hsl(90.0,100%,35%)" stroke-width="0.01055"></path>
<path d="M0.764 0.380 Q0.434 0.257 0.121 0.391" stroke="hsl(90.0,100%,35%)" stroke-width="0.00352"></path>
<path d="M0.764 0.380 Q0.775 0.462 0.936 0.474" stroke="hsl(90.0,100%,35%)" stroke-width="0.00703"></path>
<path d="M0.764 0.380 Q0.575 0.419 0.609 0.520" stroke="hsl(90.0,100%,35%)" stroke-width="0.00352"></path>
<path d="M0.764 0.380 Q0.998 0.276 0.847 0.139" stroke="hsl(90.0,100%,35%)" stroke-width="0.00352"></path>
<path d="M0.764 0.380 Q0.930 0.345 0.898 0.257" stroke="hsl(90.0,100%,35%)" stroke-width="0.00703"></path>
<path d="M1.438 0.979 Q1.746 0.510 0.898 0.257" stroke="hsl(90.0,100%,35%)" stroke-width="0.00352"></path>
<path d="M1.438 0.979 Q1.728 0.662 1.173 0.451" stroke="hsl(90.0,100%,35%)" stroke-width="0.00352"></path>
<path d="M1.438 0.979 Q1.494 1.008 1.563 0.987" stroke="hsl(90.0,100%,35%)" stroke-width="0.00352"></path>
<path d="M1.173 0.451 Q1.238 0.508 1.362 0.489" stroke="hsl(180.0,100%,35%)" stroke-width="0.01759"></path>
<path d="M1.173 0.451 Q1.386 0.665 1.849 0.608" stroke="hsl(180.0,100%,35%)" stroke-width="0.00352"></path>
<path d="M1.173 0.451 Q1.241 0.398 1.152 0.353" stroke="hsl(180.0,100%,35%)" stroke-width="0.00352"></path>
<path d="M1.173 0.451 Q1.038 0.743 1.577 0.873" stroke="hsl(180.0,100%,35%)" stroke-width="0.00352"></path>
<path d="M1.173 0.451 Q1.281 0.426 1.255 0.368" stroke="hsl(180.0,100%,35%)" stroke-width="0.00352"></path>
<path d="M1.173 0.451 Q1.100 0.488 1.156 0.532" stroke="hsl(180.0,100%,35%)" stroke-width="0.00352"></path>
<path d="M1.173 0.451 Q0.689 0.674 1.018 0.960" stroke="hsl(180.0,100%,35%)" stroke-width="0.00352"></path>
<path d="M1.173 0.451 Q1.294 0.474 1.364 0.420" stroke="hsl(180.0,100%,35%)" stroke-width="0.00703"></path>
<path d="M1.173 0.451 Q0.731 0.713 1.146 0.986" stroke="hsl(180.0,100%,35%)" stroke-width="0.00352"></path>
<path d="M1.230 0.144 Q1.295 0.217 1.452 0.201" stroke="hsl(90.0,100%,35%)" stroke-width="0.00703"></path>
<path d="M1.230 0.144 Q1.207 0.286 1.479 0.329" stroke="hsl(90.0,100%,35%)" stroke-width="0.00352"></path>
<path d="M1.230 0.144 Q0.895 0.414 1.349 0.637" stroke="hsl(90.0,100%,35%)" stroke-width="0.00352"></path>
<path d="M1.452 0.201 Q1.216 0.464 1.677 0.637" stroke="hsl(90.0,100%,35%)" stroke-width="0.00352"></path>
<path d="M1.452 0.201 Q1.488 0.237 1.567 0.228" stroke="hsl(90.0,100%,35%)" stroke-width="0.00352"></path>
<path d="M1.452 0.201 Q1.538 0.204 1.563 0.163" stroke="hsl(90.0,100%,35%)" stroke-width="0.00352"></path>
<path d="M1.452 0.201 Q1.363 0.270 1.479 0.329" stroke="hsl(90.0,100%,35%)" stroke-width="0.02462"></path>
<path d="M1.479 0.329 Q1.093 0.620 1.577 0.873" stroke="hsl(90.0,100%,35%)" stroke-width="0.00352"></path>
<path d="M1.479 0.329 Q1.423 0.252 1.263 0.263" stroke="hsl(90.0,100%,35%)" stroke-width="0.00352"></path>
<path d="M1.479 0.329 Q1.441 0.463 1.695 0.510" stroke="hsl(90.0,100%,35%)" stroke-width="0.00703"></path>
<path d="M1.479 0.329 Q1.567 0.259 1.452 0.201" stroke="hsl(90.0,100%,35%)" stroke-width="0.00703"></path>
<path d="M1.349 0.637 Q1.273 0.473 0.936 0.474" stroke="hsl(90.0,100%,35%)" stroke-width="0.00352"></path>
<path d="M1.349 0.637 Q1.750 0.440 1.452 0.201" stroke="hsl(90.0,100%,35%)" stroke-width="0.00352"></path>
<path d="M1.349 0.637 Q1.661 0.509 1.479 0.329" stroke="hsl(90.0,100%,35%)" stroke-width="0.00703"></path>
<path d="M1.349 0.637 Q1.513 0.703 1.677 0.637" stroke="hsl(90.0,100%,35%)" stroke-width="0.00352"></path>
<path d="M1.940 0.782 Q1.970 0.741 1.897 0.718" stroke="hsl(90.0,100%,35%)" stroke-width="0.00352"></path>
<path d="M1.940 0.782 Q1.797 0.755 1.715 0.819" stroke="hsl(90.0,100%,35%)" stroke-width="0.00352"></path>
<path d="M1.940 0.782 Q1.729 0.831 1.780 0.945" stroke="hsl(90.0,100%,35%)" stroke-width="0.00352"></path>
<path d="M1.940 0.782 Q1.924 0.657 1.677 0.637" stroke="hsl(90.0,100%,35%)" stroke-width="0.00352"></path>
<path d="M1.780 0.945 Q1.848 0.869 1.715 0.819" stroke="hsl(90.0,100%,35%)" stroke-width="0.00703"></path>
<path d="M1.780 0.945 Q1.882 0.931 1.878 0.878" stroke="hsl(90.0,100%,35%)" stroke-width="0.00352"></path>
<path d="M1.780 0.945 Q1.810 0.705 1.349 0.637" stroke="hsl(90.0,100%,35%)" stroke-width="0.00352"></path>
<path d="M1.018 0.960 Q1.060 0.999 1.146 0.986" stroke="hsl(180.0,100%,35%)" stroke-width="0.00703"></path>
<path d="M1.018 0.960 Q1.502 0.737 1.173 0.451" stroke="hsl(180.0,100%,35%)" stroke-width="0.00352"></path>
<path d="M1.018 0.960 Q1.623 0.759 1.364 0.420" stroke="hsl(180.0,100%,35%)" stroke-width="0.00352"></path>
<path d="M1.146 0.986 Q1.103 0.948 1.018 0.960" stroke="hsl(180.0,100%,35%)" stroke-width="0.00703"></path>
<path d="M1.146 0.986 Q1.587 0.725 1.173 0.451" stroke="hsl(180.0,100%,35%)" stroke-width="0.00352"></path>
<path d="M1.146 0.986 Q1.652 0.781 1.362 0.489" stroke="hsl(180.0,100%,35%)" stroke-width="0.00352"></path>
<path d="M1.364 0.420 Q1.243 0.397 1.173 0.451" stroke="hsl(180.0,100%,35%)" stroke-width="0.02110"></path>
<path d="M1.364 0.420 Q0.759 0.620 1.018 0.960" stroke="hsl(180.0,100%,35%)" stroke-width="0.00703"></path>
<path d="M1.364 0.420 Q1.516 0.367 1.448 0.282" stroke="hsl(180.0,100%,35%)" stroke-width="0.00352"></path>
<path d="M1.364 0.420 Q1.308 0.454 1.362 0.489" stroke="hsl(180.0,100%,35%)" stroke-width="0.01055"></path>
<path d="M1.364 0.420 Q0.801 0.659 1.146 0.986" stroke="hsl(180.0,100%,35%)" stroke-width="0.00703"></path>
<path d="M1.953 0.516 Q1.925 0.527 1.939 0.543" stroke="hsl(90.0,100%,35%)" stroke-width="0.00352"></path>
<path d="M1.953 0.516 Q1.961 0.443 1.819 0.422" stroke="hsl(90.0,100%,35%)" stroke-width="0.00703"></path>
<path d="M1.953 0.516 Q1.345 0.061 0.323 0.257" stroke="hsl(90.0,100%,35%)" stroke-width="0.00352"></path>
<path d="M1.819 0.422 Q1.577 0.501 1.677 0.637" stroke="hsl(90.0,100%,35%)" stroke-width="0.00352"></path>
<path d="M1.819 0.422 Q1.336 0.272 0.936 0.474" stroke="hsl(90.0,100%,35%)" stroke-width="0.00352"></path>
<path d="M1.819 0.422 Q1.752 0.374 1.642 0.396" stroke="hsl(90.0,100%,35%)" stroke-width="0.01055"></path>
<path d="M1.819 0.422 Q1.016 0.022 0.058 0.326" stroke="hsl(90.0,100%,35%)" stroke-width="0.00352"></path>
<path d="M0.323 0.956 Q0.275 0.881 0.118 0.888" stroke="hsl(270.0,100%,35%)" stroke-width="0.01055"></path>
<path d="M0.323 0.956 Q0.285 0.908 0.184 0.917" stroke="hsl(270.0,100%,35%)" stroke-width="0.00352"></path>
<path d="M0.323 0.956 Q0.350 0.895 0.237 0.869" stroke="hsl(270.0,100%,35%)" stroke-width="0.00352"></path>
<path d="M0.323 0.956 Q0.573 0.653 0.037 0.465" stroke="hsl(270.0,100%,35%)" stroke-width="0.00703"></path>
<path d="M1.122 0.829 Q1.048 0.811 0.997 0.843" stroke="hsl(90.0,100%,35%)" stroke-width="0.00352"></path>
<path d="M1.122 0.829 Q1.279 0.832 1.320 0.756" stroke="hsl(90.0,100%,35%)" stroke-width="0.00352"></path>
<path d="M1.122 0.829 Q1.695 0.906 1.970 0.643" stroke="hsl(90.0,100%,35%)" stroke-width="0.00352"></path>
<path d="M1.122 0.829 Q1.701 0.650 1.479 0.329" stroke="hsl(90.0,100%,35%)" stroke-width="0.00352"></path>
<path d="M1.970 0.643 Q1.664 0.516 1.349 0.637" stroke="hsl(90.0,100%,35%)" stroke-width="0.00352"></path>
<path d="M1.970 0.643 Q1.792 0.722 1.908 0.827" stroke="hsl(90.0,100%,35%)" stroke-width="0.00703"></path>
<path d="M1.970 0.643 Q1.937 0.601 1.849 0.608" stroke="hsl(90.0,100%,35%)" stroke-width="0.00703"></path>
<path d="M1.371 0.901 Q1.497 0.928 1.577 0.873" stroke="hsl(180.0,100%,35%)" stroke-width="0.00352"></path>
<path d="M1.371 0.901 Q1.389 0.955 1.497 0.958" stroke="hsl(180.0,100%,35%)" stroke-width="0.00352"></path>
<path d="M1.371 0.901 Q1.355 0.840 1.232 0.834" stroke="hsl(180.0,100%,35%)" stroke-width="0.00352"></path>
<path d="M1.371 0.901 Q1.417 0.975 1.570 0.968" stroke="hsl(180.0,100%,35%)" stroke-width="0.00352"></path>
<path d="M1.371 0.901 Q1.446 0.847 1.357 0.799" stroke="hsl(180.0,100%,35%)" stroke-width="0.00352"></path>
<path d="M1.127 0.308 Q1.100 0.445 1.362 0.489" stroke="hsl(180.0,100%,35%)" stroke-width="0.00352"></path>
<path d="M1.127 0.308 Q1.215 0.195 1.015 0.128" stroke="hsl(180.0,100%,35%)" stroke-width="0.01407"></path>
<path d="M1.127 0.308 Q1.115 0.326 1.149 0.337" stroke="hsl(180.0,100%,35%)" stroke-width="0.01407"></path>
<path d="M0.936 0.474 Q0.925 0.393 0.764 0.380" stroke="hsl(90.0,100%,35%)" stroke-width="0.02814"></path>
<path d="M0.936 0.474 Q1.091 0.358 0.898 0.257" stroke="hsl(90.0,100%,35%)" stroke-width="0.03166"></path>
<path d="M0.936 0.474 Q1.073 0.510 1.173 0.451" stroke="hsl(90.0,100%,35%)" stroke-width="0.00352"></path>
<path d="M0.936 0.474 Q1.012 0.638 1.349 0.637" stroke="hsl(90.0,100%,35%)" stroke-width="0.00703"></path>
<path d="M0.058 0.326 Q-0.064 0.391 0.037 0.465" stroke="hsl(270.0,100%,35%)" stroke-width="0.01055"></path>
<path d="M0.058 0.326 Q0.053 0.518 0.427 0.563" stroke="hsl(270.0,100%,35%)" stroke-width="0.00352"></path>
<path d="M0.058 0.326 Q0.038 0.371 0.121 0.391" stroke="hsl(270.0,100%,35%)" stroke-width="0.00703"></path>
<path d="M0.058 0.326 Q0.862 0.726 1.819 0.422" stroke="hsl(270.0,100%,35%)" stroke-width="0.00352"></path>
<path d="M0.121 0.391 Q0.262 0.553 0.609 0.520" stroke="hsl(270.0,100%,35%)" stroke-width="0.00352"></path>
<path d="M0.121 0.391 Q0.617 0.479 0.898 0.257" stroke="hsl(270.0,100%,35%)" stroke-width="0.00352"></path>
<path d="M0.121 0.391 Q0.142 0.346 0.058 0.326" stroke="hsl(270.0,100%,35%)" stroke-width="0.00703"></path>
<path d="M0.121 0.391 Q0.451 0.514 0.764 0.380" stroke="hsl(270.0,100%,35%)" stroke-width="0.00352"></path>
<path d="M0.609 0.520 Q0.558 0.603 0.707 0.646" stroke="hsl(270.0,100%,35%)" stroke-width="0.01759"></path>
<path d="M0.609 0.520 Q0.469 0.358 0.121 0.391" stroke="hsl(270.0,100%,35%)" stroke-width="0.00352"></path>
<path d="M0.609 0.520 Q0.691 0.624 0.912 0.607" stroke="hsl(270.0,100%,35%)" stroke-width="0.00352"></path>
<path d="M1.085 0.653 Q1.199 0.938 1.780 0.945" stroke="hsl(90.0,100%,35%)" stroke-width="0.00352"></path>
<path d="M1.085 0.653 Q1.057 0.702 1.148 0.727" stroke="hsl(90.0,100%,35%)" stroke-width="0.00352"></path>
<path d="M1.085 0.653 Q1.504 0.703 1.695 0.510" stroke="hsl(90.0,100%,35%)" stroke-width="0.00703"></path>
<path d="M1.085 0.653 Q1.120 0.752 1.320 0.756" stroke="hsl(90.0,100%,35%)" stroke-width="0.00352"></path>
<path d="M1.085 0.653 Q0.660 0.775 0.804 1.009" stroke="hsl(90.0,100%,35%)" stroke-width="0.00352"></path>
<path d="M1.695 0.510 Q1.585 0.570 1.677 0.637" stroke="hsl(90.0,100%,35%)" stroke-width="0.01407"></path>
<path d="M1.695 0.510 Q1.827 0.491 1.819 0.422" stroke="hsl(90.0,100%,35%)" stroke-width="0.02110"></path>
<path d="M1.695 0.510 Q1.759 0.428 1.612 0.378" stroke="hsl(90.0,100%,35%)" stroke-width="0.00352"></path>
<path d="M0.329 0.356 Q0.778 0.766 1.677 0.637" stroke="hsl(270.0,100%,35%)" stroke-width="0.00352"></path>
<path d="M0.329 0.356 Q0.470 0.354 0.496 0.285" stroke="hsl(270.0,100%,35%)" stroke-width="0.01407"></path>
<path d="M0.329 0.356 Q0.338 0.494 0.609 0.520" stroke="hsl(270.0,100%,35%)" stroke-width="0.00352"></path>
<path d="M0.329 0.356 Q0.385 0.406 0.494 0.390" stroke="hsl(270.0,100%,35%)" stroke-width="0.01055"></path>
<path d="M0.329 0.356 Q0.197 0.332 0.121 0.391" stroke="hsl(270.0,100%,35%)" stroke-width="0.00352"></path>
<path d="M0.329 0.356 Q0.693 0.420 0.898 0.257" stroke="hsl(270.0,100%,35%)" stroke-width="0.00352"></path>
<path d="M0.496 0.285 Q0.365 0.425 0.609 0.520" stroke="hsl(270.0,100%,35%)" stroke-width="0.01407"></path>
<path d="M0.496 0.285 Q0.432 0.237 0.323 0.257" stroke="hsl(270.0,100%,35%)" stroke-width="0.00703"></path>
<path d="M0.496 0.285 Q0.412 0.337 0.494 0.390" stroke="hsl(270.0,100%,35%)" stroke-width="0.01407"></path>
<path d="M0.496 0.285 Q0.356 0.287 0.329 0.356" stroke="hsl(270.0,100%,35%)" stroke-width="0.00352"></path>
<path d="M0.496 0.285 Q0.392 0.178 0.160 0.205" stroke="hsl(270.0,100%,35%)" stroke-width="0.00352"></path>
<path d="M0.570 0.989 Q1.516 0.975 1.695 0.510" stroke="hsl(90.0,100%,35%)" stroke-width="0.00352"></path>
<path d="M0.570 0.989 Q0.704 0.956 0.669 0.884" stroke="hsl(90.0,100%,35%)" stroke-width="0.02814"></path>
<path d="M0.570 0.989 Q0.671 1.046 0.804 1.009" stroke="hsl(90.0,100%,35%)" stroke-width="0.02814"></path>
<path d="M0.570 0.989 Q0.602 0.929 0.492 0.901" stroke="hsl(90.0,100%,35%)" stroke-width="0.02110"></path>
<path d="M1.893 0.258 Q1.902 0.282 1.950 0.283" stroke="hsl(90.0,100%,35%)" stroke-width="0.00352"></path>
<path d="M1.893 0.258 Q1.243 0.502 1.577 0.873" stroke="hsl(90.0,100%,35%)" stroke-width="0.00352"></path>
<path d="M1.893 0.258 Q1.903 0.221 1.834 0.208" stroke="hsl(90.0,100%,35%)" stroke-width="0.00352"></path>
<path d="M0.362 0.758 Q0.266 0.708 0.148 0.744" stroke="hsl(90.0,100%,35%)" stroke-width="0.00352"></path>
<path d="M0.362 0.758 Q0.952 0.895 1.349 0.637" stroke="hsl(90.0,100%,35%)" stroke-width="0.00352"></path>
<path d="M0.362 0.758 Q1.116 0.961 1.677 0.637" stroke="hsl(90.0,100%,35%)" stroke-width="0.00352"></path>
<path d="M1.472 0.064 Q1.536 0.123 1.665 0.104" stroke="hsl(0.0,100%,35%)" stroke-width="0.01407"></path>
<path d="M1.472 0.064 Q0.424 0.123 0.310 0.648" stroke="hsl(0.0,100%,35%)" stroke-width="0.00352"></path>
<path d="M1.472 0.064 Q1.409 0.088 1.442 0.124" stroke="hsl(0.0,100%,35%)" stroke-width="0.01055"></path>
<path d="M0.337 0.500 Q-0.035 0.725 0.323 0.956" stroke="hsl(270.0,100%,35%)" stroke-width="0.00352"></path>
<path d="M0.337 0.500 Q0.327 0.475 0.276 0.475" stroke="hsl(270.0,100%,35%)" stroke-width="0.00352"></path>
<path d="M0.337 0.500 Q0.332 0.549 0.427 0.563" stroke="hsl(270.0,100%,35%)" stroke-width="0.00352"></path>
<path d="M0.337 0.500 Q0.255 0.529 0.295 0.575" stroke="hsl(270.0,100%,35%)" stroke-width="0.00352"></path>
<path d="M0.337 0.500 Q0.319 0.535 0.384 0.552" stroke="hsl(270.0,100%,35%)" stroke-width="0.00352"></path>
<path d="M0.337 0.500 Q0.328 0.554 0.432 0.571" stroke="hsl(270.0,100%,35%)" stroke-width="0.00352"></path>
<path d="M1.097 0.047 Q0.991 0.071 1.015 0.128" stroke="hsl(180.0,100%,35%)" stroke-width="0.01759"></path>
<path d="M1.097 0.047 Q1.030 0.002 0.926 0.024" stroke="hsl(180.0,100%,35%)" stroke-width="0.02462"></path>
<path d="M1.097 0.047 Q1.181 0.100 1.303 0.071" stroke="hsl(180.0,100%,35%)" stroke-width="0.00352"></path>
<path d="M1.560 0.720 Q1.558 0.801 1.715 0.819" stroke="hsl(90.0,100%,35%)" stroke-width="0.00352"></path>
<path d="M1.560 0.720 Q1.567 0.744 1.614 0.745" stroke="hsl(90.0,100%,35%)" stroke-width="0.00703"></path>
<path d="M1.560 0.720 Q1.480 0.700 1.422 0.735" stroke="hsl(90.0,100%,35%)" stroke-width="0.00352"></path>
<path d="M1.560 0.720 Q1.428 0.727 1.413 0.793" stroke="hsl(90.0,100%,35%)" stroke-width="0.00703"></path>
<path d="M1.657 0.270 Q0.792 0.023 0.121 0.391" stroke="hsl(90.0,100%,35%)" stroke-width="0.00352"></path>
<path d="M1.657 0.270 Q1.712 0.264 1.714 0.236" stroke="hsl(90.0,100%,35%)" stroke-width="0.00352"></path>
<path d="M1.657 0.270 Q1.548 0.330 1.642 0.396" stroke="hsl(90.0,100%,35%)" stroke-width="0.00352"></path>
</g>
<text x="0.046" y="0.581" font-size="0.026726" fill="hsl(0.0,100%,20%)">2mesaqlain</text>
<text x="0.080" y="0.711" font-size="0.008452" fill="hsl(0.0,100%,20%)">hongchan</text>
<text x="0.310" y="0.638" font-size="0.018898" fill="hsl(0.0,100%,20%)">mjwilson</text>
<text x="1.665" y="0.092" font-size="0.023905" fill="hsl(0.0,100%,20%)">alvinji</text>
<text x="1.442" y="0.116" font-size="0.016903" fill="hsl(0.0,100%,20%)">asraine</text>
<text x="0.898" y="0.237" font-size="0.038730" fill="hsl(90.0,100%,20%)">andruud</text>
<text x="0.764" y="0.362" font-size="0.036839" fill="hsl(90.0,100%,20%)">futhark</text>
<text x="0.847" y="0.133" font-size="0.011952" fill="hsl(90.0,100%,20%)">sesse</text>
<text x="0.660" y="0.159" font-size="0.014639" fill="hsl(90.0,100%,20%)">moonira</text>
<text x="1.438" y="0.972" font-size="0.014639" fill="hsl(90.0,100%,20%)">andypaicu</text>
<text x="1.173" y="0.431" font-size="0.041404" fill="hsl(180.0,100%,20%)">masonf</text>
<text x="1.563" y="0.983" font-size="0.008452" fill="hsl(90.0,100%,20%)">tungnh</text>
<text x="1.230" y="0.135" font-size="0.016903" fill="hsl(90.0,100%,20%)">awogbemila</text>
<text x="1.452" y="0.185" font-size="0.032733" fill="hsl(90.0,100%,20%)">kevers</text>
<text x="1.479" y="0.311" font-size="0.034847" fill="hsl(90.0,100%,20%)">vmpstr</text>
<text x="1.349" y="0.623" font-size="0.028031" fill="hsl(90.0,100%,20%)">flackr</text>
<text x="1.940" y="0.773" font-size="0.016903" fill="hsl(90.0,100%,20%)">carlosil</text>
<text x="1.897" y="0.713" font-size="0.008452" fill="hsl(90.0,100%,20%)">cduvall</text>
<text x="1.715" y="0.811" font-size="0.016903" fill="hsl(90.0,100%,20%)">clamy</text>
<text x="1.780" y="0.934" font-size="0.020702" fill="hsl(90.0,100%,20%)">meacer</text>
<text x="1.677" y="0.624" font-size="0.026726" fill="hsl(90.0,100%,20%)">pdr</text>
<text x="1.018" y="0.947" font-size="0.025355" fill="hsl(180.0,100%,20%)">dizhangg</text>
<text x="1.146" y="0.974" font-size="0.025355" fill="hsl(180.0,100%,20%)">dom</text>
<text x="1.364" y="0.402" font-size="0.034847" fill="hsl(180.0,100%,20%)">jarhar</text>
<text x="1.953" y="0.508" font-size="0.016903" fill="hsl(90.0,100%,20%)">dmangal</text>
<text x="1.939" y="0.539" font-size="0.008452" fill="hsl(90.0,100%,20%)">vinaysingh</text>
<text x="1.819" y="0.406" font-size="0.032733" fill="hsl(90.0,100%,20%)">fs</text>
<text x="0.323" y="0.250" font-size="0.014639" fill="hsl(270.0,100%,20%)">kschmi</text>
<text x="1.362" y="0.475" font-size="0.026726" fill="hsl(180.0,100%,20%)">dbaron</text>
<text x="0.323" y="0.944" font-size="0.023905" fill="hsl(270.0,100%,20%)">domenic</text>
<text x="0.118" y="0.880" font-size="0.014639" fill="hsl(270.0,100%,20%)">nhiroki</text>
<text x="0.184" y="0.913" font-size="0.008452" fill="hsl(270.0,100%,20%)">weizhong</text>
<text x="0.237" y="0.865" font-size="0.008452" fill="hsl(270.0,100%,20%)">hiroshige</text>
<text x="0.037" y="0.456" font-size="0.018898" fill="hsl(270.0,100%,20%)">tkent</text>
<text x="1.122" y="0.821" font-size="0.016903" fill="hsl(90.0,100%,20%)">eainchen</text>
<text x="0.997" y="0.838" font-size="0.008452" fill="hsl(90.0,100%,20%)">lzhao</text>
<text x="1.320" y="0.750" font-size="0.011952" fill="hsl(90.0,100%,20%)">yyanagisawa</text>
<text x="1.970" y="0.632" font-size="0.020702" fill="hsl(90.0,100%,20%)">gastonr</text>
<text x="1.371" y="0.892" font-size="0.018898" fill="hsl(180.0,100%,20%)">evliu</text>
<text x="1.577" y="0.865" font-size="0.016903" fill="hsl(90.0,100%,20%)">dcheng</text>
<text x="1.497" y="0.954" font-size="0.008452" fill="hsl(180.0,100%,20%)">ffred</text>
<text x="1.232" y="0.830" font-size="0.008452" fill="hsl(180.0,100%,20%)">liberato</text>
<text x="1.570" y="0.964" font-size="0.008452" fill="hsl(180.0,100%,20%)">rbyers</text>
<text x="1.357" y="0.795" font-size="0.008452" fill="hsl(180.0,100%,20%)">yrw</text>
<text x="1.127" y="0.295" font-size="0.025355" fill="hsl(180.0,100%,20%)">feng.dai</text>
<text x="1.015" y="0.115" font-size="0.025355" fill="hsl(180.0,100%,20%)">ningxin.hu</text>
<text x="1.149" y="0.328" font-size="0.016903" fill="hsl(180.0,100%,20%)">reillyg</text>
<text x="0.936" y="0.453" font-size="0.041404" fill="hsl(90.0,100%,20%)">sakhapov</text>
<text x="1.642" y="0.388" font-size="0.016903" fill="hsl(90.0,100%,20%)">schenney</text>
<text x="0.058" y="0.313" font-size="0.026726" fill="hsl(270.0,100%,20%)">kojii</text>
<text x="0.121" y="0.377" font-size="0.028031" fill="hsl(270.0,100%,20%)">mstensho</text>
<text x="0.609" y="0.505" font-size="0.031623" fill="hsl(270.0,100%,20%)">ikilpatrick</text>
<text x="1.908" y="0.821" font-size="0.011952" fill="hsl(90.0,100%,20%)">gerchiko</text>
<text x="1.849" y="0.601" font-size="0.014639" fill="hsl(90.0,100%,20%)">mustaq</text>
<text x="1.085" y="0.642" font-size="0.020702" fill="hsl(90.0,100%,20%)">guohuideng</text>
<text x="1.148" y="0.723" font-size="0.008452" fill="hsl(90.0,100%,20%)">nidhijaju</text>
<text x="1.695" y="0.493" font-size="0.033806" fill="hsl(90.0,100%,20%)">nrosenthal</text>
<text x="0.804" y="0.996" font-size="0.025355" fill="hsl(90.0,100%,20%)">shaseley</text>
<text x="0.707" y="0.636" font-size="0.018898" fill="hsl(270.0,100%,20%)">dgrogan</text>
<text x="0.912" y="0.603" font-size="0.008452" fill="hsl(270.0,100%,20%)">obrufau</text>
<text x="1.448" y="0.277" font-size="0.008452" fill="hsl(180.0,100%,20%)">lwarlow</text>
<text x="0.329" y="0.342" font-size="0.029277" fill="hsl(270.0,100%,20%)">javiercon</text>
<text x="0.496" y="0.268" font-size="0.033806" fill="hsl(270.0,100%,20%)">samomekarajr</text>
<text x="0.494" y="0.378" font-size="0.022361" fill="hsl(270.0,100%,20%)">almaher</text>
<text x="0.570" y="0.969" font-size="0.040532" fill="hsl(90.0,100%,20%)">johannes</text>
<text x="0.669" y="0.872" font-size="0.023905" fill="hsl(90.0,100%,20%)">mmocny</text>
<text x="0.492" y="0.890" font-size="0.020702" fill="hsl(90.0,100%,20%)">sullivan</text>
<text x="1.567" y="0.224" font-size="0.008452" fill="hsl(90.0,100%,20%)">vollick</text>
<text x="1.563" y="0.159" font-size="0.008452" fill="hsl(90.0,100%,20%)">skobes</text>
<text x="0.427" y="0.557" font-size="0.011952" fill="hsl(270.0,100%,20%)">lingqi</text>
<text x="1.152" y="0.349" font-size="0.008452" fill="hsl(180.0,100%,20%)">boliu</text>
<text x="1.255" y="0.364" font-size="0.008452" fill="hsl(180.0,100%,20%)">dtseng</text>
<text x="1.156" y="0.528" font-size="0.008452" fill="hsl(180.0,100%,20%)">twellington</text>
<text x="1.878" y="0.874" font-size="0.008452" fill="hsl(90.0,100%,20%)">antoniosartori</text>
<text x="1.893" y="0.251" font-size="0.014639" fill="hsl(90.0,100%,20%)">msw</text>
<text x="1.950" y="0.279" font-size="0.008452" fill="hsl(180.0,100%,20%)">btriebw</text>
<text x="1.834" y="0.204" font-size="0.008452" fill="hsl(180.0,100%,20%)">christinesm</text>
<text x="1.612" y="0.374" font-size="0.008452" fill="hsl(90.0,100%,20%)">bratell.d</text>
<text x="0.362" y="0.751" font-size="0.014639" fill="hsl(90.0,100%,20%)">perryuwang</text>
<text x="0.148" y="0.740" font-size="0.008452" fill="hsl(90.0,100%,20%)">szager</text>
<text x="1.472" y="0.052" font-size="0.023905" fill="hsl(0.0,100%,20%)">punithbnayak</text>
<text x="0.160" y="0.201" font-size="0.008452" fill="hsl(270.0,100%,20%)">kbabbitt</text>
<text x="0.337" y="0.489" font-size="0.020702" fill="hsl(270.0,100%,20%)">tnak</text>
<text x="0.276" y="0.470" font-size="0.008452" fill="hsl(270.0,100%,20%)">kenoss</text>
<text x="0.295" y="0.571" font-size="0.008452" fill="hsl(270.0,100%,20%)">rakina</text>
<text x="0.384" y="0.548" font-size="0.008452" fill="hsl(270.0,100%,20%)">taiyo</text>
<text x="0.432" y="0.566" font-size="0.008452" fill="hsl(270.0,100%,20%)">toyoshim</text>
<text x="1.263" y="0.258" font-size="0.008452" fill="hsl(90.0,100%,20%)">joenotcharles</text>
<text x="1.097" y="0.032" font-size="0.030472" fill="hsl(180.0,100%,20%)">wei4.wang</text>
<text x="0.926" y="0.013" font-size="0.022361" fill="hsl(180.0,100%,20%)">phillis</text>
<text x="1.303" y="0.066" font-size="0.008452" fill="hsl(180.0,100%,20%)">junwei.fu</text>
<text x="1.560" y="0.710" font-size="0.020702" fill="hsl(90.0,100%,20%)">yoavweiss</text>
<text x="1.614" y="0.739" font-size="0.011952" fill="hsl(90.0,100%,20%)">cfredric</text>
<text x="1.422" y="0.731" font-size="0.008452" fill="hsl(90.0,100%,20%)">dylancutler</text>
<text x="1.413" y="0.787" font-size="0.011952" fill="hsl(90.0,100%,20%)">morlovich</text>
<text x="1.657" y="0.262" font-size="0.014639" fill="hsl(90.0,100%,20%)">zsun</text>
<text x="1.714" y="0.232" font-size="0.008452" fill="hsl(90.0,100%,20%)">rego</text>
</svg>
