<svg width="4000" height="2000" viewBox="-0.025 -0.025 2.05 1.05" xmlns="http://www.w3.org/2000/svg">
  <style>
    path {
      fill: none;
      stroke-linecap: round;
      stroke-opacity: 0.4;
    }

    text {
      text-anchor: middle;
      alignment-baseline: hanging;
    }
  </style>
  <g opacity="0.4">
<path d="M1.708 0.311 Q1.924 0.267 1.884 0.152" stroke="hsl(0.0,100%,35%)" stroke-width="0.00456"></path>
<path d="M1.708 0.311 Q1.751 0.247 1.634 0.212" stroke="hsl(0.0,100%,35%)" stroke-width="0.00912"></path>
<path d="M1.708 0.311 Q1.832 0.305 1.847 0.243" stroke="hsl(0.0,100%,35%)" stroke-width="0.01216"></path>
<path d="M1.708 0.311 Q1.814 0.244 1.706 0.178" stroke="hsl(0.0,100%,35%)" stroke-width="0.00608"></path>
<path d="M1.388 0.319 Q1.254 0.295 1.177 0.355" stroke="hsl(45.0,100%,35%)" stroke-width="0.00608"></path>
<path d="M1.388 0.319 Q1.280 0.384 1.382 0.450" stroke="hsl(45.0,100%,35%)" stroke-width="0.00608"></path>
<path d="M1.388 0.319 Q1.099 0.164 0.733 0.271" stroke="hsl(45.0,100%,35%)" stroke-width="0.00304"></path>
<path d="M1.177 0.355 Q0.729 0.597 1.103 0.868" stroke="hsl(45.0,100%,35%)" stroke-width="0.00152"></path>
<path d="M1.177 0.355 Q1.094 0.331 1.029 0.366" stroke="hsl(45.0,100%,35%)" stroke-width="0.01520"></path>
<path d="M1.177 0.355 Q1.203 0.444 1.382 0.450" stroke="hsl(45.0,100%,35%)" stroke-width="0.00608"></path>
<path d="M1.177 0.355 Q1.648 0.266 1.579 0.017" stroke="hsl(45.0,100%,35%)" stroke-width="0.00152"></path>
<path d="M1.177 0.355 Q1.319 0.469 1.573 0.424" stroke="hsl(45.0,100%,35%)" stroke-width="0.00304"></path>
<path d="M1.177 0.355 Q0.836 0.701 1.436 0.943" stroke="hsl(45.0,100%,35%)" stroke-width="0.00152"></path>
<path d="M1.177 0.355 Q1.095 0.155 0.686 0.151" stroke="hsl(45.0,100%,35%)" stroke-width="0.00152"></path>
<path d="M1.382 0.450 Q1.551 0.377 1.445 0.278" stroke="hsl(45.0,100%,35%)" stroke-width="0.01064"></path>
<path d="M1.382 0.450 Q1.498 0.476 1.573 0.424" stroke="hsl(45.0,100%,35%)" stroke-width="0.00608"></path>
<path d="M1.382 0.450 Q1.358 0.539 1.526 0.570" stroke="hsl(45.0,100%,35%)" stroke-width="0.00152"></path>
<path d="M0.733 0.271 Q0.806 0.202 0.686 0.151" stroke="hsl(90.0,100%,35%)" stroke-width="0.02887"></path>
<path d="M0.733 0.271 Q0.529 0.360 0.658 0.479" stroke="hsl(90.0,100%,35%)" stroke-width="0.00304"></path>
<path d="M0.733 0.271 Q0.879 0.287 0.942 0.219" stroke="hsl(90.0,100%,35%)" stroke-width="0.00304"></path>
<path d="M0.733 0.271 Q0.617 0.324 0.696 0.393" stroke="hsl(90.0,100%,35%)" stroke-width="0.01216"></path>
<path d="M0.733 0.271 Q0.630 0.234 0.536 0.276" stroke="hsl(90.0,100%,35%)" stroke-width="0.00304"></path>
<path d="M0.733 0.271 Q1.031 0.516 1.573 0.424" stroke="hsl(90.0,100%,35%)" stroke-width="0.00304"></path>
<path d="M0.733 0.271 Q0.914 0.491 1.382 0.450" stroke="hsl(90.0,100%,35%)" stroke-width="0.00152"></path>
<path d="M0.733 0.271 Q0.547 0.748 1.436 0.943" stroke="hsl(90.0,100%,35%)" stroke-width="0.00152"></path>
<path d="M0.733 0.271 Q0.213 0.418 0.386 0.705" stroke="hsl(90.0,100%,35%)" stroke-width="0.00152"></path>
<path d="M0.686 0.151 Q0.613 0.220 0.733 0.271" stroke="hsl(90.0,100%,35%)" stroke-width="0.01671"></path>
<path d="M0.686 0.151 Q0.567 0.126 0.493 0.179" stroke="hsl(90.0,100%,35%)" stroke-width="0.00608"></path>
<path d="M0.686 0.151 Q0.093 0.368 0.386 0.705" stroke="hsl(90.0,100%,35%)" stroke-width="0.00152"></path>
<path d="M0.686 0.151 Q0.041 0.435 0.454 0.812" stroke="hsl(90.0,100%,35%)" stroke-width="0.00152"></path>
<path d="M0.686 0.151 Q0.511 0.183 0.536 0.276" stroke="hsl(90.0,100%,35%)" stroke-width="0.00152"></path>
<path d="M0.686 0.151 Q0.033 0.244 0.071 0.583" stroke="hsl(90.0,100%,35%)" stroke-width="0.00152"></path>
<path d="M0.493 0.179 Q0.612 0.203 0.686 0.151" stroke="hsl(90.0,100%,35%)" stroke-width="0.01064"></path>
<path d="M0.493 0.179 Q0.402 0.646 1.295 0.793" stroke="hsl(90.0,100%,35%)" stroke-width="0.00304"></path>
<path d="M0.493 0.179 Q0.423 0.326 0.696 0.393" stroke="hsl(90.0,100%,35%)" stroke-width="0.00152"></path>
<path d="M0.493 0.179 Q0.539 0.273 0.733 0.271" stroke="hsl(90.0,100%,35%)" stroke-width="0.00152"></path>
<path d="M0.386 0.705 Q0.613 0.930 1.103 0.868" stroke="hsl(135.0,100%,35%)" stroke-width="0.00152"></path>
<path d="M0.386 0.705 Q0.346 0.734 0.396 0.760" stroke="hsl(135.0,100%,35%)" stroke-width="0.00152"></path>
<path d="M0.386 0.705 Q0.263 0.675 0.179 0.729" stroke="hsl(135.0,100%,35%)" stroke-width="0.00152"></path>
<path d="M0.386 0.705 Q0.371 0.628 0.218 0.618" stroke="hsl(135.0,100%,35%)" stroke-width="0.01520"></path>
<path d="M0.386 0.705 Q0.892 0.668 0.932 0.413" stroke="hsl(135.0,100%,35%)" stroke-width="0.00152"></path>
<path d="M0.386 0.705 Q0.325 0.581 0.071 0.583" stroke="hsl(135.0,100%,35%)" stroke-width="0.00152"></path>
<path d="M0.536 0.276 Q0.360 0.457 0.674 0.582" stroke="hsl(90.0,100%,35%)" stroke-width="0.00152"></path>
<path d="M0.536 0.276 Q0.638 0.313 0.733 0.271" stroke="hsl(90.0,100%,35%)" stroke-width="0.00456"></path>
<path d="M0.536 0.276 Q0.711 0.244 0.686 0.151" stroke="hsl(90.0,100%,35%)" stroke-width="0.00912"></path>
<path d="M0.071 0.583 Q0.131 0.707 0.386 0.705" stroke="hsl(135.0,100%,35%)" stroke-width="0.00760"></path>
<path d="M0.071 0.583 Q0.116 0.630 0.218 0.618" stroke="hsl(135.0,100%,35%)" stroke-width="0.00152"></path>
<path d="M0.071 0.583 Q0.638 0.670 0.932 0.413" stroke="hsl(135.0,100%,35%)" stroke-width="0.00152"></path>
<path d="M0.071 0.583 Q0.536 0.613 0.696 0.393" stroke="hsl(135.0,100%,35%)" stroke-width="0.00304"></path>
<path d="M0.071 0.583 Q0.725 0.490 0.686 0.151" stroke="hsl(135.0,100%,35%)" stroke-width="0.00608"></path>
<path d="M0.574 0.759 Q0.765 0.691 0.674 0.582" stroke="hsl(180.0,100%,35%)" stroke-width="0.00456"></path>
<path d="M0.574 0.759 Q1.116 0.477 0.686 0.151" stroke="hsl(180.0,100%,35%)" stroke-width="0.00152"></path>
<path d="M0.574 0.759 Q0.668 0.771 0.713 0.728" stroke="hsl(180.0,100%,35%)" stroke-width="0.00152"></path>
<path d="M0.674 0.582 Q0.803 0.557 0.783 0.489" stroke="hsl(180.0,100%,35%)" stroke-width="0.00304"></path>
<path d="M0.674 0.582 Q0.681 0.644 0.801 0.654" stroke="hsl(180.0,100%,35%)" stroke-width="0.00912"></path>
<path d="M0.674 0.582 Q0.996 0.764 1.422 0.647" stroke="hsl(180.0,100%,35%)" stroke-width="0.00304"></path>
<path d="M0.674 0.582 Q0.766 0.571 0.763 0.523" stroke="hsl(180.0,100%,35%)" stroke-width="0.00152"></path>
<path d="M0.674 0.582 Q0.809 0.633 0.937 0.579" stroke="hsl(180.0,100%,35%)" stroke-width="0.00760"></path>
<path d="M0.674 0.582 Q0.677 0.761 1.026 0.799" stroke="hsl(180.0,100%,35%)" stroke-width="0.00304"></path>
<path d="M0.674 0.582 Q0.677 0.640 0.790 0.651" stroke="hsl(180.0,100%,35%)" stroke-width="0.00152"></path>
<path d="M0.674 0.582 Q0.913 0.930 1.643 0.889" stroke="hsl(180.0,100%,35%)" stroke-width="0.00152"></path>
<path d="M0.674 0.582 Q0.619 0.575 0.593 0.601" stroke="hsl(180.0,100%,35%)" stroke-width="0.00152"></path>
<path d="M0.674 0.582 Q0.812 0.576 0.830 0.507" stroke="hsl(180.0,100%,35%)" stroke-width="0.00152"></path>
<path d="M0.674 0.582 Q0.883 0.760 1.274 0.697" stroke="hsl(180.0,100%,35%)" stroke-width="0.00152"></path>
<path d="M0.674 0.582 Q0.816 0.812 1.295 0.793" stroke="hsl(180.0,100%,35%)" stroke-width="0.00152"></path>
<path d="M0.674 0.582 Q0.672 0.534 0.576 0.524" stroke="hsl(180.0,100%,35%)" stroke-width="0.00152"></path>
<path d="M0.713 0.728 Q0.816 0.709 0.801 0.654" stroke="hsl(180.0,100%,35%)" stroke-width="0.00608"></path>
<path d="M0.713 0.728 Q0.619 0.716 0.574 0.759" stroke="hsl(180.0,100%,35%)" stroke-width="0.00152"></path>
<path d="M0.713 0.728 Q0.516 0.718 0.454 0.812" stroke="hsl(180.0,100%,35%)" stroke-width="0.00152"></path>
<path d="M1.130 0.230 Q1.121 0.207 1.074 0.207" stroke="hsl(225.0,100%,35%)" stroke-width="0.00304"></path>
<path d="M1.130 0.230 Q1.124 0.188 1.040 0.181" stroke="hsl(225.0,100%,35%)" stroke-width="0.00152"></path>
<path d="M1.130 0.230 Q1.105 0.206 1.053 0.213" stroke="hsl(225.0,100%,35%)" stroke-width="0.00304"></path>
<path d="M1.130 0.230 Q1.130 0.186 1.044 0.176" stroke="hsl(225.0,100%,35%)" stroke-width="0.00152"></path>
<path d="M0.713 0.993 Q0.772 0.988 0.775 0.958" stroke="hsl(270.0,100%,35%)" stroke-width="0.00304"></path>
<path d="M0.713 0.993 Q0.765 1.001 0.792 0.977" stroke="hsl(270.0,100%,35%)" stroke-width="0.00456"></path>
<path d="M0.713 0.993 Q0.772 1.019 0.836 0.996" stroke="hsl(270.0,100%,35%)" stroke-width="0.00456"></path>
<path d="M0.558 0.871 Q0.399 0.891 0.403 0.973" stroke="hsl(315.0,100%,35%)" stroke-width="0.00152"></path>
<path d="M0.558 0.871 Q0.818 0.463 0.077 0.246" stroke="hsl(315.0,100%,35%)" stroke-width="0.00152"></path>
<path d="M0.558 0.871 Q1.280 0.737 1.177 0.355" stroke="hsl(315.0,100%,35%)" stroke-width="0.00152"></path>
<path d="M0.558 0.871 Q0.656 0.907 0.747 0.867" stroke="hsl(315.0,100%,35%)" stroke-width="0.00456"></path>
<path d="M0.218 0.618 Q0.233 0.695 0.386 0.705" stroke="hsl(135.0,100%,35%)" stroke-width="0.01064"></path>
<path d="M0.218 0.618 Q0.110 0.666 0.179 0.729" stroke="hsl(135.0,100%,35%)" stroke-width="0.00304"></path>
<path d="M0.218 0.618 Q0.753 0.548 0.733 0.271" stroke="hsl(135.0,100%,35%)" stroke-width="0.00304"></path>
<path d="M0.218 0.618 Q0.200 0.654 0.266 0.670" stroke="hsl(135.0,100%,35%)" stroke-width="0.00152"></path>
<path d="M0.218 0.618 Q0.027 0.833 0.403 0.973" stroke="hsl(135.0,100%,35%)" stroke-width="0.00152"></path>
<path d="M0.218 0.618 Q0.713 1.039 1.643 0.889" stroke="hsl(135.0,100%,35%)" stroke-width="0.00152"></path>
<path d="M0.218 0.618 Q0.320 0.595 0.297 0.541" stroke="hsl(135.0,100%,35%)" stroke-width="0.00152"></path>
<path d="M0.218 0.618 Q0.512 0.965 1.253 0.897" stroke="hsl(135.0,100%,35%)" stroke-width="0.00304"></path>
<path d="M0.218 0.618 Q0.151 0.621 0.141 0.654" stroke="hsl(135.0,100%,35%)" stroke-width="0.00152"></path>
<path d="M0.932 0.413 Q0.410 0.373 0.218 0.618" stroke="hsl(135.0,100%,35%)" stroke-width="0.00456"></path>
<path d="M0.932 0.413 Q0.302 0.420 0.179 0.729" stroke="hsl(135.0,100%,35%)" stroke-width="0.00152"></path>
<path d="M0.932 0.413 Q0.830 0.355 0.696 0.393" stroke="hsl(135.0,100%,35%)" stroke-width="0.00152"></path>
<path d="M0.932 0.413 Q0.425 0.449 0.386 0.705" stroke="hsl(135.0,100%,35%)" stroke-width="0.00152"></path>
<path d="M0.932 0.413 Q0.653 0.675 1.103 0.868" stroke="hsl(135.0,100%,35%)" stroke-width="0.00152"></path>
<path d="M0.696 0.393 Q0.811 0.339 0.733 0.271" stroke="hsl(90.0,100%,35%)" stroke-width="0.02887"></path>
<path d="M0.696 0.393 Q0.641 0.397 0.637 0.424" stroke="hsl(90.0,100%,35%)" stroke-width="0.00152"></path>
<path d="M0.696 0.393 Q0.884 0.270 0.686 0.151" stroke="hsl(90.0,100%,35%)" stroke-width="0.02127"></path>
<path d="M0.696 0.393 Q0.533 0.483 0.674 0.582" stroke="hsl(90.0,100%,35%)" stroke-width="0.00608"></path>
<path d="M0.696 0.393 Q0.798 0.450 0.932 0.413" stroke="hsl(90.0,100%,35%)" stroke-width="0.00608"></path>
<path d="M0.696 0.393 Q0.675 0.712 1.295 0.793" stroke="hsl(90.0,100%,35%)" stroke-width="0.00152"></path>
<path d="M0.535 0.908 Q1.012 0.951 1.200 0.728" stroke="hsl(315.0,100%,35%)" stroke-width="0.00304"></path>
<path d="M0.535 0.908 Q0.674 0.930 0.747 0.867" stroke="hsl(315.0,100%,35%)" stroke-width="0.00456"></path>
<path d="M0.535 0.908 Q0.859 0.909 0.932 0.751" stroke="hsl(315.0,100%,35%)" stroke-width="0.00152"></path>
<path d="M0.932 0.751 Q1.072 0.666 0.937 0.579" stroke="hsl(315.0,100%,35%)" stroke-width="0.00152"></path>
<path d="M0.932 0.751 Q0.746 0.772 0.747 0.867" stroke="hsl(315.0,100%,35%)" stroke-width="0.00304"></path>
<path d="M0.932 0.751 Q1.230 0.681 1.159 0.520" stroke="hsl(315.0,100%,35%)" stroke-width="0.00152"></path>
<path d="M1.337 0.204 Q1.303 0.208 1.304 0.226" stroke="hsl(270.0,100%,35%)" stroke-width="0.00152"></path>
<path d="M1.337 0.204 Q1.352 0.224 1.393 0.221" stroke="hsl(270.0,100%,35%)" stroke-width="0.00304"></path>
<path d="M1.337 0.204 Q1.382 0.180 1.345 0.152" stroke="hsl(270.0,100%,35%)" stroke-width="0.00152"></path>
<path d="M1.337 0.204 Q0.689 0.489 1.103 0.868" stroke="hsl(270.0,100%,35%)" stroke-width="0.00152"></path>
<path d="M1.337 0.204 Q0.703 0.261 0.674 0.582" stroke="hsl(270.0,100%,35%)" stroke-width="0.00152"></path>
<path d="M1.345 0.152 Q1.314 0.196 1.393 0.221" stroke="hsl(270.0,100%,35%)" stroke-width="0.00456"></path>
<path d="M1.345 0.152 Q0.231 0.290 0.255 0.864" stroke="hsl(270.0,100%,35%)" stroke-width="0.00152"></path>
<path d="M1.345 0.152 Q0.930 0.200 0.932 0.413" stroke="hsl(270.0,100%,35%)" stroke-width="0.00152"></path>
<path d="M1.345 0.152 Q1.424 0.197 1.527 0.168" stroke="hsl(270.0,100%,35%)" stroke-width="0.00152"></path>
<path d="M1.345 0.152 Q1.300 0.177 1.337 0.204" stroke="hsl(270.0,100%,35%)" stroke-width="0.00152"></path>
<path d="M1.636 0.515 Q1.677 0.457 1.573 0.424" stroke="hsl(135.0,100%,35%)" stroke-width="0.00152"></path>
<path d="M1.636 0.515 Q1.691 0.522 1.716 0.497" stroke="hsl(135.0,100%,35%)" stroke-width="0.00304"></path>
<path d="M1.636 0.515 Q1.340 0.704 1.643 0.889" stroke="hsl(135.0,100%,35%)" stroke-width="0.00152"></path>
<path d="M1.636 0.515 Q0.844 0.283 0.218 0.618" stroke="hsl(135.0,100%,35%)" stroke-width="0.00152"></path>
<path d="M1.573 0.424 Q1.457 0.399 1.382 0.450" stroke="hsl(45.0,100%,35%)" stroke-width="0.01520"></path>
<path d="M1.573 0.424 Q1.349 0.110 0.686 0.151" stroke="hsl(45.0,100%,35%)" stroke-width="0.00152"></path>
<path d="M1.573 0.424 Q1.430 0.310 1.177 0.355" stroke="hsl(45.0,100%,35%)" stroke-width="0.00456"></path>
<path d="M1.573 0.424 Q1.275 0.180 0.733 0.271" stroke="hsl(45.0,100%,35%)" stroke-width="0.00304"></path>
<path d="M1.422 0.647 Q1.309 0.642 1.274 0.697" stroke="hsl(180.0,100%,35%)" stroke-width="0.00304"></path>
<path d="M1.422 0.647 Q1.100 0.465 0.674 0.582" stroke="hsl(180.0,100%,35%)" stroke-width="0.00152"></path>
<path d="M1.422 0.647 Q1.106 0.526 0.801 0.654" stroke="hsl(180.0,100%,35%)" stroke-width="0.00152"></path>
<path d="M1.274 0.697 Q1.388 0.701 1.422 0.647" stroke="hsl(180.0,100%,35%)" stroke-width="0.00304"></path>
<path d="M1.274 0.697 Q1.066 0.519 0.674 0.582" stroke="hsl(180.0,100%,35%)" stroke-width="0.00152"></path>
<path d="M1.274 0.697 Q1.200 0.570 0.937 0.579" stroke="hsl(180.0,100%,35%)" stroke-width="0.00152"></path>
<path d="M0.801 0.654 Q0.795 0.593 0.674 0.582" stroke="hsl(180.0,100%,35%)" stroke-width="0.01520"></path>
<path d="M0.801 0.654 Q1.004 0.770 1.274 0.697" stroke="hsl(180.0,100%,35%)" stroke-width="0.00760"></path>
<path d="M0.801 0.654 Q1.073 0.449 0.733 0.271" stroke="hsl(180.0,100%,35%)" stroke-width="0.00152"></path>
<path d="M0.801 0.654 Q1.117 0.775 1.422 0.647" stroke="hsl(180.0,100%,35%)" stroke-width="0.00304"></path>
<path d="M0.801 0.654 Q0.561 0.661 0.523 0.780" stroke="hsl(180.0,100%,35%)" stroke-width="0.00152"></path>
<path d="M0.801 0.654 Q0.929 0.643 0.937 0.579" stroke="hsl(180.0,100%,35%)" stroke-width="0.00456"></path>
<path d="M0.801 0.654 Q1.146 0.379 0.686 0.151" stroke="hsl(180.0,100%,35%)" stroke-width="0.00152"></path>
<path d="M1.110 0.975 Q1.080 0.978 1.078 0.993" stroke="hsl(90.0,100%,35%)" stroke-width="0.00304"></path>
<path d="M1.110 0.975 Q1.299 1.025 1.436 0.943" stroke="hsl(90.0,100%,35%)" stroke-width="0.00456"></path>
<path d="M1.110 0.975 Q1.313 0.617 0.659 0.440" stroke="hsl(90.0,100%,35%)" stroke-width="0.00152"></path>
<path d="M1.436 0.943 Q1.622 0.467 0.733 0.271" stroke="hsl(90.0,100%,35%)" stroke-width="0.00152"></path>
<path d="M1.436 0.943 Q1.330 0.839 1.103 0.868" stroke="hsl(90.0,100%,35%)" stroke-width="0.00304"></path>
<path d="M1.436 0.943 Q1.507 0.520 0.696 0.393" stroke="hsl(90.0,100%,35%)" stroke-width="0.00152"></path>
<path d="M1.436 0.943 Q1.542 0.900 1.480 0.839" stroke="hsl(90.0,100%,35%)" stroke-width="0.00456"></path>
<path d="M1.436 0.943 Q1.777 0.597 1.177 0.355" stroke="hsl(90.0,100%,35%)" stroke-width="0.00152"></path>
<path d="M0.244 0.239 Q0.342 0.145 0.180 0.076" stroke="hsl(45.0,100%,35%)" stroke-width="0.00912"></path>
<path d="M0.244 0.239 Q0.219 0.193 0.123 0.195" stroke="hsl(45.0,100%,35%)" stroke-width="0.00152"></path>
<path d="M0.244 0.239 Q0.482 0.183 0.425 0.054" stroke="hsl(45.0,100%,35%)" stroke-width="0.00152"></path>
<path d="M0.244 0.239 Q0.535 0.459 1.029 0.366" stroke="hsl(45.0,100%,35%)" stroke-width="0.00304"></path>
<path d="M0.244 0.239 Q0.155 0.209 0.077 0.246" stroke="hsl(45.0,100%,35%)" stroke-width="0.00152"></path>
<path d="M0.425 0.054 Q0.285 0.016 0.180 0.076" stroke="hsl(45.0,100%,35%)" stroke-width="0.00608"></path>
<path d="M0.425 0.054 Q-0.300 0.473 0.356 0.918" stroke="hsl(45.0,100%,35%)" stroke-width="0.00152"></path>
<path d="M0.425 0.054 Q0.369 0.066 0.378 0.095" stroke="hsl(45.0,100%,35%)" stroke-width="0.00456"></path>
<path d="M0.364 0.823 Q0.383 0.821 0.384 0.811" stroke="hsl(135.0,100%,35%)" stroke-width="0.00152"></path>
<path d="M0.364 0.823 Q0.284 0.869 0.356 0.918" stroke="hsl(135.0,100%,35%)" stroke-width="0.00152"></path>
<path d="M0.364 0.823 Q0.569 0.976 0.912 0.909" stroke="hsl(135.0,100%,35%)" stroke-width="0.00152"></path>
<path d="M0.364 0.823 Q0.454 0.691 0.218 0.618" stroke="hsl(135.0,100%,35%)" stroke-width="0.00152"></path>
<path d="M0.912 0.909 Q1.319 0.665 0.932 0.413" stroke="hsl(135.0,100%,35%)" stroke-width="0.00152"></path>
<path d="M0.912 0.909 Q0.809 0.849 0.671 0.887" stroke="hsl(135.0,100%,35%)" stroke-width="0.00456"></path>
<path d="M0.912 0.909 Q1.057 0.877 1.026 0.799" stroke="hsl(135.0,100%,35%)" stroke-width="0.00760"></path>
<path d="M0.912 0.909 Q0.791 0.894 0.736 0.951" stroke="hsl(135.0,100%,35%)" stroke-width="0.00304"></path>
<path d="M1.550 0.852 Q1.556 0.870 1.593 0.872" stroke="hsl(135.0,100%,35%)" stroke-width="0.00608"></path>
<path d="M1.550 0.852 Q1.543 0.800 1.439 0.792" stroke="hsl(135.0,100%,35%)" stroke-width="0.00152"></path>
<path d="M1.550 0.852 Q1.538 0.827 1.486 0.827" stroke="hsl(135.0,100%,35%)" stroke-width="0.00152"></path>
<path d="M1.550 0.852 Q1.567 0.889 1.643 0.889" stroke="hsl(135.0,100%,35%)" stroke-width="0.00304"></path>
<path d="M1.550 0.852 Q1.533 0.778 1.386 0.771" stroke="hsl(135.0,100%,35%)" stroke-width="0.00304"></path>
<path d="M1.550 0.852 Q1.543 0.794 1.429 0.785" stroke="hsl(135.0,100%,35%)" stroke-width="0.00152"></path>
<path d="M1.550 0.852 Q1.544 0.881 1.600 0.890" stroke="hsl(135.0,100%,35%)" stroke-width="0.00152"></path>
<path d="M1.550 0.852 Q1.388 0.284 0.244 0.239" stroke="hsl(135.0,100%,35%)" stroke-width="0.00152"></path>
<path d="M0.937 0.848 Q0.850 0.766 0.672 0.791" stroke="hsl(315.0,100%,35%)" stroke-width="0.00304"></path>
<path d="M0.937 0.848 Q1.012 0.798 0.932 0.751" stroke="hsl(315.0,100%,35%)" stroke-width="0.03191"></path>
<path d="M0.937 0.848 Q0.826 0.819 0.747 0.867" stroke="hsl(315.0,100%,35%)" stroke-width="0.02887"></path>
<path d="M0.937 0.848 Q1.152 0.713 0.937 0.579" stroke="hsl(315.0,100%,35%)" stroke-width="0.00152"></path>
<path d="M1.026 0.799 Q1.288 0.587 0.932 0.413" stroke="hsl(135.0,100%,35%)" stroke-width="0.00152"></path>
<path d="M1.026 0.799 Q0.782 0.624 0.386 0.705" stroke="hsl(135.0,100%,35%)" stroke-width="0.00456"></path>
<path d="M1.026 0.799 Q0.767 0.547 0.218 0.618" stroke="hsl(135.0,100%,35%)" stroke-width="0.00152"></path>
<path d="M1.309 0.034 Q0.695 0.411 1.295 0.793" stroke="hsl(45.0,100%,35%)" stroke-width="0.00152"></path>
<path d="M1.309 0.034 Q1.216 0.033 1.193 0.078" stroke="hsl(45.0,100%,35%)" stroke-width="0.00608"></path>
<path d="M1.309 0.034 Q0.904 0.144 1.029 0.366" stroke="hsl(45.0,100%,35%)" stroke-width="0.00304"></path>
<path d="M1.309 0.034 Q1.336 0.072 1.417 0.067" stroke="hsl(45.0,100%,35%)" stroke-width="0.00608"></path>
<path d="M1.309 0.034 Q0.986 0.168 1.177 0.355" stroke="hsl(45.0,100%,35%)" stroke-width="0.00304"></path>
<path d="M1.070 0.984 Q1.230 0.977 1.253 0.897" stroke="hsl(90.0,100%,35%)" stroke-width="0.00456"></path>
<path d="M1.070 0.984 Q1.298 0.408 0.224 0.170" stroke="hsl(90.0,100%,35%)" stroke-width="0.00152"></path>
<path d="M1.070 0.984 Q1.872 0.623 1.345 0.152" stroke="hsl(90.0,100%,35%)" stroke-width="0.00152"></path>
<path d="M1.070 0.984 Q1.013 0.963 0.959 0.986" stroke="hsl(90.0,100%,35%)" stroke-width="0.00152"></path>
<path d="M1.070 0.984 Q0.766 0.808 0.356 0.918" stroke="hsl(90.0,100%,35%)" stroke-width="0.00152"></path>
<path d="M1.070 0.984 Q1.699 1.008 1.885 0.707" stroke="hsl(90.0,100%,35%)" stroke-width="0.00152"></path>
<path d="M1.253 0.897 Q1.308 0.957 1.436 0.943" stroke="hsl(90.0,100%,35%)" stroke-width="0.02279"></path>
<path d="M1.253 0.897 Q1.336 0.830 1.223 0.774" stroke="hsl(90.0,100%,35%)" stroke-width="0.00152"></path>
<path d="M1.253 0.897 Q1.201 0.853 1.103 0.868" stroke="hsl(90.0,100%,35%)" stroke-width="0.00608"></path>
<path d="M1.253 0.897 Q1.357 0.853 1.295 0.793" stroke="hsl(90.0,100%,35%)" stroke-width="0.01368"></path>
<path d="M1.253 0.897 Q1.215 0.624 0.674 0.582" stroke="hsl(90.0,100%,35%)" stroke-width="0.00304"></path>
<path d="M1.253 0.897 Q1.382 0.882 1.380 0.815" stroke="hsl(90.0,100%,35%)" stroke-width="0.00152"></path>
<path d="M0.224 0.170 Q-0.315 0.523 0.255 0.864" stroke="hsl(270.0,100%,35%)" stroke-width="0.00152"></path>
<path d="M0.224 0.170 Q0.768 0.430 1.393 0.221" stroke="hsl(270.0,100%,35%)" stroke-width="0.00304"></path>
<path d="M0.224 0.170 Q-0.072 0.624 0.747 0.867" stroke="hsl(270.0,100%,35%)" stroke-width="0.00152"></path>
<path d="M0.224 0.170 Q-0.130 0.674 0.775 0.958" stroke="hsl(270.0,100%,35%)" stroke-width="0.00304"></path>
<path d="M0.224 0.170 Q-0.138 0.688 0.792 0.977" stroke="hsl(270.0,100%,35%)" stroke-width="0.00152"></path>
<path d="M0.224 0.170 Q0.229 0.115 0.122 0.101" stroke="hsl(270.0,100%,35%)" stroke-width="0.00304"></path>
<path d="M1.885 0.707 Q1.739 0.675 1.645 0.739" stroke="hsl(90.0,100%,35%)" stroke-width="0.00912"></path>
<path d="M1.885 0.707 Q1.801 0.620 1.613 0.641" stroke="hsl(90.0,100%,35%)" stroke-width="0.00760"></path>
<path d="M1.885 0.707 Q1.365 0.631 1.103 0.868" stroke="hsl(90.0,100%,35%)" stroke-width="0.00304"></path>
<path d="M1.885 0.707 Q1.747 0.749 1.799 0.825" stroke="hsl(90.0,100%,35%)" stroke-width="0.00152"></path>
<path d="M1.885 0.707 Q1.811 0.765 1.907 0.813" stroke="hsl(90.0,100%,35%)" stroke-width="0.00152"></path>
<path d="M0.915 0.160 Q1.036 0.152 1.048 0.091" stroke="hsl(270.0,100%,35%)" stroke-width="0.00760"></path>
<path d="M0.915 0.160 Q1.014 0.202 1.118 0.163" stroke="hsl(270.0,100%,35%)" stroke-width="0.00152"></path>
<path d="M0.915 0.160 Q1.048 0.174 1.104 0.112" stroke="hsl(270.0,100%,35%)" stroke-width="0.00304"></path>
<path d="M0.915 0.160 Q0.696 0.030 0.394 0.108" stroke="hsl(270.0,100%,35%)" stroke-width="0.00152"></path>
<path d="M0.915 0.160 Q0.667 0.608 1.486 0.827" stroke="hsl(270.0,100%,35%)" stroke-width="0.00152"></path>
<path d="M0.915 0.160 Q1.106 0.286 1.393 0.221" stroke="hsl(270.0,100%,35%)" stroke-width="0.00152"></path>
<path d="M0.915 0.160 Q1.034 0.114 0.969 0.046" stroke="hsl(270.0,100%,35%)" stroke-width="0.00152"></path>
<path d="M0.915 0.160 Q1.041 0.157 1.063 0.095" stroke="hsl(270.0,100%,35%)" stroke-width="0.00152"></path>
<path d="M0.915 0.160 Q0.920 0.195 0.990 0.201" stroke="hsl(270.0,100%,35%)" stroke-width="0.00152"></path>
<path d="M0.316 0.455 Q0.458 0.438 0.456 0.365" stroke="hsl(45.0,100%,35%)" stroke-width="0.01823"></path>
<path d="M0.316 0.455 Q0.409 0.508 0.533 0.474" stroke="hsl(45.0,100%,35%)" stroke-width="0.01520"></path>
<path d="M0.316 0.455 Q0.853 0.666 1.382 0.450" stroke="hsl(45.0,100%,35%)" stroke-width="0.00760"></path>
<path d="M0.316 0.455 Q0.379 0.819 1.103 0.868" stroke="hsl(45.0,100%,35%)" stroke-width="0.00304"></path>
<path d="M0.316 0.455 Q0.467 0.535 0.658 0.479" stroke="hsl(45.0,100%,35%)" stroke-width="0.00304"></path>
<path d="M0.316 0.455 Q0.969 0.691 1.573 0.424" stroke="hsl(45.0,100%,35%)" stroke-width="0.00152"></path>
<path d="M0.316 0.455 Q0.744 0.377 0.686 0.151" stroke="hsl(45.0,100%,35%)" stroke-width="0.00152"></path>
<path d="M0.316 0.455 Q0.658 0.557 0.932 0.413" stroke="hsl(45.0,100%,35%)" stroke-width="0.00456"></path>
<path d="M0.533 0.474 Q0.440 0.421 0.316 0.455" stroke="hsl(45.0,100%,35%)" stroke-width="0.00456"></path>
<path d="M0.533 0.474 Q0.582 0.404 0.456 0.365" stroke="hsl(45.0,100%,35%)" stroke-width="0.01823"></path>
<path d="M0.533 0.474 Q0.591 0.502 0.658 0.479" stroke="hsl(45.0,100%,35%)" stroke-width="0.01216"></path>
<path d="M0.533 0.474 Q0.868 0.343 0.686 0.151" stroke="hsl(45.0,100%,35%)" stroke-width="0.00152"></path>
<path d="M0.533 0.474 Q0.976 0.632 1.382 0.450" stroke="hsl(45.0,100%,35%)" stroke-width="0.00912"></path>
<path d="M0.533 0.474 Q0.623 0.482 0.659 0.440" stroke="hsl(45.0,100%,35%)" stroke-width="0.00608"></path>
<path d="M1.364 0.358 Q1.273 0.319 1.177 0.355" stroke="hsl(45.0,100%,35%)" stroke-width="0.00456"></path>
<path d="M1.364 0.358 Q1.191 0.295 1.029 0.366" stroke="hsl(45.0,100%,35%)" stroke-width="0.00304"></path>
<path d="M1.364 0.358 Q1.299 0.408 1.382 0.450" stroke="hsl(45.0,100%,35%)" stroke-width="0.00456"></path>
<path d="M1.364 0.358 Q1.118 0.188 0.733 0.271" stroke="hsl(45.0,100%,35%)" stroke-width="0.00304"></path>
<path d="M1.613 0.641 Q1.551 0.696 1.645 0.739" stroke="hsl(90.0,100%,35%)" stroke-width="0.03951"></path>
<path d="M1.613 0.641 Q1.696 0.728 1.885 0.707" stroke="hsl(90.0,100%,35%)" stroke-width="0.02279"></path>
<path d="M1.613 0.641 Q1.176 0.653 1.103 0.868" stroke="hsl(90.0,100%,35%)" stroke-width="0.00152"></path>
<path d="M1.613 0.641 Q1.228 0.697 1.253 0.897" stroke="hsl(90.0,100%,35%)" stroke-width="0.00152"></path>
<path d="M1.613 0.641 Q1.780 0.643 1.821 0.562" stroke="hsl(90.0,100%,35%)" stroke-width="0.00912"></path>
<path d="M1.613 0.641 Q1.949 0.387 1.527 0.168" stroke="hsl(90.0,100%,35%)" stroke-width="0.00152"></path>
<path d="M1.645 0.739 Q1.707 0.684 1.613 0.641" stroke="hsl(90.0,100%,35%)" stroke-width="0.00456"></path>
<path d="M1.645 0.739 Q1.790 0.771 1.885 0.707" stroke="hsl(90.0,100%,35%)" stroke-width="0.00456"></path>
<path d="M1.645 0.739 Q1.875 0.686 1.821 0.562" stroke="hsl(90.0,100%,35%)" stroke-width="0.00152"></path>
<path d="M1.449 0.598 Q1.465 0.558 1.391 0.542" stroke="hsl(315.0,100%,35%)" stroke-width="0.00152"></path>
<path d="M1.449 0.598 Q1.441 0.554 1.355 0.549" stroke="hsl(315.0,100%,35%)" stroke-width="0.00152"></path>
<path d="M1.449 0.598 Q1.366 0.501 1.159 0.520" stroke="hsl(315.0,100%,35%)" stroke-width="0.00152"></path>
<path d="M1.195 0.218 Q0.852 0.473 1.274 0.697" stroke="hsl(180.0,100%,35%)" stroke-width="0.00304"></path>
<path d="M1.195 0.218 Q1.181 0.198 1.138 0.200" stroke="hsl(180.0,100%,35%)" stroke-width="0.00152"></path>
<path d="M1.195 0.218 Q0.941 -0.018 0.425 0.054" stroke="hsl(180.0,100%,35%)" stroke-width="0.00152"></path>
<path d="M1.237 0.131 Q1.231 0.120 1.207 0.120" stroke="hsl(135.0,100%,35%)" stroke-width="0.00456"></path>
<path d="M1.237 0.131 Q1.124 0.026 0.892 0.058" stroke="hsl(135.0,100%,35%)" stroke-width="0.00304"></path>
<path d="M1.237 0.131 Q1.139 0.144 1.142 0.194" stroke="hsl(135.0,100%,35%)" stroke-width="0.00152"></path>
<path d="M0.126 0.906 Q0.210 0.856 0.131 0.804" stroke="hsl(270.0,100%,35%)" stroke-width="0.00152"></path>
<path d="M0.126 0.906 Q0.165 0.869 0.103 0.842" stroke="hsl(270.0,100%,35%)" stroke-width="0.00152"></path>
<path d="M0.126 0.906 Q0.224 0.911 0.255 0.864" stroke="hsl(270.0,100%,35%)" stroke-width="0.00608"></path>
<path d="M0.861 0.048 Q0.869 0.059 0.892 0.058" stroke="hsl(135.0,100%,35%)" stroke-width="0.00456"></path>
<path d="M0.861 0.048 Q0.931 0.062 0.972 0.031" stroke="hsl(135.0,100%,35%)" stroke-width="0.00304"></path>
<path d="M0.861 0.048 Q0.579 0.625 1.643 0.889" stroke="hsl(135.0,100%,35%)" stroke-width="0.00152"></path>
<path d="M0.861 0.048 Q0.977 0.153 1.207 0.120" stroke="hsl(135.0,100%,35%)" stroke-width="0.00152"></path>
<path d="M1.028 0.951 Q0.852 0.766 0.454 0.812" stroke="hsl(90.0,100%,35%)" stroke-width="0.00152"></path>
<path d="M1.028 0.951 Q1.145 0.696 0.674 0.582" stroke="hsl(90.0,100%,35%)" stroke-width="0.00152"></path>
<path d="M1.028 0.951 Q1.410 0.662 0.932 0.413" stroke="hsl(90.0,100%,35%)" stroke-width="0.00152"></path>
<path d="M1.028 0.951 Q1.131 0.925 1.103 0.868" stroke="hsl(90.0,100%,35%)" stroke-width="0.00304"></path>
<path d="M1.028 0.951 Q0.985 0.946 0.966 0.966" stroke="hsl(90.0,100%,35%)" stroke-width="0.00152"></path>
<path d="M1.110 0.019 Q1.112 0.035 1.142 0.037" stroke="hsl(45.0,100%,35%)" stroke-width="0.00152"></path>
<path d="M1.110 0.019 Q1.198 0.067 1.309 0.034" stroke="hsl(45.0,100%,35%)" stroke-width="0.00304"></path>
<path d="M1.110 0.019 Q1.087 0.034 1.111 0.049" stroke="hsl(45.0,100%,35%)" stroke-width="0.00152"></path>
<path d="M1.810 0.108 Q1.720 0.182 1.847 0.243" stroke="hsl(0.0,100%,35%)" stroke-width="0.00760"></path>
<path d="M1.810 0.108 Q1.639 0.124 1.634 0.212" stroke="hsl(0.0,100%,35%)" stroke-width="0.00760"></path>
<path d="M1.810 0.108 Q1.702 0.122 1.706 0.178" stroke="hsl(0.0,100%,35%)" stroke-width="0.00760"></path>
<path d="M1.810 0.108 Q1.812 0.145 1.884 0.152" stroke="hsl(0.0,100%,35%)" stroke-width="0.00760"></path>
<path d="M1.490 0.119 Q1.063 -0.026 0.686 0.151" stroke="hsl(270.0,100%,35%)" stroke-width="0.00152"></path>
<path d="M1.490 0.119 Q1.541 0.134 1.580 0.112" stroke="hsl(270.0,100%,35%)" stroke-width="0.00152"></path>
<path d="M1.490 0.119 Q1.562 0.122 1.582 0.087" stroke="hsl(270.0,100%,35%)" stroke-width="0.00152"></path>
<path d="M1.490 0.119 Q1.145 0.174 1.177 0.355" stroke="hsl(270.0,100%,35%)" stroke-width="0.00152"></path>
<path d="M0.572 0.715 Q0.196 0.721 0.126 0.906" stroke="hsl(180.0,100%,35%)" stroke-width="0.00152"></path>
<path d="M0.572 0.715 Q0.538 0.737 0.574 0.759" stroke="hsl(180.0,100%,35%)" stroke-width="0.00304"></path>
<path d="M0.572 0.715 Q0.736 0.730 0.801 0.654" stroke="hsl(180.0,100%,35%)" stroke-width="0.00456"></path>
<path d="M0.332 0.118 Q0.191 0.161 0.244 0.239" stroke="hsl(45.0,100%,35%)" stroke-width="0.00152"></path>
<path d="M0.332 0.118 Q0.371 0.125 0.394 0.108" stroke="hsl(45.0,100%,35%)" stroke-width="0.00152"></path>
<path d="M0.332 0.118 Q0.289 0.066 0.180 0.076" stroke="hsl(45.0,100%,35%)" stroke-width="0.00152"></path>
<path d="M0.332 0.118 Q0.429 0.105 0.425 0.054" stroke="hsl(45.0,100%,35%)" stroke-width="0.00152"></path>
<path d="M0.332 0.118 Q0.918 0.338 1.475 0.100" stroke="hsl(45.0,100%,35%)" stroke-width="0.00152"></path>
<path d="M1.651 0.051 Q1.497 0.085 1.527 0.168" stroke="hsl(270.0,100%,35%)" stroke-width="0.00152"></path>
<path d="M1.651 0.051 Q1.681 0.050 1.685 0.035" stroke="hsl(270.0,100%,35%)" stroke-width="0.00456"></path>
<path d="M1.651 0.051 Q1.588 0.055 1.582 0.087" stroke="hsl(270.0,100%,35%)" stroke-width="0.00304"></path>
<path d="M0.963 0.192 Q0.930 0.201 0.942 0.219" stroke="hsl(45.0,100%,35%)" stroke-width="0.00304"></path>
<path d="M0.963 0.192 Q0.613 0.255 0.659 0.440" stroke="hsl(45.0,100%,35%)" stroke-width="0.00304"></path>
<path d="M0.963 0.192 Q0.939 0.316 1.177 0.355" stroke="hsl(45.0,100%,35%)" stroke-width="0.00152"></path>
<path d="M0.963 0.192 Q0.580 0.275 0.658 0.479" stroke="hsl(45.0,100%,35%)" stroke-width="0.00152"></path>
<path d="M0.963 0.192 Q0.721 0.582 1.429 0.785" stroke="hsl(45.0,100%,35%)" stroke-width="0.00152"></path>
<path d="M1.537 0.062 Q0.749 -0.108 0.244 0.239" stroke="hsl(45.0,100%,35%)" stroke-width="0.00304"></path>
<path d="M1.537 0.062 Q1.468 0.071 1.470 0.106" stroke="hsl(45.0,100%,35%)" stroke-width="0.00152"></path>
<path d="M1.537 0.062 Q1.594 0.048 1.579 0.017" stroke="hsl(45.0,100%,35%)" stroke-width="0.00152"></path>
<path d="M1.537 0.062 Q1.549 0.033 1.496 0.021" stroke="hsl(45.0,100%,35%)" stroke-width="0.00152"></path>
<path d="M1.537 0.062 Q1.476 0.069 1.475 0.100" stroke="hsl(45.0,100%,35%)" stroke-width="0.00152"></path>
<path d="M1.537 0.062 Q1.504 0.103 1.577 0.129" stroke="hsl(45.0,100%,35%)" stroke-width="0.00152"></path>
<path d="M0.394 0.598 Q0.405 0.857 0.912 0.909" stroke="hsl(135.0,100%,35%)" stroke-width="0.00456"></path>
<path d="M0.394 0.598 Q0.305 0.650 0.386 0.705" stroke="hsl(135.0,100%,35%)" stroke-width="0.00456"></path>
<path d="M0.394 0.598 Q0.362 0.515 0.191 0.512" stroke="hsl(135.0,100%,35%)" stroke-width="0.00152"></path>
<path d="M0.394 0.598 Q0.547 0.646 0.674 0.582" stroke="hsl(135.0,100%,35%)" stroke-width="0.00152"></path>
<path d="M1.109 0.605 Q0.903 0.642 0.932 0.751" stroke="hsl(315.0,100%,35%)" stroke-width="0.01975"></path>
<path d="M1.109 0.605 Q1.202 0.572 1.159 0.520" stroke="hsl(315.0,100%,35%)" stroke-width="0.02279"></path>
<path d="M1.109 0.605 Q1.276 0.626 1.355 0.549" stroke="hsl(315.0,100%,35%)" stroke-width="0.00152"></path>
<path d="M1.109 0.605 Q1.056 0.685 1.200 0.728" stroke="hsl(315.0,100%,35%)" stroke-width="0.00304"></path>
<path d="M1.109 0.605 Q0.741 0.611 0.672 0.791" stroke="hsl(315.0,100%,35%)" stroke-width="0.00152"></path>
<path d="M1.109 0.605 Q1.343 0.493 1.177 0.355" stroke="hsl(315.0,100%,35%)" stroke-width="0.00152"></path>
<path d="M1.109 0.605 Q1.179 0.670 1.321 0.650" stroke="hsl(315.0,100%,35%)" stroke-width="0.00152"></path>
<path d="M1.109 0.605 Q1.252 0.641 1.355 0.579" stroke="hsl(315.0,100%,35%)" stroke-width="0.00152"></path>
<path d="M0.885 0.527 Q0.735 0.513 0.674 0.582" stroke="hsl(180.0,100%,35%)" stroke-width="0.00304"></path>
<path d="M0.885 0.527 Q0.773 0.786 1.253 0.897" stroke="hsl(180.0,100%,35%)" stroke-width="0.00152"></path>
<path d="M0.885 0.527 Q1.195 0.588 1.382 0.450" stroke="hsl(180.0,100%,35%)" stroke-width="0.00152"></path>
<path d="M0.885 0.527 Q0.742 0.574 0.801 0.654" stroke="hsl(180.0,100%,35%)" stroke-width="0.00152"></path>
<path d="M1.427 0.753 Q1.538 0.304 0.686 0.151" stroke="hsl(45.0,100%,35%)" stroke-width="0.00152"></path>
<path d="M1.427 0.753 Q1.385 0.807 1.480 0.839" stroke="hsl(45.0,100%,35%)" stroke-width="0.00304"></path>
<path d="M1.427 0.753 Q1.762 0.618 1.573 0.424" stroke="hsl(45.0,100%,35%)" stroke-width="0.00152"></path>
<path d="M1.427 0.753 Q1.415 0.740 1.386 0.743" stroke="hsl(45.0,100%,35%)" stroke-width="0.00456"></path>
<path d="M1.427 0.753 Q1.538 0.480 1.029 0.366" stroke="hsl(45.0,100%,35%)" stroke-width="0.00304"></path>
</g>
<text x="1.708" y="0.300" font-size="0.022190" fill="hsl(0.0,100%,20%)">2mesaqlain</text>
<text x="1.884" y="0.145" font-size="0.013696" fill="hsl(0.0,100%,20%)">hongchan</text>
<text x="1.634" y="0.204" font-size="0.016060" fill="hsl(0.0,100%,20%)">mjwilson</text>
<text x="1.847" y="0.234" font-size="0.017459" fill="hsl(0.0,100%,20%)">alvinji</text>
<text x="1.706" y="0.170" font-size="0.014527" fill="hsl(0.0,100%,20%)">asraine</text>
<text x="1.388" y="0.312" font-size="0.015312" fill="hsl(45.0,100%,20%)">abotella</text>
<text x="1.177" y="0.340" font-size="0.029454" fill="hsl(45.0,100%,20%)">kojii</text>
<text x="1.382" y="0.434" font-size="0.032841" fill="hsl(45.0,100%,20%)">ikilpatrick</text>
<text x="0.733" y="0.249" font-size="0.043848" fill="hsl(90.0,100%,20%)">futhark</text>
<text x="0.686" y="0.130" font-size="0.042490" fill="hsl(90.0,100%,20%)">andruud</text>
<text x="0.493" y="0.169" font-size="0.018754" fill="hsl(90.0,100%,20%)">moonira</text>
<text x="0.386" y="0.690" font-size="0.029053" fill="hsl(135.0,100%,20%)">kevers</text>
<text x="0.454" y="0.808" font-size="0.008387" fill="hsl(180.0,100%,20%)">szager</text>
<text x="0.536" y="0.268" font-size="0.017459" fill="hsl(90.0,100%,20%)">sesse</text>
<text x="0.071" y="0.574" font-size="0.018754" fill="hsl(135.0,100%,20%)">awogbemila</text>
<text x="0.574" y="0.752" font-size="0.013696" fill="hsl(180.0,100%,20%)">andypaicu</text>
<text x="0.674" y="0.565" font-size="0.034917" fill="hsl(180.0,100%,20%)">masonf</text>
<text x="0.713" y="0.722" font-size="0.012811" fill="hsl(180.0,100%,20%)">tungnh</text>
<text x="1.130" y="0.224" font-size="0.011861" fill="hsl(225.0,100%,20%)">annasato</text>
<text x="1.074" y="0.203" font-size="0.006848" fill="hsl(225.0,100%,20%)">leimy</text>
<text x="1.040" y="0.179" font-size="0.004842" fill="hsl(225.0,100%,20%)">mych</text>
<text x="1.053" y="0.210" font-size="0.006848" fill="hsl(225.0,100%,20%)">fergal</text>
<text x="1.044" y="0.173" font-size="0.004842" fill="hsl(225.0,100%,20%)">haraken</text>
<text x="0.713" y="0.986" font-size="0.013696" fill="hsl(270.0,100%,20%)">anushamuley</text>
<text x="0.775" y="0.953" font-size="0.009684" fill="hsl(270.0,100%,20%)">cfredric</text>
<text x="0.792" y="0.973" font-size="0.009684" fill="hsl(270.0,100%,20%)">dylancutler</text>
<text x="0.836" y="0.991" font-size="0.008387" fill="hsl(270.0,100%,20%)">selya</text>
<text x="0.558" y="0.865" font-size="0.011861" fill="hsl(315.0,100%,20%)">arnaud.mandy</text>
<text x="0.403" y="0.969" font-size="0.006848" fill="hsl(315.0,100%,20%)">alexrudenko</text>
<text x="0.077" y="0.243" font-size="0.006848" fill="hsl(315.0,100%,20%)">dsv</text>
<text x="0.747" y="0.855" font-size="0.025622" fill="hsl(315.0,100%,20%)">reillyg</text>
<text x="0.218" y="0.604" font-size="0.028647" fill="hsl(135.0,100%,20%)">vmpstr</text>
<text x="0.932" y="0.402" font-size="0.021655" fill="hsl(135.0,100%,20%)">flackr</text>
<text x="0.696" y="0.374" font-size="0.036236" fill="hsl(90.0,100%,20%)">sakhapov</text>
<text x="0.535" y="0.902" font-size="0.011861" fill="hsl(315.0,100%,20%)">bryan.bernhart</text>
<text x="1.200" y="0.723" font-size="0.009684" fill="hsl(315.0,100%,20%)">ajgo</text>
<text x="0.932" y="0.736" font-size="0.030239" fill="hsl(315.0,100%,20%)">ningxin.hu</text>
<text x="1.337" y="0.198" font-size="0.012811" fill="hsl(270.0,100%,20%)">carlosil</text>
<text x="1.304" y="0.224" font-size="0.004842" fill="hsl(270.0,100%,20%)">cduvall</text>
<text x="1.393" y="0.214" font-size="0.013696" fill="hsl(270.0,100%,20%)">clamy</text>
<text x="1.345" y="0.145" font-size="0.014527" fill="hsl(270.0,100%,20%)">meacer</text>
<text x="1.103" y="0.858" font-size="0.019965" fill="hsl(90.0,100%,20%)">pdr</text>
<text x="1.636" y="0.510" font-size="0.010827" fill="hsl(135.0,100%,20%)">chrishtr</text>
<text x="1.573" y="0.412" font-size="0.025161" fill="hsl(45.0,100%,20%)">mstensho</text>
<text x="1.716" y="0.493" font-size="0.006848" fill="hsl(135.0,100%,20%)">vasilyt</text>
<text x="1.643" y="0.884" font-size="0.011861" fill="hsl(135.0,100%,20%)">dcheng</text>
<text x="1.422" y="0.639" font-size="0.015312" fill="hsl(180.0,100%,20%)">dizhangg</text>
<text x="1.274" y="0.688" font-size="0.018118" fill="hsl(180.0,100%,20%)">dom</text>
<text x="0.801" y="0.639" font-size="0.029849" fill="hsl(180.0,100%,20%)">jarhar</text>
<text x="1.110" y="0.969" font-size="0.011861" fill="hsl(90.0,100%,20%)">dmangal</text>
<text x="1.078" y="0.989" font-size="0.006848" fill="hsl(90.0,100%,20%)">vinaysingh</text>
<text x="1.436" y="0.931" font-size="0.025622" fill="hsl(90.0,100%,20%)">fs</text>
<text x="0.659" y="0.433" font-size="0.012811" fill="hsl(45.0,100%,20%)">kschmi</text>
<text x="0.937" y="0.571" font-size="0.016060" fill="hsl(180.0,100%,20%)">dbaron</text>
<text x="0.244" y="0.230" font-size="0.018754" fill="hsl(45.0,100%,20%)">domenic</text>
<text x="0.180" y="0.068" font-size="0.016060" fill="hsl(45.0,100%,20%)">nhiroki</text>
<text x="0.123" y="0.193" font-size="0.004842" fill="hsl(45.0,100%,20%)">weizhong</text>
<text x="0.425" y="0.046" font-size="0.016060" fill="hsl(45.0,100%,20%)">hiroshige</text>
<text x="1.029" y="0.355" font-size="0.020544" fill="hsl(45.0,100%,20%)">tkent</text>
<text x="0.364" y="0.818" font-size="0.009684" fill="hsl(135.0,100%,20%)">eainchen</text>
<text x="0.384" y="0.808" font-size="0.004842" fill="hsl(135.0,100%,20%)">lzhao</text>
<text x="0.356" y="0.914" font-size="0.008387" fill="hsl(45.0,100%,20%)">yyanagisawa</text>
<text x="0.912" y="0.899" font-size="0.018754" fill="hsl(135.0,100%,20%)">gastonr</text>
<text x="1.550" y="0.843" font-size="0.017459" fill="hsl(135.0,100%,20%)">evliu</text>
<text x="1.593" y="0.867" font-size="0.009684" fill="hsl(135.0,100%,20%)">liberato</text>
<text x="1.439" y="0.789" font-size="0.004842" fill="hsl(135.0,100%,20%)">arichiv</text>
<text x="1.486" y="0.824" font-size="0.006848" fill="hsl(270.0,100%,20%)">caseq</text>
<text x="1.386" y="0.767" font-size="0.006848" fill="hsl(135.0,100%,20%)">ffred</text>
<text x="1.429" y="0.782" font-size="0.006848" fill="hsl(45.0,100%,20%)">rbyers</text>
<text x="1.600" y="0.888" font-size="0.004842" fill="hsl(135.0,100%,20%)">yrw</text>
<text x="0.937" y="0.832" font-size="0.031752" fill="hsl(315.0,100%,20%)">feng.dai</text>
<text x="0.672" y="0.787" font-size="0.008387" fill="hsl(315.0,100%,20%)">asully</text>
<text x="0.179" y="0.724" font-size="0.009684" fill="hsl(135.0,100%,20%)">skobes</text>
<text x="1.480" y="0.833" font-size="0.010827" fill="hsl(90.0,100%,20%)">schenney</text>
<text x="0.658" y="0.471" font-size="0.017459" fill="hsl(45.0,100%,20%)">kbabbitt</text>
<text x="0.942" y="0.214" font-size="0.009684" fill="hsl(45.0,100%,20%)">drott</text>
<text x="0.671" y="0.882" font-size="0.008387" fill="hsl(135.0,100%,20%)">gerchiko</text>
<text x="1.026" y="0.791" font-size="0.016774" fill="hsl(135.0,100%,20%)">mustaq</text>
<text x="0.736" y="0.947" font-size="0.006848" fill="hsl(135.0,100%,20%)">arakeri</text>
<text x="1.309" y="0.025" font-size="0.018754" fill="hsl(45.0,100%,20%)">guidou</text>
<text x="1.295" y="0.784" font-size="0.018118" fill="hsl(90.0,100%,20%)">foolip</text>
<text x="1.193" y="0.073" font-size="0.009684" fill="hsl(45.0,100%,20%)">agpalak</text>
<text x="1.417" y="0.063" font-size="0.009684" fill="hsl(45.0,100%,20%)">olka</text>
<text x="1.070" y="0.977" font-size="0.013696" fill="hsl(90.0,100%,20%)">guohuideng</text>
<text x="1.253" y="0.882" font-size="0.030239" fill="hsl(90.0,100%,20%)">nrosenthal</text>
<text x="0.224" y="0.163" font-size="0.015312" fill="hsl(270.0,100%,20%)">yoavweiss</text>
<text x="0.959" y="0.984" font-size="0.004842" fill="hsl(90.0,100%,20%)">nidhijaju</text>
<text x="1.885" y="0.693" font-size="0.028234" fill="hsl(90.0,100%,20%)">shaseley</text>
<text x="0.915" y="0.151" font-size="0.018118" fill="hsl(270.0,100%,20%)">hchao</text>
<text x="1.048" y="0.086" font-size="0.010827" fill="hsl(270.0,100%,20%)">cthomp</text>
<text x="1.118" y="0.160" font-size="0.004842" fill="hsl(270.0,100%,20%)">estark</text>
<text x="1.104" y="0.108" font-size="0.006848" fill="hsl(270.0,100%,20%)">ricea</text>
<text x="0.394" y="0.105" font-size="0.006848" fill="hsl(270.0,100%,20%)">jonathanjlee</text>
<text x="0.969" y="0.043" font-size="0.004842" fill="hsl(270.0,100%,20%)">igorruvinov</text>
<text x="1.063" y="0.092" font-size="0.004842" fill="hsl(270.0,100%,20%)">ortuno</text>
<text x="0.990" y="0.199" font-size="0.004842" fill="hsl(270.0,100%,20%)">ydago</text>
<text x="0.378" y="0.091" font-size="0.008387" fill="hsl(45.0,100%,20%)">sisidovski</text>
<text x="1.445" y="0.272" font-size="0.012811" fill="hsl(45.0,100%,20%)">dgrogan</text>
<text x="1.526" y="0.568" font-size="0.004842" fill="hsl(45.0,100%,20%)">obrufau</text>
<text x="0.523" y="0.778" font-size="0.004842" fill="hsl(180.0,100%,20%)">lwarlow</text>
<text x="0.316" y="0.439" font-size="0.030239" fill="hsl(45.0,100%,20%)">javiercon</text>
<text x="0.456" y="0.353" font-size="0.023722" fill="hsl(45.0,100%,20%)">almaher</text>
<text x="0.533" y="0.458" font-size="0.032119" fill="hsl(45.0,100%,20%)">samomekarajr</text>
<text x="1.364" y="0.350" font-size="0.015312" fill="hsl(45.0,100%,20%)">jja08111</text>
<text x="1.613" y="0.623" font-size="0.036877" fill="hsl(90.0,100%,20%)">johannes</text>
<text x="1.645" y="0.724" font-size="0.030239" fill="hsl(90.0,100%,20%)">mmocny</text>
<text x="1.821" y="0.556" font-size="0.012811" fill="hsl(90.0,100%,20%)">sullivan</text>
<text x="1.527" y="0.163" font-size="0.008387" fill="hsl(270.0,100%,20%)">dtapuska</text>
<text x="1.449" y="0.593" font-size="0.008387" fill="hsl(315.0,100%,20%)">jsbell</text>
<text x="1.391" y="0.539" font-size="0.004842" fill="hsl(315.0,100%,20%)">pastithas</text>
<text x="1.355" y="0.546" font-size="0.006848" fill="hsl(315.0,100%,20%)">junwei.fu</text>
<text x="1.159" y="0.510" font-size="0.019965" fill="hsl(315.0,100%,20%)">phillis</text>
<text x="0.396" y="0.758" font-size="0.004842" fill="hsl(135.0,100%,20%)">vollick</text>
<text x="1.579" y="0.013" font-size="0.006848" fill="hsl(45.0,100%,20%)">lingqi</text>
<text x="1.195" y="0.213" font-size="0.009684" fill="hsl(180.0,100%,20%)">lpardosixtos</text>
<text x="1.138" y="0.198" font-size="0.004842" fill="hsl(180.0,100%,20%)">kouhei</text>
<text x="0.783" y="0.485" font-size="0.006848" fill="hsl(180.0,100%,20%)">chromium</text>
<text x="0.763" y="0.521" font-size="0.004842" fill="hsl(180.0,100%,20%)">nyquist</text>
<text x="0.790" y="0.648" font-size="0.004842" fill="hsl(180.0,100%,20%)">boliu</text>
<text x="0.593" y="0.598" font-size="0.004842" fill="hsl(180.0,100%,20%)">dtseng</text>
<text x="0.830" y="0.504" font-size="0.004842" fill="hsl(180.0,100%,20%)">twellington</text>
<text x="0.576" y="0.522" font-size="0.004842" fill="hsl(180.0,100%,20%)">japhet</text>
<text x="0.255" y="0.858" font-size="0.011861" fill="hsl(270.0,100%,20%)">antoniosartori</text>
<text x="1.237" y="0.126" font-size="0.011861" fill="hsl(135.0,100%,20%)">memmott</text>
<text x="1.207" y="0.115" font-size="0.009684" fill="hsl(135.0,100%,20%)">christinesm</text>
<text x="0.892" y="0.052" font-size="0.010827" fill="hsl(135.0,100%,20%)">dslee</text>
<text x="1.142" y="0.192" font-size="0.004842" fill="hsl(135.0,100%,20%)">ayui</text>
<text x="0.126" y="0.899" font-size="0.012811" fill="hsl(270.0,100%,20%)">mkwst</text>
<text x="0.131" y="0.801" font-size="0.004842" fill="hsl(270.0,100%,20%)">jdeblasio</text>
<text x="0.103" y="0.840" font-size="0.004842" fill="hsl(270.0,100%,20%)">arthursonzogni</text>
<text x="0.861" y="0.042" font-size="0.012811" fill="hsl(135.0,100%,20%)">msw</text>
<text x="0.972" y="0.027" font-size="0.006848" fill="hsl(135.0,100%,20%)">btriebw</text>
<text x="1.223" y="0.772" font-size="0.004842" fill="hsl(90.0,100%,20%)">fmalita</text>
<text x="1.380" y="0.813" font-size="0.004842" fill="hsl(90.0,100%,20%)">bratell.d</text>
<text x="1.028" y="0.945" font-size="0.011861" fill="hsl(90.0,100%,20%)">perryuwang</text>
<text x="0.966" y="0.963" font-size="0.004842" fill="hsl(90.0,100%,20%)">wangxianzhu</text>
<text x="1.110" y="0.014" font-size="0.009684" fill="hsl(45.0,100%,20%)">philipp.hancke</text>
<text x="1.142" y="0.035" font-size="0.004842" fill="hsl(45.0,100%,20%)">eladalon</text>
<text x="1.111" y="0.047" font-size="0.004842" fill="hsl(45.0,100%,20%)">hta</text>
<text x="1.810" y="0.097" font-size="0.021655" fill="hsl(0.0,100%,20%)">punithbnayak</text>
<text x="1.490" y="0.114" font-size="0.009684" fill="hsl(270.0,100%,20%)">ragoulik</text>
<text x="1.580" y="0.110" font-size="0.004842" fill="hsl(270.0,100%,20%)">utpathak</text>
<text x="1.582" y="0.083" font-size="0.008387" fill="hsl(270.0,100%,20%)">daniec</text>
<text x="0.572" y="0.709" font-size="0.011861" fill="hsl(180.0,100%,20%)">ravjit</text>
<text x="0.332" y="0.112" font-size="0.010827" fill="hsl(45.0,100%,20%)">robertlin</text>
<text x="1.475" y="0.097" font-size="0.006848" fill="hsl(45.0,100%,20%)">taiyo</text>
<text x="1.651" y="0.046" font-size="0.011861" fill="hsl(270.0,100%,20%)">roraja</text>
<text x="1.685" y="0.031" font-size="0.008387" fill="hsl(270.0,100%,20%)">sambamurthy.bandaru</text>
<text x="0.637" y="0.422" font-size="0.004842" fill="hsl(90.0,100%,20%)">aleventhal</text>
<text x="0.963" y="0.185" font-size="0.012811" fill="hsl(45.0,100%,20%)">sejalanand</text>
<text x="1.799" y="0.823" font-size="0.004842" fill="hsl(90.0,100%,20%)">etiennep</text>
<text x="1.907" y="0.811" font-size="0.004842" fill="hsl(90.0,100%,20%)">dalecurtis</text>
<text x="1.537" y="0.056" font-size="0.012811" fill="hsl(45.0,100%,20%)">tnak</text>
<text x="1.470" y="0.104" font-size="0.004842" fill="hsl(45.0,100%,20%)">kenoss</text>
<text x="1.496" y="0.018" font-size="0.004842" fill="hsl(45.0,100%,20%)">rakina</text>
<text x="1.577" y="0.126" font-size="0.004842" fill="hsl(45.0,100%,20%)">toyoshim</text>
<text x="0.266" y="0.668" font-size="0.004842" fill="hsl(135.0,100%,20%)">khushalsagar</text>
<text x="0.297" y="0.538" font-size="0.004842" fill="hsl(135.0,100%,20%)">joenotcharles</text>
<text x="0.141" y="0.651" font-size="0.004842" fill="hsl(135.0,100%,20%)">kenrb</text>
<text x="0.394" y="0.592" font-size="0.013696" fill="hsl(135.0,100%,20%)">wangsongjin</text>
<text x="0.191" y="0.510" font-size="0.004842" fill="hsl(135.0,100%,20%)">clchambers</text>
<text x="1.109" y="0.590" font-size="0.028647" fill="hsl(315.0,100%,20%)">wei4.wang</text>
<text x="1.321" y="0.648" font-size="0.004842" fill="hsl(315.0,100%,20%)">yukishiino</text>
<text x="1.355" y="0.577" font-size="0.004842" fill="hsl(315.0,100%,20%)">rafael.cintron</text>
<text x="0.122" y="0.097" font-size="0.006848" fill="hsl(270.0,100%,20%)">morlovich</text>
<text x="0.885" y="0.522" font-size="0.010827" fill="hsl(180.0,100%,20%)">zhoupeng.1996</text>
<text x="1.427" y="0.746" font-size="0.014527" fill="hsl(45.0,100%,20%)">zsun</text>
<text x="1.386" y="0.738" font-size="0.008387" fill="hsl(45.0,100%,20%)">rego</text>
</svg>
