<svg width="4000" height="2000" viewBox="-0.025 -0.025 2.05 1.05" xmlns="http://www.w3.org/2000/svg">
  <style>
    path {
      fill: none;
      stroke-linecap: round;
      stroke-opacity: 0.4;
    }

    text {
      text-anchor: middle;
      alignment-baseline: hanging;
    }
  </style>
  <g opacity="0.4">
<path d="M0.216 0.345 Q0.285 0.420 0.446 0.403" stroke="hsl(0.0,100%,35%)" stroke-width="0.01255"></path>
<path d="M0.216 0.345 Q0.032 0.435 0.166 0.544" stroke="hsl(0.0,100%,35%)" stroke-width="0.01639"></path>
<path d="M0.216 0.345 Q0.208 0.287 0.092 0.278" stroke="hsl(0.0,100%,35%)" stroke-width="0.00105"></path>
<path d="M0.216 0.345 Q0.447 0.638 1.069 0.589" stroke="hsl(0.0,100%,35%)" stroke-width="0.00209"></path>
<path d="M0.216 0.345 Q0.633 0.778 1.569 0.669" stroke="hsl(0.0,100%,35%)" stroke-width="0.00105"></path>
<path d="M0.216 0.345 Q0.194 0.511 0.513 0.558" stroke="hsl(0.0,100%,35%)" stroke-width="0.00105"></path>
<path d="M0.216 0.345 Q0.088 0.376 0.120 0.444" stroke="hsl(0.0,100%,35%)" stroke-width="0.00070"></path>
<path d="M0.216 0.345 Q-0.029 0.517 0.252 0.674" stroke="hsl(0.0,100%,35%)" stroke-width="0.00035"></path>
<path d="M0.216 0.345 Q0.171 0.628 0.713 0.712" stroke="hsl(0.0,100%,35%)" stroke-width="0.00035"></path>
<path d="M0.446 0.403 Q0.194 0.417 0.166 0.544" stroke="hsl(0.0,100%,35%)" stroke-width="0.04882"></path>
<path d="M0.446 0.403 Q0.795 0.761 1.569 0.669" stroke="hsl(0.0,100%,35%)" stroke-width="0.00837"></path>
<path d="M0.446 0.403 Q0.078 0.485 0.157 0.683" stroke="hsl(0.0,100%,35%)" stroke-width="0.00035"></path>
<path d="M0.446 0.403 Q0.355 0.494 0.513 0.558" stroke="hsl(0.0,100%,35%)" stroke-width="0.02127"></path>
<path d="M0.446 0.403 Q0.377 0.328 0.216 0.345" stroke="hsl(0.0,100%,35%)" stroke-width="0.01360"></path>
<path d="M0.446 0.403 Q0.282 0.362 0.165 0.433" stroke="hsl(0.0,100%,35%)" stroke-width="0.00035"></path>
<path d="M0.446 0.403 Q0.973 0.470 1.219 0.227" stroke="hsl(0.0,100%,35%)" stroke-width="0.00035"></path>
<path d="M0.446 0.403 Q0.133 0.500 0.252 0.674" stroke="hsl(0.0,100%,35%)" stroke-width="0.00174"></path>
<path d="M0.446 0.403 Q0.333 0.611 0.713 0.712" stroke="hsl(0.0,100%,35%)" stroke-width="0.00070"></path>
<path d="M0.446 0.403 Q0.647 0.265 0.422 0.136" stroke="hsl(0.0,100%,35%)" stroke-width="0.00035"></path>
<path d="M0.446 0.403 Q0.244 0.529 0.444 0.655" stroke="hsl(0.0,100%,35%)" stroke-width="0.00035"></path>
<path d="M0.446 0.403 Q0.571 0.494 0.776 0.454" stroke="hsl(0.0,100%,35%)" stroke-width="0.00070"></path>
<path d="M0.166 0.544 Q0.419 0.529 0.446 0.403" stroke="hsl(0.0,100%,35%)" stroke-width="0.03417"></path>
<path d="M0.166 0.544 Q0.328 0.620 0.513 0.558" stroke="hsl(0.0,100%,35%)" stroke-width="0.02790"></path>
<path d="M0.166 0.544 Q0.852 0.748 1.400 0.458" stroke="hsl(0.0,100%,35%)" stroke-width="0.01639"></path>
<path d="M0.166 0.544 Q0.610 0.537 0.694 0.319" stroke="hsl(0.0,100%,35%)" stroke-width="0.00105"></path>
<path d="M0.166 0.544 Q0.305 0.737 0.713 0.712" stroke="hsl(0.0,100%,35%)" stroke-width="0.00558"></path>
<path d="M0.166 0.544 Q0.767 0.887 1.569 0.669" stroke="hsl(0.0,100%,35%)" stroke-width="0.00837"></path>
<path d="M0.166 0.544 Q0.799 0.633 1.112 0.344" stroke="hsl(0.0,100%,35%)" stroke-width="0.00070"></path>
<path d="M0.166 0.544 Q0.254 0.488 0.165 0.433" stroke="hsl(0.0,100%,35%)" stroke-width="0.00558"></path>
<path d="M0.166 0.544 Q0.350 0.454 0.216 0.345" stroke="hsl(0.0,100%,35%)" stroke-width="0.01360"></path>
<path d="M0.166 0.544 Q0.128 0.661 0.349 0.706" stroke="hsl(0.0,100%,35%)" stroke-width="0.00105"></path>
<path d="M0.166 0.544 Q0.581 0.747 1.069 0.589" stroke="hsl(0.0,100%,35%)" stroke-width="0.00872"></path>
<path d="M0.166 0.544 Q0.543 0.621 0.776 0.454" stroke="hsl(0.0,100%,35%)" stroke-width="0.00488"></path>
<path d="M0.166 0.544 Q0.313 0.531 0.321 0.456" stroke="hsl(0.0,100%,35%)" stroke-width="0.00105"></path>
<path d="M0.166 0.544 Q0.216 0.655 0.444 0.655" stroke="hsl(0.0,100%,35%)" stroke-width="0.00070"></path>
<path d="M0.166 0.544 Q0.620 0.391 0.422 0.136" stroke="hsl(0.0,100%,35%)" stroke-width="0.00139"></path>
<path d="M0.166 0.544 Q0.597 0.506 0.619 0.288" stroke="hsl(0.0,100%,35%)" stroke-width="0.00035"></path>
<path d="M0.166 0.544 Q0.105 0.626 0.252 0.674" stroke="hsl(0.0,100%,35%)" stroke-width="0.00418"></path>
<path d="M0.166 0.544 Q0.707 0.604 0.944 0.353" stroke="hsl(0.0,100%,35%)" stroke-width="0.00070"></path>
<path d="M0.166 0.544 Q0.479 0.871 1.186 0.790" stroke="hsl(0.0,100%,35%)" stroke-width="0.00453"></path>
<path d="M0.166 0.544 Q0.470 0.373 0.204 0.188" stroke="hsl(0.0,100%,35%)" stroke-width="0.00070"></path>
<path d="M0.166 0.544 Q0.890 0.641 1.239 0.310" stroke="hsl(0.0,100%,35%)" stroke-width="0.00035"></path>
<path d="M0.166 0.544 Q0.685 0.315 0.352 0.011" stroke="hsl(0.0,100%,35%)" stroke-width="0.00035"></path>
<path d="M0.166 0.544 Q0.946 0.596 1.219 0.227" stroke="hsl(0.0,100%,35%)" stroke-width="0.00070"></path>
<path d="M0.166 0.544 Q0.198 0.600 0.314 0.597" stroke="hsl(0.0,100%,35%)" stroke-width="0.00035"></path>
<path d="M0.166 0.544 Q0.750 0.456 0.708 0.152" stroke="hsl(0.0,100%,35%)" stroke-width="0.00035"></path>
<path d="M0.166 0.544 Q0.653 0.533 0.738 0.293" stroke="hsl(0.0,100%,35%)" stroke-width="0.00035"></path>
<path d="M0.166 0.544 Q0.171 0.610 0.302 0.623" stroke="hsl(0.0,100%,35%)" stroke-width="0.00035"></path>
<path d="M0.166 0.544 Q0.071 0.570 0.101 0.622" stroke="hsl(0.0,100%,35%)" stroke-width="0.00035"></path>
<path d="M1.069 0.589 Q1.255 0.729 1.569 0.669" stroke="hsl(120.0,100%,35%)" stroke-width="0.01709"></path>
<path d="M1.069 0.589 Q0.654 0.386 0.166 0.544" stroke="hsl(120.0,100%,35%)" stroke-width="0.00418"></path>
<path d="M1.069 0.589 Q0.816 0.463 0.513 0.558" stroke="hsl(120.0,100%,35%)" stroke-width="0.00872"></path>
<path d="M1.069 0.589 Q0.793 0.579 0.713 0.712" stroke="hsl(120.0,100%,35%)" stroke-width="0.00174"></path>
<path d="M1.069 0.589 Q1.097 0.379 0.694 0.319" stroke="hsl(120.0,100%,35%)" stroke-width="0.00070"></path>
<path d="M1.069 0.589 Q1.183 0.644 1.314 0.600" stroke="hsl(120.0,100%,35%)" stroke-width="0.00035"></path>
<path d="M1.069 0.589 Q0.593 0.468 0.252 0.674" stroke="hsl(120.0,100%,35%)" stroke-width="0.00070"></path>
<path d="M1.069 0.589 Q1.170 0.659 1.328 0.625" stroke="hsl(120.0,100%,35%)" stroke-width="0.00035"></path>
<path d="M1.069 0.589 Q0.907 0.372 0.446 0.403" stroke="hsl(120.0,100%,35%)" stroke-width="0.00314"></path>
<path d="M1.069 0.589 Q1.340 0.590 1.400 0.458" stroke="hsl(120.0,100%,35%)" stroke-width="0.00139"></path>
<path d="M1.069 0.589 Q0.686 0.442 0.314 0.597" stroke="hsl(120.0,100%,35%)" stroke-width="0.00035"></path>
<path d="M1.069 0.589 Q1.108 0.233 0.422 0.136" stroke="hsl(120.0,100%,35%)" stroke-width="0.00035"></path>
<path d="M1.069 0.589 Q0.837 0.297 0.216 0.345" stroke="hsl(120.0,100%,35%)" stroke-width="0.00314"></path>
<path d="M1.069 0.589 Q0.967 0.713 1.186 0.790" stroke="hsl(120.0,100%,35%)" stroke-width="0.00558"></path>
<path d="M1.069 0.589 Q1.162 0.645 1.290 0.611" stroke="hsl(120.0,100%,35%)" stroke-width="0.00035"></path>
<path d="M1.569 0.669 Q1.152 0.236 0.216 0.345" stroke="hsl(120.0,100%,35%)" stroke-width="0.00837"></path>
<path d="M1.569 0.669 Q1.383 0.529 1.069 0.589" stroke="hsl(120.0,100%,35%)" stroke-width="0.02476"></path>
<path d="M1.569 0.669 Q0.968 0.326 0.166 0.544" stroke="hsl(120.0,100%,35%)" stroke-width="0.01255"></path>
<path d="M1.569 0.669 Q1.130 0.402 0.513 0.558" stroke="hsl(120.0,100%,35%)" stroke-width="0.00139"></path>
<path d="M1.569 0.669 Q1.107 0.519 0.713 0.712" stroke="hsl(120.0,100%,35%)" stroke-width="0.00663"></path>
<path d="M1.569 0.669 Q1.411 0.319 0.694 0.319" stroke="hsl(120.0,100%,35%)" stroke-width="0.00070"></path>
<path d="M1.569 0.669 Q1.221 0.312 0.446 0.403" stroke="hsl(120.0,100%,35%)" stroke-width="0.00209"></path>
<path d="M1.569 0.669 Q1.654 0.530 1.400 0.458" stroke="hsl(120.0,100%,35%)" stroke-width="0.00279"></path>
<path d="M1.569 0.669 Q1.345 0.403 0.776 0.454" stroke="hsl(120.0,100%,35%)" stroke-width="0.00035"></path>
<path d="M1.569 0.669 Q1.144 0.178 0.092 0.278" stroke="hsl(120.0,100%,35%)" stroke-width="0.00035"></path>
<path d="M1.569 0.669 Q1.281 0.653 1.186 0.790" stroke="hsl(120.0,100%,35%)" stroke-width="0.00697"></path>
<path d="M1.569 0.669 Q0.907 0.408 0.252 0.674" stroke="hsl(120.0,100%,35%)" stroke-width="0.00070"></path>
<path d="M1.569 0.669 Q1.115 0.313 0.321 0.456" stroke="hsl(120.0,100%,35%)" stroke-width="0.00035"></path>
<path d="M1.569 0.669 Q1.305 0.460 0.840 0.543" stroke="hsl(120.0,100%,35%)" stroke-width="0.00035"></path>
<path d="M1.569 0.669 Q1.455 0.622 1.337 0.667" stroke="hsl(120.0,100%,35%)" stroke-width="0.00035"></path>
<path d="M1.569 0.669 Q1.651 0.724 1.777 0.696" stroke="hsl(120.0,100%,35%)" stroke-width="0.00035"></path>
<path d="M1.569 0.669 Q1.748 0.378 1.219 0.227" stroke="hsl(120.0,100%,35%)" stroke-width="0.00035"></path>
<path d="M0.513 0.558 Q0.952 0.825 1.569 0.669" stroke="hsl(0.0,100%,35%)" stroke-width="0.00453"></path>
<path d="M0.513 0.558 Q0.351 0.482 0.166 0.544" stroke="hsl(0.0,100%,35%)" stroke-width="0.01151"></path>
<path d="M0.513 0.558 Q0.604 0.467 0.446 0.403" stroke="hsl(0.0,100%,35%)" stroke-width="0.00384"></path>
<path d="M0.513 0.558 Q0.527 0.334 0.092 0.278" stroke="hsl(0.0,100%,35%)" stroke-width="0.00035"></path>
<path d="M0.513 0.558 Q0.794 0.475 0.694 0.319" stroke="hsl(0.0,100%,35%)" stroke-width="0.00070"></path>
<path d="M0.513 0.558 Q0.490 0.675 0.713 0.712" stroke="hsl(0.0,100%,35%)" stroke-width="0.00105"></path>
<path d="M0.513 0.558 Q0.766 0.685 1.069 0.589" stroke="hsl(0.0,100%,35%)" stroke-width="0.00384"></path>
<path d="M0.513 0.558 Q0.782 0.444 0.619 0.288" stroke="hsl(0.0,100%,35%)" stroke-width="0.00035"></path>
<path d="M0.513 0.558 Q0.290 0.564 0.252 0.674" stroke="hsl(0.0,100%,35%)" stroke-width="0.00035"></path>
<path d="M0.513 0.558 Q0.728 0.559 0.776 0.454" stroke="hsl(0.0,100%,35%)" stroke-width="0.00174"></path>
<path d="M0.513 0.558 Q0.838 0.471 0.738 0.293" stroke="hsl(0.0,100%,35%)" stroke-width="0.00035"></path>
<path d="M0.513 0.558 Q0.535 0.392 0.216 0.345" stroke="hsl(0.0,100%,35%)" stroke-width="0.00244"></path>
<path d="M0.513 0.558 Q0.664 0.809 1.186 0.790" stroke="hsl(0.0,100%,35%)" stroke-width="0.00035"></path>
<path d="M0.252 0.674 Q0.313 0.591 0.166 0.544" stroke="hsl(0.0,100%,35%)" stroke-width="0.00174"></path>
<path d="M0.252 0.674 Q0.728 0.795 1.069 0.589" stroke="hsl(0.0,100%,35%)" stroke-width="0.00105"></path>
<path d="M0.252 0.674 Q0.626 0.918 1.186 0.790" stroke="hsl(0.0,100%,35%)" stroke-width="0.00035"></path>
<path d="M0.252 0.674 Q0.914 0.935 1.569 0.669" stroke="hsl(0.0,100%,35%)" stroke-width="0.00035"></path>
<path d="M0.252 0.674 Q0.363 0.703 0.444 0.655" stroke="hsl(0.0,100%,35%)" stroke-width="0.00035"></path>
<path d="M0.713 0.712 Q1.175 0.862 1.569 0.669" stroke="hsl(120.0,100%,35%)" stroke-width="0.00593"></path>
<path d="M0.713 0.712 Q0.574 0.518 0.166 0.544" stroke="hsl(120.0,100%,35%)" stroke-width="0.00314"></path>
<path d="M0.713 0.712 Q1.260 0.722 1.400 0.458" stroke="hsl(120.0,100%,35%)" stroke-width="0.00314"></path>
<path d="M0.713 0.712 Q0.911 0.653 0.840 0.543" stroke="hsl(120.0,100%,35%)" stroke-width="0.00139"></path>
<path d="M0.713 0.712 Q0.513 0.600 0.252 0.674" stroke="hsl(120.0,100%,35%)" stroke-width="0.00070"></path>
<path d="M0.713 0.712 Q1.028 0.366 0.422 0.136" stroke="hsl(120.0,100%,35%)" stroke-width="0.00035"></path>
<path d="M0.713 0.712 Q1.354 0.571 1.219 0.227" stroke="hsl(120.0,100%,35%)" stroke-width="0.00035"></path>
<path d="M0.713 0.712 Q1.235 0.645 1.219 0.376" stroke="hsl(120.0,100%,35%)" stroke-width="0.00035"></path>
<path d="M0.713 0.712 Q0.757 0.800 0.938 0.798" stroke="hsl(120.0,100%,35%)" stroke-width="0.00035"></path>
<path d="M0.713 0.712 Q0.887 0.845 1.186 0.790" stroke="hsl(120.0,100%,35%)" stroke-width="0.00593"></path>
<path d="M0.713 0.712 Q0.827 0.504 0.446 0.403" stroke="hsl(120.0,100%,35%)" stroke-width="0.00035"></path>
<path d="M0.713 0.712 Q0.736 0.595 0.513 0.558" stroke="hsl(120.0,100%,35%)" stroke-width="0.00035"></path>
<path d="M0.871 0.881 Q1.203 0.775 1.069 0.589" stroke="hsl(120.0,100%,35%)" stroke-width="0.00070"></path>
<path d="M0.871 0.881 Q1.474 0.775 1.400 0.458" stroke="hsl(120.0,100%,35%)" stroke-width="0.00035"></path>
<path d="M0.871 0.881 Q0.972 0.482 0.216 0.345" stroke="hsl(120.0,100%,35%)" stroke-width="0.00035"></path>
<path d="M0.871 0.881 Q0.827 0.939 0.932 0.974" stroke="hsl(120.0,100%,35%)" stroke-width="0.00035"></path>
<path d="M1.400 0.458 Q1.348 0.344 1.112 0.344" stroke="hsl(240.0,100%,35%)" stroke-width="0.00314"></path>
<path d="M1.400 0.458 Q0.854 0.447 0.713 0.712" stroke="hsl(240.0,100%,35%)" stroke-width="0.00174"></path>
<path d="M1.400 0.458 Q0.715 0.254 0.166 0.544" stroke="hsl(240.0,100%,35%)" stroke-width="0.01395"></path>
<path d="M1.400 0.458 Q1.169 0.101 0.422 0.136" stroke="hsl(240.0,100%,35%)" stroke-width="0.00663"></path>
<path d="M1.400 0.458 Q1.494 0.306 1.219 0.227" stroke="hsl(240.0,100%,35%)" stroke-width="0.00349"></path>
<path d="M1.400 0.458 Q1.439 0.352 1.239 0.310" stroke="hsl(240.0,100%,35%)" stroke-width="0.00558"></path>
<path d="M1.400 0.458 Q1.019 0.084 0.204 0.188" stroke="hsl(240.0,100%,35%)" stroke-width="0.00174"></path>
<path d="M1.400 0.458 Q1.313 0.430 1.239 0.466" stroke="hsl(240.0,100%,35%)" stroke-width="0.00105"></path>
<path d="M1.400 0.458 Q1.251 0.399 1.103 0.460" stroke="hsl(240.0,100%,35%)" stroke-width="0.00105"></path>
<path d="M1.400 0.458 Q1.739 0.407 1.715 0.231" stroke="hsl(240.0,100%,35%)" stroke-width="0.00105"></path>
<path d="M1.400 0.458 Q1.158 0.247 0.694 0.319" stroke="hsl(240.0,100%,35%)" stroke-width="0.00035"></path>
<path d="M1.400 0.458 Q1.316 0.597 1.569 0.669" stroke="hsl(240.0,100%,35%)" stroke-width="0.00035"></path>
<path d="M1.400 0.458 Q1.130 0.457 1.069 0.589" stroke="hsl(240.0,100%,35%)" stroke-width="0.00174"></path>
<path d="M1.400 0.458 Q0.877 0.331 0.513 0.558" stroke="hsl(240.0,100%,35%)" stroke-width="0.00139"></path>
<path d="M1.400 0.458 Q1.664 0.472 1.748 0.346" stroke="hsl(240.0,100%,35%)" stroke-width="0.00035"></path>
<path d="M1.400 0.458 Q1.320 0.369 1.128 0.388" stroke="hsl(240.0,100%,35%)" stroke-width="0.00035"></path>
<path d="M0.840 0.543 Q0.642 0.602 0.713 0.712" stroke="hsl(120.0,100%,35%)" stroke-width="0.00244"></path>
<path d="M0.840 0.543 Q0.503 0.409 0.166 0.544" stroke="hsl(120.0,100%,35%)" stroke-width="0.00070"></path>
<path d="M0.840 0.543 Q0.816 0.736 1.186 0.790" stroke="hsl(120.0,100%,35%)" stroke-width="0.00035"></path>
<path d="M0.840 0.543 Q0.790 0.575 0.842 0.607" stroke="hsl(120.0,100%,35%)" stroke-width="0.00035"></path>
<path d="M0.840 0.543 Q1.104 0.752 1.569 0.669" stroke="hsl(120.0,100%,35%)" stroke-width="0.00035"></path>
<path d="M1.186 0.790 Q1.287 0.666 1.069 0.589" stroke="hsl(120.0,100%,35%)" stroke-width="0.01709"></path>
<path d="M1.186 0.790 Q0.873 0.463 0.166 0.544" stroke="hsl(120.0,100%,35%)" stroke-width="0.00593"></path>
<path d="M1.186 0.790 Q1.012 0.656 0.713 0.712" stroke="hsl(120.0,100%,35%)" stroke-width="0.00767"></path>
<path d="M1.186 0.790 Q1.474 0.806 1.569 0.669" stroke="hsl(120.0,100%,35%)" stroke-width="0.00488"></path>
<path d="M1.186 0.790 Q1.034 0.539 0.513 0.558" stroke="hsl(120.0,100%,35%)" stroke-width="0.00663"></path>
<path d="M1.186 0.790 Q1.652 0.515 1.219 0.227" stroke="hsl(120.0,100%,35%)" stroke-width="0.00035"></path>
<path d="M0.937 0.717 Q1.003 0.803 1.186 0.790" stroke="hsl(120.0,100%,35%)" stroke-width="0.00174"></path>
<path d="M0.937 0.717 Q0.690 0.476 0.166 0.544" stroke="hsl(120.0,100%,35%)" stroke-width="0.00139"></path>
<path d="M0.937 0.717 Q1.376 0.680 1.400 0.458" stroke="hsl(120.0,100%,35%)" stroke-width="0.00105"></path>
<path d="M0.157 0.683 Q0.456 0.526 0.216 0.345" stroke="hsl(0.0,100%,35%)" stroke-width="0.00035"></path>
<path d="M0.157 0.683 Q0.273 0.615 0.166 0.544" stroke="hsl(0.0,100%,35%)" stroke-width="0.00314"></path>
<path d="M0.157 0.683 Q0.526 0.601 0.446 0.403" stroke="hsl(0.0,100%,35%)" stroke-width="0.00209"></path>
<path d="M0.157 0.683 Q0.435 0.692 0.513 0.558" stroke="hsl(0.0,100%,35%)" stroke-width="0.00035"></path>
<path d="M0.157 0.683 Q0.184 0.658 0.142 0.640" stroke="hsl(0.0,100%,35%)" stroke-width="0.00035"></path>
<path d="M0.165 0.433 Q0.763 0.693 1.400 0.458" stroke="hsl(0.0,100%,35%)" stroke-width="0.00139"></path>
<path d="M0.165 0.433 Q0.077 0.489 0.166 0.544" stroke="hsl(0.0,100%,35%)" stroke-width="0.03278"></path>
<path d="M0.165 0.433 Q0.330 0.474 0.446 0.403" stroke="hsl(0.0,100%,35%)" stroke-width="0.02511"></path>
<path d="M0.165 0.433 Q0.239 0.565 0.513 0.558" stroke="hsl(0.0,100%,35%)" stroke-width="0.00035"></path>
<path d="M1.219 0.227 Q1.125 0.379 1.400 0.458" stroke="hsl(240.0,100%,35%)" stroke-width="0.00174"></path>
<path d="M1.219 0.227 Q0.439 0.175 0.166 0.544" stroke="hsl(240.0,100%,35%)" stroke-width="0.00139"></path>
<path d="M1.219 0.227 Q0.893 0.022 0.422 0.136" stroke="hsl(240.0,100%,35%)" stroke-width="0.00035"></path>
<path d="M1.219 0.227 Q0.752 0.502 1.186 0.790" stroke="hsl(240.0,100%,35%)" stroke-width="0.00035"></path>
<path d="M0.422 0.136 Q0.653 0.493 1.400 0.458" stroke="hsl(240.0,100%,35%)" stroke-width="0.00453"></path>
<path d="M0.422 0.136 Q0.747 0.341 1.219 0.227" stroke="hsl(240.0,100%,35%)" stroke-width="0.00035"></path>
<path d="M0.422 0.136 Q-0.032 0.289 0.166 0.544" stroke="hsl(240.0,100%,35%)" stroke-width="0.00105"></path>
<path d="M0.422 0.136 Q0.221 0.275 0.446 0.403" stroke="hsl(240.0,100%,35%)" stroke-width="0.00035"></path>
<path d="M0.422 0.136 Q0.272 0.119 0.204 0.188" stroke="hsl(240.0,100%,35%)" stroke-width="0.00105"></path>
<path d="M0.422 0.136 Q0.436 0.244 0.650 0.261" stroke="hsl(240.0,100%,35%)" stroke-width="0.00070"></path>
<path d="M0.422 0.136 Q0.973 0.360 1.531 0.141" stroke="hsl(240.0,100%,35%)" stroke-width="0.00070"></path>
<path d="M0.422 0.136 Q0.692 0.387 1.239 0.310" stroke="hsl(240.0,100%,35%)" stroke-width="0.00035"></path>
<path d="M0.422 0.136 Q0.281 0.616 1.186 0.790" stroke="hsl(240.0,100%,35%)" stroke-width="0.00070"></path>
<path d="M0.444 0.655 Q0.826 0.506 0.619 0.288" stroke="hsl(0.0,100%,35%)" stroke-width="0.00035"></path>
<path d="M0.444 0.655 Q0.395 0.544 0.166 0.544" stroke="hsl(0.0,100%,35%)" stroke-width="0.00349"></path>
<path d="M0.444 0.655 Q0.334 0.626 0.252 0.674" stroke="hsl(0.0,100%,35%)" stroke-width="0.00139"></path>
<path d="M0.444 0.655 Q0.647 0.530 0.446 0.403" stroke="hsl(0.0,100%,35%)" stroke-width="0.00035"></path>
<path d="M0.444 0.655 Q0.771 0.621 0.776 0.454" stroke="hsl(0.0,100%,35%)" stroke-width="0.00035"></path>
<path d="M0.776 0.454 Q0.399 0.377 0.166 0.544" stroke="hsl(0.0,100%,35%)" stroke-width="0.00314"></path>
<path d="M0.776 0.454 Q0.867 0.482 0.942 0.444" stroke="hsl(0.0,100%,35%)" stroke-width="0.00035"></path>
<path d="M0.776 0.454 Q0.561 0.453 0.513 0.558" stroke="hsl(0.0,100%,35%)" stroke-width="0.00035"></path>
<path d="M0.776 0.454 Q0.814 0.580 1.069 0.589" stroke="hsl(0.0,100%,35%)" stroke-width="0.00035"></path>
<path d="M0.776 0.454 Q0.652 0.363 0.446 0.403" stroke="hsl(0.0,100%,35%)" stroke-width="0.00035"></path>
<path d="M0.708 0.152 Q0.578 0.087 0.422 0.136" stroke="hsl(240.0,100%,35%)" stroke-width="0.00767"></path>
<path d="M0.708 0.152 Q0.124 0.240 0.166 0.544" stroke="hsl(240.0,100%,35%)" stroke-width="0.00872"></path>
<path d="M0.708 0.152 Q0.810 0.444 1.400 0.458" stroke="hsl(240.0,100%,35%)" stroke-width="0.00174"></path>
<path d="M0.708 0.152 Q0.889 0.171 0.965 0.087" stroke="hsl(240.0,100%,35%)" stroke-width="0.00070"></path>
<path d="M0.708 0.152 Q0.437 0.566 1.186 0.790" stroke="hsl(240.0,100%,35%)" stroke-width="0.00035"></path>
<path d="M0.708 0.152 Q0.755 0.104 0.672 0.071" stroke="hsl(240.0,100%,35%)" stroke-width="0.00070"></path>
<path d="M0.708 0.152 Q0.086 0.357 0.349 0.706" stroke="hsl(240.0,100%,35%)" stroke-width="0.00070"></path>
<path d="M0.708 0.152 Q1.129 0.311 1.531 0.141" stroke="hsl(240.0,100%,35%)" stroke-width="0.00070"></path>
<path d="M0.708 0.152 Q0.848 0.337 1.239 0.310" stroke="hsl(240.0,100%,35%)" stroke-width="0.00035"></path>
<path d="M0.708 0.152 Q0.263 0.433 0.713 0.712" stroke="hsl(240.0,100%,35%)" stroke-width="0.00035"></path>
<path d="M0.708 0.152 Q0.428 0.069 0.204 0.188" stroke="hsl(240.0,100%,35%)" stroke-width="0.00035"></path>
<path d="M0.349 0.706 Q1.073 0.792 1.400 0.458" stroke="hsl(0.0,100%,35%)" stroke-width="0.00244"></path>
<path d="M0.349 0.706 Q0.387 0.588 0.166 0.544" stroke="hsl(0.0,100%,35%)" stroke-width="0.00837"></path>
<path d="M0.349 0.706 Q0.640 0.574 0.446 0.403" stroke="hsl(0.0,100%,35%)" stroke-width="0.00174"></path>
<path d="M0.349 0.706 Q0.549 0.665 0.513 0.558" stroke="hsl(0.0,100%,35%)" stroke-width="0.00070"></path>
<path d="M0.349 0.706 Q0.988 0.932 1.569 0.669" stroke="hsl(0.0,100%,35%)" stroke-width="0.00035"></path>
<path d="M0.349 0.706 Q0.571 0.499 0.216 0.345" stroke="hsl(0.0,100%,35%)" stroke-width="0.00035"></path>
<path d="M0.349 0.706 Q0.526 0.782 0.713 0.712" stroke="hsl(0.0,100%,35%)" stroke-width="0.00070"></path>
<path d="M0.349 0.706 Q0.841 0.436 0.422 0.136" stroke="hsl(0.0,100%,35%)" stroke-width="0.00035"></path>
<path d="M1.239 0.310 Q0.819 0.042 0.204 0.188" stroke="hsl(240.0,100%,35%)" stroke-width="0.00035"></path>
<path d="M1.239 0.310 Q0.969 0.059 0.422 0.136" stroke="hsl(240.0,100%,35%)" stroke-width="0.00035"></path>
<path d="M1.239 0.310 Q0.984 0.167 0.650 0.261" stroke="hsl(240.0,100%,35%)" stroke-width="0.00035"></path>
<path d="M1.239 0.310 Q0.828 0.539 1.186 0.790" stroke="hsl(240.0,100%,35%)" stroke-width="0.00035"></path>
<path d="M1.239 0.310 Q1.295 0.264 1.219 0.227" stroke="hsl(240.0,100%,35%)" stroke-width="0.00035"></path>
<path d="M0.204 0.188 Q0.586 0.562 1.400 0.458" stroke="hsl(240.0,100%,35%)" stroke-width="0.00139"></path>
<path d="M0.204 0.188 Q0.354 0.206 0.422 0.136" stroke="hsl(240.0,100%,35%)" stroke-width="0.00314"></path>
<path d="M0.204 0.188 Q0.906 0.430 1.531 0.141" stroke="hsl(240.0,100%,35%)" stroke-width="0.00070"></path>
<path d="M0.204 0.188 Q0.625 0.456 1.239 0.310" stroke="hsl(240.0,100%,35%)" stroke-width="0.00035"></path>
<path d="M0.204 0.188 Q0.213 0.685 1.186 0.790" stroke="hsl(240.0,100%,35%)" stroke-width="0.00035"></path>
<path d="M0.204 0.188 Q-0.099 0.358 0.166 0.544" stroke="hsl(240.0,100%,35%)" stroke-width="0.00070"></path>
<path d="M0.204 0.188 Q0.680 0.411 1.219 0.227" stroke="hsl(240.0,100%,35%)" stroke-width="0.00035"></path>
<path d="M0.694 0.319 Q0.412 0.403 0.513 0.558" stroke="hsl(0.0,100%,35%)" stroke-width="0.00174"></path>
<path d="M0.694 0.319 Q0.251 0.326 0.166 0.544" stroke="hsl(0.0,100%,35%)" stroke-width="0.00209"></path>
<path d="M0.694 0.319 Q0.665 0.529 1.069 0.589" stroke="hsl(0.0,100%,35%)" stroke-width="0.00035"></path>
<path d="M0.694 0.319 Q0.852 0.669 1.569 0.669" stroke="hsl(0.0,100%,35%)" stroke-width="0.00035"></path>
<path d="M0.694 0.319 Q0.503 0.312 0.446 0.403" stroke="hsl(0.0,100%,35%)" stroke-width="0.00035"></path>
<path d="M0.694 0.319 Q0.563 0.653 1.186 0.790" stroke="hsl(0.0,100%,35%)" stroke-width="0.00035"></path>
<path d="M1.314 0.600 Q1.200 0.545 1.069 0.589" stroke="hsl(120.0,100%,35%)" stroke-width="0.00663"></path>
<path d="M1.314 0.600 Q1.386 0.685 1.569 0.669" stroke="hsl(120.0,100%,35%)" stroke-width="0.00105"></path>
<path d="M1.314 0.600 Q0.724 0.424 0.252 0.674" stroke="hsl(120.0,100%,35%)" stroke-width="0.00139"></path>
<path d="M1.314 0.600 Q0.785 0.342 0.166 0.544" stroke="hsl(120.0,100%,35%)" stroke-width="0.00139"></path>
<path d="M1.314 0.600 Q0.947 0.419 0.513 0.558" stroke="hsl(120.0,100%,35%)" stroke-width="0.00070"></path>
<path d="M1.314 0.600 Q0.932 0.329 0.321 0.456" stroke="hsl(120.0,100%,35%)" stroke-width="0.00035"></path>
<path d="M1.328 0.625 Q1.226 0.555 1.069 0.589" stroke="hsl(120.0,100%,35%)" stroke-width="0.00418"></path>
<path d="M1.328 0.625 Q0.812 0.352 0.166 0.544" stroke="hsl(120.0,100%,35%)" stroke-width="0.00070"></path>
<path d="M1.328 0.625 Q0.751 0.434 0.252 0.674" stroke="hsl(120.0,100%,35%)" stroke-width="0.00035"></path>
<path d="M1.328 0.625 Q1.064 0.338 0.446 0.403" stroke="hsl(120.0,100%,35%)" stroke-width="0.00035"></path>
<path d="M0.314 0.597 Q0.535 0.526 0.446 0.403" stroke="hsl(0.0,100%,35%)" stroke-width="0.00070"></path>
<path d="M0.314 0.597 Q0.282 0.541 0.166 0.544" stroke="hsl(0.0,100%,35%)" stroke-width="0.00105"></path>
<path d="M0.314 0.597 Q0.595 0.868 1.186 0.790" stroke="hsl(0.0,100%,35%)" stroke-width="0.00070"></path>
<path d="M1.290 0.611 Q1.197 0.556 1.069 0.589" stroke="hsl(120.0,100%,35%)" stroke-width="0.00732"></path>
<path d="M1.290 0.611 Q0.721 0.435 0.252 0.674" stroke="hsl(120.0,100%,35%)" stroke-width="0.00035"></path>
<path d="M1.290 0.611 Q1.269 0.649 1.337 0.667" stroke="hsl(120.0,100%,35%)" stroke-width="0.00035"></path>
<path d="M1.290 0.611 Q0.782 0.353 0.166 0.544" stroke="hsl(120.0,100%,35%)" stroke-width="0.00035"></path>
<path d="M1.290 0.611 Q1.095 0.680 1.186 0.790" stroke="hsl(120.0,100%,35%)" stroke-width="0.00628"></path>
<path d="M0.302 0.623 Q0.712 0.760 1.069 0.589" stroke="hsl(120.0,100%,35%)" stroke-width="0.00209"></path>
<path d="M0.302 0.623 Q0.297 0.556 0.166 0.544" stroke="hsl(120.0,100%,35%)" stroke-width="0.00244"></path>
<path d="M0.302 0.623 Q0.610 0.883 1.186 0.790" stroke="hsl(120.0,100%,35%)" stroke-width="0.00035"></path>
<path d="M0.418 0.227 Q0.492 0.182 0.422 0.136" stroke="hsl(240.0,100%,35%)" stroke-width="0.00209"></path>
<path d="M0.418 0.227 Q0.665 0.331 0.922 0.233" stroke="hsl(240.0,100%,35%)" stroke-width="0.00035"></path>
<path d="M0.418 0.227 Q0.818 0.387 1.219 0.227" stroke="hsl(240.0,100%,35%)" stroke-width="0.00035"></path>
<path d="M0.418 0.227 Q0.507 0.290 0.650 0.261" stroke="hsl(240.0,100%,35%)" stroke-width="0.00035"></path>
<path d="M0.418 0.227 Q0.724 0.539 1.400 0.458" stroke="hsl(240.0,100%,35%)" stroke-width="0.00070"></path>
<path d="M0.418 0.227 Q0.763 0.432 1.239 0.310" stroke="hsl(240.0,100%,35%)" stroke-width="0.00070"></path>
<path d="M0.650 0.261 Q0.867 0.510 1.400 0.458" stroke="hsl(240.0,100%,35%)" stroke-width="0.00139"></path>
<path d="M0.650 0.261 Q0.635 0.153 0.422 0.136" stroke="hsl(240.0,100%,35%)" stroke-width="0.00732"></path>
<path d="M0.650 0.261 Q0.182 0.305 0.166 0.544" stroke="hsl(240.0,100%,35%)" stroke-width="0.00209"></path>
<path d="M0.650 0.261 Q0.561 0.198 0.418 0.227" stroke="hsl(240.0,100%,35%)" stroke-width="0.00244"></path>
<path d="M0.650 0.261 Q1.187 0.377 1.531 0.141" stroke="hsl(240.0,100%,35%)" stroke-width="0.00035"></path>
<path d="M0.650 0.261 Q0.485 0.135 0.204 0.188" stroke="hsl(240.0,100%,35%)" stroke-width="0.00070"></path>
<path d="M0.650 0.261 Q0.494 0.632 1.186 0.790" stroke="hsl(240.0,100%,35%)" stroke-width="0.00139"></path>
<path d="M0.650 0.261 Q0.321 0.499 0.713 0.712" stroke="hsl(240.0,100%,35%)" stroke-width="0.00035"></path>
<path d="M0.516 0.234 Q0.473 0.211 0.418 0.227" stroke="hsl(240.0,100%,35%)" stroke-width="0.00035"></path>
<path d="M0.516 0.234 Q0.547 0.166 0.422 0.136" stroke="hsl(240.0,100%,35%)" stroke-width="0.00035"></path>
<path d="M0.516 0.234 Q0.406 0.646 1.186 0.790" stroke="hsl(240.0,100%,35%)" stroke-width="0.00035"></path>
<path d="M0.501 0.046 Q0.621 0.432 1.400 0.458" stroke="hsl(240.0,100%,35%)" stroke-width="0.00070"></path>
<path d="M0.501 0.046 Q-0.065 0.228 0.166 0.544" stroke="hsl(240.0,100%,35%)" stroke-width="0.00035"></path>
<path d="M0.501 0.046 Q0.389 0.075 0.422 0.136" stroke="hsl(240.0,100%,35%)" stroke-width="0.00070"></path>
<path d="M0.501 0.046 Q0.074 0.421 0.713 0.712" stroke="hsl(240.0,100%,35%)" stroke-width="0.00035"></path>
<path d="M1.455 0.795 Q1.426 0.615 1.069 0.589" stroke="hsl(120.0,100%,35%)" stroke-width="0.00070"></path>
<path d="M1.455 0.795 Q1.697 0.616 1.400 0.458" stroke="hsl(120.0,100%,35%)" stroke-width="0.00035"></path>
<path d="M1.455 0.795 Q1.325 0.739 1.186 0.790" stroke="hsl(120.0,100%,35%)" stroke-width="0.00035"></path>
<path d="M1.455 0.795 Q1.012 0.412 0.166 0.544" stroke="hsl(120.0,100%,35%)" stroke-width="0.00035"></path>
<path d="M1.593 0.392 Q1.444 0.387 1.400 0.458" stroke="hsl(240.0,100%,35%)" stroke-width="0.00139"></path>
<path d="M1.593 0.392 Q0.759 0.183 0.166 0.544" stroke="hsl(240.0,100%,35%)" stroke-width="0.00105"></path>
<path d="M1.593 0.392 Q1.072 0.510 1.186 0.790" stroke="hsl(240.0,100%,35%)" stroke-width="0.00035"></path>
<path d="M1.112 0.344 Q1.165 0.459 1.400 0.458" stroke="hsl(240.0,100%,35%)" stroke-width="0.00244"></path>
<path d="M1.112 0.344 Q0.480 0.255 0.166 0.544" stroke="hsl(240.0,100%,35%)" stroke-width="0.00314"></path>
<path d="M1.112 0.344 Q0.793 0.582 1.186 0.790" stroke="hsl(240.0,100%,35%)" stroke-width="0.00139"></path>
<path d="M1.112 0.344 Q0.619 0.448 0.713 0.712" stroke="hsl(240.0,100%,35%)" stroke-width="0.00035"></path>
<path d="M1.103 0.460 Q0.567 0.314 0.166 0.544" stroke="hsl(240.0,100%,35%)" stroke-width="0.00070"></path>
<path d="M1.103 0.460 Q0.729 0.391 0.513 0.558" stroke="hsl(240.0,100%,35%)" stroke-width="0.00035"></path>
<path d="M1.103 0.460 Q1.253 0.518 1.400 0.458" stroke="hsl(240.0,100%,35%)" stroke-width="0.00209"></path>
<path d="M1.103 0.460 Q1.169 0.658 1.569 0.669" stroke="hsl(240.0,100%,35%)" stroke-width="0.00035"></path>
<path d="M1.851 0.178 Q1.402 0.228 1.400 0.458" stroke="hsl(240.0,100%,35%)" stroke-width="0.00070"></path>
<path d="M1.851 0.178 Q1.741 0.177 1.715 0.231" stroke="hsl(240.0,100%,35%)" stroke-width="0.00070"></path>
<path d="M1.851 0.178 Q1.131 0.227 1.069 0.589" stroke="hsl(240.0,100%,35%)" stroke-width="0.00035"></path>
<path d="M0.944 0.353 Q0.550 0.280 0.321 0.456" stroke="hsl(0.0,100%,35%)" stroke-width="0.00070"></path>
<path d="M0.944 0.353 Q0.403 0.293 0.166 0.544" stroke="hsl(0.0,100%,35%)" stroke-width="0.00174"></path>
<path d="M0.944 0.353 Q0.715 0.620 1.186 0.790" stroke="hsl(0.0,100%,35%)" stroke-width="0.00035"></path>
<path d="M0.321 0.456 Q0.426 0.455 0.446 0.403" stroke="hsl(0.0,100%,35%)" stroke-width="0.00209"></path>
<path d="M0.321 0.456 Q0.174 0.469 0.166 0.544" stroke="hsl(0.0,100%,35%)" stroke-width="0.01011"></path>
<path d="M0.321 0.456 Q0.775 0.812 1.569 0.669" stroke="hsl(0.0,100%,35%)" stroke-width="0.00035"></path>
<path d="M0.321 0.456 Q0.313 0.663 0.713 0.712" stroke="hsl(0.0,100%,35%)" stroke-width="0.00035"></path>
<path d="M0.321 0.456 Q0.335 0.546 0.513 0.558" stroke="hsl(0.0,100%,35%)" stroke-width="0.00035"></path>
<path d="M0.321 0.456 Q0.806 0.559 1.112 0.344" stroke="hsl(0.0,100%,35%)" stroke-width="0.00035"></path>
<path d="M0.321 0.456 Q0.551 0.546 0.776 0.454" stroke="hsl(0.0,100%,35%)" stroke-width="0.00035"></path>
<path d="M0.321 0.456 Q0.486 0.796 1.186 0.790" stroke="hsl(0.0,100%,35%)" stroke-width="0.00035"></path>
<path d="M0.321 0.456 Q0.660 0.765 1.337 0.667" stroke="hsl(0.0,100%,35%)" stroke-width="0.00035"></path>
<path d="M1.586 0.804 Q1.864 0.442 1.219 0.227" stroke="hsl(120.0,100%,35%)" stroke-width="0.00035"></path>
<path d="M1.586 0.804 Q1.246 0.466 0.513 0.558" stroke="hsl(120.0,100%,35%)" stroke-width="0.00035"></path>
<path d="M1.586 0.804 Q1.685 0.733 1.569 0.669" stroke="hsl(120.0,100%,35%)" stroke-width="0.00105"></path>
<path d="M1.586 0.804 Q1.223 0.583 0.713 0.712" stroke="hsl(120.0,100%,35%)" stroke-width="0.00035"></path>
<path d="M1.586 0.804 Q1.084 0.390 0.166 0.544" stroke="hsl(120.0,100%,35%)" stroke-width="0.00035"></path>
<path d="M1.629 0.058 Q1.675 0.100 1.768 0.087" stroke="hsl(120.0,100%,35%)" stroke-width="0.00035"></path>
<path d="M1.629 0.058 Q0.648 0.202 0.713 0.712" stroke="hsl(120.0,100%,35%)" stroke-width="0.00035"></path>
<path d="M1.629 0.058 Q0.822 0.335 1.186 0.790" stroke="hsl(120.0,100%,35%)" stroke-width="0.00035"></path>
<path d="M1.460 0.298 Q0.616 0.162 0.166 0.544" stroke="hsl(240.0,100%,35%)" stroke-width="0.01848"></path>
<path d="M1.460 0.298 Q1.302 0.366 1.400 0.458" stroke="hsl(240.0,100%,35%)" stroke-width="0.02092"></path>
<path d="M1.460 0.298 Q1.070 0.009 0.422 0.136" stroke="hsl(240.0,100%,35%)" stroke-width="0.00663"></path>
<path d="M1.460 0.298 Q1.621 0.233 1.531 0.141" stroke="hsl(240.0,100%,35%)" stroke-width="0.00314"></path>
<path d="M1.460 0.298 Q1.531 0.198 1.353 0.142" stroke="hsl(240.0,100%,35%)" stroke-width="0.00035"></path>
<path d="M1.460 0.298 Q0.778 0.238 0.513 0.558" stroke="hsl(240.0,100%,35%)" stroke-width="0.00035"></path>
<path d="M1.460 0.298 Q0.929 0.489 1.186 0.790" stroke="hsl(240.0,100%,35%)" stroke-width="0.00209"></path>
<path d="M0.777 0.323 Q0.710 0.515 1.069 0.589" stroke="hsl(0.0,100%,35%)" stroke-width="0.00035"></path>
<path d="M0.777 0.323 Q0.457 0.388 0.513 0.558" stroke="hsl(0.0,100%,35%)" stroke-width="0.00035"></path>
<path d="M0.777 0.323 Q0.738 0.305 0.694 0.319" stroke="hsl(0.0,100%,35%)" stroke-width="0.00035"></path>
<path d="M0.169 0.092 Q0.492 0.522 1.400 0.458" stroke="hsl(240.0,100%,35%)" stroke-width="0.00105"></path>
<path d="M0.169 0.092 Q0.260 0.165 0.422 0.136" stroke="hsl(240.0,100%,35%)" stroke-width="0.00105"></path>
<path d="M0.169 0.092 Q0.275 0.273 0.650 0.261" stroke="hsl(240.0,100%,35%)" stroke-width="0.00035"></path>
<path d="M0.169 0.092 Q-0.193 0.317 0.166 0.544" stroke="hsl(240.0,100%,35%)" stroke-width="0.00035"></path>
<path d="M0.416 0.557 Q0.302 0.500 0.166 0.544" stroke="hsl(0.0,100%,35%)" stroke-width="0.00105"></path>
<path d="M0.416 0.557 Q0.463 0.577 0.513 0.558" stroke="hsl(0.0,100%,35%)" stroke-width="0.00070"></path>
<path d="M0.416 0.557 Q0.886 0.413 0.708 0.152" stroke="hsl(0.0,100%,35%)" stroke-width="0.00035"></path>
<path d="M1.289 0.195 Q1.228 0.197 1.219 0.227" stroke="hsl(240.0,100%,35%)" stroke-width="0.00139"></path>
<path d="M1.289 0.195 Q0.448 0.145 0.166 0.544" stroke="hsl(240.0,100%,35%)" stroke-width="0.00209"></path>
<path d="M1.289 0.195 Q1.134 0.349 1.400 0.458" stroke="hsl(240.0,100%,35%)" stroke-width="0.00105"></path>
<path d="M0.981 0.696 Q1.008 0.784 1.186 0.790" stroke="hsl(120.0,100%,35%)" stroke-width="0.00070"></path>
<path d="M0.981 0.696 Q1.110 0.660 1.069 0.589" stroke="hsl(120.0,100%,35%)" stroke-width="0.00035"></path>
<path d="M0.981 0.696 Q0.695 0.457 0.166 0.544" stroke="hsl(120.0,100%,35%)" stroke-width="0.00035"></path>
<path d="M0.981 0.696 Q1.381 0.661 1.400 0.458" stroke="hsl(120.0,100%,35%)" stroke-width="0.00035"></path>
<path d="M1.219 0.376 Q1.012 0.097 0.422 0.136" stroke="hsl(240.0,100%,35%)" stroke-width="0.00105"></path>
<path d="M1.219 0.376 Q1.403 0.385 1.460 0.298" stroke="hsl(240.0,100%,35%)" stroke-width="0.00035"></path>
<path d="M1.219 0.376 Q1.244 0.453 1.400 0.458" stroke="hsl(240.0,100%,35%)" stroke-width="0.00139"></path>
<path d="M1.329 0.542 Q1.161 0.514 1.069 0.589" stroke="hsl(120.0,100%,35%)" stroke-width="0.00174"></path>
<path d="M1.329 0.542 Q1.432 0.514 1.400 0.458" stroke="hsl(120.0,100%,35%)" stroke-width="0.00105"></path>
<path d="M1.329 0.542 Q0.747 0.310 0.166 0.544" stroke="hsl(120.0,100%,35%)" stroke-width="0.00070"></path>
<path d="M0.484 0.468 Q0.412 0.430 0.321 0.456" stroke="hsl(0.0,100%,35%)" stroke-width="0.00209"></path>
<path d="M0.484 0.468 Q0.265 0.442 0.166 0.544" stroke="hsl(0.0,100%,35%)" stroke-width="0.00314"></path>
<path d="M0.484 0.468 Q0.426 0.519 0.513 0.558" stroke="hsl(0.0,100%,35%)" stroke-width="0.00070"></path>
<path d="M0.484 0.468 Q0.679 0.646 1.069 0.589" stroke="hsl(0.0,100%,35%)" stroke-width="0.00035"></path>
<path d="M0.484 0.468 Q0.806 0.503 0.944 0.353" stroke="hsl(0.0,100%,35%)" stroke-width="0.00139"></path>
<path d="M0.484 0.468 Q0.578 0.769 1.186 0.790" stroke="hsl(0.0,100%,35%)" stroke-width="0.00070"></path>
<path d="M0.484 0.468 Q1.134 0.198 0.748 -0.178" stroke="hsl(0.0,100%,35%)" stroke-width="0.00035"></path>
<path d="M0.219 0.086 Q0.410 0.217 0.708 0.152" stroke="hsl(240.0,100%,35%)" stroke-width="0.00035"></path>
<path d="M0.219 0.086 Q0.280 0.152 0.422 0.136" stroke="hsl(240.0,100%,35%)" stroke-width="0.00105"></path>
<path d="M0.219 0.086 Q-0.035 0.498 0.713 0.712" stroke="hsl(240.0,100%,35%)" stroke-width="0.00035"></path>
</g>
<text x="0.216" y="0.324" font-size="0.042237" fill="hsl(0.0,100%,20%)">abdolrashidi</text>
<text x="0.446" y="0.370" font-size="0.065422" fill="hsl(0.0,100%,20%)">cclao</text>
<text x="0.166" y="0.497" font-size="0.093595" fill="hsl(0.0,100%,20%)">syoussefi</text>
<text x="0.092" y="0.274" font-size="0.006325" fill="hsl(0.0,100%,20%)">kaiyili</text>
<text x="1.069" y="0.562" font-size="0.055209" fill="hsl(120.0,100%,20%)">cnorthrop</text>
<text x="1.569" y="0.642" font-size="0.053367" fill="hsl(120.0,100%,20%)">romanl</text>
<text x="0.513" y="0.533" font-size="0.049639" fill="hsl(0.0,100%,20%)">yuxinhu</text>
<text x="0.120" y="0.442" font-size="0.004000" fill="hsl(0.0,100%,20%)">ineula</text>
<text x="0.252" y="0.664" font-size="0.019183" fill="hsl(0.0,100%,20%)">ianelliott</text>
<text x="0.713" y="0.694" font-size="0.035100" fill="hsl(120.0,100%,20%)">ynovikov</text>
<text x="0.871" y="0.877" font-size="0.006325" fill="hsl(120.0,100%,20%)">ayzhao</text>
<text x="1.400" y="0.432" font-size="0.052000" fill="hsl(240.0,100%,20%)">geofflang</text>
<text x="0.932" y="0.972" font-size="0.002828" fill="hsl(120.0,100%,20%)">hans</text>
<text x="0.840" y="0.538" font-size="0.011662" fill="hsl(120.0,100%,20%)">bsheedy</text>
<text x="1.186" y="0.768" font-size="0.044542" fill="hsl(120.0,100%,20%)">jmadill</text>
<text x="0.842" y="0.606" font-size="0.002828" fill="hsl(120.0,100%,20%)">rogerta</text>
<text x="0.937" y="0.712" font-size="0.009798" fill="hsl(120.0,100%,20%)">capn</text>
<text x="0.157" y="0.677" font-size="0.012329" fill="hsl(0.0,100%,20%)">hailinzhang</text>
<text x="0.165" y="0.414" font-size="0.038781" fill="hsl(0.0,100%,20%)">i.nazarov</text>
<text x="1.219" y="0.219" font-size="0.016971" fill="hsl(240.0,100%,20%)">jonahr</text>
<text x="0.422" y="0.119" font-size="0.034176" fill="hsl(240.0,100%,20%)">kbr</text>
<text x="0.444" y="0.649" font-size="0.012961" fill="hsl(0.0,100%,20%)">natsu</text>
<text x="0.776" y="0.445" font-size="0.017205" fill="hsl(0.0,100%,20%)">zzyiwei</text>
<text x="0.708" y="0.141" font-size="0.023152" fill="hsl(240.0,100%,20%)">chris</text>
<text x="0.965" y="0.085" font-size="0.004000" fill="hsl(240.0,100%,20%)">rafael.cintron</text>
<text x="0.672" y="0.069" font-size="0.004000" fill="hsl(240.0,100%,20%)">senorblanco</text>
<text x="0.349" y="0.696" font-size="0.019596" fill="hsl(0.0,100%,20%)">steven</text>
<text x="1.531" y="0.135" font-size="0.011314" fill="hsl(240.0,100%,20%)">kpiddington</text>
<text x="1.239" y="0.302" font-size="0.014697" fill="hsl(240.0,100%,20%)">lehoangquyen</text>
<text x="0.204" y="0.180" font-size="0.016492" fill="hsl(240.0,100%,20%)">gman</text>
<text x="0.694" y="0.312" font-size="0.014422" fill="hsl(0.0,100%,20%)">solti</text>
<text x="1.314" y="0.591" font-size="0.016492" fill="hsl(120.0,100%,20%)">mark</text>
<text x="1.328" y="0.619" font-size="0.011662" fill="hsl(120.0,100%,20%)">mikes</text>
<text x="0.314" y="0.592" font-size="0.008485" fill="hsl(0.0,100%,20%)">gregschlom</text>
<text x="1.290" y="0.602" font-size="0.018547" fill="hsl(120.0,100%,20%)">gert.wollny</text>
<text x="0.302" y="0.617" font-size="0.010954" fill="hsl(120.0,100%,20%)">constantine.shablya</text>
<text x="0.418" y="0.220" font-size="0.012961" fill="hsl(240.0,100%,20%)">djg</text>
<text x="0.922" y="0.232" font-size="0.002828" fill="hsl(240.0,100%,20%)">sunnyps</text>
<text x="0.650" y="0.251" font-size="0.020199" fill="hsl(240.0,100%,20%)">kkinnunen</text>
<text x="0.516" y="0.231" font-size="0.004899" fill="hsl(240.0,100%,20%)">doremylover123</text>
<text x="0.501" y="0.042" font-size="0.006928" fill="hsl(240.0,100%,20%)">dtapuska</text>
<text x="1.455" y="0.792" font-size="0.006325" fill="hsl(120.0,100%,20%)">eddiehatfield</text>
<text x="1.593" y="0.388" font-size="0.008000" fill="hsl(240.0,100%,20%)">fangzhoug</text>
<text x="1.112" y="0.336" font-size="0.016248" fill="hsl(240.0,100%,20%)">penghuang</text>
<text x="1.239" y="0.464" font-size="0.004899" fill="hsl(240.0,100%,20%)">blundell</text>
<text x="1.103" y="0.455" font-size="0.010198" fill="hsl(240.0,100%,20%)">hob</text>
<text x="1.715" y="0.228" font-size="0.006325" fill="hsl(240.0,100%,20%)">vasilyt</text>
<text x="1.748" y="0.345" font-size="0.002828" fill="hsl(240.0,100%,20%)">enga</text>
<text x="1.128" y="0.387" font-size="0.002828" fill="hsl(240.0,100%,20%)">zmo</text>
<text x="1.337" y="0.665" font-size="0.004899" fill="hsl(120.0,100%,20%)">vantablack</text>
<text x="0.142" y="0.638" font-size="0.002828" fill="hsl(0.0,100%,20%)">mprzybyl</text>
<text x="1.851" y="0.175" font-size="0.006325" fill="hsl(240.0,100%,20%)">hitawala</text>
<text x="0.944" y="0.348" font-size="0.010583" fill="hsl(0.0,100%,20%)">j.vigil</text>
<text x="0.321" y="0.446" font-size="0.020976" fill="hsl(0.0,100%,20%)">m.maiya</text>
<text x="1.586" y="0.800" font-size="0.007483" fill="hsl(120.0,100%,20%)">jojwang</text>
<text x="1.629" y="0.056" font-size="0.004899" fill="hsl(120.0,100%,20%)">jwata</text>
<text x="1.768" y="0.086" font-size="0.002828" fill="hsl(120.0,100%,20%)">tikuta</text>
<text x="1.460" y="0.280" font-size="0.034641" fill="hsl(240.0,100%,20%)">lexa.knyazev</text>
<text x="1.353" y="0.140" font-size="0.002828" fill="hsl(240.0,100%,20%)">brianosman</text>
<text x="0.777" y="0.321" font-size="0.004899" fill="hsl(0.0,100%,20%)">lpy</text>
<text x="0.169" y="0.088" font-size="0.008000" fill="hsl(240.0,100%,20%)">msisov</text>
<text x="0.619" y="0.285" font-size="0.004899" fill="hsl(0.0,100%,20%)">chrisforbes</text>
<text x="0.416" y="0.554" font-size="0.006928" fill="hsl(0.0,100%,20%)">olv</text>
<text x="1.289" y="0.190" font-size="0.010198" fill="hsl(240.0,100%,20%)">robert.mader</text>
<text x="1.777" y="0.695" font-size="0.002828" fill="hsl(120.0,100%,20%)">kainino</text>
<text x="0.981" y="0.692" font-size="0.006325" fill="hsl(120.0,100%,20%)">sharma.loic</text>
<text x="1.219" y="0.372" font-size="0.008485" fill="hsl(240.0,100%,20%)">sky</text>
<text x="1.329" y="0.538" font-size="0.008944" fill="hsl(120.0,100%,20%)">srisser</text>
<text x="0.352" y="0.010" font-size="0.002828" fill="hsl(0.0,100%,20%)">jie.a.chen</text>
<text x="0.738" y="0.291" font-size="0.004000" fill="hsl(0.0,100%,20%)">sugoi</text>
<text x="0.101" y="0.620" font-size="0.002828" fill="hsl(0.0,100%,20%)">lfy</text>
<text x="0.484" y="0.461" font-size="0.014142" fill="hsl(0.0,100%,20%)">sywow.choi</text>
<text x="0.748" y="-0.180" font-size="0.002828" fill="hsl(0.0,100%,20%)">antonio.caggiano</text>
<text x="0.219" y="0.083" font-size="0.006325" fill="hsl(240.0,100%,20%)">tvignatti</text>
<text x="0.938" y="0.796" font-size="0.002828" fill="hsl(120.0,100%,20%)">cwallez</text>
<text x="0.942" y="0.442" font-size="0.002828" fill="hsl(0.0,100%,20%)">rjodin</text>
</svg>
