<svg width="4000" height="2000" viewBox="-0.025 -0.025 2.05 1.05" xmlns="http://www.w3.org/2000/svg">
  <style>
    path {
      fill: none;
      stroke-linecap: round;
      stroke-opacity: 0.4;
    }

    text {
      text-anchor: middle;
      alignment-baseline: hanging;
    }
  </style>
  <g opacity="0.4">
<path d="M1.166 0.509 Q1.069 0.442 0.918 0.474" stroke="hsl(0.0,100%,35%)" stroke-width="0.01693"></path>
<path d="M1.166 0.509 Q1.312 0.616 1.553 0.569" stroke="hsl(0.0,100%,35%)" stroke-width="0.01802"></path>
<path d="M1.166 0.509 Q1.150 0.219 0.583 0.164" stroke="hsl(0.0,100%,35%)" stroke-width="0.00164"></path>
<path d="M0.918 0.474 Q1.160 0.649 1.553 0.569" stroke="hsl(0.0,100%,35%)" stroke-width="0.01638"></path>
<path d="M0.918 0.474 Q0.830 0.404 0.673 0.431" stroke="hsl(0.0,100%,35%)" stroke-width="0.00055"></path>
<path d="M0.918 0.474 Q1.117 0.788 1.772 0.759" stroke="hsl(0.0,100%,35%)" stroke-width="0.00164"></path>
<path d="M0.918 0.474 Q1.282 0.726 1.853 0.604" stroke="hsl(0.0,100%,35%)" stroke-width="0.00328"></path>
<path d="M0.918 0.474 Q1.253 0.556 1.487 0.411" stroke="hsl(0.0,100%,35%)" stroke-width="0.00109"></path>
<path d="M0.918 0.474 Q0.848 0.279 0.452 0.270" stroke="hsl(0.0,100%,35%)" stroke-width="0.00055"></path>
<path d="M0.918 0.474 Q1.357 0.665 1.826 0.493" stroke="hsl(0.0,100%,35%)" stroke-width="0.00382"></path>
<path d="M0.918 0.474 Q1.215 0.444 1.222 0.292" stroke="hsl(0.0,100%,35%)" stroke-width="0.00055"></path>
<path d="M0.918 0.474 Q0.709 0.439 0.594 0.533" stroke="hsl(0.0,100%,35%)" stroke-width="0.00055"></path>
<path d="M0.918 0.474 Q0.861 0.784 1.454 0.880" stroke="hsl(0.0,100%,35%)" stroke-width="0.00055"></path>
<path d="M0.918 0.474 Q1.494 0.613 1.891 0.363" stroke="hsl(0.0,100%,35%)" stroke-width="0.00055"></path>
<path d="M0.918 0.474 Q0.752 0.501 0.768 0.587" stroke="hsl(0.0,100%,35%)" stroke-width="0.00109"></path>
<path d="M0.918 0.474 Q0.518 0.394 0.273 0.571" stroke="hsl(0.0,100%,35%)" stroke-width="0.00055"></path>
<path d="M0.918 0.474 Q0.357 0.528 0.339 0.813" stroke="hsl(0.0,100%,35%)" stroke-width="0.00055"></path>
<path d="M0.918 0.474 Q0.999 0.252 0.583 0.164" stroke="hsl(0.0,100%,35%)" stroke-width="0.00055"></path>
<path d="M0.918 0.474 Q1.021 0.873 1.821 0.910" stroke="hsl(0.0,100%,35%)" stroke-width="0.00055"></path>
<path d="M0.918 0.474 Q1.107 0.403 1.009 0.295" stroke="hsl(0.0,100%,35%)" stroke-width="0.00055"></path>
<path d="M0.918 0.474 Q0.748 0.519 0.797 0.612" stroke="hsl(0.0,100%,35%)" stroke-width="0.00109"></path>
<path d="M1.553 0.569 Q1.311 0.394 0.918 0.474" stroke="hsl(180.0,100%,35%)" stroke-width="0.01256"></path>
<path d="M1.553 0.569 Q1.646 0.476 1.487 0.411" stroke="hsl(180.0,100%,35%)" stroke-width="0.01092"></path>
<path d="M1.553 0.569 Q1.392 0.172 0.583 0.164" stroke="hsl(180.0,100%,35%)" stroke-width="0.00328"></path>
<path d="M1.553 0.569 Q1.862 0.373 1.548 0.179" stroke="hsl(180.0,100%,35%)" stroke-width="0.01857"></path>
<path d="M1.553 0.569 Q1.510 0.708 1.772 0.759" stroke="hsl(180.0,100%,35%)" stroke-width="0.00437"></path>
<path d="M1.553 0.569 Q1.887 0.533 1.891 0.363" stroke="hsl(180.0,100%,35%)" stroke-width="0.01638"></path>
<path d="M1.553 0.569 Q1.507 0.432 1.230 0.425" stroke="hsl(180.0,100%,35%)" stroke-width="0.00218"></path>
<path d="M1.553 0.569 Q1.255 0.704 1.454 0.880" stroke="hsl(180.0,100%,35%)" stroke-width="0.00055"></path>
<path d="M1.553 0.569 Q1.414 0.793 1.821 0.910" stroke="hsl(180.0,100%,35%)" stroke-width="0.00109"></path>
<path d="M1.553 0.569 Q1.429 0.529 1.325 0.581" stroke="hsl(180.0,100%,35%)" stroke-width="0.00164"></path>
<path d="M1.553 0.569 Q1.241 0.199 0.452 0.270" stroke="hsl(180.0,100%,35%)" stroke-width="0.00273"></path>
<path d="M1.553 0.569 Q1.429 0.576 1.416 0.638" stroke="hsl(180.0,100%,35%)" stroke-width="0.00055"></path>
<path d="M1.553 0.569 Q1.223 0.324 0.673 0.431" stroke="hsl(180.0,100%,35%)" stroke-width="0.00164"></path>
<path d="M1.553 0.569 Q1.437 0.634 1.538 0.705" stroke="hsl(180.0,100%,35%)" stroke-width="0.00055"></path>
<path d="M0.583 0.164 Q0.265 0.165 0.198 0.320" stroke="hsl(180.0,100%,35%)" stroke-width="0.01092"></path>
<path d="M0.583 0.164 Q0.432 0.191 0.452 0.270" stroke="hsl(180.0,100%,35%)" stroke-width="0.01147"></path>
<path d="M0.583 0.164 Q0.744 0.560 1.553 0.569" stroke="hsl(180.0,100%,35%)" stroke-width="0.00273"></path>
<path d="M0.583 0.164 Q0.502 0.386 0.918 0.474" stroke="hsl(180.0,100%,35%)" stroke-width="0.00055"></path>
<path d="M0.583 0.164 Q0.837 0.468 1.487 0.411" stroke="hsl(180.0,100%,35%)" stroke-width="0.00055"></path>
<path d="M0.583 0.164 Q1.078 0.525 1.891 0.363" stroke="hsl(180.0,100%,35%)" stroke-width="0.00055"></path>
<path d="M0.583 0.164 Q1.053 0.364 1.548 0.179" stroke="hsl(180.0,100%,35%)" stroke-width="0.00055"></path>
<path d="M0.583 0.164 Q1.168 0.418 1.792 0.189" stroke="hsl(180.0,100%,35%)" stroke-width="0.00055"></path>
<path d="M1.217 0.632 Q1.194 0.493 0.918 0.474" stroke="hsl(180.0,100%,35%)" stroke-width="0.00055"></path>
<path d="M1.217 0.632 Q1.436 0.668 1.553 0.569" stroke="hsl(180.0,100%,35%)" stroke-width="0.00164"></path>
<path d="M1.217 0.632 Q1.124 0.298 0.452 0.270" stroke="hsl(180.0,100%,35%)" stroke-width="0.00109"></path>
<path d="M0.452 0.270 Q0.764 0.640 1.553 0.569" stroke="hsl(180.0,100%,35%)" stroke-width="0.00983"></path>
<path d="M0.452 0.270 Q1.187 0.498 1.792 0.189" stroke="hsl(180.0,100%,35%)" stroke-width="0.00055"></path>
<path d="M0.452 0.270 Q0.720 0.779 1.772 0.759" stroke="hsl(180.0,100%,35%)" stroke-width="0.00109"></path>
<path d="M0.452 0.270 Q1.097 0.604 1.891 0.363" stroke="hsl(180.0,100%,35%)" stroke-width="0.00601"></path>
<path d="M0.452 0.270 Q0.856 0.548 1.487 0.411" stroke="hsl(180.0,100%,35%)" stroke-width="0.00601"></path>
<path d="M0.452 0.270 Q0.602 0.243 0.583 0.164" stroke="hsl(180.0,100%,35%)" stroke-width="0.01747"></path>
<path d="M0.452 0.270 Q1.072 0.444 1.548 0.179" stroke="hsl(180.0,100%,35%)" stroke-width="0.00055"></path>
<path d="M0.452 0.270 Q0.521 0.465 0.918 0.474" stroke="hsl(180.0,100%,35%)" stroke-width="0.00055"></path>
<path d="M0.452 0.270 Q0.284 0.244 0.198 0.320" stroke="hsl(180.0,100%,35%)" stroke-width="0.00055"></path>
<path d="M1.487 0.411 Q1.702 0.307 1.548 0.179" stroke="hsl(180.0,100%,35%)" stroke-width="0.01038"></path>
<path d="M1.487 0.411 Q1.394 0.503 1.553 0.569" stroke="hsl(180.0,100%,35%)" stroke-width="0.01474"></path>
<path d="M1.487 0.411 Q1.152 0.329 0.918 0.474" stroke="hsl(180.0,100%,35%)" stroke-width="0.00164"></path>
<path d="M1.487 0.411 Q1.350 0.642 1.772 0.759" stroke="hsl(180.0,100%,35%)" stroke-width="0.00055"></path>
<path d="M1.487 0.411 Q1.233 0.107 0.583 0.164" stroke="hsl(180.0,100%,35%)" stroke-width="0.00273"></path>
<path d="M1.487 0.411 Q1.728 0.468 1.891 0.363" stroke="hsl(180.0,100%,35%)" stroke-width="0.00164"></path>
<path d="M1.548 0.179 Q1.239 0.375 1.553 0.569" stroke="hsl(180.0,100%,35%)" stroke-width="0.03113"></path>
<path d="M1.548 0.179 Q1.332 0.283 1.487 0.411" stroke="hsl(180.0,100%,35%)" stroke-width="0.00273"></path>
<path d="M1.548 0.179 Q1.573 0.340 1.891 0.363" stroke="hsl(180.0,100%,35%)" stroke-width="0.02949"></path>
<path d="M1.548 0.179 Q1.377 0.206 1.391 0.295" stroke="hsl(180.0,100%,35%)" stroke-width="0.00055"></path>
<path d="M1.548 0.179 Q1.524 0.240 1.637 0.264" stroke="hsl(180.0,100%,35%)" stroke-width="0.00055"></path>
<path d="M1.548 0.179 Q0.927 0.006 0.452 0.270" stroke="hsl(180.0,100%,35%)" stroke-width="0.00109"></path>
<path d="M1.548 0.179 Q1.078 -0.021 0.583 0.164" stroke="hsl(180.0,100%,35%)" stroke-width="0.00055"></path>
<path d="M1.772 0.759 Q1.908 0.528 1.487 0.411" stroke="hsl(180.0,100%,35%)" stroke-width="0.00055"></path>
<path d="M1.772 0.759 Q1.573 0.446 0.918 0.474" stroke="hsl(180.0,100%,35%)" stroke-width="0.00109"></path>
<path d="M1.772 0.759 Q1.667 0.720 1.567 0.763" stroke="hsl(180.0,100%,35%)" stroke-width="0.00382"></path>
<path d="M1.772 0.759 Q1.503 0.251 0.452 0.270" stroke="hsl(180.0,100%,35%)" stroke-width="0.00164"></path>
<path d="M1.772 0.759 Q1.654 0.224 0.583 0.164" stroke="hsl(180.0,100%,35%)" stroke-width="0.00382"></path>
<path d="M1.772 0.759 Q1.815 0.620 1.553 0.569" stroke="hsl(180.0,100%,35%)" stroke-width="0.00218"></path>
<path d="M1.772 0.759 Q2.239 0.478 1.792 0.189" stroke="hsl(180.0,100%,35%)" stroke-width="0.00109"></path>
<path d="M1.772 0.759 Q2.149 0.585 1.891 0.363" stroke="hsl(180.0,100%,35%)" stroke-width="0.00055"></path>
<path d="M1.891 0.363 Q1.651 0.306 1.487 0.411" stroke="hsl(180.0,100%,35%)" stroke-width="0.00491"></path>
<path d="M1.891 0.363 Q1.558 0.398 1.553 0.569" stroke="hsl(180.0,100%,35%)" stroke-width="0.00655"></path>
<path d="M1.891 0.363 Q1.866 0.202 1.548 0.179" stroke="hsl(180.0,100%,35%)" stroke-width="0.00437"></path>
<path d="M1.891 0.363 Q1.981 0.256 1.792 0.189" stroke="hsl(180.0,100%,35%)" stroke-width="0.00055"></path>
<path d="M1.891 0.363 Q1.246 0.028 0.452 0.270" stroke="hsl(180.0,100%,35%)" stroke-width="0.00273"></path>
<path d="M1.891 0.363 Q1.396 0.002 0.583 0.164" stroke="hsl(180.0,100%,35%)" stroke-width="0.00164"></path>
<path d="M1.891 0.363 Q1.433 0.359 1.325 0.581" stroke="hsl(180.0,100%,35%)" stroke-width="0.00055"></path>
<path d="M1.891 0.363 Q1.514 0.537 1.772 0.759" stroke="hsl(180.0,100%,35%)" stroke-width="0.00055"></path>
<path d="M1.891 0.363 Q1.998 0.277 1.854 0.206" stroke="hsl(180.0,100%,35%)" stroke-width="0.00055"></path>
<path d="M1.593 0.961 Q1.645 0.583 0.918 0.474" stroke="hsl(0.0,100%,35%)" stroke-width="0.00055"></path>
<path d="M1.593 0.961 Q1.747 0.981 1.821 0.910" stroke="hsl(0.0,100%,35%)" stroke-width="0.00218"></path>
<path d="M1.593 0.961 Q1.887 0.757 1.553 0.569" stroke="hsl(0.0,100%,35%)" stroke-width="0.00164"></path>
<path d="M0.198 0.320 Q0.633 0.855 1.772 0.759" stroke="hsl(180.0,100%,35%)" stroke-width="0.00055"></path>
<path d="M0.198 0.320 Q0.515 0.319 0.583 0.164" stroke="hsl(180.0,100%,35%)" stroke-width="0.00983"></path>
<path d="M0.198 0.320 Q0.677 0.716 1.553 0.569" stroke="hsl(180.0,100%,35%)" stroke-width="0.00218"></path>
<path d="M0.198 0.320 Q0.434 0.541 0.918 0.474" stroke="hsl(180.0,100%,35%)" stroke-width="0.00055"></path>
<path d="M1.792 0.189 Q1.325 0.470 1.772 0.759" stroke="hsl(180.0,100%,35%)" stroke-width="0.00055"></path>
<path d="M1.792 0.189 Q1.703 0.296 1.891 0.363" stroke="hsl(180.0,100%,35%)" stroke-width="0.00218"></path>
<path d="M1.792 0.189 Q1.369 0.331 1.553 0.569" stroke="hsl(180.0,100%,35%)" stroke-width="0.00164"></path>
<path d="M0.394 0.100 Q0.287 0.197 0.452 0.270" stroke="hsl(180.0,100%,35%)" stroke-width="0.00164"></path>
<path d="M0.394 0.100 Q0.599 0.566 1.553 0.569" stroke="hsl(180.0,100%,35%)" stroke-width="0.00055"></path>
<path d="M0.394 0.100 Q0.555 0.705 1.772 0.759" stroke="hsl(180.0,100%,35%)" stroke-width="0.00055"></path>
<path d="M1.280 0.899 Q1.382 0.924 1.454 0.880" stroke="hsl(0.0,100%,35%)" stroke-width="0.00055"></path>
<path d="M1.280 0.899 Q1.681 0.788 1.553 0.569" stroke="hsl(0.0,100%,35%)" stroke-width="0.00055"></path>
<path d="M1.280 0.899 Q1.439 0.614 0.918 0.474" stroke="hsl(0.0,100%,35%)" stroke-width="0.00109"></path>
<path d="M1.280 0.899 Q1.541 1.013 1.821 0.910" stroke="hsl(0.0,100%,35%)" stroke-width="0.00109"></path>
<path d="M1.454 0.880 Q1.510 0.570 0.918 0.474" stroke="hsl(0.0,100%,35%)" stroke-width="0.00491"></path>
<path d="M1.454 0.880 Q1.613 0.968 1.821 0.910" stroke="hsl(0.0,100%,35%)" stroke-width="0.00382"></path>
<path d="M1.454 0.880 Q1.422 0.499 0.673 0.431" stroke="hsl(0.0,100%,35%)" stroke-width="0.00055"></path>
<path d="M1.454 0.880 Q1.752 0.744 1.553 0.569" stroke="hsl(0.0,100%,35%)" stroke-width="0.00055"></path>
<path d="M1.646 0.452 Q1.194 0.122 0.452 0.270" stroke="hsl(180.0,100%,35%)" stroke-width="0.00055"></path>
<path d="M1.646 0.452 Q1.840 0.456 1.891 0.363" stroke="hsl(180.0,100%,35%)" stroke-width="0.00055"></path>
<path d="M1.646 0.452 Q1.506 0.492 1.553 0.569" stroke="hsl(180.0,100%,35%)" stroke-width="0.00055"></path>
<path d="M1.216 0.791 Q1.871 0.551 1.548 0.179" stroke="hsl(180.0,100%,35%)" stroke-width="0.00819"></path>
<path d="M1.216 0.791 Q1.562 0.747 1.553 0.569" stroke="hsl(180.0,100%,35%)" stroke-width="0.02403"></path>
<path d="M1.216 0.791 Q1.320 0.573 0.918 0.474" stroke="hsl(180.0,100%,35%)" stroke-width="0.01147"></path>
<path d="M1.216 0.791 Q1.417 0.640 1.166 0.509" stroke="hsl(180.0,100%,35%)" stroke-width="0.00218"></path>
<path d="M1.216 0.791 Q1.519 0.886 1.772 0.759" stroke="hsl(180.0,100%,35%)" stroke-width="0.00109"></path>
<path d="M1.216 0.791 Q1.401 0.351 0.583 0.164" stroke="hsl(180.0,100%,35%)" stroke-width="0.00055"></path>
<path d="M0.673 0.431 Q0.761 0.502 0.918 0.474" stroke="hsl(0.0,100%,35%)" stroke-width="0.02949"></path>
<path d="M0.673 0.431 Q0.704 0.812 1.454 0.880" stroke="hsl(0.0,100%,35%)" stroke-width="0.00218"></path>
<path d="M0.673 0.431 Q1.003 0.676 1.553 0.569" stroke="hsl(0.0,100%,35%)" stroke-width="0.02075"></path>
<path d="M0.673 0.431 Q0.864 0.900 1.821 0.910" stroke="hsl(0.0,100%,35%)" stroke-width="0.00546"></path>
<path d="M0.673 0.431 Q0.950 0.430 1.009 0.295" stroke="hsl(0.0,100%,35%)" stroke-width="0.01365"></path>
<path d="M0.673 0.431 Q0.842 0.279 0.583 0.164" stroke="hsl(0.0,100%,35%)" stroke-width="0.00109"></path>
<path d="M0.673 0.431 Q1.096 0.584 1.487 0.411" stroke="hsl(0.0,100%,35%)" stroke-width="0.00109"></path>
<path d="M1.853 0.604 Q1.489 0.352 0.918 0.474" stroke="hsl(0.0,100%,35%)" stroke-width="0.00491"></path>
<path d="M1.853 0.604 Q1.732 0.526 1.553 0.569" stroke="hsl(0.0,100%,35%)" stroke-width="0.00273"></path>
<path d="M1.853 0.604 Q1.929 0.543 1.826 0.493" stroke="hsl(0.0,100%,35%)" stroke-width="0.00273"></path>
<path d="M1.853 0.604 Q1.420 0.157 0.452 0.270" stroke="hsl(0.0,100%,35%)" stroke-width="0.00055"></path>
<path d="M1.826 0.493 Q1.750 0.554 1.853 0.604" stroke="hsl(0.0,100%,35%)" stroke-width="0.00273"></path>
<path d="M1.826 0.493 Q1.629 0.476 1.553 0.569" stroke="hsl(0.0,100%,35%)" stroke-width="0.00273"></path>
<path d="M1.826 0.493 Q1.386 0.302 0.918 0.474" stroke="hsl(0.0,100%,35%)" stroke-width="0.00218"></path>
<path d="M1.009 0.295 Q0.763 0.676 1.454 0.880" stroke="hsl(0.0,100%,35%)" stroke-width="0.00164"></path>
<path d="M1.009 0.295 Q0.923 0.765 1.821 0.910" stroke="hsl(0.0,100%,35%)" stroke-width="0.00164"></path>
<path d="M1.009 0.295 Q1.062 0.541 1.553 0.569" stroke="hsl(0.0,100%,35%)" stroke-width="0.00983"></path>
<path d="M1.009 0.295 Q0.820 0.367 0.918 0.474" stroke="hsl(0.0,100%,35%)" stroke-width="0.01966"></path>
<path d="M1.009 0.295 Q0.732 0.296 0.673 0.431" stroke="hsl(0.0,100%,35%)" stroke-width="0.00546"></path>
<path d="M1.009 0.295 Q1.019 0.680 1.772 0.759" stroke="hsl(0.0,100%,35%)" stroke-width="0.00055"></path>
<path d="M1.340 0.643 Q1.599 0.556 1.487 0.411" stroke="hsl(180.0,100%,35%)" stroke-width="0.00055"></path>
<path d="M1.340 0.643 Q1.506 0.649 1.553 0.569" stroke="hsl(180.0,100%,35%)" stroke-width="0.00109"></path>
<path d="M1.340 0.643 Q1.463 0.788 1.772 0.759" stroke="hsl(180.0,100%,35%)" stroke-width="0.00055"></path>
<path d="M1.340 0.643 Q1.815 0.453 1.548 0.179" stroke="hsl(180.0,100%,35%)" stroke-width="0.00055"></path>
<path d="M1.340 0.643 Q1.840 0.613 1.891 0.363" stroke="hsl(180.0,100%,35%)" stroke-width="0.00055"></path>
<path d="M1.676 0.684 Q1.465 0.428 0.918 0.474" stroke="hsl(0.0,100%,35%)" stroke-width="0.00055"></path>
<path d="M1.676 0.684 Q1.829 0.680 1.853 0.604" stroke="hsl(0.0,100%,35%)" stroke-width="0.00055"></path>
<path d="M1.676 0.684 Q1.707 0.602 1.553 0.569" stroke="hsl(0.0,100%,35%)" stroke-width="0.00055"></path>
<path d="M1.676 0.684 Q1.664 0.741 1.772 0.759" stroke="hsl(0.0,100%,35%)" stroke-width="0.00055"></path>
<path d="M1.325 0.581 Q1.757 0.425 1.548 0.179" stroke="hsl(180.0,100%,35%)" stroke-width="0.01256"></path>
<path d="M1.325 0.581 Q1.449 0.621 1.553 0.569" stroke="hsl(180.0,100%,35%)" stroke-width="0.02130"></path>
<path d="M1.325 0.581 Q1.137 0.251 0.452 0.270" stroke="hsl(180.0,100%,35%)" stroke-width="0.00164"></path>
<path d="M1.325 0.581 Q1.402 0.484 1.230 0.425" stroke="hsl(180.0,100%,35%)" stroke-width="0.00055"></path>
<path d="M1.325 0.581 Q1.542 0.528 1.487 0.411" stroke="hsl(180.0,100%,35%)" stroke-width="0.00109"></path>
<path d="M1.325 0.581 Q1.783 0.585 1.891 0.363" stroke="hsl(180.0,100%,35%)" stroke-width="0.00164"></path>
<path d="M1.230 0.425 Q1.277 0.562 1.553 0.569" stroke="hsl(180.0,100%,35%)" stroke-width="0.00983"></path>
<path d="M1.230 0.425 Q1.610 0.526 1.891 0.363" stroke="hsl(180.0,100%,35%)" stroke-width="0.00055"></path>
<path d="M1.230 0.425 Q1.585 0.366 1.548 0.179" stroke="hsl(180.0,100%,35%)" stroke-width="0.00491"></path>
<path d="M0.565 0.795 Q0.438 0.759 0.339 0.813" stroke="hsl(0.0,100%,35%)" stroke-width="0.00055"></path>
<path d="M0.565 0.795 Q0.998 0.705 0.918 0.474" stroke="hsl(0.0,100%,35%)" stroke-width="0.00055"></path>
<path d="M0.565 0.795 Q1.187 0.634 1.009 0.295" stroke="hsl(0.0,100%,35%)" stroke-width="0.00055"></path>
<path d="M0.565 0.795 Q1.240 0.880 1.553 0.569" stroke="hsl(0.0,100%,35%)" stroke-width="0.00055"></path>
<path d="M1.422 0.487 Q1.423 0.554 1.553 0.569" stroke="hsl(180.0,100%,35%)" stroke-width="0.00328"></path>
<path d="M1.422 0.487 Q1.731 0.358 1.548 0.179" stroke="hsl(180.0,100%,35%)" stroke-width="0.00055"></path>
<path d="M1.422 0.487 Q1.379 0.693 1.772 0.759" stroke="hsl(180.0,100%,35%)" stroke-width="0.00055"></path>
<path d="M1.422 0.487 Q1.756 0.519 1.891 0.363" stroke="hsl(180.0,100%,35%)" stroke-width="0.00055"></path>
<path d="M0.490 0.529 Q0.747 0.587 0.918 0.474" stroke="hsl(0.0,100%,35%)" stroke-width="0.00819"></path>
<path d="M0.490 0.529 Q0.990 0.761 1.553 0.569" stroke="hsl(0.0,100%,35%)" stroke-width="0.00874"></path>
<path d="M0.490 0.529 Q0.946 0.900 1.772 0.759" stroke="hsl(0.0,100%,35%)" stroke-width="0.00055"></path>
<path d="M0.756 0.931 Q1.133 0.540 0.452 0.270" stroke="hsl(180.0,100%,35%)" stroke-width="0.00055"></path>
<path d="M0.756 0.931 Q1.445 0.910 1.553 0.569" stroke="hsl(180.0,100%,35%)" stroke-width="0.00109"></path>
<path d="M0.756 0.931 Q0.888 1.007 1.064 0.959" stroke="hsl(180.0,100%,35%)" stroke-width="0.00055"></path>
<path d="M0.975 0.605 Q1.386 0.610 1.487 0.411" stroke="hsl(180.0,100%,35%)" stroke-width="0.00109"></path>
<path d="M0.975 0.605 Q1.601 0.506 1.548 0.179" stroke="hsl(180.0,100%,35%)" stroke-width="0.00109"></path>
<path d="M0.975 0.605 Q0.963 0.458 0.673 0.431" stroke="hsl(180.0,100%,35%)" stroke-width="0.00109"></path>
<path d="M0.975 0.605 Q1.293 0.702 1.553 0.569" stroke="hsl(180.0,100%,35%)" stroke-width="0.00164"></path>
<path d="M0.975 0.605 Q1.132 0.306 0.583 0.164" stroke="hsl(180.0,100%,35%)" stroke-width="0.00109"></path>
<path d="M1.416 0.638 Q1.540 0.631 1.553 0.569" stroke="hsl(180.0,100%,35%)" stroke-width="0.00164"></path>
<path d="M1.416 0.638 Q1.400 0.855 1.821 0.910" stroke="hsl(180.0,100%,35%)" stroke-width="0.00055"></path>
<path d="M1.416 0.638 Q1.633 0.538 1.487 0.411" stroke="hsl(180.0,100%,35%)" stroke-width="0.00055"></path>
<path d="M1.982 0.505 Q1.670 0.314 1.230 0.425" stroke="hsl(180.0,100%,35%)" stroke-width="0.00055"></path>
<path d="M1.982 0.505 Q1.716 0.451 1.553 0.569" stroke="hsl(180.0,100%,35%)" stroke-width="0.00382"></path>
<path d="M1.982 0.505 Q1.809 0.359 1.487 0.411" stroke="hsl(180.0,100%,35%)" stroke-width="0.00109"></path>
<path d="M1.982 0.505 Q1.673 0.590 1.772 0.759" stroke="hsl(180.0,100%,35%)" stroke-width="0.00164"></path>
<path d="M1.982 0.505 Q2.025 0.255 1.548 0.179" stroke="hsl(180.0,100%,35%)" stroke-width="0.00164"></path>
</g>
<text x="1.166" y="0.492" font-size="0.033813" fill="hsl(0.0,100%,20%)">a.annestrand</text>
<text x="0.918" y="0.441" font-size="0.067028" fill="hsl(0.0,100%,20%)">geofflang</text>
<text x="1.553" y="0.522" font-size="0.094281" fill="hsl(180.0,100%,20%)">syoussefi</text>
<text x="0.583" y="0.141" font-size="0.046104" fill="hsl(180.0,100%,20%)">cnorthrop</text>
<text x="1.217" y="0.627" font-size="0.009829" fill="hsl(180.0,100%,20%)">a.dean1</text>
<text x="0.452" y="0.248" font-size="0.045044" fill="hsl(180.0,100%,20%)">romanl</text>
<text x="1.487" y="0.389" font-size="0.043406" fill="hsl(180.0,100%,20%)">abdolrashidi</text>
<text x="1.548" y="0.148" font-size="0.061907" fill="hsl(180.0,100%,20%)">cclao</text>
<text x="1.772" y="0.745" font-size="0.029760" fill="hsl(180.0,100%,20%)">ynovikov</text>
<text x="1.891" y="0.338" font-size="0.049636" fill="hsl(180.0,100%,20%)">yuxinhu</text>
<text x="1.391" y="0.293" font-size="0.004013" fill="hsl(180.0,100%,20%)">gregschlom</text>
<text x="1.637" y="0.262" font-size="0.004013" fill="hsl(180.0,100%,20%)">slumpwuffle</text>
<text x="1.593" y="0.955" font-size="0.011350" fill="hsl(0.0,100%,20%)">chris</text>
<text x="1.821" y="0.899" font-size="0.021979" fill="hsl(0.0,100%,20%)">kbr</text>
<text x="0.198" y="0.307" font-size="0.026919" fill="hsl(180.0,100%,20%)">mark</text>
<text x="1.792" y="0.181" font-size="0.014469" fill="hsl(180.0,100%,20%)">solti</text>
<text x="0.394" y="0.096" font-size="0.008973" fill="hsl(180.0,100%,20%)">dextero</text>
<text x="1.280" y="0.894" font-size="0.009829" fill="hsl(0.0,100%,20%)">djg</text>
<text x="1.454" y="0.869" font-size="0.021234" fill="hsl(0.0,100%,20%)">lehoangquyen</text>
<text x="1.646" y="0.448" font-size="0.006950" fill="hsl(180.0,100%,20%)">dloehr</text>
<text x="1.216" y="0.772" font-size="0.037429" fill="hsl(180.0,100%,20%)">g.tammana</text>
<text x="0.673" y="0.407" font-size="0.049474" fill="hsl(0.0,100%,20%)">lexa.knyazev</text>
<text x="1.853" y="0.593" font-size="0.022700" fill="hsl(0.0,100%,20%)">mpdenton</text>
<text x="1.826" y="0.482" font-size="0.020462" fill="hsl(0.0,100%,20%)">liza</text>
<text x="1.222" y="0.290" font-size="0.004013" fill="hsl(0.0,100%,20%)">johnstiles</text>
<text x="0.594" y="0.531" font-size="0.004013" fill="hsl(0.0,100%,20%)">vasilyt</text>
<text x="0.768" y="0.585" font-size="0.005675" fill="hsl(0.0,100%,20%)">zmo</text>
<text x="0.273" y="0.569" font-size="0.004013" fill="hsl(0.0,100%,20%)">dsinclair</text>
<text x="0.339" y="0.810" font-size="0.005675" fill="hsl(0.0,100%,20%)">cwallez</text>
<text x="1.009" y="0.275" font-size="0.039725" fill="hsl(0.0,100%,20%)">kkinnunen</text>
<text x="0.797" y="0.609" font-size="0.005675" fill="hsl(0.0,100%,20%)">senorblanco</text>
<text x="1.340" y="0.638" font-size="0.009829" fill="hsl(180.0,100%,20%)">hailinzhang</text>
<text x="1.676" y="0.680" font-size="0.008026" fill="hsl(0.0,100%,20%)">hocheung</text>
<text x="1.325" y="0.564" font-size="0.034752" fill="hsl(180.0,100%,20%)">i.nazarov</text>
<text x="1.230" y="0.413" font-size="0.023399" fill="hsl(180.0,100%,20%)">m.maiya</text>
<text x="0.565" y="0.791" font-size="0.008026" fill="hsl(0.0,100%,20%)">lichenliu</text>
<text x="1.422" y="0.481" font-size="0.012039" fill="hsl(180.0,100%,20%)">neil.zhang</text>
<text x="0.490" y="0.517" font-size="0.022700" fill="hsl(0.0,100%,20%)">r.khurram</text>
<text x="0.756" y="0.927" font-size="0.008026" fill="hsl(180.0,100%,20%)">rop</text>
<text x="1.064" y="0.957" font-size="0.004013" fill="hsl(180.0,100%,20%)">qjw</text>
<text x="0.975" y="0.598" font-size="0.013309" fill="hsl(180.0,100%,20%)">shufen.ma</text>
<text x="1.416" y="0.633" font-size="0.009829" fill="hsl(180.0,100%,20%)">steven</text>
<text x="1.538" y="0.703" font-size="0.004013" fill="hsl(180.0,100%,20%)">natsu</text>
<text x="1.567" y="0.757" font-size="0.010617" fill="hsl(180.0,100%,20%)">bsheedy</text>
<text x="1.982" y="0.497" font-size="0.016051" fill="hsl(180.0,100%,20%)">yuxiang.qian</text>
<text x="1.854" y="0.204" font-size="0.004013" fill="hsl(180.0,100%,20%)">zijunzhao</text>
</svg>
