<svg width="4000" height="2000" viewBox="-0.025 -0.025 2.05 1.05" xmlns="http://www.w3.org/2000/svg">
  <style>
    path {
      fill: none;
      stroke-linecap: round;
      stroke-opacity: 0.4;
    }

    text {
      text-anchor: middle;
      alignment-baseline: hanging;
    }
  </style>
  <g opacity="0.4">
<path d="M1.363 0.985 Q1.956 0.580 1.294 0.202" stroke="hsl(0.0,100%,35%)" stroke-width="0.00917"></path>
<path d="M1.363 0.985 Q1.603 0.914 1.516 0.781" stroke="hsl(0.0,100%,35%)" stroke-width="0.00720"></path>
<path d="M1.363 0.985 Q1.826 0.481 0.943 0.144" stroke="hsl(0.0,100%,35%)" stroke-width="0.00131"></path>
<path d="M1.363 0.985 Q1.096 0.508 0.106 0.533" stroke="hsl(0.0,100%,35%)" stroke-width="0.00131"></path>
<path d="M1.363 0.985 Q1.835 0.699 1.380 0.406" stroke="hsl(0.0,100%,35%)" stroke-width="0.00131"></path>
<path d="M1.294 0.202 Q1.591 0.229 1.709 0.090" stroke="hsl(180.0,100%,35%)" stroke-width="0.01113"></path>
<path d="M1.294 0.202 Q0.941 0.536 1.516 0.781" stroke="hsl(180.0,100%,35%)" stroke-width="0.00655"></path>
<path d="M1.294 0.202 Q0.953 0.098 0.676 0.242" stroke="hsl(180.0,100%,35%)" stroke-width="0.01310"></path>
<path d="M1.294 0.202 Q1.097 0.197 1.044 0.293" stroke="hsl(180.0,100%,35%)" stroke-width="0.00065"></path>
<path d="M1.294 0.202 Q1.462 0.316 1.722 0.260" stroke="hsl(180.0,100%,35%)" stroke-width="0.01113"></path>
<path d="M1.294 0.202 Q0.517 0.490 0.910 0.932" stroke="hsl(180.0,100%,35%)" stroke-width="0.00065"></path>
<path d="M1.294 0.202 Q1.141 0.158 1.023 0.223" stroke="hsl(180.0,100%,35%)" stroke-width="0.00393"></path>
<path d="M1.294 0.202 Q0.435 0.130 0.106 0.533" stroke="hsl(180.0,100%,35%)" stroke-width="0.00393"></path>
<path d="M1.294 0.202 Q1.165 0.102 0.943 0.144" stroke="hsl(180.0,100%,35%)" stroke-width="0.00786"></path>
<path d="M1.294 0.202 Q1.347 0.105 1.171 0.059" stroke="hsl(180.0,100%,35%)" stroke-width="0.00262"></path>
<path d="M1.294 0.202 Q1.432 0.109 1.282 0.021" stroke="hsl(180.0,100%,35%)" stroke-width="0.00065"></path>
<path d="M1.294 0.202 Q1.434 0.337 1.729 0.299" stroke="hsl(180.0,100%,35%)" stroke-width="0.00065"></path>
<path d="M1.294 0.202 Q0.638 0.121 0.336 0.423" stroke="hsl(180.0,100%,35%)" stroke-width="0.00065"></path>
<path d="M1.294 0.202 Q1.346 0.394 1.732 0.411" stroke="hsl(180.0,100%,35%)" stroke-width="0.00065"></path>
<path d="M1.516 0.781 Q1.759 0.780 1.810 0.662" stroke="hsl(0.0,100%,35%)" stroke-width="0.01113"></path>
<path d="M1.516 0.781 Q1.869 0.447 1.294 0.202" stroke="hsl(0.0,100%,35%)" stroke-width="0.00720"></path>
<path d="M1.516 0.781 Q1.498 0.632 1.203 0.609" stroke="hsl(0.0,100%,35%)" stroke-width="0.00851"></path>
<path d="M1.516 0.781 Q1.445 0.699 1.268 0.715" stroke="hsl(0.0,100%,35%)" stroke-width="0.00065"></path>
<path d="M1.516 0.781 Q1.268 0.522 0.707 0.586" stroke="hsl(0.0,100%,35%)" stroke-width="0.00065"></path>
<path d="M1.516 0.781 Q1.413 0.555 0.948 0.555" stroke="hsl(0.0,100%,35%)" stroke-width="0.00065"></path>
<path d="M1.516 0.781 Q1.593 0.890 1.821 0.876" stroke="hsl(0.0,100%,35%)" stroke-width="0.00458"></path>
<path d="M1.516 0.781 Q1.618 0.712 1.505 0.647" stroke="hsl(0.0,100%,35%)" stroke-width="0.00065"></path>
<path d="M0.943 0.144 Q1.125 0.147 1.171 0.059" stroke="hsl(180.0,100%,35%)" stroke-width="0.00065"></path>
<path d="M0.943 0.144 Q1.369 0.270 1.709 0.090" stroke="hsl(180.0,100%,35%)" stroke-width="0.00917"></path>
<path d="M0.943 0.144 Q1.073 0.243 1.294 0.202" stroke="hsl(180.0,100%,35%)" stroke-width="0.02619"></path>
<path d="M0.943 0.144 Q1.240 0.357 1.722 0.260" stroke="hsl(180.0,100%,35%)" stroke-width="0.00851"></path>
<path d="M0.943 0.144 Q0.920 0.199 1.023 0.223" stroke="hsl(180.0,100%,35%)" stroke-width="0.00065"></path>
<path d="M0.943 0.144 Q0.720 0.577 1.516 0.781" stroke="hsl(180.0,100%,35%)" stroke-width="0.00393"></path>
<path d="M0.106 0.533 Q0.836 0.506 0.943 0.144" stroke="hsl(180.0,100%,35%)" stroke-width="0.00065"></path>
<path d="M0.106 0.533 Q0.965 0.605 1.294 0.202" stroke="hsl(180.0,100%,35%)" stroke-width="0.00655"></path>
<path d="M0.106 0.533 Q0.812 0.561 1.023 0.223" stroke="hsl(180.0,100%,35%)" stroke-width="0.00262"></path>
<path d="M0.106 0.533 Q0.624 0.501 0.676 0.242" stroke="hsl(180.0,100%,35%)" stroke-width="0.00327"></path>
<path d="M0.106 0.533 Q1.133 0.720 1.722 0.260" stroke="hsl(180.0,100%,35%)" stroke-width="0.00262"></path>
<path d="M0.106 0.533 Q0.612 0.939 1.516 0.781" stroke="hsl(180.0,100%,35%)" stroke-width="0.00196"></path>
<path d="M0.106 0.533 Q0.170 0.636 0.385 0.627" stroke="hsl(180.0,100%,35%)" stroke-width="0.00262"></path>
<path d="M0.106 0.533 Q1.262 0.632 1.709 0.090" stroke="hsl(180.0,100%,35%)" stroke-width="0.00065"></path>
<path d="M1.380 0.406 Q1.501 0.287 1.294 0.202" stroke="hsl(0.0,100%,35%)" stroke-width="0.00524"></path>
<path d="M1.380 0.406 Q0.642 0.215 0.106 0.533" stroke="hsl(0.0,100%,35%)" stroke-width="0.00065"></path>
<path d="M1.380 0.406 Q1.148 0.621 1.516 0.781" stroke="hsl(0.0,100%,35%)" stroke-width="0.00131"></path>
<path d="M1.380 0.406 Q0.908 0.692 1.363 0.985" stroke="hsl(0.0,100%,35%)" stroke-width="0.00262"></path>
<path d="M1.520 0.933 Q1.639 0.856 1.516 0.781" stroke="hsl(0.0,100%,35%)" stroke-width="0.00327"></path>
<path d="M1.520 0.933 Q1.992 0.522 1.294 0.202" stroke="hsl(0.0,100%,35%)" stroke-width="0.00458"></path>
<path d="M1.520 0.933 Q1.399 0.928 1.363 0.985" stroke="hsl(0.0,100%,35%)" stroke-width="0.00262"></path>
<path d="M1.520 0.933 Q1.651 0.418 0.676 0.242" stroke="hsl(0.0,100%,35%)" stroke-width="0.00131"></path>
<path d="M1.520 0.933 Q1.839 0.478 1.023 0.223" stroke="hsl(0.0,100%,35%)" stroke-width="0.00131"></path>
<path d="M0.676 0.242 Q0.864 0.302 1.023 0.223" stroke="hsl(180.0,100%,35%)" stroke-width="0.00327"></path>
<path d="M0.676 0.242 Q1.017 0.345 1.294 0.202" stroke="hsl(180.0,100%,35%)" stroke-width="0.00458"></path>
<path d="M0.676 0.242 Q0.158 0.273 0.106 0.533" stroke="hsl(180.0,100%,35%)" stroke-width="0.00131"></path>
<path d="M0.676 0.242 Q0.360 0.264 0.336 0.423" stroke="hsl(180.0,100%,35%)" stroke-width="0.00327"></path>
<path d="M0.676 0.242 Q0.664 0.680 1.516 0.781" stroke="hsl(180.0,100%,35%)" stroke-width="0.00262"></path>
<path d="M0.676 0.242 Q1.184 0.460 1.722 0.260" stroke="hsl(180.0,100%,35%)" stroke-width="0.00196"></path>
<path d="M0.676 0.242 Q1.314 0.373 1.709 0.090" stroke="hsl(180.0,100%,35%)" stroke-width="0.00131"></path>
<path d="M0.676 0.242 Q0.888 0.246 0.943 0.144" stroke="hsl(180.0,100%,35%)" stroke-width="0.00131"></path>
<path d="M1.023 0.223 Q1.343 0.381 1.722 0.260" stroke="hsl(180.0,100%,35%)" stroke-width="0.00065"></path>
<path d="M1.023 0.223 Q1.176 0.267 1.294 0.202" stroke="hsl(180.0,100%,35%)" stroke-width="0.01964"></path>
<path d="M1.023 0.223 Q0.823 0.601 1.516 0.781" stroke="hsl(180.0,100%,35%)" stroke-width="0.00065"></path>
<path d="M1.023 0.223 Q0.316 0.195 0.106 0.533" stroke="hsl(180.0,100%,35%)" stroke-width="0.00196"></path>
<path d="M1.023 0.223 Q1.472 0.294 1.709 0.090" stroke="hsl(180.0,100%,35%)" stroke-width="0.00262"></path>
<path d="M1.023 0.223 Q0.834 0.163 0.676 0.242" stroke="hsl(180.0,100%,35%)" stroke-width="0.00262"></path>
<path d="M1.023 0.223 Q1.047 0.167 0.943 0.144" stroke="hsl(180.0,100%,35%)" stroke-width="0.00262"></path>
<path d="M1.722 0.260 Q1.426 0.046 0.943 0.144" stroke="hsl(180.0,100%,35%)" stroke-width="0.00524"></path>
<path d="M1.722 0.260 Q1.555 0.145 1.294 0.202" stroke="hsl(180.0,100%,35%)" stroke-width="0.01572"></path>
<path d="M1.722 0.260 Q1.214 0.041 0.676 0.242" stroke="hsl(180.0,100%,35%)" stroke-width="0.00196"></path>
<path d="M1.722 0.260 Q1.402 0.101 1.023 0.223" stroke="hsl(180.0,100%,35%)" stroke-width="0.00065"></path>
<path d="M1.722 0.260 Q0.696 0.073 0.106 0.533" stroke="hsl(180.0,100%,35%)" stroke-width="0.00065"></path>
<path d="M1.722 0.260 Q1.608 0.049 1.171 0.059" stroke="hsl(180.0,100%,35%)" stroke-width="0.00065"></path>
<path d="M1.722 0.260 Q1.852 0.172 1.709 0.090" stroke="hsl(180.0,100%,35%)" stroke-width="0.00327"></path>
<path d="M1.722 0.260 Q1.496 0.211 1.352 0.311" stroke="hsl(180.0,100%,35%)" stroke-width="0.00065"></path>
<path d="M1.171 0.059 Q1.119 0.155 1.294 0.202" stroke="hsl(180.0,100%,35%)" stroke-width="0.02030"></path>
<path d="M1.171 0.059 Q1.415 0.182 1.709 0.090" stroke="hsl(180.0,100%,35%)" stroke-width="0.00327"></path>
<path d="M1.171 0.059 Q1.074 -0.006 0.926 0.027" stroke="hsl(180.0,100%,35%)" stroke-width="0.00065"></path>
<path d="M1.171 0.059 Q0.766 0.489 1.516 0.781" stroke="hsl(180.0,100%,35%)" stroke-width="0.00196"></path>
<path d="M1.171 0.059 Q0.989 0.056 0.943 0.144" stroke="hsl(180.0,100%,35%)" stroke-width="0.00262"></path>
<path d="M1.171 0.059 Q1.024 0.355 1.570 0.491" stroke="hsl(180.0,100%,35%)" stroke-width="0.00065"></path>
<path d="M1.171 0.059 Q0.921 0.150 1.044 0.293" stroke="hsl(180.0,100%,35%)" stroke-width="0.00065"></path>
<path d="M1.709 0.090 Q0.756 -0.018 0.336 0.423" stroke="hsl(180.0,100%,35%)" stroke-width="0.00065"></path>
<path d="M1.709 0.090 Q1.552 0.199 1.729 0.299" stroke="hsl(180.0,100%,35%)" stroke-width="0.00065"></path>
<path d="M1.709 0.090 Q1.580 0.178 1.722 0.260" stroke="hsl(180.0,100%,35%)" stroke-width="0.01637"></path>
<path d="M1.709 0.090 Q0.553 -0.009 0.106 0.533" stroke="hsl(180.0,100%,35%)" stroke-width="0.00196"></path>
<path d="M1.709 0.090 Q1.413 0.063 1.294 0.202" stroke="hsl(180.0,100%,35%)" stroke-width="0.01179"></path>
<path d="M1.709 0.090 Q1.284 -0.036 0.943 0.144" stroke="hsl(180.0,100%,35%)" stroke-width="0.00262"></path>
<path d="M1.709 0.090 Q1.466 -0.033 1.171 0.059" stroke="hsl(180.0,100%,35%)" stroke-width="0.00131"></path>
<path d="M1.709 0.090 Q1.071 -0.041 0.676 0.242" stroke="hsl(180.0,100%,35%)" stroke-width="0.00131"></path>
<path d="M1.352 0.311 Q1.578 0.359 1.722 0.260" stroke="hsl(180.0,100%,35%)" stroke-width="0.00131"></path>
<path d="M1.352 0.311 Q1.411 0.245 1.294 0.202" stroke="hsl(180.0,100%,35%)" stroke-width="0.02554"></path>
<path d="M1.352 0.311 Q1.282 0.146 0.943 0.144" stroke="hsl(180.0,100%,35%)" stroke-width="0.01179"></path>
<path d="M1.352 0.311 Q1.707 0.272 1.709 0.090" stroke="hsl(180.0,100%,35%)" stroke-width="0.00131"></path>
<path d="M1.352 0.311 Q1.058 0.579 1.516 0.781" stroke="hsl(180.0,100%,35%)" stroke-width="0.00065"></path>
<path d="M1.352 0.311 Q1.258 0.201 1.023 0.223" stroke="hsl(180.0,100%,35%)" stroke-width="0.00065"></path>
<path d="M1.196 0.329 Q1.515 0.400 1.722 0.260" stroke="hsl(180.0,100%,35%)" stroke-width="0.00196"></path>
<path d="M1.196 0.329 Q1.348 0.285 1.294 0.202" stroke="hsl(180.0,100%,35%)" stroke-width="0.00655"></path>
<path d="M1.196 0.329 Q1.218 0.186 0.943 0.144" stroke="hsl(180.0,100%,35%)" stroke-width="0.00262"></path>
<path d="M1.196 0.329 Q0.995 0.619 1.516 0.781" stroke="hsl(180.0,100%,35%)" stroke-width="0.00065"></path>
<path d="M1.196 0.329 Q0.774 0.300 0.625 0.500" stroke="hsl(180.0,100%,35%)" stroke-width="0.00065"></path>
<path d="M1.196 0.329 Q1.644 0.312 1.709 0.090" stroke="hsl(180.0,100%,35%)" stroke-width="0.00131"></path>
<path d="M0.625 0.500 Q0.845 0.819 1.516 0.781" stroke="hsl(0.0,100%,35%)" stroke-width="0.00065"></path>
<path d="M0.625 0.500 Q1.000 0.480 1.044 0.293" stroke="hsl(0.0,100%,35%)" stroke-width="0.00065"></path>
<path d="M0.625 0.500 Q1.198 0.484 1.294 0.202" stroke="hsl(0.0,100%,35%)" stroke-width="0.00131"></path>
<path d="M0.948 0.555 Q0.831 0.463 0.625 0.500" stroke="hsl(0.0,100%,35%)" stroke-width="0.00851"></path>
<path d="M0.948 0.555 Q1.404 0.448 1.294 0.202" stroke="hsl(0.0,100%,35%)" stroke-width="0.00655"></path>
<path d="M0.948 0.555 Q1.206 0.443 1.044 0.293" stroke="hsl(0.0,100%,35%)" stroke-width="0.00327"></path>
<path d="M1.044 0.293 Q1.242 0.297 1.294 0.202" stroke="hsl(180.0,100%,35%)" stroke-width="0.04715"></path>
<path d="M1.044 0.293 Q0.889 0.631 1.516 0.781" stroke="hsl(180.0,100%,35%)" stroke-width="0.01375"></path>
<path d="M1.044 0.293 Q0.786 0.405 0.948 0.555" stroke="hsl(180.0,100%,35%)" stroke-width="0.00065"></path>
<path d="M1.044 0.293 Q0.669 0.312 0.625 0.500" stroke="hsl(180.0,100%,35%)" stroke-width="0.00131"></path>
<path d="M1.044 0.293 Q0.901 0.193 0.676 0.242" stroke="hsl(180.0,100%,35%)" stroke-width="0.00131"></path>
<path d="M1.044 0.293 Q1.539 0.324 1.709 0.090" stroke="hsl(180.0,100%,35%)" stroke-width="0.00131"></path>
<path d="M1.044 0.293 Q1.410 0.412 1.722 0.260" stroke="hsl(180.0,100%,35%)" stroke-width="0.00065"></path>
<path d="M1.044 0.293 Q0.641 0.372 0.707 0.586" stroke="hsl(180.0,100%,35%)" stroke-width="0.00065"></path>
<path d="M1.044 0.293 Q1.293 0.489 1.732 0.411" stroke="hsl(180.0,100%,35%)" stroke-width="0.00065"></path>
<path d="M0.336 0.423 Q1.160 0.619 1.722 0.260" stroke="hsl(180.0,100%,35%)" stroke-width="0.00065"></path>
<path d="M0.336 0.423 Q0.651 0.400 0.676 0.242" stroke="hsl(180.0,100%,35%)" stroke-width="0.00327"></path>
<path d="M0.336 0.423 Q0.133 0.432 0.106 0.533" stroke="hsl(180.0,100%,35%)" stroke-width="0.00065"></path>
<path d="M1.496 0.027 Q1.423 0.189 1.722 0.260" stroke="hsl(0.0,100%,35%)" stroke-width="0.00065"></path>
<path d="M1.496 0.027 Q1.552 0.101 1.709 0.090" stroke="hsl(0.0,100%,35%)" stroke-width="0.00065"></path>
<path d="M1.496 0.027 Q0.902 0.408 1.516 0.781" stroke="hsl(0.0,100%,35%)" stroke-width="0.00065"></path>
<path d="M1.496 0.027 Q1.255 0.074 1.294 0.202" stroke="hsl(0.0,100%,35%)" stroke-width="0.00065"></path>
<path d="M1.810 0.662 Q1.568 0.663 1.516 0.781" stroke="hsl(0.0,100%,35%)" stroke-width="0.00262"></path>
<path d="M1.810 0.662 Q1.549 0.514 1.203 0.609" stroke="hsl(0.0,100%,35%)" stroke-width="0.00131"></path>
<path d="M1.810 0.662 Q1.921 0.328 1.294 0.202" stroke="hsl(0.0,100%,35%)" stroke-width="0.00131"></path>
<path d="M1.203 0.609 Q1.465 0.757 1.810 0.662" stroke="hsl(0.0,100%,35%)" stroke-width="0.00720"></path>
<path d="M1.203 0.609 Q1.575 0.423 1.294 0.202" stroke="hsl(0.0,100%,35%)" stroke-width="0.00524"></path>
<path d="M1.203 0.609 Q1.222 0.758 1.516 0.781" stroke="hsl(0.0,100%,35%)" stroke-width="0.00786"></path>
<path d="M1.268 0.715 Q1.339 0.798 1.516 0.781" stroke="hsl(0.0,100%,35%)" stroke-width="0.01703"></path>
<path d="M1.268 0.715 Q1.692 0.464 1.294 0.202" stroke="hsl(0.0,100%,35%)" stroke-width="0.00393"></path>
<path d="M1.268 0.715 Q1.494 0.459 1.044 0.293" stroke="hsl(0.0,100%,35%)" stroke-width="0.00262"></path>
<path d="M1.268 0.715 Q1.119 0.479 0.625 0.500" stroke="hsl(0.0,100%,35%)" stroke-width="0.00196"></path>
<path d="M0.707 0.586 Q1.111 0.507 1.044 0.293" stroke="hsl(0.0,100%,35%)" stroke-width="0.00065"></path>
<path d="M0.707 0.586 Q0.956 0.846 1.516 0.781" stroke="hsl(0.0,100%,35%)" stroke-width="0.00065"></path>
<path d="M0.707 0.586 Q0.735 0.527 0.625 0.500" stroke="hsl(0.0,100%,35%)" stroke-width="0.00196"></path>
<path d="M1.549 0.109 Q1.348 0.104 1.294 0.202" stroke="hsl(180.0,100%,35%)" stroke-width="0.00196"></path>
<path d="M1.549 0.109 Q1.645 0.132 1.709 0.090" stroke="hsl(180.0,100%,35%)" stroke-width="0.00131"></path>
<path d="M1.549 0.109 Q1.516 0.219 1.722 0.260" stroke="hsl(180.0,100%,35%)" stroke-width="0.00065"></path>
<path d="M1.549 0.109 Q0.995 0.439 1.516 0.781" stroke="hsl(180.0,100%,35%)" stroke-width="0.00065"></path>
<path d="M1.549 0.109 Q0.489 0.033 0.106 0.533" stroke="hsl(180.0,100%,35%)" stroke-width="0.00065"></path>
<path d="M1.570 0.491 Q1.322 0.188 0.676 0.242" stroke="hsl(180.0,100%,35%)" stroke-width="0.00065"></path>
<path d="M1.570 0.491 Q1.960 0.319 1.709 0.090" stroke="hsl(180.0,100%,35%)" stroke-width="0.00131"></path>
<path d="M1.570 0.491 Q1.803 0.427 1.729 0.299" stroke="hsl(180.0,100%,35%)" stroke-width="0.00065"></path>
<path d="M1.729 0.299 Q1.886 0.191 1.709 0.090" stroke="hsl(180.0,100%,35%)" stroke-width="0.00131"></path>
<path d="M1.729 0.299 Q0.730 0.091 0.106 0.533" stroke="hsl(180.0,100%,35%)" stroke-width="0.00065"></path>
<path d="M1.729 0.299 Q1.237 0.498 1.516 0.781" stroke="hsl(180.0,100%,35%)" stroke-width="0.00065"></path>
<path d="M0.823 0.245 Q0.965 0.218 0.943 0.144" stroke="hsl(180.0,100%,35%)" stroke-width="0.00065"></path>
<path d="M0.823 0.245 Q1.094 0.317 1.294 0.202" stroke="hsl(180.0,100%,35%)" stroke-width="0.00196"></path>
<path d="M0.823 0.245 Q1.390 0.345 1.709 0.090" stroke="hsl(180.0,100%,35%)" stroke-width="0.00131"></path>
<path d="M0.149 0.711 Q0.976 0.642 1.023 0.223" stroke="hsl(180.0,100%,35%)" stroke-width="0.00131"></path>
<path d="M0.149 0.711 Q0.270 0.614 0.106 0.533" stroke="hsl(180.0,100%,35%)" stroke-width="0.00393"></path>
<path d="M0.149 0.711 Q0.788 0.582 0.676 0.242" stroke="hsl(180.0,100%,35%)" stroke-width="0.00131"></path>
<path d="M0.149 0.711 Q1.129 0.685 1.294 0.202" stroke="hsl(180.0,100%,35%)" stroke-width="0.00065"></path>
<path d="M0.149 0.711 Q1.000 0.586 0.943 0.144" stroke="hsl(180.0,100%,35%)" stroke-width="0.00065"></path>
<path d="M0.149 0.711 Q0.776 1.020 1.516 0.781" stroke="hsl(180.0,100%,35%)" stroke-width="0.00065"></path>
<path d="M1.732 0.411 Q1.339 0.115 0.676 0.242" stroke="hsl(180.0,100%,35%)" stroke-width="0.00196"></path>
<path d="M1.732 0.411 Q1.681 0.219 1.294 0.202" stroke="hsl(180.0,100%,35%)" stroke-width="0.00655"></path>
<path d="M1.732 0.411 Q1.848 0.333 1.722 0.260" stroke="hsl(180.0,100%,35%)" stroke-width="0.00786"></path>
<path d="M1.732 0.411 Q1.820 0.354 1.729 0.299" stroke="hsl(180.0,100%,35%)" stroke-width="0.00065"></path>
<path d="M1.732 0.411 Q1.977 0.246 1.709 0.090" stroke="hsl(180.0,100%,35%)" stroke-width="0.00131"></path>
<path d="M0.941 0.404 Q1.280 0.374 1.294 0.202" stroke="hsl(180.0,100%,35%)" stroke-width="0.00589"></path>
<path d="M0.941 0.404 Q1.576 0.401 1.709 0.090" stroke="hsl(180.0,100%,35%)" stroke-width="0.00065"></path>
<path d="M0.941 0.404 Q1.151 0.274 0.943 0.144" stroke="hsl(180.0,100%,35%)" stroke-width="0.00131"></path>
<path d="M0.941 0.404 Q0.927 0.708 1.516 0.781" stroke="hsl(180.0,100%,35%)" stroke-width="0.00065"></path>
<path d="M0.941 0.404 Q0.938 0.270 0.676 0.242" stroke="hsl(180.0,100%,35%)" stroke-width="0.00065"></path>
<path d="M0.941 0.404 Q1.447 0.488 1.722 0.260" stroke="hsl(180.0,100%,35%)" stroke-width="0.00065"></path>
<path d="M0.941 0.404 Q1.082 0.369 1.044 0.293" stroke="hsl(180.0,100%,35%)" stroke-width="0.00196"></path>
<path d="M1.075 0.073 Q1.249 0.296 1.722 0.260" stroke="hsl(180.0,100%,35%)" stroke-width="0.00065"></path>
<path d="M1.075 0.073 Q1.082 0.181 1.294 0.202" stroke="hsl(180.0,100%,35%)" stroke-width="0.00458"></path>
<path d="M1.075 0.073 Q0.953 0.082 0.943 0.144" stroke="hsl(180.0,100%,35%)" stroke-width="0.00196"></path>
<path d="M1.075 0.073 Q0.729 0.515 1.516 0.781" stroke="hsl(180.0,100%,35%)" stroke-width="0.00065"></path>
<path d="M1.075 0.073 Q1.023 0.247 1.352 0.311" stroke="hsl(180.0,100%,35%)" stroke-width="0.00065"></path>
<path d="M1.075 0.073 Q0.884 0.176 1.044 0.293" stroke="hsl(180.0,100%,35%)" stroke-width="0.00065"></path>
<path d="M1.087 0.979 Q1.220 1.037 1.363 0.985" stroke="hsl(0.0,100%,35%)" stroke-width="0.00065"></path>
<path d="M1.087 0.979 Q1.813 0.632 1.294 0.202" stroke="hsl(0.0,100%,35%)" stroke-width="0.00131"></path>
<path d="M1.087 0.979 Q0.954 0.560 0.106 0.533" stroke="hsl(0.0,100%,35%)" stroke-width="0.00065"></path>
<path d="M1.238 0.416 Q1.240 0.316 1.044 0.293" stroke="hsl(180.0,100%,35%)" stroke-width="0.00065"></path>
<path d="M1.238 0.416 Q1.438 0.320 1.294 0.202" stroke="hsl(180.0,100%,35%)" stroke-width="0.00458"></path>
<path d="M1.238 0.416 Q1.309 0.221 0.943 0.144" stroke="hsl(180.0,100%,35%)" stroke-width="0.00196"></path>
<path d="M1.238 0.416 Q1.085 0.654 1.516 0.781" stroke="hsl(180.0,100%,35%)" stroke-width="0.00065"></path>
<path d="M1.238 0.416 Q1.735 0.348 1.709 0.090" stroke="hsl(180.0,100%,35%)" stroke-width="0.00131"></path>
<path d="M1.560 0.309 Q1.513 0.202 1.294 0.202" stroke="hsl(180.0,100%,35%)" stroke-width="0.00131"></path>
<path d="M1.560 0.309 Q0.654 0.130 0.106 0.533" stroke="hsl(180.0,100%,35%)" stroke-width="0.00065"></path>
<path d="M1.560 0.309 Q1.809 0.229 1.709 0.090" stroke="hsl(180.0,100%,35%)" stroke-width="0.00065"></path>
<path d="M0.612 0.365 Q0.742 0.316 0.676 0.242" stroke="hsl(180.0,100%,35%)" stroke-width="0.00131"></path>
<path d="M0.612 0.365 Q0.931 0.376 1.023 0.223" stroke="hsl(180.0,100%,35%)" stroke-width="0.00065"></path>
<path d="M0.612 0.365 Q1.380 0.447 1.709 0.090" stroke="hsl(180.0,100%,35%)" stroke-width="0.00065"></path>
<path d="M0.612 0.365 Q1.223 0.555 1.729 0.299" stroke="hsl(180.0,100%,35%)" stroke-width="0.00065"></path>
<path d="M0.612 0.365 Q1.084 0.420 1.294 0.202" stroke="hsl(180.0,100%,35%)" stroke-width="0.00065"></path>
<path d="M0.857 0.090 Q0.857 0.134 0.943 0.144" stroke="hsl(180.0,100%,35%)" stroke-width="0.00131"></path>
<path d="M0.857 0.090 Q0.986 0.233 1.294 0.202" stroke="hsl(180.0,100%,35%)" stroke-width="0.00458"></path>
<path d="M0.857 0.090 Q0.633 0.567 1.516 0.781" stroke="hsl(180.0,100%,35%)" stroke-width="0.00131"></path>
<path d="M0.857 0.090 Q1.154 0.348 1.722 0.260" stroke="hsl(180.0,100%,35%)" stroke-width="0.00131"></path>
<path d="M0.857 0.090 Q0.645 0.129 0.676 0.242" stroke="hsl(180.0,100%,35%)" stroke-width="0.00065"></path>
<path d="M0.857 0.090 Q0.833 0.190 1.023 0.223" stroke="hsl(180.0,100%,35%)" stroke-width="0.00065"></path>
<path d="M0.857 0.090 Q1.283 0.260 1.709 0.090" stroke="hsl(180.0,100%,35%)" stroke-width="0.00065"></path>
<path d="M0.701 0.115 Q0.929 0.277 1.294 0.202" stroke="hsl(180.0,100%,35%)" stroke-width="0.00262"></path>
<path d="M0.701 0.115 Q0.069 0.205 0.106 0.533" stroke="hsl(180.0,100%,35%)" stroke-width="0.00065"></path>
<path d="M0.701 0.115 Q1.096 0.392 1.722 0.260" stroke="hsl(180.0,100%,35%)" stroke-width="0.00131"></path>
<path d="M0.701 0.115 Q0.576 0.611 1.516 0.781" stroke="hsl(180.0,100%,35%)" stroke-width="0.00065"></path>
<path d="M0.160 0.646 Q0.223 0.579 0.106 0.533" stroke="hsl(180.0,100%,35%)" stroke-width="0.00196"></path>
<path d="M0.160 0.646 Q0.929 0.607 1.023 0.223" stroke="hsl(180.0,100%,35%)" stroke-width="0.00065"></path>
<path d="M0.160 0.646 Q1.082 0.650 1.294 0.202" stroke="hsl(180.0,100%,35%)" stroke-width="0.00196"></path>
<path d="M0.988 0.237 Q1.041 0.181 0.943 0.144" stroke="hsl(180.0,100%,35%)" stroke-width="0.00131"></path>
<path d="M0.988 0.237 Q1.170 0.281 1.294 0.202" stroke="hsl(180.0,100%,35%)" stroke-width="0.00262"></path>
<path d="M0.988 0.237 Q1.223 0.185 1.171 0.059" stroke="hsl(180.0,100%,35%)" stroke-width="0.00065"></path>
<path d="M0.988 0.237 Q0.972 0.276 1.044 0.293" stroke="hsl(180.0,100%,35%)" stroke-width="0.00065"></path>
<path d="M1.050 0.080 Q0.722 0.524 1.516 0.781" stroke="hsl(180.0,100%,35%)" stroke-width="0.00131"></path>
<path d="M1.050 0.080 Q1.075 0.190 1.294 0.202" stroke="hsl(180.0,100%,35%)" stroke-width="0.00262"></path>
<path d="M1.050 0.080 Q0.946 0.090 0.943 0.144" stroke="hsl(180.0,100%,35%)" stroke-width="0.00065"></path>
<path d="M1.050 0.080 Q1.371 0.217 1.709 0.090" stroke="hsl(180.0,100%,35%)" stroke-width="0.00065"></path>
<path d="M1.025 0.025 Q0.665 0.501 1.516 0.781" stroke="hsl(0.0,100%,35%)" stroke-width="0.00196"></path>
<path d="M1.025 0.025 Q1.018 0.167 1.294 0.202" stroke="hsl(0.0,100%,35%)" stroke-width="0.00262"></path>
<path d="M1.025 0.025 Q0.821 0.163 1.044 0.293" stroke="hsl(0.0,100%,35%)" stroke-width="0.00065"></path>
<path d="M1.508 0.048 Q1.279 0.082 1.294 0.202" stroke="hsl(180.0,100%,35%)" stroke-width="0.00065"></path>
<path d="M1.508 0.048 Q1.446 0.197 1.722 0.260" stroke="hsl(180.0,100%,35%)" stroke-width="0.00196"></path>
<path d="M1.508 0.048 Q1.575 0.109 1.709 0.090" stroke="hsl(180.0,100%,35%)" stroke-width="0.00131"></path>
<path d="M0.851 0.113 Q0.849 0.202 1.023 0.223" stroke="hsl(0.0,100%,35%)" stroke-width="0.00065"></path>
<path d="M0.851 0.113 Q1.002 0.246 1.294 0.202" stroke="hsl(0.0,100%,35%)" stroke-width="0.00786"></path>
<path d="M0.851 0.113 Q0.649 0.580 1.516 0.781" stroke="hsl(0.0,100%,35%)" stroke-width="0.00458"></path>
<path d="M0.851 0.113 Q0.142 0.174 0.106 0.533" stroke="hsl(0.0,100%,35%)" stroke-width="0.00065"></path>
<path d="M0.851 0.113 Q0.660 0.142 0.676 0.242" stroke="hsl(0.0,100%,35%)" stroke-width="0.00131"></path>
<path d="M0.851 0.113 Q1.169 0.361 1.722 0.260" stroke="hsl(0.0,100%,35%)" stroke-width="0.00131"></path>
<path d="M0.851 0.113 Q0.804 0.241 1.044 0.293" stroke="hsl(0.0,100%,35%)" stroke-width="0.00065"></path>
</g>
<text x="1.363" y="0.972" font-size="0.027356" fill="hsl(0.0,100%,20%)">a.annestrand</text>
<text x="1.294" y="0.152" font-size="0.099766" fill="hsl(180.0,100%,20%)">syoussefi</text>
<text x="1.516" y="0.752" font-size="0.058991" fill="hsl(0.0,100%,20%)">geofflang</text>
<text x="0.943" y="0.117" font-size="0.052798" fill="hsl(180.0,100%,20%)">cclao</text>
<text x="0.106" y="0.515" font-size="0.035140" fill="hsl(180.0,100%,20%)">ynovikov</text>
<text x="1.380" y="0.397" font-size="0.017834" fill="hsl(0.0,100%,20%)">g.tammana</text>
<text x="1.520" y="0.923" font-size="0.019344" fill="hsl(0.0,100%,20%)">a.dean1</text>
<text x="0.676" y="0.222" font-size="0.039878" fill="hsl(180.0,100%,20%)">cnorthrop</text>
<text x="1.023" y="0.205" font-size="0.036956" fill="hsl(180.0,100%,20%)">romanl</text>
<text x="1.722" y="0.234" font-size="0.050996" fill="hsl(180.0,100%,20%)">abdolrashidi</text>
<text x="1.171" y="0.043" font-size="0.032078" fill="hsl(180.0,100%,20%)">m.maiya</text>
<text x="1.709" y="0.065" font-size="0.049317" fill="hsl(180.0,100%,20%)">yuxinhu</text>
<text x="1.352" y="0.294" font-size="0.034872" fill="hsl(180.0,100%,20%)">i.nazarov</text>
<text x="1.196" y="0.319" font-size="0.019821" fill="hsl(180.0,100%,20%)">aurora.zhang</text>
<text x="0.625" y="0.489" font-size="0.022055" fill="hsl(0.0,100%,20%)">kbr</text>
<text x="0.948" y="0.543" font-size="0.023691" fill="hsl(0.0,100%,20%)">chris</text>
<text x="1.044" y="0.268" font-size="0.048166" fill="hsl(180.0,100%,20%)">lexa.knyazev</text>
<text x="0.336" y="0.415" font-size="0.016184" fill="hsl(180.0,100%,20%)">mark</text>
<text x="1.496" y="0.022" font-size="0.008651" fill="hsl(0.0,100%,20%)">dloehr</text>
<text x="1.810" y="0.649" font-size="0.025952" fill="hsl(0.0,100%,20%)">liza</text>
<text x="1.203" y="0.594" font-size="0.029336" fill="hsl(0.0,100%,20%)">mpdenton</text>
<text x="1.268" y="0.701" font-size="0.027356" fill="hsl(0.0,100%,20%)">kkinnunen</text>
<text x="0.707" y="0.581" font-size="0.011444" fill="hsl(0.0,100%,20%)">lehoangquyen</text>
<text x="1.821" y="0.870" font-size="0.011444" fill="hsl(0.0,100%,20%)">cwallez</text>
<text x="1.505" y="0.645" font-size="0.004325" fill="hsl(0.0,100%,20%)">blundell</text>
<text x="1.549" y="0.103" font-size="0.012234" fill="hsl(180.0,100%,20%)">hans</text>
<text x="1.570" y="0.487" font-size="0.009672" fill="hsl(180.0,100%,20%)">hibrian</text>
<text x="1.729" y="0.293" font-size="0.012976" fill="hsl(180.0,100%,20%)">solti</text>
<text x="0.823" y="0.240" font-size="0.010595" fill="hsl(180.0,100%,20%)">jiaqi.li</text>
<text x="0.149" y="0.703" font-size="0.015595" fill="hsl(180.0,100%,20%)">jwata</text>
<text x="1.732" y="0.399" font-size="0.023691" fill="hsl(180.0,100%,20%)">timvp</text>
<text x="0.926" y="0.025" font-size="0.004325" fill="hsl(180.0,100%,20%)">ianelliott</text>
<text x="0.941" y="0.395" font-size="0.018351" fill="hsl(180.0,100%,20%)">mavis.deng</text>
<text x="1.075" y="0.065" font-size="0.016184" fill="hsl(180.0,100%,20%)">neil.zhang</text>
<text x="1.087" y="0.975" font-size="0.008651" fill="hsl(0.0,100%,20%)">r.khurram</text>
<text x="1.238" y="0.408" font-size="0.016184" fill="hsl(180.0,100%,20%)">robic.sun</text>
<text x="1.560" y="0.304" font-size="0.008651" fill="hsl(180.0,100%,20%)">rop</text>
<text x="0.612" y="0.360" font-size="0.010595" fill="hsl(180.0,100%,20%)">shawshanks</text>
<text x="0.857" y="0.081" font-size="0.017302" fill="hsl(180.0,100%,20%)">shufen.ma</text>
<text x="0.701" y="0.109" font-size="0.012234" fill="hsl(180.0,100%,20%)">steven</text>
<text x="0.910" y="0.930" font-size="0.004325" fill="hsl(180.0,100%,20%)">vasilyt</text>
<text x="1.282" y="0.019" font-size="0.004325" fill="hsl(180.0,100%,20%)">natsu</text>
<text x="0.160" y="0.640" font-size="0.011444" fill="hsl(180.0,100%,20%)">tikuta</text>
<text x="0.988" y="0.231" font-size="0.012234" fill="hsl(180.0,100%,20%)">tingwei.guo</text>
<text x="1.050" y="0.074" font-size="0.012234" fill="hsl(180.0,100%,20%)">xin.yuan</text>
<text x="1.025" y="0.019" font-size="0.012234" fill="hsl(0.0,100%,20%)">xinyu.fang</text>
<text x="1.508" y="0.043" font-size="0.010595" fill="hsl(180.0,100%,20%)">xwxw</text>
<text x="0.385" y="0.622" font-size="0.008651" fill="hsl(180.0,100%,20%)">bsheedy</text>
<text x="0.851" y="0.102" font-size="0.022055" fill="hsl(0.0,100%,20%)">yuxiang.qian</text>
</svg>
