<svg width="4000" height="2000" viewBox="-0.025 -0.025 2.05 1.05" xmlns="http://www.w3.org/2000/svg">
  <style>
    path {
      fill: none;
      stroke-linecap: round;
      stroke-opacity: 0.4;
    }

    text {
      text-anchor: middle;
      alignment-baseline: hanging;
    }
  </style>
  <g opacity="0.4">
<path d="M1.076 0.644 Q1.248 0.868 1.722 0.833" stroke="hsl(0.0,100%,35%)" stroke-width="0.01415"></path>
<path d="M1.076 0.644 Q1.486 0.408 1.116 0.156" stroke="hsl(0.0,100%,35%)" stroke-width="0.01112"></path>
<path d="M1.076 0.644 Q1.189 0.735 1.392 0.700" stroke="hsl(0.0,100%,35%)" stroke-width="0.00202"></path>
<path d="M1.076 0.644 Q1.064 0.833 1.431 0.881" stroke="hsl(0.0,100%,35%)" stroke-width="0.00202"></path>
<path d="M1.076 0.644 Q1.458 0.769 1.787 0.610" stroke="hsl(0.0,100%,35%)" stroke-width="0.00202"></path>
<path d="M1.722 0.833 Q1.960 0.373 1.116 0.156" stroke="hsl(180.0,100%,35%)" stroke-width="0.00606"></path>
<path d="M1.722 0.833 Q1.995 0.778 1.948 0.633" stroke="hsl(180.0,100%,35%)" stroke-width="0.00101"></path>
<path d="M1.722 0.833 Q1.285 0.538 0.614 0.687" stroke="hsl(180.0,100%,35%)" stroke-width="0.00404"></path>
<path d="M1.722 0.833 Q1.256 0.672 0.840 0.864" stroke="hsl(180.0,100%,35%)" stroke-width="0.00202"></path>
<path d="M1.722 0.833 Q1.777 0.695 1.521 0.639" stroke="hsl(180.0,100%,35%)" stroke-width="0.00606"></path>
<path d="M1.722 0.833 Q1.538 0.799 1.431 0.881" stroke="hsl(180.0,100%,35%)" stroke-width="0.00303"></path>
<path d="M1.722 0.833 Q1.663 0.700 1.392 0.700" stroke="hsl(180.0,100%,35%)" stroke-width="0.01011"></path>
<path d="M1.722 0.833 Q1.477 0.864 1.483 0.990" stroke="hsl(180.0,100%,35%)" stroke-width="0.01011"></path>
<path d="M1.722 0.833 Q2.030 0.694 1.827 0.513" stroke="hsl(180.0,100%,35%)" stroke-width="0.00303"></path>
<path d="M1.722 0.833 Q1.854 0.734 1.691 0.649" stroke="hsl(180.0,100%,35%)" stroke-width="0.00101"></path>
<path d="M1.722 0.833 Q1.737 0.863 1.799 0.862" stroke="hsl(180.0,100%,35%)" stroke-width="0.00101"></path>
<path d="M1.722 0.833 Q1.641 0.902 1.758 0.956" stroke="hsl(180.0,100%,35%)" stroke-width="0.00101"></path>
<path d="M1.116 0.156 Q0.555 -0.014 0.100 0.223" stroke="hsl(0.0,100%,35%)" stroke-width="0.00404"></path>
<path d="M1.116 0.156 Q0.878 0.616 1.722 0.833" stroke="hsl(0.0,100%,35%)" stroke-width="0.00707"></path>
<path d="M1.116 0.156 Q0.747 0.006 0.372 0.152" stroke="hsl(0.0,100%,35%)" stroke-width="0.00202"></path>
<path d="M1.116 0.156 Q1.270 0.184 1.359 0.115" stroke="hsl(0.0,100%,35%)" stroke-width="0.00101"></path>
<path d="M1.116 0.156 Q1.053 0.224 1.173 0.270" stroke="hsl(0.0,100%,35%)" stroke-width="0.00101"></path>
<path d="M1.392 0.700 Q1.450 0.832 1.722 0.833" stroke="hsl(180.0,100%,35%)" stroke-width="0.03234"></path>
<path d="M1.392 0.700 Q1.013 0.538 0.614 0.687" stroke="hsl(180.0,100%,35%)" stroke-width="0.01314"></path>
<path d="M1.392 0.700 Q0.984 0.672 0.840 0.864" stroke="hsl(180.0,100%,35%)" stroke-width="0.01112"></path>
<path d="M1.392 0.700 Q1.505 0.695 1.521 0.639" stroke="hsl(180.0,100%,35%)" stroke-width="0.00101"></path>
<path d="M1.431 0.881 Q1.556 0.782 1.392 0.700" stroke="hsl(180.0,100%,35%)" stroke-width="0.00101"></path>
<path d="M1.431 0.881 Q1.615 0.915 1.722 0.833" stroke="hsl(180.0,100%,35%)" stroke-width="0.00909"></path>
<path d="M1.431 0.881 Q1.670 0.778 1.521 0.639" stroke="hsl(180.0,100%,35%)" stroke-width="0.00404"></path>
<path d="M1.431 0.881 Q1.370 0.946 1.483 0.990" stroke="hsl(180.0,100%,35%)" stroke-width="0.00303"></path>
<path d="M1.431 0.881 Q1.178 0.620 0.614 0.687" stroke="hsl(180.0,100%,35%)" stroke-width="0.00303"></path>
<path d="M1.431 0.881 Q1.853 0.455 1.116 0.156" stroke="hsl(180.0,100%,35%)" stroke-width="0.00303"></path>
<path d="M1.431 0.881 Q1.254 0.900 1.254 0.991" stroke="hsl(180.0,100%,35%)" stroke-width="0.00101"></path>
<path d="M1.787 0.610 Q1.815 0.249 1.116 0.156" stroke="hsl(180.0,100%,35%)" stroke-width="0.00202"></path>
<path d="M1.787 0.610 Q1.576 0.709 1.722 0.833" stroke="hsl(180.0,100%,35%)" stroke-width="0.00707"></path>
<path d="M1.787 0.610 Q1.404 0.485 1.076 0.644" stroke="hsl(180.0,100%,35%)" stroke-width="0.00404"></path>
<path d="M0.954 0.536 Q1.339 0.378 1.116 0.156" stroke="hsl(0.0,100%,35%)" stroke-width="0.00505"></path>
<path d="M0.954 0.536 Q1.100 0.838 1.722 0.833" stroke="hsl(0.0,100%,35%)" stroke-width="0.00707"></path>
<path d="M0.954 0.536 Q0.928 0.614 1.076 0.644" stroke="hsl(0.0,100%,35%)" stroke-width="0.00404"></path>
<path d="M0.954 0.536 Q0.855 0.869 1.483 0.990" stroke="hsl(0.0,100%,35%)" stroke-width="0.00202"></path>
<path d="M0.954 0.536 Q1.155 0.700 1.521 0.639" stroke="hsl(0.0,100%,35%)" stroke-width="0.00202"></path>
<path d="M1.483 0.990 Q1.783 0.822 1.521 0.639" stroke="hsl(180.0,100%,35%)" stroke-width="0.00505"></path>
<path d="M1.483 0.990 Q1.728 0.959 1.722 0.833" stroke="hsl(180.0,100%,35%)" stroke-width="0.00606"></path>
<path d="M1.483 0.990 Q1.545 0.925 1.431 0.881" stroke="hsl(180.0,100%,35%)" stroke-width="0.00202"></path>
<path d="M1.483 0.990 Q1.647 1.028 1.758 0.956" stroke="hsl(180.0,100%,35%)" stroke-width="0.00303"></path>
<path d="M1.483 0.990 Q1.967 0.500 1.116 0.156" stroke="hsl(180.0,100%,35%)" stroke-width="0.00404"></path>
<path d="M1.483 0.990 Q1.291 0.665 0.614 0.687" stroke="hsl(180.0,100%,35%)" stroke-width="0.00202"></path>
<path d="M1.521 0.639 Q1.283 0.742 1.431 0.881" stroke="hsl(180.0,100%,35%)" stroke-width="0.00303"></path>
<path d="M1.521 0.639 Q1.466 0.776 1.722 0.833" stroke="hsl(180.0,100%,35%)" stroke-width="0.02728"></path>
<path d="M1.521 0.639 Q1.000 0.615 0.840 0.864" stroke="hsl(180.0,100%,35%)" stroke-width="0.00404"></path>
<path d="M1.521 0.639 Q1.221 0.807 1.483 0.990" stroke="hsl(180.0,100%,35%)" stroke-width="0.00404"></path>
<path d="M1.521 0.639 Q1.407 0.643 1.392 0.700" stroke="hsl(180.0,100%,35%)" stroke-width="0.00404"></path>
<path d="M0.614 0.687 Q0.993 0.849 1.392 0.700" stroke="hsl(180.0,100%,35%)" stroke-width="0.00707"></path>
<path d="M0.614 0.687 Q1.051 0.981 1.722 0.833" stroke="hsl(180.0,100%,35%)" stroke-width="0.01314"></path>
<path d="M0.614 0.687 Q0.806 1.012 1.483 0.990" stroke="hsl(180.0,100%,35%)" stroke-width="0.00101"></path>
<path d="M0.614 0.687 Q1.106 0.844 1.521 0.639" stroke="hsl(180.0,100%,35%)" stroke-width="0.00101"></path>
<path d="M0.614 0.687 Q0.868 0.947 1.431 0.881" stroke="hsl(180.0,100%,35%)" stroke-width="0.00101"></path>
<path d="M0.614 0.687 Q1.359 0.842 1.827 0.513" stroke="hsl(180.0,100%,35%)" stroke-width="0.00101"></path>
<path d="M0.614 0.687 Q0.585 0.821 0.840 0.864" stroke="hsl(180.0,100%,35%)" stroke-width="0.00101"></path>
<path d="M1.827 0.513 Q1.837 0.444 1.704 0.424" stroke="hsl(180.0,100%,35%)" stroke-width="0.00101"></path>
<path d="M1.827 0.513 Q1.518 0.652 1.722 0.833" stroke="hsl(180.0,100%,35%)" stroke-width="0.01718"></path>
<path d="M1.827 0.513 Q1.757 0.192 1.116 0.156" stroke="hsl(180.0,100%,35%)" stroke-width="0.00202"></path>
<path d="M1.827 0.513 Q1.460 0.519 1.392 0.700" stroke="hsl(180.0,100%,35%)" stroke-width="0.00202"></path>
<path d="M1.827 0.513 Q1.923 0.371 1.666 0.292" stroke="hsl(180.0,100%,35%)" stroke-width="0.00101"></path>
<path d="M1.827 0.513 Q1.373 0.507 1.261 0.727" stroke="hsl(180.0,100%,35%)" stroke-width="0.00101"></path>
<path d="M0.840 0.864 Q0.869 0.730 0.614 0.687" stroke="hsl(180.0,100%,35%)" stroke-width="0.00707"></path>
<path d="M0.840 0.864 Q1.123 0.991 1.431 0.881" stroke="hsl(180.0,100%,35%)" stroke-width="0.00101"></path>
<path d="M0.840 0.864 Q1.306 1.025 1.722 0.833" stroke="hsl(180.0,100%,35%)" stroke-width="0.01011"></path>
<path d="M0.840 0.864 Q1.248 0.892 1.392 0.700" stroke="hsl(180.0,100%,35%)" stroke-width="0.00303"></path>
<path d="M0.840 0.864 Q1.614 0.886 1.827 0.513" stroke="hsl(180.0,100%,35%)" stroke-width="0.00202"></path>
<path d="M0.514 0.550 Q0.455 0.639 0.614 0.687" stroke="hsl(180.0,100%,35%)" stroke-width="0.00202"></path>
<path d="M0.514 0.550 Q0.892 0.933 1.722 0.833" stroke="hsl(180.0,100%,35%)" stroke-width="0.00606"></path>
<path d="M0.514 0.550 Q0.833 0.801 1.392 0.700" stroke="hsl(180.0,100%,35%)" stroke-width="0.00404"></path>
<path d="M0.514 0.550 Q1.131 0.474 1.116 0.156" stroke="hsl(180.0,100%,35%)" stroke-width="0.00101"></path>
<path d="M0.152 0.837 Q0.307 0.785 0.241 0.698" stroke="hsl(180.0,100%,35%)" stroke-width="0.01314"></path>
<path d="M0.152 0.837 Q0.940 1.149 1.722 0.833" stroke="hsl(180.0,100%,35%)" stroke-width="0.01011"></path>
<path d="M0.152 0.837 Q0.794 1.004 1.261 0.727" stroke="hsl(180.0,100%,35%)" stroke-width="0.00505"></path>
<path d="M1.261 0.727 Q1.407 0.872 1.722 0.833" stroke="hsl(180.0,100%,35%)" stroke-width="0.02627"></path>
<path d="M1.261 0.727 Q1.645 0.412 1.116 0.156" stroke="hsl(180.0,100%,35%)" stroke-width="0.00404"></path>
<path d="M1.261 0.727 Q0.619 0.560 0.152 0.837" stroke="hsl(180.0,100%,35%)" stroke-width="0.00101"></path>
<path d="M1.261 0.727 Q0.774 0.508 0.241 0.698" stroke="hsl(180.0,100%,35%)" stroke-width="0.00101"></path>
<path d="M0.100 0.223 Q0.661 0.393 1.116 0.156" stroke="hsl(0.0,100%,35%)" stroke-width="0.00303"></path>
<path d="M0.100 0.223 Q0.292 0.242 0.372 0.152" stroke="hsl(0.0,100%,35%)" stroke-width="0.00101"></path>
<path d="M0.100 0.223 Q0.423 0.852 1.722 0.833" stroke="hsl(0.0,100%,35%)" stroke-width="0.00202"></path>
<path d="M0.372 0.152 Q0.180 0.133 0.100 0.223" stroke="hsl(0.0,100%,35%)" stroke-width="0.00505"></path>
<path d="M0.372 0.152 Q0.503 0.763 1.722 0.833" stroke="hsl(0.0,100%,35%)" stroke-width="0.00303"></path>
<path d="M0.372 0.152 Q0.741 0.303 1.116 0.156" stroke="hsl(0.0,100%,35%)" stroke-width="0.00303"></path>
<path d="M1.359 0.115 Q1.205 0.087 1.116 0.156" stroke="hsl(0.0,100%,35%)" stroke-width="0.02122"></path>
<path d="M1.359 0.115 Q0.966 0.547 1.722 0.833" stroke="hsl(0.0,100%,35%)" stroke-width="0.00404"></path>
<path d="M1.359 0.115 Q0.821 0.401 1.261 0.727" stroke="hsl(0.0,100%,35%)" stroke-width="0.00404"></path>
<path d="M1.359 0.115 Q0.334 0.183 0.241 0.698" stroke="hsl(0.0,100%,35%)" stroke-width="0.00303"></path>
<path d="M1.173 0.270 Q0.852 0.516 1.261 0.727" stroke="hsl(0.0,100%,35%)" stroke-width="0.00101"></path>
<path d="M1.173 0.270 Q1.235 0.202 1.116 0.156" stroke="hsl(0.0,100%,35%)" stroke-width="0.00101"></path>
<path d="M1.173 0.270 Q0.364 0.298 0.241 0.698" stroke="hsl(0.0,100%,35%)" stroke-width="0.00101"></path>
<path d="M0.780 0.649 Q0.639 0.769 0.840 0.864" stroke="hsl(180.0,100%,35%)" stroke-width="0.00202"></path>
<path d="M0.780 0.649 Q0.667 0.635 0.614 0.687" stroke="hsl(180.0,100%,35%)" stroke-width="0.00101"></path>
<path d="M0.780 0.649 Q1.104 0.929 1.722 0.833" stroke="hsl(180.0,100%,35%)" stroke-width="0.00202"></path>
<path d="M0.780 0.649 Q1.343 0.470 1.116 0.156" stroke="hsl(180.0,100%,35%)" stroke-width="0.00101"></path>
<path d="M0.780 0.649 Q0.921 0.895 1.431 0.881" stroke="hsl(180.0,100%,35%)" stroke-width="0.00101"></path>
<path d="M1.232 0.579 Q0.837 0.510 0.614 0.687" stroke="hsl(180.0,100%,35%)" stroke-width="0.00202"></path>
<path d="M1.232 0.579 Q1.274 0.804 1.722 0.833" stroke="hsl(180.0,100%,35%)" stroke-width="0.03537"></path>
<path d="M1.232 0.579 Q1.215 0.672 1.392 0.700" stroke="hsl(180.0,100%,35%)" stroke-width="0.01819"></path>
<path d="M1.232 0.579 Q0.808 0.644 0.840 0.864" stroke="hsl(180.0,100%,35%)" stroke-width="0.00202"></path>
<path d="M1.232 0.579 Q1.513 0.345 1.116 0.156" stroke="hsl(180.0,100%,35%)" stroke-width="0.00101"></path>
<path d="M1.232 0.579 Q1.329 0.667 1.521 0.639" stroke="hsl(180.0,100%,35%)" stroke-width="0.00101"></path>
<path d="M1.887 0.665 Q1.670 0.716 1.722 0.833" stroke="hsl(180.0,100%,35%)" stroke-width="0.00303"></path>
<path d="M1.887 0.665 Q1.204 0.556 0.840 0.864" stroke="hsl(180.0,100%,35%)" stroke-width="0.00101"></path>
<path d="M1.887 0.665 Q1.612 0.584 1.392 0.700" stroke="hsl(180.0,100%,35%)" stroke-width="0.00101"></path>
<path d="M1.887 0.665 Q1.909 0.257 1.116 0.156" stroke="hsl(180.0,100%,35%)" stroke-width="0.00101"></path>
<path d="M1.952 0.686 Q1.282 0.419 0.614 0.687" stroke="hsl(180.0,100%,35%)" stroke-width="0.00101"></path>
<path d="M1.952 0.686 Q1.719 0.713 1.722 0.833" stroke="hsl(180.0,100%,35%)" stroke-width="0.00505"></path>
<path d="M1.952 0.686 Q1.661 0.581 1.392 0.700" stroke="hsl(180.0,100%,35%)" stroke-width="0.00303"></path>
<path d="M1.952 0.686 Q1.958 0.254 1.116 0.156" stroke="hsl(180.0,100%,35%)" stroke-width="0.00101"></path>
<path d="M1.438 0.255 Q0.946 0.377 1.076 0.644" stroke="hsl(180.0,100%,35%)" stroke-width="0.00101"></path>
<path d="M1.438 0.255 Q1.118 0.601 1.722 0.833" stroke="hsl(180.0,100%,35%)" stroke-width="0.00202"></path>
<path d="M1.438 0.255 Q0.934 0.566 1.431 0.881" stroke="hsl(180.0,100%,35%)" stroke-width="0.00101"></path>
<path d="M1.721 0.645 Q1.425 0.594 1.261 0.727" stroke="hsl(180.0,100%,35%)" stroke-width="0.00101"></path>
<path d="M1.721 0.645 Q1.571 0.739 1.722 0.833" stroke="hsl(180.0,100%,35%)" stroke-width="0.00505"></path>
<path d="M1.721 0.645 Q1.512 0.606 1.392 0.700" stroke="hsl(180.0,100%,35%)" stroke-width="0.00202"></path>
<path d="M1.721 0.645 Q1.809 0.280 1.116 0.156" stroke="hsl(180.0,100%,35%)" stroke-width="0.00101"></path>
<path d="M1.721 0.645 Q1.105 0.578 0.840 0.864" stroke="hsl(180.0,100%,35%)" stroke-width="0.00101"></path>
<path d="M1.021 0.933 Q1.452 1.023 1.722 0.833" stroke="hsl(180.0,100%,35%)" stroke-width="0.00202"></path>
<path d="M1.021 0.933 Q1.268 0.989 1.431 0.881" stroke="hsl(180.0,100%,35%)" stroke-width="0.00101"></path>
<path d="M1.021 0.933 Q0.986 0.862 0.840 0.864" stroke="hsl(180.0,100%,35%)" stroke-width="0.00101"></path>
<path d="M1.472 0.648 Q1.688 0.331 1.116 0.156" stroke="hsl(180.0,100%,35%)" stroke-width="0.00202"></path>
<path d="M1.472 0.648 Q1.449 0.791 1.722 0.833" stroke="hsl(180.0,100%,35%)" stroke-width="0.00404"></path>
<path d="M1.472 0.648 Q1.012 0.496 0.614 0.687" stroke="hsl(180.0,100%,35%)" stroke-width="0.00101"></path>
<path d="M1.472 0.648 Q1.204 0.821 1.483 0.990" stroke="hsl(180.0,100%,35%)" stroke-width="0.00101"></path>
<path d="M1.472 0.648 Q1.504 0.653 1.521 0.639" stroke="hsl(180.0,100%,35%)" stroke-width="0.00101"></path>
<path d="M1.472 0.648 Q1.391 0.658 1.392 0.700" stroke="hsl(180.0,100%,35%)" stroke-width="0.00101"></path>
<path d="M1.340 0.946 Q1.621 0.966 1.722 0.833" stroke="hsl(180.0,100%,35%)" stroke-width="0.00303"></path>
<path d="M1.340 0.946 Q1.438 0.931 1.431 0.881" stroke="hsl(180.0,100%,35%)" stroke-width="0.00101"></path>
<path d="M1.340 0.946 Q1.860 0.506 1.116 0.156" stroke="hsl(180.0,100%,35%)" stroke-width="0.00101"></path>
<path d="M1.340 0.946 Q1.184 0.671 0.614 0.687" stroke="hsl(180.0,100%,35%)" stroke-width="0.00101"></path>
<path d="M1.063 0.824 Q1.202 0.926 1.431 0.881" stroke="hsl(180.0,100%,35%)" stroke-width="0.00303"></path>
<path d="M1.063 0.824 Q1.440 0.823 1.521 0.639" stroke="hsl(180.0,100%,35%)" stroke-width="0.00101"></path>
<path d="M1.063 0.824 Q1.385 0.960 1.722 0.833" stroke="hsl(180.0,100%,35%)" stroke-width="0.00303"></path>
<path d="M1.248 0.904 Q1.780 0.504 1.116 0.156" stroke="hsl(180.0,100%,35%)" stroke-width="0.00202"></path>
<path d="M1.248 0.904 Q1.542 0.963 1.722 0.833" stroke="hsl(180.0,100%,35%)" stroke-width="0.00303"></path>
<path d="M1.248 0.904 Q1.483 0.831 1.392 0.700" stroke="hsl(180.0,100%,35%)" stroke-width="0.00101"></path>
<path d="M1.669 0.748 Q1.683 0.664 1.521 0.639" stroke="hsl(180.0,100%,35%)" stroke-width="0.00101"></path>
<path d="M1.669 0.748 Q1.628 0.801 1.722 0.833" stroke="hsl(180.0,100%,35%)" stroke-width="0.00909"></path>
<path d="M1.669 0.748 Q1.867 0.342 1.116 0.156" stroke="hsl(180.0,100%,35%)" stroke-width="0.00606"></path>
<path d="M1.669 0.748 Q1.445 0.767 1.431 0.881" stroke="hsl(180.0,100%,35%)" stroke-width="0.00101"></path>
<path d="M1.669 0.748 Q1.383 0.832 1.483 0.990" stroke="hsl(180.0,100%,35%)" stroke-width="0.00101"></path>
<path d="M1.669 0.748 Q1.191 0.507 0.614 0.687" stroke="hsl(180.0,100%,35%)" stroke-width="0.00202"></path>
</g>
<text x="1.076" y="0.626" font-size="0.035979" fill="hsl(0.0,100%,20%)">a.annestrand</text>
<text x="1.722" y="0.782" font-size="0.102398" fill="hsl(180.0,100%,20%)">syoussefi</text>
<text x="1.116" y="0.128" font-size="0.056028" fill="hsl(0.0,100%,20%)">geofflang</text>
<text x="1.392" y="0.669" font-size="0.061270" fill="hsl(180.0,100%,20%)">cclao</text>
<text x="1.431" y="0.862" font-size="0.037735" fill="hsl(180.0,100%,20%)">ynovikov</text>
<text x="1.787" y="0.599" font-size="0.022033" fill="hsl(180.0,100%,20%)">g.tammana</text>
<text x="0.954" y="0.523" font-size="0.025441" fill="hsl(0.0,100%,20%)">a.dean1</text>
<text x="1.483" y="0.971" font-size="0.037735" fill="hsl(180.0,100%,20%)">cnorthrop</text>
<text x="1.521" y="0.616" font-size="0.045865" fill="hsl(180.0,100%,20%)">romanl</text>
<text x="0.614" y="0.664" font-size="0.045510" fill="hsl(180.0,100%,20%)">abdolrashidi</text>
<text x="1.827" y="0.497" font-size="0.031159" fill="hsl(180.0,100%,20%)">m.maiya</text>
<text x="0.840" y="0.844" font-size="0.039413" fill="hsl(180.0,100%,20%)">yuxinhu</text>
<text x="0.514" y="0.540" font-size="0.020511" fill="hsl(180.0,100%,20%)">aurora.zhang</text>
<text x="0.152" y="0.821" font-size="0.030635" fill="hsl(180.0,100%,20%)">chris</text>
<text x="0.241" y="0.686" font-size="0.024136" fill="hsl(180.0,100%,20%)">kbr</text>
<text x="1.261" y="0.708" font-size="0.037735" fill="hsl(180.0,100%,20%)">lexa.knyazev</text>
<text x="1.758" y="0.951" font-size="0.011378" fill="hsl(180.0,100%,20%)">mark</text>
<text x="0.100" y="0.212" font-size="0.022033" fill="hsl(0.0,100%,20%)">liza</text>
<text x="0.372" y="0.142" font-size="0.021286" fill="hsl(0.0,100%,20%)">mpdenton</text>
<text x="1.359" y="0.099" font-size="0.032680" fill="hsl(0.0,100%,20%)">kkinnunen</text>
<text x="1.173" y="0.264" font-size="0.011378" fill="hsl(0.0,100%,20%)">lehoangquyen</text>
<text x="0.780" y="0.642" font-size="0.015051" fill="hsl(180.0,100%,20%)">hans</text>
<text x="1.232" y="0.558" font-size="0.043697" fill="hsl(180.0,100%,20%)">i.nazarov</text>
<text x="1.704" y="0.421" font-size="0.005689" fill="hsl(180.0,100%,20%)">ianelliott</text>
<text x="1.666" y="0.289" font-size="0.005689" fill="hsl(180.0,100%,20%)">hibrian</text>
<text x="1.887" y="0.658" font-size="0.013935" fill="hsl(180.0,100%,20%)">mavis.deng</text>
<text x="1.952" y="0.677" font-size="0.017990" fill="hsl(180.0,100%,20%)">neil.zhang</text>
<text x="1.438" y="0.249" font-size="0.011378" fill="hsl(180.0,100%,20%)">r.khurram</text>
<text x="1.721" y="0.636" font-size="0.017990" fill="hsl(180.0,100%,20%)">robic.sun</text>
<text x="1.021" y="0.927" font-size="0.011378" fill="hsl(180.0,100%,20%)">rop</text>
<text x="1.472" y="0.639" font-size="0.017990" fill="hsl(180.0,100%,20%)">shufen.ma</text>
<text x="1.340" y="0.939" font-size="0.013935" fill="hsl(180.0,100%,20%)">steven</text>
<text x="1.948" y="0.631" font-size="0.005689" fill="hsl(180.0,100%,20%)">vasilyt</text>
<text x="1.691" y="0.646" font-size="0.005689" fill="hsl(180.0,100%,20%)">natsu</text>
<text x="1.799" y="0.859" font-size="0.005689" fill="hsl(180.0,100%,20%)">solti</text>
<text x="1.063" y="0.816" font-size="0.015051" fill="hsl(180.0,100%,20%)">tikuta</text>
<text x="1.248" y="0.897" font-size="0.013935" fill="hsl(180.0,100%,20%)">xin.yuan</text>
<text x="1.254" y="0.988" font-size="0.005689" fill="hsl(180.0,100%,20%)">bsheedy</text>
<text x="1.669" y="0.736" font-size="0.025441" fill="hsl(180.0,100%,20%)">yuxiang.qian</text>
</svg>
