<svg width="4000" height="2000" viewBox="-0.025 -0.025 2.05 1.05" xmlns="http://www.w3.org/2000/svg">
  <style>
    path {
      fill: none;
      stroke-linecap: round;
      stroke-opacity: 0.4;
    }

    text {
      text-anchor: middle;
      alignment-baseline: hanging;
    }
  </style>
  <g opacity="0.4">
<path d="M1.712 0.641 Q1.557 0.561 1.365 0.618" stroke="hsl(0.0,100%,35%)" stroke-width="0.01342"></path>
<path d="M1.712 0.641 Q1.559 0.370 0.995 0.384" stroke="hsl(0.0,100%,35%)" stroke-width="0.01519"></path>
<path d="M1.712 0.641 Q1.001 0.390 0.355 0.682" stroke="hsl(0.0,100%,35%)" stroke-width="0.00106"></path>
<path d="M1.712 0.641 Q1.777 0.401 1.324 0.317" stroke="hsl(0.0,100%,35%)" stroke-width="0.00071"></path>
<path d="M1.712 0.641 Q1.730 0.166 0.806 0.052" stroke="hsl(0.0,100%,35%)" stroke-width="0.00071"></path>
<path d="M1.712 0.641 Q1.575 0.394 1.062 0.406" stroke="hsl(0.0,100%,35%)" stroke-width="0.00071"></path>
<path d="M1.365 0.618 Q1.516 0.594 1.502 0.515" stroke="hsl(0.0,100%,35%)" stroke-width="0.00071"></path>
<path d="M1.365 0.618 Q1.169 0.815 1.509 0.954" stroke="hsl(0.0,100%,35%)" stroke-width="0.00777"></path>
<path d="M1.365 0.618 Q1.368 0.427 0.995 0.384" stroke="hsl(0.0,100%,35%)" stroke-width="0.01024"></path>
<path d="M1.365 0.618 Q1.538 0.223 0.806 0.052" stroke="hsl(0.0,100%,35%)" stroke-width="0.00071"></path>
<path d="M1.365 0.618 Q1.209 0.408 0.764 0.438" stroke="hsl(0.0,100%,35%)" stroke-width="0.00035"></path>
<path d="M1.365 0.618 Q1.547 0.624 1.597 0.536" stroke="hsl(0.0,100%,35%)" stroke-width="0.00071"></path>
<path d="M1.365 0.618 Q1.198 0.731 1.382 0.838" stroke="hsl(0.0,100%,35%)" stroke-width="0.00671"></path>
<path d="M1.365 0.618 Q1.390 0.554 1.271 0.529" stroke="hsl(0.0,100%,35%)" stroke-width="0.00035"></path>
<path d="M1.365 0.618 Q1.397 0.672 1.508 0.668" stroke="hsl(0.0,100%,35%)" stroke-width="0.00283"></path>
<path d="M1.365 0.618 Q0.809 0.448 0.355 0.682" stroke="hsl(0.0,100%,35%)" stroke-width="0.00035"></path>
<path d="M1.365 0.618 Q0.880 0.738 1.008 1.002" stroke="hsl(0.0,100%,35%)" stroke-width="0.00035"></path>
<path d="M1.365 0.618 Q1.558 0.546 1.458 0.436" stroke="hsl(0.0,100%,35%)" stroke-width="0.00071"></path>
<path d="M1.365 0.618 Q1.200 0.572 1.072 0.642" stroke="hsl(0.0,100%,35%)" stroke-width="0.00071"></path>
<path d="M1.365 0.618 Q0.973 0.692 1.031 0.900" stroke="hsl(0.0,100%,35%)" stroke-width="0.00035"></path>
<path d="M1.365 0.618 Q1.604 0.607 1.634 0.488" stroke="hsl(0.0,100%,35%)" stroke-width="0.00035"></path>
<path d="M1.365 0.618 Q1.301 0.666 1.379 0.708" stroke="hsl(0.0,100%,35%)" stroke-width="0.00035"></path>
<path d="M0.995 0.384 Q0.716 0.484 0.849 0.642" stroke="hsl(180.0,100%,35%)" stroke-width="0.01060"></path>
<path d="M0.995 0.384 Q1.214 0.416 1.324 0.317" stroke="hsl(180.0,100%,35%)" stroke-width="0.01342"></path>
<path d="M0.995 0.384 Q1.166 0.275 0.990 0.168" stroke="hsl(180.0,100%,35%)" stroke-width="0.00106"></path>
<path d="M0.995 0.384 Q1.166 0.180 0.806 0.052" stroke="hsl(180.0,100%,35%)" stroke-width="0.00459"></path>
<path d="M0.995 0.384 Q0.837 0.365 0.764 0.438" stroke="hsl(180.0,100%,35%)" stroke-width="0.01660"></path>
<path d="M0.995 0.384 Q0.993 0.575 1.365 0.618" stroke="hsl(180.0,100%,35%)" stroke-width="0.01060"></path>
<path d="M0.995 0.384 Q0.377 0.333 0.142 0.623" stroke="hsl(180.0,100%,35%)" stroke-width="0.00388"></path>
<path d="M0.995 0.384 Q0.933 0.400 0.950 0.434" stroke="hsl(180.0,100%,35%)" stroke-width="0.00035"></path>
<path d="M0.995 0.384 Q1.127 0.290 0.972 0.205" stroke="hsl(180.0,100%,35%)" stroke-width="0.00247"></path>
<path d="M0.995 0.384 Q0.508 0.695 1.008 1.002" stroke="hsl(180.0,100%,35%)" stroke-width="0.00035"></path>
<path d="M0.995 0.384 Q0.437 0.405 0.355 0.682" stroke="hsl(180.0,100%,35%)" stroke-width="0.01060"></path>
<path d="M0.995 0.384 Q1.109 0.496 1.353 0.465" stroke="hsl(180.0,100%,35%)" stroke-width="0.00141"></path>
<path d="M0.995 0.384 Q1.362 0.292 1.263 0.093" stroke="hsl(180.0,100%,35%)" stroke-width="0.00071"></path>
<path d="M0.995 0.384 Q0.929 0.623 1.379 0.708" stroke="hsl(180.0,100%,35%)" stroke-width="0.00035"></path>
<path d="M0.995 0.384 Q0.739 0.209 0.340 0.295" stroke="hsl(180.0,100%,35%)" stroke-width="0.00035"></path>
<path d="M0.995 0.384 Q0.279 0.405 0.162 0.759" stroke="hsl(180.0,100%,35%)" stroke-width="0.00035"></path>
<path d="M0.995 0.384 Q0.619 0.411 0.589 0.601" stroke="hsl(180.0,100%,35%)" stroke-width="0.00035"></path>
<path d="M0.995 0.384 Q1.025 0.629 1.508 0.668" stroke="hsl(180.0,100%,35%)" stroke-width="0.00035"></path>
<path d="M0.355 0.682 Q0.295 0.610 0.142 0.623" stroke="hsl(180.0,100%,35%)" stroke-width="0.00812"></path>
<path d="M0.355 0.682 Q0.913 0.661 0.995 0.384" stroke="hsl(180.0,100%,35%)" stroke-width="0.00494"></path>
<path d="M0.355 0.682 Q0.197 0.682 0.162 0.759" stroke="hsl(180.0,100%,35%)" stroke-width="0.01024"></path>
<path d="M0.355 0.682 Q0.911 0.852 1.365 0.618" stroke="hsl(180.0,100%,35%)" stroke-width="0.00212"></path>
<path d="M0.355 0.682 Q0.633 0.761 0.849 0.642" stroke="hsl(180.0,100%,35%)" stroke-width="0.00177"></path>
<path d="M0.355 0.682 Q0.754 0.642 0.764 0.438" stroke="hsl(180.0,100%,35%)" stroke-width="0.00141"></path>
<path d="M0.355 0.682 Q1.131 0.693 1.324 0.317" stroke="hsl(180.0,100%,35%)" stroke-width="0.00106"></path>
<path d="M0.355 0.682 Q0.656 0.485 0.340 0.295" stroke="hsl(180.0,100%,35%)" stroke-width="0.00071"></path>
<path d="M0.355 0.682 Q1.084 0.457 0.806 0.052" stroke="hsl(180.0,100%,35%)" stroke-width="0.00071"></path>
<path d="M0.355 0.682 Q0.537 0.688 0.589 0.601" stroke="hsl(180.0,100%,35%)" stroke-width="0.00035"></path>
<path d="M1.324 0.317 Q1.105 0.285 0.995 0.384" stroke="hsl(180.0,100%,35%)" stroke-width="0.03708"></path>
<path d="M1.324 0.317 Q0.947 0.266 0.764 0.438" stroke="hsl(180.0,100%,35%)" stroke-width="0.02331"></path>
<path d="M1.324 0.317 Q1.431 0.263 1.349 0.199" stroke="hsl(180.0,100%,35%)" stroke-width="0.00035"></path>
<path d="M1.324 0.317 Q1.339 0.260 1.233 0.241" stroke="hsl(180.0,100%,35%)" stroke-width="0.00035"></path>
<path d="M1.324 0.317 Q0.826 0.384 0.849 0.642" stroke="hsl(180.0,100%,35%)" stroke-width="0.01201"></path>
<path d="M1.324 0.317 Q0.487 0.234 0.142 0.623" stroke="hsl(180.0,100%,35%)" stroke-width="0.00106"></path>
<path d="M1.324 0.317 Q0.547 0.305 0.355 0.682" stroke="hsl(180.0,100%,35%)" stroke-width="0.00071"></path>
<path d="M1.324 0.317 Q1.237 0.190 0.972 0.205" stroke="hsl(180.0,100%,35%)" stroke-width="0.00035"></path>
<path d="M1.324 0.317 Q1.103 0.476 1.365 0.618" stroke="hsl(180.0,100%,35%)" stroke-width="0.00247"></path>
<path d="M1.324 0.317 Q1.276 0.081 0.806 0.052" stroke="hsl(180.0,100%,35%)" stroke-width="0.00035"></path>
<path d="M0.806 0.052 Q0.077 0.277 0.355 0.682" stroke="hsl(180.0,100%,35%)" stroke-width="0.00424"></path>
<path d="M0.806 0.052 Q0.633 0.447 1.365 0.618" stroke="hsl(180.0,100%,35%)" stroke-width="0.00247"></path>
<path d="M0.806 0.052 Q0.378 0.081 0.340 0.295" stroke="hsl(180.0,100%,35%)" stroke-width="0.00071"></path>
<path d="M0.806 0.052 Q0.476 0.237 0.764 0.438" stroke="hsl(180.0,100%,35%)" stroke-width="0.00106"></path>
<path d="M0.806 0.052 Q0.653 0.062 0.638 0.138" stroke="hsl(180.0,100%,35%)" stroke-width="0.00212"></path>
<path d="M0.806 0.052 Q0.635 0.256 0.995 0.384" stroke="hsl(180.0,100%,35%)" stroke-width="0.00494"></path>
<path d="M0.806 0.052 Q0.017 0.205 0.142 0.623" stroke="hsl(180.0,100%,35%)" stroke-width="0.00212"></path>
<path d="M0.806 0.052 Q0.853 0.288 1.324 0.317" stroke="hsl(180.0,100%,35%)" stroke-width="0.00035"></path>
<path d="M0.806 0.052 Q0.355 0.356 0.849 0.642" stroke="hsl(180.0,100%,35%)" stroke-width="0.00141"></path>
<path d="M1.062 0.406 Q1.046 0.382 0.995 0.384" stroke="hsl(180.0,100%,35%)" stroke-width="0.01801"></path>
<path d="M1.062 0.406 Q1.264 0.414 1.324 0.317" stroke="hsl(180.0,100%,35%)" stroke-width="0.00494"></path>
<path d="M1.062 0.406 Q1.044 0.573 1.365 0.618" stroke="hsl(180.0,100%,35%)" stroke-width="0.00812"></path>
<path d="M1.062 0.406 Q1.199 0.654 1.712 0.641" stroke="hsl(180.0,100%,35%)" stroke-width="0.00283"></path>
<path d="M1.062 0.406 Q1.217 0.178 0.806 0.052" stroke="hsl(180.0,100%,35%)" stroke-width="0.00106"></path>
<path d="M1.062 0.406 Q0.488 0.403 0.355 0.682" stroke="hsl(180.0,100%,35%)" stroke-width="0.00035"></path>
<path d="M0.999 0.228 Q0.870 0.497 1.365 0.618" stroke="hsl(0.0,100%,35%)" stroke-width="0.00212"></path>
<path d="M0.999 0.228 Q0.872 0.306 0.995 0.384" stroke="hsl(0.0,100%,35%)" stroke-width="0.00353"></path>
<path d="M0.999 0.228 Q0.254 0.254 0.142 0.623" stroke="hsl(0.0,100%,35%)" stroke-width="0.00141"></path>
<path d="M0.999 0.228 Q1.025 0.577 1.712 0.641" stroke="hsl(0.0,100%,35%)" stroke-width="0.00141"></path>
<path d="M0.999 0.228 Q0.314 0.326 0.355 0.682" stroke="hsl(0.0,100%,35%)" stroke-width="0.00071"></path>
<path d="M0.142 0.623 Q0.201 0.695 0.355 0.682" stroke="hsl(180.0,100%,35%)" stroke-width="0.01236"></path>
<path d="M0.142 0.623 Q0.601 0.655 0.764 0.438" stroke="hsl(180.0,100%,35%)" stroke-width="0.00353"></path>
<path d="M0.142 0.623 Q0.930 0.471 0.806 0.052" stroke="hsl(180.0,100%,35%)" stroke-width="0.00141"></path>
<path d="M0.142 0.623 Q0.760 0.675 0.995 0.384" stroke="hsl(180.0,100%,35%)" stroke-width="0.01413"></path>
<path d="M0.142 0.623 Q0.978 0.706 1.324 0.317" stroke="hsl(180.0,100%,35%)" stroke-width="0.00177"></path>
<path d="M0.142 0.623 Q0.758 0.866 1.365 0.618" stroke="hsl(180.0,100%,35%)" stroke-width="0.00071"></path>
<path d="M0.142 0.623 Q0.480 0.774 0.849 0.642" stroke="hsl(180.0,100%,35%)" stroke-width="0.00283"></path>
<path d="M0.142 0.623 Q0.043 0.695 0.162 0.759" stroke="hsl(180.0,100%,35%)" stroke-width="0.00035"></path>
<path d="M0.142 0.623 Q0.256 0.535 0.108 0.460" stroke="hsl(180.0,100%,35%)" stroke-width="0.00035"></path>
<path d="M0.142 0.623 Q0.465 0.606 0.502 0.445" stroke="hsl(180.0,100%,35%)" stroke-width="0.00035"></path>
<path d="M0.142 0.623 Q0.503 0.499 0.340 0.295" stroke="hsl(180.0,100%,35%)" stroke-width="0.00035"></path>
<path d="M0.849 0.642 Q0.570 0.563 0.355 0.682" stroke="hsl(180.0,100%,35%)" stroke-width="0.00247"></path>
<path d="M0.849 0.642 Q1.347 0.575 1.324 0.317" stroke="hsl(180.0,100%,35%)" stroke-width="0.00954"></path>
<path d="M0.849 0.642 Q1.128 0.543 0.995 0.384" stroke="hsl(180.0,100%,35%)" stroke-width="0.01660"></path>
<path d="M0.849 0.642 Q1.126 0.734 1.365 0.618" stroke="hsl(180.0,100%,35%)" stroke-width="0.00071"></path>
<path d="M0.849 0.642 Q0.970 0.523 0.764 0.438" stroke="hsl(180.0,100%,35%)" stroke-width="0.00459"></path>
<path d="M0.849 0.642 Q0.510 0.491 0.142 0.623" stroke="hsl(180.0,100%,35%)" stroke-width="0.00035"></path>
<path d="M0.849 0.642 Q1.299 0.339 0.806 0.052" stroke="hsl(180.0,100%,35%)" stroke-width="0.00035"></path>
<path d="M0.849 0.642 Q1.260 0.448 0.972 0.205" stroke="hsl(180.0,100%,35%)" stroke-width="0.00035"></path>
<path d="M0.849 0.642 Q1.299 0.434 0.990 0.168" stroke="hsl(180.0,100%,35%)" stroke-width="0.00035"></path>
<path d="M0.764 0.438 Q0.365 0.478 0.355 0.682" stroke="hsl(180.0,100%,35%)" stroke-width="0.00212"></path>
<path d="M0.764 0.438 Q0.643 0.557 0.849 0.642" stroke="hsl(180.0,100%,35%)" stroke-width="0.01201"></path>
<path d="M0.764 0.438 Q1.141 0.489 1.324 0.317" stroke="hsl(180.0,100%,35%)" stroke-width="0.00388"></path>
<path d="M0.764 0.438 Q0.923 0.458 0.995 0.384" stroke="hsl(180.0,100%,35%)" stroke-width="0.00989"></path>
<path d="M0.764 0.438 Q1.093 0.349 0.990 0.168" stroke="hsl(180.0,100%,35%)" stroke-width="0.00035"></path>
<path d="M0.764 0.438 Q0.305 0.406 0.142 0.623" stroke="hsl(180.0,100%,35%)" stroke-width="0.00106"></path>
<path d="M0.764 0.438 Q1.094 0.254 0.806 0.052" stroke="hsl(180.0,100%,35%)" stroke-width="0.00141"></path>
<path d="M0.764 0.438 Q0.699 0.434 0.677 0.465" stroke="hsl(180.0,100%,35%)" stroke-width="0.00035"></path>
<path d="M0.764 0.438 Q0.207 0.478 0.162 0.759" stroke="hsl(180.0,100%,35%)" stroke-width="0.00035"></path>
<path d="M0.764 0.438 Q0.666 0.282 0.340 0.295" stroke="hsl(180.0,100%,35%)" stroke-width="0.00035"></path>
<path d="M0.764 0.438 Q1.055 0.363 0.972 0.205" stroke="hsl(180.0,100%,35%)" stroke-width="0.00071"></path>
<path d="M0.764 0.438 Q1.037 0.570 1.353 0.465" stroke="hsl(180.0,100%,35%)" stroke-width="0.00035"></path>
<path d="M0.972 0.205 Q0.840 0.299 0.995 0.384" stroke="hsl(180.0,100%,35%)" stroke-width="0.01907"></path>
<path d="M0.972 0.205 Q1.058 0.331 1.324 0.317" stroke="hsl(180.0,100%,35%)" stroke-width="0.00812"></path>
<path d="M0.972 0.205 Q0.681 0.280 0.764 0.438" stroke="hsl(180.0,100%,35%)" stroke-width="0.00177"></path>
<path d="M0.972 0.205 Q1.113 0.157 1.050 0.078" stroke="hsl(180.0,100%,35%)" stroke-width="0.00035"></path>
<path d="M0.972 0.205 Q0.838 0.490 1.365 0.618" stroke="hsl(180.0,100%,35%)" stroke-width="0.00106"></path>
<path d="M0.972 0.205 Q0.545 0.231 0.502 0.445" stroke="hsl(180.0,100%,35%)" stroke-width="0.00035"></path>
<path d="M0.972 0.205 Q0.954 0.411 1.353 0.465" stroke="hsl(180.0,100%,35%)" stroke-width="0.00035"></path>
<path d="M0.990 0.168 Q1.039 0.309 1.324 0.317" stroke="hsl(180.0,100%,35%)" stroke-width="0.01377"></path>
<path d="M0.990 0.168 Q0.820 0.277 0.995 0.384" stroke="hsl(180.0,100%,35%)" stroke-width="0.02578"></path>
<path d="M0.990 0.168 Q0.540 0.377 0.849 0.642" stroke="hsl(180.0,100%,35%)" stroke-width="0.00141"></path>
<path d="M0.990 0.168 Q0.202 0.226 0.142 0.623" stroke="hsl(180.0,100%,35%)" stroke-width="0.00106"></path>
<path d="M0.990 0.168 Q0.661 0.258 0.764 0.438" stroke="hsl(180.0,100%,35%)" stroke-width="0.00177"></path>
<path d="M0.990 0.168 Q0.818 0.468 1.365 0.618" stroke="hsl(180.0,100%,35%)" stroke-width="0.00035"></path>
<path d="M0.990 0.168 Q0.262 0.298 0.355 0.682" stroke="hsl(180.0,100%,35%)" stroke-width="0.00035"></path>
<path d="M0.602 0.262 Q0.701 0.402 0.995 0.384" stroke="hsl(180.0,100%,35%)" stroke-width="0.00424"></path>
<path d="M0.602 0.262 Q0.421 0.502 0.849 0.642" stroke="hsl(180.0,100%,35%)" stroke-width="0.00106"></path>
<path d="M0.602 0.262 Q0.920 0.434 1.324 0.317" stroke="hsl(180.0,100%,35%)" stroke-width="0.00141"></path>
<path d="M0.602 0.262 Q0.699 0.593 1.365 0.618" stroke="hsl(180.0,100%,35%)" stroke-width="0.00035"></path>
<path d="M0.602 0.262 Q0.213 0.713 1.008 1.002" stroke="hsl(180.0,100%,35%)" stroke-width="0.00035"></path>
<path d="M0.602 0.262 Q0.542 0.383 0.764 0.438" stroke="hsl(180.0,100%,35%)" stroke-width="0.00106"></path>
<path d="M1.008 1.002 Q1.493 0.881 1.365 0.618" stroke="hsl(0.0,100%,35%)" stroke-width="0.00071"></path>
<path d="M1.008 1.002 Q1.609 0.802 1.353 0.465" stroke="hsl(0.0,100%,35%)" stroke-width="0.00035"></path>
<path d="M1.008 1.002 Q1.495 0.691 0.995 0.384" stroke="hsl(0.0,100%,35%)" stroke-width="0.00071"></path>
<path d="M1.031 0.900 Q1.424 0.826 1.365 0.618" stroke="hsl(0.0,100%,35%)" stroke-width="0.00035"></path>
<path d="M1.031 0.900 Q0.938 0.946 1.008 1.002" stroke="hsl(0.0,100%,35%)" stroke-width="0.00600"></path>
<path d="M1.031 0.900 Q1.426 0.635 0.995 0.384" stroke="hsl(0.0,100%,35%)" stroke-width="0.00459"></path>
<path d="M1.031 0.900 Q1.540 0.747 1.353 0.465" stroke="hsl(0.0,100%,35%)" stroke-width="0.00177"></path>
<path d="M1.353 0.465 Q1.237 0.544 1.365 0.618" stroke="hsl(0.0,100%,35%)" stroke-width="0.02366"></path>
<path d="M1.353 0.465 Q1.429 0.472 1.458 0.436" stroke="hsl(0.0,100%,35%)" stroke-width="0.00742"></path>
<path d="M1.353 0.465 Q1.239 0.353 0.995 0.384" stroke="hsl(0.0,100%,35%)" stroke-width="0.03496"></path>
<path d="M1.353 0.465 Q0.751 0.664 1.008 1.002" stroke="hsl(0.0,100%,35%)" stroke-width="0.00141"></path>
<path d="M1.353 0.465 Q0.681 0.374 0.355 0.682" stroke="hsl(0.0,100%,35%)" stroke-width="0.00141"></path>
<path d="M1.353 0.465 Q1.387 0.520 1.502 0.515" stroke="hsl(0.0,100%,35%)" stroke-width="0.00071"></path>
<path d="M1.353 0.465 Q0.959 0.453 0.849 0.642" stroke="hsl(0.0,100%,35%)" stroke-width="0.00106"></path>
<path d="M1.353 0.465 Q0.844 0.618 1.031 0.900" stroke="hsl(0.0,100%,35%)" stroke-width="0.00035"></path>
<path d="M1.353 0.465 Q1.080 0.334 0.764 0.438" stroke="hsl(0.0,100%,35%)" stroke-width="0.00071"></path>
<path d="M1.353 0.465 Q0.863 0.380 0.589 0.601" stroke="hsl(0.0,100%,35%)" stroke-width="0.00035"></path>
<path d="M0.162 0.759 Q0.320 0.759 0.355 0.682" stroke="hsl(180.0,100%,35%)" stroke-width="0.00989"></path>
<path d="M0.162 0.759 Q0.876 0.929 1.365 0.618" stroke="hsl(180.0,100%,35%)" stroke-width="0.00035"></path>
<path d="M0.162 0.759 Q0.878 0.738 0.995 0.384" stroke="hsl(180.0,100%,35%)" stroke-width="0.00106"></path>
<path d="M0.162 0.759 Q1.049 0.534 0.806 0.052" stroke="hsl(180.0,100%,35%)" stroke-width="0.00071"></path>
<path d="M0.162 0.759 Q0.598 0.838 0.849 0.642" stroke="hsl(180.0,100%,35%)" stroke-width="0.00035"></path>
<path d="M0.340 0.295 Q0.437 0.452 0.764 0.438" stroke="hsl(180.0,100%,35%)" stroke-width="0.00177"></path>
<path d="M0.340 0.295 Q0.596 0.471 0.995 0.384" stroke="hsl(180.0,100%,35%)" stroke-width="0.00141"></path>
<path d="M0.340 0.295 Q0.767 0.267 0.806 0.052" stroke="hsl(180.0,100%,35%)" stroke-width="0.00035"></path>
<path d="M0.340 0.295 Q0.594 0.662 1.365 0.618" stroke="hsl(180.0,100%,35%)" stroke-width="0.00035"></path>
<path d="M0.340 0.295 Q0.038 0.492 0.355 0.682" stroke="hsl(180.0,100%,35%)" stroke-width="0.00035"></path>
<path d="M0.589 0.601 Q0.407 0.594 0.355 0.682" stroke="hsl(180.0,100%,35%)" stroke-width="0.00388"></path>
<path d="M0.589 0.601 Q0.965 0.574 0.995 0.384" stroke="hsl(180.0,100%,35%)" stroke-width="0.00530"></path>
<path d="M0.589 0.601 Q0.685 0.673 0.849 0.642" stroke="hsl(180.0,100%,35%)" stroke-width="0.00742"></path>
<path d="M0.589 0.601 Q0.708 0.398 0.340 0.295" stroke="hsl(180.0,100%,35%)" stroke-width="0.00035"></path>
<path d="M0.589 0.601 Q0.806 0.555 0.764 0.438" stroke="hsl(180.0,100%,35%)" stroke-width="0.00353"></path>
<path d="M0.589 0.601 Q0.963 0.765 1.365 0.618" stroke="hsl(180.0,100%,35%)" stroke-width="0.00071"></path>
<path d="M0.589 0.601 Q1.097 0.479 0.972 0.205" stroke="hsl(180.0,100%,35%)" stroke-width="0.00035"></path>
<path d="M0.589 0.601 Q1.183 0.606 1.324 0.317" stroke="hsl(180.0,100%,35%)" stroke-width="0.00106"></path>
<path d="M1.261 0.948 Q1.579 0.613 0.995 0.384" stroke="hsl(0.0,100%,35%)" stroke-width="0.00035"></path>
<path d="M1.261 0.948 Q1.577 0.804 1.365 0.618" stroke="hsl(0.0,100%,35%)" stroke-width="0.00071"></path>
<path d="M1.261 0.948 Q1.092 0.924 1.008 1.002" stroke="hsl(0.0,100%,35%)" stroke-width="0.00071"></path>
<path d="M0.699 0.539 Q0.691 0.621 0.849 0.642" stroke="hsl(180.0,100%,35%)" stroke-width="0.00071"></path>
<path d="M0.699 0.539 Q0.812 0.502 0.764 0.438" stroke="hsl(180.0,100%,35%)" stroke-width="0.00106"></path>
<path d="M0.699 0.539 Q0.969 0.712 1.365 0.618" stroke="hsl(180.0,100%,35%)" stroke-width="0.00035"></path>
<path d="M0.699 0.539 Q0.971 0.521 0.995 0.384" stroke="hsl(180.0,100%,35%)" stroke-width="0.00035"></path>
<path d="M0.699 0.539 Q1.142 0.317 0.806 0.052" stroke="hsl(180.0,100%,35%)" stroke-width="0.00035"></path>
<path d="M1.502 0.515 Q1.351 0.540 1.365 0.618" stroke="hsl(0.0,100%,35%)" stroke-width="0.00177"></path>
<path d="M1.502 0.515 Q0.866 0.660 1.008 1.002" stroke="hsl(0.0,100%,35%)" stroke-width="0.00212"></path>
<path d="M1.502 0.515 Q1.353 0.349 0.995 0.384" stroke="hsl(0.0,100%,35%)" stroke-width="0.00035"></path>
<path d="M1.502 0.515 Q1.467 0.461 1.353 0.465" stroke="hsl(0.0,100%,35%)" stroke-width="0.00035"></path>
<path d="M1.509 0.954 Q1.706 0.757 1.365 0.618" stroke="hsl(0.0,100%,35%)" stroke-width="0.00212"></path>
<path d="M1.509 0.954 Q1.538 0.871 1.382 0.838" stroke="hsl(0.0,100%,35%)" stroke-width="0.00141"></path>
<path d="M1.509 0.954 Q1.708 0.566 0.995 0.384" stroke="hsl(0.0,100%,35%)" stroke-width="0.00106"></path>
<path d="M1.382 0.838 Q1.549 0.725 1.365 0.618" stroke="hsl(0.0,100%,35%)" stroke-width="0.00742"></path>
<path d="M1.382 0.838 Q1.551 0.534 0.995 0.384" stroke="hsl(0.0,100%,35%)" stroke-width="0.00494"></path>
<path d="M1.382 0.838 Q1.353 0.922 1.509 0.954" stroke="hsl(0.0,100%,35%)" stroke-width="0.00706"></path>
<path d="M1.382 0.838 Q0.933 0.483 0.142 0.623" stroke="hsl(0.0,100%,35%)" stroke-width="0.00035"></path>
<path d="M1.458 0.436 Q1.266 0.508 1.365 0.618" stroke="hsl(0.0,100%,35%)" stroke-width="0.02225"></path>
<path d="M1.458 0.436 Q1.382 0.429 1.353 0.465" stroke="hsl(0.0,100%,35%)" stroke-width="0.00459"></path>
<path d="M1.458 0.436 Q0.780 0.628 1.008 1.002" stroke="hsl(0.0,100%,35%)" stroke-width="0.00177"></path>
<path d="M1.458 0.436 Q1.416 0.484 1.502 0.515" stroke="hsl(0.0,100%,35%)" stroke-width="0.00071"></path>
<path d="M1.458 0.436 Q1.268 0.317 0.995 0.384" stroke="hsl(0.0,100%,35%)" stroke-width="0.00918"></path>
<path d="M1.458 0.436 Q1.439 0.113 0.806 0.052" stroke="hsl(0.0,100%,35%)" stroke-width="0.00035"></path>
<path d="M1.914 0.426 Q1.232 0.046 0.340 0.295" stroke="hsl(180.0,100%,35%)" stroke-width="0.00035"></path>
<path d="M1.914 0.426 Q1.329 0.202 0.764 0.438" stroke="hsl(180.0,100%,35%)" stroke-width="0.00035"></path>
<path d="M1.914 0.426 Q1.486 0.413 1.365 0.618" stroke="hsl(180.0,100%,35%)" stroke-width="0.00035"></path>
<path d="M1.914 0.426 Q1.488 0.222 0.995 0.384" stroke="hsl(180.0,100%,35%)" stroke-width="0.00071"></path>
<path d="M1.914 0.426 Q2.066 0.321 1.893 0.224" stroke="hsl(180.0,100%,35%)" stroke-width="0.00035"></path>
<path d="M0.653 0.282 Q0.961 0.433 1.324 0.317" stroke="hsl(180.0,100%,35%)" stroke-width="0.00035"></path>
<path d="M0.653 0.282 Q0.584 0.382 0.764 0.438" stroke="hsl(180.0,100%,35%)" stroke-width="0.00106"></path>
<path d="M0.653 0.282 Q0.742 0.402 0.995 0.384" stroke="hsl(180.0,100%,35%)" stroke-width="0.00035"></path>
<path d="M0.653 0.282 Q0.462 0.501 0.849 0.642" stroke="hsl(180.0,100%,35%)" stroke-width="0.00071"></path>
<path d="M1.212 0.432 Q1.142 0.365 0.995 0.384" stroke="hsl(180.0,100%,35%)" stroke-width="0.00106"></path>
<path d="M1.212 0.432 Q0.983 0.346 0.764 0.438" stroke="hsl(180.0,100%,35%)" stroke-width="0.00071"></path>
<path d="M1.212 0.432 Q0.862 0.465 0.849 0.642" stroke="hsl(180.0,100%,35%)" stroke-width="0.00035"></path>
<path d="M1.212 0.432 Q1.140 0.556 1.365 0.618" stroke="hsl(180.0,100%,35%)" stroke-width="0.00035"></path>
<path d="M1.212 0.432 Q1.313 0.161 0.806 0.052" stroke="hsl(180.0,100%,35%)" stroke-width="0.00035"></path>
<path d="M0.502 0.445 Q0.239 0.534 0.355 0.682" stroke="hsl(180.0,100%,35%)" stroke-width="0.00035"></path>
<path d="M0.502 0.445 Q0.639 0.494 0.764 0.438" stroke="hsl(180.0,100%,35%)" stroke-width="0.00071"></path>
<path d="M0.502 0.445 Q0.541 0.338 0.340 0.295" stroke="hsl(180.0,100%,35%)" stroke-width="0.00035"></path>
<path d="M1.381 0.722 Q1.456 0.667 1.365 0.618" stroke="hsl(0.0,100%,35%)" stroke-width="0.00035"></path>
<path d="M1.381 0.722 Q1.288 0.780 1.382 0.838" stroke="hsl(0.0,100%,35%)" stroke-width="0.00035"></path>
<path d="M1.381 0.722 Q1.458 0.476 0.995 0.384" stroke="hsl(0.0,100%,35%)" stroke-width="0.00035"></path>
<path d="M1.381 0.722 Q1.629 0.272 0.806 0.052" stroke="hsl(0.0,100%,35%)" stroke-width="0.00035"></path>
<path d="M1.927 0.550 Q1.591 0.472 1.365 0.618" stroke="hsl(0.0,100%,35%)" stroke-width="0.00035"></path>
<path d="M1.927 0.550 Q1.594 0.281 0.995 0.384" stroke="hsl(0.0,100%,35%)" stroke-width="0.00106"></path>
<path d="M1.927 0.550 Q1.746 0.553 1.712 0.641" stroke="hsl(0.0,100%,35%)" stroke-width="0.00071"></path>
<path d="M0.888 0.472 Q0.732 0.549 0.849 0.642" stroke="hsl(180.0,100%,35%)" stroke-width="0.00035"></path>
<path d="M0.888 0.472 Q1.012 0.450 0.995 0.384" stroke="hsl(180.0,100%,35%)" stroke-width="0.00177"></path>
<path d="M0.888 0.472 Q1.231 0.482 1.324 0.317" stroke="hsl(180.0,100%,35%)" stroke-width="0.00035"></path>
<path d="M0.888 0.472 Q0.853 0.430 0.764 0.438" stroke="hsl(180.0,100%,35%)" stroke-width="0.00071"></path>
<path d="M0.468 0.696 Q0.981 0.646 0.995 0.384" stroke="hsl(180.0,100%,35%)" stroke-width="0.00035"></path>
<path d="M0.468 0.696 Q0.823 0.627 0.764 0.438" stroke="hsl(180.0,100%,35%)" stroke-width="0.00071"></path>
<path d="M0.468 0.696 Q0.702 0.746 0.849 0.642" stroke="hsl(180.0,100%,35%)" stroke-width="0.00035"></path>
<path d="M0.468 0.696 Q0.423 0.666 0.355 0.682" stroke="hsl(180.0,100%,35%)" stroke-width="0.00071"></path>
<path d="M0.798 0.249 Q1.006 0.388 1.324 0.317" stroke="hsl(180.0,100%,35%)" stroke-width="0.00035"></path>
<path d="M0.798 0.249 Q0.788 0.356 0.995 0.384" stroke="hsl(180.0,100%,35%)" stroke-width="0.00141"></path>
<path d="M0.798 0.249 Q0.230 0.377 0.355 0.682" stroke="hsl(180.0,100%,35%)" stroke-width="0.00106"></path>
<path d="M0.368 0.100 Q-0.164 0.316 0.142 0.623" stroke="hsl(180.0,100%,35%)" stroke-width="0.00071"></path>
<path d="M0.368 0.100 Q0.625 0.164 0.806 0.052" stroke="hsl(180.0,100%,35%)" stroke-width="0.00247"></path>
<path d="M0.368 0.100 Q-0.104 0.388 0.355 0.682" stroke="hsl(180.0,100%,35%)" stroke-width="0.00071"></path>
<path d="M0.368 0.100 Q0.454 0.368 0.995 0.384" stroke="hsl(180.0,100%,35%)" stroke-width="0.00035"></path>
<path d="M0.368 0.100 Q0.672 0.399 1.324 0.317" stroke="hsl(180.0,100%,35%)" stroke-width="0.00035"></path>
<path d="M0.368 0.100 Q0.452 0.559 1.365 0.618" stroke="hsl(180.0,100%,35%)" stroke-width="0.00071"></path>
<path d="M0.218 2.397 Q1.599 1.495 0.142 0.623" stroke="hsl(180.0,100%,35%)" stroke-width="0.00035"></path>
<path d="M0.218 2.397 Q2.435 1.578 1.324 0.317" stroke="hsl(180.0,100%,35%)" stroke-width="0.00035"></path>
<path d="M0.218 2.397 Q2.217 1.546 0.995 0.384" stroke="hsl(180.0,100%,35%)" stroke-width="0.00035"></path>
<path d="M1.727 0.373 Q1.382 0.477 1.508 0.668" stroke="hsl(0.0,100%,35%)" stroke-width="0.00035"></path>
<path d="M1.727 0.373 Q1.350 0.423 1.365 0.618" stroke="hsl(0.0,100%,35%)" stroke-width="0.00035"></path>
<path d="M1.727 0.373 Q1.543 0.351 1.458 0.436" stroke="hsl(0.0,100%,35%)" stroke-width="0.00035"></path>
<path d="M1.727 0.373 Q1.352 0.233 0.995 0.384" stroke="hsl(0.0,100%,35%)" stroke-width="0.00035"></path>
<path d="M1.101 0.514 Q0.872 0.527 0.849 0.642" stroke="hsl(180.0,100%,35%)" stroke-width="0.00071"></path>
<path d="M1.101 0.514 Q1.152 0.428 0.995 0.384" stroke="hsl(180.0,100%,35%)" stroke-width="0.00388"></path>
<path d="M1.101 0.514 Q0.993 0.408 0.764 0.438" stroke="hsl(180.0,100%,35%)" stroke-width="0.00035"></path>
<path d="M1.101 0.514 Q1.370 0.460 1.324 0.317" stroke="hsl(180.0,100%,35%)" stroke-width="0.00071"></path>
<path d="M1.101 0.514 Q1.150 0.619 1.365 0.618" stroke="hsl(180.0,100%,35%)" stroke-width="0.00035"></path>
<path d="M1.101 0.514 Q0.594 0.448 0.355 0.682" stroke="hsl(180.0,100%,35%)" stroke-width="0.00035"></path>
<path d="M1.101 0.514 Q1.266 0.540 1.353 0.465" stroke="hsl(180.0,100%,35%)" stroke-width="0.00106"></path>
<path d="M0.969 0.468 Q1.049 0.432 0.995 0.384" stroke="hsl(180.0,100%,35%)" stroke-width="0.00494"></path>
<path d="M0.969 0.468 Q1.268 0.463 1.324 0.317" stroke="hsl(180.0,100%,35%)" stroke-width="0.00177"></path>
<path d="M0.969 0.468 Q1.220 0.228 0.806 0.052" stroke="hsl(180.0,100%,35%)" stroke-width="0.00035"></path>
<path d="M0.969 0.468 Q0.891 0.412 0.764 0.438" stroke="hsl(180.0,100%,35%)" stroke-width="0.00035"></path>
<path d="M0.969 0.468 Q0.770 0.531 0.849 0.642" stroke="hsl(180.0,100%,35%)" stroke-width="0.00035"></path>
<path d="M0.969 0.468 Q1.047 0.622 1.365 0.618" stroke="hsl(180.0,100%,35%)" stroke-width="0.00035"></path>
<path d="M0.969 0.468 Q1.220 0.323 0.990 0.168" stroke="hsl(180.0,100%,35%)" stroke-width="0.00035"></path>
<path d="M0.969 0.468 Q1.163 0.543 1.353 0.465" stroke="hsl(180.0,100%,35%)" stroke-width="0.00035"></path>
<path d="M0.969 0.468 Q0.491 0.452 0.355 0.682" stroke="hsl(180.0,100%,35%)" stroke-width="0.00035"></path>
<path d="M0.767 0.289 Q0.805 0.382 0.995 0.384" stroke="hsl(180.0,100%,35%)" stroke-width="0.00177"></path>
<path d="M0.767 0.289 Q0.919 0.494 1.353 0.465" stroke="hsl(180.0,100%,35%)" stroke-width="0.00035"></path>
<path d="M0.767 0.289 Q1.023 0.414 1.324 0.317" stroke="hsl(180.0,100%,35%)" stroke-width="0.00071"></path>
<path d="M0.767 0.289 Q0.803 0.573 1.365 0.618" stroke="hsl(180.0,100%,35%)" stroke-width="0.00035"></path>
<path d="M1.137 0.568 Q1.211 0.639 1.365 0.618" stroke="hsl(0.0,100%,35%)" stroke-width="0.00530"></path>
<path d="M1.137 0.568 Q1.213 0.448 0.995 0.384" stroke="hsl(0.0,100%,35%)" stroke-width="0.00636"></path>
<path d="M1.137 0.568 Q1.384 0.244 0.806 0.052" stroke="hsl(0.0,100%,35%)" stroke-width="0.00071"></path>
<path d="M1.137 0.568 Q1.366 0.720 1.712 0.641" stroke="hsl(0.0,100%,35%)" stroke-width="0.00035"></path>
<path d="M0.405 0.534 Q0.262 0.598 0.355 0.682" stroke="hsl(180.0,100%,35%)" stroke-width="0.00071"></path>
<path d="M0.405 0.534 Q0.202 0.526 0.142 0.623" stroke="hsl(180.0,100%,35%)" stroke-width="0.00035"></path>
<path d="M0.405 0.534 Q1.039 0.609 1.324 0.317" stroke="hsl(180.0,100%,35%)" stroke-width="0.00035"></path>
<path d="M0.405 0.534 Q0.444 0.604 0.589 0.601" stroke="hsl(180.0,100%,35%)" stroke-width="0.00035"></path>
<path d="M1.066 0.537 Q1.153 0.447 0.995 0.384" stroke="hsl(180.0,100%,35%)" stroke-width="0.00318"></path>
<path d="M1.066 0.537 Q1.267 0.559 1.353 0.465" stroke="hsl(180.0,100%,35%)" stroke-width="0.00035"></path>
<path d="M1.066 0.537 Q1.372 0.479 1.324 0.317" stroke="hsl(180.0,100%,35%)" stroke-width="0.00106"></path>
<path d="M1.066 0.537 Q1.151 0.638 1.365 0.618" stroke="hsl(180.0,100%,35%)" stroke-width="0.00035"></path>
<path d="M1.066 0.537 Q0.994 0.427 0.764 0.438" stroke="hsl(180.0,100%,35%)" stroke-width="0.00071"></path>
<path d="M1.679 0.802 Q1.630 0.744 1.506 0.755" stroke="hsl(180.0,100%,35%)" stroke-width="0.00035"></path>
<path d="M1.679 0.802 Q1.671 0.457 0.995 0.384" stroke="hsl(180.0,100%,35%)" stroke-width="0.00141"></path>
<path d="M1.679 0.802 Q1.842 0.253 0.806 0.052" stroke="hsl(180.0,100%,35%)" stroke-width="0.00035"></path>
<path d="M1.679 0.802 Q1.512 0.437 0.764 0.438" stroke="hsl(180.0,100%,35%)" stroke-width="0.00035"></path>
<path d="M1.679 0.802 Q1.669 0.647 1.365 0.618" stroke="hsl(180.0,100%,35%)" stroke-width="0.00035"></path>
<path d="M0.347 0.778 Q0.428 0.731 0.355 0.682" stroke="hsl(180.0,100%,35%)" stroke-width="0.00106"></path>
<path d="M0.347 0.778 Q0.368 0.659 0.142 0.623" stroke="hsl(180.0,100%,35%)" stroke-width="0.00035"></path>
<path d="M0.347 0.778 Q0.827 0.691 0.764 0.438" stroke="hsl(180.0,100%,35%)" stroke-width="0.00035"></path>
<path d="M0.347 0.778 Q0.729 0.535 0.340 0.295" stroke="hsl(180.0,100%,35%)" stroke-width="0.00035"></path>
<path d="M0.347 0.778 Q0.986 0.711 0.995 0.384" stroke="hsl(180.0,100%,35%)" stroke-width="0.00035"></path>
<path d="M0.347 0.778 Q0.706 0.810 0.849 0.642" stroke="hsl(180.0,100%,35%)" stroke-width="0.00035"></path>
<path d="M0.545 0.391 Q0.496 0.578 0.849 0.642" stroke="hsl(180.0,100%,35%)" stroke-width="0.00141"></path>
<path d="M0.545 0.391 Q0.994 0.510 1.324 0.317" stroke="hsl(180.0,100%,35%)" stroke-width="0.00247"></path>
<path d="M0.545 0.391 Q0.889 0.590 1.353 0.465" stroke="hsl(180.0,100%,35%)" stroke-width="0.00106"></path>
<path d="M0.545 0.391 Q0.775 0.478 0.995 0.384" stroke="hsl(180.0,100%,35%)" stroke-width="0.00459"></path>
<path d="M0.545 0.391 Q0.217 0.499 0.355 0.682" stroke="hsl(180.0,100%,35%)" stroke-width="0.00106"></path>
<path d="M0.545 0.391 Q0.773 0.669 1.365 0.618" stroke="hsl(180.0,100%,35%)" stroke-width="0.00071"></path>
<path d="M0.545 0.391 Q0.158 0.427 0.142 0.623" stroke="hsl(180.0,100%,35%)" stroke-width="0.00035"></path>
<path d="M0.545 0.391 Q0.617 0.459 0.764 0.438" stroke="hsl(180.0,100%,35%)" stroke-width="0.00035"></path>
<path d="M0.950 0.434 Q1.013 0.418 0.995 0.384" stroke="hsl(180.0,100%,35%)" stroke-width="0.00141"></path>
<path d="M0.950 0.434 Q1.184 0.214 0.806 0.052" stroke="hsl(180.0,100%,35%)" stroke-width="0.00035"></path>
<path d="M0.950 0.434 Q0.733 0.518 0.849 0.642" stroke="hsl(180.0,100%,35%)" stroke-width="0.00071"></path>
<path d="M0.950 0.434 Q1.011 0.609 1.365 0.618" stroke="hsl(180.0,100%,35%)" stroke-width="0.00035"></path>
<path d="M0.521 0.047 Q0.659 0.107 0.806 0.052" stroke="hsl(180.0,100%,35%)" stroke-width="0.00247"></path>
<path d="M0.521 0.047 Q-0.130 0.260 0.142 0.623" stroke="hsl(180.0,100%,35%)" stroke-width="0.00035"></path>
<path d="M0.521 0.047 Q0.488 0.311 0.995 0.384" stroke="hsl(180.0,100%,35%)" stroke-width="0.00247"></path>
<path d="M0.521 0.047 Q0.486 0.502 1.365 0.618" stroke="hsl(180.0,100%,35%)" stroke-width="0.00035"></path>
<path d="M0.955 0.529 Q1.091 0.465 0.995 0.384" stroke="hsl(180.0,100%,35%)" stroke-width="0.00247"></path>
<path d="M0.955 0.529 Q1.310 0.497 1.324 0.317" stroke="hsl(180.0,100%,35%)" stroke-width="0.00106"></path>
<path d="M0.955 0.529 Q1.223 0.371 0.972 0.205" stroke="hsl(180.0,100%,35%)" stroke-width="0.00035"></path>
<path d="M0.955 0.529 Q1.205 0.577 1.353 0.465" stroke="hsl(180.0,100%,35%)" stroke-width="0.00035"></path>
<path d="M0.955 0.529 Q0.811 0.565 0.849 0.642" stroke="hsl(180.0,100%,35%)" stroke-width="0.00035"></path>
<path d="M1.168 0.474 Q1.153 0.395 0.995 0.384" stroke="hsl(180.0,100%,35%)" stroke-width="0.00247"></path>
<path d="M1.168 0.474 Q1.151 0.586 1.365 0.618" stroke="hsl(180.0,100%,35%)" stroke-width="0.00071"></path>
<path d="M1.168 0.474 Q1.372 0.426 1.324 0.317" stroke="hsl(180.0,100%,35%)" stroke-width="0.00035"></path>
<path d="M1.168 0.474 Q0.994 0.375 0.764 0.438" stroke="hsl(180.0,100%,35%)" stroke-width="0.00035"></path>
<path d="M1.326 0.466 Q1.444 0.391 1.324 0.317" stroke="hsl(180.0,100%,35%)" stroke-width="0.00035"></path>
<path d="M1.326 0.466 Q1.226 0.359 0.995 0.384" stroke="hsl(180.0,100%,35%)" stroke-width="0.00212"></path>
<path d="M1.326 0.466 Q1.224 0.550 1.365 0.618" stroke="hsl(180.0,100%,35%)" stroke-width="0.00106"></path>
<path d="M1.326 0.466 Q1.340 0.471 1.353 0.465" stroke="hsl(180.0,100%,35%)" stroke-width="0.00035"></path>
<path d="M0.687 0.512 Q0.943 0.510 0.995 0.384" stroke="hsl(180.0,100%,35%)" stroke-width="0.00035"></path>
<path d="M0.687 0.512 Q0.664 0.610 0.849 0.642" stroke="hsl(180.0,100%,35%)" stroke-width="0.00106"></path>
<path d="M0.687 0.512 Q0.785 0.491 0.764 0.438" stroke="hsl(180.0,100%,35%)" stroke-width="0.00071"></path>
<path d="M0.687 0.512 Q1.162 0.542 1.324 0.317" stroke="hsl(180.0,100%,35%)" stroke-width="0.00035"></path>
<path d="M0.687 0.512 Q0.385 0.531 0.355 0.682" stroke="hsl(180.0,100%,35%)" stroke-width="0.00035"></path>
<path d="M0.736 0.218 Q0.864 0.259 0.972 0.205" stroke="hsl(180.0,100%,35%)" stroke-width="0.00035"></path>
<path d="M0.736 0.218 Q0.732 0.353 0.995 0.384" stroke="hsl(180.0,100%,35%)" stroke-width="0.00706"></path>
<path d="M0.736 0.218 Q0.453 0.453 0.849 0.642" stroke="hsl(180.0,100%,35%)" stroke-width="0.00141"></path>
<path d="M0.736 0.218 Q0.903 0.149 0.806 0.052" stroke="hsl(180.0,100%,35%)" stroke-width="0.00141"></path>
<path d="M0.736 0.218 Q0.951 0.385 1.324 0.317" stroke="hsl(180.0,100%,35%)" stroke-width="0.00106"></path>
<path d="M0.736 0.218 Q0.114 0.302 0.142 0.623" stroke="hsl(180.0,100%,35%)" stroke-width="0.00035"></path>
<path d="M0.736 0.218 Q0.730 0.544 1.365 0.618" stroke="hsl(180.0,100%,35%)" stroke-width="0.00247"></path>
<path d="M0.736 0.218 Q0.174 0.374 0.355 0.682" stroke="hsl(180.0,100%,35%)" stroke-width="0.00106"></path>
<path d="M0.736 0.218 Q0.846 0.465 1.353 0.465" stroke="hsl(180.0,100%,35%)" stroke-width="0.00035"></path>
</g>
<text x="1.712" y="0.626" font-size="0.029881" fill="hsl(0.0,100%,20%)">a.annestrand</text>
<text x="1.365" y="0.588" font-size="0.060889" fill="hsl(0.0,100%,20%)">geofflang</text>
<text x="0.995" y="0.337" font-size="0.095565" fill="hsl(180.0,100%,20%)">syoussefi</text>
<text x="0.355" y="0.658" font-size="0.046566" fill="hsl(180.0,100%,20%)">cnorthrop</text>
<text x="1.324" y="0.287" font-size="0.060116" fill="hsl(180.0,100%,20%)">cclao</text>
<text x="0.806" y="0.037" font-size="0.031542" fill="hsl(180.0,100%,20%)">ynovikov</text>
<text x="1.062" y="0.392" font-size="0.029451" fill="hsl(180.0,100%,20%)">g.tammana</text>
<text x="0.999" y="0.221" font-size="0.014869" fill="hsl(0.0,100%,20%)">a.dean1</text>
<text x="0.142" y="0.604" font-size="0.038132" fill="hsl(180.0,100%,20%)">romanl</text>
<text x="0.849" y="0.618" font-size="0.048093" fill="hsl(180.0,100%,20%)">abdolrashidi</text>
<text x="0.764" y="0.413" font-size="0.049830" fill="hsl(180.0,100%,20%)">yuxinhu</text>
<text x="0.972" y="0.190" font-size="0.029451" fill="hsl(180.0,100%,20%)">m.maiya</text>
<text x="0.990" y="0.152" font-size="0.033503" fill="hsl(180.0,100%,20%)">i.nazarov</text>
<text x="0.602" y="0.255" font-size="0.014286" fill="hsl(180.0,100%,20%)">aurora.zhang</text>
<text x="1.008" y="0.992" font-size="0.018898" fill="hsl(0.0,100%,20%)">kbr</text>
<text x="1.349" y="0.197" font-size="0.002916" fill="hsl(180.0,100%,20%)">gregschlom</text>
<text x="1.233" y="0.239" font-size="0.002916" fill="hsl(180.0,100%,20%)">slumpwuffle</text>
<text x="1.031" y="0.891" font-size="0.017976" fill="hsl(0.0,100%,20%)">chris</text>
<text x="1.353" y="0.443" font-size="0.045363" fill="hsl(0.0,100%,20%)">lexa.knyazev</text>
<text x="0.162" y="0.747" font-size="0.023869" fill="hsl(180.0,100%,20%)">mark</text>
<text x="0.340" y="0.288" font-size="0.013985" fill="hsl(180.0,100%,20%)">solti</text>
<text x="0.589" y="0.589" font-size="0.024046" fill="hsl(180.0,100%,20%)">timvp</text>
<text x="1.261" y="0.945" font-size="0.006521" fill="hsl(0.0,100%,20%)">djg</text>
<text x="0.699" y="0.535" font-size="0.008248" fill="hsl(180.0,100%,20%)">dloehr</text>
<text x="1.502" y="0.509" font-size="0.012711" fill="hsl(0.0,100%,20%)">lehoangquyen</text>
<text x="1.509" y="0.943" font-size="0.021626" fill="hsl(0.0,100%,20%)">liza</text>
<text x="1.597" y="0.534" font-size="0.004124" fill="hsl(0.0,100%,20%)">zmo</text>
<text x="1.382" y="0.825" font-size="0.026082" fill="hsl(0.0,100%,20%)">mpdenton</text>
<text x="1.271" y="0.527" font-size="0.002916" fill="hsl(0.0,100%,20%)">dsinclair</text>
<text x="1.508" y="0.664" font-size="0.009221" fill="hsl(0.0,100%,20%)">cwallez</text>
<text x="1.458" y="0.419" font-size="0.033756" fill="hsl(0.0,100%,20%)">kkinnunen</text>
<text x="1.072" y="0.640" font-size="0.004124" fill="hsl(0.0,100%,20%)">senorblanco</text>
<text x="1.634" y="0.486" font-size="0.002916" fill="hsl(0.0,100%,20%)">blundell</text>
<text x="1.379" y="0.705" font-size="0.004124" fill="hsl(0.0,100%,20%)">vasilyt</text>
<text x="1.914" y="0.423" font-size="0.007143" fill="hsl(180.0,100%,20%)">gyuyoung</text>
<text x="1.893" y="0.222" font-size="0.002916" fill="hsl(180.0,100%,20%)">sunnyps</text>
<text x="0.653" y="0.278" font-size="0.007715" fill="hsl(180.0,100%,20%)">hailinzhang</text>
<text x="1.212" y="0.428" font-size="0.008248" fill="hsl(180.0,100%,20%)">hans</text>
<text x="0.502" y="0.442" font-size="0.007143" fill="hsl(180.0,100%,20%)">hibrian</text>
<text x="1.381" y="0.719" font-size="0.005832" fill="hsl(0.0,100%,20%)">hocheung</text>
<text x="1.927" y="0.546" font-size="0.007143" fill="hsl(0.0,100%,20%)">hoonee.cho</text>
<text x="0.888" y="0.468" font-size="0.008748" fill="hsl(180.0,100%,20%)">jiaqi.li</text>
<text x="0.468" y="0.693" font-size="0.007143" fill="hsl(180.0,100%,20%)">jisunnie.lee</text>
<text x="0.798" y="0.245" font-size="0.008248" fill="hsl(180.0,100%,20%)">justonli</text>
<text x="0.368" y="0.094" font-size="0.011294" fill="hsl(180.0,100%,20%)">jwata</text>
<text x="0.218" y="2.395" font-size="0.005051" fill="hsl(180.0,100%,20%)">kaiyili</text>
<text x="1.727" y="0.370" font-size="0.005832" fill="hsl(0.0,100%,20%)">lichenliu</text>
<text x="1.050" y="0.076" font-size="0.002916" fill="hsl(180.0,100%,20%)">ianelliott</text>
<text x="1.101" y="0.507" font-size="0.013363" fill="hsl(180.0,100%,20%)">mavis.deng</text>
<text x="0.969" y="0.461" font-size="0.014869" fill="hsl(180.0,100%,20%)">neil.zhang</text>
<text x="0.767" y="0.285" font-size="0.008748" fill="hsl(180.0,100%,20%)">panfeng.hou</text>
<text x="1.137" y="0.559" font-size="0.017496" fill="hsl(0.0,100%,20%)">r.khurram</text>
<text x="0.405" y="0.531" font-size="0.006521" fill="hsl(180.0,100%,20%)">renatopereyra</text>
<text x="1.066" y="0.532" font-size="0.011664" fill="hsl(180.0,100%,20%)">robic.sun</text>
<text x="0.108" y="0.458" font-size="0.002916" fill="hsl(180.0,100%,20%)">egdaniel</text>
<text x="1.679" y="0.798" font-size="0.008248" fill="hsl(180.0,100%,20%)">rop</text>
<text x="1.506" y="0.754" font-size="0.002916" fill="hsl(180.0,100%,20%)">qjw</text>
<text x="0.347" y="0.773" font-size="0.008248" fill="hsl(180.0,100%,20%)">shawshanks</text>
<text x="0.545" y="0.383" font-size="0.017003" fill="hsl(180.0,100%,20%)">shufen.ma</text>
<text x="0.950" y="0.430" font-size="0.008748" fill="hsl(180.0,100%,20%)">steven</text>
<text x="1.263" y="0.091" font-size="0.004124" fill="hsl(180.0,100%,20%)">natsu</text>
<text x="0.521" y="0.042" font-size="0.011664" fill="hsl(180.0,100%,20%)">tikuta</text>
<text x="0.955" y="0.524" font-size="0.010514" fill="hsl(180.0,100%,20%)">tingwei.guo</text>
<text x="1.168" y="0.469" font-size="0.009671" fill="hsl(180.0,100%,20%)">xin.yuan</text>
<text x="1.326" y="0.461" font-size="0.009671" fill="hsl(180.0,100%,20%)">xinyu.fang</text>
<text x="0.687" y="0.508" font-size="0.008248" fill="hsl(180.0,100%,20%)">xwxw</text>
<text x="0.638" y="0.135" font-size="0.007143" fill="hsl(180.0,100%,20%)">bsheedy</text>
<text x="0.736" y="0.208" font-size="0.019343" fill="hsl(180.0,100%,20%)">yuxiang.qian</text>
<text x="0.677" y="0.464" font-size="0.002916" fill="hsl(180.0,100%,20%)">zijunzhao</text>
</svg>
