<svg width="4000" height="2000" viewBox="-0.025 -0.025 2.05 1.05" xmlns="http://www.w3.org/2000/svg">
  <style>
    path {
      fill: none;
      stroke-linecap: round;
      stroke-opacity: 0.4;
    }

    text {
      text-anchor: middle;
      alignment-baseline: hanging;
    }
  </style>
  <g opacity="0.4">
<path d="M0.235 0.842 Q0.190 0.919 0.333 0.958" stroke="hsl(0.0,100%,35%)" stroke-width="0.01290"></path>
<path d="M0.235 0.842 Q0.389 1.014 0.758 0.976" stroke="hsl(0.0,100%,35%)" stroke-width="0.00774"></path>
<path d="M0.235 0.842 Q0.693 0.933 0.971 0.729" stroke="hsl(0.0,100%,35%)" stroke-width="0.01032"></path>
<path d="M0.333 0.958 Q0.835 0.971 0.971 0.729" stroke="hsl(0.0,100%,35%)" stroke-width="0.04645"></path>
<path d="M0.333 0.958 Q0.531 1.052 0.758 0.976" stroke="hsl(0.0,100%,35%)" stroke-width="0.00258"></path>
<path d="M0.333 0.958 Q0.377 0.880 0.235 0.842" stroke="hsl(0.0,100%,35%)" stroke-width="0.03871"></path>
<path d="M0.333 0.958 Q0.554 0.957 0.600 0.848" stroke="hsl(0.0,100%,35%)" stroke-width="0.00258"></path>
<path d="M0.333 0.958 Q1.401 1.076 1.866 0.581" stroke="hsl(0.0,100%,35%)" stroke-width="0.00258"></path>
<path d="M0.758 0.976 Q0.560 0.882 0.333 0.958" stroke="hsl(0.0,100%,35%)" stroke-width="0.00516"></path>
<path d="M0.758 0.976 Q1.062 0.895 0.971 0.729" stroke="hsl(0.0,100%,35%)" stroke-width="0.01290"></path>
<path d="M0.758 0.976 Q0.604 0.804 0.235 0.842" stroke="hsl(0.0,100%,35%)" stroke-width="0.01032"></path>
<path d="M0.971 0.729 Q0.513 0.638 0.235 0.842" stroke="hsl(0.0,100%,35%)" stroke-width="0.00774"></path>
<path d="M0.971 0.729 Q0.667 0.810 0.758 0.976" stroke="hsl(0.0,100%,35%)" stroke-width="0.01032"></path>
<path d="M0.971 0.729 Q1.213 0.615 1.043 0.472" stroke="hsl(0.0,100%,35%)" stroke-width="0.00774"></path>
<path d="M0.971 0.729 Q1.538 0.834 1.866 0.581" stroke="hsl(0.0,100%,35%)" stroke-width="0.01290"></path>
<path d="M0.971 0.729 Q0.469 0.716 0.333 0.958" stroke="hsl(0.0,100%,35%)" stroke-width="0.00258"></path>
<path d="M1.866 0.581 Q1.950 0.495 1.801 0.435" stroke="hsl(0.0,100%,35%)" stroke-width="0.01548"></path>
<path d="M1.866 0.581 Q1.564 0.540 1.418 0.679" stroke="hsl(0.0,100%,35%)" stroke-width="0.00258"></path>
<path d="M1.866 0.581 Q1.542 0.362 1.043 0.472" stroke="hsl(0.0,100%,35%)" stroke-width="0.00258"></path>
<path d="M1.866 0.581 Q1.797 0.463 1.552 0.472" stroke="hsl(0.0,100%,35%)" stroke-width="0.00258"></path>
<path d="M1.866 0.581 Q0.842 0.385 0.235 0.842" stroke="hsl(0.0,100%,35%)" stroke-width="0.00258"></path>
<path d="M1.866 0.581 Q1.700 0.599 1.700 0.684" stroke="hsl(0.0,100%,35%)" stroke-width="0.00258"></path>
<path d="M1.418 0.679 Q0.652 0.601 0.333 0.958" stroke="hsl(0.0,100%,35%)" stroke-width="0.00774"></path>
<path d="M1.418 0.679 Q1.721 0.719 1.866 0.581" stroke="hsl(0.0,100%,35%)" stroke-width="0.01290"></path>
<path d="M1.418 0.679 Q1.154 0.615 0.971 0.729" stroke="hsl(0.0,100%,35%)" stroke-width="0.01290"></path>
<path d="M1.418 0.679 Q0.851 0.696 0.758 0.976" stroke="hsl(0.0,100%,35%)" stroke-width="0.00774"></path>
<path d="M1.418 0.679 Q0.696 0.524 0.235 0.842" stroke="hsl(0.0,100%,35%)" stroke-width="0.00774"></path>
<path d="M1.418 0.679 Q1.651 0.602 1.552 0.472" stroke="hsl(0.0,100%,35%)" stroke-width="0.00258"></path>
<path d="M1.101 0.316 Q0.947 0.382 1.043 0.472" stroke="hsl(0.0,100%,35%)" stroke-width="0.00774"></path>
<path d="M1.101 0.316 Q0.953 0.202 0.698 0.249" stroke="hsl(0.0,100%,35%)" stroke-width="0.01290"></path>
<path d="M1.101 0.316 Q0.705 0.497 0.971 0.729" stroke="hsl(0.0,100%,35%)" stroke-width="0.01032"></path>
<path d="M0.458 0.697 Q0.186 0.802 0.333 0.958" stroke="hsl(0.0,100%,35%)" stroke-width="0.00774"></path>
<path d="M0.458 0.697 Q0.930 0.702 1.043 0.472" stroke="hsl(0.0,100%,35%)" stroke-width="0.00258"></path>
<path d="M0.458 0.697 Q0.689 0.816 0.971 0.729" stroke="hsl(0.0,100%,35%)" stroke-width="0.00774"></path>
<path d="M1.083 0.879 Q1.389 0.668 1.043 0.472" stroke="hsl(0.0,100%,35%)" stroke-width="0.00516"></path>
<path d="M1.083 0.879 Q1.147 0.782 0.971 0.729" stroke="hsl(0.0,100%,35%)" stroke-width="0.03097"></path>
<path d="M1.083 0.879 Q0.645 0.769 0.333 0.958" stroke="hsl(0.0,100%,35%)" stroke-width="0.01032"></path>
<path d="M1.083 0.879 Q0.689 0.691 0.235 0.842" stroke="hsl(0.0,100%,35%)" stroke-width="0.00774"></path>
<path d="M1.083 0.879 Q0.843 0.863 0.758 0.976" stroke="hsl(0.0,100%,35%)" stroke-width="0.01032"></path>
<path d="M1.083 0.879 Q1.713 0.887 1.866 0.581" stroke="hsl(0.0,100%,35%)" stroke-width="0.00258"></path>
<path d="M1.448 0.848 Q0.846 0.602 0.235 0.842" stroke="hsl(0.0,100%,35%)" stroke-width="0.00258"></path>
<path d="M1.448 0.848 Q1.304 0.693 0.971 0.729" stroke="hsl(0.0,100%,35%)" stroke-width="0.00516"></path>
<path d="M1.448 0.848 Q0.802 0.680 0.333 0.958" stroke="hsl(0.0,100%,35%)" stroke-width="0.00258"></path>
</g>
<text x="0.235" y="0.805" font-size="0.073616" fill="hsl(0.0,100%,20%)">abdolrashidi</text>
<text x="0.333" y="0.916" font-size="0.084242" fill="hsl(0.0,100%,20%)">cclao</text>
<text x="0.758" y="0.947" font-size="0.057921" fill="hsl(0.0,100%,20%)">yuxinhu</text>
<text x="0.971" y="0.682" font-size="0.094357" fill="hsl(0.0,100%,20%)">syoussefi</text>
<text x="0.600" y="0.843" font-size="0.011359" fill="hsl(0.0,100%,20%)">ynovikov</text>
<text x="1.866" y="0.554" font-size="0.054477" fill="hsl(0.0,100%,20%)">cnorthrop</text>
<text x="1.801" y="0.421" font-size="0.027824" fill="hsl(0.0,100%,20%)">mark</text>
<text x="1.418" y="0.653" font-size="0.052055" fill="hsl(0.0,100%,20%)">timvp</text>
<text x="1.043" y="0.454" font-size="0.035921" fill="hsl(0.0,100%,20%)">geofflang</text>
<text x="1.552" y="0.464" font-size="0.016064" fill="hsl(0.0,100%,20%)">solti</text>
<text x="1.700" y="0.679" font-size="0.011359" fill="hsl(0.0,100%,20%)">xwxw</text>
<text x="1.101" y="0.296" font-size="0.039350" fill="hsl(0.0,100%,20%)">mpdenton</text>
<text x="0.698" y="0.236" font-size="0.025400" fill="hsl(0.0,100%,20%)">liza</text>
<text x="0.458" y="0.682" font-size="0.030054" fill="hsl(0.0,100%,20%)">panfeng.hou</text>
<text x="1.083" y="0.850" font-size="0.057921" fill="hsl(0.0,100%,20%)">sywow.choi</text>
<text x="1.448" y="0.837" font-size="0.022718" fill="hsl(0.0,100%,20%)">tingwei.guo</text>
</svg>
