<svg width="4000" height="2000" viewBox="-0.025 -0.025 2.05 1.05" xmlns="http://www.w3.org/2000/svg">
  <style>
    path {
      fill: none;
      stroke-linecap: round;
      stroke-opacity: 0.4;
    }

    text {
      text-anchor: middle;
      alignment-baseline: hanging;
    }
  </style>
  <g opacity="0.4">
<path d="M0.568 0.730 Q0.775 0.638 0.640 0.516" stroke="hsl(0.0,100%,35%)" stroke-width="0.00264"></path>
<path d="M0.568 0.730 Q1.246 0.625 1.190 0.272" stroke="hsl(0.0,100%,35%)" stroke-width="0.00791"></path>
<path d="M0.568 0.730 Q1.011 0.707 1.064 0.486" stroke="hsl(0.0,100%,35%)" stroke-width="0.00264"></path>
<path d="M0.640 0.516 Q1.111 0.504 1.190 0.272" stroke="hsl(0.0,100%,35%)" stroke-width="0.00791"></path>
<path d="M0.640 0.516 Q0.721 0.591 0.886 0.569" stroke="hsl(0.0,100%,35%)" stroke-width="0.00527"></path>
<path d="M0.640 0.516 Q0.523 0.742 0.939 0.850" stroke="hsl(0.0,100%,35%)" stroke-width="0.00264"></path>
<path d="M1.190 0.272 Q0.602 0.510 0.939 0.850" stroke="hsl(0.0,100%,35%)" stroke-width="0.01054"></path>
<path d="M1.190 0.272 Q0.720 0.284 0.640 0.516" stroke="hsl(0.0,100%,35%)" stroke-width="0.00264"></path>
<path d="M1.190 0.272 Q0.773 0.160 0.463 0.339" stroke="hsl(0.0,100%,35%)" stroke-width="0.00264"></path>
<path d="M1.190 0.272 Q1.007 0.142 0.715 0.203" stroke="hsl(0.0,100%,35%)" stroke-width="0.01318"></path>
<path d="M1.190 0.272 Q1.009 0.243 0.914 0.325" stroke="hsl(0.0,100%,35%)" stroke-width="0.01318"></path>
<path d="M1.190 0.272 Q1.520 0.228 1.509 0.058" stroke="hsl(0.0,100%,35%)" stroke-width="0.00264"></path>
<path d="M1.190 0.272 Q0.512 0.376 0.568 0.730" stroke="hsl(0.0,100%,35%)" stroke-width="0.00527"></path>
<path d="M1.190 0.272 Q0.800 0.359 0.886 0.569" stroke="hsl(0.0,100%,35%)" stroke-width="0.00527"></path>
<path d="M1.064 0.486 Q1.298 0.404 1.190 0.272" stroke="hsl(0.0,100%,35%)" stroke-width="0.03162"></path>
<path d="M1.064 0.486 Q0.828 0.416 0.640 0.516" stroke="hsl(0.0,100%,35%)" stroke-width="0.01581"></path>
<path d="M1.064 0.486 Q0.909 0.492 0.886 0.569" stroke="hsl(0.0,100%,35%)" stroke-width="0.00264"></path>
<path d="M0.886 0.569 Q0.805 0.493 0.640 0.516" stroke="hsl(0.0,100%,35%)" stroke-width="0.00791"></path>
<path d="M0.886 0.569 Q0.858 0.369 0.463 0.339" stroke="hsl(0.0,100%,35%)" stroke-width="0.00527"></path>
<path d="M0.886 0.569 Q0.597 0.586 0.568 0.730" stroke="hsl(0.0,100%,35%)" stroke-width="0.02108"></path>
<path d="M0.886 0.569 Q1.276 0.481 1.190 0.272" stroke="hsl(0.0,100%,35%)" stroke-width="0.02372"></path>
<path d="M0.939 0.850 Q1.346 0.582 0.914 0.325" stroke="hsl(0.0,100%,35%)" stroke-width="0.00264"></path>
<path d="M0.939 0.850 Q1.527 0.611 1.190 0.272" stroke="hsl(0.0,100%,35%)" stroke-width="0.01845"></path>
<path d="M0.939 0.850 Q1.056 0.623 0.640 0.516" stroke="hsl(0.0,100%,35%)" stroke-width="0.00264"></path>
<path d="M0.939 0.850 Q0.742 0.785 0.573 0.867" stroke="hsl(0.0,100%,35%)" stroke-width="0.00264"></path>
<path d="M1.750 0.187 Q1.548 0.188 1.506 0.286" stroke="hsl(0.0,100%,35%)" stroke-width="0.01318"></path>
<path d="M1.750 0.187 Q1.402 0.117 1.190 0.272" stroke="hsl(0.0,100%,35%)" stroke-width="0.00791"></path>
<path d="M1.750 0.187 Q1.429 0.036 1.062 0.159" stroke="hsl(0.0,100%,35%)" stroke-width="0.00527"></path>
<path d="M1.062 0.159 Q1.036 0.241 1.190 0.272" stroke="hsl(0.0,100%,35%)" stroke-width="0.07905"></path>
<path d="M1.062 0.159 Q1.383 0.311 1.750 0.187" stroke="hsl(0.0,100%,35%)" stroke-width="0.00264"></path>
<path d="M1.062 0.159 Q1.182 0.311 1.506 0.286" stroke="hsl(0.0,100%,35%)" stroke-width="0.00264"></path>
<path d="M1.062 0.159 Q0.853 0.112 0.715 0.203" stroke="hsl(0.0,100%,35%)" stroke-width="0.01054"></path>
<path d="M0.914 0.325 Q0.506 0.592 0.939 0.850" stroke="hsl(0.0,100%,35%)" stroke-width="0.00264"></path>
<path d="M0.914 0.325 Q0.416 0.458 0.568 0.730" stroke="hsl(0.0,100%,35%)" stroke-width="0.00264"></path>
<path d="M0.914 0.325 Q0.912 0.224 0.715 0.203" stroke="hsl(0.0,100%,35%)" stroke-width="0.00264"></path>
<path d="M0.914 0.325 Q1.094 0.353 1.190 0.272" stroke="hsl(0.0,100%,35%)" stroke-width="0.00264"></path>
<path d="M1.167 0.389 Q0.802 0.347 0.640 0.516" stroke="hsl(0.0,100%,35%)" stroke-width="0.00264"></path>
<path d="M1.167 0.389 Q1.272 0.335 1.190 0.272" stroke="hsl(0.0,100%,35%)" stroke-width="0.00527"></path>
<path d="M1.167 0.389 Q0.883 0.422 0.886 0.569" stroke="hsl(0.0,100%,35%)" stroke-width="0.00264"></path>
<path d="M0.655 0.054 Q0.566 0.141 0.715 0.203" stroke="hsl(0.0,100%,35%)" stroke-width="0.01318"></path>
<path d="M0.655 0.054 Q0.749 0.270 1.190 0.272" stroke="hsl(0.0,100%,35%)" stroke-width="0.00264"></path>
<path d="M0.655 0.054 Q0.775 0.188 1.062 0.159" stroke="hsl(0.0,100%,35%)" stroke-width="0.00527"></path>
<path d="M0.655 0.054 Q0.895 0.340 1.506 0.286" stroke="hsl(0.0,100%,35%)" stroke-width="0.00264"></path>
<path d="M1.750 0.366 Q1.572 0.125 1.062 0.159" stroke="hsl(0.0,100%,35%)" stroke-width="0.00264"></path>
<path d="M1.750 0.366 Q1.363 0.078 0.715 0.203" stroke="hsl(0.0,100%,35%)" stroke-width="0.00264"></path>
<path d="M1.750 0.366 Q1.692 0.278 1.506 0.286" stroke="hsl(0.0,100%,35%)" stroke-width="0.00264"></path>
<path d="M1.763 0.671 Q1.796 0.356 1.190 0.272" stroke="hsl(0.0,100%,35%)" stroke-width="0.00264"></path>
<path d="M1.763 0.671 Q1.614 0.227 0.715 0.203" stroke="hsl(0.0,100%,35%)" stroke-width="0.00264"></path>
<path d="M1.763 0.671 Q1.825 0.579 1.658 0.528" stroke="hsl(0.0,100%,35%)" stroke-width="0.00264"></path>
<path d="M1.367 0.404 Q0.914 0.315 0.640 0.516" stroke="hsl(0.0,100%,35%)" stroke-width="0.00264"></path>
<path d="M1.367 0.404 Q1.384 0.302 1.190 0.272" stroke="hsl(0.0,100%,35%)" stroke-width="0.00527"></path>
<path d="M1.367 0.404 Q1.204 0.274 0.914 0.325" stroke="hsl(0.0,100%,35%)" stroke-width="0.00264"></path>
<path d="M1.650 0.392 Q1.334 0.111 0.715 0.203" stroke="hsl(0.0,100%,35%)" stroke-width="0.00264"></path>
<path d="M1.650 0.392 Q1.517 0.240 1.190 0.272" stroke="hsl(0.0,100%,35%)" stroke-width="0.00791"></path>
<path d="M1.650 0.392 Q1.046 0.252 0.640 0.516" stroke="hsl(0.0,100%,35%)" stroke-width="0.00264"></path>
<path d="M1.650 0.392 Q1.127 0.328 0.886 0.569" stroke="hsl(0.0,100%,35%)" stroke-width="0.00264"></path>
<path d="M0.573 0.867 Q0.680 0.798 0.568 0.730" stroke="hsl(0.0,100%,35%)" stroke-width="0.00264"></path>
<path d="M0.573 0.867 Q1.177 0.664 0.914 0.325" stroke="hsl(0.0,100%,35%)" stroke-width="0.00527"></path>
<path d="M0.573 0.867 Q0.770 0.931 0.939 0.850" stroke="hsl(0.0,100%,35%)" stroke-width="0.00791"></path>
<path d="M0.573 0.867 Q1.358 0.693 1.190 0.272" stroke="hsl(0.0,100%,35%)" stroke-width="0.00791"></path>
<path d="M0.573 0.867 Q0.617 0.973 0.832 0.975" stroke="hsl(0.0,100%,35%)" stroke-width="0.00527"></path>
<path d="M0.573 0.867 Q1.176 0.563 0.715 0.203" stroke="hsl(0.0,100%,35%)" stroke-width="0.00264"></path>
<path d="M1.530 0.321 Q0.721 0.333 0.568 0.730" stroke="hsl(0.0,100%,35%)" stroke-width="0.00264"></path>
<path d="M1.530 0.321 Q1.400 0.228 1.190 0.272" stroke="hsl(0.0,100%,35%)" stroke-width="0.01054"></path>
<path d="M1.530 0.321 Q1.217 0.099 0.715 0.203" stroke="hsl(0.0,100%,35%)" stroke-width="0.00264"></path>
<path d="M1.530 0.321 Q1.426 0.146 1.062 0.159" stroke="hsl(0.0,100%,35%)" stroke-width="0.00264"></path>
<path d="M1.530 0.321 Q1.219 0.199 0.914 0.325" stroke="hsl(0.0,100%,35%)" stroke-width="0.00264"></path>
</g>
<text x="0.568" y="0.708" font-size="0.044475" fill="hsl(0.0,100%,20%)">abdolrashidi</text>
<text x="0.640" y="0.492" font-size="0.048038" fill="hsl(0.0,100%,20%)">cclao</text>
<text x="1.190" y="0.218" font-size="0.107417" fill="hsl(0.0,100%,20%)">syoussefi</text>
<text x="1.064" y="0.462" font-size="0.046881" fill="hsl(0.0,100%,20%)">i.nazarov</text>
<text x="0.886" y="0.540" font-size="0.056452" fill="hsl(0.0,100%,20%)">yuxinhu</text>
<text x="0.939" y="0.827" font-size="0.045694" fill="hsl(0.0,100%,20%)">romanl</text>
<text x="1.750" y="0.170" font-size="0.034768" fill="hsl(0.0,100%,20%)">chris</text>
<text x="1.506" y="0.272" font-size="0.029650" fill="hsl(0.0,100%,20%)">kbr</text>
<text x="1.062" y="0.125" font-size="0.067937" fill="hsl(0.0,100%,20%)">lexa.knyazev</text>
<text x="0.914" y="0.305" font-size="0.039223" fill="hsl(0.0,100%,20%)">cnorthrop</text>
<text x="0.715" y="0.180" font-size="0.046881" fill="hsl(0.0,100%,20%)">geofflang</text>
<text x="1.167" y="0.378" font-size="0.020966" fill="hsl(0.0,100%,20%)">jiaqi.li</text>
<text x="0.655" y="0.039" font-size="0.031449" fill="hsl(0.0,100%,20%)">kkinnunen</text>
<text x="1.750" y="0.357" font-size="0.018157" fill="hsl(0.0,100%,20%)">lehoangquyen</text>
<text x="1.763" y="0.662" font-size="0.018157" fill="hsl(0.0,100%,20%)">liza</text>
<text x="1.658" y="0.523" font-size="0.010483" fill="hsl(0.0,100%,20%)">mpdenton</text>
<text x="1.367" y="0.394" font-size="0.020966" fill="hsl(0.0,100%,20%)">mavis.deng</text>
<text x="1.650" y="0.380" font-size="0.025678" fill="hsl(0.0,100%,20%)">robic.sun</text>
<text x="0.573" y="0.848" font-size="0.037796" fill="hsl(0.0,100%,20%)">ynovikov</text>
<text x="0.463" y="0.330" font-size="0.018157" fill="hsl(0.0,100%,20%)">m.maiya</text>
<text x="1.509" y="0.052" font-size="0.010483" fill="hsl(0.0,100%,20%)">mark</text>
<text x="0.832" y="0.968" font-size="0.014825" fill="hsl(0.0,100%,20%)">bsheedy</text>
<text x="1.530" y="0.306" font-size="0.029650" fill="hsl(0.0,100%,20%)">yuxiang.qian</text>
</svg>
