<svg width="4000" height="2000" viewBox="-0.025 -0.025 2.05 1.05" xmlns="http://www.w3.org/2000/svg">
  <style>
    path {
      fill: none;
      stroke-linecap: round;
      stroke-opacity: 0.4;
    }

    text {
      text-anchor: middle;
      alignment-baseline: hanging;
    }
  </style>
  <g opacity="0.4">
<path d="M1.462 0.927 Q1.618 0.912 1.623 0.833" stroke="hsl(0.0,100%,35%)" stroke-width="0.01853"></path>
<path d="M1.462 0.927 Q1.447 0.624 0.852 0.565" stroke="hsl(0.0,100%,35%)" stroke-width="0.02133"></path>
<path d="M1.462 0.927 Q1.098 0.529 0.240 0.619" stroke="hsl(0.0,100%,35%)" stroke-width="0.00105"></path>
<path d="M1.623 0.833 Q1.452 0.545 0.852 0.565" stroke="hsl(0.0,100%,35%)" stroke-width="0.02273"></path>
<path d="M1.623 0.833 Q1.626 0.310 0.607 0.194" stroke="hsl(0.0,100%,35%)" stroke-width="0.00420"></path>
<path d="M1.623 0.833 Q1.823 0.265 0.759 0.043" stroke="hsl(0.0,100%,35%)" stroke-width="0.00350"></path>
<path d="M1.623 0.833 Q1.290 0.315 0.207 0.364" stroke="hsl(0.0,100%,35%)" stroke-width="0.00070"></path>
<path d="M1.623 0.833 Q1.961 0.775 1.922 0.598" stroke="hsl(0.0,100%,35%)" stroke-width="0.00070"></path>
<path d="M1.623 0.833 Q1.704 0.700 1.462 0.631" stroke="hsl(0.0,100%,35%)" stroke-width="0.00035"></path>
<path d="M1.623 0.833 Q1.693 0.904 1.846 0.885" stroke="hsl(0.0,100%,35%)" stroke-width="0.00140"></path>
<path d="M1.623 0.833 Q1.103 0.449 0.240 0.619" stroke="hsl(0.0,100%,35%)" stroke-width="0.00175"></path>
<path d="M1.623 0.833 Q1.653 0.216 0.454 0.066" stroke="hsl(0.0,100%,35%)" stroke-width="0.00140"></path>
<path d="M1.623 0.833 Q1.661 0.535 1.088 0.451" stroke="hsl(0.0,100%,35%)" stroke-width="0.00105"></path>
<path d="M1.623 0.833 Q1.551 0.396 0.684 0.336" stroke="hsl(0.0,100%,35%)" stroke-width="0.00070"></path>
<path d="M1.623 0.833 Q1.582 0.738 1.387 0.737" stroke="hsl(0.0,100%,35%)" stroke-width="0.00035"></path>
<path d="M1.623 0.833 Q1.680 0.719 1.470 0.666" stroke="hsl(0.0,100%,35%)" stroke-width="0.00035"></path>
<path d="M1.623 0.833 Q1.825 0.742 1.691 0.623" stroke="hsl(0.0,100%,35%)" stroke-width="0.00035"></path>
<path d="M1.623 0.833 Q1.683 0.727 1.489 0.674" stroke="hsl(0.0,100%,35%)" stroke-width="0.00070"></path>
<path d="M1.623 0.833 Q1.557 0.713 1.308 0.719" stroke="hsl(0.0,100%,35%)" stroke-width="0.00035"></path>
<path d="M1.623 0.833 Q1.262 0.661 0.847 0.799" stroke="hsl(0.0,100%,35%)" stroke-width="0.00035"></path>
<path d="M1.623 0.833 Q1.548 0.754 1.377 0.773" stroke="hsl(0.0,100%,35%)" stroke-width="0.00035"></path>
<path d="M1.623 0.833 Q1.637 0.713 1.405 0.680" stroke="hsl(0.0,100%,35%)" stroke-width="0.00070"></path>
<path d="M0.852 0.565 Q1.061 0.555 1.088 0.451" stroke="hsl(180.0,100%,35%)" stroke-width="0.01364"></path>
<path d="M0.852 0.565 Q0.964 0.637 1.129 0.598" stroke="hsl(180.0,100%,35%)" stroke-width="0.02483"></path>
<path d="M0.852 0.565 Q0.951 0.416 0.684 0.336" stroke="hsl(180.0,100%,35%)" stroke-width="0.02483"></path>
<path d="M0.852 0.565 Q1.023 0.853 1.623 0.833" stroke="hsl(180.0,100%,35%)" stroke-width="0.01888"></path>
<path d="M0.852 0.565 Q0.925 0.475 0.767 0.420" stroke="hsl(180.0,100%,35%)" stroke-width="0.00420"></path>
<path d="M0.852 0.565 Q1.052 0.236 0.454 0.066" stroke="hsl(180.0,100%,35%)" stroke-width="0.00594"></path>
<path d="M0.852 0.565 Q0.867 0.868 1.462 0.927" stroke="hsl(180.0,100%,35%)" stroke-width="0.00070"></path>
<path d="M0.852 0.565 Q1.360 0.795 1.922 0.598" stroke="hsl(180.0,100%,35%)" stroke-width="0.00140"></path>
<path d="M0.852 0.565 Q0.503 0.469 0.240 0.619" stroke="hsl(180.0,100%,35%)" stroke-width="0.00385"></path>
<path d="M0.852 0.565 Q0.989 0.529 0.949 0.455" stroke="hsl(180.0,100%,35%)" stroke-width="0.00035"></path>
<path d="M0.852 0.565 Q1.026 0.330 0.607 0.194" stroke="hsl(180.0,100%,35%)" stroke-width="0.00035"></path>
<path d="M0.852 0.565 Q0.690 0.335 0.207 0.364" stroke="hsl(180.0,100%,35%)" stroke-width="0.00664"></path>
<path d="M0.852 0.565 Q1.225 0.762 1.691 0.623" stroke="hsl(180.0,100%,35%)" stroke-width="0.00070"></path>
<path d="M0.852 0.565 Q1.093 0.924 1.846 0.885" stroke="hsl(180.0,100%,35%)" stroke-width="0.00140"></path>
<path d="M0.852 0.565 Q0.783 0.458 0.560 0.468" stroke="hsl(180.0,100%,35%)" stroke-width="0.00105"></path>
<path d="M0.852 0.565 Q1.251 0.582 1.372 0.391" stroke="hsl(180.0,100%,35%)" stroke-width="0.00035"></path>
<path d="M0.852 0.565 Q0.724 0.560 0.687 0.622" stroke="hsl(180.0,100%,35%)" stroke-width="0.00035"></path>
<path d="M0.240 0.619 Q0.164 0.600 0.111 0.634" stroke="hsl(180.0,100%,35%)" stroke-width="0.00804"></path>
<path d="M0.240 0.619 Q0.234 0.649 0.291 0.658" stroke="hsl(180.0,100%,35%)" stroke-width="0.00070"></path>
<path d="M0.240 0.619 Q0.427 0.485 0.207 0.364" stroke="hsl(180.0,100%,35%)" stroke-width="0.00909"></path>
<path d="M0.240 0.619 Q0.589 0.714 0.852 0.565" stroke="hsl(180.0,100%,35%)" stroke-width="0.00280"></path>
<path d="M0.240 0.619 Q0.789 0.385 0.454 0.066" stroke="hsl(180.0,100%,35%)" stroke-width="0.00140"></path>
<path d="M0.240 0.619 Q0.431 0.571 0.380 0.468" stroke="hsl(180.0,100%,35%)" stroke-width="0.00070"></path>
<path d="M0.240 0.619 Q0.701 0.786 1.129 0.598" stroke="hsl(180.0,100%,35%)" stroke-width="0.00105"></path>
<path d="M0.240 0.619 Q0.798 0.705 1.088 0.451" stroke="hsl(180.0,100%,35%)" stroke-width="0.00070"></path>
<path d="M0.240 0.619 Q0.760 1.002 1.623 0.833" stroke="hsl(180.0,100%,35%)" stroke-width="0.00035"></path>
<path d="M0.240 0.619 Q0.688 0.566 0.684 0.336" stroke="hsl(180.0,100%,35%)" stroke-width="0.00035"></path>
<path d="M0.240 0.619 Q1.000 0.645 1.219 0.280" stroke="hsl(180.0,100%,35%)" stroke-width="0.00035"></path>
<path d="M0.493 0.710 Q0.960 0.998 1.623 0.833" stroke="hsl(180.0,100%,35%)" stroke-width="0.00035"></path>
<path d="M0.493 0.710 Q0.789 0.709 0.852 0.565" stroke="hsl(180.0,100%,35%)" stroke-width="0.00105"></path>
<path d="M0.493 0.710 Q0.627 0.480 0.207 0.364" stroke="hsl(180.0,100%,35%)" stroke-width="0.00070"></path>
<path d="M0.207 0.364 Q0.369 0.593 0.852 0.565" stroke="hsl(180.0,100%,35%)" stroke-width="0.01923"></path>
<path d="M0.207 0.364 Q0.569 0.264 0.454 0.066" stroke="hsl(180.0,100%,35%)" stroke-width="0.00315"></path>
<path d="M0.207 0.364 Q0.578 0.584 1.088 0.451" stroke="hsl(180.0,100%,35%)" stroke-width="0.00664"></path>
<path d="M0.207 0.364 Q0.020 0.498 0.240 0.619" stroke="hsl(180.0,100%,35%)" stroke-width="0.01539"></path>
<path d="M0.207 0.364 Q0.468 0.445 0.684 0.336" stroke="hsl(180.0,100%,35%)" stroke-width="0.00455"></path>
<path d="M0.207 0.364 Q0.540 0.882 1.623 0.833" stroke="hsl(180.0,100%,35%)" stroke-width="0.00105"></path>
<path d="M0.207 0.364 Q0.481 0.665 1.129 0.598" stroke="hsl(180.0,100%,35%)" stroke-width="0.00315"></path>
<path d="M0.207 0.364 Q0.877 0.824 1.922 0.598" stroke="hsl(180.0,100%,35%)" stroke-width="0.00035"></path>
<path d="M0.207 0.364 Q0.780 0.524 1.219 0.280" stroke="hsl(180.0,100%,35%)" stroke-width="0.00035"></path>
<path d="M0.207 0.364 Q-0.056 0.480 0.111 0.634" stroke="hsl(180.0,100%,35%)" stroke-width="0.00035"></path>
<path d="M1.088 0.451 Q0.991 0.533 1.129 0.598" stroke="hsl(180.0,100%,35%)" stroke-width="0.00979"></path>
<path d="M1.088 0.451 Q0.879 0.461 0.852 0.565" stroke="hsl(180.0,100%,35%)" stroke-width="0.02063"></path>
<path d="M1.088 0.451 Q0.718 0.231 0.207 0.364" stroke="hsl(180.0,100%,35%)" stroke-width="0.00105"></path>
<path d="M1.088 0.451 Q0.530 0.365 0.240 0.619" stroke="hsl(180.0,100%,35%)" stroke-width="0.00804"></path>
<path d="M1.088 0.451 Q1.080 0.132 0.454 0.066" stroke="hsl(180.0,100%,35%)" stroke-width="0.00070"></path>
<path d="M1.088 0.451 Q1.016 0.425 0.949 0.455" stroke="hsl(180.0,100%,35%)" stroke-width="0.00035"></path>
<path d="M1.088 0.451 Q0.978 0.312 0.684 0.336" stroke="hsl(180.0,100%,35%)" stroke-width="0.00140"></path>
<path d="M1.088 0.451 Q1.050 0.749 1.623 0.833" stroke="hsl(180.0,100%,35%)" stroke-width="0.00140"></path>
<path d="M1.129 0.598 Q1.017 0.526 0.852 0.565" stroke="hsl(180.0,100%,35%)" stroke-width="0.03882"></path>
<path d="M1.129 0.598 Q1.090 0.436 0.767 0.420" stroke="hsl(180.0,100%,35%)" stroke-width="0.00070"></path>
<path d="M1.129 0.598 Q1.226 0.516 1.088 0.451" stroke="hsl(180.0,100%,35%)" stroke-width="0.01154"></path>
<path d="M1.129 0.598 Q1.217 0.197 0.454 0.066" stroke="hsl(180.0,100%,35%)" stroke-width="0.00070"></path>
<path d="M1.129 0.598 Q0.668 0.430 0.240 0.619" stroke="hsl(180.0,100%,35%)" stroke-width="0.00105"></path>
<path d="M1.129 0.598 Q1.188 0.814 1.623 0.833" stroke="hsl(180.0,100%,35%)" stroke-width="0.00070"></path>
<path d="M1.129 0.598 Q0.855 0.297 0.207 0.364" stroke="hsl(180.0,100%,35%)" stroke-width="0.00175"></path>
<path d="M1.129 0.598 Q1.116 0.378 0.684 0.336" stroke="hsl(180.0,100%,35%)" stroke-width="0.02203"></path>
<path d="M1.129 0.598 Q1.060 0.797 1.433 0.875" stroke="hsl(180.0,100%,35%)" stroke-width="0.00035"></path>
<path d="M1.129 0.598 Q1.145 0.713 1.372 0.730" stroke="hsl(180.0,100%,35%)" stroke-width="0.00035"></path>
<path d="M0.454 0.066 Q0.254 0.395 0.852 0.565" stroke="hsl(180.0,100%,35%)" stroke-width="0.00385"></path>
<path d="M0.454 0.066 Q0.425 0.683 1.623 0.833" stroke="hsl(180.0,100%,35%)" stroke-width="0.00210"></path>
<path d="M0.454 0.066 Q0.380 0.121 0.471 0.169" stroke="hsl(180.0,100%,35%)" stroke-width="0.00560"></path>
<path d="M0.454 0.066 Q0.665 0.326 1.219 0.280" stroke="hsl(180.0,100%,35%)" stroke-width="0.00175"></path>
<path d="M0.454 0.066 Q0.353 0.247 0.684 0.336" stroke="hsl(180.0,100%,35%)" stroke-width="0.00105"></path>
<path d="M0.454 0.066 Q0.092 0.166 0.207 0.364" stroke="hsl(180.0,100%,35%)" stroke-width="0.00350"></path>
<path d="M0.454 0.066 Q0.366 0.467 1.129 0.598" stroke="hsl(180.0,100%,35%)" stroke-width="0.00035"></path>
<path d="M0.454 0.066 Q-0.095 0.299 0.240 0.619" stroke="hsl(180.0,100%,35%)" stroke-width="0.00280"></path>
<path d="M0.454 0.066 Q0.463 0.385 1.088 0.451" stroke="hsl(180.0,100%,35%)" stroke-width="0.00035"></path>
<path d="M0.949 0.455 Q0.813 0.490 0.852 0.565" stroke="hsl(180.0,100%,35%)" stroke-width="0.00245"></path>
<path d="M0.949 0.455 Q0.651 0.261 0.207 0.364" stroke="hsl(180.0,100%,35%)" stroke-width="0.00070"></path>
<path d="M0.949 0.455 Q0.464 0.395 0.240 0.619" stroke="hsl(180.0,100%,35%)" stroke-width="0.00035"></path>
<path d="M0.949 0.455 Q0.772 0.558 0.934 0.667" stroke="hsl(180.0,100%,35%)" stroke-width="0.00035"></path>
<path d="M0.684 0.336 Q0.793 0.474 1.088 0.451" stroke="hsl(180.0,100%,35%)" stroke-width="0.00490"></path>
<path d="M0.684 0.336 Q0.585 0.484 0.852 0.565" stroke="hsl(180.0,100%,35%)" stroke-width="0.00525"></path>
<path d="M0.684 0.336 Q0.426 0.341 0.380 0.468" stroke="hsl(180.0,100%,35%)" stroke-width="0.00035"></path>
<path d="M0.684 0.336 Q0.696 0.556 1.129 0.598" stroke="hsl(180.0,100%,35%)" stroke-width="0.00350"></path>
<path d="M0.684 0.336 Q0.785 0.155 0.454 0.066" stroke="hsl(180.0,100%,35%)" stroke-width="0.00070"></path>
<path d="M0.684 0.336 Q0.996 0.415 1.219 0.280" stroke="hsl(180.0,100%,35%)" stroke-width="0.00035"></path>
<path d="M0.684 0.336 Q0.423 0.255 0.207 0.364" stroke="hsl(180.0,100%,35%)" stroke-width="0.00175"></path>
<path d="M0.684 0.336 Q0.235 0.388 0.240 0.619" stroke="hsl(180.0,100%,35%)" stroke-width="0.00105"></path>
<path d="M0.684 0.336 Q0.516 0.377 0.560 0.468" stroke="hsl(180.0,100%,35%)" stroke-width="0.00035"></path>
<path d="M0.684 0.336 Q0.864 0.403 1.036 0.330" stroke="hsl(180.0,100%,35%)" stroke-width="0.00035"></path>
<path d="M0.190 0.674 Q0.809 0.423 0.454 0.066" stroke="hsl(180.0,100%,35%)" stroke-width="0.00035"></path>
<path d="M0.190 0.674 Q0.259 0.656 0.240 0.619" stroke="hsl(180.0,100%,35%)" stroke-width="0.00070"></path>
<path d="M0.190 0.674 Q0.446 0.522 0.207 0.364" stroke="hsl(180.0,100%,35%)" stroke-width="0.00035"></path>
<path d="M0.471 0.169 Q0.545 0.114 0.454 0.066" stroke="hsl(180.0,100%,35%)" stroke-width="0.00280"></path>
<path d="M0.471 0.169 Q0.516 0.732 1.623 0.833" stroke="hsl(180.0,100%,35%)" stroke-width="0.00035"></path>
<path d="M0.471 0.169 Q0.355 0.141 0.274 0.191" stroke="hsl(180.0,100%,35%)" stroke-width="0.00035"></path>
<path d="M0.767 0.420 Q0.693 0.509 0.852 0.565" stroke="hsl(180.0,100%,35%)" stroke-width="0.02798"></path>
<path d="M0.767 0.420 Q0.805 0.581 1.129 0.598" stroke="hsl(180.0,100%,35%)" stroke-width="0.01049"></path>
<path d="M0.767 0.420 Q0.902 0.500 1.088 0.451" stroke="hsl(180.0,100%,35%)" stroke-width="0.00035"></path>
<path d="M0.767 0.420 Q0.792 0.361 0.684 0.336" stroke="hsl(180.0,100%,35%)" stroke-width="0.00070"></path>
<path d="M0.767 0.420 Q0.864 0.798 1.623 0.833" stroke="hsl(180.0,100%,35%)" stroke-width="0.00105"></path>
<path d="M0.767 0.420 Q0.344 0.414 0.240 0.619" stroke="hsl(180.0,100%,35%)" stroke-width="0.00035"></path>
<path d="M1.626 0.210 Q1.126 0.521 1.623 0.833" stroke="hsl(0.0,100%,35%)" stroke-width="0.00035"></path>
<path d="M1.626 0.210 Q1.463 0.463 1.922 0.598" stroke="hsl(0.0,100%,35%)" stroke-width="0.00140"></path>
<path d="M1.626 0.210 Q0.955 0.232 0.852 0.565" stroke="hsl(0.0,100%,35%)" stroke-width="0.00105"></path>
<path d="M1.376 0.475 Q1.154 0.487 1.129 0.598" stroke="hsl(180.0,100%,35%)" stroke-width="0.00175"></path>
<path d="M1.376 0.475 Q0.693 0.319 0.240 0.619" stroke="hsl(180.0,100%,35%)" stroke-width="0.00070"></path>
<path d="M1.376 0.475 Q1.042 0.415 0.852 0.565" stroke="hsl(180.0,100%,35%)" stroke-width="0.00035"></path>
<path d="M0.111 0.634 Q0.188 0.652 0.240 0.619" stroke="hsl(180.0,100%,35%)" stroke-width="0.01119"></path>
<path d="M0.111 0.634 Q0.537 0.747 0.852 0.565" stroke="hsl(180.0,100%,35%)" stroke-width="0.00210"></path>
<path d="M0.111 0.634 Q0.737 0.418 0.454 0.066" stroke="hsl(180.0,100%,35%)" stroke-width="0.00035"></path>
<path d="M0.111 0.634 Q0.708 1.036 1.623 0.833" stroke="hsl(180.0,100%,35%)" stroke-width="0.00035"></path>
<path d="M0.291 0.658 Q0.297 0.628 0.240 0.619" stroke="hsl(180.0,100%,35%)" stroke-width="0.00035"></path>
<path d="M0.291 0.658 Q0.221 0.610 0.111 0.634" stroke="hsl(180.0,100%,35%)" stroke-width="0.00035"></path>
<path d="M0.291 0.658 Q0.484 0.494 0.207 0.364" stroke="hsl(180.0,100%,35%)" stroke-width="0.00035"></path>
<path d="M1.219 0.280 Q0.907 0.201 0.684 0.336" stroke="hsl(180.0,100%,35%)" stroke-width="0.00280"></path>
<path d="M1.219 0.280 Q0.808 0.349 0.852 0.565" stroke="hsl(180.0,100%,35%)" stroke-width="0.00175"></path>
<path d="M1.219 0.280 Q1.008 0.020 0.454 0.066" stroke="hsl(180.0,100%,35%)" stroke-width="0.00035"></path>
<path d="M0.075 0.451 Q0.211 0.434 0.207 0.364" stroke="hsl(180.0,100%,35%)" stroke-width="0.00105"></path>
<path d="M0.075 0.451 Q0.373 0.663 0.852 0.565" stroke="hsl(180.0,100%,35%)" stroke-width="0.00035"></path>
<path d="M0.075 0.451 Q0.573 0.334 0.454 0.066" stroke="hsl(180.0,100%,35%)" stroke-width="0.00035"></path>
<path d="M1.624 0.960 Q1.554 0.608 0.852 0.565" stroke="hsl(0.0,100%,35%)" stroke-width="0.00070"></path>
<path d="M1.624 0.960 Q1.725 0.896 1.623 0.833" stroke="hsl(0.0,100%,35%)" stroke-width="0.00105"></path>
<path d="M1.624 0.960 Q1.927 0.805 1.691 0.623" stroke="hsl(0.0,100%,35%)" stroke-width="0.00035"></path>
<path d="M1.624 0.960 Q2.062 0.838 1.922 0.598" stroke="hsl(0.0,100%,35%)" stroke-width="0.00070"></path>
<path d="M1.691 0.623 Q1.490 0.715 1.623 0.833" stroke="hsl(0.0,100%,35%)" stroke-width="0.00525"></path>
<path d="M1.691 0.623 Q1.827 0.657 1.922 0.598" stroke="hsl(0.0,100%,35%)" stroke-width="0.00385"></path>
<path d="M1.691 0.623 Q1.559 0.786 1.846 0.885" stroke="hsl(0.0,100%,35%)" stroke-width="0.00035"></path>
<path d="M1.691 0.623 Q1.319 0.426 0.852 0.565" stroke="hsl(0.0,100%,35%)" stroke-width="0.00035"></path>
<path d="M0.496 0.691 Q0.613 0.470 0.207 0.364" stroke="hsl(180.0,100%,35%)" stroke-width="0.00035"></path>
<path d="M0.496 0.691 Q0.874 0.551 0.684 0.336" stroke="hsl(180.0,100%,35%)" stroke-width="0.00035"></path>
<path d="M0.496 0.691 Q0.775 0.699 0.852 0.565" stroke="hsl(180.0,100%,35%)" stroke-width="0.00035"></path>
<path d="M0.931 0.392 Q0.753 0.463 0.852 0.565" stroke="hsl(180.0,100%,35%)" stroke-width="0.01888"></path>
<path d="M0.931 0.392 Q0.924 0.751 1.623 0.833" stroke="hsl(180.0,100%,35%)" stroke-width="0.00769"></path>
<path d="M0.931 0.392 Q0.865 0.535 1.129 0.598" stroke="hsl(180.0,100%,35%)" stroke-width="0.00525"></path>
<path d="M0.931 0.392 Q0.768 0.766 1.462 0.927" stroke="hsl(180.0,100%,35%)" stroke-width="0.00140"></path>
<path d="M0.931 0.392 Q0.953 0.134 0.454 0.066" stroke="hsl(180.0,100%,35%)" stroke-width="0.00070"></path>
<path d="M0.931 0.392 Q0.404 0.367 0.240 0.619" stroke="hsl(180.0,100%,35%)" stroke-width="0.00035"></path>
<path d="M0.607 0.194 Q0.803 0.149 0.759 0.043" stroke="hsl(0.0,100%,35%)" stroke-width="0.00560"></path>
<path d="M0.607 0.194 Q0.433 0.429 0.852 0.565" stroke="hsl(0.0,100%,35%)" stroke-width="0.00804"></path>
<path d="M0.607 0.194 Q0.604 0.717 1.623 0.833" stroke="hsl(0.0,100%,35%)" stroke-width="0.00420"></path>
<path d="M0.607 0.194 Q0.271 0.199 0.207 0.364" stroke="hsl(0.0,100%,35%)" stroke-width="0.00035"></path>
<path d="M0.607 0.194 Q0.690 0.176 0.673 0.131" stroke="hsl(0.0,100%,35%)" stroke-width="0.00035"></path>
<path d="M0.759 0.043 Q0.562 0.088 0.607 0.194" stroke="hsl(0.0,100%,35%)" stroke-width="0.00420"></path>
<path d="M0.759 0.043 Q0.388 0.323 0.852 0.565" stroke="hsl(0.0,100%,35%)" stroke-width="0.00490"></path>
<path d="M0.759 0.043 Q0.559 0.611 1.623 0.833" stroke="hsl(0.0,100%,35%)" stroke-width="0.00350"></path>
<path d="M0.759 0.043 Q0.226 0.093 0.207 0.364" stroke="hsl(0.0,100%,35%)" stroke-width="0.00035"></path>
<path d="M1.846 0.885 Q2.114 0.757 1.922 0.598" stroke="hsl(0.0,100%,35%)" stroke-width="0.01049"></path>
<path d="M1.846 0.885 Q1.606 0.526 0.852 0.565" stroke="hsl(0.0,100%,35%)" stroke-width="0.02168"></path>
<path d="M1.846 0.885 Q1.979 0.723 1.691 0.623" stroke="hsl(0.0,100%,35%)" stroke-width="0.00280"></path>
<path d="M1.846 0.885 Q1.702 0.735 1.377 0.773" stroke="hsl(0.0,100%,35%)" stroke-width="0.01049"></path>
<path d="M1.846 0.885 Q1.777 0.815 1.623 0.833" stroke="hsl(0.0,100%,35%)" stroke-width="0.02308"></path>
<path d="M1.846 0.885 Q1.718 0.598 1.129 0.598" stroke="hsl(0.0,100%,35%)" stroke-width="0.00035"></path>
<path d="M1.846 0.885 Q1.257 0.431 0.240 0.619" stroke="hsl(0.0,100%,35%)" stroke-width="0.00070"></path>
<path d="M1.846 0.885 Q1.815 0.517 1.088 0.451" stroke="hsl(0.0,100%,35%)" stroke-width="0.00070"></path>
<path d="M1.377 0.773 Q1.452 0.852 1.623 0.833" stroke="hsl(0.0,100%,35%)" stroke-width="0.01364"></path>
<path d="M1.377 0.773 Q1.281 0.564 0.852 0.565" stroke="hsl(0.0,100%,35%)" stroke-width="0.01224"></path>
<path d="M1.377 0.773 Q1.790 0.794 1.922 0.598" stroke="hsl(0.0,100%,35%)" stroke-width="0.00629"></path>
<path d="M1.377 0.773 Q1.522 0.923 1.846 0.885" stroke="hsl(0.0,100%,35%)" stroke-width="0.00420"></path>
<path d="M1.377 0.773 Q1.654 0.761 1.691 0.623" stroke="hsl(0.0,100%,35%)" stroke-width="0.00140"></path>
<path d="M1.377 0.773 Q1.170 0.770 1.119 0.870" stroke="hsl(0.0,100%,35%)" stroke-width="0.00035"></path>
<path d="M1.377 0.773 Q1.481 0.235 0.454 0.066" stroke="hsl(0.0,100%,35%)" stroke-width="0.00035"></path>
<path d="M1.940 0.416 Q1.448 0.561 1.623 0.833" stroke="hsl(0.0,100%,35%)" stroke-width="0.00035"></path>
<path d="M1.940 0.416 Q1.786 0.504 1.922 0.598" stroke="hsl(0.0,100%,35%)" stroke-width="0.00035"></path>
<path d="M1.940 0.416 Q1.650 0.470 1.691 0.623" stroke="hsl(0.0,100%,35%)" stroke-width="0.00035"></path>
<path d="M1.097 0.235 Q0.920 0.341 1.088 0.451" stroke="hsl(180.0,100%,35%)" stroke-width="0.00105"></path>
<path d="M1.097 0.235 Q0.823 0.423 1.129 0.598" stroke="hsl(180.0,100%,35%)" stroke-width="0.00140"></path>
<path d="M1.097 0.235 Q0.711 0.351 0.852 0.565" stroke="hsl(180.0,100%,35%)" stroke-width="0.00140"></path>
<path d="M1.097 0.235 Q0.911 0.022 0.454 0.066" stroke="hsl(180.0,100%,35%)" stroke-width="0.00035"></path>
<path d="M1.097 0.235 Q0.810 0.203 0.684 0.336" stroke="hsl(180.0,100%,35%)" stroke-width="0.00035"></path>
<path d="M0.855 0.715 Q0.974 0.639 0.852 0.565" stroke="hsl(180.0,100%,35%)" stroke-width="0.00070"></path>
<path d="M0.855 0.715 Q1.145 0.928 1.623 0.833" stroke="hsl(180.0,100%,35%)" stroke-width="0.00035"></path>
<path d="M0.855 0.715 Q1.344 0.360 0.759 0.043" stroke="hsl(180.0,100%,35%)" stroke-width="0.00035"></path>
<path d="M0.855 0.715 Q1.174 0.310 0.454 0.066" stroke="hsl(180.0,100%,35%)" stroke-width="0.00035"></path>
<path d="M0.560 0.468 Q0.800 0.863 1.623 0.833" stroke="hsl(180.0,100%,35%)" stroke-width="0.00035"></path>
<path d="M0.560 0.468 Q0.629 0.575 0.852 0.565" stroke="hsl(180.0,100%,35%)" stroke-width="0.01644"></path>
<path d="M0.560 0.468 Q0.741 0.647 1.129 0.598" stroke="hsl(180.0,100%,35%)" stroke-width="0.00944"></path>
<path d="M0.560 0.468 Q0.702 0.485 0.767 0.420" stroke="hsl(180.0,100%,35%)" stroke-width="0.00105"></path>
<path d="M0.560 0.468 Q0.467 0.346 0.207 0.364" stroke="hsl(180.0,100%,35%)" stroke-width="0.00105"></path>
<path d="M0.560 0.468 Q0.838 0.565 1.088 0.451" stroke="hsl(180.0,100%,35%)" stroke-width="0.00070"></path>
<path d="M0.560 0.468 Q0.728 0.427 0.684 0.336" stroke="hsl(180.0,100%,35%)" stroke-width="0.00105"></path>
<path d="M1.296 0.887 Q1.841 0.868 1.922 0.598" stroke="hsl(0.0,100%,35%)" stroke-width="0.00070"></path>
<path d="M1.296 0.887 Q1.573 0.996 1.846 0.885" stroke="hsl(0.0,100%,35%)" stroke-width="0.00035"></path>
<path d="M1.296 0.887 Q1.332 0.637 0.852 0.565" stroke="hsl(0.0,100%,35%)" stroke-width="0.00105"></path>
<path d="M1.296 0.887 Q1.428 0.846 1.377 0.773" stroke="hsl(0.0,100%,35%)" stroke-width="0.00070"></path>
<path d="M0.575 0.865 Q0.763 0.887 0.847 0.799" stroke="hsl(0.0,100%,35%)" stroke-width="0.00035"></path>
<path d="M0.575 0.865 Q1.125 1.059 1.623 0.833" stroke="hsl(0.0,100%,35%)" stroke-width="0.00035"></path>
<path d="M0.575 0.865 Q1.050 0.979 1.377 0.773" stroke="hsl(0.0,100%,35%)" stroke-width="0.00035"></path>
<path d="M0.575 0.865 Q0.954 0.770 0.852 0.565" stroke="hsl(0.0,100%,35%)" stroke-width="0.00035"></path>
<path d="M0.673 0.131 Q0.416 0.384 0.852 0.565" stroke="hsl(180.0,100%,35%)" stroke-width="0.00035"></path>
<path d="M0.673 0.131 Q0.699 0.183 0.807 0.182" stroke="hsl(180.0,100%,35%)" stroke-width="0.00035"></path>
<path d="M0.673 0.131 Q0.616 0.055 0.454 0.066" stroke="hsl(180.0,100%,35%)" stroke-width="0.00035"></path>
<path d="M1.432 0.698 Q1.249 0.515 0.852 0.565" stroke="hsl(0.0,100%,35%)" stroke-width="0.00070"></path>
<path d="M1.432 0.698 Q1.345 0.724 1.377 0.773" stroke="hsl(0.0,100%,35%)" stroke-width="0.00140"></path>
<path d="M1.432 0.698 Q1.420 0.804 1.623 0.833" stroke="hsl(0.0,100%,35%)" stroke-width="0.00070"></path>
<path d="M0.859 0.654 Q0.927 0.608 0.852 0.565" stroke="hsl(180.0,100%,35%)" stroke-width="0.00210"></path>
<path d="M0.859 0.654 Q1.039 0.680 1.129 0.598" stroke="hsl(180.0,100%,35%)" stroke-width="0.00035"></path>
<path d="M0.859 0.654 Q1.127 0.279 0.454 0.066" stroke="hsl(180.0,100%,35%)" stroke-width="0.00035"></path>
<path d="M0.859 0.654 Q1.026 0.460 0.684 0.336" stroke="hsl(180.0,100%,35%)" stroke-width="0.00035"></path>
<path d="M1.181 0.781 Q1.360 0.896 1.623 0.833" stroke="hsl(0.0,100%,35%)" stroke-width="0.00594"></path>
<path d="M1.181 0.781 Q1.190 0.607 0.852 0.565" stroke="hsl(0.0,100%,35%)" stroke-width="0.00594"></path>
<path d="M1.181 0.781 Q1.390 0.278 0.454 0.066" stroke="hsl(0.0,100%,35%)" stroke-width="0.00035"></path>
<path d="M1.547 0.292 Q0.820 0.060 0.207 0.364" stroke="hsl(180.0,100%,35%)" stroke-width="0.00035"></path>
<path d="M1.547 0.292 Q0.982 0.289 0.852 0.565" stroke="hsl(180.0,100%,35%)" stroke-width="0.00070"></path>
<path d="M1.547 0.292 Q1.612 0.228 1.502 0.182" stroke="hsl(180.0,100%,35%)" stroke-width="0.00035"></path>
<path d="M0.571 0.469 Q0.844 0.563 1.088 0.451" stroke="hsl(180.0,100%,35%)" stroke-width="0.00070"></path>
<path d="M0.571 0.469 Q0.747 0.645 1.129 0.598" stroke="hsl(180.0,100%,35%)" stroke-width="0.00070"></path>
<path d="M0.571 0.469 Q0.875 0.932 1.846 0.885" stroke="hsl(180.0,100%,35%)" stroke-width="0.00070"></path>
<path d="M0.571 0.469 Q0.635 0.573 0.852 0.565" stroke="hsl(180.0,100%,35%)" stroke-width="0.00105"></path>
<path d="M0.571 0.469 Q0.286 0.477 0.240 0.619" stroke="hsl(180.0,100%,35%)" stroke-width="0.00070"></path>
<path d="M1.372 0.391 Q0.973 0.374 0.852 0.565" stroke="hsl(180.0,100%,35%)" stroke-width="0.00140"></path>
<path d="M1.372 0.391 Q1.173 0.045 0.454 0.066" stroke="hsl(180.0,100%,35%)" stroke-width="0.00035"></path>
<path d="M1.372 0.391 Q1.481 0.604 1.922 0.598" stroke="hsl(180.0,100%,35%)" stroke-width="0.00035"></path>
<path d="M1.372 0.391 Q1.182 0.364 1.088 0.451" stroke="hsl(180.0,100%,35%)" stroke-width="0.00035"></path>
<path d="M0.545 0.488 Q0.710 0.498 0.767 0.420" stroke="hsl(180.0,100%,35%)" stroke-width="0.00035"></path>
<path d="M0.545 0.488 Q0.637 0.588 0.852 0.565" stroke="hsl(180.0,100%,35%)" stroke-width="0.00245"></path>
<path d="M0.545 0.488 Q0.846 0.578 1.088 0.451" stroke="hsl(180.0,100%,35%)" stroke-width="0.00070"></path>
<path d="M0.545 0.488 Q0.837 0.259 0.454 0.066" stroke="hsl(180.0,100%,35%)" stroke-width="0.00105"></path>
<path d="M0.545 0.488 Q0.749 0.660 1.129 0.598" stroke="hsl(180.0,100%,35%)" stroke-width="0.00105"></path>
</g>
<text x="1.462" y="0.910" font-size="0.033326" fill="hsl(0.0,100%,20%)">a.annestrand</text>
<text x="1.623" y="0.802" font-size="0.063031" fill="hsl(0.0,100%,20%)">geofflang</text>
<text x="0.852" y="0.515" font-size="0.099434" fill="hsl(180.0,100%,20%)">syoussefi</text>
<text x="0.240" y="0.596" font-size="0.044265" fill="hsl(180.0,100%,20%)">cnorthrop</text>
<text x="0.493" y="0.706" font-size="0.007360" fill="hsl(180.0,100%,20%)">a.dean1</text>
<text x="0.207" y="0.341" font-size="0.046648" fill="hsl(180.0,100%,20%)">romanl</text>
<text x="1.088" y="0.428" font-size="0.047321" fill="hsl(180.0,100%,20%)">abdolrashidi</text>
<text x="1.129" y="0.567" font-size="0.062528" fill="hsl(180.0,100%,20%)">cclao</text>
<text x="0.454" y="0.049" font-size="0.033596" fill="hsl(180.0,100%,20%)">ynovikov</text>
<text x="0.949" y="0.450" font-size="0.010834" fill="hsl(180.0,100%,20%)">zzyiwei</text>
<text x="0.684" y="0.313" font-size="0.045173" fill="hsl(180.0,100%,20%)">yuxinhu</text>
<text x="0.190" y="0.671" font-size="0.006010" fill="hsl(180.0,100%,20%)">banisingh</text>
<text x="0.471" y="0.162" font-size="0.015322" fill="hsl(180.0,100%,20%)">bsheedy</text>
<text x="0.274" y="0.189" font-size="0.003005" fill="hsl(180.0,100%,20%)">chanli</text>
<text x="0.767" y="0.402" font-size="0.034914" fill="hsl(180.0,100%,20%)">m.maiya</text>
<text x="1.433" y="0.873" font-size="0.003005" fill="hsl(180.0,100%,20%)">gregschlom</text>
<text x="1.372" y="0.728" font-size="0.003005" fill="hsl(180.0,100%,20%)">slumpwuffle</text>
<text x="1.626" y="0.205" font-size="0.008499" fill="hsl(0.0,100%,20%)">chris</text>
<text x="1.922" y="0.585" font-size="0.026196" fill="hsl(0.0,100%,20%)">kbr</text>
<text x="1.376" y="0.470" font-size="0.008499" fill="hsl(180.0,100%,20%)">chrisforbes</text>
<text x="0.111" y="0.621" font-size="0.024226" fill="hsl(180.0,100%,20%)">mark</text>
<text x="0.291" y="0.655" font-size="0.006719" fill="hsl(180.0,100%,20%)">mikes</text>
<text x="0.380" y="0.465" font-size="0.005205" fill="hsl(180.0,100%,20%)">lpy</text>
<text x="1.219" y="0.273" font-size="0.014094" fill="hsl(180.0,100%,20%)">solti</text>
<text x="0.075" y="0.448" font-size="0.006719" fill="hsl(180.0,100%,20%)">dextero</text>
<text x="1.624" y="0.955" font-size="0.008499" fill="hsl(0.0,100%,20%)">djg</text>
<text x="1.691" y="0.613" font-size="0.020157" fill="hsl(0.0,100%,20%)">lehoangquyen</text>
<text x="0.496" y="0.688" font-size="0.005205" fill="hsl(180.0,100%,20%)">dloehr</text>
<text x="0.931" y="0.377" font-size="0.029747" fill="hsl(180.0,100%,20%)">g.tammana</text>
<text x="0.607" y="0.181" font-size="0.026538" fill="hsl(0.0,100%,20%)">liza</text>
<text x="0.759" y="0.031" font-size="0.024039" fill="hsl(0.0,100%,20%)">mpdenton</text>
<text x="1.462" y="0.630" font-size="0.003005" fill="hsl(0.0,100%,20%)">penghuang</text>
<text x="1.846" y="0.863" font-size="0.045073" fill="hsl(0.0,100%,20%)">lexa.knyazev</text>
<text x="1.387" y="0.735" font-size="0.003005" fill="hsl(0.0,100%,20%)">johnstiles</text>
<text x="1.470" y="0.665" font-size="0.003005" fill="hsl(0.0,100%,20%)">vasilyt</text>
<text x="1.489" y="0.672" font-size="0.004250" fill="hsl(0.0,100%,20%)">zmo</text>
<text x="1.308" y="0.717" font-size="0.003005" fill="hsl(0.0,100%,20%)">dsinclair</text>
<text x="0.847" y="0.797" font-size="0.004250" fill="hsl(0.0,100%,20%)">cwallez</text>
<text x="1.377" y="0.755" font-size="0.036556" fill="hsl(0.0,100%,20%)">kkinnunen</text>
<text x="1.405" y="0.678" font-size="0.004250" fill="hsl(0.0,100%,20%)">senorblanco</text>
<text x="1.940" y="0.414" font-size="0.005205" fill="hsl(0.0,100%,20%)">gman</text>
<text x="1.097" y="0.229" font-size="0.010834" fill="hsl(180.0,100%,20%)">hailinzhang</text>
<text x="0.855" y="0.712" font-size="0.006719" fill="hsl(180.0,100%,20%)">hocheung</text>
<text x="0.560" y="0.454" font-size="0.028507" fill="hsl(180.0,100%,20%)">i.nazarov</text>
<text x="1.119" y="0.868" font-size="0.003005" fill="hsl(0.0,100%,20%)">kpiddington</text>
<text x="1.296" y="0.883" font-size="0.008499" fill="hsl(0.0,100%,20%)">lerica</text>
<text x="0.575" y="0.862" font-size="0.006010" fill="hsl(0.0,100%,20%)">lichenliu</text>
<text x="0.673" y="0.128" font-size="0.006010" fill="hsl(180.0,100%,20%)">sokcevic</text>
<text x="1.432" y="0.694" font-size="0.008499" fill="hsl(0.0,100%,20%)">mscott</text>
<text x="0.859" y="0.650" font-size="0.009015" fill="hsl(180.0,100%,20%)">neil.zhang</text>
<text x="1.181" y="0.772" font-size="0.017777" fill="hsl(0.0,100%,20%)">r.khurram</text>
<text x="1.547" y="0.289" font-size="0.006010" fill="hsl(180.0,100%,20%)">rop</text>
<text x="1.502" y="0.181" font-size="0.003005" fill="hsl(180.0,100%,20%)">qjw</text>
<text x="0.571" y="0.464" font-size="0.009966" fill="hsl(180.0,100%,20%)">shufen.ma</text>
<text x="0.807" y="0.181" font-size="0.003005" fill="hsl(180.0,100%,20%)">jwata</text>
<text x="1.372" y="0.386" font-size="0.008499" fill="hsl(180.0,100%,20%)">steven</text>
<text x="0.687" y="0.621" font-size="0.003005" fill="hsl(180.0,100%,20%)">natsu</text>
<text x="0.545" y="0.482" font-size="0.012020" fill="hsl(180.0,100%,20%)">yuxiang.qian</text>
<text x="1.036" y="0.329" font-size="0.003005" fill="hsl(180.0,100%,20%)">zijunzhao</text>
<text x="0.934" y="0.666" font-size="0.003005" fill="hsl(180.0,100%,20%)">lepton</text>
</svg>
