<svg width="4000" height="2000" viewBox="-0.025 -0.025 2.05 1.05" xmlns="http://www.w3.org/2000/svg">
  <style>
    path {
      fill: none;
      stroke-linecap: round;
      stroke-opacity: 0.4;
    }

    text {
      text-anchor: middle;
      alignment-baseline: hanging;
    }
  </style>
  <g opacity="0.4">
<path d="M0.422 0.764 Q1.339 0.961 1.925 0.557" stroke="hsl(0.0,100%,35%)" stroke-width="0.01410"></path>
<path d="M0.422 0.764 Q0.296 0.715 0.172 0.765" stroke="hsl(0.0,100%,35%)" stroke-width="0.01692"></path>
<path d="M0.422 0.764 Q1.317 0.678 1.345 0.222" stroke="hsl(0.0,100%,35%)" stroke-width="0.00169"></path>
<path d="M0.422 0.764 Q0.811 0.698 0.768 0.494" stroke="hsl(0.0,100%,35%)" stroke-width="0.00113"></path>
<path d="M0.422 0.764 Q0.861 0.545 0.532 0.283" stroke="hsl(0.0,100%,35%)" stroke-width="0.00113"></path>
<path d="M0.422 0.764 Q0.426 0.585 0.077 0.544" stroke="hsl(0.0,100%,35%)" stroke-width="0.00113"></path>
<path d="M1.925 0.557 Q0.882 0.311 0.172 0.765" stroke="hsl(0.0,100%,35%)" stroke-width="0.00733"></path>
<path d="M1.925 0.557 Q2.185 0.271 1.684 0.082" stroke="hsl(0.0,100%,35%)" stroke-width="0.00338"></path>
<path d="M1.925 0.557 Q2.020 0.190 1.325 0.063" stroke="hsl(0.0,100%,35%)" stroke-width="0.00282"></path>
<path d="M1.925 0.557 Q2.017 0.465 1.856 0.400" stroke="hsl(0.0,100%,35%)" stroke-width="0.00056"></path>
<path d="M1.925 0.557 Q1.580 0.388 1.174 0.519" stroke="hsl(0.0,100%,35%)" stroke-width="0.00056"></path>
<path d="M1.925 0.557 Q1.903 0.274 1.345 0.222" stroke="hsl(0.0,100%,35%)" stroke-width="0.00056"></path>
<path d="M1.925 0.557 Q1.410 0.576 1.334 0.832" stroke="hsl(0.0,100%,35%)" stroke-width="0.00056"></path>
<path d="M1.925 0.557 Q1.448 0.142 0.532 0.283" stroke="hsl(0.0,100%,35%)" stroke-width="0.00056"></path>
<path d="M1.925 0.557 Q1.686 0.493 1.507 0.595" stroke="hsl(0.0,100%,35%)" stroke-width="0.00113"></path>
<path d="M1.925 0.557 Q1.889 0.596 1.957 0.623" stroke="hsl(0.0,100%,35%)" stroke-width="0.00113"></path>
<path d="M0.172 0.765 Q1.019 0.813 1.297 0.410" stroke="hsl(0.0,100%,35%)" stroke-width="0.00451"></path>
<path d="M0.172 0.765 Q0.084 0.800 0.132 0.851" stroke="hsl(0.0,100%,35%)" stroke-width="0.00056"></path>
<path d="M0.172 0.765 Q0.737 0.596 0.532 0.283" stroke="hsl(0.0,100%,35%)" stroke-width="0.00451"></path>
<path d="M0.172 0.765 Q0.801 0.688 0.789 0.364" stroke="hsl(0.0,100%,35%)" stroke-width="0.01636"></path>
<path d="M0.172 0.765 Q0.687 0.749 0.768 0.494" stroke="hsl(0.0,100%,35%)" stroke-width="0.01692"></path>
<path d="M0.172 0.765 Q1.215 1.012 1.925 0.557" stroke="hsl(0.0,100%,35%)" stroke-width="0.01072"></path>
<path d="M0.172 0.765 Q0.293 0.694 0.182 0.620" stroke="hsl(0.0,100%,35%)" stroke-width="0.00338"></path>
<path d="M0.172 0.765 Q0.500 0.734 0.510 0.567" stroke="hsl(0.0,100%,35%)" stroke-width="0.00733"></path>
<path d="M0.172 0.765 Q0.700 1.031 1.334 0.832" stroke="hsl(0.0,100%,35%)" stroke-width="0.00056"></path>
<path d="M0.172 0.765 Q1.193 0.728 1.345 0.222" stroke="hsl(0.0,100%,35%)" stroke-width="0.00677"></path>
<path d="M0.172 0.765 Q1.111 0.891 1.562 0.460" stroke="hsl(0.0,100%,35%)" stroke-width="0.00226"></path>
<path d="M0.172 0.765 Q0.413 0.775 0.485 0.660" stroke="hsl(0.0,100%,35%)" stroke-width="0.00113"></path>
<path d="M0.172 0.765 Q0.218 0.831 0.356 0.822" stroke="hsl(0.0,100%,35%)" stroke-width="0.00056"></path>
<path d="M0.172 0.765 Q0.625 0.680 0.558 0.441" stroke="hsl(0.0,100%,35%)" stroke-width="0.00056"></path>
<path d="M1.345 0.222 Q1.171 0.306 1.297 0.410" stroke="hsl(0.0,100%,35%)" stroke-width="0.00902"></path>
<path d="M1.345 0.222 Q1.235 0.146 1.061 0.183" stroke="hsl(0.0,100%,35%)" stroke-width="0.00959"></path>
<path d="M1.345 0.222 Q1.367 0.506 1.925 0.557" stroke="hsl(0.0,100%,35%)" stroke-width="0.00226"></path>
<path d="M1.345 0.222 Q0.652 0.227 0.510 0.567" stroke="hsl(0.0,100%,35%)" stroke-width="0.00113"></path>
<path d="M1.345 0.222 Q0.953 0.182 0.789 0.364" stroke="hsl(0.0,100%,35%)" stroke-width="0.00056"></path>
<path d="M1.345 0.222 Q0.839 0.243 0.768 0.494" stroke="hsl(0.0,100%,35%)" stroke-width="0.00056"></path>
<path d="M1.345 0.222 Q0.324 0.259 0.172 0.765" stroke="hsl(0.0,100%,35%)" stroke-width="0.00508"></path>
<path d="M1.345 0.222 Q0.776 0.174 0.558 0.441" stroke="hsl(0.0,100%,35%)" stroke-width="0.00056"></path>
<path d="M1.345 0.222 Q0.889 0.090 0.532 0.283" stroke="hsl(0.0,100%,35%)" stroke-width="0.00113"></path>
<path d="M0.768 0.494 Q1.100 0.558 1.297 0.410" stroke="hsl(0.0,100%,35%)" stroke-width="0.00113"></path>
<path d="M0.768 0.494 Q0.253 0.510 0.172 0.765" stroke="hsl(0.0,100%,35%)" stroke-width="0.03441"></path>
<path d="M0.768 0.494 Q0.882 0.433 0.789 0.364" stroke="hsl(0.0,100%,35%)" stroke-width="0.02482"></path>
<path d="M0.768 0.494 Q1.274 0.473 1.345 0.222" stroke="hsl(0.0,100%,35%)" stroke-width="0.00056"></path>
<path d="M0.768 0.494 Q0.374 0.440 0.182 0.620" stroke="hsl(0.0,100%,35%)" stroke-width="0.00056"></path>
<path d="M0.768 0.494 Q0.581 0.479 0.510 0.567" stroke="hsl(0.0,100%,35%)" stroke-width="0.00733"></path>
<path d="M0.532 0.283 Q0.489 0.171 0.260 0.167" stroke="hsl(0.0,100%,35%)" stroke-width="0.00113"></path>
<path d="M0.532 0.283 Q0.987 0.415 1.345 0.222" stroke="hsl(0.0,100%,35%)" stroke-width="0.00282"></path>
<path d="M0.532 0.283 Q-0.034 0.452 0.172 0.765" stroke="hsl(0.0,100%,35%)" stroke-width="0.00508"></path>
<path d="M0.532 0.283 Q0.813 0.500 1.297 0.410" stroke="hsl(0.0,100%,35%)" stroke-width="0.00169"></path>
<path d="M0.532 0.283 Q0.481 0.436 0.768 0.494" stroke="hsl(0.0,100%,35%)" stroke-width="0.00056"></path>
<path d="M0.532 0.283 Q0.294 0.421 0.510 0.567" stroke="hsl(0.0,100%,35%)" stroke-width="0.00113"></path>
<path d="M0.532 0.283 Q1.009 0.699 1.925 0.557" stroke="hsl(0.0,100%,35%)" stroke-width="0.00113"></path>
<path d="M0.077 0.544 Q0.462 0.657 0.768 0.494" stroke="hsl(0.0,100%,35%)" stroke-width="0.00282"></path>
<path d="M0.077 0.544 Q-0.053 0.673 0.172 0.765" stroke="hsl(0.0,100%,35%)" stroke-width="0.02143"></path>
<path d="M0.077 0.544 Q0.990 0.920 1.925 0.557" stroke="hsl(0.0,100%,35%)" stroke-width="0.01241"></path>
<path d="M0.077 0.544 Q0.073 0.723 0.422 0.764" stroke="hsl(0.0,100%,35%)" stroke-width="0.00451"></path>
<path d="M0.077 0.544 Q0.513 0.504 0.532 0.283" stroke="hsl(0.0,100%,35%)" stroke-width="0.00169"></path>
<path d="M0.077 0.544 Q0.968 0.636 1.345 0.222" stroke="hsl(0.0,100%,35%)" stroke-width="0.00056"></path>
<path d="M0.207 0.626 Q1.121 0.935 1.925 0.557" stroke="hsl(0.0,100%,35%)" stroke-width="0.00338"></path>
<path d="M0.207 0.626 Q0.077 0.689 0.172 0.765" stroke="hsl(0.0,100%,35%)" stroke-width="0.00564"></path>
<path d="M0.207 0.626 Q0.924 0.736 1.297 0.410" stroke="hsl(0.0,100%,35%)" stroke-width="0.00169"></path>
<path d="M0.207 0.626 Q0.204 0.738 0.422 0.764" stroke="hsl(0.0,100%,35%)" stroke-width="0.00226"></path>
<path d="M0.207 0.626 Q1.099 0.651 1.345 0.222" stroke="hsl(0.0,100%,35%)" stroke-width="0.00056"></path>
<path d="M1.297 0.410 Q0.450 0.363 0.172 0.765" stroke="hsl(0.0,100%,35%)" stroke-width="0.01918"></path>
<path d="M1.297 0.410 Q0.965 0.346 0.768 0.494" stroke="hsl(0.0,100%,35%)" stroke-width="0.00226"></path>
<path d="M1.297 0.410 Q1.471 0.325 1.345 0.222" stroke="hsl(0.0,100%,35%)" stroke-width="0.01467"></path>
<path d="M1.297 0.410 Q1.493 0.609 1.925 0.557" stroke="hsl(0.0,100%,35%)" stroke-width="0.00113"></path>
<path d="M1.297 0.410 Q1.080 0.286 0.789 0.364" stroke="hsl(0.0,100%,35%)" stroke-width="0.00338"></path>
<path d="M1.297 0.410 Q0.778 0.331 0.510 0.567" stroke="hsl(0.0,100%,35%)" stroke-width="0.00451"></path>
<path d="M1.297 0.410 Q1.361 0.249 1.061 0.183" stroke="hsl(0.0,100%,35%)" stroke-width="0.00056"></path>
<path d="M1.297 0.410 Q1.238 0.344 1.097 0.359" stroke="hsl(0.0,100%,35%)" stroke-width="0.00056"></path>
<path d="M1.297 0.410 Q0.785 0.228 0.317 0.438" stroke="hsl(0.0,100%,35%)" stroke-width="0.00056"></path>
<path d="M1.297 0.410 Q0.903 0.278 0.558 0.441" stroke="hsl(0.0,100%,35%)" stroke-width="0.00056"></path>
<path d="M1.297 0.410 Q1.016 0.193 0.532 0.283" stroke="hsl(0.0,100%,35%)" stroke-width="0.00113"></path>
<path d="M0.510 0.567 Q0.697 0.582 0.768 0.494" stroke="hsl(0.0,100%,35%)" stroke-width="0.00790"></path>
<path d="M0.510 0.567 Q0.182 0.598 0.172 0.765" stroke="hsl(0.0,100%,35%)" stroke-width="0.01297"></path>
<path d="M0.510 0.567 Q0.811 0.521 0.789 0.364" stroke="hsl(0.0,100%,35%)" stroke-width="0.00282"></path>
<path d="M0.510 0.567 Q1.203 0.561 1.345 0.222" stroke="hsl(0.0,100%,35%)" stroke-width="0.00226"></path>
<path d="M0.510 0.567 Q1.029 0.646 1.297 0.410" stroke="hsl(0.0,100%,35%)" stroke-width="0.00056"></path>
<path d="M0.510 0.567 Q0.748 0.429 0.532 0.283" stroke="hsl(0.0,100%,35%)" stroke-width="0.00056"></path>
<path d="M0.510 0.567 Q0.303 0.528 0.182 0.620" stroke="hsl(0.0,100%,35%)" stroke-width="0.00056"></path>
<path d="M0.789 0.364 Q0.675 0.425 0.768 0.494" stroke="hsl(0.0,100%,35%)" stroke-width="0.00338"></path>
<path d="M0.789 0.364 Q0.160 0.441 0.172 0.765" stroke="hsl(0.0,100%,35%)" stroke-width="0.00564"></path>
<path d="M0.789 0.364 Q0.230 0.382 0.142 0.659" stroke="hsl(0.0,100%,35%)" stroke-width="0.00056"></path>
<path d="M0.789 0.364 Q1.007 0.489 1.297 0.410" stroke="hsl(0.0,100%,35%)" stroke-width="0.00169"></path>
<path d="M0.789 0.364 Q0.488 0.410 0.510 0.567" stroke="hsl(0.0,100%,35%)" stroke-width="0.00282"></path>
<path d="M0.789 0.364 Q0.725 0.272 0.532 0.283" stroke="hsl(0.0,100%,35%)" stroke-width="0.00113"></path>
<path d="M0.789 0.364 Q0.945 0.326 0.904 0.241" stroke="hsl(0.0,100%,35%)" stroke-width="0.00056"></path>
<path d="M0.789 0.364 Q1.181 0.404 1.345 0.222" stroke="hsl(0.0,100%,35%)" stroke-width="0.00113"></path>
<path d="M0.789 0.364 Q1.071 0.328 1.061 0.183" stroke="hsl(0.0,100%,35%)" stroke-width="0.00056"></path>
<path d="M0.789 0.364 Q0.613 0.356 0.558 0.441" stroke="hsl(0.0,100%,35%)" stroke-width="0.00056"></path>
<path d="M0.182 0.620 Q0.575 0.674 0.768 0.494" stroke="hsl(0.0,100%,35%)" stroke-width="0.00564"></path>
<path d="M0.182 0.620 Q0.060 0.691 0.172 0.765" stroke="hsl(0.0,100%,35%)" stroke-width="0.01692"></path>
<path d="M0.182 0.620 Q0.690 0.614 0.789 0.364" stroke="hsl(0.0,100%,35%)" stroke-width="0.00282"></path>
<path d="M0.182 0.620 Q0.379 0.574 0.333 0.468" stroke="hsl(0.0,100%,35%)" stroke-width="0.00056"></path>
<path d="M0.182 0.620 Q1.103 0.937 1.925 0.557" stroke="hsl(0.0,100%,35%)" stroke-width="0.00113"></path>
<path d="M0.182 0.620 Q0.395 0.556 0.317 0.438" stroke="hsl(0.0,100%,35%)" stroke-width="0.00056"></path>
<path d="M0.182 0.620 Q1.000 0.816 1.562 0.460" stroke="hsl(0.0,100%,35%)" stroke-width="0.00056"></path>
<path d="M0.271 0.525 Q0.029 0.625 0.172 0.765" stroke="hsl(0.0,100%,35%)" stroke-width="0.00338"></path>
<path d="M0.271 0.525 Q0.357 0.594 0.510 0.567" stroke="hsl(0.0,100%,35%)" stroke-width="0.00113"></path>
<path d="M0.271 0.525 Q0.544 0.609 0.768 0.494" stroke="hsl(0.0,100%,35%)" stroke-width="0.00169"></path>
<path d="M0.271 0.525 Q1.072 0.872 1.925 0.557" stroke="hsl(0.0,100%,35%)" stroke-width="0.00056"></path>
<path d="M1.555 0.809 Q1.941 0.757 1.925 0.557" stroke="hsl(0.0,100%,35%)" stroke-width="0.00056"></path>
<path d="M1.555 0.809 Q1.426 0.776 1.334 0.832" stroke="hsl(0.0,100%,35%)" stroke-width="0.00790"></path>
<path d="M1.555 0.809 Q0.898 0.510 0.172 0.765" stroke="hsl(0.0,100%,35%)" stroke-width="0.00620"></path>
<path d="M1.555 0.809 Q1.838 0.636 1.562 0.460" stroke="hsl(0.0,100%,35%)" stroke-width="0.00226"></path>
<path d="M1.562 0.460 Q1.666 0.581 1.925 0.557" stroke="hsl(0.0,100%,35%)" stroke-width="0.01297"></path>
<path d="M1.562 0.460 Q1.427 0.516 1.507 0.595" stroke="hsl(0.0,100%,35%)" stroke-width="0.00169"></path>
<path d="M1.562 0.460 Q0.623 0.335 0.172 0.765" stroke="hsl(0.0,100%,35%)" stroke-width="0.01241"></path>
<path d="M1.562 0.460 Q1.644 0.297 1.345 0.222" stroke="hsl(0.0,100%,35%)" stroke-width="0.00113"></path>
<path d="M1.562 0.460 Q1.148 0.517 1.168 0.731" stroke="hsl(0.0,100%,35%)" stroke-width="0.00056"></path>
<path d="M1.562 0.460 Q0.951 0.303 0.510 0.567" stroke="hsl(0.0,100%,35%)" stroke-width="0.00113"></path>
<path d="M1.061 0.183 Q1.172 0.259 1.345 0.222" stroke="hsl(0.0,100%,35%)" stroke-width="0.00733"></path>
<path d="M1.061 0.183 Q0.151 0.296 0.172 0.765" stroke="hsl(0.0,100%,35%)" stroke-width="0.00169"></path>
<path d="M1.061 0.183 Q0.716 0.127 0.532 0.283" stroke="hsl(0.0,100%,35%)" stroke-width="0.00113"></path>
<path d="M1.061 0.183 Q0.478 0.264 0.510 0.567" stroke="hsl(0.0,100%,35%)" stroke-width="0.00056"></path>
<path d="M0.558 0.441 Q0.735 0.449 0.789 0.364" stroke="hsl(0.0,100%,35%)" stroke-width="0.00226"></path>
<path d="M0.558 0.441 Q0.105 0.526 0.172 0.765" stroke="hsl(0.0,100%,35%)" stroke-width="0.00169"></path>
<path d="M0.558 0.441 Q0.671 0.357 0.532 0.283" stroke="hsl(0.0,100%,35%)" stroke-width="0.00056"></path>
<path d="M1.684 0.082 Q1.424 0.368 1.925 0.557" stroke="hsl(0.0,100%,35%)" stroke-width="0.00169"></path>
<path d="M1.684 0.082 Q1.519 0.001 1.325 0.063" stroke="hsl(0.0,100%,35%)" stroke-width="0.00056"></path>
<path d="M1.684 0.082 Q0.381 0.121 0.172 0.765" stroke="hsl(0.0,100%,35%)" stroke-width="0.00056"></path>
<path d="M1.325 0.063 Q1.230 0.430 1.925 0.557" stroke="hsl(0.0,100%,35%)" stroke-width="0.00226"></path>
<path d="M1.325 0.063 Q1.490 0.144 1.684 0.082" stroke="hsl(0.0,100%,35%)" stroke-width="0.00508"></path>
<path d="M1.325 0.063 Q1.034 0.231 1.297 0.410" stroke="hsl(0.0,100%,35%)" stroke-width="0.00056"></path>
<path d="M1.325 0.063 Q0.187 0.184 0.172 0.765" stroke="hsl(0.0,100%,35%)" stroke-width="0.00338"></path>
<path d="M1.507 0.595 Q1.746 0.660 1.925 0.557" stroke="hsl(0.0,100%,35%)" stroke-width="0.02200"></path>
<path d="M1.507 0.595 Q1.643 0.538 1.562 0.460" stroke="hsl(0.0,100%,35%)" stroke-width="0.00169"></path>
<path d="M1.507 0.595 Q0.703 0.413 0.172 0.765" stroke="hsl(0.0,100%,35%)" stroke-width="0.01128"></path>
<path d="M1.507 0.595 Q1.231 0.679 1.334 0.832" stroke="hsl(0.0,100%,35%)" stroke-width="0.00169"></path>
<path d="M1.507 0.595 Q1.269 0.244 0.532 0.283" stroke="hsl(0.0,100%,35%)" stroke-width="0.00056"></path>
<path d="M1.507 0.595 Q1.229 0.595 1.168 0.731" stroke="hsl(0.0,100%,35%)" stroke-width="0.00056"></path>
<path d="M0.689 0.804 Q0.461 0.681 0.172 0.765" stroke="hsl(0.0,100%,35%)" stroke-width="0.00113"></path>
<path d="M0.689 0.804 Q1.090 0.604 0.789 0.364" stroke="hsl(0.0,100%,35%)" stroke-width="0.00056"></path>
<path d="M0.689 0.804 Q0.789 0.649 0.510 0.567" stroke="hsl(0.0,100%,35%)" stroke-width="0.00056"></path>
<path d="M0.689 0.804 Q1.504 0.928 1.925 0.557" stroke="hsl(0.0,100%,35%)" stroke-width="0.00056"></path>
<path d="M0.689 0.804 Q1.026 0.512 0.532 0.283" stroke="hsl(0.0,100%,35%)" stroke-width="0.00056"></path>
<path d="M0.118 0.591 Q1.048 0.936 1.925 0.557" stroke="hsl(0.0,100%,35%)" stroke-width="0.00056"></path>
<path d="M0.118 0.591 Q0.005 0.689 0.172 0.765" stroke="hsl(0.0,100%,35%)" stroke-width="0.00169"></path>
<path d="M0.118 0.591 Q0.131 0.738 0.422 0.764" stroke="hsl(0.0,100%,35%)" stroke-width="0.00113"></path>
<path d="M0.142 0.659 Q0.587 0.702 0.768 0.494" stroke="hsl(0.0,100%,35%)" stroke-width="0.01523"></path>
<path d="M0.142 0.659 Q0.072 0.718 0.172 0.765" stroke="hsl(0.0,100%,35%)" stroke-width="0.02707"></path>
<path d="M0.142 0.659 Q0.919 0.765 1.297 0.410" stroke="hsl(0.0,100%,35%)" stroke-width="0.00169"></path>
<path d="M0.142 0.659 Q0.701 0.641 0.789 0.364" stroke="hsl(0.0,100%,35%)" stroke-width="0.00226"></path>
<path d="M0.142 0.659 Q0.400 0.686 0.510 0.567" stroke="hsl(0.0,100%,35%)" stroke-width="0.00113"></path>
<path d="M0.142 0.659 Q1.115 0.965 1.925 0.557" stroke="hsl(0.0,100%,35%)" stroke-width="0.00056"></path>
<path d="M1.064 0.428 Q0.863 0.402 0.768 0.494" stroke="hsl(0.0,100%,35%)" stroke-width="0.00056"></path>
<path d="M1.064 0.428 Q0.348 0.419 0.172 0.765" stroke="hsl(0.0,100%,35%)" stroke-width="0.00226"></path>
<path d="M1.064 0.428 Q1.370 0.381 1.345 0.222" stroke="hsl(0.0,100%,35%)" stroke-width="0.00169"></path>
<path d="M1.168 0.731 Q1.686 0.796 1.925 0.557" stroke="hsl(0.0,100%,35%)" stroke-width="0.00113"></path>
<path d="M1.168 0.731 Q1.170 0.815 1.334 0.832" stroke="hsl(0.0,100%,35%)" stroke-width="0.00113"></path>
<path d="M1.168 0.731 Q0.643 0.549 0.172 0.765" stroke="hsl(0.0,100%,35%)" stroke-width="0.00056"></path>
<path d="M1.168 0.731 Q1.582 0.674 1.562 0.460" stroke="hsl(0.0,100%,35%)" stroke-width="0.00056"></path>
<path d="M1.056 0.604 Q1.182 0.585 1.174 0.519" stroke="hsl(0.0,100%,35%)" stroke-width="0.00056"></path>
<path d="M1.056 0.604 Q1.528 0.754 1.925 0.557" stroke="hsl(0.0,100%,35%)" stroke-width="0.00056"></path>
<path d="M1.056 0.604 Q1.289 0.690 1.507 0.595" stroke="hsl(0.0,100%,35%)" stroke-width="0.00056"></path>
<path d="M1.056 0.604 Q0.485 0.508 0.172 0.765" stroke="hsl(0.0,100%,35%)" stroke-width="0.00056"></path>
<path d="M0.136 0.896 Q0.586 0.806 0.510 0.567" stroke="hsl(0.0,100%,35%)" stroke-width="0.00056"></path>
<path d="M0.136 0.896 Q0.258 0.838 0.172 0.765" stroke="hsl(0.0,100%,35%)" stroke-width="0.00282"></path>
<path d="M0.136 0.896 Q0.888 0.761 0.789 0.364" stroke="hsl(0.0,100%,35%)" stroke-width="0.00056"></path>
<path d="M0.136 0.896 Q0.773 0.821 0.768 0.494" stroke="hsl(0.0,100%,35%)" stroke-width="0.00056"></path>
<path d="M0.136 0.896 Q1.301 1.084 1.925 0.557" stroke="hsl(0.0,100%,35%)" stroke-width="0.00056"></path>
<path d="M0.296 0.844 Q0.297 0.780 0.172 0.765" stroke="hsl(0.0,100%,35%)" stroke-width="0.00564"></path>
<path d="M0.296 0.844 Q0.812 0.763 0.768 0.494" stroke="hsl(0.0,100%,35%)" stroke-width="0.00169"></path>
<path d="M0.296 0.844 Q0.862 0.611 0.532 0.283" stroke="hsl(0.0,100%,35%)" stroke-width="0.00056"></path>
<path d="M0.296 0.844 Q0.926 0.703 0.789 0.364" stroke="hsl(0.0,100%,35%)" stroke-width="0.00056"></path>
<path d="M0.296 0.844 Q0.625 0.748 0.510 0.567" stroke="hsl(0.0,100%,35%)" stroke-width="0.00056"></path>
<path d="M0.296 0.844 Q1.340 1.026 1.925 0.557" stroke="hsl(0.0,100%,35%)" stroke-width="0.00056"></path>
<path d="M0.308 0.920 Q1.406 1.062 1.925 0.557" stroke="hsl(0.0,100%,35%)" stroke-width="0.00846"></path>
<path d="M0.308 0.920 Q0.363 0.815 0.172 0.765" stroke="hsl(0.0,100%,35%)" stroke-width="0.01015"></path>
<path d="M0.308 0.920 Q0.929 0.646 0.532 0.283" stroke="hsl(0.0,100%,35%)" stroke-width="0.00113"></path>
<path d="M0.308 0.920 Q0.489 0.864 0.422 0.764" stroke="hsl(0.0,100%,35%)" stroke-width="0.00056"></path>
<path d="M0.058 0.583 Q-0.031 0.697 0.172 0.765" stroke="hsl(0.0,100%,35%)" stroke-width="0.00226"></path>
<path d="M0.058 0.583 Q0.908 0.822 1.562 0.460" stroke="hsl(0.0,100%,35%)" stroke-width="0.00056"></path>
<path d="M0.058 0.583 Q0.484 0.680 0.768 0.494" stroke="hsl(0.0,100%,35%)" stroke-width="0.00056"></path>
<path d="M0.113 0.297 Q0.035 0.368 0.155 0.421" stroke="hsl(0.0,100%,35%)" stroke-width="0.00056"></path>
<path d="M0.113 0.297 Q-0.232 0.543 0.172 0.765" stroke="hsl(0.0,100%,35%)" stroke-width="0.00169"></path>
<path d="M0.113 0.297 Q0.333 0.374 0.532 0.283" stroke="hsl(0.0,100%,35%)" stroke-width="0.00056"></path>
<path d="M0.113 0.297 Q0.397 0.466 0.789 0.364" stroke="hsl(0.0,100%,35%)" stroke-width="0.00056"></path>
<path d="M0.075 0.635 Q0.347 0.688 0.510 0.567" stroke="hsl(0.0,100%,35%)" stroke-width="0.00169"></path>
<path d="M0.075 0.635 Q0.534 0.703 0.768 0.494" stroke="hsl(0.0,100%,35%)" stroke-width="0.00226"></path>
<path d="M0.075 0.635 Q0.959 0.845 1.562 0.460" stroke="hsl(0.0,100%,35%)" stroke-width="0.00113"></path>
<path d="M0.075 0.635 Q0.019 0.719 0.172 0.765" stroke="hsl(0.0,100%,35%)" stroke-width="0.00451"></path>
<path d="M0.075 0.635 Q1.040 0.682 1.345 0.222" stroke="hsl(0.0,100%,35%)" stroke-width="0.00169"></path>
<path d="M0.075 0.635 Q1.062 0.966 1.925 0.557" stroke="hsl(0.0,100%,35%)" stroke-width="0.00113"></path>
<path d="M0.075 0.635 Q0.866 0.767 1.297 0.410" stroke="hsl(0.0,100%,35%)" stroke-width="0.00056"></path>
<path d="M0.132 0.851 Q0.221 0.816 0.172 0.765" stroke="hsl(0.0,100%,35%)" stroke-width="0.00226"></path>
<path d="M0.132 0.851 Q0.786 0.647 0.532 0.283" stroke="hsl(0.0,100%,35%)" stroke-width="0.00056"></path>
<path d="M0.132 0.851 Q0.548 0.784 0.510 0.567" stroke="hsl(0.0,100%,35%)" stroke-width="0.00113"></path>
<path d="M0.132 0.851 Q1.264 1.063 1.925 0.557" stroke="hsl(0.0,100%,35%)" stroke-width="0.00056"></path>
<path d="M0.356 0.345 Q0.493 0.349 0.532 0.283" stroke="hsl(0.0,100%,35%)" stroke-width="0.00226"></path>
<path d="M0.356 0.345 Q0.775 0.566 1.297 0.410" stroke="hsl(0.0,100%,35%)" stroke-width="0.00056"></path>
<path d="M0.356 0.345 Q-0.072 0.519 0.172 0.765" stroke="hsl(0.0,100%,35%)" stroke-width="0.00169"></path>
<path d="M0.368 0.498 Q0.056 0.592 0.172 0.765" stroke="hsl(0.0,100%,35%)" stroke-width="0.00338"></path>
<path d="M0.368 0.498 Q1.099 0.839 1.925 0.557" stroke="hsl(0.0,100%,35%)" stroke-width="0.00113"></path>
<path d="M0.368 0.498 Q0.571 0.576 0.768 0.494" stroke="hsl(0.0,100%,35%)" stroke-width="0.00056"></path>
<path d="M0.396 0.793 Q0.821 0.718 0.768 0.494" stroke="hsl(0.0,100%,35%)" stroke-width="0.00056"></path>
<path d="M0.396 0.793 Q0.306 0.734 0.172 0.765" stroke="hsl(0.0,100%,35%)" stroke-width="0.00226"></path>
<path d="M0.396 0.793 Q1.349 0.981 1.925 0.557" stroke="hsl(0.0,100%,35%)" stroke-width="0.00113"></path>
<path d="M0.632 0.697 Q0.469 0.568 0.182 0.620" stroke="hsl(0.0,100%,35%)" stroke-width="0.00056"></path>
<path d="M0.632 0.697 Q0.348 0.639 0.172 0.765" stroke="hsl(0.0,100%,35%)" stroke-width="0.00846"></path>
<path d="M0.632 0.697 Q0.675 0.607 0.510 0.567" stroke="hsl(0.0,100%,35%)" stroke-width="0.00226"></path>
<path d="M0.632 0.697 Q0.913 0.470 0.532 0.283" stroke="hsl(0.0,100%,35%)" stroke-width="0.00226"></path>
<path d="M0.632 0.697 Q0.863 0.623 0.768 0.494" stroke="hsl(0.0,100%,35%)" stroke-width="0.00169"></path>
<path d="M0.632 0.697 Q1.195 0.686 1.297 0.410" stroke="hsl(0.0,100%,35%)" stroke-width="0.00056"></path>
<path d="M0.632 0.697 Q1.391 0.886 1.925 0.557" stroke="hsl(0.0,100%,35%)" stroke-width="0.00282"></path>
<path d="M0.632 0.697 Q1.369 0.602 1.345 0.222" stroke="hsl(0.0,100%,35%)" stroke-width="0.00056"></path>
</g>
<text x="0.422" y="0.746" font-size="0.035681" fill="hsl(0.0,100%,20%)">a.annestrand</text>
<text x="1.925" y="0.528" font-size="0.059680" fill="hsl(0.0,100%,20%)">geofflang</text>
<text x="0.172" y="0.716" font-size="0.099394" fill="hsl(0.0,100%,20%)">syoussefi</text>
<text x="1.345" y="0.199" font-size="0.045948" fill="hsl(0.0,100%,20%)">cnorthrop</text>
<text x="0.768" y="0.463" font-size="0.062192" fill="hsl(0.0,100%,20%)">cclao</text>
<text x="0.532" y="0.267" font-size="0.031864" fill="hsl(0.0,100%,20%)">ynovikov</text>
<text x="0.077" y="0.526" font-size="0.035681" fill="hsl(0.0,100%,20%)">g.tammana</text>
<text x="0.207" y="0.616" font-size="0.019667" fill="hsl(0.0,100%,20%)">a.dean1</text>
<text x="1.297" y="0.387" font-size="0.045596" fill="hsl(0.0,100%,20%)">romanl</text>
<text x="0.510" y="0.546" font-size="0.042295" fill="hsl(0.0,100%,20%)">abdolrashidi</text>
<text x="0.789" y="0.341" font-size="0.046471" fill="hsl(0.0,100%,20%)">yuxinhu</text>
<text x="0.182" y="0.604" font-size="0.030836" fill="hsl(0.0,100%,20%)">m.maiya</text>
<text x="0.271" y="0.518" font-size="0.013907" fill="hsl(0.0,100%,20%)">aurora.zhang</text>
<text x="1.555" y="0.798" font-size="0.021988" fill="hsl(0.0,100%,20%)">chris</text>
<text x="1.334" y="0.823" font-size="0.018397" fill="hsl(0.0,100%,20%)">kbr</text>
<text x="1.562" y="0.443" font-size="0.033347" fill="hsl(0.0,100%,20%)">lexa.knyazev</text>
<text x="1.061" y="0.170" font-size="0.024747" fill="hsl(0.0,100%,20%)">mark</text>
<text x="0.558" y="0.434" font-size="0.013907" fill="hsl(0.0,100%,20%)">solti</text>
<text x="1.684" y="0.073" font-size="0.017953" fill="hsl(0.0,100%,20%)">liza</text>
<text x="1.325" y="0.053" font-size="0.020470" fill="hsl(0.0,100%,20%)">mpdenton</text>
<text x="1.856" y="0.398" font-size="0.004014" fill="hsl(0.0,100%,20%)">dsinclair</text>
<text x="1.174" y="0.517" font-size="0.005677" fill="hsl(0.0,100%,20%)">cwallez</text>
<text x="1.507" y="0.578" font-size="0.034300" fill="hsl(0.0,100%,20%)">kkinnunen</text>
<text x="1.957" y="0.620" font-size="0.005677" fill="hsl(0.0,100%,20%)">senorblanco</text>
<text x="0.689" y="0.799" font-size="0.009833" fill="hsl(0.0,100%,20%)">hans</text>
<text x="0.118" y="0.586" font-size="0.009833" fill="hsl(0.0,100%,20%)">hoonee.cho</text>
<text x="0.142" y="0.640" font-size="0.037229" fill="hsl(0.0,100%,20%)">i.nazarov</text>
<text x="1.064" y="0.423" font-size="0.011355" fill="hsl(0.0,100%,20%)">justonli</text>
<text x="1.168" y="0.725" font-size="0.011355" fill="hsl(0.0,100%,20%)">lehoangquyen</text>
<text x="1.056" y="0.600" font-size="0.008029" fill="hsl(0.0,100%,20%)">lichenliu</text>
<text x="0.333" y="0.466" font-size="0.004014" fill="hsl(0.0,100%,20%)">ianelliott</text>
<text x="0.317" y="0.435" font-size="0.005677" fill="hsl(0.0,100%,20%)">hibrian</text>
<text x="0.136" y="0.890" font-size="0.012043" fill="hsl(0.0,100%,20%)">mavis.deng</text>
<text x="0.296" y="0.836" font-size="0.016552" fill="hsl(0.0,100%,20%)">neil.zhang</text>
<text x="0.308" y="0.907" font-size="0.024087" fill="hsl(0.0,100%,20%)">r.khurram</text>
<text x="0.058" y="0.578" font-size="0.009833" fill="hsl(0.0,100%,20%)">robic.sun</text>
<text x="1.097" y="0.357" font-size="0.004014" fill="hsl(0.0,100%,20%)">egdaniel</text>
<text x="0.113" y="0.292" font-size="0.009833" fill="hsl(0.0,100%,20%)">rop</text>
<text x="0.155" y="0.419" font-size="0.004014" fill="hsl(0.0,100%,20%)">qjw</text>
<text x="0.075" y="0.625" font-size="0.019253" fill="hsl(0.0,100%,20%)">shufen.ma</text>
<text x="0.132" y="0.845" font-size="0.012043" fill="hsl(0.0,100%,20%)">steven</text>
<text x="0.485" y="0.657" font-size="0.005677" fill="hsl(0.0,100%,20%)">natsu</text>
<text x="0.356" y="0.820" font-size="0.004014" fill="hsl(0.0,100%,20%)">vasilyt</text>
<text x="0.356" y="0.340" font-size="0.011355" fill="hsl(0.0,100%,20%)">tikuta</text>
<text x="0.368" y="0.492" font-size="0.012043" fill="hsl(0.0,100%,20%)">xin.yuan</text>
<text x="0.396" y="0.787" font-size="0.010621" fill="hsl(0.0,100%,20%)">xinyu.fang</text>
<text x="0.260" y="0.164" font-size="0.005677" fill="hsl(0.0,100%,20%)">bsheedy</text>
<text x="0.632" y="0.685" font-size="0.023408" fill="hsl(0.0,100%,20%)">yuxiang.qian</text>
<text x="0.904" y="0.239" font-size="0.004014" fill="hsl(0.0,100%,20%)">zijunzhao</text>
</svg>
