<svg width="4000" height="2000" viewBox="-0.025 -0.025 2.05 1.05" xmlns="http://www.w3.org/2000/svg">
  <style>
    path {
      fill: none;
      stroke-linecap: round;
      stroke-opacity: 0.4;
    }

    text {
      text-anchor: middle;
      alignment-baseline: hanging;
    }
  </style>
  <g opacity="0.4">
<path d="M1.232 0.295 Q1.309 0.142 1.027 0.070" stroke="hsl(0.0,100%,35%)" stroke-width="0.01797"></path>
<path d="M1.232 0.295 Q0.398 0.489 0.594 0.939" stroke="hsl(0.0,100%,35%)" stroke-width="0.01963"></path>
<path d="M1.232 0.295 Q0.995 0.516 1.373 0.680" stroke="hsl(0.0,100%,35%)" stroke-width="0.00100"></path>
<path d="M1.232 0.295 Q0.452 0.417 0.518 0.824" stroke="hsl(0.0,100%,35%)" stroke-width="0.00067"></path>
<path d="M1.232 0.295 Q0.831 0.232 0.619 0.413" stroke="hsl(0.0,100%,35%)" stroke-width="0.00067"></path>
<path d="M1.232 0.295 Q0.650 0.443 0.811 0.759" stroke="hsl(0.0,100%,35%)" stroke-width="0.00067"></path>
<path d="M1.027 0.070 Q0.116 0.418 0.594 0.939" stroke="hsl(0.0,100%,35%)" stroke-width="0.01963"></path>
<path d="M1.027 0.070 Q0.908 0.033 0.808 0.083" stroke="hsl(0.0,100%,35%)" stroke-width="0.00499"></path>
<path d="M1.027 0.070 Q1.123 0.123 1.248 0.088" stroke="hsl(0.0,100%,35%)" stroke-width="0.00399"></path>
<path d="M1.027 0.070 Q0.934 0.510 1.771 0.653" stroke="hsl(0.0,100%,35%)" stroke-width="0.00067"></path>
<path d="M1.027 0.070 Q1.040 0.141 1.181 0.150" stroke="hsl(0.0,100%,35%)" stroke-width="0.00100"></path>
<path d="M1.027 0.070 Q0.713 0.444 1.373 0.680" stroke="hsl(0.0,100%,35%)" stroke-width="0.00166"></path>
<path d="M1.027 0.070 Q0.550 0.160 0.619 0.413" stroke="hsl(0.0,100%,35%)" stroke-width="0.00133"></path>
<path d="M1.027 0.070 Q0.404 0.354 0.821 0.721" stroke="hsl(0.0,100%,35%)" stroke-width="0.00100"></path>
<path d="M1.027 0.070 Q0.104 0.470 0.680 1.008" stroke="hsl(0.0,100%,35%)" stroke-width="0.00067"></path>
<path d="M1.027 0.070 Q1.297 0.141 1.494 0.025" stroke="hsl(0.0,100%,35%)" stroke-width="0.00033"></path>
<path d="M1.027 0.070 Q0.929 0.056 0.879 0.101" stroke="hsl(0.0,100%,35%)" stroke-width="0.00033"></path>
<path d="M1.027 0.070 Q0.783 -0.030 0.533 0.067" stroke="hsl(0.0,100%,35%)" stroke-width="0.00033"></path>
<path d="M1.027 0.070 Q0.910 0.048 0.840 0.101" stroke="hsl(0.0,100%,35%)" stroke-width="0.00067"></path>
<path d="M1.027 0.070 Q0.929 0.175 1.110 0.245" stroke="hsl(0.0,100%,35%)" stroke-width="0.00033"></path>
<path d="M1.027 0.070 Q0.746 0.278 1.090 0.461" stroke="hsl(0.0,100%,35%)" stroke-width="0.00033"></path>
<path d="M1.027 0.070 Q1.052 0.378 1.658 0.434" stroke="hsl(0.0,100%,35%)" stroke-width="0.00033"></path>
<path d="M1.027 0.070 Q0.817 0.011 0.655 0.100" stroke="hsl(0.0,100%,35%)" stroke-width="0.00067"></path>
<path d="M1.027 0.070 Q1.166 0.083 1.222 0.019" stroke="hsl(0.0,100%,35%)" stroke-width="0.00067"></path>
<path d="M0.594 0.939 Q0.882 0.875 0.821 0.721" stroke="hsl(0.0,100%,35%)" stroke-width="0.01398"></path>
<path d="M0.594 0.939 Q0.648 0.866 0.518 0.824" stroke="hsl(0.0,100%,35%)" stroke-width="0.02063"></path>
<path d="M0.594 0.939 Q0.582 0.991 0.680 1.008" stroke="hsl(0.0,100%,35%)" stroke-width="0.02163"></path>
<path d="M0.594 0.939 Q1.505 0.591 1.027 0.070" stroke="hsl(0.0,100%,35%)" stroke-width="0.01564"></path>
<path d="M0.594 0.939 Q0.790 0.853 0.665 0.738" stroke="hsl(0.0,100%,35%)" stroke-width="0.00399"></path>
<path d="M0.594 0.939 Q1.028 0.681 0.619 0.413" stroke="hsl(0.0,100%,35%)" stroke-width="0.00599"></path>
<path d="M0.594 0.939 Q1.412 1.031 1.771 0.653" stroke="hsl(0.0,100%,35%)" stroke-width="0.00566"></path>
<path d="M0.594 0.939 Q1.428 0.745 1.232 0.295" stroke="hsl(0.0,100%,35%)" stroke-width="0.00033"></path>
<path d="M0.594 0.939 Q1.191 0.965 1.373 0.680" stroke="hsl(0.0,100%,35%)" stroke-width="0.00466"></path>
<path d="M0.594 0.939 Q1.261 0.491 0.533 0.067" stroke="hsl(0.0,100%,35%)" stroke-width="0.00033"></path>
<path d="M0.594 0.939 Q1.530 0.899 1.658 0.434" stroke="hsl(0.0,100%,35%)" stroke-width="0.00067"></path>
<path d="M0.594 0.939 Q0.416 0.892 0.285 0.968" stroke="hsl(0.0,100%,35%)" stroke-width="0.00100"></path>
<path d="M0.594 0.939 Q0.799 0.943 0.851 0.843" stroke="hsl(0.0,100%,35%)" stroke-width="0.00033"></path>
<path d="M0.594 0.939 Q1.519 0.662 1.181 0.150" stroke="hsl(0.0,100%,35%)" stroke-width="0.00133"></path>
<path d="M0.594 0.939 Q0.468 0.896 0.356 0.948" stroke="hsl(0.0,100%,35%)" stroke-width="0.00067"></path>
<path d="M0.594 0.939 Q1.407 0.577 0.879 0.101" stroke="hsl(0.0,100%,35%)" stroke-width="0.00033"></path>
<path d="M0.594 0.939 Q0.617 0.874 0.495 0.849" stroke="hsl(0.0,100%,35%)" stroke-width="0.00033"></path>
<path d="M1.373 0.680 Q1.383 0.763 1.548 0.777" stroke="hsl(0.0,100%,35%)" stroke-width="0.00832"></path>
<path d="M1.373 0.680 Q1.225 0.747 1.324 0.835" stroke="hsl(0.0,100%,35%)" stroke-width="0.00033"></path>
<path d="M1.373 0.680 Q1.594 0.746 1.771 0.653" stroke="hsl(0.0,100%,35%)" stroke-width="0.00965"></path>
<path d="M1.373 0.680 Q0.776 0.653 0.594 0.939" stroke="hsl(0.0,100%,35%)" stroke-width="0.00399"></path>
<path d="M1.373 0.680 Q0.830 0.581 0.518 0.824" stroke="hsl(0.0,100%,35%)" stroke-width="0.00100"></path>
<path d="M1.373 0.680 Q1.210 0.395 0.619 0.413" stroke="hsl(0.0,100%,35%)" stroke-width="0.00133"></path>
<path d="M1.373 0.680 Q1.064 0.590 0.821 0.721" stroke="hsl(0.0,100%,35%)" stroke-width="0.00100"></path>
<path d="M1.373 0.680 Q1.688 0.306 1.027 0.070" stroke="hsl(0.0,100%,35%)" stroke-width="0.00133"></path>
<path d="M1.373 0.680 Q0.764 0.705 0.680 1.008" stroke="hsl(0.0,100%,35%)" stroke-width="0.00033"></path>
<path d="M1.373 0.680 Q0.799 0.588 0.495 0.849" stroke="hsl(0.0,100%,35%)" stroke-width="0.00033"></path>
<path d="M0.518 0.824 Q0.464 0.897 0.594 0.939" stroke="hsl(0.0,100%,35%)" stroke-width="0.04592"></path>
<path d="M0.518 0.824 Q0.752 0.833 0.821 0.721" stroke="hsl(0.0,100%,35%)" stroke-width="0.01531"></path>
<path d="M0.518 0.824 Q0.898 0.639 0.619 0.413" stroke="hsl(0.0,100%,35%)" stroke-width="0.00067"></path>
<path d="M0.518 0.824 Q1.061 0.923 1.373 0.680" stroke="hsl(0.0,100%,35%)" stroke-width="0.00100"></path>
<path d="M0.518 0.824 Q1.376 0.549 1.027 0.070" stroke="hsl(0.0,100%,35%)" stroke-width="0.00067"></path>
<path d="M0.518 0.824 Q1.282 0.989 1.771 0.653" stroke="hsl(0.0,100%,35%)" stroke-width="0.00166"></path>
<path d="M0.518 0.824 Q0.452 0.949 0.680 1.008" stroke="hsl(0.0,100%,35%)" stroke-width="0.02429"></path>
<path d="M0.518 0.824 Q0.716 0.905 0.918 0.826" stroke="hsl(0.0,100%,35%)" stroke-width="0.00033"></path>
<path d="M0.518 0.824 Q0.527 0.939 0.753 0.960" stroke="hsl(0.0,100%,35%)" stroke-width="0.00033"></path>
<path d="M0.518 0.824 Q0.660 0.810 0.665 0.738" stroke="hsl(0.0,100%,35%)" stroke-width="0.00033"></path>
<path d="M0.619 0.413 Q0.186 0.671 0.594 0.939" stroke="hsl(0.0,100%,35%)" stroke-width="0.00499"></path>
<path d="M0.619 0.413 Q1.097 0.323 1.027 0.070" stroke="hsl(0.0,100%,35%)" stroke-width="0.00266"></path>
<path d="M0.619 0.413 Q0.424 0.259 0.082 0.321" stroke="hsl(0.0,100%,35%)" stroke-width="0.00433"></path>
<path d="M0.619 0.413 Q0.208 0.606 0.495 0.849" stroke="hsl(0.0,100%,35%)" stroke-width="0.00166"></path>
<path d="M0.619 0.413 Q0.173 0.723 0.680 1.008" stroke="hsl(0.0,100%,35%)" stroke-width="0.00100"></path>
<path d="M0.619 0.413 Q1.003 0.763 1.771 0.653" stroke="hsl(0.0,100%,35%)" stroke-width="0.00299"></path>
<path d="M0.619 0.413 Q0.240 0.598 0.518 0.824" stroke="hsl(0.0,100%,35%)" stroke-width="0.00067"></path>
<path d="M0.619 0.413 Q0.783 0.697 1.373 0.680" stroke="hsl(0.0,100%,35%)" stroke-width="0.00333"></path>
<path d="M0.619 0.413 Q0.474 0.607 0.821 0.721" stroke="hsl(0.0,100%,35%)" stroke-width="0.00100"></path>
<path d="M0.811 0.759 Q0.559 0.806 0.594 0.939" stroke="hsl(0.0,100%,35%)" stroke-width="0.01930"></path>
<path d="M0.811 0.759 Q0.613 0.733 0.518 0.824" stroke="hsl(0.0,100%,35%)" stroke-width="0.00499"></path>
<path d="M0.811 0.759 Q1.470 0.458 1.027 0.070" stroke="hsl(0.0,100%,35%)" stroke-width="0.00765"></path>
<path d="M0.811 0.759 Q1.393 0.611 1.232 0.295" stroke="hsl(0.0,100%,35%)" stroke-width="0.00266"></path>
<path d="M0.811 0.759 Q0.992 0.548 0.619 0.413" stroke="hsl(0.0,100%,35%)" stroke-width="0.00100"></path>
<path d="M0.811 0.759 Q1.156 0.832 1.373 0.680" stroke="hsl(0.0,100%,35%)" stroke-width="0.00033"></path>
<path d="M0.838 1.102 Q1.758 0.624 1.027 0.070" stroke="hsl(0.0,100%,35%)" stroke-width="0.00200"></path>
<path d="M0.838 1.102 Q0.846 0.972 0.594 0.939" stroke="hsl(0.0,100%,35%)" stroke-width="0.00333"></path>
<path d="M0.838 1.102 Q1.664 1.064 1.771 0.653" stroke="hsl(0.0,100%,35%)" stroke-width="0.00100"></path>
<path d="M0.838 1.102 Q1.680 0.777 1.232 0.295" stroke="hsl(0.0,100%,35%)" stroke-width="0.00133"></path>
<path d="M0.838 1.102 Q1.443 0.998 1.373 0.680" stroke="hsl(0.0,100%,35%)" stroke-width="0.00033"></path>
<path d="M1.771 0.653 Q0.954 0.560 0.594 0.939" stroke="hsl(0.0,100%,35%)" stroke-width="0.02196"></path>
<path d="M1.771 0.653 Q1.387 0.302 0.619 0.413" stroke="hsl(0.0,100%,35%)" stroke-width="0.00333"></path>
<path d="M1.771 0.653 Q1.242 0.496 0.821 0.721" stroke="hsl(0.0,100%,35%)" stroke-width="0.00532"></path>
<path d="M1.771 0.653 Q1.551 0.587 1.373 0.680" stroke="hsl(0.0,100%,35%)" stroke-width="0.01398"></path>
<path d="M1.771 0.653 Q1.008 0.488 0.518 0.824" stroke="hsl(0.0,100%,35%)" stroke-width="0.00399"></path>
<path d="M1.771 0.653 Q0.941 0.612 0.680 1.008" stroke="hsl(0.0,100%,35%)" stroke-width="0.00532"></path>
<path d="M1.771 0.653 Q1.889 0.521 1.658 0.434" stroke="hsl(0.0,100%,35%)" stroke-width="0.00033"></path>
<path d="M1.771 0.653 Q0.976 0.495 0.495 0.849" stroke="hsl(0.0,100%,35%)" stroke-width="0.00067"></path>
<path d="M1.771 0.653 Q1.865 0.213 1.027 0.070" stroke="hsl(0.0,100%,35%)" stroke-width="0.00067"></path>
<path d="M1.771 0.653 Q1.560 0.670 1.548 0.777" stroke="hsl(0.0,100%,35%)" stroke-width="0.00033"></path>
<path d="M1.771 0.653 Q1.762 0.741 1.932 0.765" stroke="hsl(0.0,100%,35%)" stroke-width="0.00033"></path>
<path d="M1.771 0.653 Q1.640 0.730 1.762 0.811" stroke="hsl(0.0,100%,35%)" stroke-width="0.00033"></path>
<path d="M0.821 0.721 Q0.587 0.712 0.518 0.824" stroke="hsl(0.0,100%,35%)" stroke-width="0.00898"></path>
<path d="M0.821 0.721 Q0.533 0.784 0.594 0.939" stroke="hsl(0.0,100%,35%)" stroke-width="0.02030"></path>
<path d="M0.821 0.721 Q1.350 0.877 1.771 0.653" stroke="hsl(0.0,100%,35%)" stroke-width="0.00133"></path>
<path d="M0.821 0.721 Q1.130 0.811 1.373 0.680" stroke="hsl(0.0,100%,35%)" stroke-width="0.00765"></path>
<path d="M0.821 0.721 Q0.966 0.526 0.619 0.413" stroke="hsl(0.0,100%,35%)" stroke-width="0.00100"></path>
<path d="M0.821 0.721 Q0.608 0.634 0.392 0.718" stroke="hsl(0.0,100%,35%)" stroke-width="0.00033"></path>
<path d="M0.821 0.721 Q0.520 0.836 0.680 1.008" stroke="hsl(0.0,100%,35%)" stroke-width="0.00200"></path>
<path d="M0.821 0.721 Q1.444 0.437 1.027 0.070" stroke="hsl(0.0,100%,35%)" stroke-width="0.00133"></path>
<path d="M0.821 0.721 Q0.729 0.698 0.665 0.738" stroke="hsl(0.0,100%,35%)" stroke-width="0.00033"></path>
<path d="M0.392 0.718 Q0.316 0.869 0.594 0.939" stroke="hsl(0.0,100%,35%)" stroke-width="0.00200"></path>
<path d="M0.392 0.718 Q1.134 0.961 1.771 0.653" stroke="hsl(0.0,100%,35%)" stroke-width="0.00067"></path>
<path d="M0.392 0.718 Q0.914 0.895 1.373 0.680" stroke="hsl(0.0,100%,35%)" stroke-width="0.00033"></path>
<path d="M0.392 0.718 Q0.199 0.675 0.072 0.760" stroke="hsl(0.0,100%,35%)" stroke-width="0.00033"></path>
<path d="M0.680 1.008 Q0.981 0.893 0.821 0.721" stroke="hsl(0.0,100%,35%)" stroke-width="0.00433"></path>
<path d="M0.680 1.008 Q0.747 0.884 0.518 0.824" stroke="hsl(0.0,100%,35%)" stroke-width="0.00366"></path>
<path d="M0.680 1.008 Q1.126 0.698 0.619 0.413" stroke="hsl(0.0,100%,35%)" stroke-width="0.00100"></path>
<path d="M0.680 1.008 Q0.693 0.956 0.594 0.939" stroke="hsl(0.0,100%,35%)" stroke-width="0.00532"></path>
<path d="M0.680 1.008 Q0.715 0.891 0.495 0.849" stroke="hsl(0.0,100%,35%)" stroke-width="0.00067"></path>
<path d="M0.680 1.008 Q1.510 1.049 1.771 0.653" stroke="hsl(0.0,100%,35%)" stroke-width="0.00166"></path>
<path d="M0.680 1.008 Q1.290 0.983 1.373 0.680" stroke="hsl(0.0,100%,35%)" stroke-width="0.00133"></path>
<path d="M0.680 1.008 Q0.515 0.909 0.285 0.968" stroke="hsl(0.0,100%,35%)" stroke-width="0.00033"></path>
<path d="M0.680 1.008 Q1.299 1.066 1.548 0.777" stroke="hsl(0.0,100%,35%)" stroke-width="0.00033"></path>
<path d="M0.665 0.738 Q0.469 0.824 0.594 0.939" stroke="hsl(0.0,100%,35%)" stroke-width="0.02329"></path>
<path d="M0.665 0.738 Q0.523 0.752 0.518 0.824" stroke="hsl(0.0,100%,35%)" stroke-width="0.00799"></path>
<path d="M0.665 0.738 Q0.757 0.761 0.821 0.721" stroke="hsl(0.0,100%,35%)" stroke-width="0.00033"></path>
<path d="M0.665 0.738 Q1.066 0.851 1.373 0.680" stroke="hsl(0.0,100%,35%)" stroke-width="0.00033"></path>
<path d="M0.665 0.738 Q0.457 0.876 0.680 1.008" stroke="hsl(0.0,100%,35%)" stroke-width="0.00200"></path>
<path d="M0.665 0.738 Q0.683 0.836 0.878 0.848" stroke="hsl(0.0,100%,35%)" stroke-width="0.00033"></path>
<path d="M0.665 0.738 Q1.380 0.477 1.027 0.070" stroke="hsl(0.0,100%,35%)" stroke-width="0.00067"></path>
<path d="M0.665 0.738 Q1.155 0.994 1.762 0.811" stroke="hsl(0.0,100%,35%)" stroke-width="0.00033"></path>
<path d="M0.665 0.738 Q1.393 0.547 1.181 0.150" stroke="hsl(0.0,100%,35%)" stroke-width="0.00033"></path>
<path d="M0.966 0.939 Q0.781 0.865 0.594 0.939" stroke="hsl(0.0,100%,35%)" stroke-width="0.00200"></path>
<path d="M0.966 0.939 Q1.069 0.801 0.821 0.721" stroke="hsl(0.0,100%,35%)" stroke-width="0.00067"></path>
<path d="M0.966 0.939 Q0.835 0.792 0.518 0.824" stroke="hsl(0.0,100%,35%)" stroke-width="0.00100"></path>
<path d="M0.966 0.939 Q1.692 0.517 1.027 0.070" stroke="hsl(0.0,100%,35%)" stroke-width="0.00033"></path>
<path d="M1.904 0.415 Q1.742 0.067 1.027 0.070" stroke="hsl(0.0,100%,35%)" stroke-width="0.00033"></path>
<path d="M1.904 0.415 Q1.766 0.375 1.658 0.434" stroke="hsl(0.0,100%,35%)" stroke-width="0.00466"></path>
<path d="M1.904 0.415 Q0.830 0.415 0.594 0.939" stroke="hsl(0.0,100%,35%)" stroke-width="0.00366"></path>
<path d="M1.904 0.415 Q1.755 0.138 1.181 0.150" stroke="hsl(0.0,100%,35%)" stroke-width="0.00133"></path>
<path d="M1.181 0.150 Q1.192 0.387 1.658 0.434" stroke="hsl(0.0,100%,35%)" stroke-width="0.00599"></path>
<path d="M1.181 0.150 Q0.256 0.427 0.594 0.939" stroke="hsl(0.0,100%,35%)" stroke-width="0.01930"></path>
<path d="M1.181 0.150 Q0.924 -0.021 0.533 0.067" stroke="hsl(0.0,100%,35%)" stroke-width="0.00266"></path>
<path d="M1.181 0.150 Q1.168 0.080 1.027 0.070" stroke="hsl(0.0,100%,35%)" stroke-width="0.01963"></path>
<path d="M1.181 0.150 Q0.957 0.020 0.655 0.100" stroke="hsl(0.0,100%,35%)" stroke-width="0.00865"></path>
<path d="M1.181 0.150 Q0.310 0.354 0.518 0.824" stroke="hsl(0.0,100%,35%)" stroke-width="0.00033"></path>
<path d="M1.181 0.150 Q0.853 0.453 1.373 0.680" stroke="hsl(0.0,100%,35%)" stroke-width="0.00067"></path>
<path d="M1.181 0.150 Q0.544 0.363 0.821 0.721" stroke="hsl(0.0,100%,35%)" stroke-width="0.00067"></path>
<path d="M1.548 0.777 Q1.539 0.693 1.373 0.680" stroke="hsl(0.0,100%,35%)" stroke-width="0.00998"></path>
<path d="M1.548 0.777 Q1.375 0.409 0.619 0.413" stroke="hsl(0.0,100%,35%)" stroke-width="0.00100"></path>
<path d="M1.548 0.777 Q0.941 0.667 0.594 0.939" stroke="hsl(0.0,100%,35%)" stroke-width="0.00133"></path>
<path d="M1.548 0.777 Q1.853 0.320 1.027 0.070" stroke="hsl(0.0,100%,35%)" stroke-width="0.00033"></path>
<path d="M1.548 0.777 Q1.230 0.603 0.821 0.721" stroke="hsl(0.0,100%,35%)" stroke-width="0.00033"></path>
<path d="M0.495 0.849 Q0.460 0.966 0.680 1.008" stroke="hsl(0.0,100%,35%)" stroke-width="0.00266"></path>
<path d="M0.495 0.849 Q0.472 0.914 0.594 0.939" stroke="hsl(0.0,100%,35%)" stroke-width="0.00166"></path>
<path d="M0.495 0.849 Q0.906 0.656 0.619 0.413" stroke="hsl(0.0,100%,35%)" stroke-width="0.00067"></path>
<path d="M0.373 0.287 Q0.780 0.750 1.771 0.653" stroke="hsl(0.0,100%,35%)" stroke-width="0.00100"></path>
<path d="M0.373 0.287 Q-0.038 0.658 0.594 0.939" stroke="hsl(0.0,100%,35%)" stroke-width="0.00033"></path>
<path d="M0.373 0.287 Q0.396 0.400 0.619 0.413" stroke="hsl(0.0,100%,35%)" stroke-width="0.00033"></path>
<path d="M1.873 0.283 Q1.620 0.007 1.027 0.070" stroke="hsl(0.0,100%,35%)" stroke-width="0.00100"></path>
<path d="M1.873 0.283 Q1.376 -0.093 0.533 0.067" stroke="hsl(0.0,100%,35%)" stroke-width="0.00033"></path>
<path d="M1.873 0.283 Q0.709 0.355 0.594 0.939" stroke="hsl(0.0,100%,35%)" stroke-width="0.00033"></path>
<path d="M1.873 0.283 Q1.644 0.315 1.658 0.434" stroke="hsl(0.0,100%,35%)" stroke-width="0.00067"></path>
<path d="M0.533 0.067 Q0.777 0.167 1.027 0.070" stroke="hsl(0.0,100%,35%)" stroke-width="0.00499"></path>
<path d="M0.533 0.067 Q0.802 0.475 1.658 0.434" stroke="hsl(0.0,100%,35%)" stroke-width="0.00366"></path>
<path d="M0.533 0.067 Q0.790 0.238 1.181 0.150" stroke="hsl(0.0,100%,35%)" stroke-width="0.00067"></path>
<path d="M0.533 0.067 Q-0.134 0.515 0.594 0.939" stroke="hsl(0.0,100%,35%)" stroke-width="0.00033"></path>
<path d="M0.737 1.388 Q1.842 1.227 1.771 0.653" stroke="hsl(0.0,100%,35%)" stroke-width="0.00033"></path>
<path d="M0.737 1.388 Q1.012 1.187 0.680 1.008" stroke="hsl(0.0,100%,35%)" stroke-width="0.00033"></path>
<path d="M0.737 1.388 Q1.025 1.135 0.594 0.939" stroke="hsl(0.0,100%,35%)" stroke-width="0.00033"></path>
<path d="M0.808 0.083 Q1.023 0.174 1.248 0.088" stroke="hsl(0.0,100%,35%)" stroke-width="0.00499"></path>
<path d="M0.808 0.083 Q0.016 0.468 0.594 0.939" stroke="hsl(0.0,100%,35%)" stroke-width="0.00466"></path>
<path d="M0.808 0.083 Q0.927 0.121 1.027 0.070" stroke="hsl(0.0,100%,35%)" stroke-width="0.00333"></path>
<path d="M1.248 0.088 Q1.032 -0.002 0.808 0.083" stroke="hsl(0.0,100%,35%)" stroke-width="0.00599"></path>
<path d="M1.248 0.088 Q0.240 0.383 0.594 0.939" stroke="hsl(0.0,100%,35%)" stroke-width="0.00632"></path>
<path d="M1.248 0.088 Q1.152 0.035 1.027 0.070" stroke="hsl(0.0,100%,35%)" stroke-width="0.00399"></path>
<path d="M1.248 0.088 Q1.058 0.475 1.771 0.653" stroke="hsl(0.0,100%,35%)" stroke-width="0.00033"></path>
<path d="M0.655 0.100 Q0.865 0.160 1.027 0.070" stroke="hsl(0.0,100%,35%)" stroke-width="0.01830"></path>
<path d="M0.655 0.100 Q-0.046 0.507 0.594 0.939" stroke="hsl(0.0,100%,35%)" stroke-width="0.00765"></path>
<path d="M0.655 0.100 Q0.889 0.468 1.658 0.434" stroke="hsl(0.0,100%,35%)" stroke-width="0.00200"></path>
<path d="M0.655 0.100 Q0.621 0.059 0.533 0.067" stroke="hsl(0.0,100%,35%)" stroke-width="0.00100"></path>
<path d="M0.655 0.100 Q0.878 0.230 1.181 0.150" stroke="hsl(0.0,100%,35%)" stroke-width="0.00399"></path>
<path d="M0.655 0.100 Q0.387 0.249 0.619 0.413" stroke="hsl(0.0,100%,35%)" stroke-width="0.00033"></path>
<path d="M0.698 0.564 Q0.634 0.667 0.821 0.721" stroke="hsl(0.0,100%,35%)" stroke-width="0.00100"></path>
<path d="M0.698 0.564 Q0.400 0.658 0.518 0.824" stroke="hsl(0.0,100%,35%)" stroke-width="0.00067"></path>
<path d="M0.698 0.564 Q0.346 0.731 0.594 0.939" stroke="hsl(0.0,100%,35%)" stroke-width="0.00067"></path>
<path d="M0.698 0.564 Q0.779 0.473 0.619 0.413" stroke="hsl(0.0,100%,35%)" stroke-width="0.00033"></path>
<path d="M0.698 0.564 Q0.333 0.783 0.680 1.008" stroke="hsl(0.0,100%,35%)" stroke-width="0.00067"></path>
<path d="M0.280 1.041 Q0.518 1.052 0.594 0.939" stroke="hsl(0.0,100%,35%)" stroke-width="0.00067"></path>
<path d="M0.280 1.041 Q0.506 1.104 0.680 1.008" stroke="hsl(0.0,100%,35%)" stroke-width="0.00033"></path>
<path d="M0.280 1.041 Q0.807 0.989 0.821 0.721" stroke="hsl(0.0,100%,35%)" stroke-width="0.00033"></path>
<path d="M0.280 1.041 Q1.430 0.705 1.027 0.070" stroke="hsl(0.0,100%,35%)" stroke-width="0.00033"></path>
<path d="M0.280 1.041 Q0.952 0.794 0.619 0.413" stroke="hsl(0.0,100%,35%)" stroke-width="0.00033"></path>
<path d="M1.035 0.959 Q0.831 0.861 0.594 0.939" stroke="hsl(0.0,100%,35%)" stroke-width="0.00067"></path>
<path d="M1.035 0.959 Q1.742 0.513 1.027 0.070" stroke="hsl(0.0,100%,35%)" stroke-width="0.00033"></path>
<path d="M1.035 0.959 Q1.838 0.566 1.248 0.088" stroke="hsl(0.0,100%,35%)" stroke-width="0.00033"></path>
<path d="M1.035 0.959 Q1.265 0.603 0.619 0.413" stroke="hsl(0.0,100%,35%)" stroke-width="0.00033"></path>
<path d="M1.076 0.934 Q1.742 0.493 1.027 0.070" stroke="hsl(0.0,100%,35%)" stroke-width="0.00033"></path>
<path d="M1.076 0.934 Q0.831 0.840 0.594 0.939" stroke="hsl(0.0,100%,35%)" stroke-width="0.00100"></path>
<path d="M1.076 0.934 Q1.665 0.646 1.232 0.295" stroke="hsl(0.0,100%,35%)" stroke-width="0.00067"></path>
<path d="M0.285 0.968 Q1.374 0.668 1.027 0.070" stroke="hsl(0.0,100%,35%)" stroke-width="0.00067"></path>
<path d="M0.285 0.968 Q0.463 1.015 0.594 0.939" stroke="hsl(0.0,100%,35%)" stroke-width="0.02396"></path>
<path d="M0.285 0.968 Q0.517 0.943 0.518 0.824" stroke="hsl(0.0,100%,35%)" stroke-width="0.01298"></path>
<path d="M0.285 0.968 Q0.658 0.929 0.665 0.738" stroke="hsl(0.0,100%,35%)" stroke-width="0.00100"></path>
<path d="M0.285 0.968 Q1.280 1.108 1.771 0.653" stroke="hsl(0.0,100%,35%)" stroke-width="0.00133"></path>
<path d="M0.285 0.968 Q0.751 0.952 0.821 0.721" stroke="hsl(0.0,100%,35%)" stroke-width="0.00133"></path>
<path d="M0.285 0.968 Q0.450 1.067 0.680 1.008" stroke="hsl(0.0,100%,35%)" stroke-width="0.00133"></path>
<path d="M1.019 0.822 Q0.767 0.723 0.518 0.824" stroke="hsl(0.0,100%,35%)" stroke-width="0.00033"></path>
<path d="M1.019 0.822 Q0.713 0.795 0.594 0.939" stroke="hsl(0.0,100%,35%)" stroke-width="0.00133"></path>
<path d="M1.019 0.822 Q1.310 0.822 1.373 0.680" stroke="hsl(0.0,100%,35%)" stroke-width="0.00100"></path>
<path d="M0.578 0.208 Q0.937 0.537 1.658 0.434" stroke="hsl(0.0,100%,35%)" stroke-width="0.00067"></path>
<path d="M0.578 0.208 Q0.925 0.299 1.181 0.150" stroke="hsl(0.0,100%,35%)" stroke-width="0.00033"></path>
<path d="M0.578 0.208 Q0.702 0.170 0.655 0.100" stroke="hsl(0.0,100%,35%)" stroke-width="0.00067"></path>
<path d="M0.578 0.208 Q0.001 0.577 0.594 0.939" stroke="hsl(0.0,100%,35%)" stroke-width="0.00067"></path>
<path d="M1.373 0.403 Q1.185 0.375 1.090 0.461" stroke="hsl(0.0,100%,35%)" stroke-width="0.00033"></path>
<path d="M1.373 0.403 Q1.466 0.167 1.027 0.070" stroke="hsl(0.0,100%,35%)" stroke-width="0.00033"></path>
<path d="M1.373 0.403 Q1.256 0.108 0.655 0.100" stroke="hsl(0.0,100%,35%)" stroke-width="0.00033"></path>
<path d="M1.373 0.403 Q0.555 0.515 0.594 0.939" stroke="hsl(0.0,100%,35%)" stroke-width="0.00033"></path>
<path d="M0.620 0.679 Q0.687 0.740 0.821 0.721" stroke="hsl(0.0,100%,35%)" stroke-width="0.00033"></path>
<path d="M0.620 0.679 Q0.399 0.804 0.594 0.939" stroke="hsl(0.0,100%,35%)" stroke-width="0.00166"></path>
<path d="M0.620 0.679 Q0.387 0.856 0.680 1.008" stroke="hsl(0.0,100%,35%)" stroke-width="0.00033"></path>
<path d="M0.620 0.679 Q0.453 0.731 0.518 0.824" stroke="hsl(0.0,100%,35%)" stroke-width="0.00033"></path>
<path d="M0.620 0.679 Q1.311 0.456 1.027 0.070" stroke="hsl(0.0,100%,35%)" stroke-width="0.00033"></path>
<path d="M0.706 0.234 Q0.086 0.564 0.594 0.939" stroke="hsl(0.0,100%,35%)" stroke-width="0.00067"></path>
<path d="M0.706 0.234 Q0.787 0.157 0.655 0.100" stroke="hsl(0.0,100%,35%)" stroke-width="0.00133"></path>
<path d="M0.706 0.234 Q0.998 0.217 1.027 0.070" stroke="hsl(0.0,100%,35%)" stroke-width="0.00067"></path>
<path d="M0.643 0.662 Q0.397 0.791 0.594 0.939" stroke="hsl(0.0,100%,35%)" stroke-width="0.00333"></path>
<path d="M0.643 0.662 Q0.451 0.718 0.518 0.824" stroke="hsl(0.0,100%,35%)" stroke-width="0.00100"></path>
<path d="M0.643 0.662 Q0.831 0.533 0.619 0.413" stroke="hsl(0.0,100%,35%)" stroke-width="0.00033"></path>
<path d="M0.643 0.662 Q0.385 0.843 0.680 1.008" stroke="hsl(0.0,100%,35%)" stroke-width="0.00033"></path>
<path d="M0.643 0.662 Q0.685 0.727 0.821 0.721" stroke="hsl(0.0,100%,35%)" stroke-width="0.00033"></path>
<path d="M0.643 0.662 Q1.309 0.443 1.027 0.070" stroke="hsl(0.0,100%,35%)" stroke-width="0.00033"></path>
<path d="M1.218 0.073 Q1.125 0.034 1.027 0.070" stroke="hsl(0.0,100%,35%)" stroke-width="0.00499"></path>
<path d="M1.218 0.073 Q0.214 0.381 0.594 0.939" stroke="hsl(0.0,100%,35%)" stroke-width="0.00599"></path>
<path d="M1.218 0.073 Q0.647 0.123 0.619 0.413" stroke="hsl(0.0,100%,35%)" stroke-width="0.00067"></path>
<path d="M1.218 0.073 Q1.047 0.187 1.232 0.295" stroke="hsl(0.0,100%,35%)" stroke-width="0.00033"></path>
<path d="M0.373 0.857 Q0.418 0.942 0.594 0.939" stroke="hsl(0.0,100%,35%)" stroke-width="0.00133"></path>
<path d="M0.373 0.857 Q1.343 0.665 1.181 0.150" stroke="hsl(0.0,100%,35%)" stroke-width="0.00033"></path>
<path d="M0.373 0.857 Q0.472 0.870 0.518 0.824" stroke="hsl(0.0,100%,35%)" stroke-width="0.00033"></path>
<path d="M0.458 0.951 Q1.353 1.065 1.771 0.653" stroke="hsl(0.0,100%,35%)" stroke-width="0.00033"></path>
<path d="M0.458 0.951 Q0.536 0.972 0.594 0.939" stroke="hsl(0.0,100%,35%)" stroke-width="0.00133"></path>
<path d="M0.458 0.951 Q0.050 1.170 0.388 1.417" stroke="hsl(0.0,100%,35%)" stroke-width="0.00033"></path>
<path d="M0.458 0.951 Q0.969 0.714 0.619 0.413" stroke="hsl(0.0,100%,35%)" stroke-width="0.00033"></path>
<path d="M0.458 0.951 Q0.523 1.024 0.680 1.008" stroke="hsl(0.0,100%,35%)" stroke-width="0.00033"></path>
<path d="M0.910 0.762 Q0.898 0.723 0.821 0.721" stroke="hsl(0.0,100%,35%)" stroke-width="0.00100"></path>
<path d="M0.910 0.762 Q0.664 0.715 0.518 0.824" stroke="hsl(0.0,100%,35%)" stroke-width="0.00133"></path>
<path d="M0.910 0.762 Q1.534 0.510 1.181 0.150" stroke="hsl(0.0,100%,35%)" stroke-width="0.00067"></path>
<path d="M0.910 0.762 Q0.610 0.787 0.594 0.939" stroke="hsl(0.0,100%,35%)" stroke-width="0.00266"></path>
<path d="M0.910 0.762 Q1.207 0.813 1.373 0.680" stroke="hsl(0.0,100%,35%)" stroke-width="0.00100"></path>
<path d="M0.910 0.762 Q1.521 0.440 1.027 0.070" stroke="hsl(0.0,100%,35%)" stroke-width="0.00067"></path>
<path d="M0.910 0.762 Q1.428 0.879 1.771 0.653" stroke="hsl(0.0,100%,35%)" stroke-width="0.00033"></path>
<path d="M1.095 0.684 Q0.641 0.711 0.594 0.939" stroke="hsl(0.0,100%,35%)" stroke-width="0.00033"></path>
<path d="M1.095 0.684 Q1.197 0.653 1.159 0.596" stroke="hsl(0.0,100%,35%)" stroke-width="0.00033"></path>
<path d="M1.095 0.684 Q1.074 0.453 0.619 0.413" stroke="hsl(0.0,100%,35%)" stroke-width="0.00033"></path>
<path d="M0.851 0.843 Q0.646 0.840 0.594 0.939" stroke="hsl(0.0,100%,35%)" stroke-width="0.00233"></path>
<path d="M0.851 0.843 Q1.582 0.800 1.658 0.434" stroke="hsl(0.0,100%,35%)" stroke-width="0.00033"></path>
<path d="M0.851 0.843 Q0.934 0.776 0.821 0.721" stroke="hsl(0.0,100%,35%)" stroke-width="0.00100"></path>
<path d="M0.851 0.843 Q1.080 0.582 0.619 0.413" stroke="hsl(0.0,100%,35%)" stroke-width="0.00033"></path>
<path d="M0.851 0.843 Q1.558 0.492 1.027 0.070" stroke="hsl(0.0,100%,35%)" stroke-width="0.00033"></path>
<path d="M0.399 0.516 Q0.592 0.509 0.619 0.413" stroke="hsl(0.0,100%,35%)" stroke-width="0.00233"></path>
<path d="M0.399 0.516 Q1.094 0.727 1.658 0.434" stroke="hsl(0.0,100%,35%)" stroke-width="0.00033"></path>
<path d="M0.399 0.516 Q0.976 0.859 1.771 0.653" stroke="hsl(0.0,100%,35%)" stroke-width="0.00033"></path>
<path d="M0.399 0.516 Q0.158 0.767 0.594 0.939" stroke="hsl(0.0,100%,35%)" stroke-width="0.00100"></path>
<path d="M0.879 0.245 Q0.182 0.535 0.594 0.939" stroke="hsl(0.0,100%,35%)" stroke-width="0.00200"></path>
<path d="M0.879 0.245 Q1.093 0.188 1.027 0.070" stroke="hsl(0.0,100%,35%)" stroke-width="0.00067"></path>
<path d="M0.879 0.245 Q0.236 0.463 0.518 0.824" stroke="hsl(0.0,100%,35%)" stroke-width="0.00033"></path>
<path d="M0.463 1.051 Q0.672 0.948 0.518 0.824" stroke="hsl(0.0,100%,35%)" stroke-width="0.00033"></path>
<path d="M0.463 1.051 Q0.618 1.021 0.594 0.939" stroke="hsl(0.0,100%,35%)" stroke-width="0.00133"></path>
<path d="M0.463 1.051 Q1.530 0.673 1.027 0.070" stroke="hsl(0.0,100%,35%)" stroke-width="0.00067"></path>
<path d="M0.341 0.970 Q0.689 0.919 0.665 0.738" stroke="hsl(0.0,100%,35%)" stroke-width="0.00033"></path>
<path d="M0.341 0.970 Q0.493 1.005 0.594 0.939" stroke="hsl(0.0,100%,35%)" stroke-width="0.00499"></path>
<path d="M0.341 0.970 Q0.781 0.941 0.821 0.721" stroke="hsl(0.0,100%,35%)" stroke-width="0.00133"></path>
<path d="M0.341 0.970 Q0.926 0.747 0.619 0.413" stroke="hsl(0.0,100%,35%)" stroke-width="0.00133"></path>
<path d="M0.341 0.970 Q0.547 0.932 0.518 0.824" stroke="hsl(0.0,100%,35%)" stroke-width="0.00100"></path>
<path d="M0.341 0.970 Q1.311 1.097 1.771 0.653" stroke="hsl(0.0,100%,35%)" stroke-width="0.00033"></path>
<path d="M0.341 0.970 Q1.404 0.658 1.027 0.070" stroke="hsl(0.0,100%,35%)" stroke-width="0.00166"></path>
<path d="M0.341 0.970 Q1.090 1.031 1.373 0.680" stroke="hsl(0.0,100%,35%)" stroke-width="0.00033"></path>
</g>
<text x="1.232" y="0.278" font-size="0.033750" fill="hsl(0.0,100%,20%)">a.annestrand</text>
<text x="1.027" y="0.040" font-size="0.061820" fill="hsl(0.0,100%,20%)">geofflang</text>
<text x="0.594" y="0.890" font-size="0.098775" fill="hsl(0.0,100%,20%)">syoussefi</text>
<text x="1.373" y="0.658" font-size="0.043571" fill="hsl(0.0,100%,20%)">cnorthrop</text>
<text x="0.518" y="0.792" font-size="0.063597" fill="hsl(0.0,100%,20%)">cclao</text>
<text x="0.619" y="0.396" font-size="0.034476" fill="hsl(0.0,100%,20%)">ynovikov</text>
<text x="0.811" y="0.744" font-size="0.030132" fill="hsl(0.0,100%,20%)">g.tammana</text>
<text x="0.838" y="1.095" font-size="0.014075" fill="hsl(0.0,100%,20%)">a.dean1</text>
<text x="1.771" y="0.630" font-size="0.046237" fill="hsl(0.0,100%,20%)">romanl</text>
<text x="0.821" y="0.696" font-size="0.048246" fill="hsl(0.0,100%,20%)">abdolrashidi</text>
<text x="0.392" y="0.714" font-size="0.009529" fill="hsl(0.0,100%,20%)">zzyiwei</text>
<text x="0.680" y="0.986" font-size="0.045244" fill="hsl(0.0,100%,20%)">yuxinhu</text>
<text x="0.665" y="0.722" font-size="0.032121" fill="hsl(0.0,100%,20%)">m.maiya</text>
<text x="0.966" y="0.934" font-size="0.009952" fill="hsl(0.0,100%,20%)">aurora.zhang</text>
<text x="0.918" y="0.825" font-size="0.002873" fill="hsl(0.0,100%,20%)">gregschlom</text>
<text x="0.753" y="0.958" font-size="0.002873" fill="hsl(0.0,100%,20%)">slumpwuffle</text>
<text x="1.904" y="0.407" font-size="0.015736" fill="hsl(0.0,100%,20%)">chris</text>
<text x="1.658" y="0.423" font-size="0.022068" fill="hsl(0.0,100%,20%)">kbr</text>
<text x="1.181" y="0.129" font-size="0.041035" fill="hsl(0.0,100%,20%)">lexa.knyazev</text>
<text x="1.548" y="0.765" font-size="0.023341" fill="hsl(0.0,100%,20%)">mark</text>
<text x="1.324" y="0.833" font-size="0.002873" fill="hsl(0.0,100%,20%)">mikes</text>
<text x="0.495" y="0.841" font-size="0.014650" fill="hsl(0.0,100%,20%)">solti</text>
<text x="0.373" y="0.284" font-size="0.006424" fill="hsl(0.0,100%,20%)">dextero</text>
<text x="1.873" y="0.279" font-size="0.007601" fill="hsl(0.0,100%,20%)">djg</text>
<text x="0.533" y="0.057" font-size="0.018840" fill="hsl(0.0,100%,20%)">lehoangquyen</text>
<text x="0.737" y="1.386" font-size="0.004976" fill="hsl(0.0,100%,20%)">dloehr</text>
<text x="0.808" y="0.071" font-size="0.024378" fill="hsl(0.0,100%,20%)">liza</text>
<text x="1.248" y="0.076" font-size="0.025374" fill="hsl(0.0,100%,20%)">mpdenton</text>
<text x="1.494" y="0.023" font-size="0.002873" fill="hsl(0.0,100%,20%)">johnstiles</text>
<text x="0.879" y="0.099" font-size="0.004063" fill="hsl(0.0,100%,20%)">vasilyt</text>
<text x="0.840" y="0.099" font-size="0.004063" fill="hsl(0.0,100%,20%)">zmo</text>
<text x="1.110" y="0.244" font-size="0.002873" fill="hsl(0.0,100%,20%)">dsinclair</text>
<text x="1.090" y="0.459" font-size="0.004063" fill="hsl(0.0,100%,20%)">cwallez</text>
<text x="0.655" y="0.084" font-size="0.033381" fill="hsl(0.0,100%,20%)">kkinnunen</text>
<text x="1.222" y="0.016" font-size="0.004063" fill="hsl(0.0,100%,20%)">senorblanco</text>
<text x="0.698" y="0.559" font-size="0.009085" fill="hsl(0.0,100%,20%)">hailinzhang</text>
<text x="0.280" y="1.037" font-size="0.007037" fill="hsl(0.0,100%,20%)">hans</text>
<text x="1.035" y="0.956" font-size="0.006424" fill="hsl(0.0,100%,20%)">hocheung</text>
<text x="1.076" y="0.931" font-size="0.007037" fill="hsl(0.0,100%,20%)">hoonee.cho</text>
<text x="0.285" y="0.952" font-size="0.033008" fill="hsl(0.0,100%,20%)">i.nazarov</text>
<text x="1.019" y="0.818" font-size="0.008126" fill="hsl(0.0,100%,20%)">justonli</text>
<text x="0.578" y="0.204" font-size="0.007601" fill="hsl(0.0,100%,20%)">lerica</text>
<text x="1.373" y="0.400" font-size="0.005746" fill="hsl(0.0,100%,20%)">lichenliu</text>
<text x="0.878" y="0.847" font-size="0.002873" fill="hsl(0.0,100%,20%)">ianelliott</text>
<text x="1.762" y="0.809" font-size="0.004063" fill="hsl(0.0,100%,20%)">hibrian</text>
<text x="0.620" y="0.675" font-size="0.008619" fill="hsl(0.0,100%,20%)">mavis.deng</text>
<text x="0.706" y="0.230" font-size="0.008126" fill="hsl(0.0,100%,20%)">mscott</text>
<text x="0.643" y="0.656" font-size="0.011846" fill="hsl(0.0,100%,20%)">neil.zhang</text>
<text x="1.218" y="0.065" font-size="0.017238" fill="hsl(0.0,100%,20%)">r.khurram</text>
<text x="0.373" y="0.854" font-size="0.007037" fill="hsl(0.0,100%,20%)">robic.sun</text>
<text x="1.932" y="0.763" font-size="0.002873" fill="hsl(0.0,100%,20%)">egdaniel</text>
<text x="0.458" y="0.947" font-size="0.008126" fill="hsl(0.0,100%,20%)">rop</text>
<text x="0.388" y="1.416" font-size="0.002873" fill="hsl(0.0,100%,20%)">qjw</text>
<text x="0.910" y="0.755" font-size="0.013779" fill="hsl(0.0,100%,20%)">shufen.ma</text>
<text x="1.095" y="0.682" font-size="0.004976" fill="hsl(0.0,100%,20%)">sokcevic</text>
<text x="1.159" y="0.595" font-size="0.002873" fill="hsl(0.0,100%,20%)">jwata</text>
<text x="0.851" y="0.838" font-size="0.010750" fill="hsl(0.0,100%,20%)">steven</text>
<text x="0.356" y="0.946" font-size="0.004063" fill="hsl(0.0,100%,20%)">natsu</text>
<text x="0.399" y="0.511" font-size="0.009952" fill="hsl(0.0,100%,20%)">tikuta</text>
<text x="0.879" y="0.241" font-size="0.008619" fill="hsl(0.0,100%,20%)">xin.yuan</text>
<text x="0.463" y="1.047" font-size="0.007601" fill="hsl(0.0,100%,20%)">xinyu.fang</text>
<text x="0.082" y="0.316" font-size="0.010359" fill="hsl(0.0,100%,20%)">bsheedy</text>
<text x="0.341" y="0.962" font-size="0.016752" fill="hsl(0.0,100%,20%)">yuxiang.qian</text>
<text x="0.292" y="-4.038" font-size="0.002873" fill="hsl(0.0,100%,20%)">zijunzhao</text>
<text x="0.072" y="0.758" font-size="0.002873" fill="hsl(0.0,100%,20%)">lepton</text>
</svg>
