<svg width="4000" height="2000" viewBox="-0.025 -0.025 2.05 1.05" xmlns="http://www.w3.org/2000/svg">
  <style>
    path {
      fill: none;
      stroke-linecap: round;
      stroke-opacity: 0.4;
    }

    text {
      text-anchor: middle;
      alignment-baseline: hanging;
    }
  </style>
  <g opacity="0.4">
<path d="M0.755 0.545 Q0.921 0.500 0.870 0.409" stroke="hsl(0.0,100%,35%)" stroke-width="0.03000"></path>
<path d="M0.755 0.545 Q0.937 0.422 0.736 0.307" stroke="hsl(0.0,100%,35%)" stroke-width="0.03750"></path>
<path d="M0.755 0.545 Q0.922 0.688 1.236 0.638" stroke="hsl(0.0,100%,35%)" stroke-width="0.00750"></path>
<path d="M0.736 0.307 Q0.555 0.430 0.755 0.545" stroke="hsl(0.0,100%,35%)" stroke-width="0.03000"></path>
<path d="M0.736 0.307 Q0.426 0.319 0.382 0.473" stroke="hsl(0.0,100%,35%)" stroke-width="0.01500"></path>
<path d="M0.736 0.307 Q0.847 0.782 1.800 0.832" stroke="hsl(0.0,100%,35%)" stroke-width="0.00750"></path>
<path d="M1.800 0.832 Q1.886 0.714 1.674 0.645" stroke="hsl(0.0,100%,35%)" stroke-width="0.03750"></path>
<path d="M1.800 0.832 Q1.379 0.369 0.382 0.473" stroke="hsl(0.0,100%,35%)" stroke-width="0.00750"></path>
<path d="M1.800 0.832 Q1.689 0.357 0.736 0.307" stroke="hsl(0.0,100%,35%)" stroke-width="0.03000"></path>
<path d="M1.800 0.832 Q1.507 0.480 0.755 0.545" stroke="hsl(0.0,100%,35%)" stroke-width="0.00750"></path>
<path d="M1.800 0.832 Q1.596 0.695 1.283 0.763" stroke="hsl(0.0,100%,35%)" stroke-width="0.00750"></path>
<path d="M0.382 0.473 Q0.692 0.461 0.736 0.307" stroke="hsl(0.0,100%,35%)" stroke-width="0.01500"></path>
<path d="M0.382 0.473 Q0.599 0.798 1.283 0.763" stroke="hsl(0.0,100%,35%)" stroke-width="0.00750"></path>
<path d="M0.382 0.473 Q0.511 0.584 0.755 0.545" stroke="hsl(0.0,100%,35%)" stroke-width="0.00750"></path>
<path d="M1.283 0.763 Q1.486 0.901 1.800 0.832" stroke="hsl(0.0,100%,35%)" stroke-width="0.00750"></path>
<path d="M1.283 0.763 Q1.194 0.549 0.755 0.545" stroke="hsl(0.0,100%,35%)" stroke-width="0.00750"></path>
<path d="M1.283 0.763 Q1.375 0.426 0.736 0.307" stroke="hsl(0.0,100%,35%)" stroke-width="0.00750"></path>
<path d="M1.541 0.222 Q0.890 0.226 0.755 0.545" stroke="hsl(0.0,100%,35%)" stroke-width="0.00750"></path>
<path d="M1.541 0.222 Q1.071 0.103 0.736 0.307" stroke="hsl(0.0,100%,35%)" stroke-width="0.01500"></path>
<path d="M1.541 0.222 Q1.056 0.181 0.870 0.409" stroke="hsl(0.0,100%,35%)" stroke-width="0.00750"></path>
</g>
<text x="0.755" y="0.498" font-size="0.094868" fill="hsl(0.0,100%,20%)">cclao</text>
<text x="0.870" y="0.384" font-size="0.050000" fill="hsl(0.0,100%,20%)">abdolrashidi</text>
<text x="0.736" y="0.255" font-size="0.102470" fill="hsl(0.0,100%,20%)">syoussefi</text>
<text x="1.236" y="0.627" font-size="0.022361" fill="hsl(0.0,100%,20%)">geofflang</text>
<text x="1.800" y="0.791" font-size="0.083666" fill="hsl(0.0,100%,20%)">cnorthrop</text>
<text x="1.674" y="0.620" font-size="0.050000" fill="hsl(0.0,100%,20%)">mark</text>
<text x="0.382" y="0.443" font-size="0.059161" fill="hsl(0.0,100%,20%)">yuxinhu</text>
<text x="1.283" y="0.738" font-size="0.050000" fill="hsl(0.0,100%,20%)">xwxw</text>
<text x="1.541" y="0.200" font-size="0.044721" fill="hsl(0.0,100%,20%)">m.maiya</text>
</svg>
