<svg width="4000" height="2000" viewBox="-0.025 -0.025 2.05 1.05" xmlns="http://www.w3.org/2000/svg">
  <style>
    path {
      fill: none;
      stroke-linecap: round;
      stroke-opacity: 0.4;
    }

    text {
      text-anchor: middle;
      alignment-baseline: hanging;
    }
  </style>
  <g opacity="0.4">
<path d="M1.558 0.215 Q0.532 0.390 0.649 0.928" stroke="hsl(0.0,100%,35%)" stroke-width="0.01658"></path>
<path d="M1.558 0.215 Q1.443 0.125 1.243 0.162" stroke="hsl(0.0,100%,35%)" stroke-width="0.01658"></path>
<path d="M1.558 0.215 Q1.380 0.219 1.350 0.307" stroke="hsl(0.0,100%,35%)" stroke-width="0.03317"></path>
<path d="M1.558 0.215 Q0.740 0.256 0.641 0.664" stroke="hsl(0.0,100%,35%)" stroke-width="0.01658"></path>
<path d="M1.661 0.483 Q1.824 0.328 1.558 0.215" stroke="hsl(0.0,100%,35%)" stroke-width="0.01658"></path>
<path d="M1.661 0.483 Q0.798 0.503 0.649 0.928" stroke="hsl(0.0,100%,35%)" stroke-width="0.01658"></path>
<path d="M1.661 0.483 Q1.006 0.369 0.641 0.664" stroke="hsl(0.0,100%,35%)" stroke-width="0.01658"></path>
<path d="M1.013 0.134 Q1.221 0.283 1.558 0.215" stroke="hsl(0.0,100%,35%)" stroke-width="0.01658"></path>
<path d="M1.013 0.134 Q0.751 0.105 0.636 0.227" stroke="hsl(0.0,100%,35%)" stroke-width="0.01658"></path>
<path d="M1.013 0.134 Q0.403 0.325 0.641 0.664" stroke="hsl(0.0,100%,35%)" stroke-width="0.01658"></path>
<path d="M1.225 0.710 Q1.673 0.440 1.243 0.162" stroke="hsl(180.0,100%,35%)" stroke-width="0.03317"></path>
<path d="M1.225 0.710 Q1.120 0.833 1.337 0.912" stroke="hsl(180.0,100%,35%)" stroke-width="0.03317"></path>
<path d="M1.225 0.710 Q0.762 0.704 0.649 0.928" stroke="hsl(180.0,100%,35%)" stroke-width="0.03317"></path>
<path d="M1.225 0.710 Q1.610 0.533 1.350 0.307" stroke="hsl(180.0,100%,35%)" stroke-width="0.03317"></path>
<path d="M1.225 0.710 Q1.088 0.669 0.978 0.727" stroke="hsl(180.0,100%,35%)" stroke-width="0.01658"></path>
</g>
<text x="1.558" y="0.173" font-size="0.083666" fill="hsl(0.0,100%,20%)">cclao</text>
<text x="0.649" y="0.897" font-size="0.063246" fill="hsl(180.0,100%,20%)">cnorthrop</text>
<text x="1.243" y="0.134" font-size="0.054772" fill="hsl(180.0,100%,20%)">geofflang</text>
<text x="1.350" y="0.275" font-size="0.063246" fill="hsl(0.0,100%,20%)">abdolrashidi</text>
<text x="0.641" y="0.637" font-size="0.054772" fill="hsl(0.0,100%,20%)">syoussefi</text>
<text x="1.661" y="0.455" font-size="0.054772" fill="hsl(0.0,100%,20%)">neil.zhang</text>
<text x="1.013" y="0.107" font-size="0.054772" fill="hsl(0.0,100%,20%)">shufen.ma</text>
<text x="0.636" y="0.211" font-size="0.031623" fill="hsl(0.0,100%,20%)">lexa.knyazev</text>
<text x="1.225" y="0.663" font-size="0.094868" fill="hsl(180.0,100%,20%)">timvp</text>
<text x="1.337" y="0.889" font-size="0.044721" fill="hsl(180.0,100%,20%)">yuxinhu</text>
<text x="0.978" y="0.711" font-size="0.031623" fill="hsl(180.0,100%,20%)">m.maiya</text>
</svg>
