<svg width="4000" height="2000" viewBox="-0.025 -0.025 2.05 1.05" xmlns="http://www.w3.org/2000/svg">
  <style>
    path {
      fill: none;
      stroke-linecap: round;
      stroke-opacity: 0.4;
    }

    text {
      text-anchor: middle;
      alignment-baseline: hanging;
    }
  </style>
  <g opacity="0.4">
<path d="M0.499 0.221 Q0.242 0.165 0.076 0.278" stroke="hsl(0.0,100%,35%)" stroke-width="0.01599"></path>
<path d="M0.499 0.221 Q0.357 0.125 0.138 0.174" stroke="hsl(0.0,100%,35%)" stroke-width="0.01839"></path>
<path d="M0.499 0.221 Q0.855 0.623 1.717 0.538" stroke="hsl(0.0,100%,35%)" stroke-width="0.00120"></path>
<path d="M0.499 0.221 Q0.793 0.691 1.774 0.651" stroke="hsl(0.0,100%,35%)" stroke-width="0.00040"></path>
<path d="M0.499 0.221 Q0.505 0.680 1.400 0.777" stroke="hsl(0.0,100%,35%)" stroke-width="0.00160"></path>
<path d="M0.499 0.221 Q0.348 0.259 0.389 0.341" stroke="hsl(0.0,100%,35%)" stroke-width="0.00080"></path>
<path d="M0.076 0.278 Q0.190 0.238 0.138 0.174" stroke="hsl(0.0,100%,35%)" stroke-width="0.04437"></path>
<path d="M0.076 0.278 Q0.333 0.334 0.499 0.221" stroke="hsl(0.0,100%,35%)" stroke-width="0.00679"></path>
<path d="M0.076 0.278 Q0.044 0.320 0.120 0.345" stroke="hsl(0.0,100%,35%)" stroke-width="0.00040"></path>
<path d="M0.076 0.278 Q-0.019 0.331 0.065 0.389" stroke="hsl(0.0,100%,35%)" stroke-width="0.00839"></path>
<path d="M0.076 0.278 Q0.182 0.372 0.389 0.341" stroke="hsl(0.0,100%,35%)" stroke-width="0.01079"></path>
<path d="M0.076 0.278 Q0.688 0.736 1.717 0.538" stroke="hsl(0.0,100%,35%)" stroke-width="0.01239"></path>
<path d="M0.076 0.278 Q0.094 0.364 0.266 0.374" stroke="hsl(0.0,100%,35%)" stroke-width="0.00160"></path>
<path d="M0.076 0.278 Q0.564 0.483 1.071 0.289" stroke="hsl(0.0,100%,35%)" stroke-width="0.00040"></path>
<path d="M0.076 0.278 Q-0.066 0.415 0.170 0.514" stroke="hsl(0.0,100%,35%)" stroke-width="0.00040"></path>
<path d="M0.076 0.278 Q0.756 0.502 1.343 0.219" stroke="hsl(0.0,100%,35%)" stroke-width="0.00040"></path>
<path d="M0.138 0.174 Q0.512 0.418 1.071 0.289" stroke="hsl(0.0,100%,35%)" stroke-width="0.03238"></path>
<path d="M0.138 0.174 Q0.636 0.672 1.717 0.538" stroke="hsl(0.0,100%,35%)" stroke-width="0.01479"></path>
<path d="M0.138 0.174 Q0.024 0.213 0.076 0.278" stroke="hsl(0.0,100%,35%)" stroke-width="0.04756"></path>
<path d="M0.138 0.174 Q0.130 0.308 0.389 0.341" stroke="hsl(0.0,100%,35%)" stroke-width="0.03118"></path>
<path d="M0.138 0.174 Q0.286 0.728 1.400 0.777" stroke="hsl(0.0,100%,35%)" stroke-width="0.00320"></path>
<path d="M0.138 0.174 Q0.464 0.686 1.536 0.639" stroke="hsl(0.0,100%,35%)" stroke-width="0.00440"></path>
<path d="M0.138 0.174 Q0.428 0.344 0.824 0.240" stroke="hsl(0.0,100%,35%)" stroke-width="0.00160"></path>
<path d="M0.138 0.174 Q-0.008 0.256 0.120 0.345" stroke="hsl(0.0,100%,35%)" stroke-width="0.00200"></path>
<path d="M0.138 0.174 Q0.280 0.270 0.499 0.221" stroke="hsl(0.0,100%,35%)" stroke-width="0.00280"></path>
<path d="M0.138 0.174 Q0.406 0.425 0.956 0.350" stroke="hsl(0.0,100%,35%)" stroke-width="0.00040"></path>
<path d="M0.138 0.174 Q0.274 0.417 0.779 0.404" stroke="hsl(0.0,100%,35%)" stroke-width="0.00080"></path>
<path d="M0.138 0.174 Q-0.118 0.350 0.170 0.514" stroke="hsl(0.0,100%,35%)" stroke-width="0.00679"></path>
<path d="M0.138 0.174 Q0.099 0.805 1.323 0.963" stroke="hsl(0.0,100%,35%)" stroke-width="0.00120"></path>
<path d="M0.138 0.174 Q0.678 0.743 1.907 0.604" stroke="hsl(0.0,100%,35%)" stroke-width="0.00080"></path>
<path d="M0.138 0.174 Q0.465 0.362 0.904 0.243" stroke="hsl(0.0,100%,35%)" stroke-width="0.00080"></path>
<path d="M0.138 0.174 Q0.235 0.218 0.342 0.180" stroke="hsl(0.0,100%,35%)" stroke-width="0.00040"></path>
<path d="M0.138 0.174 Q0.364 0.185 0.435 0.077" stroke="hsl(0.0,100%,35%)" stroke-width="0.00360"></path>
<path d="M0.138 0.174 Q0.124 0.318 0.403 0.357" stroke="hsl(0.0,100%,35%)" stroke-width="0.00040"></path>
<path d="M0.138 0.174 Q-0.071 0.267 0.065 0.389" stroke="hsl(0.0,100%,35%)" stroke-width="0.00040"></path>
<path d="M1.717 0.538 Q1.361 0.136 0.499 0.221" stroke="hsl(0.0,100%,35%)" stroke-width="0.01039"></path>
<path d="M1.717 0.538 Q1.367 0.594 1.400 0.777" stroke="hsl(0.0,100%,35%)" stroke-width="0.02918"></path>
<path d="M1.717 0.538 Q1.546 0.552 1.536 0.639" stroke="hsl(0.0,100%,35%)" stroke-width="0.00759"></path>
<path d="M1.717 0.538 Q1.219 0.040 0.138 0.174" stroke="hsl(0.0,100%,35%)" stroke-width="0.02278"></path>
<path d="M1.717 0.538 Q1.593 0.284 1.071 0.289" stroke="hsl(0.0,100%,35%)" stroke-width="0.00120"></path>
<path d="M1.717 0.538 Q1.105 0.080 0.076 0.278" stroke="hsl(0.0,100%,35%)" stroke-width="0.00320"></path>
<path d="M1.717 0.538 Q1.211 0.174 0.389 0.341" stroke="hsl(0.0,100%,35%)" stroke-width="0.00240"></path>
<path d="M1.717 0.538 Q1.598 0.454 1.408 0.494" stroke="hsl(0.0,100%,35%)" stroke-width="0.00040"></path>
<path d="M1.717 0.538 Q1.759 0.609 1.907 0.604" stroke="hsl(0.0,100%,35%)" stroke-width="0.00080"></path>
<path d="M1.717 0.538 Q1.445 0.051 0.435 0.077" stroke="hsl(0.0,100%,35%)" stroke-width="0.00040"></path>
<path d="M1.717 0.538 Q1.656 0.606 1.774 0.651" stroke="hsl(0.0,100%,35%)" stroke-width="0.00040"></path>
<path d="M1.400 0.777 Q1.341 0.899 1.565 0.954" stroke="hsl(0.0,100%,35%)" stroke-width="0.00120"></path>
<path d="M1.400 0.777 Q1.521 0.831 1.651 0.783" stroke="hsl(0.0,100%,35%)" stroke-width="0.00200"></path>
<path d="M1.400 0.777 Q1.576 0.903 1.861 0.845" stroke="hsl(0.0,100%,35%)" stroke-width="0.00080"></path>
<path d="M1.400 0.777 Q1.750 0.721 1.717 0.538" stroke="hsl(0.0,100%,35%)" stroke-width="0.01199"></path>
<path d="M1.400 0.777 Q1.252 0.223 0.138 0.174" stroke="hsl(0.0,100%,35%)" stroke-width="0.00400"></path>
<path d="M1.400 0.777 Q1.478 0.234 0.435 0.077" stroke="hsl(0.0,100%,35%)" stroke-width="0.00040"></path>
<path d="M1.400 0.777 Q1.138 0.263 0.076 0.278" stroke="hsl(0.0,100%,35%)" stroke-width="0.00200"></path>
<path d="M1.400 0.777 Q1.244 0.357 0.389 0.341" stroke="hsl(0.0,100%,35%)" stroke-width="0.00320"></path>
<path d="M1.400 0.777 Q1.578 0.735 1.536 0.639" stroke="hsl(0.0,100%,35%)" stroke-width="0.00160"></path>
<path d="M1.400 0.777 Q1.792 0.792 1.907 0.604" stroke="hsl(0.0,100%,35%)" stroke-width="0.00040"></path>
<path d="M1.400 0.777 Q1.213 0.855 1.323 0.963" stroke="hsl(0.0,100%,35%)" stroke-width="0.00080"></path>
<path d="M1.400 0.777 Q1.626 0.467 1.071 0.289" stroke="hsl(0.0,100%,35%)" stroke-width="0.00080"></path>
<path d="M1.400 0.777 Q1.298 0.253 0.253 0.188" stroke="hsl(0.0,100%,35%)" stroke-width="0.00040"></path>
<path d="M1.400 0.777 Q1.542 0.393 0.824 0.240" stroke="hsl(0.0,100%,35%)" stroke-width="0.00040"></path>
<path d="M1.400 0.777 Q1.394 0.319 0.499 0.221" stroke="hsl(0.0,100%,35%)" stroke-width="0.00120"></path>
<path d="M0.389 0.341 Q0.398 0.207 0.138 0.174" stroke="hsl(0.0,100%,35%)" stroke-width="0.01279"></path>
<path d="M0.389 0.341 Q0.540 0.303 0.499 0.221" stroke="hsl(0.0,100%,35%)" stroke-width="0.00160"></path>
<path d="M0.389 0.341 Q0.722 0.887 1.861 0.845" stroke="hsl(0.0,100%,35%)" stroke-width="0.00040"></path>
<path d="M0.389 0.341 Q0.724 0.719 1.536 0.639" stroke="hsl(0.0,100%,35%)" stroke-width="0.00200"></path>
<path d="M0.389 0.341 Q0.896 0.705 1.717 0.538" stroke="hsl(0.0,100%,35%)" stroke-width="0.00679"></path>
<path d="M0.389 0.341 Q0.283 0.247 0.076 0.278" stroke="hsl(0.0,100%,35%)" stroke-width="0.00280"></path>
<path d="M0.389 0.341 Q0.624 0.218 0.435 0.077" stroke="hsl(0.0,100%,35%)" stroke-width="0.00200"></path>
<path d="M0.389 0.341 Q0.834 0.773 1.774 0.651" stroke="hsl(0.0,100%,35%)" stroke-width="0.00040"></path>
<path d="M0.389 0.341 Q0.938 0.776 1.907 0.604" stroke="hsl(0.0,100%,35%)" stroke-width="0.00040"></path>
<path d="M0.389 0.341 Q0.546 0.761 1.400 0.777" stroke="hsl(0.0,100%,35%)" stroke-width="0.00160"></path>
<path d="M0.389 0.341 Q0.188 0.300 0.065 0.389" stroke="hsl(0.0,100%,35%)" stroke-width="0.00040"></path>
<path d="M0.389 0.341 Q0.359 0.839 1.323 0.963" stroke="hsl(0.0,100%,35%)" stroke-width="0.00040"></path>
<path d="M0.389 0.341 Q0.317 0.431 0.476 0.486" stroke="hsl(0.0,100%,35%)" stroke-width="0.00040"></path>
<path d="M0.901 0.034 Q0.734 0.463 1.536 0.639" stroke="hsl(0.0,100%,35%)" stroke-width="0.00040"></path>
<path d="M0.901 0.034 Q0.922 0.033 0.926 0.022" stroke="hsl(0.0,100%,35%)" stroke-width="0.00040"></path>
<path d="M0.901 0.034 Q0.407 -0.049 0.138 0.174" stroke="hsl(0.0,100%,35%)" stroke-width="0.00040"></path>
<path d="M1.536 0.639 Q1.707 0.625 1.717 0.538" stroke="hsl(0.0,100%,35%)" stroke-width="0.00679"></path>
<path d="M1.536 0.639 Q1.209 0.127 0.138 0.174" stroke="hsl(0.0,100%,35%)" stroke-width="0.00360"></path>
<path d="M1.536 0.639 Q1.357 0.681 1.400 0.777" stroke="hsl(0.0,100%,35%)" stroke-width="0.00040"></path>
<path d="M1.536 0.639 Q1.201 0.261 0.389 0.341" stroke="hsl(0.0,100%,35%)" stroke-width="0.00040"></path>
<path d="M1.536 0.639 Q1.420 0.604 1.327 0.653" stroke="hsl(0.0,100%,35%)" stroke-width="0.00240"></path>
<path d="M1.536 0.639 Q1.306 0.171 0.342 0.180" stroke="hsl(0.0,100%,35%)" stroke-width="0.00040"></path>
<path d="M1.536 0.639 Q1.583 0.371 1.071 0.289" stroke="hsl(0.0,100%,35%)" stroke-width="0.00360"></path>
<path d="M1.536 0.639 Q1.170 0.759 1.323 0.963" stroke="hsl(0.0,100%,35%)" stroke-width="0.00080"></path>
<path d="M1.536 0.639 Q1.500 0.297 0.824 0.240" stroke="hsl(0.0,100%,35%)" stroke-width="0.00040"></path>
<path d="M1.536 0.639 Q1.775 0.391 1.343 0.219" stroke="hsl(0.0,100%,35%)" stroke-width="0.00040"></path>
<path d="M1.536 0.639 Q1.665 0.411 1.248 0.298" stroke="hsl(0.0,100%,35%)" stroke-width="0.00040"></path>
<path d="M1.536 0.639 Q1.436 0.551 1.242 0.581" stroke="hsl(0.0,100%,35%)" stroke-width="0.00040"></path>
<path d="M1.322 0.728 Q1.500 0.726 1.536 0.639" stroke="hsl(0.0,100%,35%)" stroke-width="0.00040"></path>
<path d="M1.322 0.728 Q1.321 0.768 1.400 0.777" stroke="hsl(0.0,100%,35%)" stroke-width="0.00080"></path>
<path d="M1.322 0.728 Q1.671 0.712 1.717 0.538" stroke="hsl(0.0,100%,35%)" stroke-width="0.00040"></path>
<path d="M0.120 0.345 Q0.266 0.263 0.138 0.174" stroke="hsl(0.0,100%,35%)" stroke-width="0.01399"></path>
<path d="M0.120 0.345 Q0.640 0.507 1.071 0.289" stroke="hsl(0.0,100%,35%)" stroke-width="0.00040"></path>
<path d="M0.120 0.345 Q0.152 0.303 0.076 0.278" stroke="hsl(0.0,100%,35%)" stroke-width="0.00320"></path>
<path d="M0.120 0.345 Q0.764 0.761 1.717 0.538" stroke="hsl(0.0,100%,35%)" stroke-width="0.00040"></path>
<path d="M0.065 0.389 Q0.159 0.336 0.076 0.278" stroke="hsl(0.0,100%,35%)" stroke-width="0.00280"></path>
<path d="M0.065 0.389 Q0.422 0.850 1.400 0.777" stroke="hsl(0.0,100%,35%)" stroke-width="0.00080"></path>
<path d="M0.065 0.389 Q0.274 0.296 0.138 0.174" stroke="hsl(0.0,100%,35%)" stroke-width="0.00120"></path>
<path d="M0.266 0.374 Q0.248 0.288 0.076 0.278" stroke="hsl(0.0,100%,35%)" stroke-width="0.00520"></path>
<path d="M0.266 0.374 Q0.362 0.248 0.138 0.174" stroke="hsl(0.0,100%,35%)" stroke-width="0.00480"></path>
<path d="M0.266 0.374 Q0.504 0.344 0.499 0.221" stroke="hsl(0.0,100%,35%)" stroke-width="0.00160"></path>
<path d="M0.266 0.374 Q0.354 0.382 0.389 0.341" stroke="hsl(0.0,100%,35%)" stroke-width="0.00040"></path>
<path d="M1.071 0.289 Q0.697 0.045 0.138 0.174" stroke="hsl(0.0,100%,35%)" stroke-width="0.02158"></path>
<path d="M1.071 0.289 Q0.987 0.215 0.824 0.240" stroke="hsl(0.0,100%,35%)" stroke-width="0.00600"></path>
<path d="M1.071 0.289 Q1.024 0.233 0.904 0.243" stroke="hsl(0.0,100%,35%)" stroke-width="0.00360"></path>
<path d="M1.071 0.289 Q0.833 0.288 0.779 0.404" stroke="hsl(0.0,100%,35%)" stroke-width="0.00080"></path>
<path d="M1.071 0.289 Q0.583 0.085 0.076 0.278" stroke="hsl(0.0,100%,35%)" stroke-width="0.00040"></path>
<path d="M1.071 0.289 Q1.023 0.557 1.536 0.639" stroke="hsl(0.0,100%,35%)" stroke-width="0.00360"></path>
<path d="M1.071 0.289 Q1.251 0.103 0.927 -0.026" stroke="hsl(0.0,100%,35%)" stroke-width="0.00040"></path>
<path d="M1.071 0.289 Q1.195 0.543 1.717 0.538" stroke="hsl(0.0,100%,35%)" stroke-width="0.00080"></path>
<path d="M1.071 0.289 Q0.689 0.179 0.389 0.341" stroke="hsl(0.0,100%,35%)" stroke-width="0.00160"></path>
<path d="M1.071 0.289 Q0.845 0.599 1.400 0.777" stroke="hsl(0.0,100%,35%)" stroke-width="0.00080"></path>
<path d="M1.071 0.289 Q0.930 0.331 0.980 0.409" stroke="hsl(0.0,100%,35%)" stroke-width="0.00080"></path>
<path d="M1.071 0.289 Q0.794 0.089 0.342 0.180" stroke="hsl(0.0,100%,35%)" stroke-width="0.00040"></path>
<path d="M1.071 0.289 Q1.263 0.309 1.343 0.219" stroke="hsl(0.0,100%,35%)" stroke-width="0.00200"></path>
<path d="M1.071 0.289 Q0.965 0.297 0.956 0.350" stroke="hsl(0.0,100%,35%)" stroke-width="0.00600"></path>
<path d="M1.071 0.289 Q1.117 0.332 1.210 0.319" stroke="hsl(0.0,100%,35%)" stroke-width="0.00040"></path>
<path d="M1.071 0.289 Q0.835 0.197 0.603 0.291" stroke="hsl(0.0,100%,35%)" stroke-width="0.00120"></path>
<path d="M1.071 0.289 Q0.824 0.189 0.574 0.287" stroke="hsl(0.0,100%,35%)" stroke-width="0.00040"></path>
<path d="M1.071 0.289 Q0.551 0.536 0.919 0.844" stroke="hsl(0.0,100%,35%)" stroke-width="0.00080"></path>
<path d="M1.071 0.289 Q1.237 0.614 1.907 0.604" stroke="hsl(0.0,100%,35%)" stroke-width="0.00040"></path>
<path d="M1.071 0.289 Q0.908 0.351 0.992 0.444" stroke="hsl(0.0,100%,35%)" stroke-width="0.00040"></path>
<path d="M0.170 0.514 Q0.312 0.377 0.076 0.278" stroke="hsl(0.0,100%,35%)" stroke-width="0.02278"></path>
<path d="M0.170 0.514 Q0.426 0.337 0.138 0.174" stroke="hsl(0.0,100%,35%)" stroke-width="0.03078"></path>
<path d="M0.170 0.514 Q0.800 0.582 1.071 0.289" stroke="hsl(0.0,100%,35%)" stroke-width="0.00240"></path>
<path d="M1.343 0.219 Q1.151 0.200 1.071 0.289" stroke="hsl(0.0,100%,35%)" stroke-width="0.00120"></path>
<path d="M1.343 0.219 Q1.067 0.126 0.824 0.240" stroke="hsl(0.0,100%,35%)" stroke-width="0.00080"></path>
<path d="M1.343 0.219 Q0.777 -0.044 0.138 0.174" stroke="hsl(0.0,100%,35%)" stroke-width="0.00080"></path>
<path d="M0.976 0.065 Q0.761 0.122 0.824 0.240" stroke="hsl(0.0,100%,35%)" stroke-width="0.00320"></path>
<path d="M0.976 0.065 Q0.470 -0.048 0.138 0.174" stroke="hsl(0.0,100%,35%)" stroke-width="0.00240"></path>
<path d="M0.976 0.065 Q0.844 0.196 1.071 0.289" stroke="hsl(0.0,100%,35%)" stroke-width="0.00080"></path>
<path d="M0.824 0.240 Q0.534 0.069 0.138 0.174" stroke="hsl(0.0,100%,35%)" stroke-width="0.00160"></path>
<path d="M0.824 0.240 Q0.908 0.314 1.071 0.289" stroke="hsl(0.0,100%,35%)" stroke-width="0.00360"></path>
<path d="M0.824 0.240 Q1.100 0.333 1.343 0.219" stroke="hsl(0.0,100%,35%)" stroke-width="0.00040"></path>
<path d="M0.824 0.240 Q0.420 0.109 0.076 0.278" stroke="hsl(0.0,100%,35%)" stroke-width="0.00040"></path>
<path d="M1.565 0.954 Q1.624 0.833 1.400 0.777" stroke="hsl(0.0,100%,35%)" stroke-width="0.00999"></path>
<path d="M1.565 0.954 Q1.476 0.279 0.138 0.174" stroke="hsl(0.0,100%,35%)" stroke-width="0.00240"></path>
<path d="M1.565 0.954 Q1.974 0.777 1.717 0.538" stroke="hsl(0.0,100%,35%)" stroke-width="0.00200"></path>
<path d="M1.565 0.954 Q1.437 0.911 1.323 0.963" stroke="hsl(0.0,100%,35%)" stroke-width="0.00160"></path>
<path d="M1.565 0.954 Q1.468 0.413 0.389 0.341" stroke="hsl(0.0,100%,35%)" stroke-width="0.00080"></path>
<path d="M1.565 0.954 Q1.330 0.361 0.120 0.345" stroke="hsl(0.0,100%,35%)" stroke-width="0.00040"></path>
<path d="M1.651 0.783 Q1.531 0.730 1.400 0.777" stroke="hsl(0.0,100%,35%)" stroke-width="0.00560"></path>
<path d="M1.651 0.783 Q1.880 0.674 1.717 0.538" stroke="hsl(0.0,100%,35%)" stroke-width="0.00040"></path>
<path d="M1.651 0.783 Q1.709 0.688 1.536 0.639" stroke="hsl(0.0,100%,35%)" stroke-width="0.00040"></path>
<path d="M1.651 0.783 Q1.382 0.176 0.138 0.174" stroke="hsl(0.0,100%,35%)" stroke-width="0.00080"></path>
<path d="M1.651 0.783 Q1.343 0.808 1.323 0.963" stroke="hsl(0.0,100%,35%)" stroke-width="0.00040"></path>
<path d="M1.651 0.783 Q1.268 0.216 0.076 0.278" stroke="hsl(0.0,100%,35%)" stroke-width="0.00040"></path>
<path d="M1.861 0.845 Q1.685 0.719 1.400 0.777" stroke="hsl(0.0,100%,35%)" stroke-width="0.00160"></path>
<path d="M1.861 0.845 Q1.528 0.299 0.389 0.341" stroke="hsl(0.0,100%,35%)" stroke-width="0.00120"></path>
<path d="M1.861 0.845 Q2.076 0.734 1.907 0.604" stroke="hsl(0.0,100%,35%)" stroke-width="0.00040"></path>
<path d="M0.435 0.077 Q0.210 0.066 0.138 0.174" stroke="hsl(0.0,100%,35%)" stroke-width="0.00520"></path>
<path d="M0.435 0.077 Q0.095 0.105 0.076 0.278" stroke="hsl(0.0,100%,35%)" stroke-width="0.00080"></path>
<path d="M0.435 0.077 Q0.358 0.620 1.400 0.777" stroke="hsl(0.0,100%,35%)" stroke-width="0.00080"></path>
<path d="M0.435 0.077 Q0.201 0.200 0.389 0.341" stroke="hsl(0.0,100%,35%)" stroke-width="0.00080"></path>
<path d="M0.435 0.077 Q0.414 0.056 0.369 0.062" stroke="hsl(0.0,100%,35%)" stroke-width="0.00040"></path>
<path d="M1.907 0.604 Q1.359 0.169 0.389 0.341" stroke="hsl(0.0,100%,35%)" stroke-width="0.00120"></path>
<path d="M1.907 0.604 Q1.693 0.547 1.536 0.639" stroke="hsl(0.0,100%,35%)" stroke-width="0.00040"></path>
<path d="M1.907 0.604 Q1.367 0.035 0.138 0.174" stroke="hsl(0.0,100%,35%)" stroke-width="0.00080"></path>
<path d="M1.907 0.604 Q1.515 0.589 1.400 0.777" stroke="hsl(0.0,100%,35%)" stroke-width="0.00040"></path>
<path d="M0.253 0.188 Q0.111 0.284 0.266 0.374" stroke="hsl(0.0,100%,35%)" stroke-width="0.00040"></path>
<path d="M0.253 0.188 Q0.207 0.158 0.138 0.174" stroke="hsl(0.0,100%,35%)" stroke-width="0.00080"></path>
<path d="M0.253 0.188 Q0.092 0.197 0.076 0.278" stroke="hsl(0.0,100%,35%)" stroke-width="0.00040"></path>
<path d="M1.100 0.087 Q0.818 0.190 0.956 0.350" stroke="hsl(0.0,100%,35%)" stroke-width="0.00040"></path>
<path d="M1.100 0.087 Q0.876 0.450 1.536 0.639" stroke="hsl(0.0,100%,35%)" stroke-width="0.00040"></path>
<path d="M1.100 0.087 Q0.840 0.108 0.824 0.240" stroke="hsl(0.0,100%,35%)" stroke-width="0.00120"></path>
<path d="M1.100 0.087 Q0.550 -0.062 0.138 0.174" stroke="hsl(0.0,100%,35%)" stroke-width="0.00040"></path>
<path d="M1.100 0.087 Q1.074 0.117 1.127 0.136" stroke="hsl(0.0,100%,35%)" stroke-width="0.00040"></path>
<path d="M0.956 0.350 Q1.062 0.342 1.071 0.289" stroke="hsl(0.0,100%,35%)" stroke-width="0.00280"></path>
<path d="M0.956 0.350 Q0.979 0.268 0.824 0.240" stroke="hsl(0.0,100%,35%)" stroke-width="0.00240"></path>
<path d="M0.956 0.350 Q1.213 0.277 1.127 0.136" stroke="hsl(0.0,100%,35%)" stroke-width="0.00040"></path>
<path d="M0.992 0.444 Q1.072 0.308 0.824 0.240" stroke="hsl(0.0,100%,35%)" stroke-width="0.00040"></path>
<path d="M0.992 0.444 Q0.781 0.138 0.138 0.174" stroke="hsl(0.0,100%,35%)" stroke-width="0.00040"></path>
<path d="M0.992 0.444 Q1.155 0.382 1.071 0.289" stroke="hsl(0.0,100%,35%)" stroke-width="0.00080"></path>
<path d="M0.779 0.404 Q0.643 0.161 0.138 0.174" stroke="hsl(0.0,100%,35%)" stroke-width="0.02678"></path>
<path d="M0.779 0.404 Q0.933 0.331 0.824 0.240" stroke="hsl(0.0,100%,35%)" stroke-width="0.01079"></path>
<path d="M0.779 0.404 Q1.006 0.238 0.731 0.090" stroke="hsl(0.0,100%,35%)" stroke-width="0.00120"></path>
<path d="M0.779 0.404 Q1.017 0.405 1.071 0.289" stroke="hsl(0.0,100%,35%)" stroke-width="0.02438"></path>
<path d="M0.779 0.404 Q0.911 0.412 0.956 0.350" stroke="hsl(0.0,100%,35%)" stroke-width="0.00160"></path>
<path d="M0.779 0.404 Q0.969 0.673 1.536 0.639" stroke="hsl(0.0,100%,35%)" stroke-width="0.00040"></path>
<path d="M0.779 0.404 Q0.620 0.443 0.662 0.529" stroke="hsl(0.0,100%,35%)" stroke-width="0.00200"></path>
<path d="M0.779 0.404 Q0.635 0.295 0.389 0.341" stroke="hsl(0.0,100%,35%)" stroke-width="0.00080"></path>
<path d="M0.779 0.404 Q0.441 0.426 0.409 0.596" stroke="hsl(0.0,100%,35%)" stroke-width="0.00040"></path>
<path d="M0.342 0.180 Q0.245 0.136 0.138 0.174" stroke="hsl(0.0,100%,35%)" stroke-width="0.01039"></path>
<path d="M0.342 0.180 Q0.619 0.380 1.071 0.289" stroke="hsl(0.0,100%,35%)" stroke-width="0.00320"></path>
<path d="M0.342 0.180 Q0.131 0.176 0.076 0.278" stroke="hsl(0.0,100%,35%)" stroke-width="0.00200"></path>
<path d="M0.342 0.180 Q0.237 0.270 0.389 0.341" stroke="hsl(0.0,100%,35%)" stroke-width="0.00080"></path>
<path d="M0.342 0.180 Q0.743 0.634 1.717 0.538" stroke="hsl(0.0,100%,35%)" stroke-width="0.00040"></path>
<path d="M0.342 0.180 Q0.387 0.232 0.499 0.221" stroke="hsl(0.0,100%,35%)" stroke-width="0.00040"></path>
<path d="M0.342 0.180 Q0.571 0.648 1.536 0.639" stroke="hsl(0.0,100%,35%)" stroke-width="0.00080"></path>
<path d="M0.342 0.180 Q0.535 0.306 0.824 0.240" stroke="hsl(0.0,100%,35%)" stroke-width="0.00040"></path>
<path d="M0.574 0.287 Q0.447 0.143 0.138 0.174" stroke="hsl(0.0,100%,35%)" stroke-width="0.00080"></path>
<path d="M0.574 0.287 Q0.438 0.277 0.389 0.341" stroke="hsl(0.0,100%,35%)" stroke-width="0.00040"></path>
<path d="M0.574 0.287 Q0.820 0.388 1.071 0.289" stroke="hsl(0.0,100%,35%)" stroke-width="0.00200"></path>
<path d="M0.574 0.287 Q0.945 0.641 1.717 0.538" stroke="hsl(0.0,100%,35%)" stroke-width="0.00040"></path>
<path d="M1.524 0.861 Q1.529 0.794 1.400 0.777" stroke="hsl(0.0,100%,35%)" stroke-width="0.00200"></path>
<path d="M1.524 0.861 Q1.341 0.872 1.323 0.963" stroke="hsl(0.0,100%,35%)" stroke-width="0.00040"></path>
<path d="M1.524 0.861 Q1.778 0.827 1.769 0.696" stroke="hsl(0.0,100%,35%)" stroke-width="0.00040"></path>
<path d="M1.794 0.215 Q0.999 -0.137 0.138 0.174" stroke="hsl(0.0,100%,35%)" stroke-width="0.00080"></path>
<path d="M1.794 0.215 Q1.699 0.315 1.874 0.383" stroke="hsl(0.0,100%,35%)" stroke-width="0.00040"></path>
<path d="M1.794 0.215 Q0.884 -0.097 0.076 0.278" stroke="hsl(0.0,100%,35%)" stroke-width="0.00040"></path>
<path d="M1.794 0.215 Q1.147 0.417 1.400 0.777" stroke="hsl(0.0,100%,35%)" stroke-width="0.00040"></path>
<path d="M0.516 0.799 Q1.201 0.655 1.071 0.289" stroke="hsl(0.0,100%,35%)" stroke-width="0.00120"></path>
<path d="M0.516 0.799 Q0.681 0.902 0.919 0.844" stroke="hsl(0.0,100%,35%)" stroke-width="0.00120"></path>
<path d="M0.516 0.799 Q0.975 0.965 1.400 0.777" stroke="hsl(0.0,100%,35%)" stroke-width="0.00040"></path>
<path d="M1.119 0.516 Q1.276 0.393 1.071 0.289" stroke="hsl(0.0,100%,35%)" stroke-width="0.00080"></path>
<path d="M1.119 0.516 Q0.979 0.548 1.012 0.624" stroke="hsl(0.0,100%,35%)" stroke-width="0.00040"></path>
<path d="M1.119 0.516 Q0.903 0.149 0.138 0.174" stroke="hsl(0.0,100%,35%)" stroke-width="0.00080"></path>
<path d="M1.938 0.597 Q1.943 0.289 1.343 0.219" stroke="hsl(0.0,100%,35%)" stroke-width="0.00040"></path>
<path d="M1.938 0.597 Q1.369 0.159 0.389 0.341" stroke="hsl(0.0,100%,35%)" stroke-width="0.00040"></path>
<path d="M1.938 0.597 Q1.875 0.524 1.717 0.538" stroke="hsl(0.0,100%,35%)" stroke-width="0.00120"></path>
<path d="M1.938 0.597 Q1.703 0.538 1.536 0.639" stroke="hsl(0.0,100%,35%)" stroke-width="0.00040"></path>
<path d="M1.938 0.597 Q1.377 0.026 0.138 0.174" stroke="hsl(0.0,100%,35%)" stroke-width="0.00040"></path>
<path d="M0.731 0.090 Q0.658 0.184 0.824 0.240" stroke="hsl(0.0,100%,35%)" stroke-width="0.00600"></path>
<path d="M0.731 0.090 Q0.368 0.013 0.138 0.174" stroke="hsl(0.0,100%,35%)" stroke-width="0.00240"></path>
<path d="M0.731 0.090 Q0.504 0.257 0.779 0.404" stroke="hsl(0.0,100%,35%)" stroke-width="0.00040"></path>
<path d="M0.731 0.090 Q0.741 0.258 1.071 0.289" stroke="hsl(0.0,100%,35%)" stroke-width="0.00160"></path>
<path d="M0.731 0.090 Q0.918 0.162 1.100 0.087" stroke="hsl(0.0,100%,35%)" stroke-width="0.00280"></path>
<path d="M0.731 0.090 Q0.345 0.296 0.662 0.529" stroke="hsl(0.0,100%,35%)" stroke-width="0.00040"></path>
<path d="M1.618 0.376 Q1.040 -0.021 0.138 0.174" stroke="hsl(0.0,100%,35%)" stroke-width="0.00320"></path>
<path d="M1.618 0.376 Q1.538 0.477 1.717 0.538" stroke="hsl(0.0,100%,35%)" stroke-width="0.00040"></path>
<path d="M1.618 0.376 Q1.413 0.223 1.071 0.289" stroke="hsl(0.0,100%,35%)" stroke-width="0.00120"></path>
<path d="M1.618 0.376 Q1.671 0.320 1.574 0.282" stroke="hsl(0.0,100%,35%)" stroke-width="0.00080"></path>
<path d="M1.618 0.376 Q1.111 0.466 1.175 0.733" stroke="hsl(0.0,100%,35%)" stroke-width="0.00040"></path>
<path d="M1.175 0.733 Q1.096 0.380 0.389 0.341" stroke="hsl(0.0,100%,35%)" stroke-width="0.00040"></path>
<path d="M1.175 0.733 Q1.105 0.246 0.138 0.174" stroke="hsl(0.0,100%,35%)" stroke-width="0.00040"></path>
<path d="M1.175 0.733 Q1.431 0.758 1.536 0.639" stroke="hsl(0.0,100%,35%)" stroke-width="0.00080"></path>
<path d="M1.175 0.733 Q1.395 0.416 0.824 0.240" stroke="hsl(0.0,100%,35%)" stroke-width="0.00040"></path>
<path d="M0.739 0.040 Q0.705 0.231 1.071 0.289" stroke="hsl(0.0,100%,35%)" stroke-width="0.00040"></path>
<path d="M0.739 0.040 Q0.622 0.157 0.824 0.240" stroke="hsl(0.0,100%,35%)" stroke-width="0.00120"></path>
<path d="M0.739 0.040 Q0.695 0.064 0.731 0.090" stroke="hsl(0.0,100%,35%)" stroke-width="0.00040"></path>
<path d="M0.739 0.040 Q0.331 -0.013 0.138 0.174" stroke="hsl(0.0,100%,35%)" stroke-width="0.00040"></path>
<path d="M0.313 0.884 Q1.167 0.738 1.071 0.289" stroke="hsl(0.0,100%,35%)" stroke-width="0.00080"></path>
<path d="M0.313 0.884 Q0.794 0.494 0.138 0.174" stroke="hsl(0.0,100%,35%)" stroke-width="0.00240"></path>
<path d="M0.313 0.884 Q0.679 0.534 0.076 0.278" stroke="hsl(0.0,100%,35%)" stroke-width="0.00080"></path>
<path d="M1.248 0.298 Q1.083 0.184 0.824 0.240" stroke="hsl(0.0,100%,35%)" stroke-width="0.00120"></path>
<path d="M1.248 0.298 Q0.929 0.257 0.779 0.404" stroke="hsl(0.0,100%,35%)" stroke-width="0.00040"></path>
<path d="M1.248 0.298 Q1.166 0.258 1.071 0.289" stroke="hsl(0.0,100%,35%)" stroke-width="0.00160"></path>
</g>
<text x="0.499" y="0.201" font-size="0.040051" fill="hsl(0.0,100%,20%)">abdolrashidi</text>
<text x="0.076" y="0.242" font-size="0.070747" fill="hsl(0.0,100%,20%)">cclao</text>
<text x="0.138" y="0.123" font-size="0.100607" fill="hsl(0.0,100%,20%)">syoussefi</text>
<text x="1.717" y="0.508" font-size="0.059439" fill="hsl(0.0,100%,20%)">romanl</text>
<text x="1.774" y="0.648" font-size="0.005519" fill="hsl(0.0,100%,20%)">kaiyili</text>
<text x="1.400" y="0.753" font-size="0.048006" fill="hsl(0.0,100%,20%)">cnorthrop</text>
<text x="0.389" y="0.317" font-size="0.047688" fill="hsl(0.0,100%,20%)">yuxinhu</text>
<text x="0.901" y="0.031" font-size="0.005519" fill="hsl(0.0,100%,20%)">agrieve</text>
<text x="1.536" y="0.623" font-size="0.033266" fill="hsl(0.0,100%,20%)">ynovikov</text>
<text x="0.926" y="0.021" font-size="0.003186" fill="hsl(0.0,100%,20%)">smaier</text>
<text x="1.322" y="0.724" font-size="0.006373" fill="hsl(0.0,100%,20%)">banisingh</text>
<text x="0.120" y="0.333" font-size="0.022976" fill="hsl(0.0,100%,20%)">m.maiya</text>
<text x="0.065" y="0.380" font-size="0.018850" fill="hsl(0.0,100%,20%)">chrisforbes</text>
<text x="0.266" y="0.364" font-size="0.018850" fill="hsl(0.0,100%,20%)">hailinzhang</text>
<text x="1.071" y="0.260" font-size="0.059610" fill="hsl(0.0,100%,20%)">geofflang</text>
<text x="0.170" y="0.494" font-size="0.040051" fill="hsl(0.0,100%,20%)">i.nazarov</text>
<text x="1.343" y="0.213" font-size="0.012745" fill="hsl(0.0,100%,20%)">jonahr</text>
<text x="0.976" y="0.059" font-size="0.012745" fill="hsl(0.0,100%,20%)">chris</text>
<text x="0.824" y="0.223" font-size="0.032805" fill="hsl(0.0,100%,20%)">kbr</text>
<text x="1.565" y="0.943" font-size="0.021610" fill="hsl(0.0,100%,20%)">mark</text>
<text x="1.651" y="0.775" font-size="0.015931" fill="hsl(0.0,100%,20%)">mikes</text>
<text x="1.861" y="0.840" font-size="0.010568" fill="hsl(0.0,100%,20%)">lpy</text>
<text x="0.435" y="0.067" font-size="0.019118" fill="hsl(0.0,100%,20%)">zzyiwei</text>
<text x="1.907" y="0.598" font-size="0.012340" fill="hsl(0.0,100%,20%)">solti</text>
<text x="1.323" y="0.957" font-size="0.011922" fill="hsl(0.0,100%,20%)">ianelliott</text>
<text x="0.253" y="0.184" font-size="0.007125" fill="hsl(0.0,100%,20%)">gregschlom</text>
<text x="1.100" y="0.081" font-size="0.011922" fill="hsl(0.0,100%,20%)">djg</text>
<text x="0.956" y="0.340" font-size="0.018850" fill="hsl(0.0,100%,20%)">lehoangquyen</text>
<text x="1.127" y="0.134" font-size="0.004506" fill="hsl(0.0,100%,20%)">sunnyps</text>
<text x="0.992" y="0.440" font-size="0.007125" fill="hsl(0.0,100%,20%)">enga</text>
<text x="0.904" y="0.238" font-size="0.010568" fill="hsl(0.0,100%,20%)">penghuang</text>
<text x="0.779" y="0.383" font-size="0.042390" fill="hsl(0.0,100%,20%)">lexa.knyazev</text>
<text x="0.927" y="-0.027" font-size="0.003186" fill="hsl(0.0,100%,20%)">jamesgk</text>
<text x="0.980" y="0.407" font-size="0.004506" fill="hsl(0.0,100%,20%)">rafael.cintron</text>
<text x="0.342" y="0.169" font-size="0.022304" fill="hsl(0.0,100%,20%)">steven</text>
<text x="1.210" y="0.317" font-size="0.003186" fill="hsl(0.0,100%,20%)">gman</text>
<text x="0.603" y="0.289" font-size="0.005519" fill="hsl(0.0,100%,20%)">blundell</text>
<text x="0.574" y="0.282" font-size="0.010076" fill="hsl(0.0,100%,20%)">hob</text>
<text x="0.919" y="0.840" font-size="0.007125" fill="hsl(0.0,100%,20%)">vasilyt</text>
<text x="1.524" y="0.856" font-size="0.008430" fill="hsl(0.0,100%,20%)">gert.wollny</text>
<text x="1.769" y="0.694" font-size="0.003186" fill="hsl(0.0,100%,20%)">vantablack</text>
<text x="1.794" y="0.211" font-size="0.007125" fill="hsl(0.0,100%,20%)">hans</text>
<text x="1.874" y="0.381" font-size="0.003186" fill="hsl(0.0,100%,20%)">thakis</text>
<text x="0.516" y="0.795" font-size="0.008430" fill="hsl(0.0,100%,20%)">hitawala</text>
<text x="1.119" y="0.513" font-size="0.007125" fill="hsl(0.0,100%,20%)">jiawei.shao</text>
<text x="1.012" y="0.622" font-size="0.003186" fill="hsl(0.0,100%,20%)">senorblanco</text>
<text x="1.938" y="0.593" font-size="0.008430" fill="hsl(0.0,100%,20%)">jojwang</text>
<text x="0.731" y="0.080" font-size="0.019641" fill="hsl(0.0,100%,20%)">kkinnunen</text>
<text x="0.662" y="0.526" font-size="0.007805" fill="hsl(0.0,100%,20%)">kpiddington</text>
<text x="0.409" y="0.594" font-size="0.003186" fill="hsl(0.0,100%,20%)">brianosman</text>
<text x="1.618" y="0.370" font-size="0.012340" fill="hsl(0.0,100%,20%)">liza</text>
<text x="1.574" y="0.280" font-size="0.004506" fill="hsl(0.0,100%,20%)">mpdenton</text>
<text x="1.175" y="0.730" font-size="0.007805" fill="hsl(0.0,100%,20%)">sokcevic</text>
<text x="0.739" y="0.036" font-size="0.007805" fill="hsl(0.0,100%,20%)">msisov</text>
<text x="0.313" y="0.879" font-size="0.010076" fill="hsl(0.0,100%,20%)">phanquangminh217</text>
<text x="1.408" y="0.493" font-size="0.003186" fill="hsl(0.0,100%,20%)">zijiehe</text>
<text x="1.248" y="0.293" font-size="0.009559" fill="hsl(0.0,100%,20%)">sky</text>
<text x="0.403" y="0.356" font-size="0.003186" fill="hsl(0.0,100%,20%)">natsu</text>
<text x="1.327" y="0.649" font-size="0.007805" fill="hsl(0.0,100%,20%)">bsheedy</text>
<text x="1.242" y="0.579" font-size="0.003186" fill="hsl(0.0,100%,20%)">cwallez</text>
<text x="0.476" y="0.484" font-size="0.003186" fill="hsl(0.0,100%,20%)">sugoi</text>
<text x="0.369" y="0.060" font-size="0.003186" fill="hsl(0.0,100%,20%)">rjodin</text>
</svg>
