<svg width="4000" height="2000" viewBox="-0.025 -0.025 2.05 1.05" xmlns="http://www.w3.org/2000/svg">
  <style>
    path {
      fill: none;
      stroke-linecap: round;
      stroke-opacity: 0.4;
    }

    text {
      text-anchor: middle;
      alignment-baseline: hanging;
    }
  </style>
  <g opacity="0.4">
<path d="M1.581 0.445 Q1.579 0.541 1.767 0.563" stroke="hsl(0.0,100%,35%)" stroke-width="0.01911"></path>
<path d="M1.581 0.445 Q0.516 0.327 0.053 0.821" stroke="hsl(0.0,100%,35%)" stroke-width="0.02078"></path>
<path d="M1.581 0.445 Q1.441 0.644 1.798 0.756" stroke="hsl(0.0,100%,35%)" stroke-width="0.00101"></path>
<path d="M1.581 0.445 Q0.814 0.336 0.433 0.686" stroke="hsl(0.0,100%,35%)" stroke-width="0.00067"></path>
<path d="M1.581 0.445 Q0.936 0.515 0.931 0.845" stroke="hsl(0.0,100%,35%)" stroke-width="0.00067"></path>
<path d="M1.581 0.445 Q0.684 0.328 0.260 0.740" stroke="hsl(0.0,100%,35%)" stroke-width="0.00067"></path>
<path d="M1.767 0.563 Q0.704 0.349 0.053 0.821" stroke="hsl(0.0,100%,35%)" stroke-width="0.02078"></path>
<path d="M1.767 0.563 Q1.283 0.489 1.032 0.709" stroke="hsl(0.0,100%,35%)" stroke-width="0.00536"></path>
<path d="M1.767 0.563 Q1.446 0.510 1.271 0.655" stroke="hsl(0.0,100%,35%)" stroke-width="0.00402"></path>
<path d="M1.767 0.563 Q1.225 0.276 0.547 0.478" stroke="hsl(0.0,100%,35%)" stroke-width="0.00067"></path>
<path d="M1.767 0.563 Q1.645 0.478 1.451 0.519" stroke="hsl(0.0,100%,35%)" stroke-width="0.00101"></path>
<path d="M1.767 0.563 Q1.629 0.666 1.798 0.756" stroke="hsl(0.0,100%,35%)" stroke-width="0.00168"></path>
<path d="M1.767 0.563 Q1.124 0.537 0.931 0.845" stroke="hsl(0.0,100%,35%)" stroke-width="0.00134"></path>
<path d="M1.767 0.563 Q1.078 0.310 0.433 0.591" stroke="hsl(0.0,100%,35%)" stroke-width="0.00101"></path>
<path d="M1.767 0.563 Q0.913 0.272 0.156 0.624" stroke="hsl(0.0,100%,35%)" stroke-width="0.00067"></path>
<path d="M1.767 0.563 Q1.654 0.560 1.623 0.615" stroke="hsl(0.0,100%,35%)" stroke-width="0.00034"></path>
<path d="M1.767 0.563 Q1.944 0.364 1.594 0.234" stroke="hsl(0.0,100%,35%)" stroke-width="0.00034"></path>
<path d="M1.767 0.563 Q1.455 0.617 1.492 0.782" stroke="hsl(0.0,100%,35%)" stroke-width="0.00034"></path>
<path d="M1.767 0.563 Q1.645 0.512 1.518 0.560" stroke="hsl(0.0,100%,35%)" stroke-width="0.00067"></path>
<path d="M1.767 0.563 Q1.609 0.586 1.619 0.668" stroke="hsl(0.0,100%,35%)" stroke-width="0.00034"></path>
<path d="M1.767 0.563 Q1.857 0.186 1.140 0.060" stroke="hsl(0.0,100%,35%)" stroke-width="0.00034"></path>
<path d="M1.767 0.563 Q1.334 0.644 1.396 0.872" stroke="hsl(0.0,100%,35%)" stroke-width="0.00034"></path>
<path d="M1.767 0.563 Q1.523 0.406 1.162 0.491" stroke="hsl(0.0,100%,35%)" stroke-width="0.00067"></path>
<path d="M1.767 0.563 Q1.863 0.405 1.575 0.324" stroke="hsl(0.0,100%,35%)" stroke-width="0.00067"></path>
<path d="M0.053 0.821 Q0.427 0.782 0.433 0.591" stroke="hsl(0.0,100%,35%)" stroke-width="0.01408"></path>
<path d="M0.053 0.821 Q0.351 0.830 0.433 0.686" stroke="hsl(0.0,100%,35%)" stroke-width="0.02045"></path>
<path d="M0.053 0.821 Q0.262 0.743 0.156 0.624" stroke="hsl(0.0,100%,35%)" stroke-width="0.02213"></path>
<path d="M0.053 0.821 Q1.116 1.035 1.767 0.563" stroke="hsl(0.0,100%,35%)" stroke-width="0.01643"></path>
<path d="M0.053 0.821 Q0.084 0.884 0.213 0.883" stroke="hsl(0.0,100%,35%)" stroke-width="0.00369"></path>
<path d="M0.053 0.821 Q0.473 1.009 0.931 0.845" stroke="hsl(0.0,100%,35%)" stroke-width="0.00603"></path>
<path d="M0.053 0.821 Q1.118 0.939 1.581 0.445" stroke="hsl(0.0,100%,35%)" stroke-width="0.00067"></path>
<path d="M0.053 0.821 Q0.574 0.748 0.547 0.478" stroke="hsl(0.0,100%,35%)" stroke-width="0.00536"></path>
<path d="M0.053 0.821 Q0.978 1.137 1.798 0.756" stroke="hsl(0.0,100%,35%)" stroke-width="0.00436"></path>
<path d="M0.053 0.821 Q0.804 1.089 1.492 0.782" stroke="hsl(0.0,100%,35%)" stroke-width="0.00034"></path>
<path d="M0.053 0.821 Q0.683 1.115 1.396 0.872" stroke="hsl(0.0,100%,35%)" stroke-width="0.00067"></path>
<path d="M0.053 0.821 Q0.279 0.831 0.347 0.723" stroke="hsl(0.0,100%,35%)" stroke-width="0.00101"></path>
<path d="M0.053 0.821 Q0.740 0.698 0.650 0.336" stroke="hsl(0.0,100%,35%)" stroke-width="0.00034"></path>
<path d="M0.053 0.821 Q0.994 0.950 1.451 0.519" stroke="hsl(0.0,100%,35%)" stroke-width="0.00134"></path>
<path d="M0.053 0.821 Q0.247 0.891 0.426 0.812" stroke="hsl(0.0,100%,35%)" stroke-width="0.00067"></path>
<path d="M0.053 0.821 Q1.293 0.836 1.594 0.234" stroke="hsl(0.0,100%,35%)" stroke-width="0.00034"></path>
<path d="M0.053 0.821 Q0.418 0.716 0.293 0.515" stroke="hsl(0.0,100%,35%)" stroke-width="0.00034"></path>
<path d="M1.798 0.756 Q1.703 0.811 1.790 0.869" stroke="hsl(0.0,100%,35%)" stroke-width="0.00838"></path>
<path d="M1.798 0.756 Q1.655 0.739 1.591 0.805" stroke="hsl(0.0,100%,35%)" stroke-width="0.00034"></path>
<path d="M1.798 0.756 Q1.395 0.366 0.547 0.478" stroke="hsl(0.0,100%,35%)" stroke-width="0.00972"></path>
<path d="M1.798 0.756 Q0.873 0.439 0.053 0.821" stroke="hsl(0.0,100%,35%)" stroke-width="0.00402"></path>
<path d="M1.798 0.756 Q1.171 0.448 0.433 0.686" stroke="hsl(0.0,100%,35%)" stroke-width="0.00101"></path>
<path d="M1.798 0.756 Q1.293 0.627 0.931 0.845" stroke="hsl(0.0,100%,35%)" stroke-width="0.00101"></path>
<path d="M1.798 0.756 Q1.247 0.400 0.433 0.591" stroke="hsl(0.0,100%,35%)" stroke-width="0.00101"></path>
<path d="M1.798 0.756 Q1.936 0.653 1.767 0.563" stroke="hsl(0.0,100%,35%)" stroke-width="0.00101"></path>
<path d="M1.798 0.756 Q1.082 0.361 0.156 0.624" stroke="hsl(0.0,100%,35%)" stroke-width="0.00034"></path>
<path d="M1.798 0.756 Q1.239 0.334 0.293 0.515" stroke="hsl(0.0,100%,35%)" stroke-width="0.00034"></path>
<path d="M0.433 0.686 Q0.135 0.677 0.053 0.821" stroke="hsl(0.0,100%,35%)" stroke-width="0.04626"></path>
<path d="M0.433 0.686 Q0.509 0.638 0.433 0.591" stroke="hsl(0.0,100%,35%)" stroke-width="0.01542"></path>
<path d="M0.433 0.686 Q0.555 0.865 0.931 0.845" stroke="hsl(0.0,100%,35%)" stroke-width="0.00067"></path>
<path d="M0.433 0.686 Q1.060 0.994 1.798 0.756" stroke="hsl(0.0,100%,35%)" stroke-width="0.00101"></path>
<path d="M0.433 0.686 Q1.198 0.891 1.767 0.563" stroke="hsl(0.0,100%,35%)" stroke-width="0.00067"></path>
<path d="M0.433 0.686 Q0.657 0.605 0.547 0.478" stroke="hsl(0.0,100%,35%)" stroke-width="0.00168"></path>
<path d="M0.433 0.686 Q0.344 0.600 0.156 0.624" stroke="hsl(0.0,100%,35%)" stroke-width="0.02447"></path>
<path d="M0.433 0.686 Q0.436 0.555 0.180 0.524" stroke="hsl(0.0,100%,35%)" stroke-width="0.00034"></path>
<path d="M0.433 0.686 Q0.205 0.841 0.457 0.986" stroke="hsl(0.0,100%,35%)" stroke-width="0.00034"></path>
<path d="M0.433 0.686 Q0.166 0.740 0.213 0.883" stroke="hsl(0.0,100%,35%)" stroke-width="0.00034"></path>
<path d="M0.931 0.845 Q0.511 0.657 0.053 0.821" stroke="hsl(0.0,100%,35%)" stroke-width="0.00536"></path>
<path d="M0.931 0.845 Q1.574 0.871 1.767 0.563" stroke="hsl(0.0,100%,35%)" stroke-width="0.00268"></path>
<path d="M0.931 0.845 Q0.783 0.788 0.640 0.848" stroke="hsl(0.0,100%,35%)" stroke-width="0.00436"></path>
<path d="M0.931 0.845 Q0.877 0.552 0.293 0.515" stroke="hsl(0.0,100%,35%)" stroke-width="0.00168"></path>
<path d="M0.931 0.845 Q0.720 0.580 0.156 0.624" stroke="hsl(0.0,100%,35%)" stroke-width="0.00101"></path>
<path d="M0.931 0.845 Q1.033 0.585 0.547 0.478" stroke="hsl(0.0,100%,35%)" stroke-width="0.00302"></path>
<path d="M0.931 0.845 Q0.809 0.666 0.433 0.686" stroke="hsl(0.0,100%,35%)" stroke-width="0.00067"></path>
<path d="M0.931 0.845 Q1.436 0.974 1.798 0.756" stroke="hsl(0.0,100%,35%)" stroke-width="0.00335"></path>
<path d="M0.931 0.845 Q0.885 0.618 0.433 0.591" stroke="hsl(0.0,100%,35%)" stroke-width="0.00101"></path>
<path d="M0.260 0.740 Q0.092 0.739 0.053 0.821" stroke="hsl(0.0,100%,35%)" stroke-width="0.01944"></path>
<path d="M0.260 0.740 Q0.390 0.748 0.433 0.686" stroke="hsl(0.0,100%,35%)" stroke-width="0.00503"></path>
<path d="M0.260 0.740 Q1.155 0.953 1.767 0.563" stroke="hsl(0.0,100%,35%)" stroke-width="0.00771"></path>
<path d="M0.260 0.740 Q1.157 0.857 1.581 0.445" stroke="hsl(0.0,100%,35%)" stroke-width="0.00268"></path>
<path d="M0.260 0.740 Q0.512 0.927 0.931 0.845" stroke="hsl(0.0,100%,35%)" stroke-width="0.00101"></path>
<path d="M0.260 0.740 Q1.017 1.056 1.798 0.756" stroke="hsl(0.0,100%,35%)" stroke-width="0.00034"></path>
<path d="M1.766 0.366 Q1.609 0.465 1.767 0.563" stroke="hsl(0.0,100%,35%)" stroke-width="0.00201"></path>
<path d="M1.766 0.366 Q0.546 0.251 0.053 0.821" stroke="hsl(0.0,100%,35%)" stroke-width="0.00335"></path>
<path d="M1.766 0.366 Q1.067 0.178 0.547 0.478" stroke="hsl(0.0,100%,35%)" stroke-width="0.00101"></path>
<path d="M1.766 0.366 Q1.611 0.368 1.581 0.445" stroke="hsl(0.0,100%,35%)" stroke-width="0.00134"></path>
<path d="M1.766 0.366 Q1.471 0.567 1.798 0.756" stroke="hsl(0.0,100%,35%)" stroke-width="0.00034"></path>
<path d="M0.547 0.478 Q0.025 0.551 0.053 0.821" stroke="hsl(0.0,100%,35%)" stroke-width="0.02213"></path>
<path d="M0.547 0.478 Q0.445 0.738 0.931 0.845" stroke="hsl(0.0,100%,35%)" stroke-width="0.00335"></path>
<path d="M0.547 0.478 Q0.399 0.512 0.433 0.591" stroke="hsl(0.0,100%,35%)" stroke-width="0.00570"></path>
<path d="M0.547 0.478 Q0.950 0.867 1.798 0.756" stroke="hsl(0.0,100%,35%)" stroke-width="0.01374"></path>
<path d="M0.547 0.478 Q0.323 0.559 0.433 0.686" stroke="hsl(0.0,100%,35%)" stroke-width="0.00402"></path>
<path d="M0.547 0.478 Q0.234 0.473 0.156 0.624" stroke="hsl(0.0,100%,35%)" stroke-width="0.00536"></path>
<path d="M0.547 0.478 Q0.655 0.845 1.396 0.872" stroke="hsl(0.0,100%,35%)" stroke-width="0.00034"></path>
<path d="M0.547 0.478 Q0.391 0.445 0.293 0.515" stroke="hsl(0.0,100%,35%)" stroke-width="0.00067"></path>
<path d="M0.547 0.478 Q1.088 0.765 1.767 0.563" stroke="hsl(0.0,100%,35%)" stroke-width="0.00067"></path>
<path d="M0.547 0.478 Q0.855 0.922 1.790 0.869" stroke="hsl(0.0,100%,35%)" stroke-width="0.00034"></path>
<path d="M0.547 0.478 Q0.584 0.527 0.690 0.520" stroke="hsl(0.0,100%,35%)" stroke-width="0.00034"></path>
<path d="M0.547 0.478 Q0.035 0.654 0.268 0.942" stroke="hsl(0.0,100%,35%)" stroke-width="0.00034"></path>
<path d="M0.433 0.591 Q0.357 0.638 0.433 0.686" stroke="hsl(0.0,100%,35%)" stroke-width="0.00905"></path>
<path d="M0.433 0.591 Q0.059 0.630 0.053 0.821" stroke="hsl(0.0,100%,35%)" stroke-width="0.02011"></path>
<path d="M0.433 0.591 Q0.581 0.557 0.547 0.478" stroke="hsl(0.0,100%,35%)" stroke-width="0.00134"></path>
<path d="M0.433 0.591 Q0.984 0.946 1.798 0.756" stroke="hsl(0.0,100%,35%)" stroke-width="0.00771"></path>
<path d="M0.433 0.591 Q0.479 0.817 0.931 0.845" stroke="hsl(0.0,100%,35%)" stroke-width="0.00101"></path>
<path d="M0.433 0.591 Q0.347 0.472 0.096 0.489" stroke="hsl(0.0,100%,35%)" stroke-width="0.00034"></path>
<path d="M0.433 0.591 Q0.268 0.552 0.156 0.624" stroke="hsl(0.0,100%,35%)" stroke-width="0.00201"></path>
<path d="M0.433 0.591 Q1.122 0.844 1.767 0.563" stroke="hsl(0.0,100%,35%)" stroke-width="0.00134"></path>
<path d="M0.433 0.591 Q0.090 0.693 0.213 0.883" stroke="hsl(0.0,100%,35%)" stroke-width="0.00034"></path>
<path d="M0.096 0.489 Q-0.191 0.646 0.053 0.821" stroke="hsl(0.0,100%,35%)" stroke-width="0.00201"></path>
<path d="M0.096 0.489 Q0.330 0.573 0.547 0.478" stroke="hsl(0.0,100%,35%)" stroke-width="0.00067"></path>
<path d="M0.096 0.489 Q0.734 0.962 1.798 0.756" stroke="hsl(0.0,100%,35%)" stroke-width="0.00034"></path>
<path d="M0.096 0.489 Q0.205 0.453 0.159 0.391" stroke="hsl(0.0,100%,35%)" stroke-width="0.00034"></path>
<path d="M0.156 0.624 Q0.321 0.663 0.433 0.591" stroke="hsl(0.0,100%,35%)" stroke-width="0.00436"></path>
<path d="M0.156 0.624 Q0.245 0.711 0.433 0.686" stroke="hsl(0.0,100%,35%)" stroke-width="0.00369"></path>
<path d="M0.156 0.624 Q0.367 0.890 0.931 0.845" stroke="hsl(0.0,100%,35%)" stroke-width="0.00101"></path>
<path d="M0.156 0.624 Q-0.053 0.702 0.053 0.821" stroke="hsl(0.0,100%,35%)" stroke-width="0.00536"></path>
<path d="M0.156 0.624 Q0.312 0.597 0.293 0.515" stroke="hsl(0.0,100%,35%)" stroke-width="0.00067"></path>
<path d="M0.156 0.624 Q0.468 0.629 0.547 0.478" stroke="hsl(0.0,100%,35%)" stroke-width="0.00168"></path>
<path d="M0.156 0.624 Q0.872 1.018 1.798 0.756" stroke="hsl(0.0,100%,35%)" stroke-width="0.00134"></path>
<path d="M0.156 0.624 Q0.172 0.712 0.347 0.723" stroke="hsl(0.0,100%,35%)" stroke-width="0.00034"></path>
<path d="M0.156 0.624 Q0.161 0.556 0.030 0.539" stroke="hsl(0.0,100%,35%)" stroke-width="0.00034"></path>
<path d="M0.156 0.624 Q0.777 1.073 1.790 0.869" stroke="hsl(0.0,100%,35%)" stroke-width="0.00034"></path>
<path d="M0.213 0.883 Q0.182 0.820 0.053 0.821" stroke="hsl(0.0,100%,35%)" stroke-width="0.02548"></path>
<path d="M0.213 0.883 Q0.480 0.828 0.433 0.686" stroke="hsl(0.0,100%,35%)" stroke-width="0.00805"></path>
<path d="M0.213 0.883 Q0.556 0.781 0.433 0.591" stroke="hsl(0.0,100%,35%)" stroke-width="0.00034"></path>
<path d="M0.213 0.883 Q0.391 0.742 0.156 0.624" stroke="hsl(0.0,100%,35%)" stroke-width="0.00235"></path>
<path d="M0.213 0.883 Q1.245 1.034 1.767 0.563" stroke="hsl(0.0,100%,35%)" stroke-width="0.00134"></path>
<path d="M0.213 0.883 Q1.107 1.136 1.798 0.756" stroke="hsl(0.0,100%,35%)" stroke-width="0.00034"></path>
<path d="M0.213 0.883 Q0.263 0.970 0.445 0.965" stroke="hsl(0.0,100%,35%)" stroke-width="0.00034"></path>
<path d="M0.213 0.883 Q0.193 0.924 0.268 0.942" stroke="hsl(0.0,100%,35%)" stroke-width="0.00034"></path>
<path d="M0.213 0.883 Q1.123 0.948 1.451 0.519" stroke="hsl(0.0,100%,35%)" stroke-width="0.00034"></path>
<path d="M0.542 0.697 Q0.198 0.661 0.053 0.821" stroke="hsl(0.0,100%,35%)" stroke-width="0.00201"></path>
<path d="M0.542 0.697 Q0.573 0.622 0.433 0.591" stroke="hsl(0.0,100%,35%)" stroke-width="0.00067"></path>
<path d="M0.542 0.697 Q0.497 0.670 0.433 0.686" stroke="hsl(0.0,100%,35%)" stroke-width="0.00101"></path>
<path d="M0.542 0.697 Q1.262 0.875 1.767 0.563" stroke="hsl(0.0,100%,35%)" stroke-width="0.00034"></path>
<path d="M1.541 0.886 Q1.912 0.770 1.767 0.563" stroke="hsl(0.0,100%,35%)" stroke-width="0.00034"></path>
<path d="M1.541 0.886 Q1.479 0.850 1.396 0.872" stroke="hsl(0.0,100%,35%)" stroke-width="0.00235"></path>
<path d="M1.541 0.886 Q0.849 0.556 0.053 0.821" stroke="hsl(0.0,100%,35%)" stroke-width="0.00201"></path>
<path d="M1.541 0.886 Q1.790 0.684 1.451 0.519" stroke="hsl(0.0,100%,35%)" stroke-width="0.00034"></path>
<path d="M1.451 0.519 Q1.140 0.685 1.396 0.872" stroke="hsl(0.0,100%,35%)" stroke-width="0.00603"></path>
<path d="M1.451 0.519 Q0.510 0.390 0.053 0.821" stroke="hsl(0.0,100%,35%)" stroke-width="0.01978"></path>
<path d="M1.451 0.519 Q1.261 0.658 1.492 0.782" stroke="hsl(0.0,100%,35%)" stroke-width="0.00268"></path>
<path d="M1.451 0.519 Q1.329 0.447 1.162 0.491" stroke="hsl(0.0,100%,35%)" stroke-width="0.00905"></path>
<path d="M1.451 0.519 Q1.573 0.604 1.767 0.563" stroke="hsl(0.0,100%,35%)" stroke-width="0.01978"></path>
<path d="M1.451 0.519 Q0.808 0.399 0.433 0.686" stroke="hsl(0.0,100%,35%)" stroke-width="0.00034"></path>
<path d="M1.451 0.519 Q1.435 0.707 1.798 0.756" stroke="hsl(0.0,100%,35%)" stroke-width="0.00067"></path>
<path d="M1.451 0.519 Q0.884 0.351 0.433 0.591" stroke="hsl(0.0,100%,35%)" stroke-width="0.00067"></path>
<path d="M1.790 0.869 Q1.885 0.814 1.798 0.756" stroke="hsl(0.0,100%,35%)" stroke-width="0.00972"></path>
<path d="M1.790 0.869 Q1.380 0.685 0.931 0.845" stroke="hsl(0.0,100%,35%)" stroke-width="0.00101"></path>
<path d="M1.790 0.869 Q0.960 0.498 0.053 0.821" stroke="hsl(0.0,100%,35%)" stroke-width="0.00134"></path>
<path d="M1.790 0.869 Q2.023 0.712 1.767 0.563" stroke="hsl(0.0,100%,35%)" stroke-width="0.00034"></path>
<path d="M1.790 0.869 Q1.334 0.459 0.433 0.591" stroke="hsl(0.0,100%,35%)" stroke-width="0.00034"></path>
<path d="M0.293 0.515 Q0.137 0.542 0.156 0.624" stroke="hsl(0.0,100%,35%)" stroke-width="0.00268"></path>
<path d="M0.293 0.515 Q-0.072 0.620 0.053 0.821" stroke="hsl(0.0,100%,35%)" stroke-width="0.00168"></path>
<path d="M0.293 0.515 Q0.348 0.807 0.931 0.845" stroke="hsl(0.0,100%,35%)" stroke-width="0.00067"></path>
<path d="M0.238 0.357 Q0.295 0.479 0.547 0.478" stroke="hsl(0.0,100%,35%)" stroke-width="0.00101"></path>
<path d="M0.238 0.357 Q-0.226 0.552 0.053 0.821" stroke="hsl(0.0,100%,35%)" stroke-width="0.00034"></path>
<path d="M0.238 0.357 Q0.194 0.739 0.931 0.845" stroke="hsl(0.0,100%,35%)" stroke-width="0.00034"></path>
<path d="M1.852 0.396 Q1.675 0.463 1.767 0.563" stroke="hsl(0.0,100%,35%)" stroke-width="0.00101"></path>
<path d="M1.852 0.396 Q1.363 0.517 1.492 0.782" stroke="hsl(0.0,100%,35%)" stroke-width="0.00034"></path>
<path d="M1.852 0.396 Q0.612 0.249 0.053 0.821" stroke="hsl(0.0,100%,35%)" stroke-width="0.00034"></path>
<path d="M1.852 0.396 Q1.243 0.543 1.396 0.872" stroke="hsl(0.0,100%,35%)" stroke-width="0.00067"></path>
<path d="M1.492 0.782 Q1.804 0.727 1.767 0.563" stroke="hsl(0.0,100%,35%)" stroke-width="0.00503"></path>
<path d="M1.492 0.782 Q1.371 0.808 1.396 0.872" stroke="hsl(0.0,100%,35%)" stroke-width="0.00369"></path>
<path d="M1.492 0.782 Q1.682 0.642 1.451 0.519" stroke="hsl(0.0,100%,35%)" stroke-width="0.00034"></path>
<path d="M1.492 0.782 Q0.741 0.513 0.053 0.821" stroke="hsl(0.0,100%,35%)" stroke-width="0.00034"></path>
<path d="M0.532 0.282 Q0.383 0.383 0.547 0.478" stroke="hsl(0.0,100%,35%)" stroke-width="0.00034"></path>
<path d="M0.532 0.282 Q0.070 0.378 0.156 0.624" stroke="hsl(0.0,100%,35%)" stroke-width="0.00034"></path>
<path d="M0.532 0.282 Q-0.139 0.456 0.053 0.821" stroke="hsl(0.0,100%,35%)" stroke-width="0.00034"></path>
<path d="M1.032 0.709 Q1.194 0.730 1.271 0.655" stroke="hsl(0.0,100%,35%)" stroke-width="0.00503"></path>
<path d="M1.032 0.709 Q0.452 0.569 0.053 0.821" stroke="hsl(0.0,100%,35%)" stroke-width="0.00469"></path>
<path d="M1.032 0.709 Q1.516 0.783 1.767 0.563" stroke="hsl(0.0,100%,35%)" stroke-width="0.00335"></path>
<path d="M1.271 0.655 Q1.108 0.634 1.032 0.709" stroke="hsl(0.0,100%,35%)" stroke-width="0.00603"></path>
<path d="M1.271 0.655 Q0.529 0.494 0.053 0.821" stroke="hsl(0.0,100%,35%)" stroke-width="0.00637"></path>
<path d="M1.271 0.655 Q1.592 0.708 1.767 0.563" stroke="hsl(0.0,100%,35%)" stroke-width="0.00402"></path>
<path d="M1.271 0.655 Q1.050 0.421 0.547 0.478" stroke="hsl(0.0,100%,35%)" stroke-width="0.00034"></path>
<path d="M1.162 0.491 Q1.407 0.648 1.767 0.563" stroke="hsl(0.0,100%,35%)" stroke-width="0.01810"></path>
<path d="M1.162 0.491 Q0.343 0.434 0.053 0.821" stroke="hsl(0.0,100%,35%)" stroke-width="0.00872"></path>
<path d="M1.162 0.491 Q0.974 0.728 1.396 0.872" stroke="hsl(0.0,100%,35%)" stroke-width="0.00201"></path>
<path d="M1.162 0.491 Q1.284 0.562 1.451 0.519" stroke="hsl(0.0,100%,35%)" stroke-width="0.00436"></path>
<path d="M1.162 0.491 Q1.095 0.702 1.492 0.782" stroke="hsl(0.0,100%,35%)" stroke-width="0.00101"></path>
<path d="M1.162 0.491 Q0.763 0.622 0.931 0.845" stroke="hsl(0.0,100%,35%)" stroke-width="0.00034"></path>
<path d="M0.211 0.449 Q0.208 0.564 0.433 0.591" stroke="hsl(0.0,100%,35%)" stroke-width="0.00101"></path>
<path d="M0.211 0.449 Q0.132 0.612 0.433 0.686" stroke="hsl(0.0,100%,35%)" stroke-width="0.00067"></path>
<path d="M0.211 0.449 Q-0.166 0.603 0.053 0.821" stroke="hsl(0.0,100%,35%)" stroke-width="0.00067"></path>
<path d="M0.211 0.449 Q0.254 0.791 0.931 0.845" stroke="hsl(0.0,100%,35%)" stroke-width="0.00034"></path>
<path d="M0.211 0.449 Q0.043 0.526 0.156 0.624" stroke="hsl(0.0,100%,35%)" stroke-width="0.00067"></path>
<path d="M0.664 0.954 Q0.465 0.766 0.053 0.821" stroke="hsl(0.0,100%,35%)" stroke-width="0.00067"></path>
<path d="M0.664 0.954 Q0.674 0.688 0.156 0.624" stroke="hsl(0.0,100%,35%)" stroke-width="0.00034"></path>
<path d="M0.664 0.954 Q0.839 0.727 0.433 0.591" stroke="hsl(0.0,100%,35%)" stroke-width="0.00034"></path>
<path d="M0.664 0.954 Q1.528 0.980 1.767 0.563" stroke="hsl(0.0,100%,35%)" stroke-width="0.00034"></path>
<path d="M0.664 0.954 Q0.885 0.953 0.931 0.845" stroke="hsl(0.0,100%,35%)" stroke-width="0.00034"></path>
<path d="M0.745 0.738 Q0.333 0.641 0.053 0.821" stroke="hsl(0.0,100%,35%)" stroke-width="0.00067"></path>
<path d="M0.745 0.738 Q1.396 0.855 1.767 0.563" stroke="hsl(0.0,100%,35%)" stroke-width="0.00034"></path>
<path d="M0.745 0.738 Q1.075 0.802 1.271 0.655" stroke="hsl(0.0,100%,35%)" stroke-width="0.00034"></path>
<path d="M0.745 0.738 Q0.753 0.829 0.931 0.845" stroke="hsl(0.0,100%,35%)" stroke-width="0.00034"></path>
<path d="M0.541 0.147 Q0.821 0.601 1.767 0.563" stroke="hsl(0.0,100%,35%)" stroke-width="0.00034"></path>
<path d="M0.541 0.147 Q-0.242 0.387 0.053 0.821" stroke="hsl(0.0,100%,35%)" stroke-width="0.00101"></path>
<path d="M0.541 0.147 Q0.823 0.504 1.581 0.445" stroke="hsl(0.0,100%,35%)" stroke-width="0.00067"></path>
<path d="M0.347 0.723 Q1.185 0.927 1.767 0.563" stroke="hsl(0.0,100%,35%)" stroke-width="0.00067"></path>
<path d="M0.347 0.723 Q0.121 0.713 0.053 0.821" stroke="hsl(0.0,100%,35%)" stroke-width="0.02145"></path>
<path d="M0.347 0.723 Q0.420 0.722 0.433 0.686" stroke="hsl(0.0,100%,35%)" stroke-width="0.01173"></path>
<path d="M0.347 0.723 Q0.152 0.776 0.213 0.883" stroke="hsl(0.0,100%,35%)" stroke-width="0.00101"></path>
<path d="M0.347 0.723 Q0.643 0.640 0.547 0.478" stroke="hsl(0.0,100%,35%)" stroke-width="0.00101"></path>
<path d="M0.347 0.723 Q0.496 0.674 0.433 0.591" stroke="hsl(0.0,100%,35%)" stroke-width="0.00134"></path>
<path d="M0.347 0.723 Q0.330 0.635 0.156 0.624" stroke="hsl(0.0,100%,35%)" stroke-width="0.00134"></path>
<path d="M1.535 0.958 Q1.202 0.602 0.433 0.686" stroke="hsl(0.0,100%,35%)" stroke-width="0.00034"></path>
<path d="M1.535 0.958 Q0.904 0.593 0.053 0.821" stroke="hsl(0.0,100%,35%)" stroke-width="0.00134"></path>
<path d="M1.535 0.958 Q1.829 0.909 1.798 0.756" stroke="hsl(0.0,100%,35%)" stroke-width="0.00101"></path>
<path d="M1.254 0.820 Q1.283 0.875 1.396 0.872" stroke="hsl(0.0,100%,35%)" stroke-width="0.00067"></path>
<path d="M1.254 0.820 Q1.594 0.709 1.451 0.519" stroke="hsl(0.0,100%,35%)" stroke-width="0.00034"></path>
<path d="M1.254 0.820 Q1.472 0.637 1.162 0.491" stroke="hsl(0.0,100%,35%)" stroke-width="0.00067"></path>
<path d="M1.254 0.820 Q0.653 0.580 0.053 0.821" stroke="hsl(0.0,100%,35%)" stroke-width="0.00067"></path>
<path d="M1.417 0.059 Q1.278 0.004 1.140 0.060" stroke="hsl(0.0,100%,35%)" stroke-width="0.00034"></path>
<path d="M1.417 0.059 Q1.188 0.381 1.767 0.563" stroke="hsl(0.0,100%,35%)" stroke-width="0.00034"></path>
<path d="M1.417 0.059 Q0.944 0.224 1.162 0.491" stroke="hsl(0.0,100%,35%)" stroke-width="0.00034"></path>
<path d="M1.417 0.059 Q0.125 0.167 0.053 0.821" stroke="hsl(0.0,100%,35%)" stroke-width="0.00034"></path>
<path d="M0.060 1.142 Q0.687 0.941 0.433 0.591" stroke="hsl(0.0,100%,35%)" stroke-width="0.00034"></path>
<path d="M0.060 1.142 Q0.313 0.980 0.053 0.821" stroke="hsl(0.0,100%,35%)" stroke-width="0.00101"></path>
<path d="M0.060 1.142 Q0.522 0.902 0.156 0.624" stroke="hsl(0.0,100%,35%)" stroke-width="0.00034"></path>
<path d="M1.068 0.378 Q0.206 0.397 0.053 0.821" stroke="hsl(0.0,100%,35%)" stroke-width="0.00067"></path>
<path d="M1.068 0.378 Q1.025 0.453 1.162 0.491" stroke="hsl(0.0,100%,35%)" stroke-width="0.00134"></path>
<path d="M1.068 0.378 Q1.269 0.611 1.767 0.563" stroke="hsl(0.0,100%,35%)" stroke-width="0.00067"></path>
<path d="M0.057 0.549 Q-0.162 0.684 0.053 0.821" stroke="hsl(0.0,100%,35%)" stroke-width="0.00335"></path>
<path d="M0.057 0.549 Q0.136 0.693 0.433 0.686" stroke="hsl(0.0,100%,35%)" stroke-width="0.00101"></path>
<path d="M0.057 0.549 Q0.258 0.872 0.931 0.845" stroke="hsl(0.0,100%,35%)" stroke-width="0.00034"></path>
<path d="M0.057 0.549 Q0.047 0.606 0.156 0.624" stroke="hsl(0.0,100%,35%)" stroke-width="0.00034"></path>
<path d="M0.057 0.549 Q0.212 0.645 0.433 0.591" stroke="hsl(0.0,100%,35%)" stroke-width="0.00034"></path>
<path d="M0.057 0.549 Q0.901 0.898 1.767 0.563" stroke="hsl(0.0,100%,35%)" stroke-width="0.00034"></path>
<path d="M0.305 0.841 Q1.258 0.995 1.767 0.563" stroke="hsl(0.0,100%,35%)" stroke-width="0.00536"></path>
<path d="M0.305 0.841 Q0.195 0.781 0.053 0.821" stroke="hsl(0.0,100%,35%)" stroke-width="0.00637"></path>
<path d="M0.305 0.841 Q0.615 0.968 0.931 0.845" stroke="hsl(0.0,100%,35%)" stroke-width="0.00067"></path>
<path d="M0.305 0.841 Q1.260 0.898 1.581 0.445" stroke="hsl(0.0,100%,35%)" stroke-width="0.00034"></path>
<path d="M0.038 0.536 Q-0.183 0.681 0.053 0.821" stroke="hsl(0.0,100%,35%)" stroke-width="0.00134"></path>
<path d="M0.038 0.536 Q0.758 0.810 1.451 0.519" stroke="hsl(0.0,100%,35%)" stroke-width="0.00034"></path>
<path d="M0.038 0.536 Q0.116 0.690 0.433 0.686" stroke="hsl(0.0,100%,35%)" stroke-width="0.00034"></path>
<path d="M0.382 0.892 Q0.796 0.718 0.547 0.478" stroke="hsl(0.0,100%,35%)" stroke-width="0.00034"></path>
<path d="M0.382 0.892 Q0.274 0.791 0.053 0.821" stroke="hsl(0.0,100%,35%)" stroke-width="0.00134"></path>
<path d="M0.382 0.892 Q0.446 0.968 0.608 0.954" stroke="hsl(0.0,100%,35%)" stroke-width="0.00034"></path>
<path d="M0.382 0.892 Q0.694 0.978 0.931 0.845" stroke="hsl(0.0,100%,35%)" stroke-width="0.00034"></path>
<path d="M0.382 0.892 Q0.483 0.713 0.156 0.624" stroke="hsl(0.0,100%,35%)" stroke-width="0.00034"></path>
<path d="M0.567 0.548 Q0.466 0.543 0.433 0.591" stroke="hsl(0.0,100%,35%)" stroke-width="0.00101"></path>
<path d="M0.567 0.548 Q0.390 0.590 0.433 0.686" stroke="hsl(0.0,100%,35%)" stroke-width="0.00134"></path>
<path d="M0.567 0.548 Q1.033 0.710 1.451 0.519" stroke="hsl(0.0,100%,35%)" stroke-width="0.00067"></path>
<path d="M0.567 0.548 Q0.092 0.582 0.053 0.821" stroke="hsl(0.0,100%,35%)" stroke-width="0.00235"></path>
<path d="M0.567 0.548 Q1.017 0.898 1.798 0.756" stroke="hsl(0.0,100%,35%)" stroke-width="0.00101"></path>
<path d="M0.567 0.548 Q1.155 0.796 1.767 0.563" stroke="hsl(0.0,100%,35%)" stroke-width="0.00034"></path>
<path d="M0.567 0.548 Q0.614 0.509 0.547 0.478" stroke="hsl(0.0,100%,35%)" stroke-width="0.00034"></path>
<path d="M0.878 0.512 Q0.218 0.502 0.053 0.821" stroke="hsl(0.0,100%,35%)" stroke-width="0.00034"></path>
<path d="M0.878 0.512 Q0.934 0.451 0.827 0.411" stroke="hsl(0.0,100%,35%)" stroke-width="0.00034"></path>
<path d="M0.878 0.512 Q0.638 0.689 0.931 0.845" stroke="hsl(0.0,100%,35%)" stroke-width="0.00034"></path>
<path d="M0.650 0.336 Q-0.037 0.459 0.053 0.821" stroke="hsl(0.0,100%,35%)" stroke-width="0.00235"></path>
<path d="M0.650 0.336 Q0.594 0.753 1.396 0.872" stroke="hsl(0.0,100%,35%)" stroke-width="0.00034"></path>
<path d="M0.650 0.336 Q0.338 0.420 0.433 0.591" stroke="hsl(0.0,100%,35%)" stroke-width="0.00101"></path>
<path d="M0.650 0.336 Q0.383 0.647 0.931 0.845" stroke="hsl(0.0,100%,35%)" stroke-width="0.00034"></path>
<path d="M0.650 0.336 Q1.027 0.673 1.767 0.563" stroke="hsl(0.0,100%,35%)" stroke-width="0.00034"></path>
<path d="M0.900 0.727 Q0.821 0.792 0.931 0.845" stroke="hsl(0.0,100%,35%)" stroke-width="0.00235"></path>
<path d="M0.900 0.727 Q1.032 0.899 1.396 0.872" stroke="hsl(0.0,100%,35%)" stroke-width="0.00034"></path>
<path d="M0.900 0.727 Q0.923 0.532 0.547 0.478" stroke="hsl(0.0,100%,35%)" stroke-width="0.00034"></path>
<path d="M0.900 0.727 Q0.402 0.605 0.053 0.821" stroke="hsl(0.0,100%,35%)" stroke-width="0.00101"></path>
<path d="M0.272 0.907 Q0.231 0.820 0.053 0.821" stroke="hsl(0.0,100%,35%)" stroke-width="0.00201"></path>
<path d="M0.272 0.907 Q1.294 1.034 1.767 0.563" stroke="hsl(0.0,100%,35%)" stroke-width="0.00067"></path>
<path d="M0.272 0.907 Q0.530 0.829 0.433 0.686" stroke="hsl(0.0,100%,35%)" stroke-width="0.00034"></path>
<path d="M0.365 0.941 Q0.604 0.827 0.433 0.686" stroke="hsl(0.0,100%,35%)" stroke-width="0.00034"></path>
<path d="M0.365 0.941 Q0.305 0.819 0.053 0.821" stroke="hsl(0.0,100%,35%)" stroke-width="0.00134"></path>
<path d="M0.365 0.941 Q1.368 1.033 1.767 0.563" stroke="hsl(0.0,100%,35%)" stroke-width="0.00067"></path>
<path d="M0.049 0.712 Q-0.006 0.830 0.213 0.883" stroke="hsl(0.0,100%,35%)" stroke-width="0.00034"></path>
<path d="M0.049 0.712 Q-0.037 0.767 0.053 0.821" stroke="hsl(0.0,100%,35%)" stroke-width="0.00402"></path>
<path d="M0.049 0.712 Q0.338 0.728 0.433 0.591" stroke="hsl(0.0,100%,35%)" stroke-width="0.00067"></path>
<path d="M0.049 0.712 Q0.383 0.955 0.931 0.845" stroke="hsl(0.0,100%,35%)" stroke-width="0.00134"></path>
<path d="M0.049 0.712 Q0.262 0.776 0.433 0.686" stroke="hsl(0.0,100%,35%)" stroke-width="0.00101"></path>
<path d="M0.049 0.712 Q0.485 0.694 0.547 0.478" stroke="hsl(0.0,100%,35%)" stroke-width="0.00034"></path>
<path d="M0.049 0.712 Q1.026 0.981 1.767 0.563" stroke="hsl(0.0,100%,35%)" stroke-width="0.00134"></path>
<path d="M0.049 0.712 Q0.888 1.083 1.798 0.756" stroke="hsl(0.0,100%,35%)" stroke-width="0.00034"></path>
</g>
<text x="1.581" y="0.428" font-size="0.034725" fill="hsl(0.0,100%,20%)">a.annestrand</text>
<text x="1.767" y="0.532" font-size="0.062518" fill="hsl(0.0,100%,20%)">geofflang</text>
<text x="0.053" y="0.772" font-size="0.099060" fill="hsl(0.0,100%,20%)">syoussefi</text>
<text x="1.798" y="0.734" font-size="0.043256" fill="hsl(0.0,100%,20%)">cnorthrop</text>
<text x="0.433" y="0.654" font-size="0.063442" fill="hsl(0.0,100%,20%)">cclao</text>
<text x="0.931" y="0.828" font-size="0.034605" fill="hsl(0.0,100%,20%)">ynovikov</text>
<text x="0.260" y="0.725" font-size="0.030245" fill="hsl(0.0,100%,20%)">g.tammana</text>
<text x="1.766" y="0.359" font-size="0.014127" fill="hsl(0.0,100%,20%)">a.dean1</text>
<text x="0.547" y="0.455" font-size="0.046230" fill="hsl(0.0,100%,20%)">romanl</text>
<text x="0.433" y="0.567" font-size="0.048254" fill="hsl(0.0,100%,20%)">abdolrashidi</text>
<text x="0.096" y="0.484" font-size="0.009564" fill="hsl(0.0,100%,20%)">zzyiwei</text>
<text x="0.156" y="0.601" font-size="0.045596" fill="hsl(0.0,100%,20%)">yuxinhu</text>
<text x="0.213" y="0.866" font-size="0.033257" fill="hsl(0.0,100%,20%)">m.maiya</text>
<text x="0.542" y="0.692" font-size="0.009990" fill="hsl(0.0,100%,20%)">aurora.zhang</text>
<text x="0.180" y="0.523" font-size="0.002884" fill="hsl(0.0,100%,20%)">gregschlom</text>
<text x="0.457" y="0.985" font-size="0.002884" fill="hsl(0.0,100%,20%)">slumpwuffle</text>
<text x="1.541" y="0.880" font-size="0.011169" fill="hsl(0.0,100%,20%)">chris</text>
<text x="1.396" y="0.862" font-size="0.020795" fill="hsl(0.0,100%,20%)">kbr</text>
<text x="1.451" y="0.498" font-size="0.041087" fill="hsl(0.0,100%,20%)">lexa.knyazev</text>
<text x="1.790" y="0.857" font-size="0.023250" fill="hsl(0.0,100%,20%)">mark</text>
<text x="1.591" y="0.803" font-size="0.002884" fill="hsl(0.0,100%,20%)">mikes</text>
<text x="0.293" y="0.507" font-size="0.014704" fill="hsl(0.0,100%,20%)">solti</text>
<text x="0.238" y="0.353" font-size="0.006448" fill="hsl(0.0,100%,20%)">dextero</text>
<text x="1.852" y="0.392" font-size="0.007630" fill="hsl(0.0,100%,20%)">djg</text>
<text x="1.492" y="0.772" font-size="0.018689" fill="hsl(0.0,100%,20%)">lehoangquyen</text>
<text x="0.532" y="0.280" font-size="0.004995" fill="hsl(0.0,100%,20%)">dloehr</text>
<text x="1.032" y="0.697" font-size="0.024639" fill="hsl(0.0,100%,20%)">liza</text>
<text x="1.271" y="0.642" font-size="0.025469" fill="hsl(0.0,100%,20%)">mpdenton</text>
<text x="1.623" y="0.614" font-size="0.002884" fill="hsl(0.0,100%,20%)">johnstiles</text>
<text x="1.594" y="0.232" font-size="0.004078" fill="hsl(0.0,100%,20%)">vasilyt</text>
<text x="1.518" y="0.558" font-size="0.004078" fill="hsl(0.0,100%,20%)">zmo</text>
<text x="1.619" y="0.667" font-size="0.002884" fill="hsl(0.0,100%,20%)">dsinclair</text>
<text x="1.140" y="0.058" font-size="0.004078" fill="hsl(0.0,100%,20%)">cwallez</text>
<text x="1.162" y="0.474" font-size="0.033999" fill="hsl(0.0,100%,20%)">kkinnunen</text>
<text x="1.575" y="0.322" font-size="0.004078" fill="hsl(0.0,100%,20%)">senorblanco</text>
<text x="0.211" y="0.444" font-size="0.009119" fill="hsl(0.0,100%,20%)">hailinzhang</text>
<text x="0.664" y="0.951" font-size="0.007064" fill="hsl(0.0,100%,20%)">hans</text>
<text x="0.745" y="0.735" font-size="0.006448" fill="hsl(0.0,100%,20%)">hocheung</text>
<text x="0.541" y="0.144" font-size="0.007064" fill="hsl(0.0,100%,20%)">hoonee.cho</text>
<text x="0.347" y="0.707" font-size="0.031458" fill="hsl(0.0,100%,20%)">i.nazarov</text>
<text x="1.535" y="0.954" font-size="0.008156" fill="hsl(0.0,100%,20%)">justonli</text>
<text x="1.254" y="0.816" font-size="0.007630" fill="hsl(0.0,100%,20%)">lerica</text>
<text x="1.417" y="0.056" font-size="0.005767" fill="hsl(0.0,100%,20%)">lichenliu</text>
<text x="0.445" y="0.963" font-size="0.002884" fill="hsl(0.0,100%,20%)">ianelliott</text>
<text x="0.268" y="0.940" font-size="0.004078" fill="hsl(0.0,100%,20%)">hibrian</text>
<text x="0.060" y="1.139" font-size="0.006448" fill="hsl(0.0,100%,20%)">mavis.deng</text>
<text x="1.068" y="0.374" font-size="0.008156" fill="hsl(0.0,100%,20%)">mscott</text>
<text x="0.057" y="0.543" font-size="0.011890" fill="hsl(0.0,100%,20%)">neil.zhang</text>
<text x="0.305" y="0.833" font-size="0.017777" fill="hsl(0.0,100%,20%)">r.khurram</text>
<text x="0.038" y="0.532" font-size="0.007064" fill="hsl(0.0,100%,20%)">robic.sun</text>
<text x="0.690" y="0.518" font-size="0.002884" fill="hsl(0.0,100%,20%)">egdaniel</text>
<text x="0.382" y="0.888" font-size="0.008156" fill="hsl(0.0,100%,20%)">rop</text>
<text x="0.608" y="0.952" font-size="0.002884" fill="hsl(0.0,100%,20%)">qjw</text>
<text x="0.567" y="0.542" font-size="0.013215" fill="hsl(0.0,100%,20%)">shufen.ma</text>
<text x="0.878" y="0.510" font-size="0.004995" fill="hsl(0.0,100%,20%)">sokcevic</text>
<text x="0.827" y="0.409" font-size="0.002884" fill="hsl(0.0,100%,20%)">jwata</text>
<text x="0.650" y="0.331" font-size="0.010790" fill="hsl(0.0,100%,20%)">steven</text>
<text x="0.426" y="0.810" font-size="0.004078" fill="hsl(0.0,100%,20%)">natsu</text>
<text x="0.900" y="0.722" font-size="0.009990" fill="hsl(0.0,100%,20%)">tikuta</text>
<text x="0.272" y="0.903" font-size="0.008651" fill="hsl(0.0,100%,20%)">xin.yuan</text>
<text x="0.365" y="0.937" font-size="0.007630" fill="hsl(0.0,100%,20%)">xinyu.fang</text>
<text x="0.640" y="0.843" font-size="0.010398" fill="hsl(0.0,100%,20%)">bsheedy</text>
<text x="0.049" y="0.704" font-size="0.015259" fill="hsl(0.0,100%,20%)">yuxiang.qian</text>
<text x="0.030" y="0.537" font-size="0.002884" fill="hsl(0.0,100%,20%)">zijunzhao</text>
<text x="0.159" y="0.390" font-size="0.002884" fill="hsl(0.0,100%,20%)">lepton</text>
</svg>
