<svg width="4000" height="2000" viewBox="-0.025 -0.025 2.05 1.05" xmlns="http://www.w3.org/2000/svg">
  <style>
    path {
      fill: none;
      stroke-linecap: round;
      stroke-opacity: 0.4;
    }

    text {
      text-anchor: middle;
      alignment-baseline: hanging;
    }
  </style>
  <g opacity="0.4">
<path d="M0.565 0.457 Q0.507 0.275 0.139 0.263" stroke="hsl(0.0,100%,35%)" stroke-width="0.01085"></path>
<path d="M0.565 0.457 Q0.647 0.300 0.358 0.226" stroke="hsl(0.0,100%,35%)" stroke-width="0.02131"></path>
<path d="M0.565 0.457 Q0.744 0.903 1.654 0.914" stroke="hsl(0.0,100%,35%)" stroke-width="0.00116"></path>
<path d="M0.565 0.457 Q0.817 0.731 1.407 0.668" stroke="hsl(0.0,100%,35%)" stroke-width="0.00775"></path>
<path d="M0.565 0.457 Q1.030 0.314 0.853 0.056" stroke="hsl(0.0,100%,35%)" stroke-width="0.00077"></path>
<path d="M0.565 0.457 Q0.483 0.350 0.257 0.367" stroke="hsl(0.0,100%,35%)" stroke-width="0.00039"></path>
<path d="M0.565 0.457 Q0.958 0.611 1.344 0.453" stroke="hsl(0.0,100%,35%)" stroke-width="0.00039"></path>
<path d="M0.565 0.457 Q0.163 0.754 0.654 1.015" stroke="hsl(0.0,100%,35%)" stroke-width="0.00155"></path>
<path d="M0.139 0.263 Q0.278 0.288 0.358 0.226" stroke="hsl(0.0,100%,35%)" stroke-width="0.03914"></path>
<path d="M0.139 0.263 Q0.044 0.300 0.096 0.355" stroke="hsl(0.0,100%,35%)" stroke-width="0.00116"></path>
<path d="M0.139 0.263 Q0.197 0.445 0.565 0.457" stroke="hsl(0.0,100%,35%)" stroke-width="0.01317"></path>
<path d="M0.139 0.263 Q0.295 0.332 0.465 0.271" stroke="hsl(0.0,100%,35%)" stroke-width="0.00116"></path>
<path d="M0.139 0.263 Q0.661 0.302 0.853 0.056" stroke="hsl(0.0,100%,35%)" stroke-width="0.00077"></path>
<path d="M0.139 0.263 Q0.449 0.719 1.407 0.668" stroke="hsl(0.0,100%,35%)" stroke-width="0.00077"></path>
<path d="M0.139 0.263 Q-0.205 0.742 0.654 1.015" stroke="hsl(0.0,100%,35%)" stroke-width="0.00077"></path>
<path d="M0.139 0.263 Q0.376 0.891 1.654 0.914" stroke="hsl(0.0,100%,35%)" stroke-width="0.00194"></path>
<path d="M0.139 0.263 Q0.589 0.599 1.344 0.453" stroke="hsl(0.0,100%,35%)" stroke-width="0.01744"></path>
<path d="M0.139 0.263 Q-0.097 0.453 0.223 0.610" stroke="hsl(0.0,100%,35%)" stroke-width="0.00039"></path>
<path d="M0.139 0.263 Q0.505 0.373 0.801 0.219" stroke="hsl(0.0,100%,35%)" stroke-width="0.00039"></path>
<path d="M0.358 0.226 Q0.277 0.383 0.565 0.457" stroke="hsl(0.0,100%,35%)" stroke-width="0.01279"></path>
<path d="M0.358 0.226 Q0.219 0.200 0.139 0.263" stroke="hsl(0.0,100%,35%)" stroke-width="0.03216"></path>
<path d="M0.358 0.226 Q0.669 0.537 1.344 0.453" stroke="hsl(0.0,100%,35%)" stroke-width="0.02751"></path>
<path d="M0.358 0.226 Q-0.125 0.680 0.654 1.015" stroke="hsl(0.0,100%,35%)" stroke-width="0.02441"></path>
<path d="M0.358 0.226 Q0.124 0.238 0.096 0.355" stroke="hsl(0.0,100%,35%)" stroke-width="0.00426"></path>
<path d="M0.358 0.226 Q0.741 0.240 0.853 0.056" stroke="hsl(0.0,100%,35%)" stroke-width="0.00542"></path>
<path d="M0.358 0.226 Q0.493 0.278 0.624 0.223" stroke="hsl(0.0,100%,35%)" stroke-width="0.00077"></path>
<path d="M0.358 0.226 Q0.816 0.738 1.916 0.627" stroke="hsl(0.0,100%,35%)" stroke-width="0.00155"></path>
<path d="M0.358 0.226 Q0.529 0.657 1.407 0.668" stroke="hsl(0.0,100%,35%)" stroke-width="0.00310"></path>
<path d="M0.358 0.226 Q0.195 0.276 0.257 0.367" stroke="hsl(0.0,100%,35%)" stroke-width="0.00039"></path>
<path d="M0.358 0.226 Q-0.122 0.508 0.324 0.805" stroke="hsl(0.0,100%,35%)" stroke-width="0.00039"></path>
<path d="M0.358 0.226 Q0.456 0.829 1.654 0.914" stroke="hsl(0.0,100%,35%)" stroke-width="0.00775"></path>
<path d="M0.358 0.226 Q0.661 0.726 1.704 0.688" stroke="hsl(0.0,100%,35%)" stroke-width="0.00077"></path>
<path d="M0.358 0.226 Q0.069 0.727 0.983 0.978" stroke="hsl(0.0,100%,35%)" stroke-width="0.00155"></path>
<path d="M0.358 0.226 Q0.301 0.258 0.351 0.293" stroke="hsl(0.0,100%,35%)" stroke-width="0.00155"></path>
<path d="M0.358 0.226 Q0.066 0.311 0.168 0.472" stroke="hsl(0.0,100%,35%)" stroke-width="0.00039"></path>
<path d="M0.358 0.226 Q0.486 0.351 0.758 0.317" stroke="hsl(0.0,100%,35%)" stroke-width="0.00039"></path>
<path d="M1.654 0.914 Q1.557 0.311 0.358 0.226" stroke="hsl(0.0,100%,35%)" stroke-width="0.02054"></path>
<path d="M1.654 0.914 Q1.940 0.325 0.853 0.056" stroke="hsl(0.0,100%,35%)" stroke-width="0.00387"></path>
<path d="M1.654 0.914 Q1.475 0.468 0.565 0.457" stroke="hsl(0.0,100%,35%)" stroke-width="0.00542"></path>
<path d="M1.654 0.914 Q1.727 0.742 1.407 0.668" stroke="hsl(0.0,100%,35%)" stroke-width="0.01240"></path>
<path d="M1.654 0.914 Q1.868 0.622 1.344 0.453" stroke="hsl(0.0,100%,35%)" stroke-width="0.00465"></path>
<path d="M1.654 0.914 Q1.073 0.764 0.654 1.015" stroke="hsl(0.0,100%,35%)" stroke-width="0.00116"></path>
<path d="M1.654 0.914 Q1.418 0.285 0.139 0.263" stroke="hsl(0.0,100%,35%)" stroke-width="0.00349"></path>
<path d="M1.654 0.914 Q2.015 0.823 1.916 0.627" stroke="hsl(0.0,100%,35%)" stroke-width="0.00039"></path>
<path d="M1.654 0.914 Q2.118 0.725 1.852 0.457" stroke="hsl(0.0,100%,35%)" stroke-width="0.00039"></path>
<path d="M1.407 0.668 Q1.195 0.717 1.244 0.831" stroke="hsl(0.0,100%,35%)" stroke-width="0.00775"></path>
<path d="M1.407 0.668 Q1.146 0.582 0.920 0.690" stroke="hsl(0.0,100%,35%)" stroke-width="0.00155"></path>
<path d="M1.407 0.668 Q1.334 0.841 1.654 0.914" stroke="hsl(0.0,100%,35%)" stroke-width="0.00814"></path>
<path d="M1.407 0.668 Q1.237 0.237 0.358 0.226" stroke="hsl(0.0,100%,35%)" stroke-width="0.00271"></path>
<path d="M1.407 0.668 Q1.619 0.251 0.853 0.056" stroke="hsl(0.0,100%,35%)" stroke-width="0.00155"></path>
<path d="M1.407 0.668 Q1.334 0.584 1.153 0.601" stroke="hsl(0.0,100%,35%)" stroke-width="0.00077"></path>
<path d="M1.407 0.668 Q1.097 0.212 0.139 0.263" stroke="hsl(0.0,100%,35%)" stroke-width="0.00116"></path>
<path d="M1.407 0.668 Q1.155 0.394 0.565 0.457" stroke="hsl(0.0,100%,35%)" stroke-width="0.00077"></path>
<path d="M1.407 0.668 Q0.753 0.691 0.654 1.015" stroke="hsl(0.0,100%,35%)" stroke-width="0.00039"></path>
<path d="M1.407 0.668 Q1.548 0.548 1.344 0.453" stroke="hsl(0.0,100%,35%)" stroke-width="0.00039"></path>
<path d="M0.853 0.056 Q0.470 0.042 0.358 0.226" stroke="hsl(0.0,100%,35%)" stroke-width="0.00349"></path>
<path d="M0.853 0.056 Q-0.013 0.496 0.654 1.015" stroke="hsl(0.0,100%,35%)" stroke-width="0.00232"></path>
<path d="M0.853 0.056 Q0.838 0.107 0.932 0.125" stroke="hsl(0.0,100%,35%)" stroke-width="0.00581"></path>
<path d="M0.853 0.056 Q1.032 0.457 1.852 0.457" stroke="hsl(0.0,100%,35%)" stroke-width="0.00194"></path>
<path d="M0.853 0.056 Q0.781 0.353 1.344 0.453" stroke="hsl(0.0,100%,35%)" stroke-width="0.00155"></path>
<path d="M0.853 0.056 Q0.568 0.645 1.654 0.914" stroke="hsl(0.0,100%,35%)" stroke-width="0.00387"></path>
<path d="M0.853 0.056 Q0.641 0.473 1.407 0.668" stroke="hsl(0.0,100%,35%)" stroke-width="0.00271"></path>
<path d="M0.853 0.056 Q0.331 0.017 0.139 0.263" stroke="hsl(0.0,100%,35%)" stroke-width="0.00039"></path>
<path d="M0.853 0.056 Q0.389 0.199 0.565 0.457" stroke="hsl(0.0,100%,35%)" stroke-width="0.00039"></path>
<path d="M0.257 0.367 Q0.420 0.316 0.358 0.226" stroke="hsl(0.0,100%,35%)" stroke-width="0.00387"></path>
<path d="M0.257 0.367 Q0.281 0.291 0.139 0.263" stroke="hsl(0.0,100%,35%)" stroke-width="0.00039"></path>
<path d="M0.257 0.367 Q0.591 0.747 1.407 0.668" stroke="hsl(0.0,100%,35%)" stroke-width="0.00077"></path>
<path d="M0.257 0.367 Q0.518 0.920 1.654 0.914" stroke="hsl(0.0,100%,35%)" stroke-width="0.00077"></path>
<path d="M0.257 0.367 Q0.073 0.401 0.099 0.498" stroke="hsl(0.0,100%,35%)" stroke-width="0.00039"></path>
<path d="M1.344 0.453 Q0.952 0.299 0.565 0.457" stroke="hsl(0.0,100%,35%)" stroke-width="0.00426"></path>
<path d="M1.344 0.453 Q1.033 0.142 0.358 0.226" stroke="hsl(0.0,100%,35%)" stroke-width="0.00426"></path>
<path d="M1.344 0.453 Q1.131 0.489 1.153 0.601" stroke="hsl(0.0,100%,35%)" stroke-width="0.00039"></path>
<path d="M1.344 0.453 Q0.894 0.117 0.139 0.263" stroke="hsl(0.0,100%,35%)" stroke-width="0.00310"></path>
<path d="M1.344 0.453 Q1.416 0.157 0.853 0.056" stroke="hsl(0.0,100%,35%)" stroke-width="0.00039"></path>
<path d="M1.344 0.453 Q1.595 0.557 1.852 0.457" stroke="hsl(0.0,100%,35%)" stroke-width="0.00039"></path>
<path d="M1.344 0.453 Q1.131 0.746 1.654 0.914" stroke="hsl(0.0,100%,35%)" stroke-width="0.00077"></path>
<path d="M1.344 0.453 Q1.204 0.573 1.407 0.668" stroke="hsl(0.0,100%,35%)" stroke-width="0.00077"></path>
<path d="M0.654 1.015 Q1.138 0.561 0.358 0.226" stroke="hsl(0.0,100%,35%)" stroke-width="0.02790"></path>
<path d="M0.654 1.015 Q0.657 0.844 0.324 0.805" stroke="hsl(0.0,100%,35%)" stroke-width="0.00465"></path>
<path d="M0.654 1.015 Q0.604 0.914 0.396 0.916" stroke="hsl(0.0,100%,35%)" stroke-width="0.00349"></path>
<path d="M0.654 1.015 Q1.235 1.165 1.654 0.914" stroke="hsl(0.0,100%,35%)" stroke-width="0.00077"></path>
<path d="M0.654 1.015 Q1.596 1.073 1.916 0.627" stroke="hsl(0.0,100%,35%)" stroke-width="0.00116"></path>
<path d="M0.654 1.015 Q0.768 0.941 0.649 0.869" stroke="hsl(0.0,100%,35%)" stroke-width="0.00039"></path>
<path d="M0.654 1.015 Q0.848 1.062 0.983 0.978" stroke="hsl(0.0,100%,35%)" stroke-width="0.00155"></path>
<path d="M0.654 1.015 Q0.998 0.536 0.139 0.263" stroke="hsl(0.0,100%,35%)" stroke-width="0.00039"></path>
<path d="M0.654 1.015 Q1.520 0.575 0.853 0.056" stroke="hsl(0.0,100%,35%)" stroke-width="0.00155"></path>
<path d="M0.654 1.015 Q0.910 0.980 0.898 0.847" stroke="hsl(0.0,100%,35%)" stroke-width="0.00039"></path>
<path d="M0.654 1.015 Q1.308 0.992 1.407 0.668" stroke="hsl(0.0,100%,35%)" stroke-width="0.00194"></path>
<path d="M0.654 1.015 Q1.056 0.718 0.565 0.457" stroke="hsl(0.0,100%,35%)" stroke-width="0.00116"></path>
<path d="M0.654 1.015 Q1.449 0.872 1.344 0.453" stroke="hsl(0.0,100%,35%)" stroke-width="0.00077"></path>
<path d="M0.654 1.015 Q0.914 0.949 0.842 0.807" stroke="hsl(0.0,100%,35%)" stroke-width="0.00039"></path>
<path d="M0.654 1.015 Q0.856 0.902 0.680 0.779" stroke="hsl(0.0,100%,35%)" stroke-width="0.00039"></path>
<path d="M0.654 1.015 Q1.441 1.062 1.704 0.688" stroke="hsl(0.0,100%,35%)" stroke-width="0.00039"></path>
<path d="M0.654 1.015 Q0.831 0.873 0.592 0.755" stroke="hsl(0.0,100%,35%)" stroke-width="0.00077"></path>
<path d="M0.654 1.015 Q0.764 0.934 0.630 0.862" stroke="hsl(0.0,100%,35%)" stroke-width="0.00039"></path>
<path d="M0.654 1.015 Q0.865 0.983 0.849 0.873" stroke="hsl(0.0,100%,35%)" stroke-width="0.00039"></path>
<path d="M1.182 0.679 Q1.516 0.302 0.853 0.056" stroke="hsl(0.0,100%,35%)" stroke-width="0.00039"></path>
<path d="M1.182 0.679 Q1.303 0.718 1.407 0.668" stroke="hsl(0.0,100%,35%)" stroke-width="0.00077"></path>
<path d="M1.182 0.679 Q1.230 0.891 1.654 0.914" stroke="hsl(0.0,100%,35%)" stroke-width="0.00039"></path>
<path d="M0.932 0.125 Q0.948 0.075 0.853 0.056" stroke="hsl(0.0,100%,35%)" stroke-width="0.00310"></path>
<path d="M0.932 0.125 Q0.081 0.514 0.654 1.015" stroke="hsl(0.0,100%,35%)" stroke-width="0.00039"></path>
<path d="M0.932 0.125 Q1.088 0.165 1.200 0.098" stroke="hsl(0.0,100%,35%)" stroke-width="0.00039"></path>
<path d="M0.096 0.355 Q0.330 0.343 0.358 0.226" stroke="hsl(0.0,100%,35%)" stroke-width="0.03061"></path>
<path d="M0.096 0.355 Q0.191 0.317 0.139 0.263" stroke="hsl(0.0,100%,35%)" stroke-width="0.01085"></path>
<path d="M0.096 0.355 Q0.249 0.500 0.565 0.457" stroke="hsl(0.0,100%,35%)" stroke-width="0.00039"></path>
<path d="M0.096 0.355 Q0.641 0.654 1.344 0.453" stroke="hsl(0.0,100%,35%)" stroke-width="0.00077"></path>
<path d="M0.096 0.355 Q-0.153 0.797 0.654 1.015" stroke="hsl(0.0,100%,35%)" stroke-width="0.00116"></path>
<path d="M0.096 0.355 Q0.501 0.774 1.407 0.668" stroke="hsl(0.0,100%,35%)" stroke-width="0.00039"></path>
<path d="M0.465 0.271 Q0.309 0.202 0.139 0.263" stroke="hsl(0.0,100%,35%)" stroke-width="0.00194"></path>
<path d="M0.465 0.271 Q0.619 0.658 1.407 0.668" stroke="hsl(0.0,100%,35%)" stroke-width="0.00077"></path>
<path d="M0.465 0.271 Q0.448 0.227 0.358 0.226" stroke="hsl(0.0,100%,35%)" stroke-width="0.00077"></path>
<path d="M1.244 0.831 Q1.456 0.782 1.407 0.668" stroke="hsl(0.0,100%,35%)" stroke-width="0.01162"></path>
<path d="M1.244 0.831 Q1.286 0.351 0.358 0.226" stroke="hsl(0.0,100%,35%)" stroke-width="0.00155"></path>
<path d="M1.244 0.831 Q1.668 0.365 0.853 0.056" stroke="hsl(0.0,100%,35%)" stroke-width="0.00039"></path>
<path d="M1.244 0.831 Q0.802 0.805 0.654 1.015" stroke="hsl(0.0,100%,35%)" stroke-width="0.00039"></path>
<path d="M0.920 0.690 Q1.181 0.777 1.407 0.668" stroke="hsl(0.0,100%,35%)" stroke-width="0.00116"></path>
<path d="M0.920 0.690 Q1.108 0.949 1.654 0.914" stroke="hsl(0.0,100%,35%)" stroke-width="0.00077"></path>
<path d="M0.920 0.690 Q0.969 0.826 1.244 0.831" stroke="hsl(0.0,100%,35%)" stroke-width="0.00039"></path>
<path d="M1.709 0.764 Q1.561 0.828 1.654 0.914" stroke="hsl(0.0,100%,35%)" stroke-width="0.00116"></path>
<path d="M1.709 0.764 Q1.464 0.225 0.358 0.226" stroke="hsl(0.0,100%,35%)" stroke-width="0.00039"></path>
<path d="M1.709 0.764 Q1.847 0.239 0.853 0.056" stroke="hsl(0.0,100%,35%)" stroke-width="0.00039"></path>
<path d="M0.683 0.386 Q0.649 0.241 0.358 0.226" stroke="hsl(0.0,100%,35%)" stroke-width="0.00077"></path>
<path d="M0.683 0.386 Q0.952 0.741 1.704 0.688" stroke="hsl(0.0,100%,35%)" stroke-width="0.00077"></path>
<path d="M0.683 0.386 Q1.032 0.255 0.853 0.056" stroke="hsl(0.0,100%,35%)" stroke-width="0.00039"></path>
<path d="M0.683 0.386 Q0.165 0.694 0.654 1.015" stroke="hsl(0.0,100%,35%)" stroke-width="0.00116"></path>
<path d="M0.683 0.386 Q1.107 0.752 1.916 0.627" stroke="hsl(0.0,100%,35%)" stroke-width="0.00077"></path>
<path d="M1.704 0.688 Q0.917 0.642 0.654 1.015" stroke="hsl(0.0,100%,35%)" stroke-width="0.00736"></path>
<path d="M1.704 0.688 Q1.859 0.700 1.916 0.627" stroke="hsl(0.0,100%,35%)" stroke-width="0.00504"></path>
<path d="M1.704 0.688 Q1.111 0.689 0.983 0.978" stroke="hsl(0.0,100%,35%)" stroke-width="0.00039"></path>
<path d="M1.584 0.402 Q1.209 0.672 1.654 0.914" stroke="hsl(0.0,100%,35%)" stroke-width="0.00039"></path>
<path d="M1.584 0.402 Q1.423 0.380 1.344 0.453" stroke="hsl(0.0,100%,35%)" stroke-width="0.00039"></path>
<path d="M1.584 0.402 Q1.112 0.069 0.358 0.226" stroke="hsl(0.0,100%,35%)" stroke-width="0.00039"></path>
<path d="M0.419 0.314 Q0.459 0.258 0.358 0.226" stroke="hsl(0.0,100%,35%)" stroke-width="0.01395"></path>
<path d="M0.419 0.314 Q-0.025 0.712 0.654 1.015" stroke="hsl(0.0,100%,35%)" stroke-width="0.00155"></path>
<path d="M0.419 0.314 Q0.320 0.232 0.139 0.263" stroke="hsl(0.0,100%,35%)" stroke-width="0.00581"></path>
<path d="M0.324 0.805 Q0.271 0.875 0.396 0.916" stroke="hsl(0.0,100%,35%)" stroke-width="0.00620"></path>
<path d="M0.324 0.805 Q0.804 0.522 0.358 0.226" stroke="hsl(0.0,100%,35%)" stroke-width="0.00891"></path>
<path d="M0.324 0.805 Q0.321 0.976 0.654 1.015" stroke="hsl(0.0,100%,35%)" stroke-width="0.00465"></path>
<path d="M0.324 0.805 Q0.902 1.125 1.654 0.914" stroke="hsl(0.0,100%,35%)" stroke-width="0.00039"></path>
<path d="M0.324 0.805 Q0.857 0.418 0.220 0.073" stroke="hsl(0.0,100%,35%)" stroke-width="0.00039"></path>
<path d="M0.396 0.916 Q0.450 0.846 0.324 0.805" stroke="hsl(0.0,100%,35%)" stroke-width="0.00387"></path>
<path d="M0.396 0.916 Q0.930 0.564 0.358 0.226" stroke="hsl(0.0,100%,35%)" stroke-width="0.00504"></path>
<path d="M0.396 0.916 Q0.446 1.017 0.654 1.015" stroke="hsl(0.0,100%,35%)" stroke-width="0.00349"></path>
<path d="M0.983 0.978 Q1.730 0.989 1.916 0.627" stroke="hsl(0.0,100%,35%)" stroke-width="0.01162"></path>
<path d="M0.983 0.978 Q1.272 0.477 0.358 0.226" stroke="hsl(0.0,100%,35%)" stroke-width="0.02286"></path>
<path d="M0.983 0.978 Q1.575 0.977 1.704 0.688" stroke="hsl(0.0,100%,35%)" stroke-width="0.00387"></path>
<path d="M0.983 0.978 Q1.095 0.738 0.651 0.631" stroke="hsl(0.0,100%,35%)" stroke-width="0.01162"></path>
<path d="M0.983 0.978 Q0.789 0.931 0.654 1.015" stroke="hsl(0.0,100%,35%)" stroke-width="0.02829"></path>
<path d="M0.983 0.978 Q1.655 0.491 0.853 0.056" stroke="hsl(0.0,100%,35%)" stroke-width="0.00039"></path>
<path d="M0.983 0.978 Q1.133 0.452 0.139 0.263" stroke="hsl(0.0,100%,35%)" stroke-width="0.00039"></path>
<path d="M1.594 0.573 Q0.771 0.606 0.654 1.015" stroke="hsl(0.0,100%,35%)" stroke-width="0.00039"></path>
<path d="M1.594 0.573 Q1.712 0.664 1.916 0.627" stroke="hsl(0.0,100%,35%)" stroke-width="0.00039"></path>
<path d="M1.594 0.573 Q1.557 0.652 1.704 0.688" stroke="hsl(0.0,100%,35%)" stroke-width="0.00039"></path>
<path d="M0.337 0.480 Q0.470 0.514 0.565 0.457" stroke="hsl(0.0,100%,35%)" stroke-width="0.00116"></path>
<path d="M0.337 0.480 Q0.412 0.332 0.139 0.263" stroke="hsl(0.0,100%,35%)" stroke-width="0.00232"></path>
<path d="M0.337 0.480 Q0.551 0.357 0.358 0.226" stroke="hsl(0.0,100%,35%)" stroke-width="0.00155"></path>
<path d="M0.337 0.480 Q0.934 0.371 0.853 0.056" stroke="hsl(0.0,100%,35%)" stroke-width="0.00039"></path>
<path d="M0.337 0.480 Q0.862 0.668 1.344 0.453" stroke="hsl(0.0,100%,35%)" stroke-width="0.00039"></path>
<path d="M0.131 0.736 Q0.653 0.526 0.358 0.226" stroke="hsl(0.0,100%,35%)" stroke-width="0.00077"></path>
<path d="M0.131 0.736 Q0.169 0.980 0.654 1.015" stroke="hsl(0.0,100%,35%)" stroke-width="0.00039"></path>
<path d="M0.131 0.736 Q0.119 0.879 0.396 0.916" stroke="hsl(0.0,100%,35%)" stroke-width="0.00039"></path>
<path d="M0.351 0.293 Q0.269 0.236 0.139 0.263" stroke="hsl(0.0,100%,35%)" stroke-width="0.00620"></path>
<path d="M0.351 0.293 Q0.409 0.261 0.358 0.226" stroke="hsl(0.0,100%,35%)" stroke-width="0.01085"></path>
<path d="M0.351 0.293 Q-0.075 0.715 0.654 1.015" stroke="hsl(0.0,100%,35%)" stroke-width="0.00039"></path>
<path d="M0.351 0.293 Q0.174 0.273 0.096 0.355" stroke="hsl(0.0,100%,35%)" stroke-width="0.00116"></path>
<path d="M0.351 0.293 Q0.506 0.864 1.654 0.914" stroke="hsl(0.0,100%,35%)" stroke-width="0.00039"></path>
<path d="M0.351 0.293 Q0.327 0.418 0.565 0.457" stroke="hsl(0.0,100%,35%)" stroke-width="0.00077"></path>
<path d="M0.651 0.631 Q0.345 0.824 0.654 1.015" stroke="hsl(0.0,100%,35%)" stroke-width="0.00814"></path>
<path d="M0.651 0.631 Q0.828 0.370 0.358 0.226" stroke="hsl(0.0,100%,35%)" stroke-width="0.00775"></path>
<path d="M0.651 0.631 Q1.287 0.882 1.916 0.627" stroke="hsl(0.0,100%,35%)" stroke-width="0.00659"></path>
<path d="M0.651 0.631 Q0.539 0.871 0.983 0.978" stroke="hsl(0.0,100%,35%)" stroke-width="0.00465"></path>
<path d="M0.651 0.631 Q1.132 0.870 1.704 0.688" stroke="hsl(0.0,100%,35%)" stroke-width="0.00116"></path>
<path d="M0.651 0.631 Q0.533 0.570 0.388 0.613" stroke="hsl(0.0,100%,35%)" stroke-width="0.00039"></path>
<path d="M1.941 0.728 Q2.010 0.672 1.916 0.627" stroke="hsl(0.0,100%,35%)" stroke-width="0.00077"></path>
<path d="M1.941 0.728 Q1.262 0.662 0.983 0.978" stroke="hsl(0.0,100%,35%)" stroke-width="0.00039"></path>
<path d="M1.941 0.728 Q1.552 0.161 0.358 0.226" stroke="hsl(0.0,100%,35%)" stroke-width="0.00116"></path>
<path d="M1.941 0.728 Q1.374 0.422 0.651 0.631" stroke="hsl(0.0,100%,35%)" stroke-width="0.00077"></path>
<path d="M0.220 0.073 Q0.478 0.488 1.344 0.453" stroke="hsl(0.0,100%,35%)" stroke-width="0.00039"></path>
<path d="M0.220 0.073 Q0.167 0.177 0.358 0.226" stroke="hsl(0.0,100%,35%)" stroke-width="0.00039"></path>
<path d="M0.220 0.073 Q0.237 0.072 0.240 0.064" stroke="hsl(0.0,100%,35%)" stroke-width="0.00039"></path>
<path d="M0.220 0.073 Q0.550 0.191 0.853 0.056" stroke="hsl(0.0,100%,35%)" stroke-width="0.00039"></path>
<path d="M0.431 0.677 Q0.755 0.437 0.358 0.226" stroke="hsl(0.0,100%,35%)" stroke-width="0.00077"></path>
<path d="M0.431 0.677 Q0.578 0.698 0.651 0.631" stroke="hsl(0.0,100%,35%)" stroke-width="0.00155"></path>
<path d="M0.431 0.677 Q0.272 0.891 0.654 1.015" stroke="hsl(0.0,100%,35%)" stroke-width="0.00077"></path>
<path d="M1.852 0.457 Q1.601 0.354 1.344 0.453" stroke="hsl(0.0,100%,35%)" stroke-width="0.00271"></path>
<path d="M1.852 0.457 Q1.673 0.057 0.853 0.056" stroke="hsl(0.0,100%,35%)" stroke-width="0.00077"></path>
<path d="M1.852 0.457 Q1.290 0.043 0.358 0.226" stroke="hsl(0.0,100%,35%)" stroke-width="0.00155"></path>
<path d="M1.852 0.457 Q1.461 0.474 1.407 0.668" stroke="hsl(0.0,100%,35%)" stroke-width="0.00039"></path>
<path d="M0.168 0.472 Q0.460 0.387 0.358 0.226" stroke="hsl(0.0,100%,35%)" stroke-width="0.00194"></path>
<path d="M0.168 0.472 Q0.843 0.401 0.853 0.056" stroke="hsl(0.0,100%,35%)" stroke-width="0.00039"></path>
<path d="M0.168 0.472 Q0.918 0.899 1.916 0.627" stroke="hsl(0.0,100%,35%)" stroke-width="0.00039"></path>
<path d="M0.168 0.472 Q0.379 0.544 0.565 0.457" stroke="hsl(0.0,100%,35%)" stroke-width="0.00039"></path>
<path d="M0.659 0.097 Q0.503 0.704 1.654 0.914" stroke="hsl(0.0,100%,35%)" stroke-width="0.00039"></path>
<path d="M0.659 0.097 Q0.788 0.115 0.853 0.056" stroke="hsl(0.0,100%,35%)" stroke-width="0.00194"></path>
<path d="M0.659 0.097 Q0.864 0.613 1.916 0.627" stroke="hsl(0.0,100%,35%)" stroke-width="0.00039"></path>
</g>
<text x="0.565" y="0.433" font-size="0.048750" fill="hsl(0.0,100%,20%)">abdolrashidi</text>
<text x="0.139" y="0.230" font-size="0.066213" fill="hsl(0.0,100%,20%)">cclao</text>
<text x="0.358" y="0.176" font-size="0.100460" fill="hsl(0.0,100%,20%)">syoussefi</text>
<text x="1.654" y="0.890" font-size="0.047738" fill="hsl(0.0,100%,20%)">romanl</text>
<text x="1.407" y="0.646" font-size="0.044441" fill="hsl(0.0,100%,20%)">cnorthrop</text>
<text x="0.853" y="0.038" font-size="0.035784" fill="hsl(0.0,100%,20%)">ynovikov</text>
<text x="0.257" y="0.360" font-size="0.013976" fill="hsl(0.0,100%,20%)">zzyiwei</text>
<text x="1.344" y="0.431" font-size="0.044806" fill="hsl(0.0,100%,20%)">yuxinhu</text>
<text x="0.654" y="0.984" font-size="0.062155" fill="hsl(0.0,100%,20%)">geofflang</text>
<text x="1.182" y="0.676" font-size="0.006588" fill="hsl(0.0,100%,20%)">banisingh</text>
<text x="0.932" y="0.117" font-size="0.016471" fill="hsl(0.0,100%,20%)">bsheedy</text>
<text x="1.200" y="0.097" font-size="0.003294" fill="hsl(0.0,100%,20%)">chanli</text>
<text x="0.096" y="0.336" font-size="0.037704" fill="hsl(0.0,100%,20%)">m.maiya</text>
<text x="0.465" y="0.266" font-size="0.011412" fill="hsl(0.0,100%,20%)">chrisforbes</text>
<text x="0.223" y="0.609" font-size="0.003294" fill="hsl(0.0,100%,20%)">gregschlom</text>
<text x="0.801" y="0.217" font-size="0.003294" fill="hsl(0.0,100%,20%)">slumpwuffle</text>
<text x="1.244" y="0.819" font-size="0.024871" fill="hsl(0.0,100%,20%)">mark</text>
<text x="0.920" y="0.685" font-size="0.010417" fill="hsl(0.0,100%,20%)">mikes</text>
<text x="1.153" y="0.598" font-size="0.005706" fill="hsl(0.0,100%,20%)">lpy</text>
<text x="1.709" y="0.760" font-size="0.007366" fill="hsl(0.0,100%,20%)">dextero</text>
<text x="0.683" y="0.380" font-size="0.010417" fill="hsl(0.0,100%,20%)">djg</text>
<text x="1.704" y="0.676" font-size="0.023755" fill="hsl(0.0,100%,20%)">lehoangquyen</text>
<text x="1.916" y="0.612" font-size="0.028529" fill="hsl(0.0,100%,20%)">kbr</text>
<text x="1.584" y="0.399" font-size="0.005706" fill="hsl(0.0,100%,20%)">dloehr</text>
<text x="0.419" y="0.302" font-size="0.024431" fill="hsl(0.0,100%,20%)">g.tammana</text>
<text x="0.324" y="0.790" font-size="0.028718" fill="hsl(0.0,100%,20%)">liza</text>
<text x="0.396" y="0.904" font-size="0.025088" fill="hsl(0.0,100%,20%)">mpdenton</text>
<text x="0.649" y="0.867" font-size="0.003294" fill="hsl(0.0,100%,20%)">penghuang</text>
<text x="0.983" y="0.953" font-size="0.049523" fill="hsl(0.0,100%,20%)">lexa.knyazev</text>
<text x="0.898" y="0.846" font-size="0.003294" fill="hsl(0.0,100%,20%)">jamesgk</text>
<text x="0.842" y="0.806" font-size="0.003294" fill="hsl(0.0,100%,20%)">johnstiles</text>
<text x="0.680" y="0.777" font-size="0.003294" fill="hsl(0.0,100%,20%)">vasilyt</text>
<text x="0.592" y="0.753" font-size="0.004659" fill="hsl(0.0,100%,20%)">zmo</text>
<text x="0.630" y="0.860" font-size="0.003294" fill="hsl(0.0,100%,20%)">dsinclair</text>
<text x="0.849" y="0.871" font-size="0.003294" fill="hsl(0.0,100%,20%)">cwallez</text>
<text x="1.594" y="0.570" font-size="0.005706" fill="hsl(0.0,100%,20%)">gman</text>
<text x="0.337" y="0.474" font-size="0.012758" fill="hsl(0.0,100%,20%)">hailinzhang</text>
<text x="0.131" y="0.732" font-size="0.006588" fill="hsl(0.0,100%,20%)">hocheung</text>
<text x="0.351" y="0.281" font-size="0.024431" fill="hsl(0.0,100%,20%)">i.nazarov</text>
<text x="0.651" y="0.613" font-size="0.034550" fill="hsl(0.0,100%,20%)">kkinnunen</text>
<text x="0.388" y="0.612" font-size="0.003294" fill="hsl(0.0,100%,20%)">kpiddington</text>
<text x="1.941" y="0.724" font-size="0.009317" fill="hsl(0.0,100%,20%)">lerica</text>
<text x="0.220" y="0.069" font-size="0.007366" fill="hsl(0.0,100%,20%)">sokcevic</text>
<text x="0.431" y="0.672" font-size="0.009317" fill="hsl(0.0,100%,20%)">mscott</text>
<text x="1.852" y="0.450" font-size="0.015096" fill="hsl(0.0,100%,20%)">solti</text>
<text x="0.240" y="0.062" font-size="0.003294" fill="hsl(0.0,100%,20%)">jwata</text>
<text x="0.168" y="0.467" font-size="0.009883" fill="hsl(0.0,100%,20%)">steven</text>
<text x="0.624" y="0.221" font-size="0.004659" fill="hsl(0.0,100%,20%)">a.annestrand</text>
<text x="0.758" y="0.315" font-size="0.003294" fill="hsl(0.0,100%,20%)">natsu</text>
<text x="0.659" y="0.092" font-size="0.008716" fill="hsl(0.0,100%,20%)">tikuta</text>
<text x="0.099" y="0.496" font-size="0.003294" fill="hsl(0.0,100%,20%)">lepton</text>
</svg>
