<svg width="4000" height="2000" viewBox="-0.025 -0.025 2.05 1.05" xmlns="http://www.w3.org/2000/svg">
  <style>
    path {
      fill: none;
      stroke-linecap: round;
      stroke-opacity: 0.4;
    }

    text {
      text-anchor: middle;
      alignment-baseline: hanging;
    }
  </style>
  <g opacity="0.4">
<path d="M1.685 0.503 Q1.753 0.431 1.628 0.382" stroke="hsl(0.0,100%,35%)" stroke-width="0.00138"></path>
<path d="M1.685 0.503 Q0.945 0.362 0.507 0.692" stroke="hsl(0.0,100%,35%)" stroke-width="0.00069"></path>
<path d="M1.685 0.503 Q1.258 0.285 0.739 0.445" stroke="hsl(0.0,100%,35%)" stroke-width="0.00138"></path>
<path d="M1.685 0.503 Q1.109 0.284 0.555 0.516" stroke="hsl(0.0,100%,35%)" stroke-width="0.00069"></path>
<path d="M0.507 0.692 Q0.754 0.720 0.863 0.605" stroke="hsl(0.0,100%,35%)" stroke-width="0.00415"></path>
<path d="M0.507 0.692 Q0.702 0.666 0.696 0.566" stroke="hsl(0.0,100%,35%)" stroke-width="0.00207"></path>
<path d="M0.507 0.692 Q0.733 0.554 0.512 0.413" stroke="hsl(0.0,100%,35%)" stroke-width="0.00069"></path>
<path d="M0.507 0.692 Q0.820 0.615 0.739 0.445" stroke="hsl(0.0,100%,35%)" stroke-width="0.01452"></path>
<path d="M0.507 0.692 Q1.364 0.561 1.297 0.114" stroke="hsl(0.0,100%,35%)" stroke-width="0.00691"></path>
<path d="M0.507 0.692 Q0.568 0.801 0.794 0.795" stroke="hsl(0.0,100%,35%)" stroke-width="0.00346"></path>
<path d="M0.507 0.692 Q0.235 0.800 0.386 0.956" stroke="hsl(0.0,100%,35%)" stroke-width="0.01106"></path>
<path d="M0.507 0.692 Q0.672 0.614 0.555 0.516" stroke="hsl(0.0,100%,35%)" stroke-width="0.00277"></path>
<path d="M0.507 0.692 Q0.907 0.536 0.691 0.306" stroke="hsl(0.0,100%,35%)" stroke-width="0.00069"></path>
<path d="M0.507 0.692 Q0.386 0.886 0.739 0.988" stroke="hsl(0.0,100%,35%)" stroke-width="0.00968"></path>
<path d="M0.507 0.692 Q0.676 0.791 0.906 0.730" stroke="hsl(0.0,100%,35%)" stroke-width="0.00069"></path>
<path d="M0.507 0.692 Q1.029 0.481 0.731 0.180" stroke="hsl(0.0,100%,35%)" stroke-width="0.00069"></path>
<path d="M0.739 0.445 Q1.283 0.391 1.297 0.114" stroke="hsl(0.0,100%,35%)" stroke-width="0.00277"></path>
<path d="M0.739 0.445 Q0.426 0.522 0.507 0.692" stroke="hsl(0.0,100%,35%)" stroke-width="0.00346"></path>
<path d="M0.739 0.445 Q0.487 0.631 0.794 0.795" stroke="hsl(0.0,100%,35%)" stroke-width="0.00069"></path>
<path d="M0.739 0.445 Q0.590 0.444 0.555 0.516" stroke="hsl(0.0,100%,35%)" stroke-width="0.00069"></path>
<path d="M0.739 0.445 Q0.154 0.630 0.386 0.956" stroke="hsl(0.0,100%,35%)" stroke-width="0.00207"></path>
<path d="M0.739 0.445 Q0.826 0.366 0.691 0.306" stroke="hsl(0.0,100%,35%)" stroke-width="0.00691"></path>
<path d="M0.739 0.445 Q0.304 0.717 0.739 0.988" stroke="hsl(0.0,100%,35%)" stroke-width="0.00207"></path>
<path d="M0.739 0.445 Q0.673 0.550 0.863 0.605" stroke="hsl(0.0,100%,35%)" stroke-width="0.00138"></path>
<path d="M0.739 0.445 Q0.594 0.621 0.906 0.730" stroke="hsl(0.0,100%,35%)" stroke-width="0.00069"></path>
<path d="M0.739 0.445 Q0.651 0.384 0.512 0.413" stroke="hsl(0.0,100%,35%)" stroke-width="0.00069"></path>
<path d="M0.739 0.445 Q0.331 0.580 0.503 0.808" stroke="hsl(0.0,100%,35%)" stroke-width="0.00069"></path>
<path d="M0.555 0.516 Q0.269 0.789 0.739 0.988" stroke="hsl(0.0,100%,35%)" stroke-width="0.00207"></path>
<path d="M0.555 0.516 Q0.391 0.594 0.507 0.692" stroke="hsl(0.0,100%,35%)" stroke-width="0.00830"></path>
<path d="M0.555 0.516 Q0.704 0.517 0.739 0.445" stroke="hsl(0.0,100%,35%)" stroke-width="0.00069"></path>
<path d="M0.555 0.516 Q0.638 0.622 0.863 0.605" stroke="hsl(0.0,100%,35%)" stroke-width="0.00069"></path>
<path d="M0.555 0.516 Q0.452 0.703 0.794 0.795" stroke="hsl(0.0,100%,35%)" stroke-width="0.00069"></path>
<path d="M0.386 0.956 Q0.658 0.848 0.507 0.692" stroke="hsl(0.0,100%,35%)" stroke-width="0.01729"></path>
<path d="M0.386 0.956 Q0.853 0.823 0.696 0.566" stroke="hsl(0.0,100%,35%)" stroke-width="0.00069"></path>
<path d="M0.386 0.956 Q0.905 0.876 0.863 0.605" stroke="hsl(0.0,100%,35%)" stroke-width="0.00830"></path>
<path d="M0.386 0.956 Q0.537 1.043 0.739 0.988" stroke="hsl(0.0,100%,35%)" stroke-width="0.00622"></path>
<path d="M0.386 0.956 Q0.891 0.659 0.422 0.348" stroke="hsl(0.0,100%,35%)" stroke-width="0.00069"></path>
<path d="M0.386 0.956 Q0.971 0.771 0.739 0.445" stroke="hsl(0.0,100%,35%)" stroke-width="0.00138"></path>
<path d="M0.696 0.566 Q0.501 0.591 0.507 0.692" stroke="hsl(0.0,100%,35%)" stroke-width="0.01659"></path>
<path d="M0.696 0.566 Q1.358 0.460 1.297 0.114" stroke="hsl(0.0,100%,35%)" stroke-width="0.00069"></path>
<path d="M0.696 0.566 Q0.747 0.619 0.863 0.605" stroke="hsl(0.0,100%,35%)" stroke-width="0.00830"></path>
<path d="M0.863 0.605 Q0.616 0.578 0.507 0.692" stroke="hsl(0.0,100%,35%)" stroke-width="0.02697"></path>
<path d="M0.863 0.605 Q0.494 0.772 0.739 0.988" stroke="hsl(0.0,100%,35%)" stroke-width="0.00899"></path>
<path d="M0.863 0.605 Q0.780 0.499 0.555 0.516" stroke="hsl(0.0,100%,35%)" stroke-width="0.00069"></path>
<path d="M0.863 0.605 Q1.473 0.447 1.297 0.114" stroke="hsl(0.0,100%,35%)" stroke-width="0.00484"></path>
<path d="M0.863 0.605 Q0.344 0.685 0.386 0.956" stroke="hsl(0.0,100%,35%)" stroke-width="0.01314"></path>
<path d="M0.863 0.605 Q0.929 0.501 0.739 0.445" stroke="hsl(0.0,100%,35%)" stroke-width="0.00138"></path>
<path d="M0.863 0.605 Q0.677 0.687 0.794 0.795" stroke="hsl(0.0,100%,35%)" stroke-width="0.00069"></path>
<path d="M0.739 0.988 Q0.588 0.902 0.386 0.956" stroke="hsl(0.0,100%,35%)" stroke-width="0.02282"></path>
<path d="M0.739 0.988 Q0.921 0.903 0.794 0.795" stroke="hsl(0.0,100%,35%)" stroke-width="0.00207"></path>
<path d="M0.739 0.988 Q0.860 0.794 0.507 0.692" stroke="hsl(0.0,100%,35%)" stroke-width="0.01659"></path>
<path d="M0.739 0.988 Q1.107 0.822 0.863 0.605" stroke="hsl(0.0,100%,35%)" stroke-width="0.00415"></path>
<path d="M0.739 0.988 Q1.055 0.768 0.696 0.566" stroke="hsl(0.0,100%,35%)" stroke-width="0.00138"></path>
<path d="M0.739 0.988 Q1.173 0.717 0.739 0.445" stroke="hsl(0.0,100%,35%)" stroke-width="0.00138"></path>
<path d="M0.739 0.988 Q0.637 0.743 0.135 0.739" stroke="hsl(0.0,100%,35%)" stroke-width="0.00069"></path>
<path d="M0.422 0.348 Q0.189 0.537 0.507 0.692" stroke="hsl(0.0,100%,35%)" stroke-width="0.02351"></path>
<path d="M0.422 0.348 Q0.068 0.731 0.739 0.988" stroke="hsl(0.0,100%,35%)" stroke-width="0.00138"></path>
<path d="M0.422 0.348 Q0.436 0.565 0.863 0.605" stroke="hsl(0.0,100%,35%)" stroke-width="0.01106"></path>
<path d="M0.422 0.348 Q1.046 0.406 1.297 0.114" stroke="hsl(0.0,100%,35%)" stroke-width="0.00069"></path>
<path d="M0.422 0.348 Q0.354 0.459 0.555 0.516" stroke="hsl(0.0,100%,35%)" stroke-width="0.00069"></path>
<path d="M0.422 0.348 Q0.502 0.460 0.739 0.445" stroke="hsl(0.0,100%,35%)" stroke-width="0.00069"></path>
<path d="M0.841 0.387 Q0.677 0.500 0.863 0.605" stroke="hsl(0.0,100%,35%)" stroke-width="0.00207"></path>
<path d="M0.841 0.387 Q0.430 0.473 0.507 0.692" stroke="hsl(0.0,100%,35%)" stroke-width="0.00622"></path>
<path d="M0.841 0.387 Q1.287 0.342 1.297 0.114" stroke="hsl(0.0,100%,35%)" stroke-width="0.00069"></path>
<path d="M0.841 0.387 Q0.754 0.742 1.429 0.863" stroke="hsl(0.0,100%,35%)" stroke-width="0.00069"></path>
<path d="M0.841 0.387 Q0.158 0.580 0.386 0.956" stroke="hsl(0.0,100%,35%)" stroke-width="0.00069"></path>
<path d="M0.841 0.387 Q0.309 0.667 0.739 0.988" stroke="hsl(0.0,100%,35%)" stroke-width="0.00207"></path>
<path d="M1.297 0.114 Q0.440 0.245 0.507 0.692" stroke="hsl(0.0,100%,35%)" stroke-width="0.00761"></path>
<path d="M1.297 0.114 Q0.665 0.519 1.316 0.916" stroke="hsl(0.0,100%,35%)" stroke-width="0.00069"></path>
<path d="M1.297 0.114 Q1.223 0.174 1.322 0.223" stroke="hsl(0.0,100%,35%)" stroke-width="0.01037"></path>
<path d="M1.297 0.114 Q1.175 0.013 0.951 0.050" stroke="hsl(0.0,100%,35%)" stroke-width="0.00830"></path>
<path d="M1.297 0.114 Q0.889 0.433 1.422 0.702" stroke="hsl(0.0,100%,35%)" stroke-width="0.00069"></path>
<path d="M1.297 0.114 Q0.962 0.034 0.731 0.180" stroke="hsl(0.0,100%,35%)" stroke-width="0.00484"></path>
<path d="M1.297 0.114 Q1.408 0.171 1.543 0.130" stroke="hsl(0.0,100%,35%)" stroke-width="0.00069"></path>
<path d="M1.297 0.114 Q1.055 0.078 0.932 0.189" stroke="hsl(0.0,100%,35%)" stroke-width="0.00069"></path>
<path d="M1.429 0.863 Q1.962 0.462 1.297 0.114" stroke="hsl(0.0,100%,35%)" stroke-width="0.00069"></path>
<path d="M1.429 0.863 Q0.881 0.542 0.135 0.739" stroke="hsl(0.0,100%,35%)" stroke-width="0.00069"></path>
<path d="M1.429 0.863 Q1.105 0.593 0.507 0.692" stroke="hsl(0.0,100%,35%)" stroke-width="0.00138"></path>
<path d="M0.794 0.795 Q1.591 0.555 1.297 0.114" stroke="hsl(0.0,100%,35%)" stroke-width="0.00415"></path>
<path d="M0.794 0.795 Q1.047 0.609 0.739 0.445" stroke="hsl(0.0,100%,35%)" stroke-width="0.00346"></path>
<path d="M0.794 0.795 Q0.461 0.794 0.386 0.956" stroke="hsl(0.0,100%,35%)" stroke-width="0.00138"></path>
<path d="M0.794 0.795 Q0.898 0.608 0.555 0.516" stroke="hsl(0.0,100%,35%)" stroke-width="0.00207"></path>
<path d="M0.794 0.795 Q0.733 0.686 0.507 0.692" stroke="hsl(0.0,100%,35%)" stroke-width="0.00346"></path>
<path d="M0.794 0.795 Q0.997 0.812 1.075 0.717" stroke="hsl(0.0,100%,35%)" stroke-width="0.00277"></path>
<path d="M0.794 0.795 Q0.612 0.881 0.739 0.988" stroke="hsl(0.0,100%,35%)" stroke-width="0.00138"></path>
<path d="M1.422 0.702 Q1.297 0.784 1.429 0.863" stroke="hsl(0.0,100%,35%)" stroke-width="0.00830"></path>
<path d="M1.422 0.702 Q0.750 0.463 0.135 0.739" stroke="hsl(0.0,100%,35%)" stroke-width="0.00346"></path>
<path d="M1.422 0.702 Q0.973 0.514 0.507 0.692" stroke="hsl(0.0,100%,35%)" stroke-width="0.00622"></path>
<path d="M0.135 0.739 Q1.216 0.659 1.297 0.114" stroke="hsl(0.0,100%,35%)" stroke-width="0.01590"></path>
<path d="M0.135 0.739 Q0.359 0.790 0.507 0.692" stroke="hsl(0.0,100%,35%)" stroke-width="0.04909"></path>
<path d="M0.135 0.739 Q0.808 0.978 1.422 0.702" stroke="hsl(0.0,100%,35%)" stroke-width="0.00069"></path>
<path d="M0.135 0.739 Q0.683 1.060 1.429 0.863" stroke="hsl(0.0,100%,35%)" stroke-width="0.00138"></path>
<path d="M0.135 0.739 Q0.672 0.713 0.739 0.445" stroke="hsl(0.0,100%,35%)" stroke-width="0.00138"></path>
<path d="M0.135 0.739 Q0.237 0.984 0.739 0.988" stroke="hsl(0.0,100%,35%)" stroke-width="0.00138"></path>
<path d="M0.135 0.739 Q0.087 0.898 0.386 0.956" stroke="hsl(0.0,100%,35%)" stroke-width="0.00069"></path>
<path d="M0.135 0.739 Q0.584 1.063 1.316 0.916" stroke="hsl(0.0,100%,35%)" stroke-width="0.00069"></path>
<path d="M0.135 0.739 Q0.528 0.889 0.906 0.730" stroke="hsl(0.0,100%,35%)" stroke-width="0.00069"></path>
<path d="M0.906 0.730 Q1.050 0.554 0.739 0.445" stroke="hsl(0.0,100%,35%)" stroke-width="0.00830"></path>
<path d="M0.906 0.730 Q0.737 0.631 0.507 0.692" stroke="hsl(0.0,100%,35%)" stroke-width="0.01106"></path>
<path d="M0.906 0.730 Q0.465 0.739 0.386 0.956" stroke="hsl(0.0,100%,35%)" stroke-width="0.01452"></path>
<path d="M0.906 0.730 Q0.963 0.493 0.512 0.413" stroke="hsl(0.0,100%,35%)" stroke-width="0.00138"></path>
<path d="M0.906 0.730 Q0.616 0.826 0.739 0.988" stroke="hsl(0.0,100%,35%)" stroke-width="0.00691"></path>
<path d="M0.906 0.730 Q1.594 0.501 1.297 0.114" stroke="hsl(0.0,100%,35%)" stroke-width="0.00138"></path>
<path d="M0.906 0.730 Q0.932 0.606 0.696 0.566" stroke="hsl(0.0,100%,35%)" stroke-width="0.00069"></path>
<path d="M0.906 0.730 Q0.984 0.659 0.863 0.605" stroke="hsl(0.0,100%,35%)" stroke-width="0.00207"></path>
<path d="M0.512 0.413 Q0.165 0.746 0.739 0.988" stroke="hsl(0.0,100%,35%)" stroke-width="0.00138"></path>
<path d="M0.512 0.413 Q0.348 0.661 0.794 0.795" stroke="hsl(0.0,100%,35%)" stroke-width="0.00069"></path>
<path d="M0.512 0.413 Q1.144 0.421 1.297 0.114" stroke="hsl(0.0,100%,35%)" stroke-width="0.00069"></path>
<path d="M0.512 0.413 Q0.600 0.474 0.739 0.445" stroke="hsl(0.0,100%,35%)" stroke-width="0.00069"></path>
<path d="M0.512 0.413 Q0.287 0.551 0.507 0.692" stroke="hsl(0.0,100%,35%)" stroke-width="0.00069"></path>
<path d="M0.503 0.808 Q0.598 0.751 0.507 0.692" stroke="hsl(0.0,100%,35%)" stroke-width="0.00069"></path>
<path d="M0.503 0.808 Q0.326 0.859 0.386 0.956" stroke="hsl(0.0,100%,35%)" stroke-width="0.00207"></path>
<path d="M0.503 0.808 Q0.477 0.945 0.739 0.988" stroke="hsl(0.0,100%,35%)" stroke-width="0.00138"></path>
<path d="M0.503 0.808 Q0.845 0.779 0.863 0.605" stroke="hsl(0.0,100%,35%)" stroke-width="0.00069"></path>
<path d="M0.503 0.808 Q0.912 0.674 0.739 0.445" stroke="hsl(0.0,100%,35%)" stroke-width="0.00069"></path>
<path d="M1.037 0.988 Q0.737 0.842 0.386 0.956" stroke="hsl(0.0,100%,35%)" stroke-width="0.00138"></path>
<path d="M1.037 0.988 Q0.888 0.928 0.739 0.988" stroke="hsl(0.0,100%,35%)" stroke-width="0.00207"></path>
<path d="M1.037 0.988 Q1.866 0.603 1.297 0.114" stroke="hsl(0.0,100%,35%)" stroke-width="0.00069"></path>
<path d="M1.037 0.988 Q1.009 0.734 0.507 0.692" stroke="hsl(0.0,100%,35%)" stroke-width="0.00069"></path>
<path d="M1.037 0.988 Q1.070 0.843 0.794 0.795" stroke="hsl(0.0,100%,35%)" stroke-width="0.00069"></path>
<path d="M1.316 0.916 Q0.867 0.591 0.135 0.739" stroke="hsl(0.0,100%,35%)" stroke-width="0.00069"></path>
<path d="M1.316 0.916 Q1.948 0.511 1.297 0.114" stroke="hsl(0.0,100%,35%)" stroke-width="0.00069"></path>
<path d="M1.316 0.916 Q1.415 0.912 1.429 0.863" stroke="hsl(0.0,100%,35%)" stroke-width="0.00207"></path>
<path d="M1.322 0.223 Q1.397 0.164 1.297 0.114" stroke="hsl(0.0,100%,35%)" stroke-width="0.00138"></path>
<path d="M1.322 0.223 Q0.540 0.294 0.507 0.692" stroke="hsl(0.0,100%,35%)" stroke-width="0.00138"></path>
<path d="M1.322 0.223 Q1.275 0.063 0.951 0.050" stroke="hsl(0.0,100%,35%)" stroke-width="0.00069"></path>
<path d="M0.951 0.050 Q1.073 0.152 1.297 0.114" stroke="hsl(0.0,100%,35%)" stroke-width="0.01037"></path>
<path d="M0.951 0.050 Q0.999 0.211 1.322 0.223" stroke="hsl(0.0,100%,35%)" stroke-width="0.00761"></path>
<path d="M0.951 0.050 Q0.216 0.282 0.507 0.692" stroke="hsl(0.0,100%,35%)" stroke-width="0.00484"></path>
<path d="M1.719 0.749 Q1.384 0.340 0.512 0.413" stroke="hsl(0.0,100%,35%)" stroke-width="0.00069"></path>
<path d="M1.719 0.749 Q1.037 0.672 0.739 0.988" stroke="hsl(0.0,100%,35%)" stroke-width="0.00069"></path>
<path d="M1.719 0.749 Q2.016 0.347 1.297 0.114" stroke="hsl(0.0,100%,35%)" stroke-width="0.00069"></path>
<path d="M1.719 0.749 Q1.158 0.478 0.507 0.692" stroke="hsl(0.0,100%,35%)" stroke-width="0.00138"></path>
<path d="M1.719 0.749 Q1.622 0.836 1.771 0.902" stroke="hsl(0.0,100%,35%)" stroke-width="0.00069"></path>
<path d="M1.032 0.721 Q1.650 0.471 1.297 0.114" stroke="hsl(0.0,100%,35%)" stroke-width="0.00069"></path>
<path d="M1.032 0.721 Q0.854 0.711 0.794 0.795" stroke="hsl(0.0,100%,35%)" stroke-width="0.00069"></path>
<path d="M1.032 0.721 Q0.793 0.602 0.507 0.692" stroke="hsl(0.0,100%,35%)" stroke-width="0.00069"></path>
<path d="M1.032 0.721 Q0.672 0.796 0.739 0.988" stroke="hsl(0.0,100%,35%)" stroke-width="0.00069"></path>
<path d="M0.610 0.492 Q0.646 0.599 0.863 0.605" stroke="hsl(0.0,100%,35%)" stroke-width="0.00069"></path>
<path d="M0.610 0.492 Q0.399 0.572 0.507 0.692" stroke="hsl(0.0,100%,35%)" stroke-width="0.00207"></path>
<path d="M0.610 0.492 Q0.278 0.766 0.739 0.988" stroke="hsl(0.0,100%,35%)" stroke-width="0.00138"></path>
<path d="M1.013 0.896 Q0.923 0.693 0.507 0.692" stroke="hsl(0.0,100%,35%)" stroke-width="0.00069"></path>
<path d="M1.013 0.896 Q0.802 0.887 0.739 0.988" stroke="hsl(0.0,100%,35%)" stroke-width="0.00138"></path>
<path d="M1.013 0.896 Q0.651 0.801 0.386 0.956" stroke="hsl(0.0,100%,35%)" stroke-width="0.00069"></path>
<path d="M1.013 0.896 Q1.237 0.616 0.739 0.445" stroke="hsl(0.0,100%,35%)" stroke-width="0.00138"></path>
<path d="M0.860 0.848 Q0.973 0.621 0.555 0.516" stroke="hsl(0.0,100%,35%)" stroke-width="0.00069"></path>
<path d="M0.860 0.848 Q0.869 0.808 0.794 0.795" stroke="hsl(0.0,100%,35%)" stroke-width="0.00484"></path>
<path d="M0.860 0.848 Q1.121 0.622 0.739 0.445" stroke="hsl(0.0,100%,35%)" stroke-width="0.00138"></path>
<path d="M0.860 0.848 Q0.808 0.699 0.507 0.692" stroke="hsl(0.0,100%,35%)" stroke-width="0.00069"></path>
<path d="M0.860 0.848 Q1.055 0.727 0.863 0.605" stroke="hsl(0.0,100%,35%)" stroke-width="0.00069"></path>
<path d="M0.860 0.848 Q1.665 0.569 1.297 0.114" stroke="hsl(0.0,100%,35%)" stroke-width="0.00138"></path>
<path d="M1.112 0.231 Q0.765 0.610 1.429 0.863" stroke="hsl(0.0,100%,35%)" stroke-width="0.00207"></path>
<path d="M1.112 0.231 Q0.217 0.289 0.135 0.739" stroke="hsl(0.0,100%,35%)" stroke-width="0.00207"></path>
<path d="M1.112 0.231 Q1.298 0.210 1.297 0.114" stroke="hsl(0.0,100%,35%)" stroke-width="0.00830"></path>
<path d="M1.112 0.231 Q0.441 0.340 0.507 0.692" stroke="hsl(0.0,100%,35%)" stroke-width="0.00415"></path>
<path d="M0.881 0.695 Q0.944 0.647 0.863 0.605" stroke="hsl(0.0,100%,35%)" stroke-width="0.00138"></path>
<path d="M0.881 0.695 Q0.697 0.619 0.507 0.692" stroke="hsl(0.0,100%,35%)" stroke-width="0.00553"></path>
<path d="M0.881 0.695 Q1.554 0.488 1.297 0.114" stroke="hsl(0.0,100%,35%)" stroke-width="0.00069"></path>
<path d="M0.881 0.695 Q1.010 0.542 0.739 0.445" stroke="hsl(0.0,100%,35%)" stroke-width="0.00069"></path>
<path d="M0.881 0.695 Q0.425 0.727 0.386 0.956" stroke="hsl(0.0,100%,35%)" stroke-width="0.00069"></path>
<path d="M0.881 0.695 Q0.473 0.568 0.135 0.739" stroke="hsl(0.0,100%,35%)" stroke-width="0.00207"></path>
<path d="M0.936 0.450 Q0.775 0.513 0.863 0.605" stroke="hsl(0.0,100%,35%)" stroke-width="0.00138"></path>
<path d="M0.936 0.450 Q0.528 0.485 0.507 0.692" stroke="hsl(0.0,100%,35%)" stroke-width="0.00277"></path>
<path d="M0.936 0.450 Q0.760 0.296 0.422 0.348" stroke="hsl(0.0,100%,35%)" stroke-width="0.00069"></path>
<path d="M0.936 0.450 Q0.304 0.434 0.135 0.739" stroke="hsl(0.0,100%,35%)" stroke-width="0.00069"></path>
<path d="M0.936 0.450 Q0.841 0.408 0.739 0.445" stroke="hsl(0.0,100%,35%)" stroke-width="0.00069"></path>
<path d="M0.121 0.350 Q-0.183 0.547 0.135 0.739" stroke="hsl(0.0,100%,35%)" stroke-width="0.00069"></path>
<path d="M0.121 0.350 Q0.040 0.598 0.507 0.692" stroke="hsl(0.0,100%,35%)" stroke-width="0.00277"></path>
<path d="M0.121 0.350 Q0.287 0.626 0.863 0.605" stroke="hsl(0.0,100%,35%)" stroke-width="0.00207"></path>
<path d="M0.121 0.350 Q0.898 0.467 1.297 0.114" stroke="hsl(0.0,100%,35%)" stroke-width="0.00069"></path>
<path d="M0.111 0.488 Q0.459 0.592 0.739 0.445" stroke="hsl(0.0,100%,35%)" stroke-width="0.00138"></path>
<path d="M0.111 0.488 Q0.311 0.591 0.555 0.516" stroke="hsl(0.0,100%,35%)" stroke-width="0.00069"></path>
<path d="M0.111 0.488 Q0.393 0.697 0.863 0.605" stroke="hsl(0.0,100%,35%)" stroke-width="0.00069"></path>
<path d="M0.111 0.488 Q0.315 0.768 0.906 0.730" stroke="hsl(0.0,100%,35%)" stroke-width="0.00069"></path>
<path d="M0.818 0.517 Q0.770 0.570 0.863 0.605" stroke="hsl(0.0,100%,35%)" stroke-width="0.00207"></path>
<path d="M0.818 0.517 Q0.523 0.542 0.507 0.692" stroke="hsl(0.0,100%,35%)" stroke-width="0.00415"></path>
<path d="M0.818 0.517 Q1.380 0.412 1.297 0.114" stroke="hsl(0.0,100%,35%)" stroke-width="0.00069"></path>
<path d="M0.818 0.517 Q0.402 0.737 0.739 0.988" stroke="hsl(0.0,100%,35%)" stroke-width="0.00138"></path>
<path d="M0.661 0.254 Q0.547 0.365 0.739 0.445" stroke="hsl(0.0,100%,35%)" stroke-width="0.00138"></path>
<path d="M0.661 0.254 Q0.112 0.636 0.739 0.988" stroke="hsl(0.0,100%,35%)" stroke-width="0.00069"></path>
<path d="M0.661 0.254 Q0.459 0.304 0.512 0.413" stroke="hsl(0.0,100%,35%)" stroke-width="0.00069"></path>
<path d="M0.661 0.254 Q0.233 0.442 0.507 0.692" stroke="hsl(0.0,100%,35%)" stroke-width="0.00069"></path>
<path d="M0.661 0.254 Q-0.039 0.550 0.386 0.956" stroke="hsl(0.0,100%,35%)" stroke-width="0.00069"></path>
<path d="M0.443 0.470 Q0.611 0.517 0.739 0.445" stroke="hsl(0.0,100%,35%)" stroke-width="0.00069"></path>
<path d="M0.443 0.470 Q0.462 0.515 0.555 0.516" stroke="hsl(0.0,100%,35%)" stroke-width="0.00069"></path>
<path d="M0.443 0.470 Q0.545 0.621 0.863 0.605" stroke="hsl(0.0,100%,35%)" stroke-width="0.00277"></path>
<path d="M0.443 0.470 Q0.298 0.594 0.507 0.692" stroke="hsl(0.0,100%,35%)" stroke-width="0.00484"></path>
<path d="M0.443 0.470 Q1.155 0.463 1.297 0.114" stroke="hsl(0.0,100%,35%)" stroke-width="0.00069"></path>
<path d="M0.443 0.470 Q0.026 0.702 0.386 0.956" stroke="hsl(0.0,100%,35%)" stroke-width="0.00069"></path>
<path d="M0.443 0.470 Q0.176 0.788 0.739 0.988" stroke="hsl(0.0,100%,35%)" stroke-width="0.00069"></path>
<path d="M0.443 0.470 Q0.074 0.543 0.135 0.739" stroke="hsl(0.0,100%,35%)" stroke-width="0.00069"></path>
<path d="M0.448 0.483 Q1.167 0.468 1.297 0.114" stroke="hsl(0.0,100%,35%)" stroke-width="0.00138"></path>
<path d="M0.448 0.483 Q0.310 0.599 0.507 0.692" stroke="hsl(0.0,100%,35%)" stroke-width="0.00830"></path>
<path d="M0.448 0.483 Q0.557 0.627 0.863 0.605" stroke="hsl(0.0,100%,35%)" stroke-width="0.00277"></path>
<path d="M0.448 0.483 Q0.038 0.707 0.386 0.956" stroke="hsl(0.0,100%,35%)" stroke-width="0.00207"></path>
<path d="M0.448 0.483 Q0.189 0.794 0.739 0.988" stroke="hsl(0.0,100%,35%)" stroke-width="0.00277"></path>
<path d="M0.448 0.483 Q0.623 0.522 0.739 0.445" stroke="hsl(0.0,100%,35%)" stroke-width="0.00069"></path>
<path d="M0.351 0.379 Q0.179 0.566 0.507 0.692" stroke="hsl(0.0,100%,35%)" stroke-width="0.00277"></path>
<path d="M0.351 0.379 Q0.240 0.676 0.794 0.795" stroke="hsl(0.0,100%,35%)" stroke-width="0.00207"></path>
<path d="M0.351 0.379 Q1.036 0.436 1.297 0.114" stroke="hsl(0.0,100%,35%)" stroke-width="0.00069"></path>
<path d="M0.364 0.400 Q0.397 0.549 0.696 0.566" stroke="hsl(0.0,100%,35%)" stroke-width="0.00069"></path>
<path d="M0.364 0.400 Q0.202 0.574 0.507 0.692" stroke="hsl(0.0,100%,35%)" stroke-width="0.00277"></path>
<path d="M0.364 0.400 Q-0.022 0.523 0.135 0.739" stroke="hsl(0.0,100%,35%)" stroke-width="0.00069"></path>
<path d="M0.364 0.400 Q-0.070 0.682 0.386 0.956" stroke="hsl(0.0,100%,35%)" stroke-width="0.00069"></path>
<path d="M0.364 0.400 Q0.449 0.602 0.863 0.605" stroke="hsl(0.0,100%,35%)" stroke-width="0.00069"></path>
<path d="M0.349 0.554 Q1.175 0.524 1.297 0.114" stroke="hsl(0.0,100%,35%)" stroke-width="0.00069"></path>
<path d="M0.349 0.554 Q0.318 0.655 0.507 0.692" stroke="hsl(0.0,100%,35%)" stroke-width="0.00138"></path>
<path d="M0.349 0.554 Q0.197 0.849 0.739 0.988" stroke="hsl(0.0,100%,35%)" stroke-width="0.00069"></path>
<path d="M0.790 0.017 Q0.966 0.167 1.297 0.114" stroke="hsl(0.0,100%,35%)" stroke-width="0.00207"></path>
<path d="M0.790 0.017 Q0.109 0.298 0.507 0.692" stroke="hsl(0.0,100%,35%)" stroke-width="0.00277"></path>
<path d="M0.790 0.017 Q-0.115 0.247 0.135 0.739" stroke="hsl(0.0,100%,35%)" stroke-width="0.00069"></path>
<path d="M0.372 0.539 Q1.175 0.512 1.297 0.114" stroke="hsl(0.0,100%,35%)" stroke-width="0.00277"></path>
<path d="M0.372 0.539 Q0.318 0.643 0.507 0.692" stroke="hsl(0.0,100%,35%)" stroke-width="0.00691"></path>
<path d="M0.372 0.539 Q0.631 0.566 0.739 0.445" stroke="hsl(0.0,100%,35%)" stroke-width="0.00207"></path>
<path d="M0.372 0.539 Q0.046 0.751 0.386 0.956" stroke="hsl(0.0,100%,35%)" stroke-width="0.00138"></path>
<path d="M0.372 0.539 Q0.094 0.592 0.135 0.739" stroke="hsl(0.0,100%,35%)" stroke-width="0.00069"></path>
</g>
<text x="1.685" y="0.497" font-size="0.010944" fill="hsl(0.0,100%,20%)">a.dean1</text>
<text x="1.628" y="0.379" font-size="0.006318" fill="hsl(0.0,100%,20%)">a.annestrand</text>
<text x="0.507" y="0.644" font-size="0.096029" fill="hsl(0.0,100%,20%)">syoussefi</text>
<text x="0.739" y="0.423" font-size="0.044453" fill="hsl(0.0,100%,20%)">cnorthrop</text>
<text x="0.555" y="0.504" font-size="0.025273" fill="hsl(0.0,100%,20%)">romanl</text>
<text x="0.386" y="0.928" font-size="0.056688" fill="hsl(0.0,100%,20%)">abdolrashidi</text>
<text x="0.696" y="0.551" font-size="0.029970" fill="hsl(0.0,100%,20%)">m.maiya</text>
<text x="0.863" y="0.577" font-size="0.057562" fill="hsl(0.0,100%,20%)">cclao</text>
<text x="0.739" y="0.960" font-size="0.055442" fill="hsl(0.0,100%,20%)">yuxinhu</text>
<text x="0.422" y="0.331" font-size="0.033730" fill="hsl(0.0,100%,20%)">i.nazarov</text>
<text x="0.841" y="0.377" font-size="0.018955" fill="hsl(0.0,100%,20%)">aurora.zhang</text>
<text x="1.297" y="0.086" font-size="0.055801" fill="hsl(0.0,100%,20%)">geofflang</text>
<text x="1.429" y="0.852" font-size="0.022338" fill="hsl(0.0,100%,20%)">kbr</text>
<text x="0.794" y="0.779" font-size="0.031906" fill="hsl(0.0,100%,20%)">ynovikov</text>
<text x="1.422" y="0.691" font-size="0.023641" fill="hsl(0.0,100%,20%)">chris</text>
<text x="0.135" y="0.714" font-size="0.049750" fill="hsl(0.0,100%,20%)">lexa.knyazev</text>
<text x="0.691" y="0.299" font-size="0.014818" fill="hsl(0.0,100%,20%)">mark</text>
<text x="0.906" y="0.711" font-size="0.037645" fill="hsl(0.0,100%,20%)">timvp</text>
<text x="0.512" y="0.405" font-size="0.015476" fill="hsl(0.0,100%,20%)">solti</text>
<text x="0.503" y="0.802" font-size="0.013403" fill="hsl(0.0,100%,20%)">xwxw</text>
<text x="1.037" y="0.982" font-size="0.012636" fill="hsl(0.0,100%,20%)">dloehr</text>
<text x="1.316" y="0.910" font-size="0.011820" fill="hsl(0.0,100%,20%)">lehoangquyen</text>
<text x="1.322" y="0.211" font-size="0.024875" fill="hsl(0.0,100%,20%)">liza</text>
<text x="0.951" y="0.035" font-size="0.030301" fill="hsl(0.0,100%,20%)">mpdenton</text>
<text x="0.731" y="0.173" font-size="0.012636" fill="hsl(0.0,100%,20%)">cwallez</text>
<text x="1.543" y="0.128" font-size="0.004468" fill="hsl(0.0,100%,20%)">blundell</text>
<text x="0.932" y="0.186" font-size="0.004468" fill="hsl(0.0,100%,20%)">vasilyt</text>
<text x="1.719" y="0.743" font-size="0.010944" fill="hsl(0.0,100%,20%)">gyuyoung</text>
<text x="1.771" y="0.900" font-size="0.004468" fill="hsl(0.0,100%,20%)">sunnyps</text>
<text x="1.032" y="0.717" font-size="0.008935" fill="hsl(0.0,100%,20%)">hans</text>
<text x="0.610" y="0.487" font-size="0.010944" fill="hsl(0.0,100%,20%)">jiaqi.li</text>
<text x="1.013" y="0.890" font-size="0.010944" fill="hsl(0.0,100%,20%)">jisunnie.lee</text>
<text x="0.860" y="0.839" font-size="0.016716" fill="hsl(0.0,100%,20%)">jwata</text>
<text x="1.112" y="0.220" font-size="0.021887" fill="hsl(0.0,100%,20%)">kkinnunen</text>
<text x="0.881" y="0.686" font-size="0.017871" fill="hsl(0.0,100%,20%)">mavis.deng</text>
<text x="0.936" y="0.443" font-size="0.013403" fill="hsl(0.0,100%,20%)">neil.zhang</text>
<text x="0.121" y="0.343" font-size="0.013403" fill="hsl(0.0,100%,20%)">panfeng.hou</text>
<text x="0.111" y="0.483" font-size="0.009990" fill="hsl(0.0,100%,20%)">renatopereyra</text>
<text x="0.818" y="0.509" font-size="0.015476" fill="hsl(0.0,100%,20%)">robic.sun</text>
<text x="0.661" y="0.248" font-size="0.010944" fill="hsl(0.0,100%,20%)">shawshanks</text>
<text x="0.443" y="0.461" font-size="0.018421" fill="hsl(0.0,100%,20%)">shufen.ma</text>
<text x="0.448" y="0.471" font-size="0.022781" fill="hsl(0.0,100%,20%)">sywow.choi</text>
<text x="0.351" y="0.372" font-size="0.012636" fill="hsl(0.0,100%,20%)">tikuta</text>
<text x="0.364" y="0.393" font-size="0.012636" fill="hsl(0.0,100%,20%)">tingwei.guo</text>
<text x="0.349" y="0.550" font-size="0.008935" fill="hsl(0.0,100%,20%)">xin.yuan</text>
<text x="0.790" y="0.011" font-size="0.012636" fill="hsl(0.0,100%,20%)">xinyu.fang</text>
<text x="1.075" y="0.713" font-size="0.008935" fill="hsl(0.0,100%,20%)">bsheedy</text>
<text x="0.372" y="0.529" font-size="0.019980" fill="hsl(0.0,100%,20%)">yuxiang.qian</text>
</svg>
