<svg width="4000" height="2000" viewBox="-0.025 -0.025 2.05 1.05" xmlns="http://www.w3.org/2000/svg">
  <style>
    path {
      fill: none;
      stroke-linecap: round;
      stroke-opacity: 0.4;
    }

    text {
      text-anchor: middle;
      alignment-baseline: hanging;
    }
  </style>
  <g opacity="0.4">
<path d="M1.773 0.394 Q1.887 0.291 1.712 0.213" stroke="hsl(0.0,100%,35%)" stroke-width="0.00988"></path>
<path d="M1.773 0.394 Q0.955 0.263 0.519 0.633" stroke="hsl(0.0,100%,35%)" stroke-width="0.01192"></path>
<path d="M1.773 0.394 Q1.417 0.178 0.917 0.305" stroke="hsl(0.0,100%,35%)" stroke-width="0.00102"></path>
<path d="M1.773 0.394 Q0.996 0.366 0.769 0.738" stroke="hsl(0.0,100%,35%)" stroke-width="0.00068"></path>
<path d="M1.773 0.394 Q1.574 0.127 1.009 0.166" stroke="hsl(0.0,100%,35%)" stroke-width="0.00102"></path>
<path d="M1.773 0.394 Q0.801 0.259 0.324 0.704" stroke="hsl(0.0,100%,35%)" stroke-width="0.00068"></path>
<path d="M1.712 0.213 Q1.398 0.049 1.009 0.166" stroke="hsl(0.0,100%,35%)" stroke-width="0.00034"></path>
<path d="M1.712 0.213 Q1.726 0.099 1.506 0.067" stroke="hsl(0.0,100%,35%)" stroke-width="0.00068"></path>
<path d="M1.712 0.213 Q0.779 0.184 0.519 0.633" stroke="hsl(0.0,100%,35%)" stroke-width="0.00783"></path>
<path d="M1.712 0.213 Q1.507 0.141 1.322 0.225" stroke="hsl(0.0,100%,35%)" stroke-width="0.00511"></path>
<path d="M1.712 0.213 Q1.794 0.258 1.901 0.228" stroke="hsl(0.0,100%,35%)" stroke-width="0.00068"></path>
<path d="M1.712 0.213 Q1.407 0.137 1.193 0.269" stroke="hsl(0.0,100%,35%)" stroke-width="0.00681"></path>
<path d="M1.712 0.213 Q1.348 0.368 1.570 0.579" stroke="hsl(0.0,100%,35%)" stroke-width="0.00068"></path>
<path d="M1.712 0.213 Q0.861 -0.024 0.212 0.339" stroke="hsl(0.0,100%,35%)" stroke-width="0.00034"></path>
<path d="M1.712 0.213 Q1.764 0.285 1.916 0.275" stroke="hsl(0.0,100%,35%)" stroke-width="0.00273"></path>
<path d="M1.712 0.213 Q1.711 0.287 1.855 0.304" stroke="hsl(0.0,100%,35%)" stroke-width="0.00034"></path>
<path d="M1.712 0.213 Q1.457 0.226 1.426 0.353" stroke="hsl(0.0,100%,35%)" stroke-width="0.00034"></path>
<path d="M1.712 0.213 Q0.782 0.049 0.257 0.466" stroke="hsl(0.0,100%,35%)" stroke-width="0.00034"></path>
<path d="M1.712 0.213 Q1.576 0.238 1.595 0.310" stroke="hsl(0.0,100%,35%)" stroke-width="0.00068"></path>
<path d="M1.712 0.213 Q0.864 0.256 0.762 0.679" stroke="hsl(0.0,100%,35%)" stroke-width="0.00034"></path>
<path d="M0.519 0.633 Q1.451 0.661 1.712 0.213" stroke="hsl(180.0,100%,35%)" stroke-width="0.01908"></path>
<path d="M0.519 0.633 Q0.373 0.762 0.593 0.862" stroke="hsl(180.0,100%,35%)" stroke-width="0.02418"></path>
<path d="M0.519 0.633 Q0.560 0.736 0.769 0.738" stroke="hsl(180.0,100%,35%)" stroke-width="0.01192"></path>
<path d="M0.519 0.633 Q0.981 0.548 0.917 0.305" stroke="hsl(180.0,100%,35%)" stroke-width="0.01090"></path>
<path d="M0.519 0.633 Q1.138 0.497 1.009 0.166" stroke="hsl(180.0,100%,35%)" stroke-width="0.00409"></path>
<path d="M0.519 0.633 Q0.604 0.704 0.762 0.679" stroke="hsl(180.0,100%,35%)" stroke-width="0.00068"></path>
<path d="M0.519 0.633 Q0.840 0.575 0.798 0.406" stroke="hsl(180.0,100%,35%)" stroke-width="0.01260"></path>
<path d="M0.519 0.633 Q0.608 0.855 1.061 0.860" stroke="hsl(180.0,100%,35%)" stroke-width="0.00341"></path>
<path d="M0.519 0.633 Q0.590 0.799 0.930 0.800" stroke="hsl(180.0,100%,35%)" stroke-width="0.00204"></path>
<path d="M0.519 0.633 Q1.197 0.674 1.426 0.353" stroke="hsl(180.0,100%,35%)" stroke-width="0.00034"></path>
<path d="M0.519 0.633 Q0.236 1.036 0.961 1.263" stroke="hsl(180.0,100%,35%)" stroke-width="0.00034"></path>
<path d="M0.519 0.633 Q1.042 0.723 1.332 0.487" stroke="hsl(180.0,100%,35%)" stroke-width="0.00034"></path>
<path d="M0.519 0.633 Q0.905 0.443 0.618 0.213" stroke="hsl(180.0,100%,35%)" stroke-width="0.00034"></path>
<path d="M0.519 0.633 Q0.922 0.668 1.079 0.479" stroke="hsl(180.0,100%,35%)" stroke-width="0.00034"></path>
<path d="M0.519 0.633 Q1.504 0.733 1.916 0.275" stroke="hsl(180.0,100%,35%)" stroke-width="0.00034"></path>
<path d="M0.519 0.633 Q1.247 0.590 1.322 0.225" stroke="hsl(180.0,100%,35%)" stroke-width="0.00034"></path>
<path d="M0.917 0.305 Q0.545 0.611 1.061 0.860" stroke="hsl(180.0,100%,35%)" stroke-width="0.00511"></path>
<path d="M0.917 0.305 Q0.456 0.389 0.519 0.633" stroke="hsl(180.0,100%,35%)" stroke-width="0.00681"></path>
<path d="M0.917 0.305 Q0.841 0.199 0.618 0.213" stroke="hsl(180.0,100%,35%)" stroke-width="0.01465"></path>
<path d="M0.917 0.305 Q0.979 0.479 1.332 0.487" stroke="hsl(180.0,100%,35%)" stroke-width="0.00068"></path>
<path d="M0.917 0.305 Q1.075 0.254 1.009 0.166" stroke="hsl(180.0,100%,35%)" stroke-width="0.00136"></path>
<path d="M0.917 0.305 Q1.388 0.418 1.712 0.213" stroke="hsl(180.0,100%,35%)" stroke-width="0.00170"></path>
<path d="M0.917 0.305 Q0.777 0.332 0.798 0.406" stroke="hsl(180.0,100%,35%)" stroke-width="0.00375"></path>
<path d="M0.917 0.305 Q0.309 0.519 0.593 0.862" stroke="hsl(180.0,100%,35%)" stroke-width="0.00136"></path>
<path d="M0.917 0.305 Q0.497 0.492 0.769 0.738" stroke="hsl(180.0,100%,35%)" stroke-width="0.00170"></path>
<path d="M0.917 0.305 Q0.859 0.424 1.079 0.479" stroke="hsl(180.0,100%,35%)" stroke-width="0.00034"></path>
<path d="M0.917 0.305 Q0.667 0.355 0.711 0.489" stroke="hsl(180.0,100%,35%)" stroke-width="0.00068"></path>
<path d="M0.769 0.738 Q0.729 0.636 0.519 0.633" stroke="hsl(180.0,100%,35%)" stroke-width="0.03440"></path>
<path d="M0.769 0.738 Q0.582 0.765 0.593 0.862" stroke="hsl(180.0,100%,35%)" stroke-width="0.01226"></path>
<path d="M0.769 0.738 Q1.190 0.551 0.917 0.305" stroke="hsl(180.0,100%,35%)" stroke-width="0.00102"></path>
<path d="M0.769 0.738 Q0.800 0.801 0.930 0.800" stroke="hsl(180.0,100%,35%)" stroke-width="0.00034"></path>
<path d="M0.769 0.738 Q1.049 0.578 0.798 0.406" stroke="hsl(180.0,100%,35%)" stroke-width="0.01771"></path>
<path d="M0.769 0.738 Q0.818 0.858 1.061 0.860" stroke="hsl(180.0,100%,35%)" stroke-width="0.00034"></path>
<path d="M0.769 0.738 Q1.661 0.664 1.712 0.213" stroke="hsl(180.0,100%,35%)" stroke-width="0.00307"></path>
<path d="M0.769 0.738 Q1.347 0.500 1.009 0.166" stroke="hsl(180.0,100%,35%)" stroke-width="0.00034"></path>
<path d="M1.009 0.166 Q0.390 0.301 0.519 0.633" stroke="hsl(180.0,100%,35%)" stroke-width="0.00477"></path>
<path d="M1.009 0.166 Q0.852 0.217 0.917 0.305" stroke="hsl(180.0,100%,35%)" stroke-width="0.00307"></path>
<path d="M1.009 0.166 Q0.480 0.523 1.061 0.860" stroke="hsl(180.0,100%,35%)" stroke-width="0.00204"></path>
<path d="M1.009 0.166 Q0.959 0.260 1.131 0.305" stroke="hsl(180.0,100%,35%)" stroke-width="0.00238"></path>
<path d="M1.009 0.166 Q0.431 0.404 0.769 0.738" stroke="hsl(180.0,100%,35%)" stroke-width="0.00034"></path>
<path d="M1.009 0.166 Q0.711 0.244 0.798 0.406" stroke="hsl(180.0,100%,35%)" stroke-width="0.00204"></path>
<path d="M1.009 0.166 Q1.323 0.330 1.712 0.213" stroke="hsl(180.0,100%,35%)" stroke-width="0.00307"></path>
<path d="M1.009 0.166 Q0.244 0.431 0.593 0.862" stroke="hsl(180.0,100%,35%)" stroke-width="0.00068"></path>
<path d="M1.009 0.166 Q1.018 0.254 1.193 0.269" stroke="hsl(180.0,100%,35%)" stroke-width="0.00034"></path>
<path d="M0.324 0.704 Q1.411 0.736 1.712 0.213" stroke="hsl(0.0,100%,35%)" stroke-width="0.01090"></path>
<path d="M0.324 0.704 Q0.478 0.707 0.519 0.633" stroke="hsl(0.0,100%,35%)" stroke-width="0.01465"></path>
<path d="M0.324 0.704 Q1.296 0.839 1.773 0.394" stroke="hsl(0.0,100%,35%)" stroke-width="0.00273"></path>
<path d="M0.324 0.704 Q1.097 0.572 1.009 0.166" stroke="hsl(0.0,100%,35%)" stroke-width="0.00102"></path>
<path d="M0.324 0.704 Q0.940 0.623 0.917 0.305" stroke="hsl(0.0,100%,35%)" stroke-width="0.00034"></path>
<path d="M1.951 0.433 Q2.007 0.275 1.712 0.213" stroke="hsl(0.0,100%,35%)" stroke-width="0.00204"></path>
<path d="M1.951 0.433 Q1.075 0.247 0.519 0.633" stroke="hsl(0.0,100%,35%)" stroke-width="0.00341"></path>
<path d="M1.951 0.433 Q1.164 0.469 1.061 0.860" stroke="hsl(0.0,100%,35%)" stroke-width="0.00136"></path>
<path d="M1.951 0.433 Q1.893 0.378 1.773 0.394" stroke="hsl(0.0,100%,35%)" stroke-width="0.00170"></path>
<path d="M1.951 0.433 Q1.537 0.162 0.917 0.305" stroke="hsl(0.0,100%,35%)" stroke-width="0.00102"></path>
<path d="M1.061 0.860 Q1.293 0.581 0.798 0.406" stroke="hsl(180.0,100%,35%)" stroke-width="0.00238"></path>
<path d="M1.061 0.860 Q1.434 0.554 0.917 0.305" stroke="hsl(180.0,100%,35%)" stroke-width="0.00613"></path>
<path d="M1.061 0.860 Q0.972 0.638 0.519 0.633" stroke="hsl(180.0,100%,35%)" stroke-width="0.01294"></path>
<path d="M1.061 0.860 Q0.825 0.768 0.593 0.862" stroke="hsl(180.0,100%,35%)" stroke-width="0.00170"></path>
<path d="M1.061 0.860 Q1.358 0.448 0.618 0.213" stroke="hsl(180.0,100%,35%)" stroke-width="0.00034"></path>
<path d="M1.061 0.860 Q1.252 0.894 1.359 0.808" stroke="hsl(180.0,100%,35%)" stroke-width="0.00034"></path>
<path d="M1.061 0.860 Q0.916 0.896 0.954 0.975" stroke="hsl(180.0,100%,35%)" stroke-width="0.00034"></path>
<path d="M1.061 0.860 Q1.495 0.728 1.332 0.487" stroke="hsl(180.0,100%,35%)" stroke-width="0.00034"></path>
<path d="M1.061 0.860 Q1.904 0.667 1.712 0.213" stroke="hsl(180.0,100%,35%)" stroke-width="0.00034"></path>
<path d="M1.061 0.860 Q1.591 0.503 1.009 0.166" stroke="hsl(180.0,100%,35%)" stroke-width="0.00102"></path>
<path d="M1.061 0.860 Q1.013 0.741 0.769 0.738" stroke="hsl(180.0,100%,35%)" stroke-width="0.00136"></path>
<path d="M0.798 0.406 Q0.518 0.566 0.769 0.738" stroke="hsl(180.0,100%,35%)" stroke-width="0.00988"></path>
<path d="M0.798 0.406 Q0.477 0.464 0.519 0.633" stroke="hsl(180.0,100%,35%)" stroke-width="0.01669"></path>
<path d="M0.798 0.406 Q0.331 0.593 0.593 0.862" stroke="hsl(180.0,100%,35%)" stroke-width="0.00443"></path>
<path d="M0.798 0.406 Q0.939 0.379 0.917 0.305" stroke="hsl(180.0,100%,35%)" stroke-width="0.00204"></path>
<path d="M0.798 0.406 Q0.566 0.686 1.061 0.860" stroke="hsl(180.0,100%,35%)" stroke-width="0.00034"></path>
<path d="M0.798 0.406 Q1.096 0.328 1.009 0.166" stroke="hsl(180.0,100%,35%)" stroke-width="0.00034"></path>
<path d="M0.798 0.406 Q0.548 0.630 0.930 0.800" stroke="hsl(180.0,100%,35%)" stroke-width="0.00034"></path>
<path d="M0.798 0.406 Q0.699 0.610 1.075 0.703" stroke="hsl(180.0,100%,35%)" stroke-width="0.00034"></path>
<path d="M0.593 0.862 Q0.961 0.879 1.075 0.703" stroke="hsl(180.0,100%,35%)" stroke-width="0.00034"></path>
<path d="M0.593 0.862 Q0.829 0.955 1.061 0.860" stroke="hsl(180.0,100%,35%)" stroke-width="0.00102"></path>
<path d="M0.593 0.862 Q0.740 0.733 0.519 0.633" stroke="hsl(180.0,100%,35%)" stroke-width="0.01397"></path>
<path d="M0.593 0.862 Q1.061 0.675 0.798 0.406" stroke="hsl(180.0,100%,35%)" stroke-width="0.01669"></path>
<path d="M0.593 0.862 Q1.359 0.597 1.009 0.166" stroke="hsl(180.0,100%,35%)" stroke-width="0.00136"></path>
<path d="M0.593 0.862 Q0.780 0.836 0.769 0.738" stroke="hsl(180.0,100%,35%)" stroke-width="0.00477"></path>
<path d="M0.593 0.862 Q0.658 0.942 0.827 0.928" stroke="hsl(180.0,100%,35%)" stroke-width="0.00034"></path>
<path d="M0.593 0.862 Q1.201 0.648 0.917 0.305" stroke="hsl(180.0,100%,35%)" stroke-width="0.00204"></path>
<path d="M0.593 0.862 Q1.125 0.543 0.618 0.213" stroke="hsl(180.0,100%,35%)" stroke-width="0.00034"></path>
<path d="M0.593 0.862 Q1.262 0.823 1.332 0.487" stroke="hsl(180.0,100%,35%)" stroke-width="0.00034"></path>
<path d="M0.593 0.862 Q0.811 0.899 0.930 0.800" stroke="hsl(180.0,100%,35%)" stroke-width="0.00068"></path>
<path d="M0.593 0.862 Q0.824 0.804 0.762 0.679" stroke="hsl(180.0,100%,35%)" stroke-width="0.00034"></path>
<path d="M0.593 0.862 Q0.951 0.699 0.711 0.489" stroke="hsl(180.0,100%,35%)" stroke-width="0.00034"></path>
<path d="M0.930 0.800 Q0.899 0.737 0.769 0.738" stroke="hsl(180.0,100%,35%)" stroke-width="0.00613"></path>
<path d="M0.930 0.800 Q0.858 0.635 0.519 0.633" stroke="hsl(180.0,100%,35%)" stroke-width="0.01771"></path>
<path d="M0.930 0.800 Q0.712 0.764 0.593 0.862" stroke="hsl(180.0,100%,35%)" stroke-width="0.00204"></path>
<path d="M0.930 0.800 Q1.118 0.726 1.014 0.617" stroke="hsl(180.0,100%,35%)" stroke-width="0.00034"></path>
<path d="M0.930 0.800 Q1.791 0.663 1.712 0.213" stroke="hsl(180.0,100%,35%)" stroke-width="0.00136"></path>
<path d="M0.930 0.800 Q0.802 0.893 0.954 0.975" stroke="hsl(180.0,100%,35%)" stroke-width="0.00034"></path>
<path d="M0.930 0.800 Q0.943 0.706 0.762 0.679" stroke="hsl(180.0,100%,35%)" stroke-width="0.00034"></path>
<path d="M0.930 0.800 Q1.179 0.577 0.798 0.406" stroke="hsl(180.0,100%,35%)" stroke-width="0.00068"></path>
<path d="M0.930 0.800 Q1.320 0.550 0.917 0.305" stroke="hsl(180.0,100%,35%)" stroke-width="0.00034"></path>
<path d="M1.075 0.703 Q0.942 0.779 1.061 0.860" stroke="hsl(180.0,100%,35%)" stroke-width="0.00102"></path>
<path d="M1.075 0.703 Q0.853 0.557 0.519 0.633" stroke="hsl(180.0,100%,35%)" stroke-width="0.02384"></path>
<path d="M1.075 0.703 Q0.894 0.660 0.769 0.738" stroke="hsl(180.0,100%,35%)" stroke-width="0.01090"></path>
<path d="M1.075 0.703 Q0.707 0.686 0.593 0.862" stroke="hsl(180.0,100%,35%)" stroke-width="0.00170"></path>
<path d="M1.075 0.703 Q1.174 0.499 0.798 0.406" stroke="hsl(180.0,100%,35%)" stroke-width="0.00068"></path>
<path d="M1.075 0.703 Q1.786 0.586 1.712 0.213" stroke="hsl(180.0,100%,35%)" stroke-width="0.00034"></path>
<path d="M1.075 0.703 Q1.315 0.473 0.917 0.305" stroke="hsl(180.0,100%,35%)" stroke-width="0.00375"></path>
<path d="M0.408 0.689 Q0.829 0.626 0.798 0.406" stroke="hsl(180.0,100%,35%)" stroke-width="0.00102"></path>
<path d="M0.408 0.689 Q0.508 0.683 0.519 0.633" stroke="hsl(180.0,100%,35%)" stroke-width="0.00409"></path>
<path d="M0.408 0.689 Q0.549 0.786 0.769 0.738" stroke="hsl(180.0,100%,35%)" stroke-width="0.00170"></path>
<path d="M0.408 0.689 Q1.441 0.712 1.712 0.213" stroke="hsl(180.0,100%,35%)" stroke-width="0.00034"></path>
<path d="M0.408 0.689 Q0.511 0.548 0.257 0.466" stroke="hsl(180.0,100%,35%)" stroke-width="0.00034"></path>
<path d="M0.408 0.689 Q0.362 0.813 0.593 0.862" stroke="hsl(180.0,100%,35%)" stroke-width="0.00102"></path>
<path d="M0.257 0.466 Q1.187 0.630 1.712 0.213" stroke="hsl(180.0,100%,35%)" stroke-width="0.00068"></path>
<path d="M0.257 0.466 Q0.339 0.673 0.762 0.679" stroke="hsl(180.0,100%,35%)" stroke-width="0.00034"></path>
<path d="M0.257 0.466 Q0.255 0.602 0.519 0.633" stroke="hsl(180.0,100%,35%)" stroke-width="0.00102"></path>
<path d="M0.257 0.466 Q0.336 0.394 0.212 0.339" stroke="hsl(180.0,100%,35%)" stroke-width="0.00068"></path>
<path d="M0.212 0.339 Q0.133 0.412 0.257 0.466" stroke="hsl(180.0,100%,35%)" stroke-width="0.00613"></path>
<path d="M0.212 0.339 Q0.131 0.548 0.519 0.633" stroke="hsl(180.0,100%,35%)" stroke-width="0.00477"></path>
<path d="M0.212 0.339 Q0.215 0.619 0.762 0.679" stroke="hsl(180.0,100%,35%)" stroke-width="0.00170"></path>
<path d="M0.762 0.679 Q1.139 0.523 0.917 0.305" stroke="hsl(180.0,100%,35%)" stroke-width="0.00136"></path>
<path d="M0.762 0.679 Q1.610 0.636 1.712 0.213" stroke="hsl(180.0,100%,35%)" stroke-width="0.00886"></path>
<path d="M0.762 0.679 Q0.677 0.607 0.519 0.633" stroke="hsl(180.0,100%,35%)" stroke-width="0.02929"></path>
<path d="M0.762 0.679 Q1.246 0.791 1.570 0.579" stroke="hsl(180.0,100%,35%)" stroke-width="0.00068"></path>
<path d="M0.762 0.679 Q0.998 0.550 0.798 0.406" stroke="hsl(180.0,100%,35%)" stroke-width="0.00102"></path>
<path d="M0.762 0.679 Q0.758 0.399 0.212 0.339" stroke="hsl(180.0,100%,35%)" stroke-width="0.00034"></path>
<path d="M0.762 0.679 Q0.680 0.472 0.257 0.466" stroke="hsl(180.0,100%,35%)" stroke-width="0.00068"></path>
<path d="M0.762 0.679 Q0.531 0.737 0.593 0.862" stroke="hsl(180.0,100%,35%)" stroke-width="0.00068"></path>
<path d="M0.762 0.679 Q1.080 0.642 1.079 0.479" stroke="hsl(180.0,100%,35%)" stroke-width="0.00034"></path>
<path d="M0.618 0.213 Q1.165 0.432 1.712 0.213" stroke="hsl(180.0,100%,35%)" stroke-width="0.00034"></path>
<path d="M0.618 0.213 Q0.694 0.319 0.917 0.305" stroke="hsl(180.0,100%,35%)" stroke-width="0.00988"></path>
<path d="M0.618 0.213 Q0.233 0.403 0.519 0.633" stroke="hsl(180.0,100%,35%)" stroke-width="0.00068"></path>
<path d="M0.618 0.213 Q0.851 0.267 1.009 0.166" stroke="hsl(180.0,100%,35%)" stroke-width="0.00068"></path>
<path d="M0.618 0.213 Q0.553 0.345 0.798 0.406" stroke="hsl(180.0,100%,35%)" stroke-width="0.00068"></path>
<path d="M1.332 0.487 Q0.809 0.398 0.519 0.633" stroke="hsl(180.0,100%,35%)" stroke-width="0.00102"></path>
<path d="M1.332 0.487 Q0.663 0.527 0.593 0.862" stroke="hsl(180.0,100%,35%)" stroke-width="0.00102"></path>
<path d="M1.332 0.487 Q1.428 0.262 1.009 0.166" stroke="hsl(180.0,100%,35%)" stroke-width="0.00068"></path>
<path d="M1.332 0.487 Q1.741 0.426 1.712 0.213" stroke="hsl(180.0,100%,35%)" stroke-width="0.00034"></path>
<path d="M1.332 0.487 Q1.271 0.313 0.917 0.305" stroke="hsl(180.0,100%,35%)" stroke-width="0.00034"></path>
<path d="M1.079 0.479 Q1.137 0.359 0.917 0.305" stroke="hsl(180.0,100%,35%)" stroke-width="0.00443"></path>
<path d="M1.079 0.479 Q0.675 0.444 0.519 0.633" stroke="hsl(180.0,100%,35%)" stroke-width="0.00647"></path>
<path d="M1.079 0.479 Q0.996 0.386 0.798 0.406" stroke="hsl(180.0,100%,35%)" stroke-width="0.00783"></path>
<path d="M1.079 0.479 Q1.198 0.534 1.332 0.487" stroke="hsl(180.0,100%,35%)" stroke-width="0.00102"></path>
<path d="M1.079 0.479 Q0.529 0.573 0.593 0.862" stroke="hsl(180.0,100%,35%)" stroke-width="0.00341"></path>
<path d="M1.079 0.479 Q1.608 0.472 1.712 0.213" stroke="hsl(180.0,100%,35%)" stroke-width="0.00068"></path>
<path d="M1.079 0.479 Q0.747 0.610 0.930 0.800" stroke="hsl(180.0,100%,35%)" stroke-width="0.00034"></path>
<path d="M1.079 0.479 Q0.716 0.547 0.769 0.738" stroke="hsl(180.0,100%,35%)" stroke-width="0.00102"></path>
<path d="M0.711 0.489 Q0.500 0.522 0.519 0.633" stroke="hsl(180.0,100%,35%)" stroke-width="0.00068"></path>
<path d="M0.711 0.489 Q0.821 0.465 0.798 0.406" stroke="hsl(180.0,100%,35%)" stroke-width="0.00102"></path>
<path d="M0.711 0.489 Q0.353 0.652 0.593 0.862" stroke="hsl(180.0,100%,35%)" stroke-width="0.00102"></path>
<path d="M0.711 0.489 Q0.541 0.625 0.769 0.738" stroke="hsl(180.0,100%,35%)" stroke-width="0.00068"></path>
<path d="M0.711 0.489 Q0.961 0.438 0.917 0.305" stroke="hsl(180.0,100%,35%)" stroke-width="0.00102"></path>
<path d="M0.884 0.863 Q1.206 0.617 0.798 0.406" stroke="hsl(180.0,100%,35%)" stroke-width="0.00068"></path>
<path d="M0.884 0.863 Q0.739 0.805 0.593 0.862" stroke="hsl(180.0,100%,35%)" stroke-width="0.00102"></path>
<path d="M0.884 0.863 Q1.818 0.704 1.712 0.213" stroke="hsl(180.0,100%,35%)" stroke-width="0.00034"></path>
<path d="M0.884 0.863 Q0.886 0.675 0.519 0.633" stroke="hsl(180.0,100%,35%)" stroke-width="0.00034"></path>
<path d="M0.884 0.863 Q1.505 0.540 1.009 0.166" stroke="hsl(180.0,100%,35%)" stroke-width="0.00034"></path>
<path d="M1.506 0.067 Q0.559 0.152 0.519 0.633" stroke="hsl(0.0,100%,35%)" stroke-width="0.00818"></path>
<path d="M1.506 0.067 Q1.492 0.181 1.712 0.213" stroke="hsl(0.0,100%,35%)" stroke-width="0.01567"></path>
<path d="M1.506 0.067 Q0.562 0.017 0.257 0.466" stroke="hsl(0.0,100%,35%)" stroke-width="0.00136"></path>
<path d="M1.506 0.067 Q1.178 0.017 1.009 0.166" stroke="hsl(0.0,100%,35%)" stroke-width="0.00034"></path>
<path d="M1.506 0.067 Q1.128 0.336 1.570 0.579" stroke="hsl(0.0,100%,35%)" stroke-width="0.00034"></path>
<path d="M1.506 0.067 Q0.644 0.224 0.762 0.679" stroke="hsl(0.0,100%,35%)" stroke-width="0.00136"></path>
<path d="M1.322 0.225 Q1.527 0.297 1.712 0.213" stroke="hsl(0.0,100%,35%)" stroke-width="0.01056"></path>
<path d="M1.322 0.225 Q1.222 0.221 1.193 0.269" stroke="hsl(0.0,100%,35%)" stroke-width="0.00818"></path>
<path d="M1.322 0.225 Q0.684 0.491 1.061 0.860" stroke="hsl(0.0,100%,35%)" stroke-width="0.00034"></path>
<path d="M1.322 0.225 Q0.594 0.269 0.519 0.633" stroke="hsl(0.0,100%,35%)" stroke-width="0.00818"></path>
<path d="M1.193 0.269 Q1.497 0.345 1.712 0.213" stroke="hsl(0.0,100%,35%)" stroke-width="0.00443"></path>
<path d="M1.193 0.269 Q1.293 0.273 1.322 0.225" stroke="hsl(0.0,100%,35%)" stroke-width="0.00341"></path>
<path d="M1.193 0.269 Q0.565 0.316 0.519 0.633" stroke="hsl(0.0,100%,35%)" stroke-width="0.00102"></path>
<path d="M1.570 0.579 Q1.001 0.396 0.519 0.633" stroke="hsl(0.0,100%,35%)" stroke-width="0.00068"></path>
<path d="M1.570 0.579 Q1.934 0.424 1.712 0.213" stroke="hsl(0.0,100%,35%)" stroke-width="0.00068"></path>
<path d="M1.570 0.579 Q1.086 0.467 0.762 0.679" stroke="hsl(0.0,100%,35%)" stroke-width="0.00034"></path>
<path d="M1.570 0.579 Q1.004 0.260 0.257 0.466" stroke="hsl(0.0,100%,35%)" stroke-width="0.00102"></path>
<path d="M0.955 0.317 Q1.007 0.477 1.332 0.487" stroke="hsl(0.0,100%,35%)" stroke-width="0.00034"></path>
<path d="M0.955 0.317 Q0.338 0.517 0.593 0.862" stroke="hsl(0.0,100%,35%)" stroke-width="0.00034"></path>
<path d="M0.955 0.317 Q1.417 0.416 1.712 0.213" stroke="hsl(0.0,100%,35%)" stroke-width="0.00034"></path>
<path d="M0.955 0.317 Q0.484 0.388 0.519 0.633" stroke="hsl(0.0,100%,35%)" stroke-width="0.00068"></path>
<path d="M0.955 0.317 Q0.995 0.635 1.626 0.686" stroke="hsl(0.0,100%,35%)" stroke-width="0.00034"></path>
<path d="M1.626 0.686 Q1.683 0.621 1.570 0.579" stroke="hsl(0.0,100%,35%)" stroke-width="0.00068"></path>
<path d="M1.626 0.686 Q1.115 0.438 0.519 0.633" stroke="hsl(0.0,100%,35%)" stroke-width="0.00034"></path>
<path d="M1.626 0.686 Q2.047 0.466 1.712 0.213" stroke="hsl(0.0,100%,35%)" stroke-width="0.00034"></path>
<path d="M0.897 0.736 Q0.790 0.609 0.519 0.633" stroke="hsl(180.0,100%,35%)" stroke-width="0.00102"></path>
<path d="M0.897 0.736 Q0.644 0.738 0.593 0.862" stroke="hsl(180.0,100%,35%)" stroke-width="0.00068"></path>
<path d="M0.897 0.736 Q1.111 0.551 0.798 0.406" stroke="hsl(180.0,100%,35%)" stroke-width="0.00034"></path>
<path d="M0.897 0.736 Q1.723 0.637 1.712 0.213" stroke="hsl(180.0,100%,35%)" stroke-width="0.00034"></path>
<path d="M0.897 0.736 Q1.409 0.473 1.009 0.166" stroke="hsl(180.0,100%,35%)" stroke-width="0.00034"></path>
<path d="M0.954 0.975 Q1.472 0.633 0.917 0.305" stroke="hsl(180.0,100%,35%)" stroke-width="0.00034"></path>
<path d="M0.954 0.975 Q0.864 0.847 0.593 0.862" stroke="hsl(180.0,100%,35%)" stroke-width="0.00068"></path>
<path d="M0.954 0.975 Q1.533 0.807 1.332 0.487" stroke="hsl(180.0,100%,35%)" stroke-width="0.00034"></path>
<path d="M0.978 0.510 Q1.468 0.611 1.773 0.394" stroke="hsl(0.0,100%,35%)" stroke-width="0.00068"></path>
<path d="M0.978 0.510 Q0.651 0.480 0.519 0.633" stroke="hsl(0.0,100%,35%)" stroke-width="0.00409"></path>
<path d="M0.978 0.510 Q1.583 0.508 1.712 0.213" stroke="hsl(0.0,100%,35%)" stroke-width="0.00273"></path>
<path d="M0.408 0.251 Q0.620 0.380 0.917 0.305" stroke="hsl(180.0,100%,35%)" stroke-width="0.00136"></path>
<path d="M0.408 0.251 Q0.544 0.274 0.618 0.213" stroke="hsl(180.0,100%,35%)" stroke-width="0.00068"></path>
<path d="M0.408 0.251 Q0.158 0.464 0.519 0.633" stroke="hsl(180.0,100%,35%)" stroke-width="0.00068"></path>
<path d="M0.765 0.759 Q1.676 0.675 1.712 0.213" stroke="hsl(0.0,100%,35%)" stroke-width="0.00068"></path>
<path d="M0.765 0.759 Q0.743 0.647 0.519 0.633" stroke="hsl(0.0,100%,35%)" stroke-width="0.00170"></path>
<path d="M0.765 0.759 Q1.205 0.563 0.917 0.305" stroke="hsl(0.0,100%,35%)" stroke-width="0.00034"></path>
<path d="M0.765 0.759 Q1.561 0.778 1.773 0.394" stroke="hsl(0.0,100%,35%)" stroke-width="0.00034"></path>
<path d="M0.835 0.682 Q0.757 0.697 0.769 0.738" stroke="hsl(180.0,100%,35%)" stroke-width="0.00034"></path>
<path d="M0.835 0.682 Q0.716 0.594 0.519 0.633" stroke="hsl(180.0,100%,35%)" stroke-width="0.00102"></path>
<path d="M0.835 0.682 Q0.570 0.724 0.593 0.862" stroke="hsl(180.0,100%,35%)" stroke-width="0.00068"></path>
<path d="M0.993 0.530 Q0.674 0.487 0.519 0.633" stroke="hsl(180.0,100%,35%)" stroke-width="0.00238"></path>
<path d="M0.993 0.530 Q0.527 0.616 0.593 0.862" stroke="hsl(180.0,100%,35%)" stroke-width="0.00068"></path>
<path d="M0.993 0.530 Q0.994 0.429 0.798 0.406" stroke="hsl(180.0,100%,35%)" stroke-width="0.00034"></path>
<path d="M0.993 0.530 Q1.135 0.402 0.917 0.305" stroke="hsl(180.0,100%,35%)" stroke-width="0.00102"></path>
<path d="M0.993 0.530 Q1.606 0.515 1.712 0.213" stroke="hsl(180.0,100%,35%)" stroke-width="0.00068"></path>
<path d="M0.993 0.530 Q0.714 0.589 0.769 0.738" stroke="hsl(180.0,100%,35%)" stroke-width="0.00068"></path>
<path d="M0.993 0.530 Q0.745 0.652 0.930 0.800" stroke="hsl(180.0,100%,35%)" stroke-width="0.00034"></path>
<path d="M1.077 0.050 Q0.421 0.452 1.061 0.860" stroke="hsl(180.0,100%,35%)" stroke-width="0.00068"></path>
<path d="M1.077 0.050 Q0.950 0.094 1.009 0.166" stroke="hsl(180.0,100%,35%)" stroke-width="0.00238"></path>
<path d="M1.077 0.050 Q0.793 0.145 0.917 0.305" stroke="hsl(180.0,100%,35%)" stroke-width="0.00068"></path>
<path d="M1.077 0.050 Q0.331 0.230 0.519 0.633" stroke="hsl(180.0,100%,35%)" stroke-width="0.00034"></path>
<path d="M1.077 0.050 Q0.372 0.333 0.769 0.738" stroke="hsl(180.0,100%,35%)" stroke-width="0.00034"></path>
<path d="M1.077 0.050 Q1.264 0.258 1.712 0.213" stroke="hsl(180.0,100%,35%)" stroke-width="0.00068"></path>
<path d="M1.400 0.134 Q1.545 0.307 1.916 0.275" stroke="hsl(0.0,100%,35%)" stroke-width="0.00034"></path>
<path d="M1.400 0.134 Q1.492 0.236 1.712 0.213" stroke="hsl(0.0,100%,35%)" stroke-width="0.00034"></path>
<path d="M1.400 0.134 Q1.507 0.121 1.506 0.067" stroke="hsl(0.0,100%,35%)" stroke-width="0.00034"></path>
<path d="M1.400 0.134 Q0.560 0.207 0.519 0.633" stroke="hsl(0.0,100%,35%)" stroke-width="0.00034"></path>
<path d="M0.714 0.774 Q0.729 0.665 0.519 0.633" stroke="hsl(180.0,100%,35%)" stroke-width="0.00341"></path>
<path d="M0.714 0.774 Q0.583 0.794 0.593 0.862" stroke="hsl(180.0,100%,35%)" stroke-width="0.00034"></path>
<path d="M0.714 0.774 Q0.770 0.767 0.769 0.738" stroke="hsl(180.0,100%,35%)" stroke-width="0.00068"></path>
<path d="M0.714 0.774 Q1.662 0.693 1.712 0.213" stroke="hsl(180.0,100%,35%)" stroke-width="0.00034"></path>
<path d="M0.714 0.774 Q1.191 0.580 0.917 0.305" stroke="hsl(180.0,100%,35%)" stroke-width="0.00034"></path>
<path d="M0.714 0.774 Q1.050 0.607 0.798 0.406" stroke="hsl(180.0,100%,35%)" stroke-width="0.00034"></path>
<path d="M0.714 0.774 Q0.814 0.736 0.762 0.679" stroke="hsl(180.0,100%,35%)" stroke-width="0.00102"></path>
<path d="M1.077 0.728 Q1.336 0.485 0.917 0.305" stroke="hsl(180.0,100%,35%)" stroke-width="0.00034"></path>
<path d="M1.077 0.728 Q0.874 0.569 0.519 0.633" stroke="hsl(180.0,100%,35%)" stroke-width="0.00068"></path>
<path d="M1.077 0.728 Q0.915 0.672 0.769 0.738" stroke="hsl(180.0,100%,35%)" stroke-width="0.00034"></path>
<path d="M1.289 0.548 Q0.836 0.436 0.519 0.633" stroke="hsl(180.0,100%,35%)" stroke-width="0.00477"></path>
<path d="M1.289 0.548 Q0.877 0.539 0.769 0.738" stroke="hsl(180.0,100%,35%)" stroke-width="0.00170"></path>
<path d="M1.289 0.548 Q1.455 0.301 1.009 0.166" stroke="hsl(180.0,100%,35%)" stroke-width="0.00034"></path>
<path d="M1.289 0.548 Q0.690 0.566 0.593 0.862" stroke="hsl(180.0,100%,35%)" stroke-width="0.00034"></path>
<path d="M1.289 0.548 Q1.157 0.379 0.798 0.406" stroke="hsl(180.0,100%,35%)" stroke-width="0.00034"></path>
<path d="M1.289 0.548 Q1.769 0.465 1.712 0.213" stroke="hsl(180.0,100%,35%)" stroke-width="0.00034"></path>
<path d="M1.289 0.548 Q1.058 0.583 1.075 0.703" stroke="hsl(180.0,100%,35%)" stroke-width="0.00034"></path>
<path d="M1.289 0.548 Q0.921 0.508 0.762 0.679" stroke="hsl(180.0,100%,35%)" stroke-width="0.00034"></path>
<path d="M1.289 0.548 Q1.298 0.352 0.917 0.305" stroke="hsl(180.0,100%,35%)" stroke-width="0.00034"></path>
<path d="M0.126 0.706 Q0.381 0.748 0.519 0.633" stroke="hsl(180.0,100%,35%)" stroke-width="0.00307"></path>
<path d="M0.126 0.706 Q0.465 0.819 0.762 0.679" stroke="hsl(180.0,100%,35%)" stroke-width="0.00034"></path>
<path d="M0.126 0.706 Q0.422 0.851 0.769 0.738" stroke="hsl(180.0,100%,35%)" stroke-width="0.00136"></path>
<path d="M0.126 0.706 Q1.313 0.776 1.712 0.213" stroke="hsl(180.0,100%,35%)" stroke-width="0.00102"></path>
<path d="M0.126 0.706 Q0.702 0.690 0.798 0.406" stroke="hsl(180.0,100%,35%)" stroke-width="0.00034"></path>
<path d="M0.631 0.623 Q0.568 0.606 0.519 0.633" stroke="hsl(0.0,100%,35%)" stroke-width="0.00102"></path>
<path d="M0.631 0.623 Q1.500 0.634 1.712 0.213" stroke="hsl(0.0,100%,35%)" stroke-width="0.00068"></path>
<path d="M0.631 0.623 Q0.413 0.602 0.324 0.704" stroke="hsl(0.0,100%,35%)" stroke-width="0.00034"></path>
<path d="M1.236 0.749 Q1.903 0.576 1.712 0.213" stroke="hsl(0.0,100%,35%)" stroke-width="0.00443"></path>
<path d="M1.236 0.749 Q0.971 0.547 0.519 0.633" stroke="hsl(0.0,100%,35%)" stroke-width="0.00545"></path>
<path d="M1.236 0.749 Q1.590 0.412 1.009 0.166" stroke="hsl(0.0,100%,35%)" stroke-width="0.00068"></path>
<path d="M1.236 0.749 Q1.788 0.679 1.773 0.394" stroke="hsl(0.0,100%,35%)" stroke-width="0.00034"></path>
<path d="M0.500 0.342 Q0.738 0.407 0.917 0.305" stroke="hsl(180.0,100%,35%)" stroke-width="0.00068"></path>
<path d="M0.500 0.342 Q0.366 0.713 1.061 0.860" stroke="hsl(180.0,100%,35%)" stroke-width="0.00034"></path>
<path d="M0.500 0.342 Q0.317 0.594 0.769 0.738" stroke="hsl(180.0,100%,35%)" stroke-width="0.00034"></path>
<path d="M0.500 0.342 Q0.679 0.526 1.079 0.479" stroke="hsl(180.0,100%,35%)" stroke-width="0.00034"></path>
<path d="M0.349 0.546 Q0.364 0.624 0.519 0.633" stroke="hsl(180.0,100%,35%)" stroke-width="0.00307"></path>
<path d="M0.349 0.546 Q0.449 0.695 0.762 0.679" stroke="hsl(180.0,100%,35%)" stroke-width="0.00034"></path>
<path d="M0.349 0.546 Q0.405 0.726 0.769 0.738" stroke="hsl(180.0,100%,35%)" stroke-width="0.00102"></path>
<path d="M0.349 0.546 Q1.297 0.652 1.712 0.213" stroke="hsl(180.0,100%,35%)" stroke-width="0.00034"></path>
<path d="M0.349 0.546 Q0.218 0.753 0.593 0.862" stroke="hsl(180.0,100%,35%)" stroke-width="0.00068"></path>
<path d="M0.387 0.792 Q0.693 0.918 1.007 0.797" stroke="hsl(180.0,100%,35%)" stroke-width="0.00034"></path>
<path d="M0.387 0.792 Q0.581 0.739 0.519 0.633" stroke="hsl(180.0,100%,35%)" stroke-width="0.00238"></path>
<path d="M0.387 0.792 Q1.200 0.603 1.009 0.166" stroke="hsl(180.0,100%,35%)" stroke-width="0.00068"></path>
<path d="M0.387 0.792 Q0.434 0.868 0.593 0.862" stroke="hsl(180.0,100%,35%)" stroke-width="0.00034"></path>
<path d="M0.387 0.792 Q1.513 0.767 1.712 0.213" stroke="hsl(180.0,100%,35%)" stroke-width="0.00034"></path>
<path d="M0.387 0.792 Q1.103 0.829 1.332 0.487" stroke="hsl(180.0,100%,35%)" stroke-width="0.00034"></path>
<path d="M0.387 0.792 Q0.621 0.842 0.769 0.738" stroke="hsl(180.0,100%,35%)" stroke-width="0.00034"></path>
<path d="M0.543 0.258 Q0.693 0.356 0.917 0.305" stroke="hsl(180.0,100%,35%)" stroke-width="0.00102"></path>
<path d="M0.543 0.258 Q0.320 0.663 1.061 0.860" stroke="hsl(180.0,100%,35%)" stroke-width="0.00034"></path>
<path d="M0.543 0.258 Q0.084 0.570 0.593 0.862" stroke="hsl(180.0,100%,35%)" stroke-width="0.00034"></path>
<path d="M0.543 0.258 Q0.754 0.530 1.332 0.487" stroke="hsl(180.0,100%,35%)" stroke-width="0.00034"></path>
<path d="M0.543 0.258 Q0.231 0.441 0.519 0.633" stroke="hsl(180.0,100%,35%)" stroke-width="0.00034"></path>
<path d="M0.543 0.258 Q0.552 0.383 0.798 0.406" stroke="hsl(180.0,100%,35%)" stroke-width="0.00034"></path>
<path d="M0.555 0.742 Q0.708 0.752 0.762 0.679" stroke="hsl(180.0,100%,35%)" stroke-width="0.00102"></path>
<path d="M0.555 0.742 Q0.624 0.680 0.519 0.633" stroke="hsl(180.0,100%,35%)" stroke-width="0.00443"></path>
<path d="M0.555 0.742 Q0.945 0.623 0.798 0.406" stroke="hsl(180.0,100%,35%)" stroke-width="0.00102"></path>
<path d="M0.555 0.742 Q0.665 0.783 0.769 0.738" stroke="hsl(180.0,100%,35%)" stroke-width="0.00204"></path>
<path d="M0.555 0.742 Q1.086 0.596 0.917 0.305" stroke="hsl(180.0,100%,35%)" stroke-width="0.00102"></path>
<path d="M0.555 0.742 Q1.556 0.709 1.712 0.213" stroke="hsl(180.0,100%,35%)" stroke-width="0.00068"></path>
<path d="M0.555 0.742 Q0.713 0.902 1.061 0.860" stroke="hsl(180.0,100%,35%)" stroke-width="0.00034"></path>
<path d="M0.555 0.742 Q0.478 0.810 0.593 0.862" stroke="hsl(180.0,100%,35%)" stroke-width="0.00034"></path>
<path d="M0.918 0.763 Q0.823 0.618 0.519 0.633" stroke="hsl(180.0,100%,35%)" stroke-width="0.00204"></path>
<path d="M0.918 0.763 Q1.442 0.483 1.009 0.166" stroke="hsl(180.0,100%,35%)" stroke-width="0.00034"></path>
<path d="M0.918 0.763 Q1.144 0.561 0.798 0.406" stroke="hsl(180.0,100%,35%)" stroke-width="0.00102"></path>
<path d="M0.918 0.763 Q1.755 0.647 1.712 0.213" stroke="hsl(180.0,100%,35%)" stroke-width="0.00034"></path>
<path d="M0.918 0.763 Q0.863 0.721 0.769 0.738" stroke="hsl(180.0,100%,35%)" stroke-width="0.00034"></path>
<path d="M0.342 0.750 Q1.456 0.755 1.712 0.213" stroke="hsl(180.0,100%,35%)" stroke-width="0.00136"></path>
<path d="M0.342 0.750 Q0.524 0.727 0.519 0.633" stroke="hsl(180.0,100%,35%)" stroke-width="0.00511"></path>
<path d="M0.342 0.750 Q0.565 0.830 0.769 0.738" stroke="hsl(180.0,100%,35%)" stroke-width="0.00136"></path>
<path d="M0.342 0.750 Q0.845 0.669 0.798 0.406" stroke="hsl(180.0,100%,35%)" stroke-width="0.00102"></path>
<path d="M0.342 0.750 Q0.377 0.856 0.593 0.862" stroke="hsl(180.0,100%,35%)" stroke-width="0.00136"></path>
<path d="M0.342 0.750 Q0.986 0.642 0.917 0.305" stroke="hsl(180.0,100%,35%)" stroke-width="0.00034"></path>
<path d="M0.342 0.750 Q0.595 0.893 0.930 0.800" stroke="hsl(180.0,100%,35%)" stroke-width="0.00034"></path>
<path d="M1.140 0.086 Q1.011 0.100 1.009 0.166" stroke="hsl(180.0,100%,35%)" stroke-width="0.00273"></path>
<path d="M1.140 0.086 Q0.481 0.457 1.061 0.860" stroke="hsl(180.0,100%,35%)" stroke-width="0.00034"></path>
<path d="M1.140 0.086 Q0.392 0.235 0.519 0.633" stroke="hsl(180.0,100%,35%)" stroke-width="0.00238"></path>
<path d="M1.140 0.086 Q1.324 0.264 1.712 0.213" stroke="hsl(180.0,100%,35%)" stroke-width="0.00034"></path>
<path d="M1.140 0.086 Q0.854 0.151 0.917 0.305" stroke="hsl(180.0,100%,35%)" stroke-width="0.00034"></path>
<path d="M1.069 0.755 Q0.892 0.584 0.519 0.633" stroke="hsl(180.0,100%,35%)" stroke-width="0.00273"></path>
<path d="M1.069 0.755 Q0.932 0.686 0.769 0.738" stroke="hsl(180.0,100%,35%)" stroke-width="0.00136"></path>
<path d="M1.069 0.755 Q0.963 0.750 0.930 0.800" stroke="hsl(180.0,100%,35%)" stroke-width="0.00034"></path>
<path d="M1.069 0.755 Q0.976 0.655 0.762 0.679" stroke="hsl(180.0,100%,35%)" stroke-width="0.00034"></path>
<path d="M1.069 0.755 Q1.213 0.526 0.798 0.406" stroke="hsl(180.0,100%,35%)" stroke-width="0.00034"></path>
<path d="M0.883 0.040 Q0.316 0.486 1.061 0.860" stroke="hsl(180.0,100%,35%)" stroke-width="0.00034"></path>
<path d="M0.883 0.040 Q0.846 0.128 1.009 0.166" stroke="hsl(180.0,100%,35%)" stroke-width="0.00068"></path>
<path d="M0.883 0.040 Q0.548 0.206 0.798 0.406" stroke="hsl(180.0,100%,35%)" stroke-width="0.00034"></path>
<path d="M0.883 0.040 Q1.159 0.292 1.712 0.213" stroke="hsl(180.0,100%,35%)" stroke-width="0.00034"></path>
<path d="M0.883 0.040 Q0.227 0.264 0.519 0.633" stroke="hsl(180.0,100%,35%)" stroke-width="0.00034"></path>
<path d="M0.854 0.873 Q0.878 0.686 0.519 0.633" stroke="hsl(180.0,100%,35%)" stroke-width="0.00307"></path>
<path d="M0.854 0.873 Q1.811 0.714 1.712 0.213" stroke="hsl(180.0,100%,35%)" stroke-width="0.00068"></path>
<path d="M0.854 0.873 Q0.919 0.789 0.769 0.738" stroke="hsl(180.0,100%,35%)" stroke-width="0.00102"></path>
<path d="M0.854 0.873 Q0.732 0.815 0.593 0.862" stroke="hsl(180.0,100%,35%)" stroke-width="0.00034"></path>
<path d="M0.960 0.549 Q0.713 0.606 0.769 0.738" stroke="hsl(180.0,100%,35%)" stroke-width="0.00034"></path>
<path d="M0.960 0.549 Q0.673 0.503 0.519 0.633" stroke="hsl(180.0,100%,35%)" stroke-width="0.00238"></path>
<path d="M0.960 0.549 Q1.605 0.531 1.712 0.213" stroke="hsl(180.0,100%,35%)" stroke-width="0.00102"></path>
<path d="M0.960 0.549 Q0.757 0.574 0.762 0.679" stroke="hsl(180.0,100%,35%)" stroke-width="0.00034"></path>
<path d="M0.960 0.549 Q0.993 0.445 0.798 0.406" stroke="hsl(180.0,100%,35%)" stroke-width="0.00034"></path>
<path d="M0.825 0.545 Q0.673 0.694 0.930 0.800" stroke="hsl(180.0,100%,35%)" stroke-width="0.00034"></path>
<path d="M0.825 0.545 Q0.602 0.528 0.519 0.633" stroke="hsl(180.0,100%,35%)" stroke-width="0.00818"></path>
<path d="M0.825 0.545 Q0.922 0.470 0.798 0.406" stroke="hsl(180.0,100%,35%)" stroke-width="0.00136"></path>
<path d="M0.825 0.545 Q1.220 0.392 1.009 0.166" stroke="hsl(180.0,100%,35%)" stroke-width="0.00136"></path>
<path d="M0.825 0.545 Q0.642 0.630 0.769 0.738" stroke="hsl(180.0,100%,35%)" stroke-width="0.00102"></path>
<path d="M0.825 0.545 Q0.691 0.750 1.061 0.860" stroke="hsl(180.0,100%,35%)" stroke-width="0.00034"></path>
<path d="M0.825 0.545 Q1.534 0.556 1.712 0.213" stroke="hsl(180.0,100%,35%)" stroke-width="0.00238"></path>
<path d="M0.825 0.545 Q1.063 0.443 0.917 0.305" stroke="hsl(180.0,100%,35%)" stroke-width="0.00170"></path>
<path d="M0.825 0.545 Q0.686 0.599 0.762 0.679" stroke="hsl(180.0,100%,35%)" stroke-width="0.00034"></path>
<path d="M0.825 0.545 Q0.455 0.657 0.593 0.862" stroke="hsl(180.0,100%,35%)" stroke-width="0.00068"></path>
</g>
<text x="1.773" y="0.381" font-size="0.027521" fill="hsl(0.0,100%,20%)">a.annestrand</text>
<text x="1.712" y="0.183" font-size="0.059053" fill="hsl(0.0,100%,20%)">geofflang</text>
<text x="0.519" y="0.584" font-size="0.098131" fill="hsl(180.0,100%,20%)">syoussefi</text>
<text x="0.917" y="0.280" font-size="0.048618" fill="hsl(180.0,100%,20%)">cnorthrop</text>
<text x="0.769" y="0.710" font-size="0.057482" fill="hsl(180.0,100%,20%)">cclao</text>
<text x="1.009" y="0.150" font-size="0.031734" fill="hsl(180.0,100%,20%)">ynovikov</text>
<text x="0.324" y="0.690" font-size="0.027369" fill="hsl(0.0,100%,20%)">g.tammana</text>
<text x="1.951" y="0.425" font-size="0.015266" fill="hsl(0.0,100%,20%)">a.dean1</text>
<text x="1.061" y="0.844" font-size="0.033146" fill="hsl(180.0,100%,20%)">romanl</text>
<text x="0.798" y="0.380" font-size="0.052009" fill="hsl(180.0,100%,20%)">abdolrashidi</text>
<text x="0.593" y="0.837" font-size="0.051121" fill="hsl(180.0,100%,20%)">yuxinhu</text>
<text x="0.930" y="0.786" font-size="0.028993" fill="hsl(180.0,100%,20%)">m.maiya</text>
<text x="1.075" y="0.687" font-size="0.032512" fill="hsl(180.0,100%,20%)">i.nazarov</text>
<text x="0.408" y="0.682" font-size="0.014425" fill="hsl(180.0,100%,20%)">aurora.zhang</text>
<text x="0.257" y="0.458" font-size="0.017548" fill="hsl(180.0,100%,20%)">kbr</text>
<text x="0.212" y="0.330" font-size="0.018473" fill="hsl(180.0,100%,20%)">chris</text>
<text x="0.762" y="0.661" font-size="0.035917" fill="hsl(180.0,100%,20%)">lexa.knyazev</text>
<text x="0.618" y="0.200" font-size="0.026441" fill="hsl(180.0,100%,20%)">mark</text>
<text x="1.332" y="0.481" font-size="0.013532" fill="hsl(180.0,100%,20%)">solti</text>
<text x="1.079" y="0.466" font-size="0.025479" fill="hsl(180.0,100%,20%)">timvp</text>
<text x="0.711" y="0.483" font-size="0.011540" fill="hsl(180.0,100%,20%)">xwxw</text>
<text x="0.884" y="0.859" font-size="0.008160" fill="hsl(180.0,100%,20%)">dloehr</text>
<text x="1.506" y="0.053" font-size="0.026283" fill="hsl(0.0,100%,20%)">kkinnunen</text>
<text x="1.322" y="0.210" font-size="0.029702" fill="hsl(0.0,100%,20%)">mpdenton</text>
<text x="1.901" y="0.226" font-size="0.004080" fill="hsl(0.0,100%,20%)">senorblanco</text>
<text x="1.193" y="0.257" font-size="0.024309" fill="hsl(0.0,100%,20%)">liza</text>
<text x="1.570" y="0.573" font-size="0.011173" fill="hsl(0.0,100%,20%)">lehoangquyen</text>
<text x="1.916" y="0.270" font-size="0.009123" fill="hsl(0.0,100%,20%)">cwallez</text>
<text x="1.855" y="0.302" font-size="0.002885" fill="hsl(0.0,100%,20%)">blundell</text>
<text x="1.426" y="0.351" font-size="0.004080" fill="hsl(0.0,100%,20%)">vasilyt</text>
<text x="1.595" y="0.308" font-size="0.004080" fill="hsl(0.0,100%,20%)">avi</text>
<text x="0.955" y="0.313" font-size="0.007067" fill="hsl(0.0,100%,20%)">gyuyoung</text>
<text x="1.626" y="0.682" font-size="0.006451" fill="hsl(0.0,100%,20%)">sunnyps</text>
<text x="0.897" y="0.732" font-size="0.008160" fill="hsl(180.0,100%,20%)">hans</text>
<text x="0.954" y="0.972" font-size="0.007067" fill="hsl(180.0,100%,20%)">hibrian</text>
<text x="0.978" y="0.504" font-size="0.013532" fill="hsl(0.0,100%,20%)">hoonee.cho</text>
<text x="0.408" y="0.247" font-size="0.008160" fill="hsl(180.0,100%,20%)">hoyeon.lim</text>
<text x="0.765" y="0.755" font-size="0.008655" fill="hsl(0.0,100%,20%)">jh.eun</text>
<text x="0.835" y="0.678" font-size="0.007067" fill="hsl(180.0,100%,20%)">jiaqi.li</text>
<text x="0.993" y="0.524" font-size="0.012240" fill="hsl(180.0,100%,20%)">jisunnie.lee</text>
<text x="1.077" y="0.044" font-size="0.011173" fill="hsl(180.0,100%,20%)">jwata</text>
<text x="1.400" y="0.131" font-size="0.005770" fill="hsl(0.0,100%,20%)">lichenliu</text>
<text x="1.014" y="0.616" font-size="0.002885" fill="hsl(180.0,100%,20%)">ianelliott</text>
<text x="0.714" y="0.768" font-size="0.012575" fill="hsl(180.0,100%,20%)">mavis.deng</text>
<text x="1.077" y="0.725" font-size="0.005770" fill="hsl(180.0,100%,20%)">msta</text>
<text x="1.289" y="0.541" font-size="0.014710" fill="hsl(180.0,100%,20%)">neil.zhang</text>
<text x="0.126" y="0.700" font-size="0.012240" fill="hsl(180.0,100%,20%)">panfeng.hou</text>
<text x="0.631" y="0.620" font-size="0.007067" fill="hsl(0.0,100%,20%)">r.husain</text>
<text x="1.236" y="0.741" font-size="0.016320" fill="hsl(0.0,100%,20%)">r.khurram</text>
<text x="0.500" y="0.338" font-size="0.006451" fill="hsl(180.0,100%,20%)">renatopereyra</text>
<text x="0.349" y="0.540" font-size="0.011540" fill="hsl(180.0,100%,20%)">robic.sun</text>
<text x="1.359" y="0.806" font-size="0.002885" fill="hsl(180.0,100%,20%)">egdaniel</text>
<text x="0.387" y="0.787" font-size="0.010794" fill="hsl(180.0,100%,20%)">rop</text>
<text x="1.007" y="0.796" font-size="0.002885" fill="hsl(180.0,100%,20%)">qjw</text>
<text x="0.543" y="0.254" font-size="0.008160" fill="hsl(180.0,100%,20%)">shawshanks</text>
<text x="0.555" y="0.734" font-size="0.016320" fill="hsl(180.0,100%,20%)">shufen.ma</text>
<text x="0.918" y="0.758" font-size="0.009994" fill="hsl(180.0,100%,20%)">steven</text>
<text x="0.961" y="1.262" font-size="0.002885" fill="hsl(180.0,100%,20%)">natsu</text>
<text x="0.342" y="0.742" font-size="0.016320" fill="hsl(180.0,100%,20%)">sywow.choi</text>
<text x="1.140" y="0.080" font-size="0.012240" fill="hsl(180.0,100%,20%)">tikuta</text>
<text x="1.069" y="0.749" font-size="0.011173" fill="hsl(180.0,100%,20%)">tingwei.guo</text>
<text x="0.883" y="0.037" font-size="0.007067" fill="hsl(180.0,100%,20%)">victorvianna</text>
<text x="0.854" y="0.867" font-size="0.011173" fill="hsl(180.0,100%,20%)">xin.yuan</text>
<text x="0.960" y="0.544" font-size="0.010402" fill="hsl(180.0,100%,20%)">xinyu.fang</text>
<text x="1.131" y="0.301" font-size="0.007633" fill="hsl(180.0,100%,20%)">bsheedy</text>
<text x="0.825" y="0.534" font-size="0.020804" fill="hsl(180.0,100%,20%)">yuxiang.qian</text>
<text x="0.827" y="0.926" font-size="0.002885" fill="hsl(180.0,100%,20%)">zijunzhao</text>
</svg>
