<svg width="4000" height="2000" viewBox="-0.025 -0.025 2.05 1.05" xmlns="http://www.w3.org/2000/svg">
  <style>
    path {
      fill: none;
      stroke-linecap: round;
      stroke-opacity: 0.4;
    }

    text {
      text-anchor: middle;
      alignment-baseline: hanging;
    }
  </style>
  <g opacity="0.4">
<path d="M1.823 0.874 Q1.411 0.267 0.136 0.335" stroke="hsl(0.0,100%,35%)" stroke-width="0.00043"></path>
<path d="M1.823 0.874 Q1.905 0.798 1.775 0.741" stroke="hsl(0.0,100%,35%)" stroke-width="0.00043"></path>
<path d="M1.823 0.874 Q1.603 0.529 0.883 0.560" stroke="hsl(0.0,100%,35%)" stroke-width="0.00022"></path>
<path d="M0.136 0.335 Q0.595 0.301 0.629 0.070" stroke="hsl(0.0,100%,35%)" stroke-width="0.01606"></path>
<path d="M0.136 0.335 Q0.255 0.470 0.545 0.441" stroke="hsl(0.0,100%,35%)" stroke-width="0.00239"></path>
<path d="M0.136 0.335 Q0.674 0.588 1.287 0.382" stroke="hsl(0.0,100%,35%)" stroke-width="0.03234"></path>
<path d="M0.136 0.335 Q-0.158 0.700 0.490 0.924" stroke="hsl(0.0,100%,35%)" stroke-width="0.02909"></path>
<path d="M0.136 0.335 Q0.207 0.250 0.058 0.197" stroke="hsl(0.0,100%,35%)" stroke-width="0.03148"></path>
<path d="M0.136 0.335 Q-0.017 0.666 0.596 0.814" stroke="hsl(0.0,100%,35%)" stroke-width="0.02149"></path>
<path d="M0.136 0.335 Q0.430 0.245 0.319 0.081" stroke="hsl(0.0,100%,35%)" stroke-width="0.00282"></path>
<path d="M0.136 0.335 Q0.329 0.597 0.883 0.560" stroke="hsl(0.0,100%,35%)" stroke-width="0.00847"></path>
<path d="M0.136 0.335 Q0.131 0.475 0.402 0.508" stroke="hsl(0.0,100%,35%)" stroke-width="0.00087"></path>
<path d="M0.136 0.335 Q0.407 0.342 0.479 0.211" stroke="hsl(0.0,100%,35%)" stroke-width="0.00043"></path>
<path d="M0.136 0.335 Q0.322 0.398 0.487 0.322" stroke="hsl(0.0,100%,35%)" stroke-width="0.00087"></path>
<path d="M0.136 0.335 Q0.208 0.414 0.377 0.396" stroke="hsl(0.0,100%,35%)" stroke-width="0.00651"></path>
<path d="M0.136 0.335 Q0.762 0.715 1.642 0.493" stroke="hsl(0.0,100%,35%)" stroke-width="0.00022"></path>
<path d="M0.136 0.335 Q0.347 0.354 0.429 0.255" stroke="hsl(0.0,100%,35%)" stroke-width="0.00109"></path>
<path d="M0.136 0.335 Q-0.034 0.554 0.356 0.685" stroke="hsl(0.0,100%,35%)" stroke-width="0.00130"></path>
<path d="M0.136 0.335 Q0.394 0.289 0.361 0.153" stroke="hsl(0.0,100%,35%)" stroke-width="0.00022"></path>
<path d="M0.136 0.335 Q0.379 0.876 1.488 0.877" stroke="hsl(0.0,100%,35%)" stroke-width="0.00022"></path>
<path d="M0.136 0.335 Q0.091 0.376 0.161 0.406" stroke="hsl(0.0,100%,35%)" stroke-width="0.00022"></path>
<path d="M0.136 0.335 Q0.003 0.772 0.826 0.933" stroke="hsl(0.0,100%,35%)" stroke-width="0.00022"></path>
<path d="M0.136 0.335 Q0.513 0.489 0.897 0.339" stroke="hsl(0.0,100%,35%)" stroke-width="0.00022"></path>
<path d="M0.136 0.335 Q0.408 0.431 0.655 0.320" stroke="hsl(0.0,100%,35%)" stroke-width="0.00022"></path>
<path d="M0.136 0.335 Q-0.030 0.384 0.029 0.476" stroke="hsl(0.0,100%,35%)" stroke-width="0.00022"></path>
<path d="M0.136 0.335 Q0.192 0.759 1.032 0.825" stroke="hsl(0.0,100%,35%)" stroke-width="0.00022"></path>
<path d="M0.136 0.335 Q0.159 0.785 1.041 0.872" stroke="hsl(0.0,100%,35%)" stroke-width="0.00022"></path>
<path d="M0.883 0.560 Q0.690 0.298 0.136 0.335" stroke="hsl(0.0,100%,35%)" stroke-width="0.00738"></path>
<path d="M0.883 0.560 Q0.536 0.630 0.596 0.814" stroke="hsl(0.0,100%,35%)" stroke-width="0.00152"></path>
<path d="M0.883 0.560 Q0.835 0.625 0.950 0.662" stroke="hsl(0.0,100%,35%)" stroke-width="0.00130"></path>
<path d="M0.883 0.560 Q0.326 0.585 0.252 0.862" stroke="hsl(0.0,100%,35%)" stroke-width="0.00022"></path>
<path d="M0.883 0.560 Q0.761 0.377 0.377 0.396" stroke="hsl(0.0,100%,35%)" stroke-width="0.00369"></path>
<path d="M0.883 0.560 Q0.579 0.353 0.107 0.455" stroke="hsl(0.0,100%,35%)" stroke-width="0.00022"></path>
<path d="M0.883 0.560 Q0.761 0.214 0.058 0.197" stroke="hsl(0.0,100%,35%)" stroke-width="0.00065"></path>
<path d="M0.883 0.560 Q1.148 0.264 0.629 0.070" stroke="hsl(0.0,100%,35%)" stroke-width="0.00065"></path>
<path d="M0.883 0.560 Q0.396 0.664 0.490 0.924" stroke="hsl(0.0,100%,35%)" stroke-width="0.00174"></path>
<path d="M0.883 0.560 Q0.932 0.839 1.488 0.877" stroke="hsl(0.0,100%,35%)" stroke-width="0.00130"></path>
<path d="M0.883 0.560 Q0.519 0.518 0.356 0.685" stroke="hsl(0.0,100%,35%)" stroke-width="0.00043"></path>
<path d="M0.883 0.560 Q1.228 0.552 1.287 0.382" stroke="hsl(0.0,100%,35%)" stroke-width="0.00022"></path>
<path d="M1.829 0.386 Q1.024 0.022 0.136 0.335" stroke="hsl(0.0,100%,35%)" stroke-width="0.00022"></path>
<path d="M1.829 0.386 Q1.650 0.402 1.642 0.493" stroke="hsl(0.0,100%,35%)" stroke-width="0.00022"></path>
<path d="M1.829 0.386 Q1.095 -0.063 0.058 0.197" stroke="hsl(0.0,100%,35%)" stroke-width="0.00022"></path>
<path d="M0.058 0.197 Q-0.013 0.282 0.136 0.335" stroke="hsl(0.0,100%,35%)" stroke-width="0.01042"></path>
<path d="M0.058 0.197 Q0.281 0.191 0.319 0.081" stroke="hsl(0.0,100%,35%)" stroke-width="0.00087"></path>
<path d="M0.058 0.197 Q-0.167 0.613 0.596 0.814" stroke="hsl(0.0,100%,35%)" stroke-width="0.00109"></path>
<path d="M0.058 0.197 Q0.058 0.360 0.377 0.396" stroke="hsl(0.0,100%,35%)" stroke-width="0.00065"></path>
<path d="M0.058 0.197 Q-0.068 0.481 0.457 0.604" stroke="hsl(0.0,100%,35%)" stroke-width="0.00022"></path>
<path d="M0.058 0.197 Q-0.106 0.311 0.080 0.415" stroke="hsl(0.0,100%,35%)" stroke-width="0.00022"></path>
<path d="M0.837 0.815 Q0.871 0.435 0.136 0.335" stroke="hsl(0.0,100%,35%)" stroke-width="0.00217"></path>
<path d="M0.837 0.815 Q0.717 0.766 0.596 0.814" stroke="hsl(0.0,100%,35%)" stroke-width="0.00174"></path>
<path d="M0.837 0.815 Q0.577 0.800 0.490 0.924" stroke="hsl(0.0,100%,35%)" stroke-width="0.00022"></path>
<path d="M0.837 0.815 Q1.063 0.697 0.883 0.560" stroke="hsl(0.0,100%,35%)" stroke-width="0.00043"></path>
<path d="M0.837 0.815 Q1.165 0.344 0.319 0.081" stroke="hsl(0.0,100%,35%)" stroke-width="0.00043"></path>
<path d="M0.596 0.814 Q0.749 0.482 0.136 0.335" stroke="hsl(0.0,100%,35%)" stroke-width="0.07185"></path>
<path d="M0.596 0.814 Q1.043 0.392 0.319 0.081" stroke="hsl(0.0,100%,35%)" stroke-width="0.00499"></path>
<path d="M0.596 0.814 Q0.455 0.848 0.490 0.924" stroke="hsl(0.0,100%,35%)" stroke-width="0.04776"></path>
<path d="M0.596 0.814 Q0.992 1.024 1.488 0.877" stroke="hsl(0.0,100%,35%)" stroke-width="0.00130"></path>
<path d="M0.596 0.814 Q0.820 0.398 0.058 0.197" stroke="hsl(0.0,100%,35%)" stroke-width="0.00586"></path>
<path d="M0.596 0.814 Q0.534 0.903 0.694 0.952" stroke="hsl(0.0,100%,35%)" stroke-width="0.00022"></path>
<path d="M0.596 0.814 Q0.820 0.561 0.377 0.396" stroke="hsl(0.0,100%,35%)" stroke-width="0.00456"></path>
<path d="M0.596 0.814 Q0.579 0.702 0.356 0.685" stroke="hsl(0.0,100%,35%)" stroke-width="0.01476"></path>
<path d="M0.596 0.814 Q0.942 0.744 0.883 0.560" stroke="hsl(0.0,100%,35%)" stroke-width="0.00152"></path>
<path d="M0.596 0.814 Q1.287 0.736 1.287 0.382" stroke="hsl(0.0,100%,35%)" stroke-width="0.00065"></path>
<path d="M0.596 0.814 Q0.868 0.617 0.545 0.441" stroke="hsl(0.0,100%,35%)" stroke-width="0.00239"></path>
<path d="M0.596 0.814 Q0.434 0.907 0.580 1.006" stroke="hsl(0.0,100%,35%)" stroke-width="0.00043"></path>
<path d="M0.596 0.814 Q0.858 0.808 0.903 0.679" stroke="hsl(0.0,100%,35%)" stroke-width="0.00022"></path>
<path d="M0.596 0.814 Q1.384 0.514 0.971 0.063" stroke="hsl(0.0,100%,35%)" stroke-width="0.00022"></path>
<path d="M0.596 0.814 Q0.583 0.531 0.029 0.476" stroke="hsl(0.0,100%,35%)" stroke-width="0.00022"></path>
<path d="M0.596 0.814 Q1.025 0.931 1.349 0.747" stroke="hsl(0.0,100%,35%)" stroke-width="0.00022"></path>
<path d="M0.596 0.814 Q0.715 0.769 0.653 0.700" stroke="hsl(0.0,100%,35%)" stroke-width="0.00022"></path>
<path d="M0.596 0.814 Q0.386 0.769 0.252 0.862" stroke="hsl(0.0,100%,35%)" stroke-width="0.00043"></path>
<path d="M0.596 0.814 Q1.208 0.448 0.629 0.070" stroke="hsl(0.0,100%,35%)" stroke-width="0.00195"></path>
<path d="M0.596 0.814 Q0.826 0.701 0.656 0.563" stroke="hsl(0.0,100%,35%)" stroke-width="0.00022"></path>
<path d="M0.490 0.924 Q1.322 0.812 1.287 0.382" stroke="hsl(0.0,100%,35%)" stroke-width="0.00825"></path>
<path d="M0.490 0.924 Q0.784 0.559 0.136 0.335" stroke="hsl(0.0,100%,35%)" stroke-width="0.01910"></path>
<path d="M0.490 0.924 Q1.079 0.468 0.319 0.081" stroke="hsl(0.0,100%,35%)" stroke-width="0.00065"></path>
<path d="M0.490 0.924 Q0.631 0.890 0.596 0.814" stroke="hsl(0.0,100%,35%)" stroke-width="0.00695"></path>
<path d="M0.490 0.924 Q0.977 0.820 0.883 0.560" stroke="hsl(0.0,100%,35%)" stroke-width="0.00326"></path>
<path d="M0.490 0.924 Q0.855 0.474 0.058 0.197" stroke="hsl(0.0,100%,35%)" stroke-width="0.00087"></path>
<path d="M0.490 0.924 Q0.614 0.778 0.356 0.685" stroke="hsl(0.0,100%,35%)" stroke-width="0.00369"></path>
<path d="M0.490 0.924 Q0.719 1.019 0.956 0.929" stroke="hsl(0.0,100%,35%)" stroke-width="0.00022"></path>
<path d="M0.490 0.924 Q1.161 0.713 0.897 0.339" stroke="hsl(0.0,100%,35%)" stroke-width="0.00022"></path>
<path d="M0.490 0.924 Q1.243 0.524 0.629 0.070" stroke="hsl(0.0,100%,35%)" stroke-width="0.00109"></path>
<path d="M0.490 0.924 Q0.840 0.983 1.032 0.825" stroke="hsl(0.0,100%,35%)" stroke-width="0.00022"></path>
<path d="M0.319 0.081 Q0.025 0.172 0.136 0.335" stroke="hsl(0.0,100%,35%)" stroke-width="0.00499"></path>
<path d="M0.319 0.081 Q-0.269 0.537 0.490 0.924" stroke="hsl(0.0,100%,35%)" stroke-width="0.00369"></path>
<path d="M0.319 0.081 Q-0.129 0.503 0.596 0.814" stroke="hsl(0.0,100%,35%)" stroke-width="0.00564"></path>
<path d="M0.319 0.081 Q0.563 0.425 1.287 0.382" stroke="hsl(0.0,100%,35%)" stroke-width="0.00304"></path>
<path d="M0.319 0.081 Q0.804 0.415 1.562 0.252" stroke="hsl(0.0,100%,35%)" stroke-width="0.00065"></path>
<path d="M0.319 0.081 Q0.074 0.383 0.609 0.568" stroke="hsl(0.0,100%,35%)" stroke-width="0.00022"></path>
<path d="M0.319 0.081 Q0.267 0.713 1.488 0.877" stroke="hsl(0.0,100%,35%)" stroke-width="0.00022"></path>
<path d="M0.319 0.081 Q0.217 0.434 0.883 0.560" stroke="hsl(0.0,100%,35%)" stroke-width="0.00043"></path>
<path d="M0.319 0.081 Q-0.146 0.391 0.356 0.685" stroke="hsl(0.0,100%,35%)" stroke-width="0.00087"></path>
<path d="M0.319 0.081 Q0.095 0.087 0.058 0.197" stroke="hsl(0.0,100%,35%)" stroke-width="0.00174"></path>
<path d="M0.319 0.081 Q0.483 0.137 0.629 0.070" stroke="hsl(0.0,100%,35%)" stroke-width="0.00195"></path>
<path d="M0.653 0.700 Q0.687 0.414 0.136 0.335" stroke="hsl(0.0,100%,35%)" stroke-width="0.00347"></path>
<path d="M0.653 0.700 Q0.393 0.780 0.490 0.924" stroke="hsl(0.0,100%,35%)" stroke-width="0.00087"></path>
<path d="M0.653 0.700 Q0.534 0.746 0.596 0.814" stroke="hsl(0.0,100%,35%)" stroke-width="0.00326"></path>
<path d="M0.653 0.700 Q0.517 0.634 0.356 0.685" stroke="hsl(0.0,100%,35%)" stroke-width="0.00022"></path>
<path d="M0.356 0.685 Q0.821 0.376 0.319 0.081" stroke="hsl(0.0,100%,35%)" stroke-width="0.00586"></path>
<path d="M0.356 0.685 Q0.527 0.466 0.136 0.335" stroke="hsl(0.0,100%,35%)" stroke-width="0.01476"></path>
<path d="M0.356 0.685 Q0.373 0.798 0.596 0.814" stroke="hsl(0.0,100%,35%)" stroke-width="0.00933"></path>
<path d="M0.356 0.685 Q0.233 0.831 0.490 0.924" stroke="hsl(0.0,100%,35%)" stroke-width="0.00955"></path>
<path d="M0.356 0.685 Q0.720 0.728 0.883 0.560" stroke="hsl(0.0,100%,35%)" stroke-width="0.00043"></path>
<path d="M0.356 0.685 Q1.065 0.720 1.287 0.382" stroke="hsl(0.0,100%,35%)" stroke-width="0.00130"></path>
<path d="M0.356 0.685 Q0.985 0.432 0.629 0.070" stroke="hsl(0.0,100%,35%)" stroke-width="0.00043"></path>
<path d="M0.356 0.685 Q0.646 0.601 0.545 0.441" stroke="hsl(0.0,100%,35%)" stroke-width="0.00022"></path>
<path d="M0.656 0.563 Q0.772 0.607 0.883 0.560" stroke="hsl(0.0,100%,35%)" stroke-width="0.00043"></path>
<path d="M0.656 0.563 Q0.579 0.345 0.136 0.335" stroke="hsl(0.0,100%,35%)" stroke-width="0.00043"></path>
<path d="M0.656 0.563 Q0.426 0.676 0.596 0.814" stroke="hsl(0.0,100%,35%)" stroke-width="0.00022"></path>
<path d="M1.287 0.382 Q0.749 0.128 0.136 0.335" stroke="hsl(0.0,100%,35%)" stroke-width="0.02127"></path>
<path d="M1.287 0.382 Q0.455 0.493 0.490 0.924" stroke="hsl(0.0,100%,35%)" stroke-width="0.01281"></path>
<path d="M1.287 0.382 Q0.868 0.263 0.545 0.441" stroke="hsl(0.0,100%,35%)" stroke-width="0.00043"></path>
<path d="M1.287 0.382 Q0.596 0.459 0.596 0.814" stroke="hsl(0.0,100%,35%)" stroke-width="0.00152"></path>
<path d="M1.287 0.382 Q0.579 0.347 0.356 0.685" stroke="hsl(0.0,100%,35%)" stroke-width="0.00065"></path>
<path d="M1.287 0.382 Q0.820 0.043 0.058 0.197" stroke="hsl(0.0,100%,35%)" stroke-width="0.00022"></path>
<path d="M1.287 0.382 Q1.021 0.224 0.655 0.320" stroke="hsl(0.0,100%,35%)" stroke-width="0.00022"></path>
<path d="M1.287 0.382 Q1.208 0.094 0.629 0.070" stroke="hsl(0.0,100%,35%)" stroke-width="0.00456"></path>
<path d="M0.629 0.070 Q0.170 0.104 0.136 0.335" stroke="hsl(0.0,100%,35%)" stroke-width="0.00499"></path>
<path d="M0.629 0.070 Q0.017 0.435 0.596 0.814" stroke="hsl(0.0,100%,35%)" stroke-width="0.00195"></path>
<path d="M0.629 0.070 Q-0.124 0.469 0.490 0.924" stroke="hsl(0.0,100%,35%)" stroke-width="0.00369"></path>
<path d="M0.629 0.070 Q0.241 0.019 0.058 0.197" stroke="hsl(0.0,100%,35%)" stroke-width="0.00022"></path>
<path d="M0.629 0.070 Q0.708 0.357 1.287 0.382" stroke="hsl(0.0,100%,35%)" stroke-width="0.00087"></path>
<path d="M0.629 0.070 Q0.464 0.013 0.319 0.081" stroke="hsl(0.0,100%,35%)" stroke-width="0.00043"></path>
<path d="M0.629 0.070 Q-0.000 0.323 0.356 0.685" stroke="hsl(0.0,100%,35%)" stroke-width="0.00022"></path>
<path d="M0.629 0.070 Q0.363 0.366 0.883 0.560" stroke="hsl(0.0,100%,35%)" stroke-width="0.00043"></path>
<path d="M0.629 0.070 Q0.193 0.553 1.041 0.872" stroke="hsl(0.0,100%,35%)" stroke-width="0.00022"></path>
<path d="M0.545 0.441 Q0.426 0.307 0.136 0.335" stroke="hsl(0.0,100%,35%)" stroke-width="0.02518"></path>
<path d="M0.545 0.441 Q0.272 0.638 0.596 0.814" stroke="hsl(0.0,100%,35%)" stroke-width="0.02496"></path>
<path d="M0.545 0.441 Q0.132 0.672 0.490 0.924" stroke="hsl(0.0,100%,35%)" stroke-width="0.00217"></path>
<path d="M0.545 0.441 Q0.619 0.568 0.883 0.560" stroke="hsl(0.0,100%,35%)" stroke-width="0.00065"></path>
<path d="M0.545 0.441 Q0.964 0.560 1.287 0.382" stroke="hsl(0.0,100%,35%)" stroke-width="0.00065"></path>
<path d="M0.545 0.441 Q0.884 0.272 0.629 0.070" stroke="hsl(0.0,100%,35%)" stroke-width="0.00022"></path>
<path d="M1.041 0.872 Q1.477 0.389 0.629 0.070" stroke="hsl(0.0,100%,35%)" stroke-width="0.00043"></path>
<path d="M1.041 0.872 Q1.212 0.685 0.883 0.560" stroke="hsl(0.0,100%,35%)" stroke-width="0.00022"></path>
<path d="M1.041 0.872 Q0.725 0.788 0.490 0.924" stroke="hsl(0.0,100%,35%)" stroke-width="0.00022"></path>
<path d="M1.041 0.872 Q1.019 0.423 0.136 0.335" stroke="hsl(0.0,100%,35%)" stroke-width="0.00022"></path>
<path d="M1.041 0.872 Q0.865 0.754 0.596 0.814" stroke="hsl(0.0,100%,35%)" stroke-width="0.00022"></path>
<path d="M0.826 0.933 Q0.960 0.496 0.136 0.335" stroke="hsl(0.0,100%,35%)" stroke-width="0.00043"></path>
<path d="M0.826 0.933 Q0.806 0.827 0.596 0.814" stroke="hsl(0.0,100%,35%)" stroke-width="0.00065"></path>
<path d="M0.826 0.933 Q1.031 0.411 0.058 0.197" stroke="hsl(0.0,100%,35%)" stroke-width="0.00022"></path>
<path d="M0.950 0.662 Q0.998 0.597 0.883 0.560" stroke="hsl(0.0,100%,35%)" stroke-width="0.00478"></path>
<path d="M0.950 0.662 Q0.876 0.414 0.377 0.396" stroke="hsl(0.0,100%,35%)" stroke-width="0.00195"></path>
<path d="M0.950 0.662 Q0.651 0.667 0.596 0.814" stroke="hsl(0.0,100%,35%)" stroke-width="0.00152"></path>
<path d="M0.950 0.662 Q1.047 0.877 1.488 0.877" stroke="hsl(0.0,100%,35%)" stroke-width="0.00022"></path>
<path d="M0.950 0.662 Q0.805 0.335 0.136 0.335" stroke="hsl(0.0,100%,35%)" stroke-width="0.00217"></path>
<path d="M0.377 0.396 Q0.306 0.317 0.136 0.335" stroke="hsl(0.0,100%,35%)" stroke-width="0.00586"></path>
<path d="M0.377 0.396 Q0.844 0.571 1.287 0.382" stroke="hsl(0.0,100%,35%)" stroke-width="0.00043"></path>
<path d="M0.377 0.396 Q0.376 0.233 0.058 0.197" stroke="hsl(0.0,100%,35%)" stroke-width="0.00087"></path>
<path d="M0.377 0.396 Q0.498 0.579 0.883 0.560" stroke="hsl(0.0,100%,35%)" stroke-width="0.00369"></path>
<path d="M0.377 0.396 Q0.152 0.649 0.596 0.814" stroke="hsl(0.0,100%,35%)" stroke-width="0.00369"></path>
<path d="M0.377 0.396 Q0.548 0.859 1.488 0.877" stroke="hsl(0.0,100%,35%)" stroke-width="0.00043"></path>
<path d="M0.107 0.455 Q0.218 0.401 0.136 0.335" stroke="hsl(0.0,100%,35%)" stroke-width="0.00738"></path>
<path d="M0.107 0.455 Q0.460 0.942 1.488 0.877" stroke="hsl(0.0,100%,35%)" stroke-width="0.00217"></path>
<path d="M0.107 0.455 Q0.411 0.663 0.883 0.560" stroke="hsl(0.0,100%,35%)" stroke-width="0.00282"></path>
<path d="M0.107 0.455 Q0.064 0.732 0.596 0.814" stroke="hsl(0.0,100%,35%)" stroke-width="0.00130"></path>
<path d="M0.107 0.455 Q0.051 0.450 0.029 0.476" stroke="hsl(0.0,100%,35%)" stroke-width="0.00195"></path>
<path d="M0.107 0.455 Q0.289 0.479 0.377 0.396" stroke="hsl(0.0,100%,35%)" stroke-width="0.00087"></path>
<path d="M1.488 0.877 Q1.245 0.335 0.136 0.335" stroke="hsl(0.0,100%,35%)" stroke-width="0.00174"></path>
<path d="M1.488 0.877 Q1.316 0.251 0.058 0.197" stroke="hsl(0.0,100%,35%)" stroke-width="0.00087"></path>
<path d="M1.488 0.877 Q1.092 0.667 0.596 0.814" stroke="hsl(0.0,100%,35%)" stroke-width="0.00217"></path>
<path d="M1.488 0.877 Q1.318 0.817 1.165 0.887" stroke="hsl(0.0,100%,35%)" stroke-width="0.00022"></path>
<path d="M1.488 0.877 Q1.317 0.414 0.377 0.396" stroke="hsl(0.0,100%,35%)" stroke-width="0.00087"></path>
<path d="M1.488 0.877 Q1.783 0.589 1.287 0.382" stroke="hsl(0.0,100%,35%)" stroke-width="0.00043"></path>
<path d="M1.488 0.877 Q1.438 0.597 0.883 0.560" stroke="hsl(0.0,100%,35%)" stroke-width="0.00087"></path>
<path d="M1.488 0.877 Q1.521 0.784 1.349 0.747" stroke="hsl(0.0,100%,35%)" stroke-width="0.00022"></path>
<path d="M0.402 0.508 Q0.946 0.622 1.287 0.382" stroke="hsl(0.0,100%,35%)" stroke-width="0.01324"></path>
<path d="M0.402 0.508 Q0.408 0.368 0.136 0.335" stroke="hsl(0.0,100%,35%)" stroke-width="0.01975"></path>
<path d="M0.402 0.508 Q0.114 0.733 0.490 0.924" stroke="hsl(0.0,100%,35%)" stroke-width="0.00065"></path>
<path d="M0.402 0.508 Q0.479 0.447 0.377 0.396" stroke="hsl(0.0,100%,35%)" stroke-width="0.00022"></path>
<path d="M0.402 0.508 Q0.254 0.699 0.596 0.814" stroke="hsl(0.0,100%,35%)" stroke-width="0.00022"></path>
<path d="M0.402 0.508 Q0.600 0.630 0.883 0.560" stroke="hsl(0.0,100%,35%)" stroke-width="0.00043"></path>
<path d="M1.286 0.841 Q1.116 0.358 0.136 0.335" stroke="hsl(0.0,100%,35%)" stroke-width="0.00087"></path>
<path d="M1.286 0.841 Q1.358 0.899 1.488 0.877" stroke="hsl(0.0,100%,35%)" stroke-width="0.00130"></path>
<path d="M1.286 0.841 Q0.963 0.689 0.596 0.814" stroke="hsl(0.0,100%,35%)" stroke-width="0.00022"></path>
<path d="M1.562 0.252 Q1.077 -0.082 0.319 0.081" stroke="hsl(0.0,100%,35%)" stroke-width="0.00087"></path>
<path d="M1.562 0.252 Q1.684 0.297 1.798 0.248" stroke="hsl(0.0,100%,35%)" stroke-width="0.00022"></path>
<path d="M1.562 0.252 Q0.783 0.008 0.136 0.335" stroke="hsl(0.0,100%,35%)" stroke-width="0.00022"></path>
<path d="M1.562 0.252 Q1.321 0.262 1.287 0.382" stroke="hsl(0.0,100%,35%)" stroke-width="0.00043"></path>
<path d="M0.609 0.568 Q0.559 0.357 0.136 0.335" stroke="hsl(0.0,100%,35%)" stroke-width="0.00109"></path>
<path d="M0.609 0.568 Q0.406 0.688 0.596 0.814" stroke="hsl(0.0,100%,35%)" stroke-width="0.00022"></path>
<path d="M0.609 0.568 Q0.752 0.619 0.883 0.560" stroke="hsl(0.0,100%,35%)" stroke-width="0.00087"></path>
<path d="M0.309 0.153 Q0.371 0.119 0.319 0.081" stroke="hsl(0.0,100%,35%)" stroke-width="0.00022"></path>
<path d="M0.309 0.153 Q0.077 0.209 0.136 0.335" stroke="hsl(0.0,100%,35%)" stroke-width="0.00239"></path>
<path d="M0.309 0.153 Q0.270 0.471 0.883 0.560" stroke="hsl(0.0,100%,35%)" stroke-width="0.00065"></path>
<path d="M0.309 0.153 Q-0.076 0.541 0.596 0.814" stroke="hsl(0.0,100%,35%)" stroke-width="0.00217"></path>
<path d="M1.349 0.747 Q1.072 0.299 0.136 0.335" stroke="hsl(0.0,100%,35%)" stroke-width="0.00087"></path>
<path d="M1.349 0.747 Q1.315 0.840 1.488 0.877" stroke="hsl(0.0,100%,35%)" stroke-width="0.00434"></path>
<path d="M1.349 0.747 Q0.919 0.630 0.596 0.814" stroke="hsl(0.0,100%,35%)" stroke-width="0.00130"></path>
<path d="M1.349 0.747 Q1.144 0.377 0.377 0.396" stroke="hsl(0.0,100%,35%)" stroke-width="0.00217"></path>
<path d="M1.349 0.747 Q1.265 0.561 0.883 0.560" stroke="hsl(0.0,100%,35%)" stroke-width="0.00087"></path>
<path d="M1.349 0.747 Q1.529 0.762 1.597 0.677" stroke="hsl(0.0,100%,35%)" stroke-width="0.00022"></path>
<path d="M0.694 0.952 Q0.909 0.532 0.136 0.335" stroke="hsl(0.0,100%,35%)" stroke-width="0.00087"></path>
<path d="M0.694 0.952 Q0.756 0.863 0.596 0.814" stroke="hsl(0.0,100%,35%)" stroke-width="0.00022"></path>
<path d="M0.694 0.952 Q1.102 0.794 0.883 0.560" stroke="hsl(0.0,100%,35%)" stroke-width="0.00043"></path>
<path d="M1.714 0.070 Q0.906 0.149 0.883 0.560" stroke="hsl(0.0,100%,35%)" stroke-width="0.00087"></path>
<path d="M1.714 0.070 Q0.713 -0.113 0.136 0.335" stroke="hsl(0.0,100%,35%)" stroke-width="0.00109"></path>
<path d="M1.714 0.070 Q0.559 0.218 0.596 0.814" stroke="hsl(0.0,100%,35%)" stroke-width="0.00022"></path>
<path d="M1.372 0.036 Q1.516 0.121 1.714 0.070" stroke="hsl(0.0,100%,35%)" stroke-width="0.00043"></path>
<path d="M1.372 0.036 Q0.362 0.270 0.596 0.814" stroke="hsl(0.0,100%,35%)" stroke-width="0.00022"></path>
<path d="M1.372 0.036 Q0.708 0.200 0.883 0.560" stroke="hsl(0.0,100%,35%)" stroke-width="0.00022"></path>
<path d="M1.372 0.036 Q0.586 0.017 0.377 0.396" stroke="hsl(0.0,100%,35%)" stroke-width="0.00022"></path>
<path d="M0.897 0.339 Q0.713 0.447 0.883 0.560" stroke="hsl(0.0,100%,35%)" stroke-width="0.00195"></path>
<path d="M0.897 0.339 Q0.520 0.185 0.136 0.335" stroke="hsl(0.0,100%,35%)" stroke-width="0.00260"></path>
<path d="M0.897 0.339 Q0.366 0.516 0.596 0.814" stroke="hsl(0.0,100%,35%)" stroke-width="0.00109"></path>
<path d="M0.897 0.339 Q1.058 0.438 1.287 0.382" stroke="hsl(0.0,100%,35%)" stroke-width="0.00022"></path>
<path d="M0.942 0.454 Q1.173 0.487 1.287 0.382" stroke="hsl(0.0,100%,35%)" stroke-width="0.00890"></path>
<path d="M0.942 0.454 Q0.635 0.234 0.136 0.335" stroke="hsl(0.0,100%,35%)" stroke-width="0.01020"></path>
<path d="M0.942 0.454 Q0.828 0.495 0.883 0.560" stroke="hsl(0.0,100%,35%)" stroke-width="0.00022"></path>
<path d="M1.076 0.630 Q1.035 0.557 0.883 0.560" stroke="hsl(0.0,100%,35%)" stroke-width="0.00043"></path>
<path d="M1.076 0.630 Q0.843 0.295 0.136 0.335" stroke="hsl(0.0,100%,35%)" stroke-width="0.00043"></path>
<path d="M1.076 0.630 Q0.689 0.626 0.596 0.814" stroke="hsl(0.0,100%,35%)" stroke-width="0.00022"></path>
<path d="M1.076 0.630 Q0.549 0.660 0.490 0.924" stroke="hsl(0.0,100%,35%)" stroke-width="0.00022"></path>
<path d="M0.692 0.248 Q0.345 0.180 0.136 0.335" stroke="hsl(0.0,100%,35%)" stroke-width="0.00803"></path>
<path d="M0.692 0.248 Q0.416 0.259 0.377 0.396" stroke="hsl(0.0,100%,35%)" stroke-width="0.00391"></path>
<path d="M0.692 0.248 Q0.587 0.721 1.488 0.877" stroke="hsl(0.0,100%,35%)" stroke-width="0.00087"></path>
<path d="M0.692 0.248 Q0.191 0.512 0.596 0.814" stroke="hsl(0.0,100%,35%)" stroke-width="0.00109"></path>
<path d="M0.692 0.248 Q0.537 0.442 0.883 0.560" stroke="hsl(0.0,100%,35%)" stroke-width="0.00022"></path>
<path d="M1.347 0.526 Q1.432 0.442 1.287 0.382" stroke="hsl(0.0,100%,35%)" stroke-width="0.01064"></path>
<path d="M1.347 0.526 Q0.894 0.188 0.136 0.335" stroke="hsl(0.0,100%,35%)" stroke-width="0.01107"></path>
<path d="M1.347 0.526 Q0.741 0.520 0.596 0.814" stroke="hsl(0.0,100%,35%)" stroke-width="0.00065"></path>
<path d="M1.347 0.526 Q1.013 0.323 0.545 0.441" stroke="hsl(0.0,100%,35%)" stroke-width="0.00022"></path>
<path d="M1.347 0.526 Q1.087 0.450 0.883 0.560" stroke="hsl(0.0,100%,35%)" stroke-width="0.00022"></path>
<path d="M0.333 0.568 Q0.251 0.631 0.356 0.685" stroke="hsl(0.0,100%,35%)" stroke-width="0.00022"></path>
<path d="M0.333 0.568 Q0.959 0.665 1.287 0.382" stroke="hsl(0.0,100%,35%)" stroke-width="0.00022"></path>
<path d="M0.333 0.568 Q0.492 0.327 0.058 0.197" stroke="hsl(0.0,100%,35%)" stroke-width="0.00022"></path>
<path d="M0.333 0.568 Q0.421 0.412 0.136 0.335" stroke="hsl(0.0,100%,35%)" stroke-width="0.00022"></path>
<path d="M0.333 0.568 Q0.268 0.743 0.596 0.814" stroke="hsl(0.0,100%,35%)" stroke-width="0.00022"></path>
<path d="M0.956 0.929 Q1.214 0.730 0.883 0.560" stroke="hsl(0.0,100%,35%)" stroke-width="0.00087"></path>
<path d="M0.956 0.929 Q1.021 0.468 0.136 0.335" stroke="hsl(0.0,100%,35%)" stroke-width="0.00065"></path>
<path d="M0.956 0.929 Q0.868 0.799 0.596 0.814" stroke="hsl(0.0,100%,35%)" stroke-width="0.00043"></path>
<path d="M0.956 0.929 Q0.727 0.833 0.490 0.924" stroke="hsl(0.0,100%,35%)" stroke-width="0.00109"></path>
<path d="M0.956 0.929 Q1.647 0.848 1.642 0.493" stroke="hsl(0.0,100%,35%)" stroke-width="0.00022"></path>
<path d="M0.956 0.929 Q1.559 0.721 1.287 0.382" stroke="hsl(0.0,100%,35%)" stroke-width="0.00022"></path>
<path d="M0.956 0.929 Q1.315 0.377 0.319 0.081" stroke="hsl(0.0,100%,35%)" stroke-width="0.00022"></path>
<path d="M0.598 0.598 Q0.424 0.706 0.596 0.814" stroke="hsl(0.0,100%,35%)" stroke-width="0.00174"></path>
<path d="M0.598 0.598 Q0.578 0.374 0.136 0.335" stroke="hsl(0.0,100%,35%)" stroke-width="0.00065"></path>
<path d="M0.598 0.598 Q0.523 0.573 0.457 0.604" stroke="hsl(0.0,100%,35%)" stroke-width="0.00022"></path>
<path d="M0.598 0.598 Q0.771 0.636 0.883 0.560" stroke="hsl(0.0,100%,35%)" stroke-width="0.00022"></path>
<path d="M0.080 0.415 Q0.365 0.648 0.883 0.560" stroke="hsl(0.0,100%,35%)" stroke-width="0.00065"></path>
<path d="M0.080 0.415 Q1.173 0.569 1.714 0.070" stroke="hsl(0.0,100%,35%)" stroke-width="0.00022"></path>
<path d="M0.080 0.415 Q0.172 0.386 0.136 0.335" stroke="hsl(0.0,100%,35%)" stroke-width="0.00152"></path>
<path d="M0.080 0.415 Q0.019 0.718 0.596 0.814" stroke="hsl(0.0,100%,35%)" stroke-width="0.00022"></path>
<path d="M0.420 0.872 Q0.708 0.547 0.136 0.335" stroke="hsl(0.0,100%,35%)" stroke-width="0.00065"></path>
<path d="M0.420 0.872 Q0.554 0.878 0.596 0.814" stroke="hsl(0.0,100%,35%)" stroke-width="0.00065"></path>
<path d="M0.420 0.872 Q0.414 0.912 0.490 0.924" stroke="hsl(0.0,100%,35%)" stroke-width="0.00022"></path>
<path d="M0.420 0.872 Q1.343 0.578 0.971 0.063" stroke="hsl(0.0,100%,35%)" stroke-width="0.00022"></path>
<path d="M0.842 0.746 Q0.818 0.399 0.136 0.335" stroke="hsl(0.0,100%,35%)" stroke-width="0.00239"></path>
<path d="M0.842 0.746 Q0.664 0.731 0.596 0.814" stroke="hsl(0.0,100%,35%)" stroke-width="0.00217"></path>
<path d="M0.842 0.746 Q0.937 0.534 0.545 0.441" stroke="hsl(0.0,100%,35%)" stroke-width="0.00022"></path>
<path d="M1.538 0.094 Q0.837 0.196 0.883 0.560" stroke="hsl(0.0,100%,35%)" stroke-width="0.00043"></path>
<path d="M1.538 0.094 Q1.645 0.117 1.714 0.070" stroke="hsl(0.0,100%,35%)" stroke-width="0.00130"></path>
<path d="M1.538 0.094 Q0.644 -0.066 0.136 0.335" stroke="hsl(0.0,100%,35%)" stroke-width="0.00130"></path>
<path d="M1.538 0.094 Q0.491 0.265 0.596 0.814" stroke="hsl(0.0,100%,35%)" stroke-width="0.00022"></path>
<path d="M0.869 0.271 Q0.644 0.418 0.883 0.560" stroke="hsl(0.0,100%,35%)" stroke-width="0.00022"></path>
<path d="M0.869 0.271 Q0.452 0.157 0.136 0.335" stroke="hsl(0.0,100%,35%)" stroke-width="0.00022"></path>
<path d="M0.869 0.271 Q0.298 0.488 0.596 0.814" stroke="hsl(0.0,100%,35%)" stroke-width="0.00022"></path>
</g>
<text x="1.823" y="0.871" font-size="0.005272" fill="hsl(0.0,100%,20%)">adkushwa</text>
<text x="0.136" y="0.283" font-size="0.104804" fill="hsl(0.0,100%,20%)">jmadill</text>
<text x="1.775" y="0.740" font-size="0.003334" fill="hsl(0.0,100%,20%)">rafael.cintron</text>
<text x="0.883" y="0.541" font-size="0.038453" fill="hsl(0.0,100%,20%)">geofflang</text>
<text x="1.829" y="0.384" font-size="0.004084" fill="hsl(0.0,100%,20%)">amaiorano</text>
<text x="1.642" y="0.491" font-size="0.004084" fill="hsl(0.0,100%,20%)">nicolascapens</text>
<text x="0.058" y="0.178" font-size="0.038162" fill="hsl(0.0,100%,20%)">ynovikov</text>
<text x="0.837" y="0.809" font-size="0.011307" fill="hsl(0.0,100%,20%)">amy.liu</text>
<text x="0.596" y="0.773" font-size="0.082046" fill="hsl(0.0,100%,20%)">syoussefi</text>
<text x="0.490" y="0.892" font-size="0.063701" fill="hsl(0.0,100%,20%)">timvp</text>
<text x="0.319" y="0.065" font-size="0.032327" fill="hsl(0.0,100%,20%)">ianelliott</text>
<text x="0.653" y="0.693" font-size="0.014341" fill="hsl(0.0,100%,20%)">b.schade</text>
<text x="0.356" y="0.665" font-size="0.040563" fill="hsl(0.0,100%,20%)">cclao</text>
<text x="0.656" y="0.560" font-size="0.005775" fill="hsl(0.0,100%,20%)">capn</text>
<text x="1.287" y="0.353" font-size="0.056289" fill="hsl(0.0,100%,20%)">cnorthrop</text>
<text x="0.629" y="0.053" font-size="0.032154" fill="hsl(0.0,100%,20%)">courtneygo</text>
<text x="0.545" y="0.422" font-size="0.039098" fill="hsl(0.0,100%,20%)">m.maiya</text>
<text x="0.655" y="0.318" font-size="0.003334" fill="hsl(0.0,100%,20%)">paulthomson</text>
<text x="1.041" y="0.869" font-size="0.006669" fill="hsl(0.0,100%,20%)">tobine</text>
<text x="0.826" y="0.930" font-size="0.006238" fill="hsl(0.0,100%,20%)">cwallez</text>
<text x="0.950" y="0.653" font-size="0.017485" fill="hsl(0.0,100%,20%)">penghuang</text>
<text x="0.252" y="0.860" font-size="0.004084" fill="hsl(0.0,100%,20%)">sunny.sun</text>
<text x="0.377" y="0.380" font-size="0.032241" fill="hsl(0.0,100%,20%)">jonahr</text>
<text x="0.107" y="0.445" font-size="0.020689" fill="hsl(0.0,100%,20%)">lexa.knyazev</text>
<text x="1.488" y="0.865" font-size="0.022491" fill="hsl(0.0,100%,20%)">kbr</text>
<text x="0.402" y="0.493" font-size="0.030101" fill="hsl(0.0,100%,20%)">gert.wollny</text>
<text x="1.286" y="0.837" font-size="0.007820" fill="hsl(0.0,100%,20%)">gman</text>
<text x="1.562" y="0.248" font-size="0.007820" fill="hsl(0.0,100%,20%)">mark</text>
<text x="0.609" y="0.564" font-size="0.007820" fill="hsl(0.0,100%,20%)">vantablack</text>
<text x="0.309" y="0.147" font-size="0.011788" fill="hsl(0.0,100%,20%)">j.vigil</text>
<text x="1.349" y="0.739" font-size="0.016163" fill="hsl(0.0,100%,20%)">jdarpinian</text>
<text x="1.597" y="0.676" font-size="0.002358" fill="hsl(0.0,100%,20%)">shrekshao</text>
<text x="0.694" y="0.949" font-size="0.006669" fill="hsl(0.0,100%,20%)">jgilbert</text>
<text x="1.714" y="0.065" font-size="0.010277" fill="hsl(0.0,100%,20%)">jiajia.qin</text>
<text x="1.372" y="0.033" font-size="0.005272" fill="hsl(0.0,100%,20%)">jiawei.shao</text>
<text x="0.479" y="0.209" font-size="0.003334" fill="hsl(0.0,100%,20%)">tandrii</text>
<text x="0.487" y="0.319" font-size="0.004715" fill="hsl(0.0,100%,20%)">dpranke</text>
<text x="0.429" y="0.253" font-size="0.005272" fill="hsl(0.0,100%,20%)">bsheedy</text>
<text x="0.361" y="0.152" font-size="0.002358" fill="hsl(0.0,100%,20%)">doughorn</text>
<text x="0.161" y="0.405" font-size="0.002358" fill="hsl(0.0,100%,20%)">lfy</text>
<text x="0.897" y="0.333" font-size="0.012696" fill="hsl(0.0,100%,20%)">sugoi</text>
<text x="0.029" y="0.472" font-size="0.007820" fill="hsl(0.0,100%,20%)">le.hoang.q</text>
<text x="1.032" y="0.823" font-size="0.003334" fill="hsl(0.0,100%,20%)">kainino</text>
<text x="0.942" y="0.443" font-size="0.022242" fill="hsl(0.0,100%,20%)">jplate</text>
<text x="1.165" y="0.886" font-size="0.002358" fill="hsl(0.0,100%,20%)">ccameron</text>
<text x="1.076" y="0.627" font-size="0.005775" fill="hsl(0.0,100%,20%)">kyle.griffiths</text>
<text x="0.692" y="0.238" font-size="0.019008" fill="hsl(0.0,100%,20%)">lehoangq</text>
<text x="1.347" y="0.514" font-size="0.024159" fill="hsl(0.0,100%,20%)">lubosz.sarnecki</text>
<text x="0.333" y="0.565" font-size="0.005272" fill="hsl(0.0,100%,20%)">lunpujun</text>
<text x="1.798" y="0.246" font-size="0.002358" fill="hsl(0.0,100%,20%)">mikes</text>
<text x="0.956" y="0.924" font-size="0.010003" fill="hsl(0.0,100%,20%)">natsu</text>
<text x="0.598" y="0.594" font-size="0.008501" fill="hsl(0.0,100%,20%)">pkasting</text>
<text x="0.457" y="0.603" font-size="0.003334" fill="hsl(0.0,100%,20%)">thakis</text>
<text x="0.080" y="0.411" font-size="0.008501" fill="hsl(0.0,100%,20%)">senorblanco</text>
<text x="0.420" y="0.869" font-size="0.006669" fill="hsl(0.0,100%,20%)">sergeyu</text>
<text x="0.971" y="0.061" font-size="0.003334" fill="hsl(0.0,100%,20%)">spang</text>
<text x="0.580" y="1.004" font-size="0.003334" fill="hsl(0.0,100%,20%)">reveman</text>
<text x="0.903" y="0.678" font-size="0.002358" fill="hsl(0.0,100%,20%)">jie.a.chen</text>
<text x="0.842" y="0.740" font-size="0.011058" fill="hsl(0.0,100%,20%)">xiaoxuan.liu</text>
<text x="1.538" y="0.089" font-size="0.009131" fill="hsl(0.0,100%,20%)">xinghua.cao</text>
<text x="0.869" y="0.269" font-size="0.004084" fill="hsl(0.0,100%,20%)">yang.gu</text>
</svg>
