<svg width="4000" height="2000" viewBox="-0.025 -0.025 2.05 1.05" xmlns="http://www.w3.org/2000/svg">
  <style>
    path {
      fill: none;
      stroke-linecap: round;
      stroke-opacity: 0.4;
    }

    text {
      text-anchor: middle;
      alignment-baseline: hanging;
    }
  </style>
  <g opacity="0.4">
<path d="M1.380 0.744 Q1.518 0.713 1.486 0.639" stroke="hsl(0.0,100%,35%)" stroke-width="0.02371"></path>
<path d="M1.380 0.744 Q1.357 0.699 1.263 0.701" stroke="hsl(0.0,100%,35%)" stroke-width="0.00948"></path>
<path d="M1.380 0.744 Q1.381 0.629 1.156 0.604" stroke="hsl(0.0,100%,35%)" stroke-width="0.00474"></path>
<path d="M1.380 0.744 Q1.398 0.666 1.249 0.641" stroke="hsl(0.0,100%,35%)" stroke-width="0.00474"></path>
<path d="M1.380 0.744 Q1.186 0.731 1.117 0.823" stroke="hsl(0.0,100%,35%)" stroke-width="0.00474"></path>
<path d="M1.380 0.744 Q0.986 0.703 0.818 0.886" stroke="hsl(0.0,100%,35%)" stroke-width="0.00474"></path>
<path d="M1.486 0.639 Q1.457 0.556 1.289 0.552" stroke="hsl(0.0,100%,35%)" stroke-width="0.00474"></path>
<path d="M1.486 0.639 Q1.189 0.306 0.476 0.378" stroke="hsl(0.0,100%,35%)" stroke-width="0.00474"></path>
<path d="M1.486 0.639 Q1.556 0.580 1.457 0.533" stroke="hsl(0.0,100%,35%)" stroke-width="0.00474"></path>
<path d="M1.117 0.823 Q1.021 0.880 1.112 0.940" stroke="hsl(120.0,100%,35%)" stroke-width="0.00474"></path>
<path d="M1.117 0.823 Q1.152 0.472 0.476 0.378" stroke="hsl(120.0,100%,35%)" stroke-width="0.00474"></path>
<path d="M1.117 0.823 Q1.101 0.879 1.206 0.899" stroke="hsl(120.0,100%,35%)" stroke-width="0.00474"></path>
<path d="M1.117 0.823 Q1.063 0.745 0.901 0.755" stroke="hsl(120.0,100%,35%)" stroke-width="0.00948"></path>
<path d="M1.117 0.823 Q1.700 0.875 1.929 0.602" stroke="hsl(120.0,100%,35%)" stroke-width="0.00474"></path>
<path d="M0.818 0.886 Q0.909 0.825 0.810 0.768" stroke="hsl(120.0,100%,35%)" stroke-width="0.01897"></path>
<path d="M0.818 0.886 Q1.018 0.914 1.117 0.823" stroke="hsl(120.0,100%,35%)" stroke-width="0.01423"></path>
<path d="M0.818 0.886 Q0.964 0.837 0.901 0.755" stroke="hsl(120.0,100%,35%)" stroke-width="0.00474"></path>
<path d="M0.818 0.886 Q0.929 0.853 0.888 0.791" stroke="hsl(120.0,100%,35%)" stroke-width="0.00474"></path>
<path d="M0.818 0.886 Q1.133 0.379 0.213 0.114" stroke="hsl(120.0,100%,35%)" stroke-width="0.00948"></path>
<path d="M0.818 0.886 Q0.708 0.846 0.604 0.890" stroke="hsl(120.0,100%,35%)" stroke-width="0.00474"></path>
<path d="M0.959 0.289 Q0.866 0.224 0.718 0.255" stroke="hsl(240.0,100%,35%)" stroke-width="0.12330"></path>
<path d="M0.959 0.289 Q1.064 0.718 1.924 0.761" stroke="hsl(240.0,100%,35%)" stroke-width="0.00474"></path>
<path d="M0.959 0.289 Q0.965 0.394 1.170 0.414" stroke="hsl(240.0,100%,35%)" stroke-width="0.02371"></path>
<path d="M0.959 0.289 Q1.100 0.304 1.160 0.239" stroke="hsl(240.0,100%,35%)" stroke-width="0.00948"></path>
<path d="M0.501 0.976 Q0.413 0.911 0.266 0.940" stroke="hsl(120.0,100%,35%)" stroke-width="0.00474"></path>
<path d="M0.501 0.976 Q1.111 1.192 1.665 0.942" stroke="hsl(120.0,100%,35%)" stroke-width="0.00474"></path>
<path d="M0.501 0.976 Q0.399 0.832 0.094 0.849" stroke="hsl(120.0,100%,35%)" stroke-width="0.00474"></path>
<path d="M0.501 0.976 Q0.569 0.978 0.586 0.945" stroke="hsl(120.0,100%,35%)" stroke-width="0.00474"></path>
<path d="M1.665 0.942 Q1.841 0.928 1.852 0.838" stroke="hsl(120.0,100%,35%)" stroke-width="0.00474"></path>
<path d="M1.665 0.942 Q1.865 0.943 1.912 0.845" stroke="hsl(120.0,100%,35%)" stroke-width="0.00474"></path>
<path d="M1.665 0.942 Q1.815 0.957 1.878 0.887" stroke="hsl(120.0,100%,35%)" stroke-width="0.00948"></path>
<path d="M1.665 0.942 Q1.557 0.880 1.412 0.919" stroke="hsl(120.0,100%,35%)" stroke-width="0.00474"></path>
<path d="M1.665 0.942 Q2.082 0.723 1.746 0.471" stroke="hsl(120.0,100%,35%)" stroke-width="0.00474"></path>
<path d="M1.665 0.942 Q1.470 0.829 1.206 0.899" stroke="hsl(120.0,100%,35%)" stroke-width="0.00474"></path>
<path d="M1.964 0.382 Q1.840 0.407 1.863 0.473" stroke="hsl(120.0,100%,35%)" stroke-width="0.00474"></path>
<path d="M1.964 0.382 Q1.988 0.301 1.835 0.271" stroke="hsl(120.0,100%,35%)" stroke-width="0.00474"></path>
<path d="M1.964 0.382 Q1.947 0.317 1.816 0.311" stroke="hsl(120.0,100%,35%)" stroke-width="0.00474"></path>
<path d="M1.964 0.382 Q1.809 0.347 1.708 0.416" stroke="hsl(120.0,100%,35%)" stroke-width="0.00474"></path>
<path d="M1.964 0.382 Q1.783 0.324 1.631 0.399" stroke="hsl(120.0,100%,35%)" stroke-width="0.00948"></path>
<path d="M1.964 0.382 Q1.794 0.162 1.328 0.196" stroke="hsl(120.0,100%,35%)" stroke-width="0.00474"></path>
<path d="M1.964 0.382 Q0.945 0.310 0.581 0.791" stroke="hsl(120.0,100%,35%)" stroke-width="0.00948"></path>
<path d="M1.964 0.382 Q1.875 0.314 1.725 0.343" stroke="hsl(120.0,100%,35%)" stroke-width="0.00948"></path>
<path d="M1.964 0.382 Q1.846 0.372 1.802 0.427" stroke="hsl(120.0,100%,35%)" stroke-width="0.00474"></path>
<path d="M1.631 0.399 Q1.631 0.458 1.746 0.471" stroke="hsl(120.0,100%,35%)" stroke-width="0.00474"></path>
<path d="M1.631 0.399 Q1.529 0.359 1.427 0.400" stroke="hsl(120.0,100%,35%)" stroke-width="0.00474"></path>
<path d="M1.631 0.399 Q1.505 0.403 1.485 0.465" stroke="hsl(120.0,100%,35%)" stroke-width="0.00474"></path>
<path d="M1.631 0.399 Q1.493 0.425 1.514 0.498" stroke="hsl(120.0,100%,35%)" stroke-width="0.00474"></path>
<path d="M0.581 0.791 Q0.859 0.564 0.476 0.378" stroke="hsl(120.0,100%,35%)" stroke-width="0.00474"></path>
<path d="M0.581 0.791 Q0.744 0.747 0.693 0.658" stroke="hsl(120.0,100%,35%)" stroke-width="0.00474"></path>
<path d="M0.581 0.791 Q0.624 0.886 0.818 0.886" stroke="hsl(120.0,100%,35%)" stroke-width="0.00948"></path>
<path d="M0.581 0.791 Q0.731 0.754 0.692 0.673" stroke="hsl(120.0,100%,35%)" stroke-width="0.00474"></path>
<path d="M0.581 0.791 Q1.317 0.765 1.427 0.400" stroke="hsl(120.0,100%,35%)" stroke-width="0.00474"></path>
<path d="M0.581 0.791 Q1.600 0.863 1.964 0.382" stroke="hsl(120.0,100%,35%)" stroke-width="0.00474"></path>
<path d="M0.581 0.791 Q0.751 0.778 0.763 0.693" stroke="hsl(120.0,100%,35%)" stroke-width="0.00474"></path>
<path d="M0.581 0.791 Q1.551 0.713 1.612 0.223" stroke="hsl(120.0,100%,35%)" stroke-width="0.00474"></path>
<path d="M0.581 0.791 Q0.569 0.718 0.424 0.708" stroke="hsl(120.0,100%,35%)" stroke-width="0.00474"></path>
<path d="M0.295 0.368 Q0.214 0.382 0.223 0.425" stroke="hsl(0.0,100%,35%)" stroke-width="0.00948"></path>
<path d="M0.295 0.368 Q0.949 0.489 1.328 0.196" stroke="hsl(0.0,100%,35%)" stroke-width="0.00474"></path>
<path d="M0.295 0.368 Q0.338 0.366 0.344 0.345" stroke="hsl(0.0,100%,35%)" stroke-width="0.00474"></path>
<path d="M1.019 0.662 Q1.535 0.653 1.631 0.399" stroke="hsl(0.0,100%,35%)" stroke-width="0.00474"></path>
<path d="M1.019 0.662 Q1.003 0.697 1.069 0.713" stroke="hsl(0.0,100%,35%)" stroke-width="0.00474"></path>
<path d="M1.019 0.662 Q1.079 0.655 1.081 0.625" stroke="hsl(0.0,100%,35%)" stroke-width="0.00474"></path>
<path d="M1.929 0.602 Q1.942 0.500 1.746 0.471" stroke="hsl(120.0,100%,35%)" stroke-width="0.00474"></path>
<path d="M1.929 0.602 Q1.525 0.719 1.665 0.942" stroke="hsl(120.0,100%,35%)" stroke-width="0.00474"></path>
<path d="M1.929 0.602 Q1.968 0.525 1.826 0.489" stroke="hsl(120.0,100%,35%)" stroke-width="0.00474"></path>
<path d="M1.929 0.602 Q2.018 0.539 1.914 0.482" stroke="hsl(120.0,100%,35%)" stroke-width="0.00474"></path>
<path d="M1.618 0.772 Q1.758 0.785 1.815 0.719" stroke="hsl(240.0,100%,35%)" stroke-width="0.03320"></path>
<path d="M1.618 0.772 Q1.468 0.774 1.439 0.847" stroke="hsl(240.0,100%,35%)" stroke-width="0.00474"></path>
<path d="M1.618 0.772 Q0.794 0.506 0.094 0.849" stroke="hsl(240.0,100%,35%)" stroke-width="0.00474"></path>
<path d="M1.618 0.772 Q1.676 0.801 1.747 0.779" stroke="hsl(240.0,100%,35%)" stroke-width="0.00474"></path>
<path d="M0.213 0.114 Q0.039 0.155 0.079 0.249" stroke="hsl(120.0,100%,35%)" stroke-width="0.02371"></path>
<path d="M0.213 0.114 Q0.299 0.179 0.444 0.152" stroke="hsl(120.0,100%,35%)" stroke-width="0.01423"></path>
<path d="M0.213 0.114 Q0.329 0.139 0.402 0.088" stroke="hsl(120.0,100%,35%)" stroke-width="0.00474"></path>
<path d="M1.275 0.082 Q1.199 0.371 1.746 0.471" stroke="hsl(240.0,100%,35%)" stroke-width="0.00948"></path>
<path d="M1.275 0.082 Q1.352 0.137 1.475 0.111" stroke="hsl(240.0,100%,35%)" stroke-width="0.00948"></path>
<path d="M1.275 0.082 Q1.206 0.016 1.063 0.035" stroke="hsl(240.0,100%,35%)" stroke-width="0.00474"></path>
<path d="M1.275 0.082 Q0.859 0.057 0.718 0.255" stroke="hsl(240.0,100%,35%)" stroke-width="0.01897"></path>
<path d="M1.043 0.142 Q0.791 0.134 0.718 0.255" stroke="hsl(0.0,100%,35%)" stroke-width="0.00474"></path>
<path d="M1.043 0.142 Q0.979 0.087 0.857 0.107" stroke="hsl(0.0,100%,35%)" stroke-width="0.00474"></path>
<path d="M1.043 0.142 Q1.312 0.446 1.964 0.382" stroke="hsl(0.0,100%,35%)" stroke-width="0.00474"></path>
<path d="M1.043 0.142 Q1.207 0.159 1.275 0.082" stroke="hsl(0.0,100%,35%)" stroke-width="0.00474"></path>
<path d="M1.043 0.142 Q0.724 0.191 0.748 0.357" stroke="hsl(0.0,100%,35%)" stroke-width="0.00474"></path>
<path d="M1.703 0.655 Q1.728 0.752 1.924 0.761" stroke="hsl(120.0,100%,35%)" stroke-width="0.00474"></path>
<path d="M1.703 0.655 Q1.769 0.472 1.427 0.400" stroke="hsl(120.0,100%,35%)" stroke-width="0.00474"></path>
<path d="M1.703 0.655 Q1.858 0.674 1.929 0.602" stroke="hsl(120.0,100%,35%)" stroke-width="0.00474"></path>
<path d="M0.150 0.629 Q0.880 0.843 1.457 0.533" stroke="hsl(0.0,100%,35%)" stroke-width="0.00474"></path>
<path d="M0.150 0.629 Q0.136 0.605 0.087 0.606" stroke="hsl(0.0,100%,35%)" stroke-width="0.00474"></path>
<path d="M0.150 0.629 Q0.590 0.703 0.831 0.504" stroke="hsl(0.0,100%,35%)" stroke-width="0.00474"></path>
<path d="M0.831 0.504 Q0.391 0.430 0.150 0.629" stroke="hsl(0.0,100%,35%)" stroke-width="0.00948"></path>
<path d="M0.831 0.504 Q0.712 0.464 0.607 0.512" stroke="hsl(0.0,100%,35%)" stroke-width="0.02845"></path>
<path d="M0.831 0.504 Q0.719 0.505 0.696 0.560" stroke="hsl(0.0,100%,35%)" stroke-width="0.00948"></path>
<path d="M0.831 0.504 Q0.882 0.435 0.759 0.395" stroke="hsl(0.0,100%,35%)" stroke-width="0.00474"></path>
<path d="M0.831 0.504 Q0.783 0.412 0.593 0.415" stroke="hsl(0.0,100%,35%)" stroke-width="0.01423"></path>
<path d="M0.831 0.504 Q0.754 0.556 0.838 0.604" stroke="hsl(0.0,100%,35%)" stroke-width="0.00474"></path>
<path d="M0.831 0.504 Q0.499 0.496 0.411 0.656" stroke="hsl(0.0,100%,35%)" stroke-width="0.00474"></path>
<path d="M1.067 0.522 Q1.304 0.813 1.924 0.761" stroke="hsl(120.0,100%,35%)" stroke-width="0.00474"></path>
<path d="M1.067 0.522 Q1.434 0.734 1.929 0.602" stroke="hsl(120.0,100%,35%)" stroke-width="0.00948"></path>
<path d="M1.067 0.522 Q1.165 0.548 1.238 0.506" stroke="hsl(120.0,100%,35%)" stroke-width="0.00474"></path>
<path d="M0.259 0.748 Q0.162 0.827 0.294 0.891" stroke="hsl(120.0,100%,35%)" stroke-width="0.00474"></path>
<path d="M0.259 0.748 Q0.217 0.804 0.317 0.837" stroke="hsl(120.0,100%,35%)" stroke-width="0.00474"></path>
<path d="M0.259 0.748 Q0.096 0.766 0.094 0.849" stroke="hsl(120.0,100%,35%)" stroke-width="0.00474"></path>
<path d="M1.614 0.553 Q1.603 0.719 1.924 0.761" stroke="hsl(120.0,100%,35%)" stroke-width="0.00474"></path>
<path d="M1.614 0.553 Q1.746 0.539 1.746 0.471" stroke="hsl(120.0,100%,35%)" stroke-width="0.00948"></path>
<path d="M1.614 0.553 Q1.733 0.641 1.929 0.602" stroke="hsl(120.0,100%,35%)" stroke-width="0.01423"></path>
<path d="M0.399 0.578 Q0.343 0.619 0.411 0.656" stroke="hsl(0.0,100%,35%)" stroke-width="0.00948"></path>
<path d="M0.399 0.578 Q0.399 0.535 0.316 0.525" stroke="hsl(0.0,100%,35%)" stroke-width="0.00948"></path>
<path d="M0.399 0.578 Q0.750 0.537 0.748 0.357" stroke="hsl(0.0,100%,35%)" stroke-width="0.00474"></path>
<path d="M0.399 0.578 Q0.627 0.535 0.593 0.415" stroke="hsl(0.0,100%,35%)" stroke-width="0.00474"></path>
<path d="M0.616 0.365 Q0.688 0.387 0.748 0.357" stroke="hsl(120.0,100%,35%)" stroke-width="0.00474"></path>
<path d="M0.616 0.365 Q0.535 0.343 0.476 0.378" stroke="hsl(120.0,100%,35%)" stroke-width="0.00474"></path>
<path d="M0.616 0.365 Q0.472 0.364 0.439 0.435" stroke="hsl(120.0,100%,35%)" stroke-width="0.00474"></path>
<path d="M1.448 0.310 Q1.608 0.238 1.502 0.144" stroke="hsl(0.0,100%,35%)" stroke-width="0.00948"></path>
<path d="M1.448 0.310 Q1.600 0.299 1.612 0.223" stroke="hsl(0.0,100%,35%)" stroke-width="0.00474"></path>
<path d="M1.448 0.310 Q1.426 0.248 1.300 0.245" stroke="hsl(0.0,100%,35%)" stroke-width="0.00474"></path>
<path d="M1.448 0.310 Q1.560 0.382 1.725 0.343" stroke="hsl(0.0,100%,35%)" stroke-width="0.00474"></path>
<path d="M1.448 0.310 Q0.987 -0.035 0.213 0.114" stroke="hsl(0.0,100%,35%)" stroke-width="0.00474"></path>
<path d="M1.448 0.310 Q1.401 0.205 1.185 0.204" stroke="hsl(0.0,100%,35%)" stroke-width="0.00474"></path>
<path d="M1.448 0.310 Q1.128 0.137 0.718 0.255" stroke="hsl(0.0,100%,35%)" stroke-width="0.00474"></path>
<path d="M1.448 0.310 Q0.744 0.123 0.223 0.425" stroke="hsl(0.0,100%,35%)" stroke-width="0.00474"></path>
<path d="M1.448 0.310 Q1.479 0.229 1.328 0.196" stroke="hsl(0.0,100%,35%)" stroke-width="0.00948"></path>
<path d="M1.448 0.310 Q1.366 0.351 1.427 0.400" stroke="hsl(0.0,100%,35%)" stroke-width="0.00474"></path>
<path d="M1.448 0.310 Q1.351 0.272 1.255 0.311" stroke="hsl(0.0,100%,35%)" stroke-width="0.00474"></path>
<path d="M1.448 0.310 Q1.300 0.533 1.703 0.655" stroke="hsl(0.0,100%,35%)" stroke-width="0.00474"></path>
<path d="M1.448 0.310 Q0.630 0.378 0.581 0.791" stroke="hsl(0.0,100%,35%)" stroke-width="0.00474"></path>
<path d="M1.448 0.310 Q1.664 0.370 1.828 0.278" stroke="hsl(0.0,100%,35%)" stroke-width="0.00474"></path>
<path d="M0.061 0.411 Q0.040 0.475 0.160 0.499" stroke="hsl(120.0,100%,35%)" stroke-width="0.00474"></path>
<path d="M0.061 0.411 Q0.375 0.293 0.213 0.114" stroke="hsl(120.0,100%,35%)" stroke-width="0.00474"></path>
<path d="M0.061 0.411 Q0.842 0.880 1.929 0.602" stroke="hsl(120.0,100%,35%)" stroke-width="0.00474"></path>
<path d="M0.061 0.411 Q0.200 0.334 0.079 0.249" stroke="hsl(120.0,100%,35%)" stroke-width="0.00474"></path>
<path d="M0.841 0.376 Q0.915 0.423 1.022 0.397" stroke="hsl(120.0,100%,35%)" stroke-width="0.00474"></path>
<path d="M0.841 0.376 Q0.824 0.377 0.820 0.385" stroke="hsl(120.0,100%,35%)" stroke-width="0.00474"></path>
<path d="M0.841 0.376 Q0.562 0.160 0.079 0.249" stroke="hsl(120.0,100%,35%)" stroke-width="0.00474"></path>
</g>
<text x="1.380" y="0.728" font-size="0.032063" fill="hsl(0.0,100%,20%)">adrian.ratiu</text>
<text x="1.486" y="0.625" font-size="0.027343" fill="hsl(0.0,100%,20%)">gbiv</text>
<text x="1.263" y="0.694" font-size="0.013672" fill="hsl(0.0,100%,20%)">inglorion</text>
<text x="1.156" y="0.599" font-size="0.009667" fill="hsl(0.0,100%,20%)">kamesan</text>
<text x="1.249" y="0.636" font-size="0.009667" fill="hsl(0.0,100%,20%)">wtlee</text>
<text x="1.117" y="0.807" font-size="0.030571" fill="hsl(120.0,100%,20%)">drmasquatch</text>
<text x="0.818" y="0.867" font-size="0.037442" fill="hsl(120.0,100%,20%)">uekawa</text>
<text x="0.959" y="0.261" font-size="0.056370" fill="hsl(240.0,100%,20%)">allenshihmc</text>
<text x="0.718" y="0.227" font-size="0.054687" fill="hsl(240.0,100%,20%)">wyuang</text>
<text x="1.924" y="0.752" font-size="0.019335" fill="hsl(120.0,100%,20%)">akhna</text>
<text x="1.170" y="0.403" font-size="0.021617" fill="hsl(240.0,100%,20%)">ckclark</text>
<text x="1.160" y="0.232" font-size="0.013672" fill="hsl(240.0,100%,20%)">yhong</text>
<text x="0.501" y="0.967" font-size="0.019335" fill="hsl(120.0,100%,20%)">andrewlassalle</text>
<text x="0.266" y="0.935" font-size="0.009667" fill="hsl(120.0,100%,20%)">rmao</text>
<text x="1.665" y="0.927" font-size="0.029002" fill="hsl(120.0,100%,20%)">kimjae</text>
<text x="0.094" y="0.841" font-size="0.016744" fill="hsl(120.0,100%,20%)">troywang</text>
<text x="0.586" y="0.940" font-size="0.009667" fill="hsl(120.0,100%,20%)">danielwinkler</text>
<text x="1.964" y="0.363" font-size="0.036172" fill="hsl(120.0,100%,20%)">byronlee</text>
<text x="1.863" y="0.468" font-size="0.009667" fill="hsl(0.0,100%,20%)">momohatt</text>
<text x="1.835" y="0.266" font-size="0.009667" fill="hsl(0.0,100%,20%)">hanlinchen</text>
<text x="1.816" y="0.306" font-size="0.009667" fill="hsl(0.0,100%,20%)">yunkec</text>
<text x="1.708" y="0.411" font-size="0.009667" fill="hsl(120.0,100%,20%)">derekhuang</text>
<text x="1.631" y="0.387" font-size="0.025577" fill="hsl(120.0,100%,20%)">diwux</text>
<text x="1.328" y="0.187" font-size="0.019335" fill="hsl(0.0,100%,20%)">jiejiang</text>
<text x="0.581" y="0.774" font-size="0.034856" fill="hsl(120.0,100%,20%)">weiluanwang</text>
<text x="1.725" y="0.335" font-size="0.016744" fill="hsl(0.0,100%,20%)">mqg</text>
<text x="1.802" y="0.422" font-size="0.009667" fill="hsl(0.0,100%,20%)">accorsi</text>
<text x="0.295" y="0.358" font-size="0.019335" fill="hsl(0.0,100%,20%)">chenzikai</text>
<text x="0.223" y="0.416" font-size="0.016744" fill="hsl(0.0,100%,20%)">hugobenichi</text>
<text x="0.344" y="0.340" font-size="0.009667" fill="hsl(0.0,100%,20%)">toyoshim</text>
<text x="1.019" y="0.653" font-size="0.016744" fill="hsl(0.0,100%,20%)">cuicuiruan</text>
<text x="1.069" y="0.708" font-size="0.009667" fill="hsl(0.0,100%,20%)">lovisolo</text>
<text x="1.081" y="0.620" font-size="0.009667" fill="hsl(0.0,100%,20%)">rbock</text>
<text x="1.746" y="0.459" font-size="0.025577" fill="hsl(120.0,100%,20%)">sarthakkukreti</text>
<text x="1.427" y="0.390" font-size="0.019335" fill="hsl(0.0,100%,20%)">hcyang</text>
<text x="1.485" y="0.460" font-size="0.009667" fill="hsl(0.0,100%,20%)">kawasin</text>
<text x="1.514" y="0.494" font-size="0.009667" fill="hsl(0.0,100%,20%)">zuan</text>
<text x="1.112" y="0.935" font-size="0.009667" fill="hsl(120.0,100%,20%)">zihanchen</text>
<text x="0.476" y="0.369" font-size="0.019335" fill="hsl(120.0,100%,20%)">ejcaruso</text>
<text x="1.206" y="0.892" font-size="0.013672" fill="hsl(120.0,100%,20%)">allenwebb</text>
<text x="0.901" y="0.746" font-size="0.016744" fill="hsl(120.0,100%,20%)">dtor</text>
<text x="1.929" y="0.585" font-size="0.033489" fill="hsl(120.0,100%,20%)">vapier</text>
<text x="1.618" y="0.757" font-size="0.030571" fill="hsl(240.0,100%,20%)">fdegros</text>
<text x="1.815" y="0.707" font-size="0.025577" fill="hsl(240.0,100%,20%)">benreich</text>
<text x="1.439" y="0.842" font-size="0.009667" fill="hsl(240.0,100%,20%)">jorgelo</text>
<text x="1.747" y="0.775" font-size="0.009667" fill="hsl(240.0,100%,20%)">jboulic</text>
<text x="1.289" y="0.547" font-size="0.009667" fill="hsl(0.0,100%,20%)">jasonling</text>
<text x="1.457" y="0.527" font-size="0.013672" fill="hsl(0.0,100%,20%)">khmel</text>
<text x="0.213" y="0.097" font-size="0.034856" fill="hsl(120.0,100%,20%)">hidehiko</text>
<text x="0.079" y="0.236" font-size="0.025577" fill="hsl(120.0,100%,20%)">xiyuan</text>
<text x="0.444" y="0.143" font-size="0.016744" fill="hsl(120.0,100%,20%)">jacksontadie</text>
<text x="0.402" y="0.083" font-size="0.009667" fill="hsl(120.0,100%,20%)">eariassoto</text>
<text x="1.275" y="0.067" font-size="0.030571" fill="hsl(240.0,100%,20%)">jeffulin</text>
<text x="1.475" y="0.104" font-size="0.013672" fill="hsl(240.0,100%,20%)">kevinptt</text>
<text x="1.063" y="0.031" font-size="0.009667" fill="hsl(240.0,100%,20%)">chenghan</text>
<text x="1.043" y="0.132" font-size="0.021617" fill="hsl(0.0,100%,20%)">jettrink</text>
<text x="0.857" y="0.102" font-size="0.009667" fill="hsl(0.0,100%,20%)">aashay</text>
<text x="0.748" y="0.348" font-size="0.016744" fill="hsl(120.0,100%,20%)">apronin</text>
<text x="1.703" y="0.645" font-size="0.019335" fill="hsl(120.0,100%,20%)">jmpollock</text>
<text x="0.150" y="0.618" font-size="0.021617" fill="hsl(0.0,100%,20%)">justinoue</text>
<text x="0.087" y="0.601" font-size="0.009667" fill="hsl(0.0,100%,20%)">skend</text>
<text x="0.831" y="0.484" font-size="0.039860" fill="hsl(0.0,100%,20%)">tbrandston</text>
<text x="1.852" y="0.833" font-size="0.009667" fill="hsl(120.0,100%,20%)">tinghaolin</text>
<text x="1.912" y="0.841" font-size="0.009667" fill="hsl(120.0,100%,20%)">joaquinmarquez</text>
<text x="1.878" y="0.880" font-size="0.013672" fill="hsl(120.0,100%,20%)">yuanpengni</text>
<text x="1.412" y="0.914" font-size="0.009667" fill="hsl(120.0,100%,20%)">puthik</text>
<text x="1.067" y="0.512" font-size="0.019335" fill="hsl(120.0,100%,20%)">macinashutosh</text>
<text x="1.238" y="0.501" font-size="0.009667" fill="hsl(120.0,100%,20%)">yoshiki</text>
<text x="0.259" y="0.740" font-size="0.016744" fill="hsl(120.0,100%,20%)">matthewmwang</text>
<text x="0.294" y="0.886" font-size="0.009667" fill="hsl(120.0,100%,20%)">druth</text>
<text x="0.317" y="0.832" font-size="0.009667" fill="hsl(240.0,100%,20%)">norvez</text>
<text x="1.614" y="0.542" font-size="0.023680" fill="hsl(120.0,100%,20%)">motorman</text>
<text x="0.399" y="0.566" font-size="0.023680" fill="hsl(0.0,100%,20%)">ndureus</text>
<text x="0.411" y="0.648" font-size="0.016744" fill="hsl(0.0,100%,20%)">ballway</text>
<text x="0.316" y="0.519" font-size="0.013672" fill="hsl(0.0,100%,20%)">chharry</text>
<text x="0.593" y="0.405" font-size="0.019335" fill="hsl(0.0,100%,20%)">jefferymiller</text>
<text x="0.616" y="0.357" font-size="0.016744" fill="hsl(120.0,100%,20%)">neis</text>
<text x="0.439" y="0.430" font-size="0.009667" fill="hsl(120.0,100%,20%)">stevenjb</text>
<text x="1.448" y="0.291" font-size="0.038669" fill="hsl(0.0,100%,20%)">nmuggli</text>
<text x="1.502" y="0.138" font-size="0.013672" fill="hsl(0.0,100%,20%)">aaronmassey</text>
<text x="1.612" y="0.216" font-size="0.013672" fill="hsl(0.0,100%,20%)">jchinlee</text>
<text x="1.300" y="0.240" font-size="0.009667" fill="hsl(0.0,100%,20%)">okuji</text>
<text x="1.185" y="0.200" font-size="0.009667" fill="hsl(0.0,100%,20%)">jimmyxgong</text>
<text x="1.255" y="0.306" font-size="0.009667" fill="hsl(0.0,100%,20%)">alanlxl</text>
<text x="1.828" y="0.273" font-size="0.009667" fill="hsl(0.0,100%,20%)">bmgordon</text>
<text x="0.061" y="0.402" font-size="0.019335" fill="hsl(120.0,100%,20%)">semenzato</text>
<text x="0.160" y="0.495" font-size="0.009667" fill="hsl(120.0,100%,20%)">glaznev</text>
<text x="0.607" y="0.500" font-size="0.023680" fill="hsl(0.0,100%,20%)">nicholasbishop</text>
<text x="0.696" y="0.553" font-size="0.013672" fill="hsl(0.0,100%,20%)">andrebraga</text>
<text x="0.759" y="0.390" font-size="0.009667" fill="hsl(0.0,100%,20%)">rborzello</text>
<text x="0.838" y="0.599" font-size="0.009667" fill="hsl(0.0,100%,20%)">ptf</text>
<text x="0.810" y="0.758" font-size="0.019335" fill="hsl(120.0,100%,20%)">chibar</text>
<text x="0.888" y="0.786" font-size="0.009667" fill="hsl(120.0,100%,20%)">yuanyaogoog</text>
<text x="0.604" y="0.886" font-size="0.009667" fill="hsl(120.0,100%,20%)">vraheja</text>
<text x="1.826" y="0.484" font-size="0.009667" fill="hsl(120.0,100%,20%)">gwendal</text>
<text x="1.914" y="0.477" font-size="0.009667" fill="hsl(120.0,100%,20%)">sukhomlinov</text>
<text x="0.693" y="0.653" font-size="0.009667" fill="hsl(120.0,100%,20%)">igorcov</text>
<text x="0.692" y="0.668" font-size="0.009667" fill="hsl(120.0,100%,20%)">chenghaoyang</text>
<text x="0.763" y="0.688" font-size="0.009667" fill="hsl(120.0,100%,20%)">alevkoy</text>
<text x="0.424" y="0.703" font-size="0.009667" fill="hsl(120.0,100%,20%)">hashimoto</text>
<text x="0.841" y="0.368" font-size="0.016744" fill="hsl(120.0,100%,20%)">zoraiznaeem</text>
<text x="1.022" y="0.392" font-size="0.009667" fill="hsl(120.0,100%,20%)">achuith</text>
<text x="0.820" y="0.380" font-size="0.009667" fill="hsl(120.0,100%,20%)">vincentchiang</text>
</svg>
