<svg width="4000" height="2000" viewBox="-0.025 -0.025 2.05 1.05" xmlns="http://www.w3.org/2000/svg">
  <style>
    path {
      fill: none;
      stroke-linecap: round;
      stroke-opacity: 0.4;
    }

    text {
      text-anchor: middle;
      alignment-baseline: hanging;
    }
  </style>
  <g opacity="0.4">
<path d="M0.987 0.740 Q1.336 0.726 1.384 0.552" stroke="hsl(0.0,100%,35%)" stroke-width="0.00182"></path>
<path d="M0.987 0.740 Q0.695 0.727 0.605 0.866" stroke="hsl(0.0,100%,35%)" stroke-width="0.00727"></path>
<path d="M0.987 0.740 Q1.000 0.682 0.890 0.664" stroke="hsl(0.0,100%,35%)" stroke-width="0.00545"></path>
<path d="M0.987 0.740 Q1.598 0.690 1.634 0.382" stroke="hsl(0.0,100%,35%)" stroke-width="0.00364"></path>
<path d="M0.987 0.740 Q0.802 0.628 0.543 0.694" stroke="hsl(0.0,100%,35%)" stroke-width="0.00182"></path>
<path d="M0.605 0.866 Q0.620 0.973 0.831 0.988" stroke="hsl(0.0,100%,35%)" stroke-width="0.00909"></path>
<path d="M0.605 0.866 Q1.507 0.830 1.634 0.382" stroke="hsl(0.0,100%,35%)" stroke-width="0.00727"></path>
<path d="M0.605 0.866 Q1.075 0.751 0.953 0.497" stroke="hsl(0.0,100%,35%)" stroke-width="0.00182"></path>
<path d="M0.890 0.664 Q1.051 0.677 1.112 0.601" stroke="hsl(180.0,100%,35%)" stroke-width="0.03999"></path>
<path d="M0.890 0.664 Q1.144 0.493 0.867 0.331" stroke="hsl(180.0,100%,35%)" stroke-width="0.00182"></path>
<path d="M0.890 0.664 Q1.055 0.593 0.953 0.497" stroke="hsl(180.0,100%,35%)" stroke-width="0.03272"></path>
<path d="M0.890 0.664 Q1.015 0.468 0.660 0.364" stroke="hsl(180.0,100%,35%)" stroke-width="0.00182"></path>
<path d="M0.890 0.664 Q0.601 0.814 0.831 0.988" stroke="hsl(180.0,100%,35%)" stroke-width="0.00364"></path>
<path d="M0.890 0.664 Q0.877 0.721 0.987 0.740" stroke="hsl(180.0,100%,35%)" stroke-width="0.00182"></path>
<path d="M0.890 0.664 Q1.488 0.671 1.634 0.382" stroke="hsl(180.0,100%,35%)" stroke-width="0.00364"></path>
<path d="M1.634 0.382 Q1.372 0.417 1.384 0.552" stroke="hsl(0.0,100%,35%)" stroke-width="0.00909"></path>
<path d="M1.634 0.382 Q1.586 0.490 1.786 0.537" stroke="hsl(0.0,100%,35%)" stroke-width="0.00727"></path>
<path d="M1.634 0.382 Q0.732 0.418 0.605 0.866" stroke="hsl(0.0,100%,35%)" stroke-width="0.01091"></path>
<path d="M1.634 0.382 Q0.747 0.524 0.831 0.988" stroke="hsl(0.0,100%,35%)" stroke-width="0.00727"></path>
<path d="M0.543 0.694 Q0.436 0.793 0.605 0.866" stroke="hsl(0.0,100%,35%)" stroke-width="0.00364"></path>
<path d="M0.543 0.694 Q1.339 0.756 1.634 0.382" stroke="hsl(0.0,100%,35%)" stroke-width="0.00182"></path>
<path d="M0.543 0.694 Q0.741 0.748 0.890 0.664" stroke="hsl(0.0,100%,35%)" stroke-width="0.00182"></path>
<path d="M1.604 0.239 Q1.505 0.317 1.634 0.382" stroke="hsl(0.0,100%,35%)" stroke-width="0.01454"></path>
<path d="M1.604 0.239 Q0.618 0.459 0.831 0.988" stroke="hsl(0.0,100%,35%)" stroke-width="0.00364"></path>
<path d="M1.604 0.239 Q1.328 0.286 1.358 0.431" stroke="hsl(0.0,100%,35%)" stroke-width="0.00727"></path>
<path d="M1.604 0.239 Q0.603 0.353 0.605 0.866" stroke="hsl(0.0,100%,35%)" stroke-width="0.00545"></path>
<path d="M1.604 0.239 Q1.533 0.166 1.375 0.184" stroke="hsl(0.0,100%,35%)" stroke-width="0.00182"></path>
<path d="M0.831 0.988 Q0.816 0.882 0.605 0.866" stroke="hsl(0.0,100%,35%)" stroke-width="0.03090"></path>
<path d="M0.831 0.988 Q1.245 0.642 0.660 0.364" stroke="hsl(0.0,100%,35%)" stroke-width="0.00182"></path>
<path d="M0.831 0.988 Q1.114 0.712 0.636 0.513" stroke="hsl(0.0,100%,35%)" stroke-width="0.00182"></path>
<path d="M0.831 0.988 Q1.718 0.846 1.634 0.382" stroke="hsl(0.0,100%,35%)" stroke-width="0.00182"></path>
<path d="M0.831 0.988 Q1.120 0.838 0.890 0.664" stroke="hsl(0.0,100%,35%)" stroke-width="0.00182"></path>
<path d="M0.831 0.988 Q1.286 0.767 0.953 0.497" stroke="hsl(0.0,100%,35%)" stroke-width="0.00182"></path>
<path d="M0.831 0.988 Q1.925 0.842 1.880 0.276" stroke="hsl(0.0,100%,35%)" stroke-width="0.00182"></path>
<path d="M0.278 0.810 Q0.363 0.730 0.225 0.671" stroke="hsl(0.0,100%,35%)" stroke-width="0.00182"></path>
<path d="M0.278 0.810 Q0.396 0.903 0.605 0.866" stroke="hsl(0.0,100%,35%)" stroke-width="0.00182"></path>
<path d="M0.278 0.810 Q1.299 0.867 1.634 0.382" stroke="hsl(0.0,100%,35%)" stroke-width="0.00182"></path>
<path d="M0.278 0.810 Q1.325 0.628 1.201 0.078" stroke="hsl(0.0,100%,35%)" stroke-width="0.00182"></path>
<path d="M1.201 0.078 Q0.288 0.459 0.831 0.988" stroke="hsl(0.0,100%,35%)" stroke-width="0.00182"></path>
<path d="M1.201 0.078 Q0.239 0.179 0.225 0.671" stroke="hsl(0.0,100%,35%)" stroke-width="0.00182"></path>
<path d="M1.201 0.078 Q0.272 0.353 0.605 0.866" stroke="hsl(0.0,100%,35%)" stroke-width="0.00364"></path>
<path d="M1.201 0.078 Q1.175 0.316 1.634 0.382" stroke="hsl(0.0,100%,35%)" stroke-width="0.00364"></path>
<path d="M1.201 0.078 Q1.026 0.014 0.863 0.086" stroke="hsl(0.0,100%,35%)" stroke-width="0.00182"></path>
<path d="M0.636 0.513 Q0.643 0.639 0.890 0.664" stroke="hsl(180.0,100%,35%)" stroke-width="0.01091"></path>
<path d="M0.636 0.513 Q0.808 0.568 0.953 0.497" stroke="hsl(180.0,100%,35%)" stroke-width="0.00364"></path>
<path d="M0.636 0.513 Q0.354 0.790 0.831 0.988" stroke="hsl(180.0,100%,35%)" stroke-width="0.00545"></path>
<path d="M0.636 0.513 Q0.521 0.397 0.270 0.428" stroke="hsl(180.0,100%,35%)" stroke-width="0.00727"></path>
<path d="M0.636 0.513 Q0.897 0.468 0.867 0.331" stroke="hsl(180.0,100%,35%)" stroke-width="0.00182"></path>
<path d="M0.636 0.513 Q0.678 0.390 0.446 0.342" stroke="hsl(180.0,100%,35%)" stroke-width="0.00182"></path>
<path d="M0.953 0.497 Q1.042 0.397 0.867 0.331" stroke="hsl(180.0,100%,35%)" stroke-width="0.01454"></path>
<path d="M0.953 0.497 Q0.788 0.567 0.890 0.664" stroke="hsl(180.0,100%,35%)" stroke-width="0.07090"></path>
<path d="M0.953 0.497 Q1.386 0.575 1.634 0.382" stroke="hsl(180.0,100%,35%)" stroke-width="0.00545"></path>
<path d="M0.953 0.497 Q0.483 0.612 0.605 0.866" stroke="hsl(180.0,100%,35%)" stroke-width="0.00364"></path>
<path d="M0.953 0.497 Q0.949 0.581 1.112 0.601" stroke="hsl(180.0,100%,35%)" stroke-width="0.00182"></path>
<path d="M0.867 0.331 Q0.612 0.502 0.890 0.664" stroke="hsl(180.0,100%,35%)" stroke-width="0.00909"></path>
<path d="M0.867 0.331 Q0.778 0.431 0.953 0.497" stroke="hsl(180.0,100%,35%)" stroke-width="0.00909"></path>
<path d="M0.867 0.331 Q0.606 0.376 0.636 0.513" stroke="hsl(180.0,100%,35%)" stroke-width="0.01454"></path>
<path d="M1.073 0.438 Q0.801 0.514 0.890 0.664" stroke="hsl(180.0,100%,35%)" stroke-width="0.00182"></path>
<path d="M1.073 0.438 Q0.966 0.443 0.953 0.497" stroke="hsl(180.0,100%,35%)" stroke-width="0.00182"></path>
<path d="M1.073 0.438 Q1.055 0.343 0.867 0.331" stroke="hsl(180.0,100%,35%)" stroke-width="0.00182"></path>
<path d="M1.112 0.601 Q1.549 0.596 1.634 0.382" stroke="hsl(180.0,100%,35%)" stroke-width="0.00182"></path>
<path d="M1.112 0.601 Q0.951 0.588 0.890 0.664" stroke="hsl(180.0,100%,35%)" stroke-width="0.00545"></path>
<path d="M1.112 0.601 Q0.646 0.632 0.605 0.866" stroke="hsl(180.0,100%,35%)" stroke-width="0.00182"></path>
<path d="M1.112 0.601 Q0.662 0.739 0.831 0.988" stroke="hsl(180.0,100%,35%)" stroke-width="0.00182"></path>
<path d="M1.112 0.601 Q1.236 0.566 1.195 0.498" stroke="hsl(180.0,100%,35%)" stroke-width="0.00182"></path>
<path d="M0.660 0.364 Q0.696 0.573 1.112 0.601" stroke="hsl(180.0,100%,35%)" stroke-width="0.00182"></path>
<path d="M0.660 0.364 Q0.535 0.560 0.890 0.664" stroke="hsl(180.0,100%,35%)" stroke-width="0.00182"></path>
<path d="M0.660 0.364 Q0.246 0.710 0.831 0.988" stroke="hsl(180.0,100%,35%)" stroke-width="0.00182"></path>
<path d="M0.660 0.364 Q0.700 0.489 0.953 0.497" stroke="hsl(180.0,100%,35%)" stroke-width="0.00364"></path>
<path d="M1.880 0.276 Q0.770 0.316 0.605 0.866" stroke="hsl(0.0,100%,35%)" stroke-width="0.00727"></path>
<path d="M1.880 0.276 Q1.240 0.201 0.953 0.497" stroke="hsl(0.0,100%,35%)" stroke-width="0.00909"></path>
<path d="M1.880 0.276 Q1.075 0.272 0.890 0.664" stroke="hsl(0.0,100%,35%)" stroke-width="0.00182"></path>
<path d="M1.880 0.276 Q1.236 0.285 1.112 0.601" stroke="hsl(0.0,100%,35%)" stroke-width="0.00364"></path>
<path d="M1.880 0.276 Q1.673 0.280 1.634 0.382" stroke="hsl(0.0,100%,35%)" stroke-width="0.00727"></path>
<path d="M0.810 0.921 Q1.056 0.808 0.890 0.664" stroke="hsl(0.0,100%,35%)" stroke-width="0.00182"></path>
<path d="M0.810 0.921 Q1.654 0.816 1.634 0.382" stroke="hsl(0.0,100%,35%)" stroke-width="0.00182"></path>
<path d="M0.810 0.921 Q0.752 0.853 0.605 0.866" stroke="hsl(0.0,100%,35%)" stroke-width="0.00182"></path>
<path d="M1.422 0.813 Q1.275 0.632 0.890 0.664" stroke="hsl(0.0,100%,35%)" stroke-width="0.00182"></path>
<path d="M1.422 0.813 Q1.873 0.640 1.634 0.382" stroke="hsl(0.0,100%,35%)" stroke-width="0.00182"></path>
<path d="M1.422 0.813 Q0.971 0.676 0.605 0.866" stroke="hsl(0.0,100%,35%)" stroke-width="0.00182"></path>
<path d="M0.779 0.865 Q1.594 0.794 1.634 0.382" stroke="hsl(0.0,100%,35%)" stroke-width="0.00182"></path>
<path d="M0.779 0.865 Q0.707 0.937 0.831 0.988" stroke="hsl(0.0,100%,35%)" stroke-width="0.00182"></path>
<path d="M0.779 0.865 Q0.691 0.831 0.605 0.866" stroke="hsl(0.0,100%,35%)" stroke-width="0.00182"></path>
<path d="M1.565 1.244 Q2.290 0.827 1.634 0.382" stroke="hsl(0.0,100%,35%)" stroke-width="0.00364"></path>
<path d="M1.565 1.244 Q1.403 0.970 0.831 0.988" stroke="hsl(0.0,100%,35%)" stroke-width="0.00182"></path>
<path d="M1.565 1.244 Q2.028 0.862 1.384 0.552" stroke="hsl(0.0,100%,35%)" stroke-width="0.00182"></path>
<path d="M1.838 0.421 Q1.767 0.360 1.634 0.382" stroke="hsl(0.0,100%,35%)" stroke-width="0.02000"></path>
<path d="M1.838 0.421 Q1.974 0.357 1.880 0.276" stroke="hsl(0.0,100%,35%)" stroke-width="0.01454"></path>
<path d="M1.838 0.421 Q1.170 0.353 0.890 0.664" stroke="hsl(0.0,100%,35%)" stroke-width="0.00182"></path>
<path d="M1.838 0.421 Q0.865 0.397 0.605 0.866" stroke="hsl(0.0,100%,35%)" stroke-width="0.00545"></path>
<path d="M1.838 0.421 Q0.880 0.503 0.831 0.988" stroke="hsl(0.0,100%,35%)" stroke-width="0.00182"></path>
<path d="M1.006 0.235 Q0.771 0.356 0.953 0.497" stroke="hsl(180.0,100%,35%)" stroke-width="0.00364"></path>
<path d="M1.006 0.235 Q1.203 0.434 1.634 0.382" stroke="hsl(180.0,100%,35%)" stroke-width="0.00182"></path>
<path d="M1.006 0.235 Q0.890 0.405 1.195 0.498" stroke="hsl(180.0,100%,35%)" stroke-width="0.00182"></path>
<path d="M0.289 0.974 Q1.436 0.947 1.634 0.382" stroke="hsl(0.0,100%,35%)" stroke-width="0.00727"></path>
<path d="M0.289 0.974 Q0.533 0.983 0.605 0.866" stroke="hsl(0.0,100%,35%)" stroke-width="0.00727"></path>
<path d="M0.289 0.974 Q0.838 0.939 0.890 0.664" stroke="hsl(0.0,100%,35%)" stroke-width="0.00182"></path>
<path d="M1.093 0.904 Q1.782 0.751 1.634 0.382" stroke="hsl(0.0,100%,35%)" stroke-width="0.00364"></path>
<path d="M1.093 0.904 Q1.989 0.748 1.880 0.276" stroke="hsl(0.0,100%,35%)" stroke-width="0.00182"></path>
<path d="M1.093 0.904 Q1.330 0.924 1.422 0.813" stroke="hsl(0.0,100%,35%)" stroke-width="0.00182"></path>
</g>
<text x="0.987" y="0.726" font-size="0.027559" fill="hsl(0.0,100%,20%)">bajones</text>
<text x="1.384" y="0.542" font-size="0.021048" fill="hsl(0.0,100%,20%)">geofflang</text>
<text x="0.605" y="0.835" font-size="0.062642" fill="hsl(0.0,100%,20%)">lokokung</text>
<text x="0.890" y="0.622" font-size="0.084194" fill="hsl(180.0,100%,20%)">dsinclair</text>
<text x="1.634" y="0.348" font-size="0.067035" fill="hsl(0.0,100%,20%)">cwallez</text>
<text x="0.543" y="0.685" font-size="0.017789" fill="hsl(0.0,100%,20%)">shrekshao</text>
<text x="1.604" y="0.223" font-size="0.033753" fill="hsl(0.0,100%,20%)">beaufort.francois</text>
<text x="0.831" y="0.962" font-size="0.053368" fill="hsl(0.0,100%,20%)">kainino</text>
<text x="1.358" y="0.423" font-size="0.015911" fill="hsl(0.0,100%,20%)">zhaoming.jiang</text>
<text x="1.375" y="0.180" font-size="0.007956" fill="hsl(0.0,100%,20%)">gman</text>
<text x="0.278" y="0.802" font-size="0.015911" fill="hsl(0.0,100%,20%)">bkaya</text>
<text x="0.225" y="0.665" font-size="0.011251" fill="hsl(0.0,100%,20%)">alfiebaxter</text>
<text x="1.201" y="0.067" font-size="0.022502" fill="hsl(0.0,100%,20%)">jimblackler</text>
<text x="0.636" y="0.493" font-size="0.040566" fill="hsl(180.0,100%,20%)">bsheedy</text>
<text x="0.953" y="0.459" font-size="0.075473" fill="hsl(180.0,100%,20%)">jrprice</text>
<text x="0.270" y="0.420" font-size="0.015911" fill="hsl(180.0,100%,20%)">gbeaty</text>
<text x="0.867" y="0.310" font-size="0.042842" fill="hsl(180.0,100%,20%)">rharrison</text>
<text x="0.446" y="0.338" font-size="0.007956" fill="hsl(180.0,100%,20%)">ynovikov</text>
<text x="1.073" y="0.431" font-size="0.013779" fill="hsl(180.0,100%,20%)">cdesouza</text>
<text x="1.786" y="0.529" font-size="0.015911" fill="hsl(0.0,100%,20%)">senorblanco</text>
<text x="1.112" y="0.578" font-size="0.045701" fill="hsl(180.0,100%,20%)">dneto</text>
<text x="1.195" y="0.493" font-size="0.011251" fill="hsl(180.0,100%,20%)">rafael.cintron</text>
<text x="0.660" y="0.353" font-size="0.021048" fill="hsl(180.0,100%,20%)">petermcneeley</text>
<text x="1.880" y="0.256" font-size="0.040566" fill="hsl(0.0,100%,20%)">jiawei.shao</text>
<text x="0.863" y="0.082" font-size="0.007956" fill="hsl(0.0,100%,20%)">nikigupta</text>
<text x="0.810" y="0.914" font-size="0.013779" fill="hsl(0.0,100%,20%)">kylechar</text>
<text x="1.422" y="0.805" font-size="0.015911" fill="hsl(0.0,100%,20%)">lehoangquyen</text>
<text x="0.779" y="0.858" font-size="0.013779" fill="hsl(0.0,100%,20%)">manuel.winkler</text>
<text x="1.565" y="1.236" font-size="0.015911" fill="hsl(0.0,100%,20%)">rop</text>
<text x="1.838" y="0.401" font-size="0.038974" fill="hsl(0.0,100%,20%)">shanxing.mei</text>
<text x="1.006" y="0.227" font-size="0.015911" fill="hsl(180.0,100%,20%)">shaoboyan</text>
<text x="0.289" y="0.962" font-size="0.023867" fill="hsl(0.0,100%,20%)">sunnyps</text>
<text x="1.093" y="0.896" font-size="0.015911" fill="hsl(0.0,100%,20%)">xing.xu</text>
</svg>
