<svg width="4000" height="2000" viewBox="-0.025 -0.025 2.05 1.05" xmlns="http://www.w3.org/2000/svg">
  <style>
    path {
      fill: none;
      stroke-linecap: round;
      stroke-opacity: 0.4;
    }

    text {
      text-anchor: middle;
      alignment-baseline: hanging;
    }
  </style>
  <g opacity="0.4">
<path d="M1.355 0.432 Q0.671 0.313 0.290 0.621" stroke="hsl(0.0,100%,35%)" stroke-width="0.00191"></path>
<path d="M1.355 0.432 Q1.431 0.224 1.041 0.141" stroke="hsl(0.0,100%,35%)" stroke-width="0.00191"></path>
<path d="M1.355 0.432 Q0.537 0.359 0.216 0.742" stroke="hsl(0.0,100%,35%)" stroke-width="0.00381"></path>
<path d="M0.290 0.621 Q0.156 0.667 0.216 0.742" stroke="hsl(0.0,100%,35%)" stroke-width="0.09722"></path>
<path d="M0.290 0.621 Q0.400 0.715 0.607 0.682" stroke="hsl(0.0,100%,35%)" stroke-width="0.00191"></path>
<path d="M0.290 0.621 Q0.548 0.667 0.695 0.551" stroke="hsl(0.0,100%,35%)" stroke-width="0.00191"></path>
<path d="M0.290 0.621 Q0.001 0.795 0.276 0.974" stroke="hsl(0.0,100%,35%)" stroke-width="0.00191"></path>
<path d="M1.041 0.141 Q1.100 0.238 1.303 0.231" stroke="hsl(180.0,100%,35%)" stroke-width="0.02097"></path>
<path d="M1.041 0.141 Q0.966 0.349 1.355 0.432" stroke="hsl(180.0,100%,35%)" stroke-width="0.00381"></path>
<path d="M1.041 0.141 Q0.282 0.231 0.290 0.621" stroke="hsl(180.0,100%,35%)" stroke-width="0.00572"></path>
<path d="M0.216 0.742 Q0.732 0.653 0.670 0.382" stroke="hsl(0.0,100%,35%)" stroke-width="0.00762"></path>
<path d="M0.216 0.742 Q0.350 0.696 0.290 0.621" stroke="hsl(0.0,100%,35%)" stroke-width="0.03050"></path>
<path d="M0.216 0.742 Q0.460 0.790 0.607 0.682" stroke="hsl(0.0,100%,35%)" stroke-width="0.00191"></path>
<path d="M0.670 0.382 Q0.289 0.425 0.290 0.621" stroke="hsl(180.0,100%,35%)" stroke-width="0.01906"></path>
<path d="M0.670 0.382 Q0.481 0.265 0.211 0.332" stroke="hsl(180.0,100%,35%)" stroke-width="0.00191"></path>
<path d="M0.670 0.382 Q0.542 0.558 0.858 0.660" stroke="hsl(180.0,100%,35%)" stroke-width="0.01716"></path>
<path d="M0.670 0.382 Q0.155 0.471 0.216 0.742" stroke="hsl(180.0,100%,35%)" stroke-width="0.01525"></path>
<path d="M0.670 0.382 Q0.547 0.471 0.695 0.551" stroke="hsl(180.0,100%,35%)" stroke-width="0.00191"></path>
<path d="M0.670 0.382 Q0.592 0.295 0.407 0.314" stroke="hsl(180.0,100%,35%)" stroke-width="0.00191"></path>
<path d="M0.670 0.382 Q-0.001 0.599 0.276 0.974" stroke="hsl(180.0,100%,35%)" stroke-width="0.00191"></path>
<path d="M0.670 0.382 Q0.696 0.481 0.896 0.491" stroke="hsl(180.0,100%,35%)" stroke-width="0.00191"></path>
<path d="M0.695 0.551 Q0.819 0.462 0.670 0.382" stroke="hsl(180.0,100%,35%)" stroke-width="0.00953"></path>
<path d="M0.695 0.551 Q0.719 0.789 1.187 0.829" stroke="hsl(180.0,100%,35%)" stroke-width="0.00191"></path>
<path d="M0.695 0.551 Q0.437 0.505 0.290 0.621" stroke="hsl(180.0,100%,35%)" stroke-width="0.00191"></path>
<path d="M0.276 0.974 Q0.675 0.894 0.607 0.682" stroke="hsl(0.0,100%,35%)" stroke-width="0.00572"></path>
<path d="M0.276 0.974 Q0.432 0.846 0.216 0.742" stroke="hsl(0.0,100%,35%)" stroke-width="0.00191"></path>
<path d="M0.276 0.974 Q1.325 0.711 1.041 0.141" stroke="hsl(0.0,100%,35%)" stroke-width="0.00191"></path>
<path d="M0.896 0.491 Q0.871 0.391 0.670 0.382" stroke="hsl(180.0,100%,35%)" stroke-width="0.00953"></path>
<path d="M0.896 0.491 Q1.308 0.442 1.303 0.231" stroke="hsl(180.0,100%,35%)" stroke-width="0.00572"></path>
<path d="M0.896 0.491 Q0.489 0.435 0.290 0.621" stroke="hsl(180.0,100%,35%)" stroke-width="0.00191"></path>
<path d="M0.896 0.491 Q0.742 0.568 0.858 0.660" stroke="hsl(180.0,100%,35%)" stroke-width="0.00191"></path>
<path d="M0.607 0.682 Q0.363 0.634 0.216 0.742" stroke="hsl(0.0,100%,35%)" stroke-width="0.02478"></path>
<path d="M0.607 0.682 Q0.497 0.588 0.290 0.621" stroke="hsl(0.0,100%,35%)" stroke-width="0.03241"></path>
<path d="M0.607 0.682 Q1.318 0.749 1.604 0.417" stroke="hsl(0.0,100%,35%)" stroke-width="0.00191"></path>
<path d="M0.483 0.959 Q0.767 0.845 0.607 0.682" stroke="hsl(0.0,100%,35%)" stroke-width="0.00381"></path>
<path d="M0.483 0.959 Q0.368 0.925 0.276 0.974" stroke="hsl(0.0,100%,35%)" stroke-width="0.00762"></path>
<path d="M0.483 0.959 Q0.523 0.797 0.216 0.742" stroke="hsl(0.0,100%,35%)" stroke-width="0.00381"></path>
<path d="M0.483 0.959 Q1.417 0.662 1.041 0.141" stroke="hsl(0.0,100%,35%)" stroke-width="0.00191"></path>
<path d="M1.303 0.231 Q0.766 0.507 1.187 0.829" stroke="hsl(180.0,100%,35%)" stroke-width="0.00191"></path>
<path d="M1.303 0.231 Q0.866 0.180 0.670 0.382" stroke="hsl(180.0,100%,35%)" stroke-width="0.01525"></path>
<path d="M1.303 0.231 Q1.244 0.134 1.041 0.141" stroke="hsl(180.0,100%,35%)" stroke-width="0.03050"></path>
<path d="M1.303 0.231 Q1.252 0.275 1.327 0.310" stroke="hsl(180.0,100%,35%)" stroke-width="0.00191"></path>
<path d="M0.389 0.171 Q0.361 0.333 0.670 0.382" stroke="hsl(180.0,100%,35%)" stroke-width="0.00953"></path>
<path d="M0.389 0.171 Q0.233 0.509 0.858 0.660" stroke="hsl(180.0,100%,35%)" stroke-width="0.00381"></path>
<path d="M0.389 0.171 Q0.798 0.384 1.303 0.231" stroke="hsl(180.0,100%,35%)" stroke-width="0.00191"></path>
<path d="M1.604 0.417 Q0.784 0.256 0.290 0.621" stroke="hsl(0.0,100%,35%)" stroke-width="0.00762"></path>
<path d="M1.604 0.417 Q0.650 0.302 0.216 0.742" stroke="hsl(0.0,100%,35%)" stroke-width="0.01144"></path>
<path d="M1.604 0.417 Q1.468 0.374 1.355 0.432" stroke="hsl(0.0,100%,35%)" stroke-width="0.00572"></path>
<path d="M0.792 -0.008 Q0.419 0.163 0.670 0.382" stroke="hsl(180.0,100%,35%)" stroke-width="0.00381"></path>
<path d="M0.792 -0.008 Q-0.096 0.252 0.216 0.742" stroke="hsl(180.0,100%,35%)" stroke-width="0.00191"></path>
<path d="M0.792 -0.008 Q0.291 0.339 0.858 0.660" stroke="hsl(180.0,100%,35%)" stroke-width="0.00191"></path>
<path d="M0.192 0.452 Q0.332 0.505 0.467 0.449" stroke="hsl(180.0,100%,35%)" stroke-width="0.00191"></path>
<path d="M0.192 0.452 Q0.364 0.602 0.695 0.551" stroke="hsl(180.0,100%,35%)" stroke-width="0.00381"></path>
<path d="M0.192 0.452 Q0.924 0.563 1.303 0.231" stroke="hsl(180.0,100%,35%)" stroke-width="0.00191"></path>
<path d="M0.192 0.452 Q0.865 0.466 1.041 0.141" stroke="hsl(180.0,100%,35%)" stroke-width="0.00381"></path>
<path d="M0.192 0.452 Q0.204 0.408 0.121 0.393" stroke="hsl(180.0,100%,35%)" stroke-width="0.00191"></path>
<path d="M0.192 0.452 Q0.487 0.512 0.670 0.382" stroke="hsl(180.0,100%,35%)" stroke-width="0.00191"></path>
<path d="M1.012 0.319 Q1.177 0.377 1.327 0.310" stroke="hsl(180.0,100%,35%)" stroke-width="0.00191"></path>
<path d="M1.012 0.319 Q0.409 0.325 0.290 0.621" stroke="hsl(180.0,100%,35%)" stroke-width="0.00191"></path>
<path d="M1.012 0.319 Q0.791 0.282 0.670 0.382" stroke="hsl(180.0,100%,35%)" stroke-width="0.00572"></path>
<path d="M1.012 0.319 Q1.228 0.333 1.303 0.231" stroke="hsl(180.0,100%,35%)" stroke-width="0.00381"></path>
<path d="M0.928 0.788 Q1.025 0.861 1.187 0.829" stroke="hsl(180.0,100%,35%)" stroke-width="0.00191"></path>
<path d="M0.928 0.788 Q0.996 0.710 0.858 0.660" stroke="hsl(180.0,100%,35%)" stroke-width="0.00191"></path>
</g>
<text x="1.355" y="0.418" font-size="0.026465" fill="hsl(0.0,100%,20%)">amaiorano</text>
<text x="0.290" y="0.575" font-size="0.091677" fill="hsl(0.0,100%,20%)">dsinclair</text>
<text x="1.041" y="0.114" font-size="0.053660" fill="hsl(180.0,100%,20%)">kainino</text>
<text x="0.216" y="0.697" font-size="0.090395" fill="hsl(0.0,100%,20%)">jrprice</text>
<text x="0.670" y="0.346" font-size="0.071122" fill="hsl(180.0,100%,20%)">cwallez</text>
<text x="0.211" y="0.327" font-size="0.008822" fill="hsl(180.0,100%,20%)">brandon1.jones</text>
<text x="0.858" y="0.643" font-size="0.033007" fill="hsl(180.0,100%,20%)">geofflang</text>
<text x="0.695" y="0.537" font-size="0.029258" fill="hsl(180.0,100%,20%)">gman</text>
<text x="0.407" y="0.310" font-size="0.008822" fill="hsl(180.0,100%,20%)">jiawei.shao</text>
<text x="0.276" y="0.959" font-size="0.029258" fill="hsl(0.0,100%,20%)">ynovikov</text>
<text x="0.896" y="0.476" font-size="0.029258" fill="hsl(180.0,100%,20%)">kylechar</text>
<text x="0.607" y="0.655" font-size="0.054380" fill="hsl(0.0,100%,20%)">rharrison</text>
<text x="1.187" y="0.821" font-size="0.015279" fill="hsl(180.0,100%,20%)">bajones</text>
<text x="0.483" y="0.946" font-size="0.026465" fill="hsl(0.0,100%,20%)">jwata</text>
<text x="1.303" y="0.201" font-size="0.058516" fill="hsl(180.0,100%,20%)">lokokung</text>
<text x="0.389" y="0.159" font-size="0.024951" fill="hsl(180.0,100%,20%)">lehoangquyen</text>
<text x="1.327" y="0.303" font-size="0.012476" fill="hsl(180.0,100%,20%)">dneto</text>
<text x="1.604" y="0.400" font-size="0.033007" fill="hsl(0.0,100%,20%)">petermcneeley</text>
<text x="0.792" y="-0.017" font-size="0.017643" fill="hsl(180.0,100%,20%)">shaoboyan</text>
<text x="0.192" y="0.439" font-size="0.024951" fill="hsl(180.0,100%,20%)">shrekshao</text>
<text x="0.467" y="0.445" font-size="0.008822" fill="hsl(180.0,100%,20%)">bsheedy</text>
<text x="0.121" y="0.389" font-size="0.008822" fill="hsl(180.0,100%,20%)">senorblanco</text>
<text x="1.012" y="0.307" font-size="0.023340" fill="hsl(180.0,100%,20%)">zhaoming.jiang</text>
<text x="0.928" y="0.782" font-size="0.012476" fill="hsl(180.0,100%,20%)">zmo</text>
</svg>
