<svg width="4000" height="2000" viewBox="-0.025 -0.025 2.05 1.05" xmlns="http://www.w3.org/2000/svg">
  <style>
    path {
      fill: none;
      stroke-linecap: round;
      stroke-opacity: 0.4;
    }

    text {
      text-anchor: middle;
      alignment-baseline: hanging;
    }
  </style>
  <g opacity="0.4">
<path d="M1.278 0.121 Q0.946 0.108 0.848 0.267" stroke="hsl(0.0,100%,35%)" stroke-width="0.00081"></path>
<path d="M1.278 0.121 Q1.087 0.393 1.575 0.546" stroke="hsl(0.0,100%,35%)" stroke-width="0.00041"></path>
<path d="M1.278 0.121 Q0.801 0.017 0.495 0.227" stroke="hsl(0.0,100%,35%)" stroke-width="0.00041"></path>
<path d="M1.278 0.121 Q1.209 0.233 1.413 0.291" stroke="hsl(0.0,100%,35%)" stroke-width="0.00041"></path>
<path d="M0.848 0.267 Q0.703 0.177 0.495 0.227" stroke="hsl(0.0,100%,35%)" stroke-width="0.01650"></path>
<path d="M0.848 0.267 Q0.946 0.147 0.734 0.073" stroke="hsl(0.0,100%,35%)" stroke-width="0.00550"></path>
<path d="M0.848 0.267 Q2.041 -0.358 1.084 -1.077" stroke="hsl(0.0,100%,35%)" stroke-width="0.00020"></path>
<path d="M0.848 0.267 Q0.989 0.552 1.575 0.546" stroke="hsl(0.0,100%,35%)" stroke-width="0.00020"></path>
<path d="M0.848 0.267 Q1.071 0.480 1.536 0.418" stroke="hsl(0.0,100%,35%)" stroke-width="0.00774"></path>
<path d="M0.848 0.267 Q1.279 0.394 1.621 0.211" stroke="hsl(0.0,100%,35%)" stroke-width="0.00183"></path>
<path d="M0.848 0.267 Q0.588 0.685 1.346 0.904" stroke="hsl(0.0,100%,35%)" stroke-width="0.00041"></path>
<path d="M0.848 0.267 Q0.571 0.295 0.565 0.437" stroke="hsl(0.0,100%,35%)" stroke-width="0.00041"></path>
<path d="M0.848 0.267 Q0.421 0.159 0.117 0.344" stroke="hsl(0.0,100%,35%)" stroke-width="0.00061"></path>
<path d="M0.848 0.267 Q1.183 0.214 1.153 0.039" stroke="hsl(0.0,100%,35%)" stroke-width="0.00020"></path>
<path d="M0.848 0.267 Q0.335 0.344 0.374 0.611" stroke="hsl(0.0,100%,35%)" stroke-width="0.00020"></path>
<path d="M0.848 0.267 Q1.111 0.392 1.413 0.291" stroke="hsl(0.0,100%,35%)" stroke-width="0.00102"></path>
<path d="M0.848 0.267 Q1.113 0.164 0.970 0.012" stroke="hsl(0.0,100%,35%)" stroke-width="0.00020"></path>
<path d="M0.848 0.267 Q0.508 0.212 0.325 0.365" stroke="hsl(0.0,100%,35%)" stroke-width="0.00020"></path>
<path d="M0.848 0.267 Q0.748 0.093 0.387 0.104" stroke="hsl(0.0,100%,35%)" stroke-width="0.00041"></path>
<path d="M1.575 0.546 Q1.658 0.474 1.536 0.418" stroke="hsl(180.0,100%,35%)" stroke-width="0.07457"></path>
<path d="M1.575 0.546 Q1.408 0.667 1.609 0.776" stroke="hsl(180.0,100%,35%)" stroke-width="0.00102"></path>
<path d="M1.575 0.546 Q1.434 0.261 0.848 0.267" stroke="hsl(180.0,100%,35%)" stroke-width="0.00224"></path>
<path d="M1.575 0.546 Q1.290 0.170 0.495 0.227" stroke="hsl(180.0,100%,35%)" stroke-width="0.00102"></path>
<path d="M1.575 0.546 Q1.415 0.437 1.168 0.492" stroke="hsl(180.0,100%,35%)" stroke-width="0.02160"></path>
<path d="M1.575 0.546 Q0.922 0.338 0.374 0.611" stroke="hsl(180.0,100%,35%)" stroke-width="0.00020"></path>
<path d="M1.575 0.546 Q1.174 0.679 1.346 0.904" stroke="hsl(180.0,100%,35%)" stroke-width="0.00876"></path>
<path d="M1.575 0.546 Q1.698 0.386 1.413 0.291" stroke="hsl(180.0,100%,35%)" stroke-width="0.00041"></path>
<path d="M1.575 0.546 Q1.170 0.501 0.994 0.689" stroke="hsl(180.0,100%,35%)" stroke-width="0.00143"></path>
<path d="M0.495 0.227 Q0.640 0.318 0.848 0.267" stroke="hsl(0.0,100%,35%)" stroke-width="0.00958"></path>
<path d="M0.495 0.227 Q0.738 0.198 0.734 0.073" stroke="hsl(0.0,100%,35%)" stroke-width="0.01548"></path>
<path d="M0.495 0.227 Q0.380 0.736 1.346 0.904" stroke="hsl(0.0,100%,35%)" stroke-width="0.00081"></path>
<path d="M0.495 0.227 Q0.620 0.494 1.168 0.492" stroke="hsl(0.0,100%,35%)" stroke-width="0.00081"></path>
<path d="M0.495 0.227 Q0.213 0.210 0.117 0.344" stroke="hsl(0.0,100%,35%)" stroke-width="0.00041"></path>
<path d="M0.495 0.227 Q0.363 0.346 0.565 0.437" stroke="hsl(0.0,100%,35%)" stroke-width="0.00061"></path>
<path d="M0.495 0.227 Q0.903 0.443 1.413 0.291" stroke="hsl(0.0,100%,35%)" stroke-width="0.00326"></path>
<path d="M0.495 0.227 Q0.097 0.304 0.160 0.515" stroke="hsl(0.0,100%,35%)" stroke-width="0.00081"></path>
<path d="M0.495 0.227 Q0.127 0.395 0.374 0.611" stroke="hsl(0.0,100%,35%)" stroke-width="0.00122"></path>
<path d="M0.495 0.227 Q0.789 0.271 0.938 0.137" stroke="hsl(0.0,100%,35%)" stroke-width="0.00020"></path>
<path d="M0.495 0.227 Q0.781 0.603 1.575 0.546" stroke="hsl(0.0,100%,35%)" stroke-width="0.00081"></path>
<path d="M0.495 0.227 Q0.863 0.531 1.536 0.418" stroke="hsl(0.0,100%,35%)" stroke-width="0.00407"></path>
<path d="M0.495 0.227 Q0.613 0.724 1.609 0.776" stroke="hsl(0.0,100%,35%)" stroke-width="0.00102"></path>
<path d="M0.495 0.227 Q1.071 0.444 1.621 0.211" stroke="hsl(0.0,100%,35%)" stroke-width="0.00061"></path>
<path d="M0.495 0.227 Q0.325 0.165 0.166 0.234" stroke="hsl(0.0,100%,35%)" stroke-width="0.00041"></path>
<path d="M0.495 0.227 Q0.300 0.262 0.325 0.365" stroke="hsl(0.0,100%,35%)" stroke-width="0.00204"></path>
<path d="M0.495 0.227 Q0.585 0.308 0.762 0.282" stroke="hsl(0.0,100%,35%)" stroke-width="0.00041"></path>
<path d="M0.495 0.227 Q0.295 0.275 0.343 0.383" stroke="hsl(0.0,100%,35%)" stroke-width="0.00020"></path>
<path d="M0.495 0.227 Q0.297 0.355 0.503 0.480" stroke="hsl(0.0,100%,35%)" stroke-width="0.00061"></path>
<path d="M0.495 0.227 Q0.414 0.251 0.441 0.295" stroke="hsl(0.0,100%,35%)" stroke-width="0.00020"></path>
<path d="M0.495 0.227 Q0.792 0.376 1.148 0.264" stroke="hsl(0.0,100%,35%)" stroke-width="0.00020"></path>
<path d="M1.413 0.291 Q1.005 0.076 0.495 0.227" stroke="hsl(0.0,100%,35%)" stroke-width="0.00285"></path>
<path d="M1.413 0.291 Q1.248 0.046 0.734 0.073" stroke="hsl(0.0,100%,35%)" stroke-width="0.00102"></path>
<path d="M1.413 0.291 Q1.581 0.293 1.621 0.211" stroke="hsl(0.0,100%,35%)" stroke-width="0.00020"></path>
<path d="M1.413 0.291 Q1.123 0.573 1.609 0.776" stroke="hsl(0.0,100%,35%)" stroke-width="0.00020"></path>
<path d="M1.413 0.291 Q0.835 0.013 0.166 0.234" stroke="hsl(0.0,100%,35%)" stroke-width="0.00020"></path>
<path d="M1.413 0.291 Q1.149 0.166 0.848 0.267" stroke="hsl(0.0,100%,35%)" stroke-width="0.00041"></path>
<path d="M1.413 0.291 Q1.373 0.379 1.536 0.418" stroke="hsl(0.0,100%,35%)" stroke-width="0.00020"></path>
<path d="M1.346 0.904 Q1.829 0.699 1.536 0.418" stroke="hsl(180.0,100%,35%)" stroke-width="0.01569"></path>
<path d="M1.346 0.904 Q1.747 0.770 1.575 0.546" stroke="hsl(180.0,100%,35%)" stroke-width="0.00367"></path>
<path d="M1.346 0.904 Q1.606 0.486 0.848 0.267" stroke="hsl(180.0,100%,35%)" stroke-width="0.00143"></path>
<path d="M1.346 0.904 Q1.461 0.395 0.495 0.227" stroke="hsl(180.0,100%,35%)" stroke-width="0.00550"></path>
<path d="M1.346 0.904 Q1.869 0.611 1.413 0.291" stroke="hsl(180.0,100%,35%)" stroke-width="0.00020"></path>
<path d="M1.346 0.904 Q1.586 0.662 1.168 0.492" stroke="hsl(180.0,100%,35%)" stroke-width="0.00204"></path>
<path d="M1.346 0.904 Q1.342 0.726 0.994 0.689" stroke="hsl(180.0,100%,35%)" stroke-width="0.00163"></path>
<path d="M1.346 0.904 Q1.580 0.892 1.609 0.776" stroke="hsl(180.0,100%,35%)" stroke-width="0.00020"></path>
<path d="M1.536 0.418 Q1.293 0.381 1.168 0.492" stroke="hsl(180.0,100%,35%)" stroke-width="0.04503"></path>
<path d="M1.536 0.418 Q1.053 0.623 1.346 0.904" stroke="hsl(180.0,100%,35%)" stroke-width="0.01976"></path>
<path d="M1.536 0.418 Q1.454 0.490 1.575 0.546" stroke="hsl(180.0,100%,35%)" stroke-width="0.06662"></path>
<path d="M1.536 0.418 Q1.313 0.205 0.848 0.267" stroke="hsl(180.0,100%,35%)" stroke-width="0.01182"></path>
<path d="M1.536 0.418 Q0.800 0.282 0.374 0.611" stroke="hsl(180.0,100%,35%)" stroke-width="0.00102"></path>
<path d="M1.536 0.418 Q1.168 0.115 0.495 0.227" stroke="hsl(180.0,100%,35%)" stroke-width="0.00387"></path>
<path d="M1.536 0.418 Q1.048 0.445 0.994 0.689" stroke="hsl(180.0,100%,35%)" stroke-width="0.00244"></path>
<path d="M1.536 0.418 Q1.323 0.430 1.300 0.537" stroke="hsl(180.0,100%,35%)" stroke-width="0.00020"></path>
<path d="M1.536 0.418 Q1.286 0.611 1.609 0.776" stroke="hsl(180.0,100%,35%)" stroke-width="0.00061"></path>
<path d="M1.536 0.418 Q1.462 0.158 0.938 0.137" stroke="hsl(180.0,100%,35%)" stroke-width="0.00020"></path>
<path d="M1.536 0.418 Q1.444 0.106 0.816 0.082" stroke="hsl(180.0,100%,35%)" stroke-width="0.00020"></path>
<path d="M1.168 0.492 Q0.927 0.733 1.346 0.904" stroke="hsl(180.0,100%,35%)" stroke-width="0.00163"></path>
<path d="M1.168 0.492 Q1.411 0.529 1.536 0.418" stroke="hsl(180.0,100%,35%)" stroke-width="0.05114"></path>
<path d="M1.168 0.492 Q1.043 0.225 0.495 0.227" stroke="hsl(180.0,100%,35%)" stroke-width="0.00183"></path>
<path d="M1.168 0.492 Q1.329 0.600 1.575 0.546" stroke="hsl(180.0,100%,35%)" stroke-width="0.02261"></path>
<path d="M1.168 0.492 Q1.619 0.442 1.621 0.211" stroke="hsl(180.0,100%,35%)" stroke-width="0.00020"></path>
<path d="M1.168 0.492 Q0.923 0.556 0.994 0.689" stroke="hsl(180.0,100%,35%)" stroke-width="0.00428"></path>
<path d="M1.168 0.492 Q1.188 0.315 0.848 0.267" stroke="hsl(180.0,100%,35%)" stroke-width="0.00081"></path>
<path d="M1.168 0.492 Q0.645 0.302 0.160 0.515" stroke="hsl(180.0,100%,35%)" stroke-width="0.00020"></path>
<path d="M1.168 0.492 Q1.165 0.622 1.419 0.651" stroke="hsl(180.0,100%,35%)" stroke-width="0.00020"></path>
<path d="M1.168 0.492 Q0.883 0.535 0.906 0.684" stroke="hsl(180.0,100%,35%)" stroke-width="0.00020"></path>
<path d="M0.994 0.689 Q1.239 0.625 1.168 0.492" stroke="hsl(180.0,100%,35%)" stroke-width="0.00143"></path>
<path d="M0.994 0.689 Q1.482 0.662 1.536 0.418" stroke="hsl(180.0,100%,35%)" stroke-width="0.00285"></path>
<path d="M0.994 0.689 Q1.400 0.734 1.575 0.546" stroke="hsl(180.0,100%,35%)" stroke-width="0.00224"></path>
<path d="M0.994 0.689 Q1.690 0.575 1.621 0.211" stroke="hsl(180.0,100%,35%)" stroke-width="0.00020"></path>
<path d="M0.994 0.689 Q1.259 0.449 0.848 0.267" stroke="hsl(180.0,100%,35%)" stroke-width="0.00041"></path>
<path d="M0.994 0.689 Q1.522 0.574 1.413 0.291" stroke="hsl(180.0,100%,35%)" stroke-width="0.00020"></path>
<path d="M0.994 0.689 Q1.236 0.755 1.419 0.651" stroke="hsl(180.0,100%,35%)" stroke-width="0.00041"></path>
<path d="M1.609 0.776 Q1.776 0.654 1.575 0.546" stroke="hsl(180.0,100%,35%)" stroke-width="0.00163"></path>
<path d="M1.609 0.776 Q1.491 0.279 0.495 0.227" stroke="hsl(180.0,100%,35%)" stroke-width="0.00102"></path>
<path d="M1.609 0.776 Q1.858 0.582 1.536 0.418" stroke="hsl(180.0,100%,35%)" stroke-width="0.00061"></path>
<path d="M1.609 0.776 Q1.616 0.545 1.168 0.492" stroke="hsl(180.0,100%,35%)" stroke-width="0.00041"></path>
<path d="M1.609 0.776 Q1.375 0.787 1.346 0.904" stroke="hsl(180.0,100%,35%)" stroke-width="0.00041"></path>
<path d="M1.621 0.211 Q1.045 -0.006 0.495 0.227" stroke="hsl(0.0,100%,35%)" stroke-width="0.00326"></path>
<path d="M1.621 0.211 Q1.453 0.210 1.413 0.291" stroke="hsl(0.0,100%,35%)" stroke-width="0.00163"></path>
<path d="M1.621 0.211 Q1.288 -0.035 0.734 0.073" stroke="hsl(0.0,100%,35%)" stroke-width="0.00061"></path>
<path d="M1.621 0.211 Q0.929 0.502 1.346 0.904" stroke="hsl(0.0,100%,35%)" stroke-width="0.00020"></path>
<path d="M1.621 0.211 Q0.925 0.325 0.994 0.689" stroke="hsl(0.0,100%,35%)" stroke-width="0.00020"></path>
<path d="M1.621 0.211 Q1.189 0.085 0.848 0.267" stroke="hsl(0.0,100%,35%)" stroke-width="0.00081"></path>
<path d="M1.621 0.211 Q1.413 0.298 1.536 0.418" stroke="hsl(0.0,100%,35%)" stroke-width="0.00061"></path>
<path d="M1.621 0.211 Q1.331 0.369 1.575 0.546" stroke="hsl(0.0,100%,35%)" stroke-width="0.00041"></path>
<path d="M0.734 0.073 Q0.636 0.193 0.848 0.267" stroke="hsl(0.0,100%,35%)" stroke-width="0.00428"></path>
<path d="M0.734 0.073 Q0.491 0.103 0.495 0.227" stroke="hsl(0.0,100%,35%)" stroke-width="0.01915"></path>
<path d="M0.734 0.073 Q0.375 0.611 1.346 0.904" stroke="hsl(0.0,100%,35%)" stroke-width="0.00020"></path>
<path d="M0.734 0.073 Q0.859 0.406 1.536 0.418" stroke="hsl(0.0,100%,35%)" stroke-width="0.00061"></path>
<path d="M0.734 0.073 Q0.556 0.128 0.624 0.227" stroke="hsl(0.0,100%,35%)" stroke-width="0.00020"></path>
<path d="M0.734 0.073 Q1.067 0.320 1.621 0.211" stroke="hsl(0.0,100%,35%)" stroke-width="0.00122"></path>
<path d="M0.734 0.073 Q0.899 0.318 1.413 0.291" stroke="hsl(0.0,100%,35%)" stroke-width="0.00143"></path>
<path d="M0.734 0.073 Q0.296 0.137 0.325 0.365" stroke="hsl(0.0,100%,35%)" stroke-width="0.00163"></path>
<path d="M0.734 0.073 Q0.616 0.369 1.168 0.492" stroke="hsl(0.0,100%,35%)" stroke-width="0.00020"></path>
<path d="M0.374 0.611 Q0.546 0.479 0.325 0.365" stroke="hsl(0.0,100%,35%)" stroke-width="0.00020"></path>
<path d="M0.374 0.611 Q1.027 0.819 1.575 0.546" stroke="hsl(0.0,100%,35%)" stroke-width="0.00081"></path>
<path d="M0.374 0.611 Q0.344 0.521 0.160 0.515" stroke="hsl(0.0,100%,35%)" stroke-width="0.00041"></path>
<path d="M0.374 0.611 Q1.109 0.747 1.536 0.418" stroke="hsl(0.0,100%,35%)" stroke-width="0.00163"></path>
<path d="M0.374 0.611 Q0.742 0.444 0.495 0.227" stroke="hsl(0.0,100%,35%)" stroke-width="0.00387"></path>
<path d="M0.374 0.611 Q0.886 0.534 0.848 0.267" stroke="hsl(0.0,100%,35%)" stroke-width="0.00102"></path>
<path d="M0.374 0.611 Q1.149 0.659 1.413 0.291" stroke="hsl(0.0,100%,35%)" stroke-width="0.00020"></path>
<path d="M0.374 0.611 Q0.984 0.414 0.734 0.073" stroke="hsl(0.0,100%,35%)" stroke-width="0.00020"></path>
<path d="M0.938 0.137 Q0.789 0.184 0.848 0.267" stroke="hsl(0.0,100%,35%)" stroke-width="0.01467"></path>
<path d="M0.938 0.137 Q0.644 0.094 0.495 0.227" stroke="hsl(0.0,100%,35%)" stroke-width="0.01528"></path>
<path d="M0.938 0.137 Q1.012 0.397 1.536 0.418" stroke="hsl(0.0,100%,35%)" stroke-width="0.00122"></path>
<path d="M0.938 0.137 Q0.930 0.469 1.575 0.546" stroke="hsl(0.0,100%,35%)" stroke-width="0.00020"></path>
<path d="M0.938 0.137 Q0.512 0.212 0.565 0.437" stroke="hsl(0.0,100%,35%)" stroke-width="0.00041"></path>
<path d="M0.938 0.137 Q0.769 0.360 1.168 0.492" stroke="hsl(0.0,100%,35%)" stroke-width="0.00020"></path>
<path d="M0.938 0.137 Q1.031 0.086 0.952 0.030" stroke="hsl(0.0,100%,35%)" stroke-width="0.00041"></path>
<path d="M0.938 0.137 Q1.052 0.309 1.413 0.291" stroke="hsl(0.0,100%,35%)" stroke-width="0.00041"></path>
<path d="M0.816 0.082 Q0.684 0.181 0.848 0.267" stroke="hsl(0.0,100%,35%)" stroke-width="0.00163"></path>
<path d="M0.816 0.082 Q0.539 0.091 0.495 0.227" stroke="hsl(0.0,100%,35%)" stroke-width="0.00122"></path>
<path d="M0.816 0.082 Q0.907 0.394 1.536 0.418" stroke="hsl(0.0,100%,35%)" stroke-width="0.00224"></path>
<path d="M0.816 0.082 Q0.664 0.357 1.168 0.492" stroke="hsl(0.0,100%,35%)" stroke-width="0.00020"></path>
<path d="M0.999 -0.007 Q0.560 0.010 0.495 0.227" stroke="hsl(0.0,100%,35%)" stroke-width="0.00163"></path>
<path d="M0.999 -0.007 Q0.967 0.225 1.413 0.291" stroke="hsl(0.0,100%,35%)" stroke-width="0.00020"></path>
<path d="M0.999 -0.007 Q0.704 0.100 0.848 0.267" stroke="hsl(0.0,100%,35%)" stroke-width="0.00306"></path>
<path d="M0.999 -0.007 Q0.802 -0.020 0.734 0.073" stroke="hsl(0.0,100%,35%)" stroke-width="0.00061"></path>
<path d="M0.565 0.437 Q0.697 0.318 0.495 0.227" stroke="hsl(0.0,100%,35%)" stroke-width="0.01671"></path>
<path d="M0.565 0.437 Q0.842 0.408 0.848 0.267" stroke="hsl(0.0,100%,35%)" stroke-width="0.00693"></path>
<path d="M0.565 0.437 Q0.940 0.289 0.734 0.073" stroke="hsl(0.0,100%,35%)" stroke-width="0.00020"></path>
<path d="M0.565 0.437 Q1.065 0.621 1.536 0.418" stroke="hsl(0.0,100%,35%)" stroke-width="0.00020"></path>
<path d="M0.117 0.344 Q0.399 0.361 0.495 0.227" stroke="hsl(0.0,100%,35%)" stroke-width="0.00570"></path>
<path d="M0.117 0.344 Q0.544 0.452 0.848 0.267" stroke="hsl(0.0,100%,35%)" stroke-width="0.00224"></path>
<path d="M0.117 0.344 Q0.267 0.480 0.565 0.437" stroke="hsl(0.0,100%,35%)" stroke-width="0.00020"></path>
<path d="M0.117 0.344 Q0.642 0.332 0.734 0.073" stroke="hsl(0.0,100%,35%)" stroke-width="0.00020"></path>
<path d="M0.970 0.012 Q0.705 0.115 0.848 0.267" stroke="hsl(0.0,100%,35%)" stroke-width="0.00081"></path>
<path d="M0.970 0.012 Q0.561 0.025 0.495 0.227" stroke="hsl(0.0,100%,35%)" stroke-width="0.00143"></path>
<path d="M0.970 0.012 Q0.968 0.240 1.413 0.291" stroke="hsl(0.0,100%,35%)" stroke-width="0.00020"></path>
<path d="M0.325 0.365 Q0.888 0.634 1.536 0.418" stroke="hsl(0.0,100%,35%)" stroke-width="0.00122"></path>
<path d="M0.325 0.365 Q0.152 0.498 0.374 0.611" stroke="hsl(0.0,100%,35%)" stroke-width="0.00163"></path>
<path d="M0.325 0.365 Q0.520 0.330 0.495 0.227" stroke="hsl(0.0,100%,35%)" stroke-width="0.00632"></path>
<path d="M0.325 0.365 Q0.665 0.421 0.848 0.267" stroke="hsl(0.0,100%,35%)" stroke-width="0.00061"></path>
<path d="M0.325 0.365 Q0.763 0.301 0.734 0.073" stroke="hsl(0.0,100%,35%)" stroke-width="0.00081"></path>
<path d="M0.325 0.365 Q0.928 0.546 1.413 0.291" stroke="hsl(0.0,100%,35%)" stroke-width="0.00041"></path>
<path d="M0.325 0.365 Q0.806 0.705 1.575 0.546" stroke="hsl(0.0,100%,35%)" stroke-width="0.00020"></path>
<path d="M0.387 0.104 Q0.710 0.491 1.536 0.418" stroke="hsl(0.0,100%,35%)" stroke-width="0.00020"></path>
<path d="M0.387 0.104 Q0.342 0.187 0.495 0.227" stroke="hsl(0.0,100%,35%)" stroke-width="0.00285"></path>
<path d="M0.387 0.104 Q0.749 0.403 1.413 0.291" stroke="hsl(0.0,100%,35%)" stroke-width="0.00041"></path>
<path d="M1.305 0.273 Q1.305 0.392 1.536 0.418" stroke="hsl(0.0,100%,35%)" stroke-width="0.00020"></path>
<path d="M1.305 0.273 Q0.937 0.088 0.495 0.227" stroke="hsl(0.0,100%,35%)" stroke-width="0.00020"></path>
<path d="M1.305 0.273 Q1.082 0.179 0.848 0.267" stroke="hsl(0.0,100%,35%)" stroke-width="0.00020"></path>
<path d="M0.160 0.515 Q0.926 0.742 1.536 0.418" stroke="hsl(0.0,100%,35%)" stroke-width="0.00020"></path>
<path d="M0.160 0.515 Q0.558 0.438 0.495 0.227" stroke="hsl(0.0,100%,35%)" stroke-width="0.00387"></path>
<path d="M0.160 0.515 Q0.442 0.947 1.346 0.904" stroke="hsl(0.0,100%,35%)" stroke-width="0.00041"></path>
<path d="M0.160 0.515 Q0.801 0.409 0.734 0.073" stroke="hsl(0.0,100%,35%)" stroke-width="0.00041"></path>
<path d="M0.160 0.515 Q0.702 0.529 0.848 0.267" stroke="hsl(0.0,100%,35%)" stroke-width="0.00020"></path>
<path d="M0.160 0.515 Q0.190 0.606 0.374 0.611" stroke="hsl(0.0,100%,35%)" stroke-width="0.00102"></path>
<path d="M0.160 0.515 Q1.134 0.655 1.621 0.211" stroke="hsl(0.0,100%,35%)" stroke-width="0.00041"></path>
<path d="M0.160 0.515 Q0.966 0.654 1.413 0.291" stroke="hsl(0.0,100%,35%)" stroke-width="0.00020"></path>
<path d="M0.762 0.282 Q0.672 0.201 0.495 0.227" stroke="hsl(0.0,100%,35%)" stroke-width="0.00835"></path>
<path d="M0.762 0.282 Q0.540 0.320 0.565 0.437" stroke="hsl(0.0,100%,35%)" stroke-width="0.00530"></path>
<path d="M0.762 0.282 Q0.817 0.292 0.848 0.267" stroke="hsl(0.0,100%,35%)" stroke-width="0.00652"></path>
<path d="M0.762 0.282 Q1.040 0.505 1.536 0.418" stroke="hsl(0.0,100%,35%)" stroke-width="0.00020"></path>
<path d="M0.441 0.295 Q0.523 0.272 0.495 0.227" stroke="hsl(0.0,100%,35%)" stroke-width="0.00224"></path>
<path d="M0.441 0.295 Q0.765 0.243 0.734 0.073" stroke="hsl(0.0,100%,35%)" stroke-width="0.00081"></path>
<path d="M0.441 0.295 Q0.890 0.576 1.536 0.418" stroke="hsl(0.0,100%,35%)" stroke-width="0.00061"></path>
<path d="M0.441 0.295 Q0.407 0.780 1.346 0.904" stroke="hsl(0.0,100%,35%)" stroke-width="0.00020"></path>
<path d="M0.441 0.295 Q0.667 0.363 0.848 0.267" stroke="hsl(0.0,100%,35%)" stroke-width="0.00204"></path>
<path d="M1.148 0.264 Q0.995 0.206 0.848 0.267" stroke="hsl(0.0,100%,35%)" stroke-width="0.00224"></path>
<path d="M1.148 0.264 Q0.851 0.115 0.495 0.227" stroke="hsl(0.0,100%,35%)" stroke-width="0.00244"></path>
<path d="M1.148 0.264 Q0.969 0.612 1.609 0.776" stroke="hsl(0.0,100%,35%)" stroke-width="0.00020"></path>
<path d="M1.148 0.264 Q1.093 0.086 0.734 0.073" stroke="hsl(0.0,100%,35%)" stroke-width="0.00020"></path>
<path d="M1.148 0.264 Q0.976 0.382 1.168 0.492" stroke="hsl(0.0,100%,35%)" stroke-width="0.00020"></path>
<path d="M1.148 0.264 Q0.735 0.623 1.346 0.904" stroke="hsl(0.0,100%,35%)" stroke-width="0.00020"></path>
<path d="M1.148 0.264 Q1.219 0.419 1.536 0.418" stroke="hsl(0.0,100%,35%)" stroke-width="0.00163"></path>
<path d="M1.108 0.205 Q0.928 0.184 0.848 0.267" stroke="hsl(0.0,100%,35%)" stroke-width="0.00306"></path>
<path d="M1.108 0.205 Q0.783 0.094 0.495 0.227" stroke="hsl(0.0,100%,35%)" stroke-width="0.00265"></path>
<path d="M1.108 0.205 Q1.151 0.397 1.536 0.418" stroke="hsl(0.0,100%,35%)" stroke-width="0.00020"></path>
<path d="M0.870 0.023 Q0.664 0.140 0.848 0.267" stroke="hsl(0.0,100%,35%)" stroke-width="0.00061"></path>
<path d="M0.870 0.023 Q0.519 0.050 0.495 0.227" stroke="hsl(0.0,100%,35%)" stroke-width="0.00041"></path>
<path d="M0.870 0.023 Q0.929 0.049 0.993 0.026" stroke="hsl(0.0,100%,35%)" stroke-width="0.00041"></path>
<path d="M0.484 0.325 Q0.712 0.369 0.848 0.267" stroke="hsl(0.0,100%,35%)" stroke-width="0.00183"></path>
<path d="M0.484 0.325 Q0.568 0.279 0.495 0.227" stroke="hsl(0.0,100%,35%)" stroke-width="0.00163"></path>
<path d="M0.484 0.325 Q0.976 0.494 1.413 0.291" stroke="hsl(0.0,100%,35%)" stroke-width="0.00041"></path>
<path d="M1.371 0.579 Q1.582 0.531 1.536 0.418" stroke="hsl(180.0,100%,35%)" stroke-width="0.00224"></path>
<path d="M1.371 0.579 Q1.099 0.736 1.346 0.904" stroke="hsl(180.0,100%,35%)" stroke-width="0.00020"></path>
<path d="M1.371 0.579 Q1.339 0.495 1.168 0.492" stroke="hsl(180.0,100%,35%)" stroke-width="0.00020"></path>
<path d="M1.371 0.579 Q1.333 0.725 1.609 0.776" stroke="hsl(180.0,100%,35%)" stroke-width="0.00020"></path>
<path d="M1.371 0.579 Q1.214 0.228 0.495 0.227" stroke="hsl(180.0,100%,35%)" stroke-width="0.00041"></path>
<path d="M0.668 0.615 Q1.259 0.690 1.536 0.418" stroke="hsl(180.0,100%,35%)" stroke-width="0.00020"></path>
<path d="M0.668 0.615 Q0.891 0.386 0.495 0.227" stroke="hsl(180.0,100%,35%)" stroke-width="0.00061"></path>
<path d="M0.668 0.615 Q1.016 0.653 1.168 0.492" stroke="hsl(180.0,100%,35%)" stroke-width="0.00081"></path>
<path d="M0.898 0.415 Q0.991 0.331 0.848 0.267" stroke="hsl(0.0,100%,35%)" stroke-width="0.00285"></path>
<path d="M0.898 0.415 Q0.847 0.241 0.495 0.227" stroke="hsl(0.0,100%,35%)" stroke-width="0.00265"></path>
<path d="M0.898 0.415 Q1.324 0.344 1.278 0.121" stroke="hsl(0.0,100%,35%)" stroke-width="0.00020"></path>
<path d="M1.248 0.791 Q1.441 0.856 1.609 0.776" stroke="hsl(180.0,100%,35%)" stroke-width="0.00020"></path>
<path d="M1.248 0.791 Q1.608 0.734 1.575 0.546" stroke="hsl(180.0,100%,35%)" stroke-width="0.00020"></path>
<path d="M1.248 0.791 Q1.690 0.662 1.536 0.418" stroke="hsl(180.0,100%,35%)" stroke-width="0.00020"></path>
<path d="M1.248 0.791 Q1.467 0.449 0.848 0.267" stroke="hsl(180.0,100%,35%)" stroke-width="0.00020"></path>
<path d="M0.282 0.310 Q0.599 0.402 0.848 0.267" stroke="hsl(0.0,100%,35%)" stroke-width="0.00041"></path>
<path d="M0.282 0.310 Q0.172 0.294 0.117 0.344" stroke="hsl(0.0,100%,35%)" stroke-width="0.00020"></path>
<path d="M0.282 0.310 Q0.454 0.311 0.495 0.227" stroke="hsl(0.0,100%,35%)" stroke-width="0.00041"></path>
</g>
<text x="1.278" y="0.117" font-size="0.008129" fill="hsl(0.0,100%,20%)">albin.bernhardsson</text>
<text x="0.848" y="0.237" font-size="0.059385" fill="hsl(0.0,100%,20%)">cwallez</text>
<text x="1.575" y="0.506" font-size="0.078931" fill="hsl(180.0,100%,20%)">dsinclair</text>
<text x="0.495" y="0.191" font-size="0.072958" fill="hsl(0.0,100%,20%)">enga</text>
<text x="1.413" y="0.280" font-size="0.021786" fill="hsl(0.0,100%,20%)">kainino</text>
<text x="1.346" y="0.882" font-size="0.043295" fill="hsl(180.0,100%,20%)">amaiorano</text>
<text x="1.536" y="0.369" font-size="0.097490" fill="hsl(180.0,100%,20%)">bclayton</text>
<text x="1.168" y="0.458" font-size="0.067882" fill="hsl(180.0,100%,20%)">jrprice</text>
<text x="0.994" y="0.678" font-size="0.022862" fill="hsl(180.0,100%,20%)">dneto</text>
<text x="1.609" y="0.768" font-size="0.015109" fill="hsl(180.0,100%,20%)">rharrison</text>
<text x="1.693" y="-2.983" font-size="0.004902" fill="hsl(0.0,100%,20%)">avi</text>
<text x="1.621" y="0.202" font-size="0.019300" fill="hsl(0.0,100%,20%)">bajones</text>
<text x="0.734" y="0.053" font-size="0.040275" fill="hsl(0.0,100%,20%)">lokokung</text>
<text x="0.374" y="0.601" font-size="0.020063" fill="hsl(0.0,100%,20%)">senorblanco</text>
<text x="1.300" y="0.536" font-size="0.002451" fill="hsl(180.0,100%,20%)">kjlubick</text>
<text x="0.938" y="0.121" font-size="0.031293" fill="hsl(0.0,100%,20%)">jiawei.shao</text>
<text x="0.816" y="0.076" font-size="0.012736" fill="hsl(0.0,100%,20%)">brandon1.jones</text>
<text x="0.999" y="-0.013" font-size="0.012736" fill="hsl(0.0,100%,20%)">beaufort.francois</text>
<text x="1.084" y="-1.078" font-size="0.002451" fill="hsl(0.0,100%,20%)">arthursonzogni</text>
<text x="0.565" y="0.421" font-size="0.030219" fill="hsl(0.0,100%,20%)">penghuang</text>
<text x="0.117" y="0.336" font-size="0.016804" fill="hsl(0.0,100%,20%)">lehoangquyen</text>
<text x="1.153" y="0.037" font-size="0.002451" fill="hsl(0.0,100%,20%)">fbeaufort</text>
<text x="0.970" y="0.008" font-size="0.008838" fill="hsl(0.0,100%,20%)">yunchao.he</text>
<text x="0.325" y="0.355" font-size="0.021227" fill="hsl(0.0,100%,20%)">shrekshao</text>
<text x="0.387" y="0.098" font-size="0.010684" fill="hsl(0.0,100%,20%)">ynovikov</text>
<text x="1.305" y="0.271" font-size="0.004245" fill="hsl(0.0,100%,20%)">danakj</text>
<text x="1.419" y="0.649" font-size="0.004245" fill="hsl(180.0,100%,20%)">alanbaker</text>
<text x="0.160" y="0.508" font-size="0.015502" fill="hsl(0.0,100%,20%)">gman</text>
<text x="0.166" y="0.232" font-size="0.004245" fill="hsl(0.0,100%,20%)">bsheedy</text>
<text x="0.762" y="0.269" font-size="0.024755" fill="hsl(0.0,100%,20%)">jie.a.chen</text>
<text x="0.343" y="0.382" font-size="0.002451" fill="hsl(0.0,100%,20%)">brucedawson</text>
<text x="0.503" y="0.478" font-size="0.004245" fill="hsl(0.0,100%,20%)">toji</text>
<text x="0.441" y="0.289" font-size="0.013425" fill="hsl(0.0,100%,20%)">tiszka</text>
<text x="1.148" y="0.257" font-size="0.014707" fill="hsl(0.0,100%,20%)">zhaoming.jiang</text>
<text x="1.108" y="0.198" font-size="0.013199" fill="hsl(0.0,100%,20%)">hao.x.li</text>
<text x="0.870" y="0.019" font-size="0.006485" fill="hsl(0.0,100%,20%)">hitawala</text>
<text x="0.993" y="0.025" font-size="0.003466" fill="hsl(0.0,100%,20%)">sunnyps</text>
<text x="0.484" y="0.320" font-size="0.010684" fill="hsl(0.0,100%,20%)">hogehoge</text>
<text x="1.371" y="0.574" font-size="0.009804" fill="hsl(180.0,100%,20%)">jason.erb</text>
<text x="0.952" y="0.028" font-size="0.003466" fill="hsl(0.0,100%,20%)">rafael.cintron</text>
<text x="0.668" y="0.611" font-size="0.006933" fill="hsl(180.0,100%,20%)">jojwang</text>
<text x="0.906" y="0.683" font-size="0.002451" fill="hsl(180.0,100%,20%)">johnstiles</text>
<text x="0.624" y="0.225" font-size="0.002451" fill="hsl(0.0,100%,20%)">kbr</text>
<text x="0.898" y="0.409" font-size="0.012970" fill="hsl(0.0,100%,20%)">shaobo.yan</text>
<text x="1.248" y="0.789" font-size="0.004902" fill="hsl(180.0,100%,20%)">stha09</text>
<text x="0.282" y="0.307" font-size="0.005481" fill="hsl(0.0,100%,20%)">vollick</text>
</svg>
