<svg width="4000" height="2000" viewBox="-0.025 -0.025 2.05 1.05" xmlns="http://www.w3.org/2000/svg">
  <style>
    path {
      fill: none;
      stroke-linecap: round;
      stroke-opacity: 0.4;
    }

    text {
      text-anchor: middle;
      alignment-baseline: hanging;
    }
  </style>
  <g opacity="0.4">
<path d="M1.454 0.845 Q1.232 0.887 1.264 1.005" stroke="hsl(0.0,100%,35%)" stroke-width="0.00065"></path>
<path d="M1.454 0.845 Q1.339 0.333 0.314 0.276" stroke="hsl(0.0,100%,35%)" stroke-width="0.00065"></path>
<path d="M1.454 0.845 Q1.730 0.453 1.025 0.232" stroke="hsl(0.0,100%,35%)" stroke-width="0.00022"></path>
<path d="M1.264 1.005 Q1.371 0.451 0.314 0.276" stroke="hsl(0.0,100%,35%)" stroke-width="0.02675"></path>
<path d="M1.264 1.005 Q1.998 0.629 1.426 0.189" stroke="hsl(0.0,100%,35%)" stroke-width="0.01424"></path>
<path d="M1.264 1.005 Q1.691 1.003 1.781 0.794" stroke="hsl(0.0,100%,35%)" stroke-width="0.00108"></path>
<path d="M1.264 1.005 Q1.611 0.397 0.502 0.094" stroke="hsl(0.0,100%,35%)" stroke-width="0.00043"></path>
<path d="M1.264 1.005 Q1.355 0.508 0.405 0.354" stroke="hsl(0.0,100%,35%)" stroke-width="0.01251"></path>
<path d="M1.264 1.005 Q1.296 0.526 0.369 0.405" stroke="hsl(0.0,100%,35%)" stroke-width="0.00280"></path>
<path d="M1.264 1.005 Q1.615 1.068 1.816 0.911" stroke="hsl(0.0,100%,35%)" stroke-width="0.00022"></path>
<path d="M1.264 1.005 Q2.085 0.563 1.403 0.065" stroke="hsl(0.0,100%,35%)" stroke-width="0.00022"></path>
<path d="M1.264 1.005 Q1.762 0.570 1.025 0.232" stroke="hsl(0.0,100%,35%)" stroke-width="0.00065"></path>
<path d="M1.264 1.005 Q1.346 0.977 1.310 0.931" stroke="hsl(0.0,100%,35%)" stroke-width="0.00022"></path>
<path d="M1.264 1.005 Q1.508 1.000 1.552 0.880" stroke="hsl(0.0,100%,35%)" stroke-width="0.00043"></path>
<path d="M1.264 1.005 Q1.462 0.502 0.525 0.296" stroke="hsl(0.0,100%,35%)" stroke-width="0.00086"></path>
<path d="M1.264 1.005 Q1.454 0.798 1.092 0.659" stroke="hsl(0.0,100%,35%)" stroke-width="0.00022"></path>
<path d="M1.264 1.005 Q1.784 0.672 1.248 0.345" stroke="hsl(0.0,100%,35%)" stroke-width="0.00022"></path>
<path d="M1.264 1.005 Q1.650 0.954 1.636 0.754" stroke="hsl(0.0,100%,35%)" stroke-width="0.00065"></path>
<path d="M1.264 1.005 Q1.401 0.847 1.123 0.745" stroke="hsl(0.0,100%,35%)" stroke-width="0.00043"></path>
<path d="M1.264 1.005 Q1.481 0.835 1.198 0.691" stroke="hsl(0.0,100%,35%)" stroke-width="0.00022"></path>
<path d="M1.264 1.005 Q1.493 0.876 1.294 0.736" stroke="hsl(0.0,100%,35%)" stroke-width="0.00043"></path>
<path d="M1.264 1.005 Q2.059 0.735 1.707 0.288" stroke="hsl(0.0,100%,35%)" stroke-width="0.00022"></path>
<path d="M1.264 1.005 Q1.407 0.572 0.595 0.407" stroke="hsl(0.0,100%,35%)" stroke-width="0.00022"></path>
<path d="M0.314 0.276 Q0.350 0.398 0.595 0.407" stroke="hsl(0.0,100%,35%)" stroke-width="0.00022"></path>
<path d="M0.314 0.276 Q0.206 0.830 1.264 1.005" stroke="hsl(0.0,100%,35%)" stroke-width="0.00885"></path>
<path d="M0.314 0.276 Q0.297 0.334 0.405 0.354" stroke="hsl(0.0,100%,35%)" stroke-width="0.01920"></path>
<path d="M0.314 0.276 Q0.726 0.497 1.248 0.345" stroke="hsl(0.0,100%,35%)" stroke-width="0.00173"></path>
<path d="M0.314 0.276 Q0.554 0.223 0.502 0.094" stroke="hsl(0.0,100%,35%)" stroke-width="0.00065"></path>
<path d="M0.314 0.276 Q0.831 0.451 1.285 0.238" stroke="hsl(0.0,100%,35%)" stroke-width="0.00065"></path>
<path d="M0.314 0.276 Q0.239 0.352 0.369 0.405" stroke="hsl(0.0,100%,35%)" stroke-width="0.00669"></path>
<path d="M0.314 0.276 Q0.633 0.829 1.781 0.794" stroke="hsl(0.0,100%,35%)" stroke-width="0.00108"></path>
<path d="M0.314 0.276 Q0.705 0.396 1.025 0.232" stroke="hsl(0.0,100%,35%)" stroke-width="0.00086"></path>
<path d="M0.314 0.276 Q0.815 0.808 1.962 0.680" stroke="hsl(0.0,100%,35%)" stroke-width="0.00129"></path>
<path d="M0.314 0.276 Q0.404 0.328 0.525 0.296" stroke="hsl(0.0,100%,35%)" stroke-width="0.00151"></path>
<path d="M0.314 0.276 Q0.940 0.455 1.426 0.189" stroke="hsl(0.0,100%,35%)" stroke-width="0.00194"></path>
<path d="M0.314 0.276 Q0.593 0.780 1.636 0.754" stroke="hsl(0.0,100%,35%)" stroke-width="0.00065"></path>
<path d="M0.314 0.276 Q1.001 0.561 1.707 0.288" stroke="hsl(0.0,100%,35%)" stroke-width="0.00065"></path>
<path d="M0.314 0.276 Q0.188 0.300 0.207 0.367" stroke="hsl(0.0,100%,35%)" stroke-width="0.00065"></path>
<path d="M0.314 0.276 Q0.160 0.749 1.049 0.928" stroke="hsl(0.0,100%,35%)" stroke-width="0.00022"></path>
<path d="M0.314 0.276 Q1.027 0.389 1.403 0.065" stroke="hsl(0.0,100%,35%)" stroke-width="0.00065"></path>
<path d="M0.314 0.276 Q0.411 0.152 0.189 0.077" stroke="hsl(0.0,100%,35%)" stroke-width="0.00022"></path>
<path d="M0.314 0.276 Q0.278 0.687 1.070 0.794" stroke="hsl(0.0,100%,35%)" stroke-width="0.00043"></path>
<path d="M0.314 0.276 Q0.219 0.246 0.138 0.286" stroke="hsl(0.0,100%,35%)" stroke-width="0.00022"></path>
<path d="M1.025 0.232 Q1.321 0.396 1.707 0.288" stroke="hsl(180.0,100%,35%)" stroke-width="0.01856"></path>
<path d="M1.025 0.232 Q1.260 0.291 1.426 0.189" stroke="hsl(180.0,100%,35%)" stroke-width="0.03582"></path>
<path d="M1.025 0.232 Q1.046 0.333 1.248 0.345" stroke="hsl(180.0,100%,35%)" stroke-width="0.00324"></path>
<path d="M1.025 0.232 Q0.850 0.196 0.742 0.273" stroke="hsl(180.0,100%,35%)" stroke-width="0.00022"></path>
<path d="M1.025 0.232 Q0.526 0.666 1.264 1.005" stroke="hsl(180.0,100%,35%)" stroke-width="0.00216"></path>
<path d="M1.025 0.232 Q0.634 0.112 0.314 0.276" stroke="hsl(180.0,100%,35%)" stroke-width="0.00108"></path>
<path d="M1.025 0.232 Q1.347 0.224 1.403 0.065" stroke="hsl(180.0,100%,35%)" stroke-width="0.00043"></path>
<path d="M1.025 0.232 Q0.953 0.664 1.781 0.794" stroke="hsl(180.0,100%,35%)" stroke-width="0.00086"></path>
<path d="M1.025 0.232 Q1.135 0.643 1.962 0.680" stroke="hsl(180.0,100%,35%)" stroke-width="0.00022"></path>
<path d="M1.025 0.232 Q0.508 0.136 0.207 0.367" stroke="hsl(180.0,100%,35%)" stroke-width="0.00022"></path>
<path d="M1.025 0.232 Q0.558 0.187 0.369 0.405" stroke="hsl(180.0,100%,35%)" stroke-width="0.00043"></path>
<path d="M1.025 0.232 Q1.150 0.287 1.285 0.238" stroke="hsl(180.0,100%,35%)" stroke-width="0.00022"></path>
<path d="M1.248 0.345 Q1.462 0.302 1.426 0.189" stroke="hsl(180.0,100%,35%)" stroke-width="0.00885"></path>
<path d="M1.248 0.345 Q0.836 0.124 0.314 0.276" stroke="hsl(180.0,100%,35%)" stroke-width="0.01014"></path>
<path d="M1.248 0.345 Q0.872 0.245 0.595 0.407" stroke="hsl(180.0,100%,35%)" stroke-width="0.00022"></path>
<path d="M1.248 0.345 Q0.728 0.678 1.264 1.005" stroke="hsl(180.0,100%,35%)" stroke-width="0.00237"></path>
<path d="M1.248 0.345 Q1.227 0.244 1.025 0.232" stroke="hsl(180.0,100%,35%)" stroke-width="0.00216"></path>
<path d="M1.248 0.345 Q1.523 0.408 1.707 0.288" stroke="hsl(180.0,100%,35%)" stroke-width="0.00065"></path>
<path d="M1.248 0.345 Q0.760 0.199 0.369 0.405" stroke="hsl(180.0,100%,35%)" stroke-width="0.00043"></path>
<path d="M1.248 0.345 Q1.549 0.236 1.403 0.065" stroke="hsl(180.0,100%,35%)" stroke-width="0.00043"></path>
<path d="M1.248 0.345 Q0.933 -0.001 0.189 0.077" stroke="hsl(180.0,100%,35%)" stroke-width="0.00022"></path>
<path d="M1.426 0.189 Q1.212 0.231 1.248 0.345" stroke="hsl(180.0,100%,35%)" stroke-width="0.01748"></path>
<path d="M1.426 0.189 Q1.191 0.130 1.025 0.232" stroke="hsl(180.0,100%,35%)" stroke-width="0.05114"></path>
<path d="M1.426 0.189 Q1.487 0.294 1.707 0.288" stroke="hsl(180.0,100%,35%)" stroke-width="0.06408"></path>
<path d="M1.426 0.189 Q0.692 0.564 1.264 1.005" stroke="hsl(180.0,100%,35%)" stroke-width="0.01597"></path>
<path d="M1.426 0.189 Q1.316 0.185 1.285 0.238" stroke="hsl(180.0,100%,35%)" stroke-width="0.00626"></path>
<path d="M1.426 0.189 Q0.897 -0.115 0.189 0.077" stroke="hsl(180.0,100%,35%)" stroke-width="0.00022"></path>
<path d="M1.426 0.189 Q0.725 0.085 0.369 0.405" stroke="hsl(180.0,100%,35%)" stroke-width="0.00065"></path>
<path d="M1.426 0.189 Q0.800 0.010 0.314 0.276" stroke="hsl(180.0,100%,35%)" stroke-width="0.00798"></path>
<path d="M1.426 0.189 Q0.890 0.062 0.525 0.296" stroke="hsl(180.0,100%,35%)" stroke-width="0.00043"></path>
<path d="M1.426 0.189 Q0.936 0.559 1.552 0.880" stroke="hsl(180.0,100%,35%)" stroke-width="0.00022"></path>
<path d="M1.426 0.189 Q1.707 0.134 1.662 -0.015" stroke="hsl(180.0,100%,35%)" stroke-width="0.00022"></path>
<path d="M1.426 0.189 Q1.513 0.122 1.403 0.065" stroke="hsl(180.0,100%,35%)" stroke-width="0.00755"></path>
<path d="M1.426 0.189 Q1.119 0.562 1.781 0.794" stroke="hsl(180.0,100%,35%)" stroke-width="0.00022"></path>
<path d="M1.426 0.189 Q1.061 0.314 1.225 0.519" stroke="hsl(180.0,100%,35%)" stroke-width="0.00022"></path>
<path d="M0.595 0.407 Q0.559 0.286 0.314 0.276" stroke="hsl(0.0,100%,35%)" stroke-width="0.00216"></path>
<path d="M0.595 0.407 Q1.186 0.464 1.426 0.189" stroke="hsl(0.0,100%,35%)" stroke-width="0.00043"></path>
<path d="M0.595 0.407 Q0.657 0.161 0.189 0.077" stroke="hsl(0.0,100%,35%)" stroke-width="0.00022"></path>
<path d="M0.595 0.407 Q0.452 0.840 1.264 1.005" stroke="hsl(0.0,100%,35%)" stroke-width="0.00022"></path>
<path d="M0.595 0.407 Q0.972 0.507 1.248 0.345" stroke="hsl(0.0,100%,35%)" stroke-width="0.00043"></path>
<path d="M0.595 0.407 Q0.484 0.361 0.369 0.405" stroke="hsl(0.0,100%,35%)" stroke-width="0.00022"></path>
<path d="M0.595 0.407 Q0.879 0.838 1.781 0.794" stroke="hsl(0.0,100%,35%)" stroke-width="0.00043"></path>
<path d="M1.707 0.288 Q1.646 0.182 1.426 0.189" stroke="hsl(180.0,100%,35%)" stroke-width="0.04488"></path>
<path d="M1.707 0.288 Q1.410 0.123 1.025 0.232" stroke="hsl(180.0,100%,35%)" stroke-width="0.02546"></path>
<path d="M1.707 0.288 Q0.912 0.558 1.264 1.005" stroke="hsl(180.0,100%,35%)" stroke-width="0.00129"></path>
<path d="M1.707 0.288 Q1.536 0.178 1.285 0.238" stroke="hsl(180.0,100%,35%)" stroke-width="0.00518"></path>
<path d="M1.707 0.288 Q1.432 0.225 1.248 0.345" stroke="hsl(180.0,100%,35%)" stroke-width="0.00108"></path>
<path d="M1.707 0.288 Q1.110 0.055 0.525 0.296" stroke="hsl(180.0,100%,35%)" stroke-width="0.00065"></path>
<path d="M1.707 0.288 Q1.019 0.004 0.314 0.276" stroke="hsl(180.0,100%,35%)" stroke-width="0.00151"></path>
<path d="M1.707 0.288 Q0.894 0.027 0.207 0.367" stroke="hsl(180.0,100%,35%)" stroke-width="0.00022"></path>
<path d="M1.707 0.288 Q1.329 0.184 1.044 0.346" stroke="hsl(180.0,100%,35%)" stroke-width="0.00022"></path>
<path d="M1.707 0.288 Q1.733 0.116 1.403 0.065" stroke="hsl(180.0,100%,35%)" stroke-width="0.00022"></path>
<path d="M1.707 0.288 Q2.201 0.077 1.897 -0.210" stroke="hsl(180.0,100%,35%)" stroke-width="0.00022"></path>
<path d="M0.369 0.405 Q0.444 0.330 0.314 0.276" stroke="hsl(0.0,100%,35%)" stroke-width="0.00410"></path>
<path d="M0.369 0.405 Q0.336 0.884 1.264 1.005" stroke="hsl(0.0,100%,35%)" stroke-width="0.00237"></path>
<path d="M0.369 0.405 Q0.427 0.387 0.405 0.354" stroke="hsl(0.0,100%,35%)" stroke-width="0.00302"></path>
<path d="M0.369 0.405 Q1.070 0.508 1.426 0.189" stroke="hsl(0.0,100%,35%)" stroke-width="0.00043"></path>
<path d="M0.369 0.405 Q0.290 0.802 1.049 0.928" stroke="hsl(0.0,100%,35%)" stroke-width="0.00022"></path>
<path d="M0.369 0.405 Q0.945 0.861 1.962 0.680" stroke="hsl(0.0,100%,35%)" stroke-width="0.00022"></path>
<path d="M0.369 0.405 Q0.534 0.381 0.525 0.296" stroke="hsl(0.0,100%,35%)" stroke-width="0.00022"></path>
<path d="M0.369 0.405 Q0.541 0.205 0.189 0.077" stroke="hsl(0.0,100%,35%)" stroke-width="0.00065"></path>
<path d="M0.369 0.405 Q0.486 0.832 1.346 0.869" stroke="hsl(0.0,100%,35%)" stroke-width="0.00022"></path>
<path d="M1.403 0.065 Q1.081 0.073 1.025 0.232" stroke="hsl(180.0,100%,35%)" stroke-width="0.00151"></path>
<path d="M1.403 0.065 Q0.690 -0.047 0.314 0.276" stroke="hsl(180.0,100%,35%)" stroke-width="0.00108"></path>
<path d="M1.403 0.065 Q1.316 0.132 1.426 0.189" stroke="hsl(180.0,100%,35%)" stroke-width="0.00194"></path>
<path d="M1.403 0.065 Q1.377 0.237 1.707 0.288" stroke="hsl(180.0,100%,35%)" stroke-width="0.00151"></path>
<path d="M1.403 0.065 Q1.102 0.174 1.248 0.345" stroke="hsl(180.0,100%,35%)" stroke-width="0.00022"></path>
<path d="M1.403 0.065 Q0.787 -0.172 0.189 0.077" stroke="hsl(180.0,100%,35%)" stroke-width="0.00022"></path>
<path d="M0.189 0.077 Q0.092 0.202 0.314 0.276" stroke="hsl(0.0,100%,35%)" stroke-width="0.01079"></path>
<path d="M0.189 0.077 Q0.016 0.277 0.369 0.405" stroke="hsl(0.0,100%,35%)" stroke-width="0.00065"></path>
<path d="M0.189 0.077 Q0.482 0.321 1.025 0.232" stroke="hsl(0.0,100%,35%)" stroke-width="0.00022"></path>
<path d="M0.189 0.077 Q0.718 0.380 1.426 0.189" stroke="hsl(0.0,100%,35%)" stroke-width="0.00065"></path>
<path d="M1.552 0.880 Q1.308 0.885 1.264 1.005" stroke="hsl(0.0,100%,35%)" stroke-width="0.00604"></path>
<path d="M1.552 0.880 Q1.416 0.330 0.314 0.276" stroke="hsl(0.0,100%,35%)" stroke-width="0.00086"></path>
<path d="M1.552 0.880 Q1.449 0.791 1.253 0.822" stroke="hsl(0.0,100%,35%)" stroke-width="0.00022"></path>
<path d="M1.552 0.880 Q2.042 0.509 1.426 0.189" stroke="hsl(0.0,100%,35%)" stroke-width="0.00151"></path>
<path d="M1.326 0.819 Q1.147 0.899 1.264 1.005" stroke="hsl(0.0,100%,35%)" stroke-width="0.00065"></path>
<path d="M1.326 0.819 Q1.179 0.420 0.369 0.405" stroke="hsl(0.0,100%,35%)" stroke-width="0.00065"></path>
<path d="M1.326 0.819 Q1.238 0.402 0.405 0.354" stroke="hsl(0.0,100%,35%)" stroke-width="0.00022"></path>
<path d="M1.326 0.819 Q1.756 0.877 1.962 0.680" stroke="hsl(0.0,100%,35%)" stroke-width="0.00022"></path>
<path d="M1.326 0.819 Q1.881 0.524 1.426 0.189" stroke="hsl(0.0,100%,35%)" stroke-width="0.00022"></path>
<path d="M1.326 0.819 Q1.254 0.345 0.314 0.276" stroke="hsl(0.0,100%,35%)" stroke-width="0.00022"></path>
<path d="M0.405 0.354 Q0.422 0.297 0.314 0.276" stroke="hsl(0.0,100%,35%)" stroke-width="0.02179"></path>
<path d="M0.405 0.354 Q0.314 0.851 1.264 1.005" stroke="hsl(0.0,100%,35%)" stroke-width="0.00712"></path>
<path d="M0.405 0.354 Q0.923 0.828 1.962 0.680" stroke="hsl(0.0,100%,35%)" stroke-width="0.00173"></path>
<path d="M0.405 0.354 Q1.048 0.476 1.426 0.189" stroke="hsl(0.0,100%,35%)" stroke-width="0.00043"></path>
<path d="M0.405 0.354 Q0.347 0.372 0.369 0.405" stroke="hsl(0.0,100%,35%)" stroke-width="0.00410"></path>
<path d="M0.405 0.354 Q0.296 0.321 0.207 0.367" stroke="hsl(0.0,100%,35%)" stroke-width="0.00022"></path>
<path d="M0.405 0.354 Q0.834 0.518 1.248 0.345" stroke="hsl(0.0,100%,35%)" stroke-width="0.00022"></path>
<path d="M0.405 0.354 Q0.441 0.438 0.611 0.439" stroke="hsl(0.0,100%,35%)" stroke-width="0.00022"></path>
<path d="M0.405 0.354 Q0.512 0.349 0.525 0.296" stroke="hsl(0.0,100%,35%)" stroke-width="0.00108"></path>
<path d="M0.405 0.354 Q1.109 0.581 1.707 0.288" stroke="hsl(0.0,100%,35%)" stroke-width="0.00022"></path>
<path d="M1.962 0.680 Q1.461 0.148 0.314 0.276" stroke="hsl(0.0,100%,35%)" stroke-width="0.00841"></path>
<path d="M1.962 0.680 Q1.353 0.702 1.264 1.005" stroke="hsl(0.0,100%,35%)" stroke-width="0.00065"></path>
<path d="M1.962 0.680 Q1.444 0.206 0.405 0.354" stroke="hsl(0.0,100%,35%)" stroke-width="0.00173"></path>
<path d="M1.962 0.680 Q1.385 0.223 0.369 0.405" stroke="hsl(0.0,100%,35%)" stroke-width="0.00043"></path>
<path d="M1.962 0.680 Q1.780 0.701 1.781 0.794" stroke="hsl(0.0,100%,35%)" stroke-width="0.00496"></path>
<path d="M1.962 0.680 Q2.087 0.327 1.426 0.189" stroke="hsl(0.0,100%,35%)" stroke-width="0.00108"></path>
<path d="M1.962 0.680 Q1.851 0.268 1.025 0.232" stroke="hsl(0.0,100%,35%)" stroke-width="0.00108"></path>
<path d="M1.962 0.680 Q2.148 0.433 1.707 0.288" stroke="hsl(0.0,100%,35%)" stroke-width="0.00022"></path>
<path d="M1.962 0.680 Q1.551 0.200 0.525 0.296" stroke="hsl(0.0,100%,35%)" stroke-width="0.00022"></path>
<path d="M0.677 0.292 Q0.508 0.212 0.314 0.276" stroke="hsl(0.0,100%,35%)" stroke-width="0.00043"></path>
<path d="M0.677 0.292 Q0.598 0.264 0.525 0.296" stroke="hsl(0.0,100%,35%)" stroke-width="0.00022"></path>
<path d="M0.677 0.292 Q0.400 0.766 1.264 1.005" stroke="hsl(0.0,100%,35%)" stroke-width="0.00022"></path>
<path d="M0.525 0.296 Q0.360 0.319 0.369 0.405" stroke="hsl(0.0,100%,35%)" stroke-width="0.00216"></path>
<path d="M0.525 0.296 Q0.937 0.775 1.962 0.680" stroke="hsl(0.0,100%,35%)" stroke-width="0.00022"></path>
<path d="M0.525 0.296 Q0.327 0.798 1.264 1.005" stroke="hsl(0.0,100%,35%)" stroke-width="0.00043"></path>
<path d="M0.525 0.296 Q0.435 0.244 0.314 0.276" stroke="hsl(0.0,100%,35%)" stroke-width="0.00302"></path>
<path d="M0.525 0.296 Q0.418 0.301 0.405 0.354" stroke="hsl(0.0,100%,35%)" stroke-width="0.00065"></path>
<path d="M0.525 0.296 Q0.847 0.465 1.248 0.345" stroke="hsl(0.0,100%,35%)" stroke-width="0.00022"></path>
<path d="M0.525 0.296 Q0.952 0.419 1.285 0.238" stroke="hsl(0.0,100%,35%)" stroke-width="0.00022"></path>
<path d="M1.285 0.238 Q1.395 0.241 1.426 0.189" stroke="hsl(180.0,100%,35%)" stroke-width="0.00539"></path>
<path d="M1.285 0.238 Q1.160 0.183 1.025 0.232" stroke="hsl(180.0,100%,35%)" stroke-width="0.00129"></path>
<path d="M1.285 0.238 Q0.769 0.063 0.314 0.276" stroke="hsl(180.0,100%,35%)" stroke-width="0.00173"></path>
<path d="M1.285 0.238 Q1.456 0.347 1.707 0.288" stroke="hsl(180.0,100%,35%)" stroke-width="0.00259"></path>
<path d="M1.285 0.238 Q1.181 0.284 1.248 0.345" stroke="hsl(180.0,100%,35%)" stroke-width="0.00022"></path>
<path d="M1.285 0.238 Q1.078 0.244 1.044 0.346" stroke="hsl(180.0,100%,35%)" stroke-width="0.00043"></path>
<path d="M1.285 0.238 Q0.859 0.115 0.525 0.296" stroke="hsl(180.0,100%,35%)" stroke-width="0.00022"></path>
<path d="M1.285 0.238 Q0.661 0.617 1.264 1.005" stroke="hsl(180.0,100%,35%)" stroke-width="0.00065"></path>
<path d="M1.781 0.794 Q1.462 0.242 0.314 0.276" stroke="hsl(0.0,100%,35%)" stroke-width="0.00539"></path>
<path d="M1.781 0.794 Q2.088 0.420 1.426 0.189" stroke="hsl(0.0,100%,35%)" stroke-width="0.00367"></path>
<path d="M1.781 0.794 Q1.853 0.362 1.025 0.232" stroke="hsl(0.0,100%,35%)" stroke-width="0.00129"></path>
<path d="M1.781 0.794 Q1.445 0.299 0.405 0.354" stroke="hsl(0.0,100%,35%)" stroke-width="0.00043"></path>
<path d="M1.781 0.794 Q1.552 0.294 0.525 0.296" stroke="hsl(0.0,100%,35%)" stroke-width="0.00022"></path>
<path d="M1.781 0.794 Q1.963 0.773 1.962 0.680" stroke="hsl(0.0,100%,35%)" stroke-width="0.00022"></path>
<path d="M1.781 0.794 Q1.336 0.266 0.207 0.367" stroke="hsl(0.0,100%,35%)" stroke-width="0.00043"></path>
<path d="M1.781 0.794 Q1.354 0.796 1.264 1.005" stroke="hsl(0.0,100%,35%)" stroke-width="0.00022"></path>
<path d="M1.781 0.794 Q1.386 0.317 0.369 0.405" stroke="hsl(0.0,100%,35%)" stroke-width="0.00022"></path>
<path d="M1.346 0.869 Q1.930 0.545 1.426 0.189" stroke="hsl(0.0,100%,35%)" stroke-width="0.00043"></path>
<path d="M1.346 0.869 Q1.229 0.442 0.369 0.405" stroke="hsl(0.0,100%,35%)" stroke-width="0.00129"></path>
<path d="M1.346 0.869 Q1.197 0.920 1.264 1.005" stroke="hsl(0.0,100%,35%)" stroke-width="0.00518"></path>
<path d="M1.346 0.869 Q1.304 0.366 0.314 0.276" stroke="hsl(0.0,100%,35%)" stroke-width="0.00151"></path>
<path d="M1.346 0.869 Q1.287 0.424 0.405 0.354" stroke="hsl(0.0,100%,35%)" stroke-width="0.00065"></path>
<path d="M1.816 0.911 Q1.465 0.847 1.264 1.005" stroke="hsl(0.0,100%,35%)" stroke-width="0.00583"></path>
<path d="M1.816 0.911 Q1.572 0.293 0.314 0.276" stroke="hsl(0.0,100%,35%)" stroke-width="0.00259"></path>
<path d="M1.816 0.911 Q1.740 0.883 1.669 0.914" stroke="hsl(0.0,100%,35%)" stroke-width="0.00065"></path>
<path d="M1.643 0.398 Q0.968 0.625 1.264 1.005" stroke="hsl(180.0,100%,35%)" stroke-width="0.00151"></path>
<path d="M1.643 0.398 Q1.075 0.071 0.314 0.276" stroke="hsl(180.0,100%,35%)" stroke-width="0.00173"></path>
<path d="M1.643 0.398 Q1.702 0.250 1.426 0.189" stroke="hsl(180.0,100%,35%)" stroke-width="0.00216"></path>
<path d="M1.643 0.398 Q1.763 0.356 1.707 0.288" stroke="hsl(180.0,100%,35%)" stroke-width="0.00022"></path>
<path d="M0.502 0.094 Q0.262 0.148 0.314 0.276" stroke="hsl(0.0,100%,35%)" stroke-width="0.00949"></path>
<path d="M0.502 0.094 Q0.154 0.702 1.264 1.005" stroke="hsl(0.0,100%,35%)" stroke-width="0.00496"></path>
<path d="M0.502 0.094 Q0.888 0.326 1.426 0.189" stroke="hsl(0.0,100%,35%)" stroke-width="0.00022"></path>
<path d="M0.502 0.094 Q0.245 0.205 0.405 0.354" stroke="hsl(0.0,100%,35%)" stroke-width="0.00129"></path>
<path d="M0.502 0.094 Q0.108 0.620 1.049 0.928" stroke="hsl(0.0,100%,35%)" stroke-width="0.00022"></path>
<path d="M0.502 0.094 Q0.976 0.260 1.403 0.065" stroke="hsl(0.0,100%,35%)" stroke-width="0.00022"></path>
<path d="M1.636 0.754 Q1.357 0.251 0.314 0.276" stroke="hsl(0.0,100%,35%)" stroke-width="0.00432"></path>
<path d="M1.636 0.754 Q1.250 0.805 1.264 1.005" stroke="hsl(0.0,100%,35%)" stroke-width="0.00259"></path>
<path d="M1.636 0.754 Q1.597 0.197 0.502 0.094" stroke="hsl(0.0,100%,35%)" stroke-width="0.00022"></path>
<path d="M1.636 0.754 Q2.045 0.535 1.707 0.288" stroke="hsl(0.0,100%,35%)" stroke-width="0.00173"></path>
<path d="M1.636 0.754 Q1.984 0.429 1.426 0.189" stroke="hsl(0.0,100%,35%)" stroke-width="0.00022"></path>
<path d="M1.636 0.754 Q1.748 0.371 1.025 0.232" stroke="hsl(0.0,100%,35%)" stroke-width="0.00086"></path>
<path d="M1.294 0.736 Q1.064 0.864 1.264 1.005" stroke="hsl(0.0,100%,35%)" stroke-width="0.00086"></path>
<path d="M1.294 0.736 Q1.172 0.310 0.314 0.276" stroke="hsl(0.0,100%,35%)" stroke-width="0.00108"></path>
<path d="M1.294 0.736 Q1.076 0.280 0.138 0.286" stroke="hsl(0.0,100%,35%)" stroke-width="0.00022"></path>
<path d="M1.332 0.894 Q1.943 0.560 1.426 0.189" stroke="hsl(0.0,100%,35%)" stroke-width="0.00022"></path>
<path d="M1.332 0.894 Q1.317 0.382 0.314 0.276" stroke="hsl(0.0,100%,35%)" stroke-width="0.00022"></path>
<path d="M1.332 0.894 Q1.209 0.936 1.264 1.005" stroke="hsl(0.0,100%,35%)" stroke-width="0.00022"></path>
<path d="M0.207 0.367 Q0.652 0.895 1.781 0.794" stroke="hsl(0.0,100%,35%)" stroke-width="0.00194"></path>
<path d="M0.207 0.367 Q0.333 0.343 0.314 0.276" stroke="hsl(0.0,100%,35%)" stroke-width="0.00410"></path>
<path d="M0.207 0.367 Q0.423 0.395 0.525 0.296" stroke="hsl(0.0,100%,35%)" stroke-width="0.00086"></path>
<path d="M0.207 0.367 Q0.959 0.521 1.426 0.189" stroke="hsl(0.0,100%,35%)" stroke-width="0.00129"></path>
<path d="M0.207 0.367 Q0.316 0.400 0.405 0.354" stroke="hsl(0.0,100%,35%)" stroke-width="0.00129"></path>
<path d="M0.207 0.367 Q0.225 0.897 1.264 1.005" stroke="hsl(0.0,100%,35%)" stroke-width="0.00065"></path>
<path d="M0.207 0.367 Q0.745 0.564 1.248 0.345" stroke="hsl(0.0,100%,35%)" stroke-width="0.00043"></path>
<path d="M0.207 0.367 Q0.258 0.418 0.369 0.405" stroke="hsl(0.0,100%,35%)" stroke-width="0.00022"></path>
<path d="M1.417 0.748 Q1.869 0.470 1.426 0.189" stroke="hsl(0.0,100%,35%)" stroke-width="0.00022"></path>
<path d="M1.417 0.748 Q1.135 0.846 1.264 1.005" stroke="hsl(0.0,100%,35%)" stroke-width="0.00022"></path>
<path d="M1.417 0.748 Q1.243 0.292 0.314 0.276" stroke="hsl(0.0,100%,35%)" stroke-width="0.00022"></path>
<path d="M1.049 0.928 Q1.095 1.009 1.264 1.005" stroke="hsl(0.0,100%,35%)" stroke-width="0.02870"></path>
<path d="M1.049 0.928 Q1.202 0.455 0.314 0.276" stroke="hsl(0.0,100%,35%)" stroke-width="0.02481"></path>
<path d="M1.049 0.928 Q1.829 0.634 1.426 0.189" stroke="hsl(0.0,100%,35%)" stroke-width="0.00518"></path>
<path d="M1.049 0.928 Q1.186 0.512 0.405 0.354" stroke="hsl(0.0,100%,35%)" stroke-width="0.00043"></path>
<path d="M1.049 0.928 Q1.890 0.740 1.707 0.288" stroke="hsl(0.0,100%,35%)" stroke-width="0.00108"></path>
<path d="M1.049 0.928 Q1.293 0.507 0.525 0.296" stroke="hsl(0.0,100%,35%)" stroke-width="0.00043"></path>
<path d="M1.049 0.928 Q1.916 0.568 1.403 0.065" stroke="hsl(0.0,100%,35%)" stroke-width="0.00065"></path>
<path d="M1.049 0.928 Q1.719 0.630 1.285 0.238" stroke="hsl(0.0,100%,35%)" stroke-width="0.00108"></path>
<path d="M1.049 0.928 Q1.442 0.402 0.502 0.094" stroke="hsl(0.0,100%,35%)" stroke-width="0.00086"></path>
<path d="M1.049 0.928 Q1.317 0.859 1.242 0.713" stroke="hsl(0.0,100%,35%)" stroke-width="0.00022"></path>
<path d="M1.049 0.928 Q1.593 0.575 1.025 0.232" stroke="hsl(0.0,100%,35%)" stroke-width="0.00022"></path>
<path d="M1.049 0.928 Q1.008 0.917 0.978 0.934" stroke="hsl(0.0,100%,35%)" stroke-width="0.00022"></path>
<path d="M1.049 0.928 Q1.127 0.530 0.369 0.405" stroke="hsl(0.0,100%,35%)" stroke-width="0.00043"></path>
<path d="M1.070 0.794 Q0.999 0.938 1.264 1.005" stroke="hsl(0.0,100%,35%)" stroke-width="0.00539"></path>
<path d="M1.070 0.794 Q1.106 0.384 0.314 0.276" stroke="hsl(0.0,100%,35%)" stroke-width="0.00669"></path>
<path d="M1.070 0.794 Q1.346 0.331 0.502 0.094" stroke="hsl(0.0,100%,35%)" stroke-width="0.00496"></path>
<path d="M0.138 0.286 Q0.234 0.316 0.314 0.276" stroke="hsl(0.0,100%,35%)" stroke-width="0.00302"></path>
<path d="M0.138 0.286 Q0.474 0.263 0.502 0.094" stroke="hsl(0.0,100%,35%)" stroke-width="0.00043"></path>
<path d="M0.138 0.286 Q0.126 0.870 1.264 1.005" stroke="hsl(0.0,100%,35%)" stroke-width="0.00022"></path>
<path d="M0.156 0.376 Q0.314 0.358 0.314 0.276" stroke="hsl(0.0,100%,35%)" stroke-width="0.00086"></path>
<path d="M0.156 0.376 Q0.207 0.912 1.264 1.005" stroke="hsl(0.0,100%,35%)" stroke-width="0.00043"></path>
<path d="M0.156 0.376 Q0.032 0.419 0.089 0.488" stroke="hsl(0.0,100%,35%)" stroke-width="0.00022"></path>
<path d="M0.621 0.225 Q0.409 0.246 0.405 0.354" stroke="hsl(0.0,100%,35%)" stroke-width="0.00022"></path>
<path d="M0.621 0.225 Q0.838 0.410 1.248 0.345" stroke="hsl(0.0,100%,35%)" stroke-width="0.00022"></path>
<path d="M0.621 0.225 Q0.426 0.189 0.314 0.276" stroke="hsl(0.0,100%,35%)" stroke-width="0.00022"></path>
<path d="M0.305 0.589 Q0.452 0.988 1.264 1.005" stroke="hsl(0.0,100%,35%)" stroke-width="0.00345"></path>
<path d="M0.305 0.589 Q0.484 0.509 0.369 0.405" stroke="hsl(0.0,100%,35%)" stroke-width="0.00043"></path>
<path d="M0.305 0.589 Q0.405 0.907 1.049 0.928" stroke="hsl(0.0,100%,35%)" stroke-width="0.00043"></path>
<path d="M0.305 0.589 Q0.559 0.434 0.314 0.276" stroke="hsl(0.0,100%,35%)" stroke-width="0.00324"></path>
<path d="M0.305 0.589 Q0.543 0.491 0.405 0.354" stroke="hsl(0.0,100%,35%)" stroke-width="0.00022"></path>
<path d="M0.305 0.589 Q1.186 0.613 1.426 0.189" stroke="hsl(0.0,100%,35%)" stroke-width="0.00022"></path>
<path d="M0.422 0.164 Q0.278 0.199 0.314 0.276" stroke="hsl(0.0,100%,35%)" stroke-width="0.00367"></path>
<path d="M0.422 0.164 Q0.170 0.753 1.264 1.005" stroke="hsl(0.0,100%,35%)" stroke-width="0.00259"></path>
<path d="M0.422 0.164 Q0.183 0.168 0.138 0.286" stroke="hsl(0.0,100%,35%)" stroke-width="0.00043"></path>
<path d="M1.187 -0.420 Q0.820 -0.068 1.426 0.189" stroke="hsl(180.0,100%,35%)" stroke-width="0.00151"></path>
<path d="M1.187 -0.420 Q0.606 -0.026 1.248 0.345" stroke="hsl(180.0,100%,35%)" stroke-width="0.00022"></path>
<path d="M1.187 -0.420 Q0.881 0.038 1.707 0.288" stroke="hsl(180.0,100%,35%)" stroke-width="0.00022"></path>
<path d="M1.187 -0.420 Q0.907 -0.134 1.403 0.065" stroke="hsl(180.0,100%,35%)" stroke-width="0.00022"></path>
<path d="M1.187 -0.420 Q0.193 -0.247 0.314 0.276" stroke="hsl(180.0,100%,35%)" stroke-width="0.00022"></path>
<path d="M0.825 0.758 Q0.847 0.969 1.264 1.005" stroke="hsl(0.0,100%,35%)" stroke-width="0.00022"></path>
<path d="M0.825 0.758 Q0.955 0.415 0.314 0.276" stroke="hsl(0.0,100%,35%)" stroke-width="0.00022"></path>
<path d="M0.825 0.758 Q0.801 0.888 1.049 0.928" stroke="hsl(0.0,100%,35%)" stroke-width="0.00022"></path>
<path d="M1.242 0.713 Q1.128 0.309 0.314 0.276" stroke="hsl(0.0,100%,35%)" stroke-width="0.00151"></path>
<path d="M1.242 0.713 Q0.974 0.782 1.049 0.928" stroke="hsl(0.0,100%,35%)" stroke-width="0.00022"></path>
<path d="M1.242 0.713 Q1.020 0.863 1.264 1.005" stroke="hsl(0.0,100%,35%)" stroke-width="0.00129"></path>
<path d="M1.242 0.713 Q1.841 0.422 1.403 0.065" stroke="hsl(0.0,100%,35%)" stroke-width="0.00022"></path>
<path d="M1.242 0.713 Q1.111 0.366 0.405 0.354" stroke="hsl(0.0,100%,35%)" stroke-width="0.00022"></path>
<path d="M1.242 0.713 Q1.815 0.594 1.707 0.288" stroke="hsl(0.0,100%,35%)" stroke-width="0.00043"></path>
<path d="M1.242 0.713 Q1.540 0.530 1.248 0.345" stroke="hsl(0.0,100%,35%)" stroke-width="0.00022"></path>
<path d="M1.242 0.713 Q1.437 0.490 1.044 0.346" stroke="hsl(0.0,100%,35%)" stroke-width="0.00022"></path>
<path d="M1.536 0.827 Q1.258 0.861 1.264 1.005" stroke="hsl(0.0,100%,35%)" stroke-width="0.00259"></path>
<path d="M1.536 0.827 Q1.646 0.682 1.387 0.597" stroke="hsl(0.0,100%,35%)" stroke-width="0.00086"></path>
<path d="M1.536 0.827 Q1.992 0.486 1.426 0.189" stroke="hsl(0.0,100%,35%)" stroke-width="0.00022"></path>
<path d="M1.536 0.827 Q1.617 0.754 1.493 0.698" stroke="hsl(0.0,100%,35%)" stroke-width="0.00022"></path>
<path d="M1.536 0.827 Q1.625 0.637 1.274 0.552" stroke="hsl(0.0,100%,35%)" stroke-width="0.00022"></path>
<path d="M1.536 0.827 Q1.454 0.650 1.090 0.651" stroke="hsl(0.0,100%,35%)" stroke-width="0.00022"></path>
<path d="M1.536 0.827 Q1.365 0.307 0.314 0.276" stroke="hsl(0.0,100%,35%)" stroke-width="0.00022"></path>
<path d="M1.536 0.827 Q1.756 0.427 1.025 0.232" stroke="hsl(0.0,100%,35%)" stroke-width="0.00065"></path>
<path d="M1.963 0.207 Q1.709 0.090 1.426 0.189" stroke="hsl(0.0,100%,35%)" stroke-width="0.00022"></path>
<path d="M1.963 0.207 Q1.082 -0.088 0.314 0.276" stroke="hsl(0.0,100%,35%)" stroke-width="0.00065"></path>
<path d="M1.963 0.207 Q1.770 0.196 1.707 0.288" stroke="hsl(0.0,100%,35%)" stroke-width="0.00065"></path>
<path d="M1.585 0.896 Q1.445 0.332 0.314 0.276" stroke="hsl(0.0,100%,35%)" stroke-width="0.00108"></path>
<path d="M1.585 0.896 Q1.429 0.389 0.405 0.354" stroke="hsl(0.0,100%,35%)" stroke-width="0.00086"></path>
<path d="M1.585 0.896 Q2.072 0.510 1.426 0.189" stroke="hsl(0.0,100%,35%)" stroke-width="0.00065"></path>
<path d="M1.585 0.896 Q1.858 0.553 1.248 0.345" stroke="hsl(0.0,100%,35%)" stroke-width="0.00022"></path>
<path d="M1.585 0.896 Q1.338 0.886 1.264 1.005" stroke="hsl(0.0,100%,35%)" stroke-width="0.00151"></path>
<path d="M1.460 0.857 Q1.244 0.891 1.264 1.005" stroke="hsl(0.0,100%,35%)" stroke-width="0.00065"></path>
<path d="M1.460 0.857 Q1.351 0.337 0.314 0.276" stroke="hsl(0.0,100%,35%)" stroke-width="0.00065"></path>
<path d="M1.460 0.857 Q1.630 0.841 1.636 0.754" stroke="hsl(0.0,100%,35%)" stroke-width="0.00022"></path>
</g>
<text x="1.454" y="0.842" font-size="0.006245" fill="hsl(0.0,100%,20%)">albin.bernhardsson</text>
<text x="1.264" y="0.970" font-size="0.068530" fill="hsl(0.0,100%,20%)">cwallez</text>
<text x="0.314" y="0.238" font-size="0.076846" fill="hsl(0.0,100%,20%)">enga</text>
<text x="1.025" y="0.201" font-size="0.062448" fill="hsl(180.0,100%,20%)">dsinclair</text>
<text x="1.248" y="0.327" font-size="0.036566" fill="hsl(180.0,100%,20%)">amaiorano</text>
<text x="1.426" y="0.144" font-size="0.089006" fill="hsl(180.0,100%,20%)">bclayton</text>
<text x="0.595" y="0.402" font-size="0.011071" fill="hsl(0.0,100%,20%)">ynovikov</text>
<text x="1.707" y="0.254" font-size="0.067009" fill="hsl(180.0,100%,20%)">jrprice</text>
<text x="0.369" y="0.390" font-size="0.029291" fill="hsl(0.0,100%,20%)">kainino</text>
<text x="1.403" y="0.055" font-size="0.021111" fill="hsl(180.0,100%,20%)">rharrison</text>
<text x="0.189" y="0.067" font-size="0.019029" fill="hsl(0.0,100%,20%)">bsheedy</text>
<text x="1.552" y="0.872" font-size="0.015478" fill="hsl(0.0,100%,20%)">arthursonzogni</text>
<text x="1.253" y="0.820" font-size="0.002360" fill="hsl(0.0,100%,20%)">khaslett</text>
<text x="1.326" y="0.815" font-size="0.007464" fill="hsl(0.0,100%,20%)">austineng</text>
<text x="0.405" y="0.332" font-size="0.045463" fill="hsl(0.0,100%,20%)">lokokung</text>
<text x="1.962" y="0.668" font-size="0.024301" fill="hsl(0.0,100%,20%)">shrekshao</text>
<text x="0.677" y="0.290" font-size="0.004721" fill="hsl(0.0,100%,20%)">avi</text>
<text x="0.525" y="0.286" font-size="0.018882" fill="hsl(0.0,100%,20%)">bajones</text>
<text x="1.285" y="0.225" font-size="0.025963" fill="hsl(180.0,100%,20%)">dneto</text>
<text x="1.662" y="-0.016" font-size="0.002360" fill="hsl(180.0,100%,20%)">brucedawson</text>
<text x="1.781" y="0.782" font-size="0.024186" fill="hsl(0.0,100%,20%)">senorblanco</text>
<text x="1.225" y="0.518" font-size="0.002360" fill="hsl(180.0,100%,20%)">kjlubick</text>
<text x="1.346" y="0.861" font-size="0.015478" fill="hsl(0.0,100%,20%)">beaufort.francois</text>
<text x="1.816" y="0.903" font-size="0.015478" fill="hsl(0.0,100%,20%)">blundell</text>
<text x="1.669" y="0.912" font-size="0.004088" fill="hsl(0.0,100%,20%)">nicolettep</text>
<text x="1.643" y="0.392" font-size="0.012035" fill="hsl(180.0,100%,20%)">brandon1.jones</text>
<text x="0.502" y="0.082" font-size="0.024867" fill="hsl(0.0,100%,20%)">penghuang</text>
<text x="1.310" y="0.930" font-size="0.002360" fill="hsl(0.0,100%,20%)">fhorschig</text>
<text x="1.092" y="0.658" font-size="0.002360" fill="hsl(0.0,100%,20%)">jamesgk</text>
<text x="1.636" y="0.746" font-size="0.017183" fill="hsl(0.0,100%,20%)">lehoangquyen</text>
<text x="1.123" y="0.744" font-size="0.003338" fill="hsl(0.0,100%,20%)">fbeaufort</text>
<text x="1.198" y="0.690" font-size="0.002360" fill="hsl(0.0,100%,20%)">yunchao.he</text>
<text x="1.294" y="0.732" font-size="0.008176" fill="hsl(0.0,100%,20%)">shaobo.yan</text>
<text x="1.332" y="0.892" font-size="0.004088" fill="hsl(0.0,100%,20%)">danakj</text>
<text x="1.044" y="0.344" font-size="0.004721" fill="hsl(180.0,100%,20%)">alanbaker</text>
<text x="0.742" y="0.272" font-size="0.002360" fill="hsl(180.0,100%,20%)">yiwzhang</text>
<text x="0.207" y="0.358" font-size="0.017976" fill="hsl(0.0,100%,20%)">gman</text>
<text x="1.417" y="0.746" font-size="0.004088" fill="hsl(0.0,100%,20%)">emelucci</text>
<text x="1.049" y="0.907" font-size="0.041221" fill="hsl(0.0,100%,20%)">jiawei.shao</text>
<text x="1.070" y="0.784" font-size="0.021243" fill="hsl(0.0,100%,20%)">jie.a.chen</text>
<text x="0.138" y="0.280" font-size="0.010816" fill="hsl(0.0,100%,20%)">sunnyps</text>
<text x="0.156" y="0.373" font-size="0.006245" fill="hsl(0.0,100%,20%)">geofflang</text>
<text x="0.089" y="0.487" font-size="0.002360" fill="hsl(0.0,100%,20%)">fmalita</text>
<text x="0.621" y="0.223" font-size="0.004088" fill="hsl(0.0,100%,20%)">hans</text>
<text x="0.305" y="0.581" font-size="0.014357" fill="hsl(0.0,100%,20%)">hao.x.li</text>
<text x="0.422" y="0.158" font-size="0.013142" fill="hsl(0.0,100%,20%)">hitawala</text>
<text x="1.187" y="-0.424" font-size="0.007828" fill="hsl(180.0,100%,20%)">jason.erb</text>
<text x="0.825" y="0.756" font-size="0.004088" fill="hsl(0.0,100%,20%)">jianlin.qiu</text>
<text x="1.242" y="0.708" font-size="0.010816" fill="hsl(0.0,100%,20%)">zhaoming.jiang</text>
<text x="0.978" y="0.933" font-size="0.002360" fill="hsl(0.0,100%,20%)">rafael.cintron</text>
<text x="1.536" y="0.821" font-size="0.011563" fill="hsl(0.0,100%,20%)">jimblackler</text>
<text x="1.387" y="0.594" font-size="0.004721" fill="hsl(0.0,100%,20%)">nexa</text>
<text x="1.493" y="0.697" font-size="0.002360" fill="hsl(0.0,100%,20%)">artyompp</text>
<text x="1.274" y="0.551" font-size="0.002360" fill="hsl(0.0,100%,20%)">vantablack</text>
<text x="1.090" y="0.649" font-size="0.002360" fill="hsl(0.0,100%,20%)">bentonian</text>
<text x="1.963" y="0.203" font-size="0.006245" fill="hsl(0.0,100%,20%)">jojwang</text>
<text x="1.897" y="-0.211" font-size="0.002360" fill="hsl(180.0,100%,20%)">chouinard</text>
<text x="0.611" y="0.437" font-size="0.002360" fill="hsl(0.0,100%,20%)">kbr</text>
<text x="1.585" y="0.891" font-size="0.010556" fill="hsl(0.0,100%,20%)">tiszka</text>
<text x="1.460" y="0.854" font-size="0.006245" fill="hsl(0.0,100%,20%)">vollick</text>
</svg>
