<svg width="4000" height="2000" viewBox="-0.025 -0.025 2.05 1.05" xmlns="http://www.w3.org/2000/svg">
  <style>
    path {
      fill: none;
      stroke-linecap: round;
      stroke-opacity: 0.4;
    }

    text {
      text-anchor: middle;
      alignment-baseline: hanging;
    }
  </style>
  <g opacity="0.4">
<path d="M1.811 0.676 Q1.992 0.424 1.540 0.281" stroke="hsl(0.0,100%,35%)" stroke-width="0.00279"></path>
<path d="M1.811 0.676 Q1.974 0.548 1.761 0.440" stroke="hsl(0.0,100%,35%)" stroke-width="0.00105"></path>
<path d="M1.811 0.676 Q1.140 0.522 0.692 0.815" stroke="hsl(0.0,100%,35%)" stroke-width="0.00035"></path>
<path d="M1.811 0.676 Q2.084 0.529 1.858 0.364" stroke="hsl(0.0,100%,35%)" stroke-width="0.00035"></path>
<path d="M1.540 0.281 Q1.523 0.404 1.761 0.440" stroke="hsl(0.0,100%,35%)" stroke-width="0.04355"></path>
<path d="M1.540 0.281 Q0.689 0.378 0.692 0.815" stroke="hsl(0.0,100%,35%)" stroke-width="0.00314"></path>
<path d="M1.540 0.281 Q1.291 0.440 1.547 0.596" stroke="hsl(0.0,100%,35%)" stroke-width="0.00139"></path>
<path d="M1.540 0.281 Q1.633 0.386 1.858 0.364" stroke="hsl(0.0,100%,35%)" stroke-width="0.00592"></path>
<path d="M1.540 0.281 Q1.252 0.600 1.812 0.811" stroke="hsl(0.0,100%,35%)" stroke-width="0.00453"></path>
<path d="M1.540 0.281 Q1.349 0.398 1.536 0.517" stroke="hsl(0.0,100%,35%)" stroke-width="0.00244"></path>
<path d="M1.540 0.281 Q1.038 0.417 1.194 0.692" stroke="hsl(0.0,100%,35%)" stroke-width="0.00035"></path>
<path d="M1.540 0.281 Q1.169 0.381 1.283 0.585" stroke="hsl(0.0,100%,35%)" stroke-width="0.00105"></path>
<path d="M1.761 0.440 Q1.778 0.316 1.540 0.281" stroke="hsl(0.0,100%,35%)" stroke-width="0.09650"></path>
<path d="M1.761 0.440 Q1.201 0.373 0.946 0.631" stroke="hsl(0.0,100%,35%)" stroke-width="0.00035"></path>
<path d="M1.761 0.440 Q1.936 0.193 1.493 0.053" stroke="hsl(0.0,100%,35%)" stroke-width="0.00035"></path>
<path d="M1.761 0.440 Q1.276 0.453 1.194 0.692" stroke="hsl(0.0,100%,35%)" stroke-width="0.00174"></path>
<path d="M1.761 0.440 Q1.406 0.417 1.283 0.585" stroke="hsl(0.0,100%,35%)" stroke-width="0.00139"></path>
<path d="M1.761 0.440 Q1.529 0.475 1.547 0.596" stroke="hsl(0.0,100%,35%)" stroke-width="0.00209"></path>
<path d="M1.761 0.440 Q0.926 0.414 0.692 0.815" stroke="hsl(0.0,100%,35%)" stroke-width="0.00523"></path>
<path d="M1.761 0.440 Q1.473 0.337 1.208 0.454" stroke="hsl(0.0,100%,35%)" stroke-width="0.00070"></path>
<path d="M1.761 0.440 Q1.870 0.422 1.858 0.364" stroke="hsl(0.0,100%,35%)" stroke-width="0.00209"></path>
<path d="M1.761 0.440 Q1.586 0.434 1.536 0.517" stroke="hsl(0.0,100%,35%)" stroke-width="0.00035"></path>
<path d="M1.761 0.440 Q1.490 0.636 1.812 0.811" stroke="hsl(0.0,100%,35%)" stroke-width="0.01184"></path>
<path d="M0.692 0.815 Q1.366 0.680 1.251 0.322" stroke="hsl(180.0,100%,35%)" stroke-width="0.00035"></path>
<path d="M0.692 0.815 Q0.799 0.924 1.036 0.896" stroke="hsl(180.0,100%,35%)" stroke-width="0.00836"></path>
<path d="M0.692 0.815 Q1.544 0.718 1.540 0.281" stroke="hsl(180.0,100%,35%)" stroke-width="0.00766"></path>
<path d="M0.692 0.815 Q0.966 0.774 0.946 0.631" stroke="hsl(180.0,100%,35%)" stroke-width="0.00070"></path>
<path d="M0.692 0.815 Q1.526 0.841 1.761 0.440" stroke="hsl(180.0,100%,35%)" stroke-width="0.00697"></path>
<path d="M0.692 0.815 Q1.702 0.594 1.493 0.053" stroke="hsl(180.0,100%,35%)" stroke-width="0.00070"></path>
<path d="M0.692 0.815 Q1.192 0.627 0.935 0.342" stroke="hsl(180.0,100%,35%)" stroke-width="0.00035"></path>
<path d="M0.692 0.815 Q1.172 0.818 1.283 0.585" stroke="hsl(180.0,100%,35%)" stroke-width="0.00801"></path>
<path d="M0.692 0.815 Q1.041 0.854 1.194 0.692" stroke="hsl(180.0,100%,35%)" stroke-width="0.00244"></path>
<path d="M0.692 0.815 Q1.238 0.738 1.208 0.454" stroke="hsl(180.0,100%,35%)" stroke-width="0.00209"></path>
<path d="M0.692 0.815 Q0.854 0.844 0.946 0.772" stroke="hsl(180.0,100%,35%)" stroke-width="0.00209"></path>
<path d="M0.692 0.815 Q0.592 0.858 0.655 0.916" stroke="hsl(180.0,100%,35%)" stroke-width="0.00035"></path>
<path d="M0.692 0.815 Q1.636 0.823 1.858 0.364" stroke="hsl(180.0,100%,35%)" stroke-width="0.00070"></path>
<path d="M0.692 0.815 Q0.879 0.702 0.699 0.586" stroke="hsl(180.0,100%,35%)" stroke-width="0.00035"></path>
<path d="M0.692 0.815 Q1.352 0.835 1.536 0.517" stroke="hsl(180.0,100%,35%)" stroke-width="0.00035"></path>
<path d="M0.692 0.815 Q0.421 0.722 0.179 0.833" stroke="hsl(180.0,100%,35%)" stroke-width="0.00174"></path>
<path d="M1.858 0.364 Q1.749 0.383 1.761 0.440" stroke="hsl(0.0,100%,35%)" stroke-width="0.02473"></path>
<path d="M1.858 0.364 Q1.766 0.259 1.540 0.281" stroke="hsl(0.0,100%,35%)" stroke-width="0.01707"></path>
<path d="M1.858 0.364 Q1.478 0.578 1.812 0.811" stroke="hsl(0.0,100%,35%)" stroke-width="0.00035"></path>
<path d="M1.858 0.364 Q0.914 0.356 0.692 0.815" stroke="hsl(0.0,100%,35%)" stroke-width="0.00035"></path>
<path d="M1.858 0.364 Q1.574 0.376 1.536 0.517" stroke="hsl(0.0,100%,35%)" stroke-width="0.00383"></path>
<path d="M1.858 0.364 Q1.394 0.359 1.283 0.585" stroke="hsl(0.0,100%,35%)" stroke-width="0.00105"></path>
<path d="M1.858 0.364 Q1.461 0.279 1.208 0.454" stroke="hsl(0.0,100%,35%)" stroke-width="0.00035"></path>
<path d="M1.858 0.364 Q2.012 0.190 1.706 0.077" stroke="hsl(0.0,100%,35%)" stroke-width="0.00488"></path>
<path d="M0.416 0.622 Q0.400 0.774 0.692 0.815" stroke="hsl(180.0,100%,35%)" stroke-width="0.00070"></path>
<path d="M0.416 0.622 Q1.234 0.800 1.761 0.440" stroke="hsl(180.0,100%,35%)" stroke-width="0.00035"></path>
<path d="M0.416 0.622 Q0.880 0.777 1.283 0.585" stroke="hsl(180.0,100%,35%)" stroke-width="0.00035"></path>
<path d="M1.283 0.585 Q1.350 0.505 1.208 0.454" stroke="hsl(180.0,100%,35%)" stroke-width="0.00174"></path>
<path d="M1.283 0.585 Q0.803 0.582 0.692 0.815" stroke="hsl(180.0,100%,35%)" stroke-width="0.00975"></path>
<path d="M1.283 0.585 Q1.153 0.620 1.194 0.692" stroke="hsl(180.0,100%,35%)" stroke-width="0.02613"></path>
<path d="M1.283 0.585 Q1.367 0.803 1.812 0.811" stroke="hsl(180.0,100%,35%)" stroke-width="0.00105"></path>
<path d="M1.283 0.585 Q1.463 0.601 1.536 0.517" stroke="hsl(180.0,100%,35%)" stroke-width="0.00035"></path>
<path d="M1.283 0.585 Q1.406 0.643 1.547 0.596" stroke="hsl(180.0,100%,35%)" stroke-width="0.00070"></path>
<path d="M1.283 0.585 Q1.229 0.500 1.052 0.507" stroke="hsl(180.0,100%,35%)" stroke-width="0.00035"></path>
<path d="M1.283 0.585 Q1.655 0.484 1.540 0.281" stroke="hsl(180.0,100%,35%)" stroke-width="0.00070"></path>
<path d="M1.283 0.585 Q0.800 0.675 0.870 0.930" stroke="hsl(180.0,100%,35%)" stroke-width="0.00035"></path>
<path d="M1.283 0.585 Q0.911 0.691 1.036 0.896" stroke="hsl(180.0,100%,35%)" stroke-width="0.00035"></path>
<path d="M1.536 0.517 Q1.710 0.524 1.761 0.440" stroke="hsl(0.0,100%,35%)" stroke-width="0.00139"></path>
<path d="M1.536 0.517 Q1.225 0.536 1.194 0.692" stroke="hsl(0.0,100%,35%)" stroke-width="0.00105"></path>
<path d="M1.536 0.517 Q1.727 0.400 1.540 0.281" stroke="hsl(0.0,100%,35%)" stroke-width="0.00592"></path>
<path d="M1.536 0.517 Q0.875 0.497 0.692 0.815" stroke="hsl(0.0,100%,35%)" stroke-width="0.00592"></path>
<path d="M1.536 0.517 Q2.191 0.058 1.438 -0.363" stroke="hsl(0.0,100%,35%)" stroke-width="0.00035"></path>
<path d="M1.536 0.517 Q1.037 0.526 0.946 0.772" stroke="hsl(0.0,100%,35%)" stroke-width="0.00070"></path>
<path d="M1.536 0.517 Q1.819 0.505 1.858 0.364" stroke="hsl(0.0,100%,35%)" stroke-width="0.00035"></path>
<path d="M1.194 0.692 Q1.324 0.656 1.283 0.585" stroke="hsl(180.0,100%,35%)" stroke-width="0.03135"></path>
<path d="M1.194 0.692 Q1.679 0.679 1.761 0.440" stroke="hsl(180.0,100%,35%)" stroke-width="0.00314"></path>
<path d="M1.194 0.692 Q0.844 0.653 0.692 0.815" stroke="hsl(180.0,100%,35%)" stroke-width="0.00348"></path>
<path d="M1.194 0.692 Q1.942 0.487 1.706 0.077" stroke="hsl(180.0,100%,35%)" stroke-width="0.00139"></path>
<path d="M1.194 0.692 Q1.505 0.673 1.536 0.517" stroke="hsl(180.0,100%,35%)" stroke-width="0.00139"></path>
<path d="M1.194 0.692 Q1.391 0.576 1.208 0.454" stroke="hsl(180.0,100%,35%)" stroke-width="0.00070"></path>
<path d="M1.194 0.692 Q0.719 0.611 0.458 0.825" stroke="hsl(180.0,100%,35%)" stroke-width="0.00035"></path>
<path d="M1.194 0.692 Q1.006 0.682 0.946 0.772" stroke="hsl(180.0,100%,35%)" stroke-width="0.00105"></path>
<path d="M1.194 0.692 Q1.447 0.715 1.547 0.596" stroke="hsl(180.0,100%,35%)" stroke-width="0.00070"></path>
<path d="M1.194 0.692 Q1.119 0.612 0.946 0.631" stroke="hsl(180.0,100%,35%)" stroke-width="0.00035"></path>
<path d="M1.194 0.692 Q1.696 0.556 1.540 0.281" stroke="hsl(180.0,100%,35%)" stroke-width="0.00035"></path>
<path d="M1.194 0.692 Q0.745 0.696 0.655 0.916" stroke="hsl(180.0,100%,35%)" stroke-width="0.00035"></path>
<path d="M0.946 0.772 Q0.784 0.743 0.692 0.815" stroke="hsl(180.0,100%,35%)" stroke-width="0.01045"></path>
<path d="M0.946 0.772 Q0.892 0.852 1.036 0.896" stroke="hsl(180.0,100%,35%)" stroke-width="0.00035"></path>
<path d="M0.946 0.772 Q1.264 0.746 1.283 0.585" stroke="hsl(180.0,100%,35%)" stroke-width="0.00766"></path>
<path d="M0.946 0.772 Q1.348 0.964 1.812 0.811" stroke="hsl(180.0,100%,35%)" stroke-width="0.00035"></path>
<path d="M0.946 0.772 Q1.618 0.769 1.761 0.440" stroke="hsl(180.0,100%,35%)" stroke-width="0.00035"></path>
<path d="M0.946 0.772 Q1.636 0.645 1.540 0.281" stroke="hsl(180.0,100%,35%)" stroke-width="0.00139"></path>
<path d="M0.946 0.772 Q1.134 0.781 1.194 0.692" stroke="hsl(180.0,100%,35%)" stroke-width="0.00174"></path>
<path d="M0.946 0.772 Q0.912 0.878 1.111 0.918" stroke="hsl(180.0,100%,35%)" stroke-width="0.00035"></path>
<path d="M0.946 0.772 Q1.059 0.701 0.946 0.631" stroke="hsl(180.0,100%,35%)" stroke-width="0.00070"></path>
<path d="M0.946 0.772 Q0.513 0.649 0.179 0.833" stroke="hsl(180.0,100%,35%)" stroke-width="0.00035"></path>
<path d="M0.946 0.772 Q0.644 0.606 0.255 0.718" stroke="hsl(180.0,100%,35%)" stroke-width="0.00174"></path>
<path d="M1.208 0.454 Q0.769 0.641 1.036 0.896" stroke="hsl(180.0,100%,35%)" stroke-width="0.00139"></path>
<path d="M1.208 0.454 Q1.011 0.570 1.194 0.692" stroke="hsl(180.0,100%,35%)" stroke-width="0.00174"></path>
<path d="M1.208 0.454 Q1.322 0.551 1.536 0.517" stroke="hsl(180.0,100%,35%)" stroke-width="0.00035"></path>
<path d="M1.208 0.454 Q1.141 0.535 1.283 0.585" stroke="hsl(180.0,100%,35%)" stroke-width="0.00418"></path>
<path d="M1.208 0.454 Q0.662 0.532 0.692 0.815" stroke="hsl(180.0,100%,35%)" stroke-width="0.00314"></path>
<path d="M1.208 0.454 Q0.658 0.625 0.870 0.930" stroke="hsl(180.0,100%,35%)" stroke-width="0.00105"></path>
<path d="M1.208 0.454 Q1.496 0.558 1.761 0.440" stroke="hsl(180.0,100%,35%)" stroke-width="0.00105"></path>
<path d="M0.870 0.930 Q1.148 0.796 0.946 0.631" stroke="hsl(180.0,100%,35%)" stroke-width="0.00035"></path>
<path d="M0.870 0.930 Q1.223 0.876 1.194 0.692" stroke="hsl(180.0,100%,35%)" stroke-width="0.00314"></path>
<path d="M0.870 0.930 Q0.602 0.744 0.179 0.833" stroke="hsl(180.0,100%,35%)" stroke-width="0.00035"></path>
<path d="M0.870 0.930 Q0.873 0.837 0.692 0.815" stroke="hsl(180.0,100%,35%)" stroke-width="0.00383"></path>
<path d="M0.870 0.930 Q0.748 0.795 0.458 0.825" stroke="hsl(180.0,100%,35%)" stroke-width="0.00035"></path>
<path d="M0.870 0.930 Q1.353 0.840 1.283 0.585" stroke="hsl(180.0,100%,35%)" stroke-width="0.00279"></path>
<path d="M0.870 0.930 Q1.725 0.740 1.540 0.281" stroke="hsl(180.0,100%,35%)" stroke-width="0.00070"></path>
<path d="M0.870 0.930 Q1.707 0.863 1.761 0.440" stroke="hsl(180.0,100%,35%)" stroke-width="0.00035"></path>
<path d="M1.812 0.811 Q2.083 0.615 1.761 0.440" stroke="hsl(0.0,100%,35%)" stroke-width="0.00348"></path>
<path d="M1.812 0.811 Q1.729 0.592 1.283 0.585" stroke="hsl(0.0,100%,35%)" stroke-width="0.00244"></path>
<path d="M1.812 0.811 Q1.909 0.609 1.536 0.517" stroke="hsl(0.0,100%,35%)" stroke-width="0.00139"></path>
<path d="M1.812 0.811 Q2.192 0.597 1.858 0.364" stroke="hsl(0.0,100%,35%)" stroke-width="0.00139"></path>
<path d="M1.812 0.811 Q1.249 0.589 0.692 0.815" stroke="hsl(0.0,100%,35%)" stroke-width="0.00174"></path>
<path d="M1.812 0.811 Q1.598 0.628 1.194 0.692" stroke="hsl(0.0,100%,35%)" stroke-width="0.00105"></path>
<path d="M1.812 0.811 Q2.100 0.491 1.540 0.281" stroke="hsl(0.0,100%,35%)" stroke-width="0.00732"></path>
<path d="M1.812 0.811 Q1.323 0.491 0.592 0.660" stroke="hsl(0.0,100%,35%)" stroke-width="0.00035"></path>
<path d="M0.946 0.631 Q0.672 0.672 0.692 0.815" stroke="hsl(180.0,100%,35%)" stroke-width="0.00453"></path>
<path d="M0.946 0.631 Q1.332 0.692 1.536 0.517" stroke="hsl(180.0,100%,35%)" stroke-width="0.00070"></path>
<path d="M0.946 0.631 Q1.236 0.894 1.812 0.811" stroke="hsl(180.0,100%,35%)" stroke-width="0.00070"></path>
<path d="M0.946 0.631 Q1.769 0.506 1.706 0.077" stroke="hsl(180.0,100%,35%)" stroke-width="0.00035"></path>
<path d="M0.946 0.631 Q1.152 0.675 1.283 0.585" stroke="hsl(180.0,100%,35%)" stroke-width="0.00035"></path>
<path d="M0.946 0.631 Q1.506 0.698 1.761 0.440" stroke="hsl(180.0,100%,35%)" stroke-width="0.00035"></path>
<path d="M0.179 0.833 Q1.284 0.953 1.761 0.440" stroke="hsl(180.0,100%,35%)" stroke-width="0.00035"></path>
<path d="M0.179 0.833 Q0.450 0.927 0.692 0.815" stroke="hsl(180.0,100%,35%)" stroke-width="0.00070"></path>
<path d="M0.179 0.833 Q0.799 0.966 1.194 0.692" stroke="hsl(180.0,100%,35%)" stroke-width="0.00105"></path>
<path d="M0.179 0.833 Q0.930 0.930 1.283 0.585" stroke="hsl(180.0,100%,35%)" stroke-width="0.00070"></path>
<path d="M0.179 0.833 Q0.724 0.886 0.946 0.631" stroke="hsl(180.0,100%,35%)" stroke-width="0.00070"></path>
<path d="M0.255 0.718 Q0.959 1.076 1.812 0.811" stroke="hsl(180.0,100%,35%)" stroke-width="0.00035"></path>
<path d="M0.255 0.718 Q1.230 0.880 1.761 0.440" stroke="hsl(180.0,100%,35%)" stroke-width="0.00139"></path>
<path d="M0.255 0.718 Q0.395 0.854 0.692 0.815" stroke="hsl(180.0,100%,35%)" stroke-width="0.00662"></path>
<path d="M0.255 0.718 Q0.875 0.857 1.283 0.585" stroke="hsl(180.0,100%,35%)" stroke-width="0.00348"></path>
<path d="M0.255 0.718 Q0.503 0.963 1.036 0.896" stroke="hsl(180.0,100%,35%)" stroke-width="0.00105"></path>
<path d="M0.255 0.718 Q1.247 0.756 1.540 0.281" stroke="hsl(180.0,100%,35%)" stroke-width="0.00035"></path>
<path d="M0.255 0.718 Q0.392 0.947 0.870 0.930" stroke="hsl(180.0,100%,35%)" stroke-width="0.00035"></path>
<path d="M0.255 0.718 Q0.470 0.756 0.592 0.660" stroke="hsl(180.0,100%,35%)" stroke-width="0.00035"></path>
<path d="M0.749 0.985 Q0.935 1.060 1.122 0.986" stroke="hsl(180.0,100%,35%)" stroke-width="0.00035"></path>
<path d="M0.749 0.985 Q1.337 0.892 1.283 0.585" stroke="hsl(180.0,100%,35%)" stroke-width="0.00070"></path>
<path d="M0.749 0.985 Q0.857 0.889 0.692 0.815" stroke="hsl(180.0,100%,35%)" stroke-width="0.00035"></path>
<path d="M0.749 0.985 Q0.859 0.997 0.906 0.946" stroke="hsl(180.0,100%,35%)" stroke-width="0.00070"></path>
<path d="M0.906 0.946 Q0.796 0.934 0.749 0.985" stroke="hsl(180.0,100%,35%)" stroke-width="0.00314"></path>
<path d="M0.906 0.946 Q0.904 0.838 0.692 0.815" stroke="hsl(180.0,100%,35%)" stroke-width="0.00279"></path>
<path d="M0.906 0.946 Q1.384 0.841 1.283 0.585" stroke="hsl(180.0,100%,35%)" stroke-width="0.00557"></path>
<path d="M0.906 0.946 Q0.982 1.009 1.122 0.986" stroke="hsl(180.0,100%,35%)" stroke-width="0.00174"></path>
<path d="M0.906 0.946 Q1.253 0.877 1.194 0.692" stroke="hsl(180.0,100%,35%)" stroke-width="0.00070"></path>
<path d="M0.906 0.946 Q0.825 0.936 0.787 0.972" stroke="hsl(180.0,100%,35%)" stroke-width="0.00035"></path>
<path d="M1.251 0.322 Q1.123 0.379 1.208 0.454" stroke="hsl(180.0,100%,35%)" stroke-width="0.00105"></path>
<path d="M1.251 0.322 Q0.577 0.456 0.692 0.815" stroke="hsl(180.0,100%,35%)" stroke-width="0.00105"></path>
<path d="M1.251 0.322 Q1.237 0.476 1.536 0.517" stroke="hsl(180.0,100%,35%)" stroke-width="0.00035"></path>
<path d="M1.706 0.077 Q1.442 0.269 1.761 0.440" stroke="hsl(0.0,100%,35%)" stroke-width="0.00697"></path>
<path d="M1.706 0.077 Q0.608 0.243 0.692 0.815" stroke="hsl(0.0,100%,35%)" stroke-width="0.00070"></path>
<path d="M1.706 0.077 Q1.460 0.146 1.540 0.281" stroke="hsl(0.0,100%,35%)" stroke-width="0.00105"></path>
<path d="M1.706 0.077 Q0.958 0.282 1.194 0.692" stroke="hsl(0.0,100%,35%)" stroke-width="0.00244"></path>
<path d="M1.706 0.077 Q1.618 0.022 1.493 0.053" stroke="hsl(0.0,100%,35%)" stroke-width="0.00244"></path>
<path d="M1.706 0.077 Q1.268 0.263 1.536 0.517" stroke="hsl(0.0,100%,35%)" stroke-width="0.00035"></path>
<path d="M1.706 0.077 Q1.619 0.109 1.662 0.158" stroke="hsl(0.0,100%,35%)" stroke-width="0.00139"></path>
<path d="M1.706 0.077 Q1.552 0.251 1.858 0.364" stroke="hsl(0.0,100%,35%)" stroke-width="0.00139"></path>
<path d="M1.493 0.053 Q1.335 0.176 1.540 0.281" stroke="hsl(0.0,100%,35%)" stroke-width="0.00105"></path>
<path d="M1.493 0.053 Q0.833 0.313 1.194 0.692" stroke="hsl(0.0,100%,35%)" stroke-width="0.00035"></path>
<path d="M1.493 0.053 Q0.483 0.274 0.692 0.815" stroke="hsl(0.0,100%,35%)" stroke-width="0.00035"></path>
<path d="M1.946 0.563 Q1.952 0.465 1.761 0.440" stroke="hsl(180.0,100%,35%)" stroke-width="0.00070"></path>
<path d="M1.946 0.563 Q1.467 0.477 1.194 0.692" stroke="hsl(180.0,100%,35%)" stroke-width="0.00035"></path>
<path d="M1.946 0.563 Q1.118 0.438 0.692 0.815" stroke="hsl(180.0,100%,35%)" stroke-width="0.00035"></path>
<path d="M1.458 0.365 Q1.549 0.463 1.761 0.440" stroke="hsl(0.0,100%,35%)" stroke-width="0.00035"></path>
<path d="M1.458 0.365 Q1.567 0.339 1.540 0.281" stroke="hsl(0.0,100%,35%)" stroke-width="0.00035"></path>
<path d="M1.458 0.365 Q1.659 0.444 1.858 0.364" stroke="hsl(0.0,100%,35%)" stroke-width="0.00035"></path>
<path d="M0.935 0.342 Q0.435 0.530 0.692 0.815" stroke="hsl(180.0,100%,35%)" stroke-width="0.00348"></path>
<path d="M0.935 0.342 Q0.915 0.533 1.283 0.585" stroke="hsl(180.0,100%,35%)" stroke-width="0.00383"></path>
<path d="M0.935 0.342 Q0.543 0.639 1.036 0.896" stroke="hsl(180.0,100%,35%)" stroke-width="0.00035"></path>
<path d="M0.935 0.342 Q0.982 0.453 1.208 0.454" stroke="hsl(180.0,100%,35%)" stroke-width="0.00139"></path>
<path d="M0.935 0.342 Q0.310 0.488 0.458 0.825" stroke="hsl(180.0,100%,35%)" stroke-width="0.00035"></path>
<path d="M0.935 0.342 Q1.270 0.556 1.761 0.440" stroke="hsl(180.0,100%,35%)" stroke-width="0.00070"></path>
<path d="M0.655 0.916 Q0.755 0.873 0.692 0.815" stroke="hsl(0.0,100%,35%)" stroke-width="0.01115"></path>
<path d="M0.655 0.916 Q1.235 0.876 1.283 0.585" stroke="hsl(0.0,100%,35%)" stroke-width="0.01080"></path>
<path d="M0.655 0.916 Q1.589 0.899 1.761 0.440" stroke="hsl(0.0,100%,35%)" stroke-width="0.00209"></path>
<path d="M0.655 0.916 Q1.606 0.776 1.540 0.281" stroke="hsl(0.0,100%,35%)" stroke-width="0.01707"></path>
<path d="M0.655 0.916 Q1.104 0.912 1.194 0.692" stroke="hsl(0.0,100%,35%)" stroke-width="0.00174"></path>
<path d="M0.655 0.916 Q1.698 0.881 1.858 0.364" stroke="hsl(0.0,100%,35%)" stroke-width="0.00070"></path>
<path d="M0.655 0.916 Q1.318 1.095 1.812 0.811" stroke="hsl(0.0,100%,35%)" stroke-width="0.00070"></path>
<path d="M0.699 0.586 Q0.512 0.699 0.692 0.815" stroke="hsl(180.0,100%,35%)" stroke-width="0.00488"></path>
<path d="M0.699 0.586 Q0.620 0.808 1.036 0.896" stroke="hsl(180.0,100%,35%)" stroke-width="0.00139"></path>
<path d="M0.699 0.586 Q0.992 0.702 1.283 0.585" stroke="hsl(180.0,100%,35%)" stroke-width="0.00035"></path>
<path d="M0.699 0.586 Q1.364 0.602 1.540 0.281" stroke="hsl(180.0,100%,35%)" stroke-width="0.00279"></path>
<path d="M0.699 0.586 Q1.347 0.725 1.761 0.440" stroke="hsl(180.0,100%,35%)" stroke-width="0.00139"></path>
<path d="M0.699 0.586 Q0.387 0.657 0.458 0.825" stroke="hsl(180.0,100%,35%)" stroke-width="0.00174"></path>
<path d="M0.699 0.586 Q0.862 0.738 1.194 0.692" stroke="hsl(180.0,100%,35%)" stroke-width="0.00035"></path>
<path d="M0.699 0.586 Q0.586 0.602 0.592 0.660" stroke="hsl(180.0,100%,35%)" stroke-width="0.00035"></path>
<path d="M1.933 0.514 Q1.906 0.443 1.761 0.440" stroke="hsl(0.0,100%,35%)" stroke-width="0.00557"></path>
<path d="M1.933 0.514 Q1.924 0.319 1.540 0.281" stroke="hsl(0.0,100%,35%)" stroke-width="0.00314"></path>
<path d="M1.933 0.514 Q1.072 0.417 0.692 0.815" stroke="hsl(0.0,100%,35%)" stroke-width="0.00070"></path>
<path d="M1.933 0.514 Q1.674 0.478 1.547 0.596" stroke="hsl(0.0,100%,35%)" stroke-width="0.00070"></path>
<path d="M1.933 0.514 Q2.016 0.424 1.858 0.364" stroke="hsl(0.0,100%,35%)" stroke-width="0.00209"></path>
<path d="M1.547 0.596 Q1.796 0.437 1.540 0.281" stroke="hsl(0.0,100%,35%)" stroke-width="0.01533"></path>
<path d="M1.547 0.596 Q1.605 0.554 1.536 0.517" stroke="hsl(0.0,100%,35%)" stroke-width="0.00244"></path>
<path d="M1.547 0.596 Q1.779 0.561 1.761 0.440" stroke="hsl(0.0,100%,35%)" stroke-width="0.00975"></path>
<path d="M1.547 0.596 Q0.944 0.535 0.692 0.815" stroke="hsl(0.0,100%,35%)" stroke-width="0.00070"></path>
<path d="M1.547 0.596 Q1.888 0.542 1.858 0.364" stroke="hsl(0.0,100%,35%)" stroke-width="0.00070"></path>
<path d="M1.547 0.596 Q1.508 0.756 1.812 0.811" stroke="hsl(0.0,100%,35%)" stroke-width="0.00174"></path>
<path d="M1.547 0.596 Q1.294 0.573 1.194 0.692" stroke="hsl(0.0,100%,35%)" stroke-width="0.00070"></path>
<path d="M1.547 0.596 Q1.615 0.689 1.811 0.676" stroke="hsl(0.0,100%,35%)" stroke-width="0.00035"></path>
<path d="M1.547 0.596 Q1.491 0.458 1.208 0.454" stroke="hsl(0.0,100%,35%)" stroke-width="0.00035"></path>
<path d="M0.592 0.660 Q1.178 0.777 1.536 0.517" stroke="hsl(180.0,100%,35%)" stroke-width="0.00244"></path>
<path d="M0.592 0.660 Q0.518 0.758 0.692 0.815" stroke="hsl(180.0,100%,35%)" stroke-width="0.00453"></path>
<path d="M0.592 0.660 Q0.998 0.761 1.283 0.585" stroke="hsl(180.0,100%,35%)" stroke-width="0.00174"></path>
<path d="M1.904 0.623 Q1.979 0.503 1.761 0.440" stroke="hsl(0.0,100%,35%)" stroke-width="0.00070"></path>
<path d="M1.904 0.623 Q1.494 0.516 1.194 0.692" stroke="hsl(0.0,100%,35%)" stroke-width="0.00035"></path>
<path d="M1.904 0.623 Q1.144 0.477 0.692 0.815" stroke="hsl(0.0,100%,35%)" stroke-width="0.00035"></path>
<path d="M1.904 0.623 Q2.088 0.485 1.858 0.364" stroke="hsl(0.0,100%,35%)" stroke-width="0.00035"></path>
<path d="M1.116 0.346 Q0.529 0.496 0.692 0.815" stroke="hsl(180.0,100%,35%)" stroke-width="0.00139"></path>
<path d="M1.116 0.346 Q1.009 0.499 1.283 0.585" stroke="hsl(180.0,100%,35%)" stroke-width="0.00070"></path>
<path d="M1.116 0.346 Q1.029 0.308 0.935 0.342" stroke="hsl(180.0,100%,35%)" stroke-width="0.00105"></path>
<path d="M1.116 0.346 Q0.636 0.605 1.036 0.896" stroke="hsl(180.0,100%,35%)" stroke-width="0.00035"></path>
<path d="M1.245 0.060 Q0.714 0.366 1.194 0.692" stroke="hsl(0.0,100%,35%)" stroke-width="0.00035"></path>
<path d="M1.245 0.060 Q1.374 0.106 1.493 0.053" stroke="hsl(0.0,100%,35%)" stroke-width="0.00070"></path>
<path d="M1.245 0.060 Q1.216 0.229 1.540 0.281" stroke="hsl(0.0,100%,35%)" stroke-width="0.00035"></path>
<path d="M0.458 0.825 Q0.583 0.867 0.692 0.815" stroke="hsl(180.0,100%,35%)" stroke-width="0.01184"></path>
<path d="M0.458 0.825 Q0.690 0.976 1.036 0.896" stroke="hsl(180.0,100%,35%)" stroke-width="0.00557"></path>
<path d="M0.458 0.825 Q1.063 0.870 1.283 0.585" stroke="hsl(180.0,100%,35%)" stroke-width="0.00523"></path>
<path d="M0.458 0.825 Q1.243 0.887 1.536 0.517" stroke="hsl(180.0,100%,35%)" stroke-width="0.00070"></path>
<path d="M0.458 0.825 Q0.933 0.906 1.194 0.692" stroke="hsl(180.0,100%,35%)" stroke-width="0.00035"></path>
<path d="M0.458 0.825 Q1.129 0.790 1.208 0.454" stroke="hsl(180.0,100%,35%)" stroke-width="0.00035"></path>
<path d="M0.458 0.825 Q1.417 0.893 1.761 0.440" stroke="hsl(180.0,100%,35%)" stroke-width="0.00035"></path>
<path d="M1.052 0.507 Q0.626 0.589 0.692 0.815" stroke="hsl(180.0,100%,35%)" stroke-width="0.00244"></path>
<path d="M1.052 0.507 Q0.975 0.628 1.194 0.692" stroke="hsl(180.0,100%,35%)" stroke-width="0.00105"></path>
<path d="M1.052 0.507 Q1.106 0.592 1.283 0.585" stroke="hsl(180.0,100%,35%)" stroke-width="0.00174"></path>
<path d="M1.052 0.507 Q1.460 0.616 1.761 0.440" stroke="hsl(180.0,100%,35%)" stroke-width="0.00035"></path>
<path d="M0.562 0.675 Q0.514 0.771 0.692 0.815" stroke="hsl(180.0,100%,35%)" stroke-width="0.00035"></path>
<path d="M0.562 0.675 Q0.864 0.810 1.194 0.692" stroke="hsl(180.0,100%,35%)" stroke-width="0.00035"></path>
<path d="M0.562 0.675 Q0.994 0.774 1.283 0.585" stroke="hsl(180.0,100%,35%)" stroke-width="0.00035"></path>
<path d="M0.953 0.588 Q0.641 0.649 0.692 0.815" stroke="hsl(180.0,100%,35%)" stroke-width="0.00105"></path>
<path d="M0.953 0.588 Q1.121 0.652 1.283 0.585" stroke="hsl(180.0,100%,35%)" stroke-width="0.00035"></path>
<path d="M0.953 0.588 Q1.476 0.676 1.761 0.440" stroke="hsl(180.0,100%,35%)" stroke-width="0.00035"></path>
<path d="M0.953 0.588 Q1.067 0.567 1.052 0.507" stroke="hsl(180.0,100%,35%)" stroke-width="0.00035"></path>
<path d="M0.888 0.987 Q0.928 0.862 0.692 0.815" stroke="hsl(180.0,100%,35%)" stroke-width="0.00070"></path>
<path d="M0.888 0.987 Q1.277 0.901 1.194 0.692" stroke="hsl(180.0,100%,35%)" stroke-width="0.00035"></path>
<path d="M0.888 0.987 Q1.035 0.971 1.036 0.896" stroke="hsl(180.0,100%,35%)" stroke-width="0.00035"></path>
<path d="M0.414 0.956 Q0.666 0.941 0.692 0.815" stroke="hsl(180.0,100%,35%)" stroke-width="0.00627"></path>
<path d="M0.414 0.956 Q0.566 0.984 0.655 0.916" stroke="hsl(180.0,100%,35%)" stroke-width="0.00523"></path>
<path d="M0.414 0.956 Q1.146 0.944 1.283 0.585" stroke="hsl(180.0,100%,35%)" stroke-width="0.00209"></path>
<path d="M0.414 0.956 Q1.500 0.967 1.761 0.440" stroke="hsl(180.0,100%,35%)" stroke-width="0.00035"></path>
<path d="M0.414 0.956 Q1.015 0.980 1.194 0.692" stroke="hsl(180.0,100%,35%)" stroke-width="0.00035"></path>
<path d="M0.764 0.648 Q1.429 0.743 1.761 0.440" stroke="hsl(180.0,100%,35%)" stroke-width="0.00035"></path>
<path d="M0.764 0.648 Q1.447 0.620 1.540 0.281" stroke="hsl(180.0,100%,35%)" stroke-width="0.00035"></path>
<path d="M0.764 0.648 Q0.757 0.746 0.946 0.772" stroke="hsl(180.0,100%,35%)" stroke-width="0.00070"></path>
<path d="M0.764 0.648 Q0.595 0.717 0.692 0.815" stroke="hsl(180.0,100%,35%)" stroke-width="0.00105"></path>
<path d="M0.764 0.648 Q0.944 0.756 1.194 0.692" stroke="hsl(180.0,100%,35%)" stroke-width="0.00035"></path>
<path d="M1.765 0.547 Q2.111 0.300 1.706 0.077" stroke="hsl(0.0,100%,35%)" stroke-width="0.00035"></path>
<path d="M1.765 0.547 Q1.848 0.492 1.761 0.440" stroke="hsl(0.0,100%,35%)" stroke-width="0.00070"></path>
<path d="M1.765 0.547 Q1.014 0.466 0.692 0.815" stroke="hsl(0.0,100%,35%)" stroke-width="0.00035"></path>
<path d="M0.048 0.751 Q0.219 0.955 0.655 0.916" stroke="hsl(180.0,100%,35%)" stroke-width="0.00209"></path>
<path d="M0.048 0.751 Q1.170 0.814 1.540 0.281" stroke="hsl(180.0,100%,35%)" stroke-width="0.00035"></path>
<path d="M0.048 0.751 Q0.193 0.870 0.458 0.825" stroke="hsl(180.0,100%,35%)" stroke-width="0.00174"></path>
<path d="M0.048 0.751 Q0.319 0.912 0.692 0.815" stroke="hsl(180.0,100%,35%)" stroke-width="0.00174"></path>
<path d="M0.647 0.542 Q0.451 0.687 0.692 0.815" stroke="hsl(180.0,100%,35%)" stroke-width="0.00070"></path>
<path d="M0.647 0.542 Q1.461 0.467 1.493 0.053" stroke="hsl(180.0,100%,35%)" stroke-width="0.00035"></path>
<path d="M0.647 0.542 Q0.525 0.590 0.592 0.660" stroke="hsl(180.0,100%,35%)" stroke-width="0.00035"></path>
<path d="M1.475 0.702 Q1.343 0.640 1.194 0.692" stroke="hsl(180.0,100%,35%)" stroke-width="0.00105"></path>
<path d="M1.475 0.702 Q1.180 0.489 0.699 0.586" stroke="hsl(180.0,100%,35%)" stroke-width="0.00070"></path>
<path d="M1.475 0.702 Q1.827 0.628 1.761 0.440" stroke="hsl(180.0,100%,35%)" stroke-width="0.00035"></path>
<path d="M0.754 0.637 Q0.580 0.714 0.692 0.815" stroke="hsl(180.0,100%,35%)" stroke-width="0.00070"></path>
<path d="M0.754 0.637 Q0.481 0.757 0.655 0.916" stroke="hsl(180.0,100%,35%)" stroke-width="0.00035"></path>
<path d="M0.754 0.637 Q0.767 0.600 0.699 0.586" stroke="hsl(180.0,100%,35%)" stroke-width="0.00035"></path>
<path d="M0.754 0.637 Q1.060 0.717 1.283 0.585" stroke="hsl(180.0,100%,35%)" stroke-width="0.00035"></path>
<path d="M0.754 0.637 Q0.654 0.616 0.592 0.660" stroke="hsl(180.0,100%,35%)" stroke-width="0.00035"></path>
<path d="M0.937 0.341 Q0.982 0.452 1.208 0.454" stroke="hsl(180.0,100%,35%)" stroke-width="0.00035"></path>
<path d="M0.937 0.341 Q0.543 0.638 1.036 0.896" stroke="hsl(180.0,100%,35%)" stroke-width="0.00035"></path>
</g>
<text x="1.811" y="0.670" font-size="0.011687" fill="hsl(0.0,100%,20%)">alanbaker</text>
<text x="1.540" y="0.239" font-size="0.082816" fill="hsl(0.0,100%,20%)">jrprice</text>
<text x="1.761" y="0.399" font-size="0.082344" fill="hsl(0.0,100%,20%)">dsinclair</text>
<text x="0.692" y="0.781" font-size="0.067571" fill="hsl(180.0,100%,20%)">cwallez</text>
<text x="1.858" y="0.342" font-size="0.043951" fill="hsl(0.0,100%,20%)">rharrison</text>
<text x="0.416" y="0.619" font-size="0.006247" fill="hsl(180.0,100%,20%)">albin.bernhardsson</text>
<text x="1.283" y="0.553" font-size="0.062625" fill="hsl(180.0,100%,20%)">lokokung</text>
<text x="1.536" y="0.502" font-size="0.030444" fill="hsl(0.0,100%,20%)">amaiorano</text>
<text x="1.194" y="0.666" font-size="0.051891" fill="hsl(180.0,100%,20%)">kainino</text>
<text x="1.438" y="-0.364" font-size="0.003123" fill="hsl(0.0,100%,20%)">mikt</text>
<text x="0.946" y="0.757" font-size="0.028966" fill="hsl(180.0,100%,20%)">beaufort.francois</text>
<text x="1.208" y="0.442" font-size="0.024792" fill="hsl(180.0,100%,20%)">bajones</text>
<text x="1.036" y="0.884" font-size="0.023582" fill="hsl(180.0,100%,20%)">geofflang</text>
<text x="0.870" y="0.921" font-size="0.019506" fill="hsl(180.0,100%,20%)">shrekshao</text>
<text x="1.812" y="0.794" font-size="0.033786" fill="hsl(0.0,100%,20%)">dneto</text>
<text x="1.111" y="0.916" font-size="0.003123" fill="hsl(180.0,100%,20%)">mehmetoguzderin</text>
<text x="0.946" y="0.623" font-size="0.016820" fill="hsl(180.0,100%,20%)">gman</text>
<text x="0.179" y="0.827" font-size="0.012878" fill="hsl(180.0,100%,20%)">senorblanco</text>
<text x="0.255" y="0.707" font-size="0.020953" fill="hsl(180.0,100%,20%)">zhaoming.jiang</text>
<text x="0.749" y="0.979" font-size="0.012097" fill="hsl(180.0,100%,20%)">bkaya</text>
<text x="1.122" y="0.982" font-size="0.007651" fill="hsl(180.0,100%,20%)">alfiebaxter</text>
<text x="0.906" y="0.936" font-size="0.020482" fill="hsl(180.0,100%,20%)">jimblackler</text>
<text x="1.251" y="0.317" font-size="0.008835" fill="hsl(180.0,100%,20%)">brandon1.jones</text>
<text x="1.706" y="0.064" font-size="0.025757" fill="hsl(0.0,100%,20%)">bsheedy</text>
<text x="1.493" y="0.047" font-size="0.013252" fill="hsl(0.0,100%,20%)">ynovikov</text>
<text x="1.662" y="0.155" font-size="0.006247" fill="hsl(0.0,100%,20%)">gbeaty</text>
<text x="1.946" y="0.560" font-size="0.006247" fill="hsl(180.0,100%,20%)">cabral.brc</text>
<text x="1.458" y="0.362" font-size="0.005410" fill="hsl(0.0,100%,20%)">cdesouza</text>
<text x="0.935" y="0.333" font-size="0.017943" fill="hsl(180.0,100%,20%)">kylechar</text>
<text x="0.655" y="0.897" font-size="0.038382" fill="hsl(0.0,100%,20%)">jiawei.shao</text>
<text x="0.699" y="0.576" font-size="0.020242" fill="hsl(180.0,100%,20%)">shaoboyan</text>
<text x="1.933" y="0.505" font-size="0.018479" fill="hsl(0.0,100%,20%)">diejorarr</text>
<text x="1.547" y="0.580" font-size="0.032460" fill="hsl(0.0,100%,20%)">petermcneeley</text>
<text x="0.592" y="0.652" font-size="0.017108" fill="hsl(180.0,100%,20%)">rafael.cintron</text>
<text x="1.904" y="0.620" font-size="0.006984" fill="hsl(0.0,100%,20%)">eliemichel</text>
<text x="1.116" y="0.341" font-size="0.009877" fill="hsl(180.0,100%,20%)">hitawala</text>
<text x="0.787" y="0.971" font-size="0.003123" fill="hsl(180.0,100%,20%)">nikigupta</text>
<text x="1.245" y="0.057" font-size="0.006247" fill="hsl(0.0,100%,20%)">jwata</text>
<text x="0.458" y="0.811" font-size="0.028456" fill="hsl(180.0,100%,20%)">lehoangquyen</text>
<text x="1.052" y="0.501" font-size="0.013252" fill="hsl(180.0,100%,20%)">sunnyps</text>
<text x="0.562" y="0.672" font-size="0.005410" fill="hsl(180.0,100%,20%)">manuel.winkler</text>
<text x="0.953" y="0.584" font-size="0.007651" fill="hsl(180.0,100%,20%)">michaelludwig</text>
<text x="0.888" y="0.984" font-size="0.006247" fill="hsl(180.0,100%,20%)">rop</text>
<text x="0.414" y="0.946" font-size="0.020000" fill="hsl(180.0,100%,20%)">shanxing.mei</text>
<text x="0.764" y="0.644" font-size="0.008835" fill="hsl(180.0,100%,20%)">tikuta</text>
<text x="1.765" y="0.543" font-size="0.006247" fill="hsl(0.0,100%,20%)">vplotkin</text>
<text x="0.048" y="0.745" font-size="0.012878" fill="hsl(180.0,100%,20%)">xing.xu</text>
<text x="0.647" y="0.538" font-size="0.006247" fill="hsl(180.0,100%,20%)">ygu</text>
<text x="1.475" y="0.698" font-size="0.007651" fill="hsl(180.0,100%,20%)">yulong.fs</text>
<text x="0.754" y="0.633" font-size="0.007651" fill="hsl(180.0,100%,20%)">zhuangxu</text>
<text x="0.937" y="0.339" font-size="0.004417" fill="hsl(180.0,100%,20%)">zmo</text>
</svg>
