<svg width="4000" height="2000" viewBox="-0.025 -0.025 2.05 1.05" xmlns="http://www.w3.org/2000/svg">
  <style>
    path {
      fill: none;
      stroke-linecap: round;
      stroke-opacity: 0.4;
    }

    text {
      text-anchor: middle;
      alignment-baseline: hanging;
    }
  </style>
  <g opacity="0.4">
<path d="M0.433 0.233 Q0.688 0.339 0.951 0.238" stroke="hsl(0.0,100%,35%)" stroke-width="0.00317"></path>
<path d="M0.433 0.233 Q0.032 0.406 0.282 0.639" stroke="hsl(0.0,100%,35%)" stroke-width="0.00498"></path>
<path d="M0.433 0.233 Q-0.052 0.428 0.221 0.707" stroke="hsl(0.0,100%,35%)" stroke-width="0.00023"></path>
<path d="M0.433 0.233 Q0.299 0.444 0.681 0.555" stroke="hsl(0.0,100%,35%)" stroke-width="0.00181"></path>
<path d="M0.433 0.233 Q0.465 0.339 0.678 0.347" stroke="hsl(0.0,100%,35%)" stroke-width="0.00340"></path>
<path d="M0.433 0.233 Q-0.106 0.456 0.211 0.768" stroke="hsl(0.0,100%,35%)" stroke-width="0.00023"></path>
<path d="M0.433 0.233 Q0.580 0.160 0.469 0.072" stroke="hsl(0.0,100%,35%)" stroke-width="0.00068"></path>
<path d="M0.433 0.233 Q0.727 0.213 0.752 0.065" stroke="hsl(0.0,100%,35%)" stroke-width="0.00657"></path>
<path d="M0.433 0.233 Q0.593 0.274 0.707 0.204" stroke="hsl(0.0,100%,35%)" stroke-width="0.01607"></path>
<path d="M0.433 0.233 Q0.384 0.270 0.445 0.302" stroke="hsl(0.0,100%,35%)" stroke-width="0.00023"></path>
<path d="M0.433 0.233 Q0.566 0.328 0.780 0.283" stroke="hsl(0.0,100%,35%)" stroke-width="0.00023"></path>
<path d="M0.433 0.233 Q0.845 0.269 1.007 0.076" stroke="hsl(0.0,100%,35%)" stroke-width="0.00023"></path>
<path d="M0.433 0.233 Q0.845 0.700 1.846 0.602" stroke="hsl(0.0,100%,35%)" stroke-width="0.00068"></path>
<path d="M0.951 0.238 Q0.695 0.132 0.433 0.233" stroke="hsl(0.0,100%,35%)" stroke-width="0.00362"></path>
<path d="M0.951 0.238 Q0.989 0.112 0.752 0.065" stroke="hsl(0.0,100%,35%)" stroke-width="0.00792"></path>
<path d="M0.951 0.238 Q0.562 0.343 0.681 0.555" stroke="hsl(0.0,100%,35%)" stroke-width="0.00408"></path>
<path d="M0.951 0.238 Q1.108 0.168 1.007 0.076" stroke="hsl(0.0,100%,35%)" stroke-width="0.00385"></path>
<path d="M0.951 0.238 Q0.855 0.172 0.707 0.204" stroke="hsl(0.0,100%,35%)" stroke-width="0.02173"></path>
<path d="M0.951 0.238 Q0.157 0.355 0.211 0.768" stroke="hsl(0.0,100%,35%)" stroke-width="0.00023"></path>
<path d="M0.951 0.238 Q1.107 0.599 1.846 0.602" stroke="hsl(0.0,100%,35%)" stroke-width="0.00023"></path>
<path d="M0.951 0.238 Q0.295 0.305 0.282 0.639" stroke="hsl(0.0,100%,35%)" stroke-width="0.00136"></path>
<path d="M0.951 0.238 Q0.728 0.238 0.678 0.347" stroke="hsl(0.0,100%,35%)" stroke-width="0.00724"></path>
<path d="M0.282 0.639 Q0.197 0.661 0.221 0.707" stroke="hsl(180.0,100%,35%)" stroke-width="0.00023"></path>
<path d="M0.282 0.639 Q0.549 0.677 0.681 0.555" stroke="hsl(180.0,100%,35%)" stroke-width="0.00408"></path>
<path d="M0.282 0.639 Q0.916 1.031 1.820 0.808" stroke="hsl(180.0,100%,35%)" stroke-width="0.01064"></path>
<path d="M0.282 0.639 Q0.682 0.467 0.433 0.233" stroke="hsl(180.0,100%,35%)" stroke-width="0.00091"></path>
<path d="M0.282 0.639 Q0.369 0.928 0.952 0.949" stroke="hsl(180.0,100%,35%)" stroke-width="0.00023"></path>
<path d="M0.282 0.639 Q1.095 0.503 1.007 0.076" stroke="hsl(180.0,100%,35%)" stroke-width="0.00068"></path>
<path d="M0.282 0.639 Q1.094 0.934 1.846 0.602" stroke="hsl(180.0,100%,35%)" stroke-width="0.00475"></path>
<path d="M0.282 0.639 Q0.816 0.830 1.307 0.612" stroke="hsl(180.0,100%,35%)" stroke-width="0.00045"></path>
<path d="M0.282 0.639 Q0.925 0.926 1.625 0.675" stroke="hsl(180.0,100%,35%)" stroke-width="0.00045"></path>
<path d="M0.282 0.639 Q0.506 0.995 1.248 0.963" stroke="hsl(180.0,100%,35%)" stroke-width="0.00023"></path>
<path d="M0.282 0.639 Q0.945 0.736 1.279 0.433" stroke="hsl(180.0,100%,35%)" stroke-width="0.00068"></path>
<path d="M0.282 0.639 Q0.218 0.571 0.070 0.586" stroke="hsl(180.0,100%,35%)" stroke-width="0.00023"></path>
<path d="M0.282 0.639 Q0.937 0.572 0.951 0.238" stroke="hsl(180.0,100%,35%)" stroke-width="0.00045"></path>
<path d="M0.282 0.639 Q0.143 0.690 0.211 0.768" stroke="hsl(180.0,100%,35%)" stroke-width="0.00045"></path>
<path d="M0.282 0.639 Q0.510 0.576 0.437 0.451" stroke="hsl(180.0,100%,35%)" stroke-width="0.00023"></path>
<path d="M0.221 0.707 Q0.306 0.685 0.282 0.639" stroke="hsl(180.0,100%,35%)" stroke-width="0.00158"></path>
<path d="M0.221 0.707 Q0.962 0.619 0.951 0.238" stroke="hsl(180.0,100%,35%)" stroke-width="0.00023"></path>
<path d="M0.221 0.707 Q0.841 0.877 1.307 0.612" stroke="hsl(180.0,100%,35%)" stroke-width="0.00091"></path>
<path d="M0.221 0.707 Q0.573 0.723 0.681 0.555" stroke="hsl(180.0,100%,35%)" stroke-width="0.00091"></path>
<path d="M0.221 0.707 Q0.970 0.782 1.279 0.433" stroke="hsl(180.0,100%,35%)" stroke-width="0.00023"></path>
<path d="M0.221 0.707 Q0.280 0.772 0.419 0.758" stroke="hsl(180.0,100%,35%)" stroke-width="0.00023"></path>
<path d="M0.221 0.707 Q0.866 0.553 0.707 0.204" stroke="hsl(180.0,100%,35%)" stroke-width="0.00023"></path>
<path d="M0.221 0.707 Q0.840 0.607 0.780 0.283" stroke="hsl(180.0,100%,35%)" stroke-width="0.00045"></path>
<path d="M0.221 0.707 Q1.000 0.492 0.752 0.065" stroke="hsl(180.0,100%,35%)" stroke-width="0.00045"></path>
<path d="M0.221 0.707 Q0.527 0.703 0.585 0.554" stroke="hsl(180.0,100%,35%)" stroke-width="0.00023"></path>
<path d="M0.221 0.707 Q0.739 0.618 0.678 0.347" stroke="hsl(180.0,100%,35%)" stroke-width="0.00068"></path>
<path d="M0.681 0.555 Q0.414 0.517 0.282 0.639" stroke="hsl(180.0,100%,35%)" stroke-width="0.01856"></path>
<path d="M0.681 0.555 Q1.069 0.451 0.951 0.238" stroke="hsl(180.0,100%,35%)" stroke-width="0.00498"></path>
<path d="M0.681 0.555 Q0.949 0.709 1.307 0.612" stroke="hsl(180.0,100%,35%)" stroke-width="0.00362"></path>
<path d="M0.681 0.555 Q0.501 0.806 0.952 0.949" stroke="hsl(180.0,100%,35%)" stroke-width="0.00023"></path>
<path d="M0.681 0.555 Q1.048 0.910 1.820 0.808" stroke="hsl(180.0,100%,35%)" stroke-width="0.01675"></path>
<path d="M0.681 0.555 Q1.226 0.812 1.846 0.602" stroke="hsl(180.0,100%,35%)" stroke-width="0.00815"></path>
<path d="M0.681 0.555 Q0.578 0.522 0.491 0.565" stroke="hsl(180.0,100%,35%)" stroke-width="0.00068"></path>
<path d="M0.681 0.555 Q0.845 0.559 0.889 0.480" stroke="hsl(180.0,100%,35%)" stroke-width="0.00045"></path>
<path d="M0.681 0.555 Q0.974 0.385 0.707 0.204" stroke="hsl(180.0,100%,35%)" stroke-width="0.00068"></path>
<path d="M0.681 0.555 Q0.329 0.539 0.221 0.707" stroke="hsl(180.0,100%,35%)" stroke-width="0.00023"></path>
<path d="M0.681 0.555 Q1.108 0.324 0.752 0.065" stroke="hsl(180.0,100%,35%)" stroke-width="0.00226"></path>
<path d="M0.681 0.555 Q0.642 0.454 0.437 0.451" stroke="hsl(180.0,100%,35%)" stroke-width="0.00023"></path>
<path d="M0.681 0.555 Q0.388 0.604 0.419 0.758" stroke="hsl(180.0,100%,35%)" stroke-width="0.00136"></path>
<path d="M0.681 0.555 Q0.657 0.645 0.827 0.677" stroke="hsl(180.0,100%,35%)" stroke-width="0.00204"></path>
<path d="M0.681 0.555 Q0.767 0.701 1.070 0.691" stroke="hsl(180.0,100%,35%)" stroke-width="0.00158"></path>
<path d="M0.681 0.555 Q0.666 0.375 0.312 0.343" stroke="hsl(180.0,100%,35%)" stroke-width="0.00023"></path>
<path d="M0.681 0.555 Q1.227 0.381 1.007 0.076" stroke="hsl(180.0,100%,35%)" stroke-width="0.00023"></path>
<path d="M0.681 0.555 Q1.057 0.804 1.625 0.675" stroke="hsl(180.0,100%,35%)" stroke-width="0.00113"></path>
<path d="M0.681 0.555 Q0.634 0.535 0.585 0.554" stroke="hsl(180.0,100%,35%)" stroke-width="0.00340"></path>
<path d="M0.681 0.555 Q0.711 0.619 0.843 0.619" stroke="hsl(180.0,100%,35%)" stroke-width="0.00023"></path>
<path d="M0.681 0.555 Q0.651 0.467 0.473 0.463" stroke="hsl(180.0,100%,35%)" stroke-width="0.00023"></path>
<path d="M0.681 0.555 Q0.814 0.345 0.433 0.233" stroke="hsl(180.0,100%,35%)" stroke-width="0.00023"></path>
<path d="M0.681 0.555 Q0.505 0.565 0.486 0.653" stroke="hsl(180.0,100%,35%)" stroke-width="0.00023"></path>
<path d="M0.681 0.555 Q0.371 0.652 0.492 0.824" stroke="hsl(180.0,100%,35%)" stroke-width="0.00023"></path>
<path d="M0.681 0.555 Q1.099 0.724 1.520 0.557" stroke="hsl(180.0,100%,35%)" stroke-width="0.00068"></path>
<path d="M0.678 0.347 Q0.940 0.221 0.752 0.065" stroke="hsl(0.0,100%,35%)" stroke-width="0.01607"></path>
<path d="M0.678 0.347 Q0.806 0.281 0.707 0.204" stroke="hsl(0.0,100%,35%)" stroke-width="0.01902"></path>
<path d="M0.678 0.347 Q0.902 0.347 0.951 0.238" stroke="hsl(0.0,100%,35%)" stroke-width="0.00136"></path>
<path d="M0.678 0.347 Q0.108 0.464 0.211 0.768" stroke="hsl(0.0,100%,35%)" stroke-width="0.00023"></path>
<path d="M0.678 0.347 Q1.059 0.277 1.007 0.076" stroke="hsl(0.0,100%,35%)" stroke-width="0.00068"></path>
<path d="M0.678 0.347 Q1.171 0.328 1.242 0.083" stroke="hsl(0.0,100%,35%)" stroke-width="0.00023"></path>
<path d="M0.678 0.347 Q0.646 0.241 0.433 0.233" stroke="hsl(0.0,100%,35%)" stroke-width="0.00158"></path>
<path d="M0.678 0.347 Q0.780 0.335 0.780 0.283" stroke="hsl(0.0,100%,35%)" stroke-width="0.00023"></path>
<path d="M0.211 0.768 Q0.349 0.718 0.282 0.639" stroke="hsl(180.0,100%,35%)" stroke-width="0.01064"></path>
<path d="M0.211 0.768 Q1.162 1.012 1.846 0.602" stroke="hsl(180.0,100%,35%)" stroke-width="0.00136"></path>
<path d="M0.211 0.768 Q1.044 0.525 0.752 0.065" stroke="hsl(180.0,100%,35%)" stroke-width="0.00589"></path>
<path d="M0.211 0.768 Q1.005 0.651 0.951 0.238" stroke="hsl(180.0,100%,35%)" stroke-width="0.00068"></path>
<path d="M0.211 0.768 Q0.265 0.740 0.221 0.707" stroke="hsl(180.0,100%,35%)" stroke-width="0.00045"></path>
<path d="M0.211 0.768 Q0.145 0.752 0.099 0.780" stroke="hsl(180.0,100%,35%)" stroke-width="0.00023"></path>
<path d="M0.211 0.768 Q1.163 0.581 1.007 0.076" stroke="hsl(180.0,100%,35%)" stroke-width="0.00045"></path>
<path d="M0.211 0.768 Q0.750 0.545 0.433 0.233" stroke="hsl(180.0,100%,35%)" stroke-width="0.00068"></path>
<path d="M0.211 0.768 Q0.992 1.004 1.625 0.675" stroke="hsl(180.0,100%,35%)" stroke-width="0.00023"></path>
<path d="M0.469 0.072 Q0.354 0.251 0.678 0.347" stroke="hsl(0.0,100%,35%)" stroke-width="0.00068"></path>
<path d="M0.469 0.072 Q0.577 0.251 0.951 0.238" stroke="hsl(0.0,100%,35%)" stroke-width="0.00023"></path>
<path d="M0.469 0.072 Q0.322 0.145 0.433 0.233" stroke="hsl(0.0,100%,35%)" stroke-width="0.00113"></path>
<path d="M0.469 0.072 Q0.482 0.186 0.707 0.204" stroke="hsl(0.0,100%,35%)" stroke-width="0.00181"></path>
<path d="M0.469 0.072 Q0.615 0.125 0.752 0.065" stroke="hsl(0.0,100%,35%)" stroke-width="0.00475"></path>
<path d="M0.469 0.072 Q0.734 0.181 1.007 0.076" stroke="hsl(0.0,100%,35%)" stroke-width="0.00023"></path>
<path d="M0.469 0.072 Q0.188 0.356 0.681 0.555" stroke="hsl(0.0,100%,35%)" stroke-width="0.00023"></path>
<path d="M0.752 0.065 Q0.618 0.126 0.707 0.204" stroke="hsl(0.0,100%,35%)" stroke-width="0.09554"></path>
<path d="M0.752 0.065 Q0.713 0.191 0.951 0.238" stroke="hsl(0.0,100%,35%)" stroke-width="0.00226"></path>
<path d="M0.752 0.065 Q0.458 0.085 0.433 0.233" stroke="hsl(0.0,100%,35%)" stroke-width="0.00543"></path>
<path d="M0.752 0.065 Q0.916 0.171 1.160 0.114" stroke="hsl(0.0,100%,35%)" stroke-width="0.00023"></path>
<path d="M0.752 0.065 Q0.324 0.296 0.681 0.555" stroke="hsl(0.0,100%,35%)" stroke-width="0.00408"></path>
<path d="M0.752 0.065 Q0.605 0.012 0.469 0.072" stroke="hsl(0.0,100%,35%)" stroke-width="0.00023"></path>
<path d="M0.752 0.065 Q0.592 0.449 1.307 0.612" stroke="hsl(0.0,100%,35%)" stroke-width="0.00136"></path>
<path d="M0.752 0.065 Q0.131 0.361 0.573 0.729" stroke="hsl(0.0,100%,35%)" stroke-width="0.00023"></path>
<path d="M0.752 0.065 Q0.057 0.258 0.282 0.639" stroke="hsl(0.0,100%,35%)" stroke-width="0.00023"></path>
<path d="M0.752 0.065 Q0.490 0.191 0.678 0.347" stroke="hsl(0.0,100%,35%)" stroke-width="0.00249"></path>
<path d="M0.752 0.065 Q0.870 0.553 1.846 0.602" stroke="hsl(0.0,100%,35%)" stroke-width="0.00091"></path>
<path d="M0.752 0.065 Q0.409 0.123 0.445 0.302" stroke="hsl(0.0,100%,35%)" stroke-width="0.00023"></path>
<path d="M0.752 0.065 Q0.692 0.650 1.820 0.808" stroke="hsl(0.0,100%,35%)" stroke-width="0.00091"></path>
<path d="M0.752 0.065 Q0.870 0.122 1.007 0.076" stroke="hsl(0.0,100%,35%)" stroke-width="0.00408"></path>
<path d="M0.707 0.204 Q0.802 0.270 0.951 0.238" stroke="hsl(0.0,100%,35%)" stroke-width="0.00951"></path>
<path d="M0.707 0.204 Q0.840 0.144 0.752 0.065" stroke="hsl(0.0,100%,35%)" stroke-width="0.06271"></path>
<path d="M0.707 0.204 Q0.413 0.375 0.681 0.555" stroke="hsl(0.0,100%,35%)" stroke-width="0.00204"></path>
<path d="M0.707 0.204 Q0.146 0.337 0.282 0.639" stroke="hsl(0.0,100%,35%)" stroke-width="0.00136"></path>
<path d="M0.707 0.204 Q0.547 0.164 0.433 0.233" stroke="hsl(0.0,100%,35%)" stroke-width="0.00792"></path>
<path d="M0.707 0.204 Q0.579 0.270 0.678 0.347" stroke="hsl(0.0,100%,35%)" stroke-width="0.00226"></path>
<path d="M0.707 0.204 Q0.694 0.091 0.469 0.072" stroke="hsl(0.0,100%,35%)" stroke-width="0.00068"></path>
<path d="M0.707 0.204 Q0.575 0.338 0.807 0.432" stroke="hsl(0.0,100%,35%)" stroke-width="0.00023"></path>
<path d="M0.707 0.204 Q0.959 0.200 1.007 0.076" stroke="hsl(0.0,100%,35%)" stroke-width="0.00385"></path>
<path d="M0.707 0.204 Q0.601 0.231 0.629 0.288" stroke="hsl(0.0,100%,35%)" stroke-width="0.00023"></path>
<path d="M0.707 0.204 Q0.781 0.729 1.820 0.808" stroke="hsl(0.0,100%,35%)" stroke-width="0.00023"></path>
<path d="M0.707 0.204 Q0.681 0.528 1.307 0.612" stroke="hsl(0.0,100%,35%)" stroke-width="0.00023"></path>
<path d="M0.780 0.283 Q0.940 0.168 0.752 0.065" stroke="hsl(0.0,100%,35%)" stroke-width="0.00204"></path>
<path d="M0.780 0.283 Q0.806 0.229 0.707 0.204" stroke="hsl(0.0,100%,35%)" stroke-width="0.00589"></path>
<path d="M0.780 0.283 Q0.646 0.189 0.433 0.233" stroke="hsl(0.0,100%,35%)" stroke-width="0.00045"></path>
<path d="M0.780 0.283 Q1.059 0.225 1.007 0.076" stroke="hsl(0.0,100%,35%)" stroke-width="0.00045"></path>
<path d="M0.780 0.283 Q0.107 0.412 0.211 0.768" stroke="hsl(0.0,100%,35%)" stroke-width="0.00023"></path>
<path d="M0.780 0.283 Q1.171 0.276 1.242 0.083" stroke="hsl(0.0,100%,35%)" stroke-width="0.00023"></path>
<path d="M1.007 0.076 Q0.849 0.146 0.951 0.238" stroke="hsl(0.0,100%,35%)" stroke-width="0.00158"></path>
<path d="M1.007 0.076 Q0.888 0.020 0.752 0.065" stroke="hsl(0.0,100%,35%)" stroke-width="0.00385"></path>
<path d="M1.007 0.076 Q0.193 0.213 0.282 0.639" stroke="hsl(0.0,100%,35%)" stroke-width="0.00181"></path>
<path d="M1.007 0.076 Q0.460 0.250 0.681 0.555" stroke="hsl(0.0,100%,35%)" stroke-width="0.00068"></path>
<path d="M1.007 0.076 Q0.754 0.080 0.707 0.204" stroke="hsl(0.0,100%,35%)" stroke-width="0.00498"></path>
<path d="M1.007 0.076 Q0.626 0.146 0.678 0.347" stroke="hsl(0.0,100%,35%)" stroke-width="0.00023"></path>
<path d="M1.007 0.076 Q1.119 0.127 1.242 0.083" stroke="hsl(0.0,100%,35%)" stroke-width="0.00136"></path>
<path d="M1.007 0.076 Q0.741 -0.034 0.469 0.072" stroke="hsl(0.0,100%,35%)" stroke-width="0.00023"></path>
<path d="M1.007 0.076 Q0.594 0.040 0.433 0.233" stroke="hsl(0.0,100%,35%)" stroke-width="0.00045"></path>
<path d="M1.007 0.076 Q0.727 0.134 0.780 0.283" stroke="hsl(0.0,100%,35%)" stroke-width="0.00023"></path>
<path d="M1.007 0.076 Q0.828 0.605 1.820 0.808" stroke="hsl(0.0,100%,35%)" stroke-width="0.00136"></path>
<path d="M1.007 0.076 Q0.728 0.404 1.307 0.612" stroke="hsl(0.0,100%,35%)" stroke-width="0.00023"></path>
<path d="M1.007 0.076 Q0.055 0.263 0.211 0.768" stroke="hsl(0.0,100%,35%)" stroke-width="0.00023"></path>
<path d="M1.846 0.602 Q0.896 0.358 0.211 0.768" stroke="hsl(180.0,100%,35%)" stroke-width="0.00158"></path>
<path d="M1.846 0.602 Q1.034 0.308 0.282 0.639" stroke="hsl(180.0,100%,35%)" stroke-width="0.00226"></path>
<path d="M1.846 0.602 Q1.669 0.700 1.820 0.808" stroke="hsl(180.0,100%,35%)" stroke-width="0.00408"></path>
<path d="M1.846 0.602 Q1.690 0.241 0.951 0.238" stroke="hsl(180.0,100%,35%)" stroke-width="0.00023"></path>
<path d="M1.846 0.602 Q1.719 0.514 1.520 0.557" stroke="hsl(180.0,100%,35%)" stroke-width="0.00023"></path>
<path d="M1.846 0.602 Q1.729 0.115 0.752 0.065" stroke="hsl(180.0,100%,35%)" stroke-width="0.00158"></path>
<path d="M1.846 0.602 Q1.301 0.345 0.681 0.555" stroke="hsl(180.0,100%,35%)" stroke-width="0.00068"></path>
<path d="M1.846 0.602 Q1.847 0.171 1.007 0.076" stroke="hsl(180.0,100%,35%)" stroke-width="0.00045"></path>
<path d="M1.846 0.602 Q1.960 0.222 1.242 0.083" stroke="hsl(180.0,100%,35%)" stroke-width="0.00023"></path>
<path d="M1.846 0.602 Q0.950 0.330 0.221 0.707" stroke="hsl(180.0,100%,35%)" stroke-width="0.00023"></path>
<path d="M1.846 0.602 Q1.569 0.499 1.307 0.612" stroke="hsl(180.0,100%,35%)" stroke-width="0.00023"></path>
<path d="M1.846 0.602 Q1.467 0.241 0.678 0.347" stroke="hsl(180.0,100%,35%)" stroke-width="0.00023"></path>
<path d="M1.846 0.602 Q1.435 0.135 0.433 0.233" stroke="hsl(180.0,100%,35%)" stroke-width="0.00045"></path>
<path d="M0.810 0.805 Q1.322 0.903 1.625 0.675" stroke="hsl(180.0,100%,35%)" stroke-width="0.00023"></path>
<path d="M0.810 0.805 Q0.945 0.654 0.681 0.555" stroke="hsl(180.0,100%,35%)" stroke-width="0.00023"></path>
<path d="M0.810 0.805 Q0.753 0.720 0.573 0.729" stroke="hsl(180.0,100%,35%)" stroke-width="0.00023"></path>
<path d="M1.625 0.675 Q1.794 0.683 1.846 0.602" stroke="hsl(180.0,100%,35%)" stroke-width="0.00113"></path>
<path d="M1.625 0.675 Q1.616 0.781 1.820 0.808" stroke="hsl(180.0,100%,35%)" stroke-width="0.00068"></path>
<path d="M1.625 0.675 Q0.982 0.389 0.282 0.639" stroke="hsl(180.0,100%,35%)" stroke-width="0.00045"></path>
<path d="M1.625 0.675 Q1.249 0.426 0.681 0.555" stroke="hsl(180.0,100%,35%)" stroke-width="0.00023"></path>
<path d="M1.625 0.675 Q1.411 0.390 0.807 0.432" stroke="hsl(180.0,100%,35%)" stroke-width="0.00023"></path>
<path d="M0.573 0.729 Q0.766 0.663 0.681 0.555" stroke="hsl(180.0,100%,35%)" stroke-width="0.00770"></path>
<path d="M0.573 0.729 Q1.193 0.433 0.752 0.065" stroke="hsl(180.0,100%,35%)" stroke-width="0.00453"></path>
<path d="M0.573 0.729 Q0.742 0.754 0.827 0.677" stroke="hsl(180.0,100%,35%)" stroke-width="0.00091"></path>
<path d="M0.573 0.729 Q1.133 1.018 1.820 0.808" stroke="hsl(180.0,100%,35%)" stroke-width="0.00113"></path>
<path d="M0.573 0.729 Q0.501 0.818 0.659 0.872" stroke="hsl(180.0,100%,35%)" stroke-width="0.00023"></path>
<path d="M0.573 0.729 Q1.312 0.489 1.007 0.076" stroke="hsl(180.0,100%,35%)" stroke-width="0.00023"></path>
<path d="M0.573 0.729 Q1.162 0.722 1.279 0.433" stroke="hsl(180.0,100%,35%)" stroke-width="0.00023"></path>
<path d="M0.573 0.729 Q0.499 0.626 0.282 0.639" stroke="hsl(180.0,100%,35%)" stroke-width="0.00023"></path>
<path d="M1.820 0.808 Q1.186 0.416 0.282 0.639" stroke="hsl(180.0,100%,35%)" stroke-width="0.01064"></path>
<path d="M1.820 0.808 Q1.453 0.454 0.681 0.555" stroke="hsl(180.0,100%,35%)" stroke-width="0.00702"></path>
<path d="M1.820 0.808 Q1.998 0.710 1.846 0.602" stroke="hsl(180.0,100%,35%)" stroke-width="0.01630"></path>
<path d="M1.820 0.808 Q1.850 0.512 1.279 0.433" stroke="hsl(180.0,100%,35%)" stroke-width="0.00475"></path>
<path d="M1.820 0.808 Q1.746 0.283 0.707 0.204" stroke="hsl(180.0,100%,35%)" stroke-width="0.00204"></path>
<path d="M1.820 0.808 Q1.880 0.223 0.752 0.065" stroke="hsl(180.0,100%,35%)" stroke-width="0.00113"></path>
<path d="M1.820 0.808 Q1.829 0.702 1.625 0.675" stroke="hsl(180.0,100%,35%)" stroke-width="0.00023"></path>
<path d="M1.820 0.808 Q1.615 0.417 0.807 0.432" stroke="hsl(180.0,100%,35%)" stroke-width="0.00023"></path>
<path d="M1.820 0.808 Q1.406 0.434 0.585 0.554" stroke="hsl(180.0,100%,35%)" stroke-width="0.00023"></path>
<path d="M1.820 0.808 Q1.160 0.503 0.419 0.758" stroke="hsl(180.0,100%,35%)" stroke-width="0.00045"></path>
<path d="M1.820 0.808 Q1.537 0.280 0.445 0.302" stroke="hsl(180.0,100%,35%)" stroke-width="0.00023"></path>
<path d="M0.807 0.432 Q0.913 0.621 1.307 0.612" stroke="hsl(180.0,100%,35%)" stroke-width="0.00091"></path>
<path d="M0.807 0.432 Q0.378 0.430 0.282 0.639" stroke="hsl(180.0,100%,35%)" stroke-width="0.00045"></path>
<path d="M0.807 0.432 Q0.645 0.468 0.681 0.555" stroke="hsl(180.0,100%,35%)" stroke-width="0.00249"></path>
<path d="M0.807 0.432 Q1.034 0.363 0.951 0.238" stroke="hsl(180.0,100%,35%)" stroke-width="0.00023"></path>
<path d="M0.807 0.432 Q0.938 0.298 0.707 0.204" stroke="hsl(180.0,100%,35%)" stroke-width="0.00204"></path>
<path d="M0.807 0.432 Q1.072 0.237 0.752 0.065" stroke="hsl(180.0,100%,35%)" stroke-width="0.00113"></path>
<path d="M0.807 0.432 Q1.191 0.294 1.007 0.076" stroke="hsl(180.0,100%,35%)" stroke-width="0.00023"></path>
<path d="M0.807 0.432 Q1.190 0.725 1.846 0.602" stroke="hsl(180.0,100%,35%)" stroke-width="0.00158"></path>
<path d="M0.807 0.432 Q1.021 0.717 1.625 0.675" stroke="hsl(180.0,100%,35%)" stroke-width="0.00045"></path>
<path d="M1.520 0.557 Q1.490 0.284 0.951 0.238" stroke="hsl(180.0,100%,35%)" stroke-width="0.00045"></path>
<path d="M1.520 0.557 Q1.647 0.645 1.846 0.602" stroke="hsl(180.0,100%,35%)" stroke-width="0.00792"></path>
<path d="M1.520 0.557 Q1.101 0.388 0.681 0.555" stroke="hsl(180.0,100%,35%)" stroke-width="0.00566"></path>
<path d="M1.520 0.557 Q0.835 0.351 0.282 0.639" stroke="hsl(180.0,100%,35%)" stroke-width="0.00045"></path>
<path d="M1.520 0.557 Q1.469 0.743 1.820 0.808" stroke="hsl(180.0,100%,35%)" stroke-width="0.00136"></path>
<path d="M1.520 0.557 Q1.529 0.157 0.752 0.065" stroke="hsl(180.0,100%,35%)" stroke-width="0.00023"></path>
<path d="M1.520 0.557 Q1.395 0.218 0.707 0.204" stroke="hsl(180.0,100%,35%)" stroke-width="0.00045"></path>
<path d="M1.520 0.557 Q1.498 0.447 1.279 0.433" stroke="hsl(180.0,100%,35%)" stroke-width="0.00023"></path>
<path d="M1.520 0.557 Q1.477 0.637 1.625 0.675" stroke="hsl(180.0,100%,35%)" stroke-width="0.00136"></path>
<path d="M1.520 0.557 Q1.648 0.214 1.007 0.076" stroke="hsl(180.0,100%,35%)" stroke-width="0.00023"></path>
<path d="M1.520 0.557 Q1.760 0.264 1.242 0.083" stroke="hsl(180.0,100%,35%)" stroke-width="0.00023"></path>
<path d="M1.279 0.433 Q0.615 0.337 0.282 0.639" stroke="hsl(180.0,100%,35%)" stroke-width="0.00272"></path>
<path d="M1.279 0.433 Q0.882 0.374 0.681 0.555" stroke="hsl(180.0,100%,35%)" stroke-width="0.00091"></path>
<path d="M1.279 0.433 Q1.249 0.729 1.820 0.808" stroke="hsl(180.0,100%,35%)" stroke-width="0.00226"></path>
<path d="M1.279 0.433 Q1.427 0.631 1.846 0.602" stroke="hsl(180.0,100%,35%)" stroke-width="0.00158"></path>
<path d="M1.279 0.433 Q1.150 0.528 1.307 0.612" stroke="hsl(180.0,100%,35%)" stroke-width="0.00453"></path>
<path d="M1.279 0.433 Q1.271 0.270 0.951 0.238" stroke="hsl(180.0,100%,35%)" stroke-width="0.00023"></path>
<path d="M1.279 0.433 Q1.309 0.144 0.752 0.065" stroke="hsl(180.0,100%,35%)" stroke-width="0.00091"></path>
<path d="M1.279 0.433 Q1.258 0.623 1.625 0.675" stroke="hsl(180.0,100%,35%)" stroke-width="0.00045"></path>
<path d="M1.279 0.433 Q1.044 0.338 0.807 0.432" stroke="hsl(180.0,100%,35%)" stroke-width="0.00113"></path>
<path d="M1.279 0.433 Q1.175 0.204 0.707 0.204" stroke="hsl(180.0,100%,35%)" stroke-width="0.00068"></path>
<path d="M1.279 0.433 Q0.589 0.423 0.419 0.758" stroke="hsl(180.0,100%,35%)" stroke-width="0.00023"></path>
<path d="M1.279 0.433 Q0.477 0.387 0.211 0.768" stroke="hsl(180.0,100%,35%)" stroke-width="0.00045"></path>
<path d="M0.659 0.872 Q1.009 0.864 1.070 0.691" stroke="hsl(180.0,100%,35%)" stroke-width="0.00068"></path>
<path d="M0.659 0.872 Q0.899 0.808 0.827 0.677" stroke="hsl(180.0,100%,35%)" stroke-width="0.00158"></path>
<path d="M0.659 0.872 Q0.923 0.718 0.681 0.555" stroke="hsl(180.0,100%,35%)" stroke-width="0.00068"></path>
<path d="M0.659 0.872 Q1.351 0.487 0.752 0.065" stroke="hsl(180.0,100%,35%)" stroke-width="0.00023"></path>
<path d="M1.070 0.691 Q1.373 0.441 0.951 0.238" stroke="hsl(180.0,100%,35%)" stroke-width="0.00068"></path>
<path d="M1.070 0.691 Q0.984 0.545 0.681 0.555" stroke="hsl(180.0,100%,35%)" stroke-width="0.00023"></path>
<path d="M1.070 0.691 Q0.960 0.635 0.827 0.677" stroke="hsl(180.0,100%,35%)" stroke-width="0.00023"></path>
<path d="M0.827 0.677 Q0.851 0.587 0.681 0.555" stroke="hsl(180.0,100%,35%)" stroke-width="0.00928"></path>
<path d="M0.827 0.677 Q0.937 0.733 1.070 0.691" stroke="hsl(180.0,100%,35%)" stroke-width="0.00158"></path>
<path d="M0.827 0.677 Q1.240 0.482 0.951 0.238" stroke="hsl(180.0,100%,35%)" stroke-width="0.00023"></path>
<path d="M0.827 0.677 Q0.801 0.748 0.934 0.777" stroke="hsl(180.0,100%,35%)" stroke-width="0.00023"></path>
<path d="M0.827 0.677 Q0.721 0.701 0.745 0.758" stroke="hsl(180.0,100%,35%)" stroke-width="0.00023"></path>
<path d="M0.827 0.677 Q0.587 0.741 0.659 0.872" stroke="hsl(180.0,100%,35%)" stroke-width="0.00453"></path>
<path d="M0.827 0.677 Q0.584 0.549 0.282 0.639" stroke="hsl(180.0,100%,35%)" stroke-width="0.00045"></path>
<path d="M0.827 0.677 Q1.279 0.356 0.752 0.065" stroke="hsl(180.0,100%,35%)" stroke-width="0.00158"></path>
<path d="M0.827 0.677 Q1.219 0.941 1.820 0.808" stroke="hsl(180.0,100%,35%)" stroke-width="0.00068"></path>
<path d="M0.827 0.677 Q0.659 0.652 0.573 0.729" stroke="hsl(180.0,100%,35%)" stroke-width="0.00023"></path>
<path d="M0.827 0.677 Q0.989 0.694 1.058 0.618" stroke="hsl(180.0,100%,35%)" stroke-width="0.00023"></path>
<path d="M0.312 0.343 Q0.326 0.523 0.681 0.555" stroke="hsl(180.0,100%,35%)" stroke-width="0.00272"></path>
<path d="M0.312 0.343 Q0.059 0.485 0.282 0.639" stroke="hsl(180.0,100%,35%)" stroke-width="0.00249"></path>
<path d="M0.312 0.343 Q0.309 0.380 0.381 0.389" stroke="hsl(180.0,100%,35%)" stroke-width="0.00068"></path>
<path d="M0.312 0.343 Q0.694 0.877 1.820 0.808" stroke="hsl(180.0,100%,35%)" stroke-width="0.00045"></path>
<path d="M0.312 0.343 Q0.184 0.494 0.451 0.589" stroke="hsl(180.0,100%,35%)" stroke-width="0.00023"></path>
<path d="M0.451 0.589 Q1.138 0.875 1.846 0.602" stroke="hsl(180.0,100%,35%)" stroke-width="0.00045"></path>
<path d="M0.451 0.589 Q0.326 0.581 0.282 0.639" stroke="hsl(180.0,100%,35%)" stroke-width="0.00023"></path>
<path d="M0.451 0.589 Q0.593 0.618 0.681 0.555" stroke="hsl(180.0,100%,35%)" stroke-width="0.00249"></path>
<path d="M0.451 0.589 Q0.961 0.973 1.820 0.808" stroke="hsl(180.0,100%,35%)" stroke-width="0.00158"></path>
<path d="M0.451 0.589 Q0.547 0.598 0.585 0.554" stroke="hsl(180.0,100%,35%)" stroke-width="0.00023"></path>
<path d="M0.603 0.685 Q0.745 0.635 0.681 0.555" stroke="hsl(180.0,100%,35%)" stroke-width="0.00113"></path>
<path d="M0.603 0.685 Q0.478 0.598 0.282 0.639" stroke="hsl(180.0,100%,35%)" stroke-width="0.00113"></path>
<path d="M0.603 0.685 Q1.121 0.884 1.625 0.675" stroke="hsl(180.0,100%,35%)" stroke-width="0.00023"></path>
<path d="M1.307 0.612 Q0.772 0.420 0.282 0.639" stroke="hsl(180.0,100%,35%)" stroke-width="0.00430"></path>
<path d="M1.307 0.612 Q1.428 0.354 0.951 0.238" stroke="hsl(180.0,100%,35%)" stroke-width="0.00045"></path>
<path d="M1.307 0.612 Q1.039 0.458 0.681 0.555" stroke="hsl(180.0,100%,35%)" stroke-width="0.00091"></path>
<path d="M1.307 0.612 Q1.466 0.227 0.752 0.065" stroke="hsl(180.0,100%,35%)" stroke-width="0.00204"></path>
<path d="M1.307 0.612 Q1.332 0.288 0.707 0.204" stroke="hsl(180.0,100%,35%)" stroke-width="0.00113"></path>
<path d="M1.307 0.612 Q1.201 0.422 0.807 0.432" stroke="hsl(180.0,100%,35%)" stroke-width="0.00023"></path>
<path d="M1.307 0.612 Q1.406 0.813 1.820 0.808" stroke="hsl(180.0,100%,35%)" stroke-width="0.00023"></path>
<path d="M1.307 0.612 Q1.204 0.353 0.678 0.347" stroke="hsl(180.0,100%,35%)" stroke-width="0.00023"></path>
<path d="M0.952 0.949 Q0.865 0.660 0.282 0.639" stroke="hsl(180.0,100%,35%)" stroke-width="0.00385"></path>
<path d="M0.952 0.949 Q1.131 0.698 0.681 0.555" stroke="hsl(180.0,100%,35%)" stroke-width="0.00158"></path>
<path d="M0.952 0.949 Q1.499 1.052 1.820 0.808" stroke="hsl(180.0,100%,35%)" stroke-width="0.00113"></path>
<path d="M0.952 0.949 Q0.839 0.747 0.419 0.758" stroke="hsl(180.0,100%,35%)" stroke-width="0.00023"></path>
<path d="M0.952 0.949 Q1.297 0.593 0.678 0.347" stroke="hsl(180.0,100%,35%)" stroke-width="0.00023"></path>
<path d="M0.889 0.480 Q0.457 0.438 0.282 0.639" stroke="hsl(180.0,100%,35%)" stroke-width="0.00023"></path>
<path d="M0.889 0.480 Q0.724 0.476 0.681 0.555" stroke="hsl(180.0,100%,35%)" stroke-width="0.00113"></path>
<path d="M0.889 0.480 Q0.432 0.525 0.419 0.758" stroke="hsl(180.0,100%,35%)" stroke-width="0.00068"></path>
<path d="M0.889 0.480 Q0.678 0.456 0.585 0.554" stroke="hsl(180.0,100%,35%)" stroke-width="0.00023"></path>
<path d="M0.437 0.451 Q0.209 0.514 0.282 0.639" stroke="hsl(180.0,100%,35%)" stroke-width="0.00475"></path>
<path d="M0.437 0.451 Q0.769 0.382 0.707 0.204" stroke="hsl(180.0,100%,35%)" stroke-width="0.00226"></path>
<path d="M0.437 0.451 Q0.476 0.552 0.681 0.555" stroke="hsl(180.0,100%,35%)" stroke-width="0.00521"></path>
<path d="M0.437 0.451 Q0.864 0.447 0.951 0.238" stroke="hsl(180.0,100%,35%)" stroke-width="0.00023"></path>
<path d="M0.437 0.451 Q0.903 0.321 0.752 0.065" stroke="hsl(180.0,100%,35%)" stroke-width="0.00113"></path>
<path d="M0.437 0.451 Q0.872 0.610 1.279 0.433" stroke="hsl(180.0,100%,35%)" stroke-width="0.00045"></path>
<path d="M0.437 0.451 Q0.429 0.532 0.585 0.554" stroke="hsl(180.0,100%,35%)" stroke-width="0.00045"></path>
<path d="M0.437 0.451 Q1.021 0.808 1.846 0.602" stroke="hsl(180.0,100%,35%)" stroke-width="0.00045"></path>
<path d="M0.437 0.451 Q0.843 0.906 1.820 0.808" stroke="hsl(180.0,100%,35%)" stroke-width="0.00091"></path>
<path d="M0.419 0.758 Q0.712 0.709 0.681 0.555" stroke="hsl(180.0,100%,35%)" stroke-width="0.02196"></path>
<path d="M0.419 0.758 Q0.445 0.671 0.282 0.639" stroke="hsl(180.0,100%,35%)" stroke-width="0.01245"></path>
<path d="M0.419 0.758 Q1.257 0.965 1.846 0.602" stroke="hsl(180.0,100%,35%)" stroke-width="0.00249"></path>
<path d="M0.419 0.758 Q1.080 1.063 1.820 0.808" stroke="hsl(180.0,100%,35%)" stroke-width="0.01155"></path>
<path d="M0.419 0.758 Q0.878 0.604 0.678 0.347" stroke="hsl(180.0,100%,35%)" stroke-width="0.00045"></path>
<path d="M0.419 0.758 Q1.101 0.604 0.951 0.238" stroke="hsl(180.0,100%,35%)" stroke-width="0.00023"></path>
<path d="M0.419 0.758 Q1.006 0.538 0.707 0.204" stroke="hsl(180.0,100%,35%)" stroke-width="0.00657"></path>
<path d="M0.419 0.758 Q1.139 0.478 0.752 0.065" stroke="hsl(180.0,100%,35%)" stroke-width="0.00136"></path>
<path d="M0.419 0.758 Q0.846 0.498 0.433 0.233" stroke="hsl(180.0,100%,35%)" stroke-width="0.00045"></path>
<path d="M0.419 0.758 Q0.874 0.672 0.807 0.432" stroke="hsl(180.0,100%,35%)" stroke-width="0.00045"></path>
<path d="M0.419 0.758 Q1.130 0.877 1.520 0.557" stroke="hsl(180.0,100%,35%)" stroke-width="0.00023"></path>
<path d="M0.419 0.758 Q0.402 0.805 0.492 0.824" stroke="hsl(180.0,100%,35%)" stroke-width="0.00045"></path>
<path d="M0.419 0.758 Q0.796 0.535 0.445 0.302" stroke="hsl(180.0,100%,35%)" stroke-width="0.00023"></path>
<path d="M0.419 0.758 Q1.258 0.534 1.007 0.076" stroke="hsl(180.0,100%,35%)" stroke-width="0.00045"></path>
<path d="M0.585 0.554 Q0.365 0.536 0.282 0.639" stroke="hsl(180.0,100%,35%)" stroke-width="0.00091"></path>
<path d="M0.585 0.554 Q0.632 0.573 0.681 0.555" stroke="hsl(180.0,100%,35%)" stroke-width="0.00181"></path>
<path d="M0.585 0.554 Q0.999 0.928 1.820 0.808" stroke="hsl(180.0,100%,35%)" stroke-width="0.00113"></path>
<path d="M0.585 0.554 Q1.059 0.343 0.752 0.065" stroke="hsl(180.0,100%,35%)" stroke-width="0.00023"></path>
<path d="M0.585 0.554 Q0.900 0.727 1.307 0.612" stroke="hsl(180.0,100%,35%)" stroke-width="0.00023"></path>
<path d="M0.585 0.554 Q0.570 0.709 0.870 0.751" stroke="hsl(180.0,100%,35%)" stroke-width="0.00023"></path>
<path d="M0.486 0.653 Q0.661 0.643 0.681 0.555" stroke="hsl(180.0,100%,35%)" stroke-width="0.00249"></path>
<path d="M0.486 0.653 Q0.394 0.605 0.282 0.639" stroke="hsl(180.0,100%,35%)" stroke-width="0.00362"></path>
<path d="M0.486 0.653 Q1.089 0.412 0.752 0.065" stroke="hsl(180.0,100%,35%)" stroke-width="0.00023"></path>
<path d="M0.492 0.824 Q0.802 0.727 0.681 0.555" stroke="hsl(180.0,100%,35%)" stroke-width="0.00045"></path>
<path d="M0.492 0.824 Q0.535 0.690 0.282 0.639" stroke="hsl(180.0,100%,35%)" stroke-width="0.00045"></path>
<path d="M0.492 0.824 Q1.178 0.976 1.625 0.675" stroke="hsl(180.0,100%,35%)" stroke-width="0.00045"></path>
<path d="M0.492 0.824 Q1.229 0.497 0.752 0.065" stroke="hsl(180.0,100%,35%)" stroke-width="0.00045"></path>
<path d="M0.492 0.824 Q1.347 0.984 1.846 0.602" stroke="hsl(180.0,100%,35%)" stroke-width="0.00023"></path>
<path d="M0.492 0.824 Q1.169 1.082 1.820 0.808" stroke="hsl(180.0,100%,35%)" stroke-width="0.00023"></path>
<path d="M0.138 0.750 Q0.566 0.761 0.681 0.555" stroke="hsl(180.0,100%,35%)" stroke-width="0.00068"></path>
<path d="M0.138 0.750 Q0.299 0.724 0.282 0.639" stroke="hsl(180.0,100%,35%)" stroke-width="0.00068"></path>
<path d="M0.138 0.750 Q1.111 1.018 1.846 0.602" stroke="hsl(180.0,100%,35%)" stroke-width="0.00023"></path>
<path d="M1.248 0.963 Q1.291 0.646 0.681 0.555" stroke="hsl(180.0,100%,35%)" stroke-width="0.00226"></path>
<path d="M1.248 0.963 Q1.024 0.608 0.282 0.639" stroke="hsl(180.0,100%,35%)" stroke-width="0.00204"></path>
<path d="M1.248 0.963 Q1.111 0.897 0.952 0.949" stroke="hsl(180.0,100%,35%)" stroke-width="0.00158"></path>
<path d="M1.248 0.963 Q1.252 0.545 0.437 0.451" stroke="hsl(180.0,100%,35%)" stroke-width="0.00045"></path>
<path d="M1.248 0.963 Q1.658 1.000 1.820 0.808" stroke="hsl(180.0,100%,35%)" stroke-width="0.00045"></path>
<path d="M1.248 0.963 Q1.244 0.626 0.585 0.554" stroke="hsl(180.0,100%,35%)" stroke-width="0.00023"></path>
<path d="M1.248 0.963 Q1.584 0.476 0.707 0.204" stroke="hsl(180.0,100%,35%)" stroke-width="0.00023"></path>
<path d="M0.070 0.586 Q0.134 0.655 0.282 0.639" stroke="hsl(180.0,100%,35%)" stroke-width="0.00181"></path>
<path d="M0.070 0.586 Q0.221 0.944 0.952 0.949" stroke="hsl(180.0,100%,35%)" stroke-width="0.00023"></path>
<path d="M0.070 0.586 Q0.401 0.693 0.681 0.555" stroke="hsl(180.0,100%,35%)" stroke-width="0.00113"></path>
<path d="M0.070 0.586 Q0.828 0.462 0.752 0.065" stroke="hsl(180.0,100%,35%)" stroke-width="0.00023"></path>
<path d="M0.070 0.586 Q0.768 1.047 1.820 0.808" stroke="hsl(180.0,100%,35%)" stroke-width="0.00045"></path>
<path d="M0.070 0.586 Q0.777 0.942 1.625 0.675" stroke="hsl(180.0,100%,35%)" stroke-width="0.00091"></path>
<path d="M0.070 0.586 Q0.108 0.742 0.419 0.758" stroke="hsl(180.0,100%,35%)" stroke-width="0.00023"></path>
<path d="M0.950 0.599 Q1.218 0.877 1.820 0.808" stroke="hsl(180.0,100%,35%)" stroke-width="0.00023"></path>
<path d="M0.950 0.599 Q0.850 0.523 0.681 0.555" stroke="hsl(180.0,100%,35%)" stroke-width="0.00023"></path>
<path d="M0.950 0.599 Q1.277 0.292 0.752 0.065" stroke="hsl(180.0,100%,35%)" stroke-width="0.00023"></path>
<path d="M0.490 0.710 Q0.709 0.671 0.681 0.555" stroke="hsl(180.0,100%,35%)" stroke-width="0.00226"></path>
<path d="M0.490 0.710 Q1.255 0.927 1.846 0.602" stroke="hsl(180.0,100%,35%)" stroke-width="0.00045"></path>
<path d="M0.490 0.710 Q0.417 0.720 0.419 0.758" stroke="hsl(180.0,100%,35%)" stroke-width="0.00113"></path>
<path d="M0.490 0.710 Q0.442 0.633 0.282 0.639" stroke="hsl(180.0,100%,35%)" stroke-width="0.00113"></path>
<path d="M0.490 0.710 Q1.077 1.025 1.820 0.808" stroke="hsl(180.0,100%,35%)" stroke-width="0.00023"></path>
<path d="M0.161 0.461 Q0.078 0.574 0.282 0.639" stroke="hsl(180.0,100%,35%)" stroke-width="0.00091"></path>
<path d="M0.161 0.461 Q0.891 0.868 1.846 0.602" stroke="hsl(180.0,100%,35%)" stroke-width="0.00045"></path>
<path d="M0.161 0.461 Q0.773 0.381 0.752 0.065" stroke="hsl(180.0,100%,35%)" stroke-width="0.00023"></path>
<path d="M0.161 0.461 Q0.053 0.661 0.419 0.758" stroke="hsl(180.0,100%,35%)" stroke-width="0.00023"></path>
<path d="M1.016 0.469 Q1.207 0.214 0.752 0.065" stroke="hsl(0.0,100%,35%)" stroke-width="0.00023"></path>
<path d="M1.016 0.469 Q1.085 0.423 1.010 0.379" stroke="hsl(0.0,100%,35%)" stroke-width="0.00023"></path>
<path d="M1.016 0.469 Q1.073 0.275 0.707 0.204" stroke="hsl(0.0,100%,35%)" stroke-width="0.00023"></path>
<path d="M1.530 0.817 Q1.315 0.516 0.681 0.555" stroke="hsl(180.0,100%,35%)" stroke-width="0.00023"></path>
<path d="M1.530 0.817 Q1.742 0.285 0.752 0.065" stroke="hsl(180.0,100%,35%)" stroke-width="0.00023"></path>
<path d="M1.530 0.817 Q1.682 0.870 1.820 0.808" stroke="hsl(180.0,100%,35%)" stroke-width="0.00045"></path>
<path d="M0.560 -0.003 Q0.467 0.130 0.707 0.204" stroke="hsl(180.0,100%,35%)" stroke-width="0.00091"></path>
<path d="M0.560 -0.003 Q0.174 0.300 0.681 0.555" stroke="hsl(180.0,100%,35%)" stroke-width="0.00068"></path>
<path d="M0.560 -0.003 Q0.127 0.280 0.585 0.554" stroke="hsl(180.0,100%,35%)" stroke-width="0.00023"></path>
<path d="M0.560 -0.003 Q0.541 0.654 1.820 0.808" stroke="hsl(180.0,100%,35%)" stroke-width="0.00023"></path>
<path d="M0.560 -0.003 Q0.339 0.195 0.678 0.347" stroke="hsl(180.0,100%,35%)" stroke-width="0.00023"></path>
<path d="M0.522 0.561 Q0.339 0.552 0.282 0.639" stroke="hsl(180.0,100%,35%)" stroke-width="0.00091"></path>
<path d="M0.522 0.561 Q1.153 0.415 1.007 0.076" stroke="hsl(180.0,100%,35%)" stroke-width="0.00023"></path>
<path d="M0.522 0.561 Q0.606 0.590 0.681 0.555" stroke="hsl(180.0,100%,35%)" stroke-width="0.00045"></path>
<path d="M0.522 0.561 Q0.974 0.944 1.820 0.808" stroke="hsl(180.0,100%,35%)" stroke-width="0.00023"></path>
<path d="M0.522 0.561 Q1.152 0.846 1.846 0.602" stroke="hsl(180.0,100%,35%)" stroke-width="0.00023"></path>
<path d="M1.062 -0.263 Q0.217 0.070 0.681 0.555" stroke="hsl(0.0,100%,35%)" stroke-width="0.00045"></path>
<path d="M1.062 -0.263 Q0.350 -0.141 0.433 0.233" stroke="hsl(0.0,100%,35%)" stroke-width="0.00023"></path>
<path d="M1.062 -0.263 Q0.644 -0.161 0.752 0.065" stroke="hsl(0.0,100%,35%)" stroke-width="0.00023"></path>
<path d="M1.062 -0.263 Q0.763 -0.105 1.007 0.076" stroke="hsl(0.0,100%,35%)" stroke-width="0.00023"></path>
<path d="M1.062 -0.263 Q0.510 -0.100 0.707 0.204" stroke="hsl(0.0,100%,35%)" stroke-width="0.00023"></path>
<path d="M0.590 0.979 Q0.975 0.785 0.681 0.555" stroke="hsl(180.0,100%,35%)" stroke-width="0.00023"></path>
<path d="M0.590 0.979 Q0.950 0.875 0.827 0.677" stroke="hsl(180.0,100%,35%)" stroke-width="0.00023"></path>
<path d="M0.590 0.979 Q0.710 0.939 0.659 0.872" stroke="hsl(180.0,100%,35%)" stroke-width="0.00023"></path>
<path d="M1.894 0.707 Q1.409 0.389 0.681 0.555" stroke="hsl(180.0,100%,35%)" stroke-width="0.00023"></path>
<path d="M1.894 0.707 Q1.777 0.743 1.820 0.808" stroke="hsl(180.0,100%,35%)" stroke-width="0.00136"></path>
<path d="M1.894 0.707 Q1.954 0.645 1.846 0.602" stroke="hsl(180.0,100%,35%)" stroke-width="0.00045"></path>
<path d="M1.894 0.707 Q1.796 0.085 0.560 -0.003" stroke="hsl(180.0,100%,35%)" stroke-width="0.00045"></path>
<path d="M0.537 0.599 Q0.377 0.568 0.282 0.639" stroke="hsl(180.0,100%,35%)" stroke-width="0.00113"></path>
<path d="M0.537 0.599 Q0.351 0.655 0.419 0.758" stroke="hsl(180.0,100%,35%)" stroke-width="0.00045"></path>
<path d="M0.537 0.599 Q1.302 0.482 1.242 0.083" stroke="hsl(180.0,100%,35%)" stroke-width="0.00113"></path>
<path d="M0.537 0.599 Q0.937 0.435 0.707 0.204" stroke="hsl(180.0,100%,35%)" stroke-width="0.00023"></path>
<path d="M0.537 0.599 Q1.190 0.431 1.007 0.076" stroke="hsl(180.0,100%,35%)" stroke-width="0.00023"></path>
<path d="M0.537 0.599 Q0.644 0.606 0.681 0.555" stroke="hsl(180.0,100%,35%)" stroke-width="0.00181"></path>
<path d="M0.537 0.599 Q1.011 0.960 1.820 0.808" stroke="hsl(180.0,100%,35%)" stroke-width="0.00023"></path>
<path d="M0.537 0.599 Q1.189 0.862 1.846 0.602" stroke="hsl(180.0,100%,35%)" stroke-width="0.00023"></path>
</g>
<text x="0.433" y="0.213" font-size="0.039535" fill="hsl(0.0,100%,20%)">amaiorano</text>
<text x="0.951" y="0.216" font-size="0.044234" fill="hsl(0.0,100%,20%)">bclayton</text>
<text x="0.282" y="0.611" font-size="0.056318" fill="hsl(180.0,100%,20%)">enga</text>
<text x="0.221" y="0.701" font-size="0.013720" fill="hsl(180.0,100%,20%)">ynovikov</text>
<text x="0.681" y="0.522" font-size="0.066233" fill="hsl(180.0,100%,20%)">cwallez</text>
<text x="0.678" y="0.328" font-size="0.038140" fill="hsl(0.0,100%,20%)">rharrison</text>
<text x="0.211" y="0.756" font-size="0.024706" fill="hsl(180.0,100%,20%)">bsheedy</text>
<text x="0.469" y="0.064" font-size="0.016547" fill="hsl(0.0,100%,20%)">chouinard</text>
<text x="0.752" y="0.026" font-size="0.079215" fill="hsl(0.0,100%,20%)">dsinclair</text>
<text x="0.707" y="0.163" font-size="0.083115" fill="hsl(0.0,100%,20%)">jrprice</text>
<text x="0.445" y="0.300" font-size="0.004777" fill="hsl(180.0,100%,20%)">kbr</text>
<text x="0.780" y="0.275" font-size="0.016199" fill="hsl(0.0,100%,20%)">petermcneeley</text>
<text x="1.007" y="0.061" font-size="0.029349" fill="hsl(0.0,100%,20%)">dneto</text>
<text x="1.846" y="0.582" font-size="0.039751" fill="hsl(180.0,100%,20%)">kainino</text>
<text x="0.810" y="0.803" font-size="0.004137" fill="hsl(180.0,100%,20%)">amir</text>
<text x="1.625" y="0.668" font-size="0.014916" fill="hsl(180.0,100%,20%)">bajones</text>
<text x="0.573" y="0.719" font-size="0.019983" fill="hsl(180.0,100%,20%)">jaswant.panchumarti</text>
<text x="1.820" y="0.782" font-size="0.051281" fill="hsl(180.0,100%,20%)">lokokung</text>
<text x="0.807" y="0.423" font-size="0.017388" fill="hsl(180.0,100%,20%)">gman</text>
<text x="1.520" y="0.546" font-size="0.022278" fill="hsl(180.0,100%,20%)">beaufort.francois</text>
<text x="1.279" y="0.421" font-size="0.023884" fill="hsl(180.0,100%,20%)">shrekshao</text>
<text x="1.242" y="0.078" font-size="0.009250" fill="hsl(180.0,100%,20%)">alanbaker</text>
<text x="0.659" y="0.865" font-size="0.014330" fill="hsl(180.0,100%,20%)">bentonian</text>
<text x="1.070" y="0.686" font-size="0.011203" fill="hsl(180.0,100%,20%)">nexa</text>
<text x="0.827" y="0.664" font-size="0.024706" fill="hsl(180.0,100%,20%)">jimblackler</text>
<text x="0.312" y="0.336" font-size="0.013082" fill="hsl(180.0,100%,20%)">blundell</text>
<text x="0.381" y="0.387" font-size="0.004137" fill="hsl(180.0,100%,20%)">nicolettep</text>
<text x="0.451" y="0.584" font-size="0.011454" fill="hsl(180.0,100%,20%)">kylechar</text>
<text x="0.603" y="0.681" font-size="0.007921" fill="hsl(180.0,100%,20%)">brandon1.jones</text>
<text x="0.099" y="0.779" font-size="0.002388" fill="hsl(180.0,100%,20%)">chanli</text>
<text x="1.307" y="0.600" font-size="0.023644" fill="hsl(180.0,100%,20%)">senorblanco</text>
<text x="0.952" y="0.941" font-size="0.015293" fill="hsl(180.0,100%,20%)">penghuang</text>
<text x="0.491" y="0.563" font-size="0.004137" fill="hsl(180.0,100%,20%)">fbeaufort</text>
<text x="0.889" y="0.475" font-size="0.008274" fill="hsl(180.0,100%,20%)">shaobo.yan</text>
<text x="0.437" y="0.441" font-size="0.020546" fill="hsl(180.0,100%,20%)">lehoangquyen</text>
<text x="0.419" y="0.737" font-size="0.040321" fill="hsl(180.0,100%,20%)">jiawei.shao</text>
<text x="0.585" y="0.546" font-size="0.015662" fill="hsl(180.0,100%,20%)">geofflang</text>
<text x="0.843" y="0.617" font-size="0.002388" fill="hsl(180.0,100%,20%)">tiszka</text>
<text x="0.473" y="0.462" font-size="0.002388" fill="hsl(180.0,100%,20%)">arthursonzogni</text>
<text x="0.486" y="0.646" font-size="0.012862" fill="hsl(180.0,100%,20%)">hitawala</text>
<text x="0.492" y="0.820" font-size="0.008612" fill="hsl(180.0,100%,20%)">rafael.cintron</text>
<text x="1.160" y="0.113" font-size="0.002388" fill="hsl(0.0,100%,20%)">yiwzhang</text>
<text x="0.835" y="-4.202" font-size="0.002388" fill="hsl(0.0,100%,20%)">ddoman</text>
<text x="0.138" y="0.747" font-size="0.006319" fill="hsl(180.0,100%,20%)">elie.michel.fr</text>
<text x="1.248" y="0.956" font-size="0.013720" fill="hsl(180.0,100%,20%)">jie.a.chen</text>
<text x="0.070" y="0.581" font-size="0.011454" fill="hsl(180.0,100%,20%)">sunnyps</text>
<text x="0.870" y="0.750" font-size="0.002388" fill="hsl(180.0,100%,20%)">fmalita</text>
<text x="0.950" y="0.596" font-size="0.004137" fill="hsl(180.0,100%,20%)">hans</text>
<text x="0.490" y="0.704" font-size="0.011454" fill="hsl(180.0,100%,20%)">hao.x.li</text>
<text x="0.161" y="0.457" font-size="0.006755" fill="hsl(180.0,100%,20%)">hocheung</text>
<text x="0.934" y="0.775" font-size="0.002388" fill="hsl(180.0,100%,20%)">artyompp</text>
<text x="0.745" y="0.757" font-size="0.002388" fill="hsl(180.0,100%,20%)">vantablack</text>
<text x="1.058" y="0.617" font-size="0.002388" fill="hsl(180.0,100%,20%)">mako</text>
<text x="1.016" y="0.467" font-size="0.004137" fill="hsl(0.0,100%,20%)">jojwang</text>
<text x="1.010" y="0.378" font-size="0.002388" fill="hsl(0.0,100%,20%)">gavinmak</text>
<text x="0.629" y="0.287" font-size="0.002388" fill="hsl(0.0,100%,20%)">johnstiles</text>
<text x="1.530" y="0.814" font-size="0.004777" fill="hsl(180.0,100%,20%)">nickchavez</text>
<text x="0.560" y="-0.008" font-size="0.008274" fill="hsl(180.0,100%,20%)">shaoboyan</text>
<text x="0.522" y="0.558" font-size="0.007165" fill="hsl(180.0,100%,20%)">srijan.dhungana6</text>
<text x="1.062" y="-0.266" font-size="0.005850" fill="hsl(0.0,100%,20%)">tikuta</text>
<text x="0.590" y="0.977" font-size="0.004137" fill="hsl(180.0,100%,20%)">vrepets</text>
<text x="1.894" y="0.703" font-size="0.007921" fill="hsl(180.0,100%,20%)">yulong.fs</text>
<text x="0.537" y="0.593" font-size="0.011701" fill="hsl(180.0,100%,20%)">zhaoming.jiang</text>
</svg>
