<svg width="4000" height="2000" viewBox="-0.025 -0.025 2.05 1.05" xmlns="http://www.w3.org/2000/svg">
  <style>
    path {
      fill: none;
      stroke-linecap: round;
      stroke-opacity: 0.4;
    }

    text {
      text-anchor: middle;
      alignment-baseline: hanging;
    }
  </style>
  <g opacity="0.4">
<path d="M0.925 0.794 Q1.031 0.773 1.015 0.717" stroke="hsl(0.0,100%,35%)" stroke-width="0.00510"></path>
<path d="M0.925 0.794 Q0.893 0.706 0.715 0.702" stroke="hsl(0.0,100%,35%)" stroke-width="0.00377"></path>
<path d="M0.925 0.794 Q0.937 0.590 0.544 0.540" stroke="hsl(0.0,100%,35%)" stroke-width="0.00022"></path>
<path d="M0.925 0.794 Q1.105 0.314 0.210 0.122" stroke="hsl(0.0,100%,35%)" stroke-width="0.00044"></path>
<path d="M1.015 0.717 Q0.921 0.534 0.544 0.540" stroke="hsl(0.0,100%,35%)" stroke-width="0.00155"></path>
<path d="M1.015 0.717 Q0.877 0.649 0.715 0.702" stroke="hsl(0.0,100%,35%)" stroke-width="0.01509"></path>
<path d="M1.015 0.717 Q0.671 0.710 0.583 0.876" stroke="hsl(0.0,100%,35%)" stroke-width="0.00377"></path>
<path d="M1.015 0.717 Q1.463 0.720 1.568 0.502" stroke="hsl(0.0,100%,35%)" stroke-width="0.00466"></path>
<path d="M1.015 0.717 Q0.917 0.842 1.140 0.917" stroke="hsl(0.0,100%,35%)" stroke-width="0.00599"></path>
<path d="M1.015 0.717 Q1.132 0.681 1.088 0.616" stroke="hsl(0.0,100%,35%)" stroke-width="0.00155"></path>
<path d="M1.015 0.717 Q0.909 0.737 0.925 0.794" stroke="hsl(0.0,100%,35%)" stroke-width="0.00067"></path>
<path d="M1.015 0.717 Q0.904 0.722 0.889 0.777" stroke="hsl(0.0,100%,35%)" stroke-width="0.00067"></path>
<path d="M1.015 0.717 Q1.037 0.593 0.799 0.554" stroke="hsl(0.0,100%,35%)" stroke-width="0.00089"></path>
<path d="M0.715 0.702 Q0.759 0.587 0.544 0.540" stroke="hsl(0.0,100%,35%)" stroke-width="0.05769"></path>
<path d="M0.715 0.702 Q0.755 0.894 1.140 0.917" stroke="hsl(0.0,100%,35%)" stroke-width="0.02818"></path>
<path d="M0.715 0.702 Q0.970 0.734 1.088 0.616" stroke="hsl(0.0,100%,35%)" stroke-width="0.04682"></path>
<path d="M0.715 0.702 Q0.510 0.763 0.583 0.876" stroke="hsl(0.0,100%,35%)" stroke-width="0.05414"></path>
<path d="M0.715 0.702 Q0.853 0.769 1.015 0.717" stroke="hsl(0.0,100%,35%)" stroke-width="0.00732"></path>
<path d="M0.715 0.702 Q0.661 0.441 0.140 0.410" stroke="hsl(0.0,100%,35%)" stroke-width="0.00044"></path>
<path d="M0.715 0.702 Q1.302 0.772 1.568 0.502" stroke="hsl(0.0,100%,35%)" stroke-width="0.01331"></path>
<path d="M0.715 0.702 Q0.760 0.811 0.983 0.812" stroke="hsl(0.0,100%,35%)" stroke-width="0.00155"></path>
<path d="M0.715 0.702 Q0.672 0.704 0.666 0.725" stroke="hsl(0.0,100%,35%)" stroke-width="0.00133"></path>
<path d="M0.715 0.702 Q0.926 0.311 0.210 0.122" stroke="hsl(0.0,100%,35%)" stroke-width="0.00044"></path>
<path d="M0.715 0.702 Q0.449 0.525 0.046 0.616" stroke="hsl(0.0,100%,35%)" stroke-width="0.00022"></path>
<path d="M0.715 0.702 Q0.787 0.342 0.101 0.228" stroke="hsl(0.0,100%,35%)" stroke-width="0.00022"></path>
<path d="M0.715 0.702 Q1.065 0.585 0.915 0.389" stroke="hsl(0.0,100%,35%)" stroke-width="0.00022"></path>
<path d="M0.715 0.702 Q1.139 0.749 1.324 0.552" stroke="hsl(0.0,100%,35%)" stroke-width="0.00044"></path>
<path d="M0.715 0.702 Q0.875 0.645 0.799 0.554" stroke="hsl(0.0,100%,35%)" stroke-width="0.01220"></path>
<path d="M0.544 0.540 Q0.500 0.655 0.715 0.702" stroke="hsl(0.0,100%,35%)" stroke-width="0.03151"></path>
<path d="M0.544 0.540 Q0.295 0.716 0.583 0.876" stroke="hsl(0.0,100%,35%)" stroke-width="0.00311"></path>
<path d="M0.544 0.540 Q0.755 0.687 1.088 0.616" stroke="hsl(0.0,100%,35%)" stroke-width="0.00333"></path>
<path d="M0.544 0.540 Q0.540 0.848 1.140 0.917" stroke="hsl(0.0,100%,35%)" stroke-width="0.00200"></path>
<path d="M0.544 0.540 Q1.087 0.726 1.568 0.502" stroke="hsl(0.0,100%,35%)" stroke-width="0.00067"></path>
<path d="M0.210 0.122 Q0.136 0.580 1.015 0.717" stroke="hsl(0.0,100%,35%)" stroke-width="0.00089"></path>
<path d="M0.210 0.122 Q-0.002 0.513 0.715 0.702" stroke="hsl(0.0,100%,35%)" stroke-width="0.00133"></path>
<path d="M0.210 0.122 Q0.030 0.601 0.925 0.794" stroke="hsl(0.0,100%,35%)" stroke-width="0.00044"></path>
<path d="M0.210 0.122 Q0.070 0.153 0.101 0.228" stroke="hsl(0.0,100%,35%)" stroke-width="0.00044"></path>
<path d="M0.210 0.122 Q0.253 0.544 1.088 0.616" stroke="hsl(0.0,100%,35%)" stroke-width="0.00022"></path>
<path d="M0.210 0.122 Q0.158 0.456 0.799 0.554" stroke="hsl(0.0,100%,35%)" stroke-width="0.00022"></path>
<path d="M1.503 0.949 Q1.347 0.861 1.140 0.917" stroke="hsl(180.0,100%,35%)" stroke-width="0.00044"></path>
<path d="M1.503 0.949 Q1.894 0.738 1.568 0.502" stroke="hsl(180.0,100%,35%)" stroke-width="0.00022"></path>
<path d="M1.503 0.949 Q1.307 0.668 0.715 0.702" stroke="hsl(180.0,100%,35%)" stroke-width="0.00022"></path>
<path d="M1.140 0.917 Q1.099 0.724 0.715 0.702" stroke="hsl(180.0,100%,35%)" stroke-width="0.01309"></path>
<path d="M1.140 0.917 Q1.686 0.795 1.568 0.502" stroke="hsl(180.0,100%,35%)" stroke-width="0.02773"></path>
<path d="M1.140 0.917 Q1.754 0.871 1.798 0.561" stroke="hsl(180.0,100%,35%)" stroke-width="0.00399"></path>
<path d="M1.140 0.917 Q0.894 0.785 0.583 0.876" stroke="hsl(180.0,100%,35%)" stroke-width="0.00044"></path>
<path d="M1.140 0.917 Q1.045 0.464 0.140 0.410" stroke="hsl(180.0,100%,35%)" stroke-width="0.00777"></path>
<path d="M1.140 0.917 Q1.237 0.792 1.015 0.717" stroke="hsl(180.0,100%,35%)" stroke-width="0.00200"></path>
<path d="M1.140 0.917 Q0.834 0.548 0.046 0.616" stroke="hsl(180.0,100%,35%)" stroke-width="0.00222"></path>
<path d="M1.140 0.917 Q1.351 0.961 1.482 0.867" stroke="hsl(180.0,100%,35%)" stroke-width="0.00044"></path>
<path d="M1.140 0.917 Q1.358 0.898 1.369 0.787" stroke="hsl(180.0,100%,35%)" stroke-width="0.00044"></path>
<path d="M1.140 0.917 Q1.386 0.855 1.319 0.722" stroke="hsl(180.0,100%,35%)" stroke-width="0.00022"></path>
<path d="M1.140 0.917 Q1.642 0.695 1.319 0.402" stroke="hsl(180.0,100%,35%)" stroke-width="0.00022"></path>
<path d="M1.140 0.917 Q1.145 0.833 0.983 0.812" stroke="hsl(180.0,100%,35%)" stroke-width="0.00577"></path>
<path d="M1.140 0.917 Q1.834 0.718 1.598 0.336" stroke="hsl(180.0,100%,35%)" stroke-width="0.00022"></path>
<path d="M1.140 0.917 Q1.863 0.832 1.857 0.461" stroke="hsl(180.0,100%,35%)" stroke-width="0.00311"></path>
<path d="M1.140 0.917 Q1.837 0.608 1.387 0.201" stroke="hsl(180.0,100%,35%)" stroke-width="0.00022"></path>
<path d="M1.140 0.917 Q1.462 0.535 0.788 0.294" stroke="hsl(180.0,100%,35%)" stroke-width="0.00022"></path>
<path d="M1.140 0.917 Q1.355 0.756 1.088 0.616" stroke="hsl(180.0,100%,35%)" stroke-width="0.00022"></path>
<path d="M1.140 0.917 Q1.127 0.797 0.889 0.777" stroke="hsl(180.0,100%,35%)" stroke-width="0.00022"></path>
<path d="M1.140 0.917 Q0.965 0.890 0.873 0.969" stroke="hsl(180.0,100%,35%)" stroke-width="0.00044"></path>
<path d="M1.140 0.917 Q1.144 0.609 0.544 0.540" stroke="hsl(180.0,100%,35%)" stroke-width="0.00022"></path>
<path d="M1.568 0.502 Q1.635 0.577 1.798 0.561" stroke="hsl(180.0,100%,35%)" stroke-width="0.00510"></path>
<path d="M1.568 0.502 Q0.716 0.254 0.046 0.616" stroke="hsl(180.0,100%,35%)" stroke-width="0.00377"></path>
<path d="M1.568 0.502 Q1.021 0.624 1.140 0.917" stroke="hsl(180.0,100%,35%)" stroke-width="0.01575"></path>
<path d="M1.568 0.502 Q1.715 0.425 1.598 0.336" stroke="hsl(180.0,100%,35%)" stroke-width="0.00067"></path>
<path d="M1.568 0.502 Q0.927 0.170 0.140 0.410" stroke="hsl(180.0,100%,35%)" stroke-width="0.00244"></path>
<path d="M1.568 0.502 Q1.233 0.667 1.482 0.867" stroke="hsl(180.0,100%,35%)" stroke-width="0.00044"></path>
<path d="M1.568 0.502 Q1.745 0.539 1.857 0.461" stroke="hsl(180.0,100%,35%)" stroke-width="0.00377"></path>
<path d="M1.568 0.502 Q1.025 0.316 0.544 0.540" stroke="hsl(180.0,100%,35%)" stroke-width="0.00022"></path>
<path d="M1.568 0.502 Q1.119 0.499 1.015 0.717" stroke="hsl(180.0,100%,35%)" stroke-width="0.00044"></path>
<path d="M1.568 0.502 Q0.776 0.492 0.583 0.876" stroke="hsl(180.0,100%,35%)" stroke-width="0.00089"></path>
<path d="M1.568 0.502 Q1.581 0.245 1.083 0.183" stroke="hsl(180.0,100%,35%)" stroke-width="0.00044"></path>
<path d="M1.568 0.502 Q0.981 0.431 0.715 0.702" stroke="hsl(180.0,100%,35%)" stroke-width="0.00288"></path>
<path d="M1.568 0.502 Q1.237 0.463 1.088 0.616" stroke="hsl(180.0,100%,35%)" stroke-width="0.00022"></path>
<path d="M1.568 0.502 Q1.027 0.540 0.983 0.812" stroke="hsl(180.0,100%,35%)" stroke-width="0.00466"></path>
<path d="M1.568 0.502 Q1.782 0.414 1.658 0.290" stroke="hsl(180.0,100%,35%)" stroke-width="0.00067"></path>
<path d="M1.568 0.502 Q1.572 0.374 1.323 0.344" stroke="hsl(180.0,100%,35%)" stroke-width="0.00022"></path>
<path d="M1.568 0.502 Q1.289 0.594 1.408 0.750" stroke="hsl(180.0,100%,35%)" stroke-width="0.00111"></path>
<path d="M1.134 0.418 Q0.737 0.668 1.140 0.917" stroke="hsl(180.0,100%,35%)" stroke-width="0.00022"></path>
<path d="M1.134 0.418 Q1.284 0.546 1.568 0.502" stroke="hsl(180.0,100%,35%)" stroke-width="0.00044"></path>
<path d="M1.134 0.418 Q0.697 0.476 0.715 0.702" stroke="hsl(180.0,100%,35%)" stroke-width="0.00022"></path>
<path d="M0.583 0.876 Q1.044 0.847 1.088 0.616" stroke="hsl(0.0,100%,35%)" stroke-width="0.00244"></path>
<path d="M0.583 0.876 Q0.788 0.815 0.715 0.702" stroke="hsl(0.0,100%,35%)" stroke-width="0.04371"></path>
<path d="M0.583 0.876 Q0.828 1.008 1.140 0.917" stroke="hsl(0.0,100%,35%)" stroke-width="0.00333"></path>
<path d="M0.583 0.876 Q0.832 0.700 0.544 0.540" stroke="hsl(0.0,100%,35%)" stroke-width="0.00222"></path>
<path d="M0.583 0.876 Q1.375 0.886 1.568 0.502" stroke="hsl(0.0,100%,35%)" stroke-width="0.00177"></path>
<path d="M0.583 0.876 Q0.745 0.817 0.666 0.725" stroke="hsl(0.0,100%,35%)" stroke-width="0.00044"></path>
<path d="M0.583 0.876 Q0.926 0.883 1.015 0.717" stroke="hsl(0.0,100%,35%)" stroke-width="0.00111"></path>
<path d="M0.583 0.876 Q0.734 0.554 0.140 0.410" stroke="hsl(0.0,100%,35%)" stroke-width="0.00022"></path>
<path d="M0.583 0.876 Q0.948 0.758 0.799 0.554" stroke="hsl(0.0,100%,35%)" stroke-width="0.00244"></path>
<path d="M1.088 0.616 Q0.833 0.584 0.715 0.702" stroke="hsl(0.0,100%,35%)" stroke-width="0.01620"></path>
<path d="M1.088 0.616 Q1.420 0.655 1.568 0.502" stroke="hsl(0.0,100%,35%)" stroke-width="0.00022"></path>
<path d="M1.088 0.616 Q0.877 0.469 0.544 0.540" stroke="hsl(0.0,100%,35%)" stroke-width="0.00311"></path>
<path d="M1.088 0.616 Q0.628 0.645 0.583 0.876" stroke="hsl(0.0,100%,35%)" stroke-width="0.01198"></path>
<path d="M1.088 0.616 Q1.257 0.631 1.324 0.552" stroke="hsl(0.0,100%,35%)" stroke-width="0.00865"></path>
<path d="M1.088 0.616 Q0.873 0.777 1.140 0.917" stroke="hsl(0.0,100%,35%)" stroke-width="0.00022"></path>
<path d="M1.088 0.616 Q0.971 0.652 1.015 0.717" stroke="hsl(0.0,100%,35%)" stroke-width="0.00044"></path>
<path d="M1.088 0.616 Q0.993 0.527 0.799 0.554" stroke="hsl(0.0,100%,35%)" stroke-width="0.00089"></path>
<path d="M0.140 0.410 Q0.234 0.864 1.140 0.917" stroke="hsl(180.0,100%,35%)" stroke-width="0.00688"></path>
<path d="M0.140 0.410 Q0.194 0.671 0.715 0.702" stroke="hsl(180.0,100%,35%)" stroke-width="0.00044"></path>
<path d="M0.140 0.410 Q0.781 0.742 1.568 0.502" stroke="hsl(180.0,100%,35%)" stroke-width="0.00732"></path>
<path d="M0.140 0.410 Q-0.072 0.494 0.046 0.616" stroke="hsl(180.0,100%,35%)" stroke-width="0.00466"></path>
<path d="M0.140 0.410 Q-0.011 0.732 0.583 0.876" stroke="hsl(180.0,100%,35%)" stroke-width="0.00022"></path>
<path d="M0.140 0.410 Q0.210 0.469 0.339 0.447" stroke="hsl(180.0,100%,35%)" stroke-width="0.00022"></path>
<path d="M0.046 0.616 Q0.898 0.863 1.568 0.502" stroke="hsl(180.0,100%,35%)" stroke-width="0.00200"></path>
<path d="M0.046 0.616 Q0.352 0.985 1.140 0.917" stroke="hsl(180.0,100%,35%)" stroke-width="0.00089"></path>
<path d="M0.046 0.616 Q0.965 0.939 1.798 0.561" stroke="hsl(180.0,100%,35%)" stroke-width="0.00044"></path>
<path d="M0.046 0.616 Q0.257 0.532 0.140 0.410" stroke="hsl(180.0,100%,35%)" stroke-width="0.00022"></path>
<path d="M0.983 0.812 Q0.937 0.704 0.715 0.702" stroke="hsl(180.0,100%,35%)" stroke-width="0.00976"></path>
<path d="M0.983 0.812 Q1.193 0.735 1.088 0.616" stroke="hsl(180.0,100%,35%)" stroke-width="0.00067"></path>
<path d="M0.983 0.812 Q0.732 0.764 0.583 0.876" stroke="hsl(180.0,100%,35%)" stroke-width="0.00067"></path>
<path d="M0.983 0.812 Q0.977 0.896 1.140 0.917" stroke="hsl(180.0,100%,35%)" stroke-width="0.00355"></path>
<path d="M0.983 0.812 Q1.524 0.774 1.568 0.502" stroke="hsl(180.0,100%,35%)" stroke-width="0.00488"></path>
<path d="M0.983 0.812 Q0.672 0.527 0.046 0.616" stroke="hsl(180.0,100%,35%)" stroke-width="0.00067"></path>
<path d="M0.666 0.725 Q0.709 0.723 0.715 0.702" stroke="hsl(0.0,100%,35%)" stroke-width="0.00777"></path>
<path d="M0.666 0.725 Q0.753 0.608 0.544 0.540" stroke="hsl(0.0,100%,35%)" stroke-width="0.00333"></path>
<path d="M0.666 0.725 Q0.504 0.784 0.583 0.876" stroke="hsl(0.0,100%,35%)" stroke-width="0.00155"></path>
<path d="M0.666 0.725 Q0.444 0.546 0.046 0.616" stroke="hsl(0.0,100%,35%)" stroke-width="0.00044"></path>
<path d="M0.915 0.389 Q0.605 0.698 1.140 0.917" stroke="hsl(180.0,100%,35%)" stroke-width="0.00177"></path>
<path d="M0.915 0.389 Q1.151 0.576 1.568 0.502" stroke="hsl(180.0,100%,35%)" stroke-width="0.00222"></path>
<path d="M0.915 0.389 Q0.299 0.328 0.046 0.616" stroke="hsl(180.0,100%,35%)" stroke-width="0.00044"></path>
<path d="M0.915 0.389 Q0.564 0.505 0.715 0.702" stroke="hsl(180.0,100%,35%)" stroke-width="0.00222"></path>
<path d="M0.915 0.389 Q0.702 0.573 1.015 0.717" stroke="hsl(180.0,100%,35%)" stroke-width="0.00022"></path>
<path d="M0.915 0.389 Q0.820 0.537 1.088 0.616" stroke="hsl(180.0,100%,35%)" stroke-width="0.00022"></path>
<path d="M0.915 0.389 Q1.164 0.319 1.083 0.183" stroke="hsl(180.0,100%,35%)" stroke-width="0.00044"></path>
<path d="M0.799 0.554 Q0.639 0.611 0.715 0.702" stroke="hsl(0.0,100%,35%)" stroke-width="0.00111"></path>
<path d="M0.799 0.554 Q0.777 0.679 1.015 0.717" stroke="hsl(0.0,100%,35%)" stroke-width="0.00155"></path>
<path d="M0.799 0.554 Q1.226 0.682 1.568 0.502" stroke="hsl(0.0,100%,35%)" stroke-width="0.00044"></path>
<path d="M0.799 0.554 Q0.679 0.804 1.140 0.917" stroke="hsl(0.0,100%,35%)" stroke-width="0.00022"></path>
<path d="M1.369 0.787 Q1.150 0.806 1.140 0.917" stroke="hsl(180.0,100%,35%)" stroke-width="0.00089"></path>
<path d="M1.369 0.787 Q1.697 0.684 1.568 0.502" stroke="hsl(180.0,100%,35%)" stroke-width="0.00022"></path>
<path d="M1.369 0.787 Q1.056 0.353 0.140 0.410" stroke="hsl(180.0,100%,35%)" stroke-width="0.00022"></path>
<path d="M1.658 0.290 Q1.443 0.378 1.568 0.502" stroke="hsl(180.0,100%,35%)" stroke-width="0.00288"></path>
<path d="M1.658 0.290 Q0.897 0.500 1.140 0.917" stroke="hsl(180.0,100%,35%)" stroke-width="0.00244"></path>
<path d="M1.658 0.290 Q1.456 0.121 1.083 0.183" stroke="hsl(180.0,100%,35%)" stroke-width="0.00044"></path>
<path d="M0.874 0.986 Q1.062 1.005 1.140 0.917" stroke="hsl(180.0,100%,35%)" stroke-width="0.00155"></path>
<path d="M0.874 0.986 Q1.609 0.883 1.568 0.502" stroke="hsl(180.0,100%,35%)" stroke-width="0.00067"></path>
<path d="M0.874 0.986 Q1.622 0.626 1.083 0.183" stroke="hsl(180.0,100%,35%)" stroke-width="0.00022"></path>
<path d="M1.798 0.561 Q0.878 0.238 0.046 0.616" stroke="hsl(180.0,100%,35%)" stroke-width="0.00067"></path>
<path d="M1.798 0.561 Q1.730 0.485 1.568 0.502" stroke="hsl(180.0,100%,35%)" stroke-width="0.00510"></path>
<path d="M1.798 0.561 Q1.184 0.607 1.140 0.917" stroke="hsl(180.0,100%,35%)" stroke-width="0.00266"></path>
<path d="M1.482 0.867 Q1.271 0.824 1.140 0.917" stroke="hsl(180.0,100%,35%)" stroke-width="0.00488"></path>
<path d="M1.482 0.867 Q1.818 0.701 1.568 0.502" stroke="hsl(180.0,100%,35%)" stroke-width="0.00311"></path>
<path d="M1.482 0.867 Q1.177 0.370 0.140 0.410" stroke="hsl(180.0,100%,35%)" stroke-width="0.00022"></path>
<path d="M1.482 0.867 Q1.995 0.739 1.857 0.461" stroke="hsl(180.0,100%,35%)" stroke-width="0.00133"></path>
<path d="M1.319 0.402 Q1.363 0.501 1.568 0.502" stroke="hsl(180.0,100%,35%)" stroke-width="0.00111"></path>
<path d="M1.319 0.402 Q0.817 0.624 1.140 0.917" stroke="hsl(180.0,100%,35%)" stroke-width="0.00067"></path>
<path d="M1.319 0.402 Q0.915 0.498 1.015 0.717" stroke="hsl(180.0,100%,35%)" stroke-width="0.00022"></path>
<path d="M1.319 0.402 Q0.777 0.431 0.715 0.702" stroke="hsl(180.0,100%,35%)" stroke-width="0.00044"></path>
<path d="M1.319 0.402 Q1.032 0.463 1.088 0.616" stroke="hsl(180.0,100%,35%)" stroke-width="0.00022"></path>
<path d="M1.598 0.336 Q1.451 0.413 1.568 0.502" stroke="hsl(180.0,100%,35%)" stroke-width="0.00399"></path>
<path d="M1.598 0.336 Q0.864 0.342 0.715 0.702" stroke="hsl(180.0,100%,35%)" stroke-width="0.00044"></path>
<path d="M1.598 0.336 Q0.904 0.535 1.140 0.917" stroke="hsl(180.0,100%,35%)" stroke-width="0.00222"></path>
<path d="M1.598 0.336 Q0.659 0.403 0.583 0.876" stroke="hsl(180.0,100%,35%)" stroke-width="0.00022"></path>
<path d="M1.598 0.336 Q1.002 0.410 1.015 0.717" stroke="hsl(180.0,100%,35%)" stroke-width="0.00044"></path>
<path d="M1.598 0.336 Q0.599 0.166 0.046 0.616" stroke="hsl(180.0,100%,35%)" stroke-width="0.00044"></path>
<path d="M1.857 0.461 Q1.679 0.423 1.568 0.502" stroke="hsl(180.0,100%,35%)" stroke-width="0.01132"></path>
<path d="M1.857 0.461 Q1.747 0.499 1.798 0.561" stroke="hsl(180.0,100%,35%)" stroke-width="0.00022"></path>
<path d="M1.857 0.461 Q1.133 0.546 1.140 0.917" stroke="hsl(180.0,100%,35%)" stroke-width="0.01109"></path>
<path d="M1.857 0.461 Q0.944 0.184 0.203 0.568" stroke="hsl(180.0,100%,35%)" stroke-width="0.00022"></path>
<path d="M1.857 0.461 Q1.386 0.571 1.497 0.824" stroke="hsl(180.0,100%,35%)" stroke-width="0.00022"></path>
<path d="M1.857 0.461 Q1.138 0.462 0.983 0.812" stroke="hsl(180.0,100%,35%)" stroke-width="0.00044"></path>
<path d="M1.857 0.461 Q0.827 0.176 0.046 0.616" stroke="hsl(180.0,100%,35%)" stroke-width="0.00044"></path>
<path d="M1.857 0.461 Q1.093 0.353 0.715 0.702" stroke="hsl(180.0,100%,35%)" stroke-width="0.00022"></path>
<path d="M1.857 0.461 Q1.231 0.420 1.015 0.717" stroke="hsl(180.0,100%,35%)" stroke-width="0.00044"></path>
<path d="M1.857 0.461 Q1.894 0.335 1.658 0.290" stroke="hsl(180.0,100%,35%)" stroke-width="0.00022"></path>
<path d="M1.857 0.461 Q1.443 0.236 0.915 0.389" stroke="hsl(180.0,100%,35%)" stroke-width="0.00022"></path>
<path d="M1.387 0.201 Q1.237 0.387 1.568 0.502" stroke="hsl(180.0,100%,35%)" stroke-width="0.00089"></path>
<path d="M1.387 0.201 Q1.414 0.425 1.857 0.461" stroke="hsl(180.0,100%,35%)" stroke-width="0.00067"></path>
<path d="M1.387 0.201 Q0.690 0.509 1.140 0.917" stroke="hsl(180.0,100%,35%)" stroke-width="0.00044"></path>
<path d="M1.387 0.201 Q1.250 0.131 1.083 0.183" stroke="hsl(180.0,100%,35%)" stroke-width="0.00044"></path>
<path d="M1.408 0.750 Q1.141 0.780 1.140 0.917" stroke="hsl(180.0,100%,35%)" stroke-width="0.00688"></path>
<path d="M1.408 0.750 Q1.687 0.658 1.568 0.502" stroke="hsl(180.0,100%,35%)" stroke-width="0.00799"></path>
<path d="M1.408 0.750 Q0.835 0.411 0.046 0.616" stroke="hsl(180.0,100%,35%)" stroke-width="0.00111"></path>
<path d="M1.408 0.750 Q1.864 0.695 1.857 0.461" stroke="hsl(180.0,100%,35%)" stroke-width="0.00133"></path>
<path d="M0.645 0.308 Q0.405 0.711 1.140 0.917" stroke="hsl(180.0,100%,35%)" stroke-width="0.00022"></path>
<path d="M0.645 0.308 Q0.606 0.235 0.456 0.239" stroke="hsl(180.0,100%,35%)" stroke-width="0.00022"></path>
<path d="M0.645 0.308 Q0.727 0.329 0.788 0.294" stroke="hsl(180.0,100%,35%)" stroke-width="0.00022"></path>
<path d="M0.203 0.568 Q0.392 0.930 1.140 0.917" stroke="hsl(180.0,100%,35%)" stroke-width="0.00244"></path>
<path d="M0.203 0.568 Q0.939 0.808 1.568 0.502" stroke="hsl(180.0,100%,35%)" stroke-width="0.00200"></path>
<path d="M0.203 0.568 Q0.086 0.560 0.046 0.616" stroke="hsl(180.0,100%,35%)" stroke-width="0.00044"></path>
<path d="M1.497 0.824 Q0.939 0.430 0.046 0.616" stroke="hsl(180.0,100%,35%)" stroke-width="0.00111"></path>
<path d="M1.497 0.824 Q1.638 0.868 1.754 0.809" stroke="hsl(180.0,100%,35%)" stroke-width="0.00022"></path>
<path d="M1.497 0.824 Q1.244 0.799 1.140 0.917" stroke="hsl(180.0,100%,35%)" stroke-width="0.00377"></path>
<path d="M1.497 0.824 Q1.791 0.677 1.568 0.502" stroke="hsl(180.0,100%,35%)" stroke-width="0.00266"></path>
<path d="M1.497 0.824 Q1.968 0.714 1.857 0.461" stroke="hsl(180.0,100%,35%)" stroke-width="0.00044"></path>
<path d="M1.497 0.824 Q1.204 0.607 0.715 0.702" stroke="hsl(180.0,100%,35%)" stroke-width="0.00022"></path>
<path d="M1.230 0.972 Q1.229 0.926 1.140 0.917" stroke="hsl(180.0,100%,35%)" stroke-width="0.00111"></path>
<path d="M1.230 0.972 Q1.775 0.804 1.568 0.502" stroke="hsl(180.0,100%,35%)" stroke-width="0.00111"></path>
<path d="M1.230 0.972 Q1.952 0.841 1.857 0.461" stroke="hsl(180.0,100%,35%)" stroke-width="0.00022"></path>
<path d="M1.195 0.475 Q0.814 0.685 1.140 0.917" stroke="hsl(180.0,100%,35%)" stroke-width="0.00266"></path>
<path d="M1.195 0.475 Q1.360 0.563 1.568 0.502" stroke="hsl(180.0,100%,35%)" stroke-width="0.00222"></path>
<path d="M1.195 0.475 Q1.286 0.519 1.391 0.484" stroke="hsl(180.0,100%,35%)" stroke-width="0.00022"></path>
<path d="M1.195 0.475 Q1.537 0.600 1.857 0.461" stroke="hsl(180.0,100%,35%)" stroke-width="0.00067"></path>
<path d="M1.245 0.768 Q1.171 0.696 1.015 0.717" stroke="hsl(180.0,100%,35%)" stroke-width="0.00022"></path>
<path d="M1.245 0.768 Q1.073 0.822 1.140 0.917" stroke="hsl(180.0,100%,35%)" stroke-width="0.00044"></path>
<path d="M1.245 0.768 Q0.768 0.452 0.046 0.616" stroke="hsl(180.0,100%,35%)" stroke-width="0.00022"></path>
<path d="M1.245 0.768 Q1.620 0.699 1.568 0.502" stroke="hsl(180.0,100%,35%)" stroke-width="0.00022"></path>
<path d="M1.657 0.813 Q1.862 0.640 1.568 0.502" stroke="hsl(180.0,100%,35%)" stroke-width="0.00067"></path>
<path d="M1.657 0.813 Q1.929 0.715 1.798 0.561" stroke="hsl(180.0,100%,35%)" stroke-width="0.00044"></path>
<path d="M1.657 0.813 Q1.315 0.762 1.140 0.917" stroke="hsl(180.0,100%,35%)" stroke-width="0.00022"></path>
<path d="M0.421 0.353 Q0.329 0.779 1.140 0.917" stroke="hsl(180.0,100%,35%)" stroke-width="0.00133"></path>
<path d="M0.421 0.353 Q0.876 0.657 1.568 0.502" stroke="hsl(180.0,100%,35%)" stroke-width="0.00089"></path>
<path d="M0.421 0.353 Q0.024 0.409 0.046 0.616" stroke="hsl(180.0,100%,35%)" stroke-width="0.00022"></path>
<path d="M1.423 0.065 Q0.559 0.242 0.715 0.702" stroke="hsl(180.0,100%,35%)" stroke-width="0.00022"></path>
<path d="M1.423 0.065 Q0.697 0.309 1.015 0.717" stroke="hsl(180.0,100%,35%)" stroke-width="0.00022"></path>
<path d="M1.423 0.065 Q0.600 0.434 1.140 0.917" stroke="hsl(180.0,100%,35%)" stroke-width="0.00022"></path>
<path d="M1.826 0.321 Q1.006 0.481 1.140 0.917" stroke="hsl(180.0,100%,35%)" stroke-width="0.00022"></path>
<path d="M1.826 0.321 Q1.217 0.525 1.482 0.867" stroke="hsl(180.0,100%,35%)" stroke-width="0.00022"></path>
<path d="M1.826 0.321 Q1.729 0.397 1.857 0.461" stroke="hsl(180.0,100%,35%)" stroke-width="0.00022"></path>
<path d="M1.878 0.121 Q0.872 0.371 1.140 0.917" stroke="hsl(180.0,100%,35%)" stroke-width="0.00067"></path>
<path d="M1.878 0.121 Q1.418 0.249 1.568 0.502" stroke="hsl(180.0,100%,35%)" stroke-width="0.00022"></path>
<path d="M1.878 0.121 Q1.595 0.286 1.857 0.461" stroke="hsl(180.0,100%,35%)" stroke-width="0.00044"></path>
</g>
<text x="0.925" y="0.785" font-size="0.017356" fill="hsl(0.0,100%,20%)">afdx</text>
<text x="1.015" y="0.697" font-size="0.039609" fill="hsl(0.0,100%,20%)">rharrison</text>
<text x="0.715" y="0.650" font-size="0.103044" fill="hsl(0.0,100%,20%)">bclayton</text>
<text x="0.544" y="0.512" font-size="0.055566" fill="hsl(0.0,100%,20%)">amaiorano</text>
<text x="0.210" y="0.116" font-size="0.011203" fill="hsl(0.0,100%,20%)">vasniktel</text>
<text x="1.503" y="0.947" font-size="0.005010" fill="hsl(180.0,100%,20%)">aleksi</text>
<text x="1.140" y="0.881" font-size="0.072475" fill="hsl(180.0,100%,20%)">cwallez</text>
<text x="1.568" y="0.468" font-size="0.066609" fill="hsl(180.0,100%,20%)">enga</text>
<text x="1.134" y="0.415" font-size="0.005010" fill="hsl(180.0,100%,20%)">aleksi.sapon</text>
<text x="0.583" y="0.845" font-size="0.061719" fill="hsl(0.0,100%,20%)">jrprice</text>
<text x="1.088" y="0.590" font-size="0.052547" fill="hsl(0.0,100%,20%)">dneto</text>
<text x="0.140" y="0.395" font-size="0.029746" fill="hsl(180.0,100%,20%)">bajones</text>
<text x="0.046" y="0.603" font-size="0.024158" fill="hsl(180.0,100%,20%)">kainino</text>
<text x="0.339" y="0.446" font-size="0.002505" fill="hsl(180.0,100%,20%)">headlessclayton</text>
<text x="0.983" y="0.797" font-size="0.030373" fill="hsl(180.0,100%,20%)">senorblanco</text>
<text x="0.666" y="0.715" font-size="0.020505" fill="hsl(0.0,100%,20%)">sarahmashay</text>
<text x="0.101" y="0.226" font-size="0.004339" fill="hsl(0.0,100%,20%)">allydonaldson</text>
<text x="0.915" y="0.381" font-size="0.015031" fill="hsl(180.0,100%,20%)">brandon1.jones</text>
<text x="1.324" y="0.544" font-size="0.016040" fill="hsl(0.0,100%,20%)">alanbaker</text>
<text x="0.799" y="0.542" font-size="0.023765" fill="hsl(0.0,100%,20%)">dsinclair</text>
<text x="1.369" y="0.783" font-size="0.007085" fill="hsl(180.0,100%,20%)">beaufort.francois</text>
<text x="1.083" y="0.179" font-size="0.007515" fill="hsl(180.0,100%,20%)">rafael.cintron</text>
<text x="1.658" y="0.283" font-size="0.013721" fill="hsl(180.0,100%,20%)">bryan.bernhart</text>
<text x="0.874" y="0.982" font-size="0.008308" fill="hsl(180.0,100%,20%)">cjj19970505</text>
<text x="1.798" y="0.550" font-size="0.022960" fill="hsl(180.0,100%,20%)">lokokung</text>
<text x="1.482" y="0.859" font-size="0.017356" fill="hsl(180.0,100%,20%)">hao.x.li</text>
<text x="1.319" y="0.721" font-size="0.002505" fill="hsl(180.0,100%,20%)">fbeaufort</text>
<text x="1.319" y="0.397" font-size="0.009032" fill="hsl(180.0,100%,20%)">rockot</text>
<text x="1.598" y="0.329" font-size="0.015644" fill="hsl(180.0,100%,20%)">shrekshao</text>
<text x="1.857" y="0.444" font-size="0.032470" fill="hsl(180.0,100%,20%)">jiawei.shao</text>
<text x="1.387" y="0.196" font-size="0.008678" fill="hsl(180.0,100%,20%)">jiajia.qin</text>
<text x="0.788" y="0.292" font-size="0.003543" fill="hsl(180.0,100%,20%)">thakis</text>
<text x="0.889" y="0.774" font-size="0.005010" fill="hsl(0.0,100%,20%)">jmadill</text>
<text x="0.873" y="0.967" font-size="0.003543" fill="hsl(180.0,100%,20%)">penghuang</text>
<text x="1.323" y="0.343" font-size="0.002505" fill="hsl(180.0,100%,20%)">hob</text>
<text x="1.408" y="0.739" font-size="0.022822" fill="hsl(180.0,100%,20%)">yunchao.he</text>
<text x="0.645" y="0.305" font-size="0.004339" fill="hsl(180.0,100%,20%)">hans</text>
<text x="0.456" y="0.238" font-size="0.002505" fill="hsl(180.0,100%,20%)">hwennborg</text>
<text x="0.203" y="0.562" font-size="0.012014" fill="hsl(180.0,100%,20%)">shaobo.yan</text>
<text x="1.497" y="0.817" font-size="0.015644" fill="hsl(180.0,100%,20%)">zhaoming.jiang</text>
<text x="1.230" y="0.967" font-size="0.008308" fill="hsl(180.0,100%,20%)">jie.a.chen</text>
<text x="1.195" y="0.468" font-size="0.012774" fill="hsl(180.0,100%,20%)">junwei.fu</text>
<text x="1.391" y="0.483" font-size="0.002505" fill="hsl(180.0,100%,20%)">ningxin.hu</text>
<text x="1.245" y="0.765" font-size="0.005602" fill="hsl(180.0,100%,20%)">pkasting</text>
<text x="1.657" y="0.810" font-size="0.006136" fill="hsl(180.0,100%,20%)">sunnyps</text>
<text x="0.421" y="0.349" font-size="0.008308" fill="hsl(180.0,100%,20%)">tangm</text>
<text x="1.423" y="0.063" font-size="0.004339" fill="hsl(180.0,100%,20%)">vadimsh</text>
<text x="1.826" y="0.318" font-size="0.004339" fill="hsl(180.0,100%,20%)">xinghua.cao</text>
<text x="1.878" y="0.118" font-size="0.006136" fill="hsl(180.0,100%,20%)">yang.gu</text>
<text x="1.754" y="0.808" font-size="0.002505" fill="hsl(180.0,100%,20%)">ynovikov</text>
</svg>
