<svg width="4000" height="2000" viewBox="-0.025 -0.025 2.05 1.05" xmlns="http://www.w3.org/2000/svg">
  <style>
    path {
      fill: none;
      stroke-linecap: round;
      stroke-opacity: 0.4;
    }

    text {
      text-anchor: middle;
      alignment-baseline: hanging;
    }
  </style>
  <g opacity="0.4">
<path d="M0.669 0.931 Q0.764 0.879 0.684 0.821" stroke="hsl(0.0,100%,35%)" stroke-width="0.02149"></path>
<path d="M0.669 0.931 Q0.883 0.842 0.756 0.717" stroke="hsl(0.0,100%,35%)" stroke-width="0.00044"></path>
<path d="M0.669 0.931 Q0.845 0.982 0.984 0.908" stroke="hsl(0.0,100%,35%)" stroke-width="0.00789"></path>
<path d="M0.669 0.931 Q1.118 0.900 1.158 0.674" stroke="hsl(0.0,100%,35%)" stroke-width="0.00395"></path>
<path d="M0.669 0.931 Q1.250 0.623 0.777 0.272" stroke="hsl(0.0,100%,35%)" stroke-width="0.00175"></path>
<path d="M0.669 0.931 Q0.708 0.754 0.373 0.696" stroke="hsl(0.0,100%,35%)" stroke-width="0.00044"></path>
<path d="M0.669 0.931 Q1.627 0.834 1.649 0.345" stroke="hsl(0.0,100%,35%)" stroke-width="0.00175"></path>
<path d="M0.684 0.821 Q0.764 0.924 0.984 0.908" stroke="hsl(0.0,100%,35%)" stroke-width="0.05745"></path>
<path d="M0.684 0.821 Q1.169 0.565 0.777 0.272" stroke="hsl(0.0,100%,35%)" stroke-width="0.00307"></path>
<path d="M0.684 0.821 Q1.422 0.832 1.606 0.474" stroke="hsl(0.0,100%,35%)" stroke-width="0.00044"></path>
<path d="M0.684 0.821 Q0.588 0.873 0.669 0.931" stroke="hsl(0.0,100%,35%)" stroke-width="0.00921"></path>
<path d="M0.684 0.821 Q1.144 0.932 1.462 0.731" stroke="hsl(0.0,100%,35%)" stroke-width="0.00044"></path>
<path d="M0.684 0.821 Q0.628 0.696 0.373 0.696" stroke="hsl(0.0,100%,35%)" stroke-width="0.00439"></path>
<path d="M0.684 0.821 Q1.038 0.842 1.158 0.674" stroke="hsl(0.0,100%,35%)" stroke-width="0.00132"></path>
<path d="M0.684 0.821 Q0.803 0.783 0.756 0.717" stroke="hsl(0.0,100%,35%)" stroke-width="0.00044"></path>
<path d="M0.756 0.717 Q0.637 0.754 0.684 0.821" stroke="hsl(0.0,100%,35%)" stroke-width="0.01096"></path>
<path d="M0.756 0.717 Q0.542 0.806 0.669 0.931" stroke="hsl(0.0,100%,35%)" stroke-width="0.00219"></path>
<path d="M0.756 0.717 Q0.581 0.630 0.373 0.696" stroke="hsl(0.0,100%,35%)" stroke-width="0.00088"></path>
<path d="M0.756 0.717 Q0.718 0.858 0.984 0.908" stroke="hsl(0.0,100%,35%)" stroke-width="0.00439"></path>
<path d="M0.756 0.717 Q0.844 0.763 0.951 0.730" stroke="hsl(0.0,100%,35%)" stroke-width="0.00044"></path>
<path d="M0.756 0.717 Q0.377 0.787 0.429 0.987" stroke="hsl(0.0,100%,35%)" stroke-width="0.00044"></path>
<path d="M0.756 0.717 Q1.123 0.499 0.777 0.272" stroke="hsl(0.0,100%,35%)" stroke-width="0.00044"></path>
<path d="M0.984 0.908 Q0.904 0.804 0.684 0.821" stroke="hsl(0.0,100%,35%)" stroke-width="0.09342"></path>
<path d="M0.984 0.908 Q1.642 0.816 1.606 0.474" stroke="hsl(0.0,100%,35%)" stroke-width="0.00219"></path>
<path d="M0.984 0.908 Q0.808 0.856 0.669 0.931" stroke="hsl(0.0,100%,35%)" stroke-width="0.00351"></path>
<path d="M0.984 0.908 Q1.767 0.759 1.649 0.345" stroke="hsl(0.0,100%,35%)" stroke-width="0.00132"></path>
<path d="M0.984 0.908 Q0.847 0.680 0.373 0.696" stroke="hsl(0.0,100%,35%)" stroke-width="0.00789"></path>
<path d="M0.984 0.908 Q1.258 0.826 1.158 0.674" stroke="hsl(0.0,100%,35%)" stroke-width="0.00395"></path>
<path d="M0.984 0.908 Q1.389 0.548 0.777 0.272" stroke="hsl(0.0,100%,35%)" stroke-width="0.00175"></path>
<path d="M0.984 0.908 Q1.239 0.501 0.502 0.287" stroke="hsl(0.0,100%,35%)" stroke-width="0.00044"></path>
<path d="M0.984 0.908 Q1.393 0.733 1.142 0.494" stroke="hsl(0.0,100%,35%)" stroke-width="0.00044"></path>
<path d="M1.158 0.674 Q0.804 0.653 0.684 0.821" stroke="hsl(0.0,100%,35%)" stroke-width="0.02456"></path>
<path d="M1.158 0.674 Q0.884 0.756 0.984 0.908" stroke="hsl(0.0,100%,35%)" stroke-width="0.02544"></path>
<path d="M1.158 0.674 Q0.708 0.705 0.669 0.931" stroke="hsl(0.0,100%,35%)" stroke-width="0.00307"></path>
<path d="M1.158 0.674 Q0.748 0.528 0.373 0.696" stroke="hsl(0.0,100%,35%)" stroke-width="0.00044"></path>
<path d="M1.158 0.674 Q0.923 0.615 0.756 0.717" stroke="hsl(0.0,100%,35%)" stroke-width="0.00044"></path>
<path d="M0.777 0.272 Q0.929 0.345 1.104 0.287" stroke="hsl(180.0,100%,35%)" stroke-width="0.00263"></path>
<path d="M0.777 0.272 Q0.291 0.528 0.684 0.821" stroke="hsl(180.0,100%,35%)" stroke-width="0.00482"></path>
<path d="M0.777 0.272 Q0.770 0.149 0.530 0.126" stroke="hsl(180.0,100%,35%)" stroke-width="0.01009"></path>
<path d="M0.777 0.272 Q1.030 0.539 1.606 0.474" stroke="hsl(180.0,100%,35%)" stroke-width="0.01228"></path>
<path d="M0.777 0.272 Q0.395 0.338 0.440 0.538" stroke="hsl(180.0,100%,35%)" stroke-width="0.00044"></path>
<path d="M0.777 0.272 Q1.154 0.483 1.649 0.345" stroke="hsl(180.0,100%,35%)" stroke-width="0.00877"></path>
<path d="M0.777 0.272 Q0.738 0.330 0.842 0.362" stroke="hsl(180.0,100%,35%)" stroke-width="0.00044"></path>
<path d="M0.777 0.272 Q1.035 0.250 1.047 0.119" stroke="hsl(180.0,100%,35%)" stroke-width="0.00044"></path>
<path d="M0.777 0.272 Q0.372 0.631 0.984 0.908" stroke="hsl(180.0,100%,35%)" stroke-width="0.00746"></path>
<path d="M0.777 0.272 Q1.041 0.349 1.250 0.237" stroke="hsl(180.0,100%,35%)" stroke-width="0.00044"></path>
<path d="M0.777 0.272 Q1.247 0.531 1.856 0.359" stroke="hsl(180.0,100%,35%)" stroke-width="0.00132"></path>
<path d="M0.777 0.272 Q0.960 0.180 0.821 0.070" stroke="hsl(180.0,100%,35%)" stroke-width="0.00044"></path>
<path d="M0.777 0.272 Q0.627 0.225 0.502 0.287" stroke="hsl(180.0,100%,35%)" stroke-width="0.00044"></path>
<path d="M0.777 0.272 Q0.781 0.456 1.142 0.494" stroke="hsl(180.0,100%,35%)" stroke-width="0.00088"></path>
<path d="M0.777 0.272 Q0.601 0.347 0.709 0.449" stroke="hsl(180.0,100%,35%)" stroke-width="0.00044"></path>
<path d="M0.373 0.696 Q0.429 0.821 0.684 0.821" stroke="hsl(0.0,100%,35%)" stroke-width="0.00175"></path>
<path d="M0.373 0.696 Q0.548 0.784 0.756 0.717" stroke="hsl(0.0,100%,35%)" stroke-width="0.00044"></path>
<path d="M0.373 0.696 Q0.333 0.873 0.669 0.931" stroke="hsl(0.0,100%,35%)" stroke-width="0.00044"></path>
<path d="M0.373 0.696 Q0.509 0.924 0.984 0.908" stroke="hsl(0.0,100%,35%)" stroke-width="0.00263"></path>
<path d="M0.373 0.696 Q0.914 0.565 0.777 0.272" stroke="hsl(0.0,100%,35%)" stroke-width="0.00044"></path>
<path d="M0.373 0.696 Q1.167 0.832 1.606 0.474" stroke="hsl(0.0,100%,35%)" stroke-width="0.00307"></path>
<path d="M0.373 0.696 Q0.168 0.853 0.429 0.987" stroke="hsl(0.0,100%,35%)" stroke-width="0.00175"></path>
<path d="M0.373 0.696 Q0.889 0.932 1.462 0.731" stroke="hsl(0.0,100%,35%)" stroke-width="0.00044"></path>
<path d="M0.373 0.696 Q0.635 0.829 0.951 0.730" stroke="hsl(0.0,100%,35%)" stroke-width="0.00044"></path>
<path d="M1.649 0.345 Q1.524 0.401 1.606 0.474" stroke="hsl(180.0,100%,35%)" stroke-width="0.01009"></path>
<path d="M1.649 0.345 Q0.992 0.398 0.951 0.730" stroke="hsl(180.0,100%,35%)" stroke-width="0.00044"></path>
<path d="M1.649 0.345 Q0.729 0.265 0.373 0.696" stroke="hsl(180.0,100%,35%)" stroke-width="0.00088"></path>
<path d="M1.649 0.345 Q0.866 0.493 0.984 0.908" stroke="hsl(180.0,100%,35%)" stroke-width="0.00175"></path>
<path d="M1.649 0.345 Q0.525 0.422 0.429 0.987" stroke="hsl(180.0,100%,35%)" stroke-width="0.00044"></path>
<path d="M1.649 0.345 Q1.275 0.318 1.142 0.494" stroke="hsl(180.0,100%,35%)" stroke-width="0.00044"></path>
<path d="M1.649 0.345 Q1.246 0.501 1.462 0.731" stroke="hsl(180.0,100%,35%)" stroke-width="0.00044"></path>
<path d="M1.649 0.345 Q1.140 0.411 1.158 0.674" stroke="hsl(180.0,100%,35%)" stroke-width="0.00044"></path>
<path d="M1.649 0.345 Q0.690 0.442 0.669 0.931" stroke="hsl(180.0,100%,35%)" stroke-width="0.00088"></path>
<path d="M1.649 0.345 Q1.271 0.134 0.777 0.272" stroke="hsl(180.0,100%,35%)" stroke-width="0.00044"></path>
<path d="M0.148 0.464 Q0.994 0.704 1.649 0.345" stroke="hsl(180.0,100%,35%)" stroke-width="0.00088"></path>
<path d="M0.148 0.464 Q0.869 0.761 1.606 0.474" stroke="hsl(180.0,100%,35%)" stroke-width="0.00044"></path>
<path d="M1.606 0.474 Q1.731 0.418 1.649 0.345" stroke="hsl(180.0,100%,35%)" stroke-width="0.03114"></path>
<path d="M1.606 0.474 Q1.353 0.207 0.777 0.272" stroke="hsl(180.0,100%,35%)" stroke-width="0.01228"></path>
<path d="M1.606 0.474 Q0.868 0.463 0.684 0.821" stroke="hsl(180.0,100%,35%)" stroke-width="0.00351"></path>
<path d="M1.606 0.474 Q1.204 0.160 0.502 0.287" stroke="hsl(180.0,100%,35%)" stroke-width="0.00044"></path>
<path d="M1.606 0.474 Q1.347 0.085 0.530 0.126" stroke="hsl(180.0,100%,35%)" stroke-width="0.00044"></path>
<path d="M1.606 0.474 Q1.416 0.653 1.723 0.785" stroke="hsl(180.0,100%,35%)" stroke-width="0.00439"></path>
<path d="M1.606 0.474 Q1.506 0.280 1.104 0.287" stroke="hsl(180.0,100%,35%)" stroke-width="0.00088"></path>
<path d="M1.606 0.474 Q1.427 0.345 1.136 0.404" stroke="hsl(180.0,100%,35%)" stroke-width="0.00044"></path>
<path d="M1.606 0.474 Q0.948 0.567 0.984 0.908" stroke="hsl(180.0,100%,35%)" stroke-width="0.00175"></path>
<path d="M1.606 0.474 Q0.886 0.177 0.148 0.464" stroke="hsl(180.0,100%,35%)" stroke-width="0.00088"></path>
<path d="M1.606 0.474 Q0.812 0.339 0.373 0.696" stroke="hsl(180.0,100%,35%)" stroke-width="0.00044"></path>
<path d="M1.856 0.359 Q1.386 0.099 0.777 0.272" stroke="hsl(180.0,100%,35%)" stroke-width="0.00921"></path>
<path d="M1.856 0.359 Q1.764 0.310 1.649 0.345" stroke="hsl(180.0,100%,35%)" stroke-width="0.01184"></path>
<path d="M1.856 0.359 Q1.639 0.367 1.606 0.474" stroke="hsl(180.0,100%,35%)" stroke-width="0.00307"></path>
<path d="M1.856 0.359 Q0.981 0.459 0.984 0.908" stroke="hsl(180.0,100%,35%)" stroke-width="0.00044"></path>
<path d="M1.856 0.359 Q0.901 0.355 0.684 0.821" stroke="hsl(180.0,100%,35%)" stroke-width="0.00088"></path>
<path d="M1.856 0.359 Q1.448 0.545 1.723 0.785" stroke="hsl(180.0,100%,35%)" stroke-width="0.00044"></path>
<path d="M1.856 0.359 Q0.918 0.070 0.148 0.464" stroke="hsl(180.0,100%,35%)" stroke-width="0.00263"></path>
<path d="M1.856 0.359 Q0.844 0.231 0.373 0.696" stroke="hsl(180.0,100%,35%)" stroke-width="0.00044"></path>
<path d="M1.856 0.359 Q0.640 0.388 0.429 0.987" stroke="hsl(180.0,100%,35%)" stroke-width="0.00044"></path>
<path d="M1.856 0.359 Q1.379 -0.023 0.530 0.126" stroke="hsl(180.0,100%,35%)" stroke-width="0.00044"></path>
<path d="M1.723 0.785 Q1.635 0.706 1.462 0.731" stroke="hsl(180.0,100%,35%)" stroke-width="0.00439"></path>
<path d="M1.723 0.785 Q2.038 0.550 1.649 0.345" stroke="hsl(180.0,100%,35%)" stroke-width="0.00351"></path>
<path d="M1.723 0.785 Q1.511 0.292 0.502 0.287" stroke="hsl(180.0,100%,35%)" stroke-width="0.00175"></path>
<path d="M1.723 0.785 Q1.660 0.339 0.777 0.272" stroke="hsl(180.0,100%,35%)" stroke-width="0.00175"></path>
<path d="M1.723 0.785 Q1.193 0.310 0.148 0.464" stroke="hsl(180.0,100%,35%)" stroke-width="0.00044"></path>
<path d="M1.723 0.785 Q1.255 0.699 0.984 0.908" stroke="hsl(180.0,100%,35%)" stroke-width="0.00044"></path>
<path d="M1.723 0.785 Q1.913 0.607 1.606 0.474" stroke="hsl(180.0,100%,35%)" stroke-width="0.00175"></path>
<path d="M1.723 0.785 Q1.175 0.595 0.684 0.821" stroke="hsl(180.0,100%,35%)" stroke-width="0.00044"></path>
<path d="M1.723 0.785 Q1.381 0.603 0.951 0.730" stroke="hsl(180.0,100%,35%)" stroke-width="0.00044"></path>
<path d="M0.530 0.126 Q0.536 0.248 0.777 0.272" stroke="hsl(180.0,100%,35%)" stroke-width="0.00395"></path>
<path d="M0.530 0.126 Q0.789 0.515 1.606 0.474" stroke="hsl(180.0,100%,35%)" stroke-width="0.00219"></path>
<path d="M0.530 0.126 Q0.131 0.607 0.984 0.908" stroke="hsl(180.0,100%,35%)" stroke-width="0.00044"></path>
<path d="M0.530 0.126 Q0.511 0.615 1.462 0.731" stroke="hsl(180.0,100%,35%)" stroke-width="0.00044"></path>
<path d="M0.951 0.730 Q0.825 0.825 0.984 0.908" stroke="hsl(0.0,100%,35%)" stroke-width="0.00702"></path>
<path d="M0.951 0.730 Q0.650 0.774 0.669 0.931" stroke="hsl(0.0,100%,35%)" stroke-width="0.00132"></path>
<path d="M0.951 0.730 Q1.235 0.650 1.142 0.494" stroke="hsl(0.0,100%,35%)" stroke-width="0.00044"></path>
<path d="M0.951 0.730 Q0.763 0.436 0.148 0.464" stroke="hsl(0.0,100%,35%)" stroke-width="0.00044"></path>
<path d="M1.142 0.494 Q0.652 0.566 0.684 0.821" stroke="hsl(180.0,100%,35%)" stroke-width="0.00088"></path>
<path d="M1.142 0.494 Q0.771 0.529 0.756 0.717" stroke="hsl(180.0,100%,35%)" stroke-width="0.00088"></path>
<path d="M1.142 0.494 Q0.732 0.670 0.984 0.908" stroke="hsl(180.0,100%,35%)" stroke-width="0.00088"></path>
<path d="M1.142 0.494 Q1.112 0.677 1.462 0.731" stroke="hsl(180.0,100%,35%)" stroke-width="0.00088"></path>
<path d="M1.142 0.494 Q1.137 0.310 0.777 0.272" stroke="hsl(180.0,100%,35%)" stroke-width="0.00088"></path>
<path d="M1.142 0.494 Q1.131 0.188 0.530 0.126" stroke="hsl(180.0,100%,35%)" stroke-width="0.00044"></path>
<path d="M1.142 0.494 Q1.006 0.588 1.158 0.674" stroke="hsl(180.0,100%,35%)" stroke-width="0.00132"></path>
<path d="M1.142 0.494 Q1.515 0.521 1.649 0.345" stroke="hsl(180.0,100%,35%)" stroke-width="0.00044"></path>
<path d="M1.104 0.287 Q0.952 0.214 0.777 0.272" stroke="hsl(180.0,100%,35%)" stroke-width="0.01579"></path>
<path d="M1.104 0.287 Q1.205 0.481 1.606 0.474" stroke="hsl(180.0,100%,35%)" stroke-width="0.02017"></path>
<path d="M1.104 0.287 Q0.467 0.470 0.684 0.821" stroke="hsl(180.0,100%,35%)" stroke-width="0.00351"></path>
<path d="M1.104 0.287 Q0.547 0.573 0.984 0.908" stroke="hsl(180.0,100%,35%)" stroke-width="0.00175"></path>
<path d="M1.104 0.287 Q1.423 0.473 1.856 0.359" stroke="hsl(180.0,100%,35%)" stroke-width="0.00044"></path>
<path d="M1.104 0.287 Q1.217 0.291 1.250 0.237" stroke="hsl(180.0,100%,35%)" stroke-width="0.00088"></path>
<path d="M1.104 0.287 Q1.026 0.352 1.136 0.404" stroke="hsl(180.0,100%,35%)" stroke-width="0.00044"></path>
<path d="M1.104 0.287 Q0.411 0.345 0.373 0.696" stroke="hsl(180.0,100%,35%)" stroke-width="0.00088"></path>
<path d="M1.104 0.287 Q1.330 0.425 1.649 0.345" stroke="hsl(180.0,100%,35%)" stroke-width="0.00395"></path>
<path d="M1.047 0.119 Q0.384 0.500 0.984 0.908" stroke="hsl(180.0,100%,35%)" stroke-width="0.00044"></path>
<path d="M1.047 0.119 Q0.789 0.141 0.777 0.272" stroke="hsl(180.0,100%,35%)" stroke-width="0.00088"></path>
<path d="M1.047 0.119 Q1.042 0.408 1.606 0.474" stroke="hsl(180.0,100%,35%)" stroke-width="0.00044"></path>
<path d="M1.250 0.237 Q1.363 0.371 1.649 0.345" stroke="hsl(180.0,100%,35%)" stroke-width="0.00044"></path>
<path d="M1.250 0.237 Q1.239 0.427 1.606 0.474" stroke="hsl(180.0,100%,35%)" stroke-width="0.00044"></path>
<path d="M1.250 0.237 Q0.405 0.468 0.669 0.931" stroke="hsl(180.0,100%,35%)" stroke-width="0.00044"></path>
<path d="M1.250 0.237 Q0.986 0.160 0.777 0.272" stroke="hsl(180.0,100%,35%)" stroke-width="0.00044"></path>
<path d="M0.502 0.287 Q0.246 0.694 0.984 0.908" stroke="hsl(180.0,100%,35%)" stroke-width="0.00132"></path>
<path d="M0.502 0.287 Q1.029 0.545 1.649 0.345" stroke="hsl(180.0,100%,35%)" stroke-width="0.00307"></path>
<path d="M0.502 0.287 Q0.651 0.334 0.777 0.272" stroke="hsl(180.0,100%,35%)" stroke-width="0.00482"></path>
<path d="M0.502 0.287 Q0.166 0.590 0.684 0.821" stroke="hsl(180.0,100%,35%)" stroke-width="0.00175"></path>
<path d="M0.502 0.287 Q0.184 0.305 0.148 0.464" stroke="hsl(180.0,100%,35%)" stroke-width="0.00088"></path>
<path d="M0.709 0.449 Q0.884 0.374 0.777 0.272" stroke="hsl(180.0,100%,35%)" stroke-width="0.00702"></path>
<path d="M0.709 0.449 Q1.137 0.641 1.606 0.474" stroke="hsl(180.0,100%,35%)" stroke-width="0.00395"></path>
<path d="M0.709 0.449 Q0.878 0.251 0.530 0.126" stroke="hsl(180.0,100%,35%)" stroke-width="0.00088"></path>
<path d="M0.709 0.449 Q1.262 0.585 1.649 0.345" stroke="hsl(180.0,100%,35%)" stroke-width="0.00044"></path>
<path d="M0.709 0.449 Q0.479 0.733 0.984 0.908" stroke="hsl(180.0,100%,35%)" stroke-width="0.00044"></path>
<path d="M0.709 0.449 Q0.416 0.344 0.148 0.464" stroke="hsl(180.0,100%,35%)" stroke-width="0.00044"></path>
<path d="M1.462 0.731 Q1.082 0.724 0.984 0.908" stroke="hsl(180.0,100%,35%)" stroke-width="0.00088"></path>
<path d="M1.462 0.731 Q1.740 0.632 1.606 0.474" stroke="hsl(180.0,100%,35%)" stroke-width="0.00044"></path>
<path d="M1.462 0.731 Q1.487 0.365 0.777 0.272" stroke="hsl(180.0,100%,35%)" stroke-width="0.00044"></path>
<path d="M1.462 0.731 Q1.002 0.620 0.684 0.821" stroke="hsl(180.0,100%,35%)" stroke-width="0.00044"></path>
<path d="M1.462 0.731 Q1.356 0.642 1.158 0.674" stroke="hsl(180.0,100%,35%)" stroke-width="0.00044"></path>
<path d="M1.204 0.084 Q0.840 0.093 0.777 0.272" stroke="hsl(180.0,100%,35%)" stroke-width="0.00132"></path>
<path d="M1.204 0.084 Q0.992 0.166 1.104 0.287" stroke="hsl(180.0,100%,35%)" stroke-width="0.00175"></path>
<path d="M1.204 0.084 Q1.093 0.360 1.606 0.474" stroke="hsl(180.0,100%,35%)" stroke-width="0.00044"></path>
<path d="M1.159 0.044 Q0.779 -0.041 0.530 0.126" stroke="hsl(180.0,100%,35%)" stroke-width="0.00044"></path>
<path d="M1.159 0.044 Q1.038 0.349 1.606 0.474" stroke="hsl(180.0,100%,35%)" stroke-width="0.00044"></path>
<path d="M1.159 0.044 Q0.300 0.337 0.684 0.821" stroke="hsl(180.0,100%,35%)" stroke-width="0.00044"></path>
<path d="M1.556 0.961 Q1.718 0.461 0.777 0.272" stroke="hsl(180.0,100%,35%)" stroke-width="0.00219"></path>
<path d="M1.556 0.961 Q1.701 1.002 1.812 0.939" stroke="hsl(180.0,100%,35%)" stroke-width="0.00570"></path>
<path d="M1.556 0.961 Q1.971 0.728 1.606 0.474" stroke="hsl(180.0,100%,35%)" stroke-width="0.00088"></path>
<path d="M1.556 0.961 Q1.401 0.909 1.266 0.973" stroke="hsl(180.0,100%,35%)" stroke-width="0.00044"></path>
<path d="M1.332 0.478 Q1.088 0.541 1.158 0.674" stroke="hsl(180.0,100%,35%)" stroke-width="0.00175"></path>
<path d="M1.332 0.478 Q1.224 0.448 1.142 0.494" stroke="hsl(180.0,100%,35%)" stroke-width="0.00219"></path>
<path d="M1.332 0.478 Q0.734 0.520 0.684 0.821" stroke="hsl(180.0,100%,35%)" stroke-width="0.00088"></path>
<path d="M1.332 0.478 Q1.597 0.475 1.649 0.345" stroke="hsl(180.0,100%,35%)" stroke-width="0.00044"></path>
<path d="M0.993 0.224 Q0.840 0.082 0.530 0.126" stroke="hsl(180.0,100%,35%)" stroke-width="0.00219"></path>
<path d="M0.993 0.224 Q0.442 0.564 0.984 0.908" stroke="hsl(180.0,100%,35%)" stroke-width="0.00044"></path>
<path d="M0.993 0.224 Q1.225 0.416 1.649 0.345" stroke="hsl(180.0,100%,35%)" stroke-width="0.00088"></path>
<path d="M0.993 0.224 Q1.100 0.472 1.606 0.474" stroke="hsl(180.0,100%,35%)" stroke-width="0.00263"></path>
<path d="M0.993 0.224 Q0.362 0.461 0.684 0.821" stroke="hsl(180.0,100%,35%)" stroke-width="0.00044"></path>
<path d="M0.993 0.224 Q0.847 0.205 0.777 0.272" stroke="hsl(180.0,100%,35%)" stroke-width="0.00395"></path>
<path d="M0.591 0.415 Q0.798 0.381 0.777 0.272" stroke="hsl(180.0,100%,35%)" stroke-width="0.00044"></path>
<path d="M0.591 0.415 Q0.393 0.740 0.984 0.908" stroke="hsl(180.0,100%,35%)" stroke-width="0.00044"></path>
<path d="M0.591 0.415 Q1.051 0.648 1.606 0.474" stroke="hsl(180.0,100%,35%)" stroke-width="0.00088"></path>
<path d="M0.961 0.048 Q0.689 0.123 0.777 0.272" stroke="hsl(180.0,100%,35%)" stroke-width="0.00175"></path>
<path d="M0.961 0.048 Q0.842 0.196 1.104 0.287" stroke="hsl(180.0,100%,35%)" stroke-width="0.00132"></path>
<path d="M0.961 0.048 Q0.683 0.001 0.530 0.126" stroke="hsl(180.0,100%,35%)" stroke-width="0.00044"></path>
<path d="M0.489 0.336 Q0.199 0.617 0.684 0.821" stroke="hsl(180.0,100%,35%)" stroke-width="0.00175"></path>
<path d="M0.489 0.336 Q0.684 0.361 0.777 0.272" stroke="hsl(180.0,100%,35%)" stroke-width="0.00175"></path>
<path d="M0.489 0.336 Q0.677 0.239 0.530 0.126" stroke="hsl(180.0,100%,35%)" stroke-width="0.00088"></path>
<path d="M0.489 0.336 Q0.937 0.629 1.606 0.474" stroke="hsl(180.0,100%,35%)" stroke-width="0.00044"></path>
<path d="M0.489 0.336 Q0.553 0.639 1.158 0.674" stroke="hsl(180.0,100%,35%)" stroke-width="0.00044"></path>
<path d="M0.668 0.558 Q0.546 0.796 0.984 0.908" stroke="hsl(0.0,100%,35%)" stroke-width="0.00044"></path>
<path d="M0.668 0.558 Q0.410 0.568 0.373 0.696" stroke="hsl(0.0,100%,35%)" stroke-width="0.00044"></path>
<path d="M0.668 0.558 Q0.466 0.693 0.684 0.821" stroke="hsl(0.0,100%,35%)" stroke-width="0.00044"></path>
<path d="M1.556 1.001 Q1.749 0.481 0.777 0.272" stroke="hsl(180.0,100%,35%)" stroke-width="0.00044"></path>
<path d="M1.556 1.001 Q1.588 0.981 1.556 0.961" stroke="hsl(180.0,100%,35%)" stroke-width="0.00044"></path>
<path d="M1.556 1.001 Q1.733 1.021 1.812 0.939" stroke="hsl(180.0,100%,35%)" stroke-width="0.00044"></path>
<path d="M1.653 0.577 Q1.459 0.249 0.777 0.272" stroke="hsl(180.0,100%,35%)" stroke-width="0.00044"></path>
<path d="M1.653 0.577 Q1.712 0.516 1.606 0.474" stroke="hsl(180.0,100%,35%)" stroke-width="0.00263"></path>
<path d="M1.653 0.577 Q1.837 0.460 1.649 0.345" stroke="hsl(180.0,100%,35%)" stroke-width="0.00088"></path>
<path d="M1.653 0.577 Q1.264 0.223 0.489 0.336" stroke="hsl(180.0,100%,35%)" stroke-width="0.00088"></path>
<path d="M0.241 0.289 Q0.522 0.387 0.777 0.272" stroke="hsl(180.0,100%,35%)" stroke-width="0.00175"></path>
<path d="M0.241 0.289 Q0.674 0.460 1.104 0.287" stroke="hsl(180.0,100%,35%)" stroke-width="0.00044"></path>
<path d="M0.241 0.289 Q0.775 0.655 1.606 0.474" stroke="hsl(180.0,100%,35%)" stroke-width="0.00132"></path>
<path d="M0.241 0.289 Q-0.224 0.676 0.429 0.987" stroke="hsl(180.0,100%,35%)" stroke-width="0.00044"></path>
<path d="M0.241 0.289 Q0.900 0.598 1.649 0.345" stroke="hsl(180.0,100%,35%)" stroke-width="0.00044"></path>
<path d="M0.241 0.289 Q-0.019 0.519 0.373 0.696" stroke="hsl(180.0,100%,35%)" stroke-width="0.00044"></path>
<path d="M0.241 0.289 Q0.117 0.747 0.984 0.908" stroke="hsl(180.0,100%,35%)" stroke-width="0.00044"></path>
<path d="M0.098 0.633 Q0.259 0.558 0.148 0.464" stroke="hsl(180.0,100%,35%)" stroke-width="0.00044"></path>
<path d="M0.098 0.633 Q0.720 0.465 0.530 0.126" stroke="hsl(180.0,100%,35%)" stroke-width="0.00044"></path>
</g>
<text x="0.669" y="0.909" font-size="0.042844" fill="hsl(0.0,100%,20%)">amaiorano</text>
<text x="0.684" y="0.776" font-size="0.088209" fill="hsl(0.0,100%,20%)">jrprice</text>
<text x="0.756" y="0.704" font-size="0.026432" fill="hsl(0.0,100%,20%)">petermcneeley</text>
<text x="0.984" y="0.865" font-size="0.086484" fill="hsl(0.0,100%,20%)">dsinclair</text>
<text x="1.158" y="0.651" font-size="0.045930" fill="hsl(0.0,100%,20%)">rharrison</text>
<text x="0.777" y="0.240" font-size="0.063892" fill="hsl(180.0,100%,20%)">cwallez</text>
<text x="0.373" y="0.681" font-size="0.030068" fill="hsl(0.0,100%,20%)">dneto</text>
<text x="1.649" y="0.319" font-size="0.051948" fill="hsl(180.0,100%,20%)">kainino</text>
<text x="0.148" y="0.456" font-size="0.015260" fill="hsl(180.0,100%,20%)">bajones</text>
<text x="1.606" y="0.443" font-size="0.063029" fill="hsl(180.0,100%,20%)">lokokung</text>
<text x="1.856" y="0.343" font-size="0.031405" fill="hsl(180.0,100%,20%)">beaufort.francois</text>
<text x="1.723" y="0.773" font-size="0.024828" fill="hsl(180.0,100%,20%)">shrekshao</text>
<text x="0.429" y="0.982" font-size="0.010468" fill="hsl(0.0,100%,20%)">alanbaker</text>
<text x="0.530" y="0.112" font-size="0.027198" fill="hsl(180.0,100%,20%)">geofflang</text>
<text x="0.951" y="0.721" font-size="0.018506" fill="hsl(0.0,100%,20%)">bsheedy</text>
<text x="1.142" y="0.485" font-size="0.018506" fill="hsl(180.0,100%,20%)">ynovikov</text>
<text x="1.104" y="0.266" font-size="0.041380" fill="hsl(180.0,100%,20%)">jiawei.shao</text>
<text x="0.440" y="0.536" font-size="0.003701" fill="hsl(180.0,100%,20%)">arthursonzogni</text>
<text x="0.842" y="0.360" font-size="0.003701" fill="hsl(180.0,100%,20%)">fbeaufort</text>
<text x="1.047" y="0.115" font-size="0.008276" fill="hsl(180.0,100%,20%)">hitawala</text>
<text x="1.250" y="0.232" font-size="0.009792" fill="hsl(180.0,100%,20%)">rafael.cintron</text>
<text x="0.821" y="0.068" font-size="0.003701" fill="hsl(180.0,100%,20%)">brandon1.jones</text>
<text x="0.502" y="0.276" font-size="0.021581" fill="hsl(180.0,100%,20%)">gman</text>
<text x="0.709" y="0.438" font-size="0.020607" fill="hsl(180.0,100%,20%)">kylechar</text>
<text x="1.462" y="0.723" font-size="0.017360" fill="hsl(180.0,100%,20%)">senorblanco</text>
<text x="1.204" y="0.079" font-size="0.010468" fill="hsl(180.0,100%,20%)">hao.x.li</text>
<text x="1.136" y="0.401" font-size="0.005234" fill="hsl(180.0,100%,20%)">kbr</text>
<text x="1.159" y="0.041" font-size="0.006411" fill="hsl(180.0,100%,20%)">jie.a.chen</text>
<text x="1.556" y="0.953" font-size="0.017360" fill="hsl(180.0,100%,20%)">jimblackler</text>
<text x="1.812" y="0.932" font-size="0.013848" fill="hsl(180.0,100%,20%)">bentonian</text>
<text x="1.266" y="0.972" font-size="0.003701" fill="hsl(180.0,100%,20%)">mako</text>
<text x="1.332" y="0.472" font-size="0.012821" fill="hsl(180.0,100%,20%)">jwata</text>
<text x="0.993" y="0.215" font-size="0.018132" fill="hsl(180.0,100%,20%)">lehoangquyen</text>
<text x="0.591" y="0.411" font-size="0.007402" fill="hsl(180.0,100%,20%)">nickchavez</text>
<text x="0.961" y="0.043" font-size="0.010468" fill="hsl(180.0,100%,20%)">shaobo.yan</text>
<text x="0.489" y="0.329" font-size="0.013848" fill="hsl(180.0,100%,20%)">shaoboyan</text>
<text x="0.668" y="0.555" font-size="0.006411" fill="hsl(0.0,100%,20%)">tikuta</text>
<text x="1.556" y="0.998" font-size="0.006411" fill="hsl(180.0,100%,20%)">vrepets</text>
<text x="1.653" y="0.571" font-size="0.012275" fill="hsl(180.0,100%,20%)">yulong.fs</text>
<text x="0.241" y="0.282" font-size="0.012821" fill="hsl(180.0,100%,20%)">zhaoming.jiang</text>
<text x="0.098" y="0.630" font-size="0.005234" fill="hsl(180.0,100%,20%)">zmo</text>
</svg>
