<svg width="4000" height="2000" viewBox="-0.025 -0.025 2.05 1.05" xmlns="http://www.w3.org/2000/svg">
  <style>
    path {
      fill: none;
      stroke-linecap: round;
      stroke-opacity: 0.4;
    }

    text {
      text-anchor: middle;
      alignment-baseline: hanging;
    }
  </style>
  <g opacity="0.4">
<path d="M1.085 0.777 Q1.171 0.750 1.137 0.703" stroke="hsl(0.0,100%,35%)" stroke-width="0.00512"></path>
<path d="M1.085 0.777 Q0.932 0.854 1.048 0.946" stroke="hsl(0.0,100%,35%)" stroke-width="0.00378"></path>
<path d="M1.085 0.777 Q0.771 0.820 0.785 0.983" stroke="hsl(0.0,100%,35%)" stroke-width="0.00022"></path>
<path d="M1.085 0.777 Q1.198 0.845 1.354 0.805" stroke="hsl(0.0,100%,35%)" stroke-width="0.00044"></path>
<path d="M1.137 0.703 Q0.842 0.481 0.345 0.576" stroke="hsl(0.0,100%,35%)" stroke-width="0.00423"></path>
<path d="M1.137 0.703 Q1.093 0.221 0.143 0.137" stroke="hsl(0.0,100%,35%)" stroke-width="0.00022"></path>
<path d="M1.137 0.703 Q0.898 0.807 1.048 0.946" stroke="hsl(0.0,100%,35%)" stroke-width="0.01468"></path>
<path d="M1.137 0.703 Q0.804 0.690 0.706 0.850" stroke="hsl(0.0,100%,35%)" stroke-width="0.00200"></path>
<path d="M1.137 0.703 Q0.737 0.773 0.785 0.983" stroke="hsl(0.0,100%,35%)" stroke-width="0.00156"></path>
<path d="M1.137 0.703 Q0.985 0.685 0.918 0.755" stroke="hsl(0.0,100%,35%)" stroke-width="0.00378"></path>
<path d="M1.137 0.703 Q1.724 0.573 1.599 0.258" stroke="hsl(0.0,100%,35%)" stroke-width="0.00601"></path>
<path d="M1.137 0.703 Q1.051 0.730 1.085 0.777" stroke="hsl(0.0,100%,35%)" stroke-width="0.00067"></path>
<path d="M1.137 0.703 Q1.109 0.597 0.897 0.588" stroke="hsl(0.0,100%,35%)" stroke-width="0.00067"></path>
<path d="M1.048 0.946 Q1.135 0.824 0.918 0.755" stroke="hsl(0.0,100%,35%)" stroke-width="0.05227"></path>
<path d="M1.048 0.946 Q0.992 0.620 0.345 0.576" stroke="hsl(0.0,100%,35%)" stroke-width="0.01268"></path>
<path d="M1.048 0.946 Q1.287 0.842 1.137 0.703" stroke="hsl(0.0,100%,35%)" stroke-width="0.00578"></path>
<path d="M1.048 0.946 Q0.887 0.912 0.785 0.983" stroke="hsl(0.0,100%,35%)" stroke-width="0.05984"></path>
<path d="M1.048 0.946 Q0.954 0.829 0.706 0.850" stroke="hsl(0.0,100%,35%)" stroke-width="0.04716"></path>
<path d="M1.048 0.946 Q0.949 0.778 0.600 0.790" stroke="hsl(0.0,100%,35%)" stroke-width="0.00178"></path>
<path d="M1.048 0.946 Q1.874 0.712 1.599 0.258" stroke="hsl(0.0,100%,35%)" stroke-width="0.02669"></path>
<path d="M1.048 0.946 Q1.764 0.788 1.614 0.404" stroke="hsl(0.0,100%,35%)" stroke-width="0.00044"></path>
<path d="M1.048 0.946 Q0.778 0.878 0.587 0.995" stroke="hsl(0.0,100%,35%)" stroke-width="0.00111"></path>
<path d="M1.048 0.946 Q1.314 0.936 1.354 0.805" stroke="hsl(0.0,100%,35%)" stroke-width="0.00044"></path>
<path d="M1.048 0.946 Q1.168 0.641 0.600 0.516" stroke="hsl(0.0,100%,35%)" stroke-width="0.00022"></path>
<path d="M1.048 0.946 Q1.482 0.957 1.599 0.748" stroke="hsl(0.0,100%,35%)" stroke-width="0.00022"></path>
<path d="M1.048 0.946 Q1.265 0.564 0.568 0.375" stroke="hsl(0.0,100%,35%)" stroke-width="0.00022"></path>
<path d="M1.048 0.946 Q0.933 0.752 0.529 0.766" stroke="hsl(0.0,100%,35%)" stroke-width="0.00044"></path>
<path d="M0.785 0.983 Q0.947 1.017 1.048 0.946" stroke="hsl(0.0,100%,35%)" stroke-width="0.03225"></path>
<path d="M0.785 0.983 Q1.034 0.895 0.918 0.755" stroke="hsl(0.0,100%,35%)" stroke-width="0.00311"></path>
<path d="M0.785 0.983 Q0.852 0.900 0.706 0.850" stroke="hsl(0.0,100%,35%)" stroke-width="0.00311"></path>
<path d="M0.785 0.983 Q1.772 0.783 1.599 0.258" stroke="hsl(0.0,100%,35%)" stroke-width="0.00200"></path>
<path d="M0.785 0.983 Q0.891 0.691 0.345 0.576" stroke="hsl(0.0,100%,35%)" stroke-width="0.00067"></path>
<path d="M1.354 0.805 Q1.327 0.710 1.137 0.703" stroke="hsl(0.0,100%,35%)" stroke-width="0.00089"></path>
<path d="M1.354 0.805 Q1.089 0.814 1.048 0.946" stroke="hsl(0.0,100%,35%)" stroke-width="0.00133"></path>
<path d="M1.354 0.805 Q1.242 0.737 1.085 0.777" stroke="hsl(0.0,100%,35%)" stroke-width="0.00044"></path>
<path d="M1.354 0.805 Q1.522 0.826 1.599 0.748" stroke="hsl(0.0,100%,35%)" stroke-width="0.00044"></path>
<path d="M1.354 0.805 Q0.994 0.698 0.706 0.850" stroke="hsl(0.0,100%,35%)" stroke-width="0.00022"></path>
<path d="M0.433 0.628 Q1.312 0.676 1.599 0.258" stroke="hsl(180.0,100%,35%)" stroke-width="0.00044"></path>
<path d="M0.433 0.628 Q0.430 0.585 0.345 0.576" stroke="hsl(180.0,100%,35%)" stroke-width="0.00022"></path>
<path d="M0.433 0.628 Q0.487 0.910 1.048 0.946" stroke="hsl(180.0,100%,35%)" stroke-width="0.00022"></path>
<path d="M1.599 0.258 Q1.351 0.143 1.072 0.239" stroke="hsl(180.0,100%,35%)" stroke-width="0.00423"></path>
<path d="M1.599 0.258 Q0.718 0.166 0.345 0.576" stroke="hsl(180.0,100%,35%)" stroke-width="0.02514"></path>
<path d="M1.599 0.258 Q1.490 0.334 1.614 0.404" stroke="hsl(180.0,100%,35%)" stroke-width="0.00734"></path>
<path d="M1.599 0.258 Q0.774 0.492 1.048 0.946" stroke="hsl(180.0,100%,35%)" stroke-width="0.01312"></path>
<path d="M1.599 0.258 Q0.861 0.370 0.918 0.755" stroke="hsl(180.0,100%,35%)" stroke-width="0.00044"></path>
<path d="M1.599 0.258 Q1.012 0.388 1.137 0.703" stroke="hsl(180.0,100%,35%)" stroke-width="0.00200"></path>
<path d="M1.599 0.258 Q0.894 0.187 0.600 0.516" stroke="hsl(180.0,100%,35%)" stroke-width="0.00222"></path>
<path d="M1.599 0.258 Q1.661 0.342 1.838 0.330" stroke="hsl(180.0,100%,35%)" stroke-width="0.00022"></path>
<path d="M1.599 0.258 Q1.603 0.448 1.973 0.488" stroke="hsl(180.0,100%,35%)" stroke-width="0.00044"></path>
<path d="M1.599 0.258 Q1.406 0.255 1.357 0.348" stroke="hsl(180.0,100%,35%)" stroke-width="0.00022"></path>
<path d="M1.599 0.258 Q0.684 0.054 0.085 0.456" stroke="hsl(180.0,100%,35%)" stroke-width="0.00022"></path>
<path d="M1.599 0.258 Q0.674 0.324 0.600 0.790" stroke="hsl(180.0,100%,35%)" stroke-width="0.00512"></path>
<path d="M1.599 0.258 Q0.969 -0.094 0.143 0.137" stroke="hsl(180.0,100%,35%)" stroke-width="0.00022"></path>
<path d="M1.599 0.258 Q0.816 0.098 0.331 0.445" stroke="hsl(180.0,100%,35%)" stroke-width="0.00267"></path>
<path d="M1.599 0.258 Q0.831 -0.010 0.140 0.306" stroke="hsl(180.0,100%,35%)" stroke-width="0.00022"></path>
<path d="M1.599 0.258 Q1.718 0.320 1.864 0.276" stroke="hsl(180.0,100%,35%)" stroke-width="0.00022"></path>
<path d="M1.599 0.258 Q0.680 0.375 0.706 0.850" stroke="hsl(180.0,100%,35%)" stroke-width="0.00022"></path>
<path d="M1.599 0.258 Q0.984 0.282 0.897 0.588" stroke="hsl(180.0,100%,35%)" stroke-width="0.00022"></path>
<path d="M1.599 0.258 Q0.613 0.458 0.785 0.983" stroke="hsl(180.0,100%,35%)" stroke-width="0.00022"></path>
<path d="M0.345 0.576 Q1.117 0.744 1.614 0.404" stroke="hsl(180.0,100%,35%)" stroke-width="0.00245"></path>
<path d="M0.345 0.576 Q0.521 0.597 0.600 0.516" stroke="hsl(180.0,100%,35%)" stroke-width="0.00423"></path>
<path d="M0.345 0.576 Q0.978 0.553 1.072 0.239" stroke="hsl(180.0,100%,35%)" stroke-width="0.00534"></path>
<path d="M0.345 0.576 Q0.596 0.316 0.143 0.137" stroke="hsl(180.0,100%,35%)" stroke-width="0.00089"></path>
<path d="M0.345 0.576 Q1.227 0.668 1.599 0.258" stroke="hsl(180.0,100%,35%)" stroke-width="0.01401"></path>
<path d="M0.345 0.576 Q0.401 0.901 1.048 0.946" stroke="hsl(180.0,100%,35%)" stroke-width="0.00245"></path>
<path d="M0.345 0.576 Q1.288 0.752 1.838 0.330" stroke="hsl(180.0,100%,35%)" stroke-width="0.00044"></path>
<path d="M0.345 0.576 Q0.443 0.507 0.331 0.445" stroke="hsl(180.0,100%,35%)" stroke-width="0.00378"></path>
<path d="M0.345 0.576 Q0.240 0.867 0.785 0.983" stroke="hsl(180.0,100%,35%)" stroke-width="0.00022"></path>
<path d="M0.345 0.576 Q0.639 0.798 1.137 0.703" stroke="hsl(180.0,100%,35%)" stroke-width="0.00044"></path>
<path d="M0.345 0.576 Q0.488 0.780 0.918 0.755" stroke="hsl(180.0,100%,35%)" stroke-width="0.00089"></path>
<path d="M0.345 0.576 Q0.456 0.373 0.085 0.274" stroke="hsl(180.0,100%,35%)" stroke-width="0.00044"></path>
<path d="M0.345 0.576 Q0.307 0.785 0.706 0.850" stroke="hsl(180.0,100%,35%)" stroke-width="0.00022"></path>
<path d="M0.345 0.576 Q0.301 0.734 0.600 0.790" stroke="hsl(180.0,100%,35%)" stroke-width="0.00289"></path>
<path d="M0.345 0.576 Q0.579 0.593 0.663 0.482" stroke="hsl(180.0,100%,35%)" stroke-width="0.00067"></path>
<path d="M0.345 0.576 Q0.410 0.398 0.077 0.328" stroke="hsl(180.0,100%,35%)" stroke-width="0.00022"></path>
<path d="M0.345 0.576 Q0.591 0.474 0.446 0.332" stroke="hsl(180.0,100%,35%)" stroke-width="0.00111"></path>
<path d="M0.652 0.364 Q1.211 0.501 1.599 0.258" stroke="hsl(180.0,100%,35%)" stroke-width="0.00022"></path>
<path d="M0.652 0.364 Q0.329 0.409 0.345 0.576" stroke="hsl(180.0,100%,35%)" stroke-width="0.00044"></path>
<path d="M0.652 0.364 Q0.385 0.734 1.048 0.946" stroke="hsl(180.0,100%,35%)" stroke-width="0.00022"></path>
<path d="M0.918 0.755 Q0.831 0.876 1.048 0.946" stroke="hsl(0.0,100%,35%)" stroke-width="0.04360"></path>
<path d="M0.918 0.755 Q0.950 0.572 0.600 0.516" stroke="hsl(0.0,100%,35%)" stroke-width="0.00044"></path>
<path d="M0.918 0.755 Q0.736 0.760 0.706 0.850" stroke="hsl(0.0,100%,35%)" stroke-width="0.00222"></path>
<path d="M0.918 0.755 Q1.656 0.643 1.599 0.258" stroke="hsl(0.0,100%,35%)" stroke-width="0.00334"></path>
<path d="M0.918 0.755 Q0.670 0.842 0.785 0.983" stroke="hsl(0.0,100%,35%)" stroke-width="0.00222"></path>
<path d="M0.918 0.755 Q0.775 0.551 0.345 0.576" stroke="hsl(0.0,100%,35%)" stroke-width="0.00156"></path>
<path d="M0.918 0.755 Q0.561 0.809 0.587 0.995" stroke="hsl(0.0,100%,35%)" stroke-width="0.00044"></path>
<path d="M0.918 0.755 Q1.069 0.773 1.137 0.703" stroke="hsl(0.0,100%,35%)" stroke-width="0.00111"></path>
<path d="M0.918 0.755 Q1.547 0.719 1.614 0.404" stroke="hsl(0.0,100%,35%)" stroke-width="0.00022"></path>
<path d="M0.706 0.850 Q0.801 0.966 1.048 0.946" stroke="hsl(0.0,100%,35%)" stroke-width="0.01646"></path>
<path d="M0.706 0.850 Q0.744 0.641 0.345 0.576" stroke="hsl(0.0,100%,35%)" stroke-width="0.00022"></path>
<path d="M0.706 0.850 Q0.639 0.932 0.785 0.983" stroke="hsl(0.0,100%,35%)" stroke-width="0.00289"></path>
<path d="M0.706 0.850 Q0.888 0.845 0.918 0.755" stroke="hsl(0.0,100%,35%)" stroke-width="0.01201"></path>
<path d="M0.706 0.850 Q0.685 0.772 0.529 0.766" stroke="hsl(0.0,100%,35%)" stroke-width="0.00868"></path>
<path d="M0.706 0.850 Q1.626 0.733 1.599 0.258" stroke="hsl(0.0,100%,35%)" stroke-width="0.00022"></path>
<path d="M0.706 0.850 Q1.039 0.862 1.137 0.703" stroke="hsl(0.0,100%,35%)" stroke-width="0.00044"></path>
<path d="M1.614 0.404 Q0.842 0.236 0.345 0.576" stroke="hsl(180.0,100%,35%)" stroke-width="0.00779"></path>
<path d="M1.614 0.404 Q1.093 -0.024 0.143 0.137" stroke="hsl(180.0,100%,35%)" stroke-width="0.00022"></path>
<path d="M1.614 0.404 Q1.724 0.328 1.599 0.258" stroke="hsl(180.0,100%,35%)" stroke-width="0.00712"></path>
<path d="M1.614 0.404 Q0.898 0.562 1.048 0.946" stroke="hsl(180.0,100%,35%)" stroke-width="0.00044"></path>
<path d="M1.614 0.404 Q1.018 0.257 0.600 0.516" stroke="hsl(180.0,100%,35%)" stroke-width="0.00445"></path>
<path d="M1.614 0.404 Q0.985 0.441 0.918 0.755" stroke="hsl(180.0,100%,35%)" stroke-width="0.00022"></path>
<path d="M1.614 0.404 Q1.472 0.460 1.550 0.542" stroke="hsl(180.0,100%,35%)" stroke-width="0.00022"></path>
<path d="M0.143 0.137 Q-0.107 0.397 0.345 0.576" stroke="hsl(180.0,100%,35%)" stroke-width="0.00467"></path>
<path d="M0.143 0.137 Q0.068 0.417 0.600 0.516" stroke="hsl(180.0,100%,35%)" stroke-width="0.00067"></path>
<path d="M0.143 0.137 Q-0.051 0.722 1.048 0.946" stroke="hsl(180.0,100%,35%)" stroke-width="0.00044"></path>
<path d="M0.143 0.137 Q0.774 0.489 1.599 0.258" stroke="hsl(180.0,100%,35%)" stroke-width="0.00200"></path>
<path d="M0.143 0.137 Q0.036 0.601 0.918 0.755" stroke="hsl(180.0,100%,35%)" stroke-width="0.00022"></path>
<path d="M0.143 0.137 Q0.187 0.618 1.137 0.703" stroke="hsl(180.0,100%,35%)" stroke-width="0.00044"></path>
<path d="M0.600 0.516 Q0.424 0.495 0.345 0.576" stroke="hsl(180.0,100%,35%)" stroke-width="0.00200"></path>
<path d="M0.600 0.516 Q1.306 0.587 1.599 0.258" stroke="hsl(180.0,100%,35%)" stroke-width="0.00089"></path>
<path d="M0.600 0.516 Q1.057 0.472 1.072 0.239" stroke="hsl(180.0,100%,35%)" stroke-width="0.00044"></path>
<path d="M0.600 0.516 Q1.196 0.663 1.614 0.404" stroke="hsl(180.0,100%,35%)" stroke-width="0.00022"></path>
<path d="M0.600 0.790 Q0.700 0.957 1.048 0.946" stroke="hsl(180.0,100%,35%)" stroke-width="0.01579"></path>
<path d="M0.600 0.790 Q0.644 0.632 0.345 0.576" stroke="hsl(180.0,100%,35%)" stroke-width="0.00334"></path>
<path d="M0.600 0.790 Q1.525 0.724 1.599 0.258" stroke="hsl(180.0,100%,35%)" stroke-width="0.00200"></path>
<path d="M0.600 0.790 Q0.605 0.841 0.706 0.850" stroke="hsl(180.0,100%,35%)" stroke-width="0.00067"></path>
<path d="M0.600 0.790 Q0.787 0.836 0.918 0.755" stroke="hsl(180.0,100%,35%)" stroke-width="0.00067"></path>
<path d="M0.600 0.790 Q0.819 0.653 0.600 0.516" stroke="hsl(180.0,100%,35%)" stroke-width="0.00067"></path>
<path d="M0.587 0.995 Q0.857 1.063 1.048 0.946" stroke="hsl(0.0,100%,35%)" stroke-width="0.00779"></path>
<path d="M0.587 0.995 Q0.696 1.029 0.785 0.983" stroke="hsl(0.0,100%,35%)" stroke-width="0.00334"></path>
<path d="M0.587 0.995 Q0.945 0.941 0.918 0.755" stroke="hsl(0.0,100%,35%)" stroke-width="0.00156"></path>
<path d="M0.587 0.995 Q0.977 0.758 0.600 0.516" stroke="hsl(0.0,100%,35%)" stroke-width="0.00044"></path>
<path d="M0.568 0.375 Q0.190 0.722 0.785 0.983" stroke="hsl(180.0,100%,35%)" stroke-width="0.00022"></path>
<path d="M0.568 0.375 Q0.351 0.756 1.048 0.946" stroke="hsl(180.0,100%,35%)" stroke-width="0.00245"></path>
<path d="M0.568 0.375 Q0.295 0.431 0.345 0.576" stroke="hsl(180.0,100%,35%)" stroke-width="0.00267"></path>
<path d="M0.568 0.375 Q0.928 0.408 1.072 0.239" stroke="hsl(180.0,100%,35%)" stroke-width="0.00022"></path>
<path d="M0.568 0.375 Q1.177 0.523 1.599 0.258" stroke="hsl(180.0,100%,35%)" stroke-width="0.00200"></path>
<path d="M0.568 0.375 Q0.471 0.452 0.600 0.516" stroke="hsl(180.0,100%,35%)" stroke-width="0.00044"></path>
<path d="M0.568 0.375 Q0.590 0.653 1.137 0.703" stroke="hsl(180.0,100%,35%)" stroke-width="0.00022"></path>
<path d="M0.568 0.375 Q0.257 0.640 0.706 0.850" stroke="hsl(180.0,100%,35%)" stroke-width="0.00022"></path>
<path d="M0.568 0.375 Q0.407 0.228 0.085 0.274" stroke="hsl(180.0,100%,35%)" stroke-width="0.00022"></path>
<path d="M1.973 0.488 Q1.970 0.298 1.599 0.258" stroke="hsl(180.0,100%,35%)" stroke-width="0.00089"></path>
<path d="M1.973 0.488 Q1.089 0.206 0.345 0.576" stroke="hsl(180.0,100%,35%)" stroke-width="0.00022"></path>
<path d="M1.973 0.488 Q1.861 0.374 1.614 0.404" stroke="hsl(180.0,100%,35%)" stroke-width="0.00022"></path>
<path d="M1.072 0.239 Q0.439 0.262 0.345 0.576" stroke="hsl(180.0,100%,35%)" stroke-width="0.00556"></path>
<path d="M1.072 0.239 Q0.690 0.002 0.143 0.137" stroke="hsl(180.0,100%,35%)" stroke-width="0.00044"></path>
<path d="M1.072 0.239 Q0.615 0.283 0.600 0.516" stroke="hsl(180.0,100%,35%)" stroke-width="0.00067"></path>
<path d="M1.072 0.239 Q1.320 0.354 1.599 0.258" stroke="hsl(180.0,100%,35%)" stroke-width="0.00267"></path>
<path d="M0.663 0.482 Q0.429 0.466 0.345 0.576" stroke="hsl(180.0,100%,35%)" stroke-width="0.00222"></path>
<path d="M0.663 0.482 Q1.310 0.558 1.599 0.258" stroke="hsl(180.0,100%,35%)" stroke-width="0.00200"></path>
<path d="M0.663 0.482 Q0.540 0.263 0.085 0.274" stroke="hsl(180.0,100%,35%)" stroke-width="0.00022"></path>
<path d="M1.267 0.312 Q1.476 0.351 1.599 0.258" stroke="hsl(180.0,100%,35%)" stroke-width="0.00156"></path>
<path d="M1.267 0.312 Q0.595 0.259 0.345 0.576" stroke="hsl(180.0,100%,35%)" stroke-width="0.00067"></path>
<path d="M1.267 0.312 Q0.706 0.056 0.085 0.274" stroke="hsl(180.0,100%,35%)" stroke-width="0.00022"></path>
<path d="M1.838 0.330 Q0.895 0.154 0.345 0.576" stroke="hsl(180.0,100%,35%)" stroke-width="0.00400"></path>
<path d="M1.838 0.330 Q1.071 0.175 0.600 0.516" stroke="hsl(180.0,100%,35%)" stroke-width="0.00022"></path>
<path d="M1.838 0.330 Q1.146 -0.106 0.143 0.137" stroke="hsl(180.0,100%,35%)" stroke-width="0.00022"></path>
<path d="M1.838 0.330 Q1.776 0.246 1.599 0.258" stroke="hsl(180.0,100%,35%)" stroke-width="0.00489"></path>
<path d="M1.838 0.330 Q1.667 0.322 1.614 0.404" stroke="hsl(180.0,100%,35%)" stroke-width="0.00022"></path>
<path d="M1.838 0.330 Q0.993 0.086 0.331 0.445" stroke="hsl(180.0,100%,35%)" stroke-width="0.00133"></path>
<path d="M0.085 0.456 Q0.119 0.568 0.345 0.576" stroke="hsl(180.0,100%,35%)" stroke-width="0.00111"></path>
<path d="M0.085 0.456 Q1.000 0.660 1.599 0.258" stroke="hsl(180.0,100%,35%)" stroke-width="0.00067"></path>
<path d="M0.085 0.456 Q0.413 0.790 1.137 0.703" stroke="hsl(180.0,100%,35%)" stroke-width="0.00022"></path>
<path d="M0.085 0.456 Q0.175 0.893 1.048 0.946" stroke="hsl(180.0,100%,35%)" stroke-width="0.00044"></path>
<path d="M0.085 0.456 Q0.081 0.777 0.706 0.850" stroke="hsl(180.0,100%,35%)" stroke-width="0.00022"></path>
<path d="M0.331 0.445 Q0.289 0.839 1.048 0.946" stroke="hsl(180.0,100%,35%)" stroke-width="0.00044"></path>
<path d="M0.331 0.445 Q0.233 0.513 0.345 0.576" stroke="hsl(180.0,100%,35%)" stroke-width="0.01179"></path>
<path d="M0.331 0.445 Q0.865 0.490 1.072 0.239" stroke="hsl(180.0,100%,35%)" stroke-width="0.00044"></path>
<path d="M0.331 0.445 Q1.005 0.681 1.614 0.404" stroke="hsl(180.0,100%,35%)" stroke-width="0.00044"></path>
<path d="M0.331 0.445 Q1.114 0.605 1.599 0.258" stroke="hsl(180.0,100%,35%)" stroke-width="0.01112"></path>
<path d="M0.331 0.445 Q0.394 0.483 0.484 0.461" stroke="hsl(180.0,100%,35%)" stroke-width="0.00022"></path>
<path d="M0.331 0.445 Q0.927 0.804 1.759 0.592" stroke="hsl(180.0,100%,35%)" stroke-width="0.00022"></path>
<path d="M0.331 0.445 Q0.189 0.671 0.600 0.790" stroke="hsl(180.0,100%,35%)" stroke-width="0.00044"></path>
<path d="M0.331 0.445 Q0.409 0.534 0.600 0.516" stroke="hsl(180.0,100%,35%)" stroke-width="0.00044"></path>
<path d="M0.331 0.445 Q0.527 0.735 1.137 0.703" stroke="hsl(180.0,100%,35%)" stroke-width="0.00044"></path>
<path d="M0.140 0.306 Q0.026 0.482 0.345 0.576" stroke="hsl(180.0,100%,35%)" stroke-width="0.00089"></path>
<path d="M0.140 0.306 Q0.124 0.413 0.331 0.445" stroke="hsl(180.0,100%,35%)" stroke-width="0.00067"></path>
<path d="M0.140 0.306 Q0.908 0.574 1.599 0.258" stroke="hsl(180.0,100%,35%)" stroke-width="0.00044"></path>
<path d="M0.140 0.306 Q0.138 0.279 0.085 0.274" stroke="hsl(180.0,100%,35%)" stroke-width="0.00044"></path>
<path d="M0.446 0.332 Q1.081 0.526 1.599 0.258" stroke="hsl(180.0,100%,35%)" stroke-width="0.00690"></path>
<path d="M0.446 0.332 Q0.200 0.434 0.345 0.576" stroke="hsl(180.0,100%,35%)" stroke-width="0.00779"></path>
<path d="M0.446 0.332 Q0.376 0.454 0.600 0.516" stroke="hsl(180.0,100%,35%)" stroke-width="0.00089"></path>
<path d="M0.446 0.332 Q0.298 0.365 0.331 0.445" stroke="hsl(180.0,100%,35%)" stroke-width="0.00133"></path>
<path d="M1.811 0.434 Q1.846 0.304 1.599 0.258" stroke="hsl(180.0,100%,35%)" stroke-width="0.00022"></path>
<path d="M1.811 0.434 Q1.909 0.430 1.921 0.381" stroke="hsl(180.0,100%,35%)" stroke-width="0.00022"></path>
<path d="M1.811 0.434 Q1.965 0.366 1.864 0.276" stroke="hsl(180.0,100%,35%)" stroke-width="0.00022"></path>
<path d="M0.484 0.461 Q0.322 0.491 0.345 0.576" stroke="hsl(180.0,100%,35%)" stroke-width="0.00245"></path>
<path d="M0.484 0.461 Q0.420 0.422 0.331 0.445" stroke="hsl(180.0,100%,35%)" stroke-width="0.00044"></path>
<path d="M0.484 0.461 Q1.203 0.583 1.599 0.258" stroke="hsl(180.0,100%,35%)" stroke-width="0.00245"></path>
<path d="M0.484 0.461 Q0.498 0.511 0.600 0.516" stroke="hsl(180.0,100%,35%)" stroke-width="0.00044"></path>
<path d="M1.759 0.592 Q1.241 0.322 0.600 0.516" stroke="hsl(180.0,100%,35%)" stroke-width="0.00111"></path>
<path d="M1.759 0.592 Q1.867 0.601 1.907 0.550" stroke="hsl(180.0,100%,35%)" stroke-width="0.00022"></path>
<path d="M1.759 0.592 Q1.946 0.393 1.599 0.258" stroke="hsl(180.0,100%,35%)" stroke-width="0.00378"></path>
<path d="M1.759 0.592 Q1.065 0.301 0.345 0.576" stroke="hsl(180.0,100%,35%)" stroke-width="0.00267"></path>
<path d="M1.759 0.592 Q1.163 0.233 0.331 0.445" stroke="hsl(180.0,100%,35%)" stroke-width="0.00044"></path>
<path d="M1.759 0.592 Q1.121 0.627 1.048 0.946" stroke="hsl(180.0,100%,35%)" stroke-width="0.00022"></path>
<path d="M1.398 0.216 Q1.465 0.277 1.599 0.258" stroke="hsl(180.0,100%,35%)" stroke-width="0.00111"></path>
<path d="M1.398 0.216 Q0.584 0.185 0.345 0.576" stroke="hsl(180.0,100%,35%)" stroke-width="0.00111"></path>
<path d="M1.398 0.216 Q0.682 0.117 0.331 0.445" stroke="hsl(180.0,100%,35%)" stroke-width="0.00022"></path>
<path d="M1.414 0.366 Q1.593 0.349 1.599 0.258" stroke="hsl(180.0,100%,35%)" stroke-width="0.00267"></path>
<path d="M1.414 0.366 Q0.712 0.257 0.345 0.576" stroke="hsl(180.0,100%,35%)" stroke-width="0.00222"></path>
<path d="M1.414 0.366 Q1.131 0.319 0.975 0.447" stroke="hsl(180.0,100%,35%)" stroke-width="0.00022"></path>
<path d="M1.414 0.366 Q0.810 0.189 0.331 0.445" stroke="hsl(180.0,100%,35%)" stroke-width="0.00067"></path>
<path d="M1.647 0.550 Q1.270 0.525 1.137 0.703" stroke="hsl(180.0,100%,35%)" stroke-width="0.00022"></path>
<path d="M1.647 0.550 Q1.857 0.395 1.599 0.258" stroke="hsl(180.0,100%,35%)" stroke-width="0.00044"></path>
<path d="M1.647 0.550 Q1.151 0.324 0.600 0.516" stroke="hsl(180.0,100%,35%)" stroke-width="0.00022"></path>
<path d="M1.647 0.550 Q0.975 0.303 0.345 0.576" stroke="hsl(180.0,100%,35%)" stroke-width="0.00022"></path>
<path d="M0.729 0.269 Q0.292 0.346 0.345 0.576" stroke="hsl(180.0,100%,35%)" stroke-width="0.00067"></path>
<path d="M0.729 0.269 Q0.924 0.323 1.072 0.239" stroke="hsl(180.0,100%,35%)" stroke-width="0.00044"></path>
<path d="M0.729 0.269 Q1.173 0.438 1.599 0.258" stroke="hsl(180.0,100%,35%)" stroke-width="0.00022"></path>
<path d="M1.462 0.498 Q1.722 0.406 1.599 0.258" stroke="hsl(180.0,100%,35%)" stroke-width="0.00133"></path>
<path d="M1.462 0.498 Q0.841 0.314 0.345 0.576" stroke="hsl(180.0,100%,35%)" stroke-width="0.00089"></path>
<path d="M1.462 0.498 Q1.017 0.334 0.600 0.516" stroke="hsl(180.0,100%,35%)" stroke-width="0.00022"></path>
<path d="M0.724 0.585 Q0.836 0.726 1.137 0.703" stroke="hsl(180.0,100%,35%)" stroke-width="0.00044"></path>
<path d="M0.724 0.585 Q1.423 0.597 1.599 0.258" stroke="hsl(180.0,100%,35%)" stroke-width="0.00044"></path>
<path d="M0.724 0.585 Q0.598 0.830 1.048 0.946" stroke="hsl(180.0,100%,35%)" stroke-width="0.00022"></path>
<path d="M1.754 0.119 Q0.684 0.066 0.345 0.576" stroke="hsl(180.0,100%,35%)" stroke-width="0.00044"></path>
<path d="M1.754 0.119 Q1.628 0.241 1.838 0.330" stroke="hsl(180.0,100%,35%)" stroke-width="0.00022"></path>
<path d="M1.754 0.119 Q0.782 -0.003 0.331 0.445" stroke="hsl(180.0,100%,35%)" stroke-width="0.00067"></path>
<path d="M1.754 0.119 Q1.566 0.158 1.599 0.258" stroke="hsl(180.0,100%,35%)" stroke-width="0.00067"></path>
</g>
<text x="1.085" y="0.768" font-size="0.017649" fill="hsl(0.0,100%,20%)">afdx</text>
<text x="1.137" y="0.683" font-size="0.038801" fill="hsl(0.0,100%,20%)">rharrison</text>
<text x="1.048" y="0.894" font-size="0.103288" fill="hsl(0.0,100%,20%)">bclayton</text>
<text x="0.785" y="0.954" font-size="0.057132" fill="hsl(0.0,100%,20%)">amaiorano</text>
<text x="1.354" y="0.799" font-size="0.011104" fill="hsl(0.0,100%,20%)">vasniktel</text>
<text x="0.433" y="0.625" font-size="0.005095" fill="hsl(180.0,100%,20%)">aleksi</text>
<text x="1.599" y="0.222" font-size="0.071690" fill="hsl(180.0,100%,20%)">cwallez</text>
<text x="0.345" y="0.543" font-size="0.066428" fill="hsl(180.0,100%,20%)">enga</text>
<text x="0.652" y="0.362" font-size="0.005095" fill="hsl(180.0,100%,20%)">aleksi.sapon</text>
<text x="0.918" y="0.724" font-size="0.061666" fill="hsl(0.0,100%,20%)">jrprice</text>
<text x="0.706" y="0.823" font-size="0.053252" fill="hsl(0.0,100%,20%)">dneto</text>
<text x="1.614" y="0.389" font-size="0.030569" fill="hsl(180.0,100%,20%)">bajones</text>
<text x="0.143" y="0.128" font-size="0.017649" fill="hsl(180.0,100%,20%)">shrekshao</text>
<text x="0.600" y="0.503" font-size="0.025089" fill="hsl(180.0,100%,20%)">kainino</text>
<text x="1.550" y="0.541" font-size="0.002547" fill="hsl(180.0,100%,20%)">headlessclayton</text>
<text x="0.600" y="0.774" font-size="0.031199" fill="hsl(180.0,100%,20%)">senorblanco</text>
<text x="0.587" y="0.985" font-size="0.020695" fill="hsl(0.0,100%,20%)">sarahmashay</text>
<text x="1.599" y="0.746" font-size="0.004412" fill="hsl(0.0,100%,20%)">allydonaldson</text>
<text x="0.568" y="0.367" font-size="0.016111" fill="hsl(180.0,100%,20%)">brandon1.jones</text>
<text x="0.529" y="0.757" font-size="0.016311" fill="hsl(0.0,100%,20%)">alanbaker</text>
<text x="1.973" y="0.484" font-size="0.007205" fill="hsl(180.0,100%,20%)">beaufort.francois</text>
<text x="1.072" y="0.227" font-size="0.024434" fill="hsl(180.0,100%,20%)">lokokung</text>
<text x="0.085" y="0.271" font-size="0.006740" fill="hsl(180.0,100%,20%)">rafael.cintron</text>
<text x="0.663" y="0.476" font-size="0.012217" fill="hsl(180.0,100%,20%)">bryan.bernhart</text>
<text x="1.267" y="0.308" font-size="0.008449" fill="hsl(180.0,100%,20%)">cjj19970505</text>
<text x="1.838" y="0.321" font-size="0.018545" fill="hsl(180.0,100%,20%)">hao.x.li</text>
<text x="1.357" y="0.347" font-size="0.002547" fill="hsl(180.0,100%,20%)">fbeaufort</text>
<text x="0.085" y="0.451" font-size="0.009185" fill="hsl(180.0,100%,20%)">rockot</text>
<text x="0.331" y="0.428" font-size="0.033409" fill="hsl(180.0,100%,20%)">jiawei.shao</text>
<text x="0.140" y="0.302" font-size="0.008824" fill="hsl(180.0,100%,20%)">jiajia.qin</text>
<text x="1.864" y="0.274" font-size="0.003603" fill="hsl(180.0,100%,20%)">thakis</text>
<text x="0.897" y="0.585" font-size="0.005095" fill="hsl(0.0,100%,20%)">jmadill</text>
<text x="0.077" y="0.327" font-size="0.002547" fill="hsl(180.0,100%,20%)">hob</text>
<text x="0.446" y="0.320" font-size="0.022927" fill="hsl(180.0,100%,20%)">yunchao.he</text>
<text x="1.811" y="0.432" font-size="0.004412" fill="hsl(180.0,100%,20%)">hans</text>
<text x="1.921" y="0.380" font-size="0.002547" fill="hsl(180.0,100%,20%)">hwennborg</text>
<text x="0.484" y="0.454" font-size="0.013237" fill="hsl(180.0,100%,20%)">shaobo.yan</text>
<text x="1.759" y="0.584" font-size="0.015909" fill="hsl(180.0,100%,20%)">zhaoming.jiang</text>
<text x="1.398" y="0.212" font-size="0.008449" fill="hsl(180.0,100%,20%)">jie.a.chen</text>
<text x="1.414" y="0.360" font-size="0.012989" fill="hsl(180.0,100%,20%)">junwei.fu</text>
<text x="0.975" y="0.445" font-size="0.002547" fill="hsl(180.0,100%,20%)">ningxin.hu</text>
<text x="1.647" y="0.548" font-size="0.005696" fill="hsl(180.0,100%,20%)">pkasting</text>
<text x="0.729" y="0.266" font-size="0.006240" fill="hsl(180.0,100%,20%)">sunnyps</text>
<text x="1.462" y="0.494" font-size="0.008449" fill="hsl(180.0,100%,20%)">tangm</text>
<text x="0.724" y="0.582" font-size="0.005696" fill="hsl(180.0,100%,20%)">vadimsh</text>
<text x="1.754" y="0.115" font-size="0.007642" fill="hsl(180.0,100%,20%)">yang.gu</text>
<text x="1.907" y="0.548" font-size="0.002547" fill="hsl(180.0,100%,20%)">ynovikov</text>
</svg>
