<svg width="4000" height="2000" viewBox="-0.025 -0.025 2.05 1.05" xmlns="http://www.w3.org/2000/svg">
  <style>
    path {
      fill: none;
      stroke-linecap: round;
      stroke-opacity: 0.4;
    }

    text {
      text-anchor: middle;
      alignment-baseline: hanging;
    }
  </style>
  <g opacity="0.4">
<path d="M0.849 0.698 Q0.754 0.640 0.620 0.674" stroke="hsl(0.0,100%,35%)" stroke-width="0.00525"></path>
<path d="M0.849 0.698 Q0.902 0.626 0.774 0.584" stroke="hsl(0.0,100%,35%)" stroke-width="0.01252"></path>
<path d="M0.849 0.698 Q1.507 0.596 1.452 0.252" stroke="hsl(0.0,100%,35%)" stroke-width="0.00242"></path>
<path d="M0.849 0.698 Q1.020 0.895 1.441 0.855" stroke="hsl(0.0,100%,35%)" stroke-width="0.00040"></path>
<path d="M0.849 0.698 Q0.516 0.595 0.243 0.735" stroke="hsl(0.0,100%,35%)" stroke-width="0.00283"></path>
<path d="M0.849 0.698 Q1.031 0.530 0.743 0.404" stroke="hsl(0.0,100%,35%)" stroke-width="0.00202"></path>
<path d="M0.849 0.698 Q0.688 0.687 0.631 0.763" stroke="hsl(0.0,100%,35%)" stroke-width="0.00040"></path>
<path d="M0.849 0.698 Q1.369 0.555 1.204 0.269" stroke="hsl(0.0,100%,35%)" stroke-width="0.00040"></path>
<path d="M0.620 0.674 Q0.769 0.660 0.774 0.584" stroke="hsl(0.0,100%,35%)" stroke-width="0.09615"></path>
<path d="M0.620 0.674 Q0.716 0.732 0.849 0.698" stroke="hsl(0.0,100%,35%)" stroke-width="0.00081"></path>
<path d="M0.620 0.674 Q0.886 0.929 1.441 0.855" stroke="hsl(0.0,100%,35%)" stroke-width="0.00727"></path>
<path d="M0.620 0.674 Q0.383 0.629 0.243 0.735" stroke="hsl(0.0,100%,35%)" stroke-width="0.00444"></path>
<path d="M0.620 0.674 Q1.374 0.629 1.452 0.252" stroke="hsl(0.0,100%,35%)" stroke-width="0.00606"></path>
<path d="M0.620 0.674 Q0.898 0.564 0.743 0.404" stroke="hsl(0.0,100%,35%)" stroke-width="0.00162"></path>
<path d="M0.620 0.674 Q0.940 0.401 0.477 0.185" stroke="hsl(0.0,100%,35%)" stroke-width="0.00162"></path>
<path d="M0.620 0.674 Q1.566 0.591 1.611 0.111" stroke="hsl(0.0,100%,35%)" stroke-width="0.00040"></path>
<path d="M0.620 0.674 Q0.598 0.425 0.109 0.382" stroke="hsl(0.0,100%,35%)" stroke-width="0.00040"></path>
<path d="M0.620 0.674 Q0.553 0.580 0.356 0.592" stroke="hsl(0.0,100%,35%)" stroke-width="0.00162"></path>
<path d="M0.620 0.674 Q0.943 0.835 1.328 0.713" stroke="hsl(0.0,100%,35%)" stroke-width="0.00040"></path>
<path d="M0.774 0.584 Q0.625 0.598 0.620 0.674" stroke="hsl(0.0,100%,35%)" stroke-width="0.05454"></path>
<path d="M0.774 0.584 Q0.891 0.853 1.441 0.855" stroke="hsl(0.0,100%,35%)" stroke-width="0.00687"></path>
<path d="M0.774 0.584 Q0.721 0.656 0.849 0.698" stroke="hsl(0.0,100%,35%)" stroke-width="0.00808"></path>
<path d="M0.774 0.584 Q0.388 0.554 0.243 0.735" stroke="hsl(0.0,100%,35%)" stroke-width="0.00121"></path>
<path d="M0.774 0.584 Q1.379 0.554 1.452 0.252" stroke="hsl(0.0,100%,35%)" stroke-width="0.00323"></path>
<path d="M0.774 0.584 Q0.558 0.505 0.356 0.592" stroke="hsl(0.0,100%,35%)" stroke-width="0.00081"></path>
<path d="M0.774 0.584 Q0.903 0.488 0.743 0.404" stroke="hsl(0.0,100%,35%)" stroke-width="0.00040"></path>
<path d="M0.774 0.584 Q0.945 0.325 0.477 0.185" stroke="hsl(0.0,100%,35%)" stroke-width="0.00040"></path>
<path d="M1.452 0.252 Q0.976 0.186 0.743 0.404" stroke="hsl(180.0,100%,35%)" stroke-width="0.00283"></path>
<path d="M1.452 0.252 Q1.018 0.024 0.477 0.185" stroke="hsl(180.0,100%,35%)" stroke-width="0.00525"></path>
<path d="M1.452 0.252 Q0.699 0.297 0.620 0.674" stroke="hsl(180.0,100%,35%)" stroke-width="0.00727"></path>
<path d="M1.452 0.252 Q0.535 0.390 0.602 0.867" stroke="hsl(180.0,100%,35%)" stroke-width="0.00040"></path>
<path d="M1.452 0.252 Q1.459 0.351 1.652 0.369" stroke="hsl(180.0,100%,35%)" stroke-width="0.00606"></path>
<path d="M1.452 0.252 Q0.847 0.283 0.774 0.584" stroke="hsl(180.0,100%,35%)" stroke-width="0.00687"></path>
<path d="M1.452 0.252 Q1.314 0.211 1.204 0.269" stroke="hsl(180.0,100%,35%)" stroke-width="0.00323"></path>
<path d="M1.452 0.252 Q1.088 0.105 0.722 0.251" stroke="hsl(180.0,100%,35%)" stroke-width="0.00121"></path>
<path d="M1.452 0.252 Q0.828 0.532 1.236 0.897" stroke="hsl(180.0,100%,35%)" stroke-width="0.00040"></path>
<path d="M1.452 0.252 Q1.645 0.214 1.611 0.111" stroke="hsl(180.0,100%,35%)" stroke-width="0.00040"></path>
<path d="M1.452 0.252 Q0.677 0.048 0.109 0.382" stroke="hsl(180.0,100%,35%)" stroke-width="0.00081"></path>
<path d="M1.452 0.252 Q1.218 0.192 1.050 0.293" stroke="hsl(180.0,100%,35%)" stroke-width="0.00040"></path>
<path d="M1.452 0.252 Q1.022 0.458 1.328 0.713" stroke="hsl(180.0,100%,35%)" stroke-width="0.00202"></path>
<path d="M1.441 0.855 Q1.271 0.658 0.849 0.698" stroke="hsl(0.0,100%,35%)" stroke-width="0.00202"></path>
<path d="M1.441 0.855 Q1.176 0.600 0.620 0.674" stroke="hsl(0.0,100%,35%)" stroke-width="0.00323"></path>
<path d="M1.441 0.855 Q1.929 0.556 1.452 0.252" stroke="hsl(0.0,100%,35%)" stroke-width="0.00081"></path>
<path d="M1.441 0.855 Q1.324 0.586 0.774 0.584" stroke="hsl(0.0,100%,35%)" stroke-width="0.00081"></path>
<path d="M1.441 0.855 Q1.495 0.327 0.477 0.185" stroke="hsl(0.0,100%,35%)" stroke-width="0.00283"></path>
<path d="M1.441 0.855 Q1.590 0.867 1.646 0.797" stroke="hsl(0.0,100%,35%)" stroke-width="0.00162"></path>
<path d="M1.441 0.855 Q1.759 0.768 1.658 0.594" stroke="hsl(0.0,100%,35%)" stroke-width="0.00040"></path>
<path d="M1.441 0.855 Q1.273 0.461 0.467 0.457" stroke="hsl(0.0,100%,35%)" stroke-width="0.00040"></path>
<path d="M1.441 0.855 Q0.938 0.555 0.243 0.735" stroke="hsl(0.0,100%,35%)" stroke-width="0.00040"></path>
<path d="M1.441 0.855 Q1.453 0.490 0.743 0.404" stroke="hsl(0.0,100%,35%)" stroke-width="0.00040"></path>
<path d="M0.243 0.735 Q0.629 0.766 0.774 0.584" stroke="hsl(0.0,100%,35%)" stroke-width="0.02222"></path>
<path d="M0.243 0.735 Q0.481 0.780 0.620 0.674" stroke="hsl(0.0,100%,35%)" stroke-width="0.02909"></path>
<path d="M0.243 0.735 Q0.576 0.838 0.849 0.698" stroke="hsl(0.0,100%,35%)" stroke-width="0.00444"></path>
<path d="M0.243 0.735 Q0.414 0.686 0.356 0.592" stroke="hsl(0.0,100%,35%)" stroke-width="0.00040"></path>
<path d="M0.243 0.735 Q0.747 1.035 1.441 0.855" stroke="hsl(0.0,100%,35%)" stroke-width="0.00040"></path>
<path d="M0.243 0.735 Q1.234 0.736 1.452 0.252" stroke="hsl(0.0,100%,35%)" stroke-width="0.00040"></path>
<path d="M0.243 0.735 Q0.800 0.507 0.477 0.185" stroke="hsl(0.0,100%,35%)" stroke-width="0.00040"></path>
<path d="M0.743 0.404 Q0.466 0.514 0.620 0.674" stroke="hsl(180.0,100%,35%)" stroke-width="0.00323"></path>
<path d="M0.743 0.404 Q0.785 0.241 0.477 0.185" stroke="hsl(180.0,100%,35%)" stroke-width="0.01293"></path>
<path d="M0.743 0.404 Q0.881 0.781 1.646 0.797" stroke="hsl(180.0,100%,35%)" stroke-width="0.00040"></path>
<path d="M0.743 0.404 Q0.732 0.769 1.441 0.855" stroke="hsl(180.0,100%,35%)" stroke-width="0.00040"></path>
<path d="M0.743 0.404 Q0.444 0.266 0.109 0.382" stroke="hsl(180.0,100%,35%)" stroke-width="0.00040"></path>
<path d="M0.743 0.404 Q1.049 0.682 1.658 0.594" stroke="hsl(180.0,100%,35%)" stroke-width="0.00040"></path>
<path d="M0.743 0.404 Q0.228 0.470 0.243 0.735" stroke="hsl(180.0,100%,35%)" stroke-width="0.00040"></path>
<path d="M0.743 0.404 Q0.561 0.572 0.849 0.698" stroke="hsl(180.0,100%,35%)" stroke-width="0.00162"></path>
<path d="M0.743 0.404 Q1.219 0.470 1.452 0.252" stroke="hsl(180.0,100%,35%)" stroke-width="0.00081"></path>
<path d="M0.743 0.404 Q0.563 0.375 0.467 0.457" stroke="hsl(180.0,100%,35%)" stroke-width="0.00081"></path>
<path d="M0.743 0.404 Q0.789 0.675 1.328 0.713" stroke="hsl(180.0,100%,35%)" stroke-width="0.00081"></path>
<path d="M0.743 0.404 Q1.137 0.330 1.079 0.121" stroke="hsl(180.0,100%,35%)" stroke-width="0.00040"></path>
<path d="M0.743 0.404 Q1.081 0.429 1.204 0.269" stroke="hsl(180.0,100%,35%)" stroke-width="0.00121"></path>
<path d="M0.743 0.404 Q0.399 0.421 0.356 0.592" stroke="hsl(180.0,100%,35%)" stroke-width="0.00040"></path>
<path d="M1.204 0.269 Q1.342 0.310 1.452 0.252" stroke="hsl(180.0,100%,35%)" stroke-width="0.01131"></path>
<path d="M1.204 0.269 Q0.866 0.244 0.743 0.404" stroke="hsl(180.0,100%,35%)" stroke-width="0.01091"></path>
<path d="M1.204 0.269 Q0.908 0.082 0.477 0.185" stroke="hsl(180.0,100%,35%)" stroke-width="0.00646"></path>
<path d="M1.204 0.269 Q0.588 0.355 0.620 0.674" stroke="hsl(180.0,100%,35%)" stroke-width="0.00081"></path>
<path d="M1.204 0.269 Q0.737 0.341 0.774 0.584" stroke="hsl(180.0,100%,35%)" stroke-width="0.00121"></path>
<path d="M1.204 0.269 Q1.246 0.617 1.935 0.673" stroke="hsl(180.0,100%,35%)" stroke-width="0.00040"></path>
<path d="M1.204 0.269 Q0.911 0.516 1.328 0.713" stroke="hsl(180.0,100%,35%)" stroke-width="0.00242"></path>
<path d="M1.204 0.269 Q0.854 0.609 1.441 0.855" stroke="hsl(180.0,100%,35%)" stroke-width="0.00081"></path>
<path d="M1.204 0.269 Q1.003 0.621 1.646 0.797" stroke="hsl(180.0,100%,35%)" stroke-width="0.00040"></path>
<path d="M1.204 0.269 Q1.348 0.409 1.652 0.369" stroke="hsl(180.0,100%,35%)" stroke-width="0.00040"></path>
<path d="M1.204 0.269 Q1.055 0.312 1.105 0.394" stroke="hsl(180.0,100%,35%)" stroke-width="0.00040"></path>
<path d="M1.328 0.713 Q1.283 0.441 0.743 0.404" stroke="hsl(180.0,100%,35%)" stroke-width="0.00202"></path>
<path d="M1.328 0.713 Q1.325 0.279 0.477 0.185" stroke="hsl(180.0,100%,35%)" stroke-width="0.00121"></path>
<path d="M1.328 0.713 Q1.765 0.606 1.652 0.369" stroke="hsl(180.0,100%,35%)" stroke-width="0.00081"></path>
<path d="M1.328 0.713 Q1.100 0.610 0.849 0.698" stroke="hsl(180.0,100%,35%)" stroke-width="0.00040"></path>
<path d="M1.328 0.713 Q1.759 0.507 1.452 0.252" stroke="hsl(180.0,100%,35%)" stroke-width="0.00121"></path>
<path d="M0.477 0.185 Q0.911 0.414 1.452 0.252" stroke="hsl(180.0,100%,35%)" stroke-width="0.00727"></path>
<path d="M0.477 0.185 Q0.435 0.348 0.743 0.404" stroke="hsl(180.0,100%,35%)" stroke-width="0.02424"></path>
<path d="M0.477 0.185 Q1.103 0.375 1.611 0.111" stroke="hsl(180.0,100%,35%)" stroke-width="0.00040"></path>
<path d="M0.477 0.185 Q0.917 0.512 1.652 0.369" stroke="hsl(180.0,100%,35%)" stroke-width="0.00040"></path>
<path d="M0.477 0.185 Q0.815 0.720 1.935 0.673" stroke="hsl(180.0,100%,35%)" stroke-width="0.00323"></path>
<path d="M0.477 0.185 Q0.547 0.267 0.722 0.251" stroke="hsl(180.0,100%,35%)" stroke-width="0.00081"></path>
<path d="M0.477 0.185 Q0.662 0.256 0.841 0.182" stroke="hsl(180.0,100%,35%)" stroke-width="0.00040"></path>
<path d="M0.477 0.185 Q0.158 0.458 0.620 0.674" stroke="hsl(180.0,100%,35%)" stroke-width="0.00162"></path>
<path d="M0.477 0.185 Q0.306 0.444 0.774 0.584" stroke="hsl(180.0,100%,35%)" stroke-width="0.00242"></path>
<path d="M0.477 0.185 Q0.480 0.619 1.328 0.713" stroke="hsl(180.0,100%,35%)" stroke-width="0.00121"></path>
<path d="M0.477 0.185 Q0.423 0.713 1.441 0.855" stroke="hsl(180.0,100%,35%)" stroke-width="0.00040"></path>
<path d="M1.652 0.369 Q1.646 0.271 1.452 0.252" stroke="hsl(180.0,100%,35%)" stroke-width="0.00283"></path>
<path d="M1.652 0.369 Q1.212 0.042 0.477 0.185" stroke="hsl(180.0,100%,35%)" stroke-width="0.00121"></path>
<path d="M1.652 0.369 Q0.893 0.315 0.620 0.674" stroke="hsl(180.0,100%,35%)" stroke-width="0.00040"></path>
<path d="M1.652 0.369 Q1.476 0.483 1.658 0.594" stroke="hsl(180.0,100%,35%)" stroke-width="0.00040"></path>
<path d="M1.935 0.673 Q2.030 0.366 1.452 0.252" stroke="hsl(180.0,100%,35%)" stroke-width="0.00202"></path>
<path d="M1.935 0.673 Q1.860 0.578 1.658 0.594" stroke="hsl(180.0,100%,35%)" stroke-width="0.00242"></path>
<path d="M1.935 0.673 Q1.599 0.572 1.328 0.713" stroke="hsl(180.0,100%,35%)" stroke-width="0.00040"></path>
<path d="M1.935 0.673 Q1.554 0.300 0.743 0.404" stroke="hsl(180.0,100%,35%)" stroke-width="0.00323"></path>
<path d="M1.935 0.673 Q2.222 0.327 1.611 0.111" stroke="hsl(180.0,100%,35%)" stroke-width="0.00121"></path>
<path d="M1.935 0.673 Q1.277 0.411 0.620 0.674" stroke="hsl(180.0,100%,35%)" stroke-width="0.00040"></path>
<path d="M1.935 0.673 Q1.596 0.137 0.477 0.185" stroke="hsl(180.0,100%,35%)" stroke-width="0.00242"></path>
<path d="M1.935 0.673 Q1.425 0.396 0.774 0.584" stroke="hsl(180.0,100%,35%)" stroke-width="0.00081"></path>
<path d="M1.935 0.673 Q1.374 0.271 0.467 0.457" stroke="hsl(180.0,100%,35%)" stroke-width="0.00040"></path>
<path d="M1.935 0.673 Q1.948 0.226 1.079 0.121" stroke="hsl(180.0,100%,35%)" stroke-width="0.00040"></path>
<path d="M1.236 0.897 Q1.430 0.824 1.328 0.713" stroke="hsl(180.0,100%,35%)" stroke-width="0.00121"></path>
<path d="M1.236 0.897 Q1.860 0.618 1.452 0.252" stroke="hsl(180.0,100%,35%)" stroke-width="0.00121"></path>
<path d="M1.236 0.897 Q1.202 0.720 0.849 0.698" stroke="hsl(180.0,100%,35%)" stroke-width="0.00040"></path>
<path d="M0.467 0.457 Q0.370 0.596 0.620 0.674" stroke="hsl(0.0,100%,35%)" stroke-width="0.00889"></path>
<path d="M0.467 0.457 Q0.465 0.654 0.849 0.698" stroke="hsl(0.0,100%,35%)" stroke-width="0.00121"></path>
<path d="M0.467 0.457 Q0.348 0.348 0.109 0.382" stroke="hsl(0.0,100%,35%)" stroke-width="0.00202"></path>
<path d="M0.467 0.457 Q0.693 0.757 1.328 0.713" stroke="hsl(0.0,100%,35%)" stroke-width="0.00040"></path>
<path d="M0.467 0.457 Q1.123 0.551 1.452 0.252" stroke="hsl(0.0,100%,35%)" stroke-width="0.00040"></path>
<path d="M0.467 0.457 Q0.518 0.582 0.774 0.584" stroke="hsl(0.0,100%,35%)" stroke-width="0.00040"></path>
<path d="M0.467 0.457 Q0.647 0.486 0.743 0.404" stroke="hsl(0.0,100%,35%)" stroke-width="0.00081"></path>
<path d="M0.109 0.382 Q0.131 0.630 0.620 0.674" stroke="hsl(0.0,100%,35%)" stroke-width="0.00040"></path>
<path d="M0.109 0.382 Q0.064 0.537 0.356 0.592" stroke="hsl(0.0,100%,35%)" stroke-width="0.00040"></path>
<path d="M0.109 0.382 Q0.884 0.586 1.452 0.252" stroke="hsl(0.0,100%,35%)" stroke-width="0.00040"></path>
<path d="M0.109 0.382 Q0.891 0.684 1.652 0.369" stroke="hsl(0.0,100%,35%)" stroke-width="0.00040"></path>
<path d="M0.109 0.382 Q-0.107 0.585 0.243 0.735" stroke="hsl(0.0,100%,35%)" stroke-width="0.00121"></path>
<path d="M0.109 0.382 Q0.714 0.798 1.658 0.594" stroke="hsl(0.0,100%,35%)" stroke-width="0.00040"></path>
<path d="M0.109 0.382 Q0.279 0.616 0.774 0.584" stroke="hsl(0.0,100%,35%)" stroke-width="0.00121"></path>
<path d="M0.109 0.382 Q0.408 0.520 0.743 0.404" stroke="hsl(0.0,100%,35%)" stroke-width="0.00040"></path>
<path d="M0.500 0.294 Q0.256 0.508 0.620 0.674" stroke="hsl(180.0,100%,35%)" stroke-width="0.00081"></path>
<path d="M0.500 0.294 Q0.533 0.397 0.743 0.404" stroke="hsl(180.0,100%,35%)" stroke-width="0.00040"></path>
<path d="M0.500 0.294 Q1.009 0.463 1.452 0.252" stroke="hsl(180.0,100%,35%)" stroke-width="0.00040"></path>
<path d="M0.602 0.867 Q1.043 0.664 0.743 0.404" stroke="hsl(180.0,100%,35%)" stroke-width="0.00040"></path>
<path d="M0.602 0.867 Q1.086 0.501 0.477 0.185" stroke="hsl(180.0,100%,35%)" stroke-width="0.00040"></path>
<path d="M0.602 0.867 Q0.861 0.832 0.849 0.698" stroke="hsl(180.0,100%,35%)" stroke-width="0.00121"></path>
<path d="M0.602 0.867 Q1.519 0.730 1.452 0.252" stroke="hsl(180.0,100%,35%)" stroke-width="0.00121"></path>
<path d="M0.722 0.251 Q0.652 0.169 0.477 0.185" stroke="hsl(180.0,100%,35%)" stroke-width="0.01414"></path>
<path d="M0.722 0.251 Q1.086 0.398 1.452 0.252" stroke="hsl(180.0,100%,35%)" stroke-width="0.00848"></path>
<path d="M0.722 0.251 Q0.481 0.428 0.774 0.584" stroke="hsl(180.0,100%,35%)" stroke-width="0.00485"></path>
<path d="M0.722 0.251 Q0.610 0.332 0.743 0.404" stroke="hsl(180.0,100%,35%)" stroke-width="0.00364"></path>
<path d="M0.722 0.251 Q0.169 0.535 0.602 0.867" stroke="hsl(180.0,100%,35%)" stroke-width="0.00040"></path>
<path d="M0.722 0.251 Q0.598 0.697 1.441 0.855" stroke="hsl(180.0,100%,35%)" stroke-width="0.00040"></path>
<path d="M0.722 0.251 Q0.332 0.442 0.620 0.674" stroke="hsl(180.0,100%,35%)" stroke-width="0.00121"></path>
<path d="M1.611 0.111 Q1.419 0.150 1.452 0.252" stroke="hsl(180.0,100%,35%)" stroke-width="0.00485"></path>
<path d="M1.611 0.111 Q0.814 0.180 0.774 0.584" stroke="hsl(180.0,100%,35%)" stroke-width="0.00162"></path>
<path d="M1.611 0.111 Q0.943 0.084 0.743 0.404" stroke="hsl(180.0,100%,35%)" stroke-width="0.00202"></path>
<path d="M1.611 0.111 Q0.988 0.355 1.328 0.713" stroke="hsl(180.0,100%,35%)" stroke-width="0.00081"></path>
<path d="M1.611 0.111 Q0.665 0.194 0.620 0.674" stroke="hsl(180.0,100%,35%)" stroke-width="0.00081"></path>
<path d="M1.611 0.111 Q0.761 0.252 0.849 0.698" stroke="hsl(180.0,100%,35%)" stroke-width="0.00040"></path>
<path d="M1.611 0.111 Q0.931 0.449 1.441 0.855" stroke="hsl(180.0,100%,35%)" stroke-width="0.00081"></path>
<path d="M1.611 0.111 Q0.763 0.055 0.467 0.457" stroke="hsl(180.0,100%,35%)" stroke-width="0.00040"></path>
<path d="M1.050 0.293 Q1.284 0.353 1.452 0.252" stroke="hsl(180.0,100%,35%)" stroke-width="0.00727"></path>
<path d="M1.050 0.293 Q0.850 0.125 0.477 0.185" stroke="hsl(180.0,100%,35%)" stroke-width="0.00485"></path>
<path d="M1.050 0.293 Q0.808 0.287 0.743 0.404" stroke="hsl(180.0,100%,35%)" stroke-width="0.00040"></path>
<path d="M1.050 0.293 Q0.530 0.398 0.620 0.674" stroke="hsl(180.0,100%,35%)" stroke-width="0.00040"></path>
<path d="M1.050 0.293 Q1.290 0.452 1.652 0.369" stroke="hsl(180.0,100%,35%)" stroke-width="0.00040"></path>
<path d="M1.050 0.293 Q0.853 0.559 1.328 0.713" stroke="hsl(180.0,100%,35%)" stroke-width="0.00121"></path>
<path d="M1.050 0.293 Q1.202 0.213 1.079 0.121" stroke="hsl(180.0,100%,35%)" stroke-width="0.00040"></path>
<path d="M1.658 0.594 Q1.224 0.412 0.774 0.584" stroke="hsl(180.0,100%,35%)" stroke-width="0.00040"></path>
<path d="M1.658 0.594 Q0.837 0.381 0.243 0.735" stroke="hsl(180.0,100%,35%)" stroke-width="0.00040"></path>
<path d="M1.658 0.594 Q1.075 0.426 0.620 0.674" stroke="hsl(180.0,100%,35%)" stroke-width="0.00040"></path>
<path d="M1.658 0.594 Q1.828 0.382 1.452 0.252" stroke="hsl(180.0,100%,35%)" stroke-width="0.00040"></path>
<path d="M1.658 0.594 Q1.352 0.316 0.743 0.404" stroke="hsl(180.0,100%,35%)" stroke-width="0.00121"></path>
<path d="M0.356 0.592 Q0.423 0.686 0.620 0.674" stroke="hsl(0.0,100%,35%)" stroke-width="0.00646"></path>
<path d="M0.356 0.592 Q0.572 0.672 0.774 0.584" stroke="hsl(0.0,100%,35%)" stroke-width="0.01172"></path>
<path d="M0.356 0.592 Q0.518 0.744 0.849 0.698" stroke="hsl(0.0,100%,35%)" stroke-width="0.00162"></path>
<path d="M0.356 0.592 Q0.838 0.953 1.646 0.797" stroke="hsl(0.0,100%,35%)" stroke-width="0.00081"></path>
<path d="M0.356 0.592 Q0.689 0.941 1.441 0.855" stroke="hsl(0.0,100%,35%)" stroke-width="0.00081"></path>
<path d="M0.356 0.592 Q1.176 0.642 1.452 0.252" stroke="hsl(0.0,100%,35%)" stroke-width="0.00081"></path>
<path d="M0.356 0.592 Q0.185 0.641 0.243 0.735" stroke="hsl(0.0,100%,35%)" stroke-width="0.00040"></path>
<path d="M0.356 0.592 Q0.700 0.576 0.743 0.404" stroke="hsl(0.0,100%,35%)" stroke-width="0.00040"></path>
<path d="M0.829 0.041 Q0.608 0.124 0.722 0.251" stroke="hsl(180.0,100%,35%)" stroke-width="0.00121"></path>
<path d="M0.829 0.041 Q0.538 0.042 0.477 0.185" stroke="hsl(180.0,100%,35%)" stroke-width="0.00040"></path>
<path d="M0.829 0.041 Q0.972 0.271 1.452 0.252" stroke="hsl(180.0,100%,35%)" stroke-width="0.00081"></path>
<path d="M1.359 0.408 Q0.777 0.393 0.620 0.674" stroke="hsl(180.0,100%,35%)" stroke-width="0.00040"></path>
<path d="M1.359 0.408 Q1.530 0.349 1.452 0.252" stroke="hsl(180.0,100%,35%)" stroke-width="0.00121"></path>
<path d="M1.359 0.408 Q1.097 0.120 0.477 0.185" stroke="hsl(180.0,100%,35%)" stroke-width="0.00081"></path>
<path d="M1.359 0.408 Q1.296 0.289 1.050 0.293" stroke="hsl(180.0,100%,35%)" stroke-width="0.00040"></path>
<path d="M1.359 0.408 Q1.537 0.447 1.652 0.369" stroke="hsl(180.0,100%,35%)" stroke-width="0.00040"></path>
<path d="M1.865 0.336 Q1.733 0.310 1.652 0.369" stroke="hsl(180.0,100%,35%)" stroke-width="0.00040"></path>
<path d="M1.865 0.336 Q1.292 -0.017 0.477 0.185" stroke="hsl(180.0,100%,35%)" stroke-width="0.00040"></path>
<path d="M1.865 0.336 Q1.121 0.242 0.774 0.584" stroke="hsl(180.0,100%,35%)" stroke-width="0.00040"></path>
<path d="M1.036 0.786 Q1.332 0.620 1.073 0.439" stroke="hsl(180.0,100%,35%)" stroke-width="0.00242"></path>
<path d="M1.036 0.786 Q1.671 0.602 1.452 0.252" stroke="hsl(180.0,100%,35%)" stroke-width="0.00242"></path>
<path d="M1.036 0.786 Q1.237 0.374 0.477 0.185" stroke="hsl(180.0,100%,35%)" stroke-width="0.00121"></path>
<path d="M1.036 0.786 Q0.778 0.816 0.780 0.948" stroke="hsl(180.0,100%,35%)" stroke-width="0.00040"></path>
<path d="M1.036 0.786 Q0.947 0.748 0.854 0.783" stroke="hsl(180.0,100%,35%)" stroke-width="0.00121"></path>
<path d="M0.230 0.186 Q-0.203 0.463 0.243 0.735" stroke="hsl(0.0,100%,35%)" stroke-width="0.00162"></path>
<path d="M0.230 0.186 Q0.012 0.260 0.109 0.382" stroke="hsl(0.0,100%,35%)" stroke-width="0.00202"></path>
<path d="M0.230 0.186 Q0.183 0.494 0.774 0.584" stroke="hsl(0.0,100%,35%)" stroke-width="0.00081"></path>
<path d="M0.230 0.186 Q0.312 0.398 0.743 0.404" stroke="hsl(0.0,100%,35%)" stroke-width="0.00040"></path>
<path d="M1.079 0.121 Q1.167 0.360 1.652 0.369" stroke="hsl(180.0,100%,35%)" stroke-width="0.00566"></path>
<path d="M1.079 0.121 Q0.407 0.306 0.620 0.674" stroke="hsl(180.0,100%,35%)" stroke-width="0.00040"></path>
<path d="M1.079 0.121 Q0.685 0.196 0.743 0.404" stroke="hsl(180.0,100%,35%)" stroke-width="0.00081"></path>
<path d="M1.079 0.121 Q0.727 0.033 0.477 0.185" stroke="hsl(180.0,100%,35%)" stroke-width="0.00485"></path>
<path d="M1.079 0.121 Q0.556 0.292 0.774 0.584" stroke="hsl(180.0,100%,35%)" stroke-width="0.00040"></path>
<path d="M1.079 0.121 Q1.161 0.261 1.452 0.252" stroke="hsl(180.0,100%,35%)" stroke-width="0.01131"></path>
<path d="M1.079 0.121 Q0.503 0.364 0.849 0.698" stroke="hsl(180.0,100%,35%)" stroke-width="0.00040"></path>
<path d="M1.777 0.243 Q1.003 0.213 0.774 0.584" stroke="hsl(180.0,100%,35%)" stroke-width="0.00162"></path>
<path d="M1.777 0.243 Q1.607 0.183 1.452 0.252" stroke="hsl(180.0,100%,35%)" stroke-width="0.00323"></path>
<path d="M1.777 0.243 Q1.614 0.281 1.652 0.369" stroke="hsl(180.0,100%,35%)" stroke-width="0.00162"></path>
<path d="M1.777 0.243 Q1.174 -0.046 0.477 0.185" stroke="hsl(180.0,100%,35%)" stroke-width="0.00081"></path>
<path d="M1.777 0.243 Q0.617 0.183 0.243 0.735" stroke="hsl(180.0,100%,35%)" stroke-width="0.00040"></path>
<path d="M1.381 0.042 Q1.249 0.161 1.452 0.252" stroke="hsl(180.0,100%,35%)" stroke-width="0.00202"></path>
<path d="M1.381 0.042 Q0.773 0.095 0.743 0.404" stroke="hsl(180.0,100%,35%)" stroke-width="0.00081"></path>
<path d="M1.381 0.042 Q0.815 -0.067 0.477 0.185" stroke="hsl(180.0,100%,35%)" stroke-width="0.00040"></path>
<path d="M1.083 0.103 Q0.395 0.296 0.620 0.674" stroke="hsl(0.0,100%,35%)" stroke-width="0.00081"></path>
<path d="M1.083 0.103 Q0.661 0.551 1.441 0.855" stroke="hsl(0.0,100%,35%)" stroke-width="0.00040"></path>
<path d="M1.083 0.103 Q0.544 0.282 0.774 0.584" stroke="hsl(0.0,100%,35%)" stroke-width="0.00081"></path>
<path d="M0.337 0.293 Q0.494 0.267 0.477 0.185" stroke="hsl(180.0,100%,35%)" stroke-width="0.00202"></path>
<path d="M0.337 0.293 Q0.451 0.430 0.743 0.404" stroke="hsl(180.0,100%,35%)" stroke-width="0.00081"></path>
<path d="M0.337 0.293 Q1.097 0.557 1.777 0.243" stroke="hsl(180.0,100%,35%)" stroke-width="0.00081"></path>
<path d="M1.251 0.381 Q1.116 0.668 1.646 0.797" stroke="hsl(180.0,100%,35%)" stroke-width="0.00040"></path>
<path d="M1.251 0.381 Q0.979 0.291 0.743 0.404" stroke="hsl(180.0,100%,35%)" stroke-width="0.00040"></path>
<path d="M1.251 0.381 Q0.967 0.656 1.441 0.855" stroke="hsl(180.0,100%,35%)" stroke-width="0.00040"></path>
<path d="M1.251 0.381 Q0.701 0.401 0.620 0.674" stroke="hsl(180.0,100%,35%)" stroke-width="0.00162"></path>
<path d="M1.251 0.381 Q1.455 0.357 1.452 0.252" stroke="hsl(180.0,100%,35%)" stroke-width="0.00485"></path>
<path d="M1.251 0.381 Q1.021 0.128 0.477 0.185" stroke="hsl(180.0,100%,35%)" stroke-width="0.00202"></path>
<path d="M1.251 0.381 Q1.461 0.455 1.652 0.369" stroke="hsl(180.0,100%,35%)" stroke-width="0.00081"></path>
<path d="M1.251 0.381 Q0.850 0.387 0.774 0.584" stroke="hsl(180.0,100%,35%)" stroke-width="0.00040"></path>
<path d="M1.250 0.844 Q1.394 0.794 1.328 0.713" stroke="hsl(180.0,100%,35%)" stroke-width="0.00040"></path>
<path d="M1.250 0.844 Q1.831 0.687 1.652 0.369" stroke="hsl(180.0,100%,35%)" stroke-width="0.00040"></path>
</g>
<text x="0.849" y="0.678" font-size="0.039074" fill="hsl(0.0,100%,20%)">amaiorano</text>
<text x="0.620" y="0.630" font-size="0.088235" fill="hsl(0.0,100%,20%)">dsinclair</text>
<text x="0.774" y="0.541" font-size="0.087156" fill="hsl(0.0,100%,20%)">jrprice</text>
<text x="1.452" y="0.221" font-size="0.062946" fill="hsl(180.0,100%,20%)">cwallez</text>
<text x="1.441" y="0.839" font-size="0.031772" fill="hsl(0.0,100%,20%)">dneto</text>
<text x="0.243" y="0.712" font-size="0.046992" fill="hsl(0.0,100%,20%)">rharrison</text>
<text x="0.743" y="0.378" font-size="0.051477" fill="hsl(180.0,100%,20%)">kainino</text>
<text x="0.631" y="0.761" font-size="0.003552" fill="hsl(0.0,100%,20%)">mikt</text>
<text x="1.204" y="0.252" font-size="0.035522" fill="hsl(180.0,100%,20%)">beaufort.francois</text>
<text x="1.328" y="0.701" font-size="0.023021" fill="hsl(180.0,100%,20%)">bajones</text>
<text x="0.477" y="0.156" font-size="0.058477" fill="hsl(180.0,100%,20%)">lokokung</text>
<text x="1.652" y="0.356" font-size="0.026582" fill="hsl(180.0,100%,20%)">geofflang</text>
<text x="1.935" y="0.661" font-size="0.023293" fill="hsl(180.0,100%,20%)">shrekshao</text>
<text x="1.646" y="0.791" font-size="0.010657" fill="hsl(0.0,100%,20%)">alanbaker</text>
<text x="1.105" y="0.392" font-size="0.003552" fill="hsl(180.0,100%,20%)">mehmetoguzderin</text>
<text x="1.236" y="0.892" font-size="0.010047" fill="hsl(180.0,100%,20%)">brandon1.jones</text>
<text x="0.467" y="0.445" font-size="0.022466" fill="hsl(0.0,100%,20%)">bsheedy</text>
<text x="0.109" y="0.373" font-size="0.018113" fill="hsl(0.0,100%,20%)">ynovikov</text>
<text x="0.500" y="0.290" font-size="0.007104" fill="hsl(180.0,100%,20%)">cabral.brc</text>
<text x="0.602" y="0.862" font-size="0.011233" fill="hsl(180.0,100%,20%)">rafael.cintron</text>
<text x="0.722" y="0.234" font-size="0.033699" fill="hsl(180.0,100%,20%)">jiawei.shao</text>
<text x="1.611" y="0.101" font-size="0.021015" fill="hsl(180.0,100%,20%)">gman</text>
<text x="1.050" y="0.282" font-size="0.022184" fill="hsl(180.0,100%,20%)">kylechar</text>
<text x="1.658" y="0.586" font-size="0.014646" fill="hsl(180.0,100%,20%)">senorblanco</text>
<text x="0.356" y="0.578" font-size="0.028858" fill="hsl(0.0,100%,20%)">petermcneeley</text>
<text x="0.829" y="0.037" font-size="0.008701" fill="hsl(180.0,100%,20%)">hao.x.li</text>
<text x="1.359" y="0.403" font-size="0.010047" fill="hsl(180.0,100%,20%)">hitawala</text>
<text x="1.865" y="0.333" font-size="0.006153" fill="hsl(180.0,100%,20%)">jie.a.chen</text>
<text x="1.036" y="0.778" font-size="0.015484" fill="hsl(180.0,100%,20%)">jimblackler</text>
<text x="1.073" y="0.434" font-size="0.008701" fill="hsl(180.0,100%,20%)">bentonian</text>
<text x="0.780" y="0.946" font-size="0.003552" fill="hsl(180.0,100%,20%)">mako</text>
<text x="0.854" y="0.780" font-size="0.006153" fill="hsl(180.0,100%,20%)">bkaya</text>
<text x="0.230" y="0.180" font-size="0.012305" fill="hsl(0.0,100%,20%)">jwata</text>
<text x="1.079" y="0.107" font-size="0.027970" fill="hsl(180.0,100%,20%)">lehoangquyen</text>
<text x="0.841" y="0.180" font-size="0.003552" fill="hsl(180.0,100%,20%)">kbr</text>
<text x="1.777" y="0.235" font-size="0.016278" fill="hsl(180.0,100%,20%)">shaoboyan</text>
<text x="1.381" y="0.037" font-size="0.010047" fill="hsl(180.0,100%,20%)">sunnyps</text>
<text x="1.083" y="0.099" font-size="0.007943" fill="hsl(0.0,100%,20%)">tikuta</text>
<text x="0.337" y="0.288" font-size="0.010657" fill="hsl(180.0,100%,20%)">yulong.fs</text>
<text x="1.251" y="0.372" font-size="0.018458" fill="hsl(180.0,100%,20%)">zhaoming.jiang</text>
<text x="1.250" y="0.841" font-size="0.005024" fill="hsl(180.0,100%,20%)">zmo</text>
</svg>
