<svg width="4000" height="2000" viewBox="-0.025 -0.025 2.05 1.05" xmlns="http://www.w3.org/2000/svg">
  <style>
    path {
      fill: none;
      stroke-linecap: round;
      stroke-opacity: 0.4;
    }

    text {
      text-anchor: middle;
      alignment-baseline: hanging;
    }
  </style>
  <g opacity="0.4">
<path d="M1.374 0.598 Q1.748 0.520 1.678 0.320" stroke="hsl(0.0,100%,35%)" stroke-width="0.00072"></path>
<path d="M1.374 0.598 Q1.256 0.634 1.300 0.699" stroke="hsl(0.0,100%,35%)" stroke-width="0.00601"></path>
<path d="M1.374 0.598 Q1.486 0.477 1.273 0.395" stroke="hsl(0.0,100%,35%)" stroke-width="0.00409"></path>
<path d="M1.374 0.598 Q1.734 0.383 1.393 0.160" stroke="hsl(0.0,100%,35%)" stroke-width="0.00048"></path>
<path d="M1.678 0.320 Q1.416 0.277 1.273 0.395" stroke="hsl(0.0,100%,35%)" stroke-width="0.02933"></path>
<path d="M1.678 0.320 Q1.326 0.148 0.913 0.282" stroke="hsl(0.0,100%,35%)" stroke-width="0.00337"></path>
<path d="M1.678 0.320 Q0.564 0.319 0.316 0.862" stroke="hsl(0.0,100%,35%)" stroke-width="0.00192"></path>
<path d="M1.678 0.320 Q1.277 0.245 1.041 0.424" stroke="hsl(0.0,100%,35%)" stroke-width="0.00481"></path>
<path d="M1.678 0.320 Q0.755 0.285 0.484 0.728" stroke="hsl(0.0,100%,35%)" stroke-width="0.00096"></path>
<path d="M1.300 0.699 Q1.196 0.539 0.861 0.554" stroke="hsl(0.0,100%,35%)" stroke-width="0.00048"></path>
<path d="M1.300 0.699 Q1.530 0.542 1.273 0.395" stroke="hsl(0.0,100%,35%)" stroke-width="0.01611"></path>
<path d="M1.300 0.699 Q1.830 0.423 1.408 0.105" stroke="hsl(0.0,100%,35%)" stroke-width="0.00024"></path>
<path d="M1.300 0.699 Q0.869 0.550 0.484 0.728" stroke="hsl(0.0,100%,35%)" stroke-width="0.00313"></path>
<path d="M1.300 0.699 Q1.440 0.413 0.913 0.282" stroke="hsl(0.0,100%,35%)" stroke-width="0.00192"></path>
<path d="M1.300 0.699 Q0.838 0.431 0.212 0.597" stroke="hsl(0.0,100%,35%)" stroke-width="0.00024"></path>
<path d="M1.300 0.699 Q1.792 0.585 1.678 0.320" stroke="hsl(0.0,100%,35%)" stroke-width="0.00168"></path>
<path d="M1.300 0.699 Q1.391 0.510 1.041 0.424" stroke="hsl(0.0,100%,35%)" stroke-width="0.00409"></path>
<path d="M1.300 0.699 Q0.678 0.584 0.316 0.862" stroke="hsl(0.0,100%,35%)" stroke-width="0.00433"></path>
<path d="M1.300 0.699 Q1.418 0.664 1.374 0.598" stroke="hsl(0.0,100%,35%)" stroke-width="0.00072"></path>
<path d="M1.300 0.699 Q1.272 0.599 1.071 0.591" stroke="hsl(0.0,100%,35%)" stroke-width="0.00072"></path>
<path d="M1.273 0.395 Q0.421 0.437 0.316 0.862" stroke="hsl(0.0,100%,35%)" stroke-width="0.02115"></path>
<path d="M1.273 0.395 Q1.535 0.439 1.678 0.320" stroke="hsl(0.0,100%,35%)" stroke-width="0.05337"></path>
<path d="M1.273 0.395 Q1.573 0.277 1.408 0.105" stroke="hsl(0.0,100%,35%)" stroke-width="0.00048"></path>
<path d="M1.273 0.395 Q1.043 0.553 1.300 0.699" stroke="hsl(0.0,100%,35%)" stroke-width="0.00649"></path>
<path d="M1.273 0.395 Q0.613 0.404 0.484 0.728" stroke="hsl(0.0,100%,35%)" stroke-width="0.01154"></path>
<path d="M1.273 0.395 Q1.134 0.363 1.041 0.424" stroke="hsl(0.0,100%,35%)" stroke-width="0.04495"></path>
<path d="M1.273 0.395 Q1.183 0.267 0.913 0.282" stroke="hsl(0.0,100%,35%)" stroke-width="0.04519"></path>
<path d="M1.273 0.395 Q1.410 0.317 1.287 0.233" stroke="hsl(0.0,100%,35%)" stroke-width="0.00192"></path>
<path d="M1.273 0.395 Q0.940 0.392 0.861 0.554" stroke="hsl(0.0,100%,35%)" stroke-width="0.00048"></path>
<path d="M1.273 0.395 Q1.230 0.453 1.333 0.487" stroke="hsl(0.0,100%,35%)" stroke-width="0.00120"></path>
<path d="M1.273 0.395 Q1.521 0.302 1.393 0.160" stroke="hsl(0.0,100%,35%)" stroke-width="0.00048"></path>
<path d="M1.273 0.395 Q0.641 0.282 0.282 0.565" stroke="hsl(0.0,100%,35%)" stroke-width="0.00024"></path>
<path d="M1.273 0.395 Q1.535 0.243 1.295 0.081" stroke="hsl(0.0,100%,35%)" stroke-width="0.00024"></path>
<path d="M1.273 0.395 Q1.534 0.375 1.552 0.243" stroke="hsl(0.0,100%,35%)" stroke-width="0.00024"></path>
<path d="M1.393 0.160 Q0.915 0.411 1.300 0.699" stroke="hsl(0.0,100%,35%)" stroke-width="0.00096"></path>
<path d="M1.393 0.160 Q1.145 0.254 1.273 0.395" stroke="hsl(0.0,100%,35%)" stroke-width="0.00144"></path>
<path d="M1.393 0.160 Q1.033 0.375 1.374 0.598" stroke="hsl(0.0,100%,35%)" stroke-width="0.00048"></path>
<path d="M1.393 0.160 Q1.407 0.101 1.295 0.081" stroke="hsl(0.0,100%,35%)" stroke-width="0.00048"></path>
<path d="M1.393 0.160 Q1.055 0.125 0.913 0.282" stroke="hsl(0.0,100%,35%)" stroke-width="0.00024"></path>
<path d="M0.590 0.950 Q0.524 0.852 0.316 0.862" stroke="hsl(180.0,100%,35%)" stroke-width="0.00048"></path>
<path d="M0.590 0.950 Q0.715 0.818 0.484 0.728" stroke="hsl(180.0,100%,35%)" stroke-width="0.00024"></path>
<path d="M0.590 0.950 Q1.375 0.810 1.273 0.395" stroke="hsl(180.0,100%,35%)" stroke-width="0.00024"></path>
<path d="M0.316 0.862 Q0.508 0.828 0.484 0.728" stroke="hsl(180.0,100%,35%)" stroke-width="0.02356"></path>
<path d="M0.316 0.862 Q0.644 0.759 0.516 0.577" stroke="hsl(180.0,100%,35%)" stroke-width="0.00721"></path>
<path d="M0.316 0.862 Q1.168 0.820 1.273 0.395" stroke="hsl(180.0,100%,35%)" stroke-width="0.01370"></path>
<path d="M0.316 0.862 Q1.468 0.701 1.408 0.105" stroke="hsl(180.0,100%,35%)" stroke-width="0.00024"></path>
<path d="M0.316 0.862 Q0.835 0.817 0.861 0.554" stroke="hsl(180.0,100%,35%)" stroke-width="0.00793"></path>
<path d="M0.316 0.862 Q1.029 0.788 1.041 0.424" stroke="hsl(180.0,100%,35%)" stroke-width="0.00096"></path>
<path d="M0.316 0.862 Q0.938 0.977 1.300 0.699" stroke="hsl(180.0,100%,35%)" stroke-width="0.00120"></path>
<path d="M0.316 0.862 Q0.536 0.707 0.282 0.565" stroke="hsl(180.0,100%,35%)" stroke-width="0.00240"></path>
<path d="M0.316 0.862 Q0.467 0.932 0.636 0.874" stroke="hsl(180.0,100%,35%)" stroke-width="0.00024"></path>
<path d="M0.316 0.862 Q0.616 0.974 0.901 0.852" stroke="hsl(180.0,100%,35%)" stroke-width="0.00048"></path>
<path d="M0.316 0.862 Q0.208 0.825 0.112 0.869" stroke="hsl(180.0,100%,35%)" stroke-width="0.00024"></path>
<path d="M0.316 0.862 Q0.372 0.732 0.131 0.676" stroke="hsl(180.0,100%,35%)" stroke-width="0.00024"></path>
<path d="M0.316 0.862 Q1.305 0.741 1.287 0.233" stroke="hsl(180.0,100%,35%)" stroke-width="0.00337"></path>
<path d="M0.316 0.862 Q0.476 0.709 0.212 0.597" stroke="hsl(180.0,100%,35%)" stroke-width="0.00024"></path>
<path d="M0.316 0.862 Q0.347 0.969 0.563 0.977" stroke="hsl(180.0,100%,35%)" stroke-width="0.00216"></path>
<path d="M0.316 0.862 Q0.448 0.982 0.711 0.944" stroke="hsl(180.0,100%,35%)" stroke-width="0.00024"></path>
<path d="M0.316 0.862 Q1.094 1.065 1.661 0.730" stroke="hsl(180.0,100%,35%)" stroke-width="0.00024"></path>
<path d="M0.316 0.862 Q1.430 0.863 1.678 0.320" stroke="hsl(180.0,100%,35%)" stroke-width="0.00024"></path>
<path d="M0.484 0.728 Q0.621 0.659 0.516 0.577" stroke="hsl(180.0,100%,35%)" stroke-width="0.00817"></path>
<path d="M0.484 0.728 Q1.145 0.719 1.273 0.395" stroke="hsl(180.0,100%,35%)" stroke-width="0.00313"></path>
<path d="M0.484 0.728 Q0.811 0.716 0.861 0.554" stroke="hsl(180.0,100%,35%)" stroke-width="0.00385"></path>
<path d="M0.484 0.728 Q0.293 0.761 0.316 0.862" stroke="hsl(180.0,100%,35%)" stroke-width="0.01466"></path>
<path d="M0.484 0.728 Q0.513 0.606 0.282 0.565" stroke="hsl(180.0,100%,35%)" stroke-width="0.00481"></path>
<path d="M0.484 0.728 Q0.324 0.868 0.563 0.977" stroke="hsl(180.0,100%,35%)" stroke-width="0.00409"></path>
<path d="M0.484 0.728 Q0.453 0.608 0.212 0.597" stroke="hsl(180.0,100%,35%)" stroke-width="0.00096"></path>
<path d="M0.484 0.728 Q0.444 0.831 0.636 0.874" stroke="hsl(180.0,100%,35%)" stroke-width="0.00048"></path>
<path d="M0.484 0.728 Q1.407 0.763 1.678 0.320" stroke="hsl(180.0,100%,35%)" stroke-width="0.00024"></path>
<path d="M0.484 0.728 Q0.915 0.877 1.300 0.699" stroke="hsl(180.0,100%,35%)" stroke-width="0.00048"></path>
<path d="M0.484 0.728 Q1.006 0.687 1.041 0.424" stroke="hsl(180.0,100%,35%)" stroke-width="0.00096"></path>
<path d="M0.484 0.728 Q0.736 0.870 1.068 0.778" stroke="hsl(180.0,100%,35%)" stroke-width="0.00048"></path>
<path d="M0.484 0.728 Q1.055 0.591 0.913 0.282" stroke="hsl(180.0,100%,35%)" stroke-width="0.00024"></path>
<path d="M0.484 0.728 Q1.282 0.641 1.287 0.233" stroke="hsl(180.0,100%,35%)" stroke-width="0.00313"></path>
<path d="M0.484 0.728 Q0.568 0.803 0.734 0.779" stroke="hsl(180.0,100%,35%)" stroke-width="0.00048"></path>
<path d="M0.484 0.728 Q0.739 0.664 0.671 0.526" stroke="hsl(180.0,100%,35%)" stroke-width="0.00024"></path>
<path d="M0.484 0.728 Q0.388 0.643 0.200 0.671" stroke="hsl(180.0,100%,35%)" stroke-width="0.00120"></path>
<path d="M0.913 0.282 Q1.002 0.411 1.273 0.395" stroke="hsl(0.0,100%,35%)" stroke-width="0.01635"></path>
<path d="M0.913 0.282 Q0.342 0.419 0.484 0.728" stroke="hsl(0.0,100%,35%)" stroke-width="0.00024"></path>
<path d="M0.913 0.282 Q1.265 0.454 1.678 0.320" stroke="hsl(0.0,100%,35%)" stroke-width="0.00313"></path>
<path d="M0.913 0.282 Q0.864 0.379 1.041 0.424" stroke="hsl(0.0,100%,35%)" stroke-width="0.01298"></path>
<path d="M0.913 0.282 Q0.882 0.203 0.721 0.200" stroke="hsl(0.0,100%,35%)" stroke-width="0.00841"></path>
<path d="M0.913 0.282 Q0.151 0.453 0.316 0.862" stroke="hsl(0.0,100%,35%)" stroke-width="0.00024"></path>
<path d="M1.041 0.424 Q1.180 0.456 1.273 0.395" stroke="hsl(0.0,100%,35%)" stroke-width="0.03822"></path>
<path d="M1.041 0.424 Q1.442 0.499 1.678 0.320" stroke="hsl(0.0,100%,35%)" stroke-width="0.00192"></path>
<path d="M1.041 0.424 Q0.548 0.343 0.282 0.565" stroke="hsl(0.0,100%,35%)" stroke-width="0.00048"></path>
<path d="M1.041 0.424 Q1.090 0.327 0.913 0.282" stroke="hsl(0.0,100%,35%)" stroke-width="0.00192"></path>
<path d="M1.041 0.424 Q0.328 0.498 0.316 0.862" stroke="hsl(0.0,100%,35%)" stroke-width="0.00337"></path>
<path d="M1.041 0.424 Q0.519 0.464 0.484 0.728" stroke="hsl(0.0,100%,35%)" stroke-width="0.00168"></path>
<path d="M1.041 0.424 Q1.136 0.514 1.333 0.487" stroke="hsl(0.0,100%,35%)" stroke-width="0.00048"></path>
<path d="M1.041 0.424 Q0.950 0.613 1.300 0.699" stroke="hsl(0.0,100%,35%)" stroke-width="0.00120"></path>
<path d="M0.861 0.554 Q0.343 0.599 0.316 0.862" stroke="hsl(180.0,100%,35%)" stroke-width="0.00649"></path>
<path d="M0.861 0.554 Q0.534 0.566 0.484 0.728" stroke="hsl(180.0,100%,35%)" stroke-width="0.00889"></path>
<path d="M0.861 0.554 Q0.563 0.444 0.282 0.565" stroke="hsl(180.0,100%,35%)" stroke-width="0.00385"></path>
<path d="M0.861 0.554 Q1.055 0.525 1.041 0.424" stroke="hsl(180.0,100%,35%)" stroke-width="0.00048"></path>
<path d="M0.861 0.554 Q0.670 0.497 0.516 0.577" stroke="hsl(180.0,100%,35%)" stroke-width="0.00024"></path>
<path d="M0.861 0.554 Q0.502 0.446 0.212 0.597" stroke="hsl(180.0,100%,35%)" stroke-width="0.00048"></path>
<path d="M0.861 0.554 Q1.194 0.557 1.273 0.395" stroke="hsl(180.0,100%,35%)" stroke-width="0.00024"></path>
<path d="M0.282 0.565 Q0.253 0.687 0.484 0.728" stroke="hsl(180.0,100%,35%)" stroke-width="0.00240"></path>
<path d="M0.282 0.565 Q0.062 0.720 0.316 0.862" stroke="hsl(180.0,100%,35%)" stroke-width="0.00096"></path>
<path d="M0.282 0.565 Q0.389 0.618 0.516 0.577" stroke="hsl(180.0,100%,35%)" stroke-width="0.00048"></path>
<path d="M0.282 0.565 Q0.580 0.675 0.861 0.554" stroke="hsl(180.0,100%,35%)" stroke-width="0.00024"></path>
<path d="M0.516 0.577 Q0.380 0.646 0.484 0.728" stroke="hsl(180.0,100%,35%)" stroke-width="0.00889"></path>
<path d="M0.516 0.577 Q0.348 0.526 0.212 0.597" stroke="hsl(180.0,100%,35%)" stroke-width="0.00072"></path>
<path d="M0.516 0.577 Q0.189 0.680 0.316 0.862" stroke="hsl(180.0,100%,35%)" stroke-width="0.00385"></path>
<path d="M0.516 0.577 Q0.409 0.524 0.282 0.565" stroke="hsl(180.0,100%,35%)" stroke-width="0.00096"></path>
<path d="M0.212 0.597 Q0.244 0.717 0.484 0.728" stroke="hsl(180.0,100%,35%)" stroke-width="0.00529"></path>
<path d="M0.212 0.597 Q0.571 0.705 0.861 0.554" stroke="hsl(180.0,100%,35%)" stroke-width="0.00024"></path>
<path d="M0.212 0.597 Q0.273 0.595 0.282 0.565" stroke="hsl(180.0,100%,35%)" stroke-width="0.00072"></path>
<path d="M0.212 0.597 Q0.904 0.708 1.273 0.395" stroke="hsl(180.0,100%,35%)" stroke-width="0.00048"></path>
<path d="M0.212 0.597 Q0.053 0.750 0.316 0.862" stroke="hsl(180.0,100%,35%)" stroke-width="0.00144"></path>
<path d="M0.212 0.597 Q0.765 0.676 1.041 0.424" stroke="hsl(180.0,100%,35%)" stroke-width="0.00024"></path>
<path d="M0.212 0.597 Q0.674 0.866 1.300 0.699" stroke="hsl(180.0,100%,35%)" stroke-width="0.00048"></path>
<path d="M1.408 0.105 Q0.775 0.220 0.861 0.554" stroke="hsl(180.0,100%,35%)" stroke-width="0.00024"></path>
<path d="M1.408 0.105 Q0.256 0.265 0.316 0.862" stroke="hsl(180.0,100%,35%)" stroke-width="0.00457"></path>
<path d="M1.408 0.105 Q1.245 0.145 1.287 0.233" stroke="hsl(180.0,100%,35%)" stroke-width="0.00024"></path>
<path d="M1.408 0.105 Q1.108 0.223 1.273 0.395" stroke="hsl(180.0,100%,35%)" stroke-width="0.00793"></path>
<path d="M1.287 0.233 Q0.490 0.320 0.484 0.728" stroke="hsl(0.0,100%,35%)" stroke-width="0.00409"></path>
<path d="M1.287 0.233 Q0.299 0.353 0.316 0.862" stroke="hsl(0.0,100%,35%)" stroke-width="0.00313"></path>
<path d="M1.287 0.233 Q1.412 0.355 1.678 0.320" stroke="hsl(0.0,100%,35%)" stroke-width="0.00024"></path>
<path d="M1.287 0.233 Q1.150 0.311 1.273 0.395" stroke="hsl(0.0,100%,35%)" stroke-width="0.01707"></path>
<path d="M1.287 0.233 Q1.060 0.183 0.913 0.282" stroke="hsl(0.0,100%,35%)" stroke-width="0.00072"></path>
<path d="M1.287 0.233 Q1.011 0.279 1.041 0.424" stroke="hsl(0.0,100%,35%)" stroke-width="0.00072"></path>
<path d="M1.287 0.233 Q0.519 0.198 0.282 0.565" stroke="hsl(0.0,100%,35%)" stroke-width="0.00072"></path>
<path d="M1.333 0.487 Q1.376 0.429 1.273 0.395" stroke="hsl(0.0,100%,35%)" stroke-width="0.00841"></path>
<path d="M1.333 0.487 Q1.639 0.473 1.678 0.320" stroke="hsl(0.0,100%,35%)" stroke-width="0.00361"></path>
<path d="M1.333 0.487 Q1.238 0.397 1.041 0.424" stroke="hsl(0.0,100%,35%)" stroke-width="0.00168"></path>
<path d="M1.333 0.487 Q0.745 0.316 0.282 0.565" stroke="hsl(0.0,100%,35%)" stroke-width="0.00048"></path>
<path d="M1.552 0.243 Q0.439 0.306 0.316 0.862" stroke="hsl(180.0,100%,35%)" stroke-width="0.00192"></path>
<path d="M1.552 0.243 Q0.631 0.272 0.484 0.728" stroke="hsl(180.0,100%,35%)" stroke-width="0.00288"></path>
<path d="M1.552 0.243 Q1.553 0.307 1.678 0.320" stroke="hsl(180.0,100%,35%)" stroke-width="0.00024"></path>
<path d="M1.552 0.243 Q1.291 0.264 1.273 0.395" stroke="hsl(180.0,100%,35%)" stroke-width="0.00264"></path>
<path d="M1.552 0.243 Q0.767 0.203 0.516 0.577" stroke="hsl(180.0,100%,35%)" stroke-width="0.00024"></path>
<path d="M1.552 0.243 Q0.659 0.150 0.282 0.565" stroke="hsl(180.0,100%,35%)" stroke-width="0.00048"></path>
<path d="M1.552 0.243 Q1.061 0.421 1.300 0.699" stroke="hsl(180.0,100%,35%)" stroke-width="0.00024"></path>
<path d="M1.552 0.243 Q1.201 0.135 0.913 0.282" stroke="hsl(180.0,100%,35%)" stroke-width="0.00024"></path>
<path d="M0.901 0.852 Q0.601 0.740 0.316 0.862" stroke="hsl(180.0,100%,35%)" stroke-width="0.00096"></path>
<path d="M0.901 0.852 Q0.792 0.707 0.484 0.728" stroke="hsl(180.0,100%,35%)" stroke-width="0.00024"></path>
<path d="M0.901 0.852 Q1.119 0.695 0.861 0.554" stroke="hsl(180.0,100%,35%)" stroke-width="0.00024"></path>
<path d="M0.734 0.779 Q0.650 0.704 0.484 0.728" stroke="hsl(180.0,100%,35%)" stroke-width="0.00144"></path>
<path d="M0.734 0.779 Q0.459 0.737 0.316 0.862" stroke="hsl(180.0,100%,35%)" stroke-width="0.00072"></path>
<path d="M0.734 0.779 Q0.902 0.845 1.068 0.778" stroke="hsl(180.0,100%,35%)" stroke-width="0.00024"></path>
<path d="M0.572 0.881 Q0.459 0.820 0.316 0.862" stroke="hsl(180.0,100%,35%)" stroke-width="0.00168"></path>
<path d="M0.572 0.881 Q0.650 0.787 0.484 0.728" stroke="hsl(180.0,100%,35%)" stroke-width="0.00072"></path>
<path d="M0.572 0.881 Q0.902 0.929 1.068 0.778" stroke="hsl(180.0,100%,35%)" stroke-width="0.00024"></path>
<path d="M0.636 0.874 Q0.677 0.770 0.484 0.728" stroke="hsl(180.0,100%,35%)" stroke-width="0.00409"></path>
<path d="M0.636 0.874 Q0.706 0.649 0.282 0.565" stroke="hsl(180.0,100%,35%)" stroke-width="0.00024"></path>
<path d="M0.636 0.874 Q0.645 0.651 0.212 0.597" stroke="hsl(180.0,100%,35%)" stroke-width="0.00024"></path>
<path d="M0.636 0.874 Q0.486 0.804 0.316 0.862" stroke="hsl(180.0,100%,35%)" stroke-width="0.00481"></path>
<path d="M0.636 0.874 Q1.004 0.759 0.861 0.554" stroke="hsl(180.0,100%,35%)" stroke-width="0.00024"></path>
<path d="M0.636 0.874 Q0.517 0.911 0.563 0.977" stroke="hsl(180.0,100%,35%)" stroke-width="0.00120"></path>
<path d="M0.131 0.676 Q0.267 0.773 0.484 0.728" stroke="hsl(180.0,100%,35%)" stroke-width="0.00120"></path>
<path d="M0.131 0.676 Q0.075 0.806 0.316 0.862" stroke="hsl(180.0,100%,35%)" stroke-width="0.00072"></path>
<path d="M0.131 0.676 Q0.697 0.922 1.300 0.699" stroke="hsl(180.0,100%,35%)" stroke-width="0.00024"></path>
<path d="M0.131 0.676 Q0.927 0.764 1.273 0.395" stroke="hsl(180.0,100%,35%)" stroke-width="0.00048"></path>
<path d="M0.131 0.676 Q0.837 0.636 0.913 0.282" stroke="hsl(180.0,100%,35%)" stroke-width="0.00024"></path>
<path d="M0.563 0.977 Q1.383 0.828 1.273 0.395" stroke="hsl(180.0,100%,35%)" stroke-width="0.00072"></path>
<path d="M0.563 0.977 Q1.294 0.700 0.913 0.282" stroke="hsl(180.0,100%,35%)" stroke-width="0.00024"></path>
<path d="M0.563 0.977 Q0.532 0.870 0.316 0.862" stroke="hsl(180.0,100%,35%)" stroke-width="0.01082"></path>
<path d="M0.563 0.977 Q0.723 0.837 0.484 0.728" stroke="hsl(180.0,100%,35%)" stroke-width="0.01298"></path>
<path d="M0.563 0.977 Q0.859 0.768 0.516 0.577" stroke="hsl(180.0,100%,35%)" stroke-width="0.00048"></path>
<path d="M0.563 0.977 Q1.050 0.825 0.861 0.554" stroke="hsl(180.0,100%,35%)" stroke-width="0.00048"></path>
<path d="M0.563 0.977 Q0.717 0.855 0.512 0.753" stroke="hsl(180.0,100%,35%)" stroke-width="0.00024"></path>
<path d="M0.563 0.977 Q0.385 0.845 0.088 0.903" stroke="hsl(180.0,100%,35%)" stroke-width="0.00024"></path>
<path d="M0.563 0.977 Q1.521 0.750 1.287 0.233" stroke="hsl(180.0,100%,35%)" stroke-width="0.00048"></path>
<path d="M0.563 0.977 Q0.752 0.715 0.282 0.565" stroke="hsl(180.0,100%,35%)" stroke-width="0.00048"></path>
<path d="M0.563 0.977 Q1.154 0.986 1.300 0.699" stroke="hsl(180.0,100%,35%)" stroke-width="0.00048"></path>
<path d="M0.711 0.944 Q0.771 0.790 0.484 0.728" stroke="hsl(180.0,100%,35%)" stroke-width="0.00096"></path>
<path d="M0.711 0.944 Q0.610 0.931 0.563 0.977" stroke="hsl(180.0,100%,35%)" stroke-width="0.00072"></path>
<path d="M0.711 0.944 Q0.579 0.824 0.316 0.862" stroke="hsl(180.0,100%,35%)" stroke-width="0.00048"></path>
<path d="M0.711 0.944 Q1.022 0.932 1.068 0.778" stroke="hsl(180.0,100%,35%)" stroke-width="0.00048"></path>
<path d="M0.200 0.671 Q0.106 0.790 0.316 0.862" stroke="hsl(180.0,100%,35%)" stroke-width="0.00601"></path>
<path d="M0.200 0.671 Q0.297 0.756 0.484 0.728" stroke="hsl(180.0,100%,35%)" stroke-width="0.00745"></path>
<path d="M0.200 0.671 Q0.326 0.635 0.282 0.565" stroke="hsl(180.0,100%,35%)" stroke-width="0.00096"></path>
<path d="M0.200 0.671 Q0.137 0.897 0.563 0.977" stroke="hsl(180.0,100%,35%)" stroke-width="0.00144"></path>
<path d="M1.448 0.805 Q0.836 0.607 0.316 0.862" stroke="hsl(180.0,100%,35%)" stroke-width="0.00024"></path>
<path d="M1.448 0.805 Q1.342 0.886 1.476 0.955" stroke="hsl(180.0,100%,35%)" stroke-width="0.00024"></path>
<path d="M1.448 0.805 Q1.614 0.810 1.661 0.730" stroke="hsl(180.0,100%,35%)" stroke-width="0.00024"></path>
<path d="M0.462 0.277 Q0.543 0.656 1.300 0.699" stroke="hsl(0.0,100%,35%)" stroke-width="0.00024"></path>
<path d="M0.462 0.277 Q0.559 0.314 0.652 0.274" stroke="hsl(0.0,100%,35%)" stroke-width="0.00048"></path>
<path d="M0.462 0.277 Q1.021 0.405 1.393 0.160" stroke="hsl(0.0,100%,35%)" stroke-width="0.00024"></path>
<path d="M0.512 0.753 Q0.327 0.768 0.316 0.862" stroke="hsl(180.0,100%,35%)" stroke-width="0.00264"></path>
<path d="M0.512 0.753 Q0.518 0.735 0.484 0.728" stroke="hsl(180.0,100%,35%)" stroke-width="0.00240"></path>
<path d="M0.512 0.753 Q0.358 0.875 0.563 0.977" stroke="hsl(180.0,100%,35%)" stroke-width="0.00048"></path>
<path d="M0.512 0.753 Q0.547 0.613 0.282 0.565" stroke="hsl(180.0,100%,35%)" stroke-width="0.00048"></path>
<path d="M0.088 0.903 Q1.087 0.886 1.273 0.395" stroke="hsl(180.0,100%,35%)" stroke-width="0.00048"></path>
<path d="M0.088 0.903 Q0.455 0.773 0.282 0.565" stroke="hsl(180.0,100%,35%)" stroke-width="0.00120"></path>
<path d="M0.088 0.903 Q0.094 0.940 0.168 0.945" stroke="hsl(180.0,100%,35%)" stroke-width="0.00024"></path>
<path d="M0.088 0.903 Q0.235 0.928 0.316 0.862" stroke="hsl(180.0,100%,35%)" stroke-width="0.00409"></path>
<path d="M0.088 0.903 Q0.426 0.894 0.484 0.728" stroke="hsl(180.0,100%,35%)" stroke-width="0.00288"></path>
<path d="M0.088 0.903 Q0.266 1.035 0.563 0.977" stroke="hsl(180.0,100%,35%)" stroke-width="0.00048"></path>
<path d="M0.828 0.902 Q0.605 0.780 0.316 0.862" stroke="hsl(180.0,100%,35%)" stroke-width="0.00120"></path>
<path d="M0.828 0.902 Q0.796 0.746 0.484 0.728" stroke="hsl(180.0,100%,35%)" stroke-width="0.00120"></path>
<path d="M0.828 0.902 Q0.636 0.887 0.563 0.977" stroke="hsl(180.0,100%,35%)" stroke-width="0.00024"></path>
<path d="M0.775 0.977 Q0.638 0.828 0.316 0.862" stroke="hsl(180.0,100%,35%)" stroke-width="0.00288"></path>
<path d="M0.775 0.977 Q0.829 0.794 0.484 0.728" stroke="hsl(180.0,100%,35%)" stroke-width="0.00240"></path>
<path d="M0.775 0.977 Q0.926 0.974 0.953 0.899" stroke="hsl(180.0,100%,35%)" stroke-width="0.00024"></path>
<path d="M0.775 0.977 Q0.669 0.934 0.563 0.977" stroke="hsl(180.0,100%,35%)" stroke-width="0.00072"></path>
<path d="M0.476 0.720 Q0.905 0.874 1.300 0.699" stroke="hsl(180.0,100%,35%)" stroke-width="0.00024"></path>
<path d="M0.476 0.720 Q0.283 0.759 0.316 0.862" stroke="hsl(180.0,100%,35%)" stroke-width="0.00048"></path>
<path d="M0.476 0.720 Q0.503 0.604 0.282 0.565" stroke="hsl(180.0,100%,35%)" stroke-width="0.00024"></path>
<path d="M0.476 0.720 Q0.474 0.726 0.484 0.728" stroke="hsl(180.0,100%,35%)" stroke-width="0.00024"></path>
<path d="M0.486 0.428 Q0.245 0.577 0.484 0.728" stroke="hsl(180.0,100%,35%)" stroke-width="0.00072"></path>
<path d="M0.486 0.428 Q0.382 0.508 0.516 0.577" stroke="hsl(180.0,100%,35%)" stroke-width="0.00048"></path>
<path d="M0.486 0.428 Q0.054 0.611 0.316 0.862" stroke="hsl(180.0,100%,35%)" stroke-width="0.00024"></path>
<path d="M0.526 0.757 Q0.338 0.768 0.316 0.862" stroke="hsl(180.0,100%,35%)" stroke-width="0.00144"></path>
<path d="M0.526 0.757 Q0.529 0.734 0.484 0.728" stroke="hsl(180.0,100%,35%)" stroke-width="0.00096"></path>
<path d="M0.526 0.757 Q0.558 0.613 0.282 0.565" stroke="hsl(180.0,100%,35%)" stroke-width="0.00024"></path>
<path d="M0.105 0.771 Q0.760 0.974 1.300 0.699" stroke="hsl(180.0,100%,35%)" stroke-width="0.00048"></path>
<path d="M0.105 0.771 Q0.138 0.859 0.316 0.862" stroke="hsl(180.0,100%,35%)" stroke-width="0.00048"></path>
<path d="M0.105 0.771 Q0.989 0.817 1.273 0.395" stroke="hsl(180.0,100%,35%)" stroke-width="0.00024"></path>
<path d="M0.837 0.655 Q0.603 0.621 0.484 0.728" stroke="hsl(180.0,100%,35%)" stroke-width="0.00048"></path>
<path d="M0.837 0.655 Q0.562 0.724 0.636 0.874" stroke="hsl(180.0,100%,35%)" stroke-width="0.00024"></path>
<path d="M0.837 0.655 Q0.442 0.761 0.563 0.977" stroke="hsl(180.0,100%,35%)" stroke-width="0.00072"></path>
<path d="M0.837 0.655 Q0.411 0.654 0.316 0.862" stroke="hsl(180.0,100%,35%)" stroke-width="0.00072"></path>
</g>
<text x="1.374" y="0.589" font-size="0.018996" fill="hsl(0.0,100%,20%)">afdx</text>
<text x="1.678" y="0.293" font-size="0.055258" fill="hsl(0.0,100%,20%)">amaiorano</text>
<text x="1.300" y="0.680" font-size="0.038895" fill="hsl(0.0,100%,20%)">rharrison</text>
<text x="1.273" y="0.345" font-size="0.100416" fill="hsl(0.0,100%,20%)">bclayton</text>
<text x="1.393" y="0.154" font-size="0.011781" fill="hsl(0.0,100%,20%)">vasniktel</text>
<text x="0.590" y="0.948" font-size="0.005269" fill="hsl(180.0,100%,20%)">aleksi</text>
<text x="0.316" y="0.826" font-size="0.070882" fill="hsl(180.0,100%,20%)">cwallez</text>
<text x="0.484" y="0.694" font-size="0.068340" fill="hsl(180.0,100%,20%)">enga</text>
<text x="0.913" y="0.256" font-size="0.052554" fill="hsl(0.0,100%,20%)">dneto</text>
<text x="1.041" y="0.394" font-size="0.059140" fill="hsl(0.0,100%,20%)">jrprice</text>
<text x="0.861" y="0.538" font-size="0.031831" fill="hsl(180.0,100%,20%)">bajones</text>
<text x="0.282" y="0.552" font-size="0.025811" fill="hsl(180.0,100%,20%)">kainino</text>
<text x="0.516" y="0.562" font-size="0.030266" fill="hsl(180.0,100%,20%)">lokokung</text>
<text x="0.212" y="0.588" font-size="0.018440" fill="hsl(180.0,100%,20%)">shrekshao</text>
<text x="1.408" y="0.095" font-size="0.020062" fill="hsl(180.0,100%,20%)">dsinclair</text>
<text x="1.287" y="0.217" font-size="0.032156" fill="hsl(0.0,100%,20%)">senorblanco</text>
<text x="1.333" y="0.476" font-size="0.021401" fill="hsl(0.0,100%,20%)">sarahmashay</text>
<text x="1.295" y="0.079" font-size="0.004563" fill="hsl(0.0,100%,20%)">allydonaldson</text>
<text x="1.552" y="0.235" font-size="0.016239" fill="hsl(180.0,100%,20%)">brandon1.jones</text>
<text x="0.901" y="0.848" font-size="0.007451" fill="hsl(180.0,100%,20%)">beaufort.francois</text>
<text x="0.734" y="0.775" font-size="0.009126" fill="hsl(180.0,100%,20%)">bryan.bernhart</text>
<text x="1.068" y="0.775" font-size="0.006453" fill="hsl(180.0,100%,20%)">rafael.cintron</text>
<text x="0.572" y="0.876" font-size="0.008737" fill="hsl(180.0,100%,20%)">cjj19970505</text>
<text x="0.636" y="0.864" font-size="0.018440" fill="hsl(180.0,100%,20%)">hao.x.li</text>
<text x="0.112" y="0.868" font-size="0.002634" fill="hsl(180.0,100%,20%)">fbeaufort</text>
<text x="0.131" y="0.672" font-size="0.009498" fill="hsl(180.0,100%,20%)">rockot</text>
<text x="0.563" y="0.960" font-size="0.033941" fill="hsl(180.0,100%,20%)">jiawei.shao</text>
<text x="0.711" y="0.939" font-size="0.009126" fill="hsl(180.0,100%,20%)">jiajia.qin</text>
<text x="1.661" y="0.728" font-size="0.003725" fill="hsl(180.0,100%,20%)">thakis</text>
<text x="0.721" y="0.192" font-size="0.015585" fill="hsl(0.0,100%,20%)">alanbaker</text>
<text x="0.671" y="0.525" font-size="0.002634" fill="hsl(180.0,100%,20%)">hob</text>
<text x="0.200" y="0.660" font-size="0.022197" fill="hsl(180.0,100%,20%)">yunchao.he</text>
<text x="1.448" y="0.802" font-size="0.004563" fill="hsl(180.0,100%,20%)">hans</text>
<text x="1.476" y="0.954" font-size="0.002634" fill="hsl(180.0,100%,20%)">hwennborg</text>
<text x="0.462" y="0.274" font-size="0.005269" fill="hsl(0.0,100%,20%)">jamessliu2020</text>
<text x="0.652" y="0.273" font-size="0.003725" fill="hsl(0.0,100%,20%)">paulthomson</text>
<text x="0.512" y="0.746" font-size="0.013432" fill="hsl(180.0,100%,20%)">shaobo.yan</text>
<text x="0.088" y="0.894" font-size="0.016661" fill="hsl(180.0,100%,20%)">zhaoming.jiang</text>
<text x="0.828" y="0.898" font-size="0.008737" fill="hsl(180.0,100%,20%)">jie.a.chen</text>
<text x="0.775" y="0.970" font-size="0.013432" fill="hsl(180.0,100%,20%)">junwei.fu</text>
<text x="0.953" y="0.898" font-size="0.002634" fill="hsl(180.0,100%,20%)">ningxin.hu</text>
<text x="0.476" y="0.717" font-size="0.005891" fill="hsl(180.0,100%,20%)">pkasting</text>
<text x="1.071" y="0.589" font-size="0.004563" fill="hsl(0.0,100%,20%)">jmadill</text>
<text x="0.486" y="0.425" font-size="0.006453" fill="hsl(180.0,100%,20%)">sunnyps</text>
<text x="0.526" y="0.753" font-size="0.008737" fill="hsl(180.0,100%,20%)">tangm</text>
<text x="0.105" y="0.768" font-size="0.005891" fill="hsl(180.0,100%,20%)">vadimsh</text>
<text x="0.837" y="0.651" font-size="0.007903" fill="hsl(180.0,100%,20%)">yang.gu</text>
<text x="0.168" y="0.944" font-size="0.002634" fill="hsl(180.0,100%,20%)">ynovikov</text>
</svg>
