<svg width="4000" height="2000" viewBox="-0.025 -0.025 2.05 1.05" xmlns="http://www.w3.org/2000/svg">
  <style>
    path {
      fill: none;
      stroke-linecap: round;
      stroke-opacity: 0.4;
    }

    text {
      text-anchor: middle;
      alignment-baseline: hanging;
    }
  </style>
  <g opacity="0.4">
<path d="M0.826 0.748 Q0.452 0.811 0.492 1.007" stroke="hsl(0.0,100%,35%)" stroke-width="0.00151"></path>
<path d="M0.826 0.748 Q1.671 0.792 1.942 0.389" stroke="hsl(0.0,100%,35%)" stroke-width="0.00076"></path>
<path d="M0.826 0.748 Q0.633 0.778 0.650 0.879" stroke="hsl(0.0,100%,35%)" stroke-width="0.00227"></path>
<path d="M0.492 1.007 Q1.001 0.987 1.074 0.734" stroke="hsl(0.0,100%,35%)" stroke-width="0.00378"></path>
<path d="M0.492 1.007 Q0.673 0.974 0.650 0.879" stroke="hsl(0.0,100%,35%)" stroke-width="0.09063"></path>
<path d="M0.492 1.007 Q0.539 0.947 0.433 0.911" stroke="hsl(0.0,100%,35%)" stroke-width="0.01208"></path>
<path d="M0.492 1.007 Q1.438 0.731 1.107 0.209" stroke="hsl(0.0,100%,35%)" stroke-width="0.00151"></path>
<path d="M0.492 1.007 Q1.602 0.767 1.377 0.173" stroke="hsl(0.0,100%,35%)" stroke-width="0.00076"></path>
<path d="M0.492 1.007 Q1.795 0.903 1.879 0.245" stroke="hsl(0.0,100%,35%)" stroke-width="0.00076"></path>
<path d="M0.492 1.007 Q1.712 0.988 1.942 0.389" stroke="hsl(0.0,100%,35%)" stroke-width="0.00151"></path>
<path d="M0.492 1.007 Q1.644 1.057 1.994 0.506" stroke="hsl(0.0,100%,35%)" stroke-width="0.00076"></path>
<path d="M1.942 0.389 Q1.874 0.458 1.994 0.506" stroke="hsl(180.0,100%,35%)" stroke-width="0.01435"></path>
<path d="M1.942 0.389 Q0.770 0.348 0.433 0.911" stroke="hsl(180.0,100%,35%)" stroke-width="0.00076"></path>
<path d="M1.942 0.389 Q2.026 0.304 1.879 0.245" stroke="hsl(180.0,100%,35%)" stroke-width="0.00076"></path>
<path d="M1.942 0.389 Q1.732 0.320 1.551 0.408" stroke="hsl(180.0,100%,35%)" stroke-width="0.00076"></path>
<path d="M1.942 0.389 Q1.232 0.388 1.074 0.734" stroke="hsl(180.0,100%,35%)" stroke-width="0.00076"></path>
<path d="M1.942 0.389 Q1.097 0.345 0.826 0.748" stroke="hsl(180.0,100%,35%)" stroke-width="0.00151"></path>
<path d="M1.942 0.389 Q0.723 0.408 0.492 1.007" stroke="hsl(180.0,100%,35%)" stroke-width="0.00227"></path>
<path d="M1.942 0.389 Q1.669 0.132 1.107 0.209" stroke="hsl(180.0,100%,35%)" stroke-width="0.00076"></path>
<path d="M0.650 0.879 Q0.468 0.911 0.492 1.007" stroke="hsl(0.0,100%,35%)" stroke-width="0.06042"></path>
<path d="M0.650 0.879 Q1.414 0.635 1.107 0.209" stroke="hsl(0.0,100%,35%)" stroke-width="0.00453"></path>
<path d="M0.650 0.879 Q0.977 0.891 1.074 0.734" stroke="hsl(0.0,100%,35%)" stroke-width="0.00151"></path>
<path d="M0.650 0.879 Q0.812 0.960 1.005 0.899" stroke="hsl(0.0,100%,35%)" stroke-width="0.00076"></path>
<path d="M0.411 0.277 Q1.087 0.639 1.942 0.389" stroke="hsl(180.0,100%,35%)" stroke-width="0.00076"></path>
<path d="M0.411 0.277 Q1.019 0.708 1.994 0.506" stroke="hsl(180.0,100%,35%)" stroke-width="0.00076"></path>
<path d="M0.411 0.277 Q0.578 0.538 1.124 0.513" stroke="hsl(180.0,100%,35%)" stroke-width="0.00076"></path>
<path d="M1.994 0.506 Q1.024 0.424 0.650 0.879" stroke="hsl(180.0,100%,35%)" stroke-width="0.00453"></path>
<path d="M1.994 0.506 Q2.062 0.437 1.942 0.389" stroke="hsl(180.0,100%,35%)" stroke-width="0.02946"></path>
<path d="M1.994 0.506 Q0.843 0.456 0.492 1.007" stroke="hsl(180.0,100%,35%)" stroke-width="0.00076"></path>
<path d="M1.994 0.506 Q1.788 0.180 1.107 0.209" stroke="hsl(180.0,100%,35%)" stroke-width="0.01057"></path>
<path d="M1.994 0.506 Q1.727 0.457 1.573 0.577" stroke="hsl(180.0,100%,35%)" stroke-width="0.00151"></path>
<path d="M1.994 0.506 Q1.386 0.075 0.411 0.277" stroke="hsl(180.0,100%,35%)" stroke-width="0.00151"></path>
<path d="M1.994 0.506 Q0.890 0.397 0.433 0.911" stroke="hsl(180.0,100%,35%)" stroke-width="0.00076"></path>
<path d="M1.740 0.096 Q1.607 0.283 1.942 0.389" stroke="hsl(180.0,100%,35%)" stroke-width="0.00604"></path>
<path d="M1.740 0.096 Q1.539 0.352 1.994 0.506" stroke="hsl(180.0,100%,35%)" stroke-width="0.00453"></path>
<path d="M1.740 0.096 Q0.931 -0.079 0.411 0.277" stroke="hsl(180.0,100%,35%)" stroke-width="0.00076"></path>
<path d="M1.740 0.096 Q1.333 0.026 1.107 0.209" stroke="hsl(180.0,100%,35%)" stroke-width="0.00982"></path>
<path d="M1.740 0.096 Q0.434 0.242 0.433 0.911" stroke="hsl(180.0,100%,35%)" stroke-width="0.00076"></path>
<path d="M1.740 0.096 Q1.661 0.039 1.531 0.065" stroke="hsl(180.0,100%,35%)" stroke-width="0.00076"></path>
<path d="M1.740 0.096 Q1.098 0.181 1.124 0.513" stroke="hsl(180.0,100%,35%)" stroke-width="0.00076"></path>
<path d="M1.107 0.209 Q0.161 0.485 0.492 1.007" stroke="hsl(180.0,100%,35%)" stroke-width="0.00982"></path>
<path d="M1.107 0.209 Q0.714 0.185 0.582 0.372" stroke="hsl(180.0,100%,35%)" stroke-width="0.00076"></path>
<path d="M1.107 0.209 Q0.872 0.365 1.124 0.513" stroke="hsl(180.0,100%,35%)" stroke-width="0.00906"></path>
<path d="M1.107 0.209 Q0.343 0.452 0.650 0.879" stroke="hsl(180.0,100%,35%)" stroke-width="0.00680"></path>
<path d="M1.107 0.209 Q1.271 0.245 1.377 0.173" stroke="hsl(180.0,100%,35%)" stroke-width="0.00076"></path>
<path d="M1.107 0.209 Q1.070 0.560 1.746 0.655" stroke="hsl(180.0,100%,35%)" stroke-width="0.00076"></path>
<path d="M1.107 0.209 Q1.464 0.382 1.879 0.245" stroke="hsl(180.0,100%,35%)" stroke-width="0.00151"></path>
<path d="M1.107 0.209 Q1.019 0.113 0.812 0.134" stroke="hsl(180.0,100%,35%)" stroke-width="0.00076"></path>
<path d="M1.107 0.209 Q1.313 0.535 1.994 0.506" stroke="hsl(180.0,100%,35%)" stroke-width="0.00076"></path>
<path d="M0.433 0.911 Q0.594 1.060 0.921 1.015" stroke="hsl(0.0,100%,35%)" stroke-width="0.00076"></path>
<path d="M0.433 0.911 Q0.568 0.938 0.650 0.879" stroke="hsl(0.0,100%,35%)" stroke-width="0.00076"></path>
<path d="M0.433 0.911 Q1.660 0.708 1.531 0.065" stroke="hsl(0.0,100%,35%)" stroke-width="0.00076"></path>
<path d="M0.433 0.911 Q0.386 0.971 0.492 1.007" stroke="hsl(0.0,100%,35%)" stroke-width="0.00151"></path>
<path d="M0.433 0.911 Q1.538 1.021 1.994 0.506" stroke="hsl(0.0,100%,35%)" stroke-width="0.00076"></path>
<path d="M0.433 0.911 Q0.760 0.908 0.826 0.748" stroke="hsl(0.0,100%,35%)" stroke-width="0.00076"></path>
<path d="M0.921 1.015 Q0.713 0.925 0.492 1.007" stroke="hsl(0.0,100%,35%)" stroke-width="0.00906"></path>
<path d="M0.921 1.015 Q2.015 0.822 1.879 0.245" stroke="hsl(0.0,100%,35%)" stroke-width="0.00076"></path>
<path d="M0.921 1.015 Q1.256 0.544 0.411 0.277" stroke="hsl(0.0,100%,35%)" stroke-width="0.00076"></path>
<path d="M0.921 1.015 Q1.658 0.649 1.107 0.209" stroke="hsl(0.0,100%,35%)" stroke-width="0.00076"></path>
<path d="M1.879 0.245 Q1.287 0.228 1.124 0.513" stroke="hsl(180.0,100%,35%)" stroke-width="0.00076"></path>
<path d="M1.879 0.245 Q1.085 0.329 1.074 0.734" stroke="hsl(180.0,100%,35%)" stroke-width="0.00227"></path>
<path d="M1.879 0.245 Q1.585 0.261 1.551 0.408" stroke="hsl(180.0,100%,35%)" stroke-width="0.00076"></path>
<path d="M1.879 0.245 Q0.758 0.316 0.650 0.879" stroke="hsl(180.0,100%,35%)" stroke-width="0.00076"></path>
<path d="M1.879 0.245 Q1.796 0.330 1.942 0.389" stroke="hsl(180.0,100%,35%)" stroke-width="0.00076"></path>
<path d="M1.377 0.173 Q0.810 0.032 0.411 0.277" stroke="hsl(180.0,100%,35%)" stroke-width="0.00151"></path>
<path d="M1.377 0.173 Q1.487 0.394 1.942 0.389" stroke="hsl(180.0,100%,35%)" stroke-width="0.00302"></path>
<path d="M1.377 0.173 Q0.267 0.413 0.492 1.007" stroke="hsl(180.0,100%,35%)" stroke-width="0.00151"></path>
<path d="M1.377 0.173 Q0.448 0.380 0.650 0.879" stroke="hsl(180.0,100%,35%)" stroke-width="0.00151"></path>
<path d="M1.377 0.173 Q1.213 0.137 1.107 0.209" stroke="hsl(180.0,100%,35%)" stroke-width="0.00755"></path>
<path d="M1.746 0.655 Q2.057 0.561 1.942 0.389" stroke="hsl(180.0,100%,35%)" stroke-width="0.00227"></path>
<path d="M1.746 0.655 Q1.989 0.630 1.994 0.506" stroke="hsl(180.0,100%,35%)" stroke-width="0.01435"></path>
<path d="M1.746 0.655 Q1.434 0.773 1.597 0.952" stroke="hsl(180.0,100%,35%)" stroke-width="0.00076"></path>
<path d="M1.746 0.655 Q0.884 0.520 0.433 0.911" stroke="hsl(180.0,100%,35%)" stroke-width="0.00076"></path>
<path d="M1.746 0.655 Q1.018 0.547 0.650 0.879" stroke="hsl(180.0,100%,35%)" stroke-width="0.00151"></path>
<path d="M1.746 0.655 Q1.783 0.304 1.107 0.209" stroke="hsl(180.0,100%,35%)" stroke-width="0.00982"></path>
<path d="M1.746 0.655 Q0.837 0.580 0.492 1.007" stroke="hsl(180.0,100%,35%)" stroke-width="0.00151"></path>
<path d="M0.812 0.134 Q1.105 0.557 1.994 0.506" stroke="hsl(180.0,100%,35%)" stroke-width="0.00302"></path>
<path d="M0.812 0.134 Q1.173 0.488 1.942 0.389" stroke="hsl(180.0,100%,35%)" stroke-width="0.00076"></path>
<path d="M0.812 0.134 Q0.899 0.231 1.107 0.209" stroke="hsl(180.0,100%,35%)" stroke-width="0.00680"></path>
<path d="M0.812 0.134 Q-0.046 0.507 0.492 1.007" stroke="hsl(180.0,100%,35%)" stroke-width="0.00076"></path>
<path d="M0.812 0.134 Q0.665 0.386 1.124 0.513" stroke="hsl(180.0,100%,35%)" stroke-width="0.00076"></path>
<path d="M0.812 0.134 Q0.497 0.125 0.411 0.277" stroke="hsl(180.0,100%,35%)" stroke-width="0.00151"></path>
<path d="M0.812 0.134 Q1.078 0.362 1.581 0.281" stroke="hsl(180.0,100%,35%)" stroke-width="0.00076"></path>
<path d="M1.074 0.734 Q0.565 0.754 0.492 1.007" stroke="hsl(0.0,100%,35%)" stroke-width="0.02795"></path>
<path d="M1.074 0.734 Q0.746 0.722 0.650 0.879" stroke="hsl(0.0,100%,35%)" stroke-width="0.01737"></path>
<path d="M1.074 0.734 Q0.908 0.803 1.005 0.899" stroke="hsl(0.0,100%,35%)" stroke-width="0.00076"></path>
<path d="M1.171 0.058 Q1.018 0.121 1.107 0.209" stroke="hsl(180.0,100%,35%)" stroke-width="0.00151"></path>
<path d="M1.171 0.058 Q1.224 0.447 1.994 0.506" stroke="hsl(180.0,100%,35%)" stroke-width="0.00151"></path>
<path d="M1.171 0.058 Q0.930 0.024 0.812 0.134" stroke="hsl(180.0,100%,35%)" stroke-width="0.00076"></path>
<path d="M1.171 0.058 Q0.783 0.276 1.124 0.513" stroke="hsl(180.0,100%,35%)" stroke-width="0.00076"></path>
<path d="M1.005 0.899 Q0.662 0.850 0.492 1.007" stroke="hsl(0.0,100%,35%)" stroke-width="0.00529"></path>
<path d="M1.005 0.899 Q0.843 0.818 0.650 0.879" stroke="hsl(0.0,100%,35%)" stroke-width="0.01057"></path>
<path d="M1.005 0.899 Q0.709 0.791 0.433 0.911" stroke="hsl(0.0,100%,35%)" stroke-width="0.00076"></path>
<path d="M1.005 0.899 Q1.036 0.787 0.826 0.748" stroke="hsl(0.0,100%,35%)" stroke-width="0.00227"></path>
<path d="M1.005 0.899 Q1.608 0.574 1.107 0.209" stroke="hsl(0.0,100%,35%)" stroke-width="0.00151"></path>
<path d="M1.769 0.185 Q0.982 0.321 1.074 0.734" stroke="hsl(180.0,100%,35%)" stroke-width="0.00302"></path>
<path d="M1.769 0.185 Q1.776 0.237 1.879 0.245" stroke="hsl(180.0,100%,35%)" stroke-width="0.00378"></path>
<path d="M1.769 0.185 Q0.655 0.308 0.650 0.879" stroke="hsl(180.0,100%,35%)" stroke-width="0.00151"></path>
<path d="M1.769 0.185 Q1.693 0.322 1.942 0.389" stroke="hsl(180.0,100%,35%)" stroke-width="0.00076"></path>
<path d="M1.581 0.281 Q1.608 0.477 1.994 0.506" stroke="hsl(180.0,100%,35%)" stroke-width="0.00529"></path>
<path d="M1.581 0.281 Q1.402 0.151 1.107 0.209" stroke="hsl(180.0,100%,35%)" stroke-width="0.01208"></path>
<path d="M1.581 0.281 Q1.167 0.306 1.124 0.513" stroke="hsl(180.0,100%,35%)" stroke-width="0.00604"></path>
<path d="M1.581 0.281 Q0.830 0.364 0.826 0.748" stroke="hsl(180.0,100%,35%)" stroke-width="0.00076"></path>
<path d="M1.573 0.577 Q0.689 0.575 0.492 1.007" stroke="hsl(180.0,100%,35%)" stroke-width="0.00076"></path>
<path d="M1.573 0.577 Q1.908 0.557 1.942 0.389" stroke="hsl(180.0,100%,35%)" stroke-width="0.00227"></path>
<path d="M1.573 0.577 Q1.697 0.488 1.551 0.408" stroke="hsl(180.0,100%,35%)" stroke-width="0.00151"></path>
<path d="M1.573 0.577 Q1.840 0.625 1.994 0.506" stroke="hsl(180.0,100%,35%)" stroke-width="0.00302"></path>
<path d="M1.573 0.577 Q0.870 0.543 0.650 0.879" stroke="hsl(180.0,100%,35%)" stroke-width="0.00076"></path>
<path d="M1.573 0.577 Q0.896 0.665 0.921 1.015" stroke="hsl(180.0,100%,35%)" stroke-width="0.00076"></path>
<path d="M1.573 0.577 Q1.798 0.335 1.377 0.173" stroke="hsl(180.0,100%,35%)" stroke-width="0.00151"></path>
<path d="M1.573 0.577 Q1.634 0.300 1.107 0.209" stroke="hsl(180.0,100%,35%)" stroke-width="0.00227"></path>
<path d="M1.573 0.577 Q1.813 0.430 1.581 0.281" stroke="hsl(180.0,100%,35%)" stroke-width="0.00076"></path>
<path d="M1.353 0.333 Q0.565 0.465 0.650 0.879" stroke="hsl(180.0,100%,35%)" stroke-width="0.00302"></path>
<path d="M1.353 0.333 Q1.330 0.222 1.107 0.209" stroke="hsl(180.0,100%,35%)" stroke-width="0.00529"></path>
<path d="M1.353 0.333 Q1.095 0.377 1.124 0.513" stroke="hsl(180.0,100%,35%)" stroke-width="0.00302"></path>
<path d="M1.353 0.333 Q1.535 0.548 1.994 0.506" stroke="hsl(180.0,100%,35%)" stroke-width="0.00076"></path>
<path d="M1.353 0.333 Q0.893 0.478 1.074 0.734" stroke="hsl(180.0,100%,35%)" stroke-width="0.00076"></path>
<path d="M1.889 0.586 Q2.005 0.567 1.994 0.506" stroke="hsl(180.0,100%,35%)" stroke-width="0.00378"></path>
<path d="M1.889 0.586 Q2.073 0.498 1.942 0.389" stroke="hsl(180.0,100%,35%)" stroke-width="0.00151"></path>
<path d="M1.889 0.586 Q1.823 0.352 1.353 0.333" stroke="hsl(180.0,100%,35%)" stroke-width="0.00151"></path>
<path d="M0.699 0.325 Q0.097 0.565 0.433 0.911" stroke="hsl(180.0,100%,35%)" stroke-width="0.00076"></path>
<path d="M0.699 0.325 Q0.050 0.625 0.492 1.007" stroke="hsl(180.0,100%,35%)" stroke-width="0.00151"></path>
<path d="M0.699 0.325 Q0.995 0.349 1.107 0.209" stroke="hsl(180.0,100%,35%)" stroke-width="0.00227"></path>
<path d="M0.699 0.325 Q1.201 0.675 1.994 0.506" stroke="hsl(180.0,100%,35%)" stroke-width="0.00151"></path>
<path d="M0.643 0.111 Q0.394 0.148 0.411 0.277" stroke="hsl(180.0,100%,35%)" stroke-width="0.00076"></path>
<path d="M0.643 0.111 Q0.562 0.408 1.124 0.513" stroke="hsl(180.0,100%,35%)" stroke-width="0.00076"></path>
</g>
<text x="0.826" y="0.738" font-size="0.019096" fill="hsl(0.0,100%,20%)">amaiorano</text>
<text x="0.492" y="0.960" font-size="0.093701" fill="hsl(0.0,100%,20%)">dsinclair</text>
<text x="1.942" y="0.363" font-size="0.051622" fill="hsl(180.0,100%,20%)">kainino</text>
<text x="0.650" y="0.835" font-size="0.088148" fill="hsl(0.0,100%,20%)">jrprice</text>
<text x="0.411" y="0.268" font-size="0.018347" fill="hsl(180.0,100%,20%)">bajones</text>
<text x="1.994" y="0.475" font-size="0.062217" fill="hsl(180.0,100%,20%)">lokokung</text>
<text x="1.124" y="0.499" font-size="0.029009" fill="hsl(180.0,100%,20%)">geofflang</text>
<text x="1.740" y="0.081" font-size="0.029488" fill="hsl(180.0,100%,20%)">beaufort.francois</text>
<text x="1.107" y="0.177" font-size="0.063334" fill="hsl(180.0,100%,20%)">cwallez</text>
<text x="0.433" y="0.897" font-size="0.028521" fill="hsl(0.0,100%,20%)">dneto</text>
<text x="1.531" y="0.061" font-size="0.007490" fill="hsl(180.0,100%,20%)">alanbaker</text>
<text x="0.921" y="1.004" font-size="0.021837" fill="hsl(0.0,100%,20%)">bsheedy</text>
<text x="1.879" y="0.234" font-size="0.021837" fill="hsl(180.0,100%,20%)">ynovikov</text>
<text x="0.582" y="0.369" font-size="0.005296" fill="hsl(180.0,100%,20%)">brandon1.jones</text>
<text x="1.377" y="0.160" font-size="0.025946" fill="hsl(180.0,100%,20%)">gman</text>
<text x="1.746" y="0.637" font-size="0.034324" fill="hsl(180.0,100%,20%)">jiawei.shao</text>
<text x="0.812" y="0.122" font-size="0.024271" fill="hsl(180.0,100%,20%)">kylechar</text>
<text x="1.074" y="0.711" font-size="0.046475" fill="hsl(0.0,100%,20%)">rharrison</text>
<text x="1.171" y="0.052" font-size="0.012973" fill="hsl(180.0,100%,20%)">hitawala</text>
<text x="1.597" y="0.949" font-size="0.005296" fill="hsl(180.0,100%,20%)">rafael.cintron</text>
<text x="1.005" y="0.884" font-size="0.028521" fill="hsl(0.0,100%,20%)">petermcneeley</text>
<text x="1.769" y="0.176" font-size="0.018347" fill="hsl(180.0,100%,20%)">jwata</text>
<text x="1.551" y="0.402" font-size="0.010593" fill="hsl(180.0,100%,20%)">senorblanco</text>
<text x="1.581" y="0.266" font-size="0.030882" fill="hsl(180.0,100%,20%)">lehoangquyen</text>
<text x="1.573" y="0.565" font-size="0.023686" fill="hsl(180.0,100%,20%)">shrekshao</text>
<text x="1.353" y="0.322" font-size="0.023086" fill="hsl(180.0,100%,20%)">shaoboyan</text>
<text x="1.889" y="0.578" font-size="0.015889" fill="hsl(180.0,100%,20%)">yulong.fs</text>
<text x="0.699" y="0.317" font-size="0.014980" fill="hsl(180.0,100%,20%)">zhaoming.jiang</text>
<text x="0.643" y="0.107" font-size="0.007490" fill="hsl(180.0,100%,20%)">zmo</text>
</svg>
