<svg width="4000" height="2000" viewBox="-0.025 -0.025 2.05 1.05" xmlns="http://www.w3.org/2000/svg">
  <style>
    path {
      fill: none;
      stroke-linecap: round;
      stroke-opacity: 0.4;
    }

    text {
      text-anchor: middle;
      alignment-baseline: hanging;
    }
  </style>
  <g opacity="0.4">
<path d="M1.512 0.674 Q1.222 0.725 1.257 0.878" stroke="hsl(0.0,100%,35%)" stroke-width="0.03222"></path>
<path d="M1.512 0.674 Q1.436 0.755 1.575 0.810" stroke="hsl(0.0,100%,35%)" stroke-width="0.01322"></path>
<path d="M1.512 0.674 Q1.325 0.650 1.237 0.736" stroke="hsl(0.0,100%,35%)" stroke-width="0.00743"></path>
<path d="M1.512 0.674 Q1.825 0.521 1.594 0.334" stroke="hsl(0.0,100%,35%)" stroke-width="0.00330"></path>
<path d="M1.512 0.674 Q1.304 0.564 1.043 0.642" stroke="hsl(0.0,100%,35%)" stroke-width="0.00083"></path>
<path d="M1.512 0.674 Q1.261 0.248 0.375 0.277" stroke="hsl(0.0,100%,35%)" stroke-width="0.00248"></path>
<path d="M1.257 0.878 Q1.471 0.907 1.575 0.810" stroke="hsl(0.0,100%,35%)" stroke-width="0.03800"></path>
<path d="M1.257 0.878 Q1.548 0.827 1.512 0.674" stroke="hsl(0.0,100%,35%)" stroke-width="0.01735"></path>
<path d="M1.257 0.878 Q1.288 0.641 0.831 0.574" stroke="hsl(0.0,100%,35%)" stroke-width="0.00083"></path>
<path d="M1.257 0.878 Q1.339 0.717 1.043 0.642" stroke="hsl(0.0,100%,35%)" stroke-width="0.00826"></path>
<path d="M1.257 0.878 Q1.361 0.803 1.237 0.736" stroke="hsl(0.0,100%,35%)" stroke-width="0.00083"></path>
<path d="M1.575 0.810 Q1.361 0.780 1.257 0.878" stroke="hsl(0.0,100%,35%)" stroke-width="0.06609"></path>
<path d="M1.575 0.810 Q1.156 0.414 0.292 0.531" stroke="hsl(0.0,100%,35%)" stroke-width="0.00330"></path>
<path d="M1.575 0.810 Q1.652 0.729 1.512 0.674" stroke="hsl(0.0,100%,35%)" stroke-width="0.00661"></path>
<path d="M1.575 0.810 Q1.401 0.303 0.375 0.277" stroke="hsl(0.0,100%,35%)" stroke-width="0.00165"></path>
<path d="M1.575 0.810 Q1.443 0.619 1.043 0.642" stroke="hsl(0.0,100%,35%)" stroke-width="0.00165"></path>
<path d="M1.575 0.810 Q1.465 0.705 1.237 0.736" stroke="hsl(0.0,100%,35%)" stroke-width="0.00330"></path>
<path d="M1.575 0.810 Q1.965 0.575 1.594 0.334" stroke="hsl(0.0,100%,35%)" stroke-width="0.00165"></path>
<path d="M1.237 0.736 Q1.133 0.811 1.257 0.878" stroke="hsl(0.0,100%,35%)" stroke-width="0.02396"></path>
<path d="M1.237 0.736 Q1.423 0.760 1.512 0.674" stroke="hsl(0.0,100%,35%)" stroke-width="0.00496"></path>
<path d="M1.237 0.736 Q1.347 0.840 1.575 0.810" stroke="hsl(0.0,100%,35%)" stroke-width="0.01487"></path>
<path d="M1.237 0.736 Q1.215 0.650 1.043 0.642" stroke="hsl(0.0,100%,35%)" stroke-width="0.00083"></path>
<path d="M1.594 0.334 Q1.179 0.145 0.719 0.306" stroke="hsl(120.0,100%,35%)" stroke-width="0.00661"></path>
<path d="M1.594 0.334 Q0.785 0.172 0.292 0.531" stroke="hsl(120.0,100%,35%)" stroke-width="0.01404"></path>
<path d="M1.594 0.334 Q1.030 0.062 0.375 0.277" stroke="hsl(120.0,100%,35%)" stroke-width="0.00743"></path>
<path d="M1.594 0.334 Q1.750 0.236 1.594 0.139" stroke="hsl(120.0,100%,35%)" stroke-width="0.00083"></path>
<path d="M1.594 0.334 Q1.514 0.201 1.238 0.211" stroke="hsl(120.0,100%,35%)" stroke-width="0.00083"></path>
<path d="M1.594 0.334 Q1.204 0.568 1.575 0.810" stroke="hsl(120.0,100%,35%)" stroke-width="0.00330"></path>
<path d="M1.594 0.334 Q1.614 0.220 1.397 0.186" stroke="hsl(120.0,100%,35%)" stroke-width="0.00083"></path>
<path d="M1.594 0.334 Q0.990 0.539 1.257 0.878" stroke="hsl(120.0,100%,35%)" stroke-width="0.00083"></path>
<path d="M1.594 0.334 Q0.855 0.348 0.720 0.711" stroke="hsl(120.0,100%,35%)" stroke-width="0.00248"></path>
<path d="M1.594 0.334 Q1.432 0.378 1.483 0.467" stroke="hsl(120.0,100%,35%)" stroke-width="0.00165"></path>
<path d="M1.043 0.642 Q0.961 0.803 1.257 0.878" stroke="hsl(0.0,100%,35%)" stroke-width="0.00248"></path>
<path d="M1.043 0.642 Q0.924 0.607 0.830 0.657" stroke="hsl(0.0,100%,35%)" stroke-width="0.00083"></path>
<path d="M1.043 0.642 Q1.252 0.752 1.512 0.674" stroke="hsl(0.0,100%,35%)" stroke-width="0.00083"></path>
<path d="M1.043 0.642 Q1.175 0.832 1.575 0.810" stroke="hsl(0.0,100%,35%)" stroke-width="0.00413"></path>
<path d="M1.043 0.642 Q1.565 0.598 1.594 0.334" stroke="hsl(0.0,100%,35%)" stroke-width="0.00083"></path>
<path d="M1.043 0.642 Q0.756 0.436 0.292 0.531" stroke="hsl(0.0,100%,35%)" stroke-width="0.00496"></path>
<path d="M1.043 0.642 Q1.225 0.676 1.332 0.595" stroke="hsl(0.0,100%,35%)" stroke-width="0.00248"></path>
<path d="M1.043 0.642 Q0.991 0.566 0.831 0.574" stroke="hsl(0.0,100%,35%)" stroke-width="0.00083"></path>
<path d="M0.375 0.277 Q-0.075 0.386 0.039 0.629" stroke="hsl(120.0,100%,35%)" stroke-width="0.00083"></path>
<path d="M0.375 0.277 Q0.417 0.593 1.043 0.642" stroke="hsl(120.0,100%,35%)" stroke-width="0.00083"></path>
<path d="M0.375 0.277 Q0.131 0.387 0.292 0.531" stroke="hsl(120.0,100%,35%)" stroke-width="0.00413"></path>
<path d="M0.375 0.277 Q0.549 0.783 1.575 0.810" stroke="hsl(120.0,100%,35%)" stroke-width="0.00083"></path>
<path d="M0.375 0.277 Q0.599 0.628 1.332 0.595" stroke="hsl(120.0,100%,35%)" stroke-width="0.00083"></path>
<path d="M0.720 0.711 Q1.458 0.697 1.594 0.334" stroke="hsl(120.0,100%,35%)" stroke-width="0.00743"></path>
<path d="M0.720 0.711 Q0.894 0.425 0.375 0.277" stroke="hsl(120.0,100%,35%)" stroke-width="0.01570"></path>
<path d="M0.720 0.711 Q0.650 0.535 0.292 0.531" stroke="hsl(120.0,100%,35%)" stroke-width="0.00248"></path>
<path d="M0.720 0.711 Q1.069 0.931 1.575 0.810" stroke="hsl(120.0,100%,35%)" stroke-width="0.00083"></path>
<path d="M0.720 0.711 Q0.855 0.902 1.257 0.878" stroke="hsl(120.0,100%,35%)" stroke-width="0.00165"></path>
<path d="M0.720 0.711 Q0.996 0.683 1.002 0.542" stroke="hsl(120.0,100%,35%)" stroke-width="0.00083"></path>
<path d="M0.720 0.711 Q0.605 0.719 0.595 0.776" stroke="hsl(120.0,100%,35%)" stroke-width="0.00413"></path>
<path d="M0.292 0.531 Q1.100 0.693 1.594 0.334" stroke="hsl(120.0,100%,35%)" stroke-width="0.01239"></path>
<path d="M0.292 0.531 Q0.536 0.421 0.375 0.277" stroke="hsl(120.0,100%,35%)" stroke-width="0.02643"></path>
<path d="M0.292 0.531 Q0.497 0.898 1.257 0.878" stroke="hsl(120.0,100%,35%)" stroke-width="0.00083"></path>
<path d="M0.292 0.531 Q0.603 0.786 1.170 0.691" stroke="hsl(120.0,100%,35%)" stroke-width="0.00083"></path>
<path d="M0.292 0.531 Q0.686 0.504 0.719 0.306" stroke="hsl(120.0,100%,35%)" stroke-width="0.00083"></path>
<path d="M0.292 0.531 Q0.638 0.678 1.002 0.542" stroke="hsl(120.0,100%,35%)" stroke-width="0.00661"></path>
<path d="M0.292 0.531 Q0.939 0.737 1.483 0.467" stroke="hsl(120.0,100%,35%)" stroke-width="0.00165"></path>
<path d="M0.292 0.531 Q0.892 0.734 1.421 0.486" stroke="hsl(120.0,100%,35%)" stroke-width="0.00083"></path>
<path d="M0.292 0.531 Q0.710 0.927 1.575 0.810" stroke="hsl(120.0,100%,35%)" stroke-width="0.00248"></path>
<path d="M1.002 0.542 Q0.891 0.524 0.831 0.574" stroke="hsl(120.0,100%,35%)" stroke-width="0.00661"></path>
<path d="M1.002 0.542 Q0.901 0.284 0.375 0.277" stroke="hsl(120.0,100%,35%)" stroke-width="0.00413"></path>
<path d="M1.002 0.542 Q0.967 0.650 1.170 0.691" stroke="hsl(120.0,100%,35%)" stroke-width="0.00165"></path>
<path d="M1.002 0.542 Q1.465 0.556 1.594 0.334" stroke="hsl(120.0,100%,35%)" stroke-width="0.00165"></path>
<path d="M1.002 0.542 Q0.611 0.578 0.595 0.776" stroke="hsl(120.0,100%,35%)" stroke-width="0.00083"></path>
<path d="M0.719 0.306 Q1.134 0.495 1.594 0.334" stroke="hsl(120.0,100%,35%)" stroke-width="0.00248"></path>
<path d="M0.719 0.306 Q0.325 0.333 0.292 0.531" stroke="hsl(120.0,100%,35%)" stroke-width="0.00248"></path>
<path d="M0.719 0.306 Q0.744 0.729 1.575 0.810" stroke="hsl(120.0,100%,35%)" stroke-width="0.00083"></path>
<path d="M1.483 0.467 Q1.645 0.422 1.594 0.334" stroke="hsl(120.0,100%,35%)" stroke-width="0.01817"></path>
<path d="M1.483 0.467 Q0.836 0.261 0.292 0.531" stroke="hsl(120.0,100%,35%)" stroke-width="0.02148"></path>
<path d="M1.483 0.467 Q1.041 0.627 1.257 0.878" stroke="hsl(120.0,100%,35%)" stroke-width="0.00578"></path>
<path d="M1.483 0.467 Q1.255 0.656 1.575 0.810" stroke="hsl(120.0,100%,35%)" stroke-width="0.00165"></path>
<path d="M1.483 0.467 Q0.906 0.436 0.720 0.711" stroke="hsl(120.0,100%,35%)" stroke-width="0.00083"></path>
<path d="M1.483 0.467 Q1.665 0.309 1.397 0.186" stroke="hsl(120.0,100%,35%)" stroke-width="0.00083"></path>
<path d="M1.483 0.467 Q1.436 0.464 1.421 0.486" stroke="hsl(120.0,100%,35%)" stroke-width="0.00083"></path>
<path d="M1.483 0.467 Q1.123 0.466 1.043 0.642" stroke="hsl(120.0,100%,35%)" stroke-width="0.00083"></path>
<path d="M1.483 0.467 Q1.081 0.150 0.375 0.277" stroke="hsl(120.0,100%,35%)" stroke-width="0.00496"></path>
<path d="M0.830 0.657 Q0.867 0.853 1.257 0.878" stroke="hsl(0.0,100%,35%)" stroke-width="0.01157"></path>
<path d="M0.830 0.657 Q1.157 0.802 1.512 0.674" stroke="hsl(0.0,100%,35%)" stroke-width="0.00165"></path>
<path d="M0.830 0.657 Q0.949 0.692 1.043 0.642" stroke="hsl(0.0,100%,35%)" stroke-width="0.00083"></path>
<path d="M0.830 0.657 Q1.080 0.882 1.575 0.810" stroke="hsl(0.0,100%,35%)" stroke-width="0.00330"></path>
<path d="M0.830 0.657 Q0.457 0.485 0.039 0.629" stroke="hsl(0.0,100%,35%)" stroke-width="0.00083"></path>
<path d="M0.830 0.657 Q1.130 0.727 1.332 0.595" stroke="hsl(0.0,100%,35%)" stroke-width="0.00083"></path>
<path d="M0.831 0.574 Q0.596 0.445 0.292 0.531" stroke="hsl(120.0,100%,35%)" stroke-width="0.00083"></path>
<path d="M0.831 0.574 Q1.404 0.606 1.594 0.334" stroke="hsl(120.0,100%,35%)" stroke-width="0.00083"></path>
<path d="M0.831 0.574 Q0.801 0.811 1.257 0.878" stroke="hsl(120.0,100%,35%)" stroke-width="0.00083"></path>
<path d="M0.831 0.574 Q0.904 0.736 1.237 0.736" stroke="hsl(120.0,100%,35%)" stroke-width="0.00083"></path>
<path d="M1.170 0.691 Q1.277 0.831 1.575 0.810" stroke="hsl(120.0,100%,35%)" stroke-width="0.00083"></path>
<path d="M1.170 0.691 Q1.103 0.325 0.375 0.277" stroke="hsl(120.0,100%,35%)" stroke-width="0.00248"></path>
<path d="M1.170 0.691 Q1.667 0.597 1.594 0.334" stroke="hsl(120.0,100%,35%)" stroke-width="0.00083"></path>
<path d="M1.170 0.691 Q1.064 0.802 1.257 0.878" stroke="hsl(120.0,100%,35%)" stroke-width="0.00165"></path>
<path d="M1.133 0.973 Q1.874 0.746 1.594 0.334" stroke="hsl(240.0,100%,35%)" stroke-width="0.00330"></path>
<path d="M1.133 0.973 Q1.102 0.939 1.030 0.947" stroke="hsl(240.0,100%,35%)" stroke-width="0.01074"></path>
<path d="M1.133 0.973 Q1.066 0.584 0.292 0.531" stroke="hsl(240.0,100%,35%)" stroke-width="0.00165"></path>
<path d="M1.133 0.973 Q0.976 0.915 0.828 0.978" stroke="hsl(240.0,100%,35%)" stroke-width="0.00083"></path>
<path d="M0.409 0.668 Q1.268 0.738 1.594 0.334" stroke="hsl(120.0,100%,35%)" stroke-width="0.00743"></path>
<path d="M0.409 0.668 Q0.460 0.576 0.292 0.531" stroke="hsl(120.0,100%,35%)" stroke-width="0.00413"></path>
<path d="M0.409 0.668 Q0.854 0.549 0.719 0.306" stroke="hsl(120.0,100%,35%)" stroke-width="0.00083"></path>
<path d="M0.140 0.649 Q0.704 0.593 0.719 0.306" stroke="hsl(120.0,100%,35%)" stroke-width="0.00083"></path>
<path d="M0.140 0.649 Q0.729 1.016 1.575 0.810" stroke="hsl(120.0,100%,35%)" stroke-width="0.00083"></path>
<path d="M0.140 0.649 Q0.555 0.510 0.375 0.277" stroke="hsl(120.0,100%,35%)" stroke-width="0.00165"></path>
<path d="M0.140 0.649 Q0.311 0.620 0.292 0.531" stroke="hsl(120.0,100%,35%)" stroke-width="0.00248"></path>
<path d="M0.140 0.649 Q0.515 0.987 1.257 0.878" stroke="hsl(120.0,100%,35%)" stroke-width="0.00083"></path>
<path d="M0.068 0.385 Q0.871 0.665 1.594 0.334" stroke="hsl(120.0,100%,35%)" stroke-width="0.00083"></path>
<path d="M0.068 0.385 Q0.482 0.899 1.575 0.810" stroke="hsl(120.0,100%,35%)" stroke-width="0.00083"></path>
<path d="M0.068 0.385 Q0.063 0.503 0.292 0.531" stroke="hsl(120.0,100%,35%)" stroke-width="0.00165"></path>
<path d="M1.887 0.180 Q1.617 0.198 1.594 0.334" stroke="hsl(120.0,100%,35%)" stroke-width="0.00165"></path>
<path d="M1.887 0.180 Q1.202 0.009 0.719 0.306" stroke="hsl(120.0,100%,35%)" stroke-width="0.00083"></path>
<path d="M1.887 0.180 Q1.456 0.242 1.483 0.467" stroke="hsl(120.0,100%,35%)" stroke-width="0.00083"></path>
<path d="M1.466 0.123 Q1.361 0.254 1.594 0.334" stroke="hsl(120.0,100%,35%)" stroke-width="0.00165"></path>
<path d="M1.466 0.123 Q0.971 0.488 1.575 0.810" stroke="hsl(120.0,100%,35%)" stroke-width="0.00083"></path>
<path d="M1.466 0.123 Q0.720 0.263 0.830 0.657" stroke="hsl(120.0,100%,35%)" stroke-width="0.00083"></path>
<path d="M0.540 0.530 Q1.223 0.643 1.594 0.334" stroke="hsl(120.0,100%,35%)" stroke-width="0.00083"></path>
<path d="M0.540 0.530 Q1.062 0.687 1.483 0.467" stroke="hsl(120.0,100%,35%)" stroke-width="0.00083"></path>
<path d="M0.540 0.530 Q0.415 0.481 0.292 0.531" stroke="hsl(120.0,100%,35%)" stroke-width="0.00083"></path>
<path d="M0.540 0.530 Q0.883 0.721 1.332 0.595" stroke="hsl(120.0,100%,35%)" stroke-width="0.00083"></path>
<path d="M0.540 0.530 Q0.660 0.370 0.375 0.277" stroke="hsl(120.0,100%,35%)" stroke-width="0.00083"></path>
</g>
<text x="1.512" y="0.646" font-size="0.057132" fill="hsl(0.0,100%,20%)">amaiorano</text>
<text x="1.257" y="0.834" font-size="0.087667" fill="hsl(0.0,100%,20%)">jrprice</text>
<text x="1.575" y="0.770" font-size="0.078374" fill="hsl(0.0,100%,20%)">dsinclair</text>
<text x="1.237" y="0.713" font-size="0.045249" fill="hsl(0.0,100%,20%)">rharrison</text>
<text x="1.594" y="0.303" font-size="0.061146" fill="hsl(120.0,100%,20%)">cwallez</text>
<text x="1.043" y="0.625" font-size="0.033580" fill="hsl(0.0,100%,20%)">dneto</text>
<text x="0.375" y="0.251" font-size="0.051964" fill="hsl(120.0,100%,20%)">kainino</text>
<text x="0.720" y="0.693" font-size="0.036134" fill="hsl(120.0,100%,20%)">beaufort.francois</text>
<text x="0.292" y="0.498" font-size="0.064913" fill="hsl(120.0,100%,20%)">lokokung</text>
<text x="1.002" y="0.528" font-size="0.028305" fill="hsl(120.0,100%,20%)">shrekshao</text>
<text x="0.595" y="0.769" font-size="0.013343" fill="hsl(120.0,100%,20%)">bajones</text>
<text x="0.719" y="0.294" font-size="0.023744" fill="hsl(120.0,100%,20%)">geofflang</text>
<text x="1.594" y="0.136" font-size="0.005447" fill="hsl(120.0,100%,20%)">fbeaufort</text>
<text x="1.238" y="0.209" font-size="0.005447" fill="hsl(120.0,100%,20%)">hitawala</text>
<text x="1.397" y="0.182" font-size="0.007704" fill="hsl(120.0,100%,20%)">rafael.cintron</text>
<text x="1.483" y="0.443" font-size="0.046542" fill="hsl(120.0,100%,20%)">jiawei.shao</text>
<text x="0.830" y="0.644" font-size="0.027237" fill="hsl(0.0,100%,20%)">petermcneeley</text>
<text x="1.332" y="0.589" font-size="0.013343" fill="hsl(0.0,100%,20%)">alanbaker</text>
<text x="0.831" y="0.564" font-size="0.020382" fill="hsl(120.0,100%,20%)">senorblanco</text>
<text x="1.170" y="0.682" font-size="0.017226" fill="hsl(120.0,100%,20%)">gman</text>
<text x="1.421" y="0.482" font-size="0.007704" fill="hsl(120.0,100%,20%)">kbr</text>
<text x="1.133" y="0.961" font-size="0.024361" fill="hsl(240.0,100%,20%)">jimblackler</text>
<text x="1.030" y="0.937" font-size="0.019641" fill="hsl(240.0,100%,20%)">bentonian</text>
<text x="0.828" y="0.975" font-size="0.005447" fill="hsl(240.0,100%,20%)">mako</text>
<text x="0.039" y="0.625" font-size="0.007704" fill="hsl(120.0,100%,20%)">bsheedy</text>
<text x="0.409" y="0.657" font-size="0.021097" fill="hsl(120.0,100%,20%)">kylechar</text>
<text x="0.140" y="0.641" font-size="0.015407" fill="hsl(120.0,100%,20%)">lehoangquyen</text>
<text x="0.068" y="0.379" font-size="0.010895" fill="hsl(120.0,100%,20%)">nickchavez</text>
<text x="1.887" y="0.174" font-size="0.010895" fill="hsl(120.0,100%,20%)">shaobo.yan</text>
<text x="1.466" y="0.117" font-size="0.010895" fill="hsl(120.0,100%,20%)">ynovikov</text>
<text x="0.540" y="0.524" font-size="0.012181" fill="hsl(120.0,100%,20%)">zhaoming.jiang</text>
</svg>
