<svg width="4000" height="2000" viewBox="-0.025 -0.025 2.05 1.05" xmlns="http://www.w3.org/2000/svg">
  <style>
    path {
      fill: none;
      stroke-linecap: round;
      stroke-opacity: 0.4;
    }

    text {
      text-anchor: middle;
      alignment-baseline: hanging;
    }
  </style>
  <g opacity="0.4">
<path d="M1.695 0.718 Q1.971 0.316 1.248 0.094" stroke="hsl(0.0,100%,35%)" stroke-width="0.00050"></path>
<path d="M1.695 0.718 Q1.561 0.704 1.504 0.766" stroke="hsl(0.0,100%,35%)" stroke-width="0.00125"></path>
<path d="M1.695 0.718 Q1.776 0.252 0.886 0.111" stroke="hsl(0.0,100%,35%)" stroke-width="0.00050"></path>
<path d="M1.248 0.094 Q1.334 0.176 1.513 0.151" stroke="hsl(0.0,100%,35%)" stroke-width="0.04303"></path>
<path d="M1.248 0.094 Q1.072 0.095 1.037 0.181" stroke="hsl(0.0,100%,35%)" stroke-width="0.03152"></path>
<path d="M1.248 0.094 Q0.787 0.093 0.686 0.318" stroke="hsl(0.0,100%,35%)" stroke-width="0.02452"></path>
<path d="M1.248 0.094 Q1.053 0.030 0.886 0.111" stroke="hsl(0.0,100%,35%)" stroke-width="0.04028"></path>
<path d="M1.248 0.094 Q0.732 0.156 0.740 0.421" stroke="hsl(0.0,100%,35%)" stroke-width="0.00751"></path>
<path d="M1.248 0.094 Q0.626 0.309 0.910 0.660" stroke="hsl(0.0,100%,35%)" stroke-width="0.00025"></path>
<path d="M1.248 0.094 Q1.027 0.133 1.055 0.249" stroke="hsl(0.0,100%,35%)" stroke-width="0.00075"></path>
<path d="M1.248 0.094 Q0.838 0.481 1.504 0.766" stroke="hsl(0.0,100%,35%)" stroke-width="0.00350"></path>
<path d="M1.248 0.094 Q1.168 0.155 1.271 0.207" stroke="hsl(0.0,100%,35%)" stroke-width="0.01376"></path>
<path d="M1.248 0.094 Q0.306 0.256 0.417 0.751" stroke="hsl(0.0,100%,35%)" stroke-width="0.00100"></path>
<path d="M1.248 0.094 Q0.164 0.281 0.291 0.851" stroke="hsl(0.0,100%,35%)" stroke-width="0.00025"></path>
<path d="M1.248 0.094 Q1.218 0.186 1.392 0.221" stroke="hsl(0.0,100%,35%)" stroke-width="0.00100"></path>
<path d="M1.248 0.094 Q1.055 0.245 1.308 0.372" stroke="hsl(0.0,100%,35%)" stroke-width="0.00025"></path>
<path d="M1.504 0.766 Q1.398 0.441 0.740 0.421" stroke="hsl(0.0,100%,35%)" stroke-width="0.00225"></path>
<path d="M1.504 0.766 Q2.000 0.460 1.513 0.151" stroke="hsl(0.0,100%,35%)" stroke-width="0.00075"></path>
<path d="M1.504 0.766 Q0.972 0.541 0.417 0.751" stroke="hsl(0.0,100%,35%)" stroke-width="0.00050"></path>
<path d="M1.504 0.766 Q1.914 0.378 1.248 0.094" stroke="hsl(0.0,100%,35%)" stroke-width="0.00475"></path>
<path d="M1.504 0.766 Q1.738 0.380 1.037 0.181" stroke="hsl(0.0,100%,35%)" stroke-width="0.00100"></path>
<path d="M1.504 0.766 Q1.292 0.594 0.910 0.660" stroke="hsl(0.0,100%,35%)" stroke-width="0.00025"></path>
<path d="M1.504 0.766 Q1.719 0.314 0.886 0.111" stroke="hsl(0.0,100%,35%)" stroke-width="0.00075"></path>
<path d="M1.504 0.766 Q1.834 0.440 1.271 0.207" stroke="hsl(0.0,100%,35%)" stroke-width="0.00050"></path>
<path d="M1.504 0.766 Q1.453 0.378 0.686 0.318" stroke="hsl(0.0,100%,35%)" stroke-width="0.00025"></path>
<path d="M1.504 0.766 Q1.638 0.780 1.695 0.718" stroke="hsl(0.0,100%,35%)" stroke-width="0.00025"></path>
<path d="M0.886 0.111 Q1.080 0.175 1.248 0.094" stroke="hsl(0.0,100%,35%)" stroke-width="0.03052"></path>
<path d="M0.886 0.111 Q1.167 0.257 1.513 0.151" stroke="hsl(0.0,100%,35%)" stroke-width="0.00400"></path>
<path d="M0.886 0.111 Q0.139 0.337 0.417 0.751" stroke="hsl(0.0,100%,35%)" stroke-width="0.00075"></path>
<path d="M0.886 0.111 Q0.709 0.064 0.580 0.140" stroke="hsl(0.0,100%,35%)" stroke-width="0.00025"></path>
<path d="M0.886 0.111 Q0.664 0.114 0.622 0.222" stroke="hsl(0.0,100%,35%)" stroke-width="0.00025"></path>
<path d="M0.886 0.111 Q1.001 0.236 1.271 0.207" stroke="hsl(0.0,100%,35%)" stroke-width="0.00550"></path>
<path d="M0.886 0.111 Q0.671 0.562 1.504 0.766" stroke="hsl(0.0,100%,35%)" stroke-width="0.00050"></path>
<path d="M0.886 0.111 Q0.564 0.237 0.740 0.421" stroke="hsl(0.0,100%,35%)" stroke-width="0.00075"></path>
<path d="M0.886 0.111 Q0.620 0.174 0.686 0.318" stroke="hsl(0.0,100%,35%)" stroke-width="0.00150"></path>
<path d="M0.886 0.111 Q0.905 0.176 1.037 0.181" stroke="hsl(0.0,100%,35%)" stroke-width="0.00075"></path>
<path d="M1.513 0.151 Q1.427 0.069 1.248 0.094" stroke="hsl(0.0,100%,35%)" stroke-width="0.04128"></path>
<path d="M1.513 0.151 Q1.251 0.071 1.037 0.181" stroke="hsl(0.0,100%,35%)" stroke-width="0.00125"></path>
<path d="M1.513 0.151 Q1.232 0.006 0.886 0.111" stroke="hsl(0.0,100%,35%)" stroke-width="0.00300"></path>
<path d="M1.513 0.151 Q1.342 0.232 1.462 0.333" stroke="hsl(0.0,100%,35%)" stroke-width="0.00025"></path>
<path d="M1.513 0.151 Q1.017 0.457 1.504 0.766" stroke="hsl(0.0,100%,35%)" stroke-width="0.00150"></path>
<path d="M1.513 0.151 Q0.966 0.069 0.686 0.318" stroke="hsl(0.0,100%,35%)" stroke-width="0.01426"></path>
<path d="M1.513 0.151 Q0.911 0.132 0.740 0.421" stroke="hsl(0.0,100%,35%)" stroke-width="0.00200"></path>
<path d="M1.513 0.151 Q0.485 0.232 0.417 0.751" stroke="hsl(0.0,100%,35%)" stroke-width="0.00050"></path>
<path d="M1.513 0.151 Q1.397 0.162 1.392 0.221" stroke="hsl(0.0,100%,35%)" stroke-width="0.00025"></path>
<path d="M0.417 0.751 Q0.274 0.775 0.291 0.851" stroke="hsl(180.0,100%,35%)" stroke-width="0.00425"></path>
<path d="M0.417 0.751 Q0.898 0.588 0.686 0.318" stroke="hsl(180.0,100%,35%)" stroke-width="0.00600"></path>
<path d="M0.417 0.751 Q0.842 0.651 0.740 0.421" stroke="hsl(180.0,100%,35%)" stroke-width="0.00851"></path>
<path d="M0.417 0.751 Q0.736 0.804 0.910 0.660" stroke="hsl(180.0,100%,35%)" stroke-width="0.00100"></path>
<path d="M0.417 0.751 Q0.732 0.713 0.728 0.552" stroke="hsl(180.0,100%,35%)" stroke-width="0.00025"></path>
<path d="M0.417 0.751 Q1.358 0.588 1.248 0.094" stroke="hsl(180.0,100%,35%)" stroke-width="0.00050"></path>
<path d="M0.417 0.751 Q1.279 0.650 1.271 0.207" stroke="hsl(180.0,100%,35%)" stroke-width="0.00025"></path>
<path d="M0.417 0.751 Q0.741 0.542 0.406 0.338" stroke="hsl(180.0,100%,35%)" stroke-width="0.00025"></path>
<path d="M1.271 0.207 Q1.350 0.146 1.248 0.094" stroke="hsl(0.0,100%,35%)" stroke-width="0.01151"></path>
<path d="M1.271 0.207 Q1.175 0.148 1.037 0.181" stroke="hsl(0.0,100%,35%)" stroke-width="0.00175"></path>
<path d="M1.271 0.207 Q0.266 0.333 0.291 0.851" stroke="hsl(0.0,100%,35%)" stroke-width="0.00100"></path>
<path d="M1.271 0.207 Q0.834 0.208 0.740 0.421" stroke="hsl(0.0,100%,35%)" stroke-width="0.00075"></path>
<path d="M1.271 0.207 Q1.155 0.082 0.886 0.111" stroke="hsl(0.0,100%,35%)" stroke-width="0.00125"></path>
<path d="M1.271 0.207 Q1.291 0.232 1.343 0.227" stroke="hsl(0.0,100%,35%)" stroke-width="0.00025"></path>
<path d="M1.271 0.207 Q1.437 0.228 1.513 0.151" stroke="hsl(0.0,100%,35%)" stroke-width="0.00025"></path>
<path d="M1.271 0.207 Q0.890 0.145 0.686 0.318" stroke="hsl(0.0,100%,35%)" stroke-width="0.00050"></path>
<path d="M0.740 0.421 Q0.639 0.313 0.406 0.338" stroke="hsl(180.0,100%,35%)" stroke-width="0.01901"></path>
<path d="M0.740 0.421 Q0.795 0.359 0.686 0.318" stroke="hsl(180.0,100%,35%)" stroke-width="0.01576"></path>
<path d="M0.740 0.421 Q0.982 0.357 0.910 0.225" stroke="hsl(180.0,100%,35%)" stroke-width="0.00025"></path>
<path d="M0.740 0.421 Q1.256 0.359 1.248 0.094" stroke="hsl(180.0,100%,35%)" stroke-width="0.00500"></path>
<path d="M0.740 0.421 Q0.634 0.574 0.910 0.660" stroke="hsl(180.0,100%,35%)" stroke-width="0.00400"></path>
<path d="M0.740 0.421 Q0.314 0.521 0.417 0.751" stroke="hsl(180.0,100%,35%)" stroke-width="0.00425"></path>
<path d="M0.740 0.421 Q0.172 0.546 0.291 0.851" stroke="hsl(180.0,100%,35%)" stroke-width="0.00325"></path>
<path d="M0.740 0.421 Q0.548 0.494 0.649 0.604" stroke="hsl(180.0,100%,35%)" stroke-width="0.00025"></path>
<path d="M0.740 0.421 Q0.777 0.604 1.143 0.627" stroke="hsl(180.0,100%,35%)" stroke-width="0.00025"></path>
<path d="M0.740 0.421 Q0.869 0.578 1.204 0.550" stroke="hsl(180.0,100%,35%)" stroke-width="0.00100"></path>
<path d="M0.740 0.421 Q1.342 0.441 1.513 0.151" stroke="hsl(180.0,100%,35%)" stroke-width="0.00025"></path>
<path d="M0.740 0.421 Q0.854 0.495 1.023 0.455" stroke="hsl(180.0,100%,35%)" stroke-width="0.00025"></path>
<path d="M0.740 0.421 Q1.061 0.295 0.886 0.111" stroke="hsl(180.0,100%,35%)" stroke-width="0.00025"></path>
<path d="M0.740 0.421 Q0.846 0.746 1.504 0.766" stroke="hsl(180.0,100%,35%)" stroke-width="0.00025"></path>
<path d="M0.740 0.421 Q1.176 0.420 1.271 0.207" stroke="hsl(180.0,100%,35%)" stroke-width="0.00025"></path>
<path d="M0.740 0.421 Q0.596 0.446 0.613 0.521" stroke="hsl(180.0,100%,35%)" stroke-width="0.00050"></path>
<path d="M0.686 0.318 Q0.630 0.380 0.740 0.421" stroke="hsl(180.0,100%,35%)" stroke-width="0.02827"></path>
<path d="M0.686 0.318 Q1.146 0.318 1.248 0.094" stroke="hsl(180.0,100%,35%)" stroke-width="0.01726"></path>
<path d="M0.686 0.318 Q0.062 0.505 0.291 0.851" stroke="hsl(180.0,100%,35%)" stroke-width="0.00225"></path>
<path d="M0.686 0.318 Q0.530 0.272 0.406 0.338" stroke="hsl(180.0,100%,35%)" stroke-width="0.01351"></path>
<path d="M0.686 0.318 Q1.232 0.400 1.513 0.151" stroke="hsl(180.0,100%,35%)" stroke-width="0.00325"></path>
<path d="M0.686 0.318 Q0.524 0.533 0.910 0.660" stroke="hsl(180.0,100%,35%)" stroke-width="0.00075"></path>
<path d="M0.686 0.318 Q0.791 0.381 0.938 0.344" stroke="hsl(180.0,100%,35%)" stroke-width="0.00025"></path>
<path d="M0.686 0.318 Q0.205 0.480 0.417 0.751" stroke="hsl(180.0,100%,35%)" stroke-width="0.00450"></path>
<path d="M0.686 0.318 Q0.951 0.254 0.886 0.111" stroke="hsl(180.0,100%,35%)" stroke-width="0.00025"></path>
<path d="M0.686 0.318 Q1.067 0.379 1.271 0.207" stroke="hsl(180.0,100%,35%)" stroke-width="0.00100"></path>
<path d="M0.686 0.318 Q0.737 0.705 1.504 0.766" stroke="hsl(180.0,100%,35%)" stroke-width="0.00075"></path>
<path d="M1.037 0.181 Q1.213 0.180 1.248 0.094" stroke="hsl(0.0,100%,35%)" stroke-width="0.00500"></path>
<path d="M1.037 0.181 Q0.803 0.567 1.504 0.766" stroke="hsl(0.0,100%,35%)" stroke-width="0.00025"></path>
<path d="M1.037 0.181 Q1.299 0.262 1.513 0.151" stroke="hsl(0.0,100%,35%)" stroke-width="0.00150"></path>
<path d="M1.037 0.181 Q1.018 0.116 0.886 0.111" stroke="hsl(0.0,100%,35%)" stroke-width="0.00175"></path>
<path d="M1.037 0.181 Q0.697 0.242 0.740 0.421" stroke="hsl(0.0,100%,35%)" stroke-width="0.00050"></path>
<path d="M1.037 0.181 Q1.133 0.241 1.271 0.207" stroke="hsl(0.0,100%,35%)" stroke-width="0.00200"></path>
<path d="M0.291 0.851 Q0.859 0.726 0.740 0.421" stroke="hsl(180.0,100%,35%)" stroke-width="0.00150"></path>
<path d="M0.291 0.851 Q0.758 0.617 0.406 0.338" stroke="hsl(180.0,100%,35%)" stroke-width="0.00050"></path>
<path d="M0.291 0.851 Q1.461 0.746 1.513 0.151" stroke="hsl(180.0,100%,35%)" stroke-width="0.00075"></path>
<path d="M0.291 0.851 Q0.914 0.663 0.686 0.318" stroke="hsl(180.0,100%,35%)" stroke-width="0.00025"></path>
<path d="M0.910 0.660 Q1.071 0.444 0.686 0.318" stroke="hsl(180.0,100%,35%)" stroke-width="0.00250"></path>
<path d="M0.910 0.660 Q1.016 0.506 0.740 0.421" stroke="hsl(180.0,100%,35%)" stroke-width="0.00625"></path>
<path d="M0.910 0.660 Q0.915 0.398 0.406 0.338" stroke="hsl(180.0,100%,35%)" stroke-width="0.00125"></path>
<path d="M0.910 0.660 Q0.447 0.631 0.291 0.851" stroke="hsl(180.0,100%,35%)" stroke-width="0.00050"></path>
<path d="M0.910 0.660 Q0.590 0.607 0.417 0.751" stroke="hsl(180.0,100%,35%)" stroke-width="0.00025"></path>
<path d="M0.910 0.660 Q1.531 0.444 1.248 0.094" stroke="hsl(180.0,100%,35%)" stroke-width="0.00050"></path>
<path d="M0.910 0.660 Q1.452 0.506 1.271 0.207" stroke="hsl(180.0,100%,35%)" stroke-width="0.00025"></path>
<path d="M0.910 0.660 Q1.122 0.832 1.504 0.766" stroke="hsl(180.0,100%,35%)" stroke-width="0.00025"></path>
<path d="M0.728 0.552 Q0.839 0.489 0.740 0.421" stroke="hsl(180.0,100%,35%)" stroke-width="0.00475"></path>
<path d="M0.728 0.552 Q0.894 0.426 0.686 0.318" stroke="hsl(180.0,100%,35%)" stroke-width="0.00350"></path>
<path d="M0.728 0.552 Q0.270 0.614 0.291 0.851" stroke="hsl(180.0,100%,35%)" stroke-width="0.00075"></path>
<path d="M0.728 0.552 Q0.968 0.646 1.204 0.550" stroke="hsl(180.0,100%,35%)" stroke-width="0.00025"></path>
<path d="M0.728 0.552 Q0.832 0.579 0.908 0.534" stroke="hsl(180.0,100%,35%)" stroke-width="0.00025"></path>
<path d="M0.406 0.338 Q0.507 0.446 0.740 0.421" stroke="hsl(180.0,100%,35%)" stroke-width="0.01476"></path>
<path d="M0.406 0.338 Q-0.062 0.571 0.291 0.851" stroke="hsl(180.0,100%,35%)" stroke-width="0.00100"></path>
<path d="M0.406 0.338 Q1.022 0.384 1.248 0.094" stroke="hsl(180.0,100%,35%)" stroke-width="0.00075"></path>
<path d="M0.406 0.338 Q0.562 0.384 0.686 0.318" stroke="hsl(180.0,100%,35%)" stroke-width="0.00400"></path>
<path d="M0.406 0.338 Q0.401 0.600 0.910 0.660" stroke="hsl(180.0,100%,35%)" stroke-width="0.00150"></path>
<path d="M1.055 0.249 Q1.276 0.210 1.248 0.094" stroke="hsl(0.0,100%,35%)" stroke-width="0.00876"></path>
<path d="M1.055 0.249 Q1.362 0.292 1.513 0.151" stroke="hsl(0.0,100%,35%)" stroke-width="0.00100"></path>
<path d="M1.055 0.249 Q0.816 0.209 0.686 0.318" stroke="hsl(0.0,100%,35%)" stroke-width="0.00275"></path>
<path d="M1.055 0.249 Q0.760 0.272 0.740 0.421" stroke="hsl(0.0,100%,35%)" stroke-width="0.00200"></path>
<path d="M1.055 0.249 Q1.100 0.211 1.037 0.181" stroke="hsl(0.0,100%,35%)" stroke-width="0.00050"></path>
<path d="M1.055 0.249 Q1.081 0.146 0.886 0.111" stroke="hsl(0.0,100%,35%)" stroke-width="0.00075"></path>
<path d="M1.055 0.249 Q0.866 0.597 1.504 0.766" stroke="hsl(0.0,100%,35%)" stroke-width="0.00050"></path>
<path d="M1.055 0.249 Q0.192 0.397 0.291 0.851" stroke="hsl(0.0,100%,35%)" stroke-width="0.00150"></path>
<path d="M1.055 0.249 Q0.548 0.221 0.382 0.462" stroke="hsl(0.0,100%,35%)" stroke-width="0.00025"></path>
<path d="M1.392 0.221 Q1.421 0.128 1.248 0.094" stroke="hsl(0.0,100%,35%)" stroke-width="0.01726"></path>
<path d="M1.392 0.221 Q0.906 0.190 0.740 0.421" stroke="hsl(0.0,100%,35%)" stroke-width="0.00675"></path>
<path d="M1.392 0.221 Q0.961 0.128 0.686 0.318" stroke="hsl(0.0,100%,35%)" stroke-width="0.00325"></path>
<path d="M1.392 0.221 Q0.805 0.082 0.406 0.338" stroke="hsl(0.0,100%,35%)" stroke-width="0.00050"></path>
<path d="M1.392 0.221 Q1.227 0.064 0.886 0.111" stroke="hsl(0.0,100%,35%)" stroke-width="0.00025"></path>
<path d="M1.392 0.221 Q1.246 0.130 1.037 0.181" stroke="hsl(0.0,100%,35%)" stroke-width="0.00075"></path>
<path d="M1.392 0.221 Q1.342 0.190 1.271 0.207" stroke="hsl(0.0,100%,35%)" stroke-width="0.00075"></path>
<path d="M1.192 0.440 Q0.981 0.340 0.740 0.421" stroke="hsl(180.0,100%,35%)" stroke-width="0.00300"></path>
<path d="M1.192 0.440 Q0.413 0.465 0.291 0.851" stroke="hsl(180.0,100%,35%)" stroke-width="0.00100"></path>
<path d="M1.192 0.440 Q1.497 0.278 1.248 0.094" stroke="hsl(180.0,100%,35%)" stroke-width="0.00175"></path>
<path d="M1.192 0.440 Q1.036 0.278 0.686 0.318" stroke="hsl(180.0,100%,35%)" stroke-width="0.00100"></path>
<path d="M1.192 0.440 Q1.302 0.214 0.886 0.111" stroke="hsl(180.0,100%,35%)" stroke-width="0.00025"></path>
<path d="M1.192 0.440 Q0.880 0.232 0.406 0.338" stroke="hsl(180.0,100%,35%)" stroke-width="0.00025"></path>
<path d="M0.938 0.344 Q0.833 0.280 0.686 0.318" stroke="hsl(180.0,100%,35%)" stroke-width="0.00150"></path>
<path d="M0.938 0.344 Q0.777 0.343 0.740 0.421" stroke="hsl(180.0,100%,35%)" stroke-width="0.00075"></path>
<path d="M0.938 0.344 Q0.209 0.468 0.291 0.851" stroke="hsl(180.0,100%,35%)" stroke-width="0.00025"></path>
<path d="M0.938 0.344 Q1.293 0.280 1.248 0.094" stroke="hsl(180.0,100%,35%)" stroke-width="0.00025"></path>
<path d="M0.910 0.225 Q0.669 0.289 0.740 0.421" stroke="hsl(180.0,100%,35%)" stroke-width="0.00225"></path>
<path d="M0.910 0.225 Q0.724 0.227 0.686 0.318" stroke="hsl(180.0,100%,35%)" stroke-width="0.00050"></path>
<path d="M0.910 0.225 Q0.568 0.181 0.406 0.338" stroke="hsl(180.0,100%,35%)" stroke-width="0.00050"></path>
<path d="M1.204 0.550 Q1.130 0.330 0.686 0.318" stroke="hsl(180.0,100%,35%)" stroke-width="0.01026"></path>
<path d="M1.204 0.550 Q1.075 0.393 0.740 0.421" stroke="hsl(180.0,100%,35%)" stroke-width="0.01401"></path>
<path d="M1.204 0.550 Q1.591 0.330 1.248 0.094" stroke="hsl(180.0,100%,35%)" stroke-width="0.00175"></path>
<path d="M1.204 0.550 Q0.507 0.518 0.291 0.851" stroke="hsl(180.0,100%,35%)" stroke-width="0.00025"></path>
<path d="M1.204 0.550 Q1.415 0.332 1.037 0.181" stroke="hsl(180.0,100%,35%)" stroke-width="0.00050"></path>
<path d="M1.204 0.550 Q0.974 0.284 0.406 0.338" stroke="hsl(180.0,100%,35%)" stroke-width="0.00050"></path>
<path d="M1.204 0.550 Q0.649 0.493 0.417 0.751" stroke="hsl(180.0,100%,35%)" stroke-width="0.00050"></path>
<path d="M1.023 0.455 Q0.965 0.319 0.686 0.318" stroke="hsl(180.0,100%,35%)" stroke-width="0.00200"></path>
<path d="M1.023 0.455 Q0.946 0.565 1.143 0.627" stroke="hsl(180.0,100%,35%)" stroke-width="0.00025"></path>
<path d="M1.023 0.455 Q0.909 0.381 0.740 0.421" stroke="hsl(180.0,100%,35%)" stroke-width="0.00225"></path>
<path d="M1.023 0.455 Q0.341 0.506 0.291 0.851" stroke="hsl(180.0,100%,35%)" stroke-width="0.00025"></path>
<path d="M1.023 0.455 Q0.803 0.535 0.910 0.660" stroke="hsl(180.0,100%,35%)" stroke-width="0.00025"></path>
<path d="M1.023 0.455 Q0.484 0.482 0.417 0.751" stroke="hsl(180.0,100%,35%)" stroke-width="0.00025"></path>
<path d="M0.358 0.144 Q0.383 0.296 0.686 0.318" stroke="hsl(180.0,100%,35%)" stroke-width="0.00200"></path>
<path d="M0.358 0.144 Q0.328 0.359 0.740 0.421" stroke="hsl(180.0,100%,35%)" stroke-width="0.00200"></path>
<path d="M0.358 0.144 Q0.227 0.251 0.406 0.338" stroke="hsl(180.0,100%,35%)" stroke-width="0.00050"></path>
<path d="M0.418 0.530 Q0.722 0.477 0.686 0.318" stroke="hsl(180.0,100%,35%)" stroke-width="0.00300"></path>
<path d="M0.418 0.530 Q0.666 0.540 0.740 0.421" stroke="hsl(180.0,100%,35%)" stroke-width="0.00250"></path>
<path d="M0.418 0.530 Q0.368 0.690 0.669 0.749" stroke="hsl(180.0,100%,35%)" stroke-width="0.00025"></path>
<path d="M0.418 0.530 Q0.795 0.697 1.204 0.550" stroke="hsl(180.0,100%,35%)" stroke-width="0.00075"></path>
<path d="M1.722 0.238 Q1.600 0.071 1.248 0.094" stroke="hsl(0.0,100%,35%)" stroke-width="0.00025"></path>
<path d="M1.722 0.238 Q1.687 0.153 1.513 0.151" stroke="hsl(0.0,100%,35%)" stroke-width="0.00025"></path>
<path d="M1.722 0.238 Q1.085 0.133 0.740 0.421" stroke="hsl(0.0,100%,35%)" stroke-width="0.00025"></path>
<path d="M1.145 0.391 Q0.918 0.325 0.740 0.421" stroke="hsl(180.0,100%,35%)" stroke-width="0.00025"></path>
<path d="M1.145 0.391 Q1.521 0.345 1.513 0.151" stroke="hsl(180.0,100%,35%)" stroke-width="0.00025"></path>
<path d="M1.145 0.391 Q1.025 0.650 1.504 0.766" stroke="hsl(180.0,100%,35%)" stroke-width="0.00025"></path>
<path d="M1.145 0.391 Q0.974 0.263 0.686 0.318" stroke="hsl(180.0,100%,35%)" stroke-width="0.00025"></path>
<path d="M0.249 0.601 Q0.638 0.609 0.740 0.421" stroke="hsl(180.0,100%,35%)" stroke-width="0.00325"></path>
<path d="M0.249 0.601 Q0.694 0.546 0.686 0.318" stroke="hsl(180.0,100%,35%)" stroke-width="0.00275"></path>
<path d="M0.249 0.601 Q0.767 0.766 1.204 0.550" stroke="hsl(180.0,100%,35%)" stroke-width="0.00050"></path>
<path d="M0.249 0.601 Q0.070 0.734 0.291 0.851" stroke="hsl(180.0,100%,35%)" stroke-width="0.00050"></path>
<path d="M0.975 0.328 Q0.839 0.265 0.686 0.318" stroke="hsl(180.0,100%,35%)" stroke-width="0.00050"></path>
<path d="M0.975 0.328 Q1.299 0.266 1.248 0.094" stroke="hsl(180.0,100%,35%)" stroke-width="0.00025"></path>
<path d="M0.975 0.328 Q0.889 0.653 1.504 0.766" stroke="hsl(180.0,100%,35%)" stroke-width="0.00025"></path>
<path d="M1.087 0.416 Q1.016 0.674 1.504 0.766" stroke="hsl(180.0,100%,35%)" stroke-width="0.00050"></path>
<path d="M1.087 0.416 Q0.965 0.287 0.686 0.318" stroke="hsl(180.0,100%,35%)" stroke-width="0.00050"></path>
<path d="M1.087 0.416 Q1.425 0.287 1.248 0.094" stroke="hsl(180.0,100%,35%)" stroke-width="0.00025"></path>
<path d="M0.808 0.577 Q0.954 0.423 0.686 0.318" stroke="hsl(180.0,100%,35%)" stroke-width="0.00025"></path>
<path d="M0.808 0.577 Q0.899 0.485 0.740 0.421" stroke="hsl(180.0,100%,35%)" stroke-width="0.00025"></path>
<path d="M0.808 0.577 Q0.798 0.377 0.406 0.338" stroke="hsl(180.0,100%,35%)" stroke-width="0.00025"></path>
<path d="M0.908 0.534 Q0.914 0.444 0.740 0.421" stroke="hsl(180.0,100%,35%)" stroke-width="0.00025"></path>
<path d="M0.908 0.534 Q1.029 0.518 1.023 0.455" stroke="hsl(180.0,100%,35%)" stroke-width="0.00025"></path>
<path d="M0.908 0.534 Q1.043 0.601 1.204 0.550" stroke="hsl(180.0,100%,35%)" stroke-width="0.00025"></path>
<path d="M0.908 0.534 Q0.970 0.382 0.686 0.318" stroke="hsl(180.0,100%,35%)" stroke-width="0.00025"></path>
<path d="M0.382 0.462 Q0.594 0.513 0.740 0.421" stroke="hsl(180.0,100%,35%)" stroke-width="0.00175"></path>
<path d="M0.382 0.462 Q1.109 0.451 1.248 0.094" stroke="hsl(180.0,100%,35%)" stroke-width="0.00025"></path>
<path d="M0.382 0.462 Q0.025 0.638 0.291 0.851" stroke="hsl(180.0,100%,35%)" stroke-width="0.00025"></path>
</g>
<text x="1.695" y="0.714" font-size="0.008895" fill="hsl(0.0,100%,20%)">afdx</text>
<text x="1.248" y="0.044" font-size="0.099960" fill="hsl(0.0,100%,20%)">bclayton</text>
<text x="1.504" y="0.753" font-size="0.025779" fill="hsl(0.0,100%,20%)">rharrison</text>
<text x="0.886" y="0.083" font-size="0.054541" fill="hsl(0.0,100%,20%)">amaiorano</text>
<text x="1.513" y="0.121" font-size="0.061495" fill="hsl(0.0,100%,20%)">dsinclair</text>
<text x="0.417" y="0.734" font-size="0.032560" fill="hsl(180.0,100%,20%)">bajones</text>
<text x="0.580" y="0.138" font-size="0.002813" fill="hsl(0.0,100%,20%)">sugoi</text>
<text x="0.622" y="0.221" font-size="0.002813" fill="hsl(0.0,100%,20%)">armansito</text>
<text x="1.271" y="0.189" font-size="0.036239" fill="hsl(0.0,100%,20%)">jrprice</text>
<text x="0.740" y="0.384" font-size="0.074205" fill="hsl(180.0,100%,20%)">enga</text>
<text x="0.686" y="0.280" font-size="0.074577" fill="hsl(180.0,100%,20%)">cwallez</text>
<text x="1.037" y="0.162" font-size="0.039378" fill="hsl(0.0,100%,20%)">dneto</text>
<text x="0.291" y="0.838" font-size="0.025314" fill="hsl(180.0,100%,20%)">kainino</text>
<text x="0.910" y="0.647" font-size="0.025000" fill="hsl(180.0,100%,20%)">shrekshao</text>
<text x="0.728" y="0.543" font-size="0.017565" fill="hsl(180.0,100%,20%)">yunchao.he</text>
<text x="0.406" y="0.317" font-size="0.043210" fill="hsl(180.0,100%,20%)">lokokung</text>
<text x="1.055" y="0.237" font-size="0.024359" fill="hsl(0.0,100%,20%)">zhaoming.jiang</text>
<text x="1.392" y="0.205" font-size="0.031195" fill="hsl(0.0,100%,20%)">senorblanco</text>
<text x="1.308" y="0.371" font-size="0.002813" fill="hsl(0.0,100%,20%)">sarahmashay</text>
<text x="1.192" y="0.432" font-size="0.015147" fill="hsl(180.0,100%,20%)">brandon1.jones</text>
<text x="0.938" y="0.339" font-size="0.009744" fill="hsl(180.0,100%,20%)">hogehoge</text>
<text x="1.462" y="0.332" font-size="0.002813" fill="hsl(0.0,100%,20%)">johnstiles</text>
<text x="0.910" y="0.220" font-size="0.010524" fill="hsl(180.0,100%,20%)">sunnyps</text>
<text x="0.649" y="0.602" font-size="0.002813" fill="hsl(180.0,100%,20%)">zmo</text>
<text x="1.143" y="0.625" font-size="0.003978" fill="hsl(180.0,100%,20%)">bsheedy</text>
<text x="1.204" y="0.534" font-size="0.031068" fill="hsl(180.0,100%,20%)">jiawei.shao</text>
<text x="1.023" y="0.448" font-size="0.013489" fill="hsl(180.0,100%,20%)">hao.x.li</text>
<text x="0.613" y="0.520" font-size="0.003978" fill="hsl(180.0,100%,20%)">rafael.cintron</text>
<text x="0.358" y="0.138" font-size="0.011933" fill="hsl(180.0,100%,20%)">jie.a.chen</text>
<text x="1.343" y="0.226" font-size="0.002813" fill="hsl(0.0,100%,20%)">alanbaker</text>
<text x="0.418" y="0.523" font-size="0.014342" fill="hsl(180.0,100%,20%)">junwei.fu</text>
<text x="0.669" y="0.748" font-size="0.002813" fill="hsl(180.0,100%,20%)">ningxin.hu</text>
<text x="1.722" y="0.236" font-size="0.004872" fill="hsl(0.0,100%,20%)">jwata</text>
<text x="1.145" y="0.388" font-size="0.005625" fill="hsl(180.0,100%,20%)">pkasting</text>
<text x="0.249" y="0.593" font-size="0.014884" fill="hsl(180.0,100%,20%)">shaobo.yan</text>
<text x="0.975" y="0.325" font-size="0.005625" fill="hsl(180.0,100%,20%)">ukai</text>
<text x="1.087" y="0.413" font-size="0.006289" fill="hsl(180.0,100%,20%)">vadimsh</text>
<text x="0.808" y="0.575" font-size="0.004872" fill="hsl(180.0,100%,20%)">wangqing-hf</text>
<text x="0.908" y="0.531" font-size="0.006289" fill="hsl(180.0,100%,20%)">yang.gu</text>
<text x="0.382" y="0.457" font-size="0.008895" fill="hsl(180.0,100%,20%)">ynovikov</text>
</svg>
