<svg width="4000" height="2000" viewBox="-0.025 -0.025 2.05 1.05" xmlns="http://www.w3.org/2000/svg">
  <style>
    path {
      fill: none;
      stroke-linecap: round;
      stroke-opacity: 0.4;
    }

    text {
      text-anchor: middle;
      alignment-baseline: hanging;
    }
  </style>
  <g opacity="0.4">
<path d="M0.995 0.445 Q1.065 0.382 0.956 0.334" stroke="hsl(0.0,100%,35%)" stroke-width="0.00554"></path>
<path d="M0.995 0.445 Q1.043 0.560 1.276 0.562" stroke="hsl(0.0,100%,35%)" stroke-width="0.00392"></path>
<path d="M0.995 0.445 Q0.767 0.526 0.875 0.656" stroke="hsl(0.0,100%,35%)" stroke-width="0.00023"></path>
<path d="M0.995 0.445 Q0.850 0.726 1.366 0.859" stroke="hsl(0.0,100%,35%)" stroke-width="0.00046"></path>
<path d="M0.956 0.334 Q0.934 0.512 1.276 0.562" stroke="hsl(0.0,100%,35%)" stroke-width="0.01453"></path>
<path d="M0.956 0.334 Q0.232 0.598 0.589 1.010" stroke="hsl(0.0,100%,35%)" stroke-width="0.00254"></path>
<path d="M0.956 0.334 Q0.075 0.464 0.136 0.923" stroke="hsl(0.0,100%,35%)" stroke-width="0.00023"></path>
<path d="M0.956 0.334 Q0.793 0.574 1.226 0.706" stroke="hsl(0.0,100%,35%)" stroke-width="0.00161"></path>
<path d="M0.956 0.334 Q0.658 0.478 0.875 0.656" stroke="hsl(0.0,100%,35%)" stroke-width="0.00161"></path>
<path d="M0.956 0.334 Q1.003 0.417 1.176 0.413" stroke="hsl(0.0,100%,35%)" stroke-width="0.00392"></path>
<path d="M0.956 0.334 Q0.245 0.495 0.404 0.877" stroke="hsl(0.0,100%,35%)" stroke-width="0.00507"></path>
<path d="M0.956 0.334 Q0.886 0.397 0.995 0.445" stroke="hsl(0.0,100%,35%)" stroke-width="0.00069"></path>
<path d="M0.956 0.334 Q0.800 0.291 0.682 0.358" stroke="hsl(0.0,100%,35%)" stroke-width="0.00069"></path>
<path d="M1.276 0.562 Q1.345 0.467 1.176 0.413" stroke="hsl(0.0,100%,35%)" stroke-width="0.05306"></path>
<path d="M1.276 0.562 Q1.001 0.528 0.875 0.656" stroke="hsl(0.0,100%,35%)" stroke-width="0.05698"></path>
<path d="M1.276 0.562 Q1.136 0.624 1.226 0.706" stroke="hsl(0.0,100%,35%)" stroke-width="0.04429"></path>
<path d="M1.276 0.562 Q0.574 0.648 0.589 1.010" stroke="hsl(0.0,100%,35%)" stroke-width="0.01315"></path>
<path d="M1.276 0.562 Q1.298 0.384 0.956 0.334" stroke="hsl(0.0,100%,35%)" stroke-width="0.00554"></path>
<path d="M1.276 0.562 Q1.346 0.728 1.686 0.731" stroke="hsl(0.0,100%,35%)" stroke-width="0.00185"></path>
<path d="M1.276 0.562 Q0.588 0.545 0.404 0.877" stroke="hsl(0.0,100%,35%)" stroke-width="0.02491"></path>
<path d="M1.276 0.562 Q0.463 0.526 0.215 0.914" stroke="hsl(0.0,100%,35%)" stroke-width="0.00046"></path>
<path d="M1.276 0.562 Q1.019 0.588 1.014 0.719" stroke="hsl(0.0,100%,35%)" stroke-width="0.00115"></path>
<path d="M1.276 0.562 Q1.083 0.728 1.366 0.859" stroke="hsl(0.0,100%,35%)" stroke-width="0.00046"></path>
<path d="M1.276 0.562 Q0.455 0.559 0.270 0.960" stroke="hsl(0.0,100%,35%)" stroke-width="0.00023"></path>
<path d="M1.276 0.562 Q1.085 0.820 1.548 0.970" stroke="hsl(0.0,100%,35%)" stroke-width="0.00023"></path>
<path d="M1.276 0.562 Q0.677 0.591 0.603 0.889" stroke="hsl(0.0,100%,35%)" stroke-width="0.00023"></path>
<path d="M1.276 0.562 Q1.267 0.638 1.415 0.659" stroke="hsl(0.0,100%,35%)" stroke-width="0.00023"></path>
<path d="M0.875 0.656 Q1.220 0.594 1.176 0.413" stroke="hsl(0.0,100%,35%)" stroke-width="0.00461"></path>
<path d="M0.875 0.656 Q1.151 0.689 1.276 0.562" stroke="hsl(0.0,100%,35%)" stroke-width="0.02976"></path>
<path d="M0.875 0.656 Q1.011 0.751 1.226 0.706" stroke="hsl(0.0,100%,35%)" stroke-width="0.00300"></path>
<path d="M0.875 0.656 Q0.463 0.672 0.404 0.877" stroke="hsl(0.0,100%,35%)" stroke-width="0.00208"></path>
<path d="M0.875 0.656 Q0.449 0.775 0.589 1.010" stroke="hsl(0.0,100%,35%)" stroke-width="0.00069"></path>
<path d="M1.366 0.859 Q1.581 0.514 0.956 0.334" stroke="hsl(0.0,100%,35%)" stroke-width="0.00092"></path>
<path d="M1.366 0.859 Q1.559 0.692 1.276 0.562" stroke="hsl(0.0,100%,35%)" stroke-width="0.00138"></path>
<path d="M1.366 0.859 Q1.512 0.578 0.995 0.445" stroke="hsl(0.0,100%,35%)" stroke-width="0.00046"></path>
<path d="M1.366 0.859 Q1.368 0.951 1.548 0.970" stroke="hsl(0.0,100%,35%)" stroke-width="0.00046"></path>
<path d="M1.366 0.859 Q1.419 0.754 1.226 0.706" stroke="hsl(0.0,100%,35%)" stroke-width="0.00023"></path>
<path d="M0.949 0.792 Q0.608 0.725 0.404 0.877" stroke="hsl(180.0,100%,35%)" stroke-width="0.00046"></path>
<path d="M0.949 0.792 Q0.595 0.829 0.589 1.010" stroke="hsl(180.0,100%,35%)" stroke-width="0.00023"></path>
<path d="M0.949 0.792 Q1.297 0.742 1.276 0.562" stroke="hsl(180.0,100%,35%)" stroke-width="0.00023"></path>
<path d="M0.404 0.877 Q0.390 0.980 0.589 1.010" stroke="hsl(180.0,100%,35%)" stroke-width="0.02215"></path>
<path d="M0.404 0.877 Q1.161 0.799 1.176 0.413" stroke="hsl(180.0,100%,35%)" stroke-width="0.00092"></path>
<path d="M0.404 0.877 Q0.279 0.858 0.215 0.914" stroke="hsl(180.0,100%,35%)" stroke-width="0.00715"></path>
<path d="M0.404 0.877 Q0.465 0.754 0.238 0.697" stroke="hsl(180.0,100%,35%)" stroke-width="0.00461"></path>
<path d="M0.404 0.877 Q1.092 0.894 1.276 0.562" stroke="hsl(180.0,100%,35%)" stroke-width="0.00992"></path>
<path d="M0.404 0.877 Q1.114 0.716 0.956 0.334" stroke="hsl(180.0,100%,35%)" stroke-width="0.00115"></path>
<path d="M0.404 0.877 Q0.271 0.891 0.270 0.960" stroke="hsl(180.0,100%,35%)" stroke-width="0.00231"></path>
<path d="M0.404 0.877 Q0.537 0.805 0.427 0.724" stroke="hsl(180.0,100%,35%)" stroke-width="0.00023"></path>
<path d="M0.404 0.877 Q0.648 0.847 0.643 0.721" stroke="hsl(180.0,100%,35%)" stroke-width="0.00046"></path>
<path d="M0.404 0.877 Q0.318 0.794 0.138 0.818" stroke="hsl(180.0,100%,35%)" stroke-width="0.00023"></path>
<path d="M0.404 0.877 Q0.261 0.821 0.121 0.878" stroke="hsl(180.0,100%,35%)" stroke-width="0.00023"></path>
<path d="M0.404 0.877 Q1.162 1.060 1.686 0.731" stroke="hsl(180.0,100%,35%)" stroke-width="0.00484"></path>
<path d="M0.404 0.877 Q0.233 0.846 0.136 0.923" stroke="hsl(180.0,100%,35%)" stroke-width="0.00023"></path>
<path d="M0.404 0.877 Q0.246 0.869 0.196 0.944" stroke="hsl(180.0,100%,35%)" stroke-width="0.00254"></path>
<path d="M0.404 0.877 Q0.174 0.856 0.083 0.964" stroke="hsl(180.0,100%,35%)" stroke-width="0.00023"></path>
<path d="M0.404 0.877 Q1.304 1.092 1.921 0.700" stroke="hsl(180.0,100%,35%)" stroke-width="0.00023"></path>
<path d="M0.404 0.877 Q0.816 0.860 0.875 0.656" stroke="hsl(180.0,100%,35%)" stroke-width="0.00023"></path>
<path d="M0.589 1.010 Q0.603 0.906 0.404 0.877" stroke="hsl(180.0,100%,35%)" stroke-width="0.01430"></path>
<path d="M0.589 1.010 Q0.664 0.783 0.238 0.697" stroke="hsl(180.0,100%,35%)" stroke-width="0.00623"></path>
<path d="M0.589 1.010 Q0.470 0.921 0.270 0.960" stroke="hsl(180.0,100%,35%)" stroke-width="0.00461"></path>
<path d="M0.589 1.010 Q0.478 0.887 0.215 0.914" stroke="hsl(180.0,100%,35%)" stroke-width="0.00300"></path>
<path d="M0.589 1.010 Q0.445 0.898 0.196 0.944" stroke="hsl(180.0,100%,35%)" stroke-width="0.00392"></path>
<path d="M0.589 1.010 Q0.432 0.876 0.136 0.923" stroke="hsl(180.0,100%,35%)" stroke-width="0.00092"></path>
<path d="M0.589 1.010 Q1.291 0.923 1.276 0.562" stroke="hsl(180.0,100%,35%)" stroke-width="0.00254"></path>
<path d="M0.589 1.010 Q0.736 0.835 0.427 0.724" stroke="hsl(180.0,100%,35%)" stroke-width="0.00046"></path>
<path d="M0.589 1.010 Q1.015 0.890 0.875 0.656" stroke="hsl(180.0,100%,35%)" stroke-width="0.00023"></path>
<path d="M0.589 1.010 Q1.313 0.745 0.956 0.334" stroke="hsl(180.0,100%,35%)" stroke-width="0.00046"></path>
<path d="M0.589 1.010 Q1.360 0.829 1.176 0.413" stroke="hsl(180.0,100%,35%)" stroke-width="0.00092"></path>
<path d="M0.589 1.010 Q0.869 0.942 0.799 0.791" stroke="hsl(180.0,100%,35%)" stroke-width="0.00046"></path>
<path d="M0.589 1.010 Q1.151 0.985 1.226 0.706" stroke="hsl(180.0,100%,35%)" stroke-width="0.00023"></path>
<path d="M0.589 1.010 Q1.360 1.090 1.686 0.731" stroke="hsl(180.0,100%,35%)" stroke-width="0.00300"></path>
<path d="M0.589 1.010 Q0.836 0.894 0.665 0.748" stroke="hsl(180.0,100%,35%)" stroke-width="0.00069"></path>
<path d="M0.589 1.010 Q1.032 0.641 0.410 0.344" stroke="hsl(180.0,100%,35%)" stroke-width="0.00023"></path>
<path d="M0.589 1.010 Q0.582 0.814 0.199 0.775" stroke="hsl(180.0,100%,35%)" stroke-width="0.00115"></path>
<path d="M1.176 0.413 Q1.107 0.507 1.276 0.562" stroke="hsl(0.0,100%,35%)" stroke-width="0.04060"></path>
<path d="M1.176 0.413 Q0.286 0.505 0.270 0.960" stroke="hsl(0.0,100%,35%)" stroke-width="0.00046"></path>
<path d="M1.176 0.413 Q0.967 0.569 1.226 0.706" stroke="hsl(0.0,100%,35%)" stroke-width="0.00185"></path>
<path d="M1.176 0.413 Q0.419 0.490 0.404 0.877" stroke="hsl(0.0,100%,35%)" stroke-width="0.00346"></path>
<path d="M1.176 0.413 Q0.832 0.474 0.875 0.656" stroke="hsl(0.0,100%,35%)" stroke-width="0.00185"></path>
<path d="M1.176 0.413 Q0.405 0.594 0.589 1.010" stroke="hsl(0.0,100%,35%)" stroke-width="0.00161"></path>
<path d="M1.176 0.413 Q0.850 0.533 1.014 0.719" stroke="hsl(0.0,100%,35%)" stroke-width="0.00046"></path>
<path d="M1.176 0.413 Q1.129 0.329 0.956 0.334" stroke="hsl(0.0,100%,35%)" stroke-width="0.00115"></path>
<path d="M1.176 0.413 Q0.294 0.471 0.215 0.914" stroke="hsl(0.0,100%,35%)" stroke-width="0.00023"></path>
<path d="M1.226 0.706 Q1.367 0.644 1.276 0.562" stroke="hsl(0.0,100%,35%)" stroke-width="0.01615"></path>
<path d="M1.226 0.706 Q0.665 0.730 0.589 1.010" stroke="hsl(0.0,100%,35%)" stroke-width="0.00023"></path>
<path d="M1.226 0.706 Q1.091 0.610 0.875 0.656" stroke="hsl(0.0,100%,35%)" stroke-width="0.00300"></path>
<path d="M1.226 0.706 Q1.436 0.549 1.176 0.413" stroke="hsl(0.0,100%,35%)" stroke-width="0.01246"></path>
<path d="M1.226 0.706 Q1.358 0.720 1.415 0.659" stroke="hsl(0.0,100%,35%)" stroke-width="0.00877"></path>
<path d="M1.226 0.706 Q0.678 0.627 0.404 0.877" stroke="hsl(0.0,100%,35%)" stroke-width="0.00023"></path>
<path d="M1.226 0.706 Q1.389 0.466 0.956 0.334" stroke="hsl(0.0,100%,35%)" stroke-width="0.00023"></path>
<path d="M0.215 0.914 Q0.325 1.037 0.589 1.010" stroke="hsl(180.0,100%,35%)" stroke-width="0.00830"></path>
<path d="M0.215 0.914 Q0.400 0.810 0.238 0.697" stroke="hsl(180.0,100%,35%)" stroke-width="0.00023"></path>
<path d="M0.215 0.914 Q0.168 0.903 0.136 0.923" stroke="hsl(180.0,100%,35%)" stroke-width="0.00046"></path>
<path d="M0.215 0.914 Q0.339 0.933 0.404 0.877" stroke="hsl(180.0,100%,35%)" stroke-width="0.00669"></path>
<path d="M0.215 0.914 Q1.027 0.950 1.276 0.562" stroke="hsl(180.0,100%,35%)" stroke-width="0.00023"></path>
<path d="M0.215 0.914 Q0.206 0.948 0.270 0.960" stroke="hsl(180.0,100%,35%)" stroke-width="0.00438"></path>
<path d="M0.215 0.914 Q1.097 0.856 1.176 0.413" stroke="hsl(180.0,100%,35%)" stroke-width="0.00023"></path>
<path d="M0.238 0.697 Q0.044 0.835 0.270 0.960" stroke="hsl(180.0,100%,35%)" stroke-width="0.00092"></path>
<path d="M0.238 0.697 Q0.164 0.924 0.589 1.010" stroke="hsl(180.0,100%,35%)" stroke-width="0.00623"></path>
<path d="M0.238 0.697 Q0.007 0.790 0.136 0.923" stroke="hsl(180.0,100%,35%)" stroke-width="0.00046"></path>
<path d="M0.238 0.697 Q0.178 0.820 0.404 0.877" stroke="hsl(180.0,100%,35%)" stroke-width="0.00277"></path>
<path d="M0.136 0.923 Q0.293 1.057 0.589 1.010" stroke="hsl(180.0,100%,35%)" stroke-width="0.00507"></path>
<path d="M0.136 0.923 Q0.182 0.934 0.215 0.914" stroke="hsl(180.0,100%,35%)" stroke-width="0.00023"></path>
<path d="M0.136 0.923 Q0.174 0.968 0.270 0.960" stroke="hsl(180.0,100%,35%)" stroke-width="0.00069"></path>
<path d="M0.136 0.923 Q0.995 0.970 1.276 0.562" stroke="hsl(180.0,100%,35%)" stroke-width="0.00046"></path>
<path d="M0.136 0.923 Q0.307 0.953 0.404 0.877" stroke="hsl(180.0,100%,35%)" stroke-width="0.00161"></path>
<path d="M0.136 0.923 Q1.064 0.876 1.176 0.413" stroke="hsl(180.0,100%,35%)" stroke-width="0.00023"></path>
<path d="M0.136 0.923 Q1.017 0.792 0.956 0.334" stroke="hsl(180.0,100%,35%)" stroke-width="0.00046"></path>
<path d="M0.270 0.960 Q0.390 1.048 0.589 1.010" stroke="hsl(180.0,100%,35%)" stroke-width="0.00231"></path>
<path d="M0.270 0.960 Q0.403 0.945 0.404 0.877" stroke="hsl(180.0,100%,35%)" stroke-width="0.00092"></path>
<path d="M0.270 0.960 Q0.464 0.822 0.238 0.697" stroke="hsl(180.0,100%,35%)" stroke-width="0.00046"></path>
<path d="M0.270 0.960 Q0.279 0.926 0.215 0.914" stroke="hsl(180.0,100%,35%)" stroke-width="0.00023"></path>
<path d="M1.686 0.731 Q0.915 0.651 0.589 1.010" stroke="hsl(180.0,100%,35%)" stroke-width="0.00346"></path>
<path d="M1.686 0.731 Q1.617 0.564 1.276 0.562" stroke="hsl(180.0,100%,35%)" stroke-width="0.01638"></path>
<path d="M1.686 0.731 Q0.929 0.547 0.404 0.877" stroke="hsl(180.0,100%,35%)" stroke-width="0.00208"></path>
<path d="M1.686 0.731 Q1.477 0.626 1.226 0.706" stroke="hsl(180.0,100%,35%)" stroke-width="0.00069"></path>
<path d="M1.686 0.731 Q1.686 0.470 1.176 0.413" stroke="hsl(180.0,100%,35%)" stroke-width="0.00069"></path>
<path d="M1.686 0.731 Q0.796 0.562 0.270 0.960" stroke="hsl(180.0,100%,35%)" stroke-width="0.00069"></path>
<path d="M1.014 0.719 Q1.271 0.693 1.276 0.562" stroke="hsl(0.0,100%,35%)" stroke-width="0.00807"></path>
<path d="M1.014 0.719 Q0.995 0.659 0.875 0.656" stroke="hsl(0.0,100%,35%)" stroke-width="0.00346"></path>
<path d="M1.014 0.719 Q1.340 0.598 1.176 0.413" stroke="hsl(0.0,100%,35%)" stroke-width="0.00161"></path>
<path d="M1.014 0.719 Q0.449 0.690 0.270 0.960" stroke="hsl(0.0,100%,35%)" stroke-width="0.00046"></path>
<path d="M0.603 0.889 Q0.513 0.843 0.404 0.877" stroke="hsl(180.0,100%,35%)" stroke-width="0.00208"></path>
<path d="M0.603 0.889 Q0.500 0.947 0.589 1.010" stroke="hsl(180.0,100%,35%)" stroke-width="0.00300"></path>
<path d="M0.603 0.889 Q0.926 0.827 0.875 0.656" stroke="hsl(180.0,100%,35%)" stroke-width="0.00023"></path>
<path d="M0.603 0.889 Q1.202 0.860 1.276 0.562" stroke="hsl(180.0,100%,35%)" stroke-width="0.00254"></path>
<path d="M0.603 0.889 Q0.574 0.720 0.238 0.697" stroke="hsl(180.0,100%,35%)" stroke-width="0.00023"></path>
<path d="M0.603 0.889 Q0.380 0.858 0.270 0.960" stroke="hsl(180.0,100%,35%)" stroke-width="0.00046"></path>
<path d="M0.603 0.889 Q1.224 0.682 0.956 0.334" stroke="hsl(180.0,100%,35%)" stroke-width="0.00023"></path>
<path d="M0.603 0.889 Q1.061 0.922 1.226 0.706" stroke="hsl(180.0,100%,35%)" stroke-width="0.00023"></path>
<path d="M0.643 0.721 Q0.399 0.751 0.404 0.877" stroke="hsl(180.0,100%,35%)" stroke-width="0.00092"></path>
<path d="M0.643 0.721 Q0.385 0.854 0.589 1.010" stroke="hsl(180.0,100%,35%)" stroke-width="0.00023"></path>
<path d="M0.643 0.721 Q0.274 0.732 0.215 0.914" stroke="hsl(180.0,100%,35%)" stroke-width="0.00023"></path>
<path d="M0.665 0.748 Q0.418 0.864 0.589 1.010" stroke="hsl(180.0,100%,35%)" stroke-width="0.00161"></path>
<path d="M0.665 0.748 Q0.432 0.760 0.404 0.877" stroke="hsl(180.0,100%,35%)" stroke-width="0.00115"></path>
<path d="M0.665 0.748 Q0.698 0.796 0.799 0.791" stroke="hsl(180.0,100%,35%)" stroke-width="0.00023"></path>
<path d="M0.346 0.604 Q0.157 0.752 0.404 0.877" stroke="hsl(180.0,100%,35%)" stroke-width="0.00161"></path>
<path d="M0.346 0.604 Q0.143 0.855 0.589 1.010" stroke="hsl(180.0,100%,35%)" stroke-width="0.00069"></path>
<path d="M0.346 0.604 Q0.424 0.788 0.799 0.791" stroke="hsl(180.0,100%,35%)" stroke-width="0.00023"></path>
<path d="M0.427 0.724 Q0.280 0.899 0.589 1.010" stroke="hsl(180.0,100%,35%)" stroke-width="0.00415"></path>
<path d="M0.427 0.724 Q0.160 0.811 0.270 0.960" stroke="hsl(180.0,100%,35%)" stroke-width="0.00023"></path>
<path d="M0.427 0.724 Q0.123 0.765 0.136 0.923" stroke="hsl(180.0,100%,35%)" stroke-width="0.00023"></path>
<path d="M0.427 0.724 Q0.294 0.796 0.404 0.877" stroke="hsl(180.0,100%,35%)" stroke-width="0.00507"></path>
<path d="M0.427 0.724 Q0.169 0.777 0.215 0.914" stroke="hsl(180.0,100%,35%)" stroke-width="0.00023"></path>
<path d="M0.427 0.724 Q0.136 0.788 0.196 0.944" stroke="hsl(180.0,100%,35%)" stroke-width="0.00138"></path>
<path d="M0.121 0.878 Q0.250 1.037 0.589 1.010" stroke="hsl(180.0,100%,35%)" stroke-width="0.00115"></path>
<path d="M0.121 0.878 Q0.263 0.934 0.404 0.877" stroke="hsl(180.0,100%,35%)" stroke-width="0.00069"></path>
<path d="M0.121 0.878 Q0.974 0.773 0.956 0.334" stroke="hsl(180.0,100%,35%)" stroke-width="0.00023"></path>
<path d="M0.121 0.878 Q0.952 0.951 1.276 0.562" stroke="hsl(180.0,100%,35%)" stroke-width="0.00046"></path>
<path d="M0.121 0.878 Q0.811 1.013 1.226 0.706" stroke="hsl(180.0,100%,35%)" stroke-width="0.00023"></path>
<path d="M0.196 0.944 Q0.354 0.952 0.404 0.877" stroke="hsl(180.0,100%,35%)" stroke-width="0.01061"></path>
<path d="M0.196 0.944 Q0.340 1.055 0.589 1.010" stroke="hsl(180.0,100%,35%)" stroke-width="0.01223"></path>
<path d="M0.196 0.944 Q1.042 0.969 1.276 0.562" stroke="hsl(180.0,100%,35%)" stroke-width="0.00046"></path>
<path d="M0.196 0.944 Q0.415 0.829 0.238 0.697" stroke="hsl(180.0,100%,35%)" stroke-width="0.00046"></path>
<path d="M0.196 0.944 Q0.229 0.933 0.215 0.914" stroke="hsl(180.0,100%,35%)" stroke-width="0.00046"></path>
<path d="M0.196 0.944 Q0.543 0.787 0.312 0.584" stroke="hsl(180.0,100%,35%)" stroke-width="0.00023"></path>
<path d="M0.196 0.944 Q0.519 0.874 0.454 0.702" stroke="hsl(180.0,100%,35%)" stroke-width="0.00023"></path>
<path d="M0.196 0.944 Q1.112 1.136 1.686 0.731" stroke="hsl(180.0,100%,35%)" stroke-width="0.00046"></path>
<path d="M0.196 0.944 Q0.221 0.967 0.270 0.960" stroke="hsl(180.0,100%,35%)" stroke-width="0.00046"></path>
<path d="M0.196 0.944 Q1.064 0.791 0.956 0.334" stroke="hsl(180.0,100%,35%)" stroke-width="0.00046"></path>
<path d="M0.083 0.964 Q0.299 1.088 0.589 1.010" stroke="hsl(180.0,100%,35%)" stroke-width="0.00092"></path>
<path d="M0.083 0.964 Q0.156 0.977 0.196 0.944" stroke="hsl(180.0,100%,35%)" stroke-width="0.00069"></path>
<path d="M0.083 0.964 Q0.313 0.985 0.404 0.877" stroke="hsl(180.0,100%,35%)" stroke-width="0.00046"></path>
<path d="M0.083 0.964 Q0.580 1.020 0.799 0.791" stroke="hsl(180.0,100%,35%)" stroke-width="0.00046"></path>
<path d="M0.199 0.775 Q0.220 0.867 0.404 0.877" stroke="hsl(180.0,100%,35%)" stroke-width="0.00715"></path>
<path d="M0.199 0.775 Q0.206 0.970 0.589 1.010" stroke="hsl(180.0,100%,35%)" stroke-width="0.00807"></path>
<path d="M0.199 0.775 Q0.087 0.882 0.270 0.960" stroke="hsl(180.0,100%,35%)" stroke-width="0.00092"></path>
<path d="M0.199 0.775 Q0.062 0.859 0.196 0.944" stroke="hsl(180.0,100%,35%)" stroke-width="0.00138"></path>
<path d="M1.906 0.582 Q0.919 0.429 0.404 0.877" stroke="hsl(180.0,100%,35%)" stroke-width="0.00023"></path>
<path d="M1.906 0.582 Q1.714 0.666 1.835 0.778" stroke="hsl(180.0,100%,35%)" stroke-width="0.00023"></path>
<path d="M1.906 0.582 Q1.819 0.644 1.921 0.700" stroke="hsl(180.0,100%,35%)" stroke-width="0.00023"></path>
<path d="M0.312 0.584 Q0.110 0.852 0.589 1.010" stroke="hsl(180.0,100%,35%)" stroke-width="0.00208"></path>
<path d="M0.312 0.584 Q-0.034 0.741 0.196 0.944" stroke="hsl(180.0,100%,35%)" stroke-width="0.00046"></path>
<path d="M0.312 0.584 Q0.124 0.748 0.404 0.877" stroke="hsl(180.0,100%,35%)" stroke-width="0.00208"></path>
<path d="M0.312 0.584 Q-0.010 0.763 0.270 0.960" stroke="hsl(180.0,100%,35%)" stroke-width="0.00046"></path>
<path d="M0.454 0.702 Q0.156 0.794 0.270 0.960" stroke="hsl(180.0,100%,35%)" stroke-width="0.00115"></path>
<path d="M0.454 0.702 Q0.580 0.658 0.521 0.587" stroke="hsl(180.0,100%,35%)" stroke-width="0.00023"></path>
<path d="M0.454 0.702 Q0.289 0.779 0.404 0.877" stroke="hsl(180.0,100%,35%)" stroke-width="0.00392"></path>
<path d="M0.454 0.702 Q0.275 0.883 0.589 1.010" stroke="hsl(180.0,100%,35%)" stroke-width="0.00277"></path>
<path d="M0.454 0.702 Q0.131 0.771 0.196 0.944" stroke="hsl(180.0,100%,35%)" stroke-width="0.00046"></path>
<path d="M0.454 0.702 Q0.977 0.796 1.276 0.562" stroke="hsl(180.0,100%,35%)" stroke-width="0.00023"></path>
<path d="M0.636 0.703 Q0.381 0.744 0.404 0.877" stroke="hsl(180.0,100%,35%)" stroke-width="0.00115"></path>
<path d="M0.636 0.703 Q0.367 0.847 0.589 1.010" stroke="hsl(180.0,100%,35%)" stroke-width="0.00115"></path>
<path d="M0.636 0.703 Q0.223 0.736 0.196 0.944" stroke="hsl(180.0,100%,35%)" stroke-width="0.00023"></path>
<path d="M0.146 0.672 Q0.112 0.826 0.404 0.877" stroke="hsl(180.0,100%,35%)" stroke-width="0.00277"></path>
<path d="M0.146 0.672 Q0.098 0.930 0.589 1.010" stroke="hsl(180.0,100%,35%)" stroke-width="0.00231"></path>
<path d="M0.146 0.672 Q0.428 0.593 0.334 0.438" stroke="hsl(180.0,100%,35%)" stroke-width="0.00023"></path>
<path d="M0.146 0.672 Q-0.046 0.818 0.196 0.944" stroke="hsl(180.0,100%,35%)" stroke-width="0.00069"></path>
<path d="M1.109 0.245 Q0.961 0.259 0.956 0.334" stroke="hsl(180.0,100%,35%)" stroke-width="0.00023"></path>
<path d="M1.109 0.245 Q0.251 0.420 0.404 0.877" stroke="hsl(180.0,100%,35%)" stroke-width="0.00046"></path>
<path d="M1.109 0.245 Q0.118 0.435 0.270 0.960" stroke="hsl(180.0,100%,35%)" stroke-width="0.00023"></path>
<path d="M1.109 0.245 Q0.237 0.523 0.589 1.010" stroke="hsl(180.0,100%,35%)" stroke-width="0.00023"></path>
<path d="M0.255 0.483 Q0.001 0.813 0.589 1.010" stroke="hsl(180.0,100%,35%)" stroke-width="0.00069"></path>
<path d="M0.255 0.483 Q0.076 0.587 0.238 0.697" stroke="hsl(180.0,100%,35%)" stroke-width="0.00046"></path>
<path d="M0.255 0.483 Q0.015 0.710 0.404 0.877" stroke="hsl(180.0,100%,35%)" stroke-width="0.00023"></path>
<path d="M0.877 0.917 Q0.673 0.802 0.404 0.877" stroke="hsl(180.0,100%,35%)" stroke-width="0.00138"></path>
<path d="M0.877 0.917 Q0.659 0.905 0.589 1.010" stroke="hsl(180.0,100%,35%)" stroke-width="0.00092"></path>
<path d="M0.877 0.917 Q0.539 0.817 0.270 0.960" stroke="hsl(180.0,100%,35%)" stroke-width="0.00023"></path>
<path d="M0.447 -0.811 Q-0.215 -0.137 0.956 0.334" stroke="hsl(180.0,100%,35%)" stroke-width="0.00046"></path>
<path d="M0.447 -0.811 Q-0.925 0.024 0.404 0.877" stroke="hsl(180.0,100%,35%)" stroke-width="0.00046"></path>
<path d="M0.447 -0.811 Q-0.237 0.041 1.276 0.562" stroke="hsl(180.0,100%,35%)" stroke-width="0.00023"></path>
<path d="M0.550 0.271 Q-0.022 0.648 0.589 1.010" stroke="hsl(180.0,100%,35%)" stroke-width="0.00046"></path>
<path d="M0.550 0.271 Q0.125 0.473 0.427 0.724" stroke="hsl(180.0,100%,35%)" stroke-width="0.00023"></path>
<path d="M0.550 0.271 Q-0.166 0.537 0.196 0.944" stroke="hsl(180.0,100%,35%)" stroke-width="0.00069"></path>
<path d="M0.550 0.271 Q-0.008 0.544 0.404 0.877" stroke="hsl(180.0,100%,35%)" stroke-width="0.00069"></path>
</g>
<text x="0.995" y="0.436" font-size="0.018358" fill="hsl(0.0,100%,20%)">afdx</text>
<text x="0.956" y="0.315" font-size="0.037822" fill="hsl(0.0,100%,20%)">rharrison</text>
<text x="1.276" y="0.510" font-size="0.102278" fill="hsl(0.0,100%,20%)">bclayton</text>
<text x="0.875" y="0.627" font-size="0.056734" fill="hsl(0.0,100%,20%)">amaiorano</text>
<text x="1.366" y="0.853" font-size="0.011431" fill="hsl(0.0,100%,20%)">vasniktel</text>
<text x="0.949" y="0.789" font-size="0.005245" fill="hsl(180.0,100%,20%)">aleksi</text>
<text x="0.404" y="0.842" font-size="0.070223" fill="hsl(180.0,100%,20%)">cwallez</text>
<text x="0.589" y="0.976" font-size="0.067323" fill="hsl(180.0,100%,20%)">enga</text>
<text x="1.176" y="0.382" font-size="0.062336" fill="hsl(0.0,100%,20%)">jrprice</text>
<text x="1.226" y="0.679" font-size="0.052777" fill="hsl(0.0,100%,20%)">dneto</text>
<text x="0.215" y="0.898" font-size="0.031251" fill="hsl(180.0,100%,20%)">bajones</text>
<text x="0.238" y="0.684" font-size="0.026225" fill="hsl(180.0,100%,20%)">lokokung</text>
<text x="0.136" y="0.914" font-size="0.018358" fill="hsl(180.0,100%,20%)">shrekshao</text>
<text x="0.270" y="0.947" font-size="0.026094" fill="hsl(180.0,100%,20%)">kainino</text>
<text x="1.686" y="0.715" font-size="0.031904" fill="hsl(180.0,100%,20%)">senorblanco</text>
<text x="1.014" y="0.708" font-size="0.021305" fill="hsl(0.0,100%,20%)">sarahmashay</text>
<text x="1.548" y="0.968" font-size="0.004542" fill="hsl(0.0,100%,20%)">allydonaldson</text>
<text x="0.603" y="0.881" font-size="0.016586" fill="hsl(180.0,100%,20%)">brandon1.jones</text>
<text x="1.415" y="0.651" font-size="0.016378" fill="hsl(0.0,100%,20%)">alanbaker</text>
<text x="0.643" y="0.717" font-size="0.007418" fill="hsl(180.0,100%,20%)">beaufort.francois</text>
<text x="0.665" y="0.743" font-size="0.010490" fill="hsl(180.0,100%,20%)">bryan.bernhart</text>
<text x="0.799" y="0.787" font-size="0.006424" fill="hsl(180.0,100%,20%)">rafael.cintron</text>
<text x="0.346" y="0.600" font-size="0.008698" fill="hsl(180.0,100%,20%)">cjj19970505</text>
<text x="0.427" y="0.715" font-size="0.019092" fill="hsl(180.0,100%,20%)">hao.x.li</text>
<text x="0.138" y="0.816" font-size="0.002623" fill="hsl(180.0,100%,20%)">fbeaufort</text>
<text x="0.121" y="0.873" font-size="0.009456" fill="hsl(180.0,100%,20%)">rockot</text>
<text x="0.196" y="0.927" font-size="0.033890" fill="hsl(180.0,100%,20%)">jiawei.shao</text>
<text x="0.083" y="0.959" font-size="0.009085" fill="hsl(180.0,100%,20%)">jiajia.qin</text>
<text x="1.921" y="0.698" font-size="0.003709" fill="hsl(180.0,100%,20%)">thakis</text>
<text x="0.410" y="0.342" font-size="0.002623" fill="hsl(180.0,100%,20%)">hob</text>
<text x="0.199" y="0.763" font-size="0.023603" fill="hsl(180.0,100%,20%)">yunchao.he</text>
<text x="1.906" y="0.579" font-size="0.004542" fill="hsl(180.0,100%,20%)">hans</text>
<text x="1.835" y="0.776" font-size="0.002623" fill="hsl(180.0,100%,20%)">hwennborg</text>
<text x="0.312" y="0.577" font-size="0.012577" fill="hsl(180.0,100%,20%)">shaobo.yan</text>
<text x="0.454" y="0.693" font-size="0.016378" fill="hsl(180.0,100%,20%)">zhaoming.jiang</text>
<text x="0.636" y="0.699" font-size="0.008698" fill="hsl(180.0,100%,20%)">jie.a.chen</text>
<text x="0.146" y="0.666" font-size="0.013372" fill="hsl(180.0,100%,20%)">junwei.fu</text>
<text x="0.334" y="0.437" font-size="0.002623" fill="hsl(180.0,100%,20%)">ningxin.hu</text>
<text x="1.109" y="0.242" font-size="0.005864" fill="hsl(180.0,100%,20%)">pkasting</text>
<text x="0.682" y="0.355" font-size="0.004542" fill="hsl(0.0,100%,20%)">jmadill</text>
<text x="0.255" y="0.480" font-size="0.006424" fill="hsl(180.0,100%,20%)">sunnyps</text>
<text x="0.877" y="0.912" font-size="0.008698" fill="hsl(180.0,100%,20%)">tangm</text>
<text x="0.447" y="-0.814" font-size="0.005864" fill="hsl(180.0,100%,20%)">vadimsh</text>
<text x="0.550" y="0.267" font-size="0.007868" fill="hsl(180.0,100%,20%)">yang.gu</text>
<text x="0.521" y="0.585" font-size="0.002623" fill="hsl(180.0,100%,20%)">ynovikov</text>
</svg>
