<svg width="4000" height="2000" viewBox="-0.025 -0.025 2.05 1.05" xmlns="http://www.w3.org/2000/svg">
  <style>
    path {
      fill: none;
      stroke-linecap: round;
      stroke-opacity: 0.4;
    }

    text {
      text-anchor: middle;
      alignment-baseline: hanging;
    }
  </style>
  <g opacity="0.4">
<path d="M0.337 0.087 Q0.417 0.164 0.586 0.142" stroke="hsl(0.0,100%,35%)" stroke-width="0.00122"></path>
<path d="M0.337 0.087 Q0.554 0.564 1.534 0.563" stroke="hsl(0.0,100%,35%)" stroke-width="0.00122"></path>
<path d="M0.337 0.087 Q0.520 0.138 0.660 0.059" stroke="hsl(0.0,100%,35%)" stroke-width="0.00367"></path>
<path d="M0.586 0.142 Q0.689 0.116 0.660 0.059" stroke="hsl(0.0,100%,35%)" stroke-width="0.02695"></path>
<path d="M0.586 0.142 Q0.869 0.629 1.883 0.598" stroke="hsl(0.0,100%,35%)" stroke-width="0.00122"></path>
<path d="M0.586 0.142 Q0.066 0.426 0.505 0.741" stroke="hsl(0.0,100%,35%)" stroke-width="0.00612"></path>
<path d="M0.586 0.142 Q0.751 0.685 1.846 0.724" stroke="hsl(0.0,100%,35%)" stroke-width="0.00122"></path>
<path d="M1.534 0.563 Q1.718 0.562 1.757 0.472" stroke="hsl(0.0,100%,35%)" stroke-width="0.03062"></path>
<path d="M1.534 0.563 Q0.877 0.447 0.505 0.741" stroke="hsl(0.0,100%,35%)" stroke-width="0.00367"></path>
<path d="M1.534 0.563 Q1.180 0.275 0.541 0.385" stroke="hsl(0.0,100%,35%)" stroke-width="0.00122"></path>
<path d="M1.534 0.563 Q1.190 0.652 1.288 0.839" stroke="hsl(0.0,100%,35%)" stroke-width="0.00122"></path>
<path d="M1.534 0.563 Q1.562 0.706 1.846 0.724" stroke="hsl(0.0,100%,35%)" stroke-width="0.00612"></path>
<path d="M1.534 0.563 Q1.652 0.233 1.032 0.102" stroke="hsl(0.0,100%,35%)" stroke-width="0.00490"></path>
<path d="M1.534 0.563 Q1.736 0.380 1.423 0.241" stroke="hsl(0.0,100%,35%)" stroke-width="0.00122"></path>
<path d="M1.534 0.563 Q1.680 0.651 1.883 0.598" stroke="hsl(0.0,100%,35%)" stroke-width="0.00857"></path>
<path d="M1.534 0.563 Q0.715 0.509 0.428 0.896" stroke="hsl(0.0,100%,35%)" stroke-width="0.00122"></path>
<path d="M1.534 0.563 Q1.479 0.230 0.816 0.183" stroke="hsl(0.0,100%,35%)" stroke-width="0.00122"></path>
<path d="M0.660 0.059 Q0.037 0.369 0.505 0.741" stroke="hsl(0.0,100%,35%)" stroke-width="0.00367"></path>
<path d="M0.660 0.059 Q0.477 0.008 0.337 0.087" stroke="hsl(0.0,100%,35%)" stroke-width="0.00122"></path>
<path d="M0.660 0.059 Q0.039 0.171 0.121 0.498" stroke="hsl(0.0,100%,35%)" stroke-width="0.00122"></path>
<path d="M0.660 0.059 Q0.557 0.086 0.586 0.142" stroke="hsl(0.0,100%,35%)" stroke-width="0.00367"></path>
<path d="M1.484 0.418 Q1.093 0.428 1.026 0.620" stroke="hsl(0.0,100%,35%)" stroke-width="0.00122"></path>
<path d="M1.484 0.418 Q0.861 0.319 0.531 0.601" stroke="hsl(0.0,100%,35%)" stroke-width="0.00612"></path>
<path d="M1.484 0.418 Q1.420 0.643 1.846 0.724" stroke="hsl(0.0,100%,35%)" stroke-width="0.00367"></path>
<path d="M1.484 0.418 Q1.577 0.500 1.757 0.472" stroke="hsl(0.0,100%,35%)" stroke-width="0.00245"></path>
<path d="M1.484 0.418 Q0.574 0.446 0.428 0.896" stroke="hsl(0.0,100%,35%)" stroke-width="0.00245"></path>
<path d="M1.484 0.418 Q1.392 0.501 1.534 0.563" stroke="hsl(0.0,100%,35%)" stroke-width="0.00245"></path>
<path d="M1.484 0.418 Q0.736 0.384 0.505 0.741" stroke="hsl(0.0,100%,35%)" stroke-width="0.00122"></path>
<path d="M1.026 0.620 Q0.793 0.511 0.531 0.601" stroke="hsl(0.0,100%,35%)" stroke-width="0.01225"></path>
<path d="M1.026 0.620 Q1.353 0.836 1.846 0.724" stroke="hsl(0.0,100%,35%)" stroke-width="0.00490"></path>
<path d="M1.026 0.620 Q0.506 0.639 0.428 0.896" stroke="hsl(0.0,100%,35%)" stroke-width="0.00122"></path>
<path d="M1.026 0.620 Q1.472 0.780 1.883 0.598" stroke="hsl(0.0,100%,35%)" stroke-width="0.00245"></path>
<path d="M1.026 0.620 Q1.416 0.611 1.484 0.418" stroke="hsl(0.0,100%,35%)" stroke-width="0.00490"></path>
<path d="M0.531 0.601 Q0.408 0.468 0.121 0.498" stroke="hsl(0.0,100%,35%)" stroke-width="0.00122"></path>
<path d="M0.531 0.601 Q1.090 0.925 1.846 0.724" stroke="hsl(0.0,100%,35%)" stroke-width="0.00857"></path>
<path d="M0.531 0.601 Q1.181 0.452 1.032 0.102" stroke="hsl(0.0,100%,35%)" stroke-width="0.00245"></path>
<path d="M0.531 0.601 Q0.243 0.728 0.428 0.896" stroke="hsl(0.0,100%,35%)" stroke-width="0.00122"></path>
<path d="M0.531 0.601 Q0.763 0.709 1.026 0.620" stroke="hsl(0.0,100%,35%)" stroke-width="0.00612"></path>
<path d="M0.531 0.601 Q0.405 0.666 0.505 0.741" stroke="hsl(0.0,100%,35%)" stroke-width="0.00122"></path>
<path d="M0.531 0.601 Q1.029 0.356 0.660 0.059" stroke="hsl(0.0,100%,35%)" stroke-width="0.00122"></path>
<path d="M0.531 0.601 Q1.062 0.783 1.534 0.563" stroke="hsl(0.0,100%,35%)" stroke-width="0.00122"></path>
<path d="M0.531 0.601 Q1.209 0.870 1.883 0.598" stroke="hsl(0.0,100%,35%)" stroke-width="0.00367"></path>
<path d="M0.531 0.601 Q1.153 0.700 1.484 0.418" stroke="hsl(0.0,100%,35%)" stroke-width="0.00857"></path>
<path d="M1.846 0.724 Q0.999 0.526 0.428 0.896" stroke="hsl(0.0,100%,35%)" stroke-width="0.00980"></path>
<path d="M1.846 0.724 Q1.965 0.668 1.883 0.598" stroke="hsl(0.0,100%,35%)" stroke-width="0.03552"></path>
<path d="M1.846 0.724 Q1.936 0.250 1.032 0.102" stroke="hsl(0.0,100%,35%)" stroke-width="0.00122"></path>
<path d="M1.846 0.724 Q1.723 0.674 1.598 0.723" stroke="hsl(0.0,100%,35%)" stroke-width="0.00612"></path>
<path d="M1.846 0.724 Q1.161 0.464 0.505 0.741" stroke="hsl(0.0,100%,35%)" stroke-width="0.00612"></path>
<path d="M1.846 0.724 Q1.287 0.399 0.531 0.601" stroke="hsl(0.0,100%,35%)" stroke-width="0.01470"></path>
<path d="M1.846 0.724 Q1.763 0.247 0.816 0.183" stroke="hsl(0.0,100%,35%)" stroke-width="0.00245"></path>
<path d="M1.846 0.724 Q1.909 0.498 1.484 0.418" stroke="hsl(0.0,100%,35%)" stroke-width="0.00735"></path>
<path d="M1.846 0.724 Q1.818 0.581 1.534 0.563" stroke="hsl(0.0,100%,35%)" stroke-width="0.01592"></path>
<path d="M1.846 0.724 Q2.003 0.580 1.757 0.472" stroke="hsl(0.0,100%,35%)" stroke-width="0.00490"></path>
<path d="M1.846 0.724 Q1.519 0.508 1.026 0.620" stroke="hsl(0.0,100%,35%)" stroke-width="0.00122"></path>
<path d="M1.846 0.724 Q1.598 0.757 1.608 0.885" stroke="hsl(0.0,100%,35%)" stroke-width="0.00122"></path>
<path d="M1.846 0.724 Q2.091 0.506 1.719 0.339" stroke="hsl(0.0,100%,35%)" stroke-width="0.00122"></path>
<path d="M1.846 0.724 Q1.785 0.154 0.660 0.059" stroke="hsl(0.0,100%,35%)" stroke-width="0.00122"></path>
<path d="M1.846 0.724 Q1.139 0.372 0.297 0.640" stroke="hsl(0.0,100%,35%)" stroke-width="0.00122"></path>
<path d="M1.757 0.472 Q1.572 0.473 1.534 0.563" stroke="hsl(0.0,100%,35%)" stroke-width="0.00367"></path>
<path d="M1.757 0.472 Q0.754 0.418 0.428 0.896" stroke="hsl(0.0,100%,35%)" stroke-width="0.00735"></path>
<path d="M1.757 0.472 Q1.845 0.398 1.719 0.339" stroke="hsl(0.0,100%,35%)" stroke-width="0.01102"></path>
<path d="M1.757 0.472 Q0.915 0.356 0.505 0.741" stroke="hsl(0.0,100%,35%)" stroke-width="0.00122"></path>
<path d="M1.757 0.472 Q1.691 0.142 1.032 0.102" stroke="hsl(0.0,100%,35%)" stroke-width="0.00245"></path>
<path d="M1.757 0.472 Q0.893 0.264 0.297 0.640" stroke="hsl(0.0,100%,35%)" stroke-width="0.00122"></path>
<path d="M1.757 0.472 Q1.518 0.139 0.816 0.183" stroke="hsl(0.0,100%,35%)" stroke-width="0.00122"></path>
<path d="M1.757 0.472 Q1.719 0.560 1.883 0.598" stroke="hsl(0.0,100%,35%)" stroke-width="0.00122"></path>
<path d="M1.757 0.472 Q1.041 0.291 0.531 0.601" stroke="hsl(0.0,100%,35%)" stroke-width="0.00245"></path>
<path d="M0.428 0.896 Q1.394 1.038 1.883 0.598" stroke="hsl(0.0,100%,35%)" stroke-width="0.00367"></path>
<path d="M0.428 0.896 Q1.247 0.951 1.534 0.563" stroke="hsl(0.0,100%,35%)" stroke-width="0.00245"></path>
<path d="M0.428 0.896 Q1.365 0.620 1.032 0.102" stroke="hsl(0.0,100%,35%)" stroke-width="0.00122"></path>
<path d="M0.428 0.896 Q0.716 0.769 0.531 0.601" stroke="hsl(0.0,100%,35%)" stroke-width="0.00122"></path>
<path d="M0.428 0.896 Q0.904 1.039 1.288 0.839" stroke="hsl(0.0,100%,35%)" stroke-width="0.00122"></path>
<path d="M0.428 0.896 Q1.338 0.868 1.484 0.418" stroke="hsl(0.0,100%,35%)" stroke-width="0.00245"></path>
<path d="M0.428 0.896 Q1.432 0.950 1.757 0.472" stroke="hsl(0.0,100%,35%)" stroke-width="0.00245"></path>
<path d="M0.505 0.741 Q1.025 0.458 0.586 0.142" stroke="hsl(0.0,100%,35%)" stroke-width="0.00245"></path>
<path d="M0.505 0.741 Q0.630 0.676 0.531 0.601" stroke="hsl(0.0,100%,35%)" stroke-width="0.01837"></path>
<path d="M0.505 0.741 Q0.507 0.543 0.121 0.498" stroke="hsl(0.0,100%,35%)" stroke-width="0.01592"></path>
<path d="M0.505 0.741 Q0.808 0.570 0.541 0.385" stroke="hsl(0.0,100%,35%)" stroke-width="0.00245"></path>
<path d="M0.505 0.741 Q0.343 0.803 0.428 0.896" stroke="hsl(0.0,100%,35%)" stroke-width="0.00245"></path>
<path d="M0.505 0.741 Q0.482 0.649 0.297 0.640" stroke="hsl(0.0,100%,35%)" stroke-width="0.02327"></path>
<path d="M0.505 0.741 Q1.434 0.783 1.719 0.339" stroke="hsl(0.0,100%,35%)" stroke-width="0.00122"></path>
<path d="M0.505 0.741 Q1.190 1.001 1.846 0.724" stroke="hsl(0.0,100%,35%)" stroke-width="0.00612"></path>
<path d="M0.505 0.741 Q0.818 0.947 1.288 0.839" stroke="hsl(0.0,100%,35%)" stroke-width="0.00122"></path>
<path d="M0.505 0.741 Q1.364 0.675 1.423 0.241" stroke="hsl(0.0,100%,35%)" stroke-width="0.00122"></path>
<path d="M0.505 0.741 Q1.162 0.858 1.534 0.563" stroke="hsl(0.0,100%,35%)" stroke-width="0.00122"></path>
<path d="M0.505 0.741 Q1.253 0.776 1.484 0.418" stroke="hsl(0.0,100%,35%)" stroke-width="0.00735"></path>
<path d="M0.505 0.741 Q1.280 0.527 1.032 0.102" stroke="hsl(0.0,100%,35%)" stroke-width="0.00122"></path>
<path d="M0.505 0.741 Q1.128 0.432 0.660 0.059" stroke="hsl(0.0,100%,35%)" stroke-width="0.00122"></path>
<path d="M0.121 0.498 Q0.422 0.525 0.541 0.385" stroke="hsl(0.0,100%,35%)" stroke-width="0.00367"></path>
<path d="M0.121 0.498 Q0.742 0.387 0.660 0.059" stroke="hsl(0.0,100%,35%)" stroke-width="0.00490"></path>
<path d="M0.121 0.498 Q0.118 0.697 0.505 0.741" stroke="hsl(0.0,100%,35%)" stroke-width="0.00735"></path>
<path d="M0.121 0.498 Q0.960 0.813 1.757 0.472" stroke="hsl(0.0,100%,35%)" stroke-width="0.00122"></path>
<path d="M0.121 0.498 Q-0.044 0.759 0.428 0.896" stroke="hsl(0.0,100%,35%)" stroke-width="0.00122"></path>
<path d="M0.121 0.498 Q0.096 0.604 0.297 0.640" stroke="hsl(0.0,100%,35%)" stroke-width="0.00367"></path>
<path d="M1.467 0.481 Q1.525 0.453 1.484 0.418" stroke="hsl(0.0,100%,35%)" stroke-width="0.00245"></path>
<path d="M1.467 0.481 Q1.434 0.536 1.534 0.563" stroke="hsl(0.0,100%,35%)" stroke-width="0.00122"></path>
<path d="M1.467 0.481 Q0.615 0.481 0.428 0.896" stroke="hsl(0.0,100%,35%)" stroke-width="0.00122"></path>
<path d="M1.883 0.598 Q1.538 0.570 1.408 0.732" stroke="hsl(0.0,100%,35%)" stroke-width="0.00245"></path>
<path d="M1.883 0.598 Q1.921 0.510 1.757 0.472" stroke="hsl(0.0,100%,35%)" stroke-width="0.00245"></path>
<path d="M1.883 0.598 Q1.393 0.600 1.288 0.839" stroke="hsl(0.0,100%,35%)" stroke-width="0.00367"></path>
<path d="M1.883 0.598 Q1.764 0.654 1.846 0.724" stroke="hsl(0.0,100%,35%)" stroke-width="0.01347"></path>
<path d="M1.883 0.598 Q1.204 0.329 0.531 0.601" stroke="hsl(0.0,100%,35%)" stroke-width="0.00245"></path>
<path d="M1.883 0.598 Q1.939 0.328 1.423 0.241" stroke="hsl(0.0,100%,35%)" stroke-width="0.00122"></path>
<path d="M1.883 0.598 Q0.917 0.456 0.428 0.896" stroke="hsl(0.0,100%,35%)" stroke-width="0.00245"></path>
<path d="M1.883 0.598 Q1.827 0.428 1.484 0.418" stroke="hsl(0.0,100%,35%)" stroke-width="0.01470"></path>
<path d="M1.883 0.598 Q1.437 0.438 1.026 0.620" stroke="hsl(0.0,100%,35%)" stroke-width="0.00122"></path>
<path d="M1.032 0.102 Q1.020 -0.008 0.803 -0.026" stroke="hsl(180.0,100%,35%)" stroke-width="0.00122"></path>
<path d="M1.032 0.102 Q0.859 0.099 0.816 0.183" stroke="hsl(180.0,100%,35%)" stroke-width="0.03185"></path>
<path d="M1.032 0.102 Q1.061 0.520 1.883 0.598" stroke="hsl(180.0,100%,35%)" stroke-width="0.00367"></path>
<path d="M1.032 0.102 Q0.942 0.576 1.846 0.724" stroke="hsl(180.0,100%,35%)" stroke-width="0.00122"></path>
<path d="M1.032 0.102 Q1.187 0.358 1.719 0.339" stroke="hsl(180.0,100%,35%)" stroke-width="0.00245"></path>
<path d="M0.807 0.505 Q1.229 0.238 0.803 -0.026" stroke="hsl(0.0,100%,35%)" stroke-width="0.00122"></path>
<path d="M0.807 0.505 Q0.466 0.563 0.505 0.741" stroke="hsl(0.0,100%,35%)" stroke-width="0.00245"></path>
<path d="M0.807 0.505 Q0.304 0.625 0.428 0.896" stroke="hsl(0.0,100%,35%)" stroke-width="0.00122"></path>
<path d="M1.719 0.339 Q1.649 0.231 1.423 0.241" stroke="hsl(0.0,100%,35%)" stroke-width="0.00245"></path>
<path d="M1.719 0.339 Q1.631 0.413 1.757 0.472" stroke="hsl(0.0,100%,35%)" stroke-width="0.00245"></path>
<path d="M1.719 0.339 Q1.594 0.501 1.883 0.598" stroke="hsl(0.0,100%,35%)" stroke-width="0.00245"></path>
<path d="M1.719 0.339 Q1.475 0.557 1.846 0.724" stroke="hsl(0.0,100%,35%)" stroke-width="0.00122"></path>
<path d="M1.719 0.339 Q1.351 0.507 1.598 0.723" stroke="hsl(0.0,100%,35%)" stroke-width="0.00245"></path>
<path d="M1.719 0.339 Q0.628 0.359 0.428 0.896" stroke="hsl(0.0,100%,35%)" stroke-width="0.00122"></path>
<path d="M0.200 0.860 Q1.071 0.552 0.660 0.059" stroke="hsl(0.0,100%,35%)" stroke-width="0.00122"></path>
<path d="M0.200 0.860 Q0.257 0.801 0.154 0.760" stroke="hsl(0.0,100%,35%)" stroke-width="0.00122"></path>
<path d="M0.200 0.860 Q0.447 0.862 0.505 0.741" stroke="hsl(0.0,100%,35%)" stroke-width="0.00122"></path>
<path d="M0.200 0.860 Q0.285 0.924 0.428 0.896" stroke="hsl(0.0,100%,35%)" stroke-width="0.00122"></path>
<path d="M1.598 0.723 Q1.879 0.629 1.757 0.472" stroke="hsl(0.0,100%,35%)" stroke-width="0.00367"></path>
<path d="M1.598 0.723 Q0.875 0.576 0.428 0.896" stroke="hsl(0.0,100%,35%)" stroke-width="0.00367"></path>
<path d="M1.598 0.723 Q1.966 0.555 1.719 0.339" stroke="hsl(0.0,100%,35%)" stroke-width="0.00122"></path>
<path d="M1.598 0.723 Q1.785 0.548 1.484 0.418" stroke="hsl(0.0,100%,35%)" stroke-width="0.00122"></path>
<path d="M1.598 0.723 Q1.039 0.315 0.121 0.498" stroke="hsl(0.0,100%,35%)" stroke-width="0.00122"></path>
<path d="M1.598 0.723 Q1.660 0.204 0.660 0.059" stroke="hsl(0.0,100%,35%)" stroke-width="0.00122"></path>
<path d="M1.177 0.277 Q1.273 0.579 1.883 0.598" stroke="hsl(0.0,100%,35%)" stroke-width="0.00122"></path>
<path d="M1.177 0.277 Q1.000 0.255 0.916 0.336" stroke="hsl(0.0,100%,35%)" stroke-width="0.00122"></path>
<path d="M1.177 0.277 Q1.011 0.334 1.085 0.427" stroke="hsl(0.0,100%,35%)" stroke-width="0.00122"></path>
<path d="M1.023 0.760 Q0.779 0.647 0.505 0.741" stroke="hsl(0.0,100%,35%)" stroke-width="0.00122"></path>
<path d="M1.023 0.760 Q1.463 0.906 1.846 0.724" stroke="hsl(0.0,100%,35%)" stroke-width="0.00122"></path>
<path d="M1.023 0.760 Q1.402 0.337 0.660 0.059" stroke="hsl(0.0,100%,35%)" stroke-width="0.00122"></path>
<path d="M1.414 0.926 Q1.111 0.746 0.694 0.855" stroke="hsl(0.0,100%,35%)" stroke-width="0.00122"></path>
<path d="M1.414 0.926 Q1.764 0.769 1.534 0.563" stroke="hsl(0.0,100%,35%)" stroke-width="0.00122"></path>
<path d="M1.414 0.926 Q1.252 0.896 1.157 0.969" stroke="hsl(0.0,100%,35%)" stroke-width="0.00122"></path>
</g>
<text x="0.337" y="0.079" font-size="0.015762" fill="hsl(0.0,100%,20%)">aixba</text>
<text x="0.586" y="0.123" font-size="0.038069" fill="hsl(0.0,100%,20%)">cjamcl</text>
<text x="1.534" y="0.536" font-size="0.055355" fill="hsl(0.0,100%,20%)">dsv</text>
<text x="0.660" y="0.038" font-size="0.042196" fill="hsl(0.0,100%,20%)">paulirish</text>
<text x="1.484" y="0.394" font-size="0.048154" fill="hsl(0.0,100%,20%)">alexrudenko</text>
<text x="1.026" y="0.603" font-size="0.034653" fill="hsl(0.0,100%,20%)">wolfi</text>
<text x="0.531" y="0.573" font-size="0.056098" fill="hsl(0.0,100%,20%)">ergunsh</text>
<text x="1.846" y="0.687" font-size="0.073086" fill="hsl(0.0,100%,20%)">nvitkov</text>
<text x="1.757" y="0.446" font-size="0.052672" fill="hsl(0.0,100%,20%)">pfaffe</text>
<text x="0.428" y="0.875" font-size="0.042196" fill="hsl(0.0,100%,20%)">szuend</text>
<text x="0.505" y="0.709" font-size="0.064026" fill="hsl(0.0,100%,20%)">jacktfranklin</text>
<text x="0.121" y="0.479" font-size="0.037522" fill="hsl(0.0,100%,20%)">andoli</text>
<text x="0.541" y="0.377" font-size="0.015762" fill="hsl(0.0,100%,20%)">nancyly</text>
<text x="0.297" y="0.624" font-size="0.031524" fill="hsl(0.0,100%,20%)">alinavarkki</text>
<text x="1.467" y="0.475" font-size="0.012870" fill="hsl(0.0,100%,20%)">apavlov</text>
<text x="1.883" y="0.568" font-size="0.060365" fill="hsl(0.0,100%,20%)">bmeurer</text>
<text x="1.408" y="0.727" font-size="0.009100" fill="hsl(0.0,100%,20%)">mathias</text>
<text x="1.288" y="0.831" font-size="0.015762" fill="hsl(0.0,100%,20%)">yangguo</text>
<text x="1.423" y="0.234" font-size="0.014389" fill="hsl(0.0,100%,20%)">changhaohan</text>
<text x="1.032" y="0.081" font-size="0.042684" fill="hsl(180.0,100%,20%)">kimanh</text>
<text x="0.816" y="0.166" font-size="0.035245" fill="hsl(180.0,100%,20%)">kprokopenko</text>
<text x="0.807" y="0.498" font-size="0.012870" fill="hsl(0.0,100%,20%)">hocheung</text>
<text x="0.803" y="-0.031" font-size="0.009100" fill="hsl(180.0,100%,20%)">asraine</text>
<text x="1.719" y="0.323" font-size="0.031524" fill="hsl(0.0,100%,20%)">leese</text>
<text x="0.200" y="0.854" font-size="0.012870" fill="hsl(0.0,100%,20%)">jaysonchen</text>
<text x="0.154" y="0.757" font-size="0.006435" fill="hsl(0.0,100%,20%)">rob.paveza</text>
<text x="1.598" y="0.710" font-size="0.026532" fill="hsl(0.0,100%,20%)">liviurau</text>
<text x="1.177" y="0.272" font-size="0.011146" fill="hsl(0.0,100%,20%)">monicach</text>
<text x="0.916" y="0.333" font-size="0.006435" fill="hsl(0.0,100%,20%)">sisidovski</text>
<text x="1.085" y="0.424" font-size="0.006435" fill="hsl(0.0,100%,20%)">yyanagisawa</text>
<text x="1.608" y="0.882" font-size="0.006435" fill="hsl(0.0,100%,20%)">victorporof</text>
<text x="1.023" y="0.754" font-size="0.011146" fill="hsl(0.0,100%,20%)">petrcermak</text>
<text x="1.414" y="0.921" font-size="0.011146" fill="hsl(0.0,100%,20%)">robertlin</text>
<text x="0.694" y="0.852" font-size="0.006435" fill="hsl(0.0,100%,20%)">domenic</text>
<text x="1.157" y="0.966" font-size="0.006435" fill="hsl(0.0,100%,20%)">kenoss</text>
</svg>
