<svg width="4000" height="2000" viewBox="-0.025 -0.025 2.05 1.05" xmlns="http://www.w3.org/2000/svg">
  <style>
    path {
      fill: none;
      stroke-linecap: round;
      stroke-opacity: 0.4;
    }

    text {
      text-anchor: middle;
      alignment-baseline: hanging;
    }
  </style>
  <g opacity="0.4">
<path d="M0.935 0.872 Q1.003 0.805 0.887 0.757" stroke="hsl(0.0,100%,35%)" stroke-width="0.03051"></path>
<path d="M0.935 0.872 Q1.645 0.670 1.407 0.280" stroke="hsl(0.0,100%,35%)" stroke-width="0.02593"></path>
<path d="M0.935 0.872 Q1.354 0.505 0.730 0.220" stroke="hsl(0.0,100%,35%)" stroke-width="0.00305"></path>
<path d="M0.935 0.872 Q0.795 0.866 0.754 0.933" stroke="hsl(0.0,100%,35%)" stroke-width="0.00305"></path>
<path d="M0.935 0.872 Q1.376 0.846 1.422 0.625" stroke="hsl(0.0,100%,35%)" stroke-width="0.00305"></path>
<path d="M0.935 0.872 Q0.931 0.955 1.091 0.975" stroke="hsl(0.0,100%,35%)" stroke-width="0.00305"></path>
<path d="M0.935 0.872 Q1.519 0.538 0.995 0.179" stroke="hsl(0.0,100%,35%)" stroke-width="0.00305"></path>
<path d="M0.935 0.872 Q0.742 0.727 0.416 0.789" stroke="hsl(0.0,100%,35%)" stroke-width="0.00305"></path>
<path d="M0.935 0.872 Q0.959 0.713 0.655 0.667" stroke="hsl(0.0,100%,35%)" stroke-width="0.00153"></path>
<path d="M0.887 0.757 Q1.529 0.622 1.407 0.280" stroke="hsl(0.0,100%,35%)" stroke-width="0.02899"></path>
<path d="M0.887 0.757 Q1.238 0.457 0.730 0.220" stroke="hsl(0.0,100%,35%)" stroke-width="0.00153"></path>
<path d="M0.887 0.757 Q0.819 0.824 0.935 0.872" stroke="hsl(0.0,100%,35%)" stroke-width="0.00458"></path>
<path d="M0.730 0.220 Q0.311 0.587 0.935 0.872" stroke="hsl(0.0,100%,35%)" stroke-width="0.00458"></path>
<path d="M0.730 0.220 Q0.671 0.317 0.847 0.366" stroke="hsl(0.0,100%,35%)" stroke-width="0.01068"></path>
<path d="M0.730 0.220 Q0.751 0.561 1.422 0.625" stroke="hsl(0.0,100%,35%)" stroke-width="0.00305"></path>
<path d="M0.730 0.220 Q0.895 0.253 0.995 0.179" stroke="hsl(0.0,100%,35%)" stroke-width="0.00305"></path>
<path d="M0.730 0.220 Q0.578 0.186 0.479 0.253" stroke="hsl(0.0,100%,35%)" stroke-width="0.00915"></path>
<path d="M0.730 0.220 Q0.118 0.442 0.416 0.789" stroke="hsl(0.0,100%,35%)" stroke-width="0.00153"></path>
<path d="M0.730 0.220 Q-0.129 0.476 0.184 0.952" stroke="hsl(0.0,100%,35%)" stroke-width="0.00153"></path>
<path d="M0.730 0.220 Q0.536 0.387 0.818 0.518" stroke="hsl(0.0,100%,35%)" stroke-width="0.00305"></path>
<path d="M0.730 0.220 Q1.021 0.385 1.407 0.280" stroke="hsl(0.0,100%,35%)" stroke-width="0.00305"></path>
<path d="M0.730 0.220 Q0.379 0.520 0.887 0.757" stroke="hsl(0.0,100%,35%)" stroke-width="0.00153"></path>
<path d="M0.754 0.933 Q0.893 0.939 0.935 0.872" stroke="hsl(0.0,100%,35%)" stroke-width="0.01220"></path>
<path d="M0.754 0.933 Q0.700 0.793 0.416 0.789" stroke="hsl(0.0,100%,35%)" stroke-width="0.00305"></path>
<path d="M0.754 0.933 Q1.312 0.572 0.730 0.220" stroke="hsl(0.0,100%,35%)" stroke-width="0.00305"></path>
<path d="M0.754 0.933 Q1.334 0.913 1.422 0.625" stroke="hsl(0.0,100%,35%)" stroke-width="0.00153"></path>
<path d="M0.754 0.933 Q1.118 0.738 0.818 0.518" stroke="hsl(0.0,100%,35%)" stroke-width="0.00305"></path>
<path d="M1.422 0.625 Q1.400 0.284 0.730 0.220" stroke="hsl(0.0,100%,35%)" stroke-width="0.00763"></path>
<path d="M1.422 0.625 Q0.981 0.651 0.935 0.872" stroke="hsl(0.0,100%,35%)" stroke-width="0.01373"></path>
<path d="M1.422 0.625 Q1.049 0.584 0.887 0.757" stroke="hsl(0.0,100%,35%)" stroke-width="0.00458"></path>
<path d="M1.422 0.625 Q1.336 0.667 1.400 0.718" stroke="hsl(0.0,100%,35%)" stroke-width="0.00153"></path>
<path d="M1.422 0.625 Q1.616 0.632 1.673 0.539" stroke="hsl(0.0,100%,35%)" stroke-width="0.00153"></path>
<path d="M1.422 0.625 Q0.977 0.734 1.091 0.975" stroke="hsl(0.0,100%,35%)" stroke-width="0.00153"></path>
<path d="M1.091 0.975 Q1.514 0.525 0.730 0.220" stroke="hsl(0.0,100%,35%)" stroke-width="0.00153"></path>
<path d="M1.091 0.975 Q1.163 0.825 0.887 0.757" stroke="hsl(0.0,100%,35%)" stroke-width="0.00458"></path>
<path d="M1.091 0.975 Q1.095 0.892 0.935 0.872" stroke="hsl(0.0,100%,35%)" stroke-width="0.00763"></path>
<path d="M1.091 0.975 Q1.363 0.492 0.479 0.253" stroke="hsl(0.0,100%,35%)" stroke-width="0.00305"></path>
<path d="M1.091 0.975 Q1.536 0.866 1.422 0.625" stroke="hsl(0.0,100%,35%)" stroke-width="0.00763"></path>
<path d="M1.091 0.975 Q1.679 0.558 0.995 0.179" stroke="hsl(0.0,100%,35%)" stroke-width="0.00153"></path>
<path d="M1.091 0.975 Q1.320 0.692 0.818 0.518" stroke="hsl(0.0,100%,35%)" stroke-width="0.00153"></path>
<path d="M0.416 0.789 Q0.362 0.865 0.499 0.908" stroke="hsl(180.0,100%,35%)" stroke-width="0.01831"></path>
<path d="M0.416 0.789 Q1.028 0.567 0.730 0.220" stroke="hsl(180.0,100%,35%)" stroke-width="0.00458"></path>
<path d="M0.416 0.789 Q0.852 1.045 1.448 0.889" stroke="hsl(180.0,100%,35%)" stroke-width="0.01373"></path>
<path d="M0.416 0.789 Q1.319 0.733 1.407 0.280" stroke="hsl(180.0,100%,35%)" stroke-width="0.00305"></path>
<path d="M0.416 0.789 Q0.609 0.934 0.935 0.872" stroke="hsl(180.0,100%,35%)" stroke-width="0.01526"></path>
<path d="M0.416 0.789 Q1.050 0.908 1.422 0.625" stroke="hsl(180.0,100%,35%)" stroke-width="0.00305"></path>
<path d="M0.416 0.789 Q0.969 0.664 0.847 0.366" stroke="hsl(180.0,100%,35%)" stroke-width="0.00153"></path>
<path d="M0.416 0.789 Q1.047 1.056 1.707 0.806" stroke="hsl(180.0,100%,35%)" stroke-width="0.00153"></path>
<path d="M0.416 0.789 Q0.605 1.017 1.091 0.975" stroke="hsl(180.0,100%,35%)" stroke-width="0.00458"></path>
<path d="M0.416 0.789 Q0.915 0.437 0.338 0.116" stroke="hsl(180.0,100%,35%)" stroke-width="0.00153"></path>
<path d="M0.416 0.789 Q0.406 0.734 0.298 0.727" stroke="hsl(180.0,100%,35%)" stroke-width="0.00305"></path>
<path d="M0.614 0.970 Q0.606 0.916 0.499 0.908" stroke="hsl(180.0,100%,35%)" stroke-width="0.00305"></path>
<path d="M0.614 0.970 Q1.272 0.618 0.730 0.220" stroke="hsl(180.0,100%,35%)" stroke-width="0.00153"></path>
<path d="M0.614 0.970 Q0.921 0.918 0.887 0.757" stroke="hsl(180.0,100%,35%)" stroke-width="0.00153"></path>
<path d="M0.479 0.253 Q0.169 0.368 0.325 0.544" stroke="hsl(0.0,100%,35%)" stroke-width="0.00153"></path>
<path d="M0.479 0.253 Q0.280 0.586 0.887 0.757" stroke="hsl(0.0,100%,35%)" stroke-width="0.00305"></path>
<path d="M0.479 0.253 Q0.212 0.654 0.935 0.872" stroke="hsl(0.0,100%,35%)" stroke-width="0.00610"></path>
<path d="M0.479 0.253 Q0.631 0.287 0.730 0.220" stroke="hsl(0.0,100%,35%)" stroke-width="0.00610"></path>
<path d="M0.479 0.253 Q0.922 0.452 1.407 0.280" stroke="hsl(0.0,100%,35%)" stroke-width="0.01068"></path>
<path d="M0.479 0.253 Q0.437 0.453 0.818 0.518" stroke="hsl(0.0,100%,35%)" stroke-width="0.00153"></path>
<path d="M0.479 0.253 Q0.455 0.765 1.448 0.889" stroke="hsl(0.0,100%,35%)" stroke-width="0.00153"></path>
<path d="M0.479 0.253 Q-0.227 0.543 0.184 0.952" stroke="hsl(0.0,100%,35%)" stroke-width="0.00153"></path>
<path d="M0.325 0.544 Q0.809 0.804 1.422 0.625" stroke="hsl(0.0,100%,35%)" stroke-width="0.00305"></path>
<path d="M0.325 0.544 Q0.593 0.630 0.818 0.518" stroke="hsl(0.0,100%,35%)" stroke-width="0.00610"></path>
<path d="M0.325 0.544 Q0.175 0.685 0.416 0.789" stroke="hsl(0.0,100%,35%)" stroke-width="0.00153"></path>
<path d="M0.325 0.544 Q0.635 0.430 0.479 0.253" stroke="hsl(0.0,100%,35%)" stroke-width="0.00153"></path>
<path d="M0.325 0.544 Q0.368 0.830 0.935 0.872" stroke="hsl(0.0,100%,35%)" stroke-width="0.00153"></path>
<path d="M0.325 0.544 Q0.436 0.763 0.887 0.757" stroke="hsl(0.0,100%,35%)" stroke-width="0.00153"></path>
<path d="M0.325 0.544 Q0.611 0.941 1.448 0.889" stroke="hsl(0.0,100%,35%)" stroke-width="0.00153"></path>
<path d="M0.818 0.518 Q0.550 0.433 0.325 0.544" stroke="hsl(0.0,100%,35%)" stroke-width="0.01983"></path>
<path d="M0.818 0.518 Q0.593 0.718 0.935 0.872" stroke="hsl(0.0,100%,35%)" stroke-width="0.00305"></path>
<path d="M0.818 0.518 Q0.983 0.547 1.076 0.474" stroke="hsl(0.0,100%,35%)" stroke-width="0.00153"></path>
<path d="M0.818 0.518 Q1.034 0.692 1.422 0.625" stroke="hsl(0.0,100%,35%)" stroke-width="0.00458"></path>
<path d="M0.818 0.518 Q0.861 0.318 0.479 0.253" stroke="hsl(0.0,100%,35%)" stroke-width="0.00458"></path>
<path d="M0.818 0.518 Q0.589 0.801 1.091 0.975" stroke="hsl(0.0,100%,35%)" stroke-width="0.00305"></path>
<path d="M1.448 0.889 Q1.644 0.900 1.707 0.806" stroke="hsl(180.0,100%,35%)" stroke-width="0.02136"></path>
<path d="M1.448 0.889 Q1.012 0.633 0.416 0.789" stroke="hsl(180.0,100%,35%)" stroke-width="0.01220"></path>
<path d="M1.448 0.889 Q1.066 0.772 0.754 0.933" stroke="hsl(180.0,100%,35%)" stroke-width="0.00153"></path>
<path d="M0.847 0.366 Q1.071 0.302 0.995 0.179" stroke="hsl(0.0,100%,35%)" stroke-width="0.00305"></path>
<path d="M0.847 0.366 Q0.555 0.570 0.887 0.757" stroke="hsl(0.0,100%,35%)" stroke-width="0.00153"></path>
<path d="M0.847 0.366 Q0.487 0.637 0.935 0.872" stroke="hsl(0.0,100%,35%)" stroke-width="0.00458"></path>
<path d="M0.847 0.366 Q0.906 0.270 0.730 0.220" stroke="hsl(0.0,100%,35%)" stroke-width="0.00305"></path>
<path d="M1.422 0.384 Q1.207 0.164 0.730 0.220" stroke="hsl(0.0,100%,35%)" stroke-width="0.00458"></path>
<path d="M1.422 0.384 Q1.498 0.329 1.407 0.280" stroke="hsl(0.0,100%,35%)" stroke-width="0.00610"></path>
<path d="M1.422 0.384 Q0.788 0.531 0.935 0.872" stroke="hsl(0.0,100%,35%)" stroke-width="0.00153"></path>
<path d="M1.400 0.718 Q1.485 0.676 1.422 0.625" stroke="hsl(0.0,100%,35%)" stroke-width="0.03966"></path>
<path d="M1.400 0.718 Q1.044 0.702 0.935 0.872" stroke="hsl(0.0,100%,35%)" stroke-width="0.00610"></path>
<path d="M1.400 0.718 Q1.269 0.502 0.818 0.518" stroke="hsl(0.0,100%,35%)" stroke-width="0.00153"></path>
<path d="M0.338 0.116 Q-0.215 0.544 0.499 0.908" stroke="hsl(180.0,100%,35%)" stroke-width="0.00153"></path>
<path d="M0.338 0.116 Q0.275 0.725 1.448 0.889" stroke="hsl(180.0,100%,35%)" stroke-width="0.00153"></path>
<path d="M0.338 0.116 Q0.257 0.100 0.207 0.136" stroke="hsl(180.0,100%,35%)" stroke-width="0.00305"></path>
<path d="M1.763 0.660 Q1.620 0.574 1.422 0.625" stroke="hsl(0.0,100%,35%)" stroke-width="0.00305"></path>
<path d="M1.763 0.660 Q1.175 0.683 1.091 0.975" stroke="hsl(0.0,100%,35%)" stroke-width="0.00458"></path>
<path d="M1.763 0.660 Q1.814 0.581 1.673 0.539" stroke="hsl(0.0,100%,35%)" stroke-width="0.00305"></path>
<path d="M1.763 0.660 Q0.932 0.531 0.499 0.908" stroke="hsl(0.0,100%,35%)" stroke-width="0.00305"></path>
<path d="M1.763 0.660 Q1.179 0.600 0.935 0.872" stroke="hsl(0.0,100%,35%)" stroke-width="0.00153"></path>
<path d="M0.258 0.939 Q0.211 0.931 0.184 0.952" stroke="hsl(0.0,100%,35%)" stroke-width="0.00153"></path>
<path d="M0.258 0.939 Q0.607 0.755 0.325 0.544" stroke="hsl(0.0,100%,35%)" stroke-width="0.00153"></path>
<path d="M0.258 0.939 Q0.875 0.841 0.818 0.518" stroke="hsl(0.0,100%,35%)" stroke-width="0.00153"></path>
<path d="M0.258 0.939 Q0.447 0.841 0.298 0.727" stroke="hsl(0.0,100%,35%)" stroke-width="0.00153"></path>
<path d="M1.172 0.536 Q1.494 0.455 1.407 0.280" stroke="hsl(0.0,100%,35%)" stroke-width="0.00153"></path>
<path d="M1.172 0.536 Q0.853 0.589 0.887 0.757" stroke="hsl(0.0,100%,35%)" stroke-width="0.00305"></path>
<path d="M1.172 0.536 Q0.785 0.656 0.935 0.872" stroke="hsl(0.0,100%,35%)" stroke-width="0.00153"></path>
<path d="M1.172 0.536 Q1.204 0.289 0.730 0.220" stroke="hsl(0.0,100%,35%)" stroke-width="0.00153"></path>
<path d="M1.172 0.536 Q1.225 0.630 1.422 0.625" stroke="hsl(0.0,100%,35%)" stroke-width="0.00153"></path>
</g>
<text x="0.935" y="0.833" font-size="0.077130" fill="hsl(0.0,100%,20%)">alexrudenko</text>
<text x="0.887" y="0.728" font-size="0.056828" fill="hsl(0.0,100%,20%)">szuend</text>
<text x="1.407" y="0.253" font-size="0.054279" fill="hsl(0.0,100%,20%)">pfaffe</text>
<text x="0.730" y="0.193" font-size="0.054279" fill="hsl(0.0,100%,20%)">dsv</text>
<text x="0.754" y="0.917" font-size="0.031935" fill="hsl(0.0,100%,20%)">wolfi</text>
<text x="1.422" y="0.595" font-size="0.061150" fill="hsl(0.0,100%,20%)">ergunsh</text>
<text x="1.091" y="0.955" font-size="0.040535" fill="hsl(0.0,100%,20%)">nvitkov</text>
<text x="0.995" y="0.169" font-size="0.019915" fill="hsl(0.0,100%,20%)">leese</text>
<text x="0.416" y="0.760" font-size="0.058305" fill="hsl(180.0,100%,20%)">jacktfranklin</text>
<text x="0.655" y="0.663" font-size="0.007527" fill="hsl(0.0,100%,20%)">liviurau</text>
<text x="0.614" y="0.963" font-size="0.015054" fill="hsl(180.0,100%,20%)">alphonsea</text>
<text x="0.499" y="0.892" font-size="0.031035" fill="hsl(180.0,100%,20%)">alinavarkki</text>
<text x="0.479" y="0.231" font-size="0.043240" fill="hsl(0.0,100%,20%)">bmeurer</text>
<text x="0.325" y="0.525" font-size="0.038381" fill="hsl(0.0,100%,20%)">kimanh</text>
<text x="0.818" y="0.495" font-size="0.045163" fill="hsl(0.0,100%,20%)">kprokopenko</text>
<text x="1.448" y="0.867" font-size="0.044531" fill="hsl(180.0,100%,20%)">cjamcl</text>
<text x="0.184" y="0.945" font-size="0.013037" fill="hsl(0.0,100%,20%)">yangguo</text>
<text x="0.847" y="0.351" font-size="0.030108" fill="hsl(0.0,100%,20%)">changhaohan</text>
<text x="1.707" y="0.792" font-size="0.029152" fill="hsl(180.0,100%,20%)">paulirish</text>
<text x="1.422" y="0.373" font-size="0.021290" fill="hsl(0.0,100%,20%)">clarej</text>
<text x="1.400" y="0.697" font-size="0.042580" fill="hsl(0.0,100%,20%)">samiyac</text>
<text x="1.673" y="0.532" font-size="0.013037" fill="hsl(0.0,100%,20%)">piotrpaulski</text>
<text x="0.338" y="0.108" font-size="0.016831" fill="hsl(180.0,100%,20%)">finnur</text>
<text x="0.207" y="0.130" font-size="0.010645" fill="hsl(180.0,100%,20%)">andoli</text>
<text x="0.298" y="0.721" font-size="0.013037" fill="hsl(180.0,100%,20%)">mathias</text>
<text x="1.076" y="0.470" font-size="0.007527" fill="hsl(0.0,100%,20%)">victorporof</text>
<text x="1.763" y="0.648" font-size="0.023803" fill="hsl(0.0,100%,20%)">nharshunova</text>
<text x="0.258" y="0.932" font-size="0.015054" fill="hsl(0.0,100%,20%)">semel</text>
<text x="1.172" y="0.526" font-size="0.018438" fill="hsl(0.0,100%,20%)">vzaidman</text>
</svg>
