<svg width="4000" height="2000" viewBox="-0.025 -0.025 2.05 1.05" xmlns="http://www.w3.org/2000/svg">
  <style>
    path {
      fill: none;
      stroke-linecap: round;
      stroke-opacity: 0.4;
    }

    text {
      text-anchor: middle;
      alignment-baseline: hanging;
    }
  </style>
  <g opacity="0.4">
<path d="M1.342 0.140 Q1.534 0.162 1.619 0.073" stroke="hsl(0.0,100%,35%)" stroke-width="0.00987"></path>
<path d="M1.342 0.140 Q0.907 0.239 1.005 0.473" stroke="hsl(0.0,100%,35%)" stroke-width="0.00164"></path>
<path d="M1.342 0.140 Q1.137 0.144 1.099 0.245" stroke="hsl(0.0,100%,35%)" stroke-width="0.00329"></path>
<path d="M1.342 0.140 Q1.126 0.310 1.411 0.453" stroke="hsl(0.0,100%,35%)" stroke-width="0.00329"></path>
<path d="M1.342 0.140 Q1.196 0.203 1.286 0.288" stroke="hsl(0.0,100%,35%)" stroke-width="0.00329"></path>
<path d="M1.342 0.140 Q0.390 0.121 0.143 0.581" stroke="hsl(0.0,100%,35%)" stroke-width="0.00164"></path>
<path d="M1.342 0.140 Q1.235 0.385 1.689 0.491" stroke="hsl(0.0,100%,35%)" stroke-width="0.00164"></path>
<path d="M1.342 0.140 Q0.854 0.398 1.251 0.693" stroke="hsl(0.0,100%,35%)" stroke-width="0.00164"></path>
<path d="M1.342 0.140 Q0.489 0.030 0.087 0.423" stroke="hsl(0.0,100%,35%)" stroke-width="0.00164"></path>
<path d="M1.619 0.073 Q1.427 0.051 1.342 0.140" stroke="hsl(0.0,100%,35%)" stroke-width="0.02961"></path>
<path d="M1.619 0.073 Q1.221 0.055 1.099 0.245" stroke="hsl(0.0,100%,35%)" stroke-width="0.03783"></path>
<path d="M1.619 0.073 Q0.573 -0.058 0.087 0.423" stroke="hsl(0.0,100%,35%)" stroke-width="0.00164"></path>
<path d="M1.619 0.073 Q1.281 0.114 1.286 0.288" stroke="hsl(0.0,100%,35%)" stroke-width="0.00329"></path>
<path d="M1.619 0.073 Q0.560 0.171 0.519 0.708" stroke="hsl(0.0,100%,35%)" stroke-width="0.00164"></path>
<path d="M1.619 0.073 Q0.474 0.032 0.143 0.581" stroke="hsl(0.0,100%,35%)" stroke-width="0.00164"></path>
<path d="M1.005 0.473 Q1.440 0.374 1.342 0.140" stroke="hsl(180.0,100%,35%)" stroke-width="0.00329"></path>
<path d="M1.005 0.473 Q0.775 0.413 0.607 0.513" stroke="hsl(180.0,100%,35%)" stroke-width="0.01480"></path>
<path d="M1.005 0.473 Q1.097 0.830 1.812 0.863" stroke="hsl(180.0,100%,35%)" stroke-width="0.00329"></path>
<path d="M1.005 0.473 Q0.407 0.488 0.306 0.783" stroke="hsl(180.0,100%,35%)" stroke-width="0.00493"></path>
<path d="M1.099 0.245 Q1.408 0.301 1.586 0.163" stroke="hsl(0.0,100%,35%)" stroke-width="0.00658"></path>
<path d="M1.099 0.245 Q0.816 0.499 1.251 0.693" stroke="hsl(0.0,100%,35%)" stroke-width="0.00164"></path>
<path d="M1.099 0.245 Q1.304 0.241 1.342 0.140" stroke="hsl(0.0,100%,35%)" stroke-width="0.02303"></path>
<path d="M1.099 0.245 Q1.158 0.304 1.286 0.288" stroke="hsl(0.0,100%,35%)" stroke-width="0.02632"></path>
<path d="M1.099 0.245 Q0.961 0.696 1.812 0.863" stroke="hsl(0.0,100%,35%)" stroke-width="0.00493"></path>
<path d="M1.099 0.245 Q1.088 0.411 1.411 0.453" stroke="hsl(0.0,100%,35%)" stroke-width="0.00164"></path>
<path d="M1.099 0.245 Q1.496 0.263 1.619 0.073" stroke="hsl(0.0,100%,35%)" stroke-width="0.00164"></path>
<path d="M1.099 0.245 Q0.352 0.222 0.143 0.581" stroke="hsl(0.0,100%,35%)" stroke-width="0.00493"></path>
<path d="M1.411 0.453 Q0.773 0.173 0.087 0.423" stroke="hsl(180.0,100%,35%)" stroke-width="0.00329"></path>
<path d="M1.411 0.453 Q0.674 0.263 0.143 0.581" stroke="hsl(180.0,100%,35%)" stroke-width="0.00987"></path>
<path d="M1.411 0.453 Q1.627 0.283 1.342 0.140" stroke="hsl(180.0,100%,35%)" stroke-width="0.00164"></path>
<path d="M1.411 0.453 Q1.731 0.343 1.586 0.163" stroke="hsl(180.0,100%,35%)" stroke-width="0.00164"></path>
<path d="M1.286 0.288 Q1.465 0.369 1.661 0.299" stroke="hsl(0.0,100%,35%)" stroke-width="0.00822"></path>
<path d="M1.286 0.288 Q1.217 0.395 1.411 0.453" stroke="hsl(0.0,100%,35%)" stroke-width="0.00822"></path>
<path d="M1.286 0.288 Q0.767 0.264 0.607 0.513" stroke="hsl(0.0,100%,35%)" stroke-width="0.00164"></path>
<path d="M1.286 0.288 Q1.277 0.104 0.916 0.068" stroke="hsl(0.0,100%,35%)" stroke-width="0.00329"></path>
<path d="M1.286 0.288 Q0.480 0.206 0.143 0.581" stroke="hsl(0.0,100%,35%)" stroke-width="0.00493"></path>
<path d="M1.286 0.288 Q0.579 0.115 0.087 0.423" stroke="hsl(0.0,100%,35%)" stroke-width="0.00164"></path>
<path d="M1.286 0.288 Q1.227 0.229 1.099 0.245" stroke="hsl(0.0,100%,35%)" stroke-width="0.00493"></path>
<path d="M1.251 0.693 Q0.786 0.415 0.143 0.581" stroke="hsl(180.0,100%,35%)" stroke-width="0.00164"></path>
<path d="M1.251 0.693 Q0.885 0.325 0.087 0.423" stroke="hsl(180.0,100%,35%)" stroke-width="0.00164"></path>
<path d="M1.251 0.693 Q1.073 0.474 0.607 0.513" stroke="hsl(180.0,100%,35%)" stroke-width="0.00329"></path>
<path d="M0.087 0.423 Q-0.012 0.513 0.143 0.581" stroke="hsl(180.0,100%,35%)" stroke-width="0.01809"></path>
<path d="M0.087 0.423 Q0.941 0.532 1.342 0.140" stroke="hsl(180.0,100%,35%)" stroke-width="0.01151"></path>
<path d="M0.087 0.423 Q1.044 0.592 1.586 0.163" stroke="hsl(180.0,100%,35%)" stroke-width="0.00164"></path>
<path d="M0.087 0.423 Q0.735 0.536 1.099 0.245" stroke="hsl(180.0,100%,35%)" stroke-width="0.00822"></path>
<path d="M0.087 0.423 Q0.505 0.631 1.005 0.473" stroke="hsl(180.0,100%,35%)" stroke-width="0.00164"></path>
<path d="M0.087 0.423 Q0.453 0.790 1.251 0.693" stroke="hsl(180.0,100%,35%)" stroke-width="0.00329"></path>
<path d="M0.087 0.423 Q0.795 0.595 1.286 0.288" stroke="hsl(180.0,100%,35%)" stroke-width="0.00493"></path>
<path d="M0.087 0.423 Q0.074 0.652 0.519 0.708" stroke="hsl(180.0,100%,35%)" stroke-width="0.00164"></path>
<path d="M0.087 0.423 Q0.639 0.910 1.712 0.748" stroke="hsl(180.0,100%,35%)" stroke-width="0.00329"></path>
<path d="M0.087 0.423 Q0.269 0.347 0.161 0.242" stroke="hsl(180.0,100%,35%)" stroke-width="0.00164"></path>
<path d="M0.087 0.423 Q0.275 0.571 0.607 0.513" stroke="hsl(180.0,100%,35%)" stroke-width="0.01151"></path>
<path d="M0.087 0.423 Q0.269 0.443 0.347 0.359" stroke="hsl(180.0,100%,35%)" stroke-width="0.00164"></path>
<path d="M0.087 0.423 Q1.132 0.554 1.619 0.073" stroke="hsl(180.0,100%,35%)" stroke-width="0.00493"></path>
<path d="M0.607 0.513 Q0.837 0.573 1.005 0.473" stroke="hsl(180.0,100%,35%)" stroke-width="0.00822"></path>
<path d="M0.607 0.513 Q1.126 0.536 1.286 0.288" stroke="hsl(180.0,100%,35%)" stroke-width="0.00329"></path>
<path d="M0.607 0.513 Q1.273 0.473 1.342 0.140" stroke="hsl(180.0,100%,35%)" stroke-width="0.00329"></path>
<path d="M0.607 0.513 Q0.595 0.594 0.752 0.619" stroke="hsl(180.0,100%,35%)" stroke-width="0.00164"></path>
<path d="M0.607 0.513 Q0.979 0.692 1.411 0.550" stroke="hsl(180.0,100%,35%)" stroke-width="0.00329"></path>
<path d="M0.607 0.513 Q0.320 0.454 0.143 0.581" stroke="hsl(180.0,100%,35%)" stroke-width="0.00822"></path>
<path d="M0.607 0.513 Q0.419 0.364 0.087 0.423" stroke="hsl(180.0,100%,35%)" stroke-width="0.00164"></path>
<path d="M0.607 0.513 Q1.263 0.616 1.609 0.319" stroke="hsl(180.0,100%,35%)" stroke-width="0.00164"></path>
<path d="M0.607 0.513 Q0.406 0.593 0.519 0.708" stroke="hsl(180.0,100%,35%)" stroke-width="0.00164"></path>
<path d="M0.607 0.513 Q1.057 0.643 1.411 0.453" stroke="hsl(180.0,100%,35%)" stroke-width="0.00164"></path>
<path d="M1.812 0.863 Q1.203 0.388 0.143 0.581" stroke="hsl(180.0,100%,35%)" stroke-width="0.00164"></path>
<path d="M1.812 0.863 Q1.854 0.786 1.712 0.748" stroke="hsl(180.0,100%,35%)" stroke-width="0.00822"></path>
<path d="M1.812 0.863 Q1.940 0.578 1.411 0.453" stroke="hsl(180.0,100%,35%)" stroke-width="0.00329"></path>
<path d="M1.812 0.863 Q1.490 0.447 0.607 0.513" stroke="hsl(180.0,100%,35%)" stroke-width="0.00164"></path>
<path d="M0.299 0.439 Q0.624 0.597 1.005 0.473" stroke="hsl(180.0,100%,35%)" stroke-width="0.00164"></path>
<path d="M0.299 0.439 Q0.107 0.479 0.143 0.581" stroke="hsl(180.0,100%,35%)" stroke-width="0.00329"></path>
<path d="M0.299 0.439 Q0.854 0.502 1.099 0.245" stroke="hsl(180.0,100%,35%)" stroke-width="0.00164"></path>
<path d="M1.586 0.163 Q1.276 0.106 1.099 0.245" stroke="hsl(0.0,100%,35%)" stroke-width="0.00493"></path>
<path d="M1.586 0.163 Q0.994 0.361 1.251 0.693" stroke="hsl(0.0,100%,35%)" stroke-width="0.00164"></path>
<path d="M1.586 0.163 Q1.472 0.245 1.609 0.319" stroke="hsl(0.0,100%,35%)" stroke-width="0.00164"></path>
<path d="M1.586 0.163 Q1.482 0.103 1.342 0.140" stroke="hsl(0.0,100%,35%)" stroke-width="0.01645"></path>
<path d="M1.586 0.163 Q1.139 0.558 1.812 0.863" stroke="hsl(0.0,100%,35%)" stroke-width="0.00164"></path>
<path d="M1.586 0.163 Q0.529 0.083 0.143 0.581" stroke="hsl(0.0,100%,35%)" stroke-width="0.00658"></path>
<path d="M1.586 0.163 Q1.336 0.165 1.286 0.288" stroke="hsl(0.0,100%,35%)" stroke-width="0.00658"></path>
<path d="M1.609 0.319 Q1.511 0.421 1.689 0.491" stroke="hsl(0.0,100%,35%)" stroke-width="0.00164"></path>
<path d="M1.609 0.319 Q0.765 0.067 0.087 0.423" stroke="hsl(0.0,100%,35%)" stroke-width="0.00164"></path>
<path d="M1.609 0.319 Q1.722 0.236 1.586 0.163" stroke="hsl(0.0,100%,35%)" stroke-width="0.00164"></path>
<path d="M0.752 0.619 Q0.994 0.597 1.005 0.473" stroke="hsl(180.0,100%,35%)" stroke-width="0.00164"></path>
<path d="M0.752 0.619 Q0.563 0.617 0.519 0.708" stroke="hsl(180.0,100%,35%)" stroke-width="0.00164"></path>
<path d="M0.752 0.619 Q0.764 0.537 0.607 0.513" stroke="hsl(180.0,100%,35%)" stroke-width="0.00164"></path>
<path d="M0.752 0.619 Q1.322 0.742 1.689 0.491" stroke="hsl(180.0,100%,35%)" stroke-width="0.00164"></path>
<path d="M0.519 0.708 Q0.720 0.628 0.607 0.513" stroke="hsl(180.0,100%,35%)" stroke-width="0.00164"></path>
<path d="M0.519 0.708 Q0.352 0.703 0.306 0.783" stroke="hsl(180.0,100%,35%)" stroke-width="0.00822"></path>
<path d="M0.519 0.708 Q1.417 0.732 1.661 0.299" stroke="hsl(180.0,100%,35%)" stroke-width="0.00164"></path>
<path d="M0.519 0.708 Q0.432 0.570 0.143 0.581" stroke="hsl(180.0,100%,35%)" stroke-width="0.00164"></path>
<path d="M0.519 0.708 Q0.707 0.710 0.752 0.619" stroke="hsl(180.0,100%,35%)" stroke-width="0.00164"></path>
<path d="M0.519 0.708 Q1.169 0.759 1.411 0.453" stroke="hsl(180.0,100%,35%)" stroke-width="0.00164"></path>
<path d="M1.411 0.550 Q1.705 0.331 1.342 0.140" stroke="hsl(180.0,100%,35%)" stroke-width="0.00164"></path>
<path d="M1.411 0.550 Q1.489 0.502 1.411 0.453" stroke="hsl(180.0,100%,35%)" stroke-width="0.01974"></path>
<path d="M1.411 0.550 Q0.851 0.222 0.087 0.423" stroke="hsl(180.0,100%,35%)" stroke-width="0.00164"></path>
<path d="M1.411 0.550 Q1.217 0.590 1.251 0.693" stroke="hsl(180.0,100%,35%)" stroke-width="0.00658"></path>
<path d="M0.161 0.242 Q0.833 0.427 1.342 0.140" stroke="hsl(180.0,100%,35%)" stroke-width="0.00164"></path>
<path d="M0.161 0.242 Q0.617 0.597 1.411 0.453" stroke="hsl(180.0,100%,35%)" stroke-width="0.00329"></path>
<path d="M0.161 0.242 Q-0.119 0.408 0.143 0.581" stroke="hsl(180.0,100%,35%)" stroke-width="0.00329"></path>
<path d="M0.161 0.242 Q-0.020 0.318 0.087 0.423" stroke="hsl(180.0,100%,35%)" stroke-width="0.00164"></path>
<path d="M0.702 0.180 Q0.908 0.351 1.286 0.288" stroke="hsl(0.0,100%,35%)" stroke-width="0.00164"></path>
<path d="M0.702 0.180 Q0.849 0.292 1.099 0.245" stroke="hsl(0.0,100%,35%)" stroke-width="0.00329"></path>
<path d="M0.702 0.180 Q0.101 0.269 0.143 0.581" stroke="hsl(0.0,100%,35%)" stroke-width="0.00164"></path>
</g>
<text x="1.342" y="0.105" font-size="0.069301" fill="hsl(0.0,100%,20%)">alexrudenko</text>
<text x="1.619" y="0.043" font-size="0.060698" fill="hsl(0.0,100%,20%)">liviurau</text>
<text x="1.005" y="0.453" font-size="0.040555" fill="hsl(180.0,100%,20%)">alinavarkki</text>
<text x="1.099" y="0.208" font-size="0.073449" fill="hsl(0.0,100%,20%)">szuend</text>
<text x="1.411" y="0.428" font-size="0.048666" fill="hsl(180.0,100%,20%)">ergunsh</text>
<text x="1.286" y="0.259" font-size="0.057354" fill="hsl(0.0,100%,20%)">pfaffe</text>
<text x="0.143" y="0.555" font-size="0.052566" fill="hsl(180.0,100%,20%)">dsv</text>
<text x="1.689" y="0.484" font-size="0.014049" fill="hsl(0.0,100%,20%)">mathias</text>
<text x="1.251" y="0.678" font-size="0.029245" fill="hsl(180.0,100%,20%)">wolfi</text>
<text x="0.087" y="0.392" font-size="0.060153" fill="hsl(180.0,100%,20%)">nvitkov</text>
<text x="0.607" y="0.486" font-size="0.053188" fill="hsl(180.0,100%,20%)">jacktfranklin</text>
<text x="1.812" y="0.847" font-size="0.031414" fill="hsl(180.0,100%,20%)">kimanh</text>
<text x="0.306" y="0.772" font-size="0.022942" fill="hsl(180.0,100%,20%)">cjamcl</text>
<text x="0.299" y="0.431" font-size="0.016222" fill="hsl(180.0,100%,20%)">alphonsea</text>
<text x="1.586" y="0.140" font-size="0.045161" fill="hsl(0.0,100%,20%)">bmeurer</text>
<text x="1.609" y="0.310" font-size="0.018137" fill="hsl(0.0,100%,20%)">yangguo</text>
<text x="0.752" y="0.609" font-size="0.019868" fill="hsl(180.0,100%,20%)">finnur</text>
<text x="0.519" y="0.693" font-size="0.030349" fill="hsl(180.0,100%,20%)">paulirish</text>
<text x="1.411" y="0.532" font-size="0.036274" fill="hsl(180.0,100%,20%)">samiyac</text>
<text x="1.712" y="0.738" font-size="0.021460" fill="hsl(180.0,100%,20%)">kprokopenko</text>
<text x="0.161" y="0.231" font-size="0.021460" fill="hsl(180.0,100%,20%)">nharshunova</text>
<text x="0.347" y="0.354" font-size="0.008111" fill="hsl(180.0,100%,20%)">piotrpaulski</text>
<text x="1.661" y="0.289" font-size="0.019868" fill="hsl(0.0,100%,20%)">changhaohan</text>
<text x="0.916" y="0.062" font-size="0.011471" fill="hsl(0.0,100%,20%)">leese</text>
<text x="0.702" y="0.172" font-size="0.016222" fill="hsl(0.0,100%,20%)">vzaidman</text>
</svg>
