<svg width="4000" height="2000" viewBox="-0.025 -0.025 2.05 1.05" xmlns="http://www.w3.org/2000/svg">
  <style>
    path {
      fill: none;
      stroke-linecap: round;
      stroke-opacity: 0.4;
    }

    text {
      text-anchor: middle;
      alignment-baseline: hanging;
    }
  </style>
  <g opacity="0.4">
<path d="M1.262 0.218 Q1.131 0.583 1.815 0.727" stroke="hsl(0.0,100%,35%)" stroke-width="0.01611"></path>
<path d="M1.262 0.218 Q1.294 0.518 1.886 0.568" stroke="hsl(0.0,100%,35%)" stroke-width="0.01074"></path>
<path d="M1.262 0.218 Q0.957 0.053 0.567 0.165" stroke="hsl(0.0,100%,35%)" stroke-width="0.01074"></path>
<path d="M1.262 0.218 Q1.337 0.130 1.182 0.075" stroke="hsl(0.0,100%,35%)" stroke-width="0.01074"></path>
<path d="M1.262 0.218 Q1.155 0.391 1.470 0.481" stroke="hsl(0.0,100%,35%)" stroke-width="0.00537"></path>
<path d="M1.262 0.218 Q0.944 0.614 1.646 0.856" stroke="hsl(0.0,100%,35%)" stroke-width="0.00537"></path>
<path d="M1.262 0.218 Q1.457 0.234 1.531 0.143" stroke="hsl(0.0,100%,35%)" stroke-width="0.00537"></path>
<path d="M1.262 0.218 Q1.159 0.264 1.225 0.324" stroke="hsl(0.0,100%,35%)" stroke-width="0.01074"></path>
<path d="M1.815 0.727 Q1.946 0.362 1.262 0.218" stroke="hsl(0.0,100%,35%)" stroke-width="0.02685"></path>
<path d="M1.815 0.727 Q1.978 0.662 1.886 0.568" stroke="hsl(0.0,100%,35%)" stroke-width="0.00537"></path>
<path d="M1.815 0.727 Q1.628 0.758 1.646 0.856" stroke="hsl(0.0,100%,35%)" stroke-width="0.00537"></path>
<path d="M1.886 0.568 Q1.918 0.411 1.618 0.361" stroke="hsl(0.0,100%,35%)" stroke-width="0.02685"></path>
<path d="M1.886 0.568 Q1.748 0.441 1.470 0.481" stroke="hsl(0.0,100%,35%)" stroke-width="0.00537"></path>
<path d="M1.886 0.568 Q1.751 0.314 1.225 0.324" stroke="hsl(0.0,100%,35%)" stroke-width="0.00537"></path>
<path d="M1.886 0.568 Q1.854 0.268 1.262 0.218" stroke="hsl(0.0,100%,35%)" stroke-width="0.00537"></path>
<path d="M1.886 0.568 Q1.388 0.305 0.764 0.490" stroke="hsl(0.0,100%,35%)" stroke-width="0.00537"></path>
<path d="M0.567 0.165 Q0.904 0.631 1.886 0.568" stroke="hsl(180.0,100%,35%)" stroke-width="0.00537"></path>
<path d="M0.567 0.165 Q0.873 0.331 1.262 0.218" stroke="hsl(180.0,100%,35%)" stroke-width="0.00537"></path>
<path d="M0.567 0.165 Q0.662 0.253 0.855 0.226" stroke="hsl(180.0,100%,35%)" stroke-width="0.01074"></path>
<path d="M1.470 0.481 Q1.596 0.488 1.636 0.428" stroke="hsl(180.0,100%,35%)" stroke-width="0.01074"></path>
<path d="M1.470 0.481 Q1.271 0.143 0.567 0.165" stroke="hsl(180.0,100%,35%)" stroke-width="0.00537"></path>
<path d="M1.470 0.481 Q1.366 0.231 0.855 0.226" stroke="hsl(180.0,100%,35%)" stroke-width="0.00537"></path>
<path d="M1.470 0.481 Q1.473 0.354 1.225 0.324" stroke="hsl(180.0,100%,35%)" stroke-width="0.01611"></path>
<path d="M1.470 0.481 Q0.875 0.654 1.081 0.982" stroke="hsl(180.0,100%,35%)" stroke-width="0.00537"></path>
<path d="M1.470 0.481 Q1.771 0.324 1.531 0.143" stroke="hsl(180.0,100%,35%)" stroke-width="0.01611"></path>
<path d="M1.470 0.481 Q1.577 0.308 1.262 0.218" stroke="hsl(180.0,100%,35%)" stroke-width="0.00537"></path>
<path d="M1.470 0.481 Q0.918 0.551 0.933 0.836" stroke="hsl(180.0,100%,35%)" stroke-width="0.01074"></path>
<path d="M1.470 0.481 Q1.110 0.345 0.764 0.490" stroke="hsl(180.0,100%,35%)" stroke-width="0.00537"></path>
<path d="M1.470 0.481 Q1.401 0.558 1.535 0.608" stroke="hsl(180.0,100%,35%)" stroke-width="0.00537"></path>
<path d="M1.225 0.324 Q1.329 0.278 1.262 0.218" stroke="hsl(0.0,100%,35%)" stroke-width="0.01611"></path>
<path d="M1.225 0.324 Q0.947 0.382 0.999 0.530" stroke="hsl(0.0,100%,35%)" stroke-width="0.01074"></path>
<path d="M1.225 0.324 Q1.360 0.578 1.886 0.568" stroke="hsl(0.0,100%,35%)" stroke-width="0.01074"></path>
<path d="M1.225 0.324 Q1.392 0.421 1.618 0.361" stroke="hsl(0.0,100%,35%)" stroke-width="0.00537"></path>
<path d="M0.764 0.490 Q1.295 0.596 1.618 0.361" stroke="hsl(0.0,100%,35%)" stroke-width="0.00537"></path>
<path d="M0.764 0.490 Q1.128 0.499 1.225 0.324" stroke="hsl(0.0,100%,35%)" stroke-width="0.00537"></path>
<path d="M0.764 0.490 Q1.263 0.754 1.886 0.568" stroke="hsl(0.0,100%,35%)" stroke-width="0.00537"></path>
<path d="M1.081 0.982 Q1.676 0.809 1.470 0.481" stroke="hsl(180.0,100%,35%)" stroke-width="0.01611"></path>
<path d="M1.081 0.982 Q1.477 0.471 0.567 0.165" stroke="hsl(180.0,100%,35%)" stroke-width="0.00537"></path>
<path d="M1.081 0.982 Q1.124 0.879 0.933 0.836" stroke="hsl(180.0,100%,35%)" stroke-width="0.00537"></path>
<path d="M0.999 0.530 Q1.380 0.427 1.262 0.218" stroke="hsl(0.0,100%,35%)" stroke-width="0.01074"></path>
<path d="M0.999 0.530 Q1.019 0.639 1.234 0.652" stroke="hsl(0.0,100%,35%)" stroke-width="0.01074"></path>
<path d="M0.999 0.530 Q1.412 0.727 1.886 0.568" stroke="hsl(0.0,100%,35%)" stroke-width="0.01611"></path>
<path d="M0.999 0.530 Q0.913 0.463 0.764 0.490" stroke="hsl(0.0,100%,35%)" stroke-width="0.02148"></path>
<path d="M0.999 0.530 Q1.170 0.350 0.855 0.226" stroke="hsl(0.0,100%,35%)" stroke-width="0.00537"></path>
<path d="M0.999 0.530 Q1.277 0.473 1.225 0.324" stroke="hsl(0.0,100%,35%)" stroke-width="0.00537"></path>
</g>
<text x="1.262" y="0.176" font-size="0.082677" fill="hsl(0.0,100%,20%)">alexrudenko</text>
<text x="1.815" y="0.702" font-size="0.050315" fill="hsl(0.0,100%,20%)">nvitkov</text>
<text x="1.886" y="0.534" font-size="0.069355" fill="hsl(0.0,100%,20%)">dsv</text>
<text x="0.567" y="0.143" font-size="0.045004" fill="hsl(180.0,100%,20%)">bmeurer</text>
<text x="1.182" y="0.063" font-size="0.022502" fill="hsl(0.0,100%,20%)">liviurau</text>
<text x="1.470" y="0.445" font-size="0.072914" fill="hsl(180.0,100%,20%)">jacktfranklin</text>
<text x="1.646" y="0.844" font-size="0.022502" fill="hsl(0.0,100%,20%)">samiyac</text>
<text x="1.531" y="0.127" font-size="0.031822" fill="hsl(180.0,100%,20%)">wolfi</text>
<text x="1.225" y="0.292" font-size="0.063645" fill="hsl(0.0,100%,20%)">szuend</text>
<text x="0.855" y="0.210" font-size="0.031822" fill="hsl(180.0,100%,20%)">ergunsh</text>
<text x="0.764" y="0.466" font-size="0.047733" fill="hsl(0.0,100%,20%)">changhaohan</text>
<text x="1.618" y="0.340" font-size="0.042097" fill="hsl(0.0,100%,20%)">kimanh</text>
<text x="1.636" y="0.417" font-size="0.022502" fill="hsl(180.0,100%,20%)">alinavarkki</text>
<text x="1.081" y="0.962" font-size="0.038974" fill="hsl(180.0,100%,20%)">paulirish</text>
<text x="0.933" y="0.822" font-size="0.027559" fill="hsl(180.0,100%,20%)">cjamcl</text>
<text x="1.535" y="0.600" font-size="0.015911" fill="hsl(180.0,100%,20%)">finnur</text>
<text x="0.999" y="0.499" font-size="0.061624" fill="hsl(0.0,100%,20%)">pfaffe</text>
<text x="1.234" y="0.641" font-size="0.022502" fill="hsl(0.0,100%,20%)">leese</text>
</svg>
