<svg width="4000" height="2000" viewBox="-0.025 -0.025 2.05 1.05" xmlns="http://www.w3.org/2000/svg">
  <style>
    path {
      fill: none;
      stroke-linecap: round;
      stroke-opacity: 0.4;
    }

    text {
      text-anchor: middle;
      alignment-baseline: hanging;
    }
  </style>
  <g opacity="0.4">
<path d="M0.796 0.574 Q0.837 0.477 0.657 0.435" stroke="hsl(0.0,100%,35%)" stroke-width="0.00419"></path>
<path d="M0.796 0.574 Q1.461 0.683 1.821 0.382" stroke="hsl(0.0,100%,35%)" stroke-width="0.00733"></path>
<path d="M0.796 0.574 Q1.061 0.609 1.188 0.487" stroke="hsl(0.0,100%,35%)" stroke-width="0.00419"></path>
<path d="M0.796 0.574 Q1.489 0.574 1.642 0.236" stroke="hsl(0.0,100%,35%)" stroke-width="0.00314"></path>
<path d="M0.657 0.435 Q1.282 0.642 1.821 0.382" stroke="hsl(0.0,100%,35%)" stroke-width="0.01151"></path>
<path d="M0.657 0.435 Q0.882 0.567 1.188 0.487" stroke="hsl(0.0,100%,35%)" stroke-width="0.00628"></path>
<path d="M0.657 0.435 Q0.616 0.532 0.796 0.574" stroke="hsl(0.0,100%,35%)" stroke-width="0.00105"></path>
<path d="M0.657 0.435 Q1.310 0.533 1.642 0.236" stroke="hsl(0.0,100%,35%)" stroke-width="0.00105"></path>
<path d="M1.821 0.382 Q1.197 0.176 0.657 0.435" stroke="hsl(0.0,100%,35%)" stroke-width="0.00314"></path>
<path d="M1.821 0.382 Q1.318 0.146 0.746 0.339" stroke="hsl(0.0,100%,35%)" stroke-width="0.00105"></path>
<path d="M1.821 0.382 Q1.421 0.308 1.188 0.487" stroke="hsl(0.0,100%,35%)" stroke-width="0.00837"></path>
<path d="M1.821 0.382 Q1.508 0.566 1.798 0.759" stroke="hsl(0.0,100%,35%)" stroke-width="0.00105"></path>
<path d="M1.821 0.382 Q1.155 0.273 0.796 0.574" stroke="hsl(0.0,100%,35%)" stroke-width="0.00209"></path>
<path d="M1.821 0.382 Q0.919 0.144 0.256 0.531" stroke="hsl(0.0,100%,35%)" stroke-width="0.00105"></path>
<path d="M1.821 0.382 Q1.849 0.273 1.642 0.236" stroke="hsl(0.0,100%,35%)" stroke-width="0.00314"></path>
<path d="M1.821 0.382 Q0.906 0.265 0.478 0.686" stroke="hsl(0.0,100%,35%)" stroke-width="0.00105"></path>
<path d="M1.821 0.382 Q1.613 0.259 1.326 0.334" stroke="hsl(0.0,100%,35%)" stroke-width="0.00105"></path>
<path d="M1.188 0.487 Q1.379 0.438 1.326 0.334" stroke="hsl(0.0,100%,35%)" stroke-width="0.00837"></path>
<path d="M1.188 0.487 Q1.588 0.561 1.821 0.382" stroke="hsl(0.0,100%,35%)" stroke-width="0.00419"></path>
<path d="M1.188 0.487 Q1.616 0.452 1.642 0.236" stroke="hsl(0.0,100%,35%)" stroke-width="0.00942"></path>
<path d="M1.188 0.487 Q0.686 0.616 0.829 0.889" stroke="hsl(0.0,100%,35%)" stroke-width="0.00105"></path>
<path d="M1.188 0.487 Q1.145 0.388 0.942 0.387" stroke="hsl(0.0,100%,35%)" stroke-width="0.01047"></path>
<path d="M1.188 0.487 Q1.331 0.560 1.506 0.507" stroke="hsl(0.0,100%,35%)" stroke-width="0.02198"></path>
<path d="M1.188 0.487 Q0.922 0.452 0.796 0.574" stroke="hsl(0.0,100%,35%)" stroke-width="0.00523"></path>
<path d="M1.188 0.487 Q1.275 0.745 1.798 0.759" stroke="hsl(0.0,100%,35%)" stroke-width="0.00209"></path>
<path d="M1.188 0.487 Q0.686 0.323 0.256 0.531" stroke="hsl(0.0,100%,35%)" stroke-width="0.00105"></path>
<path d="M1.188 0.487 Q0.964 0.355 0.657 0.435" stroke="hsl(0.0,100%,35%)" stroke-width="0.00314"></path>
<path d="M1.188 0.487 Q0.923 0.798 1.471 0.995" stroke="hsl(0.0,100%,35%)" stroke-width="0.00105"></path>
<path d="M1.188 0.487 Q1.295 0.313 0.979 0.223" stroke="hsl(0.0,100%,35%)" stroke-width="0.00105"></path>
<path d="M1.188 0.487 Q0.673 0.444 0.478 0.686" stroke="hsl(0.0,100%,35%)" stroke-width="0.00209"></path>
<path d="M1.642 0.236 Q1.215 0.270 1.188 0.487" stroke="hsl(0.0,100%,35%)" stroke-width="0.00837"></path>
<path d="M1.642 0.236 Q1.615 0.345 1.821 0.382" stroke="hsl(0.0,100%,35%)" stroke-width="0.03454"></path>
<path d="M1.642 0.236 Q1.182 -0.028 0.565 0.138" stroke="hsl(0.0,100%,35%)" stroke-width="0.00105"></path>
<path d="M1.642 0.236 Q0.990 0.139 0.657 0.435" stroke="hsl(0.0,100%,35%)" stroke-width="0.00314"></path>
<path d="M1.642 0.236 Q0.949 0.235 0.796 0.574" stroke="hsl(0.0,100%,35%)" stroke-width="0.00314"></path>
<path d="M1.541 0.623 Q1.561 0.742 1.798 0.759" stroke="hsl(180.0,100%,35%)" stroke-width="0.01361"></path>
<path d="M1.541 0.623 Q0.972 0.614 0.829 0.889" stroke="hsl(180.0,100%,35%)" stroke-width="0.00419"></path>
<path d="M1.541 0.623 Q0.959 0.442 0.478 0.686" stroke="hsl(180.0,100%,35%)" stroke-width="0.00733"></path>
<path d="M1.541 0.623 Q1.286 0.708 1.396 0.851" stroke="hsl(180.0,100%,35%)" stroke-width="0.00105"></path>
<path d="M1.541 0.623 Q1.208 0.795 1.471 0.995" stroke="hsl(180.0,100%,35%)" stroke-width="0.00314"></path>
<path d="M1.541 0.623 Q1.874 0.558 1.821 0.382" stroke="hsl(180.0,100%,35%)" stroke-width="0.00105"></path>
<path d="M1.541 0.623 Q1.665 0.435 1.326 0.334" stroke="hsl(180.0,100%,35%)" stroke-width="0.00209"></path>
<path d="M1.541 0.623 Q0.972 0.320 0.256 0.531" stroke="hsl(180.0,100%,35%)" stroke-width="0.00314"></path>
<path d="M1.541 0.623 Q1.441 0.185 0.565 0.138" stroke="hsl(180.0,100%,35%)" stroke-width="0.00105"></path>
<path d="M1.798 0.759 Q1.196 0.458 0.478 0.686" stroke="hsl(180.0,100%,35%)" stroke-width="0.00314"></path>
<path d="M1.798 0.759 Q1.678 0.202 0.565 0.138" stroke="hsl(180.0,100%,35%)" stroke-width="0.00942"></path>
<path d="M1.798 0.759 Q1.778 0.640 1.541 0.623" stroke="hsl(180.0,100%,35%)" stroke-width="0.00733"></path>
<path d="M1.798 0.759 Q1.805 0.220 0.756 0.099" stroke="hsl(180.0,100%,35%)" stroke-width="0.00105"></path>
<path d="M1.798 0.759 Q1.383 0.297 0.391 0.398" stroke="hsl(180.0,100%,35%)" stroke-width="0.00523"></path>
<path d="M1.798 0.759 Q1.473 0.154 0.222 0.179" stroke="hsl(180.0,100%,35%)" stroke-width="0.00105"></path>
<path d="M1.798 0.759 Q1.209 0.337 0.256 0.531" stroke="hsl(180.0,100%,35%)" stroke-width="0.00105"></path>
<path d="M0.829 0.889 Q1.066 1.071 1.471 0.995" stroke="hsl(180.0,100%,35%)" stroke-width="0.02826"></path>
<path d="M0.829 0.889 Q1.399 0.899 1.541 0.623" stroke="hsl(180.0,100%,35%)" stroke-width="0.01256"></path>
<path d="M0.829 0.889 Q1.331 0.760 1.188 0.487" stroke="hsl(180.0,100%,35%)" stroke-width="0.00209"></path>
<path d="M0.829 0.889 Q1.035 0.923 1.146 0.830" stroke="hsl(180.0,100%,35%)" stroke-width="0.00419"></path>
<path d="M0.829 0.889 Q1.143 0.983 1.396 0.851" stroke="hsl(180.0,100%,35%)" stroke-width="0.00209"></path>
<path d="M0.829 0.889 Q0.829 0.596 0.256 0.531" stroke="hsl(180.0,100%,35%)" stroke-width="0.00209"></path>
<path d="M0.829 0.889 Q1.003 0.556 0.391 0.398" stroke="hsl(180.0,100%,35%)" stroke-width="0.00105"></path>
<path d="M0.829 0.889 Q1.180 0.538 0.572 0.290" stroke="hsl(180.0,100%,35%)" stroke-width="0.00105"></path>
<path d="M1.396 0.851 Q1.318 0.938 1.471 0.995" stroke="hsl(180.0,100%,35%)" stroke-width="0.02093"></path>
<path d="M1.396 0.851 Q1.082 0.757 0.829 0.889" stroke="hsl(180.0,100%,35%)" stroke-width="0.00209"></path>
<path d="M1.396 0.851 Q1.288 0.791 1.146 0.830" stroke="hsl(180.0,100%,35%)" stroke-width="0.00314"></path>
<path d="M1.396 0.851 Q1.651 0.766 1.541 0.623" stroke="hsl(180.0,100%,35%)" stroke-width="0.00419"></path>
<path d="M1.396 0.851 Q1.983 0.702 1.821 0.382" stroke="hsl(180.0,100%,35%)" stroke-width="0.00105"></path>
<path d="M1.471 0.995 Q1.235 0.814 0.829 0.889" stroke="hsl(180.0,100%,35%)" stroke-width="0.01570"></path>
<path d="M1.471 0.995 Q1.804 0.823 1.541 0.623" stroke="hsl(180.0,100%,35%)" stroke-width="0.01256"></path>
<path d="M1.471 0.995 Q1.823 0.942 1.798 0.759" stroke="hsl(180.0,100%,35%)" stroke-width="0.00105"></path>
<path d="M1.471 0.995 Q1.586 0.463 0.572 0.290" stroke="hsl(180.0,100%,35%)" stroke-width="0.00209"></path>
<path d="M1.471 0.995 Q1.441 0.847 1.146 0.830" stroke="hsl(180.0,100%,35%)" stroke-width="0.00209"></path>
<path d="M1.471 0.995 Q1.704 0.385 0.565 0.138" stroke="hsl(180.0,100%,35%)" stroke-width="0.00105"></path>
<path d="M1.326 0.334 Q1.278 0.456 1.506 0.507" stroke="hsl(0.0,100%,35%)" stroke-width="0.00523"></path>
<path d="M1.326 0.334 Q1.135 0.382 1.188 0.487" stroke="hsl(0.0,100%,35%)" stroke-width="0.00209"></path>
<path d="M1.326 0.334 Q0.633 0.512 0.829 0.889" stroke="hsl(0.0,100%,35%)" stroke-width="0.00105"></path>
<path d="M1.326 0.334 Q1.562 0.348 1.642 0.236" stroke="hsl(0.0,100%,35%)" stroke-width="0.00105"></path>
<path d="M1.326 0.334 Q1.535 0.457 1.821 0.382" stroke="hsl(0.0,100%,35%)" stroke-width="0.00105"></path>
<path d="M0.256 0.531 Q0.725 0.397 0.565 0.138" stroke="hsl(180.0,100%,35%)" stroke-width="0.00209"></path>
<path d="M0.256 0.531 Q0.243 0.653 0.478 0.686" stroke="hsl(180.0,100%,35%)" stroke-width="0.00837"></path>
<path d="M0.256 0.531 Q0.826 0.834 1.541 0.623" stroke="hsl(180.0,100%,35%)" stroke-width="0.00523"></path>
<path d="M0.256 0.531 Q0.430 0.491 0.391 0.398" stroke="hsl(180.0,100%,35%)" stroke-width="0.00105"></path>
<path d="M0.256 0.531 Q0.365 0.386 0.105 0.300" stroke="hsl(180.0,100%,35%)" stroke-width="0.00105"></path>
<path d="M0.256 0.531 Q0.845 0.953 1.798 0.759" stroke="hsl(180.0,100%,35%)" stroke-width="0.00419"></path>
<path d="M0.256 0.531 Q0.758 0.695 1.188 0.487" stroke="hsl(180.0,100%,35%)" stroke-width="0.00314"></path>
<path d="M0.256 0.531 Q1.158 0.770 1.821 0.382" stroke="hsl(180.0,100%,35%)" stroke-width="0.00209"></path>
<path d="M0.256 0.531 Q0.607 0.474 0.572 0.290" stroke="hsl(180.0,100%,35%)" stroke-width="0.00105"></path>
<path d="M0.256 0.531 Q0.521 0.348 0.222 0.179" stroke="hsl(180.0,100%,35%)" stroke-width="0.00105"></path>
<path d="M0.256 0.531 Q0.462 0.859 1.146 0.830" stroke="hsl(180.0,100%,35%)" stroke-width="0.00105"></path>
<path d="M0.256 0.531 Q0.256 0.825 0.829 0.889" stroke="hsl(180.0,100%,35%)" stroke-width="0.00105"></path>
<path d="M0.565 0.138 Q0.447 0.216 0.572 0.290" stroke="hsl(180.0,100%,35%)" stroke-width="0.00733"></path>
<path d="M0.565 0.138 Q0.692 0.157 0.756 0.099" stroke="hsl(180.0,100%,35%)" stroke-width="0.00837"></path>
<path d="M0.565 0.138 Q0.666 0.576 1.541 0.623" stroke="hsl(180.0,100%,35%)" stroke-width="0.00105"></path>
<path d="M0.565 0.138 Q0.096 0.273 0.256 0.531" stroke="hsl(180.0,100%,35%)" stroke-width="0.00628"></path>
<path d="M0.565 0.138 Q0.998 0.511 1.821 0.382" stroke="hsl(180.0,100%,35%)" stroke-width="0.00105"></path>
<path d="M0.565 0.138 Q0.495 0.275 0.746 0.339" stroke="hsl(180.0,100%,35%)" stroke-width="0.00105"></path>
<path d="M0.565 0.138 Q0.270 0.233 0.391 0.398" stroke="hsl(180.0,100%,35%)" stroke-width="0.00314"></path>
<path d="M0.565 0.138 Q0.685 0.695 1.798 0.759" stroke="hsl(180.0,100%,35%)" stroke-width="0.00209"></path>
<path d="M0.565 0.138 Q0.361 0.090 0.222 0.179" stroke="hsl(180.0,100%,35%)" stroke-width="0.00105"></path>
<path d="M0.565 0.138 Q0.083 0.395 0.478 0.686" stroke="hsl(180.0,100%,35%)" stroke-width="0.00105"></path>
<path d="M0.565 0.138 Q0.302 0.600 1.146 0.830" stroke="hsl(180.0,100%,35%)" stroke-width="0.00105"></path>
<path d="M0.942 0.387 Q0.986 0.486 1.188 0.487" stroke="hsl(0.0,100%,35%)" stroke-width="0.00837"></path>
<path d="M0.942 0.387 Q1.177 0.437 1.326 0.334" stroke="hsl(0.0,100%,35%)" stroke-width="0.00105"></path>
<path d="M0.942 0.387 Q1.413 0.452 1.642 0.236" stroke="hsl(0.0,100%,35%)" stroke-width="0.00105"></path>
<path d="M0.942 0.387 Q1.053 0.625 1.541 0.623" stroke="hsl(0.0,100%,35%)" stroke-width="0.00105"></path>
<path d="M0.942 0.387 Q0.484 0.322 0.256 0.531" stroke="hsl(0.0,100%,35%)" stroke-width="0.00105"></path>
<path d="M0.942 0.387 Q1.129 0.560 1.506 0.507" stroke="hsl(0.0,100%,35%)" stroke-width="0.00105"></path>
<path d="M0.942 0.387 Q1.386 0.561 1.821 0.382" stroke="hsl(0.0,100%,35%)" stroke-width="0.00105"></path>
<path d="M0.942 0.387 Q0.471 0.444 0.478 0.686" stroke="hsl(0.0,100%,35%)" stroke-width="0.00105"></path>
<path d="M0.572 0.290 Q0.620 0.349 0.746 0.339" stroke="hsl(180.0,100%,35%)" stroke-width="0.00209"></path>
<path d="M0.572 0.290 Q0.396 0.308 0.391 0.398" stroke="hsl(180.0,100%,35%)" stroke-width="0.00942"></path>
<path d="M0.572 0.290 Q0.690 0.213 0.565 0.138" stroke="hsl(180.0,100%,35%)" stroke-width="0.00105"></path>
<path d="M0.572 0.290 Q0.458 0.822 1.471 0.995" stroke="hsl(180.0,100%,35%)" stroke-width="0.00105"></path>
<path d="M0.572 0.290 Q0.915 0.463 1.326 0.334" stroke="hsl(180.0,100%,35%)" stroke-width="0.00105"></path>
<path d="M0.572 0.290 Q0.810 0.770 1.798 0.759" stroke="hsl(180.0,100%,35%)" stroke-width="0.00105"></path>
<path d="M0.572 0.290 Q0.092 0.587 0.566 0.886" stroke="hsl(180.0,100%,35%)" stroke-width="0.00105"></path>
<path d="M0.391 0.398 Q0.805 0.860 1.798 0.759" stroke="hsl(180.0,100%,35%)" stroke-width="0.00209"></path>
<path d="M0.391 0.398 Q0.203 0.559 0.478 0.686" stroke="hsl(180.0,100%,35%)" stroke-width="0.00209"></path>
<path d="M0.391 0.398 Q0.216 0.438 0.256 0.531" stroke="hsl(180.0,100%,35%)" stroke-width="0.00105"></path>
<path d="M0.391 0.398 Q0.567 0.380 0.572 0.290" stroke="hsl(180.0,100%,35%)" stroke-width="0.00523"></path>
<path d="M1.146 0.830 Q0.940 0.796 0.829 0.889" stroke="hsl(180.0,100%,35%)" stroke-width="0.01884"></path>
<path d="M1.146 0.830 Q1.176 0.977 1.471 0.995" stroke="hsl(180.0,100%,35%)" stroke-width="0.01465"></path>
<path d="M1.146 0.830 Q1.509 0.805 1.541 0.623" stroke="hsl(180.0,100%,35%)" stroke-width="0.00628"></path>
<path d="M1.146 0.830 Q0.940 0.503 0.256 0.531" stroke="hsl(180.0,100%,35%)" stroke-width="0.00105"></path>
<path d="M1.146 0.830 Q1.291 0.445 0.572 0.290" stroke="hsl(180.0,100%,35%)" stroke-width="0.00105"></path>
<path d="M0.105 0.300 Q0.585 0.868 1.798 0.759" stroke="hsl(180.0,100%,35%)" stroke-width="0.00105"></path>
<path d="M0.105 0.300 Q0.260 0.263 0.222 0.179" stroke="hsl(180.0,100%,35%)" stroke-width="0.00105"></path>
<path d="M0.105 0.300 Q-0.017 0.568 0.478 0.686" stroke="hsl(180.0,100%,35%)" stroke-width="0.00105"></path>
<path d="M0.106 0.726 Q0.688 0.601 0.572 0.290" stroke="hsl(0.0,100%,35%)" stroke-width="0.00209"></path>
<path d="M0.106 0.726 Q0.208 0.898 0.566 0.886" stroke="hsl(0.0,100%,35%)" stroke-width="0.00209"></path>
<path d="M0.106 0.726 Q1.239 0.897 1.821 0.382" stroke="hsl(0.0,100%,35%)" stroke-width="0.00105"></path>
<path d="M0.106 0.726 Q0.046 0.795 0.168 0.840" stroke="hsl(0.0,100%,35%)" stroke-width="0.00105"></path>
<path d="M0.871 0.257 Q1.127 0.232 1.135 0.101" stroke="hsl(0.0,100%,35%)" stroke-width="0.00105"></path>
<path d="M0.871 0.257 Q0.695 0.214 0.572 0.290" stroke="hsl(0.0,100%,35%)" stroke-width="0.00105"></path>
<path d="M0.871 0.257 Q1.246 0.509 1.821 0.382" stroke="hsl(0.0,100%,35%)" stroke-width="0.00105"></path>
<path d="M1.289 0.645 Q1.332 0.247 0.565 0.138" stroke="hsl(180.0,100%,35%)" stroke-width="0.00105"></path>
<path d="M1.289 0.645 Q1.498 0.723 1.698 0.639" stroke="hsl(180.0,100%,35%)" stroke-width="0.00837"></path>
<path d="M1.289 0.645 Q1.070 0.709 1.146 0.830" stroke="hsl(180.0,100%,35%)" stroke-width="0.00105"></path>
<path d="M1.289 0.645 Q0.863 0.381 0.256 0.531" stroke="hsl(180.0,100%,35%)" stroke-width="0.00628"></path>
<path d="M1.289 0.645 Q1.038 0.341 0.391 0.398" stroke="hsl(180.0,100%,35%)" stroke-width="0.00105"></path>
</g>
<text x="0.796" y="0.557" font-size="0.033019" fill="hsl(0.0,100%,20%)">aixba</text>
<text x="0.657" y="0.418" font-size="0.034684" fill="hsl(0.0,100%,20%)">asraine</text>
<text x="1.821" y="0.354" font-size="0.056529" fill="hsl(0.0,100%,20%)">paulirish</text>
<text x="1.188" y="0.455" font-size="0.064014" fill="hsl(0.0,100%,20%)">jacktfranklin</text>
<text x="1.642" y="0.211" font-size="0.049812" fill="hsl(0.0,100%,20%)">cjamcl</text>
<text x="1.541" y="0.595" font-size="0.055860" fill="hsl(180.0,100%,20%)">alexrudenko</text>
<text x="1.798" y="0.736" font-size="0.045056" fill="hsl(180.0,100%,20%)">szuend</text>
<text x="0.829" y="0.860" font-size="0.059129" fill="hsl(180.0,100%,20%)">nvitkov</text>
<text x="0.478" y="0.670" font-size="0.031264" fill="hsl(180.0,100%,20%)">pfaffe</text>
<text x="1.396" y="0.833" font-size="0.035222" fill="hsl(180.0,100%,20%)">samiyac</text>
<text x="1.471" y="0.965" font-size="0.061007" fill="hsl(180.0,100%,20%)">ergunsh</text>
<text x="1.326" y="0.319" font-size="0.029405" fill="hsl(0.0,100%,20%)">nancyly</text>
<text x="0.256" y="0.509" font-size="0.044637" fill="hsl(180.0,100%,20%)">dsv</text>
<text x="0.565" y="0.117" font-size="0.042480" fill="hsl(180.0,100%,20%)">bmeurer</text>
<text x="0.942" y="0.372" font-size="0.030657" fill="hsl(0.0,100%,20%)">andoli</text>
<text x="1.506" y="0.491" font-size="0.031860" fill="hsl(0.0,100%,20%)">alinavarkki</text>
<text x="0.572" y="0.272" font-size="0.036788" fill="hsl(180.0,100%,20%)">kprokopenko</text>
<text x="0.756" y="0.090" font-size="0.018394" fill="hsl(180.0,100%,20%)">yangguo</text>
<text x="0.746" y="0.333" font-size="0.012263" fill="hsl(180.0,100%,20%)">semel</text>
<text x="0.391" y="0.381" font-size="0.033583" fill="hsl(180.0,100%,20%)">kimanh</text>
<text x="0.222" y="0.173" font-size="0.012263" fill="hsl(180.0,100%,20%)">changhaohan</text>
<text x="1.146" y="0.808" font-size="0.044214" fill="hsl(180.0,100%,20%)">wolfi</text>
<text x="0.105" y="0.294" font-size="0.012263" fill="hsl(180.0,100%,20%)">leese</text>
<text x="0.979" y="0.219" font-size="0.006131" fill="hsl(0.0,100%,20%)">victorporof</text>
<text x="0.106" y="0.719" font-size="0.015019" fill="hsl(0.0,100%,20%)">jaysonchen</text>
<text x="0.566" y="0.881" font-size="0.010620" fill="hsl(0.0,100%,20%)">petermueller</text>
<text x="0.168" y="0.837" font-size="0.006131" fill="hsl(0.0,100%,20%)">rob.paveza</text>
<text x="0.871" y="0.251" font-size="0.010620" fill="hsl(0.0,100%,20%)">kenneth.r.christiansen</text>
<text x="1.135" y="0.098" font-size="0.006131" fill="hsl(0.0,100%,20%)">jec</text>
<text x="1.289" y="0.632" font-size="0.025280" fill="hsl(180.0,100%,20%)">masnoble</text>
<text x="1.698" y="0.630" font-size="0.017342" fill="hsl(180.0,100%,20%)">shuuran</text>
</svg>
