<svg width="4000" height="2000" viewBox="-0.025 -0.025 2.05 1.05" xmlns="http://www.w3.org/2000/svg">
  <style>
    path {
      fill: none;
      stroke-linecap: round;
      stroke-opacity: 0.4;
    }

    text {
      text-anchor: middle;
      alignment-baseline: hanging;
    }
  </style>
  <g opacity="0.4">
<path d="M1.586 0.751 Q1.052 0.491 0.428 0.695" stroke="hsl(0.0,100%,35%)" stroke-width="0.00051"></path>
<path d="M1.586 0.751 Q0.842 0.431 0.053 0.723" stroke="hsl(0.0,100%,35%)" stroke-width="0.00102"></path>
<path d="M1.586 0.751 Q1.133 0.593 0.725 0.780" stroke="hsl(0.0,100%,35%)" stroke-width="0.00203"></path>
<path d="M1.586 0.751 Q1.698 0.683 1.591 0.613" stroke="hsl(0.0,100%,35%)" stroke-width="0.00457"></path>
<path d="M1.586 0.751 Q1.771 0.792 1.892 0.711" stroke="hsl(0.0,100%,35%)" stroke-width="0.01726"></path>
<path d="M1.586 0.751 Q1.562 0.347 0.768 0.270" stroke="hsl(0.0,100%,35%)" stroke-width="0.00152"></path>
<path d="M1.586 0.751 Q1.605 0.605 1.325 0.564" stroke="hsl(0.0,100%,35%)" stroke-width="0.00406"></path>
<path d="M1.586 0.751 Q1.459 0.548 1.035 0.566" stroke="hsl(0.0,100%,35%)" stroke-width="0.00457"></path>
<path d="M1.586 0.751 Q1.604 0.232 0.594 0.109" stroke="hsl(0.0,100%,35%)" stroke-width="0.00355"></path>
<path d="M1.586 0.751 Q1.006 0.433 0.257 0.646" stroke="hsl(0.0,100%,35%)" stroke-width="0.00051"></path>
<path d="M1.586 0.751 Q1.341 0.757 1.298 0.877" stroke="hsl(0.0,100%,35%)" stroke-width="0.01269"></path>
<path d="M1.586 0.751 Q1.551 0.819 1.675 0.850" stroke="hsl(0.0,100%,35%)" stroke-width="0.00558"></path>
<path d="M1.586 0.751 Q1.404 0.274 0.434 0.258" stroke="hsl(0.0,100%,35%)" stroke-width="0.00102"></path>
<path d="M1.586 0.751 Q1.441 0.723 1.355 0.788" stroke="hsl(0.0,100%,35%)" stroke-width="0.00254"></path>
<path d="M1.586 0.751 Q1.253 0.672 1.025 0.817" stroke="hsl(0.0,100%,35%)" stroke-width="0.00152"></path>
<path d="M1.586 0.751 Q1.204 0.758 1.135 0.946" stroke="hsl(0.0,100%,35%)" stroke-width="0.00102"></path>
<path d="M0.428 0.695 Q0.962 0.955 1.586 0.751" stroke="hsl(180.0,100%,35%)" stroke-width="0.00051"></path>
<path d="M0.428 0.695 Q0.508 0.797 0.725 0.780" stroke="hsl(180.0,100%,35%)" stroke-width="0.00254"></path>
<path d="M0.428 0.695 Q0.978 0.663 1.037 0.387" stroke="hsl(180.0,100%,35%)" stroke-width="0.00102"></path>
<path d="M0.428 0.695 Q1.330 0.609 1.360 0.150" stroke="hsl(180.0,100%,35%)" stroke-width="0.00102"></path>
<path d="M0.053 0.723 Q0.797 1.044 1.586 0.751" stroke="hsl(0.0,100%,35%)" stroke-width="0.00152"></path>
<path d="M0.053 0.723 Q0.982 1.084 1.892 0.711" stroke="hsl(0.0,100%,35%)" stroke-width="0.00203"></path>
<path d="M0.053 0.723 Q0.217 0.725 0.257 0.646" stroke="hsl(0.0,100%,35%)" stroke-width="0.00609"></path>
<path d="M0.053 0.723 Q0.652 1.016 1.355 0.788" stroke="hsl(0.0,100%,35%)" stroke-width="0.00102"></path>
<path d="M0.053 0.723 Q0.670 0.841 1.035 0.566" stroke="hsl(0.0,100%,35%)" stroke-width="0.00152"></path>
<path d="M0.053 0.723 Q0.615 0.567 0.434 0.258" stroke="hsl(0.0,100%,35%)" stroke-width="0.00051"></path>
<path d="M0.053 0.723 Q0.552 1.049 1.298 0.877" stroke="hsl(0.0,100%,35%)" stroke-width="0.00051"></path>
<path d="M0.053 0.723 Q0.817 0.898 1.325 0.564" stroke="hsl(0.0,100%,35%)" stroke-width="0.00051"></path>
<path d="M0.053 0.723 Q0.815 0.524 0.594 0.109" stroke="hsl(0.0,100%,35%)" stroke-width="0.00152"></path>
<path d="M0.053 0.723 Q0.344 0.886 0.725 0.780" stroke="hsl(0.0,100%,35%)" stroke-width="0.00051"></path>
<path d="M0.053 0.723 Q0.814 0.752 1.037 0.387" stroke="hsl(0.0,100%,35%)" stroke-width="0.00051"></path>
<path d="M0.725 0.780 Q1.196 0.418 0.594 0.109" stroke="hsl(180.0,100%,35%)" stroke-width="0.00355"></path>
<path d="M0.725 0.780 Q0.845 0.858 1.025 0.817" stroke="hsl(180.0,100%,35%)" stroke-width="0.01675"></path>
<path d="M0.725 0.780 Q0.645 0.678 0.428 0.695" stroke="hsl(180.0,100%,35%)" stroke-width="0.00203"></path>
<path d="M0.725 0.780 Q1.179 0.938 1.586 0.751" stroke="hsl(180.0,100%,35%)" stroke-width="0.01015"></path>
<path d="M0.725 0.780 Q1.364 0.978 1.892 0.711" stroke="hsl(180.0,100%,35%)" stroke-width="0.00305"></path>
<path d="M0.725 0.780 Q1.198 0.792 1.325 0.564" stroke="hsl(180.0,100%,35%)" stroke-width="0.00355"></path>
<path d="M0.725 0.780 Q1.547 0.592 1.360 0.150" stroke="hsl(180.0,100%,35%)" stroke-width="0.00305"></path>
<path d="M0.725 0.780 Q1.006 0.792 1.090 0.657" stroke="hsl(180.0,100%,35%)" stroke-width="0.00203"></path>
<path d="M0.725 0.780 Q1.195 0.646 1.037 0.387" stroke="hsl(180.0,100%,35%)" stroke-width="0.00812"></path>
<path d="M0.725 0.780 Q1.033 0.910 1.355 0.788" stroke="hsl(180.0,100%,35%)" stroke-width="0.00254"></path>
<path d="M0.725 0.780 Q1.051 0.735 1.035 0.566" stroke="hsl(180.0,100%,35%)" stroke-width="0.00051"></path>
<path d="M0.725 0.780 Q1.014 0.827 1.171 0.697" stroke="hsl(180.0,100%,35%)" stroke-width="0.00102"></path>
<path d="M0.725 0.780 Q1.291 0.870 1.591 0.613" stroke="hsl(180.0,100%,35%)" stroke-width="0.00254"></path>
<path d="M0.725 0.780 Q0.933 0.943 1.298 0.877" stroke="hsl(180.0,100%,35%)" stroke-width="0.00203"></path>
<path d="M0.725 0.780 Q0.997 0.461 0.434 0.258" stroke="hsl(180.0,100%,35%)" stroke-width="0.00102"></path>
<path d="M0.725 0.780 Q0.381 0.775 0.296 0.942" stroke="hsl(180.0,100%,35%)" stroke-width="0.00051"></path>
<path d="M0.725 0.780 Q1.155 0.533 0.768 0.270" stroke="hsl(180.0,100%,35%)" stroke-width="0.00102"></path>
<path d="M1.591 0.613 Q1.478 0.681 1.586 0.751" stroke="hsl(0.0,100%,35%)" stroke-width="0.01218"></path>
<path d="M1.591 0.613 Q1.025 0.524 0.725 0.780" stroke="hsl(0.0,100%,35%)" stroke-width="0.00457"></path>
<path d="M1.591 0.613 Q1.498 0.536 1.325 0.564" stroke="hsl(0.0,100%,35%)" stroke-width="0.00660"></path>
<path d="M1.591 0.613 Q1.296 0.204 0.434 0.258" stroke="hsl(0.0,100%,35%)" stroke-width="0.00051"></path>
<path d="M1.591 0.613 Q1.444 0.749 1.675 0.850" stroke="hsl(0.0,100%,35%)" stroke-width="0.00203"></path>
<path d="M1.591 0.613 Q1.333 0.654 1.355 0.788" stroke="hsl(0.0,100%,35%)" stroke-width="0.00152"></path>
<path d="M1.591 0.613 Q1.351 0.478 1.035 0.566" stroke="hsl(0.0,100%,35%)" stroke-width="0.00152"></path>
<path d="M1.591 0.613 Q1.664 0.722 1.892 0.711" stroke="hsl(0.0,100%,35%)" stroke-width="0.00406"></path>
<path d="M1.591 0.613 Q1.145 0.602 1.025 0.817" stroke="hsl(0.0,100%,35%)" stroke-width="0.00051"></path>
<path d="M1.591 0.613 Q1.233 0.687 1.298 0.877" stroke="hsl(0.0,100%,35%)" stroke-width="0.00152"></path>
<path d="M1.591 0.613 Q1.846 0.336 1.360 0.150" stroke="hsl(0.0,100%,35%)" stroke-width="0.00051"></path>
<path d="M1.591 0.613 Q0.898 0.363 0.257 0.646" stroke="hsl(0.0,100%,35%)" stroke-width="0.00152"></path>
<path d="M1.591 0.613 Q1.503 0.247 0.770 0.210" stroke="hsl(0.0,100%,35%)" stroke-width="0.00051"></path>
<path d="M1.591 0.613 Q1.251 0.085 0.145 0.134" stroke="hsl(0.0,100%,35%)" stroke-width="0.00051"></path>
<path d="M1.591 0.613 Q1.496 0.162 0.594 0.109" stroke="hsl(0.0,100%,35%)" stroke-width="0.00254"></path>
<path d="M1.591 0.613 Q1.096 0.689 1.135 0.946" stroke="hsl(0.0,100%,35%)" stroke-width="0.00051"></path>
<path d="M1.892 0.711 Q1.724 0.150 0.594 0.109" stroke="hsl(0.0,100%,35%)" stroke-width="0.00102"></path>
<path d="M1.892 0.711 Q1.706 0.670 1.586 0.751" stroke="hsl(0.0,100%,35%)" stroke-width="0.01167"></path>
<path d="M1.892 0.711 Q1.579 0.467 1.035 0.566" stroke="hsl(0.0,100%,35%)" stroke-width="0.00254"></path>
<path d="M1.892 0.711 Q1.461 0.675 1.298 0.877" stroke="hsl(0.0,100%,35%)" stroke-width="0.01929"></path>
<path d="M1.892 0.711 Q1.726 0.524 1.325 0.564" stroke="hsl(0.0,100%,35%)" stroke-width="0.00305"></path>
<path d="M1.892 0.711 Q0.963 0.349 0.053 0.723" stroke="hsl(0.0,100%,35%)" stroke-width="0.00203"></path>
<path d="M1.892 0.711 Q1.561 0.642 1.355 0.788" stroke="hsl(0.0,100%,35%)" stroke-width="0.00051"></path>
<path d="M1.892 0.711 Q1.672 0.737 1.675 0.850" stroke="hsl(0.0,100%,35%)" stroke-width="0.00051"></path>
<path d="M1.325 0.564 Q1.491 0.750 1.892 0.711" stroke="hsl(0.0,100%,35%)" stroke-width="0.00203"></path>
<path d="M1.325 0.564 Q1.306 0.710 1.586 0.751" stroke="hsl(0.0,100%,35%)" stroke-width="0.00406"></path>
<path d="M1.325 0.564 Q0.562 0.389 0.053 0.723" stroke="hsl(0.0,100%,35%)" stroke-width="0.00254"></path>
<path d="M1.325 0.564 Q0.852 0.552 0.725 0.780" stroke="hsl(0.0,100%,35%)" stroke-width="0.00102"></path>
<path d="M1.325 0.564 Q1.142 0.599 1.171 0.697" stroke="hsl(0.0,100%,35%)" stroke-width="0.00406"></path>
<path d="M1.325 0.564 Q1.061 0.715 1.298 0.877" stroke="hsl(0.0,100%,35%)" stroke-width="0.00305"></path>
<path d="M1.325 0.564 Q1.323 0.190 0.594 0.109" stroke="hsl(0.0,100%,35%)" stroke-width="0.00102"></path>
<path d="M1.325 0.564 Q0.924 0.717 1.135 0.946" stroke="hsl(0.0,100%,35%)" stroke-width="0.00102"></path>
<path d="M1.325 0.564 Q1.178 0.507 1.035 0.566" stroke="hsl(0.0,100%,35%)" stroke-width="0.00305"></path>
<path d="M1.325 0.564 Q0.508 0.547 0.296 0.942" stroke="hsl(0.0,100%,35%)" stroke-width="0.00051"></path>
<path d="M1.325 0.564 Q0.725 0.391 0.257 0.646" stroke="hsl(0.0,100%,35%)" stroke-width="0.00102"></path>
<path d="M1.035 0.566 Q1.162 0.769 1.586 0.751" stroke="hsl(0.0,100%,35%)" stroke-width="0.00812"></path>
<path d="M1.035 0.566 Q1.178 0.477 1.037 0.387" stroke="hsl(0.0,100%,35%)" stroke-width="0.00102"></path>
<path d="M1.035 0.566 Q1.347 0.810 1.892 0.711" stroke="hsl(0.0,100%,35%)" stroke-width="0.00457"></path>
<path d="M1.035 0.566 Q0.418 0.448 0.053 0.723" stroke="hsl(0.0,100%,35%)" stroke-width="0.00305"></path>
<path d="M1.035 0.566 Q0.709 0.611 0.725 0.780" stroke="hsl(0.0,100%,35%)" stroke-width="0.00102"></path>
<path d="M1.035 0.566 Q0.365 0.606 0.296 0.942" stroke="hsl(0.0,100%,35%)" stroke-width="0.00152"></path>
<path d="M1.035 0.566 Q1.181 0.623 1.325 0.564" stroke="hsl(0.0,100%,35%)" stroke-width="0.00305"></path>
<path d="M1.035 0.566 Q1.180 0.249 0.594 0.109" stroke="hsl(0.0,100%,35%)" stroke-width="0.00102"></path>
<path d="M1.035 0.566 Q1.017 0.741 1.355 0.788" stroke="hsl(0.0,100%,35%)" stroke-width="0.00051"></path>
<path d="M1.035 0.566 Q0.917 0.774 1.298 0.877" stroke="hsl(0.0,100%,35%)" stroke-width="0.00355"></path>
<path d="M1.035 0.566 Q0.582 0.450 0.257 0.646" stroke="hsl(0.0,100%,35%)" stroke-width="0.00051"></path>
<path d="M0.594 0.109 Q0.412 0.518 1.171 0.697" stroke="hsl(0.0,100%,35%)" stroke-width="0.00051"></path>
<path d="M0.594 0.109 Q0.449 0.426 1.035 0.566" stroke="hsl(0.0,100%,35%)" stroke-width="0.00203"></path>
<path d="M0.594 0.109 Q0.576 0.629 1.586 0.751" stroke="hsl(0.0,100%,35%)" stroke-width="0.01066"></path>
<path d="M0.594 0.109 Q0.331 0.634 1.298 0.877" stroke="hsl(0.0,100%,35%)" stroke-width="0.00203"></path>
<path d="M0.594 0.109 Q0.243 0.549 1.025 0.817" stroke="hsl(0.0,100%,35%)" stroke-width="0.00051"></path>
<path d="M0.594 0.109 Q0.689 0.561 1.591 0.613" stroke="hsl(0.0,100%,35%)" stroke-width="0.00152"></path>
<path d="M0.594 0.109 Q0.596 0.483 1.325 0.564" stroke="hsl(0.0,100%,35%)" stroke-width="0.00558"></path>
<path d="M0.594 0.109 Q0.762 0.669 1.892 0.711" stroke="hsl(0.0,100%,35%)" stroke-width="0.00152"></path>
<path d="M0.594 0.109 Q0.395 0.151 0.434 0.258" stroke="hsl(0.0,100%,35%)" stroke-width="0.00051"></path>
<path d="M0.594 0.109 Q0.350 0.032 0.145 0.134" stroke="hsl(0.0,100%,35%)" stroke-width="0.00051"></path>
<path d="M0.257 0.646 Q0.094 0.644 0.053 0.723" stroke="hsl(0.0,100%,35%)" stroke-width="0.01117"></path>
<path d="M0.257 0.646 Q0.855 0.445 0.594 0.109" stroke="hsl(0.0,100%,35%)" stroke-width="0.00254"></path>
<path d="M0.257 0.646 Q0.803 1.032 1.675 0.850" stroke="hsl(0.0,100%,35%)" stroke-width="0.00102"></path>
<path d="M0.257 0.646 Q0.710 0.761 1.035 0.566" stroke="hsl(0.0,100%,35%)" stroke-width="0.00457"></path>
<path d="M0.257 0.646 Q0.384 0.807 0.725 0.780" stroke="hsl(0.0,100%,35%)" stroke-width="0.00102"></path>
<path d="M0.257 0.646 Q0.303 0.705 0.428 0.695" stroke="hsl(0.0,100%,35%)" stroke-width="0.00051"></path>
<path d="M0.257 0.646 Q0.837 0.964 1.586 0.751" stroke="hsl(0.0,100%,35%)" stroke-width="0.00102"></path>
<path d="M0.257 0.646 Q0.373 0.559 0.228 0.483" stroke="hsl(0.0,100%,35%)" stroke-width="0.00051"></path>
<path d="M0.257 0.646 Q0.950 0.896 1.591 0.613" stroke="hsl(0.0,100%,35%)" stroke-width="0.00102"></path>
<path d="M1.298 0.877 Q1.543 0.872 1.586 0.751" stroke="hsl(0.0,100%,35%)" stroke-width="0.00305"></path>
<path d="M1.298 0.877 Q1.379 0.762 1.171 0.697" stroke="hsl(0.0,100%,35%)" stroke-width="0.00660"></path>
<path d="M1.298 0.877 Q1.398 0.844 1.355 0.788" stroke="hsl(0.0,100%,35%)" stroke-width="0.00051"></path>
<path d="M1.298 0.877 Q1.728 0.913 1.892 0.711" stroke="hsl(0.0,100%,35%)" stroke-width="0.00305"></path>
<path d="M1.298 0.877 Q1.508 0.939 1.675 0.850" stroke="hsl(0.0,100%,35%)" stroke-width="0.00051"></path>
<path d="M1.298 0.877 Q1.161 0.879 1.135 0.946" stroke="hsl(0.0,100%,35%)" stroke-width="0.00305"></path>
<path d="M1.298 0.877 Q0.746 0.709 0.296 0.942" stroke="hsl(0.0,100%,35%)" stroke-width="0.00051"></path>
<path d="M1.298 0.877 Q1.561 0.353 0.594 0.109" stroke="hsl(0.0,100%,35%)" stroke-width="0.00508"></path>
<path d="M1.298 0.877 Q1.562 0.726 1.325 0.564" stroke="hsl(0.0,100%,35%)" stroke-width="0.00355"></path>
<path d="M1.298 0.877 Q1.090 0.714 0.725 0.780" stroke="hsl(0.0,100%,35%)" stroke-width="0.00051"></path>
<path d="M1.298 0.877 Q1.655 0.804 1.591 0.613" stroke="hsl(0.0,100%,35%)" stroke-width="0.00051"></path>
<path d="M1.675 0.850 Q1.710 0.783 1.586 0.751" stroke="hsl(0.0,100%,35%)" stroke-width="0.02538"></path>
<path d="M1.675 0.850 Q1.582 0.580 1.035 0.566" stroke="hsl(0.0,100%,35%)" stroke-width="0.00051"></path>
<path d="M1.675 0.850 Q1.129 0.464 0.257 0.646" stroke="hsl(0.0,100%,35%)" stroke-width="0.00051"></path>
<path d="M1.675 0.850 Q1.729 0.637 1.325 0.564" stroke="hsl(0.0,100%,35%)" stroke-width="0.00102"></path>
<path d="M1.675 0.850 Q1.895 0.824 1.892 0.711" stroke="hsl(0.0,100%,35%)" stroke-width="0.01167"></path>
<path d="M1.675 0.850 Q1.822 0.715 1.591 0.613" stroke="hsl(0.0,100%,35%)" stroke-width="0.00051"></path>
<path d="M1.675 0.850 Q1.465 0.788 1.298 0.877" stroke="hsl(0.0,100%,35%)" stroke-width="0.00102"></path>
<path d="M1.675 0.850 Q2.078 0.437 1.360 0.150" stroke="hsl(0.0,100%,35%)" stroke-width="0.00051"></path>
<path d="M0.434 0.258 Q0.615 0.735 1.586 0.751" stroke="hsl(0.0,100%,35%)" stroke-width="0.00457"></path>
<path d="M0.434 0.258 Q0.470 0.707 1.355 0.788" stroke="hsl(0.0,100%,35%)" stroke-width="0.00305"></path>
<path d="M0.434 0.258 Q0.633 0.216 0.594 0.109" stroke="hsl(0.0,100%,35%)" stroke-width="0.01878"></path>
<path d="M0.434 0.258 Q0.035 0.417 0.257 0.646" stroke="hsl(0.0,100%,35%)" stroke-width="0.00254"></path>
<path d="M0.434 0.258 Q0.591 0.331 0.768 0.270" stroke="hsl(0.0,100%,35%)" stroke-width="0.00051"></path>
<path d="M0.434 0.258 Q-0.128 0.414 0.053 0.723" stroke="hsl(0.0,100%,35%)" stroke-width="0.00051"></path>
<path d="M0.434 0.258 Q0.728 0.667 1.591 0.613" stroke="hsl(0.0,100%,35%)" stroke-width="0.00051"></path>
<path d="M1.355 0.788 Q1.500 0.816 1.586 0.751" stroke="hsl(0.0,100%,35%)" stroke-width="0.00609"></path>
<path d="M1.355 0.788 Q1.519 0.670 1.325 0.564" stroke="hsl(0.0,100%,35%)" stroke-width="0.00152"></path>
<path d="M1.355 0.788 Q1.517 0.296 0.594 0.109" stroke="hsl(0.0,100%,35%)" stroke-width="0.00102"></path>
<path d="M1.355 0.788 Q1.612 0.748 1.591 0.613" stroke="hsl(0.0,100%,35%)" stroke-width="0.00051"></path>
<path d="M1.355 0.788 Q1.046 0.658 0.725 0.780" stroke="hsl(0.0,100%,35%)" stroke-width="0.00203"></path>
<path d="M1.355 0.788 Q0.919 0.497 0.257 0.646" stroke="hsl(0.0,100%,35%)" stroke-width="0.00102"></path>
<path d="M1.025 0.817 Q0.904 0.738 0.725 0.780" stroke="hsl(180.0,100%,35%)" stroke-width="0.01167"></path>
<path d="M1.025 0.817 Q1.358 0.896 1.586 0.751" stroke="hsl(180.0,100%,35%)" stroke-width="0.00152"></path>
<path d="M1.025 0.817 Q0.614 0.576 0.053 0.723" stroke="hsl(180.0,100%,35%)" stroke-width="0.00152"></path>
<path d="M1.025 0.817 Q0.824 0.636 0.428 0.695" stroke="hsl(180.0,100%,35%)" stroke-width="0.00051"></path>
<path d="M1.025 0.817 Q1.374 0.605 1.037 0.387" stroke="hsl(180.0,100%,35%)" stroke-width="0.00152"></path>
<path d="M1.135 0.946 Q1.702 0.980 1.892 0.711" stroke="hsl(0.0,100%,35%)" stroke-width="0.00051"></path>
<path d="M1.135 0.946 Q0.773 0.618 0.053 0.723" stroke="hsl(0.0,100%,35%)" stroke-width="0.00051"></path>
<path d="M1.135 0.946 Q1.352 0.829 1.171 0.697" stroke="hsl(0.0,100%,35%)" stroke-width="0.00051"></path>
<path d="M1.135 0.946 Q1.536 0.793 1.325 0.564" stroke="hsl(0.0,100%,35%)" stroke-width="0.00051"></path>
<path d="M1.135 0.946 Q1.271 0.944 1.298 0.877" stroke="hsl(0.0,100%,35%)" stroke-width="0.00051"></path>
<path d="M1.037 0.387 Q1.389 0.333 1.360 0.150" stroke="hsl(180.0,100%,35%)" stroke-width="0.02944"></path>
<path d="M1.037 0.387 Q0.567 0.521 0.725 0.780" stroke="hsl(180.0,100%,35%)" stroke-width="0.00914"></path>
<path d="M1.037 0.387 Q0.875 0.651 1.355 0.788" stroke="hsl(180.0,100%,35%)" stroke-width="0.00051"></path>
<path d="M0.850 0.908 Q1.011 0.897 1.025 0.817" stroke="hsl(0.0,100%,35%)" stroke-width="0.00102"></path>
<path d="M0.850 0.908 Q1.363 0.831 1.325 0.564" stroke="hsl(0.0,100%,35%)" stroke-width="0.00102"></path>
<path d="M0.850 0.908 Q1.529 1.018 1.892 0.711" stroke="hsl(0.0,100%,35%)" stroke-width="0.00102"></path>
<path d="M0.296 0.942 Q1.111 0.585 0.594 0.109" stroke="hsl(0.0,100%,35%)" stroke-width="0.00102"></path>
<path d="M0.296 0.942 Q0.848 1.110 1.298 0.877" stroke="hsl(0.0,100%,35%)" stroke-width="0.00051"></path>
<path d="M0.296 0.942 Q1.070 0.700 0.768 0.270" stroke="hsl(0.0,100%,35%)" stroke-width="0.00051"></path>
<path d="M0.296 0.942 Q1.206 1.036 1.591 0.613" stroke="hsl(0.0,100%,35%)" stroke-width="0.00051"></path>
<path d="M0.296 0.942 Q0.966 0.901 1.035 0.566" stroke="hsl(0.0,100%,35%)" stroke-width="0.00051"></path>
<path d="M1.171 0.697 Q1.520 0.848 1.892 0.711" stroke="hsl(0.0,100%,35%)" stroke-width="0.00152"></path>
<path d="M1.171 0.697 Q0.591 0.486 0.053 0.723" stroke="hsl(0.0,100%,35%)" stroke-width="0.00051"></path>
<path d="M1.171 0.697 Q1.354 0.661 1.325 0.564" stroke="hsl(0.0,100%,35%)" stroke-width="0.00152"></path>
<path d="M1.171 0.697 Q0.953 0.814 1.135 0.946" stroke="hsl(0.0,100%,35%)" stroke-width="0.00152"></path>
<path d="M1.171 0.697 Q0.538 0.644 0.296 0.942" stroke="hsl(0.0,100%,35%)" stroke-width="0.00051"></path>
<path d="M1.171 0.697 Q1.335 0.807 1.586 0.751" stroke="hsl(0.0,100%,35%)" stroke-width="0.00152"></path>
<path d="M1.360 0.150 Q0.747 0.501 1.298 0.877" stroke="hsl(180.0,100%,35%)" stroke-width="0.00051"></path>
<path d="M1.360 0.150 Q1.009 0.204 1.037 0.387" stroke="hsl(180.0,100%,35%)" stroke-width="0.00711"></path>
<path d="M1.360 0.150 Q0.539 0.338 0.725 0.780" stroke="hsl(180.0,100%,35%)" stroke-width="0.00305"></path>
<path d="M1.360 0.150 Q0.865 0.293 1.035 0.566" stroke="hsl(180.0,100%,35%)" stroke-width="0.00051"></path>
<path d="M1.360 0.150 Q0.828 0.385 1.171 0.697" stroke="hsl(180.0,100%,35%)" stroke-width="0.00051"></path>
<path d="M1.360 0.150 Q1.012 0.350 1.325 0.564" stroke="hsl(180.0,100%,35%)" stroke-width="0.00051"></path>
<path d="M1.360 0.150 Q0.819 0.350 1.090 0.657" stroke="hsl(180.0,100%,35%)" stroke-width="0.00051"></path>
<path d="M1.360 0.150 Q1.010 -0.024 0.594 0.109" stroke="hsl(180.0,100%,35%)" stroke-width="0.00051"></path>
<path d="M1.280 0.631 Q1.357 0.606 1.325 0.564" stroke="hsl(0.0,100%,35%)" stroke-width="0.00152"></path>
<path d="M1.280 0.631 Q1.092 0.758 1.298 0.877" stroke="hsl(0.0,100%,35%)" stroke-width="0.00203"></path>
<path d="M1.280 0.631 Q1.337 0.752 1.586 0.751" stroke="hsl(0.0,100%,35%)" stroke-width="0.00051"></path>
<path d="M1.287 0.445 Q1.211 0.512 1.325 0.564" stroke="hsl(0.0,100%,35%)" stroke-width="0.00051"></path>
<path d="M1.287 0.445 Q0.946 0.663 1.298 0.877" stroke="hsl(0.0,100%,35%)" stroke-width="0.00051"></path>
<path d="M1.287 0.445 Q1.027 0.548 1.171 0.697" stroke="hsl(0.0,100%,35%)" stroke-width="0.00051"></path>
<path d="M1.287 0.445 Q1.377 0.699 1.892 0.711" stroke="hsl(0.0,100%,35%)" stroke-width="0.00051"></path>
<path d="M0.145 0.134 Q0.485 0.663 1.591 0.613" stroke="hsl(0.0,100%,35%)" stroke-width="0.00051"></path>
<path d="M0.145 0.134 Q0.390 0.211 0.594 0.109" stroke="hsl(0.0,100%,35%)" stroke-width="0.00254"></path>
<path d="M0.145 0.134 Q0.397 0.297 0.770 0.210" stroke="hsl(0.0,100%,35%)" stroke-width="0.00051"></path>
<path d="M1.090 0.657 Q0.810 0.646 0.725 0.780" stroke="hsl(180.0,100%,35%)" stroke-width="0.00102"></path>
<path d="M1.090 0.657 Q1.279 0.512 1.037 0.387" stroke="hsl(180.0,100%,35%)" stroke-width="0.00102"></path>
<path d="M1.090 0.657 Q1.282 0.658 1.325 0.564" stroke="hsl(180.0,100%,35%)" stroke-width="0.00051"></path>
<path d="M1.090 0.657 Q0.930 0.724 1.025 0.817" stroke="hsl(180.0,100%,35%)" stroke-width="0.00102"></path>
<path d="M1.090 0.657 Q1.631 0.458 1.360 0.150" stroke="hsl(180.0,100%,35%)" stroke-width="0.00051"></path>
<path d="M1.090 0.657 Q1.239 0.399 0.768 0.270" stroke="hsl(180.0,100%,35%)" stroke-width="0.00051"></path>
<path d="M1.090 0.657 Q1.005 0.478 0.636 0.480" stroke="hsl(180.0,100%,35%)" stroke-width="0.00102"></path>
<path d="M0.770 0.210 Q0.762 0.124 0.594 0.109" stroke="hsl(0.0,100%,35%)" stroke-width="0.00254"></path>
<path d="M0.770 0.210 Q0.857 0.576 1.591 0.613" stroke="hsl(0.0,100%,35%)" stroke-width="0.00254"></path>
<path d="M0.770 0.210 Q0.745 0.644 1.586 0.751" stroke="hsl(0.0,100%,35%)" stroke-width="0.00102"></path>
<path d="M0.770 0.210 Q0.764 0.498 1.325 0.564" stroke="hsl(0.0,100%,35%)" stroke-width="0.00102"></path>
<path d="M0.770 0.210 Q0.518 0.047 0.145 0.134" stroke="hsl(0.0,100%,35%)" stroke-width="0.00102"></path>
<path d="M0.770 0.210 Q0.412 0.564 1.025 0.817" stroke="hsl(0.0,100%,35%)" stroke-width="0.00102"></path>
<path d="M0.477 0.858 Q0.320 0.864 0.296 0.942" stroke="hsl(180.0,100%,35%)" stroke-width="0.00102"></path>
<path d="M0.477 0.858 Q0.374 0.706 0.053 0.723" stroke="hsl(180.0,100%,35%)" stroke-width="0.00051"></path>
<path d="M0.477 0.858 Q0.537 0.708 0.257 0.646" stroke="hsl(180.0,100%,35%)" stroke-width="0.00051"></path>
<path d="M0.477 0.858 Q1.093 0.622 0.768 0.270" stroke="hsl(180.0,100%,35%)" stroke-width="0.00051"></path>
<path d="M1.580 0.440 Q1.089 0.602 1.298 0.877" stroke="hsl(0.0,100%,35%)" stroke-width="0.00051"></path>
<path d="M1.580 0.440 Q1.519 0.638 1.892 0.711" stroke="hsl(0.0,100%,35%)" stroke-width="0.00152"></path>
<path d="M1.580 0.440 Q1.334 0.597 1.586 0.751" stroke="hsl(0.0,100%,35%)" stroke-width="0.00051"></path>
<path d="M1.580 0.440 Q1.353 0.451 1.325 0.564" stroke="hsl(0.0,100%,35%)" stroke-width="0.00102"></path>
<path d="M1.580 0.440 Q1.352 0.077 0.594 0.109" stroke="hsl(0.0,100%,35%)" stroke-width="0.00051"></path>
</g>
<text x="1.586" y="0.712" font-size="0.077683" fill="hsl(0.0,100%,20%)">alexrudenko</text>
<text x="0.428" y="0.686" font-size="0.017605" fill="hsl(180.0,100%,20%)">nancyly</text>
<text x="0.053" y="0.704" font-size="0.037710" fill="hsl(0.0,100%,20%)">kimanh</text>
<text x="0.725" y="0.749" font-size="0.060986" fill="hsl(180.0,100%,20%)">jacktfranklin</text>
<text x="1.591" y="0.591" font-size="0.044986" fill="hsl(0.0,100%,20%)">nvitkov</text>
<text x="1.892" y="0.681" font-size="0.058389" fill="hsl(0.0,100%,20%)">szuend</text>
<text x="0.768" y="0.263" font-size="0.012810" fill="hsl(180.0,100%,20%)">mathias</text>
<text x="1.325" y="0.540" font-size="0.047929" fill="hsl(0.0,100%,20%)">dsv</text>
<text x="1.035" y="0.545" font-size="0.042269" fill="hsl(0.0,100%,20%)">bmeurer</text>
<text x="0.594" y="0.083" font-size="0.051593" fill="hsl(0.0,100%,20%)">ergunsh</text>
<text x="0.257" y="0.628" font-size="0.036731" fill="hsl(0.0,100%,20%)">kprokopenko</text>
<text x="1.298" y="0.851" font-size="0.052642" fill="hsl(0.0,100%,20%)">pfaffe</text>
<text x="1.675" y="0.829" font-size="0.042698" fill="hsl(0.0,100%,20%)">liviurau</text>
<text x="0.434" y="0.241" font-size="0.034950" fill="hsl(0.0,100%,20%)">samiyac</text>
<text x="1.355" y="0.773" font-size="0.029889" fill="hsl(0.0,100%,20%)">wolfi</text>
<text x="1.025" y="0.798" font-size="0.037468" fill="hsl(180.0,100%,20%)">alinavarkki</text>
<text x="1.135" y="0.937" font-size="0.018612" fill="hsl(0.0,100%,20%)">leese</text>
<text x="1.037" y="0.364" font-size="0.046185" fill="hsl(180.0,100%,20%)">cjamcl</text>
<text x="0.850" y="0.903" font-size="0.010459" fill="hsl(0.0,100%,20%)">alphonsea</text>
<text x="0.296" y="0.933" font-size="0.016537" fill="hsl(0.0,100%,20%)">yangguo</text>
<text x="1.171" y="0.683" font-size="0.027340" fill="hsl(0.0,100%,20%)">changhaohan</text>
<text x="1.360" y="0.129" font-size="0.041617" fill="hsl(180.0,100%,20%)">paulirish</text>
<text x="1.280" y="0.625" font-size="0.012077" fill="hsl(0.0,100%,20%)">clarej</text>
<text x="1.287" y="0.441" font-size="0.008540" fill="hsl(0.0,100%,20%)">dbaron</text>
<text x="0.145" y="0.127" font-size="0.014161" fill="hsl(0.0,100%,20%)">piotrpaulski</text>
<text x="1.090" y="0.649" font-size="0.017079" fill="hsl(180.0,100%,20%)">finnur</text>
<text x="0.636" y="0.477" font-size="0.006038" fill="hsl(180.0,100%,20%)">andoli</text>
<text x="0.228" y="0.481" font-size="0.004270" fill="hsl(0.0,100%,20%)">victorporof</text>
<text x="0.770" y="0.200" font-size="0.019095" fill="hsl(0.0,100%,20%)">nharshunova</text>
<text x="0.477" y="0.853" font-size="0.009548" fill="hsl(180.0,100%,20%)">semel</text>
<text x="1.580" y="0.434" font-size="0.012077" fill="hsl(0.0,100%,20%)">vzaidman</text>
</svg>
