<svg width="4000" height="2000" viewBox="-0.025 -0.025 2.05 1.05" xmlns="http://www.w3.org/2000/svg">
  <style>
    path {
      fill: none;
      stroke-linecap: round;
      stroke-opacity: 0.4;
    }

    text {
      text-anchor: middle;
      alignment-baseline: hanging;
    }
  </style>
  <g opacity="0.4">
<path d="M1.384 0.654 Q0.835 0.717 0.837 0.998" stroke="hsl(0.0,100%,35%)" stroke-width="0.02582"></path>
<path d="M1.384 0.654 Q1.220 0.349 0.588 0.362" stroke="hsl(0.0,100%,35%)" stroke-width="0.00645"></path>
<path d="M1.384 0.654 Q1.284 0.558 1.073 0.585" stroke="hsl(0.0,100%,35%)" stroke-width="0.00645"></path>
<path d="M1.384 0.654 Q1.268 0.755 1.439 0.834" stroke="hsl(0.0,100%,35%)" stroke-width="0.04518"></path>
<path d="M1.384 0.654 Q1.510 0.764 1.752 0.727" stroke="hsl(0.0,100%,35%)" stroke-width="0.01291"></path>
<path d="M1.384 0.654 Q1.136 0.643 1.059 0.762" stroke="hsl(0.0,100%,35%)" stroke-width="0.00645"></path>
<path d="M0.588 0.362 Q0.418 0.457 0.566 0.561" stroke="hsl(120.0,100%,35%)" stroke-width="0.01936"></path>
<path d="M0.588 0.362 Q0.651 0.571 1.073 0.585" stroke="hsl(120.0,100%,35%)" stroke-width="0.00645"></path>
<path d="M0.588 0.362 Q0.334 0.551 0.646 0.716" stroke="hsl(120.0,100%,35%)" stroke-width="0.00645"></path>
<path d="M0.588 0.362 Q0.676 0.439 0.846 0.413" stroke="hsl(120.0,100%,35%)" stroke-width="0.01291"></path>
<path d="M0.588 0.362 Q0.242 0.332 0.108 0.494" stroke="hsl(120.0,100%,35%)" stroke-width="0.00645"></path>
<path d="M0.588 0.362 Q0.997 0.365 1.094 0.166" stroke="hsl(120.0,100%,35%)" stroke-width="0.00645"></path>
<path d="M0.588 0.362 Q0.752 0.667 1.384 0.654" stroke="hsl(120.0,100%,35%)" stroke-width="0.01291"></path>
<path d="M0.588 0.362 Q0.798 0.309 0.742 0.195" stroke="hsl(120.0,100%,35%)" stroke-width="0.01291"></path>
<path d="M0.588 0.362 Q0.203 0.730 0.837 0.998" stroke="hsl(120.0,100%,35%)" stroke-width="0.00645"></path>
<path d="M1.752 0.727 Q1.462 0.311 0.588 0.362" stroke="hsl(0.0,100%,35%)" stroke-width="0.00645"></path>
<path d="M1.752 0.727 Q1.510 0.718 1.439 0.834" stroke="hsl(0.0,100%,35%)" stroke-width="0.00645"></path>
<path d="M1.752 0.727 Q1.626 0.617 1.384 0.654" stroke="hsl(0.0,100%,35%)" stroke-width="0.01936"></path>
<path d="M1.059 0.762 Q1.143 0.467 0.588 0.362" stroke="hsl(0.0,100%,35%)" stroke-width="0.00645"></path>
<path d="M1.059 0.762 Q1.307 0.773 1.384 0.654" stroke="hsl(0.0,100%,35%)" stroke-width="0.03227"></path>
<path d="M1.059 0.762 Q1.207 0.676 1.073 0.585" stroke="hsl(0.0,100%,35%)" stroke-width="0.00645"></path>
<path d="M1.059 0.762 Q0.797 0.438 0.108 0.494" stroke="hsl(0.0,100%,35%)" stroke-width="0.00645"></path>
<path d="M0.566 0.561 Q0.482 0.654 0.646 0.716" stroke="hsl(120.0,100%,35%)" stroke-width="0.00645"></path>
<path d="M0.566 0.561 Q0.784 0.872 1.439 0.834" stroke="hsl(120.0,100%,35%)" stroke-width="0.00645"></path>
<path d="M0.566 0.561 Q0.900 0.771 1.384 0.654" stroke="hsl(120.0,100%,35%)" stroke-width="0.00645"></path>
<path d="M0.566 0.561 Q0.736 0.465 0.588 0.362" stroke="hsl(120.0,100%,35%)" stroke-width="0.00645"></path>
<path d="M0.108 0.494 Q0.426 0.358 0.230 0.173" stroke="hsl(240.0,100%,35%)" stroke-width="0.03227"></path>
<path d="M0.108 0.494 Q0.264 0.516 0.341 0.445" stroke="hsl(240.0,100%,35%)" stroke-width="0.03227"></path>
<path d="M0.108 0.494 Q0.618 0.829 1.384 0.654" stroke="hsl(240.0,100%,35%)" stroke-width="0.01936"></path>
</g>
<text x="1.384" y="0.604" font-size="0.100000" fill="hsl(0.0,100%,20%)">alexrudenko</text>
<text x="0.837" y="0.978" font-size="0.040825" fill="hsl(0.0,100%,20%)">pfaffe</text>
<text x="0.588" y="0.323" font-size="0.077460" fill="hsl(120.0,100%,20%)">dsv</text>
<text x="1.073" y="0.570" font-size="0.031623" fill="hsl(0.0,100%,20%)">ergunsh</text>
<text x="1.439" y="0.806" font-size="0.054772" fill="hsl(0.0,100%,20%)">szuend</text>
<text x="1.752" y="0.703" font-size="0.048305" fill="hsl(0.0,100%,20%)">nvitkov</text>
<text x="1.059" y="0.734" font-size="0.054772" fill="hsl(0.0,100%,20%)">wolfi</text>
<text x="0.566" y="0.536" font-size="0.048305" fill="hsl(120.0,100%,20%)">changhaohan</text>
<text x="0.646" y="0.703" font-size="0.025820" fill="hsl(120.0,100%,20%)">leese</text>
<text x="0.846" y="0.400" font-size="0.025820" fill="hsl(120.0,100%,20%)">bmeurer</text>
<text x="0.108" y="0.459" font-size="0.070711" fill="hsl(240.0,100%,20%)">jacktfranklin</text>
<text x="1.094" y="0.157" font-size="0.018257" fill="hsl(120.0,100%,20%)">yangguo</text>
<text x="0.742" y="0.182" font-size="0.025820" fill="hsl(120.0,100%,20%)">kprokopenko</text>
<text x="0.230" y="0.153" font-size="0.040825" fill="hsl(240.0,100%,20%)">alinavarkki</text>
<text x="0.341" y="0.424" font-size="0.040825" fill="hsl(240.0,100%,20%)">cjamcl</text>
</svg>
