<svg width="4000" height="2000" viewBox="-0.025 -0.025 2.05 1.05" xmlns="http://www.w3.org/2000/svg">
  <style>
    path {
      fill: none;
      stroke-linecap: round;
      stroke-opacity: 0.4;
    }

    text {
      text-anchor: middle;
      alignment-baseline: hanging;
    }
  </style>
  <g opacity="0.4">
<path d="M1.954 0.537 Q2.056 0.446 1.902 0.377" stroke="hsl(0.0,100%,35%)" stroke-width="0.03254"></path>
<path d="M1.954 0.537 Q1.243 0.606 1.222 0.969" stroke="hsl(0.0,100%,35%)" stroke-width="0.01627"></path>
<path d="M1.954 0.537 Q1.720 0.375 1.354 0.454" stroke="hsl(0.0,100%,35%)" stroke-width="0.04338"></path>
<path d="M1.954 0.537 Q1.570 0.634 1.675 0.842" stroke="hsl(0.0,100%,35%)" stroke-width="0.01627"></path>
<path d="M1.954 0.537 Q1.553 0.545 1.482 0.743" stroke="hsl(0.0,100%,35%)" stroke-width="0.03254"></path>
<path d="M1.954 0.537 Q1.820 0.472 1.665 0.523" stroke="hsl(0.0,100%,35%)" stroke-width="0.00542"></path>
<path d="M1.954 0.537 Q0.979 0.327 0.355 0.757" stroke="hsl(0.0,100%,35%)" stroke-width="0.00542"></path>
<path d="M1.954 0.537 Q1.888 0.422 1.650 0.430" stroke="hsl(0.0,100%,35%)" stroke-width="0.01085"></path>
<path d="M1.954 0.537 Q1.836 0.281 1.311 0.283" stroke="hsl(0.0,100%,35%)" stroke-width="0.02169"></path>
<path d="M1.954 0.537 Q0.869 0.366 0.298 0.858" stroke="hsl(0.0,100%,35%)" stroke-width="0.00542"></path>
<path d="M1.954 0.537 Q1.888 0.573 1.943 0.613" stroke="hsl(0.0,100%,35%)" stroke-width="0.00542"></path>
<path d="M1.354 0.454 Q1.469 0.360 1.311 0.283" stroke="hsl(0.0,100%,35%)" stroke-width="0.01085"></path>
<path d="M1.354 0.454 Q0.612 0.406 0.355 0.757" stroke="hsl(0.0,100%,35%)" stroke-width="0.00542"></path>
<path d="M1.354 0.454 Q1.588 0.615 1.954 0.537" stroke="hsl(0.0,100%,35%)" stroke-width="0.02711"></path>
<path d="M1.354 0.454 Q1.187 0.624 1.482 0.743" stroke="hsl(0.0,100%,35%)" stroke-width="0.01627"></path>
<path d="M1.482 0.743 Q1.499 0.609 1.242 0.571" stroke="hsl(0.0,100%,35%)" stroke-width="0.01085"></path>
<path d="M1.482 0.743 Q1.499 0.831 1.675 0.842" stroke="hsl(0.0,100%,35%)" stroke-width="0.02169"></path>
<path d="M1.482 0.743 Q1.649 0.573 1.354 0.454" stroke="hsl(0.0,100%,35%)" stroke-width="0.00542"></path>
<path d="M0.355 0.757 Q0.246 0.796 0.298 0.858" stroke="hsl(0.0,100%,35%)" stroke-width="0.00542"></path>
<path d="M0.355 0.757 Q1.331 0.967 1.954 0.537" stroke="hsl(0.0,100%,35%)" stroke-width="0.00542"></path>
<path d="M0.355 0.757 Q0.947 1.064 1.675 0.842" stroke="hsl(0.0,100%,35%)" stroke-width="0.00542"></path>
<path d="M1.650 0.430 Q0.631 0.374 0.298 0.858" stroke="hsl(0.0,100%,35%)" stroke-width="0.00542"></path>
<path d="M1.650 0.430 Q1.138 0.595 1.349 0.882" stroke="hsl(0.0,100%,35%)" stroke-width="0.00542"></path>
<path d="M1.650 0.430 Q1.716 0.544 1.954 0.537" stroke="hsl(0.0,100%,35%)" stroke-width="0.02169"></path>
<path d="M1.650 0.430 Q1.818 0.454 1.902 0.377" stroke="hsl(0.0,100%,35%)" stroke-width="0.00542"></path>
<path d="M1.650 0.430 Q0.741 0.334 0.355 0.757" stroke="hsl(0.0,100%,35%)" stroke-width="0.00542"></path>
<path d="M1.349 0.882 Q1.216 0.900 1.222 0.969" stroke="hsl(0.0,100%,35%)" stroke-width="0.01085"></path>
<path d="M1.349 0.882 Q1.694 0.669 1.354 0.454" stroke="hsl(0.0,100%,35%)" stroke-width="0.00542"></path>
<path d="M1.349 0.882 Q1.861 0.716 1.650 0.430" stroke="hsl(0.0,100%,35%)" stroke-width="0.00542"></path>
</g>
<text x="1.954" y="0.479" font-size="0.115470" fill="hsl(0.0,100%,20%)">alexrudenko</text>
<text x="1.902" y="0.354" font-size="0.045044" fill="hsl(0.0,100%,20%)">liviurau</text>
<text x="1.222" y="0.950" font-size="0.038069" fill="hsl(0.0,100%,20%)">alinavarkki</text>
<text x="1.354" y="0.415" font-size="0.078019" fill="hsl(0.0,100%,20%)">szuend</text>
<text x="1.675" y="0.818" font-size="0.048154" fill="hsl(0.0,100%,20%)">ergunsh</text>
<text x="1.482" y="0.709" font-size="0.068101" fill="hsl(0.0,100%,20%)">pfaffe</text>
<text x="1.665" y="0.515" font-size="0.017025" fill="hsl(0.0,100%,20%)">samiyac</text>
<text x="0.355" y="0.736" font-size="0.041703" fill="hsl(0.0,100%,20%)">wolfi</text>
<text x="1.650" y="0.401" font-size="0.056466" fill="hsl(0.0,100%,20%)">nvitkov</text>
<text x="1.311" y="0.262" font-size="0.041703" fill="hsl(0.0,100%,20%)">bmeurer</text>
<text x="0.298" y="0.843" font-size="0.029488" fill="hsl(0.0,100%,20%)">dsv</text>
<text x="1.943" y="0.605" font-size="0.017025" fill="hsl(0.0,100%,20%)">mathias</text>
<text x="1.349" y="0.863" font-size="0.038069" fill="hsl(0.0,100%,20%)">jacktfranklin</text>
<text x="1.242" y="0.559" font-size="0.024077" fill="hsl(0.0,100%,20%)">changhaohan</text>
</svg>
