<svg width="4000" height="2000" viewBox="-0.025 -0.025 2.05 1.05" xmlns="http://www.w3.org/2000/svg">
  <style>
    path {
      fill: none;
      stroke-linecap: round;
      stroke-opacity: 0.4;
    }

    text {
      text-anchor: middle;
      alignment-baseline: hanging;
    }
  </style>
  <g opacity="0.4">
<path d="M1.463 0.096 Q1.438 0.199 1.632 0.234" stroke="hsl(0.0,100%,35%)" stroke-width="0.00150"></path>
<path d="M1.463 0.096 Q1.320 0.132 1.359 0.210" stroke="hsl(0.0,100%,35%)" stroke-width="0.00390"></path>
<path d="M1.463 0.096 Q1.298 0.225 1.513 0.334" stroke="hsl(0.0,100%,35%)" stroke-width="0.00571"></path>
<path d="M1.463 0.096 Q0.764 0.247 0.905 0.621" stroke="hsl(0.0,100%,35%)" stroke-width="0.00270"></path>
<path d="M1.463 0.096 Q0.710 0.112 0.576 0.483" stroke="hsl(0.0,100%,35%)" stroke-width="0.00030"></path>
<path d="M1.463 0.096 Q1.079 0.351 1.491 0.594" stroke="hsl(0.0,100%,35%)" stroke-width="0.00030"></path>
<path d="M1.632 0.234 Q1.515 0.167 1.359 0.210" stroke="hsl(0.0,100%,35%)" stroke-width="0.02223"></path>
<path d="M1.632 0.234 Q1.492 0.260 1.513 0.334" stroke="hsl(0.0,100%,35%)" stroke-width="0.00871"></path>
<path d="M1.632 0.234 Q1.282 0.577 1.874 0.823" stroke="hsl(0.0,100%,35%)" stroke-width="0.00090"></path>
<path d="M1.632 0.234 Q1.331 0.305 1.404 0.467" stroke="hsl(0.0,100%,35%)" stroke-width="0.00030"></path>
<path d="M1.632 0.234 Q1.657 0.131 1.463 0.096" stroke="hsl(0.0,100%,35%)" stroke-width="0.00180"></path>
<path d="M1.632 0.234 Q0.959 0.282 0.905 0.621" stroke="hsl(0.0,100%,35%)" stroke-width="0.00240"></path>
<path d="M1.632 0.234 Q0.910 0.517 1.304 0.932" stroke="hsl(0.0,100%,35%)" stroke-width="0.00030"></path>
<path d="M1.632 0.234 Q0.905 0.147 0.576 0.483" stroke="hsl(0.0,100%,35%)" stroke-width="0.00030"></path>
<path d="M1.632 0.234 Q1.214 0.487 1.618 0.747" stroke="hsl(0.0,100%,35%)" stroke-width="0.00030"></path>
<path d="M1.359 0.210 Q1.477 0.276 1.632 0.234" stroke="hsl(0.0,100%,35%)" stroke-width="0.00661"></path>
<path d="M1.359 0.210 Q0.803 0.324 0.905 0.621" stroke="hsl(0.0,100%,35%)" stroke-width="0.00661"></path>
<path d="M1.359 0.210 Q0.616 0.262 0.555 0.636" stroke="hsl(0.0,100%,35%)" stroke-width="0.00030"></path>
<path d="M1.359 0.210 Q0.312 0.302 0.263 0.833" stroke="hsl(0.0,100%,35%)" stroke-width="0.00090"></path>
<path d="M1.359 0.210 Q0.962 0.241 0.937 0.442" stroke="hsl(0.0,100%,35%)" stroke-width="0.00030"></path>
<path d="M1.359 0.210 Q1.501 0.174 1.463 0.096" stroke="hsl(0.0,100%,35%)" stroke-width="0.00270"></path>
<path d="M1.359 0.210 Q1.336 0.303 1.513 0.334" stroke="hsl(0.0,100%,35%)" stroke-width="0.00060"></path>
<path d="M1.359 0.210 Q1.175 0.348 1.404 0.467" stroke="hsl(0.0,100%,35%)" stroke-width="0.00090"></path>
<path d="M1.359 0.210 Q0.500 0.261 0.411 0.691" stroke="hsl(0.0,100%,35%)" stroke-width="0.00060"></path>
<path d="M1.359 0.210 Q1.117 0.428 1.491 0.594" stroke="hsl(0.0,100%,35%)" stroke-width="0.00030"></path>
<path d="M1.359 0.210 Q0.749 0.190 0.576 0.483" stroke="hsl(0.0,100%,35%)" stroke-width="0.00090"></path>
<path d="M1.359 0.210 Q0.814 0.607 1.470 0.961" stroke="hsl(0.0,100%,35%)" stroke-width="0.00060"></path>
<path d="M1.359 0.210 Q1.126 0.619 1.874 0.823" stroke="hsl(0.0,100%,35%)" stroke-width="0.00030"></path>
<path d="M1.359 0.210 Q1.059 0.530 1.618 0.747" stroke="hsl(0.0,100%,35%)" stroke-width="0.00030"></path>
<path d="M1.513 0.334 Q0.979 0.356 0.905 0.621" stroke="hsl(0.0,100%,35%)" stroke-width="0.00240"></path>
<path d="M1.513 0.334 Q1.535 0.241 1.359 0.210" stroke="hsl(0.0,100%,35%)" stroke-width="0.00631"></path>
<path d="M1.513 0.334 Q1.069 0.231 0.771 0.425" stroke="hsl(0.0,100%,35%)" stroke-width="0.00030"></path>
<path d="M1.513 0.334 Q1.294 0.460 1.491 0.594" stroke="hsl(0.0,100%,35%)" stroke-width="0.00030"></path>
<path d="M1.513 0.334 Q1.653 0.308 1.632 0.234" stroke="hsl(0.0,100%,35%)" stroke-width="0.01412"></path>
<path d="M1.513 0.334 Q1.678 0.205 1.463 0.096" stroke="hsl(0.0,100%,35%)" stroke-width="0.00300"></path>
<path d="M1.513 0.334 Q1.352 0.379 1.404 0.467" stroke="hsl(0.0,100%,35%)" stroke-width="0.00060"></path>
<path d="M1.513 0.334 Q0.793 0.293 0.555 0.636" stroke="hsl(0.0,100%,35%)" stroke-width="0.00030"></path>
<path d="M1.513 0.334 Q0.925 0.221 0.576 0.483" stroke="hsl(0.0,100%,35%)" stroke-width="0.00030"></path>
<path d="M0.905 0.621 Q0.718 0.558 0.555 0.636" stroke="hsl(0.0,100%,35%)" stroke-width="0.00511"></path>
<path d="M0.905 0.621 Q0.851 0.486 0.576 0.483" stroke="hsl(0.0,100%,35%)" stroke-width="0.01051"></path>
<path d="M0.905 0.621 Q0.994 0.496 0.771 0.425" stroke="hsl(0.0,100%,35%)" stroke-width="0.00811"></path>
<path d="M0.905 0.621 Q1.578 0.573 1.632 0.234" stroke="hsl(0.0,100%,35%)" stroke-width="0.00270"></path>
<path d="M0.905 0.621 Q1.461 0.506 1.359 0.210" stroke="hsl(0.0,100%,35%)" stroke-width="0.00210"></path>
<path d="M0.905 0.621 Q0.575 0.457 0.183 0.583" stroke="hsl(0.0,100%,35%)" stroke-width="0.00060"></path>
<path d="M0.905 0.621 Q0.414 0.599 0.263 0.833" stroke="hsl(0.0,100%,35%)" stroke-width="0.00781"></path>
<path d="M0.905 0.621 Q1.438 0.599 1.513 0.334" stroke="hsl(0.0,100%,35%)" stroke-width="0.00090"></path>
<path d="M0.905 0.621 Q1.239 0.557 1.188 0.380" stroke="hsl(0.0,100%,35%)" stroke-width="0.00090"></path>
<path d="M0.905 0.621 Q1.277 0.644 1.404 0.467" stroke="hsl(0.0,100%,35%)" stroke-width="0.00150"></path>
<path d="M0.905 0.621 Q1.219 0.725 1.491 0.594" stroke="hsl(0.0,100%,35%)" stroke-width="0.00090"></path>
<path d="M0.905 0.621 Q0.602 0.557 0.411 0.691" stroke="hsl(0.0,100%,35%)" stroke-width="0.00631"></path>
<path d="M0.905 0.621 Q1.160 0.827 1.618 0.747" stroke="hsl(0.0,100%,35%)" stroke-width="0.00390"></path>
<path d="M0.905 0.621 Q1.603 0.470 1.463 0.096" stroke="hsl(0.0,100%,35%)" stroke-width="0.00120"></path>
<path d="M0.905 0.621 Q0.856 0.856 1.304 0.932" stroke="hsl(0.0,100%,35%)" stroke-width="0.00030"></path>
<path d="M0.905 0.621 Q1.270 0.762 1.625 0.615" stroke="hsl(0.0,100%,35%)" stroke-width="0.00030"></path>
<path d="M0.905 0.621 Q1.064 0.538 0.937 0.442" stroke="hsl(0.0,100%,35%)" stroke-width="0.00030"></path>
<path d="M0.905 0.621 Q0.916 0.904 1.470 0.961" stroke="hsl(0.0,100%,35%)" stroke-width="0.00030"></path>
<path d="M0.905 0.621 Q1.018 0.867 1.522 0.866" stroke="hsl(0.0,100%,35%)" stroke-width="0.00030"></path>
<path d="M0.905 0.621 Q0.668 0.820 1.004 0.979" stroke="hsl(0.0,100%,35%)" stroke-width="0.00030"></path>
<path d="M0.576 0.483 Q0.630 0.618 0.905 0.621" stroke="hsl(0.0,100%,35%)" stroke-width="0.00871"></path>
<path d="M0.576 0.483 Q0.443 0.555 0.555 0.636" stroke="hsl(0.0,100%,35%)" stroke-width="0.00360"></path>
<path d="M0.576 0.483 Q0.719 0.493 0.771 0.425" stroke="hsl(0.0,100%,35%)" stroke-width="0.00240"></path>
<path d="M0.576 0.483 Q0.789 0.534 0.937 0.442" stroke="hsl(0.0,100%,35%)" stroke-width="0.00030"></path>
<path d="M0.576 0.483 Q1.163 0.596 1.513 0.334" stroke="hsl(0.0,100%,35%)" stroke-width="0.00030"></path>
<path d="M0.576 0.483 Q0.953 0.912 1.874 0.823" stroke="hsl(0.0,100%,35%)" stroke-width="0.00060"></path>
<path d="M0.576 0.483 Q0.139 0.595 0.263 0.833" stroke="hsl(0.0,100%,35%)" stroke-width="0.00030"></path>
<path d="M0.576 0.483 Q0.885 0.823 1.618 0.747" stroke="hsl(0.0,100%,35%)" stroke-width="0.00030"></path>
<path d="M0.576 0.483 Q1.186 0.503 1.359 0.210" stroke="hsl(0.0,100%,35%)" stroke-width="0.00150"></path>
<path d="M0.576 0.483 Q0.964 0.554 1.188 0.380" stroke="hsl(0.0,100%,35%)" stroke-width="0.00030"></path>
<path d="M0.576 0.483 Q1.002 0.641 1.404 0.467" stroke="hsl(0.0,100%,35%)" stroke-width="0.00030"></path>
<path d="M1.491 0.594 Q0.686 0.468 0.263 0.833" stroke="hsl(180.0,100%,35%)" stroke-width="0.00270"></path>
<path d="M1.491 0.594 Q1.511 0.427 1.188 0.380" stroke="hsl(180.0,100%,35%)" stroke-width="0.01081"></path>
<path d="M1.491 0.594 Q1.500 0.785 1.874 0.823" stroke="hsl(180.0,100%,35%)" stroke-width="0.01292"></path>
<path d="M1.491 0.594 Q1.549 0.514 1.404 0.467" stroke="hsl(180.0,100%,35%)" stroke-width="0.00180"></path>
<path d="M1.491 0.594 Q0.846 0.327 0.183 0.583" stroke="hsl(180.0,100%,35%)" stroke-width="0.00180"></path>
<path d="M1.491 0.594 Q1.177 0.490 0.905 0.621" stroke="hsl(180.0,100%,35%)" stroke-width="0.00180"></path>
<path d="M1.491 0.594 Q1.432 0.696 1.618 0.747" stroke="hsl(180.0,100%,35%)" stroke-width="0.00270"></path>
<path d="M1.491 0.594 Q0.940 0.689 1.004 0.979" stroke="hsl(180.0,100%,35%)" stroke-width="0.00210"></path>
<path d="M1.491 0.594 Q1.374 0.517 1.196 0.557" stroke="hsl(180.0,100%,35%)" stroke-width="0.00030"></path>
<path d="M1.491 0.594 Q0.990 0.428 0.555 0.636" stroke="hsl(180.0,100%,35%)" stroke-width="0.00030"></path>
<path d="M1.491 0.594 Q1.187 0.773 1.470 0.961" stroke="hsl(180.0,100%,35%)" stroke-width="0.00030"></path>
<path d="M1.491 0.594 Q1.290 0.736 1.522 0.866" stroke="hsl(180.0,100%,35%)" stroke-width="0.00030"></path>
<path d="M1.491 0.594 Q1.128 0.726 1.304 0.932" stroke="hsl(180.0,100%,35%)" stroke-width="0.00030"></path>
<path d="M1.224 -0.253 Q0.478 0.366 1.522 0.866" stroke="hsl(180.0,100%,35%)" stroke-width="0.00060"></path>
<path d="M1.224 -0.253 Q0.738 0.144 1.404 0.467" stroke="hsl(180.0,100%,35%)" stroke-width="0.00090"></path>
<path d="M1.224 -0.253 Q-0.126 0.098 0.263 0.833" stroke="hsl(180.0,100%,35%)" stroke-width="0.00030"></path>
<path d="M1.224 -0.253 Q0.129 0.319 1.004 0.979" stroke="hsl(180.0,100%,35%)" stroke-width="0.00030"></path>
<path d="M1.224 -0.253 Q0.376 0.403 1.470 0.961" stroke="hsl(180.0,100%,35%)" stroke-width="0.00030"></path>
<path d="M1.522 0.866 Q1.744 0.556 1.188 0.380" stroke="hsl(180.0,100%,35%)" stroke-width="0.00150"></path>
<path d="M1.522 0.866 Q1.782 0.643 1.404 0.467" stroke="hsl(180.0,100%,35%)" stroke-width="0.00120"></path>
<path d="M1.522 0.866 Q1.732 0.915 1.874 0.823" stroke="hsl(180.0,100%,35%)" stroke-width="0.00150"></path>
<path d="M1.522 0.866 Q1.173 0.819 1.004 0.979" stroke="hsl(180.0,100%,35%)" stroke-width="0.00060"></path>
<path d="M1.522 0.866 Q1.569 0.537 0.937 0.442" stroke="hsl(180.0,100%,35%)" stroke-width="0.00060"></path>
<path d="M1.522 0.866 Q1.499 0.495 0.771 0.425" stroke="hsl(180.0,100%,35%)" stroke-width="0.00030"></path>
<path d="M1.404 0.467 Q0.541 0.422 0.263 0.833" stroke="hsl(180.0,100%,35%)" stroke-width="0.00360"></path>
<path d="M1.404 0.467 Q1.355 0.739 1.874 0.823" stroke="hsl(180.0,100%,35%)" stroke-width="0.00360"></path>
<path d="M1.404 0.467 Q0.729 0.380 0.411 0.691" stroke="hsl(180.0,100%,35%)" stroke-width="0.00150"></path>
<path d="M1.404 0.467 Q1.366 0.380 1.188 0.380" stroke="hsl(180.0,100%,35%)" stroke-width="0.00421"></path>
<path d="M1.404 0.467 Q0.983 0.680 1.304 0.932" stroke="hsl(180.0,100%,35%)" stroke-width="0.00030"></path>
<path d="M1.404 0.467 Q1.191 0.361 0.937 0.442" stroke="hsl(180.0,100%,35%)" stroke-width="0.00120"></path>
<path d="M1.404 0.467 Q0.795 0.643 1.004 0.979" stroke="hsl(180.0,100%,35%)" stroke-width="0.00421"></path>
<path d="M1.404 0.467 Q1.346 0.548 1.491 0.594" stroke="hsl(180.0,100%,35%)" stroke-width="0.00120"></path>
<path d="M1.404 0.467 Q1.287 0.650 1.618 0.747" stroke="hsl(180.0,100%,35%)" stroke-width="0.00060"></path>
<path d="M1.404 0.467 Q1.043 0.727 1.470 0.961" stroke="hsl(180.0,100%,35%)" stroke-width="0.00030"></path>
<path d="M0.263 0.833 Q1.088 0.792 1.188 0.380" stroke="hsl(180.0,100%,35%)" stroke-width="0.00180"></path>
<path d="M0.263 0.833 Q1.119 0.997 1.625 0.615" stroke="hsl(180.0,100%,35%)" stroke-width="0.00180"></path>
<path d="M0.263 0.833 Q0.423 0.692 0.183 0.583" stroke="hsl(180.0,100%,35%)" stroke-width="0.00300"></path>
<path d="M0.263 0.833 Q1.126 0.879 1.404 0.467" stroke="hsl(180.0,100%,35%)" stroke-width="0.00691"></path>
<path d="M0.263 0.833 Q1.009 1.061 1.618 0.747" stroke="hsl(180.0,100%,35%)" stroke-width="0.01532"></path>
<path d="M0.263 0.833 Q0.451 0.792 0.411 0.691" stroke="hsl(180.0,100%,35%)" stroke-width="0.01382"></path>
<path d="M0.263 0.833 Q1.310 0.741 1.359 0.210" stroke="hsl(180.0,100%,35%)" stroke-width="0.00030"></path>
<path d="M0.263 0.833 Q0.754 0.855 0.905 0.621" stroke="hsl(180.0,100%,35%)" stroke-width="0.00180"></path>
<path d="M0.263 0.833 Q1.427 0.807 1.632 0.234" stroke="hsl(180.0,100%,35%)" stroke-width="0.00030"></path>
<path d="M0.263 0.833 Q1.068 0.959 1.491 0.594" stroke="hsl(180.0,100%,35%)" stroke-width="0.00330"></path>
<path d="M0.263 0.833 Q0.764 1.138 1.470 0.961" stroke="hsl(180.0,100%,35%)" stroke-width="0.00030"></path>
<path d="M0.263 0.833 Q0.373 0.880 0.488 0.836" stroke="hsl(180.0,100%,35%)" stroke-width="0.00120"></path>
<path d="M0.263 0.833 Q1.077 1.150 1.874 0.823" stroke="hsl(180.0,100%,35%)" stroke-width="0.00390"></path>
<path d="M0.263 0.833 Q0.954 0.838 1.115 0.501" stroke="hsl(180.0,100%,35%)" stroke-width="0.00030"></path>
<path d="M0.263 0.833 Q0.517 1.054 1.004 0.979" stroke="hsl(180.0,100%,35%)" stroke-width="0.00060"></path>
<path d="M1.004 0.979 Q1.192 1.015 1.304 0.932" stroke="hsl(180.0,100%,35%)" stroke-width="0.02733"></path>
<path d="M1.004 0.979 Q1.613 0.803 1.404 0.467" stroke="hsl(180.0,100%,35%)" stroke-width="0.00240"></path>
<path d="M1.004 0.979 Q1.400 0.697 0.937 0.442" stroke="hsl(180.0,100%,35%)" stroke-width="0.00090"></path>
<path d="M1.004 0.979 Q0.938 0.716 0.411 0.691" stroke="hsl(180.0,100%,35%)" stroke-width="0.00270"></path>
<path d="M1.004 0.979 Q1.442 0.762 1.115 0.501" stroke="hsl(180.0,100%,35%)" stroke-width="0.00030"></path>
<path d="M1.004 0.979 Q1.564 1.075 1.874 0.823" stroke="hsl(180.0,100%,35%)" stroke-width="0.00481"></path>
<path d="M1.004 0.979 Q1.575 0.716 1.188 0.380" stroke="hsl(180.0,100%,35%)" stroke-width="0.00060"></path>
<path d="M1.004 0.979 Q1.354 1.026 1.522 0.866" stroke="hsl(180.0,100%,35%)" stroke-width="0.00030"></path>
<path d="M1.004 0.979 Q0.750 0.758 0.263 0.833" stroke="hsl(180.0,100%,35%)" stroke-width="0.00150"></path>
<path d="M1.004 0.979 Q1.496 0.986 1.618 0.747" stroke="hsl(180.0,100%,35%)" stroke-width="0.00060"></path>
<path d="M1.004 0.979 Q1.555 0.884 1.491 0.594" stroke="hsl(180.0,100%,35%)" stroke-width="0.00060"></path>
<path d="M1.004 0.979 Q1.054 0.717 0.555 0.636" stroke="hsl(180.0,100%,35%)" stroke-width="0.00060"></path>
<path d="M1.004 0.979 Q1.252 1.063 1.470 0.961" stroke="hsl(180.0,100%,35%)" stroke-width="0.00030"></path>
<path d="M1.004 0.979 Q0.910 0.616 0.183 0.583" stroke="hsl(180.0,100%,35%)" stroke-width="0.00060"></path>
<path d="M1.004 0.979 Q1.774 0.758 1.513 0.334" stroke="hsl(180.0,100%,35%)" stroke-width="0.00030"></path>
<path d="M1.470 0.961 Q1.459 0.678 0.905 0.621" stroke="hsl(180.0,100%,35%)" stroke-width="0.00090"></path>
<path d="M1.470 0.961 Q1.794 0.614 1.188 0.380" stroke="hsl(180.0,100%,35%)" stroke-width="0.00120"></path>
<path d="M1.470 0.961 Q1.773 0.782 1.491 0.594" stroke="hsl(180.0,100%,35%)" stroke-width="0.00120"></path>
<path d="M1.470 0.961 Q1.272 0.615 0.555 0.636" stroke="hsl(180.0,100%,35%)" stroke-width="0.00030"></path>
<path d="M1.470 0.961 Q1.223 0.877 1.004 0.979" stroke="hsl(180.0,100%,35%)" stroke-width="0.00210"></path>
<path d="M1.470 0.961 Q1.156 0.614 0.411 0.691" stroke="hsl(180.0,100%,35%)" stroke-width="0.00060"></path>
<path d="M1.470 0.961 Q1.782 0.973 1.874 0.823" stroke="hsl(180.0,100%,35%)" stroke-width="0.00090"></path>
<path d="M1.470 0.961 Q1.572 0.924 1.522 0.866" stroke="hsl(180.0,100%,35%)" stroke-width="0.00030"></path>
<path d="M1.470 0.961 Q1.410 0.913 1.304 0.932" stroke="hsl(180.0,100%,35%)" stroke-width="0.00030"></path>
<path d="M1.470 0.961 Q0.968 0.656 0.263 0.833" stroke="hsl(180.0,100%,35%)" stroke-width="0.00030"></path>
<path d="M1.188 0.380 Q0.363 0.421 0.263 0.833" stroke="hsl(180.0,100%,35%)" stroke-width="0.00090"></path>
<path d="M1.188 0.380 Q0.551 0.380 0.411 0.691" stroke="hsl(180.0,100%,35%)" stroke-width="0.00571"></path>
<path d="M1.188 0.380 Q1.168 0.548 1.491 0.594" stroke="hsl(180.0,100%,35%)" stroke-width="0.00360"></path>
<path d="M1.188 0.380 Q1.219 0.585 1.625 0.615" stroke="hsl(180.0,100%,35%)" stroke-width="0.00030"></path>
<path d="M1.188 0.380 Q1.109 0.649 1.618 0.747" stroke="hsl(180.0,100%,35%)" stroke-width="0.00090"></path>
<path d="M1.188 0.380 Q1.013 0.361 0.937 0.442" stroke="hsl(180.0,100%,35%)" stroke-width="0.00661"></path>
<path d="M1.188 0.380 Q0.967 0.690 1.522 0.866" stroke="hsl(180.0,100%,35%)" stroke-width="0.00120"></path>
<path d="M1.188 0.380 Q0.617 0.642 1.004 0.979" stroke="hsl(180.0,100%,35%)" stroke-width="0.00150"></path>
<path d="M1.188 0.380 Q1.226 0.467 1.404 0.467" stroke="hsl(180.0,100%,35%)" stroke-width="0.00180"></path>
<path d="M1.188 0.380 Q0.854 0.444 0.905 0.621" stroke="hsl(180.0,100%,35%)" stroke-width="0.00030"></path>
<path d="M1.188 0.380 Q0.943 0.319 0.771 0.425" stroke="hsl(180.0,100%,35%)" stroke-width="0.00030"></path>
<path d="M1.188 0.380 Q0.805 0.679 1.304 0.932" stroke="hsl(180.0,100%,35%)" stroke-width="0.00030"></path>
<path d="M1.188 0.380 Q1.177 0.739 1.874 0.823" stroke="hsl(180.0,100%,35%)" stroke-width="0.00030"></path>
<path d="M1.625 0.615 Q1.583 0.769 1.874 0.823" stroke="hsl(180.0,100%,35%)" stroke-width="0.00060"></path>
<path d="M1.625 0.615 Q1.271 0.757 1.470 0.961" stroke="hsl(180.0,100%,35%)" stroke-width="0.00030"></path>
<path d="M1.625 0.615 Q1.575 0.578 1.491 0.594" stroke="hsl(180.0,100%,35%)" stroke-width="0.00030"></path>
<path d="M1.625 0.615 Q0.770 0.452 0.263 0.833" stroke="hsl(180.0,100%,35%)" stroke-width="0.00030"></path>
<path d="M1.625 0.615 Q1.516 0.680 1.618 0.747" stroke="hsl(180.0,100%,35%)" stroke-width="0.00330"></path>
<path d="M1.625 0.615 Q1.206 0.339 0.576 0.483" stroke="hsl(180.0,100%,35%)" stroke-width="0.00030"></path>
<path d="M0.183 0.583 Q0.210 0.682 0.411 0.691" stroke="hsl(180.0,100%,35%)" stroke-width="0.00721"></path>
<path d="M0.183 0.583 Q0.828 0.850 1.491 0.594" stroke="hsl(180.0,100%,35%)" stroke-width="0.00030"></path>
<path d="M0.183 0.583 Q0.022 0.724 0.263 0.833" stroke="hsl(180.0,100%,35%)" stroke-width="0.01051"></path>
<path d="M0.183 0.583 Q0.836 1.041 1.874 0.823" stroke="hsl(180.0,100%,35%)" stroke-width="0.00180"></path>
<path d="M0.183 0.583 Q0.464 0.981 1.304 0.932" stroke="hsl(180.0,100%,35%)" stroke-width="0.00030"></path>
<path d="M0.183 0.583 Q0.769 0.952 1.618 0.747" stroke="hsl(180.0,100%,35%)" stroke-width="0.00210"></path>
<path d="M0.183 0.583 Q0.132 0.770 0.488 0.836" stroke="hsl(180.0,100%,35%)" stroke-width="0.00060"></path>
<path d="M0.183 0.583 Q0.277 0.945 1.004 0.979" stroke="hsl(180.0,100%,35%)" stroke-width="0.00030"></path>
<path d="M0.183 0.583 Q0.626 0.992 1.522 0.866" stroke="hsl(180.0,100%,35%)" stroke-width="0.00030"></path>
<path d="M0.183 0.583 Q0.886 0.769 1.404 0.467" stroke="hsl(180.0,100%,35%)" stroke-width="0.00030"></path>
<path d="M1.618 0.747 Q1.060 0.478 0.411 0.691" stroke="hsl(180.0,100%,35%)" stroke-width="0.00931"></path>
<path d="M1.618 0.747 Q0.872 0.519 0.263 0.833" stroke="hsl(180.0,100%,35%)" stroke-width="0.01892"></path>
<path d="M1.618 0.747 Q1.685 0.836 1.874 0.823" stroke="hsl(180.0,100%,35%)" stroke-width="0.02193"></path>
<path d="M1.618 0.747 Q1.727 0.683 1.625 0.615" stroke="hsl(180.0,100%,35%)" stroke-width="0.00180"></path>
<path d="M1.618 0.747 Q1.032 0.378 0.183 0.583" stroke="hsl(180.0,100%,35%)" stroke-width="0.00060"></path>
<path d="M1.618 0.747 Q1.677 0.645 1.491 0.594" stroke="hsl(180.0,100%,35%)" stroke-width="0.00691"></path>
<path d="M1.618 0.747 Q1.313 0.777 1.304 0.932" stroke="hsl(180.0,100%,35%)" stroke-width="0.00120"></path>
<path d="M1.618 0.747 Q1.126 0.740 1.004 0.979" stroke="hsl(180.0,100%,35%)" stroke-width="0.00090"></path>
<path d="M1.618 0.747 Q1.735 0.565 1.404 0.467" stroke="hsl(180.0,100%,35%)" stroke-width="0.00421"></path>
<path d="M1.618 0.747 Q1.697 0.478 1.188 0.380" stroke="hsl(180.0,100%,35%)" stroke-width="0.00390"></path>
<path d="M1.618 0.747 Q1.362 0.541 0.905 0.621" stroke="hsl(180.0,100%,35%)" stroke-width="0.00240"></path>
<path d="M1.618 0.747 Q1.452 0.417 0.771 0.425" stroke="hsl(180.0,100%,35%)" stroke-width="0.00270"></path>
<path d="M1.618 0.747 Q1.563 0.524 1.115 0.501" stroke="hsl(180.0,100%,35%)" stroke-width="0.00240"></path>
<path d="M1.618 0.747 Q1.176 0.479 0.555 0.636" stroke="hsl(180.0,100%,35%)" stroke-width="0.00030"></path>
<path d="M1.618 0.747 Q1.918 0.427 1.359 0.210" stroke="hsl(180.0,100%,35%)" stroke-width="0.00060"></path>
<path d="M1.618 0.747 Q0.981 0.566 0.488 0.836" stroke="hsl(180.0,100%,35%)" stroke-width="0.00060"></path>
<path d="M1.618 0.747 Q1.308 0.407 0.576 0.483" stroke="hsl(180.0,100%,35%)" stroke-width="0.00030"></path>
<path d="M1.618 0.747 Q1.498 0.696 1.371 0.743" stroke="hsl(180.0,100%,35%)" stroke-width="0.00060"></path>
<path d="M1.618 0.747 Q1.522 0.458 0.937 0.442" stroke="hsl(180.0,100%,35%)" stroke-width="0.00030"></path>
<path d="M0.411 0.691 Q0.827 1.000 1.522 0.866" stroke="hsl(180.0,100%,35%)" stroke-width="0.00300"></path>
<path d="M0.411 0.691 Q1.048 0.691 1.188 0.380" stroke="hsl(180.0,100%,35%)" stroke-width="0.00240"></path>
<path d="M0.411 0.691 Q1.086 0.778 1.404 0.467" stroke="hsl(180.0,100%,35%)" stroke-width="0.00150"></path>
<path d="M0.411 0.691 Q0.969 0.960 1.618 0.747" stroke="hsl(180.0,100%,35%)" stroke-width="0.00511"></path>
<path d="M0.411 0.691 Q0.223 0.732 0.263 0.833" stroke="hsl(180.0,100%,35%)" stroke-width="0.01652"></path>
<path d="M0.411 0.691 Q0.477 0.953 1.004 0.979" stroke="hsl(180.0,100%,35%)" stroke-width="0.00150"></path>
<path d="M0.411 0.691 Q1.028 0.859 1.491 0.594" stroke="hsl(180.0,100%,35%)" stroke-width="0.00120"></path>
<path d="M0.411 0.691 Q1.037 1.049 1.874 0.823" stroke="hsl(180.0,100%,35%)" stroke-width="0.00180"></path>
<path d="M0.411 0.691 Q0.383 0.591 0.183 0.583" stroke="hsl(180.0,100%,35%)" stroke-width="0.00360"></path>
<path d="M0.411 0.691 Q0.665 0.990 1.304 0.932" stroke="hsl(180.0,100%,35%)" stroke-width="0.00030"></path>
<path d="M0.411 0.691 Q0.333 0.779 0.488 0.836" stroke="hsl(180.0,100%,35%)" stroke-width="0.00120"></path>
<path d="M0.411 0.691 Q1.079 0.896 1.625 0.615" stroke="hsl(180.0,100%,35%)" stroke-width="0.00030"></path>
<path d="M0.411 0.691 Q0.660 0.620 0.576 0.483" stroke="hsl(180.0,100%,35%)" stroke-width="0.00030"></path>
<path d="M0.411 0.691 Q0.714 0.755 0.905 0.621" stroke="hsl(180.0,100%,35%)" stroke-width="0.00030"></path>
<path d="M0.411 0.691 Q1.270 0.640 1.359 0.210" stroke="hsl(180.0,100%,35%)" stroke-width="0.00030"></path>
<path d="M0.488 0.836 Q0.566 0.748 0.411 0.691" stroke="hsl(180.0,100%,35%)" stroke-width="0.00601"></path>
<path d="M0.488 0.836 Q0.378 0.790 0.263 0.833" stroke="hsl(180.0,100%,35%)" stroke-width="0.00661"></path>
<path d="M0.488 0.836 Q1.124 1.018 1.618 0.747" stroke="hsl(180.0,100%,35%)" stroke-width="0.00030"></path>
<path d="M0.488 0.836 Q0.632 1.011 1.004 0.979" stroke="hsl(180.0,100%,35%)" stroke-width="0.00030"></path>
<path d="M0.488 0.836 Q0.694 0.858 0.781 0.762" stroke="hsl(180.0,100%,35%)" stroke-width="0.00030"></path>
<path d="M0.488 0.836 Q1.191 1.107 1.874 0.823" stroke="hsl(180.0,100%,35%)" stroke-width="0.00030"></path>
<path d="M1.874 0.823 Q1.502 0.763 1.304 0.932" stroke="hsl(180.0,100%,35%)" stroke-width="0.00270"></path>
<path d="M1.874 0.823 Q1.562 0.811 1.470 0.961" stroke="hsl(180.0,100%,35%)" stroke-width="0.00300"></path>
<path d="M1.874 0.823 Q1.865 0.632 1.491 0.594" stroke="hsl(180.0,100%,35%)" stroke-width="0.00871"></path>
<path d="M1.874 0.823 Q1.664 0.774 1.522 0.866" stroke="hsl(180.0,100%,35%)" stroke-width="0.00571"></path>
<path d="M1.874 0.823 Q1.886 0.464 1.188 0.380" stroke="hsl(180.0,100%,35%)" stroke-width="0.00150"></path>
<path d="M1.874 0.823 Q1.221 0.365 0.183 0.583" stroke="hsl(180.0,100%,35%)" stroke-width="0.00090"></path>
<path d="M1.874 0.823 Q1.924 0.551 1.404 0.467" stroke="hsl(180.0,100%,35%)" stroke-width="0.00390"></path>
<path d="M1.874 0.823 Q1.315 0.727 1.004 0.979" stroke="hsl(180.0,100%,35%)" stroke-width="0.00300"></path>
<path d="M1.874 0.823 Q1.376 0.574 0.781 0.762" stroke="hsl(180.0,100%,35%)" stroke-width="0.00060"></path>
<path d="M1.874 0.823 Q1.248 0.464 0.411 0.691" stroke="hsl(180.0,100%,35%)" stroke-width="0.00120"></path>
<path d="M1.874 0.823 Q1.060 0.506 0.263 0.833" stroke="hsl(180.0,100%,35%)" stroke-width="0.01922"></path>
<path d="M1.874 0.823 Q1.497 0.393 0.576 0.483" stroke="hsl(180.0,100%,35%)" stroke-width="0.00030"></path>
<path d="M1.874 0.823 Q1.170 0.552 0.488 0.836" stroke="hsl(180.0,100%,35%)" stroke-width="0.00090"></path>
<path d="M1.874 0.823 Q1.641 0.403 0.771 0.425" stroke="hsl(180.0,100%,35%)" stroke-width="0.00030"></path>
<path d="M1.874 0.823 Q1.807 0.734 1.618 0.747" stroke="hsl(180.0,100%,35%)" stroke-width="0.00691"></path>
<path d="M1.874 0.823 Q1.916 0.669 1.625 0.615" stroke="hsl(180.0,100%,35%)" stroke-width="0.00060"></path>
<path d="M1.115 0.501 Q0.678 0.718 1.004 0.979" stroke="hsl(180.0,100%,35%)" stroke-width="0.00030"></path>
<path d="M1.115 0.501 Q1.287 0.542 1.404 0.467" stroke="hsl(180.0,100%,35%)" stroke-width="0.00330"></path>
<path d="M1.115 0.501 Q1.279 0.660 1.625 0.615" stroke="hsl(180.0,100%,35%)" stroke-width="0.00060"></path>
<path d="M1.115 0.501 Q1.073 0.436 0.937 0.442" stroke="hsl(180.0,100%,35%)" stroke-width="0.00090"></path>
<path d="M1.115 0.501 Q1.249 0.455 1.188 0.380" stroke="hsl(180.0,100%,35%)" stroke-width="0.00360"></path>
<path d="M1.115 0.501 Q1.229 0.623 1.491 0.594" stroke="hsl(180.0,100%,35%)" stroke-width="0.00090"></path>
<path d="M1.115 0.501 Q0.423 0.497 0.263 0.833" stroke="hsl(180.0,100%,35%)" stroke-width="0.00270"></path>
<path d="M1.115 0.501 Q1.170 0.725 1.618 0.747" stroke="hsl(180.0,100%,35%)" stroke-width="0.00060"></path>
<path d="M1.115 0.501 Q0.860 0.384 0.576 0.483" stroke="hsl(180.0,100%,35%)" stroke-width="0.00030"></path>
<path d="M1.115 0.501 Q1.470 0.404 1.359 0.210" stroke="hsl(180.0,100%,35%)" stroke-width="0.00030"></path>
<path d="M1.115 0.501 Q1.152 0.545 1.246 0.537" stroke="hsl(180.0,100%,35%)" stroke-width="0.00030"></path>
<path d="M0.771 0.425 Q0.681 0.550 0.905 0.621" stroke="hsl(0.0,100%,35%)" stroke-width="0.01201"></path>
<path d="M0.771 0.425 Q0.494 0.487 0.555 0.636" stroke="hsl(0.0,100%,35%)" stroke-width="0.00390"></path>
<path d="M0.771 0.425 Q0.445 0.749 1.004 0.979" stroke="hsl(0.0,100%,35%)" stroke-width="0.00030"></path>
<path d="M0.771 0.425 Q0.632 0.785 1.304 0.932" stroke="hsl(0.0,100%,35%)" stroke-width="0.00030"></path>
<path d="M0.771 0.425 Q0.627 0.415 0.576 0.483" stroke="hsl(0.0,100%,35%)" stroke-width="0.00090"></path>
<path d="M0.771 0.425 Q0.937 0.756 1.618 0.747" stroke="hsl(0.0,100%,35%)" stroke-width="0.00060"></path>
<path d="M0.771 0.425 Q1.054 0.573 1.404 0.467" stroke="hsl(0.0,100%,35%)" stroke-width="0.00060"></path>
<path d="M0.771 0.425 Q0.190 0.528 0.263 0.833" stroke="hsl(0.0,100%,35%)" stroke-width="0.00030"></path>
<path d="M0.771 0.425 Q0.351 0.386 0.183 0.583" stroke="hsl(0.0,100%,35%)" stroke-width="0.00030"></path>
<path d="M0.555 0.636 Q0.742 0.698 0.905 0.621" stroke="hsl(0.0,100%,35%)" stroke-width="0.00841"></path>
<path d="M0.555 0.636 Q0.831 0.574 0.771 0.425" stroke="hsl(0.0,100%,35%)" stroke-width="0.00180"></path>
<path d="M0.555 0.636 Q1.298 0.583 1.359 0.210" stroke="hsl(0.0,100%,35%)" stroke-width="0.00150"></path>
<path d="M0.555 0.636 Q0.688 0.563 0.576 0.483" stroke="hsl(0.0,100%,35%)" stroke-width="0.00330"></path>
<path d="M0.555 0.636 Q0.693 0.934 1.304 0.932" stroke="hsl(0.0,100%,35%)" stroke-width="0.00090"></path>
<path d="M0.555 0.636 Q0.505 0.897 1.004 0.979" stroke="hsl(0.0,100%,35%)" stroke-width="0.00150"></path>
<path d="M0.555 0.636 Q1.107 0.839 1.625 0.615" stroke="hsl(0.0,100%,35%)" stroke-width="0.00030"></path>
<path d="M0.555 0.636 Q1.275 0.676 1.513 0.334" stroke="hsl(0.0,100%,35%)" stroke-width="0.00030"></path>
<path d="M1.304 0.932 Q1.117 0.895 1.004 0.979" stroke="hsl(180.0,100%,35%)" stroke-width="0.01862"></path>
<path d="M1.304 0.932 Q1.167 0.634 0.555 0.636" stroke="hsl(180.0,100%,35%)" stroke-width="0.00060"></path>
<path d="M1.304 0.932 Q1.726 0.720 1.404 0.467" stroke="hsl(180.0,100%,35%)" stroke-width="0.00090"></path>
<path d="M1.304 0.932 Q1.178 0.742 0.781 0.762" stroke="hsl(180.0,100%,35%)" stroke-width="0.00060"></path>
<path d="M1.304 0.932 Q1.676 0.991 1.874 0.823" stroke="hsl(180.0,100%,35%)" stroke-width="0.00541"></path>
<path d="M1.304 0.932 Q1.051 0.633 0.411 0.691" stroke="hsl(180.0,100%,35%)" stroke-width="0.00120"></path>
<path d="M0.672 0.651 Q0.812 0.683 0.905 0.621" stroke="hsl(180.0,100%,35%)" stroke-width="0.00030"></path>
<path d="M0.672 0.651 Q0.482 0.519 0.183 0.583" stroke="hsl(180.0,100%,35%)" stroke-width="0.00060"></path>
<path d="M0.672 0.651 Q0.902 0.558 0.771 0.425" stroke="hsl(180.0,100%,35%)" stroke-width="0.00030"></path>
<path d="M0.937 0.442 Q0.475 0.461 0.411 0.691" stroke="hsl(180.0,100%,35%)" stroke-width="0.00060"></path>
<path d="M0.937 0.442 Q0.591 0.462 0.555 0.636" stroke="hsl(180.0,100%,35%)" stroke-width="0.00060"></path>
<path d="M0.937 0.442 Q0.287 0.503 0.263 0.833" stroke="hsl(180.0,100%,35%)" stroke-width="0.00060"></path>
<path d="M0.937 0.442 Q1.150 0.548 1.404 0.467" stroke="hsl(180.0,100%,35%)" stroke-width="0.00060"></path>
<path d="M0.937 0.442 Q1.100 0.820 1.874 0.823" stroke="hsl(180.0,100%,35%)" stroke-width="0.00090"></path>
<path d="M0.937 0.442 Q1.112 0.461 1.188 0.380" stroke="hsl(180.0,100%,35%)" stroke-width="0.00150"></path>
<path d="M0.937 0.442 Q0.890 0.771 1.522 0.866" stroke="hsl(180.0,100%,35%)" stroke-width="0.00060"></path>
<path d="M0.937 0.442 Q1.033 0.731 1.618 0.747" stroke="hsl(180.0,100%,35%)" stroke-width="0.00030"></path>
<path d="M0.937 0.442 Q0.978 0.507 1.115 0.501" stroke="hsl(180.0,100%,35%)" stroke-width="0.00060"></path>
<path d="M1.183 0.530 Q0.480 0.498 0.263 0.833" stroke="hsl(180.0,100%,35%)" stroke-width="0.00060"></path>
<path d="M1.183 0.530 Q1.285 0.624 1.491 0.594" stroke="hsl(180.0,100%,35%)" stroke-width="0.00030"></path>
<path d="M1.183 0.530 Q1.344 0.543 1.404 0.467" stroke="hsl(180.0,100%,35%)" stroke-width="0.00030"></path>
<path d="M1.067 0.464 Q1.175 0.614 1.491 0.594" stroke="hsl(180.0,100%,35%)" stroke-width="0.00060"></path>
<path d="M1.067 0.464 Q1.233 0.533 1.404 0.467" stroke="hsl(180.0,100%,35%)" stroke-width="0.00090"></path>
<path d="M1.067 0.464 Q0.871 0.793 1.470 0.961" stroke="hsl(180.0,100%,35%)" stroke-width="0.00030"></path>
<path d="M1.067 0.464 Q1.195 0.446 1.188 0.380" stroke="hsl(180.0,100%,35%)" stroke-width="0.00060"></path>
<path d="M1.196 0.557 Q1.314 0.635 1.491 0.594" stroke="hsl(180.0,100%,35%)" stroke-width="0.00210"></path>
<path d="M1.196 0.557 Q1.162 0.558 1.157 0.575" stroke="hsl(180.0,100%,35%)" stroke-width="0.00030"></path>
<path d="M1.196 0.557 Q1.372 0.554 1.404 0.467" stroke="hsl(180.0,100%,35%)" stroke-width="0.00030"></path>
<path d="M1.196 0.557 Q1.903 0.471 1.890 0.107" stroke="hsl(180.0,100%,35%)" stroke-width="0.00030"></path>
<path d="M1.459 0.405 Q0.519 0.380 0.263 0.833" stroke="hsl(180.0,100%,35%)" stroke-width="0.00030"></path>
<path d="M1.459 0.405 Q0.679 0.239 0.183 0.583" stroke="hsl(180.0,100%,35%)" stroke-width="0.00030"></path>
<path d="M1.459 0.405 Q1.344 0.338 1.188 0.380" stroke="hsl(180.0,100%,35%)" stroke-width="0.00030"></path>
<path d="M1.459 0.405 Q1.382 0.425 1.404 0.467" stroke="hsl(180.0,100%,35%)" stroke-width="0.00060"></path>
<path d="M1.645 0.965 Q1.059 0.622 0.263 0.833" stroke="hsl(180.0,100%,35%)" stroke-width="0.00030"></path>
<path d="M1.645 0.965 Q1.663 0.891 1.522 0.866" stroke="hsl(180.0,100%,35%)" stroke-width="0.00090"></path>
<path d="M1.645 0.965 Q1.885 0.581 1.188 0.380" stroke="hsl(180.0,100%,35%)" stroke-width="0.00060"></path>
<path d="M0.866 0.360 Q1.210 0.476 1.513 0.334" stroke="hsl(0.0,100%,35%)" stroke-width="0.00030"></path>
<path d="M0.866 0.360 Q0.677 0.498 0.905 0.621" stroke="hsl(0.0,100%,35%)" stroke-width="0.00060"></path>
<path d="M0.866 0.360 Q1.049 0.521 1.404 0.467" stroke="hsl(0.0,100%,35%)" stroke-width="0.00030"></path>
<path d="M1.251 0.647 Q1.413 0.669 1.491 0.594" stroke="hsl(180.0,100%,35%)" stroke-width="0.00360"></path>
<path d="M1.251 0.647 Q0.619 0.710 0.602 1.032" stroke="hsl(180.0,100%,35%)" stroke-width="0.00300"></path>
<path d="M1.251 0.647 Q0.912 0.502 0.555 0.636" stroke="hsl(180.0,100%,35%)" stroke-width="0.00030"></path>
<path d="M1.251 0.647 Q1.188 0.440 0.771 0.425" stroke="hsl(180.0,100%,35%)" stroke-width="0.00030"></path>
<path d="M1.251 0.647 Q0.862 0.764 1.004 0.979" stroke="hsl(180.0,100%,35%)" stroke-width="0.00060"></path>
<path d="M1.251 0.647 Q1.797 0.414 1.463 0.096" stroke="hsl(180.0,100%,35%)" stroke-width="0.00030"></path>
<path d="M1.251 0.647 Q1.655 0.450 1.359 0.210" stroke="hsl(180.0,100%,35%)" stroke-width="0.00090"></path>
<path d="M0.602 1.032 Q1.397 0.991 1.491 0.594" stroke="hsl(180.0,100%,35%)" stroke-width="0.00060"></path>
<path d="M0.602 1.032 Q0.752 0.723 0.183 0.583" stroke="hsl(180.0,100%,35%)" stroke-width="0.00030"></path>
<path d="M0.602 1.032 Q1.417 0.823 1.188 0.380" stroke="hsl(180.0,100%,35%)" stroke-width="0.00030"></path>
<path d="M0.482 0.368 Q1.047 0.464 1.359 0.210" stroke="hsl(0.0,100%,35%)" stroke-width="0.00120"></path>
<path d="M0.482 0.368 Q0.609 0.345 0.591 0.277" stroke="hsl(0.0,100%,35%)" stroke-width="0.00150"></path>
<path d="M0.482 0.368 Q0.491 0.579 0.905 0.621" stroke="hsl(0.0,100%,35%)" stroke-width="0.00060"></path>
<path d="M0.482 0.368 Q0.864 0.602 1.404 0.467" stroke="hsl(0.0,100%,35%)" stroke-width="0.00030"></path>
<path d="M0.548 0.118 Q0.440 0.050 0.284 0.088" stroke="hsl(0.0,100%,35%)" stroke-width="0.00030"></path>
<path d="M0.548 0.118 Q0.275 0.676 1.304 0.932" stroke="hsl(0.0,100%,35%)" stroke-width="0.00030"></path>
<path d="M0.548 0.118 Q0.881 0.326 1.359 0.210" stroke="hsl(0.0,100%,35%)" stroke-width="0.00030"></path>
<path d="M1.070 0.217 Q0.988 0.681 1.874 0.823" stroke="hsl(180.0,100%,35%)" stroke-width="0.00120"></path>
<path d="M1.070 0.217 Q0.478 0.323 0.555 0.636" stroke="hsl(180.0,100%,35%)" stroke-width="0.00030"></path>
<path d="M1.070 0.217 Q0.428 0.585 1.004 0.979" stroke="hsl(180.0,100%,35%)" stroke-width="0.00090"></path>
<path d="M1.070 0.217 Q0.999 0.322 1.188 0.380" stroke="hsl(180.0,100%,35%)" stroke-width="0.00120"></path>
<path d="M1.070 0.217 Q0.979 0.490 1.491 0.594" stroke="hsl(180.0,100%,35%)" stroke-width="0.00060"></path>
<path d="M1.070 0.217 Q0.362 0.322 0.411 0.691" stroke="hsl(180.0,100%,35%)" stroke-width="0.00030"></path>
<path d="M1.070 0.217 Q0.616 0.621 1.304 0.932" stroke="hsl(180.0,100%,35%)" stroke-width="0.00030"></path>
<path d="M0.359 1.011 Q1.259 1.029 1.491 0.594" stroke="hsl(180.0,100%,35%)" stroke-width="0.00751"></path>
<path d="M0.359 1.011 Q0.464 1.070 0.602 1.032" stroke="hsl(180.0,100%,35%)" stroke-width="0.00931"></path>
<path d="M0.359 1.011 Q1.279 0.861 1.188 0.380" stroke="hsl(180.0,100%,35%)" stroke-width="0.00060"></path>
<path d="M0.359 1.011 Q0.944 0.925 0.905 0.621" stroke="hsl(180.0,100%,35%)" stroke-width="0.00030"></path>
<path d="M0.359 1.011 Q0.708 1.124 1.004 0.979" stroke="hsl(180.0,100%,35%)" stroke-width="0.00330"></path>
<path d="M0.359 1.011 Q0.895 1.160 1.304 0.932" stroke="hsl(180.0,100%,35%)" stroke-width="0.00030"></path>
<path d="M0.359 1.011 Q0.757 0.862 0.555 0.636" stroke="hsl(180.0,100%,35%)" stroke-width="0.00060"></path>
<path d="M0.359 1.011 Q1.500 0.810 1.359 0.210" stroke="hsl(180.0,100%,35%)" stroke-width="0.00030"></path>
<path d="M0.070 0.343 Q0.588 0.944 1.874 0.823" stroke="hsl(180.0,100%,35%)" stroke-width="0.00030"></path>
<path d="M0.070 0.343 Q0.187 0.296 0.120 0.229" stroke="hsl(180.0,100%,35%)" stroke-width="0.00030"></path>
<path d="M0.070 0.343 Q0.244 0.341 0.278 0.256" stroke="hsl(180.0,100%,35%)" stroke-width="0.00030"></path>
<path d="M1.852 0.463 Q1.575 0.648 1.874 0.823" stroke="hsl(180.0,100%,35%)" stroke-width="0.00030"></path>
<path d="M1.852 0.463 Q1.617 0.494 1.625 0.615" stroke="hsl(180.0,100%,35%)" stroke-width="0.00030"></path>
<path d="M1.852 0.463 Q1.625 0.376 1.404 0.467" stroke="hsl(180.0,100%,35%)" stroke-width="0.00030"></path>
<path d="M0.791 0.721 Q0.928 0.694 0.905 0.621" stroke="hsl(0.0,100%,35%)" stroke-width="0.00030"></path>
<path d="M0.791 0.721 Q1.184 0.900 1.618 0.747" stroke="hsl(0.0,100%,35%)" stroke-width="0.00030"></path>
<path d="M0.791 0.721 Q1.485 0.579 1.359 0.210" stroke="hsl(0.0,100%,35%)" stroke-width="0.00030"></path>
<path d="M1.028 0.739 Q1.376 0.760 1.491 0.594" stroke="hsl(180.0,100%,35%)" stroke-width="0.00060"></path>
<path d="M1.028 0.739 Q1.965 0.596 1.890 0.107" stroke="hsl(180.0,100%,35%)" stroke-width="0.00030"></path>
<path d="M1.028 0.739 Q1.258 0.682 1.196 0.557" stroke="hsl(180.0,100%,35%)" stroke-width="0.00030"></path>
<path d="M1.177 0.729 Q1.661 0.599 1.513 0.334" stroke="hsl(180.0,100%,35%)" stroke-width="0.00030"></path>
<path d="M1.177 0.729 Q1.450 0.915 1.874 0.823" stroke="hsl(180.0,100%,35%)" stroke-width="0.00030"></path>
<path d="M1.177 0.729 Q1.442 0.724 1.491 0.594" stroke="hsl(180.0,100%,35%)" stroke-width="0.00090"></path>
<path d="M1.767 0.069 Q1.798 0.113 1.890 0.107" stroke="hsl(180.0,100%,35%)" stroke-width="0.00060"></path>
<path d="M1.767 0.069 Q1.209 0.277 1.491 0.594" stroke="hsl(180.0,100%,35%)" stroke-width="0.00030"></path>
<path d="M1.767 0.069 Q1.259 0.314 1.625 0.615" stroke="hsl(180.0,100%,35%)" stroke-width="0.00030"></path>
<path d="M0.285 0.365 Q-0.101 0.595 0.263 0.833" stroke="hsl(180.0,100%,35%)" stroke-width="0.00030"></path>
<path d="M0.285 0.365 Q0.311 0.264 0.120 0.229" stroke="hsl(180.0,100%,35%)" stroke-width="0.00030"></path>
<path d="M0.285 0.365 Q0.368 0.309 0.278 0.256" stroke="hsl(180.0,100%,35%)" stroke-width="0.00030"></path>
<path d="M0.942 0.813 Q1.028 0.945 1.304 0.932" stroke="hsl(180.0,100%,35%)" stroke-width="0.00030"></path>
<path d="M0.942 0.813 Q0.902 0.755 0.781 0.762" stroke="hsl(180.0,100%,35%)" stroke-width="0.00030"></path>
<path d="M0.942 0.813 Q0.890 0.647 0.555 0.636" stroke="hsl(180.0,100%,35%)" stroke-width="0.00030"></path>
<path d="M0.942 0.813 Q1.449 0.733 1.404 0.467" stroke="hsl(180.0,100%,35%)" stroke-width="0.00030"></path>
<path d="M0.942 0.813 Q1.023 0.574 0.576 0.483" stroke="hsl(180.0,100%,35%)" stroke-width="0.00030"></path>
<path d="M0.942 0.813 Q1.633 0.595 1.359 0.210" stroke="hsl(180.0,100%,35%)" stroke-width="0.00030"></path>
<path d="M0.942 0.813 Q1.190 0.955 1.522 0.866" stroke="hsl(180.0,100%,35%)" stroke-width="0.00030"></path>
<path d="M0.942 0.813 Q1.412 0.646 1.188 0.380" stroke="hsl(180.0,100%,35%)" stroke-width="0.00030"></path>
</g>
<text x="1.463" y="0.084" font-size="0.025136" fill="hsl(0.0,100%,20%)">aixba</text>
<text x="1.632" y="0.213" font-size="0.041047" fill="hsl(0.0,100%,20%)">cjamcl</text>
<text x="1.359" y="0.189" font-size="0.041635" fill="hsl(0.0,100%,20%)">paulirish</text>
<text x="1.513" y="0.317" font-size="0.034858" fill="hsl(0.0,100%,20%)">asraine</text>
<text x="0.905" y="0.594" font-size="0.053776" fill="hsl(0.0,100%,20%)">jacktfranklin</text>
<text x="0.576" y="0.467" font-size="0.031565" fill="hsl(0.0,100%,20%)">andoli</text>
<text x="1.491" y="0.570" font-size="0.047964" fill="hsl(180.0,100%,20%)">dsv</text>
<text x="1.224" y="-0.257" font-size="0.008050" fill="hsl(180.0,100%,20%)">aksen5240</text>
<text x="1.522" y="0.854" font-size="0.022946" fill="hsl(180.0,100%,20%)">changhaohan</text>
<text x="1.404" y="0.448" font-size="0.039540" fill="hsl(180.0,100%,20%)">szuend</text>
<text x="0.263" y="0.801" font-size="0.063641" fill="hsl(180.0,100%,20%)">alexrudenko</text>
<text x="1.004" y="0.954" font-size="0.048468" fill="hsl(180.0,100%,20%)">kimanh</text>
<text x="1.470" y="0.951" font-size="0.019512" fill="hsl(180.0,100%,20%)">yangguo</text>
<text x="1.188" y="0.359" font-size="0.040850" fill="hsl(180.0,100%,20%)">pfaffe</text>
<text x="1.625" y="0.606" font-size="0.017774" fill="hsl(180.0,100%,20%)">mathias</text>
<text x="0.183" y="0.567" font-size="0.031307" fill="hsl(180.0,100%,20%)">wolfi</text>
<text x="1.618" y="0.718" font-size="0.057910" fill="hsl(180.0,100%,20%)">nvitkov</text>
<text x="0.411" y="0.665" font-size="0.050993" fill="hsl(180.0,100%,20%)">ergunsh</text>
<text x="0.488" y="0.825" font-size="0.022229" fill="hsl(180.0,100%,20%)">samiyac</text>
<text x="1.874" y="0.794" font-size="0.057840" fill="hsl(180.0,100%,20%)">bmeurer</text>
<text x="1.115" y="0.490" font-size="0.021675" fill="hsl(180.0,100%,20%)">liviurau</text>
<text x="0.771" y="0.410" font-size="0.031178" fill="hsl(0.0,100%,20%)">alinavarkki</text>
<text x="0.555" y="0.620" font-size="0.030917" fill="hsl(0.0,100%,20%)">nancyly</text>
<text x="1.304" y="0.911" font-size="0.041342" fill="hsl(180.0,100%,20%)">kprokopenko</text>
<text x="0.672" y="0.648" font-size="0.005692" fill="hsl(180.0,100%,20%)">amarjotgill</text>
<text x="0.937" y="0.431" font-size="0.021862" fill="hsl(180.0,100%,20%)">leese</text>
<text x="1.183" y="0.527" font-size="0.005692" fill="hsl(180.0,100%,20%)">apavlov</text>
<text x="0.781" y="0.758" font-size="0.006972" fill="hsl(180.0,100%,20%)">petermueller</text>
<text x="1.067" y="0.460" font-size="0.008050" fill="hsl(180.0,100%,20%)">cwu631</text>
<text x="1.196" y="0.552" font-size="0.009859" fill="hsl(180.0,100%,20%)">kenoss</text>
<text x="1.459" y="0.402" font-size="0.006364" fill="hsl(180.0,100%,20%)">elormcoch</text>
<text x="1.645" y="0.961" font-size="0.006972" fill="hsl(180.0,100%,20%)">futhark</text>
<text x="0.866" y="0.357" font-size="0.005692" fill="hsl(0.0,100%,20%)">hocheung</text>
<text x="1.251" y="0.639" font-size="0.015589" fill="hsl(180.0,100%,20%)">jalonthomas</text>
<text x="0.602" y="1.022" font-size="0.019092" fill="hsl(180.0,100%,20%)">shuuran</text>
<text x="0.482" y="0.363" font-size="0.009859" fill="hsl(0.0,100%,20%)">jaysonchen</text>
<text x="0.591" y="0.274" font-size="0.006364" fill="hsl(0.0,100%,20%)">rob.paveza</text>
<text x="0.548" y="0.116" font-size="0.004930" fill="hsl(0.0,100%,20%)">kenneth.r.christiansen</text>
<text x="0.284" y="0.087" font-size="0.002846" fill="hsl(0.0,100%,20%)">jec</text>
<text x="1.157" y="0.574" font-size="0.002846" fill="hsl(180.0,100%,20%)">lingqi</text>
<text x="1.890" y="0.104" font-size="0.005692" fill="hsl(180.0,100%,20%)">domenic</text>
<text x="1.246" y="0.535" font-size="0.002846" fill="hsl(180.0,100%,20%)">alexschulze</text>
<text x="1.070" y="0.212" font-size="0.011385" fill="hsl(180.0,100%,20%)">marcelpuetz</text>
<text x="0.359" y="0.999" font-size="0.024483" fill="hsl(180.0,100%,20%)">masnoble</text>
<text x="0.070" y="0.341" font-size="0.004930" fill="hsl(180.0,100%,20%)">monicach</text>
<text x="0.120" y="0.227" font-size="0.004025" fill="hsl(180.0,100%,20%)">sisidovski</text>
<text x="0.278" y="0.254" font-size="0.004025" fill="hsl(180.0,100%,20%)">yyanagisawa</text>
<text x="1.371" y="0.741" font-size="0.004025" fill="hsl(180.0,100%,20%)">victorporof</text>
<text x="1.852" y="0.461" font-size="0.004930" fill="hsl(180.0,100%,20%)">petermarshall</text>
<text x="0.791" y="0.719" font-size="0.004930" fill="hsl(0.0,100%,20%)">petrcermak</text>
<text x="1.028" y="0.737" font-size="0.005692" fill="hsl(180.0,100%,20%)">robertlin</text>
<text x="1.177" y="0.726" font-size="0.006364" fill="hsl(180.0,100%,20%)">semel</text>
<text x="1.767" y="0.066" font-size="0.005692" fill="hsl(180.0,100%,20%)">stevenwei</text>
<text x="0.285" y="0.362" font-size="0.004930" fill="hsl(180.0,100%,20%)">suzukikeita</text>
<text x="0.942" y="0.809" font-size="0.008050" fill="hsl(180.0,100%,20%)">yanlingwang</text>
</svg>
