<svg width="4000" height="2000" viewBox="-0.025 -0.025 2.05 1.05" xmlns="http://www.w3.org/2000/svg">
  <style>
    path {
      fill: none;
      stroke-linecap: round;
      stroke-opacity: 0.4;
    }

    text {
      text-anchor: middle;
      alignment-baseline: hanging;
    }
  </style>
  <g opacity="0.4">
<path d="M1.803 0.315 Q1.810 0.220 1.625 0.195" stroke="hsl(0.0,100%,35%)" stroke-width="0.01344"></path>
<path d="M1.803 0.315 Q1.684 0.132 1.301 0.150" stroke="hsl(0.0,100%,35%)" stroke-width="0.00896"></path>
<path d="M1.803 0.315 Q1.080 0.450 1.184 0.832" stroke="hsl(0.0,100%,35%)" stroke-width="0.00896"></path>
<path d="M1.803 0.315 Q1.492 0.568 1.915 0.775" stroke="hsl(0.0,100%,35%)" stroke-width="0.00896"></path>
<path d="M1.803 0.315 Q1.118 0.380 1.094 0.729" stroke="hsl(0.0,100%,35%)" stroke-width="0.00896"></path>
<path d="M1.625 0.195 Q1.617 0.291 1.803 0.315" stroke="hsl(0.0,100%,35%)" stroke-width="0.01344"></path>
<path d="M1.625 0.195 Q1.538 0.216 1.560 0.263" stroke="hsl(0.0,100%,35%)" stroke-width="0.00448"></path>
<path d="M1.625 0.195 Q1.179 0.048 0.793 0.233" stroke="hsl(0.0,100%,35%)" stroke-width="0.00448"></path>
<path d="M1.301 0.150 Q0.735 0.398 1.094 0.729" stroke="hsl(0.0,100%,35%)" stroke-width="0.02689"></path>
<path d="M1.301 0.150 Q0.981 0.090 0.793 0.233" stroke="hsl(0.0,100%,35%)" stroke-width="0.03137"></path>
<path d="M1.301 0.150 Q1.427 0.237 1.625 0.195" stroke="hsl(0.0,100%,35%)" stroke-width="0.01344"></path>
<path d="M1.301 0.150 Q0.697 0.468 1.184 0.832" stroke="hsl(0.0,100%,35%)" stroke-width="0.00448"></path>
<path d="M1.301 0.150 Q0.428 0.162 0.261 0.591" stroke="hsl(0.0,100%,35%)" stroke-width="0.01344"></path>
<path d="M1.301 0.150 Q1.420 0.333 1.803 0.315" stroke="hsl(0.0,100%,35%)" stroke-width="0.01344"></path>
<path d="M1.301 0.150 Q1.108 0.585 1.915 0.775" stroke="hsl(0.0,100%,35%)" stroke-width="0.00448"></path>
<path d="M1.301 0.150 Q1.261 0.055 1.067 0.054" stroke="hsl(0.0,100%,35%)" stroke-width="0.00448"></path>
<path d="M1.301 0.150 Q1.071 0.389 1.486 0.554" stroke="hsl(0.0,100%,35%)" stroke-width="0.00448"></path>
<path d="M1.301 0.150 Q1.148 0.499 1.794 0.650" stroke="hsl(0.0,100%,35%)" stroke-width="0.00448"></path>
<path d="M1.094 0.729 Q1.245 0.688 1.198 0.605" stroke="hsl(0.0,100%,35%)" stroke-width="0.00448"></path>
<path d="M1.094 0.729 Q1.057 0.798 1.184 0.832" stroke="hsl(0.0,100%,35%)" stroke-width="0.02241"></path>
<path d="M1.094 0.729 Q1.661 0.481 1.301 0.150" stroke="hsl(0.0,100%,35%)" stroke-width="0.01344"></path>
<path d="M1.094 0.729 Q1.506 0.498 1.146 0.247" stroke="hsl(0.0,100%,35%)" stroke-width="0.00448"></path>
<path d="M1.094 0.729 Q1.341 0.421 0.793 0.233" stroke="hsl(0.0,100%,35%)" stroke-width="0.00896"></path>
<path d="M0.793 0.233 Q1.232 0.476 1.803 0.315" stroke="hsl(0.0,100%,35%)" stroke-width="0.00896"></path>
<path d="M0.793 0.233 Q0.921 0.728 1.915 0.775" stroke="hsl(0.0,100%,35%)" stroke-width="0.00448"></path>
<path d="M0.793 0.233 Q1.113 0.293 1.301 0.150" stroke="hsl(0.0,100%,35%)" stroke-width="0.00448"></path>
<path d="M1.560 0.263 Q1.201 0.095 0.793 0.233" stroke="hsl(0.0,100%,35%)" stroke-width="0.00448"></path>
<path d="M1.560 0.263 Q1.647 0.242 1.625 0.195" stroke="hsl(0.0,100%,35%)" stroke-width="0.00448"></path>
<path d="M1.560 0.263 Q1.521 0.155 1.301 0.150" stroke="hsl(0.0,100%,35%)" stroke-width="0.00896"></path>
<path d="M1.560 0.263 Q1.640 0.338 1.803 0.315" stroke="hsl(0.0,100%,35%)" stroke-width="0.00896"></path>
<path d="M0.261 0.591 Q0.034 0.762 0.318 0.910" stroke="hsl(0.0,100%,35%)" stroke-width="0.01793"></path>
<path d="M0.261 0.591 Q1.252 0.762 1.803 0.315" stroke="hsl(0.0,100%,35%)" stroke-width="0.02689"></path>
<path d="M0.261 0.591 Q0.067 0.616 0.074 0.716" stroke="hsl(0.0,100%,35%)" stroke-width="0.01793"></path>
<path d="M0.261 0.591 Q1.259 0.666 1.625 0.195" stroke="hsl(0.0,100%,35%)" stroke-width="0.00448"></path>
<path d="M0.261 0.591 Q0.718 0.785 1.198 0.605" stroke="hsl(0.0,100%,35%)" stroke-width="0.00448"></path>
<path d="M0.261 0.591 Q0.764 0.930 1.537 0.760" stroke="hsl(0.0,100%,35%)" stroke-width="0.00448"></path>
<path d="M1.486 0.554 Q1.563 0.664 1.794 0.650" stroke="hsl(0.0,100%,35%)" stroke-width="0.00896"></path>
<path d="M1.486 0.554 Q1.112 0.633 1.184 0.832" stroke="hsl(0.0,100%,35%)" stroke-width="0.00448"></path>
<path d="M1.486 0.554 Q1.524 0.750 1.915 0.775" stroke="hsl(0.0,100%,35%)" stroke-width="0.00448"></path>
<path d="M1.794 0.650 Q1.717 0.540 1.486 0.554" stroke="hsl(0.0,100%,35%)" stroke-width="0.00448"></path>
<path d="M1.794 0.650 Q2.066 0.485 1.803 0.315" stroke="hsl(0.0,100%,35%)" stroke-width="0.00448"></path>
<path d="M1.794 0.650 Q1.755 0.737 1.915 0.775" stroke="hsl(0.0,100%,35%)" stroke-width="0.00896"></path>
<path d="M1.794 0.650 Q0.881 0.339 0.074 0.716" stroke="hsl(0.0,100%,35%)" stroke-width="0.00448"></path>
<path d="M1.794 0.650 Q1.577 0.653 1.537 0.760" stroke="hsl(0.0,100%,35%)" stroke-width="0.00448"></path>
</g>
<text x="1.803" y="0.276" font-size="0.078019" fill="hsl(0.0,100%,20%)">alexrudenko</text>
<text x="1.625" y="0.168" font-size="0.053161" fill="hsl(0.0,100%,20%)">ergunsh</text>
<text x="1.301" y="0.107" font-size="0.087228" fill="hsl(0.0,100%,20%)">nvitkov</text>
<text x="1.184" y="0.810" font-size="0.044233" fill="hsl(0.0,100%,20%)">pfaffe</text>
<text x="1.915" y="0.755" font-size="0.039009" fill="hsl(0.0,100%,20%)">szuend</text>
<text x="1.094" y="0.696" font-size="0.065938" fill="hsl(0.0,100%,20%)">dsv</text>
<text x="0.793" y="0.204" font-size="0.057104" fill="hsl(0.0,100%,20%)">bmeurer</text>
<text x="1.198" y="0.594" font-size="0.020851" fill="hsl(0.0,100%,20%)">kimanh</text>
<text x="1.146" y="0.240" font-size="0.014744" fill="hsl(0.0,100%,20%)">changhaohan</text>
<text x="1.560" y="0.244" font-size="0.039009" fill="hsl(0.0,100%,20%)">wolfi</text>
<text x="0.261" y="0.558" font-size="0.065938" fill="hsl(0.0,100%,20%)">jacktfranklin</text>
<text x="0.318" y="0.895" font-size="0.029488" fill="hsl(0.0,100%,20%)">alinavarkki</text>
<text x="0.074" y="0.700" font-size="0.032969" fill="hsl(0.0,100%,20%)">andoli</text>
<text x="1.537" y="0.749" font-size="0.020851" fill="hsl(0.0,100%,20%)">paulirish</text>
<text x="1.486" y="0.536" font-size="0.036116" fill="hsl(0.0,100%,20%)">leese</text>
<text x="1.794" y="0.628" font-size="0.044233" fill="hsl(0.0,100%,20%)">liviurau</text>
<text x="1.067" y="0.047" font-size="0.014744" fill="hsl(0.0,100%,20%)">victorporof</text>
</svg>
