<svg width="4000" height="2000" viewBox="-0.025 -0.025 2.05 1.05" xmlns="http://www.w3.org/2000/svg">
  <style>
    path {
      fill: none;
      stroke-linecap: round;
      stroke-opacity: 0.4;
    }

    text {
      text-anchor: middle;
      alignment-baseline: hanging;
    }
  </style>
  <g opacity="0.4">
<path d="M1.633 0.231 Q1.459 0.203 1.366 0.282" stroke="hsl(0.0,100%,35%)" stroke-width="0.00182"></path>
<path d="M1.633 0.231 Q1.596 0.134 1.400 0.131" stroke="hsl(0.0,100%,35%)" stroke-width="0.00364"></path>
<path d="M1.633 0.231 Q1.285 0.509 1.750 0.740" stroke="hsl(0.0,100%,35%)" stroke-width="0.00182"></path>
<path d="M1.366 0.282 Q1.503 0.213 1.400 0.131" stroke="hsl(0.0,100%,35%)" stroke-width="0.01638"></path>
<path d="M1.366 0.282 Q1.358 0.192 1.180 0.175" stroke="hsl(0.0,100%,35%)" stroke-width="0.02002"></path>
<path d="M1.366 0.282 Q0.700 0.301 0.591 0.630" stroke="hsl(0.0,100%,35%)" stroke-width="0.00182"></path>
<path d="M1.366 0.282 Q0.814 0.433 0.987 0.735" stroke="hsl(0.0,100%,35%)" stroke-width="0.00182"></path>
<path d="M1.366 0.282 Q1.540 0.310 1.633 0.231" stroke="hsl(0.0,100%,35%)" stroke-width="0.00182"></path>
<path d="M1.366 0.282 Q1.192 0.588 1.750 0.740" stroke="hsl(0.0,100%,35%)" stroke-width="0.00182"></path>
<path d="M1.366 0.282 Q0.805 0.041 0.212 0.262" stroke="hsl(0.0,100%,35%)" stroke-width="0.00182"></path>
<path d="M1.400 0.131 Q1.255 0.110 1.180 0.175" stroke="hsl(0.0,100%,35%)" stroke-width="0.00910"></path>
<path d="M1.400 0.131 Q0.328 0.249 0.321 0.797" stroke="hsl(0.0,100%,35%)" stroke-width="0.00182"></path>
<path d="M1.400 0.131 Q1.262 0.200 1.366 0.282" stroke="hsl(0.0,100%,35%)" stroke-width="0.02184"></path>
<path d="M1.400 0.131 Q1.437 0.228 1.633 0.231" stroke="hsl(0.0,100%,35%)" stroke-width="0.00182"></path>
<path d="M1.400 0.131 Q1.088 0.505 1.750 0.740" stroke="hsl(0.0,100%,35%)" stroke-width="0.00182"></path>
<path d="M1.750 0.740 Q1.578 0.458 0.990 0.480" stroke="hsl(0.0,100%,35%)" stroke-width="0.00182"></path>
<path d="M1.750 0.740 Q1.693 0.665 1.534 0.676" stroke="hsl(0.0,100%,35%)" stroke-width="0.00728"></path>
<path d="M1.750 0.740 Q2.061 0.365 1.400 0.131" stroke="hsl(0.0,100%,35%)" stroke-width="0.00182"></path>
<path d="M1.750 0.740 Q1.551 0.703 1.437 0.792" stroke="hsl(0.0,100%,35%)" stroke-width="0.00364"></path>
<path d="M1.750 0.740 Q1.884 0.540 1.525 0.431" stroke="hsl(0.0,100%,35%)" stroke-width="0.00182"></path>
<path d="M1.750 0.740 Q1.499 0.786 1.533 0.918" stroke="hsl(0.0,100%,35%)" stroke-width="0.00364"></path>
<path d="M1.750 0.740 Q1.372 0.585 0.987 0.735" stroke="hsl(0.0,100%,35%)" stroke-width="0.00364"></path>
<path d="M1.750 0.740 Q0.989 0.483 0.321 0.797" stroke="hsl(0.0,100%,35%)" stroke-width="0.00182"></path>
<path d="M1.750 0.740 Q1.916 0.344 1.180 0.175" stroke="hsl(0.0,100%,35%)" stroke-width="0.00182"></path>
<path d="M1.750 0.740 Q1.924 0.434 1.366 0.282" stroke="hsl(0.0,100%,35%)" stroke-width="0.00182"></path>
<path d="M1.534 0.676 Q1.698 0.625 1.633 0.533" stroke="hsl(180.0,100%,35%)" stroke-width="0.01638"></path>
<path d="M1.534 0.676 Q1.319 0.538 1.002 0.613" stroke="hsl(180.0,100%,35%)" stroke-width="0.01274"></path>
<path d="M1.534 0.676 Q1.758 0.355 1.180 0.175" stroke="hsl(180.0,100%,35%)" stroke-width="0.00182"></path>
<path d="M1.534 0.676 Q1.214 0.596 0.987 0.735" stroke="hsl(180.0,100%,35%)" stroke-width="0.01638"></path>
<path d="M1.534 0.676 Q1.592 0.751 1.750 0.740" stroke="hsl(180.0,100%,35%)" stroke-width="0.00364"></path>
<path d="M1.534 0.676 Q1.766 0.446 1.366 0.282" stroke="hsl(180.0,100%,35%)" stroke-width="0.00182"></path>
<path d="M1.534 0.676 Q0.831 0.494 0.321 0.797" stroke="hsl(180.0,100%,35%)" stroke-width="0.00182"></path>
<path d="M1.534 0.676 Q1.420 0.469 0.990 0.480" stroke="hsl(180.0,100%,35%)" stroke-width="0.00182"></path>
<path d="M1.633 0.533 Q1.469 0.585 1.534 0.676" stroke="hsl(180.0,100%,35%)" stroke-width="0.02548"></path>
<path d="M1.633 0.533 Q1.254 0.447 1.002 0.613" stroke="hsl(180.0,100%,35%)" stroke-width="0.01638"></path>
<path d="M1.633 0.533 Q1.345 0.681 1.570 0.854" stroke="hsl(180.0,100%,35%)" stroke-width="0.00364"></path>
<path d="M1.633 0.533 Q1.354 0.378 0.990 0.480" stroke="hsl(180.0,100%,35%)" stroke-width="0.00182"></path>
<path d="M1.633 0.533 Q0.766 0.403 0.321 0.797" stroke="hsl(180.0,100%,35%)" stroke-width="0.00728"></path>
<path d="M1.633 0.533 Q1.140 0.113 0.212 0.262" stroke="hsl(180.0,100%,35%)" stroke-width="0.00364"></path>
<path d="M1.633 0.533 Q0.999 0.147 0.106 0.371" stroke="hsl(180.0,100%,35%)" stroke-width="0.00182"></path>
<path d="M1.633 0.533 Q1.148 0.505 0.987 0.735" stroke="hsl(180.0,100%,35%)" stroke-width="0.00182"></path>
<path d="M1.633 0.533 Q1.035 0.373 0.591 0.630" stroke="hsl(180.0,100%,35%)" stroke-width="0.00364"></path>
<path d="M1.002 0.613 Q1.103 0.544 0.990 0.480" stroke="hsl(180.0,100%,35%)" stroke-width="0.00364"></path>
<path d="M1.002 0.613 Q1.217 0.751 1.534 0.676" stroke="hsl(180.0,100%,35%)" stroke-width="0.01638"></path>
<path d="M1.002 0.613 Q0.958 0.669 1.057 0.703" stroke="hsl(180.0,100%,35%)" stroke-width="0.00546"></path>
<path d="M1.002 0.613 Q1.409 0.626 1.525 0.431" stroke="hsl(180.0,100%,35%)" stroke-width="0.00182"></path>
<path d="M1.002 0.613 Q1.381 0.699 1.633 0.533" stroke="hsl(180.0,100%,35%)" stroke-width="0.00182"></path>
<path d="M1.180 0.175 Q1.362 0.294 1.633 0.231" stroke="hsl(0.0,100%,35%)" stroke-width="0.00182"></path>
<path d="M1.180 0.175 Q1.188 0.266 1.366 0.282" stroke="hsl(0.0,100%,35%)" stroke-width="0.00910"></path>
<path d="M1.180 0.175 Q0.957 0.497 1.534 0.676" stroke="hsl(0.0,100%,35%)" stroke-width="0.00364"></path>
<path d="M1.180 0.175 Q1.325 0.197 1.400 0.131" stroke="hsl(0.0,100%,35%)" stroke-width="0.00364"></path>
<path d="M1.180 0.175 Q0.636 0.417 0.987 0.735" stroke="hsl(0.0,100%,35%)" stroke-width="0.00182"></path>
<path d="M0.987 0.735 Q0.605 0.633 0.321 0.797" stroke="hsl(180.0,100%,35%)" stroke-width="0.00182"></path>
<path d="M0.987 0.735 Q1.308 0.815 1.534 0.676" stroke="hsl(180.0,100%,35%)" stroke-width="0.00728"></path>
<path d="M0.987 0.735 Q0.921 0.813 1.057 0.862" stroke="hsl(180.0,100%,35%)" stroke-width="0.00546"></path>
<path d="M0.990 0.480 Q0.671 0.475 0.591 0.630" stroke="hsl(180.0,100%,35%)" stroke-width="0.00364"></path>
<path d="M0.990 0.480 Q0.776 0.215 0.212 0.262" stroke="hsl(180.0,100%,35%)" stroke-width="0.00182"></path>
<path d="M0.990 0.480 Q1.269 0.635 1.633 0.533" stroke="hsl(180.0,100%,35%)" stroke-width="0.00364"></path>
<path d="M0.990 0.480 Q0.890 0.549 1.002 0.613" stroke="hsl(180.0,100%,35%)" stroke-width="0.00546"></path>
<path d="M0.990 0.480 Q1.105 0.687 1.534 0.676" stroke="hsl(180.0,100%,35%)" stroke-width="0.00364"></path>
<path d="M1.746 0.883 Q1.612 0.858 1.533 0.918" stroke="hsl(0.0,100%,35%)" stroke-width="0.01638"></path>
<path d="M1.746 0.883 Q1.336 0.299 0.106 0.371" stroke="hsl(0.0,100%,35%)" stroke-width="0.00182"></path>
<path d="M1.746 0.883 Q1.476 0.266 0.212 0.262" stroke="hsl(0.0,100%,35%)" stroke-width="0.00182"></path>
<path d="M1.746 0.883 Q1.863 0.812 1.750 0.740" stroke="hsl(0.0,100%,35%)" stroke-width="0.00364"></path>
<path d="M1.533 0.918 Q1.667 0.943 1.746 0.883" stroke="hsl(0.0,100%,35%)" stroke-width="0.00728"></path>
<path d="M1.533 0.918 Q1.951 0.476 1.180 0.175" stroke="hsl(0.0,100%,35%)" stroke-width="0.00728"></path>
<path d="M1.533 0.918 Q1.586 0.836 1.437 0.792" stroke="hsl(0.0,100%,35%)" stroke-width="0.00182"></path>
<path d="M1.533 0.918 Q1.398 0.326 0.212 0.262" stroke="hsl(0.0,100%,35%)" stroke-width="0.00182"></path>
<path d="M1.533 0.918 Q1.257 0.359 0.106 0.371" stroke="hsl(0.0,100%,35%)" stroke-width="0.00182"></path>
<path d="M1.533 0.918 Q1.784 0.872 1.750 0.740" stroke="hsl(0.0,100%,35%)" stroke-width="0.00910"></path>
<path d="M0.106 0.371 Q0.317 0.727 1.057 0.703" stroke="hsl(180.0,100%,35%)" stroke-width="0.00182"></path>
<path d="M0.106 0.371 Q0.361 0.671 1.002 0.613" stroke="hsl(180.0,100%,35%)" stroke-width="0.00546"></path>
<path d="M0.106 0.371 Q0.247 0.338 0.212 0.262" stroke="hsl(180.0,100%,35%)" stroke-width="0.01456"></path>
<path d="M0.106 0.371 Q0.256 0.730 0.987 0.735" stroke="hsl(180.0,100%,35%)" stroke-width="0.00182"></path>
<path d="M0.106 0.371 Q0.576 0.810 1.534 0.676" stroke="hsl(180.0,100%,35%)" stroke-width="0.00182"></path>
<path d="M0.106 0.371 Q0.142 0.598 0.591 0.630" stroke="hsl(180.0,100%,35%)" stroke-width="0.00182"></path>
<path d="M0.106 0.371 Q0.740 0.758 1.633 0.533" stroke="hsl(180.0,100%,35%)" stroke-width="0.00182"></path>
<path d="M0.212 0.262 Q0.071 0.295 0.106 0.371" stroke="hsl(180.0,100%,35%)" stroke-width="0.01456"></path>
<path d="M0.212 0.262 Q0.617 0.254 0.692 0.055" stroke="hsl(180.0,100%,35%)" stroke-width="0.00182"></path>
<path d="M0.212 0.262 Q0.107 0.522 0.591 0.630" stroke="hsl(180.0,100%,35%)" stroke-width="0.00182"></path>
<path d="M0.591 0.630 Q0.705 0.762 0.987 0.735" stroke="hsl(180.0,100%,35%)" stroke-width="0.00182"></path>
<path d="M0.591 0.630 Q0.811 0.704 1.002 0.613" stroke="hsl(180.0,100%,35%)" stroke-width="0.00182"></path>
<path d="M0.591 0.630 Q1.026 0.842 1.534 0.676" stroke="hsl(180.0,100%,35%)" stroke-width="0.00910"></path>
<path d="M0.591 0.630 Q0.323 0.660 0.321 0.797" stroke="hsl(180.0,100%,35%)" stroke-width="0.01456"></path>
<path d="M0.591 0.630 Q0.696 0.370 0.212 0.262" stroke="hsl(180.0,100%,35%)" stroke-width="0.00728"></path>
<path d="M0.591 0.630 Q0.556 0.404 0.106 0.371" stroke="hsl(180.0,100%,35%)" stroke-width="0.00182"></path>
<path d="M1.525 0.431 Q1.118 0.417 1.002 0.613" stroke="hsl(180.0,100%,35%)" stroke-width="0.00182"></path>
<path d="M1.525 0.431 Q1.333 0.556 1.534 0.676" stroke="hsl(180.0,100%,35%)" stroke-width="0.00364"></path>
<path d="M1.525 0.431 Q0.629 0.373 0.321 0.797" stroke="hsl(180.0,100%,35%)" stroke-width="0.00182"></path>
<path d="M1.057 0.862 Q1.230 0.727 1.002 0.613" stroke="hsl(180.0,100%,35%)" stroke-width="0.00364"></path>
<path d="M1.057 0.862 Q1.251 0.985 1.533 0.918" stroke="hsl(180.0,100%,35%)" stroke-width="0.00182"></path>
<path d="M1.057 0.862 Q1.445 0.865 1.534 0.676" stroke="hsl(180.0,100%,35%)" stroke-width="0.00182"></path>
<path d="M1.057 0.862 Q1.124 0.785 0.987 0.735" stroke="hsl(180.0,100%,35%)" stroke-width="0.00182"></path>
<path d="M0.684 0.343 Q0.373 0.242 0.106 0.371" stroke="hsl(180.0,100%,35%)" stroke-width="0.00182"></path>
<path d="M0.684 0.343 Q0.522 0.600 0.987 0.735" stroke="hsl(180.0,100%,35%)" stroke-width="0.00182"></path>
<path d="M0.684 0.343 Q0.718 0.776 1.570 0.854" stroke="hsl(180.0,100%,35%)" stroke-width="0.00182"></path>
<path d="M1.835 0.389 Q0.985 0.034 0.106 0.371" stroke="hsl(180.0,100%,35%)" stroke-width="0.01274"></path>
<path d="M1.835 0.389 Q1.942 0.285 1.763 0.210" stroke="hsl(180.0,100%,35%)" stroke-width="0.01820"></path>
<path d="M1.835 0.389 Q0.751 0.290 0.321 0.797" stroke="hsl(180.0,100%,35%)" stroke-width="0.01092"></path>
<path d="M1.835 0.389 Q1.125 0.001 0.212 0.262" stroke="hsl(180.0,100%,35%)" stroke-width="0.00182"></path>
<path d="M0.715 0.496 Q0.765 0.612 1.002 0.613" stroke="hsl(180.0,100%,35%)" stroke-width="0.00182"></path>
<path d="M0.715 0.496 Q0.510 0.312 0.106 0.371" stroke="hsl(180.0,100%,35%)" stroke-width="0.00182"></path>
<path d="M0.715 0.496 Q0.980 0.750 1.534 0.676" stroke="hsl(180.0,100%,35%)" stroke-width="0.00364"></path>
<path d="M0.933 0.291 Q0.926 0.604 1.534 0.676" stroke="hsl(180.0,100%,35%)" stroke-width="0.00182"></path>
<path d="M0.933 0.291 Q1.001 0.372 1.174 0.357" stroke="hsl(180.0,100%,35%)" stroke-width="0.00182"></path>
<path d="M0.933 0.291 Q0.882 0.198 0.688 0.202" stroke="hsl(180.0,100%,35%)" stroke-width="0.00182"></path>
<path d="M0.298 0.395 Q0.748 0.858 1.750 0.740" stroke="hsl(180.0,100%,35%)" stroke-width="0.00182"></path>
<path d="M0.298 0.395 Q0.882 0.658 1.525 0.431" stroke="hsl(180.0,100%,35%)" stroke-width="0.00182"></path>
<path d="M0.298 0.395 Q-0.013 0.601 0.321 0.797" stroke="hsl(180.0,100%,35%)" stroke-width="0.00182"></path>
<path d="M0.298 0.395 Q0.497 0.904 1.533 0.918" stroke="hsl(180.0,100%,35%)" stroke-width="0.00182"></path>
<path d="M0.298 0.395 Q0.221 0.345 0.106 0.371" stroke="hsl(180.0,100%,35%)" stroke-width="0.00364"></path>
</g>
<text x="1.633" y="0.220" font-size="0.021567" fill="hsl(0.0,100%,20%)">aixba</text>
<text x="1.366" y="0.255" font-size="0.054681" fill="hsl(0.0,100%,20%)">cjamcl</text>
<text x="1.400" y="0.108" font-size="0.047530" fill="hsl(0.0,100%,20%)">asraine</text>
<text x="1.750" y="0.718" font-size="0.043897" fill="hsl(0.0,100%,20%)">jacktfranklin</text>
<text x="1.534" y="0.640" font-size="0.071991" fill="hsl(180.0,100%,20%)">alexrudenko</text>
<text x="1.633" y="0.505" font-size="0.057060" fill="hsl(180.0,100%,20%)">nvitkov</text>
<text x="1.002" y="0.586" font-size="0.053452" fill="hsl(180.0,100%,20%)">ergunsh</text>
<text x="1.180" y="0.152" font-size="0.046826" fill="hsl(0.0,100%,20%)">paulirish</text>
<text x="0.987" y="0.715" font-size="0.041564" fill="hsl(180.0,100%,20%)">szuend</text>
<text x="0.321" y="0.777" font-size="0.039933" fill="hsl(180.0,100%,20%)">dsv</text>
<text x="0.990" y="0.464" font-size="0.031570" fill="hsl(180.0,100%,20%)">wolfi</text>
<text x="1.746" y="0.866" font-size="0.033609" fill="hsl(0.0,100%,20%)">alinavarkki</text>
<text x="1.533" y="0.896" font-size="0.043897" fill="hsl(0.0,100%,20%)">nancyly</text>
<text x="0.106" y="0.346" font-size="0.050905" fill="hsl(180.0,100%,20%)">kimanh</text>
<text x="0.212" y="0.240" font-size="0.043897" fill="hsl(180.0,100%,20%)">kprokopenko</text>
<text x="0.591" y="0.609" font-size="0.042356" fill="hsl(180.0,100%,20%)">bmeurer</text>
<text x="1.057" y="0.694" font-size="0.016303" fill="hsl(180.0,100%,20%)">changhaohan</text>
<text x="1.525" y="0.420" font-size="0.021567" fill="hsl(180.0,100%,20%)">pfaffe</text>
<text x="1.437" y="0.785" font-size="0.014119" fill="hsl(0.0,100%,20%)">andoli</text>
<text x="0.692" y="0.051" font-size="0.008151" fill="hsl(180.0,100%,20%)">petermueller</text>
<text x="1.057" y="0.851" font-size="0.023056" fill="hsl(180.0,100%,20%)">leese</text>
<text x="0.684" y="0.336" font-size="0.014119" fill="hsl(180.0,100%,20%)">liviurau</text>
<text x="1.570" y="0.847" font-size="0.014119" fill="hsl(180.0,100%,20%)">mathias</text>
<text x="1.835" y="0.369" font-size="0.039933" fill="hsl(180.0,100%,20%)">masnoble</text>
<text x="1.763" y="0.198" font-size="0.025777" fill="hsl(180.0,100%,20%)">shuuran</text>
<text x="0.715" y="0.488" font-size="0.016303" fill="hsl(180.0,100%,20%)">samiyac</text>
<text x="0.933" y="0.284" font-size="0.014119" fill="hsl(180.0,100%,20%)">suzukikeita</text>
<text x="1.174" y="0.353" font-size="0.008151" fill="hsl(180.0,100%,20%)">sisidovski</text>
<text x="0.688" y="0.198" font-size="0.008151" fill="hsl(180.0,100%,20%)">yyanagisawa</text>
<text x="0.298" y="0.385" font-size="0.019967" fill="hsl(180.0,100%,20%)">yangguo</text>
</svg>
