<svg width="4000" height="2000" viewBox="-0.025 -0.025 2.05 1.05" xmlns="http://www.w3.org/2000/svg">
  <style>
    path {
      fill: none;
      stroke-linecap: round;
      stroke-opacity: 0.4;
    }

    text {
      text-anchor: middle;
      alignment-baseline: hanging;
    }
  </style>
  <g opacity="0.4">
<path d="M0.933 0.845 Q1.346 0.445 0.656 0.155" stroke="hsl(0.0,100%,35%)" stroke-width="0.00306"></path>
<path d="M0.933 0.845 Q1.500 0.578 1.104 0.243" stroke="hsl(0.0,100%,35%)" stroke-width="0.00306"></path>
<path d="M0.933 0.845 Q1.132 0.337 0.185 0.129" stroke="hsl(0.0,100%,35%)" stroke-width="0.00153"></path>
<path d="M0.933 0.845 Q0.917 0.904 1.028 0.925" stroke="hsl(0.0,100%,35%)" stroke-width="0.00153"></path>
<path d="M0.933 0.845 Q0.774 0.618 0.297 0.646" stroke="hsl(0.0,100%,35%)" stroke-width="0.00459"></path>
<path d="M0.933 0.845 Q1.054 0.734 0.865 0.651" stroke="hsl(0.0,100%,35%)" stroke-width="0.00153"></path>
<path d="M0.933 0.845 Q0.590 0.644 0.123 0.767" stroke="hsl(0.0,100%,35%)" stroke-width="0.00153"></path>
<path d="M0.933 0.845 Q1.080 0.654 0.741 0.541" stroke="hsl(0.0,100%,35%)" stroke-width="0.00459"></path>
<path d="M0.933 0.845 Q1.368 0.661 1.105 0.409" stroke="hsl(0.0,100%,35%)" stroke-width="0.00459"></path>
<path d="M0.933 0.845 Q1.755 0.586 1.430 0.128" stroke="hsl(0.0,100%,35%)" stroke-width="0.01991"></path>
<path d="M0.933 0.845 Q1.039 0.398 0.191 0.249" stroke="hsl(0.0,100%,35%)" stroke-width="0.00153"></path>
<path d="M0.656 0.155 Q1.065 0.297 1.430 0.128" stroke="hsl(0.0,100%,35%)" stroke-width="0.00306"></path>
<path d="M0.656 0.155 Q0.112 0.432 0.532 0.758" stroke="hsl(0.0,100%,35%)" stroke-width="0.00153"></path>
<path d="M0.656 0.155 Q1.045 0.397 1.601 0.260" stroke="hsl(0.0,100%,35%)" stroke-width="0.00153"></path>
<path d="M0.656 0.155 Q0.285 0.221 0.332 0.416" stroke="hsl(0.0,100%,35%)" stroke-width="0.00306"></path>
<path d="M0.656 0.155 Q0.840 0.205 0.978 0.127" stroke="hsl(0.0,100%,35%)" stroke-width="0.00153"></path>
<path d="M0.656 0.155 Q0.084 0.329 0.297 0.646" stroke="hsl(0.0,100%,35%)" stroke-width="0.00459"></path>
<path d="M0.656 0.155 Q0.243 0.555 0.933 0.845" stroke="hsl(0.0,100%,35%)" stroke-width="0.00459"></path>
<path d="M0.656 0.155 Q0.364 0.445 0.865 0.651" stroke="hsl(0.0,100%,35%)" stroke-width="0.00153"></path>
<path d="M0.656 0.155 Q0.678 0.372 1.105 0.409" stroke="hsl(0.0,100%,35%)" stroke-width="0.00153"></path>
<path d="M0.656 0.155 Q0.390 0.365 0.741 0.541" stroke="hsl(0.0,100%,35%)" stroke-width="0.00306"></path>
<path d="M0.656 0.155 Q-0.100 0.354 0.123 0.767" stroke="hsl(0.0,100%,35%)" stroke-width="0.00153"></path>
<path d="M0.185 0.129 Q0.592 0.710 1.814 0.639" stroke="hsl(180.0,100%,35%)" stroke-width="0.00153"></path>
<path d="M0.185 0.129 Q0.092 0.190 0.191 0.249" stroke="hsl(180.0,100%,35%)" stroke-width="0.00919"></path>
<path d="M0.185 0.129 Q-0.014 0.637 0.933 0.845" stroke="hsl(180.0,100%,35%)" stroke-width="0.00459"></path>
<path d="M0.185 0.129 Q0.404 0.682 1.531 0.697" stroke="hsl(180.0,100%,35%)" stroke-width="0.00306"></path>
<path d="M0.185 0.129 Q-0.173 0.410 0.297 0.646" stroke="hsl(180.0,100%,35%)" stroke-width="0.00153"></path>
<path d="M0.185 0.129 Q0.399 0.236 0.656 0.155" stroke="hsl(180.0,100%,35%)" stroke-width="0.00153"></path>
<path d="M1.028 0.925 Q0.885 0.639 0.297 0.646" stroke="hsl(0.0,100%,35%)" stroke-width="0.00153"></path>
<path d="M1.028 0.925 Q1.710 0.791 1.599 0.429" stroke="hsl(0.0,100%,35%)" stroke-width="0.00153"></path>
<path d="M1.028 0.925 Q1.045 0.866 0.933 0.845" stroke="hsl(0.0,100%,35%)" stroke-width="0.00306"></path>
<path d="M1.028 0.925 Q1.243 0.358 0.185 0.129" stroke="hsl(0.0,100%,35%)" stroke-width="0.00153"></path>
<path d="M1.028 0.925 Q1.650 0.939 1.814 0.639" stroke="hsl(0.0,100%,35%)" stroke-width="0.00153"></path>
<path d="M0.297 0.646 Q0.604 0.682 0.741 0.541" stroke="hsl(0.0,100%,35%)" stroke-width="0.00153"></path>
<path d="M0.297 0.646 Q0.870 0.473 0.656 0.155" stroke="hsl(0.0,100%,35%)" stroke-width="0.00306"></path>
<path d="M0.297 0.646 Q0.457 0.873 0.933 0.845" stroke="hsl(0.0,100%,35%)" stroke-width="0.00306"></path>
<path d="M0.297 0.646 Q0.113 0.672 0.123 0.767" stroke="hsl(0.0,100%,35%)" stroke-width="0.01531"></path>
<path d="M0.297 0.646 Q0.587 0.857 1.060 0.761" stroke="hsl(0.0,100%,35%)" stroke-width="0.00153"></path>
<path d="M0.297 0.646 Q0.891 0.689 1.105 0.409" stroke="hsl(0.0,100%,35%)" stroke-width="0.00153"></path>
<path d="M0.297 0.646 Q0.440 0.932 1.028 0.925" stroke="hsl(0.0,100%,35%)" stroke-width="0.00306"></path>
<path d="M0.297 0.646 Q1.279 0.614 1.430 0.128" stroke="hsl(0.0,100%,35%)" stroke-width="0.00153"></path>
<path d="M0.123 0.767 Q0.802 0.679 0.778 0.328" stroke="hsl(0.0,100%,35%)" stroke-width="0.00153"></path>
<path d="M0.123 0.767 Q0.140 0.924 0.451 0.950" stroke="hsl(0.0,100%,35%)" stroke-width="0.00153"></path>
<path d="M0.123 0.767 Q1.288 0.709 1.430 0.128" stroke="hsl(0.0,100%,35%)" stroke-width="0.00306"></path>
<path d="M0.123 0.767 Q0.508 0.634 0.332 0.416" stroke="hsl(0.0,100%,35%)" stroke-width="0.00153"></path>
<path d="M0.123 0.767 Q0.466 0.968 0.933 0.845" stroke="hsl(0.0,100%,35%)" stroke-width="0.00766"></path>
<path d="M0.741 0.541 Q1.029 0.547 1.105 0.409" stroke="hsl(0.0,100%,35%)" stroke-width="0.03062"></path>
<path d="M0.741 0.541 Q0.594 0.731 0.933 0.845" stroke="hsl(0.0,100%,35%)" stroke-width="0.01225"></path>
<path d="M0.741 0.541 Q1.416 0.472 1.430 0.128" stroke="hsl(0.0,100%,35%)" stroke-width="0.00153"></path>
<path d="M1.105 0.409 Q0.817 0.402 0.741 0.541" stroke="hsl(0.0,100%,35%)" stroke-width="0.01531"></path>
<path d="M1.105 0.409 Q0.670 0.592 0.933 0.845" stroke="hsl(0.0,100%,35%)" stroke-width="0.00612"></path>
<path d="M1.105 0.409 Q0.327 0.391 0.123 0.767" stroke="hsl(0.0,100%,35%)" stroke-width="0.00459"></path>
<path d="M1.105 0.409 Q1.298 0.448 1.417 0.362" stroke="hsl(0.0,100%,35%)" stroke-width="0.01531"></path>
<path d="M1.105 0.409 Q1.472 0.434 1.601 0.260" stroke="hsl(0.0,100%,35%)" stroke-width="0.00153"></path>
<path d="M1.105 0.409 Q1.492 0.334 1.430 0.128" stroke="hsl(0.0,100%,35%)" stroke-width="0.00153"></path>
<path d="M1.430 0.128 Q1.043 0.203 1.105 0.409" stroke="hsl(0.0,100%,35%)" stroke-width="0.01531"></path>
<path d="M1.430 0.128 Q1.274 0.312 1.599 0.429" stroke="hsl(0.0,100%,35%)" stroke-width="0.00919"></path>
<path d="M1.430 0.128 Q0.265 0.186 0.123 0.767" stroke="hsl(0.0,100%,35%)" stroke-width="0.00459"></path>
<path d="M1.430 0.128 Q0.608 0.387 0.933 0.845" stroke="hsl(0.0,100%,35%)" stroke-width="0.01991"></path>
<path d="M1.430 0.128 Q0.714 -0.059 0.191 0.249" stroke="hsl(0.0,100%,35%)" stroke-width="0.00153"></path>
<path d="M0.191 0.249 Q0.284 0.188 0.185 0.129" stroke="hsl(180.0,100%,35%)" stroke-width="0.00459"></path>
<path d="M0.191 0.249 Q0.233 0.505 0.741 0.541" stroke="hsl(180.0,100%,35%)" stroke-width="0.00306"></path>
<path d="M0.191 0.249 Q0.520 0.512 1.105 0.409" stroke="hsl(180.0,100%,35%)" stroke-width="0.00153"></path>
<path d="M0.191 0.249 Q-0.074 0.469 0.297 0.646" stroke="hsl(180.0,100%,35%)" stroke-width="0.00612"></path>
<path d="M0.191 0.249 Q0.682 0.345 0.978 0.127" stroke="hsl(180.0,100%,35%)" stroke-width="0.00153"></path>
<path d="M0.191 0.249 Q0.503 0.741 1.531 0.697" stroke="hsl(180.0,100%,35%)" stroke-width="0.00153"></path>
<path d="M0.978 0.127 Q0.222 0.250 0.297 0.646" stroke="hsl(0.0,100%,35%)" stroke-width="0.00153"></path>
<path d="M0.978 0.127 Q0.794 0.077 0.656 0.155" stroke="hsl(0.0,100%,35%)" stroke-width="0.00153"></path>
<path d="M0.978 0.127 Q0.381 0.477 0.933 0.845" stroke="hsl(0.0,100%,35%)" stroke-width="0.00459"></path>
<path d="M0.978 0.127 Q0.529 0.286 0.741 0.541" stroke="hsl(0.0,100%,35%)" stroke-width="0.00153"></path>
<path d="M0.978 0.127 Q0.423 0.142 0.332 0.416" stroke="hsl(0.0,100%,35%)" stroke-width="0.00153"></path>
<path d="M0.978 0.127 Q0.816 0.293 1.105 0.409" stroke="hsl(0.0,100%,35%)" stroke-width="0.00306"></path>
<path d="M0.978 0.127 Q0.799 0.522 1.531 0.697" stroke="hsl(0.0,100%,35%)" stroke-width="0.00153"></path>
<path d="M1.531 0.697 Q1.719 0.724 1.814 0.639" stroke="hsl(180.0,100%,35%)" stroke-width="0.06431"></path>
<path d="M1.531 0.697 Q1.312 0.144 0.185 0.129" stroke="hsl(180.0,100%,35%)" stroke-width="0.00459"></path>
<path d="M1.531 0.697 Q1.527 0.251 0.656 0.155" stroke="hsl(180.0,100%,35%)" stroke-width="0.00153"></path>
<path d="M0.778 0.328 Q0.877 0.434 1.105 0.409" stroke="hsl(0.0,100%,35%)" stroke-width="0.00153"></path>
<path d="M0.778 0.328 Q0.442 0.617 0.933 0.845" stroke="hsl(0.0,100%,35%)" stroke-width="0.00153"></path>
<path d="M0.778 0.328 Q0.855 0.217 0.656 0.155" stroke="hsl(0.0,100%,35%)" stroke-width="0.00306"></path>
<path d="M0.332 0.416 Q0.131 0.524 0.297 0.646" stroke="hsl(0.0,100%,35%)" stroke-width="0.00612"></path>
<path d="M0.332 0.416 Q0.290 0.751 0.933 0.845" stroke="hsl(0.0,100%,35%)" stroke-width="0.00153"></path>
<path d="M0.332 0.416 Q0.703 0.351 0.656 0.155" stroke="hsl(0.0,100%,35%)" stroke-width="0.00153"></path>
<path d="M0.332 0.416 Q0.762 0.407 0.839 0.196" stroke="hsl(0.0,100%,35%)" stroke-width="0.00153"></path>
<path d="M0.332 0.416 Q0.724 0.567 1.105 0.409" stroke="hsl(0.0,100%,35%)" stroke-width="0.00153"></path>
<path d="M1.814 0.639 Q1.626 0.611 1.531 0.697" stroke="hsl(180.0,100%,35%)" stroke-width="0.00306"></path>
<path d="M1.814 0.639 Q1.339 0.549 1.060 0.761" stroke="hsl(180.0,100%,35%)" stroke-width="0.00153"></path>
<path d="M1.814 0.639 Q1.622 0.165 0.656 0.155" stroke="hsl(180.0,100%,35%)" stroke-width="0.00153"></path>
<path d="M1.814 0.639 Q1.407 0.058 0.185 0.129" stroke="hsl(180.0,100%,35%)" stroke-width="0.00153"></path>
<path d="M1.348 0.254 Q0.537 0.343 0.532 0.758" stroke="hsl(0.0,100%,35%)" stroke-width="0.00153"></path>
<path d="M1.348 0.254 Q1.334 0.392 1.599 0.429" stroke="hsl(0.0,100%,35%)" stroke-width="0.00306"></path>
<path d="M1.348 0.254 Q1.490 0.207 1.430 0.128" stroke="hsl(0.0,100%,35%)" stroke-width="0.00153"></path>
<path d="M1.348 0.254 Q1.470 0.307 1.601 0.260" stroke="hsl(0.0,100%,35%)" stroke-width="0.00153"></path>
<path d="M1.348 0.254 Q0.668 0.466 0.933 0.845" stroke="hsl(0.0,100%,35%)" stroke-width="0.00153"></path>
<path d="M1.348 0.254 Q1.235 0.199 1.104 0.243" stroke="hsl(0.0,100%,35%)" stroke-width="0.00153"></path>
<path d="M0.532 0.758 Q0.811 0.691 0.741 0.541" stroke="hsl(0.0,100%,35%)" stroke-width="0.00459"></path>
<path d="M0.532 0.758 Q0.663 0.882 0.933 0.845" stroke="hsl(0.0,100%,35%)" stroke-width="0.02909"></path>
<path d="M0.532 0.758 Q1.076 0.481 0.656 0.155" stroke="hsl(0.0,100%,35%)" stroke-width="0.00306"></path>
<path d="M0.532 0.758 Q0.504 0.655 0.297 0.646" stroke="hsl(0.0,100%,35%)" stroke-width="0.00153"></path>
<path d="M0.532 0.758 Q1.291 0.737 1.417 0.362" stroke="hsl(0.0,100%,35%)" stroke-width="0.00153"></path>
<path d="M1.599 0.429 Q1.756 0.245 1.430 0.128" stroke="hsl(0.0,100%,35%)" stroke-width="0.00919"></path>
<path d="M1.599 0.429 Q1.368 0.320 1.105 0.409" stroke="hsl(0.0,100%,35%)" stroke-width="0.00153"></path>
<path d="M1.599 0.429 Q0.934 0.504 0.933 0.845" stroke="hsl(0.0,100%,35%)" stroke-width="0.00766"></path>
<path d="M1.599 0.429 Q1.039 0.057 0.191 0.249" stroke="hsl(0.0,100%,35%)" stroke-width="0.00153"></path>
<path d="M1.060 0.761 Q1.365 0.594 1.105 0.409" stroke="hsl(180.0,100%,35%)" stroke-width="0.00306"></path>
<path d="M1.060 0.761 Q0.930 0.778 0.933 0.845" stroke="hsl(180.0,100%,35%)" stroke-width="0.00153"></path>
<path d="M1.060 0.761 Q1.128 0.270 0.185 0.129" stroke="hsl(180.0,100%,35%)" stroke-width="0.00153"></path>
<path d="M0.344 0.860 Q0.651 0.970 0.933 0.845" stroke="hsl(0.0,100%,35%)" stroke-width="0.00306"></path>
<path d="M0.344 0.860 Q0.798 0.780 0.741 0.541" stroke="hsl(0.0,100%,35%)" stroke-width="0.00153"></path>
<path d="M0.344 0.860 Q0.307 0.769 0.123 0.767" stroke="hsl(0.0,100%,35%)" stroke-width="0.00153"></path>
<path d="M0.839 0.196 Q0.780 0.139 0.656 0.155" stroke="hsl(0.0,100%,35%)" stroke-width="0.00306"></path>
<path d="M0.839 0.196 Q0.207 0.313 0.297 0.646" stroke="hsl(0.0,100%,35%)" stroke-width="0.00153"></path>
<path d="M0.839 0.196 Q0.366 0.539 0.933 0.845" stroke="hsl(0.0,100%,35%)" stroke-width="0.00153"></path>
</g>
<text x="0.933" y="0.805" font-size="0.079412" fill="hsl(0.0,100%,20%)">alexrudenko</text>
<text x="0.656" y="0.133" font-size="0.044519" fill="hsl(0.0,100%,20%)">ergunsh</text>
<text x="1.104" y="0.236" font-size="0.013423" fill="hsl(0.0,100%,20%)">mathias</text>
<text x="0.185" y="0.110" font-size="0.037966" fill="hsl(180.0,100%,20%)">jacktfranklin</text>
<text x="1.028" y="0.913" font-size="0.023250" fill="hsl(0.0,100%,20%)">liviurau</text>
<text x="0.297" y="0.622" font-size="0.048398" fill="hsl(0.0,100%,20%)">nvitkov</text>
<text x="0.865" y="0.646" font-size="0.010960" fill="hsl(0.0,100%,20%)">samiyac</text>
<text x="0.123" y="0.746" font-size="0.041734" fill="hsl(0.0,100%,20%)">bmeurer</text>
<text x="0.741" y="0.513" font-size="0.055885" fill="hsl(0.0,100%,20%)">dsv</text>
<text x="1.105" y="0.376" font-size="0.065760" fill="hsl(0.0,100%,20%)">pfaffe</text>
<text x="1.430" y="0.098" font-size="0.060030" fill="hsl(0.0,100%,20%)">szuend</text>
<text x="0.191" y="0.231" font-size="0.035514" fill="hsl(180.0,100%,20%)">alinavarkki</text>
<text x="0.978" y="0.113" font-size="0.026846" fill="hsl(0.0,100%,20%)">nharshunova</text>
<text x="1.531" y="0.669" font-size="0.055885" fill="hsl(180.0,100%,20%)">cjamcl</text>
<text x="0.778" y="0.319" font-size="0.017329" fill="hsl(0.0,100%,20%)">yangguo</text>
<text x="0.451" y="0.946" font-size="0.007750" fill="hsl(0.0,100%,20%)">meysarabadani</text>
<text x="0.332" y="0.403" font-size="0.026846" fill="hsl(0.0,100%,20%)">piotrpaulski</text>
<text x="1.814" y="0.611" font-size="0.054249" fill="hsl(180.0,100%,20%)">paulirish</text>
<text x="1.348" y="0.243" font-size="0.020504" fill="hsl(0.0,100%,20%)">elormcoch</text>
<text x="0.532" y="0.738" font-size="0.041008" fill="hsl(0.0,100%,20%)">wolfi</text>
<text x="1.599" y="0.411" font-size="0.036350" fill="hsl(0.0,100%,20%)">kimanh</text>
<text x="1.601" y="0.253" font-size="0.013423" fill="hsl(0.0,100%,20%)">kprokopenko</text>
<text x="1.060" y="0.752" font-size="0.018983" fill="hsl(180.0,100%,20%)">finnur</text>
<text x="0.344" y="0.852" font-size="0.015500" fill="hsl(0.0,100%,20%)">nedenwang</text>
<text x="0.839" y="0.187" font-size="0.017329" fill="hsl(0.0,100%,20%)">nroscino</text>
<text x="1.417" y="0.349" font-size="0.025703" fill="hsl(0.0,100%,20%)">leese</text>
</svg>
