<svg width="4000" height="2000" viewBox="-0.025 -0.025 2.05 1.05" xmlns="http://www.w3.org/2000/svg">
  <style>
    path {
      fill: none;
      stroke-linecap: round;
      stroke-opacity: 0.4;
    }

    text {
      text-anchor: middle;
      alignment-baseline: hanging;
    }
  </style>
  <g opacity="0.4">
<path d="M1.912 0.404 Q2.004 0.342 1.902 0.283" stroke="hsl(0.0,100%,35%)" stroke-width="0.00615"></path>
<path d="M1.912 0.404 Q1.614 0.269 1.284 0.384" stroke="hsl(0.0,100%,35%)" stroke-width="0.00351"></path>
<path d="M1.912 0.404 Q1.749 0.054 1.029 0.056" stroke="hsl(0.0,100%,35%)" stroke-width="0.00527"></path>
<path d="M1.912 0.404 Q1.466 0.014 0.606 0.146" stroke="hsl(0.0,100%,35%)" stroke-width="0.00132"></path>
<path d="M1.912 0.404 Q1.665 0.367 1.538 0.479" stroke="hsl(0.0,100%,35%)" stroke-width="0.00044"></path>
<path d="M1.902 0.283 Q1.364 -0.045 0.606 0.146" stroke="hsl(0.0,100%,35%)" stroke-width="0.01010"></path>
<path d="M1.902 0.283 Q1.512 0.210 1.284 0.384" stroke="hsl(0.0,100%,35%)" stroke-width="0.00088"></path>
<path d="M1.902 0.283 Q1.647 -0.005 1.029 0.056" stroke="hsl(0.0,100%,35%)" stroke-width="0.00264"></path>
<path d="M1.902 0.283 Q1.810 0.346 1.912 0.404" stroke="hsl(0.0,100%,35%)" stroke-width="0.00307"></path>
<path d="M1.902 0.283 Q0.788 0.033 0.055 0.521" stroke="hsl(0.0,100%,35%)" stroke-width="0.00044"></path>
<path d="M1.902 0.283 Q1.265 0.079 0.726 0.345" stroke="hsl(0.0,100%,35%)" stroke-width="0.00044"></path>
<path d="M1.902 0.283 Q1.582 0.103 1.160 0.219" stroke="hsl(0.0,100%,35%)" stroke-width="0.00044"></path>
<path d="M1.284 0.384 Q1.507 0.305 1.401 0.179" stroke="hsl(0.0,100%,35%)" stroke-width="0.00307"></path>
<path d="M1.284 0.384 Q1.354 0.277 1.160 0.219" stroke="hsl(0.0,100%,35%)" stroke-width="0.00834"></path>
<path d="M1.284 0.384 Q1.136 0.129 0.606 0.146" stroke="hsl(0.0,100%,35%)" stroke-width="0.00176"></path>
<path d="M1.284 0.384 Q0.287 0.441 0.179 0.940" stroke="hsl(0.0,100%,35%)" stroke-width="0.00659"></path>
<path d="M1.284 0.384 Q0.315 0.364 0.062 0.832" stroke="hsl(0.0,100%,35%)" stroke-width="0.00571"></path>
<path d="M1.284 0.384 Q0.560 0.207 0.055 0.521" stroke="hsl(0.0,100%,35%)" stroke-width="0.00088"></path>
<path d="M1.284 0.384 Q1.090 0.509 1.290 0.631" stroke="hsl(0.0,100%,35%)" stroke-width="0.00351"></path>
<path d="M1.284 0.384 Q1.582 0.520 1.912 0.404" stroke="hsl(0.0,100%,35%)" stroke-width="0.00176"></path>
<path d="M1.284 0.384 Q1.674 0.457 1.902 0.283" stroke="hsl(0.0,100%,35%)" stroke-width="0.00088"></path>
<path d="M1.284 0.384 Q1.037 0.253 0.726 0.345" stroke="hsl(0.0,100%,35%)" stroke-width="0.00571"></path>
<path d="M1.284 0.384 Q1.419 0.169 1.029 0.056" stroke="hsl(0.0,100%,35%)" stroke-width="0.00176"></path>
<path d="M1.284 0.384 Q0.721 0.241 0.317 0.484" stroke="hsl(0.0,100%,35%)" stroke-width="0.00044"></path>
<path d="M1.284 0.384 Q0.610 0.428 0.548 0.767" stroke="hsl(0.0,100%,35%)" stroke-width="0.00088"></path>
<path d="M1.284 0.384 Q0.943 0.470 1.036 0.656" stroke="hsl(0.0,100%,35%)" stroke-width="0.00044"></path>
<path d="M1.284 0.384 Q1.335 0.483 1.538 0.479" stroke="hsl(0.0,100%,35%)" stroke-width="0.00044"></path>
<path d="M1.284 0.384 Q0.473 0.451 0.424 0.860" stroke="hsl(0.0,100%,35%)" stroke-width="0.00044"></path>
<path d="M1.029 0.056 Q0.894 0.271 1.284 0.384" stroke="hsl(0.0,100%,35%)" stroke-width="0.00571"></path>
<path d="M1.029 0.056 Q-0.075 0.251 0.062 0.832" stroke="hsl(0.0,100%,35%)" stroke-width="0.00044"></path>
<path d="M1.029 0.056 Q0.746 0.016 0.606 0.146" stroke="hsl(0.0,100%,35%)" stroke-width="0.00395"></path>
<path d="M1.029 0.056 Q0.945 0.370 1.538 0.479" stroke="hsl(0.0,100%,35%)" stroke-width="0.00044"></path>
<path d="M1.029 0.056 Q0.171 0.094 0.055 0.521" stroke="hsl(0.0,100%,35%)" stroke-width="0.00044"></path>
<path d="M1.029 0.056 Q1.192 0.407 1.912 0.404" stroke="hsl(0.0,100%,35%)" stroke-width="0.00351"></path>
<path d="M1.029 0.056 Q0.964 0.164 1.160 0.219" stroke="hsl(0.0,100%,35%)" stroke-width="0.00088"></path>
<path d="M1.029 0.056 Q0.612 0.422 1.234 0.707" stroke="hsl(0.0,100%,35%)" stroke-width="0.00088"></path>
<path d="M1.029 0.056 Q0.722 0.268 1.068 0.465" stroke="hsl(0.0,100%,35%)" stroke-width="0.00044"></path>
<path d="M1.029 0.056 Q0.700 0.396 1.290 0.631" stroke="hsl(0.0,100%,35%)" stroke-width="0.00044"></path>
<path d="M0.606 0.146 Q0.889 0.186 1.029 0.056" stroke="hsl(0.0,100%,35%)" stroke-width="0.01669"></path>
<path d="M0.606 0.146 Q1.052 0.536 1.912 0.404" stroke="hsl(0.0,100%,35%)" stroke-width="0.00176"></path>
<path d="M0.606 0.146 Q0.581 0.398 1.068 0.465" stroke="hsl(0.0,100%,35%)" stroke-width="0.00044"></path>
<path d="M0.606 0.146 Q0.754 0.401 1.284 0.384" stroke="hsl(0.0,100%,35%)" stroke-width="0.00088"></path>
<path d="M0.606 0.146 Q1.144 0.474 1.902 0.283" stroke="hsl(0.0,100%,35%)" stroke-width="0.00747"></path>
<path d="M0.606 0.146 Q0.824 0.293 1.160 0.219" stroke="hsl(0.0,100%,35%)" stroke-width="0.00044"></path>
<path d="M1.538 0.479 Q0.676 0.447 0.424 0.860" stroke="hsl(180.0,100%,35%)" stroke-width="0.00264"></path>
<path d="M1.538 0.479 Q0.490 0.438 0.179 0.940" stroke="hsl(180.0,100%,35%)" stroke-width="0.00307"></path>
<path d="M1.538 0.479 Q1.487 0.381 1.284 0.384" stroke="hsl(180.0,100%,35%)" stroke-width="0.00176"></path>
<path d="M1.538 0.479 Q1.315 0.378 1.068 0.465" stroke="hsl(180.0,100%,35%)" stroke-width="0.01537"></path>
<path d="M1.538 0.479 Q0.763 0.203 0.055 0.521" stroke="hsl(180.0,100%,35%)" stroke-width="0.00176"></path>
<path d="M1.538 0.479 Q1.293 0.505 1.290 0.631" stroke="hsl(180.0,100%,35%)" stroke-width="0.00176"></path>
<path d="M1.538 0.479 Q0.757 0.289 0.215 0.629" stroke="hsl(180.0,100%,35%)" stroke-width="0.00132"></path>
<path d="M1.538 0.479 Q0.813 0.425 0.548 0.767" stroke="hsl(180.0,100%,35%)" stroke-width="0.00791"></path>
<path d="M1.538 0.479 Q1.661 0.416 1.565 0.342" stroke="hsl(180.0,100%,35%)" stroke-width="0.00044"></path>
<path d="M1.538 0.479 Q1.240 0.249 0.726 0.345" stroke="hsl(180.0,100%,35%)" stroke-width="0.00044"></path>
<path d="M0.144 0.237 Q0.220 0.428 0.610 0.433" stroke="hsl(180.0,100%,35%)" stroke-width="0.00088"></path>
<path d="M0.144 0.237 Q-0.127 0.361 0.055 0.521" stroke="hsl(180.0,100%,35%)" stroke-width="0.00132"></path>
<path d="M0.144 0.237 Q-0.401 0.595 0.179 0.940" stroke="hsl(180.0,100%,35%)" stroke-width="0.00044"></path>
<path d="M0.144 0.237 Q-0.134 0.447 0.215 0.629" stroke="hsl(180.0,100%,35%)" stroke-width="0.00044"></path>
<path d="M0.144 0.237 Q0.314 0.690 1.234 0.707" stroke="hsl(180.0,100%,35%)" stroke-width="0.00044"></path>
<path d="M0.610 0.433 Q0.814 0.541 1.068 0.465" stroke="hsl(180.0,100%,35%)" stroke-width="0.00176"></path>
<path d="M0.610 0.433 Q0.256 0.452 0.215 0.629" stroke="hsl(180.0,100%,35%)" stroke-width="0.00088"></path>
<path d="M0.610 0.433 Q0.312 0.588 0.548 0.767" stroke="hsl(180.0,100%,35%)" stroke-width="0.00176"></path>
<path d="M0.610 0.433 Q0.266 0.670 0.652 0.890" stroke="hsl(180.0,100%,35%)" stroke-width="0.00088"></path>
<path d="M0.610 0.433 Q1.209 0.464 1.401 0.179" stroke="hsl(180.0,100%,35%)" stroke-width="0.00044"></path>
<path d="M0.055 0.521 Q0.049 0.607 0.215 0.629" stroke="hsl(180.0,100%,35%)" stroke-width="0.00527"></path>
<path d="M0.055 0.521 Q0.105 0.742 0.548 0.767" stroke="hsl(180.0,100%,35%)" stroke-width="0.00264"></path>
<path d="M0.055 0.521 Q-0.190 0.678 0.062 0.832" stroke="hsl(180.0,100%,35%)" stroke-width="0.00088"></path>
<path d="M0.055 0.521 Q0.584 0.823 1.290 0.631" stroke="hsl(180.0,100%,35%)" stroke-width="0.00088"></path>
<path d="M0.055 0.521 Q0.606 0.695 1.068 0.465" stroke="hsl(180.0,100%,35%)" stroke-width="0.00088"></path>
<path d="M0.055 0.521 Q-0.218 0.755 0.179 0.940" stroke="hsl(180.0,100%,35%)" stroke-width="0.00044"></path>
<path d="M0.055 0.521 Q0.830 0.797 1.538 0.479" stroke="hsl(180.0,100%,35%)" stroke-width="0.00044"></path>
<path d="M0.179 0.940 Q0.350 0.873 0.258 0.775" stroke="hsl(180.0,100%,35%)" stroke-width="0.00088"></path>
<path d="M0.179 0.940 Q0.452 0.706 0.055 0.521" stroke="hsl(180.0,100%,35%)" stroke-width="0.00176"></path>
<path d="M0.179 0.940 Q0.207 0.862 0.062 0.832" stroke="hsl(180.0,100%,35%)" stroke-width="0.01230"></path>
<path d="M0.179 0.940 Q1.004 0.880 1.068 0.465" stroke="hsl(180.0,100%,35%)" stroke-width="0.00571"></path>
<path d="M0.179 0.940 Q1.227 0.981 1.538 0.479" stroke="hsl(180.0,100%,35%)" stroke-width="0.00351"></path>
<path d="M0.179 0.940 Q0.982 1.008 1.290 0.631" stroke="hsl(180.0,100%,35%)" stroke-width="0.01449"></path>
<path d="M0.179 0.940 Q1.176 0.883 1.284 0.384" stroke="hsl(180.0,100%,35%)" stroke-width="0.00132"></path>
<path d="M0.179 0.940 Q0.430 1.044 0.688 0.944" stroke="hsl(180.0,100%,35%)" stroke-width="0.00044"></path>
<path d="M0.179 0.940 Q0.502 0.927 0.548 0.767" stroke="hsl(180.0,100%,35%)" stroke-width="0.00044"></path>
<path d="M0.179 0.940 Q0.365 0.949 0.424 0.860" stroke="hsl(180.0,100%,35%)" stroke-width="0.00264"></path>
<path d="M0.179 0.940 Q0.446 0.792 0.215 0.629" stroke="hsl(180.0,100%,35%)" stroke-width="0.00088"></path>
<path d="M0.215 0.629 Q0.773 0.717 1.068 0.465" stroke="hsl(180.0,100%,35%)" stroke-width="0.00439"></path>
<path d="M0.215 0.629 Q0.382 0.577 0.317 0.484" stroke="hsl(180.0,100%,35%)" stroke-width="0.02372"></path>
<path d="M0.215 0.629 Q0.222 0.543 0.055 0.521" stroke="hsl(180.0,100%,35%)" stroke-width="0.00176"></path>
<path d="M0.215 0.629 Q0.663 0.872 1.234 0.707" stroke="hsl(180.0,100%,35%)" stroke-width="0.00044"></path>
<path d="M0.215 0.629 Q-0.052 0.777 0.179 0.940" stroke="hsl(180.0,100%,35%)" stroke-width="0.00132"></path>
<path d="M0.215 0.629 Q0.134 0.787 0.424 0.860" stroke="hsl(180.0,100%,35%)" stroke-width="0.00088"></path>
<path d="M0.215 0.629 Q-0.024 0.700 0.062 0.832" stroke="hsl(180.0,100%,35%)" stroke-width="0.00088"></path>
<path d="M0.215 0.629 Q1.335 0.793 1.902 0.283" stroke="hsl(180.0,100%,35%)" stroke-width="0.00044"></path>
<path d="M0.215 0.629 Q0.751 0.845 1.290 0.631" stroke="hsl(180.0,100%,35%)" stroke-width="0.00044"></path>
<path d="M1.234 0.707 Q1.568 0.654 1.538 0.479" stroke="hsl(180.0,100%,35%)" stroke-width="0.00132"></path>
<path d="M1.234 0.707 Q1.344 0.552 1.068 0.465" stroke="hsl(180.0,100%,35%)" stroke-width="0.00044"></path>
<path d="M1.234 0.707 Q1.141 0.445 0.610 0.433" stroke="hsl(180.0,100%,35%)" stroke-width="0.00044"></path>
<path d="M1.234 0.707 Q1.517 0.555 1.284 0.384" stroke="hsl(180.0,100%,35%)" stroke-width="0.00044"></path>
<path d="M1.234 0.707 Q0.787 0.464 0.215 0.629" stroke="hsl(180.0,100%,35%)" stroke-width="0.00132"></path>
<path d="M1.234 0.707 Q0.548 0.535 0.062 0.832" stroke="hsl(180.0,100%,35%)" stroke-width="0.00044"></path>
<path d="M1.234 0.707 Q0.843 0.599 0.548 0.767" stroke="hsl(180.0,100%,35%)" stroke-width="0.00132"></path>
<path d="M1.234 0.707 Q0.954 0.412 0.317 0.484" stroke="hsl(180.0,100%,35%)" stroke-width="0.00044"></path>
<path d="M1.234 0.707 Q0.520 0.612 0.179 0.940" stroke="hsl(180.0,100%,35%)" stroke-width="0.00044"></path>
<path d="M0.258 0.775 Q0.911 0.782 1.068 0.465" stroke="hsl(180.0,100%,35%)" stroke-width="0.00044"></path>
<path d="M0.258 0.775 Q0.086 0.842 0.179 0.940" stroke="hsl(180.0,100%,35%)" stroke-width="0.00483"></path>
<path d="M0.258 0.775 Q0.115 0.764 0.062 0.832" stroke="hsl(180.0,100%,35%)" stroke-width="0.00307"></path>
<path d="M0.062 0.832 Q0.858 0.849 1.068 0.465" stroke="hsl(180.0,100%,35%)" stroke-width="0.00088"></path>
<path d="M0.062 0.832 Q0.655 0.742 0.610 0.433" stroke="hsl(180.0,100%,35%)" stroke-width="0.00088"></path>
<path d="M0.062 0.832 Q0.357 0.896 0.548 0.767" stroke="hsl(180.0,100%,35%)" stroke-width="0.00176"></path>
<path d="M0.062 0.832 Q0.307 0.675 0.055 0.521" stroke="hsl(180.0,100%,35%)" stroke-width="0.00132"></path>
<path d="M0.062 0.832 Q0.468 0.709 0.317 0.484" stroke="hsl(180.0,100%,35%)" stroke-width="0.00044"></path>
<path d="M0.062 0.832 Q0.205 0.843 0.258 0.775" stroke="hsl(180.0,100%,35%)" stroke-width="0.00176"></path>
<path d="M0.062 0.832 Q0.034 0.909 0.179 0.940" stroke="hsl(180.0,100%,35%)" stroke-width="0.01625"></path>
<path d="M0.062 0.832 Q0.837 0.977 1.290 0.631" stroke="hsl(180.0,100%,35%)" stroke-width="0.00439"></path>
<path d="M0.062 0.832 Q1.082 0.951 1.538 0.479" stroke="hsl(180.0,100%,35%)" stroke-width="0.00088"></path>
<path d="M0.062 0.832 Q0.301 0.761 0.215 0.629" stroke="hsl(180.0,100%,35%)" stroke-width="0.00132"></path>
<path d="M0.062 0.832 Q0.690 0.938 1.036 0.656" stroke="hsl(180.0,100%,35%)" stroke-width="0.00044"></path>
<path d="M0.062 0.832 Q0.220 0.919 0.424 0.860" stroke="hsl(180.0,100%,35%)" stroke-width="0.00307"></path>
<path d="M0.062 0.832 Q1.101 0.745 1.160 0.219" stroke="hsl(180.0,100%,35%)" stroke-width="0.00044"></path>
<path d="M0.062 0.832 Q1.031 0.852 1.284 0.384" stroke="hsl(180.0,100%,35%)" stroke-width="0.00044"></path>
<path d="M0.062 0.832 Q1.166 0.637 1.029 0.056" stroke="hsl(180.0,100%,35%)" stroke-width="0.00044"></path>
<path d="M1.068 0.465 Q0.864 0.357 0.610 0.433" stroke="hsl(180.0,100%,35%)" stroke-width="0.00747"></path>
<path d="M1.068 0.465 Q0.415 0.458 0.258 0.775" stroke="hsl(180.0,100%,35%)" stroke-width="0.00132"></path>
<path d="M1.068 0.465 Q1.292 0.566 1.538 0.479" stroke="hsl(180.0,100%,35%)" stroke-width="0.00703"></path>
<path d="M1.068 0.465 Q1.463 0.388 1.401 0.179" stroke="hsl(180.0,100%,35%)" stroke-width="0.00044"></path>
<path d="M1.068 0.465 Q1.046 0.592 1.290 0.631" stroke="hsl(180.0,100%,35%)" stroke-width="0.00791"></path>
<path d="M1.068 0.465 Q0.677 0.324 0.317 0.484" stroke="hsl(180.0,100%,35%)" stroke-width="0.00176"></path>
<path d="M1.068 0.465 Q0.243 0.525 0.179 0.940" stroke="hsl(180.0,100%,35%)" stroke-width="0.02064"></path>
<path d="M1.068 0.465 Q0.567 0.512 0.548 0.767" stroke="hsl(180.0,100%,35%)" stroke-width="0.00132"></path>
<path d="M1.068 0.465 Q0.510 0.376 0.215 0.629" stroke="hsl(180.0,100%,35%)" stroke-width="0.00307"></path>
<path d="M1.068 0.465 Q0.272 0.447 0.062 0.832" stroke="hsl(180.0,100%,35%)" stroke-width="0.00088"></path>
<path d="M1.068 0.465 Q0.517 0.290 0.055 0.521" stroke="hsl(180.0,100%,35%)" stroke-width="0.00264"></path>
<path d="M1.068 0.465 Q0.958 0.619 1.234 0.707" stroke="hsl(180.0,100%,35%)" stroke-width="0.00176"></path>
<path d="M1.068 0.465 Q0.899 0.554 1.036 0.656" stroke="hsl(180.0,100%,35%)" stroke-width="0.00088"></path>
<path d="M1.290 0.631 Q1.312 0.504 1.068 0.465" stroke="hsl(180.0,100%,35%)" stroke-width="0.01932"></path>
<path d="M1.290 0.631 Q0.487 0.563 0.179 0.940" stroke="hsl(180.0,100%,35%)" stroke-width="0.01405"></path>
<path d="M1.290 0.631 Q0.810 0.550 0.548 0.767" stroke="hsl(180.0,100%,35%)" stroke-width="0.00395"></path>
<path d="M1.290 0.631 Q1.535 0.605 1.538 0.479" stroke="hsl(180.0,100%,35%)" stroke-width="0.00264"></path>
<path d="M1.290 0.631 Q0.515 0.486 0.062 0.832" stroke="hsl(180.0,100%,35%)" stroke-width="0.00395"></path>
<path d="M1.290 0.631 Q1.484 0.506 1.284 0.384" stroke="hsl(180.0,100%,35%)" stroke-width="0.00176"></path>
<path d="M1.290 0.631 Q0.760 0.329 0.055 0.521" stroke="hsl(180.0,100%,35%)" stroke-width="0.00351"></path>
<path d="M1.290 0.631 Q1.707 0.427 1.401 0.179" stroke="hsl(180.0,100%,35%)" stroke-width="0.00351"></path>
<path d="M1.290 0.631 Q0.738 0.667 0.688 0.944" stroke="hsl(180.0,100%,35%)" stroke-width="0.00176"></path>
<path d="M1.290 0.631 Q1.237 0.375 0.726 0.345" stroke="hsl(180.0,100%,35%)" stroke-width="0.00044"></path>
<path d="M1.290 0.631 Q0.754 0.415 0.215 0.629" stroke="hsl(180.0,100%,35%)" stroke-width="0.00088"></path>
<path d="M1.290 0.631 Q1.619 0.291 1.029 0.056" stroke="hsl(180.0,100%,35%)" stroke-width="0.00044"></path>
<path d="M1.290 0.631 Q0.658 0.497 0.258 0.775" stroke="hsl(180.0,100%,35%)" stroke-width="0.00088"></path>
<path d="M1.290 0.631 Q1.554 0.399 1.160 0.219" stroke="hsl(180.0,100%,35%)" stroke-width="0.00044"></path>
<path d="M1.290 0.631 Q1.143 0.593 1.036 0.656" stroke="hsl(180.0,100%,35%)" stroke-width="0.00176"></path>
<path d="M1.290 0.631 Q1.480 0.683 1.625 0.602" stroke="hsl(180.0,100%,35%)" stroke-width="0.00044"></path>
<path d="M1.290 0.631 Q0.921 0.363 0.317 0.484" stroke="hsl(180.0,100%,35%)" stroke-width="0.00044"></path>
<path d="M0.688 0.944 Q0.714 0.910 0.652 0.890" stroke="hsl(180.0,100%,35%)" stroke-width="0.00088"></path>
<path d="M0.688 0.944 Q0.760 0.827 0.548 0.767" stroke="hsl(180.0,100%,35%)" stroke-width="0.00527"></path>
<path d="M0.688 0.944 Q1.485 0.882 1.538 0.479" stroke="hsl(180.0,100%,35%)" stroke-width="0.00132"></path>
<path d="M0.688 0.944 Q0.710 0.606 0.055 0.521" stroke="hsl(180.0,100%,35%)" stroke-width="0.00351"></path>
<path d="M0.688 0.944 Q0.437 0.840 0.179 0.940" stroke="hsl(180.0,100%,35%)" stroke-width="0.00351"></path>
<path d="M0.688 0.944 Q1.239 0.908 1.290 0.631" stroke="hsl(180.0,100%,35%)" stroke-width="0.00088"></path>
<path d="M0.548 0.767 Q0.253 0.702 0.062 0.832" stroke="hsl(180.0,100%,35%)" stroke-width="0.00527"></path>
<path d="M0.548 0.767 Q0.881 0.809 1.036 0.656" stroke="hsl(180.0,100%,35%)" stroke-width="0.00044"></path>
<path d="M0.548 0.767 Q1.028 0.847 1.290 0.631" stroke="hsl(180.0,100%,35%)" stroke-width="0.00132"></path>
<path d="M0.548 0.767 Q0.502 0.849 0.652 0.890" stroke="hsl(180.0,100%,35%)" stroke-width="0.00834"></path>
<path d="M0.548 0.767 Q0.846 0.612 0.610 0.433" stroke="hsl(180.0,100%,35%)" stroke-width="0.00176"></path>
<path d="M0.548 0.767 Q1.273 0.821 1.538 0.479" stroke="hsl(180.0,100%,35%)" stroke-width="0.00395"></path>
<path d="M0.548 0.767 Q0.492 0.631 0.215 0.629" stroke="hsl(180.0,100%,35%)" stroke-width="0.00132"></path>
<path d="M0.548 0.767 Q0.498 0.545 0.055 0.521" stroke="hsl(180.0,100%,35%)" stroke-width="0.00220"></path>
<path d="M0.548 0.767 Q1.222 0.723 1.284 0.384" stroke="hsl(180.0,100%,35%)" stroke-width="0.00044"></path>
<path d="M0.424 0.860 Q1.063 0.791 1.068 0.465" stroke="hsl(180.0,100%,35%)" stroke-width="0.00044"></path>
<path d="M0.424 0.860 Q0.238 0.851 0.179 0.940" stroke="hsl(180.0,100%,35%)" stroke-width="0.00834"></path>
<path d="M0.424 0.860 Q0.409 0.785 0.258 0.775" stroke="hsl(180.0,100%,35%)" stroke-width="0.00088"></path>
<path d="M0.424 0.860 Q0.505 0.703 0.215 0.629" stroke="hsl(180.0,100%,35%)" stroke-width="0.00044"></path>
<path d="M0.424 0.860 Q0.266 0.774 0.062 0.832" stroke="hsl(180.0,100%,35%)" stroke-width="0.00571"></path>
<path d="M0.424 0.860 Q0.859 0.684 0.610 0.433" stroke="hsl(180.0,100%,35%)" stroke-width="0.00044"></path>
<path d="M0.424 0.860 Q1.041 0.919 1.290 0.631" stroke="hsl(180.0,100%,35%)" stroke-width="0.00132"></path>
<path d="M0.424 0.860 Q0.511 0.617 0.055 0.521" stroke="hsl(180.0,100%,35%)" stroke-width="0.00044"></path>
<path d="M1.401 0.179 Q1.178 0.258 1.284 0.384" stroke="hsl(0.0,100%,35%)" stroke-width="0.00791"></path>
<path d="M1.401 0.179 Q0.931 0.127 0.726 0.345" stroke="hsl(0.0,100%,35%)" stroke-width="0.00132"></path>
<path d="M1.401 0.179 Q1.248 0.151 1.160 0.219" stroke="hsl(0.0,100%,35%)" stroke-width="0.00044"></path>
<path d="M1.401 0.179 Q0.984 0.383 1.290 0.631" stroke="hsl(0.0,100%,35%)" stroke-width="0.00088"></path>
<path d="M1.401 0.179 Q0.454 0.081 0.055 0.521" stroke="hsl(0.0,100%,35%)" stroke-width="0.00088"></path>
<path d="M1.401 0.179 Q0.181 0.315 0.179 0.940" stroke="hsl(0.0,100%,35%)" stroke-width="0.00044"></path>
<path d="M1.401 0.179 Q0.367 0.324 0.424 0.860" stroke="hsl(0.0,100%,35%)" stroke-width="0.00044"></path>
<path d="M0.726 0.345 Q0.243 0.385 0.215 0.629" stroke="hsl(0.0,100%,35%)" stroke-width="0.00044"></path>
<path d="M0.726 0.345 Q0.973 0.476 1.284 0.384" stroke="hsl(0.0,100%,35%)" stroke-width="0.00703"></path>
<path d="M0.726 0.345 Q1.108 0.261 1.029 0.056" stroke="hsl(0.0,100%,35%)" stroke-width="0.00044"></path>
<path d="M0.726 0.345 Q0.410 0.333 0.317 0.484" stroke="hsl(0.0,100%,35%)" stroke-width="0.00088"></path>
<path d="M0.726 0.345 Q0.632 0.562 1.036 0.656" stroke="hsl(0.0,100%,35%)" stroke-width="0.00044"></path>
<path d="M0.726 0.345 Q1.043 0.369 1.160 0.219" stroke="hsl(0.0,100%,35%)" stroke-width="0.00176"></path>
<path d="M0.726 0.345 Q1.363 0.549 1.902 0.283" stroke="hsl(0.0,100%,35%)" stroke-width="0.00044"></path>
<path d="M1.160 0.219 Q0.842 0.195 0.726 0.345" stroke="hsl(0.0,100%,35%)" stroke-width="0.00307"></path>
<path d="M1.160 0.219 Q1.312 0.247 1.401 0.179" stroke="hsl(0.0,100%,35%)" stroke-width="0.00088"></path>
<path d="M1.160 0.219 Q0.917 0.324 1.068 0.465" stroke="hsl(0.0,100%,35%)" stroke-width="0.00088"></path>
<path d="M1.160 0.219 Q0.093 0.383 0.179 0.940" stroke="hsl(0.0,100%,35%)" stroke-width="0.00044"></path>
<path d="M1.160 0.219 Q1.089 0.327 1.284 0.384" stroke="hsl(0.0,100%,35%)" stroke-width="0.00439"></path>
<path d="M1.160 0.219 Q0.895 0.451 1.290 0.631" stroke="hsl(0.0,100%,35%)" stroke-width="0.00044"></path>
<path d="M1.160 0.219 Q1.225 0.112 1.029 0.056" stroke="hsl(0.0,100%,35%)" stroke-width="0.00088"></path>
<path d="M1.160 0.219 Q0.416 0.371 0.548 0.767" stroke="hsl(0.0,100%,35%)" stroke-width="0.00044"></path>
<path d="M1.160 0.219 Q0.366 0.149 0.055 0.521" stroke="hsl(0.0,100%,35%)" stroke-width="0.00044"></path>
<path d="M0.317 0.484 Q0.150 0.536 0.215 0.629" stroke="hsl(180.0,100%,35%)" stroke-width="0.01362"></path>
<path d="M0.317 0.484 Q0.157 0.450 0.055 0.521" stroke="hsl(180.0,100%,35%)" stroke-width="0.00088"></path>
<path d="M0.317 0.484 Q0.708 0.625 1.068 0.465" stroke="hsl(180.0,100%,35%)" stroke-width="0.00747"></path>
<path d="M0.317 0.484 Q-0.089 0.607 0.062 0.832" stroke="hsl(180.0,100%,35%)" stroke-width="0.00176"></path>
<path d="M0.317 0.484 Q0.633 0.496 0.726 0.345" stroke="hsl(180.0,100%,35%)" stroke-width="0.00044"></path>
<path d="M1.036 0.656 Q1.094 0.721 1.234 0.707" stroke="hsl(180.0,100%,35%)" stroke-width="0.00044"></path>
<path d="M1.036 0.656 Q1.428 0.668 1.538 0.479" stroke="hsl(180.0,100%,35%)" stroke-width="0.00044"></path>
<path d="M1.036 0.656 Q1.205 0.567 1.068 0.465" stroke="hsl(180.0,100%,35%)" stroke-width="0.00044"></path>
<path d="M1.036 0.656 Q0.380 0.627 0.179 0.940" stroke="hsl(180.0,100%,35%)" stroke-width="0.00044"></path>
<path d="M0.652 0.890 Q1.200 0.760 1.068 0.465" stroke="hsl(180.0,100%,35%)" stroke-width="0.00044"></path>
<path d="M0.652 0.890 Q0.699 0.807 0.548 0.767" stroke="hsl(180.0,100%,35%)" stroke-width="0.00176"></path>
<path d="M0.652 0.890 Q0.996 0.653 0.610 0.433" stroke="hsl(180.0,100%,35%)" stroke-width="0.00044"></path>
<path d="M0.893 0.558 Q1.279 0.648 1.538 0.479" stroke="hsl(180.0,100%,35%)" stroke-width="0.00088"></path>
<path d="M0.893 0.558 Q0.504 0.372 0.055 0.521" stroke="hsl(180.0,100%,35%)" stroke-width="0.00132"></path>
<path d="M0.893 0.558 Q0.945 0.701 1.234 0.707" stroke="hsl(180.0,100%,35%)" stroke-width="0.00044"></path>
<path d="M0.893 0.558 Q0.554 0.593 0.548 0.767" stroke="hsl(180.0,100%,35%)" stroke-width="0.00088"></path>
<path d="M1.268 0.838 Q1.690 0.713 1.538 0.479" stroke="hsl(180.0,100%,35%)" stroke-width="0.00351"></path>
<path d="M1.268 0.838 Q1.094 0.791 0.965 0.865" stroke="hsl(180.0,100%,35%)" stroke-width="0.00395"></path>
<path d="M1.268 0.838 Q1.937 0.750 1.912 0.404" stroke="hsl(180.0,100%,35%)" stroke-width="0.00044"></path>
<path d="M1.268 0.838 Q1.774 0.399 1.029 0.056" stroke="hsl(180.0,100%,35%)" stroke-width="0.00132"></path>
<path d="M1.268 0.838 Q0.908 0.523 0.215 0.629" stroke="hsl(180.0,100%,35%)" stroke-width="0.00044"></path>
<path d="M0.965 0.865 Q1.560 0.787 1.538 0.479" stroke="hsl(180.0,100%,35%)" stroke-width="0.00088"></path>
<path d="M0.965 0.865 Q0.698 0.755 0.424 0.860" stroke="hsl(180.0,100%,35%)" stroke-width="0.00044"></path>
<path d="M0.965 0.865 Q0.835 0.733 0.548 0.767" stroke="hsl(180.0,100%,35%)" stroke-width="0.00044"></path>
<path d="M0.728 0.648 Q1.044 0.624 1.068 0.465" stroke="hsl(180.0,100%,35%)" stroke-width="0.00132"></path>
<path d="M0.728 0.648 Q0.487 0.536 0.215 0.629" stroke="hsl(180.0,100%,35%)" stroke-width="0.00132"></path>
<path d="M0.728 0.648 Q0.543 0.671 0.548 0.767" stroke="hsl(180.0,100%,35%)" stroke-width="0.00176"></path>
<path d="M0.728 0.648 Q1.268 0.726 1.538 0.479" stroke="hsl(180.0,100%,35%)" stroke-width="0.00088"></path>
<path d="M0.728 0.648 Q0.248 0.607 0.062 0.832" stroke="hsl(180.0,100%,35%)" stroke-width="0.00044"></path>
<path d="M0.728 0.648 Q0.654 0.484 0.317 0.484" stroke="hsl(180.0,100%,35%)" stroke-width="0.00044"></path>
<path d="M0.944 0.971 Q1.635 0.844 1.538 0.479" stroke="hsl(180.0,100%,35%)" stroke-width="0.00747"></path>
<path d="M0.944 0.971 Q1.039 0.922 0.965 0.865" stroke="hsl(180.0,100%,35%)" stroke-width="0.00791"></path>
<path d="M0.944 0.971 Q1.336 0.614 0.726 0.345" stroke="hsl(180.0,100%,35%)" stroke-width="0.00088"></path>
<path d="M0.944 0.971 Q1.718 0.531 1.029 0.056" stroke="hsl(180.0,100%,35%)" stroke-width="0.00044"></path>
<path d="M0.944 0.971 Q0.853 0.654 0.215 0.629" stroke="hsl(180.0,100%,35%)" stroke-width="0.00176"></path>
<path d="M1.110 0.755 Q1.321 0.602 1.068 0.465" stroke="hsl(180.0,100%,35%)" stroke-width="0.00044"></path>
<path d="M1.110 0.755 Q1.152 0.691 1.036 0.656" stroke="hsl(180.0,100%,35%)" stroke-width="0.00044"></path>
<path d="M1.110 0.755 Q0.770 0.427 0.055 0.521" stroke="hsl(180.0,100%,35%)" stroke-width="0.00044"></path>
<path d="M0.887 0.648 Q1.687 0.668 1.902 0.283" stroke="hsl(180.0,100%,35%)" stroke-width="0.00044"></path>
<path d="M0.887 0.648 Q1.124 0.592 1.068 0.465" stroke="hsl(180.0,100%,35%)" stroke-width="0.00044"></path>
<path d="M0.887 0.648 Q1.348 0.694 1.538 0.479" stroke="hsl(180.0,100%,35%)" stroke-width="0.00088"></path>
<path d="M0.816 0.764 Q1.424 0.560 1.160 0.219" stroke="hsl(0.0,100%,35%)" stroke-width="0.00044"></path>
<path d="M0.816 0.764 Q1.489 0.453 1.029 0.056" stroke="hsl(0.0,100%,35%)" stroke-width="0.00044"></path>
<path d="M0.816 0.764 Q0.978 0.558 0.610 0.433" stroke="hsl(0.0,100%,35%)" stroke-width="0.00044"></path>
<path d="M0.816 0.764 Q0.680 0.712 0.548 0.767" stroke="hsl(0.0,100%,35%)" stroke-width="0.00044"></path>
</g>
<text x="1.912" y="0.389" font-size="0.030341" fill="hsl(0.0,100%,20%)">aixba</text>
<text x="1.902" y="0.266" font-size="0.033812" fill="hsl(0.0,100%,20%)">asraine</text>
<text x="1.284" y="0.359" font-size="0.051697" fill="hsl(0.0,100%,20%)">jacktfranklin</text>
<text x="1.029" y="0.036" font-size="0.040229" fill="hsl(0.0,100%,20%)">paulirish</text>
<text x="0.606" y="0.126" font-size="0.038916" fill="hsl(0.0,100%,20%)">cjamcl</text>
<text x="1.538" y="0.454" font-size="0.049944" fill="hsl(180.0,100%,20%)">dsv</text>
<text x="0.144" y="0.232" font-size="0.010899" fill="hsl(180.0,100%,20%)">aksen5240</text>
<text x="0.610" y="0.421" font-size="0.024972" fill="hsl(180.0,100%,20%)">changhaohan</text>
<text x="0.055" y="0.503" font-size="0.035526" fill="hsl(180.0,100%,20%)">szuend</text>
<text x="0.179" y="0.907" font-size="0.065165" fill="hsl(180.0,100%,20%)">alexrudenko</text>
<text x="0.215" y="0.605" font-size="0.048282" fill="hsl(180.0,100%,20%)">kimanh</text>
<text x="1.234" y="0.697" font-size="0.019266" fill="hsl(180.0,100%,20%)">yangguo</text>
<text x="0.258" y="0.764" font-size="0.021797" fill="hsl(180.0,100%,20%)">samiyac</text>
<text x="0.062" y="0.806" font-size="0.050828" fill="hsl(180.0,100%,20%)">ergunsh</text>
<text x="1.068" y="0.433" font-size="0.063433" fill="hsl(180.0,100%,20%)">bmeurer</text>
<text x="1.290" y="0.602" font-size="0.057799" fill="hsl(180.0,100%,20%)">nvitkov</text>
<text x="0.688" y="0.932" font-size="0.024370" fill="hsl(180.0,100%,20%)">liviurau</text>
<text x="0.548" y="0.745" font-size="0.044271" fill="hsl(180.0,100%,20%)">pfaffe</text>
<text x="0.424" y="0.845" font-size="0.031066" fill="hsl(180.0,100%,20%)">wolfi</text>
<text x="1.401" y="0.166" font-size="0.026417" fill="hsl(0.0,100%,20%)">alinavarkki</text>
<text x="0.726" y="0.330" font-size="0.028577" fill="hsl(0.0,100%,20%)">nancyly</text>
<text x="1.160" y="0.204" font-size="0.029346" fill="hsl(0.0,100%,20%)">andoli</text>
<text x="0.317" y="0.463" font-size="0.042211" fill="hsl(180.0,100%,20%)">kprokopenko</text>
<text x="1.036" y="0.648" font-size="0.014924" fill="hsl(180.0,100%,20%)">mathias</text>
<text x="0.652" y="0.879" font-size="0.020751" fill="hsl(180.0,100%,20%)">leese</text>
<text x="0.893" y="0.553" font-size="0.010899" fill="hsl(180.0,100%,20%)">cwu631</text>
<text x="1.565" y="0.340" font-size="0.003853" fill="hsl(180.0,100%,20%)">kenoss</text>
<text x="1.268" y="0.829" font-size="0.018074" fill="hsl(180.0,100%,20%)">jalonthomas</text>
<text x="0.965" y="0.854" font-size="0.021454" fill="hsl(180.0,100%,20%)">shuuran</text>
<text x="0.728" y="0.641" font-size="0.014418" fill="hsl(180.0,100%,20%)">marcelpuetz</text>
<text x="0.944" y="0.959" font-size="0.024972" fill="hsl(180.0,100%,20%)">masnoble</text>
<text x="1.625" y="0.600" font-size="0.003853" fill="hsl(180.0,100%,20%)">victorporof</text>
<text x="1.110" y="0.752" font-size="0.006674" fill="hsl(180.0,100%,20%)">petermarshall</text>
<text x="0.887" y="0.644" font-size="0.007707" fill="hsl(180.0,100%,20%)">semel</text>
<text x="0.816" y="0.760" font-size="0.007707" fill="hsl(0.0,100%,20%)">yanlingwang</text>
</svg>
