<svg width="4000" height="2000" viewBox="-0.025 -0.025 2.05 1.05" xmlns="http://www.w3.org/2000/svg">
  <style>
    path {
      fill: none;
      stroke-linecap: round;
      stroke-opacity: 0.4;
    }

    text {
      text-anchor: middle;
      alignment-baseline: hanging;
    }
  </style>
  <g opacity="0.4">
<path d="M1.391 0.594 Q1.336 0.583 1.303 0.608" stroke="hsl(0.0,100%,35%)" stroke-width="0.00554"></path>
<path d="M1.391 0.594 Q1.469 0.788 1.864 0.792" stroke="hsl(0.0,100%,35%)" stroke-width="0.00298"></path>
<path d="M1.391 0.594 Q1.041 0.430 0.644 0.564" stroke="hsl(0.0,100%,35%)" stroke-width="0.00511"></path>
<path d="M1.391 0.594 Q0.967 0.366 0.429 0.522" stroke="hsl(0.0,100%,35%)" stroke-width="0.00128"></path>
<path d="M1.391 0.594 Q1.143 0.678 1.253 0.818" stroke="hsl(0.0,100%,35%)" stroke-width="0.00043"></path>
<path d="M1.303 0.608 Q0.934 0.390 0.429 0.522" stroke="hsl(0.0,100%,35%)" stroke-width="0.00980"></path>
<path d="M1.303 0.608 Q1.008 0.454 0.644 0.564" stroke="hsl(0.0,100%,35%)" stroke-width="0.00426"></path>
<path d="M1.303 0.608 Q1.358 0.618 1.391 0.594" stroke="hsl(0.0,100%,35%)" stroke-width="0.00298"></path>
<path d="M1.303 0.608 Q1.442 0.254 0.782 0.108" stroke="hsl(0.0,100%,35%)" stroke-width="0.00043"></path>
<path d="M1.303 0.608 Q1.594 0.744 1.924 0.632" stroke="hsl(0.0,100%,35%)" stroke-width="0.00043"></path>
<path d="M1.303 0.608 Q1.503 0.740 1.804 0.671" stroke="hsl(0.0,100%,35%)" stroke-width="0.00043"></path>
<path d="M1.864 0.792 Q1.673 0.499 1.060 0.528" stroke="hsl(0.0,100%,35%)" stroke-width="0.00554"></path>
<path d="M1.864 0.792 Q1.786 0.598 1.391 0.594" stroke="hsl(0.0,100%,35%)" stroke-width="0.00170"></path>
<path d="M1.864 0.792 Q1.159 0.465 0.365 0.737" stroke="hsl(0.0,100%,35%)" stroke-width="0.00767"></path>
<path d="M1.864 0.792 Q1.362 0.370 0.429 0.522" stroke="hsl(0.0,100%,35%)" stroke-width="0.00128"></path>
<path d="M1.864 0.792 Q1.731 0.588 1.303 0.608" stroke="hsl(0.0,100%,35%)" stroke-width="0.00085"></path>
<path d="M1.864 0.792 Q1.391 0.526 0.769 0.699" stroke="hsl(0.0,100%,35%)" stroke-width="0.00809"></path>
<path d="M1.864 0.792 Q2.022 0.724 1.924 0.632" stroke="hsl(0.0,100%,35%)" stroke-width="0.00596"></path>
<path d="M1.864 0.792 Q1.931 0.720 1.804 0.671" stroke="hsl(0.0,100%,35%)" stroke-width="0.00937"></path>
<path d="M1.864 0.792 Q1.436 0.434 0.644 0.564" stroke="hsl(0.0,100%,35%)" stroke-width="0.00213"></path>
<path d="M1.864 0.792 Q1.414 0.216 0.191 0.309" stroke="hsl(0.0,100%,35%)" stroke-width="0.00043"></path>
<path d="M1.864 0.792 Q1.580 0.806 1.545 0.947" stroke="hsl(0.0,100%,35%)" stroke-width="0.00085"></path>
<path d="M1.864 0.792 Q1.830 0.666 1.576 0.654" stroke="hsl(0.0,100%,35%)" stroke-width="0.01065"></path>
<path d="M1.864 0.792 Q1.518 0.481 0.836 0.581" stroke="hsl(0.0,100%,35%)" stroke-width="0.00043"></path>
<path d="M1.864 0.792 Q1.538 0.683 1.253 0.818" stroke="hsl(0.0,100%,35%)" stroke-width="0.00085"></path>
<path d="M1.864 0.792 Q1.111 0.544 0.462 0.857" stroke="hsl(0.0,100%,35%)" stroke-width="0.00043"></path>
<path d="M1.864 0.792 Q1.870 0.234 0.782 0.108" stroke="hsl(0.0,100%,35%)" stroke-width="0.00085"></path>
<path d="M1.864 0.792 Q1.479 0.773 1.358 0.956" stroke="hsl(0.0,100%,35%)" stroke-width="0.00043"></path>
<path d="M1.864 0.792 Q1.434 0.293 0.365 0.392" stroke="hsl(0.0,100%,35%)" stroke-width="0.00043"></path>
<path d="M1.864 0.792 Q1.965 0.517 1.450 0.406" stroke="hsl(0.0,100%,35%)" stroke-width="0.00043"></path>
<path d="M1.864 0.792 Q1.257 0.298 0.159 0.485" stroke="hsl(0.0,100%,35%)" stroke-width="0.00043"></path>
<path d="M0.644 0.564 Q0.570 0.500 0.429 0.522" stroke="hsl(0.0,100%,35%)" stroke-width="0.00511"></path>
<path d="M0.644 0.564 Q0.746 0.813 1.253 0.818" stroke="hsl(0.0,100%,35%)" stroke-width="0.00043"></path>
<path d="M0.644 0.564 Q1.072 0.922 1.864 0.792" stroke="hsl(0.0,100%,35%)" stroke-width="0.00554"></path>
<path d="M0.644 0.564 Q1.078 0.364 0.782 0.108" stroke="hsl(0.0,100%,35%)" stroke-width="0.00043"></path>
<path d="M0.644 0.564 Q0.994 0.729 1.391 0.594" stroke="hsl(0.0,100%,35%)" stroke-width="0.00341"></path>
<path d="M0.644 0.564 Q1.139 0.850 1.804 0.671" stroke="hsl(0.0,100%,35%)" stroke-width="0.00128"></path>
<path d="M0.644 0.564 Q0.642 0.423 0.365 0.392" stroke="hsl(0.0,100%,35%)" stroke-width="0.00085"></path>
<path d="M0.644 0.564 Q0.779 0.695 1.063 0.658" stroke="hsl(0.0,100%,35%)" stroke-width="0.00043"></path>
<path d="M0.644 0.564 Q0.881 0.630 1.060 0.528" stroke="hsl(0.0,100%,35%)" stroke-width="0.00043"></path>
<path d="M0.429 0.522 Q0.503 0.586 0.644 0.564" stroke="hsl(0.0,100%,35%)" stroke-width="0.02215"></path>
<path d="M0.429 0.522 Q0.797 0.740 1.303 0.608" stroke="hsl(0.0,100%,35%)" stroke-width="0.00724"></path>
<path d="M0.429 0.522 Q0.852 0.751 1.391 0.594" stroke="hsl(0.0,100%,35%)" stroke-width="0.00128"></path>
<path d="M0.429 0.522 Q0.930 0.944 1.864 0.792" stroke="hsl(0.0,100%,35%)" stroke-width="0.00256"></path>
<path d="M0.429 0.522 Q0.997 0.872 1.804 0.671" stroke="hsl(0.0,100%,35%)" stroke-width="0.00043"></path>
<path d="M0.429 0.522 Q0.637 0.717 1.063 0.658" stroke="hsl(0.0,100%,35%)" stroke-width="0.00043"></path>
<path d="M0.429 0.522 Q0.740 0.652 1.060 0.528" stroke="hsl(0.0,100%,35%)" stroke-width="0.00043"></path>
<path d="M1.253 0.818 Q0.826 0.679 0.462 0.857" stroke="hsl(180.0,100%,35%)" stroke-width="0.00256"></path>
<path d="M1.253 0.818 Q1.106 0.661 0.769 0.699" stroke="hsl(180.0,100%,35%)" stroke-width="0.00298"></path>
<path d="M1.253 0.818 Q1.579 0.927 1.864 0.792" stroke="hsl(180.0,100%,35%)" stroke-width="0.00256"></path>
<path d="M1.253 0.818 Q1.286 0.700 1.063 0.658" stroke="hsl(180.0,100%,35%)" stroke-width="0.01789"></path>
<path d="M1.253 0.818 Q1.585 0.369 0.782 0.108" stroke="hsl(180.0,100%,35%)" stroke-width="0.00213"></path>
<path d="M1.253 0.818 Q1.388 0.634 1.060 0.528" stroke="hsl(180.0,100%,35%)" stroke-width="0.00383"></path>
<path d="M1.253 0.818 Q0.972 0.433 0.159 0.485" stroke="hsl(180.0,100%,35%)" stroke-width="0.00298"></path>
<path d="M1.253 0.818 Q1.295 0.941 1.545 0.947" stroke="hsl(180.0,100%,35%)" stroke-width="0.01448"></path>
<path d="M1.253 0.818 Q1.292 0.268 0.227 0.128" stroke="hsl(180.0,100%,35%)" stroke-width="0.00043"></path>
<path d="M1.253 0.818 Q1.737 0.859 1.924 0.632" stroke="hsl(180.0,100%,35%)" stroke-width="0.00043"></path>
<path d="M1.253 0.818 Q1.149 0.428 0.365 0.392" stroke="hsl(180.0,100%,35%)" stroke-width="0.00043"></path>
<path d="M1.253 0.818 Q1.680 0.652 1.450 0.406" stroke="hsl(180.0,100%,35%)" stroke-width="0.00043"></path>
<path d="M1.253 0.818 Q1.129 0.351 0.191 0.309" stroke="hsl(180.0,100%,35%)" stroke-width="0.00043"></path>
<path d="M1.378 0.284 Q1.316 0.360 1.450 0.406" stroke="hsl(180.0,100%,35%)" stroke-width="0.00085"></path>
<path d="M1.378 0.284 Q1.220 0.077 0.782 0.108" stroke="hsl(180.0,100%,35%)" stroke-width="0.00128"></path>
<path d="M1.378 0.284 Q0.742 0.369 0.769 0.699" stroke="hsl(180.0,100%,35%)" stroke-width="0.00043"></path>
<path d="M1.378 0.284 Q0.608 0.141 0.159 0.485" stroke="hsl(180.0,100%,35%)" stroke-width="0.00043"></path>
<path d="M1.378 0.284 Q0.785 0.136 0.365 0.392" stroke="hsl(180.0,100%,35%)" stroke-width="0.00043"></path>
<path d="M1.450 0.406 Q1.065 0.696 1.545 0.947" stroke="hsl(180.0,100%,35%)" stroke-width="0.00170"></path>
<path d="M1.450 0.406 Q1.055 0.455 1.063 0.658" stroke="hsl(180.0,100%,35%)" stroke-width="0.00128"></path>
<path d="M1.450 0.406 Q0.964 0.663 1.358 0.956" stroke="hsl(180.0,100%,35%)" stroke-width="0.00085"></path>
<path d="M1.450 0.406 Q1.314 0.556 1.576 0.654" stroke="hsl(180.0,100%,35%)" stroke-width="0.00043"></path>
<path d="M1.450 0.406 Q1.354 0.124 0.782 0.108" stroke="hsl(180.0,100%,35%)" stroke-width="0.00085"></path>
<path d="M0.782 0.108 Q0.169 0.172 0.159 0.485" stroke="hsl(180.0,100%,35%)" stroke-width="0.00511"></path>
<path d="M0.782 0.108 Q0.493 0.680 1.545 0.947" stroke="hsl(180.0,100%,35%)" stroke-width="0.00341"></path>
<path d="M0.782 0.108 Q0.071 0.339 0.365 0.737" stroke="hsl(180.0,100%,35%)" stroke-width="0.00128"></path>
<path d="M0.782 0.108 Q0.585 0.374 1.060 0.528" stroke="hsl(180.0,100%,35%)" stroke-width="0.00085"></path>
<path d="M0.782 0.108 Q0.483 0.439 1.063 0.658" stroke="hsl(180.0,100%,35%)" stroke-width="0.00170"></path>
<path d="M0.782 0.108 Q0.303 0.401 0.769 0.699" stroke="hsl(180.0,100%,35%)" stroke-width="0.00128"></path>
<path d="M0.782 0.108 Q0.450 0.557 1.253 0.818" stroke="hsl(180.0,100%,35%)" stroke-width="0.00085"></path>
<path d="M0.782 0.108 Q0.346 0.167 0.365 0.392" stroke="hsl(180.0,100%,35%)" stroke-width="0.00043"></path>
<path d="M0.769 0.699 Q1.248 0.406 0.782 0.108" stroke="hsl(180.0,100%,35%)" stroke-width="0.00256"></path>
<path d="M0.769 0.699 Q0.536 0.637 0.365 0.737" stroke="hsl(180.0,100%,35%)" stroke-width="0.01406"></path>
<path d="M0.769 0.699 Q0.949 0.737 1.063 0.658" stroke="hsl(180.0,100%,35%)" stroke-width="0.00554"></path>
<path d="M0.769 0.699 Q0.915 0.855 1.253 0.818" stroke="hsl(180.0,100%,35%)" stroke-width="0.00426"></path>
<path d="M0.769 0.699 Q1.051 0.672 1.060 0.528" stroke="hsl(180.0,100%,35%)" stroke-width="0.01533"></path>
<path d="M0.769 0.699 Q0.626 0.676 0.551 0.741" stroke="hsl(180.0,100%,35%)" stroke-width="0.00043"></path>
<path d="M0.769 0.699 Q1.242 0.964 1.864 0.792" stroke="hsl(180.0,100%,35%)" stroke-width="0.00170"></path>
<path d="M0.769 0.699 Q1.198 0.481 0.868 0.224" stroke="hsl(180.0,100%,35%)" stroke-width="0.00043"></path>
<path d="M0.769 0.699 Q0.958 0.978 1.545 0.947" stroke="hsl(180.0,100%,35%)" stroke-width="0.00128"></path>
<path d="M0.769 0.699 Q0.489 0.716 0.462 0.857" stroke="hsl(180.0,100%,35%)" stroke-width="0.00256"></path>
<path d="M0.769 0.699 Q0.635 0.470 0.159 0.485" stroke="hsl(180.0,100%,35%)" stroke-width="0.00085"></path>
<path d="M0.159 0.485 Q0.316 0.403 0.191 0.309" stroke="hsl(180.0,100%,35%)" stroke-width="0.02854"></path>
<path d="M0.159 0.485 Q0.473 0.752 1.063 0.658" stroke="hsl(180.0,100%,35%)" stroke-width="0.00426"></path>
<path d="M0.159 0.485 Q0.772 0.421 0.782 0.108" stroke="hsl(180.0,100%,35%)" stroke-width="0.00170"></path>
<path d="M0.159 0.485 Q0.337 0.480 0.365 0.392" stroke="hsl(180.0,100%,35%)" stroke-width="0.00043"></path>
<path d="M0.159 0.485 Q0.293 0.714 0.769 0.699" stroke="hsl(180.0,100%,35%)" stroke-width="0.00128"></path>
<path d="M0.159 0.485 Q0.013 0.731 0.462 0.857" stroke="hsl(180.0,100%,35%)" stroke-width="0.00085"></path>
<path d="M0.159 0.485 Q0.061 0.652 0.365 0.737" stroke="hsl(180.0,100%,35%)" stroke-width="0.00085"></path>
<path d="M0.159 0.485 Q0.633 0.775 1.303 0.608" stroke="hsl(180.0,100%,35%)" stroke-width="0.00043"></path>
<path d="M0.159 0.485 Q0.576 0.687 1.060 0.528" stroke="hsl(180.0,100%,35%)" stroke-width="0.00043"></path>
<path d="M0.159 0.485 Q0.382 0.960 1.358 0.956" stroke="hsl(180.0,100%,35%)" stroke-width="0.00085"></path>
<path d="M0.365 0.392 Q0.897 0.616 1.450 0.406" stroke="hsl(180.0,100%,35%)" stroke-width="0.00043"></path>
<path d="M0.365 0.392 Q0.795 0.892 1.864 0.792" stroke="hsl(180.0,100%,35%)" stroke-width="0.00043"></path>
<path d="M0.365 0.392 Q0.188 0.398 0.159 0.485" stroke="hsl(180.0,100%,35%)" stroke-width="0.00170"></path>
<path d="M0.365 0.392 Q0.090 0.564 0.365 0.737" stroke="hsl(180.0,100%,35%)" stroke-width="0.00043"></path>
<path d="M0.365 0.392 Q0.511 0.906 1.545 0.947" stroke="hsl(180.0,100%,35%)" stroke-width="0.00128"></path>
<path d="M0.365 0.392 Q0.345 0.316 0.191 0.309" stroke="hsl(180.0,100%,35%)" stroke-width="0.00043"></path>
<path d="M0.365 0.392 Q0.322 0.626 0.769 0.699" stroke="hsl(180.0,100%,35%)" stroke-width="0.00043"></path>
<path d="M0.365 0.737 Q0.786 1.078 1.545 0.947" stroke="hsl(180.0,100%,35%)" stroke-width="0.00128"></path>
<path d="M0.365 0.737 Q1.172 0.789 1.450 0.406" stroke="hsl(180.0,100%,35%)" stroke-width="0.00043"></path>
<path d="M0.365 0.737 Q0.620 0.488 0.191 0.309" stroke="hsl(180.0,100%,35%)" stroke-width="0.00043"></path>
<path d="M0.365 0.737 Q0.454 0.776 0.551 0.741" stroke="hsl(180.0,100%,35%)" stroke-width="0.00170"></path>
<path d="M0.365 0.737 Q0.597 0.798 0.769 0.699" stroke="hsl(180.0,100%,35%)" stroke-width="0.01874"></path>
<path d="M0.365 0.737 Q0.777 0.837 1.063 0.658" stroke="hsl(180.0,100%,35%)" stroke-width="0.00170"></path>
<path d="M0.365 0.737 Q0.879 0.771 1.060 0.528" stroke="hsl(180.0,100%,35%)" stroke-width="0.00554"></path>
<path d="M0.365 0.737 Q0.744 0.955 1.253 0.818" stroke="hsl(180.0,100%,35%)" stroke-width="0.00128"></path>
<path d="M0.365 0.737 Q0.463 0.570 0.159 0.485" stroke="hsl(180.0,100%,35%)" stroke-width="0.00170"></path>
<path d="M0.365 0.737 Q0.724 0.753 0.836 0.581" stroke="hsl(180.0,100%,35%)" stroke-width="0.00043"></path>
<path d="M0.365 0.737 Q1.076 0.506 0.782 0.108" stroke="hsl(180.0,100%,35%)" stroke-width="0.00085"></path>
<path d="M0.365 0.737 Q0.317 0.816 0.462 0.857" stroke="hsl(180.0,100%,35%)" stroke-width="0.00383"></path>
<path d="M0.365 0.737 Q1.137 0.992 1.804 0.671" stroke="hsl(180.0,100%,35%)" stroke-width="0.00043"></path>
<path d="M0.365 0.737 Q1.070 1.064 1.864 0.792" stroke="hsl(180.0,100%,35%)" stroke-width="0.00043"></path>
<path d="M0.365 0.737 Q0.642 0.706 0.644 0.564" stroke="hsl(180.0,100%,35%)" stroke-width="0.00043"></path>
<path d="M1.063 0.658 Q0.906 0.309 0.191 0.309" stroke="hsl(180.0,100%,35%)" stroke-width="0.00128"></path>
<path d="M1.063 0.658 Q0.883 0.619 0.769 0.699" stroke="hsl(180.0,100%,35%)" stroke-width="0.02385"></path>
<path d="M1.063 0.658 Q0.749 0.391 0.159 0.485" stroke="hsl(180.0,100%,35%)" stroke-width="0.00298"></path>
<path d="M1.063 0.658 Q1.030 0.776 1.253 0.818" stroke="hsl(180.0,100%,35%)" stroke-width="0.00213"></path>
<path d="M1.063 0.658 Q1.165 0.592 1.060 0.528" stroke="hsl(180.0,100%,35%)" stroke-width="0.00639"></path>
<path d="M1.063 0.658 Q1.458 0.609 1.450 0.406" stroke="hsl(180.0,100%,35%)" stroke-width="0.00085"></path>
<path d="M1.063 0.658 Q0.926 0.386 0.365 0.392" stroke="hsl(180.0,100%,35%)" stroke-width="0.00213"></path>
<path d="M1.063 0.658 Q1.362 0.327 0.782 0.108" stroke="hsl(180.0,100%,35%)" stroke-width="0.00256"></path>
<path d="M1.063 0.658 Q1.010 0.574 0.836 0.581" stroke="hsl(180.0,100%,35%)" stroke-width="0.00085"></path>
<path d="M1.063 0.658 Q1.073 0.899 1.545 0.947" stroke="hsl(180.0,100%,35%)" stroke-width="0.00128"></path>
<path d="M1.063 0.658 Q0.651 0.558 0.365 0.737" stroke="hsl(180.0,100%,35%)" stroke-width="0.00085"></path>
<path d="M1.063 0.658 Q0.603 0.637 0.462 0.857" stroke="hsl(180.0,100%,35%)" stroke-width="0.00043"></path>
<path d="M1.060 0.528 Q0.958 0.594 1.063 0.658" stroke="hsl(180.0,100%,35%)" stroke-width="0.02513"></path>
<path d="M1.060 0.528 Q0.967 0.834 1.545 0.947" stroke="hsl(180.0,100%,35%)" stroke-width="0.00554"></path>
<path d="M1.060 0.528 Q0.925 0.711 1.253 0.818" stroke="hsl(180.0,100%,35%)" stroke-width="0.00809"></path>
<path d="M1.060 0.528 Q0.546 0.493 0.365 0.737" stroke="hsl(180.0,100%,35%)" stroke-width="0.00767"></path>
<path d="M1.060 0.528 Q1.251 0.821 1.864 0.792" stroke="hsl(180.0,100%,35%)" stroke-width="0.00341"></path>
<path d="M1.060 0.528 Q1.257 0.263 0.782 0.108" stroke="hsl(180.0,100%,35%)" stroke-width="0.00554"></path>
<path d="M1.060 0.528 Q0.778 0.555 0.769 0.699" stroke="hsl(180.0,100%,35%)" stroke-width="0.01576"></path>
<path d="M1.060 0.528 Q1.217 0.694 1.576 0.654" stroke="hsl(180.0,100%,35%)" stroke-width="0.00383"></path>
<path d="M1.060 0.528 Q1.208 0.337 0.868 0.224" stroke="hsl(180.0,100%,35%)" stroke-width="0.00341"></path>
<path d="M1.060 0.528 Q1.409 0.753 1.924 0.632" stroke="hsl(180.0,100%,35%)" stroke-width="0.00043"></path>
<path d="M1.060 0.528 Q0.644 0.327 0.159 0.485" stroke="hsl(180.0,100%,35%)" stroke-width="0.00085"></path>
<path d="M1.060 0.528 Q0.823 0.463 0.644 0.564" stroke="hsl(180.0,100%,35%)" stroke-width="0.00085"></path>
<path d="M1.060 0.528 Q0.635 0.533 0.551 0.741" stroke="hsl(180.0,100%,35%)" stroke-width="0.00085"></path>
<path d="M1.060 0.528 Q1.318 0.748 1.804 0.671" stroke="hsl(180.0,100%,35%)" stroke-width="0.00043"></path>
<path d="M1.060 0.528 Q0.905 0.510 0.836 0.581" stroke="hsl(180.0,100%,35%)" stroke-width="0.00170"></path>
<path d="M1.060 0.528 Q1.165 0.451 1.038 0.383" stroke="hsl(180.0,100%,35%)" stroke-width="0.00085"></path>
<path d="M1.060 0.528 Q0.801 0.245 0.191 0.309" stroke="hsl(180.0,100%,35%)" stroke-width="0.00085"></path>
<path d="M1.060 0.528 Q0.498 0.573 0.462 0.857" stroke="hsl(180.0,100%,35%)" stroke-width="0.00043"></path>
<path d="M1.060 0.528 Q0.867 0.802 1.358 0.956" stroke="hsl(180.0,100%,35%)" stroke-width="0.00043"></path>
<path d="M0.868 0.224 Q0.527 0.688 1.358 0.956" stroke="hsl(180.0,100%,35%)" stroke-width="0.00128"></path>
<path d="M0.868 0.224 Q0.628 0.721 1.545 0.947" stroke="hsl(180.0,100%,35%)" stroke-width="0.00511"></path>
<path d="M0.868 0.224 Q0.585 0.598 1.253 0.818" stroke="hsl(180.0,100%,35%)" stroke-width="0.00128"></path>
<path d="M0.868 0.224 Q0.917 0.149 0.782 0.108" stroke="hsl(180.0,100%,35%)" stroke-width="0.00426"></path>
<path d="M0.868 0.224 Q0.438 0.441 0.769 0.699" stroke="hsl(180.0,100%,35%)" stroke-width="0.00383"></path>
<path d="M0.868 0.224 Q0.720 0.414 1.060 0.528" stroke="hsl(180.0,100%,35%)" stroke-width="0.00085"></path>
<path d="M0.868 0.224 Q0.978 0.635 1.804 0.671" stroke="hsl(180.0,100%,35%)" stroke-width="0.00043"></path>
<path d="M0.868 0.224 Q0.483 0.349 0.644 0.564" stroke="hsl(180.0,100%,35%)" stroke-width="0.00043"></path>
<path d="M1.545 0.947 Q1.123 0.606 0.365 0.737" stroke="hsl(180.0,100%,35%)" stroke-width="0.00596"></path>
<path d="M1.545 0.947 Q1.483 0.622 0.836 0.581" stroke="hsl(180.0,100%,35%)" stroke-width="0.00043"></path>
<path d="M1.545 0.947 Q1.637 0.641 1.060 0.528" stroke="hsl(180.0,100%,35%)" stroke-width="0.00128"></path>
<path d="M1.545 0.947 Q1.444 0.914 1.358 0.956" stroke="hsl(180.0,100%,35%)" stroke-width="0.00937"></path>
<path d="M1.545 0.947 Q1.930 0.658 1.450 0.406" stroke="hsl(180.0,100%,35%)" stroke-width="0.00170"></path>
<path d="M1.545 0.947 Q1.502 0.824 1.253 0.818" stroke="hsl(180.0,100%,35%)" stroke-width="0.00469"></path>
<path d="M1.545 0.947 Q1.221 0.439 0.159 0.485" stroke="hsl(180.0,100%,35%)" stroke-width="0.00213"></path>
<path d="M1.545 0.947 Q1.834 0.375 0.782 0.108" stroke="hsl(180.0,100%,35%)" stroke-width="0.00256"></path>
<path d="M1.545 0.947 Q1.828 0.933 1.864 0.792" stroke="hsl(180.0,100%,35%)" stroke-width="0.00043"></path>
<path d="M1.545 0.947 Q1.794 0.807 1.576 0.654" stroke="hsl(180.0,100%,35%)" stroke-width="0.00043"></path>
<path d="M1.545 0.947 Q1.378 0.357 0.191 0.309" stroke="hsl(180.0,100%,35%)" stroke-width="0.00043"></path>
<path d="M1.545 0.947 Q1.535 0.706 1.063 0.658" stroke="hsl(180.0,100%,35%)" stroke-width="0.00043"></path>
<path d="M0.462 0.857 Q0.742 0.839 0.769 0.699" stroke="hsl(180.0,100%,35%)" stroke-width="0.00724"></path>
<path d="M0.462 0.857 Q0.509 0.777 0.365 0.737" stroke="hsl(180.0,100%,35%)" stroke-width="0.00724"></path>
<path d="M0.462 0.857 Q1.316 0.829 1.450 0.406" stroke="hsl(180.0,100%,35%)" stroke-width="0.00043"></path>
<path d="M0.462 0.857 Q0.599 0.817 0.551 0.741" stroke="hsl(180.0,100%,35%)" stroke-width="0.00043"></path>
<path d="M0.462 0.857 Q1.024 0.812 1.060 0.528" stroke="hsl(180.0,100%,35%)" stroke-width="0.00213"></path>
<path d="M0.462 0.857 Q1.221 0.547 0.782 0.108" stroke="hsl(180.0,100%,35%)" stroke-width="0.00043"></path>
<path d="M0.462 0.857 Q0.922 0.878 1.063 0.658" stroke="hsl(180.0,100%,35%)" stroke-width="0.00085"></path>
<path d="M1.576 0.654 Q1.419 0.488 1.060 0.528" stroke="hsl(0.0,100%,35%)" stroke-width="0.00085"></path>
<path d="M1.576 0.654 Q1.616 0.223 0.782 0.108" stroke="hsl(0.0,100%,35%)" stroke-width="0.00085"></path>
<path d="M1.576 0.654 Q1.610 0.781 1.864 0.792" stroke="hsl(0.0,100%,35%)" stroke-width="0.01065"></path>
<path d="M1.576 0.654 Q1.137 0.515 0.769 0.699" stroke="hsl(0.0,100%,35%)" stroke-width="0.00043"></path>
<path d="M1.576 0.654 Q0.857 0.533 0.462 0.857" stroke="hsl(0.0,100%,35%)" stroke-width="0.00043"></path>
<path d="M1.804 0.671 Q1.895 0.676 1.924 0.632" stroke="hsl(0.0,100%,35%)" stroke-width="0.00298"></path>
<path d="M1.804 0.671 Q1.737 0.744 1.864 0.792" stroke="hsl(0.0,100%,35%)" stroke-width="0.00554"></path>
<path d="M1.804 0.671 Q1.547 0.451 1.060 0.528" stroke="hsl(0.0,100%,35%)" stroke-width="0.00043"></path>
<path d="M1.804 0.671 Q1.310 0.386 0.644 0.564" stroke="hsl(0.0,100%,35%)" stroke-width="0.00213"></path>
<path d="M1.804 0.671 Q1.703 0.617 1.576 0.654" stroke="hsl(0.0,100%,35%)" stroke-width="0.00170"></path>
<path d="M1.804 0.671 Q1.454 0.757 1.545 0.947" stroke="hsl(0.0,100%,35%)" stroke-width="0.00043"></path>
<path d="M1.804 0.671 Q1.743 0.185 0.782 0.108" stroke="hsl(0.0,100%,35%)" stroke-width="0.00043"></path>
<path d="M1.924 0.632 Q1.766 0.700 1.864 0.792" stroke="hsl(0.0,100%,35%)" stroke-width="0.00596"></path>
<path d="M1.924 0.632 Q1.316 0.124 0.191 0.309" stroke="hsl(0.0,100%,35%)" stroke-width="0.00043"></path>
<path d="M1.924 0.632 Q1.833 0.628 1.804 0.671" stroke="hsl(0.0,100%,35%)" stroke-width="0.00170"></path>
<path d="M1.924 0.632 Q1.633 0.496 1.303 0.608" stroke="hsl(0.0,100%,35%)" stroke-width="0.00043"></path>
<path d="M0.705 0.798 Q0.816 0.761 0.769 0.699" stroke="hsl(180.0,100%,35%)" stroke-width="0.00085"></path>
<path d="M0.705 0.798 Q0.963 0.917 1.253 0.818" stroke="hsl(180.0,100%,35%)" stroke-width="0.00043"></path>
<path d="M0.705 0.798 Q1.295 0.469 0.782 0.108" stroke="hsl(180.0,100%,35%)" stroke-width="0.00043"></path>
<path d="M0.191 0.309 Q0.034 0.391 0.159 0.485" stroke="hsl(180.0,100%,35%)" stroke-width="0.01661"></path>
<path d="M0.191 0.309 Q0.647 0.327 0.782 0.108" stroke="hsl(180.0,100%,35%)" stroke-width="0.00085"></path>
<path d="M0.191 0.309 Q0.348 0.658 1.063 0.658" stroke="hsl(180.0,100%,35%)" stroke-width="0.00724"></path>
<path d="M0.191 0.309 Q-0.064 0.558 0.365 0.737" stroke="hsl(180.0,100%,35%)" stroke-width="0.00170"></path>
<path d="M0.191 0.309 Q0.799 0.817 1.924 0.632" stroke="hsl(180.0,100%,35%)" stroke-width="0.00043"></path>
<path d="M0.836 0.581 Q0.752 0.393 0.365 0.392" stroke="hsl(180.0,100%,35%)" stroke-width="0.00043"></path>
<path d="M0.836 0.581 Q0.855 0.783 1.253 0.818" stroke="hsl(180.0,100%,35%)" stroke-width="0.00043"></path>
<path d="M0.836 0.581 Q0.888 0.665 1.063 0.658" stroke="hsl(180.0,100%,35%)" stroke-width="0.00043"></path>
<path d="M0.836 0.581 Q0.709 0.627 0.769 0.699" stroke="hsl(180.0,100%,35%)" stroke-width="0.00043"></path>
<path d="M0.836 0.581 Q0.991 0.600 1.060 0.528" stroke="hsl(180.0,100%,35%)" stroke-width="0.00469"></path>
<path d="M0.836 0.581 Q1.248 0.820 1.804 0.671" stroke="hsl(180.0,100%,35%)" stroke-width="0.00043"></path>
<path d="M1.358 0.956 Q1.459 0.989 1.545 0.947" stroke="hsl(180.0,100%,35%)" stroke-width="0.00128"></path>
<path d="M1.358 0.956 Q1.844 0.700 1.450 0.406" stroke="hsl(180.0,100%,35%)" stroke-width="0.00085"></path>
<path d="M1.358 0.956 Q1.449 0.748 1.063 0.658" stroke="hsl(180.0,100%,35%)" stroke-width="0.00085"></path>
<path d="M1.358 0.956 Q1.551 0.683 1.060 0.528" stroke="hsl(180.0,100%,35%)" stroke-width="0.00043"></path>
<path d="M1.358 0.956 Q1.699 0.492 0.868 0.224" stroke="hsl(180.0,100%,35%)" stroke-width="0.00085"></path>
<path d="M1.358 0.956 Q1.748 0.417 0.782 0.108" stroke="hsl(180.0,100%,35%)" stroke-width="0.00043"></path>
<path d="M1.050 0.884 Q1.205 0.892 1.253 0.818" stroke="hsl(180.0,100%,35%)" stroke-width="0.00085"></path>
<path d="M1.050 0.884 Q1.537 0.443 0.782 0.108" stroke="hsl(180.0,100%,35%)" stroke-width="0.00128"></path>
<path d="M1.050 0.884 Q1.101 0.501 0.365 0.392" stroke="hsl(180.0,100%,35%)" stroke-width="0.00043"></path>
<path d="M1.050 0.884 Q1.247 1.015 1.545 0.947" stroke="hsl(180.0,100%,35%)" stroke-width="0.00085"></path>
<path d="M1.581 0.708 Q1.522 0.602 1.303 0.608" stroke="hsl(0.0,100%,35%)" stroke-width="0.00043"></path>
<path d="M1.581 0.708 Q1.655 0.807 1.864 0.792" stroke="hsl(0.0,100%,35%)" stroke-width="0.00085"></path>
<path d="M1.581 0.708 Q1.661 0.249 0.782 0.108" stroke="hsl(0.0,100%,35%)" stroke-width="0.00043"></path>
<path d="M0.240 0.835 Q0.760 1.029 1.253 0.818" stroke="hsl(180.0,100%,35%)" stroke-width="0.00256"></path>
<path d="M0.240 0.835 Q0.157 0.837 0.144 0.879" stroke="hsl(180.0,100%,35%)" stroke-width="0.00298"></path>
<path d="M0.240 0.835 Q1.008 0.945 1.391 0.594" stroke="hsl(180.0,100%,35%)" stroke-width="0.00043"></path>
<path d="M0.240 0.835 Q0.659 0.781 0.644 0.564" stroke="hsl(180.0,100%,35%)" stroke-width="0.00128"></path>
<path d="M0.240 0.835 Q0.480 0.644 0.159 0.485" stroke="hsl(180.0,100%,35%)" stroke-width="0.00043"></path>
<path d="M0.547 0.971 Q0.921 0.787 0.644 0.564" stroke="hsl(0.0,100%,35%)" stroke-width="0.00085"></path>
<path d="M0.547 0.971 Q0.489 0.901 0.339 0.914" stroke="hsl(0.0,100%,35%)" stroke-width="0.00085"></path>
<path d="M0.547 0.971 Q1.348 1.145 1.864 0.792" stroke="hsl(0.0,100%,35%)" stroke-width="0.00043"></path>
<path d="M0.547 0.971 Q1.354 0.587 0.782 0.108" stroke="hsl(0.0,100%,35%)" stroke-width="0.00043"></path>
<path d="M1.026 0.970 Q1.294 0.821 1.063 0.658" stroke="hsl(180.0,100%,35%)" stroke-width="0.00128"></path>
<path d="M1.026 0.970 Q0.980 0.554 0.159 0.485" stroke="hsl(180.0,100%,35%)" stroke-width="0.00128"></path>
<path d="M1.026 0.970 Q1.303 1.062 1.545 0.947" stroke="hsl(180.0,100%,35%)" stroke-width="0.00170"></path>
<path d="M1.026 0.970 Q1.261 0.939 1.253 0.818" stroke="hsl(180.0,100%,35%)" stroke-width="0.00085"></path>
<path d="M1.026 0.970 Q0.882 0.721 0.365 0.737" stroke="hsl(180.0,100%,35%)" stroke-width="0.00043"></path>
<path d="M1.026 0.970 Q1.137 0.472 0.191 0.309" stroke="hsl(180.0,100%,35%)" stroke-width="0.00043"></path>
<path d="M0.096 0.700 Q0.580 0.990 1.253 0.818" stroke="hsl(180.0,100%,35%)" stroke-width="0.00596"></path>
<path d="M0.096 0.700 Q-0.023 0.799 0.144 0.879" stroke="hsl(180.0,100%,35%)" stroke-width="0.00639"></path>
<path d="M0.096 0.700 Q1.064 1.031 1.924 0.632" stroke="hsl(180.0,100%,35%)" stroke-width="0.00085"></path>
<path d="M0.096 0.700 Q0.479 0.742 0.644 0.564" stroke="hsl(180.0,100%,35%)" stroke-width="0.00043"></path>
<path d="M0.096 0.700 Q0.300 0.605 0.159 0.485" stroke="hsl(180.0,100%,35%)" stroke-width="0.00170"></path>
<path d="M1.701 0.114 Q0.947 0.258 1.063 0.658" stroke="hsl(180.0,100%,35%)" stroke-width="0.00043"></path>
<path d="M1.701 0.114 Q1.665 0.063 1.557 0.070" stroke="hsl(180.0,100%,35%)" stroke-width="0.00043"></path>
<path d="M1.701 0.114 Q1.776 0.150 1.863 0.121" stroke="hsl(180.0,100%,35%)" stroke-width="0.00043"></path>
<path d="M1.047 0.055 Q0.573 0.360 1.063 0.658" stroke="hsl(180.0,100%,35%)" stroke-width="0.00043"></path>
<path d="M1.047 0.055 Q0.520 0.276 0.836 0.581" stroke="hsl(180.0,100%,35%)" stroke-width="0.00043"></path>
<path d="M1.047 0.055 Q0.872 0.029 0.782 0.108" stroke="hsl(180.0,100%,35%)" stroke-width="0.00043"></path>
<path d="M1.515 0.728 Q1.638 0.830 1.864 0.792" stroke="hsl(0.0,100%,35%)" stroke-width="0.00043"></path>
<path d="M1.515 0.728 Q1.447 0.537 1.060 0.528" stroke="hsl(0.0,100%,35%)" stroke-width="0.00043"></path>
<path d="M1.515 0.728 Q1.210 0.472 0.644 0.564" stroke="hsl(0.0,100%,35%)" stroke-width="0.00043"></path>
<path d="M0.500 0.135 Q0.408 0.189 0.492 0.245" stroke="hsl(180.0,100%,35%)" stroke-width="0.00043"></path>
<path d="M0.500 0.135 Q0.330 0.627 1.253 0.818" stroke="hsl(180.0,100%,35%)" stroke-width="0.00043"></path>
<path d="M0.500 0.135 Q0.369 0.077 0.227 0.128" stroke="hsl(180.0,100%,35%)" stroke-width="0.00043"></path>
<path d="M0.609 0.241 Q0.547 0.220 0.492 0.245" stroke="hsl(180.0,100%,35%)" stroke-width="0.00085"></path>
<path d="M0.609 0.241 Q0.469 0.658 1.253 0.818" stroke="hsl(180.0,100%,35%)" stroke-width="0.00043"></path>
<path d="M0.609 0.241 Q0.450 0.456 0.836 0.581" stroke="hsl(180.0,100%,35%)" stroke-width="0.00043"></path>
<path d="M0.266 0.589 Q0.969 0.937 1.804 0.671" stroke="hsl(0.0,100%,35%)" stroke-width="0.00043"></path>
<path d="M0.266 0.589 Q0.474 0.652 0.644 0.564" stroke="hsl(0.0,100%,35%)" stroke-width="0.00043"></path>
<path d="M0.266 0.589 Q1.004 0.734 1.450 0.406" stroke="hsl(0.0,100%,35%)" stroke-width="0.00043"></path>
<path d="M0.266 0.589 Q0.619 1.023 1.545 0.947" stroke="hsl(0.0,100%,35%)" stroke-width="0.00043"></path>
</g>
<text x="1.391" y="0.580" font-size="0.027372" fill="hsl(0.0,100%,20%)">aixba</text>
<text x="1.303" y="0.592" font-size="0.031472" fill="hsl(0.0,100%,20%)">asraine</text>
<text x="1.864" y="0.764" font-size="0.055320" fill="hsl(0.0,100%,20%)">jacktfranklin</text>
<text x="0.644" y="0.544" font-size="0.041861" fill="hsl(0.0,100%,20%)">paulirish</text>
<text x="0.429" y="0.502" font-size="0.039360" fill="hsl(0.0,100%,20%)">cjamcl</text>
<text x="1.253" y="0.792" font-size="0.051146" fill="hsl(180.0,100%,20%)">dsv</text>
<text x="1.378" y="0.279" font-size="0.010079" fill="hsl(180.0,100%,20%)">aksen5240</text>
<text x="1.450" y="0.397" font-size="0.018856" fill="hsl(180.0,100%,20%)">changhaohan</text>
<text x="0.782" y="0.090" font-size="0.037374" fill="hsl(180.0,100%,20%)">szuend</text>
<text x="0.769" y="0.667" font-size="0.063346" fill="hsl(180.0,100%,20%)">alexrudenko</text>
<text x="0.159" y="0.461" font-size="0.048469" fill="hsl(180.0,100%,20%)">kimanh</text>
<text x="0.365" y="0.383" font-size="0.018170" fill="hsl(180.0,100%,20%)">yangguo</text>
<text x="0.365" y="0.711" font-size="0.051021" fill="hsl(180.0,100%,20%)">ergunsh</text>
<text x="1.063" y="0.628" font-size="0.058770" fill="hsl(180.0,100%,20%)">bmeurer</text>
<text x="1.060" y="0.496" font-size="0.063646" fill="hsl(180.0,100%,20%)">nvitkov</text>
<text x="0.551" y="0.736" font-size="0.010079" fill="hsl(180.0,100%,20%)">samiyac</text>
<text x="0.868" y="0.211" font-size="0.025697" fill="hsl(180.0,100%,20%)">liviurau</text>
<text x="1.545" y="0.924" font-size="0.045912" fill="hsl(180.0,100%,20%)">pfaffe</text>
<text x="0.462" y="0.842" font-size="0.030026" fill="hsl(180.0,100%,20%)">wolfi</text>
<text x="1.576" y="0.639" font-size="0.030026" fill="hsl(0.0,100%,20%)">alinavarkki</text>
<text x="1.804" y="0.657" font-size="0.029385" fill="hsl(0.0,100%,20%)">andoli</text>
<text x="1.924" y="0.620" font-size="0.024430" fill="hsl(0.0,100%,20%)">nancyly</text>
<text x="0.705" y="0.794" font-size="0.007127" fill="hsl(180.0,100%,20%)">apavlov</text>
<text x="0.191" y="0.288" font-size="0.042464" fill="hsl(180.0,100%,20%)">kprokopenko</text>
<text x="0.836" y="0.572" font-size="0.018516" fill="hsl(180.0,100%,20%)">mathias</text>
<text x="1.358" y="0.945" font-size="0.023094" fill="hsl(180.0,100%,20%)">leese</text>
<text x="1.050" y="0.879" font-size="0.010079" fill="hsl(180.0,100%,20%)">cwu631</text>
<text x="0.227" y="0.125" font-size="0.005040" fill="hsl(180.0,100%,20%)">kenoss</text>
<text x="1.581" y="0.705" font-size="0.007127" fill="hsl(0.0,100%,20%)">hocheung</text>
<text x="0.240" y="0.827" font-size="0.015119" fill="hsl(180.0,100%,20%)">jalonthomas</text>
<text x="0.144" y="0.870" font-size="0.016714" fill="hsl(180.0,100%,20%)">shuuran</text>
<text x="0.547" y="0.966" font-size="0.008729" fill="hsl(0.0,100%,20%)">jaysonchen</text>
<text x="0.339" y="0.911" font-size="0.005040" fill="hsl(0.0,100%,20%)">rob.paveza</text>
<text x="1.026" y="0.963" font-size="0.013333" fill="hsl(180.0,100%,20%)">marcelpuetz</text>
<text x="0.096" y="0.689" font-size="0.021381" fill="hsl(180.0,100%,20%)">masnoble</text>
<text x="1.701" y="0.111" font-size="0.006172" fill="hsl(180.0,100%,20%)">monicach</text>
<text x="1.557" y="0.068" font-size="0.003563" fill="hsl(180.0,100%,20%)">sisidovski</text>
<text x="1.863" y="0.119" font-size="0.003563" fill="hsl(180.0,100%,20%)">yyanagisawa</text>
<text x="1.038" y="0.381" font-size="0.005040" fill="hsl(180.0,100%,20%)">victorporof</text>
<text x="1.047" y="0.052" font-size="0.006172" fill="hsl(180.0,100%,20%)">petermarshall</text>
<text x="1.515" y="0.725" font-size="0.006172" fill="hsl(0.0,100%,20%)">petrcermak</text>
<text x="0.500" y="0.132" font-size="0.006172" fill="hsl(180.0,100%,20%)">robertlin</text>
<text x="0.492" y="0.242" font-size="0.006172" fill="hsl(180.0,100%,20%)">domenic</text>
<text x="0.609" y="0.237" font-size="0.007127" fill="hsl(180.0,100%,20%)">stevenwei</text>
<text x="0.266" y="0.585" font-size="0.007127" fill="hsl(0.0,100%,20%)">yanlingwang</text>
</svg>
