<svg width="4000" height="2000" viewBox="-0.025 -0.025 2.05 1.05" xmlns="http://www.w3.org/2000/svg">
  <style>
    path {
      fill: none;
      stroke-linecap: round;
      stroke-opacity: 0.4;
    }

    text {
      text-anchor: middle;
      alignment-baseline: hanging;
    }
  </style>
  <g opacity="0.4">
<path d="M0.598 0.968 Q0.760 0.767 0.403 0.644" stroke="hsl(0.0,100%,35%)" stroke-width="0.03144"></path>
<path d="M0.598 0.968 Q1.372 1.162 1.921 0.827" stroke="hsl(0.0,100%,35%)" stroke-width="0.00524"></path>
<path d="M0.598 0.968 Q0.743 0.915 0.671 0.832" stroke="hsl(0.0,100%,35%)" stroke-width="0.01572"></path>
<path d="M0.403 0.644 Q0.333 0.728 0.482 0.781" stroke="hsl(0.0,100%,35%)" stroke-width="0.03144"></path>
<path d="M0.403 0.644 Q0.433 0.904 0.947 0.947" stroke="hsl(0.0,100%,35%)" stroke-width="0.00524"></path>
<path d="M0.403 0.644 Q1.350 0.808 1.878 0.382" stroke="hsl(0.0,100%,35%)" stroke-width="0.00524"></path>
<path d="M1.376 0.268 Q1.373 0.350 1.532 0.370" stroke="hsl(60.0,100%,35%)" stroke-width="0.00524"></path>
<path d="M1.376 0.268 Q1.583 0.228 1.551 0.119" stroke="hsl(60.0,100%,35%)" stroke-width="0.00524"></path>
<path d="M1.376 0.268 Q1.476 0.321 1.602 0.285" stroke="hsl(60.0,100%,35%)" stroke-width="0.00524"></path>
<path d="M1.376 0.268 Q1.321 0.205 1.186 0.218" stroke="hsl(60.0,100%,35%)" stroke-width="0.00524"></path>
<path d="M1.376 0.268 Q1.345 0.332 1.463 0.361" stroke="hsl(60.0,100%,35%)" stroke-width="0.00524"></path>
<path d="M1.376 0.268 Q1.259 0.593 1.868 0.721" stroke="hsl(60.0,100%,35%)" stroke-width="0.00524"></path>
<path d="M1.376 0.268 Q1.494 0.267 1.518 0.209" stroke="hsl(60.0,100%,35%)" stroke-width="0.00524"></path>
<path d="M1.376 0.268 Q1.502 0.216 1.429 0.143" stroke="hsl(60.0,100%,35%)" stroke-width="0.00524"></path>
<path d="M1.376 0.268 Q1.253 0.332 1.351 0.407" stroke="hsl(60.0,100%,35%)" stroke-width="0.00524"></path>
<path d="M1.640 0.621 Q1.596 0.667 1.677 0.698" stroke="hsl(60.0,100%,35%)" stroke-width="0.00524"></path>
<path d="M1.640 0.621 Q1.733 0.560 1.635 0.502" stroke="hsl(60.0,100%,35%)" stroke-width="0.00524"></path>
<path d="M1.640 0.621 Q1.633 0.654 1.696 0.664" stroke="hsl(60.0,100%,35%)" stroke-width="0.00524"></path>
<path d="M1.252 0.837 Q1.613 0.781 1.582 0.593" stroke="hsl(60.0,100%,35%)" stroke-width="0.00524"></path>
<path d="M1.252 0.837 Q1.067 0.856 1.064 0.950" stroke="hsl(60.0,100%,35%)" stroke-width="0.00524"></path>
<path d="M1.252 0.837 Q1.198 0.932 1.372 0.979" stroke="hsl(60.0,100%,35%)" stroke-width="0.00524"></path>
<path d="M1.582 0.593 Q1.386 0.673 1.500 0.785" stroke="hsl(60.0,100%,35%)" stroke-width="0.02096"></path>
<path d="M1.582 0.593 Q1.464 0.246 0.761 0.227" stroke="hsl(60.0,100%,35%)" stroke-width="0.00524"></path>
<path d="M1.582 0.593 Q1.622 0.714 1.868 0.721" stroke="hsl(60.0,100%,35%)" stroke-width="0.01572"></path>
<path d="M1.372 0.979 Q1.426 0.884 1.252 0.837" stroke="hsl(60.0,100%,35%)" stroke-width="0.02096"></path>
<path d="M1.372 0.979 Q1.315 0.918 1.183 0.932" stroke="hsl(60.0,100%,35%)" stroke-width="0.01048"></path>
<path d="M1.372 0.979 Q1.527 0.984 1.571 0.910" stroke="hsl(60.0,100%,35%)" stroke-width="0.00524"></path>
<path d="M0.366 0.202 Q0.263 0.135 0.110 0.171" stroke="hsl(60.0,100%,35%)" stroke-width="0.01048"></path>
<path d="M0.366 0.202 Q0.702 0.762 1.868 0.721" stroke="hsl(60.0,100%,35%)" stroke-width="0.00524"></path>
<path d="M0.366 0.202 Q0.267 0.262 0.362 0.323" stroke="hsl(60.0,100%,35%)" stroke-width="0.00524"></path>
<path d="M0.362 0.323 Q0.710 0.913 1.938 0.872" stroke="hsl(60.0,100%,35%)" stroke-width="0.00524"></path>
<path d="M0.362 0.323 Q1.073 0.656 1.878 0.382" stroke="hsl(60.0,100%,35%)" stroke-width="0.00524"></path>
<path d="M0.362 0.323 Q0.460 0.263 0.366 0.202" stroke="hsl(60.0,100%,35%)" stroke-width="0.00524"></path>
<path d="M1.878 0.382 Q1.986 0.318 1.886 0.252" stroke="hsl(60.0,100%,35%)" stroke-width="0.01048"></path>
<path d="M1.878 0.382 Q1.744 0.497 1.939 0.588" stroke="hsl(60.0,100%,35%)" stroke-width="0.00524"></path>
<path d="M1.878 0.382 Q1.663 0.161 1.186 0.218" stroke="hsl(60.0,100%,35%)" stroke-width="0.00524"></path>
<path d="M1.878 0.382 Q1.722 0.450 1.822 0.541" stroke="hsl(60.0,100%,35%)" stroke-width="0.01572"></path>
<path d="M1.822 0.541 Q1.844 0.588 1.939 0.588" stroke="hsl(60.0,100%,35%)" stroke-width="0.02620"></path>
<path d="M1.822 0.541 Q1.060 0.569 0.947 0.947" stroke="hsl(60.0,100%,35%)" stroke-width="0.00524"></path>
<path d="M1.822 0.541 Q1.701 0.641 1.868 0.721" stroke="hsl(60.0,100%,35%)" stroke-width="0.00524"></path>
<path d="M1.500 0.785 Q1.539 0.703 1.388 0.666" stroke="hsl(60.0,100%,35%)" stroke-width="0.02096"></path>
<path d="M1.500 0.785 Q1.695 0.705 1.582 0.593" stroke="hsl(60.0,100%,35%)" stroke-width="0.01572"></path>
<path d="M1.500 0.785 Q1.441 0.852 1.557 0.895" stroke="hsl(60.0,100%,35%)" stroke-width="0.00524"></path>
<path d="M1.500 0.785 Q1.658 0.777 1.677 0.698" stroke="hsl(60.0,100%,35%)" stroke-width="0.00524"></path>
<path d="M1.500 0.785 Q1.447 0.710 1.289 0.719" stroke="hsl(60.0,100%,35%)" stroke-width="0.00524"></path>
<path d="M1.500 0.785 Q1.489 0.704 1.328 0.692" stroke="hsl(60.0,100%,35%)" stroke-width="0.01048"></path>
<path d="M0.761 0.227 Q0.858 0.126 0.682 0.057" stroke="hsl(60.0,100%,35%)" stroke-width="0.00524"></path>
<path d="M0.761 0.227 Q0.696 0.222 0.670 0.252" stroke="hsl(60.0,100%,35%)" stroke-width="0.01048"></path>
<path d="M0.761 0.227 Q0.465 0.726 1.372 0.979" stroke="hsl(60.0,100%,35%)" stroke-width="0.01048"></path>
<path d="M1.732 0.944 Q1.814 0.956 1.854 0.918" stroke="hsl(60.0,100%,35%)" stroke-width="0.01572"></path>
<path d="M1.732 0.944 Q2.099 0.761 1.822 0.541" stroke="hsl(60.0,100%,35%)" stroke-width="0.00524"></path>
<path d="M1.732 0.944 Q1.678 0.905 1.589 0.922" stroke="hsl(60.0,100%,35%)" stroke-width="0.00524"></path>
<path d="M0.947 0.947 Q1.177 0.709 0.764 0.545" stroke="hsl(0.0,100%,35%)" stroke-width="0.00524"></path>
<path d="M0.947 0.947 Q0.918 0.687 0.403 0.644" stroke="hsl(0.0,100%,35%)" stroke-width="0.00524"></path>
<path d="M0.947 0.947 Q1.972 0.787 1.886 0.252" stroke="hsl(0.0,100%,35%)" stroke-width="0.00524"></path>
<path d="M1.327 0.134 Q1.516 0.155 1.597 0.067" stroke="hsl(0.0,100%,35%)" stroke-width="0.01048"></path>
<path d="M1.327 0.134 Q1.283 0.093 1.194 0.106" stroke="hsl(0.0,100%,35%)" stroke-width="0.00524"></path>
<path d="M1.327 0.134 Q1.070 0.600 1.921 0.827" stroke="hsl(0.0,100%,35%)" stroke-width="0.00524"></path>
<path d="M0.953 0.819 Q0.891 0.874 0.986 0.917" stroke="hsl(0.0,100%,35%)" stroke-width="0.00524"></path>
<path d="M0.953 0.819 Q0.847 0.882 0.947 0.947" stroke="hsl(0.0,100%,35%)" stroke-width="0.01048"></path>
<path d="M0.953 0.819 Q0.980 0.867 1.080 0.865" stroke="hsl(0.0,100%,35%)" stroke-width="0.00524"></path>
<path d="M0.953 0.819 Q0.799 0.898 0.919 0.991" stroke="hsl(0.0,100%,35%)" stroke-width="0.00524"></path>
<path d="M0.953 0.819 Q1.455 0.857 1.640 0.621" stroke="hsl(0.0,100%,35%)" stroke-width="0.00524"></path>
<path d="M0.953 0.819 Q1.324 1.048 1.854 0.918" stroke="hsl(0.0,100%,35%)" stroke-width="0.00524"></path>
<path d="M0.953 0.819 Q1.253 0.911 1.500 0.785" stroke="hsl(0.0,100%,35%)" stroke-width="0.00524"></path>
<path d="M0.953 0.819 Q0.942 0.704 0.716 0.685" stroke="hsl(0.0,100%,35%)" stroke-width="0.00524"></path>
<path d="M0.953 0.819 Q0.933 0.734 0.764 0.726" stroke="hsl(0.0,100%,35%)" stroke-width="0.00524"></path>
<path d="M1.139 0.654 Q1.000 0.592 0.848 0.646" stroke="hsl(0.0,100%,35%)" stroke-width="0.00524"></path>
<path d="M1.139 0.654 Q1.213 0.505 0.936 0.436" stroke="hsl(0.0,100%,35%)" stroke-width="0.01572"></path>
<path d="M1.139 0.654 Q1.237 0.617 1.186 0.561" stroke="hsl(0.0,100%,35%)" stroke-width="0.01048"></path>
<path d="M1.139 0.654 Q1.019 0.652 0.988 0.710" stroke="hsl(0.0,100%,35%)" stroke-width="0.01048"></path>
<path d="M0.936 0.436 Q0.961 0.548 1.186 0.561" stroke="hsl(0.0,100%,35%)" stroke-width="0.00524"></path>
<path d="M0.936 0.436 Q0.743 0.583 0.988 0.710" stroke="hsl(0.0,100%,35%)" stroke-width="0.00524"></path>
<path d="M0.936 0.436 Q1.109 0.404 1.085 0.312" stroke="hsl(0.0,100%,35%)" stroke-width="0.00524"></path>
<path d="M1.058 0.026 Q1.140 0.072 1.248 0.042" stroke="hsl(120.0,100%,35%)" stroke-width="0.01572"></path>
<path d="M1.058 0.026 Q0.898 0.079 0.967 0.168" stroke="hsl(120.0,100%,35%)" stroke-width="0.00524"></path>
<path d="M1.058 0.026 Q0.934 -0.015 0.827 0.036" stroke="hsl(120.0,100%,35%)" stroke-width="0.00524"></path>
<path d="M0.982 0.531 Q1.059 0.587 1.186 0.561" stroke="hsl(0.0,100%,35%)" stroke-width="0.00524"></path>
<path d="M0.982 0.531 Q1.035 0.474 0.936 0.436" stroke="hsl(0.0,100%,35%)" stroke-width="0.00524"></path>
<path d="M0.982 0.531 Q0.842 0.621 0.988 0.710" stroke="hsl(0.0,100%,35%)" stroke-width="0.00524"></path>
<path d="M0.982 0.531 Q1.208 0.442 1.085 0.312" stroke="hsl(0.0,100%,35%)" stroke-width="0.00524"></path>
<path d="M0.201 0.861 Q0.317 0.732 0.090 0.647" stroke="hsl(180.0,100%,35%)" stroke-width="0.00524"></path>
<path d="M0.201 0.861 Q0.345 0.750 0.159 0.655" stroke="hsl(180.0,100%,35%)" stroke-width="0.00524"></path>
<path d="M0.201 0.861 Q0.263 0.784 0.125 0.737" stroke="hsl(180.0,100%,35%)" stroke-width="0.02620"></path>
<path d="M1.173 0.379 Q1.034 0.473 1.186 0.561" stroke="hsl(0.0,100%,35%)" stroke-width="0.00524"></path>
<path d="M1.173 0.379 Q1.010 0.360 0.936 0.436" stroke="hsl(0.0,100%,35%)" stroke-width="0.00524"></path>
<path d="M1.173 0.379 Q1.183 0.328 1.085 0.312" stroke="hsl(0.0,100%,35%)" stroke-width="0.00524"></path>
<path d="M0.063 0.612 Q-0.006 0.686 0.125 0.737" stroke="hsl(180.0,100%,35%)" stroke-width="0.01048"></path>
<path d="M0.063 0.612 Q-0.068 0.764 0.201 0.861" stroke="hsl(180.0,100%,35%)" stroke-width="0.00524"></path>
<path d="M0.063 0.612 Q1.353 0.765 1.936 0.170" stroke="hsl(180.0,100%,35%)" stroke-width="0.00524"></path>
<path d="M0.063 0.612 Q0.304 0.623 0.379 0.508" stroke="hsl(180.0,100%,35%)" stroke-width="0.00524"></path>
<path d="M0.631 0.595 Q0.737 0.597 0.764 0.545" stroke="hsl(0.0,100%,35%)" stroke-width="0.01048"></path>
<path d="M0.631 0.595 Q0.624 0.503 0.443 0.486" stroke="hsl(0.0,100%,35%)" stroke-width="0.00524"></path>
<path d="M0.631 0.595 Q0.478 0.574 0.403 0.644" stroke="hsl(0.0,100%,35%)" stroke-width="0.00524"></path>
<path d="M0.631 0.595 Q0.678 0.533 0.567 0.496" stroke="hsl(0.0,100%,35%)" stroke-width="0.00524"></path>
<path d="M0.859 0.613 Q0.827 0.628 0.848 0.646" stroke="hsl(60.0,100%,35%)" stroke-width="0.00524"></path>
<path d="M0.859 0.613 Q1.554 0.701 1.878 0.382" stroke="hsl(60.0,100%,35%)" stroke-width="0.00524"></path>
<path d="M0.859 0.613 Q1.040 0.540 0.936 0.436" stroke="hsl(60.0,100%,35%)" stroke-width="0.00524"></path>
<path d="M0.718 0.355 Q0.762 0.439 0.936 0.436" stroke="hsl(0.0,100%,35%)" stroke-width="0.01572"></path>
<path d="M0.718 0.355 Q0.935 0.407 1.085 0.312" stroke="hsl(0.0,100%,35%)" stroke-width="0.00524"></path>
<path d="M0.718 0.355 Q0.787 0.552 1.186 0.561" stroke="hsl(0.0,100%,35%)" stroke-width="0.00524"></path>
<path d="M0.718 0.355 Q0.312 0.584 0.671 0.832" stroke="hsl(0.0,100%,35%)" stroke-width="0.00524"></path>
<path d="M0.718 0.355 Q0.569 0.586 0.988 0.710" stroke="hsl(0.0,100%,35%)" stroke-width="0.00524"></path>
<path d="M1.541 0.448 Q1.430 0.435 1.380 0.486" stroke="hsl(240.0,100%,35%)" stroke-width="0.01048"></path>
<path d="M1.541 0.448 Q1.451 0.369 1.277 0.395" stroke="hsl(240.0,100%,35%)" stroke-width="0.00524"></path>
<path d="M1.541 0.448 Q1.446 0.418 1.368 0.458" stroke="hsl(240.0,100%,35%)" stroke-width="0.00524"></path>
<path d="M0.200 0.097 Q0.151 0.109 0.164 0.135" stroke="hsl(300.0,100%,35%)" stroke-width="0.01048"></path>
<path d="M0.200 0.097 Q0.335 0.131 0.432 0.072" stroke="hsl(300.0,100%,35%)" stroke-width="0.01048"></path>
<path d="M0.200 0.097 Q0.365 0.171 0.547 0.107" stroke="hsl(300.0,100%,35%)" stroke-width="0.01048"></path>
<path d="M0.497 0.410 Q0.360 0.435 0.379 0.508" stroke="hsl(180.0,100%,35%)" stroke-width="0.00524"></path>
<path d="M0.497 0.410 Q1.298 0.542 1.733 0.181" stroke="hsl(180.0,100%,35%)" stroke-width="0.00524"></path>
<path d="M0.497 0.410 Q0.556 0.372 0.495 0.335" stroke="hsl(180.0,100%,35%)" stroke-width="0.00524"></path>
<path d="M0.166 0.482 Q0.314 0.910 1.183 0.932" stroke="hsl(60.0,100%,35%)" stroke-width="0.00524"></path>
<path d="M0.166 0.482 Q0.266 0.472 0.268 0.421" stroke="hsl(60.0,100%,35%)" stroke-width="0.01048"></path>
<path d="M0.166 0.482 Q0.888 0.554 1.186 0.218" stroke="hsl(60.0,100%,35%)" stroke-width="0.00524"></path>
<path d="M1.826 0.087 Q1.814 0.150 1.936 0.170" stroke="hsl(180.0,100%,35%)" stroke-width="0.01048"></path>
<path d="M1.826 0.087 Q1.705 0.115 1.733 0.181" stroke="hsl(180.0,100%,35%)" stroke-width="0.00524"></path>
<path d="M1.826 0.087 Q1.676 0.079 1.627 0.150" stroke="hsl(180.0,100%,35%)" stroke-width="0.00524"></path>
<path d="M1.748 0.798 Q1.652 0.835 1.704 0.890" stroke="hsl(60.0,100%,35%)" stroke-width="0.00524"></path>
<path d="M1.748 0.798 Q1.811 0.847 1.921 0.827" stroke="hsl(60.0,100%,35%)" stroke-width="0.00524"></path>
<path d="M1.748 0.798 Q1.435 0.283 0.362 0.323" stroke="hsl(60.0,100%,35%)" stroke-width="0.00524"></path>
<path d="M1.748 0.798 Q1.869 0.784 1.868 0.721" stroke="hsl(60.0,100%,35%)" stroke-width="0.01572"></path>
<path d="M1.748 0.798 Q1.784 0.873 1.938 0.872" stroke="hsl(60.0,100%,35%)" stroke-width="0.01048"></path>
</g>
<text x="0.598" y="0.952" font-size="0.032703" fill="hsl(0.0,100%,20%)">abotella</text>
<text x="0.403" y="0.623" font-size="0.041367" fill="hsl(0.0,100%,20%)">ikilpatrick</text>
<text x="1.921" y="0.818" font-size="0.017912" fill="hsl(0.0,100%,20%)">tkent</text>
<text x="0.671" y="0.822" font-size="0.020684" fill="hsl(0.0,100%,20%)">kojii</text>
<text x="1.376" y="0.252" font-size="0.031025" fill="hsl(60.0,100%,20%)">aleventhal</text>
<text x="1.532" y="0.364" font-size="0.010342" fill="hsl(60.0,100%,20%)">benjamin.beaudry</text>
<text x="1.551" y="0.114" font-size="0.010342" fill="hsl(60.0,100%,20%)">alexmos</text>
<text x="1.602" y="0.279" font-size="0.010342" fill="hsl(60.0,100%,20%)">chrishtr</text>
<text x="1.186" y="0.209" font-size="0.017912" fill="hsl(60.0,100%,20%)">dcheng</text>
<text x="1.463" y="0.356" font-size="0.010342" fill="hsl(60.0,100%,20%)">dpapad</text>
<text x="1.868" y="0.706" font-size="0.031025" fill="hsl(60.0,100%,20%)">masonf</text>
<text x="1.518" y="0.204" font-size="0.010342" fill="hsl(60.0,100%,20%)">thakis</text>
<text x="1.429" y="0.138" font-size="0.010342" fill="hsl(60.0,100%,20%)">torne</text>
<text x="1.351" y="0.402" font-size="0.010342" fill="hsl(60.0,100%,20%)">zork</text>
<text x="1.640" y="0.610" font-size="0.020684" fill="hsl(60.0,100%,20%)">beaufort.francois</text>
<text x="1.677" y="0.691" font-size="0.014625" fill="hsl(60.0,100%,20%)">arthursonzogni</text>
<text x="1.635" y="0.496" font-size="0.010342" fill="hsl(60.0,100%,20%)">mattreynolds</text>
<text x="1.696" y="0.659" font-size="0.010342" fill="hsl(60.0,100%,20%)">yoavweiss</text>
<text x="1.252" y="0.823" font-size="0.027362" fill="hsl(60.0,100%,20%)">behamilton</text>
<text x="1.582" y="0.575" font-size="0.035825" fill="hsl(60.0,100%,20%)">dom</text>
<text x="1.064" y="0.945" font-size="0.010342" fill="hsl(60.0,100%,20%)">fmalita</text>
<text x="1.372" y="0.963" font-size="0.032703" fill="hsl(60.0,100%,20%)">morlovich</text>
<text x="0.366" y="0.191" font-size="0.023125" fill="hsl(60.0,100%,20%)">chromium</text>
<text x="0.110" y="0.163" font-size="0.014625" fill="hsl(60.0,100%,20%)">lwarlow</text>
<text x="0.362" y="0.311" font-size="0.023125" fill="hsl(60.0,100%,20%)">jarhar</text>
<text x="1.878" y="0.365" font-size="0.032703" fill="hsl(60.0,100%,20%)">dbaron</text>
<text x="1.886" y="0.243" font-size="0.017912" fill="hsl(60.0,100%,20%)">sakhapov</text>
<text x="1.939" y="0.575" font-size="0.025332" fill="hsl(60.0,100%,20%)">andruud</text>
<text x="1.822" y="0.524" font-size="0.034300" fill="hsl(60.0,100%,20%)">futhark</text>
<text x="1.500" y="0.764" font-size="0.042640" fill="hsl(60.0,100%,20%)">nrosenthal</text>
<text x="0.761" y="0.215" font-size="0.025332" fill="hsl(60.0,100%,20%)">japhet</text>
<text x="1.732" y="0.933" font-size="0.023125" fill="hsl(60.0,100%,20%)">fs</text>
<text x="1.854" y="0.908" font-size="0.020684" fill="hsl(0.0,100%,20%)">pdr</text>
<text x="1.589" y="0.917" font-size="0.010342" fill="hsl(60.0,100%,20%)">schenney</text>
<text x="0.947" y="0.933" font-size="0.027362" fill="hsl(0.0,100%,20%)">mstensho</text>
<text x="0.482" y="0.768" font-size="0.025332" fill="hsl(0.0,100%,20%)">dgrogan</text>
<text x="1.327" y="0.124" font-size="0.020684" fill="hsl(0.0,100%,20%)">janiceliu</text>
<text x="1.597" y="0.060" font-size="0.014625" fill="hsl(0.0,100%,20%)">awillia</text>
<text x="1.194" y="0.101" font-size="0.010342" fill="hsl(0.0,100%,20%)">kyraseevers</text>
<text x="0.682" y="0.051" font-size="0.010342" fill="hsl(60.0,100%,20%)">domenic</text>
<text x="0.670" y="0.245" font-size="0.014625" fill="hsl(60.0,100%,20%)">caseq</text>
<text x="1.938" y="0.863" font-size="0.017912" fill="hsl(60.0,100%,20%)">tcaptan</text>
<text x="0.953" y="0.802" font-size="0.032703" fill="hsl(0.0,100%,20%)">jonathanjlee</text>
<text x="0.986" y="0.911" font-size="0.010342" fill="hsl(0.0,100%,20%)">finnur</text>
<text x="1.080" y="0.860" font-size="0.010342" fill="hsl(0.0,100%,20%)">arichiv</text>
<text x="0.919" y="0.986" font-size="0.010342" fill="hsl(0.0,100%,20%)">chengweih</text>
<text x="0.716" y="0.680" font-size="0.010342" fill="hsl(60.0,100%,20%)">iclelland</text>
<text x="0.764" y="0.720" font-size="0.010342" fill="hsl(0.0,100%,20%)">reillyg</text>
<text x="1.139" y="0.640" font-size="0.029251" fill="hsl(0.0,100%,20%)">lisha.guo</text>
<text x="0.848" y="0.639" font-size="0.014625" fill="hsl(60.0,100%,20%)">asully</text>
<text x="0.936" y="0.418" font-size="0.035825" fill="hsl(0.0,100%,20%)">ningxin.hu</text>
<text x="1.186" y="0.549" font-size="0.025332" fill="hsl(0.0,100%,20%)">ajgo</text>
<text x="0.988" y="0.698" font-size="0.023125" fill="hsl(0.0,100%,20%)">rafael.cintron</text>
<text x="1.058" y="0.014" font-size="0.023125" fill="hsl(120.0,100%,20%)">memmott</text>
<text x="1.248" y="0.033" font-size="0.017912" fill="hsl(120.0,100%,20%)">christinesm</text>
<text x="0.967" y="0.163" font-size="0.010342" fill="hsl(120.0,100%,20%)">danakj</text>
<text x="0.827" y="0.031" font-size="0.010342" fill="hsl(120.0,100%,20%)">ayui</text>
<text x="0.982" y="0.520" font-size="0.020684" fill="hsl(0.0,100%,20%)">mingming1.xu</text>
<text x="1.085" y="0.302" font-size="0.020684" fill="hsl(0.0,100%,20%)">weizhong</text>
<text x="1.183" y="0.923" font-size="0.017912" fill="hsl(60.0,100%,20%)">mmenke</text>
<text x="1.571" y="0.905" font-size="0.010342" fill="hsl(60.0,100%,20%)">qingxinwu</text>
<text x="0.764" y="0.536" font-size="0.017912" fill="hsl(0.0,100%,20%)">almaher</text>
<text x="1.388" y="0.656" font-size="0.020684" fill="hsl(60.0,100%,20%)">khushalsagar</text>
<text x="1.557" y="0.890" font-size="0.010342" fill="hsl(60.0,100%,20%)">mmocny</text>
<text x="1.289" y="0.714" font-size="0.010342" fill="hsl(60.0,100%,20%)">haraken</text>
<text x="1.328" y="0.685" font-size="0.014625" fill="hsl(60.0,100%,20%)">vmpstr</text>
<text x="0.201" y="0.847" font-size="0.029251" fill="hsl(180.0,100%,20%)">nsatragno</text>
<text x="0.090" y="0.641" font-size="0.010342" fill="hsl(180.0,100%,20%)">natiahlyi</text>
<text x="0.159" y="0.650" font-size="0.010342" fill="hsl(180.0,100%,20%)">lbrady</text>
<text x="0.125" y="0.723" font-size="0.027362" fill="hsl(180.0,100%,20%)">kenrb</text>
<text x="1.173" y="0.370" font-size="0.017912" fill="hsl(0.0,100%,20%)">patrto</text>
<text x="0.063" y="0.600" font-size="0.023125" fill="hsl(180.0,100%,20%)">pkotwicz</text>
<text x="1.936" y="0.161" font-size="0.017912" fill="hsl(180.0,100%,20%)">cbiesinger</text>
<text x="0.379" y="0.501" font-size="0.014625" fill="hsl(180.0,100%,20%)">avi</text>
<text x="0.631" y="0.583" font-size="0.023125" fill="hsl(0.0,100%,20%)">samomekarajr</text>
<text x="0.443" y="0.481" font-size="0.010342" fill="hsl(0.0,100%,20%)">ethavar</text>
<text x="0.567" y="0.491" font-size="0.010342" fill="hsl(0.0,100%,20%)">kbabbitt</text>
<text x="0.859" y="0.604" font-size="0.017912" fill="hsl(60.0,100%,20%)">shanxing.mei</text>
<text x="0.718" y="0.341" font-size="0.027362" fill="hsl(0.0,100%,20%)">shiyi.zou</text>
<text x="1.541" y="0.437" font-size="0.020684" fill="hsl(240.0,100%,20%)">sunggch</text>
<text x="1.380" y="0.478" font-size="0.014625" fill="hsl(240.0,100%,20%)">gabrielbrito</text>
<text x="1.277" y="0.390" font-size="0.010342" fill="hsl(240.0,100%,20%)">mjwilson</text>
<text x="1.368" y="0.453" font-size="0.010342" fill="hsl(240.0,100%,20%)">handellm</text>
<text x="0.200" y="0.084" font-size="0.025332" fill="hsl(300.0,100%,20%)">suzukikeita</text>
<text x="0.164" y="0.128" font-size="0.014625" fill="hsl(300.0,100%,20%)">sisidovski</text>
<text x="0.432" y="0.065" font-size="0.014625" fill="hsl(300.0,100%,20%)">toyoshim</text>
<text x="0.547" y="0.100" font-size="0.014625" fill="hsl(300.0,100%,20%)">yyanagisawa</text>
<text x="0.497" y="0.401" font-size="0.017912" fill="hsl(180.0,100%,20%)">xiaobincui</text>
<text x="1.733" y="0.173" font-size="0.014625" fill="hsl(180.0,100%,20%)">dtapuska</text>
<text x="0.495" y="0.330" font-size="0.010342" fill="hsl(180.0,100%,20%)">jkim</text>
<text x="0.166" y="0.472" font-size="0.020684" fill="hsl(60.0,100%,20%)">ybourouphael</text>
<text x="0.268" y="0.413" font-size="0.014625" fill="hsl(60.0,100%,20%)">orrb</text>
<text x="1.826" y="0.077" font-size="0.020684" fill="hsl(180.0,100%,20%)">yigu</text>
<text x="1.627" y="0.145" font-size="0.010342" fill="hsl(180.0,100%,20%)">joenotcharles</text>
<text x="1.748" y="0.784" font-size="0.029251" fill="hsl(60.0,100%,20%)">zhoupeng.1996</text>
<text x="1.704" y="0.885" font-size="0.010342" fill="hsl(60.0,100%,20%)">siliu</text>
</svg>
