<svg width="4000" height="2000" viewBox="-0.025 -0.025 2.05 1.05" xmlns="http://www.w3.org/2000/svg">
  <style>
    path {
      fill: none;
      stroke-linecap: round;
      stroke-opacity: 0.4;
    }

    text {
      text-anchor: middle;
      alignment-baseline: hanging;
    }
  </style>
  <g opacity="0.4">
<path d="M0.628 0.408 Q0.660 0.531 0.906 0.542" stroke="hsl(0.0,100%,35%)" stroke-width="0.02282"></path>
<path d="M0.628 0.408 Q0.453 0.488 0.569 0.591" stroke="hsl(0.0,100%,35%)" stroke-width="0.02282"></path>
<path d="M0.628 0.408 Q0.804 0.604 1.224 0.561" stroke="hsl(0.0,100%,35%)" stroke-width="0.00456"></path>
<path d="M0.906 0.542 Q0.874 0.420 0.628 0.408" stroke="hsl(0.0,100%,35%)" stroke-width="0.03195"></path>
<path d="M0.906 0.542 Q1.070 0.252 0.539 0.108" stroke="hsl(0.0,100%,35%)" stroke-width="0.00913"></path>
<path d="M0.906 0.542 Q0.711 0.610 0.802 0.721" stroke="hsl(0.0,100%,35%)" stroke-width="0.00456"></path>
<path d="M0.569 0.591 Q0.745 0.511 0.628 0.408" stroke="hsl(0.0,100%,35%)" stroke-width="0.02739"></path>
<path d="M0.569 0.591 Q0.777 0.634 0.906 0.542" stroke="hsl(0.0,100%,35%)" stroke-width="0.02739"></path>
<path d="M0.569 0.591 Q0.673 0.656 0.822 0.619" stroke="hsl(0.0,100%,35%)" stroke-width="0.00456"></path>
<path d="M0.569 0.591 Q0.582 0.702 0.802 0.721" stroke="hsl(0.0,100%,35%)" stroke-width="0.01826"></path>
<path d="M0.569 0.591 Q0.688 0.410 0.360 0.312" stroke="hsl(0.0,100%,35%)" stroke-width="0.00456"></path>
<path d="M1.224 0.561 Q0.886 0.557 0.802 0.721" stroke="hsl(72.0,100%,35%)" stroke-width="0.00456"></path>
<path d="M1.224 0.561 Q0.720 0.526 0.540 0.765" stroke="hsl(72.0,100%,35%)" stroke-width="0.00456"></path>
<path d="M1.224 0.561 Q1.066 0.618 1.142 0.707" stroke="hsl(72.0,100%,35%)" stroke-width="0.00456"></path>
<path d="M1.224 0.561 Q1.389 0.696 1.688 0.645" stroke="hsl(72.0,100%,35%)" stroke-width="0.00456"></path>
<path d="M1.224 0.561 Q0.949 0.189 0.161 0.241" stroke="hsl(72.0,100%,35%)" stroke-width="0.00456"></path>
<path d="M0.197 0.550 Q0.078 0.860 0.657 0.986" stroke="hsl(144.0,100%,35%)" stroke-width="0.00456"></path>
<path d="M0.197 0.550 Q0.299 0.562 0.343 0.515" stroke="hsl(144.0,100%,35%)" stroke-width="0.00456"></path>
<path d="M0.197 0.550 Q0.337 0.556 0.379 0.488" stroke="hsl(144.0,100%,35%)" stroke-width="0.00456"></path>
<path d="M0.657 0.986 Q0.857 0.928 0.787 0.817" stroke="hsl(144.0,100%,35%)" stroke-width="0.00456"></path>
<path d="M0.657 0.986 Q1.128 1.100 1.454 0.896" stroke="hsl(144.0,100%,35%)" stroke-width="0.00456"></path>
<path d="M0.657 0.986 Q0.786 1.022 0.885 0.967" stroke="hsl(144.0,100%,35%)" stroke-width="0.00456"></path>
<path d="M1.574 0.964 Q1.389 0.888 1.200 0.962" stroke="hsl(72.0,100%,35%)" stroke-width="0.00456"></path>
<path d="M1.574 0.964 Q2.090 0.422 1.146 0.051" stroke="hsl(72.0,100%,35%)" stroke-width="0.00456"></path>
<path d="M1.574 0.964 Q1.570 0.952 1.544 0.951" stroke="hsl(72.0,100%,35%)" stroke-width="0.00456"></path>
<path d="M1.311 0.991 Q1.349 0.912 1.204 0.876" stroke="hsl(144.0,100%,35%)" stroke-width="0.01369"></path>
<path d="M1.311 0.991 Q1.224 0.868 0.966 0.884" stroke="hsl(144.0,100%,35%)" stroke-width="0.00456"></path>
<path d="M1.311 0.991 Q1.668 0.682 1.144 0.440" stroke="hsl(144.0,100%,35%)" stroke-width="0.00456"></path>
<path d="M1.311 0.991 Q1.672 0.996 1.761 0.821" stroke="hsl(144.0,100%,35%)" stroke-width="0.00456"></path>
<path d="M1.204 0.876 Q1.166 0.955 1.311 0.991" stroke="hsl(144.0,100%,35%)" stroke-width="0.01369"></path>
<path d="M1.204 0.876 Q1.105 0.874 1.079 0.921" stroke="hsl(144.0,100%,35%)" stroke-width="0.00456"></path>
<path d="M1.204 0.876 Q1.318 0.897 1.384 0.846" stroke="hsl(144.0,100%,35%)" stroke-width="0.00456"></path>
<path d="M1.204 0.876 Q1.079 0.832 0.966 0.884" stroke="hsl(144.0,100%,35%)" stroke-width="0.00456"></path>
<path d="M1.204 0.876 Q1.210 0.810 1.083 0.793" stroke="hsl(144.0,100%,35%)" stroke-width="0.00456"></path>
<path d="M1.204 0.876 Q1.158 0.805 1.009 0.812" stroke="hsl(144.0,100%,35%)" stroke-width="0.00456"></path>
<path d="M1.204 0.876 Q1.435 0.953 1.636 0.857" stroke="hsl(144.0,100%,35%)" stroke-width="0.00456"></path>
<path d="M1.204 0.876 Q1.313 0.936 1.454 0.896" stroke="hsl(144.0,100%,35%)" stroke-width="0.00456"></path>
<path d="M1.204 0.876 Q1.099 0.932 1.186 0.996" stroke="hsl(144.0,100%,35%)" stroke-width="0.00456"></path>
<path d="M1.204 0.876 Q1.087 0.892 1.094 0.953" stroke="hsl(144.0,100%,35%)" stroke-width="0.00456"></path>
<path d="M1.144 0.440 Q0.699 0.626 0.966 0.884" stroke="hsl(144.0,100%,35%)" stroke-width="0.00456"></path>
<path d="M1.144 0.440 Q1.105 0.354 0.930 0.354" stroke="hsl(144.0,100%,35%)" stroke-width="0.01369"></path>
<path d="M1.144 0.440 Q0.811 0.144 0.161 0.241" stroke="hsl(144.0,100%,35%)" stroke-width="0.00456"></path>
<path d="M1.144 0.440 Q1.155 0.385 1.050 0.367" stroke="hsl(144.0,100%,35%)" stroke-width="0.00456"></path>
<path d="M0.540 0.765 Q0.398 0.877 0.585 0.971" stroke="hsl(72.0,100%,35%)" stroke-width="0.00456"></path>
<path d="M0.540 0.765 Q1.045 0.800 1.224 0.561" stroke="hsl(72.0,100%,35%)" stroke-width="0.00913"></path>
<path d="M0.540 0.765 Q0.887 0.856 1.142 0.707" stroke="hsl(72.0,100%,35%)" stroke-width="0.01369"></path>
<path d="M0.540 0.765 Q0.637 0.742 0.613 0.690" stroke="hsl(72.0,100%,35%)" stroke-width="0.00456"></path>
<path d="M0.540 0.765 Q0.358 0.828 0.442 0.931" stroke="hsl(72.0,100%,35%)" stroke-width="0.00456"></path>
<path d="M1.142 0.707 Q1.300 0.651 1.224 0.561" stroke="hsl(72.0,100%,35%)" stroke-width="0.00913"></path>
<path d="M1.142 0.707 Q1.465 0.786 1.688 0.645" stroke="hsl(72.0,100%,35%)" stroke-width="0.00913"></path>
<path d="M1.142 0.707 Q1.025 0.278 0.161 0.241" stroke="hsl(72.0,100%,35%)" stroke-width="0.00456"></path>
<path d="M0.539 0.108 Q0.495 0.177 0.621 0.214" stroke="hsl(0.0,100%,35%)" stroke-width="0.02282"></path>
<path d="M0.539 0.108 Q0.378 0.108 0.343 0.186" stroke="hsl(0.0,100%,35%)" stroke-width="0.01369"></path>
<path d="M0.539 0.108 Q0.375 0.398 0.906 0.542" stroke="hsl(0.0,100%,35%)" stroke-width="0.01369"></path>
<path d="M0.539 0.108 Q0.180 0.467 0.802 0.721" stroke="hsl(0.0,100%,35%)" stroke-width="0.00456"></path>
<path d="M0.539 0.108 Q-0.084 0.258 0.072 0.595" stroke="hsl(0.0,100%,35%)" stroke-width="0.00456"></path>
<path d="M0.150 0.434 Q0.222 0.444 0.257 0.412" stroke="hsl(144.0,100%,35%)" stroke-width="0.00456"></path>
<path d="M0.150 0.434 Q0.433 0.925 1.454 0.896" stroke="hsl(144.0,100%,35%)" stroke-width="0.00456"></path>
<path d="M0.150 0.434 Q0.162 0.410 0.118 0.400" stroke="hsl(144.0,100%,35%)" stroke-width="0.00456"></path>
<path d="M0.442 0.931 Q0.561 0.785 0.303 0.696" stroke="hsl(72.0,100%,35%)" stroke-width="0.00913"></path>
<path d="M0.442 0.931 Q0.726 0.703 0.343 0.515" stroke="hsl(72.0,100%,35%)" stroke-width="0.00456"></path>
<path d="M0.442 0.931 Q0.624 0.868 0.540 0.765" stroke="hsl(72.0,100%,35%)" stroke-width="0.02282"></path>
<path d="M0.442 0.931 Q1.347 0.700 1.094 0.208" stroke="hsl(72.0,100%,35%)" stroke-width="0.00456"></path>
<path d="M0.442 0.931 Q0.985 0.829 0.906 0.542" stroke="hsl(72.0,100%,35%)" stroke-width="0.00456"></path>
<path d="M1.790 0.387 Q1.671 0.355 1.581 0.406" stroke="hsl(216.0,100%,35%)" stroke-width="0.01369"></path>
<path d="M1.790 0.387 Q1.879 0.403 1.930 0.363" stroke="hsl(216.0,100%,35%)" stroke-width="0.00913"></path>
<path d="M1.790 0.387 Q1.781 0.482 1.965 0.508" stroke="hsl(216.0,100%,35%)" stroke-width="0.00456"></path>
<path d="M1.965 0.508 Q1.854 0.380 1.581 0.406" stroke="hsl(216.0,100%,35%)" stroke-width="0.00456"></path>
<path d="M1.965 0.508 Q1.860 0.527 1.874 0.583" stroke="hsl(216.0,100%,35%)" stroke-width="0.00456"></path>
<path d="M1.965 0.508 Q2.063 0.429 1.930 0.363" stroke="hsl(216.0,100%,35%)" stroke-width="0.00913"></path>
<path d="M0.360 0.312 Q0.452 0.284 0.418 0.234" stroke="hsl(72.0,100%,35%)" stroke-width="0.02282"></path>
<path d="M0.360 0.312 Q0.520 0.341 0.612 0.270" stroke="hsl(72.0,100%,35%)" stroke-width="0.00456"></path>
<path d="M0.360 0.312 Q-0.055 0.687 0.585 0.971" stroke="hsl(72.0,100%,35%)" stroke-width="0.00456"></path>
<path d="M1.454 0.690 Q1.284 0.636 1.142 0.707" stroke="hsl(72.0,100%,35%)" stroke-width="0.02739"></path>
<path d="M1.454 0.690 Q1.442 0.580 1.224 0.561" stroke="hsl(72.0,100%,35%)" stroke-width="0.03195"></path>
<path d="M1.454 0.690 Q0.937 0.545 0.540 0.765" stroke="hsl(72.0,100%,35%)" stroke-width="0.00913"></path>
<path d="M1.454 0.690 Q0.874 0.463 0.303 0.696" stroke="hsl(72.0,100%,35%)" stroke-width="0.00913"></path>
<path d="M1.454 0.690 Q1.351 0.713 1.373 0.768" stroke="hsl(72.0,100%,35%)" stroke-width="0.00456"></path>
<path d="M0.072 0.595 Q0.443 0.511 0.360 0.312" stroke="hsl(72.0,100%,35%)" stroke-width="0.00456"></path>
<path d="M0.072 0.595 Q0.792 0.534 0.830 0.170" stroke="hsl(72.0,100%,35%)" stroke-width="0.00456"></path>
<path d="M0.072 0.595 Q0.011 0.621 0.048 0.656" stroke="hsl(72.0,100%,35%)" stroke-width="0.00456"></path>
<path d="M0.830 0.170 Q0.857 0.218 0.956 0.215" stroke="hsl(72.0,100%,35%)" stroke-width="0.00913"></path>
<path d="M0.830 0.170 Q0.891 0.156 0.876 0.123" stroke="hsl(72.0,100%,35%)" stroke-width="0.00913"></path>
<path d="M0.830 0.170 Q0.996 0.118 0.932 0.026" stroke="hsl(72.0,100%,35%)" stroke-width="0.01369"></path>
<path d="M0.830 0.170 Q0.111 0.231 0.072 0.595" stroke="hsl(72.0,100%,35%)" stroke-width="0.00456"></path>
<path d="M0.830 0.170 Q1.083 0.174 1.146 0.051" stroke="hsl(72.0,100%,35%)" stroke-width="0.00456"></path>
<path d="M0.830 0.170 Q0.769 0.211 0.836 0.250" stroke="hsl(72.0,100%,35%)" stroke-width="0.00456"></path>
<path d="M0.830 0.170 Q0.932 0.242 1.094 0.208" stroke="hsl(72.0,100%,35%)" stroke-width="0.00456"></path>
<path d="M0.200 0.140 Q0.227 0.730 1.384 0.846" stroke="hsl(144.0,100%,35%)" stroke-width="0.00456"></path>
<path d="M0.200 0.140 Q0.232 0.093 0.148 0.067" stroke="hsl(144.0,100%,35%)" stroke-width="0.00456"></path>
<path d="M0.200 0.140 Q0.261 0.185 0.362 0.165" stroke="hsl(144.0,100%,35%)" stroke-width="0.00456"></path>
<path d="M0.200 0.140 Q0.099 0.183 0.161 0.241" stroke="hsl(144.0,100%,35%)" stroke-width="0.00456"></path>
<path d="M0.200 0.140 Q0.243 0.105 0.184 0.076" stroke="hsl(144.0,100%,35%)" stroke-width="0.00456"></path>
<path d="M0.200 0.140 Q0.255 0.174 0.335 0.155" stroke="hsl(144.0,100%,35%)" stroke-width="0.00456"></path>
<path d="M1.417 0.292 Q1.364 0.230 1.231 0.242" stroke="hsl(288.0,100%,35%)" stroke-width="0.01826"></path>
<path d="M1.417 0.292 Q1.293 0.349 1.377 0.422" stroke="hsl(288.0,100%,35%)" stroke-width="0.01826"></path>
<path d="M1.417 0.292 Q1.265 0.268 1.185 0.337" stroke="hsl(288.0,100%,35%)" stroke-width="0.00913"></path>
<path d="M1.915 0.656 Q1.820 0.694 1.873 0.749" stroke="hsl(216.0,100%,35%)" stroke-width="0.00456"></path>
<path d="M1.915 0.656 Q1.954 0.611 1.874 0.583" stroke="hsl(216.0,100%,35%)" stroke-width="0.00456"></path>
<path d="M1.915 0.656 Q1.948 0.464 1.581 0.406" stroke="hsl(216.0,100%,35%)" stroke-width="0.00456"></path>
<path d="M1.915 0.656 Q1.755 0.674 1.754 0.756" stroke="hsl(216.0,100%,35%)" stroke-width="0.00456"></path>
<path d="M1.565 0.555 Q1.365 0.196 0.621 0.214" stroke="hsl(72.0,100%,35%)" stroke-width="0.00913"></path>
<path d="M1.565 0.555 Q1.554 0.625 1.688 0.645" stroke="hsl(72.0,100%,35%)" stroke-width="0.01369"></path>
<path d="M1.565 0.555 Q1.114 0.117 0.161 0.241" stroke="hsl(72.0,100%,35%)" stroke-width="0.00456"></path>
</g>
<text x="0.628" y="0.383" font-size="0.050131" fill="hsl(0.0,100%,20%)">andruud</text>
<text x="0.906" y="0.516" font-size="0.051164" fill="hsl(0.0,100%,20%)">futhark</text>
<text x="0.569" y="0.566" font-size="0.049075" fill="hsl(0.0,100%,20%)">sesse</text>
<text x="1.224" y="0.540" font-size="0.042191" fill="hsl(72.0,100%,20%)">dbaron</text>
<text x="0.197" y="0.541" font-size="0.017724" fill="hsl(144.0,100%,20%)">apaseltiner</text>
<text x="0.657" y="0.976" font-size="0.020466" fill="hsl(144.0,100%,20%)">domenic</text>
<text x="0.343" y="0.507" font-size="0.014471" fill="hsl(144.0,100%,20%)">japhet</text>
<text x="0.379" y="0.483" font-size="0.010233" fill="hsl(144.0,100%,20%)">johnidel</text>
<text x="1.574" y="0.955" font-size="0.017724" fill="hsl(72.0,100%,20%)">averge</text>
<text x="1.200" y="0.957" font-size="0.010233" fill="hsl(72.0,100%,20%)">arthursonzogni</text>
<text x="1.146" y="0.044" font-size="0.014471" fill="hsl(72.0,100%,20%)">dom</text>
<text x="1.544" y="0.946" font-size="0.010233" fill="hsl(72.0,100%,20%)">lbrady</text>
<text x="1.311" y="0.975" font-size="0.030699" fill="hsl(144.0,100%,20%)">cammie</text>
<text x="1.204" y="0.856" font-size="0.039632" fill="hsl(144.0,100%,20%)">yaoxia</text>
<text x="0.966" y="0.875" font-size="0.017724" fill="hsl(144.0,100%,20%)">bashi</text>
<text x="1.144" y="0.426" font-size="0.027074" fill="hsl(144.0,100%,20%)">mkwst</text>
<text x="1.761" y="0.816" font-size="0.010233" fill="hsl(144.0,100%,20%)">wanderview</text>
<text x="0.802" y="0.707" font-size="0.027074" fill="hsl(0.0,100%,20%)">sakhapov</text>
<text x="0.540" y="0.744" font-size="0.040932" fill="hsl(72.0,100%,20%)">jarhar</text>
<text x="1.142" y="0.688" font-size="0.039632" fill="hsl(72.0,100%,20%)">dizhangg</text>
<text x="1.688" y="0.633" font-size="0.025065" fill="hsl(72.0,100%,20%)">siliu</text>
<text x="0.161" y="0.230" font-size="0.022881" fill="hsl(144.0,100%,20%)">tkent</text>
<text x="0.787" y="0.812" font-size="0.010233" fill="hsl(144.0,100%,20%)">nhiroki</text>
<text x="1.454" y="0.887" font-size="0.017724" fill="hsl(144.0,100%,20%)">rakina</text>
<text x="0.885" y="0.962" font-size="0.010233" fill="hsl(144.0,100%,20%)">ricea</text>
<text x="0.539" y="0.088" font-size="0.039632" fill="hsl(0.0,100%,20%)">mstensho</text>
<text x="0.150" y="0.425" font-size="0.017724" fill="hsl(144.0,100%,20%)">horo</text>
<text x="0.257" y="0.407" font-size="0.010233" fill="hsl(144.0,100%,20%)">fergal</text>
<text x="0.118" y="0.394" font-size="0.010233" fill="hsl(144.0,100%,20%)">toyoshim</text>
<text x="0.585" y="0.964" font-size="0.014471" fill="hsl(72.0,100%,20%)">flackr</text>
<text x="0.613" y="0.685" font-size="0.010233" fill="hsl(72.0,100%,20%)">nyquist</text>
<text x="0.442" y="0.914" font-size="0.033939" fill="hsl(72.0,100%,20%)">tcaptan</text>
<text x="1.790" y="0.375" font-size="0.025065" fill="hsl(216.0,100%,20%)">junwei.fu</text>
<text x="1.581" y="0.395" font-size="0.022881" fill="hsl(216.0,100%,20%)">ningxin.hu</text>
<text x="1.930" y="0.353" font-size="0.020466" fill="hsl(216.0,100%,20%)">reillyg</text>
<text x="1.965" y="0.496" font-size="0.022881" fill="hsl(216.0,100%,20%)">phillis</text>
<text x="0.360" y="0.297" font-size="0.030699" fill="hsl(72.0,100%,20%)">kevers</text>
<text x="0.418" y="0.222" font-size="0.022881" fill="hsl(72.0,100%,20%)">mustaq</text>
<text x="0.612" y="0.265" font-size="0.010233" fill="hsl(72.0,100%,20%)">gerchiko</text>
<text x="1.454" y="0.668" font-size="0.043414" fill="hsl(72.0,100%,20%)">masonf</text>
<text x="0.303" y="0.685" font-size="0.020466" fill="hsl(72.0,100%,20%)">aleventhal</text>
<text x="1.373" y="0.763" font-size="0.010233" fill="hsl(72.0,100%,20%)">ikilpatrick</text>
<text x="0.930" y="0.345" font-size="0.017724" fill="hsl(144.0,100%,20%)">clamy</text>
<text x="1.050" y="0.362" font-size="0.010233" fill="hsl(144.0,100%,20%)">antoniosartori</text>
<text x="0.621" y="0.201" font-size="0.027074" fill="hsl(0.0,100%,20%)">kojii</text>
<text x="0.343" y="0.177" font-size="0.017724" fill="hsl(0.0,100%,20%)">wangxianzhu</text>
<text x="0.072" y="0.584" font-size="0.022881" fill="hsl(72.0,100%,20%)">vmpstr</text>
<text x="0.830" y="0.152" font-size="0.035448" fill="hsl(72.0,100%,20%)">nrosenthal</text>
<text x="0.956" y="0.208" font-size="0.014471" fill="hsl(72.0,100%,20%)">shaseley</text>
<text x="0.876" y="0.116" font-size="0.014471" fill="hsl(72.0,100%,20%)">sullivan</text>
<text x="0.932" y="0.017" font-size="0.017724" fill="hsl(72.0,100%,20%)">mmocny</text>
<text x="0.836" y="0.245" font-size="0.010233" fill="hsl(72.0,100%,20%)">iclelland</text>
<text x="1.094" y="0.201" font-size="0.014471" fill="hsl(72.0,100%,20%)">pdr</text>
<text x="0.200" y="0.127" font-size="0.025065" fill="hsl(144.0,100%,20%)">pauljensen</text>
<text x="1.384" y="0.839" font-size="0.014471" fill="hsl(144.0,100%,20%)">morlovich</text>
<text x="0.148" y="0.062" font-size="0.010233" fill="hsl(144.0,100%,20%)">nasko</text>
<text x="0.362" y="0.160" font-size="0.010233" fill="hsl(144.0,100%,20%)">shivanisha</text>
<text x="0.184" y="0.071" font-size="0.010233" fill="hsl(144.0,100%,20%)">alexmt</text>
<text x="0.335" y="0.149" font-size="0.010233" fill="hsl(144.0,100%,20%)">victortan</text>
<text x="1.874" y="0.575" font-size="0.014471" fill="hsl(216.0,100%,20%)">asully</text>
<text x="1.417" y="0.276" font-size="0.032359" fill="hsl(288.0,100%,20%)">samomekarajr</text>
<text x="1.231" y="0.232" font-size="0.020466" fill="hsl(288.0,100%,20%)">almaher</text>
<text x="1.377" y="0.411" font-size="0.020466" fill="hsl(288.0,100%,20%)">kschmi</text>
<text x="1.185" y="0.330" font-size="0.014471" fill="hsl(288.0,100%,20%)">kbabbitt</text>
<text x="0.822" y="0.614" font-size="0.010233" fill="hsl(0.0,100%,20%)">dsv</text>
<text x="1.915" y="0.646" font-size="0.020466" fill="hsl(216.0,100%,20%)">shiyi.zou</text>
<text x="1.873" y="0.744" font-size="0.010233" fill="hsl(216.0,100%,20%)">ajgo</text>
<text x="1.754" y="0.751" font-size="0.010233" fill="hsl(216.0,100%,20%)">weizhong</text>
<text x="1.565" y="0.542" font-size="0.025065" fill="hsl(72.0,100%,20%)">utpathak</text>
<text x="0.048" y="0.651" font-size="0.010233" fill="hsl(72.0,100%,20%)">khushalsagar</text>
<text x="1.079" y="0.916" font-size="0.010233" fill="hsl(144.0,100%,20%)">kenrb</text>
<text x="1.083" y="0.788" font-size="0.010233" fill="hsl(144.0,100%,20%)">garykac</text>
<text x="1.009" y="0.807" font-size="0.010233" fill="hsl(144.0,100%,20%)">hidehiko</text>
<text x="1.636" y="0.852" font-size="0.010233" fill="hsl(144.0,100%,20%)">joenotcharles</text>
<text x="1.186" y="0.991" font-size="0.010233" fill="hsl(144.0,100%,20%)">ortuno</text>
<text x="1.094" y="0.947" font-size="0.010233" fill="hsl(144.0,100%,20%)">ayui</text>
</svg>
