<svg width="4000" height="2000" viewBox="-0.025 -0.025 2.05 1.05" xmlns="http://www.w3.org/2000/svg">
  <style>
    path {
      fill: none;
      stroke-linecap: round;
      stroke-opacity: 0.4;
    }

    text {
      text-anchor: middle;
      alignment-baseline: hanging;
    }
  </style>
  <g opacity="0.4">
<path d="M0.751 0.689 Q0.954 0.859 1.331 0.797" stroke="hsl(0.0,100%,35%)" stroke-width="0.00619"></path>
<path d="M0.751 0.689 Q1.346 0.890 1.870 0.644" stroke="hsl(0.0,100%,35%)" stroke-width="0.00619"></path>
<path d="M0.751 0.689 Q0.783 0.788 0.985 0.794" stroke="hsl(0.0,100%,35%)" stroke-width="0.00619"></path>
<path d="M0.751 0.689 Q0.609 0.552 0.312 0.591" stroke="hsl(0.0,100%,35%)" stroke-width="0.00619"></path>
<path d="M1.331 0.797 Q1.723 0.828 1.870 0.644" stroke="hsl(180.0,100%,35%)" stroke-width="0.02474"></path>
<path d="M1.331 0.797 Q0.852 0.573 0.309 0.758" stroke="hsl(180.0,100%,35%)" stroke-width="0.00619"></path>
<path d="M1.331 0.797 Q1.057 0.737 0.878 0.857" stroke="hsl(180.0,100%,35%)" stroke-width="0.00619"></path>
<path d="M1.331 0.797 Q1.257 0.929 1.497 0.994" stroke="hsl(180.0,100%,35%)" stroke-width="0.03093"></path>
<path d="M1.331 0.797 Q1.450 0.738 1.360 0.667" stroke="hsl(180.0,100%,35%)" stroke-width="0.03712"></path>
<path d="M1.331 0.797 Q1.697 0.658 1.504 0.449" stroke="hsl(180.0,100%,35%)" stroke-width="0.00619"></path>
<path d="M1.870 0.644 Q1.597 0.553 1.360 0.667" stroke="hsl(180.0,100%,35%)" stroke-width="0.01237"></path>
<path d="M1.870 0.644 Q1.404 0.744 1.497 0.994" stroke="hsl(180.0,100%,35%)" stroke-width="0.00619"></path>
<path d="M1.870 0.644 Q1.844 0.473 1.504 0.449" stroke="hsl(180.0,100%,35%)" stroke-width="0.00619"></path>
<path d="M1.870 0.644 Q0.998 0.389 0.309 0.758" stroke="hsl(180.0,100%,35%)" stroke-width="0.00619"></path>
<path d="M1.497 0.994 Q1.963 0.893 1.870 0.644" stroke="hsl(180.0,100%,35%)" stroke-width="0.00619"></path>
<path d="M1.497 0.994 Q1.571 0.862 1.331 0.797" stroke="hsl(180.0,100%,35%)" stroke-width="0.00619"></path>
<path d="M1.497 0.994 Q1.690 0.803 1.360 0.667" stroke="hsl(180.0,100%,35%)" stroke-width="0.00619"></path>
<path d="M1.504 0.449 Q1.065 0.720 1.497 0.994" stroke="hsl(180.0,100%,35%)" stroke-width="0.00619"></path>
<path d="M1.504 0.449 Q1.531 0.619 1.870 0.644" stroke="hsl(180.0,100%,35%)" stroke-width="0.01856"></path>
<path d="M1.504 0.449 Q1.258 0.529 1.360 0.667" stroke="hsl(180.0,100%,35%)" stroke-width="0.01237"></path>
<path d="M0.503 0.899 Q0.999 1.014 1.331 0.797" stroke="hsl(180.0,100%,35%)" stroke-width="0.03712"></path>
<path d="M0.503 0.899 Q0.519 0.790 0.309 0.758" stroke="hsl(180.0,100%,35%)" stroke-width="0.01237"></path>
<path d="M0.503 0.899 Q1.118 0.954 1.360 0.667" stroke="hsl(180.0,100%,35%)" stroke-width="0.01237"></path>
<path d="M0.503 0.899 Q1.391 1.045 1.870 0.644" stroke="hsl(180.0,100%,35%)" stroke-width="0.01237"></path>
<path d="M1.897 0.282 Q1.594 0.458 1.870 0.644" stroke="hsl(180.0,100%,35%)" stroke-width="0.03712"></path>
<path d="M1.897 0.282 Q1.127 0.558 1.497 0.994" stroke="hsl(180.0,100%,35%)" stroke-width="0.00619"></path>
<path d="M1.897 0.282 Q1.202 0.427 1.331 0.797" stroke="hsl(180.0,100%,35%)" stroke-width="0.00619"></path>
</g>
<text x="0.751" y="0.670" font-size="0.037796" fill="hsl(0.0,100%,20%)">aaronwood</text>
<text x="1.331" y="0.748" font-size="0.098198" fill="hsl(180.0,100%,20%)">phosek</text>
<text x="1.870" y="0.600" font-size="0.088641" fill="hsl(180.0,100%,20%)">brettw</text>
<text x="0.985" y="0.785" font-size="0.018898" fill="hsl(0.0,100%,20%)">paulfaria</text>
<text x="0.312" y="0.581" font-size="0.018898" fill="hsl(0.0,100%,20%)">tmandry</text>
<text x="1.360" y="0.632" font-size="0.068139" fill="hsl(180.0,100%,20%)">scottmg</text>
<text x="1.497" y="0.962" font-size="0.062678" fill="hsl(180.0,100%,20%)">dpranke</text>
<text x="1.504" y="0.422" font-size="0.053452" fill="hsl(180.0,100%,20%)">thakis</text>
<text x="0.309" y="0.739" font-size="0.037796" fill="hsl(180.0,100%,20%)">sdefresne</text>
<text x="0.503" y="0.867" font-size="0.065465" fill="hsl(180.0,100%,20%)">digit</text>
<text x="0.878" y="0.848" font-size="0.018898" fill="hsl(180.0,100%,20%)">iannucci</text>
<text x="1.897" y="0.255" font-size="0.053452" fill="hsl(180.0,100%,20%)">rjascani</text>
</svg>
