<svg width="4000" height="2000" viewBox="-0.025 -0.025 2.05 1.05" xmlns="http://www.w3.org/2000/svg">
  <style>
    path {
      fill: none;
      stroke-linecap: round;
      stroke-opacity: 0.4;
    }

    text {
      text-anchor: middle;
      alignment-baseline: hanging;
    }
  </style>
  <g opacity="0.4">
<path d="M1.224 0.894 Q0.805 0.797 0.523 0.980" stroke="hsl(0.0,100%,35%)" stroke-width="0.00372"></path>
<path d="M1.224 0.894 Q1.110 0.960 1.216 1.030" stroke="hsl(0.0,100%,35%)" stroke-width="0.00372"></path>
<path d="M1.224 0.894 Q1.412 1.011 1.683 0.945" stroke="hsl(0.0,100%,35%)" stroke-width="0.02602"></path>
<path d="M1.224 0.894 Q1.372 0.776 1.174 0.678" stroke="hsl(0.0,100%,35%)" stroke-width="0.01487"></path>
<path d="M1.224 0.894 Q1.541 0.904 1.631 0.752" stroke="hsl(0.0,100%,35%)" stroke-width="0.01115"></path>
<path d="M0.523 0.980 Q0.627 0.757 0.214 0.658" stroke="hsl(180.0,100%,35%)" stroke-width="0.00372"></path>
<path d="M0.523 0.980 Q0.586 0.905 0.455 0.858" stroke="hsl(180.0,100%,35%)" stroke-width="0.01859"></path>
<path d="M0.523 0.980 Q0.732 0.840 0.505 0.708" stroke="hsl(180.0,100%,35%)" stroke-width="0.00372"></path>
<path d="M1.216 1.030 Q1.477 0.846 1.174 0.678" stroke="hsl(0.0,100%,35%)" stroke-width="0.00743"></path>
<path d="M1.216 1.030 Q1.329 0.964 1.224 0.894" stroke="hsl(0.0,100%,35%)" stroke-width="0.00372"></path>
<path d="M1.216 1.030 Q1.517 1.081 1.683 0.945" stroke="hsl(0.0,100%,35%)" stroke-width="0.00372"></path>
<path d="M1.174 0.678 Q0.670 0.624 0.455 0.858" stroke="hsl(180.0,100%,35%)" stroke-width="0.02230"></path>
<path d="M1.174 0.678 Q0.815 0.559 0.505 0.708" stroke="hsl(180.0,100%,35%)" stroke-width="0.00372"></path>
<path d="M1.174 0.678 Q0.607 0.699 0.523 0.980" stroke="hsl(180.0,100%,35%)" stroke-width="0.02974"></path>
<path d="M1.174 0.678 Q1.362 0.672 1.392 0.579" stroke="hsl(180.0,100%,35%)" stroke-width="0.01487"></path>
<path d="M0.455 0.858 Q0.392 0.933 0.523 0.980" stroke="hsl(180.0,100%,35%)" stroke-width="0.02602"></path>
<path d="M0.455 0.858 Q0.959 0.912 1.174 0.678" stroke="hsl(180.0,100%,35%)" stroke-width="0.00743"></path>
<path d="M0.455 0.858 Q1.147 0.906 1.392 0.579" stroke="hsl(180.0,100%,35%)" stroke-width="0.00743"></path>
<path d="M0.455 0.858 Q0.600 0.793 0.505 0.708" stroke="hsl(180.0,100%,35%)" stroke-width="0.02602"></path>
<path d="M0.975 1.026 Q1.353 0.891 1.174 0.678" stroke="hsl(180.0,100%,35%)" stroke-width="0.01859"></path>
<path d="M0.975 1.026 Q0.849 0.838 0.455 0.858" stroke="hsl(180.0,100%,35%)" stroke-width="0.02602"></path>
<path d="M0.975 1.026 Q0.786 0.912 0.523 0.980" stroke="hsl(180.0,100%,35%)" stroke-width="0.02230"></path>
<path d="M0.975 1.026 Q1.522 1.020 1.631 0.752" stroke="hsl(180.0,100%,35%)" stroke-width="0.00372"></path>
<path d="M0.760 0.800 Q0.498 0.842 0.523 0.980" stroke="hsl(180.0,100%,35%)" stroke-width="0.02230"></path>
<path d="M0.760 0.800 Q1.252 0.816 1.392 0.579" stroke="hsl(180.0,100%,35%)" stroke-width="0.00372"></path>
<path d="M0.760 0.800 Q1.065 0.822 1.174 0.678" stroke="hsl(180.0,100%,35%)" stroke-width="0.00372"></path>
<path d="M0.184 0.886 Q0.279 1.001 0.523 0.980" stroke="hsl(180.0,100%,35%)" stroke-width="0.01115"></path>
<path d="M0.184 0.886 Q0.846 0.980 1.174 0.678" stroke="hsl(180.0,100%,35%)" stroke-width="0.00743"></path>
<path d="M0.184 0.886 Q0.342 0.926 0.455 0.858" stroke="hsl(180.0,100%,35%)" stroke-width="0.00372"></path>
</g>
<text x="1.224" y="0.864" font-size="0.059204" fill="hsl(0.0,100%,20%)">aaronwood</text>
<text x="0.523" y="0.935" font-size="0.088516" fill="hsl(180.0,100%,20%)">brettw</text>
<text x="1.216" y="1.014" font-size="0.032108" fill="hsl(0.0,100%,20%)">paulfaria</text>
<text x="1.683" y="0.925" font-size="0.040614" fill="hsl(0.0,100%,20%)">tmandry</text>
<text x="1.174" y="0.635" font-size="0.084950" fill="hsl(180.0,100%,20%)">phosek</text>
<text x="1.631" y="0.738" font-size="0.028718" fill="hsl(0.0,100%,20%)">bwb</text>
<text x="0.214" y="0.650" font-size="0.014359" fill="hsl(180.0,100%,20%)">sdefresne</text>
<text x="0.455" y="0.815" font-size="0.087343" fill="hsl(180.0,100%,20%)">scottmg</text>
<text x="0.505" y="0.686" font-size="0.043077" fill="hsl(180.0,100%,20%)">thakis</text>
<text x="0.975" y="0.994" font-size="0.062590" fill="hsl(180.0,100%,20%)">digit</text>
<text x="1.392" y="0.560" font-size="0.037991" fill="hsl(180.0,100%,20%)">dpranke</text>
<text x="0.760" y="0.779" font-size="0.040614" fill="hsl(180.0,100%,20%)">rjascani</text>
<text x="0.184" y="0.868" font-size="0.035173" fill="hsl(180.0,100%,20%)">shayba</text>
</svg>
