<svg width="4000" height="2000" viewBox="-0.025 -0.025 2.05 1.05" xmlns="http://www.w3.org/2000/svg">
  <style>
    path {
      fill: none;
      stroke-linecap: round;
      stroke-opacity: 0.4;
    }

    text {
      text-anchor: middle;
      alignment-baseline: hanging;
    }
  </style>
  <g opacity="0.4">
<path d="M1.936 0.635 Q1.693 0.301 0.986 0.346" stroke="hsl(0.0,100%,35%)" stroke-width="0.00620"></path>
<path d="M1.936 0.635 Q2.015 0.577 1.919 0.525" stroke="hsl(0.0,100%,35%)" stroke-width="0.03100"></path>
<path d="M1.936 0.635 Q1.701 0.549 1.482 0.645" stroke="hsl(0.0,100%,35%)" stroke-width="0.00620"></path>
<path d="M1.936 0.635 Q1.908 0.531 1.698 0.522" stroke="hsl(0.0,100%,35%)" stroke-width="0.00620"></path>
<path d="M0.986 0.346 Q0.859 0.231 0.607 0.268" stroke="hsl(0.0,100%,35%)" stroke-width="0.00620"></path>
<path d="M0.986 0.346 Q1.309 0.622 1.919 0.525" stroke="hsl(0.0,100%,35%)" stroke-width="0.01240"></path>
<path d="M0.986 0.346 Q0.550 0.317 0.399 0.524" stroke="hsl(0.0,100%,35%)" stroke-width="0.01860"></path>
<path d="M1.919 0.525 Q1.596 0.249 0.986 0.346" stroke="hsl(0.0,100%,35%)" stroke-width="0.02480"></path>
<path d="M1.919 0.525 Q1.160 0.221 0.399 0.524" stroke="hsl(0.0,100%,35%)" stroke-width="0.00620"></path>
<path d="M1.919 0.525 Q2.002 0.408 1.791 0.341" stroke="hsl(0.0,100%,35%)" stroke-width="0.00620"></path>
<path d="M0.607 0.268 Q0.734 0.383 0.986 0.346" stroke="hsl(0.0,100%,35%)" stroke-width="0.08061"></path>
<path d="M0.607 0.268 Q1.057 0.659 1.919 0.525" stroke="hsl(0.0,100%,35%)" stroke-width="0.03720"></path>
<path d="M0.607 0.268 Q0.256 0.750 1.120 1.027" stroke="hsl(0.0,100%,35%)" stroke-width="0.00620"></path>
<path d="M0.607 0.268 Q0.298 0.354 0.399 0.524" stroke="hsl(0.0,100%,35%)" stroke-width="0.00620"></path>
<path d="M1.120 1.027 Q1.598 0.660 0.986 0.346" stroke="hsl(0.0,100%,35%)" stroke-width="0.03100"></path>
<path d="M1.120 1.027 Q1.921 0.936 1.919 0.525" stroke="hsl(0.0,100%,35%)" stroke-width="0.01860"></path>
<path d="M1.120 1.027 Q1.471 0.545 0.607 0.268" stroke="hsl(0.0,100%,35%)" stroke-width="0.00620"></path>
<path d="M1.120 1.027 Q1.341 0.983 1.303 0.865" stroke="hsl(0.0,100%,35%)" stroke-width="0.00620"></path>
</g>
<text x="1.936" y="0.607" font-size="0.056011" fill="hsl(0.0,100%,20%)">aaronwood</text>
<text x="0.986" y="0.293" font-size="0.106642" fill="hsl(0.0,100%,20%)">tikuta</text>
<text x="1.919" y="0.479" font-size="0.092884" fill="hsl(0.0,100%,20%)">brettw</text>
<text x="1.482" y="0.635" font-size="0.019803" fill="hsl(0.0,100%,20%)">computerdruid</text>
<text x="1.698" y="0.512" font-size="0.019803" fill="hsl(0.0,100%,20%)">tmandry</text>
<text x="0.399" y="0.502" font-size="0.044281" fill="hsl(0.0,100%,20%)">phosek</text>
<text x="1.791" y="0.331" font-size="0.019803" fill="hsl(0.0,100%,20%)">thakis</text>
<text x="0.607" y="0.220" font-size="0.094972" fill="hsl(0.0,100%,20%)">digit</text>
<text x="1.120" y="0.995" font-size="0.065679" fill="hsl(0.0,100%,20%)">sdefresne</text>
<text x="1.303" y="0.855" font-size="0.019803" fill="hsl(0.0,100%,20%)">justincohen</text>
</svg>
