<svg width="4000" height="2000" viewBox="-0.025 -0.025 2.05 1.05" xmlns="http://www.w3.org/2000/svg">
  <style>
    path {
      fill: none;
      stroke-linecap: round;
      stroke-opacity: 0.4;
    }

    text {
      text-anchor: middle;
      alignment-baseline: hanging;
    }
  </style>
  <g opacity="0.4">
<path d="M0.402 0.415 Q0.275 0.592 0.593 0.693" stroke="hsl(0.0,100%,35%)" stroke-width="0.00494"></path>
<path d="M0.402 0.415 Q0.643 0.420 0.706 0.303" stroke="hsl(0.0,100%,35%)" stroke-width="0.00494"></path>
<path d="M0.402 0.415 Q0.185 0.698 0.689 0.866" stroke="hsl(0.0,100%,35%)" stroke-width="0.00494"></path>
<path d="M0.593 0.693 Q0.502 0.799 0.689 0.866" stroke="hsl(0.0,100%,35%)" stroke-width="0.01482"></path>
<path d="M0.593 0.693 Q0.914 0.876 1.341 0.759" stroke="hsl(0.0,100%,35%)" stroke-width="0.04445"></path>
<path d="M0.593 0.693 Q1.032 0.768 1.275 0.570" stroke="hsl(0.0,100%,35%)" stroke-width="0.00494"></path>
<path d="M0.689 0.866 Q1.100 0.943 1.341 0.759" stroke="hsl(0.0,100%,35%)" stroke-width="0.00988"></path>
<path d="M0.689 0.866 Q0.779 0.760 0.593 0.693" stroke="hsl(0.0,100%,35%)" stroke-width="0.00494"></path>
<path d="M0.689 0.866 Q0.998 0.773 0.884 0.602" stroke="hsl(0.0,100%,35%)" stroke-width="0.00494"></path>
<path d="M0.689 0.866 Q1.272 0.660 0.998 0.330" stroke="hsl(0.0,100%,35%)" stroke-width="0.00494"></path>
<path d="M1.341 0.759 Q1.460 0.651 1.275 0.570" stroke="hsl(0.0,100%,35%)" stroke-width="0.00494"></path>
<path d="M1.341 0.759 Q1.513 0.476 0.998 0.330" stroke="hsl(0.0,100%,35%)" stroke-width="0.00494"></path>
<path d="M1.341 0.759 Q0.930 0.682 0.689 0.866" stroke="hsl(0.0,100%,35%)" stroke-width="0.00988"></path>
<path d="M1.341 0.759 Q1.054 0.776 1.022 0.919" stroke="hsl(0.0,100%,35%)" stroke-width="0.00988"></path>
<path d="M1.275 0.570 Q1.156 0.678 1.341 0.759" stroke="hsl(0.0,100%,35%)" stroke-width="0.09384"></path>
<path d="M1.275 0.570 Q0.835 0.495 0.593 0.693" stroke="hsl(0.0,100%,35%)" stroke-width="0.01482"></path>
<path d="M1.275 0.570 Q0.745 0.601 0.689 0.866" stroke="hsl(0.0,100%,35%)" stroke-width="0.01976"></path>
<path d="M1.275 0.570 Q1.466 0.564 1.497 0.470" stroke="hsl(0.0,100%,35%)" stroke-width="0.00494"></path>
<path d="M1.275 0.570 Q1.328 0.395 0.998 0.330" stroke="hsl(0.0,100%,35%)" stroke-width="0.00494"></path>
<path d="M0.955 0.806 Q1.186 0.860 1.341 0.759" stroke="hsl(0.0,100%,35%)" stroke-width="0.01976"></path>
<path d="M0.955 0.806 Q1.304 0.752 1.275 0.570" stroke="hsl(0.0,100%,35%)" stroke-width="0.00988"></path>
<path d="M0.955 0.806 Q1.597 0.636 1.405 0.286" stroke="hsl(0.0,100%,35%)" stroke-width="0.00988"></path>
<path d="M1.405 0.286 Q0.994 0.510 1.341 0.759" stroke="hsl(0.0,100%,35%)" stroke-width="0.00494"></path>
<path d="M1.405 0.286 Q1.561 0.209 1.445 0.116" stroke="hsl(0.0,100%,35%)" stroke-width="0.00494"></path>
<path d="M1.405 0.286 Q0.583 0.433 0.689 0.866" stroke="hsl(0.0,100%,35%)" stroke-width="0.00988"></path>
<path d="M1.497 0.470 Q1.187 0.583 1.341 0.759" stroke="hsl(0.0,100%,35%)" stroke-width="0.01976"></path>
<path d="M1.497 0.470 Q1.359 0.300 0.998 0.330" stroke="hsl(0.0,100%,35%)" stroke-width="0.00494"></path>
<path d="M1.497 0.470 Q0.900 0.599 1.022 0.919" stroke="hsl(0.0,100%,35%)" stroke-width="0.00494"></path>
</g>
<text x="0.402" y="0.401" font-size="0.028669" fill="hsl(0.0,100%,20%)">andrewsavage</text>
<text x="0.593" y="0.658" font-size="0.070225" fill="hsl(0.0,100%,20%)">sdefresne</text>
<text x="0.706" y="0.295" font-size="0.016552" fill="hsl(0.0,100%,20%)">mcgrathr</text>
<text x="0.689" y="0.832" font-size="0.068246" fill="hsl(0.0,100%,20%)">phosek</text>
<text x="1.341" y="0.704" font-size="0.111035" fill="hsl(0.0,100%,20%)">brettw</text>
<text x="1.275" y="0.523" font-size="0.093633" fill="hsl(0.0,100%,20%)">digit</text>
<text x="0.998" y="0.314" font-size="0.033104" fill="hsl(0.0,100%,20%)">dpranke</text>
<text x="1.022" y="0.905" font-size="0.028669" fill="hsl(0.0,100%,20%)">scottmg</text>
<text x="0.955" y="0.783" font-size="0.046816" fill="hsl(0.0,100%,20%)">danakj</text>
<text x="1.405" y="0.266" font-size="0.040544" fill="hsl(0.0,100%,20%)">tmandry</text>
<text x="1.497" y="0.448" font-size="0.043793" fill="hsl(0.0,100%,20%)">thakis</text>
<text x="0.884" y="0.593" font-size="0.016552" fill="hsl(0.0,100%,20%)">iannucci</text>
<text x="1.445" y="0.108" font-size="0.016552" fill="hsl(0.0,100%,20%)">bwb</text>
</svg>
