<svg width="4000" height="2000" viewBox="-0.025 -0.025 2.05 1.05" xmlns="http://www.w3.org/2000/svg">
  <style>
    path {
      fill: none;
      stroke-linecap: round;
      stroke-opacity: 0.4;
    }

    text {
      text-anchor: middle;
      alignment-baseline: hanging;
    }
  </style>
  <g opacity="0.4">
<path d="M0.362 0.621 Q1.074 0.784 1.547 0.472" stroke="hsl(0.0,100%,35%)" stroke-width="0.00719"></path>
<path d="M0.362 0.621 Q0.715 0.663 0.875 0.501" stroke="hsl(0.0,100%,35%)" stroke-width="0.01437"></path>
<path d="M0.362 0.621 Q0.771 0.502 0.627 0.276" stroke="hsl(0.0,100%,35%)" stroke-width="0.00719"></path>
<path d="M1.547 0.472 Q1.244 0.190 0.627 0.276" stroke="hsl(0.0,100%,35%)" stroke-width="0.01437"></path>
<path d="M1.547 0.472 Q1.429 0.531 1.518 0.602" stroke="hsl(0.0,100%,35%)" stroke-width="0.00719"></path>
<path d="M1.547 0.472 Q0.879 0.520 0.827 0.857" stroke="hsl(0.0,100%,35%)" stroke-width="0.00719"></path>
<path d="M0.875 0.501 Q1.115 0.680 1.518 0.602" stroke="hsl(0.0,100%,35%)" stroke-width="0.02875"></path>
<path d="M0.875 0.501 Q0.930 0.339 0.627 0.276" stroke="hsl(0.0,100%,35%)" stroke-width="0.05031"></path>
<path d="M0.875 0.501 Q1.086 0.464 1.061 0.353" stroke="hsl(0.0,100%,35%)" stroke-width="0.00719"></path>
<path d="M0.875 0.501 Q0.566 0.669 0.827 0.857" stroke="hsl(0.0,100%,35%)" stroke-width="0.00719"></path>
<path d="M0.333 0.429 Q0.237 0.742 0.827 0.857" stroke="hsl(0.0,100%,35%)" stroke-width="0.01437"></path>
<path d="M0.333 0.429 Q0.547 0.573 0.875 0.501" stroke="hsl(0.0,100%,35%)" stroke-width="0.02156"></path>
<path d="M0.333 0.429 Q0.602 0.412 0.627 0.276" stroke="hsl(0.0,100%,35%)" stroke-width="0.00719"></path>
<path d="M0.333 0.429 Q0.436 0.584 0.760 0.567" stroke="hsl(0.0,100%,35%)" stroke-width="0.00719"></path>
<path d="M1.061 0.353 Q0.906 0.228 0.627 0.276" stroke="hsl(0.0,100%,35%)" stroke-width="0.05031"></path>
<path d="M1.061 0.353 Q0.850 0.390 0.875 0.501" stroke="hsl(0.0,100%,35%)" stroke-width="0.02875"></path>
<path d="M1.061 0.353 Q0.541 0.558 0.827 0.857" stroke="hsl(0.0,100%,35%)" stroke-width="0.00719"></path>
<path d="M1.276 0.437 Q1.024 0.389 0.875 0.501" stroke="hsl(0.0,100%,35%)" stroke-width="0.01437"></path>
<path d="M1.276 0.437 Q0.715 0.557 0.827 0.857" stroke="hsl(0.0,100%,35%)" stroke-width="0.00719"></path>
<path d="M1.276 0.437 Q1.235 0.352 1.061 0.353" stroke="hsl(0.0,100%,35%)" stroke-width="0.00719"></path>
</g>
<text x="0.362" y="0.600" font-size="0.042640" fill="hsl(0.0,100%,20%)">aaronwood</text>
<text x="1.547" y="0.448" font-size="0.047673" fill="hsl(0.0,100%,20%)">dpranke</text>
<text x="0.875" y="0.448" font-size="0.104447" fill="hsl(0.0,100%,20%)">tikuta</text>
<text x="0.627" y="0.231" font-size="0.090453" fill="hsl(0.0,100%,20%)">digit</text>
<text x="0.333" y="0.401" font-size="0.056408" fill="hsl(0.0,100%,20%)">danakj</text>
<text x="0.827" y="0.831" font-size="0.052223" fill="hsl(0.0,100%,20%)">brettw</text>
<text x="0.760" y="0.556" font-size="0.021320" fill="hsl(0.0,100%,20%)">tmandry</text>
<text x="1.518" y="0.578" font-size="0.047673" fill="hsl(0.0,100%,20%)">phosek</text>
<text x="1.061" y="0.313" font-size="0.079772" fill="hsl(0.0,100%,20%)">sdefresne</text>
<text x="1.276" y="0.415" font-size="0.042640" fill="hsl(0.0,100%,20%)">thakis</text>
</svg>
