<svg width="4000" height="2000" viewBox="-0.025 -0.025 2.05 1.05" xmlns="http://www.w3.org/2000/svg">
  <style>
    path {
      fill: none;
      stroke-linecap: round;
      stroke-opacity: 0.4;
    }

    text {
      text-anchor: middle;
      alignment-baseline: hanging;
    }
  </style>
  <g opacity="0.4">
<path d="M0.808 0.983 Q1.781 0.908 1.849 0.418" stroke="hsl(0.0,100%,35%)" stroke-width="0.00622"></path>
<path d="M0.808 0.983 Q0.945 0.888 0.790 0.800" stroke="hsl(0.0,100%,35%)" stroke-width="0.00311"></path>
<path d="M0.808 0.983 Q1.423 1.092 1.772 0.817" stroke="hsl(0.0,100%,35%)" stroke-width="0.00311"></path>
<path d="M0.808 0.983 Q1.019 1.012 1.122 0.916" stroke="hsl(0.0,100%,35%)" stroke-width="0.00622"></path>
<path d="M0.808 0.983 Q1.914 0.799 1.799 0.220" stroke="hsl(0.0,100%,35%)" stroke-width="0.00311"></path>
<path d="M1.849 0.418 Q1.304 0.486 1.318 0.767" stroke="hsl(0.0,100%,35%)" stroke-width="0.00932"></path>
<path d="M1.849 0.418 Q1.087 0.521 1.122 0.916" stroke="hsl(0.0,100%,35%)" stroke-width="0.01243"></path>
<path d="M1.849 0.418 Q1.580 0.430 1.545 0.565" stroke="hsl(0.0,100%,35%)" stroke-width="0.00311"></path>
<path d="M1.849 0.418 Q1.983 0.309 1.799 0.220" stroke="hsl(0.0,100%,35%)" stroke-width="0.00622"></path>
<path d="M1.849 0.418 Q1.750 0.485 1.860 0.548" stroke="hsl(0.0,100%,35%)" stroke-width="0.00311"></path>
<path d="M1.772 0.817 Q1.367 0.736 1.122 0.916" stroke="hsl(0.0,100%,35%)" stroke-width="0.01554"></path>
<path d="M1.772 0.817 Q2.129 0.633 1.849 0.418" stroke="hsl(0.0,100%,35%)" stroke-width="0.01243"></path>
<path d="M1.772 0.817 Q1.584 0.701 1.318 0.767" stroke="hsl(0.0,100%,35%)" stroke-width="0.01243"></path>
<path d="M1.772 0.817 Q2.263 0.524 1.799 0.220" stroke="hsl(0.0,100%,35%)" stroke-width="0.00311"></path>
<path d="M1.122 0.916 Q1.339 0.881 1.318 0.767" stroke="hsl(0.0,100%,35%)" stroke-width="0.02176"></path>
<path d="M1.122 0.916 Q1.884 0.812 1.849 0.418" stroke="hsl(0.0,100%,35%)" stroke-width="0.02797"></path>
<path d="M1.122 0.916 Q1.526 0.996 1.772 0.817" stroke="hsl(0.0,100%,35%)" stroke-width="0.00622"></path>
<path d="M1.799 0.220 Q1.120 0.397 1.318 0.767" stroke="hsl(0.0,100%,35%)" stroke-width="0.01243"></path>
<path d="M1.799 0.220 Q0.903 0.432 1.122 0.916" stroke="hsl(0.0,100%,35%)" stroke-width="0.00932"></path>
<path d="M1.799 0.220 Q1.666 0.329 1.849 0.418" stroke="hsl(0.0,100%,35%)" stroke-width="0.06838"></path>
<path d="M1.799 0.220 Q1.308 0.513 1.772 0.817" stroke="hsl(0.0,100%,35%)" stroke-width="0.04352"></path>
<path d="M1.799 0.220 Q1.178 0.157 0.920 0.446" stroke="hsl(0.0,100%,35%)" stroke-width="0.00622"></path>
<path d="M1.799 0.220 Q1.396 0.341 1.545 0.565" stroke="hsl(0.0,100%,35%)" stroke-width="0.00311"></path>
<path d="M1.799 0.220 Q1.567 0.396 1.860 0.548" stroke="hsl(0.0,100%,35%)" stroke-width="0.00311"></path>
<path d="M0.279 0.563 Q1.180 0.804 1.849 0.418" stroke="hsl(0.0,100%,35%)" stroke-width="0.00311"></path>
<path d="M0.279 0.563 Q0.823 0.988 1.772 0.817" stroke="hsl(0.0,100%,35%)" stroke-width="0.00311"></path>
<path d="M0.279 0.563 Q0.219 0.635 0.346 0.680" stroke="hsl(0.0,100%,35%)" stroke-width="0.00311"></path>
<path d="M0.279 0.563 Q0.635 0.873 1.318 0.767" stroke="hsl(0.0,100%,35%)" stroke-width="0.00311"></path>
<path d="M0.920 0.446 Q1.407 0.618 1.849 0.418" stroke="hsl(0.0,100%,35%)" stroke-width="0.01554"></path>
<path d="M0.920 0.446 Q0.572 0.597 0.790 0.800" stroke="hsl(0.0,100%,35%)" stroke-width="0.00932"></path>
<path d="M0.920 0.446 Q1.541 0.509 1.799 0.220" stroke="hsl(0.0,100%,35%)" stroke-width="0.00622"></path>
<path d="M1.373 0.323 Q1.535 0.466 1.849 0.418" stroke="hsl(0.0,100%,35%)" stroke-width="0.00932"></path>
<path d="M1.373 0.323 Q1.178 0.650 1.772 0.817" stroke="hsl(0.0,100%,35%)" stroke-width="0.00311"></path>
<path d="M1.373 0.323 Q0.773 0.569 1.122 0.916" stroke="hsl(0.0,100%,35%)" stroke-width="0.00311"></path>
</g>
<text x="0.808" y="0.965" font-size="0.034740" fill="hsl(0.0,100%,20%)">aaronwood</text>
<text x="1.849" y="0.368" font-size="0.099134" fill="hsl(0.0,100%,20%)">brettw</text>
<text x="0.790" y="0.787" font-size="0.026261" fill="hsl(0.0,100%,20%)">tmandry</text>
<text x="1.772" y="0.779" font-size="0.075430" fill="hsl(0.0,100%,20%)">sdefresne</text>
<text x="1.122" y="0.878" font-size="0.075430" fill="hsl(0.0,100%,20%)">tikuta</text>
<text x="1.799" y="0.172" font-size="0.095593" fill="hsl(0.0,100%,20%)">digit</text>
<text x="0.279" y="0.550" font-size="0.026261" fill="hsl(0.0,100%,20%)">andrewsavage</text>
<text x="0.346" y="0.673" font-size="0.013131" fill="hsl(0.0,100%,20%)">mcgrathr</text>
<text x="1.318" y="0.739" font-size="0.057235" fill="hsl(0.0,100%,20%)">phosek</text>
<text x="1.545" y="0.555" font-size="0.018570" fill="hsl(0.0,100%,20%)">thakis</text>
<text x="1.860" y="0.539" font-size="0.018570" fill="hsl(0.0,100%,20%)">dpranke</text>
<text x="0.920" y="0.423" font-size="0.045486" fill="hsl(0.0,100%,20%)">danakj</text>
<text x="1.373" y="0.309" font-size="0.029361" fill="hsl(0.0,100%,20%)">mfarazma</text>
</svg>
