<svg width="4000" height="2000" viewBox="-0.025 -0.025 2.05 1.05" xmlns="http://www.w3.org/2000/svg">
  <style>
    path {
      fill: none;
      stroke-linecap: round;
      stroke-opacity: 0.4;
    }

    text {
      text-anchor: middle;
      alignment-baseline: hanging;
    }
  </style>
  <g opacity="0.4">
<path d="M0.940 0.649 Q1.028 0.596 0.943 0.541" stroke="hsl(0.0,100%,35%)" stroke-width="0.01405"></path>
<path d="M0.940 0.649 Q0.757 0.777 0.966 0.895" stroke="hsl(0.0,100%,35%)" stroke-width="0.04919"></path>
<path d="M0.940 0.649 Q1.205 0.609 1.186 0.471" stroke="hsl(0.0,100%,35%)" stroke-width="0.02108"></path>
<path d="M1.186 0.471 Q0.737 0.639 0.966 0.895" stroke="hsl(0.0,100%,35%)" stroke-width="0.08433"></path>
<path d="M1.186 0.471 Q1.248 0.755 1.815 0.787" stroke="hsl(0.0,100%,35%)" stroke-width="0.01405"></path>
<path d="M1.186 0.471 Q1.332 0.580 1.576 0.532" stroke="hsl(0.0,100%,35%)" stroke-width="0.05622"></path>
<path d="M1.186 0.471 Q0.920 0.511 0.940 0.649" stroke="hsl(0.0,100%,35%)" stroke-width="0.00703"></path>
<path d="M1.186 0.471 Q1.038 0.567 1.193 0.660" stroke="hsl(0.0,100%,35%)" stroke-width="0.00703"></path>
<path d="M1.186 0.471 Q0.698 0.552 0.748 0.807" stroke="hsl(0.0,100%,35%)" stroke-width="0.00703"></path>
<path d="M1.186 0.471 Q1.366 0.650 1.754 0.600" stroke="hsl(0.0,100%,35%)" stroke-width="0.00703"></path>
<path d="M1.183 0.327 Q0.620 0.567 0.966 0.895" stroke="hsl(0.0,100%,35%)" stroke-width="0.02108"></path>
<path d="M1.183 0.327 Q1.216 0.508 1.576 0.532" stroke="hsl(0.0,100%,35%)" stroke-width="0.02108"></path>
<path d="M1.183 0.327 Q1.069 0.400 1.186 0.471" stroke="hsl(0.0,100%,35%)" stroke-width="0.00703"></path>
</g>
<text x="0.940" y="0.611" font-size="0.076012" fill="hsl(0.0,100%,20%)">agrieve</text>
<text x="0.943" y="0.526" font-size="0.029814" fill="hsl(0.0,100%,20%)">mcgrathr</text>
<text x="0.966" y="0.845" font-size="0.098883" fill="hsl(0.0,100%,20%)">digit</text>
<text x="1.186" y="0.413" font-size="0.115470" fill="hsl(0.0,100%,20%)">tikuta</text>
<text x="1.183" y="0.299" font-size="0.055777" fill="hsl(0.0,100%,20%)">jkim</text>
<text x="1.576" y="0.497" font-size="0.069921" fill="hsl(0.0,100%,20%)">sdefresne</text>
<text x="1.815" y="0.772" font-size="0.029814" fill="hsl(0.0,100%,20%)">phosek</text>
<text x="1.193" y="0.649" font-size="0.021082" fill="hsl(0.0,100%,20%)">dpranke</text>
<text x="0.748" y="0.797" font-size="0.021082" fill="hsl(0.0,100%,20%)">thakis</text>
<text x="1.754" y="0.590" font-size="0.021082" fill="hsl(0.0,100%,20%)">msta</text>
</svg>
