<svg width="4000" height="2000" viewBox="-0.025 -0.025 2.05 1.05" xmlns="http://www.w3.org/2000/svg">
  <style>
    path {
      fill: none;
      stroke-linecap: round;
      stroke-opacity: 0.4;
    }

    text {
      text-anchor: middle;
      alignment-baseline: hanging;
    }
  </style>
  <g opacity="0.4">
<path d="M1.908 0.713 Q1.903 0.332 1.159 0.251" stroke="hsl(0.0,100%,35%)" stroke-width="0.00095"></path>
<path d="M1.908 0.713 Q1.899 0.202 0.900 0.095" stroke="hsl(0.0,100%,35%)" stroke-width="0.00475"></path>
<path d="M1.908 0.713 Q1.484 0.308 0.600 0.426" stroke="hsl(0.0,100%,35%)" stroke-width="0.00665"></path>
<path d="M1.908 0.713 Q1.727 0.638 1.541 0.709" stroke="hsl(0.0,100%,35%)" stroke-width="0.00095"></path>
<path d="M1.908 0.713 Q1.892 0.606 1.679 0.591" stroke="hsl(0.0,100%,35%)" stroke-width="0.00760"></path>
<path d="M1.908 0.713 Q1.517 0.426 0.872 0.554" stroke="hsl(0.0,100%,35%)" stroke-width="0.00095"></path>
<path d="M1.908 0.713 Q1.776 0.180 0.708 0.128" stroke="hsl(0.0,100%,35%)" stroke-width="0.00190"></path>
<path d="M1.908 0.713 Q1.358 0.342 0.513 0.529" stroke="hsl(0.0,100%,35%)" stroke-width="0.00475"></path>
<path d="M1.908 0.713 Q1.475 0.470 0.906 0.629" stroke="hsl(0.0,100%,35%)" stroke-width="0.00095"></path>
<path d="M1.908 0.713 Q1.759 0.690 1.682 0.757" stroke="hsl(0.0,100%,35%)" stroke-width="0.00285"></path>
<path d="M1.159 0.251 Q0.740 0.227 0.600 0.426" stroke="hsl(0.0,100%,35%)" stroke-width="0.01046"></path>
<path d="M1.159 0.251 Q0.613 0.261 0.513 0.529" stroke="hsl(0.0,100%,35%)" stroke-width="0.00380"></path>
<path d="M1.159 0.251 Q1.377 0.364 1.645 0.283" stroke="hsl(0.0,100%,35%)" stroke-width="0.00190"></path>
<path d="M1.159 0.251 Q0.773 0.345 0.872 0.554" stroke="hsl(0.0,100%,35%)" stroke-width="0.00190"></path>
<path d="M1.159 0.251 Q1.290 0.326 1.465 0.278" stroke="hsl(0.0,100%,35%)" stroke-width="0.00095"></path>
<path d="M1.159 0.251 Q1.363 0.138 1.188 0.014" stroke="hsl(0.0,100%,35%)" stroke-width="0.00095"></path>
<path d="M1.159 0.251 Q1.032 0.099 0.708 0.128" stroke="hsl(0.0,100%,35%)" stroke-width="0.00380"></path>
<path d="M1.159 0.251 Q0.865 0.311 0.918 0.468" stroke="hsl(0.0,100%,35%)" stroke-width="0.00095"></path>
<path d="M1.159 0.251 Q0.652 0.324 0.684 0.588" stroke="hsl(0.0,100%,35%)" stroke-width="0.00095"></path>
<path d="M1.159 0.251 Q1.155 0.121 0.900 0.095" stroke="hsl(0.0,100%,35%)" stroke-width="0.00475"></path>
<path d="M0.900 0.095 Q0.905 0.225 1.159 0.251" stroke="hsl(0.0,100%,35%)" stroke-width="0.00855"></path>
<path d="M0.900 0.095 Q0.519 0.319 0.872 0.554" stroke="hsl(0.0,100%,35%)" stroke-width="0.00475"></path>
<path d="M0.900 0.095 Q0.486 0.200 0.600 0.426" stroke="hsl(0.0,100%,35%)" stroke-width="0.01521"></path>
<path d="M0.900 0.095 Q0.359 0.234 0.513 0.529" stroke="hsl(0.0,100%,35%)" stroke-width="0.01521"></path>
<path d="M0.900 0.095 Q0.778 0.073 0.708 0.128" stroke="hsl(0.0,100%,35%)" stroke-width="0.01996"></path>
<path d="M0.900 0.095 Q0.611 0.285 0.918 0.468" stroke="hsl(0.0,100%,35%)" stroke-width="0.00095"></path>
<path d="M0.900 0.095 Q0.934 0.141 1.033 0.135" stroke="hsl(0.0,100%,35%)" stroke-width="0.00190"></path>
<path d="M0.600 0.426 Q1.015 0.320 0.900 0.095" stroke="hsl(0.0,100%,35%)" stroke-width="0.00665"></path>
<path d="M0.600 0.426 Q0.474 0.460 0.513 0.529" stroke="hsl(0.0,100%,35%)" stroke-width="0.00380"></path>
<path d="M0.600 0.426 Q0.513 0.523 0.684 0.588" stroke="hsl(0.0,100%,35%)" stroke-width="0.00380"></path>
<path d="M0.600 0.426 Q0.893 0.298 0.708 0.128" stroke="hsl(0.0,100%,35%)" stroke-width="0.00190"></path>
<path d="M0.600 0.426 Q1.020 0.450 1.159 0.251" stroke="hsl(0.0,100%,35%)" stroke-width="0.00950"></path>
<path d="M0.600 0.426 Q0.725 0.510 0.918 0.468" stroke="hsl(0.0,100%,35%)" stroke-width="0.01711"></path>
<path d="M0.600 0.426 Q0.633 0.544 0.872 0.554" stroke="hsl(0.0,100%,35%)" stroke-width="0.00095"></path>
<path d="M0.600 0.426 Q0.890 0.448 0.997 0.312" stroke="hsl(0.0,100%,35%)" stroke-width="0.00095"></path>
<path d="M0.600 0.426 Q0.635 0.492 0.771 0.489" stroke="hsl(0.0,100%,35%)" stroke-width="0.00285"></path>
<path d="M0.600 0.426 Q0.479 0.585 0.762 0.679" stroke="hsl(0.0,100%,35%)" stroke-width="0.00095"></path>
<path d="M0.600 0.426 Q0.101 0.484 0.104 0.740" stroke="hsl(0.0,100%,35%)" stroke-width="0.00190"></path>
<path d="M0.600 0.426 Q0.438 0.374 0.301 0.441" stroke="hsl(0.0,100%,35%)" stroke-width="0.00190"></path>
<path d="M0.600 0.426 Q0.546 0.554 0.784 0.609" stroke="hsl(0.0,100%,35%)" stroke-width="0.00095"></path>
<path d="M0.600 0.426 Q1.175 0.486 1.419 0.219" stroke="hsl(0.0,100%,35%)" stroke-width="0.00095"></path>
<path d="M1.679 0.591 Q1.271 0.292 0.600 0.426" stroke="hsl(0.0,100%,35%)" stroke-width="0.00095"></path>
<path d="M1.679 0.591 Q1.547 0.674 1.682 0.757" stroke="hsl(0.0,100%,35%)" stroke-width="0.00095"></path>
<path d="M1.679 0.591 Q1.145 0.327 0.513 0.529" stroke="hsl(0.0,100%,35%)" stroke-width="0.00190"></path>
<path d="M1.679 0.591 Q1.686 0.187 0.900 0.095" stroke="hsl(0.0,100%,35%)" stroke-width="0.00190"></path>
<path d="M0.872 0.554 Q1.131 0.308 0.708 0.128" stroke="hsl(0.0,100%,35%)" stroke-width="0.00855"></path>
<path d="M0.872 0.554 Q1.254 0.330 0.900 0.095" stroke="hsl(0.0,100%,35%)" stroke-width="0.00855"></path>
<path d="M0.872 0.554 Q0.839 0.436 0.600 0.426" stroke="hsl(0.0,100%,35%)" stroke-width="0.05133"></path>
<path d="M0.872 0.554 Q0.984 0.606 1.109 0.563" stroke="hsl(0.0,100%,35%)" stroke-width="0.00190"></path>
<path d="M0.872 0.554 Q0.713 0.470 0.513 0.529" stroke="hsl(0.0,100%,35%)" stroke-width="0.00380"></path>
<path d="M0.872 0.554 Q0.751 0.533 0.684 0.588" stroke="hsl(0.0,100%,35%)" stroke-width="0.00570"></path>
<path d="M0.872 0.554 Q1.258 0.460 1.159 0.251" stroke="hsl(0.0,100%,35%)" stroke-width="0.00095"></path>
<path d="M0.872 0.554 Q1.152 0.621 1.343 0.499" stroke="hsl(0.0,100%,35%)" stroke-width="0.00285"></path>
<path d="M0.872 0.554 Q1.000 0.628 1.171 0.581" stroke="hsl(0.0,100%,35%)" stroke-width="0.00095"></path>
<path d="M0.708 0.128 Q0.835 0.280 1.159 0.251" stroke="hsl(0.0,100%,35%)" stroke-width="0.00570"></path>
<path d="M0.708 0.128 Q0.831 0.150 0.900 0.095" stroke="hsl(0.0,100%,35%)" stroke-width="0.03041"></path>
<path d="M0.708 0.128 Q0.416 0.255 0.600 0.426" stroke="hsl(0.0,100%,35%)" stroke-width="0.03422"></path>
<path d="M0.708 0.128 Q0.449 0.374 0.872 0.554" stroke="hsl(0.0,100%,35%)" stroke-width="0.01616"></path>
<path d="M0.708 0.128 Q0.290 0.289 0.513 0.529" stroke="hsl(0.0,100%,35%)" stroke-width="0.01046"></path>
<path d="M0.708 0.128 Q0.371 0.397 0.823 0.621" stroke="hsl(0.0,100%,35%)" stroke-width="0.00190"></path>
<path d="M0.708 0.128 Q0.328 0.353 0.684 0.588" stroke="hsl(0.0,100%,35%)" stroke-width="0.00190"></path>
<path d="M0.708 0.128 Q0.541 0.340 0.918 0.468" stroke="hsl(0.0,100%,35%)" stroke-width="0.00760"></path>
<path d="M0.708 0.128 Q0.691 0.637 1.682 0.757" stroke="hsl(0.0,100%,35%)" stroke-width="0.00095"></path>
<path d="M0.513 0.529 Q0.639 0.495 0.600 0.426" stroke="hsl(0.0,100%,35%)" stroke-width="0.03422"></path>
<path d="M0.513 0.529 Q1.058 0.519 1.159 0.251" stroke="hsl(0.0,100%,35%)" stroke-width="0.00855"></path>
<path d="M0.513 0.529 Q0.764 0.580 0.918 0.468" stroke="hsl(0.0,100%,35%)" stroke-width="0.02661"></path>
<path d="M0.513 0.529 Q1.054 0.389 0.900 0.095" stroke="hsl(0.0,100%,35%)" stroke-width="0.00095"></path>
<path d="M0.513 0.529 Q0.672 0.614 0.872 0.554" stroke="hsl(0.0,100%,35%)" stroke-width="0.00095"></path>
<path d="M0.513 0.529 Q1.276 0.632 1.645 0.283" stroke="hsl(0.0,100%,35%)" stroke-width="0.00095"></path>
<path d="M0.513 0.529 Q0.551 0.593 0.684 0.588" stroke="hsl(0.0,100%,35%)" stroke-width="0.00095"></path>
<path d="M0.513 0.529 Q0.674 0.561 0.771 0.489" stroke="hsl(0.0,100%,35%)" stroke-width="0.00285"></path>
<path d="M0.513 0.529 Q0.517 0.654 0.762 0.679" stroke="hsl(0.0,100%,35%)" stroke-width="0.00095"></path>
<path d="M0.513 0.529 Q0.929 0.517 0.997 0.312" stroke="hsl(0.0,100%,35%)" stroke-width="0.00095"></path>
<path d="M0.513 0.529 Q0.456 0.616 0.614 0.663" stroke="hsl(0.0,100%,35%)" stroke-width="0.00380"></path>
<path d="M0.513 0.529 Q0.596 0.655 0.860 0.642" stroke="hsl(0.0,100%,35%)" stroke-width="0.00190"></path>
<path d="M0.906 0.629 Q0.789 0.500 0.513 0.529" stroke="hsl(0.0,100%,35%)" stroke-width="0.00190"></path>
<path d="M0.906 0.629 Q1.340 0.871 1.908 0.713" stroke="hsl(0.0,100%,35%)" stroke-width="0.00095"></path>
<path d="M0.906 0.629 Q1.323 0.764 1.679 0.591" stroke="hsl(0.0,100%,35%)" stroke-width="0.00095"></path>
<path d="M0.680 0.768 Q1.329 0.476 0.900 0.095" stroke="hsl(0.0,100%,35%)" stroke-width="0.00095"></path>
<path d="M0.680 0.768 Q1.322 0.879 1.679 0.591" stroke="hsl(0.0,100%,35%)" stroke-width="0.00190"></path>
<path d="M0.680 0.768 Q0.914 0.581 0.600 0.426" stroke="hsl(0.0,100%,35%)" stroke-width="0.00950"></path>
<path d="M0.680 0.768 Q0.788 0.615 0.513 0.529" stroke="hsl(0.0,100%,35%)" stroke-width="0.00570"></path>
<path d="M0.622 0.597 Q0.748 0.507 0.600 0.426" stroke="hsl(0.0,100%,35%)" stroke-width="0.00190"></path>
<path d="M0.622 0.597 Q0.781 0.626 0.872 0.554" stroke="hsl(0.0,100%,35%)" stroke-width="0.00095"></path>
<path d="M0.622 0.597 Q0.626 0.666 0.762 0.679" stroke="hsl(0.0,100%,35%)" stroke-width="0.00095"></path>
<path d="M0.622 0.597 Q0.621 0.541 0.513 0.529" stroke="hsl(0.0,100%,35%)" stroke-width="0.00095"></path>
<path d="M0.762 0.679 Q0.757 0.554 0.513 0.529" stroke="hsl(0.0,100%,35%)" stroke-width="0.00190"></path>
<path d="M0.762 0.679 Q1.299 0.414 0.900 0.095" stroke="hsl(0.0,100%,35%)" stroke-width="0.00095"></path>
<path d="M0.762 0.679 Q1.009 0.605 0.918 0.468" stroke="hsl(0.0,100%,35%)" stroke-width="0.00095"></path>
<path d="M0.813 0.754 Q1.388 0.571 1.159 0.251" stroke="hsl(0.0,100%,35%)" stroke-width="0.00095"></path>
<path d="M0.813 0.754 Q1.384 0.442 0.900 0.095" stroke="hsl(0.0,100%,35%)" stroke-width="0.00190"></path>
<path d="M0.813 0.754 Q0.969 0.547 0.600 0.426" stroke="hsl(0.0,100%,35%)" stroke-width="0.00095"></path>
<path d="M0.813 0.754 Q1.261 0.420 0.708 0.128" stroke="hsl(0.0,100%,35%)" stroke-width="0.00095"></path>
<path d="M0.959 0.178 Q0.614 0.349 0.872 0.554" stroke="hsl(0.0,100%,35%)" stroke-width="0.00095"></path>
<path d="M0.959 0.178 Q0.996 0.124 0.900 0.095" stroke="hsl(0.0,100%,35%)" stroke-width="0.00190"></path>
<path d="M0.959 0.178 Q1.000 0.254 1.159 0.251" stroke="hsl(0.0,100%,35%)" stroke-width="0.00095"></path>
<path d="M0.684 0.588 Q1.186 0.384 0.900 0.095" stroke="hsl(0.0,100%,35%)" stroke-width="0.00190"></path>
<path d="M0.684 0.588 Q0.772 0.490 0.600 0.426" stroke="hsl(0.0,100%,35%)" stroke-width="0.02851"></path>
<path d="M0.684 0.588 Q0.805 0.609 0.872 0.554" stroke="hsl(0.0,100%,35%)" stroke-width="0.00095"></path>
<path d="M0.684 0.588 Q1.191 0.514 1.159 0.251" stroke="hsl(0.0,100%,35%)" stroke-width="0.00380"></path>
<path d="M0.684 0.588 Q0.897 0.575 0.918 0.468" stroke="hsl(0.0,100%,35%)" stroke-width="0.01426"></path>
<path d="M0.684 0.588 Q0.645 0.524 0.513 0.529" stroke="hsl(0.0,100%,35%)" stroke-width="0.00190"></path>
<path d="M0.918 0.468 Q0.793 0.383 0.600 0.426" stroke="hsl(0.0,100%,35%)" stroke-width="0.07319"></path>
<path d="M0.918 0.468 Q0.666 0.417 0.513 0.529" stroke="hsl(0.0,100%,35%)" stroke-width="0.01426"></path>
<path d="M0.918 0.468 Q1.212 0.408 1.159 0.251" stroke="hsl(0.0,100%,35%)" stroke-width="0.00950"></path>
<path d="M0.918 0.468 Q0.705 0.481 0.684 0.588" stroke="hsl(0.0,100%,35%)" stroke-width="0.00855"></path>
<path d="M0.997 0.312 Q0.708 0.289 0.600 0.426" stroke="hsl(0.0,100%,35%)" stroke-width="0.00950"></path>
<path d="M0.997 0.312 Q0.620 0.387 0.684 0.588" stroke="hsl(0.0,100%,35%)" stroke-width="0.00095"></path>
<path d="M0.997 0.312 Q1.127 0.314 1.159 0.251" stroke="hsl(0.0,100%,35%)" stroke-width="0.01711"></path>
<path d="M0.997 0.312 Q1.057 0.254 0.956 0.212" stroke="hsl(0.0,100%,35%)" stroke-width="0.00095"></path>
<path d="M0.997 0.312 Q1.233 0.368 1.395 0.266" stroke="hsl(0.0,100%,35%)" stroke-width="0.00095"></path>
<path d="M0.771 0.489 Q0.736 0.423 0.600 0.426" stroke="hsl(0.0,100%,35%)" stroke-width="0.04277"></path>
<path d="M0.771 0.489 Q0.610 0.457 0.513 0.529" stroke="hsl(0.0,100%,35%)" stroke-width="0.00190"></path>
<path d="M0.771 0.489 Q0.862 0.508 0.918 0.468" stroke="hsl(0.0,100%,35%)" stroke-width="0.00475"></path>
<path d="M0.771 0.489 Q1.026 0.446 0.997 0.312" stroke="hsl(0.0,100%,35%)" stroke-width="0.00095"></path>
<path d="M0.771 0.489 Q1.156 0.448 1.159 0.251" stroke="hsl(0.0,100%,35%)" stroke-width="0.00285"></path>
<path d="M0.771 0.489 Q0.615 0.582 0.762 0.679" stroke="hsl(0.0,100%,35%)" stroke-width="0.00095"></path>
<path d="M1.419 0.219 Q0.844 0.159 0.600 0.426" stroke="hsl(0.0,100%,35%)" stroke-width="0.00380"></path>
<path d="M1.419 0.219 Q1.263 0.183 1.159 0.251" stroke="hsl(0.0,100%,35%)" stroke-width="0.00380"></path>
<path d="M1.419 0.219 Q0.756 0.256 0.684 0.588" stroke="hsl(0.0,100%,35%)" stroke-width="0.00190"></path>
<path d="M1.419 0.219 Q0.344 0.216 0.104 0.740" stroke="hsl(0.0,100%,35%)" stroke-width="0.00095"></path>
<path d="M1.419 0.219 Q1.628 0.218 1.674 0.116" stroke="hsl(0.0,100%,35%)" stroke-width="0.00095"></path>
<path d="M1.419 0.219 Q1.531 0.123 1.368 0.047" stroke="hsl(0.0,100%,35%)" stroke-width="0.00095"></path>
<path d="M1.419 0.219 Q1.003 0.565 1.588 0.844" stroke="hsl(0.0,100%,35%)" stroke-width="0.00095"></path>
<path d="M1.419 0.219 Q0.969 0.243 0.918 0.468" stroke="hsl(0.0,100%,35%)" stroke-width="0.00095"></path>
<path d="M1.419 0.219 Q0.877 0.277 0.872 0.554" stroke="hsl(0.0,100%,35%)" stroke-width="0.00095"></path>
<path d="M1.419 0.219 Q1.259 0.053 0.900 0.095" stroke="hsl(0.0,100%,35%)" stroke-width="0.00095"></path>
<path d="M1.512 0.405 Q1.040 0.233 0.600 0.426" stroke="hsl(0.0,100%,35%)" stroke-width="0.00095"></path>
<path d="M1.512 0.405 Q1.459 0.258 1.159 0.251" stroke="hsl(0.0,100%,35%)" stroke-width="0.00095"></path>
<path d="M0.823 0.621 Q0.868 0.479 0.600 0.426" stroke="hsl(0.0,100%,35%)" stroke-width="0.00665"></path>
<path d="M0.823 0.621 Q1.283 0.373 0.900 0.095" stroke="hsl(0.0,100%,35%)" stroke-width="0.00475"></path>
<path d="M0.823 0.621 Q1.160 0.351 0.708 0.128" stroke="hsl(0.0,100%,35%)" stroke-width="0.00380"></path>
<path d="M0.823 0.621 Q1.275 0.777 1.679 0.591" stroke="hsl(0.0,100%,35%)" stroke-width="0.00380"></path>
<path d="M0.446 0.819 Q1.257 0.678 1.159 0.251" stroke="hsl(0.0,100%,35%)" stroke-width="0.00095"></path>
<path d="M0.446 0.819 Q0.338 0.711 0.104 0.740" stroke="hsl(0.0,100%,35%)" stroke-width="0.00190"></path>
<path d="M0.446 0.819 Q0.294 0.779 0.182 0.844" stroke="hsl(0.0,100%,35%)" stroke-width="0.00190"></path>
<path d="M0.446 0.819 Q0.504 0.764 0.410 0.723" stroke="hsl(0.0,100%,35%)" stroke-width="0.00095"></path>
<path d="M0.182 0.844 Q0.227 0.776 0.104 0.740" stroke="hsl(0.0,100%,35%)" stroke-width="0.00190"></path>
<path d="M0.182 0.844 Q0.308 0.826 0.300 0.761" stroke="hsl(0.0,100%,35%)" stroke-width="0.00190"></path>
<path d="M0.182 0.844 Q1.145 0.743 1.159 0.251" stroke="hsl(0.0,100%,35%)" stroke-width="0.00095"></path>
<path d="M0.182 0.844 Q0.561 0.679 0.323 0.458" stroke="hsl(0.0,100%,35%)" stroke-width="0.00095"></path>
<path d="M0.680 0.689 Q0.851 0.542 0.600 0.426" stroke="hsl(0.0,100%,35%)" stroke-width="0.00380"></path>
<path d="M0.680 0.689 Q0.885 0.607 0.771 0.489" stroke="hsl(0.0,100%,35%)" stroke-width="0.00190"></path>
<path d="M0.680 0.689 Q0.976 0.626 0.918 0.468" stroke="hsl(0.0,100%,35%)" stroke-width="0.00095"></path>
<path d="M0.475 0.553 Q0.639 0.514 0.600 0.426" stroke="hsl(0.0,100%,35%)" stroke-width="0.00380"></path>
<path d="M0.475 0.553 Q1.058 0.539 1.159 0.251" stroke="hsl(0.0,100%,35%)" stroke-width="0.00095"></path>
<path d="M0.475 0.553 Q0.764 0.599 0.918 0.468" stroke="hsl(0.0,100%,35%)" stroke-width="0.00095"></path>
<path d="M1.237 0.050 Q1.241 0.072 1.285 0.075" stroke="hsl(0.0,100%,35%)" stroke-width="0.00095"></path>
<path d="M1.237 0.050 Q0.573 0.253 0.823 0.621" stroke="hsl(0.0,100%,35%)" stroke-width="0.00095"></path>
<path d="M1.237 0.050 Q1.211 0.083 1.269 0.103" stroke="hsl(0.0,100%,35%)" stroke-width="0.00095"></path>
<path d="M1.295 0.588 Q1.370 0.241 0.708 0.128" stroke="hsl(0.0,100%,35%)" stroke-width="0.00190"></path>
<path d="M1.295 0.588 Q1.111 0.487 0.872 0.554" stroke="hsl(0.0,100%,35%)" stroke-width="0.00190"></path>
<path d="M1.295 0.588 Q1.493 0.262 0.900 0.095" stroke="hsl(0.0,100%,35%)" stroke-width="0.00095"></path>
<path d="M0.856 0.293 Q0.622 0.309 0.600 0.426" stroke="hsl(0.0,100%,35%)" stroke-width="0.00380"></path>
<path d="M0.856 0.293 Q0.747 0.393 0.918 0.468" stroke="hsl(0.0,100%,35%)" stroke-width="0.00380"></path>
<path d="M0.856 0.293 Q1.041 0.333 1.159 0.251" stroke="hsl(0.0,100%,35%)" stroke-width="0.00285"></path>
<path d="M0.140 0.115 Q0.541 0.387 1.159 0.251" stroke="hsl(0.0,100%,35%)" stroke-width="0.00095"></path>
<path d="M0.140 0.115 Q0.278 0.156 0.389 0.098" stroke="hsl(0.0,100%,35%)" stroke-width="0.00095"></path>
<path d="M0.140 0.115 Q0.181 0.206 0.366 0.206" stroke="hsl(0.0,100%,35%)" stroke-width="0.00095"></path>
<path d="M0.140 0.115 Q0.267 0.116 0.296 0.054" stroke="hsl(0.0,100%,35%)" stroke-width="0.00095"></path>
<path d="M0.069 0.291 Q0.123 0.260 0.075 0.226" stroke="hsl(180.0,100%,35%)" stroke-width="0.00285"></path>
<path d="M0.069 0.291 Q0.069 0.331 0.147 0.339" stroke="hsl(180.0,100%,35%)" stroke-width="0.00190"></path>
<path d="M0.069 0.291 Q0.221 0.304 0.279 0.232" stroke="hsl(180.0,100%,35%)" stroke-width="0.00190"></path>
<path d="M0.651 0.606 Q0.770 0.506 0.600 0.426" stroke="hsl(0.0,100%,35%)" stroke-width="0.00475"></path>
<path d="M0.651 0.606 Q1.062 0.379 0.708 0.128" stroke="hsl(0.0,100%,35%)" stroke-width="0.00095"></path>
<path d="M0.651 0.606 Q0.803 0.624 0.872 0.554" stroke="hsl(0.0,100%,35%)" stroke-width="0.00095"></path>
<path d="M0.651 0.606 Q1.185 0.400 0.900 0.095" stroke="hsl(0.0,100%,35%)" stroke-width="0.00095"></path>
<path d="M1.881 0.863 Q1.750 0.795 1.588 0.844" stroke="hsl(0.0,100%,35%)" stroke-width="0.00095"></path>
<path d="M1.881 0.863 Q1.725 0.862 1.690 0.938" stroke="hsl(0.0,100%,35%)" stroke-width="0.00095"></path>
<path d="M1.881 0.863 Q1.715 0.473 0.918 0.468" stroke="hsl(0.0,100%,35%)" stroke-width="0.00095"></path>
<path d="M1.140 0.039 Q0.561 0.124 0.600 0.426" stroke="hsl(0.0,100%,35%)" stroke-width="0.00095"></path>
<path d="M1.140 0.039 Q0.980 0.149 1.159 0.251" stroke="hsl(0.0,100%,35%)" stroke-width="0.00095"></path>
<path d="M1.140 0.039 Q1.159 0.031 1.148 0.020" stroke="hsl(0.0,100%,35%)" stroke-width="0.00095"></path>
<path d="M1.140 0.039 Q0.193 0.133 0.169 0.616" stroke="hsl(0.0,100%,35%)" stroke-width="0.00095"></path>
<path d="M1.140 0.039 Q1.200 0.076 1.285 0.054" stroke="hsl(0.0,100%,35%)" stroke-width="0.00095"></path>
<path d="M1.140 0.039 Q1.265 0.126 1.463 0.084" stroke="hsl(0.0,100%,35%)" stroke-width="0.00095"></path>
<path d="M1.140 0.039 Q1.081 0.072 1.133 0.108" stroke="hsl(0.0,100%,35%)" stroke-width="0.00095"></path>
<path d="M0.645 0.225 Q0.881 0.341 1.159 0.251" stroke="hsl(0.0,100%,35%)" stroke-width="0.00190"></path>
<path d="M0.645 0.225 Q0.462 0.316 0.600 0.426" stroke="hsl(0.0,100%,35%)" stroke-width="0.00095"></path>
<path d="M0.645 0.225 Q0.336 0.351 0.513 0.529" stroke="hsl(0.0,100%,35%)" stroke-width="0.00095"></path>
<path d="M0.645 0.225 Q0.877 0.211 0.900 0.095" stroke="hsl(0.0,100%,35%)" stroke-width="0.00190"></path>
<path d="M1.732 0.375 Q1.545 0.198 1.159 0.251" stroke="hsl(0.0,100%,35%)" stroke-width="0.00095"></path>
<path d="M1.732 0.375 Q1.840 0.410 1.933 0.365" stroke="hsl(0.0,100%,35%)" stroke-width="0.00095"></path>
<path d="M1.732 0.375 Q1.038 0.272 0.684 0.588" stroke="hsl(0.0,100%,35%)" stroke-width="0.00095"></path>
<path d="M1.191 0.513 Q0.999 0.470 0.872 0.554" stroke="hsl(0.0,100%,35%)" stroke-width="0.00190"></path>
<path d="M1.191 0.513 Q1.385 0.376 1.159 0.251" stroke="hsl(0.0,100%,35%)" stroke-width="0.00095"></path>
<path d="M1.191 0.513 Q1.516 0.451 1.465 0.278" stroke="hsl(0.0,100%,35%)" stroke-width="0.00095"></path>
<path d="M0.991 0.655 Q0.979 0.462 0.600 0.426" stroke="hsl(0.0,100%,35%)" stroke-width="0.00190"></path>
<path d="M0.991 0.655 Q0.891 0.560 0.684 0.588" stroke="hsl(0.0,100%,35%)" stroke-width="0.00095"></path>
<path d="M0.991 0.655 Q0.852 0.496 0.513 0.529" stroke="hsl(0.0,100%,35%)" stroke-width="0.00190"></path>
<path d="M0.851 0.199 Q0.456 0.360 0.684 0.588" stroke="hsl(0.0,100%,35%)" stroke-width="0.00095"></path>
<path d="M0.851 0.199 Q0.669 0.347 0.918 0.468" stroke="hsl(0.0,100%,35%)" stroke-width="0.00095"></path>
<path d="M0.851 0.199 Q0.577 0.381 0.872 0.554" stroke="hsl(0.0,100%,35%)" stroke-width="0.00095"></path>
<path d="M0.851 0.199 Q0.959 0.157 0.900 0.095" stroke="hsl(0.0,100%,35%)" stroke-width="0.00285"></path>
<path d="M0.851 0.199 Q0.963 0.286 1.159 0.251" stroke="hsl(0.0,100%,35%)" stroke-width="0.00095"></path>
<path d="M0.633 0.636 Q0.785 0.525 0.600 0.426" stroke="hsl(0.0,100%,35%)" stroke-width="0.00570"></path>
<path d="M0.633 0.636 Q1.204 0.549 1.159 0.251" stroke="hsl(0.0,100%,35%)" stroke-width="0.00095"></path>
<path d="M0.633 0.636 Q0.659 0.559 0.513 0.529" stroke="hsl(0.0,100%,35%)" stroke-width="0.00095"></path>
<path d="M1.343 0.499 Q1.449 0.338 1.159 0.251" stroke="hsl(0.0,100%,35%)" stroke-width="0.00095"></path>
<path d="M1.343 0.499 Q1.030 0.314 0.600 0.426" stroke="hsl(0.0,100%,35%)" stroke-width="0.00095"></path>
<path d="M1.343 0.499 Q1.063 0.432 0.872 0.554" stroke="hsl(0.0,100%,35%)" stroke-width="0.00095"></path>
<path d="M1.343 0.499 Q1.155 0.398 0.918 0.468" stroke="hsl(0.0,100%,35%)" stroke-width="0.00095"></path>
<path d="M1.343 0.499 Q0.942 0.411 0.684 0.588" stroke="hsl(0.0,100%,35%)" stroke-width="0.00095"></path>
<path d="M1.487 0.174 Q0.843 0.123 0.600 0.426" stroke="hsl(0.0,100%,35%)" stroke-width="0.00095"></path>
<path d="M1.487 0.174 Q1.418 0.183 1.419 0.219" stroke="hsl(0.0,100%,35%)" stroke-width="0.00095"></path>
<path d="M1.487 0.174 Q1.262 0.147 1.159 0.251" stroke="hsl(0.0,100%,35%)" stroke-width="0.00095"></path>
<path d="M1.103 0.574 Q0.971 0.400 0.600 0.426" stroke="hsl(0.0,100%,35%)" stroke-width="0.00380"></path>
<path d="M1.103 0.574 Q1.263 0.272 0.708 0.128" stroke="hsl(0.0,100%,35%)" stroke-width="0.00095"></path>
<path d="M1.103 0.574 Q0.844 0.434 0.513 0.529" stroke="hsl(0.0,100%,35%)" stroke-width="0.00190"></path>
<path d="M1.103 0.574 Q1.096 0.484 0.918 0.468" stroke="hsl(0.0,100%,35%)" stroke-width="0.00095"></path>
<path d="M0.059 0.482 Q0.007 0.571 0.169 0.616" stroke="hsl(0.0,100%,35%)" stroke-width="0.00095"></path>
<path d="M0.059 0.482 Q0.210 0.523 0.323 0.458" stroke="hsl(0.0,100%,35%)" stroke-width="0.00095"></path>
<path d="M0.059 0.482 Q-0.002 0.592 0.200 0.646" stroke="hsl(0.0,100%,35%)" stroke-width="0.00095"></path>
<path d="M0.896 0.246 Q1.179 0.337 1.419 0.219" stroke="hsl(0.0,100%,35%)" stroke-width="0.00095"></path>
<path d="M0.896 0.246 Q1.024 0.301 1.159 0.251" stroke="hsl(0.0,100%,35%)" stroke-width="0.00095"></path>
<path d="M0.896 0.246 Q0.897 0.149 0.708 0.128" stroke="hsl(0.0,100%,35%)" stroke-width="0.00095"></path>
<path d="M0.896 0.246 Q1.019 0.171 0.900 0.095" stroke="hsl(0.0,100%,35%)" stroke-width="0.00095"></path>
<path d="M1.221 0.571 Q0.901 0.408 0.513 0.529" stroke="hsl(0.0,100%,35%)" stroke-width="0.00095"></path>
<path d="M1.221 0.571 Q1.160 0.549 1.103 0.574" stroke="hsl(0.0,100%,35%)" stroke-width="0.00095"></path>
<path d="M1.221 0.571 Q1.027 0.374 0.600 0.426" stroke="hsl(0.0,100%,35%)" stroke-width="0.00095"></path>
<path d="M1.221 0.571 Q1.062 0.440 0.771 0.489" stroke="hsl(0.0,100%,35%)" stroke-width="0.00095"></path>
<path d="M0.501 0.270 Q0.426 0.368 0.600 0.426" stroke="hsl(0.0,100%,35%)" stroke-width="0.00190"></path>
<path d="M0.501 0.270 Q0.845 0.392 1.159 0.251" stroke="hsl(0.0,100%,35%)" stroke-width="0.00190"></path>
<path d="M0.501 0.270 Q0.609 0.277 0.645 0.225" stroke="hsl(0.0,100%,35%)" stroke-width="0.00190"></path>
<path d="M0.501 0.270 Q0.583 0.162 0.389 0.098" stroke="hsl(0.0,100%,35%)" stroke-width="0.00095"></path>
<path d="M0.501 0.270 Q0.485 0.211 0.366 0.206" stroke="hsl(0.0,100%,35%)" stroke-width="0.00095"></path>
<path d="M0.501 0.270 Q0.264 0.316 0.301 0.441" stroke="hsl(0.0,100%,35%)" stroke-width="0.00095"></path>
<path d="M0.501 0.270 Q0.339 0.466 0.684 0.588" stroke="hsl(0.0,100%,35%)" stroke-width="0.00095"></path>
<path d="M1.965 0.464 Q1.314 0.172 0.600 0.426" stroke="hsl(0.0,100%,35%)" stroke-width="0.00095"></path>
<path d="M1.965 0.464 Q1.733 0.196 1.159 0.251" stroke="hsl(0.0,100%,35%)" stroke-width="0.00095"></path>
<path d="M1.965 0.464 Q1.863 0.493 1.897 0.549" stroke="hsl(0.0,100%,35%)" stroke-width="0.00095"></path>
</g>
<text x="1.908" y="0.700" font-size="0.026864" fill="hsl(0.0,100%,20%)">aaronwood</text>
<text x="1.159" y="0.225" font-size="0.051773" fill="hsl(0.0,100%,20%)">dpranke</text>
<text x="0.900" y="0.067" font-size="0.056166" fill="hsl(0.0,100%,20%)">tikuta</text>
<text x="0.600" y="0.378" font-size="0.095464" fill="hsl(0.0,100%,20%)">brettw</text>
<text x="1.541" y="0.707" font-size="0.004541" fill="hsl(0.0,100%,20%)">computerdruid</text>
<text x="1.679" y="0.580" font-size="0.020808" fill="hsl(0.0,100%,20%)">tmandry</text>
<text x="0.872" y="0.529" font-size="0.051172" fill="hsl(0.0,100%,20%)">sdefresne</text>
<text x="0.708" y="0.099" font-size="0.057973" fill="hsl(0.0,100%,20%)">digit</text>
<text x="0.513" y="0.499" font-size="0.059378" fill="hsl(0.0,100%,20%)">phosek</text>
<text x="0.906" y="0.624" font-size="0.010153" fill="hsl(0.0,100%,20%)">paulfaria</text>
<text x="1.682" y="0.752" font-size="0.010153" fill="hsl(0.0,100%,20%)">bwb</text>
<text x="0.680" y="0.758" font-size="0.019793" fill="hsl(0.0,100%,20%)">adetaylor</text>
<text x="0.622" y="0.592" font-size="0.010153" fill="hsl(0.0,100%,20%)">andrewsavage</text>
<text x="0.762" y="0.673" font-size="0.012843" fill="hsl(0.0,100%,20%)">mcgrathr</text>
<text x="0.813" y="0.749" font-size="0.010153" fill="hsl(0.0,100%,20%)">baghdadi</text>
<text x="0.959" y="0.173" font-size="0.009082" fill="hsl(0.0,100%,20%)">bpastene</text>
<text x="0.684" y="0.567" font-size="0.041864" fill="hsl(0.0,100%,20%)">thakis</text>
<text x="0.918" y="0.436" font-size="0.064055" fill="hsl(0.0,100%,20%)">scottmg</text>
<text x="0.997" y="0.299" font-size="0.026477" fill="hsl(0.0,100%,20%)">thomasanderson</text>
<text x="0.771" y="0.471" font-size="0.036889" fill="hsl(0.0,100%,20%)">juliehockett</text>
<text x="0.104" y="0.734" font-size="0.012014" fill="hsl(0.0,100%,20%)">dcheng</text>
<text x="0.301" y="0.437" font-size="0.007865" fill="hsl(0.0,100%,20%)">wfh</text>
<text x="0.784" y="0.606" font-size="0.004541" fill="hsl(0.0,100%,20%)">rockot</text>
<text x="1.419" y="0.209" font-size="0.020307" fill="hsl(0.0,100%,20%)">brucedawson</text>
<text x="1.674" y="0.114" font-size="0.004541" fill="hsl(0.0,100%,20%)">jam</text>
<text x="1.368" y="0.044" font-size="0.004541" fill="hsl(0.0,100%,20%)">mef</text>
<text x="1.588" y="0.841" font-size="0.006422" fill="hsl(0.0,100%,20%)">sky</text>
<text x="1.512" y="0.402" font-size="0.006422" fill="hsl(0.0,100%,20%)">bungeman</text>
<text x="0.823" y="0.610" font-size="0.021777" fill="hsl(0.0,100%,20%)">danakj</text>
<text x="1.645" y="0.279" font-size="0.007865" fill="hsl(0.0,100%,20%)">iannucci</text>
<text x="1.465" y="0.275" font-size="0.006422" fill="hsl(0.0,100%,20%)">liaoyuke</text>
<text x="1.188" y="0.012" font-size="0.004541" fill="hsl(0.0,100%,20%)">smut</text>
<text x="0.446" y="0.813" font-size="0.011123" fill="hsl(0.0,100%,20%)">erikchen</text>
<text x="0.182" y="0.838" font-size="0.012843" fill="hsl(0.0,100%,20%)">ssid</text>
<text x="0.410" y="0.721" font-size="0.004541" fill="hsl(0.0,100%,20%)">haraken</text>
<text x="0.680" y="0.683" font-size="0.012014" fill="hsl(0.0,100%,20%)">haowei</text>
<text x="0.475" y="0.547" font-size="0.011123" fill="hsl(0.0,100%,20%)">jamesr</text>
<text x="1.237" y="0.046" font-size="0.007865" fill="hsl(0.0,100%,20%)">jbroman</text>
<text x="1.285" y="0.073" font-size="0.004541" fill="hsl(0.0,100%,20%)">dalecurtis</text>
<text x="1.269" y="0.101" font-size="0.004541" fill="hsl(0.0,100%,20%)">tzik</text>
<text x="1.295" y="0.583" font-size="0.010153" fill="hsl(0.0,100%,20%)">jkim</text>
<text x="0.856" y="0.286" font-size="0.015060" fill="hsl(0.0,100%,20%)">joearmstrong334</text>
<text x="0.140" y="0.111" font-size="0.009082" fill="hsl(0.0,100%,20%)">jyan</text>
<text x="0.389" y="0.095" font-size="0.006422" fill="hsl(0.0,100%,20%)">mark</text>
<text x="0.366" y="0.202" font-size="0.006422" fill="hsl(0.0,100%,20%)">palmer</text>
<text x="0.296" y="0.052" font-size="0.004541" fill="hsl(0.0,100%,20%)">scroggo</text>
<text x="0.069" y="0.285" font-size="0.012014" fill="hsl(180.0,100%,20%)">lizeb</text>
<text x="0.075" y="0.222" font-size="0.007865" fill="hsl(180.0,100%,20%)">mattcary</text>
<text x="0.147" y="0.336" font-size="0.006422" fill="hsl(180.0,100%,20%)">agrieve</text>
<text x="0.279" y="0.229" font-size="0.006422" fill="hsl(180.0,100%,20%)">pasko</text>
<text x="0.651" y="0.600" font-size="0.012843" fill="hsl(0.0,100%,20%)">mfarazma</text>
<text x="1.881" y="0.859" font-size="0.007865" fill="hsl(0.0,100%,20%)">michaelpg</text>
<text x="1.690" y="0.935" font-size="0.004541" fill="hsl(0.0,100%,20%)">xhwang</text>
<text x="1.140" y="0.033" font-size="0.012014" fill="hsl(0.0,100%,20%)">msimonides</text>
<text x="1.148" y="0.018" font-size="0.004541" fill="hsl(0.0,100%,20%)">grt</text>
<text x="0.169" y="0.613" font-size="0.006422" fill="hsl(0.0,100%,20%)">jochen</text>
<text x="1.285" y="0.052" font-size="0.004541" fill="hsl(0.0,100%,20%)">pkasting</text>
<text x="1.463" y="0.082" font-size="0.004541" fill="hsl(0.0,100%,20%)">reveman</text>
<text x="1.133" y="0.106" font-size="0.004541" fill="hsl(0.0,100%,20%)">yzshen</text>
<text x="0.645" y="0.219" font-size="0.012843" fill="hsl(0.0,100%,20%)">pcc</text>
<text x="1.732" y="0.371" font-size="0.007865" fill="hsl(0.0,100%,20%)">pennymac</text>
<text x="1.933" y="0.363" font-size="0.004541" fill="hsl(0.0,100%,20%)">mmoroz</text>
<text x="1.191" y="0.509" font-size="0.009082" fill="hsl(0.0,100%,20%)">peterhanspers</text>
<text x="0.614" y="0.658" font-size="0.009082" fill="hsl(0.0,100%,20%)">vadimsh</text>
<text x="0.860" y="0.639" font-size="0.006422" fill="hsl(0.0,100%,20%)">tandrii</text>
<text x="0.991" y="0.650" font-size="0.010153" fill="hsl(0.0,100%,20%)">raphael.kubo.da.costa</text>
<text x="0.851" y="0.193" font-size="0.012014" fill="hsl(0.0,100%,20%)">ribalda</text>
<text x="0.633" y="0.630" font-size="0.012843" fill="hsl(0.0,100%,20%)">rjascani</text>
<text x="1.343" y="0.492" font-size="0.012843" fill="hsl(0.0,100%,20%)">rsesek</text>
<text x="1.487" y="0.170" font-size="0.007865" fill="hsl(0.0,100%,20%)">samogot</text>
<text x="1.109" y="0.559" font-size="0.006422" fill="hsl(0.0,100%,20%)">justincohen</text>
<text x="1.171" y="0.579" font-size="0.004541" fill="hsl(0.0,100%,20%)">noyau</text>
<text x="1.103" y="0.567" font-size="0.013622" fill="hsl(0.0,100%,20%)">shayba</text>
<text x="0.059" y="0.478" font-size="0.007865" fill="hsl(0.0,100%,20%)">skyostil</text>
<text x="0.323" y="0.455" font-size="0.006422" fill="hsl(0.0,100%,20%)">primiano</text>
<text x="0.200" y="0.644" font-size="0.004541" fill="hsl(0.0,100%,20%)">tdresser</text>
<text x="0.300" y="0.757" font-size="0.006422" fill="hsl(0.0,100%,20%)">xunjieli</text>
<text x="0.956" y="0.210" font-size="0.004541" fill="hsl(0.0,100%,20%)">fdoray</text>
<text x="1.395" y="0.263" font-size="0.004541" fill="hsl(0.0,100%,20%)">thestig</text>
<text x="1.033" y="0.132" font-size="0.006422" fill="hsl(0.0,100%,20%)">philwo</text>
<text x="0.896" y="0.242" font-size="0.009082" fill="hsl(0.0,100%,20%)">tmoniuszko</text>
<text x="1.221" y="0.567" font-size="0.009082" fill="hsl(0.0,100%,20%)">tsniatowski</text>
<text x="0.501" y="0.263" font-size="0.014359" fill="hsl(0.0,100%,20%)">vtsyrklevich</text>
<text x="1.965" y="0.461" font-size="0.007865" fill="hsl(0.0,100%,20%)">wangqing-hf</text>
<text x="1.897" y="0.547" font-size="0.004541" fill="hsl(0.0,100%,20%)">machenbach</text>
</svg>
