<svg width="4000" height="2000" viewBox="-0.025 -0.025 2.05 1.05" xmlns="http://www.w3.org/2000/svg">
  <style>
    path {
      fill: none;
      stroke-linecap: round;
      stroke-opacity: 0.4;
    }

    text {
      text-anchor: middle;
      alignment-baseline: hanging;
    }
  </style>
  <g opacity="0.4">
<path d="M0.642 0.334 Q0.761 0.326 0.770 0.266" stroke="hsl(0.0,100%,35%)" stroke-width="0.00093"></path>
<path d="M0.642 0.334 Q0.191 0.389 0.200 0.621" stroke="hsl(0.0,100%,35%)" stroke-width="0.00093"></path>
<path d="M0.642 0.334 Q0.858 0.580 1.385 0.528" stroke="hsl(0.0,100%,35%)" stroke-width="0.00093"></path>
<path d="M0.642 0.334 Q0.455 0.328 0.402 0.417" stroke="hsl(0.0,100%,35%)" stroke-width="0.00093"></path>
<path d="M0.886 0.846 Q1.021 0.878 1.113 0.820" stroke="hsl(0.0,100%,35%)" stroke-width="0.00093"></path>
<path d="M0.886 0.846 Q0.696 0.876 0.713 0.975" stroke="hsl(0.0,100%,35%)" stroke-width="0.00093"></path>
<path d="M0.886 0.846 Q0.813 0.901 0.903 0.949" stroke="hsl(0.0,100%,35%)" stroke-width="0.00093"></path>
<path d="M0.713 0.975 Q0.829 1.000 0.903 0.949" stroke="hsl(0.0,100%,35%)" stroke-width="0.00186"></path>
<path d="M0.713 0.975 Q0.656 0.959 0.611 0.983" stroke="hsl(0.0,100%,35%)" stroke-width="0.00186"></path>
<path d="M0.713 0.975 Q1.525 0.917 1.589 0.508" stroke="hsl(0.0,100%,35%)" stroke-width="0.00186"></path>
<path d="M0.713 0.975 Q1.754 0.827 1.694 0.287" stroke="hsl(0.0,100%,35%)" stroke-width="0.00093"></path>
<path d="M0.713 0.975 Q1.568 0.945 1.697 0.522" stroke="hsl(0.0,100%,35%)" stroke-width="0.00093"></path>
<path d="M1.359 0.409 Q1.114 0.344 0.933 0.448" stroke="hsl(0.0,100%,35%)" stroke-width="0.01580"></path>
<path d="M1.359 0.409 Q0.583 0.563 0.713 0.975" stroke="hsl(0.0,100%,35%)" stroke-width="0.00093"></path>
<path d="M1.359 0.409 Q1.424 0.178 0.988 0.096" stroke="hsl(0.0,100%,35%)" stroke-width="0.00093"></path>
<path d="M1.359 0.409 Q1.624 0.415 1.694 0.287" stroke="hsl(0.0,100%,35%)" stroke-width="0.08459"></path>
<path d="M1.359 0.409 Q1.060 0.324 0.828 0.451" stroke="hsl(0.0,100%,35%)" stroke-width="0.00372"></path>
<path d="M1.359 0.409 Q1.452 0.378 1.412 0.326" stroke="hsl(0.0,100%,35%)" stroke-width="0.00093"></path>
<path d="M1.359 0.409 Q1.528 0.297 1.346 0.190" stroke="hsl(0.0,100%,35%)" stroke-width="0.00186"></path>
<path d="M1.359 0.409 Q1.395 0.505 1.589 0.508" stroke="hsl(0.0,100%,35%)" stroke-width="0.03904"></path>
<path d="M1.359 0.409 Q0.982 0.444 0.968 0.636" stroke="hsl(0.0,100%,35%)" stroke-width="0.01673"></path>
<path d="M1.359 0.409 Q0.907 0.565 1.113 0.820" stroke="hsl(0.0,100%,35%)" stroke-width="0.00093"></path>
<path d="M1.359 0.409 Q1.262 0.445 1.311 0.500" stroke="hsl(0.0,100%,35%)" stroke-width="0.00093"></path>
<path d="M1.359 0.409 Q1.404 0.342 1.283 0.305" stroke="hsl(0.0,100%,35%)" stroke-width="0.00093"></path>
<path d="M1.359 0.409 Q1.260 0.452 1.321 0.509" stroke="hsl(0.0,100%,35%)" stroke-width="0.00279"></path>
<path d="M1.359 0.409 Q1.232 0.436 1.256 0.503" stroke="hsl(0.0,100%,35%)" stroke-width="0.00093"></path>
<path d="M1.359 0.409 Q1.438 0.533 1.697 0.522" stroke="hsl(0.0,100%,35%)" stroke-width="0.00372"></path>
<path d="M1.359 0.409 Q1.281 0.581 1.600 0.656" stroke="hsl(0.0,100%,35%)" stroke-width="0.00372"></path>
<path d="M1.359 0.409 Q1.292 0.497 1.449 0.548" stroke="hsl(0.0,100%,35%)" stroke-width="0.00186"></path>
<path d="M1.359 0.409 Q1.668 0.275 1.473 0.094" stroke="hsl(0.0,100%,35%)" stroke-width="0.00186"></path>
<path d="M1.359 0.409 Q1.179 0.440 1.201 0.535" stroke="hsl(0.0,100%,35%)" stroke-width="0.00372"></path>
<path d="M1.359 0.409 Q1.496 0.279 1.272 0.183" stroke="hsl(0.0,100%,35%)" stroke-width="0.00093"></path>
<path d="M1.359 0.409 Q1.225 0.361 1.101 0.415" stroke="hsl(0.0,100%,35%)" stroke-width="0.00651"></path>
<path d="M1.359 0.409 Q0.776 0.137 0.118 0.361" stroke="hsl(0.0,100%,35%)" stroke-width="0.00372"></path>
<path d="M1.359 0.409 Q1.249 0.451 1.307 0.514" stroke="hsl(0.0,100%,35%)" stroke-width="0.00279"></path>
<path d="M1.359 0.409 Q1.027 0.554 1.237 0.748" stroke="hsl(0.0,100%,35%)" stroke-width="0.00372"></path>
<path d="M1.359 0.409 Q0.808 0.389 0.649 0.653" stroke="hsl(0.0,100%,35%)" stroke-width="0.00093"></path>
<path d="M1.359 0.409 Q1.276 0.474 1.385 0.528" stroke="hsl(0.0,100%,35%)" stroke-width="0.00186"></path>
<path d="M1.359 0.409 Q0.471 0.394 0.247 0.823" stroke="hsl(0.0,100%,35%)" stroke-width="0.00093"></path>
<path d="M1.359 0.409 Q1.231 0.448 1.280 0.519" stroke="hsl(0.0,100%,35%)" stroke-width="0.00186"></path>
<path d="M1.359 0.409 Q0.959 0.372 0.799 0.559" stroke="hsl(0.0,100%,35%)" stroke-width="0.00093"></path>
<path d="M1.359 0.409 Q1.282 0.544 1.528 0.611" stroke="hsl(0.0,100%,35%)" stroke-width="0.00093"></path>
<path d="M1.359 0.409 Q1.499 0.562 1.828 0.528" stroke="hsl(0.0,100%,35%)" stroke-width="0.00093"></path>
<path d="M1.359 0.409 Q0.610 0.283 0.200 0.621" stroke="hsl(0.0,100%,35%)" stroke-width="0.00186"></path>
<path d="M0.933 0.448 Q1.177 0.514 1.359 0.409" stroke="hsl(0.0,100%,35%)" stroke-width="0.02696"></path>
<path d="M0.933 0.448 Q0.998 0.545 1.201 0.535" stroke="hsl(0.0,100%,35%)" stroke-width="0.00186"></path>
<path d="M0.933 0.448 Q1.443 0.520 1.694 0.287" stroke="hsl(0.0,100%,35%)" stroke-width="0.02603"></path>
<path d="M0.933 0.448 Q1.100 0.686 1.600 0.656" stroke="hsl(0.0,100%,35%)" stroke-width="0.00186"></path>
<path d="M0.933 0.448 Q1.213 0.610 1.589 0.508" stroke="hsl(0.0,100%,35%)" stroke-width="0.00837"></path>
<path d="M1.589 0.508 Q1.553 0.412 1.359 0.409" stroke="hsl(0.0,100%,35%)" stroke-width="0.04276"></path>
<path d="M1.589 0.508 Q1.176 0.448 0.968 0.636" stroke="hsl(0.0,100%,35%)" stroke-width="0.00093"></path>
<path d="M1.589 0.508 Q1.520 0.533 1.554 0.573" stroke="hsl(0.0,100%,35%)" stroke-width="0.00093"></path>
<path d="M1.589 0.508 Q1.374 0.444 1.201 0.535" stroke="hsl(0.0,100%,35%)" stroke-width="0.00093"></path>
<path d="M1.589 0.508 Q1.819 0.418 1.694 0.287" stroke="hsl(0.0,100%,35%)" stroke-width="0.09481"></path>
<path d="M1.589 0.508 Q1.633 0.536 1.697 0.522" stroke="hsl(0.0,100%,35%)" stroke-width="0.01301"></path>
<path d="M1.589 0.508 Q1.693 0.566 1.828 0.528" stroke="hsl(0.0,100%,35%)" stroke-width="0.00651"></path>
<path d="M1.589 0.508 Q1.317 0.385 1.017 0.491" stroke="hsl(0.0,100%,35%)" stroke-width="0.00093"></path>
<path d="M1.589 0.508 Q1.672 0.572 1.813 0.545" stroke="hsl(0.0,100%,35%)" stroke-width="0.00093"></path>
<path d="M1.589 0.508 Q1.430 0.500 1.379 0.576" stroke="hsl(0.0,100%,35%)" stroke-width="0.00186"></path>
<path d="M1.589 0.508 Q1.477 0.547 1.528 0.611" stroke="hsl(0.0,100%,35%)" stroke-width="0.00372"></path>
<path d="M1.589 0.508 Q1.578 0.524 1.606 0.533" stroke="hsl(0.0,100%,35%)" stroke-width="0.00186"></path>
<path d="M1.589 0.508 Q1.454 0.495 1.398 0.558" stroke="hsl(0.0,100%,35%)" stroke-width="0.00093"></path>
<path d="M1.589 0.508 Q1.471 0.477 1.385 0.528" stroke="hsl(0.0,100%,35%)" stroke-width="0.00186"></path>
<path d="M1.589 0.508 Q1.612 0.576 1.749 0.579" stroke="hsl(0.0,100%,35%)" stroke-width="0.00093"></path>
<path d="M1.589 0.508 Q1.420 0.364 1.101 0.415" stroke="hsl(0.0,100%,35%)" stroke-width="0.00093"></path>
<path d="M1.589 0.508 Q1.115 0.083 0.181 0.221" stroke="hsl(0.0,100%,35%)" stroke-width="0.00093"></path>
<path d="M1.589 0.508 Q1.457 0.448 1.311 0.500" stroke="hsl(0.0,100%,35%)" stroke-width="0.00093"></path>
<path d="M1.589 0.508 Q0.666 0.397 0.247 0.823" stroke="hsl(0.0,100%,35%)" stroke-width="0.00093"></path>
<path d="M1.589 0.508 Q1.619 0.182 0.988 0.096" stroke="hsl(0.0,100%,35%)" stroke-width="0.00093"></path>
<path d="M1.589 0.508 Q1.309 0.347 0.933 0.448" stroke="hsl(0.0,100%,35%)" stroke-width="0.00372"></path>
<path d="M1.589 0.508 Q1.558 0.691 1.908 0.747" stroke="hsl(0.0,100%,35%)" stroke-width="0.00093"></path>
<path d="M1.589 0.508 Q1.476 0.584 1.600 0.656" stroke="hsl(0.0,100%,35%)" stroke-width="0.01487"></path>
<path d="M1.589 0.508 Q0.971 0.140 0.118 0.361" stroke="hsl(0.0,100%,35%)" stroke-width="0.00279"></path>
<path d="M0.968 0.636 Q1.014 0.746 1.237 0.748" stroke="hsl(0.0,100%,35%)" stroke-width="0.05949"></path>
<path d="M0.968 0.636 Q1.345 0.601 1.359 0.409" stroke="hsl(0.0,100%,35%)" stroke-width="0.01673"></path>
<path d="M0.968 0.636 Q1.611 0.607 1.694 0.287" stroke="hsl(0.0,100%,35%)" stroke-width="0.06135"></path>
<path d="M0.968 0.636 Q0.763 0.329 0.118 0.361" stroke="hsl(0.0,100%,35%)" stroke-width="0.00465"></path>
<path d="M0.968 0.636 Q1.109 0.573 1.017 0.491" stroke="hsl(0.0,100%,35%)" stroke-width="0.00093"></path>
<path d="M0.968 0.636 Q1.166 0.632 1.201 0.535" stroke="hsl(0.0,100%,35%)" stroke-width="0.00093"></path>
<path d="M0.968 0.636 Q0.716 0.664 0.715 0.793" stroke="hsl(0.0,100%,35%)" stroke-width="0.00093"></path>
<path d="M0.968 0.636 Q0.795 0.581 0.649 0.653" stroke="hsl(0.0,100%,35%)" stroke-width="0.00093"></path>
<path d="M0.968 0.636 Q0.937 0.528 0.718 0.519" stroke="hsl(0.0,100%,35%)" stroke-width="0.00093"></path>
<path d="M0.968 0.636 Q1.381 0.696 1.589 0.508" stroke="hsl(0.0,100%,35%)" stroke-width="0.00837"></path>
<path d="M0.968 0.636 Q0.946 0.564 0.799 0.559" stroke="hsl(0.0,100%,35%)" stroke-width="0.00093"></path>
<path d="M0.968 0.636 Q1.101 0.535 0.933 0.448" stroke="hsl(0.0,100%,35%)" stroke-width="0.00093"></path>
<path d="M1.697 0.522 Q1.884 0.404 1.694 0.287" stroke="hsl(0.0,100%,35%)" stroke-width="0.00651"></path>
<path d="M1.697 0.522 Q1.536 0.463 1.385 0.528" stroke="hsl(0.0,100%,35%)" stroke-width="0.00093"></path>
<path d="M1.697 0.522 Q1.654 0.493 1.589 0.508" stroke="hsl(0.0,100%,35%)" stroke-width="0.00186"></path>
<path d="M1.697 0.522 Q1.787 0.285 1.346 0.190" stroke="hsl(0.0,100%,35%)" stroke-width="0.00093"></path>
<path d="M1.697 0.522 Q0.869 0.272 0.200 0.621" stroke="hsl(0.0,100%,35%)" stroke-width="0.00093"></path>
<path d="M1.697 0.522 Q1.036 0.126 0.118 0.361" stroke="hsl(0.0,100%,35%)" stroke-width="0.00093"></path>
<path d="M1.697 0.522 Q1.618 0.398 1.359 0.409" stroke="hsl(0.0,100%,35%)" stroke-width="0.00093"></path>
<path d="M1.600 0.656 Q1.677 0.484 1.359 0.409" stroke="hsl(0.0,100%,35%)" stroke-width="0.00279"></path>
<path d="M1.600 0.656 Q1.713 0.580 1.589 0.508" stroke="hsl(0.0,100%,35%)" stroke-width="0.00372"></path>
<path d="M1.600 0.656 Q1.942 0.490 1.694 0.287" stroke="hsl(0.0,100%,35%)" stroke-width="0.00186"></path>
<path d="M1.101 0.415 Q1.235 0.463 1.359 0.409" stroke="hsl(0.0,100%,35%)" stroke-width="0.01022"></path>
<path d="M1.101 0.415 Q0.999 0.436 1.017 0.491" stroke="hsl(0.0,100%,35%)" stroke-width="0.00093"></path>
<path d="M1.101 0.415 Q1.271 0.559 1.589 0.508" stroke="hsl(0.0,100%,35%)" stroke-width="0.00558"></path>
<path d="M1.101 0.415 Q0.990 0.398 0.933 0.448" stroke="hsl(0.0,100%,35%)" stroke-width="0.00279"></path>
<path d="M1.101 0.415 Q1.501 0.469 1.694 0.287" stroke="hsl(0.0,100%,35%)" stroke-width="0.00558"></path>
<path d="M1.101 0.415 Q1.056 0.495 1.201 0.535" stroke="hsl(0.0,100%,35%)" stroke-width="0.00186"></path>
<path d="M1.101 0.415 Q1.158 0.635 1.600 0.656" stroke="hsl(0.0,100%,35%)" stroke-width="0.00279"></path>
<path d="M1.237 0.748 Q1.192 0.638 0.968 0.636" stroke="hsl(0.0,100%,35%)" stroke-width="0.00744"></path>
<path d="M1.237 0.748 Q1.834 0.608 1.694 0.287" stroke="hsl(0.0,100%,35%)" stroke-width="0.00651"></path>
<path d="M1.237 0.748 Q1.170 0.565 0.799 0.559" stroke="hsl(0.0,100%,35%)" stroke-width="0.00186"></path>
<path d="M1.237 0.748 Q1.161 0.529 0.718 0.519" stroke="hsl(0.0,100%,35%)" stroke-width="0.00093"></path>
<path d="M1.237 0.748 Q1.605 0.698 1.589 0.508" stroke="hsl(0.0,100%,35%)" stroke-width="0.00093"></path>
<path d="M1.237 0.748 Q1.109 0.696 0.981 0.748" stroke="hsl(0.0,100%,35%)" stroke-width="0.00093"></path>
<path d="M1.237 0.748 Q1.569 0.602 1.359 0.409" stroke="hsl(0.0,100%,35%)" stroke-width="0.00651"></path>
<path d="M0.799 0.559 Q0.821 0.631 0.968 0.636" stroke="hsl(0.0,100%,35%)" stroke-width="0.00186"></path>
<path d="M0.799 0.559 Q0.867 0.741 1.237 0.748" stroke="hsl(0.0,100%,35%)" stroke-width="0.00186"></path>
<path d="M0.799 0.559 Q1.464 0.602 1.694 0.287" stroke="hsl(0.0,100%,35%)" stroke-width="0.00093"></path>
<path d="M0.181 0.221 Q0.242 0.586 0.968 0.636" stroke="hsl(0.0,100%,35%)" stroke-width="0.00186"></path>
<path d="M0.181 0.221 Q0.885 0.556 1.694 0.287" stroke="hsl(0.0,100%,35%)" stroke-width="0.00186"></path>
<path d="M0.181 0.221 Q-0.214 0.688 0.611 0.983" stroke="hsl(0.0,100%,35%)" stroke-width="0.00093"></path>
<path d="M0.181 0.221 Q0.619 0.550 1.359 0.409" stroke="hsl(0.0,100%,35%)" stroke-width="0.00093"></path>
<path d="M0.181 0.221 Q0.037 0.278 0.118 0.361" stroke="hsl(0.0,100%,35%)" stroke-width="0.00186"></path>
<path d="M0.095 0.727 Q1.017 0.917 1.589 0.508" stroke="hsl(0.0,100%,35%)" stroke-width="0.00093"></path>
<path d="M0.095 0.727 Q1.060 0.945 1.697 0.522" stroke="hsl(0.0,100%,35%)" stroke-width="0.00093"></path>
<path d="M0.095 0.727 Q0.232 0.695 0.200 0.621" stroke="hsl(0.0,100%,35%)" stroke-width="0.00186"></path>
<path d="M0.095 0.727 Q0.981 0.821 1.359 0.409" stroke="hsl(0.0,100%,35%)" stroke-width="0.00093"></path>
<path d="M0.981 0.748 Q1.262 0.685 1.201 0.535" stroke="hsl(0.0,100%,35%)" stroke-width="0.00093"></path>
<path d="M0.981 0.748 Q0.812 0.717 0.715 0.793" stroke="hsl(0.0,100%,35%)" stroke-width="0.00093"></path>
<path d="M0.981 0.748 Q0.757 0.639 0.496 0.725" stroke="hsl(0.0,100%,35%)" stroke-width="0.00093"></path>
<path d="M1.240 0.641 Q1.306 0.580 1.201 0.535" stroke="hsl(0.0,100%,35%)" stroke-width="0.00093"></path>
<path d="M1.240 0.641 Q1.521 0.645 1.589 0.508" stroke="hsl(0.0,100%,35%)" stroke-width="0.00093"></path>
<path d="M1.240 0.641 Q0.652 0.687 0.611 0.983" stroke="hsl(0.0,100%,35%)" stroke-width="0.00093"></path>
<path d="M1.190 0.419 Q1.548 0.454 1.694 0.287" stroke="hsl(0.0,100%,35%)" stroke-width="0.01208"></path>
<path d="M1.190 0.419 Q1.319 0.544 1.589 0.508" stroke="hsl(0.0,100%,35%)" stroke-width="0.00744"></path>
<path d="M1.190 0.419 Q1.283 0.448 1.359 0.409" stroke="hsl(0.0,100%,35%)" stroke-width="0.01208"></path>
<path d="M1.190 0.419 Q1.103 0.479 1.201 0.535" stroke="hsl(0.0,100%,35%)" stroke-width="0.00093"></path>
<path d="M1.190 0.419 Q0.701 0.176 0.118 0.361" stroke="hsl(0.0,100%,35%)" stroke-width="0.00093"></path>
<path d="M1.190 0.419 Q1.173 0.490 1.307 0.514" stroke="hsl(0.0,100%,35%)" stroke-width="0.00093"></path>
<path d="M1.230 0.048 Q1.006 0.254 1.359 0.409" stroke="hsl(0.0,100%,35%)" stroke-width="0.00093"></path>
<path d="M1.230 0.048 Q1.071 0.023 0.988 0.096" stroke="hsl(0.0,100%,35%)" stroke-width="0.00093"></path>
<path d="M1.230 0.048 Q0.826 0.285 1.201 0.535" stroke="hsl(0.0,100%,35%)" stroke-width="0.00093"></path>
<path d="M1.916 0.198 Q1.469 0.192 1.359 0.409" stroke="hsl(0.0,100%,35%)" stroke-width="0.00093"></path>
<path d="M1.916 0.198 Q1.092 0.228 0.968 0.636" stroke="hsl(0.0,100%,35%)" stroke-width="0.00093"></path>
<path d="M1.916 0.198 Q1.734 0.198 1.694 0.287" stroke="hsl(0.0,100%,35%)" stroke-width="0.00186"></path>
<path d="M1.916 0.198 Q0.720 0.066 0.200 0.621" stroke="hsl(0.0,100%,35%)" stroke-width="0.00093"></path>
<path d="M0.458 0.842 Q1.255 0.806 1.359 0.409" stroke="hsl(0.0,100%,35%)" stroke-width="0.00093"></path>
<path d="M0.458 0.842 Q1.291 0.902 1.589 0.508" stroke="hsl(0.0,100%,35%)" stroke-width="0.00093"></path>
<path d="M0.458 0.842 Q0.367 0.791 0.247 0.823" stroke="hsl(0.0,100%,35%)" stroke-width="0.00279"></path>
<path d="M0.458 0.842 Q1.520 0.812 1.694 0.287" stroke="hsl(0.0,100%,35%)" stroke-width="0.00186"></path>
<path d="M0.625 0.551 Q0.728 0.662 0.968 0.636" stroke="hsl(0.0,100%,35%)" stroke-width="0.00279"></path>
<path d="M0.625 0.551 Q1.370 0.633 1.694 0.287" stroke="hsl(0.0,100%,35%)" stroke-width="0.00093"></path>
<path d="M0.625 0.551 Q0.773 0.772 1.237 0.748" stroke="hsl(0.0,100%,35%)" stroke-width="0.00186"></path>
<path d="M0.417 0.051 Q0.282 0.063 0.276 0.132" stroke="hsl(0.0,100%,35%)" stroke-width="0.00093"></path>
<path d="M0.417 0.051 Q0.354 0.121 0.478 0.168" stroke="hsl(0.0,100%,35%)" stroke-width="0.00093"></path>
<path d="M0.417 0.051 Q-0.232 0.556 0.611 0.983" stroke="hsl(0.0,100%,35%)" stroke-width="0.00186"></path>
<path d="M0.417 0.051 Q0.343 0.040 0.305 0.073" stroke="hsl(0.0,100%,35%)" stroke-width="0.00279"></path>
<path d="M0.417 0.051 Q-0.148 0.292 0.200 0.621" stroke="hsl(0.0,100%,35%)" stroke-width="0.00093"></path>
<path d="M0.417 0.051 Q0.572 0.113 0.728 0.051" stroke="hsl(0.0,100%,35%)" stroke-width="0.00093"></path>
<path d="M0.417 0.051 Q0.458 0.114 0.590 0.108" stroke="hsl(0.0,100%,35%)" stroke-width="0.00093"></path>
<path d="M0.417 0.051 Q0.294 0.155 0.471 0.238" stroke="hsl(0.0,100%,35%)" stroke-width="0.00093"></path>
</g>
<text x="0.642" y="0.329" font-size="0.009567" fill="hsl(0.0,100%,20%)">abarth</text>
<text x="0.770" y="0.263" font-size="0.004784" fill="hsl(0.0,100%,20%)">ddorwin</text>
<text x="0.200" y="0.614" font-size="0.013530" fill="hsl(0.0,100%,20%)">tsepez</text>
<text x="1.385" y="0.523" font-size="0.011717" fill="hsl(0.0,100%,20%)">wez</text>
<text x="0.402" y="0.415" font-size="0.004784" fill="hsl(0.0,100%,20%)">kmarshall</text>
<text x="0.886" y="0.842" font-size="0.008286" fill="hsl(0.0,100%,20%)">avi</text>
<text x="1.113" y="0.816" font-size="0.006765" fill="hsl(0.0,100%,20%)">asvitkine</text>
<text x="0.713" y="0.968" font-size="0.015127" fill="hsl(0.0,100%,20%)">mark</text>
<text x="0.903" y="0.944" font-size="0.008286" fill="hsl(0.0,100%,20%)">rsesek</text>
<text x="1.359" y="0.363" font-size="0.091141" fill="hsl(0.0,100%,20%)">bartekn</text>
<text x="0.933" y="0.425" font-size="0.046625" fill="hsl(0.0,100%,20%)">tasak</text>
<text x="0.988" y="0.091" font-size="0.008286" fill="hsl(0.0,100%,20%)">danakj</text>
<text x="1.694" y="0.243" font-size="0.087031" fill="hsl(0.0,100%,20%)">haraken</text>
<text x="0.828" y="0.446" font-size="0.009567" fill="hsl(0.0,100%,20%)">isherman</text>
<text x="1.412" y="0.323" font-size="0.004784" fill="hsl(0.0,100%,20%)">jbroman</text>
<text x="1.346" y="0.186" font-size="0.008286" fill="hsl(0.0,100%,20%)">mpdenton</text>
<text x="1.589" y="0.467" font-size="0.082993" fill="hsl(0.0,100%,20%)">lizeb</text>
<text x="0.968" y="0.602" font-size="0.068324" fill="hsl(0.0,100%,20%)">bikineev</text>
<text x="1.311" y="0.496" font-size="0.006765" fill="hsl(0.0,100%,20%)">grt</text>
<text x="1.283" y="0.303" font-size="0.004784" fill="hsl(0.0,100%,20%)">robertshield</text>
<text x="1.321" y="0.505" font-size="0.008286" fill="hsl(0.0,100%,20%)">sebmarchand</text>
<text x="1.256" y="0.501" font-size="0.004784" fill="hsl(0.0,100%,20%)">ydago</text>
<text x="1.697" y="0.508" font-size="0.027893" fill="hsl(0.0,100%,20%)">palmer</text>
<text x="1.600" y="0.642" font-size="0.027893" fill="hsl(0.0,100%,20%)">yukishiino</text>
<text x="1.449" y="0.545" font-size="0.006765" fill="hsl(0.0,100%,20%)">yutak</text>
<text x="1.473" y="0.091" font-size="0.006765" fill="hsl(0.0,100%,20%)">erikchen</text>
<text x="1.201" y="0.526" font-size="0.017899" fill="hsl(0.0,100%,20%)">dcheng</text>
<text x="1.272" y="0.181" font-size="0.004784" fill="hsl(0.0,100%,20%)">primiano</text>
<text x="1.101" y="0.400" font-size="0.030254" fill="hsl(0.0,100%,20%)">keishi</text>
<text x="0.118" y="0.352" font-size="0.019135" fill="hsl(0.0,100%,20%)">wfh</text>
<text x="1.307" y="0.509" font-size="0.009567" fill="hsl(0.0,100%,20%)">rockot</text>
<text x="1.237" y="0.724" font-size="0.047597" fill="hsl(0.0,100%,20%)">mlippautz</text>
<text x="0.649" y="0.650" font-size="0.006765" fill="hsl(0.0,100%,20%)">holte</text>
<text x="0.247" y="0.818" font-size="0.010697" fill="hsl(0.0,100%,20%)">ajwong</text>
<text x="1.280" y="0.516" font-size="0.006765" fill="hsl(0.0,100%,20%)">rmcilroy</text>
<text x="0.799" y="0.551" font-size="0.014351" fill="hsl(0.0,100%,20%)">hpayer</text>
<text x="1.528" y="0.606" font-size="0.010697" fill="hsl(0.0,100%,20%)">ssid</text>
<text x="1.828" y="0.521" font-size="0.013530" fill="hsl(0.0,100%,20%)">pasko</text>
<text x="1.017" y="0.486" font-size="0.008286" fill="hsl(0.0,100%,20%)">fdoray</text>
<text x="0.715" y="0.790" font-size="0.006765" fill="hsl(0.0,100%,20%)">gab</text>
<text x="0.718" y="0.516" font-size="0.006765" fill="hsl(0.0,100%,20%)">ulan</text>
<text x="0.181" y="0.213" font-size="0.014351" fill="hsl(0.0,100%,20%)">brucedawson</text>
<text x="0.611" y="0.978" font-size="0.011717" fill="hsl(0.0,100%,20%)">thakis</text>
<text x="0.095" y="0.722" font-size="0.010697" fill="hsl(0.0,100%,20%)">ellyjones</text>
<text x="0.981" y="0.743" font-size="0.009567" fill="hsl(0.0,100%,20%)">eseckler</text>
<text x="0.496" y="0.723" font-size="0.004784" fill="hsl(0.0,100%,20%)">skyostil</text>
<text x="1.240" y="0.637" font-size="0.008286" fill="hsl(0.0,100%,20%)">gabor.kertesz</text>
<text x="1.190" y="0.405" font-size="0.029098" fill="hsl(0.0,100%,20%)">glazunov</text>
<text x="1.230" y="0.044" font-size="0.008286" fill="hsl(0.0,100%,20%)">jannh</text>
<text x="1.554" y="0.570" font-size="0.004784" fill="hsl(0.0,100%,20%)">caitlinfischer</text>
<text x="1.813" y="0.543" font-size="0.004784" fill="hsl(0.0,100%,20%)">sinansahin</text>
<text x="1.379" y="0.573" font-size="0.006765" fill="hsl(0.0,100%,20%)">alexilin</text>
<text x="1.606" y="0.530" font-size="0.006765" fill="hsl(0.0,100%,20%)">arthursonzogni</text>
<text x="1.398" y="0.555" font-size="0.004784" fill="hsl(0.0,100%,20%)">agrieve</text>
<text x="1.749" y="0.577" font-size="0.004784" fill="hsl(0.0,100%,20%)">hendrich</text>
<text x="1.908" y="0.745" font-size="0.004784" fill="hsl(0.0,100%,20%)">jwd</text>
<text x="1.916" y="0.193" font-size="0.010697" fill="hsl(0.0,100%,20%)">ptworek</text>
<text x="0.458" y="0.836" font-size="0.012656" fill="hsl(0.0,100%,20%)">richard.townsend</text>
<text x="0.625" y="0.545" font-size="0.011717" fill="hsl(0.0,100%,20%)">stha09</text>
<text x="0.417" y="0.043" font-size="0.015866" fill="hsl(0.0,100%,20%)">thestig</text>
<text x="0.276" y="0.129" font-size="0.004784" fill="hsl(0.0,100%,20%)">sammc</text>
<text x="0.478" y="0.165" font-size="0.004784" fill="hsl(0.0,100%,20%)">sdefresne</text>
<text x="0.305" y="0.069" font-size="0.008286" fill="hsl(0.0,100%,20%)">pbos</text>
<text x="0.728" y="0.049" font-size="0.004784" fill="hsl(0.0,100%,20%)">ajgo</text>
<text x="0.590" y="0.105" font-size="0.004784" fill="hsl(0.0,100%,20%)">pkasting</text>
<text x="0.471" y="0.236" font-size="0.004784" fill="hsl(0.0,100%,20%)">dhoss</text>
</svg>
