<svg width="4000" height="2000" viewBox="-0.025 -0.025 2.05 1.05" xmlns="http://www.w3.org/2000/svg">
  <style>
    path {
      fill: none;
      stroke-linecap: round;
      stroke-opacity: 0.4;
    }

    text {
      text-anchor: middle;
      alignment-baseline: hanging;
    }
  </style>
  <g opacity="0.4">
<path d="M0.387 0.603 Q1.160 0.594 1.314 0.215" stroke="hsl(0.0,100%,35%)" stroke-width="0.00464"></path>
<path d="M0.387 0.603 Q0.364 0.648 0.448 0.669" stroke="hsl(0.0,100%,35%)" stroke-width="0.00929"></path>
<path d="M0.387 0.603 Q0.204 0.720 0.393 0.835" stroke="hsl(0.0,100%,35%)" stroke-width="0.01083"></path>
<path d="M0.387 0.603 Q0.909 0.523 0.868 0.251" stroke="hsl(0.0,100%,35%)" stroke-width="0.00619"></path>
<path d="M0.387 0.603 Q0.890 0.393 0.591 0.102" stroke="hsl(0.0,100%,35%)" stroke-width="0.00155"></path>
<path d="M0.387 0.603 Q0.415 0.769 0.746 0.792" stroke="hsl(0.0,100%,35%)" stroke-width="0.00155"></path>
<path d="M1.314 0.215 Q1.186 0.260 1.245 0.332" stroke="hsl(0.0,100%,35%)" stroke-width="0.01702"></path>
<path d="M1.314 0.215 Q1.073 0.238 1.066 0.361" stroke="hsl(0.0,100%,35%)" stroke-width="0.01548"></path>
<path d="M1.314 0.215 Q0.518 0.269 0.448 0.669" stroke="hsl(0.0,100%,35%)" stroke-width="0.00619"></path>
<path d="M1.314 0.215 Q1.062 0.144 0.868 0.251" stroke="hsl(0.0,100%,35%)" stroke-width="0.02476"></path>
<path d="M1.314 0.215 Q1.043 0.014 0.591 0.102" stroke="hsl(0.0,100%,35%)" stroke-width="0.01083"></path>
<path d="M1.314 0.215 Q1.389 0.296 1.565 0.277" stroke="hsl(0.0,100%,35%)" stroke-width="0.00155"></path>
<path d="M1.314 0.215 Q0.716 0.088 0.337 0.352" stroke="hsl(0.0,100%,35%)" stroke-width="0.00155"></path>
<path d="M1.314 0.215 Q1.204 0.371 1.485 0.459" stroke="hsl(0.0,100%,35%)" stroke-width="0.01238"></path>
<path d="M1.314 0.215 Q0.867 -0.036 0.279 0.126" stroke="hsl(0.0,100%,35%)" stroke-width="0.00464"></path>
<path d="M1.314 0.215 Q1.565 0.245 1.678 0.129" stroke="hsl(0.0,100%,35%)" stroke-width="0.00310"></path>
<path d="M1.314 0.215 Q1.155 0.189 1.070 0.261" stroke="hsl(0.0,100%,35%)" stroke-width="0.00155"></path>
<path d="M1.314 0.215 Q0.568 0.390 0.746 0.792" stroke="hsl(0.0,100%,35%)" stroke-width="0.00464"></path>
<path d="M1.314 0.215 Q0.933 0.062 0.550 0.214" stroke="hsl(0.0,100%,35%)" stroke-width="0.00155"></path>
<path d="M1.314 0.215 Q1.156 0.185 1.062 0.255" stroke="hsl(0.0,100%,35%)" stroke-width="0.00155"></path>
<path d="M1.314 0.215 Q0.983 -0.055 0.384 0.047" stroke="hsl(0.0,100%,35%)" stroke-width="0.00155"></path>
<path d="M1.314 0.215 Q0.905 0.481 1.334 0.739" stroke="hsl(0.0,100%,35%)" stroke-width="0.00464"></path>
<path d="M1.314 0.215 Q1.388 0.084 1.148 0.019" stroke="hsl(0.0,100%,35%)" stroke-width="0.00155"></path>
<path d="M1.314 0.215 Q1.232 0.301 1.381 0.359" stroke="hsl(0.0,100%,35%)" stroke-width="0.00155"></path>
<path d="M1.314 0.215 Q0.704 0.338 0.809 0.662" stroke="hsl(0.0,100%,35%)" stroke-width="0.00155"></path>
<path d="M1.314 0.215 Q0.357 0.341 0.393 0.835" stroke="hsl(0.0,100%,35%)" stroke-width="0.00619"></path>
<path d="M1.314 0.215 Q1.272 0.124 1.084 0.124" stroke="hsl(0.0,100%,35%)" stroke-width="0.00155"></path>
<path d="M0.448 0.669 Q0.288 0.741 0.393 0.835" stroke="hsl(0.0,100%,35%)" stroke-width="0.03405"></path>
<path d="M0.448 0.669 Q0.499 0.790 0.746 0.792" stroke="hsl(0.0,100%,35%)" stroke-width="0.00619"></path>
<path d="M0.448 0.669 Q1.116 0.660 1.245 0.332" stroke="hsl(0.0,100%,35%)" stroke-width="0.01702"></path>
<path d="M0.448 0.669 Q1.244 0.615 1.314 0.215" stroke="hsl(0.0,100%,35%)" stroke-width="0.01857"></path>
<path d="M0.448 0.669 Q1.222 0.949 1.938 0.632" stroke="hsl(0.0,100%,35%)" stroke-width="0.00155"></path>
<path d="M0.448 0.669 Q0.973 0.414 0.591 0.102" stroke="hsl(0.0,100%,35%)" stroke-width="0.00310"></path>
<path d="M0.393 0.835 Q1.098 0.638 0.868 0.251" stroke="hsl(0.0,100%,35%)" stroke-width="0.00619"></path>
<path d="M0.393 0.835 Q0.472 0.915 0.644 0.894" stroke="hsl(0.0,100%,35%)" stroke-width="0.00155"></path>
<path d="M0.393 0.835 Q0.604 0.884 0.746 0.792" stroke="hsl(0.0,100%,35%)" stroke-width="0.02786"></path>
<path d="M0.393 0.835 Q1.350 0.709 1.314 0.215" stroke="hsl(0.0,100%,35%)" stroke-width="0.00774"></path>
<path d="M0.393 0.835 Q1.240 0.866 1.485 0.459" stroke="hsl(0.0,100%,35%)" stroke-width="0.00155"></path>
<path d="M0.393 0.835 Q0.941 0.975 1.334 0.739" stroke="hsl(0.0,100%,35%)" stroke-width="0.00155"></path>
<path d="M0.393 0.835 Q0.396 0.743 0.217 0.722" stroke="hsl(0.0,100%,35%)" stroke-width="0.00774"></path>
<path d="M0.393 0.835 Q1.308 0.618 1.084 0.124" stroke="hsl(0.0,100%,35%)" stroke-width="0.00310"></path>
<path d="M0.393 0.835 Q0.672 0.745 0.556 0.589" stroke="hsl(0.0,100%,35%)" stroke-width="0.00155"></path>
<path d="M0.393 0.835 Q0.969 0.556 0.550 0.214" stroke="hsl(0.0,100%,35%)" stroke-width="0.00155"></path>
<path d="M0.393 0.835 Q0.554 0.763 0.448 0.669" stroke="hsl(0.0,100%,35%)" stroke-width="0.00155"></path>
<path d="M0.393 0.835 Q1.079 0.508 0.591 0.102" stroke="hsl(0.0,100%,35%)" stroke-width="0.00155"></path>
<path d="M0.393 0.835 Q1.222 0.754 1.245 0.332" stroke="hsl(0.0,100%,35%)" stroke-width="0.00464"></path>
<path d="M0.393 0.835 Q0.385 0.683 0.087 0.654" stroke="hsl(0.0,100%,35%)" stroke-width="0.00155"></path>
<path d="M0.393 0.835 Q1.426 0.791 1.565 0.277" stroke="hsl(0.0,100%,35%)" stroke-width="0.00155"></path>
<path d="M0.868 0.251 Q0.849 0.121 0.591 0.102" stroke="hsl(0.0,100%,35%)" stroke-width="0.00619"></path>
<path d="M0.868 0.251 Q1.120 0.322 1.314 0.215" stroke="hsl(0.0,100%,35%)" stroke-width="0.03560"></path>
<path d="M0.868 0.251 Q1.098 0.656 1.938 0.632" stroke="hsl(0.0,100%,35%)" stroke-width="0.00155"></path>
<path d="M0.868 0.251 Q0.673 0.071 0.279 0.126" stroke="hsl(0.0,100%,35%)" stroke-width="0.00310"></path>
<path d="M0.868 0.251 Q0.163 0.448 0.393 0.835" stroke="hsl(0.0,100%,35%)" stroke-width="0.00929"></path>
<path d="M0.868 0.251 Q0.992 0.367 1.245 0.332" stroke="hsl(0.0,100%,35%)" stroke-width="0.03250"></path>
<path d="M0.868 0.251 Q1.078 0.231 1.084 0.124" stroke="hsl(0.0,100%,35%)" stroke-width="0.01238"></path>
<path d="M0.868 0.251 Q0.324 0.376 0.448 0.669" stroke="hsl(0.0,100%,35%)" stroke-width="0.00310"></path>
<path d="M0.868 0.251 Q1.098 0.138 0.927 0.001" stroke="hsl(0.0,100%,35%)" stroke-width="0.00155"></path>
<path d="M0.868 0.251 Q0.522 0.195 0.337 0.352" stroke="hsl(0.0,100%,35%)" stroke-width="0.00155"></path>
<path d="M0.868 0.251 Q0.658 0.632 1.357 0.819" stroke="hsl(0.0,100%,35%)" stroke-width="0.00155"></path>
<path d="M0.868 0.251 Q0.374 0.497 0.746 0.792" stroke="hsl(0.0,100%,35%)" stroke-width="0.00464"></path>
<path d="M0.868 0.251 Q1.194 0.191 1.148 0.019" stroke="hsl(0.0,100%,35%)" stroke-width="0.00464"></path>
<path d="M0.868 0.251 Q1.074 0.138 0.899 0.013" stroke="hsl(0.0,100%,35%)" stroke-width="0.00310"></path>
<path d="M0.868 0.251 Q1.230 0.217 1.244 0.033" stroke="hsl(0.0,100%,35%)" stroke-width="0.00155"></path>
<path d="M0.868 0.251 Q0.166 0.356 0.217 0.722" stroke="hsl(0.0,100%,35%)" stroke-width="0.00155"></path>
<path d="M0.868 0.251 Q1.138 0.171 1.040 0.022" stroke="hsl(0.0,100%,35%)" stroke-width="0.00155"></path>
<path d="M0.868 0.251 Q1.170 0.209 1.154 0.052" stroke="hsl(0.0,100%,35%)" stroke-width="0.00155"></path>
<path d="M0.868 0.251 Q0.460 0.654 1.157 0.942" stroke="hsl(0.0,100%,35%)" stroke-width="0.00155"></path>
<path d="M0.868 0.251 Q1.138 0.159 1.018 0.007" stroke="hsl(0.0,100%,35%)" stroke-width="0.00155"></path>
<path d="M0.591 0.102 Q0.862 0.303 1.314 0.215" stroke="hsl(180.0,100%,35%)" stroke-width="0.03714"></path>
<path d="M0.591 0.102 Q0.415 0.051 0.279 0.126" stroke="hsl(180.0,100%,35%)" stroke-width="0.06190"></path>
<path d="M0.591 0.102 Q-0.095 0.429 0.393 0.835" stroke="hsl(180.0,100%,35%)" stroke-width="0.01238"></path>
<path d="M0.591 0.102 Q0.610 0.232 0.868 0.251" stroke="hsl(180.0,100%,35%)" stroke-width="0.00310"></path>
<path d="M0.591 0.102 Q0.530 0.486 1.265 0.600" stroke="hsl(180.0,100%,35%)" stroke-width="0.00155"></path>
<path d="M0.591 0.102 Q0.116 0.478 0.746 0.792" stroke="hsl(180.0,100%,35%)" stroke-width="0.00155"></path>
<path d="M0.591 0.102 Q0.820 0.211 1.084 0.124" stroke="hsl(180.0,100%,35%)" stroke-width="0.00310"></path>
<path d="M0.591 0.102 Q0.456 0.172 0.564 0.254" stroke="hsl(180.0,100%,35%)" stroke-width="0.00155"></path>
<path d="M0.591 0.102 Q0.734 0.348 1.245 0.332" stroke="hsl(180.0,100%,35%)" stroke-width="0.00774"></path>
<path d="M0.591 0.102 Q0.453 0.569 1.334 0.739" stroke="hsl(180.0,100%,35%)" stroke-width="0.00155"></path>
<path d="M0.591 0.102 Q0.481 0.150 0.550 0.214" stroke="hsl(180.0,100%,35%)" stroke-width="0.00619"></path>
<path d="M0.591 0.102 Q0.264 0.176 0.337 0.352" stroke="hsl(180.0,100%,35%)" stroke-width="0.00619"></path>
<path d="M0.591 0.102 Q0.621 0.326 1.066 0.361" stroke="hsl(180.0,100%,35%)" stroke-width="0.00155"></path>
<path d="M0.746 0.792 Q1.240 0.546 0.868 0.251" stroke="hsl(0.0,100%,35%)" stroke-width="0.00310"></path>
<path d="M0.746 0.792 Q0.535 0.743 0.393 0.835" stroke="hsl(0.0,100%,35%)" stroke-width="0.01393"></path>
<path d="M0.746 0.792 Q1.492 0.617 1.314 0.215" stroke="hsl(0.0,100%,35%)" stroke-width="0.00155"></path>
<path d="M0.746 0.792 Q1.450 0.526 1.084 0.124" stroke="hsl(0.0,100%,35%)" stroke-width="0.00155"></path>
<path d="M0.746 0.792 Q0.501 0.822 0.506 0.948" stroke="hsl(0.0,100%,35%)" stroke-width="0.00155"></path>
<path d="M0.746 0.792 Q0.611 0.788 0.574 0.853" stroke="hsl(0.0,100%,35%)" stroke-width="0.00155"></path>
<path d="M0.746 0.792 Q0.591 0.841 0.652 0.927" stroke="hsl(0.0,100%,35%)" stroke-width="0.00155"></path>
<path d="M0.746 0.792 Q1.446 0.433 0.899 0.013" stroke="hsl(0.0,100%,35%)" stroke-width="0.00310"></path>
<path d="M0.746 0.792 Q0.538 0.651 0.217 0.722" stroke="hsl(0.0,100%,35%)" stroke-width="0.00155"></path>
<path d="M0.746 0.792 Q1.251 0.640 1.066 0.361" stroke="hsl(0.0,100%,35%)" stroke-width="0.00310"></path>
<path d="M0.746 0.792 Q1.161 0.347 0.384 0.047" stroke="hsl(0.0,100%,35%)" stroke-width="0.00155"></path>
<path d="M1.571 0.792 Q1.703 0.841 1.827 0.788" stroke="hsl(180.0,100%,35%)" stroke-width="0.00155"></path>
<path d="M1.571 0.792 Q1.495 0.718 1.334 0.739" stroke="hsl(180.0,100%,35%)" stroke-width="0.00464"></path>
<path d="M1.571 0.792 Q1.499 0.881 1.657 0.936" stroke="hsl(180.0,100%,35%)" stroke-width="0.00155"></path>
<path d="M1.571 0.792 Q1.613 0.896 1.825 0.899" stroke="hsl(180.0,100%,35%)" stroke-width="0.00155"></path>
<path d="M1.334 0.739 Q1.145 0.346 0.337 0.352" stroke="hsl(180.0,100%,35%)" stroke-width="0.00155"></path>
<path d="M1.334 0.739 Q1.310 0.865 1.551 0.905" stroke="hsl(180.0,100%,35%)" stroke-width="0.00155"></path>
<path d="M1.334 0.739 Q1.281 0.783 1.357 0.819" stroke="hsl(180.0,100%,35%)" stroke-width="0.00310"></path>
<path d="M1.334 0.739 Q1.169 0.675 1.007 0.741" stroke="hsl(180.0,100%,35%)" stroke-width="0.00155"></path>
<path d="M1.334 0.739 Q1.743 0.473 1.314 0.215" stroke="hsl(180.0,100%,35%)" stroke-width="0.00155"></path>
<path d="M1.334 0.739 Q0.998 0.648 0.746 0.792" stroke="hsl(180.0,100%,35%)" stroke-width="0.00619"></path>
<path d="M1.565 0.277 Q1.489 0.196 1.314 0.215" stroke="hsl(0.0,100%,35%)" stroke-width="0.00929"></path>
<path d="M1.565 0.277 Q0.891 0.069 0.337 0.352" stroke="hsl(0.0,100%,35%)" stroke-width="0.00310"></path>
<path d="M1.565 0.277 Q1.218 -0.005 0.591 0.102" stroke="hsl(0.0,100%,35%)" stroke-width="0.00310"></path>
<path d="M1.565 0.277 Q1.221 0.330 1.248 0.510" stroke="hsl(0.0,100%,35%)" stroke-width="0.00155"></path>
<path d="M0.279 0.126 Q0.683 0.286 1.084 0.124" stroke="hsl(180.0,100%,35%)" stroke-width="0.00155"></path>
<path d="M0.279 0.126 Q0.235 0.180 0.331 0.213" stroke="hsl(180.0,100%,35%)" stroke-width="0.00464"></path>
<path d="M0.279 0.126 Q0.395 0.108 0.384 0.047" stroke="hsl(180.0,100%,35%)" stroke-width="0.00310"></path>
<path d="M0.279 0.126 Q0.303 0.329 0.703 0.361" stroke="hsl(180.0,100%,35%)" stroke-width="0.00310"></path>
<path d="M0.279 0.126 Q0.316 0.644 1.334 0.739" stroke="hsl(180.0,100%,35%)" stroke-width="0.00155"></path>
<path d="M0.279 0.126 Q0.147 0.173 0.211 0.248" stroke="hsl(180.0,100%,35%)" stroke-width="0.00155"></path>
<path d="M1.084 0.124 Q0.856 0.014 0.591 0.102" stroke="hsl(180.0,100%,35%)" stroke-width="0.00310"></path>
<path d="M1.084 0.124 Q1.200 0.084 1.148 0.019" stroke="hsl(180.0,100%,35%)" stroke-width="0.00155"></path>
<path d="M1.084 0.124 Q1.126 0.215 1.314 0.215" stroke="hsl(180.0,100%,35%)" stroke-width="0.00155"></path>
<path d="M1.084 0.124 Q0.170 0.341 0.393 0.835" stroke="hsl(180.0,100%,35%)" stroke-width="0.00464"></path>
<path d="M1.084 0.124 Q0.591 0.249 0.726 0.517" stroke="hsl(180.0,100%,35%)" stroke-width="0.00155"></path>
<path d="M1.245 0.332 Q1.373 0.287 1.314 0.215" stroke="hsl(0.0,100%,35%)" stroke-width="0.02321"></path>
<path d="M1.245 0.332 Q1.122 0.216 0.868 0.251" stroke="hsl(0.0,100%,35%)" stroke-width="0.00155"></path>
<path d="M1.245 0.332 Q0.983 0.339 0.938 0.468" stroke="hsl(0.0,100%,35%)" stroke-width="0.00155"></path>
<path d="M1.245 0.332 Q1.088 0.269 0.931 0.331" stroke="hsl(0.0,100%,35%)" stroke-width="0.00155"></path>
<path d="M1.245 0.332 Q0.417 0.413 0.393 0.835" stroke="hsl(0.0,100%,35%)" stroke-width="0.00774"></path>
<path d="M1.245 0.332 Q1.089 0.384 1.155 0.471" stroke="hsl(0.0,100%,35%)" stroke-width="0.00155"></path>
<path d="M0.703 0.361 Q0.527 0.283 0.337 0.352" stroke="hsl(180.0,100%,35%)" stroke-width="0.00929"></path>
<path d="M0.703 0.361 Q0.169 0.536 0.393 0.835" stroke="hsl(180.0,100%,35%)" stroke-width="0.00155"></path>
<path d="M0.703 0.361 Q0.795 0.140 0.384 0.047" stroke="hsl(180.0,100%,35%)" stroke-width="0.00155"></path>
<path d="M1.485 0.459 Q1.324 0.102 0.591 0.102" stroke="hsl(0.0,100%,35%)" stroke-width="0.00155"></path>
<path d="M1.485 0.459 Q1.594 0.303 1.314 0.215" stroke="hsl(0.0,100%,35%)" stroke-width="0.01083"></path>
<path d="M1.485 0.459 Q1.553 0.211 1.084 0.124" stroke="hsl(0.0,100%,35%)" stroke-width="0.00464"></path>
<path d="M1.678 0.129 Q1.427 0.099 1.314 0.215" stroke="hsl(0.0,100%,35%)" stroke-width="0.00155"></path>
<path d="M1.678 0.129 Q1.385 0.008 1.084 0.124" stroke="hsl(0.0,100%,35%)" stroke-width="0.00155"></path>
<path d="M1.678 0.129 Q1.299 0.144 1.245 0.332" stroke="hsl(0.0,100%,35%)" stroke-width="0.00155"></path>
<path d="M0.809 0.662 Q1.010 0.805 1.334 0.739" stroke="hsl(180.0,100%,35%)" stroke-width="0.00155"></path>
<path d="M0.809 0.662 Q0.623 0.593 0.448 0.669" stroke="hsl(180.0,100%,35%)" stroke-width="0.00310"></path>
<path d="M0.809 0.662 Q1.291 0.584 1.245 0.332" stroke="hsl(180.0,100%,35%)" stroke-width="0.00155"></path>
<path d="M0.986 0.824 Q0.891 0.838 0.898 0.887" stroke="hsl(0.0,100%,35%)" stroke-width="0.00155"></path>
<path d="M0.986 0.824 Q1.509 0.630 1.245 0.332" stroke="hsl(0.0,100%,35%)" stroke-width="0.00155"></path>
<path d="M0.986 0.824 Q0.933 0.846 0.965 0.876" stroke="hsl(0.0,100%,35%)" stroke-width="0.00155"></path>
<path d="M0.331 0.213 Q-0.144 0.385 0.087 0.654" stroke="hsl(180.0,100%,35%)" stroke-width="0.00155"></path>
<path d="M0.331 0.213 Q-0.136 0.537 0.393 0.835" stroke="hsl(180.0,100%,35%)" stroke-width="0.00155"></path>
<path d="M0.331 0.213 Q0.779 0.319 1.084 0.124" stroke="hsl(180.0,100%,35%)" stroke-width="0.00155"></path>
<path d="M1.766 0.539 Q1.777 0.620 1.938 0.632" stroke="hsl(0.0,100%,35%)" stroke-width="0.00155"></path>
<path d="M1.766 0.539 Q1.671 0.331 1.245 0.332" stroke="hsl(0.0,100%,35%)" stroke-width="0.00155"></path>
<path d="M1.766 0.539 Q1.799 0.287 1.314 0.215" stroke="hsl(0.0,100%,35%)" stroke-width="0.00155"></path>
<path d="M0.726 0.517 Q0.931 0.214 0.384 0.047" stroke="hsl(180.0,100%,35%)" stroke-width="0.00155"></path>
<path d="M0.726 0.517 Q1.220 0.392 1.084 0.124" stroke="hsl(180.0,100%,35%)" stroke-width="0.00310"></path>
<path d="M0.726 0.517 Q0.766 0.617 0.970 0.620" stroke="hsl(180.0,100%,35%)" stroke-width="0.00155"></path>
<path d="M0.726 0.517 Q0.663 0.357 0.337 0.352" stroke="hsl(180.0,100%,35%)" stroke-width="0.00155"></path>
<path d="M0.726 0.517 Q0.991 0.282 0.591 0.102" stroke="hsl(180.0,100%,35%)" stroke-width="0.00155"></path>
<path d="M0.726 0.517 Q0.772 0.286 0.331 0.213" stroke="hsl(180.0,100%,35%)" stroke-width="0.00155"></path>
<path d="M0.726 0.517 Q0.830 0.570 0.957 0.531" stroke="hsl(180.0,100%,35%)" stroke-width="0.00155"></path>
<path d="M0.726 0.517 Q0.652 0.606 0.809 0.662" stroke="hsl(180.0,100%,35%)" stroke-width="0.00310"></path>
<path d="M1.974 0.444 Q2.037 0.376 1.919 0.331" stroke="hsl(180.0,100%,35%)" stroke-width="0.00155"></path>
<path d="M1.974 0.444 Q1.229 0.071 0.337 0.352" stroke="hsl(180.0,100%,35%)" stroke-width="0.00155"></path>
<path d="M1.974 0.444 Q1.913 0.376 1.767 0.391" stroke="hsl(180.0,100%,35%)" stroke-width="0.00155"></path>
<path d="M0.087 0.654 Q1.051 0.680 1.314 0.215" stroke="hsl(180.0,100%,35%)" stroke-width="0.00155"></path>
<path d="M0.087 0.654 Q0.561 0.482 0.331 0.213" stroke="hsl(180.0,100%,35%)" stroke-width="0.00155"></path>
<path d="M0.087 0.654 Q1.302 0.710 1.678 0.129" stroke="hsl(180.0,100%,35%)" stroke-width="0.00155"></path>
<path d="M0.087 0.654 Q0.718 1.020 1.571 0.792" stroke="hsl(180.0,100%,35%)" stroke-width="0.00155"></path>
<path d="M0.957 0.531 Q1.346 0.353 1.084 0.124" stroke="hsl(180.0,100%,35%)" stroke-width="0.00155"></path>
<path d="M0.957 0.531 Q0.853 0.478 0.726 0.517" stroke="hsl(180.0,100%,35%)" stroke-width="0.00155"></path>
<path d="M0.957 0.531 Q0.814 0.646 1.007 0.741" stroke="hsl(180.0,100%,35%)" stroke-width="0.00155"></path>
<path d="M1.007 0.741 Q1.172 0.805 1.334 0.739" stroke="hsl(180.0,100%,35%)" stroke-width="0.00619"></path>
<path d="M1.007 0.741 Q1.539 0.448 1.084 0.124" stroke="hsl(180.0,100%,35%)" stroke-width="0.00155"></path>
<path d="M1.007 0.741 Q1.249 0.722 1.265 0.600" stroke="hsl(180.0,100%,35%)" stroke-width="0.00155"></path>
<path d="M1.007 0.741 Q1.160 0.680 1.075 0.592" stroke="hsl(180.0,100%,35%)" stroke-width="0.00155"></path>
<path d="M1.007 0.741 Q1.581 0.539 1.314 0.215" stroke="hsl(180.0,100%,35%)" stroke-width="0.00155"></path>
<path d="M1.007 0.741 Q0.983 0.412 0.337 0.352" stroke="hsl(180.0,100%,35%)" stroke-width="0.00155"></path>
<path d="M1.007 0.741 Q1.453 0.584 1.245 0.332" stroke="hsl(180.0,100%,35%)" stroke-width="0.00155"></path>
<path d="M0.101 0.288 Q0.724 0.402 1.084 0.124" stroke="hsl(180.0,100%,35%)" stroke-width="0.00155"></path>
<path d="M0.101 0.288 Q0.141 0.254 0.083 0.227" stroke="hsl(180.0,100%,35%)" stroke-width="0.00155"></path>
<path d="M0.101 0.288 Q0.167 0.367 0.337 0.352" stroke="hsl(180.0,100%,35%)" stroke-width="0.00310"></path>
<path d="M0.101 0.288 Q-0.191 0.620 0.393 0.835" stroke="hsl(180.0,100%,35%)" stroke-width="0.00155"></path>
<path d="M0.101 0.288 Q0.059 0.295 0.064 0.316" stroke="hsl(180.0,100%,35%)" stroke-width="0.00155"></path>
<path d="M0.831 0.052 Q0.836 0.041 0.817 0.036" stroke="hsl(180.0,100%,35%)" stroke-width="0.00155"></path>
<path d="M0.831 0.052 Q0.900 0.138 1.084 0.124" stroke="hsl(180.0,100%,35%)" stroke-width="0.00155"></path>
<path d="M0.831 0.052 Q0.897 0.059 0.926 0.029" stroke="hsl(180.0,100%,35%)" stroke-width="0.00155"></path>
<path d="M1.725 0.675 Q1.688 0.618 1.569 0.623" stroke="hsl(180.0,100%,35%)" stroke-width="0.00155"></path>
<path d="M1.725 0.675 Q1.478 0.629 1.334 0.739" stroke="hsl(180.0,100%,35%)" stroke-width="0.00310"></path>
<path d="M1.725 0.675 Q1.887 0.363 1.314 0.215" stroke="hsl(180.0,100%,35%)" stroke-width="0.00310"></path>
<path d="M1.725 0.675 Q0.931 0.489 0.393 0.835" stroke="hsl(180.0,100%,35%)" stroke-width="0.00155"></path>
<path d="M1.373 0.963 Q1.942 0.577 1.314 0.215" stroke="hsl(0.0,100%,35%)" stroke-width="0.00155"></path>
<path d="M1.373 0.963 Q1.317 0.946 1.270 0.969" stroke="hsl(0.0,100%,35%)" stroke-width="0.00155"></path>
<path d="M1.373 0.963 Q1.282 0.910 1.157 0.942" stroke="hsl(0.0,100%,35%)" stroke-width="0.00155"></path>
<path d="M1.396 0.563 Q1.224 0.639 1.334 0.739" stroke="hsl(0.0,100%,35%)" stroke-width="0.00155"></path>
<path d="M1.396 0.563 Q1.365 0.507 1.248 0.510" stroke="hsl(0.0,100%,35%)" stroke-width="0.00155"></path>
<path d="M1.396 0.563 Q1.505 0.417 1.245 0.332" stroke="hsl(0.0,100%,35%)" stroke-width="0.00155"></path>
<path d="M1.396 0.563 Q0.677 0.499 0.393 0.835" stroke="hsl(0.0,100%,35%)" stroke-width="0.00155"></path>
<path d="M0.303 0.459 Q0.405 0.412 0.337 0.352" stroke="hsl(0.0,100%,35%)" stroke-width="0.00619"></path>
<path d="M0.303 0.459 Q0.047 0.665 0.393 0.835" stroke="hsl(0.0,100%,35%)" stroke-width="0.00619"></path>
<path d="M0.303 0.459 Q0.875 0.584 1.245 0.332" stroke="hsl(0.0,100%,35%)" stroke-width="0.00310"></path>
</g>
<text x="0.387" y="0.589" font-size="0.027857" fill="hsl(0.0,100%,20%)">adarom</text>
<text x="1.314" y="0.175" font-size="0.080999" fill="hsl(0.0,100%,20%)">bartekn</text>
<text x="0.448" y="0.645" font-size="0.048614" fill="hsl(0.0,100%,20%)">kdlee</text>
<text x="0.393" y="0.803" font-size="0.064788" fill="hsl(0.0,100%,20%)">tasak</text>
<text x="0.868" y="0.219" font-size="0.063134" fill="hsl(0.0,100%,20%)">mikt</text>
<text x="0.591" y="0.070" font-size="0.063690" fill="hsl(180.0,100%,20%)">arthursonzogni</text>
<text x="0.746" y="0.770" font-size="0.044444" fill="hsl(0.0,100%,20%)">yukishiino</text>
<text x="1.571" y="0.784" font-size="0.015713" fill="hsl(180.0,100%,20%)">agrieve</text>
<text x="1.827" y="0.785" font-size="0.005939" fill="hsl(180.0,100%,20%)">ayzhao</text>
<text x="1.334" y="0.724" font-size="0.030861" fill="hsl(180.0,100%,20%)">lizeb</text>
<text x="1.657" y="0.933" font-size="0.005939" fill="hsl(180.0,100%,20%)">richard.townsend</text>
<text x="1.825" y="0.896" font-size="0.005939" fill="hsl(180.0,100%,20%)">wnwen</text>
<text x="1.565" y="0.267" font-size="0.021414" fill="hsl(0.0,100%,20%)">ahijazi</text>
<text x="0.337" y="0.338" font-size="0.029096" fill="hsl(180.0,100%,20%)">haraken</text>
<text x="1.248" y="0.505" font-size="0.008399" fill="hsl(0.0,100%,20%)">nuskos</text>
<text x="0.279" y="0.104" font-size="0.044046" fill="hsl(180.0,100%,20%)">danakj</text>
<text x="1.265" y="0.596" font-size="0.008399" fill="hsl(180.0,100%,20%)">jam</text>
<text x="1.084" y="0.106" font-size="0.034631" fill="hsl(180.0,100%,20%)">dcheng</text>
<text x="0.564" y="0.251" font-size="0.005939" fill="hsl(180.0,100%,20%)">ashleynewson</text>
<text x="1.245" y="0.305" font-size="0.054108" fill="hsl(0.0,100%,20%)">keishi</text>
<text x="0.550" y="0.207" font-size="0.014548" fill="hsl(180.0,100%,20%)">blundell</text>
<text x="1.066" y="0.350" font-size="0.021414" fill="hsl(0.0,100%,20%)">glazunov</text>
<text x="0.703" y="0.352" font-size="0.018781" fill="hsl(180.0,100%,20%)">avi</text>
<text x="0.384" y="0.040" font-size="0.014548" fill="hsl(180.0,100%,20%)">mark</text>
<text x="1.485" y="0.446" font-size="0.026561" fill="hsl(0.0,100%,20%)">tsepez</text>
<text x="1.678" y="0.122" font-size="0.014548" fill="hsl(0.0,100%,20%)">lukasza</text>
<text x="1.070" y="0.258" font-size="0.005939" fill="hsl(0.0,100%,20%)">brucedawson</text>
<text x="1.062" y="0.252" font-size="0.005939" fill="hsl(0.0,100%,20%)">andre.kempe</text>
<text x="1.148" y="0.012" font-size="0.013280" fill="hsl(0.0,100%,20%)">mlippautz</text>
<text x="1.381" y="0.356" font-size="0.005939" fill="hsl(0.0,100%,20%)">ssid</text>
<text x="0.809" y="0.654" font-size="0.015713" fill="hsl(180.0,100%,20%)">thestig</text>
<text x="0.986" y="0.818" font-size="0.010287" fill="hsl(0.0,100%,20%)">bwwilliams</text>
<text x="0.898" y="0.884" font-size="0.005939" fill="hsl(0.0,100%,20%)">ajuma</text>
<text x="0.965" y="0.873" font-size="0.005939" fill="hsl(0.0,100%,20%)">noyau</text>
<text x="0.331" y="0.205" font-size="0.016798" fill="hsl(180.0,100%,20%)">hans</text>
<text x="0.211" y="0.245" font-size="0.005939" fill="hsl(180.0,100%,20%)">adetaylor</text>
<text x="1.766" y="0.534" font-size="0.010287" fill="hsl(0.0,100%,20%)">davidben</text>
<text x="1.938" y="0.627" font-size="0.010287" fill="hsl(0.0,100%,20%)">bikineev</text>
<text x="0.726" y="0.507" font-size="0.020574" fill="hsl(180.0,100%,20%)">pkasting</text>
<text x="1.974" y="0.439" font-size="0.010287" fill="hsl(180.0,100%,20%)">fmil</text>
<text x="1.919" y="0.328" font-size="0.005939" fill="hsl(180.0,100%,20%)">dayeung</text>
<text x="1.767" y="0.388" font-size="0.005939" fill="hsl(180.0,100%,20%)">kojii</text>
<text x="0.087" y="0.647" font-size="0.014548" fill="hsl(180.0,100%,20%)">thakis</text>
<text x="0.957" y="0.525" font-size="0.011878" fill="hsl(180.0,100%,20%)">jbroman</text>
<text x="1.007" y="0.730" font-size="0.020574" fill="hsl(180.0,100%,20%)">sky</text>
<text x="0.101" y="0.280" font-size="0.014548" fill="hsl(180.0,100%,20%)">jdapena</text>
<text x="0.083" y="0.224" font-size="0.005939" fill="hsl(180.0,100%,20%)">pbos</text>
<text x="0.064" y="0.313" font-size="0.005939" fill="hsl(180.0,100%,20%)">asvitkine</text>
<text x="0.831" y="0.046" font-size="0.010287" fill="hsl(180.0,100%,20%)">jeffyoon</text>
<text x="0.817" y="0.033" font-size="0.005939" fill="hsl(180.0,100%,20%)">davidbienvenu</text>
<text x="0.926" y="0.026" font-size="0.005939" fill="hsl(180.0,100%,20%)">skyostil</text>
<text x="1.725" y="0.668" font-size="0.014548" fill="hsl(180.0,100%,20%)">justincohen</text>
<text x="1.569" y="0.621" font-size="0.005939" fill="hsl(180.0,100%,20%)">ginnyhuang</text>
<text x="0.938" y="0.465" font-size="0.005939" fill="hsl(0.0,100%,20%)">elkurin</text>
<text x="0.931" y="0.329" font-size="0.005939" fill="hsl(0.0,100%,20%)">rsesek</text>
<text x="1.155" y="0.468" font-size="0.005939" fill="hsl(0.0,100%,20%)">wittman</text>
<text x="1.373" y="0.958" font-size="0.010287" fill="hsl(0.0,100%,20%)">leimy</text>
<text x="1.270" y="0.966" font-size="0.005939" fill="hsl(0.0,100%,20%)">chikamune</text>
<text x="1.157" y="0.938" font-size="0.008399" fill="hsl(0.0,100%,20%)">kouhei</text>
<text x="1.551" y="0.902" font-size="0.005939" fill="hsl(180.0,100%,20%)">fdoray</text>
<text x="1.357" y="0.814" font-size="0.010287" fill="hsl(180.0,100%,20%)">paulsemel</text>
<text x="0.927" y="-0.002" font-size="0.005939" fill="hsl(0.0,100%,20%)">liviutinta</text>
<text x="0.899" y="0.007" font-size="0.011878" fill="hsl(0.0,100%,20%)">mpdenton</text>
<text x="1.244" y="0.030" font-size="0.005939" fill="hsl(0.0,100%,20%)">caitkp</text>
<text x="0.217" y="0.714" font-size="0.015713" fill="hsl(0.0,100%,20%)">wfh</text>
<text x="1.040" y="0.019" font-size="0.005939" fill="hsl(0.0,100%,20%)">dpranke</text>
<text x="1.154" y="0.049" font-size="0.005939" fill="hsl(0.0,100%,20%)">jwata</text>
<text x="1.018" y="0.004" font-size="0.005939" fill="hsl(0.0,100%,20%)">rogerm</text>
<text x="0.970" y="0.617" font-size="0.005939" fill="hsl(180.0,100%,20%)">gab</text>
<text x="1.075" y="0.589" font-size="0.005939" fill="hsl(180.0,100%,20%)">ffred</text>
<text x="1.396" y="0.557" font-size="0.011878" fill="hsl(0.0,100%,20%)">stha09</text>
<text x="0.644" y="0.891" font-size="0.005939" fill="hsl(0.0,100%,20%)">thiabaud</text>
<text x="0.556" y="0.586" font-size="0.005939" fill="hsl(0.0,100%,20%)">erikchen</text>
<text x="0.303" y="0.449" font-size="0.018781" fill="hsl(0.0,100%,20%)">tpearson</text>
<text x="0.506" y="0.945" font-size="0.005939" fill="hsl(0.0,100%,20%)">dfried</text>
<text x="0.574" y="0.851" font-size="0.005939" fill="hsl(0.0,100%,20%)">msw</text>
<text x="0.652" y="0.924" font-size="0.005939" fill="hsl(0.0,100%,20%)">nektar</text>
</svg>
