<svg width="4000" height="2000" viewBox="-0.025 -0.025 2.05 1.05" xmlns="http://www.w3.org/2000/svg">
  <style>
    path {
      fill: none;
      stroke-linecap: round;
      stroke-opacity: 0.4;
    }

    text {
      text-anchor: middle;
      alignment-baseline: hanging;
    }
  </style>
  <g opacity="0.4">
<path d="M0.462 0.104 Q0.417 0.514 1.207 0.626" stroke="hsl(0.0,100%,35%)" stroke-width="0.00458"></path>
<path d="M0.462 0.104 Q0.595 0.183 0.779 0.136" stroke="hsl(0.0,100%,35%)" stroke-width="0.00917"></path>
<path d="M0.462 0.104 Q0.649 0.278 1.029 0.224" stroke="hsl(0.0,100%,35%)" stroke-width="0.01070"></path>
<path d="M0.462 0.104 Q0.420 0.598 1.373 0.727" stroke="hsl(0.0,100%,35%)" stroke-width="0.00611"></path>
<path d="M0.462 0.104 Q1.024 0.396 1.718 0.187" stroke="hsl(0.0,100%,35%)" stroke-width="0.00153"></path>
<path d="M0.462 0.104 Q0.539 0.273 0.887 0.273" stroke="hsl(0.0,100%,35%)" stroke-width="0.00153"></path>
<path d="M1.207 0.626 Q1.380 0.654 1.473 0.576" stroke="hsl(0.0,100%,35%)" stroke-width="0.01681"></path>
<path d="M1.207 0.626 Q1.118 0.486 0.826 0.499" stroke="hsl(0.0,100%,35%)" stroke-width="0.01528"></path>
<path d="M1.207 0.626 Q1.384 0.295 0.779 0.136" stroke="hsl(0.0,100%,35%)" stroke-width="0.00611"></path>
<path d="M1.207 0.626 Q1.210 0.710 1.373 0.727" stroke="hsl(0.0,100%,35%)" stroke-width="0.02292"></path>
<path d="M1.207 0.626 Q1.814 0.508 1.718 0.187" stroke="hsl(0.0,100%,35%)" stroke-width="0.01070"></path>
<path d="M1.207 0.626 Q1.281 0.526 1.102 0.468" stroke="hsl(0.0,100%,35%)" stroke-width="0.00153"></path>
<path d="M1.207 0.626 Q1.561 0.309 1.022 0.067" stroke="hsl(0.0,100%,35%)" stroke-width="0.00153"></path>
<path d="M1.207 0.626 Q0.942 0.549 0.734 0.661" stroke="hsl(0.0,100%,35%)" stroke-width="0.01222"></path>
<path d="M1.207 0.626 Q1.657 0.550 1.607 0.313" stroke="hsl(0.0,100%,35%)" stroke-width="0.00458"></path>
<path d="M1.207 0.626 Q1.155 0.551 0.997 0.560" stroke="hsl(0.0,100%,35%)" stroke-width="0.00306"></path>
<path d="M1.207 0.626 Q0.957 0.674 0.997 0.806" stroke="hsl(0.0,100%,35%)" stroke-width="0.00153"></path>
<path d="M1.207 0.626 Q1.329 0.385 0.887 0.273" stroke="hsl(0.0,100%,35%)" stroke-width="0.00458"></path>
<path d="M1.207 0.626 Q1.573 0.444 1.297 0.225" stroke="hsl(0.0,100%,35%)" stroke-width="0.00153"></path>
<path d="M1.207 0.626 Q1.091 0.612 1.038 0.665" stroke="hsl(0.0,100%,35%)" stroke-width="0.00153"></path>
<path d="M1.207 0.626 Q1.614 0.643 1.736 0.448" stroke="hsl(0.0,100%,35%)" stroke-width="0.00153"></path>
<path d="M1.207 0.626 Q1.786 0.369 1.412 0.030" stroke="hsl(0.0,100%,35%)" stroke-width="0.00306"></path>
<path d="M1.207 0.626 Q1.254 0.749 1.506 0.753" stroke="hsl(0.0,100%,35%)" stroke-width="0.00153"></path>
<path d="M1.207 0.626 Q1.067 0.581 0.948 0.639" stroke="hsl(0.0,100%,35%)" stroke-width="0.00153"></path>
<path d="M1.207 0.626 Q1.643 0.724 1.931 0.533" stroke="hsl(0.0,100%,35%)" stroke-width="0.00153"></path>
<path d="M1.207 0.626 Q1.439 0.390 1.029 0.224" stroke="hsl(0.0,100%,35%)" stroke-width="0.00611"></path>
<path d="M1.207 0.626 Q1.053 0.717 1.197 0.813" stroke="hsl(0.0,100%,35%)" stroke-width="0.00153"></path>
<path d="M0.779 0.136 Q0.833 0.230 1.029 0.224" stroke="hsl(0.0,100%,35%)" stroke-width="0.03361"></path>
<path d="M0.779 0.136 Q0.723 0.226 0.887 0.273" stroke="hsl(0.0,100%,35%)" stroke-width="0.00611"></path>
<path d="M0.779 0.136 Q0.774 0.495 1.473 0.576" stroke="hsl(0.0,100%,35%)" stroke-width="0.01834"></path>
<path d="M0.779 0.136 Q0.601 0.467 1.207 0.626" stroke="hsl(0.0,100%,35%)" stroke-width="0.01834"></path>
<path d="M0.779 0.136 Q0.437 0.210 0.505 0.393" stroke="hsl(0.0,100%,35%)" stroke-width="0.00153"></path>
<path d="M0.779 0.136 Q1.208 0.349 1.718 0.187" stroke="hsl(0.0,100%,35%)" stroke-width="0.00306"></path>
<path d="M1.029 0.224 Q0.800 0.544 1.373 0.727" stroke="hsl(0.0,100%,35%)" stroke-width="0.00611"></path>
<path d="M1.029 0.224 Q0.666 0.139 0.419 0.297" stroke="hsl(0.0,100%,35%)" stroke-width="0.00153"></path>
<path d="M1.029 0.224 Q0.919 0.220 0.887 0.273" stroke="hsl(0.0,100%,35%)" stroke-width="0.02903"></path>
<path d="M1.029 0.224 Q0.797 0.461 1.207 0.626" stroke="hsl(0.0,100%,35%)" stroke-width="0.00764"></path>
<path d="M1.029 0.224 Q0.532 0.384 0.734 0.661" stroke="hsl(0.0,100%,35%)" stroke-width="0.00153"></path>
<path d="M1.029 0.224 Q1.376 0.204 1.412 0.030" stroke="hsl(0.0,100%,35%)" stroke-width="0.00153"></path>
<path d="M1.029 0.224 Q0.781 0.137 0.557 0.239" stroke="hsl(0.0,100%,35%)" stroke-width="0.00764"></path>
<path d="M1.029 0.224 Q0.643 0.552 1.197 0.813" stroke="hsl(0.0,100%,35%)" stroke-width="0.00306"></path>
<path d="M1.029 0.224 Q0.856 0.167 0.706 0.239" stroke="hsl(0.0,100%,35%)" stroke-width="0.00153"></path>
<path d="M1.029 0.224 Q1.163 0.278 1.297 0.225" stroke="hsl(0.0,100%,35%)" stroke-width="0.00153"></path>
<path d="M1.029 0.224 Q0.974 0.130 0.779 0.136" stroke="hsl(0.0,100%,35%)" stroke-width="0.00153"></path>
<path d="M1.029 0.224 Q1.404 0.343 1.718 0.187" stroke="hsl(0.0,100%,35%)" stroke-width="0.00153"></path>
<path d="M1.029 0.224 Q0.970 0.489 1.473 0.576" stroke="hsl(0.0,100%,35%)" stroke-width="0.00458"></path>
<path d="M1.029 0.224 Q1.085 0.418 1.476 0.434" stroke="hsl(0.0,100%,35%)" stroke-width="0.00153"></path>
<path d="M1.029 0.224 Q0.871 0.361 1.102 0.468" stroke="hsl(0.0,100%,35%)" stroke-width="0.00153"></path>
<path d="M1.373 0.727 Q1.978 0.525 1.718 0.187" stroke="hsl(0.0,100%,35%)" stroke-width="0.00611"></path>
<path d="M1.373 0.727 Q1.371 0.643 1.207 0.626" stroke="hsl(0.0,100%,35%)" stroke-width="0.02445"></path>
<path d="M1.373 0.727 Q1.206 0.386 0.505 0.393" stroke="hsl(0.0,100%,35%)" stroke-width="0.00153"></path>
<path d="M1.373 0.727 Q1.821 0.567 1.607 0.313" stroke="hsl(0.0,100%,35%)" stroke-width="0.00306"></path>
<path d="M1.373 0.727 Q1.603 0.407 1.029 0.224" stroke="hsl(0.0,100%,35%)" stroke-width="0.01070"></path>
<path d="M1.373 0.727 Q1.544 0.671 1.473 0.576" stroke="hsl(0.0,100%,35%)" stroke-width="0.03209"></path>
<path d="M1.373 0.727 Q1.217 0.734 1.197 0.813" stroke="hsl(0.0,100%,35%)" stroke-width="0.01222"></path>
<path d="M1.373 0.727 Q1.548 0.312 0.779 0.136" stroke="hsl(0.0,100%,35%)" stroke-width="0.00306"></path>
<path d="M1.373 0.727 Q1.264 0.690 1.168 0.735" stroke="hsl(0.0,100%,35%)" stroke-width="0.00153"></path>
<path d="M1.373 0.727 Q1.725 0.326 1.022 0.067" stroke="hsl(0.0,100%,35%)" stroke-width="0.00153"></path>
<path d="M1.373 0.727 Q2.084 0.450 1.700 0.043" stroke="hsl(0.0,100%,35%)" stroke-width="0.00153"></path>
<path d="M1.373 0.727 Q1.493 0.402 0.887 0.273" stroke="hsl(0.0,100%,35%)" stroke-width="0.00611"></path>
<path d="M1.373 0.727 Q1.418 0.766 1.506 0.753" stroke="hsl(0.0,100%,35%)" stroke-width="0.00306"></path>
<path d="M1.373 0.727 Q1.212 0.697 1.119 0.770" stroke="hsl(0.0,100%,35%)" stroke-width="0.00306"></path>
<path d="M1.373 0.727 Q1.335 0.737 1.346 0.758" stroke="hsl(0.0,100%,35%)" stroke-width="0.00153"></path>
<path d="M1.373 0.727 Q1.476 0.813 1.668 0.782" stroke="hsl(0.0,100%,35%)" stroke-width="0.00153"></path>
<path d="M1.373 0.727 Q1.309 0.714 1.271 0.743" stroke="hsl(0.0,100%,35%)" stroke-width="0.00153"></path>
<path d="M1.373 0.727 Q1.660 0.643 1.559 0.484" stroke="hsl(0.0,100%,35%)" stroke-width="0.00153"></path>
<path d="M1.718 0.187 Q1.111 0.304 1.207 0.626" stroke="hsl(0.0,100%,35%)" stroke-width="0.03667"></path>
<path d="M1.718 0.187 Q1.561 0.228 1.607 0.313" stroke="hsl(0.0,100%,35%)" stroke-width="0.06570"></path>
<path d="M1.718 0.187 Q1.343 0.068 1.029 0.224" stroke="hsl(0.0,100%,35%)" stroke-width="0.01528"></path>
<path d="M1.718 0.187 Q1.114 0.388 1.373 0.727" stroke="hsl(0.0,100%,35%)" stroke-width="0.00306"></path>
<path d="M1.718 0.187 Q1.575 0.079 1.333 0.124" stroke="hsl(0.0,100%,35%)" stroke-width="0.00153"></path>
<path d="M1.718 0.187 Q1.233 0.064 0.887 0.273" stroke="hsl(0.0,100%,35%)" stroke-width="0.00153"></path>
<path d="M1.718 0.187 Q0.957 0.395 1.197 0.813" stroke="hsl(0.0,100%,35%)" stroke-width="0.00306"></path>
<path d="M1.718 0.187 Q1.763 0.269 1.933 0.265" stroke="hsl(0.0,100%,35%)" stroke-width="0.00153"></path>
<path d="M1.718 0.187 Q1.284 0.332 1.473 0.576" stroke="hsl(0.0,100%,35%)" stroke-width="0.01070"></path>
<path d="M1.718 0.187 Q1.690 0.047 1.412 0.030" stroke="hsl(0.0,100%,35%)" stroke-width="0.00153"></path>
<path d="M1.718 0.187 Q1.477 0.122 1.297 0.225" stroke="hsl(0.0,100%,35%)" stroke-width="0.00611"></path>
<path d="M1.718 0.187 Q1.465 -0.012 1.022 0.067" stroke="hsl(0.0,100%,35%)" stroke-width="0.00611"></path>
<path d="M1.718 0.187 Q1.022 0.165 0.826 0.499" stroke="hsl(0.0,100%,35%)" stroke-width="0.00153"></path>
<path d="M1.718 0.187 Q1.493 0.156 1.384 0.258" stroke="hsl(0.0,100%,35%)" stroke-width="0.00306"></path>
<path d="M0.887 0.273 Q0.767 0.597 1.373 0.727" stroke="hsl(0.0,100%,35%)" stroke-width="0.00458"></path>
<path d="M0.887 0.273 Q0.997 0.277 1.029 0.224" stroke="hsl(0.0,100%,35%)" stroke-width="0.01528"></path>
<path d="M0.887 0.273 Q0.606 0.568 1.119 0.770" stroke="hsl(0.0,100%,35%)" stroke-width="0.00306"></path>
<path d="M0.887 0.273 Q0.749 0.190 0.557 0.239" stroke="hsl(0.0,100%,35%)" stroke-width="0.00153"></path>
<path d="M0.887 0.273 Q0.676 0.374 0.826 0.499" stroke="hsl(0.0,100%,35%)" stroke-width="0.00306"></path>
<path d="M0.887 0.273 Q1.172 0.530 1.736 0.448" stroke="hsl(0.0,100%,35%)" stroke-width="0.00153"></path>
<path d="M0.740 0.404 Q0.958 0.466 1.127 0.373" stroke="hsl(0.0,100%,35%)" stroke-width="0.00153"></path>
<path d="M0.740 0.404 Q1.375 0.352 1.412 0.030" stroke="hsl(0.0,100%,35%)" stroke-width="0.00458"></path>
<path d="M0.740 0.404 Q0.716 0.432 0.766 0.450" stroke="hsl(0.0,100%,35%)" stroke-width="0.00153"></path>
<path d="M0.740 0.404 Q0.878 0.457 1.011 0.401" stroke="hsl(0.0,100%,35%)" stroke-width="0.00153"></path>
<path d="M1.412 0.030 Q1.188 -0.029 1.022 0.067" stroke="hsl(0.0,100%,35%)" stroke-width="0.00153"></path>
<path d="M1.412 0.030 Q1.487 0.087 1.615 0.063" stroke="hsl(0.0,100%,35%)" stroke-width="0.00153"></path>
<path d="M1.412 0.030 Q1.546 0.094 1.700 0.043" stroke="hsl(0.0,100%,35%)" stroke-width="0.00306"></path>
<path d="M1.412 0.030 Q1.440 0.058 1.499 0.050" stroke="hsl(0.0,100%,35%)" stroke-width="0.00153"></path>
<path d="M1.412 0.030 Q0.833 0.287 1.207 0.626" stroke="hsl(0.0,100%,35%)" stroke-width="0.00153"></path>
<path d="M1.412 0.030 Q0.956 0.047 0.887 0.273" stroke="hsl(0.0,100%,35%)" stroke-width="0.00611"></path>
<path d="M1.102 0.468 Q1.028 0.568 1.207 0.626" stroke="hsl(0.0,100%,35%)" stroke-width="0.00917"></path>
<path d="M1.102 0.468 Q1.382 0.251 1.022 0.067" stroke="hsl(0.0,100%,35%)" stroke-width="0.00306"></path>
<path d="M1.102 0.468 Q1.635 0.450 1.718 0.187" stroke="hsl(0.0,100%,35%)" stroke-width="0.00306"></path>
<path d="M1.102 0.468 Q0.648 0.433 0.480 0.647" stroke="hsl(0.0,100%,35%)" stroke-width="0.00153"></path>
<path d="M1.607 0.313 Q1.003 0.481 1.197 0.813" stroke="hsl(0.0,100%,35%)" stroke-width="0.00153"></path>
<path d="M1.607 0.313 Q1.576 0.322 1.586 0.339" stroke="hsl(0.0,100%,35%)" stroke-width="0.00458"></path>
<path d="M1.607 0.313 Q1.564 0.406 1.736 0.448" stroke="hsl(0.0,100%,35%)" stroke-width="0.00306"></path>
<path d="M1.607 0.313 Q1.479 0.023 0.885 0.023" stroke="hsl(0.0,100%,35%)" stroke-width="0.00306"></path>
<path d="M1.607 0.313 Q1.736 0.133 1.412 0.030" stroke="hsl(0.0,100%,35%)" stroke-width="0.00153"></path>
<path d="M1.607 0.313 Q1.687 0.400 1.872 0.380" stroke="hsl(0.0,100%,35%)" stroke-width="0.00153"></path>
<path d="M1.197 0.813 Q1.958 0.604 1.718 0.187" stroke="hsl(0.0,100%,35%)" stroke-width="0.00306"></path>
<path d="M1.197 0.813 Q1.399 0.845 1.506 0.753" stroke="hsl(0.0,100%,35%)" stroke-width="0.00153"></path>
<path d="M1.197 0.813 Q1.351 0.721 1.207 0.626" stroke="hsl(0.0,100%,35%)" stroke-width="0.00153"></path>
<path d="M1.197 0.813 Q1.584 0.485 1.029 0.224" stroke="hsl(0.0,100%,35%)" stroke-width="0.00458"></path>
<path d="M1.197 0.813 Q1.635 0.856 1.816 0.652" stroke="hsl(0.0,100%,35%)" stroke-width="0.00153"></path>
<path d="M1.473 0.576 Q1.300 0.548 1.207 0.626" stroke="hsl(0.0,100%,35%)" stroke-width="0.02139"></path>
<path d="M1.473 0.576 Q1.302 0.631 1.373 0.727" stroke="hsl(0.0,100%,35%)" stroke-width="0.00153"></path>
<path d="M1.473 0.576 Q1.496 0.474 1.302 0.441" stroke="hsl(0.0,100%,35%)" stroke-width="0.00153"></path>
<path d="M1.473 0.576 Q1.532 0.311 1.029 0.224" stroke="hsl(0.0,100%,35%)" stroke-width="0.00764"></path>
<path d="M1.473 0.576 Q1.381 0.575 1.360 0.620" stroke="hsl(0.0,100%,35%)" stroke-width="0.00153"></path>
<path d="M1.473 0.576 Q1.583 0.566 1.588 0.510" stroke="hsl(0.0,100%,35%)" stroke-width="0.00153"></path>
<path d="M0.885 0.023 Q0.918 0.072 1.022 0.067" stroke="hsl(0.0,100%,35%)" stroke-width="0.00917"></path>
<path d="M0.885 0.023 Q0.795 0.152 1.029 0.224" stroke="hsl(0.0,100%,35%)" stroke-width="0.00153"></path>
<path d="M0.885 0.023 Q0.970 0.406 1.736 0.448" stroke="hsl(0.0,100%,35%)" stroke-width="0.00153"></path>
<path d="M0.734 0.661 Q1.606 0.621 1.718 0.187" stroke="hsl(0.0,100%,35%)" stroke-width="0.00153"></path>
<path d="M0.734 0.661 Q0.999 0.738 1.207 0.626" stroke="hsl(0.0,100%,35%)" stroke-width="0.00764"></path>
<path d="M0.734 0.661 Q0.845 0.830 1.197 0.813" stroke="hsl(0.0,100%,35%)" stroke-width="0.00306"></path>
<path d="M0.997 0.560 Q1.049 0.635 1.207 0.626" stroke="hsl(0.0,100%,35%)" stroke-width="0.00153"></path>
<path d="M0.997 0.560 Q0.895 0.726 1.197 0.813" stroke="hsl(0.0,100%,35%)" stroke-width="0.00153"></path>
<path d="M0.997 0.560 Q1.222 0.663 1.473 0.576" stroke="hsl(0.0,100%,35%)" stroke-width="0.00153"></path>
<path d="M0.050 0.541 Q-0.072 0.631 0.077 0.710" stroke="hsl(0.0,100%,35%)" stroke-width="0.00153"></path>
<path d="M0.050 0.541 Q0.734 0.843 1.473 0.576" stroke="hsl(0.0,100%,35%)" stroke-width="0.00153"></path>
<path d="M0.050 0.541 Q0.080 0.634 0.267 0.639" stroke="hsl(0.0,100%,35%)" stroke-width="0.00153"></path>
<path d="M1.586 0.339 Q1.455 0.365 1.476 0.434" stroke="hsl(0.0,100%,35%)" stroke-width="0.00153"></path>
<path d="M1.586 0.339 Q1.399 0.171 1.029 0.224" stroke="hsl(0.0,100%,35%)" stroke-width="0.00153"></path>
<path d="M1.586 0.339 Q1.013 0.498 1.197 0.813" stroke="hsl(0.0,100%,35%)" stroke-width="0.00153"></path>
<path d="M0.612 0.539 Q0.676 0.444 0.505 0.393" stroke="hsl(0.0,100%,35%)" stroke-width="0.00153"></path>
<path d="M0.612 0.539 Q1.013 0.729 1.473 0.576" stroke="hsl(0.0,100%,35%)" stroke-width="0.00153"></path>
<path d="M0.612 0.539 Q0.840 0.701 1.207 0.626" stroke="hsl(0.0,100%,35%)" stroke-width="0.00153"></path>
<path d="M1.816 0.652 Q1.939 0.534 1.736 0.448" stroke="hsl(0.0,100%,35%)" stroke-width="0.00153"></path>
<path d="M1.816 0.652 Q1.378 0.608 1.197 0.813" stroke="hsl(0.0,100%,35%)" stroke-width="0.00458"></path>
<path d="M1.816 0.652 Q1.741 0.746 1.910 0.804" stroke="hsl(0.0,100%,35%)" stroke-width="0.00153"></path>
<path d="M1.816 0.652 Q1.887 0.200 1.022 0.067" stroke="hsl(0.0,100%,35%)" stroke-width="0.00153"></path>
<path d="M1.816 0.652 Q2.139 0.399 1.718 0.187" stroke="hsl(0.0,100%,35%)" stroke-width="0.00153"></path>
<path d="M1.816 0.652 Q1.951 0.449 1.586 0.339" stroke="hsl(0.0,100%,35%)" stroke-width="0.00153"></path>
<path d="M1.816 0.652 Q1.688 0.686 1.727 0.756" stroke="hsl(0.0,100%,35%)" stroke-width="0.00306"></path>
<path d="M1.816 0.652 Q1.969 0.615 1.931 0.533" stroke="hsl(0.0,100%,35%)" stroke-width="0.00306"></path>
<path d="M0.223 0.250 Q0.077 0.255 0.055 0.328" stroke="hsl(0.0,100%,35%)" stroke-width="0.00153"></path>
<path d="M0.223 0.250 Q0.769 0.318 1.022 0.067" stroke="hsl(0.0,100%,35%)" stroke-width="0.00153"></path>
<path d="M0.223 0.250 Q0.194 0.318 0.321 0.347" stroke="hsl(0.0,100%,35%)" stroke-width="0.00153"></path>
<path d="M1.476 0.434 Q1.188 0.476 1.207 0.626" stroke="hsl(0.0,100%,35%)" stroke-width="0.00153"></path>
<path d="M1.476 0.434 Q1.606 0.409 1.586 0.339" stroke="hsl(0.0,100%,35%)" stroke-width="0.00153"></path>
<path d="M1.476 0.434 Q1.136 0.401 0.997 0.560" stroke="hsl(0.0,100%,35%)" stroke-width="0.00153"></path>
<path d="M1.476 0.434 Q1.132 0.272 0.740 0.404" stroke="hsl(0.0,100%,35%)" stroke-width="0.00153"></path>
<path d="M1.727 0.756 Q1.417 0.678 1.197 0.813" stroke="hsl(0.0,100%,35%)" stroke-width="0.00153"></path>
<path d="M1.727 0.756 Q1.855 0.722 1.816 0.652" stroke="hsl(0.0,100%,35%)" stroke-width="0.00153"></path>
<path d="M1.727 0.756 Q2.178 0.358 1.499 0.050" stroke="hsl(0.0,100%,35%)" stroke-width="0.00153"></path>
<path d="M1.499 0.050 Q1.472 0.023 1.412 0.030" stroke="hsl(0.0,100%,35%)" stroke-width="0.00611"></path>
<path d="M1.499 0.050 Q0.738 0.371 1.197 0.813" stroke="hsl(0.0,100%,35%)" stroke-width="0.00153"></path>
<path d="M1.499 0.050 Q1.357 0.054 1.333 0.124" stroke="hsl(0.0,100%,35%)" stroke-width="0.00153"></path>
<path d="M1.499 0.050 Q1.451 0.088 1.513 0.119" stroke="hsl(0.0,100%,35%)" stroke-width="0.00153"></path>
<path d="M1.499 0.050 Q0.893 0.280 1.207 0.626" stroke="hsl(0.0,100%,35%)" stroke-width="0.00153"></path>
<path d="M1.499 0.050 Q1.247 -0.037 1.022 0.067" stroke="hsl(0.0,100%,35%)" stroke-width="0.00153"></path>
<path d="M1.499 0.050 Q1.066 0.308 1.473 0.576" stroke="hsl(0.0,100%,35%)" stroke-width="0.00153"></path>
<path d="M1.041 0.031 Q0.493 0.453 1.197 0.813" stroke="hsl(0.0,100%,35%)" stroke-width="0.00153"></path>
<path d="M1.041 0.031 Q1.067 0.121 1.249 0.127" stroke="hsl(0.0,100%,35%)" stroke-width="0.00153"></path>
<path d="M1.041 0.031 Q1.002 0.045 1.022 0.067" stroke="hsl(0.0,100%,35%)" stroke-width="0.00306"></path>
<path d="M1.041 0.031 Q0.880 0.125 1.029 0.224" stroke="hsl(0.0,100%,35%)" stroke-width="0.00153"></path>
<path d="M1.041 0.031 Q1.127 0.073 1.229 0.040" stroke="hsl(0.0,100%,35%)" stroke-width="0.00153"></path>
<path d="M1.882 0.864 Q1.999 0.810 1.917 0.740" stroke="hsl(0.0,100%,35%)" stroke-width="0.00153"></path>
<path d="M1.882 0.864 Q1.581 0.702 1.197 0.813" stroke="hsl(0.0,100%,35%)" stroke-width="0.00153"></path>
<path d="M1.882 0.864 Q1.779 0.839 1.707 0.883" stroke="hsl(0.0,100%,35%)" stroke-width="0.00153"></path>
<path d="M1.255 0.103 Q1.257 0.057 1.169 0.046" stroke="hsl(0.0,100%,35%)" stroke-width="0.00153"></path>
<path d="M1.255 0.103 Q1.392 0.098 1.412 0.030" stroke="hsl(0.0,100%,35%)" stroke-width="0.00306"></path>
<path d="M1.255 0.103 Q0.812 0.355 1.207 0.626" stroke="hsl(0.0,100%,35%)" stroke-width="0.00306"></path>
<path d="M1.255 0.103 Q1.045 0.118 1.029 0.224" stroke="hsl(0.0,100%,35%)" stroke-width="0.00153"></path>
<path d="M0.504 0.818 Q1.009 0.863 1.207 0.626" stroke="hsl(0.0,100%,35%)" stroke-width="0.00458"></path>
<path d="M0.504 0.818 Q0.399 0.894 0.523 0.961" stroke="hsl(0.0,100%,35%)" stroke-width="0.00153"></path>
<path d="M0.504 0.818 Q1.057 0.986 1.506 0.753" stroke="hsl(0.0,100%,35%)" stroke-width="0.00153"></path>
<path d="M0.504 0.818 Q0.851 0.917 1.119 0.770" stroke="hsl(0.0,100%,35%)" stroke-width="0.00153"></path>
<path d="M0.504 0.818 Q1.242 0.626 1.029 0.224" stroke="hsl(0.0,100%,35%)" stroke-width="0.00153"></path>
<path d="M0.410 0.541 Q1.319 0.486 1.412 0.030" stroke="hsl(0.0,100%,35%)" stroke-width="0.00153"></path>
<path d="M0.410 0.541 Q0.360 0.608 0.480 0.647" stroke="hsl(0.0,100%,35%)" stroke-width="0.00153"></path>
<path d="M0.410 0.541 Q0.913 0.771 1.473 0.576" stroke="hsl(0.0,100%,35%)" stroke-width="0.00153"></path>
<path d="M0.410 0.541 Q0.973 0.506 1.029 0.224" stroke="hsl(0.0,100%,35%)" stroke-width="0.00153"></path>
<path d="M0.764 0.047 Q0.877 0.109 1.022 0.067" stroke="hsl(0.0,100%,35%)" stroke-width="0.00611"></path>
<path d="M0.764 0.047 Q0.755 0.189 1.029 0.224" stroke="hsl(0.0,100%,35%)" stroke-width="0.00611"></path>
<path d="M0.764 0.047 Q0.696 0.453 1.473 0.576" stroke="hsl(0.0,100%,35%)" stroke-width="0.00306"></path>
</g>
<text x="0.462" y="0.090" font-size="0.027956" fill="hsl(0.0,100%,20%)">adarom</text>
<text x="1.207" y="0.586" font-size="0.078846" fill="hsl(0.0,100%,20%)">bartekn</text>
<text x="0.779" y="0.112" font-size="0.048421" fill="hsl(0.0,100%,20%)">kdlee</text>
<text x="1.029" y="0.191" font-size="0.066637" fill="hsl(0.0,100%,20%)">tasak</text>
<text x="1.373" y="0.696" font-size="0.061074" fill="hsl(0.0,100%,20%)">mikt</text>
<text x="1.718" y="0.153" font-size="0.066370" fill="hsl(0.0,100%,20%)">arthursonzogni</text>
<text x="0.887" y="0.251" font-size="0.044202" fill="hsl(0.0,100%,20%)">yukishiino</text>
<text x="0.740" y="0.396" font-size="0.015769" fill="hsl(0.0,100%,20%)">agrieve</text>
<text x="1.127" y="0.370" font-size="0.005960" fill="hsl(0.0,100%,20%)">ayzhao</text>
<text x="1.412" y="0.015" font-size="0.029801" fill="hsl(0.0,100%,20%)">lizeb</text>
<text x="0.766" y="0.447" font-size="0.005960" fill="hsl(0.0,100%,20%)">richard.townsend</text>
<text x="1.011" y="0.398" font-size="0.005960" fill="hsl(0.0,100%,20%)">wnwen</text>
<text x="1.102" y="0.457" font-size="0.021490" fill="hsl(0.0,100%,20%)">ahijazi</text>
<text x="1.022" y="0.052" font-size="0.029199" fill="hsl(0.0,100%,20%)">haraken</text>
<text x="0.480" y="0.642" font-size="0.008429" fill="hsl(0.0,100%,20%)">nuskos</text>
<text x="1.607" y="0.291" font-size="0.045392" fill="hsl(0.0,100%,20%)">danakj</text>
<text x="1.333" y="0.120" font-size="0.008429" fill="hsl(0.0,100%,20%)">jam</text>
<text x="1.197" y="0.795" font-size="0.034239" fill="hsl(0.0,100%,20%)">dcheng</text>
<text x="1.933" y="0.262" font-size="0.005960" fill="hsl(0.0,100%,20%)">ashleynewson</text>
<text x="1.473" y="0.548" font-size="0.054626" fill="hsl(0.0,100%,20%)">keishi</text>
<text x="1.297" y="0.218" font-size="0.014599" fill="hsl(0.0,100%,20%)">blundell</text>
<text x="0.826" y="0.488" font-size="0.021490" fill="hsl(0.0,100%,20%)">glazunov</text>
<text x="1.384" y="0.254" font-size="0.008429" fill="hsl(0.0,100%,20%)">wez</text>
<text x="0.885" y="0.013" font-size="0.018848" fill="hsl(0.0,100%,20%)">avi</text>
<text x="1.736" y="0.441" font-size="0.014599" fill="hsl(0.0,100%,20%)">mark</text>
<text x="0.734" y="0.649" font-size="0.024575" fill="hsl(0.0,100%,20%)">tsepez</text>
<text x="0.997" y="0.552" font-size="0.014599" fill="hsl(0.0,100%,20%)">lukasza</text>
<text x="0.997" y="0.803" font-size="0.005960" fill="hsl(0.0,100%,20%)">brucedawson</text>
<text x="1.038" y="0.662" font-size="0.005960" fill="hsl(0.0,100%,20%)">andre.kempe</text>
<text x="1.506" y="0.747" font-size="0.013327" fill="hsl(0.0,100%,20%)">mlippautz</text>
<text x="0.948" y="0.636" font-size="0.005960" fill="hsl(0.0,100%,20%)">ssid</text>
<text x="1.931" y="0.528" font-size="0.010323" fill="hsl(0.0,100%,20%)">thestig</text>
<text x="0.050" y="0.536" font-size="0.010323" fill="hsl(0.0,100%,20%)">bwwilliams</text>
<text x="0.077" y="0.707" font-size="0.005960" fill="hsl(0.0,100%,20%)">ajuma</text>
<text x="0.267" y="0.636" font-size="0.005960" fill="hsl(0.0,100%,20%)">noyau</text>
<text x="1.586" y="0.331" font-size="0.016858" fill="hsl(0.0,100%,20%)">hans</text>
<text x="1.872" y="0.377" font-size="0.005960" fill="hsl(0.0,100%,20%)">adetaylor</text>
<text x="0.612" y="0.534" font-size="0.010323" fill="hsl(0.0,100%,20%)">davidben</text>
<text x="0.505" y="0.387" font-size="0.010323" fill="hsl(0.0,100%,20%)">bikineev</text>
<text x="1.816" y="0.641" font-size="0.022301" fill="hsl(0.0,100%,20%)">pkasting</text>
<text x="0.223" y="0.245" font-size="0.010323" fill="hsl(0.0,100%,20%)">fmil</text>
<text x="0.055" y="0.325" font-size="0.005960" fill="hsl(0.0,100%,20%)">dayeung</text>
<text x="0.321" y="0.344" font-size="0.005960" fill="hsl(0.0,100%,20%)">kojii</text>
<text x="1.476" y="0.427" font-size="0.014599" fill="hsl(0.0,100%,20%)">thakis</text>
<text x="1.727" y="0.749" font-size="0.013327" fill="hsl(0.0,100%,20%)">jbroman</text>
<text x="1.499" y="0.040" font-size="0.020647" fill="hsl(0.0,100%,20%)">sky</text>
<text x="1.041" y="0.023" font-size="0.014599" fill="hsl(0.0,100%,20%)">jdapena</text>
<text x="1.249" y="0.124" font-size="0.005960" fill="hsl(0.0,100%,20%)">pbos</text>
<text x="1.229" y="0.037" font-size="0.005960" fill="hsl(0.0,100%,20%)">asvitkine</text>
<text x="1.882" y="0.859" font-size="0.010323" fill="hsl(0.0,100%,20%)">jeffyoon</text>
<text x="1.917" y="0.737" font-size="0.005960" fill="hsl(0.0,100%,20%)">davidbienvenu</text>
<text x="1.707" y="0.880" font-size="0.005960" fill="hsl(0.0,100%,20%)">skyostil</text>
<text x="1.255" y="0.095" font-size="0.014599" fill="hsl(0.0,100%,20%)">justincohen</text>
<text x="1.169" y="0.043" font-size="0.005960" fill="hsl(0.0,100%,20%)">ginnyhuang</text>
<text x="1.302" y="0.438" font-size="0.005960" fill="hsl(0.0,100%,20%)">elkurin</text>
<text x="1.360" y="0.617" font-size="0.005960" fill="hsl(0.0,100%,20%)">wittman</text>
<text x="1.588" y="0.507" font-size="0.005960" fill="hsl(0.0,100%,20%)">qjw</text>
<text x="1.615" y="0.060" font-size="0.005960" fill="hsl(0.0,100%,20%)">fdoray</text>
<text x="1.700" y="0.038" font-size="0.010323" fill="hsl(0.0,100%,20%)">paulsemel</text>
<text x="1.168" y="0.732" font-size="0.005960" fill="hsl(0.0,100%,20%)">liviutinta</text>
<text x="1.119" y="0.763" font-size="0.013327" fill="hsl(0.0,100%,20%)">mpdenton</text>
<text x="1.346" y="0.755" font-size="0.005960" fill="hsl(0.0,100%,20%)">dpranke</text>
<text x="1.668" y="0.779" font-size="0.005960" fill="hsl(0.0,100%,20%)">jwata</text>
<text x="1.271" y="0.740" font-size="0.005960" fill="hsl(0.0,100%,20%)">kouhei</text>
<text x="1.559" y="0.481" font-size="0.005960" fill="hsl(0.0,100%,20%)">rogerm</text>
<text x="1.910" y="0.801" font-size="0.005960" fill="hsl(0.0,100%,20%)">gab</text>
<text x="1.513" y="0.117" font-size="0.005960" fill="hsl(0.0,100%,20%)">ffred</text>
<text x="0.504" y="0.810" font-size="0.015769" fill="hsl(0.0,100%,20%)">sroettger</text>
<text x="0.523" y="0.958" font-size="0.005960" fill="hsl(0.0,100%,20%)">diwux</text>
<text x="0.410" y="0.535" font-size="0.011920" fill="hsl(0.0,100%,20%)">stha09</text>
<text x="0.419" y="0.294" font-size="0.005960" fill="hsl(0.0,100%,20%)">thiabaud</text>
<text x="0.557" y="0.231" font-size="0.014599" fill="hsl(0.0,100%,20%)">wfh</text>
<text x="0.706" y="0.236" font-size="0.005960" fill="hsl(0.0,100%,20%)">erikchen</text>
<text x="0.764" y="0.038" font-size="0.018848" fill="hsl(0.0,100%,20%)">tpearson</text>
</svg>
