<svg width="4000" height="2000" viewBox="-0.025 -0.025 2.05 1.05" xmlns="http://www.w3.org/2000/svg">
  <style>
    path {
      fill: none;
      stroke-linecap: round;
      stroke-opacity: 0.4;
    }

    text {
      text-anchor: middle;
      alignment-baseline: hanging;
    }
  </style>
  <g opacity="0.4">
<path d="M1.416 0.336 Q1.593 0.250 1.464 0.144" stroke="hsl(0.0,100%,35%)" stroke-width="0.07044"></path>
<path d="M1.416 0.336 Q1.447 0.437 1.652 0.444" stroke="hsl(0.0,100%,35%)" stroke-width="0.02536"></path>
<path d="M1.416 0.336 Q1.230 0.366 1.249 0.464" stroke="hsl(0.0,100%,35%)" stroke-width="0.00282"></path>
<path d="M1.416 0.336 Q0.754 0.202 0.348 0.495" stroke="hsl(0.0,100%,35%)" stroke-width="0.01972"></path>
<path d="M1.416 0.336 Q0.747 0.326 0.581 0.651" stroke="hsl(0.0,100%,35%)" stroke-width="0.01972"></path>
<path d="M1.416 0.336 Q1.114 0.123 0.633 0.224" stroke="hsl(0.0,100%,35%)" stroke-width="0.00282"></path>
<path d="M1.416 0.336 Q1.259 0.215 0.990 0.265" stroke="hsl(0.0,100%,35%)" stroke-width="0.00282"></path>
<path d="M1.416 0.336 Q0.977 0.191 0.598 0.373" stroke="hsl(0.0,100%,35%)" stroke-width="0.00282"></path>
<path d="M1.416 0.336 Q1.316 0.431 1.479 0.500" stroke="hsl(0.0,100%,35%)" stroke-width="0.01127"></path>
<path d="M1.416 0.336 Q1.006 0.472 1.182 0.701" stroke="hsl(0.0,100%,35%)" stroke-width="0.01127"></path>
<path d="M1.416 0.336 Q1.215 0.484 1.461 0.615" stroke="hsl(0.0,100%,35%)" stroke-width="0.00282"></path>
<path d="M1.416 0.336 Q1.727 0.331 1.787 0.178" stroke="hsl(0.0,100%,35%)" stroke-width="0.00564"></path>
<path d="M1.464 0.144 Q1.323 0.094 1.195 0.152" stroke="hsl(0.0,100%,35%)" stroke-width="0.00845"></path>
<path d="M1.464 0.144 Q1.419 0.033 1.192 0.030" stroke="hsl(0.0,100%,35%)" stroke-width="0.00564"></path>
<path d="M1.464 0.144 Q1.349 0.051 1.143 0.087" stroke="hsl(0.0,100%,35%)" stroke-width="0.00564"></path>
<path d="M1.464 0.144 Q1.130 0.110 0.990 0.265" stroke="hsl(0.0,100%,35%)" stroke-width="0.00282"></path>
<path d="M1.464 0.144 Q1.336 0.139 1.298 0.200" stroke="hsl(0.0,100%,35%)" stroke-width="0.00282"></path>
<path d="M1.464 0.144 Q1.486 0.082 1.369 0.057" stroke="hsl(0.0,100%,35%)" stroke-width="0.00282"></path>
<path d="M1.652 0.444 Q1.088 0.292 0.666 0.534" stroke="hsl(0.0,100%,35%)" stroke-width="0.00564"></path>
<path d="M1.652 0.444 Q0.952 0.333 0.581 0.651" stroke="hsl(0.0,100%,35%)" stroke-width="0.00564"></path>
<path d="M1.652 0.444 Q1.420 0.491 1.461 0.615" stroke="hsl(0.0,100%,35%)" stroke-width="0.00845"></path>
<path d="M1.652 0.444 Q1.464 0.222 0.990 0.265" stroke="hsl(0.0,100%,35%)" stroke-width="0.00282"></path>
<path d="M1.652 0.444 Q0.959 0.209 0.348 0.495" stroke="hsl(0.0,100%,35%)" stroke-width="0.00564"></path>
<path d="M1.652 0.444 Q1.798 0.256 1.464 0.144" stroke="hsl(0.0,100%,35%)" stroke-width="0.00282"></path>
<path d="M1.652 0.444 Q1.621 0.343 1.416 0.336" stroke="hsl(0.0,100%,35%)" stroke-width="0.00282"></path>
<path d="M0.348 0.495 Q1.041 0.731 1.652 0.444" stroke="hsl(180.0,100%,35%)" stroke-width="0.00282"></path>
<path d="M0.348 0.495 Q1.010 0.629 1.416 0.336" stroke="hsl(180.0,100%,35%)" stroke-width="0.00282"></path>
<path d="M0.348 0.495 Q0.341 0.620 0.581 0.651" stroke="hsl(180.0,100%,35%)" stroke-width="0.00845"></path>
<path d="M0.348 0.495 Q0.571 0.484 0.598 0.373" stroke="hsl(180.0,100%,35%)" stroke-width="0.00845"></path>
<path d="M0.348 0.495 Q0.160 0.523 0.172 0.621" stroke="hsl(180.0,100%,35%)" stroke-width="0.03381"></path>
<path d="M0.348 0.495 Q0.365 0.547 0.469 0.551" stroke="hsl(180.0,100%,35%)" stroke-width="0.00282"></path>
<path d="M0.348 0.495 Q0.305 0.394 0.097 0.393" stroke="hsl(180.0,100%,35%)" stroke-width="0.00282"></path>
<path d="M0.581 0.651 Q1.282 0.762 1.652 0.444" stroke="hsl(180.0,100%,35%)" stroke-width="0.00845"></path>
<path d="M0.581 0.651 Q0.589 0.526 0.348 0.495" stroke="hsl(180.0,100%,35%)" stroke-width="0.01409"></path>
<path d="M0.581 0.651 Q0.616 0.713 0.746 0.710" stroke="hsl(180.0,100%,35%)" stroke-width="0.00282"></path>
<path d="M0.581 0.651 Q0.714 0.744 0.924 0.700" stroke="hsl(180.0,100%,35%)" stroke-width="0.00282"></path>
<path d="M0.990 0.265 Q1.088 0.196 0.975 0.133" stroke="hsl(0.0,100%,35%)" stroke-width="0.00282"></path>
<path d="M0.990 0.265 Q1.178 0.487 1.652 0.444" stroke="hsl(0.0,100%,35%)" stroke-width="0.00282"></path>
<path d="M0.990 0.265 Q0.296 0.280 0.172 0.621" stroke="hsl(0.0,100%,35%)" stroke-width="0.01127"></path>
<path d="M0.598 0.373 Q0.735 0.305 0.633 0.224" stroke="hsl(180.0,100%,35%)" stroke-width="0.00564"></path>
<path d="M0.598 0.373 Q1.036 0.518 1.416 0.336" stroke="hsl(180.0,100%,35%)" stroke-width="0.00282"></path>
<path d="M0.598 0.373 Q0.495 0.562 0.842 0.653" stroke="hsl(180.0,100%,35%)" stroke-width="0.00282"></path>
<path d="M0.598 0.373 Q0.510 0.282 0.314 0.305" stroke="hsl(180.0,100%,35%)" stroke-width="0.00282"></path>
<path d="M0.598 0.373 Q0.367 0.508 0.581 0.651" stroke="hsl(180.0,100%,35%)" stroke-width="0.01691"></path>
<path d="M0.598 0.373 Q0.751 0.395 0.829 0.326" stroke="hsl(180.0,100%,35%)" stroke-width="0.00282"></path>
<path d="M0.598 0.373 Q0.931 0.236 0.738 0.044" stroke="hsl(180.0,100%,35%)" stroke-width="0.00282"></path>
<path d="M0.598 0.373 Q0.597 0.515 0.875 0.547" stroke="hsl(180.0,100%,35%)" stroke-width="0.00282"></path>
<path d="M0.598 0.373 Q0.375 0.384 0.348 0.495" stroke="hsl(180.0,100%,35%)" stroke-width="0.03099"></path>
<path d="M0.598 0.373 Q0.186 0.412 0.172 0.621" stroke="hsl(180.0,100%,35%)" stroke-width="0.00845"></path>
<path d="M0.598 0.373 Q0.659 0.309 0.547 0.265" stroke="hsl(180.0,100%,35%)" stroke-width="0.00282"></path>
<path d="M0.666 0.534 Q0.538 0.451 0.348 0.495" stroke="hsl(180.0,100%,35%)" stroke-width="0.03663"></path>
<path d="M0.666 0.534 Q1.231 0.686 1.652 0.444" stroke="hsl(180.0,100%,35%)" stroke-width="0.02536"></path>
<path d="M0.666 0.534 Q0.530 0.575 0.581 0.651" stroke="hsl(180.0,100%,35%)" stroke-width="0.01972"></path>
<path d="M0.379 0.169 Q0.493 0.126 0.433 0.060" stroke="hsl(180.0,100%,35%)" stroke-width="0.00282"></path>
<path d="M0.379 0.169 Q0.095 0.450 0.581 0.651" stroke="hsl(180.0,100%,35%)" stroke-width="0.00282"></path>
<path d="M0.379 0.169 Q0.331 0.098 0.182 0.105" stroke="hsl(180.0,100%,35%)" stroke-width="0.00282"></path>
<path d="M0.172 0.621 Q0.014 0.686 0.106 0.778" stroke="hsl(180.0,100%,35%)" stroke-width="0.00564"></path>
<path d="M0.172 0.621 Q-0.014 0.766 0.229 0.889" stroke="hsl(180.0,100%,35%)" stroke-width="0.00282"></path>
<path d="M0.172 0.621 Q0.361 0.593 0.348 0.495" stroke="hsl(180.0,100%,35%)" stroke-width="0.01972"></path>
<path d="M0.172 0.621 Q0.822 0.876 1.461 0.615" stroke="hsl(180.0,100%,35%)" stroke-width="0.00845"></path>
<path d="M0.172 0.621 Q0.584 0.582 0.598 0.373" stroke="hsl(180.0,100%,35%)" stroke-width="0.00845"></path>
<path d="M0.172 0.621 Q1.155 0.529 1.192 0.030" stroke="hsl(180.0,100%,35%)" stroke-width="0.00282"></path>
<path d="M0.784 0.874 Q1.121 0.867 1.182 0.701" stroke="hsl(180.0,100%,35%)" stroke-width="0.00282"></path>
<path d="M0.784 0.874 Q1.531 0.731 1.416 0.336" stroke="hsl(180.0,100%,35%)" stroke-width="0.00282"></path>
<path d="M0.784 0.874 Q1.568 0.596 1.195 0.152" stroke="hsl(180.0,100%,35%)" stroke-width="0.00282"></path>
<path d="M0.784 0.874 Q0.942 0.894 1.016 0.821" stroke="hsl(180.0,100%,35%)" stroke-width="0.00564"></path>
<path d="M0.784 0.874 Q0.918 1.020 1.231 0.986" stroke="hsl(180.0,100%,35%)" stroke-width="0.00564"></path>
<path d="M0.784 0.874 Q1.229 0.519 0.633 0.224" stroke="hsl(180.0,100%,35%)" stroke-width="0.00564"></path>
<path d="M0.784 0.874 Q1.708 0.645 1.464 0.144" stroke="hsl(180.0,100%,35%)" stroke-width="0.00564"></path>
<path d="M0.784 0.874 Q0.862 0.722 0.581 0.651" stroke="hsl(180.0,100%,35%)" stroke-width="0.00282"></path>
<path d="M0.784 0.874 Q1.374 0.611 0.990 0.265" stroke="hsl(180.0,100%,35%)" stroke-width="0.00282"></path>
<path d="M1.006 0.565 Q0.725 0.523 0.581 0.651" stroke="hsl(180.0,100%,35%)" stroke-width="0.00282"></path>
<path d="M1.006 0.565 Q0.647 0.675 0.784 0.874" stroke="hsl(180.0,100%,35%)" stroke-width="0.00282"></path>
<path d="M1.006 0.565 Q0.733 0.399 0.348 0.495" stroke="hsl(180.0,100%,35%)" stroke-width="0.00282"></path>
<path d="M0.802 0.151 Q0.856 0.085 0.738 0.044" stroke="hsl(0.0,100%,35%)" stroke-width="0.00282"></path>
<path d="M0.802 0.151 Q-0.047 0.326 0.106 0.778" stroke="hsl(0.0,100%,35%)" stroke-width="0.00282"></path>
<path d="M0.802 0.151 Q0.300 0.233 0.348 0.495" stroke="hsl(0.0,100%,35%)" stroke-width="0.00282"></path>
<path d="M1.413 0.851 Q1.417 0.730 1.182 0.701" stroke="hsl(180.0,100%,35%)" stroke-width="0.01127"></path>
<path d="M1.413 0.851 Q1.165 0.460 0.348 0.495" stroke="hsl(180.0,100%,35%)" stroke-width="0.01127"></path>
<path d="M1.413 0.851 Q1.157 0.584 0.581 0.651" stroke="hsl(180.0,100%,35%)" stroke-width="0.00564"></path>
</g>
<text x="1.416" y="0.298" font-size="0.076329" fill="hsl(0.0,100%,20%)">arthursonzogni</text>
<text x="1.464" y="0.115" font-size="0.057483" fill="hsl(0.0,100%,20%)">danakj</text>
<text x="1.652" y="0.417" font-size="0.055168" fill="hsl(0.0,100%,20%)">bartekn</text>
<text x="1.249" y="0.459" font-size="0.009325" fill="hsl(0.0,100%,20%)">ashleynewson</text>
<text x="0.348" y="0.456" font-size="0.079673" fill="hsl(180.0,100%,20%)">tasak</text>
<text x="0.581" y="0.621" font-size="0.058977" fill="hsl(180.0,100%,20%)">keishi</text>
<text x="0.633" y="0.213" font-size="0.020851" fill="hsl(180.0,100%,20%)">dcheng</text>
<text x="0.990" y="0.250" font-size="0.029488" fill="hsl(0.0,100%,20%)">lizeb</text>
<text x="0.598" y="0.345" font-size="0.055950" fill="hsl(180.0,100%,20%)">mikt</text>
<text x="1.479" y="0.491" font-size="0.018650" fill="hsl(0.0,100%,20%)">blundell</text>
<text x="1.182" y="0.687" font-size="0.027975" fill="hsl(180.0,100%,20%)">haraken</text>
<text x="1.461" y="0.602" font-size="0.024672" fill="hsl(0.0,100%,20%)">glazunov</text>
<text x="1.787" y="0.172" font-size="0.013188" fill="hsl(0.0,100%,20%)">wez</text>
<text x="0.666" y="0.508" font-size="0.051920" fill="hsl(180.0,100%,20%)">kdlee</text>
<text x="0.379" y="0.161" font-size="0.016151" fill="hsl(180.0,100%,20%)">bwwilliams</text>
<text x="0.433" y="0.056" font-size="0.009325" fill="hsl(180.0,100%,20%)">ajuma</text>
<text x="0.182" y="0.101" font-size="0.009325" fill="hsl(180.0,100%,20%)">noyau</text>
<text x="1.195" y="0.143" font-size="0.018650" fill="hsl(0.0,100%,20%)">hans</text>
<text x="1.192" y="0.022" font-size="0.016151" fill="hsl(0.0,100%,20%)">mark</text>
<text x="1.143" y="0.081" font-size="0.013188" fill="hsl(0.0,100%,20%)">avi</text>
<text x="1.298" y="0.196" font-size="0.009325" fill="hsl(0.0,100%,20%)">adetaylor</text>
<text x="1.369" y="0.053" font-size="0.009325" fill="hsl(0.0,100%,20%)">lukasza</text>
<text x="0.746" y="0.705" font-size="0.009325" fill="hsl(180.0,100%,20%)">wittman</text>
<text x="0.924" y="0.695" font-size="0.009325" fill="hsl(180.0,100%,20%)">qjw</text>
<text x="0.975" y="0.129" font-size="0.009325" fill="hsl(0.0,100%,20%)">sky</text>
<text x="0.172" y="0.593" font-size="0.055950" fill="hsl(180.0,100%,20%)">yukishiino</text>
<text x="0.842" y="0.649" font-size="0.009325" fill="hsl(0.0,100%,20%)">dpranke</text>
<text x="0.314" y="0.300" font-size="0.009325" fill="hsl(0.0,100%,20%)">jwata</text>
<text x="0.829" y="0.321" font-size="0.009325" fill="hsl(180.0,100%,20%)">kouhei</text>
<text x="0.738" y="0.037" font-size="0.013188" fill="hsl(0.0,100%,20%)">mlippautz</text>
<text x="0.875" y="0.543" font-size="0.009325" fill="hsl(180.0,100%,20%)">rogerm</text>
<text x="0.547" y="0.260" font-size="0.009325" fill="hsl(180.0,100%,20%)">marq</text>
<text x="0.784" y="0.857" font-size="0.034891" fill="hsl(180.0,100%,20%)">pkasting</text>
<text x="1.016" y="0.815" font-size="0.013188" fill="hsl(180.0,100%,20%)">jbroman</text>
<text x="1.231" y="0.980" font-size="0.013188" fill="hsl(180.0,100%,20%)">thestig</text>
<text x="1.006" y="0.557" font-size="0.016151" fill="hsl(180.0,100%,20%)">rsworktech</text>
<text x="0.802" y="0.143" font-size="0.016151" fill="hsl(0.0,100%,20%)">sroettger</text>
<text x="0.106" y="0.770" font-size="0.016151" fill="hsl(0.0,100%,20%)">mpdenton</text>
<text x="0.469" y="0.546" font-size="0.009325" fill="hsl(180.0,100%,20%)">thakis</text>
<text x="0.097" y="0.388" font-size="0.009325" fill="hsl(180.0,100%,20%)">ahijazi</text>
<text x="1.413" y="0.836" font-size="0.029488" fill="hsl(180.0,100%,20%)">tpearson</text>
<text x="0.229" y="0.884" font-size="0.009325" fill="hsl(0.0,100%,20%)">wfh</text>
</svg>
