<svg width="4000" height="2000" viewBox="-0.025 -0.025 2.05 1.05" xmlns="http://www.w3.org/2000/svg">
  <style>
    path {
      fill: none;
      stroke-linecap: round;
      stroke-opacity: 0.4;
    }

    text {
      text-anchor: middle;
      alignment-baseline: hanging;
    }
  </style>
  <g opacity="0.4">
<path d="M1.490 0.639 Q1.228 0.657 1.205 0.788" stroke="hsl(0.0,100%,35%)" stroke-width="0.00406"></path>
<path d="M1.490 0.639 Q1.636 0.651 1.691 0.583" stroke="hsl(0.0,100%,35%)" stroke-width="0.00135"></path>
<path d="M1.490 0.639 Q0.932 0.592 0.718 0.854" stroke="hsl(0.0,100%,35%)" stroke-width="0.00135"></path>
<path d="M1.205 0.788 Q1.385 0.809 1.466 0.726" stroke="hsl(0.0,100%,35%)" stroke-width="0.05002"></path>
<path d="M1.205 0.788 Q1.460 0.607 1.161 0.443" stroke="hsl(0.0,100%,35%)" stroke-width="0.00811"></path>
<path d="M1.205 0.788 Q1.147 0.861 1.275 0.905" stroke="hsl(0.0,100%,35%)" stroke-width="0.00676"></path>
<path d="M1.205 0.788 Q1.371 0.680 1.194 0.575" stroke="hsl(0.0,100%,35%)" stroke-width="0.00676"></path>
<path d="M1.205 0.788 Q1.188 0.677 0.966 0.660" stroke="hsl(0.0,100%,35%)" stroke-width="0.01487"></path>
<path d="M1.205 0.788 Q1.301 0.690 1.131 0.622" stroke="hsl(0.0,100%,35%)" stroke-width="0.00541"></path>
<path d="M1.205 0.788 Q1.913 0.718 1.930 0.357" stroke="hsl(0.0,100%,35%)" stroke-width="0.00811"></path>
<path d="M1.205 0.788 Q1.172 0.325 0.262 0.240" stroke="hsl(0.0,100%,35%)" stroke-width="0.00811"></path>
<path d="M1.205 0.788 Q1.291 0.270 0.298 0.114" stroke="hsl(0.0,100%,35%)" stroke-width="0.00135"></path>
<path d="M1.205 0.788 Q1.358 0.730 1.279 0.643" stroke="hsl(0.0,100%,35%)" stroke-width="0.00406"></path>
<path d="M1.205 0.788 Q1.074 0.754 0.978 0.810" stroke="hsl(0.0,100%,35%)" stroke-width="0.01757"></path>
<path d="M1.205 0.788 Q1.593 0.834 1.768 0.655" stroke="hsl(0.0,100%,35%)" stroke-width="0.00270"></path>
<path d="M1.205 0.788 Q1.000 0.506 0.404 0.545" stroke="hsl(0.0,100%,35%)" stroke-width="0.00135"></path>
<path d="M1.205 0.788 Q0.997 0.816 1.005 0.923" stroke="hsl(0.0,100%,35%)" stroke-width="0.01893"></path>
<path d="M1.205 0.788 Q1.353 0.388 0.604 0.228" stroke="hsl(0.0,100%,35%)" stroke-width="0.00406"></path>
<path d="M1.205 0.788 Q1.319 0.704 1.178 0.629" stroke="hsl(0.0,100%,35%)" stroke-width="0.00406"></path>
<path d="M1.205 0.788 Q1.228 0.694 1.049 0.662" stroke="hsl(0.0,100%,35%)" stroke-width="0.00270"></path>
<path d="M1.205 0.788 Q1.044 0.663 0.765 0.714" stroke="hsl(0.0,100%,35%)" stroke-width="0.00811"></path>
<path d="M1.205 0.788 Q1.188 0.845 1.294 0.866" stroke="hsl(0.0,100%,35%)" stroke-width="0.00270"></path>
<path d="M1.205 0.788 Q1.840 0.647 1.705 0.307" stroke="hsl(0.0,100%,35%)" stroke-width="0.00135"></path>
<path d="M1.205 0.788 Q1.467 0.771 1.490 0.639" stroke="hsl(0.0,100%,35%)" stroke-width="0.00135"></path>
<path d="M1.205 0.788 Q0.909 0.724 0.718 0.854" stroke="hsl(0.0,100%,35%)" stroke-width="0.00270"></path>
<path d="M0.718 0.854 Q1.272 0.572 0.844 0.240" stroke="hsl(0.0,100%,35%)" stroke-width="0.00135"></path>
<path d="M0.718 0.854 Q0.806 0.946 1.005 0.923" stroke="hsl(0.0,100%,35%)" stroke-width="0.00135"></path>
<path d="M0.718 0.854 Q1.181 1.021 1.608 0.831" stroke="hsl(0.0,100%,35%)" stroke-width="0.00135"></path>
<path d="M0.718 0.854 Q1.194 0.940 1.466 0.726" stroke="hsl(0.0,100%,35%)" stroke-width="0.00676"></path>
<path d="M0.718 0.854 Q0.853 0.794 0.765 0.714" stroke="hsl(0.0,100%,35%)" stroke-width="0.02704"></path>
<path d="M0.718 0.854 Q1.268 0.737 1.161 0.443" stroke="hsl(0.0,100%,35%)" stroke-width="0.00270"></path>
<path d="M0.718 0.854 Q0.981 0.456 0.262 0.240" stroke="hsl(0.0,100%,35%)" stroke-width="0.00135"></path>
<path d="M0.718 0.854 Q0.594 0.709 0.284 0.738" stroke="hsl(0.0,100%,35%)" stroke-width="0.00135"></path>
<path d="M0.718 0.854 Q0.650 0.726 0.386 0.732" stroke="hsl(0.0,100%,35%)" stroke-width="0.00135"></path>
<path d="M0.718 0.854 Q0.550 0.756 0.322 0.816" stroke="hsl(0.0,100%,35%)" stroke-width="0.00135"></path>
<path d="M0.718 0.854 Q0.537 0.803 0.399 0.880" stroke="hsl(0.0,100%,35%)" stroke-width="0.00135"></path>
<path d="M0.718 0.854 Q0.631 0.777 0.462 0.802" stroke="hsl(0.0,100%,35%)" stroke-width="0.00135"></path>
<path d="M0.718 0.854 Q1.014 0.919 1.205 0.788" stroke="hsl(0.0,100%,35%)" stroke-width="0.00811"></path>
<path d="M0.718 0.854 Q1.336 0.943 1.645 0.661" stroke="hsl(0.0,100%,35%)" stroke-width="0.00135"></path>
<path d="M0.967 0.222 Q0.600 0.090 0.262 0.240" stroke="hsl(0.0,100%,35%)" stroke-width="0.00135"></path>
<path d="M0.967 0.222 Q0.616 0.441 0.966 0.660" stroke="hsl(0.0,100%,35%)" stroke-width="0.00135"></path>
<path d="M0.967 0.222 Q0.887 0.371 1.161 0.443" stroke="hsl(0.0,100%,35%)" stroke-width="0.00135"></path>
<path d="M0.967 0.222 Q0.891 0.206 0.844 0.240" stroke="hsl(0.0,100%,35%)" stroke-width="0.00135"></path>
<path d="M0.966 0.660 Q0.925 0.844 1.275 0.905" stroke="hsl(0.0,100%,35%)" stroke-width="0.00406"></path>
<path d="M0.966 0.660 Q0.983 0.772 1.205 0.788" stroke="hsl(0.0,100%,35%)" stroke-width="0.00946"></path>
<path d="M0.966 0.660 Q0.775 0.799 1.005 0.923" stroke="hsl(0.0,100%,35%)" stroke-width="0.00270"></path>
<path d="M0.966 0.660 Q1.163 0.793 1.466 0.726" stroke="hsl(0.0,100%,35%)" stroke-width="0.00135"></path>
<path d="M0.966 0.660 Q1.151 0.874 1.608 0.831" stroke="hsl(0.0,100%,35%)" stroke-width="0.00135"></path>
<path d="M1.194 0.575 Q1.029 0.684 1.205 0.788" stroke="hsl(0.0,100%,35%)" stroke-width="0.01487"></path>
<path d="M1.194 0.575 Q1.737 0.613 1.930 0.357" stroke="hsl(0.0,100%,35%)" stroke-width="0.00270"></path>
<path d="M1.194 0.575 Q0.868 0.559 0.765 0.714" stroke="hsl(0.0,100%,35%)" stroke-width="0.00135"></path>
<path d="M1.194 0.575 Q0.971 0.756 1.275 0.905" stroke="hsl(0.0,100%,35%)" stroke-width="0.00406"></path>
<path d="M1.194 0.575 Q1.254 0.578 1.273 0.549" stroke="hsl(0.0,100%,35%)" stroke-width="0.00135"></path>
<path d="M1.194 0.575 Q1.012 0.572 0.966 0.660" stroke="hsl(0.0,100%,35%)" stroke-width="0.00135"></path>
<path d="M1.194 0.575 Q0.821 0.711 1.005 0.923" stroke="hsl(0.0,100%,35%)" stroke-width="0.00135"></path>
<path d="M1.930 0.357 Q1.388 0.319 1.194 0.575" stroke="hsl(180.0,100%,35%)" stroke-width="0.00270"></path>
<path d="M1.930 0.357 Q1.871 0.245 1.639 0.249" stroke="hsl(180.0,100%,35%)" stroke-width="0.00135"></path>
<path d="M1.930 0.357 Q1.164 0.500 1.275 0.905" stroke="hsl(180.0,100%,35%)" stroke-width="0.00135"></path>
<path d="M1.930 0.357 Q1.222 0.428 1.205 0.788" stroke="hsl(180.0,100%,35%)" stroke-width="0.00270"></path>
<path d="M1.930 0.357 Q1.189 -0.035 0.262 0.240" stroke="hsl(180.0,100%,35%)" stroke-width="0.00135"></path>
<path d="M1.930 0.357 Q2.000 0.292 1.888 0.243" stroke="hsl(180.0,100%,35%)" stroke-width="0.00135"></path>
<path d="M0.765 0.714 Q0.926 0.840 1.205 0.788" stroke="hsl(0.0,100%,35%)" stroke-width="0.02704"></path>
<path d="M0.765 0.714 Q0.952 0.714 0.993 0.622" stroke="hsl(0.0,100%,35%)" stroke-width="0.00270"></path>
<path d="M0.765 0.714 Q0.795 0.805 0.978 0.810" stroke="hsl(0.0,100%,35%)" stroke-width="0.00135"></path>
<path d="M0.765 0.714 Q1.459 0.754 1.688 0.424" stroke="hsl(0.0,100%,35%)" stroke-width="0.00135"></path>
<path d="M0.765 0.714 Q0.718 0.867 1.005 0.923" stroke="hsl(0.0,100%,35%)" stroke-width="0.00135"></path>
<path d="M0.765 0.714 Q1.091 0.731 1.194 0.575" stroke="hsl(0.0,100%,35%)" stroke-width="0.00135"></path>
<path d="M0.765 0.714 Q0.893 0.377 0.262 0.240" stroke="hsl(0.0,100%,35%)" stroke-width="0.00135"></path>
<path d="M0.765 0.714 Q0.584 0.760 0.633 0.858" stroke="hsl(0.0,100%,35%)" stroke-width="0.00135"></path>
<path d="M0.765 0.714 Q1.180 0.658 1.161 0.443" stroke="hsl(0.0,100%,35%)" stroke-width="0.00676"></path>
<path d="M0.765 0.714 Q1.106 0.860 1.466 0.726" stroke="hsl(0.0,100%,35%)" stroke-width="0.00541"></path>
<path d="M0.765 0.714 Q0.589 0.709 0.540 0.794" stroke="hsl(0.0,100%,35%)" stroke-width="0.00135"></path>
<path d="M0.765 0.714 Q0.630 0.775 0.718 0.854" stroke="hsl(0.0,100%,35%)" stroke-width="0.01352"></path>
<path d="M1.275 0.905 Q1.333 0.833 1.205 0.788" stroke="hsl(0.0,100%,35%)" stroke-width="0.01622"></path>
<path d="M1.275 0.905 Q1.126 0.860 1.005 0.923" stroke="hsl(0.0,100%,35%)" stroke-width="0.00406"></path>
<path d="M1.275 0.905 Q1.172 0.708 0.765 0.714" stroke="hsl(0.0,100%,35%)" stroke-width="0.00135"></path>
<path d="M1.275 0.905 Q1.507 0.941 1.627 0.835" stroke="hsl(0.0,100%,35%)" stroke-width="0.00135"></path>
<path d="M1.275 0.905 Q1.499 0.724 1.194 0.575" stroke="hsl(0.0,100%,35%)" stroke-width="0.00135"></path>
<path d="M1.275 0.905 Q1.588 0.651 1.161 0.443" stroke="hsl(0.0,100%,35%)" stroke-width="0.00270"></path>
<path d="M1.275 0.905 Q1.136 0.871 1.039 0.931" stroke="hsl(0.0,100%,35%)" stroke-width="0.00135"></path>
<path d="M1.275 0.905 Q1.481 0.433 0.604 0.228" stroke="hsl(0.0,100%,35%)" stroke-width="0.00135"></path>
<path d="M1.275 0.905 Q1.234 0.944 1.301 0.972" stroke="hsl(0.0,100%,35%)" stroke-width="0.00135"></path>
<path d="M1.275 0.905 Q1.435 1.008 1.671 0.952" stroke="hsl(0.0,100%,35%)" stroke-width="0.00135"></path>
<path d="M1.275 0.905 Q1.513 0.854 1.466 0.726" stroke="hsl(0.0,100%,35%)" stroke-width="0.00135"></path>
<path d="M1.275 0.905 Q1.173 0.897 1.134 0.944" stroke="hsl(0.0,100%,35%)" stroke-width="0.00270"></path>
<path d="M1.275 0.905 Q1.300 0.370 0.262 0.240" stroke="hsl(0.0,100%,35%)" stroke-width="0.00135"></path>
<path d="M1.275 0.905 Q1.501 0.935 1.608 0.831" stroke="hsl(0.0,100%,35%)" stroke-width="0.00135"></path>
<path d="M1.273 0.549 Q1.213 0.546 1.194 0.575" stroke="hsl(0.0,100%,35%)" stroke-width="0.00135"></path>
<path d="M1.273 0.549 Q0.989 0.728 1.275 0.905" stroke="hsl(0.0,100%,35%)" stroke-width="0.00135"></path>
<path d="M1.273 0.549 Q1.048 0.655 1.205 0.788" stroke="hsl(0.0,100%,35%)" stroke-width="0.00135"></path>
<path d="M1.005 0.923 Q1.213 0.896 1.205 0.788" stroke="hsl(0.0,100%,35%)" stroke-width="0.01217"></path>
<path d="M1.005 0.923 Q1.154 0.968 1.275 0.905" stroke="hsl(0.0,100%,35%)" stroke-width="0.00135"></path>
<path d="M1.005 0.923 Q1.746 0.810 1.688 0.424" stroke="hsl(0.0,100%,35%)" stroke-width="0.00135"></path>
<path d="M1.005 0.923 Q0.917 0.831 0.718 0.854" stroke="hsl(0.0,100%,35%)" stroke-width="0.00135"></path>
<path d="M1.005 0.923 Q1.196 0.784 0.966 0.660" stroke="hsl(0.0,100%,35%)" stroke-width="0.00135"></path>
<path d="M0.544 0.323 Q0.469 0.225 0.262 0.240" stroke="hsl(0.0,100%,35%)" stroke-width="0.00135"></path>
<path d="M0.544 0.323 Q0.650 0.288 0.604 0.228" stroke="hsl(0.0,100%,35%)" stroke-width="0.00270"></path>
<path d="M0.544 0.323 Q0.295 0.715 1.005 0.923" stroke="hsl(0.0,100%,35%)" stroke-width="0.00135"></path>
<path d="M1.466 0.726 Q1.227 0.778 1.275 0.905" stroke="hsl(0.0,100%,35%)" stroke-width="0.02974"></path>
<path d="M1.466 0.726 Q1.286 0.705 1.205 0.788" stroke="hsl(0.0,100%,35%)" stroke-width="0.09463"></path>
<path d="M1.466 0.726 Q1.125 0.580 0.765 0.714" stroke="hsl(0.0,100%,35%)" stroke-width="0.05813"></path>
<path d="M1.466 0.726 Q1.311 0.812 1.444 0.906" stroke="hsl(0.0,100%,35%)" stroke-width="0.00406"></path>
<path d="M1.466 0.726 Q1.470 0.791 1.598 0.803" stroke="hsl(0.0,100%,35%)" stroke-width="0.00135"></path>
<path d="M1.466 0.726 Q1.819 0.619 1.688 0.424" stroke="hsl(0.0,100%,35%)" stroke-width="0.00270"></path>
<path d="M1.466 0.726 Q1.993 0.634 1.930 0.357" stroke="hsl(0.0,100%,35%)" stroke-width="0.00406"></path>
<path d="M1.466 0.726 Q1.693 0.700 1.691 0.583" stroke="hsl(0.0,100%,35%)" stroke-width="0.00270"></path>
<path d="M1.466 0.726 Q1.607 0.730 1.645 0.661" stroke="hsl(0.0,100%,35%)" stroke-width="0.00135"></path>
<path d="M1.466 0.726 Q1.269 0.593 0.966 0.660" stroke="hsl(0.0,100%,35%)" stroke-width="0.00135"></path>
<path d="M1.466 0.726 Q1.761 0.357 1.107 0.132" stroke="hsl(0.0,100%,35%)" stroke-width="0.00135"></path>
<path d="M1.466 0.726 Q1.496 0.618 1.291 0.579" stroke="hsl(0.0,100%,35%)" stroke-width="0.00135"></path>
<path d="M1.466 0.726 Q1.453 0.807 1.608 0.831" stroke="hsl(0.0,100%,35%)" stroke-width="0.00406"></path>
<path d="M1.466 0.726 Q1.078 0.732 1.005 0.923" stroke="hsl(0.0,100%,35%)" stroke-width="0.00406"></path>
<path d="M1.466 0.726 Q0.990 0.641 0.718 0.854" stroke="hsl(0.0,100%,35%)" stroke-width="0.01217"></path>
<path d="M1.466 0.726 Q1.253 0.242 0.262 0.240" stroke="hsl(0.0,100%,35%)" stroke-width="0.00135"></path>
<path d="M1.466 0.726 Q1.444 0.831 1.643 0.864" stroke="hsl(0.0,100%,35%)" stroke-width="0.00406"></path>
<path d="M1.466 0.726 Q1.459 0.813 1.627 0.835" stroke="hsl(0.0,100%,35%)" stroke-width="0.00270"></path>
<path d="M1.466 0.726 Q1.155 0.671 0.978 0.810" stroke="hsl(0.0,100%,35%)" stroke-width="0.00270"></path>
<path d="M1.466 0.726 Q1.540 0.524 1.161 0.443" stroke="hsl(0.0,100%,35%)" stroke-width="0.00541"></path>
<path d="M1.466 0.726 Q1.309 0.611 1.049 0.662" stroke="hsl(0.0,100%,35%)" stroke-width="0.00135"></path>
<path d="M1.466 0.726 Q1.674 0.751 1.768 0.655" stroke="hsl(0.0,100%,35%)" stroke-width="0.00406"></path>
<path d="M1.466 0.726 Q0.944 0.626 0.633 0.858" stroke="hsl(0.0,100%,35%)" stroke-width="0.00135"></path>
<path d="M1.466 0.726 Q1.503 0.656 1.374 0.623" stroke="hsl(0.0,100%,35%)" stroke-width="0.00270"></path>
<path d="M1.466 0.726 Q1.439 0.647 1.279 0.643" stroke="hsl(0.0,100%,35%)" stroke-width="0.00135"></path>
<path d="M1.466 0.726 Q3.046 -0.216 1.554 -1.194" stroke="hsl(0.0,100%,35%)" stroke-width="0.00135"></path>
<path d="M0.298 0.114 Q0.212 0.633 1.205 0.788" stroke="hsl(180.0,100%,35%)" stroke-width="0.00135"></path>
<path d="M0.298 0.114 Q0.179 0.170 0.262 0.240" stroke="hsl(180.0,100%,35%)" stroke-width="0.00406"></path>
<path d="M0.298 0.114 Q0.377 0.524 1.194 0.575" stroke="hsl(180.0,100%,35%)" stroke-width="0.00270"></path>
<path d="M0.298 0.114 Q0.919 0.562 1.930 0.357" stroke="hsl(180.0,100%,35%)" stroke-width="0.00270"></path>
<path d="M0.298 0.114 Q0.466 0.451 1.161 0.443" stroke="hsl(180.0,100%,35%)" stroke-width="0.00270"></path>
<path d="M0.298 0.114 Q0.195 0.521 0.966 0.660" stroke="hsl(180.0,100%,35%)" stroke-width="0.00135"></path>
<path d="M0.404 0.545 Q0.449 0.702 0.765 0.714" stroke="hsl(180.0,100%,35%)" stroke-width="0.00270"></path>
<path d="M0.404 0.545 Q0.610 0.827 1.205 0.788" stroke="hsl(180.0,100%,35%)" stroke-width="0.00135"></path>
<path d="M0.404 0.545 Q0.790 0.848 1.466 0.726" stroke="hsl(180.0,100%,35%)" stroke-width="0.00135"></path>
<path d="M0.404 0.545 Q0.577 0.364 0.262 0.240" stroke="hsl(180.0,100%,35%)" stroke-width="0.00135"></path>
<path d="M1.294 0.866 Q1.253 0.882 1.275 0.905" stroke="hsl(0.0,100%,35%)" stroke-width="0.00406"></path>
<path d="M1.294 0.866 Q1.294 0.698 0.966 0.660" stroke="hsl(0.0,100%,35%)" stroke-width="0.00135"></path>
<path d="M1.294 0.866 Q1.104 0.837 1.005 0.923" stroke="hsl(0.0,100%,35%)" stroke-width="0.00270"></path>
<path d="M1.294 0.866 Q1.311 0.809 1.205 0.788" stroke="hsl(0.0,100%,35%)" stroke-width="0.00676"></path>
<path d="M1.294 0.866 Q1.566 0.628 1.161 0.443" stroke="hsl(0.0,100%,35%)" stroke-width="0.00270"></path>
<path d="M1.294 0.866 Q1.180 0.775 0.978 0.810" stroke="hsl(0.0,100%,35%)" stroke-width="0.00135"></path>
<path d="M1.888 0.243 Q1.136 0.486 1.444 0.906" stroke="hsl(180.0,100%,35%)" stroke-width="0.00135"></path>
<path d="M1.888 0.243 Q1.365 0.198 1.161 0.443" stroke="hsl(180.0,100%,35%)" stroke-width="0.00270"></path>
<path d="M1.888 0.243 Q1.963 0.170 1.837 0.117" stroke="hsl(180.0,100%,35%)" stroke-width="0.00135"></path>
<path d="M1.888 0.243 Q1.818 0.309 1.930 0.357" stroke="hsl(180.0,100%,35%)" stroke-width="0.01352"></path>
<path d="M1.888 0.243 Q1.979 0.158 1.832 0.095" stroke="hsl(180.0,100%,35%)" stroke-width="0.00135"></path>
<path d="M1.888 0.243 Q0.903 0.407 1.005 0.923" stroke="hsl(180.0,100%,35%)" stroke-width="0.00135"></path>
<path d="M1.888 0.243 Q1.110 0.379 1.205 0.788" stroke="hsl(180.0,100%,35%)" stroke-width="0.00135"></path>
<path d="M1.688 0.424 Q1.580 0.423 1.554 0.475" stroke="hsl(0.0,100%,35%)" stroke-width="0.00135"></path>
<path d="M1.688 0.424 Q1.667 0.548 1.904 0.585" stroke="hsl(0.0,100%,35%)" stroke-width="0.00135"></path>
<path d="M1.688 0.424 Q0.949 0.228 0.404 0.545" stroke="hsl(0.0,100%,35%)" stroke-width="0.00135"></path>
<path d="M0.933 0.876 Q1.139 0.887 1.205 0.788" stroke="hsl(0.0,100%,35%)" stroke-width="0.00135"></path>
<path d="M0.933 0.876 Q0.931 0.914 1.005 0.923" stroke="hsl(0.0,100%,35%)" stroke-width="0.00135"></path>
<path d="M0.933 0.876 Q1.774 0.746 1.705 0.307" stroke="hsl(0.0,100%,35%)" stroke-width="0.00135"></path>
<path d="M1.710 0.492 Q1.697 0.555 1.818 0.576" stroke="hsl(180.0,100%,35%)" stroke-width="0.00135"></path>
<path d="M1.710 0.492 Q1.474 0.357 1.161 0.443" stroke="hsl(180.0,100%,35%)" stroke-width="0.00135"></path>
<path d="M1.710 0.492 Q1.613 0.130 0.885 0.098" stroke="hsl(180.0,100%,35%)" stroke-width="0.00135"></path>
<path d="M1.710 0.492 Q1.732 0.577 1.904 0.585" stroke="hsl(180.0,100%,35%)" stroke-width="0.00135"></path>
<path d="M1.710 0.492 Q1.720 0.522 1.781 0.524" stroke="hsl(180.0,100%,35%)" stroke-width="0.00135"></path>
<path d="M1.107 0.132 Q0.423 0.507 1.005 0.923" stroke="hsl(0.0,100%,35%)" stroke-width="0.00135"></path>
<path d="M1.107 0.132 Q0.500 0.445 0.978 0.810" stroke="hsl(0.0,100%,35%)" stroke-width="0.00135"></path>
<path d="M1.107 0.132 Q0.789 0.605 1.643 0.864" stroke="hsl(0.0,100%,35%)" stroke-width="0.00135"></path>
<path d="M1.107 0.132 Q1.066 0.204 1.197 0.240" stroke="hsl(0.0,100%,35%)" stroke-width="0.00270"></path>
<path d="M0.732 0.127 Q0.694 0.371 1.161 0.443" stroke="hsl(0.0,100%,35%)" stroke-width="0.00135"></path>
<path d="M0.732 0.127 Q0.832 0.143 0.885 0.098" stroke="hsl(0.0,100%,35%)" stroke-width="0.00135"></path>
<path d="M0.732 0.127 Q0.795 0.074 0.706 0.031" stroke="hsl(0.0,100%,35%)" stroke-width="0.00135"></path>
<path d="M0.639 0.602 Q0.773 0.809 1.205 0.788" stroke="hsl(0.0,100%,35%)" stroke-width="0.00811"></path>
<path d="M0.639 0.602 Q0.612 0.684 0.765 0.714" stroke="hsl(0.0,100%,35%)" stroke-width="0.02028"></path>
<path d="M0.639 0.602 Q0.953 0.830 1.466 0.726" stroke="hsl(0.0,100%,35%)" stroke-width="0.01217"></path>
<path d="M1.491 0.529 Q1.674 0.516 1.688 0.424" stroke="hsl(0.0,100%,35%)" stroke-width="0.00270"></path>
<path d="M1.491 0.529 Q1.512 0.480 1.420 0.459" stroke="hsl(0.0,100%,35%)" stroke-width="0.00135"></path>
<path d="M1.491 0.529 Q1.308 0.704 1.608 0.831" stroke="hsl(0.0,100%,35%)" stroke-width="0.00270"></path>
<path d="M0.835 0.403 Q0.712 0.670 1.205 0.788" stroke="hsl(180.0,100%,35%)" stroke-width="0.00270"></path>
<path d="M0.835 0.403 Q0.965 0.392 0.971 0.326" stroke="hsl(180.0,100%,35%)" stroke-width="0.00135"></path>
<path d="M0.835 0.403 Q1.489 0.534 1.888 0.243" stroke="hsl(180.0,100%,35%)" stroke-width="0.00135"></path>
<path d="M0.583 0.447 Q0.460 0.617 0.765 0.714" stroke="hsl(180.0,100%,35%)" stroke-width="0.00135"></path>
<path d="M0.583 0.447 Q1.329 0.672 1.930 0.357" stroke="hsl(180.0,100%,35%)" stroke-width="0.00135"></path>
<path d="M0.583 0.447 Q0.416 0.460 0.404 0.545" stroke="hsl(180.0,100%,35%)" stroke-width="0.00270"></path>
<path d="M0.583 0.447 Q0.876 0.561 1.161 0.443" stroke="hsl(180.0,100%,35%)" stroke-width="0.00135"></path>
<path d="M1.314 0.331 Q1.148 0.357 1.161 0.443" stroke="hsl(180.0,100%,35%)" stroke-width="0.00270"></path>
<path d="M1.314 0.331 Q0.686 0.565 1.005 0.923" stroke="hsl(180.0,100%,35%)" stroke-width="0.00135"></path>
<path d="M1.314 0.331 Q0.733 0.413 0.765 0.714" stroke="hsl(180.0,100%,35%)" stroke-width="0.00135"></path>
<path d="M1.523 0.206 Q1.486 0.165 1.399 0.175" stroke="hsl(180.0,100%,35%)" stroke-width="0.00406"></path>
<path d="M1.523 0.206 Q1.397 0.172 1.304 0.227" stroke="hsl(180.0,100%,35%)" stroke-width="0.00135"></path>
<path d="M1.523 0.206 Q0.924 0.540 1.444 0.906" stroke="hsl(180.0,100%,35%)" stroke-width="0.00135"></path>
<path d="M1.523 0.206 Q1.613 0.157 1.538 0.103" stroke="hsl(180.0,100%,35%)" stroke-width="0.00135"></path>
<path d="M1.523 0.206 Q1.633 0.171 1.590 0.110" stroke="hsl(180.0,100%,35%)" stroke-width="0.00270"></path>
<path d="M1.523 0.206 Q1.676 0.297 1.888 0.243" stroke="hsl(180.0,100%,35%)" stroke-width="0.00270"></path>
<path d="M1.523 0.206 Q1.533 0.292 1.705 0.307" stroke="hsl(180.0,100%,35%)" stroke-width="0.00270"></path>
<path d="M1.523 0.206 Q1.677 0.174 1.648 0.091" stroke="hsl(180.0,100%,35%)" stroke-width="0.00135"></path>
<path d="M0.399 0.249 Q0.371 0.680 1.205 0.788" stroke="hsl(180.0,100%,35%)" stroke-width="0.00270"></path>
<path d="M0.399 0.249 Q0.338 0.217 0.262 0.240" stroke="hsl(180.0,100%,35%)" stroke-width="0.00270"></path>
<path d="M0.399 0.249 Q0.354 0.568 0.966 0.660" stroke="hsl(180.0,100%,35%)" stroke-width="0.00135"></path>
<path d="M1.279 0.612 Q1.101 0.686 1.205 0.788" stroke="hsl(0.0,100%,35%)" stroke-width="0.02704"></path>
<path d="M1.279 0.612 Q1.068 0.222 0.262 0.240" stroke="hsl(0.0,100%,35%)" stroke-width="0.00135"></path>
<path d="M1.279 0.612 Q1.312 0.598 1.291 0.579" stroke="hsl(0.0,100%,35%)" stroke-width="0.00270"></path>
<path d="M1.279 0.612 Q0.893 0.713 1.005 0.923" stroke="hsl(0.0,100%,35%)" stroke-width="0.00135"></path>
<path d="M1.279 0.612 Q0.941 0.749 1.134 0.944" stroke="hsl(0.0,100%,35%)" stroke-width="0.00135"></path>
<path d="M1.279 0.612 Q1.356 0.504 1.161 0.443" stroke="hsl(0.0,100%,35%)" stroke-width="0.00135"></path>
<path d="M0.888 0.526 Q1.091 0.539 1.161 0.443" stroke="hsl(180.0,100%,35%)" stroke-width="0.00135"></path>
<path d="M0.888 0.526 Q0.629 0.748 1.005 0.923" stroke="hsl(180.0,100%,35%)" stroke-width="0.00135"></path>
<path d="M0.888 0.526 Q0.837 0.721 1.205 0.788" stroke="hsl(180.0,100%,35%)" stroke-width="0.00135"></path>
<path d="M1.542 0.378 Q1.610 0.362 1.592 0.325" stroke="hsl(0.0,100%,35%)" stroke-width="0.00135"></path>
<path d="M1.542 0.378 Q1.578 0.430 1.688 0.424" stroke="hsl(0.0,100%,35%)" stroke-width="0.00270"></path>
<path d="M1.542 0.378 Q1.193 0.116 0.604 0.228" stroke="hsl(0.0,100%,35%)" stroke-width="0.00135"></path>
<path d="M1.542 0.378 Q1.466 0.355 1.403 0.386" stroke="hsl(0.0,100%,35%)" stroke-width="0.00135"></path>
<path d="M0.528 0.101 Q0.284 0.117 0.262 0.240" stroke="hsl(180.0,100%,35%)" stroke-width="0.00135"></path>
<path d="M0.528 0.101 Q0.317 0.580 1.205 0.788" stroke="hsl(180.0,100%,35%)" stroke-width="0.00135"></path>
<path d="M0.528 0.101 Q1.024 0.509 1.930 0.357" stroke="hsl(180.0,100%,35%)" stroke-width="0.00135"></path>
<path d="M0.528 0.101 Q0.571 0.398 1.161 0.443" stroke="hsl(180.0,100%,35%)" stroke-width="0.00135"></path>
<path d="M0.528 0.101 Q0.109 0.607 1.005 0.923" stroke="hsl(180.0,100%,35%)" stroke-width="0.00135"></path>
</g>
<text x="1.490" y="0.633" font-size="0.013265" fill="hsl(0.0,100%,20%)">ajuma</text>
<text x="1.205" y="0.740" font-size="0.096265" fill="hsl(0.0,100%,20%)">bartekn</text>
<text x="1.691" y="0.578" font-size="0.009380" fill="hsl(0.0,100%,20%)">gab</text>
<text x="0.718" y="0.832" font-size="0.043994" fill="hsl(0.0,100%,20%)">yukishiino</text>
<text x="0.967" y="0.216" font-size="0.010831" fill="hsl(0.0,100%,20%)">andre.kempe</text>
<text x="0.262" y="0.228" font-size="0.024816" fill="hsl(180.0,100%,20%)">dcheng</text>
<text x="0.966" y="0.645" font-size="0.030634" fill="hsl(0.0,100%,20%)">glazunov</text>
<text x="1.161" y="0.427" font-size="0.031576" fill="hsl(0.0,100%,20%)">haraken</text>
<text x="0.844" y="0.237" font-size="0.007658" fill="hsl(0.0,100%,20%)">joenotcharles</text>
<text x="1.194" y="0.560" font-size="0.030634" fill="hsl(0.0,100%,20%)">arthursonzogni</text>
<text x="1.930" y="0.341" font-size="0.031109" fill="hsl(180.0,100%,20%)">danakj</text>
<text x="0.765" y="0.683" font-size="0.063615" fill="hsl(0.0,100%,20%)">tasak</text>
<text x="1.275" y="0.883" font-size="0.044656" fill="hsl(0.0,100%,20%)">keishi</text>
<text x="1.273" y="0.544" font-size="0.010831" fill="hsl(0.0,100%,20%)">pmeuleman</text>
<text x="1.005" y="0.904" font-size="0.037518" fill="hsl(0.0,100%,20%)">lizeb</text>
<text x="0.544" y="0.318" font-size="0.010831" fill="hsl(0.0,100%,20%)">avi</text>
<text x="0.604" y="0.221" font-size="0.014328" fill="hsl(0.0,100%,20%)">mark</text>
<text x="1.466" y="0.684" font-size="0.084590" fill="hsl(0.0,100%,20%)">kdlee</text>
<text x="1.131" y="0.616" font-size="0.010831" fill="hsl(0.0,100%,20%)">tsepez</text>
<text x="0.298" y="0.105" font-size="0.018759" fill="hsl(180.0,100%,20%)">paulsemel</text>
<text x="1.279" y="0.638" font-size="0.010831" fill="hsl(0.0,100%,20%)">altimin</text>
<text x="0.978" y="0.799" font-size="0.022975" fill="hsl(0.0,100%,20%)">bikineev</text>
<text x="1.768" y="0.649" font-size="0.012109" fill="hsl(0.0,100%,20%)">bgeffon</text>
<text x="0.404" y="0.537" font-size="0.016246" fill="hsl(180.0,100%,20%)">thestig</text>
<text x="1.178" y="0.625" font-size="0.009380" fill="hsl(0.0,100%,20%)">gbeaty</text>
<text x="1.049" y="0.658" font-size="0.009380" fill="hsl(0.0,100%,20%)">jochen</text>
<text x="1.294" y="0.855" font-size="0.021661" fill="hsl(0.0,100%,20%)">richard.townsend</text>
<text x="1.705" y="0.301" font-size="0.010831" fill="hsl(180.0,100%,20%)">wfh</text>
<text x="1.639" y="0.246" font-size="0.005415" fill="hsl(180.0,100%,20%)">janagrill</text>
<text x="1.888" y="0.231" font-size="0.024816" fill="hsl(180.0,100%,20%)">pkasting</text>
<text x="1.688" y="0.415" font-size="0.017961" fill="hsl(0.0,100%,20%)">fdoray</text>
<text x="1.554" y="0.472" font-size="0.005415" fill="hsl(0.0,100%,20%)">brucedawson</text>
<text x="1.904" y="0.581" font-size="0.007658" fill="hsl(180.0,100%,20%)">rsesek</text>
<text x="0.933" y="0.871" font-size="0.009380" fill="hsl(0.0,100%,20%)">floresa</text>
<text x="1.608" y="0.824" font-size="0.015317" fill="hsl(0.0,100%,20%)">mpdenton</text>
<text x="1.710" y="0.486" font-size="0.012109" fill="hsl(180.0,100%,20%)">guochengwei</text>
<text x="1.818" y="0.573" font-size="0.005415" fill="hsl(180.0,100%,20%)">dnicoara</text>
<text x="0.885" y="0.094" font-size="0.007658" fill="hsl(180.0,100%,20%)">kimstephanie</text>
<text x="1.781" y="0.521" font-size="0.005415" fill="hsl(180.0,100%,20%)">smaier</text>
<text x="1.107" y="0.126" font-size="0.013265" fill="hsl(0.0,100%,20%)">hans</text>
<text x="1.643" y="0.859" font-size="0.010831" fill="hsl(0.0,100%,20%)">mlippautz</text>
<text x="1.197" y="0.236" font-size="0.007658" fill="hsl(0.0,100%,20%)">thakis</text>
<text x="0.732" y="0.122" font-size="0.009380" fill="hsl(0.0,100%,20%)">hnakashima</text>
<text x="0.706" y="0.028" font-size="0.005415" fill="hsl(180.0,100%,20%)">thiabaud</text>
<text x="0.639" y="0.587" font-size="0.029661" fill="hsl(0.0,100%,20%)">honokaanada</text>
<text x="1.491" y="0.523" font-size="0.012109" fill="hsl(0.0,100%,20%)">jkoshy</text>
<text x="1.420" y="0.456" font-size="0.005415" fill="hsl(0.0,100%,20%)">anasalazar</text>
<text x="1.444" y="0.900" font-size="0.012109" fill="hsl(180.0,100%,20%)">kylechar</text>
<text x="1.598" y="0.801" font-size="0.005415" fill="hsl(0.0,100%,20%)">danilchap</text>
<text x="1.645" y="0.657" font-size="0.007658" fill="hsl(0.0,100%,20%)">sdefresne</text>
<text x="1.291" y="0.574" font-size="0.009380" fill="hsl(0.0,100%,20%)">leszeks</text>
<text x="1.627" y="0.831" font-size="0.009380" fill="hsl(0.0,100%,20%)">tkent</text>
<text x="0.633" y="0.855" font-size="0.007658" fill="hsl(0.0,100%,20%)">etienneb</text>
<text x="1.374" y="0.619" font-size="0.007658" fill="hsl(0.0,100%,20%)">metzman</text>
<text x="1.554" y="-1.197" font-size="0.005415" fill="hsl(0.0,100%,20%)">erikchen</text>
<text x="1.039" y="0.928" font-size="0.005415" fill="hsl(0.0,100%,20%)">ccameron</text>
<text x="1.301" y="0.969" font-size="0.005415" fill="hsl(0.0,100%,20%)">rakina</text>
<text x="1.671" y="0.950" font-size="0.005415" fill="hsl(0.0,100%,20%)">wrong</text>
<text x="1.134" y="0.940" font-size="0.009380" fill="hsl(0.0,100%,20%)">ssid</text>
<text x="0.835" y="0.398" font-size="0.010831" fill="hsl(180.0,100%,20%)">marshall</text>
<text x="0.971" y="0.324" font-size="0.005415" fill="hsl(180.0,100%,20%)">perrier</text>
<text x="0.583" y="0.441" font-size="0.012109" fill="hsl(180.0,100%,20%)">pbos</text>
<text x="1.837" y="0.114" font-size="0.005415" fill="hsl(180.0,100%,20%)">agrieve</text>
<text x="1.832" y="0.092" font-size="0.005415" fill="hsl(180.0,100%,20%)">wittman</text>
<text x="1.314" y="0.326" font-size="0.010831" fill="hsl(180.0,100%,20%)">qitiezheng</text>
<text x="1.523" y="0.196" font-size="0.019525" fill="hsl(180.0,100%,20%)">rwkeane</text>
<text x="1.399" y="0.170" font-size="0.009380" fill="hsl(180.0,100%,20%)">ajgo</text>
<text x="1.304" y="0.224" font-size="0.005415" fill="hsl(180.0,100%,20%)">ddorwin</text>
<text x="1.538" y="0.100" font-size="0.005415" fill="hsl(180.0,100%,20%)">mfoltz</text>
<text x="1.590" y="0.107" font-size="0.007658" fill="hsl(180.0,100%,20%)">jshin</text>
<text x="1.648" y="0.089" font-size="0.005415" fill="hsl(180.0,100%,20%)">kmarshall</text>
<text x="0.399" y="0.243" font-size="0.012109" fill="hsl(180.0,100%,20%)">saelo</text>
<text x="1.279" y="0.598" font-size="0.027613" fill="hsl(0.0,100%,20%)">sroettger</text>
<text x="0.888" y="0.521" font-size="0.009380" fill="hsl(180.0,100%,20%)">stha09</text>
<text x="0.993" y="0.619" font-size="0.007658" fill="hsl(0.0,100%,20%)">boliu</text>
<text x="0.540" y="0.791" font-size="0.005415" fill="hsl(0.0,100%,20%)">tikuta</text>
<text x="1.542" y="0.372" font-size="0.012109" fill="hsl(0.0,100%,20%)">vollick</text>
<text x="1.592" y="0.322" font-size="0.005415" fill="hsl(0.0,100%,20%)">dtapuska</text>
<text x="1.403" y="0.383" font-size="0.005415" fill="hsl(0.0,100%,20%)">anthonyvd</text>
<text x="0.528" y="0.095" font-size="0.012109" fill="hsl(180.0,100%,20%)">wangqing-hf</text>
<text x="0.284" y="0.735" font-size="0.005415" fill="hsl(0.0,100%,20%)">rockot</text>
<text x="0.386" y="0.729" font-size="0.005415" fill="hsl(0.0,100%,20%)">rohitrao</text>
<text x="0.322" y="0.813" font-size="0.005415" fill="hsl(0.0,100%,20%)">mamir</text>
<text x="0.399" y="0.877" font-size="0.005415" fill="hsl(0.0,100%,20%)">meacer</text>
<text x="0.462" y="0.799" font-size="0.005415" fill="hsl(0.0,100%,20%)">victortan</text>
</svg>
