<svg width="4000" height="2000" viewBox="-0.025 -0.025 2.05 1.05" xmlns="http://www.w3.org/2000/svg">
  <style>
    path {
      fill: none;
      stroke-linecap: round;
      stroke-opacity: 0.4;
    }

    text {
      text-anchor: middle;
      alignment-baseline: hanging;
    }
  </style>
  <g opacity="0.4">
<path d="M0.795 0.355 Q0.825 0.438 0.993 0.441" stroke="hsl(0.0,100%,35%)" stroke-width="0.00114"></path>
<path d="M0.795 0.355 Q0.647 0.419 0.740 0.505" stroke="hsl(0.0,100%,35%)" stroke-width="0.00114"></path>
<path d="M0.795 0.355 Q0.711 0.225 0.439 0.238" stroke="hsl(0.0,100%,35%)" stroke-width="0.00114"></path>
<path d="M0.993 0.441 Q0.815 0.423 0.740 0.505" stroke="hsl(0.0,100%,35%)" stroke-width="0.04889"></path>
<path d="M0.993 0.441 Q1.292 0.361 1.200 0.197" stroke="hsl(0.0,100%,35%)" stroke-width="0.01933"></path>
<path d="M0.993 0.441 Q0.964 0.359 0.795 0.355" stroke="hsl(0.0,100%,35%)" stroke-width="0.00227"></path>
<path d="M0.993 0.441 Q1.050 0.519 1.214 0.508" stroke="hsl(0.0,100%,35%)" stroke-width="0.00796"></path>
<path d="M0.993 0.441 Q0.358 0.416 0.169 0.721" stroke="hsl(0.0,100%,35%)" stroke-width="0.00227"></path>
<path d="M0.993 0.441 Q0.891 0.337 0.666 0.364" stroke="hsl(0.0,100%,35%)" stroke-width="0.00910"></path>
<path d="M0.993 0.441 Q1.061 0.370 0.936 0.321" stroke="hsl(0.0,100%,35%)" stroke-width="0.00114"></path>
<path d="M0.993 0.441 Q0.760 0.452 0.728 0.568" stroke="hsl(0.0,100%,35%)" stroke-width="0.00114"></path>
<path d="M0.993 0.441 Q0.879 0.229 0.439 0.238" stroke="hsl(0.0,100%,35%)" stroke-width="0.01819"></path>
<path d="M0.993 0.441 Q0.927 0.498 1.023 0.543" stroke="hsl(0.0,100%,35%)" stroke-width="0.00682"></path>
<path d="M0.993 0.441 Q0.888 0.544 1.065 0.617" stroke="hsl(0.0,100%,35%)" stroke-width="0.00114"></path>
<path d="M0.993 0.441 Q1.209 0.404 1.185 0.291" stroke="hsl(0.0,100%,35%)" stroke-width="0.03866"></path>
<path d="M0.993 0.441 Q1.164 0.448 1.215 0.366" stroke="hsl(0.0,100%,35%)" stroke-width="0.00114"></path>
<path d="M0.993 0.441 Q1.296 0.480 1.438 0.341" stroke="hsl(0.0,100%,35%)" stroke-width="0.00227"></path>
<path d="M0.993 0.441 Q0.733 0.652 1.086 0.825" stroke="hsl(0.0,100%,35%)" stroke-width="0.00114"></path>
<path d="M0.993 0.441 Q0.982 0.652 1.391 0.704" stroke="hsl(0.0,100%,35%)" stroke-width="0.00114"></path>
<path d="M0.993 0.441 Q1.031 0.317 0.797 0.272" stroke="hsl(0.0,100%,35%)" stroke-width="0.00227"></path>
<path d="M0.993 0.441 Q0.761 0.483 0.792 0.606" stroke="hsl(0.0,100%,35%)" stroke-width="0.00114"></path>
<path d="M0.993 0.441 Q1.087 0.319 0.868 0.246" stroke="hsl(0.0,100%,35%)" stroke-width="0.00227"></path>
<path d="M0.993 0.441 Q0.968 0.533 1.140 0.565" stroke="hsl(0.0,100%,35%)" stroke-width="0.01364"></path>
<path d="M0.993 0.441 Q0.926 0.145 0.333 0.112" stroke="hsl(0.0,100%,35%)" stroke-width="0.00227"></path>
<path d="M0.993 0.441 Q0.937 0.471 0.984 0.505" stroke="hsl(0.0,100%,35%)" stroke-width="0.00227"></path>
<path d="M0.993 0.441 Q0.912 0.412 0.836 0.445" stroke="hsl(0.0,100%,35%)" stroke-width="0.00227"></path>
<path d="M0.993 0.441 Q0.617 0.658 0.956 0.889" stroke="hsl(0.0,100%,35%)" stroke-width="0.00114"></path>
<path d="M0.993 0.441 Q1.269 0.755 1.942 0.690" stroke="hsl(0.0,100%,35%)" stroke-width="0.00114"></path>
<path d="M0.993 0.441 Q0.906 0.533 1.065 0.595" stroke="hsl(0.0,100%,35%)" stroke-width="0.00114"></path>
<path d="M0.993 0.441 Q1.095 0.315 0.871 0.238" stroke="hsl(0.0,100%,35%)" stroke-width="0.00114"></path>
<path d="M0.993 0.441 Q1.082 0.596 1.402 0.586" stroke="hsl(0.0,100%,35%)" stroke-width="0.00114"></path>
<path d="M0.993 0.441 Q0.961 0.360 0.795 0.358" stroke="hsl(0.0,100%,35%)" stroke-width="0.00227"></path>
<path d="M0.993 0.441 Q0.979 0.540 1.168 0.568" stroke="hsl(0.0,100%,35%)" stroke-width="0.00227"></path>
<path d="M0.993 0.441 Q0.927 0.472 0.973 0.512" stroke="hsl(0.0,100%,35%)" stroke-width="0.00114"></path>
<path d="M0.993 0.441 Q0.914 0.603 1.212 0.677" stroke="hsl(0.0,100%,35%)" stroke-width="0.00114"></path>
<path d="M0.993 0.441 Q0.337 0.553 0.412 0.898" stroke="hsl(0.0,100%,35%)" stroke-width="0.00114"></path>
<path d="M0.993 0.441 Q0.982 0.495 1.084 0.512" stroke="hsl(0.0,100%,35%)" stroke-width="0.00227"></path>
<path d="M0.993 0.441 Q1.139 0.287 0.870 0.182" stroke="hsl(0.0,100%,35%)" stroke-width="0.00114"></path>
<path d="M0.993 0.441 Q1.040 0.327 0.827 0.280" stroke="hsl(0.0,100%,35%)" stroke-width="0.00114"></path>
<path d="M0.740 0.505 Q0.823 0.566 0.959 0.539" stroke="hsl(0.0,100%,35%)" stroke-width="0.01251"></path>
<path d="M0.740 0.505 Q0.828 0.486 0.809 0.439" stroke="hsl(0.0,100%,35%)" stroke-width="0.00341"></path>
<path d="M0.740 0.505 Q0.918 0.524 0.993 0.441" stroke="hsl(0.0,100%,35%)" stroke-width="0.05799"></path>
<path d="M0.740 0.505 Q1.134 0.487 1.185 0.291" stroke="hsl(0.0,100%,35%)" stroke-width="0.03866"></path>
<path d="M0.740 0.505 Q0.816 0.420 0.666 0.364" stroke="hsl(0.0,100%,35%)" stroke-width="0.03639"></path>
<path d="M0.740 0.505 Q0.678 0.556 0.762 0.597" stroke="hsl(0.0,100%,35%)" stroke-width="0.00114"></path>
<path d="M0.740 0.505 Q0.673 0.548 0.742 0.590" stroke="hsl(0.0,100%,35%)" stroke-width="0.00341"></path>
<path d="M0.740 0.505 Q1.217 0.443 1.200 0.197" stroke="hsl(0.0,100%,35%)" stroke-width="0.00114"></path>
<path d="M0.740 0.505 Q0.751 0.540 0.822 0.542" stroke="hsl(0.0,100%,35%)" stroke-width="0.00114"></path>
<path d="M0.740 0.505 Q0.628 0.536 0.662 0.597" stroke="hsl(0.0,100%,35%)" stroke-width="0.00114"></path>
<path d="M0.740 0.505 Q0.975 0.602 1.214 0.508" stroke="hsl(0.0,100%,35%)" stroke-width="0.00569"></path>
<path d="M0.740 0.505 Q0.804 0.311 0.439 0.238" stroke="hsl(0.0,100%,35%)" stroke-width="0.00341"></path>
<path d="M0.740 0.505 Q0.892 0.616 1.140 0.565" stroke="hsl(0.0,100%,35%)" stroke-width="0.00227"></path>
<path d="M0.740 0.505 Q0.702 0.435 0.556 0.438" stroke="hsl(0.0,100%,35%)" stroke-width="0.00114"></path>
<path d="M0.740 0.505 Q1.194 0.838 1.942 0.690" stroke="hsl(0.0,100%,35%)" stroke-width="0.00114"></path>
<path d="M0.740 0.505 Q0.694 0.572 0.813 0.609" stroke="hsl(0.0,100%,35%)" stroke-width="0.00114"></path>
<path d="M0.740 0.505 Q0.686 0.566 0.792 0.606" stroke="hsl(0.0,100%,35%)" stroke-width="0.00341"></path>
<path d="M0.740 0.505 Q0.190 0.506 0.070 0.775" stroke="hsl(0.0,100%,35%)" stroke-width="0.00227"></path>
<path d="M0.740 0.505 Q0.698 0.437 0.554 0.442" stroke="hsl(0.0,100%,35%)" stroke-width="0.00114"></path>
<path d="M0.740 0.505 Q1.089 0.531 1.215 0.366" stroke="hsl(0.0,100%,35%)" stroke-width="0.00114"></path>
<path d="M0.740 0.505 Q1.061 0.819 1.744 0.731" stroke="hsl(0.0,100%,35%)" stroke-width="0.00114"></path>
<path d="M0.740 0.505 Q0.684 0.534 0.728 0.568" stroke="hsl(0.0,100%,35%)" stroke-width="0.00114"></path>
<path d="M0.740 0.505 Q0.707 0.564 0.814 0.594" stroke="hsl(0.0,100%,35%)" stroke-width="0.00114"></path>
<path d="M0.740 0.505 Q0.579 0.821 1.159 0.968" stroke="hsl(0.0,100%,35%)" stroke-width="0.00114"></path>
<path d="M0.439 0.238 Q0.487 0.153 0.333 0.112" stroke="hsl(0.0,100%,35%)" stroke-width="0.05117"></path>
<path d="M0.439 0.238 Q0.553 0.450 0.993 0.441" stroke="hsl(0.0,100%,35%)" stroke-width="0.02615"></path>
<path d="M0.439 0.238 Q0.769 0.413 1.185 0.291" stroke="hsl(0.0,100%,35%)" stroke-width="0.02047"></path>
<path d="M0.439 0.238 Q0.610 0.528 1.214 0.508" stroke="hsl(0.0,100%,35%)" stroke-width="0.00114"></path>
<path d="M0.439 0.238 Q0.376 0.432 0.740 0.505" stroke="hsl(0.0,100%,35%)" stroke-width="0.00341"></path>
<path d="M0.439 0.238 Q0.657 0.177 0.587 0.058" stroke="hsl(0.0,100%,35%)" stroke-width="0.00114"></path>
<path d="M0.439 0.238 Q0.370 0.221 0.323 0.251" stroke="hsl(0.0,100%,35%)" stroke-width="0.00114"></path>
<path d="M0.439 0.238 Q0.692 0.198 0.670 0.065" stroke="hsl(0.0,100%,35%)" stroke-width="0.00227"></path>
<path d="M0.439 0.238 Q0.647 0.328 0.868 0.246" stroke="hsl(0.0,100%,35%)" stroke-width="0.00114"></path>
<path d="M1.750 0.936 Q1.753 0.635 1.168 0.568" stroke="hsl(120.0,100%,35%)" stroke-width="0.00114"></path>
<path d="M1.750 0.936 Q1.860 0.923 1.860 0.867" stroke="hsl(120.0,100%,35%)" stroke-width="0.00114"></path>
<path d="M1.750 0.936 Q1.039 0.519 0.070 0.775" stroke="hsl(120.0,100%,35%)" stroke-width="0.00114"></path>
<path d="M1.750 0.936 Q1.983 0.500 1.185 0.291" stroke="hsl(120.0,100%,35%)" stroke-width="0.00227"></path>
<path d="M1.750 0.936 Q1.767 0.537 0.993 0.441" stroke="hsl(120.0,100%,35%)" stroke-width="0.00114"></path>
<path d="M1.750 0.936 Q1.700 0.240 0.333 0.112" stroke="hsl(120.0,100%,35%)" stroke-width="0.00114"></path>
<path d="M1.750 0.936 Q1.507 0.747 1.086 0.825" stroke="hsl(120.0,100%,35%)" stroke-width="0.00114"></path>
<path d="M0.070 0.775 Q0.163 0.768 0.169 0.721" stroke="hsl(0.0,100%,35%)" stroke-width="0.00227"></path>
<path d="M0.070 0.775 Q0.900 0.666 0.871 0.238" stroke="hsl(0.0,100%,35%)" stroke-width="0.00114"></path>
<path d="M0.070 0.775 Q0.708 0.755 0.809 0.439" stroke="hsl(0.0,100%,35%)" stroke-width="0.00114"></path>
<path d="M1.215 0.366 Q1.043 0.359 0.993 0.441" stroke="hsl(0.0,100%,35%)" stroke-width="0.00455"></path>
<path d="M1.215 0.366 Q1.260 0.322 1.185 0.291" stroke="hsl(0.0,100%,35%)" stroke-width="0.00341"></path>
<path d="M1.215 0.366 Q0.977 0.416 1.023 0.543" stroke="hsl(0.0,100%,35%)" stroke-width="0.00227"></path>
<path d="M1.215 0.366 Q0.866 0.341 0.740 0.505" stroke="hsl(0.0,100%,35%)" stroke-width="0.00114"></path>
<path d="M1.391 0.704 Q1.224 0.475 0.740 0.505" stroke="hsl(120.0,100%,35%)" stroke-width="0.00114"></path>
<path d="M1.391 0.704 Q1.322 0.655 1.212 0.677" stroke="hsl(120.0,100%,35%)" stroke-width="0.00455"></path>
<path d="M1.391 0.704 Q1.266 0.826 1.477 0.914" stroke="hsl(120.0,100%,35%)" stroke-width="0.00114"></path>
<path d="M1.391 0.704 Q1.477 0.684 1.457 0.638" stroke="hsl(120.0,100%,35%)" stroke-width="0.00114"></path>
<path d="M1.391 0.704 Q1.351 0.800 1.529 0.840" stroke="hsl(120.0,100%,35%)" stroke-width="0.00114"></path>
<path d="M1.391 0.704 Q1.291 0.730 1.320 0.784" stroke="hsl(120.0,100%,35%)" stroke-width="0.00114"></path>
<path d="M1.391 0.704 Q1.312 0.455 0.809 0.439" stroke="hsl(120.0,100%,35%)" stroke-width="0.00114"></path>
<path d="M1.391 0.704 Q1.277 0.760 1.361 0.827" stroke="hsl(120.0,100%,35%)" stroke-width="0.00114"></path>
<path d="M1.391 0.704 Q1.215 0.696 1.161 0.780" stroke="hsl(120.0,100%,35%)" stroke-width="0.00114"></path>
<path d="M1.391 0.704 Q1.388 0.591 1.168 0.568" stroke="hsl(120.0,100%,35%)" stroke-width="0.00114"></path>
<path d="M1.391 0.704 Q1.459 0.571 1.214 0.508" stroke="hsl(120.0,100%,35%)" stroke-width="0.00114"></path>
<path d="M1.200 0.197 Q0.901 0.278 0.993 0.441" stroke="hsl(0.0,100%,35%)" stroke-width="0.02274"></path>
<path d="M1.200 0.197 Q0.799 0.174 0.666 0.364" stroke="hsl(0.0,100%,35%)" stroke-width="0.01592"></path>
<path d="M1.200 0.197 Q1.117 0.241 1.185 0.291" stroke="hsl(0.0,100%,35%)" stroke-width="0.01933"></path>
<path d="M1.200 0.197 Q0.787 0.065 0.439 0.238" stroke="hsl(0.0,100%,35%)" stroke-width="0.00227"></path>
<path d="M1.200 0.197 Q0.723 0.259 0.740 0.505" stroke="hsl(0.0,100%,35%)" stroke-width="0.00910"></path>
<path d="M1.200 0.197 Q0.969 0.206 0.936 0.321" stroke="hsl(0.0,100%,35%)" stroke-width="0.00114"></path>
<path d="M1.200 0.197 Q0.958 0.356 1.214 0.508" stroke="hsl(0.0,100%,35%)" stroke-width="0.00227"></path>
<path d="M1.200 0.197 Q1.229 0.161 1.166 0.140" stroke="hsl(0.0,100%,35%)" stroke-width="0.00114"></path>
<path d="M1.200 0.197 Q0.876 0.369 1.140 0.565" stroke="hsl(0.0,100%,35%)" stroke-width="0.00114"></path>
<path d="M1.200 0.197 Q0.834 -0.019 0.333 0.112" stroke="hsl(0.0,100%,35%)" stroke-width="0.00227"></path>
<path d="M0.666 0.364 Q0.768 0.468 0.993 0.441" stroke="hsl(0.0,100%,35%)" stroke-width="0.03752"></path>
<path d="M0.666 0.364 Q0.835 0.397 0.936 0.321" stroke="hsl(0.0,100%,35%)" stroke-width="0.00682"></path>
<path d="M0.666 0.364 Q0.633 0.295 0.492 0.296" stroke="hsl(0.0,100%,35%)" stroke-width="0.00114"></path>
<path d="M0.666 0.364 Q1.066 0.387 1.200 0.197" stroke="hsl(0.0,100%,35%)" stroke-width="0.01023"></path>
<path d="M0.666 0.364 Q0.984 0.431 1.185 0.291" stroke="hsl(0.0,100%,35%)" stroke-width="0.01364"></path>
<path d="M0.666 0.364 Q0.590 0.450 0.740 0.505" stroke="hsl(0.0,100%,35%)" stroke-width="0.03411"></path>
<path d="M0.666 0.364 Q0.805 0.344 0.797 0.272" stroke="hsl(0.0,100%,35%)" stroke-width="0.00114"></path>
<path d="M0.666 0.364 Q0.701 0.171 0.333 0.112" stroke="hsl(0.0,100%,35%)" stroke-width="0.00114"></path>
<path d="M0.666 0.364 Q0.824 0.546 1.214 0.508" stroke="hsl(0.0,100%,35%)" stroke-width="0.00227"></path>
<path d="M0.666 0.364 Q0.654 0.256 0.439 0.238" stroke="hsl(0.0,100%,35%)" stroke-width="0.00114"></path>
<path d="M0.666 0.364 Q0.836 0.823 1.769 0.841" stroke="hsl(0.0,100%,35%)" stroke-width="0.00114"></path>
<path d="M0.936 0.321 Q0.869 0.393 0.993 0.441" stroke="hsl(0.0,100%,35%)" stroke-width="0.05003"></path>
<path d="M0.936 0.321 Q1.167 0.312 1.200 0.197" stroke="hsl(0.0,100%,35%)" stroke-width="0.01023"></path>
<path d="M0.936 0.321 Q0.789 0.555 1.212 0.677" stroke="hsl(0.0,100%,35%)" stroke-width="0.00114"></path>
<path d="M0.936 0.321 Q0.767 0.289 0.666 0.364" stroke="hsl(0.0,100%,35%)" stroke-width="0.03752"></path>
<path d="M0.936 0.321 Q0.787 0.363 0.836 0.445" stroke="hsl(0.0,100%,35%)" stroke-width="0.00227"></path>
<path d="M0.936 0.321 Q1.085 0.356 1.185 0.291" stroke="hsl(0.0,100%,35%)" stroke-width="0.01933"></path>
<path d="M0.936 0.321 Q0.958 0.275 0.872 0.255" stroke="hsl(0.0,100%,35%)" stroke-width="0.00114"></path>
<path d="M0.936 0.321 Q1.031 0.301 1.012 0.250" stroke="hsl(0.0,100%,35%)" stroke-width="0.00114"></path>
<path d="M0.936 0.321 Q0.926 0.470 1.214 0.508" stroke="hsl(0.0,100%,35%)" stroke-width="0.00341"></path>
<path d="M0.936 0.321 Q0.971 0.267 0.871 0.238" stroke="hsl(0.0,100%,35%)" stroke-width="0.00227"></path>
<path d="M0.936 0.321 Q0.802 0.096 0.333 0.112" stroke="hsl(0.0,100%,35%)" stroke-width="0.00114"></path>
<path d="M0.936 0.321 Q0.608 0.603 1.086 0.825" stroke="hsl(0.0,100%,35%)" stroke-width="0.00114"></path>
<path d="M0.936 0.321 Q0.843 0.484 1.140 0.565" stroke="hsl(0.0,100%,35%)" stroke-width="0.00341"></path>
<path d="M0.936 0.321 Q0.691 0.374 0.740 0.505" stroke="hsl(0.0,100%,35%)" stroke-width="0.00227"></path>
<path d="M1.438 0.341 Q1.135 0.302 0.993 0.441" stroke="hsl(0.0,100%,35%)" stroke-width="0.00227"></path>
<path d="M1.438 0.341 Q1.351 0.265 1.185 0.291" stroke="hsl(0.0,100%,35%)" stroke-width="0.00227"></path>
<path d="M1.438 0.341 Q1.192 0.380 1.214 0.508" stroke="hsl(0.0,100%,35%)" stroke-width="0.00114"></path>
<path d="M1.140 0.565 Q1.166 0.474 0.993 0.441" stroke="hsl(0.0,100%,35%)" stroke-width="0.00682"></path>
<path d="M1.140 0.565 Q0.988 0.455 0.740 0.505" stroke="hsl(0.0,100%,35%)" stroke-width="0.00341"></path>
<path d="M1.140 0.565 Q0.934 0.516 0.792 0.606" stroke="hsl(0.0,100%,35%)" stroke-width="0.00227"></path>
<path d="M1.140 0.565 Q1.052 0.261 0.439 0.238" stroke="hsl(0.0,100%,35%)" stroke-width="0.00227"></path>
<path d="M1.140 0.565 Q1.382 0.437 1.185 0.291" stroke="hsl(0.0,100%,35%)" stroke-width="0.00227"></path>
<path d="M1.140 0.565 Q1.014 0.591 1.037 0.659" stroke="hsl(0.0,100%,35%)" stroke-width="0.00114"></path>
<path d="M1.140 0.565 Q1.203 0.350 0.797 0.272" stroke="hsl(0.0,100%,35%)" stroke-width="0.00114"></path>
<path d="M0.956 0.889 Q1.155 0.654 0.740 0.505" stroke="hsl(120.0,100%,35%)" stroke-width="0.00114"></path>
<path d="M0.956 0.889 Q0.917 0.943 1.015 0.974" stroke="hsl(120.0,100%,35%)" stroke-width="0.00114"></path>
<path d="M0.956 0.889 Q1.253 0.834 1.212 0.677" stroke="hsl(120.0,100%,35%)" stroke-width="0.00114"></path>
<path d="M0.956 0.889 Q0.994 0.969 1.159 0.968" stroke="hsl(120.0,100%,35%)" stroke-width="0.00341"></path>
<path d="M0.956 0.889 Q1.321 0.883 1.391 0.704" stroke="hsl(120.0,100%,35%)" stroke-width="0.00227"></path>
<path d="M0.956 0.889 Q1.072 0.883 1.086 0.825" stroke="hsl(120.0,100%,35%)" stroke-width="0.00114"></path>
<path d="M1.942 0.690 Q1.992 0.629 1.884 0.591" stroke="hsl(0.0,100%,35%)" stroke-width="0.00114"></path>
<path d="M1.942 0.690 Q1.488 0.357 0.740 0.505" stroke="hsl(0.0,100%,35%)" stroke-width="0.00114"></path>
<path d="M1.942 0.690 Q1.864 0.737 1.938 0.785" stroke="hsl(0.0,100%,35%)" stroke-width="0.00114"></path>
<path d="M1.159 0.968 Q1.498 0.672 0.993 0.441" stroke="hsl(120.0,100%,35%)" stroke-width="0.00227"></path>
<path d="M1.159 0.968 Q1.714 0.635 1.185 0.291" stroke="hsl(120.0,100%,35%)" stroke-width="0.00227"></path>
<path d="M1.159 0.968 Q1.320 0.653 0.740 0.505" stroke="hsl(120.0,100%,35%)" stroke-width="0.00114"></path>
<path d="M1.159 0.968 Q1.295 1.011 1.408 0.954" stroke="hsl(120.0,100%,35%)" stroke-width="0.00114"></path>
<path d="M1.159 0.968 Q1.121 0.888 0.956 0.889" stroke="hsl(120.0,100%,35%)" stroke-width="0.00114"></path>
<path d="M0.758 0.685 Q1.215 0.905 1.744 0.731" stroke="hsl(120.0,100%,35%)" stroke-width="0.00227"></path>
<path d="M0.758 0.685 Q1.287 0.573 1.185 0.291" stroke="hsl(120.0,100%,35%)" stroke-width="0.00227"></path>
<path d="M0.758 0.685 Q0.893 0.592 0.740 0.505" stroke="hsl(120.0,100%,35%)" stroke-width="0.00114"></path>
<path d="M0.758 0.685 Q0.716 0.588 0.515 0.587" stroke="hsl(120.0,100%,35%)" stroke-width="0.00114"></path>
<path d="M0.758 0.685 Q0.718 0.631 0.602 0.638" stroke="hsl(120.0,100%,35%)" stroke-width="0.00114"></path>
<path d="M0.758 0.685 Q0.868 0.715 0.950 0.668" stroke="hsl(120.0,100%,35%)" stroke-width="0.00114"></path>
<path d="M0.758 0.685 Q0.695 0.612 0.539 0.627" stroke="hsl(120.0,100%,35%)" stroke-width="0.00114"></path>
<path d="M0.758 0.685 Q0.738 0.635 0.635 0.634" stroke="hsl(120.0,100%,35%)" stroke-width="0.00114"></path>
<path d="M0.758 0.685 Q0.724 0.562 0.476 0.552" stroke="hsl(120.0,100%,35%)" stroke-width="0.00114"></path>
<path d="M0.758 0.685 Q0.799 0.719 0.874 0.706" stroke="hsl(120.0,100%,35%)" stroke-width="0.00114"></path>
<path d="M0.758 0.685 Q0.775 0.713 0.832 0.711" stroke="hsl(120.0,100%,35%)" stroke-width="0.00114"></path>
<path d="M0.758 0.685 Q0.857 0.739 0.983 0.702" stroke="hsl(120.0,100%,35%)" stroke-width="0.00114"></path>
<path d="M0.758 0.685 Q0.661 0.654 0.578 0.694" stroke="hsl(120.0,100%,35%)" stroke-width="0.00114"></path>
<path d="M0.758 0.685 Q0.343 0.592 0.070 0.775" stroke="hsl(120.0,100%,35%)" stroke-width="0.00114"></path>
<path d="M1.744 0.731 Q1.600 0.436 0.993 0.441" stroke="hsl(120.0,100%,35%)" stroke-width="0.00114"></path>
<path d="M1.744 0.731 Q0.872 0.418 0.070 0.775" stroke="hsl(120.0,100%,35%)" stroke-width="0.00114"></path>
<path d="M1.744 0.731 Q1.589 0.647 1.391 0.704" stroke="hsl(120.0,100%,35%)" stroke-width="0.00114"></path>
<path d="M1.744 0.731 Q1.668 0.791 1.769 0.841" stroke="hsl(120.0,100%,35%)" stroke-width="0.00114"></path>
<path d="M1.744 0.731 Q1.175 0.559 0.716 0.799" stroke="hsl(120.0,100%,35%)" stroke-width="0.00114"></path>
<path d="M1.744 0.731 Q1.486 0.223 0.439 0.238" stroke="hsl(120.0,100%,35%)" stroke-width="0.00114"></path>
<path d="M1.744 0.731 Q1.510 0.398 0.809 0.439" stroke="hsl(120.0,100%,35%)" stroke-width="0.00114"></path>
<path d="M1.744 0.731 Q1.815 0.665 1.702 0.616" stroke="hsl(120.0,100%,35%)" stroke-width="0.00114"></path>
<path d="M1.744 0.731 Q1.816 0.399 1.185 0.291" stroke="hsl(120.0,100%,35%)" stroke-width="0.00114"></path>
<path d="M1.744 0.731 Q1.340 0.646 1.086 0.825" stroke="hsl(120.0,100%,35%)" stroke-width="0.00114"></path>
<path d="M0.518 0.163 Q0.419 0.185 0.439 0.238" stroke="hsl(0.0,100%,35%)" stroke-width="0.00114"></path>
<path d="M0.518 0.163 Q0.749 0.360 1.185 0.291" stroke="hsl(0.0,100%,35%)" stroke-width="0.00114"></path>
<path d="M0.518 0.163 Q0.466 0.101 0.333 0.112" stroke="hsl(0.0,100%,35%)" stroke-width="0.00114"></path>
<path d="M0.101 0.286 Q0.152 0.365 0.319 0.358" stroke="hsl(240.0,100%,35%)" stroke-width="0.00114"></path>
<path d="M0.101 0.286 Q0.639 0.505 1.185 0.291" stroke="hsl(240.0,100%,35%)" stroke-width="0.00114"></path>
<path d="M0.101 0.286 Q0.040 0.318 0.090 0.355" stroke="hsl(240.0,100%,35%)" stroke-width="0.00114"></path>
<path d="M0.188 0.608 Q0.547 0.667 0.740 0.505" stroke="hsl(120.0,100%,35%)" stroke-width="0.00341"></path>
<path d="M0.188 0.608 Q0.289 0.618 0.330 0.571" stroke="hsl(120.0,100%,35%)" stroke-width="0.00227"></path>
<path d="M0.188 0.608 Q0.094 0.604 0.064 0.649" stroke="hsl(120.0,100%,35%)" stroke-width="0.00227"></path>
<path d="M0.959 0.539 Q0.877 0.478 0.740 0.505" stroke="hsl(0.0,100%,35%)" stroke-width="0.01819"></path>
<path d="M0.959 0.539 Q1.271 0.460 1.185 0.291" stroke="hsl(0.0,100%,35%)" stroke-width="0.00682"></path>
<path d="M0.959 0.539 Q0.955 0.572 1.018 0.581" stroke="hsl(0.0,100%,35%)" stroke-width="0.00114"></path>
<path d="M0.959 0.539 Q0.721 0.522 0.635 0.634" stroke="hsl(0.0,100%,35%)" stroke-width="0.00114"></path>
<path d="M0.959 0.539 Q0.326 0.479 0.070 0.775" stroke="hsl(0.0,100%,35%)" stroke-width="0.00114"></path>
<path d="M0.959 0.539 Q1.002 0.640 1.209 0.642" stroke="hsl(0.0,100%,35%)" stroke-width="0.00227"></path>
<path d="M0.959 0.539 Q0.822 0.539 0.792 0.606" stroke="hsl(0.0,100%,35%)" stroke-width="0.00227"></path>
<path d="M0.959 0.539 Q1.157 0.617 1.352 0.538" stroke="hsl(0.0,100%,35%)" stroke-width="0.00114"></path>
<path d="M0.716 0.799 Q1.061 0.838 1.212 0.677" stroke="hsl(120.0,100%,35%)" stroke-width="0.00341"></path>
<path d="M0.716 0.799 Q1.141 0.676 0.993 0.441" stroke="hsl(120.0,100%,35%)" stroke-width="0.00114"></path>
<path d="M0.716 0.799 Q0.598 0.724 0.425 0.765" stroke="hsl(120.0,100%,35%)" stroke-width="0.00227"></path>
<path d="M0.716 0.799 Q1.198 0.753 1.214 0.508" stroke="hsl(120.0,100%,35%)" stroke-width="0.00227"></path>
<path d="M0.716 0.799 Q0.605 0.837 0.654 0.899" stroke="hsl(120.0,100%,35%)" stroke-width="0.00227"></path>
<path d="M0.716 0.799 Q1.178 0.552 0.797 0.272" stroke="hsl(120.0,100%,35%)" stroke-width="0.00114"></path>
<path d="M0.716 0.799 Q0.880 0.886 1.086 0.825" stroke="hsl(120.0,100%,35%)" stroke-width="0.00114"></path>
<path d="M0.716 0.799 Q0.653 0.851 0.741 0.893" stroke="hsl(120.0,100%,35%)" stroke-width="0.00227"></path>
<path d="M0.716 0.799 Q1.085 0.706 0.984 0.505" stroke="hsl(120.0,100%,35%)" stroke-width="0.00114"></path>
<path d="M0.716 0.799 Q1.357 0.639 1.185 0.291" stroke="hsl(120.0,100%,35%)" stroke-width="0.00114"></path>
<path d="M0.716 0.799 Q0.484 0.788 0.412 0.898" stroke="hsl(120.0,100%,35%)" stroke-width="0.00114"></path>
<path d="M0.716 0.799 Q1.234 0.553 0.868 0.246" stroke="hsl(120.0,100%,35%)" stroke-width="0.00114"></path>
<path d="M0.716 0.799 Q0.901 0.707 0.762 0.597" stroke="hsl(120.0,100%,35%)" stroke-width="0.00114"></path>
<path d="M0.716 0.799 Q0.675 0.742 0.555 0.749" stroke="hsl(120.0,100%,35%)" stroke-width="0.00114"></path>
<path d="M0.716 0.799 Q0.477 0.836 0.496 0.960" stroke="hsl(120.0,100%,35%)" stroke-width="0.00114"></path>
<path d="M0.716 0.799 Q0.560 0.773 0.475 0.843" stroke="hsl(120.0,100%,35%)" stroke-width="0.00114"></path>
<path d="M0.716 0.799 Q0.510 0.594 0.064 0.649" stroke="hsl(120.0,100%,35%)" stroke-width="0.00114"></path>
<path d="M0.716 0.799 Q0.581 0.753 0.461 0.809" stroke="hsl(120.0,100%,35%)" stroke-width="0.00114"></path>
<path d="M0.716 0.799 Q0.494 0.862 0.568 0.983" stroke="hsl(120.0,100%,35%)" stroke-width="0.00114"></path>
<path d="M0.716 0.799 Q0.727 0.694 0.525 0.666" stroke="hsl(120.0,100%,35%)" stroke-width="0.00114"></path>
<path d="M1.547 0.760 Q1.493 0.811 1.581 0.849" stroke="hsl(120.0,100%,35%)" stroke-width="0.00114"></path>
<path d="M1.547 0.760 Q1.741 0.453 1.185 0.291" stroke="hsl(120.0,100%,35%)" stroke-width="0.00114"></path>
<path d="M1.547 0.760 Q1.640 0.712 1.567 0.656" stroke="hsl(120.0,100%,35%)" stroke-width="0.00114"></path>
<path d="M1.547 0.760 Q1.264 0.700 1.086 0.825" stroke="hsl(120.0,100%,35%)" stroke-width="0.00114"></path>
<path d="M0.073 0.460 Q0.202 0.496 0.300 0.441" stroke="hsl(120.0,100%,35%)" stroke-width="0.00114"></path>
<path d="M0.073 0.460 Q0.066 0.492 0.127 0.502" stroke="hsl(120.0,100%,35%)" stroke-width="0.00114"></path>
<path d="M0.073 0.460 Q0.012 0.557 0.188 0.608" stroke="hsl(120.0,100%,35%)" stroke-width="0.00114"></path>
<path d="M0.073 0.460 Q0.123 0.758 0.716 0.799" stroke="hsl(120.0,100%,35%)" stroke-width="0.00114"></path>
<path d="M0.073 0.460 Q0.650 0.509 0.871 0.238" stroke="hsl(120.0,100%,35%)" stroke-width="0.00114"></path>
<path d="M1.384 0.470 Q1.212 0.378 0.993 0.441" stroke="hsl(0.0,100%,35%)" stroke-width="0.00796"></path>
<path d="M1.384 0.470 Q1.269 0.455 1.214 0.508" stroke="hsl(0.0,100%,35%)" stroke-width="0.00341"></path>
<path d="M1.384 0.470 Q1.145 0.434 1.023 0.543" stroke="hsl(0.0,100%,35%)" stroke-width="0.00114"></path>
<path d="M1.384 0.470 Q1.328 0.482 1.339 0.512" stroke="hsl(0.0,100%,35%)" stroke-width="0.00114"></path>
<path d="M1.384 0.470 Q1.034 0.359 0.740 0.505" stroke="hsl(0.0,100%,35%)" stroke-width="0.00455"></path>
<path d="M1.384 0.470 Q1.098 0.165 0.439 0.238" stroke="hsl(0.0,100%,35%)" stroke-width="0.00114"></path>
<path d="M1.384 0.470 Q1.300 0.532 1.402 0.586" stroke="hsl(0.0,100%,35%)" stroke-width="0.00114"></path>
<path d="M1.384 0.470 Q1.428 0.341 1.185 0.291" stroke="hsl(0.0,100%,35%)" stroke-width="0.00227"></path>
<path d="M1.384 0.470 Q1.249 0.253 0.797 0.272" stroke="hsl(0.0,100%,35%)" stroke-width="0.00114"></path>
<path d="M1.384 0.470 Q1.145 0.081 0.333 0.112" stroke="hsl(0.0,100%,35%)" stroke-width="0.00114"></path>
<path d="M1.384 0.470 Q1.511 0.297 1.200 0.197" stroke="hsl(0.0,100%,35%)" stroke-width="0.00114"></path>
<path d="M0.172 0.071 Q0.343 0.498 1.214 0.508" stroke="hsl(120.0,100%,35%)" stroke-width="0.00114"></path>
<path d="M0.172 0.071 Q0.060 0.126 0.144 0.193" stroke="hsl(120.0,100%,35%)" stroke-width="0.00114"></path>
<path d="M0.172 0.071 Q-0.349 0.395 0.169 0.721" stroke="hsl(120.0,100%,35%)" stroke-width="0.00114"></path>
<path d="M1.559 0.289 Q1.370 0.215 1.185 0.291" stroke="hsl(0.0,100%,35%)" stroke-width="0.00227"></path>
<path d="M1.559 0.289 Q0.976 0.233 0.740 0.505" stroke="hsl(0.0,100%,35%)" stroke-width="0.00114"></path>
<path d="M1.559 0.289 Q1.154 0.252 0.993 0.441" stroke="hsl(0.0,100%,35%)" stroke-width="0.00227"></path>
</g>
<text x="0.795" y="0.350" font-size="0.010320" fill="hsl(0.0,100%,20%)">ajuma</text>
<text x="0.993" y="0.396" font-size="0.089965" fill="hsl(0.0,100%,20%)">bartekn</text>
<text x="0.740" y="0.467" font-size="0.077501" fill="hsl(0.0,100%,20%)">lizeb</text>
<text x="0.439" y="0.212" font-size="0.051184" fill="hsl(0.0,100%,20%)">bikineev</text>
<text x="1.750" y="0.929" font-size="0.013054" fill="hsl(120.0,100%,20%)">andre.kempe</text>
<text x="1.168" y="0.563" font-size="0.009230" fill="hsl(120.0,100%,20%)">agrieve</text>
<text x="1.860" y="0.864" font-size="0.004615" fill="hsl(120.0,100%,20%)">mfoltz</text>
<text x="0.070" y="0.767" font-size="0.014594" fill="hsl(0.0,100%,20%)">thakis</text>
<text x="1.185" y="0.262" font-size="0.058377" fill="hsl(0.0,100%,20%)">haraken</text>
<text x="0.333" y="0.095" font-size="0.033914" fill="hsl(0.0,100%,20%)">mlippautz</text>
<text x="1.086" y="0.819" font-size="0.012210" fill="hsl(120.0,100%,20%)">wez</text>
<text x="1.215" y="0.358" font-size="0.015987" fill="hsl(0.0,100%,20%)">arthursonzogni</text>
<text x="1.023" y="0.536" font-size="0.013845" fill="hsl(0.0,100%,20%)">glazunov</text>
<text x="1.391" y="0.694" font-size="0.019580" fill="hsl(120.0,100%,20%)">avi</text>
<text x="1.212" y="0.670" font-size="0.014594" fill="hsl(120.0,100%,20%)">danakj</text>
<text x="1.477" y="0.912" font-size="0.004615" fill="hsl(120.0,100%,20%)">garykac</text>
<text x="1.457" y="0.635" font-size="0.004615" fill="hsl(120.0,100%,20%)">khorimoto</text>
<text x="1.529" y="0.838" font-size="0.004615" fill="hsl(120.0,100%,20%)">mbonadei</text>
<text x="1.320" y="0.782" font-size="0.004615" fill="hsl(120.0,100%,20%)">rohitrao</text>
<text x="0.809" y="0.433" font-size="0.011305" fill="hsl(120.0,100%,20%)">rsesek</text>
<text x="1.361" y="0.825" font-size="0.004615" fill="hsl(120.0,100%,20%)">tedchoc</text>
<text x="1.161" y="0.777" font-size="0.004615" fill="hsl(120.0,100%,20%)">vovoy</text>
<text x="1.214" y="0.496" font-size="0.024421" fill="hsl(120.0,100%,20%)">dcheng</text>
<text x="1.200" y="0.173" font-size="0.047291" fill="hsl(0.0,100%,20%)">tasak</text>
<text x="0.169" y="0.716" font-size="0.010320" fill="hsl(0.0,100%,20%)">mark</text>
<text x="0.666" y="0.333" font-size="0.062602" fill="hsl(0.0,100%,20%)">yukishiino</text>
<text x="0.936" y="0.295" font-size="0.052214" fill="hsl(0.0,100%,20%)">kdlee</text>
<text x="0.728" y="0.565" font-size="0.006527" fill="hsl(0.0,100%,20%)">asully</text>
<text x="1.065" y="0.615" font-size="0.004615" fill="hsl(0.0,100%,20%)">hypan</text>
<text x="1.438" y="0.335" font-size="0.012210" fill="hsl(0.0,100%,20%)">richard.townsend</text>
<text x="0.797" y="0.266" font-size="0.011305" fill="hsl(120.0,100%,20%)">mpdenton</text>
<text x="0.792" y="0.599" font-size="0.013054" fill="hsl(0.0,100%,20%)">ssid</text>
<text x="0.868" y="0.241" font-size="0.009230" fill="hsl(0.0,100%,20%)">lukasza</text>
<text x="1.140" y="0.552" font-size="0.027303" fill="hsl(0.0,100%,20%)">keishi</text>
<text x="0.984" y="0.501" font-size="0.007994" fill="hsl(120.0,100%,20%)">gab</text>
<text x="0.836" y="0.440" font-size="0.009230" fill="hsl(0.0,100%,20%)">bgeffon</text>
<text x="0.956" y="0.881" font-size="0.015307" fill="hsl(120.0,100%,20%)">brucedawson</text>
<text x="1.942" y="0.684" font-size="0.010320" fill="hsl(0.0,100%,20%)">ellyjones</text>
<text x="1.065" y="0.593" font-size="0.004615" fill="hsl(0.0,100%,20%)">gbeaty</text>
<text x="0.871" y="0.232" font-size="0.010320" fill="hsl(0.0,100%,20%)">wfh</text>
<text x="1.402" y="0.583" font-size="0.006527" fill="hsl(120.0,100%,20%)">erikchen</text>
<text x="0.795" y="0.354" font-size="0.006527" fill="hsl(0.0,100%,20%)">agl</text>
<text x="0.973" y="0.509" font-size="0.004615" fill="hsl(0.0,100%,20%)">yukiy</text>
<text x="0.412" y="0.895" font-size="0.006527" fill="hsl(120.0,100%,20%)">kinuko</text>
<text x="1.084" y="0.509" font-size="0.006527" fill="hsl(0.0,100%,20%)">tikuta</text>
<text x="0.870" y="0.180" font-size="0.004615" fill="hsl(0.0,100%,20%)">sebmarchand</text>
<text x="0.827" y="0.277" font-size="0.004615" fill="hsl(0.0,100%,20%)">sweilun</text>
<text x="0.587" y="0.056" font-size="0.004615" fill="hsl(0.0,100%,20%)">oysteine</text>
<text x="0.323" y="0.249" font-size="0.004615" fill="hsl(0.0,100%,20%)">altimin</text>
<text x="0.670" y="0.062" font-size="0.006527" fill="hsl(0.0,100%,20%)">creis</text>
<text x="1.015" y="0.972" font-size="0.004615" fill="hsl(120.0,100%,20%)">cassew</text>
<text x="1.159" y="0.961" font-size="0.015307" fill="hsl(120.0,100%,20%)">palmer</text>
<text x="0.758" y="0.676" font-size="0.018460" fill="hsl(120.0,100%,20%)">dsanders11</text>
<text x="1.744" y="0.723" font-size="0.016640" fill="hsl(120.0,100%,20%)">thestig</text>
<text x="0.515" y="0.585" font-size="0.004615" fill="hsl(120.0,100%,20%)">acourbot</text>
<text x="0.602" y="0.636" font-size="0.004615" fill="hsl(120.0,100%,20%)">aleventhal</text>
<text x="0.950" y="0.666" font-size="0.004615" fill="hsl(120.0,100%,20%)">austinct</text>
<text x="0.539" y="0.625" font-size="0.004615" fill="hsl(120.0,100%,20%)">eseckler</text>
<text x="0.635" y="0.631" font-size="0.006527" fill="hsl(120.0,100%,20%)">jamiewalch</text>
<text x="0.476" y="0.550" font-size="0.004615" fill="hsl(120.0,100%,20%)">michaeldo</text>
<text x="0.874" y="0.704" font-size="0.004615" fill="hsl(120.0,100%,20%)">mmoskvitin</text>
<text x="0.832" y="0.708" font-size="0.004615" fill="hsl(120.0,100%,20%)">olivierrobin</text>
<text x="0.983" y="0.700" font-size="0.004615" fill="hsl(120.0,100%,20%)">tbansal</text>
<text x="0.578" y="0.692" font-size="0.004615" fill="hsl(120.0,100%,20%)">tguilbert</text>
<text x="1.884" y="0.589" font-size="0.004615" fill="hsl(0.0,100%,20%)">elainechien</text>
<text x="1.938" y="0.783" font-size="0.004615" fill="hsl(0.0,100%,20%)">tkent</text>
<text x="0.518" y="0.159" font-size="0.007994" fill="hsl(0.0,100%,20%)">hpayer</text>
<text x="0.101" y="0.282" font-size="0.007994" fill="hsl(240.0,100%,20%)">kbr</text>
<text x="0.319" y="0.356" font-size="0.004615" fill="hsl(240.0,100%,20%)">ccameron</text>
<text x="0.090" y="0.353" font-size="0.004615" fill="hsl(240.0,100%,20%)">martiniss</text>
<text x="0.872" y="0.252" font-size="0.004615" fill="hsl(0.0,100%,20%)">ayui</text>
<text x="1.012" y="0.248" font-size="0.004615" fill="hsl(0.0,100%,20%)">primiano</text>
<text x="1.037" y="0.657" font-size="0.004615" fill="hsl(0.0,100%,20%)">isherman</text>
<text x="0.188" y="0.602" font-size="0.013054" fill="hsl(120.0,100%,20%)">kmarshall</text>
<text x="0.330" y="0.568" font-size="0.006527" fill="hsl(120.0,100%,20%)">ddorwin</text>
<text x="0.064" y="0.645" font-size="0.007994" fill="hsl(120.0,100%,20%)">kylechar</text>
<text x="0.959" y="0.524" font-size="0.029551" fill="hsl(0.0,100%,20%)">thiabaud</text>
<text x="0.762" y="0.594" font-size="0.006527" fill="hsl(120.0,100%,20%)">fdoray</text>
<text x="0.742" y="0.586" font-size="0.007994" fill="hsl(0.0,100%,20%)">pasko</text>
<text x="0.822" y="0.540" font-size="0.004615" fill="hsl(0.0,100%,20%)">alexilin</text>
<text x="0.662" y="0.595" font-size="0.004615" fill="hsl(0.0,100%,20%)">msramek</text>
<text x="0.556" y="0.436" font-size="0.004615" fill="hsl(0.0,100%,20%)">mamir</text>
<text x="0.813" y="0.606" font-size="0.004615" fill="hsl(0.0,100%,20%)">amraboelkher</text>
<text x="0.554" y="0.440" font-size="0.004615" fill="hsl(0.0,100%,20%)">skyostil</text>
<text x="0.814" y="0.591" font-size="0.004615" fill="hsl(0.0,100%,20%)">etiennep</text>
<text x="1.408" y="0.951" font-size="0.004615" fill="hsl(120.0,100%,20%)">tsepez</text>
<text x="0.716" y="0.787" font-size="0.024421" fill="hsl(120.0,100%,20%)">pkasting</text>
<text x="0.425" y="0.762" font-size="0.006527" fill="hsl(120.0,100%,20%)">behdadb</text>
<text x="0.654" y="0.896" font-size="0.006527" fill="hsl(120.0,100%,20%)">nicolaso</text>
<text x="0.741" y="0.890" font-size="0.006527" fill="hsl(120.0,100%,20%)">pbos</text>
<text x="0.555" y="0.747" font-size="0.004615" fill="hsl(120.0,100%,20%)">abigailbklein</text>
<text x="0.496" y="0.958" font-size="0.004615" fill="hsl(120.0,100%,20%)">bajones</text>
<text x="0.475" y="0.841" font-size="0.004615" fill="hsl(120.0,100%,20%)">droger</text>
<text x="0.461" y="0.806" font-size="0.004615" fill="hsl(120.0,100%,20%)">renjietang</text>
<text x="0.568" y="0.981" font-size="0.004615" fill="hsl(120.0,100%,20%)">sadrul</text>
<text x="0.525" y="0.663" font-size="0.004615" fill="hsl(120.0,100%,20%)">sandersd</text>
<text x="1.547" y="0.755" font-size="0.009230" fill="hsl(120.0,100%,20%)">rohpavone</text>
<text x="1.581" y="0.846" font-size="0.004615" fill="hsl(120.0,100%,20%)">bsheedy</text>
<text x="1.567" y="0.654" font-size="0.004615" fill="hsl(120.0,100%,20%)">johnchen</text>
<text x="0.073" y="0.455" font-size="0.010320" fill="hsl(120.0,100%,20%)">rwkeane</text>
<text x="0.300" y="0.439" font-size="0.004615" fill="hsl(120.0,100%,20%)">ajgo</text>
<text x="0.127" y="0.500" font-size="0.004615" fill="hsl(120.0,100%,20%)">jshin</text>
<text x="1.384" y="0.459" font-size="0.022133" fill="hsl(0.0,100%,20%)">saelo</text>
<text x="1.339" y="0.510" font-size="0.004615" fill="hsl(120.0,100%,20%)">cbruni</text>
<text x="0.172" y="0.067" font-size="0.007994" fill="hsl(120.0,100%,20%)">ssyed</text>
<text x="0.144" y="0.191" font-size="0.004615" fill="hsl(0.0,100%,20%)">abhijeet</text>
<text x="1.559" y="0.284" font-size="0.010320" fill="hsl(0.0,100%,20%)">stha09</text>
<text x="1.166" y="0.137" font-size="0.004615" fill="hsl(0.0,100%,20%)">estaab</text>
<text x="1.769" y="0.838" font-size="0.006527" fill="hsl(120.0,100%,20%)">dpranke</text>
<text x="1.702" y="0.614" font-size="0.004615" fill="hsl(120.0,100%,20%)">sunnyps</text>
<text x="1.018" y="0.579" font-size="0.004615" fill="hsl(0.0,100%,20%)">dgozman</text>
<text x="1.209" y="0.638" font-size="0.006527" fill="hsl(0.0,100%,20%)">rkaplow</text>
<text x="1.352" y="0.535" font-size="0.004615" fill="hsl(0.0,100%,20%)">chanli</text>
<text x="0.492" y="0.294" font-size="0.004615" fill="hsl(0.0,100%,20%)">sdefresne</text>
</svg>
