<svg width="4000" height="2000" viewBox="-0.025 -0.025 2.05 1.05" xmlns="http://www.w3.org/2000/svg">
  <style>
    path {
      fill: none;
      stroke-linecap: round;
      stroke-opacity: 0.4;
    }

    text {
      text-anchor: middle;
      alignment-baseline: hanging;
    }
  </style>
  <g opacity="0.4">
<path d="M1.696 0.723 Q1.704 0.397 1.069 0.321" stroke="hsl(0.0,100%,35%)" stroke-width="0.00146"></path>
<path d="M1.696 0.723 Q1.670 0.683 1.585 0.686" stroke="hsl(0.0,100%,35%)" stroke-width="0.00583"></path>
<path d="M1.696 0.723 Q1.783 0.562 1.487 0.483" stroke="hsl(0.0,100%,35%)" stroke-width="0.00146"></path>
<path d="M1.696 0.723 Q1.639 0.544 1.277 0.533" stroke="hsl(0.0,100%,35%)" stroke-width="0.00292"></path>
<path d="M1.696 0.723 Q1.278 0.254 0.271 0.355" stroke="hsl(0.0,100%,35%)" stroke-width="0.00146"></path>
<path d="M1.696 0.723 Q1.437 0.714 1.361 0.838" stroke="hsl(0.0,100%,35%)" stroke-width="0.00146"></path>
<path d="M1.069 0.321 Q1.148 0.486 1.487 0.483" stroke="hsl(180.0,100%,35%)" stroke-width="0.03062"></path>
<path d="M1.069 0.321 Q0.858 0.429 1.024 0.556" stroke="hsl(180.0,100%,35%)" stroke-width="0.01021"></path>
<path d="M1.069 0.321 Q1.035 0.607 1.585 0.686" stroke="hsl(180.0,100%,35%)" stroke-width="0.00583"></path>
<path d="M1.069 0.321 Q0.971 0.370 1.045 0.429" stroke="hsl(180.0,100%,35%)" stroke-width="0.02916"></path>
<path d="M1.069 0.321 Q1.003 0.468 1.277 0.533" stroke="hsl(180.0,100%,35%)" stroke-width="0.00146"></path>
<path d="M1.069 0.321 Q1.095 0.257 0.975 0.230" stroke="hsl(180.0,100%,35%)" stroke-width="0.00146"></path>
<path d="M1.069 0.321 Q0.427 0.284 0.214 0.589" stroke="hsl(180.0,100%,35%)" stroke-width="0.00292"></path>
<path d="M1.069 0.321 Q0.831 0.533 1.194 0.696" stroke="hsl(180.0,100%,35%)" stroke-width="0.00146"></path>
<path d="M1.069 0.321 Q0.801 0.638 1.361 0.838" stroke="hsl(180.0,100%,35%)" stroke-width="0.00437"></path>
<path d="M1.069 0.321 Q0.808 0.350 0.806 0.483" stroke="hsl(180.0,100%,35%)" stroke-width="0.00437"></path>
<path d="M1.069 0.321 Q1.579 0.376 1.799 0.139" stroke="hsl(180.0,100%,35%)" stroke-width="0.00146"></path>
<path d="M1.069 0.321 Q0.994 0.320 0.975 0.356" stroke="hsl(180.0,100%,35%)" stroke-width="0.00146"></path>
<path d="M1.069 0.321 Q0.953 0.727 1.721 0.873" stroke="hsl(180.0,100%,35%)" stroke-width="0.00292"></path>
<path d="M1.069 0.321 Q1.147 0.375 1.270 0.349" stroke="hsl(180.0,100%,35%)" stroke-width="0.00146"></path>
<path d="M1.585 0.686 Q1.352 0.717 1.361 0.838" stroke="hsl(0.0,100%,35%)" stroke-width="0.04082"></path>
<path d="M1.585 0.686 Q1.698 0.565 1.487 0.483" stroke="hsl(0.0,100%,35%)" stroke-width="0.01604"></path>
<path d="M1.585 0.686 Q1.791 0.611 1.690 0.495" stroke="hsl(0.0,100%,35%)" stroke-width="0.00146"></path>
<path d="M1.585 0.686 Q1.493 0.576 1.257 0.596" stroke="hsl(0.0,100%,35%)" stroke-width="0.00437"></path>
<path d="M1.585 0.686 Q1.504 0.807 1.721 0.873" stroke="hsl(0.0,100%,35%)" stroke-width="0.00729"></path>
<path d="M1.585 0.686 Q1.409 0.509 1.024 0.556" stroke="hsl(0.0,100%,35%)" stroke-width="0.00292"></path>
<path d="M1.585 0.686 Q1.454 0.650 1.354 0.706" stroke="hsl(0.0,100%,35%)" stroke-width="0.00146"></path>
<path d="M1.585 0.686 Q1.675 0.473 1.278 0.383" stroke="hsl(0.0,100%,35%)" stroke-width="0.00146"></path>
<path d="M1.585 0.686 Q1.554 0.548 1.277 0.533" stroke="hsl(0.0,100%,35%)" stroke-width="0.00729"></path>
<path d="M1.585 0.686 Q0.977 0.363 0.214 0.589" stroke="hsl(0.0,100%,35%)" stroke-width="0.00146"></path>
<path d="M1.585 0.686 Q1.487 0.708 1.507 0.761" stroke="hsl(0.0,100%,35%)" stroke-width="0.00292"></path>
<path d="M1.585 0.686 Q1.238 0.516 0.830 0.648" stroke="hsl(0.0,100%,35%)" stroke-width="0.00146"></path>
<path d="M1.487 0.483 Q1.408 0.319 1.069 0.321" stroke="hsl(180.0,100%,35%)" stroke-width="0.01750"></path>
<path d="M1.487 0.483 Q1.310 0.368 1.045 0.429" stroke="hsl(180.0,100%,35%)" stroke-width="0.02479"></path>
<path d="M1.487 0.483 Q0.981 0.176 0.271 0.355" stroke="hsl(180.0,100%,35%)" stroke-width="0.01312"></path>
<path d="M1.487 0.483 Q1.603 0.435 1.534 0.368" stroke="hsl(180.0,100%,35%)" stroke-width="0.00146"></path>
<path d="M1.487 0.483 Q0.766 0.282 0.214 0.589" stroke="hsl(180.0,100%,35%)" stroke-width="0.00583"></path>
<path d="M1.487 0.483 Q1.579 0.530 1.690 0.495" stroke="hsl(180.0,100%,35%)" stroke-width="0.01312"></path>
<path d="M1.487 0.483 Q0.878 0.224 0.239 0.464" stroke="hsl(180.0,100%,35%)" stroke-width="0.00292"></path>
<path d="M1.487 0.483 Q1.470 0.512 1.523 0.527" stroke="hsl(180.0,100%,35%)" stroke-width="0.00292"></path>
<path d="M1.487 0.483 Q1.690 0.501 1.768 0.405" stroke="hsl(180.0,100%,35%)" stroke-width="0.01166"></path>
<path d="M1.487 0.483 Q1.648 0.181 1.093 0.035" stroke="hsl(180.0,100%,35%)" stroke-width="0.00146"></path>
<path d="M1.487 0.483 Q1.140 0.635 1.361 0.838" stroke="hsl(180.0,100%,35%)" stroke-width="0.01166"></path>
<path d="M1.487 0.483 Q1.463 0.391 1.278 0.383" stroke="hsl(180.0,100%,35%)" stroke-width="0.00146"></path>
<path d="M1.487 0.483 Q0.708 0.327 0.232 0.673" stroke="hsl(180.0,100%,35%)" stroke-width="0.00146"></path>
<path d="M1.487 0.483 Q0.748 0.441 0.504 0.793" stroke="hsl(180.0,100%,35%)" stroke-width="0.00437"></path>
<path d="M1.487 0.483 Q1.281 0.494 1.257 0.596" stroke="hsl(180.0,100%,35%)" stroke-width="0.01312"></path>
<path d="M1.487 0.483 Q1.147 0.347 0.806 0.483" stroke="hsl(180.0,100%,35%)" stroke-width="0.00292"></path>
<path d="M1.487 0.483 Q1.562 0.375 1.367 0.315" stroke="hsl(180.0,100%,35%)" stroke-width="0.00437"></path>
<path d="M1.487 0.483 Q1.599 0.267 1.200 0.164" stroke="hsl(180.0,100%,35%)" stroke-width="0.00292"></path>
<path d="M1.487 0.483 Q1.374 0.605 1.585 0.686" stroke="hsl(180.0,100%,35%)" stroke-width="0.01312"></path>
<path d="M1.487 0.483 Q1.342 0.466 1.277 0.533" stroke="hsl(180.0,100%,35%)" stroke-width="0.02041"></path>
<path d="M1.487 0.483 Q1.027 0.434 0.830 0.648" stroke="hsl(180.0,100%,35%)" stroke-width="0.00583"></path>
<path d="M1.487 0.483 Q1.553 0.363 1.332 0.304" stroke="hsl(180.0,100%,35%)" stroke-width="0.00146"></path>
<path d="M1.487 0.483 Q1.195 0.492 1.147 0.636" stroke="hsl(180.0,100%,35%)" stroke-width="0.00146"></path>
<path d="M1.487 0.483 Q1.918 0.374 1.799 0.139" stroke="hsl(180.0,100%,35%)" stroke-width="0.00292"></path>
<path d="M1.487 0.483 Q1.243 0.568 1.354 0.706" stroke="hsl(180.0,100%,35%)" stroke-width="0.00146"></path>
<path d="M1.487 0.483 Q1.292 0.725 1.721 0.873" stroke="hsl(180.0,100%,35%)" stroke-width="0.00146"></path>
<path d="M1.277 0.533 Q1.421 0.550 1.487 0.483" stroke="hsl(0.0,100%,35%)" stroke-width="0.01750"></path>
<path d="M1.277 0.533 Q1.075 0.702 1.361 0.838" stroke="hsl(0.0,100%,35%)" stroke-width="0.01604"></path>
<path d="M1.277 0.533 Q0.961 0.501 0.830 0.648" stroke="hsl(0.0,100%,35%)" stroke-width="0.00146"></path>
<path d="M1.277 0.533 Q1.244 0.434 1.045 0.429" stroke="hsl(0.0,100%,35%)" stroke-width="0.02041"></path>
<path d="M1.277 0.533 Q0.916 0.243 0.271 0.355" stroke="hsl(0.0,100%,35%)" stroke-width="0.00292"></path>
<path d="M1.277 0.533 Q1.308 0.671 1.585 0.686" stroke="hsl(0.0,100%,35%)" stroke-width="0.02770"></path>
<path d="M1.277 0.533 Q1.132 0.494 1.024 0.556" stroke="hsl(0.0,100%,35%)" stroke-width="0.00146"></path>
<path d="M1.277 0.533 Q1.420 0.433 1.257 0.342" stroke="hsl(0.0,100%,35%)" stroke-width="0.00146"></path>
<path d="M1.277 0.533 Q1.487 0.429 1.332 0.304" stroke="hsl(0.0,100%,35%)" stroke-width="0.00146"></path>
<path d="M1.277 0.533 Q1.216 0.561 1.257 0.596" stroke="hsl(0.0,100%,35%)" stroke-width="0.00146"></path>
<path d="M1.277 0.533 Q1.470 0.426 1.304 0.308" stroke="hsl(0.0,100%,35%)" stroke-width="0.00146"></path>
<path d="M1.277 0.533 Q1.484 0.441 1.350 0.319" stroke="hsl(0.0,100%,35%)" stroke-width="0.00146"></path>
<path d="M1.277 0.533 Q1.516 0.480 1.465 0.352" stroke="hsl(0.0,100%,35%)" stroke-width="0.00146"></path>
<path d="M1.277 0.533 Q1.510 0.421 1.344 0.283" stroke="hsl(0.0,100%,35%)" stroke-width="0.00146"></path>
<path d="M0.271 0.355 Q0.168 0.403 0.239 0.464" stroke="hsl(180.0,100%,35%)" stroke-width="0.03208"></path>
<path d="M0.271 0.355 Q0.776 0.663 1.487 0.483" stroke="hsl(180.0,100%,35%)" stroke-width="0.02770"></path>
<path d="M0.271 0.355 Q0.663 0.784 1.585 0.686" stroke="hsl(180.0,100%,35%)" stroke-width="0.00583"></path>
<path d="M0.271 0.355 Q0.697 0.498 1.069 0.321" stroke="hsl(180.0,100%,35%)" stroke-width="0.00146"></path>
<path d="M0.271 0.355 Q0.447 0.388 0.550 0.309" stroke="hsl(180.0,100%,35%)" stroke-width="0.00146"></path>
<path d="M0.271 0.355 Q0.430 0.815 1.361 0.838" stroke="hsl(180.0,100%,35%)" stroke-width="0.00146"></path>
<path d="M1.361 0.838 Q1.628 0.521 1.069 0.321" stroke="hsl(0.0,100%,35%)" stroke-width="0.00146"></path>
<path d="M1.361 0.838 Q1.594 0.807 1.585 0.686" stroke="hsl(0.0,100%,35%)" stroke-width="0.04374"></path>
<path d="M1.361 0.838 Q1.707 0.686 1.487 0.483" stroke="hsl(0.0,100%,35%)" stroke-width="0.01895"></path>
<path d="M1.361 0.838 Q1.418 0.629 1.024 0.556" stroke="hsl(0.0,100%,35%)" stroke-width="0.00583"></path>
<path d="M1.361 0.838 Q1.618 0.900 1.795 0.788" stroke="hsl(0.0,100%,35%)" stroke-width="0.00146"></path>
<path d="M1.361 0.838 Q1.403 0.955 1.642 0.960" stroke="hsl(0.0,100%,35%)" stroke-width="0.00146"></path>
<path d="M1.361 0.838 Q1.403 0.948 1.628 0.951" stroke="hsl(0.0,100%,35%)" stroke-width="0.00146"></path>
<path d="M1.361 0.838 Q1.502 0.696 1.257 0.596" stroke="hsl(0.0,100%,35%)" stroke-width="0.00583"></path>
<path d="M1.361 0.838 Q1.773 0.565 1.332 0.304" stroke="hsl(0.0,100%,35%)" stroke-width="0.00146"></path>
<path d="M1.361 0.838 Q1.247 0.637 0.830 0.648" stroke="hsl(0.0,100%,35%)" stroke-width="0.00146"></path>
<path d="M1.361 0.838 Q1.510 0.894 1.653 0.834" stroke="hsl(0.0,100%,35%)" stroke-width="0.00146"></path>
<path d="M1.361 0.838 Q0.968 0.644 0.504 0.793" stroke="hsl(0.0,100%,35%)" stroke-width="0.00146"></path>
<path d="M1.361 0.838 Q1.463 0.770 1.354 0.706" stroke="hsl(0.0,100%,35%)" stroke-width="0.00146"></path>
<path d="M1.800 0.605 Q1.536 0.492 1.257 0.596" stroke="hsl(180.0,100%,35%)" stroke-width="0.00292"></path>
<path d="M1.800 0.605 Q2.035 0.442 1.767 0.291" stroke="hsl(180.0,100%,35%)" stroke-width="0.00146"></path>
<path d="M1.800 0.605 Q1.909 0.609 1.940 0.556" stroke="hsl(180.0,100%,35%)" stroke-width="0.00146"></path>
<path d="M1.257 0.596 Q1.788 0.401 1.523 0.099" stroke="hsl(0.0,100%,35%)" stroke-width="0.00146"></path>
<path d="M1.257 0.596 Q1.146 0.634 1.194 0.696" stroke="hsl(0.0,100%,35%)" stroke-width="0.00292"></path>
<path d="M1.257 0.596 Q1.285 0.470 1.045 0.429" stroke="hsl(0.0,100%,35%)" stroke-width="0.00146"></path>
<path d="M1.257 0.596 Q1.511 0.462 1.304 0.308" stroke="hsl(0.0,100%,35%)" stroke-width="0.00146"></path>
<path d="M1.767 0.291 Q1.473 0.331 1.487 0.483" stroke="hsl(180.0,100%,35%)" stroke-width="0.00146"></path>
<path d="M1.767 0.291 Q1.296 0.215 1.045 0.429" stroke="hsl(180.0,100%,35%)" stroke-width="0.00292"></path>
<path d="M1.767 0.291 Q1.676 0.348 1.768 0.405" stroke="hsl(180.0,100%,35%)" stroke-width="0.00146"></path>
<path d="M1.534 0.368 Q1.418 0.416 1.487 0.483" stroke="hsl(180.0,100%,35%)" stroke-width="0.01021"></path>
<path d="M1.534 0.368 Q0.697 0.214 0.214 0.589" stroke="hsl(180.0,100%,35%)" stroke-width="0.00292"></path>
<path d="M1.534 0.368 Q0.912 0.109 0.271 0.355" stroke="hsl(180.0,100%,35%)" stroke-width="0.00292"></path>
<path d="M1.534 0.368 Q1.053 0.237 0.693 0.443" stroke="hsl(180.0,100%,35%)" stroke-width="0.00146"></path>
<path d="M0.910 0.844 Q0.748 0.737 0.504 0.793" stroke="hsl(180.0,100%,35%)" stroke-width="0.00437"></path>
<path d="M0.910 0.844 Q0.815 0.896 0.895 0.953" stroke="hsl(180.0,100%,35%)" stroke-width="0.00437"></path>
<path d="M0.910 0.844 Q0.922 0.797 0.832 0.781" stroke="hsl(180.0,100%,35%)" stroke-width="0.00146"></path>
<path d="M0.232 0.673 Q0.290 0.628 0.214 0.589" stroke="hsl(180.0,100%,35%)" stroke-width="0.00292"></path>
<path d="M0.232 0.673 Q0.833 0.713 1.045 0.429" stroke="hsl(180.0,100%,35%)" stroke-width="0.00292"></path>
<path d="M0.232 0.673 Q1.011 0.829 1.487 0.483" stroke="hsl(180.0,100%,35%)" stroke-width="0.00146"></path>
<path d="M0.232 0.673 Q1.442 0.719 1.799 0.139" stroke="hsl(180.0,100%,35%)" stroke-width="0.00146"></path>
<path d="M0.232 0.673 Q0.816 1.071 1.721 0.873" stroke="hsl(180.0,100%,35%)" stroke-width="0.00146"></path>
<path d="M1.045 0.429 Q1.222 0.544 1.487 0.483" stroke="hsl(180.0,100%,35%)" stroke-width="0.02624"></path>
<path d="M1.045 0.429 Q1.143 0.380 1.069 0.321" stroke="hsl(180.0,100%,35%)" stroke-width="0.00146"></path>
<path d="M1.045 0.429 Q0.939 0.527 1.108 0.600" stroke="hsl(180.0,100%,35%)" stroke-width="0.00146"></path>
<path d="M1.045 0.429 Q1.465 0.392 1.486 0.179" stroke="hsl(180.0,100%,35%)" stroke-width="0.00146"></path>
<path d="M1.045 0.429 Q1.017 0.555 1.257 0.596" stroke="hsl(180.0,100%,35%)" stroke-width="0.00146"></path>
<path d="M1.045 0.429 Q1.109 0.666 1.585 0.686" stroke="hsl(180.0,100%,35%)" stroke-width="0.00146"></path>
<path d="M0.494 0.668 Q0.417 0.573 0.214 0.589" stroke="hsl(180.0,100%,35%)" stroke-width="0.01021"></path>
<path d="M0.494 0.668 Q1.026 0.895 1.585 0.686" stroke="hsl(180.0,100%,35%)" stroke-width="0.00146"></path>
<path d="M0.494 0.668 Q0.961 0.659 1.045 0.429" stroke="hsl(180.0,100%,35%)" stroke-width="0.00146"></path>
<path d="M0.494 0.668 Q0.400 0.732 0.504 0.793" stroke="hsl(180.0,100%,35%)" stroke-width="0.02187"></path>
<path d="M0.494 0.668 Q0.626 0.605 0.531 0.527" stroke="hsl(180.0,100%,35%)" stroke-width="0.00292"></path>
<path d="M0.494 0.668 Q0.591 0.594 0.468 0.531" stroke="hsl(180.0,100%,35%)" stroke-width="0.00146"></path>
<path d="M0.494 0.668 Q1.381 0.622 1.486 0.179" stroke="hsl(180.0,100%,35%)" stroke-width="0.00146"></path>
<path d="M0.494 0.668 Q0.500 0.608 0.384 0.592" stroke="hsl(180.0,100%,35%)" stroke-width="0.00146"></path>
<path d="M0.494 0.668 Q0.673 0.644 0.665 0.552" stroke="hsl(180.0,100%,35%)" stroke-width="0.00146"></path>
<path d="M0.494 0.668 Q1.138 0.774 1.487 0.483" stroke="hsl(180.0,100%,35%)" stroke-width="0.00146"></path>
<path d="M1.690 0.495 Q1.092 0.141 0.271 0.355" stroke="hsl(180.0,100%,35%)" stroke-width="0.00146"></path>
<path d="M1.690 0.495 Q1.597 0.448 1.487 0.483" stroke="hsl(180.0,100%,35%)" stroke-width="0.02187"></path>
<path d="M1.690 0.495 Q1.308 0.392 1.024 0.556" stroke="hsl(180.0,100%,35%)" stroke-width="0.00875"></path>
<path d="M1.690 0.495 Q1.453 0.431 1.277 0.533" stroke="hsl(180.0,100%,35%)" stroke-width="0.00583"></path>
<path d="M1.690 0.495 Q1.251 0.600 1.361 0.838" stroke="hsl(180.0,100%,35%)" stroke-width="0.00292"></path>
<path d="M1.690 0.495 Q0.989 0.189 0.239 0.464" stroke="hsl(180.0,100%,35%)" stroke-width="0.00437"></path>
<path d="M1.768 0.405 Q1.565 0.388 1.487 0.483" stroke="hsl(180.0,100%,35%)" stroke-width="0.00292"></path>
<path d="M1.768 0.405 Q1.710 0.485 1.852 0.531" stroke="hsl(180.0,100%,35%)" stroke-width="0.00146"></path>
<path d="M1.768 0.405 Q1.677 0.171 1.200 0.164" stroke="hsl(180.0,100%,35%)" stroke-width="0.00146"></path>
<path d="M1.768 0.405 Q1.388 0.272 1.045 0.429" stroke="hsl(180.0,100%,35%)" stroke-width="0.00146"></path>
<path d="M1.200 0.164 Q0.883 0.392 1.257 0.596" stroke="hsl(0.0,100%,35%)" stroke-width="0.00146"></path>
<path d="M1.200 0.164 Q0.944 0.364 1.277 0.533" stroke="hsl(0.0,100%,35%)" stroke-width="0.00583"></path>
<path d="M1.200 0.164 Q0.911 0.266 1.045 0.429" stroke="hsl(0.0,100%,35%)" stroke-width="0.00146"></path>
<path d="M1.200 0.164 Q0.975 0.502 1.585 0.686" stroke="hsl(0.0,100%,35%)" stroke-width="0.00437"></path>
<path d="M1.200 0.164 Q1.094 0.109 0.962 0.149" stroke="hsl(0.0,100%,35%)" stroke-width="0.00146"></path>
<path d="M1.200 0.164 Q1.088 0.381 1.487 0.483" stroke="hsl(0.0,100%,35%)" stroke-width="0.00146"></path>
<path d="M0.932 0.722 Q0.940 0.664 0.830 0.648" stroke="hsl(180.0,100%,35%)" stroke-width="0.00146"></path>
<path d="M0.932 0.722 Q1.223 0.598 1.045 0.429" stroke="hsl(180.0,100%,35%)" stroke-width="0.00146"></path>
<path d="M0.932 0.722 Q0.792 0.454 0.239 0.464" stroke="hsl(180.0,100%,35%)" stroke-width="0.00146"></path>
<path d="M1.024 0.556 Q0.808 0.305 0.271 0.355" stroke="hsl(180.0,100%,35%)" stroke-width="0.00292"></path>
<path d="M1.024 0.556 Q0.973 0.476 0.806 0.483" stroke="hsl(180.0,100%,35%)" stroke-width="0.00146"></path>
<path d="M1.024 0.556 Q1.313 0.612 1.487 0.483" stroke="hsl(180.0,100%,35%)" stroke-width="0.00146"></path>
<path d="M1.024 0.556 Q1.200 0.733 1.585 0.686" stroke="hsl(180.0,100%,35%)" stroke-width="0.00437"></path>
<path d="M1.024 0.556 Q0.925 0.617 1.023 0.679" stroke="hsl(180.0,100%,35%)" stroke-width="0.00146"></path>
<path d="M1.024 0.556 Q1.136 0.497 1.045 0.429" stroke="hsl(180.0,100%,35%)" stroke-width="0.00146"></path>
<path d="M1.023 0.679 Q0.673 0.632 0.504 0.793" stroke="hsl(180.0,100%,35%)" stroke-width="0.00146"></path>
<path d="M1.023 0.679 Q1.122 0.617 1.024 0.556" stroke="hsl(180.0,100%,35%)" stroke-width="0.00292"></path>
<path d="M1.023 0.679 Q1.047 0.715 1.122 0.711" stroke="hsl(180.0,100%,35%)" stroke-width="0.00146"></path>
<path d="M1.023 0.679 Q0.952 0.625 0.830 0.648" stroke="hsl(180.0,100%,35%)" stroke-width="0.00146"></path>
<path d="M1.523 0.099 Q1.359 -0.019 1.093 0.035" stroke="hsl(0.0,100%,35%)" stroke-width="0.00146"></path>
<path d="M1.523 0.099 Q1.440 0.132 1.486 0.179" stroke="hsl(0.0,100%,35%)" stroke-width="0.00146"></path>
<path d="M1.523 0.099 Q1.309 0.067 1.200 0.164" stroke="hsl(0.0,100%,35%)" stroke-width="0.00146"></path>
<path d="M1.335 0.098 Q0.813 0.265 1.024 0.556" stroke="hsl(180.0,100%,35%)" stroke-width="0.00146"></path>
<path d="M1.335 0.098 Q0.714 0.326 1.023 0.679" stroke="hsl(180.0,100%,35%)" stroke-width="0.00146"></path>
<path d="M1.335 0.098 Q1.354 0.071 1.305 0.055" stroke="hsl(180.0,100%,35%)" stroke-width="0.00146"></path>
<path d="M0.439 0.181 Q0.432 0.486 1.024 0.556" stroke="hsl(180.0,100%,35%)" stroke-width="0.00146"></path>
<path d="M0.439 0.181 Q0.528 0.125 0.438 0.069" stroke="hsl(180.0,100%,35%)" stroke-width="0.00146"></path>
<path d="M0.439 0.181 Q-0.000 0.340 0.214 0.589" stroke="hsl(180.0,100%,35%)" stroke-width="0.00437"></path>
<path d="M0.439 0.181 Q0.608 0.663 1.585 0.686" stroke="hsl(180.0,100%,35%)" stroke-width="0.00146"></path>
<path d="M0.439 0.181 Q0.721 0.542 1.487 0.483" stroke="hsl(180.0,100%,35%)" stroke-width="0.00146"></path>
<path d="M0.439 0.181 Q0.544 0.426 1.045 0.429" stroke="hsl(180.0,100%,35%)" stroke-width="0.00146"></path>
<path d="M0.657 0.285 Q0.489 0.341 0.560 0.435" stroke="hsl(0.0,100%,35%)" stroke-width="0.00146"></path>
<path d="M0.657 0.285 Q0.624 0.494 1.024 0.556" stroke="hsl(0.0,100%,35%)" stroke-width="0.00146"></path>
<path d="M0.657 0.285 Q0.586 0.268 0.536 0.298" stroke="hsl(0.0,100%,35%)" stroke-width="0.00146"></path>
<path d="M1.631 0.049 Q1.537 0.052 1.523 0.099" stroke="hsl(0.0,100%,35%)" stroke-width="0.00292"></path>
<path d="M1.631 0.049 Q1.507 0.147 1.671 0.229" stroke="hsl(0.0,100%,35%)" stroke-width="0.00146"></path>
<path d="M1.631 0.049 Q1.642 0.128 1.799 0.139" stroke="hsl(0.0,100%,35%)" stroke-width="0.00292"></path>
<path d="M0.713 0.866 Q0.568 0.852 0.509 0.920" stroke="hsl(0.0,100%,35%)" stroke-width="0.00146"></path>
<path d="M0.713 0.866 Q1.201 0.840 1.257 0.596" stroke="hsl(0.0,100%,35%)" stroke-width="0.00292"></path>
<path d="M0.713 0.866 Q1.406 0.829 1.487 0.483" stroke="hsl(0.0,100%,35%)" stroke-width="0.00292"></path>
<path d="M0.713 0.866 Q1.293 0.951 1.585 0.686" stroke="hsl(0.0,100%,35%)" stroke-width="0.00146"></path>
<path d="M1.399 0.969 Q1.831 0.744 1.487 0.483" stroke="hsl(180.0,100%,35%)" stroke-width="0.00146"></path>
<path d="M1.399 0.969 Q1.276 0.912 1.140 0.960" stroke="hsl(180.0,100%,35%)" stroke-width="0.00146"></path>
<path d="M1.399 0.969 Q1.293 0.925 1.184 0.966" stroke="hsl(180.0,100%,35%)" stroke-width="0.00146"></path>
<path d="M1.905 0.246 Q0.784 0.079 0.214 0.589" stroke="hsl(180.0,100%,35%)" stroke-width="0.00146"></path>
<path d="M1.905 0.246 Q1.328 0.165 1.045 0.429" stroke="hsl(180.0,100%,35%)" stroke-width="0.00146"></path>
<path d="M1.905 0.246 Q1.800 0.241 1.767 0.291" stroke="hsl(180.0,100%,35%)" stroke-width="0.00146"></path>
<path d="M0.480 0.390 Q0.403 0.331 0.271 0.355" stroke="hsl(180.0,100%,35%)" stroke-width="0.00292"></path>
<path d="M0.480 0.390 Q0.909 0.638 1.487 0.483" stroke="hsl(180.0,100%,35%)" stroke-width="0.00146"></path>
<path d="M0.480 0.390 Q0.620 0.582 1.024 0.556" stroke="hsl(180.0,100%,35%)" stroke-width="0.00146"></path>
<path d="M1.472 0.338 Q0.755 0.154 0.239 0.464" stroke="hsl(180.0,100%,35%)" stroke-width="0.00292"></path>
<path d="M1.472 0.338 Q0.858 0.107 0.271 0.355" stroke="hsl(180.0,100%,35%)" stroke-width="0.00292"></path>
<path d="M1.472 0.338 Q1.363 0.414 1.487 0.483" stroke="hsl(180.0,100%,35%)" stroke-width="0.00292"></path>
<path d="M0.202 0.167 Q0.141 0.158 0.112 0.187" stroke="hsl(0.0,100%,35%)" stroke-width="0.00146"></path>
<path d="M0.202 0.167 Q0.307 0.129 0.256 0.069" stroke="hsl(0.0,100%,35%)" stroke-width="0.00437"></path>
<path d="M0.202 0.167 Q-0.428 0.522 0.126 0.907" stroke="hsl(0.0,100%,35%)" stroke-width="0.00146"></path>
<path d="M0.256 0.069 Q0.540 0.522 1.487 0.483" stroke="hsl(0.0,100%,35%)" stroke-width="0.00146"></path>
<path d="M0.256 0.069 Q0.275 0.083 0.306 0.077" stroke="hsl(0.0,100%,35%)" stroke-width="0.00146"></path>
<path d="M0.256 0.069 Q0.523 0.551 1.523 0.527" stroke="hsl(0.0,100%,35%)" stroke-width="0.00146"></path>
<path d="M0.256 0.069 Q0.599 0.646 1.800 0.605" stroke="hsl(0.0,100%,35%)" stroke-width="0.00146"></path>
<path d="M0.126 0.907 Q0.940 0.978 1.257 0.596" stroke="hsl(0.0,100%,35%)" stroke-width="0.00292"></path>
<path d="M0.126 0.907 Q0.251 0.896 0.256 0.832" stroke="hsl(0.0,100%,35%)" stroke-width="0.00146"></path>
<path d="M0.126 0.907 Q0.640 0.660 0.271 0.355" stroke="hsl(0.0,100%,35%)" stroke-width="0.00146"></path>
<path d="M0.126 0.907 Q0.258 0.913 0.298 0.850" stroke="hsl(0.0,100%,35%)" stroke-width="0.00146"></path>
<path d="M0.126 0.907 Q0.198 0.970 0.337 0.949" stroke="hsl(0.0,100%,35%)" stroke-width="0.00146"></path>
<path d="M0.764 0.394 Q0.849 0.594 1.257 0.596" stroke="hsl(180.0,100%,35%)" stroke-width="0.00146"></path>
<path d="M0.764 0.394 Q0.689 0.405 0.693 0.443" stroke="hsl(180.0,100%,35%)" stroke-width="0.00146"></path>
<path d="M0.764 0.394 Q0.877 0.468 1.045 0.429" stroke="hsl(180.0,100%,35%)" stroke-width="0.00146"></path>
<path d="M0.764 0.394 Q0.941 0.705 1.585 0.686" stroke="hsl(180.0,100%,35%)" stroke-width="0.00146"></path>
<path d="M0.764 0.394 Q1.054 0.584 1.487 0.483" stroke="hsl(180.0,100%,35%)" stroke-width="0.00146"></path>
<path d="M0.774 0.192 Q1.059 0.177 1.093 0.035" stroke="hsl(0.0,100%,35%)" stroke-width="0.00146"></path>
<path d="M0.774 0.192 Q0.933 0.198 0.981 0.122" stroke="hsl(0.0,100%,35%)" stroke-width="0.00146"></path>
<path d="M0.774 0.192 Q0.692 0.491 1.257 0.596" stroke="hsl(0.0,100%,35%)" stroke-width="0.00146"></path>
<path d="M0.307 0.681 Q0.334 0.617 0.214 0.589" stroke="hsl(180.0,100%,35%)" stroke-width="0.00146"></path>
<path d="M0.307 0.681 Q0.976 0.653 1.069 0.321" stroke="hsl(180.0,100%,35%)" stroke-width="0.00146"></path>
<path d="M0.307 0.681 Q0.316 0.776 0.504 0.793" stroke="hsl(180.0,100%,35%)" stroke-width="0.00146"></path>
<path d="M0.607 0.985 Q0.713 0.991 0.747 0.940" stroke="hsl(180.0,100%,35%)" stroke-width="0.00146"></path>
<path d="M0.607 0.985 Q0.839 0.651 0.239 0.464" stroke="hsl(180.0,100%,35%)" stroke-width="0.00146"></path>
<path d="M0.607 0.985 Q0.575 0.951 0.501 0.959" stroke="hsl(180.0,100%,35%)" stroke-width="0.00146"></path>
<path d="M0.607 0.985 Q0.935 0.741 0.531 0.527" stroke="hsl(180.0,100%,35%)" stroke-width="0.00146"></path>
</g>
<text x="1.696" y="0.715" font-size="0.017252" fill="hsl(0.0,100%,20%)">adarom</text>
<text x="1.069" y="0.296" font-size="0.050297" fill="hsl(180.0,100%,20%)">mikt</text>
<text x="1.585" y="0.654" font-size="0.065009" fill="hsl(0.0,100%,20%)">tasak</text>
<text x="1.487" y="0.439" font-size="0.087966" fill="hsl(180.0,100%,20%)">bartekn</text>
<text x="1.277" y="0.506" font-size="0.053730" fill="hsl(0.0,100%,20%)">kdlee</text>
<text x="0.271" y="0.332" font-size="0.045644" fill="hsl(180.0,100%,20%)">arthursonzogni</text>
<text x="1.361" y="0.809" font-size="0.058248" fill="hsl(0.0,100%,20%)">yukishiino</text>
<text x="1.800" y="0.599" font-size="0.012199" fill="hsl(180.0,100%,20%)">agrieve</text>
<text x="1.257" y="0.581" font-size="0.030861" fill="hsl(0.0,100%,20%)">lizeb</text>
<text x="1.767" y="0.284" font-size="0.013363" fill="hsl(180.0,100%,20%)">richard.townsend</text>
<text x="1.940" y="0.553" font-size="0.005455" fill="hsl(0.0,100%,20%)">wnwen</text>
<text x="1.534" y="0.358" font-size="0.019670" fill="hsl(180.0,100%,20%)">ahijazi</text>
<text x="0.214" y="0.576" font-size="0.026163" fill="hsl(180.0,100%,20%)">haraken</text>
<text x="0.693" y="0.439" font-size="0.007715" fill="hsl(180.0,100%,20%)">nuskos</text>
<text x="0.910" y="0.837" font-size="0.014434" fill="hsl(180.0,100%,20%)">ajuma</text>
<text x="0.504" y="0.779" font-size="0.026726" fill="hsl(180.0,100%,20%)">mark</text>
<text x="0.895" y="0.948" font-size="0.009449" fill="hsl(0.0,100%,20%)">vollick</text>
<text x="0.832" y="0.778" font-size="0.005455" fill="hsl(180.0,100%,20%)">anthonyvd</text>
<text x="0.232" y="0.665" font-size="0.015430" fill="hsl(180.0,100%,20%)">andre.kempe</text>
<text x="1.045" y="0.403" font-size="0.050885" fill="hsl(180.0,100%,20%)">keishi</text>
<text x="1.799" y="0.133" font-size="0.013363" fill="hsl(180.0,100%,20%)">mpdenton</text>
<text x="1.721" y="0.865" font-size="0.016366" fill="hsl(0.0,100%,20%)">wfh</text>
<text x="0.239" y="0.449" font-size="0.030375" fill="hsl(180.0,100%,20%)">danakj</text>
<text x="0.550" y="0.306" font-size="0.005455" fill="hsl(180.0,100%,20%)">jam</text>
<text x="0.494" y="0.653" font-size="0.030375" fill="hsl(180.0,100%,20%)">avi</text>
<text x="0.531" y="0.522" font-size="0.009449" fill="hsl(180.0,100%,20%)">sdefresne</text>
<text x="0.468" y="0.528" font-size="0.005455" fill="hsl(180.0,100%,20%)">robertogden</text>
<text x="1.486" y="0.175" font-size="0.009449" fill="hsl(180.0,100%,20%)">rsesek</text>
<text x="0.384" y="0.590" font-size="0.005455" fill="hsl(180.0,100%,20%)">senorblanco</text>
<text x="0.665" y="0.549" font-size="0.005455" fill="hsl(180.0,100%,20%)">zmo</text>
<text x="1.690" y="0.477" font-size="0.034932" fill="hsl(180.0,100%,20%)">tsepez</text>
<text x="1.523" y="0.522" font-size="0.009449" fill="hsl(0.0,100%,20%)">lukasza</text>
<text x="1.768" y="0.395" font-size="0.020412" fill="hsl(180.0,100%,20%)">glazunov</text>
<text x="1.093" y="0.031" font-size="0.009449" fill="hsl(0.0,100%,20%)">brucedawson</text>
<text x="1.278" y="0.379" font-size="0.007715" fill="hsl(180.0,100%,20%)">blundell</text>
<text x="0.806" y="0.477" font-size="0.013363" fill="hsl(180.0,100%,20%)">mlippautz</text>
<text x="1.367" y="0.310" font-size="0.009449" fill="hsl(180.0,100%,20%)">ssid</text>
<text x="1.200" y="0.154" font-size="0.021129" fill="hsl(0.0,100%,20%)">thestig</text>
<text x="0.830" y="0.640" font-size="0.016366" fill="hsl(0.0,100%,20%)">bikineev</text>
<text x="1.332" y="0.299" font-size="0.009449" fill="hsl(0.0,100%,20%)">thiabaud</text>
<text x="1.147" y="0.633" font-size="0.005455" fill="hsl(180.0,100%,20%)">junov</text>
<text x="1.354" y="0.701" font-size="0.009449" fill="hsl(0.0,100%,20%)">erikchen</text>
<text x="0.932" y="0.717" font-size="0.009449" fill="hsl(180.0,100%,20%)">davidben</text>
<text x="1.024" y="0.540" font-size="0.032275" fill="hsl(180.0,100%,20%)">dcheng</text>
<text x="1.023" y="0.672" font-size="0.014434" fill="hsl(180.0,100%,20%)">pkasting</text>
<text x="1.523" y="0.092" font-size="0.013363" fill="hsl(0.0,100%,20%)">fdoray</text>
<text x="1.852" y="0.528" font-size="0.005455" fill="hsl(180.0,100%,20%)">hashimoto</text>
<text x="1.335" y="0.093" font-size="0.009449" fill="hsl(180.0,100%,20%)">jbroman</text>
<text x="1.305" y="0.052" font-size="0.005455" fill="hsl(0.0,100%,20%)">sky</text>
<text x="0.439" y="0.173" font-size="0.015430" fill="hsl(180.0,100%,20%)">jdapena</text>
<text x="0.438" y="0.066" font-size="0.005455" fill="hsl(180.0,100%,20%)">pbos</text>
<text x="0.657" y="0.281" font-size="0.009449" fill="hsl(0.0,100%,20%)">jeffyoon</text>
<text x="0.560" y="0.432" font-size="0.005455" fill="hsl(0.0,100%,20%)">davidbienvenu</text>
<text x="0.536" y="0.296" font-size="0.005455" fill="hsl(0.0,100%,20%)">skyostil</text>
<text x="1.631" y="0.043" font-size="0.012199" fill="hsl(0.0,100%,20%)">jkoshy</text>
<text x="1.671" y="0.226" font-size="0.005455" fill="hsl(0.0,100%,20%)">anasalazar</text>
<text x="0.713" y="0.859" font-size="0.013363" fill="hsl(0.0,100%,20%)">justincohen</text>
<text x="0.509" y="0.917" font-size="0.005455" fill="hsl(180.0,100%,20%)">ginnyhuang</text>
<text x="1.257" y="0.339" font-size="0.005455" fill="hsl(0.0,100%,20%)">leszeks</text>
<text x="1.304" y="0.305" font-size="0.007715" fill="hsl(0.0,100%,20%)">pasko</text>
<text x="1.350" y="0.317" font-size="0.005455" fill="hsl(0.0,100%,20%)">rogerm</text>
<text x="1.465" y="0.349" font-size="0.005455" fill="hsl(0.0,100%,20%)">tkent</text>
<text x="1.344" y="0.281" font-size="0.005455" fill="hsl(0.0,100%,20%)">kylechar</text>
<text x="1.108" y="0.597" font-size="0.005455" fill="hsl(180.0,100%,20%)">elkurin</text>
<text x="1.399" y="0.964" font-size="0.009449" fill="hsl(180.0,100%,20%)">leimy</text>
<text x="1.140" y="0.957" font-size="0.005455" fill="hsl(180.0,100%,20%)">chikamune</text>
<text x="1.184" y="0.964" font-size="0.005455" fill="hsl(180.0,100%,20%)">kouhei</text>
<text x="1.194" y="0.691" font-size="0.009449" fill="hsl(0.0,100%,20%)">paulsemel</text>
<text x="0.975" y="0.227" font-size="0.005455" fill="hsl(180.0,100%,20%)">liviutinta</text>
<text x="0.975" y="0.353" font-size="0.005455" fill="hsl(180.0,100%,20%)">caitkp</text>
<text x="1.270" y="0.346" font-size="0.005455" fill="hsl(180.0,100%,20%)">yoavweiss</text>
<text x="1.905" y="0.241" font-size="0.009449" fill="hsl(180.0,100%,20%)">nathan.teodosio</text>
<text x="0.480" y="0.385" font-size="0.010911" fill="hsl(180.0,100%,20%)">piotr.tworek</text>
<text x="1.122" y="0.709" font-size="0.005455" fill="hsl(180.0,100%,20%)">gab</text>
<text x="1.472" y="0.332" font-size="0.013363" fill="hsl(180.0,100%,20%)">pmeuleman</text>
<text x="0.202" y="0.161" font-size="0.012199" fill="hsl(0.0,100%,20%)">prashanthsw</text>
<text x="0.112" y="0.184" font-size="0.005455" fill="hsl(0.0,100%,20%)">ntfschr</text>
<text x="0.256" y="0.062" font-size="0.014434" fill="hsl(0.0,100%,20%)">thakis</text>
<text x="0.126" y="0.900" font-size="0.014434" fill="hsl(0.0,100%,20%)">wez</text>
<text x="0.764" y="0.388" font-size="0.012199" fill="hsl(180.0,100%,20%)">stha09</text>
<text x="1.507" y="0.757" font-size="0.007715" fill="hsl(0.0,100%,20%)">boliu</text>
<text x="0.306" y="0.074" font-size="0.005455" fill="hsl(0.0,100%,20%)">hans</text>
<text x="0.962" y="0.146" font-size="0.005455" fill="hsl(0.0,100%,20%)">olivierli</text>
<text x="0.774" y="0.187" font-size="0.009449" fill="hsl(0.0,100%,20%)">titouan</text>
<text x="0.981" y="0.119" font-size="0.005455" fill="hsl(0.0,100%,20%)">isaboori</text>
<text x="0.307" y="0.676" font-size="0.009449" fill="hsl(180.0,100%,20%)">uioptt24</text>
<text x="0.256" y="0.829" font-size="0.005455" fill="hsl(0.0,100%,20%)">iclelland</text>
<text x="0.298" y="0.847" font-size="0.005455" fill="hsl(0.0,100%,20%)">cbruni</text>
<text x="0.337" y="0.946" font-size="0.005455" fill="hsl(0.0,100%,20%)">ddorwin</text>
<text x="1.795" y="0.785" font-size="0.005455" fill="hsl(0.0,100%,20%)">dfried</text>
<text x="1.642" y="0.958" font-size="0.005455" fill="hsl(0.0,100%,20%)">msw</text>
<text x="1.628" y="0.949" font-size="0.005455" fill="hsl(0.0,100%,20%)">nektar</text>
<text x="1.653" y="0.831" font-size="0.005455" fill="hsl(0.0,100%,20%)">khokhlov</text>
<text x="0.607" y="0.980" font-size="0.010911" fill="hsl(180.0,100%,20%)">zhaojiazhong-hf</text>
<text x="0.747" y="0.937" font-size="0.005455" fill="hsl(0.0,100%,20%)">cwallez</text>
<text x="0.501" y="0.956" font-size="0.005455" fill="hsl(0.0,100%,20%)">kbr</text>
</svg>
