<svg width="4000" height="2000" viewBox="-0.025 -0.025 2.05 1.05" xmlns="http://www.w3.org/2000/svg">
  <style>
    path {
      fill: none;
      stroke-linecap: round;
      stroke-opacity: 0.4;
    }

    text {
      text-anchor: middle;
      alignment-baseline: hanging;
    }
  </style>
  <g opacity="0.4">
<path d="M0.435 0.423 Q0.910 0.549 1.259 0.345" stroke="hsl(0.0,100%,35%)" stroke-width="0.03689"></path>
<path d="M0.435 0.423 Q0.684 0.605 1.095 0.524" stroke="hsl(0.0,100%,35%)" stroke-width="0.04743"></path>
<path d="M0.435 0.423 Q0.260 0.422 0.219 0.507" stroke="hsl(0.0,100%,35%)" stroke-width="0.05270"></path>
<path d="M0.435 0.423 Q0.907 0.760 1.669 0.603" stroke="hsl(0.0,100%,35%)" stroke-width="0.00527"></path>
<path d="M0.435 0.423 Q0.980 0.627 1.496 0.406" stroke="hsl(0.0,100%,35%)" stroke-width="0.01054"></path>
<path d="M0.435 0.423 Q0.974 0.328 0.907 0.044" stroke="hsl(0.0,100%,35%)" stroke-width="0.00527"></path>
<path d="M0.435 0.423 Q1.249 0.563 1.701 0.196" stroke="hsl(0.0,100%,35%)" stroke-width="0.00527"></path>
<path d="M0.435 0.423 Q0.793 0.692 1.397 0.577" stroke="hsl(0.0,100%,35%)" stroke-width="0.00527"></path>
<path d="M1.259 0.345 Q1.257 0.556 1.669 0.603" stroke="hsl(0.0,100%,35%)" stroke-width="0.00527"></path>
<path d="M1.259 0.345 Q1.053 0.682 1.666 0.857" stroke="hsl(0.0,100%,35%)" stroke-width="0.00527"></path>
<path d="M1.259 0.345 Q1.034 0.401 1.095 0.524" stroke="hsl(0.0,100%,35%)" stroke-width="0.05797"></path>
<path d="M1.259 0.345 Q1.324 0.124 0.907 0.044" stroke="hsl(0.0,100%,35%)" stroke-width="0.00527"></path>
<path d="M1.259 0.345 Q1.490 0.443 1.732 0.352" stroke="hsl(0.0,100%,35%)" stroke-width="0.00527"></path>
<path d="M1.259 0.345 Q1.513 0.422 1.720 0.316" stroke="hsl(0.0,100%,35%)" stroke-width="0.00527"></path>
<path d="M1.259 0.345 Q1.599 0.358 1.701 0.196" stroke="hsl(0.0,100%,35%)" stroke-width="0.01054"></path>
<path d="M1.259 0.345 Q1.142 0.488 1.397 0.577" stroke="hsl(0.0,100%,35%)" stroke-width="0.01054"></path>
<path d="M1.259 0.345 Q1.461 0.313 1.442 0.207" stroke="hsl(0.0,100%,35%)" stroke-width="0.01054"></path>
<path d="M1.095 0.524 Q1.050 0.444 0.884 0.448" stroke="hsl(0.0,100%,35%)" stroke-width="0.04743"></path>
<path d="M1.095 0.524 Q0.864 0.584 0.932 0.710" stroke="hsl(0.0,100%,35%)" stroke-width="0.00527"></path>
<path d="M1.095 0.524 Q1.217 0.567 1.328 0.517" stroke="hsl(0.0,100%,35%)" stroke-width="0.00527"></path>
<path d="M1.095 0.524 Q0.670 0.340 0.219 0.507" stroke="hsl(0.0,100%,35%)" stroke-width="0.02108"></path>
<path d="M0.219 0.507 Q0.644 0.690 1.095 0.524" stroke="hsl(0.0,100%,35%)" stroke-width="0.00527"></path>
<path d="M0.219 0.507 Q0.353 0.367 0.109 0.272" stroke="hsl(0.0,100%,35%)" stroke-width="0.00527"></path>
<path d="M0.219 0.507 Q0.677 0.788 1.326 0.626" stroke="hsl(0.0,100%,35%)" stroke-width="0.00527"></path>
<path d="M0.219 0.507 Q0.867 0.845 1.669 0.603" stroke="hsl(0.0,100%,35%)" stroke-width="0.00527"></path>
<path d="M0.219 0.507 Q0.752 0.778 1.397 0.577" stroke="hsl(0.0,100%,35%)" stroke-width="0.00527"></path>
<path d="M1.496 0.406 Q1.291 0.570 1.568 0.707" stroke="hsl(0.0,100%,35%)" stroke-width="0.00527"></path>
<path d="M1.496 0.406 Q1.234 0.482 1.326 0.626" stroke="hsl(0.0,100%,35%)" stroke-width="0.00527"></path>
<path d="M1.496 0.406 Q1.201 0.384 1.095 0.524" stroke="hsl(0.0,100%,35%)" stroke-width="0.00527"></path>
<path d="M0.730 0.134 Q0.891 0.124 0.907 0.044" stroke="hsl(90.0,100%,35%)" stroke-width="0.00527"></path>
<path d="M0.730 0.134 Q0.620 0.683 1.666 0.857" stroke="hsl(90.0,100%,35%)" stroke-width="0.00527"></path>
<path d="M0.730 0.134 Q1.040 0.209 1.254 0.075" stroke="hsl(90.0,100%,35%)" stroke-width="0.00527"></path>
<path d="M1.666 0.857 Q1.593 0.909 1.679 0.956" stroke="hsl(90.0,100%,35%)" stroke-width="0.00527"></path>
<path d="M1.666 0.857 Q1.873 0.519 1.259 0.345" stroke="hsl(90.0,100%,35%)" stroke-width="0.00527"></path>
<path d="M1.666 0.857 Q1.385 0.839 1.289 0.972" stroke="hsl(90.0,100%,35%)" stroke-width="0.00527"></path>
<path d="M1.254 0.075 Q1.055 0.054 0.972 0.147" stroke="hsl(90.0,100%,35%)" stroke-width="0.00527"></path>
<path d="M1.254 0.075 Q1.105 -0.010 0.907 0.044" stroke="hsl(90.0,100%,35%)" stroke-width="0.01054"></path>
<path d="M1.254 0.075 Q0.941 0.079 0.880 0.232" stroke="hsl(90.0,100%,35%)" stroke-width="0.00527"></path>
<path d="M1.732 0.352 Q1.754 0.331 1.720 0.316" stroke="hsl(0.0,100%,35%)" stroke-width="0.00527"></path>
<path d="M1.732 0.352 Q1.501 0.254 1.259 0.345" stroke="hsl(0.0,100%,35%)" stroke-width="0.01054"></path>
<path d="M1.732 0.352 Q1.276 0.310 1.095 0.524" stroke="hsl(0.0,100%,35%)" stroke-width="0.00527"></path>
<path d="M1.732 0.352 Q1.499 0.465 1.669 0.603" stroke="hsl(0.0,100%,35%)" stroke-width="0.01054"></path>
<path d="M1.732 0.352 Q0.851 0.127 0.219 0.507" stroke="hsl(0.0,100%,35%)" stroke-width="0.00527"></path>
<path d="M1.732 0.352 Q1.610 0.477 1.827 0.563" stroke="hsl(0.0,100%,35%)" stroke-width="0.00527"></path>
<path d="M1.732 0.352 Q1.571 0.332 1.496 0.406" stroke="hsl(0.0,100%,35%)" stroke-width="0.01054"></path>
<path d="M1.009 0.819 Q0.872 0.901 1.002 0.986" stroke="hsl(180.0,100%,35%)" stroke-width="0.00527"></path>
<path d="M1.009 0.819 Q0.830 0.780 0.716 0.859" stroke="hsl(180.0,100%,35%)" stroke-width="0.00527"></path>
<path d="M1.009 0.819 Q1.288 0.688 1.095 0.524" stroke="hsl(180.0,100%,35%)" stroke-width="0.00527"></path>
<path d="M0.884 0.448 Q0.505 0.345 0.219 0.507" stroke="hsl(0.0,100%,35%)" stroke-width="0.01054"></path>
<path d="M0.884 0.448 Q0.929 0.528 1.095 0.524" stroke="hsl(0.0,100%,35%)" stroke-width="0.00527"></path>
<path d="M0.884 0.448 Q1.219 0.251 0.907 0.044" stroke="hsl(0.0,100%,35%)" stroke-width="0.00527"></path>
<path d="M0.884 0.448 Q1.224 0.549 1.496 0.406" stroke="hsl(0.0,100%,35%)" stroke-width="0.00527"></path>
<path d="M0.436 0.845 Q0.628 0.800 0.582 0.697" stroke="hsl(270.0,100%,35%)" stroke-width="0.00527"></path>
<path d="M0.436 0.845 Q0.375 0.915 0.497 0.960" stroke="hsl(270.0,100%,35%)" stroke-width="0.00527"></path>
<path d="M0.436 0.845 Q0.467 0.708 0.207 0.663" stroke="hsl(270.0,100%,35%)" stroke-width="0.00527"></path>
<path d="M0.436 0.845 Q1.023 0.816 1.095 0.524" stroke="hsl(270.0,100%,35%)" stroke-width="0.00527"></path>
</g>
<text x="0.435" y="0.385" font-size="0.076626" fill="hsl(0.0,100%,20%)">ayumiohno</text>
<text x="1.259" y="0.306" font-size="0.076626" fill="hsl(0.0,100%,20%)">mikt</text>
<text x="1.095" y="0.480" font-size="0.086735" fill="hsl(0.0,100%,20%)">tasak</text>
<text x="0.219" y="0.475" font-size="0.063535" fill="hsl(0.0,100%,20%)">nuskos</text>
<text x="1.669" y="0.588" font-size="0.030289" fill="hsl(0.0,100%,20%)">keishi</text>
<text x="1.496" y="0.386" font-size="0.038313" fill="hsl(0.0,100%,20%)">lizeb</text>
<text x="0.907" y="0.027" font-size="0.033180" fill="hsl(90.0,100%,20%)">dcheng</text>
<text x="1.701" y="0.184" font-size="0.023462" fill="hsl(0.0,100%,20%)">glazunov</text>
<text x="1.397" y="0.563" font-size="0.027091" fill="hsl(0.0,100%,20%)">tikuta</text>
<text x="0.730" y="0.123" font-size="0.023462" fill="hsl(90.0,100%,20%)">glaubitz</text>
<text x="1.666" y="0.842" font-size="0.030289" fill="hsl(90.0,100%,20%)">thestig</text>
<text x="1.254" y="0.059" font-size="0.030289" fill="hsl(90.0,100%,20%)">tsepez</text>
<text x="1.732" y="0.329" font-size="0.044926" fill="hsl(0.0,100%,20%)">justincohen</text>
<text x="1.720" y="0.306" font-size="0.019157" fill="hsl(0.0,100%,20%)">marq</text>
<text x="1.827" y="0.557" font-size="0.013546" fill="hsl(0.0,100%,20%)">rohitrao</text>
<text x="1.568" y="0.700" font-size="0.013546" fill="hsl(0.0,100%,20%)">bikineev</text>
<text x="1.326" y="0.617" font-size="0.019157" fill="hsl(0.0,100%,20%)">eseckler</text>
<text x="1.442" y="0.198" font-size="0.019157" fill="hsl(0.0,100%,20%)">kdlee</text>
<text x="0.109" y="0.265" font-size="0.013546" fill="hsl(0.0,100%,20%)">asvitkine</text>
<text x="1.009" y="0.807" font-size="0.023462" fill="hsl(180.0,100%,20%)">stefanoduo</text>
<text x="1.002" y="0.979" font-size="0.013546" fill="hsl(180.0,100%,20%)">bpastene</text>
<text x="0.716" y="0.852" font-size="0.013546" fill="hsl(180.0,100%,20%)">edechamps</text>
<text x="0.884" y="0.423" font-size="0.050683" fill="hsl(0.0,100%,20%)">yukishiino</text>
<text x="0.932" y="0.703" font-size="0.013546" fill="hsl(0.0,100%,20%)">kojii</text>
<text x="1.328" y="0.510" font-size="0.013546" fill="hsl(0.0,100%,20%)">danielyip</text>
<text x="1.679" y="0.949" font-size="0.013546" fill="hsl(90.0,100%,20%)">thomasanderson</text>
<text x="1.289" y="0.965" font-size="0.013546" fill="hsl(90.0,100%,20%)">ahijazi</text>
<text x="0.972" y="0.140" font-size="0.013546" fill="hsl(90.0,100%,20%)">davidben</text>
<text x="0.880" y="0.225" font-size="0.013546" fill="hsl(90.0,100%,20%)">evanstade</text>
<text x="0.436" y="0.831" font-size="0.027091" fill="hsl(270.0,100%,20%)">victorvianna</text>
<text x="0.582" y="0.690" font-size="0.013546" fill="hsl(270.0,100%,20%)">wfh</text>
<text x="0.497" y="0.953" font-size="0.013546" fill="hsl(270.0,100%,20%)">lambroslambrou</text>
<text x="0.207" y="0.656" font-size="0.013546" fill="hsl(270.0,100%,20%)">thakis</text>
</svg>
