<svg width="4000" height="2000" viewBox="-0.025 -0.025 2.05 1.05" xmlns="http://www.w3.org/2000/svg">
  <style>
    path {
      fill: none;
      stroke-linecap: round;
      stroke-opacity: 0.4;
    }

    text {
      text-anchor: middle;
      alignment-baseline: hanging;
    }
  </style>
  <g opacity="0.4">
<path d="M1.421 0.750 Q1.490 0.671 1.349 0.619" stroke="hsl(0.0,100%,35%)" stroke-width="0.00091"></path>
<path d="M1.421 0.750 Q0.800 0.471 0.118 0.712" stroke="hsl(0.0,100%,35%)" stroke-width="0.00091"></path>
<path d="M1.421 0.750 Q1.362 0.639 1.131 0.643" stroke="hsl(0.0,100%,35%)" stroke-width="0.00091"></path>
<path d="M1.421 0.750 Q1.284 0.709 1.173 0.766" stroke="hsl(0.0,100%,35%)" stroke-width="0.00091"></path>
<path d="M1.590 0.917 Q1.438 0.871 1.316 0.935" stroke="hsl(0.0,100%,35%)" stroke-width="0.00091"></path>
<path d="M1.590 0.917 Q1.910 0.866 1.880 0.698" stroke="hsl(0.0,100%,35%)" stroke-width="0.00091"></path>
<path d="M1.590 0.917 Q1.976 0.851 1.932 0.648" stroke="hsl(0.0,100%,35%)" stroke-width="0.00091"></path>
<path d="M1.880 0.698 Q1.946 0.684 1.932 0.648" stroke="hsl(0.0,100%,35%)" stroke-width="0.00183"></path>
<path d="M1.880 0.698 Q1.684 0.701 1.647 0.797" stroke="hsl(0.0,100%,35%)" stroke-width="0.00183"></path>
<path d="M1.880 0.698 Q1.339 0.403 0.643 0.602" stroke="hsl(0.0,100%,35%)" stroke-width="0.00183"></path>
<path d="M1.880 0.698 Q1.281 0.212 0.201 0.397" stroke="hsl(0.0,100%,35%)" stroke-width="0.00091"></path>
<path d="M1.880 0.698 Q1.429 0.515 0.973 0.695" stroke="hsl(0.0,100%,35%)" stroke-width="0.00091"></path>
<path d="M0.028 0.551 Q0.238 0.509 0.201 0.397" stroke="hsl(0.0,100%,35%)" stroke-width="0.08857"></path>
<path d="M0.028 0.551 Q0.090 0.634 0.265 0.622" stroke="hsl(0.0,100%,35%)" stroke-width="0.02100"></path>
<path d="M0.028 0.551 Q0.295 0.700 0.643 0.602" stroke="hsl(0.0,100%,35%)" stroke-width="0.03835"></path>
<path d="M0.028 0.551 Q0.342 0.578 0.463 0.430" stroke="hsl(0.0,100%,35%)" stroke-width="0.00730"></path>
<path d="M0.028 0.551 Q0.749 0.714 1.225 0.398" stroke="hsl(0.0,100%,35%)" stroke-width="0.00457"></path>
<path d="M0.028 0.551 Q0.836 0.995 1.880 0.698" stroke="hsl(0.0,100%,35%)" stroke-width="0.00091"></path>
<path d="M0.028 0.551 Q0.076 0.901 0.770 0.955" stroke="hsl(0.0,100%,35%)" stroke-width="0.00091"></path>
<path d="M0.028 0.551 Q0.389 0.558 0.481 0.384" stroke="hsl(0.0,100%,35%)" stroke-width="0.00365"></path>
<path d="M0.028 0.551 Q0.372 0.570 0.484 0.406" stroke="hsl(0.0,100%,35%)" stroke-width="0.00091"></path>
<path d="M0.028 0.551 Q0.288 0.525 0.294 0.392" stroke="hsl(0.0,100%,35%)" stroke-width="0.00183"></path>
<path d="M0.028 0.551 Q0.995 0.684 1.466 0.241" stroke="hsl(0.0,100%,35%)" stroke-width="0.01643"></path>
<path d="M0.028 0.551 Q0.365 1.001 1.316 0.935" stroke="hsl(0.0,100%,35%)" stroke-width="0.00091"></path>
<path d="M0.028 0.551 Q0.229 0.569 0.306 0.475" stroke="hsl(0.0,100%,35%)" stroke-width="0.00091"></path>
<path d="M0.028 0.551 Q0.503 0.406 0.323 0.142" stroke="hsl(0.0,100%,35%)" stroke-width="0.00091"></path>
<path d="M0.028 0.551 Q0.272 0.554 0.331 0.435" stroke="hsl(0.0,100%,35%)" stroke-width="0.00274"></path>
<path d="M0.028 0.551 Q0.334 0.536 0.371 0.383" stroke="hsl(0.0,100%,35%)" stroke-width="0.00091"></path>
<path d="M0.028 0.551 Q0.386 0.812 0.973 0.695" stroke="hsl(0.0,100%,35%)" stroke-width="0.00365"></path>
<path d="M0.028 0.551 Q0.561 0.694 0.957 0.466" stroke="hsl(0.0,100%,35%)" stroke-width="0.00365"></path>
<path d="M0.028 0.551 Q0.277 0.516 0.263 0.387" stroke="hsl(0.0,100%,35%)" stroke-width="0.00183"></path>
<path d="M0.028 0.551 Q0.269 0.527 0.274 0.404" stroke="hsl(0.0,100%,35%)" stroke-width="0.00183"></path>
<path d="M0.028 0.551 Q0.532 0.636 0.808 0.409" stroke="hsl(0.0,100%,35%)" stroke-width="0.00274"></path>
<path d="M0.028 0.551 Q0.424 0.526 0.461 0.328" stroke="hsl(0.0,100%,35%)" stroke-width="0.00091"></path>
<path d="M0.028 0.551 Q0.414 0.589 0.572 0.409" stroke="hsl(0.0,100%,35%)" stroke-width="0.00365"></path>
<path d="M0.028 0.551 Q0.466 0.608 0.672 0.407" stroke="hsl(0.0,100%,35%)" stroke-width="0.00274"></path>
<path d="M0.028 0.551 Q0.870 0.550 1.053 0.139" stroke="hsl(0.0,100%,35%)" stroke-width="0.00091"></path>
<path d="M0.028 0.551 Q0.506 0.818 1.131 0.643" stroke="hsl(0.0,100%,35%)" stroke-width="0.00183"></path>
<path d="M0.028 0.551 Q0.710 0.832 1.407 0.561" stroke="hsl(0.0,100%,35%)" stroke-width="0.00091"></path>
<path d="M0.028 0.551 Q0.352 0.548 0.417 0.389" stroke="hsl(0.0,100%,35%)" stroke-width="0.00183"></path>
<path d="M0.028 0.551 Q0.906 0.741 1.469 0.354" stroke="hsl(0.0,100%,35%)" stroke-width="0.00091"></path>
<path d="M0.028 0.551 Q0.351 0.556 0.431 0.399" stroke="hsl(0.0,100%,35%)" stroke-width="0.00091"></path>
<path d="M0.265 0.622 Q0.203 0.539 0.028 0.551" stroke="hsl(0.0,100%,35%)" stroke-width="0.02465"></path>
<path d="M0.265 0.622 Q0.706 0.624 0.808 0.409" stroke="hsl(0.0,100%,35%)" stroke-width="0.00183"></path>
<path d="M0.265 0.622 Q0.413 0.497 0.201 0.397" stroke="hsl(0.0,100%,35%)" stroke-width="0.02374"></path>
<path d="M0.265 0.622 Q0.736 0.682 0.957 0.466" stroke="hsl(0.0,100%,35%)" stroke-width="0.00183"></path>
<path d="M0.265 0.622 Q0.470 0.688 0.643 0.602" stroke="hsl(0.0,100%,35%)" stroke-width="0.00730"></path>
<path d="M0.643 0.602 Q0.376 0.454 0.028 0.551" stroke="hsl(0.0,100%,35%)" stroke-width="0.04565"></path>
<path d="M0.643 0.602 Q0.586 0.411 0.201 0.397" stroke="hsl(0.0,100%,35%)" stroke-width="0.09222"></path>
<path d="M0.643 0.602 Q0.734 0.715 0.973 0.695" stroke="hsl(0.0,100%,35%)" stroke-width="0.01370"></path>
<path d="M0.643 0.602 Q0.989 0.900 1.647 0.797" stroke="hsl(0.0,100%,35%)" stroke-width="0.00091"></path>
<path d="M0.643 0.602 Q1.344 0.586 1.466 0.241" stroke="hsl(0.0,100%,35%)" stroke-width="0.00091"></path>
<path d="M0.643 0.602 Q0.841 0.546 0.775 0.437" stroke="hsl(0.0,100%,35%)" stroke-width="0.00091"></path>
<path d="M0.643 0.602 Q0.880 0.539 0.808 0.409" stroke="hsl(0.0,100%,35%)" stroke-width="0.00091"></path>
<path d="M0.643 0.602 Q0.837 0.540 0.760 0.432" stroke="hsl(0.0,100%,35%)" stroke-width="0.00548"></path>
<path d="M0.643 0.602 Q1.276 0.642 1.492 0.342" stroke="hsl(0.0,100%,35%)" stroke-width="0.00091"></path>
<path d="M0.643 0.602 Q0.819 0.498 0.655 0.390" stroke="hsl(0.0,100%,35%)" stroke-width="0.00091"></path>
<path d="M0.643 0.602 Q0.575 0.651 0.655 0.695" stroke="hsl(0.0,100%,35%)" stroke-width="0.00091"></path>
<path d="M0.643 0.602 Q0.699 0.458 0.431 0.399" stroke="hsl(0.0,100%,35%)" stroke-width="0.00365"></path>
<path d="M0.643 0.602 Q0.842 0.615 0.910 0.521" stroke="hsl(0.0,100%,35%)" stroke-width="0.00183"></path>
<path d="M0.643 0.602 Q0.641 0.682 0.797 0.701" stroke="hsl(0.0,100%,35%)" stroke-width="0.00091"></path>
<path d="M0.643 0.602 Q0.854 0.720 1.131 0.643" stroke="hsl(0.0,100%,35%)" stroke-width="0.00183"></path>
<path d="M0.643 0.602 Q0.605 0.718 0.822 0.763" stroke="hsl(0.0,100%,35%)" stroke-width="0.00091"></path>
<path d="M0.643 0.602 Q0.691 0.480 0.463 0.430" stroke="hsl(0.0,100%,35%)" stroke-width="0.00091"></path>
<path d="M0.643 0.602 Q1.061 0.493 0.939 0.265" stroke="hsl(0.0,100%,35%)" stroke-width="0.00091"></path>
<path d="M0.643 0.602 Q0.577 0.471 0.306 0.475" stroke="hsl(0.0,100%,35%)" stroke-width="0.00091"></path>
<path d="M0.643 0.602 Q1.058 0.734 1.407 0.561" stroke="hsl(0.0,100%,35%)" stroke-width="0.00091"></path>
<path d="M0.643 0.602 Q0.425 0.804 0.770 0.955" stroke="hsl(0.0,100%,35%)" stroke-width="0.00091"></path>
<path d="M0.643 0.602 Q0.439 0.536 0.265 0.622" stroke="hsl(0.0,100%,35%)" stroke-width="0.00365"></path>
<path d="M0.643 0.602 Q0.860 0.600 0.903 0.493" stroke="hsl(0.0,100%,35%)" stroke-width="0.00091"></path>
<path d="M0.643 0.602 Q0.909 0.597 0.957 0.466" stroke="hsl(0.0,100%,35%)" stroke-width="0.01461"></path>
<path d="M0.643 0.602 Q0.762 0.491 0.572 0.409" stroke="hsl(0.0,100%,35%)" stroke-width="0.00183"></path>
<path d="M0.463 0.430 Q0.149 0.404 0.028 0.551" stroke="hsl(0.0,100%,35%)" stroke-width="0.01004"></path>
<path d="M0.463 0.430 Q1.048 0.592 1.492 0.342" stroke="hsl(0.0,100%,35%)" stroke-width="0.00091"></path>
<path d="M0.463 0.430 Q0.416 0.552 0.643 0.602" stroke="hsl(0.0,100%,35%)" stroke-width="0.00548"></path>
<path d="M0.463 0.430 Q0.211 0.487 0.265 0.622" stroke="hsl(0.0,100%,35%)" stroke-width="0.00274"></path>
<path d="M0.463 0.430 Q0.358 0.361 0.201 0.397" stroke="hsl(0.0,100%,35%)" stroke-width="0.00548"></path>
<path d="M0.463 0.430 Q0.652 0.489 0.808 0.409" stroke="hsl(0.0,100%,35%)" stroke-width="0.00183"></path>
<path d="M0.463 0.430 Q0.681 0.547 0.957 0.466" stroke="hsl(0.0,100%,35%)" stroke-width="0.00274"></path>
<path d="M1.225 0.398 Q1.471 0.368 1.466 0.241" stroke="hsl(0.0,100%,35%)" stroke-width="0.00730"></path>
<path d="M1.225 0.398 Q0.714 0.193 0.201 0.397" stroke="hsl(0.0,100%,35%)" stroke-width="0.00639"></path>
<path d="M1.225 0.398 Q1.382 0.425 1.469 0.354" stroke="hsl(0.0,100%,35%)" stroke-width="0.00183"></path>
<path d="M1.225 0.398 Q1.183 0.454 1.283 0.486" stroke="hsl(0.0,100%,35%)" stroke-width="0.00091"></path>
<path d="M1.225 0.398 Q0.771 0.384 0.643 0.602" stroke="hsl(0.0,100%,35%)" stroke-width="0.00091"></path>
<path d="M1.225 0.398 Q1.461 0.460 1.633 0.359" stroke="hsl(0.0,100%,35%)" stroke-width="0.00091"></path>
<path d="M1.225 0.398 Q0.504 0.235 0.028 0.551" stroke="hsl(0.0,100%,35%)" stroke-width="0.00639"></path>
<path d="M1.466 0.241 Q0.708 0.066 0.201 0.397" stroke="hsl(0.0,100%,35%)" stroke-width="0.06117"></path>
<path d="M1.466 0.241 Q1.220 0.271 1.225 0.398" stroke="hsl(0.0,100%,35%)" stroke-width="0.05844"></path>
<path d="M1.466 0.241 Q0.499 0.109 0.028 0.551" stroke="hsl(0.0,100%,35%)" stroke-width="0.01643"></path>
<path d="M1.466 0.241 Q0.885 0.146 0.572 0.409" stroke="hsl(0.0,100%,35%)" stroke-width="0.00457"></path>
<path d="M1.466 0.241 Q1.398 0.297 1.492 0.342" stroke="hsl(0.0,100%,35%)" stroke-width="0.00091"></path>
<path d="M1.466 0.241 Q1.002 0.194 0.808 0.409" stroke="hsl(0.0,100%,35%)" stroke-width="0.00091"></path>
<path d="M1.466 0.241 Q1.494 0.337 1.688 0.345" stroke="hsl(0.0,100%,35%)" stroke-width="0.00091"></path>
<path d="M1.466 0.241 Q1.341 0.107 1.053 0.139" stroke="hsl(0.0,100%,35%)" stroke-width="0.00091"></path>
<path d="M1.466 0.241 Q1.178 0.327 1.283 0.486" stroke="hsl(0.0,100%,35%)" stroke-width="0.00091"></path>
<path d="M1.466 0.241 Q0.766 0.257 0.643 0.602" stroke="hsl(0.0,100%,35%)" stroke-width="0.00822"></path>
<path d="M1.466 0.241 Q1.377 0.298 1.469 0.354" stroke="hsl(0.0,100%,35%)" stroke-width="0.00091"></path>
<path d="M1.466 0.241 Q0.561 0.191 0.265 0.622" stroke="hsl(0.0,100%,35%)" stroke-width="0.00091"></path>
<path d="M0.973 0.695 Q0.825 0.392 0.201 0.397" stroke="hsl(0.0,100%,35%)" stroke-width="0.00548"></path>
<path d="M0.973 0.695 Q1.094 0.701 1.131 0.643" stroke="hsl(0.0,100%,35%)" stroke-width="0.00091"></path>
<path d="M0.973 0.695 Q0.883 0.583 0.643 0.602" stroke="hsl(0.0,100%,35%)" stroke-width="0.00183"></path>
<path d="M0.973 0.695 Q0.876 0.408 0.294 0.392" stroke="hsl(0.0,100%,35%)" stroke-width="0.00091"></path>
<path d="M0.973 0.695 Q0.532 0.533 0.118 0.712" stroke="hsl(0.0,100%,35%)" stroke-width="0.00091"></path>
<path d="M0.973 0.695 Q1.002 0.472 0.572 0.409" stroke="hsl(0.0,100%,35%)" stroke-width="0.00091"></path>
<path d="M0.973 0.695 Q0.616 0.434 0.028 0.551" stroke="hsl(0.0,100%,35%)" stroke-width="0.00091"></path>
<path d="M0.957 0.466 Q0.691 0.471 0.643 0.602" stroke="hsl(0.0,100%,35%)" stroke-width="0.00639"></path>
<path d="M0.957 0.466 Q0.424 0.323 0.028 0.551" stroke="hsl(0.0,100%,35%)" stroke-width="0.00365"></path>
<path d="M0.957 0.466 Q0.634 0.280 0.201 0.397" stroke="hsl(0.0,100%,35%)" stroke-width="0.00274"></path>
<path d="M1.469 0.354 Q1.559 0.297 1.466 0.241" stroke="hsl(0.0,100%,35%)" stroke-width="0.00183"></path>
<path d="M1.469 0.354 Q1.312 0.327 1.225 0.398" stroke="hsl(0.0,100%,35%)" stroke-width="0.00183"></path>
<path d="M1.469 0.354 Q0.801 0.122 0.201 0.397" stroke="hsl(0.0,100%,35%)" stroke-width="0.00091"></path>
<path d="M0.939 0.265 Q1.222 0.358 1.466 0.241" stroke="hsl(0.0,100%,35%)" stroke-width="0.00183"></path>
<path d="M0.939 0.265 Q0.464 0.184 0.201 0.397" stroke="hsl(0.0,100%,35%)" stroke-width="0.00183"></path>
<path d="M0.939 0.265 Q0.867 0.673 1.647 0.797" stroke="hsl(0.0,100%,35%)" stroke-width="0.00091"></path>
<path d="M0.939 0.265 Q0.255 0.226 0.028 0.551" stroke="hsl(0.0,100%,35%)" stroke-width="0.00091"></path>
<path d="M0.939 0.265 Q0.641 0.263 0.572 0.409" stroke="hsl(0.0,100%,35%)" stroke-width="0.00183"></path>
<path d="M0.375 0.770 Q0.643 0.740 0.643 0.602" stroke="hsl(0.0,100%,35%)" stroke-width="0.00091"></path>
<path d="M0.375 0.770 Q0.734 0.852 0.973 0.695" stroke="hsl(0.0,100%,35%)" stroke-width="0.00091"></path>
<path d="M0.375 0.770 Q0.292 0.690 0.118 0.712" stroke="hsl(0.0,100%,35%)" stroke-width="0.00183"></path>
<path d="M0.375 0.770 Q0.376 0.591 0.028 0.551" stroke="hsl(0.0,100%,35%)" stroke-width="0.00091"></path>
<path d="M0.944 0.354 Q0.832 0.354 0.808 0.409" stroke="hsl(0.0,100%,35%)" stroke-width="0.00091"></path>
<path d="M0.944 0.354 Q0.595 0.418 0.643 0.602" stroke="hsl(0.0,100%,35%)" stroke-width="0.00091"></path>
<path d="M0.944 0.354 Q0.941 0.716 1.647 0.797" stroke="hsl(0.0,100%,35%)" stroke-width="0.00091"></path>
<path d="M0.686 0.256 Q0.331 0.230 0.201 0.397" stroke="hsl(0.0,100%,35%)" stroke-width="0.01187"></path>
<path d="M0.686 0.256 Q0.388 0.421 0.643 0.602" stroke="hsl(0.0,100%,35%)" stroke-width="0.00730"></path>
<path d="M0.686 0.256 Q0.121 0.272 0.028 0.551" stroke="hsl(0.0,100%,35%)" stroke-width="0.01187"></path>
<path d="M0.686 0.256 Q0.625 0.357 0.808 0.409" stroke="hsl(0.0,100%,35%)" stroke-width="0.00091"></path>
<path d="M0.686 0.256 Q0.507 0.310 0.572 0.409" stroke="hsl(0.0,100%,35%)" stroke-width="0.00091"></path>
<path d="M0.686 0.256 Q0.559 0.329 0.672 0.407" stroke="hsl(0.0,100%,35%)" stroke-width="0.00091"></path>
<path d="M0.681 0.838 Q0.584 0.564 0.028 0.551" stroke="hsl(0.0,100%,35%)" stroke-width="0.00091"></path>
<path d="M0.681 0.838 Q0.632 0.914 0.770 0.955" stroke="hsl(0.0,100%,35%)" stroke-width="0.00091"></path>
<path d="M0.681 0.838 Q1.087 0.649 0.808 0.409" stroke="hsl(0.0,100%,35%)" stroke-width="0.00091"></path>
<path d="M0.420 0.232 Q-0.032 0.313 0.028 0.551" stroke="hsl(0.0,100%,35%)" stroke-width="0.00091"></path>
<path d="M0.420 0.232 Q0.936 0.445 1.466 0.241" stroke="hsl(0.0,100%,35%)" stroke-width="0.00091"></path>
<path d="M0.420 0.232 Q0.178 0.271 0.201 0.397" stroke="hsl(0.0,100%,35%)" stroke-width="0.00183"></path>
<path d="M0.420 0.232 Q-0.116 0.411 0.118 0.712" stroke="hsl(0.0,100%,35%)" stroke-width="0.00091"></path>
<path d="M1.600 0.605 Q0.857 0.264 0.028 0.551" stroke="hsl(0.0,100%,35%)" stroke-width="0.00091"></path>
<path d="M1.600 0.605 Q1.124 0.412 0.643 0.602" stroke="hsl(0.0,100%,35%)" stroke-width="0.00091"></path>
<path d="M1.600 0.605 Q1.539 0.545 1.407 0.561" stroke="hsl(0.0,100%,35%)" stroke-width="0.00274"></path>
<path d="M1.600 0.605 Q1.067 0.221 0.201 0.397" stroke="hsl(0.0,100%,35%)" stroke-width="0.00183"></path>
<path d="M1.236 0.230 Q1.342 0.281 1.466 0.241" stroke="hsl(0.0,100%,35%)" stroke-width="0.00274"></path>
<path d="M1.236 0.230 Q0.584 0.106 0.201 0.397" stroke="hsl(0.0,100%,35%)" stroke-width="0.00091"></path>
<path d="M1.236 0.230 Q1.096 0.312 1.225 0.398" stroke="hsl(0.0,100%,35%)" stroke-width="0.00183"></path>
<path d="M1.255 0.073 Q1.300 0.070 1.304 0.047" stroke="hsl(0.0,100%,35%)" stroke-width="0.00091"></path>
<path d="M1.255 0.073 Q1.177 0.104 1.221 0.149" stroke="hsl(0.0,100%,35%)" stroke-width="0.00091"></path>
<path d="M1.255 0.073 Q0.871 0.514 1.647 0.797" stroke="hsl(0.0,100%,35%)" stroke-width="0.00183"></path>
<path d="M1.255 0.073 Q1.176 0.002 1.021 0.024" stroke="hsl(0.0,100%,35%)" stroke-width="0.00274"></path>
<path d="M1.255 0.073 Q0.175 0.165 0.118 0.712" stroke="hsl(0.0,100%,35%)" stroke-width="0.00091"></path>
<path d="M1.255 0.073 Q1.028 0.083 0.998 0.196" stroke="hsl(0.0,100%,35%)" stroke-width="0.00091"></path>
<path d="M1.255 0.073 Q0.989 -0.023 0.744 0.085" stroke="hsl(0.0,100%,35%)" stroke-width="0.00091"></path>
<path d="M1.255 0.073 Q1.087 0.029 0.964 0.101" stroke="hsl(0.0,100%,35%)" stroke-width="0.00091"></path>
</g>
<text x="1.421" y="0.746" font-size="0.009518" fill="hsl(0.0,100%,20%)">abarth</text>
<text x="1.349" y="0.617" font-size="0.004759" fill="hsl(0.0,100%,20%)">ddorwin</text>
<text x="0.118" y="0.706" font-size="0.011658" fill="hsl(0.0,100%,20%)">tsepez</text>
<text x="1.131" y="0.638" font-size="0.011658" fill="hsl(0.0,100%,20%)">wez</text>
<text x="1.173" y="0.764" font-size="0.004759" fill="hsl(0.0,100%,20%)">kmarshall</text>
<text x="1.590" y="0.913" font-size="0.008243" fill="hsl(0.0,100%,20%)">avi</text>
<text x="1.316" y="0.932" font-size="0.006731" fill="hsl(0.0,100%,20%)">asvitkine</text>
<text x="1.880" y="0.691" font-size="0.015050" fill="hsl(0.0,100%,20%)">mark</text>
<text x="1.932" y="0.644" font-size="0.008243" fill="hsl(0.0,100%,20%)">rsesek</text>
<text x="0.028" y="0.505" font-size="0.092284" fill="hsl(0.0,100%,20%)">bartekn</text>
<text x="0.201" y="0.354" font-size="0.087108" fill="hsl(0.0,100%,20%)">haraken</text>
<text x="0.265" y="0.598" font-size="0.046631" fill="hsl(0.0,100%,20%)">tasak</text>
<text x="0.643" y="0.561" font-size="0.083116" fill="hsl(0.0,100%,20%)">lizeb</text>
<text x="0.463" y="0.415" font-size="0.030474" fill="hsl(0.0,100%,20%)">keishi</text>
<text x="1.225" y="0.374" font-size="0.047592" fill="hsl(0.0,100%,20%)">mlippautz</text>
<text x="0.770" y="0.951" font-size="0.008243" fill="hsl(0.0,100%,20%)">danakj</text>
<text x="0.481" y="0.379" font-size="0.009518" fill="hsl(0.0,100%,20%)">isherman</text>
<text x="0.484" y="0.404" font-size="0.004759" fill="hsl(0.0,100%,20%)">jbroman</text>
<text x="0.294" y="0.388" font-size="0.008243" fill="hsl(0.0,100%,20%)">mpdenton</text>
<text x="1.466" y="0.207" font-size="0.068141" fill="hsl(0.0,100%,20%)">bikineev</text>
<text x="0.306" y="0.471" font-size="0.006731" fill="hsl(0.0,100%,20%)">grt</text>
<text x="0.323" y="0.139" font-size="0.004759" fill="hsl(0.0,100%,20%)">robertshield</text>
<text x="0.331" y="0.431" font-size="0.008243" fill="hsl(0.0,100%,20%)">sebmarchand</text>
<text x="0.371" y="0.380" font-size="0.004759" fill="hsl(0.0,100%,20%)">ydago</text>
<text x="0.973" y="0.681" font-size="0.027751" fill="hsl(0.0,100%,20%)">palmer</text>
<text x="0.957" y="0.451" font-size="0.029721" fill="hsl(0.0,100%,20%)">yukishiino</text>
<text x="0.263" y="0.383" font-size="0.006731" fill="hsl(0.0,100%,20%)">yutak</text>
<text x="0.274" y="0.401" font-size="0.006731" fill="hsl(0.0,100%,20%)">erikchen</text>
<text x="0.808" y="0.401" font-size="0.016486" fill="hsl(0.0,100%,20%)">dcheng</text>
<text x="0.461" y="0.326" font-size="0.004759" fill="hsl(0.0,100%,20%)">primiano</text>
<text x="0.572" y="0.399" font-size="0.018432" fill="hsl(0.0,100%,20%)">wfh</text>
<text x="0.672" y="0.402" font-size="0.009518" fill="hsl(0.0,100%,20%)">rockot</text>
<text x="1.053" y="0.136" font-size="0.006731" fill="hsl(0.0,100%,20%)">holte</text>
<text x="1.407" y="0.556" font-size="0.010642" fill="hsl(0.0,100%,20%)">ajwong</text>
<text x="0.417" y="0.386" font-size="0.006731" fill="hsl(0.0,100%,20%)">rmcilroy</text>
<text x="1.469" y="0.347" font-size="0.014278" fill="hsl(0.0,100%,20%)">hpayer</text>
<text x="0.431" y="0.394" font-size="0.010642" fill="hsl(0.0,100%,20%)">ssid</text>
<text x="1.492" y="0.338" font-size="0.008243" fill="hsl(0.0,100%,20%)">fdoray</text>
<text x="1.688" y="0.343" font-size="0.004759" fill="hsl(0.0,100%,20%)">gab</text>
<text x="1.283" y="0.483" font-size="0.006731" fill="hsl(0.0,100%,20%)">ulan</text>
<text x="0.939" y="0.258" font-size="0.014278" fill="hsl(0.0,100%,20%)">brucedawson</text>
<text x="1.647" y="0.791" font-size="0.012592" fill="hsl(0.0,100%,20%)">thakis</text>
<text x="0.375" y="0.765" font-size="0.010642" fill="hsl(0.0,100%,20%)">ellyjones</text>
<text x="0.944" y="0.350" font-size="0.008243" fill="hsl(0.0,100%,20%)">gabor.kertesz</text>
<text x="0.686" y="0.242" font-size="0.028949" fill="hsl(0.0,100%,20%)">glazunov</text>
<text x="0.681" y="0.834" font-size="0.008243" fill="hsl(0.0,100%,20%)">jannh</text>
<text x="0.775" y="0.435" font-size="0.004759" fill="hsl(0.0,100%,20%)">caitlinfischer</text>
<text x="0.760" y="0.426" font-size="0.011658" fill="hsl(0.0,100%,20%)">pasko</text>
<text x="0.655" y="0.387" font-size="0.004759" fill="hsl(0.0,100%,20%)">sinansahin</text>
<text x="0.655" y="0.693" font-size="0.004759" fill="hsl(0.0,100%,20%)">alexilin</text>
<text x="0.910" y="0.518" font-size="0.006731" fill="hsl(0.0,100%,20%)">arthursonzogni</text>
<text x="0.797" y="0.699" font-size="0.004759" fill="hsl(0.0,100%,20%)">agrieve</text>
<text x="0.822" y="0.760" font-size="0.004759" fill="hsl(0.0,100%,20%)">hendrich</text>
<text x="0.903" y="0.491" font-size="0.004759" fill="hsl(0.0,100%,20%)">jwd</text>
<text x="1.633" y="0.356" font-size="0.004759" fill="hsl(0.0,100%,20%)">eseckler</text>
<text x="0.420" y="0.226" font-size="0.010642" fill="hsl(0.0,100%,20%)">ptworek</text>
<text x="1.600" y="0.599" font-size="0.012592" fill="hsl(0.0,100%,20%)">richard.townsend</text>
<text x="1.236" y="0.224" font-size="0.011658" fill="hsl(0.0,100%,20%)">stha09</text>
<text x="1.255" y="0.065" font-size="0.015785" fill="hsl(0.0,100%,20%)">thestig</text>
<text x="1.304" y="0.045" font-size="0.004759" fill="hsl(0.0,100%,20%)">sammc</text>
<text x="1.221" y="0.147" font-size="0.004759" fill="hsl(0.0,100%,20%)">sdefresne</text>
<text x="1.021" y="0.020" font-size="0.008243" fill="hsl(0.0,100%,20%)">pbos</text>
<text x="0.998" y="0.194" font-size="0.004759" fill="hsl(0.0,100%,20%)">ajgo</text>
<text x="0.744" y="0.083" font-size="0.004759" fill="hsl(0.0,100%,20%)">pkasting</text>
<text x="0.964" y="0.099" font-size="0.004759" fill="hsl(0.0,100%,20%)">dhoss</text>
</svg>
