<svg width="4000" height="2000" viewBox="-0.025 -0.025 2.05 1.05" xmlns="http://www.w3.org/2000/svg">
  <style>
    path {
      fill: none;
      stroke-linecap: round;
      stroke-opacity: 0.4;
    }

    text {
      text-anchor: middle;
      alignment-baseline: hanging;
    }
  </style>
  <g opacity="0.4">
<path d="M1.836 0.326 Q1.795 0.226 1.590 0.223" stroke="hsl(0.0,100%,35%)" stroke-width="0.02038"></path>
<path d="M1.836 0.326 Q1.554 0.437 1.706 0.598" stroke="hsl(0.0,100%,35%)" stroke-width="0.02038"></path>
<path d="M1.836 0.326 Q0.921 0.099 0.276 0.496" stroke="hsl(0.0,100%,35%)" stroke-width="0.02038"></path>
<path d="M0.160 0.316 Q0.074 0.429 0.276 0.496" stroke="hsl(0.0,100%,35%)" stroke-width="0.06113"></path>
<path d="M0.160 0.316 Q0.574 0.358 0.747 0.166" stroke="hsl(0.0,100%,35%)" stroke-width="0.02038"></path>
<path d="M0.160 0.316 Q0.282 0.475 0.619 0.450" stroke="hsl(0.0,100%,35%)" stroke-width="0.06113"></path>
<path d="M0.160 0.316 Q0.949 0.555 1.590 0.223" stroke="hsl(0.0,100%,35%)" stroke-width="0.02038"></path>
<path d="M0.160 0.316 Q-0.071 0.480 0.200 0.629" stroke="hsl(0.0,100%,35%)" stroke-width="0.02038"></path>
<path d="M0.160 0.316 Q0.409 0.316 0.465 0.195" stroke="hsl(0.0,100%,35%)" stroke-width="0.02038"></path>
<path d="M0.160 0.316 Q0.484 0.273 0.472 0.106" stroke="hsl(0.0,100%,35%)" stroke-width="0.02038"></path>
<path d="M0.160 0.316 Q-0.084 0.444 0.112 0.591" stroke="hsl(0.0,100%,35%)" stroke-width="0.02038"></path>
<path d="M0.160 0.316 Q0.544 0.326 0.649 0.141" stroke="hsl(0.0,100%,35%)" stroke-width="0.02038"></path>
<path d="M0.160 0.316 Q0.707 0.766 1.706 0.598" stroke="hsl(0.0,100%,35%)" stroke-width="0.02038"></path>
</g>
<text x="1.836" y="0.297" font-size="0.059409" fill="hsl(0.0,100%,20%)">lizeb</text>
<text x="1.590" y="0.199" font-size="0.048507" fill="hsl(0.0,100%,20%)">glazunov</text>
<text x="1.706" y="0.574" font-size="0.048507" fill="hsl(0.0,100%,20%)">yukishiino</text>
<text x="0.276" y="0.461" font-size="0.068599" fill="hsl(0.0,100%,20%)">keishi</text>
<text x="0.160" y="0.251" font-size="0.128338" fill="hsl(0.0,100%,20%)">mikt</text>
<text x="0.747" y="0.149" font-size="0.034300" fill="hsl(0.0,100%,20%)">dcheng</text>
<text x="0.619" y="0.420" font-size="0.059409" fill="hsl(0.0,100%,20%)">tasak</text>
<text x="0.200" y="0.612" font-size="0.034300" fill="hsl(0.0,100%,20%)">wez</text>
<text x="0.465" y="0.178" font-size="0.034300" fill="hsl(0.0,100%,20%)">gab</text>
<text x="0.472" y="0.088" font-size="0.034300" fill="hsl(0.0,100%,20%)">thiabaud</text>
<text x="0.112" y="0.574" font-size="0.034300" fill="hsl(0.0,100%,20%)">fdoray</text>
<text x="0.649" y="0.124" font-size="0.034300" fill="hsl(0.0,100%,20%)">paulsemel</text>
</svg>
