<svg width="4000" height="2000" viewBox="-0.025 -0.025 2.05 1.05" xmlns="http://www.w3.org/2000/svg">
  <style>
    path {
      fill: none;
      stroke-linecap: round;
      stroke-opacity: 0.4;
    }

    text {
      text-anchor: middle;
      alignment-baseline: hanging;
    }
  </style>
  <g opacity="0.4">
<path d="M1.468 0.150 Q1.608 0.157 1.653 0.090" stroke="hsl(0.0,100%,35%)" stroke-width="0.02491"></path>
<path d="M1.468 0.150 Q0.795 0.441 1.215 0.833" stroke="hsl(0.0,100%,35%)" stroke-width="0.01245"></path>
<path d="M1.468 0.150 Q1.413 0.223 1.542 0.266" stroke="hsl(0.0,100%,35%)" stroke-width="0.01245"></path>
<path d="M0.872 0.257 Q1.255 0.323 1.468 0.150" stroke="hsl(0.0,100%,35%)" stroke-width="0.01245"></path>
<path d="M0.872 0.257 Q0.733 0.216 0.622 0.275" stroke="hsl(0.0,100%,35%)" stroke-width="0.01245"></path>
<path d="M0.872 0.257 Q1.059 0.162 0.915 0.050" stroke="hsl(0.0,100%,35%)" stroke-width="0.01245"></path>
<path d="M1.314 0.556 Q1.616 0.628 1.824 0.497" stroke="hsl(180.0,100%,35%)" stroke-width="0.08718"></path>
<path d="M1.314 0.556 Q1.351 0.662 1.567 0.668" stroke="hsl(180.0,100%,35%)" stroke-width="0.01245"></path>
<path d="M1.314 0.556 Q1.042 0.674 1.215 0.833" stroke="hsl(180.0,100%,35%)" stroke-width="0.06227"></path>
<path d="M1.314 0.556 Q1.455 0.439 1.260 0.345" stroke="hsl(180.0,100%,35%)" stroke-width="0.01245"></path>
<path d="M1.314 0.556 Q1.430 0.657 1.653 0.622" stroke="hsl(180.0,100%,35%)" stroke-width="0.01245"></path>
<path d="M0.757 0.792 Q0.953 0.904 1.215 0.833" stroke="hsl(180.0,100%,35%)" stroke-width="0.01245"></path>
<path d="M0.757 0.792 Q0.674 0.714 0.503 0.737" stroke="hsl(180.0,100%,35%)" stroke-width="0.02491"></path>
<path d="M0.757 0.792 Q0.849 0.631 0.556 0.551" stroke="hsl(180.0,100%,35%)" stroke-width="0.01245"></path>
<path d="M0.757 0.792 Q0.980 0.755 0.957 0.637" stroke="hsl(180.0,100%,35%)" stroke-width="0.01245"></path>
<path d="M0.757 0.792 Q1.203 0.852 1.417 0.647" stroke="hsl(180.0,100%,35%)" stroke-width="0.01245"></path>
<path d="M1.841 0.343 Q1.635 0.476 1.849 0.605" stroke="hsl(180.0,100%,35%)" stroke-width="0.02491"></path>
<path d="M1.841 0.343 Q1.407 0.344 1.314 0.556" stroke="hsl(180.0,100%,35%)" stroke-width="0.02491"></path>
<path d="M1.841 0.343 Q1.709 0.417 1.824 0.497" stroke="hsl(180.0,100%,35%)" stroke-width="0.03736"></path>
</g>
<text x="1.468" y="0.124" font-size="0.053452" fill="hsl(0.0,100%,20%)">arthursonzogni</text>
<text x="1.653" y="0.073" font-size="0.033806" fill="hsl(0.0,100%,20%)">danakj</text>
<text x="1.215" y="0.801" font-size="0.063246" fill="hsl(180.0,100%,20%)">keishi</text>
<text x="1.542" y="0.254" font-size="0.023905" fill="hsl(0.0,100%,20%)">dcheng</text>
<text x="0.872" y="0.236" font-size="0.041404" fill="hsl(0.0,100%,20%)">edechamps</text>
<text x="0.622" y="0.263" font-size="0.023905" fill="hsl(0.0,100%,20%)">fdoray</text>
<text x="0.915" y="0.038" font-size="0.023905" fill="hsl(0.0,100%,20%)">lukasza</text>
<text x="1.314" y="0.506" font-size="0.098561" fill="hsl(180.0,100%,20%)">mikt</text>
<text x="1.824" y="0.459" font-size="0.075593" fill="hsl(180.0,100%,20%)">tasak</text>
<text x="1.567" y="0.656" font-size="0.023905" fill="hsl(180.0,100%,20%)">marq</text>
<text x="1.260" y="0.333" font-size="0.023905" fill="hsl(180.0,100%,20%)">mpdenton</text>
<text x="1.653" y="0.610" font-size="0.023905" fill="hsl(180.0,100%,20%)">nuskos</text>
<text x="0.757" y="0.763" font-size="0.058554" fill="hsl(180.0,100%,20%)">pkasting</text>
<text x="0.503" y="0.720" font-size="0.033806" fill="hsl(180.0,100%,20%)">lizeb</text>
<text x="0.556" y="0.539" font-size="0.023905" fill="hsl(180.0,100%,20%)">blundell</text>
<text x="0.957" y="0.625" font-size="0.023905" fill="hsl(180.0,100%,20%)">kylechar</text>
<text x="1.417" y="0.635" font-size="0.023905" fill="hsl(180.0,100%,20%)">pbos</text>
<text x="1.841" y="0.311" font-size="0.063246" fill="hsl(180.0,100%,20%)">yukishiino</text>
<text x="1.849" y="0.588" font-size="0.033806" fill="hsl(180.0,100%,20%)">glazunov</text>
</svg>
