<svg width="4000" height="2000" viewBox="-0.025 -0.025 2.05 1.05" xmlns="http://www.w3.org/2000/svg">
  <style>
    path {
      fill: none;
      stroke-linecap: round;
      stroke-opacity: 0.4;
    }

    text {
      text-anchor: middle;
      alignment-baseline: hanging;
    }
  </style>
  <g opacity="0.4">
<path d="M1.189 0.054 Q0.545 -0.027 0.246 0.269" stroke="hsl(0.0,100%,35%)" stroke-width="0.00101"></path>
<path d="M1.189 0.054 Q1.081 0.046 1.041 0.097" stroke="hsl(0.0,100%,35%)" stroke-width="0.00101"></path>
<path d="M1.189 0.054 Q1.119 0.023 1.044 0.051" stroke="hsl(0.0,100%,35%)" stroke-width="0.00101"></path>
<path d="M0.748 0.537 Q1.010 0.612 1.215 0.501" stroke="hsl(0.0,100%,35%)" stroke-width="0.00203"></path>
<path d="M0.748 0.537 Q0.660 0.624 0.811 0.686" stroke="hsl(0.0,100%,35%)" stroke-width="0.00101"></path>
<path d="M0.748 0.537 Q1.416 0.499 1.490 0.165" stroke="hsl(0.0,100%,35%)" stroke-width="0.00101"></path>
<path d="M0.748 0.537 Q1.284 0.353 1.044 0.051" stroke="hsl(0.0,100%,35%)" stroke-width="0.00101"></path>
<path d="M0.811 0.686 Q0.788 0.742 0.891 0.765" stroke="hsl(0.0,100%,35%)" stroke-width="0.02333"></path>
<path d="M0.811 0.686 Q0.731 0.769 0.875 0.826" stroke="hsl(0.0,100%,35%)" stroke-width="0.00203"></path>
<path d="M0.811 0.686 Q1.161 0.674 1.215 0.501" stroke="hsl(0.0,100%,35%)" stroke-width="0.08722"></path>
<path d="M0.811 0.686 Q0.699 0.727 0.755 0.791" stroke="hsl(0.0,100%,35%)" stroke-width="0.01521"></path>
<path d="M0.811 0.686 Q1.265 0.398 0.803 0.113" stroke="hsl(0.0,100%,35%)" stroke-width="0.00101"></path>
<path d="M0.811 0.686 Q0.910 0.773 1.102 0.744" stroke="hsl(0.0,100%,35%)" stroke-width="0.04970"></path>
<path d="M0.811 0.686 Q1.005 0.612 0.903 0.501" stroke="hsl(0.0,100%,35%)" stroke-width="0.00101"></path>
<path d="M0.811 0.686 Q0.988 0.687 1.028 0.600" stroke="hsl(0.0,100%,35%)" stroke-width="0.00507"></path>
<path d="M0.811 0.686 Q0.995 0.651 0.966 0.553" stroke="hsl(0.0,100%,35%)" stroke-width="0.00101"></path>
<path d="M0.811 0.686 Q1.404 0.650 1.465 0.353" stroke="hsl(0.0,100%,35%)" stroke-width="0.02130"></path>
<path d="M0.811 0.686 Q1.319 0.737 1.529 0.500" stroke="hsl(0.0,100%,35%)" stroke-width="0.00101"></path>
<path d="M0.811 0.686 Q0.757 0.554 0.487 0.551" stroke="hsl(0.0,100%,35%)" stroke-width="0.00101"></path>
<path d="M0.811 0.686 Q1.270 0.512 1.033 0.250" stroke="hsl(0.0,100%,35%)" stroke-width="0.00507"></path>
<path d="M0.811 0.686 Q0.776 0.769 0.929 0.804" stroke="hsl(0.0,100%,35%)" stroke-width="0.00304"></path>
<path d="M0.811 0.686 Q0.646 0.719 0.673 0.806" stroke="hsl(0.0,100%,35%)" stroke-width="0.00304"></path>
<path d="M0.811 0.686 Q0.627 0.700 0.614 0.793" stroke="hsl(0.0,100%,35%)" stroke-width="0.00203"></path>
<path d="M0.811 0.686 Q0.800 0.792 1.004 0.820" stroke="hsl(0.0,100%,35%)" stroke-width="0.00203"></path>
<path d="M0.811 0.686 Q0.851 0.747 0.979 0.741" stroke="hsl(0.0,100%,35%)" stroke-width="0.00507"></path>
<path d="M0.811 0.686 Q0.691 0.649 0.591 0.699" stroke="hsl(0.0,100%,35%)" stroke-width="0.00101"></path>
<path d="M0.811 0.686 Q1.330 0.839 1.743 0.620" stroke="hsl(0.0,100%,35%)" stroke-width="0.00203"></path>
<path d="M0.811 0.686 Q1.399 0.877 1.902 0.632" stroke="hsl(0.0,100%,35%)" stroke-width="0.00101"></path>
<path d="M0.811 0.686 Q1.402 0.816 1.785 0.556" stroke="hsl(0.0,100%,35%)" stroke-width="0.00101"></path>
<path d="M0.811 0.686 Q0.703 0.583 0.477 0.612" stroke="hsl(0.0,100%,35%)" stroke-width="0.00203"></path>
<path d="M0.811 0.686 Q0.807 0.680 0.795 0.680" stroke="hsl(0.0,100%,35%)" stroke-width="0.00203"></path>
<path d="M0.811 0.686 Q0.842 0.689 0.856 0.675" stroke="hsl(0.0,100%,35%)" stroke-width="0.00406"></path>
<path d="M0.811 0.686 Q0.745 0.769 0.893 0.819" stroke="hsl(0.0,100%,35%)" stroke-width="0.00101"></path>
<path d="M0.811 0.686 Q1.567 0.561 1.490 0.165" stroke="hsl(0.0,100%,35%)" stroke-width="0.00507"></path>
<path d="M0.811 0.686 Q0.713 0.750 0.816 0.812" stroke="hsl(0.0,100%,35%)" stroke-width="0.00406"></path>
<path d="M0.811 0.686 Q0.664 0.624 0.511 0.682" stroke="hsl(0.0,100%,35%)" stroke-width="0.00101"></path>
<path d="M0.811 0.686 Q0.814 0.788 1.014 0.809" stroke="hsl(0.0,100%,35%)" stroke-width="0.00101"></path>
<path d="M0.811 0.686 Q1.055 0.653 1.044 0.526" stroke="hsl(0.0,100%,35%)" stroke-width="0.00101"></path>
<path d="M0.811 0.686 Q0.730 0.833 1.000 0.905" stroke="hsl(0.0,100%,35%)" stroke-width="0.00101"></path>
<path d="M0.811 0.686 Q0.870 0.527 0.574 0.463" stroke="hsl(0.0,100%,35%)" stroke-width="0.00101"></path>
<path d="M0.811 0.686 Q1.034 0.683 1.077 0.573" stroke="hsl(0.0,100%,35%)" stroke-width="0.00406"></path>
<path d="M0.811 0.686 Q0.670 0.657 0.582 0.719" stroke="hsl(0.0,100%,35%)" stroke-width="0.00203"></path>
<path d="M0.811 0.686 Q0.683 0.668 0.619 0.726" stroke="hsl(0.0,100%,35%)" stroke-width="0.00101"></path>
<path d="M0.811 0.686 Q0.486 0.933 0.897 1.146" stroke="hsl(0.0,100%,35%)" stroke-width="0.00304"></path>
<path d="M0.811 0.686 Q1.349 0.552 1.206 0.260" stroke="hsl(0.0,100%,35%)" stroke-width="0.00101"></path>
<path d="M0.811 0.686 Q1.435 0.415 1.044 0.051" stroke="hsl(0.0,100%,35%)" stroke-width="0.00203"></path>
<path d="M0.811 0.686 Q1.093 0.298 0.397 0.075" stroke="hsl(0.0,100%,35%)" stroke-width="0.00101"></path>
<path d="M0.811 0.686 Q0.842 0.794 1.060 0.803" stroke="hsl(0.0,100%,35%)" stroke-width="0.00203"></path>
<path d="M0.811 0.686 Q1.371 0.502 1.135 0.188" stroke="hsl(0.0,100%,35%)" stroke-width="0.00101"></path>
<path d="M1.490 0.165 Q1.327 0.254 1.465 0.353" stroke="hsl(0.0,100%,35%)" stroke-width="0.00811"></path>
<path d="M1.490 0.165 Q1.084 0.278 1.215 0.501" stroke="hsl(0.0,100%,35%)" stroke-width="0.00710"></path>
<path d="M1.490 0.165 Q1.294 0.105 1.135 0.188" stroke="hsl(0.0,100%,35%)" stroke-width="0.00203"></path>
<path d="M1.490 0.165 Q1.209 0.211 1.237 0.358" stroke="hsl(0.0,100%,35%)" stroke-width="0.00101"></path>
<path d="M1.490 0.165 Q0.833 0.377 1.102 0.744" stroke="hsl(0.0,100%,35%)" stroke-width="0.00101"></path>
<path d="M1.490 0.165 Q1.417 0.100 1.275 0.121" stroke="hsl(0.0,100%,35%)" stroke-width="0.00101"></path>
<path d="M1.490 0.165 Q0.733 0.290 0.811 0.686" stroke="hsl(0.0,100%,35%)" stroke-width="0.00710"></path>
<path d="M0.891 0.765 Q0.914 0.709 0.811 0.686" stroke="hsl(0.0,100%,35%)" stroke-width="0.01116"></path>
<path d="M0.891 0.765 Q1.264 0.698 1.215 0.501" stroke="hsl(0.0,100%,35%)" stroke-width="0.01014"></path>
<path d="M0.891 0.765 Q1.670 0.585 1.490 0.165" stroke="hsl(0.0,100%,35%)" stroke-width="0.00203"></path>
<path d="M0.891 0.765 Q1.013 0.796 1.102 0.744" stroke="hsl(0.0,100%,35%)" stroke-width="0.00203"></path>
<path d="M0.891 0.765 Q0.954 0.770 0.979 0.741" stroke="hsl(0.0,100%,35%)" stroke-width="0.00304"></path>
<path d="M0.755 0.791 Q0.866 0.749 0.811 0.686" stroke="hsl(0.0,100%,35%)" stroke-width="0.01521"></path>
<path d="M0.755 0.791 Q0.966 0.837 1.102 0.744" stroke="hsl(0.0,100%,35%)" stroke-width="0.00609"></path>
<path d="M0.755 0.791 Q1.460 0.714 1.465 0.353" stroke="hsl(0.0,100%,35%)" stroke-width="0.00203"></path>
<path d="M0.755 0.791 Q1.217 0.738 1.215 0.501" stroke="hsl(0.0,100%,35%)" stroke-width="0.00609"></path>
<path d="M0.755 0.791 Q0.769 0.813 0.816 0.812" stroke="hsl(0.0,100%,35%)" stroke-width="0.00101"></path>
<path d="M0.755 0.791 Q0.701 0.782 0.673 0.806" stroke="hsl(0.0,100%,35%)" stroke-width="0.00101"></path>
<path d="M0.755 0.791 Q1.109 0.758 1.123 0.578" stroke="hsl(0.0,100%,35%)" stroke-width="0.00101"></path>
<path d="M0.755 0.791 Q0.701 0.806 0.720 0.836" stroke="hsl(0.0,100%,35%)" stroke-width="0.00101"></path>
<path d="M0.755 0.791 Q0.844 0.805 0.891 0.765" stroke="hsl(0.0,100%,35%)" stroke-width="0.00304"></path>
<path d="M0.755 0.791 Q0.906 0.811 0.979 0.741" stroke="hsl(0.0,100%,35%)" stroke-width="0.00203"></path>
<path d="M0.755 0.791 Q1.043 0.750 1.028 0.600" stroke="hsl(0.0,100%,35%)" stroke-width="0.00101"></path>
<path d="M0.803 0.113 Q0.573 0.398 1.077 0.573" stroke="hsl(0.0,100%,35%)" stroke-width="0.00304"></path>
<path d="M0.803 0.113 Q0.748 0.040 0.592 0.050" stroke="hsl(0.0,100%,35%)" stroke-width="0.00203"></path>
<path d="M0.803 0.113 Q0.973 0.130 1.044 0.051" stroke="hsl(0.0,100%,35%)" stroke-width="0.00101"></path>
<path d="M0.803 0.113 Q0.942 0.366 1.465 0.353" stroke="hsl(0.0,100%,35%)" stroke-width="0.00203"></path>
<path d="M0.803 0.113 Q0.699 0.389 1.215 0.501" stroke="hsl(0.0,100%,35%)" stroke-width="0.00101"></path>
<path d="M0.803 0.113 Q1.263 0.398 1.918 0.236" stroke="hsl(0.0,100%,35%)" stroke-width="0.00101"></path>
<path d="M0.803 0.113 Q0.349 0.401 0.811 0.686" stroke="hsl(0.0,100%,35%)" stroke-width="0.00101"></path>
<path d="M0.803 0.113 Q0.809 0.228 1.033 0.250" stroke="hsl(0.0,100%,35%)" stroke-width="0.00203"></path>
<path d="M1.102 0.744 Q1.003 0.657 0.811 0.686" stroke="hsl(0.0,100%,35%)" stroke-width="0.06389"></path>
<path d="M1.102 0.744 Q1.353 0.645 1.215 0.501" stroke="hsl(0.0,100%,35%)" stroke-width="0.07911"></path>
<path d="M1.102 0.744 Q1.180 0.657 1.028 0.600" stroke="hsl(0.0,100%,35%)" stroke-width="0.02130"></path>
<path d="M1.102 0.744 Q1.197 0.583 0.903 0.501" stroke="hsl(0.0,100%,35%)" stroke-width="0.00101"></path>
<path d="M1.102 0.744 Q1.596 0.621 1.465 0.353" stroke="hsl(0.0,100%,35%)" stroke-width="0.00304"></path>
<path d="M1.102 0.744 Q1.284 0.646 1.132 0.535" stroke="hsl(0.0,100%,35%)" stroke-width="0.00101"></path>
<path d="M1.102 0.744 Q1.245 0.665 1.123 0.578" stroke="hsl(0.0,100%,35%)" stroke-width="0.00609"></path>
<path d="M1.102 0.744 Q1.191 0.665 1.057 0.604" stroke="hsl(0.0,100%,35%)" stroke-width="0.00507"></path>
<path d="M1.102 0.744 Q1.916 0.653 1.918 0.236" stroke="hsl(0.0,100%,35%)" stroke-width="0.00203"></path>
<path d="M1.102 0.744 Q0.707 0.536 0.215 0.683" stroke="hsl(0.0,100%,35%)" stroke-width="0.00203"></path>
<path d="M1.102 0.744 Q1.043 0.718 0.979 0.741" stroke="hsl(0.0,100%,35%)" stroke-width="0.00507"></path>
<path d="M1.102 0.744 Q1.179 0.599 0.912 0.529" stroke="hsl(0.0,100%,35%)" stroke-width="0.00101"></path>
<path d="M1.102 0.744 Q1.052 0.768 1.088 0.798" stroke="hsl(0.0,100%,35%)" stroke-width="0.00304"></path>
<path d="M1.102 0.744 Q0.891 0.698 0.755 0.791" stroke="hsl(0.0,100%,35%)" stroke-width="0.00203"></path>
<path d="M1.102 0.744 Q1.928 0.535 1.701 0.086" stroke="hsl(0.0,100%,35%)" stroke-width="0.00101"></path>
<path d="M1.102 0.744 Q1.229 0.810 1.385 0.762" stroke="hsl(0.0,100%,35%)" stroke-width="0.00101"></path>
<path d="M1.102 0.744 Q1.185 0.583 0.890 0.507" stroke="hsl(0.0,100%,35%)" stroke-width="0.00101"></path>
<path d="M1.102 0.744 Q1.875 0.475 1.521 0.039" stroke="hsl(0.0,100%,35%)" stroke-width="0.00101"></path>
<path d="M1.102 0.744 Q1.226 0.653 1.077 0.573" stroke="hsl(0.0,100%,35%)" stroke-width="0.01014"></path>
<path d="M1.102 0.744 Q1.291 0.664 1.176 0.554" stroke="hsl(0.0,100%,35%)" stroke-width="0.00101"></path>
<path d="M1.102 0.744 Q0.838 0.713 0.720 0.836" stroke="hsl(0.0,100%,35%)" stroke-width="0.00101"></path>
<path d="M1.102 0.744 Q1.405 0.599 1.189 0.420" stroke="hsl(0.0,100%,35%)" stroke-width="0.00101"></path>
<path d="M1.102 0.744 Q1.269 0.632 1.088 0.527" stroke="hsl(0.0,100%,35%)" stroke-width="0.00101"></path>
<path d="M1.102 0.744 Q0.992 0.762 1.004 0.820" stroke="hsl(0.0,100%,35%)" stroke-width="0.00101"></path>
<path d="M1.102 0.744 Q1.627 0.386 1.044 0.051" stroke="hsl(0.0,100%,35%)" stroke-width="0.00101"></path>
<path d="M1.102 0.744 Q1.302 0.650 1.164 0.532" stroke="hsl(0.0,100%,35%)" stroke-width="0.00101"></path>
<path d="M1.102 0.744 Q1.457 0.369 0.803 0.113" stroke="hsl(0.0,100%,35%)" stroke-width="0.00101"></path>
<path d="M1.102 0.744 Q1.247 0.624 1.044 0.526" stroke="hsl(0.0,100%,35%)" stroke-width="0.00101"></path>
<path d="M1.102 0.744 Q1.285 0.268 0.397 0.075" stroke="hsl(0.0,100%,35%)" stroke-width="0.00101"></path>
<path d="M1.102 0.744 Q1.522 0.810 1.743 0.620" stroke="hsl(0.0,100%,35%)" stroke-width="0.00101"></path>
<path d="M1.102 0.744 Q0.980 0.712 0.891 0.765" stroke="hsl(0.0,100%,35%)" stroke-width="0.00101"></path>
<path d="M1.102 0.744 Q0.974 0.748 0.954 0.811" stroke="hsl(0.0,100%,35%)" stroke-width="0.00101"></path>
<path d="M0.903 0.501 Q0.823 0.457 0.718 0.487" stroke="hsl(0.0,100%,35%)" stroke-width="0.00101"></path>
<path d="M0.903 0.501 Q0.809 0.662 1.102 0.744" stroke="hsl(0.0,100%,35%)" stroke-width="0.00203"></path>
<path d="M0.903 0.501 Q0.860 0.426 0.704 0.431" stroke="hsl(0.0,100%,35%)" stroke-width="0.00101"></path>
<path d="M0.903 0.501 Q0.709 0.575 0.811 0.686" stroke="hsl(0.0,100%,35%)" stroke-width="0.00101"></path>
<path d="M1.028 0.600 Q0.851 0.600 0.811 0.686" stroke="hsl(0.0,100%,35%)" stroke-width="0.00609"></path>
<path d="M1.028 0.600 Q0.950 0.687 1.102 0.744" stroke="hsl(0.0,100%,35%)" stroke-width="0.00710"></path>
<path d="M1.028 0.600 Q0.891 0.661 0.979 0.741" stroke="hsl(0.0,100%,35%)" stroke-width="0.00101"></path>
<path d="M1.028 0.600 Q1.093 0.556 1.021 0.515" stroke="hsl(0.0,100%,35%)" stroke-width="0.00101"></path>
<path d="M1.028 0.600 Q1.201 0.588 1.215 0.501" stroke="hsl(0.0,100%,35%)" stroke-width="0.00304"></path>
<path d="M0.966 0.553 Q0.782 0.589 0.811 0.686" stroke="hsl(0.0,100%,35%)" stroke-width="0.01217"></path>
<path d="M0.966 0.553 Q1.132 0.577 1.215 0.501" stroke="hsl(0.0,100%,35%)" stroke-width="0.00913"></path>
<path d="M0.966 0.553 Q0.882 0.676 1.102 0.744" stroke="hsl(0.0,100%,35%)" stroke-width="0.00507"></path>
<path d="M0.966 0.553 Q0.822 0.650 0.979 0.741" stroke="hsl(0.0,100%,35%)" stroke-width="0.00101"></path>
<path d="M0.966 0.553 Q1.242 0.415 1.033 0.250" stroke="hsl(0.0,100%,35%)" stroke-width="0.00101"></path>
<path d="M0.966 0.553 Q0.457 0.836 0.897 1.146" stroke="hsl(0.0,100%,35%)" stroke-width="0.00101"></path>
<path d="M1.465 0.353 Q0.871 0.389 0.811 0.686" stroke="hsl(0.0,100%,35%)" stroke-width="0.02535"></path>
<path d="M1.465 0.353 Q1.628 0.264 1.490 0.165" stroke="hsl(0.0,100%,35%)" stroke-width="0.09432"></path>
<path d="M1.465 0.353 Q0.971 0.476 1.102 0.744" stroke="hsl(0.0,100%,35%)" stroke-width="0.00609"></path>
<path d="M1.465 0.353 Q1.222 0.377 1.215 0.501" stroke="hsl(0.0,100%,35%)" stroke-width="0.07201"></path>
<path d="M1.465 0.353 Q1.359 0.355 1.340 0.407" stroke="hsl(0.0,100%,35%)" stroke-width="0.00101"></path>
<path d="M1.465 0.353 Q1.538 0.248 1.349 0.190" stroke="hsl(0.0,100%,35%)" stroke-width="0.00101"></path>
<path d="M1.465 0.353 Q1.595 0.290 1.502 0.213" stroke="hsl(0.0,100%,35%)" stroke-width="0.00203"></path>
<path d="M1.465 0.353 Q1.463 0.519 1.785 0.556" stroke="hsl(0.0,100%,35%)" stroke-width="0.00101"></path>
<path d="M1.465 0.353 Q1.331 0.215 1.033 0.250" stroke="hsl(0.0,100%,35%)" stroke-width="0.00507"></path>
<path d="M1.465 0.353 Q0.706 0.446 0.720 0.836" stroke="hsl(0.0,100%,35%)" stroke-width="0.00101"></path>
<path d="M1.465 0.353 Q0.911 0.450 0.979 0.741" stroke="hsl(0.0,100%,35%)" stroke-width="0.00101"></path>
<path d="M1.465 0.353 Q1.380 0.439 1.529 0.500" stroke="hsl(0.0,100%,35%)" stroke-width="0.00101"></path>
<path d="M1.465 0.353 Q1.410 0.255 1.206 0.260" stroke="hsl(0.0,100%,35%)" stroke-width="0.00101"></path>
<path d="M1.465 0.353 Q1.347 0.310 1.237 0.358" stroke="hsl(0.0,100%,35%)" stroke-width="0.00101"></path>
<path d="M1.465 0.353 Q1.432 0.205 1.135 0.188" stroke="hsl(0.0,100%,35%)" stroke-width="0.00101"></path>
<path d="M1.077 0.573 Q0.853 0.576 0.811 0.686" stroke="hsl(0.0,100%,35%)" stroke-width="0.00203"></path>
<path d="M1.077 0.573 Q1.203 0.564 1.215 0.501" stroke="hsl(0.0,100%,35%)" stroke-width="0.00507"></path>
<path d="M1.077 0.573 Q0.953 0.663 1.102 0.744" stroke="hsl(0.0,100%,35%)" stroke-width="0.00304"></path>
<path d="M1.077 0.573 Q1.440 0.328 1.041 0.097" stroke="hsl(0.0,100%,35%)" stroke-width="0.00203"></path>
<path d="M1.077 0.573 Q1.308 0.288 0.803 0.113" stroke="hsl(0.0,100%,35%)" stroke-width="0.00101"></path>
<path d="M1.077 0.573 Q1.478 0.305 1.044 0.051" stroke="hsl(0.0,100%,35%)" stroke-width="0.00101"></path>
<path d="M1.077 0.573 Q0.688 0.609 0.673 0.806" stroke="hsl(0.0,100%,35%)" stroke-width="0.00101"></path>
<path d="M1.077 0.573 Q1.313 0.403 1.033 0.250" stroke="hsl(0.0,100%,35%)" stroke-width="0.00101"></path>
<path d="M1.135 0.188 Q1.167 0.337 1.465 0.353" stroke="hsl(0.0,100%,35%)" stroke-width="0.00304"></path>
<path d="M1.135 0.188 Q0.924 0.360 1.215 0.501" stroke="hsl(0.0,100%,35%)" stroke-width="0.00203"></path>
<path d="M1.135 0.188 Q1.331 0.247 1.490 0.165" stroke="hsl(0.0,100%,35%)" stroke-width="0.00304"></path>
<path d="M1.746 0.261 Q0.978 0.348 0.979 0.741" stroke="hsl(0.0,100%,35%)" stroke-width="0.00101"></path>
<path d="M1.746 0.261 Q1.038 0.374 1.102 0.744" stroke="hsl(0.0,100%,35%)" stroke-width="0.00101"></path>
<path d="M1.746 0.261 Q1.852 0.283 1.918 0.236" stroke="hsl(0.0,100%,35%)" stroke-width="0.00101"></path>
<path d="M0.637 0.505 Q0.579 0.630 0.811 0.686" stroke="hsl(0.0,100%,35%)" stroke-width="0.00101"></path>
<path d="M0.637 0.505 Q1.098 0.784 1.743 0.620" stroke="hsl(0.0,100%,35%)" stroke-width="0.00101"></path>
<path d="M0.637 0.505 Q0.619 0.691 0.979 0.741" stroke="hsl(0.0,100%,35%)" stroke-width="0.00101"></path>
<path d="M0.576 0.315 Q0.472 0.329 0.476 0.383" stroke="hsl(0.0,100%,35%)" stroke-width="0.00101"></path>
<path d="M0.576 0.315 Q0.747 0.536 1.215 0.501" stroke="hsl(0.0,100%,35%)" stroke-width="0.00101"></path>
<path d="M0.576 0.315 Q0.366 0.332 0.352 0.438" stroke="hsl(0.0,100%,35%)" stroke-width="0.00101"></path>
<path d="M0.104 0.180 Q0.103 0.253 0.246 0.269" stroke="hsl(0.0,100%,35%)" stroke-width="0.00203"></path>
<path d="M0.104 0.180 Q-0.002 0.224 0.062 0.286" stroke="hsl(0.0,100%,35%)" stroke-width="0.00203"></path>
<path d="M0.104 0.180 Q0.151 0.661 1.102 0.744" stroke="hsl(0.0,100%,35%)" stroke-width="0.00203"></path>
<path d="M0.215 0.683 Q0.860 0.792 1.215 0.501" stroke="hsl(0.0,100%,35%)" stroke-width="0.00304"></path>
<path d="M0.215 0.683 Q0.610 0.891 1.102 0.744" stroke="hsl(0.0,100%,35%)" stroke-width="0.00304"></path>
<path d="M0.215 0.683 Q0.267 0.564 0.046 0.512" stroke="hsl(0.0,100%,35%)" stroke-width="0.00203"></path>
<path d="M0.215 0.683 Q0.753 0.812 1.123 0.578" stroke="hsl(0.0,100%,35%)" stroke-width="0.00203"></path>
<path d="M0.215 0.683 Q0.188 0.734 0.282 0.759" stroke="hsl(0.0,100%,35%)" stroke-width="0.00101"></path>
<path d="M1.701 0.086 Q1.369 0.172 1.465 0.353" stroke="hsl(0.0,100%,35%)" stroke-width="0.00101"></path>
<path d="M1.701 0.086 Q1.648 0.027 1.521 0.039" stroke="hsl(0.0,100%,35%)" stroke-width="0.00101"></path>
<path d="M1.701 0.086 Q1.739 0.171 1.914 0.172" stroke="hsl(0.0,100%,35%)" stroke-width="0.00101"></path>
<path d="M1.701 0.086 Q1.126 0.196 1.215 0.501" stroke="hsl(0.0,100%,35%)" stroke-width="0.00101"></path>
<path d="M1.701 0.086 Q1.400 -0.063 1.044 0.051" stroke="hsl(0.0,100%,35%)" stroke-width="0.00101"></path>
<path d="M1.701 0.086 Q1.804 0.109 1.871 0.064" stroke="hsl(0.0,100%,35%)" stroke-width="0.00101"></path>
<path d="M1.701 0.086 Q1.681 0.049 1.604 0.050" stroke="hsl(0.0,100%,35%)" stroke-width="0.00101"></path>
<path d="M1.701 0.086 Q1.689 0.205 1.918 0.236" stroke="hsl(0.0,100%,35%)" stroke-width="0.00203"></path>
<path d="M1.701 0.086 Q1.673 0.150 1.793 0.177" stroke="hsl(0.0,100%,35%)" stroke-width="0.00304"></path>
<path d="M1.701 0.086 Q1.362 -0.040 1.041 0.097" stroke="hsl(0.0,100%,35%)" stroke-width="0.00101"></path>
<path d="M1.701 0.086 Q1.769 0.096 1.803 0.065" stroke="hsl(0.0,100%,35%)" stroke-width="0.00101"></path>
<path d="M1.701 0.086 Q1.519 0.274 1.845 0.403" stroke="hsl(0.0,100%,35%)" stroke-width="0.00101"></path>
<path d="M1.845 0.403 Q2.000 0.280 1.793 0.177" stroke="hsl(0.0,100%,35%)" stroke-width="0.00203"></path>
<path d="M1.845 0.403 Q1.610 0.388 1.529 0.500" stroke="hsl(0.0,100%,35%)" stroke-width="0.00101"></path>
<path d="M1.845 0.403 Q1.452 0.326 1.215 0.501" stroke="hsl(0.0,100%,35%)" stroke-width="0.00101"></path>
<path d="M1.845 0.403 Q1.690 0.529 1.902 0.632" stroke="hsl(0.0,100%,35%)" stroke-width="0.00101"></path>
<path d="M1.845 0.403 Q1.693 0.468 1.785 0.556" stroke="hsl(0.0,100%,35%)" stroke-width="0.00101"></path>
<path d="M1.845 0.403 Q1.621 0.491 1.743 0.620" stroke="hsl(0.0,100%,35%)" stroke-width="0.00203"></path>
<path d="M1.845 0.403 Q0.937 0.394 0.720 0.836" stroke="hsl(0.0,100%,35%)" stroke-width="0.00101"></path>
<path d="M1.845 0.403 Q1.729 0.429 1.754 0.492" stroke="hsl(0.0,100%,35%)" stroke-width="0.00101"></path>
<path d="M1.845 0.403 Q1.809 0.362 1.719 0.371" stroke="hsl(0.0,100%,35%)" stroke-width="0.00101"></path>
<path d="M1.845 0.403 Q1.781 0.483 1.923 0.532" stroke="hsl(0.0,100%,35%)" stroke-width="0.00101"></path>
<path d="M1.845 0.403 Q1.048 -0.012 0.062 0.286" stroke="hsl(0.0,100%,35%)" stroke-width="0.00101"></path>
<path d="M1.845 0.403 Q1.881 0.397 1.877 0.378" stroke="hsl(0.0,100%,35%)" stroke-width="0.00101"></path>
<path d="M1.845 0.403 Q1.879 0.438 1.953 0.429" stroke="hsl(0.0,100%,35%)" stroke-width="0.00101"></path>
<path d="M1.845 0.403 Q1.815 0.475 1.948 0.505" stroke="hsl(0.0,100%,35%)" stroke-width="0.00101"></path>
<path d="M0.478 0.195 Q0.252 0.507 0.811 0.686" stroke="hsl(0.0,100%,35%)" stroke-width="0.00203"></path>
<path d="M0.478 0.195 Q0.292 0.568 0.979 0.741" stroke="hsl(0.0,100%,35%)" stroke-width="0.00101"></path>
<path d="M0.478 0.195 Q0.602 0.495 1.215 0.501" stroke="hsl(0.0,100%,35%)" stroke-width="0.00304"></path>
<path d="M0.478 0.195 Q0.351 0.594 1.102 0.744" stroke="hsl(0.0,100%,35%)" stroke-width="0.00101"></path>
<path d="M0.478 0.195 Q0.534 0.119 0.397 0.075" stroke="hsl(0.0,100%,35%)" stroke-width="0.00304"></path>
<path d="M0.816 0.346 Q0.541 0.515 0.811 0.686" stroke="hsl(0.0,100%,35%)" stroke-width="0.00406"></path>
<path d="M0.816 0.346 Q0.804 0.388 0.884 0.403" stroke="hsl(0.0,100%,35%)" stroke-width="0.00101"></path>
<path d="M0.816 0.346 Q0.640 0.602 1.102 0.744" stroke="hsl(0.0,100%,35%)" stroke-width="0.00406"></path>
<path d="M0.816 0.346 Q1.134 0.479 1.465 0.353" stroke="hsl(0.0,100%,35%)" stroke-width="0.00101"></path>
<path d="M0.816 0.346 Q0.506 0.597 0.929 0.804" stroke="hsl(0.0,100%,35%)" stroke-width="0.00101"></path>
<path d="M0.816 0.346 Q0.891 0.503 1.215 0.501" stroke="hsl(0.0,100%,35%)" stroke-width="0.00203"></path>
<path d="M0.816 0.346 Q0.376 0.547 0.673 0.806" stroke="hsl(0.0,100%,35%)" stroke-width="0.00101"></path>
<path d="M0.816 0.346 Q1.298 0.390 1.490 0.165" stroke="hsl(0.0,100%,35%)" stroke-width="0.00101"></path>
<path d="M0.816 0.346 Q0.518 0.570 0.891 0.765" stroke="hsl(0.0,100%,35%)" stroke-width="0.00101"></path>
<path d="M1.646 0.922 Q1.458 0.698 0.979 0.741" stroke="hsl(0.0,100%,35%)" stroke-width="0.00101"></path>
<path d="M1.646 0.922 Q1.779 0.937 1.837 0.876" stroke="hsl(0.0,100%,35%)" stroke-width="0.00101"></path>
<path d="M1.646 0.922 Q1.414 0.631 0.795 0.680" stroke="hsl(0.0,100%,35%)" stroke-width="0.00101"></path>
<path d="M1.478 0.235 Q0.784 0.327 0.811 0.686" stroke="hsl(0.0,100%,35%)" stroke-width="0.00101"></path>
<path d="M1.478 0.235 Q1.377 0.292 1.465 0.353" stroke="hsl(0.0,100%,35%)" stroke-width="0.00304"></path>
<path d="M1.478 0.235 Q1.134 0.316 1.215 0.501" stroke="hsl(0.0,100%,35%)" stroke-width="0.00101"></path>
<path d="M1.478 0.235 Q1.541 0.203 1.490 0.165" stroke="hsl(0.0,100%,35%)" stroke-width="0.00203"></path>
</g>
<text x="1.189" y="0.050" font-size="0.007801" fill="hsl(0.0,100%,20%)">abarth</text>
<text x="0.246" y="0.265" font-size="0.007801" fill="hsl(0.0,100%,20%)">ddorwin</text>
<text x="1.041" y="0.092" font-size="0.009008" fill="hsl(0.0,100%,20%)">tsepez</text>
<text x="1.044" y="0.045" font-size="0.012739" fill="hsl(0.0,100%,20%)">wez</text>
<text x="0.748" y="0.532" font-size="0.010071" fill="hsl(0.0,100%,20%)">andre.kempe</text>
<text x="1.215" y="0.463" font-size="0.076961" fill="hsl(0.0,100%,20%)">haraken</text>
<text x="0.811" y="0.640" font-size="0.092629" fill="hsl(0.0,100%,20%)">bartekn</text>
<text x="1.490" y="0.139" font-size="0.052135" fill="hsl(0.0,100%,20%)">mlippautz</text>
<text x="0.891" y="0.748" font-size="0.033703" fill="hsl(0.0,100%,20%)">tasak</text>
<text x="0.875" y="0.823" font-size="0.006369" fill="hsl(0.0,100%,20%)">bgeffon</text>
<text x="0.755" y="0.774" font-size="0.033703" fill="hsl(0.0,100%,20%)">keishi</text>
<text x="0.803" y="0.104" font-size="0.018015" fill="hsl(0.0,100%,20%)">brucedawson</text>
<text x="1.102" y="0.704" font-size="0.079553" fill="hsl(0.0,100%,20%)">lizeb</text>
<text x="0.903" y="0.495" font-size="0.011916" fill="hsl(0.0,100%,20%)">ellyjones</text>
<text x="1.028" y="0.585" font-size="0.030212" fill="hsl(0.0,100%,20%)">yukishiino</text>
<text x="0.966" y="0.541" font-size="0.024668" fill="hsl(0.0,100%,20%)">glazunov</text>
<text x="1.465" y="0.317" font-size="0.071919" fill="hsl(0.0,100%,20%)">bikineev</text>
<text x="1.529" y="0.496" font-size="0.007801" fill="hsl(0.0,100%,20%)">gab</text>
<text x="0.487" y="0.549" font-size="0.004504" fill="hsl(0.0,100%,20%)">gbeaty</text>
<text x="1.033" y="0.242" font-size="0.016852" fill="hsl(0.0,100%,20%)">wfh</text>
<text x="0.929" y="0.799" font-size="0.009008" fill="hsl(0.0,100%,20%)">erikchen</text>
<text x="0.673" y="0.801" font-size="0.011032" fill="hsl(0.0,100%,20%)">mpdenton</text>
<text x="0.614" y="0.789" font-size="0.006369" fill="hsl(0.0,100%,20%)">agl</text>
<text x="1.004" y="0.816" font-size="0.007801" fill="hsl(0.0,100%,20%)">agrieve</text>
<text x="0.979" y="0.730" font-size="0.021125" fill="hsl(0.0,100%,20%)">dcheng</text>
<text x="0.591" y="0.697" font-size="0.004504" fill="hsl(0.0,100%,20%)">yukiy</text>
<text x="1.743" y="0.614" font-size="0.011032" fill="hsl(0.0,100%,20%)">danakj</text>
<text x="1.902" y="0.629" font-size="0.006369" fill="hsl(0.0,100%,20%)">kinuko</text>
<text x="1.785" y="0.552" font-size="0.007801" fill="hsl(0.0,100%,20%)">lukasza</text>
<text x="0.477" y="0.609" font-size="0.006369" fill="hsl(0.0,100%,20%)">tikuta</text>
<text x="0.795" y="0.676" font-size="0.007801" fill="hsl(0.0,100%,20%)">mark</text>
<text x="0.856" y="0.670" font-size="0.009008" fill="hsl(0.0,100%,20%)">sebmarchand</text>
<text x="0.893" y="0.817" font-size="0.004504" fill="hsl(0.0,100%,20%)">sweilun</text>
<text x="0.816" y="0.807" font-size="0.010071" fill="hsl(0.0,100%,20%)">isherman</text>
<text x="0.511" y="0.679" font-size="0.004504" fill="hsl(0.0,100%,20%)">jbroman</text>
<text x="1.014" y="0.807" font-size="0.004504" fill="hsl(0.0,100%,20%)">asvitkine</text>
<text x="1.044" y="0.523" font-size="0.006369" fill="hsl(0.0,100%,20%)">grt</text>
<text x="1.000" y="0.903" font-size="0.004504" fill="hsl(0.0,100%,20%)">robertshield</text>
<text x="0.574" y="0.461" font-size="0.004504" fill="hsl(0.0,100%,20%)">ydago</text>
<text x="1.077" y="0.560" font-size="0.025872" fill="hsl(0.0,100%,20%)">palmer</text>
<text x="0.582" y="0.716" font-size="0.006369" fill="hsl(0.0,100%,20%)">yutak</text>
<text x="0.619" y="0.724" font-size="0.004504" fill="hsl(0.0,100%,20%)">primiano</text>
<text x="0.897" y="1.142" font-size="0.009008" fill="hsl(0.0,100%,20%)">rockot</text>
<text x="1.206" y="0.257" font-size="0.006369" fill="hsl(0.0,100%,20%)">holte</text>
<text x="0.397" y="0.070" font-size="0.010071" fill="hsl(0.0,100%,20%)">ajwong</text>
<text x="1.060" y="0.800" font-size="0.006369" fill="hsl(0.0,100%,20%)">rmcilroy</text>
<text x="1.135" y="0.180" font-size="0.015602" fill="hsl(0.0,100%,20%)">hpayer</text>
<text x="1.340" y="0.405" font-size="0.004504" fill="hsl(0.0,100%,20%)">oysteine</text>
<text x="1.349" y="0.188" font-size="0.004504" fill="hsl(0.0,100%,20%)">altimin</text>
<text x="1.502" y="0.210" font-size="0.006369" fill="hsl(0.0,100%,20%)">creis</text>
<text x="0.720" y="0.831" font-size="0.009008" fill="hsl(0.0,100%,20%)">fdoray</text>
<text x="1.237" y="0.355" font-size="0.006369" fill="hsl(0.0,100%,20%)">ulan</text>
<text x="0.592" y="0.047" font-size="0.006369" fill="hsl(0.0,100%,20%)">avi</text>
<text x="1.918" y="0.230" font-size="0.011032" fill="hsl(0.0,100%,20%)">thakis</text>
<text x="0.718" y="0.484" font-size="0.004504" fill="hsl(0.0,100%,20%)">elainechien</text>
<text x="0.704" y="0.429" font-size="0.004504" fill="hsl(0.0,100%,20%)">tkent</text>
<text x="1.746" y="0.257" font-size="0.007801" fill="hsl(0.0,100%,20%)">gabor.kertesz</text>
<text x="0.637" y="0.501" font-size="0.007801" fill="hsl(0.0,100%,20%)">jannh</text>
<text x="0.576" y="0.312" font-size="0.007801" fill="hsl(0.0,100%,20%)">kbr</text>
<text x="0.476" y="0.380" font-size="0.004504" fill="hsl(0.0,100%,20%)">ccameron</text>
<text x="0.352" y="0.435" font-size="0.004504" fill="hsl(0.0,100%,20%)">martiniss</text>
<text x="1.123" y="0.571" font-size="0.013511" fill="hsl(0.0,100%,20%)">ssid</text>
<text x="0.104" y="0.174" font-size="0.011032" fill="hsl(0.0,100%,20%)">kmarshall</text>
<text x="0.062" y="0.282" font-size="0.007801" fill="hsl(0.0,100%,20%)">kylechar</text>
<text x="1.132" y="0.533" font-size="0.004504" fill="hsl(0.0,100%,20%)">amraboelkher</text>
<text x="1.057" y="0.599" font-size="0.010071" fill="hsl(0.0,100%,20%)">pasko</text>
<text x="0.215" y="0.675" font-size="0.016239" fill="hsl(0.0,100%,20%)">thiabaud</text>
<text x="0.912" y="0.527" font-size="0.004504" fill="hsl(0.0,100%,20%)">skyostil</text>
<text x="1.088" y="0.794" font-size="0.007801" fill="hsl(0.0,100%,20%)">arthursonzogni</text>
<text x="1.701" y="0.077" font-size="0.018015" fill="hsl(0.0,100%,20%)">thestig</text>
<text x="1.385" y="0.760" font-size="0.004504" fill="hsl(0.0,100%,20%)">asully</text>
<text x="0.890" y="0.505" font-size="0.004504" fill="hsl(0.0,100%,20%)">etiennep</text>
<text x="1.521" y="0.036" font-size="0.006369" fill="hsl(0.0,100%,20%)">rsesek</text>
<text x="1.176" y="0.552" font-size="0.004504" fill="hsl(0.0,100%,20%)">caitlinfischer</text>
<text x="1.189" y="0.418" font-size="0.004504" fill="hsl(0.0,100%,20%)">sinansahin</text>
<text x="1.088" y="0.524" font-size="0.004504" fill="hsl(0.0,100%,20%)">alexilin</text>
<text x="1.164" y="0.530" font-size="0.004504" fill="hsl(0.0,100%,20%)">hendrich</text>
<text x="0.954" y="0.809" font-size="0.004504" fill="hsl(0.0,100%,20%)">jwd</text>
<text x="1.275" y="0.119" font-size="0.004504" fill="hsl(0.0,100%,20%)">eseckler</text>
<text x="1.845" y="0.394" font-size="0.018570" fill="hsl(0.0,100%,20%)">pkasting</text>
<text x="1.793" y="0.172" font-size="0.010071" fill="hsl(0.0,100%,20%)">pbos</text>
<text x="1.754" y="0.489" font-size="0.004504" fill="hsl(0.0,100%,20%)">abigailbklein</text>
<text x="1.719" y="0.368" font-size="0.004504" fill="hsl(0.0,100%,20%)">bajones</text>
<text x="1.923" y="0.530" font-size="0.004504" fill="hsl(0.0,100%,20%)">droger</text>
<text x="1.877" y="0.376" font-size="0.004504" fill="hsl(0.0,100%,20%)">renjietang</text>
<text x="1.953" y="0.427" font-size="0.004504" fill="hsl(0.0,100%,20%)">sadrul</text>
<text x="1.948" y="0.503" font-size="0.004504" fill="hsl(0.0,100%,20%)">sandersd</text>
<text x="0.478" y="0.188" font-size="0.014242" fill="hsl(0.0,100%,20%)">richard.townsend</text>
<text x="0.816" y="0.337" font-size="0.018015" fill="hsl(0.0,100%,20%)">saelo</text>
<text x="0.884" y="0.401" font-size="0.004504" fill="hsl(0.0,100%,20%)">cbruni</text>
<text x="1.646" y="0.918" font-size="0.007801" fill="hsl(0.0,100%,20%)">ssyed</text>
<text x="1.837" y="0.874" font-size="0.004504" fill="hsl(0.0,100%,20%)">abhijeet</text>
<text x="1.478" y="0.230" font-size="0.011916" fill="hsl(0.0,100%,20%)">stha09</text>
<text x="1.914" y="0.169" font-size="0.004504" fill="hsl(0.0,100%,20%)">sunnyps</text>
<text x="1.871" y="0.062" font-size="0.004504" fill="hsl(0.0,100%,20%)">sammc</text>
<text x="1.604" y="0.048" font-size="0.004504" fill="hsl(0.0,100%,20%)">sdefresne</text>
<text x="1.803" y="0.062" font-size="0.004504" fill="hsl(0.0,100%,20%)">ajgo</text>
<text x="0.046" y="0.509" font-size="0.006369" fill="hsl(0.0,100%,20%)">rkaplow</text>
<text x="0.282" y="0.756" font-size="0.004504" fill="hsl(0.0,100%,20%)">chanli</text>
<text x="1.021" y="0.512" font-size="0.004504" fill="hsl(0.0,100%,20%)">dpranke</text>
</svg>
