<svg width="4000" height="2000" viewBox="-0.025 -0.025 2.05 1.05" xmlns="http://www.w3.org/2000/svg">
  <style>
    path {
      fill: none;
      stroke-linecap: round;
      stroke-opacity: 0.4;
    }

    text {
      text-anchor: middle;
      alignment-baseline: hanging;
    }
  </style>
  <g opacity="0.4">
<path d="M1.714 0.923 Q1.558 0.908 1.493 0.980" stroke="hsl(0.0,100%,35%)" stroke-width="0.08745"></path>
<path d="M1.714 0.923 Q1.679 0.709 1.253 0.679" stroke="hsl(0.0,100%,35%)" stroke-width="0.07496"></path>
<path d="M1.714 0.923 Q2.019 0.713 1.676 0.518" stroke="hsl(0.0,100%,35%)" stroke-width="0.06247"></path>
<path d="M1.714 0.923 Q2.078 0.777 1.873 0.567" stroke="hsl(0.0,100%,35%)" stroke-width="0.02499"></path>
<path d="M1.714 0.923 Q1.353 0.555 0.555 0.650" stroke="hsl(0.0,100%,35%)" stroke-width="0.01249"></path>
<path d="M1.714 0.923 Q1.878 0.784 1.643 0.674" stroke="hsl(0.0,100%,35%)" stroke-width="0.01249"></path>
<path d="M1.714 0.923 Q2.095 0.818 1.972 0.609" stroke="hsl(0.0,100%,35%)" stroke-width="0.01249"></path>
<path d="M0.731 0.792 Q0.937 0.724 0.850 0.608" stroke="hsl(180.0,100%,35%)" stroke-width="0.01249"></path>
<path d="M0.731 0.792 Q0.757 0.686 0.555 0.650" stroke="hsl(180.0,100%,35%)" stroke-width="0.02499"></path>
<path d="M0.731 0.792 Q0.385 0.726 0.180 0.880" stroke="hsl(180.0,100%,35%)" stroke-width="0.01249"></path>
<path d="M0.854 1.039 Q1.238 0.996 1.240 0.799" stroke="hsl(0.0,100%,35%)" stroke-width="0.01249"></path>
<path d="M0.854 1.039 Q0.874 0.949 0.703 0.919" stroke="hsl(0.0,100%,35%)" stroke-width="0.01249"></path>
<path d="M0.854 1.039 Q1.027 1.083 1.152 1.008" stroke="hsl(0.0,100%,35%)" stroke-width="0.01249"></path>
<path d="M0.854 1.039 Q1.342 0.939 1.253 0.679" stroke="hsl(0.0,100%,35%)" stroke-width="0.01249"></path>
</g>
<text x="1.714" y="0.862" font-size="0.121814" fill="hsl(0.0,100%,20%)">ayumiohno</text>
<text x="1.493" y="0.947" font-size="0.067202" fill="hsl(0.0,100%,20%)">nuskos</text>
<text x="1.253" y="0.645" font-size="0.067202" fill="hsl(0.0,100%,20%)">tasak</text>
<text x="1.676" y="0.490" font-size="0.056796" fill="hsl(0.0,100%,20%)">mikt</text>
<text x="1.873" y="0.549" font-size="0.035921" fill="hsl(0.0,100%,20%)">lizeb</text>
<text x="0.555" y="0.628" font-size="0.043994" fill="hsl(180.0,100%,20%)">dcheng</text>
<text x="1.643" y="0.661" font-size="0.025400" fill="hsl(0.0,100%,20%)">glazunov</text>
<text x="1.972" y="0.596" font-size="0.025400" fill="hsl(0.0,100%,20%)">tikuta</text>
<text x="0.731" y="0.767" font-size="0.050800" fill="hsl(180.0,100%,20%)">tsepez</text>
<text x="0.850" y="0.596" font-size="0.025400" fill="hsl(180.0,100%,20%)">davidben</text>
<text x="0.180" y="0.867" font-size="0.025400" fill="hsl(180.0,100%,20%)">evanstade</text>
<text x="0.854" y="1.013" font-size="0.050800" fill="hsl(0.0,100%,20%)">victorvianna</text>
<text x="1.240" y="0.787" font-size="0.025400" fill="hsl(0.0,100%,20%)">wfh</text>
<text x="0.703" y="0.906" font-size="0.025400" fill="hsl(0.0,100%,20%)">lambroslambrou</text>
<text x="1.152" y="0.996" font-size="0.025400" fill="hsl(0.0,100%,20%)">thakis</text>
</svg>
