<svg width="4000" height="2000" viewBox="-0.025 -0.025 2.05 1.05" xmlns="http://www.w3.org/2000/svg">
  <style>
    path {
      fill: none;
      stroke-linecap: round;
      stroke-opacity: 0.4;
    }

    text {
      text-anchor: middle;
      alignment-baseline: hanging;
    }
  </style>
  <g opacity="0.4">
<path d="M1.331 0.090 Q1.041 0.239 1.268 0.414" stroke="hsl(0.0,100%,35%)" stroke-width="0.00420"></path>
<path d="M1.331 0.090 Q0.609 0.165 0.596 0.534" stroke="hsl(0.0,100%,35%)" stroke-width="0.00315"></path>
<path d="M1.331 0.090 Q1.157 0.130 1.196 0.224" stroke="hsl(0.0,100%,35%)" stroke-width="0.00105"></path>
<path d="M1.268 0.414 Q0.836 0.339 0.596 0.534" stroke="hsl(0.0,100%,35%)" stroke-width="0.17218"></path>
<path d="M1.268 0.414 Q1.020 0.586 1.301 0.745" stroke="hsl(0.0,100%,35%)" stroke-width="0.00420"></path>
<path d="M1.268 0.414 Q1.171 0.274 0.877 0.291" stroke="hsl(0.0,100%,35%)" stroke-width="0.00105"></path>
<path d="M1.268 0.414 Q0.737 0.585 0.955 0.881" stroke="hsl(0.0,100%,35%)" stroke-width="0.00420"></path>
<path d="M0.596 0.534 Q1.028 0.608 1.268 0.414" stroke="hsl(0.0,100%,35%)" stroke-width="0.07349"></path>
<path d="M0.596 0.534 Q0.930 0.468 0.877 0.291" stroke="hsl(0.0,100%,35%)" stroke-width="0.00105"></path>
</g>
<text x="1.331" y="0.078" font-size="0.025198" fill="hsl(0.0,100%,20%)">helmut</text>
<text x="1.268" y="0.344" font-size="0.140011" fill="hsl(0.0,100%,20%)">thestig</text>
<text x="0.596" y="0.465" font-size="0.137437" fill="hsl(0.0,100%,20%)">tsepez</text>
<text x="1.196" y="0.220" font-size="0.008909" fill="hsl(0.0,100%,20%)">npm</text>
<text x="1.301" y="0.736" font-size="0.017817" fill="hsl(0.0,100%,20%)">dsinclair</text>
<text x="0.877" y="0.285" font-size="0.012599" fill="hsl(0.0,100%,20%)">thakis</text>
<text x="0.955" y="0.872" font-size="0.017817" fill="hsl(0.0,100%,20%)">bungeman</text>
</svg>
