<svg width="4000" height="2000" viewBox="-0.025 -0.025 2.05 1.05" xmlns="http://www.w3.org/2000/svg">
  <style>
    path {
      fill: none;
      stroke-linecap: round;
      stroke-opacity: 0.4;
    }

    text {
      text-anchor: middle;
      alignment-baseline: hanging;
    }
  </style>
  <g opacity="0.4">
<path d="M0.947 0.261 Q1.365 0.313 1.557 0.120" stroke="hsl(0.0,100%,35%)" stroke-width="0.00463"></path>
<path d="M0.947 0.261 Q1.408 0.440 1.856 0.254" stroke="hsl(0.0,100%,35%)" stroke-width="0.00071"></path>
<path d="M0.947 0.261 Q1.234 0.257 1.288 0.116" stroke="hsl(0.0,100%,35%)" stroke-width="0.00249"></path>
<path d="M1.557 0.120 Q1.426 0.064 1.288 0.116" stroke="hsl(0.0,100%,35%)" stroke-width="0.00712"></path>
<path d="M1.557 0.120 Q1.529 0.324 1.920 0.383" stroke="hsl(0.0,100%,35%)" stroke-width="0.00071"></path>
<path d="M1.557 0.120 Q1.220 0.229 1.358 0.417" stroke="hsl(0.0,100%,35%)" stroke-width="0.00036"></path>
<path d="M1.557 0.120 Q1.600 0.247 1.856 0.254" stroke="hsl(0.0,100%,35%)" stroke-width="0.03633"></path>
<path d="M1.557 0.120 Q1.133 0.166 1.129 0.382" stroke="hsl(0.0,100%,35%)" stroke-width="0.00036"></path>
<path d="M1.856 0.254 Q1.785 0.331 1.920 0.383" stroke="hsl(0.0,100%,35%)" stroke-width="0.12289"></path>
<path d="M1.856 0.254 Q1.814 0.127 1.557 0.120" stroke="hsl(0.0,100%,35%)" stroke-width="0.01745"></path>
<path d="M1.856 0.254 Q1.683 0.071 1.288 0.116" stroke="hsl(0.0,100%,35%)" stroke-width="0.02671"></path>
<path d="M1.856 0.254 Q1.159 0.549 1.582 0.953" stroke="hsl(0.0,100%,35%)" stroke-width="0.00142"></path>
<path d="M1.856 0.254 Q2.013 0.165 1.873 0.069" stroke="hsl(0.0,100%,35%)" stroke-width="0.00178"></path>
<path d="M1.856 0.254 Q2.993 -0.567 1.641 -1.302" stroke="hsl(0.0,100%,35%)" stroke-width="0.00036"></path>
<path d="M1.856 0.254 Q1.906 0.163 1.740 0.119" stroke="hsl(0.0,100%,35%)" stroke-width="0.00036"></path>
<path d="M1.856 0.254 Q1.766 0.224 1.688 0.262" stroke="hsl(0.0,100%,35%)" stroke-width="0.00071"></path>
<path d="M1.856 0.254 Q1.590 0.267 1.557 0.400" stroke="hsl(0.0,100%,35%)" stroke-width="0.00036"></path>
<path d="M1.856 0.254 Q1.602 0.154 1.351 0.256" stroke="hsl(0.0,100%,35%)" stroke-width="0.00071"></path>
<path d="M1.856 0.254 Q1.477 0.236 1.358 0.417" stroke="hsl(0.0,100%,35%)" stroke-width="0.00142"></path>
<path d="M1.856 0.254 Q1.390 0.173 1.129 0.382" stroke="hsl(0.0,100%,35%)" stroke-width="0.00036"></path>
<path d="M1.288 0.116 Q1.419 0.172 1.557 0.120" stroke="hsl(0.0,100%,35%)" stroke-width="0.00178"></path>
<path d="M1.288 0.116 Q0.764 0.593 1.582 0.953" stroke="hsl(0.0,100%,35%)" stroke-width="0.00036"></path>
<path d="M1.288 0.116 Q1.391 0.375 1.920 0.383" stroke="hsl(0.0,100%,35%)" stroke-width="0.00142"></path>
<path d="M1.288 0.116 Q1.461 0.298 1.856 0.254" stroke="hsl(0.0,100%,35%)" stroke-width="0.01069"></path>
<path d="M1.920 0.383 Q1.818 0.123 1.288 0.116" stroke="hsl(0.0,100%,35%)" stroke-width="0.02102"></path>
<path d="M1.920 0.383 Q1.949 0.179 1.557 0.120" stroke="hsl(0.0,100%,35%)" stroke-width="0.00641"></path>
<path d="M1.920 0.383 Q1.991 0.305 1.856 0.254" stroke="hsl(0.0,100%,35%)" stroke-width="0.11042"></path>
<path d="M1.615 0.475 Q1.870 0.286 1.557 0.120" stroke="hsl(0.0,100%,35%)" stroke-width="0.00142"></path>
<path d="M1.615 0.475 Q1.739 0.230 1.288 0.116" stroke="hsl(0.0,100%,35%)" stroke-width="0.00142"></path>
<path d="M1.615 0.475 Q1.842 0.490 1.920 0.383" stroke="hsl(0.0,100%,35%)" stroke-width="0.00036"></path>
<path d="M1.615 0.475 Q1.913 0.413 1.856 0.254" stroke="hsl(0.0,100%,35%)" stroke-width="0.00962"></path>
<path d="M1.914 0.458 Q1.875 0.162 1.288 0.116" stroke="hsl(0.0,100%,35%)" stroke-width="0.00036"></path>
<path d="M1.914 0.458 Q1.978 0.422 1.920 0.383" stroke="hsl(0.0,100%,35%)" stroke-width="0.00463"></path>
<path d="M1.914 0.458 Q2.049 0.345 1.856 0.254" stroke="hsl(0.0,100%,35%)" stroke-width="0.00285"></path>
</g>
<text x="0.947" y="0.252" font-size="0.019794" fill="hsl(0.0,100%,20%)">awscreen</text>
<text x="1.557" y="0.089" font-size="0.061879" fill="hsl(0.0,100%,20%)">nigi</text>
<text x="1.856" y="0.188" font-size="0.131367" fill="hsl(0.0,100%,20%)">thestig</text>
<text x="1.288" y="0.085" font-size="0.060570" fill="hsl(0.0,100%,20%)">dhoss</text>
<text x="1.582" y="0.949" font-size="0.009436" fill="hsl(0.0,100%,20%)">bungeman</text>
<text x="1.920" y="0.325" font-size="0.115727" fill="hsl(0.0,100%,20%)">tsepez</text>
<text x="1.615" y="0.462" font-size="0.025321" fill="hsl(0.0,100%,20%)">kmoon</text>
<text x="1.358" y="0.412" font-size="0.009436" fill="hsl(0.0,100%,20%)">dsinclair</text>
<text x="1.129" y="0.379" font-size="0.005968" fill="hsl(0.0,100%,20%)">reed</text>
<text x="1.873" y="0.064" font-size="0.009436" fill="hsl(0.0,100%,20%)">thakis</text>
<text x="1.641" y="-1.304" font-size="0.004220" fill="hsl(0.0,100%,20%)">brucedawson</text>
<text x="1.740" y="0.117" font-size="0.004220" fill="hsl(0.0,100%,20%)">drott</text>
<text x="1.688" y="0.259" font-size="0.005968" fill="hsl(0.0,100%,20%)">rbpotter</text>
<text x="1.557" y="0.398" font-size="0.004220" fill="hsl(0.0,100%,20%)">rharrison</text>
<text x="1.351" y="0.253" font-size="0.005968" fill="hsl(0.0,100%,20%)">hnakashima</text>
<text x="1.914" y="0.448" font-size="0.019794" fill="hsl(0.0,100%,20%)">vmiklos</text>
</svg>
