<svg width="4000" height="2000" viewBox="-0.025 -0.025 2.05 1.05" xmlns="http://www.w3.org/2000/svg">
  <style>
    path {
      fill: none;
      stroke-linecap: round;
      stroke-opacity: 0.4;
    }

    text {
      text-anchor: middle;
      alignment-baseline: hanging;
    }
  </style>
  <g opacity="0.4">
<path d="M1.090 0.492 Q1.114 0.324 0.790 0.275" stroke="hsl(0.0,100%,35%)" stroke-width="0.01438"></path>
<path d="M1.090 0.492 Q0.997 0.392 0.780 0.415" stroke="hsl(0.0,100%,35%)" stroke-width="0.01150"></path>
<path d="M1.090 0.492 Q1.588 0.430 1.575 0.173" stroke="hsl(0.0,100%,35%)" stroke-width="0.00288"></path>
<path d="M0.790 0.275 Q0.673 0.343 0.780 0.415" stroke="hsl(0.0,100%,35%)" stroke-width="0.23195"></path>
<path d="M0.790 0.275 Q0.539 0.350 0.631 0.489" stroke="hsl(0.0,100%,35%)" stroke-width="0.00096"></path>
<path d="M0.790 0.275 Q0.948 0.370 1.170 0.314" stroke="hsl(0.0,100%,35%)" stroke-width="0.01054"></path>
<path d="M0.790 0.275 Q1.264 0.381 1.575 0.173" stroke="hsl(0.0,100%,35%)" stroke-width="0.00958"></path>
<path d="M0.790 0.275 Q1.073 0.227 1.042 0.079" stroke="hsl(0.0,100%,35%)" stroke-width="0.00096"></path>
<path d="M1.837 0.752 Q1.695 0.304 0.790 0.275" stroke="hsl(0.0,100%,35%)" stroke-width="0.00863"></path>
<path d="M1.837 0.752 Q1.578 0.372 0.780 0.415" stroke="hsl(0.0,100%,35%)" stroke-width="0.00671"></path>
<path d="M1.837 0.752 Q1.593 0.712 1.461 0.822" stroke="hsl(0.0,100%,35%)" stroke-width="0.00192"></path>
</g>
<text x="1.090" y="0.471" font-size="0.043783" fill="hsl(0.0,100%,20%)">ask</text>
<text x="0.790" y="0.207" font-size="0.135891" fill="hsl(0.0,100%,20%)">thestig</text>
<text x="0.780" y="0.350" font-size="0.129141" fill="hsl(0.0,100%,20%)">tsepez</text>
<text x="1.575" y="0.159" font-size="0.028821" fill="hsl(0.0,100%,20%)">dsinclair</text>
<text x="1.837" y="0.735" font-size="0.033914" fill="hsl(0.0,100%,20%)">helmut</text>
<text x="1.461" y="0.816" font-size="0.011305" fill="hsl(0.0,100%,20%)">npm</text>
<text x="0.631" y="0.485" font-size="0.007994" fill="hsl(0.0,100%,20%)">thakis</text>
<text x="1.170" y="0.301" font-size="0.026512" fill="hsl(0.0,100%,20%)">bungeman</text>
<text x="1.042" y="0.075" font-size="0.007994" fill="hsl(0.0,100%,20%)">drott</text>
</svg>
