<svg width="4000" height="2000" viewBox="-0.025 -0.025 2.05 1.05" xmlns="http://www.w3.org/2000/svg">
  <style>
    path {
      fill: none;
      stroke-linecap: round;
      stroke-opacity: 0.4;
    }

    text {
      text-anchor: middle;
      alignment-baseline: hanging;
    }
  </style>
  <g opacity="0.4">
<path d="M1.387 0.347 Q1.369 0.285 1.243 0.280" stroke="hsl(0.0,100%,35%)" stroke-width="0.04278"></path>
<path d="M1.387 0.347 Q1.352 0.127 0.915 0.096" stroke="hsl(0.0,100%,35%)" stroke-width="0.00052"></path>
<path d="M1.387 0.347 Q1.538 0.282 1.444 0.194" stroke="hsl(0.0,100%,35%)" stroke-width="0.00626"></path>
<path d="M1.243 0.280 Q1.413 0.277 1.444 0.194" stroke="hsl(0.0,100%,35%)" stroke-width="0.17270"></path>
<path d="M1.243 0.280 Q1.113 0.303 1.130 0.372" stroke="hsl(0.0,100%,35%)" stroke-width="0.00313"></path>
<path d="M1.243 0.280 Q1.226 0.123 0.915 0.096" stroke="hsl(0.0,100%,35%)" stroke-width="0.00626"></path>
<path d="M1.243 0.280 Q1.438 0.425 1.763 0.362" stroke="hsl(0.0,100%,35%)" stroke-width="0.00052"></path>
<path d="M1.243 0.280 Q1.049 0.439 1.317 0.569" stroke="hsl(0.0,100%,35%)" stroke-width="0.00052"></path>
<path d="M1.444 0.194 Q1.275 0.197 1.243 0.280" stroke="hsl(0.0,100%,35%)" stroke-width="0.05530"></path>
<path d="M1.444 0.194 Q1.470 0.342 1.763 0.362" stroke="hsl(0.0,100%,35%)" stroke-width="0.00052"></path>
<path d="M0.547 0.618 Q1.166 0.588 1.243 0.280" stroke="hsl(0.0,100%,35%)" stroke-width="0.00574"></path>
<path d="M0.547 0.618 Q1.335 0.586 1.444 0.194" stroke="hsl(0.0,100%,35%)" stroke-width="0.00522"></path>
<path d="M0.547 0.618 Q0.485 0.753 0.734 0.813" stroke="hsl(0.0,100%,35%)" stroke-width="0.00052"></path>
</g>
<text x="1.387" y="0.319" font-size="0.057483" fill="hsl(0.0,100%,20%)">andyphan</text>
<text x="1.243" y="0.211" font-size="0.138313" fill="hsl(0.0,100%,20%)">thestig</text>
<text x="0.915" y="0.086" font-size="0.021264" fill="hsl(0.0,100%,20%)">bungeman</text>
<text x="1.444" y="0.131" font-size="0.126491" fill="hsl(0.0,100%,20%)">tsepez</text>
<text x="0.547" y="0.605" font-size="0.027663" fill="hsl(0.0,100%,20%)">helmut</text>
<text x="0.734" y="0.810" font-size="0.005898" fill="hsl(0.0,100%,20%)">npm</text>
<text x="1.130" y="0.364" font-size="0.014446" fill="hsl(0.0,100%,20%)">dsinclair</text>
<text x="1.763" y="0.358" font-size="0.008341" fill="hsl(0.0,100%,20%)">thakis</text>
<text x="1.317" y="0.566" font-size="0.005898" fill="hsl(0.0,100%,20%)">drott</text>
</svg>
