<svg width="4000" height="2000" viewBox="-0.025 -0.025 2.05 1.05" xmlns="http://www.w3.org/2000/svg">
  <style>
    path {
      fill: none;
      stroke-linecap: round;
      stroke-opacity: 0.4;
    }

    text {
      text-anchor: middle;
      alignment-baseline: hanging;
    }
  </style>
  <g opacity="0.4">
<path d="M1.292 0.630 Q1.331 0.450 0.987 0.391" stroke="hsl(0.0,100%,35%)" stroke-width="0.02301"></path>
<path d="M1.292 0.630 Q1.338 0.332 0.765 0.243" stroke="hsl(0.0,100%,35%)" stroke-width="0.00110"></path>
<path d="M1.292 0.630 Q1.519 0.661 1.628 0.556" stroke="hsl(0.0,100%,35%)" stroke-width="0.00027"></path>
<path d="M0.987 0.391 Q0.995 0.273 0.765 0.243" stroke="hsl(0.0,100%,35%)" stroke-width="0.15365"></path>
<path d="M0.987 0.391 Q1.176 0.602 1.628 0.556" stroke="hsl(0.0,100%,35%)" stroke-width="0.00219"></path>
<path d="M0.987 0.391 Q1.685 0.184 1.433 -0.203" stroke="hsl(0.0,100%,35%)" stroke-width="0.00055"></path>
<path d="M0.987 0.391 Q0.617 0.409 0.570 0.593" stroke="hsl(0.0,100%,35%)" stroke-width="0.00301"></path>
<path d="M0.987 0.391 Q1.209 0.471 1.413 0.380" stroke="hsl(0.0,100%,35%)" stroke-width="0.00027"></path>
<path d="M0.765 0.243 Q0.758 0.362 0.987 0.391" stroke="hsl(0.0,100%,35%)" stroke-width="0.08025"></path>
<path d="M0.765 0.243 Q0.980 0.441 1.413 0.380" stroke="hsl(0.0,100%,35%)" stroke-width="0.00027"></path>
</g>
<text x="1.292" y="0.609" font-size="0.042926" fill="hsl(0.0,100%,20%)">andyphan</text>
<text x="0.987" y="0.321" font-size="0.140981" fill="hsl(0.0,100%,20%)">thestig</text>
<text x="0.765" y="0.177" font-size="0.133359" fill="hsl(0.0,100%,20%)">tsepez</text>
<text x="1.628" y="0.549" font-size="0.013650" fill="hsl(0.0,100%,20%)">bungeman</text>
<text x="1.433" y="-0.206" font-size="0.006435" fill="hsl(0.0,100%,20%)">drott</text>
<text x="0.570" y="0.585" font-size="0.015091" fill="hsl(0.0,100%,20%)">dsinclair</text>
<text x="1.413" y="0.377" font-size="0.006435" fill="hsl(0.0,100%,20%)">thakis</text>
</svg>
