<svg width="4000" height="2000" viewBox="-0.025 -0.025 2.05 1.05" xmlns="http://www.w3.org/2000/svg">
  <style>
    path {
      fill: none;
      stroke-linecap: round;
      stroke-opacity: 0.4;
    }

    text {
      text-anchor: middle;
      alignment-baseline: hanging;
    }
  </style>
  <g opacity="0.4">
<path d="M0.093 0.794 Q0.533 0.848 0.734 0.645" stroke="hsl(0.0,100%,35%)" stroke-width="0.00376"></path>
<path d="M0.093 0.794 Q0.631 0.926 1.005 0.692" stroke="hsl(0.0,100%,35%)" stroke-width="0.00027"></path>
<path d="M0.093 0.794 Q0.797 0.590 0.553 0.202" stroke="hsl(0.0,100%,35%)" stroke-width="0.00134"></path>
<path d="M0.093 0.794 Q0.228 0.812 0.291 0.750" stroke="hsl(0.0,100%,35%)" stroke-width="0.00054"></path>
<path d="M0.093 0.794 Q0.245 0.725 0.143 0.635" stroke="hsl(0.0,100%,35%)" stroke-width="0.00027"></path>
<path d="M0.734 0.645 Q0.832 0.723 1.005 0.692" stroke="hsl(0.0,100%,35%)" stroke-width="0.06333"></path>
<path d="M0.734 0.645 Q0.997 0.388 0.553 0.202" stroke="hsl(0.0,100%,35%)" stroke-width="0.05098"></path>
<path d="M0.734 0.645 Q0.913 0.540 0.748 0.429" stroke="hsl(0.0,100%,35%)" stroke-width="0.00081"></path>
<path d="M0.734 0.645 Q1.171 0.405 0.798 0.139" stroke="hsl(0.0,100%,35%)" stroke-width="0.01369"></path>
<path d="M0.734 0.645 Q0.972 0.461 0.666 0.304" stroke="hsl(0.0,100%,35%)" stroke-width="0.00054"></path>
<path d="M0.734 0.645 Q1.007 0.628 1.033 0.490" stroke="hsl(0.0,100%,35%)" stroke-width="0.00027"></path>
<path d="M1.005 0.692 Q0.907 0.614 0.734 0.645" stroke="hsl(0.0,100%,35%)" stroke-width="0.10787"></path>
<path d="M1.005 0.692 Q1.344 0.374 0.798 0.139" stroke="hsl(0.0,100%,35%)" stroke-width="0.00054"></path>
<path d="M1.005 0.692 Q1.171 0.357 0.553 0.202" stroke="hsl(0.0,100%,35%)" stroke-width="0.00107"></path>
<path d="M1.005 0.692 Q0.973 0.750 1.080 0.779" stroke="hsl(0.0,100%,35%)" stroke-width="0.00027"></path>
<path d="M0.553 0.202 Q0.726 0.219 0.798 0.139" stroke="hsl(0.0,100%,35%)" stroke-width="0.00993"></path>
<path d="M0.553 0.202 Q0.388 0.538 1.005 0.692" stroke="hsl(0.0,100%,35%)" stroke-width="0.00027"></path>
<path d="M0.553 0.202 Q0.289 0.460 0.734 0.645" stroke="hsl(0.0,100%,35%)" stroke-width="0.02925"></path>
<path d="M0.553 0.202 Q-0.016 0.424 0.291 0.750" stroke="hsl(0.0,100%,35%)" stroke-width="0.00027"></path>
<path d="M0.798 0.139 Q0.360 0.379 0.734 0.645" stroke="hsl(0.0,100%,35%)" stroke-width="0.01395"></path>
<path d="M0.798 0.139 Q0.624 0.122 0.553 0.202" stroke="hsl(0.0,100%,35%)" stroke-width="0.02898"></path>
<path d="M0.798 0.139 Q0.459 0.457 1.005 0.692" stroke="hsl(0.0,100%,35%)" stroke-width="0.00295"></path>
<path d="M0.798 0.139 Q0.055 0.343 0.291 0.750" stroke="hsl(0.0,100%,35%)" stroke-width="0.00054"></path>
</g>
<text x="0.093" y="0.785" font-size="0.019292" fill="hsl(0.0,100%,20%)">kjlubick</text>
<text x="0.734" y="0.580" font-size="0.130966" fill="hsl(0.0,100%,20%)">thestig</text>
<text x="1.005" y="0.640" font-size="0.103186" fill="hsl(0.0,100%,20%)">tsepez</text>
<text x="0.553" y="0.160" font-size="0.085805" fill="hsl(0.0,100%,20%)">nigi</text>
<text x="0.291" y="0.745" font-size="0.008995" fill="hsl(0.0,100%,20%)">bungeman</text>
<text x="0.143" y="0.633" font-size="0.004023" fill="hsl(0.0,100%,20%)">npm</text>
<text x="0.798" y="0.106" font-size="0.065235" fill="hsl(0.0,100%,20%)">kmoon</text>
<text x="0.748" y="0.426" font-size="0.006967" fill="hsl(0.0,100%,20%)">drott</text>
<text x="0.666" y="0.301" font-size="0.005689" fill="hsl(0.0,100%,20%)">thomasanderson</text>
<text x="1.033" y="0.488" font-size="0.004023" fill="hsl(0.0,100%,20%)">thakis</text>
<text x="1.080" y="0.777" font-size="0.004023" fill="hsl(0.0,100%,20%)">dcheng</text>
</svg>
