<svg width="4000" height="2000" viewBox="-0.025 -0.025 2.05 1.05" xmlns="http://www.w3.org/2000/svg">
  <style>
    path {
      fill: none;
      stroke-linecap: round;
      stroke-opacity: 0.4;
    }

    text {
      text-anchor: middle;
      alignment-baseline: hanging;
    }
  </style>
  <g opacity="0.4">
<path d="M1.186 0.468 Q1.482 0.363 1.343 0.196" stroke="hsl(0.0,100%,35%)" stroke-width="0.01167"></path>
<path d="M1.186 0.468 Q1.289 0.325 1.033 0.244" stroke="hsl(0.0,100%,35%)" stroke-width="0.00243"></path>
<path d="M1.186 0.468 Q1.657 0.515 1.851 0.296" stroke="hsl(0.0,100%,35%)" stroke-width="0.00389"></path>
<path d="M1.343 0.196 Q1.517 0.347 1.851 0.296" stroke="hsl(0.0,100%,35%)" stroke-width="0.07682"></path>
<path d="M1.343 0.196 Q1.047 0.301 1.186 0.468" stroke="hsl(0.0,100%,35%)" stroke-width="0.01799"></path>
<path d="M1.343 0.196 Q1.149 0.158 1.033 0.244" stroke="hsl(0.0,100%,35%)" stroke-width="0.14830"></path>
<path d="M1.343 0.196 Q1.226 0.237 1.281 0.303" stroke="hsl(0.0,100%,35%)" stroke-width="0.00097"></path>
<path d="M1.343 0.196 Q1.412 0.367 1.762 0.372" stroke="hsl(0.0,100%,35%)" stroke-width="0.00049"></path>
<path d="M1.343 0.196 Q1.381 0.293 1.580 0.296" stroke="hsl(0.0,100%,35%)" stroke-width="0.00097"></path>
<path d="M1.851 0.296 Q1.677 0.144 1.343 0.196" stroke="hsl(0.0,100%,35%)" stroke-width="0.02869"></path>
<path d="M1.851 0.296 Q1.381 0.249 1.186 0.468" stroke="hsl(0.0,100%,35%)" stroke-width="0.00438"></path>
<path d="M1.580 0.296 Q1.542 0.198 1.343 0.196" stroke="hsl(0.0,100%,35%)" stroke-width="0.00194"></path>
<path d="M1.580 0.296 Q1.474 0.427 1.707 0.508" stroke="hsl(0.0,100%,35%)" stroke-width="0.00049"></path>
<path d="M1.580 0.296 Q1.348 0.161 1.033 0.244" stroke="hsl(0.0,100%,35%)" stroke-width="0.00049"></path>
</g>
<text x="1.186" y="0.442" font-size="0.051869" fill="hsl(0.0,100%,20%)">dhoss</text>
<text x="1.343" y="0.126" font-size="0.138527" fill="hsl(0.0,100%,20%)">thestig</text>
<text x="1.033" y="0.194" font-size="0.100404" fill="hsl(0.0,100%,20%)">tsepez</text>
<text x="1.851" y="0.252" font-size="0.087278" fill="hsl(0.0,100%,20%)">nigi</text>
<text x="1.794" y="-8.344" font-size="0.005693" fill="hsl(0.0,100%,20%)">bungeman</text>
<text x="1.580" y="0.288" font-size="0.016103" fill="hsl(0.0,100%,20%)">pkasting</text>
<text x="1.707" y="0.505" font-size="0.005693" fill="hsl(0.0,100%,20%)">npm</text>
<text x="1.281" y="0.299" font-size="0.008052" fill="hsl(0.0,100%,20%)">thomasanderson</text>
<text x="1.762" y="0.369" font-size="0.005693" fill="hsl(0.0,100%,20%)">weili</text>
</svg>
