<svg width="4000" height="2000" viewBox="-0.025 -0.025 2.05 1.05" xmlns="http://www.w3.org/2000/svg">
  <style>
    path {
      fill: none;
      stroke-linecap: round;
      stroke-opacity: 0.4;
    }

    text {
      text-anchor: middle;
      alignment-baseline: hanging;
    }
  </style>
  <g opacity="0.4">
<path d="M1.841 0.421 Q1.627 0.514 1.761 0.639" stroke="hsl(0.0,100%,35%)" stroke-width="0.00282"></path>
<path d="M1.841 0.421 Q1.481 0.569 1.690 0.777" stroke="hsl(0.0,100%,35%)" stroke-width="0.00169"></path>
<path d="M1.841 0.421 Q1.446 0.280 1.084 0.442" stroke="hsl(0.0,100%,35%)" stroke-width="0.00367"></path>
<path d="M1.841 0.421 Q1.289 0.278 0.888 0.516" stroke="hsl(0.0,100%,35%)" stroke-width="0.00028"></path>
<path d="M1.761 0.639 Q1.615 0.693 1.690 0.777" stroke="hsl(0.0,100%,35%)" stroke-width="0.06910"></path>
<path d="M1.761 0.639 Q1.580 0.405 1.084 0.442" stroke="hsl(0.0,100%,35%)" stroke-width="0.02820"></path>
<path d="M1.761 0.639 Q1.976 0.546 1.841 0.421" stroke="hsl(0.0,100%,35%)" stroke-width="0.01072"></path>
<path d="M1.761 0.639 Q0.983 0.484 0.511 0.830" stroke="hsl(0.0,100%,35%)" stroke-width="0.00056"></path>
<path d="M1.761 0.639 Q1.729 0.354 1.167 0.308" stroke="hsl(0.0,100%,35%)" stroke-width="0.00028"></path>
<path d="M1.690 0.777 Q1.836 0.722 1.761 0.639" stroke="hsl(0.0,100%,35%)" stroke-width="0.16781"></path>
<path d="M1.690 0.777 Q1.655 0.488 1.084 0.442" stroke="hsl(0.0,100%,35%)" stroke-width="0.00705"></path>
<path d="M1.690 0.777 Q2.050 0.629 1.841 0.421" stroke="hsl(0.0,100%,35%)" stroke-width="0.00733"></path>
<path d="M1.084 0.442 Q1.265 0.676 1.761 0.639" stroke="hsl(0.0,100%,35%)" stroke-width="0.00987"></path>
<path d="M1.084 0.442 Q0.926 0.440 0.888 0.516" stroke="hsl(0.0,100%,35%)" stroke-width="0.00028"></path>
<path d="M1.084 0.442 Q1.479 0.583 1.841 0.421" stroke="hsl(0.0,100%,35%)" stroke-width="0.00677"></path>
<path d="M1.084 0.442 Q1.010 0.583 1.271 0.650" stroke="hsl(0.0,100%,35%)" stroke-width="0.00113"></path>
<path d="M1.084 0.442 Q1.118 0.730 1.690 0.777" stroke="hsl(0.0,100%,35%)" stroke-width="0.00085"></path>
<path d="M1.469 0.355 Q1.388 0.555 1.761 0.639" stroke="hsl(0.0,100%,35%)" stroke-width="0.00141"></path>
<path d="M1.469 0.355 Q1.207 0.321 1.084 0.442" stroke="hsl(0.0,100%,35%)" stroke-width="0.00705"></path>
<path d="M1.469 0.355 Q1.603 0.462 1.841 0.421" stroke="hsl(0.0,100%,35%)" stroke-width="0.00056"></path>
<path d="M1.469 0.355 Q1.050 0.319 0.888 0.516" stroke="hsl(0.0,100%,35%)" stroke-width="0.00028"></path>
<path d="M0.511 0.830 Q1.289 0.984 1.761 0.639" stroke="hsl(0.0,100%,35%)" stroke-width="0.00113"></path>
<path d="M0.511 0.830 Q0.390 0.757 0.220 0.800" stroke="hsl(0.0,100%,35%)" stroke-width="0.00028"></path>
<path d="M0.511 0.830 Q1.143 1.039 1.690 0.777" stroke="hsl(0.0,100%,35%)" stroke-width="0.00028"></path>
<path d="M1.187 0.814 Q1.614 0.841 1.761 0.639" stroke="hsl(0.0,100%,35%)" stroke-width="0.00141"></path>
<path d="M1.187 0.814 Q1.468 0.896 1.690 0.777" stroke="hsl(0.0,100%,35%)" stroke-width="0.00056"></path>
<path d="M1.187 0.814 Q1.829 0.748 1.841 0.421" stroke="hsl(0.0,100%,35%)" stroke-width="0.00028"></path>
</g>
<text x="1.841" y="0.398" font-size="0.045363" fill="hsl(0.0,100%,20%)">dhoss</text>
<text x="1.761" y="0.572" font-size="0.132993" fill="hsl(0.0,100%,20%)">thestig</text>
<text x="1.690" y="0.715" font-size="0.123924" fill="hsl(0.0,100%,20%)">tsepez</text>
<text x="1.084" y="0.410" font-size="0.062543" fill="hsl(0.0,100%,20%)">nigi</text>
<text x="0.888" y="0.513" font-size="0.007143" fill="hsl(0.0,100%,20%)">bungeman</text>
<text x="1.469" y="0.343" font-size="0.023690" fill="hsl(0.0,100%,20%)">kmoon</text>
<text x="1.271" y="0.646" font-size="0.008248" fill="hsl(0.0,100%,20%)">weili</text>
<text x="0.511" y="0.824" font-size="0.011664" fill="hsl(0.0,100%,20%)">pkasting</text>
<text x="0.220" y="0.798" font-size="0.004124" fill="hsl(0.0,100%,20%)">npm</text>
<text x="1.167" y="0.306" font-size="0.004124" fill="hsl(0.0,100%,20%)">thomasanderson</text>
<text x="1.187" y="0.808" font-size="0.011664" fill="hsl(0.0,100%,20%)">vmiklos</text>
</svg>
