<svg width="4000" height="2000" viewBox="-0.025 -0.025 2.05 1.05" xmlns="http://www.w3.org/2000/svg">
  <style>
    path {
      fill: none;
      stroke-linecap: round;
      stroke-opacity: 0.4;
    }

    text {
      text-anchor: middle;
      alignment-baseline: hanging;
    }
  </style>
  <g opacity="0.4">
<path d="M0.712 0.071 Q0.710 0.280 1.118 0.328" stroke="hsl(0.0,100%,35%)" stroke-width="0.03517"></path>
<path d="M0.712 0.071 Q0.758 0.188 0.996 0.192" stroke="hsl(0.0,100%,35%)" stroke-width="0.00106"></path>
<path d="M0.712 0.071 Q0.894 0.441 1.656 0.434" stroke="hsl(0.0,100%,35%)" stroke-width="0.00035"></path>
<path d="M1.118 0.328 Q1.166 0.235 0.996 0.192" stroke="hsl(0.0,100%,35%)" stroke-width="0.18746"></path>
<path d="M1.118 0.328 Q1.087 0.204 0.838 0.191" stroke="hsl(0.0,100%,35%)" stroke-width="0.00070"></path>
<path d="M1.118 0.328 Q1.219 0.531 1.638 0.526" stroke="hsl(0.0,100%,35%)" stroke-width="0.00492"></path>
<path d="M1.118 0.328 Q1.302 0.488 1.656 0.434" stroke="hsl(0.0,100%,35%)" stroke-width="0.00317"></path>
<path d="M1.118 0.328 Q1.451 0.334 1.537 0.173" stroke="hsl(0.0,100%,35%)" stroke-width="0.00035"></path>
<path d="M0.996 0.192 Q0.948 0.284 1.118 0.328" stroke="hsl(0.0,100%,35%)" stroke-width="0.05944"></path>
<path d="M0.996 0.192 Q1.281 0.291 1.537 0.173" stroke="hsl(0.0,100%,35%)" stroke-width="0.00035"></path>
<path d="M1.288 0.394 Q1.255 0.327 1.118 0.328" stroke="hsl(0.0,100%,35%)" stroke-width="0.00352"></path>
<path d="M1.288 0.394 Q1.304 0.234 0.996 0.192" stroke="hsl(0.0,100%,35%)" stroke-width="0.00317"></path>
<path d="M1.288 0.394 Q1.103 0.462 1.197 0.568" stroke="hsl(0.0,100%,35%)" stroke-width="0.00035"></path>
</g>
<text x="0.712" y="0.046" font-size="0.049381" fill="hsl(0.0,100%,20%)">andyphan</text>
<text x="1.118" y="0.258" font-size="0.140172" fill="hsl(0.0,100%,20%)">thestig</text>
<text x="0.996" y="0.127" font-size="0.129477" fill="hsl(0.0,100%,20%)">tsepez</text>
<text x="1.656" y="0.426" font-size="0.015312" fill="hsl(0.0,100%,20%)">bungeman</text>
<text x="1.288" y="0.383" font-size="0.021655" fill="hsl(0.0,100%,20%)">helmut</text>
<text x="1.197" y="0.565" font-size="0.004842" fill="hsl(0.0,100%,20%)">npm</text>
<text x="0.838" y="0.188" font-size="0.006848" fill="hsl(0.0,100%,20%)">drott</text>
<text x="1.638" y="0.517" font-size="0.018118" fill="hsl(0.0,100%,20%)">dsinclair</text>
<text x="1.537" y="0.170" font-size="0.006848" fill="hsl(0.0,100%,20%)">thakis</text>
</svg>
