<svg width="4000" height="2000" viewBox="-0.025 -0.025 2.05 1.05" xmlns="http://www.w3.org/2000/svg">
  <style>
    path {
      fill: none;
      stroke-linecap: round;
      stroke-opacity: 0.4;
    }

    text {
      text-anchor: middle;
      alignment-baseline: hanging;
    }
  </style>
  <g opacity="0.4">
<path d="M0.534 0.922 Q0.738 0.600 0.155 0.430" stroke="hsl(0.0,100%,35%)" stroke-width="0.00027"></path>
<path d="M0.534 0.922 Q1.089 0.950 1.266 0.685" stroke="hsl(0.0,100%,35%)" stroke-width="0.00135"></path>
<path d="M0.534 0.922 Q0.779 0.686 0.372 0.514" stroke="hsl(0.0,100%,35%)" stroke-width="0.00325"></path>
<path d="M0.534 0.922 Q0.599 0.833 0.440 0.781" stroke="hsl(0.0,100%,35%)" stroke-width="0.00054"></path>
<path d="M0.534 0.922 Q1.018 0.836 0.956 0.581" stroke="hsl(0.0,100%,35%)" stroke-width="0.00027"></path>
<path d="M0.155 0.430 Q0.196 0.516 0.372 0.514" stroke="hsl(0.0,100%,35%)" stroke-width="0.11308"></path>
<path d="M0.155 0.430 Q0.773 0.840 1.710 0.629" stroke="hsl(0.0,100%,35%)" stroke-width="0.00054"></path>
<path d="M0.155 0.430 Q0.506 0.780 1.266 0.685" stroke="hsl(0.0,100%,35%)" stroke-width="0.00271"></path>
<path d="M0.155 0.430 Q-0.108 0.564 0.095 0.722" stroke="hsl(0.0,100%,35%)" stroke-width="0.00027"></path>
<path d="M1.266 0.685 Q0.956 0.421 0.372 0.514" stroke="hsl(0.0,100%,35%)" stroke-width="0.02868"></path>
<path d="M1.266 0.685 Q1.533 0.746 1.710 0.629" stroke="hsl(0.0,100%,35%)" stroke-width="0.00568"></path>
<path d="M1.266 0.685 Q0.776 0.568 0.440 0.781" stroke="hsl(0.0,100%,35%)" stroke-width="0.00027"></path>
<path d="M0.372 0.514 Q0.949 0.839 1.710 0.629" stroke="hsl(0.0,100%,35%)" stroke-width="0.01380"></path>
<path d="M0.372 0.514 Q0.331 0.429 0.155 0.430" stroke="hsl(0.0,100%,35%)" stroke-width="0.06547"></path>
<path d="M0.372 0.514 Q0.682 0.779 1.266 0.685" stroke="hsl(0.0,100%,35%)" stroke-width="0.04842"></path>
<path d="M0.372 0.514 Q0.466 0.665 0.782 0.653" stroke="hsl(0.0,100%,35%)" stroke-width="0.00054"></path>
<path d="M0.372 0.514 Q0.384 0.585 0.525 0.595" stroke="hsl(0.0,100%,35%)" stroke-width="0.00027"></path>
<path d="M0.372 0.514 Q0.233 0.489 0.154 0.551" stroke="hsl(0.0,100%,35%)" stroke-width="0.00027"></path>
<path d="M1.710 0.629 Q1.443 0.568 1.266 0.685" stroke="hsl(0.0,100%,35%)" stroke-width="0.02868"></path>
<path d="M1.710 0.629 Q1.132 0.304 0.372 0.514" stroke="hsl(0.0,100%,35%)" stroke-width="0.01353"></path>
<path d="M1.710 0.629 Q1.091 0.219 0.155 0.430" stroke="hsl(0.0,100%,35%)" stroke-width="0.00298"></path>
<path d="M1.710 0.629 Q0.953 0.451 0.440 0.781" stroke="hsl(0.0,100%,35%)" stroke-width="0.00081"></path>
</g>
<text x="0.534" y="0.912" font-size="0.018509" fill="hsl(0.0,100%,20%)">kjlubick</text>
<text x="0.155" y="0.377" font-size="0.105710" fill="hsl(0.0,100%,20%)">tsepez</text>
<text x="1.266" y="0.643" font-size="0.083559" fill="hsl(0.0,100%,20%)">nigi</text>
<text x="0.372" y="0.448" font-size="0.131623" fill="hsl(0.0,100%,20%)">thestig</text>
<text x="0.440" y="0.777" font-size="0.009893" fill="hsl(0.0,100%,20%)">bungeman</text>
<text x="0.956" y="0.579" font-size="0.004039" fill="hsl(0.0,100%,20%)">npm</text>
<text x="1.710" y="0.597" font-size="0.063091" fill="hsl(0.0,100%,20%)">kmoon</text>
<text x="0.782" y="0.650" font-size="0.005712" fill="hsl(0.0,100%,20%)">thomasanderson</text>
<text x="0.525" y="0.593" font-size="0.004039" fill="hsl(0.0,100%,20%)">drott</text>
<text x="0.154" y="0.549" font-size="0.004039" fill="hsl(0.0,100%,20%)">thakis</text>
<text x="0.095" y="0.720" font-size="0.004039" fill="hsl(0.0,100%,20%)">dcheng</text>
</svg>
