<svg width="4000" height="2000" viewBox="-0.025 -0.025 2.05 1.05" xmlns="http://www.w3.org/2000/svg">
  <style>
    path {
      fill: none;
      stroke-linecap: round;
      stroke-opacity: 0.4;
    }

    text {
      text-anchor: middle;
      alignment-baseline: hanging;
    }
  </style>
  <g opacity="0.4">
<path d="M1.578 0.965 Q1.670 1.009 1.777 0.974" stroke="hsl(0.0,100%,35%)" stroke-width="0.00530"></path>
<path d="M1.578 0.965 Q1.789 0.937 1.780 0.828" stroke="hsl(0.0,100%,35%)" stroke-width="0.00022"></path>
<path d="M1.578 0.965 Q1.288 0.586 0.484 0.644" stroke="hsl(0.0,100%,35%)" stroke-width="0.00092"></path>
<path d="M1.777 0.974 Q1.896 0.902 1.780 0.828" stroke="hsl(0.0,100%,35%)" stroke-width="0.15534"></path>
<path d="M1.777 0.974 Q1.808 0.903 1.676 0.872" stroke="hsl(0.0,100%,35%)" stroke-width="0.00168"></path>
<path d="M1.777 0.974 Q1.661 0.929 1.547 0.976" stroke="hsl(0.0,100%,35%)" stroke-width="0.00162"></path>
<path d="M1.777 0.974 Q1.395 0.551 0.484 0.644" stroke="hsl(0.0,100%,35%)" stroke-width="0.02930"></path>
<path d="M1.777 0.974 Q1.273 0.640 0.509 0.813" stroke="hsl(0.0,100%,35%)" stroke-width="0.00357"></path>
<path d="M1.777 0.974 Q1.787 0.888 1.621 0.864" stroke="hsl(0.0,100%,35%)" stroke-width="0.00032"></path>
<path d="M1.777 0.974 Q1.072 1.311 1.573 1.729" stroke="hsl(0.0,100%,35%)" stroke-width="0.00086"></path>
<path d="M1.777 0.974 Q1.787 0.877 1.599 0.850" stroke="hsl(0.0,100%,35%)" stroke-width="0.00649"></path>
<path d="M1.777 0.974 Q1.559 0.569 0.720 0.586" stroke="hsl(0.0,100%,35%)" stroke-width="0.00054"></path>
<path d="M1.777 0.974 Q2.104 0.646 1.535 0.415" stroke="hsl(0.0,100%,35%)" stroke-width="0.00032"></path>
<path d="M1.777 0.974 Q1.542 0.880 1.306 0.975" stroke="hsl(0.0,100%,35%)" stroke-width="0.00027"></path>
<path d="M1.777 0.974 Q1.423 0.332 0.091 0.364" stroke="hsl(0.0,100%,35%)" stroke-width="0.00773"></path>
<path d="M1.777 0.974 Q1.711 0.440 0.653 0.355" stroke="hsl(0.0,100%,35%)" stroke-width="0.01411"></path>
<path d="M1.777 0.974 Q1.534 0.406 0.372 0.401" stroke="hsl(0.0,100%,35%)" stroke-width="0.01870"></path>
<path d="M1.777 0.974 Q1.469 1.029 1.508 1.192" stroke="hsl(0.0,100%,35%)" stroke-width="0.00097"></path>
<path d="M1.777 0.974 Q1.906 0.747 1.490 0.634" stroke="hsl(0.0,100%,35%)" stroke-width="0.00065"></path>
<path d="M1.777 0.974 Q1.361 0.462 0.269 0.552" stroke="hsl(0.0,100%,35%)" stroke-width="0.00438"></path>
<path d="M1.777 0.974 Q2.111 0.552 1.360 0.296" stroke="hsl(0.0,100%,35%)" stroke-width="0.00043"></path>
<path d="M1.777 0.974 Q1.767 0.291 0.431 0.146" stroke="hsl(0.0,100%,35%)" stroke-width="0.00022"></path>
<path d="M1.777 0.974 Q1.584 0.280 0.187 0.222" stroke="hsl(0.0,100%,35%)" stroke-width="0.00092"></path>
<path d="M1.780 0.828 Q1.662 0.901 1.777 0.974" stroke="hsl(0.0,100%,35%)" stroke-width="0.16967"></path>
<path d="M1.780 0.828 Q1.279 0.477 0.484 0.644" stroke="hsl(0.0,100%,35%)" stroke-width="0.00276"></path>
<path d="M1.780 0.828 Q1.157 0.566 0.509 0.813" stroke="hsl(0.0,100%,35%)" stroke-width="0.00016"></path>
<path d="M1.780 0.828 Q1.671 0.803 1.599 0.850" stroke="hsl(0.0,100%,35%)" stroke-width="0.00362"></path>
<path d="M1.780 0.828 Q1.418 0.333 0.372 0.401" stroke="hsl(0.0,100%,35%)" stroke-width="0.01600"></path>
<path d="M1.780 0.828 Q1.595 0.366 0.653 0.355" stroke="hsl(0.0,100%,35%)" stroke-width="0.00049"></path>
<path d="M1.780 0.828 Q1.307 0.258 0.091 0.364" stroke="hsl(0.0,100%,35%)" stroke-width="0.00032"></path>
<path d="M1.780 0.828 Q1.246 0.388 0.269 0.552" stroke="hsl(0.0,100%,35%)" stroke-width="0.00070"></path>
<path d="M0.484 0.644 Q0.867 1.068 1.777 0.974" stroke="hsl(0.0,100%,35%)" stroke-width="0.02027"></path>
<path d="M0.484 0.644 Q0.362 0.733 0.509 0.813" stroke="hsl(0.0,100%,35%)" stroke-width="0.00216"></path>
<path d="M0.484 0.644 Q0.985 0.995 1.780 0.828" stroke="hsl(0.0,100%,35%)" stroke-width="0.00027"></path>
<path d="M0.484 0.644 Q0.877 0.970 1.599 0.850" stroke="hsl(0.0,100%,35%)" stroke-width="0.00216"></path>
<path d="M0.484 0.644 Q0.648 0.662 0.720 0.586" stroke="hsl(0.0,100%,35%)" stroke-width="0.00022"></path>
<path d="M0.187 0.222 Q0.380 0.916 1.777 0.974" stroke="hsl(0.0,100%,35%)" stroke-width="0.00151"></path>
<path d="M0.187 0.222 Q0.313 0.382 0.653 0.355" stroke="hsl(0.0,100%,35%)" stroke-width="0.00022"></path>
<path d="M0.187 0.222 Q0.499 0.844 1.780 0.828" stroke="hsl(0.0,100%,35%)" stroke-width="0.00027"></path>
<path d="M0.187 0.222 Q0.137 0.348 0.372 0.401" stroke="hsl(0.0,100%,35%)" stroke-width="0.00470"></path>
<path d="M0.653 0.355 Q0.719 0.890 1.777 0.974" stroke="hsl(0.0,100%,35%)" stroke-width="0.00497"></path>
<path d="M0.653 0.355 Q0.365 0.247 0.091 0.364" stroke="hsl(0.0,100%,35%)" stroke-width="0.00530"></path>
<path d="M0.653 0.355 Q0.838 0.817 1.780 0.828" stroke="hsl(0.0,100%,35%)" stroke-width="0.00259"></path>
<path d="M0.653 0.355 Q0.476 0.322 0.372 0.401" stroke="hsl(0.0,100%,35%)" stroke-width="0.00551"></path>
<path d="M0.653 0.355 Q0.303 0.377 0.269 0.552" stroke="hsl(0.0,100%,35%)" stroke-width="0.00097"></path>
<path d="M0.372 0.401 Q0.616 0.969 1.777 0.974" stroke="hsl(0.0,100%,35%)" stroke-width="0.00243"></path>
<path d="M0.372 0.401 Q0.734 0.896 1.780 0.828" stroke="hsl(0.0,100%,35%)" stroke-width="0.02546"></path>
<path d="M0.372 0.401 Q0.549 0.434 0.653 0.355" stroke="hsl(0.0,100%,35%)" stroke-width="0.01497"></path>
<path d="M0.372 0.401 Q0.261 0.326 0.091 0.364" stroke="hsl(0.0,100%,35%)" stroke-width="0.01319"></path>
<path d="M0.372 0.401 Q0.200 0.456 0.269 0.552" stroke="hsl(0.0,100%,35%)" stroke-width="0.01005"></path>
<path d="M0.372 0.401 Q0.605 0.285 0.431 0.146" stroke="hsl(0.0,100%,35%)" stroke-width="0.00027"></path>
<path d="M0.091 0.364 Q0.379 0.472 0.653 0.355" stroke="hsl(0.0,100%,35%)" stroke-width="0.00562"></path>
<path d="M0.091 0.364 Q0.446 1.007 1.777 0.974" stroke="hsl(0.0,100%,35%)" stroke-width="0.00205"></path>
<path d="M0.091 0.364 Q0.565 0.934 1.780 0.828" stroke="hsl(0.0,100%,35%)" stroke-width="0.00400"></path>
<path d="M0.091 0.364 Q0.202 0.439 0.372 0.401" stroke="hsl(0.0,100%,35%)" stroke-width="0.00562"></path>
<path d="M0.091 0.364 Q0.030 0.494 0.269 0.552" stroke="hsl(0.0,100%,35%)" stroke-width="0.00016"></path>
<path d="M1.646 0.739 Q1.524 0.883 1.777 0.974" stroke="hsl(0.0,100%,35%)" stroke-width="0.00222"></path>
<path d="M1.646 0.739 Q1.642 0.810 1.780 0.828" stroke="hsl(0.0,100%,35%)" stroke-width="0.00038"></path>
<path d="M1.646 0.739 Q1.280 0.315 0.372 0.401" stroke="hsl(0.0,100%,35%)" stroke-width="0.00022"></path>
<path d="M0.828 0.785 Q1.151 1.069 1.777 0.974" stroke="hsl(0.0,100%,35%)" stroke-width="0.00724"></path>
<path d="M0.828 0.785 Q0.769 0.646 0.484 0.644" stroke="hsl(0.0,100%,35%)" stroke-width="0.00486"></path>
<path d="M0.828 0.785 Q1.161 0.972 1.599 0.850" stroke="hsl(0.0,100%,35%)" stroke-width="0.00038"></path>
<path d="M1.599 0.850 Q1.589 0.948 1.777 0.974" stroke="hsl(0.0,100%,35%)" stroke-width="0.00400"></path>
<path d="M1.599 0.850 Q1.707 0.876 1.780 0.828" stroke="hsl(0.0,100%,35%)" stroke-width="0.00070"></path>
<path d="M1.599 0.850 Q1.206 0.524 0.484 0.644" stroke="hsl(0.0,100%,35%)" stroke-width="0.00070"></path>
<path d="M1.403 0.969 Q1.586 1.047 1.777 0.974" stroke="hsl(0.0,100%,35%)" stroke-width="0.00022"></path>
<path d="M0.509 0.813 Q1.014 1.147 1.777 0.974" stroke="hsl(0.0,100%,35%)" stroke-width="0.00605"></path>
<path d="M0.509 0.813 Q1.132 1.075 1.780 0.828" stroke="hsl(0.0,100%,35%)" stroke-width="0.00076"></path>
<path d="M0.509 0.813 Q0.631 0.724 0.484 0.644" stroke="hsl(0.0,100%,35%)" stroke-width="0.00946"></path>
<path d="M0.509 0.813 Q1.044 1.076 1.676 0.872" stroke="hsl(0.0,100%,35%)" stroke-width="0.00022"></path>
<path d="M0.509 0.813 Q1.023 1.049 1.599 0.850" stroke="hsl(0.0,100%,35%)" stroke-width="0.00032"></path>
<path d="M1.535 0.415 Q1.209 0.743 1.777 0.974" stroke="hsl(0.0,100%,35%)" stroke-width="0.00016"></path>
<path d="M1.676 0.872 Q1.645 0.944 1.777 0.974" stroke="hsl(0.0,100%,35%)" stroke-width="0.00043"></path>
<path d="M0.269 0.552 Q0.804 0.992 1.780 0.828" stroke="hsl(0.0,100%,35%)" stroke-width="0.00546"></path>
<path d="M0.269 0.552 Q0.685 1.065 1.777 0.974" stroke="hsl(0.0,100%,35%)" stroke-width="0.00270"></path>
<path d="M0.269 0.552 Q0.618 0.530 0.653 0.355" stroke="hsl(0.0,100%,35%)" stroke-width="0.00065"></path>
<path d="M0.269 0.552 Q0.330 0.422 0.091 0.364" stroke="hsl(0.0,100%,35%)" stroke-width="0.00043"></path>
<path d="M0.269 0.552 Q0.442 0.497 0.372 0.401" stroke="hsl(0.0,100%,35%)" stroke-width="0.00827"></path>
<path d="M0.269 0.552 Q0.675 0.381 0.431 0.146" stroke="hsl(0.0,100%,35%)" stroke-width="0.00016"></path>
<path d="M1.629 0.704 Q1.487 0.869 1.777 0.974" stroke="hsl(0.0,100%,35%)" stroke-width="0.00016"></path>
<path d="M1.360 0.296 Q1.026 0.719 1.777 0.974" stroke="hsl(0.0,100%,35%)" stroke-width="0.00043"></path>
<path d="M1.360 0.296 Q0.959 0.184 0.653 0.355" stroke="hsl(0.0,100%,35%)" stroke-width="0.00016"></path>
<path d="M0.259 0.433 Q0.341 0.440 0.372 0.401" stroke="hsl(0.0,100%,35%)" stroke-width="0.00216"></path>
<path d="M0.259 0.433 Q0.585 1.008 1.777 0.974" stroke="hsl(0.0,100%,35%)" stroke-width="0.00103"></path>
<path d="M0.259 0.433 Q0.169 0.495 0.269 0.552" stroke="hsl(0.0,100%,35%)" stroke-width="0.00016"></path>
<path d="M0.769 0.672 Q0.649 0.601 0.484 0.644" stroke="hsl(0.0,100%,35%)" stroke-width="0.00022"></path>
<path d="M1.942 0.727 Q1.662 0.818 1.777 0.974" stroke="hsl(0.0,100%,35%)" stroke-width="0.00092"></path>
<path d="M1.942 0.727 Q1.280 0.394 0.484 0.644" stroke="hsl(0.0,100%,35%)" stroke-width="0.00027"></path>
<path d="M1.942 0.727 Q1.693 0.746 1.676 0.872" stroke="hsl(0.0,100%,35%)" stroke-width="0.00022"></path>
<path d="M1.573 1.729 Q2.279 1.393 1.777 0.974" stroke="hsl(0.0,100%,35%)" stroke-width="0.00114"></path>
<path d="M1.573 1.729 Q2.397 1.320 1.780 0.828" stroke="hsl(0.0,100%,35%)" stroke-width="0.00038"></path>
<path d="M1.573 1.729 Q2.035 0.824 0.372 0.401" stroke="hsl(0.0,100%,35%)" stroke-width="0.00022"></path>
<path d="M1.366 0.839 Q1.463 0.989 1.777 0.974" stroke="hsl(0.0,100%,35%)" stroke-width="0.00032"></path>
<path d="M1.298 1.655 Q2.082 1.411 1.777 0.974" stroke="hsl(0.0,100%,35%)" stroke-width="0.00135"></path>
<path d="M1.298 1.655 Q2.201 1.338 1.780 0.828" stroke="hsl(0.0,100%,35%)" stroke-width="0.00086"></path>
<path d="M1.298 1.655 Q2.015 0.876 0.653 0.355" stroke="hsl(0.0,100%,35%)" stroke-width="0.00022"></path>
<path d="M1.298 1.655 Q1.666 0.898 0.269 0.552" stroke="hsl(0.0,100%,35%)" stroke-width="0.00038"></path>
<path d="M1.298 1.655 Q1.838 0.843 0.372 0.401" stroke="hsl(0.0,100%,35%)" stroke-width="0.00070"></path>
<path d="M0.664 0.454 Q0.389 0.424 0.269 0.552" stroke="hsl(0.0,100%,35%)" stroke-width="0.00027"></path>
<path d="M0.664 0.454 Q0.805 0.937 1.777 0.974" stroke="hsl(0.0,100%,35%)" stroke-width="0.00016"></path>
</g>
<text x="1.578" y="0.958" font-size="0.014006" fill="hsl(0.0,100%,20%)">andyphan</text>
<text x="1.777" y="0.914" font-size="0.121488" fill="hsl(0.0,100%,20%)">thestig</text>
<text x="1.780" y="0.773" font-size="0.109234" fill="hsl(0.0,100%,20%)">tsepez</text>
<text x="0.484" y="0.621" font-size="0.047506" fill="hsl(0.0,100%,20%)">nigi</text>
<text x="0.187" y="0.214" font-size="0.015461" fill="hsl(0.0,100%,20%)">art-snake</text>
<text x="0.653" y="0.334" font-size="0.041267" fill="hsl(0.0,100%,20%)">hnakashima</text>
<text x="0.372" y="0.369" font-size="0.062835" fill="hsl(0.0,100%,20%)">dsinclair</text>
<text x="0.091" y="0.346" font-size="0.036946" fill="hsl(0.0,100%,20%)">rharrison</text>
<text x="0.720" y="0.584" font-size="0.005597" fill="hsl(0.0,100%,20%)">weili</text>
<text x="1.646" y="0.735" font-size="0.009347" fill="hsl(0.0,100%,20%)">asweintraub</text>
<text x="0.828" y="0.775" font-size="0.019599" fill="hsl(0.0,100%,20%)">awscreen</text>
<text x="1.599" y="0.838" font-size="0.023814" fill="hsl(0.0,100%,20%)">dhoss</text>
<text x="0.546" y="0.461" font-size="0.002224" fill="hsl(0.0,100%,20%)">bratell</text>
<text x="1.403" y="0.967" font-size="0.004060" fill="hsl(0.0,100%,20%)">brianosman</text>
<text x="0.509" y="0.799" font-size="0.026376" fill="hsl(0.0,100%,20%)">kmoon</text>
<text x="1.508" y="1.189" font-size="0.005742" fill="hsl(0.0,100%,20%)">reed</text>
<text x="1.535" y="0.413" font-size="0.004629" fill="hsl(0.0,100%,20%)">brucedawson</text>
<text x="1.676" y="0.868" font-size="0.009435" fill="hsl(0.0,100%,20%)">bungeman</text>
<text x="0.431" y="0.143" font-size="0.004804" fill="hsl(0.0,100%,20%)">caryclark</text>
<text x="0.269" y="0.535" font-size="0.032760" fill="hsl(0.0,100%,20%)">npm</text>
<text x="1.145" y="0.654" font-size="0.002224" fill="hsl(0.0,100%,20%)">dalecurtis</text>
<text x="1.621" y="0.863" font-size="0.003397" fill="hsl(0.0,100%,20%)">thomasanderson</text>
<text x="1.547" y="0.972" font-size="0.007704" fill="hsl(0.0,100%,20%)">drott</text>
<text x="0.379" y="0.479" font-size="0.001816" fill="hsl(0.0,100%,20%)">halcanary</text>
<text x="1.306" y="0.973" font-size="0.003145" fill="hsl(0.0,100%,20%)">rbpotter</text>
<text x="1.629" y="0.702" font-size="0.003145" fill="hsl(0.0,100%,20%)">hans</text>
<text x="1.513" y="0.647" font-size="0.001284" fill="hsl(0.0,100%,20%)">hwennborg</text>
<text x="1.360" y="0.293" font-size="0.005884" fill="hsl(0.0,100%,20%)">xlou</text>
<text x="0.259" y="0.428" font-size="0.010272" fill="hsl(0.0,100%,20%)">janeliulwq</text>
<text x="0.769" y="0.671" font-size="0.003145" fill="hsl(0.0,100%,20%)">kimstephanie</text>
<text x="1.942" y="0.724" font-size="0.006794" fill="hsl(0.0,100%,20%)">kjlubick</text>
<text x="1.573" y="1.724" font-size="0.009079" fill="hsl(0.0,100%,20%)">thakis</text>
<text x="1.366" y="0.837" font-size="0.004060" fill="hsl(0.0,100%,20%)">pkasting</text>
<text x="1.490" y="0.631" font-size="0.005136" fill="hsl(0.0,100%,20%)">palmer</text>
<text x="0.454" y="0.257" font-size="0.002224" fill="hsl(0.0,100%,20%)">stephana</text>
<text x="0.129" y="0.539" font-size="0.002224" fill="hsl(0.0,100%,20%)">tandrii</text>
<text x="1.445" y="0.842" font-size="0.001284" fill="hsl(0.0,100%,20%)">jbudorick</text>
<text x="1.352" y="0.703" font-size="0.001284" fill="hsl(0.0,100%,20%)">ochang</text>
<text x="1.508" y="0.663" font-size="0.001816" fill="hsl(0.0,100%,20%)">jochen</text>
<text x="1.842" y="0.600" font-size="0.001816" fill="hsl(0.0,100%,20%)">dcheng</text>
<text x="1.298" y="1.650" font-size="0.010431" fill="hsl(0.0,100%,20%)">vmiklos</text>
<text x="0.721" y="0.210" font-size="0.002568" fill="hsl(0.0,100%,20%)">vtsyrklevich</text>
<text x="0.664" y="0.452" font-size="0.004060" fill="hsl(0.0,100%,20%)">wileyrr</text>
</svg>
