<svg width="4000" height="2000" viewBox="-0.025 -0.025 2.05 1.05" xmlns="http://www.w3.org/2000/svg">
  <style>
    path {
      fill: none;
      stroke-linecap: round;
      stroke-opacity: 0.4;
    }

    text {
      text-anchor: middle;
      alignment-baseline: hanging;
    }
  </style>
  <g opacity="0.4">
<path d="M1.718 0.929 Q1.837 0.875 1.758 0.805" stroke="hsl(0.0,100%,35%)" stroke-width="0.01816"></path>
<path d="M1.718 0.929 Q1.482 0.940 1.452 1.058" stroke="hsl(0.0,100%,35%)" stroke-width="0.00107"></path>
<path d="M1.718 0.929 Q2.049 0.678 1.631 0.461" stroke="hsl(0.0,100%,35%)" stroke-width="0.00027"></path>
<path d="M1.758 0.805 Q1.403 0.870 1.452 1.058" stroke="hsl(0.0,100%,35%)" stroke-width="0.15918"></path>
<path d="M1.758 0.805 Q1.700 0.569 1.229 0.546" stroke="hsl(0.0,100%,35%)" stroke-width="0.00160"></path>
<path d="M1.758 0.805 Q1.849 0.662 1.590 0.586" stroke="hsl(0.0,100%,35%)" stroke-width="0.00694"></path>
<path d="M1.758 0.805 Q1.970 0.608 1.631 0.461" stroke="hsl(0.0,100%,35%)" stroke-width="0.02324"></path>
<path d="M1.758 0.805 Q1.781 0.844 1.862 0.841" stroke="hsl(0.0,100%,35%)" stroke-width="0.00027"></path>
<path d="M1.758 0.805 Q1.543 0.585 1.068 0.642" stroke="hsl(0.0,100%,35%)" stroke-width="0.00214"></path>
<path d="M1.452 1.058 Q1.808 0.993 1.758 0.805" stroke="hsl(0.0,100%,35%)" stroke-width="0.08921"></path>
<path d="M1.452 1.058 Q1.473 0.919 1.206 0.879" stroke="hsl(0.0,100%,35%)" stroke-width="0.00027"></path>
<path d="M1.452 1.058 Q2.019 0.795 1.631 0.461" stroke="hsl(0.0,100%,35%)" stroke-width="0.00027"></path>
<path d="M0.720 0.530 Q1.019 0.875 1.758 0.805" stroke="hsl(0.0,100%,35%)" stroke-width="0.01309"></path>
<path d="M0.720 0.530 Q0.663 0.941 1.452 1.058" stroke="hsl(0.0,100%,35%)" stroke-width="0.00027"></path>
<path d="M0.720 0.530 Q1.230 0.678 1.631 0.461" stroke="hsl(0.0,100%,35%)" stroke-width="0.00027"></path>
</g>
<text x="1.718" y="0.911" font-size="0.035116" fill="hsl(0.0,100%,20%)">andyphan</text>
<text x="1.758" y="0.734" font-size="0.140883" fill="hsl(0.0,100%,20%)">thestig</text>
<text x="1.452" y="0.995" font-size="0.125808" fill="hsl(0.0,100%,20%)">tsepez</text>
<text x="1.631" y="0.442" font-size="0.038991" fill="hsl(0.0,100%,20%)">nigi</text>
<text x="0.720" y="0.515" font-size="0.029351" fill="hsl(0.0,100%,20%)">awscreen</text>
<text x="1.229" y="0.541" font-size="0.010067" fill="hsl(0.0,100%,20%)">bungeman</text>
<text x="1.590" y="0.576" font-size="0.020957" fill="hsl(0.0,100%,20%)">drott</text>
<text x="1.862" y="0.839" font-size="0.004110" fill="hsl(0.0,100%,20%)">kmoon</text>
<text x="1.068" y="0.636" font-size="0.011625" fill="hsl(0.0,100%,20%)">dsinclair</text>
<text x="1.206" y="0.877" font-size="0.004110" fill="hsl(0.0,100%,20%)">thakis</text>
</svg>
