<svg width="4000" height="2000" viewBox="-0.025 -0.025 2.05 1.05" xmlns="http://www.w3.org/2000/svg">
  <style>
    path {
      fill: none;
      stroke-linecap: round;
      stroke-opacity: 0.4;
    }

    text {
      text-anchor: middle;
      alignment-baseline: hanging;
    }
  </style>
  <g opacity="0.4">
<path d="M0.781 0.586 Q0.636 0.531 0.496 0.589" stroke="hsl(0.0,100%,35%)" stroke-width="0.00835"></path>
<path d="M0.781 0.586 Q0.887 0.466 0.676 0.389" stroke="hsl(0.0,100%,35%)" stroke-width="0.00086"></path>
<path d="M0.781 0.586 Q0.490 0.650 0.551 0.806" stroke="hsl(0.0,100%,35%)" stroke-width="0.00092"></path>
<path d="M0.496 0.589 Q0.746 0.525 0.676 0.389" stroke="hsl(0.0,100%,35%)" stroke-width="0.16631"></path>
<path d="M0.496 0.589 Q0.621 0.669 0.804 0.625" stroke="hsl(0.0,100%,35%)" stroke-width="0.00205"></path>
<path d="M0.496 0.589 Q0.302 0.862 0.792 1.016" stroke="hsl(0.0,100%,35%)" stroke-width="0.00162"></path>
<path d="M0.496 0.589 Q0.350 0.709 0.551 0.806" stroke="hsl(0.0,100%,35%)" stroke-width="0.02920"></path>
<path d="M0.496 0.589 Q0.305 0.579 0.243 0.670" stroke="hsl(0.0,100%,35%)" stroke-width="0.00356"></path>
<path d="M0.496 0.589 Q0.950 0.609 1.087 0.391" stroke="hsl(0.0,100%,35%)" stroke-width="0.00032"></path>
<path d="M0.496 0.589 Q0.730 0.604 0.810 0.493" stroke="hsl(0.0,100%,35%)" stroke-width="0.00092"></path>
<path d="M0.496 0.589 Q0.845 0.584 0.911 0.413" stroke="hsl(0.0,100%,35%)" stroke-width="0.00647"></path>
<path d="M0.496 0.589 Q0.516 0.701 0.737 0.715" stroke="hsl(0.0,100%,35%)" stroke-width="0.00054"></path>
<path d="M0.496 0.589 Q0.989 0.415 0.757 0.137" stroke="hsl(0.0,100%,35%)" stroke-width="0.00032"></path>
<path d="M0.496 0.589 Q0.559 0.457 0.316 0.397" stroke="hsl(0.0,100%,35%)" stroke-width="0.00027"></path>
<path d="M0.496 0.589 Q0.691 0.825 1.193 0.782" stroke="hsl(0.0,100%,35%)" stroke-width="0.00770"></path>
<path d="M0.496 0.589 Q1.065 0.768 1.539 0.529" stroke="hsl(0.0,100%,35%)" stroke-width="0.01406"></path>
<path d="M0.496 0.589 Q0.870 0.811 1.384 0.677" stroke="hsl(0.0,100%,35%)" stroke-width="0.01886"></path>
<path d="M0.496 0.589 Q0.476 0.629 0.549 0.647" stroke="hsl(0.0,100%,35%)" stroke-width="0.00097"></path>
<path d="M0.496 0.589 Q0.465 0.643 0.564 0.670" stroke="hsl(0.0,100%,35%)" stroke-width="0.00065"></path>
<path d="M0.496 0.589 Q0.929 0.644 1.131 0.445" stroke="hsl(0.0,100%,35%)" stroke-width="0.00436"></path>
<path d="M0.496 0.589 Q1.085 0.648 1.329 0.374" stroke="hsl(0.0,100%,35%)" stroke-width="0.00043"></path>
<path d="M0.496 0.589 Q0.809 0.726 1.144 0.603" stroke="hsl(0.0,100%,35%)" stroke-width="0.00022"></path>
<path d="M0.496 0.589 Q1.058 0.828 1.648 0.607" stroke="hsl(0.0,100%,35%)" stroke-width="0.00092"></path>
<path d="M0.676 0.389 Q0.425 0.453 0.496 0.589" stroke="hsl(0.0,100%,35%)" stroke-width="0.17364"></path>
<path d="M0.676 0.389 Q0.280 0.572 0.551 0.806" stroke="hsl(0.0,100%,35%)" stroke-width="0.00275"></path>
<path d="M0.676 0.389 Q0.235 0.443 0.243 0.670" stroke="hsl(0.0,100%,35%)" stroke-width="0.00016"></path>
<path d="M0.676 0.389 Q0.774 0.448 0.911 0.413" stroke="hsl(0.0,100%,35%)" stroke-width="0.00361"></path>
<path d="M0.676 0.389 Q0.800 0.674 1.384 0.677" stroke="hsl(0.0,100%,35%)" stroke-width="0.01595"></path>
<path d="M0.676 0.389 Q0.995 0.632 1.539 0.529" stroke="hsl(0.0,100%,35%)" stroke-width="0.00048"></path>
<path d="M0.676 0.389 Q0.620 0.689 1.193 0.782" stroke="hsl(0.0,100%,35%)" stroke-width="0.00032"></path>
<path d="M0.676 0.389 Q0.859 0.508 1.131 0.445" stroke="hsl(0.0,100%,35%)" stroke-width="0.00070"></path>
<path d="M0.551 0.806 Q0.697 0.687 0.496 0.589" stroke="hsl(0.0,100%,35%)" stroke-width="0.02020"></path>
<path d="M0.551 0.806 Q0.506 0.676 0.243 0.670" stroke="hsl(0.0,100%,35%)" stroke-width="0.00216"></path>
<path d="M0.551 0.806 Q0.947 0.622 0.676 0.389" stroke="hsl(0.0,100%,35%)" stroke-width="0.00027"></path>
<path d="M0.551 0.806 Q1.046 0.682 0.911 0.413" stroke="hsl(0.0,100%,35%)" stroke-width="0.00216"></path>
<path d="M0.551 0.806 Q0.717 0.798 0.737 0.715" stroke="hsl(0.0,100%,35%)" stroke-width="0.00022"></path>
<path d="M0.804 0.625 Q0.678 0.546 0.496 0.589" stroke="hsl(0.0,100%,35%)" stroke-width="0.00070"></path>
<path d="M1.648 0.607 Q1.086 0.367 0.496 0.589" stroke="hsl(180.0,100%,35%)" stroke-width="0.00151"></path>
<path d="M1.648 0.607 Q1.655 0.546 1.539 0.529" stroke="hsl(180.0,100%,35%)" stroke-width="0.00022"></path>
<path d="M1.648 0.607 Q1.336 0.303 0.676 0.389" stroke="hsl(180.0,100%,35%)" stroke-width="0.00027"></path>
<path d="M1.648 0.607 Q1.460 0.589 1.384 0.677" stroke="hsl(180.0,100%,35%)" stroke-width="0.00469"></path>
<path d="M1.539 0.529 Q0.969 0.351 0.496 0.589" stroke="hsl(180.0,100%,35%)" stroke-width="0.00496"></path>
<path d="M1.539 0.529 Q1.164 0.586 1.193 0.782" stroke="hsl(180.0,100%,35%)" stroke-width="0.00528"></path>
<path d="M1.539 0.529 Q1.220 0.286 0.676 0.389" stroke="hsl(180.0,100%,35%)" stroke-width="0.00259"></path>
<path d="M1.539 0.529 Q1.343 0.572 1.384 0.677" stroke="hsl(180.0,100%,35%)" stroke-width="0.00550"></path>
<path d="M1.539 0.529 Q1.403 0.405 1.131 0.445" stroke="hsl(180.0,100%,35%)" stroke-width="0.00097"></path>
<path d="M1.384 0.677 Q1.009 0.455 0.496 0.589" stroke="hsl(180.0,100%,35%)" stroke-width="0.00242"></path>
<path d="M1.384 0.677 Q1.260 0.391 0.676 0.389" stroke="hsl(180.0,100%,35%)" stroke-width="0.02538"></path>
<path d="M1.384 0.677 Q1.579 0.634 1.539 0.529" stroke="hsl(180.0,100%,35%)" stroke-width="0.01492"></path>
<path d="M1.384 0.677 Q1.204 0.691 1.193 0.782" stroke="hsl(180.0,100%,35%)" stroke-width="0.01315"></path>
<path d="M1.384 0.677 Q1.443 0.510 1.131 0.445" stroke="hsl(180.0,100%,35%)" stroke-width="0.01002"></path>
<path d="M1.384 0.677 Q1.323 0.592 1.144 0.603" stroke="hsl(180.0,100%,35%)" stroke-width="0.00027"></path>
<path d="M1.193 0.782 Q1.568 0.725 1.539 0.529" stroke="hsl(180.0,100%,35%)" stroke-width="0.00560"></path>
<path d="M1.193 0.782 Q0.998 0.546 0.496 0.589" stroke="hsl(180.0,100%,35%)" stroke-width="0.00205"></path>
<path d="M1.193 0.782 Q1.249 0.482 0.676 0.389" stroke="hsl(180.0,100%,35%)" stroke-width="0.00399"></path>
<path d="M1.193 0.782 Q1.372 0.767 1.384 0.677" stroke="hsl(180.0,100%,35%)" stroke-width="0.00560"></path>
<path d="M1.193 0.782 Q1.431 0.601 1.131 0.445" stroke="hsl(180.0,100%,35%)" stroke-width="0.00016"></path>
<path d="M0.396 0.696 Q0.531 0.663 0.496 0.589" stroke="hsl(0.0,100%,35%)" stroke-width="0.00221"></path>
<path d="M0.396 0.696 Q0.782 0.598 0.676 0.389" stroke="hsl(0.0,100%,35%)" stroke-width="0.00038"></path>
<path d="M0.396 0.696 Q0.905 0.884 1.384 0.677" stroke="hsl(0.0,100%,35%)" stroke-width="0.00022"></path>
<path d="M0.323 0.879 Q0.641 0.769 0.496 0.589" stroke="hsl(0.0,100%,35%)" stroke-width="0.00819"></path>
<path d="M0.323 0.879 Q0.496 0.888 0.551 0.806" stroke="hsl(0.0,100%,35%)" stroke-width="0.00485"></path>
<path d="M0.323 0.879 Q0.990 0.764 0.911 0.413" stroke="hsl(0.0,100%,35%)" stroke-width="0.00038"></path>
<path d="M0.911 0.413 Q0.562 0.418 0.496 0.589" stroke="hsl(0.0,100%,35%)" stroke-width="0.00399"></path>
<path d="M0.911 0.413 Q0.813 0.354 0.676 0.389" stroke="hsl(0.0,100%,35%)" stroke-width="0.00070"></path>
<path d="M0.911 0.413 Q0.417 0.537 0.551 0.806" stroke="hsl(0.0,100%,35%)" stroke-width="0.00070"></path>
<path d="M0.252 0.729 Q0.486 0.708 0.496 0.589" stroke="hsl(0.0,100%,35%)" stroke-width="0.00022"></path>
<path d="M0.243 0.670 Q0.434 0.680 0.496 0.589" stroke="hsl(0.0,100%,35%)" stroke-width="0.00603"></path>
<path d="M0.243 0.670 Q0.684 0.616 0.676 0.389" stroke="hsl(0.0,100%,35%)" stroke-width="0.00075"></path>
<path d="M0.243 0.670 Q0.288 0.799 0.551 0.806" stroke="hsl(0.0,100%,35%)" stroke-width="0.00943"></path>
<path d="M0.243 0.670 Q0.559 0.759 0.804 0.625" stroke="hsl(0.0,100%,35%)" stroke-width="0.00022"></path>
<path d="M0.243 0.670 Q0.783 0.675 0.911 0.413" stroke="hsl(0.0,100%,35%)" stroke-width="0.00032"></path>
<path d="M0.757 0.137 Q0.264 0.311 0.496 0.589" stroke="hsl(180.0,100%,35%)" stroke-width="0.00016"></path>
<path d="M1.131 0.445 Q0.948 0.326 0.676 0.389" stroke="hsl(180.0,100%,35%)" stroke-width="0.00544"></path>
<path d="M1.131 0.445 Q0.698 0.390 0.496 0.589" stroke="hsl(180.0,100%,35%)" stroke-width="0.00269"></path>
<path d="M1.131 0.445 Q1.267 0.569 1.539 0.529" stroke="hsl(180.0,100%,35%)" stroke-width="0.00065"></path>
<path d="M1.131 0.445 Q0.893 0.626 1.193 0.782" stroke="hsl(180.0,100%,35%)" stroke-width="0.00043"></path>
<path d="M1.131 0.445 Q1.072 0.611 1.384 0.677" stroke="hsl(180.0,100%,35%)" stroke-width="0.00824"></path>
<path d="M1.131 0.445 Q1.011 0.526 1.144 0.603" stroke="hsl(180.0,100%,35%)" stroke-width="0.00016"></path>
<path d="M0.242 0.302 Q0.139 0.496 0.496 0.589" stroke="hsl(0.0,100%,35%)" stroke-width="0.00022"></path>
<path d="M0.242 0.302 Q0.389 0.432 0.676 0.389" stroke="hsl(0.0,100%,35%)" stroke-width="0.00016"></path>
<path d="M0.949 0.939 Q1.002 0.674 0.496 0.589" stroke="hsl(0.0,100%,35%)" stroke-width="0.00016"></path>
<path d="M0.063 0.569 Q0.263 0.666 0.496 0.589" stroke="hsl(0.0,100%,35%)" stroke-width="0.00054"></path>
<path d="M0.063 0.569 Q0.514 0.601 0.676 0.389" stroke="hsl(0.0,100%,35%)" stroke-width="0.00048"></path>
<path d="M1.329 0.374 Q0.740 0.315 0.496 0.589" stroke="hsl(180.0,100%,35%)" stroke-width="0.00043"></path>
<path d="M1.329 0.374 Q1.309 0.493 1.539 0.529" stroke="hsl(180.0,100%,35%)" stroke-width="0.00016"></path>
<path d="M1.415 0.812 Q1.507 0.738 1.384 0.677" stroke="hsl(180.0,100%,35%)" stroke-width="0.00216"></path>
<path d="M1.415 0.812 Q1.133 0.517 0.496 0.589" stroke="hsl(180.0,100%,35%)" stroke-width="0.00102"></path>
<path d="M1.415 0.812 Q1.566 0.571 1.131 0.445" stroke="hsl(180.0,100%,35%)" stroke-width="0.00016"></path>
<path d="M0.307 0.974 Q0.563 0.939 0.551 0.806" stroke="hsl(0.0,100%,35%)" stroke-width="0.00022"></path>
<path d="M0.760 0.629 Q0.659 0.556 0.496 0.589" stroke="hsl(0.0,100%,35%)" stroke-width="0.00102"></path>
<path d="M0.760 0.629 Q0.514 0.676 0.551 0.806" stroke="hsl(0.0,100%,35%)" stroke-width="0.00027"></path>
<path d="M0.760 0.629 Q0.785 0.636 0.804 0.625" stroke="hsl(0.0,100%,35%)" stroke-width="0.00027"></path>
<path d="M0.810 0.493 Q0.575 0.478 0.496 0.589" stroke="hsl(0.0,100%,35%)" stroke-width="0.00221"></path>
<path d="M0.810 0.493 Q0.826 0.414 0.676 0.389" stroke="hsl(0.0,100%,35%)" stroke-width="0.00038"></path>
<path d="M0.810 0.493 Q0.949 0.699 1.384 0.677" stroke="hsl(0.0,100%,35%)" stroke-width="0.00022"></path>
<path d="M0.673 0.422 Q0.451 0.470 0.496 0.589" stroke="hsl(0.0,100%,35%)" stroke-width="0.00032"></path>
<path d="M0.228 0.489 Q0.282 0.593 0.496 0.589" stroke="hsl(180.0,100%,35%)" stroke-width="0.00135"></path>
<path d="M0.228 0.489 Q0.532 0.529 0.676 0.389" stroke="hsl(180.0,100%,35%)" stroke-width="0.00086"></path>
<path d="M0.228 0.489 Q0.851 0.772 1.539 0.529" stroke="hsl(180.0,100%,35%)" stroke-width="0.00022"></path>
<path d="M0.228 0.489 Q0.715 0.648 1.131 0.445" stroke="hsl(180.0,100%,35%)" stroke-width="0.00038"></path>
<path d="M0.228 0.489 Q0.656 0.814 1.384 0.677" stroke="hsl(180.0,100%,35%)" stroke-width="0.00070"></path>
<path d="M1.042 0.682 Q1.276 0.581 1.131 0.445" stroke="hsl(180.0,100%,35%)" stroke-width="0.00027"></path>
<path d="M1.042 0.682 Q0.843 0.526 0.496 0.589" stroke="hsl(180.0,100%,35%)" stroke-width="0.00016"></path>
</g>
<text x="0.781" y="0.578" font-size="0.017328" fill="hsl(0.0,100%,20%)">andyphan</text>
<text x="0.496" y="0.528" font-size="0.122067" fill="hsl(0.0,100%,20%)">thestig</text>
<text x="0.676" y="0.334" font-size="0.109600" fill="hsl(0.0,100%,20%)">tsepez</text>
<text x="0.551" y="0.783" font-size="0.046636" fill="hsl(0.0,100%,20%)">nigi</text>
<text x="0.804" y="0.620" font-size="0.010394" fill="hsl(0.0,100%,20%)">bungeman</text>
<text x="1.648" y="0.599" font-size="0.015178" fill="hsl(180.0,100%,20%)">art-snake</text>
<text x="1.539" y="0.509" font-size="0.040511" fill="hsl(180.0,100%,20%)">hnakashima</text>
<text x="1.384" y="0.646" font-size="0.061735" fill="hsl(180.0,100%,20%)">dsinclair</text>
<text x="1.193" y="0.763" font-size="0.036269" fill="hsl(180.0,100%,20%)">rharrison</text>
<text x="0.737" y="0.713" font-size="0.005494" fill="hsl(0.0,100%,20%)">weili</text>
<text x="0.396" y="0.691" font-size="0.009176" fill="hsl(0.0,100%,20%)">asweintraub</text>
<text x="0.323" y="0.869" font-size="0.019969" fill="hsl(0.0,100%,20%)">awscreen</text>
<text x="0.911" y="0.401" font-size="0.023378" fill="hsl(0.0,100%,20%)">dhoss</text>
<text x="1.357" y="0.886" font-size="0.002183" fill="hsl(180.0,100%,20%)">bratell</text>
<text x="0.252" y="0.727" font-size="0.003986" fill="hsl(0.0,100%,20%)">brianosman</text>
<text x="0.243" y="0.657" font-size="0.025893" fill="hsl(0.0,100%,20%)">kmoon</text>
<text x="0.549" y="0.644" font-size="0.005637" fill="hsl(0.0,100%,20%)">reed</text>
<text x="0.757" y="0.134" font-size="0.004545" fill="hsl(180.0,100%,20%)">brucedawson</text>
<text x="1.144" y="0.601" font-size="0.004882" fill="hsl(180.0,100%,20%)">caryclark</text>
<text x="1.131" y="0.429" font-size="0.032209" fill="hsl(180.0,100%,20%)">npm</text>
<text x="0.920" y="0.705" font-size="0.002183" fill="hsl(180.0,100%,20%)">dalecurtis</text>
<text x="1.087" y="0.390" font-size="0.003335" fill="hsl(0.0,100%,20%)">thomasanderson</text>
<text x="0.792" y="1.012" font-size="0.007563" fill="hsl(0.0,100%,20%)">drott</text>
<text x="1.970" y="0.476" font-size="0.001783" fill="hsl(180.0,100%,20%)">halcanary</text>
<text x="0.316" y="0.396" font-size="0.003087" fill="hsl(0.0,100%,20%)">rbpotter</text>
<text x="0.242" y="0.300" font-size="0.003565" fill="hsl(0.0,100%,20%)">fmalita</text>
<text x="0.949" y="0.938" font-size="0.003087" fill="hsl(0.0,100%,20%)">hans</text>
<text x="0.560" y="0.959" font-size="0.001260" fill="hsl(0.0,100%,20%)">hwennborg</text>
<text x="0.063" y="0.566" font-size="0.005637" fill="hsl(0.0,100%,20%)">helmut</text>
<text x="1.329" y="0.371" font-size="0.005776" fill="hsl(180.0,100%,20%)">xlou</text>
<text x="1.415" y="0.807" font-size="0.010083" fill="hsl(180.0,100%,20%)">janeliulwq</text>
<text x="0.307" y="0.973" font-size="0.003087" fill="hsl(0.0,100%,20%)">kimstephanie</text>
<text x="0.760" y="0.625" font-size="0.007018" fill="hsl(0.0,100%,20%)">kjlubick</text>
<text x="0.810" y="0.487" font-size="0.010695" fill="hsl(0.0,100%,20%)">thakis</text>
<text x="0.673" y="0.420" font-size="0.003986" fill="hsl(0.0,100%,20%)">pkasting</text>
<text x="0.564" y="0.667" font-size="0.005042" fill="hsl(0.0,100%,20%)">palmer</text>
<text x="0.976" y="0.372" font-size="0.002183" fill="hsl(180.0,100%,20%)">rop</text>
<text x="0.955" y="0.786" font-size="0.002183" fill="hsl(180.0,100%,20%)">stephana</text>
<text x="1.628" y="0.730" font-size="0.002183" fill="hsl(180.0,100%,20%)">tandrii</text>
<text x="0.775" y="0.731" font-size="0.001260" fill="hsl(0.0,100%,20%)">jbudorick</text>
<text x="0.054" y="1.776" font-size="0.001260" fill="hsl(0.0,100%,20%)">ochang</text>
<text x="0.444" y="0.243" font-size="0.001783" fill="hsl(0.0,100%,20%)">jochen</text>
<text x="0.845" y="1.691" font-size="0.001783" fill="hsl(0.0,100%,20%)">dcheng</text>
<text x="0.228" y="0.484" font-size="0.010240" fill="hsl(180.0,100%,20%)">vmiklos</text>
<text x="1.750" y="0.539" font-size="0.002521" fill="hsl(180.0,100%,20%)">vtsyrklevich</text>
<text x="1.042" y="0.680" font-size="0.003986" fill="hsl(180.0,100%,20%)">wileyrr</text>
</svg>
