<svg width="4000" height="2000" viewBox="-0.025 -0.025 2.05 1.05" xmlns="http://www.w3.org/2000/svg">
  <style>
    path {
      fill: none;
      stroke-linecap: round;
      stroke-opacity: 0.4;
    }

    text {
      text-anchor: middle;
      alignment-baseline: hanging;
    }
  </style>
  <g opacity="0.4">
<path d="M0.611 0.219 Q0.789 0.540 1.456 0.524" stroke="hsl(0.0,100%,35%)" stroke-width="0.02385"></path>
<path d="M0.611 0.219 Q0.893 0.451 1.409 0.364" stroke="hsl(0.0,100%,35%)" stroke-width="0.00114"></path>
<path d="M0.611 0.219 Q0.663 0.523 1.268 0.564" stroke="hsl(0.0,100%,35%)" stroke-width="0.00028"></path>
<path d="M1.456 0.524 Q1.559 0.435 1.409 0.364" stroke="hsl(0.0,100%,35%)" stroke-width="0.15273"></path>
<path d="M1.456 0.524 Q1.329 0.507 1.268 0.564" stroke="hsl(0.0,100%,35%)" stroke-width="0.00199"></path>
<path d="M1.456 0.524 Q1.711 0.328 1.385 0.160" stroke="hsl(0.0,100%,35%)" stroke-width="0.00057"></path>
<path d="M1.456 0.524 Q1.419 0.395 1.161 0.385" stroke="hsl(0.0,100%,35%)" stroke-width="0.00312"></path>
<path d="M1.456 0.524 Q1.161 0.736 1.512 0.927" stroke="hsl(0.0,100%,35%)" stroke-width="0.00028"></path>
<path d="M1.409 0.364 Q1.305 0.453 1.456 0.524" stroke="hsl(0.0,100%,35%)" stroke-width="0.08034"></path>
<path d="M1.409 0.364 Q1.010 0.666 1.512 0.927" stroke="hsl(0.0,100%,35%)" stroke-width="0.00028"></path>
</g>
<text x="0.611" y="0.197" font-size="0.043702" fill="hsl(0.0,100%,20%)">andyphan</text>
<text x="1.456" y="0.453" font-size="0.140965" fill="hsl(0.0,100%,20%)">thestig</text>
<text x="1.409" y="0.298" font-size="0.133136" fill="hsl(0.0,100%,20%)">tsepez</text>
<text x="1.268" y="0.558" font-size="0.013102" fill="hsl(0.0,100%,20%)">bungeman</text>
<text x="1.385" y="0.157" font-size="0.006551" fill="hsl(0.0,100%,20%)">drott</text>
<text x="1.161" y="0.377" font-size="0.015364" fill="hsl(0.0,100%,20%)">dsinclair</text>
<text x="1.512" y="0.923" font-size="0.006551" fill="hsl(0.0,100%,20%)">thakis</text>
</svg>
