<svg width="4000" height="2000" viewBox="-0.025 -0.025 2.05 1.05" xmlns="http://www.w3.org/2000/svg">
  <style>
    path {
      fill: none;
      stroke-linecap: round;
      stroke-opacity: 0.4;
    }

    text {
      text-anchor: middle;
      alignment-baseline: hanging;
    }
  </style>
  <g opacity="0.4">
<path d="M0.641 0.564 Q0.437 0.570 0.404 0.671" stroke="hsl(0.0,100%,35%)" stroke-width="0.01653"></path>
<path d="M0.641 0.564 Q0.969 0.926 1.748 0.846" stroke="hsl(0.0,100%,35%)" stroke-width="0.00310"></path>
<path d="M0.641 0.564 Q0.366 0.496 0.173 0.616" stroke="hsl(0.0,100%,35%)" stroke-width="0.00207"></path>
<path d="M0.641 0.564 Q0.951 0.721 1.325 0.604" stroke="hsl(0.0,100%,35%)" stroke-width="0.00517"></path>
<path d="M0.404 0.671 Q0.814 0.569 0.705 0.347" stroke="hsl(0.0,100%,35%)" stroke-width="0.00826"></path>
<path d="M0.404 0.671 Q0.919 0.822 1.325 0.604" stroke="hsl(0.0,100%,35%)" stroke-width="0.00310"></path>
<path d="M0.404 0.671 Q0.334 0.597 0.173 0.616" stroke="hsl(0.0,100%,35%)" stroke-width="0.01756"></path>
<path d="M0.404 0.671 Q1.116 0.563 1.061 0.193" stroke="hsl(0.0,100%,35%)" stroke-width="0.00103"></path>
<path d="M0.404 0.671 Q0.937 1.027 1.748 0.846" stroke="hsl(0.0,100%,35%)" stroke-width="0.00930"></path>
<path d="M0.404 0.671 Q0.608 0.665 0.641 0.564" stroke="hsl(0.0,100%,35%)" stroke-width="0.01343"></path>
<path d="M0.404 0.671 Q0.788 0.480 0.499 0.251" stroke="hsl(0.0,100%,35%)" stroke-width="0.00517"></path>
<path d="M0.404 0.671 Q1.054 0.625 1.106 0.298" stroke="hsl(0.0,100%,35%)" stroke-width="0.00207"></path>
<path d="M0.404 0.671 Q0.343 0.724 0.433 0.766" stroke="hsl(0.0,100%,35%)" stroke-width="0.00310"></path>
<path d="M0.404 0.671 Q0.557 0.609 0.469 0.521" stroke="hsl(0.0,100%,35%)" stroke-width="0.00310"></path>
<path d="M0.404 0.671 Q0.743 1.033 1.523 0.947" stroke="hsl(0.0,100%,35%)" stroke-width="0.00103"></path>
<path d="M0.404 0.671 Q1.038 0.937 1.696 0.686" stroke="hsl(0.0,100%,35%)" stroke-width="0.00103"></path>
<path d="M0.404 0.671 Q0.817 0.636 0.839 0.427" stroke="hsl(0.0,100%,35%)" stroke-width="0.00103"></path>
<path d="M1.748 0.846 Q1.145 0.416 0.173 0.616" stroke="hsl(0.0,100%,35%)" stroke-width="0.00517"></path>
<path d="M1.748 0.846 Q1.850 0.755 1.696 0.686" stroke="hsl(0.0,100%,35%)" stroke-width="0.01860"></path>
<path d="M1.748 0.846 Q1.420 0.484 0.641 0.564" stroke="hsl(0.0,100%,35%)" stroke-width="0.00207"></path>
<path d="M1.748 0.846 Q1.216 0.490 0.404 0.671" stroke="hsl(0.0,100%,35%)" stroke-width="0.00723"></path>
<path d="M1.748 0.846 Q1.555 0.851 1.523 0.947" stroke="hsl(0.0,100%,35%)" stroke-width="0.00620"></path>
<path d="M1.748 0.846 Q1.730 0.640 1.325 0.604" stroke="hsl(0.0,100%,35%)" stroke-width="0.01033"></path>
<path d="M1.748 0.846 Q1.669 0.780 1.524 0.804" stroke="hsl(0.0,100%,35%)" stroke-width="0.00413"></path>
<path d="M0.173 0.616 Q0.758 0.840 1.325 0.604" stroke="hsl(0.0,100%,35%)" stroke-width="0.00930"></path>
<path d="M0.173 0.616 Q0.244 0.690 0.404 0.671" stroke="hsl(0.0,100%,35%)" stroke-width="0.00207"></path>
<path d="M0.173 0.616 Q0.654 0.588 0.705 0.347" stroke="hsl(0.0,100%,35%)" stroke-width="0.00723"></path>
<path d="M0.173 0.616 Q0.894 0.643 1.106 0.298" stroke="hsl(0.0,100%,35%)" stroke-width="0.00207"></path>
<path d="M0.173 0.616 Q0.878 0.955 1.696 0.686" stroke="hsl(0.0,100%,35%)" stroke-width="0.00103"></path>
<path d="M1.325 0.604 Q0.740 0.379 0.173 0.616" stroke="hsl(0.0,100%,35%)" stroke-width="0.00103"></path>
<path d="M1.325 0.604 Q1.460 0.407 1.106 0.298" stroke="hsl(0.0,100%,35%)" stroke-width="0.00103"></path>
<path d="M1.325 0.604 Q0.811 0.454 0.404 0.671" stroke="hsl(0.0,100%,35%)" stroke-width="0.00413"></path>
<path d="M1.325 0.604 Q1.015 0.447 0.641 0.564" stroke="hsl(0.0,100%,35%)" stroke-width="0.00207"></path>
<path d="M1.523 0.947 Q1.716 0.941 1.748 0.846" stroke="hsl(0.0,100%,35%)" stroke-width="0.00723"></path>
<path d="M1.523 0.947 Q1.184 0.585 0.404 0.671" stroke="hsl(0.0,100%,35%)" stroke-width="0.00310"></path>
<path d="M1.524 0.804 Q1.070 0.514 0.404 0.671" stroke="hsl(0.0,100%,35%)" stroke-width="0.00103"></path>
<path d="M1.524 0.804 Q1.602 0.870 1.748 0.846" stroke="hsl(0.0,100%,35%)" stroke-width="0.00207"></path>
<path d="M1.524 0.804 Q1.154 0.411 0.306 0.505" stroke="hsl(0.0,100%,35%)" stroke-width="0.00103"></path>
<path d="M1.524 0.804 Q0.999 0.440 0.173 0.616" stroke="hsl(0.0,100%,35%)" stroke-width="0.00103"></path>
<path d="M1.524 0.804 Q1.480 0.412 0.705 0.347" stroke="hsl(0.0,100%,35%)" stroke-width="0.00103"></path>
<path d="M1.524 0.804 Q1.454 0.322 0.499 0.251" stroke="hsl(0.0,100%,35%)" stroke-width="0.00103"></path>
<path d="M0.306 0.505 Q0.152 0.534 0.173 0.616" stroke="hsl(0.0,100%,35%)" stroke-width="0.00310"></path>
<path d="M0.306 0.505 Q0.223 0.608 0.404 0.671" stroke="hsl(0.0,100%,35%)" stroke-width="0.00103"></path>
<path d="M0.705 0.347 Q0.809 0.600 1.325 0.604" stroke="hsl(180.0,100%,35%)" stroke-width="0.00103"></path>
<path d="M0.705 0.347 Q0.945 0.403 1.106 0.298" stroke="hsl(180.0,100%,35%)" stroke-width="0.01033"></path>
<path d="M0.705 0.347 Q0.679 0.258 0.499 0.251" stroke="hsl(180.0,100%,35%)" stroke-width="0.01033"></path>
<path d="M0.705 0.347 Q0.906 0.274 0.808 0.160" stroke="hsl(180.0,100%,35%)" stroke-width="0.00620"></path>
<path d="M0.705 0.347 Q1.007 0.341 1.061 0.193" stroke="hsl(180.0,100%,35%)" stroke-width="0.00723"></path>
<path d="M0.705 0.347 Q0.828 0.805 1.748 0.846" stroke="hsl(180.0,100%,35%)" stroke-width="0.00103"></path>
<path d="M0.705 0.347 Q0.295 0.449 0.404 0.671" stroke="hsl(180.0,100%,35%)" stroke-width="0.00413"></path>
<path d="M0.705 0.347 Q0.234 0.502 0.433 0.766" stroke="hsl(180.0,100%,35%)" stroke-width="0.00103"></path>
<path d="M0.705 0.347 Q0.225 0.375 0.173 0.616" stroke="hsl(180.0,100%,35%)" stroke-width="0.00103"></path>
<path d="M0.705 0.347 Q0.708 0.414 0.839 0.427" stroke="hsl(180.0,100%,35%)" stroke-width="0.00517"></path>
<path d="M1.106 0.298 Q0.866 0.242 0.705 0.347" stroke="hsl(180.0,100%,35%)" stroke-width="0.02066"></path>
<path d="M1.106 0.298 Q1.168 0.236 1.061 0.193" stroke="hsl(180.0,100%,35%)" stroke-width="0.01756"></path>
<path d="M1.106 0.298 Q1.067 0.169 0.808 0.160" stroke="hsl(180.0,100%,35%)" stroke-width="0.00103"></path>
<path d="M1.106 0.298 Q0.840 0.153 0.499 0.251" stroke="hsl(180.0,100%,35%)" stroke-width="0.00310"></path>
<path d="M1.106 0.298 Q0.971 0.495 1.325 0.604" stroke="hsl(180.0,100%,35%)" stroke-width="0.00103"></path>
<path d="M1.106 0.298 Q0.869 0.309 0.839 0.427" stroke="hsl(180.0,100%,35%)" stroke-width="0.00207"></path>
<path d="M0.433 0.766 Q0.903 0.611 0.705 0.347" stroke="hsl(180.0,100%,35%)" stroke-width="0.00517"></path>
<path d="M0.433 0.766 Q1.144 0.666 1.106 0.298" stroke="hsl(180.0,100%,35%)" stroke-width="0.00103"></path>
<path d="M0.433 0.766 Q0.878 0.521 0.499 0.251" stroke="hsl(180.0,100%,35%)" stroke-width="0.00103"></path>
<path d="M0.499 0.251 Q0.827 0.334 1.061 0.193" stroke="hsl(180.0,100%,35%)" stroke-width="0.00310"></path>
<path d="M0.499 0.251 Q0.115 0.442 0.404 0.671" stroke="hsl(180.0,100%,35%)" stroke-width="0.00310"></path>
<path d="M0.499 0.251 Q0.054 0.495 0.433 0.766" stroke="hsl(180.0,100%,35%)" stroke-width="0.00207"></path>
<path d="M0.499 0.251 Q0.525 0.340 0.705 0.347" stroke="hsl(180.0,100%,35%)" stroke-width="0.00826"></path>
<path d="M0.499 0.251 Q0.765 0.396 1.106 0.298" stroke="hsl(180.0,100%,35%)" stroke-width="0.00103"></path>
<path d="M0.499 0.251 Q0.569 0.732 1.524 0.804" stroke="hsl(180.0,100%,35%)" stroke-width="0.00103"></path>
<path d="M0.499 0.251 Q0.726 0.267 0.808 0.160" stroke="hsl(180.0,100%,35%)" stroke-width="0.00310"></path>
<path d="M0.499 0.251 Q0.528 0.407 0.839 0.427" stroke="hsl(180.0,100%,35%)" stroke-width="0.00103"></path>
<path d="M0.808 0.160 Q0.607 0.233 0.705 0.347" stroke="hsl(180.0,100%,35%)" stroke-width="0.01446"></path>
<path d="M0.808 0.160 Q0.847 0.289 1.106 0.298" stroke="hsl(180.0,100%,35%)" stroke-width="0.00310"></path>
<path d="M0.808 0.160 Q0.136 0.388 0.433 0.766" stroke="hsl(180.0,100%,35%)" stroke-width="0.00103"></path>
<path d="M0.808 0.160 Q0.909 0.227 1.061 0.193" stroke="hsl(180.0,100%,35%)" stroke-width="0.00103"></path>
<path d="M0.808 0.160 Q0.581 0.144 0.499 0.251" stroke="hsl(180.0,100%,35%)" stroke-width="0.00207"></path>
<path d="M1.061 0.193 Q0.864 0.451 1.325 0.604" stroke="hsl(180.0,100%,35%)" stroke-width="0.00103"></path>
<path d="M1.061 0.193 Q0.759 0.199 0.705 0.347" stroke="hsl(180.0,100%,35%)" stroke-width="0.01343"></path>
<path d="M1.061 0.193 Q0.999 0.254 1.106 0.298" stroke="hsl(180.0,100%,35%)" stroke-width="0.02686"></path>
<path d="M1.061 0.193 Q0.734 0.109 0.499 0.251" stroke="hsl(180.0,100%,35%)" stroke-width="0.00413"></path>
<path d="M1.061 0.193 Q1.345 0.232 1.483 0.102" stroke="hsl(180.0,100%,35%)" stroke-width="0.00103"></path>
<path d="M1.061 0.193 Q0.762 0.265 0.839 0.427" stroke="hsl(180.0,100%,35%)" stroke-width="0.00310"></path>
<path d="M1.061 0.193 Q0.350 0.301 0.404 0.671" stroke="hsl(180.0,100%,35%)" stroke-width="0.00517"></path>
<path d="M0.469 0.521 Q0.317 0.583 0.404 0.671" stroke="hsl(0.0,100%,35%)" stroke-width="0.00517"></path>
<path d="M0.469 0.521 Q0.256 0.636 0.433 0.766" stroke="hsl(0.0,100%,35%)" stroke-width="0.00103"></path>
<path d="M0.469 0.521 Q0.849 0.939 1.748 0.846" stroke="hsl(0.0,100%,35%)" stroke-width="0.00103"></path>
<path d="M0.469 0.521 Q0.726 0.481 0.705 0.347" stroke="hsl(0.0,100%,35%)" stroke-width="0.00207"></path>
<path d="M0.839 0.427 Q0.427 0.463 0.404 0.671" stroke="hsl(180.0,100%,35%)" stroke-width="0.00103"></path>
<path d="M0.839 0.427 Q0.836 0.361 0.705 0.347" stroke="hsl(180.0,100%,35%)" stroke-width="0.01343"></path>
<path d="M0.839 0.427 Q1.076 0.416 1.106 0.298" stroke="hsl(180.0,100%,35%)" stroke-width="0.00103"></path>
<path d="M1.118 0.611 Q1.227 0.649 1.325 0.604" stroke="hsl(0.0,100%,35%)" stroke-width="0.01240"></path>
<path d="M1.118 0.611 Q0.713 0.499 0.404 0.671" stroke="hsl(0.0,100%,35%)" stroke-width="0.00103"></path>
<path d="M1.118 0.611 Q0.642 0.424 0.173 0.616" stroke="hsl(0.0,100%,35%)" stroke-width="0.00207"></path>
<path d="M1.118 0.611 Q1.096 0.307 0.499 0.251" stroke="hsl(0.0,100%,35%)" stroke-width="0.00103"></path>
<path d="M1.300 0.471 Q1.206 0.542 1.325 0.604" stroke="hsl(0.0,100%,35%)" stroke-width="0.01136"></path>
<path d="M1.300 0.471 Q0.692 0.392 0.404 0.671" stroke="hsl(0.0,100%,35%)" stroke-width="0.00310"></path>
<path d="M1.300 0.471 Q1.224 0.748 1.748 0.846" stroke="hsl(0.0,100%,35%)" stroke-width="0.00620"></path>
<path d="M1.300 0.471 Q1.104 0.357 0.839 0.427" stroke="hsl(0.0,100%,35%)" stroke-width="0.00103"></path>
<path d="M1.300 0.471 Q1.332 0.260 0.926 0.198" stroke="hsl(0.0,100%,35%)" stroke-width="0.00103"></path>
<path d="M1.300 0.471 Q0.621 0.318 0.173 0.616" stroke="hsl(0.0,100%,35%)" stroke-width="0.00207"></path>
<path d="M1.300 0.471 Q0.925 0.491 0.882 0.678" stroke="hsl(0.0,100%,35%)" stroke-width="0.00103"></path>
<path d="M1.300 0.471 Q1.101 0.290 0.705 0.347" stroke="hsl(0.0,100%,35%)" stroke-width="0.00103"></path>
<path d="M1.786 0.552 Q0.929 0.261 0.173 0.616" stroke="hsl(0.0,100%,35%)" stroke-width="0.00103"></path>
<path d="M1.786 0.552 Q1.514 0.486 1.325 0.604" stroke="hsl(0.0,100%,35%)" stroke-width="0.00103"></path>
<path d="M1.786 0.552 Q1.000 0.335 0.404 0.671" stroke="hsl(0.0,100%,35%)" stroke-width="0.00103"></path>
<path d="M0.431 0.121 Q0.387 0.289 0.705 0.347" stroke="hsl(180.0,100%,35%)" stroke-width="0.01343"></path>
<path d="M0.431 0.121 Q0.361 0.200 0.499 0.251" stroke="hsl(180.0,100%,35%)" stroke-width="0.00517"></path>
<path d="M0.431 0.121 Q0.627 0.345 1.106 0.298" stroke="hsl(180.0,100%,35%)" stroke-width="0.00103"></path>
<path d="M0.727 0.447 Q0.795 0.393 0.705 0.347" stroke="hsl(180.0,100%,35%)" stroke-width="0.00310"></path>
<path d="M0.727 0.447 Q0.770 0.303 0.499 0.251" stroke="hsl(180.0,100%,35%)" stroke-width="0.00207"></path>
<path d="M0.727 0.447 Q1.098 0.387 1.061 0.193" stroke="hsl(180.0,100%,35%)" stroke-width="0.00103"></path>
<path d="M0.727 0.447 Q1.036 0.448 1.106 0.298" stroke="hsl(180.0,100%,35%)" stroke-width="0.00103"></path>
<path d="M0.727 0.447 Q0.386 0.495 0.404 0.671" stroke="hsl(180.0,100%,35%)" stroke-width="0.00103"></path>
</g>
<text x="0.641" y="0.543" font-size="0.042153" fill="hsl(0.0,100%,20%)">borenet</text>
<text x="0.404" y="0.635" font-size="0.071870" fill="hsl(0.0,100%,20%)">kjlubick</text>
<text x="1.748" y="0.817" font-size="0.057854" fill="hsl(0.0,100%,20%)">bungeman</text>
<text x="0.173" y="0.592" font-size="0.048105" fill="hsl(0.0,100%,20%)">danieldilan</text>
<text x="1.325" y="0.579" font-size="0.050616" fill="hsl(0.0,100%,20%)">fmalita</text>
<text x="1.696" y="0.671" font-size="0.028748" fill="hsl(0.0,100%,20%)">jlavrova</text>
<text x="1.523" y="0.934" font-size="0.026504" fill="hsl(0.0,100%,20%)">drott</text>
<text x="1.524" y="0.793" font-size="0.022268" fill="hsl(0.0,100%,20%)">nscobie</text>
<text x="0.306" y="0.498" font-size="0.014374" fill="hsl(0.0,100%,20%)">ccameron</text>
<text x="0.705" y="0.308" font-size="0.079772" fill="hsl(180.0,100%,20%)">michaelludwig</text>
<text x="1.106" y="0.267" font-size="0.061992" fill="hsl(180.0,100%,20%)">robertphillips</text>
<text x="0.433" y="0.753" font-size="0.024896" fill="hsl(180.0,100%,20%)">egdaniel</text>
<text x="0.499" y="0.227" font-size="0.048105" fill="hsl(180.0,100%,20%)">nicolettep</text>
<text x="0.808" y="0.142" font-size="0.035791" fill="hsl(180.0,100%,20%)">jamesgk</text>
<text x="1.061" y="0.163" font-size="0.058564" fill="hsl(180.0,100%,20%)">jvanverth</text>
<text x="0.469" y="0.510" font-size="0.022268" fill="hsl(0.0,100%,20%)">jmbetancourt</text>
<text x="1.483" y="0.098" font-size="0.006428" fill="hsl(180.0,100%,20%)">brettos</text>
<text x="0.839" y="0.410" font-size="0.034015" fill="hsl(180.0,100%,20%)">thomsmit</text>
<text x="1.118" y="0.598" font-size="0.025713" fill="hsl(0.0,100%,20%)">lukasza</text>
<text x="1.300" y="0.455" font-size="0.032778" fill="hsl(0.0,100%,20%)">mike</text>
<text x="0.926" y="0.194" font-size="0.006428" fill="hsl(0.0,100%,20%)">bwils</text>
<text x="0.882" y="0.675" font-size="0.006428" fill="hsl(0.0,100%,20%)">sharaks</text>
<text x="1.786" y="0.546" font-size="0.011134" fill="hsl(0.0,100%,20%)">sam</text>
<text x="0.431" y="0.107" font-size="0.028020" fill="hsl(180.0,100%,20%)">syoussefi</text>
<text x="0.727" y="0.438" font-size="0.018182" fill="hsl(180.0,100%,20%)">zengyonghust</text>
</svg>
