<svg width="4000" height="2000" viewBox="-0.025 -0.025 2.05 1.05" xmlns="http://www.w3.org/2000/svg">
  <style>
    path {
      fill: none;
      stroke-linecap: round;
      stroke-opacity: 0.4;
    }

    text {
      text-anchor: middle;
      alignment-baseline: hanging;
    }
  </style>
  <g opacity="0.4">
<path d="M1.770 0.468 Q1.690 0.309 1.362 0.313" stroke="hsl(0.0,100%,35%)" stroke-width="0.00207"></path>
<path d="M1.770 0.468 Q1.871 0.326 1.616 0.246" stroke="hsl(0.0,100%,35%)" stroke-width="0.00191"></path>
<path d="M1.770 0.468 Q1.437 0.612 1.645 0.806" stroke="hsl(0.0,100%,35%)" stroke-width="0.00096"></path>
<path d="M1.770 0.468 Q1.237 0.647 1.469 0.946" stroke="hsl(0.0,100%,35%)" stroke-width="0.00016"></path>
<path d="M1.770 0.468 Q2.054 0.351 1.888 0.187" stroke="hsl(0.0,100%,35%)" stroke-width="0.00032"></path>
<path d="M1.770 0.468 Q0.934 0.554 0.918 0.981" stroke="hsl(0.0,100%,35%)" stroke-width="0.00016"></path>
<path d="M1.770 0.468 Q1.001 0.504 0.902 0.887" stroke="hsl(0.0,100%,35%)" stroke-width="0.00016"></path>
<path d="M1.770 0.468 Q1.177 0.228 0.578 0.464" stroke="hsl(0.0,100%,35%)" stroke-width="0.00048"></path>
<path d="M1.770 0.468 Q1.279 0.302 0.848 0.505" stroke="hsl(0.0,100%,35%)" stroke-width="0.00016"></path>
<path d="M1.770 0.468 Q1.584 0.338 1.289 0.400" stroke="hsl(0.0,100%,35%)" stroke-width="0.00016"></path>
<path d="M1.770 0.468 Q0.782 0.288 0.212 0.730" stroke="hsl(0.0,100%,35%)" stroke-width="0.00016"></path>
<path d="M1.362 0.313 Q1.441 0.472 1.770 0.468" stroke="hsl(0.0,100%,35%)" stroke-width="0.00685"></path>
<path d="M1.362 0.313 Q1.543 0.330 1.616 0.246" stroke="hsl(0.0,100%,35%)" stroke-width="0.09253"></path>
<path d="M1.362 0.313 Q1.329 0.517 1.719 0.578" stroke="hsl(0.0,100%,35%)" stroke-width="0.00111"></path>
<path d="M1.362 0.313 Q1.051 0.368 1.091 0.532" stroke="hsl(0.0,100%,35%)" stroke-width="0.00032"></path>
<path d="M1.362 0.313 Q1.256 0.342 1.289 0.400" stroke="hsl(0.0,100%,35%)" stroke-width="0.02564"></path>
<path d="M1.362 0.313 Q1.109 0.616 1.645 0.806" stroke="hsl(0.0,100%,35%)" stroke-width="0.00303"></path>
<path d="M1.362 0.313 Q1.066 0.486 1.337 0.668" stroke="hsl(0.0,100%,35%)" stroke-width="0.00223"></path>
<path d="M1.362 0.313 Q0.849 0.232 0.578 0.464" stroke="hsl(0.0,100%,35%)" stroke-width="0.00303"></path>
<path d="M1.362 0.313 Q0.606 0.558 0.918 0.981" stroke="hsl(0.0,100%,35%)" stroke-width="0.00350"></path>
<path d="M1.362 0.313 Q1.461 0.228 1.318 0.161" stroke="hsl(0.0,100%,35%)" stroke-width="0.00016"></path>
<path d="M1.362 0.313 Q0.696 0.477 0.871 0.838" stroke="hsl(0.0,100%,35%)" stroke-width="0.00207"></path>
<path d="M1.362 0.313 Q1.187 0.541 1.594 0.677" stroke="hsl(0.0,100%,35%)" stroke-width="0.00175"></path>
<path d="M1.362 0.313 Q0.951 0.306 0.848 0.505" stroke="hsl(0.0,100%,35%)" stroke-width="0.00191"></path>
<path d="M1.362 0.313 Q0.453 0.292 0.212 0.730" stroke="hsl(0.0,100%,35%)" stroke-width="0.00111"></path>
<path d="M1.362 0.313 Q1.726 0.355 1.888 0.187" stroke="hsl(0.0,100%,35%)" stroke-width="0.00350"></path>
<path d="M1.362 0.313 Q0.630 0.275 0.395 0.624" stroke="hsl(0.0,100%,35%)" stroke-width="0.00223"></path>
<path d="M1.362 0.313 Q0.815 0.539 1.137 0.855" stroke="hsl(0.0,100%,35%)" stroke-width="0.00048"></path>
<path d="M1.362 0.313 Q1.123 0.705 1.836 0.908" stroke="hsl(0.0,100%,35%)" stroke-width="0.00016"></path>
<path d="M1.362 0.313 Q1.262 0.649 1.894 0.771" stroke="hsl(0.0,100%,35%)" stroke-width="0.00032"></path>
<path d="M1.362 0.313 Q0.500 0.208 0.107 0.606" stroke="hsl(0.0,100%,35%)" stroke-width="0.00048"></path>
<path d="M1.362 0.313 Q0.720 0.151 0.264 0.429" stroke="hsl(0.0,100%,35%)" stroke-width="0.00032"></path>
<path d="M1.362 0.313 Q0.673 0.508 0.902 0.887" stroke="hsl(0.0,100%,35%)" stroke-width="0.00080"></path>
<path d="M1.362 0.313 Q0.909 0.651 1.469 0.946" stroke="hsl(0.0,100%,35%)" stroke-width="0.00048"></path>
<path d="M1.362 0.313 Q1.450 0.215 1.278 0.150" stroke="hsl(0.0,100%,35%)" stroke-width="0.00207"></path>
<path d="M1.362 0.313 Q0.981 0.408 1.083 0.614" stroke="hsl(0.0,100%,35%)" stroke-width="0.00016"></path>
<path d="M1.616 0.246 Q1.435 0.228 1.362 0.313" stroke="hsl(0.0,100%,35%)" stroke-width="0.01609"></path>
<path d="M1.616 0.246 Q1.182 0.532 1.645 0.806" stroke="hsl(0.0,100%,35%)" stroke-width="0.00303"></path>
<path d="M1.616 0.246 Q1.024 0.222 0.848 0.505" stroke="hsl(0.0,100%,35%)" stroke-width="0.00064"></path>
<path d="M1.616 0.246 Q1.799 0.270 1.888 0.187" stroke="hsl(0.0,100%,35%)" stroke-width="0.00924"></path>
<path d="M1.616 0.246 Q0.703 0.190 0.395 0.624" stroke="hsl(0.0,100%,35%)" stroke-width="0.00032"></path>
<path d="M1.616 0.246 Q0.770 0.392 0.871 0.838" stroke="hsl(0.0,100%,35%)" stroke-width="0.00717"></path>
<path d="M1.616 0.246 Q0.922 0.147 0.578 0.464" stroke="hsl(0.0,100%,35%)" stroke-width="0.00207"></path>
<path d="M1.616 0.246 Q1.515 0.388 1.770 0.468" stroke="hsl(0.0,100%,35%)" stroke-width="0.00064"></path>
<path d="M1.616 0.246 Q1.066 0.621 1.677 0.972" stroke="hsl(0.0,100%,35%)" stroke-width="0.00175"></path>
<path d="M1.616 0.246 Q1.261 0.457 1.594 0.677" stroke="hsl(0.0,100%,35%)" stroke-width="0.00223"></path>
<path d="M1.616 0.246 Q0.794 0.067 0.264 0.429" stroke="hsl(0.0,100%,35%)" stroke-width="0.00032"></path>
<path d="M1.616 0.246 Q0.679 0.473 0.918 0.981" stroke="hsl(0.0,100%,35%)" stroke-width="0.00096"></path>
<path d="M1.616 0.246 Q1.329 0.257 1.289 0.400" stroke="hsl(0.0,100%,35%)" stroke-width="0.00239"></path>
<path d="M1.616 0.246 Q1.139 0.401 1.337 0.668" stroke="hsl(0.0,100%,35%)" stroke-width="0.00096"></path>
<path d="M1.616 0.246 Q0.985 0.509 1.361 0.875" stroke="hsl(0.0,100%,35%)" stroke-width="0.00016"></path>
<path d="M1.616 0.246 Q1.402 0.432 1.719 0.578" stroke="hsl(0.0,100%,35%)" stroke-width="0.00064"></path>
<path d="M1.616 0.246 Q1.196 0.621 1.836 0.908" stroke="hsl(0.0,100%,35%)" stroke-width="0.00032"></path>
<path d="M1.616 0.246 Q0.527 0.207 0.212 0.730" stroke="hsl(0.0,100%,35%)" stroke-width="0.00096"></path>
<path d="M1.616 0.246 Q0.746 0.423 0.902 0.887" stroke="hsl(0.0,100%,35%)" stroke-width="0.00016"></path>
<path d="M1.616 0.246 Q0.982 0.566 1.469 0.946" stroke="hsl(0.0,100%,35%)" stroke-width="0.00032"></path>
<path d="M1.616 0.246 Q0.889 0.455 1.137 0.855" stroke="hsl(0.0,100%,35%)" stroke-width="0.00048"></path>
<path d="M1.616 0.246 Q1.523 0.130 1.278 0.150" stroke="hsl(0.0,100%,35%)" stroke-width="0.00207"></path>
<path d="M1.616 0.246 Q0.574 0.124 0.107 0.606" stroke="hsl(0.0,100%,35%)" stroke-width="0.00032"></path>
<path d="M1.616 0.246 Q1.690 0.119 1.460 0.056" stroke="hsl(0.0,100%,35%)" stroke-width="0.00064"></path>
<path d="M1.645 0.806 Q1.445 0.841 1.469 0.946" stroke="hsl(120.0,100%,35%)" stroke-width="0.00462"></path>
<path d="M1.645 0.806 Q1.528 0.895 1.677 0.972" stroke="hsl(120.0,100%,35%)" stroke-width="0.00398"></path>
<path d="M1.645 0.806 Q1.898 0.503 1.362 0.313" stroke="hsl(120.0,100%,35%)" stroke-width="0.00319"></path>
<path d="M1.645 0.806 Q1.232 0.667 0.871 0.838" stroke="hsl(120.0,100%,35%)" stroke-width="0.00175"></path>
<path d="M1.645 0.806 Q1.142 0.748 0.918 0.981" stroke="hsl(120.0,100%,35%)" stroke-width="0.00780"></path>
<path d="M1.645 0.806 Q1.256 0.341 0.264 0.429" stroke="hsl(120.0,100%,35%)" stroke-width="0.00191"></path>
<path d="M1.645 0.806 Q1.865 0.707 1.719 0.578" stroke="hsl(120.0,100%,35%)" stroke-width="0.00446"></path>
<path d="M1.645 0.806 Q1.209 0.698 0.902 0.887" stroke="hsl(120.0,100%,35%)" stroke-width="0.00048"></path>
<path d="M1.645 0.806 Q1.723 0.731 1.594 0.677" stroke="hsl(120.0,100%,35%)" stroke-width="0.00127"></path>
<path d="M1.645 0.806 Q2.262 0.545 1.888 0.187" stroke="hsl(120.0,100%,35%)" stroke-width="0.00319"></path>
<path d="M1.645 0.806 Q2.079 0.520 1.616 0.246" stroke="hsl(120.0,100%,35%)" stroke-width="0.00780"></path>
<path d="M1.645 0.806 Q1.798 0.839 1.894 0.771" stroke="hsl(120.0,100%,35%)" stroke-width="0.00064"></path>
<path d="M1.645 0.806 Q1.512 0.750 1.375 0.803" stroke="hsl(120.0,100%,35%)" stroke-width="0.00430"></path>
<path d="M1.645 0.806 Q1.166 0.465 0.395 0.624" stroke="hsl(120.0,100%,35%)" stroke-width="0.00111"></path>
<path d="M1.645 0.806 Q1.385 0.422 0.578 0.464" stroke="hsl(120.0,100%,35%)" stroke-width="0.00159"></path>
<path d="M1.645 0.806 Q1.036 0.398 0.107 0.606" stroke="hsl(120.0,100%,35%)" stroke-width="0.00111"></path>
<path d="M1.645 0.806 Q1.602 0.675 1.337 0.668" stroke="hsl(120.0,100%,35%)" stroke-width="0.00223"></path>
<path d="M1.645 0.806 Q1.978 0.662 1.770 0.468" stroke="hsl(120.0,100%,35%)" stroke-width="0.00016"></path>
<path d="M1.645 0.806 Q0.989 0.481 0.212 0.730" stroke="hsl(120.0,100%,35%)" stroke-width="0.00048"></path>
<path d="M1.645 0.806 Q1.659 0.895 1.836 0.908" stroke="hsl(120.0,100%,35%)" stroke-width="0.00016"></path>
<path d="M1.645 0.806 Q1.448 0.784 1.361 0.875" stroke="hsl(120.0,100%,35%)" stroke-width="0.00239"></path>
<path d="M1.645 0.806 Q2.075 0.349 1.277 0.038" stroke="hsl(120.0,100%,35%)" stroke-width="0.00032"></path>
<path d="M1.645 0.806 Q1.986 0.405 1.278 0.150" stroke="hsl(120.0,100%,35%)" stroke-width="0.00064"></path>
<path d="M1.645 0.806 Q1.351 0.729 1.137 0.855" stroke="hsl(120.0,100%,35%)" stroke-width="0.00016"></path>
<path d="M1.645 0.806 Q1.517 0.598 1.083 0.614" stroke="hsl(120.0,100%,35%)" stroke-width="0.00016"></path>
<path d="M1.469 0.946 Q1.747 0.836 1.594 0.677" stroke="hsl(120.0,100%,35%)" stroke-width="0.00016"></path>
<path d="M1.469 0.946 Q1.888 0.812 1.719 0.578" stroke="hsl(120.0,100%,35%)" stroke-width="0.00191"></path>
<path d="M1.469 0.946 Q2.285 0.650 1.888 0.187" stroke="hsl(120.0,100%,35%)" stroke-width="0.00016"></path>
<path d="M1.469 0.946 Q1.552 1.000 1.677 0.972" stroke="hsl(120.0,100%,35%)" stroke-width="0.00271"></path>
<path d="M1.469 0.946 Q1.668 0.911 1.645 0.806" stroke="hsl(120.0,100%,35%)" stroke-width="0.00064"></path>
<path d="M1.469 0.946 Q1.625 0.781 1.337 0.668" stroke="hsl(120.0,100%,35%)" stroke-width="0.00048"></path>
<path d="M1.469 0.946 Q1.256 0.772 0.871 0.838" stroke="hsl(120.0,100%,35%)" stroke-width="0.00016"></path>
<path d="M1.469 0.946 Q1.536 0.856 1.375 0.803" stroke="hsl(120.0,100%,35%)" stroke-width="0.00016"></path>
<path d="M1.469 0.946 Q2.102 0.625 1.616 0.246" stroke="hsl(120.0,100%,35%)" stroke-width="0.00016"></path>
<path d="M1.469 0.946 Q1.682 1.000 1.836 0.908" stroke="hsl(120.0,100%,35%)" stroke-width="0.00016"></path>
<path d="M1.469 0.946 Q1.165 0.853 0.918 0.981" stroke="hsl(120.0,100%,35%)" stroke-width="0.00016"></path>
<path d="M1.469 0.946 Q1.375 0.834 1.137 0.855" stroke="hsl(120.0,100%,35%)" stroke-width="0.00016"></path>
<path d="M1.888 0.187 Q1.705 0.162 1.616 0.246" stroke="hsl(240.0,100%,35%)" stroke-width="0.00733"></path>
<path d="M1.888 0.187 Q1.603 0.304 1.770 0.468" stroke="hsl(240.0,100%,35%)" stroke-width="0.00032"></path>
<path d="M1.888 0.187 Q0.768 0.390 0.918 0.981" stroke="hsl(240.0,100%,35%)" stroke-width="0.00064"></path>
<path d="M1.888 0.187 Q1.011 0.064 0.578 0.464" stroke="hsl(240.0,100%,35%)" stroke-width="0.00414"></path>
<path d="M1.888 0.187 Q1.227 0.317 1.337 0.668" stroke="hsl(240.0,100%,35%)" stroke-width="0.00366"></path>
<path d="M1.888 0.187 Q0.858 0.309 0.871 0.838" stroke="hsl(240.0,100%,35%)" stroke-width="0.00637"></path>
<path d="M1.888 0.187 Q1.113 0.138 0.848 0.505" stroke="hsl(240.0,100%,35%)" stroke-width="0.00143"></path>
<path d="M1.888 0.187 Q1.154 0.537 1.677 0.972" stroke="hsl(240.0,100%,35%)" stroke-width="0.00016"></path>
<path d="M1.888 0.187 Q1.271 0.448 1.645 0.806" stroke="hsl(240.0,100%,35%)" stroke-width="0.00016"></path>
<path d="M1.888 0.187 Q1.524 0.145 1.362 0.313" stroke="hsl(240.0,100%,35%)" stroke-width="0.00096"></path>
<path d="M1.888 0.187 Q0.615 0.123 0.212 0.730" stroke="hsl(240.0,100%,35%)" stroke-width="0.00032"></path>
<path d="M1.888 0.187 Q1.285 0.537 1.836 0.908" stroke="hsl(240.0,100%,35%)" stroke-width="0.00016"></path>
<path d="M1.888 0.187 Q1.349 0.373 1.594 0.677" stroke="hsl(240.0,100%,35%)" stroke-width="0.00016"></path>
<path d="M1.888 0.187 Q0.977 0.371 1.137 0.855" stroke="hsl(240.0,100%,35%)" stroke-width="0.00080"></path>
<path d="M1.888 0.187 Q1.417 0.174 1.289 0.400" stroke="hsl(240.0,100%,35%)" stroke-width="0.00048"></path>
<path d="M1.888 0.187 Q1.612 0.046 1.278 0.150" stroke="hsl(240.0,100%,35%)" stroke-width="0.00016"></path>
<path d="M1.888 0.187 Q1.028 0.223 0.910 0.651" stroke="hsl(240.0,100%,35%)" stroke-width="0.00048"></path>
<path d="M0.918 0.981 Q1.499 0.964 1.594 0.677" stroke="hsl(120.0,100%,35%)" stroke-width="0.01210"></path>
<path d="M0.918 0.981 Q1.855 0.753 1.616 0.246" stroke="hsl(120.0,100%,35%)" stroke-width="0.00175"></path>
<path d="M0.918 0.981 Q0.812 0.631 0.107 0.606" stroke="hsl(120.0,100%,35%)" stroke-width="0.00175"></path>
<path d="M0.918 0.981 Q0.766 0.714 0.212 0.730" stroke="hsl(120.0,100%,35%)" stroke-width="0.00127"></path>
<path d="M0.918 0.981 Q1.674 0.735 1.362 0.313" stroke="hsl(120.0,100%,35%)" stroke-width="0.00080"></path>
<path d="M0.918 0.981 Q1.641 0.939 1.719 0.578" stroke="hsl(120.0,100%,35%)" stroke-width="0.00016"></path>
<path d="M0.918 0.981 Q1.421 1.039 1.645 0.806" stroke="hsl(120.0,100%,35%)" stroke-width="0.00096"></path>
<path d="M0.918 0.981 Q1.378 0.908 1.337 0.668" stroke="hsl(120.0,100%,35%)" stroke-width="0.00080"></path>
<path d="M0.918 0.981 Q1.263 0.729 0.848 0.505" stroke="hsl(120.0,100%,35%)" stroke-width="0.00016"></path>
<path d="M0.918 0.981 Q0.751 0.883 0.523 0.943" stroke="hsl(120.0,100%,35%)" stroke-width="0.00048"></path>
<path d="M0.918 0.981 Q0.942 0.697 0.395 0.624" stroke="hsl(120.0,100%,35%)" stroke-width="0.00016"></path>
<path d="M0.918 0.981 Q1.009 0.900 0.871 0.838" stroke="hsl(120.0,100%,35%)" stroke-width="0.00032"></path>
<path d="M0.918 0.981 Q0.985 0.930 0.902 0.887" stroke="hsl(120.0,100%,35%)" stroke-width="0.00032"></path>
<path d="M0.918 0.981 Q1.161 0.655 0.578 0.464" stroke="hsl(120.0,100%,35%)" stroke-width="0.00048"></path>
<path d="M0.918 0.981 Q1.435 1.128 1.836 0.908" stroke="hsl(120.0,100%,35%)" stroke-width="0.00048"></path>
<path d="M0.918 0.981 Q1.762 0.637 1.278 0.150" stroke="hsl(120.0,100%,35%)" stroke-width="0.00143"></path>
<path d="M0.918 0.981 Q0.944 0.926 0.842 0.901" stroke="hsl(120.0,100%,35%)" stroke-width="0.00016"></path>
<path d="M0.902 0.887 Q1.416 0.920 1.594 0.677" stroke="hsl(120.0,100%,35%)" stroke-width="0.00048"></path>
<path d="M0.902 0.887 Q0.835 0.937 0.918 0.981" stroke="hsl(120.0,100%,35%)" stroke-width="0.00334"></path>
<path d="M0.902 0.887 Q1.772 0.709 1.616 0.246" stroke="hsl(120.0,100%,35%)" stroke-width="0.00080"></path>
<path d="M0.902 0.887 Q0.682 0.670 0.212 0.730" stroke="hsl(120.0,100%,35%)" stroke-width="0.00016"></path>
<path d="M0.902 0.887 Q1.591 0.692 1.362 0.313" stroke="hsl(120.0,100%,35%)" stroke-width="0.00239"></path>
<path d="M0.902 0.887 Q0.949 0.530 0.264 0.429" stroke="hsl(120.0,100%,35%)" stroke-width="0.00016"></path>
<path d="M0.902 0.887 Q1.679 0.594 1.278 0.150" stroke="hsl(120.0,100%,35%)" stroke-width="0.00080"></path>
<path d="M0.902 0.887 Q1.338 0.995 1.645 0.806" stroke="hsl(120.0,100%,35%)" stroke-width="0.00048"></path>
<path d="M0.902 0.887 Q0.729 0.587 0.107 0.606" stroke="hsl(120.0,100%,35%)" stroke-width="0.00032"></path>
<path d="M0.578 0.464 Q0.183 0.524 0.212 0.730" stroke="hsl(240.0,100%,35%)" stroke-width="0.00032"></path>
<path d="M0.578 0.464 Q1.058 0.749 1.719 0.578" stroke="hsl(240.0,100%,35%)" stroke-width="0.00016"></path>
<path d="M0.578 0.464 Q0.838 0.849 1.645 0.806" stroke="hsl(240.0,100%,35%)" stroke-width="0.00080"></path>
<path d="M0.578 0.464 Q0.638 0.883 1.469 0.946" stroke="hsl(240.0,100%,35%)" stroke-width="0.00016"></path>
<path d="M0.578 0.464 Q0.359 0.507 0.395 0.624" stroke="hsl(240.0,100%,35%)" stroke-width="0.00032"></path>
<path d="M0.578 0.464 Q1.455 0.587 1.888 0.187" stroke="hsl(240.0,100%,35%)" stroke-width="0.00350"></path>
<path d="M0.578 0.464 Q1.272 0.563 1.616 0.246" stroke="hsl(240.0,100%,35%)" stroke-width="0.00032"></path>
<path d="M0.578 0.464 Q0.680 0.539 0.848 0.505" stroke="hsl(240.0,100%,35%)" stroke-width="0.00844"></path>
<path d="M0.578 0.464 Q0.795 0.718 1.337 0.668" stroke="hsl(240.0,100%,35%)" stroke-width="0.00526"></path>
<path d="M0.578 0.464 Q0.426 0.709 0.871 0.838" stroke="hsl(240.0,100%,35%)" stroke-width="0.00398"></path>
<path d="M0.578 0.464 Q0.545 0.772 1.137 0.855" stroke="hsl(240.0,100%,35%)" stroke-width="0.00191"></path>
<path d="M0.578 0.464 Q0.335 0.790 0.918 0.981" stroke="hsl(240.0,100%,35%)" stroke-width="0.00032"></path>
<path d="M0.578 0.464 Q0.985 0.574 1.289 0.400" stroke="hsl(240.0,100%,35%)" stroke-width="0.00016"></path>
<path d="M0.578 0.464 Q0.722 0.938 1.677 0.972" stroke="hsl(240.0,100%,35%)" stroke-width="0.00016"></path>
<path d="M0.578 0.464 Q1.180 0.447 1.278 0.150" stroke="hsl(240.0,100%,35%)" stroke-width="0.00016"></path>
<path d="M0.848 0.505 Q1.622 0.554 1.888 0.187" stroke="hsl(240.0,100%,35%)" stroke-width="0.00223"></path>
<path d="M0.848 0.505 Q1.084 0.740 1.594 0.677" stroke="hsl(240.0,100%,35%)" stroke-width="0.00127"></path>
<path d="M0.848 0.505 Q0.746 0.431 0.578 0.464" stroke="hsl(240.0,100%,35%)" stroke-width="0.01417"></path>
<path d="M0.848 0.505 Q0.962 0.684 1.337 0.668" stroke="hsl(240.0,100%,35%)" stroke-width="0.00541"></path>
<path d="M0.848 0.505 Q1.338 0.671 1.770 0.468" stroke="hsl(240.0,100%,35%)" stroke-width="0.00016"></path>
<path d="M0.848 0.505 Q0.503 0.757 0.918 0.981" stroke="hsl(240.0,100%,35%)" stroke-width="0.00048"></path>
<path d="M0.848 0.505 Q1.006 0.815 1.645 0.806" stroke="hsl(240.0,100%,35%)" stroke-width="0.00064"></path>
<path d="M0.848 0.505 Q0.593 0.676 0.871 0.838" stroke="hsl(240.0,100%,35%)" stroke-width="0.00462"></path>
<path d="M0.848 0.505 Q1.158 0.848 1.894 0.771" stroke="hsl(240.0,100%,35%)" stroke-width="0.00048"></path>
<path d="M0.848 0.505 Q1.258 0.512 1.362 0.313" stroke="hsl(240.0,100%,35%)" stroke-width="0.00143"></path>
<path d="M0.848 0.505 Q1.440 0.529 1.616 0.246" stroke="hsl(240.0,100%,35%)" stroke-width="0.00207"></path>
<path d="M0.848 0.505 Q0.712 0.738 1.137 0.855" stroke="hsl(240.0,100%,35%)" stroke-width="0.00032"></path>
<path d="M0.848 0.505 Q1.152 0.541 1.289 0.400" stroke="hsl(240.0,100%,35%)" stroke-width="0.00016"></path>
<path d="M0.848 0.505 Q0.763 0.590 0.910 0.651" stroke="hsl(240.0,100%,35%)" stroke-width="0.00016"></path>
<path d="M1.289 0.400 Q1.576 0.388 1.616 0.246" stroke="hsl(0.0,100%,35%)" stroke-width="0.01131"></path>
<path d="M1.289 0.400 Q1.395 0.371 1.362 0.313" stroke="hsl(0.0,100%,35%)" stroke-width="0.02883"></path>
<path d="M1.289 0.400 Q1.759 0.413 1.888 0.187" stroke="hsl(0.0,100%,35%)" stroke-width="0.00064"></path>
<path d="M0.212 0.730 Q0.389 0.713 0.395 0.624" stroke="hsl(120.0,100%,35%)" stroke-width="0.00096"></path>
<path d="M0.212 0.730 Q1.121 0.751 1.362 0.313" stroke="hsl(120.0,100%,35%)" stroke-width="0.00016"></path>
<path d="M0.212 0.730 Q0.671 1.032 1.361 0.875" stroke="hsl(120.0,100%,35%)" stroke-width="0.00048"></path>
<path d="M0.212 0.730 Q0.608 0.670 0.578 0.464" stroke="hsl(120.0,100%,35%)" stroke-width="0.00016"></path>
<path d="M0.212 0.730 Q1.302 0.769 1.616 0.246" stroke="hsl(120.0,100%,35%)" stroke-width="0.00032"></path>
<path d="M0.212 0.730 Q0.455 0.915 0.871 0.838" stroke="hsl(120.0,100%,35%)" stroke-width="0.00016"></path>
<path d="M0.212 0.730 Q0.882 1.144 1.836 0.908" stroke="hsl(120.0,100%,35%)" stroke-width="0.00016"></path>
<path d="M0.897 -0.556 Q0.434 -0.029 1.362 0.313" stroke="hsl(0.0,100%,35%)" stroke-width="0.00048"></path>
<path d="M0.897 -0.556 Q0.615 -0.012 1.616 0.246" stroke="hsl(0.0,100%,35%)" stroke-width="0.00016"></path>
<path d="M1.677 0.972 Q1.807 0.972 1.836 0.908" stroke="hsl(120.0,100%,35%)" stroke-width="0.00016"></path>
<path d="M1.677 0.972 Q1.793 0.883 1.645 0.806" stroke="hsl(120.0,100%,35%)" stroke-width="0.00032"></path>
<path d="M1.677 0.972 Q2.227 0.597 1.616 0.246" stroke="hsl(120.0,100%,35%)" stroke-width="0.00016"></path>
<path d="M1.677 0.972 Q1.594 0.917 1.469 0.946" stroke="hsl(120.0,100%,35%)" stroke-width="0.00303"></path>
<path d="M1.677 0.972 Q1.138 0.558 0.212 0.730" stroke="hsl(120.0,100%,35%)" stroke-width="0.00016"></path>
<path d="M1.677 0.972 Q2.013 0.783 1.719 0.578" stroke="hsl(120.0,100%,35%)" stroke-width="0.00032"></path>
<path d="M1.677 0.972 Q2.046 0.579 1.362 0.313" stroke="hsl(120.0,100%,35%)" stroke-width="0.00032"></path>
<path d="M1.677 0.972 Q1.946 0.915 1.894 0.771" stroke="hsl(120.0,100%,35%)" stroke-width="0.00032"></path>
<path d="M1.677 0.972 Q1.381 0.743 0.871 0.838" stroke="hsl(120.0,100%,35%)" stroke-width="0.00016"></path>
<path d="M1.677 0.972 Q1.315 0.541 0.395 0.624" stroke="hsl(120.0,100%,35%)" stroke-width="0.00016"></path>
<path d="M1.677 0.972 Q1.940 0.608 1.289 0.400" stroke="hsl(120.0,100%,35%)" stroke-width="0.00016"></path>
<path d="M1.677 0.972 Q2.410 0.621 1.888 0.187" stroke="hsl(120.0,100%,35%)" stroke-width="0.00016"></path>
<path d="M1.677 0.972 Q1.533 0.498 0.578 0.464" stroke="hsl(120.0,100%,35%)" stroke-width="0.00016"></path>
<path d="M1.836 0.908 Q1.822 0.819 1.645 0.806" stroke="hsl(120.0,100%,35%)" stroke-width="0.00016"></path>
<path d="M1.836 0.908 Q1.705 0.908 1.677 0.972" stroke="hsl(120.0,100%,35%)" stroke-width="0.00080"></path>
<path d="M1.836 0.908 Q2.041 0.720 1.719 0.578" stroke="hsl(120.0,100%,35%)" stroke-width="0.00032"></path>
<path d="M1.719 0.578 Q1.752 0.374 1.362 0.313" stroke="hsl(120.0,100%,35%)" stroke-width="0.00032"></path>
<path d="M1.719 0.578 Q1.239 0.293 0.578 0.464" stroke="hsl(120.0,100%,35%)" stroke-width="0.00064"></path>
<path d="M1.719 0.578 Q1.383 0.766 1.677 0.972" stroke="hsl(120.0,100%,35%)" stroke-width="0.00143"></path>
<path d="M1.719 0.578 Q1.300 0.712 1.469 0.946" stroke="hsl(120.0,100%,35%)" stroke-width="0.00096"></path>
<path d="M1.719 0.578 Q0.997 0.619 0.918 0.981" stroke="hsl(120.0,100%,35%)" stroke-width="0.00064"></path>
<path d="M1.719 0.578 Q1.652 0.709 1.894 0.771" stroke="hsl(120.0,100%,35%)" stroke-width="0.00016"></path>
<path d="M1.719 0.578 Q1.933 0.391 1.616 0.246" stroke="hsl(120.0,100%,35%)" stroke-width="0.00016"></path>
<path d="M1.719 0.578 Q2.116 0.416 1.888 0.187" stroke="hsl(120.0,100%,35%)" stroke-width="0.00016"></path>
<path d="M1.719 0.578 Q2.007 0.265 1.460 0.056" stroke="hsl(120.0,100%,35%)" stroke-width="0.00016"></path>
<path d="M1.719 0.578 Q1.257 0.452 0.910 0.651" stroke="hsl(120.0,100%,35%)" stroke-width="0.00016"></path>
<path d="M1.719 0.578 Q1.206 0.600 1.137 0.855" stroke="hsl(120.0,100%,35%)" stroke-width="0.00016"></path>
<path d="M1.894 0.771 Q1.542 0.773 1.469 0.946" stroke="hsl(120.0,100%,35%)" stroke-width="0.00048"></path>
<path d="M1.894 0.771 Q1.962 0.639 1.719 0.578" stroke="hsl(120.0,100%,35%)" stroke-width="0.00048"></path>
<path d="M1.894 0.771 Q1.742 0.739 1.645 0.806" stroke="hsl(120.0,100%,35%)" stroke-width="0.00016"></path>
<path d="M1.894 0.771 Q1.584 0.429 0.848 0.505" stroke="hsl(120.0,100%,35%)" stroke-width="0.00032"></path>
<path d="M1.894 0.771 Q1.239 0.681 0.918 0.981" stroke="hsl(120.0,100%,35%)" stroke-width="0.00064"></path>
<path d="M1.894 0.771 Q1.609 0.683 1.375 0.803" stroke="hsl(120.0,100%,35%)" stroke-width="0.00032"></path>
<path d="M1.894 0.771 Q1.625 0.828 1.677 0.972" stroke="hsl(120.0,100%,35%)" stroke-width="0.00016"></path>
<path d="M0.871 0.838 Q1.240 0.846 1.337 0.668" stroke="hsl(240.0,100%,35%)" stroke-width="0.01433"></path>
<path d="M0.871 0.838 Q1.083 1.011 1.469 0.946" stroke="hsl(240.0,100%,35%)" stroke-width="0.00016"></path>
<path d="M0.871 0.838 Q1.023 0.593 0.578 0.464" stroke="hsl(240.0,100%,35%)" stroke-width="0.00589"></path>
<path d="M0.871 0.838 Q1.361 0.902 1.594 0.677" stroke="hsl(240.0,100%,35%)" stroke-width="0.00032"></path>
<path d="M0.871 0.838 Q1.900 0.716 1.888 0.187" stroke="hsl(240.0,100%,35%)" stroke-width="0.00239"></path>
<path d="M0.871 0.838 Q1.717 0.691 1.616 0.246" stroke="hsl(240.0,100%,35%)" stroke-width="0.00350"></path>
<path d="M0.871 0.838 Q1.125 0.667 0.848 0.505" stroke="hsl(240.0,100%,35%)" stroke-width="0.00653"></path>
<path d="M0.871 0.838 Q0.894 0.512 0.264 0.429" stroke="hsl(240.0,100%,35%)" stroke-width="0.00016"></path>
<path d="M0.871 0.838 Q1.283 0.977 1.645 0.806" stroke="hsl(240.0,100%,35%)" stroke-width="0.00048"></path>
<path d="M0.871 0.838 Q1.536 0.673 1.362 0.313" stroke="hsl(240.0,100%,35%)" stroke-width="0.00096"></path>
<path d="M0.871 0.838 Q0.780 0.919 0.918 0.981" stroke="hsl(240.0,100%,35%)" stroke-width="0.00032"></path>
<path d="M0.871 0.838 Q0.989 0.900 1.137 0.855" stroke="hsl(240.0,100%,35%)" stroke-width="0.00255"></path>
<path d="M0.871 0.838 Q1.624 0.575 1.278 0.150" stroke="hsl(240.0,100%,35%)" stroke-width="0.00127"></path>
<path d="M0.871 0.838 Q0.674 0.569 0.107 0.606" stroke="hsl(240.0,100%,35%)" stroke-width="0.00064"></path>
<path d="M0.871 0.838 Q0.627 0.652 0.212 0.730" stroke="hsl(240.0,100%,35%)" stroke-width="0.00032"></path>
<path d="M0.395 0.624 Q1.308 0.679 1.616 0.246" stroke="hsl(120.0,100%,35%)" stroke-width="0.00048"></path>
<path d="M0.395 0.624 Q0.952 0.890 1.594 0.677" stroke="hsl(120.0,100%,35%)" stroke-width="0.00016"></path>
<path d="M0.395 0.624 Q0.219 0.640 0.212 0.730" stroke="hsl(120.0,100%,35%)" stroke-width="0.00143"></path>
<path d="M0.395 0.624 Q1.127 0.662 1.362 0.313" stroke="hsl(120.0,100%,35%)" stroke-width="0.00016"></path>
<path d="M0.395 0.624 Q1.491 0.704 1.888 0.187" stroke="hsl(120.0,100%,35%)" stroke-width="0.00016"></path>
<path d="M0.395 0.624 Q0.674 0.999 1.469 0.946" stroke="hsl(120.0,100%,35%)" stroke-width="0.00048"></path>
<path d="M0.395 0.624 Q0.614 0.581 0.578 0.464" stroke="hsl(120.0,100%,35%)" stroke-width="0.00080"></path>
<path d="M0.395 0.624 Q0.888 1.054 1.836 0.908" stroke="hsl(120.0,100%,35%)" stroke-width="0.00016"></path>
<path d="M0.395 0.624 Q0.874 0.965 1.645 0.806" stroke="hsl(120.0,100%,35%)" stroke-width="0.00048"></path>
<path d="M0.395 0.624 Q0.757 1.054 1.677 0.972" stroke="hsl(120.0,100%,35%)" stroke-width="0.00016"></path>
<path d="M0.395 0.624 Q0.455 0.576 0.375 0.536" stroke="hsl(120.0,100%,35%)" stroke-width="0.00016"></path>
<path d="M1.594 0.677 Q1.473 0.621 1.337 0.668" stroke="hsl(240.0,100%,35%)" stroke-width="0.01943"></path>
<path d="M1.594 0.677 Q1.950 0.466 1.616 0.246" stroke="hsl(240.0,100%,35%)" stroke-width="0.01083"></path>
<path d="M1.594 0.677 Q1.769 0.448 1.362 0.313" stroke="hsl(240.0,100%,35%)" stroke-width="0.00080"></path>
<path d="M1.594 0.677 Q1.013 0.693 0.918 0.981" stroke="hsl(240.0,100%,35%)" stroke-width="0.00589"></path>
<path d="M1.594 0.677 Q1.399 0.841 1.677 0.972" stroke="hsl(240.0,100%,35%)" stroke-width="0.00016"></path>
<path d="M1.594 0.677 Q1.104 0.612 0.871 0.838" stroke="hsl(240.0,100%,35%)" stroke-width="0.00080"></path>
<path d="M1.594 0.677 Q1.358 0.442 0.848 0.505" stroke="hsl(240.0,100%,35%)" stroke-width="0.00016"></path>
<path d="M1.594 0.677 Q1.849 0.607 1.770 0.468" stroke="hsl(240.0,100%,35%)" stroke-width="0.00016"></path>
<path d="M1.594 0.677 Q1.516 0.751 1.645 0.806" stroke="hsl(240.0,100%,35%)" stroke-width="0.00064"></path>
<path d="M1.594 0.677 Q1.256 0.367 0.578 0.464" stroke="hsl(240.0,100%,35%)" stroke-width="0.00143"></path>
<path d="M1.594 0.677 Q2.133 0.490 1.888 0.187" stroke="hsl(240.0,100%,35%)" stroke-width="0.00048"></path>
<path d="M1.594 0.677 Q1.663 0.477 1.289 0.400" stroke="hsl(240.0,100%,35%)" stroke-width="0.00016"></path>
<path d="M1.594 0.677 Q1.857 0.350 1.278 0.150" stroke="hsl(240.0,100%,35%)" stroke-width="0.00191"></path>
<path d="M1.594 0.677 Q1.223 0.675 1.137 0.855" stroke="hsl(240.0,100%,35%)" stroke-width="0.00032"></path>
<path d="M1.594 0.677 Q1.737 0.629 1.676 0.549" stroke="hsl(240.0,100%,35%)" stroke-width="0.00016"></path>
<path d="M0.264 0.429 Q1.087 0.608 1.616 0.246" stroke="hsl(120.0,100%,35%)" stroke-width="0.00032"></path>
<path d="M0.264 0.429 Q0.044 0.486 0.107 0.606" stroke="hsl(120.0,100%,35%)" stroke-width="0.00621"></path>
<path d="M0.264 0.429 Q0.653 0.894 1.645 0.806" stroke="hsl(120.0,100%,35%)" stroke-width="0.00096"></path>
<path d="M0.264 0.429 Q1.270 0.633 1.888 0.187" stroke="hsl(120.0,100%,35%)" stroke-width="0.00032"></path>
<path d="M0.264 0.429 Q0.150 0.836 0.918 0.981" stroke="hsl(120.0,100%,35%)" stroke-width="0.00032"></path>
<path d="M1.337 0.668 Q1.121 0.414 0.578 0.464" stroke="hsl(240.0,100%,35%)" stroke-width="0.00605"></path>
<path d="M1.337 0.668 Q0.968 0.659 0.871 0.838" stroke="hsl(240.0,100%,35%)" stroke-width="0.02293"></path>
<path d="M1.337 0.668 Q1.815 0.513 1.616 0.246" stroke="hsl(240.0,100%,35%)" stroke-width="0.00239"></path>
<path d="M1.337 0.668 Q1.264 0.888 1.677 0.972" stroke="hsl(240.0,100%,35%)" stroke-width="0.00111"></path>
<path d="M1.337 0.668 Q1.181 0.833 1.469 0.946" stroke="hsl(240.0,100%,35%)" stroke-width="0.00032"></path>
<path d="M1.337 0.668 Q1.459 0.724 1.594 0.677" stroke="hsl(240.0,100%,35%)" stroke-width="0.00016"></path>
<path d="M1.337 0.668 Q1.223 0.489 0.848 0.505" stroke="hsl(240.0,100%,35%)" stroke-width="0.00733"></path>
<path d="M1.337 0.668 Q1.634 0.495 1.362 0.313" stroke="hsl(240.0,100%,35%)" stroke-width="0.00032"></path>
<path d="M1.337 0.668 Q1.087 0.722 1.137 0.855" stroke="hsl(240.0,100%,35%)" stroke-width="0.00096"></path>
<path d="M1.337 0.668 Q1.997 0.537 1.888 0.187" stroke="hsl(240.0,100%,35%)" stroke-width="0.00239"></path>
<path d="M1.337 0.668 Q1.381 0.798 1.645 0.806" stroke="hsl(240.0,100%,35%)" stroke-width="0.00016"></path>
<path d="M1.337 0.668 Q0.772 0.391 0.107 0.606" stroke="hsl(240.0,100%,35%)" stroke-width="0.00064"></path>
<path d="M1.337 0.668 Q0.945 0.690 0.902 0.887" stroke="hsl(240.0,100%,35%)" stroke-width="0.00016"></path>
<path d="M1.337 0.668 Q0.878 0.740 0.918 0.981" stroke="hsl(240.0,100%,35%)" stroke-width="0.00032"></path>
<path d="M1.337 0.668 Q1.722 0.397 1.278 0.150" stroke="hsl(240.0,100%,35%)" stroke-width="0.00016"></path>
<path d="M1.361 0.875 Q1.558 0.897 1.645 0.806" stroke="hsl(120.0,100%,35%)" stroke-width="0.00080"></path>
<path d="M1.361 0.875 Q0.902 0.573 0.212 0.730" stroke="hsl(120.0,100%,35%)" stroke-width="0.00143"></path>
<path d="M1.361 0.875 Q1.992 0.611 1.616 0.246" stroke="hsl(120.0,100%,35%)" stroke-width="0.00016"></path>
<path d="M1.361 0.875 Q1.079 0.556 0.395 0.624" stroke="hsl(120.0,100%,35%)" stroke-width="0.00064"></path>
<path d="M1.361 0.875 Q2.175 0.636 1.888 0.187" stroke="hsl(120.0,100%,35%)" stroke-width="0.00032"></path>
<path d="M1.137 0.855 Q1.018 0.793 0.871 0.838" stroke="hsl(240.0,100%,35%)" stroke-width="0.00812"></path>
<path d="M1.137 0.855 Q1.170 0.548 0.578 0.464" stroke="hsl(240.0,100%,35%)" stroke-width="0.00541"></path>
<path d="M1.137 0.855 Q1.273 0.622 0.848 0.505" stroke="hsl(240.0,100%,35%)" stroke-width="0.00191"></path>
<path d="M1.137 0.855 Q1.042 0.468 0.264 0.429" stroke="hsl(240.0,100%,35%)" stroke-width="0.00016"></path>
<path d="M1.137 0.855 Q1.387 0.802 1.337 0.668" stroke="hsl(240.0,100%,35%)" stroke-width="0.00303"></path>
<path d="M1.137 0.855 Q1.864 0.646 1.616 0.246" stroke="hsl(240.0,100%,35%)" stroke-width="0.00191"></path>
<path d="M1.137 0.855 Q1.509 0.858 1.594 0.677" stroke="hsl(240.0,100%,35%)" stroke-width="0.00048"></path>
<path d="M1.137 0.855 Q2.047 0.671 1.888 0.187" stroke="hsl(240.0,100%,35%)" stroke-width="0.00908"></path>
<path d="M1.137 0.855 Q0.775 0.608 0.212 0.730" stroke="hsl(240.0,100%,35%)" stroke-width="0.00016"></path>
<path d="M1.137 0.855 Q1.683 0.629 1.362 0.313" stroke="hsl(240.0,100%,35%)" stroke-width="0.00111"></path>
<path d="M1.137 0.855 Q0.927 0.874 0.918 0.981" stroke="hsl(240.0,100%,35%)" stroke-width="0.00016"></path>
<path d="M1.137 0.855 Q1.241 0.795 1.146 0.731" stroke="hsl(240.0,100%,35%)" stroke-width="0.00032"></path>
<path d="M1.137 0.855 Q1.650 0.833 1.719 0.578" stroke="hsl(240.0,100%,35%)" stroke-width="0.00016"></path>
<path d="M1.137 0.855 Q1.430 0.932 1.645 0.806" stroke="hsl(240.0,100%,35%)" stroke-width="0.00080"></path>
<path d="M1.137 0.855 Q1.188 0.708 0.910 0.651" stroke="hsl(240.0,100%,35%)" stroke-width="0.00080"></path>
<path d="M1.137 0.855 Q1.772 0.531 1.278 0.150" stroke="hsl(240.0,100%,35%)" stroke-width="0.00032"></path>
<path d="M1.137 0.855 Q1.303 0.724 1.083 0.614" stroke="hsl(240.0,100%,35%)" stroke-width="0.00064"></path>
<path d="M1.278 0.150 Q0.950 0.640 1.836 0.908" stroke="hsl(120.0,100%,35%)" stroke-width="0.00016"></path>
<path d="M1.278 0.150 Q1.015 0.477 1.594 0.677" stroke="hsl(120.0,100%,35%)" stroke-width="0.00064"></path>
<path d="M1.278 0.150 Q0.328 0.144 0.107 0.606" stroke="hsl(120.0,100%,35%)" stroke-width="0.00287"></path>
<path d="M1.278 0.150 Q1.553 0.290 1.888 0.187" stroke="hsl(120.0,100%,35%)" stroke-width="0.00032"></path>
<path d="M1.278 0.150 Q1.136 0.113 1.034 0.175" stroke="hsl(120.0,100%,35%)" stroke-width="0.00016"></path>
<path d="M1.278 0.150 Q0.809 0.343 1.083 0.614" stroke="hsl(120.0,100%,35%)" stroke-width="0.00016"></path>
<path d="M1.278 0.150 Q1.370 0.266 1.616 0.246" stroke="hsl(120.0,100%,35%)" stroke-width="0.00159"></path>
<path d="M1.278 0.150 Q1.189 0.248 1.362 0.313" stroke="hsl(120.0,100%,35%)" stroke-width="0.00032"></path>
<path d="M1.278 0.150 Q0.524 0.412 0.871 0.838" stroke="hsl(120.0,100%,35%)" stroke-width="0.00016"></path>
<path d="M1.278 0.150 Q0.936 0.552 1.645 0.806" stroke="hsl(120.0,100%,35%)" stroke-width="0.00064"></path>
<path d="M1.278 0.150 Q0.433 0.493 0.918 0.981" stroke="hsl(120.0,100%,35%)" stroke-width="0.00064"></path>
<path d="M1.278 0.150 Q1.367 0.094 1.277 0.038" stroke="hsl(120.0,100%,35%)" stroke-width="0.00064"></path>
<path d="M1.278 0.150 Q1.254 0.045 1.043 0.034" stroke="hsl(120.0,100%,35%)" stroke-width="0.00016"></path>
<path d="M1.278 0.150 Q0.643 0.475 1.137 0.855" stroke="hsl(120.0,100%,35%)" stroke-width="0.00016"></path>
<path d="M0.107 0.606 Q1.150 0.728 1.616 0.246" stroke="hsl(120.0,100%,35%)" stroke-width="0.00143"></path>
<path d="M0.107 0.606 Q0.327 0.549 0.264 0.429" stroke="hsl(120.0,100%,35%)" stroke-width="0.00526"></path>
<path d="M0.107 0.606 Q0.716 1.013 1.645 0.806" stroke="hsl(120.0,100%,35%)" stroke-width="0.00111"></path>
<path d="M0.107 0.606 Q0.456 0.629 0.578 0.464" stroke="hsl(120.0,100%,35%)" stroke-width="0.00016"></path>
<path d="M0.107 0.606 Q1.332 0.752 1.888 0.187" stroke="hsl(120.0,100%,35%)" stroke-width="0.00064"></path>
<path d="M0.107 0.606 Q0.213 0.955 0.918 0.981" stroke="hsl(120.0,100%,35%)" stroke-width="0.00223"></path>
<path d="M0.107 0.606 Q0.060 0.689 0.212 0.730" stroke="hsl(120.0,100%,35%)" stroke-width="0.00032"></path>
<path d="M0.107 0.606 Q0.303 0.874 0.871 0.838" stroke="hsl(120.0,100%,35%)" stroke-width="0.00016"></path>
<path d="M0.107 0.606 Q0.588 0.805 1.083 0.614" stroke="hsl(120.0,100%,35%)" stroke-width="0.00032"></path>
<path d="M0.107 0.606 Q1.057 0.612 1.278 0.150" stroke="hsl(120.0,100%,35%)" stroke-width="0.00080"></path>
<path d="M0.107 0.606 Q0.969 0.710 1.362 0.313" stroke="hsl(120.0,100%,35%)" stroke-width="0.00016"></path>
<path d="M0.107 0.606 Q0.237 0.672 0.395 0.624" stroke="hsl(120.0,100%,35%)" stroke-width="0.00016"></path>
<path d="M0.523 0.943 Q0.690 1.041 0.918 0.981" stroke="hsl(120.0,100%,35%)" stroke-width="0.00430"></path>
<path d="M0.523 0.943 Q0.538 0.774 0.212 0.730" stroke="hsl(120.0,100%,35%)" stroke-width="0.00032"></path>
<path d="M0.523 0.943 Q1.272 1.024 1.594 0.677" stroke="hsl(120.0,100%,35%)" stroke-width="0.00016"></path>
<path d="M0.523 0.943 Q0.585 0.691 0.107 0.606" stroke="hsl(120.0,100%,35%)" stroke-width="0.00016"></path>
<path d="M1.355 0.523 Q1.526 0.419 1.362 0.313" stroke="hsl(240.0,100%,35%)" stroke-width="0.00016"></path>
<path d="M1.355 0.523 Q1.013 0.338 0.578 0.464" stroke="hsl(240.0,100%,35%)" stroke-width="0.00016"></path>
<path d="M1.355 0.523 Q1.230 0.592 1.337 0.668" stroke="hsl(240.0,100%,35%)" stroke-width="0.00016"></path>
<path d="M1.355 0.523 Q1.890 0.461 1.888 0.187" stroke="hsl(240.0,100%,35%)" stroke-width="0.00016"></path>
<path d="M1.355 0.523 Q1.352 0.647 1.594 0.677" stroke="hsl(240.0,100%,35%)" stroke-width="0.00016"></path>
<path d="M1.375 0.803 Q1.507 0.859 1.645 0.806" stroke="hsl(120.0,100%,35%)" stroke-width="0.00048"></path>
<path d="M1.375 0.803 Q1.727 0.759 1.719 0.578" stroke="hsl(120.0,100%,35%)" stroke-width="0.00064"></path>
<path d="M1.375 0.803 Q1.095 0.719 0.871 0.838" stroke="hsl(120.0,100%,35%)" stroke-width="0.00016"></path>
<path d="M1.375 0.803 Q1.391 0.948 1.677 0.972" stroke="hsl(120.0,100%,35%)" stroke-width="0.00032"></path>
<path d="M1.375 0.803 Q1.941 0.573 1.616 0.246" stroke="hsl(120.0,100%,35%)" stroke-width="0.00016"></path>
<path d="M1.375 0.803 Q0.852 0.534 0.212 0.730" stroke="hsl(120.0,100%,35%)" stroke-width="0.00016"></path>
<path d="M1.375 0.803 Q1.004 0.800 0.918 0.981" stroke="hsl(120.0,100%,35%)" stroke-width="0.00016"></path>
<path d="M1.091 0.532 Q1.401 0.476 1.362 0.313" stroke="hsl(240.0,100%,35%)" stroke-width="0.00048"></path>
<path d="M1.091 0.532 Q1.105 0.649 1.337 0.668" stroke="hsl(240.0,100%,35%)" stroke-width="0.00064"></path>
<path d="M1.091 0.532 Q1.148 0.780 1.645 0.806" stroke="hsl(240.0,100%,35%)" stroke-width="0.00048"></path>
<path d="M1.091 0.532 Q0.888 0.395 0.578 0.464" stroke="hsl(240.0,100%,35%)" stroke-width="0.00032"></path>
<path d="M1.091 0.532 Q0.990 0.470 0.848 0.505" stroke="hsl(240.0,100%,35%)" stroke-width="0.00032"></path>
<path d="M1.153 0.972 Q1.271 0.603 0.578 0.464" stroke="hsl(120.0,100%,35%)" stroke-width="0.00016"></path>
<path d="M1.153 0.972 Q1.531 0.987 1.645 0.806" stroke="hsl(120.0,100%,35%)" stroke-width="0.00016"></path>
<path d="M1.153 0.972 Q1.028 0.929 0.918 0.981" stroke="hsl(120.0,100%,35%)" stroke-width="0.00016"></path>
<path d="M1.153 0.972 Q1.872 0.586 1.278 0.150" stroke="hsl(120.0,100%,35%)" stroke-width="0.00016"></path>
<path d="M0.827 0.357 Q1.310 0.459 1.616 0.246" stroke="hsl(240.0,100%,35%)" stroke-width="0.00032"></path>
<path d="M0.827 0.357 Q0.373 0.687 0.918 0.981" stroke="hsl(240.0,100%,35%)" stroke-width="0.00016"></path>
<path d="M0.827 0.357 Q0.616 0.361 0.578 0.464" stroke="hsl(240.0,100%,35%)" stroke-width="0.00032"></path>
<path d="M0.724 0.931 Q0.629 0.728 0.212 0.730" stroke="hsl(120.0,100%,35%)" stroke-width="0.00032"></path>
<path d="M0.724 0.931 Q0.781 0.995 0.918 0.981" stroke="hsl(120.0,100%,35%)" stroke-width="0.00048"></path>
<path d="M0.724 0.931 Q1.363 0.978 1.594 0.677" stroke="hsl(120.0,100%,35%)" stroke-width="0.00016"></path>
</g>
<text x="1.770" y="0.458" font-size="0.021127" fill="hsl(0.0,100%,20%)">armansito</text>
<text x="1.362" y="0.273" font-size="0.080567" fill="hsl(0.0,100%,20%)">johnstiles</text>
<text x="1.616" y="0.207" font-size="0.077930" fill="hsl(0.0,100%,20%)">brianosman</text>
<text x="1.645" y="0.783" font-size="0.047090" fill="hsl(120.0,100%,20%)">kjlubick</text>
<text x="1.469" y="0.934" font-size="0.023266" fill="hsl(120.0,100%,20%)">rmistry</text>
<text x="1.888" y="0.164" font-size="0.044764" fill="hsl(240.0,100%,20%)">bsalomon</text>
<text x="0.918" y="0.960" font-size="0.041345" fill="hsl(120.0,100%,20%)">bungeman</text>
<text x="0.902" y="0.878" font-size="0.018101" fill="hsl(120.0,100%,20%)">jlavrova</text>
<text x="0.578" y="0.441" font-size="0.046837" fill="hsl(240.0,100%,20%)">egdaniel</text>
<text x="0.848" y="0.484" font-size="0.043308" fill="hsl(240.0,100%,20%)">jvanverth</text>
<text x="1.289" y="0.377" font-size="0.045709" fill="hsl(0.0,100%,20%)">ethannicholas</text>
<text x="0.212" y="0.721" font-size="0.018745" fill="hsl(120.0,100%,20%)">djsollen</text>
<text x="0.897" y="-0.559" font-size="0.004873" fill="hsl(0.0,100%,20%)">bajones</text>
<text x="1.677" y="0.960" font-size="0.023570" fill="hsl(120.0,100%,20%)">borenet</text>
<text x="1.836" y="0.903" font-size="0.009986" fill="hsl(120.0,100%,20%)">hcm</text>
<text x="1.719" y="0.567" font-size="0.021350" fill="hsl(120.0,100%,20%)">jcgregorio</text>
<text x="1.894" y="0.765" font-size="0.011531" fill="hsl(120.0,100%,20%)">erikrose</text>
<text x="0.871" y="0.810" font-size="0.054302" fill="hsl(240.0,100%,20%)">michaelludwig</text>
<text x="0.395" y="0.615" font-size="0.017836" fill="hsl(120.0,100%,20%)">scroggo</text>
<text x="1.594" y="0.655" font-size="0.044015" fill="hsl(240.0,100%,20%)">herb</text>
<text x="0.264" y="0.418" font-size="0.022115" fill="hsl(120.0,100%,20%)">jmbetancourt</text>
<text x="1.337" y="0.640" font-size="0.055684" fill="hsl(240.0,100%,20%)">robertphillips</text>
<text x="1.361" y="0.868" font-size="0.013782" fill="hsl(120.0,100%,20%)">nifong</text>
<text x="1.137" y="0.838" font-size="0.035806" fill="hsl(240.0,100%,20%)">csmartdalton</text>
<text x="1.278" y="0.138" font-size="0.024749" fill="hsl(120.0,100%,20%)">reed</text>
<text x="0.107" y="0.591" font-size="0.028495" fill="hsl(120.0,100%,20%)">fmalita</text>
<text x="1.460" y="0.053" font-size="0.004873" fill="hsl(0.0,100%,20%)">mtklein</text>
<text x="0.910" y="0.647" font-size="0.006891" fill="hsl(240.0,100%,20%)">adlai</text>
<text x="1.931" y="2.571" font-size="0.002179" fill="hsl(240.0,100%,20%)">stani</text>
<text x="0.523" y="0.937" font-size="0.012706" fill="hsl(120.0,100%,20%)">drott</text>
<text x="0.842" y="0.900" font-size="0.002179" fill="hsl(120.0,100%,20%)">grieger</text>
<text x="1.146" y="0.730" font-size="0.003082" fill="hsl(240.0,100%,20%)">junov</text>
<text x="1.083" y="0.611" font-size="0.006537" fill="hsl(240.0,100%,20%)">tdenniston</text>
<text x="1.355" y="0.520" font-size="0.004873" fill="hsl(240.0,100%,20%)">emaxx</text>
<text x="1.375" y="0.796" font-size="0.014289" fill="hsl(120.0,100%,20%)">lovisolo</text>
<text x="1.676" y="0.548" font-size="0.002179" fill="hsl(240.0,100%,20%)">jiulongw</text>
<text x="1.091" y="0.527" font-size="0.008716" fill="hsl(240.0,100%,20%)">jamesgk</text>
<text x="1.318" y="0.160" font-size="0.002179" fill="hsl(0.0,100%,20%)">wrightgeorge</text>
<text x="1.277" y="0.036" font-size="0.005338" fill="hsl(120.0,100%,20%)">yjbanov</text>
<text x="1.153" y="0.969" font-size="0.004358" fill="hsl(120.0,100%,20%)">pkasting</text>
<text x="1.034" y="0.173" font-size="0.002179" fill="hsl(120.0,100%,20%)">whesse</text>
<text x="1.043" y="0.032" font-size="0.002179" fill="hsl(120.0,100%,20%)">mdebbar</text>
<text x="0.375" y="0.535" font-size="0.002179" fill="hsl(120.0,100%,20%)">nigeltao</text>
<text x="0.827" y="0.354" font-size="0.004873" fill="hsl(240.0,100%,20%)">sergeyu</text>
<text x="0.724" y="0.928" font-size="0.005338" fill="hsl(120.0,100%,20%)">thestig</text>
</svg>
