<svg width="4000" height="2000" viewBox="-0.025 -0.025 2.05 1.05" xmlns="http://www.w3.org/2000/svg">
  <style>
    path {
      fill: none;
      stroke-linecap: round;
      stroke-opacity: 0.4;
    }

    text {
      text-anchor: middle;
      alignment-baseline: hanging;
    }
  </style>
  <g opacity="0.4">
<path d="M0.567 0.850 Q0.786 0.470 0.092 0.280" stroke="hsl(0.0,100%,35%)" stroke-width="0.00056"></path>
<path d="M0.567 0.850 Q0.703 0.871 0.774 0.809" stroke="hsl(0.0,100%,35%)" stroke-width="0.00167"></path>
<path d="M0.567 0.850 Q0.692 0.586 0.204 0.467" stroke="hsl(0.0,100%,35%)" stroke-width="0.00111"></path>
<path d="M0.092 0.280 Q-0.002 0.396 0.204 0.467" stroke="hsl(180.0,100%,35%)" stroke-width="0.00557"></path>
<path d="M0.092 0.280 Q0.443 0.879 1.689 0.839" stroke="hsl(180.0,100%,35%)" stroke-width="0.00111"></path>
<path d="M0.092 0.280 Q0.237 0.325 0.358 0.264" stroke="hsl(180.0,100%,35%)" stroke-width="0.00334"></path>
<path d="M0.092 0.280 Q0.735 0.815 1.919 0.618" stroke="hsl(180.0,100%,35%)" stroke-width="0.00167"></path>
<path d="M0.092 0.280 Q0.772 0.706 1.753 0.468" stroke="hsl(180.0,100%,35%)" stroke-width="0.00056"></path>
<path d="M0.774 0.809 Q0.510 0.670 0.180 0.769" stroke="hsl(0.0,100%,35%)" stroke-width="0.00167"></path>
<path d="M0.774 0.809 Q1.521 0.712 1.495 0.327" stroke="hsl(0.0,100%,35%)" stroke-width="0.00056"></path>
<path d="M0.774 0.809 Q0.844 0.731 0.708 0.680" stroke="hsl(0.0,100%,35%)" stroke-width="0.00056"></path>
<path d="M0.774 0.809 Q0.828 0.635 0.498 0.570" stroke="hsl(0.0,100%,35%)" stroke-width="0.00056"></path>
<path d="M0.204 0.467 Q0.649 0.950 1.689 0.839" stroke="hsl(180.0,100%,35%)" stroke-width="0.00557"></path>
<path d="M0.204 0.467 Q0.298 0.351 0.092 0.280" stroke="hsl(180.0,100%,35%)" stroke-width="0.00557"></path>
<path d="M0.204 0.467 Q0.443 0.397 0.358 0.264" stroke="hsl(180.0,100%,35%)" stroke-width="0.01170"></path>
<path d="M0.204 0.467 Q0.941 0.886 1.919 0.618" stroke="hsl(180.0,100%,35%)" stroke-width="0.01783"></path>
<path d="M0.204 0.467 Q0.269 0.578 0.498 0.570" stroke="hsl(180.0,100%,35%)" stroke-width="0.00557"></path>
<path d="M0.204 0.467 Q1.202 0.702 1.878 0.266" stroke="hsl(180.0,100%,35%)" stroke-width="0.00056"></path>
<path d="M0.204 0.467 Q0.978 0.778 1.753 0.468" stroke="hsl(180.0,100%,35%)" stroke-width="0.00334"></path>
<path d="M0.204 0.467 Q0.962 0.655 1.495 0.327" stroke="hsl(180.0,100%,35%)" stroke-width="0.00056"></path>
<path d="M0.204 0.467 Q0.286 0.674 0.708 0.680" stroke="hsl(180.0,100%,35%)" stroke-width="0.00111"></path>
<path d="M0.204 0.467 Q0.057 0.511 0.111 0.592" stroke="hsl(180.0,100%,35%)" stroke-width="0.00725"></path>
<path d="M0.204 0.467 Q0.434 0.515 0.578 0.413" stroke="hsl(180.0,100%,35%)" stroke-width="0.00056"></path>
<path d="M0.204 0.467 Q-0.049 0.613 0.180 0.769" stroke="hsl(180.0,100%,35%)" stroke-width="0.00056"></path>
<path d="M0.578 0.413 Q1.085 0.784 1.919 0.618" stroke="hsl(0.0,100%,35%)" stroke-width="0.00111"></path>
<path d="M0.578 0.413 Q0.348 0.366 0.204 0.467" stroke="hsl(0.0,100%,35%)" stroke-width="0.00056"></path>
<path d="M0.578 0.413 Q0.413 0.476 0.498 0.570" stroke="hsl(0.0,100%,35%)" stroke-width="0.01282"></path>
<path d="M0.578 0.413 Q1.106 0.554 1.495 0.327" stroke="hsl(0.0,100%,35%)" stroke-width="0.00223"></path>
<path d="M0.578 0.413 Q0.429 0.573 0.708 0.680" stroke="hsl(0.0,100%,35%)" stroke-width="0.00111"></path>
<path d="M0.578 0.413 Q1.346 0.600 1.878 0.266" stroke="hsl(0.0,100%,35%)" stroke-width="0.00334"></path>
<path d="M1.919 0.618 Q1.940 0.388 1.495 0.327" stroke="hsl(180.0,100%,35%)" stroke-width="0.00167"></path>
<path d="M1.919 0.618 Q1.182 0.200 0.204 0.467" stroke="hsl(180.0,100%,35%)" stroke-width="0.02898"></path>
<path d="M1.919 0.618 Q1.627 0.683 1.689 0.839" stroke="hsl(180.0,100%,35%)" stroke-width="0.01616"></path>
<path d="M1.919 0.618 Q1.422 0.129 0.358 0.264" stroke="hsl(180.0,100%,35%)" stroke-width="0.00390"></path>
<path d="M1.919 0.618 Q2.180 0.434 1.878 0.266" stroke="hsl(180.0,100%,35%)" stroke-width="0.00111"></path>
<path d="M1.919 0.618 Q1.276 0.084 0.092 0.280" stroke="hsl(180.0,100%,35%)" stroke-width="0.00111"></path>
<path d="M1.919 0.618 Q1.956 0.510 1.753 0.468" stroke="hsl(180.0,100%,35%)" stroke-width="0.00056"></path>
<path d="M1.919 0.618 Q1.036 0.244 0.111 0.592" stroke="hsl(180.0,100%,35%)" stroke-width="0.00334"></path>
<path d="M1.919 0.618 Q0.929 0.346 0.180 0.769" stroke="hsl(180.0,100%,35%)" stroke-width="0.00223"></path>
<path d="M0.498 0.570 Q1.432 0.694 1.878 0.266" stroke="hsl(0.0,100%,35%)" stroke-width="0.01003"></path>
<path d="M0.498 0.570 Q1.191 0.648 1.495 0.327" stroke="hsl(0.0,100%,35%)" stroke-width="0.00669"></path>
<path d="M0.498 0.570 Q0.433 0.460 0.204 0.467" stroke="hsl(0.0,100%,35%)" stroke-width="0.00836"></path>
<path d="M0.498 0.570 Q0.664 0.508 0.578 0.413" stroke="hsl(0.0,100%,35%)" stroke-width="0.00947"></path>
<path d="M0.498 0.570 Q0.515 0.667 0.708 0.680" stroke="hsl(0.0,100%,35%)" stroke-width="0.01449"></path>
<path d="M0.498 0.570 Q1.170 0.878 1.919 0.618" stroke="hsl(0.0,100%,35%)" stroke-width="0.00167"></path>
<path d="M0.498 0.570 Q0.708 0.673 0.956 0.594" stroke="hsl(0.0,100%,35%)" stroke-width="0.00056"></path>
<path d="M0.498 0.570 Q0.673 0.389 0.358 0.264" stroke="hsl(0.0,100%,35%)" stroke-width="0.00557"></path>
<path d="M0.498 0.570 Q0.743 0.604 0.863 0.492" stroke="hsl(0.0,100%,35%)" stroke-width="0.00446"></path>
<path d="M0.498 0.570 Q0.527 0.344 0.092 0.280" stroke="hsl(0.0,100%,35%)" stroke-width="0.00223"></path>
<path d="M0.498 0.570 Q0.878 0.943 1.689 0.839" stroke="hsl(0.0,100%,35%)" stroke-width="0.00056"></path>
<path d="M0.498 0.570 Q1.241 0.579 1.422 0.219" stroke="hsl(0.0,100%,35%)" stroke-width="0.00056"></path>
<path d="M0.498 0.570 Q0.978 0.712 1.361 0.510" stroke="hsl(0.0,100%,35%)" stroke-width="0.00056"></path>
<path d="M0.498 0.570 Q0.287 0.504 0.111 0.592" stroke="hsl(0.0,100%,35%)" stroke-width="0.00223"></path>
<path d="M1.495 0.327 Q0.967 0.187 0.578 0.413" stroke="hsl(0.0,100%,35%)" stroke-width="0.00279"></path>
<path d="M1.495 0.327 Q0.802 0.249 0.498 0.570" stroke="hsl(0.0,100%,35%)" stroke-width="0.00502"></path>
<path d="M1.495 0.327 Q1.431 0.214 1.196 0.220" stroke="hsl(0.0,100%,35%)" stroke-width="0.00056"></path>
<path d="M1.495 0.327 Q1.282 0.391 1.361 0.510" stroke="hsl(0.0,100%,35%)" stroke-width="0.01338"></path>
<path d="M1.495 0.327 Q1.735 0.373 1.878 0.266" stroke="hsl(0.0,100%,35%)" stroke-width="0.01059"></path>
<path d="M1.495 0.327 Q0.819 0.346 0.708 0.680" stroke="hsl(0.0,100%,35%)" stroke-width="0.00279"></path>
<path d="M1.495 0.327 Q1.545 0.258 1.422 0.219" stroke="hsl(0.0,100%,35%)" stroke-width="0.00390"></path>
<path d="M1.495 0.327 Q0.484 0.285 0.180 0.769" stroke="hsl(0.0,100%,35%)" stroke-width="0.00223"></path>
<path d="M1.495 0.327 Q0.737 0.139 0.204 0.467" stroke="hsl(0.0,100%,35%)" stroke-width="0.00056"></path>
<path d="M1.495 0.327 Q1.273 0.271 1.115 0.367" stroke="hsl(0.0,100%,35%)" stroke-width="0.00056"></path>
<path d="M0.708 0.680 Q1.624 0.707 1.878 0.266" stroke="hsl(0.0,100%,35%)" stroke-width="0.00892"></path>
<path d="M0.708 0.680 Q0.691 0.583 0.498 0.570" stroke="hsl(0.0,100%,35%)" stroke-width="0.00502"></path>
<path d="M0.708 0.680 Q0.626 0.473 0.204 0.467" stroke="hsl(0.0,100%,35%)" stroke-width="0.00613"></path>
<path d="M0.708 0.680 Q1.363 0.891 1.919 0.618" stroke="hsl(0.0,100%,35%)" stroke-width="0.00167"></path>
<path d="M0.708 0.680 Q1.171 0.726 1.361 0.510" stroke="hsl(0.0,100%,35%)" stroke-width="0.00056"></path>
<path d="M0.708 0.680 Q1.554 0.758 1.891 0.362" stroke="hsl(0.0,100%,35%)" stroke-width="0.00056"></path>
<path d="M0.708 0.680 Q0.564 0.720 0.612 0.799" stroke="hsl(0.0,100%,35%)" stroke-width="0.00056"></path>
<path d="M1.878 0.266 Q0.962 0.239 0.708 0.680" stroke="hsl(0.0,100%,35%)" stroke-width="0.00111"></path>
<path d="M1.878 0.266 Q0.627 0.178 0.180 0.769" stroke="hsl(0.0,100%,35%)" stroke-width="0.00111"></path>
<path d="M1.878 0.266 Q1.617 0.450 1.919 0.618" stroke="hsl(0.0,100%,35%)" stroke-width="0.00223"></path>
<path d="M1.878 0.266 Q0.945 0.142 0.498 0.570" stroke="hsl(0.0,100%,35%)" stroke-width="0.00557"></path>
<path d="M1.878 0.266 Q1.601 0.281 1.569 0.420" stroke="hsl(0.0,100%,35%)" stroke-width="0.00223"></path>
<path d="M1.878 0.266 Q1.110 0.080 0.578 0.413" stroke="hsl(0.0,100%,35%)" stroke-width="0.00167"></path>
<path d="M1.878 0.266 Q0.880 0.032 0.204 0.467" stroke="hsl(0.0,100%,35%)" stroke-width="0.00111"></path>
<path d="M1.878 0.266 Q1.638 0.220 1.495 0.327" stroke="hsl(0.0,100%,35%)" stroke-width="0.00279"></path>
<path d="M1.422 0.219 Q1.372 0.288 1.495 0.327" stroke="hsl(0.0,100%,35%)" stroke-width="0.00725"></path>
<path d="M1.422 0.219 Q0.679 0.210 0.498 0.570" stroke="hsl(0.0,100%,35%)" stroke-width="0.00390"></path>
<path d="M1.422 0.219 Q1.388 0.410 1.753 0.468" stroke="hsl(0.0,100%,35%)" stroke-width="0.00056"></path>
<path d="M0.180 0.769 Q0.743 0.767 0.863 0.492" stroke="hsl(0.0,100%,35%)" stroke-width="0.00056"></path>
<path d="M0.180 0.769 Q0.527 0.507 0.092 0.280" stroke="hsl(0.0,100%,35%)" stroke-width="0.00334"></path>
<path d="M0.180 0.769 Q0.673 0.552 0.358 0.264" stroke="hsl(0.0,100%,35%)" stroke-width="0.00111"></path>
<path d="M0.180 0.769 Q0.498 0.733 0.498 0.570" stroke="hsl(0.0,100%,35%)" stroke-width="0.00056"></path>
<path d="M0.180 0.769 Q1.191 0.811 1.495 0.327" stroke="hsl(0.0,100%,35%)" stroke-width="0.00111"></path>
<path d="M0.180 0.769 Q0.372 0.870 0.612 0.799" stroke="hsl(0.0,100%,35%)" stroke-width="0.00056"></path>
<path d="M0.180 0.769 Q0.515 0.830 0.708 0.680" stroke="hsl(0.0,100%,35%)" stroke-width="0.00056"></path>
<path d="M0.180 0.769 Q0.433 0.623 0.204 0.467" stroke="hsl(0.0,100%,35%)" stroke-width="0.00056"></path>
<path d="M0.612 0.799 Q0.755 0.759 0.708 0.680" stroke="hsl(0.0,100%,35%)" stroke-width="0.00390"></path>
<path d="M0.612 0.799 Q0.738 0.662 0.498 0.570" stroke="hsl(0.0,100%,35%)" stroke-width="0.00111"></path>
<path d="M0.612 0.799 Q0.673 0.552 0.204 0.467" stroke="hsl(0.0,100%,35%)" stroke-width="0.00167"></path>
<path d="M1.891 0.362 Q1.962 0.311 1.878 0.266" stroke="hsl(0.0,100%,35%)" stroke-width="0.01393"></path>
<path d="M1.891 0.362 Q1.028 0.187 0.498 0.570" stroke="hsl(0.0,100%,35%)" stroke-width="0.00111"></path>
<path d="M1.891 0.362 Q1.045 0.284 0.708 0.680" stroke="hsl(0.0,100%,35%)" stroke-width="0.00111"></path>
<path d="M1.891 0.362 Q1.203 0.007 0.358 0.264" stroke="hsl(0.0,100%,35%)" stroke-width="0.00056"></path>
<path d="M1.753 0.468 Q0.980 0.158 0.204 0.467" stroke="hsl(180.0,100%,35%)" stroke-width="0.01003"></path>
<path d="M1.753 0.468 Q1.425 0.641 1.689 0.839" stroke="hsl(180.0,100%,35%)" stroke-width="0.00111"></path>
<path d="M1.753 0.468 Q1.716 0.576 1.919 0.618" stroke="hsl(180.0,100%,35%)" stroke-width="0.00613"></path>
<path d="M1.753 0.468 Q1.045 0.268 0.498 0.570" stroke="hsl(180.0,100%,35%)" stroke-width="0.00111"></path>
<path d="M1.753 0.468 Q1.073 0.042 0.092 0.280" stroke="hsl(180.0,100%,35%)" stroke-width="0.00056"></path>
<path d="M1.753 0.468 Q1.219 0.087 0.358 0.264" stroke="hsl(180.0,100%,35%)" stroke-width="0.00111"></path>
<path d="M1.689 0.839 Q1.244 0.356 0.204 0.467" stroke="hsl(180.0,100%,35%)" stroke-width="0.01059"></path>
<path d="M1.689 0.839 Q2.018 0.667 1.753 0.468" stroke="hsl(180.0,100%,35%)" stroke-width="0.00167"></path>
<path d="M1.689 0.839 Q1.338 0.240 0.092 0.280" stroke="hsl(180.0,100%,35%)" stroke-width="0.00167"></path>
<path d="M1.689 0.839 Q1.981 0.775 1.919 0.618" stroke="hsl(180.0,100%,35%)" stroke-width="0.02062"></path>
<path d="M1.689 0.839 Q2.242 0.590 1.878 0.266" stroke="hsl(180.0,100%,35%)" stroke-width="0.00056"></path>
<path d="M1.689 0.839 Q1.483 0.286 0.358 0.264" stroke="hsl(180.0,100%,35%)" stroke-width="0.00223"></path>
<path d="M1.689 0.839 Q1.938 0.431 1.196 0.220" stroke="hsl(180.0,100%,35%)" stroke-width="0.00056"></path>
<path d="M1.689 0.839 Q1.097 0.400 0.111 0.592" stroke="hsl(180.0,100%,35%)" stroke-width="0.00167"></path>
<path d="M1.689 0.839 Q1.309 0.466 0.498 0.570" stroke="hsl(180.0,100%,35%)" stroke-width="0.00279"></path>
<path d="M0.358 0.264 Q0.119 0.335 0.204 0.467" stroke="hsl(180.0,100%,35%)" stroke-width="0.00557"></path>
<path d="M0.358 0.264 Q0.213 0.219 0.092 0.280" stroke="hsl(180.0,100%,35%)" stroke-width="0.00223"></path>
<path d="M0.358 0.264 Q0.564 0.818 1.689 0.839" stroke="hsl(180.0,100%,35%)" stroke-width="0.00223"></path>
<path d="M0.358 0.264 Q0.184 0.445 0.498 0.570" stroke="hsl(180.0,100%,35%)" stroke-width="0.00167"></path>
<path d="M0.358 0.264 Q0.856 0.754 1.919 0.618" stroke="hsl(180.0,100%,35%)" stroke-width="0.00167"></path>
<path d="M0.358 0.264 Q-0.134 0.481 0.180 0.769" stroke="hsl(180.0,100%,35%)" stroke-width="0.00056"></path>
<path d="M0.358 0.264 Q0.893 0.646 1.753 0.468" stroke="hsl(180.0,100%,35%)" stroke-width="0.00167"></path>
<path d="M0.358 0.264 Q-0.028 0.379 0.111 0.592" stroke="hsl(180.0,100%,35%)" stroke-width="0.00056"></path>
<path d="M0.358 0.264 Q1.117 0.569 1.878 0.266" stroke="hsl(180.0,100%,35%)" stroke-width="0.00056"></path>
<path d="M0.863 0.492 Q0.647 0.232 0.092 0.280" stroke="hsl(0.0,100%,35%)" stroke-width="0.00167"></path>
<path d="M0.863 0.492 Q0.618 0.458 0.498 0.570" stroke="hsl(0.0,100%,35%)" stroke-width="0.00334"></path>
<path d="M0.863 0.492 Q1.311 0.536 1.495 0.327" stroke="hsl(0.0,100%,35%)" stroke-width="0.00056"></path>
<path d="M0.863 0.492 Q0.553 0.348 0.204 0.467" stroke="hsl(0.0,100%,35%)" stroke-width="0.00111"></path>
<path d="M0.111 0.592 Q0.322 0.659 0.498 0.570" stroke="hsl(180.0,100%,35%)" stroke-width="0.00056"></path>
<path d="M0.111 0.592 Q0.257 0.549 0.204 0.467" stroke="hsl(180.0,100%,35%)" stroke-width="0.01170"></path>
<path d="M0.111 0.592 Q0.994 0.967 1.919 0.618" stroke="hsl(180.0,100%,35%)" stroke-width="0.00334"></path>
<path d="M0.111 0.592 Q0.488 0.596 0.578 0.413" stroke="hsl(180.0,100%,35%)" stroke-width="0.00056"></path>
<path d="M0.114 0.350 Q0.065 0.427 0.204 0.467" stroke="hsl(180.0,100%,35%)" stroke-width="0.00223"></path>
<path d="M0.114 0.350 Q0.305 0.356 0.358 0.264" stroke="hsl(180.0,100%,35%)" stroke-width="0.00223"></path>
<path d="M0.114 0.350 Q0.839 0.737 1.753 0.468" stroke="hsl(180.0,100%,35%)" stroke-width="0.00167"></path>
<path d="M0.114 0.350 Q0.511 0.910 1.689 0.839" stroke="hsl(180.0,100%,35%)" stroke-width="0.00056"></path>
<path d="M0.114 0.350 Q0.802 0.845 1.919 0.618" stroke="hsl(180.0,100%,35%)" stroke-width="0.00056"></path>
<path d="M1.679 0.194 Q1.721 0.270 1.878 0.266" stroke="hsl(0.0,100%,35%)" stroke-width="0.02341"></path>
<path d="M1.679 0.194 Q0.723 0.036 0.204 0.467" stroke="hsl(0.0,100%,35%)" stroke-width="0.00390"></path>
<path d="M1.679 0.194 Q0.788 0.146 0.498 0.570" stroke="hsl(0.0,100%,35%)" stroke-width="0.00167"></path>
<path d="M1.679 0.194 Q1.481 0.224 1.495 0.327" stroke="hsl(0.0,100%,35%)" stroke-width="0.00725"></path>
<path d="M1.679 0.194 Q0.576 0.079 0.111 0.592" stroke="hsl(0.0,100%,35%)" stroke-width="0.00056"></path>
<path d="M1.679 0.194 Q1.444 0.285 1.569 0.420" stroke="hsl(0.0,100%,35%)" stroke-width="0.00056"></path>
<path d="M1.679 0.194 Q0.805 0.243 0.708 0.680" stroke="hsl(0.0,100%,35%)" stroke-width="0.01170"></path>
<path d="M1.679 0.194 Q1.702 0.099 1.521 0.068" stroke="hsl(0.0,100%,35%)" stroke-width="0.00056"></path>
<path d="M1.679 0.194 Q0.953 0.083 0.578 0.413" stroke="hsl(0.0,100%,35%)" stroke-width="0.00167"></path>
<path d="M0.342 0.615 Q0.473 0.721 0.708 0.680" stroke="hsl(0.0,100%,35%)" stroke-width="0.00056"></path>
<path d="M0.342 0.615 Q1.390 0.748 1.878 0.266" stroke="hsl(0.0,100%,35%)" stroke-width="0.00056"></path>
<path d="M0.342 0.615 Q0.457 0.624 0.498 0.570" stroke="hsl(0.0,100%,35%)" stroke-width="0.00056"></path>
<path d="M0.698 0.164 Q0.209 0.217 0.204 0.467" stroke="hsl(180.0,100%,35%)" stroke-width="0.01728"></path>
<path d="M0.698 0.164 Q0.448 0.146 0.358 0.264" stroke="hsl(180.0,100%,35%)" stroke-width="0.00947"></path>
<path d="M0.698 0.164 Q0.945 0.635 1.919 0.618" stroke="hsl(180.0,100%,35%)" stroke-width="0.00223"></path>
<path d="M0.698 0.164 Q0.902 0.291 1.196 0.220" stroke="hsl(180.0,100%,35%)" stroke-width="0.00056"></path>
<path d="M0.356 0.928 Q0.959 0.811 0.863 0.492" stroke="hsl(0.0,100%,35%)" stroke-width="0.00056"></path>
<path d="M0.356 0.928 Q0.396 0.813 0.180 0.769" stroke="hsl(0.0,100%,35%)" stroke-width="0.00390"></path>
<path d="M0.356 0.928 Q0.714 0.777 0.498 0.570" stroke="hsl(0.0,100%,35%)" stroke-width="0.00111"></path>
<path d="M1.833 0.672 Q1.182 0.244 0.204 0.467" stroke="hsl(180.0,100%,35%)" stroke-width="0.00223"></path>
<path d="M1.833 0.672 Q1.422 0.173 0.358 0.264" stroke="hsl(180.0,100%,35%)" stroke-width="0.00111"></path>
<path d="M1.833 0.672 Q1.628 0.727 1.689 0.839" stroke="hsl(180.0,100%,35%)" stroke-width="0.00056"></path>
<path d="M1.833 0.672 Q1.919 0.662 1.919 0.618" stroke="hsl(180.0,100%,35%)" stroke-width="0.00056"></path>
<path d="M1.833 0.672 Q1.247 0.354 0.498 0.570" stroke="hsl(180.0,100%,35%)" stroke-width="0.00056"></path>
<path d="M1.833 0.672 Q1.036 0.288 0.111 0.592" stroke="hsl(180.0,100%,35%)" stroke-width="0.00056"></path>
</g>
<text x="0.567" y="0.844" font-size="0.010960" fill="hsl(0.0,100%,20%)">aswolfers</text>
<text x="0.092" y="0.263" font-size="0.033483" fill="hsl(180.0,100%,20%)">egdaniel</text>
<text x="0.774" y="0.803" font-size="0.013423" fill="hsl(0.0,100%,20%)">jreck</text>
<text x="0.204" y="0.427" font-size="0.080290" fill="hsl(180.0,100%,20%)">michaelludwig</text>
<text x="0.578" y="0.395" font-size="0.036897" fill="hsl(0.0,100%,20%)">borenet</text>
<text x="1.919" y="0.585" font-size="0.065760" fill="hsl(180.0,100%,20%)">robertphillips</text>
<text x="0.498" y="0.537" font-size="0.066215" fill="hsl(0.0,100%,20%)">kjlubick</text>
<text x="1.495" y="0.301" font-size="0.051212" fill="hsl(0.0,100%,20%)">bungeman</text>
<text x="0.708" y="0.656" font-size="0.047352" fill="hsl(0.0,100%,20%)">danieldilan</text>
<text x="1.878" y="0.237" font-size="0.057300" fill="hsl(0.0,100%,20%)">fmalita</text>
<text x="1.196" y="0.216" font-size="0.007750" fill="hsl(180.0,100%,20%)">brettos</text>
<text x="1.361" y="0.498" font-size="0.022815" fill="hsl(0.0,100%,20%)">jlavrova</text>
<text x="1.422" y="0.207" font-size="0.024095" fill="hsl(0.0,100%,20%)">drott</text>
<text x="0.180" y="0.755" font-size="0.027217" fill="hsl(0.0,100%,20%)">nscobie</text>
<text x="1.115" y="0.365" font-size="0.004474" fill="hsl(0.0,100%,20%)">hcm</text>
<text x="0.612" y="0.791" font-size="0.016742" fill="hsl(0.0,100%,20%)">ccameron</text>
<text x="1.891" y="0.349" font-size="0.024912" fill="hsl(0.0,100%,20%)">lukasza</text>
<text x="1.753" y="0.452" font-size="0.032880" fill="hsl(180.0,100%,20%)">jamesgk</text>
<text x="1.689" y="0.814" font-size="0.050225" fill="hsl(180.0,100%,20%)">jvanverth</text>
<text x="0.358" y="0.241" font-size="0.046066" fill="hsl(180.0,100%,20%)">nicolettep</text>
<text x="1.569" y="0.415" font-size="0.010005" fill="hsl(0.0,100%,20%)">bwils</text>
<text x="0.863" y="0.481" font-size="0.020987" fill="hsl(0.0,100%,20%)">jmbetancourt</text>
<text x="0.111" y="0.575" font-size="0.034076" fill="hsl(180.0,100%,20%)">thomsmit</text>
<text x="0.956" y="0.592" font-size="0.004474" fill="hsl(0.0,100%,20%)">rmistry</text>
<text x="0.114" y="0.342" font-size="0.016133" fill="hsl(180.0,100%,20%)">lokokung</text>
<text x="1.679" y="0.173" font-size="0.042917" fill="hsl(0.0,100%,20%)">mike</text>
<text x="1.521" y="0.065" font-size="0.004474" fill="hsl(0.0,100%,20%)">sharaks</text>
<text x="0.342" y="0.612" font-size="0.007750" fill="hsl(0.0,100%,20%)">sam</text>
<text x="0.698" y="0.148" font-size="0.032574" fill="hsl(180.0,100%,20%)">syoussefi</text>
<text x="0.356" y="0.921" font-size="0.014149" fill="hsl(0.0,100%,20%)">vigneshv</text>
<text x="1.833" y="0.665" font-size="0.014149" fill="hsl(180.0,100%,20%)">zengyonghust</text>
</svg>
