<svg width="4000" height="2000" viewBox="-0.025 -0.025 2.05 1.05" xmlns="http://www.w3.org/2000/svg">
  <style>
    path {
      fill: none;
      stroke-linecap: round;
      stroke-opacity: 0.4;
    }

    text {
      text-anchor: middle;
      alignment-baseline: hanging;
    }
  </style>
  <g opacity="0.4">
<path d="M1.693 0.789 Q1.725 0.639 1.441 0.591" stroke="hsl(0.0,100%,35%)" stroke-width="0.00068"></path>
<path d="M1.693 0.789 Q1.492 0.766 1.403 0.858" stroke="hsl(0.0,100%,35%)" stroke-width="0.00274"></path>
<path d="M1.693 0.789 Q1.473 0.678 1.208 0.760" stroke="hsl(0.0,100%,35%)" stroke-width="0.00068"></path>
<path d="M1.403 0.858 Q1.245 0.837 1.169 0.909" stroke="hsl(0.0,100%,35%)" stroke-width="0.00752"></path>
<path d="M1.403 0.858 Q1.219 0.301 0.092 0.269" stroke="hsl(0.0,100%,35%)" stroke-width="0.00205"></path>
<path d="M1.403 0.858 Q2.123 0.585 1.748 0.174" stroke="hsl(0.0,100%,35%)" stroke-width="0.00068"></path>
<path d="M1.403 0.858 Q1.464 0.798 1.361 0.755" stroke="hsl(0.0,100%,35%)" stroke-width="0.00068"></path>
<path d="M1.403 0.858 Q1.541 0.410 0.696 0.244" stroke="hsl(0.0,100%,35%)" stroke-width="0.00137"></path>
<path d="M1.403 0.858 Q1.470 0.620 1.020 0.535" stroke="hsl(0.0,100%,35%)" stroke-width="0.00274"></path>
<path d="M1.403 0.858 Q1.063 0.773 0.822 0.920" stroke="hsl(0.0,100%,35%)" stroke-width="0.00205"></path>
<path d="M1.403 0.858 Q1.384 0.770 1.208 0.760" stroke="hsl(0.0,100%,35%)" stroke-width="0.00479"></path>
<path d="M1.403 0.858 Q1.630 0.620 1.215 0.457" stroke="hsl(0.0,100%,35%)" stroke-width="0.00068"></path>
<path d="M1.403 0.858 Q1.595 0.825 1.573 0.725" stroke="hsl(0.0,100%,35%)" stroke-width="0.00342"></path>
<path d="M1.403 0.858 Q1.660 0.387 0.797 0.158" stroke="hsl(0.0,100%,35%)" stroke-width="0.00068"></path>
<path d="M1.208 0.760 Q1.227 0.848 1.403 0.858" stroke="hsl(0.0,100%,35%)" stroke-width="0.01094"></path>
<path d="M1.208 0.760 Q1.460 0.722 1.441 0.591" stroke="hsl(0.0,100%,35%)" stroke-width="0.00068"></path>
<path d="M1.208 0.760 Q1.454 0.610 1.215 0.457" stroke="hsl(0.0,100%,35%)" stroke-width="0.00274"></path>
<path d="M1.208 0.760 Q1.070 0.827 1.169 0.909" stroke="hsl(0.0,100%,35%)" stroke-width="0.00547"></path>
<path d="M0.147 0.148 Q0.207 0.754 1.403 0.858" stroke="hsl(180.0,100%,35%)" stroke-width="0.00068"></path>
<path d="M0.147 0.148 Q0.434 0.516 1.215 0.457" stroke="hsl(180.0,100%,35%)" stroke-width="0.00137"></path>
<path d="M0.147 0.148 Q0.023 0.198 0.092 0.269" stroke="hsl(180.0,100%,35%)" stroke-width="0.00137"></path>
<path d="M0.147 0.148 Q0.696 0.420 1.347 0.212" stroke="hsl(180.0,100%,35%)" stroke-width="0.00068"></path>
<path d="M1.215 0.457 Q1.406 0.495 1.522 0.410" stroke="hsl(180.0,100%,35%)" stroke-width="0.00547"></path>
<path d="M1.215 0.457 Q1.708 0.422 1.748 0.174" stroke="hsl(180.0,100%,35%)" stroke-width="0.01299"></path>
<path d="M1.215 0.457 Q1.209 0.350 0.999 0.330" stroke="hsl(180.0,100%,35%)" stroke-width="0.00479"></path>
<path d="M1.215 0.457 Q1.056 0.457 1.020 0.535" stroke="hsl(180.0,100%,35%)" stroke-width="0.01846"></path>
<path d="M1.215 0.457 Q1.126 0.247 0.696 0.244" stroke="hsl(180.0,100%,35%)" stroke-width="0.00068"></path>
<path d="M1.215 0.457 Q0.804 0.138 0.092 0.269" stroke="hsl(180.0,100%,35%)" stroke-width="0.00068"></path>
<path d="M1.215 0.457 Q0.969 0.607 1.208 0.760" stroke="hsl(180.0,100%,35%)" stroke-width="0.00342"></path>
<path d="M1.215 0.457 Q0.830 0.674 1.169 0.909" stroke="hsl(180.0,100%,35%)" stroke-width="0.00547"></path>
<path d="M1.215 0.457 Q1.477 0.361 1.347 0.212" stroke="hsl(180.0,100%,35%)" stroke-width="0.00957"></path>
<path d="M1.215 0.457 Q0.988 0.695 1.403 0.858" stroke="hsl(180.0,100%,35%)" stroke-width="0.00068"></path>
<path d="M0.092 0.269 Q0.996 0.553 1.748 0.174" stroke="hsl(0.0,100%,35%)" stroke-width="0.00068"></path>
<path d="M0.092 0.269 Q0.276 0.826 1.403 0.858" stroke="hsl(0.0,100%,35%)" stroke-width="0.01163"></path>
<path d="M0.092 0.269 Q0.344 0.587 1.020 0.535" stroke="hsl(0.0,100%,35%)" stroke-width="0.00274"></path>
<path d="M0.092 0.269 Q0.238 0.347 0.422 0.293" stroke="hsl(0.0,100%,35%)" stroke-width="0.00889"></path>
<path d="M0.092 0.269 Q0.118 0.804 1.169 0.909" stroke="hsl(0.0,100%,35%)" stroke-width="0.00615"></path>
<path d="M0.092 0.269 Q0.414 0.377 0.696 0.244" stroke="hsl(0.0,100%,35%)" stroke-width="0.00068"></path>
<path d="M0.092 0.269 Q0.257 0.738 1.208 0.760" stroke="hsl(0.0,100%,35%)" stroke-width="0.00137"></path>
<path d="M0.092 0.269 Q0.503 0.587 1.215 0.457" stroke="hsl(0.0,100%,35%)" stroke-width="0.00137"></path>
<path d="M0.092 0.269 Q-0.014 0.324 0.069 0.388" stroke="hsl(0.0,100%,35%)" stroke-width="0.00137"></path>
<path d="M0.092 0.269 Q0.088 0.870 1.261 1.004" stroke="hsl(0.0,100%,35%)" stroke-width="0.00205"></path>
<path d="M1.347 0.212 Q1.577 0.273 1.748 0.174" stroke="hsl(180.0,100%,35%)" stroke-width="0.00684"></path>
<path d="M1.347 0.212 Q0.925 0.308 1.020 0.535" stroke="hsl(180.0,100%,35%)" stroke-width="0.00274"></path>
<path d="M1.347 0.212 Q1.084 0.308 1.215 0.457" stroke="hsl(180.0,100%,35%)" stroke-width="0.00889"></path>
<path d="M1.347 0.212 Q0.995 0.098 0.696 0.244" stroke="hsl(180.0,100%,35%)" stroke-width="0.00068"></path>
<path d="M1.347 0.212 Q0.674 -0.011 0.092 0.269" stroke="hsl(180.0,100%,35%)" stroke-width="0.00068"></path>
<path d="M1.347 0.212 Q1.275 0.346 1.522 0.410" stroke="hsl(180.0,100%,35%)" stroke-width="0.00137"></path>
<path d="M1.347 0.212 Q1.078 0.201 0.999 0.330" stroke="hsl(180.0,100%,35%)" stroke-width="0.00068"></path>
<path d="M1.235 1.018 Q1.289 0.950 1.169 0.909" stroke="hsl(0.0,100%,35%)" stroke-width="0.00274"></path>
<path d="M1.235 1.018 Q1.514 0.733 1.020 0.535" stroke="hsl(0.0,100%,35%)" stroke-width="0.00205"></path>
<path d="M1.235 1.018 Q1.263 0.415 0.092 0.269" stroke="hsl(0.0,100%,35%)" stroke-width="0.00068"></path>
<path d="M1.169 0.909 Q1.744 0.730 1.522 0.410" stroke="hsl(0.0,100%,35%)" stroke-width="0.00342"></path>
<path d="M1.169 0.909 Q1.815 0.596 1.347 0.212" stroke="hsl(0.0,100%,35%)" stroke-width="0.00342"></path>
<path d="M1.169 0.909 Q1.288 0.452 0.422 0.293" stroke="hsl(0.0,100%,35%)" stroke-width="0.00068"></path>
<path d="M1.169 0.909 Q1.326 0.930 1.403 0.858" stroke="hsl(0.0,100%,35%)" stroke-width="0.01983"></path>
<path d="M1.169 0.909 Q2.046 0.657 1.748 0.174" stroke="hsl(0.0,100%,35%)" stroke-width="0.00342"></path>
<path d="M1.169 0.909 Q1.036 0.429 0.069 0.388" stroke="hsl(0.0,100%,35%)" stroke-width="0.00068"></path>
<path d="M1.169 0.909 Q1.394 0.692 1.020 0.535" stroke="hsl(0.0,100%,35%)" stroke-width="0.00342"></path>
<path d="M1.169 0.909 Q1.312 1.022 1.565 0.977" stroke="hsl(0.0,100%,35%)" stroke-width="0.00068"></path>
<path d="M1.169 0.909 Q1.138 0.975 1.261 1.004" stroke="hsl(0.0,100%,35%)" stroke-width="0.01163"></path>
<path d="M1.169 0.909 Q1.553 0.692 1.215 0.457" stroke="hsl(0.0,100%,35%)" stroke-width="0.01505"></path>
<path d="M1.169 0.909 Q0.986 0.845 0.822 0.920" stroke="hsl(0.0,100%,35%)" stroke-width="0.00274"></path>
<path d="M1.169 0.909 Q1.143 0.374 0.092 0.269" stroke="hsl(0.0,100%,35%)" stroke-width="0.00821"></path>
<path d="M1.169 0.909 Q1.307 0.843 1.208 0.760" stroke="hsl(0.0,100%,35%)" stroke-width="0.01163"></path>
<path d="M1.169 0.909 Q1.129 0.808 0.925 0.806" stroke="hsl(0.0,100%,35%)" stroke-width="0.00068"></path>
<path d="M1.169 0.909 Q1.464 0.482 0.696 0.244" stroke="hsl(0.0,100%,35%)" stroke-width="0.00137"></path>
<path d="M1.020 0.535 Q1.442 0.438 1.347 0.212" stroke="hsl(180.0,100%,35%)" stroke-width="0.01026"></path>
<path d="M1.020 0.535 Q1.370 0.573 1.522 0.410" stroke="hsl(180.0,100%,35%)" stroke-width="0.01094"></path>
<path d="M1.020 0.535 Q1.180 0.535 1.215 0.457" stroke="hsl(180.0,100%,35%)" stroke-width="0.02394"></path>
<path d="M1.020 0.535 Q0.795 0.751 1.169 0.909" stroke="hsl(180.0,100%,35%)" stroke-width="0.00068"></path>
<path d="M1.020 0.535 Q0.613 0.687 0.822 0.920" stroke="hsl(180.0,100%,35%)" stroke-width="0.00068"></path>
<path d="M1.020 0.535 Q0.769 0.216 0.092 0.269" stroke="hsl(180.0,100%,35%)" stroke-width="0.00205"></path>
<path d="M1.020 0.535 Q1.672 0.500 1.748 0.174" stroke="hsl(180.0,100%,35%)" stroke-width="0.00137"></path>
<path d="M1.020 0.535 Q0.953 0.773 1.403 0.858" stroke="hsl(180.0,100%,35%)" stroke-width="0.00068"></path>
<path d="M0.754 0.533 Q1.236 0.625 1.522 0.410" stroke="hsl(180.0,100%,35%)" stroke-width="0.00068"></path>
<path d="M0.754 0.533 Q1.045 0.587 1.215 0.457" stroke="hsl(180.0,100%,35%)" stroke-width="0.00137"></path>
<path d="M0.754 0.533 Q1.307 0.491 1.347 0.212" stroke="hsl(180.0,100%,35%)" stroke-width="0.00068"></path>
<path d="M1.522 0.410 Q1.331 0.372 1.215 0.457" stroke="hsl(180.0,100%,35%)" stroke-width="0.01778"></path>
<path d="M1.522 0.410 Q1.172 0.372 1.020 0.535" stroke="hsl(180.0,100%,35%)" stroke-width="0.02052"></path>
<path d="M1.522 0.410 Q1.325 0.266 0.999 0.330" stroke="hsl(180.0,100%,35%)" stroke-width="0.00410"></path>
<path d="M1.522 0.410 Q0.920 0.054 0.092 0.269" stroke="hsl(180.0,100%,35%)" stroke-width="0.00137"></path>
<path d="M1.522 0.410 Q1.593 0.276 1.347 0.212" stroke="hsl(180.0,100%,35%)" stroke-width="0.00479"></path>
<path d="M1.522 0.410 Q1.104 0.611 1.403 0.858" stroke="hsl(180.0,100%,35%)" stroke-width="0.00068"></path>
<path d="M1.261 1.004 Q1.252 0.838 0.925 0.806" stroke="hsl(0.0,100%,35%)" stroke-width="0.00068"></path>
<path d="M1.261 1.004 Q1.516 0.721 1.020 0.535" stroke="hsl(0.0,100%,35%)" stroke-width="0.00205"></path>
<path d="M1.261 1.004 Q1.291 0.938 1.169 0.909" stroke="hsl(0.0,100%,35%)" stroke-width="0.01231"></path>
<path d="M1.261 1.004 Q1.938 0.625 1.347 0.212" stroke="hsl(0.0,100%,35%)" stroke-width="0.00068"></path>
<path d="M1.261 1.004 Q1.676 0.721 1.215 0.457" stroke="hsl(0.0,100%,35%)" stroke-width="0.00068"></path>
<path d="M1.101 0.224 Q1.234 0.267 1.347 0.212" stroke="hsl(180.0,100%,35%)" stroke-width="0.00752"></path>
<path d="M1.101 0.224 Q0.971 0.363 1.215 0.457" stroke="hsl(180.0,100%,35%)" stroke-width="0.00684"></path>
<path d="M1.101 0.224 Q0.744 0.601 1.403 0.858" stroke="hsl(180.0,100%,35%)" stroke-width="0.00137"></path>
<path d="M1.101 0.224 Q0.587 0.580 1.169 0.909" stroke="hsl(180.0,100%,35%)" stroke-width="0.00410"></path>
<path d="M1.101 0.224 Q1.464 0.328 1.748 0.174" stroke="hsl(180.0,100%,35%)" stroke-width="0.00068"></path>
<path d="M1.748 0.174 Q1.255 0.209 1.215 0.457" stroke="hsl(180.0,100%,35%)" stroke-width="0.00274"></path>
<path d="M1.748 0.174 Q1.517 0.113 1.347 0.212" stroke="hsl(180.0,100%,35%)" stroke-width="0.00615"></path>
<path d="M1.748 0.174 Q1.249 0.102 0.999 0.330" stroke="hsl(180.0,100%,35%)" stroke-width="0.00068"></path>
<path d="M1.748 0.174 Q1.096 0.209 1.020 0.535" stroke="hsl(180.0,100%,35%)" stroke-width="0.00068"></path>
<path d="M1.748 0.174 Q1.446 0.247 1.522 0.410" stroke="hsl(180.0,100%,35%)" stroke-width="0.00068"></path>
<path d="M0.422 0.293 Q0.276 0.215 0.092 0.269" stroke="hsl(0.0,100%,35%)" stroke-width="0.00957"></path>
<path d="M0.422 0.293 Q0.460 0.772 1.403 0.858" stroke="hsl(0.0,100%,35%)" stroke-width="0.00068"></path>
<path d="M0.422 0.293 Q0.878 0.572 1.522 0.410" stroke="hsl(0.0,100%,35%)" stroke-width="0.00068"></path>
<path d="M0.422 0.293 Q0.681 0.427 0.999 0.330" stroke="hsl(0.0,100%,35%)" stroke-width="0.00068"></path>
<path d="M0.422 0.293 Q0.687 0.533 1.215 0.457" stroke="hsl(0.0,100%,35%)" stroke-width="0.00137"></path>
<path d="M0.422 0.293 Q0.303 0.750 1.169 0.909" stroke="hsl(0.0,100%,35%)" stroke-width="0.00205"></path>
<path d="M0.422 0.293 Q0.120 0.686 0.822 0.920" stroke="hsl(0.0,100%,35%)" stroke-width="0.00068"></path>
<path d="M1.249 0.112 Q1.147 0.316 1.522 0.410" stroke="hsl(180.0,100%,35%)" stroke-width="0.00137"></path>
<path d="M1.249 0.112 Q1.449 0.243 1.748 0.174" stroke="hsl(180.0,100%,35%)" stroke-width="0.00274"></path>
<path d="M1.249 0.112 Q0.950 0.171 0.999 0.330" stroke="hsl(180.0,100%,35%)" stroke-width="0.00137"></path>
<path d="M0.999 0.330 Q1.006 0.437 1.215 0.457" stroke="hsl(180.0,100%,35%)" stroke-width="0.01163"></path>
<path d="M0.999 0.330 Q0.591 0.719 1.261 1.004" stroke="hsl(180.0,100%,35%)" stroke-width="0.00068"></path>
<path d="M0.999 0.330 Q1.498 0.402 1.748 0.174" stroke="hsl(180.0,100%,35%)" stroke-width="0.00068"></path>
<path d="M0.999 0.330 Q0.765 0.767 1.565 0.977" stroke="hsl(180.0,100%,35%)" stroke-width="0.00068"></path>
<path d="M0.999 0.330 Q1.268 0.340 1.347 0.212" stroke="hsl(180.0,100%,35%)" stroke-width="0.00068"></path>
<path d="M0.999 0.330 Q0.846 0.437 1.020 0.535" stroke="hsl(180.0,100%,35%)" stroke-width="0.00957"></path>
<path d="M0.999 0.330 Q0.595 0.118 0.092 0.269" stroke="hsl(180.0,100%,35%)" stroke-width="0.00068"></path>
<path d="M0.999 0.330 Q1.196 0.475 1.522 0.410" stroke="hsl(180.0,100%,35%)" stroke-width="0.00068"></path>
<path d="M0.999 0.330 Q0.621 0.653 1.169 0.909" stroke="hsl(180.0,100%,35%)" stroke-width="0.00137"></path>
<path d="M0.442 0.501 Q0.453 0.315 0.092 0.269" stroke="hsl(0.0,100%,35%)" stroke-width="0.01163"></path>
<path d="M0.442 0.501 Q0.599 0.393 0.422 0.293" stroke="hsl(0.0,100%,35%)" stroke-width="0.00068"></path>
<path d="M0.442 0.501 Q0.479 0.850 1.169 0.909" stroke="hsl(0.0,100%,35%)" stroke-width="0.00615"></path>
<path d="M0.442 0.501 Q0.857 0.527 0.999 0.330" stroke="hsl(0.0,100%,35%)" stroke-width="0.00068"></path>
<path d="M0.797 0.158 Q0.383 0.608 1.169 0.909" stroke="hsl(0.0,100%,35%)" stroke-width="0.00068"></path>
<path d="M0.797 0.158 Q1.029 0.295 1.347 0.212" stroke="hsl(0.0,100%,35%)" stroke-width="0.00615"></path>
<path d="M0.797 0.158 Q1.260 0.356 1.748 0.174" stroke="hsl(0.0,100%,35%)" stroke-width="0.00205"></path>
<path d="M0.797 0.158 Q0.678 0.181 0.696 0.244" stroke="hsl(0.0,100%,35%)" stroke-width="0.00137"></path>
<path d="M0.797 0.158 Q0.767 0.391 1.215 0.457" stroke="hsl(0.0,100%,35%)" stroke-width="0.00068"></path>
<path d="M1.565 0.977 Q1.812 0.759 1.441 0.591" stroke="hsl(0.0,100%,35%)" stroke-width="0.00068"></path>
<path d="M1.565 0.977 Q1.560 0.797 1.208 0.760" stroke="hsl(0.0,100%,35%)" stroke-width="0.01505"></path>
<path d="M1.565 0.977 Q1.421 0.864 1.169 0.909" stroke="hsl(0.0,100%,35%)" stroke-width="0.01231"></path>
<path d="M1.565 0.977 Q1.579 0.885 1.403 0.858" stroke="hsl(0.0,100%,35%)" stroke-width="0.01641"></path>
<path d="M1.565 0.977 Q1.689 0.339 0.471 0.138" stroke="hsl(0.0,100%,35%)" stroke-width="0.00068"></path>
<path d="M1.565 0.977 Q1.806 0.647 1.215 0.457" stroke="hsl(0.0,100%,35%)" stroke-width="0.00068"></path>
<path d="M1.565 0.977 Q1.996 0.685 1.522 0.410" stroke="hsl(0.0,100%,35%)" stroke-width="0.00068"></path>
<path d="M1.360 0.524 Q1.532 0.500 1.522 0.410" stroke="hsl(180.0,100%,35%)" stroke-width="0.00068"></path>
<path d="M1.360 0.524 Q1.341 0.462 1.215 0.457" stroke="hsl(180.0,100%,35%)" stroke-width="0.00205"></path>
<path d="M1.360 0.524 Q1.604 0.365 1.347 0.212" stroke="hsl(180.0,100%,35%)" stroke-width="0.00137"></path>
<path d="M1.506 0.632 Q1.691 0.524 1.522 0.410" stroke="hsl(180.0,100%,35%)" stroke-width="0.00137"></path>
<path d="M1.506 0.632 Q1.501 0.486 1.215 0.457" stroke="hsl(180.0,100%,35%)" stroke-width="0.00205"></path>
<path d="M1.506 0.632 Q1.994 0.452 1.748 0.174" stroke="hsl(180.0,100%,35%)" stroke-width="0.00068"></path>
<path d="M1.435 0.299 Q1.198 0.334 1.215 0.457" stroke="hsl(180.0,100%,35%)" stroke-width="0.00410"></path>
<path d="M1.435 0.299 Q1.691 0.299 1.748 0.174" stroke="hsl(180.0,100%,35%)" stroke-width="0.00274"></path>
<path d="M1.435 0.299 Q1.192 0.227 0.999 0.330" stroke="hsl(180.0,100%,35%)" stroke-width="0.00068"></path>
<path d="M1.435 0.299 Q1.389 0.372 1.522 0.410" stroke="hsl(180.0,100%,35%)" stroke-width="0.00068"></path>
<path d="M0.590 0.086 Q0.221 0.613 1.169 0.909" stroke="hsl(0.0,100%,35%)" stroke-width="0.00342"></path>
<path d="M0.590 0.086 Q0.378 0.635 1.403 0.858" stroke="hsl(0.0,100%,35%)" stroke-width="0.00068"></path>
<path d="M0.590 0.086 Q0.611 0.508 1.441 0.591" stroke="hsl(0.0,100%,35%)" stroke-width="0.00068"></path>
<path d="M0.590 0.086 Q0.359 0.547 1.208 0.760" stroke="hsl(0.0,100%,35%)" stroke-width="0.00068"></path>
<path d="M0.590 0.086 Q0.488 0.088 0.471 0.138" stroke="hsl(0.0,100%,35%)" stroke-width="0.00274"></path>
<path d="M0.590 0.086 Q0.636 0.164 0.797 0.158" stroke="hsl(0.0,100%,35%)" stroke-width="0.00615"></path>
<path d="M0.590 0.086 Q0.516 0.186 0.696 0.244" stroke="hsl(0.0,100%,35%)" stroke-width="0.00068"></path>
</g>
<text x="1.693" y="0.783" font-size="0.011952" fill="hsl(0.0,100%,20%)">alecmouri</text>
<text x="1.441" y="0.586" font-size="0.009759" fill="hsl(0.0,100%,20%)">scroggo</text>
<text x="1.403" y="0.830" font-size="0.057113" fill="hsl(0.0,100%,20%)">fmalita</text>
<text x="1.208" y="0.738" font-size="0.044721" fill="hsl(0.0,100%,20%)">danieldilan</text>
<text x="0.147" y="0.142" font-size="0.011952" fill="hsl(180.0,100%,20%)">aperez</text>
<text x="1.215" y="0.419" font-size="0.076532" fill="hsl(180.0,100%,20%)">michaelludwig</text>
<text x="0.092" y="0.243" font-size="0.051409" fill="hsl(0.0,100%,20%)">bungeman</text>
<text x="1.347" y="0.186" font-size="0.050709" fill="hsl(180.0,100%,20%)">egdaniel</text>
<text x="1.235" y="1.011" font-size="0.013801" fill="hsl(0.0,100%,20%)">arthursonzogni</text>
<text x="1.169" y="0.872" font-size="0.074001" fill="hsl(0.0,100%,20%)">kjlubick</text>
<text x="1.020" y="0.503" font-size="0.063434" fill="hsl(180.0,100%,20%)">robertphillips</text>
<text x="0.754" y="0.528" font-size="0.009759" fill="hsl(180.0,100%,20%)">beaufort.francois</text>
<text x="1.522" y="0.384" font-size="0.052099" fill="hsl(180.0,100%,20%)">jvanverth</text>
<text x="1.261" y="0.988" font-size="0.032733" fill="hsl(0.0,100%,20%)">borenet</text>
<text x="0.925" y="0.802" font-size="0.006901" fill="hsl(0.0,100%,20%)">rmistry</text>
<text x="1.101" y="0.210" font-size="0.026726" fill="hsl(180.0,100%,20%)">briansalomon</text>
<text x="1.748" y="0.154" font-size="0.040237" fill="hsl(180.0,100%,20%)">nicolettep</text>
<text x="0.422" y="0.278" font-size="0.030079" fill="hsl(0.0,100%,20%)">jlavrova</text>
<text x="0.696" y="0.236" font-size="0.015430" fill="hsl(0.0,100%,20%)">jmbetancourt</text>
<text x="0.069" y="0.384" font-size="0.008452" fill="hsl(0.0,100%,20%)">brettos</text>
<text x="1.249" y="0.105" font-size="0.013801" fill="hsl(180.0,100%,20%)">cwallez</text>
<text x="0.999" y="0.311" font-size="0.037480" fill="hsl(180.0,100%,20%)">jamesgk</text>
<text x="0.442" y="0.488" font-size="0.025820" fill="hsl(0.0,100%,20%)">drott</text>
<text x="1.361" y="0.753" font-size="0.004880" fill="hsl(0.0,100%,20%)">hcm</text>
<text x="0.822" y="0.913" font-size="0.014639" fill="hsl(0.0,100%,20%)">maxhudnell</text>
<text x="1.573" y="0.719" font-size="0.010911" fill="hsl(0.0,100%,20%)">bwils</text>
<text x="0.797" y="0.146" font-size="0.024881" fill="hsl(0.0,100%,20%)">nscobie</text>
<text x="1.565" y="0.956" font-size="0.040825" fill="hsl(0.0,100%,20%)">lukasza</text>
<text x="1.360" y="0.518" font-size="0.011952" fill="hsl(180.0,100%,20%)">jie.a.chen</text>
<text x="1.506" y="0.626" font-size="0.011952" fill="hsl(180.0,100%,20%)">kylechar</text>
<text x="1.435" y="0.290" font-size="0.016903" fill="hsl(180.0,100%,20%)">lokokung</text>
<text x="0.471" y="0.133" font-size="0.010911" fill="hsl(0.0,100%,20%)">ccameron</text>
<text x="0.590" y="0.074" font-size="0.022887" fill="hsl(0.0,100%,20%)">vigneshv</text>
</svg>
