<svg width="4000" height="2000" viewBox="-0.025 -0.025 2.05 1.05" xmlns="http://www.w3.org/2000/svg">
  <style>
    path {
      fill: none;
      stroke-linecap: round;
      stroke-opacity: 0.4;
    }

    text {
      text-anchor: middle;
      alignment-baseline: hanging;
    }
  </style>
  <g opacity="0.4">
<path d="M0.813 0.315 Q0.434 0.595 0.898 0.842" stroke="hsl(0.0,100%,35%)" stroke-width="0.00140"></path>
<path d="M0.813 0.315 Q0.633 0.537 1.026 0.673" stroke="hsl(0.0,100%,35%)" stroke-width="0.00016"></path>
<path d="M0.813 0.315 Q1.014 0.351 1.129 0.261" stroke="hsl(0.0,100%,35%)" stroke-width="0.00342"></path>
<path d="M0.813 0.315 Q0.610 0.721 1.358 0.910" stroke="hsl(0.0,100%,35%)" stroke-width="0.00062"></path>
<path d="M0.813 0.315 Q0.796 0.482 1.119 0.527" stroke="hsl(0.0,100%,35%)" stroke-width="0.00171"></path>
<path d="M0.813 0.315 Q0.099 0.586 0.472 0.994" stroke="hsl(0.0,100%,35%)" stroke-width="0.00093"></path>
<path d="M0.813 0.315 Q1.087 0.263 1.047 0.119" stroke="hsl(0.0,100%,35%)" stroke-width="0.00202"></path>
<path d="M0.813 0.315 Q0.615 0.284 0.512 0.374" stroke="hsl(0.0,100%,35%)" stroke-width="0.00016"></path>
<path d="M0.813 0.315 Q0.961 0.432 1.221 0.385" stroke="hsl(0.0,100%,35%)" stroke-width="0.00016"></path>
<path d="M0.813 0.315 Q0.420 0.411 0.521 0.624" stroke="hsl(0.0,100%,35%)" stroke-width="0.00016"></path>
<path d="M0.813 0.315 Q0.769 0.205 0.544 0.202" stroke="hsl(0.0,100%,35%)" stroke-width="0.00016"></path>
<path d="M0.813 0.315 Q1.062 0.613 1.699 0.558" stroke="hsl(0.0,100%,35%)" stroke-width="0.00016"></path>
<path d="M0.898 0.842 Q1.074 0.968 1.358 0.910" stroke="hsl(120.0,100%,35%)" stroke-width="0.00948"></path>
<path d="M0.898 0.842 Q1.107 0.821 1.111 0.714" stroke="hsl(120.0,100%,35%)" stroke-width="0.00093"></path>
<path d="M0.898 0.842 Q0.788 0.778 0.638 0.817" stroke="hsl(120.0,100%,35%)" stroke-width="0.00575"></path>
<path d="M0.898 0.842 Q1.097 0.783 1.026 0.673" stroke="hsl(120.0,100%,35%)" stroke-width="0.00031"></path>
<path d="M0.898 0.842 Q1.551 0.510 1.047 0.119" stroke="hsl(120.0,100%,35%)" stroke-width="0.00047"></path>
<path d="M0.898 0.842 Q0.563 0.833 0.472 0.994" stroke="hsl(120.0,100%,35%)" stroke-width="0.00280"></path>
<path d="M0.898 0.842 Q0.748 0.579 0.202 0.594" stroke="hsl(120.0,100%,35%)" stroke-width="0.00621"></path>
<path d="M0.898 0.842 Q1.260 0.729 1.119 0.527" stroke="hsl(120.0,100%,35%)" stroke-width="0.00093"></path>
<path d="M0.898 0.842 Q1.010 0.695 0.748 0.608" stroke="hsl(120.0,100%,35%)" stroke-width="0.00031"></path>
<path d="M0.898 0.842 Q1.526 0.860 1.699 0.558" stroke="hsl(120.0,100%,35%)" stroke-width="0.00031"></path>
<path d="M0.898 0.842 Q1.079 0.531 0.512 0.374" stroke="hsl(120.0,100%,35%)" stroke-width="0.00016"></path>
<path d="M0.898 0.842 Q1.693 0.819 1.823 0.425" stroke="hsl(120.0,100%,35%)" stroke-width="0.00016"></path>
<path d="M0.898 0.842 Q0.938 0.755 0.776 0.716" stroke="hsl(120.0,100%,35%)" stroke-width="0.00093"></path>
<path d="M0.898 0.842 Q1.425 0.678 1.221 0.385" stroke="hsl(120.0,100%,35%)" stroke-width="0.00031"></path>
<path d="M0.898 0.842 Q1.232 0.451 0.544 0.202" stroke="hsl(120.0,100%,35%)" stroke-width="0.00016"></path>
<path d="M0.898 0.842 Q1.222 0.807 1.226 0.641" stroke="hsl(120.0,100%,35%)" stroke-width="0.00016"></path>
<path d="M1.026 0.673 Q0.717 0.667 0.638 0.817" stroke="hsl(120.0,100%,35%)" stroke-width="0.00078"></path>
<path d="M1.026 0.673 Q1.407 0.488 1.129 0.261" stroke="hsl(120.0,100%,35%)" stroke-width="0.00062"></path>
<path d="M1.026 0.673 Q0.827 0.732 0.898 0.842" stroke="hsl(120.0,100%,35%)" stroke-width="0.00047"></path>
<path d="M1.026 0.673 Q1.003 0.858 1.358 0.910" stroke="hsl(120.0,100%,35%)" stroke-width="0.00047"></path>
<path d="M1.026 0.673 Q0.678 0.469 0.202 0.594" stroke="hsl(120.0,100%,35%)" stroke-width="0.00062"></path>
<path d="M1.026 0.673 Q1.190 0.618 1.119 0.527" stroke="hsl(120.0,100%,35%)" stroke-width="0.00047"></path>
<path d="M1.129 0.261 Q1.202 0.174 1.047 0.119" stroke="hsl(0.0,100%,35%)" stroke-width="0.08513"></path>
<path d="M1.129 0.261 Q0.725 0.631 1.358 0.910" stroke="hsl(0.0,100%,35%)" stroke-width="0.00280"></path>
<path d="M1.129 0.261 Q0.911 0.392 1.119 0.527" stroke="hsl(0.0,100%,35%)" stroke-width="0.00326"></path>
<path d="M1.129 0.261 Q0.928 0.225 0.813 0.315" stroke="hsl(0.0,100%,35%)" stroke-width="0.00917"></path>
<path d="M1.129 0.261 Q0.488 0.147 0.125 0.434" stroke="hsl(0.0,100%,35%)" stroke-width="0.00186"></path>
<path d="M1.129 0.261 Q0.535 0.321 0.521 0.624" stroke="hsl(0.0,100%,35%)" stroke-width="0.00124"></path>
<path d="M1.129 0.261 Q0.549 0.505 0.898 0.842" stroke="hsl(0.0,100%,35%)" stroke-width="0.00249"></path>
<path d="M1.129 0.261 Q0.214 0.496 0.472 0.994" stroke="hsl(0.0,100%,35%)" stroke-width="0.00155"></path>
<path d="M1.129 0.261 Q0.399 0.242 0.202 0.594" stroke="hsl(0.0,100%,35%)" stroke-width="0.00808"></path>
<path d="M1.129 0.261 Q0.748 0.447 1.026 0.673" stroke="hsl(0.0,100%,35%)" stroke-width="0.00078"></path>
<path d="M1.129 0.261 Q1.233 0.425 1.575 0.410" stroke="hsl(0.0,100%,35%)" stroke-width="0.00078"></path>
<path d="M1.129 0.261 Q0.439 0.441 0.638 0.817" stroke="hsl(0.0,100%,35%)" stroke-width="0.00435"></path>
<path d="M1.129 0.261 Q0.884 0.115 0.544 0.202" stroke="hsl(0.0,100%,35%)" stroke-width="0.01786"></path>
<path d="M1.129 0.261 Q1.402 0.385 1.704 0.279" stroke="hsl(0.0,100%,35%)" stroke-width="0.00031"></path>
<path d="M1.129 0.261 Q1.076 0.342 1.221 0.385" stroke="hsl(0.0,100%,35%)" stroke-width="0.00326"></path>
<path d="M1.129 0.261 Q0.661 0.358 0.748 0.608" stroke="hsl(0.0,100%,35%)" stroke-width="0.00093"></path>
<path d="M1.129 0.261 Q1.308 0.166 1.161 0.057" stroke="hsl(0.0,100%,35%)" stroke-width="0.00016"></path>
<path d="M1.129 0.261 Q1.177 0.524 1.699 0.558" stroke="hsl(0.0,100%,35%)" stroke-width="0.00078"></path>
<path d="M1.129 0.261 Q1.345 0.482 1.823 0.425" stroke="hsl(0.0,100%,35%)" stroke-width="0.00186"></path>
<path d="M1.129 0.261 Q0.589 0.418 0.776 0.716" stroke="hsl(0.0,100%,35%)" stroke-width="0.00047"></path>
<path d="M1.129 0.261 Q0.865 0.536 1.344 0.725" stroke="hsl(0.0,100%,35%)" stroke-width="0.00016"></path>
<path d="M1.129 0.261 Q1.021 0.405 1.279 0.489" stroke="hsl(0.0,100%,35%)" stroke-width="0.00031"></path>
<path d="M1.358 0.910 Q1.835 0.452 1.047 0.119" stroke="hsl(120.0,100%,35%)" stroke-width="0.00171"></path>
<path d="M1.358 0.910 Q1.072 0.719 0.638 0.817" stroke="hsl(120.0,100%,35%)" stroke-width="0.00808"></path>
<path d="M1.358 0.910 Q1.182 0.784 0.898 0.842" stroke="hsl(120.0,100%,35%)" stroke-width="0.01274"></path>
<path d="M1.358 0.910 Q1.122 0.425 0.125 0.434" stroke="hsl(120.0,100%,35%)" stroke-width="0.00326"></path>
<path d="M1.358 0.910 Q1.033 0.521 0.202 0.594" stroke="hsl(120.0,100%,35%)" stroke-width="0.00683"></path>
<path d="M1.358 0.910 Q0.848 0.774 0.472 0.994" stroke="hsl(120.0,100%,35%)" stroke-width="0.00124"></path>
<path d="M1.358 0.910 Q1.545 0.670 1.119 0.527" stroke="hsl(120.0,100%,35%)" stroke-width="0.00078"></path>
<path d="M1.358 0.910 Q1.762 0.539 1.129 0.261" stroke="hsl(120.0,100%,35%)" stroke-width="0.00093"></path>
<path d="M1.358 0.910 Q1.810 0.802 1.699 0.558" stroke="hsl(120.0,100%,35%)" stroke-width="0.00016"></path>
<path d="M1.358 0.910 Q1.562 0.503 0.813 0.315" stroke="hsl(120.0,100%,35%)" stroke-width="0.00016"></path>
<path d="M1.358 0.910 Q1.709 0.620 1.221 0.385" stroke="hsl(120.0,100%,35%)" stroke-width="0.00031"></path>
<path d="M1.358 0.910 Q1.655 0.683 1.279 0.489" stroke="hsl(120.0,100%,35%)" stroke-width="0.00047"></path>
<path d="M1.358 0.910 Q1.222 0.696 0.776 0.716" stroke="hsl(120.0,100%,35%)" stroke-width="0.00016"></path>
<path d="M1.358 0.910 Q1.517 0.393 0.544 0.202" stroke="hsl(120.0,100%,35%)" stroke-width="0.00016"></path>
<path d="M1.119 0.527 Q0.742 0.456 0.521 0.624" stroke="hsl(240.0,100%,35%)" stroke-width="0.00093"></path>
<path d="M1.119 0.527 Q1.336 0.396 1.129 0.261" stroke="hsl(240.0,100%,35%)" stroke-width="0.00357"></path>
<path d="M1.119 0.527 Q0.868 0.493 0.748 0.608" stroke="hsl(240.0,100%,35%)" stroke-width="0.00575"></path>
<path d="M1.119 0.527 Q0.646 0.576 0.638 0.817" stroke="hsl(240.0,100%,35%)" stroke-width="0.00311"></path>
<path d="M1.119 0.527 Q0.696 0.282 0.125 0.434" stroke="hsl(240.0,100%,35%)" stroke-width="0.00155"></path>
<path d="M1.119 0.527 Q1.410 0.308 1.047 0.119" stroke="hsl(240.0,100%,35%)" stroke-width="0.00917"></path>
<path d="M1.119 0.527 Q0.938 0.329 0.512 0.374" stroke="hsl(240.0,100%,35%)" stroke-width="0.00497"></path>
<path d="M1.119 0.527 Q1.610 0.520 1.704 0.279" stroke="hsl(240.0,100%,35%)" stroke-width="0.00388"></path>
<path d="M1.119 0.527 Q1.081 0.605 1.226 0.641" stroke="hsl(240.0,100%,35%)" stroke-width="0.00388"></path>
<path d="M1.119 0.527 Q1.552 0.617 1.823 0.425" stroke="hsl(240.0,100%,35%)" stroke-width="0.00186"></path>
<path d="M1.119 0.527 Q1.283 0.477 1.221 0.385" stroke="hsl(240.0,100%,35%)" stroke-width="0.01196"></path>
<path d="M1.119 0.527 Q0.756 0.640 0.898 0.842" stroke="hsl(240.0,100%,35%)" stroke-width="0.00202"></path>
<path d="M1.119 0.527 Q0.607 0.377 0.202 0.594" stroke="hsl(240.0,100%,35%)" stroke-width="0.00233"></path>
<path d="M1.119 0.527 Q0.422 0.631 0.472 0.994" stroke="hsl(240.0,100%,35%)" stroke-width="0.00404"></path>
<path d="M1.119 0.527 Q0.984 0.487 0.875 0.543" stroke="hsl(240.0,100%,35%)" stroke-width="0.00544"></path>
<path d="M1.119 0.527 Q1.229 0.540 1.279 0.489" stroke="hsl(240.0,100%,35%)" stroke-width="0.00078"></path>
<path d="M1.119 0.527 Q1.440 0.559 1.575 0.410" stroke="hsl(240.0,100%,35%)" stroke-width="0.00140"></path>
<path d="M1.119 0.527 Q0.966 0.619 1.111 0.714" stroke="hsl(240.0,100%,35%)" stroke-width="0.00016"></path>
<path d="M1.119 0.527 Q1.136 0.360 0.813 0.315" stroke="hsl(240.0,100%,35%)" stroke-width="0.00047"></path>
<path d="M1.119 0.527 Q1.072 0.671 1.344 0.725" stroke="hsl(240.0,100%,35%)" stroke-width="0.00047"></path>
<path d="M1.119 0.527 Q1.175 0.404 0.946 0.349" stroke="hsl(240.0,100%,35%)" stroke-width="0.00016"></path>
<path d="M1.119 0.527 Q0.990 0.405 0.725 0.441" stroke="hsl(240.0,100%,35%)" stroke-width="0.00016"></path>
<path d="M1.119 0.527 Q1.384 0.658 1.699 0.558" stroke="hsl(240.0,100%,35%)" stroke-width="0.00031"></path>
<path d="M1.119 0.527 Q0.965 0.467 0.814 0.528" stroke="hsl(240.0,100%,35%)" stroke-width="0.00202"></path>
<path d="M1.119 0.527 Q1.296 0.603 1.484 0.534" stroke="hsl(240.0,100%,35%)" stroke-width="0.00031"></path>
<path d="M0.472 0.994 Q0.806 1.003 0.898 0.842" stroke="hsl(120.0,100%,35%)" stroke-width="0.00699"></path>
<path d="M0.472 0.994 Q0.697 0.939 0.638 0.817" stroke="hsl(120.0,100%,35%)" stroke-width="0.00342"></path>
<path d="M0.472 0.994 Q0.983 1.129 1.358 0.910" stroke="hsl(120.0,100%,35%)" stroke-width="0.00186"></path>
<path d="M0.472 0.994 Q0.657 0.740 0.202 0.594" stroke="hsl(120.0,100%,35%)" stroke-width="0.00295"></path>
<path d="M0.472 0.994 Q1.460 0.671 1.047 0.119" stroke="hsl(120.0,100%,35%)" stroke-width="0.00621"></path>
<path d="M0.472 0.994 Q1.169 0.890 1.119 0.527" stroke="hsl(120.0,100%,35%)" stroke-width="0.00031"></path>
<path d="M0.472 0.994 Q1.186 0.723 0.813 0.315" stroke="hsl(120.0,100%,35%)" stroke-width="0.00031"></path>
<path d="M0.472 0.994 Q1.334 0.839 1.221 0.385" stroke="hsl(120.0,100%,35%)" stroke-width="0.00062"></path>
<path d="M0.472 0.994 Q1.131 0.968 1.226 0.641" stroke="hsl(120.0,100%,35%)" stroke-width="0.00016"></path>
<path d="M0.472 0.994 Q1.387 0.759 1.129 0.261" stroke="hsl(120.0,100%,35%)" stroke-width="0.00016"></path>
<path d="M0.472 0.994 Q1.434 1.021 1.699 0.558" stroke="hsl(120.0,100%,35%)" stroke-width="0.00016"></path>
<path d="M0.472 0.994 Q1.123 1.034 1.344 0.725" stroke="hsl(120.0,100%,35%)" stroke-width="0.00016"></path>
<path d="M0.472 0.994 Q0.746 0.645 0.125 0.434" stroke="hsl(120.0,100%,35%)" stroke-width="0.00016"></path>
<path d="M0.472 0.994 Q0.847 0.916 0.776 0.716" stroke="hsl(120.0,100%,35%)" stroke-width="0.00031"></path>
<path d="M1.047 0.119 Q0.333 0.092 0.125 0.434" stroke="hsl(0.0,100%,35%)" stroke-width="0.00559"></path>
<path d="M1.047 0.119 Q0.974 0.206 1.129 0.261" stroke="hsl(0.0,100%,35%)" stroke-width="0.01196"></path>
<path d="M1.047 0.119 Q0.756 0.337 1.119 0.527" stroke="hsl(0.0,100%,35%)" stroke-width="0.00264"></path>
<path d="M1.047 0.119 Q0.394 0.450 0.898 0.842" stroke="hsl(0.0,100%,35%)" stroke-width="0.00202"></path>
<path d="M1.047 0.119 Q0.244 0.188 0.202 0.594" stroke="hsl(0.0,100%,35%)" stroke-width="0.00186"></path>
<path d="M1.047 0.119 Q0.059 0.441 0.472 0.994" stroke="hsl(0.0,100%,35%)" stroke-width="0.00466"></path>
<path d="M1.047 0.119 Q0.284 0.386 0.638 0.817" stroke="hsl(0.0,100%,35%)" stroke-width="0.00513"></path>
<path d="M1.047 0.119 Q0.380 0.266 0.521 0.624" stroke="hsl(0.0,100%,35%)" stroke-width="0.00047"></path>
<path d="M1.047 0.119 Q0.570 0.576 1.358 0.910" stroke="hsl(0.0,100%,35%)" stroke-width="0.00047"></path>
<path d="M1.047 0.119 Q1.190 0.427 1.823 0.425" stroke="hsl(0.0,100%,35%)" stroke-width="0.00062"></path>
<path d="M1.047 0.119 Q0.773 0.170 0.813 0.315" stroke="hsl(0.0,100%,35%)" stroke-width="0.00078"></path>
<path d="M1.047 0.119 Q0.719 0.415 1.226 0.641" stroke="hsl(0.0,100%,35%)" stroke-width="0.00078"></path>
<path d="M1.047 0.119 Q1.248 0.330 1.704 0.279" stroke="hsl(0.0,100%,35%)" stroke-width="0.00016"></path>
<path d="M1.047 0.119 Q0.921 0.287 1.221 0.385" stroke="hsl(0.0,100%,35%)" stroke-width="0.00078"></path>
<path d="M1.047 0.119 Q0.729 0.060 0.544 0.202" stroke="hsl(0.0,100%,35%)" stroke-width="0.00093"></path>
<path d="M1.047 0.119 Q0.603 0.277 0.814 0.528" stroke="hsl(0.0,100%,35%)" stroke-width="0.00016"></path>
<path d="M1.047 0.119 Q0.506 0.303 0.748 0.608" stroke="hsl(0.0,100%,35%)" stroke-width="0.00047"></path>
<path d="M1.047 0.119 Q0.710 0.481 1.344 0.725" stroke="hsl(0.0,100%,35%)" stroke-width="0.00031"></path>
<path d="M1.047 0.119 Q1.022 0.469 1.699 0.558" stroke="hsl(0.0,100%,35%)" stroke-width="0.00093"></path>
<path d="M1.047 0.119 Q0.575 0.140 0.512 0.374" stroke="hsl(0.0,100%,35%)" stroke-width="0.00031"></path>
<path d="M0.512 0.374 Q0.656 0.650 1.226 0.641" stroke="hsl(240.0,100%,35%)" stroke-width="0.00186"></path>
<path d="M0.512 0.374 Q0.270 0.327 0.125 0.434" stroke="hsl(240.0,100%,35%)" stroke-width="0.00016"></path>
<path d="M0.512 0.374 Q0.443 0.538 0.748 0.608" stroke="hsl(240.0,100%,35%)" stroke-width="0.00155"></path>
<path d="M0.512 0.374 Q-0.003 0.676 0.472 0.994" stroke="hsl(240.0,100%,35%)" stroke-width="0.00016"></path>
<path d="M0.512 0.374 Q0.693 0.572 1.119 0.527" stroke="hsl(240.0,100%,35%)" stroke-width="0.00062"></path>
<path d="M0.512 0.374 Q0.181 0.422 0.202 0.594" stroke="hsl(240.0,100%,35%)" stroke-width="0.00047"></path>
<path d="M0.512 0.374 Q0.221 0.621 0.638 0.817" stroke="hsl(240.0,100%,35%)" stroke-width="0.00016"></path>
<path d="M0.512 0.374 Q0.559 0.531 0.875 0.543" stroke="hsl(240.0,100%,35%)" stroke-width="0.00016"></path>
<path d="M0.512 0.374 Q0.984 0.353 1.047 0.119" stroke="hsl(240.0,100%,35%)" stroke-width="0.00016"></path>
<path d="M0.512 0.374 Q0.647 0.716 1.344 0.725" stroke="hsl(240.0,100%,35%)" stroke-width="0.00016"></path>
<path d="M1.221 0.385 Q1.379 0.468 1.575 0.410" stroke="hsl(240.0,100%,35%)" stroke-width="0.00124"></path>
<path d="M1.221 0.385 Q1.057 0.436 1.119 0.527" stroke="hsl(240.0,100%,35%)" stroke-width="0.00124"></path>
<path d="M1.221 0.385 Q0.634 0.190 0.125 0.434" stroke="hsl(240.0,100%,35%)" stroke-width="0.01227"></path>
<path d="M1.221 0.385 Q1.348 0.217 1.047 0.119" stroke="hsl(240.0,100%,35%)" stroke-width="0.00171"></path>
<path d="M1.221 0.385 Q1.322 0.567 1.699 0.558" stroke="hsl(240.0,100%,35%)" stroke-width="0.00140"></path>
<path d="M1.221 0.385 Q1.274 0.305 1.129 0.261" stroke="hsl(240.0,100%,35%)" stroke-width="0.00062"></path>
<path d="M1.221 0.385 Q0.806 0.402 0.748 0.608" stroke="hsl(240.0,100%,35%)" stroke-width="0.00016"></path>
<path d="M1.221 0.385 Q0.545 0.286 0.202 0.594" stroke="hsl(240.0,100%,35%)" stroke-width="0.00031"></path>
<path d="M1.221 0.385 Q0.871 0.675 1.358 0.910" stroke="hsl(240.0,100%,35%)" stroke-width="0.00016"></path>
<path d="M1.221 0.385 Q1.698 0.302 1.640 0.051" stroke="hsl(240.0,100%,35%)" stroke-width="0.00031"></path>
<path d="M1.221 0.385 Q1.490 0.526 1.823 0.425" stroke="hsl(240.0,100%,35%)" stroke-width="0.00016"></path>
<path d="M1.221 0.385 Q0.584 0.484 0.638 0.817" stroke="hsl(240.0,100%,35%)" stroke-width="0.00031"></path>
<path d="M1.221 0.385 Q0.681 0.365 0.521 0.624" stroke="hsl(240.0,100%,35%)" stroke-width="0.00031"></path>
<path d="M1.221 0.385 Q0.694 0.549 0.898 0.842" stroke="hsl(240.0,100%,35%)" stroke-width="0.00031"></path>
<path d="M1.221 0.385 Q1.011 0.580 1.344 0.725" stroke="hsl(240.0,100%,35%)" stroke-width="0.00031"></path>
<path d="M0.521 0.624 Q0.898 0.695 1.119 0.527" stroke="hsl(240.0,100%,35%)" stroke-width="0.00062"></path>
<path d="M0.521 0.624 Q1.062 0.645 1.221 0.385" stroke="hsl(240.0,100%,35%)" stroke-width="0.00311"></path>
<path d="M0.521 0.624 Q0.386 0.545 0.202 0.594" stroke="hsl(240.0,100%,35%)" stroke-width="0.00031"></path>
<path d="M0.521 0.624 Q0.711 0.934 1.358 0.910" stroke="hsl(240.0,100%,35%)" stroke-width="0.00016"></path>
<path d="M0.521 0.624 Q1.188 0.476 1.047 0.119" stroke="hsl(240.0,100%,35%)" stroke-width="0.00093"></path>
<path d="M0.521 0.624 Q0.474 0.450 0.125 0.434" stroke="hsl(240.0,100%,35%)" stroke-width="0.00047"></path>
<path d="M0.521 0.624 Q1.163 0.826 1.699 0.558" stroke="hsl(240.0,100%,35%)" stroke-width="0.00016"></path>
<path d="M0.521 0.624 Q1.115 0.564 1.129 0.261" stroke="hsl(240.0,100%,35%)" stroke-width="0.00217"></path>
<path d="M0.521 0.624 Q1.389 0.688 1.704 0.279" stroke="hsl(240.0,100%,35%)" stroke-width="0.00016"></path>
<path d="M0.521 0.624 Q0.478 0.789 0.790 0.846" stroke="hsl(240.0,100%,35%)" stroke-width="0.00031"></path>
<path d="M0.521 0.624 Q1.219 0.727 1.575 0.410" stroke="hsl(240.0,100%,35%)" stroke-width="0.00031"></path>
<path d="M0.544 0.202 Q0.789 0.349 1.129 0.261" stroke="hsl(0.0,100%,35%)" stroke-width="0.01631"></path>
<path d="M0.544 0.202 Q0.589 0.312 0.813 0.315" stroke="hsl(0.0,100%,35%)" stroke-width="0.00031"></path>
<path d="M0.544 0.202 Q0.863 0.261 1.047 0.119" stroke="hsl(0.0,100%,35%)" stroke-width="0.00715"></path>
<path d="M0.544 0.202 Q-0.125 0.584 0.472 0.994" stroke="hsl(0.0,100%,35%)" stroke-width="0.00031"></path>
<path d="M1.699 0.558 Q1.071 0.540 0.898 0.842" stroke="hsl(240.0,100%,35%)" stroke-width="0.00031"></path>
<path d="M1.699 0.558 Q1.867 0.516 1.823 0.425" stroke="hsl(240.0,100%,35%)" stroke-width="0.00186"></path>
<path d="M1.699 0.558 Q1.724 0.208 1.047 0.119" stroke="hsl(240.0,100%,35%)" stroke-width="0.00047"></path>
<path d="M1.699 0.558 Q1.651 0.296 1.129 0.261" stroke="hsl(240.0,100%,35%)" stroke-width="0.00016"></path>
<path d="M1.699 0.558 Q1.280 0.366 0.814 0.528" stroke="hsl(240.0,100%,35%)" stroke-width="0.00047"></path>
<path d="M1.699 0.558 Q0.961 0.475 0.638 0.817" stroke="hsl(240.0,100%,35%)" stroke-width="0.00016"></path>
<path d="M1.699 0.558 Q1.387 0.571 1.344 0.725" stroke="hsl(240.0,100%,35%)" stroke-width="0.00016"></path>
<path d="M1.226 0.641 Q1.013 0.529 0.748 0.608" stroke="hsl(240.0,100%,35%)" stroke-width="0.00031"></path>
<path d="M1.226 0.641 Q1.082 0.365 0.512 0.374" stroke="hsl(240.0,100%,35%)" stroke-width="0.00186"></path>
<path d="M1.226 0.641 Q1.217 0.707 1.344 0.725" stroke="hsl(240.0,100%,35%)" stroke-width="0.00016"></path>
<path d="M1.226 0.641 Q1.263 0.562 1.119 0.527" stroke="hsl(240.0,100%,35%)" stroke-width="0.00016"></path>
<path d="M1.226 0.641 Q1.554 0.344 1.047 0.119" stroke="hsl(240.0,100%,35%)" stroke-width="0.00016"></path>
<path d="M1.226 0.641 Q1.529 0.694 1.699 0.558" stroke="hsl(240.0,100%,35%)" stroke-width="0.00016"></path>
<path d="M1.226 0.641 Q1.481 0.432 1.129 0.261" stroke="hsl(240.0,100%,35%)" stroke-width="0.00031"></path>
<path d="M1.226 0.641 Q1.373 0.576 1.279 0.489" stroke="hsl(240.0,100%,35%)" stroke-width="0.00016"></path>
<path d="M0.748 0.608 Q0.960 0.720 1.226 0.641" stroke="hsl(240.0,100%,35%)" stroke-width="0.00093"></path>
<path d="M0.748 0.608 Q0.635 0.755 0.898 0.842" stroke="hsl(240.0,100%,35%)" stroke-width="0.00093"></path>
<path d="M0.748 0.608 Q0.998 0.642 1.119 0.527" stroke="hsl(240.0,100%,35%)" stroke-width="0.00016"></path>
<path d="M0.748 0.608 Q0.817 0.444 0.512 0.374" stroke="hsl(240.0,100%,35%)" stroke-width="0.00093"></path>
<path d="M0.748 0.608 Q1.216 0.511 1.129 0.261" stroke="hsl(240.0,100%,35%)" stroke-width="0.00031"></path>
<path d="M0.748 0.608 Q1.163 0.591 1.221 0.385" stroke="hsl(240.0,100%,35%)" stroke-width="0.00047"></path>
<path d="M0.748 0.608 Q1.108 0.655 1.279 0.489" stroke="hsl(240.0,100%,35%)" stroke-width="0.00016"></path>
<path d="M0.748 0.608 Q1.289 0.423 1.047 0.119" stroke="hsl(240.0,100%,35%)" stroke-width="0.00016"></path>
<path d="M1.344 0.725 Q1.478 0.729 1.515 0.665" stroke="hsl(240.0,100%,35%)" stroke-width="0.00016"></path>
<path d="M1.344 0.725 Q1.352 0.659 1.226 0.641" stroke="hsl(240.0,100%,35%)" stroke-width="0.00093"></path>
<path d="M1.344 0.725 Q1.390 0.581 1.119 0.527" stroke="hsl(240.0,100%,35%)" stroke-width="0.00016"></path>
<path d="M1.344 0.725 Q1.140 0.547 0.748 0.608" stroke="hsl(240.0,100%,35%)" stroke-width="0.00016"></path>
<path d="M1.279 0.489 Q1.169 0.476 1.119 0.527" stroke="hsl(240.0,100%,35%)" stroke-width="0.00047"></path>
<path d="M1.279 0.489 Q0.982 0.715 1.358 0.910" stroke="hsl(240.0,100%,35%)" stroke-width="0.00062"></path>
<path d="M1.279 0.489 Q1.333 0.426 1.221 0.385" stroke="hsl(240.0,100%,35%)" stroke-width="0.00093"></path>
<path d="M1.279 0.489 Q0.806 0.589 0.898 0.842" stroke="hsl(240.0,100%,35%)" stroke-width="0.00016"></path>
<path d="M1.279 0.489 Q1.122 0.620 1.344 0.725" stroke="hsl(240.0,100%,35%)" stroke-width="0.00016"></path>
<path d="M1.279 0.489 Q0.987 0.279 0.512 0.374" stroke="hsl(240.0,100%,35%)" stroke-width="0.00047"></path>
<path d="M1.279 0.489 Q0.918 0.442 0.748 0.608" stroke="hsl(240.0,100%,35%)" stroke-width="0.00047"></path>
<path d="M1.279 0.489 Q1.034 0.436 0.875 0.543" stroke="hsl(240.0,100%,35%)" stroke-width="0.00031"></path>
<path d="M0.125 0.434 Q0.838 0.461 1.047 0.119" stroke="hsl(120.0,100%,35%)" stroke-width="0.00994"></path>
<path d="M0.125 0.434 Q0.869 0.712 1.575 0.410" stroke="hsl(120.0,100%,35%)" stroke-width="0.00031"></path>
<path d="M0.125 0.434 Q0.036 0.530 0.202 0.594" stroke="hsl(120.0,100%,35%)" stroke-width="0.03060"></path>
<path d="M0.125 0.434 Q0.712 0.629 1.221 0.385" stroke="hsl(120.0,100%,35%)" stroke-width="0.00683"></path>
<path d="M0.125 0.434 Q0.361 0.919 1.358 0.910" stroke="hsl(120.0,100%,35%)" stroke-width="0.00295"></path>
<path d="M0.125 0.434 Q0.765 0.549 1.129 0.261" stroke="hsl(120.0,100%,35%)" stroke-width="0.00295"></path>
<path d="M0.125 0.434 Q0.548 0.679 1.119 0.527" stroke="hsl(120.0,100%,35%)" stroke-width="0.00078"></path>
<path d="M0.125 0.434 Q-0.149 0.784 0.472 0.994" stroke="hsl(120.0,100%,35%)" stroke-width="0.00062"></path>
<path d="M0.125 0.434 Q0.185 0.793 0.898 0.842" stroke="hsl(120.0,100%,35%)" stroke-width="0.00155"></path>
<path d="M0.125 0.434 Q0.510 0.758 1.226 0.641" stroke="hsl(120.0,100%,35%)" stroke-width="0.00016"></path>
<path d="M0.125 0.434 Q0.075 0.728 0.638 0.817" stroke="hsl(120.0,100%,35%)" stroke-width="0.00078"></path>
<path d="M0.125 0.434 Q0.565 0.512 0.813 0.315" stroke="hsl(120.0,100%,35%)" stroke-width="0.00016"></path>
<path d="M0.125 0.434 Q0.520 0.402 0.544 0.202" stroke="hsl(120.0,100%,35%)" stroke-width="0.00016"></path>
<path d="M0.125 0.434 Q0.128 0.773 0.790 0.846" stroke="hsl(120.0,100%,35%)" stroke-width="0.00016"></path>
<path d="M0.125 0.434 Q0.225 0.705 0.776 0.716" stroke="hsl(120.0,100%,35%)" stroke-width="0.00016"></path>
<path d="M0.202 0.594 Q0.242 0.793 0.638 0.817" stroke="hsl(120.0,100%,35%)" stroke-width="0.01817"></path>
<path d="M0.202 0.594 Q1.005 0.525 1.047 0.119" stroke="hsl(120.0,100%,35%)" stroke-width="0.00311"></path>
<path d="M0.202 0.594 Q0.561 0.836 1.111 0.714" stroke="hsl(120.0,100%,35%)" stroke-width="0.00016"></path>
<path d="M0.202 0.594 Q0.528 0.983 1.358 0.910" stroke="hsl(120.0,100%,35%)" stroke-width="0.00808"></path>
<path d="M0.202 0.594 Q0.352 0.857 0.898 0.842" stroke="hsl(120.0,100%,35%)" stroke-width="0.00668"></path>
<path d="M0.202 0.594 Q0.715 0.744 1.119 0.527" stroke="hsl(120.0,100%,35%)" stroke-width="0.00031"></path>
<path d="M0.202 0.594 Q0.932 0.613 1.129 0.261" stroke="hsl(120.0,100%,35%)" stroke-width="0.00186"></path>
<path d="M0.202 0.594 Q0.677 0.822 1.226 0.641" stroke="hsl(120.0,100%,35%)" stroke-width="0.00109"></path>
<path d="M0.202 0.594 Q0.291 0.499 0.125 0.434" stroke="hsl(120.0,100%,35%)" stroke-width="0.00078"></path>
<path d="M0.202 0.594 Q0.533 0.546 0.512 0.374" stroke="hsl(120.0,100%,35%)" stroke-width="0.00031"></path>
<path d="M0.202 0.594 Q0.392 0.770 0.776 0.716" stroke="hsl(120.0,100%,35%)" stroke-width="0.00016"></path>
<path d="M0.202 0.594 Q0.018 0.848 0.472 0.994" stroke="hsl(120.0,100%,35%)" stroke-width="0.00047"></path>
<path d="M0.638 0.817 Q0.748 0.881 0.898 0.842" stroke="hsl(120.0,100%,35%)" stroke-width="0.00746"></path>
<path d="M0.638 0.817 Q0.598 0.619 0.202 0.594" stroke="hsl(120.0,100%,35%)" stroke-width="0.01243"></path>
<path d="M0.638 0.817 Q0.947 0.823 1.026 0.673" stroke="hsl(120.0,100%,35%)" stroke-width="0.00062"></path>
<path d="M0.638 0.817 Q0.924 1.007 1.358 0.910" stroke="hsl(120.0,100%,35%)" stroke-width="0.00917"></path>
<path d="M0.638 0.817 Q0.957 0.860 1.111 0.714" stroke="hsl(120.0,100%,35%)" stroke-width="0.00078"></path>
<path d="M0.638 0.817 Q0.414 0.872 0.472 0.994" stroke="hsl(120.0,100%,35%)" stroke-width="0.00155"></path>
<path d="M0.638 0.817 Q1.401 0.550 1.047 0.119" stroke="hsl(120.0,100%,35%)" stroke-width="0.00404"></path>
<path d="M0.638 0.817 Q1.328 0.637 1.129 0.261" stroke="hsl(120.0,100%,35%)" stroke-width="0.00109"></path>
<path d="M0.638 0.817 Q1.111 0.768 1.119 0.527" stroke="hsl(120.0,100%,35%)" stroke-width="0.00186"></path>
<path d="M0.638 0.817 Q1.432 0.801 1.575 0.410" stroke="hsl(120.0,100%,35%)" stroke-width="0.00016"></path>
<path d="M0.638 0.817 Q1.544 0.858 1.823 0.425" stroke="hsl(120.0,100%,35%)" stroke-width="0.00016"></path>
<path d="M0.638 0.817 Q0.687 0.523 0.125 0.434" stroke="hsl(120.0,100%,35%)" stroke-width="0.00078"></path>
<path d="M0.638 0.817 Q0.929 0.571 0.512 0.374" stroke="hsl(120.0,100%,35%)" stroke-width="0.00016"></path>
<path d="M0.638 0.817 Q1.602 0.761 1.704 0.279" stroke="hsl(120.0,100%,35%)" stroke-width="0.00016"></path>
<path d="M0.638 0.817 Q1.275 0.718 1.221 0.385" stroke="hsl(120.0,100%,35%)" stroke-width="0.00031"></path>
<path d="M0.638 0.817 Q0.788 0.794 0.776 0.716" stroke="hsl(120.0,100%,35%)" stroke-width="0.00233"></path>
<path d="M0.638 0.817 Q0.691 0.862 0.790 0.846" stroke="hsl(120.0,100%,35%)" stroke-width="0.00047"></path>
<path d="M1.823 0.425 Q1.655 0.467 1.699 0.558" stroke="hsl(240.0,100%,35%)" stroke-width="0.00155"></path>
<path d="M1.823 0.425 Q1.027 0.449 0.898 0.842" stroke="hsl(240.0,100%,35%)" stroke-width="0.00093"></path>
<path d="M1.823 0.425 Q1.209 0.138 0.512 0.374" stroke="hsl(240.0,100%,35%)" stroke-width="0.00047"></path>
<path d="M1.823 0.425 Q1.680 0.117 1.047 0.119" stroke="hsl(240.0,100%,35%)" stroke-width="0.00047"></path>
<path d="M1.823 0.425 Q0.967 0.090 0.125 0.434" stroke="hsl(240.0,100%,35%)" stroke-width="0.00016"></path>
<path d="M1.823 0.425 Q1.607 0.204 1.129 0.261" stroke="hsl(240.0,100%,35%)" stroke-width="0.00016"></path>
<path d="M1.823 0.425 Q0.693 0.439 0.472 0.994" stroke="hsl(240.0,100%,35%)" stroke-width="0.00016"></path>
<path d="M1.823 0.425 Q1.343 0.480 1.344 0.725" stroke="hsl(240.0,100%,35%)" stroke-width="0.00016"></path>
<path d="M1.823 0.425 Q1.390 0.335 1.119 0.527" stroke="hsl(240.0,100%,35%)" stroke-width="0.00047"></path>
<path d="M1.704 0.279 Q1.646 0.376 1.823 0.425" stroke="hsl(240.0,100%,35%)" stroke-width="0.00016"></path>
<path d="M1.704 0.279 Q1.534 0.318 1.575 0.410" stroke="hsl(240.0,100%,35%)" stroke-width="0.00419"></path>
<path d="M1.704 0.279 Q1.213 0.286 1.119 0.527" stroke="hsl(240.0,100%,35%)" stroke-width="0.00109"></path>
<path d="M1.704 0.279 Q1.377 0.236 1.221 0.385" stroke="hsl(240.0,100%,35%)" stroke-width="0.00047"></path>
<path d="M1.704 0.279 Q1.430 0.155 1.129 0.261" stroke="hsl(240.0,100%,35%)" stroke-width="0.00031"></path>
<path d="M1.704 0.279 Q1.503 0.067 1.047 0.119" stroke="hsl(240.0,100%,35%)" stroke-width="0.00031"></path>
<path d="M1.704 0.279 Q0.516 0.390 0.472 0.994" stroke="hsl(240.0,100%,35%)" stroke-width="0.00031"></path>
<path d="M0.814 0.528 Q0.968 0.589 1.119 0.527" stroke="hsl(240.0,100%,35%)" stroke-width="0.00062"></path>
<path d="M0.814 0.528 Q1.233 0.720 1.699 0.558" stroke="hsl(240.0,100%,35%)" stroke-width="0.00140"></path>
<path d="M0.814 0.528 Q1.259 0.370 1.047 0.119" stroke="hsl(240.0,100%,35%)" stroke-width="0.00016"></path>
<path d="M0.814 0.528 Q1.401 0.679 1.823 0.425" stroke="hsl(240.0,100%,35%)" stroke-width="0.00031"></path>
<path d="M0.776 0.716 Q0.626 0.739 0.638 0.817" stroke="hsl(120.0,100%,35%)" stroke-width="0.00419"></path>
<path d="M0.776 0.716 Q0.736 0.803 0.898 0.842" stroke="hsl(120.0,100%,35%)" stroke-width="0.00357"></path>
<path d="M0.776 0.716 Q0.912 0.929 1.358 0.910" stroke="hsl(120.0,100%,35%)" stroke-width="0.00047"></path>
<path d="M0.776 0.716 Q1.590 0.683 1.704 0.279" stroke="hsl(120.0,100%,35%)" stroke-width="0.00016"></path>
<path d="M0.776 0.716 Q0.587 0.540 0.202 0.594" stroke="hsl(120.0,100%,35%)" stroke-width="0.00062"></path>
<path d="M0.776 0.716 Q1.389 0.471 1.047 0.119" stroke="hsl(120.0,100%,35%)" stroke-width="0.00031"></path>
<path d="M0.776 0.716 Q0.676 0.445 0.125 0.434" stroke="hsl(120.0,100%,35%)" stroke-width="0.00031"></path>
<path d="M0.776 0.716 Q0.402 0.794 0.472 0.994" stroke="hsl(120.0,100%,35%)" stroke-width="0.00062"></path>
<path d="M1.575 0.410 Q1.417 0.327 1.221 0.385" stroke="hsl(240.0,100%,35%)" stroke-width="0.00249"></path>
<path d="M1.575 0.410 Q0.780 0.426 0.638 0.817" stroke="hsl(240.0,100%,35%)" stroke-width="0.00031"></path>
<path d="M1.575 0.410 Q1.090 0.432 1.026 0.673" stroke="hsl(240.0,100%,35%)" stroke-width="0.00016"></path>
<path d="M1.575 0.410 Q1.744 0.370 1.704 0.279" stroke="hsl(240.0,100%,35%)" stroke-width="0.00388"></path>
<path d="M1.575 0.410 Q0.556 0.481 0.472 0.994" stroke="hsl(240.0,100%,35%)" stroke-width="0.00093"></path>
<path d="M1.575 0.410 Q1.544 0.159 1.047 0.119" stroke="hsl(240.0,100%,35%)" stroke-width="0.00202"></path>
<path d="M1.575 0.410 Q0.830 0.132 0.125 0.434" stroke="hsl(240.0,100%,35%)" stroke-width="0.00016"></path>
<path d="M1.575 0.410 Q1.470 0.246 1.129 0.261" stroke="hsl(240.0,100%,35%)" stroke-width="0.00016"></path>
<path d="M1.575 0.410 Q0.876 0.306 0.521 0.624" stroke="hsl(240.0,100%,35%)" stroke-width="0.00016"></path>
<path d="M1.575 0.410 Q1.253 0.377 1.119 0.527" stroke="hsl(240.0,100%,35%)" stroke-width="0.00093"></path>
<path d="M1.575 0.410 Q0.890 0.490 0.898 0.842" stroke="hsl(240.0,100%,35%)" stroke-width="0.00016"></path>
<path d="M1.575 0.410 Q1.518 0.509 1.699 0.558" stroke="hsl(240.0,100%,35%)" stroke-width="0.00016"></path>
<path d="M1.575 0.410 Q1.124 0.256 0.725 0.441" stroke="hsl(240.0,100%,35%)" stroke-width="0.00016"></path>
<path d="M1.575 0.410 Q0.833 0.471 0.790 0.846" stroke="hsl(240.0,100%,35%)" stroke-width="0.00016"></path>
<path d="M1.575 0.410 Q1.686 0.467 1.823 0.425" stroke="hsl(240.0,100%,35%)" stroke-width="0.00016"></path>
<path d="M1.640 0.051 Q1.163 0.134 1.221 0.385" stroke="hsl(240.0,100%,35%)" stroke-width="0.00575"></path>
<path d="M1.640 0.051 Q0.999 0.185 1.119 0.527" stroke="hsl(240.0,100%,35%)" stroke-width="0.00031"></path>
<path d="M1.640 0.051 Q0.302 0.289 0.472 0.994" stroke="hsl(240.0,100%,35%)" stroke-width="0.00031"></path>
<path d="M1.640 0.051 Q1.321 0.217 1.575 0.410" stroke="hsl(240.0,100%,35%)" stroke-width="0.00093"></path>
<path d="M1.640 0.051 Q0.487 0.035 0.202 0.594" stroke="hsl(240.0,100%,35%)" stroke-width="0.00016"></path>
<path d="M1.640 0.051 Q1.264 0.316 1.699 0.558" stroke="hsl(240.0,100%,35%)" stroke-width="0.00031"></path>
<path d="M1.640 0.051 Q0.576 -0.060 0.125 0.434" stroke="hsl(240.0,100%,35%)" stroke-width="0.00016"></path>
<path d="M1.522 0.183 Q1.210 0.224 1.221 0.385" stroke="hsl(240.0,100%,35%)" stroke-width="0.00016"></path>
<path d="M1.522 0.183 Q0.682 0.388 0.898 0.842" stroke="hsl(240.0,100%,35%)" stroke-width="0.00016"></path>
<path d="M1.522 0.183 Q1.045 0.274 1.119 0.527" stroke="hsl(240.0,100%,35%)" stroke-width="0.00016"></path>
<path d="M1.522 0.183 Q1.367 0.307 1.575 0.410" stroke="hsl(240.0,100%,35%)" stroke-width="0.00016"></path>
<path d="M1.522 0.183 Q0.669 0.203 0.521 0.624" stroke="hsl(240.0,100%,35%)" stroke-width="0.00016"></path>
<path d="M1.111 0.714 Q0.753 0.472 0.202 0.594" stroke="hsl(120.0,100%,35%)" stroke-width="0.00016"></path>
<path d="M1.111 0.714 Q0.792 0.671 0.638 0.817" stroke="hsl(120.0,100%,35%)" stroke-width="0.00109"></path>
<path d="M1.111 0.714 Q0.902 0.735 0.898 0.842" stroke="hsl(120.0,100%,35%)" stroke-width="0.00109"></path>
<path d="M1.111 0.714 Q1.555 0.403 1.047 0.119" stroke="hsl(120.0,100%,35%)" stroke-width="0.00016"></path>
<path d="M1.111 0.714 Q1.265 0.622 1.119 0.527" stroke="hsl(120.0,100%,35%)" stroke-width="0.00047"></path>
<path d="M1.111 0.714 Q1.756 0.615 1.704 0.279" stroke="hsl(120.0,100%,35%)" stroke-width="0.00016"></path>
<path d="M0.204 0.812 Q1.108 0.722 1.129 0.261" stroke="hsl(240.0,100%,35%)" stroke-width="0.00016"></path>
<path d="M0.204 0.812 Q0.527 0.966 0.898 0.842" stroke="hsl(240.0,100%,35%)" stroke-width="0.00016"></path>
<path d="M0.204 0.812 Q0.378 0.703 0.202 0.594" stroke="hsl(240.0,100%,35%)" stroke-width="0.00016"></path>
<path d="M0.204 0.812 Q0.193 0.957 0.472 0.994" stroke="hsl(240.0,100%,35%)" stroke-width="0.00016"></path>
<path d="M0.204 0.812 Q0.467 0.607 0.125 0.434" stroke="hsl(240.0,100%,35%)" stroke-width="0.00016"></path>
<path d="M0.875 0.543 Q0.760 0.550 0.748 0.608" stroke="hsl(240.0,100%,35%)" stroke-width="0.00078"></path>
<path d="M0.875 0.543 Q1.010 0.584 1.119 0.527" stroke="hsl(240.0,100%,35%)" stroke-width="0.00109"></path>
<path d="M0.875 0.543 Q0.538 0.633 0.638 0.817" stroke="hsl(240.0,100%,35%)" stroke-width="0.00016"></path>
<path d="M0.875 0.543 Q0.973 0.662 1.226 0.641" stroke="hsl(240.0,100%,35%)" stroke-width="0.00031"></path>
<path d="M0.875 0.543 Q1.301 0.365 1.047 0.119" stroke="hsl(240.0,100%,35%)" stroke-width="0.00016"></path>
<path d="M0.875 0.543 Q1.276 0.715 1.699 0.558" stroke="hsl(240.0,100%,35%)" stroke-width="0.00016"></path>
<path d="M0.557 0.005 Q0.711 0.160 1.047 0.119" stroke="hsl(0.0,100%,35%)" stroke-width="0.00047"></path>
<path d="M0.557 0.005 Q0.585 0.328 1.221 0.385" stroke="hsl(0.0,100%,35%)" stroke-width="0.00016"></path>
<path d="M0.557 0.005 Q0.420 0.379 1.119 0.527" stroke="hsl(0.0,100%,35%)" stroke-width="0.00016"></path>
<path d="M0.875 0.613 Q0.690 0.548 0.521 0.624" stroke="hsl(240.0,100%,35%)" stroke-width="0.00280"></path>
<path d="M0.875 0.613 Q1.066 0.619 1.119 0.527" stroke="hsl(240.0,100%,35%)" stroke-width="0.00031"></path>
<path d="M0.875 0.613 Q1.231 0.569 1.221 0.385" stroke="hsl(240.0,100%,35%)" stroke-width="0.00078"></path>
<path d="M0.909 0.975 Q1.663 0.574 1.047 0.119" stroke="hsl(240.0,100%,35%)" stroke-width="0.00031"></path>
<path d="M0.909 0.975 Q1.537 0.742 1.221 0.385" stroke="hsl(240.0,100%,35%)" stroke-width="0.00016"></path>
<path d="M0.909 0.975 Q1.010 0.906 0.898 0.842" stroke="hsl(240.0,100%,35%)" stroke-width="0.00031"></path>
<path d="M0.791 0.913 Q0.901 0.899 0.898 0.842" stroke="hsl(240.0,100%,35%)" stroke-width="0.00078"></path>
<path d="M0.791 0.913 Q1.083 0.588 0.512 0.374" stroke="hsl(240.0,100%,35%)" stroke-width="0.00016"></path>
<path d="M0.791 0.913 Q1.129 0.745 0.875 0.543" stroke="hsl(240.0,100%,35%)" stroke-width="0.00016"></path>
<path d="M1.424 0.313 Q0.588 0.209 0.202 0.594" stroke="hsl(240.0,100%,35%)" stroke-width="0.00016"></path>
<path d="M1.424 0.313 Q1.366 0.490 1.699 0.558" stroke="hsl(240.0,100%,35%)" stroke-width="0.00031"></path>
<path d="M1.424 0.313 Q1.265 0.309 1.221 0.385" stroke="hsl(240.0,100%,35%)" stroke-width="0.00047"></path>
<path d="M1.424 0.313 Q0.677 0.114 0.125 0.434" stroke="hsl(240.0,100%,35%)" stroke-width="0.00016"></path>
</g>
<text x="0.813" y="0.301" font-size="0.026433" fill="hsl(0.0,100%,20%)">armansito</text>
<text x="0.898" y="0.817" font-size="0.050615" fill="hsl(120.0,100%,20%)">egdaniel</text>
<text x="1.026" y="0.667" font-size="0.013032" fill="hsl(120.0,100%,20%)">jamesgk</text>
<text x="1.129" y="0.222" font-size="0.078003" fill="hsl(0.0,100%,20%)">johnstiles</text>
<text x="1.358" y="0.885" font-size="0.048159" fill="hsl(120.0,100%,20%)">jvanverth</text>
<text x="1.119" y="0.500" font-size="0.053821" fill="hsl(240.0,100%,20%)">kjlubick</text>
<text x="0.472" y="0.975" font-size="0.037317" fill="hsl(120.0,100%,20%)">bsalomon</text>
<text x="1.047" y="0.081" font-size="0.074536" fill="hsl(0.0,100%,20%)">brianosman</text>
<text x="0.512" y="0.363" font-size="0.021917" fill="hsl(240.0,100%,20%)">rmistry</text>
<text x="1.221" y="0.364" font-size="0.043389" fill="hsl(240.0,100%,20%)">bungeman</text>
<text x="0.521" y="0.613" font-size="0.021582" fill="hsl(240.0,100%,20%)">jlavrova</text>
<text x="0.544" y="0.184" font-size="0.036859" fill="hsl(0.0,100%,20%)">ethannicholas</text>
<text x="1.699" y="0.548" font-size="0.019329" fill="hsl(240.0,100%,20%)">djsollen</text>
<text x="1.226" y="0.630" font-size="0.020546" fill="hsl(240.0,100%,20%)">borenet</text>
<text x="0.748" y="0.597" font-size="0.021582" fill="hsl(240.0,100%,20%)">jcgregorio</text>
<text x="1.344" y="0.720" font-size="0.010564" fill="hsl(240.0,100%,20%)">hcm</text>
<text x="1.279" y="0.483" font-size="0.013032" fill="hsl(240.0,100%,20%)">erikrose</text>
<text x="0.125" y="0.408" font-size="0.051846" fill="hsl(120.0,100%,20%)">herb</text>
<text x="0.202" y="0.564" font-size="0.060042" fill="hsl(120.0,100%,20%)">robertphillips</text>
<text x="0.638" y="0.789" font-size="0.055725" fill="hsl(120.0,100%,20%)">michaelludwig</text>
<text x="1.823" y="0.416" font-size="0.019203" fill="hsl(240.0,100%,20%)">scroggo</text>
<text x="1.704" y="0.268" font-size="0.022137" fill="hsl(240.0,100%,20%)">jmbetancourt</text>
<text x="0.814" y="0.522" font-size="0.012654" fill="hsl(240.0,100%,20%)">nifong</text>
<text x="0.776" y="0.705" font-size="0.021470" fill="hsl(120.0,100%,20%)">csmartdalton</text>
<text x="1.575" y="0.397" font-size="0.025876" fill="hsl(240.0,100%,20%)">fmalita</text>
<text x="1.640" y="0.043" font-size="0.016036" fill="hsl(240.0,100%,20%)">drott</text>
<text x="1.522" y="0.181" font-size="0.004925" fill="hsl(240.0,100%,20%)">dnfield</text>
<text x="1.111" y="0.707" font-size="0.012654" fill="hsl(120.0,100%,20%)">nicolettep</text>
<text x="0.204" y="0.810" font-size="0.004925" fill="hsl(240.0,100%,20%)">emaxx</text>
<text x="0.875" y="0.535" font-size="0.016484" fill="hsl(240.0,100%,20%)">lovisolo</text>
<text x="0.725" y="0.440" font-size="0.003115" fill="hsl(240.0,100%,20%)">tdenniston</text>
<text x="0.790" y="0.843" font-size="0.005828" fill="hsl(240.0,100%,20%)">reed</text>
<text x="1.515" y="0.663" font-size="0.002203" fill="hsl(240.0,100%,20%)">sharaks</text>
<text x="0.557" y="0.003" font-size="0.004925" fill="hsl(0.0,100%,20%)">iapres</text>
<text x="1.161" y="0.056" font-size="0.002203" fill="hsl(0.0,100%,20%)">wrightgeorge</text>
<text x="0.875" y="0.608" font-size="0.011014" fill="hsl(240.0,100%,20%)">jsimmons</text>
<text x="0.946" y="0.348" font-size="0.002203" fill="hsl(240.0,100%,20%)">cmumford</text>
<text x="1.484" y="0.532" font-size="0.003115" fill="hsl(240.0,100%,20%)">yjbanov</text>
<text x="0.909" y="0.972" font-size="0.004925" fill="hsl(240.0,100%,20%)">sergeyu</text>
<text x="0.791" y="0.910" font-size="0.005828" fill="hsl(240.0,100%,20%)">shuangshuang.zhou</text>
<text x="1.424" y="0.310" font-size="0.005828" fill="hsl(240.0,100%,20%)">thestig</text>
</svg>
