<svg width="4000" height="2000" viewBox="-0.025 -0.025 2.05 1.05" xmlns="http://www.w3.org/2000/svg">
  <style>
    path {
      fill: none;
      stroke-linecap: round;
      stroke-opacity: 0.4;
    }

    text {
      text-anchor: middle;
      alignment-baseline: hanging;
    }
  </style>
  <g opacity="0.4">
<path d="M1.312 0.322 Q1.029 0.628 1.564 0.832" stroke="hsl(0.0,100%,35%)" stroke-width="0.00056"></path>
<path d="M1.312 0.322 Q1.546 0.320 1.594 0.205" stroke="hsl(0.0,100%,35%)" stroke-width="0.00111"></path>
<path d="M1.312 0.322 Q1.050 0.419 1.183 0.568" stroke="hsl(0.0,100%,35%)" stroke-width="0.00056"></path>
<path d="M1.312 0.322 Q0.418 0.528 0.626 1.009" stroke="hsl(0.0,100%,35%)" stroke-width="0.00056"></path>
<path d="M1.312 0.322 Q1.320 0.152 0.992 0.111" stroke="hsl(0.0,100%,35%)" stroke-width="0.00056"></path>
<path d="M1.564 0.832 Q0.953 0.733 0.626 1.009" stroke="hsl(0.0,100%,35%)" stroke-width="0.00667"></path>
<path d="M1.564 0.832 Q1.868 0.486 1.260 0.262" stroke="hsl(0.0,100%,35%)" stroke-width="0.00334"></path>
<path d="M1.564 0.832 Q2.068 0.420 1.375 0.084" stroke="hsl(0.0,100%,35%)" stroke-width="0.00167"></path>
<path d="M1.564 0.832 Q1.449 0.602 0.974 0.607" stroke="hsl(0.0,100%,35%)" stroke-width="0.00056"></path>
<path d="M1.564 0.832 Q1.585 0.624 1.183 0.568" stroke="hsl(0.0,100%,35%)" stroke-width="0.00278"></path>
<path d="M1.564 0.832 Q2.081 0.525 1.594 0.205" stroke="hsl(0.0,100%,35%)" stroke-width="0.00278"></path>
<path d="M1.564 0.832 Q1.855 0.357 0.992 0.111" stroke="hsl(0.0,100%,35%)" stroke-width="0.00278"></path>
<path d="M1.564 0.832 Q1.498 0.366 0.573 0.296" stroke="hsl(0.0,100%,35%)" stroke-width="0.00111"></path>
<path d="M1.564 0.832 Q1.246 0.816 1.144 0.968" stroke="hsl(0.0,100%,35%)" stroke-width="0.00056"></path>
<path d="M1.564 0.832 Q1.129 0.682 0.740 0.861" stroke="hsl(0.0,100%,35%)" stroke-width="0.00111"></path>
<path d="M1.564 0.832 Q1.088 0.349 0.040 0.476" stroke="hsl(0.0,100%,35%)" stroke-width="0.00056"></path>
<path d="M1.594 0.205 Q1.581 0.101 1.375 0.084" stroke="hsl(180.0,100%,35%)" stroke-width="0.00945"></path>
<path d="M1.594 0.205 Q1.766 0.229 1.850 0.151" stroke="hsl(180.0,100%,35%)" stroke-width="0.01112"></path>
<path d="M1.594 0.205 Q0.875 0.119 0.549 0.450" stroke="hsl(180.0,100%,35%)" stroke-width="0.00056"></path>
<path d="M1.594 0.205 Q1.096 0.099 0.780 0.319" stroke="hsl(180.0,100%,35%)" stroke-width="0.00723"></path>
<path d="M1.594 0.205 Q1.381 0.167 1.260 0.262" stroke="hsl(180.0,100%,35%)" stroke-width="0.02780"></path>
<path d="M1.594 0.205 Q1.011 0.046 0.573 0.296" stroke="hsl(180.0,100%,35%)" stroke-width="0.00278"></path>
<path d="M1.594 0.205 Q1.368 0.038 0.992 0.111" stroke="hsl(180.0,100%,35%)" stroke-width="0.00445"></path>
<path d="M1.594 0.205 Q1.078 0.513 1.564 0.832" stroke="hsl(180.0,100%,35%)" stroke-width="0.00500"></path>
<path d="M1.594 0.205 Q0.642 0.362 0.740 0.861" stroke="hsl(180.0,100%,35%)" stroke-width="0.00111"></path>
<path d="M1.594 0.205 Q0.963 0.282 0.974 0.607" stroke="hsl(180.0,100%,35%)" stroke-width="0.00056"></path>
<path d="M1.594 0.205 Q0.467 0.413 0.626 1.009" stroke="hsl(180.0,100%,35%)" stroke-width="0.00056"></path>
<path d="M1.594 0.205 Q0.601 0.030 0.040 0.476" stroke="hsl(180.0,100%,35%)" stroke-width="0.00278"></path>
<path d="M1.183 0.568 Q0.727 0.626 0.740 0.861" stroke="hsl(0.0,100%,35%)" stroke-width="0.00612"></path>
<path d="M1.183 0.568 Q0.551 0.677 0.626 1.009" stroke="hsl(0.0,100%,35%)" stroke-width="0.00167"></path>
<path d="M1.183 0.568 Q1.180 0.363 0.780 0.319" stroke="hsl(0.0,100%,35%)" stroke-width="0.00056"></path>
<path d="M1.183 0.568 Q1.096 0.310 0.573 0.296" stroke="hsl(0.0,100%,35%)" stroke-width="0.00111"></path>
<path d="M1.183 0.568 Q0.887 0.530 0.747 0.666" stroke="hsl(0.0,100%,35%)" stroke-width="0.00056"></path>
<path d="M1.183 0.568 Q1.047 0.546 0.974 0.607" stroke="hsl(0.0,100%,35%)" stroke-width="0.00167"></path>
<path d="M1.183 0.568 Q1.292 0.517 1.215 0.452" stroke="hsl(0.0,100%,35%)" stroke-width="0.00056"></path>
<path d="M1.183 0.568 Q1.182 0.623 1.289 0.636" stroke="hsl(0.0,100%,35%)" stroke-width="0.00056"></path>
<path d="M1.183 0.568 Q1.466 0.431 1.260 0.262" stroke="hsl(0.0,100%,35%)" stroke-width="0.00056"></path>
<path d="M1.183 0.568 Q0.987 0.600 1.005 0.702" stroke="hsl(0.0,100%,35%)" stroke-width="0.00167"></path>
<path d="M1.183 0.568 Q0.686 0.293 0.040 0.476" stroke="hsl(0.0,100%,35%)" stroke-width="0.00222"></path>
<path d="M1.183 0.568 Q1.679 0.469 1.594 0.205" stroke="hsl(0.0,100%,35%)" stroke-width="0.00056"></path>
<path d="M0.626 1.009 Q1.236 1.109 1.564 0.832" stroke="hsl(0.0,100%,35%)" stroke-width="0.01557"></path>
<path d="M0.626 1.009 Q0.662 0.922 0.500 0.885" stroke="hsl(0.0,100%,35%)" stroke-width="0.00056"></path>
<path d="M0.626 1.009 Q0.801 0.958 0.740 0.861" stroke="hsl(0.0,100%,35%)" stroke-width="0.00779"></path>
<path d="M0.626 1.009 Q1.540 0.762 1.260 0.262" stroke="hsl(0.0,100%,35%)" stroke-width="0.00222"></path>
<path d="M0.626 1.009 Q1.257 0.900 1.183 0.568" stroke="hsl(0.0,100%,35%)" stroke-width="0.00779"></path>
<path d="M0.626 1.009 Q1.256 0.955 1.289 0.636" stroke="hsl(0.0,100%,35%)" stroke-width="0.00056"></path>
<path d="M0.626 1.009 Q1.170 0.642 0.573 0.296" stroke="hsl(0.0,100%,35%)" stroke-width="0.00167"></path>
<path d="M0.626 1.009 Q1.740 0.697 1.375 0.084" stroke="hsl(0.0,100%,35%)" stroke-width="0.00056"></path>
<path d="M0.626 1.009 Q1.255 0.695 0.780 0.319" stroke="hsl(0.0,100%,35%)" stroke-width="0.00056"></path>
<path d="M0.626 1.009 Q0.918 1.092 1.144 0.968" stroke="hsl(0.0,100%,35%)" stroke-width="0.00222"></path>
<path d="M0.626 1.009 Q1.122 0.878 0.974 0.607" stroke="hsl(0.0,100%,35%)" stroke-width="0.00056"></path>
<path d="M0.626 1.009 Q0.760 0.625 0.040 0.476" stroke="hsl(0.0,100%,35%)" stroke-width="0.00056"></path>
<path d="M0.626 1.009 Q1.753 0.801 1.594 0.205" stroke="hsl(0.0,100%,35%)" stroke-width="0.00111"></path>
<path d="M0.992 0.111 Q1.041 0.540 1.888 0.610" stroke="hsl(180.0,100%,35%)" stroke-width="0.00111"></path>
<path d="M0.992 0.111 Q0.719 0.173 0.780 0.319" stroke="hsl(180.0,100%,35%)" stroke-width="0.00500"></path>
<path d="M0.992 0.111 Q0.917 0.497 1.652 0.618" stroke="hsl(180.0,100%,35%)" stroke-width="0.00056"></path>
<path d="M0.992 0.111 Q1.005 0.240 1.260 0.262" stroke="hsl(180.0,100%,35%)" stroke-width="0.00167"></path>
<path d="M0.992 0.111 Q1.218 0.279 1.594 0.205" stroke="hsl(180.0,100%,35%)" stroke-width="0.00334"></path>
<path d="M0.992 0.111 Q1.205 0.174 1.375 0.084" stroke="hsl(180.0,100%,35%)" stroke-width="0.00167"></path>
<path d="M0.992 0.111 Q0.913 0.148 0.966 0.194" stroke="hsl(180.0,100%,35%)" stroke-width="0.00056"></path>
<path d="M0.830 0.718 Q1.106 0.922 1.564 0.832" stroke="hsl(0.0,100%,35%)" stroke-width="0.00056"></path>
<path d="M0.830 0.718 Q0.670 0.771 0.740 0.861" stroke="hsl(0.0,100%,35%)" stroke-width="0.00278"></path>
<path d="M0.830 0.718 Q1.410 0.576 1.260 0.262" stroke="hsl(0.0,100%,35%)" stroke-width="0.00167"></path>
<path d="M0.830 0.718 Q0.495 0.823 0.626 1.009" stroke="hsl(0.0,100%,35%)" stroke-width="0.00056"></path>
<path d="M0.740 0.861 Q1.515 0.965 1.888 0.610" stroke="hsl(0.0,100%,35%)" stroke-width="0.00389"></path>
<path d="M0.740 0.861 Q1.175 1.012 1.564 0.832" stroke="hsl(0.0,100%,35%)" stroke-width="0.00667"></path>
<path d="M0.740 0.861 Q1.479 0.666 1.260 0.262" stroke="hsl(0.0,100%,35%)" stroke-width="0.00612"></path>
<path d="M0.740 0.861 Q0.564 0.912 0.626 1.009" stroke="hsl(0.0,100%,35%)" stroke-width="0.01335"></path>
<path d="M0.740 0.861 Q1.193 0.598 0.780 0.319" stroke="hsl(0.0,100%,35%)" stroke-width="0.00779"></path>
<path d="M0.740 0.861 Q1.466 0.537 0.992 0.111" stroke="hsl(0.0,100%,35%)" stroke-width="0.00890"></path>
<path d="M0.740 0.861 Q1.109 0.545 0.573 0.296" stroke="hsl(0.0,100%,35%)" stroke-width="0.00278"></path>
<path d="M0.740 0.861 Q1.679 0.600 1.375 0.084" stroke="hsl(0.0,100%,35%)" stroke-width="0.00334"></path>
<path d="M0.740 0.861 Q1.692 0.704 1.594 0.205" stroke="hsl(0.0,100%,35%)" stroke-width="0.01390"></path>
<path d="M0.740 0.861 Q1.060 0.781 0.974 0.607" stroke="hsl(0.0,100%,35%)" stroke-width="0.00167"></path>
<path d="M0.740 0.861 Q0.601 0.825 0.500 0.885" stroke="hsl(0.0,100%,35%)" stroke-width="0.01168"></path>
<path d="M0.740 0.861 Q0.957 0.731 0.750 0.596" stroke="hsl(0.0,100%,35%)" stroke-width="0.00056"></path>
<path d="M0.740 0.861 Q1.196 0.803 1.183 0.568" stroke="hsl(0.0,100%,35%)" stroke-width="0.00723"></path>
<path d="M0.740 0.861 Q0.900 0.765 0.747 0.666" stroke="hsl(0.0,100%,35%)" stroke-width="0.00056"></path>
<path d="M0.740 0.861 Q0.857 0.995 1.144 0.968" stroke="hsl(0.0,100%,35%)" stroke-width="0.00056"></path>
<path d="M0.740 0.861 Q1.044 0.869 1.125 0.722" stroke="hsl(0.0,100%,35%)" stroke-width="0.00056"></path>
<path d="M0.740 0.861 Q0.767 0.615 0.293 0.547" stroke="hsl(0.0,100%,35%)" stroke-width="0.00056"></path>
<path d="M0.740 0.861 Q1.000 0.835 1.005 0.702" stroke="hsl(0.0,100%,35%)" stroke-width="0.00222"></path>
<path d="M0.740 0.861 Q0.699 0.529 0.040 0.476" stroke="hsl(0.0,100%,35%)" stroke-width="0.00445"></path>
<path d="M1.260 0.262 Q1.459 0.196 1.375 0.084" stroke="hsl(180.0,100%,35%)" stroke-width="0.01112"></path>
<path d="M1.260 0.262 Q1.246 0.133 0.992 0.111" stroke="hsl(180.0,100%,35%)" stroke-width="0.01557"></path>
<path d="M1.260 0.262 Q1.473 0.301 1.594 0.205" stroke="hsl(180.0,100%,35%)" stroke-width="0.01501"></path>
<path d="M1.260 0.262 Q0.754 0.214 0.549 0.450" stroke="hsl(180.0,100%,35%)" stroke-width="0.00056"></path>
<path d="M1.260 0.262 Q0.520 0.458 0.740 0.861" stroke="hsl(180.0,100%,35%)" stroke-width="0.00167"></path>
<path d="M1.260 0.262 Q0.381 0.422 0.500 0.885" stroke="hsl(180.0,100%,35%)" stroke-width="0.00111"></path>
<path d="M1.260 0.262 Q0.780 0.431 1.005 0.702" stroke="hsl(180.0,100%,35%)" stroke-width="0.00056"></path>
<path d="M1.035 0.304 Q1.167 0.199 0.992 0.111" stroke="hsl(180.0,100%,35%)" stroke-width="0.00056"></path>
<path d="M1.035 0.304 Q1.181 0.328 1.260 0.262" stroke="hsl(180.0,100%,35%)" stroke-width="0.00056"></path>
<path d="M1.035 0.304 Q1.381 0.262 1.375 0.084" stroke="hsl(180.0,100%,35%)" stroke-width="0.00056"></path>
<path d="M1.035 0.304 Q1.394 0.366 1.594 0.205" stroke="hsl(180.0,100%,35%)" stroke-width="0.00056"></path>
<path d="M1.375 0.084 Q0.871 0.496 1.564 0.832" stroke="hsl(180.0,100%,35%)" stroke-width="0.00167"></path>
<path d="M1.375 0.084 Q1.388 0.189 1.594 0.205" stroke="hsl(180.0,100%,35%)" stroke-width="0.02224"></path>
<path d="M1.375 0.084 Q0.435 0.346 0.740 0.861" stroke="hsl(180.0,100%,35%)" stroke-width="0.00167"></path>
<path d="M1.375 0.084 Q1.175 0.150 1.260 0.262" stroke="hsl(180.0,100%,35%)" stroke-width="0.01835"></path>
<path d="M1.375 0.084 Q0.297 0.310 0.500 0.885" stroke="hsl(180.0,100%,35%)" stroke-width="0.00056"></path>
<path d="M1.375 0.084 Q1.559 0.213 1.850 0.151" stroke="hsl(180.0,100%,35%)" stroke-width="0.00278"></path>
<path d="M1.375 0.084 Q0.889 0.083 0.780 0.319" stroke="hsl(180.0,100%,35%)" stroke-width="0.00056"></path>
<path d="M1.375 0.084 Q0.260 0.397 0.626 1.009" stroke="hsl(180.0,100%,35%)" stroke-width="0.00111"></path>
<path d="M1.375 0.084 Q1.161 0.021 0.992 0.111" stroke="hsl(180.0,100%,35%)" stroke-width="0.00222"></path>
<path d="M0.500 0.885 Q1.378 0.725 1.260 0.262" stroke="hsl(0.0,100%,35%)" stroke-width="0.00111"></path>
<path d="M0.500 0.885 Q0.639 0.921 0.740 0.861" stroke="hsl(0.0,100%,35%)" stroke-width="0.01557"></path>
<path d="M0.500 0.885 Q0.463 0.972 0.626 1.009" stroke="hsl(0.0,100%,35%)" stroke-width="0.00111"></path>
<path d="M0.500 0.885 Q1.074 1.072 1.564 0.832" stroke="hsl(0.0,100%,35%)" stroke-width="0.00167"></path>
<path d="M0.500 0.885 Q0.799 0.825 0.747 0.666" stroke="hsl(0.0,100%,35%)" stroke-width="0.00056"></path>
<path d="M0.500 0.885 Q0.694 0.814 0.597 0.704" stroke="hsl(0.0,100%,35%)" stroke-width="0.00056"></path>
<path d="M0.500 0.885 Q1.365 0.597 0.992 0.111" stroke="hsl(0.0,100%,35%)" stroke-width="0.00056"></path>
<path d="M0.974 0.607 Q0.814 0.591 0.747 0.666" stroke="hsl(0.0,100%,35%)" stroke-width="0.00056"></path>
<path d="M0.974 0.607 Q1.110 0.629 1.183 0.568" stroke="hsl(0.0,100%,35%)" stroke-width="0.00111"></path>
<path d="M0.974 0.607 Q0.478 0.739 0.626 1.009" stroke="hsl(0.0,100%,35%)" stroke-width="0.00111"></path>
<path d="M0.974 0.607 Q0.654 0.687 0.740 0.861" stroke="hsl(0.0,100%,35%)" stroke-width="0.00056"></path>
<path d="M0.974 0.607 Q1.089 0.838 1.564 0.832" stroke="hsl(0.0,100%,35%)" stroke-width="0.00056"></path>
<path d="M0.974 0.607 Q1.380 0.363 0.992 0.111" stroke="hsl(0.0,100%,35%)" stroke-width="0.00056"></path>
<path d="M0.573 0.296 Q0.029 0.663 0.626 1.009" stroke="hsl(0.0,100%,35%)" stroke-width="0.00222"></path>
<path d="M0.573 0.296 Q0.639 0.762 1.564 0.832" stroke="hsl(0.0,100%,35%)" stroke-width="0.01112"></path>
<path d="M0.573 0.296 Q0.658 0.349 0.780 0.319" stroke="hsl(0.0,100%,35%)" stroke-width="0.00222"></path>
<path d="M0.573 0.296 Q1.156 0.455 1.594 0.205" stroke="hsl(0.0,100%,35%)" stroke-width="0.00278"></path>
<path d="M0.573 0.296 Q0.204 0.612 0.740 0.861" stroke="hsl(0.0,100%,35%)" stroke-width="0.00445"></path>
<path d="M0.573 0.296 Q0.979 0.715 1.888 0.610" stroke="hsl(0.0,100%,35%)" stroke-width="0.00056"></path>
<path d="M0.573 0.296 Q0.943 0.416 1.260 0.262" stroke="hsl(0.0,100%,35%)" stroke-width="0.00612"></path>
<path d="M0.573 0.296 Q1.143 0.350 1.375 0.084" stroke="hsl(0.0,100%,35%)" stroke-width="0.00167"></path>
<path d="M0.573 0.296 Q0.660 0.554 1.183 0.568" stroke="hsl(0.0,100%,35%)" stroke-width="0.00056"></path>
<path d="M0.573 0.296 Q0.437 0.368 0.549 0.450" stroke="hsl(0.0,100%,35%)" stroke-width="0.00945"></path>
<path d="M0.573 0.296 Q1.328 0.479 1.850 0.151" stroke="hsl(0.0,100%,35%)" stroke-width="0.00111"></path>
<path d="M1.144 0.968 Q0.852 0.885 0.626 1.009" stroke="hsl(0.0,100%,35%)" stroke-width="0.01001"></path>
<path d="M1.144 0.968 Q1.462 0.984 1.564 0.832" stroke="hsl(0.0,100%,35%)" stroke-width="0.00222"></path>
<path d="M1.144 0.968 Q1.483 0.776 1.183 0.568" stroke="hsl(0.0,100%,35%)" stroke-width="0.00056"></path>
<path d="M1.144 0.968 Q1.966 0.572 1.375 0.084" stroke="hsl(0.0,100%,35%)" stroke-width="0.00056"></path>
<path d="M1.144 0.968 Q2.151 0.701 1.850 0.151" stroke="hsl(0.0,100%,35%)" stroke-width="0.00056"></path>
<path d="M1.144 0.968 Q1.979 0.677 1.594 0.205" stroke="hsl(0.0,100%,35%)" stroke-width="0.00111"></path>
<path d="M1.144 0.968 Q1.027 0.834 0.740 0.861" stroke="hsl(0.0,100%,35%)" stroke-width="0.00056"></path>
<path d="M0.040 0.476 Q0.081 0.808 0.740 0.861" stroke="hsl(0.0,100%,35%)" stroke-width="0.00056"></path>
<path d="M0.040 0.476 Q0.517 0.959 1.564 0.832" stroke="hsl(0.0,100%,35%)" stroke-width="0.00111"></path>
<path d="M0.040 0.476 Q0.807 0.484 0.992 0.111" stroke="hsl(0.0,100%,35%)" stroke-width="0.00167"></path>
<path d="M0.040 0.476 Q0.537 0.750 1.183 0.568" stroke="hsl(0.0,100%,35%)" stroke-width="0.00612"></path>
<path d="M0.040 0.476 Q0.733 0.869 1.652 0.618" stroke="hsl(0.0,100%,35%)" stroke-width="0.00056"></path>
<path d="M0.040 0.476 Q1.034 0.651 1.594 0.205" stroke="hsl(0.0,100%,35%)" stroke-width="0.00111"></path>
<path d="M1.613 0.404 Q1.246 0.609 1.564 0.832" stroke="hsl(180.0,100%,35%)" stroke-width="0.00056"></path>
<path d="M1.613 0.404 Q1.763 0.301 1.594 0.205" stroke="hsl(180.0,100%,35%)" stroke-width="0.00500"></path>
<path d="M1.613 0.404 Q1.537 0.134 0.992 0.111" stroke="hsl(180.0,100%,35%)" stroke-width="0.00445"></path>
<path d="M0.780 0.319 Q1.065 0.387 1.260 0.262" stroke="hsl(180.0,100%,35%)" stroke-width="0.00167"></path>
<path d="M0.780 0.319 Q1.265 0.321 1.375 0.084" stroke="hsl(180.0,100%,35%)" stroke-width="0.00056"></path>
<path d="M0.780 0.319 Q0.326 0.582 0.740 0.861" stroke="hsl(180.0,100%,35%)" stroke-width="0.00167"></path>
<path d="M0.780 0.319 Q1.052 0.258 0.992 0.111" stroke="hsl(180.0,100%,35%)" stroke-width="0.00445"></path>
<path d="M0.780 0.319 Q0.761 0.733 1.564 0.832" stroke="hsl(180.0,100%,35%)" stroke-width="0.00056"></path>
<path d="M0.780 0.319 Q1.278 0.425 1.594 0.205" stroke="hsl(180.0,100%,35%)" stroke-width="0.00222"></path>
<path d="M0.780 0.319 Q1.450 0.449 1.850 0.151" stroke="hsl(180.0,100%,35%)" stroke-width="0.00056"></path>
<path d="M1.329 0.735 Q1.369 0.831 1.564 0.832" stroke="hsl(0.0,100%,35%)" stroke-width="0.00222"></path>
<path d="M1.329 0.735 Q1.584 0.741 1.652 0.618" stroke="hsl(0.0,100%,35%)" stroke-width="0.00056"></path>
<path d="M1.329 0.735 Q1.673 0.485 1.260 0.262" stroke="hsl(0.0,100%,35%)" stroke-width="0.00056"></path>
<path d="M1.329 0.735 Q1.303 0.364 0.573 0.296" stroke="hsl(0.0,100%,35%)" stroke-width="0.00111"></path>
<path d="M1.652 0.618 Q1.322 0.477 0.974 0.607" stroke="hsl(0.0,100%,35%)" stroke-width="0.00056"></path>
<path d="M1.652 0.618 Q1.777 0.661 1.888 0.610" stroke="hsl(0.0,100%,35%)" stroke-width="0.00111"></path>
<path d="M1.652 0.618 Q1.437 0.707 1.564 0.832" stroke="hsl(0.0,100%,35%)" stroke-width="0.00056"></path>
<path d="M1.652 0.618 Q1.456 0.554 1.289 0.636" stroke="hsl(0.0,100%,35%)" stroke-width="0.00056"></path>
<path d="M0.814 0.428 Q1.553 0.497 1.850 0.151" stroke="hsl(180.0,100%,35%)" stroke-width="0.00167"></path>
<path d="M0.814 0.428 Q0.430 0.630 0.740 0.861" stroke="hsl(180.0,100%,35%)" stroke-width="0.00056"></path>
<path d="M0.814 0.428 Q1.369 0.368 1.375 0.084" stroke="hsl(180.0,100%,35%)" stroke-width="0.00111"></path>
<path d="M0.814 0.428 Q0.883 0.367 0.780 0.319" stroke="hsl(180.0,100%,35%)" stroke-width="0.00222"></path>
<path d="M1.850 0.151 Q1.180 0.021 0.780 0.319" stroke="hsl(180.0,100%,35%)" stroke-width="0.00111"></path>
<path d="M1.850 0.151 Q1.453 -0.041 0.992 0.111" stroke="hsl(180.0,100%,35%)" stroke-width="0.00167"></path>
<path d="M1.850 0.151 Q1.047 0.204 0.974 0.607" stroke="hsl(180.0,100%,35%)" stroke-width="0.00056"></path>
<path d="M1.850 0.151 Q1.378 0.345 1.652 0.618" stroke="hsl(180.0,100%,35%)" stroke-width="0.00056"></path>
<path d="M1.850 0.151 Q1.466 0.088 1.260 0.262" stroke="hsl(180.0,100%,35%)" stroke-width="0.00389"></path>
<path d="M1.850 0.151 Q1.679 0.127 1.594 0.205" stroke="hsl(180.0,100%,35%)" stroke-width="0.00890"></path>
<path d="M1.850 0.151 Q1.162 0.434 1.564 0.832" stroke="hsl(180.0,100%,35%)" stroke-width="0.00222"></path>
<path d="M1.850 0.151 Q0.588 0.248 0.500 0.885" stroke="hsl(180.0,100%,35%)" stroke-width="0.00056"></path>
<path d="M1.850 0.151 Q0.754 0.038 0.293 0.547" stroke="hsl(180.0,100%,35%)" stroke-width="0.00056"></path>
<path d="M1.850 0.151 Q0.551 0.335 0.626 1.009" stroke="hsl(180.0,100%,35%)" stroke-width="0.00056"></path>
<path d="M0.987 0.808 Q0.821 0.785 0.740 0.861" stroke="hsl(0.0,100%,35%)" stroke-width="0.00278"></path>
<path d="M0.987 0.808 Q0.645 0.836 0.626 1.009" stroke="hsl(0.0,100%,35%)" stroke-width="0.00779"></path>
<path d="M0.987 0.808 Q0.938 0.919 1.144 0.968" stroke="hsl(0.0,100%,35%)" stroke-width="0.00111"></path>
<path d="M1.888 0.610 Q1.763 0.567 1.652 0.618" stroke="hsl(0.0,100%,35%)" stroke-width="0.00167"></path>
<path d="M1.888 0.610 Q1.838 0.181 0.992 0.111" stroke="hsl(0.0,100%,35%)" stroke-width="0.00222"></path>
<path d="M1.888 0.610 Q1.548 0.656 1.564 0.832" stroke="hsl(0.0,100%,35%)" stroke-width="0.00111"></path>
<path d="M1.888 0.610 Q2.065 0.349 1.594 0.205" stroke="hsl(0.0,100%,35%)" stroke-width="0.00111"></path>
<path d="M1.888 0.610 Q1.566 0.243 0.780 0.319" stroke="hsl(0.0,100%,35%)" stroke-width="0.00167"></path>
<path d="M1.888 0.610 Q1.112 0.506 0.740 0.861" stroke="hsl(0.0,100%,35%)" stroke-width="0.00111"></path>
<path d="M1.888 0.610 Q1.433 0.426 0.974 0.607" stroke="hsl(0.0,100%,35%)" stroke-width="0.00056"></path>
<path d="M0.293 0.547 Q0.700 0.944 1.564 0.832" stroke="hsl(0.0,100%,35%)" stroke-width="0.00779"></path>
<path d="M0.293 0.547 Q0.916 0.854 1.652 0.618" stroke="hsl(0.0,100%,35%)" stroke-width="0.00167"></path>
<path d="M0.293 0.547 Q0.265 0.794 0.740 0.861" stroke="hsl(0.0,100%,35%)" stroke-width="0.01057"></path>
<path d="M0.293 0.547 Q0.224 0.461 0.040 0.476" stroke="hsl(0.0,100%,35%)" stroke-width="0.01223"></path>
<path d="M0.293 0.547 Q0.721 0.736 1.183 0.568" stroke="hsl(0.0,100%,35%)" stroke-width="0.00723"></path>
<path d="M0.293 0.547 Q0.269 0.626 0.419 0.655" stroke="hsl(0.0,100%,35%)" stroke-width="0.00056"></path>
<path d="M0.293 0.547 Q1.217 0.636 1.594 0.205" stroke="hsl(0.0,100%,35%)" stroke-width="0.00056"></path>
<path d="M0.293 0.547 Q1.204 0.532 1.375 0.084" stroke="hsl(0.0,100%,35%)" stroke-width="0.00056"></path>
<path d="M1.418 0.319 Q1.371 0.130 0.992 0.111" stroke="hsl(180.0,100%,35%)" stroke-width="0.00167"></path>
<path d="M1.418 0.319 Q1.597 0.297 1.594 0.205" stroke="hsl(180.0,100%,35%)" stroke-width="0.00222"></path>
<path d="M1.418 0.319 Q1.584 0.193 1.375 0.084" stroke="hsl(180.0,100%,35%)" stroke-width="0.00056"></path>
<path d="M0.549 0.450 Q1.439 0.561 1.850 0.151" stroke="hsl(0.0,100%,35%)" stroke-width="0.00445"></path>
<path d="M0.549 0.450 Q1.268 0.537 1.594 0.205" stroke="hsl(0.0,100%,35%)" stroke-width="0.00723"></path>
<path d="M0.549 0.450 Q1.055 0.498 1.260 0.262" stroke="hsl(0.0,100%,35%)" stroke-width="0.00056"></path>
<path d="M0.549 0.450 Q0.769 0.431 0.780 0.319" stroke="hsl(0.0,100%,35%)" stroke-width="0.00111"></path>
<path d="M0.549 0.450 Q0.685 0.378 0.573 0.296" stroke="hsl(0.0,100%,35%)" stroke-width="0.00556"></path>
<path d="M0.549 0.450 Q0.316 0.694 0.740 0.861" stroke="hsl(0.0,100%,35%)" stroke-width="0.00056"></path>
<path d="M1.376 0.265 Q1.533 0.279 1.594 0.205" stroke="hsl(180.0,100%,35%)" stroke-width="0.00167"></path>
<path d="M1.376 0.265 Q1.034 0.173 0.780 0.319" stroke="hsl(180.0,100%,35%)" stroke-width="0.00056"></path>
<path d="M1.376 0.265 Q1.520 0.174 1.375 0.084" stroke="hsl(180.0,100%,35%)" stroke-width="0.00111"></path>
<path d="M1.297 0.769 Q1.380 0.854 1.564 0.832" stroke="hsl(0.0,100%,35%)" stroke-width="0.00111"></path>
<path d="M1.297 0.769 Q1.400 0.646 1.183 0.568" stroke="hsl(0.0,100%,35%)" stroke-width="0.00056"></path>
<path d="M1.297 0.769 Q0.769 0.755 0.626 1.009" stroke="hsl(0.0,100%,35%)" stroke-width="0.00056"></path>
<path d="M0.265 0.687 Q0.363 0.869 0.740 0.861" stroke="hsl(0.0,100%,35%)" stroke-width="0.00222"></path>
<path d="M0.265 0.687 Q0.819 0.811 1.183 0.568" stroke="hsl(0.0,100%,35%)" stroke-width="0.00056"></path>
<path d="M0.265 0.687 Q1.014 0.930 1.652 0.618" stroke="hsl(0.0,100%,35%)" stroke-width="0.00056"></path>
<path d="M0.265 0.687 Q0.322 0.536 0.040 0.476" stroke="hsl(0.0,100%,35%)" stroke-width="0.00056"></path>
<path d="M0.265 0.687 Q0.367 0.702 0.419 0.655" stroke="hsl(0.0,100%,35%)" stroke-width="0.00222"></path>
<path d="M0.265 0.687 Q1.138 0.973 1.888 0.610" stroke="hsl(0.0,100%,35%)" stroke-width="0.00167"></path>
</g>
<text x="1.312" y="0.316" font-size="0.010337" fill="hsl(0.0,100%,20%)">aperez</text>
<text x="1.564" y="0.806" font-size="0.052709" fill="hsl(0.0,100%,20%)">brianosman</text>
<text x="1.594" y="0.168" font-size="0.073338" fill="hsl(180.0,100%,20%)">michaelludwig</text>
<text x="1.183" y="0.548" font-size="0.041133" fill="hsl(0.0,100%,20%)">fmalita</text>
<text x="0.626" y="0.983" font-size="0.053547" fill="hsl(0.0,100%,20%)">bungeman</text>
<text x="0.992" y="0.088" font-size="0.046036" fill="hsl(180.0,100%,20%)">egdaniel</text>
<text x="0.830" y="0.711" font-size="0.013345" fill="hsl(0.0,100%,20%)">arthursonzogni</text>
<text x="0.740" y="0.826" font-size="0.071618" fill="hsl(0.0,100%,20%)">kjlubick</text>
<text x="1.260" y="0.231" font-size="0.062452" fill="hsl(180.0,100%,20%)">robertphillips</text>
<text x="1.035" y="0.300" font-size="0.008440" fill="hsl(180.0,100%,20%)">beaufort.francois</text>
<text x="1.375" y="0.058" font-size="0.052370" fill="hsl(180.0,100%,20%)">jvanverth</text>
<text x="0.500" y="0.868" font-size="0.033761" fill="hsl(0.0,100%,20%)">borenet</text>
<text x="0.747" y="0.662" font-size="0.008440" fill="hsl(0.0,100%,20%)">bwils</text>
<text x="0.597" y="0.702" font-size="0.004220" fill="hsl(0.0,100%,20%)">rmistry</text>
<text x="0.974" y="0.598" font-size="0.018873" fill="hsl(0.0,100%,20%)">jmbetancourt</text>
<text x="0.573" y="0.274" font-size="0.043243" fill="hsl(0.0,100%,20%)">johnstiles</text>
<text x="1.144" y="0.955" font-size="0.025321" fill="hsl(0.0,100%,20%)">jlavrova</text>
<text x="0.040" y="0.459" font-size="0.033229" fill="hsl(0.0,100%,20%)">danieldilan</text>
<text x="1.613" y="0.395" font-size="0.017904" fill="hsl(180.0,100%,20%)">briansalomon</text>
<text x="1.289" y="0.632" font-size="0.007309" fill="hsl(0.0,100%,20%)">hcm</text>
<text x="0.780" y="0.301" font-size="0.036790" fill="hsl(180.0,100%,20%)">nicolettep</text>
<text x="1.329" y="0.729" font-size="0.011936" fill="hsl(0.0,100%,20%)">chengyangyang-hf</text>
<text x="1.652" y="0.609" font-size="0.016880" fill="hsl(0.0,100%,20%)">scroggo</text>
<text x="0.814" y="0.421" font-size="0.013345" fill="hsl(180.0,100%,20%)">cwallez</text>
<text x="1.850" y="0.132" font-size="0.037031" fill="hsl(180.0,100%,20%)">jamesgk</text>
<text x="0.987" y="0.798" font-size="0.019339" fill="hsl(0.0,100%,20%)">drott</text>
<text x="1.888" y="0.598" font-size="0.023873" fill="hsl(0.0,100%,20%)">nscobie</text>
<text x="0.966" y="0.192" font-size="0.004220" fill="hsl(180.0,100%,20%)">jreck</text>
<text x="1.215" y="0.450" font-size="0.004220" fill="hsl(0.0,100%,20%)">sharaks</text>
<text x="1.005" y="0.696" font-size="0.011936" fill="hsl(0.0,100%,20%)">maxhudnell</text>
<text x="0.293" y="0.529" font-size="0.036790" fill="hsl(0.0,100%,20%)">lukasza</text>
<text x="1.418" y="0.313" font-size="0.011936" fill="hsl(180.0,100%,20%)">jie.a.chen</text>
<text x="0.549" y="0.435" font-size="0.031011" fill="hsl(0.0,100%,20%)">nathanasanchez</text>
<text x="0.750" y="0.594" font-size="0.004220" fill="hsl(0.0,100%,20%)">ashwinpv</text>
<text x="1.125" y="0.720" font-size="0.004220" fill="hsl(0.0,100%,20%)">brettos</text>
<text x="1.376" y="0.260" font-size="0.010337" fill="hsl(180.0,100%,20%)">kylechar</text>
<text x="0.419" y="0.650" font-size="0.009436" fill="hsl(0.0,100%,20%)">ccameron</text>
<text x="1.297" y="0.765" font-size="0.008440" fill="hsl(0.0,100%,20%)">mike</text>
<text x="0.265" y="0.679" font-size="0.015790" fill="hsl(0.0,100%,20%)">vigneshv</text>
</svg>
