<svg width="4000" height="2000" viewBox="-0.025 -0.025 2.05 1.05" xmlns="http://www.w3.org/2000/svg">
  <style>
    path {
      fill: none;
      stroke-linecap: round;
      stroke-opacity: 0.4;
    }

    text {
      text-anchor: middle;
      alignment-baseline: hanging;
    }
  </style>
  <g opacity="0.4">
<path d="M1.088 0.375 Q1.086 0.546 1.420 0.585" stroke="hsl(0.0,100%,35%)" stroke-width="0.00023"></path>
<path d="M1.088 0.375 Q0.436 0.494 0.526 0.839" stroke="hsl(0.0,100%,35%)" stroke-width="0.00023"></path>
<path d="M1.088 0.375 Q0.405 0.571 0.637 0.947" stroke="hsl(0.0,100%,35%)" stroke-width="0.00045"></path>
<path d="M1.088 0.375 Q1.206 0.268 1.024 0.187" stroke="hsl(0.0,100%,35%)" stroke-width="0.00045"></path>
<path d="M1.088 0.375 Q0.647 0.671 1.128 0.951" stroke="hsl(0.0,100%,35%)" stroke-width="0.00023"></path>
<path d="M1.088 0.375 Q1.333 0.371 1.379 0.250" stroke="hsl(0.0,100%,35%)" stroke-width="0.00023"></path>
<path d="M1.420 0.585 Q1.342 0.489 1.138 0.506" stroke="hsl(120.0,100%,35%)" stroke-width="0.00746"></path>
<path d="M1.420 0.585 Q1.641 0.651 1.818 0.558" stroke="hsl(120.0,100%,35%)" stroke-width="0.00203"></path>
<path d="M1.420 0.585 Q1.399 0.725 1.668 0.767" stroke="hsl(120.0,100%,35%)" stroke-width="0.00271"></path>
<path d="M1.420 0.585 Q1.667 0.409 1.379 0.250" stroke="hsl(120.0,100%,35%)" stroke-width="0.00158"></path>
<path d="M1.420 0.585 Q1.540 0.307 1.024 0.187" stroke="hsl(120.0,100%,35%)" stroke-width="0.00068"></path>
<path d="M1.420 0.585 Q1.571 0.736 1.900 0.696" stroke="hsl(120.0,100%,35%)" stroke-width="0.00452"></path>
<path d="M1.420 0.585 Q1.460 0.823 1.933 0.855" stroke="hsl(120.0,100%,35%)" stroke-width="0.00090"></path>
<path d="M1.420 0.585 Q1.201 0.608 1.198 0.720" stroke="hsl(120.0,100%,35%)" stroke-width="0.00068"></path>
<path d="M1.420 0.585 Q0.770 0.533 0.526 0.839" stroke="hsl(120.0,100%,35%)" stroke-width="0.00045"></path>
<path d="M1.420 0.585 Q1.247 0.411 0.869 0.457" stroke="hsl(120.0,100%,35%)" stroke-width="0.00023"></path>
<path d="M1.420 0.585 Q0.739 0.609 0.637 0.947" stroke="hsl(120.0,100%,35%)" stroke-width="0.00045"></path>
<path d="M1.420 0.585 Q1.744 0.299 1.256 0.078" stroke="hsl(120.0,100%,35%)" stroke-width="0.00045"></path>
<path d="M1.420 0.585 Q0.981 0.709 1.128 0.951" stroke="hsl(120.0,100%,35%)" stroke-width="0.00023"></path>
<path d="M0.526 0.839 Q0.872 0.773 0.819 0.589" stroke="hsl(0.0,100%,35%)" stroke-width="0.00610"></path>
<path d="M0.526 0.839 Q1.397 0.957 1.818 0.558" stroke="hsl(0.0,100%,35%)" stroke-width="0.00520"></path>
<path d="M0.526 0.839 Q0.747 0.684 0.493 0.541" stroke="hsl(0.0,100%,35%)" stroke-width="0.00181"></path>
<path d="M0.526 0.839 Q0.495 0.915 0.637 0.947" stroke="hsl(0.0,100%,35%)" stroke-width="0.02352"></path>
<path d="M0.526 0.839 Q1.296 0.613 1.024 0.187" stroke="hsl(0.0,100%,35%)" stroke-width="0.01515"></path>
<path d="M0.526 0.839 Q0.909 1.001 1.309 0.850" stroke="hsl(0.0,100%,35%)" stroke-width="0.00045"></path>
<path d="M0.526 0.839 Q0.681 0.926 0.886 0.870" stroke="hsl(0.0,100%,35%)" stroke-width="0.00656"></path>
<path d="M0.526 0.839 Q1.423 0.715 1.379 0.250" stroke="hsl(0.0,100%,35%)" stroke-width="0.00814"></path>
<path d="M0.526 0.839 Q1.098 0.795 1.138 0.506" stroke="hsl(0.0,100%,35%)" stroke-width="0.01040"></path>
<path d="M0.526 0.839 Q1.216 1.129 1.933 0.855" stroke="hsl(0.0,100%,35%)" stroke-width="0.00023"></path>
<path d="M0.526 0.839 Q0.846 0.970 1.172 0.842" stroke="hsl(0.0,100%,35%)" stroke-width="0.00203"></path>
<path d="M0.526 0.839 Q1.155 1.031 1.668 0.767" stroke="hsl(0.0,100%,35%)" stroke-width="0.00294"></path>
<path d="M0.526 0.839 Q1.327 1.042 1.900 0.696" stroke="hsl(0.0,100%,35%)" stroke-width="0.00430"></path>
<path d="M0.526 0.839 Q1.176 0.891 1.420 0.585" stroke="hsl(0.0,100%,35%)" stroke-width="0.00701"></path>
<path d="M0.526 0.839 Q0.900 1.053 1.400 0.917" stroke="hsl(0.0,100%,35%)" stroke-width="0.00136"></path>
<path d="M0.526 0.839 Q1.136 0.661 0.924 0.324" stroke="hsl(0.0,100%,35%)" stroke-width="0.00090"></path>
<path d="M0.526 0.839 Q0.957 0.914 1.198 0.720" stroke="hsl(0.0,100%,35%)" stroke-width="0.00203"></path>
<path d="M0.526 0.839 Q0.737 1.015 1.128 0.951" stroke="hsl(0.0,100%,35%)" stroke-width="0.00090"></path>
<path d="M0.526 0.839 Q1.311 0.758 1.326 0.358" stroke="hsl(0.0,100%,35%)" stroke-width="0.00023"></path>
<path d="M0.526 0.839 Q0.597 0.918 0.767 0.901" stroke="hsl(0.0,100%,35%)" stroke-width="0.00068"></path>
<path d="M0.526 0.839 Q0.485 0.831 0.462 0.850" stroke="hsl(0.0,100%,35%)" stroke-width="0.00045"></path>
<path d="M0.526 0.839 Q1.291 0.687 1.162 0.280" stroke="hsl(0.0,100%,35%)" stroke-width="0.00023"></path>
<path d="M0.526 0.839 Q1.499 0.605 1.256 0.078" stroke="hsl(0.0,100%,35%)" stroke-width="0.00045"></path>
<path d="M0.526 0.839 Q0.576 0.754 0.421 0.710" stroke="hsl(0.0,100%,35%)" stroke-width="0.00068"></path>
<path d="M0.526 0.839 Q0.437 0.850 0.440 0.896" stroke="hsl(0.0,100%,35%)" stroke-width="0.00023"></path>
<path d="M0.526 0.839 Q1.118 1.069 1.697 0.830" stroke="hsl(0.0,100%,35%)" stroke-width="0.00023"></path>
<path d="M0.526 0.839 Q0.261 1.202 0.910 1.411" stroke="hsl(0.0,100%,35%)" stroke-width="0.00023"></path>
<path d="M0.637 0.947 Q0.739 0.950 0.767 0.901" stroke="hsl(0.0,100%,35%)" stroke-width="0.00294"></path>
<path d="M0.637 0.947 Q1.279 0.693 0.924 0.324" stroke="hsl(0.0,100%,35%)" stroke-width="0.00113"></path>
<path d="M0.637 0.947 Q1.566 0.747 1.379 0.250" stroke="hsl(0.0,100%,35%)" stroke-width="0.00271"></path>
<path d="M0.637 0.947 Q0.668 0.871 0.526 0.839" stroke="hsl(0.0,100%,35%)" stroke-width="0.00633"></path>
<path d="M0.637 0.947 Q1.439 0.644 1.024 0.187" stroke="hsl(0.0,100%,35%)" stroke-width="0.02148"></path>
<path d="M0.637 0.947 Q0.988 1.001 1.172 0.842" stroke="hsl(0.0,100%,35%)" stroke-width="0.00317"></path>
<path d="M0.637 0.947 Q1.241 0.826 1.138 0.506" stroke="hsl(0.0,100%,35%)" stroke-width="0.00023"></path>
<path d="M0.637 0.947 Q1.014 0.805 0.819 0.589" stroke="hsl(0.0,100%,35%)" stroke-width="0.00181"></path>
<path d="M0.637 0.947 Q1.539 0.988 1.818 0.558" stroke="hsl(0.0,100%,35%)" stroke-width="0.00045"></path>
<path d="M0.637 0.947 Q1.319 0.922 1.420 0.585" stroke="hsl(0.0,100%,35%)" stroke-width="0.00023"></path>
<path d="M0.637 0.947 Q1.145 0.748 0.869 0.457" stroke="hsl(0.0,100%,35%)" stroke-width="0.00023"></path>
<path d="M0.637 0.947 Q0.880 1.047 1.128 0.951" stroke="hsl(0.0,100%,35%)" stroke-width="0.00023"></path>
<path d="M0.637 0.947 Q1.042 1.085 1.400 0.917" stroke="hsl(0.0,100%,35%)" stroke-width="0.00158"></path>
<path d="M0.637 0.947 Q1.297 1.063 1.668 0.767" stroke="hsl(0.0,100%,35%)" stroke-width="0.00045"></path>
<path d="M0.637 0.947 Q1.469 1.074 1.900 0.696" stroke="hsl(0.0,100%,35%)" stroke-width="0.00045"></path>
<path d="M0.637 0.947 Q1.453 0.790 1.326 0.358" stroke="hsl(0.0,100%,35%)" stroke-width="0.00023"></path>
<path d="M0.637 0.947 Q1.174 0.956 1.309 0.696" stroke="hsl(0.0,100%,35%)" stroke-width="0.00023"></path>
<path d="M1.024 0.187 Q0.883 0.606 1.668 0.767" stroke="hsl(0.0,100%,35%)" stroke-width="0.00317"></path>
<path d="M1.024 0.187 Q0.864 0.236 0.924 0.324" stroke="hsl(0.0,100%,35%)" stroke-width="0.00113"></path>
<path d="M1.024 0.187 Q1.151 0.290 1.379 0.250" stroke="hsl(0.0,100%,35%)" stroke-width="0.01153"></path>
<path d="M1.024 0.187 Q0.254 0.413 0.526 0.839" stroke="hsl(0.0,100%,35%)" stroke-width="0.00249"></path>
<path d="M1.024 0.187 Q1.055 0.617 1.900 0.696" stroke="hsl(0.0,100%,35%)" stroke-width="0.00543"></path>
<path d="M1.024 0.187 Q1.125 0.531 1.818 0.558" stroke="hsl(0.0,100%,35%)" stroke-width="0.00271"></path>
<path d="M1.024 0.187 Q0.223 0.490 0.637 0.947" stroke="hsl(0.0,100%,35%)" stroke-width="0.00678"></path>
<path d="M1.024 0.187 Q0.628 0.627 1.400 0.917" stroke="hsl(0.0,100%,35%)" stroke-width="0.00045"></path>
<path d="M1.024 0.187 Q0.409 0.501 0.886 0.870" stroke="hsl(0.0,100%,35%)" stroke-width="0.00023"></path>
<path d="M1.024 0.187 Q0.600 0.347 0.819 0.589" stroke="hsl(0.0,100%,35%)" stroke-width="0.00158"></path>
<path d="M1.024 0.187 Q0.826 0.369 1.138 0.506" stroke="hsl(0.0,100%,35%)" stroke-width="0.00023"></path>
<path d="M1.024 0.187 Q0.731 0.291 0.869 0.457" stroke="hsl(0.0,100%,35%)" stroke-width="0.00023"></path>
<path d="M1.024 0.187 Q0.904 0.465 1.420 0.585" stroke="hsl(0.0,100%,35%)" stroke-width="0.00249"></path>
<path d="M1.024 0.187 Q0.636 0.575 1.309 0.850" stroke="hsl(0.0,100%,35%)" stroke-width="0.00023"></path>
<path d="M1.024 0.187 Q0.944 0.703 1.933 0.855" stroke="hsl(0.0,100%,35%)" stroke-width="0.00023"></path>
<path d="M1.024 0.187 Q0.475 0.258 0.493 0.541" stroke="hsl(0.0,100%,35%)" stroke-width="0.00023"></path>
<path d="M1.024 0.187 Q0.574 0.544 1.172 0.842" stroke="hsl(0.0,100%,35%)" stroke-width="0.00023"></path>
<path d="M1.128 0.951 Q1.348 0.849 1.198 0.720" stroke="hsl(120.0,100%,35%)" stroke-width="0.00158"></path>
<path d="M1.128 0.951 Q1.567 0.826 1.420 0.585" stroke="hsl(120.0,100%,35%)" stroke-width="0.00045"></path>
<path d="M1.128 0.951 Q1.687 0.548 1.024 0.187" stroke="hsl(120.0,100%,35%)" stroke-width="0.00068"></path>
<path d="M1.128 0.951 Q1.394 0.652 0.869 0.457" stroke="hsl(120.0,100%,35%)" stroke-width="0.00023"></path>
<path d="M1.128 0.951 Q0.886 0.851 0.637 0.947" stroke="hsl(120.0,100%,35%)" stroke-width="0.00068"></path>
<path d="M1.128 0.951 Q1.814 0.651 1.379 0.250" stroke="hsl(120.0,100%,35%)" stroke-width="0.00023"></path>
<path d="M1.128 0.951 Q1.718 0.978 1.900 0.696" stroke="hsl(120.0,100%,35%)" stroke-width="0.00023"></path>
<path d="M1.128 0.951 Q1.788 0.892 1.818 0.558" stroke="hsl(120.0,100%,35%)" stroke-width="0.00023"></path>
<path d="M1.128 0.951 Q1.546 0.967 1.668 0.767" stroke="hsl(120.0,100%,35%)" stroke-width="0.00023"></path>
<path d="M1.128 0.951 Q1.138 0.619 0.493 0.541" stroke="hsl(120.0,100%,35%)" stroke-width="0.00023"></path>
<path d="M1.128 0.951 Q1.423 0.860 1.309 0.696" stroke="hsl(120.0,100%,35%)" stroke-width="0.00023"></path>
<path d="M1.379 0.250 Q1.132 0.426 1.420 0.585" stroke="hsl(0.0,100%,35%)" stroke-width="0.00678"></path>
<path d="M1.379 0.250 Q1.252 0.148 1.024 0.187" stroke="hsl(0.0,100%,35%)" stroke-width="0.04567"></path>
<path d="M1.379 0.250 Q1.111 0.566 1.668 0.767" stroke="hsl(0.0,100%,35%)" stroke-width="0.00746"></path>
<path d="M1.379 0.250 Q0.481 0.374 0.526 0.839" stroke="hsl(0.0,100%,35%)" stroke-width="0.01040"></path>
<path d="M1.379 0.250 Q1.092 0.196 0.924 0.324" stroke="hsl(0.0,100%,35%)" stroke-width="0.00317"></path>
<path d="M1.379 0.250 Q1.283 0.577 1.900 0.696" stroke="hsl(0.0,100%,35%)" stroke-width="0.01176"></path>
<path d="M1.379 0.250 Q1.352 0.492 1.818 0.558" stroke="hsl(0.0,100%,35%)" stroke-width="0.00362"></path>
<path d="M1.379 0.250 Q1.455 0.140 1.256 0.078" stroke="hsl(0.0,100%,35%)" stroke-width="0.00724"></path>
<path d="M1.379 0.250 Q0.451 0.450 0.637 0.947" stroke="hsl(0.0,100%,35%)" stroke-width="0.00226"></path>
<path d="M1.379 0.250 Q0.827 0.308 0.819 0.589" stroke="hsl(0.0,100%,35%)" stroke-width="0.00136"></path>
<path d="M1.379 0.250 Q1.172 0.664 1.933 0.855" stroke="hsl(0.0,100%,35%)" stroke-width="0.00452"></path>
<path d="M1.379 0.250 Q1.054 0.330 1.138 0.506" stroke="hsl(0.0,100%,35%)" stroke-width="0.00678"></path>
<path d="M1.379 0.250 Q0.703 0.219 0.493 0.541" stroke="hsl(0.0,100%,35%)" stroke-width="0.00045"></path>
<path d="M1.379 0.250 Q0.913 0.449 1.198 0.720" stroke="hsl(0.0,100%,35%)" stroke-width="0.00113"></path>
<path d="M1.379 0.250 Q0.864 0.536 1.309 0.850" stroke="hsl(0.0,100%,35%)" stroke-width="0.00023"></path>
<path d="M1.379 0.250 Q0.693 0.550 1.128 0.951" stroke="hsl(0.0,100%,35%)" stroke-width="0.00045"></path>
<path d="M1.379 0.250 Q1.515 0.142 1.333 0.052" stroke="hsl(0.0,100%,35%)" stroke-width="0.00023"></path>
<path d="M1.379 0.250 Q1.266 0.293 1.326 0.358" stroke="hsl(0.0,100%,35%)" stroke-width="0.00023"></path>
<path d="M1.379 0.250 Q1.247 0.221 1.162 0.280" stroke="hsl(0.0,100%,35%)" stroke-width="0.00090"></path>
<path d="M1.379 0.250 Q0.856 0.588 1.400 0.917" stroke="hsl(0.0,100%,35%)" stroke-width="0.00045"></path>
<path d="M1.379 0.250 Q0.636 0.461 0.886 0.870" stroke="hsl(0.0,100%,35%)" stroke-width="0.00023"></path>
<path d="M1.379 0.250 Q1.074 0.604 1.697 0.830" stroke="hsl(0.0,100%,35%)" stroke-width="0.00384"></path>
<path d="M1.256 0.078 Q0.973 0.602 1.933 0.855" stroke="hsl(120.0,100%,35%)" stroke-width="0.00158"></path>
<path d="M1.256 0.078 Q1.154 0.430 1.818 0.558" stroke="hsl(120.0,100%,35%)" stroke-width="0.00565"></path>
<path d="M1.256 0.078 Q1.084 0.516 1.900 0.696" stroke="hsl(120.0,100%,35%)" stroke-width="0.00497"></path>
<path d="M1.256 0.078 Q0.855 0.268 1.138 0.506" stroke="hsl(120.0,100%,35%)" stroke-width="0.00113"></path>
<path d="M1.256 0.078 Q1.053 0.086 1.024 0.187" stroke="hsl(120.0,100%,35%)" stroke-width="0.00068"></path>
<path d="M1.256 0.078 Q0.283 0.312 0.526 0.839" stroke="hsl(120.0,100%,35%)" stroke-width="0.00181"></path>
<path d="M1.256 0.078 Q1.180 0.189 1.379 0.250" stroke="hsl(120.0,100%,35%)" stroke-width="0.00113"></path>
<path d="M1.256 0.078 Q0.933 0.364 1.420 0.585" stroke="hsl(120.0,100%,35%)" stroke-width="0.00090"></path>
<path d="M1.256 0.078 Q0.912 0.505 1.668 0.767" stroke="hsl(120.0,100%,35%)" stroke-width="0.00023"></path>
<path d="M1.256 0.078 Q0.988 0.148 1.066 0.295" stroke="hsl(120.0,100%,35%)" stroke-width="0.00023"></path>
<path d="M1.933 0.855 Q2.044 0.769 1.900 0.696" stroke="hsl(120.0,100%,35%)" stroke-width="0.00656"></path>
<path d="M1.933 0.855 Q1.893 0.617 1.420 0.585" stroke="hsl(120.0,100%,35%)" stroke-width="0.00181"></path>
<path d="M1.933 0.855 Q2.013 0.339 1.024 0.187" stroke="hsl(120.0,100%,35%)" stroke-width="0.00045"></path>
<path d="M1.933 0.855 Q2.140 0.442 1.379 0.250" stroke="hsl(120.0,100%,35%)" stroke-width="0.00113"></path>
<path d="M1.933 0.855 Q2.114 0.683 1.818 0.558" stroke="hsl(120.0,100%,35%)" stroke-width="0.00068"></path>
<path d="M1.933 0.855 Q1.872 0.758 1.668 0.767" stroke="hsl(120.0,100%,35%)" stroke-width="0.00181"></path>
<path d="M1.933 0.855 Q2.217 0.331 1.256 0.078" stroke="hsl(120.0,100%,35%)" stroke-width="0.00023"></path>
<path d="M1.933 0.855 Q1.815 0.521 1.138 0.506" stroke="hsl(120.0,100%,35%)" stroke-width="0.00023"></path>
<path d="M1.933 0.855 Q1.464 0.410 0.493 0.541" stroke="hsl(120.0,100%,35%)" stroke-width="0.00023"></path>
<path d="M1.933 0.855 Q1.454 0.742 1.128 0.951" stroke="hsl(120.0,100%,35%)" stroke-width="0.00023"></path>
<path d="M1.818 0.558 Q1.748 0.643 1.900 0.696" stroke="hsl(120.0,100%,35%)" stroke-width="0.01854"></path>
<path d="M1.818 0.558 Q1.597 0.492 1.420 0.585" stroke="hsl(120.0,100%,35%)" stroke-width="0.00339"></path>
<path d="M1.818 0.558 Q1.844 0.316 1.379 0.250" stroke="hsl(120.0,100%,35%)" stroke-width="0.00294"></path>
<path d="M1.818 0.558 Q1.576 0.632 1.668 0.767" stroke="hsl(120.0,100%,35%)" stroke-width="0.00995"></path>
<path d="M1.818 0.558 Q0.916 0.516 0.637 0.947" stroke="hsl(120.0,100%,35%)" stroke-width="0.00203"></path>
<path d="M1.818 0.558 Q1.519 0.396 1.138 0.506" stroke="hsl(120.0,100%,35%)" stroke-width="0.00271"></path>
<path d="M1.818 0.558 Q0.947 0.440 0.526 0.839" stroke="hsl(120.0,100%,35%)" stroke-width="0.00271"></path>
<path d="M1.818 0.558 Q1.921 0.206 1.256 0.078" stroke="hsl(120.0,100%,35%)" stroke-width="0.00746"></path>
<path d="M1.818 0.558 Q1.637 0.730 1.933 0.855" stroke="hsl(120.0,100%,35%)" stroke-width="0.00271"></path>
<path d="M1.818 0.558 Q1.717 0.214 1.024 0.187" stroke="hsl(120.0,100%,35%)" stroke-width="0.00633"></path>
<path d="M1.818 0.558 Q1.557 0.262 0.924 0.324" stroke="hsl(120.0,100%,35%)" stroke-width="0.00090"></path>
<path d="M1.818 0.558 Q1.267 0.571 1.172 0.842" stroke="hsl(120.0,100%,35%)" stroke-width="0.00045"></path>
<path d="M1.818 0.558 Q1.158 0.616 1.128 0.951" stroke="hsl(120.0,100%,35%)" stroke-width="0.00023"></path>
<path d="M1.818 0.558 Q1.321 0.654 1.400 0.917" stroke="hsl(120.0,100%,35%)" stroke-width="0.00023"></path>
<path d="M1.900 0.696 Q1.728 0.685 1.668 0.767" stroke="hsl(120.0,100%,35%)" stroke-width="0.02759"></path>
<path d="M1.900 0.696 Q1.970 0.610 1.818 0.558" stroke="hsl(120.0,100%,35%)" stroke-width="0.01063"></path>
<path d="M1.900 0.696 Q1.099 0.493 0.526 0.839" stroke="hsl(120.0,100%,35%)" stroke-width="0.00113"></path>
<path d="M1.900 0.696 Q1.789 0.782 1.933 0.855" stroke="hsl(120.0,100%,35%)" stroke-width="0.01085"></path>
<path d="M1.900 0.696 Q2.072 0.258 1.256 0.078" stroke="hsl(120.0,100%,35%)" stroke-width="0.00294"></path>
<path d="M1.900 0.696 Q1.869 0.266 1.024 0.187" stroke="hsl(120.0,100%,35%)" stroke-width="0.01244"></path>
<path d="M1.900 0.696 Q1.996 0.369 1.379 0.250" stroke="hsl(120.0,100%,35%)" stroke-width="0.00430"></path>
<path d="M1.900 0.696 Q1.068 0.569 0.637 0.947" stroke="hsl(120.0,100%,35%)" stroke-width="0.00045"></path>
<path d="M1.900 0.696 Q1.749 0.544 1.420 0.585" stroke="hsl(120.0,100%,35%)" stroke-width="0.00769"></path>
<path d="M1.900 0.696 Q1.671 0.448 1.138 0.506" stroke="hsl(120.0,100%,35%)" stroke-width="0.00294"></path>
<path d="M1.900 0.696 Q1.709 0.315 0.924 0.324" stroke="hsl(120.0,100%,35%)" stroke-width="0.00136"></path>
<path d="M1.900 0.696 Q1.310 0.669 1.128 0.951" stroke="hsl(120.0,100%,35%)" stroke-width="0.00023"></path>
<path d="M1.900 0.696 Q1.691 0.722 1.697 0.830" stroke="hsl(120.0,100%,35%)" stroke-width="0.00023"></path>
<path d="M1.138 0.506 Q1.367 0.753 1.900 0.696" stroke="hsl(120.0,100%,35%)" stroke-width="0.00136"></path>
<path d="M1.138 0.506 Q1.216 0.602 1.420 0.585" stroke="hsl(120.0,100%,35%)" stroke-width="0.00701"></path>
<path d="M1.138 0.506 Q0.565 0.550 0.526 0.839" stroke="hsl(120.0,100%,35%)" stroke-width="0.00113"></path>
<path d="M1.138 0.506 Q1.463 0.426 1.379 0.250" stroke="hsl(120.0,100%,35%)" stroke-width="0.00023"></path>
<path d="M1.138 0.506 Q1.194 0.742 1.668 0.767" stroke="hsl(120.0,100%,35%)" stroke-width="0.00181"></path>
<path d="M1.138 0.506 Q1.436 0.668 1.818 0.558" stroke="hsl(120.0,100%,35%)" stroke-width="0.00113"></path>
<path d="M1.138 0.506 Q1.336 0.324 1.024 0.187" stroke="hsl(120.0,100%,35%)" stroke-width="0.00023"></path>
<path d="M1.138 0.506 Q1.256 0.840 1.933 0.855" stroke="hsl(120.0,100%,35%)" stroke-width="0.00023"></path>
<path d="M1.138 0.506 Q0.996 0.625 1.198 0.720" stroke="hsl(120.0,100%,35%)" stroke-width="0.00045"></path>
<path d="M1.668 0.767 Q1.910 0.692 1.818 0.558" stroke="hsl(120.0,100%,35%)" stroke-width="0.01673"></path>
<path d="M1.668 0.767 Q1.937 0.450 1.379 0.250" stroke="hsl(120.0,100%,35%)" stroke-width="0.00203"></path>
<path d="M1.668 0.767 Q1.690 0.626 1.420 0.585" stroke="hsl(120.0,100%,35%)" stroke-width="0.00791"></path>
<path d="M1.668 0.767 Q1.841 0.778 1.900 0.696" stroke="hsl(120.0,100%,35%)" stroke-width="0.01334"></path>
<path d="M1.668 0.767 Q1.385 0.508 0.819 0.589" stroke="hsl(120.0,100%,35%)" stroke-width="0.00045"></path>
<path d="M1.668 0.767 Q1.810 0.348 1.024 0.187" stroke="hsl(120.0,100%,35%)" stroke-width="0.00113"></path>
<path d="M1.668 0.767 Q1.612 0.530 1.138 0.506" stroke="hsl(120.0,100%,35%)" stroke-width="0.00859"></path>
<path d="M1.668 0.767 Q1.039 0.574 0.526 0.839" stroke="hsl(120.0,100%,35%)" stroke-width="0.00113"></path>
<path d="M1.668 0.767 Q1.251 0.751 1.128 0.951" stroke="hsl(120.0,100%,35%)" stroke-width="0.00023"></path>
<path d="M1.668 0.767 Q1.008 0.651 0.637 0.947" stroke="hsl(120.0,100%,35%)" stroke-width="0.00023"></path>
<path d="M1.668 0.767 Q1.632 0.804 1.697 0.830" stroke="hsl(120.0,100%,35%)" stroke-width="0.00023"></path>
<path d="M1.066 0.295 Q1.131 0.232 1.024 0.187" stroke="hsl(0.0,100%,35%)" stroke-width="0.00588"></path>
<path d="M1.066 0.295 Q0.330 0.535 0.637 0.947" stroke="hsl(0.0,100%,35%)" stroke-width="0.00045"></path>
<path d="M1.066 0.295 Q0.572 0.635 1.128 0.951" stroke="hsl(0.0,100%,35%)" stroke-width="0.00090"></path>
<path d="M1.176 0.389 Q1.142 0.536 1.420 0.585" stroke="hsl(120.0,100%,35%)" stroke-width="0.00113"></path>
<path d="M1.176 0.389 Q1.120 0.677 1.668 0.767" stroke="hsl(120.0,100%,35%)" stroke-width="0.00023"></path>
<path d="M1.176 0.389 Q1.292 0.688 1.900 0.696" stroke="hsl(120.0,100%,35%)" stroke-width="0.00045"></path>
<path d="M1.176 0.389 Q1.064 0.440 1.138 0.506" stroke="hsl(120.0,100%,35%)" stroke-width="0.00045"></path>
<path d="M1.400 0.917 Q1.026 0.703 0.526 0.839" stroke="hsl(0.0,100%,35%)" stroke-width="0.00226"></path>
<path d="M1.400 0.917 Q1.897 0.821 1.818 0.558" stroke="hsl(0.0,100%,35%)" stroke-width="0.00045"></path>
<path d="M1.400 0.917 Q1.409 0.865 1.309 0.850" stroke="hsl(0.0,100%,35%)" stroke-width="0.00158"></path>
<path d="M1.400 0.917 Q1.181 0.791 0.886 0.870" stroke="hsl(0.0,100%,35%)" stroke-width="0.00023"></path>
<path d="M1.400 0.917 Q0.995 0.780 0.637 0.947" stroke="hsl(0.0,100%,35%)" stroke-width="0.00045"></path>
<path d="M1.400 0.917 Q1.923 0.580 1.379 0.250" stroke="hsl(0.0,100%,35%)" stroke-width="0.00023"></path>
<path d="M1.400 0.917 Q1.676 0.755 1.420 0.585" stroke="hsl(0.0,100%,35%)" stroke-width="0.00023"></path>
<path d="M1.400 0.917 Q1.655 0.896 1.668 0.767" stroke="hsl(0.0,100%,35%)" stroke-width="0.00023"></path>
<path d="M1.400 0.917 Q1.796 0.477 1.024 0.187" stroke="hsl(0.0,100%,35%)" stroke-width="0.00045"></path>
<path d="M1.309 0.850 Q1.555 0.880 1.668 0.767" stroke="hsl(0.0,100%,35%)" stroke-width="0.00023"></path>
<path d="M1.309 0.850 Q0.926 0.688 0.526 0.839" stroke="hsl(0.0,100%,35%)" stroke-width="0.00023"></path>
<path d="M1.309 0.850 Q1.711 0.607 1.326 0.358" stroke="hsl(0.0,100%,35%)" stroke-width="0.00023"></path>
<path d="M0.886 0.870 Q0.730 0.782 0.526 0.839" stroke="hsl(0.0,100%,35%)" stroke-width="0.01538"></path>
<path d="M0.886 0.870 Q0.802 0.861 0.767 0.901" stroke="hsl(0.0,100%,35%)" stroke-width="0.00023"></path>
<path d="M0.886 0.870 Q1.501 0.556 1.024 0.187" stroke="hsl(0.0,100%,35%)" stroke-width="0.00045"></path>
<path d="M0.886 0.870 Q0.700 0.859 0.637 0.947" stroke="hsl(0.0,100%,35%)" stroke-width="0.00023"></path>
<path d="M0.886 0.870 Q1.628 0.659 1.379 0.250" stroke="hsl(0.0,100%,35%)" stroke-width="0.00136"></path>
<path d="M0.886 0.870 Q1.105 0.996 1.400 0.917" stroke="hsl(0.0,100%,35%)" stroke-width="0.00023"></path>
<path d="M0.886 0.870 Q1.602 0.900 1.818 0.558" stroke="hsl(0.0,100%,35%)" stroke-width="0.00023"></path>
<path d="M0.886 0.870 Q1.496 0.630 1.162 0.280" stroke="hsl(0.0,100%,35%)" stroke-width="0.00023"></path>
<path d="M0.924 0.324 Q1.211 0.378 1.379 0.250" stroke="hsl(0.0,100%,35%)" stroke-width="0.00203"></path>
<path d="M0.924 0.324 Q1.084 0.276 1.024 0.187" stroke="hsl(0.0,100%,35%)" stroke-width="0.00701"></path>
<path d="M0.924 0.324 Q1.185 0.620 1.818 0.558" stroke="hsl(0.0,100%,35%)" stroke-width="0.00203"></path>
<path d="M0.924 0.324 Q0.283 0.578 0.637 0.947" stroke="hsl(0.0,100%,35%)" stroke-width="0.00045"></path>
<path d="M0.924 0.324 Q0.313 0.502 0.526 0.839" stroke="hsl(0.0,100%,35%)" stroke-width="0.00045"></path>
<path d="M0.924 0.324 Q0.943 0.694 1.668 0.767" stroke="hsl(0.0,100%,35%)" stroke-width="0.00023"></path>
<path d="M0.819 0.589 Q0.473 0.655 0.526 0.839" stroke="hsl(0.0,100%,35%)" stroke-width="0.00430"></path>
<path d="M0.819 0.589 Q1.102 0.848 1.668 0.767" stroke="hsl(0.0,100%,35%)" stroke-width="0.00045"></path>
<path d="M0.819 0.589 Q1.243 0.429 1.024 0.187" stroke="hsl(0.0,100%,35%)" stroke-width="0.00113"></path>
<path d="M0.819 0.589 Q0.523 0.570 0.421 0.710" stroke="hsl(0.0,100%,35%)" stroke-width="0.00090"></path>
<path d="M0.819 0.589 Q0.694 0.500 0.493 0.541" stroke="hsl(0.0,100%,35%)" stroke-width="0.00249"></path>
<path d="M0.819 0.589 Q0.961 0.829 1.459 0.812" stroke="hsl(0.0,100%,35%)" stroke-width="0.00045"></path>
<path d="M0.819 0.589 Q0.442 0.732 0.637 0.947" stroke="hsl(0.0,100%,35%)" stroke-width="0.00203"></path>
<path d="M0.819 0.589 Q1.370 0.532 1.379 0.250" stroke="hsl(0.0,100%,35%)" stroke-width="0.00068"></path>
<path d="M0.819 0.589 Q1.274 0.859 1.900 0.696" stroke="hsl(0.0,100%,35%)" stroke-width="0.00023"></path>
<path d="M0.493 0.541 Q0.271 0.697 0.526 0.839" stroke="hsl(0.0,100%,35%)" stroke-width="0.00045"></path>
<path d="M0.493 0.541 Q0.617 0.631 0.819 0.589" stroke="hsl(0.0,100%,35%)" stroke-width="0.00113"></path>
<path d="M0.493 0.541 Q0.844 0.653 1.138 0.506" stroke="hsl(0.0,100%,35%)" stroke-width="0.00023"></path>
<path d="M0.493 0.541 Q1.142 0.815 1.818 0.558" stroke="hsl(0.0,100%,35%)" stroke-width="0.00023"></path>
<path d="M0.493 0.541 Q0.322 0.612 0.421 0.710" stroke="hsl(0.0,100%,35%)" stroke-width="0.00045"></path>
<path d="M0.493 0.541 Q0.241 0.773 0.637 0.947" stroke="hsl(0.0,100%,35%)" stroke-width="0.00023"></path>
<path d="M1.172 0.842 Q0.820 0.788 0.637 0.947" stroke="hsl(0.0,100%,35%)" stroke-width="0.00339"></path>
<path d="M1.172 0.842 Q0.851 0.711 0.526 0.839" stroke="hsl(0.0,100%,35%)" stroke-width="0.00090"></path>
<path d="M1.172 0.842 Q0.922 0.790 0.767 0.901" stroke="hsl(0.0,100%,35%)" stroke-width="0.00045"></path>
<path d="M1.172 0.842 Q1.197 0.645 0.819 0.589" stroke="hsl(0.0,100%,35%)" stroke-width="0.00045"></path>
<path d="M1.172 0.842 Q1.622 0.485 1.024 0.187" stroke="hsl(0.0,100%,35%)" stroke-width="0.00023"></path>
<path d="M1.352 0.477 Q1.300 0.545 1.420 0.585" stroke="hsl(120.0,100%,35%)" stroke-width="0.00407"></path>
<path d="M1.352 0.477 Q1.278 0.685 1.668 0.767" stroke="hsl(120.0,100%,35%)" stroke-width="0.00113"></path>
<path d="M1.352 0.477 Q1.520 0.610 1.818 0.558" stroke="hsl(120.0,100%,35%)" stroke-width="0.00068"></path>
<path d="M1.352 0.477 Q1.340 0.782 1.933 0.855" stroke="hsl(120.0,100%,35%)" stroke-width="0.00023"></path>
<path d="M1.352 0.477 Q1.547 0.369 1.379 0.250" stroke="hsl(120.0,100%,35%)" stroke-width="0.00023"></path>
<path d="M1.352 0.477 Q1.450 0.696 1.900 0.696" stroke="hsl(120.0,100%,35%)" stroke-width="0.00045"></path>
<path d="M1.352 0.477 Q1.420 0.266 1.024 0.187" stroke="hsl(120.0,100%,35%)" stroke-width="0.00023"></path>
<path d="M0.767 0.901 Q0.696 0.821 0.526 0.839" stroke="hsl(0.0,100%,35%)" stroke-width="0.00271"></path>
<path d="M0.767 0.901 Q0.665 0.898 0.637 0.947" stroke="hsl(0.0,100%,35%)" stroke-width="0.01153"></path>
<path d="M0.767 0.901 Q1.016 0.952 1.172 0.842" stroke="hsl(0.0,100%,35%)" stroke-width="0.00068"></path>
<path d="M0.767 0.901 Q1.466 0.595 1.024 0.187" stroke="hsl(0.0,100%,35%)" stroke-width="0.00090"></path>
<path d="M0.767 0.901 Q0.907 0.998 1.128 0.951" stroke="hsl(0.0,100%,35%)" stroke-width="0.00023"></path>
<path d="M0.767 0.901 Q1.346 0.873 1.420 0.585" stroke="hsl(0.0,100%,35%)" stroke-width="0.00023"></path>
<path d="M1.326 0.358 Q0.924 0.600 1.309 0.850" stroke="hsl(0.0,100%,35%)" stroke-width="0.00023"></path>
<path d="M1.326 0.358 Q1.312 0.212 1.024 0.187" stroke="hsl(0.0,100%,35%)" stroke-width="0.00023"></path>
<path d="M1.326 0.358 Q0.541 0.438 0.526 0.839" stroke="hsl(0.0,100%,35%)" stroke-width="0.00023"></path>
<path d="M1.326 0.358 Q0.510 0.515 0.637 0.947" stroke="hsl(0.0,100%,35%)" stroke-width="0.00023"></path>
<path d="M1.326 0.358 Q1.439 0.314 1.379 0.250" stroke="hsl(0.0,100%,35%)" stroke-width="0.00045"></path>
<path d="M1.326 0.358 Q1.192 0.490 1.420 0.585" stroke="hsl(0.0,100%,35%)" stroke-width="0.00068"></path>
<path d="M0.421 0.710 Q0.371 0.796 0.526 0.839" stroke="hsl(0.0,100%,35%)" stroke-width="0.00023"></path>
<path d="M0.421 0.710 Q0.717 0.730 0.819 0.589" stroke="hsl(0.0,100%,35%)" stroke-width="0.00045"></path>
<path d="M0.421 0.710 Q0.592 0.640 0.493 0.541" stroke="hsl(0.0,100%,35%)" stroke-width="0.00023"></path>
<path d="M0.673 0.130 Q0.803 0.229 1.024 0.187" stroke="hsl(0.0,100%,35%)" stroke-width="0.00113"></path>
<path d="M0.673 0.130 Q0.244 0.632 1.128 0.951" stroke="hsl(0.0,100%,35%)" stroke-width="0.00023"></path>
<path d="M0.673 0.130 Q0.661 0.647 1.668 0.767" stroke="hsl(0.0,100%,35%)" stroke-width="0.00023"></path>
<path d="M0.673 0.130 Q0.930 0.331 1.379 0.250" stroke="hsl(0.0,100%,35%)" stroke-width="0.00045"></path>
<path d="M0.818 0.905 Q1.495 0.587 1.024 0.187" stroke="hsl(0.0,100%,35%)" stroke-width="0.00023"></path>
<path d="M0.818 0.905 Q0.694 0.890 0.637 0.947" stroke="hsl(0.0,100%,35%)" stroke-width="0.00045"></path>
<path d="M0.818 0.905 Q1.526 1.017 1.900 0.696" stroke="hsl(0.0,100%,35%)" stroke-width="0.00023"></path>
<path d="M1.116 0.271 Q0.367 0.437 0.526 0.839" stroke="hsl(0.0,100%,35%)" stroke-width="0.00023"></path>
<path d="M1.116 0.271 Q1.138 0.211 1.024 0.187" stroke="hsl(0.0,100%,35%)" stroke-width="0.00045"></path>
<path d="M1.116 0.271 Q1.018 0.489 1.420 0.585" stroke="hsl(0.0,100%,35%)" stroke-width="0.00023"></path>
<path d="M0.815 0.194 Q1.052 0.335 1.379 0.250" stroke="hsl(0.0,100%,35%)" stroke-width="0.00023"></path>
<path d="M0.815 0.194 Q0.956 0.662 1.900 0.696" stroke="hsl(0.0,100%,35%)" stroke-width="0.00023"></path>
<path d="M0.815 0.194 Q0.925 0.232 1.024 0.187" stroke="hsl(0.0,100%,35%)" stroke-width="0.00045"></path>
<path d="M0.815 0.194 Q0.154 0.458 0.526 0.839" stroke="hsl(0.0,100%,35%)" stroke-width="0.00045"></path>
<path d="M1.198 0.720 Q1.417 0.697 1.420 0.585" stroke="hsl(120.0,100%,35%)" stroke-width="0.00136"></path>
<path d="M1.198 0.720 Q1.339 0.601 1.138 0.506" stroke="hsl(120.0,100%,35%)" stroke-width="0.00090"></path>
<path d="M1.198 0.720 Q0.978 0.822 1.128 0.951" stroke="hsl(120.0,100%,35%)" stroke-width="0.00339"></path>
<path d="M1.198 0.720 Q1.396 0.837 1.668 0.767" stroke="hsl(120.0,100%,35%)" stroke-width="0.00113"></path>
<path d="M1.198 0.720 Q0.767 0.645 0.526 0.839" stroke="hsl(120.0,100%,35%)" stroke-width="0.00023"></path>
<path d="M1.198 0.720 Q1.664 0.521 1.379 0.250" stroke="hsl(120.0,100%,35%)" stroke-width="0.00090"></path>
<path d="M1.198 0.720 Q1.638 0.763 1.818 0.558" stroke="hsl(120.0,100%,35%)" stroke-width="0.00023"></path>
<path d="M1.198 0.720 Q1.537 0.419 1.024 0.187" stroke="hsl(120.0,100%,35%)" stroke-width="0.00023"></path>
<path d="M1.459 0.812 Q1.477 0.724 1.309 0.696" stroke="hsl(240.0,100%,35%)" stroke-width="0.00407"></path>
<path d="M1.459 0.812 Q1.345 0.853 1.400 0.917" stroke="hsl(240.0,100%,35%)" stroke-width="0.00045"></path>
<path d="M1.459 0.812 Q0.971 0.639 0.526 0.839" stroke="hsl(240.0,100%,35%)" stroke-width="0.00023"></path>
<path d="M1.459 0.812 Q1.737 0.487 1.162 0.280" stroke="hsl(240.0,100%,35%)" stroke-width="0.00045"></path>
<path d="M1.459 0.812 Q1.742 0.413 1.024 0.187" stroke="hsl(240.0,100%,35%)" stroke-width="0.00045"></path>
<path d="M1.031 0.265 Q0.970 0.503 1.420 0.585" stroke="hsl(0.0,100%,35%)" stroke-width="0.00023"></path>
<path d="M1.031 0.265 Q1.120 0.654 1.900 0.696" stroke="hsl(0.0,100%,35%)" stroke-width="0.00023"></path>
<path d="M1.031 0.265 Q1.090 0.225 1.024 0.187" stroke="hsl(0.0,100%,35%)" stroke-width="0.00045"></path>
<path d="M1.062 0.635 Q1.402 0.404 1.024 0.187" stroke="hsl(120.0,100%,35%)" stroke-width="0.00068"></path>
<path d="M1.062 0.635 Q1.282 0.682 1.420 0.585" stroke="hsl(120.0,100%,35%)" stroke-width="0.00090"></path>
<path d="M1.062 0.635 Q1.322 0.920 1.933 0.855" stroke="hsl(120.0,100%,35%)" stroke-width="0.00023"></path>
<path d="M1.062 0.635 Q1.432 0.833 1.900 0.696" stroke="hsl(120.0,100%,35%)" stroke-width="0.00023"></path>
<path d="M1.000 0.767 Q0.917 0.884 1.128 0.951" stroke="hsl(0.0,100%,35%)" stroke-width="0.00023"></path>
<path d="M1.000 0.767 Q1.476 0.482 1.024 0.187" stroke="hsl(0.0,100%,35%)" stroke-width="0.00023"></path>
<path d="M1.000 0.767 Q0.705 0.708 0.526 0.839" stroke="hsl(0.0,100%,35%)" stroke-width="0.00023"></path>
<path d="M1.697 0.830 Q1.906 0.804 1.900 0.696" stroke="hsl(0.0,100%,35%)" stroke-width="0.00543"></path>
<path d="M1.697 0.830 Q1.104 0.600 0.526 0.839" stroke="hsl(0.0,100%,35%)" stroke-width="0.00068"></path>
<path d="M1.697 0.830 Q1.795 0.890 1.933 0.855" stroke="hsl(0.0,100%,35%)" stroke-width="0.00339"></path>
<path d="M1.697 0.830 Q2.002 0.477 1.379 0.250" stroke="hsl(0.0,100%,35%)" stroke-width="0.00249"></path>
<path d="M1.697 0.830 Q2.078 0.366 1.256 0.078" stroke="hsl(0.0,100%,35%)" stroke-width="0.00023"></path>
<path d="M1.697 0.830 Q1.733 0.793 1.668 0.767" stroke="hsl(0.0,100%,35%)" stroke-width="0.00023"></path>
<path d="M1.697 0.830 Q1.677 0.556 1.138 0.506" stroke="hsl(0.0,100%,35%)" stroke-width="0.00045"></path>
<path d="M0.903 0.079 Q0.878 0.157 1.024 0.187" stroke="hsl(0.0,100%,35%)" stroke-width="0.00136"></path>
<path d="M0.903 0.079 Q0.076 0.460 0.637 0.947" stroke="hsl(0.0,100%,35%)" stroke-width="0.00113"></path>
<path d="M0.903 0.079 Q0.453 0.317 0.819 0.589" stroke="hsl(0.0,100%,35%)" stroke-width="0.00023"></path>
<path d="M1.770 0.786 Q1.756 0.615 1.420 0.585" stroke="hsl(120.0,100%,35%)" stroke-width="0.00023"></path>
<path d="M1.770 0.786 Q1.876 0.337 1.024 0.187" stroke="hsl(120.0,100%,35%)" stroke-width="0.00045"></path>
<path d="M1.770 0.786 Q1.907 0.767 1.900 0.696" stroke="hsl(120.0,100%,35%)" stroke-width="0.00068"></path>
<path d="M1.770 0.786 Q1.678 0.519 1.138 0.506" stroke="hsl(120.0,100%,35%)" stroke-width="0.00023"></path>
<path d="M0.710 0.104 Q0.801 0.209 1.024 0.187" stroke="hsl(0.0,100%,35%)" stroke-width="0.00068"></path>
<path d="M0.710 0.104 Q0.242 0.611 1.128 0.951" stroke="hsl(0.0,100%,35%)" stroke-width="0.00023"></path>
<path d="M0.710 0.104 Q0.031 0.435 0.526 0.839" stroke="hsl(0.0,100%,35%)" stroke-width="0.00045"></path>
<path d="M0.749 0.719 Q1.312 0.508 1.024 0.187" stroke="hsl(0.0,100%,35%)" stroke-width="0.00203"></path>
<path d="M0.749 0.719 Q0.511 0.810 0.637 0.947" stroke="hsl(0.0,100%,35%)" stroke-width="0.00158"></path>
<path d="M0.749 0.719 Q0.887 0.668 0.819 0.589" stroke="hsl(0.0,100%,35%)" stroke-width="0.00249"></path>
<path d="M0.749 0.719 Q1.171 0.927 1.668 0.767" stroke="hsl(0.0,100%,35%)" stroke-width="0.00023"></path>
<path d="M0.954 0.692 Q1.393 0.454 1.024 0.187" stroke="hsl(0.0,100%,35%)" stroke-width="0.00023"></path>
<path d="M0.954 0.692 Q0.834 0.856 1.128 0.951" stroke="hsl(0.0,100%,35%)" stroke-width="0.00045"></path>
<path d="M0.954 0.692 Q1.233 0.502 0.924 0.324" stroke="hsl(0.0,100%,35%)" stroke-width="0.00023"></path>
<path d="M1.390 0.423 Q1.427 0.662 1.900 0.696" stroke="hsl(120.0,100%,35%)" stroke-width="0.00249"></path>
<path d="M1.390 0.423 Q1.057 0.533 1.198 0.720" stroke="hsl(120.0,100%,35%)" stroke-width="0.00023"></path>
<path d="M1.390 0.423 Q1.236 0.281 0.924 0.324" stroke="hsl(120.0,100%,35%)" stroke-width="0.00023"></path>
<path d="M1.390 0.423 Q0.595 0.534 0.637 0.947" stroke="hsl(120.0,100%,35%)" stroke-width="0.00023"></path>
<path d="M1.390 0.423 Q1.276 0.510 1.420 0.585" stroke="hsl(120.0,100%,35%)" stroke-width="0.00226"></path>
<path d="M1.390 0.423 Q1.255 0.650 1.668 0.767" stroke="hsl(120.0,100%,35%)" stroke-width="0.00023"></path>
<path d="M1.390 0.423 Q1.496 0.576 1.818 0.558" stroke="hsl(120.0,100%,35%)" stroke-width="0.00023"></path>
<path d="M0.961 0.541 Q1.155 0.655 1.420 0.585" stroke="hsl(120.0,100%,35%)" stroke-width="0.00068"></path>
<path d="M0.961 0.541 Q1.306 0.806 1.900 0.696" stroke="hsl(120.0,100%,35%)" stroke-width="0.00045"></path>
<path d="M0.961 0.541 Q1.077 0.559 1.138 0.506" stroke="hsl(120.0,100%,35%)" stroke-width="0.00023"></path>
<path d="M0.961 0.541 Q1.134 0.795 1.668 0.767" stroke="hsl(120.0,100%,35%)" stroke-width="0.00023"></path>
<path d="M0.787 0.185 Q0.904 0.233 1.024 0.187" stroke="hsl(0.0,100%,35%)" stroke-width="0.00113"></path>
<path d="M0.787 0.185 Q1.004 0.577 1.818 0.558" stroke="hsl(0.0,100%,35%)" stroke-width="0.00068"></path>
<path d="M0.787 0.185 Q0.744 0.282 0.924 0.324" stroke="hsl(0.0,100%,35%)" stroke-width="0.00023"></path>
<path d="M0.787 0.185 Q1.031 0.336 1.379 0.250" stroke="hsl(0.0,100%,35%)" stroke-width="0.00023"></path>
<path d="M0.787 0.185 Q0.934 0.663 1.900 0.696" stroke="hsl(0.0,100%,35%)" stroke-width="0.00045"></path>
<path d="M1.818 0.833 Q1.817 0.629 1.420 0.585" stroke="hsl(120.0,100%,35%)" stroke-width="0.00203"></path>
<path d="M1.818 0.833 Q2.038 0.695 1.818 0.558" stroke="hsl(120.0,100%,35%)" stroke-width="0.00023"></path>
<path d="M1.818 0.833 Q1.968 0.781 1.900 0.696" stroke="hsl(120.0,100%,35%)" stroke-width="0.00339"></path>
<path d="M1.902 0.953 Q1.274 0.697 0.637 0.947" stroke="hsl(120.0,100%,35%)" stroke-width="0.00023"></path>
<path d="M1.902 0.953 Q2.106 0.824 1.900 0.696" stroke="hsl(120.0,100%,35%)" stroke-width="0.00045"></path>
<path d="M1.902 0.953 Q2.076 0.394 1.024 0.187" stroke="hsl(120.0,100%,35%)" stroke-width="0.00023"></path>
<path d="M1.404 1.035 Q1.772 0.813 1.420 0.585" stroke="hsl(120.0,100%,35%)" stroke-width="0.00023"></path>
<path d="M1.404 1.035 Q1.892 0.535 1.024 0.187" stroke="hsl(120.0,100%,35%)" stroke-width="0.00045"></path>
<path d="M1.404 1.035 Q1.993 0.879 1.818 0.558" stroke="hsl(120.0,100%,35%)" stroke-width="0.00045"></path>
</g>
<text x="1.088" y="0.371" font-size="0.007016" fill="hsl(0.0,100%,20%)">aperez</text>
<text x="1.420" y="0.561" font-size="0.047458" fill="hsl(120.0,100%,20%)">egdaniel</text>
<text x="0.526" y="0.806" font-size="0.065960" fill="hsl(0.0,100%,20%)">kjlubick</text>
<text x="0.637" y="0.920" font-size="0.053031" fill="hsl(0.0,100%,20%)">bungeman</text>
<text x="1.024" y="0.153" font-size="0.068433" fill="hsl(0.0,100%,20%)">brianosman</text>
<text x="1.128" y="0.941" font-size="0.019215" fill="hsl(120.0,100%,20%)">scroggo</text>
<text x="1.379" y="0.217" font-size="0.066933" fill="hsl(0.0,100%,20%)">johnstiles</text>
<text x="1.256" y="0.062" font-size="0.031865" fill="hsl(120.0,100%,20%)">armansito</text>
<text x="1.933" y="0.839" font-size="0.032344" fill="hsl(120.0,100%,20%)">jamesgk</text>
<text x="1.818" y="0.530" font-size="0.055967" fill="hsl(120.0,100%,20%)">jvanverth</text>
<text x="1.900" y="0.662" font-size="0.067937" fill="hsl(120.0,100%,20%)">michaelludwig</text>
<text x="1.138" y="0.486" font-size="0.039302" fill="hsl(120.0,100%,20%)">nicolettep</text>
<text x="1.668" y="0.739" font-size="0.055967" fill="hsl(120.0,100%,20%)">robertphillips</text>
<text x="1.066" y="0.287" font-size="0.014251" fill="hsl(0.0,100%,20%)">ccameron</text>
<text x="1.176" y="0.385" font-size="0.007845" fill="hsl(120.0,100%,20%)">blundell</text>
<text x="1.400" y="0.909" font-size="0.017187" fill="hsl(0.0,100%,20%)">borenet</text>
<text x="1.309" y="0.845" font-size="0.009608" fill="hsl(0.0,100%,20%)">rmistry</text>
<text x="0.886" y="0.857" font-size="0.026370" fill="hsl(0.0,100%,20%)">lovisolo</text>
<text x="0.924" y="0.312" font-size="0.024179" fill="hsl(0.0,100%,20%)">herb</text>
<text x="0.819" y="0.575" font-size="0.027956" fill="hsl(0.0,100%,20%)">fmalita</text>
<text x="0.869" y="0.454" font-size="0.004961" fill="hsl(120.0,100%,20%)">jreck</text>
<text x="0.493" y="0.534" font-size="0.015089" fill="hsl(0.0,100%,20%)">jmbetancourt</text>
<text x="1.172" y="0.833" font-size="0.018060" fill="hsl(0.0,100%,20%)">jlavrova</text>
<text x="1.352" y="0.470" font-size="0.013812" fill="hsl(120.0,100%,20%)">briansalomon</text>
<text x="0.767" y="0.889" font-size="0.023664" fill="hsl(0.0,100%,20%)">drott</text>
<text x="1.326" y="0.353" font-size="0.008944" fill="hsl(0.0,100%,20%)">jcgregorio</text>
<text x="1.309" y="0.691" font-size="0.011094" fill="hsl(240.0,100%,20%)">hcm</text>
<text x="0.421" y="0.706" font-size="0.008944" fill="hsl(0.0,100%,20%)">bwils</text>
<text x="0.673" y="0.126" font-size="0.007442" fill="hsl(0.0,100%,20%)">chengyangyang-hf</text>
<text x="0.818" y="0.903" font-size="0.004961" fill="hsl(0.0,100%,20%)">coldpalelight</text>
<text x="1.116" y="0.269" font-size="0.004961" fill="hsl(0.0,100%,20%)">danieldilan</text>
<text x="0.815" y="0.191" font-size="0.006076" fill="hsl(0.0,100%,20%)">dcheng</text>
<text x="1.198" y="0.710" font-size="0.019846" fill="hsl(120.0,100%,20%)">nscobie</text>
<text x="1.459" y="0.806" font-size="0.012890" fill="hsl(240.0,100%,20%)">sharaks</text>
<text x="1.031" y="0.262" font-size="0.004961" fill="hsl(0.0,100%,20%)">geofflang</text>
<text x="1.062" y="0.632" font-size="0.007442" fill="hsl(120.0,100%,20%)">hitawala</text>
<text x="1.000" y="0.764" font-size="0.004297" fill="hsl(0.0,100%,20%)">jgaillard</text>
<text x="1.333" y="0.050" font-size="0.002481" fill="hsl(0.0,100%,20%)">djsollen</text>
<text x="1.162" y="0.276" font-size="0.007016" fill="hsl(0.0,100%,20%)">cmumford</text>
<text x="1.697" y="0.819" font-size="0.021768" fill="hsl(0.0,100%,20%)">nathanasanchez</text>
<text x="0.462" y="0.848" font-size="0.003508" fill="hsl(0.0,100%,20%)">tdenniston</text>
<text x="0.440" y="0.895" font-size="0.002481" fill="hsl(0.0,100%,20%)">mingkong</text>
<text x="0.910" y="1.409" font-size="0.002481" fill="hsl(0.0,100%,20%)">ashwinpv</text>
<text x="0.903" y="0.075" font-size="0.008593" fill="hsl(0.0,100%,20%)">kschmi</text>
<text x="1.770" y="0.783" font-size="0.006563" fill="hsl(120.0,100%,20%)">lokokung</text>
<text x="0.710" y="0.101" font-size="0.006076" fill="hsl(0.0,100%,20%)">lukasza</text>
<text x="0.749" y="0.712" font-size="0.013127" fill="hsl(0.0,100%,20%)">mike</text>
<text x="0.954" y="0.690" font-size="0.004961" fill="hsl(0.0,100%,20%)">nigeltao</text>
<text x="1.390" y="0.417" font-size="0.012649" fill="hsl(120.0,100%,20%)">penghuang</text>
<text x="0.961" y="0.537" font-size="0.006563" fill="hsl(120.0,100%,20%)">petermcneeley</text>
<text x="0.787" y="0.181" font-size="0.008593" fill="hsl(0.0,100%,20%)">sky</text>
<text x="1.818" y="0.827" font-size="0.012403" fill="hsl(120.0,100%,20%)">sunnyps</text>
<text x="1.902" y="0.950" font-size="0.004961" fill="hsl(120.0,100%,20%)">tangm</text>
<text x="1.404" y="1.032" font-size="0.005547" fill="hsl(120.0,100%,20%)">zhusida</text>
</svg>
