<svg width="4000" height="2000" viewBox="-0.025 -0.025 2.05 1.05" xmlns="http://www.w3.org/2000/svg">
  <style>
    path {
      fill: none;
      stroke-linecap: round;
      stroke-opacity: 0.4;
    }

    text {
      text-anchor: middle;
      alignment-baseline: hanging;
    }
  </style>
  <g opacity="0.4">
<path d="M1.266 0.280 Q1.109 0.478 1.462 0.598" stroke="hsl(0.0,100%,35%)" stroke-width="0.00033"></path>
<path d="M1.266 0.280 Q1.086 0.165 0.822 0.228" stroke="hsl(0.0,100%,35%)" stroke-width="0.00132"></path>
<path d="M1.266 0.280 Q1.068 0.324 1.110 0.430" stroke="hsl(0.0,100%,35%)" stroke-width="0.00033"></path>
<path d="M1.462 0.598 Q0.863 0.295 0.140 0.520" stroke="hsl(0.0,100%,35%)" stroke-width="0.00033"></path>
<path d="M1.462 0.598 Q1.709 0.480 1.533 0.334" stroke="hsl(0.0,100%,35%)" stroke-width="0.00066"></path>
<path d="M1.462 0.598 Q1.037 0.593 0.934 0.799" stroke="hsl(0.0,100%,35%)" stroke-width="0.00033"></path>
<path d="M1.462 0.598 Q1.170 0.440 0.797 0.548" stroke="hsl(0.0,100%,35%)" stroke-width="0.00033"></path>
<path d="M0.822 0.228 Q0.339 0.344 0.460 0.606" stroke="hsl(0.0,100%,35%)" stroke-width="0.00691"></path>
<path d="M0.822 0.228 Q0.437 0.427 0.741 0.659" stroke="hsl(0.0,100%,35%)" stroke-width="0.00099"></path>
<path d="M0.822 0.228 Q0.249 0.636 0.920 1.005" stroke="hsl(0.0,100%,35%)" stroke-width="0.00033"></path>
<path d="M0.822 0.228 Q0.863 0.127 0.675 0.085" stroke="hsl(0.0,100%,35%)" stroke-width="0.00066"></path>
<path d="M0.822 0.228 Q0.897 0.300 1.055 0.280" stroke="hsl(0.0,100%,35%)" stroke-width="0.00197"></path>
<path d="M0.822 0.228 Q0.247 0.238 0.140 0.520" stroke="hsl(0.0,100%,35%)" stroke-width="0.00132"></path>
<path d="M0.822 0.228 Q0.655 0.253 0.667 0.340" stroke="hsl(0.0,100%,35%)" stroke-width="0.00033"></path>
<path d="M0.822 0.228 Q0.553 0.383 0.797 0.548" stroke="hsl(0.0,100%,35%)" stroke-width="0.00033"></path>
<path d="M0.822 0.228 Q0.480 0.226 0.402 0.392" stroke="hsl(0.0,100%,35%)" stroke-width="0.00164"></path>
<path d="M0.822 0.228 Q0.173 0.299 0.170 0.631" stroke="hsl(0.0,100%,35%)" stroke-width="0.00099"></path>
<path d="M0.822 0.228 Q0.804 0.386 1.110 0.430" stroke="hsl(0.0,100%,35%)" stroke-width="0.00230"></path>
<path d="M0.822 0.228 Q0.010 0.438 0.242 0.880" stroke="hsl(0.0,100%,35%)" stroke-width="0.00099"></path>
<path d="M0.822 0.228 Q1.093 0.423 1.533 0.334" stroke="hsl(0.0,100%,35%)" stroke-width="0.00033"></path>
<path d="M0.822 0.228 Q0.155 0.381 0.307 0.740" stroke="hsl(0.0,100%,35%)" stroke-width="0.00099"></path>
<path d="M1.110 0.430 Q0.644 0.388 0.460 0.606" stroke="hsl(0.0,100%,35%)" stroke-width="0.00329"></path>
<path d="M1.110 0.430 Q0.726 0.579 0.934 0.799" stroke="hsl(0.0,100%,35%)" stroke-width="0.00066"></path>
<path d="M1.110 0.430 Q1.305 0.730 1.933 0.700" stroke="hsl(0.0,100%,35%)" stroke-width="0.00099"></path>
<path d="M1.110 0.430 Q1.128 0.271 0.822 0.228" stroke="hsl(0.0,100%,35%)" stroke-width="0.00888"></path>
<path d="M1.110 0.430 Q1.151 0.584 1.462 0.598" stroke="hsl(0.0,100%,35%)" stroke-width="0.00033"></path>
<path d="M1.110 0.430 Q0.315 0.481 0.242 0.880" stroke="hsl(0.0,100%,35%)" stroke-width="0.00362"></path>
<path d="M1.110 0.430 Q0.785 0.269 0.402 0.392" stroke="hsl(0.0,100%,35%)" stroke-width="0.00099"></path>
<path d="M1.110 0.430 Q0.849 0.478 0.886 0.616" stroke="hsl(0.0,100%,35%)" stroke-width="0.00033"></path>
<path d="M1.110 0.430 Q0.986 0.390 0.882 0.442" stroke="hsl(0.0,100%,35%)" stroke-width="0.00033"></path>
<path d="M1.110 0.430 Q1.076 0.501 1.208 0.532" stroke="hsl(0.0,100%,35%)" stroke-width="0.00033"></path>
<path d="M1.748 0.435 Q1.049 0.454 0.934 0.799" stroke="hsl(180.0,100%,35%)" stroke-width="0.00033"></path>
<path d="M1.748 0.435 Q0.638 0.356 0.242 0.880" stroke="hsl(180.0,100%,35%)" stroke-width="0.00099"></path>
<path d="M1.748 0.435 Q1.451 0.146 0.822 0.228" stroke="hsl(180.0,100%,35%)" stroke-width="0.00033"></path>
<path d="M1.748 0.435 Q1.065 0.345 0.741 0.659" stroke="hsl(180.0,100%,35%)" stroke-width="0.00066"></path>
<path d="M1.748 0.435 Q1.628 0.604 1.933 0.700" stroke="hsl(180.0,100%,35%)" stroke-width="0.00033"></path>
<path d="M0.934 0.799 Q0.950 0.690 0.741 0.659" stroke="hsl(0.0,100%,35%)" stroke-width="0.00395"></path>
<path d="M0.934 0.799 Q0.993 0.489 0.402 0.392" stroke="hsl(0.0,100%,35%)" stroke-width="0.00197"></path>
<path d="M0.934 0.799 Q0.803 0.439 0.072 0.425" stroke="hsl(0.0,100%,35%)" stroke-width="0.00099"></path>
<path d="M0.934 0.799 Q0.760 0.501 0.140 0.520" stroke="hsl(0.0,100%,35%)" stroke-width="0.00033"></path>
<path d="M0.934 0.799 Q1.335 0.491 0.822 0.228" stroke="hsl(0.0,100%,35%)" stroke-width="0.00164"></path>
<path d="M0.934 0.799 Q0.523 0.701 0.242 0.880" stroke="hsl(0.0,100%,35%)" stroke-width="0.00164"></path>
<path d="M0.934 0.799 Q1.513 0.950 1.933 0.700" stroke="hsl(0.0,100%,35%)" stroke-width="0.00164"></path>
<path d="M0.934 0.799 Q1.376 0.390 0.675 0.085" stroke="hsl(0.0,100%,35%)" stroke-width="0.00066"></path>
<path d="M0.934 0.799 Q1.056 0.698 0.886 0.616" stroke="hsl(0.0,100%,35%)" stroke-width="0.00033"></path>
<path d="M0.934 0.799 Q0.852 0.607 0.460 0.606" stroke="hsl(0.0,100%,35%)" stroke-width="0.00066"></path>
<path d="M0.934 0.799 Q1.317 0.649 1.110 0.430" stroke="hsl(0.0,100%,35%)" stroke-width="0.00033"></path>
<path d="M0.242 0.880 Q0.653 0.978 0.934 0.799" stroke="hsl(180.0,100%,35%)" stroke-width="0.00329"></path>
<path d="M0.242 0.880 Q0.521 0.618 0.072 0.425" stroke="hsl(180.0,100%,35%)" stroke-width="0.00921"></path>
<path d="M0.242 0.880 Q0.249 0.954 0.395 0.967" stroke="hsl(180.0,100%,35%)" stroke-width="0.00855"></path>
<path d="M0.242 0.880 Q0.869 0.612 0.483 0.247" stroke="hsl(180.0,100%,35%)" stroke-width="0.00033"></path>
<path d="M0.242 0.880 Q0.481 1.078 0.920 1.005" stroke="hsl(180.0,100%,35%)" stroke-width="0.01217"></path>
<path d="M0.242 0.880 Q0.712 0.668 0.402 0.392" stroke="hsl(180.0,100%,35%)" stroke-width="0.02434"></path>
<path d="M0.242 0.880 Q1.094 0.569 0.675 0.085" stroke="hsl(180.0,100%,35%)" stroke-width="0.00164"></path>
<path d="M0.242 0.880 Q1.231 1.129 1.933 0.700" stroke="hsl(180.0,100%,35%)" stroke-width="0.00757"></path>
<path d="M0.242 0.880 Q0.570 0.786 0.460 0.606" stroke="hsl(180.0,100%,35%)" stroke-width="0.00428"></path>
<path d="M0.242 0.880 Q0.479 0.680 0.140 0.520" stroke="hsl(180.0,100%,35%)" stroke-width="0.00033"></path>
<path d="M0.242 0.880 Q0.668 0.869 0.741 0.659" stroke="hsl(180.0,100%,35%)" stroke-width="0.00066"></path>
<path d="M0.242 0.880 Q1.036 0.828 1.110 0.430" stroke="hsl(180.0,100%,35%)" stroke-width="0.00197"></path>
<path d="M0.242 0.880 Q1.054 0.670 0.822 0.228" stroke="hsl(180.0,100%,35%)" stroke-width="0.00033"></path>
<path d="M0.242 0.880 Q0.389 0.893 0.446 0.824" stroke="hsl(180.0,100%,35%)" stroke-width="0.00230"></path>
<path d="M0.242 0.880 Q0.387 0.823 0.307 0.740" stroke="hsl(180.0,100%,35%)" stroke-width="0.00033"></path>
<path d="M0.741 0.659 Q0.725 0.768 0.934 0.799" stroke="hsl(0.0,100%,35%)" stroke-width="0.00987"></path>
<path d="M0.741 0.659 Q0.459 0.612 0.307 0.740" stroke="hsl(0.0,100%,35%)" stroke-width="0.00230"></path>
<path d="M0.741 0.659 Q0.643 0.576 0.460 0.606" stroke="hsl(0.0,100%,35%)" stroke-width="0.00789"></path>
<path d="M0.741 0.659 Q0.784 0.458 0.402 0.392" stroke="hsl(0.0,100%,35%)" stroke-width="0.00164"></path>
<path d="M0.741 0.659 Q1.127 0.459 0.822 0.228" stroke="hsl(0.0,100%,35%)" stroke-width="0.00921"></path>
<path d="M0.741 0.659 Q0.858 0.615 0.797 0.548" stroke="hsl(0.0,100%,35%)" stroke-width="0.00066"></path>
<path d="M0.741 0.659 Q1.167 0.359 0.675 0.085" stroke="hsl(0.0,100%,35%)" stroke-width="0.00099"></path>
<path d="M0.741 0.659 Q0.594 0.408 0.072 0.425" stroke="hsl(0.0,100%,35%)" stroke-width="0.00033"></path>
<path d="M0.741 0.659 Q0.554 0.868 0.920 1.005" stroke="hsl(0.0,100%,35%)" stroke-width="0.00033"></path>
<path d="M0.741 0.659 Q0.848 0.667 0.886 0.616" stroke="hsl(0.0,100%,35%)" stroke-width="0.00921"></path>
<path d="M0.741 0.659 Q0.551 0.470 0.140 0.520" stroke="hsl(0.0,100%,35%)" stroke-width="0.00033"></path>
<path d="M0.741 0.659 Q1.109 0.618 1.110 0.430" stroke="hsl(0.0,100%,35%)" stroke-width="0.00197"></path>
<path d="M0.741 0.659 Q0.314 0.670 0.242 0.880" stroke="hsl(0.0,100%,35%)" stroke-width="0.00099"></path>
<path d="M0.741 0.659 Q0.641 0.657 0.616 0.706" stroke="hsl(0.0,100%,35%)" stroke-width="0.00066"></path>
<path d="M0.741 0.659 Q0.960 0.655 1.000 0.547" stroke="hsl(0.0,100%,35%)" stroke-width="0.00197"></path>
<path d="M0.741 0.659 Q1.397 0.655 1.533 0.334" stroke="hsl(0.0,100%,35%)" stroke-width="0.00132"></path>
<path d="M1.933 0.700 Q2.027 0.437 1.533 0.334" stroke="hsl(180.0,100%,35%)" stroke-width="0.00066"></path>
<path d="M1.933 0.700 Q1.183 0.650 0.920 1.005" stroke="hsl(180.0,100%,35%)" stroke-width="0.00526"></path>
<path d="M1.933 0.700 Q1.779 0.555 1.462 0.598" stroke="hsl(180.0,100%,35%)" stroke-width="0.00033"></path>
<path d="M1.933 0.700 Q1.414 0.240 0.402 0.392" stroke="hsl(180.0,100%,35%)" stroke-width="0.00197"></path>
<path d="M1.933 0.700 Q0.944 0.452 0.242 0.880" stroke="hsl(180.0,100%,35%)" stroke-width="0.00592"></path>
<path d="M1.933 0.700 Q1.223 0.190 0.072 0.425" stroke="hsl(180.0,100%,35%)" stroke-width="0.00164"></path>
<path d="M1.933 0.700 Q1.061 0.292 0.073 0.627" stroke="hsl(180.0,100%,35%)" stroke-width="0.00033"></path>
<path d="M1.933 0.700 Q1.181 0.252 0.140 0.520" stroke="hsl(180.0,100%,35%)" stroke-width="0.00033"></path>
<path d="M1.933 0.700 Q1.370 0.441 0.741 0.659" stroke="hsl(180.0,100%,35%)" stroke-width="0.00033"></path>
<path d="M1.933 0.700 Q0.951 0.526 0.395 0.967" stroke="hsl(180.0,100%,35%)" stroke-width="0.00033"></path>
<path d="M0.305 0.499 Q0.380 0.775 0.934 0.799" stroke="hsl(0.0,100%,35%)" stroke-width="0.00033"></path>
<path d="M0.305 0.499 Q0.297 0.583 0.460 0.606" stroke="hsl(0.0,100%,35%)" stroke-width="0.00164"></path>
<path d="M0.305 0.499 Q0.439 0.465 0.402 0.392" stroke="hsl(0.0,100%,35%)" stroke-width="0.00099"></path>
<path d="M0.305 0.499 Q0.396 0.666 0.741 0.659" stroke="hsl(0.0,100%,35%)" stroke-width="0.00033"></path>
<path d="M0.460 0.606 Q1.214 0.684 1.533 0.334" stroke="hsl(0.0,100%,35%)" stroke-width="0.00230"></path>
<path d="M0.460 0.606 Q0.131 0.699 0.242 0.880" stroke="hsl(0.0,100%,35%)" stroke-width="0.01382"></path>
<path d="M0.460 0.606 Q0.542 0.797 0.934 0.799" stroke="hsl(0.0,100%,35%)" stroke-width="0.00395"></path>
<path d="M0.460 0.606 Q0.601 0.487 0.402 0.392" stroke="hsl(0.0,100%,35%)" stroke-width="0.00461"></path>
<path d="M0.460 0.606 Q0.558 0.688 0.741 0.659" stroke="hsl(0.0,100%,35%)" stroke-width="0.01250"></path>
<path d="M0.460 0.606 Q0.370 0.898 0.920 1.005" stroke="hsl(0.0,100%,35%)" stroke-width="0.00789"></path>
<path d="M0.460 0.606 Q1.121 0.948 1.933 0.700" stroke="hsl(0.0,100%,35%)" stroke-width="0.00658"></path>
<path d="M0.460 0.606 Q0.984 0.388 0.675 0.085" stroke="hsl(0.0,100%,35%)" stroke-width="0.00164"></path>
<path d="M0.460 0.606 Q0.411 0.438 0.072 0.425" stroke="hsl(0.0,100%,35%)" stroke-width="0.00230"></path>
<path d="M0.460 0.606 Q0.368 0.499 0.140 0.520" stroke="hsl(0.0,100%,35%)" stroke-width="0.00263"></path>
<path d="M0.460 0.606 Q0.276 0.642 0.307 0.740" stroke="hsl(0.0,100%,35%)" stroke-width="0.01217"></path>
<path d="M0.460 0.606 Q0.245 0.572 0.133 0.669" stroke="hsl(0.0,100%,35%)" stroke-width="0.00033"></path>
<path d="M0.460 0.606 Q0.943 0.489 0.822 0.228" stroke="hsl(0.0,100%,35%)" stroke-width="0.01118"></path>
<path d="M0.460 0.606 Q1.018 0.562 1.055 0.280" stroke="hsl(0.0,100%,35%)" stroke-width="0.00033"></path>
<path d="M0.460 0.606 Q0.664 0.696 0.886 0.616" stroke="hsl(0.0,100%,35%)" stroke-width="0.00066"></path>
<path d="M0.460 0.606 Q0.457 0.687 0.616 0.706" stroke="hsl(0.0,100%,35%)" stroke-width="0.00033"></path>
<path d="M0.460 0.606 Q0.802 0.608 0.882 0.442" stroke="hsl(0.0,100%,35%)" stroke-width="0.00033"></path>
<path d="M0.460 0.606 Q0.294 0.560 0.170 0.631" stroke="hsl(0.0,100%,35%)" stroke-width="0.00132"></path>
<path d="M0.460 0.606 Q0.925 0.648 1.110 0.430" stroke="hsl(0.0,100%,35%)" stroke-width="0.01086"></path>
<path d="M0.460 0.606 Q0.371 0.635 0.409 0.685" stroke="hsl(0.0,100%,35%)" stroke-width="0.00033"></path>
<path d="M0.460 0.606 Q0.776 0.685 1.000 0.547" stroke="hsl(0.0,100%,35%)" stroke-width="0.00033"></path>
<path d="M0.460 0.606 Q0.278 0.712 0.446 0.824" stroke="hsl(0.0,100%,35%)" stroke-width="0.00066"></path>
<path d="M0.402 0.392 Q0.211 0.343 0.072 0.425" stroke="hsl(180.0,100%,35%)" stroke-width="0.01743"></path>
<path d="M0.402 0.392 Q0.921 0.853 1.933 0.700" stroke="hsl(180.0,100%,35%)" stroke-width="0.01118"></path>
<path d="M0.402 0.392 Q-0.068 0.604 0.242 0.880" stroke="hsl(180.0,100%,35%)" stroke-width="0.02401"></path>
<path d="M0.402 0.392 Q0.559 0.336 0.483 0.247" stroke="hsl(180.0,100%,35%)" stroke-width="0.00033"></path>
<path d="M0.402 0.392 Q0.260 0.511 0.460 0.606" stroke="hsl(180.0,100%,35%)" stroke-width="0.00099"></path>
<path d="M0.402 0.392 Q0.077 0.547 0.307 0.740" stroke="hsl(180.0,100%,35%)" stroke-width="0.00066"></path>
<path d="M0.402 0.392 Q0.095 0.465 0.170 0.631" stroke="hsl(180.0,100%,35%)" stroke-width="0.00033"></path>
<path d="M0.402 0.392 Q0.358 0.593 0.741 0.659" stroke="hsl(180.0,100%,35%)" stroke-width="0.00132"></path>
<path d="M0.402 0.392 Q0.171 0.803 0.920 1.005" stroke="hsl(180.0,100%,35%)" stroke-width="0.00230"></path>
<path d="M0.402 0.392 Q0.744 0.394 0.822 0.228" stroke="hsl(180.0,100%,35%)" stroke-width="0.00066"></path>
<path d="M0.402 0.392 Q-0.061 0.678 0.395 0.967" stroke="hsl(180.0,100%,35%)" stroke-width="0.00033"></path>
<path d="M0.402 0.392 Q0.079 0.617 0.446 0.824" stroke="hsl(180.0,100%,35%)" stroke-width="0.00164"></path>
<path d="M0.108 0.529 Q0.883 0.980 1.933 0.700" stroke="hsl(180.0,100%,35%)" stroke-width="0.00033"></path>
<path d="M0.108 0.529 Q0.012 0.571 0.073 0.627" stroke="hsl(180.0,100%,35%)" stroke-width="0.00099"></path>
<path d="M0.108 0.529 Q-0.106 0.731 0.242 0.880" stroke="hsl(180.0,100%,35%)" stroke-width="0.00066"></path>
<path d="M0.073 0.627 Q0.767 0.577 0.822 0.228" stroke="hsl(0.0,100%,35%)" stroke-width="0.00033"></path>
<path d="M0.073 0.627 Q1.038 0.773 1.533 0.334" stroke="hsl(0.0,100%,35%)" stroke-width="0.00099"></path>
<path d="M0.073 0.627 Q0.382 0.777 0.741 0.659" stroke="hsl(0.0,100%,35%)" stroke-width="0.00033"></path>
<path d="M0.073 0.627 Q0.750 0.736 1.110 0.430" stroke="hsl(0.0,100%,35%)" stroke-width="0.00033"></path>
<path d="M0.073 0.627 Q0.284 0.694 0.460 0.606" stroke="hsl(0.0,100%,35%)" stroke-width="0.00033"></path>
<path d="M1.727 0.513 Q1.680 0.648 1.933 0.700" stroke="hsl(180.0,100%,35%)" stroke-width="0.00066"></path>
<path d="M1.727 0.513 Q1.161 0.188 0.402 0.392" stroke="hsl(180.0,100%,35%)" stroke-width="0.00033"></path>
<path d="M1.727 0.513 Q0.970 0.138 0.072 0.425" stroke="hsl(180.0,100%,35%)" stroke-width="0.00033"></path>
<path d="M1.727 0.513 Q0.690 0.400 0.242 0.880" stroke="hsl(180.0,100%,35%)" stroke-width="0.00066"></path>
<path d="M0.072 0.425 Q-0.208 0.686 0.242 0.880" stroke="hsl(180.0,100%,35%)" stroke-width="0.02007"></path>
<path d="M0.072 0.425 Q0.203 0.784 0.934 0.799" stroke="hsl(180.0,100%,35%)" stroke-width="0.00099"></path>
<path d="M0.072 0.425 Q0.121 0.593 0.460 0.606" stroke="hsl(180.0,100%,35%)" stroke-width="0.00263"></path>
<path d="M0.072 0.425 Q0.263 0.474 0.402 0.392" stroke="hsl(180.0,100%,35%)" stroke-width="0.02434"></path>
<path d="M0.072 0.425 Q-0.063 0.629 0.307 0.740" stroke="hsl(180.0,100%,35%)" stroke-width="0.00033"></path>
<path d="M0.072 0.425 Q-0.200 0.760 0.395 0.967" stroke="hsl(180.0,100%,35%)" stroke-width="0.00263"></path>
<path d="M0.072 0.425 Q0.032 0.885 0.920 1.005" stroke="hsl(180.0,100%,35%)" stroke-width="0.00164"></path>
<path d="M0.072 0.425 Q0.219 0.675 0.741 0.659" stroke="hsl(180.0,100%,35%)" stroke-width="0.00066"></path>
<path d="M0.072 0.425 Q0.782 0.935 1.933 0.700" stroke="hsl(180.0,100%,35%)" stroke-width="0.00230"></path>
<path d="M0.072 0.425 Q0.605 0.476 0.822 0.228" stroke="hsl(180.0,100%,35%)" stroke-width="0.00033"></path>
<path d="M0.072 0.425 Q0.119 0.674 0.616 0.706" stroke="hsl(180.0,100%,35%)" stroke-width="0.00033"></path>
<path d="M0.072 0.425 Q-0.061 0.699 0.446 0.824" stroke="hsl(180.0,100%,35%)" stroke-width="0.00099"></path>
<path d="M0.307 0.740 Q0.632 0.585 0.402 0.392" stroke="hsl(0.0,100%,35%)" stroke-width="0.00132"></path>
<path d="M0.307 0.740 Q0.491 0.703 0.460 0.606" stroke="hsl(0.0,100%,35%)" stroke-width="0.01743"></path>
<path d="M0.307 0.740 Q0.589 0.786 0.741 0.659" stroke="hsl(0.0,100%,35%)" stroke-width="0.00197"></path>
<path d="M0.307 0.740 Q0.573 0.895 0.934 0.799" stroke="hsl(0.0,100%,35%)" stroke-width="0.00099"></path>
<path d="M0.307 0.740 Q1.049 0.659 1.055 0.280" stroke="hsl(0.0,100%,35%)" stroke-width="0.00033"></path>
<path d="M0.307 0.740 Q0.402 0.733 0.409 0.685" stroke="hsl(0.0,100%,35%)" stroke-width="0.00033"></path>
<path d="M0.307 0.740 Q1.152 1.045 1.933 0.700" stroke="hsl(0.0,100%,35%)" stroke-width="0.00033"></path>
<path d="M0.307 0.740 Q0.162 0.797 0.242 0.880" stroke="hsl(0.0,100%,35%)" stroke-width="0.00033"></path>
<path d="M0.307 0.740 Q0.956 0.745 1.110 0.430" stroke="hsl(0.0,100%,35%)" stroke-width="0.00066"></path>
<path d="M0.307 0.740 Q0.974 0.587 0.822 0.228" stroke="hsl(0.0,100%,35%)" stroke-width="0.00197"></path>
<path d="M0.140 0.520 Q0.791 0.583 1.055 0.280" stroke="hsl(0.0,100%,35%)" stroke-width="0.00033"></path>
<path d="M0.140 0.520 Q0.716 0.510 0.822 0.228" stroke="hsl(0.0,100%,35%)" stroke-width="0.00066"></path>
<path d="M0.140 0.520 Q0.330 0.710 0.741 0.659" stroke="hsl(0.0,100%,35%)" stroke-width="0.00099"></path>
<path d="M0.140 0.520 Q0.232 0.627 0.460 0.606" stroke="hsl(0.0,100%,35%)" stroke-width="0.00230"></path>
<path d="M0.140 0.520 Q0.314 0.818 0.934 0.799" stroke="hsl(0.0,100%,35%)" stroke-width="0.00033"></path>
<path d="M0.140 0.520 Q0.893 0.969 1.933 0.700" stroke="hsl(0.0,100%,35%)" stroke-width="0.00132"></path>
<path d="M0.140 0.520 Q-0.097 0.721 0.242 0.880" stroke="hsl(0.0,100%,35%)" stroke-width="0.00066"></path>
<path d="M0.675 0.085 Q0.249 0.385 0.741 0.659" stroke="hsl(180.0,100%,35%)" stroke-width="0.00132"></path>
<path d="M0.675 0.085 Q0.233 0.494 0.934 0.799" stroke="hsl(180.0,100%,35%)" stroke-width="0.00658"></path>
<path d="M0.675 0.085 Q0.061 0.594 0.920 1.005" stroke="hsl(180.0,100%,35%)" stroke-width="0.00132"></path>
<path d="M0.675 0.085 Q-0.178 0.396 0.242 0.880" stroke="hsl(180.0,100%,35%)" stroke-width="0.00164"></path>
<path d="M0.675 0.085 Q0.151 0.302 0.460 0.606" stroke="hsl(180.0,100%,35%)" stroke-width="0.00263"></path>
<path d="M0.675 0.085 Q0.905 0.381 1.533 0.334" stroke="hsl(180.0,100%,35%)" stroke-width="0.00033"></path>
<path d="M0.675 0.085 Q0.292 0.184 0.402 0.392" stroke="hsl(180.0,100%,35%)" stroke-width="0.00362"></path>
<path d="M0.675 0.085 Q0.102 0.134 0.072 0.425" stroke="hsl(180.0,100%,35%)" stroke-width="0.00099"></path>
<path d="M0.675 0.085 Q0.634 0.186 0.822 0.228" stroke="hsl(180.0,100%,35%)" stroke-width="0.00033"></path>
<path d="M0.675 0.085 Q0.449 0.128 0.483 0.247" stroke="hsl(180.0,100%,35%)" stroke-width="0.00559"></path>
<path d="M0.675 0.085 Q-0.171 0.470 0.395 0.967" stroke="hsl(180.0,100%,35%)" stroke-width="0.00066"></path>
<path d="M0.886 0.616 Q0.780 0.608 0.741 0.659" stroke="hsl(0.0,100%,35%)" stroke-width="0.00625"></path>
<path d="M0.886 0.616 Q0.764 0.717 0.934 0.799" stroke="hsl(0.0,100%,35%)" stroke-width="0.00132"></path>
<path d="M0.886 0.616 Q1.165 0.409 0.822 0.228" stroke="hsl(0.0,100%,35%)" stroke-width="0.00033"></path>
<path d="M0.886 0.616 Q0.633 0.358 0.072 0.425" stroke="hsl(0.0,100%,35%)" stroke-width="0.00033"></path>
<path d="M0.886 0.616 Q0.360 0.693 0.395 0.967" stroke="hsl(0.0,100%,35%)" stroke-width="0.00033"></path>
<path d="M0.886 0.616 Q0.353 0.619 0.242 0.880" stroke="hsl(0.0,100%,35%)" stroke-width="0.00066"></path>
<path d="M0.886 0.616 Q0.682 0.526 0.460 0.606" stroke="hsl(0.0,100%,35%)" stroke-width="0.00230"></path>
<path d="M0.886 0.616 Q0.516 0.480 0.170 0.631" stroke="hsl(0.0,100%,35%)" stroke-width="0.00033"></path>
<path d="M1.556 0.675 Q1.146 0.613 0.934 0.799" stroke="hsl(180.0,100%,35%)" stroke-width="0.00033"></path>
<path d="M1.556 0.675 Q0.735 0.515 0.242 0.880" stroke="hsl(180.0,100%,35%)" stroke-width="0.00362"></path>
<path d="M1.556 0.675 Q1.724 0.763 1.933 0.700" stroke="hsl(180.0,100%,35%)" stroke-width="0.00362"></path>
<path d="M1.556 0.675 Q1.547 0.305 0.822 0.228" stroke="hsl(180.0,100%,35%)" stroke-width="0.00066"></path>
<path d="M1.556 0.675 Q1.063 0.421 0.460 0.606" stroke="hsl(180.0,100%,35%)" stroke-width="0.00197"></path>
<path d="M1.556 0.675 Q0.974 0.713 0.920 1.005" stroke="hsl(180.0,100%,35%)" stroke-width="0.00033"></path>
<path d="M0.920 1.005 Q0.681 0.807 0.242 0.880" stroke="hsl(180.0,100%,35%)" stroke-width="0.00461"></path>
<path d="M0.920 1.005 Q1.151 0.595 0.402 0.392" stroke="hsl(180.0,100%,35%)" stroke-width="0.00230"></path>
<path d="M0.920 1.005 Q0.961 0.545 0.072 0.425" stroke="hsl(180.0,100%,35%)" stroke-width="0.00164"></path>
<path d="M0.920 1.005 Q1.010 0.713 0.460 0.606" stroke="hsl(180.0,100%,35%)" stroke-width="0.00197"></path>
<path d="M0.920 1.005 Q1.671 1.055 1.933 0.700" stroke="hsl(180.0,100%,35%)" stroke-width="0.00461"></path>
<path d="M0.920 1.005 Q1.092 0.905 0.934 0.799" stroke="hsl(180.0,100%,35%)" stroke-width="0.00033"></path>
<path d="M0.920 1.005 Q0.688 0.881 0.395 0.967" stroke="hsl(180.0,100%,35%)" stroke-width="0.00132"></path>
<path d="M0.920 1.005 Q1.764 0.792 1.533 0.334" stroke="hsl(180.0,100%,35%)" stroke-width="0.00033"></path>
<path d="M0.920 1.005 Q0.828 0.820 0.446 0.824" stroke="hsl(180.0,100%,35%)" stroke-width="0.00033"></path>
<path d="M1.000 0.547 Q0.683 0.468 0.460 0.606" stroke="hsl(0.0,100%,35%)" stroke-width="0.00461"></path>
<path d="M1.000 0.547 Q0.781 0.551 0.741 0.659" stroke="hsl(0.0,100%,35%)" stroke-width="0.00855"></path>
<path d="M1.000 0.547 Q0.888 0.559 0.886 0.616" stroke="hsl(0.0,100%,35%)" stroke-width="0.00066"></path>
<path d="M1.000 0.547 Q0.362 0.636 0.395 0.967" stroke="hsl(0.0,100%,35%)" stroke-width="0.00033"></path>
<path d="M1.533 0.334 Q1.286 0.452 1.462 0.598" stroke="hsl(0.0,100%,35%)" stroke-width="0.00099"></path>
<path d="M1.533 0.334 Q1.440 0.597 1.933 0.700" stroke="hsl(0.0,100%,35%)" stroke-width="0.00329"></path>
<path d="M1.533 0.334 Q0.861 0.446 0.934 0.799" stroke="hsl(0.0,100%,35%)" stroke-width="0.00066"></path>
<path d="M1.533 0.334 Q0.450 0.349 0.242 0.880" stroke="hsl(0.0,100%,35%)" stroke-width="0.00099"></path>
<path d="M1.533 0.334 Q0.690 0.547 0.920 1.005" stroke="hsl(0.0,100%,35%)" stroke-width="0.00164"></path>
<path d="M1.533 0.334 Q0.779 0.255 0.460 0.606" stroke="hsl(0.0,100%,35%)" stroke-width="0.00099"></path>
<path d="M1.533 0.334 Q0.688 0.148 0.140 0.520" stroke="hsl(0.0,100%,35%)" stroke-width="0.00066"></path>
<path d="M1.533 0.334 Q0.877 0.338 0.741 0.659" stroke="hsl(0.0,100%,35%)" stroke-width="0.00066"></path>
<path d="M1.533 0.334 Q1.212 0.368 1.208 0.532" stroke="hsl(0.0,100%,35%)" stroke-width="0.00033"></path>
<path d="M1.533 0.334 Q1.245 0.297 1.110 0.430" stroke="hsl(0.0,100%,35%)" stroke-width="0.00033"></path>
<path d="M1.208 0.532 Q0.857 0.611 0.934 0.799" stroke="hsl(0.0,100%,35%)" stroke-width="0.00066"></path>
<path d="M1.208 0.532 Q1.241 0.461 1.110 0.430" stroke="hsl(0.0,100%,35%)" stroke-width="0.00164"></path>
<path d="M1.208 0.532 Q0.775 0.419 0.460 0.606" stroke="hsl(0.0,100%,35%)" stroke-width="0.00066"></path>
<path d="M1.208 0.532 Q0.446 0.513 0.242 0.880" stroke="hsl(0.0,100%,35%)" stroke-width="0.00033"></path>
<path d="M1.045 0.694 Q0.905 0.724 0.934 0.799" stroke="hsl(0.0,100%,35%)" stroke-width="0.00132"></path>
<path d="M1.045 0.694 Q1.330 0.730 1.462 0.598" stroke="hsl(0.0,100%,35%)" stroke-width="0.00033"></path>
<path d="M1.045 0.694 Q0.965 0.415 0.402 0.392" stroke="hsl(0.0,100%,35%)" stroke-width="0.00033"></path>
<path d="M1.045 0.694 Q1.347 0.315 0.675 0.085" stroke="hsl(0.0,100%,35%)" stroke-width="0.00066"></path>
<path d="M0.529 0.761 Q0.716 0.752 0.741 0.659" stroke="hsl(0.0,100%,35%)" stroke-width="0.00066"></path>
<path d="M0.529 0.761 Q1.102 0.553 0.822 0.228" stroke="hsl(0.0,100%,35%)" stroke-width="0.00066"></path>
<path d="M0.529 0.761 Q1.279 1.011 1.933 0.700" stroke="hsl(0.0,100%,35%)" stroke-width="0.00033"></path>
<path d="M0.529 0.761 Q0.569 0.501 0.072 0.425" stroke="hsl(0.0,100%,35%)" stroke-width="0.00033"></path>
<path d="M0.451 0.934 Q0.397 0.939 0.395 0.967" stroke="hsl(180.0,100%,35%)" stroke-width="0.00099"></path>
<path d="M0.451 0.934 Q0.718 0.772 0.460 0.606" stroke="hsl(180.0,100%,35%)" stroke-width="0.00033"></path>
<path d="M0.451 0.934 Q0.669 0.604 0.072 0.425" stroke="hsl(180.0,100%,35%)" stroke-width="0.00066"></path>
<path d="M0.451 0.934 Q0.629 1.064 0.920 1.005" stroke="hsl(180.0,100%,35%)" stroke-width="0.00132"></path>
<path d="M0.395 0.967 Q0.627 1.091 0.920 1.005" stroke="hsl(180.0,100%,35%)" stroke-width="0.00132"></path>
<path d="M0.395 0.967 Q1.377 1.141 1.933 0.700" stroke="hsl(180.0,100%,35%)" stroke-width="0.00132"></path>
<path d="M0.395 0.967 Q0.625 0.693 0.140 0.520" stroke="hsl(180.0,100%,35%)" stroke-width="0.00033"></path>
<path d="M0.395 0.967 Q1.223 0.996 1.462 0.598" stroke="hsl(180.0,100%,35%)" stroke-width="0.00033"></path>
<path d="M0.395 0.967 Q0.858 0.681 0.402 0.392" stroke="hsl(180.0,100%,35%)" stroke-width="0.00592"></path>
<path d="M0.395 0.967 Q0.387 0.893 0.242 0.880" stroke="hsl(180.0,100%,35%)" stroke-width="0.01118"></path>
<path d="M0.395 0.967 Q0.798 0.991 0.934 0.799" stroke="hsl(180.0,100%,35%)" stroke-width="0.00132"></path>
<path d="M0.395 0.967 Q0.532 0.836 0.307 0.740" stroke="hsl(180.0,100%,35%)" stroke-width="0.00033"></path>
<path d="M0.395 0.967 Q1.058 0.802 0.882 0.442" stroke="hsl(180.0,100%,35%)" stroke-width="0.00033"></path>
<path d="M0.395 0.967 Q0.814 0.882 0.741 0.659" stroke="hsl(180.0,100%,35%)" stroke-width="0.00033"></path>
<path d="M0.395 0.967 Q0.667 0.631 0.072 0.425" stroke="hsl(180.0,100%,35%)" stroke-width="0.00066"></path>
<path d="M0.395 0.967 Q0.716 0.799 0.460 0.606" stroke="hsl(180.0,100%,35%)" stroke-width="0.00066"></path>
<path d="M0.882 0.442 Q0.622 0.631 0.934 0.799" stroke="hsl(0.0,100%,35%)" stroke-width="0.00461"></path>
<path d="M0.882 0.442 Q1.047 0.636 1.462 0.598" stroke="hsl(0.0,100%,35%)" stroke-width="0.00099"></path>
<path d="M0.882 0.442 Q0.540 0.439 0.460 0.606" stroke="hsl(0.0,100%,35%)" stroke-width="0.00757"></path>
<path d="M0.882 0.442 Q1.006 0.481 1.110 0.430" stroke="hsl(0.0,100%,35%)" stroke-width="0.00789"></path>
<path d="M0.882 0.442 Q1.024 0.323 0.822 0.228" stroke="hsl(0.0,100%,35%)" stroke-width="0.01151"></path>
<path d="M0.882 0.442 Q0.973 0.552 1.208 0.532" stroke="hsl(0.0,100%,35%)" stroke-width="0.00033"></path>
<path d="M0.882 0.442 Q0.211 0.533 0.242 0.880" stroke="hsl(0.0,100%,35%)" stroke-width="0.00033"></path>
<path d="M0.882 0.442 Q0.491 0.271 0.072 0.425" stroke="hsl(0.0,100%,35%)" stroke-width="0.00033"></path>
<path d="M0.882 0.442 Q0.451 0.731 0.920 1.005" stroke="hsl(0.0,100%,35%)" stroke-width="0.00033"></path>
<path d="M1.854 0.534 Q1.761 0.633 1.933 0.700" stroke="hsl(180.0,100%,35%)" stroke-width="0.00099"></path>
<path d="M1.854 0.534 Q0.771 0.385 0.242 0.880" stroke="hsl(180.0,100%,35%)" stroke-width="0.00132"></path>
<path d="M1.854 0.534 Q1.051 0.123 0.072 0.425" stroke="hsl(180.0,100%,35%)" stroke-width="0.00033"></path>
<path d="M0.483 0.247 Q-0.137 0.589 0.395 0.967" stroke="hsl(180.0,100%,35%)" stroke-width="0.00362"></path>
<path d="M0.483 0.247 Q-0.144 0.515 0.242 0.880" stroke="hsl(180.0,100%,35%)" stroke-width="0.00526"></path>
<path d="M0.483 0.247 Q0.566 0.154 0.403 0.093" stroke="hsl(180.0,100%,35%)" stroke-width="0.00033"></path>
<path d="M0.483 0.247 Q0.326 0.304 0.402 0.392" stroke="hsl(180.0,100%,35%)" stroke-width="0.00033"></path>
<path d="M0.483 0.247 Q0.095 0.714 0.920 1.005" stroke="hsl(180.0,100%,35%)" stroke-width="0.00066"></path>
<path d="M0.483 0.247 Q0.708 0.204 0.675 0.085" stroke="hsl(180.0,100%,35%)" stroke-width="0.00329"></path>
<path d="M0.483 0.247 Q0.184 0.422 0.460 0.606" stroke="hsl(180.0,100%,35%)" stroke-width="0.00033"></path>
<path d="M0.708 2.719 Q2.480 1.704 0.886 0.616" stroke="hsl(180.0,100%,35%)" stroke-width="0.00033"></path>
<path d="M0.708 2.719 Q2.936 1.955 1.933 0.700" stroke="hsl(180.0,100%,35%)" stroke-width="0.00033"></path>
<path d="M0.708 2.719 Q1.946 1.707 0.242 0.880" stroke="hsl(180.0,100%,35%)" stroke-width="0.00033"></path>
<path d="M0.446 0.824 Q0.628 0.718 0.460 0.606" stroke="hsl(180.0,100%,35%)" stroke-width="0.00033"></path>
<path d="M0.446 0.824 Q0.299 0.811 0.242 0.880" stroke="hsl(180.0,100%,35%)" stroke-width="0.00592"></path>
<path d="M0.446 0.824 Q0.769 0.600 0.402 0.392" stroke="hsl(180.0,100%,35%)" stroke-width="0.00164"></path>
<path d="M0.671 0.810 Q0.400 0.759 0.242 0.880" stroke="hsl(180.0,100%,35%)" stroke-width="0.00230"></path>
<path d="M0.671 0.810 Q0.640 0.957 0.920 1.005" stroke="hsl(180.0,100%,35%)" stroke-width="0.00066"></path>
<path d="M0.671 0.810 Q0.680 0.497 0.072 0.425" stroke="hsl(180.0,100%,35%)" stroke-width="0.00066"></path>
<path d="M0.757 0.932 Q0.541 0.803 0.242 0.880" stroke="hsl(180.0,100%,35%)" stroke-width="0.00230"></path>
<path d="M0.757 0.932 Q0.780 1.001 0.920 1.005" stroke="hsl(180.0,100%,35%)" stroke-width="0.00164"></path>
<path d="M0.757 0.932 Q0.548 0.877 0.395 0.967" stroke="hsl(180.0,100%,35%)" stroke-width="0.00099"></path>
<path d="M0.757 0.932 Q0.821 0.541 0.072 0.425" stroke="hsl(180.0,100%,35%)" stroke-width="0.00033"></path>
<path d="M0.757 0.932 Q1.011 0.591 0.402 0.392" stroke="hsl(180.0,100%,35%)" stroke-width="0.00033"></path>
<path d="M1.103 0.153 Q0.501 0.442 0.934 0.799" stroke="hsl(0.0,100%,35%)" stroke-width="0.00066"></path>
<path d="M1.103 0.153 Q0.903 0.134 0.822 0.228" stroke="hsl(0.0,100%,35%)" stroke-width="0.00921"></path>
<path d="M1.103 0.153 Q0.517 0.333 0.741 0.659" stroke="hsl(0.0,100%,35%)" stroke-width="0.00329"></path>
<path d="M1.103 0.153 Q0.090 0.344 0.242 0.880" stroke="hsl(0.0,100%,35%)" stroke-width="0.00132"></path>
<path d="M1.103 0.153 Q0.419 0.251 0.460 0.606" stroke="hsl(0.0,100%,35%)" stroke-width="0.00099"></path>
<path d="M1.103 0.153 Q0.237 0.357 0.446 0.824" stroke="hsl(0.0,100%,35%)" stroke-width="0.00033"></path>
<path d="M1.103 0.153 Q0.978 0.207 1.055 0.280" stroke="hsl(0.0,100%,35%)" stroke-width="0.00033"></path>
<path d="M1.103 0.153 Q0.885 0.293 1.110 0.430" stroke="hsl(0.0,100%,35%)" stroke-width="0.00296"></path>
<path d="M1.103 0.153 Q0.735 0.159 0.667 0.340" stroke="hsl(0.0,100%,35%)" stroke-width="0.00033"></path>
<path d="M1.103 0.153 Q0.236 0.287 0.307 0.740" stroke="hsl(0.0,100%,35%)" stroke-width="0.00099"></path>
<path d="M0.535 0.659 Q1.005 0.659 1.110 0.430" stroke="hsl(0.0,100%,35%)" stroke-width="0.00033"></path>
<path d="M0.535 0.659 Q1.023 0.501 0.822 0.228" stroke="hsl(0.0,100%,35%)" stroke-width="0.00033"></path>
<path d="M0.535 0.659 Q0.540 0.617 0.460 0.606" stroke="hsl(0.0,100%,35%)" stroke-width="0.00033"></path>
<path d="M0.543 0.802 Q0.330 0.781 0.242 0.880" stroke="hsl(180.0,100%,35%)" stroke-width="0.00789"></path>
<path d="M0.543 0.802 Q0.569 0.979 0.920 1.005" stroke="hsl(180.0,100%,35%)" stroke-width="0.00428"></path>
<path d="M0.543 0.802 Q0.800 0.569 0.402 0.392" stroke="hsl(180.0,100%,35%)" stroke-width="0.00066"></path>
<path d="M0.543 0.802 Q0.656 0.768 0.616 0.706" stroke="hsl(180.0,100%,35%)" stroke-width="0.00033"></path>
<path d="M1.422 0.436 Q0.805 0.328 0.460 0.606" stroke="hsl(0.0,100%,35%)" stroke-width="0.00197"></path>
<path d="M1.422 0.436 Q1.289 0.212 0.822 0.228" stroke="hsl(0.0,100%,35%)" stroke-width="0.00033"></path>
<path d="M1.422 0.436 Q1.312 0.525 1.462 0.598" stroke="hsl(0.0,100%,35%)" stroke-width="0.00033"></path>
<path d="M1.422 0.436 Q1.271 0.370 1.110 0.430" stroke="hsl(0.0,100%,35%)" stroke-width="0.00033"></path>
<path d="M1.422 0.436 Q1.238 0.441 1.208 0.532" stroke="hsl(0.0,100%,35%)" stroke-width="0.00132"></path>
<path d="M1.422 0.436 Q1.560 0.407 1.533 0.334" stroke="hsl(0.0,100%,35%)" stroke-width="0.00362"></path>
<path d="M1.422 0.436 Q0.714 0.222 0.140 0.520" stroke="hsl(0.0,100%,35%)" stroke-width="0.00033"></path>
<path d="M0.589 0.917 Q0.445 0.829 0.242 0.880" stroke="hsl(180.0,100%,35%)" stroke-width="0.00099"></path>
<path d="M0.589 0.917 Q0.684 1.027 0.920 1.005" stroke="hsl(180.0,100%,35%)" stroke-width="0.00066"></path>
<path d="M0.589 0.917 Q0.725 0.567 0.072 0.425" stroke="hsl(180.0,100%,35%)" stroke-width="0.00033"></path>
<path d="M0.589 0.917 Q0.915 0.617 0.402 0.392" stroke="hsl(180.0,100%,35%)" stroke-width="0.00033"></path>
<path d="M0.589 0.917 Q0.774 0.735 0.460 0.606" stroke="hsl(180.0,100%,35%)" stroke-width="0.00033"></path>
</g>
<text x="1.266" y="0.276" font-size="0.007509" fill="hsl(0.0,100%,20%)">alecmouri</text>
<text x="1.462" y="0.592" font-size="0.012640" fill="hsl(0.0,100%,20%)">scroggo</text>
<text x="0.822" y="0.204" font-size="0.047888" fill="hsl(0.0,100%,20%)">fmalita</text>
<text x="1.110" y="0.410" font-size="0.038535" fill="hsl(0.0,100%,20%)">danieldilan</text>
<text x="1.748" y="0.430" font-size="0.008671" fill="hsl(180.0,100%,20%)">aperez</text>
<text x="0.934" y="0.780" font-size="0.038899" fill="hsl(0.0,100%,20%)">brianosman</text>
<text x="0.242" y="0.842" font-size="0.076089" fill="hsl(180.0,100%,20%)">michaelludwig</text>
<text x="0.741" y="0.633" font-size="0.052207" fill="hsl(0.0,100%,20%)">bungeman</text>
<text x="1.933" y="0.679" font-size="0.043029" fill="hsl(180.0,100%,20%)">egdaniel</text>
<text x="0.305" y="0.494" font-size="0.009695" fill="hsl(0.0,100%,20%)">arthursonzogni</text>
<text x="0.460" y="0.570" font-size="0.070378" fill="hsl(0.0,100%,20%)">kjlubick</text>
<text x="0.402" y="0.361" font-size="0.063424" fill="hsl(180.0,100%,20%)">robertphillips</text>
<text x="0.108" y="0.525" font-size="0.007509" fill="hsl(180.0,100%,20%)">aswolfers</text>
<text x="0.073" y="0.622" font-size="0.010168" fill="hsl(0.0,100%,20%)">jreck</text>
<text x="1.727" y="0.509" font-size="0.007509" fill="hsl(180.0,100%,20%)">beaufort.francois</text>
<text x="0.072" y="0.398" font-size="0.052387" fill="hsl(180.0,100%,20%)">jvanverth</text>
<text x="0.307" y="0.722" font-size="0.035355" fill="hsl(0.0,100%,20%)">borenet</text>
<text x="1.055" y="0.275" font-size="0.009695" fill="hsl(0.0,100%,20%)">bwils</text>
<text x="0.409" y="0.683" font-size="0.004336" fill="hsl(0.0,100%,20%)">rmistry</text>
<text x="0.140" y="0.511" font-size="0.019630" fill="hsl(0.0,100%,20%)">jmbetancourt</text>
<text x="0.675" y="0.069" font-size="0.031414" fill="hsl(180.0,100%,20%)">johnstiles</text>
<text x="0.886" y="0.603" font-size="0.025832" fill="hsl(0.0,100%,20%)">jlavrova</text>
<text x="1.556" y="0.666" font-size="0.017342" fill="hsl(180.0,100%,20%)">briansalomon</text>
<text x="0.920" y="0.984" font-size="0.041923" fill="hsl(180.0,100%,20%)">nicolettep</text>
<text x="0.797" y="0.545" font-size="0.006131" fill="hsl(0.0,100%,20%)">hcm</text>
<text x="0.616" y="0.702" font-size="0.006855" fill="hsl(0.0,100%,20%)">brettos</text>
<text x="1.000" y="0.537" font-size="0.021678" fill="hsl(0.0,100%,20%)">drott</text>
<text x="1.533" y="0.321" font-size="0.024526" fill="hsl(0.0,100%,20%)">nscobie</text>
<text x="1.208" y="0.526" font-size="0.012640" fill="hsl(0.0,100%,20%)">ccameron</text>
<text x="1.045" y="0.690" font-size="0.008671" fill="hsl(0.0,100%,20%)">chengyangyang-hf</text>
<text x="0.529" y="0.757" font-size="0.007509" fill="hsl(0.0,100%,20%)">coldpalelight</text>
<text x="0.451" y="0.929" font-size="0.009695" fill="hsl(180.0,100%,20%)">cwallez</text>
<text x="0.395" y="0.949" font-size="0.035488" fill="hsl(180.0,100%,20%)">jamesgk</text>
<text x="0.882" y="0.426" font-size="0.031563" fill="hsl(0.0,100%,20%)">lukasza</text>
<text x="0.667" y="0.338" font-size="0.004336" fill="hsl(0.0,100%,20%)">sharaks</text>
<text x="0.170" y="0.627" font-size="0.009197" fill="hsl(0.0,100%,20%)">maxhudnell</text>
<text x="1.854" y="0.530" font-size="0.008671" fill="hsl(180.0,100%,20%)">jie.a.chen</text>
<text x="0.483" y="0.235" font-size="0.023944" fill="hsl(180.0,100%,20%)">nathanasanchez</text>
<text x="0.708" y="2.717" font-size="0.005310" fill="hsl(180.0,100%,20%)">jsimmons</text>
<text x="0.446" y="0.814" font-size="0.020103" fill="hsl(180.0,100%,20%)">thomsmit</text>
<text x="0.133" y="0.667" font-size="0.003066" fill="hsl(0.0,100%,20%)">ashwinpv</text>
<text x="0.671" y="0.805" font-size="0.010168" fill="hsl(180.0,100%,20%)">kylechar</text>
<text x="0.757" y="0.926" font-size="0.012640" fill="hsl(180.0,100%,20%)">lokokung</text>
<text x="1.103" y="0.141" font-size="0.024139" fill="hsl(0.0,100%,20%)">mike</text>
<text x="0.403" y="0.091" font-size="0.003066" fill="hsl(180.0,100%,20%)">armansito</text>
<text x="0.535" y="0.656" font-size="0.005310" fill="hsl(0.0,100%,20%)">sam</text>
<text x="0.543" y="0.792" font-size="0.019389" fill="hsl(180.0,100%,20%)">syoussefi</text>
<text x="1.422" y="0.428" font-size="0.015328" fill="hsl(0.0,100%,20%)">vigneshv</text>
<text x="0.589" y="0.913" font-size="0.008671" fill="hsl(180.0,100%,20%)">zengyonghust</text>
</svg>
