<svg width="4000" height="2000" viewBox="-0.025 -0.025 2.05 1.05" xmlns="http://www.w3.org/2000/svg">
  <style>
    path {
      fill: none;
      stroke-linecap: round;
      stroke-opacity: 0.4;
    }

    text {
      text-anchor: middle;
      alignment-baseline: hanging;
    }
  </style>
  <g opacity="0.4">
<path d="M1.129 0.747 Q1.236 0.575 0.925 0.485" stroke="hsl(0.0,100%,35%)" stroke-width="0.00024"></path>
<path d="M1.129 0.747 Q1.408 0.362 0.719 0.141" stroke="hsl(0.0,100%,35%)" stroke-width="0.00024"></path>
<path d="M1.129 0.747 Q1.485 0.801 1.669 0.639" stroke="hsl(0.0,100%,35%)" stroke-width="0.00048"></path>
<path d="M1.129 0.747 Q1.056 0.905 1.348 0.975" stroke="hsl(0.0,100%,35%)" stroke-width="0.00072"></path>
<path d="M1.129 0.747 Q1.805 0.634 1.733 0.279" stroke="hsl(0.0,100%,35%)" stroke-width="0.00024"></path>
<path d="M1.129 0.747 Q1.019 0.812 1.124 0.880" stroke="hsl(0.0,100%,35%)" stroke-width="0.00024"></path>
<path d="M1.129 0.747 Q0.862 0.690 0.692 0.808" stroke="hsl(0.0,100%,35%)" stroke-width="0.00024"></path>
<path d="M0.925 0.485 Q0.937 0.287 0.554 0.237" stroke="hsl(0.0,100%,35%)" stroke-width="0.00787"></path>
<path d="M0.925 0.485 Q0.675 0.505 0.659 0.631" stroke="hsl(0.0,100%,35%)" stroke-width="0.00286"></path>
<path d="M0.925 0.485 Q0.457 0.452 0.290 0.673" stroke="hsl(0.0,100%,35%)" stroke-width="0.00239"></path>
<path d="M0.925 0.485 Q0.708 0.722 1.124 0.880" stroke="hsl(0.0,100%,35%)" stroke-width="0.00167"></path>
<path d="M0.925 0.485 Q0.744 0.815 1.348 0.975" stroke="hsl(0.0,100%,35%)" stroke-width="0.00072"></path>
<path d="M0.925 0.485 Q0.550 0.600 0.692 0.808" stroke="hsl(0.0,100%,35%)" stroke-width="0.00430"></path>
<path d="M0.925 0.485 Q0.712 0.604 0.898 0.734" stroke="hsl(0.0,100%,35%)" stroke-width="0.00072"></path>
<path d="M0.925 0.485 Q1.655 0.526 1.897 0.179" stroke="hsl(0.0,100%,35%)" stroke-width="0.00072"></path>
<path d="M0.925 0.485 Q1.097 0.272 0.719 0.141" stroke="hsl(0.0,100%,35%)" stroke-width="0.00048"></path>
<path d="M0.925 0.485 Q1.420 0.646 1.843 0.440" stroke="hsl(0.0,100%,35%)" stroke-width="0.00024"></path>
<path d="M0.925 0.485 Q1.174 0.711 1.669 0.639" stroke="hsl(0.0,100%,35%)" stroke-width="0.00048"></path>
<path d="M0.925 0.485 Q0.840 0.532 0.913 0.584" stroke="hsl(0.0,100%,35%)" stroke-width="0.00048"></path>
<path d="M0.925 0.485 Q1.494 0.543 1.733 0.279" stroke="hsl(0.0,100%,35%)" stroke-width="0.00024"></path>
<path d="M0.719 0.141 Q0.910 0.640 1.924 0.656" stroke="hsl(120.0,100%,35%)" stroke-width="0.00644"></path>
<path d="M0.719 0.141 Q0.298 0.374 0.659 0.631" stroke="hsl(120.0,100%,35%)" stroke-width="0.00549"></path>
<path d="M0.719 0.141 Q0.804 0.695 1.903 0.775" stroke="hsl(120.0,100%,35%)" stroke-width="0.00191"></path>
<path d="M0.719 0.141 Q0.796 0.580 1.669 0.639" stroke="hsl(120.0,100%,35%)" stroke-width="0.02458"></path>
<path d="M0.719 0.141 Q0.367 0.684 1.348 0.975" stroke="hsl(120.0,100%,35%)" stroke-width="0.01575"></path>
<path d="M0.719 0.141 Q0.225 0.136 0.107 0.376" stroke="hsl(120.0,100%,35%)" stroke-width="0.00048"></path>
<path d="M0.719 0.141 Q0.594 0.046 0.380 0.086" stroke="hsl(120.0,100%,35%)" stroke-width="0.00644"></path>
<path d="M0.719 0.141 Q0.330 0.592 1.124 0.880" stroke="hsl(120.0,100%,35%)" stroke-width="0.00764"></path>
<path d="M0.719 0.141 Q0.559 0.156 0.554 0.237" stroke="hsl(120.0,100%,35%)" stroke-width="0.01098"></path>
<path d="M0.719 0.141 Q0.335 0.473 0.898 0.734" stroke="hsl(120.0,100%,35%)" stroke-width="0.00024"></path>
<path d="M0.719 0.141 Q0.755 0.476 1.416 0.532" stroke="hsl(120.0,100%,35%)" stroke-width="0.00215"></path>
<path d="M0.719 0.141 Q0.079 0.321 0.290 0.673" stroke="hsl(120.0,100%,35%)" stroke-width="0.00406"></path>
<path d="M0.719 0.141 Q0.173 0.469 0.692 0.808" stroke="hsl(120.0,100%,35%)" stroke-width="0.00477"></path>
<path d="M0.719 0.141 Q0.547 0.354 0.925 0.485" stroke="hsl(120.0,100%,35%)" stroke-width="0.00859"></path>
<path d="M0.719 0.141 Q0.366 0.119 0.245 0.286" stroke="hsl(120.0,100%,35%)" stroke-width="0.00167"></path>
<path d="M0.719 0.141 Q0.540 0.628 1.450 0.822" stroke="hsl(120.0,100%,35%)" stroke-width="0.00095"></path>
<path d="M0.719 0.141 Q1.278 0.396 1.897 0.179" stroke="hsl(120.0,100%,35%)" stroke-width="0.00215"></path>
<path d="M0.719 0.141 Q1.116 0.413 1.733 0.279" stroke="hsl(120.0,100%,35%)" stroke-width="0.00095"></path>
<path d="M0.719 0.141 Q0.872 0.326 1.265 0.292" stroke="hsl(120.0,100%,35%)" stroke-width="0.00024"></path>
<path d="M0.719 0.141 Q0.592 0.528 1.319 0.675" stroke="hsl(120.0,100%,35%)" stroke-width="0.00072"></path>
<path d="M0.719 0.141 Q0.679 0.033 0.457 0.028" stroke="hsl(120.0,100%,35%)" stroke-width="0.00048"></path>
<path d="M0.719 0.141 Q0.597 0.544 1.356 0.692" stroke="hsl(120.0,100%,35%)" stroke-width="0.00024"></path>
<path d="M0.719 0.141 Q0.462 0.401 0.913 0.584" stroke="hsl(120.0,100%,35%)" stroke-width="0.00048"></path>
<path d="M0.719 0.141 Q0.533 0.063 0.340 0.137" stroke="hsl(120.0,100%,35%)" stroke-width="0.00072"></path>
<path d="M0.719 0.141 Q0.548 0.095 0.420 0.169" stroke="hsl(120.0,100%,35%)" stroke-width="0.00024"></path>
<path d="M0.719 0.141 Q0.166 0.556 0.854 0.917" stroke="hsl(120.0,100%,35%)" stroke-width="0.00024"></path>
<path d="M0.719 0.141 Q0.578 0.012 0.294 0.052" stroke="hsl(120.0,100%,35%)" stroke-width="0.00024"></path>
<path d="M1.669 0.639 Q1.465 0.587 1.319 0.675" stroke="hsl(120.0,100%,35%)" stroke-width="0.00310"></path>
<path d="M1.669 0.639 Q1.413 0.687 1.450 0.822" stroke="hsl(120.0,100%,35%)" stroke-width="0.00119"></path>
<path d="M1.669 0.639 Q1.203 0.650 1.124 0.880" stroke="hsl(120.0,100%,35%)" stroke-width="0.00262"></path>
<path d="M1.669 0.639 Q1.592 0.200 0.719 0.141" stroke="hsl(120.0,100%,35%)" stroke-width="0.00620"></path>
<path d="M1.669 0.639 Q1.240 0.743 1.348 0.975" stroke="hsl(120.0,100%,35%)" stroke-width="0.02267"></path>
<path d="M1.669 0.639 Q1.628 0.535 1.416 0.532" stroke="hsl(120.0,100%,35%)" stroke-width="0.00310"></path>
<path d="M1.669 0.639 Q1.433 0.215 0.554 0.237" stroke="hsl(120.0,100%,35%)" stroke-width="0.00024"></path>
<path d="M1.669 0.639 Q1.783 0.698 1.924 0.656" stroke="hsl(120.0,100%,35%)" stroke-width="0.00191"></path>
<path d="M1.669 0.639 Q1.171 0.433 0.659 0.631" stroke="hsl(120.0,100%,35%)" stroke-width="0.00048"></path>
<path d="M1.669 0.639 Q1.420 0.413 0.925 0.485" stroke="hsl(120.0,100%,35%)" stroke-width="0.00024"></path>
<path d="M1.669 0.639 Q1.915 0.574 1.843 0.440" stroke="hsl(120.0,100%,35%)" stroke-width="0.00024"></path>
<path d="M1.669 0.639 Q1.989 0.471 1.733 0.279" stroke="hsl(120.0,100%,35%)" stroke-width="0.00024"></path>
<path d="M1.669 0.639 Q1.240 0.178 0.245 0.286" stroke="hsl(120.0,100%,35%)" stroke-width="0.00167"></path>
<path d="M1.669 0.639 Q0.953 0.380 0.290 0.673" stroke="hsl(120.0,100%,35%)" stroke-width="0.00048"></path>
<path d="M1.669 0.639 Q1.046 0.528 0.692 0.808" stroke="hsl(120.0,100%,35%)" stroke-width="0.00048"></path>
<path d="M1.669 0.639 Q1.745 0.384 1.265 0.292" stroke="hsl(120.0,100%,35%)" stroke-width="0.00024"></path>
<path d="M1.669 0.639 Q1.381 0.567 1.177 0.692" stroke="hsl(120.0,100%,35%)" stroke-width="0.00024"></path>
<path d="M1.348 0.975 Q1.061 0.613 0.290 0.673" stroke="hsl(0.0,100%,35%)" stroke-width="0.00382"></path>
<path d="M1.348 0.975 Q1.522 0.919 1.450 0.822" stroke="hsl(0.0,100%,35%)" stroke-width="0.00119"></path>
<path d="M1.348 0.975 Q1.312 0.883 1.124 0.880" stroke="hsl(0.0,100%,35%)" stroke-width="0.01193"></path>
<path d="M1.348 0.975 Q1.701 0.432 0.719 0.141" stroke="hsl(0.0,100%,35%)" stroke-width="0.00167"></path>
<path d="M1.348 0.975 Q1.154 0.760 0.692 0.808" stroke="hsl(0.0,100%,35%)" stroke-width="0.00597"></path>
<path d="M1.348 0.975 Q1.280 0.665 0.659 0.631" stroke="hsl(0.0,100%,35%)" stroke-width="0.00286"></path>
<path d="M1.348 0.975 Q1.778 0.871 1.669 0.639" stroke="hsl(0.0,100%,35%)" stroke-width="0.00787"></path>
<path d="M1.348 0.975 Q1.348 0.410 0.245 0.286" stroke="hsl(0.0,100%,35%)" stroke-width="0.00048"></path>
<path d="M1.348 0.975 Q1.576 0.337 0.380 0.086" stroke="hsl(0.0,100%,35%)" stroke-width="0.00024"></path>
<path d="M1.348 0.975 Q1.892 0.931 1.924 0.656" stroke="hsl(0.0,100%,35%)" stroke-width="0.00167"></path>
<path d="M1.348 0.975 Q1.541 0.447 0.554 0.237" stroke="hsl(0.0,100%,35%)" stroke-width="0.00024"></path>
<path d="M1.348 0.975 Q2.024 0.807 1.843 0.440" stroke="hsl(0.0,100%,35%)" stroke-width="0.00024"></path>
<path d="M1.348 0.975 Q1.529 0.645 0.925 0.485" stroke="hsl(0.0,100%,35%)" stroke-width="0.00191"></path>
<path d="M1.348 0.975 Q1.207 0.427 0.107 0.376" stroke="hsl(0.0,100%,35%)" stroke-width="0.00024"></path>
<path d="M1.348 0.975 Q1.317 0.764 0.898 0.734" stroke="hsl(0.0,100%,35%)" stroke-width="0.00024"></path>
<path d="M1.348 0.975 Q1.786 0.986 1.903 0.775" stroke="hsl(0.0,100%,35%)" stroke-width="0.00024"></path>
<path d="M1.348 0.975 Q1.736 0.767 1.416 0.532" stroke="hsl(0.0,100%,35%)" stroke-width="0.00024"></path>
<path d="M1.733 0.279 Q1.894 0.262 1.897 0.179" stroke="hsl(0.0,100%,35%)" stroke-width="0.00167"></path>
<path d="M1.733 0.279 Q1.164 0.220 0.925 0.485" stroke="hsl(0.0,100%,35%)" stroke-width="0.00048"></path>
<path d="M1.733 0.279 Q0.983 0.550 1.348 0.975" stroke="hsl(0.0,100%,35%)" stroke-width="0.00072"></path>
<path d="M1.733 0.279 Q1.659 0.382 1.843 0.440" stroke="hsl(0.0,100%,35%)" stroke-width="0.00024"></path>
<path d="M1.733 0.279 Q1.413 0.446 1.669 0.639" stroke="hsl(0.0,100%,35%)" stroke-width="0.00072"></path>
<path d="M1.733 0.279 Q0.947 0.458 1.124 0.880" stroke="hsl(0.0,100%,35%)" stroke-width="0.00024"></path>
<path d="M1.733 0.279 Q0.789 0.335 0.692 0.808" stroke="hsl(0.0,100%,35%)" stroke-width="0.00024"></path>
<path d="M1.733 0.279 Q0.915 0.240 0.659 0.631" stroke="hsl(0.0,100%,35%)" stroke-width="0.00024"></path>
<path d="M1.733 0.279 Q0.696 0.187 0.290 0.673" stroke="hsl(0.0,100%,35%)" stroke-width="0.00024"></path>
<path d="M1.733 0.279 Q1.421 0.561 1.903 0.775" stroke="hsl(0.0,100%,35%)" stroke-width="0.00024"></path>
<path d="M1.733 0.279 Q1.124 0.374 1.177 0.692" stroke="hsl(0.0,100%,35%)" stroke-width="0.00024"></path>
<path d="M1.124 0.880 Q1.341 0.643 0.925 0.485" stroke="hsl(0.0,100%,35%)" stroke-width="0.00573"></path>
<path d="M1.124 0.880 Q1.160 0.973 1.348 0.975" stroke="hsl(0.0,100%,35%)" stroke-width="0.04391"></path>
<path d="M1.124 0.880 Q0.873 0.610 0.290 0.673" stroke="hsl(0.0,100%,35%)" stroke-width="0.00716"></path>
<path d="M1.124 0.880 Q1.512 0.430 0.719 0.141" stroke="hsl(0.0,100%,35%)" stroke-width="0.01050"></path>
<path d="M1.124 0.880 Q1.333 0.917 1.450 0.822" stroke="hsl(0.0,100%,35%)" stroke-width="0.00334"></path>
<path d="M1.124 0.880 Q0.966 0.758 0.692 0.808" stroke="hsl(0.0,100%,35%)" stroke-width="0.01074"></path>
<path d="M1.124 0.880 Q1.091 0.662 0.659 0.631" stroke="hsl(0.0,100%,35%)" stroke-width="0.00382"></path>
<path d="M1.124 0.880 Q1.256 0.690 0.913 0.584" stroke="hsl(0.0,100%,35%)" stroke-width="0.00549"></path>
<path d="M1.124 0.880 Q1.590 0.869 1.669 0.639" stroke="hsl(0.0,100%,35%)" stroke-width="0.00239"></path>
<path d="M1.124 0.880 Q1.703 0.928 1.924 0.656" stroke="hsl(0.0,100%,35%)" stroke-width="0.00143"></path>
<path d="M1.124 0.880 Q1.128 0.762 0.898 0.734" stroke="hsl(0.0,100%,35%)" stroke-width="0.00406"></path>
<path d="M1.124 0.880 Q1.353 0.445 0.554 0.237" stroke="hsl(0.0,100%,35%)" stroke-width="0.00597"></path>
<path d="M1.124 0.880 Q1.597 0.984 1.903 0.775" stroke="hsl(0.0,100%,35%)" stroke-width="0.00048"></path>
<path d="M1.124 0.880 Q2.071 0.684 1.897 0.179" stroke="hsl(0.0,100%,35%)" stroke-width="0.00119"></path>
<path d="M1.124 0.880 Q1.019 0.425 0.107 0.376" stroke="hsl(0.0,100%,35%)" stroke-width="0.00024"></path>
<path d="M1.124 0.880 Q1.909 0.701 1.733 0.279" stroke="hsl(0.0,100%,35%)" stroke-width="0.00048"></path>
<path d="M1.124 0.880 Q1.177 0.791 1.015 0.745" stroke="hsl(0.0,100%,35%)" stroke-width="0.00024"></path>
<path d="M1.124 0.880 Q1.665 0.614 1.265 0.292" stroke="hsl(0.0,100%,35%)" stroke-width="0.00024"></path>
<path d="M1.124 0.880 Q1.391 0.832 1.356 0.692" stroke="hsl(0.0,100%,35%)" stroke-width="0.00048"></path>
<path d="M1.124 0.880 Q1.160 0.407 0.245 0.286" stroke="hsl(0.0,100%,35%)" stroke-width="0.00048"></path>
<path d="M1.124 0.880 Q1.387 0.335 0.380 0.086" stroke="hsl(0.0,100%,35%)" stroke-width="0.00024"></path>
<path d="M1.124 0.880 Q0.959 0.845 0.854 0.917" stroke="hsl(0.0,100%,35%)" stroke-width="0.00406"></path>
<path d="M0.692 0.808 Q0.599 0.660 0.290 0.673" stroke="hsl(0.0,100%,35%)" stroke-width="0.02625"></path>
<path d="M0.692 0.808 Q0.817 0.713 0.659 0.631" stroke="hsl(0.0,100%,35%)" stroke-width="0.01121"></path>
<path d="M0.692 0.808 Q1.239 0.480 0.719 0.141" stroke="hsl(0.0,100%,35%)" stroke-width="0.00119"></path>
<path d="M0.692 0.808 Q0.854 0.812 0.898 0.734" stroke="hsl(0.0,100%,35%)" stroke-width="0.01145"></path>
<path d="M0.692 0.808 Q0.982 0.740 0.913 0.584" stroke="hsl(0.0,100%,35%)" stroke-width="0.00310"></path>
<path d="M0.692 0.808 Q0.886 1.023 1.348 0.975" stroke="hsl(0.0,100%,35%)" stroke-width="0.01169"></path>
<path d="M0.692 0.808 Q0.850 0.930 1.124 0.880" stroke="hsl(0.0,100%,35%)" stroke-width="0.00453"></path>
<path d="M0.692 0.808 Q1.316 0.919 1.669 0.639" stroke="hsl(0.0,100%,35%)" stroke-width="0.00048"></path>
<path d="M0.692 0.808 Q1.067 0.693 0.925 0.485" stroke="hsl(0.0,100%,35%)" stroke-width="0.00787"></path>
<path d="M0.692 0.808 Q1.079 0.495 0.554 0.237" stroke="hsl(0.0,100%,35%)" stroke-width="0.00286"></path>
<path d="M0.692 0.808 Q1.060 0.967 1.450 0.822" stroke="hsl(0.0,100%,35%)" stroke-width="0.00143"></path>
<path d="M0.692 0.808 Q1.636 0.751 1.733 0.279" stroke="hsl(0.0,100%,35%)" stroke-width="0.00024"></path>
<path d="M0.692 0.808 Q0.686 0.895 0.854 0.917" stroke="hsl(0.0,100%,35%)" stroke-width="0.00024"></path>
<path d="M0.913 0.584 Q0.785 0.656 0.898 0.734" stroke="hsl(0.0,100%,35%)" stroke-width="0.00167"></path>
<path d="M0.913 0.584 Q0.748 0.556 0.659 0.631" stroke="hsl(0.0,100%,35%)" stroke-width="0.00597"></path>
<path d="M0.913 0.584 Q0.623 0.652 0.692 0.808" stroke="hsl(0.0,100%,35%)" stroke-width="0.00430"></path>
<path d="M0.913 0.584 Q1.010 0.339 0.554 0.237" stroke="hsl(0.0,100%,35%)" stroke-width="0.00119"></path>
<path d="M0.913 0.584 Q0.817 0.867 1.348 0.975" stroke="hsl(0.0,100%,35%)" stroke-width="0.00048"></path>
<path d="M0.913 0.584 Q1.170 0.324 0.719 0.141" stroke="hsl(0.0,100%,35%)" stroke-width="0.00191"></path>
<path d="M0.913 0.584 Q0.781 0.774 1.124 0.880" stroke="hsl(0.0,100%,35%)" stroke-width="0.00095"></path>
<path d="M0.913 0.584 Q0.998 0.537 0.925 0.485" stroke="hsl(0.0,100%,35%)" stroke-width="0.00095"></path>
<path d="M0.913 0.584 Q0.530 0.504 0.290 0.673" stroke="hsl(0.0,100%,35%)" stroke-width="0.00024"></path>
<path d="M0.913 0.584 Q1.140 0.935 1.875 0.901" stroke="hsl(0.0,100%,35%)" stroke-width="0.00024"></path>
<path d="M0.898 0.734 Q0.736 0.730 0.692 0.808" stroke="hsl(0.0,100%,35%)" stroke-width="0.00668"></path>
<path d="M0.898 0.734 Q1.110 0.615 0.925 0.485" stroke="hsl(0.0,100%,35%)" stroke-width="0.00167"></path>
<path d="M0.898 0.734 Q0.930 0.945 1.348 0.975" stroke="hsl(0.0,100%,35%)" stroke-width="0.00119"></path>
<path d="M0.898 0.734 Q0.894 0.852 1.124 0.880" stroke="hsl(0.0,100%,35%)" stroke-width="0.00119"></path>
<path d="M0.898 0.734 Q0.861 0.634 0.659 0.631" stroke="hsl(0.0,100%,35%)" stroke-width="0.00048"></path>
<path d="M0.898 0.734 Q0.643 0.582 0.290 0.673" stroke="hsl(0.0,100%,35%)" stroke-width="0.00191"></path>
<path d="M0.898 0.734 Q1.025 0.662 0.913 0.584" stroke="hsl(0.0,100%,35%)" stroke-width="0.00024"></path>
<path d="M0.898 0.734 Q1.123 0.417 0.554 0.237" stroke="hsl(0.0,100%,35%)" stroke-width="0.00024"></path>
<path d="M0.898 0.734 Q1.367 0.955 1.903 0.775" stroke="hsl(0.0,100%,35%)" stroke-width="0.00024"></path>
<path d="M0.898 0.734 Q1.679 0.673 1.733 0.279" stroke="hsl(0.0,100%,35%)" stroke-width="0.00024"></path>
<path d="M0.659 0.631 Q0.534 0.726 0.692 0.808" stroke="hsl(0.0,100%,35%)" stroke-width="0.02004"></path>
<path d="M0.659 0.631 Q0.909 0.611 0.925 0.485" stroke="hsl(0.0,100%,35%)" stroke-width="0.00358"></path>
<path d="M0.659 0.631 Q0.692 0.848 1.124 0.880" stroke="hsl(0.0,100%,35%)" stroke-width="0.00310"></path>
<path d="M0.659 0.631 Q0.441 0.578 0.290 0.673" stroke="hsl(0.0,100%,35%)" stroke-width="0.01074"></path>
<path d="M0.659 0.631 Q1.158 0.837 1.669 0.639" stroke="hsl(0.0,100%,35%)" stroke-width="0.00215"></path>
<path d="M0.659 0.631 Q0.921 0.413 0.554 0.237" stroke="hsl(0.0,100%,35%)" stroke-width="0.00286"></path>
<path d="M0.659 0.631 Q1.080 0.398 0.719 0.141" stroke="hsl(0.0,100%,35%)" stroke-width="0.00286"></path>
<path d="M0.659 0.631 Q0.823 0.658 0.913 0.584" stroke="hsl(0.0,100%,35%)" stroke-width="0.00787"></path>
<path d="M0.659 0.631 Q0.696 0.730 0.898 0.734" stroke="hsl(0.0,100%,35%)" stroke-width="0.00310"></path>
<path d="M0.659 0.631 Q0.728 0.941 1.348 0.975" stroke="hsl(0.0,100%,35%)" stroke-width="0.00597"></path>
<path d="M0.659 0.631 Q0.901 0.885 1.450 0.822" stroke="hsl(0.0,100%,35%)" stroke-width="0.00095"></path>
<path d="M0.659 0.631 Q1.116 0.733 1.416 0.532" stroke="hsl(0.0,100%,35%)" stroke-width="0.00024"></path>
<path d="M0.659 0.631 Q1.477 0.669 1.733 0.279" stroke="hsl(0.0,100%,35%)" stroke-width="0.00024"></path>
<path d="M0.659 0.631 Q0.728 0.376 0.245 0.286" stroke="hsl(0.0,100%,35%)" stroke-width="0.00024"></path>
<path d="M0.554 0.237 Q0.167 0.550 0.692 0.808" stroke="hsl(0.0,100%,35%)" stroke-width="0.00143"></path>
<path d="M0.554 0.237 Q0.541 0.435 0.925 0.485" stroke="hsl(0.0,100%,35%)" stroke-width="0.00740"></path>
<path d="M0.554 0.237 Q0.713 0.223 0.719 0.141" stroke="hsl(0.0,100%,35%)" stroke-width="0.00119"></path>
<path d="M0.554 0.237 Q0.324 0.673 1.124 0.880" stroke="hsl(0.0,100%,35%)" stroke-width="0.00024"></path>
<path d="M0.554 0.237 Q0.073 0.403 0.290 0.673" stroke="hsl(0.0,100%,35%)" stroke-width="0.00191"></path>
<path d="M0.554 0.237 Q0.292 0.455 0.659 0.631" stroke="hsl(0.0,100%,35%)" stroke-width="0.00119"></path>
<path d="M0.554 0.237 Q0.361 0.765 1.348 0.975" stroke="hsl(0.0,100%,35%)" stroke-width="0.00048"></path>
<path d="M0.554 0.237 Q0.329 0.554 0.898 0.734" stroke="hsl(0.0,100%,35%)" stroke-width="0.00024"></path>
<path d="M0.554 0.237 Q1.272 0.477 1.897 0.179" stroke="hsl(0.0,100%,35%)" stroke-width="0.00048"></path>
<path d="M0.290 0.673 Q0.509 0.726 0.659 0.631" stroke="hsl(0.0,100%,35%)" stroke-width="0.01742"></path>
<path d="M0.290 0.673 Q0.541 0.943 1.124 0.880" stroke="hsl(0.0,100%,35%)" stroke-width="0.00215"></path>
<path d="M0.290 0.673 Q0.758 0.706 0.925 0.485" stroke="hsl(0.0,100%,35%)" stroke-width="0.00787"></path>
<path d="M0.290 0.673 Q0.383 0.821 0.692 0.808" stroke="hsl(0.0,100%,35%)" stroke-width="0.01169"></path>
<path d="M0.290 0.673 Q1.121 0.991 1.924 0.656" stroke="hsl(0.0,100%,35%)" stroke-width="0.00048"></path>
<path d="M0.290 0.673 Q0.577 1.036 1.348 0.975" stroke="hsl(0.0,100%,35%)" stroke-width="0.00072"></path>
<path d="M0.290 0.673 Q0.770 0.508 0.554 0.237" stroke="hsl(0.0,100%,35%)" stroke-width="0.00907"></path>
<path d="M0.290 0.673 Q0.930 0.493 0.719 0.141" stroke="hsl(0.0,100%,35%)" stroke-width="0.00119"></path>
<path d="M0.290 0.673 Q1.327 0.764 1.733 0.279" stroke="hsl(0.0,100%,35%)" stroke-width="0.00024"></path>
<path d="M0.290 0.673 Q1.007 0.932 1.669 0.639" stroke="hsl(0.0,100%,35%)" stroke-width="0.00024"></path>
<path d="M0.290 0.673 Q0.377 0.908 0.854 0.917" stroke="hsl(0.0,100%,35%)" stroke-width="0.00024"></path>
<path d="M0.290 0.673 Q0.577 0.471 0.245 0.286" stroke="hsl(0.0,100%,35%)" stroke-width="0.00048"></path>
<path d="M1.875 0.901 Q1.552 0.833 1.348 0.975" stroke="hsl(0.0,100%,35%)" stroke-width="0.00597"></path>
<path d="M1.875 0.901 Q1.982 0.729 1.669 0.639" stroke="hsl(0.0,100%,35%)" stroke-width="0.00048"></path>
<path d="M1.875 0.901 Q2.302 0.561 1.733 0.279" stroke="hsl(0.0,100%,35%)" stroke-width="0.00095"></path>
<path d="M1.190 0.468 Q1.044 0.423 0.925 0.485" stroke="hsl(0.0,100%,35%)" stroke-width="0.00119"></path>
<path d="M1.190 0.468 Q0.576 0.390 0.290 0.673" stroke="hsl(0.0,100%,35%)" stroke-width="0.00024"></path>
<path d="M1.190 0.468 Q0.669 0.538 0.692 0.808" stroke="hsl(0.0,100%,35%)" stroke-width="0.00048"></path>
<path d="M1.190 0.468 Q1.056 0.225 0.554 0.237" stroke="hsl(0.0,100%,35%)" stroke-width="0.00048"></path>
<path d="M0.245 0.286 Q0.598 0.309 0.719 0.141" stroke="hsl(120.0,100%,35%)" stroke-width="0.00310"></path>
<path d="M0.245 0.286 Q0.177 0.541 0.659 0.631" stroke="hsl(120.0,100%,35%)" stroke-width="0.00048"></path>
<path d="M0.245 0.286 Q0.104 0.303 0.107 0.376" stroke="hsl(120.0,100%,35%)" stroke-width="0.00167"></path>
<path d="M0.245 0.286 Q0.473 0.213 0.380 0.086" stroke="hsl(120.0,100%,35%)" stroke-width="0.00024"></path>
<path d="M0.245 0.286 Q0.675 0.747 1.669 0.639" stroke="hsl(120.0,100%,35%)" stroke-width="0.00048"></path>
<path d="M0.245 0.286 Q0.209 0.759 1.124 0.880" stroke="hsl(120.0,100%,35%)" stroke-width="0.00024"></path>
<path d="M0.245 0.286 Q0.426 0.521 0.925 0.485" stroke="hsl(120.0,100%,35%)" stroke-width="0.00024"></path>
<path d="M0.245 0.286 Q-0.042 0.489 0.290 0.673" stroke="hsl(120.0,100%,35%)" stroke-width="0.00024"></path>
<path d="M0.245 0.286 Q0.245 0.851 1.348 0.975" stroke="hsl(120.0,100%,35%)" stroke-width="0.00048"></path>
<path d="M0.107 0.376 Q-0.039 0.561 0.290 0.673" stroke="hsl(120.0,100%,35%)" stroke-width="0.00024"></path>
<path d="M0.107 0.376 Q0.601 0.381 0.719 0.141" stroke="hsl(120.0,100%,35%)" stroke-width="0.00024"></path>
<path d="M0.107 0.376 Q0.753 0.565 1.265 0.292" stroke="hsl(120.0,100%,35%)" stroke-width="0.00024"></path>
<path d="M0.380 0.086 Q0.506 0.182 0.719 0.141" stroke="hsl(120.0,100%,35%)" stroke-width="0.01503"></path>
<path d="M0.380 0.086 Q0.378 0.568 1.319 0.675" stroke="hsl(120.0,100%,35%)" stroke-width="0.00024"></path>
<path d="M0.380 0.086 Q0.153 0.724 1.348 0.975" stroke="hsl(120.0,100%,35%)" stroke-width="0.00048"></path>
<path d="M0.380 0.086 Q0.583 0.620 1.669 0.639" stroke="hsl(120.0,100%,35%)" stroke-width="0.00024"></path>
<path d="M0.380 0.086 Q0.117 0.632 1.124 0.880" stroke="hsl(120.0,100%,35%)" stroke-width="0.00119"></path>
<path d="M0.380 0.086 Q0.153 0.159 0.245 0.286" stroke="hsl(120.0,100%,35%)" stroke-width="0.00024"></path>
<path d="M0.380 0.086 Q0.084 0.414 0.659 0.631" stroke="hsl(120.0,100%,35%)" stroke-width="0.00024"></path>
<path d="M1.450 0.822 Q1.241 0.786 1.124 0.880" stroke="hsl(0.0,100%,35%)" stroke-width="0.00215"></path>
<path d="M1.450 0.822 Q1.277 0.878 1.348 0.975" stroke="hsl(0.0,100%,35%)" stroke-width="0.00668"></path>
<path d="M1.450 0.822 Q1.208 0.568 0.659 0.631" stroke="hsl(0.0,100%,35%)" stroke-width="0.00215"></path>
<path d="M1.450 0.822 Q1.707 0.774 1.669 0.639" stroke="hsl(0.0,100%,35%)" stroke-width="0.00048"></path>
<path d="M1.450 0.822 Q1.629 0.336 0.719 0.141" stroke="hsl(0.0,100%,35%)" stroke-width="0.00048"></path>
<path d="M1.450 0.822 Q0.990 0.516 0.290 0.673" stroke="hsl(0.0,100%,35%)" stroke-width="0.00024"></path>
<path d="M1.924 0.656 Q1.733 0.158 0.719 0.141" stroke="hsl(120.0,100%,35%)" stroke-width="0.00453"></path>
<path d="M1.924 0.656 Q1.093 0.338 0.290 0.673" stroke="hsl(120.0,100%,35%)" stroke-width="0.00048"></path>
<path d="M1.924 0.656 Q1.380 0.700 1.348 0.975" stroke="hsl(120.0,100%,35%)" stroke-width="0.00119"></path>
<path d="M1.924 0.656 Q1.547 0.080 0.340 0.137" stroke="hsl(120.0,100%,35%)" stroke-width="0.00119"></path>
<path d="M1.924 0.656 Q1.818 0.711 1.903 0.775" stroke="hsl(120.0,100%,35%)" stroke-width="0.00215"></path>
<path d="M1.924 0.656 Q1.474 0.518 1.108 0.708" stroke="hsl(120.0,100%,35%)" stroke-width="0.00072"></path>
<path d="M1.924 0.656 Q1.810 0.596 1.669 0.639" stroke="hsl(120.0,100%,35%)" stroke-width="0.00215"></path>
<path d="M1.924 0.656 Q1.344 0.608 1.124 0.880" stroke="hsl(120.0,100%,35%)" stroke-width="0.00072"></path>
<path d="M1.924 0.656 Q1.186 0.485 0.692 0.808" stroke="hsl(120.0,100%,35%)" stroke-width="0.00024"></path>
<path d="M1.903 0.775 Q1.818 0.222 0.719 0.141" stroke="hsl(120.0,100%,35%)" stroke-width="0.00048"></path>
<path d="M1.903 0.775 Q2.009 0.720 1.924 0.656" stroke="hsl(120.0,100%,35%)" stroke-width="0.00119"></path>
<path d="M1.903 0.775 Q1.658 0.237 0.554 0.237" stroke="hsl(120.0,100%,35%)" stroke-width="0.00024"></path>
<path d="M1.903 0.775 Q1.397 0.454 0.659 0.631" stroke="hsl(120.0,100%,35%)" stroke-width="0.00024"></path>
<path d="M1.903 0.775 Q1.632 0.144 0.340 0.137" stroke="hsl(120.0,100%,35%)" stroke-width="0.00048"></path>
<path d="M1.903 0.775 Q1.895 0.660 1.669 0.639" stroke="hsl(120.0,100%,35%)" stroke-width="0.00024"></path>
<path d="M1.416 0.532 Q1.458 0.636 1.669 0.639" stroke="hsl(120.0,100%,35%)" stroke-width="0.00406"></path>
<path d="M1.416 0.532 Q1.380 0.198 0.719 0.141" stroke="hsl(120.0,100%,35%)" stroke-width="0.00095"></path>
<path d="M1.416 0.532 Q1.253 0.584 1.319 0.675" stroke="hsl(120.0,100%,35%)" stroke-width="0.00048"></path>
<path d="M1.416 0.532 Q1.571 0.696 1.924 0.656" stroke="hsl(120.0,100%,35%)" stroke-width="0.00048"></path>
<path d="M1.416 0.532 Q1.028 0.740 1.348 0.975" stroke="hsl(120.0,100%,35%)" stroke-width="0.00072"></path>
<path d="M0.829 0.298 Q0.727 0.410 0.925 0.485" stroke="hsl(0.0,100%,35%)" stroke-width="0.00430"></path>
<path d="M0.829 0.298 Q0.259 0.378 0.290 0.673" stroke="hsl(0.0,100%,35%)" stroke-width="0.00119"></path>
<path d="M0.829 0.298 Q0.478 0.430 0.659 0.631" stroke="hsl(0.0,100%,35%)" stroke-width="0.00072"></path>
<path d="M0.829 0.298 Q0.515 0.529 0.898 0.734" stroke="hsl(0.0,100%,35%)" stroke-width="0.00024"></path>
<path d="M0.829 0.298 Q0.510 0.648 1.124 0.880" stroke="hsl(0.0,100%,35%)" stroke-width="0.00024"></path>
<path d="M0.829 0.298 Q0.352 0.525 0.692 0.808" stroke="hsl(0.0,100%,35%)" stroke-width="0.00048"></path>
<path d="M0.829 0.298 Q0.546 0.740 1.348 0.975" stroke="hsl(0.0,100%,35%)" stroke-width="0.00024"></path>
<path d="M1.319 0.675 Q1.446 0.288 0.719 0.141" stroke="hsl(120.0,100%,35%)" stroke-width="0.00262"></path>
<path d="M1.319 0.675 Q1.523 0.727 1.669 0.639" stroke="hsl(120.0,100%,35%)" stroke-width="0.01169"></path>
<path d="M1.319 0.675 Q1.481 0.623 1.416 0.532" stroke="hsl(120.0,100%,35%)" stroke-width="0.00072"></path>
<path d="M1.319 0.675 Q1.093 0.831 1.348 0.975" stroke="hsl(120.0,100%,35%)" stroke-width="0.00095"></path>
<path d="M1.319 0.675 Q1.843 0.560 1.733 0.279" stroke="hsl(120.0,100%,35%)" stroke-width="0.00024"></path>
<path d="M1.319 0.675 Q1.274 0.501 0.925 0.485" stroke="hsl(120.0,100%,35%)" stroke-width="0.00024"></path>
<path d="M1.265 0.292 Q0.618 0.102 0.107 0.376" stroke="hsl(120.0,100%,35%)" stroke-width="0.00024"></path>
<path d="M1.265 0.292 Q0.760 0.650 1.348 0.975" stroke="hsl(120.0,100%,35%)" stroke-width="0.00024"></path>
<path d="M1.265 0.292 Q1.112 0.107 0.719 0.141" stroke="hsl(120.0,100%,35%)" stroke-width="0.00024"></path>
<path d="M1.265 0.292 Q1.189 0.546 1.669 0.639" stroke="hsl(120.0,100%,35%)" stroke-width="0.00024"></path>
<path d="M1.265 0.292 Q0.723 0.558 1.124 0.880" stroke="hsl(120.0,100%,35%)" stroke-width="0.00048"></path>
<path d="M1.265 0.292 Q0.940 0.320 0.925 0.485" stroke="hsl(120.0,100%,35%)" stroke-width="0.00072"></path>
<path d="M0.340 0.137 Q0.526 0.215 0.719 0.141" stroke="hsl(120.0,100%,35%)" stroke-width="0.00024"></path>
<path d="M0.340 0.137 Q0.717 0.713 1.924 0.656" stroke="hsl(120.0,100%,35%)" stroke-width="0.00048"></path>
<path d="M0.340 0.137 Q0.611 0.769 1.903 0.775" stroke="hsl(120.0,100%,35%)" stroke-width="0.00024"></path>
<path d="M1.705 0.756 Q1.351 0.794 1.348 0.975" stroke="hsl(0.0,100%,35%)" stroke-width="0.00119"></path>
<path d="M1.705 0.756 Q2.101 0.523 1.733 0.279" stroke="hsl(0.0,100%,35%)" stroke-width="0.00024"></path>
<path d="M1.705 0.756 Q1.064 0.432 0.290 0.673" stroke="hsl(0.0,100%,35%)" stroke-width="0.00024"></path>
<path d="M1.705 0.756 Q1.315 0.702 1.124 0.880" stroke="hsl(0.0,100%,35%)" stroke-width="0.00048"></path>
<path d="M1.216 0.513 Q0.912 0.771 1.348 0.975" stroke="hsl(120.0,100%,35%)" stroke-width="0.00024"></path>
<path d="M1.216 0.513 Q1.342 0.666 1.669 0.639" stroke="hsl(120.0,100%,35%)" stroke-width="0.00048"></path>
<path d="M1.216 0.513 Q0.718 0.555 0.692 0.808" stroke="hsl(120.0,100%,35%)" stroke-width="0.00024"></path>
<path d="M1.115 0.197 Q0.573 0.540 1.124 0.880" stroke="hsl(0.0,100%,35%)" stroke-width="0.00024"></path>
<path d="M1.115 0.197 Q1.169 0.101 0.993 0.054" stroke="hsl(0.0,100%,35%)" stroke-width="0.00024"></path>
<path d="M1.115 0.197 Q0.577 0.422 0.898 0.734" stroke="hsl(0.0,100%,35%)" stroke-width="0.00024"></path>
<path d="M1.115 0.197 Q0.961 0.090 0.719 0.141" stroke="hsl(0.0,100%,35%)" stroke-width="0.00024"></path>
<path d="M1.162 0.336 Q1.097 0.150 0.719 0.141" stroke="hsl(0.0,100%,35%)" stroke-width="0.00024"></path>
<path d="M1.162 0.336 Q0.744 0.693 1.348 0.975" stroke="hsl(0.0,100%,35%)" stroke-width="0.00048"></path>
<path d="M1.162 0.336 Q0.925 0.363 0.925 0.485" stroke="hsl(0.0,100%,35%)" stroke-width="0.00072"></path>
<path d="M0.461 0.759 Q0.695 0.952 1.124 0.880" stroke="hsl(120.0,100%,35%)" stroke-width="0.00024"></path>
<path d="M0.461 0.759 Q0.538 0.830 0.692 0.808" stroke="hsl(120.0,100%,35%)" stroke-width="0.00024"></path>
<path d="M0.461 0.759 Q0.732 1.045 1.348 0.975" stroke="hsl(120.0,100%,35%)" stroke-width="0.00048"></path>
<path d="M0.461 0.759 Q1.084 0.502 0.719 0.141" stroke="hsl(120.0,100%,35%)" stroke-width="0.00048"></path>
<path d="M1.897 0.179 Q1.166 0.138 0.925 0.485" stroke="hsl(0.0,100%,35%)" stroke-width="0.00119"></path>
<path d="M1.897 0.179 Q1.178 -0.060 0.554 0.237" stroke="hsl(0.0,100%,35%)" stroke-width="0.00119"></path>
<path d="M1.897 0.179 Q1.735 0.196 1.733 0.279" stroke="hsl(0.0,100%,35%)" stroke-width="0.00334"></path>
<path d="M1.897 0.179 Q0.698 0.105 0.290 0.673" stroke="hsl(0.0,100%,35%)" stroke-width="0.00095"></path>
<path d="M1.897 0.179 Q1.338 -0.075 0.719 0.141" stroke="hsl(0.0,100%,35%)" stroke-width="0.00024"></path>
<path d="M1.897 0.179 Q0.949 0.375 1.124 0.880" stroke="hsl(0.0,100%,35%)" stroke-width="0.00072"></path>
<path d="M1.897 0.179 Q0.917 0.157 0.659 0.631" stroke="hsl(0.0,100%,35%)" stroke-width="0.00024"></path>
<path d="M1.897 0.179 Q0.986 0.468 1.348 0.975" stroke="hsl(0.0,100%,35%)" stroke-width="0.00048"></path>
<path d="M1.897 0.179 Q0.792 0.253 0.692 0.808" stroke="hsl(0.0,100%,35%)" stroke-width="0.00024"></path>
<path d="M1.108 0.708 Q1.155 0.714 1.177 0.692" stroke="hsl(240.0,100%,35%)" stroke-width="0.00477"></path>
<path d="M1.108 0.708 Q1.014 0.324 0.245 0.286" stroke="hsl(240.0,100%,35%)" stroke-width="0.00048"></path>
<path d="M1.108 0.708 Q1.366 0.347 0.719 0.141" stroke="hsl(240.0,100%,35%)" stroke-width="0.00024"></path>
<path d="M1.108 0.708 Q1.245 0.749 1.356 0.692" stroke="hsl(240.0,100%,35%)" stroke-width="0.00048"></path>
<path d="M1.108 0.708 Q1.014 0.890 1.348 0.975" stroke="hsl(240.0,100%,35%)" stroke-width="0.00048"></path>
<path d="M0.408 0.826 Q0.939 0.759 0.925 0.485" stroke="hsl(0.0,100%,35%)" stroke-width="0.00024"></path>
<path d="M0.408 0.826 Q0.565 0.874 0.692 0.808" stroke="hsl(0.0,100%,35%)" stroke-width="0.00024"></path>
<path d="M0.408 0.826 Q0.759 1.089 1.348 0.975" stroke="hsl(0.0,100%,35%)" stroke-width="0.00048"></path>
<path d="M1.304 0.376 Q0.847 0.684 1.348 0.975" stroke="hsl(0.0,100%,35%)" stroke-width="0.00072"></path>
<path d="M1.304 0.376 Q1.027 0.354 0.925 0.485" stroke="hsl(0.0,100%,35%)" stroke-width="0.00095"></path>
<path d="M1.304 0.376 Q0.815 0.473 0.898 0.734" stroke="hsl(0.0,100%,35%)" stroke-width="0.00024"></path>
<path d="M1.304 0.376 Q0.653 0.469 0.692 0.808" stroke="hsl(0.0,100%,35%)" stroke-width="0.00024"></path>
<path d="M0.175 0.131 Q0.836 0.517 1.733 0.279" stroke="hsl(0.0,100%,35%)" stroke-width="0.00024"></path>
<path d="M0.175 0.131 Q0.087 0.788 1.348 0.975" stroke="hsl(0.0,100%,35%)" stroke-width="0.00024"></path>
<path d="M0.175 0.131 Q0.439 0.245 0.719 0.141" stroke="hsl(0.0,100%,35%)" stroke-width="0.00024"></path>
<path d="M0.854 0.917 Q0.861 0.830 0.692 0.808" stroke="hsl(0.0,100%,35%)" stroke-width="0.00573"></path>
<path d="M0.854 0.917 Q1.407 0.502 0.719 0.141" stroke="hsl(0.0,100%,35%)" stroke-width="0.00072"></path>
<path d="M0.854 0.917 Q1.023 0.834 0.898 0.734" stroke="hsl(0.0,100%,35%)" stroke-width="0.00358"></path>
<path d="M0.854 0.917 Q1.018 0.953 1.124 0.880" stroke="hsl(0.0,100%,35%)" stroke-width="0.00262"></path>
<path d="M0.854 0.917 Q1.150 0.762 0.913 0.584" stroke="hsl(0.0,100%,35%)" stroke-width="0.00024"></path>
<path d="M0.854 0.917 Q0.768 0.682 0.290 0.673" stroke="hsl(0.0,100%,35%)" stroke-width="0.00024"></path>
<path d="M0.854 0.917 Q1.248 0.517 0.554 0.237" stroke="hsl(0.0,100%,35%)" stroke-width="0.00048"></path>
<path d="M1.569 0.736 Q1.268 0.812 1.348 0.975" stroke="hsl(0.0,100%,35%)" stroke-width="0.00143"></path>
<path d="M1.569 0.736 Q1.697 0.708 1.669 0.639" stroke="hsl(0.0,100%,35%)" stroke-width="0.00119"></path>
<path d="M1.569 0.736 Q1.811 0.767 1.924 0.656" stroke="hsl(0.0,100%,35%)" stroke-width="0.00024"></path>
<path d="M0.973 0.756 Q1.166 0.611 0.925 0.485" stroke="hsl(0.0,100%,35%)" stroke-width="0.00024"></path>
<path d="M0.973 0.756 Q0.985 0.941 1.348 0.975" stroke="hsl(0.0,100%,35%)" stroke-width="0.00048"></path>
<path d="M0.973 0.756 Q0.791 0.726 0.692 0.808" stroke="hsl(0.0,100%,35%)" stroke-width="0.00072"></path>
<path d="M0.973 0.756 Q1.178 0.413 0.554 0.237" stroke="hsl(0.0,100%,35%)" stroke-width="0.00024"></path>
<path d="M0.201 0.100 Q0.617 0.722 1.924 0.656" stroke="hsl(120.0,100%,35%)" stroke-width="0.00024"></path>
<path d="M0.201 0.100 Q0.005 0.457 0.659 0.631" stroke="hsl(120.0,100%,35%)" stroke-width="0.00024"></path>
<path d="M0.201 0.100 Q0.426 0.224 0.719 0.141" stroke="hsl(120.0,100%,35%)" stroke-width="0.00024"></path>
<path d="M1.644 0.910 Q1.444 0.884 1.348 0.975" stroke="hsl(0.0,100%,35%)" stroke-width="0.00262"></path>
<path d="M1.644 0.910 Q2.194 0.613 1.733 0.279" stroke="hsl(0.0,100%,35%)" stroke-width="0.00048"></path>
<path d="M1.644 0.910 Q1.797 0.341 0.719 0.141" stroke="hsl(0.0,100%,35%)" stroke-width="0.00072"></path>
<path d="M1.759 0.770 Q1.390 0.791 1.348 0.975" stroke="hsl(120.0,100%,35%)" stroke-width="0.00215"></path>
<path d="M1.759 0.770 Q1.819 0.687 1.669 0.639" stroke="hsl(120.0,100%,35%)" stroke-width="0.00167"></path>
<path d="M1.759 0.770 Q1.933 0.746 1.924 0.656" stroke="hsl(120.0,100%,35%)" stroke-width="0.00262"></path>
<path d="M1.759 0.770 Q1.102 0.428 0.290 0.673" stroke="hsl(120.0,100%,35%)" stroke-width="0.00024"></path>
<path d="M1.513 0.333 Q0.917 0.621 1.348 0.975" stroke="hsl(0.0,100%,35%)" stroke-width="0.00024"></path>
<path d="M1.513 0.333 Q1.666 0.350 1.733 0.279" stroke="hsl(0.0,100%,35%)" stroke-width="0.00048"></path>
<path d="M1.513 0.333 Q1.090 0.565 1.450 0.822" stroke="hsl(0.0,100%,35%)" stroke-width="0.00024"></path>
<path d="M0.199 0.866 Q0.493 0.936 0.692 0.808" stroke="hsl(0.0,100%,35%)" stroke-width="0.00262"></path>
<path d="M0.199 0.866 Q1.598 0.862 1.897 0.179" stroke="hsl(0.0,100%,35%)" stroke-width="0.00024"></path>
<path d="M0.199 0.866 Q0.860 1.095 1.450 0.822" stroke="hsl(0.0,100%,35%)" stroke-width="0.00024"></path>
<path d="M0.199 0.866 Q1.116 1.047 1.669 0.639" stroke="hsl(0.0,100%,35%)" stroke-width="0.00024"></path>
<path d="M0.199 0.866 Q0.867 0.821 0.925 0.485" stroke="hsl(0.0,100%,35%)" stroke-width="0.00167"></path>
<path d="M0.199 0.866 Q0.400 0.788 0.290 0.673" stroke="hsl(0.0,100%,35%)" stroke-width="0.00024"></path>
<path d="M0.199 0.866 Q0.618 0.840 0.659 0.631" stroke="hsl(0.0,100%,35%)" stroke-width="0.00024"></path>
<path d="M1.259 0.414 Q1.035 0.383 0.925 0.485" stroke="hsl(0.0,100%,35%)" stroke-width="0.00072"></path>
<path d="M1.259 0.414 Q0.661 0.498 0.692 0.808" stroke="hsl(0.0,100%,35%)" stroke-width="0.00048"></path>
<path d="M1.259 0.414 Q1.048 0.185 0.554 0.237" stroke="hsl(0.0,100%,35%)" stroke-width="0.00024"></path>
<path d="M1.259 0.414 Q0.568 0.350 0.290 0.673" stroke="hsl(0.0,100%,35%)" stroke-width="0.00024"></path>
<path d="M1.710 0.916 Q1.482 0.873 1.348 0.975" stroke="hsl(0.0,100%,35%)" stroke-width="0.00119"></path>
<path d="M1.710 0.916 Q1.413 0.563 0.659 0.631" stroke="hsl(0.0,100%,35%)" stroke-width="0.00072"></path>
<path d="M1.710 0.916 Q1.655 0.817 1.450 0.822" stroke="hsl(0.0,100%,35%)" stroke-width="0.00024"></path>
<path d="M1.710 0.916 Q1.446 0.781 1.124 0.880" stroke="hsl(0.0,100%,35%)" stroke-width="0.00024"></path>
<path d="M1.710 0.916 Q1.288 0.658 0.692 0.808" stroke="hsl(0.0,100%,35%)" stroke-width="0.00048"></path>
<path d="M0.549 0.974 Q1.129 0.805 0.925 0.485" stroke="hsl(0.0,100%,35%)" stroke-width="0.00215"></path>
<path d="M0.549 0.974 Q0.879 0.824 0.659 0.631" stroke="hsl(0.0,100%,35%)" stroke-width="0.00024"></path>
<path d="M0.549 0.974 Q0.754 0.920 0.692 0.808" stroke="hsl(0.0,100%,35%)" stroke-width="0.00358"></path>
<path d="M1.144 0.734 Q1.483 0.791 1.669 0.639" stroke="hsl(0.0,100%,35%)" stroke-width="0.00024"></path>
<path d="M1.144 0.734 Q0.859 0.680 0.692 0.808" stroke="hsl(0.0,100%,35%)" stroke-width="0.00048"></path>
<path d="M1.144 0.734 Q1.053 0.896 1.348 0.975" stroke="hsl(0.0,100%,35%)" stroke-width="0.00024"></path>
<path d="M1.229 0.715 Q1.262 0.539 0.925 0.485" stroke="hsl(0.0,100%,35%)" stroke-width="0.00024"></path>
<path d="M1.229 0.715 Q1.081 0.869 1.348 0.975" stroke="hsl(0.0,100%,35%)" stroke-width="0.00048"></path>
<path d="M1.229 0.715 Q1.012 0.559 0.659 0.631" stroke="hsl(0.0,100%,35%)" stroke-width="0.00048"></path>
</g>
<text x="1.129" y="0.743" font-size="0.007951" fill="hsl(0.0,100%,20%)">aperez</text>
<text x="0.925" y="0.461" font-size="0.047304" fill="hsl(0.0,100%,20%)">egdaniel</text>
<text x="0.719" y="0.108" font-size="0.066614" fill="hsl(120.0,100%,20%)">kjlubick</text>
<text x="1.669" y="0.612" font-size="0.053629" fill="hsl(120.0,100%,20%)">bungeman</text>
<text x="1.348" y="0.941" font-size="0.068393" fill="hsl(0.0,100%,20%)">brianosman</text>
<text x="1.733" y="0.269" font-size="0.019475" fill="hsl(0.0,100%,20%)">scroggo</text>
<text x="1.124" y="0.848" font-size="0.064835" fill="hsl(0.0,100%,20%)">johnstiles</text>
<text x="0.692" y="0.774" font-size="0.067087" fill="hsl(0.0,100%,20%)">michaelludwig</text>
<text x="0.913" y="0.568" font-size="0.030792" fill="hsl(0.0,100%,20%)">armansito</text>
<text x="0.898" y="0.717" font-size="0.032588" fill="hsl(0.0,100%,20%)">jamesgk</text>
<text x="0.659" y="0.602" font-size="0.056834" fill="hsl(0.0,100%,20%)">jvanverth</text>
<text x="0.554" y="0.218" font-size="0.039513" fill="hsl(0.0,100%,20%)">nicolettep</text>
<text x="0.290" y="0.645" font-size="0.055369" fill="hsl(0.0,100%,20%)">robertphillips</text>
<text x="1.875" y="0.894" font-size="0.014222" fill="hsl(0.0,100%,20%)">ccameron</text>
<text x="1.190" y="0.464" font-size="0.007951" fill="hsl(0.0,100%,20%)">blundell</text>
<text x="0.245" y="0.277" font-size="0.018475" fill="hsl(120.0,100%,20%)">borenet</text>
<text x="0.107" y="0.371" font-size="0.009737" fill="hsl(120.0,100%,20%)">rmistry</text>
<text x="0.380" y="0.073" font-size="0.025640" fill="hsl(120.0,100%,20%)">lovisolo</text>
<text x="1.450" y="0.810" font-size="0.024115" fill="hsl(0.0,100%,20%)">herb</text>
<text x="1.924" y="0.641" font-size="0.028445" fill="hsl(120.0,100%,20%)">fmalita</text>
<text x="1.843" y="0.438" font-size="0.005028" fill="hsl(0.0,100%,20%)">jreck</text>
<text x="1.903" y="0.768" font-size="0.014874" fill="hsl(120.0,100%,20%)">jmbetancourt</text>
<text x="1.416" y="0.523" font-size="0.018646" fill="hsl(120.0,100%,20%)">jlavrova</text>
<text x="0.829" y="0.291" font-size="0.013998" fill="hsl(0.0,100%,20%)">briansalomon</text>
<text x="1.319" y="0.663" font-size="0.023585" fill="hsl(120.0,100%,20%)">drott</text>
<text x="1.265" y="0.287" font-size="0.009065" fill="hsl(120.0,100%,20%)">jcgregorio</text>
<text x="1.177" y="0.686" font-size="0.011793" fill="hsl(240.0,100%,20%)">hcm</text>
<text x="0.340" y="0.132" font-size="0.009407" fill="hsl(120.0,100%,20%)">bwils</text>
<text x="1.705" y="0.752" font-size="0.007543" fill="hsl(0.0,100%,20%)">chengyangyang-hf</text>
<text x="1.216" y="0.510" font-size="0.005028" fill="hsl(120.0,100%,20%)">coldpalelight</text>
<text x="1.115" y="0.194" font-size="0.005028" fill="hsl(0.0,100%,20%)">cwallez</text>
<text x="0.993" y="0.052" font-size="0.002514" fill="hsl(0.0,100%,20%)">senorblanco</text>
<text x="1.162" y="0.333" font-size="0.006158" fill="hsl(0.0,100%,20%)">danieldilan</text>
<text x="0.461" y="0.756" font-size="0.006158" fill="hsl(120.0,100%,20%)">dcheng</text>
<text x="1.897" y="0.169" font-size="0.019956" fill="hsl(0.0,100%,20%)">nscobie</text>
<text x="1.108" y="0.701" font-size="0.013771" fill="hsl(240.0,100%,20%)">sharaks</text>
<text x="0.408" y="0.823" font-size="0.005028" fill="hsl(0.0,100%,20%)">geofflang</text>
<text x="1.304" y="0.372" font-size="0.007543" fill="hsl(0.0,100%,20%)">hitawala</text>
<text x="0.175" y="0.129" font-size="0.004355" fill="hsl(0.0,100%,20%)">jgaillard</text>
<text x="1.015" y="0.744" font-size="0.002514" fill="hsl(0.0,100%,20%)">djsollen</text>
<text x="1.356" y="0.689" font-size="0.005622" fill="hsl(0.0,100%,20%)">cmumford</text>
<text x="0.854" y="0.906" font-size="0.022062" fill="hsl(0.0,100%,20%)">nathanasanchez</text>
<text x="0.457" y="0.027" font-size="0.003556" fill="hsl(120.0,100%,20%)">tdenniston</text>
<text x="0.420" y="0.167" font-size="0.002514" fill="hsl(120.0,100%,20%)">mingkong</text>
<text x="0.294" y="0.051" font-size="0.002514" fill="hsl(120.0,100%,20%)">ashwinpv</text>
<text x="1.569" y="0.732" font-size="0.008709" fill="hsl(0.0,100%,20%)">kschmi</text>
<text x="0.973" y="0.753" font-size="0.006652" fill="hsl(0.0,100%,20%)">lokokung</text>
<text x="0.201" y="0.097" font-size="0.004355" fill="hsl(120.0,100%,20%)">luisgrimaldo</text>
<text x="1.644" y="0.905" font-size="0.010057" fill="hsl(0.0,100%,20%)">lukasza</text>
<text x="1.759" y="0.764" font-size="0.013304" fill="hsl(120.0,100%,20%)">mike</text>
<text x="1.513" y="0.330" font-size="0.005028" fill="hsl(0.0,100%,20%)">nigeltao</text>
<text x="0.199" y="0.860" font-size="0.012058" fill="hsl(0.0,100%,20%)">penghuang</text>
<text x="1.259" y="0.411" font-size="0.006652" fill="hsl(0.0,100%,20%)">petermcneeley</text>
<text x="1.710" y="0.912" font-size="0.008709" fill="hsl(0.0,100%,20%)">sky</text>
<text x="0.549" y="0.968" font-size="0.012571" fill="hsl(0.0,100%,20%)">sunnyps</text>
<text x="1.144" y="0.731" font-size="0.005028" fill="hsl(0.0,100%,20%)">tangm</text>
<text x="1.229" y="0.713" font-size="0.005622" fill="hsl(0.0,100%,20%)">zhusida</text>
</svg>
