<svg width="4000" height="2000" viewBox="-0.025 -0.025 2.05 1.05" xmlns="http://www.w3.org/2000/svg">
  <style>
    path {
      fill: none;
      stroke-linecap: round;
      stroke-opacity: 0.4;
    }

    text {
      text-anchor: middle;
      alignment-baseline: hanging;
    }
  </style>
  <g opacity="0.4">
<path d="M1.452 0.472 Q1.642 0.389 1.523 0.278" stroke="hsl(0.0,100%,35%)" stroke-width="0.01550"></path>
<path d="M1.452 0.472 Q1.552 0.334 1.304 0.255" stroke="hsl(0.0,100%,35%)" stroke-width="0.00310"></path>
<path d="M1.452 0.472 Q1.660 0.605 1.966 0.533" stroke="hsl(0.0,100%,35%)" stroke-width="0.00310"></path>
<path d="M1.304 0.255 Q1.412 0.526 1.966 0.533" stroke="hsl(0.0,100%,35%)" stroke-width="0.00930"></path>
<path d="M1.304 0.255 Q1.614 0.233 1.639 0.077" stroke="hsl(0.0,100%,35%)" stroke-width="0.00310"></path>
<path d="M1.304 0.255 Q1.395 0.310 1.523 0.278" stroke="hsl(0.0,100%,35%)" stroke-width="0.01550"></path>
<path d="M1.304 0.255 Q1.361 0.157 1.183 0.108" stroke="hsl(0.0,100%,35%)" stroke-width="0.01240"></path>
<path d="M1.304 0.255 Q1.106 0.204 0.964 0.290" stroke="hsl(0.0,100%,35%)" stroke-width="0.00930"></path>
<path d="M1.966 0.533 Q1.758 0.400 1.452 0.472" stroke="hsl(0.0,100%,35%)" stroke-width="0.00930"></path>
<path d="M1.966 0.533 Q2.167 0.240 1.639 0.077" stroke="hsl(0.0,100%,35%)" stroke-width="0.00310"></path>
<path d="M1.966 0.533 Q1.553 0.511 1.418 0.707" stroke="hsl(0.0,100%,35%)" stroke-width="0.00930"></path>
<path d="M1.966 0.533 Q1.293 0.603 1.281 0.947" stroke="hsl(0.0,100%,35%)" stroke-width="0.00310"></path>
<path d="M1.966 0.533 Q1.505 0.637 1.607 0.885" stroke="hsl(0.0,100%,35%)" stroke-width="0.00620"></path>
<path d="M1.966 0.533 Q1.914 0.164 1.183 0.108" stroke="hsl(0.0,100%,35%)" stroke-width="0.00310"></path>
<path d="M1.966 0.533 Q1.655 0.435 1.395 0.565" stroke="hsl(0.0,100%,35%)" stroke-width="0.00310"></path>
<path d="M1.639 0.077 Q1.330 0.099 1.304 0.255" stroke="hsl(0.0,100%,35%)" stroke-width="0.00620"></path>
<path d="M1.639 0.077 Q1.438 0.371 1.966 0.533" stroke="hsl(0.0,100%,35%)" stroke-width="0.00310"></path>
<path d="M0.964 0.290 Q0.681 0.217 0.476 0.338" stroke="hsl(0.0,100%,35%)" stroke-width="0.00310"></path>
<path d="M0.964 0.290 Q0.959 0.514 1.395 0.565" stroke="hsl(0.0,100%,35%)" stroke-width="0.00310"></path>
<path d="M0.964 0.290 Q0.809 0.716 1.607 0.885" stroke="hsl(0.0,100%,35%)" stroke-width="0.00310"></path>
<path d="M0.964 0.290 Q1.162 0.340 1.304 0.255" stroke="hsl(0.0,100%,35%)" stroke-width="0.00310"></path>
<path d="M0.964 0.290 Q0.857 0.590 1.418 0.707" stroke="hsl(0.0,100%,35%)" stroke-width="0.00310"></path>
<path d="M1.483 1.006 Q1.642 0.970 1.607 0.885" stroke="hsl(180.0,100%,35%)" stroke-width="0.02480"></path>
<path d="M1.483 1.006 Q1.430 0.936 1.281 0.947" stroke="hsl(180.0,100%,35%)" stroke-width="0.00620"></path>
<path d="M1.483 1.006 Q1.690 0.844 1.418 0.707" stroke="hsl(180.0,100%,35%)" stroke-width="0.00620"></path>
<path d="M1.607 0.885 Q1.448 0.921 1.483 1.006" stroke="hsl(180.0,100%,35%)" stroke-width="0.01550"></path>
<path d="M1.607 0.885 Q1.394 0.851 1.281 0.947" stroke="hsl(180.0,100%,35%)" stroke-width="0.01550"></path>
<path d="M1.607 0.885 Q1.757 0.683 1.395 0.565" stroke="hsl(180.0,100%,35%)" stroke-width="0.00310"></path>
<path d="M1.607 0.885 Q1.456 0.607 0.881 0.619" stroke="hsl(180.0,100%,35%)" stroke-width="0.00620"></path>
<path d="M1.607 0.885 Q1.655 0.758 1.418 0.707" stroke="hsl(180.0,100%,35%)" stroke-width="0.01240"></path>
<path d="M1.607 0.885 Q2.068 0.781 1.966 0.533" stroke="hsl(180.0,100%,35%)" stroke-width="0.00310"></path>
<path d="M1.281 0.947 Q1.493 0.981 1.607 0.885" stroke="hsl(180.0,100%,35%)" stroke-width="0.01240"></path>
<path d="M1.281 0.947 Q1.299 0.847 1.108 0.816" stroke="hsl(180.0,100%,35%)" stroke-width="0.03720"></path>
<path d="M1.281 0.947 Q1.541 0.855 1.418 0.707" stroke="hsl(180.0,100%,35%)" stroke-width="0.00620"></path>
<path d="M1.281 0.947 Q1.937 0.661 1.523 0.278" stroke="hsl(180.0,100%,35%)" stroke-width="0.00310"></path>
<path d="M1.418 0.707 Q1.525 0.408 0.964 0.290" stroke="hsl(180.0,100%,35%)" stroke-width="0.00310"></path>
<path d="M1.418 0.707 Q1.211 0.870 1.483 1.006" stroke="hsl(180.0,100%,35%)" stroke-width="0.00930"></path>
<path d="M1.418 0.707 Q1.371 0.834 1.607 0.885" stroke="hsl(180.0,100%,35%)" stroke-width="0.01240"></path>
<path d="M1.418 0.707 Q1.832 0.730 1.966 0.533" stroke="hsl(180.0,100%,35%)" stroke-width="0.00620"></path>
<path d="M1.418 0.707 Q1.220 0.556 0.881 0.619" stroke="hsl(180.0,100%,35%)" stroke-width="0.00310"></path>
<path d="M1.418 0.707 Q1.177 0.700 1.108 0.816" stroke="hsl(180.0,100%,35%)" stroke-width="0.00310"></path>
<path d="M1.730 0.544 Q1.749 0.314 1.304 0.255" stroke="hsl(0.0,100%,35%)" stroke-width="0.00310"></path>
<path d="M1.730 0.544 Q1.857 0.586 1.966 0.533" stroke="hsl(0.0,100%,35%)" stroke-width="0.00930"></path>
<path d="M1.730 0.544 Q1.396 0.690 1.607 0.885" stroke="hsl(0.0,100%,35%)" stroke-width="0.00620"></path>
<path d="M1.108 0.816 Q1.090 0.916 1.281 0.947" stroke="hsl(180.0,100%,35%)" stroke-width="0.02480"></path>
<path d="M1.108 0.816 Q1.152 0.672 0.881 0.619" stroke="hsl(180.0,100%,35%)" stroke-width="0.00310"></path>
<path d="M1.108 0.816 Q1.763 0.846 1.966 0.533" stroke="hsl(180.0,100%,35%)" stroke-width="0.00310"></path>
<path d="M1.108 0.816 Q1.302 0.950 1.607 0.885" stroke="hsl(180.0,100%,35%)" stroke-width="0.00930"></path>
<path d="M1.729 0.723 Q1.539 0.780 1.607 0.885" stroke="hsl(180.0,100%,35%)" stroke-width="0.02170"></path>
<path d="M1.729 0.723 Q1.586 0.653 1.418 0.707" stroke="hsl(180.0,100%,35%)" stroke-width="0.00620"></path>
<path d="M1.729 0.723 Q1.326 0.745 1.281 0.947" stroke="hsl(180.0,100%,35%)" stroke-width="0.00310"></path>
</g>
<text x="1.452" y="0.452" font-size="0.038778" fill="hsl(0.0,100%,20%)">borenet</text>
<text x="1.523" y="0.258" font-size="0.040671" fill="hsl(0.0,100%,20%)">fmalita</text>
<text x="1.304" y="0.227" font-size="0.056195" fill="hsl(0.0,100%,20%)">bungeman</text>
<text x="1.966" y="0.503" font-size="0.060075" fill="hsl(0.0,100%,20%)">kjlubick</text>
<text x="1.639" y="0.064" font-size="0.027420" fill="hsl(0.0,100%,20%)">drott</text>
<text x="1.183" y="0.095" font-size="0.027420" fill="hsl(0.0,100%,20%)">jlavrova</text>
<text x="0.964" y="0.271" font-size="0.036788" fill="hsl(0.0,100%,20%)">nscobie</text>
<text x="1.483" y="0.979" font-size="0.054841" fill="hsl(180.0,100%,20%)">jamesgk</text>
<text x="1.607" y="0.842" font-size="0.085840" fill="hsl(180.0,100%,20%)">michaelludwig</text>
<text x="1.281" y="0.910" font-size="0.073577" fill="hsl(180.0,100%,20%)">robertphillips</text>
<text x="1.418" y="0.676" font-size="0.062528" fill="hsl(180.0,100%,20%)">nicolettep</text>
<text x="1.730" y="0.529" font-size="0.030038" fill="hsl(0.0,100%,20%)">jmbetancourt</text>
<text x="1.108" y="0.784" font-size="0.062528" fill="hsl(180.0,100%,20%)">jvanverth</text>
<text x="0.881" y="0.607" font-size="0.024526" fill="hsl(180.0,100%,20%)">thomsmit</text>
<text x="1.395" y="0.555" font-size="0.021240" fill="hsl(0.0,100%,20%)">danieldilan</text>
<text x="0.476" y="0.332" font-size="0.012263" fill="hsl(0.0,100%,20%)">ccameron</text>
<text x="1.729" y="0.704" font-size="0.038778" fill="hsl(180.0,100%,20%)">syoussefi</text>
</svg>
