<svg width="4000" height="2000" viewBox="-0.025 -0.025 2.05 1.05" xmlns="http://www.w3.org/2000/svg">
  <style>
    path {
      fill: none;
      stroke-linecap: round;
      stroke-opacity: 0.4;
    }

    text {
      text-anchor: middle;
      alignment-baseline: hanging;
    }
  </style>
  <g opacity="0.4">
<path d="M0.245 0.584 Q0.458 0.370 0.088 0.219" stroke="hsl(0.0,100%,35%)" stroke-width="0.00759"></path>
<path d="M0.245 0.584 Q0.290 0.517 0.169 0.481" stroke="hsl(0.0,100%,35%)" stroke-width="0.01884"></path>
<path d="M0.245 0.584 Q0.628 0.413 0.378 0.188" stroke="hsl(0.0,100%,35%)" stroke-width="0.00044"></path>
<path d="M0.245 0.584 Q0.568 0.807 1.073 0.698" stroke="hsl(0.0,100%,35%)" stroke-width="0.00058"></path>
<path d="M0.245 0.584 Q0.481 0.751 0.856 0.672" stroke="hsl(0.0,100%,35%)" stroke-width="0.00058"></path>
<path d="M0.245 0.584 Q0.468 0.660 0.663 0.567" stroke="hsl(0.0,100%,35%)" stroke-width="0.00058"></path>
<path d="M0.245 0.584 Q0.900 0.455 0.790 0.107" stroke="hsl(0.0,100%,35%)" stroke-width="0.00088"></path>
<path d="M0.245 0.584 Q0.660 1.015 1.591 0.906" stroke="hsl(0.0,100%,35%)" stroke-width="0.00044"></path>
<path d="M0.245 0.584 Q1.018 0.718 1.448 0.370" stroke="hsl(0.0,100%,35%)" stroke-width="0.00015"></path>
<path d="M0.245 0.584 Q0.065 0.630 0.115 0.728" stroke="hsl(0.0,100%,35%)" stroke-width="0.00058"></path>
<path d="M0.245 0.584 Q0.659 0.623 0.825 0.429" stroke="hsl(0.0,100%,35%)" stroke-width="0.00029"></path>
<path d="M0.245 0.584 Q0.698 0.705 1.032 0.510" stroke="hsl(0.0,100%,35%)" stroke-width="0.00029"></path>
<path d="M0.245 0.584 Q0.583 0.336 0.172 0.116" stroke="hsl(0.0,100%,35%)" stroke-width="0.00044"></path>
<path d="M0.245 0.584 Q1.134 0.665 1.487 0.249" stroke="hsl(0.0,100%,35%)" stroke-width="0.00015"></path>
<path d="M0.245 0.584 Q0.528 0.456 0.339 0.290" stroke="hsl(0.0,100%,35%)" stroke-width="0.00015"></path>
<path d="M0.245 0.584 Q0.144 0.577 0.108 0.625" stroke="hsl(0.0,100%,35%)" stroke-width="0.00015"></path>
<path d="M0.088 0.219 Q0.647 0.567 1.448 0.370" stroke="hsl(0.0,100%,35%)" stroke-width="0.00394"></path>
<path d="M0.088 0.219 Q0.764 0.514 1.487 0.249" stroke="hsl(0.0,100%,35%)" stroke-width="0.00044"></path>
<path d="M0.088 0.219 Q0.849 0.576 1.714 0.283" stroke="hsl(0.0,100%,35%)" stroke-width="0.00044"></path>
<path d="M0.088 0.219 Q0.290 0.863 1.591 0.906" stroke="hsl(0.0,100%,35%)" stroke-width="0.00073"></path>
<path d="M0.088 0.219 Q-0.081 0.366 0.169 0.481" stroke="hsl(0.0,100%,35%)" stroke-width="0.01402"></path>
<path d="M0.088 0.219 Q0.212 0.185 0.172 0.116" stroke="hsl(0.0,100%,35%)" stroke-width="0.01256"></path>
<path d="M0.088 0.219 Q0.157 0.305 0.339 0.290" stroke="hsl(0.0,100%,35%)" stroke-width="0.00599"></path>
<path d="M0.088 0.219 Q0.529 0.304 0.790 0.107" stroke="hsl(0.0,100%,35%)" stroke-width="0.00497"></path>
<path d="M0.088 0.219 Q-0.126 0.433 0.245 0.584" stroke="hsl(0.0,100%,35%)" stroke-width="0.00190"></path>
<path d="M0.088 0.219 Q0.031 0.738 1.030 0.879" stroke="hsl(0.0,100%,35%)" stroke-width="0.00044"></path>
<path d="M0.088 0.219 Q0.683 0.715 1.780 0.533" stroke="hsl(0.0,100%,35%)" stroke-width="0.00029"></path>
<path d="M0.088 0.219 Q0.258 0.262 0.378 0.188" stroke="hsl(0.0,100%,35%)" stroke-width="0.00044"></path>
<path d="M0.088 0.219 Q-0.227 0.426 0.108 0.625" stroke="hsl(0.0,100%,35%)" stroke-width="0.00029"></path>
<path d="M0.088 0.219 Q0.097 0.508 0.663 0.567" stroke="hsl(0.0,100%,35%)" stroke-width="0.00131"></path>
<path d="M0.088 0.219 Q0.110 0.599 0.856 0.672" stroke="hsl(0.0,100%,35%)" stroke-width="0.00015"></path>
<path d="M0.088 0.219 Q0.288 0.472 0.825 0.429" stroke="hsl(0.0,100%,35%)" stroke-width="0.00015"></path>
<path d="M0.088 0.219 Q-0.306 0.479 0.115 0.728" stroke="hsl(0.0,100%,35%)" stroke-width="0.00058"></path>
<path d="M0.088 0.219 Q0.752 0.642 1.722 0.410" stroke="hsl(0.0,100%,35%)" stroke-width="0.00073"></path>
<path d="M0.169 0.481 Q0.337 0.334 0.088 0.219" stroke="hsl(0.0,100%,35%)" stroke-width="0.00716"></path>
<path d="M0.169 0.481 Q0.407 0.419 0.339 0.290" stroke="hsl(0.0,100%,35%)" stroke-width="0.00701"></path>
<path d="M0.169 0.481 Q0.462 0.299 0.172 0.116" stroke="hsl(0.0,100%,35%)" stroke-width="0.00424"></path>
<path d="M0.169 0.481 Q0.577 0.668 1.032 0.510" stroke="hsl(0.0,100%,35%)" stroke-width="0.00015"></path>
<path d="M0.169 0.481 Q0.539 0.978 1.591 0.906" stroke="hsl(0.0,100%,35%)" stroke-width="0.00058"></path>
<path d="M0.169 0.481 Q0.124 0.548 0.245 0.584" stroke="hsl(0.0,100%,35%)" stroke-width="0.01227"></path>
<path d="M0.169 0.481 Q-0.056 0.593 0.115 0.728" stroke="hsl(0.0,100%,35%)" stroke-width="0.00029"></path>
<path d="M0.169 0.481 Q0.897 0.681 1.448 0.370" stroke="hsl(0.0,100%,35%)" stroke-width="0.00029"></path>
<path d="M0.169 0.481 Q0.507 0.376 0.378 0.188" stroke="hsl(0.0,100%,35%)" stroke-width="0.00058"></path>
<path d="M0.169 0.481 Q0.360 0.714 0.856 0.672" stroke="hsl(0.0,100%,35%)" stroke-width="0.00058"></path>
<path d="M0.169 0.481 Q0.779 0.418 0.790 0.107" stroke="hsl(0.0,100%,35%)" stroke-width="0.00190"></path>
<path d="M0.169 0.481 Q0.515 0.719 1.057 0.602" stroke="hsl(0.0,100%,35%)" stroke-width="0.00015"></path>
<path d="M0.169 0.481 Q0.210 0.714 0.675 0.746" stroke="hsl(0.0,100%,35%)" stroke-width="0.00015"></path>
<path d="M0.169 0.481 Q0.672 0.620 1.054 0.405" stroke="hsl(0.0,100%,35%)" stroke-width="0.00015"></path>
<path d="M0.169 0.481 Q1.013 0.628 1.487 0.249" stroke="hsl(0.0,100%,35%)" stroke-width="0.00015"></path>
<path d="M0.378 0.188 Q0.208 0.146 0.088 0.219" stroke="hsl(0.0,100%,35%)" stroke-width="0.01519"></path>
<path d="M0.378 0.188 Q0.040 0.293 0.169 0.481" stroke="hsl(0.0,100%,35%)" stroke-width="0.00759"></path>
<path d="M0.378 0.188 Q0.278 0.231 0.339 0.290" stroke="hsl(0.0,100%,35%)" stroke-width="0.00774"></path>
<path d="M0.378 0.188 Q0.768 0.493 1.448 0.370" stroke="hsl(0.0,100%,35%)" stroke-width="0.00307"></path>
<path d="M0.378 0.188 Q-0.185 0.405 0.115 0.728" stroke="hsl(0.0,100%,35%)" stroke-width="0.00190"></path>
<path d="M0.378 0.188 Q-0.005 0.360 0.245 0.584" stroke="hsl(0.0,100%,35%)" stroke-width="0.00248"></path>
<path d="M0.378 0.188 Q0.884 0.440 1.487 0.249" stroke="hsl(0.0,100%,35%)" stroke-width="0.00234"></path>
<path d="M0.378 0.188 Q0.332 0.111 0.172 0.116" stroke="hsl(0.0,100%,35%)" stroke-width="0.00657"></path>
<path d="M0.378 0.188 Q0.410 0.790 1.591 0.906" stroke="hsl(0.0,100%,35%)" stroke-width="0.00131"></path>
<path d="M0.378 0.188 Q0.649 0.230 0.790 0.107" stroke="hsl(0.0,100%,35%)" stroke-width="0.00424"></path>
<path d="M0.378 0.188 Q0.542 0.645 1.470 0.666" stroke="hsl(0.0,100%,35%)" stroke-width="0.00190"></path>
<path d="M0.378 0.188 Q0.873 0.568 1.722 0.410" stroke="hsl(0.0,100%,35%)" stroke-width="0.00015"></path>
<path d="M0.378 0.188 Q0.409 0.398 0.825 0.429" stroke="hsl(0.0,100%,35%)" stroke-width="0.00058"></path>
<path d="M0.378 0.188 Q0.230 0.526 0.856 0.672" stroke="hsl(0.0,100%,35%)" stroke-width="0.00015"></path>
<path d="M0.378 0.188 Q0.217 0.435 0.663 0.567" stroke="hsl(0.0,100%,35%)" stroke-width="0.00029"></path>
<path d="M0.378 0.188 Q0.970 0.503 1.714 0.283" stroke="hsl(0.0,100%,35%)" stroke-width="0.00015"></path>
<path d="M1.073 0.698 Q0.985 0.642 0.856 0.672" stroke="hsl(120.0,100%,35%)" stroke-width="0.00278"></path>
<path d="M1.073 0.698 Q0.795 0.408 0.169 0.481" stroke="hsl(120.0,100%,35%)" stroke-width="0.00102"></path>
<path d="M1.073 0.698 Q0.934 0.707 0.922 0.778" stroke="hsl(120.0,100%,35%)" stroke-width="0.00117"></path>
<path d="M1.073 0.698 Q1.133 0.304 0.378 0.188" stroke="hsl(120.0,100%,35%)" stroke-width="0.00058"></path>
<path d="M1.073 0.698 Q0.570 0.521 0.115 0.728" stroke="hsl(120.0,100%,35%)" stroke-width="0.00044"></path>
<path d="M1.073 0.698 Q0.963 0.261 0.088 0.219" stroke="hsl(120.0,100%,35%)" stroke-width="0.00015"></path>
<path d="M1.073 0.698 Q1.558 0.757 1.780 0.533" stroke="hsl(120.0,100%,35%)" stroke-width="0.00015"></path>
<path d="M1.073 0.698 Q0.836 0.642 0.675 0.746" stroke="hsl(120.0,100%,35%)" stroke-width="0.00044"></path>
<path d="M0.856 0.672 Q0.834 0.292 0.088 0.219" stroke="hsl(120.0,100%,35%)" stroke-width="0.00029"></path>
<path d="M0.856 0.672 Q0.944 0.728 1.073 0.698" stroke="hsl(120.0,100%,35%)" stroke-width="0.00292"></path>
<path d="M0.856 0.672 Q0.958 0.257 0.172 0.116" stroke="hsl(120.0,100%,35%)" stroke-width="0.00015"></path>
<path d="M0.856 0.672 Q0.805 0.738 0.922 0.778" stroke="hsl(120.0,100%,35%)" stroke-width="0.00029"></path>
<path d="M0.856 0.672 Q0.441 0.552 0.115 0.728" stroke="hsl(120.0,100%,35%)" stroke-width="0.00058"></path>
<path d="M0.856 0.672 Q1.012 0.677 1.057 0.602" stroke="hsl(120.0,100%,35%)" stroke-width="0.00146"></path>
<path d="M0.856 0.672 Q0.843 0.581 0.663 0.567" stroke="hsl(120.0,100%,35%)" stroke-width="0.00015"></path>
<path d="M0.856 0.672 Q1.499 0.714 1.722 0.410" stroke="hsl(120.0,100%,35%)" stroke-width="0.00029"></path>
<path d="M0.663 0.567 Q1.213 0.626 1.448 0.370" stroke="hsl(120.0,100%,35%)" stroke-width="0.01227"></path>
<path d="M0.663 0.567 Q0.856 0.922 1.591 0.906" stroke="hsl(120.0,100%,35%)" stroke-width="0.00730"></path>
<path d="M0.663 0.567 Q0.654 0.278 0.088 0.219" stroke="hsl(120.0,100%,35%)" stroke-width="0.00131"></path>
<path d="M0.663 0.567 Q0.824 0.321 0.378 0.188" stroke="hsl(120.0,100%,35%)" stroke-width="0.00073"></path>
<path d="M0.663 0.567 Q0.676 0.658 0.856 0.672" stroke="hsl(120.0,100%,35%)" stroke-width="0.00336"></path>
<path d="M0.663 0.567 Q0.791 0.842 1.355 0.840" stroke="hsl(120.0,100%,35%)" stroke-width="0.00088"></path>
<path d="M0.663 0.567 Q0.832 0.664 1.057 0.602" stroke="hsl(120.0,100%,35%)" stroke-width="0.00029"></path>
<path d="M0.663 0.567 Q0.440 0.492 0.245 0.584" stroke="hsl(120.0,100%,35%)" stroke-width="0.00044"></path>
<path d="M0.663 0.567 Q1.095 0.363 0.790 0.107" stroke="hsl(120.0,100%,35%)" stroke-width="0.00044"></path>
<path d="M0.663 0.567 Q0.854 0.531 0.825 0.429" stroke="hsl(120.0,100%,35%)" stroke-width="0.01227"></path>
<path d="M0.663 0.567 Q1.330 0.573 1.487 0.249" stroke="hsl(120.0,100%,35%)" stroke-width="0.00175"></path>
<path d="M0.663 0.567 Q1.416 0.635 1.714 0.283" stroke="hsl(120.0,100%,35%)" stroke-width="0.00015"></path>
<path d="M0.663 0.567 Q0.723 0.364 0.339 0.290" stroke="hsl(120.0,100%,35%)" stroke-width="0.00058"></path>
<path d="M0.663 0.567 Q0.988 0.565 1.054 0.405" stroke="hsl(120.0,100%,35%)" stroke-width="0.00015"></path>
<path d="M0.663 0.567 Q1.319 0.701 1.722 0.410" stroke="hsl(120.0,100%,35%)" stroke-width="0.00044"></path>
<path d="M0.663 0.567 Q0.893 0.613 1.032 0.510" stroke="hsl(120.0,100%,35%)" stroke-width="0.00058"></path>
<path d="M0.663 0.567 Q0.778 0.244 0.172 0.116" stroke="hsl(120.0,100%,35%)" stroke-width="0.00029"></path>
<path d="M0.663 0.567 Q0.624 0.724 0.922 0.778" stroke="hsl(120.0,100%,35%)" stroke-width="0.00044"></path>
<path d="M0.663 0.567 Q0.581 0.668 0.760 0.730" stroke="hsl(120.0,100%,35%)" stroke-width="0.00015"></path>
<path d="M0.663 0.567 Q0.261 0.538 0.115 0.728" stroke="hsl(120.0,100%,35%)" stroke-width="0.00088"></path>
<path d="M0.790 0.107 Q0.349 0.023 0.088 0.219" stroke="hsl(0.0,100%,35%)" stroke-width="0.00365"></path>
<path d="M0.790 0.107 Q0.474 -0.012 0.172 0.116" stroke="hsl(0.0,100%,35%)" stroke-width="0.00657"></path>
<path d="M0.790 0.107 Q0.589 0.357 1.032 0.510" stroke="hsl(0.0,100%,35%)" stroke-width="0.00015"></path>
<path d="M0.790 0.107 Q0.909 0.370 1.448 0.370" stroke="hsl(0.0,100%,35%)" stroke-width="0.00351"></path>
<path d="M0.790 0.107 Q0.519 0.065 0.378 0.188" stroke="hsl(0.0,100%,35%)" stroke-width="0.00058"></path>
<path d="M0.790 0.107 Q0.136 0.237 0.245 0.584" stroke="hsl(0.0,100%,35%)" stroke-width="0.00131"></path>
<path d="M0.790 0.107 Q1.025 0.317 1.487 0.249" stroke="hsl(0.0,100%,35%)" stroke-width="0.00146"></path>
<path d="M0.790 0.107 Q0.419 0.108 0.339 0.290" stroke="hsl(0.0,100%,35%)" stroke-width="0.00044"></path>
<path d="M0.790 0.107 Q0.371 0.403 0.856 0.672" stroke="hsl(0.0,100%,35%)" stroke-width="0.00029"></path>
<path d="M0.790 0.107 Q0.551 0.667 1.591 0.906" stroke="hsl(0.0,100%,35%)" stroke-width="0.00015"></path>
<path d="M0.790 0.107 Q-0.044 0.282 0.115 0.728" stroke="hsl(0.0,100%,35%)" stroke-width="0.00015"></path>
<path d="M0.790 0.107 Q0.527 0.408 1.057 0.602" stroke="hsl(0.0,100%,35%)" stroke-width="0.00029"></path>
<path d="M0.790 0.107 Q1.014 0.445 1.722 0.410" stroke="hsl(0.0,100%,35%)" stroke-width="0.00015"></path>
<path d="M0.790 0.107 Q0.181 0.170 0.169 0.481" stroke="hsl(0.0,100%,35%)" stroke-width="0.00073"></path>
<path d="M0.790 0.107 Q-0.089 0.356 0.205 0.840" stroke="hsl(0.0,100%,35%)" stroke-width="0.00015"></path>
<path d="M0.790 0.107 Q0.459 0.459 1.073 0.698" stroke="hsl(0.0,100%,35%)" stroke-width="0.00029"></path>
<path d="M0.790 0.107 Q0.353 0.426 0.879 0.709" stroke="hsl(0.0,100%,35%)" stroke-width="0.00015"></path>
<path d="M0.790 0.107 Q0.550 0.275 0.825 0.429" stroke="hsl(0.0,100%,35%)" stroke-width="0.00029"></path>
<path d="M0.790 0.107 Q0.359 0.312 0.663 0.567" stroke="hsl(0.0,100%,35%)" stroke-width="0.00102"></path>
<path d="M0.790 0.107 Q1.111 0.380 1.714 0.283" stroke="hsl(0.0,100%,35%)" stroke-width="0.00015"></path>
<path d="M1.591 0.906 Q1.526 0.826 1.355 0.840" stroke="hsl(120.0,100%,35%)" stroke-width="0.00730"></path>
<path d="M1.591 0.906 Q1.948 0.610 1.448 0.370" stroke="hsl(120.0,100%,35%)" stroke-width="0.00146"></path>
<path d="M1.591 0.906 Q1.759 0.846 1.678 0.751" stroke="hsl(120.0,100%,35%)" stroke-width="0.00015"></path>
<path d="M1.591 0.906 Q0.951 0.596 0.205 0.840" stroke="hsl(120.0,100%,35%)" stroke-width="0.00088"></path>
<path d="M1.591 0.906 Q1.628 0.597 1.032 0.510" stroke="hsl(120.0,100%,35%)" stroke-width="0.00131"></path>
<path d="M1.591 0.906 Q2.065 0.557 1.487 0.249" stroke="hsl(120.0,100%,35%)" stroke-width="0.00029"></path>
<path d="M1.591 0.906 Q1.559 0.305 0.378 0.188" stroke="hsl(120.0,100%,35%)" stroke-width="0.00015"></path>
<path d="M1.591 0.906 Q0.996 0.522 0.115 0.728" stroke="hsl(120.0,100%,35%)" stroke-width="0.00234"></path>
<path d="M1.591 0.906 Q1.723 0.762 1.470 0.666" stroke="hsl(120.0,100%,35%)" stroke-width="0.00044"></path>
<path d="M1.591 0.906 Q1.589 0.515 0.825 0.429" stroke="hsl(120.0,100%,35%)" stroke-width="0.00058"></path>
<path d="M1.591 0.906 Q1.723 0.548 1.054 0.405" stroke="hsl(120.0,100%,35%)" stroke-width="0.00190"></path>
<path d="M1.591 0.906 Q1.984 0.758 1.780 0.533" stroke="hsl(120.0,100%,35%)" stroke-width="0.00044"></path>
<path d="M1.591 0.906 Q1.389 0.262 0.088 0.219" stroke="hsl(120.0,100%,35%)" stroke-width="0.00321"></path>
<path d="M1.591 0.906 Q1.458 0.348 0.339 0.290" stroke="hsl(120.0,100%,35%)" stroke-width="0.00102"></path>
<path d="M1.591 0.906 Q1.398 0.551 0.663 0.567" stroke="hsl(120.0,100%,35%)" stroke-width="0.00336"></path>
<path d="M1.591 0.906 Q2.053 0.685 1.722 0.410" stroke="hsl(120.0,100%,35%)" stroke-width="0.00044"></path>
<path d="M1.591 0.906 Q1.220 0.409 0.169 0.481" stroke="hsl(120.0,100%,35%)" stroke-width="0.00073"></path>
<path d="M1.591 0.906 Q1.074 0.469 0.108 0.625" stroke="hsl(120.0,100%,35%)" stroke-width="0.00015"></path>
<path d="M1.591 0.906 Q1.680 0.897 1.681 0.851" stroke="hsl(120.0,100%,35%)" stroke-width="0.00015"></path>
<path d="M1.448 0.370 Q1.565 0.317 1.487 0.249" stroke="hsl(240.0,100%,35%)" stroke-width="0.03841"></path>
<path d="M1.448 0.370 Q0.911 0.403 0.856 0.672" stroke="hsl(240.0,100%,35%)" stroke-width="0.00088"></path>
<path d="M1.448 0.370 Q0.889 0.023 0.088 0.219" stroke="hsl(240.0,100%,35%)" stroke-width="0.00993"></path>
<path d="M1.448 0.370 Q0.958 0.108 0.339 0.290" stroke="hsl(240.0,100%,35%)" stroke-width="0.00555"></path>
<path d="M1.448 0.370 Q1.651 0.380 1.714 0.283" stroke="hsl(240.0,100%,35%)" stroke-width="0.00570"></path>
<path d="M1.448 0.370 Q1.013 -0.012 0.172 0.116" stroke="hsl(240.0,100%,35%)" stroke-width="0.00058"></path>
<path d="M1.448 0.370 Q1.128 0.357 1.032 0.510" stroke="hsl(240.0,100%,35%)" stroke-width="0.00015"></path>
<path d="M1.448 0.370 Q1.059 0.065 0.378 0.188" stroke="hsl(240.0,100%,35%)" stroke-width="0.00058"></path>
<path d="M1.448 0.370 Q0.881 0.627 1.257 0.960" stroke="hsl(240.0,100%,35%)" stroke-width="0.00029"></path>
<path d="M1.448 0.370 Q0.495 0.282 0.115 0.728" stroke="hsl(240.0,100%,35%)" stroke-width="0.00263"></path>
<path d="M1.448 0.370 Q1.091 0.667 1.591 0.906" stroke="hsl(240.0,100%,35%)" stroke-width="0.00175"></path>
<path d="M1.448 0.370 Q0.898 0.312 0.663 0.567" stroke="hsl(240.0,100%,35%)" stroke-width="0.01052"></path>
<path d="M1.448 0.370 Q1.330 0.107 0.790 0.107" stroke="hsl(240.0,100%,35%)" stroke-width="0.00073"></path>
<path d="M1.448 0.370 Q1.089 0.275 0.825 0.429" stroke="hsl(240.0,100%,35%)" stroke-width="0.00058"></path>
<path d="M1.448 0.370 Q0.720 0.170 0.169 0.481" stroke="hsl(240.0,100%,35%)" stroke-width="0.00058"></path>
<path d="M1.448 0.370 Q1.026 0.586 1.355 0.840" stroke="hsl(240.0,100%,35%)" stroke-width="0.00058"></path>
<path d="M1.448 0.370 Q1.484 0.518 1.780 0.533" stroke="hsl(240.0,100%,35%)" stroke-width="0.00029"></path>
<path d="M1.448 0.370 Q1.553 0.445 1.722 0.410" stroke="hsl(240.0,100%,35%)" stroke-width="0.00029"></path>
<path d="M1.448 0.370 Q0.859 0.469 0.922 0.778" stroke="hsl(240.0,100%,35%)" stroke-width="0.00073"></path>
<path d="M1.448 0.370 Q0.761 0.403 0.675 0.746" stroke="hsl(240.0,100%,35%)" stroke-width="0.00015"></path>
<path d="M1.448 0.370 Q1.318 0.392 1.332 0.460" stroke="hsl(240.0,100%,35%)" stroke-width="0.00015"></path>
<path d="M0.115 0.728 Q0.478 0.914 0.922 0.778" stroke="hsl(120.0,100%,35%)" stroke-width="0.00088"></path>
<path d="M0.115 0.728 Q1.068 0.816 1.448 0.370" stroke="hsl(120.0,100%,35%)" stroke-width="0.00102"></path>
<path d="M0.115 0.728 Q0.645 1.032 1.355 0.840" stroke="hsl(120.0,100%,35%)" stroke-width="0.00044"></path>
<path d="M0.115 0.728 Q0.747 0.803 1.032 0.510" stroke="hsl(120.0,100%,35%)" stroke-width="0.00102"></path>
<path d="M0.115 0.728 Q0.710 1.112 1.591 0.906" stroke="hsl(120.0,100%,35%)" stroke-width="0.00204"></path>
<path d="M0.115 0.728 Q0.678 0.511 0.378 0.188" stroke="hsl(120.0,100%,35%)" stroke-width="0.00102"></path>
<path d="M0.115 0.728 Q0.500 1.072 1.257 0.960" stroke="hsl(120.0,100%,35%)" stroke-width="0.00029"></path>
<path d="M0.115 0.728 Q1.184 0.763 1.487 0.249" stroke="hsl(120.0,100%,35%)" stroke-width="0.00015"></path>
<path d="M0.115 0.728 Q0.200 0.781 0.323 0.752" stroke="hsl(120.0,100%,35%)" stroke-width="0.00146"></path>
<path d="M0.115 0.728 Q0.842 0.968 1.470 0.666" stroke="hsl(120.0,100%,35%)" stroke-width="0.00015"></path>
<path d="M0.115 0.728 Q0.194 0.675 0.108 0.625" stroke="hsl(120.0,100%,35%)" stroke-width="0.00628"></path>
<path d="M0.115 0.728 Q0.708 0.721 0.825 0.429" stroke="hsl(120.0,100%,35%)" stroke-width="0.00058"></path>
<path d="M0.115 0.728 Q0.618 0.905 1.073 0.698" stroke="hsl(120.0,100%,35%)" stroke-width="0.00088"></path>
<path d="M0.115 0.728 Q0.530 0.848 0.856 0.672" stroke="hsl(120.0,100%,35%)" stroke-width="0.00219"></path>
<path d="M0.115 0.728 Q1.103 0.964 1.780 0.533" stroke="hsl(120.0,100%,35%)" stroke-width="0.00015"></path>
<path d="M0.115 0.728 Q0.949 0.553 0.790 0.107" stroke="hsl(120.0,100%,35%)" stroke-width="0.00029"></path>
<path d="M0.115 0.728 Q0.842 0.754 1.054 0.405" stroke="hsl(120.0,100%,35%)" stroke-width="0.00044"></path>
<path d="M0.115 0.728 Q0.686 0.854 1.057 0.602" stroke="hsl(120.0,100%,35%)" stroke-width="0.00015"></path>
<path d="M0.115 0.728 Q1.173 0.891 1.722 0.410" stroke="hsl(120.0,100%,35%)" stroke-width="0.00044"></path>
<path d="M0.115 0.728 Q0.070 0.802 0.205 0.840" stroke="hsl(120.0,100%,35%)" stroke-width="0.00088"></path>
<path d="M0.115 0.728 Q0.381 0.849 0.675 0.746" stroke="hsl(120.0,100%,35%)" stroke-width="0.00015"></path>
<path d="M0.115 0.728 Q0.508 0.468 0.088 0.219" stroke="hsl(120.0,100%,35%)" stroke-width="0.00015"></path>
<path d="M0.115 0.728 Q0.517 0.757 0.663 0.567" stroke="hsl(120.0,100%,35%)" stroke-width="0.00058"></path>
<path d="M0.115 0.728 Q0.344 0.829 0.592 0.739" stroke="hsl(120.0,100%,35%)" stroke-width="0.00015"></path>
<path d="M0.115 0.728 Q0.452 0.987 1.030 0.879" stroke="hsl(120.0,100%,35%)" stroke-width="0.00015"></path>
<path d="M0.825 0.429 Q1.184 0.525 1.448 0.370" stroke="hsl(120.0,100%,35%)" stroke-width="0.00102"></path>
<path d="M0.825 0.429 Q1.300 0.472 1.487 0.249" stroke="hsl(120.0,100%,35%)" stroke-width="0.00015"></path>
<path d="M0.825 0.429 Q0.826 0.821 1.591 0.906" stroke="hsl(120.0,100%,35%)" stroke-width="0.00102"></path>
<path d="M0.825 0.429 Q0.794 0.220 0.378 0.188" stroke="hsl(120.0,100%,35%)" stroke-width="0.00102"></path>
<path d="M0.825 0.429 Q0.863 0.511 1.032 0.510" stroke="hsl(120.0,100%,35%)" stroke-width="0.00657"></path>
<path d="M0.825 0.429 Q0.655 0.364 0.489 0.432" stroke="hsl(120.0,100%,35%)" stroke-width="0.00015"></path>
<path d="M0.825 0.429 Q0.231 0.437 0.115 0.728" stroke="hsl(120.0,100%,35%)" stroke-width="0.00015"></path>
<path d="M0.825 0.429 Q0.624 0.177 0.088 0.219" stroke="hsl(120.0,100%,35%)" stroke-width="0.00117"></path>
<path d="M0.825 0.429 Q0.411 0.391 0.245 0.584" stroke="hsl(120.0,100%,35%)" stroke-width="0.00029"></path>
<path d="M0.825 0.429 Q0.456 0.324 0.169 0.481" stroke="hsl(120.0,100%,35%)" stroke-width="0.01315"></path>
<path d="M0.825 0.429 Q0.959 0.463 1.054 0.405" stroke="hsl(120.0,100%,35%)" stroke-width="0.00058"></path>
<path d="M0.825 0.429 Q0.693 0.262 0.339 0.290" stroke="hsl(120.0,100%,35%)" stroke-width="0.00219"></path>
<path d="M0.825 0.429 Q0.633 0.466 0.663 0.567" stroke="hsl(120.0,100%,35%)" stroke-width="0.00263"></path>
<path d="M0.825 0.429 Q1.065 0.261 0.790 0.107" stroke="hsl(120.0,100%,35%)" stroke-width="0.00029"></path>
<path d="M0.825 0.429 Q0.497 0.558 0.675 0.746" stroke="hsl(120.0,100%,35%)" stroke-width="0.00015"></path>
<path d="M0.825 0.429 Q0.595 0.623 0.922 0.778" stroke="hsl(120.0,100%,35%)" stroke-width="0.00015"></path>
<path d="M1.032 0.510 Q1.104 0.424 0.951 0.370" stroke="hsl(120.0,100%,35%)" stroke-width="0.00073"></path>
<path d="M1.032 0.510 Q0.995 0.820 1.591 0.906" stroke="hsl(120.0,100%,35%)" stroke-width="0.00204"></path>
<path d="M1.032 0.510 Q0.917 0.141 0.172 0.116" stroke="hsl(120.0,100%,35%)" stroke-width="0.00029"></path>
<path d="M1.032 0.510 Q1.352 0.524 1.448 0.370" stroke="hsl(120.0,100%,35%)" stroke-width="0.00073"></path>
<path d="M1.032 0.510 Q0.930 0.740 1.355 0.840" stroke="hsl(120.0,100%,35%)" stroke-width="0.00073"></path>
<path d="M1.032 0.510 Q0.399 0.436 0.115 0.728" stroke="hsl(120.0,100%,35%)" stroke-width="0.00088"></path>
<path d="M1.032 0.510 Q0.993 0.428 0.825 0.429" stroke="hsl(120.0,100%,35%)" stroke-width="0.00570"></path>
<path d="M1.032 0.510 Q0.802 0.465 0.663 0.567" stroke="hsl(120.0,100%,35%)" stroke-width="0.00438"></path>
<path d="M1.032 0.510 Q1.469 0.471 1.487 0.249" stroke="hsl(120.0,100%,35%)" stroke-width="0.00015"></path>
<path d="M1.032 0.510 Q1.457 0.598 1.722 0.410" stroke="hsl(120.0,100%,35%)" stroke-width="0.00044"></path>
<path d="M1.032 0.510 Q1.127 0.462 1.054 0.405" stroke="hsl(120.0,100%,35%)" stroke-width="0.00088"></path>
<path d="M1.032 0.510 Q1.234 0.260 0.790 0.107" stroke="hsl(120.0,100%,35%)" stroke-width="0.00029"></path>
<path d="M1.032 0.510 Q0.903 0.612 1.073 0.698" stroke="hsl(120.0,100%,35%)" stroke-width="0.00015"></path>
<path d="M1.032 0.510 Q1.219 0.382 1.010 0.263" stroke="hsl(120.0,100%,35%)" stroke-width="0.00015"></path>
<path d="M1.032 0.510 Q0.793 0.176 0.088 0.219" stroke="hsl(120.0,100%,35%)" stroke-width="0.00015"></path>
<path d="M0.172 0.116 Q0.489 0.236 0.790 0.107" stroke="hsl(0.0,100%,35%)" stroke-width="0.00774"></path>
<path d="M0.172 0.116 Q0.217 0.194 0.378 0.188" stroke="hsl(0.0,100%,35%)" stroke-width="0.00161"></path>
<path d="M0.172 0.116 Q0.047 0.151 0.088 0.219" stroke="hsl(0.0,100%,35%)" stroke-width="0.00979"></path>
<path d="M0.172 0.116 Q-0.121 0.298 0.169 0.481" stroke="hsl(0.0,100%,35%)" stroke-width="0.00409"></path>
<path d="M0.172 0.116 Q0.117 0.237 0.339 0.290" stroke="hsl(0.0,100%,35%)" stroke-width="0.00029"></path>
<path d="M0.172 0.116 Q0.712 0.573 1.722 0.410" stroke="hsl(0.0,100%,35%)" stroke-width="0.00015"></path>
<path d="M0.172 0.116 Q0.607 0.499 1.448 0.370" stroke="hsl(0.0,100%,35%)" stroke-width="0.00161"></path>
<path d="M0.172 0.116 Q-0.346 0.411 0.115 0.728" stroke="hsl(0.0,100%,35%)" stroke-width="0.00015"></path>
<path d="M0.172 0.116 Q-0.166 0.365 0.245 0.584" stroke="hsl(0.0,100%,35%)" stroke-width="0.00044"></path>
<path d="M0.172 0.116 Q0.723 0.446 1.487 0.249" stroke="hsl(0.0,100%,35%)" stroke-width="0.00044"></path>
<path d="M0.172 0.116 Q0.057 0.440 0.663 0.567" stroke="hsl(0.0,100%,35%)" stroke-width="0.00015"></path>
<path d="M0.172 0.116 Q0.643 0.647 1.780 0.533" stroke="hsl(0.0,100%,35%)" stroke-width="0.00015"></path>
<path d="M0.172 0.116 Q0.335 0.136 0.409 0.060" stroke="hsl(0.0,100%,35%)" stroke-width="0.00015"></path>
<path d="M0.172 0.116 Q-0.016 0.447 0.588 0.611" stroke="hsl(0.0,100%,35%)" stroke-width="0.00015"></path>
<path d="M0.172 0.116 Q0.809 0.508 1.714 0.283" stroke="hsl(0.0,100%,35%)" stroke-width="0.00015"></path>
<path d="M0.172 0.116 Q0.248 0.404 0.825 0.429" stroke="hsl(0.0,100%,35%)" stroke-width="0.00015"></path>
<path d="M0.172 0.116 Q0.184 0.715 1.355 0.840" stroke="hsl(0.0,100%,35%)" stroke-width="0.00015"></path>
<path d="M0.172 0.116 Q0.312 0.285 0.671 0.253" stroke="hsl(0.0,100%,35%)" stroke-width="0.00029"></path>
<path d="M0.172 0.116 Q0.358 0.153 0.471 0.070" stroke="hsl(0.0,100%,35%)" stroke-width="0.00015"></path>
<path d="M1.487 0.249 Q1.370 0.302 1.448 0.370" stroke="hsl(240.0,100%,35%)" stroke-width="0.10735"></path>
<path d="M1.487 0.249 Q1.013 0.598 1.591 0.906" stroke="hsl(240.0,100%,35%)" stroke-width="0.00117"></path>
<path d="M1.487 0.249 Q1.252 0.039 0.790 0.107" stroke="hsl(240.0,100%,35%)" stroke-width="0.00073"></path>
<path d="M1.487 0.249 Q0.880 0.040 0.339 0.290" stroke="hsl(240.0,100%,35%)" stroke-width="0.00278"></path>
<path d="M1.487 0.249 Q1.573 0.311 1.714 0.283" stroke="hsl(240.0,100%,35%)" stroke-width="0.03958"></path>
<path d="M1.487 0.249 Q0.935 -0.081 0.172 0.116" stroke="hsl(240.0,100%,35%)" stroke-width="0.00175"></path>
<path d="M1.487 0.249 Q0.642 0.101 0.169 0.481" stroke="hsl(240.0,100%,35%)" stroke-width="0.00044"></path>
<path d="M1.487 0.249 Q0.811 -0.046 0.088 0.219" stroke="hsl(240.0,100%,35%)" stroke-width="0.00686"></path>
<path d="M1.487 0.249 Q1.145 0.240 1.054 0.405" stroke="hsl(240.0,100%,35%)" stroke-width="0.00029"></path>
<path d="M1.487 0.249 Q0.820 0.243 0.663 0.567" stroke="hsl(240.0,100%,35%)" stroke-width="0.00789"></path>
<path d="M1.487 0.249 Q0.981 -0.003 0.378 0.188" stroke="hsl(240.0,100%,35%)" stroke-width="0.00058"></path>
<path d="M1.487 0.249 Q1.406 0.450 1.780 0.533" stroke="hsl(240.0,100%,35%)" stroke-width="0.00015"></path>
<path d="M1.487 0.249 Q0.597 0.168 0.245 0.584" stroke="hsl(240.0,100%,35%)" stroke-width="0.00044"></path>
<path d="M1.487 0.249 Q1.011 0.207 0.825 0.429" stroke="hsl(240.0,100%,35%)" stroke-width="0.00015"></path>
<path d="M1.487 0.249 Q1.050 0.289 1.032 0.510" stroke="hsl(240.0,100%,35%)" stroke-width="0.00088"></path>
<path d="M1.487 0.249 Q0.948 0.518 1.355 0.840" stroke="hsl(240.0,100%,35%)" stroke-width="0.00029"></path>
<path d="M0.339 0.290 Q0.101 0.351 0.169 0.481" stroke="hsl(0.0,100%,35%)" stroke-width="0.00584"></path>
<path d="M0.339 0.290 Q0.394 0.170 0.172 0.116" stroke="hsl(0.0,100%,35%)" stroke-width="0.00058"></path>
<path d="M0.339 0.290 Q0.270 0.204 0.088 0.219" stroke="hsl(0.0,100%,35%)" stroke-width="0.00511"></path>
<path d="M0.339 0.290 Q0.829 0.552 1.448 0.370" stroke="hsl(0.0,100%,35%)" stroke-width="0.00073"></path>
<path d="M0.339 0.290 Q0.471 0.848 1.591 0.906" stroke="hsl(0.0,100%,35%)" stroke-width="0.00482"></path>
<path d="M0.339 0.290 Q0.440 0.247 0.378 0.188" stroke="hsl(0.0,100%,35%)" stroke-width="0.00190"></path>
<path d="M0.339 0.290 Q0.470 0.457 0.825 0.429" stroke="hsl(0.0,100%,35%)" stroke-width="0.00088"></path>
<path d="M0.339 0.290 Q0.406 0.768 1.355 0.840" stroke="hsl(0.0,100%,35%)" stroke-width="0.00131"></path>
<path d="M0.339 0.290 Q0.253 0.293 0.240 0.335" stroke="hsl(0.0,100%,35%)" stroke-width="0.00015"></path>
<path d="M0.339 0.290 Q0.604 0.704 1.470 0.666" stroke="hsl(0.0,100%,35%)" stroke-width="0.00015"></path>
<path d="M0.339 0.290 Q0.279 0.493 0.663 0.567" stroke="hsl(0.0,100%,35%)" stroke-width="0.00146"></path>
<path d="M0.339 0.290 Q0.865 0.700 1.780 0.533" stroke="hsl(0.0,100%,35%)" stroke-width="0.00058"></path>
<path d="M0.339 0.290 Q0.946 0.499 1.487 0.249" stroke="hsl(0.0,100%,35%)" stroke-width="0.00044"></path>
<path d="M0.339 0.290 Q0.711 0.289 0.790 0.107" stroke="hsl(0.0,100%,35%)" stroke-width="0.00073"></path>
<path d="M0.339 0.290 Q-0.124 0.464 0.115 0.728" stroke="hsl(0.0,100%,35%)" stroke-width="0.00029"></path>
<path d="M0.339 0.290 Q0.934 0.627 1.722 0.410" stroke="hsl(0.0,100%,35%)" stroke-width="0.00015"></path>
<path d="M0.108 0.625 Q0.422 0.418 0.088 0.219" stroke="hsl(120.0,100%,35%)" stroke-width="0.00044"></path>
<path d="M0.108 0.625 Q1.087 0.840 1.722 0.410" stroke="hsl(120.0,100%,35%)" stroke-width="0.00044"></path>
<path d="M0.108 0.625 Q0.029 0.678 0.115 0.728" stroke="hsl(120.0,100%,35%)" stroke-width="0.00467"></path>
<path d="M0.108 0.625 Q0.431 0.707 0.663 0.567" stroke="hsl(120.0,100%,35%)" stroke-width="0.00044"></path>
<path d="M0.108 0.625 Q0.592 0.461 0.378 0.188" stroke="hsl(120.0,100%,35%)" stroke-width="0.00029"></path>
<path d="M0.108 0.625 Q0.393 0.864 0.922 0.778" stroke="hsl(120.0,100%,35%)" stroke-width="0.00015"></path>
<path d="M0.108 0.625 Q0.262 0.702 0.447 0.644" stroke="hsl(120.0,100%,35%)" stroke-width="0.00015"></path>
<path d="M0.108 0.625 Q1.017 0.914 1.780 0.533" stroke="hsl(120.0,100%,35%)" stroke-width="0.00029"></path>
<path d="M0.108 0.625 Q0.114 0.731 0.323 0.752" stroke="hsl(120.0,100%,35%)" stroke-width="0.00044"></path>
<path d="M0.108 0.625 Q0.559 0.982 1.355 0.840" stroke="hsl(120.0,100%,35%)" stroke-width="0.00015"></path>
<path d="M0.108 0.625 Q0.756 0.704 1.054 0.405" stroke="hsl(120.0,100%,35%)" stroke-width="0.00015"></path>
<path d="M0.108 0.625 Q0.162 0.698 0.318 0.688" stroke="hsl(120.0,100%,35%)" stroke-width="0.00015"></path>
<path d="M0.108 0.625 Q0.444 0.798 0.856 0.672" stroke="hsl(120.0,100%,35%)" stroke-width="0.00015"></path>
<path d="M0.922 0.778 Q0.952 0.332 0.088 0.219" stroke="hsl(120.0,100%,35%)" stroke-width="0.00029"></path>
<path d="M0.922 0.778 Q1.191 0.666 1.032 0.510" stroke="hsl(120.0,100%,35%)" stroke-width="0.00015"></path>
<path d="M0.922 0.778 Q0.961 0.621 0.663 0.567" stroke="hsl(120.0,100%,35%)" stroke-width="0.00029"></path>
<path d="M0.922 0.778 Q0.738 0.546 0.245 0.584" stroke="hsl(120.0,100%,35%)" stroke-width="0.00015"></path>
<path d="M0.922 0.778 Q1.062 0.768 1.073 0.698" stroke="hsl(120.0,100%,35%)" stroke-width="0.00029"></path>
<path d="M0.922 0.778 Q1.122 0.374 0.378 0.188" stroke="hsl(120.0,100%,35%)" stroke-width="0.00015"></path>
<path d="M0.922 0.778 Q0.974 0.712 0.856 0.672" stroke="hsl(120.0,100%,35%)" stroke-width="0.00161"></path>
<path d="M0.922 0.778 Q0.824 0.712 0.675 0.746" stroke="hsl(120.0,100%,35%)" stroke-width="0.00044"></path>
<path d="M0.922 0.778 Q1.628 0.626 1.487 0.249" stroke="hsl(120.0,100%,35%)" stroke-width="0.00015"></path>
<path d="M0.922 0.778 Q0.558 0.591 0.115 0.728" stroke="hsl(120.0,100%,35%)" stroke-width="0.00044"></path>
<path d="M0.922 0.778 Q1.088 0.895 1.355 0.840" stroke="hsl(120.0,100%,35%)" stroke-width="0.00029"></path>
<path d="M1.057 0.602 Q0.485 0.477 0.115 0.728" stroke="hsl(120.0,100%,35%)" stroke-width="0.00073"></path>
<path d="M1.057 0.602 Q0.901 0.597 0.856 0.672" stroke="hsl(120.0,100%,35%)" stroke-width="0.00146"></path>
<path d="M1.057 0.602 Q0.571 0.530 0.323 0.752" stroke="hsl(120.0,100%,35%)" stroke-width="0.00015"></path>
<path d="M1.057 0.602 Q0.888 0.506 0.663 0.567" stroke="hsl(120.0,100%,35%)" stroke-width="0.00015"></path>
<path d="M1.057 0.602 Q0.710 0.364 0.169 0.481" stroke="hsl(120.0,100%,35%)" stroke-width="0.00015"></path>
<path d="M1.057 0.602 Q0.849 0.663 0.922 0.778" stroke="hsl(120.0,100%,35%)" stroke-width="0.00073"></path>
<path d="M1.057 0.602 Q1.213 0.717 1.470 0.666" stroke="hsl(120.0,100%,35%)" stroke-width="0.00015"></path>
<path d="M1.057 0.602 Q1.003 0.182 0.172 0.116" stroke="hsl(120.0,100%,35%)" stroke-width="0.00015"></path>
<path d="M1.722 0.410 Q1.562 0.424 1.553 0.505" stroke="hsl(120.0,100%,35%)" stroke-width="0.00044"></path>
<path d="M1.722 0.410 Q0.664 0.248 0.115 0.728" stroke="hsl(120.0,100%,35%)" stroke-width="0.00044"></path>
<path d="M1.722 0.410 Q1.653 0.483 1.780 0.533" stroke="hsl(120.0,100%,35%)" stroke-width="0.00278"></path>
<path d="M1.722 0.410 Q1.028 0.434 0.922 0.778" stroke="hsl(120.0,100%,35%)" stroke-width="0.00015"></path>
<path d="M1.722 0.410 Q1.617 0.335 1.448 0.370" stroke="hsl(120.0,100%,35%)" stroke-width="0.00029"></path>
<path d="M1.722 0.410 Q1.260 0.632 1.591 0.906" stroke="hsl(120.0,100%,35%)" stroke-width="0.00015"></path>
<path d="M1.722 0.410 Q1.080 0.368 0.856 0.672" stroke="hsl(120.0,100%,35%)" stroke-width="0.00029"></path>
<path d="M1.722 0.410 Q1.067 0.277 0.663 0.567" stroke="hsl(120.0,100%,35%)" stroke-width="0.00190"></path>
<path d="M1.722 0.410 Q1.182 -0.047 0.172 0.116" stroke="hsl(120.0,100%,35%)" stroke-width="0.00015"></path>
<path d="M1.722 0.410 Q1.001 0.506 1.030 0.879" stroke="hsl(120.0,100%,35%)" stroke-width="0.00015"></path>
<path d="M1.714 0.283 Q1.628 0.221 1.487 0.249" stroke="hsl(240.0,100%,35%)" stroke-width="0.02191"></path>
<path d="M1.714 0.283 Q1.511 0.274 1.448 0.370" stroke="hsl(240.0,100%,35%)" stroke-width="0.00935"></path>
<path d="M1.714 0.283 Q0.961 0.215 0.663 0.567" stroke="hsl(240.0,100%,35%)" stroke-width="0.00015"></path>
<path d="M1.714 0.283 Q1.393 0.011 0.790 0.107" stroke="hsl(240.0,100%,35%)" stroke-width="0.00015"></path>
<path d="M1.714 0.283 Q0.895 0.445 1.030 0.879" stroke="hsl(240.0,100%,35%)" stroke-width="0.00015"></path>
<path d="M1.257 0.960 Q1.401 0.919 1.355 0.840" stroke="hsl(120.0,100%,35%)" stroke-width="0.00570"></path>
<path d="M1.257 0.960 Q1.466 1.000 1.591 0.906" stroke="hsl(120.0,100%,35%)" stroke-width="0.00029"></path>
<path d="M1.257 0.960 Q1.208 0.874 1.030 0.879" stroke="hsl(120.0,100%,35%)" stroke-width="0.00131"></path>
<path d="M1.257 0.960 Q0.871 0.615 0.115 0.728" stroke="hsl(120.0,100%,35%)" stroke-width="0.00015"></path>
<path d="M1.257 0.960 Q1.111 0.918 0.998 0.980" stroke="hsl(120.0,100%,35%)" stroke-width="0.00029"></path>
<path d="M1.257 0.960 Q1.860 0.851 1.780 0.533" stroke="hsl(120.0,100%,35%)" stroke-width="0.00073"></path>
<path d="M1.257 0.960 Q2.026 0.713 1.714 0.283" stroke="hsl(120.0,100%,35%)" stroke-width="0.00015"></path>
<path d="M1.257 0.960 Q1.137 0.736 0.675 0.746" stroke="hsl(120.0,100%,35%)" stroke-width="0.00015"></path>
<path d="M1.355 0.840 Q0.825 0.536 0.115 0.728" stroke="hsl(120.0,100%,35%)" stroke-width="0.00102"></path>
<path d="M1.355 0.840 Q1.420 0.920 1.591 0.906" stroke="hsl(120.0,100%,35%)" stroke-width="0.00351"></path>
<path d="M1.355 0.840 Q1.457 0.611 1.032 0.510" stroke="hsl(120.0,100%,35%)" stroke-width="0.00190"></path>
<path d="M1.355 0.840 Q1.210 0.880 1.257 0.960" stroke="hsl(120.0,100%,35%)" stroke-width="0.00394"></path>
<path d="M1.355 0.840 Q1.813 0.772 1.780 0.533" stroke="hsl(120.0,100%,35%)" stroke-width="0.00088"></path>
<path d="M1.355 0.840 Q1.552 0.776 1.470 0.666" stroke="hsl(120.0,100%,35%)" stroke-width="0.00613"></path>
<path d="M1.355 0.840 Q1.777 0.624 1.448 0.370" stroke="hsl(120.0,100%,35%)" stroke-width="0.00117"></path>
<path d="M1.355 0.840 Q1.227 0.565 0.663 0.567" stroke="hsl(120.0,100%,35%)" stroke-width="0.00088"></path>
<path d="M1.355 0.840 Q1.188 0.722 0.922 0.778" stroke="hsl(120.0,100%,35%)" stroke-width="0.00015"></path>
<path d="M1.355 0.840 Q1.004 0.490 0.245 0.584" stroke="hsl(120.0,100%,35%)" stroke-width="0.00015"></path>
<path d="M1.355 0.840 Q1.418 0.529 0.825 0.429" stroke="hsl(120.0,100%,35%)" stroke-width="0.00015"></path>
<path d="M1.355 0.840 Q0.904 0.483 0.108 0.625" stroke="hsl(120.0,100%,35%)" stroke-width="0.00015"></path>
<path d="M1.355 0.840 Q1.287 0.362 0.339 0.290" stroke="hsl(120.0,100%,35%)" stroke-width="0.00015"></path>
<path d="M1.780 0.533 Q1.185 0.038 0.088 0.219" stroke="hsl(120.0,100%,35%)" stroke-width="0.00015"></path>
<path d="M1.780 0.533 Q1.309 0.003 0.172 0.116" stroke="hsl(120.0,100%,35%)" stroke-width="0.00029"></path>
<path d="M1.780 0.533 Q1.745 0.385 1.448 0.370" stroke="hsl(120.0,100%,35%)" stroke-width="0.00015"></path>
<path d="M1.780 0.533 Q1.194 0.327 0.663 0.567" stroke="hsl(120.0,100%,35%)" stroke-width="0.00015"></path>
<path d="M1.780 0.533 Q1.850 0.460 1.722 0.410" stroke="hsl(120.0,100%,35%)" stroke-width="0.00015"></path>
<path d="M1.780 0.533 Q1.519 0.537 1.470 0.666" stroke="hsl(120.0,100%,35%)" stroke-width="0.00015"></path>
<path d="M1.054 0.405 Q0.921 0.763 1.591 0.906" stroke="hsl(120.0,100%,35%)" stroke-width="0.00102"></path>
<path d="M1.054 0.405 Q0.959 0.454 1.032 0.510" stroke="hsl(120.0,100%,35%)" stroke-width="0.00759"></path>
<path d="M1.054 0.405 Q0.920 0.372 0.825 0.429" stroke="hsl(120.0,100%,35%)" stroke-width="0.00015"></path>
<path d="M1.054 0.405 Q1.206 0.273 0.982 0.170" stroke="hsl(120.0,100%,35%)" stroke-width="0.00015"></path>
<path d="M1.054 0.405 Q0.326 0.379 0.115 0.728" stroke="hsl(120.0,100%,35%)" stroke-width="0.00015"></path>
<path d="M1.054 0.405 Q1.384 0.541 1.722 0.410" stroke="hsl(120.0,100%,35%)" stroke-width="0.00015"></path>
<path d="M1.054 0.405 Q0.551 0.266 0.169 0.481" stroke="hsl(120.0,100%,35%)" stroke-width="0.00015"></path>
<path d="M1.470 0.666 Q1.338 0.810 1.591 0.906" stroke="hsl(120.0,100%,35%)" stroke-width="0.00058"></path>
<path d="M1.470 0.666 Q1.273 0.730 1.355 0.840" stroke="hsl(120.0,100%,35%)" stroke-width="0.00876"></path>
<path d="M1.470 0.666 Q1.306 0.209 0.378 0.188" stroke="hsl(120.0,100%,35%)" stroke-width="0.00102"></path>
<path d="M1.470 0.666 Q0.743 0.426 0.115 0.728" stroke="hsl(120.0,100%,35%)" stroke-width="0.00044"></path>
<path d="M1.470 0.666 Q1.145 0.455 0.663 0.567" stroke="hsl(120.0,100%,35%)" stroke-width="0.00015"></path>
<path d="M1.470 0.666 Q1.246 0.602 1.073 0.698" stroke="hsl(120.0,100%,35%)" stroke-width="0.00015"></path>
<path d="M0.801 0.264 Q0.745 0.233 0.671 0.253" stroke="hsl(120.0,100%,35%)" stroke-width="0.00015"></path>
<path d="M0.801 0.264 Q0.503 0.479 0.856 0.672" stroke="hsl(120.0,100%,35%)" stroke-width="0.00058"></path>
<path d="M0.801 0.264 Q1.040 0.447 1.448 0.370" stroke="hsl(120.0,100%,35%)" stroke-width="0.00015"></path>
<path d="M0.801 0.264 Q0.481 0.099 0.088 0.219" stroke="hsl(120.0,100%,35%)" stroke-width="0.00044"></path>
<path d="M0.801 0.264 Q0.490 0.388 0.663 0.567" stroke="hsl(120.0,100%,35%)" stroke-width="0.00015"></path>
<path d="M0.671 0.253 Q0.530 0.085 0.172 0.116" stroke="hsl(0.0,100%,35%)" stroke-width="0.00146"></path>
<path d="M0.671 0.253 Q0.727 0.285 0.801 0.264" stroke="hsl(0.0,100%,35%)" stroke-width="0.00058"></path>
<path d="M0.671 0.253 Q0.415 0.409 0.663 0.567" stroke="hsl(0.0,100%,35%)" stroke-width="0.00029"></path>
<path d="M0.671 0.253 Q0.847 0.204 0.790 0.107" stroke="hsl(0.0,100%,35%)" stroke-width="0.00015"></path>
<path d="M0.671 0.253 Q0.342 0.416 0.588 0.611" stroke="hsl(0.0,100%,35%)" stroke-width="0.00015"></path>
<path d="M0.742 0.967 Q1.213 0.715 0.825 0.429" stroke="hsl(120.0,100%,35%)" stroke-width="0.00015"></path>
<path d="M0.742 0.967 Q0.679 0.944 0.620 0.970" stroke="hsl(120.0,100%,35%)" stroke-width="0.00015"></path>
<path d="M0.742 0.967 Q1.022 0.751 0.663 0.567" stroke="hsl(120.0,100%,35%)" stroke-width="0.00015"></path>
<path d="M0.318 0.688 Q0.184 0.667 0.115 0.728" stroke="hsl(120.0,100%,35%)" stroke-width="0.00088"></path>
<path d="M0.318 0.688 Q0.587 0.697 0.663 0.567" stroke="hsl(120.0,100%,35%)" stroke-width="0.00044"></path>
<path d="M0.318 0.688 Q0.263 0.614 0.108 0.625" stroke="hsl(120.0,100%,35%)" stroke-width="0.00029"></path>
<path d="M0.592 0.739 Q0.362 0.638 0.115 0.728" stroke="hsl(120.0,100%,35%)" stroke-width="0.00044"></path>
<path d="M0.592 0.739 Q0.317 0.712 0.205 0.840" stroke="hsl(120.0,100%,35%)" stroke-width="0.00015"></path>
<path d="M0.592 0.739 Q1.315 0.726 1.448 0.370" stroke="hsl(120.0,100%,35%)" stroke-width="0.00015"></path>
<path d="M1.207 0.158 Q0.608 0.254 0.663 0.567" stroke="hsl(120.0,100%,35%)" stroke-width="0.00015"></path>
<path d="M1.207 0.158 Q0.838 0.299 1.032 0.510" stroke="hsl(120.0,100%,35%)" stroke-width="0.00029"></path>
<path d="M1.207 0.158 Q1.271 0.114 1.199 0.073" stroke="hsl(120.0,100%,35%)" stroke-width="0.00015"></path>
<path d="M0.667 0.856 Q1.482 0.917 1.780 0.533" stroke="hsl(120.0,100%,35%)" stroke-width="0.00015"></path>
<path d="M0.667 0.856 Q0.759 0.802 0.675 0.746" stroke="hsl(120.0,100%,35%)" stroke-width="0.00015"></path>
<path d="M0.667 0.856 Q0.558 0.802 0.430 0.844" stroke="hsl(120.0,100%,35%)" stroke-width="0.00015"></path>
<path d="M1.904 0.689 Q1.967 0.587 1.780 0.533" stroke="hsl(120.0,100%,35%)" stroke-width="0.00044"></path>
<path d="M1.904 0.689 Q2.037 0.513 1.722 0.410" stroke="hsl(120.0,100%,35%)" stroke-width="0.00044"></path>
<path d="M1.904 0.689 Q1.851 0.628 1.720 0.641" stroke="hsl(120.0,100%,35%)" stroke-width="0.00015"></path>
<path d="M0.401 0.680 Q0.814 1.031 1.591 0.906" stroke="hsl(120.0,100%,35%)" stroke-width="0.00015"></path>
<path d="M0.401 0.680 Q0.219 0.647 0.115 0.728" stroke="hsl(120.0,100%,35%)" stroke-width="0.00044"></path>
<path d="M0.401 0.680 Q0.444 0.534 0.169 0.481" stroke="hsl(120.0,100%,35%)" stroke-width="0.00015"></path>
<path d="M0.401 0.680 Q1.172 0.734 1.448 0.370" stroke="hsl(120.0,100%,35%)" stroke-width="0.00015"></path>
</g>
<text x="0.245" y="0.566" font-size="0.036795" fill="hsl(0.0,100%,20%)">adlai</text>
<text x="0.088" y="0.191" font-size="0.056453" fill="hsl(0.0,100%,20%)">bsalomon</text>
<text x="0.169" y="0.455" font-size="0.051816" fill="hsl(0.0,100%,20%)">robertphillips</text>
<text x="0.378" y="0.167" font-size="0.041871" fill="hsl(0.0,100%,20%)">csmartdalton</text>
<text x="1.073" y="0.689" font-size="0.017659" fill="hsl(120.0,100%,20%)">rmistry</text>
<text x="0.856" y="0.660" font-size="0.023483" fill="hsl(120.0,100%,20%)">borenet</text>
<text x="0.663" y="0.544" font-size="0.046844" fill="hsl(120.0,100%,20%)">mtklein</text>
<text x="0.790" y="0.090" font-size="0.034225" fill="hsl(0.0,100%,20%)">jvanverth</text>
<text x="1.591" y="0.887" font-size="0.038015" fill="hsl(120.0,100%,20%)">reed</text>
<text x="1.448" y="0.332" font-size="0.077320" fill="hsl(240.0,100%,20%)">brianosman</text>
<text x="0.115" y="0.711" font-size="0.033664" fill="hsl(120.0,100%,20%)">kjlubick</text>
<text x="0.825" y="0.411" font-size="0.037257" fill="hsl(120.0,100%,20%)">herb</text>
<text x="1.032" y="0.495" font-size="0.031746" fill="hsl(120.0,100%,20%)">bungeman</text>
<text x="0.172" y="0.096" font-size="0.040813" fill="hsl(0.0,100%,20%)">egdaniel</text>
<text x="1.487" y="0.209" font-size="0.078998" fill="hsl(240.0,100%,20%)">johnstiles</text>
<text x="0.339" y="0.270" font-size="0.039197" fill="hsl(0.0,100%,20%)">michaelludwig</text>
<text x="0.108" y="0.615" font-size="0.019887" fill="hsl(120.0,100%,20%)">nifong</text>
<text x="0.922" y="0.770" font-size="0.015355" fill="hsl(120.0,100%,20%)">jcgregorio</text>
<text x="1.057" y="0.596" font-size="0.012487" fill="hsl(120.0,100%,20%)">westont</text>
<text x="1.722" y="0.402" font-size="0.017333" fill="hsl(120.0,100%,20%)">scroggo</text>
<text x="1.714" y="0.261" font-size="0.045107" fill="hsl(240.0,100%,20%)">ethannicholas</text>
<text x="1.257" y="0.950" font-size="0.018603" fill="hsl(120.0,100%,20%)">jmbetancourt</text>
<text x="1.355" y="0.823" font-size="0.034885" fill="hsl(120.0,100%,20%)">fmalita</text>
<text x="1.780" y="0.526" font-size="0.014852" fill="hsl(120.0,100%,20%)">djsollen</text>
<text x="0.675" y="0.742" font-size="0.006755" fill="hsl(120.0,100%,20%)">hcm</text>
<text x="1.332" y="0.459" font-size="0.001950" fill="hsl(240.0,100%,20%)">dalecurtis</text>
<text x="1.030" y="0.875" font-size="0.007553" fill="hsl(120.0,100%,20%)">stani</text>
<text x="0.951" y="0.368" font-size="0.004361" fill="hsl(120.0,100%,20%)">drott</text>
<text x="1.054" y="0.396" font-size="0.019008" fill="hsl(120.0,100%,20%)">jlavrova</text>
<text x="1.010" y="0.262" font-size="0.001950" fill="hsl(120.0,100%,20%)">xster</text>
<text x="1.470" y="0.654" font-size="0.022909" fill="hsl(120.0,100%,20%)">tdenniston</text>
<text x="0.801" y="0.261" font-size="0.007297" fill="hsl(120.0,100%,20%)">cwallez</text>
<text x="0.671" y="0.249" font-size="0.008937" fill="hsl(0.0,100%,20%)">senorblanco</text>
<text x="0.742" y="0.965" font-size="0.003378" fill="hsl(120.0,100%,20%)">dragonbear</text>
<text x="0.620" y="0.969" font-size="0.001950" fill="hsl(120.0,100%,20%)">guruji</text>
<text x="0.409" y="0.059" font-size="0.001950" fill="hsl(0.0,100%,20%)">sugoi</text>
<text x="0.588" y="0.610" font-size="0.002758" fill="hsl(0.0,100%,20%)">enga</text>
<text x="0.471" y="0.069" font-size="0.001950" fill="hsl(0.0,100%,20%)">emircan</text>
<text x="0.318" y="0.684" font-size="0.006755" fill="hsl(120.0,100%,20%)">elliotevans</text>
<text x="0.489" y="0.431" font-size="0.001950" fill="hsl(120.0,100%,20%)">jiulongw</text>
<text x="0.592" y="0.736" font-size="0.004777" fill="hsl(120.0,100%,20%)">het</text>
<text x="0.205" y="0.836" font-size="0.007297" fill="hsl(120.0,100%,20%)">yjbanov</text>
<text x="1.207" y="0.156" font-size="0.003900" fill="hsl(120.0,100%,20%)">james</text>
<text x="1.199" y="0.072" font-size="0.001950" fill="hsl(120.0,100%,20%)">cbracken</text>
<text x="0.982" y="0.169" font-size="0.001950" fill="hsl(120.0,100%,20%)">jsimmons</text>
<text x="0.998" y="0.979" font-size="0.002758" fill="hsl(120.0,100%,20%)">fuego</text>
<text x="0.879" y="0.708" font-size="0.001950" fill="hsl(0.0,100%,20%)">chinmaygarde</text>
<text x="0.323" y="0.748" font-size="0.007297" fill="hsl(120.0,100%,20%)">lovisolo</text>
<text x="0.240" y="0.334" font-size="0.001950" fill="hsl(0.0,100%,20%)">fs</text>
<text x="0.760" y="0.729" font-size="0.001950" fill="hsl(120.0,100%,20%)">pefoley</text>
<text x="0.447" y="0.643" font-size="0.001950" fill="hsl(120.0,100%,20%)">alecmouri</text>
<text x="0.667" y="0.854" font-size="0.003378" fill="hsl(120.0,100%,20%)">nikolay.igotti</text>
<text x="0.430" y="0.843" font-size="0.001950" fill="hsl(120.0,100%,20%)">jsproch</text>
<text x="1.678" y="0.750" font-size="0.001950" fill="hsl(120.0,100%,20%)">mdebbar</text>
<text x="1.681" y="0.850" font-size="0.001950" fill="hsl(120.0,100%,20%)">thiabaud</text>
<text x="1.553" y="0.503" font-size="0.003378" fill="hsl(120.0,100%,20%)">nigeltao</text>
<text x="1.904" y="0.687" font-size="0.005160" fill="hsl(120.0,100%,20%)">vigneshv</text>
<text x="1.720" y="0.640" font-size="0.001950" fill="hsl(120.0,100%,20%)">chz</text>
<text x="0.401" y="0.677" font-size="0.004777" fill="hsl(120.0,100%,20%)">zepenghu</text>
</svg>
