<svg width="4000" height="2000" viewBox="-0.025 -0.025 2.05 1.05" xmlns="http://www.w3.org/2000/svg">
  <style>
    path {
      fill: none;
      stroke-linecap: round;
      stroke-opacity: 0.4;
    }

    text {
      text-anchor: middle;
      alignment-baseline: hanging;
    }
  </style>
  <g opacity="0.4">
<path d="M1.175 0.547 Q0.568 0.663 0.661 0.984" stroke="hsl(0.0,100%,35%)" stroke-width="0.00026"></path>
<path d="M1.175 0.547 Q0.860 0.361 0.427 0.473" stroke="hsl(0.0,100%,35%)" stroke-width="0.00026"></path>
<path d="M1.175 0.547 Q0.813 0.420 0.486 0.568" stroke="hsl(0.0,100%,35%)" stroke-width="0.00053"></path>
<path d="M1.175 0.547 Q1.389 0.612 1.563 0.521" stroke="hsl(0.0,100%,35%)" stroke-width="0.00079"></path>
<path d="M1.175 0.547 Q0.969 0.606 1.040 0.719" stroke="hsl(0.0,100%,35%)" stroke-width="0.00026"></path>
<path d="M1.175 0.547 Q1.249 0.651 1.467 0.637" stroke="hsl(0.0,100%,35%)" stroke-width="0.00026"></path>
<path d="M1.175 0.547 Q1.484 0.540 1.539 0.388" stroke="hsl(0.0,100%,35%)" stroke-width="0.00053"></path>
<path d="M1.175 0.547 Q0.535 0.374 0.059 0.649" stroke="hsl(0.0,100%,35%)" stroke-width="0.00026"></path>
<path d="M0.661 0.984 Q0.598 0.923 0.464 0.941" stroke="hsl(180.0,100%,35%)" stroke-width="0.00847"></path>
<path d="M0.661 0.984 Q1.460 0.780 1.237 0.346" stroke="hsl(180.0,100%,35%)" stroke-width="0.00317"></path>
<path d="M0.661 0.984 Q1.591 0.737 1.312 0.229" stroke="hsl(180.0,100%,35%)" stroke-width="0.00159"></path>
<path d="M0.661 0.984 Q1.342 0.972 1.467 0.637" stroke="hsl(180.0,100%,35%)" stroke-width="0.00132"></path>
<path d="M0.661 0.984 Q1.482 0.933 1.563 0.521" stroke="hsl(180.0,100%,35%)" stroke-width="0.00053"></path>
<path d="M0.661 0.984 Q1.577 0.862 1.539 0.388" stroke="hsl(180.0,100%,35%)" stroke-width="0.00476"></path>
<path d="M0.661 0.984 Q1.748 0.809 1.644 0.240" stroke="hsl(180.0,100%,35%)" stroke-width="0.00053"></path>
<path d="M0.661 0.984 Q1.169 0.869 1.056 0.596" stroke="hsl(180.0,100%,35%)" stroke-width="0.00079"></path>
<path d="M0.661 0.984 Q0.953 0.682 0.427 0.473" stroke="hsl(180.0,100%,35%)" stroke-width="0.00053"></path>
<path d="M0.661 0.984 Q0.907 0.741 0.486 0.568" stroke="hsl(180.0,100%,35%)" stroke-width="0.00053"></path>
<path d="M0.661 0.984 Q1.637 0.776 1.445 0.255" stroke="hsl(180.0,100%,35%)" stroke-width="0.00053"></path>
<path d="M0.661 0.984 Q1.063 0.928 1.040 0.719" stroke="hsl(180.0,100%,35%)" stroke-width="0.00026"></path>
<path d="M0.661 0.984 Q1.609 0.570 1.009 0.017" stroke="hsl(180.0,100%,35%)" stroke-width="0.00026"></path>
<path d="M0.427 0.473 Q0.103 0.487 0.059 0.649" stroke="hsl(0.0,100%,35%)" stroke-width="0.00794"></path>
<path d="M0.427 0.473 Q0.934 0.572 1.237 0.346" stroke="hsl(0.0,100%,35%)" stroke-width="0.00529"></path>
<path d="M0.427 0.473 Q0.069 0.551 0.141 0.743" stroke="hsl(0.0,100%,35%)" stroke-width="0.00159"></path>
<path d="M0.427 0.473 Q0.381 0.532 0.486 0.568" stroke="hsl(0.0,100%,35%)" stroke-width="0.02354"></path>
<path d="M0.427 0.473 Q0.957 0.725 1.563 0.521" stroke="hsl(0.0,100%,35%)" stroke-width="0.01111"></path>
<path d="M0.427 0.473 Q0.849 0.476 0.946 0.271" stroke="hsl(0.0,100%,35%)" stroke-width="0.00053"></path>
<path d="M0.427 0.473 Q0.599 0.489 0.668 0.409" stroke="hsl(0.0,100%,35%)" stroke-width="0.00397"></path>
<path d="M0.427 0.473 Q0.816 0.763 1.467 0.637" stroke="hsl(0.0,100%,35%)" stroke-width="0.00556"></path>
<path d="M0.427 0.473 Q0.072 0.714 0.464 0.941" stroke="hsl(0.0,100%,35%)" stroke-width="0.01270"></path>
<path d="M0.427 0.473 Q1.222 0.600 1.644 0.240" stroke="hsl(0.0,100%,35%)" stroke-width="0.00026"></path>
<path d="M0.427 0.473 Q0.513 0.595 0.770 0.581" stroke="hsl(0.0,100%,35%)" stroke-width="0.00265"></path>
<path d="M0.427 0.473 Q1.065 0.528 1.312 0.229" stroke="hsl(0.0,100%,35%)" stroke-width="0.00476"></path>
<path d="M0.427 0.473 Q1.051 0.653 1.539 0.388" stroke="hsl(0.0,100%,35%)" stroke-width="0.00503"></path>
<path d="M0.427 0.473 Q0.135 0.776 0.661 0.984" stroke="hsl(0.0,100%,35%)" stroke-width="0.00820"></path>
<path d="M0.427 0.473 Q0.846 0.406 0.806 0.187" stroke="hsl(0.0,100%,35%)" stroke-width="0.00291"></path>
<path d="M0.427 0.473 Q0.842 0.634 1.246 0.467" stroke="hsl(0.0,100%,35%)" stroke-width="0.00079"></path>
<path d="M0.427 0.473 Q0.643 0.660 1.056 0.596" stroke="hsl(0.0,100%,35%)" stroke-width="0.00317"></path>
<path d="M0.427 0.473 Q0.537 0.719 1.040 0.719" stroke="hsl(0.0,100%,35%)" stroke-width="0.00079"></path>
<path d="M0.427 0.473 Q0.392 0.757 0.939 0.837" stroke="hsl(0.0,100%,35%)" stroke-width="0.00026"></path>
<path d="M0.427 0.473 Q0.135 0.553 0.226 0.712" stroke="hsl(0.0,100%,35%)" stroke-width="0.00106"></path>
<path d="M0.427 0.473 Q0.548 0.407 0.446 0.334" stroke="hsl(0.0,100%,35%)" stroke-width="0.00026"></path>
<path d="M0.427 0.473 Q1.111 0.568 1.445 0.255" stroke="hsl(0.0,100%,35%)" stroke-width="0.00026"></path>
<path d="M0.427 0.473 Q1.214 0.538 1.514 0.169" stroke="hsl(0.0,100%,35%)" stroke-width="0.00026"></path>
<path d="M0.427 0.473 Q0.371 0.374 0.164 0.380" stroke="hsl(0.0,100%,35%)" stroke-width="0.00026"></path>
<path d="M0.427 0.473 Q0.500 0.270 0.119 0.190" stroke="hsl(0.0,100%,35%)" stroke-width="0.00026"></path>
<path d="M0.427 0.473 Q0.936 0.838 1.760 0.670" stroke="hsl(0.0,100%,35%)" stroke-width="0.00026"></path>
<path d="M0.486 0.568 Q0.349 0.561 0.306 0.627" stroke="hsl(0.0,100%,35%)" stroke-width="0.00344"></path>
<path d="M0.486 0.568 Q0.947 0.669 1.246 0.467" stroke="hsl(0.0,100%,35%)" stroke-width="0.00132"></path>
<path d="M0.486 0.568 Q0.921 0.799 1.467 0.637" stroke="hsl(0.0,100%,35%)" stroke-width="0.00238"></path>
<path d="M0.486 0.568 Q0.532 0.509 0.427 0.473" stroke="hsl(0.0,100%,35%)" stroke-width="0.00794"></path>
<path d="M0.486 0.568 Q1.062 0.760 1.563 0.521" stroke="hsl(0.0,100%,35%)" stroke-width="0.02407"></path>
<path d="M0.486 0.568 Q0.618 0.631 0.770 0.581" stroke="hsl(0.0,100%,35%)" stroke-width="0.00265"></path>
<path d="M0.486 0.568 Q0.177 0.750 0.464 0.941" stroke="hsl(0.0,100%,35%)" stroke-width="0.00053"></path>
<path d="M0.486 0.568 Q0.208 0.523 0.059 0.649" stroke="hsl(0.0,100%,35%)" stroke-width="0.00423"></path>
<path d="M0.486 0.568 Q1.039 0.607 1.237 0.346" stroke="hsl(0.0,100%,35%)" stroke-width="0.00053"></path>
<path d="M0.486 0.568 Q0.241 0.811 0.661 0.984" stroke="hsl(0.0,100%,35%)" stroke-width="0.00026"></path>
<path d="M0.486 0.568 Q1.188 0.397 1.009 0.017" stroke="hsl(0.0,100%,35%)" stroke-width="0.00026"></path>
<path d="M0.486 0.568 Q0.642 0.755 1.040 0.719" stroke="hsl(0.0,100%,35%)" stroke-width="0.00026"></path>
<path d="M0.486 0.568 Q0.951 0.441 0.806 0.187" stroke="hsl(0.0,100%,35%)" stroke-width="0.00185"></path>
<path d="M0.486 0.568 Q1.170 0.564 1.312 0.229" stroke="hsl(0.0,100%,35%)" stroke-width="0.00132"></path>
<path d="M0.486 0.568 Q1.156 0.689 1.539 0.388" stroke="hsl(0.0,100%,35%)" stroke-width="0.00106"></path>
<path d="M0.486 0.568 Q0.497 0.793 0.939 0.837" stroke="hsl(0.0,100%,35%)" stroke-width="0.00026"></path>
<path d="M0.486 0.568 Q0.453 0.660 0.626 0.697" stroke="hsl(0.0,100%,35%)" stroke-width="0.00026"></path>
<path d="M0.486 0.568 Q0.174 0.587 0.141 0.743" stroke="hsl(0.0,100%,35%)" stroke-width="0.00026"></path>
<path d="M0.486 0.568 Q0.832 0.979 1.711 0.901" stroke="hsl(0.0,100%,35%)" stroke-width="0.00026"></path>
<path d="M1.563 0.521 Q1.671 0.325 1.312 0.229" stroke="hsl(0.0,100%,35%)" stroke-width="0.00317"></path>
<path d="M1.563 0.521 Q1.448 0.430 1.246 0.467" stroke="hsl(0.0,100%,35%)" stroke-width="0.00132"></path>
<path d="M1.563 0.521 Q1.422 0.560 1.467 0.637" stroke="hsl(0.0,100%,35%)" stroke-width="0.01085"></path>
<path d="M1.563 0.521 Q1.034 0.270 0.427 0.473" stroke="hsl(0.0,100%,35%)" stroke-width="0.00212"></path>
<path d="M1.563 0.521 Q1.658 0.450 1.539 0.388" stroke="hsl(0.0,100%,35%)" stroke-width="0.00556"></path>
<path d="M1.563 0.521 Q1.540 0.368 1.237 0.346" stroke="hsl(0.0,100%,35%)" stroke-width="0.00265"></path>
<path d="M1.563 0.521 Q0.987 0.329 0.486 0.568" stroke="hsl(0.0,100%,35%)" stroke-width="0.00873"></path>
<path d="M1.563 0.521 Q1.452 0.203 0.806 0.187" stroke="hsl(0.0,100%,35%)" stroke-width="0.00053"></path>
<path d="M1.563 0.521 Q1.205 0.286 0.668 0.409" stroke="hsl(0.0,100%,35%)" stroke-width="0.00026"></path>
<path d="M1.563 0.521 Q0.709 0.284 0.059 0.649" stroke="hsl(0.0,100%,35%)" stroke-width="0.00185"></path>
<path d="M1.563 0.521 Q1.455 0.273 0.946 0.271" stroke="hsl(0.0,100%,35%)" stroke-width="0.00026"></path>
<path d="M1.563 0.521 Q0.742 0.572 0.661 0.984" stroke="hsl(0.0,100%,35%)" stroke-width="0.00212"></path>
<path d="M1.563 0.521 Q1.829 0.397 1.644 0.240" stroke="hsl(0.0,100%,35%)" stroke-width="0.00026"></path>
<path d="M1.563 0.521 Q0.675 0.348 0.141 0.743" stroke="hsl(0.0,100%,35%)" stroke-width="0.00026"></path>
<path d="M1.563 0.521 Q1.119 0.392 0.770 0.581" stroke="hsl(0.0,100%,35%)" stroke-width="0.00026"></path>
<path d="M1.563 0.521 Q1.334 0.741 1.711 0.901" stroke="hsl(0.0,100%,35%)" stroke-width="0.00026"></path>
<path d="M1.040 0.719 Q1.147 0.661 1.056 0.596" stroke="hsl(180.0,100%,35%)" stroke-width="0.00185"></path>
<path d="M1.040 0.719 Q0.639 0.776 0.661 0.984" stroke="hsl(180.0,100%,35%)" stroke-width="0.00053"></path>
<path d="M1.040 0.719 Q1.460 0.725 1.563 0.521" stroke="hsl(180.0,100%,35%)" stroke-width="0.00079"></path>
<path d="M1.040 0.719 Q1.587 0.362 1.009 0.017" stroke="hsl(180.0,100%,35%)" stroke-width="0.00026"></path>
<path d="M1.040 0.719 Q0.884 0.533 0.486 0.568" stroke="hsl(180.0,100%,35%)" stroke-width="0.00053"></path>
<path d="M1.040 0.719 Q1.319 0.764 1.467 0.637" stroke="hsl(180.0,100%,35%)" stroke-width="0.00026"></path>
<path d="M1.040 0.719 Q1.555 0.654 1.539 0.388" stroke="hsl(180.0,100%,35%)" stroke-width="0.00026"></path>
<path d="M1.040 0.719 Q1.437 0.572 1.237 0.346" stroke="hsl(180.0,100%,35%)" stroke-width="0.00026"></path>
<path d="M1.040 0.719 Q1.569 0.529 1.312 0.229" stroke="hsl(180.0,100%,35%)" stroke-width="0.00026"></path>
<path d="M1.040 0.719 Q0.572 0.551 0.141 0.743" stroke="hsl(180.0,100%,35%)" stroke-width="0.00026"></path>
<path d="M1.040 0.719 Q0.851 0.625 0.626 0.697" stroke="hsl(180.0,100%,35%)" stroke-width="0.00026"></path>
<path d="M1.467 0.637 Q0.787 0.650 0.661 0.984" stroke="hsl(180.0,100%,35%)" stroke-width="0.00317"></path>
<path d="M1.467 0.637 Q1.608 0.599 1.563 0.521" stroke="hsl(180.0,100%,35%)" stroke-width="0.03677"></path>
<path d="M1.467 0.637 Q1.717 0.402 1.312 0.229" stroke="hsl(180.0,100%,35%)" stroke-width="0.00635"></path>
<path d="M1.467 0.637 Q1.079 0.347 0.427 0.473" stroke="hsl(180.0,100%,35%)" stroke-width="0.00873"></path>
<path d="M1.467 0.637 Q1.493 0.508 1.246 0.467" stroke="hsl(180.0,100%,35%)" stroke-width="0.00212"></path>
<path d="M1.467 0.637 Q1.703 0.527 1.539 0.388" stroke="hsl(180.0,100%,35%)" stroke-width="0.00979"></path>
<path d="M1.467 0.637 Q1.585 0.446 1.237 0.346" stroke="hsl(180.0,100%,35%)" stroke-width="0.00238"></path>
<path d="M1.467 0.637 Q1.762 0.442 1.445 0.255" stroke="hsl(180.0,100%,35%)" stroke-width="0.00106"></path>
<path d="M1.467 0.637 Q1.032 0.406 0.486 0.568" stroke="hsl(180.0,100%,35%)" stroke-width="0.00185"></path>
<path d="M1.467 0.637 Q0.754 0.361 0.059 0.649" stroke="hsl(180.0,100%,35%)" stroke-width="0.00159"></path>
<path d="M1.467 0.637 Q1.874 0.474 1.644 0.240" stroke="hsl(180.0,100%,35%)" stroke-width="0.00238"></path>
<path d="M1.467 0.637 Q0.723 0.588 0.464 0.941" stroke="hsl(180.0,100%,35%)" stroke-width="0.00397"></path>
<path d="M1.467 0.637 Q0.720 0.425 0.141 0.743" stroke="hsl(180.0,100%,35%)" stroke-width="0.00053"></path>
<path d="M1.467 0.637 Q1.295 0.534 1.056 0.596" stroke="hsl(180.0,100%,35%)" stroke-width="0.00106"></path>
<path d="M1.467 0.637 Q1.500 0.350 0.946 0.271" stroke="hsl(180.0,100%,35%)" stroke-width="0.00026"></path>
<path d="M1.467 0.637 Q1.188 0.593 1.040 0.719" stroke="hsl(180.0,100%,35%)" stroke-width="0.00053"></path>
<path d="M1.467 0.637 Q1.250 0.363 0.668 0.409" stroke="hsl(180.0,100%,35%)" stroke-width="0.00026"></path>
<path d="M1.467 0.637 Q1.497 0.280 0.806 0.187" stroke="hsl(180.0,100%,35%)" stroke-width="0.00026"></path>
<path d="M1.467 0.637 Q1.866 0.412 1.514 0.169" stroke="hsl(180.0,100%,35%)" stroke-width="0.00450"></path>
<path d="M1.539 0.388 Q1.553 0.263 1.312 0.229" stroke="hsl(180.0,100%,35%)" stroke-width="0.02698"></path>
<path d="M1.539 0.388 Q1.422 0.307 1.237 0.346" stroke="hsl(180.0,100%,35%)" stroke-width="0.01323"></path>
<path d="M1.539 0.388 Q0.915 0.208 0.427 0.473" stroke="hsl(180.0,100%,35%)" stroke-width="0.00106"></path>
<path d="M1.539 0.388 Q1.710 0.335 1.644 0.240" stroke="hsl(180.0,100%,35%)" stroke-width="0.01534"></path>
<path d="M1.539 0.388 Q1.599 0.303 1.445 0.255" stroke="hsl(180.0,100%,35%)" stroke-width="0.00317"></path>
<path d="M1.539 0.388 Q1.445 0.460 1.563 0.521" stroke="hsl(180.0,100%,35%)" stroke-width="0.01005"></path>
<path d="M1.539 0.388 Q1.304 0.499 1.467 0.637" stroke="hsl(180.0,100%,35%)" stroke-width="0.00450"></path>
<path d="M1.539 0.388 Q0.869 0.268 0.486 0.568" stroke="hsl(180.0,100%,35%)" stroke-width="0.00026"></path>
<path d="M1.539 0.388 Q0.623 0.511 0.661 0.984" stroke="hsl(180.0,100%,35%)" stroke-width="0.00820"></path>
<path d="M1.539 0.388 Q0.560 0.449 0.464 0.941" stroke="hsl(180.0,100%,35%)" stroke-width="0.00423"></path>
<path d="M1.539 0.388 Q1.025 0.454 1.040 0.719" stroke="hsl(180.0,100%,35%)" stroke-width="0.00026"></path>
<path d="M1.539 0.388 Q1.702 0.274 1.514 0.169" stroke="hsl(180.0,100%,35%)" stroke-width="0.00026"></path>
<path d="M1.539 0.388 Q0.556 0.286 0.141 0.743" stroke="hsl(180.0,100%,35%)" stroke-width="0.00026"></path>
<path d="M0.059 0.649 Q0.383 0.635 0.427 0.473" stroke="hsl(0.0,100%,35%)" stroke-width="0.00423"></path>
<path d="M0.059 0.649 Q1.021 0.689 1.312 0.229" stroke="hsl(0.0,100%,35%)" stroke-width="0.00053"></path>
<path d="M0.059 0.649 Q0.913 0.886 1.563 0.521" stroke="hsl(0.0,100%,35%)" stroke-width="0.00106"></path>
<path d="M0.059 0.649 Q0.091 0.714 0.226 0.712" stroke="hsl(0.0,100%,35%)" stroke-width="0.00132"></path>
<path d="M0.059 0.649 Q0.024 0.712 0.141 0.743" stroke="hsl(0.0,100%,35%)" stroke-width="0.00185"></path>
<path d="M0.059 0.649 Q0.277 0.820 0.659 0.751" stroke="hsl(0.0,100%,35%)" stroke-width="0.00079"></path>
<path d="M0.059 0.649 Q0.337 0.694 0.486 0.568" stroke="hsl(0.0,100%,35%)" stroke-width="0.00265"></path>
<path d="M0.059 0.649 Q0.772 0.925 1.467 0.637" stroke="hsl(0.0,100%,35%)" stroke-width="0.00079"></path>
<path d="M0.059 0.649 Q1.007 0.815 1.539 0.388" stroke="hsl(0.0,100%,35%)" stroke-width="0.00026"></path>
<path d="M0.059 0.649 Q0.304 0.786 0.626 0.697" stroke="hsl(0.0,100%,35%)" stroke-width="0.00026"></path>
<path d="M1.445 0.255 Q1.556 0.287 1.644 0.240" stroke="hsl(180.0,100%,35%)" stroke-width="0.00132"></path>
<path d="M1.445 0.255 Q1.268 0.259 1.237 0.346" stroke="hsl(180.0,100%,35%)" stroke-width="0.00397"></path>
<path d="M1.445 0.255 Q1.385 0.340 1.539 0.388" stroke="hsl(180.0,100%,35%)" stroke-width="0.00370"></path>
<path d="M1.445 0.255 Q0.406 0.402 0.464 0.941" stroke="hsl(180.0,100%,35%)" stroke-width="0.00106"></path>
<path d="M1.445 0.255 Q1.291 0.412 1.563 0.521" stroke="hsl(180.0,100%,35%)" stroke-width="0.00026"></path>
<path d="M1.445 0.255 Q0.761 0.161 0.427 0.473" stroke="hsl(180.0,100%,35%)" stroke-width="0.00132"></path>
<path d="M1.445 0.255 Q1.150 0.451 1.467 0.637" stroke="hsl(180.0,100%,35%)" stroke-width="0.00026"></path>
<path d="M1.445 0.255 Q0.469 0.463 0.661 0.984" stroke="hsl(180.0,100%,35%)" stroke-width="0.00053"></path>
<path d="M1.445 0.255 Q1.399 0.215 1.312 0.229" stroke="hsl(180.0,100%,35%)" stroke-width="0.00026"></path>
<path d="M1.445 0.255 Q1.261 0.343 1.394 0.452" stroke="hsl(180.0,100%,35%)" stroke-width="0.00026"></path>
<path d="M1.644 0.240 Q1.473 0.293 1.539 0.388" stroke="hsl(180.0,100%,35%)" stroke-width="0.00794"></path>
<path d="M1.644 0.240 Q0.557 0.416 0.661 0.984" stroke="hsl(180.0,100%,35%)" stroke-width="0.00106"></path>
<path d="M1.644 0.240 Q1.379 0.364 1.563 0.521" stroke="hsl(180.0,100%,35%)" stroke-width="0.00159"></path>
<path d="M1.644 0.240 Q1.238 0.403 1.467 0.637" stroke="hsl(180.0,100%,35%)" stroke-width="0.00079"></path>
<path d="M1.644 0.240 Q1.356 0.211 1.237 0.346" stroke="hsl(180.0,100%,35%)" stroke-width="0.00026"></path>
<path d="M1.644 0.240 Q1.487 0.168 1.312 0.229" stroke="hsl(180.0,100%,35%)" stroke-width="0.00079"></path>
<path d="M1.644 0.240 Q0.494 0.354 0.464 0.941" stroke="hsl(180.0,100%,35%)" stroke-width="0.00053"></path>
<path d="M1.644 0.240 Q0.490 0.191 0.141 0.743" stroke="hsl(180.0,100%,35%)" stroke-width="0.00026"></path>
<path d="M1.644 0.240 Q0.959 0.359 1.040 0.719" stroke="hsl(180.0,100%,35%)" stroke-width="0.00026"></path>
<path d="M1.644 0.240 Q1.268 0.046 0.806 0.187" stroke="hsl(180.0,100%,35%)" stroke-width="0.00026"></path>
<path d="M1.237 0.346 Q1.354 0.428 1.539 0.388" stroke="hsl(180.0,100%,35%)" stroke-width="0.02354"></path>
<path d="M1.237 0.346 Q0.438 0.550 0.661 0.984" stroke="hsl(180.0,100%,35%)" stroke-width="0.00317"></path>
<path d="M1.237 0.346 Q1.119 0.538 1.467 0.637" stroke="hsl(180.0,100%,35%)" stroke-width="0.00317"></path>
<path d="M1.237 0.346 Q1.368 0.303 1.312 0.229" stroke="hsl(180.0,100%,35%)" stroke-width="0.01376"></path>
<path d="M1.237 0.346 Q0.684 0.307 0.486 0.568" stroke="hsl(180.0,100%,35%)" stroke-width="0.00185"></path>
<path d="M1.237 0.346 Q0.375 0.489 0.464 0.941" stroke="hsl(180.0,100%,35%)" stroke-width="0.00159"></path>
<path d="M1.237 0.346 Q0.730 0.248 0.427 0.473" stroke="hsl(180.0,100%,35%)" stroke-width="0.00265"></path>
<path d="M1.237 0.346 Q1.414 0.342 1.445 0.255" stroke="hsl(180.0,100%,35%)" stroke-width="0.00450"></path>
<path d="M1.237 0.346 Q1.525 0.375 1.644 0.240" stroke="hsl(180.0,100%,35%)" stroke-width="0.00370"></path>
<path d="M1.237 0.346 Q1.260 0.499 1.563 0.521" stroke="hsl(180.0,100%,35%)" stroke-width="0.00582"></path>
<path d="M1.237 0.346 Q1.145 0.408 1.246 0.467" stroke="hsl(180.0,100%,35%)" stroke-width="0.00106"></path>
<path d="M1.237 0.346 Q0.815 0.370 0.770 0.581" stroke="hsl(180.0,100%,35%)" stroke-width="0.00026"></path>
<path d="M1.237 0.346 Q0.840 0.493 1.040 0.719" stroke="hsl(180.0,100%,35%)" stroke-width="0.00026"></path>
<path d="M1.237 0.346 Q1.149 0.180 0.806 0.187" stroke="hsl(180.0,100%,35%)" stroke-width="0.00026"></path>
<path d="M0.464 0.941 Q1.443 0.879 1.539 0.388" stroke="hsl(180.0,100%,35%)" stroke-width="0.00265"></path>
<path d="M0.464 0.941 Q0.528 1.002 0.661 0.984" stroke="hsl(180.0,100%,35%)" stroke-width="0.00714"></path>
<path d="M0.464 0.941 Q0.819 0.700 0.427 0.473" stroke="hsl(180.0,100%,35%)" stroke-width="0.00185"></path>
<path d="M0.464 0.941 Q1.208 0.990 1.467 0.637" stroke="hsl(180.0,100%,35%)" stroke-width="0.00026"></path>
<path d="M0.464 0.941 Q1.457 0.754 1.312 0.229" stroke="hsl(180.0,100%,35%)" stroke-width="0.00238"></path>
<path d="M0.464 0.941 Q1.326 0.798 1.237 0.346" stroke="hsl(180.0,100%,35%)" stroke-width="0.00106"></path>
<path d="M0.464 0.941 Q1.349 0.951 1.563 0.521" stroke="hsl(180.0,100%,35%)" stroke-width="0.00053"></path>
<path d="M0.464 0.941 Q1.615 0.826 1.644 0.240" stroke="hsl(180.0,100%,35%)" stroke-width="0.00053"></path>
<path d="M0.464 0.941 Q1.036 0.887 1.056 0.596" stroke="hsl(180.0,100%,35%)" stroke-width="0.00053"></path>
<path d="M1.312 0.229 Q1.181 0.272 1.237 0.346" stroke="hsl(180.0,100%,35%)" stroke-width="0.02037"></path>
<path d="M1.312 0.229 Q1.063 0.464 1.467 0.637" stroke="hsl(180.0,100%,35%)" stroke-width="0.00238"></path>
<path d="M1.312 0.229 Q0.382 0.476 0.661 0.984" stroke="hsl(180.0,100%,35%)" stroke-width="0.01138"></path>
<path d="M1.312 0.229 Q1.298 0.354 1.539 0.388" stroke="hsl(180.0,100%,35%)" stroke-width="0.00820"></path>
<path d="M1.312 0.229 Q0.350 0.188 0.059 0.649" stroke="hsl(180.0,100%,35%)" stroke-width="0.00053"></path>
<path d="M1.312 0.229 Q1.204 0.425 1.563 0.521" stroke="hsl(180.0,100%,35%)" stroke-width="0.00079"></path>
<path d="M1.312 0.229 Q0.319 0.415 0.464 0.941" stroke="hsl(180.0,100%,35%)" stroke-width="0.00767"></path>
<path d="M1.312 0.229 Q0.674 0.174 0.427 0.473" stroke="hsl(180.0,100%,35%)" stroke-width="0.00159"></path>
<path d="M1.312 0.229 Q0.784 0.420 1.040 0.719" stroke="hsl(180.0,100%,35%)" stroke-width="0.00026"></path>
<path d="M1.312 0.229 Q0.628 0.233 0.486 0.568" stroke="hsl(180.0,100%,35%)" stroke-width="0.00026"></path>
<path d="M1.312 0.229 Q1.461 0.239 1.514 0.169" stroke="hsl(180.0,100%,35%)" stroke-width="0.00026"></path>
<path d="M1.312 0.229 Q1.093 0.107 0.806 0.187" stroke="hsl(180.0,100%,35%)" stroke-width="0.00053"></path>
<path d="M1.394 0.452 Q1.423 0.521 1.563 0.521" stroke="hsl(0.0,100%,35%)" stroke-width="0.00661"></path>
<path d="M1.394 0.452 Q0.848 0.329 0.486 0.568" stroke="hsl(0.0,100%,35%)" stroke-width="0.00053"></path>
<path d="M1.394 0.452 Q1.004 0.515 1.040 0.719" stroke="hsl(0.0,100%,35%)" stroke-width="0.00053"></path>
<path d="M0.718 0.243 Q0.918 0.551 1.563 0.521" stroke="hsl(180.0,100%,35%)" stroke-width="0.00026"></path>
<path d="M0.718 0.243 Q0.388 0.300 0.427 0.473" stroke="hsl(180.0,100%,35%)" stroke-width="0.00079"></path>
<path d="M0.718 0.243 Q1.026 0.355 1.312 0.229" stroke="hsl(180.0,100%,35%)" stroke-width="0.00053"></path>
<path d="M0.424 0.769 Q0.370 0.924 0.661 0.984" stroke="hsl(180.0,100%,35%)" stroke-width="0.00053"></path>
<path d="M0.424 0.769 Q1.286 0.802 1.539 0.388" stroke="hsl(180.0,100%,35%)" stroke-width="0.00026"></path>
<path d="M0.424 0.769 Q1.300 0.677 1.312 0.229" stroke="hsl(180.0,100%,35%)" stroke-width="0.00026"></path>
<path d="M0.752 0.865 Q0.611 0.906 0.661 0.984" stroke="hsl(180.0,100%,35%)" stroke-width="0.00106"></path>
<path d="M0.752 0.865 Q1.527 0.784 1.539 0.388" stroke="hsl(180.0,100%,35%)" stroke-width="0.00053"></path>
<path d="M0.752 0.865 Q0.547 0.845 0.464 0.941" stroke="hsl(180.0,100%,35%)" stroke-width="0.00053"></path>
<path d="M0.806 0.187 Q0.387 0.254 0.427 0.473" stroke="hsl(0.0,100%,35%)" stroke-width="0.00608"></path>
<path d="M0.806 0.187 Q0.894 0.352 1.237 0.346" stroke="hsl(0.0,100%,35%)" stroke-width="0.00053"></path>
<path d="M0.806 0.187 Q0.809 0.257 0.946 0.271" stroke="hsl(0.0,100%,35%)" stroke-width="0.00212"></path>
<path d="M0.806 0.187 Q0.559 0.270 0.668 0.409" stroke="hsl(0.0,100%,35%)" stroke-width="0.00026"></path>
<path d="M0.806 0.187 Q0.341 0.313 0.486 0.568" stroke="hsl(0.0,100%,35%)" stroke-width="0.00079"></path>
<path d="M0.806 0.187 Q0.776 0.544 1.467 0.637" stroke="hsl(0.0,100%,35%)" stroke-width="0.00026"></path>
<path d="M0.806 0.187 Q0.096 0.556 0.661 0.984" stroke="hsl(0.0,100%,35%)" stroke-width="0.00026"></path>
<path d="M0.806 0.187 Q1.025 0.309 1.312 0.229" stroke="hsl(0.0,100%,35%)" stroke-width="0.00053"></path>
<path d="M0.806 0.187 Q0.917 0.505 1.563 0.521" stroke="hsl(0.0,100%,35%)" stroke-width="0.00079"></path>
<path d="M0.806 0.187 Q0.096 0.334 0.226 0.712" stroke="hsl(0.0,100%,35%)" stroke-width="0.00026"></path>
<path d="M0.668 0.409 Q0.496 0.393 0.427 0.473" stroke="hsl(0.0,100%,35%)" stroke-width="0.01164"></path>
<path d="M0.668 0.409 Q0.313 0.446 0.306 0.627" stroke="hsl(0.0,100%,35%)" stroke-width="0.00026"></path>
<path d="M0.668 0.409 Q1.026 0.644 1.563 0.521" stroke="hsl(0.0,100%,35%)" stroke-width="0.00053"></path>
<path d="M0.668 0.409 Q0.450 0.452 0.486 0.568" stroke="hsl(0.0,100%,35%)" stroke-width="0.00026"></path>
<path d="M0.668 0.409 Q0.885 0.683 1.467 0.637" stroke="hsl(0.0,100%,35%)" stroke-width="0.00053"></path>
<path d="M0.668 0.409 Q0.915 0.326 0.806 0.187" stroke="hsl(0.0,100%,35%)" stroke-width="0.00026"></path>
<path d="M0.226 0.712 Q0.518 0.633 0.427 0.473" stroke="hsl(0.0,100%,35%)" stroke-width="0.00026"></path>
<path d="M0.226 0.712 Q0.194 0.647 0.059 0.649" stroke="hsl(0.0,100%,35%)" stroke-width="0.00053"></path>
<path d="M0.226 0.712 Q0.159 0.711 0.141 0.743" stroke="hsl(0.0,100%,35%)" stroke-width="0.00026"></path>
<path d="M1.246 0.467 Q1.220 0.596 1.467 0.637" stroke="hsl(0.0,100%,35%)" stroke-width="0.00238"></path>
<path d="M1.246 0.467 Q1.361 0.557 1.563 0.521" stroke="hsl(0.0,100%,35%)" stroke-width="0.00688"></path>
<path d="M1.246 0.467 Q1.338 0.404 1.237 0.346" stroke="hsl(0.0,100%,35%)" stroke-width="0.00079"></path>
<path d="M1.246 0.467 Q0.785 0.365 0.486 0.568" stroke="hsl(0.0,100%,35%)" stroke-width="0.00053"></path>
<path d="M1.246 0.467 Q0.831 0.306 0.427 0.473" stroke="hsl(0.0,100%,35%)" stroke-width="0.00053"></path>
<path d="M0.141 0.743 Q0.145 0.906 0.464 0.941" stroke="hsl(0.0,100%,35%)" stroke-width="0.00026"></path>
<path d="M0.141 0.743 Q1.007 0.764 1.237 0.346" stroke="hsl(0.0,100%,35%)" stroke-width="0.00026"></path>
<path d="M0.141 0.743 Q0.208 0.745 0.226 0.712" stroke="hsl(0.0,100%,35%)" stroke-width="0.00053"></path>
<path d="M0.141 0.743 Q0.176 0.679 0.059 0.649" stroke="hsl(0.0,100%,35%)" stroke-width="0.00079"></path>
<path d="M0.141 0.743 Q0.454 0.725 0.486 0.568" stroke="hsl(0.0,100%,35%)" stroke-width="0.00053"></path>
<path d="M0.141 0.743 Q0.500 0.665 0.427 0.473" stroke="hsl(0.0,100%,35%)" stroke-width="0.00026"></path>
<path d="M0.141 0.743 Q1.030 0.917 1.563 0.521" stroke="hsl(0.0,100%,35%)" stroke-width="0.00026"></path>
<path d="M0.141 0.743 Q0.208 0.968 0.661 0.984" stroke="hsl(0.0,100%,35%)" stroke-width="0.00026"></path>
<path d="M0.770 0.581 Q0.638 0.518 0.486 0.568" stroke="hsl(0.0,100%,35%)" stroke-width="0.00582"></path>
<path d="M0.770 0.581 Q0.684 0.459 0.427 0.473" stroke="hsl(0.0,100%,35%)" stroke-width="0.00053"></path>
<path d="M0.770 0.581 Q0.501 0.511 0.306 0.627" stroke="hsl(0.0,100%,35%)" stroke-width="0.00053"></path>
<path d="M0.770 0.581 Q0.360 0.472 0.059 0.649" stroke="hsl(0.0,100%,35%)" stroke-width="0.00079"></path>
<path d="M0.770 0.581 Q1.214 0.710 1.563 0.521" stroke="hsl(0.0,100%,35%)" stroke-width="0.00106"></path>
<path d="M0.770 0.581 Q1.191 0.557 1.237 0.346" stroke="hsl(0.0,100%,35%)" stroke-width="0.00026"></path>
<path d="M1.711 0.901 Q1.411 0.430 0.427 0.473" stroke="hsl(0.0,100%,35%)" stroke-width="0.00026"></path>
<path d="M1.711 0.901 Q1.941 0.681 1.563 0.521" stroke="hsl(0.0,100%,35%)" stroke-width="0.00053"></path>
<path d="M1.711 0.901 Q1.119 0.733 0.661 0.984" stroke="hsl(0.0,100%,35%)" stroke-width="0.00079"></path>
<path d="M1.711 0.901 Q1.087 0.444 0.059 0.649" stroke="hsl(0.0,100%,35%)" stroke-width="0.00185"></path>
<path d="M1.711 0.901 Q1.521 0.676 1.040 0.719" stroke="hsl(0.0,100%,35%)" stroke-width="0.00026"></path>
<path d="M1.107 0.989 Q0.888 0.897 0.661 0.984" stroke="hsl(180.0,100%,35%)" stroke-width="0.00450"></path>
<path d="M1.107 0.989 Q1.817 0.650 1.312 0.229" stroke="hsl(180.0,100%,35%)" stroke-width="0.00132"></path>
<path d="M1.107 0.989 Q1.686 0.693 1.237 0.346" stroke="hsl(180.0,100%,35%)" stroke-width="0.00079"></path>
<path d="M1.107 0.989 Q1.975 0.722 1.644 0.240" stroke="hsl(180.0,100%,35%)" stroke-width="0.00026"></path>
<path d="M1.107 0.989 Q1.803 0.775 1.539 0.388" stroke="hsl(180.0,100%,35%)" stroke-width="0.00053"></path>
<path d="M1.107 0.989 Q1.709 0.846 1.563 0.521" stroke="hsl(180.0,100%,35%)" stroke-width="0.00026"></path>
<path d="M0.306 0.627 Q0.489 0.574 0.427 0.473" stroke="hsl(0.0,100%,35%)" stroke-width="0.00291"></path>
<path d="M0.306 0.627 Q0.443 0.633 0.486 0.568" stroke="hsl(0.0,100%,35%)" stroke-width="0.01508"></path>
<path d="M0.306 0.627 Q0.575 0.696 0.770 0.581" stroke="hsl(0.0,100%,35%)" stroke-width="0.00106"></path>
<path d="M0.306 0.627 Q1.019 0.825 1.563 0.521" stroke="hsl(0.0,100%,35%)" stroke-width="0.00106"></path>
<path d="M0.306 0.627 Q0.599 0.820 1.040 0.719" stroke="hsl(0.0,100%,35%)" stroke-width="0.00026"></path>
<path d="M0.306 0.627 Q0.198 0.876 0.661 0.984" stroke="hsl(0.0,100%,35%)" stroke-width="0.00026"></path>
<path d="M0.939 0.837 Q1.396 0.555 0.946 0.271" stroke="hsl(180.0,100%,35%)" stroke-width="0.00026"></path>
<path d="M0.939 0.837 Q1.503 0.804 1.563 0.521" stroke="hsl(180.0,100%,35%)" stroke-width="0.00026"></path>
<path d="M0.939 0.837 Q0.974 0.553 0.427 0.473" stroke="hsl(180.0,100%,35%)" stroke-width="0.00026"></path>
<path d="M0.939 0.837 Q0.927 0.612 0.486 0.568" stroke="hsl(180.0,100%,35%)" stroke-width="0.00026"></path>
<path d="M0.939 0.837 Q1.363 0.843 1.467 0.637" stroke="hsl(180.0,100%,35%)" stroke-width="0.00053"></path>
<path d="M0.939 0.837 Q0.682 0.855 0.661 0.984" stroke="hsl(180.0,100%,35%)" stroke-width="0.00079"></path>
<path d="M1.382 0.468 Q1.430 0.531 1.563 0.521" stroke="hsl(0.0,100%,35%)" stroke-width="0.00132"></path>
<path d="M1.382 0.468 Q1.010 0.526 1.040 0.719" stroke="hsl(0.0,100%,35%)" stroke-width="0.00026"></path>
<path d="M1.382 0.468 Q1.538 0.335 1.312 0.229" stroke="hsl(0.0,100%,35%)" stroke-width="0.00026"></path>
<path d="M1.382 0.468 Q1.289 0.570 1.467 0.637" stroke="hsl(0.0,100%,35%)" stroke-width="0.00053"></path>
<path d="M0.727 0.628 Q1.230 0.742 1.563 0.521" stroke="hsl(0.0,100%,35%)" stroke-width="0.00026"></path>
<path d="M0.727 0.628 Q0.654 0.550 0.486 0.568" stroke="hsl(0.0,100%,35%)" stroke-width="0.00053"></path>
<path d="M0.727 0.628 Q1.325 0.671 1.539 0.388" stroke="hsl(0.0,100%,35%)" stroke-width="0.00026"></path>
<path d="M0.234 0.848 Q1.019 0.989 1.467 0.637" stroke="hsl(180.0,100%,35%)" stroke-width="0.00026"></path>
<path d="M0.234 0.848 Q0.162 0.857 0.163 0.894" stroke="hsl(180.0,100%,35%)" stroke-width="0.00026"></path>
<path d="M0.234 0.848 Q1.425 0.826 1.644 0.240" stroke="hsl(180.0,100%,35%)" stroke-width="0.00079"></path>
<path d="M0.234 0.848 Q0.630 0.699 0.427 0.473" stroke="hsl(180.0,100%,35%)" stroke-width="0.00026"></path>
<path d="M0.234 0.848 Q1.137 0.797 1.237 0.346" stroke="hsl(180.0,100%,35%)" stroke-width="0.00053"></path>
<path d="M0.234 0.848 Q0.275 0.940 0.464 0.941" stroke="hsl(180.0,100%,35%)" stroke-width="0.00106"></path>
<path d="M1.135 0.514 Q1.202 0.642 1.467 0.637" stroke="hsl(0.0,100%,35%)" stroke-width="0.00026"></path>
<path d="M1.135 0.514 Q1.437 0.532 1.539 0.388" stroke="hsl(0.0,100%,35%)" stroke-width="0.00026"></path>
<path d="M1.135 0.514 Q1.343 0.603 1.563 0.521" stroke="hsl(0.0,100%,35%)" stroke-width="0.00053"></path>
<path d="M1.135 0.514 Q0.813 0.352 0.427 0.473" stroke="hsl(0.0,100%,35%)" stroke-width="0.00053"></path>
<path d="M1.309 0.443 Q1.373 0.533 1.563 0.521" stroke="hsl(180.0,100%,35%)" stroke-width="0.00265"></path>
<path d="M1.309 0.443 Q1.232 0.572 1.467 0.637" stroke="hsl(180.0,100%,35%)" stroke-width="0.00265"></path>
<path d="M1.309 0.443 Q0.797 0.341 0.486 0.568" stroke="hsl(180.0,100%,35%)" stroke-width="0.00026"></path>
<path d="M1.309 0.443 Q0.551 0.584 0.661 0.984" stroke="hsl(180.0,100%,35%)" stroke-width="0.00026"></path>
<path d="M1.056 0.596 Q0.548 0.711 0.661 0.984" stroke="hsl(180.0,100%,35%)" stroke-width="0.00185"></path>
<path d="M1.056 0.596 Q0.484 0.650 0.464 0.941" stroke="hsl(180.0,100%,35%)" stroke-width="0.00159"></path>
<path d="M1.056 0.596 Q0.949 0.655 1.040 0.719" stroke="hsl(180.0,100%,35%)" stroke-width="0.00370"></path>
<path d="M1.056 0.596 Q1.478 0.464 1.312 0.229" stroke="hsl(180.0,100%,35%)" stroke-width="0.00053"></path>
<path d="M1.056 0.596 Q0.840 0.409 0.427 0.473" stroke="hsl(180.0,100%,35%)" stroke-width="0.00079"></path>
<path d="M1.056 0.596 Q1.228 0.699 1.467 0.637" stroke="hsl(180.0,100%,35%)" stroke-width="0.00053"></path>
<path d="M1.056 0.596 Q1.346 0.507 1.237 0.346" stroke="hsl(180.0,100%,35%)" stroke-width="0.00026"></path>
<path d="M1.056 0.596 Q1.369 0.660 1.563 0.521" stroke="hsl(180.0,100%,35%)" stroke-width="0.00079"></path>
<path d="M1.056 0.596 Q1.464 0.589 1.539 0.388" stroke="hsl(180.0,100%,35%)" stroke-width="0.00026"></path>
<path d="M1.056 0.596 Q0.481 0.487 0.141 0.743" stroke="hsl(180.0,100%,35%)" stroke-width="0.00026"></path>
<path d="M0.659 0.751 Q0.686 0.717 0.626 0.697" stroke="hsl(0.0,100%,35%)" stroke-width="0.00582"></path>
<path d="M0.659 0.751 Q1.184 0.499 0.806 0.187" stroke="hsl(0.0,100%,35%)" stroke-width="0.00053"></path>
<path d="M0.659 0.751 Q1.295 0.817 1.563 0.521" stroke="hsl(0.0,100%,35%)" stroke-width="0.00053"></path>
<path d="M1.299 0.426 Q0.533 0.577 0.661 0.984" stroke="hsl(0.0,100%,35%)" stroke-width="0.00026"></path>
<path d="M1.299 0.426 Q1.449 0.455 1.539 0.388" stroke="hsl(0.0,100%,35%)" stroke-width="0.00026"></path>
<path d="M1.299 0.426 Q1.355 0.526 1.563 0.521" stroke="hsl(0.0,100%,35%)" stroke-width="0.00053"></path>
<path d="M0.824 0.761 Q1.385 0.789 1.563 0.521" stroke="hsl(180.0,100%,35%)" stroke-width="0.00079"></path>
<path d="M0.824 0.761 Q0.564 0.840 0.661 0.984" stroke="hsl(180.0,100%,35%)" stroke-width="0.00106"></path>
<path d="M0.824 0.761 Q1.651 0.665 1.644 0.240" stroke="hsl(180.0,100%,35%)" stroke-width="0.00026"></path>
<path d="M0.824 0.761 Q1.480 0.718 1.539 0.388" stroke="hsl(180.0,100%,35%)" stroke-width="0.00026"></path>
<path d="M1.176 0.451 Q0.893 0.558 1.040 0.719" stroke="hsl(180.0,100%,35%)" stroke-width="0.00026"></path>
<path d="M1.176 0.451 Q1.313 0.563 1.563 0.521" stroke="hsl(180.0,100%,35%)" stroke-width="0.00053"></path>
<path d="M1.176 0.451 Q0.783 0.312 0.427 0.473" stroke="hsl(180.0,100%,35%)" stroke-width="0.00026"></path>
<path d="M1.605 0.273 Q0.564 0.440 0.661 0.984" stroke="hsl(180.0,100%,35%)" stroke-width="0.00026"></path>
<path d="M1.605 0.273 Q1.479 0.317 1.539 0.388" stroke="hsl(180.0,100%,35%)" stroke-width="0.00053"></path>
<path d="M1.605 0.273 Q1.362 0.236 1.237 0.346" stroke="hsl(180.0,100%,35%)" stroke-width="0.00026"></path>
<path d="M1.514 0.169 Q1.351 0.284 1.539 0.388" stroke="hsl(180.0,100%,35%)" stroke-width="0.00635"></path>
<path d="M1.514 0.169 Q0.727 0.104 0.427 0.473" stroke="hsl(180.0,100%,35%)" stroke-width="0.00079"></path>
<path d="M1.514 0.169 Q1.522 0.230 1.644 0.240" stroke="hsl(180.0,100%,35%)" stroke-width="0.00397"></path>
<path d="M1.514 0.169 Q1.116 0.394 1.467 0.637" stroke="hsl(180.0,100%,35%)" stroke-width="0.00291"></path>
<path d="M1.514 0.169 Q1.411 0.198 1.445 0.255" stroke="hsl(180.0,100%,35%)" stroke-width="0.00026"></path>
<path d="M1.514 0.169 Q1.365 0.158 1.312 0.229" stroke="hsl(180.0,100%,35%)" stroke-width="0.00026"></path>
<path d="M1.514 0.169 Q0.372 0.345 0.464 0.941" stroke="hsl(180.0,100%,35%)" stroke-width="0.00053"></path>
<path d="M0.760 0.477 Q0.550 0.468 0.486 0.568" stroke="hsl(0.0,100%,35%)" stroke-width="0.00026"></path>
<path d="M0.760 0.477 Q0.682 0.531 0.770 0.581" stroke="hsl(0.0,100%,35%)" stroke-width="0.00026"></path>
<path d="M0.760 0.477 Q0.305 0.711 0.661 0.984" stroke="hsl(0.0,100%,35%)" stroke-width="0.00026"></path>
<path d="M1.760 0.670 Q1.781 0.556 1.563 0.521" stroke="hsl(0.0,100%,35%)" stroke-width="0.00370"></path>
<path d="M1.760 0.670 Q1.361 0.551 1.040 0.719" stroke="hsl(0.0,100%,35%)" stroke-width="0.00079"></path>
<path d="M1.760 0.670 Q1.251 0.305 0.427 0.473" stroke="hsl(0.0,100%,35%)" stroke-width="0.00185"></path>
<path d="M1.760 0.670 Q1.551 0.776 1.711 0.901" stroke="hsl(0.0,100%,35%)" stroke-width="0.00238"></path>
<path d="M1.760 0.670 Q0.927 0.319 0.059 0.649" stroke="hsl(0.0,100%,35%)" stroke-width="0.00026"></path>
<path d="M1.258 0.520 Q1.410 0.582 1.563 0.521" stroke="hsl(0.0,100%,35%)" stroke-width="0.00159"></path>
<path d="M1.258 0.520 Q0.834 0.390 0.486 0.568" stroke="hsl(0.0,100%,35%)" stroke-width="0.00132"></path>
<path d="M1.258 0.520 Q0.556 0.345 0.059 0.649" stroke="hsl(0.0,100%,35%)" stroke-width="0.00026"></path>
<path d="M1.132 0.550 Q0.549 0.673 0.661 0.984" stroke="hsl(180.0,100%,35%)" stroke-width="0.00026"></path>
<path d="M1.132 0.550 Q1.370 0.622 1.563 0.521" stroke="hsl(180.0,100%,35%)" stroke-width="0.00053"></path>
<path d="M1.132 0.550 Q1.465 0.551 1.539 0.388" stroke="hsl(180.0,100%,35%)" stroke-width="0.00026"></path>
<path d="M1.132 0.550 Q0.485 0.612 0.464 0.941" stroke="hsl(180.0,100%,35%)" stroke-width="0.00026"></path>
<path d="M0.297 0.723 Q1.091 0.875 1.563 0.521" stroke="hsl(0.0,100%,35%)" stroke-width="0.00238"></path>
<path d="M0.297 0.723 Q0.515 0.683 0.486 0.568" stroke="hsl(0.0,100%,35%)" stroke-width="0.00185"></path>
<path d="M0.297 0.723 Q0.237 0.638 0.059 0.649" stroke="hsl(0.0,100%,35%)" stroke-width="0.00291"></path>
<path d="M0.297 0.723 Q1.200 0.679 1.312 0.229" stroke="hsl(0.0,100%,35%)" stroke-width="0.00026"></path>
<path d="M0.999 0.459 Q1.231 0.603 1.563 0.521" stroke="hsl(180.0,100%,35%)" stroke-width="0.00026"></path>
<path d="M0.999 0.459 Q0.811 0.597 1.040 0.719" stroke="hsl(180.0,100%,35%)" stroke-width="0.00026"></path>
<path d="M0.999 0.459 Q1.116 0.512 1.246 0.467" stroke="hsl(180.0,100%,35%)" stroke-width="0.00026"></path>
<path d="M0.597 0.767 Q1.372 0.766 1.539 0.388" stroke="hsl(180.0,100%,35%)" stroke-width="0.00265"></path>
<path d="M0.597 0.767 Q0.964 0.773 1.056 0.596" stroke="hsl(180.0,100%,35%)" stroke-width="0.00026"></path>
<path d="M0.597 0.767 Q1.163 0.747 1.246 0.467" stroke="hsl(180.0,100%,35%)" stroke-width="0.00026"></path>
<path d="M0.597 0.767 Q0.701 0.646 0.486 0.568" stroke="hsl(180.0,100%,35%)" stroke-width="0.00026"></path>
<path d="M0.597 0.767 Q0.456 0.889 0.661 0.984" stroke="hsl(180.0,100%,35%)" stroke-width="0.00185"></path>
<path d="M0.597 0.767 Q1.386 0.641 1.312 0.229" stroke="hsl(180.0,100%,35%)" stroke-width="0.00026"></path>
<path d="M0.597 0.767 Q1.254 0.685 1.237 0.346" stroke="hsl(180.0,100%,35%)" stroke-width="0.00026"></path>
<path d="M0.505 0.863 Q0.486 0.955 0.661 0.984" stroke="hsl(180.0,100%,35%)" stroke-width="0.00079"></path>
<path d="M0.505 0.863 Q1.402 0.832 1.539 0.388" stroke="hsl(180.0,100%,35%)" stroke-width="0.00053"></path>
<path d="M0.505 0.863 Q0.422 0.894 0.464 0.941" stroke="hsl(180.0,100%,35%)" stroke-width="0.00026"></path>
<path d="M0.505 0.863 Q1.416 0.707 1.312 0.229" stroke="hsl(180.0,100%,35%)" stroke-width="0.00026"></path>
<path d="M1.417 0.536 Q1.502 0.558 1.563 0.521" stroke="hsl(180.0,100%,35%)" stroke-width="0.00132"></path>
<path d="M1.417 0.536 Q1.479 0.405 1.237 0.346" stroke="hsl(180.0,100%,35%)" stroke-width="0.00079"></path>
<path d="M1.417 0.536 Q1.387 0.467 1.246 0.467" stroke="hsl(180.0,100%,35%)" stroke-width="0.00026"></path>
<path d="M1.417 0.536 Q1.361 0.597 1.467 0.637" stroke="hsl(180.0,100%,35%)" stroke-width="0.00026"></path>
<path d="M1.417 0.536 Q1.596 0.487 1.539 0.388" stroke="hsl(180.0,100%,35%)" stroke-width="0.00053"></path>
<path d="M1.747 0.263 Q0.626 0.406 0.661 0.984" stroke="hsl(180.0,100%,35%)" stroke-width="0.00212"></path>
<path d="M1.747 0.263 Q1.425 0.202 1.237 0.346" stroke="hsl(180.0,100%,35%)" stroke-width="0.00026"></path>
<path d="M1.747 0.263 Q1.542 0.284 1.539 0.388" stroke="hsl(180.0,100%,35%)" stroke-width="0.00397"></path>
<path d="M1.582 0.182 Q0.725 0.156 0.486 0.568" stroke="hsl(180.0,100%,35%)" stroke-width="0.00026"></path>
<path d="M1.582 0.182 Q1.396 0.277 1.539 0.388" stroke="hsl(180.0,100%,35%)" stroke-width="0.00053"></path>
<path d="M1.582 0.182 Q1.301 0.348 1.563 0.521" stroke="hsl(180.0,100%,35%)" stroke-width="0.00026"></path>
<path d="M0.162 0.360 Q0.204 0.470 0.427 0.473" stroke="hsl(0.0,100%,35%)" stroke-width="0.00106"></path>
<path d="M0.162 0.360 Q-0.120 0.484 0.059 0.649" stroke="hsl(0.0,100%,35%)" stroke-width="0.00026"></path>
<path d="M0.162 0.360 Q0.314 0.715 1.040 0.719" stroke="hsl(0.0,100%,35%)" stroke-width="0.00026"></path>
<path d="M0.162 0.360 Q0.504 0.940 1.711 0.901" stroke="hsl(0.0,100%,35%)" stroke-width="0.00026"></path>
<path d="M1.019 0.391 Q0.365 0.616 0.661 0.984" stroke="hsl(180.0,100%,35%)" stroke-width="0.00026"></path>
<path d="M1.019 0.391 Q1.187 0.565 1.563 0.521" stroke="hsl(180.0,100%,35%)" stroke-width="0.00053"></path>
<path d="M1.019 0.391 Q1.164 0.412 1.237 0.346" stroke="hsl(180.0,100%,35%)" stroke-width="0.00053"></path>
</g>
<text x="1.175" y="0.542" font-size="0.009054" fill="hsl(0.0,100%,20%)">aperez</text>
<text x="0.661" y="0.961" font-size="0.047405" fill="hsl(180.0,100%,20%)">egdaniel</text>
<text x="0.427" y="0.441" font-size="0.065286" fill="hsl(0.0,100%,20%)">kjlubick</text>
<text x="0.486" y="0.540" font-size="0.056237" fill="hsl(0.0,100%,20%)">bungeman</text>
<text x="1.563" y="0.488" font-size="0.066581" fill="hsl(0.0,100%,20%)">brianosman</text>
<text x="1.040" y="0.709" font-size="0.019904" fill="hsl(180.0,100%,20%)">scroggo</text>
<text x="1.467" y="0.608" font-size="0.058265" fill="hsl(180.0,100%,20%)">johnstiles</text>
<text x="1.539" y="0.354" font-size="0.068002" fill="hsl(180.0,100%,20%)">michaelludwig</text>
<text x="0.059" y="0.633" font-size="0.031253" fill="hsl(0.0,100%,20%)">fmalita</text>
<text x="1.445" y="0.243" font-size="0.024237" fill="hsl(180.0,100%,20%)">armansito</text>
<text x="1.644" y="0.223" font-size="0.033470" fill="hsl(180.0,100%,20%)">jamesgk</text>
<text x="1.237" y="0.318" font-size="0.056660" fill="hsl(180.0,100%,20%)">jvanverth</text>
<text x="0.464" y="0.921" font-size="0.040065" fill="hsl(180.0,100%,20%)">nicolettep</text>
<text x="1.312" y="0.201" font-size="0.055871" fill="hsl(180.0,100%,20%)">robertphillips</text>
<text x="1.394" y="0.445" font-size="0.014315" fill="hsl(0.0,100%,20%)">ccameron</text>
<text x="0.718" y="0.239" font-size="0.006402" fill="hsl(180.0,100%,20%)">arthursonzogni</text>
<text x="0.424" y="0.766" font-size="0.005227" fill="hsl(180.0,100%,20%)">beaufort.francois</text>
<text x="0.752" y="0.861" font-size="0.007392" fill="hsl(180.0,100%,20%)">blundell</text>
<text x="0.806" y="0.176" font-size="0.022330" fill="hsl(0.0,100%,20%)">borenet</text>
<text x="0.946" y="0.266" font-size="0.009423" fill="hsl(0.0,100%,20%)">rmistry</text>
<text x="0.668" y="0.398" font-size="0.021710" fill="hsl(0.0,100%,20%)">lovisolo</text>
<text x="0.226" y="0.707" font-size="0.010454" fill="hsl(0.0,100%,20%)">bwils</text>
<text x="1.246" y="0.456" font-size="0.021866" fill="hsl(0.0,100%,20%)">herb</text>
<text x="0.141" y="0.735" font-size="0.015239" fill="hsl(0.0,100%,20%)">jmbetancourt</text>
<text x="0.770" y="0.570" font-size="0.020412" fill="hsl(0.0,100%,20%)">jlavrova</text>
<text x="1.711" y="0.894" font-size="0.013327" fill="hsl(0.0,100%,20%)">danieldilan</text>
<text x="1.107" y="0.982" font-size="0.014074" fill="hsl(180.0,100%,20%)">briansalomon</text>
<text x="0.306" y="0.614" font-size="0.025339" fill="hsl(0.0,100%,20%)">drott</text>
<text x="1.009" y="0.015" font-size="0.004527" fill="hsl(180.0,100%,20%)">jreck</text>
<text x="0.939" y="0.833" font-size="0.008668" fill="hsl(180.0,100%,20%)">jcgregorio</text>
<text x="0.626" y="0.690" font-size="0.013068" fill="hsl(0.0,100%,20%)">hcm</text>
<text x="1.382" y="0.464" font-size="0.007841" fill="hsl(0.0,100%,20%)">chengyangyang-hf</text>
<text x="0.727" y="0.626" font-size="0.005227" fill="hsl(0.0,100%,20%)">coldpalelight</text>
<text x="0.234" y="0.843" font-size="0.009054" fill="hsl(180.0,100%,20%)">cwallez</text>
<text x="0.163" y="0.893" font-size="0.002614" fill="hsl(180.0,100%,20%)">senorblanco</text>
<text x="1.135" y="0.510" font-size="0.006402" fill="hsl(0.0,100%,20%)">dcheng</text>
<text x="1.309" y="0.436" font-size="0.012259" fill="hsl(180.0,100%,20%)">double1kai</text>
<text x="1.056" y="0.585" font-size="0.021710" fill="hsl(180.0,100%,20%)">nscobie</text>
<text x="0.659" y="0.744" font-size="0.014074" fill="hsl(0.0,100%,20%)">sharaks</text>
<text x="1.299" y="0.423" font-size="0.005227" fill="hsl(0.0,100%,20%)">geofflang</text>
<text x="0.824" y="0.758" font-size="0.007841" fill="hsl(180.0,100%,20%)">hitawala</text>
<text x="1.176" y="0.448" font-size="0.005227" fill="hsl(180.0,100%,20%)">jgaillard</text>
<text x="1.605" y="0.270" font-size="0.005227" fill="hsl(180.0,100%,20%)">jie.a.chen</text>
<text x="1.514" y="0.157" font-size="0.022934" fill="hsl(180.0,100%,20%)">nathanasanchez</text>
<text x="0.760" y="0.475" font-size="0.004527" fill="hsl(0.0,100%,20%)">jsimmons</text>
<text x="0.446" y="0.332" font-size="0.002614" fill="hsl(0.0,100%,20%)">mingkong</text>
<text x="0.164" y="0.379" font-size="0.002614" fill="hsl(0.0,100%,20%)">ashwinpv</text>
<text x="0.119" y="0.189" font-size="0.002614" fill="hsl(0.0,100%,20%)">brettos</text>
<text x="1.760" y="0.663" font-size="0.015462" fill="hsl(0.0,100%,20%)">lukasza</text>
<text x="1.258" y="0.516" font-size="0.009054" fill="hsl(0.0,100%,20%)">kschmi</text>
<text x="1.132" y="0.547" font-size="0.005844" fill="hsl(180.0,100%,20%)">lokokung</text>
<text x="0.297" y="0.716" font-size="0.013830" fill="hsl(0.0,100%,20%)">mike</text>
<text x="0.999" y="0.456" font-size="0.004527" fill="hsl(180.0,100%,20%)">nigeltao</text>
<text x="0.597" y="0.761" font-size="0.012259" fill="hsl(180.0,100%,20%)">penghuang</text>
<text x="0.505" y="0.859" font-size="0.006915" fill="hsl(180.0,100%,20%)">petermcneeley</text>
<text x="1.417" y="0.531" font-size="0.009054" fill="hsl(180.0,100%,20%)">sky</text>
<text x="1.747" y="0.256" font-size="0.012804" fill="hsl(180.0,100%,20%)">sunnyps</text>
<text x="1.582" y="0.180" font-size="0.005227" fill="hsl(180.0,100%,20%)">tangm</text>
<text x="0.162" y="0.357" font-size="0.006915" fill="hsl(0.0,100%,20%)">vigneshv</text>
<text x="1.019" y="0.388" font-size="0.005844" fill="hsl(180.0,100%,20%)">zhusida</text>
</svg>
