<svg width="4000" height="2000" viewBox="-0.025 -0.025 2.05 1.05" xmlns="http://www.w3.org/2000/svg">
  <style>
    path {
      fill: none;
      stroke-linecap: round;
      stroke-opacity: 0.4;
    }

    text {
      text-anchor: middle;
      alignment-baseline: hanging;
    }
  </style>
  <g opacity="0.4">
<path d="M0.399 0.185 Q0.340 0.140 0.238 0.159" stroke="hsl(0.0,100%,35%)" stroke-width="0.00135"></path>
<path d="M0.399 0.185 Q0.531 0.431 1.040 0.420" stroke="hsl(0.0,100%,35%)" stroke-width="0.00067"></path>
<path d="M0.399 0.185 Q1.028 0.338 1.465 0.064" stroke="hsl(0.0,100%,35%)" stroke-width="0.00067"></path>
<path d="M0.238 0.159 Q-0.050 0.434 0.423 0.635" stroke="hsl(0.0,100%,35%)" stroke-width="0.00606"></path>
<path d="M0.238 0.159 Q0.417 0.245 0.624 0.177" stroke="hsl(0.0,100%,35%)" stroke-width="0.01616"></path>
<path d="M0.238 0.159 Q0.371 0.233 0.544 0.185" stroke="hsl(0.0,100%,35%)" stroke-width="0.00135"></path>
<path d="M0.238 0.159 Q0.217 0.235 0.360 0.262" stroke="hsl(0.0,100%,35%)" stroke-width="0.00808"></path>
<path d="M0.238 0.159 Q0.600 0.281 0.917 0.132" stroke="hsl(0.0,100%,35%)" stroke-width="0.00067"></path>
<path d="M0.238 0.159 Q-0.126 0.358 0.182 0.579" stroke="hsl(0.0,100%,35%)" stroke-width="0.00337"></path>
<path d="M0.238 0.159 Q-0.311 0.475 0.185 0.812" stroke="hsl(0.0,100%,35%)" stroke-width="0.00337"></path>
<path d="M0.238 0.159 Q0.405 0.328 0.773 0.284" stroke="hsl(0.0,100%,35%)" stroke-width="0.00337"></path>
<path d="M0.238 0.159 Q0.303 0.652 1.279 0.729" stroke="hsl(0.0,100%,35%)" stroke-width="0.00202"></path>
<path d="M1.040 0.420 Q1.537 0.327 1.465 0.064" stroke="hsl(180.0,100%,35%)" stroke-width="0.00875"></path>
<path d="M1.040 0.420 Q1.527 0.437 1.665 0.203" stroke="hsl(180.0,100%,35%)" stroke-width="0.00471"></path>
<path d="M1.040 0.420 Q0.768 0.429 0.726 0.564" stroke="hsl(180.0,100%,35%)" stroke-width="0.00067"></path>
<path d="M1.040 0.420 Q0.849 0.129 0.238 0.159" stroke="hsl(180.0,100%,35%)" stroke-width="0.00067"></path>
<path d="M1.040 0.420 Q1.360 0.282 1.161 0.096" stroke="hsl(180.0,100%,35%)" stroke-width="0.00135"></path>
<path d="M1.040 0.420 Q1.210 0.252 0.917 0.132" stroke="hsl(180.0,100%,35%)" stroke-width="0.00202"></path>
<path d="M1.040 0.420 Q1.264 0.402 1.276 0.288" stroke="hsl(180.0,100%,35%)" stroke-width="0.00067"></path>
<path d="M1.465 0.064 Q1.288 0.019 1.161 0.096" stroke="hsl(180.0,100%,35%)" stroke-width="0.00808"></path>
<path d="M1.465 0.064 Q1.137 -0.012 0.917 0.132" stroke="hsl(180.0,100%,35%)" stroke-width="0.01212"></path>
<path d="M1.465 0.064 Q1.454 0.174 1.665 0.203" stroke="hsl(180.0,100%,35%)" stroke-width="0.01212"></path>
<path d="M1.465 0.064 Q0.967 0.157 1.040 0.420" stroke="hsl(180.0,100%,35%)" stroke-width="0.01010"></path>
<path d="M1.465 0.064 Q0.487 0.142 0.423 0.635" stroke="hsl(180.0,100%,35%)" stroke-width="0.00539"></path>
<path d="M1.465 0.064 Q0.754 -0.058 0.360 0.262" stroke="hsl(180.0,100%,35%)" stroke-width="0.00067"></path>
<path d="M1.465 0.064 Q1.191 0.139 1.276 0.288" stroke="hsl(180.0,100%,35%)" stroke-width="0.00404"></path>
<path d="M1.465 0.064 Q0.776 -0.134 0.238 0.159" stroke="hsl(180.0,100%,35%)" stroke-width="0.00067"></path>
<path d="M1.465 0.064 Q0.226 0.182 0.185 0.812" stroke="hsl(180.0,100%,35%)" stroke-width="0.00067"></path>
<path d="M1.465 0.064 Q1.158 0.064 1.089 0.213" stroke="hsl(180.0,100%,35%)" stroke-width="0.00067"></path>
<path d="M1.239 0.147 Q1.241 0.106 1.161 0.096" stroke="hsl(180.0,100%,35%)" stroke-width="0.00067"></path>
<path d="M1.239 0.147 Q1.418 0.151 1.465 0.064" stroke="hsl(180.0,100%,35%)" stroke-width="0.00135"></path>
<path d="M1.239 0.147 Q0.921 0.244 1.040 0.420" stroke="hsl(180.0,100%,35%)" stroke-width="0.00067"></path>
<path d="M1.161 0.096 Q1.010 0.065 0.917 0.132" stroke="hsl(180.0,100%,35%)" stroke-width="0.03030"></path>
<path d="M1.161 0.096 Q1.338 0.141 1.465 0.064" stroke="hsl(180.0,100%,35%)" stroke-width="0.01481"></path>
<path d="M1.161 0.096 Q0.841 0.234 1.040 0.420" stroke="hsl(180.0,100%,35%)" stroke-width="0.00269"></path>
<path d="M1.161 0.096 Q1.064 0.215 1.276 0.288" stroke="hsl(180.0,100%,35%)" stroke-width="0.00202"></path>
<path d="M1.161 0.096 Q0.627 0.019 0.360 0.262" stroke="hsl(180.0,100%,35%)" stroke-width="0.00067"></path>
<path d="M1.161 0.096 Q1.327 0.250 1.665 0.203" stroke="hsl(180.0,100%,35%)" stroke-width="0.00269"></path>
<path d="M1.161 0.096 Q0.782 0.017 0.544 0.185" stroke="hsl(180.0,100%,35%)" stroke-width="0.00067"></path>
<path d="M1.161 0.096 Q1.031 0.140 1.089 0.213" stroke="hsl(180.0,100%,35%)" stroke-width="0.00202"></path>
<path d="M1.161 0.096 Q0.360 0.218 0.423 0.635" stroke="hsl(180.0,100%,35%)" stroke-width="0.00337"></path>
<path d="M0.182 0.579 Q0.738 0.671 1.040 0.420" stroke="hsl(0.0,100%,35%)" stroke-width="0.00067"></path>
<path d="M0.182 0.579 Q0.258 0.656 0.423 0.635" stroke="hsl(0.0,100%,35%)" stroke-width="0.01683"></path>
<path d="M0.182 0.579 Q0.908 0.503 0.917 0.132" stroke="hsl(0.0,100%,35%)" stroke-width="0.00135"></path>
<path d="M0.182 0.579 Q1.235 0.578 1.465 0.064" stroke="hsl(0.0,100%,35%)" stroke-width="0.00067"></path>
<path d="M0.182 0.579 Q0.546 0.380 0.238 0.159" stroke="hsl(0.0,100%,35%)" stroke-width="0.00202"></path>
<path d="M0.182 0.579 Q-0.003 0.696 0.185 0.812" stroke="hsl(0.0,100%,35%)" stroke-width="0.00135"></path>
<path d="M0.182 0.579 Q0.525 0.456 0.360 0.262" stroke="hsl(0.0,100%,35%)" stroke-width="0.00269"></path>
<path d="M0.423 0.635 Q1.401 0.558 1.465 0.064" stroke="hsl(0.0,100%,35%)" stroke-width="0.01279"></path>
<path d="M0.423 0.635 Q0.348 0.559 0.182 0.579" stroke="hsl(0.0,100%,35%)" stroke-width="0.01279"></path>
<path d="M0.423 0.635 Q1.224 0.513 1.161 0.096" stroke="hsl(0.0,100%,35%)" stroke-width="0.00337"></path>
<path d="M0.423 0.635 Q0.712 0.360 0.238 0.159" stroke="hsl(0.0,100%,35%)" stroke-width="0.01212"></path>
<path d="M0.423 0.635 Q0.163 0.676 0.185 0.812" stroke="hsl(0.0,100%,35%)" stroke-width="0.01952"></path>
<path d="M0.423 0.635 Q0.690 0.436 0.360 0.262" stroke="hsl(0.0,100%,35%)" stroke-width="0.01750"></path>
<path d="M0.423 0.635 Q1.390 0.667 1.665 0.203" stroke="hsl(0.0,100%,35%)" stroke-width="0.00471"></path>
<path d="M0.423 0.635 Q0.431 0.712 0.581 0.725" stroke="hsl(0.0,100%,35%)" stroke-width="0.00202"></path>
<path d="M0.423 0.635 Q0.904 0.651 1.040 0.420" stroke="hsl(0.0,100%,35%)" stroke-width="0.00404"></path>
<path d="M0.423 0.635 Q1.073 0.482 0.917 0.132" stroke="hsl(0.0,100%,35%)" stroke-width="0.00202"></path>
<path d="M0.423 0.635 Q0.400 0.526 0.181 0.513" stroke="hsl(0.0,100%,35%)" stroke-width="0.00067"></path>
<path d="M0.423 0.635 Q0.632 0.660 0.726 0.564" stroke="hsl(0.0,100%,35%)" stroke-width="0.00337"></path>
<path d="M0.423 0.635 Q0.879 0.530 0.773 0.284" stroke="hsl(0.0,100%,35%)" stroke-width="0.00067"></path>
<path d="M0.423 0.635 Q0.890 0.446 0.624 0.177" stroke="hsl(0.0,100%,35%)" stroke-width="0.00067"></path>
<path d="M0.917 0.132 Q1.245 0.207 1.465 0.064" stroke="hsl(180.0,100%,35%)" stroke-width="0.02828"></path>
<path d="M0.917 0.132 Q0.275 0.361 0.581 0.725" stroke="hsl(180.0,100%,35%)" stroke-width="0.00067"></path>
<path d="M0.917 0.132 Q0.556 0.010 0.238 0.159" stroke="hsl(180.0,100%,35%)" stroke-width="0.00202"></path>
<path d="M0.917 0.132 Q0.748 0.301 1.040 0.420" stroke="hsl(180.0,100%,35%)" stroke-width="0.00269"></path>
<path d="M0.917 0.132 Q1.068 0.162 1.161 0.096" stroke="hsl(180.0,100%,35%)" stroke-width="0.01616"></path>
<path d="M0.917 0.132 Q1.234 0.317 1.665 0.203" stroke="hsl(180.0,100%,35%)" stroke-width="0.00269"></path>
<path d="M0.917 0.132 Q0.534 0.086 0.360 0.262" stroke="hsl(180.0,100%,35%)" stroke-width="0.00135"></path>
<path d="M0.917 0.132 Q0.971 0.282 1.276 0.288" stroke="hsl(180.0,100%,35%)" stroke-width="0.00067"></path>
<path d="M0.185 0.812 Q1.424 0.694 1.465 0.064" stroke="hsl(0.0,100%,35%)" stroke-width="0.00471"></path>
<path d="M0.185 0.812 Q0.713 0.572 0.360 0.262" stroke="hsl(0.0,100%,35%)" stroke-width="0.01077"></path>
<path d="M0.185 0.812 Q0.446 0.772 0.423 0.635" stroke="hsl(0.0,100%,35%)" stroke-width="0.00539"></path>
<path d="M0.185 0.812 Q1.096 0.619 0.917 0.132" stroke="hsl(0.0,100%,35%)" stroke-width="0.00135"></path>
<path d="M0.185 0.812 Q0.913 0.582 0.624 0.177" stroke="hsl(0.0,100%,35%)" stroke-width="0.00067"></path>
<path d="M0.360 0.262 Q1.060 0.493 1.665 0.203" stroke="hsl(0.0,100%,35%)" stroke-width="0.00067"></path>
<path d="M0.360 0.262 Q0.093 0.462 0.423 0.635" stroke="hsl(0.0,100%,35%)" stroke-width="0.00673"></path>
<path d="M0.360 0.262 Q1.071 0.384 1.465 0.064" stroke="hsl(0.0,100%,35%)" stroke-width="0.00067"></path>
<path d="M0.360 0.262 Q-0.168 0.502 0.185 0.812" stroke="hsl(0.0,100%,35%)" stroke-width="0.00269"></path>
<path d="M0.360 0.262 Q0.206 0.294 0.234 0.376" stroke="hsl(0.0,100%,35%)" stroke-width="0.00337"></path>
<path d="M0.360 0.262 Q0.302 0.486 0.726 0.564" stroke="hsl(0.0,100%,35%)" stroke-width="0.00067"></path>
<path d="M0.360 0.262 Q0.446 0.679 1.279 0.729" stroke="hsl(0.0,100%,35%)" stroke-width="0.00067"></path>
<path d="M0.360 0.262 Q0.743 0.308 0.917 0.132" stroke="hsl(0.0,100%,35%)" stroke-width="0.00202"></path>
<path d="M0.360 0.262 Q0.017 0.385 0.182 0.579" stroke="hsl(0.0,100%,35%)" stroke-width="0.00067"></path>
<path d="M0.966 0.522 Q1.085 0.486 1.040 0.420" stroke="hsl(180.0,100%,35%)" stroke-width="0.00337"></path>
<path d="M0.966 0.522 Q1.582 0.393 1.465 0.064" stroke="hsl(180.0,100%,35%)" stroke-width="0.00269"></path>
<path d="M0.966 0.522 Q0.871 0.271 0.360 0.262" stroke="hsl(180.0,100%,35%)" stroke-width="0.00135"></path>
<path d="M0.966 0.522 Q0.604 0.470 0.423 0.635" stroke="hsl(180.0,100%,35%)" stroke-width="0.00404"></path>
<path d="M0.966 0.522 Q1.571 0.502 1.665 0.203" stroke="hsl(180.0,100%,35%)" stroke-width="0.00067"></path>
<path d="M1.665 0.203 Q1.178 0.187 1.040 0.420" stroke="hsl(180.0,100%,35%)" stroke-width="0.00539"></path>
<path d="M1.665 0.203 Q1.348 0.018 0.917 0.132" stroke="hsl(180.0,100%,35%)" stroke-width="0.00135"></path>
<path d="M1.665 0.203 Q1.676 0.093 1.465 0.064" stroke="hsl(180.0,100%,35%)" stroke-width="0.00606"></path>
<path d="M1.665 0.203 Q1.499 0.048 1.161 0.096" stroke="hsl(180.0,100%,35%)" stroke-width="0.00202"></path>
<path d="M1.665 0.203 Q0.698 0.171 0.423 0.635" stroke="hsl(180.0,100%,35%)" stroke-width="0.00202"></path>
<path d="M1.665 0.203 Q1.051 0.389 1.279 0.729" stroke="hsl(180.0,100%,35%)" stroke-width="0.00067"></path>
<path d="M1.665 0.203 Q1.402 0.168 1.276 0.288" stroke="hsl(180.0,100%,35%)" stroke-width="0.00135"></path>
<path d="M1.665 0.203 Q1.369 0.093 1.089 0.213" stroke="hsl(180.0,100%,35%)" stroke-width="0.00067"></path>
<path d="M0.624 0.177 Q0.446 0.091 0.238 0.159" stroke="hsl(0.0,100%,35%)" stroke-width="0.00269"></path>
<path d="M0.624 0.177 Q0.157 0.366 0.423 0.635" stroke="hsl(0.0,100%,35%)" stroke-width="0.00404"></path>
<path d="M0.624 0.177 Q0.164 0.443 0.581 0.725" stroke="hsl(0.0,100%,35%)" stroke-width="0.00067"></path>
<path d="M0.773 0.284 Q0.606 0.115 0.238 0.159" stroke="hsl(0.0,100%,35%)" stroke-width="0.00808"></path>
<path d="M0.773 0.284 Q0.317 0.390 0.423 0.635" stroke="hsl(0.0,100%,35%)" stroke-width="0.00539"></path>
<path d="M0.773 0.284 Q1.021 0.387 1.276 0.288" stroke="hsl(0.0,100%,35%)" stroke-width="0.00067"></path>
<path d="M1.279 0.729 Q1.904 0.434 1.465 0.064" stroke="hsl(180.0,100%,35%)" stroke-width="0.00135"></path>
<path d="M1.279 0.729 Q1.135 0.536 0.726 0.564" stroke="hsl(180.0,100%,35%)" stroke-width="0.00067"></path>
<path d="M1.279 0.729 Q1.406 0.527 1.040 0.420" stroke="hsl(180.0,100%,35%)" stroke-width="0.00404"></path>
<path d="M1.279 0.729 Q1.893 0.543 1.665 0.203" stroke="hsl(180.0,100%,35%)" stroke-width="0.00135"></path>
<path d="M1.279 0.729 Q0.926 0.511 0.423 0.635" stroke="hsl(180.0,100%,35%)" stroke-width="0.00067"></path>
<path d="M1.279 0.729 Q1.215 0.236 0.238 0.159" stroke="hsl(180.0,100%,35%)" stroke-width="0.00135"></path>
<path d="M1.279 0.729 Q1.470 0.759 1.570 0.672" stroke="hsl(180.0,100%,35%)" stroke-width="0.00067"></path>
<path d="M1.279 0.729 Q0.665 0.552 0.185 0.812" stroke="hsl(180.0,100%,35%)" stroke-width="0.00067"></path>
<path d="M0.672 0.299 Q0.567 0.142 0.238 0.159" stroke="hsl(0.0,100%,35%)" stroke-width="0.00135"></path>
<path d="M0.672 0.299 Q0.545 0.218 0.360 0.262" stroke="hsl(0.0,100%,35%)" stroke-width="0.00135"></path>
<path d="M0.672 0.299 Q0.759 0.433 1.040 0.420" stroke="hsl(0.0,100%,35%)" stroke-width="0.00067"></path>
<path d="M0.672 0.299 Q1.079 0.295 1.161 0.096" stroke="hsl(0.0,100%,35%)" stroke-width="0.00067"></path>
<path d="M1.276 0.288 Q1.222 0.138 0.917 0.132" stroke="hsl(180.0,100%,35%)" stroke-width="0.00875"></path>
<path d="M1.276 0.288 Q1.550 0.214 1.465 0.064" stroke="hsl(180.0,100%,35%)" stroke-width="0.01279"></path>
<path d="M1.276 0.288 Q1.373 0.169 1.161 0.096" stroke="hsl(180.0,100%,35%)" stroke-width="0.00135"></path>
<path d="M1.276 0.288 Q0.572 0.291 0.423 0.635" stroke="hsl(180.0,100%,35%)" stroke-width="0.00135"></path>
<path d="M1.276 0.288 Q1.052 0.307 1.040 0.420" stroke="hsl(180.0,100%,35%)" stroke-width="0.00067"></path>
<path d="M0.726 0.564 Q0.997 0.555 1.040 0.420" stroke="hsl(0.0,100%,35%)" stroke-width="0.00202"></path>
<path d="M0.726 0.564 Q0.517 0.539 0.423 0.635" stroke="hsl(0.0,100%,35%)" stroke-width="0.00337"></path>
<path d="M0.726 0.564 Q0.806 0.264 0.238 0.159" stroke="hsl(0.0,100%,35%)" stroke-width="0.00067"></path>
<path d="M0.726 0.564 Q1.495 0.462 1.465 0.064" stroke="hsl(0.0,100%,35%)" stroke-width="0.00067"></path>
<path d="M1.533 0.330 Q1.535 0.138 1.161 0.096" stroke="hsl(180.0,100%,35%)" stroke-width="0.00135"></path>
<path d="M1.533 0.330 Q1.712 0.183 1.465 0.064" stroke="hsl(180.0,100%,35%)" stroke-width="0.00404"></path>
<path d="M1.533 0.330 Q1.701 0.293 1.665 0.203" stroke="hsl(180.0,100%,35%)" stroke-width="0.00067"></path>
<path d="M1.471 0.475 Q1.796 0.268 1.465 0.064" stroke="hsl(180.0,100%,35%)" stroke-width="0.00337"></path>
<path d="M1.471 0.475 Q1.785 0.378 1.665 0.203" stroke="hsl(180.0,100%,35%)" stroke-width="0.00269"></path>
<path d="M1.471 0.475 Q1.522 0.343 1.276 0.288" stroke="hsl(180.0,100%,35%)" stroke-width="0.00202"></path>
<path d="M1.471 0.475 Q1.619 0.223 1.161 0.096" stroke="hsl(180.0,100%,35%)" stroke-width="0.00067"></path>
<path d="M1.471 0.475 Q1.468 0.193 0.917 0.132" stroke="hsl(180.0,100%,35%)" stroke-width="0.00067"></path>
<path d="M0.477 0.411 Q0.270 0.512 0.423 0.635" stroke="hsl(0.0,100%,35%)" stroke-width="0.00943"></path>
<path d="M0.477 0.411 Q0.537 0.313 0.360 0.262" stroke="hsl(0.0,100%,35%)" stroke-width="0.01616"></path>
<path d="M0.477 0.411 Q1.071 0.390 1.161 0.096" stroke="hsl(0.0,100%,35%)" stroke-width="0.00067"></path>
<path d="M0.551 0.319 Q0.501 0.253 0.360 0.262" stroke="hsl(0.0,100%,35%)" stroke-width="0.00202"></path>
<path d="M0.551 0.319 Q1.212 0.374 1.465 0.064" stroke="hsl(0.0,100%,35%)" stroke-width="0.00067"></path>
<path d="M0.551 0.319 Q0.234 0.452 0.423 0.635" stroke="hsl(0.0,100%,35%)" stroke-width="0.00135"></path>
<path d="M1.779 0.604 Q1.429 0.567 1.279 0.729" stroke="hsl(180.0,100%,35%)" stroke-width="0.00539"></path>
<path d="M1.779 0.604 Q1.285 0.373 0.726 0.564" stroke="hsl(180.0,100%,35%)" stroke-width="0.00067"></path>
<path d="M1.779 0.604 Q1.076 0.349 0.423 0.635" stroke="hsl(180.0,100%,35%)" stroke-width="0.00135"></path>
<path d="M1.816 0.330 Q1.853 0.127 1.465 0.064" stroke="hsl(180.0,100%,35%)" stroke-width="0.00135"></path>
<path d="M1.816 0.330 Q1.842 0.236 1.665 0.203" stroke="hsl(180.0,100%,35%)" stroke-width="0.00135"></path>
<path d="M1.816 0.330 Q1.676 0.082 1.161 0.096" stroke="hsl(180.0,100%,35%)" stroke-width="0.00067"></path>
<path d="M1.816 0.330 Q1.525 0.051 0.917 0.132" stroke="hsl(180.0,100%,35%)" stroke-width="0.00067"></path>
</g>
<text x="0.399" y="0.180" font-size="0.009835" fill="hsl(0.0,100%,20%)">aperez</text>
<text x="0.238" y="0.133" font-size="0.052736" fill="hsl(0.0,100%,20%)">bungeman</text>
<text x="1.040" y="0.398" font-size="0.045071" fill="hsl(180.0,100%,20%)">egdaniel</text>
<text x="1.465" y="0.026" font-size="0.075867" fill="hsl(180.0,100%,20%)">michaelludwig</text>
<text x="1.239" y="0.142" font-size="0.009835" fill="hsl(180.0,100%,20%)">beaufort.francois</text>
<text x="1.161" y="0.066" font-size="0.058807" fill="hsl(180.0,100%,20%)">jvanverth</text>
<text x="0.182" y="0.560" font-size="0.039033" fill="hsl(0.0,100%,20%)">borenet</text>
<text x="0.423" y="0.596" font-size="0.078837" fill="hsl(0.0,100%,20%)">kjlubick</text>
<text x="0.917" y="0.099" font-size="0.065055" fill="hsl(180.0,100%,20%)">robertphillips</text>
<text x="0.185" y="0.791" font-size="0.042872" fill="hsl(0.0,100%,20%)">danieldilan</text>
<text x="0.360" y="0.235" font-size="0.053871" fill="hsl(0.0,100%,20%)">fmalita</text>
<text x="0.966" y="0.512" font-size="0.020864" fill="hsl(180.0,100%,20%)">briansalomon</text>
<text x="1.665" y="0.181" font-size="0.043985" fill="hsl(180.0,100%,20%)">nicolettep</text>
<text x="0.624" y="0.162" font-size="0.029913" fill="hsl(0.0,100%,20%)">jlavrova</text>
<text x="0.544" y="0.180" font-size="0.008518" fill="hsl(0.0,100%,20%)">brettos</text>
<text x="0.773" y="0.272" font-size="0.025553" fill="hsl(0.0,100%,20%)">drott</text>
<text x="1.279" y="0.716" font-size="0.026483" fill="hsl(180.0,100%,20%)">nscobie</text>
<text x="0.672" y="0.293" font-size="0.012046" fill="hsl(0.0,100%,20%)">coldpalelight</text>
<text x="1.276" y="0.270" font-size="0.036138" fill="hsl(180.0,100%,20%)">jamesgk</text>
<text x="0.726" y="0.553" font-size="0.021436" fill="hsl(0.0,100%,20%)">jmbetancourt</text>
<text x="0.234" y="0.371" font-size="0.010996" fill="hsl(0.0,100%,20%)">bwils</text>
<text x="0.581" y="0.720" font-size="0.010996" fill="hsl(0.0,100%,20%)">maxhudnell</text>
<text x="1.089" y="0.208" font-size="0.010996" fill="hsl(180.0,100%,20%)">thomsmit</text>
<text x="0.181" y="0.511" font-size="0.004918" fill="hsl(0.0,100%,20%)">rmistry</text>
<text x="1.533" y="0.323" font-size="0.014753" fill="hsl(180.0,100%,20%)">kylechar</text>
<text x="1.471" y="0.465" font-size="0.018400" fill="hsl(180.0,100%,20%)">lokokung</text>
<text x="0.477" y="0.395" font-size="0.030711" fill="hsl(0.0,100%,20%)">lukasza</text>
<text x="0.551" y="0.313" font-size="0.012046" fill="hsl(0.0,100%,20%)">mike</text>
<text x="1.570" y="0.670" font-size="0.004918" fill="hsl(180.0,100%,20%)">ccameron</text>
<text x="1.779" y="0.596" font-size="0.016310" fill="hsl(180.0,100%,20%)">vigneshv</text>
<text x="1.816" y="0.324" font-size="0.012046" fill="hsl(180.0,100%,20%)">zengyonghust</text>
</svg>
