<svg width="4000" height="2000" viewBox="-0.025 -0.025 2.05 1.05" xmlns="http://www.w3.org/2000/svg">
  <style>
    path {
      fill: none;
      stroke-linecap: round;
      stroke-opacity: 0.4;
    }

    text {
      text-anchor: middle;
      alignment-baseline: hanging;
    }
  </style>
  <g opacity="0.4">
<path d="M0.041 0.440 Q0.705 0.594 1.149 0.304" stroke="hsl(0.0,100%,35%)" stroke-width="0.00579"></path>
<path d="M0.041 0.440 Q0.574 0.650 1.099 0.436" stroke="hsl(0.0,100%,35%)" stroke-width="0.00783"></path>
<path d="M0.041 0.440 Q0.850 0.500 1.144 0.118" stroke="hsl(0.0,100%,35%)" stroke-width="0.00051"></path>
<path d="M0.041 0.440 Q0.228 0.373 0.138 0.267" stroke="hsl(0.0,100%,35%)" stroke-width="0.00375"></path>
<path d="M0.041 0.440 Q0.520 0.532 0.804 0.319" stroke="hsl(0.0,100%,35%)" stroke-width="0.00068"></path>
<path d="M0.041 0.440 Q0.736 0.682 1.360 0.396" stroke="hsl(0.0,100%,35%)" stroke-width="0.00051"></path>
<path d="M0.041 0.440 Q0.080 0.922 1.030 1.009" stroke="hsl(0.0,100%,35%)" stroke-width="0.00119"></path>
<path d="M0.041 0.440 Q0.191 0.446 0.235 0.374" stroke="hsl(0.0,100%,35%)" stroke-width="0.00170"></path>
<path d="M0.041 0.440 Q0.707 0.787 1.530 0.538" stroke="hsl(0.0,100%,35%)" stroke-width="0.00017"></path>
<path d="M0.041 0.440 Q0.425 0.478 0.583 0.300" stroke="hsl(0.0,100%,35%)" stroke-width="0.00017"></path>
<path d="M1.149 0.304 Q1.019 0.360 1.099 0.436" stroke="hsl(180.0,100%,35%)" stroke-width="0.01039"></path>
<path d="M1.149 0.304 Q0.782 0.296 0.687 0.474" stroke="hsl(180.0,100%,35%)" stroke-width="0.00732"></path>
<path d="M1.149 0.304 Q0.673 0.083 0.138 0.267" stroke="hsl(180.0,100%,35%)" stroke-width="0.00170"></path>
<path d="M1.149 0.304 Q1.181 0.392 1.360 0.396" stroke="hsl(180.0,100%,35%)" stroke-width="0.00409"></path>
<path d="M1.149 0.304 Q0.486 0.150 0.041 0.440" stroke="hsl(180.0,100%,35%)" stroke-width="0.00409"></path>
<path d="M1.149 0.304 Q0.525 0.632 1.030 1.009" stroke="hsl(180.0,100%,35%)" stroke-width="0.00085"></path>
<path d="M1.149 0.304 Q0.965 0.242 0.804 0.319" stroke="hsl(180.0,100%,35%)" stroke-width="0.00511"></path>
<path d="M1.149 0.304 Q0.636 0.156 0.235 0.374" stroke="hsl(180.0,100%,35%)" stroke-width="0.00613"></path>
<path d="M1.149 0.304 Q0.725 0.538 1.089 0.796" stroke="hsl(180.0,100%,35%)" stroke-width="0.00068"></path>
<path d="M1.149 0.304 Q0.654 0.465 0.859 0.742" stroke="hsl(180.0,100%,35%)" stroke-width="0.00034"></path>
<path d="M1.149 0.304 Q0.870 0.189 0.583 0.300" stroke="hsl(180.0,100%,35%)" stroke-width="0.00136"></path>
<path d="M1.149 0.304 Q0.869 0.721 1.621 0.950" stroke="hsl(180.0,100%,35%)" stroke-width="0.00017"></path>
<path d="M1.149 0.304 Q1.295 0.210 1.144 0.118" stroke="hsl(180.0,100%,35%)" stroke-width="0.00647"></path>
<path d="M1.149 0.304 Q1.616 0.385 1.877 0.175" stroke="hsl(180.0,100%,35%)" stroke-width="0.00068"></path>
<path d="M1.099 0.436 Q1.262 0.468 1.360 0.396" stroke="hsl(180.0,100%,35%)" stroke-width="0.00375"></path>
<path d="M1.099 0.436 Q0.862 0.372 0.687 0.474" stroke="hsl(180.0,100%,35%)" stroke-width="0.02027"></path>
<path d="M1.099 0.436 Q0.716 0.232 0.235 0.374" stroke="hsl(180.0,100%,35%)" stroke-width="0.01550"></path>
<path d="M1.099 0.436 Q1.045 0.318 0.804 0.319" stroke="hsl(180.0,100%,35%)" stroke-width="0.00136"></path>
<path d="M1.099 0.436 Q1.230 0.380 1.149 0.304" stroke="hsl(180.0,100%,35%)" stroke-width="0.00358"></path>
<path d="M1.099 0.436 Q0.566 0.226 0.041 0.440" stroke="hsl(180.0,100%,35%)" stroke-width="0.00170"></path>
<path d="M1.099 0.436 Q0.753 0.159 0.138 0.267" stroke="hsl(180.0,100%,35%)" stroke-width="0.00290"></path>
<path d="M1.099 0.436 Q1.375 0.286 1.144 0.118" stroke="hsl(180.0,100%,35%)" stroke-width="0.00221"></path>
<path d="M1.099 0.436 Q0.950 0.265 0.583 0.300" stroke="hsl(180.0,100%,35%)" stroke-width="0.00119"></path>
<path d="M1.099 0.436 Q0.805 0.614 1.089 0.796" stroke="hsl(180.0,100%,35%)" stroke-width="0.00017"></path>
<path d="M1.099 0.436 Q0.606 0.708 1.030 1.009" stroke="hsl(180.0,100%,35%)" stroke-width="0.00068"></path>
<path d="M1.099 0.436 Q1.696 0.461 1.877 0.175" stroke="hsl(180.0,100%,35%)" stroke-width="0.00034"></path>
<path d="M1.144 0.118 Q0.813 0.151 0.804 0.319" stroke="hsl(180.0,100%,35%)" stroke-width="0.00392"></path>
<path d="M1.144 0.118 Q0.522 -0.008 0.138 0.267" stroke="hsl(180.0,100%,35%)" stroke-width="0.00051"></path>
<path d="M1.144 0.118 Q0.374 0.541 1.030 1.009" stroke="hsl(180.0,100%,35%)" stroke-width="0.00102"></path>
<path d="M1.144 0.118 Q0.631 0.205 0.687 0.474" stroke="hsl(180.0,100%,35%)" stroke-width="0.00102"></path>
<path d="M1.144 0.118 Q0.998 0.212 1.149 0.304" stroke="hsl(180.0,100%,35%)" stroke-width="0.00511"></path>
<path d="M1.144 0.118 Q0.484 0.064 0.235 0.374" stroke="hsl(180.0,100%,35%)" stroke-width="0.00017"></path>
<path d="M1.144 0.118 Q1.030 0.300 1.360 0.396" stroke="hsl(180.0,100%,35%)" stroke-width="0.00034"></path>
<path d="M1.144 0.118 Q0.797 0.621 1.702 0.900" stroke="hsl(180.0,100%,35%)" stroke-width="0.00017"></path>
<path d="M1.144 0.118 Q0.867 0.268 1.099 0.436" stroke="hsl(180.0,100%,35%)" stroke-width="0.00051"></path>
<path d="M1.144 0.118 Q0.718 0.097 0.583 0.300" stroke="hsl(180.0,100%,35%)" stroke-width="0.00017"></path>
<path d="M1.144 0.118 Q1.487 0.233 1.787 0.091" stroke="hsl(180.0,100%,35%)" stroke-width="0.00017"></path>
<path d="M0.138 0.267 Q0.101 0.340 0.235 0.374" stroke="hsl(0.0,100%,35%)" stroke-width="0.06302"></path>
<path d="M0.138 0.267 Q0.247 0.480 0.687 0.474" stroke="hsl(0.0,100%,35%)" stroke-width="0.00341"></path>
<path d="M0.138 0.267 Q-0.010 0.816 1.030 1.009" stroke="hsl(0.0,100%,35%)" stroke-width="0.01107"></path>
<path d="M0.138 0.267 Q0.615 0.488 1.149 0.304" stroke="hsl(0.0,100%,35%)" stroke-width="0.00511"></path>
<path d="M0.138 0.267 Q0.335 0.372 0.583 0.300" stroke="hsl(0.0,100%,35%)" stroke-width="0.00903"></path>
<path d="M0.138 0.267 Q-0.049 0.334 0.041 0.440" stroke="hsl(0.0,100%,35%)" stroke-width="0.02487"></path>
<path d="M0.138 0.267 Q0.190 0.722 1.089 0.796" stroke="hsl(0.0,100%,35%)" stroke-width="0.00136"></path>
<path d="M0.138 0.267 Q0.484 0.544 1.099 0.436" stroke="hsl(0.0,100%,35%)" stroke-width="0.01243"></path>
<path d="M0.138 0.267 Q1.081 0.569 1.877 0.175" stroke="hsl(0.0,100%,35%)" stroke-width="0.00085"></path>
<path d="M0.138 0.267 Q0.430 0.426 0.804 0.319" stroke="hsl(0.0,100%,35%)" stroke-width="0.00528"></path>
<path d="M0.138 0.267 Q0.647 0.576 1.360 0.396" stroke="hsl(0.0,100%,35%)" stroke-width="0.00511"></path>
<path d="M0.138 0.267 Q0.760 0.394 1.144 0.118" stroke="hsl(0.0,100%,35%)" stroke-width="0.00818"></path>
<path d="M0.138 0.267 Q1.104 0.509 1.787 0.091" stroke="hsl(0.0,100%,35%)" stroke-width="0.00051"></path>
<path d="M0.138 0.267 Q0.414 0.896 1.702 0.900" stroke="hsl(0.0,100%,35%)" stroke-width="0.00119"></path>
<path d="M0.138 0.267 Q0.186 0.855 1.343 0.960" stroke="hsl(0.0,100%,35%)" stroke-width="0.00034"></path>
<path d="M0.138 0.267 Q0.334 0.905 1.621 0.950" stroke="hsl(0.0,100%,35%)" stroke-width="0.00034"></path>
<path d="M0.138 0.267 Q0.635 0.848 1.878 0.734" stroke="hsl(0.0,100%,35%)" stroke-width="0.00017"></path>
<path d="M0.138 0.267 Q0.452 0.707 1.378 0.650" stroke="hsl(0.0,100%,35%)" stroke-width="0.00051"></path>
<path d="M0.138 0.267 Q0.228 0.813 1.314 0.889" stroke="hsl(0.0,100%,35%)" stroke-width="0.00136"></path>
<path d="M0.138 0.267 Q0.224 0.901 1.479 0.998" stroke="hsl(0.0,100%,35%)" stroke-width="0.00051"></path>
<path d="M0.138 0.267 Q0.617 0.681 1.530 0.538" stroke="hsl(0.0,100%,35%)" stroke-width="0.00017"></path>
<path d="M0.138 0.267 Q0.119 0.649 0.859 0.742" stroke="hsl(0.0,100%,35%)" stroke-width="0.00034"></path>
<path d="M0.138 0.267 Q0.081 0.559 0.638 0.651" stroke="hsl(0.0,100%,35%)" stroke-width="0.00017"></path>
<path d="M0.804 0.319 Q0.513 0.160 0.138 0.267" stroke="hsl(180.0,100%,35%)" stroke-width="0.00051"></path>
<path d="M0.804 0.319 Q1.135 0.286 1.144 0.118" stroke="hsl(180.0,100%,35%)" stroke-width="0.00255"></path>
<path d="M0.804 0.319 Q0.476 0.233 0.235 0.374" stroke="hsl(180.0,100%,35%)" stroke-width="0.00085"></path>
<path d="M0.804 0.319 Q0.858 0.436 1.099 0.436" stroke="hsl(180.0,100%,35%)" stroke-width="0.00170"></path>
<path d="M0.804 0.319 Q1.021 0.469 1.360 0.396" stroke="hsl(180.0,100%,35%)" stroke-width="0.00068"></path>
<path d="M0.804 0.319 Q0.789 0.789 1.702 0.900" stroke="hsl(180.0,100%,35%)" stroke-width="0.00017"></path>
<path d="M0.804 0.319 Q0.989 0.380 1.149 0.304" stroke="hsl(180.0,100%,35%)" stroke-width="0.00187"></path>
<path d="M0.804 0.319 Q0.622 0.373 0.687 0.474" stroke="hsl(180.0,100%,35%)" stroke-width="0.00238"></path>
<path d="M0.804 0.319 Q0.365 0.709 1.030 1.009" stroke="hsl(180.0,100%,35%)" stroke-width="0.00034"></path>
<path d="M0.804 0.319 Q0.344 0.345 0.293 0.576" stroke="hsl(180.0,100%,35%)" stroke-width="0.00034"></path>
<path d="M1.360 0.396 Q1.197 0.363 1.099 0.436" stroke="hsl(180.0,100%,35%)" stroke-width="0.00528"></path>
<path d="M1.360 0.396 Q1.144 0.246 0.804 0.319" stroke="hsl(180.0,100%,35%)" stroke-width="0.00187"></path>
<path d="M1.360 0.396 Q0.815 0.160 0.235 0.374" stroke="hsl(180.0,100%,35%)" stroke-width="0.00085"></path>
<path d="M1.360 0.396 Q0.852 0.087 0.138 0.267" stroke="hsl(180.0,100%,35%)" stroke-width="0.00255"></path>
<path d="M1.360 0.396 Q1.328 0.308 1.149 0.304" stroke="hsl(180.0,100%,35%)" stroke-width="0.00187"></path>
<path d="M1.360 0.396 Q0.961 0.300 0.687 0.474" stroke="hsl(180.0,100%,35%)" stroke-width="0.00204"></path>
<path d="M1.360 0.396 Q0.665 0.154 0.041 0.440" stroke="hsl(180.0,100%,35%)" stroke-width="0.00017"></path>
<path d="M1.360 0.396 Q0.704 0.636 1.030 1.009" stroke="hsl(180.0,100%,35%)" stroke-width="0.00017"></path>
<path d="M1.360 0.396 Q0.942 0.633 1.314 0.889" stroke="hsl(180.0,100%,35%)" stroke-width="0.00017"></path>
<path d="M1.360 0.396 Q1.474 0.214 1.144 0.118" stroke="hsl(180.0,100%,35%)" stroke-width="0.00051"></path>
<path d="M1.360 0.396 Q1.047 0.725 1.621 0.950" stroke="hsl(180.0,100%,35%)" stroke-width="0.00017"></path>
<path d="M1.360 0.396 Q0.904 0.542 1.089 0.796" stroke="hsl(180.0,100%,35%)" stroke-width="0.00017"></path>
<path d="M1.030 1.009 Q1.799 0.586 1.144 0.118" stroke="hsl(0.0,100%,35%)" stroke-width="0.00255"></path>
<path d="M1.030 1.009 Q1.229 0.914 1.089 0.796" stroke="hsl(0.0,100%,35%)" stroke-width="0.01635"></path>
<path d="M1.030 1.009 Q2.120 0.762 1.877 0.175" stroke="hsl(0.0,100%,35%)" stroke-width="0.00255"></path>
<path d="M1.030 1.009 Q1.286 0.673 0.687 0.474" stroke="hsl(0.0,100%,35%)" stroke-width="0.00187"></path>
<path d="M1.030 1.009 Q1.469 0.619 0.804 0.319" stroke="hsl(0.0,100%,35%)" stroke-width="0.00477"></path>
<path d="M1.030 1.009 Q1.654 0.680 1.149 0.304" stroke="hsl(0.0,100%,35%)" stroke-width="0.00221"></path>
<path d="M1.030 1.009 Q1.523 0.736 1.099 0.436" stroke="hsl(0.0,100%,35%)" stroke-width="0.00664"></path>
<path d="M1.030 1.009 Q1.453 1.089 1.702 0.900" stroke="hsl(0.0,100%,35%)" stroke-width="0.00102"></path>
<path d="M1.030 1.009 Q1.263 1.093 1.479 0.998" stroke="hsl(0.0,100%,35%)" stroke-width="0.00136"></path>
<path d="M1.030 1.009 Q1.177 0.460 0.138 0.267" stroke="hsl(0.0,100%,35%)" stroke-width="0.00630"></path>
<path d="M1.030 1.009 Q1.656 0.873 1.530 0.538" stroke="hsl(0.0,100%,35%)" stroke-width="0.00477"></path>
<path d="M1.030 1.009 Q1.373 1.098 1.621 0.950" stroke="hsl(0.0,100%,35%)" stroke-width="0.00392"></path>
<path d="M1.030 1.009 Q1.140 0.533 0.235 0.374" stroke="hsl(0.0,100%,35%)" stroke-width="0.02146"></path>
<path d="M1.030 1.009 Q1.374 0.565 0.583 0.300" stroke="hsl(0.0,100%,35%)" stroke-width="0.00494"></path>
<path d="M1.030 1.009 Q1.158 0.841 0.859 0.742" stroke="hsl(0.0,100%,35%)" stroke-width="0.00170"></path>
<path d="M1.030 1.009 Q1.491 0.899 1.378 0.650" stroke="hsl(0.0,100%,35%)" stroke-width="0.00051"></path>
<path d="M1.030 1.009 Q2.143 0.702 1.787 0.091" stroke="hsl(0.0,100%,35%)" stroke-width="0.00068"></path>
<path d="M1.030 1.009 Q0.991 0.920 0.809 0.920" stroke="hsl(0.0,100%,35%)" stroke-width="0.00153"></path>
<path d="M1.030 1.009 Q1.373 1.032 1.493 0.869" stroke="hsl(0.0,100%,35%)" stroke-width="0.00034"></path>
<path d="M1.030 1.009 Q1.267 1.006 1.314 0.889" stroke="hsl(0.0,100%,35%)" stroke-width="0.00051"></path>
<path d="M1.030 1.009 Q0.990 0.527 0.041 0.440" stroke="hsl(0.0,100%,35%)" stroke-width="0.00068"></path>
<path d="M1.030 1.009 Q1.241 0.618 0.524 0.429" stroke="hsl(0.0,100%,35%)" stroke-width="0.00034"></path>
<path d="M1.030 1.009 Q1.225 1.047 1.343 0.960" stroke="hsl(0.0,100%,35%)" stroke-width="0.00136"></path>
<path d="M1.030 1.009 Q1.686 0.768 1.360 0.396" stroke="hsl(0.0,100%,35%)" stroke-width="0.00017"></path>
<path d="M0.235 0.374 Q0.324 0.756 1.089 0.796" stroke="hsl(0.0,100%,35%)" stroke-width="0.00255"></path>
<path d="M0.235 0.374 Q0.272 0.301 0.138 0.267" stroke="hsl(0.0,100%,35%)" stroke-width="0.01397"></path>
<path d="M0.235 0.374 Q0.748 0.522 1.149 0.304" stroke="hsl(0.0,100%,35%)" stroke-width="0.00273"></path>
<path d="M0.235 0.374 Q0.618 0.578 1.099 0.436" stroke="hsl(0.0,100%,35%)" stroke-width="0.00358"></path>
<path d="M0.235 0.374 Q0.124 0.851 1.030 1.009" stroke="hsl(0.0,100%,35%)" stroke-width="0.00801"></path>
<path d="M0.235 0.374 Q0.358 0.935 1.479 0.998" stroke="hsl(0.0,100%,35%)" stroke-width="0.00017"></path>
<path d="M0.235 0.374 Q0.751 0.715 1.530 0.538" stroke="hsl(0.0,100%,35%)" stroke-width="0.00034"></path>
<path d="M0.235 0.374 Q0.469 0.407 0.583 0.300" stroke="hsl(0.0,100%,35%)" stroke-width="0.00392"></path>
<path d="M0.235 0.374 Q1.215 0.603 1.877 0.175" stroke="hsl(0.0,100%,35%)" stroke-width="0.00034"></path>
<path d="M0.235 0.374 Q0.381 0.514 0.687 0.474" stroke="hsl(0.0,100%,35%)" stroke-width="0.00255"></path>
<path d="M0.235 0.374 Q0.894 0.428 1.144 0.118" stroke="hsl(0.0,100%,35%)" stroke-width="0.00034"></path>
<path d="M0.235 0.374 Q0.103 0.487 0.293 0.576" stroke="hsl(0.0,100%,35%)" stroke-width="0.00068"></path>
<path d="M0.235 0.374 Q0.564 0.461 0.804 0.319" stroke="hsl(0.0,100%,35%)" stroke-width="0.00170"></path>
<path d="M0.235 0.374 Q0.548 0.930 1.702 0.900" stroke="hsl(0.0,100%,35%)" stroke-width="0.00034"></path>
<path d="M0.235 0.374 Q0.253 0.683 0.859 0.742" stroke="hsl(0.0,100%,35%)" stroke-width="0.00017"></path>
<path d="M0.235 0.374 Q0.780 0.610 1.360 0.396" stroke="hsl(0.0,100%,35%)" stroke-width="0.00034"></path>
<path d="M0.235 0.374 Q1.237 0.543 1.787 0.091" stroke="hsl(0.0,100%,35%)" stroke-width="0.00017"></path>
<path d="M0.235 0.374 Q0.468 0.939 1.621 0.950" stroke="hsl(0.0,100%,35%)" stroke-width="0.00017"></path>
<path d="M1.530 0.538 Q1.013 0.197 0.235 0.374" stroke="hsl(0.0,100%,35%)" stroke-width="0.00085"></path>
<path d="M1.530 0.538 Q0.903 0.673 1.030 1.009" stroke="hsl(0.0,100%,35%)" stroke-width="0.01754"></path>
<path d="M1.530 0.538 Q1.102 0.579 1.089 0.796" stroke="hsl(0.0,100%,35%)" stroke-width="0.00017"></path>
<path d="M1.530 0.538 Q1.050 0.124 0.138 0.267" stroke="hsl(0.0,100%,35%)" stroke-width="0.00170"></path>
<path d="M1.530 0.538 Q1.136 0.758 1.479 0.998" stroke="hsl(0.0,100%,35%)" stroke-width="0.00017"></path>
<path d="M1.530 0.538 Q1.527 0.345 1.149 0.304" stroke="hsl(0.0,100%,35%)" stroke-width="0.00017"></path>
<path d="M1.530 0.538 Q1.140 0.670 1.314 0.889" stroke="hsl(0.0,100%,35%)" stroke-width="0.00017"></path>
<path d="M1.530 0.538 Q1.559 0.433 1.360 0.396" stroke="hsl(0.0,100%,35%)" stroke-width="0.00017"></path>
<path d="M1.530 0.538 Q1.364 0.564 1.378 0.650" stroke="hsl(0.0,100%,35%)" stroke-width="0.00051"></path>
<path d="M1.530 0.538 Q1.098 0.712 1.343 0.960" stroke="hsl(0.0,100%,35%)" stroke-width="0.00017"></path>
<path d="M0.583 0.300 Q0.387 0.194 0.138 0.267" stroke="hsl(0.0,100%,35%)" stroke-width="0.00255"></path>
<path d="M0.583 0.300 Q0.350 0.267 0.235 0.374" stroke="hsl(0.0,100%,35%)" stroke-width="0.01073"></path>
<path d="M0.583 0.300 Q0.863 0.415 1.149 0.304" stroke="hsl(0.0,100%,35%)" stroke-width="0.00375"></path>
<path d="M0.583 0.300 Q0.439 0.649 1.089 0.796" stroke="hsl(0.0,100%,35%)" stroke-width="0.00085"></path>
<path d="M0.583 0.300 Q0.239 0.744 1.030 1.009" stroke="hsl(0.0,100%,35%)" stroke-width="0.00460"></path>
<path d="M0.583 0.300 Q0.496 0.407 0.687 0.474" stroke="hsl(0.0,100%,35%)" stroke-width="0.00783"></path>
<path d="M0.583 0.300 Q0.732 0.471 1.099 0.436" stroke="hsl(0.0,100%,35%)" stroke-width="0.00051"></path>
<path d="M0.583 0.300 Q1.330 0.496 1.877 0.175" stroke="hsl(0.0,100%,35%)" stroke-width="0.00017"></path>
<path d="M0.583 0.300 Q1.352 0.436 1.787 0.091" stroke="hsl(0.0,100%,35%)" stroke-width="0.00017"></path>
<path d="M0.431 0.186 Q0.072 0.717 1.030 1.009" stroke="hsl(0.0,100%,35%)" stroke-width="0.00017"></path>
<path d="M0.431 0.186 Q0.565 0.444 1.099 0.436" stroke="hsl(0.0,100%,35%)" stroke-width="0.00017"></path>
<path d="M0.431 0.186 Q0.416 0.273 0.583 0.300" stroke="hsl(0.0,100%,35%)" stroke-width="0.00034"></path>
<path d="M0.864 0.570 Q1.035 0.433 0.804 0.319" stroke="hsl(180.0,100%,35%)" stroke-width="0.00017"></path>
<path d="M0.864 0.570 Q0.853 0.487 0.687 0.474" stroke="hsl(180.0,100%,35%)" stroke-width="0.00017"></path>
<path d="M0.864 0.570 Q1.220 0.494 1.149 0.304" stroke="hsl(180.0,100%,35%)" stroke-width="0.00034"></path>
<path d="M0.687 0.474 Q1.054 0.481 1.149 0.304" stroke="hsl(180.0,100%,35%)" stroke-width="0.01158"></path>
<path d="M0.687 0.474 Q0.923 0.537 1.099 0.436" stroke="hsl(180.0,100%,35%)" stroke-width="0.00852"></path>
<path d="M0.687 0.474 Q0.870 0.420 0.804 0.319" stroke="hsl(180.0,100%,35%)" stroke-width="0.00698"></path>
<path d="M0.687 0.474 Q1.200 0.387 1.144 0.118" stroke="hsl(180.0,100%,35%)" stroke-width="0.00681"></path>
<path d="M0.687 0.474 Q0.430 0.810 1.030 1.009" stroke="hsl(180.0,100%,35%)" stroke-width="0.00085"></path>
<path d="M0.687 0.474 Q0.541 0.334 0.235 0.374" stroke="hsl(180.0,100%,35%)" stroke-width="0.00238"></path>
<path d="M0.687 0.474 Q0.773 0.899 1.621 0.950" stroke="hsl(180.0,100%,35%)" stroke-width="0.00051"></path>
<path d="M0.687 0.474 Q0.409 0.446 0.293 0.576" stroke="hsl(180.0,100%,35%)" stroke-width="0.00017"></path>
<path d="M0.687 0.474 Q1.521 0.563 1.877 0.175" stroke="hsl(180.0,100%,35%)" stroke-width="0.00017"></path>
<path d="M0.687 0.474 Q0.775 0.366 0.583 0.300" stroke="hsl(180.0,100%,35%)" stroke-width="0.00017"></path>
<path d="M0.687 0.474 Q0.578 0.261 0.138 0.267" stroke="hsl(180.0,100%,35%)" stroke-width="0.00068"></path>
<path d="M0.687 0.474 Q1.086 0.569 1.360 0.396" stroke="hsl(180.0,100%,35%)" stroke-width="0.00017"></path>
<path d="M1.479 0.998 Q1.246 0.914 1.030 1.009" stroke="hsl(0.0,100%,35%)" stroke-width="0.00051"></path>
<path d="M1.479 0.998 Q1.870 0.585 1.149 0.304" stroke="hsl(0.0,100%,35%)" stroke-width="0.00017"></path>
<path d="M1.479 0.998 Q1.442 0.952 1.343 0.960" stroke="hsl(0.0,100%,35%)" stroke-width="0.00051"></path>
<path d="M1.479 0.998 Q1.873 0.778 1.530 0.538" stroke="hsl(0.0,100%,35%)" stroke-width="0.00017"></path>
<path d="M1.343 0.960 Q1.404 0.586 0.687 0.474" stroke="hsl(0.0,100%,35%)" stroke-width="0.00017"></path>
<path d="M1.343 0.960 Q1.147 0.922 1.030 1.009" stroke="hsl(0.0,100%,35%)" stroke-width="0.00034"></path>
<path d="M1.343 0.960 Q1.609 0.812 1.378 0.650" stroke="hsl(0.0,100%,35%)" stroke-width="0.00017"></path>
<path d="M1.343 0.960 Q1.774 0.786 1.530 0.538" stroke="hsl(0.0,100%,35%)" stroke-width="0.00017"></path>
<path d="M1.343 0.960 Q1.381 1.006 1.479 0.998" stroke="hsl(0.0,100%,35%)" stroke-width="0.00017"></path>
<path d="M1.089 0.796 Q1.980 0.644 1.877 0.175" stroke="hsl(0.0,100%,35%)" stroke-width="0.00034"></path>
<path d="M1.089 0.796 Q0.999 0.414 0.235 0.374" stroke="hsl(0.0,100%,35%)" stroke-width="0.00664"></path>
<path d="M1.089 0.796 Q1.017 0.723 0.859 0.742" stroke="hsl(0.0,100%,35%)" stroke-width="0.00221"></path>
<path d="M1.089 0.796 Q0.889 0.891 1.030 1.009" stroke="hsl(0.0,100%,35%)" stroke-width="0.00392"></path>
<path d="M1.089 0.796 Q1.233 0.447 0.583 0.300" stroke="hsl(0.0,100%,35%)" stroke-width="0.00204"></path>
<path d="M1.089 0.796 Q1.513 0.562 1.149 0.304" stroke="hsl(0.0,100%,35%)" stroke-width="0.00017"></path>
<path d="M1.089 0.796 Q0.850 0.802 0.809 0.920" stroke="hsl(0.0,100%,35%)" stroke-width="0.00051"></path>
<path d="M1.089 0.796 Q1.037 0.342 0.138 0.267" stroke="hsl(0.0,100%,35%)" stroke-width="0.00187"></path>
<path d="M1.089 0.796 Q1.328 0.501 0.804 0.319" stroke="hsl(0.0,100%,35%)" stroke-width="0.00017"></path>
<path d="M1.089 0.796 Q0.868 0.527 0.293 0.576" stroke="hsl(0.0,100%,35%)" stroke-width="0.00017"></path>
<path d="M1.089 0.796 Q1.232 0.979 1.621 0.950" stroke="hsl(0.0,100%,35%)" stroke-width="0.00017"></path>
<path d="M1.089 0.796 Q1.516 0.755 1.530 0.538" stroke="hsl(0.0,100%,35%)" stroke-width="0.00017"></path>
<path d="M1.877 0.175 Q0.786 0.423 1.030 1.009" stroke="hsl(0.0,100%,35%)" stroke-width="0.00204"></path>
<path d="M1.877 0.175 Q1.764 0.234 1.853 0.302" stroke="hsl(0.0,100%,35%)" stroke-width="0.00017"></path>
<path d="M1.877 0.175 Q1.899 0.115 1.787 0.091" stroke="hsl(0.0,100%,35%)" stroke-width="0.00392"></path>
<path d="M1.877 0.175 Q1.035 0.185 0.869 0.598" stroke="hsl(0.0,100%,35%)" stroke-width="0.00017"></path>
<path d="M1.877 0.175 Q0.986 0.328 1.089 0.796" stroke="hsl(0.0,100%,35%)" stroke-width="0.00170"></path>
<path d="M1.877 0.175 Q0.934 -0.127 0.138 0.267" stroke="hsl(0.0,100%,35%)" stroke-width="0.00034"></path>
<path d="M1.877 0.175 Q0.897 -0.054 0.235 0.374" stroke="hsl(0.0,100%,35%)" stroke-width="0.00119"></path>
<path d="M1.877 0.175 Q1.043 0.087 0.687 0.474" stroke="hsl(0.0,100%,35%)" stroke-width="0.00017"></path>
<path d="M1.877 0.175 Q1.410 0.094 1.149 0.304" stroke="hsl(0.0,100%,35%)" stroke-width="0.00017"></path>
<path d="M1.877 0.175 Q1.130 0.511 1.621 0.950" stroke="hsl(0.0,100%,35%)" stroke-width="0.00017"></path>
<path d="M1.877 0.175 Q1.131 -0.021 0.583 0.300" stroke="hsl(0.0,100%,35%)" stroke-width="0.00017"></path>
<path d="M1.702 0.900 Q1.718 0.430 0.804 0.319" stroke="hsl(0.0,100%,35%)" stroke-width="0.00068"></path>
<path d="M1.702 0.900 Q1.278 0.820 1.030 1.009" stroke="hsl(0.0,100%,35%)" stroke-width="0.00017"></path>
<path d="M1.702 0.900 Q1.426 0.271 0.138 0.267" stroke="hsl(0.0,100%,35%)" stroke-width="0.00085"></path>
<path d="M1.702 0.900 Q1.622 0.908 1.621 0.950" stroke="hsl(0.0,100%,35%)" stroke-width="0.00119"></path>
<path d="M1.702 0.900 Q1.535 0.484 0.687 0.474" stroke="hsl(0.0,100%,35%)" stroke-width="0.00068"></path>
<path d="M1.702 0.900 Q2.048 0.397 1.144 0.118" stroke="hsl(0.0,100%,35%)" stroke-width="0.00017"></path>
<path d="M1.702 0.900 Q1.923 0.852 1.878 0.734" stroke="hsl(0.0,100%,35%)" stroke-width="0.00017"></path>
<path d="M1.702 0.900 Q1.389 0.344 0.235 0.374" stroke="hsl(0.0,100%,35%)" stroke-width="0.00017"></path>
<path d="M1.702 0.900 Q1.478 0.725 1.089 0.796" stroke="hsl(0.0,100%,35%)" stroke-width="0.00017"></path>
<path d="M0.859 0.742 Q0.930 0.815 1.089 0.796" stroke="hsl(0.0,100%,35%)" stroke-width="0.00426"></path>
<path d="M0.859 0.742 Q0.730 0.910 1.030 1.009" stroke="hsl(0.0,100%,35%)" stroke-width="0.00085"></path>
<path d="M0.859 0.742 Q0.841 0.433 0.235 0.374" stroke="hsl(0.0,100%,35%)" stroke-width="0.00051"></path>
<path d="M0.859 0.742 Q1.500 0.487 1.144 0.118" stroke="hsl(0.0,100%,35%)" stroke-width="0.00017"></path>
<path d="M0.859 0.742 Q1.357 0.774 1.530 0.538" stroke="hsl(0.0,100%,35%)" stroke-width="0.00017"></path>
<path d="M0.859 0.742 Q1.224 0.637 1.099 0.436" stroke="hsl(0.0,100%,35%)" stroke-width="0.00017"></path>
<path d="M1.787 0.091 Q0.674 0.399 1.030 1.009" stroke="hsl(0.0,100%,35%)" stroke-width="0.00153"></path>
<path d="M1.787 0.091 Q1.765 0.151 1.877 0.175" stroke="hsl(0.0,100%,35%)" stroke-width="0.00579"></path>
<path d="M1.787 0.091 Q1.168 0.126 1.099 0.436" stroke="hsl(0.0,100%,35%)" stroke-width="0.00017"></path>
<path d="M1.787 0.091 Q0.931 0.063 0.687 0.474" stroke="hsl(0.0,100%,35%)" stroke-width="0.00017"></path>
<path d="M1.621 0.950 Q1.388 0.385 0.235 0.374" stroke="hsl(0.0,100%,35%)" stroke-width="0.00034"></path>
<path d="M1.621 0.950 Q1.256 0.497 0.293 0.576" stroke="hsl(0.0,100%,35%)" stroke-width="0.00017"></path>
<path d="M1.621 0.950 Q1.477 0.766 1.089 0.796" stroke="hsl(0.0,100%,35%)" stroke-width="0.00068"></path>
<path d="M1.621 0.950 Q1.426 0.312 0.138 0.267" stroke="hsl(0.0,100%,35%)" stroke-width="0.00102"></path>
<path d="M1.621 0.950 Q1.701 0.941 1.702 0.900" stroke="hsl(0.0,100%,35%)" stroke-width="0.00085"></path>
<path d="M1.621 0.950 Q1.771 0.588 1.099 0.436" stroke="hsl(0.0,100%,35%)" stroke-width="0.00034"></path>
<path d="M1.621 0.950 Q1.922 0.893 1.878 0.734" stroke="hsl(0.0,100%,35%)" stroke-width="0.00102"></path>
<path d="M1.621 0.950 Q1.278 0.861 1.030 1.009" stroke="hsl(0.0,100%,35%)" stroke-width="0.00051"></path>
<path d="M0.907 0.427 Q0.942 0.353 0.804 0.319" stroke="hsl(180.0,100%,35%)" stroke-width="0.00221"></path>
<path d="M0.907 0.427 Q1.127 0.414 1.149 0.304" stroke="hsl(180.0,100%,35%)" stroke-width="0.00034"></path>
<path d="M0.907 0.427 Q0.760 0.406 0.687 0.474" stroke="hsl(180.0,100%,35%)" stroke-width="0.00017"></path>
<path d="M0.907 0.427 Q1.159 0.502 1.360 0.396" stroke="hsl(180.0,100%,35%)" stroke-width="0.00017"></path>
<path d="M0.907 0.427 Q0.651 0.193 0.138 0.267" stroke="hsl(180.0,100%,35%)" stroke-width="0.00017"></path>
<path d="M0.907 0.427 Q0.613 0.266 0.235 0.374" stroke="hsl(180.0,100%,35%)" stroke-width="0.00017"></path>
<path d="M0.907 0.427 Q0.503 0.743 1.030 1.009" stroke="hsl(180.0,100%,35%)" stroke-width="0.00051"></path>
<path d="M0.809 0.920 Q0.848 1.008 1.030 1.009" stroke="hsl(0.0,100%,35%)" stroke-width="0.00426"></path>
<path d="M0.809 0.920 Q1.191 1.097 1.621 0.950" stroke="hsl(0.0,100%,35%)" stroke-width="0.00017"></path>
<path d="M0.809 0.920 Q1.047 0.914 1.089 0.796" stroke="hsl(0.0,100%,35%)" stroke-width="0.00749"></path>
<path d="M0.809 0.920 Q0.976 0.841 0.859 0.742" stroke="hsl(0.0,100%,35%)" stroke-width="0.00017"></path>
<path d="M0.809 0.920 Q0.958 0.532 0.235 0.374" stroke="hsl(0.0,100%,35%)" stroke-width="0.00051"></path>
<path d="M0.809 0.920 Q1.287 0.618 0.804 0.319" stroke="hsl(0.0,100%,35%)" stroke-width="0.00017"></path>
<path d="M0.809 0.920 Q1.938 0.761 1.877 0.175" stroke="hsl(0.0,100%,35%)" stroke-width="0.00017"></path>
<path d="M0.809 0.920 Q1.492 1.040 1.878 0.734" stroke="hsl(0.0,100%,35%)" stroke-width="0.00017"></path>
<path d="M0.524 0.429 Q0.423 0.344 0.235 0.374" stroke="hsl(0.0,100%,35%)" stroke-width="0.00273"></path>
<path d="M0.524 0.429 Q0.656 0.909 1.621 0.950" stroke="hsl(0.0,100%,35%)" stroke-width="0.00068"></path>
<path d="M0.524 0.429 Q0.291 0.456 0.293 0.576" stroke="hsl(0.0,100%,35%)" stroke-width="0.00017"></path>
<path d="M1.314 0.889 Q1.076 0.892 1.030 1.009" stroke="hsl(0.0,100%,35%)" stroke-width="0.00460"></path>
<path d="M1.314 0.889 Q1.703 0.757 1.530 0.538" stroke="hsl(0.0,100%,35%)" stroke-width="0.00051"></path>
<path d="M1.314 0.889 Q1.537 0.782 1.378 0.650" stroke="hsl(0.0,100%,35%)" stroke-width="0.00034"></path>
<path d="M1.314 0.889 Q1.700 0.564 1.149 0.304" stroke="hsl(0.0,100%,35%)" stroke-width="0.00068"></path>
<path d="M1.314 0.889 Q1.275 0.798 1.089 0.796" stroke="hsl(0.0,100%,35%)" stroke-width="0.00017"></path>
<path d="M1.314 0.889 Q1.166 0.635 0.638 0.651" stroke="hsl(0.0,100%,35%)" stroke-width="0.00017"></path>
<path d="M1.314 0.889 Q1.324 0.655 0.869 0.598" stroke="hsl(0.0,100%,35%)" stroke-width="0.00034"></path>
<path d="M1.314 0.889 Q1.224 0.343 0.138 0.267" stroke="hsl(0.0,100%,35%)" stroke-width="0.00068"></path>
<path d="M1.314 0.889 Q1.272 0.931 1.343 0.960" stroke="hsl(0.0,100%,35%)" stroke-width="0.00034"></path>
<path d="M1.314 0.889 Q1.309 0.977 1.479 0.998" stroke="hsl(0.0,100%,35%)" stroke-width="0.00017"></path>
<path d="M1.314 0.889 Q1.186 0.416 0.235 0.374" stroke="hsl(0.0,100%,35%)" stroke-width="0.00034"></path>
<path d="M0.869 0.598 Q0.854 0.920 1.479 0.998" stroke="hsl(0.0,100%,35%)" stroke-width="0.00051"></path>
<path d="M0.869 0.598 Q0.711 0.578 0.638 0.651" stroke="hsl(0.0,100%,35%)" stroke-width="0.00221"></path>
<path d="M0.869 0.598 Q0.621 0.835 1.030 1.009" stroke="hsl(0.0,100%,35%)" stroke-width="0.00017"></path>
<path d="M0.869 0.598 Q0.859 0.832 1.314 0.889" stroke="hsl(0.0,100%,35%)" stroke-width="0.00102"></path>
<path d="M0.869 0.598 Q0.877 0.499 0.687 0.474" stroke="hsl(0.0,100%,35%)" stroke-width="0.00017"></path>
<path d="M1.044 0.607 Q1.154 0.415 0.804 0.319" stroke="hsl(180.0,100%,35%)" stroke-width="0.00051"></path>
<path d="M1.044 0.607 Q1.371 0.565 1.360 0.396" stroke="hsl(180.0,100%,35%)" stroke-width="0.00017"></path>
<path d="M1.044 0.607 Q1.208 0.532 1.099 0.436" stroke="hsl(180.0,100%,35%)" stroke-width="0.00034"></path>
<path d="M1.044 0.607 Q0.825 0.329 0.235 0.374" stroke="hsl(180.0,100%,35%)" stroke-width="0.00017"></path>
<path d="M1.044 0.607 Q1.339 0.477 1.149 0.304" stroke="hsl(180.0,100%,35%)" stroke-width="0.00017"></path>
<path d="M1.583 0.671 Q1.165 0.562 0.859 0.742" stroke="hsl(0.0,100%,35%)" stroke-width="0.00017"></path>
<path d="M1.583 0.671 Q1.147 0.253 0.235 0.374" stroke="hsl(0.0,100%,35%)" stroke-width="0.00017"></path>
<path d="M1.583 0.671 Q1.036 0.729 1.030 1.009" stroke="hsl(0.0,100%,35%)" stroke-width="0.00017"></path>
<path d="M0.322 0.476 Q0.360 0.408 0.235 0.374" stroke="hsl(0.0,100%,35%)" stroke-width="0.00034"></path>
<path d="M0.322 0.476 Q0.449 0.790 1.089 0.796" stroke="hsl(0.0,100%,35%)" stroke-width="0.00017"></path>
<path d="M0.322 0.476 Q1.340 0.637 1.877 0.175" stroke="hsl(0.0,100%,35%)" stroke-width="0.00017"></path>
<path d="M0.840 0.433 Q0.913 0.369 0.804 0.319" stroke="hsl(180.0,100%,35%)" stroke-width="0.00221"></path>
<path d="M0.840 0.433 Q0.967 0.486 1.099 0.436" stroke="hsl(180.0,100%,35%)" stroke-width="0.00204"></path>
<path d="M0.840 0.433 Q1.098 0.430 1.149 0.304" stroke="hsl(180.0,100%,35%)" stroke-width="0.00017"></path>
<path d="M1.268 0.366 Q1.074 0.250 0.804 0.319" stroke="hsl(180.0,100%,35%)" stroke-width="0.00017"></path>
<path d="M1.268 0.366 Q0.745 0.163 0.235 0.374" stroke="hsl(180.0,100%,35%)" stroke-width="0.00017"></path>
<path d="M1.268 0.366 Q1.128 0.367 1.099 0.436" stroke="hsl(180.0,100%,35%)" stroke-width="0.00034"></path>
<path d="M1.268 0.366 Q0.634 0.640 1.030 1.009" stroke="hsl(180.0,100%,35%)" stroke-width="0.00017"></path>
<path d="M1.268 0.366 Q1.258 0.311 1.149 0.304" stroke="hsl(180.0,100%,35%)" stroke-width="0.00034"></path>
<path d="M1.689 0.238 Q0.942 0.397 1.089 0.796" stroke="hsl(0.0,100%,35%)" stroke-width="0.00153"></path>
<path d="M1.689 0.238 Q1.834 0.244 1.877 0.175" stroke="hsl(0.0,100%,35%)" stroke-width="0.00221"></path>
<path d="M1.689 0.238 Q0.853 0.015 0.235 0.374" stroke="hsl(0.0,100%,35%)" stroke-width="0.00170"></path>
<path d="M1.689 0.238 Q0.743 0.492 1.030 1.009" stroke="hsl(0.0,100%,35%)" stroke-width="0.00017"></path>
<path d="M1.689 0.238 Q1.182 0.102 0.804 0.319" stroke="hsl(0.0,100%,35%)" stroke-width="0.00017"></path>
<path d="M1.423 0.746 Q1.126 0.322 0.235 0.374" stroke="hsl(0.0,100%,35%)" stroke-width="0.00017"></path>
<path d="M1.423 0.746 Q1.359 0.887 1.621 0.950" stroke="hsl(0.0,100%,35%)" stroke-width="0.00085"></path>
<path d="M1.423 0.746 Q1.360 0.355 0.583 0.300" stroke="hsl(0.0,100%,35%)" stroke-width="0.00017"></path>
<path d="M0.375 0.394 Q0.650 0.443 0.804 0.319" stroke="hsl(180.0,100%,35%)" stroke-width="0.00085"></path>
<path d="M0.375 0.394 Q0.704 0.560 1.099 0.436" stroke="hsl(180.0,100%,35%)" stroke-width="0.00136"></path>
<path d="M0.375 0.394 Q0.467 0.497 0.687 0.474" stroke="hsl(180.0,100%,35%)" stroke-width="0.00017"></path>
<path d="M0.375 0.394 Q0.321 0.356 0.235 0.374" stroke="hsl(180.0,100%,35%)" stroke-width="0.00051"></path>
<path d="M0.651 0.180 Q0.287 0.194 0.235 0.374" stroke="hsl(0.0,100%,35%)" stroke-width="0.00051"></path>
<path d="M0.651 0.180 Q0.521 0.226 0.583 0.300" stroke="hsl(0.0,100%,35%)" stroke-width="0.00034"></path>
<path d="M0.651 0.180 Q0.324 0.121 0.138 0.267" stroke="hsl(0.0,100%,35%)" stroke-width="0.00017"></path>
<path d="M1.262 0.483 Q1.218 0.427 1.099 0.436" stroke="hsl(180.0,100%,35%)" stroke-width="0.00170"></path>
<path d="M1.262 0.483 Q1.164 0.309 0.804 0.319" stroke="hsl(180.0,100%,35%)" stroke-width="0.00102"></path>
<path d="M1.262 0.483 Q1.349 0.371 1.149 0.304" stroke="hsl(180.0,100%,35%)" stroke-width="0.00085"></path>
<path d="M1.262 0.483 Q0.835 0.223 0.235 0.374" stroke="hsl(180.0,100%,35%)" stroke-width="0.00051"></path>
<path d="M1.262 0.483 Q1.069 0.255 0.583 0.300" stroke="hsl(180.0,100%,35%)" stroke-width="0.00017"></path>
<path d="M1.262 0.483 Q0.725 0.699 1.030 1.009" stroke="hsl(180.0,100%,35%)" stroke-width="0.00051"></path>
<path d="M1.262 0.483 Q1.495 0.277 1.144 0.118" stroke="hsl(180.0,100%,35%)" stroke-width="0.00017"></path>
</g>
<text x="0.041" y="0.420" font-size="0.040516" fill="hsl(0.0,100%,20%)">armansito</text>
<text x="1.149" y="0.277" font-size="0.054272" fill="hsl(180.0,100%,20%)">jvanverth</text>
<text x="1.099" y="0.406" font-size="0.059913" fill="hsl(180.0,100%,20%)">michaelludwig</text>
<text x="1.144" y="0.100" font-size="0.036539" fill="hsl(180.0,100%,20%)">nicolettep</text>
<text x="0.138" y="0.228" font-size="0.077627" fill="hsl(0.0,100%,20%)">johnstiles</text>
<text x="0.804" y="0.299" font-size="0.039608" fill="hsl(180.0,100%,20%)">egdaniel</text>
<text x="1.360" y="0.380" font-size="0.031001" fill="hsl(180.0,100%,20%)">jamesgk</text>
<text x="1.030" y="0.975" font-size="0.068868" fill="hsl(0.0,100%,20%)">kjlubick</text>
<text x="0.235" y="0.337" font-size="0.074625" fill="hsl(0.0,100%,20%)">brianosman</text>
<text x="1.530" y="0.523" font-size="0.029366" fill="hsl(0.0,100%,20%)">lovisolo</text>
<text x="0.583" y="0.279" font-size="0.041089" fill="hsl(0.0,100%,20%)">herb</text>
<text x="0.431" y="0.184" font-size="0.004558" fill="hsl(0.0,100%,20%)">ayzhao</text>
<text x="0.864" y="0.568" font-size="0.004558" fill="hsl(180.0,100%,20%)">blundell</text>
<text x="0.687" y="0.448" font-size="0.052273" fill="hsl(180.0,100%,20%)">robertphillips</text>
<text x="1.479" y="0.992" font-size="0.011622" fill="hsl(0.0,100%,20%)">borenet</text>
<text x="1.343" y="0.955" font-size="0.010690" fill="hsl(0.0,100%,20%)">rmistry</text>
<text x="1.089" y="0.776" font-size="0.041654" fill="hsl(0.0,100%,20%)">bungeman</text>
<text x="1.877" y="0.162" font-size="0.027064" fill="hsl(0.0,100%,20%)">fmalita</text>
<text x="0.293" y="0.572" font-size="0.007207" fill="hsl(0.0,100%,20%)">jreck</text>
<text x="1.702" y="0.892" font-size="0.015625" fill="hsl(0.0,100%,20%)">nscobie</text>
<text x="0.859" y="0.732" font-size="0.018516" fill="hsl(0.0,100%,20%)">jlavrova</text>
<text x="1.787" y="0.081" font-size="0.020129" fill="hsl(0.0,100%,20%)">jmbetancourt</text>
<text x="1.621" y="0.939" font-size="0.020258" fill="hsl(0.0,100%,20%)">scroggo</text>
<text x="0.907" y="0.422" font-size="0.010690" fill="hsl(180.0,100%,20%)">briansalomon</text>
<text x="0.809" y="0.909" font-size="0.021502" fill="hsl(0.0,100%,20%)">drott</text>
<text x="0.524" y="0.423" font-size="0.010931" fill="hsl(0.0,100%,20%)">ccameron</text>
<text x="1.314" y="0.880" font-size="0.018795" fill="hsl(0.0,100%,20%)">cmumford</text>
<text x="1.378" y="0.646" font-size="0.007895" fill="hsl(0.0,100%,20%)">jcgregorio</text>
<text x="0.638" y="0.646" font-size="0.008827" fill="hsl(0.0,100%,20%)">hcm</text>
<text x="0.869" y="0.592" font-size="0.011843" fill="hsl(0.0,100%,20%)">sharaks</text>
<text x="1.878" y="0.730" font-size="0.006838" fill="hsl(0.0,100%,20%)">djsollen</text>
<text x="1.853" y="0.301" font-size="0.002279" fill="hsl(0.0,100%,20%)">bwils</text>
<text x="1.044" y="0.604" font-size="0.006447" fill="hsl(180.0,100%,20%)">hitawala</text>
<text x="1.583" y="0.669" font-size="0.003948" fill="hsl(0.0,100%,20%)">jacksongardner</text>
<text x="1.493" y="0.868" font-size="0.003223" fill="hsl(0.0,100%,20%)">tdenniston</text>
<text x="0.322" y="0.474" font-size="0.004558" fill="hsl(0.0,100%,20%)">kschmi</text>
<text x="0.840" y="0.427" font-size="0.011622" fill="hsl(180.0,100%,20%)">lehoangquyen</text>
<text x="1.268" y="0.363" font-size="0.006030" fill="hsl(180.0,100%,20%)">lokokung</text>
<text x="1.689" y="0.232" font-size="0.013290" fill="hsl(0.0,100%,20%)">mike</text>
<text x="1.423" y="0.743" font-size="0.006030" fill="hsl(0.0,100%,20%)">nigeltao</text>
<text x="0.375" y="0.390" font-size="0.009397" fill="hsl(180.0,100%,20%)">penghuang</text>
<text x="0.651" y="0.177" font-size="0.005583" fill="hsl(0.0,100%,20%)">sky</text>
<text x="1.262" y="0.477" font-size="0.012274" fill="hsl(180.0,100%,20%)">sunnyps</text>
</svg>
