<svg width="4000" height="2000" viewBox="-0.025 -0.025 2.05 1.05" xmlns="http://www.w3.org/2000/svg">
  <style>
    path {
      fill: none;
      stroke-linecap: round;
      stroke-opacity: 0.4;
    }

    text {
      text-anchor: middle;
      alignment-baseline: hanging;
    }
  </style>
  <g opacity="0.4">
<path d="M0.947 0.308 Q1.185 0.307 1.235 0.190" stroke="hsl(0.0,100%,35%)" stroke-width="0.00352"></path>
<path d="M0.947 0.308 Q0.994 0.529 1.435 0.554" stroke="hsl(0.0,100%,35%)" stroke-width="0.00220"></path>
<path d="M0.947 0.308 Q1.074 0.215 0.920 0.133" stroke="hsl(0.0,100%,35%)" stroke-width="0.00836"></path>
<path d="M0.947 0.308 Q0.956 0.616 1.560 0.679" stroke="hsl(0.0,100%,35%)" stroke-width="0.00249"></path>
<path d="M0.947 0.308 Q0.277 0.549 0.601 0.929" stroke="hsl(0.0,100%,35%)" stroke-width="0.00176"></path>
<path d="M0.947 0.308 Q0.677 0.165 0.339 0.265" stroke="hsl(0.0,100%,35%)" stroke-width="0.00015"></path>
<path d="M0.947 0.308 Q0.327 0.231 0.040 0.516" stroke="hsl(0.0,100%,35%)" stroke-width="0.00191"></path>
<path d="M0.947 0.308 Q0.190 0.483 0.364 0.890" stroke="hsl(0.0,100%,35%)" stroke-width="0.00059"></path>
<path d="M0.947 0.308 Q1.247 0.407 1.507 0.283" stroke="hsl(0.0,100%,35%)" stroke-width="0.00147"></path>
<path d="M0.947 0.308 Q0.288 0.328 0.182 0.654" stroke="hsl(0.0,100%,35%)" stroke-width="0.00015"></path>
<path d="M0.947 0.308 Q0.438 0.490 0.682 0.778" stroke="hsl(0.0,100%,35%)" stroke-width="0.00015"></path>
<path d="M0.947 0.308 Q0.192 0.405 0.215 0.795" stroke="hsl(0.0,100%,35%)" stroke-width="0.00015"></path>
<path d="M0.947 0.308 Q1.475 0.287 1.549 0.025" stroke="hsl(0.0,100%,35%)" stroke-width="0.00015"></path>
<path d="M0.947 0.308 Q0.261 0.399 0.289 0.754" stroke="hsl(0.0,100%,35%)" stroke-width="0.00015"></path>
<path d="M1.235 0.190 Q0.632 0.228 0.573 0.530" stroke="hsl(0.0,100%,35%)" stroke-width="0.00514"></path>
<path d="M1.235 0.190 Q1.123 0.098 0.920 0.133" stroke="hsl(0.0,100%,35%)" stroke-width="0.01056"></path>
<path d="M1.235 0.190 Q1.043 0.412 1.435 0.554" stroke="hsl(0.0,100%,35%)" stroke-width="0.00132"></path>
<path d="M1.235 0.190 Q1.362 0.124 1.262 0.048" stroke="hsl(0.0,100%,35%)" stroke-width="0.00044"></path>
<path d="M1.235 0.190 Q1.006 0.500 1.560 0.679" stroke="hsl(0.0,100%,35%)" stroke-width="0.00455"></path>
<path d="M1.235 0.190 Q0.489 0.260 0.463 0.640" stroke="hsl(0.0,100%,35%)" stroke-width="0.00191"></path>
<path d="M1.235 0.190 Q0.327 0.433 0.601 0.929" stroke="hsl(0.0,100%,35%)" stroke-width="0.00264"></path>
<path d="M1.235 0.190 Q0.239 0.366 0.364 0.890" stroke="hsl(0.0,100%,35%)" stroke-width="0.00264"></path>
<path d="M1.235 0.190 Q0.398 0.322 0.471 0.759" stroke="hsl(0.0,100%,35%)" stroke-width="0.00059"></path>
<path d="M1.235 0.190 Q0.615 0.315 0.722 0.644" stroke="hsl(0.0,100%,35%)" stroke-width="0.00015"></path>
<path d="M1.235 0.190 Q1.296 0.291 1.507 0.283" stroke="hsl(0.0,100%,35%)" stroke-width="0.00323"></path>
<path d="M1.235 0.190 Q1.415 0.139 1.356 0.040" stroke="hsl(0.0,100%,35%)" stroke-width="0.00029"></path>
<path d="M1.235 0.190 Q0.376 0.114 0.040 0.516" stroke="hsl(0.0,100%,35%)" stroke-width="0.00117"></path>
<path d="M1.235 0.190 Q0.824 0.321 0.991 0.550" stroke="hsl(0.0,100%,35%)" stroke-width="0.00015"></path>
<path d="M1.235 0.190 Q0.241 0.288 0.215 0.795" stroke="hsl(0.0,100%,35%)" stroke-width="0.00029"></path>
<path d="M1.235 0.190 Q0.996 0.191 0.947 0.308" stroke="hsl(0.0,100%,35%)" stroke-width="0.00073"></path>
<path d="M1.235 0.190 Q0.652 0.366 0.868 0.689" stroke="hsl(0.0,100%,35%)" stroke-width="0.00073"></path>
<path d="M1.235 0.190 Q0.831 0.243 0.847 0.451" stroke="hsl(0.0,100%,35%)" stroke-width="0.00015"></path>
<path d="M1.235 0.190 Q1.524 0.170 1.549 0.025" stroke="hsl(0.0,100%,35%)" stroke-width="0.00015"></path>
<path d="M1.435 0.554 Q1.626 0.332 1.235 0.190" stroke="hsl(120.0,100%,35%)" stroke-width="0.00220"></path>
<path d="M1.435 0.554 Q0.768 0.256 0.040 0.516" stroke="hsl(120.0,100%,35%)" stroke-width="0.00851"></path>
<path d="M1.435 0.554 Q0.881 0.402 0.463 0.640" stroke="hsl(120.0,100%,35%)" stroke-width="0.00572"></path>
<path d="M1.435 0.554 Q1.397 0.642 1.560 0.679" stroke="hsl(120.0,100%,35%)" stroke-width="0.00587"></path>
<path d="M1.435 0.554 Q1.216 0.463 0.991 0.550" stroke="hsl(120.0,100%,35%)" stroke-width="0.00029"></path>
<path d="M1.435 0.554 Q1.024 0.370 0.573 0.530" stroke="hsl(120.0,100%,35%)" stroke-width="0.00484"></path>
<path d="M1.435 0.554 Q0.729 0.353 0.182 0.654" stroke="hsl(120.0,100%,35%)" stroke-width="0.00059"></path>
<path d="M1.435 0.554 Q1.118 0.190 0.339 0.265" stroke="hsl(120.0,100%,35%)" stroke-width="0.00088"></path>
<path d="M1.435 0.554 Q0.718 0.575 0.601 0.929" stroke="hsl(120.0,100%,35%)" stroke-width="0.00117"></path>
<path d="M1.435 0.554 Q1.044 0.508 0.868 0.689" stroke="hsl(120.0,100%,35%)" stroke-width="0.00029"></path>
<path d="M1.435 0.554 Q1.515 0.241 0.920 0.133" stroke="hsl(120.0,100%,35%)" stroke-width="0.00117"></path>
<path d="M1.435 0.554 Q1.122 0.101 0.169 0.154" stroke="hsl(120.0,100%,35%)" stroke-width="0.00015"></path>
<path d="M1.435 0.554 Q1.688 0.433 1.507 0.283" stroke="hsl(120.0,100%,35%)" stroke-width="0.00205"></path>
<path d="M1.435 0.554 Q0.879 0.516 0.682 0.778" stroke="hsl(120.0,100%,35%)" stroke-width="0.00015"></path>
<path d="M1.435 0.554 Q1.388 0.333 0.947 0.308" stroke="hsl(120.0,100%,35%)" stroke-width="0.00029"></path>
<path d="M1.435 0.554 Q0.702 0.425 0.289 0.754" stroke="hsl(120.0,100%,35%)" stroke-width="0.00015"></path>
<path d="M1.435 0.554 Q0.631 0.508 0.364 0.890" stroke="hsl(120.0,100%,35%)" stroke-width="0.00029"></path>
<path d="M0.920 0.133 Q1.032 0.224 1.235 0.190" stroke="hsl(0.0,100%,35%)" stroke-width="0.08583"></path>
<path d="M0.920 0.133 Q0.803 0.534 1.560 0.679" stroke="hsl(0.0,100%,35%)" stroke-width="0.00631"></path>
<path d="M0.920 0.133 Q0.841 0.446 1.435 0.554" stroke="hsl(0.0,100%,35%)" stroke-width="0.00440"></path>
<path d="M0.920 0.133 Q0.429 0.262 0.573 0.530" stroke="hsl(0.0,100%,35%)" stroke-width="0.00528"></path>
<path d="M0.920 0.133 Q0.793 0.226 0.947 0.308" stroke="hsl(0.0,100%,35%)" stroke-width="0.02157"></path>
<path d="M0.920 0.133 Q0.173 0.148 0.040 0.516" stroke="hsl(0.0,100%,35%)" stroke-width="0.00249"></path>
<path d="M0.920 0.133 Q0.124 0.467 0.601 0.929" stroke="hsl(0.0,100%,35%)" stroke-width="0.00455"></path>
<path d="M0.920 0.133 Q0.038 0.322 0.215 0.795" stroke="hsl(0.0,100%,35%)" stroke-width="0.00088"></path>
<path d="M0.920 0.133 Q0.527 -0.007 0.169 0.154" stroke="hsl(0.0,100%,35%)" stroke-width="0.00015"></path>
<path d="M0.920 0.133 Q0.412 0.349 0.722 0.644" stroke="hsl(0.0,100%,35%)" stroke-width="0.00088"></path>
<path d="M0.920 0.133 Q1.094 0.325 1.507 0.283" stroke="hsl(0.0,100%,35%)" stroke-width="0.00235"></path>
<path d="M0.920 0.133 Q0.621 0.355 0.991 0.550" stroke="hsl(0.0,100%,35%)" stroke-width="0.00088"></path>
<path d="M0.920 0.133 Q0.285 0.408 0.682 0.778" stroke="hsl(0.0,100%,35%)" stroke-width="0.00015"></path>
<path d="M0.920 0.133 Q0.267 0.535 0.908 0.941" stroke="hsl(0.0,100%,35%)" stroke-width="0.00015"></path>
<path d="M0.920 0.133 Q0.036 0.400 0.364 0.890" stroke="hsl(0.0,100%,35%)" stroke-width="0.00132"></path>
<path d="M0.920 0.133 Q0.217 0.382 0.549 0.780" stroke="hsl(0.0,100%,35%)" stroke-width="0.00015"></path>
<path d="M0.920 0.133 Q0.449 0.401 0.868 0.689" stroke="hsl(0.0,100%,35%)" stroke-width="0.00029"></path>
<path d="M0.920 0.133 Q0.524 0.082 0.339 0.265" stroke="hsl(0.0,100%,35%)" stroke-width="0.00132"></path>
<path d="M0.920 0.133 Q0.286 0.295 0.463 0.640" stroke="hsl(0.0,100%,35%)" stroke-width="0.00822"></path>
<path d="M0.920 0.133 Q0.214 0.368 0.517 0.764" stroke="hsl(0.0,100%,35%)" stroke-width="0.00015"></path>
<path d="M0.920 0.133 Q0.382 0.441 0.866 0.772" stroke="hsl(0.0,100%,35%)" stroke-width="0.00029"></path>
<path d="M0.920 0.133 Q0.629 0.277 0.847 0.451" stroke="hsl(0.0,100%,35%)" stroke-width="0.00029"></path>
<path d="M0.920 0.133 Q0.135 0.245 0.182 0.654" stroke="hsl(0.0,100%,35%)" stroke-width="0.00073"></path>
<path d="M0.920 0.133 Q1.321 0.204 1.549 0.025" stroke="hsl(0.0,100%,35%)" stroke-width="0.00425"></path>
<path d="M0.920 0.133 Q0.108 0.317 0.289 0.754" stroke="hsl(0.0,100%,35%)" stroke-width="0.00015"></path>
<path d="M0.920 0.133 Q0.195 0.356 0.471 0.759" stroke="hsl(0.0,100%,35%)" stroke-width="0.00044"></path>
<path d="M1.560 0.679 Q1.597 0.592 1.435 0.554" stroke="hsl(120.0,100%,35%)" stroke-width="0.00822"></path>
<path d="M1.560 0.679 Q1.043 0.440 0.463 0.640" stroke="hsl(120.0,100%,35%)" stroke-width="0.00719"></path>
<path d="M1.560 0.679 Q1.788 0.370 1.235 0.190" stroke="hsl(120.0,100%,35%)" stroke-width="0.00440"></path>
<path d="M1.560 0.679 Q1.550 0.371 0.947 0.308" stroke="hsl(120.0,100%,35%)" stroke-width="0.00059"></path>
<path d="M1.560 0.679 Q0.891 0.391 0.182 0.654" stroke="hsl(120.0,100%,35%)" stroke-width="0.00088"></path>
<path d="M1.560 0.679 Q1.281 0.228 0.339 0.265" stroke="hsl(120.0,100%,35%)" stroke-width="0.00147"></path>
<path d="M1.560 0.679 Q0.880 0.612 0.601 0.929" stroke="hsl(120.0,100%,35%)" stroke-width="0.00191"></path>
<path d="M1.560 0.679 Q0.930 0.294 0.040 0.516" stroke="hsl(120.0,100%,35%)" stroke-width="0.00455"></path>
<path d="M1.560 0.679 Q1.850 0.470 1.507 0.283" stroke="hsl(120.0,100%,35%)" stroke-width="0.00161"></path>
<path d="M1.560 0.679 Q1.677 0.278 0.920 0.133" stroke="hsl(120.0,100%,35%)" stroke-width="0.00088"></path>
<path d="M1.560 0.679 Q1.378 0.501 0.991 0.550" stroke="hsl(120.0,100%,35%)" stroke-width="0.00015"></path>
<path d="M1.560 0.679 Q0.952 0.501 0.471 0.759" stroke="hsl(120.0,100%,35%)" stroke-width="0.00015"></path>
<path d="M1.560 0.679 Q1.186 0.407 0.573 0.530" stroke="hsl(120.0,100%,35%)" stroke-width="0.00059"></path>
<path d="M1.560 0.679 Q1.042 0.553 0.682 0.778" stroke="hsl(120.0,100%,35%)" stroke-width="0.00015"></path>
<path d="M1.560 0.679 Q1.385 0.423 0.847 0.451" stroke="hsl(120.0,100%,35%)" stroke-width="0.00015"></path>
<path d="M1.560 0.679 Q0.793 0.546 0.364 0.890" stroke="hsl(120.0,100%,35%)" stroke-width="0.00015"></path>
<path d="M0.601 0.929 Q0.514 0.862 0.364 0.890" stroke="hsl(240.0,100%,35%)" stroke-width="0.01790"></path>
<path d="M0.601 0.929 Q1.509 0.686 1.235 0.190" stroke="hsl(240.0,100%,35%)" stroke-width="0.01232"></path>
<path d="M0.601 0.929 Q0.762 0.870 0.682 0.778" stroke="hsl(240.0,100%,35%)" stroke-width="0.00719"></path>
<path d="M0.601 0.929 Q0.694 0.844 0.549 0.780" stroke="hsl(240.0,100%,35%)" stroke-width="0.00088"></path>
<path d="M0.601 0.929 Q0.906 0.724 0.573 0.530" stroke="hsl(240.0,100%,35%)" stroke-width="0.00440"></path>
<path d="M0.601 0.929 Q1.398 0.595 0.920 0.133" stroke="hsl(240.0,100%,35%)" stroke-width="0.00719"></path>
<path d="M0.601 0.929 Q1.318 0.908 1.435 0.554" stroke="hsl(240.0,100%,35%)" stroke-width="0.00147"></path>
<path d="M0.601 0.929 Q0.612 0.708 0.182 0.654" stroke="hsl(240.0,100%,35%)" stroke-width="0.00015"></path>
<path d="M0.601 0.929 Q0.672 0.818 0.471 0.759" stroke="hsl(240.0,100%,35%)" stroke-width="0.00220"></path>
<path d="M0.601 0.929 Q0.651 0.610 0.040 0.516" stroke="hsl(240.0,100%,35%)" stroke-width="0.00235"></path>
<path d="M0.601 0.929 Q1.001 0.544 0.339 0.265" stroke="hsl(240.0,100%,35%)" stroke-width="0.00059"></path>
<path d="M0.601 0.929 Q1.280 0.996 1.560 0.679" stroke="hsl(240.0,100%,35%)" stroke-width="0.00646"></path>
<path d="M0.601 0.929 Q1.099 0.818 0.991 0.550" stroke="hsl(240.0,100%,35%)" stroke-width="0.00205"></path>
<path d="M0.601 0.929 Q1.271 0.688 0.947 0.308" stroke="hsl(240.0,100%,35%)" stroke-width="0.00103"></path>
<path d="M0.601 0.929 Q0.890 0.811 0.722 0.644" stroke="hsl(240.0,100%,35%)" stroke-width="0.00514"></path>
<path d="M0.601 0.929 Q0.691 0.830 0.517 0.764" stroke="hsl(240.0,100%,35%)" stroke-width="0.00059"></path>
<path d="M0.601 0.929 Q1.571 0.787 1.507 0.283" stroke="hsl(240.0,100%,35%)" stroke-width="0.00293"></path>
<path d="M0.601 0.929 Q0.671 0.809 0.452 0.749" stroke="hsl(240.0,100%,35%)" stroke-width="0.00323"></path>
<path d="M0.601 0.929 Q0.515 0.784 0.215 0.795" stroke="hsl(240.0,100%,35%)" stroke-width="0.00103"></path>
<path d="M0.601 0.929 Q1.690 0.635 1.356 0.040" stroke="hsl(240.0,100%,35%)" stroke-width="0.00015"></path>
<path d="M0.601 0.929 Q0.744 0.997 0.908 0.941" stroke="hsl(240.0,100%,35%)" stroke-width="0.00147"></path>
<path d="M0.601 0.929 Q0.763 0.757 0.463 0.640" stroke="hsl(240.0,100%,35%)" stroke-width="0.00117"></path>
<path d="M0.601 0.929 Q0.585 0.779 0.289 0.754" stroke="hsl(240.0,100%,35%)" stroke-width="0.00059"></path>
<path d="M0.601 0.929 Q0.927 0.863 0.868 0.689" stroke="hsl(240.0,100%,35%)" stroke-width="0.00396"></path>
<path d="M0.601 0.929 Q0.859 0.903 0.866 0.772" stroke="hsl(240.0,100%,35%)" stroke-width="0.00044"></path>
<path d="M0.601 0.929 Q1.106 0.739 0.847 0.451" stroke="hsl(240.0,100%,35%)" stroke-width="0.00352"></path>
<path d="M0.601 0.929 Q0.793 0.896 0.770 0.795" stroke="hsl(240.0,100%,35%)" stroke-width="0.00044"></path>
<path d="M0.601 0.929 Q1.005 0.455 0.169 0.154" stroke="hsl(240.0,100%,35%)" stroke-width="0.00044"></path>
<path d="M0.339 0.265 Q0.101 0.477 0.463 0.640" stroke="hsl(120.0,100%,35%)" stroke-width="0.00103"></path>
<path d="M0.339 0.265 Q-0.012 0.331 0.040 0.516" stroke="hsl(120.0,100%,35%)" stroke-width="0.00191"></path>
<path d="M0.339 0.265 Q0.655 0.629 1.435 0.554" stroke="hsl(120.0,100%,35%)" stroke-width="0.00103"></path>
<path d="M0.339 0.265 Q0.735 0.315 0.920 0.133" stroke="hsl(120.0,100%,35%)" stroke-width="0.00103"></path>
<path d="M0.339 0.265 Q0.032 0.564 0.549 0.780" stroke="hsl(120.0,100%,35%)" stroke-width="0.00015"></path>
<path d="M0.339 0.265 Q0.100 0.590 0.682 0.778" stroke="hsl(120.0,100%,35%)" stroke-width="0.00015"></path>
<path d="M0.339 0.265 Q0.618 0.716 1.560 0.679" stroke="hsl(120.0,100%,35%)" stroke-width="0.00161"></path>
<path d="M0.339 0.265 Q0.846 0.407 1.235 0.190" stroke="hsl(120.0,100%,35%)" stroke-width="0.00015"></path>
<path d="M0.339 0.265 Q-0.062 0.649 0.601 0.929" stroke="hsl(120.0,100%,35%)" stroke-width="0.00044"></path>
<path d="M0.339 0.265 Q0.443 0.460 0.847 0.451" stroke="hsl(120.0,100%,35%)" stroke-width="0.00015"></path>
<path d="M0.040 0.516 Q0.707 0.814 1.435 0.554" stroke="hsl(120.0,100%,35%)" stroke-width="0.00484"></path>
<path d="M0.040 0.516 Q0.001 0.613 0.182 0.654" stroke="hsl(120.0,100%,35%)" stroke-width="0.00059"></path>
<path d="M0.040 0.516 Q1.025 0.526 1.262 0.048" stroke="hsl(120.0,100%,35%)" stroke-width="0.00015"></path>
<path d="M0.040 0.516 Q0.153 0.662 0.463 0.640" stroke="hsl(120.0,100%,35%)" stroke-width="0.00279"></path>
<path d="M0.040 0.516 Q0.390 0.450 0.339 0.265" stroke="hsl(120.0,100%,35%)" stroke-width="0.00264"></path>
<path d="M0.040 0.516 Q0.960 0.693 1.507 0.283" stroke="hsl(120.0,100%,35%)" stroke-width="0.00235"></path>
<path d="M0.040 0.516 Q0.898 0.592 1.235 0.190" stroke="hsl(120.0,100%,35%)" stroke-width="0.00044"></path>
<path d="M0.040 0.516 Q0.669 0.902 1.560 0.679" stroke="hsl(120.0,100%,35%)" stroke-width="0.00279"></path>
<path d="M0.040 0.516 Q0.295 0.630 0.573 0.530" stroke="hsl(120.0,100%,35%)" stroke-width="0.00015"></path>
<path d="M0.040 0.516 Q0.787 0.500 0.920 0.133" stroke="hsl(120.0,100%,35%)" stroke-width="0.00015"></path>
<path d="M0.040 0.516 Q0.316 0.768 0.868 0.689" stroke="hsl(120.0,100%,35%)" stroke-width="0.00015"></path>
<path d="M0.040 0.516 Q-0.010 0.835 0.601 0.929" stroke="hsl(120.0,100%,35%)" stroke-width="0.00073"></path>
<path d="M0.040 0.516 Q0.279 0.717 0.722 0.644" stroke="hsl(120.0,100%,35%)" stroke-width="0.00029"></path>
<path d="M0.040 0.516 Q-0.026 0.685 0.289 0.754" stroke="hsl(120.0,100%,35%)" stroke-width="0.00015"></path>
<path d="M0.040 0.516 Q0.151 0.776 0.682 0.778" stroke="hsl(120.0,100%,35%)" stroke-width="0.00015"></path>
<path d="M0.040 0.516 Q0.062 0.724 0.471 0.759" stroke="hsl(120.0,100%,35%)" stroke-width="0.00015"></path>
<path d="M0.364 0.890 Q0.757 0.752 0.573 0.530" stroke="hsl(240.0,100%,35%)" stroke-width="0.00807"></path>
<path d="M0.364 0.890 Q0.452 0.957 0.601 0.929" stroke="hsl(240.0,100%,35%)" stroke-width="0.00279"></path>
<path d="M0.364 0.890 Q1.360 0.714 1.235 0.190" stroke="hsl(240.0,100%,35%)" stroke-width="0.00176"></path>
<path d="M0.364 0.890 Q0.281 0.905 0.291 0.949" stroke="hsl(240.0,100%,35%)" stroke-width="0.00015"></path>
<path d="M0.364 0.890 Q0.366 0.812 0.215 0.795" stroke="hsl(240.0,100%,35%)" stroke-width="0.00015"></path>
<path d="M0.364 0.890 Q1.249 0.623 0.920 0.133" stroke="hsl(240.0,100%,35%)" stroke-width="0.00044"></path>
<path d="M0.364 0.890 Q1.422 0.815 1.507 0.283" stroke="hsl(240.0,100%,35%)" stroke-width="0.00015"></path>
<path d="M0.364 0.890 Q0.950 0.846 0.991 0.550" stroke="hsl(240.0,100%,35%)" stroke-width="0.00147"></path>
<path d="M0.364 0.890 Q0.613 0.898 0.682 0.778" stroke="hsl(240.0,100%,35%)" stroke-width="0.00029"></path>
<path d="M0.364 0.890 Q0.502 0.638 0.040 0.516" stroke="hsl(240.0,100%,35%)" stroke-width="0.00044"></path>
<path d="M0.364 0.890 Q0.614 0.785 0.463 0.640" stroke="hsl(240.0,100%,35%)" stroke-width="0.00029"></path>
<path d="M0.364 0.890 Q1.131 1.024 1.560 0.679" stroke="hsl(240.0,100%,35%)" stroke-width="0.00015"></path>
<path d="M0.364 0.890 Q0.436 0.807 0.289 0.754" stroke="hsl(240.0,100%,35%)" stroke-width="0.00073"></path>
<path d="M0.364 0.890 Q0.740 0.839 0.722 0.644" stroke="hsl(240.0,100%,35%)" stroke-width="0.00015"></path>
<path d="M0.364 0.890 Q1.169 0.936 1.435 0.554" stroke="hsl(240.0,100%,35%)" stroke-width="0.00015"></path>
<path d="M1.507 0.283 Q1.445 0.182 1.235 0.190" stroke="hsl(0.0,100%,35%)" stroke-width="0.00778"></path>
<path d="M1.507 0.283 Q1.334 0.090 0.920 0.133" stroke="hsl(0.0,100%,35%)" stroke-width="0.00147"></path>
<path d="M1.507 0.283 Q1.216 0.492 1.560 0.679" stroke="hsl(0.0,100%,35%)" stroke-width="0.00249"></path>
<path d="M1.507 0.283 Q1.035 0.313 0.991 0.550" stroke="hsl(0.0,100%,35%)" stroke-width="0.00161"></path>
<path d="M1.507 0.283 Q0.842 0.220 0.573 0.530" stroke="hsl(0.0,100%,35%)" stroke-width="0.00147"></path>
<path d="M1.507 0.283 Q0.699 0.252 0.463 0.640" stroke="hsl(0.0,100%,35%)" stroke-width="0.00367"></path>
<path d="M1.507 0.283 Q0.608 0.314 0.471 0.759" stroke="hsl(0.0,100%,35%)" stroke-width="0.00044"></path>
<path d="M1.507 0.283 Q0.587 0.106 0.040 0.516" stroke="hsl(0.0,100%,35%)" stroke-width="0.00514"></path>
<path d="M1.507 0.283 Q1.254 0.404 1.435 0.554" stroke="hsl(0.0,100%,35%)" stroke-width="0.00132"></path>
<path d="M1.507 0.283 Q0.537 0.425 0.601 0.929" stroke="hsl(0.0,100%,35%)" stroke-width="0.00029"></path>
<path d="M1.507 0.283 Q1.207 0.183 0.947 0.308" stroke="hsl(0.0,100%,35%)" stroke-width="0.00029"></path>
<path d="M1.507 0.283 Q0.450 0.358 0.364 0.890" stroke="hsl(0.0,100%,35%)" stroke-width="0.00015"></path>
<path d="M1.507 0.283 Q0.863 0.358 0.868 0.689" stroke="hsl(0.0,100%,35%)" stroke-width="0.00015"></path>
<path d="M0.182 0.654 Q0.968 0.541 0.920 0.133" stroke="hsl(120.0,100%,35%)" stroke-width="0.00088"></path>
<path d="M0.182 0.654 Q0.221 0.556 0.040 0.516" stroke="hsl(120.0,100%,35%)" stroke-width="0.00176"></path>
<path d="M0.182 0.654 Q0.571 0.490 0.339 0.265" stroke="hsl(120.0,100%,35%)" stroke-width="0.00015"></path>
<path d="M0.182 0.654 Q0.084 0.808 0.364 0.890" stroke="hsl(120.0,100%,35%)" stroke-width="0.00015"></path>
<path d="M0.182 0.654 Q0.334 0.703 0.463 0.640" stroke="hsl(120.0,100%,35%)" stroke-width="0.00249"></path>
<path d="M0.182 0.654 Q0.850 0.942 1.560 0.679" stroke="hsl(120.0,100%,35%)" stroke-width="0.00176"></path>
<path d="M0.182 0.654 Q0.888 0.855 1.435 0.554" stroke="hsl(120.0,100%,35%)" stroke-width="0.00088"></path>
<path d="M0.182 0.654 Q1.079 0.632 1.235 0.190" stroke="hsl(120.0,100%,35%)" stroke-width="0.00029"></path>
<path d="M0.182 0.654 Q0.171 0.875 0.601 0.929" stroke="hsl(120.0,100%,35%)" stroke-width="0.00103"></path>
<path d="M0.182 0.654 Q0.460 0.757 0.722 0.644" stroke="hsl(120.0,100%,35%)" stroke-width="0.00015"></path>
<path d="M0.682 0.778 Q0.810 0.719 0.722 0.644" stroke="hsl(240.0,100%,35%)" stroke-width="0.00044"></path>
<path d="M0.682 0.778 Q0.521 0.837 0.601 0.929" stroke="hsl(240.0,100%,35%)" stroke-width="0.00059"></path>
<path d="M0.682 0.778 Q0.847 0.771 0.868 0.689" stroke="hsl(240.0,100%,35%)" stroke-width="0.00059"></path>
<path d="M0.682 0.778 Q0.826 0.632 0.573 0.530" stroke="hsl(240.0,100%,35%)" stroke-width="0.00015"></path>
<path d="M0.682 0.778 Q1.491 0.696 1.507 0.283" stroke="hsl(240.0,100%,35%)" stroke-width="0.00015"></path>
<path d="M0.682 0.778 Q0.683 0.665 0.463 0.640" stroke="hsl(240.0,100%,35%)" stroke-width="0.00015"></path>
<path d="M0.682 0.778 Q1.200 0.904 1.560 0.679" stroke="hsl(240.0,100%,35%)" stroke-width="0.00015"></path>
<path d="M0.215 0.795 Q0.213 0.872 0.364 0.890" stroke="hsl(240.0,100%,35%)" stroke-width="0.00484"></path>
<path d="M0.215 0.795 Q0.300 0.939 0.601 0.929" stroke="hsl(240.0,100%,35%)" stroke-width="0.00073"></path>
<path d="M0.215 0.795 Q1.208 0.696 1.235 0.190" stroke="hsl(240.0,100%,35%)" stroke-width="0.00029"></path>
<path d="M0.215 0.795 Q0.463 0.767 0.463 0.640" stroke="hsl(240.0,100%,35%)" stroke-width="0.00029"></path>
<path d="M0.215 0.795 Q1.017 0.919 1.435 0.554" stroke="hsl(240.0,100%,35%)" stroke-width="0.00015"></path>
<path d="M0.215 0.795 Q0.605 0.734 0.573 0.530" stroke="hsl(240.0,100%,35%)" stroke-width="0.00015"></path>
<path d="M1.549 0.025 Q1.148 -0.047 0.920 0.133" stroke="hsl(0.0,100%,35%)" stroke-width="0.00337"></path>
<path d="M1.549 0.025 Q1.021 0.046 0.947 0.308" stroke="hsl(0.0,100%,35%)" stroke-width="0.00029"></path>
<path d="M1.549 0.025 Q1.260 0.044 1.235 0.190" stroke="hsl(0.0,100%,35%)" stroke-width="0.00264"></path>
<path d="M1.549 0.025 Q1.322 0.145 1.507 0.283" stroke="hsl(0.0,100%,35%)" stroke-width="0.00029"></path>
<path d="M0.289 0.754 Q0.354 0.585 0.040 0.516" stroke="hsl(0.0,100%,35%)" stroke-width="0.00015"></path>
<path d="M0.289 0.754 Q0.376 0.793 0.471 0.759" stroke="hsl(0.0,100%,35%)" stroke-width="0.00103"></path>
<path d="M0.289 0.754 Q1.213 0.661 1.235 0.190" stroke="hsl(0.0,100%,35%)" stroke-width="0.00015"></path>
<path d="M0.289 0.754 Q1.101 0.570 0.920 0.133" stroke="hsl(0.0,100%,35%)" stroke-width="0.00015"></path>
<path d="M0.868 0.689 Q1.451 0.513 1.235 0.190" stroke="hsl(240.0,100%,35%)" stroke-width="0.00029"></path>
<path d="M0.868 0.689 Q0.831 0.637 0.722 0.644" stroke="hsl(240.0,100%,35%)" stroke-width="0.00103"></path>
<path d="M0.868 0.689 Q0.543 0.756 0.601 0.929" stroke="hsl(240.0,100%,35%)" stroke-width="0.00059"></path>
<path d="M0.868 0.689 Q0.704 0.697 0.682 0.778" stroke="hsl(240.0,100%,35%)" stroke-width="0.00044"></path>
<path d="M0.868 0.689 Q0.947 0.282 0.169 0.154" stroke="hsl(240.0,100%,35%)" stroke-width="0.00015"></path>
<path d="M0.868 0.689 Q0.527 0.606 0.289 0.754" stroke="hsl(240.0,100%,35%)" stroke-width="0.00015"></path>
<path d="M0.722 0.644 Q0.346 0.696 0.364 0.890" stroke="hsl(240.0,100%,35%)" stroke-width="0.00015"></path>
<path d="M0.722 0.644 Q0.504 0.642 0.452 0.749" stroke="hsl(240.0,100%,35%)" stroke-width="0.00015"></path>
<path d="M0.722 0.644 Q0.759 0.696 0.868 0.689" stroke="hsl(240.0,100%,35%)" stroke-width="0.00147"></path>
<path d="M0.722 0.644 Q0.595 0.703 0.682 0.778" stroke="hsl(240.0,100%,35%)" stroke-width="0.00176"></path>
<path d="M0.722 0.644 Q0.484 0.444 0.040 0.516" stroke="hsl(240.0,100%,35%)" stroke-width="0.00073"></path>
<path d="M0.722 0.644 Q0.434 0.762 0.601 0.929" stroke="hsl(240.0,100%,35%)" stroke-width="0.00059"></path>
<path d="M0.722 0.644 Q1.231 0.428 0.920 0.133" stroke="hsl(240.0,100%,35%)" stroke-width="0.00029"></path>
<path d="M0.722 0.644 Q1.342 0.519 1.235 0.190" stroke="hsl(240.0,100%,35%)" stroke-width="0.00015"></path>
<path d="M0.573 0.530 Q0.181 0.669 0.364 0.890" stroke="hsl(120.0,100%,35%)" stroke-width="0.00425"></path>
<path d="M0.573 0.530 Q0.430 0.563 0.463 0.640" stroke="hsl(120.0,100%,35%)" stroke-width="0.03022"></path>
<path d="M0.573 0.530 Q1.176 0.492 1.235 0.190" stroke="hsl(120.0,100%,35%)" stroke-width="0.00822"></path>
<path d="M0.573 0.530 Q0.773 0.545 0.847 0.451" stroke="hsl(120.0,100%,35%)" stroke-width="0.00015"></path>
<path d="M0.573 0.530 Q1.065 0.401 0.920 0.133" stroke="hsl(120.0,100%,35%)" stroke-width="0.01218"></path>
<path d="M0.573 0.530 Q0.985 0.715 1.435 0.554" stroke="hsl(120.0,100%,35%)" stroke-width="0.00411"></path>
<path d="M0.573 0.530 Q0.268 0.735 0.601 0.929" stroke="hsl(120.0,100%,35%)" stroke-width="0.00161"></path>
<path d="M0.573 0.530 Q1.238 0.593 1.507 0.283" stroke="hsl(120.0,100%,35%)" stroke-width="0.00073"></path>
<path d="M0.573 0.530 Q0.593 0.669 0.868 0.689" stroke="hsl(120.0,100%,35%)" stroke-width="0.00029"></path>
<path d="M0.573 0.530 Q0.318 0.416 0.040 0.516" stroke="hsl(120.0,100%,35%)" stroke-width="0.00117"></path>
<path d="M0.573 0.530 Q0.947 0.802 1.560 0.679" stroke="hsl(120.0,100%,35%)" stroke-width="0.00073"></path>
<path d="M0.573 0.530 Q0.766 0.624 0.991 0.550" stroke="hsl(120.0,100%,35%)" stroke-width="0.00029"></path>
<path d="M0.573 0.530 Q0.938 0.494 0.947 0.308" stroke="hsl(120.0,100%,35%)" stroke-width="0.00015"></path>
<path d="M0.463 0.640 Q0.350 0.493 0.040 0.516" stroke="hsl(120.0,100%,35%)" stroke-width="0.01232"></path>
<path d="M0.463 0.640 Q0.979 0.879 1.560 0.679" stroke="hsl(120.0,100%,35%)" stroke-width="0.01306"></path>
<path d="M0.463 0.640 Q1.017 0.791 1.435 0.554" stroke="hsl(120.0,100%,35%)" stroke-width="0.00455"></path>
<path d="M0.463 0.640 Q0.700 0.427 0.339 0.265" stroke="hsl(120.0,100%,35%)" stroke-width="0.00044"></path>
<path d="M0.463 0.640 Q1.097 0.478 0.920 0.133" stroke="hsl(120.0,100%,35%)" stroke-width="0.00191"></path>
<path d="M0.463 0.640 Q1.208 0.569 1.235 0.190" stroke="hsl(120.0,100%,35%)" stroke-width="0.00220"></path>
<path d="M0.463 0.640 Q0.311 0.590 0.182 0.654" stroke="hsl(120.0,100%,35%)" stroke-width="0.00352"></path>
<path d="M0.463 0.640 Q0.626 0.745 0.868 0.689" stroke="hsl(120.0,100%,35%)" stroke-width="0.00176"></path>
<path d="M0.463 0.640 Q1.270 0.670 1.507 0.283" stroke="hsl(120.0,100%,35%)" stroke-width="0.00044"></path>
<path d="M0.463 0.640 Q0.798 0.700 0.991 0.550" stroke="hsl(120.0,100%,35%)" stroke-width="0.00029"></path>
<path d="M0.463 0.640 Q0.300 0.812 0.601 0.929" stroke="hsl(120.0,100%,35%)" stroke-width="0.00059"></path>
<path d="M0.463 0.640 Q0.605 0.607 0.573 0.530" stroke="hsl(120.0,100%,35%)" stroke-width="0.00088"></path>
<path d="M0.463 0.640 Q0.390 0.713 0.517 0.764" stroke="hsl(120.0,100%,35%)" stroke-width="0.00015"></path>
<path d="M0.463 0.640 Q0.461 0.753 0.682 0.778" stroke="hsl(120.0,100%,35%)" stroke-width="0.00029"></path>
<path d="M0.471 0.759 Q0.313 0.803 0.364 0.890" stroke="hsl(0.0,100%,35%)" stroke-width="0.00015"></path>
<path d="M0.471 0.759 Q0.493 0.785 0.549 0.780" stroke="hsl(0.0,100%,35%)" stroke-width="0.00029"></path>
<path d="M0.471 0.759 Q0.384 0.720 0.289 0.754" stroke="hsl(0.0,100%,35%)" stroke-width="0.00073"></path>
<path d="M0.471 0.759 Q1.197 0.536 0.920 0.133" stroke="hsl(0.0,100%,35%)" stroke-width="0.00029"></path>
<path d="M0.471 0.759 Q0.562 0.697 0.463 0.640" stroke="hsl(0.0,100%,35%)" stroke-width="0.00015"></path>
<path d="M0.471 0.759 Q0.450 0.551 0.040 0.516" stroke="hsl(0.0,100%,35%)" stroke-width="0.00015"></path>
<path d="M0.471 0.759 Q0.561 0.811 0.682 0.778" stroke="hsl(0.0,100%,35%)" stroke-width="0.00015"></path>
<path d="M0.471 0.759 Q1.308 0.627 1.235 0.190" stroke="hsl(0.0,100%,35%)" stroke-width="0.00029"></path>
<path d="M0.471 0.759 Q0.705 0.665 0.573 0.530" stroke="hsl(0.0,100%,35%)" stroke-width="0.00015"></path>
<path d="M1.356 0.040 Q1.175 0.091 1.235 0.190" stroke="hsl(0.0,100%,35%)" stroke-width="0.00631"></path>
<path d="M1.356 0.040 Q1.303 0.025 1.262 0.048" stroke="hsl(0.0,100%,35%)" stroke-width="0.00015"></path>
<path d="M1.356 0.040 Q1.064 -0.001 0.920 0.133" stroke="hsl(0.0,100%,35%)" stroke-width="0.00015"></path>
<path d="M1.356 0.040 Q0.339 0.222 0.471 0.759" stroke="hsl(0.0,100%,35%)" stroke-width="0.00015"></path>
<path d="M1.356 0.040 Q0.572 0.128 0.573 0.530" stroke="hsl(0.0,100%,35%)" stroke-width="0.00015"></path>
<path d="M0.991 0.550 Q0.405 0.595 0.364 0.890" stroke="hsl(240.0,100%,35%)" stroke-width="0.00264"></path>
<path d="M0.991 0.550 Q0.798 0.457 0.573 0.530" stroke="hsl(240.0,100%,35%)" stroke-width="0.00059"></path>
<path d="M0.991 0.550 Q0.998 0.472 0.847 0.451" stroke="hsl(240.0,100%,35%)" stroke-width="0.00411"></path>
<path d="M0.991 0.550 Q1.289 0.327 0.920 0.133" stroke="hsl(240.0,100%,35%)" stroke-width="0.00029"></path>
<path d="M0.991 0.550 Q1.463 0.520 1.507 0.283" stroke="hsl(240.0,100%,35%)" stroke-width="0.00088"></path>
<path d="M0.991 0.550 Q0.493 0.662 0.601 0.929" stroke="hsl(240.0,100%,35%)" stroke-width="0.00073"></path>
<path d="M0.991 0.550 Q0.781 0.544 0.722 0.644" stroke="hsl(240.0,100%,35%)" stroke-width="0.00015"></path>
<path d="M0.991 0.550 Q0.586 0.577 0.549 0.780" stroke="hsl(240.0,100%,35%)" stroke-width="0.00015"></path>
<path d="M0.991 0.550 Q0.407 0.517 0.215 0.795" stroke="hsl(240.0,100%,35%)" stroke-width="0.00029"></path>
<path d="M0.991 0.550 Q0.655 0.489 0.463 0.640" stroke="hsl(240.0,100%,35%)" stroke-width="0.00015"></path>
<path d="M0.991 0.550 Q1.172 0.729 1.560 0.679" stroke="hsl(240.0,100%,35%)" stroke-width="0.00015"></path>
<path d="M0.991 0.550 Q0.504 0.440 0.182 0.654" stroke="hsl(240.0,100%,35%)" stroke-width="0.00015"></path>
<path d="M0.991 0.550 Q1.401 0.419 1.235 0.190" stroke="hsl(240.0,100%,35%)" stroke-width="0.00088"></path>
<path d="M0.991 0.550 Q0.543 0.343 0.040 0.516" stroke="hsl(240.0,100%,35%)" stroke-width="0.00015"></path>
<path d="M0.847 0.451 Q0.839 0.530 0.991 0.550" stroke="hsl(240.0,100%,35%)" stroke-width="0.00235"></path>
<path d="M0.847 0.451 Q0.342 0.641 0.601 0.929" stroke="hsl(240.0,100%,35%)" stroke-width="0.00176"></path>
<path d="M0.847 0.451 Q0.485 0.709 0.908 0.941" stroke="hsl(240.0,100%,35%)" stroke-width="0.00015"></path>
<path d="M0.847 0.451 Q0.413 0.530 0.471 0.759" stroke="hsl(240.0,100%,35%)" stroke-width="0.00088"></path>
<path d="M0.847 0.451 Q0.325 0.491 0.289 0.754" stroke="hsl(240.0,100%,35%)" stroke-width="0.00015"></path>
<path d="M0.847 0.451 Q0.254 0.574 0.364 0.890" stroke="hsl(240.0,100%,35%)" stroke-width="0.00015"></path>
<path d="M0.847 0.451 Q1.138 0.307 0.920 0.133" stroke="hsl(240.0,100%,35%)" stroke-width="0.00029"></path>
<path d="M0.847 0.451 Q1.250 0.398 1.235 0.190" stroke="hsl(240.0,100%,35%)" stroke-width="0.00029"></path>
<path d="M0.847 0.451 Q1.312 0.499 1.507 0.283" stroke="hsl(240.0,100%,35%)" stroke-width="0.00029"></path>
<path d="M0.291 0.949 Q0.462 1.001 0.601 0.929" stroke="hsl(240.0,100%,35%)" stroke-width="0.00059"></path>
<path d="M0.291 0.949 Q0.375 0.934 0.364 0.890" stroke="hsl(240.0,100%,35%)" stroke-width="0.00396"></path>
<path d="M0.291 0.949 Q1.432 0.859 1.507 0.283" stroke="hsl(240.0,100%,35%)" stroke-width="0.00029"></path>
<path d="M0.291 0.949 Q0.960 0.889 0.991 0.550" stroke="hsl(240.0,100%,35%)" stroke-width="0.00088"></path>
<path d="M0.291 0.949 Q0.625 0.829 0.463 0.640" stroke="hsl(240.0,100%,35%)" stroke-width="0.00015"></path>
<path d="M0.908 0.941 Q1.269 0.684 0.847 0.451" stroke="hsl(240.0,100%,35%)" stroke-width="0.00029"></path>
<path d="M0.908 0.941 Q0.764 0.874 0.601 0.929" stroke="hsl(240.0,100%,35%)" stroke-width="0.00880"></path>
<path d="M0.908 0.941 Q1.561 0.540 0.920 0.133" stroke="hsl(240.0,100%,35%)" stroke-width="0.00029"></path>
<path d="M0.908 0.941 Q0.927 0.702 0.463 0.640" stroke="hsl(240.0,100%,35%)" stroke-width="0.00015"></path>
<path d="M0.908 0.941 Q1.481 0.853 1.435 0.554" stroke="hsl(240.0,100%,35%)" stroke-width="0.00015"></path>
<path d="M0.908 0.941 Q1.443 0.941 1.560 0.679" stroke="hsl(240.0,100%,35%)" stroke-width="0.00015"></path>
<path d="M0.908 0.941 Q0.814 0.555 0.040 0.516" stroke="hsl(240.0,100%,35%)" stroke-width="0.00015"></path>
<path d="M0.908 0.941 Q0.925 0.815 0.682 0.778" stroke="hsl(240.0,100%,35%)" stroke-width="0.00029"></path>
<path d="M0.908 0.941 Q1.090 0.807 0.868 0.689" stroke="hsl(240.0,100%,35%)" stroke-width="0.00015"></path>
<path d="M0.170 0.906 Q0.280 0.937 0.364 0.890" stroke="hsl(240.0,100%,35%)" stroke-width="0.00015"></path>
<path d="M0.170 0.906 Q0.417 0.685 0.040 0.516" stroke="hsl(240.0,100%,35%)" stroke-width="0.00015"></path>
<path d="M0.170 0.906 Q0.367 1.004 0.601 0.929" stroke="hsl(240.0,100%,35%)" stroke-width="0.00015"></path>
<path d="M0.770 0.795 Q0.491 0.761 0.364 0.890" stroke="hsl(240.0,100%,35%)" stroke-width="0.00044"></path>
<path d="M0.770 0.795 Q0.578 0.828 0.601 0.929" stroke="hsl(240.0,100%,35%)" stroke-width="0.00044"></path>
<path d="M0.770 0.795 Q1.295 0.807 1.435 0.554" stroke="hsl(240.0,100%,35%)" stroke-width="0.00029"></path>
<path d="M0.770 0.795 Q0.628 0.509 0.040 0.516" stroke="hsl(240.0,100%,35%)" stroke-width="0.00015"></path>
<path d="M0.770 0.795 Q0.982 0.354 0.169 0.154" stroke="hsl(240.0,100%,35%)" stroke-width="0.00015"></path>
<path d="M0.770 0.795 Q0.739 0.769 0.682 0.778" stroke="hsl(240.0,100%,35%)" stroke-width="0.00029"></path>
<path d="M0.770 0.795 Q0.867 0.710 0.722 0.644" stroke="hsl(240.0,100%,35%)" stroke-width="0.00015"></path>
<path d="M0.549 0.780 Q1.363 0.622 1.235 0.190" stroke="hsl(240.0,100%,35%)" stroke-width="0.00059"></path>
<path d="M0.549 0.780 Q1.491 0.556 1.262 0.048" stroke="hsl(240.0,100%,35%)" stroke-width="0.00015"></path>
<path d="M0.549 0.780 Q0.855 0.480 0.339 0.265" stroke="hsl(240.0,100%,35%)" stroke-width="0.00015"></path>
<path d="M0.549 0.780 Q0.527 0.754 0.471 0.759" stroke="hsl(240.0,100%,35%)" stroke-width="0.00029"></path>
<path d="M1.193 0.276 Q1.282 0.241 1.235 0.190" stroke="hsl(0.0,100%,35%)" stroke-width="0.00044"></path>
<path d="M1.193 0.276 Q0.287 0.417 0.364 0.890" stroke="hsl(0.0,100%,35%)" stroke-width="0.00015"></path>
<path d="M1.193 0.276 Q0.374 0.484 0.601 0.929" stroke="hsl(0.0,100%,35%)" stroke-width="0.00015"></path>
<path d="M0.452 0.749 Q0.382 0.869 0.601 0.929" stroke="hsl(240.0,100%,35%)" stroke-width="0.00103"></path>
<path d="M0.452 0.749 Q0.543 0.809 0.682 0.778" stroke="hsl(240.0,100%,35%)" stroke-width="0.00015"></path>
<path d="M0.452 0.749 Q0.671 0.750 0.722 0.644" stroke="hsl(240.0,100%,35%)" stroke-width="0.00117"></path>
<path d="M0.452 0.749 Q0.708 0.802 0.868 0.689" stroke="hsl(240.0,100%,35%)" stroke-width="0.00015"></path>
<path d="M0.452 0.749 Q1.061 0.935 1.560 0.679" stroke="hsl(240.0,100%,35%)" stroke-width="0.00015"></path>
<path d="M0.091 0.839 Q0.274 0.986 0.601 0.929" stroke="hsl(240.0,100%,35%)" stroke-width="0.00073"></path>
<path d="M0.091 0.839 Q1.244 0.844 1.507 0.283" stroke="hsl(240.0,100%,35%)" stroke-width="0.00015"></path>
<path d="M0.091 0.839 Q0.188 0.841 0.215 0.795" stroke="hsl(240.0,100%,35%)" stroke-width="0.00293"></path>
<path d="M0.091 0.839 Q1.070 0.652 0.920 0.133" stroke="hsl(240.0,100%,35%)" stroke-width="0.00015"></path>
<path d="M0.091 0.839 Q0.186 0.919 0.364 0.890" stroke="hsl(240.0,100%,35%)" stroke-width="0.00044"></path>
<path d="M1.112 -0.039 Q0.990 0.100 1.235 0.190" stroke="hsl(0.0,100%,35%)" stroke-width="0.00117"></path>
<path d="M1.112 -0.039 Q1.117 0.034 1.262 0.048" stroke="hsl(0.0,100%,35%)" stroke-width="0.00015"></path>
<path d="M1.112 -0.039 Q0.153 0.232 0.471 0.759" stroke="hsl(0.0,100%,35%)" stroke-width="0.00015"></path>
<path d="M0.600 0.355 Q0.820 0.709 1.560 0.679" stroke="hsl(120.0,100%,35%)" stroke-width="0.00088"></path>
<path d="M0.600 0.355 Q0.541 0.258 0.339 0.265" stroke="hsl(120.0,100%,35%)" stroke-width="0.00088"></path>
<path d="M0.600 0.355 Q0.191 0.324 0.040 0.516" stroke="hsl(120.0,100%,35%)" stroke-width="0.00015"></path>
<path d="M1.176 0.704 Q1.206 0.590 0.991 0.550" stroke="hsl(240.0,100%,35%)" stroke-width="0.00103"></path>
<path d="M1.176 0.704 Q1.617 0.459 1.235 0.190" stroke="hsl(240.0,100%,35%)" stroke-width="0.00015"></path>
<path d="M1.176 0.704 Q0.709 0.702 0.601 0.929" stroke="hsl(240.0,100%,35%)" stroke-width="0.00015"></path>
<path d="M1.176 0.704 Q0.758 0.383 0.040 0.516" stroke="hsl(240.0,100%,35%)" stroke-width="0.00015"></path>
<path d="M1.303 0.666 Q0.791 0.338 0.040 0.516" stroke="hsl(120.0,100%,35%)" stroke-width="0.00015"></path>
<path d="M1.303 0.666 Q1.458 0.637 1.435 0.554" stroke="hsl(120.0,100%,35%)" stroke-width="0.00015"></path>
<path d="M1.303 0.666 Q1.538 0.323 0.920 0.133" stroke="hsl(120.0,100%,35%)" stroke-width="0.00015"></path>
<path d="M0.163 0.362 Q0.607 0.800 1.560 0.679" stroke="hsl(120.0,100%,35%)" stroke-width="0.00059"></path>
<path d="M0.163 0.362 Q-0.022 0.414 0.040 0.516" stroke="hsl(120.0,100%,35%)" stroke-width="0.00205"></path>
<path d="M0.163 0.362 Q0.645 0.713 1.435 0.554" stroke="hsl(120.0,100%,35%)" stroke-width="0.00088"></path>
<path d="M0.163 0.362 Q0.836 0.490 1.235 0.190" stroke="hsl(120.0,100%,35%)" stroke-width="0.00015"></path>
<path d="M0.163 0.362 Q0.598 0.492 0.947 0.308" stroke="hsl(120.0,100%,35%)" stroke-width="0.00015"></path>
<path d="M0.163 0.362 Q0.233 0.528 0.573 0.530" stroke="hsl(120.0,100%,35%)" stroke-width="0.00015"></path>
<path d="M0.443 0.010 Q0.190 0.027 0.169 0.154" stroke="hsl(240.0,100%,35%)" stroke-width="0.00073"></path>
<path d="M0.443 0.010 Q0.112 0.435 0.868 0.689" stroke="hsl(240.0,100%,35%)" stroke-width="0.00015"></path>
<path d="M0.443 0.010 Q0.756 0.359 1.507 0.283" stroke="hsl(240.0,100%,35%)" stroke-width="0.00015"></path>
<path d="M0.443 0.010 Q-0.214 0.501 0.601 0.929" stroke="hsl(240.0,100%,35%)" stroke-width="0.00015"></path>
<path d="M0.071 1.683 Q0.989 1.093 0.040 0.516" stroke="hsl(240.0,100%,35%)" stroke-width="0.00029"></path>
<path d="M0.071 1.683 Q1.100 1.353 0.682 0.778" stroke="hsl(240.0,100%,35%)" stroke-width="0.00015"></path>
<path d="M0.071 1.683 Q1.009 1.292 0.452 0.749" stroke="hsl(240.0,100%,35%)" stroke-width="0.00015"></path>
</g>
<text x="0.947" y="0.289" font-size="0.038597" fill="hsl(0.0,100%,20%)">armansito</text>
<text x="1.235" y="0.153" font-size="0.074477" fill="hsl(0.0,100%,20%)">brianosman</text>
<text x="1.435" y="0.531" font-size="0.046717" fill="hsl(120.0,100%,20%)">jvanverth</text>
<text x="0.920" y="0.093" font-size="0.079562" fill="hsl(0.0,100%,20%)">johnstiles</text>
<text x="1.560" y="0.654" font-size="0.050714" fill="hsl(120.0,100%,20%)">michaelludwig</text>
<text x="0.601" y="0.898" font-size="0.062836" fill="hsl(240.0,100%,20%)">kjlubick</text>
<text x="0.339" y="0.254" font-size="0.022419" fill="hsl(120.0,100%,20%)">nicolettep</text>
<text x="0.040" y="0.493" font-size="0.045340" fill="hsl(120.0,100%,20%)">egdaniel</text>
<text x="0.364" y="0.869" font-size="0.042184" fill="hsl(240.0,100%,20%)">bungeman</text>
<text x="1.507" y="0.264" font-size="0.037586" fill="hsl(0.0,100%,20%)">bsalomon</text>
<text x="0.182" y="0.642" font-size="0.022419" fill="hsl(120.0,100%,20%)">jamesgk</text>
<text x="0.682" y="0.768" font-size="0.020849" fill="hsl(240.0,100%,20%)">rmistry</text>
<text x="0.215" y="0.785" font-size="0.019386" fill="hsl(240.0,100%,20%)">jlavrova</text>
<text x="1.549" y="0.015" font-size="0.018551" fill="hsl(0.0,100%,20%)">ethannicholas</text>
<text x="0.289" y="0.748" font-size="0.011655" fill="hsl(0.0,100%,20%)">djsollen</text>
<text x="0.868" y="0.679" font-size="0.019848" fill="hsl(240.0,100%,20%)">borenet</text>
<text x="0.722" y="0.633" font-size="0.021491" fill="hsl(240.0,100%,20%)">jcgregorio</text>
<text x="0.169" y="0.151" font-size="0.007371" fill="hsl(240.0,100%,20%)">hcm</text>
<text x="0.573" y="0.503" font-size="0.054501" fill="hsl(120.0,100%,20%)">herb</text>
<text x="1.262" y="0.045" font-size="0.005630" fill="hsl(0.0,100%,20%)">jreck</text>
<text x="0.463" y="0.611" font-size="0.057768" fill="hsl(120.0,100%,20%)">robertphillips</text>
<text x="0.471" y="0.750" font-size="0.016483" fill="hsl(0.0,100%,20%)">scroggo</text>
<text x="1.356" y="0.032" font-size="0.015047" fill="hsl(0.0,100%,20%)">ccameron</text>
<text x="0.991" y="0.537" font-size="0.026492" fill="hsl(240.0,100%,20%)">fmalita</text>
<text x="0.847" y="0.441" font-size="0.021596" fill="hsl(240.0,100%,20%)">jmbetancourt</text>
<text x="0.291" y="0.942" font-size="0.013625" fill="hsl(240.0,100%,20%)">drott</text>
<text x="0.908" y="0.932" font-size="0.019386" fill="hsl(240.0,100%,20%)">cmumford</text>
<text x="0.170" y="0.904" font-size="0.003686" fill="hsl(240.0,100%,20%)">dnfield</text>
<text x="0.770" y="0.790" font-size="0.008512" fill="hsl(240.0,100%,20%)">erikrose</text>
<text x="0.549" y="0.775" font-size="0.009275" fill="hsl(240.0,100%,20%)">nscobie</text>
<text x="1.193" y="0.273" font-size="0.004758" fill="hsl(0.0,100%,20%)">iapres</text>
<text x="0.452" y="0.742" font-size="0.013790" fill="hsl(240.0,100%,20%)">lovisolo</text>
<text x="0.517" y="0.761" font-size="0.005212" fill="hsl(240.0,100%,20%)">tdenniston</text>
<text x="0.866" y="0.770" font-size="0.004758" fill="hsl(240.0,100%,20%)">wrightgeorge</text>
<text x="0.091" y="0.833" font-size="0.011655" fill="hsl(240.0,100%,20%)">jsimmons</text>
<text x="1.112" y="-0.043" font-size="0.006729" fill="hsl(0.0,100%,20%)">kyslov</text>
<text x="0.600" y="0.351" font-size="0.007672" fill="hsl(120.0,100%,20%)">lehoangquyen</text>
<text x="1.176" y="0.701" font-size="0.006729" fill="hsl(240.0,100%,20%)">mike</text>
<text x="1.303" y="0.664" font-size="0.003686" fill="hsl(120.0,100%,20%)">nathbappai</text>
<text x="0.163" y="0.356" font-size="0.011057" fill="hsl(120.0,100%,20%)">penghuang</text>
<text x="0.443" y="0.007" font-size="0.006019" fill="hsl(240.0,100%,20%)">sharaks</text>
<text x="0.071" y="1.681" font-size="0.004256" fill="hsl(240.0,100%,20%)">shuangshuang.zhou</text>
</svg>
