<svg width="4000" height="2000" viewBox="-0.025 -0.025 2.05 1.05" xmlns="http://www.w3.org/2000/svg">
  <style>
    path {
      fill: none;
      stroke-linecap: round;
      stroke-opacity: 0.4;
    }

    text {
      text-anchor: middle;
      alignment-baseline: hanging;
    }
  </style>
  <g opacity="0.4">
<path d="M0.635 0.100 Q0.756 0.173 0.924 0.130" stroke="hsl(0.0,100%,35%)" stroke-width="0.00272"></path>
<path d="M0.635 0.100 Q0.917 0.511 1.779 0.464" stroke="hsl(0.0,100%,35%)" stroke-width="0.00136"></path>
<path d="M0.635 0.100 Q0.625 0.544 1.488 0.646" stroke="hsl(0.0,100%,35%)" stroke-width="0.00136"></path>
<path d="M0.924 0.130 Q0.541 0.505 1.188 0.774" stroke="hsl(0.0,100%,35%)" stroke-width="0.00543"></path>
<path d="M0.924 0.130 Q0.851 0.245 1.058 0.306" stroke="hsl(0.0,100%,35%)" stroke-width="0.00679"></path>
<path d="M0.924 0.130 Q0.734 0.162 0.754 0.261" stroke="hsl(0.0,100%,35%)" stroke-width="0.00272"></path>
<path d="M0.924 0.130 Q0.250 0.200 0.239 0.544" stroke="hsl(0.0,100%,35%)" stroke-width="0.00408"></path>
<path d="M0.924 0.130 Q1.167 0.434 1.813 0.383" stroke="hsl(0.0,100%,35%)" stroke-width="0.00136"></path>
<path d="M0.924 0.130 Q0.350 0.276 0.508 0.588" stroke="hsl(0.0,100%,35%)" stroke-width="0.00408"></path>
<path d="M1.779 0.464 Q1.488 0.497 1.488 0.646" stroke="hsl(180.0,100%,35%)" stroke-width="0.01087"></path>
<path d="M1.779 0.464 Q1.425 0.412 1.246 0.574" stroke="hsl(180.0,100%,35%)" stroke-width="0.00679"></path>
<path d="M1.779 0.464 Q1.241 0.313 0.829 0.543" stroke="hsl(180.0,100%,35%)" stroke-width="0.00136"></path>
<path d="M1.779 0.464 Q1.619 0.126 0.924 0.130" stroke="hsl(180.0,100%,35%)" stroke-width="0.00136"></path>
<path d="M1.779 0.464 Q1.597 0.411 1.454 0.489" stroke="hsl(180.0,100%,35%)" stroke-width="0.00272"></path>
<path d="M1.779 0.464 Q1.861 0.430 1.813 0.383" stroke="hsl(180.0,100%,35%)" stroke-width="0.00272"></path>
<path d="M1.779 0.464 Q1.443 0.378 1.203 0.524" stroke="hsl(180.0,100%,35%)" stroke-width="0.00136"></path>
<path d="M1.488 0.646 Q1.597 0.561 1.454 0.489" stroke="hsl(180.0,100%,35%)" stroke-width="0.00679"></path>
<path d="M1.488 0.646 Q1.861 0.580 1.813 0.383" stroke="hsl(180.0,100%,35%)" stroke-width="0.00679"></path>
<path d="M1.488 0.646 Q1.425 0.562 1.246 0.574" stroke="hsl(180.0,100%,35%)" stroke-width="0.01766"></path>
<path d="M1.488 0.646 Q1.780 0.613 1.779 0.464" stroke="hsl(180.0,100%,35%)" stroke-width="0.01630"></path>
<path d="M1.488 0.646 Q1.236 0.650 1.188 0.774" stroke="hsl(180.0,100%,35%)" stroke-width="0.00408"></path>
<path d="M1.587 0.500 Q1.530 0.468 1.454 0.489" stroke="hsl(180.0,100%,35%)" stroke-width="0.00136"></path>
<path d="M1.587 0.500 Q1.421 0.553 1.488 0.646" stroke="hsl(180.0,100%,35%)" stroke-width="0.00272"></path>
<path d="M1.587 0.500 Q1.713 0.520 1.779 0.464" stroke="hsl(180.0,100%,35%)" stroke-width="0.00136"></path>
<path d="M1.454 0.489 Q1.719 0.507 1.813 0.383" stroke="hsl(180.0,100%,35%)" stroke-width="0.02310"></path>
<path d="M1.454 0.489 Q1.345 0.574 1.488 0.646" stroke="hsl(180.0,100%,35%)" stroke-width="0.01495"></path>
<path d="M1.454 0.489 Q1.637 0.541 1.779 0.464" stroke="hsl(180.0,100%,35%)" stroke-width="0.00272"></path>
<path d="M1.454 0.489 Q1.300 0.456 1.203 0.524" stroke="hsl(180.0,100%,35%)" stroke-width="0.00408"></path>
<path d="M0.508 0.588 Q1.244 0.780 1.779 0.464" stroke="hsl(0.0,100%,35%)" stroke-width="0.00136"></path>
<path d="M0.508 0.588 Q0.699 0.817 1.188 0.774" stroke="hsl(0.0,100%,35%)" stroke-width="0.00408"></path>
<path d="M0.508 0.588 Q1.325 0.746 1.813 0.383" stroke="hsl(0.0,100%,35%)" stroke-width="0.00272"></path>
<path d="M0.508 0.588 Q0.952 0.813 1.488 0.646" stroke="hsl(0.0,100%,35%)" stroke-width="0.00136"></path>
<path d="M1.188 0.774 Q1.440 0.770 1.488 0.646" stroke="hsl(0.0,100%,35%)" stroke-width="0.01766"></path>
<path d="M1.188 0.774 Q0.997 0.545 0.508 0.588" stroke="hsl(0.0,100%,35%)" stroke-width="0.01087"></path>
<path d="M1.188 0.774 Q1.549 0.685 1.454 0.489" stroke="hsl(0.0,100%,35%)" stroke-width="0.00543"></path>
<path d="M1.188 0.774 Q1.571 0.399 0.924 0.130" stroke="hsl(0.0,100%,35%)" stroke-width="0.01495"></path>
<path d="M1.188 0.774 Q1.362 0.788 1.428 0.706" stroke="hsl(0.0,100%,35%)" stroke-width="0.02038"></path>
<path d="M1.188 0.774 Q0.898 0.469 0.239 0.544" stroke="hsl(0.0,100%,35%)" stroke-width="0.02038"></path>
<path d="M1.188 0.774 Q1.377 0.685 1.246 0.574" stroke="hsl(0.0,100%,35%)" stroke-width="0.00543"></path>
<path d="M1.188 0.774 Q0.842 0.665 0.553 0.810" stroke="hsl(0.0,100%,35%)" stroke-width="0.00408"></path>
<path d="M1.188 0.774 Q1.732 0.737 1.779 0.464" stroke="hsl(0.0,100%,35%)" stroke-width="0.00272"></path>
<path d="M1.188 0.774 Q1.814 0.703 1.813 0.383" stroke="hsl(0.0,100%,35%)" stroke-width="0.00136"></path>
<path d="M1.188 0.774 Q1.282 0.933 1.612 0.922" stroke="hsl(0.0,100%,35%)" stroke-width="0.00136"></path>
<path d="M1.188 0.774 Q1.193 0.587 0.829 0.543" stroke="hsl(0.0,100%,35%)" stroke-width="0.00272"></path>
<path d="M1.813 0.383 Q1.440 0.449 1.488 0.646" stroke="hsl(180.0,100%,35%)" stroke-width="0.02446"></path>
<path d="M1.813 0.383 Q1.187 0.453 1.188 0.774" stroke="hsl(180.0,100%,35%)" stroke-width="0.00136"></path>
<path d="M1.813 0.383 Q0.842 0.344 0.553 0.810" stroke="hsl(180.0,100%,35%)" stroke-width="0.00136"></path>
<path d="M1.813 0.383 Q1.571 0.078 0.924 0.130" stroke="hsl(180.0,100%,35%)" stroke-width="0.00408"></path>
<path d="M1.813 0.383 Q1.732 0.416 1.779 0.464" stroke="hsl(180.0,100%,35%)" stroke-width="0.00408"></path>
<path d="M1.813 0.383 Q1.549 0.364 1.454 0.489" stroke="hsl(180.0,100%,35%)" stroke-width="0.00679"></path>
<path d="M1.813 0.383 Q1.377 0.365 1.246 0.574" stroke="hsl(180.0,100%,35%)" stroke-width="0.00272"></path>
<path d="M1.813 0.383 Q0.897 0.149 0.239 0.544" stroke="hsl(180.0,100%,35%)" stroke-width="0.00136"></path>
<path d="M1.355 0.898 Q1.915 0.766 1.779 0.464" stroke="hsl(0.0,100%,35%)" stroke-width="0.00679"></path>
<path d="M1.355 0.898 Q1.623 0.799 1.488 0.646" stroke="hsl(0.0,100%,35%)" stroke-width="0.00543"></path>
<path d="M1.355 0.898 Q1.081 0.498 0.239 0.544" stroke="hsl(0.0,100%,35%)" stroke-width="0.00272"></path>
<path d="M1.355 0.898 Q1.371 0.803 1.188 0.774" stroke="hsl(0.0,100%,35%)" stroke-width="0.00815"></path>
<path d="M1.355 0.898 Q1.560 0.714 1.246 0.574" stroke="hsl(0.0,100%,35%)" stroke-width="0.00136"></path>
<path d="M0.239 0.544 Q0.719 0.760 1.246 0.574" stroke="hsl(0.0,100%,35%)" stroke-width="0.00136"></path>
<path d="M0.239 0.544 Q0.529 0.849 1.188 0.774" stroke="hsl(0.0,100%,35%)" stroke-width="0.01087"></path>
<path d="M0.239 0.544 Q0.782 0.845 1.488 0.646" stroke="hsl(0.0,100%,35%)" stroke-width="0.00136"></path>
<path d="M0.239 0.544 Q0.704 0.863 1.428 0.706" stroke="hsl(0.0,100%,35%)" stroke-width="0.00408"></path>
<path d="M0.239 0.544 Q0.314 0.460 0.167 0.406" stroke="hsl(0.0,100%,35%)" stroke-width="0.00679"></path>
<path d="M0.239 0.544 Q0.535 0.662 0.829 0.543" stroke="hsl(0.0,100%,35%)" stroke-width="0.00136"></path>
<path d="M0.239 0.544 Q1.164 0.627 1.529 0.194" stroke="hsl(0.0,100%,35%)" stroke-width="0.00136"></path>
<path d="M0.239 0.544 Q1.155 0.778 1.813 0.383" stroke="hsl(0.0,100%,35%)" stroke-width="0.00272"></path>
<path d="M1.246 0.574 Q1.601 0.625 1.779 0.464" stroke="hsl(180.0,100%,35%)" stroke-width="0.00815"></path>
<path d="M1.246 0.574 Q1.682 0.592 1.813 0.383" stroke="hsl(180.0,100%,35%)" stroke-width="0.00136"></path>
<path d="M1.246 0.574 Q1.309 0.658 1.488 0.646" stroke="hsl(180.0,100%,35%)" stroke-width="0.00136"></path>
<path d="M1.428 0.706 Q1.506 0.688 1.488 0.646" stroke="hsl(0.0,100%,35%)" stroke-width="0.00272"></path>
<path d="M1.428 0.706 Q0.963 0.387 0.239 0.544" stroke="hsl(0.0,100%,35%)" stroke-width="0.00815"></path>
<path d="M1.428 0.706 Q1.253 0.692 1.188 0.774" stroke="hsl(0.0,100%,35%)" stroke-width="0.00679"></path>
<path d="M1.148 0.092 Q1.005 0.066 0.924 0.130" stroke="hsl(0.0,100%,35%)" stroke-width="0.00679"></path>
<path d="M1.148 0.092 Q0.622 0.441 1.188 0.774" stroke="hsl(0.0,100%,35%)" stroke-width="0.00815"></path>
<path d="M1.148 0.092 Q0.830 0.319 1.203 0.524" stroke="hsl(0.0,100%,35%)" stroke-width="0.00136"></path>
<path d="M1.203 0.524 Q1.621 0.575 1.813 0.383" stroke="hsl(180.0,100%,35%)" stroke-width="0.00408"></path>
<path d="M1.203 0.524 Q1.247 0.642 1.488 0.646" stroke="hsl(180.0,100%,35%)" stroke-width="0.00815"></path>
<path d="M1.203 0.524 Q1.357 0.556 1.454 0.489" stroke="hsl(180.0,100%,35%)" stroke-width="0.00136"></path>
<path d="M1.529 0.194 Q1.146 0.412 1.488 0.646" stroke="hsl(180.0,100%,35%)" stroke-width="0.00136"></path>
<path d="M1.529 0.194 Q0.900 0.229 0.829 0.543" stroke="hsl(180.0,100%,35%)" stroke-width="0.00136"></path>
<path d="M1.529 0.194 Q1.438 0.379 1.779 0.464" stroke="hsl(180.0,100%,35%)" stroke-width="0.00543"></path>
<path d="M1.529 0.194 Q1.083 0.327 1.246 0.574" stroke="hsl(180.0,100%,35%)" stroke-width="0.00136"></path>
<path d="M1.146 0.492 Q1.303 0.552 1.454 0.489" stroke="hsl(180.0,100%,35%)" stroke-width="0.00272"></path>
<path d="M1.146 0.492 Q1.194 0.638 1.488 0.646" stroke="hsl(180.0,100%,35%)" stroke-width="0.00408"></path>
<path d="M1.146 0.492 Q1.131 0.553 1.246 0.574" stroke="hsl(180.0,100%,35%)" stroke-width="0.00136"></path>
<path d="M0.904 0.789 Q1.058 0.838 1.188 0.774" stroke="hsl(0.0,100%,35%)" stroke-width="0.01630"></path>
<path d="M0.904 0.789 Q1.232 0.852 1.428 0.706" stroke="hsl(0.0,100%,35%)" stroke-width="0.00136"></path>
<path d="M0.904 0.789 Q0.767 0.533 0.239 0.544" stroke="hsl(0.0,100%,35%)" stroke-width="0.01766"></path>
<path d="M0.904 0.789 Q1.419 0.749 1.454 0.489" stroke="hsl(0.0,100%,35%)" stroke-width="0.00136"></path>
<path d="M1.306 0.223 Q1.441 0.253 1.529 0.194" stroke="hsl(180.0,100%,35%)" stroke-width="0.00815"></path>
<path d="M1.306 0.223 Q0.811 0.288 0.829 0.543" stroke="hsl(180.0,100%,35%)" stroke-width="0.00136"></path>
<path d="M1.306 0.223 Q0.806 0.475 1.188 0.774" stroke="hsl(180.0,100%,35%)" stroke-width="0.00136"></path>
</g>
<text x="0.635" y="0.093" font-size="0.014744" fill="hsl(0.0,100%,20%)">aperez</text>
<text x="0.924" y="0.107" font-size="0.046625" fill="hsl(0.0,100%,20%)">bungeman</text>
<text x="1.779" y="0.436" font-size="0.055658" fill="hsl(180.0,100%,20%)">egdaniel</text>
<text x="1.488" y="0.607" font-size="0.077319" fill="hsl(180.0,100%,20%)">michaelludwig</text>
<text x="1.587" y="0.493" font-size="0.014744" fill="hsl(180.0,100%,20%)">beaufort.francois</text>
<text x="1.454" y="0.461" font-size="0.054174" fill="hsl(180.0,100%,20%)">jvanverth</text>
<text x="0.508" y="0.573" font-size="0.031277" fill="hsl(0.0,100%,20%)">borenet</text>
<text x="1.188" y="0.732" font-size="0.083406" fill="hsl(0.0,100%,20%)">kjlubick</text>
<text x="1.813" y="0.352" font-size="0.060792" fill="hsl(180.0,100%,20%)">robertphillips</text>
<text x="1.355" y="0.883" font-size="0.031277" fill="hsl(0.0,100%,20%)">briansalomon</text>
<text x="0.239" y="0.515" font-size="0.058048" fill="hsl(0.0,100%,20%)">fmalita</text>
<text x="1.246" y="0.552" font-size="0.044233" fill="hsl(180.0,100%,20%)">nicolettep</text>
<text x="1.058" y="0.298" font-size="0.016485" fill="hsl(0.0,100%,20%)">jlavrova</text>
<text x="0.754" y="0.256" font-size="0.010426" fill="hsl(0.0,100%,20%)">brettos</text>
<text x="1.428" y="0.685" font-size="0.041703" fill="hsl(0.0,100%,20%)">danieldilan</text>
<text x="1.148" y="0.079" font-size="0.025538" fill="hsl(0.0,100%,20%)">drott</text>
<text x="1.203" y="0.509" font-size="0.028552" fill="hsl(180.0,100%,20%)">jamesgk</text>
<text x="0.829" y="0.534" font-size="0.018058" fill="hsl(180.0,100%,20%)">jmbetancourt</text>
<text x="0.167" y="0.398" font-size="0.016485" fill="hsl(0.0,100%,20%)">bwils</text>
<text x="1.529" y="0.180" font-size="0.027584" fill="hsl(180.0,100%,20%)">nscobie</text>
<text x="0.553" y="0.802" font-size="0.014744" fill="hsl(0.0,100%,20%)">maxhudnell</text>
<text x="1.612" y="0.918" font-size="0.007372" fill="hsl(0.0,100%,20%)">rmistry</text>
<text x="1.146" y="0.483" font-size="0.018058" fill="hsl(180.0,100%,20%)">kylechar</text>
<text x="0.904" y="0.769" font-size="0.038307" fill="hsl(0.0,100%,20%)">lukasza</text>
<text x="1.306" y="0.212" font-size="0.020851" fill="hsl(180.0,100%,20%)">vigneshv</text>
</svg>
