<svg width="4000" height="2000" viewBox="-0.025 -0.025 2.05 1.05" xmlns="http://www.w3.org/2000/svg">
  <style>
    path {
      fill: none;
      stroke-linecap: round;
      stroke-opacity: 0.4;
    }

    text {
      text-anchor: middle;
      alignment-baseline: hanging;
    }
  </style>
  <g opacity="0.4">
<path d="M0.522 0.334 Q0.560 0.261 0.426 0.226" stroke="hsl(0.0,100%,35%)" stroke-width="0.00239"></path>
<path d="M0.522 0.334 Q0.710 0.225 0.540 0.110" stroke="hsl(0.0,100%,35%)" stroke-width="0.00208"></path>
<path d="M0.522 0.334 Q0.482 0.468 0.735 0.516" stroke="hsl(0.0,100%,35%)" stroke-width="0.00096"></path>
<path d="M0.522 0.334 Q0.444 0.545 0.840 0.630" stroke="hsl(0.0,100%,35%)" stroke-width="0.00016"></path>
<path d="M0.522 0.334 Q-0.036 0.618 0.396 0.952" stroke="hsl(0.0,100%,35%)" stroke-width="0.00032"></path>
<path d="M0.522 0.334 Q1.187 0.345 1.355 0.023" stroke="hsl(0.0,100%,35%)" stroke-width="0.00016"></path>
<path d="M0.522 0.334 Q1.220 0.535 1.766 0.238" stroke="hsl(0.0,100%,35%)" stroke-width="0.00016"></path>
<path d="M0.522 0.334 Q1.000 0.613 1.650 0.441" stroke="hsl(0.0,100%,35%)" stroke-width="0.00048"></path>
<path d="M0.522 0.334 Q0.764 0.646 1.426 0.596" stroke="hsl(0.0,100%,35%)" stroke-width="0.00016"></path>
<path d="M0.522 0.334 Q0.381 0.299 0.283 0.361" stroke="hsl(0.0,100%,35%)" stroke-width="0.00016"></path>
<path d="M0.522 0.334 Q-0.012 0.511 0.217 0.811" stroke="hsl(0.0,100%,35%)" stroke-width="0.00016"></path>
<path d="M0.426 0.226 Q0.388 0.299 0.522 0.334" stroke="hsl(0.0,100%,35%)" stroke-width="0.00750"></path>
<path d="M0.426 0.226 Q0.576 0.191 0.540 0.110" stroke="hsl(0.0,100%,35%)" stroke-width="0.09004"></path>
<path d="M0.426 0.226 Q0.456 0.863 1.706 0.988" stroke="hsl(0.0,100%,35%)" stroke-width="0.00224"></path>
<path d="M0.426 0.226 Q1.053 0.311 1.355 0.023" stroke="hsl(0.0,100%,35%)" stroke-width="0.00383"></path>
<path d="M0.426 0.226 Q0.247 0.265 0.283 0.361" stroke="hsl(0.0,100%,35%)" stroke-width="0.02427"></path>
<path d="M0.426 0.226 Q0.536 0.384 0.869 0.365" stroke="hsl(0.0,100%,35%)" stroke-width="0.00112"></path>
<path d="M0.426 0.226 Q0.548 0.493 1.095 0.492" stroke="hsl(0.0,100%,35%)" stroke-width="0.00032"></path>
<path d="M0.426 0.226 Q0.348 0.433 0.735 0.516" stroke="hsl(0.0,100%,35%)" stroke-width="0.00303"></path>
<path d="M0.426 0.226 Q0.324 0.748 1.320 0.913" stroke="hsl(0.0,100%,35%)" stroke-width="0.00208"></path>
<path d="M0.426 0.226 Q0.866 0.578 1.650 0.441" stroke="hsl(0.0,100%,35%)" stroke-width="0.00192"></path>
<path d="M0.426 0.226 Q-0.487 0.952 0.729 1.558" stroke="hsl(0.0,100%,35%)" stroke-width="0.00016"></path>
<path d="M0.426 0.226 Q0.472 0.732 1.468 0.821" stroke="hsl(0.0,100%,35%)" stroke-width="0.00176"></path>
<path d="M0.426 0.226 Q0.630 0.611 1.426 0.596" stroke="hsl(0.0,100%,35%)" stroke-width="0.00192"></path>
<path d="M0.426 0.226 Q-0.146 0.476 0.217 0.811" stroke="hsl(0.0,100%,35%)" stroke-width="0.00112"></path>
<path d="M0.426 0.226 Q-0.170 0.583 0.396 0.952" stroke="hsl(0.0,100%,35%)" stroke-width="0.00255"></path>
<path d="M0.426 0.226 Q-0.154 0.398 0.055 0.719" stroke="hsl(0.0,100%,35%)" stroke-width="0.00224"></path>
<path d="M0.426 0.226 Q-0.037 0.537 0.468 0.831" stroke="hsl(0.0,100%,35%)" stroke-width="0.00048"></path>
<path d="M0.426 0.226 Q0.159 0.450 0.537 0.629" stroke="hsl(0.0,100%,35%)" stroke-width="0.00016"></path>
<path d="M0.426 0.226 Q0.520 0.382 0.846 0.371" stroke="hsl(0.0,100%,35%)" stroke-width="0.00032"></path>
<path d="M0.426 0.226 Q0.674 0.454 1.173 0.383" stroke="hsl(0.0,100%,35%)" stroke-width="0.00048"></path>
<path d="M0.426 0.226 Q0.749 0.394 1.147 0.273" stroke="hsl(0.0,100%,35%)" stroke-width="0.00032"></path>
<path d="M0.426 0.226 Q1.086 0.500 1.766 0.238" stroke="hsl(0.0,100%,35%)" stroke-width="0.00080"></path>
<path d="M0.426 0.226 Q0.310 0.511 0.840 0.630" stroke="hsl(0.0,100%,35%)" stroke-width="0.00048"></path>
<path d="M0.426 0.226 Q0.895 0.432 1.401 0.249" stroke="hsl(0.0,100%,35%)" stroke-width="0.00208"></path>
<path d="M0.426 0.226 Q0.209 0.373 0.448 0.511" stroke="hsl(0.0,100%,35%)" stroke-width="0.00016"></path>
<path d="M0.540 0.110 Q0.390 0.145 0.426 0.226" stroke="hsl(0.0,100%,35%)" stroke-width="0.01533"></path>
<path d="M0.540 0.110 Q0.312 0.352 0.735 0.516" stroke="hsl(0.0,100%,35%)" stroke-width="0.00303"></path>
<path d="M0.540 0.110 Q0.594 0.530 1.426 0.596" stroke="hsl(0.0,100%,35%)" stroke-width="0.00048"></path>
<path d="M0.540 0.110 Q-0.206 0.502 0.396 0.952" stroke="hsl(0.0,100%,35%)" stroke-width="0.00862"></path>
<path d="M0.540 0.110 Q-0.190 0.318 0.055 0.719" stroke="hsl(0.0,100%,35%)" stroke-width="0.00032"></path>
<path d="M0.540 0.110 Q0.420 0.782 1.706 0.988" stroke="hsl(0.0,100%,35%)" stroke-width="0.00686"></path>
<path d="M0.540 0.110 Q0.830 0.498 1.650 0.441" stroke="hsl(0.0,100%,35%)" stroke-width="0.00208"></path>
<path d="M0.540 0.110 Q0.352 0.218 0.522 0.334" stroke="hsl(0.0,100%,35%)" stroke-width="0.00064"></path>
<path d="M0.540 0.110 Q0.035 0.326 0.346 0.620" stroke="hsl(0.0,100%,35%)" stroke-width="0.00144"></path>
<path d="M0.540 0.110 Q0.435 0.651 1.468 0.821" stroke="hsl(0.0,100%,35%)" stroke-width="0.00224"></path>
<path d="M0.540 0.110 Q0.713 0.313 1.147 0.273" stroke="hsl(0.0,100%,35%)" stroke-width="0.00032"></path>
<path d="M0.540 0.110 Q1.017 0.230 1.355 0.023" stroke="hsl(0.0,100%,35%)" stroke-width="0.00096"></path>
<path d="M0.540 0.110 Q0.211 0.184 0.283 0.361" stroke="hsl(0.0,100%,35%)" stroke-width="0.00239"></path>
<path d="M0.540 0.110 Q0.288 0.667 1.320 0.913" stroke="hsl(0.0,100%,35%)" stroke-width="0.00096"></path>
<path d="M0.540 0.110 Q0.548 0.368 1.054 0.421" stroke="hsl(0.0,100%,35%)" stroke-width="0.00016"></path>
<path d="M0.540 0.110 Q0.500 0.303 0.869 0.365" stroke="hsl(0.0,100%,35%)" stroke-width="0.00064"></path>
<path d="M0.540 0.110 Q0.123 0.369 0.537 0.629" stroke="hsl(0.0,100%,35%)" stroke-width="0.00032"></path>
<path d="M0.540 0.110 Q-0.182 0.396 0.217 0.811" stroke="hsl(0.0,100%,35%)" stroke-width="0.00096"></path>
<path d="M0.540 0.110 Q1.050 0.419 1.766 0.238" stroke="hsl(0.0,100%,35%)" stroke-width="0.00016"></path>
<path d="M0.540 0.110 Q0.274 0.430 0.840 0.630" stroke="hsl(0.0,100%,35%)" stroke-width="0.00032"></path>
<path d="M0.540 0.110 Q-0.073 0.456 0.468 0.831" stroke="hsl(0.0,100%,35%)" stroke-width="0.00048"></path>
<path d="M0.540 0.110 Q0.859 0.352 1.401 0.249" stroke="hsl(0.0,100%,35%)" stroke-width="0.00208"></path>
<path d="M0.540 0.110 Q0.638 0.373 1.173 0.383" stroke="hsl(0.0,100%,35%)" stroke-width="0.00032"></path>
<path d="M0.540 0.110 Q0.661 0.172 0.809 0.127" stroke="hsl(0.0,100%,35%)" stroke-width="0.00064"></path>
<path d="M0.735 0.516 Q0.963 0.274 0.540 0.110" stroke="hsl(120.0,100%,35%)" stroke-width="0.00782"></path>
<path d="M0.735 0.516 Q0.458 0.490 0.346 0.620" stroke="hsl(120.0,100%,35%)" stroke-width="0.00415"></path>
<path d="M0.735 0.516 Q0.696 0.594 0.840 0.630" stroke="hsl(120.0,100%,35%)" stroke-width="0.00463"></path>
<path d="M0.735 0.516 Q0.813 0.310 0.426 0.226" stroke="hsl(120.0,100%,35%)" stroke-width="0.00351"></path>
<path d="M0.735 0.516 Q0.923 0.468 0.869 0.365" stroke="hsl(120.0,100%,35%)" stroke-width="0.00463"></path>
<path d="M0.735 0.516 Q1.439 0.394 1.355 0.023" stroke="hsl(120.0,100%,35%)" stroke-width="0.00894"></path>
<path d="M0.735 0.516 Q0.878 0.592 1.056 0.539" stroke="hsl(120.0,100%,35%)" stroke-width="0.00415"></path>
<path d="M0.735 0.516 Q0.775 0.382 0.522 0.334" stroke="hsl(120.0,100%,35%)" stroke-width="0.00032"></path>
<path d="M0.735 0.516 Q0.595 0.457 0.448 0.511" stroke="hsl(120.0,100%,35%)" stroke-width="0.00032"></path>
<path d="M0.735 0.516 Q1.136 0.477 1.147 0.273" stroke="hsl(120.0,100%,35%)" stroke-width="0.00239"></path>
<path d="M0.735 0.516 Q0.217 0.666 0.396 0.952" stroke="hsl(120.0,100%,35%)" stroke-width="0.00335"></path>
<path d="M0.735 0.516 Q0.843 0.947 1.706 0.988" stroke="hsl(120.0,100%,35%)" stroke-width="0.00192"></path>
<path d="M0.735 0.516 Q1.473 0.584 1.766 0.238" stroke="hsl(120.0,100%,35%)" stroke-width="0.00048"></path>
<path d="M0.735 0.516 Q0.858 0.815 1.468 0.821" stroke="hsl(120.0,100%,35%)" stroke-width="0.00112"></path>
<path d="M0.735 0.516 Q0.907 0.466 0.846 0.371" stroke="hsl(120.0,100%,35%)" stroke-width="0.00064"></path>
<path d="M0.735 0.516 Q0.233 0.482 0.055 0.719" stroke="hsl(120.0,100%,35%)" stroke-width="0.00112"></path>
<path d="M0.735 0.516 Q1.253 0.662 1.650 0.441" stroke="hsl(120.0,100%,35%)" stroke-width="0.00160"></path>
<path d="M0.735 0.516 Q1.061 0.537 1.173 0.383" stroke="hsl(120.0,100%,35%)" stroke-width="0.00112"></path>
<path d="M0.735 0.516 Q0.710 0.832 1.320 0.913" stroke="hsl(120.0,100%,35%)" stroke-width="0.00224"></path>
<path d="M0.735 0.516 Q0.240 0.560 0.217 0.811" stroke="hsl(120.0,100%,35%)" stroke-width="0.00032"></path>
<path d="M0.735 0.516 Q0.546 0.533 0.537 0.629" stroke="hsl(120.0,100%,35%)" stroke-width="0.00016"></path>
<path d="M0.735 0.516 Q0.970 0.533 1.054 0.421" stroke="hsl(120.0,100%,35%)" stroke-width="0.00208"></path>
<path d="M0.735 0.516 Q1.255 0.557 1.448 0.312" stroke="hsl(120.0,100%,35%)" stroke-width="0.00032"></path>
<path d="M0.735 0.516 Q1.282 0.516 1.401 0.249" stroke="hsl(120.0,100%,35%)" stroke-width="0.00032"></path>
<path d="M0.735 0.516 Q0.350 0.620 0.468 0.831" stroke="hsl(120.0,100%,35%)" stroke-width="0.00016"></path>
<path d="M0.840 0.630 Q1.001 0.851 1.468 0.821" stroke="hsl(120.0,100%,35%)" stroke-width="0.00016"></path>
<path d="M0.840 0.630 Q1.066 0.503 0.869 0.365" stroke="hsl(120.0,100%,35%)" stroke-width="0.00192"></path>
<path d="M0.840 0.630 Q0.360 0.702 0.396 0.952" stroke="hsl(120.0,100%,35%)" stroke-width="0.00016"></path>
<path d="M0.840 0.630 Q0.601 0.526 0.346 0.620" stroke="hsl(120.0,100%,35%)" stroke-width="0.00271"></path>
<path d="M0.840 0.630 Q0.878 0.552 0.735 0.516" stroke="hsl(120.0,100%,35%)" stroke-width="0.00064"></path>
<path d="M0.840 0.630 Q0.853 0.867 1.320 0.913" stroke="hsl(120.0,100%,35%)" stroke-width="0.00048"></path>
<path d="M0.840 0.630 Q0.986 0.982 1.706 0.988" stroke="hsl(120.0,100%,35%)" stroke-width="0.00016"></path>
<path d="M0.840 0.630 Q1.021 0.628 1.056 0.539" stroke="hsl(120.0,100%,35%)" stroke-width="0.00016"></path>
<path d="M0.840 0.630 Q1.106 0.310 0.540 0.110" stroke="hsl(120.0,100%,35%)" stroke-width="0.00016"></path>
<path d="M0.840 0.630 Q0.689 0.569 0.537 0.629" stroke="hsl(120.0,100%,35%)" stroke-width="0.00016"></path>
<path d="M0.840 0.630 Q1.583 0.430 1.355 0.023" stroke="hsl(120.0,100%,35%)" stroke-width="0.00016"></path>
<path d="M0.840 0.630 Q0.493 0.656 0.468 0.831" stroke="hsl(120.0,100%,35%)" stroke-width="0.00016"></path>
<path d="M0.396 0.952 Q1.142 0.560 0.540 0.110" stroke="hsl(240.0,100%,35%)" stroke-width="0.00782"></path>
<path d="M0.396 0.952 Q1.431 0.948 1.650 0.441" stroke="hsl(240.0,100%,35%)" stroke-width="0.00415"></path>
<path d="M0.396 0.952 Q0.889 1.117 1.320 0.913" stroke="hsl(240.0,100%,35%)" stroke-width="0.00367"></path>
<path d="M0.396 0.952 Q0.953 0.668 0.522 0.334" stroke="hsl(240.0,100%,35%)" stroke-width="0.00032"></path>
<path d="M0.396 0.952 Q1.618 0.680 1.355 0.023" stroke="hsl(240.0,100%,35%)" stroke-width="0.00064"></path>
<path d="M0.396 0.952 Q1.022 1.232 1.706 0.988" stroke="hsl(240.0,100%,35%)" stroke-width="0.00607"></path>
<path d="M0.396 0.952 Q1.196 0.980 1.426 0.596" stroke="hsl(240.0,100%,35%)" stroke-width="0.00128"></path>
<path d="M0.396 0.952 Q0.637 0.776 0.346 0.620" stroke="hsl(240.0,100%,35%)" stroke-width="0.00016"></path>
<path d="M0.396 0.952 Q0.914 0.802 0.735 0.516" stroke="hsl(240.0,100%,35%)" stroke-width="0.00016"></path>
<path d="M0.396 0.952 Q0.992 0.595 0.426 0.226" stroke="hsl(240.0,100%,35%)" stroke-width="0.00096"></path>
<path d="M0.396 0.952 Q0.419 0.846 0.217 0.811" stroke="hsl(240.0,100%,35%)" stroke-width="0.00016"></path>
<path d="M0.396 0.952 Q0.725 0.819 0.537 0.629" stroke="hsl(240.0,100%,35%)" stroke-width="0.00016"></path>
<path d="M0.396 0.952 Q1.037 1.101 1.468 0.821" stroke="hsl(240.0,100%,35%)" stroke-width="0.00016"></path>
<path d="M0.396 0.952 Q0.529 0.906 0.468 0.831" stroke="hsl(240.0,100%,35%)" stroke-width="0.00080"></path>
<path d="M0.396 0.952 Q0.813 0.634 0.283 0.361" stroke="hsl(240.0,100%,35%)" stroke-width="0.00048"></path>
<path d="M0.396 0.952 Q1.461 0.802 1.401 0.249" stroke="hsl(240.0,100%,35%)" stroke-width="0.00016"></path>
<path d="M1.355 0.023 Q0.651 0.146 0.735 0.516" stroke="hsl(240.0,100%,35%)" stroke-width="0.00112"></path>
<path d="M1.355 0.023 Q0.774 0.445 1.468 0.821" stroke="hsl(240.0,100%,35%)" stroke-width="0.01277"></path>
<path d="M1.355 0.023 Q0.156 0.189 0.217 0.811" stroke="hsl(240.0,100%,35%)" stroke-width="0.00144"></path>
<path d="M1.355 0.023 Q0.879 -0.096 0.540 0.110" stroke="hsl(240.0,100%,35%)" stroke-width="0.00176"></path>
<path d="M1.355 0.023 Q0.977 0.166 1.173 0.383" stroke="hsl(240.0,100%,35%)" stroke-width="0.00144"></path>
<path d="M1.355 0.023 Q0.729 -0.061 0.426 0.226" stroke="hsl(240.0,100%,35%)" stroke-width="0.00080"></path>
<path d="M1.355 0.023 Q0.839 0.097 0.869 0.365" stroke="hsl(240.0,100%,35%)" stroke-width="0.00016"></path>
<path d="M1.355 0.023 Q0.626 0.461 1.320 0.913" stroke="hsl(240.0,100%,35%)" stroke-width="0.00080"></path>
<path d="M1.355 0.023 Q0.933 0.324 1.426 0.596" stroke="hsl(240.0,100%,35%)" stroke-width="0.00016"></path>
<path d="M1.355 0.023 Q1.221 -0.027 1.093 0.028" stroke="hsl(240.0,100%,35%)" stroke-width="0.00048"></path>
<path d="M1.355 0.023 Q0.149 0.111 0.055 0.719" stroke="hsl(240.0,100%,35%)" stroke-width="0.00016"></path>
<path d="M1.355 0.023 Q0.758 0.576 1.706 0.988" stroke="hsl(240.0,100%,35%)" stroke-width="0.00032"></path>
<path d="M1.355 0.023 Q1.389 0.213 1.766 0.238" stroke="hsl(240.0,100%,35%)" stroke-width="0.00032"></path>
<path d="M1.355 0.023 Q1.168 0.291 1.650 0.441" stroke="hsl(240.0,100%,35%)" stroke-width="0.00048"></path>
<path d="M1.355 0.023 Q0.462 0.162 0.537 0.629" stroke="hsl(240.0,100%,35%)" stroke-width="0.00048"></path>
<path d="M1.355 0.023 Q1.198 0.145 1.401 0.249" stroke="hsl(240.0,100%,35%)" stroke-width="0.00144"></path>
<path d="M1.355 0.023 Q1.101 0.011 1.021 0.133" stroke="hsl(240.0,100%,35%)" stroke-width="0.00016"></path>
<path d="M1.766 0.238 Q1.732 0.049 1.355 0.023" stroke="hsl(240.0,100%,35%)" stroke-width="0.00351"></path>
<path d="M1.766 0.238 Q1.151 0.470 1.468 0.821" stroke="hsl(240.0,100%,35%)" stroke-width="0.00048"></path>
<path d="M1.766 0.238 Q1.256 -0.071 0.540 0.110" stroke="hsl(240.0,100%,35%)" stroke-width="0.00080"></path>
<path d="M1.766 0.238 Q0.533 0.215 0.217 0.811" stroke="hsl(240.0,100%,35%)" stroke-width="0.00016"></path>
<path d="M1.766 0.238 Q1.106 -0.036 0.426 0.226" stroke="hsl(240.0,100%,35%)" stroke-width="0.00239"></path>
<path d="M1.766 0.238 Q1.429 0.132 1.147 0.273" stroke="hsl(240.0,100%,35%)" stroke-width="0.00016"></path>
<path d="M1.766 0.238 Q1.575 0.171 1.401 0.249" stroke="hsl(240.0,100%,35%)" stroke-width="0.00048"></path>
<path d="M1.766 0.238 Q1.028 0.171 0.735 0.516" stroke="hsl(240.0,100%,35%)" stroke-width="0.00048"></path>
<path d="M1.766 0.238 Q1.354 0.192 1.173 0.383" stroke="hsl(240.0,100%,35%)" stroke-width="0.00032"></path>
<path d="M1.650 0.441 Q0.614 0.446 0.396 0.952" stroke="hsl(240.0,100%,35%)" stroke-width="0.00367"></path>
<path d="M1.650 0.441 Q1.414 0.474 1.426 0.596" stroke="hsl(240.0,100%,35%)" stroke-width="0.00862"></path>
<path d="M1.650 0.441 Q0.638 0.339 0.217 0.811" stroke="hsl(240.0,100%,35%)" stroke-width="0.00032"></path>
<path d="M1.650 0.441 Q1.320 0.247 0.869 0.365" stroke="hsl(240.0,100%,35%)" stroke-width="0.00016"></path>
<path d="M1.650 0.441 Q1.132 0.296 0.735 0.516" stroke="hsl(240.0,100%,35%)" stroke-width="0.00080"></path>
<path d="M1.650 0.441 Q1.094 0.374 0.840 0.630" stroke="hsl(240.0,100%,35%)" stroke-width="0.00016"></path>
<path d="M1.650 0.441 Q0.631 0.261 0.055 0.719" stroke="hsl(240.0,100%,35%)" stroke-width="0.00016"></path>
<path d="M1.650 0.441 Q1.360 0.054 0.540 0.110" stroke="hsl(240.0,100%,35%)" stroke-width="0.00032"></path>
<path d="M1.650 0.441 Q1.108 0.611 1.320 0.913" stroke="hsl(240.0,100%,35%)" stroke-width="0.00527"></path>
<path d="M1.650 0.441 Q1.240 0.726 1.706 0.988" stroke="hsl(240.0,100%,35%)" stroke-width="0.00399"></path>
<path d="M1.650 0.441 Q0.748 0.400 0.468 0.831" stroke="hsl(240.0,100%,35%)" stroke-width="0.00192"></path>
<path d="M1.650 0.441 Q1.837 0.173 1.355 0.023" stroke="hsl(240.0,100%,35%)" stroke-width="0.00032"></path>
<path d="M1.650 0.441 Q1.031 0.128 0.283 0.361" stroke="hsl(240.0,100%,35%)" stroke-width="0.00016"></path>
<path d="M1.650 0.441 Q0.855 0.270 0.346 0.620" stroke="hsl(240.0,100%,35%)" stroke-width="0.00016"></path>
<path d="M1.650 0.441 Q1.679 0.295 1.401 0.249" stroke="hsl(240.0,100%,35%)" stroke-width="0.00016"></path>
<path d="M1.426 0.596 Q1.662 0.564 1.650 0.441" stroke="hsl(240.0,100%,35%)" stroke-width="0.01453"></path>
<path d="M1.426 0.596 Q1.268 0.717 1.468 0.821" stroke="hsl(240.0,100%,35%)" stroke-width="0.00160"></path>
<path d="M1.426 0.596 Q0.650 0.462 0.217 0.811" stroke="hsl(240.0,100%,35%)" stroke-width="0.00016"></path>
<path d="M1.426 0.596 Q0.626 0.568 0.396 0.952" stroke="hsl(240.0,100%,35%)" stroke-width="0.00224"></path>
<path d="M1.426 0.596 Q1.120 0.733 1.320 0.913" stroke="hsl(240.0,100%,35%)" stroke-width="0.00543"></path>
<path d="M1.426 0.596 Q1.184 0.284 0.522 0.334" stroke="hsl(240.0,100%,35%)" stroke-width="0.00016"></path>
<path d="M1.426 0.596 Q1.849 0.296 1.355 0.023" stroke="hsl(240.0,100%,35%)" stroke-width="0.00048"></path>
<path d="M1.426 0.596 Q1.145 0.418 0.735 0.516" stroke="hsl(240.0,100%,35%)" stroke-width="0.00064"></path>
<path d="M1.426 0.596 Q1.252 0.848 1.706 0.988" stroke="hsl(240.0,100%,35%)" stroke-width="0.00463"></path>
<path d="M1.426 0.596 Q1.317 0.367 0.846 0.371" stroke="hsl(240.0,100%,35%)" stroke-width="0.00048"></path>
<path d="M1.426 0.596 Q1.223 0.211 0.426 0.226" stroke="hsl(240.0,100%,35%)" stroke-width="0.00144"></path>
<path d="M1.426 0.596 Q1.373 0.176 0.540 0.110" stroke="hsl(240.0,100%,35%)" stroke-width="0.00208"></path>
<path d="M1.426 0.596 Q0.760 0.522 0.468 0.831" stroke="hsl(240.0,100%,35%)" stroke-width="0.00032"></path>
<path d="M1.426 0.596 Q1.043 0.250 0.283 0.361" stroke="hsl(240.0,100%,35%)" stroke-width="0.00016"></path>
<path d="M1.426 0.596 Q0.865 0.585 0.719 0.856" stroke="hsl(240.0,100%,35%)" stroke-width="0.00016"></path>
<path d="M0.283 0.361 Q0.612 0.287 0.540 0.110" stroke="hsl(0.0,100%,35%)" stroke-width="0.01149"></path>
<path d="M0.283 0.361 Q0.463 0.322 0.426 0.226" stroke="hsl(0.0,100%,35%)" stroke-width="0.02874"></path>
<path d="M0.283 0.361 Q-0.134 0.679 0.396 0.952" stroke="hsl(0.0,100%,35%)" stroke-width="0.00064"></path>
<path d="M0.217 0.811 Q0.209 0.733 0.055 0.719" stroke="hsl(120.0,100%,35%)" stroke-width="0.00096"></path>
<path d="M0.217 0.811 Q0.789 0.560 0.426 0.226" stroke="hsl(120.0,100%,35%)" stroke-width="0.00016"></path>
<path d="M0.217 0.811 Q0.947 0.784 1.054 0.421" stroke="hsl(120.0,100%,35%)" stroke-width="0.00048"></path>
<path d="M0.217 0.811 Q1.229 0.913 1.650 0.441" stroke="hsl(120.0,100%,35%)" stroke-width="0.00016"></path>
<path d="M0.217 0.811 Q0.939 0.525 0.540 0.110" stroke="hsl(120.0,100%,35%)" stroke-width="0.00032"></path>
<path d="M0.217 0.811 Q0.819 1.197 1.706 0.988" stroke="hsl(120.0,100%,35%)" stroke-width="0.00016"></path>
<path d="M0.217 0.811 Q0.522 0.784 0.537 0.629" stroke="hsl(120.0,100%,35%)" stroke-width="0.00016"></path>
<path d="M0.126 0.140 Q0.207 0.243 0.426 0.226" stroke="hsl(0.0,100%,35%)" stroke-width="0.00048"></path>
<path d="M0.126 0.140 Q0.357 0.208 0.540 0.110" stroke="hsl(0.0,100%,35%)" stroke-width="0.00016"></path>
<path d="M0.126 0.140 Q-0.148 0.424 0.346 0.620" stroke="hsl(0.0,100%,35%)" stroke-width="0.00016"></path>
<path d="M0.346 0.620 Q0.434 0.662 0.537 0.629" stroke="hsl(120.0,100%,35%)" stroke-width="0.00016"></path>
<path d="M0.346 0.620 Q0.623 0.646 0.735 0.516" stroke="hsl(120.0,100%,35%)" stroke-width="0.00016"></path>
<path d="M0.346 0.620 Q0.851 0.404 0.540 0.110" stroke="hsl(120.0,100%,35%)" stroke-width="0.00016"></path>
<path d="M0.346 0.620 Q0.584 0.724 0.840 0.630" stroke="hsl(120.0,100%,35%)" stroke-width="0.00255"></path>
<path d="M0.346 0.620 Q0.128 0.689 0.217 0.811" stroke="hsl(120.0,100%,35%)" stroke-width="0.00016"></path>
<path d="M0.346 0.620 Q0.811 0.597 0.869 0.365" stroke="hsl(120.0,100%,35%)" stroke-width="0.00016"></path>
<path d="M0.346 0.620 Q0.701 0.439 0.426 0.226" stroke="hsl(120.0,100%,35%)" stroke-width="0.00032"></path>
<path d="M0.346 0.620 Q0.795 0.595 0.846 0.371" stroke="hsl(120.0,100%,35%)" stroke-width="0.00032"></path>
<path d="M0.346 0.620 Q0.731 1.076 1.706 0.988" stroke="hsl(120.0,100%,35%)" stroke-width="0.00016"></path>
<path d="M0.346 0.620 Q0.121 0.611 0.055 0.719" stroke="hsl(120.0,100%,35%)" stroke-width="0.00016"></path>
<path d="M0.346 0.620 Q0.521 0.478 0.283 0.361" stroke="hsl(120.0,100%,35%)" stroke-width="0.00016"></path>
<path d="M0.346 0.620 Q0.105 0.796 0.396 0.952" stroke="hsl(120.0,100%,35%)" stroke-width="0.00016"></path>
<path d="M0.346 0.620 Q1.140 0.791 1.650 0.441" stroke="hsl(120.0,100%,35%)" stroke-width="0.00016"></path>
<path d="M0.537 0.629 Q0.726 0.612 0.735 0.516" stroke="hsl(120.0,100%,35%)" stroke-width="0.00016"></path>
<path d="M0.537 0.629 Q0.449 0.586 0.346 0.620" stroke="hsl(120.0,100%,35%)" stroke-width="0.00080"></path>
<path d="M0.537 0.629 Q0.914 0.563 0.869 0.365" stroke="hsl(120.0,100%,35%)" stroke-width="0.00032"></path>
<path d="M0.869 0.365 Q0.642 0.492 0.840 0.630" stroke="hsl(120.0,100%,35%)" stroke-width="0.00096"></path>
<path d="M0.869 0.365 Q0.759 0.207 0.426 0.226" stroke="hsl(120.0,100%,35%)" stroke-width="0.00032"></path>
<path d="M0.869 0.365 Q1.198 0.560 1.650 0.441" stroke="hsl(120.0,100%,35%)" stroke-width="0.00064"></path>
<path d="M0.869 0.365 Q0.404 0.388 0.346 0.620" stroke="hsl(120.0,100%,35%)" stroke-width="0.00128"></path>
<path d="M0.869 0.365 Q1.385 0.292 1.355 0.023" stroke="hsl(120.0,100%,35%)" stroke-width="0.00064"></path>
<path d="M0.869 0.365 Q0.853 0.363 0.846 0.371" stroke="hsl(120.0,100%,35%)" stroke-width="0.00016"></path>
<path d="M0.869 0.365 Q0.909 0.172 0.540 0.110" stroke="hsl(120.0,100%,35%)" stroke-width="0.00016"></path>
<path d="M0.869 0.365 Q0.163 0.564 0.396 0.952" stroke="hsl(120.0,100%,35%)" stroke-width="0.00016"></path>
<path d="M0.869 0.365 Q1.029 0.234 0.809 0.127" stroke="hsl(120.0,100%,35%)" stroke-width="0.00016"></path>
<path d="M0.846 0.371 Q0.635 0.499 0.840 0.630" stroke="hsl(120.0,100%,35%)" stroke-width="0.00048"></path>
<path d="M0.846 0.371 Q0.862 0.373 0.869 0.365" stroke="hsl(120.0,100%,35%)" stroke-width="0.00048"></path>
<path d="M0.846 0.371 Q0.674 0.421 0.735 0.516" stroke="hsl(120.0,100%,35%)" stroke-width="0.00016"></path>
<path d="M0.846 0.371 Q0.956 0.600 1.426 0.596" stroke="hsl(120.0,100%,35%)" stroke-width="0.00032"></path>
<path d="M0.846 0.371 Q1.378 0.299 1.355 0.023" stroke="hsl(120.0,100%,35%)" stroke-width="0.00064"></path>
<path d="M0.846 0.371 Q0.817 0.497 1.056 0.539" stroke="hsl(120.0,100%,35%)" stroke-width="0.00032"></path>
<path d="M0.846 0.371 Q0.397 0.395 0.346 0.620" stroke="hsl(120.0,100%,35%)" stroke-width="0.00016"></path>
<path d="M1.706 0.988 Q1.721 0.857 1.468 0.821" stroke="hsl(240.0,100%,35%)" stroke-width="0.00080"></path>
<path d="M1.706 0.988 Q1.573 0.873 1.320 0.913" stroke="hsl(240.0,100%,35%)" stroke-width="0.01421"></path>
<path d="M1.706 0.988 Q1.880 0.737 1.426 0.596" stroke="hsl(240.0,100%,35%)" stroke-width="0.00671"></path>
<path d="M1.706 0.988 Q1.598 0.558 0.735 0.516" stroke="hsl(240.0,100%,35%)" stroke-width="0.00064"></path>
<path d="M1.706 0.988 Q2.115 0.704 1.650 0.441" stroke="hsl(240.0,100%,35%)" stroke-width="0.00591"></path>
<path d="M1.706 0.988 Q1.559 0.636 0.840 0.630" stroke="hsl(240.0,100%,35%)" stroke-width="0.00016"></path>
<path d="M1.706 0.988 Q1.080 0.708 0.396 0.952" stroke="hsl(240.0,100%,35%)" stroke-width="0.00224"></path>
<path d="M1.706 0.988 Q1.826 0.316 0.540 0.110" stroke="hsl(240.0,100%,35%)" stroke-width="0.00351"></path>
<path d="M1.706 0.988 Q1.999 0.519 1.147 0.273" stroke="hsl(240.0,100%,35%)" stroke-width="0.00016"></path>
<path d="M1.706 0.988 Q1.676 0.351 0.426 0.226" stroke="hsl(240.0,100%,35%)" stroke-width="0.00096"></path>
<path d="M1.706 0.988 Q2.302 0.436 1.355 0.023" stroke="hsl(240.0,100%,35%)" stroke-width="0.00032"></path>
<path d="M1.706 0.988 Q1.213 0.662 0.468 0.831" stroke="hsl(240.0,100%,35%)" stroke-width="0.00255"></path>
<path d="M1.706 0.988 Q2.145 0.558 1.401 0.249" stroke="hsl(240.0,100%,35%)" stroke-width="0.00128"></path>
<path d="M1.706 0.988 Q1.924 0.579 1.173 0.383" stroke="hsl(240.0,100%,35%)" stroke-width="0.00064"></path>
<path d="M1.706 0.988 Q1.103 0.602 0.217 0.811" stroke="hsl(240.0,100%,35%)" stroke-width="0.00032"></path>
<path d="M0.055 0.719 Q0.785 0.511 0.540 0.110" stroke="hsl(120.0,100%,35%)" stroke-width="0.00048"></path>
<path d="M0.055 0.719 Q0.681 1.052 1.468 0.821" stroke="hsl(120.0,100%,35%)" stroke-width="0.00016"></path>
<path d="M0.055 0.719 Q0.063 0.797 0.217 0.811" stroke="hsl(120.0,100%,35%)" stroke-width="0.00144"></path>
<path d="M0.055 0.719 Q0.635 0.547 0.426 0.226" stroke="hsl(120.0,100%,35%)" stroke-width="0.00016"></path>
<path d="M0.055 0.719 Q0.039 0.904 0.396 0.952" stroke="hsl(120.0,100%,35%)" stroke-width="0.00016"></path>
<path d="M0.055 0.719 Q0.519 0.831 0.840 0.630" stroke="hsl(120.0,100%,35%)" stroke-width="0.00048"></path>
<path d="M0.055 0.719 Q1.075 0.899 1.650 0.441" stroke="hsl(120.0,100%,35%)" stroke-width="0.00080"></path>
<path d="M0.055 0.719 Q0.368 0.770 0.537 0.629" stroke="hsl(120.0,100%,35%)" stroke-width="0.00016"></path>
<path d="M0.055 0.719 Q0.557 0.754 0.735 0.516" stroke="hsl(120.0,100%,35%)" stroke-width="0.00048"></path>
<path d="M0.055 0.719 Q0.280 0.727 0.346 0.620" stroke="hsl(120.0,100%,35%)" stroke-width="0.00016"></path>
<path d="M1.468 0.821 Q1.320 0.837 1.320 0.913" stroke="hsl(240.0,100%,35%)" stroke-width="0.02155"></path>
<path d="M1.468 0.821 Q2.049 0.399 1.355 0.023" stroke="hsl(240.0,100%,35%)" stroke-width="0.00607"></path>
<path d="M1.468 0.821 Q1.627 0.700 1.426 0.596" stroke="hsl(240.0,100%,35%)" stroke-width="0.00032"></path>
<path d="M1.468 0.821 Q1.862 0.667 1.650 0.441" stroke="hsl(240.0,100%,35%)" stroke-width="0.00160"></path>
<path d="M1.468 0.821 Q1.573 0.280 0.540 0.110" stroke="hsl(240.0,100%,35%)" stroke-width="0.01086"></path>
<path d="M1.468 0.821 Q1.423 0.315 0.426 0.226" stroke="hsl(240.0,100%,35%)" stroke-width="0.00080"></path>
<path d="M1.468 0.821 Q1.068 0.496 0.346 0.620" stroke="hsl(240.0,100%,35%)" stroke-width="0.00016"></path>
<path d="M1.468 0.821 Q1.453 0.952 1.706 0.988" stroke="hsl(240.0,100%,35%)" stroke-width="0.00080"></path>
<path d="M1.468 0.821 Q1.384 0.388 0.522 0.334" stroke="hsl(240.0,100%,35%)" stroke-width="0.00016"></path>
<path d="M1.468 0.821 Q1.345 0.522 0.735 0.516" stroke="hsl(240.0,100%,35%)" stroke-width="0.00048"></path>
<path d="M1.468 0.821 Q0.827 0.672 0.396 0.952" stroke="hsl(240.0,100%,35%)" stroke-width="0.00032"></path>
<path d="M1.468 0.821 Q1.244 0.354 0.283 0.361" stroke="hsl(240.0,100%,35%)" stroke-width="0.00016"></path>
<path d="M1.468 0.821 Q1.892 0.521 1.401 0.249" stroke="hsl(240.0,100%,35%)" stroke-width="0.00192"></path>
<path d="M1.468 0.821 Q0.960 0.626 0.468 0.831" stroke="hsl(240.0,100%,35%)" stroke-width="0.00032"></path>
<path d="M1.147 0.273 Q1.073 0.333 1.173 0.383" stroke="hsl(120.0,100%,35%)" stroke-width="0.00559"></path>
<path d="M1.147 0.273 Q0.974 0.070 0.540 0.110" stroke="hsl(120.0,100%,35%)" stroke-width="0.00032"></path>
<path d="M1.147 0.273 Q0.746 0.312 0.735 0.516" stroke="hsl(120.0,100%,35%)" stroke-width="0.00096"></path>
<path d="M1.147 0.273 Q0.228 0.462 0.396 0.952" stroke="hsl(120.0,100%,35%)" stroke-width="0.00032"></path>
<path d="M1.147 0.273 Q1.451 0.190 1.355 0.023" stroke="hsl(120.0,100%,35%)" stroke-width="0.00032"></path>
<path d="M1.320 0.913 Q1.862 0.743 1.650 0.441" stroke="hsl(240.0,100%,35%)" stroke-width="0.00639"></path>
<path d="M1.320 0.913 Q1.452 1.028 1.706 0.988" stroke="hsl(240.0,100%,35%)" stroke-width="0.02107"></path>
<path d="M1.320 0.913 Q1.572 0.355 0.540 0.110" stroke="hsl(240.0,100%,35%)" stroke-width="0.00287"></path>
<path d="M1.320 0.913 Q1.468 0.896 1.468 0.821" stroke="hsl(240.0,100%,35%)" stroke-width="0.00048"></path>
<path d="M1.320 0.913 Q1.423 0.391 0.426 0.226" stroke="hsl(240.0,100%,35%)" stroke-width="0.00064"></path>
<path d="M1.320 0.913 Q1.067 0.571 0.346 0.620" stroke="hsl(240.0,100%,35%)" stroke-width="0.00112"></path>
<path d="M1.320 0.913 Q1.306 0.675 0.840 0.630" stroke="hsl(240.0,100%,35%)" stroke-width="0.00032"></path>
<path d="M1.320 0.913 Q1.626 0.776 1.426 0.596" stroke="hsl(240.0,100%,35%)" stroke-width="0.00734"></path>
<path d="M1.320 0.913 Q0.959 0.701 0.468 0.831" stroke="hsl(240.0,100%,35%)" stroke-width="0.00096"></path>
<path d="M1.320 0.913 Q0.826 0.748 0.396 0.952" stroke="hsl(240.0,100%,35%)" stroke-width="0.00224"></path>
<path d="M1.320 0.913 Q1.344 0.598 0.735 0.516" stroke="hsl(240.0,100%,35%)" stroke-width="0.00016"></path>
<path d="M1.320 0.913 Q1.670 0.618 1.173 0.383" stroke="hsl(240.0,100%,35%)" stroke-width="0.00064"></path>
<path d="M1.320 0.913 Q2.082 0.665 1.766 0.238" stroke="hsl(240.0,100%,35%)" stroke-width="0.00016"></path>
<path d="M1.320 0.913 Q2.049 0.475 1.355 0.023" stroke="hsl(240.0,100%,35%)" stroke-width="0.00032"></path>
<path d="M1.320 0.913 Q1.891 0.597 1.401 0.249" stroke="hsl(240.0,100%,35%)" stroke-width="0.00016"></path>
<path d="M1.054 0.421 Q0.818 0.405 0.735 0.516" stroke="hsl(120.0,100%,35%)" stroke-width="0.00064"></path>
<path d="M1.054 0.421 Q0.324 0.449 0.217 0.811" stroke="hsl(120.0,100%,35%)" stroke-width="0.00144"></path>
<path d="M1.054 0.421 Q1.046 0.163 0.540 0.110" stroke="hsl(120.0,100%,35%)" stroke-width="0.00016"></path>
<path d="M1.054 0.421 Q0.317 0.371 0.055 0.719" stroke="hsl(120.0,100%,35%)" stroke-width="0.00048"></path>
<path d="M1.054 0.421 Q0.300 0.555 0.396 0.952" stroke="hsl(120.0,100%,35%)" stroke-width="0.00016"></path>
<path d="M0.468 0.831 Q0.961 1.157 1.706 0.988" stroke="hsl(240.0,100%,35%)" stroke-width="0.00734"></path>
<path d="M0.468 0.831 Q1.371 0.872 1.650 0.441" stroke="hsl(240.0,100%,35%)" stroke-width="0.00511"></path>
<path d="M0.468 0.831 Q1.135 0.905 1.426 0.596" stroke="hsl(240.0,100%,35%)" stroke-width="0.00144"></path>
<path d="M0.468 0.831 Q1.254 0.688 1.147 0.273" stroke="hsl(240.0,100%,35%)" stroke-width="0.00016"></path>
<path d="M0.468 0.831 Q0.828 1.042 1.320 0.913" stroke="hsl(240.0,100%,35%)" stroke-width="0.00255"></path>
<path d="M0.468 0.831 Q1.081 0.485 0.540 0.110" stroke="hsl(240.0,100%,35%)" stroke-width="0.00192"></path>
<path d="M0.468 0.831 Q0.976 1.026 1.468 0.821" stroke="hsl(240.0,100%,35%)" stroke-width="0.00048"></path>
<path d="M0.468 0.831 Q0.335 0.877 0.396 0.952" stroke="hsl(240.0,100%,35%)" stroke-width="0.00766"></path>
<path d="M0.468 0.831 Q0.358 0.770 0.217 0.811" stroke="hsl(240.0,100%,35%)" stroke-width="0.00016"></path>
<path d="M0.468 0.831 Q0.931 0.520 0.426 0.226" stroke="hsl(240.0,100%,35%)" stroke-width="0.00112"></path>
<path d="M0.468 0.831 Q1.558 0.605 1.355 0.023" stroke="hsl(240.0,100%,35%)" stroke-width="0.00016"></path>
<path d="M0.468 0.831 Q0.591 0.765 0.491 0.691" stroke="hsl(240.0,100%,35%)" stroke-width="0.00032"></path>
<path d="M0.468 0.831 Q1.041 0.678 0.869 0.365" stroke="hsl(240.0,100%,35%)" stroke-width="0.00016"></path>
<path d="M0.468 0.831 Q0.853 0.727 0.735 0.516" stroke="hsl(240.0,100%,35%)" stroke-width="0.00080"></path>
<path d="M0.468 0.831 Q0.573 0.894 0.719 0.856" stroke="hsl(240.0,100%,35%)" stroke-width="0.00080"></path>
<path d="M0.468 0.831 Q1.400 0.726 1.401 0.249" stroke="hsl(240.0,100%,35%)" stroke-width="0.00032"></path>
<path d="M0.468 0.831 Q0.713 0.667 0.448 0.511" stroke="hsl(240.0,100%,35%)" stroke-width="0.00016"></path>
<path d="M1.401 0.249 Q0.665 0.266 0.537 0.629" stroke="hsl(120.0,100%,35%)" stroke-width="0.00016"></path>
<path d="M1.401 0.249 Q0.977 0.548 1.468 0.821" stroke="hsl(120.0,100%,35%)" stroke-width="0.00064"></path>
<path d="M1.401 0.249 Q1.180 0.270 1.173 0.383" stroke="hsl(120.0,100%,35%)" stroke-width="0.00271"></path>
<path d="M1.401 0.249 Q0.336 0.399 0.396 0.952" stroke="hsl(120.0,100%,35%)" stroke-width="0.00032"></path>
<path d="M1.401 0.249 Q1.286 0.333 1.424 0.407" stroke="hsl(120.0,100%,35%)" stroke-width="0.00016"></path>
<path d="M1.401 0.249 Q0.714 0.190 0.448 0.511" stroke="hsl(120.0,100%,35%)" stroke-width="0.00016"></path>
<path d="M1.401 0.249 Q1.082 0.007 0.540 0.110" stroke="hsl(120.0,100%,35%)" stroke-width="0.00160"></path>
<path d="M1.401 0.249 Q0.932 0.043 0.426 0.226" stroke="hsl(120.0,100%,35%)" stroke-width="0.00032"></path>
<path d="M1.401 0.249 Q0.962 0.680 1.706 0.988" stroke="hsl(120.0,100%,35%)" stroke-width="0.00016"></path>
<path d="M1.401 0.249 Q0.854 0.250 0.735 0.516" stroke="hsl(120.0,100%,35%)" stroke-width="0.00048"></path>
<path d="M1.401 0.249 Q1.559 0.127 1.355 0.023" stroke="hsl(120.0,100%,35%)" stroke-width="0.00064"></path>
<path d="M1.401 0.249 Q1.374 0.290 1.448 0.312" stroke="hsl(120.0,100%,35%)" stroke-width="0.00064"></path>
<path d="M1.401 0.249 Q1.276 0.326 1.398 0.404" stroke="hsl(120.0,100%,35%)" stroke-width="0.00016"></path>
<path d="M1.401 0.249 Q0.469 0.353 0.468 0.831" stroke="hsl(120.0,100%,35%)" stroke-width="0.00016"></path>
<path d="M1.173 0.383 Q1.585 0.429 1.766 0.238" stroke="hsl(120.0,100%,35%)" stroke-width="0.00016"></path>
<path d="M1.173 0.383 Q1.075 0.120 0.540 0.110" stroke="hsl(120.0,100%,35%)" stroke-width="0.00144"></path>
<path d="M1.173 0.383 Q1.248 0.323 1.147 0.273" stroke="hsl(120.0,100%,35%)" stroke-width="0.00431"></path>
<path d="M1.173 0.383 Q0.847 0.362 0.735 0.516" stroke="hsl(120.0,100%,35%)" stroke-width="0.00112"></path>
<path d="M1.173 0.383 Q1.364 0.507 1.650 0.441" stroke="hsl(120.0,100%,35%)" stroke-width="0.00016"></path>
<path d="M1.173 0.383 Q0.328 0.512 0.396 0.952" stroke="hsl(120.0,100%,35%)" stroke-width="0.00064"></path>
<path d="M1.173 0.383 Q1.551 0.239 1.355 0.023" stroke="hsl(120.0,100%,35%)" stroke-width="0.00224"></path>
<path d="M1.173 0.383 Q0.352 0.405 0.217 0.811" stroke="hsl(120.0,100%,35%)" stroke-width="0.00032"></path>
<path d="M1.173 0.383 Q0.954 0.792 1.706 0.988" stroke="hsl(120.0,100%,35%)" stroke-width="0.00016"></path>
<path d="M1.173 0.383 Q0.707 0.302 0.448 0.511" stroke="hsl(120.0,100%,35%)" stroke-width="0.00016"></path>
<path d="M1.173 0.383 Q1.394 0.361 1.401 0.249" stroke="hsl(120.0,100%,35%)" stroke-width="0.00080"></path>
<path d="M1.173 0.383 Q0.925 0.155 0.426 0.226" stroke="hsl(120.0,100%,35%)" stroke-width="0.00016"></path>
<path d="M1.173 0.383 Q0.345 0.327 0.055 0.719" stroke="hsl(120.0,100%,35%)" stroke-width="0.00016"></path>
<path d="M1.093 0.028 Q1.227 0.078 1.355 0.023" stroke="hsl(240.0,100%,35%)" stroke-width="0.00431"></path>
<path d="M1.093 0.028 Q0.028 0.244 0.217 0.811" stroke="hsl(240.0,100%,35%)" stroke-width="0.00032"></path>
<path d="M1.093 0.028 Q0.646 0.499 1.468 0.821" stroke="hsl(240.0,100%,35%)" stroke-width="0.00016"></path>
<path d="M1.093 0.028 Q0.849 0.221 1.173 0.383" stroke="hsl(240.0,100%,35%)" stroke-width="0.00016"></path>
<path d="M1.705 0.557 Q1.330 0.136 0.426 0.226" stroke="hsl(240.0,100%,35%)" stroke-width="0.00016"></path>
<path d="M1.705 0.557 Q1.770 0.488 1.650 0.441" stroke="hsl(240.0,100%,35%)" stroke-width="0.00016"></path>
<path d="M1.705 0.557 Q1.228 0.658 1.320 0.913" stroke="hsl(240.0,100%,35%)" stroke-width="0.00016"></path>
<path d="M1.705 0.557 Q0.734 0.492 0.396 0.952" stroke="hsl(240.0,100%,35%)" stroke-width="0.00016"></path>
<path d="M1.705 0.557 Q1.376 0.641 1.468 0.821" stroke="hsl(240.0,100%,35%)" stroke-width="0.00016"></path>
<path d="M1.056 0.539 Q0.913 0.463 0.735 0.516" stroke="hsl(120.0,100%,35%)" stroke-width="0.00064"></path>
<path d="M1.056 0.539 Q1.101 0.414 0.869 0.365" stroke="hsl(120.0,100%,35%)" stroke-width="0.00064"></path>
<path d="M1.056 0.539 Q1.021 0.893 1.706 0.988" stroke="hsl(120.0,100%,35%)" stroke-width="0.00016"></path>
<path d="M1.056 0.539 Q0.636 0.437 0.346 0.620" stroke="hsl(120.0,100%,35%)" stroke-width="0.00032"></path>
<path d="M1.056 0.539 Q1.141 0.221 0.540 0.110" stroke="hsl(120.0,100%,35%)" stroke-width="0.00016"></path>
<path d="M1.056 0.539 Q0.419 0.507 0.217 0.811" stroke="hsl(120.0,100%,35%)" stroke-width="0.00016"></path>
<path d="M1.056 0.539 Q1.618 0.341 1.355 0.023" stroke="hsl(120.0,100%,35%)" stroke-width="0.00016"></path>
<path d="M1.071 0.600 Q1.198 0.249 0.540 0.110" stroke="hsl(120.0,100%,35%)" stroke-width="0.00016"></path>
<path d="M1.071 0.600 Q1.675 0.369 1.355 0.023" stroke="hsl(120.0,100%,35%)" stroke-width="0.00016"></path>
<path d="M1.071 0.600 Q0.970 0.491 0.735 0.516" stroke="hsl(120.0,100%,35%)" stroke-width="0.00016"></path>
<path d="M1.095 0.492 Q0.974 0.225 0.426 0.226" stroke="hsl(120.0,100%,35%)" stroke-width="0.00048"></path>
<path d="M1.095 0.492 Q0.871 0.747 1.320 0.913" stroke="hsl(120.0,100%,35%)" stroke-width="0.00064"></path>
<path d="M1.095 0.492 Q0.896 0.432 0.735 0.516" stroke="hsl(120.0,100%,35%)" stroke-width="0.00048"></path>
<path d="M1.095 0.492 Q1.413 0.578 1.650 0.441" stroke="hsl(120.0,100%,35%)" stroke-width="0.00032"></path>
<path d="M1.095 0.492 Q1.177 0.611 1.426 0.596" stroke="hsl(120.0,100%,35%)" stroke-width="0.00032"></path>
<path d="M0.488 0.460 Q0.566 0.538 0.735 0.516" stroke="hsl(120.0,100%,35%)" stroke-width="0.00032"></path>
<path d="M0.488 0.460 Q1.084 0.683 1.650 0.441" stroke="hsl(120.0,100%,35%)" stroke-width="0.00016"></path>
<path d="M0.488 0.460 Q0.967 0.498 1.147 0.273" stroke="hsl(120.0,100%,35%)" stroke-width="0.00016"></path>
<path d="M0.511 0.480 Q1.111 0.689 1.650 0.441" stroke="hsl(120.0,100%,35%)" stroke-width="0.00016"></path>
<path d="M0.511 0.480 Q0.594 0.543 0.735 0.516" stroke="hsl(120.0,100%,35%)" stroke-width="0.00016"></path>
<path d="M0.511 0.480 Q1.298 0.421 1.355 0.023" stroke="hsl(120.0,100%,35%)" stroke-width="0.00016"></path>
<path d="M0.511 0.480 Q1.141 0.543 1.401 0.249" stroke="hsl(120.0,100%,35%)" stroke-width="0.00016"></path>
<path d="M0.635 -0.356 Q0.214 -0.142 0.540 0.110" stroke="hsl(240.0,100%,35%)" stroke-width="0.00032"></path>
<path d="M0.635 -0.356 Q0.691 -0.022 1.355 0.023" stroke="hsl(240.0,100%,35%)" stroke-width="0.00016"></path>
<path d="M0.635 -0.356 Q0.504 0.246 1.650 0.441" stroke="hsl(240.0,100%,35%)" stroke-width="0.00032"></path>
<path d="M0.991 0.041 Q0.458 0.543 1.320 0.913" stroke="hsl(240.0,100%,35%)" stroke-width="0.00016"></path>
<path d="M0.991 0.041 Q-0.012 0.271 0.217 0.811" stroke="hsl(240.0,100%,35%)" stroke-width="0.00032"></path>
<path d="M0.991 0.041 Q1.187 0.105 1.355 0.023" stroke="hsl(240.0,100%,35%)" stroke-width="0.00048"></path>
<path d="M0.991 0.041 Q0.606 0.526 1.468 0.821" stroke="hsl(240.0,100%,35%)" stroke-width="0.00016"></path>
</g>
<text x="0.522" y="0.323" font-size="0.022158" fill="hsl(0.0,100%,20%)">armansito</text>
<text x="0.426" y="0.186" font-size="0.080132" fill="hsl(0.0,100%,20%)">johnstiles</text>
<text x="0.540" y="0.071" font-size="0.077785" fill="hsl(0.0,100%,20%)">brianosman</text>
<text x="0.735" y="0.492" font-size="0.048067" fill="hsl(120.0,100%,20%)">kjlubick</text>
<text x="0.840" y="0.618" font-size="0.023115" fill="hsl(120.0,100%,20%)">rmistry</text>
<text x="0.396" y="0.930" font-size="0.043659" fill="hsl(240.0,100%,20%)">bsalomon</text>
<text x="1.355" y="0.002" font-size="0.042543" fill="hsl(240.0,100%,20%)">bungeman</text>
<text x="1.766" y="0.229" font-size="0.018224" fill="hsl(240.0,100%,20%)">jlavrova</text>
<text x="1.650" y="0.418" font-size="0.047055" fill="hsl(240.0,100%,20%)">egdaniel</text>
<text x="1.426" y="0.575" font-size="0.043769" fill="hsl(240.0,100%,20%)">jvanverth</text>
<text x="0.283" y="0.338" font-size="0.045548" fill="hsl(0.0,100%,20%)">ethannicholas</text>
<text x="0.217" y="0.801" font-size="0.018873" fill="hsl(120.0,100%,20%)">djsollen</text>
<text x="0.126" y="0.137" font-size="0.004906" fill="hsl(0.0,100%,20%)">bajones</text>
<text x="0.346" y="0.608" font-size="0.023010" fill="hsl(120.0,100%,20%)">borenet</text>
<text x="0.537" y="0.624" font-size="0.010054" fill="hsl(120.0,100%,20%)">hcm</text>
<text x="0.869" y="0.355" font-size="0.021158" fill="hsl(120.0,100%,20%)">jcgregorio</text>
<text x="0.846" y="0.365" font-size="0.011609" fill="hsl(120.0,100%,20%)">erikrose</text>
<text x="1.706" y="0.961" font-size="0.053964" fill="hsl(240.0,100%,20%)">michaelludwig</text>
<text x="0.055" y="0.710" font-size="0.017552" fill="hsl(120.0,100%,20%)">scroggo</text>
<text x="1.468" y="0.798" font-size="0.045548" fill="hsl(240.0,100%,20%)">herb</text>
<text x="1.147" y="0.262" font-size="0.021608" fill="hsl(120.0,100%,20%)">jmbetancourt</text>
<text x="1.320" y="0.885" font-size="0.056278" fill="hsl(240.0,100%,20%)">robertphillips</text>
<text x="1.054" y="0.415" font-size="0.012980" fill="hsl(120.0,100%,20%)">nifong</text>
<text x="0.468" y="0.814" font-size="0.034271" fill="hsl(240.0,100%,20%)">csmartdalton</text>
<text x="1.401" y="0.237" font-size="0.024332" fill="hsl(120.0,100%,20%)">reed</text>
<text x="1.173" y="0.369" font-size="0.027578" fill="hsl(120.0,100%,20%)">fmalita</text>
<text x="0.809" y="0.125" font-size="0.004906" fill="hsl(0.0,100%,20%)">mtklein</text>
<text x="1.093" y="0.021" font-size="0.012793" fill="hsl(240.0,100%,20%)">drott</text>
<text x="1.021" y="0.131" font-size="0.002194" fill="hsl(240.0,100%,20%)">grieger</text>
<text x="0.491" y="0.689" font-size="0.003103" fill="hsl(240.0,100%,20%)">junov</text>
<text x="0.719" y="0.853" font-size="0.005374" fill="hsl(240.0,100%,20%)">adlai</text>
<text x="0.448" y="0.509" font-size="0.005374" fill="hsl(120.0,100%,20%)">tdenniston</text>
<text x="1.705" y="0.554" font-size="0.004906" fill="hsl(240.0,100%,20%)">emaxx</text>
<text x="1.056" y="0.531" font-size="0.014387" fill="hsl(120.0,100%,20%)">lovisolo</text>
<text x="1.071" y="0.598" font-size="0.003800" fill="hsl(120.0,100%,20%)">iapres</text>
<text x="1.095" y="0.488" font-size="0.008776" fill="hsl(120.0,100%,20%)">jamesgk</text>
<text x="0.729" y="1.556" font-size="0.002194" fill="hsl(0.0,100%,20%)">wrightgeorge</text>
<text x="1.448" y="0.309" font-size="0.005374" fill="hsl(120.0,100%,20%)">yjbanov</text>
<text x="0.488" y="0.458" font-size="0.004388" fill="hsl(120.0,100%,20%)">nicolettep</text>
<text x="0.511" y="0.478" font-size="0.004388" fill="hsl(120.0,100%,20%)">pkasting</text>
<text x="1.424" y="0.406" font-size="0.002194" fill="hsl(120.0,100%,20%)">whesse</text>
<text x="1.398" y="0.403" font-size="0.002194" fill="hsl(120.0,100%,20%)">mdebbar</text>
<text x="0.635" y="-0.359" font-size="0.004906" fill="hsl(240.0,100%,20%)">sergeyu</text>
<text x="0.991" y="0.039" font-size="0.005805" fill="hsl(240.0,100%,20%)">thestig</text>
</svg>
