<svg width="4000" height="2000" viewBox="-0.025 -0.025 2.05 1.05" xmlns="http://www.w3.org/2000/svg">
  <style>
    path {
      fill: none;
      stroke-linecap: round;
      stroke-opacity: 0.4;
    }

    text {
      text-anchor: middle;
      alignment-baseline: hanging;
    }
  </style>
  <g opacity="0.4">
<path d="M0.110 0.774 Q0.060 0.870 0.238 0.916" stroke="hsl(0.0,100%,35%)" stroke-width="0.03811"></path>
<path d="M0.110 0.774 Q0.780 0.649 0.683 0.294" stroke="hsl(0.0,100%,35%)" stroke-width="0.00346"></path>
<path d="M0.110 0.774 Q0.549 1.007 1.100 0.844" stroke="hsl(0.0,100%,35%)" stroke-width="0.00346"></path>
<path d="M0.238 0.916 Q0.956 0.889 1.063 0.533" stroke="hsl(0.0,100%,35%)" stroke-width="0.00346"></path>
<path d="M0.238 0.916 Q0.726 1.052 1.100 0.844" stroke="hsl(0.0,100%,35%)" stroke-width="0.02425"></path>
<path d="M0.238 0.916 Q1.456 0.776 1.450 0.151" stroke="hsl(0.0,100%,35%)" stroke-width="0.00693"></path>
<path d="M0.238 0.916 Q0.547 0.883 0.552 0.725" stroke="hsl(0.0,100%,35%)" stroke-width="0.01039"></path>
<path d="M0.238 0.916 Q0.287 0.819 0.110 0.774" stroke="hsl(0.0,100%,35%)" stroke-width="0.00693"></path>
<path d="M0.238 0.916 Q0.957 0.694 0.683 0.294" stroke="hsl(0.0,100%,35%)" stroke-width="0.00693"></path>
<path d="M0.238 0.916 Q1.620 0.821 1.739 0.126" stroke="hsl(0.0,100%,35%)" stroke-width="0.00346"></path>
<path d="M0.683 0.294 Q-0.037 0.516 0.238 0.916" stroke="hsl(0.0,100%,35%)" stroke-width="0.01386"></path>
<path d="M0.683 0.294 Q0.966 0.276 0.993 0.134" stroke="hsl(0.0,100%,35%)" stroke-width="0.00693"></path>
<path d="M0.683 0.294 Q0.564 0.351 0.649 0.422" stroke="hsl(0.0,100%,35%)" stroke-width="0.01386"></path>
<path d="M0.683 0.294 Q0.452 0.652 1.100 0.844" stroke="hsl(0.0,100%,35%)" stroke-width="0.01386"></path>
<path d="M0.683 0.294 Q0.452 0.171 0.159 0.256" stroke="hsl(0.0,100%,35%)" stroke-width="0.00346"></path>
<path d="M1.100 0.844 Q1.806 0.730 1.739 0.360" stroke="hsl(0.0,100%,35%)" stroke-width="0.00693"></path>
<path d="M1.100 0.844 Q1.330 0.681 1.063 0.533" stroke="hsl(0.0,100%,35%)" stroke-width="0.01732"></path>
<path d="M1.100 0.844 Q1.212 0.542 0.649 0.422" stroke="hsl(0.0,100%,35%)" stroke-width="0.00346"></path>
<path d="M1.100 0.844 Q1.401 0.941 1.658 0.816" stroke="hsl(0.0,100%,35%)" stroke-width="0.00346"></path>
<path d="M0.159 0.256 Q0.391 0.380 0.683 0.294" stroke="hsl(0.0,100%,35%)" stroke-width="0.00346"></path>
<path d="M0.159 0.256 Q0.371 0.272 0.448 0.172" stroke="hsl(0.0,100%,35%)" stroke-width="0.00346"></path>
<path d="M0.159 0.256 Q0.160 0.738 1.100 0.844" stroke="hsl(0.0,100%,35%)" stroke-width="0.00346"></path>
<path d="M0.159 0.256 Q0.866 0.624 1.739 0.360" stroke="hsl(0.0,100%,35%)" stroke-width="0.00346"></path>
<path d="M1.739 0.360 Q1.927 0.243 1.739 0.126" stroke="hsl(180.0,100%,35%)" stroke-width="0.01039"></path>
<path d="M1.739 0.360 Q1.763 0.198 1.450 0.151" stroke="hsl(180.0,100%,35%)" stroke-width="0.00346"></path>
<path d="M1.739 0.360 Q1.074 0.589 1.374 0.964" stroke="hsl(180.0,100%,35%)" stroke-width="0.01039"></path>
<path d="M1.739 0.360 Q1.334 0.572 1.658 0.816" stroke="hsl(180.0,100%,35%)" stroke-width="0.00346"></path>
<path d="M1.739 0.360 Q1.247 0.481 1.373 0.747" stroke="hsl(180.0,100%,35%)" stroke-width="0.00346"></path>
<path d="M1.658 0.816 Q2.063 0.604 1.739 0.360" stroke="hsl(180.0,100%,35%)" stroke-width="0.02772"></path>
<path d="M1.658 0.816 Q1.397 0.833 1.374 0.964" stroke="hsl(180.0,100%,35%)" stroke-width="0.01732"></path>
<path d="M1.658 0.816 Q1.570 0.725 1.373 0.747" stroke="hsl(180.0,100%,35%)" stroke-width="0.00346"></path>
<path d="M0.552 0.725 Q0.242 0.757 0.238 0.916" stroke="hsl(0.0,100%,35%)" stroke-width="0.01039"></path>
<path d="M0.552 0.725 Q0.962 0.536 0.683 0.294" stroke="hsl(0.0,100%,35%)" stroke-width="0.00346"></path>
<path d="M0.552 0.725 Q1.437 0.780 1.739 0.360" stroke="hsl(0.0,100%,35%)" stroke-width="0.00346"></path>
<path d="M1.374 0.964 Q1.634 0.946 1.658 0.816" stroke="hsl(180.0,100%,35%)" stroke-width="0.04158"></path>
<path d="M1.374 0.964 Q2.039 0.735 1.739 0.360" stroke="hsl(180.0,100%,35%)" stroke-width="0.01732"></path>
<path d="M1.374 0.964 Q0.844 0.712 0.238 0.916" stroke="hsl(180.0,100%,35%)" stroke-width="0.01386"></path>
<path d="M1.374 0.964 Q1.652 0.791 1.375 0.617" stroke="hsl(180.0,100%,35%)" stroke-width="0.00346"></path>
<path d="M1.739 0.126 Q0.356 0.220 0.238 0.916" stroke="hsl(180.0,100%,35%)" stroke-width="0.00346"></path>
<path d="M1.739 0.126 Q0.886 0.472 1.374 0.964" stroke="hsl(180.0,100%,35%)" stroke-width="0.00346"></path>
<path d="M1.739 0.126 Q1.575 0.080 1.450 0.151" stroke="hsl(180.0,100%,35%)" stroke-width="0.00693"></path>
<path d="M1.739 0.126 Q1.551 0.243 1.739 0.360" stroke="hsl(180.0,100%,35%)" stroke-width="0.01386"></path>
<path d="M1.739 0.126 Q1.146 0.454 1.658 0.816" stroke="hsl(180.0,100%,35%)" stroke-width="0.00346"></path>
<path d="M1.739 0.126 Q0.845 -0.125 0.159 0.256" stroke="hsl(180.0,100%,35%)" stroke-width="0.00346"></path>
</g>
<text x="0.110" y="0.748" font-size="0.050210" fill="hsl(0.0,100%,20%)">borenet</text>
<text x="0.238" y="0.874" font-size="0.083011" fill="hsl(0.0,100%,20%)">kjlubick</text>
<text x="0.683" y="0.265" font-size="0.057977" fill="hsl(0.0,100%,20%)">bungeman</text>
<text x="1.100" y="0.813" font-size="0.060807" fill="hsl(0.0,100%,20%)">danieldilan</text>
<text x="0.993" y="0.125" font-size="0.018334" fill="hsl(0.0,100%,20%)">drott</text>
<text x="0.649" y="0.407" font-size="0.028989" fill="hsl(0.0,100%,20%)">jlavrova</text>
<text x="0.159" y="0.240" font-size="0.031755" fill="hsl(0.0,100%,20%)">nscobie</text>
<text x="1.739" y="0.325" font-size="0.071007" fill="hsl(180.0,100%,20%)">michaelludwig</text>
<text x="1.063" y="0.517" font-size="0.031755" fill="hsl(0.0,100%,20%)">fmalita</text>
<text x="1.658" y="0.781" font-size="0.069814" fill="hsl(180.0,100%,20%)">robertphillips</text>
<text x="0.552" y="0.706" font-size="0.036668" fill="hsl(0.0,100%,20%)">jmbetancourt</text>
<text x="1.374" y="0.928" font-size="0.072181" fill="hsl(180.0,100%,20%)">jvanverth</text>
<text x="1.375" y="0.611" font-size="0.012964" fill="hsl(180.0,100%,20%)">thomsmit</text>
<text x="1.450" y="0.136" font-size="0.028989" fill="hsl(180.0,100%,20%)">egdaniel</text>
<text x="1.739" y="0.101" font-size="0.048507" fill="hsl(180.0,100%,20%)">nicolettep</text>
<text x="1.373" y="0.738" font-size="0.018334" fill="hsl(180.0,100%,20%)">jamesgk</text>
<text x="0.448" y="0.166" font-size="0.012964" fill="hsl(180.0,100%,20%)">ccameron</text>
</svg>
