<svg width="4000" height="2000" viewBox="-0.025 -0.025 2.05 1.05" xmlns="http://www.w3.org/2000/svg">
  <style>
    path {
      fill: none;
      stroke-linecap: round;
      stroke-opacity: 0.4;
    }

    text {
      text-anchor: middle;
      alignment-baseline: hanging;
    }
  </style>
  <g opacity="0.4">
<path d="M1.410 0.083 Q1.403 0.191 1.613 0.218" stroke="hsl(0.0,100%,35%)" stroke-width="0.01381"></path>
<path d="M1.410 0.083 Q0.838 -0.098 0.361 0.142" stroke="hsl(0.0,100%,35%)" stroke-width="0.00425"></path>
<path d="M1.410 0.083 Q1.139 0.182 1.274 0.336" stroke="hsl(0.0,100%,35%)" stroke-width="0.00213"></path>
<path d="M1.410 0.083 Q0.721 -0.033 0.343 0.277" stroke="hsl(0.0,100%,35%)" stroke-width="0.00638"></path>
<path d="M1.613 0.218 Q1.349 0.209 1.274 0.336" stroke="hsl(0.0,100%,35%)" stroke-width="0.01381"></path>
<path d="M1.613 0.218 Q1.620 0.110 1.410 0.083" stroke="hsl(0.0,100%,35%)" stroke-width="0.01275"></path>
<path d="M1.613 0.218 Q0.930 -0.006 0.343 0.277" stroke="hsl(0.0,100%,35%)" stroke-width="0.00106"></path>
<path d="M1.613 0.218 Q1.661 0.303 1.836 0.298" stroke="hsl(0.0,100%,35%)" stroke-width="0.00319"></path>
<path d="M1.613 0.218 Q1.487 0.309 1.636 0.390" stroke="hsl(0.0,100%,35%)" stroke-width="0.00319"></path>
<path d="M1.613 0.218 Q1.048 -0.070 0.361 0.142" stroke="hsl(0.0,100%,35%)" stroke-width="0.00531"></path>
<path d="M1.613 0.218 Q1.229 0.482 1.659 0.727" stroke="hsl(0.0,100%,35%)" stroke-width="0.00638"></path>
<path d="M1.613 0.218 Q1.127 0.122 0.834 0.338" stroke="hsl(0.0,100%,35%)" stroke-width="0.00106"></path>
<path d="M1.613 0.218 Q0.755 0.364 0.850 0.814" stroke="hsl(0.0,100%,35%)" stroke-width="0.00106"></path>
<path d="M1.613 0.218 Q1.065 0.455 1.407 0.774" stroke="hsl(0.0,100%,35%)" stroke-width="0.00638"></path>
<path d="M1.613 0.218 Q1.299 -0.036 0.734 0.061" stroke="hsl(0.0,100%,35%)" stroke-width="0.00106"></path>
<path d="M1.613 0.218 Q0.901 0.251 0.809 0.606" stroke="hsl(0.0,100%,35%)" stroke-width="0.00213"></path>
<path d="M0.361 0.142 Q0.441 0.335 0.834 0.338" stroke="hsl(0.0,100%,35%)" stroke-width="0.00531"></path>
<path d="M0.361 0.142 Q0.612 0.176 0.734 0.061" stroke="hsl(0.0,100%,35%)" stroke-width="0.00956"></path>
<path d="M0.361 0.142 Q0.926 0.430 1.613 0.218" stroke="hsl(0.0,100%,35%)" stroke-width="0.00638"></path>
<path d="M0.361 0.142 Q0.244 0.206 0.343 0.277" stroke="hsl(0.0,100%,35%)" stroke-width="0.00956"></path>
<path d="M0.361 0.142 Q0.933 0.322 1.410 0.083" stroke="hsl(0.0,100%,35%)" stroke-width="0.00213"></path>
<path d="M0.361 0.142 Q0.662 0.421 1.274 0.336" stroke="hsl(0.0,100%,35%)" stroke-width="0.00425"></path>
<path d="M0.361 0.142 Q0.460 0.194 0.583 0.157" stroke="hsl(0.0,100%,35%)" stroke-width="0.00425"></path>
<path d="M0.361 0.142 Q0.378 0.667 1.407 0.774" stroke="hsl(0.0,100%,35%)" stroke-width="0.00106"></path>
<path d="M0.361 0.142 Q0.251 0.136 0.214 0.188" stroke="hsl(0.0,100%,35%)" stroke-width="0.00106"></path>
<path d="M1.274 0.336 Q0.990 0.582 1.407 0.774" stroke="hsl(0.0,100%,35%)" stroke-width="0.00744"></path>
<path d="M1.274 0.336 Q0.855 0.120 0.343 0.277" stroke="hsl(0.0,100%,35%)" stroke-width="0.00956"></path>
<path d="M1.274 0.336 Q1.224 0.091 0.734 0.061" stroke="hsl(0.0,100%,35%)" stroke-width="0.00106"></path>
<path d="M1.274 0.336 Q0.679 0.490 0.850 0.814" stroke="hsl(0.0,100%,35%)" stroke-width="0.00213"></path>
<path d="M1.274 0.336 Q1.537 0.345 1.613 0.218" stroke="hsl(0.0,100%,35%)" stroke-width="0.00106"></path>
<path d="M1.274 0.336 Q0.701 0.146 0.204 0.383" stroke="hsl(0.0,100%,35%)" stroke-width="0.00106"></path>
<path d="M1.274 0.336 Q1.201 0.265 1.048 0.285" stroke="hsl(0.0,100%,35%)" stroke-width="0.00106"></path>
<path d="M0.343 0.277 Q1.032 0.393 1.410 0.083" stroke="hsl(0.0,100%,35%)" stroke-width="0.00319"></path>
<path d="M0.343 0.277 Q1.025 0.502 1.613 0.218" stroke="hsl(0.0,100%,35%)" stroke-width="0.00425"></path>
<path d="M0.343 0.277 Q0.167 0.647 0.850 0.814" stroke="hsl(0.0,100%,35%)" stroke-width="0.00106"></path>
<path d="M0.343 0.277 Q0.477 0.739 1.407 0.774" stroke="hsl(0.0,100%,35%)" stroke-width="0.00213"></path>
<path d="M0.834 0.338 Q0.755 0.145 0.361 0.142" stroke="hsl(0.0,100%,35%)" stroke-width="0.00531"></path>
<path d="M0.834 0.338 Q1.319 0.434 1.613 0.218" stroke="hsl(0.0,100%,35%)" stroke-width="0.00213"></path>
<path d="M0.583 0.157 Q1.049 0.394 1.613 0.218" stroke="hsl(0.0,100%,35%)" stroke-width="0.00106"></path>
<path d="M0.583 0.157 Q0.485 0.105 0.361 0.142" stroke="hsl(0.0,100%,35%)" stroke-width="0.00213"></path>
<path d="M0.583 0.157 Q0.713 0.314 1.048 0.285" stroke="hsl(0.0,100%,35%)" stroke-width="0.00106"></path>
<path d="M0.583 0.157 Q0.786 0.385 1.274 0.336" stroke="hsl(0.0,100%,35%)" stroke-width="0.00106"></path>
<path d="M0.583 0.157 Q0.502 0.631 1.407 0.774" stroke="hsl(0.0,100%,35%)" stroke-width="0.00106"></path>
<path d="M0.583 0.157 Q0.665 0.657 1.659 0.727" stroke="hsl(0.0,100%,35%)" stroke-width="0.00106"></path>
<path d="M1.407 0.774 Q1.074 0.545 0.552 0.657" stroke="hsl(180.0,100%,35%)" stroke-width="0.00531"></path>
<path d="M1.407 0.774 Q1.955 0.537 1.613 0.218" stroke="hsl(180.0,100%,35%)" stroke-width="0.00425"></path>
<path d="M1.407 0.774 Q1.571 0.801 1.659 0.727" stroke="hsl(180.0,100%,35%)" stroke-width="0.01169"></path>
<path d="M1.407 0.774 Q1.097 0.683 0.850 0.814" stroke="hsl(180.0,100%,35%)" stroke-width="0.01381"></path>
<path d="M1.407 0.774 Q2.003 0.622 1.836 0.298" stroke="hsl(180.0,100%,35%)" stroke-width="0.00106"></path>
<path d="M1.407 0.774 Q1.422 0.592 1.070 0.545" stroke="hsl(180.0,100%,35%)" stroke-width="0.00531"></path>
<path d="M1.407 0.774 Q1.691 0.528 1.274 0.336" stroke="hsl(180.0,100%,35%)" stroke-width="0.00106"></path>
<path d="M1.407 0.774 Q1.243 0.570 0.809 0.606" stroke="hsl(180.0,100%,35%)" stroke-width="0.00744"></path>
<path d="M1.407 0.774 Q1.962 0.429 1.410 0.083" stroke="hsl(180.0,100%,35%)" stroke-width="0.00106"></path>
<path d="M1.048 0.285 Q1.120 0.356 1.274 0.336" stroke="hsl(0.0,100%,35%)" stroke-width="0.00319"></path>
<path d="M1.048 0.285 Q1.384 0.365 1.613 0.218" stroke="hsl(0.0,100%,35%)" stroke-width="0.00213"></path>
<path d="M1.048 0.285 Q0.836 0.602 1.407 0.774" stroke="hsl(0.0,100%,35%)" stroke-width="0.00106"></path>
<path d="M0.850 0.814 Q1.161 0.906 1.407 0.774" stroke="hsl(180.0,100%,35%)" stroke-width="0.02231"></path>
<path d="M0.850 0.814 Q0.827 0.676 0.552 0.657" stroke="hsl(180.0,100%,35%)" stroke-width="0.01806"></path>
<path d="M0.850 0.814 Q1.175 0.724 1.070 0.545" stroke="hsl(180.0,100%,35%)" stroke-width="0.00106"></path>
<path d="M0.850 0.814 Q1.324 0.932 1.659 0.727" stroke="hsl(180.0,100%,35%)" stroke-width="0.00531"></path>
<path d="M0.850 0.814 Q1.026 0.444 0.343 0.277" stroke="hsl(180.0,100%,35%)" stroke-width="0.00106"></path>
<path d="M0.850 0.814 Q0.997 0.702 0.809 0.606" stroke="hsl(180.0,100%,35%)" stroke-width="0.00531"></path>
<path d="M0.850 0.814 Q1.144 0.380 0.361 0.142" stroke="hsl(180.0,100%,35%)" stroke-width="0.00106"></path>
<path d="M0.204 0.383 Q0.358 0.358 0.343 0.277" stroke="hsl(0.0,100%,35%)" stroke-width="0.01063"></path>
<path d="M0.204 0.383 Q1.041 0.582 1.613 0.218" stroke="hsl(0.0,100%,35%)" stroke-width="0.00106"></path>
<path d="M0.204 0.383 Q0.777 0.573 1.274 0.336" stroke="hsl(0.0,100%,35%)" stroke-width="0.00213"></path>
<path d="M0.204 0.383 Q0.657 0.846 1.659 0.727" stroke="hsl(0.0,100%,35%)" stroke-width="0.00106"></path>
<path d="M1.070 0.545 Q1.651 0.575 1.836 0.298" stroke="hsl(180.0,100%,35%)" stroke-width="0.00106"></path>
<path d="M1.070 0.545 Q1.055 0.727 1.407 0.774" stroke="hsl(180.0,100%,35%)" stroke-width="0.01275"></path>
<path d="M1.070 0.545 Q0.722 0.498 0.552 0.657" stroke="hsl(180.0,100%,35%)" stroke-width="0.00106"></path>
<path d="M1.070 0.545 Q0.745 0.636 0.850 0.814" stroke="hsl(180.0,100%,35%)" stroke-width="0.00213"></path>
<path d="M1.070 0.545 Q1.219 0.754 1.659 0.727" stroke="hsl(180.0,100%,35%)" stroke-width="0.00213"></path>
<path d="M0.552 0.657 Q0.776 0.924 1.346 0.873" stroke="hsl(180.0,100%,35%)" stroke-width="0.00106"></path>
<path d="M0.552 0.657 Q0.575 0.795 0.850 0.814" stroke="hsl(180.0,100%,35%)" stroke-width="0.02444"></path>
<path d="M0.552 0.657 Q0.886 0.887 1.407 0.774" stroke="hsl(180.0,100%,35%)" stroke-width="0.01063"></path>
<path d="M0.552 0.657 Q1.049 0.913 1.659 0.727" stroke="hsl(180.0,100%,35%)" stroke-width="0.00213"></path>
<path d="M0.552 0.657 Q0.722 0.683 0.809 0.606" stroke="hsl(180.0,100%,35%)" stroke-width="0.00319"></path>
<path d="M0.552 0.657 Q1.433 0.650 1.613 0.218" stroke="hsl(180.0,100%,35%)" stroke-width="0.00531"></path>
<path d="M1.659 0.727 Q2.043 0.463 1.613 0.218" stroke="hsl(180.0,100%,35%)" stroke-width="0.00319"></path>
<path d="M1.659 0.727 Q1.161 0.471 0.552 0.657" stroke="hsl(180.0,100%,35%)" stroke-width="0.00213"></path>
<path d="M1.659 0.727 Q2.091 0.548 1.836 0.298" stroke="hsl(180.0,100%,35%)" stroke-width="0.00213"></path>
<path d="M1.659 0.727 Q1.495 0.700 1.407 0.774" stroke="hsl(180.0,100%,35%)" stroke-width="0.00850"></path>
<path d="M1.659 0.727 Q1.185 0.609 0.850 0.814" stroke="hsl(180.0,100%,35%)" stroke-width="0.00213"></path>
<path d="M1.659 0.727 Q1.577 0.227 0.583 0.157" stroke="hsl(180.0,100%,35%)" stroke-width="0.00106"></path>
<path d="M1.659 0.727 Q1.510 0.518 1.070 0.545" stroke="hsl(180.0,100%,35%)" stroke-width="0.00319"></path>
<path d="M1.659 0.727 Q1.331 0.496 0.809 0.606" stroke="hsl(180.0,100%,35%)" stroke-width="0.00106"></path>
<path d="M1.636 0.390 Q1.810 0.384 1.836 0.298" stroke="hsl(0.0,100%,35%)" stroke-width="0.00106"></path>
<path d="M1.636 0.390 Q1.762 0.299 1.613 0.218" stroke="hsl(0.0,100%,35%)" stroke-width="0.00425"></path>
<path d="M1.636 0.390 Q1.197 0.011 0.361 0.142" stroke="hsl(0.0,100%,35%)" stroke-width="0.00106"></path>
<path d="M1.636 0.390 Q1.214 0.536 1.407 0.774" stroke="hsl(0.0,100%,35%)" stroke-width="0.00213"></path>
<path d="M0.855 0.210 Q0.761 0.129 0.583 0.157" stroke="hsl(0.0,100%,35%)" stroke-width="0.00213"></path>
<path d="M0.855 0.210 Q0.662 0.077 0.361 0.142" stroke="hsl(0.0,100%,35%)" stroke-width="0.00106"></path>
<path d="M0.855 0.210 Q0.963 0.357 1.274 0.336" stroke="hsl(0.0,100%,35%)" stroke-width="0.00106"></path>
<path d="M0.855 0.210 Q1.227 0.365 1.613 0.218" stroke="hsl(0.0,100%,35%)" stroke-width="0.00106"></path>
<path d="M0.570 0.418 Q0.569 0.302 0.343 0.277" stroke="hsl(0.0,100%,35%)" stroke-width="0.02763"></path>
<path d="M0.570 0.418 Q1.251 0.527 1.613 0.218" stroke="hsl(0.0,100%,35%)" stroke-width="0.00319"></path>
<path d="M0.570 0.418 Q0.687 0.238 0.361 0.142" stroke="hsl(0.0,100%,35%)" stroke-width="0.00956"></path>
<path d="M0.570 0.418 Q0.540 0.560 0.809 0.606" stroke="hsl(0.0,100%,35%)" stroke-width="0.00106"></path>
<path d="M0.570 0.418 Q0.295 0.387 0.173 0.513" stroke="hsl(0.0,100%,35%)" stroke-width="0.00106"></path>
<path d="M0.570 0.418 Q0.988 0.518 1.274 0.336" stroke="hsl(0.0,100%,35%)" stroke-width="0.00956"></path>
<path d="M0.570 0.418 Q0.471 0.447 0.506 0.501" stroke="hsl(0.0,100%,35%)" stroke-width="0.00106"></path>
<path d="M0.570 0.418 Q0.704 0.764 1.407 0.774" stroke="hsl(0.0,100%,35%)" stroke-width="0.00319"></path>
<path d="M0.570 0.418 Q1.258 0.419 1.410 0.083" stroke="hsl(0.0,100%,35%)" stroke-width="0.00319"></path>
<path d="M1.352 0.457 Q1.410 0.381 1.274 0.336" stroke="hsl(0.0,100%,35%)" stroke-width="0.00106"></path>
<path d="M1.352 0.457 Q0.991 0.165 0.343 0.277" stroke="hsl(0.0,100%,35%)" stroke-width="0.00106"></path>
<path d="M1.352 0.457 Q1.674 0.390 1.613 0.218" stroke="hsl(0.0,100%,35%)" stroke-width="0.00106"></path>
<path d="M1.664 0.850 Q1.596 0.761 1.407 0.774" stroke="hsl(180.0,100%,35%)" stroke-width="0.02550"></path>
<path d="M1.664 0.850 Q1.759 0.787 1.659 0.727" stroke="hsl(180.0,100%,35%)" stroke-width="0.01381"></path>
<path d="M1.664 0.850 Q1.285 0.669 0.850 0.814" stroke="hsl(180.0,100%,35%)" stroke-width="0.00213"></path>
<path d="M1.664 0.850 Q1.486 0.798 1.346 0.873" stroke="hsl(180.0,100%,35%)" stroke-width="0.00106"></path>
<path d="M1.119 0.668 Q1.178 0.779 1.407 0.774" stroke="hsl(180.0,100%,35%)" stroke-width="0.00319"></path>
<path d="M1.119 0.668 Q1.342 0.806 1.659 0.727" stroke="hsl(180.0,100%,35%)" stroke-width="0.00213"></path>
<path d="M1.119 0.668 Q0.845 0.549 0.552 0.657" stroke="hsl(180.0,100%,35%)" stroke-width="0.00106"></path>
<path d="M1.119 0.668 Q0.868 0.688 0.850 0.814" stroke="hsl(180.0,100%,35%)" stroke-width="0.00106"></path>
<path d="M1.119 0.668 Q1.726 0.542 1.613 0.218" stroke="hsl(180.0,100%,35%)" stroke-width="0.00106"></path>
</g>
<text x="1.410" y="0.061" font-size="0.043375" fill="hsl(0.0,100%,20%)">borenet</text>
<text x="1.613" y="0.185" font-size="0.065844" fill="hsl(0.0,100%,20%)">kjlubick</text>
<text x="0.361" y="0.115" font-size="0.053123" fill="hsl(0.0,100%,20%)">bungeman</text>
<text x="1.274" y="0.311" font-size="0.049123" fill="hsl(0.0,100%,20%)">danieldilan</text>
<text x="0.343" y="0.250" font-size="0.054641" fill="hsl(0.0,100%,20%)">fmalita</text>
<text x="0.834" y="0.327" font-size="0.023059" fill="hsl(0.0,100%,20%)">drott</text>
<text x="0.734" y="0.051" font-size="0.021211" fill="hsl(0.0,100%,20%)">jlavrova</text>
<text x="0.583" y="0.145" font-size="0.023929" fill="hsl(0.0,100%,20%)">nscobie</text>
<text x="1.407" y="0.735" font-size="0.078065" fill="hsl(180.0,100%,20%)">michaelludwig</text>
<text x="0.214" y="0.185" font-size="0.006395" fill="hsl(0.0,100%,20%)">hcm</text>
<text x="1.048" y="0.276" font-size="0.018089" fill="hsl(0.0,100%,20%)">ccameron</text>
<text x="0.850" y="0.783" font-size="0.063310" fill="hsl(180.0,100%,20%)">robertphillips</text>
<text x="0.204" y="0.371" font-size="0.024769" fill="hsl(0.0,100%,20%)">lukasza</text>
<text x="1.070" y="0.529" font-size="0.033231" fill="hsl(180.0,100%,20%)">jamesgk</text>
<text x="1.836" y="0.289" font-size="0.018089" fill="hsl(0.0,100%,20%)">egdaniel</text>
<text x="0.552" y="0.630" font-size="0.053507" fill="hsl(180.0,100%,20%)">jvanverth</text>
<text x="1.659" y="0.701" font-size="0.051561" fill="hsl(180.0,100%,20%)">nicolettep</text>
<text x="1.636" y="0.379" font-size="0.021211" fill="hsl(0.0,100%,20%)">jmbetancourt</text>
<text x="0.855" y="0.203" font-size="0.014300" fill="hsl(0.0,100%,20%)">jreck</text>
<text x="1.346" y="0.868" font-size="0.009044" fill="hsl(180.0,100%,20%)">brettos</text>
<text x="0.809" y="0.592" font-size="0.027876" fill="hsl(180.0,100%,20%)">thomsmit</text>
<text x="0.570" y="0.394" font-size="0.047858" fill="hsl(0.0,100%,20%)">mike</text>
<text x="0.173" y="0.510" font-size="0.006395" fill="hsl(0.0,100%,20%)">bwils</text>
<text x="0.506" y="0.498" font-size="0.006395" fill="hsl(0.0,100%,20%)">sharaks</text>
<text x="1.352" y="0.452" font-size="0.011077" fill="hsl(0.0,100%,20%)">sam</text>
<text x="1.664" y="0.830" font-size="0.040447" fill="hsl(180.0,100%,20%)">syoussefi</text>
<text x="1.119" y="0.659" font-size="0.018089" fill="hsl(180.0,100%,20%)">zengyonghust</text>
</svg>
