<svg width="4000" height="2000" viewBox="-0.025 -0.025 2.05 1.05" xmlns="http://www.w3.org/2000/svg">
  <style>
    path {
      fill: none;
      stroke-linecap: round;
      stroke-opacity: 0.4;
    }

    text {
      text-anchor: middle;
      alignment-baseline: hanging;
    }
  </style>
  <g opacity="0.4">
<path d="M0.762 0.494 Q1.576 0.577 1.917 0.198" stroke="hsl(0.0,100%,35%)" stroke-width="0.00594"></path>
<path d="M0.762 0.494 Q1.013 0.530 1.138 0.416" stroke="hsl(0.0,100%,35%)" stroke-width="0.00710"></path>
<path d="M0.762 0.494 Q1.352 0.522 1.536 0.240" stroke="hsl(0.0,100%,35%)" stroke-width="0.00420"></path>
<path d="M0.762 0.494 Q1.000 0.632 1.322 0.546" stroke="hsl(0.0,100%,35%)" stroke-width="0.00275"></path>
<path d="M0.762 0.494 Q0.875 0.881 1.655 0.911" stroke="hsl(0.0,100%,35%)" stroke-width="0.00072"></path>
<path d="M0.762 0.494 Q1.005 0.808 1.670 0.758" stroke="hsl(0.0,100%,35%)" stroke-width="0.00014"></path>
<path d="M0.762 0.494 Q1.486 0.647 1.942 0.327" stroke="hsl(0.0,100%,35%)" stroke-width="0.00145"></path>
<path d="M0.762 0.494 Q1.159 0.720 1.687 0.577" stroke="hsl(0.0,100%,35%)" stroke-width="0.00014"></path>
<path d="M0.762 0.494 Q1.340 0.564 1.603 0.298" stroke="hsl(0.0,100%,35%)" stroke-width="0.00014"></path>
<path d="M0.762 0.494 Q1.032 0.902 1.887 0.860" stroke="hsl(0.0,100%,35%)" stroke-width="0.00043"></path>
<path d="M0.762 0.494 Q0.593 0.603 0.769 0.709" stroke="hsl(0.0,100%,35%)" stroke-width="0.00058"></path>
<path d="M0.762 0.494 Q1.543 0.494 1.714 0.113" stroke="hsl(0.0,100%,35%)" stroke-width="0.00014"></path>
<path d="M1.917 0.198 Q1.690 0.345 1.927 0.488" stroke="hsl(0.0,100%,35%)" stroke-width="0.01058"></path>
<path d="M1.917 0.198 Q1.146 -0.048 0.496 0.274" stroke="hsl(0.0,100%,35%)" stroke-width="0.00043"></path>
<path d="M1.917 0.198 Q1.353 0.151 1.138 0.416" stroke="hsl(0.0,100%,35%)" stroke-width="0.00130"></path>
<path d="M1.917 0.198 Q1.693 0.143 1.536 0.240" stroke="hsl(0.0,100%,35%)" stroke-width="0.00594"></path>
<path d="M1.917 0.198 Q1.341 0.253 1.322 0.546" stroke="hsl(0.0,100%,35%)" stroke-width="0.00826"></path>
<path d="M1.917 0.198 Q1.499 0.341 1.687 0.577" stroke="hsl(0.0,100%,35%)" stroke-width="0.00014"></path>
<path d="M1.917 0.198 Q1.680 0.185 1.603 0.298" stroke="hsl(0.0,100%,35%)" stroke-width="0.00145"></path>
<path d="M1.917 0.198 Q1.883 0.115 1.714 0.113" stroke="hsl(0.0,100%,35%)" stroke-width="0.00087"></path>
<path d="M1.917 0.198 Q1.102 0.115 0.762 0.494" stroke="hsl(0.0,100%,35%)" stroke-width="0.00101"></path>
<path d="M1.917 0.198 Q1.827 0.268 1.942 0.327" stroke="hsl(0.0,100%,35%)" stroke-width="0.00217"></path>
<path d="M1.917 0.198 Q1.215 0.502 1.655 0.911" stroke="hsl(0.0,100%,35%)" stroke-width="0.00130"></path>
<path d="M1.917 0.198 Q0.934 0.224 0.769 0.709" stroke="hsl(0.0,100%,35%)" stroke-width="0.00101"></path>
<path d="M1.917 0.198 Q1.212 0.360 1.373 0.740" stroke="hsl(0.0,100%,35%)" stroke-width="0.00014"></path>
<path d="M1.138 0.416 Q1.125 0.518 1.322 0.546" stroke="hsl(0.0,100%,35%)" stroke-width="0.08815"></path>
<path d="M1.138 0.416 Q1.668 0.380 1.714 0.113" stroke="hsl(0.0,100%,35%)" stroke-width="0.00130"></path>
<path d="M1.138 0.416 Q1.701 0.463 1.917 0.198" stroke="hsl(0.0,100%,35%)" stroke-width="0.00739"></path>
<path d="M1.138 0.416 Q1.465 0.450 1.603 0.298" stroke="hsl(0.0,100%,35%)" stroke-width="0.00449"></path>
<path d="M1.138 0.416 Q1.477 0.408 1.536 0.240" stroke="hsl(0.0,100%,35%)" stroke-width="0.00391"></path>
<path d="M1.138 0.416 Q0.964 0.577 1.241 0.697" stroke="hsl(0.0,100%,35%)" stroke-width="0.00072"></path>
<path d="M1.138 0.416 Q0.887 0.380 0.762 0.494" stroke="hsl(0.0,100%,35%)" stroke-width="0.02726"></path>
<path d="M1.138 0.416 Q1.474 0.610 1.927 0.488" stroke="hsl(0.0,100%,35%)" stroke-width="0.00391"></path>
<path d="M1.138 0.416 Q1.278 0.701 1.865 0.695" stroke="hsl(0.0,100%,35%)" stroke-width="0.00072"></path>
<path d="M1.138 0.416 Q0.930 0.217 0.496 0.274" stroke="hsl(0.0,100%,35%)" stroke-width="0.00116"></path>
<path d="M1.138 0.416 Q1.000 0.767 1.655 0.911" stroke="hsl(0.0,100%,35%)" stroke-width="0.00681"></path>
<path d="M1.138 0.416 Q1.284 0.606 1.687 0.577" stroke="hsl(0.0,100%,35%)" stroke-width="0.00870"></path>
<path d="M1.138 0.416 Q1.191 0.646 1.652 0.671" stroke="hsl(0.0,100%,35%)" stroke-width="0.00029"></path>
<path d="M1.138 0.416 Q1.287 0.725 1.922 0.720" stroke="hsl(0.0,100%,35%)" stroke-width="0.00058"></path>
<path d="M1.138 0.416 Q0.471 0.895 1.260 1.325" stroke="hsl(0.0,100%,35%)" stroke-width="0.00058"></path>
<path d="M1.138 0.416 Q1.130 0.694 1.670 0.758" stroke="hsl(0.0,100%,35%)" stroke-width="0.00014"></path>
<path d="M1.138 0.416 Q1.157 0.788 1.887 0.860" stroke="hsl(0.0,100%,35%)" stroke-width="0.00116"></path>
<path d="M1.138 0.416 Q1.021 0.280 0.730 0.307" stroke="hsl(0.0,100%,35%)" stroke-width="0.00029"></path>
<path d="M1.138 0.416 Q1.611 0.532 1.942 0.327" stroke="hsl(0.0,100%,35%)" stroke-width="0.00217"></path>
<path d="M1.138 0.416 Q1.064 0.658 1.521 0.748" stroke="hsl(0.0,100%,35%)" stroke-width="0.00087"></path>
<path d="M1.138 0.416 Q0.787 0.167 0.225 0.283" stroke="hsl(0.0,100%,35%)" stroke-width="0.00014"></path>
<path d="M1.138 0.416 Q0.718 0.489 0.769 0.709" stroke="hsl(0.0,100%,35%)" stroke-width="0.00145"></path>
<path d="M1.138 0.416 Q0.945 0.631 1.322 0.772" stroke="hsl(0.0,100%,35%)" stroke-width="0.00014"></path>
<path d="M1.138 0.416 Q0.746 0.704 1.222 0.958" stroke="hsl(0.0,100%,35%)" stroke-width="0.00014"></path>
<path d="M1.536 0.240 Q1.726 0.212 1.714 0.113" stroke="hsl(0.0,100%,35%)" stroke-width="0.00203"></path>
<path d="M1.536 0.240 Q1.184 0.350 1.322 0.546" stroke="hsl(0.0,100%,35%)" stroke-width="0.00362"></path>
<path d="M1.536 0.240 Q1.523 0.282 1.603 0.298" stroke="hsl(0.0,100%,35%)" stroke-width="0.00449"></path>
<path d="M1.536 0.240 Q1.760 0.295 1.917 0.198" stroke="hsl(0.0,100%,35%)" stroke-width="0.00623"></path>
<path d="M1.536 0.240 Q1.532 0.442 1.927 0.488" stroke="hsl(0.0,100%,35%)" stroke-width="0.00797"></path>
<path d="M1.536 0.240 Q0.945 0.212 0.762 0.494" stroke="hsl(0.0,100%,35%)" stroke-width="0.00058"></path>
<path d="M1.536 0.240 Q0.989 0.049 0.496 0.274" stroke="hsl(0.0,100%,35%)" stroke-width="0.00072"></path>
<path d="M1.536 0.240 Q1.196 0.248 1.138 0.416" stroke="hsl(0.0,100%,35%)" stroke-width="0.00145"></path>
<path d="M1.536 0.240 Q1.342 0.439 1.687 0.577" stroke="hsl(0.0,100%,35%)" stroke-width="0.00304"></path>
<path d="M1.536 0.240 Q1.058 0.599 1.655 0.911" stroke="hsl(0.0,100%,35%)" stroke-width="0.00101"></path>
<path d="M1.536 0.240 Q1.669 0.365 1.942 0.327" stroke="hsl(0.0,100%,35%)" stroke-width="0.00710"></path>
<path d="M1.536 0.240 Q1.345 0.557 1.922 0.720" stroke="hsl(0.0,100%,35%)" stroke-width="0.00029"></path>
<path d="M1.536 0.240 Q0.845 -0.001 0.225 0.283" stroke="hsl(0.0,100%,35%)" stroke-width="0.00014"></path>
<path d="M1.536 0.240 Q0.777 0.321 0.769 0.709" stroke="hsl(0.0,100%,35%)" stroke-width="0.00174"></path>
<path d="M1.536 0.240 Q1.249 0.479 1.652 0.671" stroke="hsl(0.0,100%,35%)" stroke-width="0.00014"></path>
<path d="M1.322 0.546 Q1.260 0.687 1.521 0.748" stroke="hsl(0.0,100%,35%)" stroke-width="0.00043"></path>
<path d="M1.322 0.546 Q1.864 0.408 1.714 0.113" stroke="hsl(0.0,100%,35%)" stroke-width="0.00029"></path>
<path d="M1.322 0.546 Q1.674 0.436 1.536 0.240" stroke="hsl(0.0,100%,35%)" stroke-width="0.00232"></path>
<path d="M1.322 0.546 Q1.480 0.634 1.687 0.577" stroke="hsl(0.0,100%,35%)" stroke-width="0.00652"></path>
<path d="M1.322 0.546 Q1.196 0.795 1.655 0.911" stroke="hsl(0.0,100%,35%)" stroke-width="0.00464"></path>
<path d="M1.322 0.546 Q1.671 0.638 1.927 0.488" stroke="hsl(0.0,100%,35%)" stroke-width="0.00275"></path>
<path d="M1.322 0.546 Q1.334 0.444 1.138 0.416" stroke="hsl(0.0,100%,35%)" stroke-width="0.01058"></path>
<path d="M1.322 0.546 Q1.898 0.491 1.917 0.198" stroke="hsl(0.0,100%,35%)" stroke-width="0.00493"></path>
<path d="M1.322 0.546 Q1.353 0.816 1.887 0.860" stroke="hsl(0.0,100%,35%)" stroke-width="0.00275"></path>
<path d="M1.322 0.546 Q1.217 0.308 0.730 0.307" stroke="hsl(0.0,100%,35%)" stroke-width="0.00014"></path>
<path d="M1.322 0.546 Q1.127 0.245 0.496 0.274" stroke="hsl(0.0,100%,35%)" stroke-width="0.00029"></path>
<path d="M1.322 0.546 Q0.668 0.923 1.260 1.325" stroke="hsl(0.0,100%,35%)" stroke-width="0.00014"></path>
<path d="M1.322 0.546 Q1.117 0.505 0.993 0.596" stroke="hsl(0.0,100%,35%)" stroke-width="0.00043"></path>
<path d="M1.322 0.546 Q1.193 0.653 1.373 0.740" stroke="hsl(0.0,100%,35%)" stroke-width="0.00043"></path>
<path d="M1.322 0.546 Q1.161 0.606 1.241 0.697" stroke="hsl(0.0,100%,35%)" stroke-width="0.00014"></path>
<path d="M1.322 0.546 Q0.915 0.517 0.769 0.709" stroke="hsl(0.0,100%,35%)" stroke-width="0.00217"></path>
<path d="M1.322 0.546 Q1.320 0.607 1.438 0.621" stroke="hsl(0.0,100%,35%)" stroke-width="0.00029"></path>
<path d="M1.322 0.546 Q1.808 0.561 1.942 0.327" stroke="hsl(0.0,100%,35%)" stroke-width="0.00072"></path>
<path d="M1.655 0.911 Q2.356 0.607 1.917 0.198" stroke="hsl(180.0,100%,35%)" stroke-width="0.00855"></path>
<path d="M1.655 0.911 Q2.119 0.594 1.603 0.298" stroke="hsl(180.0,100%,35%)" stroke-width="0.00116"></path>
<path d="M1.655 0.911 Q1.651 0.769 1.373 0.740" stroke="hsl(180.0,100%,35%)" stroke-width="0.00435"></path>
<path d="M1.655 0.911 Q1.793 0.560 1.138 0.416" stroke="hsl(180.0,100%,35%)" stroke-width="0.00681"></path>
<path d="M1.655 0.911 Q1.939 0.750 1.687 0.577" stroke="hsl(180.0,100%,35%)" stroke-width="0.00652"></path>
<path d="M1.655 0.911 Q1.719 0.803 1.521 0.748" stroke="hsl(180.0,100%,35%)" stroke-width="0.00101"></path>
<path d="M1.655 0.911 Q1.780 0.662 1.322 0.546" stroke="hsl(180.0,100%,35%)" stroke-width="0.01609"></path>
<path d="M1.655 0.911 Q1.812 0.932 1.887 0.860" stroke="hsl(180.0,100%,35%)" stroke-width="0.01798"></path>
<path d="M1.655 0.911 Q1.585 0.361 0.496 0.274" stroke="hsl(180.0,100%,35%)" stroke-width="0.00232"></path>
<path d="M1.655 0.911 Q2.129 0.754 1.927 0.488" stroke="hsl(180.0,100%,35%)" stroke-width="0.00145"></path>
<path d="M1.655 0.911 Q2.132 0.552 1.536 0.240" stroke="hsl(180.0,100%,35%)" stroke-width="0.00188"></path>
<path d="M1.655 0.911 Q1.619 0.721 1.241 0.697" stroke="hsl(180.0,100%,35%)" stroke-width="0.00290"></path>
<path d="M1.655 0.911 Q1.941 0.869 1.922 0.720" stroke="hsl(180.0,100%,35%)" stroke-width="0.00319"></path>
<path d="M1.655 0.911 Q1.778 0.723 1.438 0.621" stroke="hsl(180.0,100%,35%)" stroke-width="0.00043"></path>
<path d="M1.655 0.911 Q1.542 0.524 0.762 0.494" stroke="hsl(180.0,100%,35%)" stroke-width="0.00101"></path>
<path d="M1.655 0.911 Q1.503 0.858 1.367 0.921" stroke="hsl(180.0,100%,35%)" stroke-width="0.00043"></path>
<path d="M1.655 0.911 Q1.846 0.791 1.652 0.671" stroke="hsl(180.0,100%,35%)" stroke-width="0.00464"></path>
<path d="M1.655 0.911 Q2.266 0.676 1.942 0.327" stroke="hsl(180.0,100%,35%)" stroke-width="0.00203"></path>
<path d="M1.655 0.911 Q1.126 1.039 1.260 1.325" stroke="hsl(180.0,100%,35%)" stroke-width="0.00101"></path>
<path d="M1.655 0.911 Q2.322 0.524 1.714 0.113" stroke="hsl(180.0,100%,35%)" stroke-width="0.00014"></path>
<path d="M1.655 0.911 Q1.600 0.775 1.322 0.772" stroke="hsl(180.0,100%,35%)" stroke-width="0.00043"></path>
<path d="M1.655 0.911 Q1.373 0.633 0.769 0.709" stroke="hsl(180.0,100%,35%)" stroke-width="0.00145"></path>
<path d="M1.655 0.911 Q1.785 0.838 1.670 0.758" stroke="hsl(180.0,100%,35%)" stroke-width="0.00217"></path>
<path d="M1.655 0.911 Q1.933 0.845 1.865 0.695" stroke="hsl(180.0,100%,35%)" stroke-width="0.00130"></path>
<path d="M1.655 0.911 Q1.461 0.749 1.102 0.808" stroke="hsl(180.0,100%,35%)" stroke-width="0.00029"></path>
<path d="M1.655 0.911 Q1.401 0.848 1.222 0.958" stroke="hsl(180.0,100%,35%)" stroke-width="0.00043"></path>
<path d="M1.655 0.911 Q1.676 0.424 0.730 0.307" stroke="hsl(180.0,100%,35%)" stroke-width="0.00087"></path>
<path d="M1.655 0.911 Q1.834 0.871 1.796 0.775" stroke="hsl(180.0,100%,35%)" stroke-width="0.00014"></path>
<path d="M1.655 0.911 Q1.442 0.311 0.225 0.283" stroke="hsl(180.0,100%,35%)" stroke-width="0.00014"></path>
<path d="M1.670 0.758 Q2.208 0.445 1.714 0.113" stroke="hsl(180.0,100%,35%)" stroke-width="0.00014"></path>
<path d="M1.670 0.758 Q1.540 0.832 1.655 0.911" stroke="hsl(180.0,100%,35%)" stroke-width="0.00507"></path>
<path d="M1.670 0.758 Q1.504 0.642 1.241 0.697" stroke="hsl(180.0,100%,35%)" stroke-width="0.00130"></path>
<path d="M1.670 0.758 Q1.731 0.711 1.652 0.671" stroke="hsl(180.0,100%,35%)" stroke-width="0.00014"></path>
<path d="M1.670 0.758 Q1.826 0.790 1.922 0.720" stroke="hsl(180.0,100%,35%)" stroke-width="0.00014"></path>
<path d="M1.670 0.758 Q2.241 0.528 1.917 0.198" stroke="hsl(180.0,100%,35%)" stroke-width="0.00014"></path>
<path d="M1.942 0.327 Q1.805 0.404 1.927 0.488" stroke="hsl(0.0,100%,35%)" stroke-width="0.00203"></path>
<path d="M1.942 0.327 Q1.795 0.244 1.603 0.298" stroke="hsl(0.0,100%,35%)" stroke-width="0.00275"></path>
<path d="M1.942 0.327 Q1.808 0.202 1.536 0.240" stroke="hsl(0.0,100%,35%)" stroke-width="0.00377"></path>
<path d="M1.942 0.327 Q1.331 0.562 1.655 0.911" stroke="hsl(0.0,100%,35%)" stroke-width="0.00029"></path>
<path d="M1.942 0.327 Q1.998 0.174 1.714 0.113" stroke="hsl(0.0,100%,35%)" stroke-width="0.00043"></path>
<path d="M1.942 0.327 Q1.252 0.272 0.993 0.596" stroke="hsl(0.0,100%,35%)" stroke-width="0.00014"></path>
<path d="M1.942 0.327 Q1.049 0.283 0.769 0.709" stroke="hsl(0.0,100%,35%)" stroke-width="0.00145"></path>
<path d="M1.942 0.327 Q1.456 0.312 1.322 0.546" stroke="hsl(0.0,100%,35%)" stroke-width="0.00029"></path>
<path d="M1.942 0.327 Q2.032 0.257 1.917 0.198" stroke="hsl(0.0,100%,35%)" stroke-width="0.00188"></path>
<path d="M1.942 0.327 Q1.615 0.401 1.687 0.577" stroke="hsl(0.0,100%,35%)" stroke-width="0.00014"></path>
<path d="M1.942 0.327 Q1.468 0.210 1.138 0.416" stroke="hsl(0.0,100%,35%)" stroke-width="0.00014"></path>
<path d="M1.942 0.327 Q1.617 0.520 1.922 0.720" stroke="hsl(0.0,100%,35%)" stroke-width="0.00014"></path>
<path d="M1.687 0.577 Q1.529 0.488 1.322 0.546" stroke="hsl(0.0,100%,35%)" stroke-width="0.00696"></path>
<path d="M1.687 0.577 Q1.541 0.386 1.138 0.416" stroke="hsl(0.0,100%,35%)" stroke-width="0.01029"></path>
<path d="M1.687 0.577 Q1.403 0.737 1.655 0.911" stroke="hsl(0.0,100%,35%)" stroke-width="0.00420"></path>
<path d="M1.687 0.577 Q1.881 0.378 1.536 0.240" stroke="hsl(0.0,100%,35%)" stroke-width="0.00406"></path>
<path d="M1.687 0.577 Q2.104 0.433 1.917 0.198" stroke="hsl(0.0,100%,35%)" stroke-width="0.00043"></path>
<path d="M1.687 0.577 Q1.334 0.187 0.496 0.274" stroke="hsl(0.0,100%,35%)" stroke-width="0.00043"></path>
<path d="M1.687 0.577 Q1.877 0.580 1.927 0.488" stroke="hsl(0.0,100%,35%)" stroke-width="0.02276"></path>
<path d="M1.687 0.577 Q1.560 0.758 1.887 0.860" stroke="hsl(0.0,100%,35%)" stroke-width="0.00159"></path>
<path d="M1.687 0.577 Q1.424 0.251 0.730 0.307" stroke="hsl(0.0,100%,35%)" stroke-width="0.00014"></path>
<path d="M1.687 0.577 Q1.122 0.459 0.769 0.709" stroke="hsl(0.0,100%,35%)" stroke-width="0.00043"></path>
<path d="M1.687 0.577 Q1.690 0.695 1.922 0.720" stroke="hsl(0.0,100%,35%)" stroke-width="0.00014"></path>
<path d="M1.687 0.577 Q2.014 0.503 1.942 0.327" stroke="hsl(0.0,100%,35%)" stroke-width="0.00029"></path>
<path d="M1.603 0.298 Q1.806 0.228 1.714 0.113" stroke="hsl(0.0,100%,35%)" stroke-width="0.00014"></path>
<path d="M1.603 0.298 Q1.616 0.256 1.536 0.240" stroke="hsl(0.0,100%,35%)" stroke-width="0.00362"></path>
<path d="M1.603 0.298 Q1.159 0.128 0.730 0.307" stroke="hsl(0.0,100%,35%)" stroke-width="0.00014"></path>
<path d="M1.603 0.298 Q1.276 0.264 1.138 0.416" stroke="hsl(0.0,100%,35%)" stroke-width="0.00130"></path>
<path d="M1.603 0.298 Q1.138 0.615 1.655 0.911" stroke="hsl(0.0,100%,35%)" stroke-width="0.00043"></path>
<path d="M1.603 0.298 Q1.839 0.311 1.917 0.198" stroke="hsl(0.0,100%,35%)" stroke-width="0.00174"></path>
<path d="M1.603 0.298 Q1.612 0.458 1.927 0.488" stroke="hsl(0.0,100%,35%)" stroke-width="0.00116"></path>
<path d="M1.603 0.298 Q1.749 0.380 1.942 0.327" stroke="hsl(0.0,100%,35%)" stroke-width="0.00145"></path>
<path d="M1.603 0.298 Q0.610 0.743 1.260 1.325" stroke="hsl(0.0,100%,35%)" stroke-width="0.00014"></path>
<path d="M1.603 0.298 Q1.329 0.494 1.652 0.671" stroke="hsl(0.0,100%,35%)" stroke-width="0.00014"></path>
<path d="M1.603 0.298 Q1.264 0.366 1.322 0.546" stroke="hsl(0.0,100%,35%)" stroke-width="0.00014"></path>
<path d="M1.887 0.860 Q1.730 0.839 1.655 0.911" stroke="hsl(180.0,100%,35%)" stroke-width="0.00304"></path>
<path d="M1.887 0.860 Q1.868 0.488 1.138 0.416" stroke="hsl(180.0,100%,35%)" stroke-width="0.00116"></path>
<path d="M1.887 0.860 Q2.014 0.678 1.687 0.577" stroke="hsl(180.0,100%,35%)" stroke-width="0.00391"></path>
<path d="M1.887 0.860 Q1.579 0.786 1.367 0.921" stroke="hsl(180.0,100%,35%)" stroke-width="0.00043"></path>
<path d="M1.887 0.860 Q1.856 0.590 1.322 0.546" stroke="hsl(180.0,100%,35%)" stroke-width="0.00188"></path>
<path d="M1.887 0.860 Q1.794 0.731 1.521 0.748" stroke="hsl(180.0,100%,35%)" stroke-width="0.00029"></path>
<path d="M1.887 0.860 Q1.661 0.289 0.496 0.274" stroke="hsl(180.0,100%,35%)" stroke-width="0.00072"></path>
<path d="M1.887 0.860 Q1.449 0.561 0.769 0.709" stroke="hsl(180.0,100%,35%)" stroke-width="0.00014"></path>
<path d="M1.887 0.860 Q1.921 0.718 1.652 0.671" stroke="hsl(180.0,100%,35%)" stroke-width="0.00029"></path>
<path d="M1.887 0.860 Q2.341 0.604 1.942 0.327" stroke="hsl(180.0,100%,35%)" stroke-width="0.00043"></path>
<path d="M1.887 0.860 Q2.204 0.682 1.927 0.488" stroke="hsl(180.0,100%,35%)" stroke-width="0.00014"></path>
<path d="M1.887 0.860 Q2.432 0.535 1.917 0.198" stroke="hsl(180.0,100%,35%)" stroke-width="0.00014"></path>
<path d="M0.769 0.709 Q0.981 0.437 0.496 0.274" stroke="hsl(0.0,100%,35%)" stroke-width="0.00174"></path>
<path d="M0.769 0.709 Q1.176 0.738 1.322 0.546" stroke="hsl(0.0,100%,35%)" stroke-width="0.00464"></path>
<path d="M0.769 0.709 Q1.188 0.636 1.138 0.416" stroke="hsl(0.0,100%,35%)" stroke-width="0.00145"></path>
<path d="M0.769 0.709 Q1.751 0.683 1.917 0.198" stroke="hsl(0.0,100%,35%)" stroke-width="0.00043"></path>
<path d="M0.769 0.709 Q1.334 0.827 1.687 0.577" stroke="hsl(0.0,100%,35%)" stroke-width="0.00145"></path>
<path d="M0.769 0.709 Q1.524 0.830 1.927 0.488" stroke="hsl(0.0,100%,35%)" stroke-width="0.00217"></path>
<path d="M0.769 0.709 Q1.046 0.845 1.373 0.740" stroke="hsl(0.0,100%,35%)" stroke-width="0.00043"></path>
<path d="M0.769 0.709 Q1.661 0.753 1.942 0.327" stroke="hsl(0.0,100%,35%)" stroke-width="0.00159"></path>
<path d="M0.769 0.709 Q1.528 0.628 1.536 0.240" stroke="hsl(0.0,100%,35%)" stroke-width="0.00014"></path>
<path d="M1.714 0.113 Q1.171 0.252 1.322 0.546" stroke="hsl(0.0,100%,35%)" stroke-width="0.00072"></path>
<path d="M1.714 0.113 Q1.324 0.435 1.865 0.695" stroke="hsl(0.0,100%,35%)" stroke-width="0.00014"></path>
<path d="M1.714 0.113 Q1.747 0.196 1.917 0.198" stroke="hsl(0.0,100%,35%)" stroke-width="0.00304"></path>
<path d="M1.714 0.113 Q1.520 0.344 1.927 0.488" stroke="hsl(0.0,100%,35%)" stroke-width="0.00275"></path>
<path d="M1.714 0.113 Q1.184 0.150 1.138 0.416" stroke="hsl(0.0,100%,35%)" stroke-width="0.00130"></path>
<path d="M1.714 0.113 Q1.523 0.141 1.536 0.240" stroke="hsl(0.0,100%,35%)" stroke-width="0.00087"></path>
<path d="M1.714 0.113 Q1.511 0.184 1.603 0.298" stroke="hsl(0.0,100%,35%)" stroke-width="0.00043"></path>
<path d="M1.714 0.113 Q1.042 0.359 1.373 0.740" stroke="hsl(0.0,100%,35%)" stroke-width="0.00014"></path>
<path d="M1.714 0.113 Q1.657 0.266 1.942 0.327" stroke="hsl(0.0,100%,35%)" stroke-width="0.00188"></path>
<path d="M1.714 0.113 Q1.203 0.522 1.887 0.860" stroke="hsl(0.0,100%,35%)" stroke-width="0.00014"></path>
<path d="M1.714 0.113 Q1.046 0.501 1.655 0.911" stroke="hsl(0.0,100%,35%)" stroke-width="0.00058"></path>
<path d="M1.714 0.113 Q1.010 0.311 1.241 0.697" stroke="hsl(0.0,100%,35%)" stroke-width="0.00014"></path>
<path d="M1.922 0.720 Q1.636 0.762 1.655 0.911" stroke="hsl(180.0,100%,35%)" stroke-width="0.00058"></path>
<path d="M1.922 0.720 Q1.761 0.513 1.322 0.546" stroke="hsl(180.0,100%,35%)" stroke-width="0.00014"></path>
<path d="M1.922 0.720 Q1.600 0.572 1.241 0.697" stroke="hsl(180.0,100%,35%)" stroke-width="0.00101"></path>
<path d="M1.922 0.720 Q1.827 0.642 1.652 0.671" stroke="hsl(180.0,100%,35%)" stroke-width="0.00014"></path>
<path d="M1.241 0.697 Q1.434 0.908 1.887 0.860" stroke="hsl(180.0,100%,35%)" stroke-width="0.00014"></path>
<path d="M1.241 0.697 Q1.407 0.813 1.670 0.758" stroke="hsl(180.0,100%,35%)" stroke-width="0.00014"></path>
<path d="M1.241 0.697 Q1.563 0.845 1.922 0.720" stroke="hsl(180.0,100%,35%)" stroke-width="0.00130"></path>
<path d="M1.241 0.697 Q1.468 0.766 1.652 0.671" stroke="hsl(180.0,100%,35%)" stroke-width="0.00159"></path>
<path d="M1.241 0.697 Q1.888 0.652 1.942 0.327" stroke="hsl(180.0,100%,35%)" stroke-width="0.00043"></path>
<path d="M1.241 0.697 Q1.277 0.887 1.655 0.911" stroke="hsl(180.0,100%,35%)" stroke-width="0.00058"></path>
<path d="M1.241 0.697 Q1.414 0.536 1.138 0.416" stroke="hsl(180.0,100%,35%)" stroke-width="0.00014"></path>
<path d="M1.241 0.697 Q1.402 0.638 1.322 0.546" stroke="hsl(180.0,100%,35%)" stroke-width="0.00014"></path>
<path d="M1.652 0.671 Q1.461 0.792 1.655 0.911" stroke="hsl(180.0,100%,35%)" stroke-width="0.00058"></path>
<path d="M1.652 0.671 Q1.748 0.750 1.922 0.720" stroke="hsl(180.0,100%,35%)" stroke-width="0.00043"></path>
<path d="M1.652 0.671 Q1.426 0.602 1.241 0.697" stroke="hsl(180.0,100%,35%)" stroke-width="0.00014"></path>
<path d="M1.521 0.748 Q1.457 0.856 1.655 0.911" stroke="hsl(180.0,100%,35%)" stroke-width="0.00087"></path>
<path d="M1.521 0.748 Q1.614 0.877 1.887 0.860" stroke="hsl(180.0,100%,35%)" stroke-width="0.00551"></path>
<path d="M1.521 0.748 Q1.921 0.539 1.603 0.298" stroke="hsl(180.0,100%,35%)" stroke-width="0.00014"></path>
<path d="M1.521 0.748 Q1.587 0.783 1.670 0.758" stroke="hsl(180.0,100%,35%)" stroke-width="0.00014"></path>
<path d="M1.521 0.748 Q2.158 0.552 1.917 0.198" stroke="hsl(180.0,100%,35%)" stroke-width="0.00014"></path>
<path d="M1.521 0.748 Q1.582 0.607 1.322 0.546" stroke="hsl(180.0,100%,35%)" stroke-width="0.00029"></path>
<path d="M1.521 0.748 Q1.931 0.699 1.927 0.488" stroke="hsl(180.0,100%,35%)" stroke-width="0.00029"></path>
<path d="M1.521 0.748 Q1.934 0.497 1.536 0.240" stroke="hsl(180.0,100%,35%)" stroke-width="0.00014"></path>
<path d="M1.927 0.488 Q1.930 0.286 1.536 0.240" stroke="hsl(0.0,100%,35%)" stroke-width="0.00841"></path>
<path d="M1.927 0.488 Q1.373 0.356 0.993 0.596" stroke="hsl(0.0,100%,35%)" stroke-width="0.00014"></path>
<path d="M1.927 0.488 Q1.449 0.503 1.373 0.740" stroke="hsl(0.0,100%,35%)" stroke-width="0.00014"></path>
<path d="M1.927 0.488 Q2.154 0.341 1.917 0.198" stroke="hsl(0.0,100%,35%)" stroke-width="0.00986"></path>
<path d="M1.927 0.488 Q1.383 0.095 0.496 0.274" stroke="hsl(0.0,100%,35%)" stroke-width="0.00043"></path>
<path d="M1.927 0.488 Q1.452 0.645 1.655 0.911" stroke="hsl(0.0,100%,35%)" stroke-width="0.00087"></path>
<path d="M1.927 0.488 Q1.578 0.396 1.322 0.546" stroke="hsl(0.0,100%,35%)" stroke-width="0.00159"></path>
<path d="M1.927 0.488 Q1.736 0.485 1.687 0.577" stroke="hsl(0.0,100%,35%)" stroke-width="0.00029"></path>
<path d="M1.927 0.488 Q2.064 0.411 1.942 0.327" stroke="hsl(0.0,100%,35%)" stroke-width="0.01203"></path>
<path d="M1.927 0.488 Q1.590 0.294 1.138 0.416" stroke="hsl(0.0,100%,35%)" stroke-width="0.00174"></path>
<path d="M1.927 0.488 Q2.120 0.258 1.714 0.113" stroke="hsl(0.0,100%,35%)" stroke-width="0.00362"></path>
<path d="M1.927 0.488 Q1.917 0.328 1.603 0.298" stroke="hsl(0.0,100%,35%)" stroke-width="0.00043"></path>
<path d="M1.927 0.488 Q1.739 0.603 1.922 0.720" stroke="hsl(0.0,100%,35%)" stroke-width="0.00145"></path>
<path d="M1.927 0.488 Q1.171 0.367 0.769 0.709" stroke="hsl(0.0,100%,35%)" stroke-width="0.00043"></path>
<path d="M1.927 0.488 Q1.398 0.509 1.322 0.772" stroke="hsl(0.0,100%,35%)" stroke-width="0.00014"></path>
<path d="M0.730 0.307 Q0.640 0.244 0.496 0.274" stroke="hsl(180.0,100%,35%)" stroke-width="0.00435"></path>
<path d="M0.730 0.307 Q0.709 0.794 1.655 0.911" stroke="hsl(180.0,100%,35%)" stroke-width="0.00101"></path>
<path d="M0.730 0.307 Q1.184 0.637 1.927 0.488" stroke="hsl(180.0,100%,35%)" stroke-width="0.00014"></path>
<path d="M0.730 0.307 Q0.987 0.728 1.865 0.695" stroke="hsl(180.0,100%,35%)" stroke-width="0.00014"></path>
<path d="M0.730 0.307 Q0.706 0.652 1.373 0.740" stroke="hsl(180.0,100%,35%)" stroke-width="0.00087"></path>
<path d="M0.730 0.307 Q0.516 0.632 1.102 0.808" stroke="hsl(180.0,100%,35%)" stroke-width="0.00014"></path>
<path d="M0.496 0.274 Q0.586 0.337 0.730 0.307" stroke="hsl(180.0,100%,35%)" stroke-width="0.00435"></path>
<path d="M0.496 0.274 Q1.043 0.465 1.536 0.240" stroke="hsl(180.0,100%,35%)" stroke-width="0.00014"></path>
<path d="M0.496 0.274 Q0.691 0.575 1.322 0.546" stroke="hsl(180.0,100%,35%)" stroke-width="0.00101"></path>
<path d="M0.496 0.274 Q0.722 0.845 1.887 0.860" stroke="hsl(180.0,100%,35%)" stroke-width="0.00261"></path>
<path d="M0.496 0.274 Q0.565 0.824 1.655 0.911" stroke="hsl(180.0,100%,35%)" stroke-width="0.00087"></path>
<path d="M0.496 0.274 Q0.562 0.682 1.373 0.740" stroke="hsl(180.0,100%,35%)" stroke-width="0.00014"></path>
<path d="M0.496 0.274 Q0.849 0.663 1.687 0.577" stroke="hsl(180.0,100%,35%)" stroke-width="0.00058"></path>
<path d="M0.496 0.274 Q0.703 0.473 1.138 0.416" stroke="hsl(180.0,100%,35%)" stroke-width="0.00029"></path>
<path d="M0.496 0.274 Q0.284 0.546 0.769 0.709" stroke="hsl(180.0,100%,35%)" stroke-width="0.00058"></path>
<path d="M0.496 0.274 Q0.530 0.635 1.241 0.697" stroke="hsl(180.0,100%,35%)" stroke-width="0.00014"></path>
<path d="M0.496 0.274 Q0.037 0.952 1.260 1.325" stroke="hsl(180.0,100%,35%)" stroke-width="0.00014"></path>
<path d="M0.496 0.274 Q0.629 0.716 1.521 0.748" stroke="hsl(180.0,100%,35%)" stroke-width="0.00014"></path>
<path d="M0.496 0.274 Q1.040 0.667 1.927 0.488" stroke="hsl(180.0,100%,35%)" stroke-width="0.00014"></path>
<path d="M0.496 0.274 Q1.267 0.520 1.917 0.198" stroke="hsl(180.0,100%,35%)" stroke-width="0.00014"></path>
<path d="M0.496 0.274 Q1.233 0.437 1.714 0.113" stroke="hsl(180.0,100%,35%)" stroke-width="0.00014"></path>
<path d="M1.260 1.325 Q1.914 0.948 1.322 0.546" stroke="hsl(180.0,100%,35%)" stroke-width="0.00072"></path>
<path d="M1.260 1.325 Q1.785 1.055 1.373 0.740" stroke="hsl(180.0,100%,35%)" stroke-width="0.00058"></path>
<path d="M1.260 1.325 Q1.945 1.218 1.887 0.860" stroke="hsl(180.0,100%,35%)" stroke-width="0.00014"></path>
<path d="M1.260 1.325 Q1.709 0.907 0.993 0.596" stroke="hsl(180.0,100%,35%)" stroke-width="0.00014"></path>
<path d="M1.260 1.325 Q2.253 0.880 1.603 0.298" stroke="hsl(180.0,100%,35%)" stroke-width="0.00014"></path>
<path d="M1.373 0.740 Q1.502 0.633 1.322 0.546" stroke="hsl(180.0,100%,35%)" stroke-width="0.00014"></path>
<path d="M1.373 0.740 Q1.515 0.531 1.138 0.416" stroke="hsl(180.0,100%,35%)" stroke-width="0.00029"></path>
<path d="M1.373 0.740 Q1.183 0.720 1.102 0.808" stroke="hsl(180.0,100%,35%)" stroke-width="0.00087"></path>
<path d="M1.373 0.740 Q1.377 0.882 1.655 0.911" stroke="hsl(180.0,100%,35%)" stroke-width="0.00014"></path>
<path d="M1.373 0.740 Q0.848 1.010 1.260 1.325" stroke="hsl(180.0,100%,35%)" stroke-width="0.00043"></path>
<path d="M1.373 0.740 Q1.534 0.903 1.887 0.860" stroke="hsl(180.0,100%,35%)" stroke-width="0.00014"></path>
<path d="M1.373 0.740 Q1.851 0.725 1.927 0.488" stroke="hsl(180.0,100%,35%)" stroke-width="0.00014"></path>
<path d="M1.373 0.740 Q1.988 0.647 1.942 0.327" stroke="hsl(180.0,100%,35%)" stroke-width="0.00014"></path>
<path d="M1.373 0.740 Q1.568 0.761 1.652 0.671" stroke="hsl(180.0,100%,35%)" stroke-width="0.00014"></path>
<path d="M1.438 0.621 Q1.439 0.560 1.322 0.546" stroke="hsl(0.0,100%,35%)" stroke-width="0.00710"></path>
<path d="M1.438 0.621 Q1.310 0.668 1.373 0.740" stroke="hsl(0.0,100%,35%)" stroke-width="0.00029"></path>
<path d="M1.438 0.621 Q1.235 0.520 0.993 0.596" stroke="hsl(0.0,100%,35%)" stroke-width="0.00029"></path>
<path d="M1.438 0.621 Q1.452 0.459 1.138 0.416" stroke="hsl(0.0,100%,35%)" stroke-width="0.00014"></path>
<path d="M1.438 0.621 Q1.598 0.649 1.687 0.577" stroke="hsl(0.0,100%,35%)" stroke-width="0.00014"></path>
<path d="M1.367 0.921 Q1.675 0.995 1.887 0.860" stroke="hsl(180.0,100%,35%)" stroke-width="0.00551"></path>
<path d="M1.367 0.921 Q1.518 0.974 1.655 0.911" stroke="hsl(180.0,100%,35%)" stroke-width="0.00217"></path>
<path d="M1.367 0.921 Q1.325 0.811 1.102 0.808" stroke="hsl(180.0,100%,35%)" stroke-width="0.00014"></path>
<path d="M1.367 0.921 Q1.237 0.695 0.769 0.709" stroke="hsl(180.0,100%,35%)" stroke-width="0.00014"></path>
<path d="M1.367 0.921 Q1.449 0.423 0.496 0.274" stroke="hsl(180.0,100%,35%)" stroke-width="0.00029"></path>
<path d="M1.865 0.695 Q1.717 0.688 1.670 0.758" stroke="hsl(180.0,100%,35%)" stroke-width="0.00029"></path>
<path d="M1.865 0.695 Q1.551 0.571 1.241 0.697" stroke="hsl(180.0,100%,35%)" stroke-width="0.00029"></path>
<path d="M1.865 0.695 Q2.064 0.402 1.536 0.240" stroke="hsl(180.0,100%,35%)" stroke-width="0.00072"></path>
<path d="M1.865 0.695 Q1.587 0.761 1.655 0.911" stroke="hsl(180.0,100%,35%)" stroke-width="0.00913"></path>
<path d="M1.865 0.695 Q1.744 0.782 1.887 0.860" stroke="hsl(180.0,100%,35%)" stroke-width="0.00014"></path>
<path d="M1.865 0.695 Q1.374 0.161 0.225 0.283" stroke="hsl(180.0,100%,35%)" stroke-width="0.00014"></path>
<path d="M1.865 0.695 Q1.300 0.236 0.280 0.411" stroke="hsl(180.0,100%,35%)" stroke-width="0.00029"></path>
<path d="M1.865 0.695 Q1.725 0.410 1.138 0.416" stroke="hsl(180.0,100%,35%)" stroke-width="0.00087"></path>
<path d="M1.865 0.695 Q1.778 0.640 1.652 0.671" stroke="hsl(180.0,100%,35%)" stroke-width="0.00058"></path>
<path d="M1.865 0.695 Q1.874 0.719 1.922 0.720" stroke="hsl(180.0,100%,35%)" stroke-width="0.00029"></path>
<path d="M1.865 0.695 Q1.712 0.512 1.322 0.546" stroke="hsl(180.0,100%,35%)" stroke-width="0.00029"></path>
<path d="M1.865 0.695 Q1.608 0.274 0.730 0.307" stroke="hsl(180.0,100%,35%)" stroke-width="0.00029"></path>
<path d="M1.865 0.695 Q2.061 0.604 1.927 0.488" stroke="hsl(180.0,100%,35%)" stroke-width="0.00014"></path>
<path d="M1.865 0.695 Q2.288 0.457 1.917 0.198" stroke="hsl(180.0,100%,35%)" stroke-width="0.00014"></path>
<path d="M1.865 0.695 Q2.198 0.526 1.942 0.327" stroke="hsl(180.0,100%,35%)" stroke-width="0.00014"></path>
<path d="M0.280 0.411 Q0.845 0.870 1.865 0.695" stroke="hsl(180.0,100%,35%)" stroke-width="0.00043"></path>
<path d="M0.280 0.411 Q0.354 0.336 0.225 0.283" stroke="hsl(180.0,100%,35%)" stroke-width="0.00116"></path>
<path d="M0.280 0.411 Q1.041 0.779 1.927 0.488" stroke="hsl(180.0,100%,35%)" stroke-width="0.00014"></path>
<path d="M0.280 0.411 Q0.854 0.894 1.922 0.720" stroke="hsl(180.0,100%,35%)" stroke-width="0.00029"></path>
<path d="M0.280 0.411 Q0.285 0.658 0.769 0.709" stroke="hsl(180.0,100%,35%)" stroke-width="0.00014"></path>
<path d="M0.280 0.411 Q0.567 0.936 1.655 0.911" stroke="hsl(180.0,100%,35%)" stroke-width="0.00014"></path>
<path d="M1.102 0.808 Q1.907 0.735 1.942 0.327" stroke="hsl(180.0,100%,35%)" stroke-width="0.00014"></path>
<path d="M1.102 0.808 Q1.292 0.828 1.373 0.740" stroke="hsl(180.0,100%,35%)" stroke-width="0.00087"></path>
<path d="M1.102 0.808 Q1.421 0.721 1.322 0.546" stroke="hsl(180.0,100%,35%)" stroke-width="0.00014"></path>
<path d="M1.796 0.775 Q1.774 0.836 1.887 0.860" stroke="hsl(180.0,100%,35%)" stroke-width="0.00043"></path>
<path d="M1.796 0.775 Q1.617 0.815 1.655 0.911" stroke="hsl(180.0,100%,35%)" stroke-width="0.00029"></path>
<path d="M1.796 0.775 Q2.094 0.456 1.536 0.240" stroke="hsl(180.0,100%,35%)" stroke-width="0.00029"></path>
<path d="M1.796 0.775 Q2.228 0.580 1.942 0.327" stroke="hsl(180.0,100%,35%)" stroke-width="0.00014"></path>
<path d="M1.796 0.775 Q1.404 0.215 0.225 0.283" stroke="hsl(180.0,100%,35%)" stroke-width="0.00014"></path>
<path d="M1.399 1.094 Q1.798 0.804 1.322 0.546" stroke="hsl(0.0,100%,35%)" stroke-width="0.00014"></path>
<path d="M1.399 1.094 Q2.374 0.749 1.917 0.198" stroke="hsl(0.0,100%,35%)" stroke-width="0.00014"></path>
<path d="M1.399 1.094 Q2.151 0.694 1.536 0.240" stroke="hsl(0.0,100%,35%)" stroke-width="0.00014"></path>
<path d="M1.221 0.836 Q1.442 0.852 1.521 0.748" stroke="hsl(180.0,100%,35%)" stroke-width="0.00014"></path>
<path d="M1.221 0.836 Q1.503 0.711 1.322 0.546" stroke="hsl(180.0,100%,35%)" stroke-width="0.00014"></path>
<path d="M1.221 0.836 Q1.378 0.960 1.655 0.911" stroke="hsl(180.0,100%,35%)" stroke-width="0.00014"></path>
<path d="M1.538 0.634 Q1.438 0.687 1.521 0.748" stroke="hsl(180.0,100%,35%)" stroke-width="0.00145"></path>
<path d="M1.538 0.634 Q1.375 0.796 1.655 0.911" stroke="hsl(180.0,100%,35%)" stroke-width="0.00087"></path>
<path d="M1.538 0.634 Q1.093 0.518 0.769 0.709" stroke="hsl(180.0,100%,35%)" stroke-width="0.00014"></path>
<path d="M1.538 0.634 Q1.512 0.445 1.138 0.416" stroke="hsl(180.0,100%,35%)" stroke-width="0.00014"></path>
<path d="M1.632 0.640 Q1.552 0.531 1.322 0.546" stroke="hsl(0.0,100%,35%)" stroke-width="0.00116"></path>
<path d="M1.632 0.640 Q1.347 0.490 0.993 0.596" stroke="hsl(0.0,100%,35%)" stroke-width="0.00014"></path>
<path d="M1.632 0.640 Q1.423 0.638 1.373 0.740" stroke="hsl(0.0,100%,35%)" stroke-width="0.00014"></path>
<path d="M1.705 0.060 Q1.700 0.172 1.917 0.198" stroke="hsl(0.0,100%,35%)" stroke-width="0.00145"></path>
<path d="M1.705 0.060 Q1.610 0.241 1.942 0.327" stroke="hsl(0.0,100%,35%)" stroke-width="0.00072"></path>
<path d="M1.705 0.060 Q1.477 0.116 1.536 0.240" stroke="hsl(0.0,100%,35%)" stroke-width="0.00014"></path>
<path d="M1.705 0.060 Q1.464 0.159 1.603 0.298" stroke="hsl(0.0,100%,35%)" stroke-width="0.00087"></path>
<path d="M0.695 0.198 Q0.730 0.497 1.322 0.546" stroke="hsl(180.0,100%,35%)" stroke-width="0.00072"></path>
<path d="M0.695 0.198 Q0.535 0.196 0.496 0.274" stroke="hsl(180.0,100%,35%)" stroke-width="0.00101"></path>
<path d="M0.695 0.198 Q0.604 0.746 1.655 0.911" stroke="hsl(180.0,100%,35%)" stroke-width="0.00014"></path>
<path d="M0.695 0.198 Q1.215 0.511 1.942 0.327" stroke="hsl(180.0,100%,35%)" stroke-width="0.00014"></path>
<path d="M1.553 0.128 Q1.588 0.305 1.942 0.327" stroke="hsl(0.0,100%,35%)" stroke-width="0.00014"></path>
<path d="M1.553 0.128 Q1.455 0.180 1.536 0.240" stroke="hsl(0.0,100%,35%)" stroke-width="0.00014"></path>
<path d="M1.553 0.128 Q1.115 0.189 1.138 0.416" stroke="hsl(0.0,100%,35%)" stroke-width="0.00014"></path>
<path d="M1.284 0.125 Q0.966 0.343 1.322 0.546" stroke="hsl(0.0,100%,35%)" stroke-width="0.00043"></path>
<path d="M1.284 0.125 Q1.542 0.288 1.917 0.198" stroke="hsl(0.0,100%,35%)" stroke-width="0.00101"></path>
<path d="M1.284 0.125 Q1.451 0.357 1.942 0.327" stroke="hsl(0.0,100%,35%)" stroke-width="0.00174"></path>
<path d="M1.284 0.125 Q1.318 0.233 1.536 0.240" stroke="hsl(0.0,100%,35%)" stroke-width="0.00087"></path>
<path d="M1.284 0.125 Q0.727 0.205 0.762 0.494" stroke="hsl(0.0,100%,35%)" stroke-width="0.00014"></path>
<path d="M1.822 0.629 Q1.650 0.386 1.138 0.416" stroke="hsl(0.0,100%,35%)" stroke-width="0.00014"></path>
<path d="M1.822 0.629 Q1.638 0.488 1.322 0.546" stroke="hsl(0.0,100%,35%)" stroke-width="0.00043"></path>
<path d="M1.822 0.629 Q1.796 0.576 1.687 0.577" stroke="hsl(0.0,100%,35%)" stroke-width="0.00087"></path>
<path d="M1.707 0.331 Q1.342 0.362 1.322 0.546" stroke="hsl(0.0,100%,35%)" stroke-width="0.00043"></path>
<path d="M1.707 0.331 Q1.694 0.251 1.536 0.240" stroke="hsl(0.0,100%,35%)" stroke-width="0.00058"></path>
<path d="M1.707 0.331 Q1.918 0.307 1.917 0.198" stroke="hsl(0.0,100%,35%)" stroke-width="0.00101"></path>
<path d="M1.707 0.331 Q1.501 0.450 1.687 0.577" stroke="hsl(0.0,100%,35%)" stroke-width="0.00014"></path>
<path d="M1.707 0.331 Q1.217 0.611 1.655 0.911" stroke="hsl(0.0,100%,35%)" stroke-width="0.00043"></path>
<path d="M1.707 0.331 Q1.828 0.376 1.942 0.327" stroke="hsl(0.0,100%,35%)" stroke-width="0.00072"></path>
<path d="M1.707 0.331 Q1.681 0.294 1.603 0.298" stroke="hsl(0.0,100%,35%)" stroke-width="0.00014"></path>
<path d="M1.707 0.331 Q0.935 0.333 0.769 0.709" stroke="hsl(0.0,100%,35%)" stroke-width="0.00014"></path>
<path d="M1.707 0.331 Q1.374 0.632 1.887 0.860" stroke="hsl(0.0,100%,35%)" stroke-width="0.00014"></path>
</g>
<text x="0.762" y="0.474" font-size="0.040743" fill="hsl(0.0,100%,20%)">armansito</text>
<text x="1.917" y="0.172" font-size="0.052542" fill="hsl(0.0,100%,20%)">michaelludwig</text>
<text x="1.138" y="0.376" font-size="0.080379" fill="hsl(0.0,100%,20%)">johnstiles</text>
<text x="1.536" y="0.215" font-size="0.050589" fill="hsl(0.0,100%,20%)">jvanverth</text>
<text x="1.322" y="0.508" font-size="0.076296" fill="hsl(0.0,100%,20%)">brianosman</text>
<text x="1.655" y="0.879" font-size="0.065299" fill="hsl(180.0,100%,20%)">kjlubick</text>
<text x="1.670" y="0.749" font-size="0.017571" fill="hsl(180.0,100%,20%)">lovisolo</text>
<text x="1.942" y="0.307" font-size="0.039798" fill="hsl(0.0,100%,20%)">egdaniel</text>
<text x="1.687" y="0.551" font-size="0.051030" fill="hsl(0.0,100%,20%)">herb</text>
<text x="1.603" y="0.284" font-size="0.028926" fill="hsl(0.0,100%,20%)">nicolettep</text>
<text x="1.887" y="0.840" font-size="0.039854" fill="hsl(180.0,100%,20%)">bungeman</text>
<text x="0.769" y="0.695" font-size="0.028379" fill="hsl(0.0,100%,20%)">bsalomon</text>
<text x="1.714" y="0.101" font-size="0.025733" fill="hsl(0.0,100%,20%)">jamesgk</text>
<text x="1.922" y="0.711" font-size="0.017697" fill="hsl(180.0,100%,20%)">borenet</text>
<text x="1.241" y="0.688" font-size="0.018681" fill="hsl(180.0,100%,20%)">jcgregorio</text>
<text x="1.652" y="0.662" font-size="0.016922" fill="hsl(180.0,100%,20%)">rmistry</text>
<text x="1.521" y="0.738" font-size="0.019154" fill="hsl(180.0,100%,20%)">jlavrova</text>
<text x="1.927" y="0.461" font-size="0.055643" fill="hsl(0.0,100%,20%)">robertphillips</text>
<text x="0.730" y="0.297" font-size="0.019955" fill="hsl(180.0,100%,20%)">jmbetancourt</text>
<text x="0.496" y="0.260" font-size="0.027982" fill="hsl(180.0,100%,20%)">fmalita</text>
<text x="1.260" y="1.319" font-size="0.011391" fill="hsl(180.0,100%,20%)">nscobie</text>
<text x="0.993" y="0.593" font-size="0.006346" fill="hsl(0.0,100%,20%)">jreck</text>
<text x="1.373" y="0.731" font-size="0.018440" fill="hsl(180.0,100%,20%)">scroggo</text>
<text x="1.438" y="0.613" font-size="0.016385" fill="hsl(0.0,100%,20%)">ccameron</text>
<text x="1.367" y="0.912" font-size="0.016789" fill="hsl(180.0,100%,20%)">drott</text>
<text x="1.865" y="0.684" font-size="0.022585" fill="hsl(180.0,100%,20%)">cmumford</text>
<text x="0.225" y="0.280" font-size="0.007627" fill="hsl(180.0,100%,20%)">hcm</text>
<text x="0.280" y="0.406" font-size="0.008974" fill="hsl(180.0,100%,20%)">sharaks</text>
<text x="1.102" y="0.804" font-size="0.008974" fill="hsl(180.0,100%,20%)">djsollen</text>
<text x="1.796" y="0.772" font-size="0.006689" fill="hsl(180.0,100%,20%)">erikrose</text>
<text x="1.399" y="1.092" font-size="0.003664" fill="hsl(0.0,100%,20%)">hitawala</text>
<text x="1.221" y="0.834" font-size="0.003664" fill="hsl(180.0,100%,20%)">jacksongardner</text>
<text x="1.322" y="0.769" font-size="0.004730" fill="hsl(180.0,100%,20%)">tdenniston</text>
<text x="1.222" y="0.956" font-size="0.004230" fill="hsl(180.0,100%,20%)">wrightgeorge</text>
<text x="1.538" y="0.629" font-size="0.008974" fill="hsl(180.0,100%,20%)">jsimmons</text>
<text x="1.632" y="0.637" font-size="0.006689" fill="hsl(0.0,100%,20%)">kyslov</text>
<text x="1.705" y="0.055" font-size="0.009921" fill="hsl(0.0,100%,20%)">lehoangquyen</text>
<text x="0.695" y="0.194" font-size="0.007915" fill="hsl(180.0,100%,20%)">mike</text>
<text x="1.553" y="0.126" font-size="0.003664" fill="hsl(0.0,100%,20%)">nathbappai</text>
<text x="1.284" y="0.119" font-size="0.011391" fill="hsl(0.0,100%,20%)">penghuang</text>
<text x="1.822" y="0.625" font-size="0.006689" fill="hsl(0.0,100%,20%)">sky</text>
<text x="1.707" y="0.326" font-size="0.010786" fill="hsl(0.0,100%,20%)">sunnyps</text>
</svg>
