<svg width="4000" height="2000" viewBox="-0.025 -0.025 2.05 1.05" xmlns="http://www.w3.org/2000/svg">
  <style>
    path {
      fill: none;
      stroke-linecap: round;
      stroke-opacity: 0.4;
    }

    text {
      text-anchor: middle;
      alignment-baseline: hanging;
    }
  </style>
  <g opacity="0.4">
<path d="M0.413 0.188 Q0.256 0.169 0.185 0.242" stroke="hsl(0.0,100%,35%)" stroke-width="0.00646"></path>
<path d="M0.413 0.188 Q0.296 0.244 0.382 0.314" stroke="hsl(0.0,100%,35%)" stroke-width="0.00315"></path>
<path d="M0.413 0.188 Q-0.134 0.586 0.523 0.939" stroke="hsl(0.0,100%,35%)" stroke-width="0.00195"></path>
<path d="M0.413 0.188 Q0.378 0.800 1.567 0.951" stroke="hsl(0.0,100%,35%)" stroke-width="0.00060"></path>
<path d="M0.413 0.188 Q0.894 0.443 1.498 0.263" stroke="hsl(0.0,100%,35%)" stroke-width="0.00015"></path>
<path d="M0.413 0.188 Q0.216 0.333 0.456 0.461" stroke="hsl(0.0,100%,35%)" stroke-width="0.00150"></path>
<path d="M0.413 0.188 Q-0.144 0.468 0.282 0.801" stroke="hsl(0.0,100%,35%)" stroke-width="0.00075"></path>
<path d="M0.413 0.188 Q0.948 0.622 1.913 0.456" stroke="hsl(0.0,100%,35%)" stroke-width="0.00015"></path>
<path d="M0.413 0.188 Q0.479 0.737 1.565 0.825" stroke="hsl(0.0,100%,35%)" stroke-width="0.00165"></path>
<path d="M0.413 0.188 Q0.456 0.545 1.163 0.603" stroke="hsl(0.0,100%,35%)" stroke-width="0.00015"></path>
<path d="M0.413 0.188 Q-0.104 0.370 0.139 0.662" stroke="hsl(0.0,100%,35%)" stroke-width="0.00015"></path>
<path d="M0.413 0.188 Q0.026 0.285 0.131 0.494" stroke="hsl(0.0,100%,35%)" stroke-width="0.00015"></path>
<path d="M0.413 0.188 Q0.582 0.534 1.296 0.528" stroke="hsl(0.0,100%,35%)" stroke-width="0.00015"></path>
<path d="M0.185 0.242 Q0.342 0.260 0.413 0.188" stroke="hsl(0.0,100%,35%)" stroke-width="0.01502"></path>
<path d="M0.185 0.242 Q-0.025 0.664 0.753 0.859" stroke="hsl(0.0,100%,35%)" stroke-width="0.00090"></path>
<path d="M0.185 0.242 Q0.226 0.317 0.382 0.314" stroke="hsl(0.0,100%,35%)" stroke-width="0.08198"></path>
<path d="M0.185 0.242 Q0.642 0.760 1.753 0.650" stroke="hsl(0.0,100%,35%)" stroke-width="0.00270"></path>
<path d="M0.185 0.242 Q0.409 0.809 1.565 0.825" stroke="hsl(0.0,100%,35%)" stroke-width="0.00450"></path>
<path d="M0.185 0.242 Q-0.214 0.541 0.282 0.801" stroke="hsl(0.0,100%,35%)" stroke-width="0.00285"></path>
<path d="M0.185 0.242 Q0.308 0.873 1.567 0.951" stroke="hsl(0.0,100%,35%)" stroke-width="0.00360"></path>
<path d="M0.185 0.242 Q0.701 0.660 1.631 0.500" stroke="hsl(0.0,100%,35%)" stroke-width="0.00901"></path>
<path d="M0.185 0.242 Q0.145 0.405 0.456 0.461" stroke="hsl(0.0,100%,35%)" stroke-width="0.00150"></path>
<path d="M0.185 0.242 Q0.497 0.865 1.782 0.850" stroke="hsl(0.0,100%,35%)" stroke-width="0.00015"></path>
<path d="M0.185 0.242 Q0.367 0.712 1.325 0.726" stroke="hsl(0.0,100%,35%)" stroke-width="0.00030"></path>
<path d="M0.185 0.242 Q0.516 0.439 0.975 0.322" stroke="hsl(0.0,100%,35%)" stroke-width="0.00030"></path>
<path d="M0.185 0.242 Q-0.204 0.658 0.523 0.939" stroke="hsl(0.0,100%,35%)" stroke-width="0.00270"></path>
<path d="M0.185 0.242 Q0.268 0.767 1.311 0.842" stroke="hsl(0.0,100%,35%)" stroke-width="0.00105"></path>
<path d="M0.185 0.242 Q0.824 0.515 1.498 0.263" stroke="hsl(0.0,100%,35%)" stroke-width="0.00526"></path>
<path d="M0.185 0.242 Q-0.175 0.443 0.139 0.662" stroke="hsl(0.0,100%,35%)" stroke-width="0.00060"></path>
<path d="M0.185 0.242 Q0.877 0.694 1.913 0.456" stroke="hsl(0.0,100%,35%)" stroke-width="0.00075"></path>
<path d="M0.185 0.242 Q0.630 0.349 0.938 0.156" stroke="hsl(0.0,100%,35%)" stroke-width="0.00060"></path>
<path d="M0.185 0.242 Q-0.044 0.357 0.131 0.494" stroke="hsl(0.0,100%,35%)" stroke-width="0.00856"></path>
<path d="M0.185 0.242 Q0.512 0.607 1.296 0.528" stroke="hsl(0.0,100%,35%)" stroke-width="0.00075"></path>
<path d="M0.185 0.242 Q0.459 0.518 1.058 0.445" stroke="hsl(0.0,100%,35%)" stroke-width="0.00150"></path>
<path d="M0.185 0.242 Q0.642 0.510 1.266 0.346" stroke="hsl(0.0,100%,35%)" stroke-width="0.00030"></path>
<path d="M0.185 0.242 Q0.244 0.546 0.851 0.584" stroke="hsl(0.0,100%,35%)" stroke-width="0.00015"></path>
<path d="M0.185 0.242 Q0.002 0.737 0.928 0.936" stroke="hsl(0.0,100%,35%)" stroke-width="0.00015"></path>
<path d="M0.382 0.314 Q0.980 0.512 1.498 0.263" stroke="hsl(0.0,100%,35%)" stroke-width="0.00511"></path>
<path d="M0.382 0.314 Q0.341 0.238 0.185 0.242" stroke="hsl(0.0,100%,35%)" stroke-width="0.01006"></path>
<path d="M0.382 0.314 Q-0.048 0.655 0.523 0.939" stroke="hsl(0.0,100%,35%)" stroke-width="0.00165"></path>
<path d="M0.382 0.314 Q0.301 0.402 0.456 0.461" stroke="hsl(0.0,100%,35%)" stroke-width="0.00360"></path>
<path d="M0.382 0.314 Q0.464 0.870 1.567 0.951" stroke="hsl(0.0,100%,35%)" stroke-width="0.00225"></path>
<path d="M0.382 0.314 Q0.798 0.756 1.753 0.650" stroke="hsl(0.0,100%,35%)" stroke-width="0.00541"></path>
<path d="M0.382 0.314 Q-0.058 0.538 0.282 0.801" stroke="hsl(0.0,100%,35%)" stroke-width="0.00090"></path>
<path d="M0.382 0.314 Q0.565 0.806 1.565 0.825" stroke="hsl(0.0,100%,35%)" stroke-width="0.00240"></path>
<path d="M0.382 0.314 Q0.786 0.346 0.938 0.156" stroke="hsl(0.0,100%,35%)" stroke-width="0.00015"></path>
<path d="M0.382 0.314 Q0.857 0.657 1.631 0.500" stroke="hsl(0.0,100%,35%)" stroke-width="0.00120"></path>
<path d="M0.382 0.314 Q-0.019 0.439 0.139 0.662" stroke="hsl(0.0,100%,35%)" stroke-width="0.00030"></path>
<path d="M0.382 0.314 Q0.615 0.514 1.058 0.445" stroke="hsl(0.0,100%,35%)" stroke-width="0.00045"></path>
<path d="M0.382 0.314 Q0.498 0.257 0.413 0.188" stroke="hsl(0.0,100%,35%)" stroke-width="0.00075"></path>
<path d="M0.382 0.314 Q0.307 0.762 1.165 0.896" stroke="hsl(0.0,100%,35%)" stroke-width="0.00075"></path>
<path d="M0.382 0.314 Q0.672 0.436 0.975 0.322" stroke="hsl(0.0,100%,35%)" stroke-width="0.00015"></path>
<path d="M0.382 0.314 Q0.112 0.354 0.131 0.494" stroke="hsl(0.0,100%,35%)" stroke-width="0.00015"></path>
<path d="M0.382 0.314 Q0.655 0.703 1.475 0.656" stroke="hsl(0.0,100%,35%)" stroke-width="0.00015"></path>
<path d="M0.382 0.314 Q0.424 0.763 1.311 0.842" stroke="hsl(0.0,100%,35%)" stroke-width="0.00030"></path>
<path d="M0.382 0.314 Q0.400 0.543 0.851 0.584" stroke="hsl(0.0,100%,35%)" stroke-width="0.00030"></path>
<path d="M0.382 0.314 Q0.668 0.604 1.296 0.528" stroke="hsl(0.0,100%,35%)" stroke-width="0.00015"></path>
<path d="M0.523 0.939 Q1.428 0.941 1.631 0.500" stroke="hsl(120.0,100%,35%)" stroke-width="0.00496"></path>
<path d="M0.523 0.939 Q0.513 0.822 0.282 0.801" stroke="hsl(120.0,100%,35%)" stroke-width="0.00616"></path>
<path d="M0.523 0.939 Q0.702 0.945 0.753 0.859" stroke="hsl(120.0,100%,35%)" stroke-width="0.00270"></path>
<path d="M0.523 0.939 Q1.605 0.976 1.913 0.456" stroke="hsl(120.0,100%,35%)" stroke-width="0.00045"></path>
<path d="M0.523 0.939 Q0.872 0.687 0.456 0.461" stroke="hsl(120.0,100%,35%)" stroke-width="0.00255"></path>
<path d="M0.523 0.939 Q0.953 0.598 0.382 0.314" stroke="hsl(120.0,100%,35%)" stroke-width="0.00060"></path>
<path d="M0.523 0.939 Q1.551 0.796 1.498 0.263" stroke="hsl(120.0,100%,35%)" stroke-width="0.00465"></path>
<path d="M0.523 0.939 Q1.369 1.041 1.753 0.650" stroke="hsl(120.0,100%,35%)" stroke-width="0.00015"></path>
<path d="M0.523 0.939 Q0.912 0.523 0.185 0.242" stroke="hsl(120.0,100%,35%)" stroke-width="0.00015"></path>
<path d="M0.523 0.939 Q0.879 1.046 1.165 0.896" stroke="hsl(120.0,100%,35%)" stroke-width="0.00015"></path>
<path d="M0.523 0.939 Q1.136 1.090 1.565 0.825" stroke="hsl(120.0,100%,35%)" stroke-width="0.00075"></path>
<path d="M0.523 0.939 Q0.995 1.048 1.311 0.842" stroke="hsl(120.0,100%,35%)" stroke-width="0.00030"></path>
<path d="M0.523 0.939 Q1.239 0.888 1.296 0.528" stroke="hsl(120.0,100%,35%)" stroke-width="0.00015"></path>
<path d="M0.523 0.939 Q1.112 0.899 1.163 0.603" stroke="hsl(120.0,100%,35%)" stroke-width="0.00015"></path>
<path d="M0.523 0.939 Q1.186 0.799 1.058 0.445" stroke="hsl(120.0,100%,35%)" stroke-width="0.00015"></path>
<path d="M0.523 0.939 Q1.369 0.791 1.266 0.346" stroke="hsl(120.0,100%,35%)" stroke-width="0.00015"></path>
<path d="M1.567 0.951 Q1.901 0.838 1.753 0.650" stroke="hsl(240.0,100%,35%)" stroke-width="0.01171"></path>
<path d="M1.567 0.951 Q1.667 0.888 1.565 0.825" stroke="hsl(240.0,100%,35%)" stroke-width="0.00210"></path>
<path d="M1.567 0.951 Q1.644 0.696 1.163 0.603" stroke="hsl(240.0,100%,35%)" stroke-width="0.00030"></path>
<path d="M1.567 0.951 Q1.484 0.396 0.382 0.314" stroke="hsl(240.0,100%,35%)" stroke-width="0.00225"></path>
<path d="M1.567 0.951 Q1.054 0.737 0.523 0.939" stroke="hsl(240.0,100%,35%)" stroke-width="0.00045"></path>
<path d="M1.567 0.951 Q1.960 0.739 1.631 0.500" stroke="hsl(240.0,100%,35%)" stroke-width="0.00045"></path>
<path d="M1.567 0.951 Q1.889 0.428 0.938 0.156" stroke="hsl(240.0,100%,35%)" stroke-width="0.00135"></path>
<path d="M1.567 0.951 Q2.082 0.594 1.498 0.263" stroke="hsl(240.0,100%,35%)" stroke-width="0.00015"></path>
<path d="M1.567 0.951 Q1.770 0.686 1.296 0.528" stroke="hsl(240.0,100%,35%)" stroke-width="0.00105"></path>
<path d="M1.567 0.951 Q1.444 0.320 0.185 0.242" stroke="hsl(240.0,100%,35%)" stroke-width="0.00030"></path>
<path d="M1.567 0.951 Q1.527 0.845 1.311 0.842" stroke="hsl(240.0,100%,35%)" stroke-width="0.00015"></path>
<path d="M1.567 0.951 Q1.044 0.620 0.282 0.801" stroke="hsl(240.0,100%,35%)" stroke-width="0.00015"></path>
<path d="M1.567 0.951 Q1.402 0.923 1.311 0.998" stroke="hsl(240.0,100%,35%)" stroke-width="0.00030"></path>
<path d="M1.567 0.951 Q1.718 0.596 1.058 0.445" stroke="hsl(240.0,100%,35%)" stroke-width="0.00015"></path>
<path d="M1.498 0.263 Q0.470 0.406 0.523 0.939" stroke="hsl(120.0,100%,35%)" stroke-width="0.00586"></path>
<path d="M1.498 0.263 Q0.459 0.289 0.282 0.801" stroke="hsl(120.0,100%,35%)" stroke-width="0.00766"></path>
<path d="M1.498 0.263 Q0.649 0.412 0.753 0.859" stroke="hsl(120.0,100%,35%)" stroke-width="0.00135"></path>
<path d="M1.498 0.263 Q0.899 0.065 0.382 0.314" stroke="hsl(120.0,100%,35%)" stroke-width="0.00465"></path>
<path d="M1.498 0.263 Q1.375 0.409 1.631 0.500" stroke="hsl(120.0,100%,35%)" stroke-width="0.01036"></path>
<path d="M1.498 0.263 Q1.082 0.558 1.565 0.825" stroke="hsl(120.0,100%,35%)" stroke-width="0.00180"></path>
<path d="M1.498 0.263 Q0.819 0.154 0.456 0.461" stroke="hsl(120.0,100%,35%)" stroke-width="0.00195"></path>
<path d="M1.498 0.263 Q1.551 0.443 1.913 0.456" stroke="hsl(120.0,100%,35%)" stroke-width="0.00075"></path>
<path d="M1.498 0.263 Q0.859 -0.010 0.185 0.242" stroke="hsl(120.0,100%,35%)" stroke-width="0.00105"></path>
<path d="M1.498 0.263 Q1.304 0.098 0.938 0.156" stroke="hsl(120.0,100%,35%)" stroke-width="0.00015"></path>
<path d="M1.498 0.263 Q1.133 0.266 1.058 0.445" stroke="hsl(120.0,100%,35%)" stroke-width="0.00015"></path>
<path d="M1.498 0.263 Q1.316 0.508 1.753 0.650" stroke="hsl(120.0,100%,35%)" stroke-width="0.00060"></path>
<path d="M1.498 0.263 Q1.059 0.366 1.163 0.603" stroke="hsl(120.0,100%,35%)" stroke-width="0.00015"></path>
<path d="M1.498 0.263 Q1.190 0.188 0.975 0.322" stroke="hsl(120.0,100%,35%)" stroke-width="0.00015"></path>
<path d="M1.498 0.263 Q0.982 0.621 1.567 0.951" stroke="hsl(120.0,100%,35%)" stroke-width="0.00030"></path>
<path d="M1.498 0.263 Q1.315 0.259 1.266 0.346" stroke="hsl(120.0,100%,35%)" stroke-width="0.00135"></path>
<path d="M0.456 0.461 Q0.537 0.372 0.382 0.314" stroke="hsl(120.0,100%,35%)" stroke-width="0.00691"></path>
<path d="M0.456 0.461 Q0.941 0.405 0.938 0.156" stroke="hsl(120.0,100%,35%)" stroke-width="0.00165"></path>
<path d="M0.456 0.461 Q0.953 0.815 1.753 0.650" stroke="hsl(120.0,100%,35%)" stroke-width="0.00150"></path>
<path d="M0.456 0.461 Q1.012 0.716 1.631 0.500" stroke="hsl(120.0,100%,35%)" stroke-width="0.00390"></path>
<path d="M0.456 0.461 Q1.135 0.570 1.498 0.263" stroke="hsl(120.0,100%,35%)" stroke-width="0.00240"></path>
<path d="M0.456 0.461 Q0.770 0.573 1.058 0.445" stroke="hsl(120.0,100%,35%)" stroke-width="0.00045"></path>
<path d="M0.456 0.461 Q0.107 0.714 0.523 0.939" stroke="hsl(120.0,100%,35%)" stroke-width="0.00586"></path>
<path d="M0.456 0.461 Q0.496 0.297 0.185 0.242" stroke="hsl(120.0,100%,35%)" stroke-width="0.00060"></path>
<path d="M0.456 0.461 Q0.097 0.596 0.282 0.801" stroke="hsl(120.0,100%,35%)" stroke-width="0.00150"></path>
<path d="M0.456 0.461 Q0.720 0.865 1.565 0.825" stroke="hsl(120.0,100%,35%)" stroke-width="0.00030"></path>
<path d="M0.456 0.461 Q0.653 0.316 0.413 0.188" stroke="hsl(120.0,100%,35%)" stroke-width="0.00030"></path>
<path d="M0.456 0.461 Q0.619 0.928 1.567 0.951" stroke="hsl(120.0,100%,35%)" stroke-width="0.00015"></path>
<path d="M0.456 0.461 Q0.463 0.820 1.165 0.896" stroke="hsl(120.0,100%,35%)" stroke-width="0.00015"></path>
<path d="M0.282 0.801 Q1.197 0.921 1.631 0.500" stroke="hsl(120.0,100%,35%)" stroke-width="0.00465"></path>
<path d="M0.282 0.801 Q1.320 0.775 1.498 0.263" stroke="hsl(120.0,100%,35%)" stroke-width="0.00706"></path>
<path d="M0.282 0.801 Q1.138 1.020 1.753 0.650" stroke="hsl(120.0,100%,35%)" stroke-width="0.00435"></path>
<path d="M0.282 0.801 Q0.292 0.919 0.523 0.939" stroke="hsl(120.0,100%,35%)" stroke-width="0.00961"></path>
<path d="M0.282 0.801 Q0.905 1.070 1.565 0.825" stroke="hsl(120.0,100%,35%)" stroke-width="0.00120"></path>
<path d="M0.282 0.801 Q1.374 0.955 1.913 0.456" stroke="hsl(120.0,100%,35%)" stroke-width="0.00015"></path>
<path d="M0.282 0.801 Q0.722 0.577 0.382 0.314" stroke="hsl(120.0,100%,35%)" stroke-width="0.00120"></path>
<path d="M0.282 0.801 Q0.882 0.878 1.163 0.603" stroke="hsl(120.0,100%,35%)" stroke-width="0.00015"></path>
<path d="M0.282 0.801 Q0.682 0.502 0.185 0.242" stroke="hsl(120.0,100%,35%)" stroke-width="0.00105"></path>
<path d="M0.282 0.801 Q0.838 0.521 0.413 0.188" stroke="hsl(120.0,100%,35%)" stroke-width="0.00030"></path>
<path d="M0.282 0.801 Q0.471 0.924 0.753 0.859" stroke="hsl(120.0,100%,35%)" stroke-width="0.00015"></path>
<path d="M0.282 0.801 Q0.641 0.666 0.456 0.461" stroke="hsl(120.0,100%,35%)" stroke-width="0.00195"></path>
<path d="M0.282 0.801 Q1.008 0.867 1.296 0.528" stroke="hsl(120.0,100%,35%)" stroke-width="0.00015"></path>
<path d="M0.282 0.801 Q0.804 1.133 1.567 0.951" stroke="hsl(120.0,100%,35%)" stroke-width="0.00030"></path>
<path d="M0.282 0.801 Q0.498 0.998 0.928 0.936" stroke="hsl(120.0,100%,35%)" stroke-width="0.00030"></path>
<path d="M1.913 0.456 Q0.832 0.420 0.523 0.939" stroke="hsl(120.0,100%,35%)" stroke-width="0.00150"></path>
<path d="M1.913 0.456 Q1.860 0.277 1.498 0.263" stroke="hsl(120.0,100%,35%)" stroke-width="0.00105"></path>
<path d="M1.913 0.456 Q1.737 0.422 1.631 0.500" stroke="hsl(120.0,100%,35%)" stroke-width="0.00210"></path>
<path d="M1.913 0.456 Q1.304 0.528 1.311 0.842" stroke="hsl(120.0,100%,35%)" stroke-width="0.00015"></path>
<path d="M1.913 0.456 Q0.822 0.303 0.282 0.801" stroke="hsl(120.0,100%,35%)" stroke-width="0.00060"></path>
<path d="M1.913 0.456 Q1.221 0.003 0.185 0.242" stroke="hsl(120.0,100%,35%)" stroke-width="0.00075"></path>
<path d="M1.913 0.456 Q1.445 0.571 1.565 0.825" stroke="hsl(120.0,100%,35%)" stroke-width="0.00045"></path>
<path d="M1.565 0.825 Q1.980 0.530 1.498 0.263" stroke="hsl(240.0,100%,35%)" stroke-width="0.00420"></path>
<path d="M1.565 0.825 Q1.382 0.332 0.382 0.314" stroke="hsl(240.0,100%,35%)" stroke-width="0.01126"></path>
<path d="M1.565 0.825 Q0.952 0.673 0.523 0.939" stroke="hsl(240.0,100%,35%)" stroke-width="0.00240"></path>
<path d="M1.565 0.825 Q1.858 0.676 1.631 0.500" stroke="hsl(240.0,100%,35%)" stroke-width="0.00210"></path>
<path d="M1.565 0.825 Q1.693 0.886 1.841 0.838" stroke="hsl(240.0,100%,35%)" stroke-width="0.00135"></path>
<path d="M1.565 0.825 Q1.616 0.533 1.058 0.445" stroke="hsl(240.0,100%,35%)" stroke-width="0.00210"></path>
<path d="M1.565 0.825 Q1.799 0.775 1.753 0.650" stroke="hsl(240.0,100%,35%)" stroke-width="0.00315"></path>
<path d="M1.565 0.825 Q1.668 0.622 1.296 0.528" stroke="hsl(240.0,100%,35%)" stroke-width="0.00060"></path>
<path d="M1.565 0.825 Q1.465 0.888 1.567 0.951" stroke="hsl(240.0,100%,35%)" stroke-width="0.01652"></path>
<path d="M1.565 0.825 Q1.342 0.257 0.185 0.242" stroke="hsl(240.0,100%,35%)" stroke-width="0.00616"></path>
<path d="M1.565 0.825 Q1.542 0.633 1.163 0.603" stroke="hsl(240.0,100%,35%)" stroke-width="0.00631"></path>
<path d="M1.565 0.825 Q1.787 0.365 0.938 0.156" stroke="hsl(240.0,100%,35%)" stroke-width="0.00195"></path>
<path d="M1.565 0.825 Q1.308 0.780 1.165 0.896" stroke="hsl(240.0,100%,35%)" stroke-width="0.00450"></path>
<path d="M1.565 0.825 Q1.499 0.276 0.413 0.188" stroke="hsl(240.0,100%,35%)" stroke-width="0.00090"></path>
<path d="M1.565 0.825 Q1.302 0.421 0.456 0.461" stroke="hsl(240.0,100%,35%)" stroke-width="0.00315"></path>
<path d="M1.565 0.825 Q1.370 0.669 1.023 0.730" stroke="hsl(240.0,100%,35%)" stroke-width="0.00390"></path>
<path d="M1.565 0.825 Q1.653 0.881 1.782 0.850" stroke="hsl(240.0,100%,35%)" stroke-width="0.00045"></path>
<path d="M1.565 0.825 Q1.425 0.782 1.311 0.842" stroke="hsl(240.0,100%,35%)" stroke-width="0.00556"></path>
<path d="M1.565 0.825 Q1.524 0.728 1.325 0.726" stroke="hsl(240.0,100%,35%)" stroke-width="0.00045"></path>
<path d="M1.565 0.825 Q0.942 0.556 0.282 0.801" stroke="hsl(240.0,100%,35%)" stroke-width="0.00060"></path>
<path d="M1.565 0.825 Q1.673 0.455 0.975 0.322" stroke="hsl(240.0,100%,35%)" stroke-width="0.00390"></path>
<path d="M1.565 0.825 Q0.982 0.458 0.139 0.662" stroke="hsl(240.0,100%,35%)" stroke-width="0.00090"></path>
<path d="M1.565 0.825 Q1.158 0.753 0.928 0.936" stroke="hsl(240.0,100%,35%)" stroke-width="0.00060"></path>
<path d="M1.565 0.825 Q1.132 0.679 0.753 0.859" stroke="hsl(240.0,100%,35%)" stroke-width="0.00015"></path>
<path d="M1.565 0.825 Q1.400 0.562 0.851 0.584" stroke="hsl(240.0,100%,35%)" stroke-width="0.00045"></path>
<path d="M1.565 0.825 Q1.656 0.722 1.475 0.656" stroke="hsl(240.0,100%,35%)" stroke-width="0.00165"></path>
<path d="M1.565 0.825 Q1.277 0.709 0.987 0.824" stroke="hsl(240.0,100%,35%)" stroke-width="0.00015"></path>
<path d="M1.163 0.603 Q1.187 0.794 1.565 0.825" stroke="hsl(240.0,100%,35%)" stroke-width="0.00090"></path>
<path d="M1.163 0.603 Q0.930 0.750 1.165 0.896" stroke="hsl(240.0,100%,35%)" stroke-width="0.00060"></path>
<path d="M1.163 0.603 Q1.420 0.745 1.753 0.650" stroke="hsl(240.0,100%,35%)" stroke-width="0.00015"></path>
<path d="M1.163 0.603 Q1.046 0.752 1.311 0.842" stroke="hsl(240.0,100%,35%)" stroke-width="0.00090"></path>
<path d="M1.163 0.603 Q0.923 0.390 0.456 0.461" stroke="hsl(240.0,100%,35%)" stroke-width="0.00015"></path>
<path d="M1.163 0.603 Q1.479 0.645 1.631 0.500" stroke="hsl(240.0,100%,35%)" stroke-width="0.00015"></path>
<path d="M1.163 0.603 Q1.602 0.500 1.498 0.263" stroke="hsl(240.0,100%,35%)" stroke-width="0.00015"></path>
<path d="M1.163 0.603 Q0.991 0.638 1.023 0.730" stroke="hsl(240.0,100%,35%)" stroke-width="0.00015"></path>
<path d="M1.163 0.603 Q1.004 0.302 0.382 0.314" stroke="hsl(240.0,100%,35%)" stroke-width="0.00015"></path>
<path d="M0.139 0.662 Q0.621 1.092 1.567 0.951" stroke="hsl(240.0,100%,35%)" stroke-width="0.00405"></path>
<path d="M0.139 0.662 Q0.722 1.029 1.565 0.825" stroke="hsl(240.0,100%,35%)" stroke-width="0.00045"></path>
<path d="M0.139 0.662 Q0.539 0.536 0.382 0.314" stroke="hsl(240.0,100%,35%)" stroke-width="0.00075"></path>
<path d="M0.139 0.662 Q1.014 0.880 1.631 0.500" stroke="hsl(240.0,100%,35%)" stroke-width="0.00030"></path>
<path d="M0.139 0.662 Q0.099 0.760 0.282 0.801" stroke="hsl(240.0,100%,35%)" stroke-width="0.00015"></path>
<path d="M0.139 0.662 Q0.955 0.979 1.753 0.650" stroke="hsl(240.0,100%,35%)" stroke-width="0.00045"></path>
<path d="M0.139 0.662 Q0.825 0.826 1.296 0.528" stroke="hsl(240.0,100%,35%)" stroke-width="0.00015"></path>
<path d="M0.139 0.662 Q0.499 0.461 0.185 0.242" stroke="hsl(240.0,100%,35%)" stroke-width="0.00105"></path>
<path d="M0.131 0.494 Q0.360 0.379 0.185 0.242" stroke="hsl(0.0,100%,35%)" stroke-width="0.00826"></path>
<path d="M0.131 0.494 Q0.517 0.397 0.413 0.188" stroke="hsl(0.0,100%,35%)" stroke-width="0.00030"></path>
<path d="M0.131 0.494 Q0.401 0.454 0.382 0.314" stroke="hsl(0.0,100%,35%)" stroke-width="0.00496"></path>
<path d="M0.131 0.494 Q0.320 0.543 0.456 0.461" stroke="hsl(0.0,100%,35%)" stroke-width="0.00030"></path>
<path d="M1.296 0.528 Q0.580 0.579 0.523 0.939" stroke="hsl(240.0,100%,35%)" stroke-width="0.00015"></path>
<path d="M1.296 0.528 Q1.244 0.439 1.058 0.445" stroke="hsl(240.0,100%,35%)" stroke-width="0.00165"></path>
<path d="M1.296 0.528 Q1.010 0.238 0.382 0.314" stroke="hsl(240.0,100%,35%)" stroke-width="0.00015"></path>
<path d="M1.296 0.528 Q0.970 0.162 0.185 0.242" stroke="hsl(240.0,100%,35%)" stroke-width="0.00015"></path>
<path d="M1.296 0.528 Q1.283 0.627 1.475 0.656" stroke="hsl(240.0,100%,35%)" stroke-width="0.00045"></path>
<path d="M1.165 0.896 Q1.281 0.898 1.311 0.842" stroke="hsl(240.0,100%,35%)" stroke-width="0.00090"></path>
<path d="M1.165 0.896 Q1.422 0.940 1.565 0.825" stroke="hsl(240.0,100%,35%)" stroke-width="0.00060"></path>
<path d="M1.165 0.896 Q1.399 0.749 1.163 0.603" stroke="hsl(240.0,100%,35%)" stroke-width="0.00045"></path>
<path d="M1.165 0.896 Q1.257 0.677 0.851 0.584" stroke="hsl(240.0,100%,35%)" stroke-width="0.00015"></path>
<path d="M1.165 0.896 Q1.239 0.448 0.382 0.314" stroke="hsl(240.0,100%,35%)" stroke-width="0.00015"></path>
<path d="M1.165 0.896 Q1.525 0.738 1.296 0.528" stroke="hsl(240.0,100%,35%)" stroke-width="0.00015"></path>
<path d="M1.311 0.842 Q1.428 0.693 1.163 0.603" stroke="hsl(240.0,100%,35%)" stroke-width="0.00210"></path>
<path d="M1.311 0.842 Q1.194 0.840 1.165 0.896" stroke="hsl(240.0,100%,35%)" stroke-width="0.00120"></path>
<path d="M1.311 0.842 Q0.839 0.733 0.523 0.939" stroke="hsl(240.0,100%,35%)" stroke-width="0.00090"></path>
<path d="M1.311 0.842 Q1.452 0.884 1.565 0.825" stroke="hsl(240.0,100%,35%)" stroke-width="0.00060"></path>
<path d="M1.311 0.842 Q1.228 0.316 0.185 0.242" stroke="hsl(240.0,100%,35%)" stroke-width="0.00030"></path>
<path d="M1.311 0.842 Q1.269 0.392 0.382 0.314" stroke="hsl(240.0,100%,35%)" stroke-width="0.00015"></path>
<path d="M0.851 0.584 Q0.962 0.489 0.800 0.414" stroke="hsl(240.0,100%,35%)" stroke-width="0.00015"></path>
<path d="M0.851 0.584 Q0.759 0.803 1.165 0.896" stroke="hsl(240.0,100%,35%)" stroke-width="0.00045"></path>
<path d="M0.851 0.584 Q1.016 0.847 1.565 0.825" stroke="hsl(240.0,100%,35%)" stroke-width="0.00015"></path>
<path d="M1.753 0.650 Q1.337 0.208 0.382 0.314" stroke="hsl(120.0,100%,35%)" stroke-width="0.00751"></path>
<path d="M1.753 0.650 Q1.297 0.132 0.185 0.242" stroke="hsl(120.0,100%,35%)" stroke-width="0.01171"></path>
<path d="M1.753 0.650 Q1.520 0.700 1.565 0.825" stroke="hsl(120.0,100%,35%)" stroke-width="0.00105"></path>
<path d="M1.753 0.650 Q1.812 0.551 1.631 0.500" stroke="hsl(120.0,100%,35%)" stroke-width="0.02733"></path>
<path d="M1.753 0.650 Q1.263 0.656 1.165 0.896" stroke="hsl(120.0,100%,35%)" stroke-width="0.00030"></path>
<path d="M1.753 0.650 Q1.419 0.764 1.567 0.951" stroke="hsl(120.0,100%,35%)" stroke-width="0.00511"></path>
<path d="M1.753 0.650 Q0.907 0.549 0.523 0.939" stroke="hsl(120.0,100%,35%)" stroke-width="0.00180"></path>
<path d="M1.753 0.650 Q0.897 0.432 0.282 0.801" stroke="hsl(120.0,100%,35%)" stroke-width="0.00345"></path>
<path d="M1.753 0.650 Q1.935 0.406 1.498 0.263" stroke="hsl(120.0,100%,35%)" stroke-width="0.00090"></path>
<path d="M1.753 0.650 Q1.256 0.296 0.456 0.461" stroke="hsl(120.0,100%,35%)" stroke-width="0.00045"></path>
<path d="M1.753 0.650 Q1.741 0.240 0.938 0.156" stroke="hsl(120.0,100%,35%)" stroke-width="0.00030"></path>
<path d="M1.753 0.650 Q1.453 0.151 0.413 0.188" stroke="hsl(120.0,100%,35%)" stroke-width="0.00015"></path>
<path d="M0.938 0.156 Q0.133 0.249 0.139 0.662" stroke="hsl(240.0,100%,35%)" stroke-width="0.00030"></path>
<path d="M0.938 0.156 Q0.824 0.246 0.975 0.322" stroke="hsl(240.0,100%,35%)" stroke-width="0.00360"></path>
<path d="M0.938 0.156 Q0.950 0.566 1.753 0.650" stroke="hsl(240.0,100%,35%)" stroke-width="0.00045"></path>
<path d="M0.938 0.156 Q0.615 0.679 1.567 0.951" stroke="hsl(240.0,100%,35%)" stroke-width="0.00270"></path>
<path d="M0.938 0.156 Q0.453 0.212 0.456 0.461" stroke="hsl(240.0,100%,35%)" stroke-width="0.00075"></path>
<path d="M0.938 0.156 Q1.008 0.467 1.631 0.500" stroke="hsl(240.0,100%,35%)" stroke-width="0.00015"></path>
<path d="M0.938 0.156 Q0.716 0.616 1.565 0.825" stroke="hsl(240.0,100%,35%)" stroke-width="0.00105"></path>
<path d="M0.938 0.156 Q1.131 0.321 1.498 0.263" stroke="hsl(240.0,100%,35%)" stroke-width="0.00015"></path>
<path d="M0.938 0.156 Q1.185 0.501 1.913 0.456" stroke="hsl(240.0,100%,35%)" stroke-width="0.00015"></path>
<path d="M0.938 0.156 Q0.533 0.123 0.382 0.314" stroke="hsl(240.0,100%,35%)" stroke-width="0.00090"></path>
<path d="M0.938 0.156 Q0.493 0.048 0.185 0.242" stroke="hsl(240.0,100%,35%)" stroke-width="0.00015"></path>
<path d="M0.938 0.156 Q0.103 0.465 0.523 0.939" stroke="hsl(240.0,100%,35%)" stroke-width="0.00015"></path>
<path d="M0.938 0.156 Q0.819 0.413 1.296 0.528" stroke="hsl(240.0,100%,35%)" stroke-width="0.00015"></path>
<path d="M0.938 0.156 Q0.767 0.324 1.058 0.445" stroke="hsl(240.0,100%,35%)" stroke-width="0.00015"></path>
<path d="M1.631 0.500 Q0.726 0.498 0.523 0.939" stroke="hsl(120.0,100%,35%)" stroke-width="0.01216"></path>
<path d="M1.631 0.500 Q1.754 0.355 1.498 0.263" stroke="hsl(120.0,100%,35%)" stroke-width="0.01772"></path>
<path d="M1.631 0.500 Q1.807 0.535 1.913 0.456" stroke="hsl(120.0,100%,35%)" stroke-width="0.00075"></path>
<path d="M1.631 0.500 Q1.339 0.649 1.565 0.825" stroke="hsl(120.0,100%,35%)" stroke-width="0.00045"></path>
<path d="M1.631 0.500 Q1.427 0.705 1.782 0.850" stroke="hsl(120.0,100%,35%)" stroke-width="0.00015"></path>
<path d="M1.631 0.500 Q1.115 0.082 0.185 0.242" stroke="hsl(120.0,100%,35%)" stroke-width="0.00180"></path>
<path d="M1.631 0.500 Q0.716 0.381 0.282 0.801" stroke="hsl(120.0,100%,35%)" stroke-width="0.00586"></path>
<path d="M1.631 0.500 Q1.156 0.157 0.382 0.314" stroke="hsl(120.0,100%,35%)" stroke-width="0.00300"></path>
<path d="M1.631 0.500 Q0.905 0.504 0.753 0.859" stroke="hsl(120.0,100%,35%)" stroke-width="0.00015"></path>
<path d="M1.631 0.500 Q1.081 0.605 1.165 0.896" stroke="hsl(120.0,100%,35%)" stroke-width="0.00045"></path>
<path d="M1.631 0.500 Q1.572 0.600 1.753 0.650" stroke="hsl(120.0,100%,35%)" stroke-width="0.00075"></path>
<path d="M1.631 0.500 Q1.315 0.458 1.163 0.603" stroke="hsl(120.0,100%,35%)" stroke-width="0.00030"></path>
<path d="M1.058 0.445 Q1.300 0.587 1.631 0.500" stroke="hsl(240.0,100%,35%)" stroke-width="0.00015"></path>
<path d="M1.058 0.445 Q1.111 0.534 1.296 0.528" stroke="hsl(240.0,100%,35%)" stroke-width="0.00105"></path>
<path d="M1.058 0.445 Q0.395 0.585 0.523 0.939" stroke="hsl(240.0,100%,35%)" stroke-width="0.00045"></path>
<path d="M1.058 0.445 Q0.984 0.545 1.163 0.603" stroke="hsl(240.0,100%,35%)" stroke-width="0.00045"></path>
<path d="M1.058 0.445 Q0.825 0.244 0.382 0.314" stroke="hsl(240.0,100%,35%)" stroke-width="0.00045"></path>
<path d="M1.058 0.445 Q1.241 0.687 1.753 0.650" stroke="hsl(240.0,100%,35%)" stroke-width="0.00015"></path>
<path d="M1.058 0.445 Q0.784 0.168 0.185 0.242" stroke="hsl(240.0,100%,35%)" stroke-width="0.00015"></path>
<path d="M1.058 0.445 Q0.744 0.332 0.456 0.461" stroke="hsl(240.0,100%,35%)" stroke-width="0.00015"></path>
<path d="M1.058 0.445 Q0.843 0.473 0.851 0.584" stroke="hsl(240.0,100%,35%)" stroke-width="0.00015"></path>
<path d="M0.975 0.322 Q0.918 0.400 1.058 0.445" stroke="hsl(240.0,100%,35%)" stroke-width="0.00060"></path>
<path d="M0.975 0.322 Q1.089 0.231 0.938 0.156" stroke="hsl(240.0,100%,35%)" stroke-width="0.00285"></path>
<path d="M0.975 0.322 Q0.971 0.489 1.296 0.528" stroke="hsl(240.0,100%,35%)" stroke-width="0.00015"></path>
<path d="M0.975 0.322 Q0.868 0.691 1.565 0.825" stroke="hsl(240.0,100%,35%)" stroke-width="0.00105"></path>
<path d="M0.975 0.322 Q0.767 0.755 1.567 0.951" stroke="hsl(240.0,100%,35%)" stroke-width="0.00045"></path>
<path d="M0.975 0.322 Q0.644 0.124 0.185 0.242" stroke="hsl(240.0,100%,35%)" stroke-width="0.00030"></path>
<path d="M0.975 0.322 Q0.685 0.199 0.382 0.314" stroke="hsl(240.0,100%,35%)" stroke-width="0.00030"></path>
<path d="M0.975 0.322 Q0.604 0.288 0.456 0.461" stroke="hsl(240.0,100%,35%)" stroke-width="0.00030"></path>
<path d="M1.475 0.656 Q1.385 0.758 1.565 0.825" stroke="hsl(240.0,100%,35%)" stroke-width="0.00060"></path>
<path d="M1.475 0.656 Q1.488 0.556 1.296 0.528" stroke="hsl(240.0,100%,35%)" stroke-width="0.00135"></path>
<path d="M1.475 0.656 Q1.202 0.266 0.382 0.314" stroke="hsl(240.0,100%,35%)" stroke-width="0.00015"></path>
<path d="M1.475 0.656 Q1.436 0.467 1.058 0.445" stroke="hsl(240.0,100%,35%)" stroke-width="0.00030"></path>
<path d="M1.311 0.998 Q1.476 1.026 1.567 0.951" stroke="hsl(240.0,100%,35%)" stroke-width="0.00420"></path>
<path d="M1.311 0.998 Q1.577 0.962 1.565 0.825" stroke="hsl(240.0,100%,35%)" stroke-width="0.00045"></path>
<path d="M1.311 0.998 Q1.313 0.558 0.456 0.461" stroke="hsl(240.0,100%,35%)" stroke-width="0.00030"></path>
<path d="M1.311 0.998 Q1.798 0.502 0.938 0.156" stroke="hsl(240.0,100%,35%)" stroke-width="0.00090"></path>
<path d="M1.311 0.998 Q1.869 0.813 1.631 0.500" stroke="hsl(240.0,100%,35%)" stroke-width="0.00015"></path>
<path d="M1.311 0.998 Q1.680 0.760 1.296 0.528" stroke="hsl(240.0,100%,35%)" stroke-width="0.00015"></path>
<path d="M1.841 0.838 Q2.006 0.627 1.631 0.500" stroke="hsl(240.0,100%,35%)" stroke-width="0.00015"></path>
<path d="M1.841 0.838 Q1.091 0.508 0.282 0.801" stroke="hsl(240.0,100%,35%)" stroke-width="0.00015"></path>
<path d="M1.841 0.838 Q2.129 0.482 1.498 0.263" stroke="hsl(240.0,100%,35%)" stroke-width="0.00015"></path>
<path d="M1.841 0.838 Q1.101 0.625 0.523 0.939" stroke="hsl(240.0,100%,35%)" stroke-width="0.00015"></path>
<path d="M1.841 0.838 Q1.490 0.208 0.185 0.242" stroke="hsl(240.0,100%,35%)" stroke-width="0.00015"></path>
<path d="M1.841 0.838 Q1.714 0.776 1.565 0.825" stroke="hsl(240.0,100%,35%)" stroke-width="0.00856"></path>
<path d="M1.841 0.838 Q1.690 0.585 1.163 0.603" stroke="hsl(240.0,100%,35%)" stroke-width="0.00030"></path>
<path d="M1.841 0.838 Q1.457 0.732 1.165 0.896" stroke="hsl(240.0,100%,35%)" stroke-width="0.00015"></path>
<path d="M0.368 0.568 Q0.660 0.999 1.567 0.951" stroke="hsl(240.0,100%,35%)" stroke-width="0.00015"></path>
<path d="M0.368 0.568 Q0.148 0.785 0.523 0.939" stroke="hsl(240.0,100%,35%)" stroke-width="0.00015"></path>
<path d="M0.368 0.568 Q0.761 0.936 1.565 0.825" stroke="hsl(240.0,100%,35%)" stroke-width="0.00015"></path>
<path d="M0.368 0.568 Q0.982 0.476 0.938 0.156" stroke="hsl(240.0,100%,35%)" stroke-width="0.00015"></path>
<path d="M0.368 0.568 Q0.177 0.569 0.139 0.662" stroke="hsl(240.0,100%,35%)" stroke-width="0.00015"></path>
<path d="M0.753 0.859 Q0.564 0.736 0.282 0.801" stroke="hsl(120.0,100%,35%)" stroke-width="0.00015"></path>
<path d="M0.753 0.859 Q1.479 0.855 1.631 0.500" stroke="hsl(120.0,100%,35%)" stroke-width="0.00045"></path>
<path d="M0.753 0.859 Q0.574 0.853 0.523 0.939" stroke="hsl(120.0,100%,35%)" stroke-width="0.00180"></path>
<path d="M0.753 0.859 Q1.163 0.813 1.163 0.603" stroke="hsl(120.0,100%,35%)" stroke-width="0.00015"></path>
<path d="M0.753 0.859 Q0.963 0.437 0.185 0.242" stroke="hsl(120.0,100%,35%)" stroke-width="0.00090"></path>
<path d="M0.753 0.859 Q1.602 0.710 1.498 0.263" stroke="hsl(120.0,100%,35%)" stroke-width="0.00165"></path>
<path d="M0.753 0.859 Q1.004 0.512 0.382 0.314" stroke="hsl(120.0,100%,35%)" stroke-width="0.00015"></path>
<path d="M0.753 0.859 Q1.187 1.004 1.565 0.825" stroke="hsl(120.0,100%,35%)" stroke-width="0.00045"></path>
<path d="M0.753 0.859 Q1.294 0.635 0.975 0.322" stroke="hsl(120.0,100%,35%)" stroke-width="0.00015"></path>
<path d="M0.928 0.936 Q1.235 1.071 1.567 0.951" stroke="hsl(240.0,100%,35%)" stroke-width="0.00105"></path>
<path d="M0.928 0.936 Q1.336 1.008 1.565 0.825" stroke="hsl(240.0,100%,35%)" stroke-width="0.00045"></path>
<path d="M0.928 0.936 Q0.713 0.739 0.282 0.801" stroke="hsl(240.0,100%,35%)" stroke-width="0.00060"></path>
<path d="M0.928 0.936 Q0.723 0.856 0.523 0.939" stroke="hsl(240.0,100%,35%)" stroke-width="0.00015"></path>
<path d="M0.928 0.936 Q1.171 0.745 0.851 0.584" stroke="hsl(240.0,100%,35%)" stroke-width="0.00015"></path>
<path d="M0.928 0.936 Q1.312 0.816 1.163 0.603" stroke="hsl(240.0,100%,35%)" stroke-width="0.00030"></path>
<path d="M0.928 0.936 Q1.195 0.965 1.311 0.842" stroke="hsl(240.0,100%,35%)" stroke-width="0.00015"></path>
<path d="M0.046 0.326 Q0.224 0.387 0.382 0.314" stroke="hsl(0.0,100%,35%)" stroke-width="0.00045"></path>
<path d="M0.046 0.326 Q0.306 0.943 1.567 0.951" stroke="hsl(0.0,100%,35%)" stroke-width="0.00015"></path>
<path d="M0.046 0.326 Q0.407 0.879 1.565 0.825" stroke="hsl(0.0,100%,35%)" stroke-width="0.00015"></path>
<path d="M0.328 0.628 Q0.206 0.607 0.139 0.662" stroke="hsl(240.0,100%,35%)" stroke-width="0.00330"></path>
<path d="M0.328 0.628 Q0.566 0.406 0.185 0.242" stroke="hsl(240.0,100%,35%)" stroke-width="0.00015"></path>
<path d="M0.328 0.628 Q0.790 0.974 1.565 0.825" stroke="hsl(240.0,100%,35%)" stroke-width="0.00045"></path>
<path d="M0.328 0.628 Q0.689 1.038 1.567 0.951" stroke="hsl(240.0,100%,35%)" stroke-width="0.00060"></path>
<path d="M1.023 0.730 Q1.219 0.886 1.565 0.825" stroke="hsl(240.0,100%,35%)" stroke-width="0.00120"></path>
<path d="M1.023 0.730 Q1.078 0.843 1.311 0.842" stroke="hsl(240.0,100%,35%)" stroke-width="0.00060"></path>
<path d="M1.023 0.730 Q1.634 0.592 1.498 0.263" stroke="hsl(240.0,100%,35%)" stroke-width="0.00015"></path>
<path d="M1.023 0.730 Q0.961 0.842 1.165 0.896" stroke="hsl(240.0,100%,35%)" stroke-width="0.00015"></path>
<path d="M0.696 0.720 Q0.434 0.795 0.523 0.939" stroke="hsl(120.0,100%,35%)" stroke-width="0.00015"></path>
<path d="M0.696 0.720 Q0.424 0.678 0.282 0.801" stroke="hsl(120.0,100%,35%)" stroke-width="0.00015"></path>
<path d="M0.696 0.720 Q0.824 0.379 0.185 0.242" stroke="hsl(120.0,100%,35%)" stroke-width="0.00015"></path>
<path d="M0.553 0.810 Q1.463 0.726 1.498 0.263" stroke="hsl(120.0,100%,35%)" stroke-width="0.00060"></path>
<path d="M0.553 0.810 Q0.435 0.869 0.523 0.939" stroke="hsl(120.0,100%,35%)" stroke-width="0.00210"></path>
<path d="M0.553 0.810 Q0.425 0.752 0.282 0.801" stroke="hsl(120.0,100%,35%)" stroke-width="0.00090"></path>
<path d="M0.553 0.810 Q0.865 0.528 0.382 0.314" stroke="hsl(120.0,100%,35%)" stroke-width="0.00015"></path>
<path d="M0.553 0.810 Q0.981 0.471 0.413 0.188" stroke="hsl(120.0,100%,35%)" stroke-width="0.00015"></path>
<path d="M0.553 0.810 Q1.281 0.971 1.753 0.650" stroke="hsl(120.0,100%,35%)" stroke-width="0.00015"></path>
<path d="M0.500 0.698 Q0.748 0.482 0.382 0.314" stroke="hsl(120.0,100%,35%)" stroke-width="0.00030"></path>
<path d="M0.500 0.698 Q0.830 1.038 1.567 0.951" stroke="hsl(120.0,100%,35%)" stroke-width="0.00015"></path>
<path d="M0.500 0.698 Q0.318 0.823 0.523 0.939" stroke="hsl(120.0,100%,35%)" stroke-width="0.00030"></path>
<path d="M0.799 0.860 Q0.597 0.844 0.523 0.939" stroke="hsl(120.0,100%,35%)" stroke-width="0.00075"></path>
<path d="M0.799 0.860 Q1.187 0.804 1.163 0.603" stroke="hsl(120.0,100%,35%)" stroke-width="0.00015"></path>
<path d="M0.799 0.860 Q1.014 0.840 1.023 0.730" stroke="hsl(120.0,100%,35%)" stroke-width="0.00015"></path>
</g>
<text x="0.413" y="0.171" font-size="0.033191" fill="hsl(0.0,100%,20%)">armansito</text>
<text x="0.185" y="0.202" font-size="0.078929" fill="hsl(0.0,100%,20%)">johnstiles</text>
<text x="0.382" y="0.277" font-size="0.072860" fill="hsl(0.0,100%,20%)">brianosman</text>
<text x="0.523" y="0.915" font-size="0.049451" fill="hsl(120.0,100%,20%)">egdaniel</text>
<text x="1.567" y="0.929" font-size="0.044711" fill="hsl(240.0,100%,20%)">bungeman</text>
<text x="1.498" y="0.237" font-size="0.053287" fill="hsl(120.0,100%,20%)">michaelludwig</text>
<text x="0.456" y="0.442" font-size="0.037427" fill="hsl(120.0,100%,20%)">bsalomon</text>
<text x="0.282" y="0.779" font-size="0.045396" fill="hsl(120.0,100%,20%)">jvanverth</text>
<text x="1.913" y="0.448" font-size="0.017568" fill="hsl(120.0,100%,20%)">jamesgk</text>
<text x="1.565" y="0.794" font-size="0.061440" fill="hsl(240.0,100%,20%)">kjlubick</text>
<text x="1.163" y="0.592" font-size="0.021572" fill="hsl(240.0,100%,20%)">rmistry</text>
<text x="0.139" y="0.652" font-size="0.020325" fill="hsl(240.0,100%,20%)">jlavrova</text>
<text x="0.131" y="0.481" font-size="0.026777" fill="hsl(0.0,100%,20%)">ethannicholas</text>
<text x="1.296" y="0.519" font-size="0.016595" fill="hsl(240.0,100%,20%)">djsollen</text>
<text x="1.165" y="0.887" font-size="0.018871" fill="hsl(240.0,100%,20%)">borenet</text>
<text x="1.311" y="0.831" font-size="0.022008" fill="hsl(240.0,100%,20%)">jcgregorio</text>
<text x="0.851" y="0.580" font-size="0.008153" fill="hsl(240.0,100%,20%)">hcm</text>
<text x="1.753" y="0.624" font-size="0.053863" fill="hsl(120.0,100%,20%)">herb</text>
<text x="0.938" y="0.143" font-size="0.025691" fill="hsl(240.0,100%,20%)">fmalita</text>
<text x="1.631" y="0.471" font-size="0.059277" fill="hsl(120.0,100%,20%)">robertphillips</text>
<text x="1.058" y="0.435" font-size="0.018490" fill="hsl(240.0,100%,20%)">scroggo</text>
<text x="0.975" y="0.311" font-size="0.021239" fill="hsl(240.0,100%,20%)">jmbetancourt</text>
<text x="1.475" y="0.650" font-size="0.012133" fill="hsl(240.0,100%,20%)">nifong</text>
<text x="1.311" y="0.990" font-size="0.014289" fill="hsl(240.0,100%,20%)">drott</text>
<text x="1.841" y="0.828" font-size="0.018745" fill="hsl(240.0,100%,20%)">cmumford</text>
<text x="0.368" y="0.565" font-size="0.004873" fill="hsl(240.0,100%,20%)">dnfield</text>
<text x="0.753" y="0.850" font-size="0.018871" fill="hsl(120.0,100%,20%)">nicolettep</text>
<text x="1.266" y="0.343" font-size="0.007549" fill="hsl(120.0,100%,20%)">csmartdalton</text>
<text x="0.928" y="0.930" font-size="0.011111" fill="hsl(240.0,100%,20%)">erikrose</text>
<text x="0.800" y="0.413" font-size="0.002179" fill="hsl(240.0,100%,20%)">sharaks</text>
<text x="0.046" y="0.324" font-size="0.004873" fill="hsl(0.0,100%,20%)">iapres</text>
<text x="1.782" y="0.847" font-size="0.004873" fill="hsl(240.0,100%,20%)">tdenniston</text>
<text x="1.325" y="0.724" font-size="0.004873" fill="hsl(240.0,100%,20%)">wrightgeorge</text>
<text x="0.328" y="0.622" font-size="0.011935" fill="hsl(240.0,100%,20%)">jsimmons</text>
<text x="1.023" y="0.723" font-size="0.014122" fill="hsl(240.0,100%,20%)">lovisolo</text>
<text x="0.987" y="0.823" font-size="0.002179" fill="hsl(240.0,100%,20%)">yjbanov</text>
<text x="0.696" y="0.718" font-size="0.003774" fill="hsl(120.0,100%,20%)">nathbappai</text>
<text x="0.553" y="0.805" font-size="0.011323" fill="hsl(120.0,100%,20%)">penghuang</text>
<text x="0.500" y="0.696" font-size="0.004873" fill="hsl(120.0,100%,20%)">sergeyu</text>
<text x="0.799" y="0.857" font-size="0.005765" fill="hsl(120.0,100%,20%)">shuangshuang.zhou</text>
</svg>
