<svg width="4000" height="2000" viewBox="-0.025 -0.025 2.05 1.05" xmlns="http://www.w3.org/2000/svg">
  <style>
    path {
      fill: none;
      stroke-linecap: round;
      stroke-opacity: 0.4;
    }

    text {
      text-anchor: middle;
      alignment-baseline: hanging;
    }
  </style>
  <g opacity="0.4">
<path d="M1.709 0.971 Q1.771 0.872 1.593 0.820" stroke="hsl(0.0,100%,35%)" stroke-width="0.03646"></path>
<path d="M1.709 0.971 Q1.612 0.375 0.428 0.291" stroke="hsl(0.0,100%,35%)" stroke-width="0.01823"></path>
<path d="M1.709 0.971 Q1.520 0.667 0.886 0.692" stroke="hsl(0.0,100%,35%)" stroke-width="0.01823"></path>
<path d="M1.593 0.820 Q1.506 0.827 1.500 0.870" stroke="hsl(0.0,100%,35%)" stroke-width="0.03646"></path>
<path d="M1.593 0.820 Q1.347 0.817 1.287 0.936" stroke="hsl(0.0,100%,35%)" stroke-width="0.01823"></path>
<path d="M1.593 0.820 Q1.600 0.688 1.344 0.656" stroke="hsl(0.0,100%,35%)" stroke-width="0.01823"></path>
<path d="M1.593 0.820 Q1.515 0.289 0.462 0.210" stroke="hsl(0.0,100%,35%)" stroke-width="0.01823"></path>
<path d="M1.593 0.820 Q1.200 0.675 0.829 0.834" stroke="hsl(0.0,100%,35%)" stroke-width="0.01823"></path>
<path d="M1.593 0.820 Q1.342 0.615 0.886 0.692" stroke="hsl(0.0,100%,35%)" stroke-width="0.01823"></path>
<path d="M0.296 0.170 Q0.347 0.223 0.462 0.210" stroke="hsl(180.0,100%,35%)" stroke-width="0.03646"></path>
<path d="M0.296 0.170 Q-0.105 0.482 0.415 0.746" stroke="hsl(180.0,100%,35%)" stroke-width="0.01823"></path>
<path d="M0.296 0.170 Q0.265 0.257 0.428 0.291" stroke="hsl(180.0,100%,35%)" stroke-width="0.01823"></path>
<path d="M0.396 0.601 Q0.289 0.677 0.415 0.746" stroke="hsl(180.0,100%,35%)" stroke-width="0.03646"></path>
<path d="M0.396 0.601 Q0.741 0.419 0.462 0.210" stroke="hsl(180.0,100%,35%)" stroke-width="0.01823"></path>
<path d="M0.396 0.601 Q0.426 0.804 0.829 0.834" stroke="hsl(180.0,100%,35%)" stroke-width="0.01823"></path>
</g>
<text x="1.709" y="0.938" font-size="0.064889" fill="hsl(0.0,100%,20%)">drott</text>
<text x="1.593" y="0.772" font-size="0.097333" fill="hsl(0.0,100%,20%)">kjlubick</text>
<text x="0.428" y="0.268" font-size="0.045883" fill="hsl(180.0,100%,20%)">jamesgk</text>
<text x="0.886" y="0.669" font-size="0.045883" fill="hsl(0.0,100%,20%)">bungeman</text>
<text x="0.296" y="0.138" font-size="0.064889" fill="hsl(180.0,100%,20%)">egdaniel</text>
<text x="0.462" y="0.178" font-size="0.064889" fill="hsl(180.0,100%,20%)">nicolettep</text>
<text x="0.415" y="0.718" font-size="0.056195" fill="hsl(180.0,100%,20%)">jvanverth</text>
<text x="1.500" y="0.847" font-size="0.045883" fill="hsl(0.0,100%,20%)">fmalita</text>
<text x="1.287" y="0.920" font-size="0.032444" fill="hsl(0.0,100%,20%)">danieldilan</text>
<text x="1.344" y="0.640" font-size="0.032444" fill="hsl(0.0,100%,20%)">jmbetancourt</text>
<text x="0.829" y="0.811" font-size="0.045883" fill="hsl(180.0,100%,20%)">michaelludwig</text>
<text x="0.396" y="0.569" font-size="0.064889" fill="hsl(180.0,100%,20%)">robertphillips</text>
</svg>
