<svg width="4000" height="2000" viewBox="-0.025 -0.025 2.05 1.05" xmlns="http://www.w3.org/2000/svg">
  <style>
    path {
      fill: none;
      stroke-linecap: round;
      stroke-opacity: 0.4;
    }

    text {
      text-anchor: middle;
      alignment-baseline: hanging;
    }
  </style>
  <g opacity="0.4">
<path d="M1.054 0.686 Q0.608 0.756 0.647 0.989" stroke="hsl(0.0,100%,35%)" stroke-width="0.00032"></path>
<path d="M1.054 0.686 Q0.868 0.592 0.643 0.662" stroke="hsl(0.0,100%,35%)" stroke-width="0.00128"></path>
<path d="M1.054 0.686 Q1.009 0.591 0.814 0.592" stroke="hsl(0.0,100%,35%)" stroke-width="0.00032"></path>
<path d="M0.647 0.989 Q0.726 0.916 0.600 0.861" stroke="hsl(0.0,100%,35%)" stroke-width="0.00160"></path>
<path d="M0.647 0.989 Q1.548 0.978 1.723 0.536" stroke="hsl(0.0,100%,35%)" stroke-width="0.00032"></path>
<path d="M0.647 0.989 Q1.556 0.857 1.499 0.385" stroke="hsl(0.0,100%,35%)" stroke-width="0.00032"></path>
<path d="M0.647 0.989 Q1.148 0.546 0.393 0.204" stroke="hsl(0.0,100%,35%)" stroke-width="0.00064"></path>
<path d="M0.647 0.989 Q1.363 0.935 1.415 0.573" stroke="hsl(0.0,100%,35%)" stroke-width="0.00032"></path>
<path d="M0.647 0.989 Q1.094 0.890 0.998 0.650" stroke="hsl(0.0,100%,35%)" stroke-width="0.00032"></path>
<path d="M0.643 0.662 Q0.795 0.317 0.155 0.167" stroke="hsl(0.0,100%,35%)" stroke-width="0.00160"></path>
<path d="M0.643 0.662 Q0.965 0.540 0.796 0.356" stroke="hsl(0.0,100%,35%)" stroke-width="0.00607"></path>
<path d="M0.643 0.662 Q0.913 0.604 0.859 0.460" stroke="hsl(0.0,100%,35%)" stroke-width="0.00032"></path>
<path d="M0.643 0.662 Q0.766 0.715 0.895 0.666" stroke="hsl(0.0,100%,35%)" stroke-width="0.00256"></path>
<path d="M0.643 0.662 Q1.100 0.772 1.415 0.573" stroke="hsl(0.0,100%,35%)" stroke-width="0.00192"></path>
<path d="M0.643 0.662 Q0.720 0.449 0.322 0.365" stroke="hsl(0.0,100%,35%)" stroke-width="0.00064"></path>
<path d="M0.643 0.662 Q0.752 0.768 0.983 0.738" stroke="hsl(0.0,100%,35%)" stroke-width="0.00032"></path>
<path d="M0.643 0.662 Q0.830 0.727 0.998 0.650" stroke="hsl(0.0,100%,35%)" stroke-width="0.00032"></path>
<path d="M0.643 0.662 Q1.293 0.695 1.499 0.385" stroke="hsl(0.0,100%,35%)" stroke-width="0.00128"></path>
<path d="M0.643 0.662 Q0.814 0.757 1.037 0.694" stroke="hsl(0.0,100%,35%)" stroke-width="0.00096"></path>
<path d="M0.643 0.662 Q0.785 0.661 0.814 0.592" stroke="hsl(0.0,100%,35%)" stroke-width="0.00224"></path>
<path d="M0.643 0.662 Q1.197 0.602 1.201 0.319" stroke="hsl(0.0,100%,35%)" stroke-width="0.00032"></path>
<path d="M0.643 0.662 Q0.463 0.753 0.600 0.861" stroke="hsl(0.0,100%,35%)" stroke-width="0.00032"></path>
<path d="M0.814 0.592 Q0.994 0.471 0.796 0.356" stroke="hsl(0.0,100%,35%)" stroke-width="0.00288"></path>
<path d="M0.814 0.592 Q0.914 0.314 0.393 0.204" stroke="hsl(0.0,100%,35%)" stroke-width="0.00064"></path>
<path d="M0.814 0.592 Q1.005 0.594 1.051 0.501" stroke="hsl(0.0,100%,35%)" stroke-width="0.00096"></path>
<path d="M0.814 0.592 Q0.673 0.593 0.643 0.662" stroke="hsl(0.0,100%,35%)" stroke-width="0.00735"></path>
<path d="M0.814 0.592 Q0.413 0.757 0.647 0.989" stroke="hsl(0.0,100%,35%)" stroke-width="0.00032"></path>
<path d="M0.814 0.592 Q1.226 0.533 1.201 0.319" stroke="hsl(0.0,100%,35%)" stroke-width="0.00224"></path>
<path d="M0.814 0.592 Q1.322 0.625 1.499 0.385" stroke="hsl(0.0,100%,35%)" stroke-width="0.00064"></path>
<path d="M0.814 0.592 Q0.528 0.423 0.135 0.526" stroke="hsl(0.0,100%,35%)" stroke-width="0.00032"></path>
<path d="M1.102 0.411 Q0.913 0.166 0.393 0.204" stroke="hsl(0.0,100%,35%)" stroke-width="0.00032"></path>
<path d="M1.102 0.411 Q1.226 0.385 1.201 0.319" stroke="hsl(0.0,100%,35%)" stroke-width="0.00096"></path>
<path d="M1.102 0.411 Q0.672 0.445 0.643 0.662" stroke="hsl(0.0,100%,35%)" stroke-width="0.00032"></path>
<path d="M1.102 0.411 Q0.824 0.100 0.155 0.167" stroke="hsl(0.0,100%,35%)" stroke-width="0.00064"></path>
<path d="M1.102 0.411 Q1.005 0.446 1.051 0.501" stroke="hsl(0.0,100%,35%)" stroke-width="0.00032"></path>
<path d="M0.393 0.204 Q0.801 0.516 1.499 0.385" stroke="hsl(0.0,100%,35%)" stroke-width="0.00288"></path>
<path d="M0.393 0.204 Q0.473 0.361 0.796 0.356" stroke="hsl(0.0,100%,35%)" stroke-width="0.00128"></path>
<path d="M0.393 0.204 Q0.229 0.271 0.322 0.365" stroke="hsl(0.0,100%,35%)" stroke-width="0.00160"></path>
<path d="M0.393 0.204 Q0.304 0.138 0.155 0.167" stroke="hsl(0.0,100%,35%)" stroke-width="0.00607"></path>
<path d="M0.393 0.204 Q0.401 0.260 0.512 0.269" stroke="hsl(0.0,100%,35%)" stroke-width="0.00032"></path>
<path d="M0.393 0.204 Q0.485 0.484 1.051 0.501" stroke="hsl(0.0,100%,35%)" stroke-width="0.00224"></path>
<path d="M0.393 0.204 Q0.706 0.423 1.201 0.319" stroke="hsl(0.0,100%,35%)" stroke-width="0.00192"></path>
<path d="M0.393 0.204 Q0.793 0.636 1.723 0.536" stroke="hsl(0.0,100%,35%)" stroke-width="0.00096"></path>
<path d="M0.393 0.204 Q0.609 0.593 1.415 0.573" stroke="hsl(0.0,100%,35%)" stroke-width="0.00032"></path>
<path d="M0.393 0.204 Q0.152 0.483 0.643 0.662" stroke="hsl(0.0,100%,35%)" stroke-width="0.00160"></path>
<path d="M0.393 0.204 Q0.007 0.313 0.135 0.526" stroke="hsl(0.0,100%,35%)" stroke-width="0.00032"></path>
<path d="M0.393 0.204 Q0.293 0.483 0.814 0.592" stroke="hsl(0.0,100%,35%)" stroke-width="0.00032"></path>
<path d="M1.201 0.319 Q1.126 0.412 1.291 0.469" stroke="hsl(180.0,100%,35%)" stroke-width="0.00096"></path>
<path d="M1.201 0.319 Q1.289 0.532 1.723 0.536" stroke="hsl(180.0,100%,35%)" stroke-width="0.01151"></path>
<path d="M1.201 0.319 Q0.980 0.380 1.051 0.501" stroke="hsl(180.0,100%,35%)" stroke-width="0.01055"></path>
<path d="M1.201 0.319 Q1.297 0.411 1.499 0.385" stroke="hsl(180.0,100%,35%)" stroke-width="0.02685"></path>
<path d="M1.201 0.319 Q1.324 0.237 1.191 0.159" stroke="hsl(180.0,100%,35%)" stroke-width="0.00927"></path>
<path d="M1.201 0.319 Q0.917 0.321 0.859 0.460" stroke="hsl(180.0,100%,35%)" stroke-width="0.00959"></path>
<path d="M1.201 0.319 Q0.969 0.257 0.796 0.356" stroke="hsl(180.0,100%,35%)" stroke-width="0.00352"></path>
<path d="M1.201 0.319 Q0.889 0.100 0.393 0.204" stroke="hsl(180.0,100%,35%)" stroke-width="0.00352"></path>
<path d="M1.201 0.319 Q0.804 0.227 0.538 0.401" stroke="hsl(180.0,100%,35%)" stroke-width="0.00032"></path>
<path d="M1.201 0.319 Q0.725 0.166 0.322 0.365" stroke="hsl(180.0,100%,35%)" stroke-width="0.00160"></path>
<path d="M1.201 0.319 Q1.104 0.489 1.415 0.573" stroke="hsl(180.0,100%,35%)" stroke-width="0.00032"></path>
<path d="M1.201 0.319 Q0.800 0.034 0.155 0.167" stroke="hsl(180.0,100%,35%)" stroke-width="0.00064"></path>
<path d="M1.201 0.319 Q0.789 0.378 0.814 0.592" stroke="hsl(180.0,100%,35%)" stroke-width="0.00160"></path>
<path d="M1.201 0.319 Q0.647 0.379 0.643 0.662" stroke="hsl(180.0,100%,35%)" stroke-width="0.00032"></path>
<path d="M0.155 0.167 Q0.244 0.233 0.393 0.204" stroke="hsl(0.0,100%,35%)" stroke-width="0.01566"></path>
<path d="M0.155 0.167 Q-0.041 0.284 0.145 0.406" stroke="hsl(0.0,100%,35%)" stroke-width="0.00288"></path>
<path d="M0.155 0.167 Q0.325 0.390 0.796 0.356" stroke="hsl(0.0,100%,35%)" stroke-width="0.00767"></path>
<path d="M0.155 0.167 Q0.003 0.512 0.643 0.662" stroke="hsl(0.0,100%,35%)" stroke-width="0.00863"></path>
<path d="M0.155 0.167 Q0.080 0.299 0.322 0.365" stroke="hsl(0.0,100%,35%)" stroke-width="0.00128"></path>
<path d="M0.155 0.167 Q0.252 0.289 0.512 0.269" stroke="hsl(0.0,100%,35%)" stroke-width="0.00256"></path>
<path d="M0.155 0.167 Q0.653 0.545 1.499 0.385" stroke="hsl(0.0,100%,35%)" stroke-width="0.00160"></path>
<path d="M0.155 0.167 Q0.190 0.577 0.998 0.650" stroke="hsl(0.0,100%,35%)" stroke-width="0.00032"></path>
<path d="M0.155 0.167 Q0.645 0.665 1.723 0.536" stroke="hsl(0.0,100%,35%)" stroke-width="0.00032"></path>
<path d="M0.155 0.167 Q0.273 0.454 0.859 0.460" stroke="hsl(0.0,100%,35%)" stroke-width="0.00032"></path>
<path d="M0.155 0.167 Q-0.142 0.342 0.135 0.526" stroke="hsl(0.0,100%,35%)" stroke-width="0.00767"></path>
<path d="M0.155 0.167 Q0.460 0.622 1.415 0.573" stroke="hsl(0.0,100%,35%)" stroke-width="0.00032"></path>
<path d="M0.155 0.167 Q0.145 0.511 0.814 0.592" stroke="hsl(0.0,100%,35%)" stroke-width="0.00192"></path>
<path d="M0.155 0.167 Q0.557 0.452 1.201 0.319" stroke="hsl(0.0,100%,35%)" stroke-width="0.00064"></path>
<path d="M0.155 0.167 Q0.082 0.202 0.135 0.246" stroke="hsl(0.0,100%,35%)" stroke-width="0.00064"></path>
<path d="M0.155 0.167 Q-0.177 0.603 0.600 0.861" stroke="hsl(0.0,100%,35%)" stroke-width="0.00032"></path>
<path d="M1.051 0.501 Q0.870 0.155 0.155 0.167" stroke="hsl(180.0,100%,35%)" stroke-width="0.00064"></path>
<path d="M1.051 0.501 Q0.988 0.442 0.859 0.460" stroke="hsl(180.0,100%,35%)" stroke-width="0.00767"></path>
<path d="M1.051 0.501 Q1.272 0.440 1.201 0.319" stroke="hsl(180.0,100%,35%)" stroke-width="0.00703"></path>
<path d="M1.051 0.501 Q0.795 0.287 0.322 0.365" stroke="hsl(180.0,100%,35%)" stroke-width="0.00096"></path>
<path d="M1.051 0.501 Q1.197 0.533 1.291 0.469" stroke="hsl(180.0,100%,35%)" stroke-width="0.00032"></path>
<path d="M1.051 0.501 Q1.395 0.358 1.191 0.159" stroke="hsl(180.0,100%,35%)" stroke-width="0.00064"></path>
<path d="M1.051 0.501 Q0.538 0.591 0.600 0.861" stroke="hsl(180.0,100%,35%)" stroke-width="0.00064"></path>
<path d="M1.051 0.501 Q0.459 0.664 0.647 0.989" stroke="hsl(180.0,100%,35%)" stroke-width="0.00032"></path>
<path d="M1.051 0.501 Q1.368 0.533 1.499 0.385" stroke="hsl(180.0,100%,35%)" stroke-width="0.00192"></path>
<path d="M1.051 0.501 Q1.360 0.653 1.723 0.536" stroke="hsl(180.0,100%,35%)" stroke-width="0.00160"></path>
<path d="M1.051 0.501 Q0.938 0.374 0.665 0.402" stroke="hsl(180.0,100%,35%)" stroke-width="0.00032"></path>
<path d="M1.051 0.501 Q1.175 0.610 1.415 0.573" stroke="hsl(180.0,100%,35%)" stroke-width="0.00032"></path>
<path d="M1.291 0.469 Q1.454 0.589 1.723 0.536" stroke="hsl(180.0,100%,35%)" stroke-width="0.00160"></path>
<path d="M1.291 0.469 Q1.462 0.468 1.499 0.385" stroke="hsl(180.0,100%,35%)" stroke-width="0.00032"></path>
<path d="M1.291 0.469 Q1.367 0.376 1.201 0.319" stroke="hsl(180.0,100%,35%)" stroke-width="0.00096"></path>
<path d="M1.291 0.469 Q1.489 0.294 1.191 0.159" stroke="hsl(180.0,100%,35%)" stroke-width="0.00032"></path>
<path d="M1.291 0.469 Q1.146 0.437 1.051 0.501" stroke="hsl(180.0,100%,35%)" stroke-width="0.00032"></path>
<path d="M1.291 0.469 Q1.134 0.314 0.796 0.356" stroke="hsl(180.0,100%,35%)" stroke-width="0.00096"></path>
<path d="M1.291 0.469 Q1.373 0.169 0.805 0.064" stroke="hsl(180.0,100%,35%)" stroke-width="0.00032"></path>
<path d="M1.723 0.536 Q1.159 0.170 0.322 0.365" stroke="hsl(180.0,100%,35%)" stroke-width="0.00064"></path>
<path d="M1.723 0.536 Q1.732 0.415 1.499 0.385" stroke="hsl(180.0,100%,35%)" stroke-width="0.02589"></path>
<path d="M1.723 0.536 Q1.415 0.384 1.051 0.501" stroke="hsl(180.0,100%,35%)" stroke-width="0.00352"></path>
<path d="M1.723 0.536 Q1.561 0.416 1.291 0.469" stroke="hsl(180.0,100%,35%)" stroke-width="0.00096"></path>
<path d="M1.723 0.536 Q1.636 0.323 1.201 0.319" stroke="hsl(180.0,100%,35%)" stroke-width="0.02110"></path>
<path d="M1.723 0.536 Q1.323 0.104 0.393 0.204" stroke="hsl(180.0,100%,35%)" stroke-width="0.00416"></path>
<path d="M1.723 0.536 Q1.234 0.038 0.155 0.167" stroke="hsl(180.0,100%,35%)" stroke-width="0.00192"></path>
<path d="M1.723 0.536 Q1.403 0.261 0.796 0.356" stroke="hsl(180.0,100%,35%)" stroke-width="0.00224"></path>
<path d="M1.723 0.536 Q1.331 0.160 0.512 0.269" stroke="hsl(180.0,100%,35%)" stroke-width="0.00032"></path>
<path d="M1.723 0.536 Q1.759 0.241 1.191 0.159" stroke="hsl(180.0,100%,35%)" stroke-width="0.00256"></path>
<path d="M1.723 0.536 Q1.351 0.325 0.859 0.460" stroke="hsl(180.0,100%,35%)" stroke-width="0.00160"></path>
<path d="M1.723 0.536 Q1.082 0.383 0.643 0.662" stroke="hsl(180.0,100%,35%)" stroke-width="0.00032"></path>
<path d="M1.723 0.536 Q1.161 0.073 0.135 0.246" stroke="hsl(180.0,100%,35%)" stroke-width="0.00032"></path>
<path d="M1.723 0.536 Q1.615 0.570 1.658 0.630" stroke="hsl(180.0,100%,35%)" stroke-width="0.00096"></path>
<path d="M1.499 0.385 Q1.403 0.292 1.201 0.319" stroke="hsl(180.0,100%,35%)" stroke-width="0.02301"></path>
<path d="M1.499 0.385 Q1.170 0.230 0.796 0.356" stroke="hsl(180.0,100%,35%)" stroke-width="0.00128"></path>
<path d="M1.499 0.385 Q1.490 0.505 1.723 0.536" stroke="hsl(180.0,100%,35%)" stroke-width="0.01918"></path>
<path d="M1.499 0.385 Q1.090 0.074 0.393 0.204" stroke="hsl(180.0,100%,35%)" stroke-width="0.00032"></path>
<path d="M1.499 0.385 Q0.589 0.517 0.647 0.989" stroke="hsl(180.0,100%,35%)" stroke-width="0.00032"></path>
<path d="M1.499 0.385 Q1.182 0.354 1.051 0.501" stroke="hsl(180.0,100%,35%)" stroke-width="0.01247"></path>
<path d="M1.499 0.385 Q1.001 0.007 0.155 0.167" stroke="hsl(180.0,100%,35%)" stroke-width="0.00128"></path>
<path d="M1.499 0.385 Q1.005 0.201 0.538 0.401" stroke="hsl(180.0,100%,35%)" stroke-width="0.00032"></path>
<path d="M1.499 0.385 Q1.098 0.129 0.512 0.269" stroke="hsl(180.0,100%,35%)" stroke-width="0.00064"></path>
<path d="M1.499 0.385 Q1.020 0.447 1.037 0.694" stroke="hsl(180.0,100%,35%)" stroke-width="0.00032"></path>
<path d="M1.499 0.385 Q1.118 0.295 0.859 0.460" stroke="hsl(180.0,100%,35%)" stroke-width="0.00064"></path>
<path d="M1.499 0.385 Q0.849 0.352 0.643 0.662" stroke="hsl(180.0,100%,35%)" stroke-width="0.00032"></path>
<path d="M1.499 0.385 Q1.526 0.210 1.191 0.159" stroke="hsl(180.0,100%,35%)" stroke-width="0.00032"></path>
<path d="M1.191 0.159 Q1.068 0.241 1.201 0.319" stroke="hsl(180.0,100%,35%)" stroke-width="0.00895"></path>
<path d="M1.191 0.159 Q0.784 0.243 0.859 0.460" stroke="hsl(180.0,100%,35%)" stroke-width="0.00064"></path>
<path d="M1.191 0.159 Q0.847 0.302 1.051 0.501" stroke="hsl(180.0,100%,35%)" stroke-width="0.00128"></path>
<path d="M1.191 0.159 Q0.971 0.411 1.415 0.573" stroke="hsl(180.0,100%,35%)" stroke-width="0.00032"></path>
<path d="M1.191 0.159 Q0.255 0.465 0.647 0.989" stroke="hsl(180.0,100%,35%)" stroke-width="0.00032"></path>
<path d="M1.191 0.159 Q1.164 0.333 1.499 0.385" stroke="hsl(180.0,100%,35%)" stroke-width="0.00511"></path>
<path d="M1.191 0.159 Q0.756 0.022 0.393 0.204" stroke="hsl(180.0,100%,35%)" stroke-width="0.00128"></path>
<path d="M1.191 0.159 Q0.764 0.078 0.512 0.269" stroke="hsl(180.0,100%,35%)" stroke-width="0.00032"></path>
<path d="M1.191 0.159 Q0.532 0.401 0.860 0.776" stroke="hsl(180.0,100%,35%)" stroke-width="0.00032"></path>
<path d="M1.191 0.159 Q0.667 -0.044 0.155 0.167" stroke="hsl(180.0,100%,35%)" stroke-width="0.00032"></path>
<path d="M1.191 0.159 Q1.156 0.454 1.723 0.536" stroke="hsl(180.0,100%,35%)" stroke-width="0.00064"></path>
<path d="M1.191 0.159 Q0.836 0.179 0.796 0.356" stroke="hsl(180.0,100%,35%)" stroke-width="0.00064"></path>
<path d="M0.796 0.356 Q0.716 0.200 0.393 0.204" stroke="hsl(0.0,100%,35%)" stroke-width="0.00447"></path>
<path d="M0.796 0.356 Q0.598 0.531 0.895 0.666" stroke="hsl(0.0,100%,35%)" stroke-width="0.00128"></path>
<path d="M0.796 0.356 Q0.744 0.421 0.859 0.460" stroke="hsl(0.0,100%,35%)" stroke-width="0.00863"></path>
<path d="M0.796 0.356 Q0.552 0.266 0.322 0.365" stroke="hsl(0.0,100%,35%)" stroke-width="0.00384"></path>
<path d="M0.796 0.356 Q0.808 0.480 1.051 0.501" stroke="hsl(0.0,100%,35%)" stroke-width="0.00703"></path>
<path d="M0.796 0.356 Q0.627 0.133 0.155 0.167" stroke="hsl(0.0,100%,35%)" stroke-width="0.01374"></path>
<path d="M0.796 0.356 Q0.475 0.479 0.643 0.662" stroke="hsl(0.0,100%,35%)" stroke-width="0.01279"></path>
<path d="M0.796 0.356 Q0.330 0.309 0.135 0.526" stroke="hsl(0.0,100%,35%)" stroke-width="0.00096"></path>
<path d="M0.796 0.356 Q0.724 0.256 0.512 0.269" stroke="hsl(0.0,100%,35%)" stroke-width="0.01087"></path>
<path d="M0.796 0.356 Q1.041 0.261 0.910 0.121" stroke="hsl(0.0,100%,35%)" stroke-width="0.00032"></path>
<path d="M0.796 0.356 Q0.954 0.512 1.291 0.469" stroke="hsl(0.0,100%,35%)" stroke-width="0.00032"></path>
<path d="M0.796 0.356 Q1.116 0.631 1.723 0.536" stroke="hsl(0.0,100%,35%)" stroke-width="0.00288"></path>
<path d="M0.796 0.356 Q1.029 0.418 1.201 0.319" stroke="hsl(0.0,100%,35%)" stroke-width="0.01183"></path>
<path d="M0.796 0.356 Q0.631 0.327 0.538 0.401" stroke="hsl(0.0,100%,35%)" stroke-width="0.00032"></path>
<path d="M0.796 0.356 Q0.295 0.569 0.600 0.861" stroke="hsl(0.0,100%,35%)" stroke-width="0.00256"></path>
<path d="M0.796 0.356 Q0.815 0.244 0.601 0.211" stroke="hsl(0.0,100%,35%)" stroke-width="0.00064"></path>
<path d="M0.796 0.356 Q0.932 0.588 1.415 0.573" stroke="hsl(0.0,100%,35%)" stroke-width="0.00288"></path>
<path d="M0.796 0.356 Q1.125 0.511 1.499 0.385" stroke="hsl(0.0,100%,35%)" stroke-width="0.00447"></path>
<path d="M0.796 0.356 Q1.092 0.248 0.946 0.080" stroke="hsl(0.0,100%,35%)" stroke-width="0.00032"></path>
<path d="M0.796 0.356 Q0.554 0.169 0.135 0.246" stroke="hsl(0.0,100%,35%)" stroke-width="0.00032"></path>
<path d="M0.796 0.356 Q0.492 0.579 0.860 0.776" stroke="hsl(0.0,100%,35%)" stroke-width="0.00032"></path>
<path d="M0.796 0.356 Q0.646 0.573 1.037 0.694" stroke="hsl(0.0,100%,35%)" stroke-width="0.00128"></path>
<path d="M0.796 0.356 Q0.616 0.478 0.814 0.592" stroke="hsl(0.0,100%,35%)" stroke-width="0.00927"></path>
<path d="M0.805 0.064 Q0.487 0.052 0.393 0.204" stroke="hsl(0.0,100%,35%)" stroke-width="0.00607"></path>
<path d="M0.805 0.064 Q0.398 -0.015 0.155 0.167" stroke="hsl(0.0,100%,35%)" stroke-width="0.00032"></path>
<path d="M0.805 0.064 Q-0.014 0.495 0.647 0.989" stroke="hsl(0.0,100%,35%)" stroke-width="0.00032"></path>
<path d="M0.805 0.064 Q0.387 0.330 0.814 0.592" stroke="hsl(0.0,100%,35%)" stroke-width="0.00096"></path>
<path d="M0.614 0.431 Q0.684 0.273 0.393 0.204" stroke="hsl(0.0,100%,35%)" stroke-width="0.00032"></path>
<path d="M0.614 0.431 Q0.765 0.430 0.796 0.356" stroke="hsl(0.0,100%,35%)" stroke-width="0.00160"></path>
<path d="M0.614 0.431 Q1.093 0.585 1.499 0.385" stroke="hsl(0.0,100%,35%)" stroke-width="0.00096"></path>
<path d="M0.614 0.431 Q0.596 0.207 0.155 0.167" stroke="hsl(0.0,100%,35%)" stroke-width="0.00032"></path>
<path d="M0.972 0.254 Q0.814 0.394 1.051 0.501" stroke="hsl(180.0,100%,35%)" stroke-width="0.00096"></path>
<path d="M0.972 0.254 Q1.035 0.332 1.201 0.319" stroke="hsl(180.0,100%,35%)" stroke-width="0.00096"></path>
<path d="M0.972 0.254 Q1.131 0.425 1.499 0.385" stroke="hsl(180.0,100%,35%)" stroke-width="0.00032"></path>
<path d="M0.972 0.254 Q1.123 0.545 1.723 0.536" stroke="hsl(180.0,100%,35%)" stroke-width="0.00032"></path>
<path d="M1.082 0.601 Q1.146 0.545 1.051 0.501" stroke="hsl(180.0,100%,35%)" stroke-width="0.00128"></path>
<path d="M1.082 0.601 Q1.367 0.484 1.201 0.319" stroke="hsl(180.0,100%,35%)" stroke-width="0.00064"></path>
<path d="M1.082 0.601 Q1.083 0.486 0.859 0.460" stroke="hsl(180.0,100%,35%)" stroke-width="0.00064"></path>
<path d="M0.859 0.460 Q1.239 0.551 1.499 0.385" stroke="hsl(180.0,100%,35%)" stroke-width="0.00256"></path>
<path d="M0.859 0.460 Q0.922 0.519 1.051 0.501" stroke="hsl(180.0,100%,35%)" stroke-width="0.00607"></path>
<path d="M0.859 0.460 Q1.143 0.458 1.201 0.319" stroke="hsl(180.0,100%,35%)" stroke-width="0.00352"></path>
<path d="M0.859 0.460 Q0.409 0.609 0.600 0.861" stroke="hsl(180.0,100%,35%)" stroke-width="0.00064"></path>
<path d="M0.859 0.460 Q1.231 0.671 1.723 0.536" stroke="hsl(180.0,100%,35%)" stroke-width="0.00128"></path>
<path d="M0.859 0.460 Q0.911 0.396 0.796 0.356" stroke="hsl(180.0,100%,35%)" stroke-width="0.00128"></path>
<path d="M0.859 0.460 Q0.830 0.239 0.393 0.204" stroke="hsl(180.0,100%,35%)" stroke-width="0.00032"></path>
<path d="M0.859 0.460 Q1.266 0.376 1.191 0.159" stroke="hsl(180.0,100%,35%)" stroke-width="0.00032"></path>
<path d="M0.512 0.269 Q0.603 0.258 0.601 0.211" stroke="hsl(0.0,100%,35%)" stroke-width="0.00128"></path>
<path d="M0.512 0.269 Q0.415 0.147 0.155 0.167" stroke="hsl(0.0,100%,35%)" stroke-width="0.00160"></path>
<path d="M0.512 0.269 Q0.340 0.279 0.322 0.365" stroke="hsl(0.0,100%,35%)" stroke-width="0.00032"></path>
<path d="M0.512 0.269 Q0.904 0.644 1.723 0.536" stroke="hsl(0.0,100%,35%)" stroke-width="0.00032"></path>
<path d="M0.512 0.269 Q0.595 0.493 1.051 0.501" stroke="hsl(0.0,100%,35%)" stroke-width="0.00064"></path>
<path d="M0.512 0.269 Q0.912 0.524 1.499 0.385" stroke="hsl(0.0,100%,35%)" stroke-width="0.00128"></path>
<path d="M0.512 0.269 Q0.584 0.369 0.796 0.356" stroke="hsl(0.0,100%,35%)" stroke-width="0.01662"></path>
<path d="M0.512 0.269 Q0.504 0.213 0.393 0.204" stroke="hsl(0.0,100%,35%)" stroke-width="0.00096"></path>
<path d="M0.512 0.269 Q0.385 0.544 0.895 0.666" stroke="hsl(0.0,100%,35%)" stroke-width="0.00032"></path>
<path d="M0.512 0.269 Q0.816 0.432 1.201 0.319" stroke="hsl(0.0,100%,35%)" stroke-width="0.00032"></path>
<path d="M0.512 0.269 Q0.404 0.491 0.814 0.592" stroke="hsl(0.0,100%,35%)" stroke-width="0.00064"></path>
<path d="M0.322 0.365 Q0.922 0.436 1.191 0.159" stroke="hsl(180.0,100%,35%)" stroke-width="0.00128"></path>
<path d="M0.322 0.365 Q0.886 0.731 1.723 0.536" stroke="hsl(180.0,100%,35%)" stroke-width="0.00128"></path>
<path d="M0.322 0.365 Q0.397 0.233 0.155 0.167" stroke="hsl(180.0,100%,35%)" stroke-width="0.00160"></path>
<path d="M0.322 0.365 Q0.566 0.456 0.796 0.356" stroke="hsl(180.0,100%,35%)" stroke-width="0.00543"></path>
<path d="M0.322 0.365 Q0.799 0.518 1.201 0.319" stroke="hsl(180.0,100%,35%)" stroke-width="0.00384"></path>
<path d="M0.322 0.365 Q0.486 0.299 0.393 0.204" stroke="hsl(180.0,100%,35%)" stroke-width="0.00735"></path>
<path d="M0.322 0.365 Q0.895 0.610 1.499 0.385" stroke="hsl(180.0,100%,35%)" stroke-width="0.00447"></path>
<path d="M0.322 0.365 Q0.514 0.520 0.859 0.460" stroke="hsl(180.0,100%,35%)" stroke-width="0.00192"></path>
<path d="M0.322 0.365 Q0.724 0.611 1.291 0.469" stroke="hsl(180.0,100%,35%)" stroke-width="0.00032"></path>
<path d="M0.322 0.365 Q0.245 0.578 0.643 0.662" stroke="hsl(180.0,100%,35%)" stroke-width="0.00096"></path>
<path d="M0.322 0.365 Q0.578 0.579 1.051 0.501" stroke="hsl(180.0,100%,35%)" stroke-width="0.00032"></path>
<path d="M0.322 0.365 Q-0.015 0.742 0.647 0.989" stroke="hsl(180.0,100%,35%)" stroke-width="0.00032"></path>
<path d="M0.322 0.365 Q0.065 0.669 0.600 0.861" stroke="hsl(180.0,100%,35%)" stroke-width="0.00032"></path>
<path d="M0.322 0.365 Q0.401 0.426 0.538 0.401" stroke="hsl(180.0,100%,35%)" stroke-width="0.00543"></path>
<path d="M0.895 0.666 Q1.094 0.491 0.796 0.356" stroke="hsl(0.0,100%,35%)" stroke-width="0.00064"></path>
<path d="M0.895 0.666 Q0.772 0.614 0.643 0.662" stroke="hsl(0.0,100%,35%)" stroke-width="0.00096"></path>
<path d="M0.895 0.666 Q1.229 0.724 1.415 0.573" stroke="hsl(0.0,100%,35%)" stroke-width="0.00032"></path>
<path d="M1.415 0.573 Q1.227 0.406 0.859 0.460" stroke="hsl(0.0,100%,35%)" stroke-width="0.00032"></path>
<path d="M1.415 0.573 Q1.599 0.616 1.723 0.536" stroke="hsl(0.0,100%,35%)" stroke-width="0.00032"></path>
<path d="M1.415 0.573 Q1.081 0.516 0.895 0.666" stroke="hsl(0.0,100%,35%)" stroke-width="0.00064"></path>
<path d="M1.415 0.573 Q0.958 0.463 0.643 0.662" stroke="hsl(0.0,100%,35%)" stroke-width="0.00096"></path>
<path d="M1.415 0.573 Q1.110 0.118 0.155 0.167" stroke="hsl(0.0,100%,35%)" stroke-width="0.00096"></path>
<path d="M1.415 0.573 Q1.279 0.341 0.796 0.356" stroke="hsl(0.0,100%,35%)" stroke-width="0.00192"></path>
<path d="M1.415 0.573 Q1.199 0.185 0.393 0.204" stroke="hsl(0.0,100%,35%)" stroke-width="0.00032"></path>
<path d="M1.415 0.573 Q1.290 0.465 1.051 0.501" stroke="hsl(0.0,100%,35%)" stroke-width="0.00128"></path>
<path d="M1.415 0.573 Q1.512 0.403 1.201 0.319" stroke="hsl(0.0,100%,35%)" stroke-width="0.00032"></path>
<path d="M0.135 0.526 Q0.432 0.350 0.155 0.167" stroke="hsl(0.0,100%,35%)" stroke-width="0.00607"></path>
<path d="M0.135 0.526 Q0.521 0.417 0.393 0.204" stroke="hsl(0.0,100%,35%)" stroke-width="0.00128"></path>
<path d="M0.135 0.526 Q0.280 0.696 0.643 0.662" stroke="hsl(0.0,100%,35%)" stroke-width="0.00032"></path>
<path d="M0.135 0.526 Q0.921 0.848 1.723 0.536" stroke="hsl(0.0,100%,35%)" stroke-width="0.00032"></path>
<path d="M0.135 0.526 Q0.956 0.553 1.191 0.159" stroke="hsl(0.0,100%,35%)" stroke-width="0.00032"></path>
<path d="M0.135 0.526 Q0.833 0.635 1.201 0.319" stroke="hsl(0.0,100%,35%)" stroke-width="0.00064"></path>
<path d="M0.135 0.526 Q0.601 0.573 0.796 0.356" stroke="hsl(0.0,100%,35%)" stroke-width="0.00192"></path>
<path d="M0.135 0.526 Q0.451 0.790 1.037 0.694" stroke="hsl(0.0,100%,35%)" stroke-width="0.00032"></path>
<path d="M0.677 0.533 Q0.890 0.592 1.051 0.501" stroke="hsl(180.0,100%,35%)" stroke-width="0.00384"></path>
<path d="M0.677 0.533 Q1.111 0.531 1.201 0.319" stroke="hsl(180.0,100%,35%)" stroke-width="0.00384"></path>
<path d="M0.677 0.533 Q0.798 0.312 0.393 0.204" stroke="hsl(180.0,100%,35%)" stroke-width="0.00032"></path>
<path d="M0.677 0.533 Q0.557 0.591 0.643 0.662" stroke="hsl(180.0,100%,35%)" stroke-width="0.00064"></path>
<path d="M0.677 0.533 Q0.878 0.468 0.796 0.356" stroke="hsl(180.0,100%,35%)" stroke-width="0.00192"></path>
<path d="M0.677 0.533 Q0.826 0.533 0.859 0.460" stroke="hsl(180.0,100%,35%)" stroke-width="0.00032"></path>
<path d="M0.145 0.406 Q0.341 0.289 0.155 0.167" stroke="hsl(0.0,100%,35%)" stroke-width="0.01023"></path>
<path d="M0.145 0.406 Q0.510 0.511 0.796 0.356" stroke="hsl(0.0,100%,35%)" stroke-width="0.00479"></path>
<path d="M0.145 0.406 Q0.044 0.464 0.135 0.526" stroke="hsl(0.0,100%,35%)" stroke-width="0.00064"></path>
<path d="M0.145 0.406 Q0.866 0.492 1.191 0.159" stroke="hsl(0.0,100%,35%)" stroke-width="0.00032"></path>
<path d="M0.600 0.861 Q1.022 0.491 0.393 0.204" stroke="hsl(0.0,100%,35%)" stroke-width="0.00096"></path>
<path d="M0.600 0.861 Q0.521 0.934 0.647 0.989" stroke="hsl(0.0,100%,35%)" stroke-width="0.00128"></path>
<path d="M0.600 0.861 Q1.113 0.771 1.051 0.501" stroke="hsl(0.0,100%,35%)" stroke-width="0.00320"></path>
<path d="M0.600 0.861 Q1.335 0.710 1.201 0.319" stroke="hsl(0.0,100%,35%)" stroke-width="0.00096"></path>
<path d="M0.600 0.861 Q1.050 0.712 0.859 0.460" stroke="hsl(0.0,100%,35%)" stroke-width="0.00128"></path>
<path d="M0.600 0.861 Q1.102 0.648 0.796 0.356" stroke="hsl(0.0,100%,35%)" stroke-width="0.00096"></path>
<path d="M0.600 0.861 Q1.238 0.880 1.415 0.573" stroke="hsl(0.0,100%,35%)" stroke-width="0.00064"></path>
<path d="M0.600 0.861 Q0.933 0.425 0.155 0.167" stroke="hsl(0.0,100%,35%)" stroke-width="0.00032"></path>
<path d="M0.600 0.861 Q1.340 0.503 0.805 0.064" stroke="hsl(0.0,100%,35%)" stroke-width="0.00032"></path>
<path d="M0.600 0.861 Q0.922 0.769 0.814 0.592" stroke="hsl(0.0,100%,35%)" stroke-width="0.00032"></path>
<path d="M0.186 0.469 Q0.501 0.378 0.393 0.204" stroke="hsl(0.0,100%,35%)" stroke-width="0.00128"></path>
<path d="M0.186 0.469 Q0.000 0.821 0.647 0.989" stroke="hsl(0.0,100%,35%)" stroke-width="0.00032"></path>
<path d="M0.186 0.469 Q0.910 0.689 1.499 0.385" stroke="hsl(0.0,100%,35%)" stroke-width="0.00032"></path>
<path d="M0.186 0.469 Q0.337 0.444 0.322 0.365" stroke="hsl(0.0,100%,35%)" stroke-width="0.00064"></path>
<path d="M0.137 0.291 Q0.245 0.233 0.155 0.167" stroke="hsl(0.0,100%,35%)" stroke-width="0.00096"></path>
<path d="M0.137 0.291 Q0.647 0.518 1.201 0.319" stroke="hsl(0.0,100%,35%)" stroke-width="0.00032"></path>
<path d="M0.137 0.291 Q0.093 0.578 0.643 0.662" stroke="hsl(0.0,100%,35%)" stroke-width="0.00064"></path>
<path d="M0.137 0.291 Q0.426 0.579 1.051 0.501" stroke="hsl(0.0,100%,35%)" stroke-width="0.00032"></path>
<path d="M0.137 0.291 Q0.734 0.731 1.723 0.536" stroke="hsl(0.0,100%,35%)" stroke-width="0.00032"></path>
<path d="M0.460 0.555 Q1.142 0.503 1.191 0.159" stroke="hsl(180.0,100%,35%)" stroke-width="0.00096"></path>
<path d="M0.460 0.555 Q0.787 0.523 0.796 0.356" stroke="hsl(180.0,100%,35%)" stroke-width="0.00032"></path>
<path d="M0.460 0.555 Q1.107 0.798 1.723 0.536" stroke="hsl(180.0,100%,35%)" stroke-width="0.00064"></path>
<path d="M0.460 0.555 Q0.735 0.588 0.859 0.460" stroke="hsl(180.0,100%,35%)" stroke-width="0.00128"></path>
<path d="M0.597 0.021 Q0.439 0.352 1.051 0.501" stroke="hsl(0.0,100%,35%)" stroke-width="0.00032"></path>
<path d="M0.597 0.021 Q0.661 0.291 1.201 0.319" stroke="hsl(0.0,100%,35%)" stroke-width="0.00032"></path>
<path d="M0.597 0.021 Q0.348 0.072 0.393 0.204" stroke="hsl(0.0,100%,35%)" stroke-width="0.00064"></path>
<path d="M0.860 0.776 Q1.084 0.397 0.393 0.204" stroke="hsl(0.0,100%,35%)" stroke-width="0.00447"></path>
<path d="M0.860 0.776 Q0.583 0.840 0.647 0.989" stroke="hsl(0.0,100%,35%)" stroke-width="0.00096"></path>
<path d="M0.860 0.776 Q1.164 0.553 0.796 0.356" stroke="hsl(0.0,100%,35%)" stroke-width="0.00735"></path>
<path d="M0.860 0.776 Q0.984 0.675 0.814 0.592" stroke="hsl(0.0,100%,35%)" stroke-width="0.00703"></path>
<path d="M0.860 0.776 Q0.842 0.676 0.643 0.662" stroke="hsl(0.0,100%,35%)" stroke-width="0.00959"></path>
<path d="M0.860 0.776 Q1.402 0.409 0.805 0.064" stroke="hsl(0.0,100%,35%)" stroke-width="0.00032"></path>
<path d="M0.860 0.776 Q1.396 0.616 1.201 0.319" stroke="hsl(0.0,100%,35%)" stroke-width="0.00032"></path>
<path d="M0.860 0.776 Q1.484 0.829 1.723 0.536" stroke="hsl(0.0,100%,35%)" stroke-width="0.00032"></path>
<path d="M1.070 0.416 Q0.992 0.455 1.051 0.501" stroke="hsl(180.0,100%,35%)" stroke-width="0.00096"></path>
<path d="M1.070 0.416 Q1.213 0.394 1.201 0.319" stroke="hsl(180.0,100%,35%)" stroke-width="0.00128"></path>
<path d="M1.070 0.416 Q1.301 0.607 1.723 0.536" stroke="hsl(180.0,100%,35%)" stroke-width="0.00032"></path>
<path d="M0.538 0.401 Q0.935 0.493 1.201 0.319" stroke="hsl(180.0,100%,35%)" stroke-width="0.00767"></path>
<path d="M0.538 0.401 Q0.703 0.430 0.796 0.356" stroke="hsl(180.0,100%,35%)" stroke-width="0.00096"></path>
<path d="M0.538 0.401 Q1.058 0.411 1.191 0.159" stroke="hsl(180.0,100%,35%)" stroke-width="0.00479"></path>
<path d="M0.538 0.401 Q0.459 0.340 0.322 0.365" stroke="hsl(180.0,100%,35%)" stroke-width="0.00352"></path>
<path d="M0.538 0.401 Q0.860 0.586 1.291 0.469" stroke="hsl(180.0,100%,35%)" stroke-width="0.00032"></path>
<path d="M0.538 0.401 Q1.031 0.585 1.499 0.385" stroke="hsl(180.0,100%,35%)" stroke-width="0.00032"></path>
<path d="M0.538 0.401 Q0.651 0.495 0.859 0.460" stroke="hsl(180.0,100%,35%)" stroke-width="0.00064"></path>
<path d="M1.401 0.443 Q1.401 0.341 1.201 0.319" stroke="hsl(180.0,100%,35%)" stroke-width="0.00128"></path>
<path d="M1.401 0.443 Q1.116 0.343 0.859 0.460" stroke="hsl(180.0,100%,35%)" stroke-width="0.00064"></path>
<path d="M1.401 0.443 Q1.488 0.554 1.723 0.536" stroke="hsl(180.0,100%,35%)" stroke-width="0.00064"></path>
<path d="M1.154 0.404 Q1.246 0.371 1.201 0.319" stroke="hsl(180.0,100%,35%)" stroke-width="0.00224"></path>
<path d="M1.154 0.404 Q0.961 0.373 0.859 0.460" stroke="hsl(180.0,100%,35%)" stroke-width="0.00160"></path>
<path d="M1.154 0.404 Q1.368 0.289 1.191 0.159" stroke="hsl(180.0,100%,35%)" stroke-width="0.00096"></path>
<path d="M1.154 0.404 Q1.333 0.584 1.723 0.536" stroke="hsl(180.0,100%,35%)" stroke-width="0.00032"></path>
<path d="M1.154 0.404 Q1.341 0.463 1.499 0.385" stroke="hsl(180.0,100%,35%)" stroke-width="0.00032"></path>
<path d="M0.569 0.374 Q0.617 0.254 0.393 0.204" stroke="hsl(0.0,100%,35%)" stroke-width="0.00064"></path>
<path d="M0.569 0.374 Q0.376 0.533 0.643 0.662" stroke="hsl(0.0,100%,35%)" stroke-width="0.00064"></path>
<path d="M0.569 0.374 Q0.528 0.188 0.155 0.167" stroke="hsl(0.0,100%,35%)" stroke-width="0.00032"></path>
<path d="M0.569 0.374 Q0.930 0.473 1.201 0.319" stroke="hsl(0.0,100%,35%)" stroke-width="0.00032"></path>
<path d="M0.615 0.461 Q0.801 0.568 1.051 0.501" stroke="hsl(180.0,100%,35%)" stroke-width="0.00032"></path>
<path d="M0.615 0.461 Q1.022 0.507 1.201 0.319" stroke="hsl(180.0,100%,35%)" stroke-width="0.00032"></path>
<path d="M0.615 0.461 Q0.737 0.509 0.859 0.460" stroke="hsl(180.0,100%,35%)" stroke-width="0.00032"></path>
<path d="M0.615 0.461 Q1.117 0.600 1.499 0.385" stroke="hsl(180.0,100%,35%)" stroke-width="0.00032"></path>
<path d="M1.365 0.479 Q0.935 0.214 0.322 0.365" stroke="hsl(180.0,100%,35%)" stroke-width="0.00032"></path>
<path d="M1.365 0.479 Q1.411 0.366 1.201 0.319" stroke="hsl(180.0,100%,35%)" stroke-width="0.00064"></path>
<path d="M1.365 0.479 Q1.099 0.148 0.393 0.204" stroke="hsl(180.0,100%,35%)" stroke-width="0.00032"></path>
<path d="M1.365 0.479 Q1.499 0.579 1.723 0.536" stroke="hsl(180.0,100%,35%)" stroke-width="0.00032"></path>
<path d="M0.341 0.776 Q0.904 0.657 0.796 0.356" stroke="hsl(0.0,100%,35%)" stroke-width="0.00160"></path>
<path d="M0.341 0.776 Q0.583 0.780 0.643 0.662" stroke="hsl(0.0,100%,35%)" stroke-width="0.00032"></path>
<path d="M0.341 0.776 Q0.323 0.944 0.647 0.989" stroke="hsl(0.0,100%,35%)" stroke-width="0.00032"></path>
<path d="M0.341 0.776 Q0.724 0.779 0.814 0.592" stroke="hsl(0.0,100%,35%)" stroke-width="0.00032"></path>
<path d="M0.341 0.776 Q1.143 0.513 0.805 0.064" stroke="hsl(0.0,100%,35%)" stroke-width="0.00128"></path>
<path d="M0.341 0.776 Q0.403 0.870 0.600 0.861" stroke="hsl(0.0,100%,35%)" stroke-width="0.00320"></path>
<path d="M0.341 0.776 Q1.040 0.889 1.415 0.573" stroke="hsl(0.0,100%,35%)" stroke-width="0.00032"></path>
</g>
<text x="1.054" y="0.682" font-size="0.007402" fill="hsl(0.0,100%,20%)">alecmouri</text>
<text x="0.647" y="0.981" font-size="0.015703" fill="hsl(0.0,100%,20%)">scroggo</text>
<text x="0.643" y="0.640" font-size="0.043688" fill="hsl(0.0,100%,20%)">fmalita</text>
<text x="0.814" y="0.575" font-size="0.033922" fill="hsl(0.0,100%,20%)">danieldilan</text>
<text x="1.102" y="0.407" font-size="0.008547" fill="hsl(0.0,100%,20%)">aperez</text>
<text x="0.393" y="0.181" font-size="0.046621" fill="hsl(0.0,100%,20%)">brianosman</text>
<text x="1.201" y="0.282" font-size="0.073528" fill="hsl(180.0,100%,20%)">michaelludwig</text>
<text x="0.155" y="0.140" font-size="0.054059" fill="hsl(0.0,100%,20%)">bungeman</text>
<text x="1.051" y="0.477" font-size="0.047973" fill="hsl(180.0,100%,20%)">egdaniel</text>
<text x="1.291" y="0.462" font-size="0.015110" fill="hsl(180.0,100%,20%)">armansito</text>
<text x="1.723" y="0.507" font-size="0.056617" fill="hsl(180.0,100%,20%)">jvanverth</text>
<text x="1.499" y="0.353" font-size="0.063821" fill="hsl(180.0,100%,20%)">robertphillips</text>
<text x="1.191" y="0.142" font-size="0.034720" fill="hsl(180.0,100%,20%)">jamesgk</text>
<text x="0.796" y="0.321" font-size="0.070743" fill="hsl(0.0,100%,20%)">kjlubick</text>
<text x="0.805" y="0.055" font-size="0.016826" fill="hsl(0.0,100%,20%)">ccameron</text>
<text x="0.614" y="0.426" font-size="0.009556" fill="hsl(0.0,100%,20%)">arthursonzogni</text>
<text x="0.972" y="0.250" font-size="0.008547" fill="hsl(180.0,100%,20%)">beaufort.francois</text>
<text x="1.082" y="0.597" font-size="0.008547" fill="hsl(180.0,100%,20%)">blundell</text>
<text x="0.859" y="0.441" font-size="0.039402" fill="hsl(180.0,100%,20%)">nicolettep</text>
<text x="0.512" y="0.252" font-size="0.033515" fill="hsl(0.0,100%,20%)">borenet</text>
<text x="0.601" y="0.207" font-size="0.007402" fill="hsl(0.0,100%,20%)">rmistry</text>
<text x="0.322" y="0.346" font-size="0.037865" fill="hsl(180.0,100%,20%)">johnstiles</text>
<text x="0.895" y="0.659" font-size="0.013848" fill="hsl(0.0,100%,20%)">bwils</text>
<text x="1.415" y="0.563" font-size="0.020718" fill="hsl(0.0,100%,20%)">jmbetancourt</text>
<text x="0.135" y="0.513" font-size="0.024551" fill="hsl(0.0,100%,20%)">jlavrova</text>
<text x="0.677" y="0.524" font-size="0.017621" fill="hsl(180.0,100%,20%)">briansalomon</text>
<text x="0.145" y="0.394" font-size="0.023212" fill="hsl(0.0,100%,20%)">drott</text>
<text x="0.998" y="0.647" font-size="0.005234" fill="hsl(0.0,100%,20%)">hcm</text>
<text x="0.135" y="0.243" font-size="0.006044" fill="hsl(0.0,100%,20%)">brettos</text>
<text x="0.600" y="0.849" font-size="0.023795" fill="hsl(0.0,100%,20%)">nscobie</text>
<text x="0.186" y="0.465" font-size="0.008547" fill="hsl(0.0,100%,20%)">chengyangyang-hf</text>
<text x="0.137" y="0.287" font-size="0.008547" fill="hsl(0.0,100%,20%)">coldpalelight</text>
<text x="0.460" y="0.551" font-size="0.009556" fill="hsl(180.0,100%,20%)">cwallez</text>
<text x="0.665" y="0.400" font-size="0.003022" fill="hsl(180.0,100%,20%)">jreck</text>
<text x="0.983" y="0.736" font-size="0.003022" fill="hsl(0.0,100%,20%)">sharaks</text>
<text x="1.037" y="0.690" font-size="0.009066" fill="hsl(0.0,100%,20%)">maxhudnell</text>
<text x="0.597" y="0.018" font-size="0.006044" fill="hsl(0.0,100%,20%)">geofflang</text>
<text x="0.860" y="0.761" font-size="0.029763" fill="hsl(0.0,100%,20%)">lukasza</text>
<text x="1.070" y="0.412" font-size="0.008547" fill="hsl(180.0,100%,20%)">jie.a.chen</text>
<text x="0.538" y="0.388" font-size="0.026518" fill="hsl(180.0,100%,20%)">nathanasanchez</text>
<text x="1.658" y="0.627" font-size="0.005234" fill="hsl(180.0,100%,20%)">thomsmit</text>
<text x="0.910" y="0.120" font-size="0.003022" fill="hsl(0.0,100%,20%)">mingkong</text>
<text x="0.946" y="0.079" font-size="0.003022" fill="hsl(0.0,100%,20%)">ashwinpv</text>
<text x="1.401" y="0.439" font-size="0.008547" fill="hsl(180.0,100%,20%)">kylechar</text>
<text x="1.154" y="0.398" font-size="0.012460" fill="hsl(180.0,100%,20%)">lokokung</text>
<text x="0.569" y="0.371" font-size="0.007402" fill="hsl(0.0,100%,20%)">mike</text>
<text x="0.615" y="0.458" font-size="0.006044" fill="hsl(180.0,100%,20%)">petermcneeley</text>
<text x="1.365" y="0.476" font-size="0.006757" fill="hsl(180.0,100%,20%)">sky</text>
<text x="0.341" y="0.769" font-size="0.014493" fill="hsl(0.0,100%,20%)">vigneshv</text>
</svg>
