<svg width="4000" height="2000" viewBox="-0.025 -0.025 2.05 1.05" xmlns="http://www.w3.org/2000/svg">
  <style>
    path {
      fill: none;
      stroke-linecap: round;
      stroke-opacity: 0.4;
    }

    text {
      text-anchor: middle;
      alignment-baseline: hanging;
    }
  </style>
  <g opacity="0.4">
<path d="M0.284 0.900 Q1.360 1.004 1.799 0.502" stroke="hsl(0.0,100%,35%)" stroke-width="0.00879"></path>
<path d="M0.284 0.900 Q0.260 0.953 0.358 0.976" stroke="hsl(0.0,100%,35%)" stroke-width="0.03518"></path>
<path d="M0.284 0.900 Q0.506 1.001 0.752 0.914" stroke="hsl(0.0,100%,35%)" stroke-width="0.03518"></path>
<path d="M0.284 0.900 Q0.314 0.778 0.083 0.736" stroke="hsl(0.0,100%,35%)" stroke-width="0.03518"></path>
<path d="M0.284 0.900 Q0.694 0.743 0.477 0.508" stroke="hsl(0.0,100%,35%)" stroke-width="0.00879"></path>
<path d="M0.358 0.976 Q0.838 0.900 0.795 0.649" stroke="hsl(0.0,100%,35%)" stroke-width="0.00879"></path>
<path d="M0.358 0.976 Q0.632 0.859 0.464 0.700" stroke="hsl(0.0,100%,35%)" stroke-width="0.00879"></path>
<path d="M0.358 0.976 Q0.381 0.923 0.284 0.900" stroke="hsl(0.0,100%,35%)" stroke-width="0.05276"></path>
<path d="M0.358 0.976 Q0.913 1.081 1.241 0.833" stroke="hsl(0.0,100%,35%)" stroke-width="0.01759"></path>
<path d="M0.358 0.976 Q1.458 1.027 1.799 0.502" stroke="hsl(0.0,100%,35%)" stroke-width="0.00879"></path>
<path d="M1.903 0.786 Q1.534 0.677 1.241 0.833" stroke="hsl(180.0,100%,35%)" stroke-width="0.01759"></path>
<path d="M1.903 0.786 Q1.002 0.519 0.284 0.900" stroke="hsl(180.0,100%,35%)" stroke-width="0.00879"></path>
<path d="M1.903 0.786 Q2.078 0.623 1.799 0.502" stroke="hsl(180.0,100%,35%)" stroke-width="0.07035"></path>
<path d="M1.903 0.786 Q1.882 0.661 1.634 0.644" stroke="hsl(180.0,100%,35%)" stroke-width="0.01759"></path>
<path d="M1.708 0.911 Q2.081 0.725 1.799 0.502" stroke="hsl(180.0,100%,35%)" stroke-width="0.00879"></path>
<path d="M1.708 0.911 Q1.702 0.819 1.520 0.802" stroke="hsl(180.0,100%,35%)" stroke-width="0.00879"></path>
<path d="M1.708 0.911 Q1.005 0.621 0.284 0.900" stroke="hsl(180.0,100%,35%)" stroke-width="0.00879"></path>
</g>
<text x="0.284" y="0.848" font-size="0.103594" fill="hsl(0.0,100%,20%)">bclayton</text>
<text x="1.799" y="0.465" font-size="0.073252" fill="hsl(180.0,100%,20%)">geofflang</text>
<text x="0.358" y="0.933" font-size="0.085540" fill="hsl(0.0,100%,20%)">syoussefi</text>
<text x="0.752" y="0.892" font-size="0.044173" fill="hsl(0.0,100%,20%)">cwallez</text>
<text x="0.083" y="0.714" font-size="0.044173" fill="hsl(0.0,100%,20%)">amaiorano</text>
<text x="0.477" y="0.497" font-size="0.022086" fill="hsl(0.0,100%,20%)">dneto</text>
<text x="1.903" y="0.746" font-size="0.079633" fill="hsl(180.0,100%,20%)">natsu</text>
<text x="1.241" y="0.811" font-size="0.044173" fill="hsl(180.0,100%,20%)">chrisforbes</text>
<text x="1.634" y="0.629" font-size="0.031235" fill="hsl(180.0,100%,20%)">jif</text>
<text x="1.708" y="0.892" font-size="0.038255" fill="hsl(180.0,100%,20%)">swiftshader.regress</text>
<text x="1.520" y="0.791" font-size="0.022086" fill="hsl(180.0,100%,20%)">ynovikov</text>
<text x="0.795" y="0.638" font-size="0.022086" fill="hsl(0.0,100%,20%)">sugoi</text>
<text x="0.464" y="0.688" font-size="0.022086" fill="hsl(0.0,100%,20%)">yuxinhu</text>
</svg>
