<svg width="4000" height="2000" viewBox="-0.025 -0.025 2.05 1.05" xmlns="http://www.w3.org/2000/svg">
  <style>
    path {
      fill: none;
      stroke-linecap: round;
      stroke-opacity: 0.4;
    }

    text {
      text-anchor: middle;
      alignment-baseline: hanging;
    }
  </style>
  <g opacity="0.4">
<path d="M0.939 0.623 Q0.764 0.478 0.443 0.532" stroke="hsl(0.0,100%,35%)" stroke-width="0.16191"></path>
<path d="M0.939 0.623 Q1.029 0.498 0.805 0.427" stroke="hsl(0.0,100%,35%)" stroke-width="0.04324"></path>
<path d="M0.939 0.623 Q1.046 0.721 1.262 0.691" stroke="hsl(0.0,100%,35%)" stroke-width="0.00101"></path>
<path d="M0.939 0.623 Q1.272 0.460 1.028 0.262" stroke="hsl(0.0,100%,35%)" stroke-width="0.00603"></path>
<path d="M0.939 0.623 Q0.508 0.588 0.344 0.790" stroke="hsl(0.0,100%,35%)" stroke-width="0.00101"></path>
<path d="M0.939 0.623 Q0.923 0.385 0.456 0.341" stroke="hsl(0.0,100%,35%)" stroke-width="0.00101"></path>
<path d="M0.939 0.623 Q1.831 0.204 1.210 -0.323" stroke="hsl(0.0,100%,35%)" stroke-width="0.00101"></path>
<path d="M0.939 0.623 Q0.746 0.595 0.650 0.683" stroke="hsl(0.0,100%,35%)" stroke-width="0.00302"></path>
<path d="M0.939 0.623 Q0.964 0.775 1.266 0.796" stroke="hsl(0.0,100%,35%)" stroke-width="0.00603"></path>
<path d="M0.805 0.427 Q0.740 0.703 1.266 0.796" stroke="hsl(0.0,100%,35%)" stroke-width="0.02715"></path>
<path d="M0.805 0.427 Q0.540 0.407 0.443 0.532" stroke="hsl(0.0,100%,35%)" stroke-width="0.00503"></path>
<path d="M0.805 0.427 Q0.932 0.305 0.723 0.216" stroke="hsl(0.0,100%,35%)" stroke-width="0.00402"></path>
<path d="M0.107 0.826 Q0.076 0.887 0.187 0.915" stroke="hsl(0.0,100%,35%)" stroke-width="0.00101"></path>
<path d="M0.107 0.826 Q0.711 1.043 1.266 0.796" stroke="hsl(0.0,100%,35%)" stroke-width="0.00101"></path>
<path d="M0.107 0.826 Q0.510 0.747 0.443 0.532" stroke="hsl(0.0,100%,35%)" stroke-width="0.00101"></path>
<path d="M0.784 0.729 Q0.771 0.562 0.443 0.532" stroke="hsl(0.0,100%,35%)" stroke-width="0.00905"></path>
<path d="M0.784 0.729 Q1.054 0.805 1.262 0.691" stroke="hsl(0.0,100%,35%)" stroke-width="0.00302"></path>
<path d="M0.784 0.729 Q1.037 0.582 0.805 0.427" stroke="hsl(0.0,100%,35%)" stroke-width="0.00101"></path>
<path d="M1.619 0.666 Q1.338 0.660 1.266 0.796" stroke="hsl(0.0,100%,35%)" stroke-width="0.06939"></path>
<path d="M1.619 0.666 Q1.138 0.364 0.443 0.532" stroke="hsl(0.0,100%,35%)" stroke-width="0.05531"></path>
<path d="M1.619 0.666 Q1.403 0.383 0.805 0.427" stroke="hsl(0.0,100%,35%)" stroke-width="0.00603"></path>
<path d="M1.619 0.666 Q1.120 0.480 0.650 0.683" stroke="hsl(0.0,100%,35%)" stroke-width="0.00101"></path>
<path d="M1.619 0.666 Q1.530 0.262 0.723 0.216" stroke="hsl(0.0,100%,35%)" stroke-width="0.00101"></path>
<path d="M1.431 0.212 Q0.881 0.471 1.266 0.796" stroke="hsl(0.0,100%,35%)" stroke-width="0.00101"></path>
<path d="M1.431 0.212 Q1.608 0.296 1.810 0.228" stroke="hsl(0.0,100%,35%)" stroke-width="0.00101"></path>
<path d="M1.431 0.212 Q0.681 0.175 0.443 0.532" stroke="hsl(0.0,100%,35%)" stroke-width="0.00101"></path>
</g>
<text x="0.939" y="0.571" font-size="0.104298" fill="hsl(0.0,100%,20%)">capn</text>
<text x="0.443" y="0.479" font-size="0.106382" fill="hsl(0.0,100%,20%)">sugoi</text>
<text x="0.805" y="0.394" font-size="0.064770" fill="hsl(0.0,100%,20%)">srisser</text>
<text x="1.262" y="0.684" font-size="0.013969" fill="hsl(0.0,100%,20%)">syoussefi</text>
<text x="1.028" y="0.253" font-size="0.017108" fill="hsl(0.0,100%,20%)">amaiorano</text>
<text x="0.344" y="0.787" font-size="0.006984" fill="hsl(0.0,100%,20%)">aeubanks</text>
<text x="0.456" y="0.338" font-size="0.006984" fill="hsl(0.0,100%,20%)">mikaelpessa</text>
<text x="1.210" y="-0.326" font-size="0.006984" fill="hsl(0.0,100%,20%)">joshuaduong</text>
<text x="0.650" y="0.676" font-size="0.013969" fill="hsl(0.0,100%,20%)">natsu</text>
<text x="1.266" y="0.760" font-size="0.071226" fill="hsl(0.0,100%,20%)">nicolascapens</text>
<text x="0.107" y="0.820" font-size="0.012097" fill="hsl(0.0,100%,20%)">ericcurtin17</text>
<text x="0.187" y="0.911" font-size="0.006984" fill="hsl(0.0,100%,20%)">caramelli.devel</text>
<text x="0.784" y="0.716" font-size="0.025182" fill="hsl(0.0,100%,20%)">nicolas.capens</text>
<text x="0.723" y="0.209" font-size="0.015617" fill="hsl(0.0,100%,20%)">bclayton</text>
<text x="1.619" y="0.625" font-size="0.080244" fill="hsl(0.0,100%,20%)">swiftshader.regress</text>
<text x="1.431" y="0.206" font-size="0.012097" fill="hsl(0.0,100%,20%)">tho.laroche</text>
<text x="1.810" y="0.225" font-size="0.006984" fill="hsl(0.0,100%,20%)">penghuang</text>
</svg>
