<svg width="4000" height="2000" viewBox="-0.025 -0.025 2.05 1.05" xmlns="http://www.w3.org/2000/svg">
  <style>
    path {
      fill: none;
      stroke-linecap: round;
      stroke-opacity: 0.4;
    }

    text {
      text-anchor: middle;
      alignment-baseline: hanging;
    }
  </style>
  <g opacity="0.4">
<path d="M0.254 0.421 Q0.311 0.815 1.093 0.874" stroke="hsl(0.0,100%,35%)" stroke-width="0.05727"></path>
<path d="M0.254 0.421 Q0.622 0.394 0.650 0.208" stroke="hsl(0.0,100%,35%)" stroke-width="0.00471"></path>
<path d="M0.254 0.421 Q0.696 0.685 1.308 0.527" stroke="hsl(0.0,100%,35%)" stroke-width="0.00628"></path>
<path d="M0.650 0.208 Q0.339 0.630 1.093 0.874" stroke="hsl(0.0,100%,35%)" stroke-width="0.03060"></path>
<path d="M0.650 0.208 Q0.282 0.235 0.254 0.421" stroke="hsl(0.0,100%,35%)" stroke-width="0.00157"></path>
<path d="M0.650 0.208 Q0.724 0.499 1.308 0.527" stroke="hsl(0.0,100%,35%)" stroke-width="0.00078"></path>
<path d="M0.650 0.208 Q0.814 0.242 0.916 0.170" stroke="hsl(0.0,100%,35%)" stroke-width="0.00314"></path>
<path d="M0.650 0.208 Q0.377 0.285 0.467 0.435" stroke="hsl(0.0,100%,35%)" stroke-width="0.00078"></path>
<path d="M1.308 0.527 Q0.866 0.263 0.254 0.421" stroke="hsl(0.0,100%,35%)" stroke-width="0.02589"></path>
<path d="M1.308 0.527 Q1.398 0.270 0.916 0.170" stroke="hsl(0.0,100%,35%)" stroke-width="0.00157"></path>
<path d="M1.308 0.527 Q0.923 0.658 1.093 0.874" stroke="hsl(0.0,100%,35%)" stroke-width="0.03295"></path>
<path d="M1.308 0.527 Q1.235 0.236 0.650 0.208" stroke="hsl(0.0,100%,35%)" stroke-width="0.00628"></path>
<path d="M1.308 0.527 Q1.118 0.486 0.996 0.570" stroke="hsl(0.0,100%,35%)" stroke-width="0.00078"></path>
<path d="M0.554 0.342 Q0.398 0.716 1.093 0.874" stroke="hsl(0.0,100%,35%)" stroke-width="0.00628"></path>
<path d="M0.554 0.342 Q0.709 0.295 0.650 0.208" stroke="hsl(0.0,100%,35%)" stroke-width="0.05335"></path>
<path d="M0.554 0.342 Q0.560 0.613 1.091 0.670" stroke="hsl(0.0,100%,35%)" stroke-width="0.00078"></path>
<path d="M0.554 0.342 Q0.873 0.328 0.916 0.170" stroke="hsl(0.0,100%,35%)" stroke-width="0.00314"></path>
<path d="M0.554 0.342 Q0.775 0.707 1.535 0.679" stroke="hsl(0.0,100%,35%)" stroke-width="0.00392"></path>
<path d="M0.554 0.342 Q0.341 0.322 0.254 0.421" stroke="hsl(0.0,100%,35%)" stroke-width="0.07140"></path>
<path d="M0.554 0.342 Q0.386 0.564 0.781 0.695" stroke="hsl(0.0,100%,35%)" stroke-width="0.00549"></path>
<path d="M0.554 0.342 Q0.783 0.586 1.308 0.527" stroke="hsl(0.0,100%,35%)" stroke-width="0.01255"></path>
<path d="M0.554 0.342 Q0.207 0.498 0.435 0.702" stroke="hsl(0.0,100%,35%)" stroke-width="0.00078"></path>
<path d="M1.091 0.670 Q0.928 0.772 1.093 0.874" stroke="hsl(0.0,100%,35%)" stroke-width="0.00549"></path>
<path d="M1.091 0.670 Q0.871 0.378 0.254 0.421" stroke="hsl(0.0,100%,35%)" stroke-width="0.00157"></path>
<path d="M1.091 0.670 Q1.313 0.642 1.308 0.527" stroke="hsl(0.0,100%,35%)" stroke-width="0.00314"></path>
<path d="M1.535 0.679 Q1.158 0.688 1.093 0.874" stroke="hsl(0.0,100%,35%)" stroke-width="0.01726"></path>
<path d="M1.535 0.679 Q0.967 0.471 0.435 0.702" stroke="hsl(0.0,100%,35%)" stroke-width="0.00157"></path>
<path d="M1.535 0.679 Q1.543 0.558 1.308 0.527" stroke="hsl(0.0,100%,35%)" stroke-width="0.00078"></path>
<path d="M0.781 0.695 Q0.793 0.847 1.093 0.874" stroke="hsl(0.0,100%,35%)" stroke-width="0.02511"></path>
<path d="M0.781 0.695 Q1.105 0.425 0.650 0.208" stroke="hsl(0.0,100%,35%)" stroke-width="0.01098"></path>
<path d="M0.781 0.695 Q0.736 0.452 0.254 0.421" stroke="hsl(0.0,100%,35%)" stroke-width="0.00078"></path>
<path d="M0.932 0.149 Q0.432 0.544 1.093 0.874" stroke="hsl(0.0,100%,35%)" stroke-width="0.00392"></path>
<path d="M0.932 0.149 Q0.375 0.149 0.254 0.421" stroke="hsl(0.0,100%,35%)" stroke-width="0.00078"></path>
<path d="M0.932 0.149 Q0.743 0.122 0.650 0.208" stroke="hsl(0.0,100%,35%)" stroke-width="0.00235"></path>
<path d="M1.182 0.980 Q1.394 0.964 1.410 0.857" stroke="hsl(0.0,100%,35%)" stroke-width="0.00078"></path>
<path d="M1.182 0.980 Q1.222 0.909 1.093 0.874" stroke="hsl(0.0,100%,35%)" stroke-width="0.00078"></path>
<path d="M1.182 0.980 Q1.564 0.990 1.667 0.806" stroke="hsl(0.0,100%,35%)" stroke-width="0.00078"></path>
<path d="M0.787 0.805 Q0.885 0.901 1.093 0.874" stroke="hsl(0.0,100%,35%)" stroke-width="0.00157"></path>
<path d="M0.787 0.805 Q1.360 0.513 0.916 0.170" stroke="hsl(0.0,100%,35%)" stroke-width="0.00078"></path>
<path d="M0.787 0.805 Q0.661 0.792 0.606 0.850" stroke="hsl(0.0,100%,35%)" stroke-width="0.00078"></path>
<path d="M1.312 0.717 Q1.077 0.752 1.093 0.874" stroke="hsl(0.0,100%,35%)" stroke-width="0.01334"></path>
<path d="M1.312 0.717 Q1.388 0.330 0.650 0.208" stroke="hsl(0.0,100%,35%)" stroke-width="0.01098"></path>
<path d="M1.312 0.717 Q1.065 0.600 0.781 0.695" stroke="hsl(0.0,100%,35%)" stroke-width="0.00392"></path>
<path d="M1.312 0.717 Q1.020 0.357 0.254 0.421" stroke="hsl(0.0,100%,35%)" stroke-width="0.00078"></path>
<path d="M0.182 0.789 Q0.569 1.014 1.093 0.874" stroke="hsl(0.0,100%,35%)" stroke-width="0.00392"></path>
<path d="M0.182 0.789 Q0.378 0.796 0.435 0.702" stroke="hsl(0.0,100%,35%)" stroke-width="0.00157"></path>
<path d="M0.182 0.789 Q0.946 1.005 1.535 0.679" stroke="hsl(0.0,100%,35%)" stroke-width="0.00078"></path>
<path d="M0.182 0.789 Q1.044 0.626 0.916 0.170" stroke="hsl(0.0,100%,35%)" stroke-width="0.00078"></path>
<path d="M0.182 0.789 Q0.732 0.911 1.091 0.670" stroke="hsl(0.0,100%,35%)" stroke-width="0.00157"></path>
</g>
<text x="0.254" y="0.377" font-size="0.087459" fill="hsl(0.0,100%,20%)">amaiorano</text>
<text x="1.093" y="0.827" font-size="0.094219" fill="hsl(0.0,100%,20%)">nicolascapens</text>
<text x="0.650" y="0.171" font-size="0.074927" fill="hsl(0.0,100%,20%)">sugoi</text>
<text x="1.308" y="0.496" font-size="0.063798" fill="hsl(0.0,100%,20%)">bclayton</text>
<text x="0.916" y="0.160" font-size="0.020520" fill="hsl(0.0,100%,20%)">chrisforbes</text>
<text x="0.996" y="0.568" font-size="0.005923" fill="hsl(0.0,100%,20%)">jaebaek</text>
<text x="0.554" y="0.300" font-size="0.083980" fill="hsl(0.0,100%,20%)">capn</text>
<text x="1.091" y="0.658" font-size="0.023694" fill="hsl(0.0,100%,20%)">digit</text>
<text x="1.535" y="0.663" font-size="0.032981" fill="hsl(0.0,100%,20%)">natsu</text>
<text x="0.781" y="0.672" font-size="0.045499" fill="hsl(0.0,100%,20%)">srisser</text>
<text x="0.435" y="0.695" font-size="0.013245" fill="hsl(0.0,100%,20%)">vantablack</text>
<text x="0.932" y="0.140" font-size="0.017770" fill="hsl(0.0,100%,20%)">caramelli.devel</text>
<text x="1.182" y="0.975" font-size="0.010260" fill="hsl(0.0,100%,20%)">eholk</text>
<text x="1.410" y="0.854" font-size="0.005923" fill="hsl(0.0,100%,20%)">kschimpf</text>
<text x="1.667" y="0.803" font-size="0.005923" fill="hsl(0.0,100%,20%)">stichnot</text>
<text x="0.787" y="0.799" font-size="0.011847" fill="hsl(0.0,100%,20%)">pcc</text>
<text x="0.606" y="0.847" font-size="0.005923" fill="hsl(0.0,100%,20%)">lfy</text>
<text x="0.467" y="0.432" font-size="0.005923" fill="hsl(0.0,100%,20%)">cwallez</text>
<text x="1.312" y="0.699" font-size="0.036031" fill="hsl(0.0,100%,20%)">swiftshader.regress</text>
<text x="0.182" y="0.779" font-size="0.019646" fill="hsl(0.0,100%,20%)">zzyiwei</text>
</svg>
