<svg width="4000" height="2000" viewBox="-0.025 -0.025 2.05 1.05" xmlns="http://www.w3.org/2000/svg">
  <style>
    path {
      fill: none;
      stroke-linecap: round;
      stroke-opacity: 0.4;
    }

    text {
      text-anchor: middle;
      alignment-baseline: hanging;
    }
  </style>
  <g opacity="0.4">
<path d="M1.729 0.270 Q0.597 0.233 0.277 0.777" stroke="hsl(0.0,100%,35%)" stroke-width="0.02527"></path>
<path d="M1.729 0.270 Q1.392 0.366 1.506 0.551" stroke="hsl(0.0,100%,35%)" stroke-width="0.09330"></path>
<path d="M1.729 0.270 Q0.749 0.223 0.443 0.691" stroke="hsl(0.0,100%,35%)" stroke-width="0.01847"></path>
<path d="M1.729 0.270 Q1.840 0.185 1.700 0.112" stroke="hsl(0.0,100%,35%)" stroke-width="0.00777"></path>
<path d="M1.729 0.270 Q1.531 0.261 1.470 0.355" stroke="hsl(0.0,100%,35%)" stroke-width="0.00097"></path>
<path d="M1.729 0.270 Q1.887 0.255 1.892 0.174" stroke="hsl(0.0,100%,35%)" stroke-width="0.00097"></path>
<path d="M1.729 0.270 Q1.766 0.110 1.461 0.056" stroke="hsl(0.0,100%,35%)" stroke-width="0.00194"></path>
<path d="M1.729 0.270 Q1.668 0.160 1.441 0.165" stroke="hsl(0.0,100%,35%)" stroke-width="0.00097"></path>
<path d="M1.729 0.270 Q1.287 0.238 1.128 0.447" stroke="hsl(0.0,100%,35%)" stroke-width="0.00292"></path>
<path d="M1.729 0.270 Q1.818 0.323 1.941 0.291" stroke="hsl(0.0,100%,35%)" stroke-width="0.02721"></path>
<path d="M0.277 0.777 Q0.429 0.767 0.443 0.691" stroke="hsl(0.0,100%,35%)" stroke-width="0.04373"></path>
<path d="M0.277 0.777 Q0.295 0.869 0.479 0.880" stroke="hsl(0.0,100%,35%)" stroke-width="0.00194"></path>
<path d="M0.277 0.777 Q1.072 0.910 1.506 0.551" stroke="hsl(0.0,100%,35%)" stroke-width="0.01749"></path>
<path d="M0.277 0.777 Q1.498 0.867 1.941 0.291" stroke="hsl(0.0,100%,35%)" stroke-width="0.00097"></path>
<path d="M1.506 0.551 Q0.863 0.408 0.443 0.691" stroke="hsl(0.0,100%,35%)" stroke-width="0.05054"></path>
<path d="M1.506 0.551 Q0.711 0.418 0.277 0.777" stroke="hsl(0.0,100%,35%)" stroke-width="0.00194"></path>
<path d="M1.506 0.551 Q1.932 0.508 1.941 0.291" stroke="hsl(0.0,100%,35%)" stroke-width="0.00194"></path>
<path d="M0.443 0.691 Q1.086 0.834 1.506 0.551" stroke="hsl(0.0,100%,35%)" stroke-width="0.00486"></path>
<path d="M0.443 0.691 Q0.291 0.701 0.277 0.777" stroke="hsl(0.0,100%,35%)" stroke-width="0.00194"></path>
<path d="M0.443 0.691 Q1.534 0.653 1.700 0.112" stroke="hsl(0.0,100%,35%)" stroke-width="0.00097"></path>
<path d="M0.443 0.691 Q1.512 0.791 1.941 0.291" stroke="hsl(0.0,100%,35%)" stroke-width="0.00097"></path>
<path d="M0.909 0.576 Q1.227 0.683 1.506 0.551" stroke="hsl(0.0,100%,35%)" stroke-width="0.01361"></path>
<path d="M0.909 0.576 Q0.450 0.642 0.479 0.880" stroke="hsl(0.0,100%,35%)" stroke-width="0.00097"></path>
<path d="M0.909 0.576 Q0.584 0.540 0.443 0.691" stroke="hsl(0.0,100%,35%)" stroke-width="0.03013"></path>
<path d="M0.909 0.576 Q0.432 0.550 0.277 0.777" stroke="hsl(0.0,100%,35%)" stroke-width="0.00097"></path>
<path d="M0.226 0.619 Q0.277 0.698 0.443 0.691" stroke="hsl(0.0,100%,35%)" stroke-width="0.01458"></path>
<path d="M0.226 0.619 Q0.920 0.841 1.506 0.551" stroke="hsl(0.0,100%,35%)" stroke-width="0.00680"></path>
</g>
<text x="1.729" y="0.221" font-size="0.098033" fill="hsl(0.0,100%,20%)">capn</text>
<text x="0.277" y="0.742" font-size="0.070986" fill="hsl(0.0,100%,20%)">srisser</text>
<text x="1.506" y="0.501" font-size="0.100905" fill="hsl(0.0,100%,20%)">sugoi</text>
<text x="0.443" y="0.644" font-size="0.094250" fill="hsl(0.0,100%,20%)">nicolascapens</text>
<text x="1.700" y="0.102" font-size="0.021622" fill="hsl(0.0,100%,20%)">natsu</text>
<text x="1.470" y="0.352" font-size="0.007207" fill="hsl(0.0,100%,20%)">liyl</text>
<text x="1.892" y="0.171" font-size="0.007207" fill="hsl(0.0,100%,20%)">rosasco</text>
<text x="1.461" y="0.051" font-size="0.010193" fill="hsl(0.0,100%,20%)">cwallez</text>
<text x="1.441" y="0.162" font-size="0.007207" fill="hsl(0.0,100%,20%)">digit</text>
<text x="1.128" y="0.441" font-size="0.012484" fill="hsl(0.0,100%,20%)">chrisforbes</text>
<text x="1.941" y="0.271" font-size="0.040772" fill="hsl(0.0,100%,20%)">amaiorano</text>
<text x="0.479" y="0.874" font-size="0.012484" fill="hsl(0.0,100%,20%)">bclayton</text>
<text x="0.909" y="0.551" font-size="0.049412" fill="hsl(0.0,100%,20%)">swiftshader.regress</text>
<text x="0.226" y="0.602" font-size="0.033806" fill="hsl(0.0,100%,20%)">thakis</text>
</svg>
