<svg width="4000" height="2000" viewBox="-0.025 -0.025 2.05 1.05" xmlns="http://www.w3.org/2000/svg">
  <style>
    path {
      fill: none;
      stroke-linecap: round;
      stroke-opacity: 0.4;
    }

    text {
      text-anchor: middle;
      alignment-baseline: hanging;
    }
  </style>
  <g opacity="0.4">
<path d="M1.225 0.820 Q1.457 0.825 1.519 0.713" stroke="hsl(0.0,100%,35%)" stroke-width="0.11139"></path>
<path d="M1.225 0.820 Q1.001 0.772 0.860 0.871" stroke="hsl(0.0,100%,35%)" stroke-width="0.00097"></path>
<path d="M1.225 0.820 Q1.587 0.747 1.524 0.554" stroke="hsl(0.0,100%,35%)" stroke-width="0.00097"></path>
<path d="M1.225 0.820 Q1.527 0.647 1.257 0.462" stroke="hsl(0.0,100%,35%)" stroke-width="0.00194"></path>
<path d="M1.225 0.820 Q0.891 0.655 0.496 0.782" stroke="hsl(0.0,100%,35%)" stroke-width="0.01453"></path>
<path d="M1.225 0.820 Q1.696 0.830 1.820 0.603" stroke="hsl(0.0,100%,35%)" stroke-width="0.00484"></path>
<path d="M1.225 0.820 Q1.099 0.835 1.103 0.900" stroke="hsl(0.0,100%,35%)" stroke-width="0.00097"></path>
<path d="M1.225 0.820 Q1.078 0.774 0.955 0.835" stroke="hsl(0.0,100%,35%)" stroke-width="0.00097"></path>
<path d="M1.225 0.820 Q0.933 0.640 0.519 0.743" stroke="hsl(0.0,100%,35%)" stroke-width="0.00097"></path>
<path d="M1.225 0.820 Q1.176 0.699 0.929 0.696" stroke="hsl(0.0,100%,35%)" stroke-width="0.00194"></path>
<path d="M1.519 0.713 Q1.648 0.635 1.524 0.554" stroke="hsl(0.0,100%,35%)" stroke-width="0.08427"></path>
<path d="M1.519 0.713 Q1.588 0.535 1.257 0.462" stroke="hsl(0.0,100%,35%)" stroke-width="0.01066"></path>
<path d="M1.519 0.713 Q1.499 0.612 1.298 0.600" stroke="hsl(0.0,100%,35%)" stroke-width="0.00291"></path>
<path d="M1.519 0.713 Q1.412 0.596 1.161 0.623" stroke="hsl(0.0,100%,35%)" stroke-width="0.00581"></path>
<path d="M1.519 0.713 Q1.707 0.801 1.920 0.728" stroke="hsl(0.0,100%,35%)" stroke-width="0.00097"></path>
<path d="M1.519 0.713 Q1.757 0.718 1.820 0.603" stroke="hsl(0.0,100%,35%)" stroke-width="0.01356"></path>
<path d="M1.519 0.713 Q0.952 0.543 0.496 0.782" stroke="hsl(0.0,100%,35%)" stroke-width="0.00291"></path>
<path d="M1.257 0.462 Q1.073 0.350 0.815 0.416" stroke="hsl(0.0,100%,35%)" stroke-width="0.00194"></path>
<path d="M1.257 0.462 Q1.187 0.640 1.519 0.713" stroke="hsl(0.0,100%,35%)" stroke-width="0.00581"></path>
<path d="M1.257 0.462 Q1.317 0.561 1.524 0.554" stroke="hsl(0.0,100%,35%)" stroke-width="0.01162"></path>
<path d="M0.496 0.782 Q1.301 0.957 1.820 0.603" stroke="hsl(0.0,100%,35%)" stroke-width="0.00097"></path>
<path d="M0.496 0.782 Q1.063 0.952 1.519 0.713" stroke="hsl(0.0,100%,35%)" stroke-width="0.00291"></path>
<path d="M0.496 0.782 Q1.192 0.873 1.524 0.554" stroke="hsl(0.0,100%,35%)" stroke-width="0.01259"></path>
<path d="M1.265 0.929 Q1.460 0.942 1.529 0.850" stroke="hsl(0.0,100%,35%)" stroke-width="0.00097"></path>
<path d="M1.265 0.929 Q1.695 0.794 1.524 0.554" stroke="hsl(0.0,100%,35%)" stroke-width="0.00097"></path>
<path d="M1.265 0.929 Q1.565 0.872 1.519 0.713" stroke="hsl(0.0,100%,35%)" stroke-width="0.00097"></path>
<path d="M1.060 0.318 Q0.974 0.607 1.519 0.713" stroke="hsl(0.0,100%,35%)" stroke-width="0.01066"></path>
<path d="M1.060 0.318 Q1.044 0.430 1.257 0.462" stroke="hsl(0.0,100%,35%)" stroke-width="0.00291"></path>
<path d="M1.060 0.318 Q0.407 0.437 0.496 0.782" stroke="hsl(0.0,100%,35%)" stroke-width="0.00097"></path>
<path d="M1.234 0.601 Q1.287 0.714 1.519 0.713" stroke="hsl(0.0,100%,35%)" stroke-width="0.06490"></path>
<path d="M1.234 0.601 Q1.417 0.636 1.524 0.554" stroke="hsl(0.0,100%,35%)" stroke-width="0.05134"></path>
<path d="M1.234 0.601 Q0.721 0.544 0.496 0.782" stroke="hsl(0.0,100%,35%)" stroke-width="0.00484"></path>
<path d="M1.234 0.601 Q1.006 0.588 0.929 0.696" stroke="hsl(0.0,100%,35%)" stroke-width="0.00097"></path>
</g>
<text x="1.225" y="0.780" font-size="0.080000" fill="hsl(0.0,100%,20%)">capn</text>
<text x="1.519" y="0.652" font-size="0.120738" fill="hsl(0.0,100%,20%)">sugoi</text>
<text x="0.860" y="0.868" font-size="0.006667" fill="hsl(0.0,100%,20%)">jmadill</text>
<text x="1.524" y="0.511" font-size="0.086152" fill="hsl(0.0,100%,20%)">nicolascapens</text>
<text x="1.257" y="0.442" font-size="0.040000" fill="hsl(0.0,100%,20%)">syoussefi</text>
<text x="0.496" y="0.760" font-size="0.042687" fill="hsl(0.0,100%,20%)">srisser</text>
<text x="1.820" y="0.588" font-size="0.029814" fill="hsl(0.0,100%,20%)">amaiorano</text>
<text x="1.103" y="0.897" font-size="0.006667" fill="hsl(0.0,100%,20%)">aeubanks</text>
<text x="0.955" y="0.832" font-size="0.006667" fill="hsl(0.0,100%,20%)">mikaelpessa</text>
<text x="0.519" y="0.740" font-size="0.006667" fill="hsl(0.0,100%,20%)">joshuaduong</text>
<text x="0.929" y="0.691" font-size="0.011547" fill="hsl(0.0,100%,20%)">natsu</text>
<text x="1.265" y="0.924" font-size="0.011547" fill="hsl(0.0,100%,20%)">ericcurtin17</text>
<text x="1.529" y="0.847" font-size="0.006667" fill="hsl(0.0,100%,20%)">caramelli.devel</text>
<text x="1.060" y="0.305" font-size="0.025820" fill="hsl(0.0,100%,20%)">nicolas.capens</text>
<text x="1.298" y="0.594" font-size="0.011547" fill="hsl(0.0,100%,20%)">jonahr</text>
<text x="1.161" y="0.615" font-size="0.016330" fill="hsl(0.0,100%,20%)">bclayton</text>
<text x="1.920" y="0.725" font-size="0.006667" fill="hsl(0.0,100%,20%)">geofflang</text>
<text x="1.234" y="0.564" font-size="0.074833" fill="hsl(0.0,100%,20%)">swiftshader.regress</text>
<text x="0.815" y="0.411" font-size="0.009428" fill="hsl(0.0,100%,20%)">chrisforbes</text>
</svg>
