<svg width="4000" height="2000" viewBox="-0.025 -0.025 2.05 1.05" xmlns="http://www.w3.org/2000/svg">
  <style>
    path {
      fill: none;
      stroke-linecap: round;
      stroke-opacity: 0.4;
    }

    text {
      text-anchor: middle;
      alignment-baseline: hanging;
    }
  </style>
  <g opacity="0.4">
<path d="M1.028 0.917 Q1.406 0.850 1.358 0.651" stroke="hsl(0.0,100%,35%)" stroke-width="0.00523"></path>
<path d="M1.028 0.917 Q1.038 0.542 0.308 0.455" stroke="hsl(0.0,100%,35%)" stroke-width="0.00698"></path>
<path d="M1.028 0.917 Q1.271 0.902 1.296 0.781" stroke="hsl(0.0,100%,35%)" stroke-width="0.00698"></path>
<path d="M1.028 0.917 Q1.470 0.569 0.888 0.277" stroke="hsl(0.0,100%,35%)" stroke-width="0.01047"></path>
<path d="M1.028 0.917 Q0.919 0.906 0.875 0.957" stroke="hsl(0.0,100%,35%)" stroke-width="0.00174"></path>
<path d="M1.028 0.917 Q1.038 0.681 0.580 0.624" stroke="hsl(0.0,100%,35%)" stroke-width="0.00174"></path>
<path d="M0.308 0.455 Q0.530 0.413 0.498 0.296" stroke="hsl(180.0,100%,35%)" stroke-width="0.00349"></path>
<path d="M0.308 0.455 Q0.308 0.594 0.580 0.624" stroke="hsl(180.0,100%,35%)" stroke-width="0.00698"></path>
<path d="M0.308 0.455 Q0.407 0.741 0.988 0.756" stroke="hsl(180.0,100%,35%)" stroke-width="0.01570"></path>
<path d="M0.580 0.624 Q0.679 0.771 0.988 0.756" stroke="hsl(180.0,100%,35%)" stroke-width="0.06106"></path>
<path d="M0.580 0.624 Q0.580 0.485 0.308 0.455" stroke="hsl(180.0,100%,35%)" stroke-width="0.01919"></path>
<path d="M0.580 0.624 Q0.856 0.476 0.626 0.308" stroke="hsl(180.0,100%,35%)" stroke-width="0.00523"></path>
<path d="M0.580 0.624 Q0.570 0.860 1.028 0.917" stroke="hsl(180.0,100%,35%)" stroke-width="0.01047"></path>
<path d="M0.580 0.624 Q0.948 0.793 1.358 0.651" stroke="hsl(180.0,100%,35%)" stroke-width="0.00174"></path>
<path d="M0.580 0.624 Q1.012 0.512 0.888 0.277" stroke="hsl(180.0,100%,35%)" stroke-width="0.02442"></path>
<path d="M0.107 0.665 Q0.376 0.739 0.580 0.624" stroke="hsl(180.0,100%,35%)" stroke-width="0.06455"></path>
<path d="M0.107 0.665 Q0.217 0.780 0.467 0.752" stroke="hsl(180.0,100%,35%)" stroke-width="0.00174"></path>
<path d="M0.107 0.665 Q0.475 0.886 0.988 0.756" stroke="hsl(180.0,100%,35%)" stroke-width="0.00174"></path>
<path d="M0.107 0.665 Q0.375 0.600 0.308 0.455" stroke="hsl(180.0,100%,35%)" stroke-width="0.00174"></path>
<path d="M0.769 0.937 Q1.461 0.848 1.439 0.491" stroke="hsl(0.0,100%,35%)" stroke-width="0.00174"></path>
<path d="M0.769 0.937 Q0.915 0.979 1.028 0.917" stroke="hsl(0.0,100%,35%)" stroke-width="0.02966"></path>
<path d="M0.769 0.937 Q1.293 0.912 1.358 0.651" stroke="hsl(0.0,100%,35%)" stroke-width="0.00523"></path>
<path d="M1.439 0.491 Q1.270 0.555 1.358 0.651" stroke="hsl(0.0,100%,35%)" stroke-width="0.01221"></path>
<path d="M1.439 0.491 Q1.124 0.205 0.498 0.296" stroke="hsl(0.0,100%,35%)" stroke-width="0.00174"></path>
<path d="M1.439 0.491 Q0.747 0.580 0.769 0.937" stroke="hsl(0.0,100%,35%)" stroke-width="0.00349"></path>
<path d="M1.439 0.491 Q1.002 0.533 0.988 0.756" stroke="hsl(0.0,100%,35%)" stroke-width="0.00174"></path>
<path d="M0.960 0.545 Q0.697 0.745 1.028 0.917" stroke="hsl(180.0,100%,35%)" stroke-width="0.00174"></path>
<path d="M0.960 0.545 Q0.706 0.509 0.580 0.624" stroke="hsl(180.0,100%,35%)" stroke-width="0.05583"></path>
<path d="M0.960 0.545 Q0.805 0.656 0.988 0.756" stroke="hsl(180.0,100%,35%)" stroke-width="0.02268"></path>
</g>
<text x="1.028" y="0.886" font-size="0.062240" fill="hsl(0.0,100%,20%)">bclayton</text>
<text x="1.358" y="0.633" font-size="0.035514" fill="hsl(0.0,100%,20%)">geofflang</text>
<text x="0.308" y="0.428" font-size="0.052847" fill="hsl(180.0,100%,20%)">syoussefi</text>
<text x="1.296" y="0.771" font-size="0.018983" fill="hsl(0.0,100%,20%)">cwallez</text>
<text x="0.888" y="0.255" font-size="0.042448" fill="hsl(0.0,100%,20%)">amaiorano</text>
<text x="0.875" y="0.953" font-size="0.009492" fill="hsl(0.0,100%,20%)">dneto</text>
<text x="0.580" y="0.567" font-size="0.113899" fill="hsl(180.0,100%,20%)">sugoi</text>
<text x="0.107" y="0.635" font-size="0.060030" fill="hsl(180.0,100%,20%)">capn</text>
<text x="0.467" y="0.747" font-size="0.009492" fill="hsl(180.0,100%,20%)">jmadill</text>
<text x="0.988" y="0.719" font-size="0.072906" fill="hsl(180.0,100%,20%)">nicolascapens</text>
<text x="0.769" y="0.915" font-size="0.045520" fill="hsl(0.0,100%,20%)">jif</text>
<text x="1.439" y="0.475" font-size="0.032880" fill="hsl(0.0,100%,20%)">natsu</text>
<text x="0.498" y="0.288" font-size="0.016440" fill="hsl(0.0,100%,20%)">chrisforbes</text>
<text x="0.626" y="0.300" font-size="0.016440" fill="hsl(180.0,100%,20%)">jonahr</text>
<text x="0.960" y="0.513" font-size="0.064375" fill="hsl(180.0,100%,20%)">swiftshader.regress</text>
</svg>
