<svg width="4000" height="2000" viewBox="-0.025 -0.025 2.05 1.05" xmlns="http://www.w3.org/2000/svg">
  <style>
    path {
      fill: none;
      stroke-linecap: round;
      stroke-opacity: 0.4;
    }

    text {
      text-anchor: middle;
      alignment-baseline: hanging;
    }
  </style>
  <g opacity="0.4">
<path d="M1.717 0.402 Q1.606 0.208 1.204 0.219" stroke="hsl(0.0,100%,35%)" stroke-width="0.00197"></path>
<path d="M1.717 0.402 Q1.409 0.180 0.909 0.282" stroke="hsl(0.0,100%,35%)" stroke-width="0.00098"></path>
<path d="M1.717 0.402 Q1.114 0.142 0.476 0.379" stroke="hsl(0.0,100%,35%)" stroke-width="0.00098"></path>
<path d="M1.204 0.219 Q1.006 0.192 0.909 0.282" stroke="hsl(0.0,100%,35%)" stroke-width="0.00394"></path>
<path d="M1.204 0.219 Q1.021 0.103 0.755 0.167" stroke="hsl(0.0,100%,35%)" stroke-width="0.00295"></path>
<path d="M1.204 0.219 Q0.660 0.265 0.630 0.540" stroke="hsl(0.0,100%,35%)" stroke-width="0.00098"></path>
<path d="M1.087 0.421 Q1.109 0.316 0.909 0.282" stroke="hsl(0.0,100%,35%)" stroke-width="0.15351"></path>
<path d="M1.087 0.421 Q1.125 0.228 0.755 0.167" stroke="hsl(0.0,100%,35%)" stroke-width="0.04723"></path>
<path d="M1.087 0.421 Q0.983 0.086 0.306 0.063" stroke="hsl(0.0,100%,35%)" stroke-width="0.00098"></path>
<path d="M1.087 0.421 Q1.071 0.580 1.376 0.622" stroke="hsl(0.0,100%,35%)" stroke-width="0.00098"></path>
<path d="M1.087 0.421 Q0.764 0.389 0.630 0.540" stroke="hsl(0.0,100%,35%)" stroke-width="0.00787"></path>
<path d="M1.087 0.421 Q0.728 0.188 0.195 0.312" stroke="hsl(0.0,100%,35%)" stroke-width="0.00295"></path>
<path d="M1.087 0.421 Q1.307 0.344 1.204 0.219" stroke="hsl(0.0,100%,35%)" stroke-width="0.01574"></path>
<path d="M1.087 0.421 Q0.959 0.521 1.126 0.606" stroke="hsl(0.0,100%,35%)" stroke-width="0.00098"></path>
<path d="M1.087 0.421 Q0.846 0.464 0.875 0.591" stroke="hsl(0.0,100%,35%)" stroke-width="0.00098"></path>
<path d="M1.087 0.421 Q1.029 0.329 0.837 0.337" stroke="hsl(0.0,100%,35%)" stroke-width="0.00197"></path>
<path d="M0.755 0.167 Q0.938 0.283 1.204 0.219" stroke="hsl(0.0,100%,35%)" stroke-width="0.03543"></path>
<path d="M0.755 0.167 Q0.446 0.217 0.476 0.379" stroke="hsl(0.0,100%,35%)" stroke-width="0.00394"></path>
<path d="M0.755 0.167 Q0.740 0.255 0.909 0.282" stroke="hsl(0.0,100%,35%)" stroke-width="0.01181"></path>
<path d="M1.521 0.119 Q1.085 0.078 0.909 0.282" stroke="hsl(0.0,100%,35%)" stroke-width="0.03739"></path>
<path d="M1.521 0.119 Q1.282 0.105 1.204 0.219" stroke="hsl(0.0,100%,35%)" stroke-width="0.05117"></path>
<path d="M1.521 0.119 Q0.739 0.151 0.630 0.540" stroke="hsl(0.0,100%,35%)" stroke-width="0.00098"></path>
<path d="M1.521 0.119 Q1.100 -0.010 0.755 0.167" stroke="hsl(0.0,100%,35%)" stroke-width="0.00098"></path>
<path d="M1.521 0.119 Q0.790 0.040 0.476 0.379" stroke="hsl(0.0,100%,35%)" stroke-width="0.00098"></path>
<path d="M1.397 0.428 Q1.468 0.285 1.204 0.219" stroke="hsl(0.0,100%,35%)" stroke-width="0.01476"></path>
<path d="M1.397 0.428 Q1.270 0.258 0.909 0.282" stroke="hsl(0.0,100%,35%)" stroke-width="0.00689"></path>
<path d="M1.343 0.780 Q1.722 0.472 1.204 0.219" stroke="hsl(0.0,100%,35%)" stroke-width="0.00098"></path>
<path d="M1.343 0.780 Q1.505 0.846 1.670 0.781" stroke="hsl(0.0,100%,35%)" stroke-width="0.00098"></path>
<path d="M1.343 0.780 Q1.524 0.444 0.909 0.282" stroke="hsl(0.0,100%,35%)" stroke-width="0.00098"></path>
</g>
<text x="1.717" y="0.395" font-size="0.013818" fill="hsl(0.0,100%,20%)">andre.kempe</text>
<text x="1.204" y="0.180" font-size="0.078773" fill="hsl(0.0,100%,20%)">nicolascapens</text>
<text x="0.909" y="0.231" font-size="0.102242" fill="hsl(0.0,100%,20%)">sugoi</text>
<text x="0.476" y="0.371" font-size="0.016923" fill="hsl(0.0,100%,20%)">bclayton</text>
<text x="1.087" y="0.368" font-size="0.106361" fill="hsl(0.0,100%,20%)">capn</text>
<text x="0.755" y="0.132" font-size="0.070457" fill="hsl(0.0,100%,20%)">srisser</text>
<text x="0.306" y="0.060" font-size="0.006909" fill="hsl(0.0,100%,20%)">mikaelpessa</text>
<text x="1.376" y="0.618" font-size="0.006909" fill="hsl(0.0,100%,20%)">joshuaduong</text>
<text x="0.630" y="0.529" font-size="0.021848" fill="hsl(0.0,100%,20%)">natsu</text>
<text x="0.195" y="0.306" font-size="0.011967" fill="hsl(0.0,100%,20%)">amaiorano</text>
<text x="1.126" y="0.602" font-size="0.006909" fill="hsl(0.0,100%,20%)">liyl</text>
<text x="0.875" y="0.587" font-size="0.006909" fill="hsl(0.0,100%,20%)">rosasco</text>
<text x="0.837" y="0.332" font-size="0.009771" fill="hsl(0.0,100%,20%)">cwallez</text>
<text x="1.521" y="0.086" font-size="0.066627" fill="hsl(0.0,100%,20%)">swiftshader.regress</text>
<text x="1.397" y="0.412" font-size="0.032406" fill="hsl(0.0,100%,20%)">thakis</text>
<text x="1.343" y="0.774" font-size="0.011967" fill="hsl(0.0,100%,20%)">tho.laroche</text>
<text x="1.670" y="0.778" font-size="0.006909" fill="hsl(0.0,100%,20%)">penghuang</text>
</svg>
