<svg width="4000" height="2000" viewBox="-0.025 -0.025 2.05 1.05" xmlns="http://www.w3.org/2000/svg">
  <style>
    path {
      fill: none;
      stroke-linecap: round;
      stroke-opacity: 0.4;
    }

    text {
      text-anchor: middle;
      alignment-baseline: hanging;
    }
  </style>
  <g opacity="0.4">
<path d="M0.905 0.104 Q0.479 0.262 0.693 0.504" stroke="hsl(0.0,100%,35%)" stroke-width="0.01636"></path>
<path d="M0.905 0.104 Q1.049 0.194 1.258 0.144" stroke="hsl(0.0,100%,35%)" stroke-width="0.04909"></path>
<path d="M0.905 0.104 Q0.112 0.269 0.260 0.692" stroke="hsl(0.0,100%,35%)" stroke-width="0.01636"></path>
<path d="M0.905 0.104 Q0.692 0.098 0.635 0.201" stroke="hsl(0.0,100%,35%)" stroke-width="0.04363"></path>
<path d="M0.905 0.104 Q0.831 0.343 1.281 0.432" stroke="hsl(0.0,100%,35%)" stroke-width="0.00545"></path>
<path d="M0.693 0.504 Q1.119 0.346 0.905 0.104" stroke="hsl(0.0,100%,35%)" stroke-width="0.00545"></path>
<path d="M0.693 0.504 Q0.326 0.512 0.260 0.692" stroke="hsl(0.0,100%,35%)" stroke-width="0.01636"></path>
<path d="M0.693 0.504 Q0.893 0.558 1.042 0.472" stroke="hsl(0.0,100%,35%)" stroke-width="0.01091"></path>
<path d="M0.693 0.504 Q1.264 0.437 1.258 0.144" stroke="hsl(0.0,100%,35%)" stroke-width="0.01091"></path>
<path d="M0.693 0.504 Q0.940 0.451 0.891 0.320" stroke="hsl(0.0,100%,35%)" stroke-width="0.00545"></path>
<path d="M0.260 0.692 Q0.155 0.761 0.266 0.828" stroke="hsl(120.0,100%,35%)" stroke-width="0.02727"></path>
<path d="M0.260 0.692 Q0.827 0.739 1.042 0.472" stroke="hsl(120.0,100%,35%)" stroke-width="0.00545"></path>
<path d="M0.260 0.692 Q0.365 0.869 0.733 0.857" stroke="hsl(120.0,100%,35%)" stroke-width="0.02727"></path>
<path d="M0.260 0.692 Q1.187 0.872 1.742 0.459" stroke="hsl(120.0,100%,35%)" stroke-width="0.00545"></path>
<path d="M0.260 0.692 Q0.979 0.766 1.281 0.432" stroke="hsl(120.0,100%,35%)" stroke-width="0.00545"></path>
<path d="M0.265 0.044 Q-0.034 0.179 0.163 0.354" stroke="hsl(240.0,100%,35%)" stroke-width="0.01091"></path>
<path d="M0.265 0.044 Q0.537 0.202 0.905 0.104" stroke="hsl(240.0,100%,35%)" stroke-width="0.00545"></path>
<path d="M0.265 0.044 Q0.147 0.093 0.216 0.161" stroke="hsl(240.0,100%,35%)" stroke-width="0.01091"></path>
<path d="M0.163 0.354 Q0.238 0.793 1.110 0.853" stroke="hsl(240.0,100%,35%)" stroke-width="0.00545"></path>
<path d="M0.163 0.354 Q0.133 0.429 0.272 0.460" stroke="hsl(240.0,100%,35%)" stroke-width="0.00545"></path>
<path d="M0.163 0.354 Q0.879 0.468 1.258 0.144" stroke="hsl(240.0,100%,35%)" stroke-width="0.00545"></path>
<path d="M0.163 0.354 Q0.735 0.377 0.905 0.104" stroke="hsl(240.0,100%,35%)" stroke-width="0.01091"></path>
<path d="M0.163 0.354 Q0.344 0.352 0.380 0.264" stroke="hsl(240.0,100%,35%)" stroke-width="0.00545"></path>
<path d="M0.163 0.354 Q0.046 0.720 0.733 0.857" stroke="hsl(240.0,100%,35%)" stroke-width="0.00545"></path>
<path d="M1.742 0.459 Q0.814 0.279 0.260 0.692" stroke="hsl(120.0,100%,35%)" stroke-width="0.01636"></path>
<path d="M1.742 0.459 Q1.533 0.353 1.281 0.432" stroke="hsl(120.0,100%,35%)" stroke-width="0.02727"></path>
<path d="M1.742 0.459 Q1.364 0.411 1.187 0.584" stroke="hsl(120.0,100%,35%)" stroke-width="0.01636"></path>
<path d="M1.136 0.714 Q1.011 0.778 1.110 0.853" stroke="hsl(120.0,100%,35%)" stroke-width="0.01091"></path>
<path d="M1.136 0.714 Q0.610 0.597 0.266 0.828" stroke="hsl(120.0,100%,35%)" stroke-width="0.00545"></path>
<path d="M1.136 0.714 Q1.434 0.602 1.281 0.432" stroke="hsl(120.0,100%,35%)" stroke-width="0.00545"></path>
<path d="M1.136 0.714 Q1.508 0.363 0.905 0.104" stroke="hsl(120.0,100%,35%)" stroke-width="0.00545"></path>
<path d="M1.136 0.714 Q0.715 0.528 0.260 0.692" stroke="hsl(120.0,100%,35%)" stroke-width="0.00545"></path>
<path d="M1.507 0.256 Q1.055 -0.098 0.265 0.044" stroke="hsl(240.0,100%,35%)" stroke-width="0.01636"></path>
<path d="M1.507 0.256 Q1.445 0.197 1.318 0.215" stroke="hsl(240.0,100%,35%)" stroke-width="0.02727"></path>
<path d="M1.507 0.256 Q1.579 0.317 1.715 0.296" stroke="hsl(240.0,100%,35%)" stroke-width="0.01091"></path>
<path d="M1.507 0.256 Q0.756 0.036 0.163 0.354" stroke="hsl(240.0,100%,35%)" stroke-width="0.00545"></path>
</g>
<text x="0.905" y="0.063" font-size="0.082123" fill="hsl(0.0,100%,20%)">clemensb</text>
<text x="0.693" y="0.478" font-size="0.052827" fill="hsl(0.0,100%,20%)">machenbach</text>
<text x="1.258" y="0.117" font-size="0.052827" fill="hsl(0.0,100%,20%)">mliedtke</text>
<text x="0.260" y="0.656" font-size="0.073136" fill="hsl(120.0,100%,20%)">leszeks</text>
<text x="0.635" y="0.179" font-size="0.043133" fill="hsl(0.0,100%,20%)">dlehmann</text>
<text x="1.281" y="0.410" font-size="0.043133" fill="hsl(120.0,100%,20%)">pthier</text>
<text x="0.265" y="0.022" font-size="0.043133" fill="hsl(240.0,100%,20%)">kasperl</text>
<text x="0.163" y="0.330" font-size="0.048224" fill="hsl(240.0,100%,20%)">thibaudm</text>
<text x="0.216" y="0.150" font-size="0.021567" fill="hsl(240.0,100%,20%)">dinfuehr</text>
<text x="0.266" y="0.809" font-size="0.037354" fill="hsl(120.0,100%,20%)">mlippautz</text>
<text x="1.042" y="0.459" font-size="0.026414" fill="hsl(0.0,100%,20%)">nicohartmann</text>
<text x="0.733" y="0.838" font-size="0.037354" fill="hsl(120.0,100%,20%)">ishell</text>
<text x="1.742" y="0.433" font-size="0.052827" fill="hsl(120.0,100%,20%)">victorgomes</text>
<text x="0.891" y="0.312" font-size="0.015250" fill="hsl(0.0,100%,20%)">omerkatz</text>
<text x="1.136" y="0.695" font-size="0.037354" fill="hsl(120.0,100%,20%)">nikolaos</text>
<text x="1.110" y="0.839" font-size="0.026414" fill="hsl(120.0,100%,20%)">cbruni</text>
<text x="0.272" y="0.452" font-size="0.015250" fill="hsl(240.0,100%,20%)">jkummerow</text>
<text x="0.380" y="0.256" font-size="0.015250" fill="hsl(240.0,100%,20%)">jgruber</text>
<text x="1.187" y="0.571" font-size="0.026414" fill="hsl(120.0,100%,20%)">dmercadier</text>
<text x="1.507" y="0.230" font-size="0.050578" fill="hsl(240.0,100%,20%)">zhijin.zeng</text>
<text x="1.318" y="0.198" font-size="0.034100" fill="hsl(240.0,100%,20%)">yahan</text>
<text x="1.715" y="0.285" font-size="0.021567" fill="hsl(240.0,100%,20%)">qiuji</text>
</svg>
