<svg width="4000" height="2000" viewBox="-0.025 -0.025 2.05 1.05" xmlns="http://www.w3.org/2000/svg">
  <style>
    path {
      fill: none;
      stroke-linecap: round;
      stroke-opacity: 0.4;
    }

    text {
      text-anchor: middle;
      alignment-baseline: hanging;
    }
  </style>
  <g opacity="0.4">
<path d="M1.606 0.280 Q1.785 0.309 1.881 0.228" stroke="hsl(0.0,100%,35%)" stroke-width="0.03229"></path>
<path d="M1.606 0.280 Q1.494 0.195 1.304 0.231" stroke="hsl(0.0,100%,35%)" stroke-width="0.01614"></path>
<path d="M1.606 0.280 Q1.668 0.244 1.612 0.206" stroke="hsl(0.0,100%,35%)" stroke-width="0.01614"></path>
<path d="M1.606 0.280 Q1.541 0.381 1.724 0.435" stroke="hsl(0.0,100%,35%)" stroke-width="0.00807"></path>
<path d="M1.606 0.280 Q1.164 0.365 1.234 0.599" stroke="hsl(0.0,100%,35%)" stroke-width="0.00807"></path>
<path d="M1.612 0.206 Q1.549 0.242 1.606 0.280" stroke="hsl(0.0,100%,35%)" stroke-width="0.04843"></path>
<path d="M1.612 0.206 Q0.914 -0.021 0.318 0.270" stroke="hsl(0.0,100%,35%)" stroke-width="0.00807"></path>
<path d="M1.612 0.206 Q1.728 0.271 1.881 0.228" stroke="hsl(0.0,100%,35%)" stroke-width="0.00807"></path>
<path d="M0.968 0.346 Q1.519 0.470 1.881 0.228" stroke="hsl(180.0,100%,35%)" stroke-width="0.00807"></path>
<path d="M0.968 0.346 Q0.645 0.434 0.744 0.610" stroke="hsl(180.0,100%,35%)" stroke-width="0.05650"></path>
<path d="M0.968 0.346 Q0.784 0.293 0.640 0.372" stroke="hsl(180.0,100%,35%)" stroke-width="0.04843"></path>
<path d="M0.968 0.346 Q1.090 0.246 0.921 0.164" stroke="hsl(180.0,100%,35%)" stroke-width="0.05650"></path>
<path d="M0.302 0.163 Q0.512 0.181 0.594 0.083" stroke="hsl(0.0,100%,35%)" stroke-width="0.00807"></path>
<path d="M0.302 0.163 Q1.039 0.511 1.881 0.228" stroke="hsl(0.0,100%,35%)" stroke-width="0.00807"></path>
<path d="M0.302 0.163 Q0.224 0.220 0.318 0.270" stroke="hsl(0.0,100%,35%)" stroke-width="0.00807"></path>
<path d="M0.748 0.846 Q1.518 0.650 1.304 0.231" stroke="hsl(0.0,100%,35%)" stroke-width="0.00807"></path>
<path d="M0.748 0.846 Q0.735 0.961 0.957 0.993" stroke="hsl(0.0,100%,35%)" stroke-width="0.02422"></path>
<path d="M0.748 0.846 Q0.680 0.762 0.501 0.777" stroke="hsl(0.0,100%,35%)" stroke-width="0.00807"></path>
<path d="M1.910 0.831 Q1.753 0.812 1.682 0.884" stroke="hsl(0.0,100%,35%)" stroke-width="0.01614"></path>
<path d="M1.910 0.831 Q1.967 0.718 1.759 0.665" stroke="hsl(0.0,100%,35%)" stroke-width="0.00807"></path>
<path d="M1.910 0.831 Q1.304 0.721 0.957 0.993" stroke="hsl(0.0,100%,35%)" stroke-width="0.00807"></path>
<path d="M1.759 0.665 Q1.549 0.527 1.234 0.599" stroke="hsl(0.0,100%,35%)" stroke-width="0.00807"></path>
<path d="M1.759 0.665 Q1.354 0.179 0.318 0.270" stroke="hsl(0.0,100%,35%)" stroke-width="0.00807"></path>
<path d="M1.759 0.665 Q1.878 0.357 1.304 0.231" stroke="hsl(0.0,100%,35%)" stroke-width="0.00807"></path>
</g>
<text x="1.606" y="0.242" font-size="0.076980" fill="hsl(0.0,100%,20%)">clemensb</text>
<text x="1.881" y="0.203" font-size="0.050918" fill="hsl(0.0,100%,20%)">jkummerow</text>
<text x="1.304" y="0.212" font-size="0.038490" fill="hsl(0.0,100%,20%)">leszeks</text>
<text x="1.612" y="0.175" font-size="0.060858" fill="hsl(0.0,100%,20%)">thibaudm</text>
<text x="1.724" y="0.425" font-size="0.019245" fill="hsl(0.0,100%,20%)">ahaas</text>
<text x="1.234" y="0.586" font-size="0.027217" fill="hsl(0.0,100%,20%)">machenbach</text>
<text x="0.968" y="0.302" font-size="0.088192" fill="hsl(180.0,100%,20%)">floitsch</text>
<text x="0.744" y="0.585" font-size="0.050918" fill="hsl(180.0,100%,20%)">kasperl</text>
<text x="0.640" y="0.348" font-size="0.047140" fill="hsl(180.0,100%,20%)">qiuji</text>
<text x="0.921" y="0.138" font-size="0.050918" fill="hsl(180.0,100%,20%)">yahan</text>
<text x="0.302" y="0.146" font-size="0.033333" fill="hsl(0.0,100%,20%)">jkim</text>
<text x="0.594" y="0.073" font-size="0.019245" fill="hsl(0.0,100%,20%)">dlehmann</text>
<text x="0.318" y="0.253" font-size="0.033333" fill="hsl(0.0,100%,20%)">mliedtke</text>
<text x="0.748" y="0.825" font-size="0.043033" fill="hsl(0.0,100%,20%)">marja</text>
<text x="0.957" y="0.973" font-size="0.038490" fill="hsl(0.0,100%,20%)">victorgomes</text>
<text x="0.501" y="0.767" font-size="0.019245" fill="hsl(0.0,100%,20%)">olivf</text>
<text x="1.910" y="0.812" font-size="0.038490" fill="hsl(0.0,100%,20%)">mfarazma</text>
<text x="1.682" y="0.871" font-size="0.027217" fill="hsl(0.0,100%,20%)">junyan1</text>
<text x="1.759" y="0.646" font-size="0.038490" fill="hsl(0.0,100%,20%)">nicohartmann</text>
</svg>
