<svg width="4000" height="2000" viewBox="-0.025 -0.025 2.05 1.05" xmlns="http://www.w3.org/2000/svg">
  <style>
    path {
      fill: none;
      stroke-linecap: round;
      stroke-opacity: 0.4;
    }

    text {
      text-anchor: middle;
      alignment-baseline: hanging;
    }
  </style>
  <g opacity="0.4">
<path d="M0.807 0.324 Q0.963 0.333 1.015 0.259" stroke="hsl(0.0,100%,35%)" stroke-width="0.01411"></path>
<path d="M0.807 0.324 Q1.092 0.369 1.243 0.241" stroke="hsl(0.0,100%,35%)" stroke-width="0.00326"></path>
<path d="M0.807 0.324 Q0.381 0.392 0.421 0.615" stroke="hsl(0.0,100%,35%)" stroke-width="0.00543"></path>
<path d="M0.807 0.324 Q0.737 0.500 1.066 0.573" stroke="hsl(0.0,100%,35%)" stroke-width="0.00868"></path>
<path d="M0.807 0.324 Q0.963 0.772 1.872 0.794" stroke="hsl(0.0,100%,35%)" stroke-width="0.00109"></path>
<path d="M0.807 0.324 Q0.206 0.344 0.114 0.641" stroke="hsl(0.0,100%,35%)" stroke-width="0.00434"></path>
<path d="M0.807 0.324 Q0.592 0.743 1.364 0.940" stroke="hsl(0.0,100%,35%)" stroke-width="0.00109"></path>
<path d="M0.807 0.324 Q1.113 0.706 1.926 0.641" stroke="hsl(0.0,100%,35%)" stroke-width="0.00109"></path>
<path d="M1.015 0.259 Q0.626 0.105 0.241 0.261" stroke="hsl(0.0,100%,35%)" stroke-width="0.00326"></path>
<path d="M1.015 0.259 Q0.859 0.250 0.807 0.324" stroke="hsl(0.0,100%,35%)" stroke-width="0.00217"></path>
<path d="M1.015 0.259 Q0.944 0.328 1.063 0.377" stroke="hsl(0.0,100%,35%)" stroke-width="0.00109"></path>
<path d="M1.243 0.241 Q0.958 0.195 0.807 0.324" stroke="hsl(120.0,100%,35%)" stroke-width="0.00326"></path>
<path d="M1.243 0.241 Q0.533 0.263 0.421 0.615" stroke="hsl(120.0,100%,35%)" stroke-width="0.00543"></path>
<path d="M1.243 0.241 Q1.007 0.529 1.519 0.708" stroke="hsl(120.0,100%,35%)" stroke-width="0.00434"></path>
<path d="M1.243 0.241 Q1.114 0.204 1.015 0.259" stroke="hsl(120.0,100%,35%)" stroke-width="0.00326"></path>
<path d="M1.243 0.241 Q0.528 0.104 0.103 0.423" stroke="hsl(120.0,100%,35%)" stroke-width="0.00109"></path>
<path d="M1.243 0.241 Q0.744 0.615 1.364 0.940" stroke="hsl(120.0,100%,35%)" stroke-width="0.00109"></path>
<path d="M0.421 0.615 Q0.246 0.567 0.114 0.641" stroke="hsl(120.0,100%,35%)" stroke-width="0.01303"></path>
<path d="M0.421 0.615 Q0.614 0.402 0.241 0.261" stroke="hsl(120.0,100%,35%)" stroke-width="0.00977"></path>
<path d="M0.421 0.615 Q1.003 0.995 1.872 0.794" stroke="hsl(120.0,100%,35%)" stroke-width="0.00760"></path>
<path d="M0.421 0.615 Q0.895 0.881 1.519 0.708" stroke="hsl(120.0,100%,35%)" stroke-width="0.00217"></path>
<path d="M0.421 0.615 Q1.075 0.854 1.684 0.587" stroke="hsl(120.0,100%,35%)" stroke-width="0.00109"></path>
<path d="M0.421 0.615 Q0.980 0.792 1.448 0.558" stroke="hsl(120.0,100%,35%)" stroke-width="0.00109"></path>
<path d="M0.421 0.615 Q1.132 0.592 1.243 0.241" stroke="hsl(120.0,100%,35%)" stroke-width="0.00109"></path>
<path d="M0.421 0.615 Q0.632 0.966 1.364 0.940" stroke="hsl(120.0,100%,35%)" stroke-width="0.00109"></path>
<path d="M0.421 0.615 Q0.581 0.655 0.694 0.586" stroke="hsl(120.0,100%,35%)" stroke-width="0.00109"></path>
<path d="M0.421 0.615 Q1.003 0.556 1.015 0.259" stroke="hsl(120.0,100%,35%)" stroke-width="0.00217"></path>
<path d="M0.421 0.615 Q0.847 0.546 0.807 0.324" stroke="hsl(120.0,100%,35%)" stroke-width="0.00109"></path>
<path d="M0.421 0.615 Q0.785 0.600 0.836 0.419" stroke="hsl(120.0,100%,35%)" stroke-width="0.00109"></path>
<path d="M0.421 0.615 Q0.586 0.721 0.830 0.664" stroke="hsl(120.0,100%,35%)" stroke-width="0.00109"></path>
<path d="M0.421 0.615 Q0.675 0.583 0.669 0.453" stroke="hsl(120.0,100%,35%)" stroke-width="0.00109"></path>
<path d="M0.421 0.615 Q0.045 0.732 0.190 0.941" stroke="hsl(120.0,100%,35%)" stroke-width="0.00109"></path>
<path d="M1.066 0.573 Q0.921 0.816 1.364 0.940" stroke="hsl(0.0,100%,35%)" stroke-width="0.00109"></path>
<path d="M1.066 0.573 Q1.136 0.397 0.807 0.324" stroke="hsl(0.0,100%,35%)" stroke-width="0.00109"></path>
<path d="M1.066 0.573 Q1.221 0.474 1.063 0.377" stroke="hsl(0.0,100%,35%)" stroke-width="0.00109"></path>
<path d="M1.872 0.794 Q2.022 0.728 1.926 0.641" stroke="hsl(120.0,100%,35%)" stroke-width="0.02605"></path>
<path d="M1.872 0.794 Q1.483 0.201 0.241 0.261" stroke="hsl(120.0,100%,35%)" stroke-width="0.00217"></path>
<path d="M1.872 0.794 Q0.913 0.531 0.190 0.941" stroke="hsl(120.0,100%,35%)" stroke-width="0.00217"></path>
<path d="M1.872 0.794 Q1.499 0.334 0.520 0.416" stroke="hsl(120.0,100%,35%)" stroke-width="0.00109"></path>
<path d="M1.872 0.794 Q2.000 0.392 1.243 0.241" stroke="hsl(120.0,100%,35%)" stroke-width="0.00109"></path>
<path d="M0.114 0.641 Q0.058 0.707 0.173 0.748" stroke="hsl(120.0,100%,35%)" stroke-width="0.02714"></path>
<path d="M0.114 0.641 Q0.663 0.499 0.506 0.200" stroke="hsl(120.0,100%,35%)" stroke-width="0.00109"></path>
<path d="M0.114 0.641 Q0.428 0.625 0.464 0.468" stroke="hsl(120.0,100%,35%)" stroke-width="0.00434"></path>
<path d="M0.114 0.641 Q0.289 0.690 0.421 0.615" stroke="hsl(120.0,100%,35%)" stroke-width="0.00868"></path>
<path d="M0.114 0.641 Q0.284 0.530 0.103 0.423" stroke="hsl(120.0,100%,35%)" stroke-width="0.00217"></path>
<path d="M1.364 0.940 Q1.806 0.828 1.684 0.587" stroke="hsl(120.0,100%,35%)" stroke-width="0.01194"></path>
<path d="M1.364 0.940 Q1.627 0.855 1.519 0.708" stroke="hsl(120.0,100%,35%)" stroke-width="0.00543"></path>
<path d="M1.364 0.940 Q1.153 0.589 0.421 0.615" stroke="hsl(120.0,100%,35%)" stroke-width="0.00217"></path>
<path d="M1.364 0.940 Q1.318 0.695 0.830 0.664" stroke="hsl(120.0,100%,35%)" stroke-width="0.00109"></path>
<path d="M1.926 0.641 Q1.777 0.707 1.872 0.794" stroke="hsl(120.0,100%,35%)" stroke-width="0.00326"></path>
<path d="M1.926 0.641 Q1.848 0.566 1.684 0.587" stroke="hsl(120.0,100%,35%)" stroke-width="0.00651"></path>
<path d="M1.926 0.641 Q1.406 0.678 1.364 0.940" stroke="hsl(120.0,100%,35%)" stroke-width="0.00651"></path>
<path d="M1.926 0.641 Q1.195 0.327 0.421 0.615" stroke="hsl(120.0,100%,35%)" stroke-width="0.00434"></path>
<path d="M0.173 0.748 Q0.229 0.683 0.114 0.641" stroke="hsl(120.0,100%,35%)" stroke-width="0.01194"></path>
<path d="M0.173 0.748 Q1.057 0.970 1.684 0.587" stroke="hsl(120.0,100%,35%)" stroke-width="0.00651"></path>
<path d="M0.173 0.748 Q0.613 0.651 0.520 0.416" stroke="hsl(120.0,100%,35%)" stroke-width="0.00109"></path>
<path d="M0.173 0.748 Q0.543 0.666 0.464 0.468" stroke="hsl(120.0,100%,35%)" stroke-width="0.00109"></path>
<path d="M0.173 0.748 Q0.597 0.518 0.241 0.261" stroke="hsl(120.0,100%,35%)" stroke-width="0.00217"></path>
<path d="M0.173 0.748 Q0.615 1.082 1.364 0.940" stroke="hsl(120.0,100%,35%)" stroke-width="0.00760"></path>
<path d="M0.173 0.748 Q0.404 0.731 0.421 0.615" stroke="hsl(120.0,100%,35%)" stroke-width="0.00109"></path>
<path d="M0.173 0.748 Q0.986 1.111 1.872 0.794" stroke="hsl(120.0,100%,35%)" stroke-width="0.00109"></path>
<path d="M0.173 0.748 Q0.829 0.663 0.807 0.324" stroke="hsl(120.0,100%,35%)" stroke-width="0.00109"></path>
<path d="M0.173 0.748 Q0.188 0.844 0.380 0.858" stroke="hsl(120.0,100%,35%)" stroke-width="0.00109"></path>
<path d="M1.684 0.587 Q1.613 0.728 1.872 0.794" stroke="hsl(120.0,100%,35%)" stroke-width="0.01954"></path>
<path d="M1.684 0.587 Q1.031 0.349 0.421 0.615" stroke="hsl(120.0,100%,35%)" stroke-width="0.00651"></path>
<path d="M1.684 0.587 Q1.224 0.136 0.241 0.261" stroke="hsl(120.0,100%,35%)" stroke-width="0.00109"></path>
<path d="M1.684 0.587 Q1.242 0.700 1.364 0.940" stroke="hsl(120.0,100%,35%)" stroke-width="0.02497"></path>
<path d="M1.684 0.587 Q1.590 0.526 1.448 0.558" stroke="hsl(120.0,100%,35%)" stroke-width="0.00868"></path>
<path d="M1.684 0.587 Q1.741 0.326 1.243 0.241" stroke="hsl(120.0,100%,35%)" stroke-width="0.00109"></path>
<path d="M0.520 0.416 Q0.504 0.283 0.241 0.261" stroke="hsl(120.0,100%,35%)" stroke-width="0.00217"></path>
<path d="M0.520 0.416 Q0.136 0.447 0.114 0.641" stroke="hsl(120.0,100%,35%)" stroke-width="0.00217"></path>
<path d="M0.520 0.416 Q0.476 0.602 0.830 0.664" stroke="hsl(120.0,100%,35%)" stroke-width="0.00109"></path>
<path d="M0.520 0.416 Q0.686 0.305 0.506 0.200" stroke="hsl(120.0,100%,35%)" stroke-width="0.00109"></path>
<path d="M0.241 0.261 Q-0.127 0.426 0.114 0.641" stroke="hsl(120.0,100%,35%)" stroke-width="0.00217"></path>
<path d="M0.241 0.261 Q0.257 0.394 0.520 0.416" stroke="hsl(120.0,100%,35%)" stroke-width="0.00109"></path>
<path d="M0.241 0.261 Q0.702 0.713 1.684 0.587" stroke="hsl(120.0,100%,35%)" stroke-width="0.00217"></path>
<path d="M0.241 0.261 Q0.048 0.474 0.421 0.615" stroke="hsl(120.0,100%,35%)" stroke-width="0.00434"></path>
<path d="M0.241 0.261 Q0.422 0.283 0.506 0.200" stroke="hsl(120.0,100%,35%)" stroke-width="0.00217"></path>
<path d="M0.241 0.261 Q0.630 0.854 1.872 0.794" stroke="hsl(120.0,100%,35%)" stroke-width="0.00109"></path>
<path d="M0.241 0.261 Q0.302 0.443 0.669 0.453" stroke="hsl(120.0,100%,35%)" stroke-width="0.00109"></path>
<path d="M0.380 0.858 Q0.219 0.861 0.190 0.941" stroke="hsl(120.0,100%,35%)" stroke-width="0.00543"></path>
<path d="M0.380 0.858 Q0.420 0.697 0.114 0.641" stroke="hsl(120.0,100%,35%)" stroke-width="0.00326"></path>
<path d="M0.380 0.858 Q1.177 1.125 1.872 0.794" stroke="hsl(120.0,100%,35%)" stroke-width="0.00109"></path>
<path d="M0.380 0.858 Q1.021 0.676 0.807 0.324" stroke="hsl(120.0,100%,35%)" stroke-width="0.00109"></path>
<path d="M0.380 0.858 Q0.595 0.745 0.421 0.615" stroke="hsl(120.0,100%,35%)" stroke-width="0.00109"></path>
<path d="M1.063 0.377 Q0.717 0.474 0.830 0.664" stroke="hsl(0.0,100%,35%)" stroke-width="0.00543"></path>
<path d="M1.063 0.377 Q0.175 0.484 0.190 0.941" stroke="hsl(0.0,100%,35%)" stroke-width="0.00109"></path>
<path d="M1.063 0.377 Q1.133 0.309 1.015 0.259" stroke="hsl(0.0,100%,35%)" stroke-width="0.00109"></path>
<path d="M1.063 0.377 Q0.978 0.299 0.807 0.324" stroke="hsl(0.0,100%,35%)" stroke-width="0.00543"></path>
<path d="M1.063 0.377 Q1.284 0.682 1.926 0.641" stroke="hsl(0.0,100%,35%)" stroke-width="0.00109"></path>
<path d="M1.063 0.377 Q0.745 0.155 0.241 0.261" stroke="hsl(0.0,100%,35%)" stroke-width="0.00109"></path>
<path d="M1.519 0.708 Q1.045 0.442 0.421 0.615" stroke="hsl(120.0,100%,35%)" stroke-width="0.00217"></path>
<path d="M1.519 0.708 Q1.255 0.793 1.364 0.940" stroke="hsl(120.0,100%,35%)" stroke-width="0.00434"></path>
<path d="M1.519 0.708 Q1.776 0.756 1.926 0.641" stroke="hsl(120.0,100%,35%)" stroke-width="0.00109"></path>
<path d="M1.519 0.708 Q1.626 0.383 1.015 0.259" stroke="hsl(120.0,100%,35%)" stroke-width="0.00217"></path>
<path d="M1.519 0.708 Q1.755 0.419 1.243 0.241" stroke="hsl(120.0,100%,35%)" stroke-width="0.00109"></path>
<path d="M0.830 0.664 Q1.021 0.666 1.066 0.573" stroke="hsl(0.0,100%,35%)" stroke-width="0.01086"></path>
<path d="M0.830 0.664 Q0.665 0.558 0.421 0.615" stroke="hsl(0.0,100%,35%)" stroke-width="0.00326"></path>
<path d="M0.830 0.664 Q1.246 0.498 1.015 0.259" stroke="hsl(0.0,100%,35%)" stroke-width="0.00434"></path>
<path d="M0.830 0.664 Q0.490 0.509 0.114 0.641" stroke="hsl(0.0,100%,35%)" stroke-width="0.00326"></path>
<path d="M0.830 0.664 Q1.039 0.367 0.506 0.200" stroke="hsl(0.0,100%,35%)" stroke-width="0.00109"></path>
<path d="M0.830 0.664 Q1.090 0.489 0.807 0.324" stroke="hsl(0.0,100%,35%)" stroke-width="0.00326"></path>
<path d="M0.830 0.664 Q0.876 0.909 1.364 0.940" stroke="hsl(0.0,100%,35%)" stroke-width="0.00109"></path>
<path d="M0.747 0.930 Q0.836 0.707 0.421 0.615" stroke="hsl(240.0,100%,35%)" stroke-width="0.00109"></path>
<path d="M0.747 0.930 Q0.811 0.834 0.639 0.782" stroke="hsl(240.0,100%,35%)" stroke-width="0.01086"></path>
<path d="M0.747 0.930 Q0.661 0.659 0.114 0.641" stroke="hsl(240.0,100%,35%)" stroke-width="0.00109"></path>
<path d="M0.747 0.930 Q0.992 0.970 1.125 0.860" stroke="hsl(240.0,100%,35%)" stroke-width="0.00217"></path>
<path d="M0.747 0.930 Q1.048 0.885 1.028 0.729" stroke="hsl(240.0,100%,35%)" stroke-width="0.00326"></path>
<path d="M0.639 0.782 Q0.489 0.607 0.114 0.641" stroke="hsl(240.0,100%,35%)" stroke-width="0.00434"></path>
<path d="M0.639 0.782 Q1.090 0.587 0.807 0.324" stroke="hsl(240.0,100%,35%)" stroke-width="0.00326"></path>
<path d="M0.639 0.782 Q0.876 0.833 1.028 0.729" stroke="hsl(240.0,100%,35%)" stroke-width="0.00109"></path>
<path d="M0.639 0.782 Q0.820 0.918 1.125 0.860" stroke="hsl(240.0,100%,35%)" stroke-width="0.00217"></path>
<path d="M0.639 0.782 Q0.873 0.575 0.520 0.416" stroke="hsl(240.0,100%,35%)" stroke-width="0.00109"></path>
<path d="M0.639 0.782 Q1.175 0.664 1.063 0.377" stroke="hsl(240.0,100%,35%)" stroke-width="0.00217"></path>
<path d="M0.639 0.782 Q0.434 0.672 0.173 0.748" stroke="hsl(240.0,100%,35%)" stroke-width="0.00217"></path>
<path d="M0.639 0.782 Q0.575 0.877 0.747 0.930" stroke="hsl(240.0,100%,35%)" stroke-width="0.00868"></path>
<path d="M0.639 0.782 Q1.246 1.035 1.872 0.794" stroke="hsl(240.0,100%,35%)" stroke-width="0.00109"></path>
<path d="M1.028 0.729 Q0.791 0.678 0.639 0.782" stroke="hsl(240.0,100%,35%)" stroke-width="0.00868"></path>
<path d="M1.028 0.729 Q0.971 0.814 1.125 0.860" stroke="hsl(240.0,100%,35%)" stroke-width="0.00760"></path>
<path d="M1.028 0.729 Q0.727 0.773 0.747 0.930" stroke="hsl(240.0,100%,35%)" stroke-width="0.00326"></path>
<path d="M0.765 0.511 Q0.675 0.600 0.830 0.664" stroke="hsl(0.0,100%,35%)" stroke-width="0.00217"></path>
<path d="M0.765 0.511 Q1.092 0.435 1.015 0.259" stroke="hsl(0.0,100%,35%)" stroke-width="0.00109"></path>
<path d="M0.765 0.511 Q0.936 0.426 0.807 0.324" stroke="hsl(0.0,100%,35%)" stroke-width="0.00109"></path>
<path d="M1.448 0.558 Q1.029 0.316 0.464 0.468" stroke="hsl(120.0,100%,35%)" stroke-width="0.00326"></path>
<path d="M1.448 0.558 Q1.543 0.620 1.684 0.587" stroke="hsl(120.0,100%,35%)" stroke-width="0.00651"></path>
<path d="M1.448 0.558 Q0.714 0.333 0.114 0.641" stroke="hsl(120.0,100%,35%)" stroke-width="0.00109"></path>
<path d="M1.448 0.558 Q0.889 0.381 0.421 0.615" stroke="hsl(120.0,100%,35%)" stroke-width="0.00109"></path>
<path d="M0.836 0.419 Q0.637 0.540 0.830 0.664" stroke="hsl(0.0,100%,35%)" stroke-width="0.00326"></path>
<path d="M0.836 0.419 Q1.054 0.375 1.015 0.259" stroke="hsl(0.0,100%,35%)" stroke-width="0.00109"></path>
<path d="M0.836 0.419 Q0.898 0.366 0.807 0.324" stroke="hsl(0.0,100%,35%)" stroke-width="0.00217"></path>
<path d="M0.836 0.419 Q0.688 0.307 0.436 0.354" stroke="hsl(0.0,100%,35%)" stroke-width="0.00326"></path>
<path d="M0.836 0.419 Q0.828 0.542 1.066 0.573" stroke="hsl(0.0,100%,35%)" stroke-width="0.00109"></path>
<path d="M0.103 0.423 Q0.108 0.582 0.421 0.615" stroke="hsl(120.0,100%,35%)" stroke-width="0.00326"></path>
<path d="M0.103 0.423 Q-0.067 0.534 0.114 0.641" stroke="hsl(120.0,100%,35%)" stroke-width="0.00651"></path>
<path d="M0.103 0.423 Q-0.122 0.599 0.173 0.748" stroke="hsl(120.0,100%,35%)" stroke-width="0.00543"></path>
<path d="M0.103 0.423 Q0.819 0.560 1.243 0.241" stroke="hsl(120.0,100%,35%)" stroke-width="0.00217"></path>
<path d="M0.103 0.423 Q0.472 0.568 0.836 0.419" stroke="hsl(120.0,100%,35%)" stroke-width="0.00109"></path>
<path d="M0.406 0.796 Q0.558 0.708 0.421 0.615" stroke="hsl(120.0,100%,35%)" stroke-width="0.01086"></path>
<path d="M0.406 0.796 Q1.140 0.649 1.015 0.259" stroke="hsl(120.0,100%,35%)" stroke-width="0.00217"></path>
<path d="M0.406 0.796 Q1.269 0.685 1.243 0.241" stroke="hsl(120.0,100%,35%)" stroke-width="0.00326"></path>
<path d="M0.406 0.796 Q0.500 0.751 0.434 0.696" stroke="hsl(120.0,100%,35%)" stroke-width="0.00109"></path>
<path d="M0.406 0.796 Q0.718 0.748 0.694 0.586" stroke="hsl(120.0,100%,35%)" stroke-width="0.00109"></path>
<path d="M1.766 0.409 Q1.893 0.340 1.786 0.262" stroke="hsl(0.0,100%,35%)" stroke-width="0.02497"></path>
<path d="M1.766 0.409 Q1.354 0.175 0.807 0.324" stroke="hsl(0.0,100%,35%)" stroke-width="0.00217"></path>
<path d="M1.766 0.409 Q1.440 0.253 1.063 0.377" stroke="hsl(0.0,100%,35%)" stroke-width="0.00109"></path>
<path d="M1.766 0.409 Q0.929 0.243 0.421 0.615" stroke="hsl(0.0,100%,35%)" stroke-width="0.00109"></path>
<path d="M1.766 0.409 Q1.122 0.030 0.241 0.261" stroke="hsl(0.0,100%,35%)" stroke-width="0.00109"></path>
<path d="M1.215 0.136 Q0.861 0.148 0.807 0.324" stroke="hsl(0.0,100%,35%)" stroke-width="0.00543"></path>
<path d="M1.215 0.136 Q1.016 0.158 1.015 0.259" stroke="hsl(0.0,100%,35%)" stroke-width="0.00760"></path>
<path d="M1.215 0.136 Q0.600 0.323 0.830 0.664" stroke="hsl(0.0,100%,35%)" stroke-width="0.00217"></path>
<path d="M0.994 0.127 Q0.673 0.365 1.066 0.573" stroke="hsl(0.0,100%,35%)" stroke-width="0.00217"></path>
<path d="M0.994 0.127 Q0.971 0.496 1.684 0.587" stroke="hsl(0.0,100%,35%)" stroke-width="0.00109"></path>
<path d="M0.994 0.127 Q0.528 0.608 1.364 0.940" stroke="hsl(0.0,100%,35%)" stroke-width="0.00217"></path>
<path d="M0.994 0.127 Q0.899 0.197 1.015 0.259" stroke="hsl(0.0,100%,35%)" stroke-width="0.00217"></path>
<path d="M0.994 0.127 Q1.028 0.234 1.243 0.241" stroke="hsl(0.0,100%,35%)" stroke-width="0.00109"></path>
<path d="M0.305 0.478 Q-0.123 0.686 0.190 0.941" stroke="hsl(120.0,100%,35%)" stroke-width="0.00326"></path>
<path d="M0.305 0.478 Q0.254 0.570 0.421 0.615" stroke="hsl(120.0,100%,35%)" stroke-width="0.00326"></path>
<path d="M0.305 0.478 Q0.465 0.921 1.364 0.940" stroke="hsl(120.0,100%,35%)" stroke-width="0.00326"></path>
<path d="M0.445 0.907 Q0.290 0.873 0.190 0.941" stroke="hsl(120.0,100%,35%)" stroke-width="0.00651"></path>
<path d="M0.445 0.907 Q0.667 0.756 0.421 0.615" stroke="hsl(120.0,100%,35%)" stroke-width="0.00543"></path>
<path d="M0.445 0.907 Q0.325 0.889 0.263 0.943" stroke="hsl(120.0,100%,35%)" stroke-width="0.00109"></path>
<path d="M1.379 0.125 Q0.719 0.529 1.364 0.940" stroke="hsl(0.0,100%,35%)" stroke-width="0.00109"></path>
<path d="M1.379 0.125 Q1.019 0.188 1.063 0.377" stroke="hsl(0.0,100%,35%)" stroke-width="0.00434"></path>
<path d="M1.379 0.125 Q0.508 0.178 0.421 0.615" stroke="hsl(0.0,100%,35%)" stroke-width="0.00109"></path>
<path d="M0.871 0.838 Q0.824 0.636 0.421 0.615" stroke="hsl(240.0,100%,35%)" stroke-width="0.00109"></path>
<path d="M0.871 0.838 Q0.800 0.764 0.639 0.782" stroke="hsl(240.0,100%,35%)" stroke-width="0.00868"></path>
<path d="M0.871 0.838 Q1.036 0.815 1.028 0.729" stroke="hsl(240.0,100%,35%)" stroke-width="0.00651"></path>
<path d="M0.871 0.838 Q0.980 0.900 1.125 0.860" stroke="hsl(240.0,100%,35%)" stroke-width="0.00217"></path>
<path d="M0.871 0.838 Q1.335 0.646 1.063 0.377" stroke="hsl(240.0,100%,35%)" stroke-width="0.00109"></path>
<path d="M0.871 0.838 Q0.736 0.859 0.747 0.930" stroke="hsl(240.0,100%,35%)" stroke-width="0.00434"></path>
</g>
<text x="0.807" y="0.300" font-size="0.047022" fill="hsl(0.0,100%,20%)">clemensb</text>
<text x="1.015" y="0.240" font-size="0.038393" fill="hsl(0.0,100%,20%)">mliedtke</text>
<text x="1.243" y="0.225" font-size="0.031702" fill="hsl(120.0,100%,20%)">machenbach</text>
<text x="0.421" y="0.585" font-size="0.060428" fill="hsl(120.0,100%,20%)">leszeks</text>
<text x="1.066" y="0.559" font-size="0.028355" fill="hsl(0.0,100%,20%)">dlehmann</text>
<text x="1.872" y="0.771" font-size="0.045941" fill="hsl(120.0,100%,20%)">pthier</text>
<text x="0.114" y="0.614" font-size="0.054604" fill="hsl(120.0,100%,20%)">mlippautz</text>
<text x="1.364" y="0.916" font-size="0.048426" fill="hsl(120.0,100%,20%)">dmercadier</text>
<text x="1.926" y="0.621" font-size="0.039256" fill="hsl(120.0,100%,20%)">jgruber</text>
<text x="0.173" y="0.725" font-size="0.046304" fill="hsl(120.0,100%,20%)">dinfuehr</text>
<text x="1.684" y="0.560" font-size="0.054910" fill="hsl(120.0,100%,20%)">victorgomes</text>
<text x="0.520" y="0.406" font-size="0.018303" fill="hsl(120.0,100%,20%)">olivf</text>
<text x="0.464" y="0.459" font-size="0.016371" fill="hsl(120.0,100%,20%)">bikineev</text>
<text x="0.241" y="0.244" font-size="0.033749" fill="hsl(120.0,100%,20%)">ishell</text>
<text x="0.380" y="0.848" font-size="0.020050" fill="hsl(120.0,100%,20%)">nikolaos</text>
<text x="1.063" y="0.363" font-size="0.028355" fill="hsl(0.0,100%,20%)">thibaudm</text>
<text x="1.519" y="0.695" font-size="0.026524" fill="hsl(120.0,100%,20%)">nicohartmann</text>
<text x="0.830" y="0.645" font-size="0.036606" fill="hsl(0.0,100%,20%)">jkummerow</text>
<text x="0.747" y="0.913" font-size="0.032742" fill="hsl(240.0,100%,20%)">floitsch</text>
<text x="0.639" y="0.762" font-size="0.040927" fill="hsl(240.0,100%,20%)">kasperl</text>
<text x="1.125" y="0.850" font-size="0.020869" fill="hsl(240.0,100%,20%)">qiuji</text>
<text x="1.028" y="0.714" font-size="0.030627" fill="hsl(240.0,100%,20%)">yahan</text>
<text x="0.506" y="0.193" font-size="0.012942" fill="hsl(120.0,100%,20%)">saelo</text>
<text x="0.669" y="0.449" font-size="0.008185" fill="hsl(120.0,100%,20%)">verwaest</text>
<text x="0.765" y="0.505" font-size="0.011576" fill="hsl(0.0,100%,20%)">jkim</text>
<text x="1.448" y="0.545" font-size="0.025885" fill="hsl(120.0,100%,20%)">marja</text>
<text x="0.694" y="0.582" font-size="0.008185" fill="hsl(120.0,100%,20%)">rezvan</text>
<text x="0.836" y="0.409" font-size="0.020050" fill="hsl(0.0,100%,20%)">manoskouk</text>
<text x="0.190" y="0.929" font-size="0.024556" fill="hsl(120.0,100%,20%)">cbruni</text>
<text x="0.103" y="0.410" font-size="0.025885" fill="hsl(120.0,100%,20%)">omerkatz</text>
<text x="0.406" y="0.784" font-size="0.023864" fill="hsl(120.0,100%,20%)">manishearth</text>
<text x="0.434" y="0.693" font-size="0.005788" fill="hsl(120.0,100%,20%)">gdeepti</text>
<text x="0.436" y="0.349" font-size="0.010025" fill="hsl(0.0,100%,20%)">ecmziegler</text>
<text x="1.766" y="0.394" font-size="0.030627" fill="hsl(0.0,100%,20%)">mfarazma</text>
<text x="1.786" y="0.248" font-size="0.027758" fill="hsl(0.0,100%,20%)">junyan1</text>
<text x="1.215" y="0.125" font-size="0.021657" fill="hsl(0.0,100%,20%)">nikolaskaipel</text>
<text x="0.994" y="0.119" font-size="0.016371" fill="hsl(0.0,100%,20%)">paolosev</text>
<text x="0.305" y="0.470" font-size="0.017364" fill="hsl(120.0,100%,20%)">rherouart</text>
<text x="0.445" y="0.897" font-size="0.020050" fill="hsl(120.0,100%,20%)">romandvornov</text>
<text x="0.263" y="0.940" font-size="0.005788" fill="hsl(120.0,100%,20%)">szuend</text>
<text x="1.379" y="0.118" font-size="0.014178" fill="hsl(0.0,100%,20%)">zhaojiazhong-hf</text>
<text x="0.871" y="0.824" font-size="0.027148" fill="hsl(240.0,100%,20%)">zhijin.zeng</text>
</svg>
