<svg width="4000" height="2000" viewBox="-0.025 -0.025 2.05 1.05" xmlns="http://www.w3.org/2000/svg">
  <style>
    path {
      fill: none;
      stroke-linecap: round;
      stroke-opacity: 0.4;
    }

    text {
      text-anchor: middle;
      alignment-baseline: hanging;
    }
  </style>
  <g opacity="0.4">
<path d="M0.237 0.617 Q0.141 0.782 0.442 0.866" stroke="hsl(0.0,100%,35%)" stroke-width="0.00081"></path>
<path d="M0.237 0.617 Q1.192 0.680 1.524 0.228" stroke="hsl(0.0,100%,35%)" stroke-width="0.00081"></path>
<path d="M0.237 0.617 Q0.245 0.553 0.122 0.535" stroke="hsl(0.0,100%,35%)" stroke-width="0.00162"></path>
<path d="M0.442 0.866 Q0.584 1.010 0.895 0.972" stroke="hsl(0.0,100%,35%)" stroke-width="0.00729"></path>
<path d="M0.442 0.866 Q0.709 0.827 0.693 0.689" stroke="hsl(0.0,100%,35%)" stroke-width="0.02024"></path>
<path d="M0.442 0.866 Q0.305 0.829 0.204 0.888" stroke="hsl(0.0,100%,35%)" stroke-width="0.00081"></path>
<path d="M0.442 0.866 Q1.053 0.708 0.878 0.375" stroke="hsl(0.0,100%,35%)" stroke-width="0.00809"></path>
<path d="M0.442 0.866 Q0.388 0.931 0.504 0.972" stroke="hsl(0.0,100%,35%)" stroke-width="0.00324"></path>
<path d="M0.442 0.866 Q1.698 0.833 1.910 0.213" stroke="hsl(0.0,100%,35%)" stroke-width="0.00081"></path>
<path d="M0.442 0.866 Q1.661 0.715 1.634 0.087" stroke="hsl(0.0,100%,35%)" stroke-width="0.00243"></path>
<path d="M0.442 0.866 Q0.701 0.917 0.856 0.802" stroke="hsl(0.0,100%,35%)" stroke-width="0.00162"></path>
<path d="M0.442 0.866 Q0.872 0.885 1.003 0.679" stroke="hsl(0.0,100%,35%)" stroke-width="0.00567"></path>
<path d="M0.442 0.866 Q0.913 1.073 1.421 0.888" stroke="hsl(0.0,100%,35%)" stroke-width="0.00081"></path>
<path d="M0.442 0.866 Q1.243 0.685 1.067 0.255" stroke="hsl(0.0,100%,35%)" stroke-width="0.00243"></path>
<path d="M0.442 0.866 Q0.656 0.850 0.672 0.742" stroke="hsl(0.0,100%,35%)" stroke-width="0.00081"></path>
<path d="M0.442 0.866 Q0.896 0.612 0.501 0.335" stroke="hsl(0.0,100%,35%)" stroke-width="0.00081"></path>
<path d="M0.442 0.866 Q1.407 0.739 1.372 0.241" stroke="hsl(0.0,100%,35%)" stroke-width="0.00081"></path>
<path d="M0.442 0.866 Q1.744 0.780 1.862 0.126" stroke="hsl(0.0,100%,35%)" stroke-width="0.00081"></path>
<path d="M1.524 0.228 Q0.737 0.136 0.384 0.499" stroke="hsl(0.0,100%,35%)" stroke-width="0.00081"></path>
<path d="M1.524 0.228 Q0.615 0.475 0.895 0.972" stroke="hsl(0.0,100%,35%)" stroke-width="0.00081"></path>
<path d="M1.524 0.228 Q0.578 0.102 0.122 0.535" stroke="hsl(0.0,100%,35%)" stroke-width="0.00081"></path>
<path d="M1.569 0.312 Q0.562 0.363 0.442 0.866" stroke="hsl(0.0,100%,35%)" stroke-width="0.00081"></path>
<path d="M1.569 0.312 Q0.704 0.507 0.895 0.972" stroke="hsl(0.0,100%,35%)" stroke-width="0.00162"></path>
<path d="M1.569 0.312 Q1.527 0.237 1.372 0.241" stroke="hsl(0.0,100%,35%)" stroke-width="0.00243"></path>
<path d="M1.569 0.312 Q1.717 0.152 1.438 0.044" stroke="hsl(0.0,100%,35%)" stroke-width="0.00405"></path>
<path d="M1.569 0.312 Q0.826 0.168 0.384 0.499" stroke="hsl(0.0,100%,35%)" stroke-width="0.00081"></path>
<path d="M1.569 0.312 Q1.544 0.397 1.704 0.428" stroke="hsl(0.0,100%,35%)" stroke-width="0.00081"></path>
<path d="M1.569 0.312 Q1.763 0.309 1.800 0.214" stroke="hsl(0.0,100%,35%)" stroke-width="0.00081"></path>
<path d="M1.569 0.312 Q0.508 0.429 0.504 0.972" stroke="hsl(0.0,100%,35%)" stroke-width="0.00081"></path>
<path d="M0.895 0.972 Q1.012 0.879 0.856 0.802" stroke="hsl(0.0,100%,35%)" stroke-width="0.00405"></path>
<path d="M0.895 0.972 Q1.049 1.041 1.217 0.981" stroke="hsl(0.0,100%,35%)" stroke-width="0.00405"></path>
<path d="M0.895 0.972 Q2.055 0.742 1.862 0.126" stroke="hsl(0.0,100%,35%)" stroke-width="0.00081"></path>
<path d="M0.895 0.972 Q0.754 0.828 0.442 0.866" stroke="hsl(0.0,100%,35%)" stroke-width="0.00809"></path>
<path d="M0.895 0.972 Q1.243 0.929 1.235 0.750" stroke="hsl(0.0,100%,35%)" stroke-width="0.00162"></path>
<path d="M0.895 0.972 Q1.021 0.790 0.693 0.689" stroke="hsl(0.0,100%,35%)" stroke-width="0.00081"></path>
<path d="M0.895 0.972 Q1.225 1.035 1.421 0.888" stroke="hsl(0.0,100%,35%)" stroke-width="0.00567"></path>
<path d="M0.895 0.972 Q1.426 0.589 0.793 0.246" stroke="hsl(0.0,100%,35%)" stroke-width="0.00081"></path>
<path d="M0.895 0.972 Q1.365 0.670 0.878 0.375" stroke="hsl(0.0,100%,35%)" stroke-width="0.00081"></path>
<path d="M0.895 0.972 Q1.443 0.461 0.566 0.082" stroke="hsl(0.0,100%,35%)" stroke-width="0.00162"></path>
<path d="M0.895 0.972 Q1.157 0.916 1.105 0.777" stroke="hsl(0.0,100%,35%)" stroke-width="0.00081"></path>
<path d="M0.895 0.972 Q1.784 0.820 1.681 0.353" stroke="hsl(0.0,100%,35%)" stroke-width="0.00081"></path>
<path d="M0.895 0.972 Q1.592 0.767 1.345 0.382" stroke="hsl(0.0,100%,35%)" stroke-width="0.00162"></path>
<path d="M0.895 0.972 Q1.719 0.702 1.372 0.241" stroke="hsl(0.0,100%,35%)" stroke-width="0.00081"></path>
<path d="M0.895 0.972 Q1.323 0.526 0.546 0.220" stroke="hsl(0.0,100%,35%)" stroke-width="0.00081"></path>
<path d="M1.438 0.044 Q1.355 -0.027 1.197 -0.002" stroke="hsl(0.0,100%,35%)" stroke-width="0.00405"></path>
<path d="M1.438 0.044 Q1.502 0.105 1.634 0.087" stroke="hsl(0.0,100%,35%)" stroke-width="0.00324"></path>
<path d="M1.438 0.044 Q0.686 0.344 1.105 0.777" stroke="hsl(0.0,100%,35%)" stroke-width="0.00081"></path>
<path d="M1.438 0.044 Q1.248 0.130 1.372 0.241" stroke="hsl(0.0,100%,35%)" stroke-width="0.00809"></path>
<path d="M1.438 0.044 Q0.424 0.400 0.895 0.972" stroke="hsl(0.0,100%,35%)" stroke-width="0.00081"></path>
<path d="M1.438 0.044 Q1.379 0.153 1.578 0.205" stroke="hsl(0.0,100%,35%)" stroke-width="0.00081"></path>
<path d="M1.438 0.044 Q0.713 0.275 1.003 0.679" stroke="hsl(0.0,100%,35%)" stroke-width="0.00162"></path>
<path d="M1.438 0.044 Q0.283 0.256 0.442 0.866" stroke="hsl(0.0,100%,35%)" stroke-width="0.00081"></path>
<path d="M0.504 0.972 Q0.816 0.921 0.784 0.757" stroke="hsl(0.0,100%,35%)" stroke-width="0.00162"></path>
<path d="M0.504 0.972 Q0.700 1.051 0.895 0.972" stroke="hsl(0.0,100%,35%)" stroke-width="0.00162"></path>
<path d="M0.504 0.972 Q1.079 0.985 1.231 0.708" stroke="hsl(0.0,100%,35%)" stroke-width="0.00081"></path>
<path d="M0.504 0.972 Q0.558 0.907 0.442 0.866" stroke="hsl(0.0,100%,35%)" stroke-width="0.00324"></path>
<path d="M0.725 0.459 Q0.596 0.466 0.582 0.531" stroke="hsl(0.0,100%,35%)" stroke-width="0.00081"></path>
<path d="M0.725 0.459 Q0.121 0.569 0.204 0.888" stroke="hsl(0.0,100%,35%)" stroke-width="0.00081"></path>
<path d="M0.725 0.459 Q0.362 0.377 0.122 0.535" stroke="hsl(0.0,100%,35%)" stroke-width="0.00081"></path>
<path d="M0.204 0.888 Q0.952 0.766 0.878 0.375" stroke="hsl(0.0,100%,35%)" stroke-width="0.00324"></path>
<path d="M0.204 0.888 Q0.771 0.944 1.003 0.679" stroke="hsl(0.0,100%,35%)" stroke-width="0.00081"></path>
<path d="M0.204 0.888 Q0.341 0.925 0.442 0.866" stroke="hsl(0.0,100%,35%)" stroke-width="0.00971"></path>
<path d="M0.204 0.888 Q0.637 1.137 1.217 0.981" stroke="hsl(0.0,100%,35%)" stroke-width="0.00081"></path>
<path d="M0.204 0.888 Q1.013 0.685 0.793 0.246" stroke="hsl(0.0,100%,35%)" stroke-width="0.00162"></path>
<path d="M0.204 0.888 Q0.483 1.068 0.895 0.972" stroke="hsl(0.0,100%,35%)" stroke-width="0.00081"></path>
<path d="M0.204 0.888 Q0.546 0.928 0.698 0.770" stroke="hsl(0.0,100%,35%)" stroke-width="0.00081"></path>
<path d="M0.994 0.127 Q1.346 0.235 1.634 0.087" stroke="hsl(180.0,100%,35%)" stroke-width="0.00081"></path>
<path d="M0.994 0.127 Q0.965 0.324 1.345 0.382" stroke="hsl(180.0,100%,35%)" stroke-width="0.00162"></path>
<path d="M0.994 0.127 Q0.072 0.452 0.504 0.972" stroke="hsl(180.0,100%,35%)" stroke-width="0.00081"></path>
<path d="M0.994 0.127 Q0.798 0.146 0.793 0.246" stroke="hsl(180.0,100%,35%)" stroke-width="0.00081"></path>
<path d="M1.634 0.087 Q0.360 0.304 0.504 0.972" stroke="hsl(0.0,100%,35%)" stroke-width="0.00081"></path>
<path d="M1.634 0.087 Q0.673 0.252 0.784 0.757" stroke="hsl(0.0,100%,35%)" stroke-width="0.00081"></path>
<path d="M1.634 0.087 Q1.717 0.152 1.862 0.126" stroke="hsl(0.0,100%,35%)" stroke-width="0.00486"></path>
<path d="M1.634 0.087 Q0.682 0.200 0.693 0.689" stroke="hsl(0.0,100%,35%)" stroke-width="0.00162"></path>
<path d="M1.634 0.087 Q0.936 0.317 1.231 0.708" stroke="hsl(0.0,100%,35%)" stroke-width="0.00081"></path>
<path d="M1.634 0.087 Q1.692 0.162 1.852 0.151" stroke="hsl(0.0,100%,35%)" stroke-width="0.00243"></path>
<path d="M1.634 0.087 Q1.253 0.176 1.345 0.382" stroke="hsl(0.0,100%,35%)" stroke-width="0.00081"></path>
<path d="M1.634 0.087 Q0.673 0.289 0.856 0.802" stroke="hsl(0.0,100%,35%)" stroke-width="0.00243"></path>
<path d="M1.634 0.087 Q1.570 0.026 1.438 0.044" stroke="hsl(0.0,100%,35%)" stroke-width="0.02105"></path>
<path d="M1.634 0.087 Q1.087 -0.002 0.793 0.246" stroke="hsl(0.0,100%,35%)" stroke-width="0.00081"></path>
<path d="M1.634 0.087 Q0.556 0.382 0.895 0.972" stroke="hsl(0.0,100%,35%)" stroke-width="0.01133"></path>
<path d="M1.634 0.087 Q1.511 0.135 1.578 0.205" stroke="hsl(0.0,100%,35%)" stroke-width="0.01295"></path>
<path d="M1.634 0.087 Q1.466 0.136 1.524 0.228" stroke="hsl(0.0,100%,35%)" stroke-width="0.00324"></path>
<path d="M1.634 0.087 Q0.845 0.257 1.003 0.679" stroke="hsl(0.0,100%,35%)" stroke-width="0.00243"></path>
<path d="M1.634 0.087 Q0.886 0.445 1.421 0.888" stroke="hsl(0.0,100%,35%)" stroke-width="0.00081"></path>
<path d="M1.634 0.087 Q0.415 0.238 0.442 0.866" stroke="hsl(0.0,100%,35%)" stroke-width="0.01781"></path>
<path d="M1.634 0.087 Q1.350 0.031 1.180 0.157" stroke="hsl(0.0,100%,35%)" stroke-width="0.00081"></path>
<path d="M1.634 0.087 Q1.445 0.229 1.681 0.353" stroke="hsl(0.0,100%,35%)" stroke-width="0.00162"></path>
<path d="M1.634 0.087 Q1.104 -0.129 0.566 0.082" stroke="hsl(0.0,100%,35%)" stroke-width="0.00243"></path>
<path d="M1.634 0.087 Q1.671 0.205 1.910 0.213" stroke="hsl(0.0,100%,35%)" stroke-width="0.00081"></path>
<path d="M1.634 0.087 Q1.615 0.184 1.800 0.214" stroke="hsl(0.0,100%,35%)" stroke-width="0.00567"></path>
<path d="M1.634 0.087 Q0.710 0.450 1.217 0.981" stroke="hsl(0.0,100%,35%)" stroke-width="0.00081"></path>
<path d="M1.634 0.087 Q0.818 0.326 1.105 0.777" stroke="hsl(0.0,100%,35%)" stroke-width="0.00081"></path>
<path d="M1.345 0.382 Q1.314 0.464 1.467 0.497" stroke="hsl(180.0,100%,35%)" stroke-width="0.00081"></path>
<path d="M1.345 0.382 Q1.195 0.076 0.566 0.082" stroke="hsl(180.0,100%,35%)" stroke-width="0.00729"></path>
<path d="M1.345 0.382 Q0.909 0.531 1.105 0.777" stroke="hsl(180.0,100%,35%)" stroke-width="0.00081"></path>
<path d="M1.345 0.382 Q1.178 0.203 0.793 0.246" stroke="hsl(180.0,100%,35%)" stroke-width="0.00729"></path>
<path d="M1.345 0.382 Q0.648 0.587 0.895 0.972" stroke="hsl(180.0,100%,35%)" stroke-width="0.00324"></path>
<path d="M1.345 0.382 Q1.725 0.292 1.634 0.087" stroke="hsl(180.0,100%,35%)" stroke-width="0.00567"></path>
<path d="M1.345 0.382 Q1.197 0.436 1.272 0.520" stroke="hsl(180.0,100%,35%)" stroke-width="0.00162"></path>
<path d="M1.345 0.382 Q1.307 0.263 1.067 0.255" stroke="hsl(180.0,100%,35%)" stroke-width="0.00081"></path>
<path d="M1.345 0.382 Q1.536 0.434 1.681 0.353" stroke="hsl(180.0,100%,35%)" stroke-width="0.00081"></path>
<path d="M1.345 0.382 Q1.602 0.340 1.578 0.205" stroke="hsl(180.0,100%,35%)" stroke-width="0.00081"></path>
<path d="M0.793 0.246 Q1.341 0.334 1.634 0.087" stroke="hsl(180.0,100%,35%)" stroke-width="0.00162"></path>
<path d="M0.793 0.246 Q0.263 0.629 0.895 0.972" stroke="hsl(180.0,100%,35%)" stroke-width="0.00162"></path>
<path d="M0.793 0.246 Q0.811 0.118 0.566 0.082" stroke="hsl(180.0,100%,35%)" stroke-width="0.00162"></path>
<path d="M0.793 0.246 Q0.960 0.424 1.345 0.382" stroke="hsl(180.0,100%,35%)" stroke-width="0.00243"></path>
<path d="M0.793 0.246 Q0.380 0.536 0.856 0.802" stroke="hsl(180.0,100%,35%)" stroke-width="0.00162"></path>
<path d="M0.793 0.246 Q0.733 0.327 0.878 0.375" stroke="hsl(180.0,100%,35%)" stroke-width="0.00081"></path>
<path d="M0.611 0.557 Q1.498 0.526 1.634 0.087" stroke="hsl(0.0,100%,35%)" stroke-width="0.00081"></path>
<path d="M0.611 0.557 Q0.279 0.677 0.442 0.866" stroke="hsl(0.0,100%,35%)" stroke-width="0.00081"></path>
<path d="M0.611 0.557 Q0.546 0.639 0.693 0.689" stroke="hsl(0.0,100%,35%)" stroke-width="0.00081"></path>
<path d="M0.693 0.689 Q0.426 0.727 0.442 0.866" stroke="hsl(0.0,100%,35%)" stroke-width="0.01052"></path>
<path d="M0.693 0.689 Q0.568 0.871 0.895 0.972" stroke="hsl(0.0,100%,35%)" stroke-width="0.00243"></path>
<path d="M0.693 0.689 Q0.371 0.793 0.504 0.972" stroke="hsl(0.0,100%,35%)" stroke-width="0.00081"></path>
<path d="M0.693 0.689 Q1.645 0.576 1.634 0.087" stroke="hsl(0.0,100%,35%)" stroke-width="0.00081"></path>
<path d="M0.698 0.770 Q0.760 0.729 0.693 0.689" stroke="hsl(0.0,100%,35%)" stroke-width="0.00405"></path>
<path d="M0.698 0.770 Q0.635 0.911 0.895 0.972" stroke="hsl(0.0,100%,35%)" stroke-width="0.00243"></path>
<path d="M0.698 0.770 Q0.752 0.818 0.856 0.802" stroke="hsl(0.0,100%,35%)" stroke-width="0.00081"></path>
<path d="M0.856 0.802 Q1.900 0.665 1.862 0.126" stroke="hsl(0.0,100%,35%)" stroke-width="0.00243"></path>
<path d="M0.856 0.802 Q1.001 0.839 1.105 0.777" stroke="hsl(0.0,100%,35%)" stroke-width="0.01133"></path>
<path d="M0.856 0.802 Q0.740 0.895 0.895 0.972" stroke="hsl(0.0,100%,35%)" stroke-width="0.01619"></path>
<path d="M0.856 0.802 Q0.702 0.522 0.122 0.535" stroke="hsl(0.0,100%,35%)" stroke-width="0.00081"></path>
<path d="M0.856 0.802 Q1.437 0.689 1.345 0.382" stroke="hsl(0.0,100%,35%)" stroke-width="0.00081"></path>
<path d="M0.856 0.802 Q1.069 0.958 1.421 0.888" stroke="hsl(0.0,100%,35%)" stroke-width="0.00243"></path>
<path d="M0.856 0.802 Q0.598 0.751 0.442 0.866" stroke="hsl(0.0,100%,35%)" stroke-width="0.00890"></path>
<path d="M0.856 0.802 Q0.865 0.713 0.693 0.689" stroke="hsl(0.0,100%,35%)" stroke-width="0.00081"></path>
<path d="M0.856 0.802 Q1.817 0.600 1.634 0.087" stroke="hsl(0.0,100%,35%)" stroke-width="0.00081"></path>
<path d="M0.548 0.431 Q0.758 0.469 0.878 0.375" stroke="hsl(180.0,100%,35%)" stroke-width="0.00405"></path>
<path d="M0.548 0.431 Q0.148 0.627 0.442 0.866" stroke="hsl(180.0,100%,35%)" stroke-width="0.00243"></path>
<path d="M0.548 0.431 Q1.367 0.476 1.634 0.087" stroke="hsl(180.0,100%,35%)" stroke-width="0.00405"></path>
<path d="M0.548 0.431 Q0.411 0.432 0.384 0.499" stroke="hsl(180.0,100%,35%)" stroke-width="0.00324"></path>
<path d="M0.548 0.431 Q0.819 0.388 0.793 0.246" stroke="hsl(180.0,100%,35%)" stroke-width="0.00081"></path>
<path d="M0.878 0.375 Q0.939 0.293 0.793 0.246" stroke="hsl(180.0,100%,35%)" stroke-width="0.01376"></path>
<path d="M0.878 0.375 Q1.106 0.472 1.345 0.382" stroke="hsl(180.0,100%,35%)" stroke-width="0.00243"></path>
<path d="M0.878 0.375 Q0.409 0.677 0.895 0.972" stroke="hsl(180.0,100%,35%)" stroke-width="0.00081"></path>
<path d="M0.878 0.375 Q0.532 0.338 0.384 0.499" stroke="hsl(180.0,100%,35%)" stroke-width="0.00324"></path>
<path d="M0.878 0.375 Q0.131 0.497 0.204 0.888" stroke="hsl(180.0,100%,35%)" stroke-width="0.00081"></path>
<path d="M0.878 0.375 Q0.268 0.533 0.442 0.866" stroke="hsl(180.0,100%,35%)" stroke-width="0.00162"></path>
<path d="M0.926 0.524 Q0.853 0.529 0.847 0.566" stroke="hsl(0.0,100%,35%)" stroke-width="0.00081"></path>
<path d="M0.926 0.524 Q0.411 0.598 0.442 0.866" stroke="hsl(0.0,100%,35%)" stroke-width="0.00081"></path>
<path d="M0.926 0.524 Q1.461 0.496 1.524 0.228" stroke="hsl(0.0,100%,35%)" stroke-width="0.00081"></path>
<path d="M1.003 0.679 Q1.850 0.585 1.852 0.151" stroke="hsl(0.0,100%,35%)" stroke-width="0.00081"></path>
<path d="M1.003 0.679 Q0.951 0.672 0.926 0.696" stroke="hsl(0.0,100%,35%)" stroke-width="0.00648"></path>
<path d="M1.003 0.679 Q0.574 0.660 0.442 0.866" stroke="hsl(0.0,100%,35%)" stroke-width="0.00890"></path>
<path d="M1.003 0.679 Q0.436 0.624 0.204 0.888" stroke="hsl(0.0,100%,35%)" stroke-width="0.00243"></path>
<path d="M1.003 0.679 Q0.840 0.622 0.693 0.689" stroke="hsl(0.0,100%,35%)" stroke-width="0.00081"></path>
<path d="M1.003 0.679 Q1.262 0.293 0.566 0.082" stroke="hsl(0.0,100%,35%)" stroke-width="0.00081"></path>
<path d="M1.003 0.679 Q1.793 0.509 1.634 0.087" stroke="hsl(0.0,100%,35%)" stroke-width="0.00729"></path>
<path d="M1.003 0.679 Q0.976 0.748 1.105 0.777" stroke="hsl(0.0,100%,35%)" stroke-width="0.00162"></path>
<path d="M1.003 0.679 Q0.715 0.804 0.895 0.972" stroke="hsl(0.0,100%,35%)" stroke-width="0.00162"></path>
<path d="M1.003 0.679 Q1.875 0.574 1.862 0.126" stroke="hsl(0.0,100%,35%)" stroke-width="0.00081"></path>
<path d="M0.566 0.082 Q0.715 0.388 1.345 0.382" stroke="hsl(180.0,100%,35%)" stroke-width="0.00486"></path>
<path d="M0.566 0.082 Q1.154 0.374 1.852 0.151" stroke="hsl(180.0,100%,35%)" stroke-width="0.00081"></path>
<path d="M0.566 0.082 Q0.539 0.136 0.638 0.161" stroke="hsl(180.0,100%,35%)" stroke-width="0.00162"></path>
<path d="M0.566 0.082 Q0.973 0.346 1.578 0.205" stroke="hsl(180.0,100%,35%)" stroke-width="0.00081"></path>
<path d="M0.566 0.082 Q-0.123 0.449 0.442 0.866" stroke="hsl(180.0,100%,35%)" stroke-width="0.00081"></path>
<path d="M1.105 0.777 Q0.969 0.650 0.693 0.689" stroke="hsl(0.0,100%,35%)" stroke-width="0.00162"></path>
<path d="M1.105 0.777 Q0.844 0.832 0.895 0.972" stroke="hsl(0.0,100%,35%)" stroke-width="0.00567"></path>
<path d="M1.105 0.777 Q1.799 0.586 1.578 0.205" stroke="hsl(0.0,100%,35%)" stroke-width="0.00081"></path>
<path d="M1.105 0.777 Q1.132 0.708 1.003 0.679" stroke="hsl(0.0,100%,35%)" stroke-width="0.00162"></path>
<path d="M1.105 0.777 Q0.961 0.739 0.856 0.802" stroke="hsl(0.0,100%,35%)" stroke-width="0.00648"></path>
<path d="M1.105 0.777 Q1.753 0.586 1.524 0.228" stroke="hsl(0.0,100%,35%)" stroke-width="0.00162"></path>
<path d="M1.105 0.777 Q1.391 0.321 0.566 0.082" stroke="hsl(0.0,100%,35%)" stroke-width="0.00081"></path>
<path d="M1.105 0.777 Q1.732 0.680 1.681 0.353" stroke="hsl(0.0,100%,35%)" stroke-width="0.00081"></path>
<path d="M1.105 0.777 Q1.541 0.627 1.345 0.382" stroke="hsl(0.0,100%,35%)" stroke-width="0.00081"></path>
<path d="M1.105 0.777 Q0.998 0.901 1.217 0.981" stroke="hsl(0.0,100%,35%)" stroke-width="0.00162"></path>
<path d="M1.105 0.777 Q1.174 0.896 1.421 0.888" stroke="hsl(0.0,100%,35%)" stroke-width="0.00081"></path>
<path d="M1.105 0.777 Q0.702 0.689 0.442 0.866" stroke="hsl(0.0,100%,35%)" stroke-width="0.00405"></path>
<path d="M1.105 0.777 Q1.307 0.776 1.351 0.678" stroke="hsl(0.0,100%,35%)" stroke-width="0.00081"></path>
<path d="M1.105 0.777 Q1.374 0.449 0.793 0.246" stroke="hsl(0.0,100%,35%)" stroke-width="0.00081"></path>
<path d="M1.105 0.777 Q1.223 0.767 1.231 0.708" stroke="hsl(0.0,100%,35%)" stroke-width="0.00243"></path>
<path d="M0.642 0.938 Q0.600 0.862 0.442 0.866" stroke="hsl(0.0,100%,35%)" stroke-width="0.02752"></path>
<path d="M0.642 0.938 Q0.742 1.006 0.895 0.972" stroke="hsl(0.0,100%,35%)" stroke-width="0.01295"></path>
<path d="M0.642 0.938 Q0.858 0.913 0.856 0.802" stroke="hsl(0.0,100%,35%)" stroke-width="0.00081"></path>
<path d="M0.642 0.938 Q1.651 0.760 1.524 0.228" stroke="hsl(0.0,100%,35%)" stroke-width="0.00081"></path>
<path d="M0.642 0.938 Q1.819 0.711 1.634 0.087" stroke="hsl(0.0,100%,35%)" stroke-width="0.01538"></path>
<path d="M0.642 0.938 Q1.565 0.736 1.372 0.241" stroke="hsl(0.0,100%,35%)" stroke-width="0.00081"></path>
<path d="M0.642 0.938 Q1.003 0.950 1.105 0.777" stroke="hsl(0.0,100%,35%)" stroke-width="0.00081"></path>
<path d="M0.546 0.220 Q1.007 0.513 1.681 0.353" stroke="hsl(180.0,100%,35%)" stroke-width="0.00081"></path>
<path d="M0.546 0.220 Q-0.077 0.587 0.504 0.972" stroke="hsl(180.0,100%,35%)" stroke-width="0.00081"></path>
<path d="M0.546 0.220 Q0.588 0.364 0.878 0.375" stroke="hsl(180.0,100%,35%)" stroke-width="0.00405"></path>
<path d="M0.546 0.220 Q0.666 0.155 0.566 0.082" stroke="hsl(180.0,100%,35%)" stroke-width="0.00081"></path>
<path d="M0.546 0.220 Q0.649 0.282 0.793 0.246" stroke="hsl(180.0,100%,35%)" stroke-width="0.00081"></path>
<path d="M0.546 0.220 Q0.119 0.666 0.895 0.972" stroke="hsl(180.0,100%,35%)" stroke-width="0.00162"></path>
<path d="M0.546 0.220 Q0.431 0.268 0.501 0.335" stroke="hsl(180.0,100%,35%)" stroke-width="0.00081"></path>
<path d="M0.546 0.220 Q-0.023 0.522 0.442 0.866" stroke="hsl(180.0,100%,35%)" stroke-width="0.00324"></path>
<path d="M1.802 0.228 Q1.832 0.124 1.634 0.087" stroke="hsl(180.0,100%,35%)" stroke-width="0.00081"></path>
<path d="M1.802 0.228 Q0.691 0.203 0.397 0.739" stroke="hsl(180.0,100%,35%)" stroke-width="0.00081"></path>
<path d="M1.802 0.228 Q1.451 0.214 1.345 0.382" stroke="hsl(180.0,100%,35%)" stroke-width="0.00081"></path>
<path d="M0.397 0.739 Q0.318 0.812 0.442 0.866" stroke="hsl(0.0,100%,35%)" stroke-width="0.04776"></path>
<path d="M0.397 0.739 Q0.460 0.955 0.895 0.972" stroke="hsl(0.0,100%,35%)" stroke-width="0.00971"></path>
<path d="M0.397 0.739 Q0.721 0.900 1.105 0.777" stroke="hsl(0.0,100%,35%)" stroke-width="0.00243"></path>
<path d="M0.397 0.739 Q0.799 0.982 1.361 0.839" stroke="hsl(0.0,100%,35%)" stroke-width="0.00162"></path>
<path d="M0.397 0.739 Q0.990 0.572 0.793 0.246" stroke="hsl(0.0,100%,35%)" stroke-width="0.00162"></path>
<path d="M0.397 0.739 Q1.538 0.661 1.634 0.087" stroke="hsl(0.0,100%,35%)" stroke-width="0.01052"></path>
<path d="M0.397 0.739 Q1.157 0.750 1.345 0.382" stroke="hsl(0.0,100%,35%)" stroke-width="0.00486"></path>
<path d="M0.397 0.739 Q0.585 0.773 0.693 0.689" stroke="hsl(0.0,100%,35%)" stroke-width="0.00971"></path>
<path d="M0.397 0.739 Q0.929 0.653 0.878 0.375" stroke="hsl(0.0,100%,35%)" stroke-width="0.00971"></path>
<path d="M0.397 0.739 Q1.007 0.444 0.566 0.082" stroke="hsl(0.0,100%,35%)" stroke-width="0.00162"></path>
<path d="M0.397 0.739 Q0.434 0.710 0.384 0.685" stroke="hsl(0.0,100%,35%)" stroke-width="0.00405"></path>
<path d="M0.397 0.739 Q0.181 0.775 0.204 0.888" stroke="hsl(0.0,100%,35%)" stroke-width="0.00567"></path>
<path d="M0.397 0.739 Q0.577 0.862 0.856 0.802" stroke="hsl(0.0,100%,35%)" stroke-width="0.00243"></path>
<path d="M0.397 0.739 Q0.748 0.831 1.003 0.679" stroke="hsl(0.0,100%,35%)" stroke-width="0.00081"></path>
<path d="M0.397 0.739 Q0.790 1.019 1.421 0.888" stroke="hsl(0.0,100%,35%)" stroke-width="0.00243"></path>
<path d="M1.546 0.915 Q1.292 0.721 0.856 0.802" stroke="hsl(0.0,100%,35%)" stroke-width="0.00162"></path>
<path d="M1.546 0.915 Q1.175 0.814 0.895 0.972" stroke="hsl(0.0,100%,35%)" stroke-width="0.00324"></path>
<path d="M1.546 0.915 Q1.505 0.877 1.421 0.888" stroke="hsl(0.0,100%,35%)" stroke-width="0.00081"></path>
<path d="M1.546 0.915 Q1.297 0.475 0.384 0.499" stroke="hsl(0.0,100%,35%)" stroke-width="0.00081"></path>
<path d="M0.922 0.117 Q0.755 0.156 0.793 0.246" stroke="hsl(180.0,100%,35%)" stroke-width="0.00567"></path>
<path d="M0.922 0.117 Q0.970 0.182 1.106 0.173" stroke="hsl(180.0,100%,35%)" stroke-width="0.00081"></path>
<path d="M0.922 0.117 Q0.951 0.136 0.994 0.127" stroke="hsl(180.0,100%,35%)" stroke-width="0.00324"></path>
<path d="M1.361 0.839 Q2.099 0.517 1.634 0.087" stroke="hsl(0.0,100%,35%)" stroke-width="0.00081"></path>
<path d="M1.361 0.839 Q1.551 0.429 0.793 0.246" stroke="hsl(0.0,100%,35%)" stroke-width="0.00081"></path>
<path d="M1.361 0.839 Q1.021 0.812 0.895 0.972" stroke="hsl(0.0,100%,35%)" stroke-width="0.00405"></path>
<path d="M1.361 0.839 Q1.283 0.757 1.105 0.777" stroke="hsl(0.0,100%,35%)" stroke-width="0.00081"></path>
<path d="M1.361 0.839 Q0.743 0.632 0.204 0.888" stroke="hsl(0.0,100%,35%)" stroke-width="0.00081"></path>
<path d="M1.361 0.839 Q0.825 0.734 0.504 0.972" stroke="hsl(0.0,100%,35%)" stroke-width="0.00081"></path>
<path d="M1.361 0.839 Q1.138 0.719 0.856 0.802" stroke="hsl(0.0,100%,35%)" stroke-width="0.00081"></path>
<path d="M1.361 0.839 Q1.475 0.713 1.255 0.630" stroke="hsl(0.0,100%,35%)" stroke-width="0.00081"></path>
<path d="M0.258 0.931 Q0.544 1.079 0.895 0.972" stroke="hsl(0.0,100%,35%)" stroke-width="0.00162"></path>
<path d="M0.258 0.931 Q0.402 0.935 0.442 0.866" stroke="hsl(0.0,100%,35%)" stroke-width="0.00243"></path>
<path d="M0.258 0.931 Q1.622 0.784 1.634 0.087" stroke="hsl(0.0,100%,35%)" stroke-width="0.00162"></path>
<path d="M1.067 0.255 Q0.938 0.196 0.793 0.246" stroke="hsl(180.0,100%,35%)" stroke-width="0.00243"></path>
<path d="M1.067 0.255 Q0.747 0.606 1.361 0.839" stroke="hsl(180.0,100%,35%)" stroke-width="0.00081"></path>
<path d="M1.067 0.255 Q0.266 0.435 0.442 0.866" stroke="hsl(180.0,100%,35%)" stroke-width="0.00081"></path>
<path d="M1.067 0.255 Q1.104 0.374 1.345 0.382" stroke="hsl(180.0,100%,35%)" stroke-width="0.00162"></path>
<path d="M1.067 0.255 Q0.955 0.068 0.566 0.082" stroke="hsl(180.0,100%,35%)" stroke-width="0.00081"></path>
<path d="M1.067 0.255 Q1.296 0.427 1.681 0.353" stroke="hsl(180.0,100%,35%)" stroke-width="0.00081"></path>
<path d="M1.197 -0.002 Q1.133 0.229 1.569 0.312" stroke="hsl(0.0,100%,35%)" stroke-width="0.00081"></path>
<path d="M1.197 -0.002 Q0.126 0.281 0.442 0.866" stroke="hsl(0.0,100%,35%)" stroke-width="0.00081"></path>
<path d="M1.197 -0.002 Q1.281 0.069 1.438 0.044" stroke="hsl(0.0,100%,35%)" stroke-width="0.00081"></path>
<path d="M0.719 0.551 Q0.940 0.495 0.878 0.375" stroke="hsl(180.0,100%,35%)" stroke-width="0.00081"></path>
<path d="M0.719 0.551 Q1.018 0.286 0.566 0.082" stroke="hsl(180.0,100%,35%)" stroke-width="0.00081"></path>
<path d="M0.719 0.551 Q1.167 0.592 1.345 0.382" stroke="hsl(180.0,100%,35%)" stroke-width="0.00081"></path>
<path d="M1.121 0.395 Q0.405 0.495 0.442 0.866" stroke="hsl(180.0,100%,35%)" stroke-width="0.00648"></path>
<path d="M1.121 0.395 Q1.682 0.419 1.852 0.151" stroke="hsl(180.0,100%,35%)" stroke-width="0.00081"></path>
<path d="M1.121 0.395 Q1.094 0.127 0.566 0.082" stroke="hsl(180.0,100%,35%)" stroke-width="0.00567"></path>
<path d="M1.121 0.395 Q1.243 0.433 1.345 0.382" stroke="hsl(180.0,100%,35%)" stroke-width="0.00729"></path>
<path d="M1.121 0.395 Q1.015 0.336 0.878 0.375" stroke="hsl(180.0,100%,35%)" stroke-width="0.00567"></path>
<path d="M1.121 0.395 Q1.076 0.255 0.793 0.246" stroke="hsl(180.0,100%,35%)" stroke-width="0.00243"></path>
<path d="M1.264 0.153 Q1.247 0.219 1.372 0.241" stroke="hsl(0.0,100%,35%)" stroke-width="0.00081"></path>
<path d="M1.264 0.153 Q1.438 0.133 1.438 0.044" stroke="hsl(0.0,100%,35%)" stroke-width="0.00081"></path>
<path d="M1.264 0.153 Q1.121 0.283 1.345 0.382" stroke="hsl(0.0,100%,35%)" stroke-width="0.00081"></path>
<path d="M1.741 0.246 Q1.815 0.145 1.634 0.087" stroke="hsl(0.0,100%,35%)" stroke-width="0.00243"></path>
<path d="M1.741 0.246 Q0.862 0.258 0.693 0.689" stroke="hsl(0.0,100%,35%)" stroke-width="0.00081"></path>
<path d="M1.741 0.246 Q1.692 0.193 1.578 0.205" stroke="hsl(0.0,100%,35%)" stroke-width="0.00162"></path>
<path d="M0.638 0.161 Q0.665 0.107 0.566 0.082" stroke="hsl(180.0,100%,35%)" stroke-width="0.02995"></path>
<path d="M0.638 0.161 Q1.196 0.323 1.634 0.087" stroke="hsl(180.0,100%,35%)" stroke-width="0.00081"></path>
<path d="M0.638 0.161 Q-0.024 0.474 0.442 0.866" stroke="hsl(180.0,100%,35%)" stroke-width="0.00162"></path>
<path d="M0.638 0.161 Q1.006 0.465 1.681 0.353" stroke="hsl(180.0,100%,35%)" stroke-width="0.00081"></path>
<path d="M0.638 0.161 Q1.073 0.371 1.578 0.205" stroke="hsl(180.0,100%,35%)" stroke-width="0.00081"></path>
<path d="M1.368 0.131 Q1.223 0.121 1.172 0.189" stroke="hsl(0.0,100%,35%)" stroke-width="0.00081"></path>
<path d="M1.368 0.131 Q0.317 0.313 0.442 0.866" stroke="hsl(0.0,100%,35%)" stroke-width="0.00081"></path>
<path d="M1.368 0.131 Q1.472 0.102 1.438 0.044" stroke="hsl(0.0,100%,35%)" stroke-width="0.00324"></path>
<path d="M1.368 0.131 Q1.298 0.346 1.704 0.428" stroke="hsl(0.0,100%,35%)" stroke-width="0.00081"></path>
<path d="M1.368 0.131 Q1.282 0.187 1.372 0.241" stroke="hsl(0.0,100%,35%)" stroke-width="0.00081"></path>
<path d="M1.368 0.131 Q0.421 0.084 0.122 0.535" stroke="hsl(0.0,100%,35%)" stroke-width="0.00081"></path>
<path d="M1.615 0.481 Q1.750 0.430 1.681 0.353" stroke="hsl(180.0,100%,35%)" stroke-width="0.00081"></path>
<path d="M1.615 0.481 Q1.392 0.199 0.793 0.246" stroke="hsl(180.0,100%,35%)" stroke-width="0.00081"></path>
<path d="M1.615 0.481 Q0.862 0.583 0.895 0.972" stroke="hsl(180.0,100%,35%)" stroke-width="0.00081"></path>
<path d="M1.615 0.481 Q1.410 0.072 0.566 0.082" stroke="hsl(180.0,100%,35%)" stroke-width="0.00081"></path>
<path d="M1.615 0.481 Q1.559 0.377 1.345 0.382" stroke="hsl(180.0,100%,35%)" stroke-width="0.00162"></path>
<path d="M1.615 0.481 Q1.940 0.288 1.634 0.087" stroke="hsl(180.0,100%,35%)" stroke-width="0.00081"></path>
<path d="M1.344 0.551 Q1.313 0.288 0.793 0.246" stroke="hsl(180.0,100%,35%)" stroke-width="0.00081"></path>
<path d="M1.344 0.551 Q1.479 0.466 1.345 0.382" stroke="hsl(180.0,100%,35%)" stroke-width="0.00162"></path>
<path d="M1.344 0.551 Q1.737 0.425 1.578 0.205" stroke="hsl(180.0,100%,35%)" stroke-width="0.00081"></path>
<path d="M1.235 0.750 Q0.888 0.793 0.895 0.972" stroke="hsl(0.0,100%,35%)" stroke-width="0.00162"></path>
<path d="M1.235 0.750 Q1.005 0.700 0.856 0.802" stroke="hsl(0.0,100%,35%)" stroke-width="0.00081"></path>
<path d="M1.235 0.750 Q1.042 0.862 1.217 0.981" stroke="hsl(0.0,100%,35%)" stroke-width="0.00081"></path>
<path d="M1.462 0.751 Q1.332 0.811 1.421 0.888" stroke="hsl(0.0,100%,35%)" stroke-width="0.00081"></path>
<path d="M1.462 0.751 Q1.119 0.655 0.856 0.802" stroke="hsl(0.0,100%,35%)" stroke-width="0.00081"></path>
<path d="M1.462 0.751 Q1.002 0.748 0.895 0.972" stroke="hsl(0.0,100%,35%)" stroke-width="0.00081"></path>
<path d="M1.462 0.751 Q0.861 0.604 0.442 0.866" stroke="hsl(0.0,100%,35%)" stroke-width="0.00081"></path>
<path d="M1.004 0.057 Q1.086 0.029 1.049 -0.017" stroke="hsl(0.0,100%,35%)" stroke-width="0.00162"></path>
<path d="M1.004 0.057 Q0.372 0.562 1.217 0.981" stroke="hsl(0.0,100%,35%)" stroke-width="0.00162"></path>
<path d="M1.004 0.057 Q1.012 0.142 1.180 0.157" stroke="hsl(0.0,100%,35%)" stroke-width="0.00081"></path>
<path d="M1.854 0.097 Q1.753 0.048 1.634 0.087" stroke="hsl(0.0,100%,35%)" stroke-width="0.00648"></path>
<path d="M1.854 0.097 Q1.372 0.137 1.345 0.382" stroke="hsl(0.0,100%,35%)" stroke-width="0.00486"></path>
<path d="M1.854 0.097 Q0.533 0.199 0.442 0.866" stroke="hsl(0.0,100%,35%)" stroke-width="0.00243"></path>
<path d="M1.854 0.097 Q1.205 -0.041 0.793 0.246" stroke="hsl(0.0,100%,35%)" stroke-width="0.00162"></path>
<path d="M1.854 0.097 Q1.222 -0.168 0.566 0.082" stroke="hsl(0.0,100%,35%)" stroke-width="0.00081"></path>
<path d="M1.854 0.097 Q0.675 0.343 0.895 0.972" stroke="hsl(0.0,100%,35%)" stroke-width="0.00081"></path>
<path d="M0.468 0.568 Q0.217 0.712 0.442 0.866" stroke="hsl(0.0,100%,35%)" stroke-width="0.00081"></path>
<path d="M0.468 0.568 Q0.484 0.674 0.693 0.689" stroke="hsl(0.0,100%,35%)" stroke-width="0.00324"></path>
<path d="M0.468 0.568 Q1.436 0.561 1.634 0.087" stroke="hsl(0.0,100%,35%)" stroke-width="0.00162"></path>
<path d="M0.468 0.568 Q0.359 0.856 0.895 0.972" stroke="hsl(0.0,100%,35%)" stroke-width="0.00081"></path>
<path d="M0.168 0.353 Q0.152 0.678 0.784 0.757" stroke="hsl(180.0,100%,35%)" stroke-width="0.00081"></path>
<path d="M0.168 0.353 Q0.158 0.469 0.384 0.499" stroke="hsl(180.0,100%,35%)" stroke-width="0.00081"></path>
<path d="M0.168 0.353 Q0.416 0.743 1.231 0.708" stroke="hsl(180.0,100%,35%)" stroke-width="0.00081"></path>
<path d="M0.168 0.353 Q1.095 0.610 1.800 0.214" stroke="hsl(180.0,100%,35%)" stroke-width="0.00081"></path>
<path d="M0.627 0.759 Q1.668 0.624 1.634 0.087" stroke="hsl(0.0,100%,35%)" stroke-width="0.00081"></path>
<path d="M0.627 0.759 Q0.449 0.776 0.442 0.866" stroke="hsl(0.0,100%,35%)" stroke-width="0.00162"></path>
<path d="M0.627 0.759 Q0.716 0.737 0.693 0.689" stroke="hsl(0.0,100%,35%)" stroke-width="0.00081"></path>
<path d="M0.627 0.759 Q0.879 0.795 1.003 0.679" stroke="hsl(0.0,100%,35%)" stroke-width="0.00081"></path>
<path d="M1.125 0.553 Q0.791 0.624 0.856 0.802" stroke="hsl(0.0,100%,35%)" stroke-width="0.00081"></path>
<path d="M1.125 0.553 Q0.797 0.378 0.384 0.499" stroke="hsl(0.0,100%,35%)" stroke-width="0.00081"></path>
<path d="M1.125 0.553 Q0.675 0.717 0.895 0.972" stroke="hsl(0.0,100%,35%)" stroke-width="0.00081"></path>
<path d="M1.125 0.553 Q1.498 0.446 1.372 0.241" stroke="hsl(0.0,100%,35%)" stroke-width="0.00081"></path>
<path d="M1.125 0.553 Q0.533 0.573 0.442 0.866" stroke="hsl(0.0,100%,35%)" stroke-width="0.00081"></path>
<path d="M1.125 0.553 Q1.128 0.617 1.255 0.630" stroke="hsl(0.0,100%,35%)" stroke-width="0.00081"></path>
<path d="M1.125 0.553 Q0.478 0.638 0.504 0.972" stroke="hsl(0.0,100%,35%)" stroke-width="0.00081"></path>
<path d="M0.373 0.047 Q0.425 0.231 0.793 0.246" stroke="hsl(180.0,100%,35%)" stroke-width="0.00162"></path>
<path d="M0.373 0.047 Q-0.105 0.614 0.895 0.972" stroke="hsl(180.0,100%,35%)" stroke-width="0.00243"></path>
<path d="M0.373 0.047 Q1.055 0.384 1.862 0.126" stroke="hsl(180.0,100%,35%)" stroke-width="0.00162"></path>
<path d="M0.373 0.047 Q0.442 0.103 0.566 0.082" stroke="hsl(180.0,100%,35%)" stroke-width="0.01943"></path>
<path d="M0.373 0.047 Q0.364 0.312 0.878 0.375" stroke="hsl(180.0,100%,35%)" stroke-width="0.00648"></path>
<path d="M0.373 0.047 Q0.415 0.157 0.638 0.161" stroke="hsl(180.0,100%,35%)" stroke-width="0.00486"></path>
<path d="M0.373 0.047 Q0.849 0.367 1.578 0.205" stroke="hsl(180.0,100%,35%)" stroke-width="0.00162"></path>
<path d="M0.373 0.047 Q-0.247 0.470 0.442 0.866" stroke="hsl(180.0,100%,35%)" stroke-width="0.00405"></path>
<path d="M0.373 0.047 Q0.972 0.319 1.634 0.087" stroke="hsl(180.0,100%,35%)" stroke-width="0.00081"></path>
<path d="M0.373 0.047 Q0.592 0.409 1.345 0.382" stroke="hsl(180.0,100%,35%)" stroke-width="0.00081"></path>
<path d="M1.566 0.516 Q1.944 0.315 1.634 0.087" stroke="hsl(180.0,100%,35%)" stroke-width="0.00081"></path>
<path d="M1.566 0.516 Q1.563 0.405 1.345 0.382" stroke="hsl(180.0,100%,35%)" stroke-width="0.00162"></path>
<path d="M1.566 0.516 Q1.413 0.099 0.566 0.082" stroke="hsl(180.0,100%,35%)" stroke-width="0.00081"></path>
</g>
<text x="0.237" y="0.613" font-size="0.008536" fill="hsl(0.0,100%,20%)">abbyyeh</text>
<text x="0.442" y="0.829" font-size="0.073304" fill="hsl(0.0,100%,20%)">hta</text>
<text x="1.524" y="0.221" font-size="0.014784" fill="hsl(0.0,100%,20%)">kthelgason</text>
<text x="0.122" y="0.530" font-size="0.010454" fill="hsl(0.0,100%,20%)">peterhanspers</text>
<text x="1.569" y="0.303" font-size="0.017072" fill="hsl(0.0,100%,20%)">alessiob</text>
<text x="0.895" y="0.945" font-size="0.054656" fill="hsl(0.0,100%,20%)">mbonadei</text>
<text x="1.372" y="0.232" font-size="0.018603" fill="hsl(0.0,100%,20%)">henrik.lundin</text>
<text x="1.438" y="0.028" font-size="0.033605" fill="hsl(0.0,100%,20%)">jakobi</text>
<text x="0.384" y="0.491" font-size="0.015388" fill="hsl(180.0,100%,20%)">henrika</text>
<text x="1.704" y="0.425" font-size="0.006036" fill="hsl(0.0,100%,20%)">devicentepena</text>
<text x="1.800" y="0.208" font-size="0.012804" fill="hsl(0.0,100%,20%)">saza</text>
<text x="0.504" y="0.963" font-size="0.019087" fill="hsl(0.0,100%,20%)">tommi</text>
<text x="0.725" y="0.455" font-size="0.007392" fill="hsl(0.0,100%,20%)">andytamilo</text>
<text x="0.582" y="0.529" font-size="0.004268" fill="hsl(0.0,100%,20%)">deadbeef</text>
<text x="0.204" y="0.876" font-size="0.025607" fill="hsl(0.0,100%,20%)">jonaso</text>
<text x="0.994" y="0.120" font-size="0.012804" fill="hsl(180.0,100%,20%)">apehrson</text>
<text x="1.634" y="0.056" font-size="0.061700" fill="hsl(0.0,100%,20%)">danilchap</text>
<text x="1.345" y="0.362" font-size="0.040036" fill="hsl(180.0,100%,20%)">ssilkin</text>
<text x="0.793" y="0.228" font-size="0.035194" fill="hsl(180.0,100%,20%)">ilnik</text>
<text x="0.611" y="0.553" font-size="0.007392" fill="hsl(0.0,100%,20%)">ayp</text>
<text x="0.693" y="0.671" font-size="0.036714" fill="hsl(0.0,100%,20%)">orphis</text>
<text x="0.698" y="0.763" font-size="0.013496" fill="hsl(0.0,100%,20%)">boivie</text>
<text x="0.856" y="0.782" font-size="0.039579" fill="hsl(0.0,100%,20%)">jleconte</text>
<text x="0.548" y="0.422" font-size="0.018107" fill="hsl(180.0,100%,20%)">brandstrom</text>
<text x="0.878" y="0.356" font-size="0.038647" fill="hsl(180.0,100%,20%)">hbos</text>
<text x="0.926" y="0.520" font-size="0.007392" fill="hsl(0.0,100%,20%)">bwwilliams</text>
<text x="0.847" y="0.564" font-size="0.004268" fill="hsl(0.0,100%,20%)">haysc</text>
<text x="0.784" y="0.753" font-size="0.008536" fill="hsl(180.0,100%,20%)">gustaf</text>
<text x="1.862" y="0.118" font-size="0.015969" fill="hsl(0.0,100%,20%)">titovartem</text>
<text x="1.231" y="0.702" font-size="0.010454" fill="hsl(0.0,100%,20%)">peah</text>
<text x="1.852" y="0.145" font-size="0.010454" fill="hsl(0.0,100%,20%)">philipel</text>
<text x="1.578" y="0.194" font-size="0.021762" fill="hsl(0.0,100%,20%)">asapersson</text>
<text x="1.003" y="0.663" font-size="0.031938" fill="hsl(0.0,100%,20%)">perkj</text>
<text x="1.421" y="0.879" font-size="0.018107" fill="hsl(0.0,100%,20%)">jansson</text>
<text x="1.180" y="0.154" font-size="0.006036" fill="hsl(0.0,100%,20%)">magjed</text>
<text x="1.681" y="0.346" font-size="0.012804" fill="hsl(180.0,100%,20%)">brandtr</text>
<text x="0.566" y="0.060" font-size="0.043733" fill="hsl(180.0,100%,20%)">sprang</text>
<text x="1.910" y="0.210" font-size="0.006036" fill="hsl(0.0,100%,20%)">lndmrk</text>
<text x="1.217" y="0.973" font-size="0.014784" fill="hsl(0.0,100%,20%)">xalep</text>
<text x="1.105" y="0.760" font-size="0.033875" fill="hsl(0.0,100%,20%)">terelius</text>
<text x="0.642" y="0.920" font-size="0.036465" fill="hsl(0.0,100%,20%)">dorhen</text>
<text x="0.546" y="0.211" font-size="0.017597" fill="hsl(180.0,100%,20%)">eshr</text>
<text x="0.501" y="0.332" font-size="0.006036" fill="hsl(180.0,100%,20%)">olka</text>
<text x="1.802" y="0.225" font-size="0.007392" fill="hsl(180.0,100%,20%)">gaochun.dev</text>
<text x="0.397" y="0.714" font-size="0.051037" fill="hsl(0.0,100%,20%)">phancke</text>
<text x="1.546" y="0.909" font-size="0.012071" fill="hsl(0.0,100%,20%)">gavinmak</text>
<text x="0.922" y="0.110" font-size="0.014784" fill="hsl(180.0,100%,20%)">grulja</text>
<text x="1.106" y="0.171" font-size="0.004268" fill="hsl(180.0,100%,20%)">alcooper</text>
<text x="1.361" y="0.830" font-size="0.016529" fill="hsl(0.0,100%,20%)">handellm</text>
<text x="1.255" y="0.627" font-size="0.006036" fill="hsl(0.0,100%,20%)">stefan</text>
<text x="0.258" y="0.925" font-size="0.011292" fill="hsl(0.0,100%,20%)">hocheung</text>
<text x="1.067" y="0.247" font-size="0.015388" fill="hsl(180.0,100%,20%)">kron</text>
<text x="0.672" y="0.740" font-size="0.004268" fill="hsl(0.0,100%,20%)">solenberg</text>
<text x="1.197" y="-0.008" font-size="0.012071" fill="hsl(0.0,100%,20%)">tomasl</text>
<text x="0.719" y="0.548" font-size="0.007392" fill="hsl(180.0,100%,20%)">jianjun.zhu</text>
<text x="1.121" y="0.382" font-size="0.025249" fill="hsl(180.0,100%,20%)">jianlin.qiu</text>
<text x="1.264" y="0.149" font-size="0.007392" fill="hsl(0.0,100%,20%)">karllen.zheng</text>
<text x="1.741" y="0.241" font-size="0.010454" fill="hsl(0.0,100%,20%)">kinu</text>
<text x="0.638" y="0.146" font-size="0.030179" fill="hsl(180.0,100%,20%)">linderborg</text>
<text x="1.368" y="0.124" font-size="0.012804" fill="hsl(0.0,100%,20%)">lionelk</text>
<text x="1.172" y="0.187" font-size="0.004268" fill="hsl(0.0,100%,20%)">herre</text>
<text x="1.615" y="0.476" font-size="0.011292" fill="hsl(180.0,100%,20%)">lishunbo</text>
<text x="1.344" y="0.546" font-size="0.008536" fill="hsl(180.0,100%,20%)">lynnworld7</text>
<text x="1.235" y="0.745" font-size="0.010454" fill="hsl(0.0,100%,20%)">mheikal</text>
<text x="1.462" y="0.747" font-size="0.008536" fill="hsl(0.0,100%,20%)">pareynolds</text>
<text x="0.926" y="0.690" font-size="0.012071" fill="hsl(0.0,100%,20%)">diepbp</text>
<text x="0.384" y="0.681" font-size="0.009543" fill="hsl(0.0,100%,20%)">davidben</text>
<text x="1.004" y="0.052" font-size="0.009543" fill="hsl(0.0,100%,20%)">ranvr</text>
<text x="1.049" y="-0.020" font-size="0.006036" fill="hsl(0.0,100%,20%)">fabianbergmark</text>
<text x="1.854" y="0.087" font-size="0.019558" fill="hsl(0.0,100%,20%)">sergio.garcia.murillo</text>
<text x="0.468" y="0.562" font-size="0.012071" fill="hsl(0.0,100%,20%)">shigemasa7watanabe</text>
<text x="0.168" y="0.348" font-size="0.008536" fill="hsl(180.0,100%,20%)">silen</text>
<text x="1.467" y="0.495" font-size="0.004268" fill="hsl(180.0,100%,20%)">dwtan</text>
<text x="1.272" y="0.517" font-size="0.006036" fill="hsl(180.0,100%,20%)">marpan</text>
<text x="0.627" y="0.754" font-size="0.009543" fill="hsl(0.0,100%,20%)">sushin</text>
<text x="1.351" y="0.676" font-size="0.004268" fill="hsl(0.0,100%,20%)">mirtad</text>
<text x="1.125" y="0.547" font-size="0.011292" fill="hsl(0.0,100%,20%)">tikuta</text>
<text x="0.373" y="0.032" font-size="0.031363" fill="hsl(180.0,100%,20%)">vardar</text>
<text x="1.566" y="0.512" font-size="0.008536" fill="hsl(180.0,100%,20%)">yingying.ma</text>
</svg>
