<svg width="4000" height="2000" viewBox="-0.025 -0.025 2.05 1.05" xmlns="http://www.w3.org/2000/svg">
  <style>
    path {
      fill: none;
      stroke-linecap: round;
      stroke-opacity: 0.4;
    }

    text {
      text-anchor: middle;
      alignment-baseline: hanging;
    }
  </style>
  <g opacity="0.4">
<path d="M1.002 0.738 Q1.021 0.829 1.205 0.840" stroke="hsl(0.0,100%,35%)" stroke-width="0.00176"></path>
<path d="M1.002 0.738 Q1.184 0.753 1.254 0.667" stroke="hsl(0.0,100%,35%)" stroke-width="0.00411"></path>
<path d="M1.002 0.738 Q1.274 0.538 0.945 0.362" stroke="hsl(0.0,100%,35%)" stroke-width="0.00059"></path>
<path d="M1.002 0.738 Q0.675 0.466 0.072 0.566" stroke="hsl(0.0,100%,35%)" stroke-width="0.00469"></path>
<path d="M1.002 0.738 Q1.717 0.565 1.537 0.178" stroke="hsl(0.0,100%,35%)" stroke-width="0.00117"></path>
<path d="M1.002 0.738 Q0.977 0.775 1.044 0.795" stroke="hsl(0.0,100%,35%)" stroke-width="0.00117"></path>
<path d="M1.002 0.738 Q1.648 0.693 1.702 0.368" stroke="hsl(0.0,100%,35%)" stroke-width="0.00059"></path>
<path d="M1.205 0.840 Q0.858 0.476 0.072 0.566" stroke="hsl(0.0,100%,35%)" stroke-width="0.00059"></path>
<path d="M1.205 0.840 Q1.240 0.920 1.404 0.920" stroke="hsl(0.0,100%,35%)" stroke-width="0.00059"></path>
<path d="M1.205 0.840 Q1.831 0.704 1.702 0.368" stroke="hsl(0.0,100%,35%)" stroke-width="0.00059"></path>
<path d="M1.254 0.667 Q1.091 0.744 1.205 0.840" stroke="hsl(0.0,100%,35%)" stroke-width="0.00117"></path>
<path d="M1.254 0.667 Q1.717 0.607 1.702 0.368" stroke="hsl(0.0,100%,35%)" stroke-width="0.00117"></path>
<path d="M1.254 0.667 Q1.466 0.720 1.616 0.628" stroke="hsl(0.0,100%,35%)" stroke-width="0.00059"></path>
<path d="M1.254 0.667 Q1.000 0.428 0.478 0.499" stroke="hsl(0.0,100%,35%)" stroke-width="0.00059"></path>
<path d="M1.254 0.667 Q1.298 0.799 1.566 0.807" stroke="hsl(0.0,100%,35%)" stroke-width="0.00176"></path>
<path d="M1.254 0.667 Q1.060 0.563 0.814 0.634" stroke="hsl(0.0,100%,35%)" stroke-width="0.00117"></path>
<path d="M1.254 0.667 Q0.744 0.380 0.072 0.566" stroke="hsl(0.0,100%,35%)" stroke-width="0.00059"></path>
<path d="M1.254 0.667 Q0.814 0.445 0.283 0.610" stroke="hsl(0.0,100%,35%)" stroke-width="0.00059"></path>
<path d="M1.254 0.667 Q1.071 0.652 1.002 0.738" stroke="hsl(0.0,100%,35%)" stroke-width="0.00059"></path>
<path d="M0.945 0.362 Q0.345 0.289 0.072 0.566" stroke="hsl(0.0,100%,35%)" stroke-width="0.00235"></path>
<path d="M0.945 0.362 Q0.318 0.440 0.332 0.763" stroke="hsl(0.0,100%,35%)" stroke-width="0.00293"></path>
<path d="M0.945 0.362 Q0.158 0.516 0.287 0.934" stroke="hsl(0.0,100%,35%)" stroke-width="0.00059"></path>
<path d="M0.072 0.566 Q0.329 0.614 0.478 0.499" stroke="hsl(0.0,100%,35%)" stroke-width="0.01114"></path>
<path d="M0.072 0.566 Q0.626 0.985 1.566 0.807" stroke="hsl(0.0,100%,35%)" stroke-width="0.00117"></path>
<path d="M0.072 0.566 Q-0.001 0.619 0.087 0.667" stroke="hsl(0.0,100%,35%)" stroke-width="0.02698"></path>
<path d="M0.072 0.566 Q0.656 1.058 1.744 0.881" stroke="hsl(0.0,100%,35%)" stroke-width="0.00469"></path>
<path d="M0.072 0.566 Q-0.115 0.793 0.287 0.934" stroke="hsl(0.0,100%,35%)" stroke-width="0.00587"></path>
<path d="M0.072 0.566 Q0.553 0.498 0.527 0.249" stroke="hsl(0.0,100%,35%)" stroke-width="0.00059"></path>
<path d="M0.072 0.566 Q0.370 0.569 0.442 0.425" stroke="hsl(0.0,100%,35%)" stroke-width="0.00117"></path>
<path d="M0.072 0.566 Q0.142 0.630 0.283 0.610" stroke="hsl(0.0,100%,35%)" stroke-width="0.00352"></path>
<path d="M0.072 0.566 Q0.672 0.638 0.945 0.362" stroke="hsl(0.0,100%,35%)" stroke-width="0.00117"></path>
<path d="M0.072 0.566 Q0.197 0.831 0.743 0.829" stroke="hsl(0.0,100%,35%)" stroke-width="0.00293"></path>
<path d="M0.072 0.566 Q1.114 0.665 1.537 0.178" stroke="hsl(0.0,100%,35%)" stroke-width="0.00059"></path>
<path d="M0.072 0.566 Q0.972 0.631 1.297 0.206" stroke="hsl(0.0,100%,35%)" stroke-width="0.00059"></path>
<path d="M0.072 0.566 Q0.254 0.559 0.280 0.469" stroke="hsl(0.0,100%,35%)" stroke-width="0.00059"></path>
<path d="M0.072 0.566 Q0.324 0.645 0.533 0.539" stroke="hsl(0.0,100%,35%)" stroke-width="0.00235"></path>
<path d="M1.537 0.178 Q0.838 -0.093 0.154 0.188" stroke="hsl(0.0,100%,35%)" stroke-width="0.00059"></path>
<path d="M1.537 0.178 Q0.495 0.079 0.072 0.566" stroke="hsl(0.0,100%,35%)" stroke-width="0.00059"></path>
<path d="M1.537 0.178 Q0.308 0.306 0.287 0.934" stroke="hsl(0.0,100%,35%)" stroke-width="0.00059"></path>
<path d="M1.537 0.178 Q1.005 0.366 1.254 0.667" stroke="hsl(0.0,100%,35%)" stroke-width="0.00059"></path>
<path d="M1.494 0.308 Q1.550 0.380 1.702 0.368" stroke="hsl(0.0,100%,35%)" stroke-width="0.00938"></path>
<path d="M1.494 0.308 Q1.619 0.252 1.537 0.178" stroke="hsl(0.0,100%,35%)" stroke-width="0.00645"></path>
<path d="M1.494 0.308 Q0.390 0.380 0.287 0.934" stroke="hsl(0.0,100%,35%)" stroke-width="0.00176"></path>
<path d="M0.287 0.934 Q0.474 0.707 0.072 0.566" stroke="hsl(0.0,100%,35%)" stroke-width="0.01056"></path>
<path d="M0.287 0.934 Q0.415 0.915 0.407 0.849" stroke="hsl(0.0,100%,35%)" stroke-width="0.00469"></path>
<path d="M0.287 0.934 Q0.447 0.857 0.332 0.763" stroke="hsl(0.0,100%,35%)" stroke-width="0.00411"></path>
<path d="M0.287 0.934 Q1.058 1.199 1.744 0.881" stroke="hsl(0.0,100%,35%)" stroke-width="0.00176"></path>
<path d="M0.287 0.934 Q0.544 0.771 0.283 0.610" stroke="hsl(0.0,100%,35%)" stroke-width="0.00176"></path>
<path d="M1.101 0.444 Q1.166 0.522 1.334 0.508" stroke="hsl(0.0,100%,35%)" stroke-width="0.00117"></path>
<path d="M1.101 0.444 Q1.211 0.639 1.616 0.628" stroke="hsl(0.0,100%,35%)" stroke-width="0.00176"></path>
<path d="M1.101 0.444 Q0.461 0.449 0.332 0.763" stroke="hsl(0.0,100%,35%)" stroke-width="0.00117"></path>
<path d="M1.616 0.628 Q1.477 0.780 1.744 0.881" stroke="hsl(0.0,100%,35%)" stroke-width="0.00235"></path>
<path d="M1.616 0.628 Q0.963 0.352 0.283 0.610" stroke="hsl(0.0,100%,35%)" stroke-width="0.00117"></path>
<path d="M1.616 0.628 Q1.447 0.707 1.566 0.807" stroke="hsl(0.0,100%,35%)" stroke-width="0.00293"></path>
<path d="M1.616 0.628 Q1.150 0.336 0.478 0.499" stroke="hsl(0.0,100%,35%)" stroke-width="0.00059"></path>
<path d="M1.616 0.628 Q0.894 0.288 0.072 0.566" stroke="hsl(0.0,100%,35%)" stroke-width="0.00059"></path>
<path d="M0.332 0.763 Q0.430 0.677 0.283 0.610" stroke="hsl(0.0,100%,35%)" stroke-width="0.00059"></path>
<path d="M0.332 0.763 Q0.416 0.976 0.851 0.982" stroke="hsl(0.0,100%,35%)" stroke-width="0.00176"></path>
<path d="M0.332 0.763 Q0.707 0.976 1.205 0.840" stroke="hsl(0.0,100%,35%)" stroke-width="0.00059"></path>
<path d="M0.332 0.763 Q0.301 0.821 0.407 0.849" stroke="hsl(0.0,100%,35%)" stroke-width="0.00059"></path>
<path d="M0.833 0.912 Q0.948 1.005 1.153 0.969" stroke="hsl(0.0,100%,35%)" stroke-width="0.00059"></path>
<path d="M0.833 0.912 Q1.314 1.079 1.744 0.881" stroke="hsl(0.0,100%,35%)" stroke-width="0.00059"></path>
<path d="M0.833 0.912 Q1.452 0.926 1.616 0.628" stroke="hsl(0.0,100%,35%)" stroke-width="0.00059"></path>
<path d="M1.744 0.881 Q2.060 0.454 1.297 0.206" stroke="hsl(0.0,100%,35%)" stroke-width="0.00352"></path>
<path d="M1.744 0.881 Q1.504 0.216 0.154 0.188" stroke="hsl(0.0,100%,35%)" stroke-width="0.00059"></path>
<path d="M1.744 0.881 Q1.378 0.807 1.153 0.969" stroke="hsl(0.0,100%,35%)" stroke-width="0.00059"></path>
<path d="M1.744 0.881 Q1.714 0.808 1.566 0.807" stroke="hsl(0.0,100%,35%)" stroke-width="0.00762"></path>
<path d="M1.744 0.881 Q1.160 0.389 0.072 0.566" stroke="hsl(0.0,100%,35%)" stroke-width="0.00469"></path>
<path d="M1.744 0.881 Q0.973 0.616 0.287 0.934" stroke="hsl(0.0,100%,35%)" stroke-width="0.00176"></path>
<path d="M1.744 0.881 Q1.230 0.454 0.283 0.610" stroke="hsl(0.0,100%,35%)" stroke-width="0.00059"></path>
<path d="M1.744 0.881 Q1.087 0.443 0.087 0.667" stroke="hsl(0.0,100%,35%)" stroke-width="0.00059"></path>
<path d="M1.744 0.881 Q1.115 0.491 0.217 0.713" stroke="hsl(0.0,100%,35%)" stroke-width="0.00059"></path>
<path d="M1.744 0.881 Q1.216 0.753 0.851 0.982" stroke="hsl(0.0,100%,35%)" stroke-width="0.00059"></path>
<path d="M1.744 0.881 Q1.285 0.655 0.743 0.829" stroke="hsl(0.0,100%,35%)" stroke-width="0.00176"></path>
<path d="M1.744 0.758 Q1.646 0.820 1.744 0.881" stroke="hsl(0.0,100%,35%)" stroke-width="0.00235"></path>
<path d="M1.744 0.758 Q1.879 0.425 1.258 0.287" stroke="hsl(0.0,100%,35%)" stroke-width="0.00117"></path>
<path d="M1.744 0.758 Q1.616 0.747 1.566 0.807" stroke="hsl(0.0,100%,35%)" stroke-width="0.00059"></path>
<path d="M1.566 0.807 Q1.596 0.879 1.744 0.881" stroke="hsl(0.0,100%,35%)" stroke-width="0.01056"></path>
<path d="M1.566 0.807 Q1.912 0.453 1.297 0.206" stroke="hsl(0.0,100%,35%)" stroke-width="0.00176"></path>
<path d="M1.566 0.807 Q1.734 0.727 1.616 0.628" stroke="hsl(0.0,100%,35%)" stroke-width="0.00293"></path>
<path d="M1.566 0.807 Q0.967 0.490 0.217 0.713" stroke="hsl(0.0,100%,35%)" stroke-width="0.00176"></path>
<path d="M1.566 0.807 Q1.522 0.675 1.254 0.667" stroke="hsl(0.0,100%,35%)" stroke-width="0.00293"></path>
<path d="M1.566 0.807 Q1.012 0.388 0.072 0.566" stroke="hsl(0.0,100%,35%)" stroke-width="0.00704"></path>
<path d="M1.566 0.807 Q1.268 0.436 0.478 0.499" stroke="hsl(0.0,100%,35%)" stroke-width="0.00059"></path>
<path d="M1.566 0.807 Q1.289 0.303 0.244 0.327" stroke="hsl(0.0,100%,35%)" stroke-width="0.00176"></path>
<path d="M1.566 0.807 Q1.137 0.653 0.743 0.829" stroke="hsl(0.0,100%,35%)" stroke-width="0.00117"></path>
<path d="M1.566 0.807 Q1.355 0.215 0.154 0.188" stroke="hsl(0.0,100%,35%)" stroke-width="0.00176"></path>
<path d="M1.566 0.807 Q1.624 0.532 1.101 0.444" stroke="hsl(0.0,100%,35%)" stroke-width="0.00059"></path>
<path d="M1.566 0.807 Q1.443 0.862 1.524 0.934" stroke="hsl(0.0,100%,35%)" stroke-width="0.00059"></path>
<path d="M1.566 0.807 Q1.264 0.467 0.533 0.539" stroke="hsl(0.0,100%,35%)" stroke-width="0.00293"></path>
<path d="M1.566 0.807 Q1.359 0.751 1.205 0.840" stroke="hsl(0.0,100%,35%)" stroke-width="0.00059"></path>
<path d="M1.566 0.807 Q2.054 0.487 1.537 0.178" stroke="hsl(0.0,100%,35%)" stroke-width="0.00117"></path>
<path d="M1.566 0.807 Q0.825 0.615 0.287 0.934" stroke="hsl(0.0,100%,35%)" stroke-width="0.00059"></path>
<path d="M0.283 0.610 Q0.338 0.811 0.743 0.829" stroke="hsl(0.0,100%,35%)" stroke-width="0.00880"></path>
<path d="M0.283 0.610 Q0.214 0.546 0.072 0.566" stroke="hsl(0.0,100%,35%)" stroke-width="0.02815"></path>
<path d="M0.283 0.610 Q0.168 0.648 0.217 0.713" stroke="hsl(0.0,100%,35%)" stroke-width="0.00821"></path>
<path d="M0.283 0.610 Q0.395 0.539 0.280 0.469" stroke="hsl(0.0,100%,35%)" stroke-width="0.00059"></path>
<path d="M0.283 0.610 Q0.557 0.373 0.154 0.188" stroke="hsl(0.0,100%,35%)" stroke-width="0.00117"></path>
<path d="M0.283 0.610 Q0.797 1.038 1.744 0.881" stroke="hsl(0.0,100%,35%)" stroke-width="0.00704"></path>
<path d="M0.283 0.610 Q0.826 0.691 1.101 0.444" stroke="hsl(0.0,100%,35%)" stroke-width="0.00235"></path>
<path d="M0.283 0.610 Q0.768 0.965 1.566 0.807" stroke="hsl(0.0,100%,35%)" stroke-width="0.00469"></path>
<path d="M0.283 0.610 Q0.530 0.729 0.814 0.634" stroke="hsl(0.0,100%,35%)" stroke-width="0.00176"></path>
<path d="M0.283 0.610 Q0.095 0.691 0.210 0.800" stroke="hsl(0.0,100%,35%)" stroke-width="0.00059"></path>
<path d="M0.283 0.610 Q0.465 0.625 0.533 0.539" stroke="hsl(0.0,100%,35%)" stroke-width="0.00411"></path>
<path d="M0.283 0.610 Q0.561 0.910 1.205 0.840" stroke="hsl(0.0,100%,35%)" stroke-width="0.00469"></path>
<path d="M0.283 0.610 Q0.431 0.964 1.153 0.969" stroke="hsl(0.0,100%,35%)" stroke-width="0.00352"></path>
<path d="M0.283 0.610 Q0.027 0.773 0.287 0.934" stroke="hsl(0.0,100%,35%)" stroke-width="0.00235"></path>
<path d="M0.283 0.610 Q0.936 0.885 1.616 0.628" stroke="hsl(0.0,100%,35%)" stroke-width="0.00176"></path>
<path d="M0.283 0.610 Q1.030 0.643 1.258 0.287" stroke="hsl(0.0,100%,35%)" stroke-width="0.00235"></path>
<path d="M0.283 0.610 Q1.187 0.773 1.702 0.368" stroke="hsl(0.0,100%,35%)" stroke-width="0.00117"></path>
<path d="M0.283 0.610 Q0.723 0.833 1.254 0.667" stroke="hsl(0.0,100%,35%)" stroke-width="0.00059"></path>
<path d="M0.283 0.610 Q0.186 0.696 0.332 0.763" stroke="hsl(0.0,100%,35%)" stroke-width="0.00352"></path>
<path d="M0.283 0.610 Q0.595 0.989 1.404 0.920" stroke="hsl(0.0,100%,35%)" stroke-width="0.00117"></path>
<path d="M0.283 0.610 Q0.617 0.649 0.765 0.495" stroke="hsl(0.0,100%,35%)" stroke-width="0.00059"></path>
<path d="M0.283 0.610 Q0.490 0.461 0.244 0.327" stroke="hsl(0.0,100%,35%)" stroke-width="0.00059"></path>
<path d="M0.283 0.610 Q0.891 0.769 1.334 0.508" stroke="hsl(0.0,100%,35%)" stroke-width="0.00352"></path>
<path d="M0.283 0.610 Q1.256 0.645 1.537 0.178" stroke="hsl(0.0,100%,35%)" stroke-width="0.00059"></path>
<path d="M0.283 0.610 Q0.155 0.754 0.407 0.849" stroke="hsl(0.0,100%,35%)" stroke-width="0.00059"></path>
<path d="M0.283 0.610 Q0.034 0.687 0.128 0.825" stroke="hsl(0.0,100%,35%)" stroke-width="0.00059"></path>
<path d="M0.283 0.610 Q0.140 0.599 0.087 0.667" stroke="hsl(0.0,100%,35%)" stroke-width="0.00059"></path>
<path d="M0.743 0.829 Q0.573 0.665 0.217 0.713" stroke="hsl(0.0,100%,35%)" stroke-width="0.00059"></path>
<path d="M0.743 0.829 Q0.618 0.563 0.072 0.566" stroke="hsl(0.0,100%,35%)" stroke-width="0.00176"></path>
<path d="M0.743 0.829 Q0.795 0.880 0.907 0.866" stroke="hsl(0.0,100%,35%)" stroke-width="0.00352"></path>
<path d="M0.743 0.829 Q1.340 0.903 1.616 0.628" stroke="hsl(0.0,100%,35%)" stroke-width="0.00059"></path>
<path d="M0.743 0.829 Q0.934 0.746 0.814 0.634" stroke="hsl(0.0,100%,35%)" stroke-width="0.00176"></path>
<path d="M0.743 0.829 Q0.590 0.714 0.332 0.763" stroke="hsl(0.0,100%,35%)" stroke-width="0.00059"></path>
<path d="M0.743 0.829 Q1.202 1.055 1.744 0.881" stroke="hsl(0.0,100%,35%)" stroke-width="0.00293"></path>
<path d="M0.743 0.829 Q0.545 0.617 0.087 0.667" stroke="hsl(0.0,100%,35%)" stroke-width="0.00059"></path>
<path d="M0.217 0.713 Q0.518 0.658 0.478 0.499" stroke="hsl(0.0,100%,35%)" stroke-width="0.00059"></path>
<path d="M0.217 0.713 Q0.262 0.610 0.072 0.566" stroke="hsl(0.0,100%,35%)" stroke-width="0.00059"></path>
<path d="M0.217 0.713 Q0.189 0.664 0.087 0.667" stroke="hsl(0.0,100%,35%)" stroke-width="0.00059"></path>
<path d="M0.217 0.713 Q0.846 1.102 1.744 0.881" stroke="hsl(0.0,100%,35%)" stroke-width="0.00059"></path>
<path d="M0.280 0.469 Q0.682 0.968 1.744 0.881" stroke="hsl(0.0,100%,35%)" stroke-width="0.00059"></path>
<path d="M0.280 0.469 Q0.071 0.626 0.332 0.763" stroke="hsl(0.0,100%,35%)" stroke-width="0.00117"></path>
<path d="M0.280 0.469 Q0.099 0.476 0.072 0.566" stroke="hsl(0.0,100%,35%)" stroke-width="0.01525"></path>
<path d="M0.280 0.469 Q0.608 0.763 1.254 0.667" stroke="hsl(0.0,100%,35%)" stroke-width="0.00059"></path>
<path d="M0.280 0.469 Q0.821 0.815 1.616 0.628" stroke="hsl(0.0,100%,35%)" stroke-width="0.00059"></path>
<path d="M0.280 0.469 Q0.355 0.524 0.478 0.499" stroke="hsl(0.0,100%,35%)" stroke-width="0.00059"></path>
<path d="M0.280 0.469 Q-0.020 0.620 0.210 0.800" stroke="hsl(0.0,100%,35%)" stroke-width="0.00235"></path>
<path d="M0.280 0.469 Q0.223 0.741 0.743 0.829" stroke="hsl(0.0,100%,35%)" stroke-width="0.00117"></path>
<path d="M0.280 0.469 Q0.053 0.578 0.217 0.713" stroke="hsl(0.0,100%,35%)" stroke-width="0.00059"></path>
<path d="M0.280 0.469 Q0.396 0.479 0.442 0.425" stroke="hsl(0.0,100%,35%)" stroke-width="0.00059"></path>
<path d="M0.280 0.469 Q0.442 0.303 0.154 0.188" stroke="hsl(0.0,100%,35%)" stroke-width="0.00059"></path>
<path d="M0.280 0.469 Q-0.089 0.703 0.287 0.934" stroke="hsl(0.0,100%,35%)" stroke-width="0.00176"></path>
<path d="M0.154 0.188 Q0.029 0.778 1.153 0.969" stroke="hsl(0.0,100%,35%)" stroke-width="0.00059"></path>
<path d="M0.154 0.188 Q0.127 0.543 0.814 0.634" stroke="hsl(0.0,100%,35%)" stroke-width="0.00411"></path>
<path d="M0.154 0.188 Q0.395 0.852 1.744 0.881" stroke="hsl(0.0,100%,35%)" stroke-width="0.00117"></path>
<path d="M0.154 0.188 Q-0.119 0.425 0.283 0.610" stroke="hsl(0.0,100%,35%)" stroke-width="0.00176"></path>
<path d="M0.154 0.188 Q0.423 0.505 1.101 0.444" stroke="hsl(0.0,100%,35%)" stroke-width="0.00117"></path>
<path d="M0.154 0.188 Q0.488 0.584 1.334 0.508" stroke="hsl(0.0,100%,35%)" stroke-width="0.00176"></path>
<path d="M0.154 0.188 Q0.627 0.458 1.258 0.287" stroke="hsl(0.0,100%,35%)" stroke-width="0.00059"></path>
<path d="M0.154 0.188 Q-0.262 0.414 0.087 0.667" stroke="hsl(0.0,100%,35%)" stroke-width="0.00059"></path>
<path d="M0.154 0.188 Q0.321 0.647 1.254 0.667" stroke="hsl(0.0,100%,35%)" stroke-width="0.00117"></path>
<path d="M0.533 0.539 Q0.598 0.643 0.814 0.634" stroke="hsl(0.0,100%,35%)" stroke-width="0.00059"></path>
<path d="M0.533 0.539 Q0.538 0.508 0.478 0.499" stroke="hsl(0.0,100%,35%)" stroke-width="0.00176"></path>
<path d="M0.533 0.539 Q0.768 0.298 0.348 0.130" stroke="hsl(0.0,100%,35%)" stroke-width="0.00059"></path>
<path d="M0.533 0.539 Q0.625 0.288 0.154 0.188" stroke="hsl(0.0,100%,35%)" stroke-width="0.00059"></path>
<path d="M0.533 0.539 Q0.762 0.393 0.527 0.249" stroke="hsl(0.0,100%,35%)" stroke-width="0.00059"></path>
<path d="M0.533 0.539 Q0.351 0.525 0.283 0.610" stroke="hsl(0.0,100%,35%)" stroke-width="0.00117"></path>
<path d="M0.533 0.539 Q0.282 0.460 0.072 0.566" stroke="hsl(0.0,100%,35%)" stroke-width="0.00117"></path>
<path d="M0.533 0.539 Q0.791 0.747 1.254 0.667" stroke="hsl(0.0,100%,35%)" stroke-width="0.00059"></path>
<path d="M0.533 0.539 Q0.463 0.453 0.280 0.469" stroke="hsl(0.0,100%,35%)" stroke-width="0.00059"></path>
<path d="M0.244 0.327 Q0.037 0.477 0.283 0.610" stroke="hsl(0.0,100%,35%)" stroke-width="0.03402"></path>
<path d="M0.244 0.327 Q0.551 0.904 1.744 0.881" stroke="hsl(0.0,100%,35%)" stroke-width="0.01232"></path>
<path d="M0.244 0.327 Q0.223 0.460 0.478 0.499" stroke="hsl(0.0,100%,35%)" stroke-width="0.00938"></path>
<path d="M0.244 0.327 Q-0.033 0.412 0.072 0.566" stroke="hsl(0.0,100%,35%)" stroke-width="0.07801"></path>
<path d="M0.244 0.327 Q0.567 0.485 0.945 0.362" stroke="hsl(0.0,100%,35%)" stroke-width="0.00352"></path>
<path d="M0.244 0.327 Q0.149 0.405 0.280 0.469" stroke="hsl(0.0,100%,35%)" stroke-width="0.00997"></path>
<path d="M0.244 0.327 Q0.219 0.491 0.533 0.539" stroke="hsl(0.0,100%,35%)" stroke-width="0.00117"></path>
<path d="M0.244 0.327 Q-0.061 0.563 0.332 0.763" stroke="hsl(0.0,100%,35%)" stroke-width="0.00235"></path>
<path d="M0.244 0.327 Q-0.092 0.621 0.407 0.849" stroke="hsl(0.0,100%,35%)" stroke-width="0.00411"></path>
<path d="M0.244 0.327 Q0.283 0.595 0.814 0.634" stroke="hsl(0.0,100%,35%)" stroke-width="0.00235"></path>
<path d="M0.244 0.327 Q0.689 0.752 1.616 0.628" stroke="hsl(0.0,100%,35%)" stroke-width="0.00176"></path>
<path d="M0.244 0.327 Q1.009 0.511 1.537 0.178" stroke="hsl(0.0,100%,35%)" stroke-width="0.00235"></path>
<path d="M0.244 0.327 Q0.447 0.345 0.527 0.249" stroke="hsl(0.0,100%,35%)" stroke-width="0.00176"></path>
<path d="M0.244 0.327 Q0.092 0.678 0.743 0.829" stroke="hsl(0.0,100%,35%)" stroke-width="0.00176"></path>
<path d="M0.244 0.327 Q-0.106 0.466 0.087 0.667" stroke="hsl(0.0,100%,35%)" stroke-width="0.00938"></path>
<path d="M0.244 0.327 Q0.867 0.478 1.297 0.206" stroke="hsl(0.0,100%,35%)" stroke-width="0.00176"></path>
<path d="M0.244 0.327 Q0.265 0.416 0.442 0.425" stroke="hsl(0.0,100%,35%)" stroke-width="0.00235"></path>
<path d="M0.244 0.327 Q0.521 0.832 1.566 0.807" stroke="hsl(0.0,100%,35%)" stroke-width="0.00587"></path>
<path d="M0.244 0.327 Q-0.220 0.639 0.287 0.934" stroke="hsl(0.0,100%,35%)" stroke-width="0.00176"></path>
<path d="M0.244 0.327 Q0.477 0.699 1.254 0.667" stroke="hsl(0.0,100%,35%)" stroke-width="0.00411"></path>
<path d="M0.244 0.327 Q0.414 0.420 0.633 0.357" stroke="hsl(0.0,100%,35%)" stroke-width="0.00176"></path>
<path d="M0.244 0.327 Q0.310 0.240 0.154 0.188" stroke="hsl(0.0,100%,35%)" stroke-width="0.00411"></path>
<path d="M0.244 0.327 Q0.783 0.510 1.258 0.287" stroke="hsl(0.0,100%,35%)" stroke-width="0.00059"></path>
<path d="M0.244 0.327 Q-0.078 0.515 0.217 0.713" stroke="hsl(0.0,100%,35%)" stroke-width="0.00059"></path>
<path d="M0.244 0.327 Q0.269 0.721 1.044 0.795" stroke="hsl(0.0,100%,35%)" stroke-width="0.00117"></path>
<path d="M0.244 0.327 Q-0.152 0.557 0.210 0.800" stroke="hsl(0.0,100%,35%)" stroke-width="0.00235"></path>
<path d="M0.244 0.327 Q0.940 0.639 1.702 0.368" stroke="hsl(0.0,100%,35%)" stroke-width="0.00235"></path>
<path d="M0.244 0.327 Q0.023 0.776 0.851 0.982" stroke="hsl(0.0,100%,35%)" stroke-width="0.00059"></path>
<path d="M0.244 0.327 Q0.185 0.830 1.153 0.969" stroke="hsl(0.0,100%,35%)" stroke-width="0.00059"></path>
<path d="M0.244 0.327 Q0.314 0.776 1.205 0.840" stroke="hsl(0.0,100%,35%)" stroke-width="0.00059"></path>
<path d="M0.244 0.327 Q1.183 0.591 1.904 0.190" stroke="hsl(0.0,100%,35%)" stroke-width="0.00059"></path>
<path d="M0.087 0.667 Q0.744 1.105 1.744 0.881" stroke="hsl(0.0,100%,35%)" stroke-width="0.01290"></path>
<path d="M0.087 0.667 Q-0.027 0.840 0.287 0.934" stroke="hsl(0.0,100%,35%)" stroke-width="0.00411"></path>
<path d="M0.087 0.667 Q0.161 0.613 0.072 0.566" stroke="hsl(0.0,100%,35%)" stroke-width="0.05220"></path>
<path d="M0.087 0.667 Q0.115 0.716 0.217 0.713" stroke="hsl(0.0,100%,35%)" stroke-width="0.00117"></path>
<path d="M0.087 0.667 Q1.689 -0.355 0.047 -1.361" stroke="hsl(0.0,100%,35%)" stroke-width="0.00059"></path>
<path d="M0.087 0.667 Q-0.019 0.754 0.128 0.825" stroke="hsl(0.0,100%,35%)" stroke-width="0.00059"></path>
<path d="M0.087 0.667 Q0.641 0.546 0.527 0.249" stroke="hsl(0.0,100%,35%)" stroke-width="0.00059"></path>
<path d="M0.087 0.667 Q0.670 0.900 1.254 0.667" stroke="hsl(0.0,100%,35%)" stroke-width="0.00235"></path>
<path d="M0.087 0.667 Q0.508 0.977 1.205 0.840" stroke="hsl(0.0,100%,35%)" stroke-width="0.00293"></path>
<path d="M0.087 0.667 Q0.714 1.033 1.566 0.807" stroke="hsl(0.0,100%,35%)" stroke-width="0.00059"></path>
<path d="M0.087 0.667 Q0.102 0.822 0.407 0.849" stroke="hsl(0.0,100%,35%)" stroke-width="0.00176"></path>
<path d="M0.087 0.667 Q0.477 0.796 0.814 0.634" stroke="hsl(0.0,100%,35%)" stroke-width="0.00235"></path>
<path d="M0.087 0.667 Q0.883 0.953 1.616 0.628" stroke="hsl(0.0,100%,35%)" stroke-width="0.00176"></path>
<path d="M0.087 0.667 Q0.230 0.678 0.283 0.610" stroke="hsl(0.0,100%,35%)" stroke-width="0.00176"></path>
<path d="M0.087 0.667 Q0.342 0.606 0.280 0.469" stroke="hsl(0.0,100%,35%)" stroke-width="0.00117"></path>
<path d="M0.087 0.667 Q0.285 0.879 0.743 0.829" stroke="hsl(0.0,100%,35%)" stroke-width="0.00176"></path>
<path d="M0.087 0.667 Q0.412 0.692 0.533 0.539" stroke="hsl(0.0,100%,35%)" stroke-width="0.00059"></path>
<path d="M0.087 0.667 Q0.564 0.716 0.765 0.495" stroke="hsl(0.0,100%,35%)" stroke-width="0.00059"></path>
<path d="M0.087 0.667 Q0.133 0.764 0.332 0.763" stroke="hsl(0.0,100%,35%)" stroke-width="0.00059"></path>
<path d="M0.907 0.866 Q0.855 0.814 0.743 0.829" stroke="hsl(0.0,100%,35%)" stroke-width="0.00293"></path>
<path d="M0.907 0.866 Q1.407 0.772 1.334 0.508" stroke="hsl(0.0,100%,35%)" stroke-width="0.00059"></path>
<path d="M0.907 0.866 Q0.702 0.699 0.332 0.763" stroke="hsl(0.0,100%,35%)" stroke-width="0.00059"></path>
<path d="M1.675 0.266 Q1.607 0.322 1.702 0.368" stroke="hsl(0.0,100%,35%)" stroke-width="0.00117"></path>
<path d="M1.675 0.266 Q0.703 0.160 0.283 0.610" stroke="hsl(0.0,100%,35%)" stroke-width="0.00059"></path>
<path d="M1.675 0.266 Q1.738 0.340 1.897 0.326" stroke="hsl(0.0,100%,35%)" stroke-width="0.00059"></path>
<path d="M1.300 0.954 Q1.344 0.878 1.205 0.840" stroke="hsl(0.0,100%,35%)" stroke-width="0.00059"></path>
<path d="M1.300 0.954 Q0.969 0.665 0.332 0.763" stroke="hsl(0.0,100%,35%)" stroke-width="0.00059"></path>
<path d="M1.300 0.954 Q0.938 0.723 0.407 0.849" stroke="hsl(0.0,100%,35%)" stroke-width="0.00059"></path>
<path d="M1.904 0.190 Q1.605 0.167 1.494 0.308" stroke="hsl(0.0,100%,35%)" stroke-width="0.00059"></path>
<path d="M1.904 0.190 Q1.198 0.299 1.254 0.667" stroke="hsl(0.0,100%,35%)" stroke-width="0.00235"></path>
<path d="M1.904 0.190 Q1.661 0.239 1.702 0.368" stroke="hsl(0.0,100%,35%)" stroke-width="0.00352"></path>
<path d="M1.904 0.190 Q0.688 0.012 0.072 0.566" stroke="hsl(0.0,100%,35%)" stroke-width="0.00059"></path>
<path d="M1.904 0.190 Q0.964 -0.073 0.244 0.327" stroke="hsl(0.0,100%,35%)" stroke-width="0.00059"></path>
<path d="M0.478 0.499 Q0.538 0.634 0.814 0.634" stroke="hsl(0.0,100%,35%)" stroke-width="0.00176"></path>
<path d="M0.478 0.499 Q0.222 0.451 0.072 0.566" stroke="hsl(0.0,100%,35%)" stroke-width="0.00411"></path>
<path d="M0.478 0.499 Q0.566 0.279 0.154 0.188" stroke="hsl(0.0,100%,35%)" stroke-width="0.00059"></path>
<path d="M0.478 0.499 Q0.732 0.738 1.254 0.667" stroke="hsl(0.0,100%,35%)" stroke-width="0.00059"></path>
<path d="M0.478 0.499 Q0.474 0.530 0.533 0.539" stroke="hsl(0.0,100%,35%)" stroke-width="0.00117"></path>
<path d="M0.478 0.499 Q0.149 0.505 0.087 0.667" stroke="hsl(0.0,100%,35%)" stroke-width="0.00059"></path>
<path d="M0.478 0.499 Q0.708 0.289 0.348 0.130" stroke="hsl(0.0,100%,35%)" stroke-width="0.00059"></path>
<path d="M0.348 0.130 Q0.118 0.341 0.478 0.499" stroke="hsl(0.0,100%,35%)" stroke-width="0.00235"></path>
<path d="M0.348 0.130 Q0.178 0.476 0.814 0.634" stroke="hsl(0.0,100%,35%)" stroke-width="0.00176"></path>
<path d="M0.348 0.130 Q0.205 0.120 0.154 0.188" stroke="hsl(0.0,100%,35%)" stroke-width="0.00176"></path>
<path d="M0.348 0.130 Q-0.138 0.293 0.072 0.566" stroke="hsl(0.0,100%,35%)" stroke-width="0.00117"></path>
<path d="M0.052 0.401 Q-0.069 0.488 0.072 0.566" stroke="hsl(0.0,100%,35%)" stroke-width="0.00469"></path>
<path d="M0.052 0.401 Q0.440 0.774 1.254 0.667" stroke="hsl(0.0,100%,35%)" stroke-width="0.00117"></path>
<path d="M0.052 0.401 Q-0.097 0.638 0.332 0.763" stroke="hsl(0.0,100%,35%)" stroke-width="0.00059"></path>
<path d="M0.052 0.401 Q0.182 0.566 0.533 0.539" stroke="hsl(0.0,100%,35%)" stroke-width="0.00059"></path>
<path d="M0.052 0.401 Q0.112 0.481 0.280 0.469" stroke="hsl(0.0,100%,35%)" stroke-width="0.00352"></path>
<path d="M0.442 0.425 Q0.145 0.421 0.072 0.566" stroke="hsl(0.0,100%,35%)" stroke-width="0.00587"></path>
<path d="M0.442 0.425 Q0.326 0.414 0.280 0.469" stroke="hsl(0.0,100%,35%)" stroke-width="0.00059"></path>
<path d="M0.442 0.425 Q-0.043 0.648 0.287 0.934" stroke="hsl(0.0,100%,35%)" stroke-width="0.00352"></path>
<path d="M0.442 0.425 Q0.071 0.475 0.087 0.667" stroke="hsl(0.0,100%,35%)" stroke-width="0.00059"></path>
<path d="M0.442 0.425 Q0.728 0.913 1.744 0.881" stroke="hsl(0.0,100%,35%)" stroke-width="0.00059"></path>
<path d="M0.442 0.425 Q0.491 0.785 1.205 0.840" stroke="hsl(0.0,100%,35%)" stroke-width="0.00059"></path>
<path d="M0.693 0.499 Q0.256 0.462 0.087 0.667" stroke="hsl(0.0,100%,35%)" stroke-width="0.00059"></path>
<path d="M0.693 0.499 Q0.329 0.408 0.072 0.566" stroke="hsl(0.0,100%,35%)" stroke-width="0.00176"></path>
<path d="M0.693 0.499 Q0.645 0.591 0.814 0.634" stroke="hsl(0.0,100%,35%)" stroke-width="0.00059"></path>
<path d="M0.693 0.499 Q0.399 0.473 0.283 0.610" stroke="hsl(0.0,100%,35%)" stroke-width="0.00059"></path>
<path d="M0.693 0.499 Q1.145 0.506 1.258 0.287" stroke="hsl(0.0,100%,35%)" stroke-width="0.00059"></path>
<path d="M0.693 0.499 Q0.511 0.401 0.280 0.469" stroke="hsl(0.0,100%,35%)" stroke-width="0.00059"></path>
<path d="M1.447 0.066 Q1.260 0.106 1.297 0.206" stroke="hsl(0.0,100%,35%)" stroke-width="0.00821"></path>
<path d="M1.447 0.066 Q0.943 0.533 1.744 0.881" stroke="hsl(0.0,100%,35%)" stroke-width="0.00762"></path>
<path d="M1.447 0.066 Q1.082 0.381 1.616 0.628" stroke="hsl(0.0,100%,35%)" stroke-width="0.00059"></path>
<path d="M0.362 0.192 Q0.261 0.148 0.154 0.188" stroke="hsl(0.0,100%,35%)" stroke-width="0.00176"></path>
<path d="M0.362 0.192 Q0.136 0.738 1.153 0.969" stroke="hsl(0.0,100%,35%)" stroke-width="0.00117"></path>
<path d="M0.362 0.192 Q-0.012 0.385 0.283 0.610" stroke="hsl(0.0,100%,35%)" stroke-width="0.00059"></path>
<path d="M0.655 0.703 Q0.599 0.784 0.743 0.829" stroke="hsl(0.0,100%,35%)" stroke-width="0.00059"></path>
<path d="M0.655 0.703 Q0.790 0.701 0.814 0.634" stroke="hsl(0.0,100%,35%)" stroke-width="0.00117"></path>
<path d="M0.655 0.703 Q1.073 0.590 0.945 0.362" stroke="hsl(0.0,100%,35%)" stroke-width="0.00059"></path>
<path d="M1.913 0.407 Q2.082 0.297 1.904 0.190" stroke="hsl(0.0,100%,35%)" stroke-width="0.00059"></path>
<path d="M1.913 0.407 Q0.866 0.118 0.072 0.566" stroke="hsl(0.0,100%,35%)" stroke-width="0.00059"></path>
<path d="M1.913 0.407 Q1.376 0.405 1.254 0.667" stroke="hsl(0.0,100%,35%)" stroke-width="0.00059"></path>
<path d="M0.104 0.125 Q0.320 0.831 1.744 0.881" stroke="hsl(0.0,100%,35%)" stroke-width="0.00059"></path>
<path d="M0.104 0.125 Q0.079 0.166 0.154 0.188" stroke="hsl(0.0,100%,35%)" stroke-width="0.00117"></path>
<path d="M0.104 0.125 Q-0.264 0.339 0.072 0.566" stroke="hsl(0.0,100%,35%)" stroke-width="0.00059"></path>
<path d="M0.928 0.510 Q0.456 0.367 0.072 0.566" stroke="hsl(0.0,100%,35%)" stroke-width="0.00176"></path>
<path d="M0.928 0.510 Q0.269 0.594 0.287 0.934" stroke="hsl(0.0,100%,35%)" stroke-width="0.00117"></path>
<path d="M0.928 0.510 Q1.055 0.439 0.945 0.362" stroke="hsl(0.0,100%,35%)" stroke-width="0.00059"></path>
<path d="M0.932 0.974 Q1.172 0.425 0.154 0.188" stroke="hsl(0.0,100%,35%)" stroke-width="0.00117"></path>
<path d="M0.932 0.974 Q1.047 1.016 1.153 0.969" stroke="hsl(0.0,100%,35%)" stroke-width="0.00176"></path>
<path d="M0.932 0.974 Q0.842 0.905 0.687 0.934" stroke="hsl(0.0,100%,35%)" stroke-width="0.00059"></path>
<path d="M0.522 0.448 Q0.130 0.471 0.087 0.667" stroke="hsl(0.0,100%,35%)" stroke-width="0.00059"></path>
<path d="M0.522 0.448 Q0.203 0.417 0.072 0.566" stroke="hsl(0.0,100%,35%)" stroke-width="0.00059"></path>
<path d="M0.522 0.448 Q0.480 0.332 0.244 0.327" stroke="hsl(0.0,100%,35%)" stroke-width="0.00059"></path>
<path d="M1.219 0.484 Q0.908 0.568 1.002 0.738" stroke="hsl(0.0,100%,35%)" stroke-width="0.00059"></path>
<path d="M1.219 0.484 Q1.090 0.583 1.254 0.667" stroke="hsl(0.0,100%,35%)" stroke-width="0.00235"></path>
<path d="M1.219 0.484 Q1.553 0.523 1.702 0.368" stroke="hsl(0.0,100%,35%)" stroke-width="0.00176"></path>
<path d="M1.219 0.484 Q0.580 0.296 0.072 0.566" stroke="hsl(0.0,100%,35%)" stroke-width="0.00059"></path>
<path d="M0.525 0.948 Q0.661 1.030 0.851 0.982" stroke="hsl(0.0,100%,35%)" stroke-width="0.00059"></path>
<path d="M0.525 0.948 Q0.617 0.973 0.687 0.934" stroke="hsl(0.0,100%,35%)" stroke-width="0.00059"></path>
<path d="M0.525 0.948 Q0.729 0.932 0.743 0.829" stroke="hsl(0.0,100%,35%)" stroke-width="0.00059"></path>
<path d="M0.101 0.410 Q-0.038 0.482 0.072 0.566" stroke="hsl(0.0,100%,35%)" stroke-width="0.00235"></path>
<path d="M0.101 0.410 Q-0.225 0.709 0.287 0.934" stroke="hsl(0.0,100%,35%)" stroke-width="0.00059"></path>
<path d="M0.101 0.410 Q0.238 0.397 0.244 0.327" stroke="hsl(0.0,100%,35%)" stroke-width="0.00059"></path>
<path d="M0.101 0.410 Q1.004 0.581 1.537 0.178" stroke="hsl(0.0,100%,35%)" stroke-width="0.00117"></path>
<path d="M1.042 0.608 Q0.907 0.576 0.814 0.634" stroke="hsl(0.0,100%,35%)" stroke-width="0.00762"></path>
<path d="M1.042 0.608 Q1.314 0.733 1.616 0.628" stroke="hsl(0.0,100%,35%)" stroke-width="0.00059"></path>
<path d="M1.042 0.608 Q1.145 0.812 1.566 0.807" stroke="hsl(0.0,100%,35%)" stroke-width="0.00059"></path>
<path d="M1.042 0.608 Q1.175 0.885 1.744 0.881" stroke="hsl(0.0,100%,35%)" stroke-width="0.00235"></path>
<path d="M1.042 0.608 Q0.994 0.496 0.765 0.495" stroke="hsl(0.0,100%,35%)" stroke-width="0.00528"></path>
<path d="M1.042 0.608 Q0.546 0.495 0.217 0.713" stroke="hsl(0.0,100%,35%)" stroke-width="0.00059"></path>
<path d="M1.042 0.608 Q0.661 0.458 0.283 0.610" stroke="hsl(0.0,100%,35%)" stroke-width="0.00059"></path>
<path d="M1.042 0.608 Q0.591 0.393 0.072 0.566" stroke="hsl(0.0,100%,35%)" stroke-width="0.00117"></path>
<path d="M1.353 0.395 Q1.160 0.716 1.744 0.881" stroke="hsl(0.0,100%,35%)" stroke-width="0.00176"></path>
<path d="M1.353 0.395 Q1.393 0.322 1.258 0.287" stroke="hsl(0.0,100%,35%)" stroke-width="0.00117"></path>
<path d="M1.353 0.395 Q0.646 0.289 0.283 0.610" stroke="hsl(0.0,100%,35%)" stroke-width="0.00059"></path>
<path d="M1.353 0.395 Q1.086 0.511 1.254 0.667" stroke="hsl(0.0,100%,35%)" stroke-width="0.00059"></path>
</g>
<text x="1.002" y="0.728" font-size="0.019525" fill="hsl(0.0,100%,20%)">agpalak</text>
<text x="1.205" y="0.830" font-size="0.019525" fill="hsl(0.0,100%,20%)">henrika</text>
<text x="1.254" y="0.653" font-size="0.028655" fill="hsl(0.0,100%,20%)">ilnik</text>
<text x="0.945" y="0.353" font-size="0.017548" fill="hsl(0.0,100%,20%)">guidou</text>
<text x="0.072" y="0.522" font-size="0.086306" fill="hsl(0.0,100%,20%)">hta</text>
<text x="1.537" y="0.168" font-size="0.019897" fill="hsl(0.0,100%,20%)">kron</text>
<text x="1.044" y="0.792" font-size="0.007658" fill="hsl(0.0,100%,20%)">eladalon</text>
<text x="1.702" y="0.357" font-size="0.023292" fill="hsl(0.0,100%,20%)">alcooper</text>
<text x="1.494" y="0.298" font-size="0.021320" fill="hsl(0.0,100%,20%)">apehrson</text>
<text x="0.287" y="0.916" font-size="0.035095" fill="hsl(0.0,100%,20%)">tommi</text>
<text x="1.101" y="0.437" font-size="0.014328" fill="hsl(0.0,100%,20%)">brandtr</text>
<text x="1.334" y="0.501" font-size="0.013265" fill="hsl(0.0,100%,20%)">asapersson</text>
<text x="1.616" y="0.616" font-size="0.022975" fill="hsl(0.0,100%,20%)">terelius</text>
<text x="0.332" y="0.751" font-size="0.023292" fill="hsl(0.0,100%,20%)">jakobi</text>
<text x="0.833" y="0.909" font-size="0.006632" fill="hsl(0.0,100%,20%)">daniel.l</text>
<text x="1.153" y="0.962" font-size="0.014830" fill="hsl(0.0,100%,20%)">xalep</text>
<text x="1.744" y="0.856" font-size="0.048888" fill="hsl(0.0,100%,20%)">mbonadei</text>
<text x="1.744" y="0.753" font-size="0.010131" fill="hsl(0.0,100%,20%)">danieltwhite</text>
<text x="1.258" y="0.280" font-size="0.012700" fill="hsl(0.0,100%,20%)">kthelgason</text>
<text x="1.566" y="0.787" font-size="0.040161" fill="hsl(0.0,100%,20%)">jleconte</text>
<text x="0.283" y="0.580" font-size="0.060302" fill="hsl(0.0,100%,20%)">danilchap</text>
<text x="0.743" y="0.814" font-size="0.029907" fill="hsl(0.0,100%,20%)">perkj</text>
<text x="0.217" y="0.703" font-size="0.020262" fill="hsl(0.0,100%,20%)">titovartem</text>
<text x="0.280" y="0.452" font-size="0.032940" fill="hsl(0.0,100%,20%)">jonaso</text>
<text x="0.154" y="0.174" font-size="0.026804" fill="hsl(0.0,100%,20%)">ssilkin</text>
<text x="0.814" y="0.621" font-size="0.025971" fill="hsl(0.0,100%,20%)">sprang</text>
<text x="0.210" y="0.795" font-size="0.011488" fill="hsl(0.0,100%,20%)">samvi</text>
<text x="0.533" y="0.528" font-size="0.022654" fill="hsl(0.0,100%,20%)">philipel</text>
<text x="1.404" y="0.917" font-size="0.006632" fill="hsl(0.0,100%,20%)">saza</text>
<text x="0.765" y="0.488" font-size="0.012700" fill="hsl(0.0,100%,20%)">linderborg</text>
<text x="0.244" y="0.291" font-size="0.072351" fill="hsl(0.0,100%,20%)">phancke</text>
<text x="0.407" y="0.840" font-size="0.017548" fill="hsl(0.0,100%,20%)">peah</text>
<text x="0.128" y="0.822" font-size="0.005415" fill="hsl(0.0,100%,20%)">yinwa</text>
<text x="0.087" y="0.638" font-size="0.057438" fill="hsl(0.0,100%,20%)">eshr</text>
<text x="0.907" y="0.859" font-size="0.013806" fill="hsl(0.0,100%,20%)">diepbp</text>
<text x="1.675" y="0.262" font-size="0.007658" fill="hsl(0.0,100%,20%)">dustingreen</text>
<text x="1.897" y="0.324" font-size="0.003829" fill="hsl(0.0,100%,20%)">mfoltz</text>
<text x="0.047" y="-1.363" font-size="0.003829" fill="hsl(0.0,100%,20%)">peterhanspers</text>
<text x="0.527" y="0.245" font-size="0.009380" fill="hsl(0.0,100%,20%)">boivie</text>
<text x="1.300" y="0.951" font-size="0.006632" fill="hsl(0.0,100%,20%)">fhernqvist</text>
<text x="1.904" y="0.183" font-size="0.014830" fill="hsl(0.0,100%,20%)">grulja</text>
<text x="0.478" y="0.484" font-size="0.030393" fill="hsl(0.0,100%,20%)">hbos</text>
<text x="0.348" y="0.123" font-size="0.014328" fill="hsl(0.0,100%,20%)">jianlin.qiu</text>
<text x="0.052" y="0.393" font-size="0.016246" fill="hsl(0.0,100%,20%)">helmern</text>
<text x="0.442" y="0.415" font-size="0.019897" fill="hsl(0.0,100%,20%)">solenberg</text>
<text x="1.297" y="0.197" font-size="0.019897" fill="hsl(0.0,100%,20%)">jansson</text>
<text x="0.851" y="0.978" font-size="0.009380" fill="hsl(0.0,100%,20%)">henrik.lundin</text>
<text x="1.524" y="0.932" font-size="0.003829" fill="hsl(0.0,100%,20%)">manashi</text>
<text x="0.693" y="0.494" font-size="0.010831" fill="hsl(0.0,100%,20%)">joachimr</text>
<text x="1.447" y="0.056" font-size="0.020262" fill="hsl(0.0,100%,20%)">jwata</text>
<text x="0.362" y="0.187" font-size="0.009380" fill="hsl(0.0,100%,20%)">liadr2</text>
<text x="0.655" y="0.700" font-size="0.007658" fill="hsl(0.0,100%,20%)">lowkey</text>
<text x="1.913" y="0.404" font-size="0.006632" fill="hsl(0.0,100%,20%)">me</text>
<text x="0.104" y="0.121" font-size="0.007658" fill="hsl(0.0,100%,20%)">mosamorosev</text>
<text x="0.928" y="0.506" font-size="0.009380" fill="hsl(0.0,100%,20%)">ortuno</text>
<text x="0.633" y="0.354" font-size="0.006632" fill="hsl(0.0,100%,20%)">gustaf</text>
<text x="0.932" y="0.970" font-size="0.009380" fill="hsl(0.0,100%,20%)">ranvr</text>
<text x="0.687" y="0.931" font-size="0.005415" fill="hsl(0.0,100%,20%)">magjed</text>
<text x="0.522" y="0.445" font-size="0.006632" fill="hsl(0.0,100%,20%)">santoin351</text>
<text x="1.219" y="0.479" font-size="0.011488" fill="hsl(0.0,100%,20%)">sunggch</text>
<text x="0.525" y="0.945" font-size="0.006632" fill="hsl(0.0,100%,20%)">tomasl</text>
<text x="0.101" y="0.404" font-size="0.010831" fill="hsl(0.0,100%,20%)">tov</text>
<text x="1.042" y="0.597" font-size="0.021661" fill="hsl(0.0,100%,20%)">vardar</text>
<text x="1.353" y="0.390" font-size="0.010131" fill="hsl(0.0,100%,20%)">yura.yaroshevich</text>
</svg>
