<svg width="4000" height="2000" viewBox="-0.025 -0.025 2.05 1.05" xmlns="http://www.w3.org/2000/svg">
  <style>
    path {
      fill: none;
      stroke-linecap: round;
      stroke-opacity: 0.4;
    }

    text {
      text-anchor: middle;
      alignment-baseline: hanging;
    }
  </style>
  <g opacity="0.4">
<path d="M1.418 0.797 Q1.318 0.877 1.451 0.943" stroke="hsl(0.0,100%,35%)" stroke-width="0.01286"></path>
<path d="M1.418 0.797 Q1.663 0.872 1.862 0.769" stroke="hsl(0.0,100%,35%)" stroke-width="0.01286"></path>
<path d="M1.418 0.797 Q1.400 0.476 0.770 0.415" stroke="hsl(0.0,100%,35%)" stroke-width="0.01286"></path>
<path d="M0.990 0.286 Q1.046 0.133 0.758 0.072" stroke="hsl(0.0,100%,35%)" stroke-width="0.01286"></path>
<path d="M0.990 0.286 Q0.812 0.077 0.363 0.118" stroke="hsl(0.0,100%,35%)" stroke-width="0.01286"></path>
<path d="M0.990 0.286 Q1.275 0.259 1.284 0.114" stroke="hsl(0.0,100%,35%)" stroke-width="0.03857"></path>
<path d="M0.990 0.286 Q0.514 0.353 0.540 0.601" stroke="hsl(0.0,100%,35%)" stroke-width="0.01286"></path>
<path d="M0.990 0.286 Q0.778 0.306 0.770 0.415" stroke="hsl(0.0,100%,35%)" stroke-width="0.01286"></path>
<path d="M0.990 0.286 Q0.684 0.131 0.314 0.246" stroke="hsl(0.0,100%,35%)" stroke-width="0.02571"></path>
<path d="M0.990 0.286 Q0.599 0.212 0.368 0.387" stroke="hsl(0.0,100%,35%)" stroke-width="0.01286"></path>
<path d="M0.990 0.286 Q1.086 0.208 0.955 0.144" stroke="hsl(0.0,100%,35%)" stroke-width="0.01286"></path>
<path d="M0.990 0.286 Q1.040 0.702 1.862 0.769" stroke="hsl(0.0,100%,35%)" stroke-width="0.01286"></path>
<path d="M0.314 0.246 Q0.229 0.327 0.368 0.387" stroke="hsl(240.0,100%,35%)" stroke-width="0.05143"></path>
<path d="M0.314 0.246 Q0.342 0.185 0.229 0.158" stroke="hsl(240.0,100%,35%)" stroke-width="0.05143"></path>
<path d="M0.314 0.246 Q0.442 0.192 0.363 0.118" stroke="hsl(240.0,100%,35%)" stroke-width="0.02571"></path>
<path d="M1.538 0.343 Q1.014 0.626 1.451 0.943" stroke="hsl(120.0,100%,35%)" stroke-width="0.01286"></path>
<path d="M1.538 0.343 Q1.699 0.248 1.549 0.148" stroke="hsl(120.0,100%,35%)" stroke-width="0.02571"></path>
<path d="M1.538 0.343 Q1.409 0.367 1.429 0.436" stroke="hsl(120.0,100%,35%)" stroke-width="0.01286"></path>
<path d="M1.538 0.343 Q1.620 0.418 1.786 0.394" stroke="hsl(120.0,100%,35%)" stroke-width="0.01286"></path>
<path d="M1.538 0.343 Q1.003 0.050 0.314 0.246" stroke="hsl(120.0,100%,35%)" stroke-width="0.01286"></path>
<path d="M1.538 0.343 Q1.096 0.225 0.770 0.415" stroke="hsl(120.0,100%,35%)" stroke-width="0.01286"></path>
<path d="M1.538 0.343 Q1.293 0.305 1.166 0.415" stroke="hsl(120.0,100%,35%)" stroke-width="0.01286"></path>
</g>
<text x="1.418" y="0.776" font-size="0.042640" fill="hsl(0.0,100%,20%)">agpalak</text>
<text x="1.451" y="0.926" font-size="0.034816" fill="hsl(0.0,100%,20%)">eladalon</text>
<text x="1.862" y="0.751" font-size="0.034816" fill="hsl(0.0,100%,20%)">henrika</text>
<text x="0.770" y="0.393" font-size="0.042640" fill="hsl(120.0,100%,20%)">ilnik</text>
<text x="0.990" y="0.244" font-size="0.085280" fill="hsl(0.0,100%,20%)">danilchap</text>
<text x="0.758" y="0.059" font-size="0.024618" fill="hsl(0.0,100%,20%)">alcooper</text>
<text x="0.363" y="0.097" font-size="0.042640" fill="hsl(240.0,100%,20%)">mbonadei</text>
<text x="1.284" y="0.093" font-size="0.042640" fill="hsl(0.0,100%,20%)">perkj</text>
<text x="0.540" y="0.588" font-size="0.024618" fill="hsl(0.0,100%,20%)">terelius</text>
<text x="0.314" y="0.202" font-size="0.088763" fill="hsl(240.0,100%,20%)">tommi</text>
<text x="0.368" y="0.359" font-size="0.055048" fill="hsl(240.0,100%,20%)">jakobi</text>
<text x="0.955" y="0.132" font-size="0.024618" fill="hsl(0.0,100%,20%)">saza</text>
<text x="1.538" y="0.308" font-size="0.069631" fill="hsl(120.0,100%,20%)">phancke</text>
<text x="1.549" y="0.131" font-size="0.034816" fill="hsl(120.0,100%,20%)">jonaso</text>
<text x="1.429" y="0.423" font-size="0.024618" fill="hsl(120.0,100%,20%)">samvi</text>
<text x="1.786" y="0.382" font-size="0.024618" fill="hsl(120.0,100%,20%)">hta</text>
<text x="1.166" y="0.403" font-size="0.024618" fill="hsl(120.0,100%,20%)">philipel</text>
<text x="0.229" y="0.134" font-size="0.049237" fill="hsl(240.0,100%,20%)">peah</text>
</svg>
