<svg width="4000" height="2000" viewBox="-0.025 -0.025 2.05 1.05" xmlns="http://www.w3.org/2000/svg">
  <style>
    path {
      fill: none;
      stroke-linecap: round;
      stroke-opacity: 0.4;
    }

    text {
      text-anchor: middle;
      alignment-baseline: hanging;
    }
  </style>
  <g opacity="0.4">
<path d="M1.336 0.139 Q0.901 -0.049 0.438 0.122" stroke="hsl(0.0,100%,35%)" stroke-width="0.00532"></path>
<path d="M1.336 0.139 Q1.208 0.192 1.282 0.266" stroke="hsl(0.0,100%,35%)" stroke-width="0.00426"></path>
<path d="M1.336 0.139 Q1.559 0.270 1.864 0.190" stroke="hsl(0.0,100%,35%)" stroke-width="0.00106"></path>
<path d="M0.438 0.122 Q0.517 0.349 0.976 0.360" stroke="hsl(0.0,100%,35%)" stroke-width="0.01277"></path>
<path d="M0.438 0.122 Q0.653 0.155 0.765 0.058" stroke="hsl(0.0,100%,35%)" stroke-width="0.00532"></path>
<path d="M0.438 0.122 Q0.246 0.263 0.479 0.387" stroke="hsl(0.0,100%,35%)" stroke-width="0.00106"></path>
<path d="M0.438 0.122 Q-0.020 0.246 0.122 0.497" stroke="hsl(0.0,100%,35%)" stroke-width="0.00319"></path>
<path d="M0.438 0.122 Q0.301 0.252 0.525 0.347" stroke="hsl(0.0,100%,35%)" stroke-width="0.02873"></path>
<path d="M0.438 0.122 Q0.059 0.157 0.044 0.350" stroke="hsl(0.0,100%,35%)" stroke-width="0.00106"></path>
<path d="M0.438 0.122 Q0.201 0.333 0.559 0.494" stroke="hsl(0.0,100%,35%)" stroke-width="0.00213"></path>
<path d="M0.438 0.122 Q-0.239 0.396 0.148 0.786" stroke="hsl(0.0,100%,35%)" stroke-width="0.00106"></path>
<path d="M0.438 0.122 Q0.433 0.175 0.534 0.189" stroke="hsl(0.0,100%,35%)" stroke-width="0.00106"></path>
<path d="M0.438 0.122 Q0.306 0.385 0.790 0.508" stroke="hsl(0.0,100%,35%)" stroke-width="0.00426"></path>
<path d="M0.838 0.706 Q0.756 0.678 0.683 0.711" stroke="hsl(0.0,100%,35%)" stroke-width="0.00106"></path>
<path d="M0.838 0.706 Q0.765 0.625 0.590 0.642" stroke="hsl(0.0,100%,35%)" stroke-width="0.00213"></path>
<path d="M0.838 0.706 Q0.973 0.597 0.790 0.508" stroke="hsl(0.0,100%,35%)" stroke-width="0.00106"></path>
<path d="M0.790 0.508 Q0.922 0.244 0.438 0.122" stroke="hsl(0.0,100%,35%)" stroke-width="0.00106"></path>
<path d="M0.790 0.508 Q0.685 0.455 0.559 0.494" stroke="hsl(0.0,100%,35%)" stroke-width="0.00106"></path>
<path d="M0.790 0.508 Q1.229 0.485 1.282 0.266" stroke="hsl(0.0,100%,35%)" stroke-width="0.00106"></path>
<path d="M0.790 0.508 Q0.917 0.297 0.534 0.189" stroke="hsl(0.0,100%,35%)" stroke-width="0.00106"></path>
<path d="M0.559 0.494 Q1.011 0.317 0.765 0.058" stroke="hsl(0.0,100%,35%)" stroke-width="0.01171"></path>
<path d="M0.559 0.494 Q0.664 0.547 0.790 0.508" stroke="hsl(0.0,100%,35%)" stroke-width="0.01277"></path>
<path d="M0.559 0.494 Q0.796 0.284 0.438 0.122" stroke="hsl(0.0,100%,35%)" stroke-width="0.02980"></path>
<path d="M0.559 0.494 Q0.510 0.780 1.057 0.867" stroke="hsl(0.0,100%,35%)" stroke-width="0.00319"></path>
<path d="M0.559 0.494 Q0.252 0.487 0.171 0.635" stroke="hsl(0.0,100%,35%)" stroke-width="0.01064"></path>
<path d="M0.559 0.494 Q0.325 0.652 0.581 0.801" stroke="hsl(0.0,100%,35%)" stroke-width="0.00106"></path>
<path d="M0.559 0.494 Q0.436 0.478 0.377 0.534" stroke="hsl(0.0,100%,35%)" stroke-width="0.00319"></path>
<path d="M0.559 0.494 Q0.484 0.341 0.168 0.344" stroke="hsl(0.0,100%,35%)" stroke-width="0.00106"></path>
<path d="M0.559 0.494 Q0.448 0.628 0.683 0.711" stroke="hsl(0.0,100%,35%)" stroke-width="0.00851"></path>
<path d="M0.559 0.494 Q0.338 0.408 0.122 0.497" stroke="hsl(0.0,100%,35%)" stroke-width="0.00745"></path>
<path d="M0.559 0.494 Q0.168 0.724 0.529 0.965" stroke="hsl(0.0,100%,35%)" stroke-width="0.00319"></path>
<path d="M0.559 0.494 Q0.681 0.625 0.963 0.595" stroke="hsl(0.0,100%,35%)" stroke-width="0.00213"></path>
<path d="M0.559 0.494 Q0.594 0.725 1.051 0.758" stroke="hsl(0.0,100%,35%)" stroke-width="0.00106"></path>
<path d="M0.559 0.494 Q0.456 0.574 0.590 0.642" stroke="hsl(0.0,100%,35%)" stroke-width="0.00958"></path>
<path d="M0.559 0.494 Q0.731 0.622 1.018 0.567" stroke="hsl(0.0,100%,35%)" stroke-width="0.00106"></path>
<path d="M0.559 0.494 Q0.875 0.511 0.976 0.360" stroke="hsl(0.0,100%,35%)" stroke-width="0.00213"></path>
<path d="M0.559 0.494 Q0.542 0.564 0.673 0.588" stroke="hsl(0.0,100%,35%)" stroke-width="0.00106"></path>
<path d="M0.559 0.494 Q0.660 0.414 0.525 0.347" stroke="hsl(0.0,100%,35%)" stroke-width="0.00745"></path>
<path d="M0.559 0.494 Q1.068 0.423 1.040 0.159" stroke="hsl(0.0,100%,35%)" stroke-width="0.00319"></path>
<path d="M0.559 0.494 Q0.791 0.337 0.534 0.189" stroke="hsl(0.0,100%,35%)" stroke-width="0.00213"></path>
<path d="M0.559 0.494 Q0.360 0.575 0.474 0.690" stroke="hsl(0.0,100%,35%)" stroke-width="0.00106"></path>
<path d="M0.559 0.494 Q0.433 0.337 0.098 0.364" stroke="hsl(0.0,100%,35%)" stroke-width="0.00106"></path>
<path d="M0.559 0.494 Q1.103 0.525 1.282 0.266" stroke="hsl(0.0,100%,35%)" stroke-width="0.00106"></path>
<path d="M0.765 0.058 Q0.601 0.048 0.547 0.126" stroke="hsl(0.0,100%,35%)" stroke-width="0.00639"></path>
<path d="M0.765 0.058 Q0.210 0.315 0.590 0.642" stroke="hsl(0.0,100%,35%)" stroke-width="0.00213"></path>
<path d="M0.765 0.058 Q-0.079 0.464 0.529 0.965" stroke="hsl(0.0,100%,35%)" stroke-width="0.00106"></path>
<path d="M0.765 0.058 Q0.005 0.228 0.171 0.635" stroke="hsl(0.0,100%,35%)" stroke-width="0.00532"></path>
<path d="M0.765 0.058 Q0.413 0.154 0.525 0.347" stroke="hsl(0.0,100%,35%)" stroke-width="0.00106"></path>
<path d="M0.765 0.058 Q0.550 0.025 0.438 0.122" stroke="hsl(0.0,100%,35%)" stroke-width="0.00639"></path>
<path d="M0.765 0.058 Q0.822 0.163 1.040 0.159" stroke="hsl(0.0,100%,35%)" stroke-width="0.00319"></path>
<path d="M0.765 0.058 Q0.313 0.235 0.559 0.494" stroke="hsl(0.0,100%,35%)" stroke-width="0.00106"></path>
<path d="M0.171 0.635 Q0.257 0.556 0.122 0.497" stroke="hsl(0.0,100%,35%)" stroke-width="0.00745"></path>
<path d="M0.171 0.635 Q0.715 0.432 0.438 0.122" stroke="hsl(0.0,100%,35%)" stroke-width="0.00426"></path>
<path d="M0.171 0.635 Q0.038 0.706 0.148 0.786" stroke="hsl(0.0,100%,35%)" stroke-width="0.00426"></path>
<path d="M0.171 0.635 Q0.930 0.465 0.765 0.058" stroke="hsl(0.0,100%,35%)" stroke-width="0.00319"></path>
<path d="M0.171 0.635 Q0.794 0.659 0.976 0.360" stroke="hsl(0.0,100%,35%)" stroke-width="0.00106"></path>
<path d="M0.171 0.635 Q0.478 0.643 0.559 0.494" stroke="hsl(0.0,100%,35%)" stroke-width="0.00106"></path>
<path d="M0.122 0.497 Q0.036 0.576 0.171 0.635" stroke="hsl(0.0,100%,35%)" stroke-width="0.00426"></path>
<path d="M0.122 0.497 Q0.852 0.512 1.040 0.159" stroke="hsl(0.0,100%,35%)" stroke-width="0.00213"></path>
<path d="M0.122 0.497 Q0.580 0.373 0.438 0.122" stroke="hsl(0.0,100%,35%)" stroke-width="0.00532"></path>
<path d="M0.122 0.497 Q0.360 0.435 0.291 0.305" stroke="hsl(0.0,100%,35%)" stroke-width="0.00213"></path>
<path d="M0.122 0.497 Q0.447 0.636 0.790 0.508" stroke="hsl(0.0,100%,35%)" stroke-width="0.00106"></path>
<path d="M0.122 0.497 Q-0.097 0.647 0.148 0.786" stroke="hsl(0.0,100%,35%)" stroke-width="0.00106"></path>
<path d="M0.122 0.497 Q0.795 0.406 0.765 0.058" stroke="hsl(0.0,100%,35%)" stroke-width="0.00106"></path>
<path d="M0.122 0.497 Q0.659 0.600 0.976 0.360" stroke="hsl(0.0,100%,35%)" stroke-width="0.00106"></path>
<path d="M0.122 0.497 Q0.216 0.426 0.098 0.364" stroke="hsl(0.0,100%,35%)" stroke-width="0.00106"></path>
<path d="M0.529 0.965 Q0.687 0.894 0.581 0.801" stroke="hsl(0.0,100%,35%)" stroke-width="0.00532"></path>
<path d="M0.529 0.965 Q0.614 0.729 0.171 0.635" stroke="hsl(0.0,100%,35%)" stroke-width="0.00106"></path>
<path d="M0.529 0.965 Q1.373 0.559 0.765 0.058" stroke="hsl(0.0,100%,35%)" stroke-width="0.00213"></path>
<path d="M0.529 0.965 Q0.794 0.578 0.098 0.364" stroke="hsl(0.0,100%,35%)" stroke-width="0.00106"></path>
<path d="M0.976 0.360 Q0.898 0.133 0.438 0.122" stroke="hsl(0.0,100%,35%)" stroke-width="0.02128"></path>
<path d="M0.976 0.360 Q0.661 0.344 0.559 0.494" stroke="hsl(0.0,100%,35%)" stroke-width="0.00639"></path>
<path d="M0.976 0.360 Q0.557 0.424 0.590 0.642" stroke="hsl(0.0,100%,35%)" stroke-width="0.00106"></path>
<path d="M0.525 0.347 Q0.117 0.420 0.171 0.635" stroke="hsl(0.0,100%,35%)" stroke-width="0.00426"></path>
<path d="M0.525 0.347 Q0.661 0.217 0.438 0.122" stroke="hsl(0.0,100%,35%)" stroke-width="0.01809"></path>
<path d="M0.525 0.347 Q0.876 0.250 0.765 0.058" stroke="hsl(0.0,100%,35%)" stroke-width="0.00106"></path>
<path d="M0.525 0.347 Q0.740 0.444 0.976 0.360" stroke="hsl(0.0,100%,35%)" stroke-width="0.00213"></path>
<path d="M0.525 0.347 Q0.424 0.428 0.559 0.494" stroke="hsl(0.0,100%,35%)" stroke-width="0.01916"></path>
<path d="M0.525 0.347 Q0.968 0.458 1.282 0.266" stroke="hsl(0.0,100%,35%)" stroke-width="0.00106"></path>
<path d="M0.525 0.347 Q0.633 0.400 0.760 0.359" stroke="hsl(0.0,100%,35%)" stroke-width="0.00106"></path>
<path d="M0.525 0.347 Q0.656 0.270 0.534 0.189" stroke="hsl(0.0,100%,35%)" stroke-width="0.00213"></path>
<path d="M0.525 0.347 Q0.459 0.658 1.051 0.758" stroke="hsl(0.0,100%,35%)" stroke-width="0.00213"></path>
<path d="M1.040 0.159 Q0.310 0.144 0.122 0.497" stroke="hsl(0.0,100%,35%)" stroke-width="0.00106"></path>
<path d="M1.040 0.159 Q0.224 0.223 0.171 0.635" stroke="hsl(0.0,100%,35%)" stroke-width="0.00106"></path>
<path d="M1.040 0.159 Q0.482 0.516 1.057 0.867" stroke="hsl(0.0,100%,35%)" stroke-width="0.00106"></path>
<path d="M1.040 0.159 Q0.531 0.230 0.559 0.494" stroke="hsl(0.0,100%,35%)" stroke-width="0.00532"></path>
<path d="M1.040 0.159 Q0.983 0.053 0.765 0.058" stroke="hsl(0.0,100%,35%)" stroke-width="0.00106"></path>
<path d="M1.040 0.159 Q0.636 0.283 0.790 0.508" stroke="hsl(0.0,100%,35%)" stroke-width="0.00106"></path>
<path d="M1.040 0.159 Q0.566 0.461 1.051 0.758" stroke="hsl(0.0,100%,35%)" stroke-width="0.00106"></path>
<path d="M1.040 0.159 Q0.763 0.073 0.534 0.189" stroke="hsl(0.0,100%,35%)" stroke-width="0.00106"></path>
<path d="M1.040 0.159 Q0.847 0.247 0.976 0.360" stroke="hsl(0.0,100%,35%)" stroke-width="0.00213"></path>
<path d="M1.040 0.159 Q0.140 0.460 0.529 0.965" stroke="hsl(0.0,100%,35%)" stroke-width="0.00106"></path>
<path d="M1.664 0.110 Q1.700 0.190 1.864 0.190" stroke="hsl(0.0,100%,35%)" stroke-width="0.00319"></path>
<path d="M1.664 0.110 Q1.041 -0.129 0.438 0.122" stroke="hsl(0.0,100%,35%)" stroke-width="0.00106"></path>
<path d="M1.664 0.110 Q1.348 0.112 1.282 0.266" stroke="hsl(0.0,100%,35%)" stroke-width="0.00106"></path>
<path d="M1.664 0.110 Q0.822 -0.067 0.291 0.305" stroke="hsl(0.0,100%,35%)" stroke-width="0.00106"></path>
<path d="M0.291 0.305 Q0.198 0.300 0.168 0.344" stroke="hsl(0.0,100%,35%)" stroke-width="0.00213"></path>
<path d="M0.291 0.305 Q1.169 0.562 1.864 0.190" stroke="hsl(0.0,100%,35%)" stroke-width="0.00319"></path>
<path d="M0.291 0.305 Q0.273 0.453 0.559 0.494" stroke="hsl(0.0,100%,35%)" stroke-width="0.05215"></path>
<path d="M0.291 0.305 Q0.510 0.243 0.438 0.122" stroke="hsl(0.0,100%,35%)" stroke-width="0.09791"></path>
<path d="M0.291 0.305 Q0.052 0.367 0.122 0.497" stroke="hsl(0.0,100%,35%)" stroke-width="0.01064"></path>
<path d="M0.291 0.305 Q-0.034 0.446 0.171 0.635" stroke="hsl(0.0,100%,35%)" stroke-width="0.01277"></path>
<path d="M0.291 0.305 Q0.218 0.350 0.291 0.395" stroke="hsl(0.0,100%,35%)" stroke-width="0.00426"></path>
<path d="M0.291 0.305 Q0.219 0.366 0.323 0.414" stroke="hsl(0.0,100%,35%)" stroke-width="0.00106"></path>
<path d="M0.291 0.305 Q0.374 0.373 0.525 0.347" stroke="hsl(0.0,100%,35%)" stroke-width="0.01171"></path>
<path d="M0.291 0.305 Q0.259 0.215 0.078 0.211" stroke="hsl(0.0,100%,35%)" stroke-width="0.00106"></path>
<path d="M0.291 0.305 Q0.204 0.363 0.299 0.418" stroke="hsl(0.0,100%,35%)" stroke-width="0.00106"></path>
<path d="M0.291 0.305 Q0.505 0.295 0.534 0.189" stroke="hsl(0.0,100%,35%)" stroke-width="0.00745"></path>
<path d="M0.291 0.305 Q0.147 0.296 0.098 0.364" stroke="hsl(0.0,100%,35%)" stroke-width="0.00426"></path>
<path d="M0.291 0.305 Q0.170 0.533 0.590 0.642" stroke="hsl(0.0,100%,35%)" stroke-width="0.00106"></path>
<path d="M0.291 0.305 Q0.714 0.554 1.293 0.402" stroke="hsl(0.0,100%,35%)" stroke-width="0.00106"></path>
<path d="M0.291 0.305 Q0.150 0.437 0.377 0.534" stroke="hsl(0.0,100%,35%)" stroke-width="0.00213"></path>
<path d="M0.291 0.305 Q0.395 0.584 0.963 0.595" stroke="hsl(0.0,100%,35%)" stroke-width="0.00106"></path>
<path d="M0.291 0.305 Q0.782 0.382 1.040 0.159" stroke="hsl(0.0,100%,35%)" stroke-width="0.00106"></path>
<path d="M0.291 0.305 Q0.817 0.484 1.282 0.266" stroke="hsl(0.0,100%,35%)" stroke-width="0.00213"></path>
<path d="M0.291 0.305 Q1.133 0.482 1.664 0.110" stroke="hsl(0.0,100%,35%)" stroke-width="0.00106"></path>
<path d="M0.291 0.305 Q0.589 0.469 0.976 0.360" stroke="hsl(0.0,100%,35%)" stroke-width="0.00106"></path>
<path d="M0.291 0.305 Q0.182 0.283 0.116 0.331" stroke="hsl(0.0,100%,35%)" stroke-width="0.00213"></path>
<path d="M0.291 0.305 Q0.725 0.276 0.765 0.058" stroke="hsl(0.0,100%,35%)" stroke-width="0.00213"></path>
<path d="M0.291 0.305 Q-0.119 0.683 0.529 0.965" stroke="hsl(0.0,100%,35%)" stroke-width="0.00426"></path>
<path d="M0.291 0.305 Q0.482 0.426 0.760 0.359" stroke="hsl(0.0,100%,35%)" stroke-width="0.00213"></path>
<path d="M0.623 0.153 Q0.555 0.100 0.438 0.122" stroke="hsl(0.0,100%,35%)" stroke-width="0.00851"></path>
<path d="M0.623 0.153 Q0.862 0.341 1.282 0.266" stroke="hsl(0.0,100%,35%)" stroke-width="0.00213"></path>
<path d="M0.623 0.153 Q0.215 0.391 0.590 0.642" stroke="hsl(0.0,100%,35%)" stroke-width="0.00106"></path>
<path d="M0.623 0.153 Q0.422 0.364 0.790 0.508" stroke="hsl(0.0,100%,35%)" stroke-width="0.00106"></path>
<path d="M0.623 0.153 Q0.550 0.153 0.534 0.189" stroke="hsl(0.0,100%,35%)" stroke-width="0.00639"></path>
<path d="M0.148 0.786 Q0.280 0.715 0.171 0.635" stroke="hsl(0.0,100%,35%)" stroke-width="0.00319"></path>
<path d="M0.148 0.786 Q1.096 0.651 1.040 0.159" stroke="hsl(0.0,100%,35%)" stroke-width="0.00106"></path>
<path d="M0.148 0.786 Q0.903 0.739 0.976 0.360" stroke="hsl(0.0,100%,35%)" stroke-width="0.00106"></path>
<path d="M0.148 0.786 Q0.464 0.706 0.377 0.534" stroke="hsl(0.0,100%,35%)" stroke-width="0.00106"></path>
<path d="M0.148 0.786 Q0.532 0.619 0.291 0.395" stroke="hsl(0.0,100%,35%)" stroke-width="0.00106"></path>
<path d="M0.148 0.786 Q0.824 0.512 0.438 0.122" stroke="hsl(0.0,100%,35%)" stroke-width="0.00106"></path>
<path d="M0.148 0.786 Q0.366 0.637 0.122 0.497" stroke="hsl(0.0,100%,35%)" stroke-width="0.00213"></path>
<path d="M1.456 0.547 Q1.049 0.341 0.559 0.494" stroke="hsl(0.0,100%,35%)" stroke-width="0.00106"></path>
<path d="M1.456 0.547 Q1.000 0.627 1.057 0.867" stroke="hsl(0.0,100%,35%)" stroke-width="0.00106"></path>
<path d="M1.456 0.547 Q1.286 0.131 0.438 0.122" stroke="hsl(0.0,100%,35%)" stroke-width="0.00106"></path>
<path d="M1.456 0.547 Q1.281 0.183 0.534 0.189" stroke="hsl(0.0,100%,35%)" stroke-width="0.00106"></path>
<path d="M1.456 0.547 Q1.490 0.442 1.293 0.402" stroke="hsl(0.0,100%,35%)" stroke-width="0.00106"></path>
<path d="M1.456 0.547 Q0.974 0.188 0.168 0.344" stroke="hsl(0.0,100%,35%)" stroke-width="0.00106"></path>
<path d="M0.116 0.371 Q0.339 0.441 0.525 0.347" stroke="hsl(0.0,100%,35%)" stroke-width="0.00106"></path>
<path d="M0.116 0.371 Q0.476 0.311 0.438 0.122" stroke="hsl(0.0,100%,35%)" stroke-width="0.00213"></path>
<path d="M0.116 0.371 Q0.555 0.537 0.976 0.360" stroke="hsl(0.0,100%,35%)" stroke-width="0.00106"></path>
<path d="M0.393 0.224 Q0.497 0.182 0.438 0.122" stroke="hsl(0.0,100%,35%)" stroke-width="0.00106"></path>
<path d="M0.393 0.224 Q0.485 0.114 0.289 0.044" stroke="hsl(0.0,100%,35%)" stroke-width="0.00106"></path>
<path d="M0.393 0.224 Q0.712 0.215 0.765 0.058" stroke="hsl(0.0,100%,35%)" stroke-width="0.00106"></path>
<path d="M0.988 0.447 Q0.973 0.174 0.438 0.122" stroke="hsl(0.0,100%,35%)" stroke-width="0.00426"></path>
<path d="M0.988 0.447 Q1.052 0.401 0.976 0.360" stroke="hsl(0.0,100%,35%)" stroke-width="0.00319"></path>
<path d="M0.988 0.447 Q0.681 0.281 0.291 0.395" stroke="hsl(0.0,100%,35%)" stroke-width="0.00106"></path>
<path d="M0.988 0.447 Q0.968 0.227 0.534 0.189" stroke="hsl(0.0,100%,35%)" stroke-width="0.00106"></path>
<path d="M0.787 0.889 Q0.754 0.804 0.581 0.801" stroke="hsl(0.0,100%,35%)" stroke-width="0.00426"></path>
<path d="M0.787 0.889 Q0.597 0.875 0.529 0.965" stroke="hsl(0.0,100%,35%)" stroke-width="0.00639"></path>
<path d="M0.787 0.889 Q1.226 0.436 0.438 0.122" stroke="hsl(0.0,100%,35%)" stroke-width="0.00213"></path>
<path d="M0.787 0.889 Q0.681 0.639 0.171 0.635" stroke="hsl(0.0,100%,35%)" stroke-width="0.00213"></path>
<path d="M0.787 0.889 Q0.989 0.646 0.559 0.494" stroke="hsl(0.0,100%,35%)" stroke-width="0.00106"></path>
<path d="M0.787 0.889 Q1.024 0.876 1.051 0.758" stroke="hsl(0.0,100%,35%)" stroke-width="0.00213"></path>
<path d="M1.015 0.974 Q1.122 0.929 1.057 0.867" stroke="hsl(0.0,100%,35%)" stroke-width="0.00213"></path>
<path d="M1.015 0.974 Q0.864 0.636 0.171 0.635" stroke="hsl(0.0,100%,35%)" stroke-width="0.00213"></path>
<path d="M1.015 0.974 Q1.171 0.643 0.559 0.494" stroke="hsl(0.0,100%,35%)" stroke-width="0.00106"></path>
<path d="M1.015 0.974 Q1.716 0.674 1.282 0.266" stroke="hsl(0.0,100%,35%)" stroke-width="0.00106"></path>
</g>
<text x="1.336" y="0.131" font-size="0.017528" fill="hsl(0.0,100%,20%)">agpalak</text>
<text x="0.438" y="0.078" font-size="0.088510" fill="hsl(0.0,100%,20%)">hta</text>
<text x="1.282" y="0.256" font-size="0.019985" fill="hsl(0.0,100%,20%)">ilnik</text>
<text x="1.864" y="0.183" font-size="0.014665" fill="hsl(0.0,100%,20%)">alcooper</text>
<text x="0.838" y="0.700" font-size="0.011085" fill="hsl(0.0,100%,20%)">brandtr</text>
<text x="0.683" y="0.703" font-size="0.016628" fill="hsl(0.0,100%,20%)">asapersson</text>
<text x="0.590" y="0.631" font-size="0.022171" fill="hsl(0.0,100%,20%)">jakobi</text>
<text x="0.790" y="0.494" font-size="0.027154" fill="hsl(0.0,100%,20%)">philipel</text>
<text x="0.559" y="0.455" font-size="0.079166" fill="hsl(0.0,100%,20%)">danilchap</text>
<text x="0.765" y="0.038" font-size="0.039969" fill="hsl(0.0,100%,20%)">perkj</text>
<text x="1.057" y="0.860" font-size="0.014665" fill="hsl(0.0,100%,20%)">kthelgason</text>
<text x="0.171" y="0.613" font-size="0.044342" fill="hsl(0.0,100%,20%)">mbonadei</text>
<text x="0.581" y="0.792" font-size="0.017528" fill="hsl(0.0,100%,20%)">linderborg</text>
<text x="0.377" y="0.528" font-size="0.013577" fill="hsl(0.0,100%,20%)">xalep</text>
<text x="0.168" y="0.338" font-size="0.011085" fill="hsl(0.0,100%,20%)">peah</text>
<text x="0.122" y="0.478" font-size="0.038401" fill="hsl(0.0,100%,20%)">jleconte</text>
<text x="0.529" y="0.952" font-size="0.027154" fill="hsl(0.0,100%,20%)">sprang</text>
<text x="0.963" y="0.590" font-size="0.009600" fill="hsl(0.0,100%,20%)">henrika</text>
<text x="1.051" y="0.751" font-size="0.013577" fill="hsl(0.0,100%,20%)">titovartem</text>
<text x="1.018" y="0.564" font-size="0.005543" fill="hsl(0.0,100%,20%)">saza</text>
<text x="0.976" y="0.340" font-size="0.040352" fill="hsl(0.0,100%,20%)">tommi</text>
<text x="0.673" y="0.585" font-size="0.005543" fill="hsl(0.0,100%,20%)">yinwa</text>
<text x="0.525" y="0.320" font-size="0.054024" fill="hsl(0.0,100%,20%)">eshr</text>
<text x="1.040" y="0.145" font-size="0.027714" fill="hsl(0.0,100%,20%)">terelius</text>
<text x="0.534" y="0.176" font-size="0.025998" fill="hsl(0.0,100%,20%)">jonaso</text>
<text x="0.474" y="0.687" font-size="0.005543" fill="hsl(0.0,100%,20%)">magjed</text>
<text x="0.098" y="0.357" font-size="0.014665" fill="hsl(0.0,100%,20%)">ssilkin</text>
<text x="0.760" y="0.354" font-size="0.009600" fill="hsl(0.0,100%,20%)">hbos</text>
<text x="1.664" y="0.103" font-size="0.014665" fill="hsl(0.0,100%,20%)">grulja</text>
<text x="0.291" y="0.263" font-size="0.082212" fill="hsl(0.0,100%,20%)">phancke</text>
<text x="0.623" y="0.141" font-size="0.023516" fill="hsl(0.0,100%,20%)">helmern</text>
<text x="0.479" y="0.384" font-size="0.005543" fill="hsl(0.0,100%,20%)">solenberg</text>
<text x="0.044" y="0.347" font-size="0.005543" fill="hsl(0.0,100%,20%)">kron</text>
<text x="0.148" y="0.775" font-size="0.022171" fill="hsl(0.0,100%,20%)">jansson</text>
<text x="0.291" y="0.388" font-size="0.013577" fill="hsl(0.0,100%,20%)">guidou</text>
<text x="1.456" y="0.540" font-size="0.013577" fill="hsl(0.0,100%,20%)">joachimr</text>
<text x="1.293" y="0.399" font-size="0.007839" fill="hsl(0.0,100%,20%)">gustaf</text>
<text x="0.116" y="0.365" font-size="0.011085" fill="hsl(0.0,100%,20%)">lenakaplan</text>
<text x="0.393" y="0.220" font-size="0.009600" fill="hsl(0.0,100%,20%)">marcinserwin</text>
<text x="0.289" y="0.042" font-size="0.005543" fill="hsl(0.0,100%,20%)">mflodman</text>
<text x="0.988" y="0.438" font-size="0.016628" fill="hsl(0.0,100%,20%)">ortuno</text>
<text x="0.547" y="0.119" font-size="0.013577" fill="hsl(0.0,100%,20%)">diepbp</text>
<text x="0.323" y="0.412" font-size="0.005543" fill="hsl(0.0,100%,20%)">boivie</text>
<text x="0.078" y="0.209" font-size="0.005543" fill="hsl(0.0,100%,20%)">henrik.lundin</text>
<text x="0.299" y="0.415" font-size="0.005543" fill="hsl(0.0,100%,20%)">eladalon</text>
<text x="0.116" y="0.327" font-size="0.007839" fill="hsl(0.0,100%,20%)">samvi</text>
<text x="0.787" y="0.877" font-size="0.022853" fill="hsl(0.0,100%,20%)">vardar</text>
<text x="1.015" y="0.968" font-size="0.013577" fill="hsl(0.0,100%,20%)">yura.yaroshevich</text>
</svg>
