<svg width="4000" height="2000" viewBox="-0.025 -0.025 2.05 1.05" xmlns="http://www.w3.org/2000/svg">
  <style>
    path {
      fill: none;
      stroke-linecap: round;
      stroke-opacity: 0.4;
    }

    text {
      text-anchor: middle;
      alignment-baseline: hanging;
    }
  </style>
  <g opacity="0.4">
<path d="M0.435 0.811 Q0.337 0.758 0.211 0.793" stroke="hsl(0.0,100%,35%)" stroke-width="0.00562"></path>
<path d="M0.435 0.811 Q0.811 0.647 0.573 0.427" stroke="hsl(0.0,100%,35%)" stroke-width="0.00562"></path>
<path d="M0.435 0.811 Q0.474 0.728 0.319 0.690" stroke="hsl(0.0,100%,35%)" stroke-width="0.00141"></path>
<path d="M0.573 0.427 Q0.099 0.538 0.211 0.793" stroke="hsl(0.0,100%,35%)" stroke-width="0.00281"></path>
<path d="M0.573 0.427 Q0.645 0.346 0.503 0.293" stroke="hsl(0.0,100%,35%)" stroke-width="0.00281"></path>
<path d="M0.573 0.427 Q1.237 0.642 1.802 0.365" stroke="hsl(0.0,100%,35%)" stroke-width="0.00141"></path>
<path d="M0.573 0.427 Q0.386 0.551 0.586 0.669" stroke="hsl(0.0,100%,35%)" stroke-width="0.00141"></path>
<path d="M1.368 0.182 Q1.552 0.226 1.679 0.146" stroke="hsl(0.0,100%,35%)" stroke-width="0.02530"></path>
<path d="M1.368 0.182 Q1.026 0.307 1.195 0.502" stroke="hsl(0.0,100%,35%)" stroke-width="0.03373"></path>
<path d="M1.368 0.182 Q1.195 0.483 1.745 0.634" stroke="hsl(0.0,100%,35%)" stroke-width="0.02389"></path>
<path d="M1.679 0.146 Q1.152 0.227 1.195 0.502" stroke="hsl(0.0,100%,35%)" stroke-width="0.01405"></path>
<path d="M1.679 0.146 Q1.547 0.348 1.912 0.456" stroke="hsl(0.0,100%,35%)" stroke-width="0.00422"></path>
<path d="M1.679 0.146 Q1.565 0.280 1.802 0.365" stroke="hsl(0.0,100%,35%)" stroke-width="0.00141"></path>
<path d="M1.679 0.146 Q1.405 0.172 1.395 0.311" stroke="hsl(0.0,100%,35%)" stroke-width="0.00843"></path>
<path d="M1.679 0.146 Q0.715 -0.075 0.072 0.347" stroke="hsl(0.0,100%,35%)" stroke-width="0.00281"></path>
<path d="M1.679 0.146 Q1.503 0.165 1.500 0.255" stroke="hsl(0.0,100%,35%)" stroke-width="0.00141"></path>
<path d="M1.679 0.146 Q0.753 -0.024 0.219 0.391" stroke="hsl(0.0,100%,35%)" stroke-width="0.00141"></path>
<path d="M1.679 0.146 Q1.610 0.209 1.719 0.257" stroke="hsl(0.0,100%,35%)" stroke-width="0.00562"></path>
<path d="M1.679 0.146 Q1.220 0.102 1.033 0.317" stroke="hsl(0.0,100%,35%)" stroke-width="0.00141"></path>
<path d="M1.679 0.146 Q0.901 0.065 0.573 0.427" stroke="hsl(0.0,100%,35%)" stroke-width="0.00141"></path>
<path d="M1.679 0.146 Q0.776 0.338 0.952 0.821" stroke="hsl(0.0,100%,35%)" stroke-width="0.00141"></path>
<path d="M1.679 0.146 Q1.488 0.223 1.597 0.334" stroke="hsl(0.0,100%,35%)" stroke-width="0.00843"></path>
<path d="M1.679 0.146 Q0.967 0.425 1.356 0.834" stroke="hsl(0.0,100%,35%)" stroke-width="0.00141"></path>
<path d="M1.679 0.146 Q0.901 -0.102 0.246 0.223" stroke="hsl(0.0,100%,35%)" stroke-width="0.00141"></path>
<path d="M1.195 0.502 Q0.756 0.464 0.586 0.669" stroke="hsl(0.0,100%,35%)" stroke-width="0.03092"></path>
<path d="M1.195 0.502 Q1.170 0.144 0.467 0.078" stroke="hsl(0.0,100%,35%)" stroke-width="0.00141"></path>
<path d="M1.195 0.502 Q1.530 0.498 1.597 0.334" stroke="hsl(0.0,100%,35%)" stroke-width="0.00141"></path>
<path d="M1.195 0.502 Q1.447 0.446 1.395 0.311" stroke="hsl(0.0,100%,35%)" stroke-width="0.00141"></path>
<path d="M1.195 0.502 Q1.157 0.635 1.408 0.682" stroke="hsl(0.0,100%,35%)" stroke-width="0.00141"></path>
<path d="M1.195 0.502 Q1.063 0.410 0.856 0.454" stroke="hsl(0.0,100%,35%)" stroke-width="0.00422"></path>
<path d="M1.195 0.502 Q1.010 0.700 1.356 0.834" stroke="hsl(0.0,100%,35%)" stroke-width="0.00141"></path>
<path d="M1.195 0.502 Q1.590 0.622 1.912 0.456" stroke="hsl(0.0,100%,35%)" stroke-width="0.00141"></path>
<path d="M1.195 0.502 Q1.364 0.678 1.745 0.634" stroke="hsl(0.0,100%,35%)" stroke-width="0.00281"></path>
<path d="M1.745 0.634 Q1.576 0.457 1.195 0.502" stroke="hsl(0.0,100%,35%)" stroke-width="0.00141"></path>
<path d="M1.745 0.634 Q1.971 0.578 1.912 0.456" stroke="hsl(0.0,100%,35%)" stroke-width="0.00281"></path>
<path d="M1.745 0.634 Q1.139 0.155 0.072 0.347" stroke="hsl(0.0,100%,35%)" stroke-width="0.00141"></path>
<path d="M1.745 0.634 Q1.324 0.128 0.246 0.223" stroke="hsl(0.0,100%,35%)" stroke-width="0.00281"></path>
<path d="M1.745 0.634 Q1.860 0.470 1.565 0.378" stroke="hsl(0.0,100%,35%)" stroke-width="0.00141"></path>
<path d="M1.745 0.634 Q1.760 0.667 1.827 0.667" stroke="hsl(0.0,100%,35%)" stroke-width="0.00141"></path>
<path d="M1.912 0.456 Q1.930 0.389 1.802 0.365" stroke="hsl(0.0,100%,35%)" stroke-width="0.00422"></path>
<path d="M1.912 0.456 Q1.687 0.512 1.745 0.634" stroke="hsl(0.0,100%,35%)" stroke-width="0.01546"></path>
<path d="M1.912 0.456 Q1.517 0.335 1.195 0.502" stroke="hsl(0.0,100%,35%)" stroke-width="0.00422"></path>
<path d="M1.912 0.456 Q1.852 0.332 1.597 0.334" stroke="hsl(0.0,100%,35%)" stroke-width="0.00281"></path>
<path d="M1.912 0.456 Q1.801 0.348 1.565 0.378" stroke="hsl(0.0,100%,35%)" stroke-width="0.00281"></path>
<path d="M1.802 0.365 Q1.389 0.312 1.195 0.502" stroke="hsl(0.0,100%,35%)" stroke-width="0.00281"></path>
<path d="M1.802 0.365 Q1.784 0.433 1.912 0.456" stroke="hsl(0.0,100%,35%)" stroke-width="0.00703"></path>
<path d="M1.802 0.365 Q1.559 0.488 1.745 0.634" stroke="hsl(0.0,100%,35%)" stroke-width="0.00422"></path>
<path d="M1.802 0.365 Q1.916 0.231 1.679 0.146" stroke="hsl(0.0,100%,35%)" stroke-width="0.00422"></path>
<path d="M1.802 0.365 Q0.951 0.274 0.586 0.669" stroke="hsl(0.0,100%,35%)" stroke-width="0.00141"></path>
<path d="M1.395 0.311 Q1.142 0.366 1.195 0.502" stroke="hsl(0.0,100%,35%)" stroke-width="0.00703"></path>
<path d="M1.395 0.311 Q1.669 0.285 1.679 0.146" stroke="hsl(0.0,100%,35%)" stroke-width="0.00422"></path>
<path d="M1.395 0.311 Q1.555 0.419 1.802 0.365" stroke="hsl(0.0,100%,35%)" stroke-width="0.00141"></path>
<path d="M1.395 0.311 Q1.477 0.363 1.597 0.334" stroke="hsl(0.0,100%,35%)" stroke-width="0.00141"></path>
<path d="M1.356 0.834 Q1.541 0.635 1.195 0.502" stroke="hsl(0.0,100%,35%)" stroke-width="0.01827"></path>
<path d="M1.356 0.834 Q1.711 0.812 1.745 0.634" stroke="hsl(0.0,100%,35%)" stroke-width="0.00984"></path>
<path d="M1.356 0.834 Q1.124 0.834 1.073 0.947" stroke="hsl(0.0,100%,35%)" stroke-width="0.00141"></path>
<path d="M1.356 0.834 Q1.103 0.598 0.586 0.669" stroke="hsl(0.0,100%,35%)" stroke-width="0.00141"></path>
<path d="M1.356 0.834 Q2.068 0.554 1.679 0.146" stroke="hsl(0.0,100%,35%)" stroke-width="0.00141"></path>
<path d="M1.356 0.834 Q1.409 0.544 0.856 0.454" stroke="hsl(0.0,100%,35%)" stroke-width="0.00141"></path>
<path d="M1.356 0.834 Q1.290 0.474 0.573 0.427" stroke="hsl(0.0,100%,35%)" stroke-width="0.00281"></path>
<path d="M1.356 0.834 Q1.793 0.580 1.395 0.311" stroke="hsl(0.0,100%,35%)" stroke-width="0.00141"></path>
<path d="M1.356 0.834 Q1.359 0.712 1.122 0.684" stroke="hsl(0.0,100%,35%)" stroke-width="0.00281"></path>
<path d="M1.356 0.834 Q1.954 0.688 1.802 0.365" stroke="hsl(0.0,100%,35%)" stroke-width="0.00141"></path>
<path d="M0.246 0.223 Q0.098 0.302 0.219 0.391" stroke="hsl(0.0,100%,35%)" stroke-width="0.00141"></path>
<path d="M0.246 0.223 Q0.667 0.728 1.745 0.634" stroke="hsl(0.0,100%,35%)" stroke-width="0.00281"></path>
<path d="M0.246 0.223 Q0.060 0.250 0.072 0.347" stroke="hsl(0.0,100%,35%)" stroke-width="0.00562"></path>
<path d="M0.246 0.223 Q0.681 0.761 1.827 0.667" stroke="hsl(0.0,100%,35%)" stroke-width="0.00141"></path>
<path d="M0.246 0.223 Q1.024 0.471 1.679 0.146" stroke="hsl(0.0,100%,35%)" stroke-width="0.00141"></path>
<path d="M0.856 0.454 Q0.988 0.546 1.195 0.502" stroke="hsl(0.0,100%,35%)" stroke-width="0.03654"></path>
<path d="M0.856 0.454 Q1.157 0.722 1.745 0.634" stroke="hsl(0.0,100%,35%)" stroke-width="0.00843"></path>
<path d="M0.856 0.454 Q0.549 0.508 0.586 0.669" stroke="hsl(0.0,100%,35%)" stroke-width="0.00562"></path>
<path d="M0.856 0.454 Q1.180 0.363 1.073 0.185" stroke="hsl(0.0,100%,35%)" stroke-width="0.00141"></path>
<path d="M0.856 0.454 Q1.055 0.421 1.033 0.317" stroke="hsl(0.0,100%,35%)" stroke-width="0.00141"></path>
<path d="M0.856 0.454 Q0.551 0.244 0.072 0.347" stroke="hsl(0.0,100%,35%)" stroke-width="0.00141"></path>
<path d="M0.856 0.454 Q0.737 0.384 0.573 0.427" stroke="hsl(0.0,100%,35%)" stroke-width="0.00141"></path>
<path d="M0.856 0.454 Q0.803 0.744 1.356 0.834" stroke="hsl(0.0,100%,35%)" stroke-width="0.00141"></path>
<path d="M0.856 0.454 Q0.950 0.679 1.408 0.682" stroke="hsl(0.0,100%,35%)" stroke-width="0.00141"></path>
<path d="M0.586 0.669 Q1.025 0.707 1.195 0.502" stroke="hsl(0.0,100%,35%)" stroke-width="0.01405"></path>
<path d="M0.586 0.669 Q0.893 0.616 0.856 0.454" stroke="hsl(0.0,100%,35%)" stroke-width="0.00281"></path>
<path d="M0.586 0.669 Q1.194 0.883 1.745 0.634" stroke="hsl(0.0,100%,35%)" stroke-width="0.00141"></path>
<path d="M0.586 0.669 Q0.774 0.546 0.573 0.427" stroke="hsl(0.0,100%,35%)" stroke-width="0.00984"></path>
<path d="M0.586 0.669 Q0.642 0.512 0.348 0.451" stroke="hsl(0.0,100%,35%)" stroke-width="0.00141"></path>
<path d="M0.586 0.669 Q1.551 0.626 1.679 0.146" stroke="hsl(0.0,100%,35%)" stroke-width="0.00281"></path>
<path d="M0.586 0.669 Q0.588 0.405 0.072 0.347" stroke="hsl(0.0,100%,35%)" stroke-width="0.00281"></path>
<path d="M0.586 0.669 Q0.773 0.378 0.246 0.223" stroke="hsl(0.0,100%,35%)" stroke-width="0.00141"></path>
<path d="M0.348 0.451 Q0.292 0.608 0.586 0.669" stroke="hsl(0.0,100%,35%)" stroke-width="0.00703"></path>
<path d="M0.348 0.451 Q0.730 0.646 1.195 0.502" stroke="hsl(0.0,100%,35%)" stroke-width="0.00141"></path>
<path d="M0.348 0.451 Q0.293 0.344 0.072 0.347" stroke="hsl(0.0,100%,35%)" stroke-width="0.00562"></path>
<path d="M0.348 0.451 Q0.479 0.316 0.246 0.223" stroke="hsl(0.0,100%,35%)" stroke-width="0.00562"></path>
<path d="M0.348 0.451 Q1.257 0.565 1.679 0.146" stroke="hsl(0.0,100%,35%)" stroke-width="0.00141"></path>
<path d="M0.471 0.231 Q0.178 0.473 0.586 0.669" stroke="hsl(0.0,100%,35%)" stroke-width="0.00141"></path>
<path d="M0.471 0.231 Q0.234 0.316 0.348 0.451" stroke="hsl(0.0,100%,35%)" stroke-width="0.00141"></path>
<path d="M0.471 0.231 Q0.365 0.182 0.246 0.223" stroke="hsl(0.0,100%,35%)" stroke-width="0.00141"></path>
<path d="M0.304 0.356 Q0.196 0.305 0.072 0.347" stroke="hsl(0.0,100%,35%)" stroke-width="0.00281"></path>
<path d="M0.304 0.356 Q0.633 0.607 1.195 0.502" stroke="hsl(0.0,100%,35%)" stroke-width="0.00281"></path>
<path d="M0.304 0.356 Q1.160 0.526 1.679 0.146" stroke="hsl(0.0,100%,35%)" stroke-width="0.00281"></path>
<path d="M1.115 0.603 Q1.236 0.568 1.195 0.502" stroke="hsl(0.0,100%,35%)" stroke-width="0.05200"></path>
<path d="M1.115 0.603 Q1.405 0.744 1.745 0.634" stroke="hsl(0.0,100%,35%)" stroke-width="0.01265"></path>
<path d="M1.115 0.603 Q1.051 0.766 1.356 0.834" stroke="hsl(0.0,100%,35%)" stroke-width="0.01687"></path>
<path d="M1.115 0.603 Q1.648 0.621 1.802 0.365" stroke="hsl(0.0,100%,35%)" stroke-width="0.00281"></path>
<path d="M1.115 0.603 Q0.797 0.530 0.586 0.669" stroke="hsl(0.0,100%,35%)" stroke-width="0.02530"></path>
<path d="M1.115 0.603 Q1.762 0.487 1.679 0.146" stroke="hsl(0.0,100%,35%)" stroke-width="0.00703"></path>
<path d="M1.115 0.603 Q0.798 0.266 0.072 0.347" stroke="hsl(0.0,100%,35%)" stroke-width="0.00422"></path>
<path d="M1.115 0.603 Q1.211 0.211 0.467 0.078" stroke="hsl(0.0,100%,35%)" stroke-width="0.00141"></path>
<path d="M1.115 0.603 Q1.053 0.645 1.122 0.684" stroke="hsl(0.0,100%,35%)" stroke-width="0.00422"></path>
<path d="M1.115 0.603 Q1.630 0.689 1.912 0.456" stroke="hsl(0.0,100%,35%)" stroke-width="0.00141"></path>
<path d="M1.115 0.603 Q0.984 0.239 0.246 0.223" stroke="hsl(0.0,100%,35%)" stroke-width="0.00141"></path>
<path d="M1.115 0.603 Q0.859 0.679 0.952 0.821" stroke="hsl(0.0,100%,35%)" stroke-width="0.00141"></path>
<path d="M1.115 0.603 Q0.985 0.407 0.573 0.427" stroke="hsl(0.0,100%,35%)" stroke-width="0.00281"></path>
<path d="M1.115 0.603 Q1.571 0.565 1.597 0.334" stroke="hsl(0.0,100%,35%)" stroke-width="0.00141"></path>
<path d="M1.115 0.603 Q0.815 0.641 0.824 0.796" stroke="hsl(0.0,100%,35%)" stroke-width="0.00141"></path>
<path d="M1.115 0.603 Q0.909 0.588 0.836 0.685" stroke="hsl(0.0,100%,35%)" stroke-width="0.00141"></path>
<path d="M1.115 0.603 Q1.303 0.443 1.033 0.317" stroke="hsl(0.0,100%,35%)" stroke-width="0.00141"></path>
<path d="M0.675 0.334 Q0.776 0.164 0.467 0.078" stroke="hsl(0.0,100%,35%)" stroke-width="0.00141"></path>
<path d="M0.675 0.334 Q0.801 0.522 1.195 0.502" stroke="hsl(0.0,100%,35%)" stroke-width="0.00141"></path>
<path d="M0.675 0.334 Q0.993 0.339 1.073 0.185" stroke="hsl(0.0,100%,35%)" stroke-width="0.00141"></path>
<path d="M0.675 0.334 Q0.763 0.655 1.408 0.682" stroke="hsl(0.0,100%,35%)" stroke-width="0.00141"></path>
<path d="M0.675 0.334 Q0.622 0.279 0.503 0.293" stroke="hsl(0.0,100%,35%)" stroke-width="0.00141"></path>
<path d="M0.675 0.334 Q0.076 0.471 0.211 0.793" stroke="hsl(0.0,100%,35%)" stroke-width="0.00141"></path>
<path d="M0.672 0.170 Q0.644 0.083 0.467 0.078" stroke="hsl(0.0,100%,35%)" stroke-width="0.00281"></path>
<path d="M0.672 0.170 Q-0.057 0.390 0.211 0.793" stroke="hsl(0.0,100%,35%)" stroke-width="0.00141"></path>
<path d="M0.672 0.170 Q0.828 0.156 0.834 0.077" stroke="hsl(0.0,100%,35%)" stroke-width="0.00141"></path>
<path d="M0.672 0.170 Q0.921 0.385 1.395 0.311" stroke="hsl(0.0,100%,35%)" stroke-width="0.00141"></path>
<path d="M0.052 0.466 Q0.595 0.712 1.195 0.502" stroke="hsl(0.0,100%,35%)" stroke-width="0.00141"></path>
<path d="M0.052 0.466 Q0.157 0.410 0.072 0.347" stroke="hsl(0.0,100%,35%)" stroke-width="0.00562"></path>
<path d="M0.052 0.466 Q1.007 0.765 1.802 0.365" stroke="hsl(0.0,100%,35%)" stroke-width="0.00141"></path>
<path d="M0.052 0.466 Q0.990 0.833 1.912 0.456" stroke="hsl(0.0,100%,35%)" stroke-width="0.00141"></path>
<path d="M0.052 0.466 Q0.764 0.888 1.745 0.634" stroke="hsl(0.0,100%,35%)" stroke-width="0.00281"></path>
<path d="M0.052 0.466 Q0.266 0.461 0.304 0.356" stroke="hsl(0.0,100%,35%)" stroke-width="0.00141"></path>
</g>
<text x="0.435" y="0.801" font-size="0.020000" fill="hsl(0.0,100%,20%)">agpalak</text>
<text x="0.211" y="0.784" font-size="0.018856" fill="hsl(0.0,100%,20%)">henrika</text>
<text x="0.573" y="0.411" font-size="0.031972" fill="hsl(0.0,100%,20%)">ilnik</text>
<text x="0.319" y="0.687" font-size="0.006667" fill="hsl(0.0,100%,20%)">mfoltz</text>
<text x="1.368" y="0.156" font-size="0.051208" fill="hsl(0.0,100%,20%)">btsirkin</text>
<text x="1.679" y="0.117" font-size="0.057735" fill="hsl(0.0,100%,20%)">danilchap</text>
<text x="1.195" y="0.458" font-size="0.086667" fill="hsl(0.0,100%,20%)">hta</text>
<text x="1.745" y="0.606" font-size="0.054975" fill="hsl(0.0,100%,20%)">mbonadei</text>
<text x="1.912" y="0.437" font-size="0.038873" fill="hsl(0.0,100%,20%)">jleconte</text>
<text x="1.802" y="0.349" font-size="0.032660" fill="hsl(0.0,100%,20%)">terelius</text>
<text x="1.395" y="0.296" font-size="0.029059" fill="hsl(0.0,100%,20%)">perkj</text>
<text x="0.072" y="0.331" font-size="0.031972" fill="hsl(0.0,100%,20%)">sprang</text>
<text x="1.500" y="0.251" font-size="0.006667" fill="hsl(0.0,100%,20%)">brandtr</text>
<text x="0.219" y="0.386" font-size="0.009428" fill="hsl(0.0,100%,20%)">asapersson</text>
<text x="1.719" y="0.250" font-size="0.013333" fill="hsl(0.0,100%,20%)">saza</text>
<text x="1.033" y="0.311" font-size="0.011547" fill="hsl(0.0,100%,20%)">peah</text>
<text x="0.952" y="0.816" font-size="0.009428" fill="hsl(0.0,100%,20%)">kron</text>
<text x="1.597" y="0.323" font-size="0.022111" fill="hsl(0.0,100%,20%)">titovartem</text>
<text x="1.356" y="0.811" font-size="0.044721" fill="hsl(0.0,100%,20%)">jonaso</text>
<text x="0.246" y="0.208" font-size="0.029059" fill="hsl(0.0,100%,20%)">ssilkin</text>
<text x="0.856" y="0.431" font-size="0.046188" fill="hsl(0.0,100%,20%)">eshr</text>
<text x="0.586" y="0.640" font-size="0.059255" fill="hsl(0.0,100%,20%)">hbos</text>
<text x="1.073" y="0.180" font-size="0.009428" fill="hsl(0.0,100%,20%)">stefan</text>
<text x="1.408" y="0.676" font-size="0.011547" fill="hsl(0.0,100%,20%)">tommi</text>
<text x="0.348" y="0.437" font-size="0.027487" fill="hsl(0.0,100%,20%)">jianlin.qiu</text>
<text x="0.467" y="0.070" font-size="0.014907" fill="hsl(0.0,100%,20%)">henrik.lundin</text>
<text x="0.503" y="0.287" font-size="0.011547" fill="hsl(0.0,100%,20%)">alcooper</text>
<text x="1.565" y="0.372" font-size="0.011547" fill="hsl(0.0,100%,20%)">jansson</text>
<text x="1.073" y="0.944" font-size="0.006667" fill="hsl(0.0,100%,20%)">boivie</text>
<text x="1.122" y="0.677" font-size="0.014907" fill="hsl(0.0,100%,20%)">jakobi</text>
<text x="0.471" y="0.225" font-size="0.011547" fill="hsl(0.0,100%,20%)">kacp.was</text>
<text x="0.304" y="0.347" font-size="0.017638" fill="hsl(0.0,100%,20%)">linderborg</text>
<text x="1.827" y="0.662" font-size="0.009428" fill="hsl(0.0,100%,20%)">xalep</text>
<text x="1.115" y="0.570" font-size="0.066332" fill="hsl(0.0,100%,20%)">phancke</text>
<text x="0.824" y="0.792" font-size="0.006667" fill="hsl(0.0,100%,20%)">guidou</text>
<text x="0.836" y="0.682" font-size="0.006667" fill="hsl(0.0,100%,20%)">philipel</text>
<text x="0.675" y="0.326" font-size="0.016330" fill="hsl(0.0,100%,20%)">tikuta</text>
<text x="0.672" y="0.163" font-size="0.014907" fill="hsl(0.0,100%,20%)">tomasl</text>
<text x="0.834" y="0.074" font-size="0.006667" fill="hsl(0.0,100%,20%)">magjed</text>
<text x="0.052" y="0.455" font-size="0.021082" fill="hsl(0.0,100%,20%)">vardar</text>
</svg>
