<svg width="4000" height="2000" viewBox="-0.025 -0.025 2.05 1.05" xmlns="http://www.w3.org/2000/svg">
  <style>
    path {
      fill: none;
      stroke-linecap: round;
      stroke-opacity: 0.4;
    }

    text {
      text-anchor: middle;
      alignment-baseline: hanging;
    }
  </style>
  <g opacity="0.4">
<path d="M1.938 0.573 Q1.294 0.439 0.892 0.725" stroke="hsl(0.0,100%,35%)" stroke-width="0.00104"></path>
<path d="M1.938 0.573 Q1.329 0.130 0.331 0.330" stroke="hsl(0.0,100%,35%)" stroke-width="0.00313"></path>
<path d="M1.938 0.573 Q0.950 0.514 0.619 0.983" stroke="hsl(0.0,100%,35%)" stroke-width="0.00209"></path>
<path d="M1.938 0.573 Q1.771 0.561 1.711 0.640" stroke="hsl(0.0,100%,35%)" stroke-width="0.00209"></path>
<path d="M1.938 0.573 Q1.587 0.230 0.840 0.326" stroke="hsl(0.0,100%,35%)" stroke-width="0.00104"></path>
<path d="M1.938 0.573 Q1.741 0.454 1.467 0.525" stroke="hsl(0.0,100%,35%)" stroke-width="0.00104"></path>
<path d="M0.892 0.725 Q0.927 0.415 0.331 0.330" stroke="hsl(0.0,100%,35%)" stroke-width="0.00104"></path>
<path d="M0.892 0.725 Q0.782 0.549 0.414 0.564" stroke="hsl(0.0,100%,35%)" stroke-width="0.00104"></path>
<path d="M0.892 0.725 Q1.106 0.758 1.218 0.661" stroke="hsl(0.0,100%,35%)" stroke-width="0.00313"></path>
<path d="M0.331 0.330 Q0.616 0.361 0.738 0.229" stroke="hsl(0.0,100%,35%)" stroke-width="0.01462"></path>
<path d="M0.331 0.330 Q0.256 0.394 0.363 0.445" stroke="hsl(0.0,100%,35%)" stroke-width="0.00627"></path>
<path d="M0.331 0.330 Q0.186 0.463 0.414 0.564" stroke="hsl(0.0,100%,35%)" stroke-width="0.00209"></path>
<path d="M0.331 0.330 Q0.742 0.293 0.760 0.085" stroke="hsl(0.0,100%,35%)" stroke-width="0.00104"></path>
<path d="M0.331 0.330 Q0.387 0.417 0.568 0.409" stroke="hsl(0.0,100%,35%)" stroke-width="0.01880"></path>
<path d="M0.331 0.330 Q0.526 0.356 0.619 0.266" stroke="hsl(0.0,100%,35%)" stroke-width="0.00104"></path>
<path d="M0.331 0.330 Q0.750 0.443 1.063 0.264" stroke="hsl(0.0,100%,35%)" stroke-width="0.00522"></path>
<path d="M0.331 0.330 Q0.296 0.640 0.892 0.725" stroke="hsl(0.0,100%,35%)" stroke-width="0.00209"></path>
<path d="M0.619 0.983 Q1.411 1.124 1.860 0.769" stroke="hsl(0.0,100%,35%)" stroke-width="0.00104"></path>
<path d="M0.619 0.983 Q0.997 0.599 0.331 0.330" stroke="hsl(0.0,100%,35%)" stroke-width="0.00104"></path>
<path d="M0.619 0.983 Q0.851 0.732 0.414 0.564" stroke="hsl(0.0,100%,35%)" stroke-width="0.00104"></path>
<path d="M0.619 0.983 Q1.409 0.923 1.467 0.525" stroke="hsl(0.0,100%,35%)" stroke-width="0.00104"></path>
<path d="M1.467 0.525 Q1.339 0.231 0.738 0.229" stroke="hsl(0.0,100%,35%)" stroke-width="0.00104"></path>
<path d="M1.467 0.525 Q1.596 0.448 1.476 0.368" stroke="hsl(0.0,100%,35%)" stroke-width="0.00313"></path>
<path d="M1.467 0.525 Q1.337 0.782 1.810 0.902" stroke="hsl(0.0,100%,35%)" stroke-width="0.00209"></path>
<path d="M1.467 0.525 Q1.055 0.200 0.331 0.330" stroke="hsl(0.0,100%,35%)" stroke-width="0.00104"></path>
<path d="M1.467 0.525 Q1.473 0.313 1.063 0.264" stroke="hsl(0.0,100%,35%)" stroke-width="0.00104"></path>
<path d="M0.293 0.799 Q0.441 0.879 0.628 0.824" stroke="hsl(0.0,100%,35%)" stroke-width="0.01671"></path>
<path d="M0.293 0.799 Q0.309 0.956 0.619 0.983" stroke="hsl(0.0,100%,35%)" stroke-width="0.01149"></path>
<path d="M0.293 0.799 Q0.542 0.706 0.414 0.564" stroke="hsl(0.0,100%,35%)" stroke-width="0.00313"></path>
<path d="M0.414 0.564 Q0.560 0.430 0.331 0.330" stroke="hsl(0.0,100%,35%)" stroke-width="0.00418"></path>
<path d="M0.414 0.564 Q0.250 0.527 0.142 0.598" stroke="hsl(0.0,100%,35%)" stroke-width="0.00731"></path>
<path d="M0.414 0.564 Q0.739 0.773 1.218 0.661" stroke="hsl(0.0,100%,35%)" stroke-width="0.00522"></path>
<path d="M0.414 0.564 Q0.484 0.494 0.363 0.445" stroke="hsl(0.0,100%,35%)" stroke-width="0.00209"></path>
<path d="M1.869 0.230 Q1.363 0.241 1.274 0.490" stroke="hsl(0.0,100%,35%)" stroke-width="0.00104"></path>
<path d="M1.869 0.230 Q0.944 0.036 0.363 0.445" stroke="hsl(0.0,100%,35%)" stroke-width="0.00104"></path>
<path d="M1.869 0.230 Q1.808 0.301 1.934 0.347" stroke="hsl(0.0,100%,35%)" stroke-width="0.00104"></path>
<path d="M0.363 0.445 Q0.981 0.629 1.476 0.368" stroke="hsl(0.0,100%,35%)" stroke-width="0.00627"></path>
<path d="M0.363 0.445 Q0.439 0.381 0.331 0.330" stroke="hsl(0.0,100%,35%)" stroke-width="0.00418"></path>
<path d="M0.363 0.445 Q0.293 0.514 0.414 0.564" stroke="hsl(0.0,100%,35%)" stroke-width="0.00209"></path>
<path d="M0.363 0.445 Q0.858 0.494 1.063 0.264" stroke="hsl(0.0,100%,35%)" stroke-width="0.00104"></path>
<path d="M0.363 0.445 Q0.494 0.468 0.568 0.409" stroke="hsl(0.0,100%,35%)" stroke-width="0.00104"></path>
<path d="M0.363 0.445 Q0.804 0.564 1.133 0.375" stroke="hsl(0.0,100%,35%)" stroke-width="0.00104"></path>
<path d="M0.363 0.445 Q0.765 0.744 1.437 0.613" stroke="hsl(0.0,100%,35%)" stroke-width="0.00104"></path>
<path d="M0.363 0.445 Q0.153 0.415 0.048 0.511" stroke="hsl(0.0,100%,35%)" stroke-width="0.00104"></path>
<path d="M0.669 0.526 Q0.581 0.424 0.363 0.445" stroke="hsl(0.0,100%,35%)" stroke-width="0.00418"></path>
<path d="M0.669 0.526 Q0.758 0.555 0.835 0.519" stroke="hsl(0.0,100%,35%)" stroke-width="0.00209"></path>
<path d="M0.669 0.526 Q1.199 0.608 1.476 0.368" stroke="hsl(0.0,100%,35%)" stroke-width="0.00104"></path>
<path d="M1.476 0.368 Q1.299 0.303 1.133 0.375" stroke="hsl(0.0,100%,35%)" stroke-width="0.00313"></path>
<path d="M1.476 0.368 Q1.722 0.449 1.934 0.347" stroke="hsl(0.0,100%,35%)" stroke-width="0.00209"></path>
<path d="M1.476 0.368 Q0.858 0.184 0.363 0.445" stroke="hsl(0.0,100%,35%)" stroke-width="0.00835"></path>
<path d="M1.476 0.368 Q1.346 0.445 1.467 0.525" stroke="hsl(0.0,100%,35%)" stroke-width="0.00522"></path>
<path d="M1.476 0.368 Q0.934 0.120 0.331 0.330" stroke="hsl(0.0,100%,35%)" stroke-width="0.00835"></path>
<path d="M1.476 0.368 Q1.218 0.151 0.738 0.229" stroke="hsl(0.0,100%,35%)" stroke-width="0.00104"></path>
<path d="M1.476 0.368 Q1.134 0.083 0.502 0.187" stroke="hsl(0.0,100%,35%)" stroke-width="0.00104"></path>
<path d="M1.476 0.368 Q1.106 -0.011 0.284 0.086" stroke="hsl(0.0,100%,35%)" stroke-width="0.00104"></path>
<path d="M1.476 0.368 Q1.348 0.645 1.860 0.769" stroke="hsl(0.0,100%,35%)" stroke-width="0.00209"></path>
<path d="M1.476 0.368 Q1.284 0.572 1.639 0.710" stroke="hsl(0.0,100%,35%)" stroke-width="0.00104"></path>
<path d="M1.476 0.368 Q1.535 0.445 1.697 0.432" stroke="hsl(0.0,100%,35%)" stroke-width="0.00104"></path>
<path d="M1.476 0.368 Q0.648 0.154 0.048 0.511" stroke="hsl(0.0,100%,35%)" stroke-width="0.00104"></path>
<path d="M1.476 0.368 Q1.607 0.321 1.544 0.247" stroke="hsl(0.0,100%,35%)" stroke-width="0.00418"></path>
<path d="M1.476 0.368 Q1.192 0.220 0.840 0.326" stroke="hsl(0.0,100%,35%)" stroke-width="0.00104"></path>
<path d="M1.476 0.368 Q0.556 0.504 0.619 0.983" stroke="hsl(0.0,100%,35%)" stroke-width="0.00209"></path>
<path d="M1.063 0.264 Q1.009 0.333 1.133 0.375" stroke="hsl(0.0,100%,35%)" stroke-width="0.00835"></path>
<path d="M1.063 0.264 Q0.644 0.151 0.331 0.330" stroke="hsl(0.0,100%,35%)" stroke-width="0.02611"></path>
<path d="M1.063 0.264 Q0.568 0.215 0.363 0.445" stroke="hsl(0.0,100%,35%)" stroke-width="0.00418"></path>
<path d="M1.063 0.264 Q0.994 0.602 1.639 0.710" stroke="hsl(0.0,100%,35%)" stroke-width="0.00209"></path>
<path d="M1.063 0.264 Q1.186 0.399 1.476 0.368" stroke="hsl(0.0,100%,35%)" stroke-width="0.00209"></path>
<path d="M1.063 0.264 Q0.926 0.732 1.810 0.902" stroke="hsl(0.0,100%,35%)" stroke-width="0.00104"></path>
<path d="M1.063 0.264 Q0.504 0.113 0.088 0.353" stroke="hsl(0.0,100%,35%)" stroke-width="0.00104"></path>
<path d="M1.063 0.264 Q1.317 0.352 1.544 0.247" stroke="hsl(0.0,100%,35%)" stroke-width="0.00104"></path>
<path d="M1.063 0.264 Q0.902 0.250 0.840 0.326" stroke="hsl(0.0,100%,35%)" stroke-width="0.00731"></path>
<path d="M1.063 0.264 Q1.057 0.676 1.860 0.769" stroke="hsl(0.0,100%,35%)" stroke-width="0.00104"></path>
<path d="M1.063 0.264 Q0.987 0.420 1.274 0.490" stroke="hsl(0.0,100%,35%)" stroke-width="0.00418"></path>
<path d="M1.063 0.264 Q0.815 0.019 0.284 0.086" stroke="hsl(0.0,100%,35%)" stroke-width="0.00522"></path>
<path d="M1.063 0.264 Q0.498 0.284 0.414 0.564" stroke="hsl(0.0,100%,35%)" stroke-width="0.00313"></path>
<path d="M1.063 0.264 Q1.432 0.480 1.934 0.347" stroke="hsl(0.0,100%,35%)" stroke-width="0.00209"></path>
<path d="M1.063 0.264 Q0.745 0.346 0.835 0.519" stroke="hsl(0.0,100%,35%)" stroke-width="0.00104"></path>
<path d="M1.063 0.264 Q0.397 0.457 0.628 0.824" stroke="hsl(0.0,100%,35%)" stroke-width="0.00104"></path>
<path d="M1.063 0.264 Q1.056 0.475 1.467 0.525" stroke="hsl(0.0,100%,35%)" stroke-width="0.00104"></path>
<path d="M1.063 0.264 Q0.823 0.493 1.218 0.661" stroke="hsl(0.0,100%,35%)" stroke-width="0.00104"></path>
<path d="M1.063 0.264 Q0.899 0.264 0.864 0.344" stroke="hsl(0.0,100%,35%)" stroke-width="0.00104"></path>
<path d="M1.544 0.247 Q1.153 0.628 1.810 0.902" stroke="hsl(0.0,100%,35%)" stroke-width="0.00104"></path>
<path d="M1.544 0.247 Q1.155 0.077 0.738 0.229" stroke="hsl(0.0,100%,35%)" stroke-width="0.00313"></path>
<path d="M1.544 0.247 Q1.556 0.139 1.348 0.109" stroke="hsl(0.0,100%,35%)" stroke-width="0.00104"></path>
<path d="M1.544 0.247 Q1.284 0.571 1.860 0.769" stroke="hsl(0.0,100%,35%)" stroke-width="0.00104"></path>
<path d="M1.544 0.247 Q1.281 0.009 0.760 0.085" stroke="hsl(0.0,100%,35%)" stroke-width="0.00104"></path>
<path d="M1.544 0.247 Q1.289 0.159 1.063 0.264" stroke="hsl(0.0,100%,35%)" stroke-width="0.00104"></path>
<path d="M1.544 0.247 Q0.871 0.046 0.331 0.330" stroke="hsl(0.0,100%,35%)" stroke-width="0.00104"></path>
<path d="M1.860 0.769 Q1.796 0.695 1.639 0.710" stroke="hsl(0.0,100%,35%)" stroke-width="0.00209"></path>
<path d="M1.860 0.769 Q1.949 0.753 1.938 0.706" stroke="hsl(0.0,100%,35%)" stroke-width="0.00313"></path>
<path d="M1.860 0.769 Q1.865 0.357 1.063 0.264" stroke="hsl(0.0,100%,35%)" stroke-width="0.00209"></path>
<path d="M1.860 0.769 Q1.548 0.439 0.835 0.519" stroke="hsl(0.0,100%,35%)" stroke-width="0.00104"></path>
<path d="M1.860 0.769 Q1.729 0.825 1.810 0.902" stroke="hsl(0.0,100%,35%)" stroke-width="0.00313"></path>
<path d="M1.860 0.769 Q1.371 0.307 0.363 0.445" stroke="hsl(0.0,100%,35%)" stroke-width="0.00104"></path>
<path d="M1.860 0.769 Q1.502 0.330 0.568 0.409" stroke="hsl(0.0,100%,35%)" stroke-width="0.00104"></path>
<path d="M1.860 0.769 Q1.859 0.568 1.467 0.525" stroke="hsl(0.0,100%,35%)" stroke-width="0.00104"></path>
<path d="M0.284 0.086 Q0.219 0.061 0.157 0.087" stroke="hsl(0.0,100%,35%)" stroke-width="0.00104"></path>
<path d="M0.284 0.086 Q0.901 0.546 1.934 0.347" stroke="hsl(0.0,100%,35%)" stroke-width="0.00104"></path>
<path d="M0.284 0.086 Q0.395 0.799 1.810 0.902" stroke="hsl(0.0,100%,35%)" stroke-width="0.00209"></path>
<path d="M1.218 0.661 Q1.458 0.431 1.063 0.264" stroke="hsl(0.0,100%,35%)" stroke-width="0.00104"></path>
<path d="M1.218 0.661 Q1.366 0.681 1.437 0.613" stroke="hsl(0.0,100%,35%)" stroke-width="0.00209"></path>
<path d="M1.218 0.661 Q1.297 0.418 0.840 0.326" stroke="hsl(0.0,100%,35%)" stroke-width="0.00104"></path>
<path d="M1.218 0.661 Q0.730 0.414 0.142 0.598" stroke="hsl(0.0,100%,35%)" stroke-width="0.00104"></path>
<path d="M0.568 0.409 Q0.512 0.322 0.331 0.330" stroke="hsl(0.0,100%,35%)" stroke-width="0.07310"></path>
<path d="M0.568 0.409 Q0.437 0.386 0.363 0.445" stroke="hsl(0.0,100%,35%)" stroke-width="0.01566"></path>
<path d="M0.568 0.409 Q0.367 0.455 0.414 0.564" stroke="hsl(0.0,100%,35%)" stroke-width="0.00522"></path>
<path d="M0.568 0.409 Q0.877 0.505 1.133 0.375" stroke="hsl(0.0,100%,35%)" stroke-width="0.00209"></path>
<path d="M0.568 0.409 Q0.797 0.389 0.809 0.272" stroke="hsl(0.0,100%,35%)" stroke-width="0.00104"></path>
<path d="M0.568 0.409 Q0.406 0.497 0.543 0.596" stroke="hsl(0.0,100%,35%)" stroke-width="0.00104"></path>
<path d="M0.568 0.409 Q0.923 0.285 0.760 0.085" stroke="hsl(0.0,100%,35%)" stroke-width="0.00104"></path>
<path d="M0.568 0.409 Q0.924 0.646 1.467 0.525" stroke="hsl(0.0,100%,35%)" stroke-width="0.00418"></path>
<path d="M0.568 0.409 Q0.770 0.422 0.840 0.326" stroke="hsl(0.0,100%,35%)" stroke-width="0.00522"></path>
<path d="M0.568 0.409 Q1.054 0.570 1.476 0.368" stroke="hsl(0.0,100%,35%)" stroke-width="0.00104"></path>
<path d="M0.568 0.409 Q0.203 0.418 0.142 0.598" stroke="hsl(0.0,100%,35%)" stroke-width="0.00313"></path>
<path d="M0.568 0.409 Q0.794 0.904 1.810 0.902" stroke="hsl(0.0,100%,35%)" stroke-width="0.00418"></path>
<path d="M0.568 0.409 Q1.301 0.651 1.934 0.347" stroke="hsl(0.0,100%,35%)" stroke-width="0.00313"></path>
<path d="M0.568 0.409 Q0.931 0.435 1.063 0.264" stroke="hsl(0.0,100%,35%)" stroke-width="0.00313"></path>
<path d="M0.568 0.409 Q0.470 0.253 0.144 0.266" stroke="hsl(0.0,100%,35%)" stroke-width="0.00209"></path>
<path d="M0.568 0.409 Q0.684 0.191 0.284 0.086" stroke="hsl(0.0,100%,35%)" stroke-width="0.00209"></path>
<path d="M0.568 0.409 Q1.185 0.523 1.544 0.247" stroke="hsl(0.0,100%,35%)" stroke-width="0.00104"></path>
<path d="M0.568 0.409 Q0.536 0.804 1.301 0.906" stroke="hsl(0.0,100%,35%)" stroke-width="0.00104"></path>
<path d="M0.568 0.409 Q0.691 0.665 1.218 0.661" stroke="hsl(0.0,100%,35%)" stroke-width="0.00104"></path>
<path d="M0.144 0.266 Q0.186 0.335 0.331 0.330" stroke="hsl(0.0,100%,35%)" stroke-width="0.02193"></path>
<path d="M0.144 0.266 Q0.365 0.678 1.218 0.661" stroke="hsl(0.0,100%,35%)" stroke-width="0.00104"></path>
<path d="M0.144 0.266 Q0.599 0.660 1.467 0.525" stroke="hsl(0.0,100%,35%)" stroke-width="0.00104"></path>
<path d="M0.144 0.266 Q0.975 0.664 1.934 0.347" stroke="hsl(0.0,100%,35%)" stroke-width="0.00104"></path>
<path d="M0.144 0.266 Q0.471 0.366 0.738 0.229" stroke="hsl(0.0,100%,35%)" stroke-width="0.00104"></path>
<path d="M0.144 0.266 Q0.046 0.298 0.088 0.353" stroke="hsl(0.0,100%,35%)" stroke-width="0.00418"></path>
<path d="M0.144 0.266 Q0.358 0.204 0.284 0.086" stroke="hsl(0.0,100%,35%)" stroke-width="0.00209"></path>
<path d="M0.144 0.266 Q0.551 0.518 1.133 0.375" stroke="hsl(0.0,100%,35%)" stroke-width="0.00104"></path>
<path d="M0.144 0.266 Q0.381 0.361 0.619 0.266" stroke="hsl(0.0,100%,35%)" stroke-width="0.00104"></path>
<path d="M0.144 0.266 Q0.600 0.861 1.860 0.769" stroke="hsl(0.0,100%,35%)" stroke-width="0.00104"></path>
<path d="M0.144 0.266 Q0.041 0.469 0.414 0.564" stroke="hsl(0.0,100%,35%)" stroke-width="0.00313"></path>
<path d="M1.096 0.741 Q1.300 0.482 0.840 0.326" stroke="hsl(0.0,100%,35%)" stroke-width="0.00104"></path>
<path d="M1.096 0.741 Q1.221 0.725 1.218 0.661" stroke="hsl(0.0,100%,35%)" stroke-width="0.00104"></path>
<path d="M1.096 0.741 Q0.733 0.479 0.142 0.598" stroke="hsl(0.0,100%,35%)" stroke-width="0.00104"></path>
<path d="M0.515 0.698 Q0.323 0.704 0.293 0.799" stroke="hsl(0.0,100%,35%)" stroke-width="0.00104"></path>
<path d="M0.515 0.698 Q1.130 0.802 1.467 0.525" stroke="hsl(0.0,100%,35%)" stroke-width="0.00313"></path>
<path d="M0.515 0.698 Q0.471 0.784 0.628 0.824" stroke="hsl(0.0,100%,35%)" stroke-width="0.00313"></path>
<path d="M0.738 0.229 Q0.867 0.723 1.860 0.769" stroke="hsl(0.0,100%,35%)" stroke-width="0.00104"></path>
<path d="M0.738 0.229 Q0.866 0.523 1.467 0.525" stroke="hsl(0.0,100%,35%)" stroke-width="0.00104"></path>
<path d="M0.738 0.229 Q0.736 0.780 1.810 0.902" stroke="hsl(0.0,100%,35%)" stroke-width="0.00209"></path>
<path d="M0.738 0.229 Q1.127 0.399 1.544 0.247" stroke="hsl(0.0,100%,35%)" stroke-width="0.00209"></path>
<path d="M0.738 0.229 Q0.509 0.285 0.568 0.409" stroke="hsl(0.0,100%,35%)" stroke-width="0.00104"></path>
<path d="M0.738 0.229 Q1.139 0.291 1.348 0.109" stroke="hsl(0.0,100%,35%)" stroke-width="0.00104"></path>
<path d="M0.738 0.229 Q0.454 0.198 0.331 0.330" stroke="hsl(0.0,100%,35%)" stroke-width="0.00418"></path>
<path d="M0.619 0.266 Q0.424 0.241 0.331 0.330" stroke="hsl(0.0,100%,35%)" stroke-width="0.00940"></path>
<path d="M0.619 0.266 Q0.382 0.171 0.144 0.266" stroke="hsl(0.0,100%,35%)" stroke-width="0.00104"></path>
<path d="M0.619 0.266 Q0.278 0.374 0.414 0.564" stroke="hsl(0.0,100%,35%)" stroke-width="0.00522"></path>
<path d="M0.619 0.266 Q0.479 0.327 0.568 0.409" stroke="hsl(0.0,100%,35%)" stroke-width="0.00104"></path>
<path d="M0.619 0.266 Q0.348 0.304 0.363 0.445" stroke="hsl(0.0,100%,35%)" stroke-width="0.00104"></path>
<path d="M0.619 0.266 Q0.682 0.340 0.840 0.326" stroke="hsl(0.0,100%,35%)" stroke-width="0.00104"></path>
<path d="M0.502 0.187 Q0.302 0.224 0.331 0.330" stroke="hsl(0.0,100%,35%)" stroke-width="0.05639"></path>
<path d="M0.502 0.187 Q0.259 0.155 0.144 0.266" stroke="hsl(0.0,100%,35%)" stroke-width="0.00940"></path>
<path d="M0.502 0.187 Q0.975 0.425 1.544 0.247" stroke="hsl(0.0,100%,35%)" stroke-width="0.00209"></path>
<path d="M0.502 0.187 Q0.481 0.567 1.218 0.661" stroke="hsl(0.0,100%,35%)" stroke-width="0.00313"></path>
<path d="M0.502 0.187 Q-0.007 0.321 0.142 0.598" stroke="hsl(0.0,100%,35%)" stroke-width="0.00522"></path>
<path d="M0.502 0.187 Q0.226 0.288 0.363 0.445" stroke="hsl(0.0,100%,35%)" stroke-width="0.00835"></path>
<path d="M0.502 0.187 Q0.584 0.806 1.810 0.902" stroke="hsl(0.0,100%,35%)" stroke-width="0.00313"></path>
<path d="M0.502 0.187 Q0.586 0.255 0.738 0.229" stroke="hsl(0.0,100%,35%)" stroke-width="0.00940"></path>
<path d="M0.502 0.187 Q1.090 0.553 1.934 0.347" stroke="hsl(0.0,100%,35%)" stroke-width="0.00209"></path>
<path d="M0.502 0.187 Q-0.077 0.608 0.619 0.983" stroke="hsl(0.0,100%,35%)" stroke-width="0.00418"></path>
<path d="M0.502 0.187 Q0.712 0.188 0.760 0.085" stroke="hsl(0.0,100%,35%)" stroke-width="0.00209"></path>
<path d="M0.502 0.187 Q0.720 0.338 1.063 0.264" stroke="hsl(0.0,100%,35%)" stroke-width="0.01462"></path>
<path d="M0.502 0.187 Q0.473 0.093 0.284 0.086" stroke="hsl(0.0,100%,35%)" stroke-width="0.00209"></path>
<path d="M0.502 0.187 Q0.357 0.311 0.568 0.409" stroke="hsl(0.0,100%,35%)" stroke-width="0.01044"></path>
<path d="M0.502 0.187 Q0.016 0.258 0.048 0.511" stroke="hsl(0.0,100%,35%)" stroke-width="0.00313"></path>
<path d="M0.502 0.187 Q0.497 0.250 0.619 0.266" stroke="hsl(0.0,100%,35%)" stroke-width="0.00418"></path>
<path d="M0.502 0.187 Q0.843 0.472 1.476 0.368" stroke="hsl(0.0,100%,35%)" stroke-width="0.00209"></path>
<path d="M0.502 0.187 Q0.156 0.358 0.414 0.564" stroke="hsl(0.0,100%,35%)" stroke-width="0.00209"></path>
<path d="M0.502 0.187 Q0.714 0.549 1.467 0.525" stroke="hsl(0.0,100%,35%)" stroke-width="0.00522"></path>
<path d="M0.502 0.187 Q0.266 0.534 0.892 0.725" stroke="hsl(0.0,100%,35%)" stroke-width="0.00209"></path>
<path d="M0.502 0.187 Q0.627 0.229 0.738 0.177" stroke="hsl(0.0,100%,35%)" stroke-width="0.00209"></path>
<path d="M0.502 0.187 Q0.715 0.749 1.860 0.769" stroke="hsl(0.0,100%,35%)" stroke-width="0.00313"></path>
<path d="M0.502 0.187 Q0.403 0.419 0.835 0.519" stroke="hsl(0.0,100%,35%)" stroke-width="0.00104"></path>
<path d="M0.502 0.187 Q0.667 0.407 1.133 0.375" stroke="hsl(0.0,100%,35%)" stroke-width="0.00104"></path>
<path d="M0.502 0.187 Q0.744 0.655 1.711 0.640" stroke="hsl(0.0,100%,35%)" stroke-width="0.00104"></path>
<path d="M0.502 0.187 Q0.162 0.187 0.088 0.353" stroke="hsl(0.0,100%,35%)" stroke-width="0.00104"></path>
<path d="M0.140 0.339 Q0.298 0.459 0.568 0.409" stroke="hsl(0.0,100%,35%)" stroke-width="0.00104"></path>
<path d="M0.140 0.339 Q0.242 0.373 0.331 0.330" stroke="hsl(0.0,100%,35%)" stroke-width="0.00209"></path>
<path d="M0.140 0.339 Q0.524 0.954 1.810 0.902" stroke="hsl(0.0,100%,35%)" stroke-width="0.00104"></path>
<path d="M0.053 0.454 Q0.005 0.481 0.048 0.511" stroke="hsl(0.0,100%,35%)" stroke-width="0.01044"></path>
<path d="M0.053 0.454 Q0.216 0.511 0.363 0.445" stroke="hsl(0.0,100%,35%)" stroke-width="0.00940"></path>
<path d="M0.053 0.454 Q1.080 0.776 1.934 0.347" stroke="hsl(0.0,100%,35%)" stroke-width="0.00104"></path>
<path d="M1.643 0.965 Q1.667 0.254 0.284 0.086" stroke="hsl(0.0,100%,35%)" stroke-width="0.00104"></path>
<path d="M1.643 0.965 Q1.778 0.967 1.810 0.902" stroke="hsl(0.0,100%,35%)" stroke-width="0.00209"></path>
<path d="M1.643 0.965 Q1.460 0.695 0.892 0.725" stroke="hsl(0.0,100%,35%)" stroke-width="0.00104"></path>
<path d="M0.722 0.631 Q0.565 0.623 0.515 0.698" stroke="hsl(0.0,100%,35%)" stroke-width="0.00104"></path>
<path d="M0.722 0.631 Q0.767 0.402 0.331 0.330" stroke="hsl(0.0,100%,35%)" stroke-width="0.00104"></path>
<path d="M0.722 0.631 Q1.180 0.727 1.467 0.525" stroke="hsl(0.0,100%,35%)" stroke-width="0.00104"></path>
<path d="M1.469 0.657 Q1.575 0.791 1.860 0.769" stroke="hsl(0.0,100%,35%)" stroke-width="0.00104"></path>
<path d="M1.469 0.657 Q1.505 0.535 1.274 0.490" stroke="hsl(0.0,100%,35%)" stroke-width="0.00209"></path>
<path d="M1.469 0.657 Q1.364 0.692 1.408 0.751" stroke="hsl(0.0,100%,35%)" stroke-width="0.00104"></path>
<path d="M0.549 0.235 Q0.419 0.325 0.568 0.409" stroke="hsl(0.0,100%,35%)" stroke-width="0.00104"></path>
<path d="M0.549 0.235 Q0.364 0.239 0.331 0.330" stroke="hsl(0.0,100%,35%)" stroke-width="0.00104"></path>
<path d="M0.549 0.235 Q0.564 0.201 0.502 0.187" stroke="hsl(0.0,100%,35%)" stroke-width="0.00104"></path>
<path d="M1.721 0.583 Q1.838 0.622 1.938 0.573" stroke="hsl(0.0,100%,35%)" stroke-width="0.00104"></path>
<path d="M1.721 0.583 Q1.641 0.503 1.467 0.525" stroke="hsl(0.0,100%,35%)" stroke-width="0.00418"></path>
<path d="M1.721 0.583 Q0.982 0.485 0.628 0.824" stroke="hsl(0.0,100%,35%)" stroke-width="0.00313"></path>
<path d="M1.721 0.583 Q1.229 0.179 0.331 0.330" stroke="hsl(0.0,100%,35%)" stroke-width="0.00104"></path>
<path d="M1.255 0.838 Q1.526 0.762 1.437 0.613" stroke="hsl(0.0,100%,35%)" stroke-width="0.00104"></path>
<path d="M1.255 0.838 Q1.402 0.825 1.408 0.751" stroke="hsl(0.0,100%,35%)" stroke-width="0.00104"></path>
<path d="M1.255 0.838 Q1.371 0.268 0.284 0.086" stroke="hsl(0.0,100%,35%)" stroke-width="0.00104"></path>
<path d="M0.837 0.073 Q0.379 0.100 0.331 0.330" stroke="hsl(0.0,100%,35%)" stroke-width="0.00418"></path>
<path d="M0.837 0.073 Q0.233 0.234 0.414 0.564" stroke="hsl(0.0,100%,35%)" stroke-width="0.00104"></path>
<path d="M0.837 0.073 Q0.578 0.063 0.502 0.187" stroke="hsl(0.0,100%,35%)" stroke-width="0.00104"></path>
<path d="M0.837 0.073 Q0.000 0.484 0.619 0.983" stroke="hsl(0.0,100%,35%)" stroke-width="0.00209"></path>
<path d="M1.512 0.818 Q1.336 0.819 1.301 0.906" stroke="hsl(0.0,100%,35%)" stroke-width="0.00522"></path>
<path d="M1.512 0.818 Q1.594 0.919 1.810 0.902" stroke="hsl(0.0,100%,35%)" stroke-width="0.00731"></path>
<path d="M1.512 0.818 Q1.677 0.520 1.133 0.375" stroke="hsl(0.0,100%,35%)" stroke-width="0.00104"></path>
<path d="M1.512 0.818 Q1.730 0.451 1.063 0.264" stroke="hsl(0.0,100%,35%)" stroke-width="0.00104"></path>
</g>
<text x="1.938" y="0.564" font-size="0.017444" fill="hsl(0.0,100%,20%)">agpalak</text>
<text x="0.892" y="0.716" font-size="0.017444" fill="hsl(0.0,100%,20%)">guidou</text>
<text x="0.331" y="0.287" font-size="0.085457" fill="hsl(0.0,100%,20%)">hta</text>
<text x="0.619" y="0.970" font-size="0.026298" fill="hsl(0.0,100%,20%)">kron</text>
<text x="1.711" y="0.636" font-size="0.009110" fill="hsl(0.0,100%,20%)">eladalon</text>
<text x="0.840" y="0.315" font-size="0.021686" fill="hsl(0.0,100%,20%)">henrika</text>
<text x="1.467" y="0.509" font-size="0.031557" fill="hsl(0.0,100%,20%)">ilnik</text>
<text x="0.293" y="0.785" font-size="0.029284" fill="hsl(0.0,100%,20%)">apehrson</text>
<text x="0.628" y="0.811" font-size="0.025224" fill="hsl(0.0,100%,20%)">alcooper</text>
<text x="0.414" y="0.546" font-size="0.035672" fill="hsl(0.0,100%,20%)">tommi</text>
<text x="1.869" y="0.225" font-size="0.009110" fill="hsl(0.0,100%,20%)">daniel.l</text>
<text x="1.274" y="0.484" font-size="0.013915" fill="hsl(0.0,100%,20%)">xalep</text>
<text x="0.363" y="0.422" font-size="0.045851" fill="hsl(0.0,100%,20%)">mbonadei</text>
<text x="1.934" y="0.337" font-size="0.018963" fill="hsl(0.0,100%,20%)">terelius</text>
<text x="0.669" y="0.519" font-size="0.013915" fill="hsl(0.0,100%,20%)">danieltwhite</text>
<text x="0.835" y="0.513" font-size="0.011761" fill="hsl(0.0,100%,20%)">kthelgason</text>
<text x="1.476" y="0.349" font-size="0.039359" fill="hsl(0.0,100%,20%)">jleconte</text>
<text x="1.063" y="0.238" font-size="0.052595" fill="hsl(0.0,100%,20%)">danilchap</text>
<text x="1.133" y="0.364" font-size="0.021686" fill="hsl(0.0,100%,20%)">titovartem</text>
<text x="1.639" y="0.704" font-size="0.011761" fill="hsl(0.0,100%,20%)">brandtr</text>
<text x="1.810" y="0.888" font-size="0.027831" fill="hsl(0.0,100%,20%)">sprang</text>
<text x="0.088" y="0.346" font-size="0.012883" fill="hsl(0.0,100%,20%)">samvi</text>
<text x="1.544" y="0.235" font-size="0.022926" fill="hsl(0.0,100%,20%)">philipel</text>
<text x="1.860" y="0.755" font-size="0.026298" fill="hsl(0.0,100%,20%)">ssilkin</text>
<text x="0.284" y="0.075" font-size="0.022314" fill="hsl(0.0,100%,20%)">perkj</text>
<text x="1.218" y="0.649" font-size="0.023521" fill="hsl(0.0,100%,20%)">jakobi</text>
<text x="0.864" y="0.342" font-size="0.005260" fill="hsl(0.0,100%,20%)">saza</text>
<text x="0.568" y="0.375" font-size="0.066320" fill="hsl(0.0,100%,20%)">eshr</text>
<text x="0.809" y="0.270" font-size="0.005260" fill="hsl(0.0,100%,20%)">peterhanspers</text>
<text x="0.543" y="0.593" font-size="0.005260" fill="hsl(0.0,100%,20%)">yinwa</text>
<text x="0.760" y="0.079" font-size="0.011761" fill="hsl(0.0,100%,20%)">boivie</text>
<text x="0.142" y="0.587" font-size="0.021686" fill="hsl(0.0,100%,20%)">peah</text>
<text x="0.144" y="0.248" font-size="0.036817" fill="hsl(0.0,100%,20%)">jonaso</text>
<text x="1.301" y="0.900" font-size="0.012883" fill="hsl(0.0,100%,20%)">linderborg</text>
<text x="1.096" y="0.736" font-size="0.009110" fill="hsl(0.0,100%,20%)">fhernqvist</text>
<text x="0.515" y="0.691" font-size="0.014876" fill="hsl(0.0,100%,20%)">grulja</text>
<text x="0.738" y="0.212" font-size="0.033677" fill="hsl(0.0,100%,20%)">hbos</text>
<text x="1.348" y="0.105" font-size="0.007438" fill="hsl(0.0,100%,20%)">jianlin.qiu</text>
<text x="0.619" y="0.253" font-size="0.025766" fill="hsl(0.0,100%,20%)">solenberg</text>
<text x="1.437" y="0.608" font-size="0.010519" fill="hsl(0.0,100%,20%)">henrik.lundin</text>
<text x="0.502" y="0.154" font-size="0.065902" fill="hsl(0.0,100%,20%)">phancke</text>
<text x="1.697" y="0.430" font-size="0.005260" fill="hsl(0.0,100%,20%)">manashi</text>
<text x="0.048" y="0.501" font-size="0.020370" fill="hsl(0.0,100%,20%)">jansson</text>
<text x="0.140" y="0.333" font-size="0.010519" fill="hsl(0.0,100%,20%)">joachimr</text>
<text x="0.053" y="0.442" font-size="0.023521" fill="hsl(0.0,100%,20%)">jwata</text>
<text x="1.643" y="0.960" font-size="0.010519" fill="hsl(0.0,100%,20%)">lowkey</text>
<text x="0.722" y="0.627" font-size="0.009110" fill="hsl(0.0,100%,20%)">me</text>
<text x="0.157" y="0.085" font-size="0.005260" fill="hsl(0.0,100%,20%)">diepbp</text>
<text x="0.738" y="0.173" font-size="0.007438" fill="hsl(0.0,100%,20%)">gustaf</text>
<text x="1.469" y="0.652" font-size="0.010519" fill="hsl(0.0,100%,20%)">ranvr</text>
<text x="1.408" y="0.747" font-size="0.007438" fill="hsl(0.0,100%,20%)">magjed</text>
<text x="0.549" y="0.230" font-size="0.009110" fill="hsl(0.0,100%,20%)">santoin351</text>
<text x="1.938" y="0.701" font-size="0.009110" fill="hsl(0.0,100%,20%)">asapersson</text>
<text x="1.721" y="0.576" font-size="0.015779" fill="hsl(0.0,100%,20%)">sunggch</text>
<text x="1.255" y="0.834" font-size="0.009110" fill="hsl(0.0,100%,20%)">tomasl</text>
<text x="0.837" y="0.066" font-size="0.014876" fill="hsl(0.0,100%,20%)">tov</text>
<text x="1.512" y="0.808" font-size="0.019679" fill="hsl(0.0,100%,20%)">vardar</text>
</svg>
