<svg width="4000" height="2000" viewBox="-0.025 -0.025 2.05 1.05" xmlns="http://www.w3.org/2000/svg">
  <style>
    path {
      fill: none;
      stroke-linecap: round;
      stroke-opacity: 0.4;
    }

    text {
      text-anchor: middle;
      alignment-baseline: hanging;
    }
  </style>
  <g opacity="0.4">
<path d="M0.268 0.747 Q1.041 0.768 1.252 0.396" stroke="hsl(0.0,100%,35%)" stroke-width="0.02869"></path>
<path d="M0.268 0.747 Q0.178 0.721 0.108 0.759" stroke="hsl(0.0,100%,35%)" stroke-width="0.00410"></path>
<path d="M0.268 0.747 Q0.603 0.799 0.777 0.647" stroke="hsl(0.0,100%,35%)" stroke-width="0.00820"></path>
<path d="M0.268 0.747 Q0.171 0.868 0.386 0.942" stroke="hsl(0.0,100%,35%)" stroke-width="0.01230"></path>
<path d="M0.268 0.747 Q0.385 0.871 0.654 0.841" stroke="hsl(0.0,100%,35%)" stroke-width="0.02049"></path>
<path d="M0.268 0.747 Q0.745 0.806 0.965 0.586" stroke="hsl(0.0,100%,35%)" stroke-width="0.00410"></path>
<path d="M0.268 0.747 Q0.411 0.820 0.586 0.767" stroke="hsl(0.0,100%,35%)" stroke-width="0.00820"></path>
<path d="M0.268 0.747 Q0.735 0.684 0.716 0.443" stroke="hsl(0.0,100%,35%)" stroke-width="0.00820"></path>
<path d="M0.268 0.747 Q0.910 0.462 0.495 0.086" stroke="hsl(0.0,100%,35%)" stroke-width="0.00410"></path>
<path d="M0.268 0.747 Q1.100 0.566 0.929 0.121" stroke="hsl(0.0,100%,35%)" stroke-width="0.00410"></path>
<path d="M0.268 0.747 Q0.279 0.863 0.508 0.884" stroke="hsl(0.0,100%,35%)" stroke-width="0.00410"></path>
<path d="M0.268 0.747 Q0.506 0.726 0.518 0.605" stroke="hsl(0.0,100%,35%)" stroke-width="0.00820"></path>
<path d="M1.252 0.396 Q0.383 0.496 0.386 0.942" stroke="hsl(0.0,100%,35%)" stroke-width="0.01639"></path>
<path d="M1.252 0.396 Q1.163 0.591 1.525 0.678" stroke="hsl(0.0,100%,35%)" stroke-width="0.00820"></path>
<path d="M1.252 0.396 Q1.122 0.090 0.495 0.086" stroke="hsl(0.0,100%,35%)" stroke-width="0.00410"></path>
<path d="M1.252 0.396 Q0.947 0.312 0.716 0.443" stroke="hsl(0.0,100%,35%)" stroke-width="0.00410"></path>
<path d="M0.495 0.086 Q0.626 0.393 1.252 0.396" stroke="hsl(0.0,100%,35%)" stroke-width="0.00820"></path>
<path d="M0.495 0.086 Q0.685 0.190 0.929 0.121" stroke="hsl(0.0,100%,35%)" stroke-width="0.01230"></path>
<path d="M0.495 0.086 Q-0.146 0.371 0.268 0.747" stroke="hsl(0.0,100%,35%)" stroke-width="0.00410"></path>
<path d="M1.729 0.163 Q1.510 0.204 1.541 0.319" stroke="hsl(0.0,100%,35%)" stroke-width="0.00410"></path>
<path d="M1.729 0.163 Q1.305 0.185 1.252 0.396" stroke="hsl(0.0,100%,35%)" stroke-width="0.00410"></path>
<path d="M1.729 0.163 Q1.583 0.044 1.318 0.089" stroke="hsl(0.0,100%,35%)" stroke-width="0.00410"></path>
<path d="M1.729 0.163 Q1.144 0.267 1.218 0.575" stroke="hsl(0.0,100%,35%)" stroke-width="0.00410"></path>
<path d="M1.218 0.575 Q0.606 0.471 0.268 0.747" stroke="hsl(0.0,100%,35%)" stroke-width="0.07377"></path>
<path d="M1.218 0.575 Q1.437 0.290 0.929 0.121" stroke="hsl(0.0,100%,35%)" stroke-width="0.00410"></path>
<path d="M1.218 0.575 Q1.379 0.493 1.252 0.396" stroke="hsl(0.0,100%,35%)" stroke-width="0.13525"></path>
<path d="M1.218 0.575 Q1.803 0.471 1.729 0.163" stroke="hsl(0.0,100%,35%)" stroke-width="0.00410"></path>
<path d="M1.218 0.575 Q1.657 0.352 1.318 0.089" stroke="hsl(0.0,100%,35%)" stroke-width="0.00410"></path>
<path d="M1.218 0.575 Q1.113 0.640 1.217 0.705" stroke="hsl(0.0,100%,35%)" stroke-width="0.00820"></path>
<path d="M1.218 0.575 Q1.236 0.706 1.496 0.726" stroke="hsl(0.0,100%,35%)" stroke-width="0.01230"></path>
<path d="M1.218 0.575 Q1.083 0.530 0.965 0.586" stroke="hsl(0.0,100%,35%)" stroke-width="0.01230"></path>
<path d="M1.218 0.575 Q1.290 0.688 1.525 0.678" stroke="hsl(0.0,100%,35%)" stroke-width="0.00410"></path>
<path d="M1.218 0.575 Q1.142 0.421 0.823 0.424" stroke="hsl(0.0,100%,35%)" stroke-width="0.00820"></path>
<path d="M1.218 0.575 Q0.749 0.545 0.586 0.767" stroke="hsl(0.0,100%,35%)" stroke-width="0.00820"></path>
<path d="M1.218 0.575 Q1.248 0.186 0.495 0.086" stroke="hsl(0.0,100%,35%)" stroke-width="0.00820"></path>
<path d="M1.218 0.575 Q1.220 0.343 0.768 0.291" stroke="hsl(0.0,100%,35%)" stroke-width="0.00410"></path>
<path d="M1.218 0.575 Q1.073 0.408 0.716 0.443" stroke="hsl(0.0,100%,35%)" stroke-width="0.00820"></path>
<path d="M0.489 0.347 Q0.831 0.524 1.252 0.396" stroke="hsl(0.0,100%,35%)" stroke-width="0.00410"></path>
<path d="M0.489 0.347 Q0.297 0.482 0.518 0.605" stroke="hsl(0.0,100%,35%)" stroke-width="0.00410"></path>
<path d="M0.489 0.347 Q0.552 0.274 0.423 0.227" stroke="hsl(0.0,100%,35%)" stroke-width="0.00410"></path>
<path d="M0.489 0.347 Q0.193 0.357 0.148 0.504" stroke="hsl(0.0,100%,35%)" stroke-width="0.00410"></path>
</g>
<text x="0.268" y="0.703" font-size="0.087778" fill="hsl(0.0,100%,20%)">danilchap</text>
<text x="1.252" y="0.350" font-size="0.092329" fill="hsl(0.0,100%,20%)">hta</text>
<text x="0.108" y="0.753" font-size="0.012804" fill="hsl(0.0,100%,20%)">yinwa</text>
<text x="0.777" y="0.638" font-size="0.018107" fill="hsl(0.0,100%,20%)">kthelgason</text>
<text x="0.386" y="0.925" font-size="0.033875" fill="hsl(0.0,100%,20%)">philipel</text>
<text x="0.654" y="0.827" font-size="0.028630" fill="hsl(0.0,100%,20%)">jakobi</text>
<text x="0.965" y="0.573" font-size="0.025607" fill="hsl(0.0,100%,20%)">mbonadei</text>
<text x="0.586" y="0.754" font-size="0.025607" fill="hsl(0.0,100%,20%)">eshr</text>
<text x="0.716" y="0.428" font-size="0.028630" fill="hsl(0.0,100%,20%)">jleconte</text>
<text x="0.495" y="0.066" font-size="0.040489" fill="hsl(0.0,100%,20%)">perkj</text>
<text x="0.929" y="0.106" font-size="0.028630" fill="hsl(0.0,100%,20%)">terelius</text>
<text x="0.508" y="0.877" font-size="0.012804" fill="hsl(0.0,100%,20%)">asapersson</text>
<text x="0.518" y="0.594" font-size="0.022177" fill="hsl(0.0,100%,20%)">jonaso</text>
<text x="1.729" y="0.149" font-size="0.028630" fill="hsl(0.0,100%,20%)">grulja</text>
<text x="1.541" y="0.312" font-size="0.012804" fill="hsl(0.0,100%,20%)">alcooper</text>
<text x="1.318" y="0.080" font-size="0.018107" fill="hsl(0.0,100%,20%)">ilnik</text>
<text x="1.218" y="0.521" font-size="0.109395" fill="hsl(0.0,100%,20%)">phancke</text>
<text x="1.525" y="0.666" font-size="0.022177" fill="hsl(0.0,100%,20%)">tommi</text>
<text x="0.489" y="0.334" font-size="0.025607" fill="hsl(0.0,100%,20%)">joachimr</text>
<text x="0.423" y="0.221" font-size="0.012804" fill="hsl(0.0,100%,20%)">gustaf</text>
<text x="0.148" y="0.497" font-size="0.012804" fill="hsl(0.0,100%,20%)">peah</text>
<text x="1.217" y="0.696" font-size="0.018107" fill="hsl(0.0,100%,20%)">ssilkin</text>
<text x="1.496" y="0.715" font-size="0.022177" fill="hsl(0.0,100%,20%)">guidou</text>
<text x="0.823" y="0.415" font-size="0.018107" fill="hsl(0.0,100%,20%)">samvi</text>
<text x="0.768" y="0.285" font-size="0.012804" fill="hsl(0.0,100%,20%)">sprang</text>
</svg>
