<svg width="4000" height="2000" viewBox="-0.025 -0.025 2.05 1.05" xmlns="http://www.w3.org/2000/svg">
  <style>
    path {
      fill: none;
      stroke-linecap: round;
      stroke-opacity: 0.4;
    }

    text {
      text-anchor: middle;
      alignment-baseline: hanging;
    }
  </style>
  <g opacity="0.4">
<path d="M0.116 0.270 Q0.124 0.324 0.231 0.331" stroke="hsl(0.0,100%,35%)" stroke-width="0.00186"></path>
<path d="M0.116 0.270 Q0.593 0.332 0.817 0.113" stroke="hsl(0.0,100%,35%)" stroke-width="0.00186"></path>
<path d="M0.116 0.270 Q-0.060 0.662 0.666 0.834" stroke="hsl(0.0,100%,35%)" stroke-width="0.00186"></path>
<path d="M0.116 0.270 Q0.223 0.260 0.226 0.206" stroke="hsl(0.0,100%,35%)" stroke-width="0.00186"></path>
<path d="M0.116 0.270 Q0.176 0.456 0.551 0.467" stroke="hsl(0.0,100%,35%)" stroke-width="0.00186"></path>
<path d="M0.116 0.270 Q0.197 0.234 0.143 0.186" stroke="hsl(0.0,100%,35%)" stroke-width="0.00186"></path>
<path d="M0.116 0.270 Q0.216 0.215 0.130 0.154" stroke="hsl(0.0,100%,35%)" stroke-width="0.00186"></path>
<path d="M0.116 0.270 Q0.204 0.243 0.171 0.195" stroke="hsl(0.0,100%,35%)" stroke-width="0.00186"></path>
<path d="M0.551 0.467 Q0.282 0.504 0.295 0.644" stroke="hsl(0.0,100%,35%)" stroke-width="0.01860"></path>
<path d="M0.551 0.467 Q0.491 0.281 0.116 0.270" stroke="hsl(0.0,100%,35%)" stroke-width="0.00558"></path>
<path d="M0.551 0.467 Q0.514 0.510 0.591 0.538" stroke="hsl(0.0,100%,35%)" stroke-width="0.02046"></path>
<path d="M0.551 0.467 Q0.597 0.397 0.471 0.359" stroke="hsl(0.0,100%,35%)" stroke-width="0.01488"></path>
<path d="M0.551 0.467 Q0.366 0.540 0.469 0.647" stroke="hsl(0.0,100%,35%)" stroke-width="0.00186"></path>
<path d="M0.551 0.467 Q0.493 0.793 1.116 0.893" stroke="hsl(0.0,100%,35%)" stroke-width="0.00186"></path>
<path d="M0.260 0.214 Q0.142 0.213 0.116 0.270" stroke="hsl(0.0,100%,35%)" stroke-width="0.00372"></path>
<path d="M0.260 0.214 Q0.203 0.398 0.551 0.467" stroke="hsl(0.0,100%,35%)" stroke-width="0.00186"></path>
<path d="M0.260 0.214 Q0.614 0.237 0.738 0.069" stroke="hsl(0.0,100%,35%)" stroke-width="0.00186"></path>
<path d="M0.738 0.069 Q0.318 0.606 1.272 0.928" stroke="hsl(0.0,100%,35%)" stroke-width="0.00186"></path>
<path d="M0.738 0.069 Q0.644 0.021 0.529 0.056" stroke="hsl(0.0,100%,35%)" stroke-width="0.00372"></path>
<path d="M0.738 0.069 Q0.590 0.064 0.548 0.135" stroke="hsl(0.0,100%,35%)" stroke-width="0.00186"></path>
<path d="M0.999 0.393 Q0.756 0.436 0.788 0.564" stroke="hsl(120.0,100%,35%)" stroke-width="0.01860"></path>
<path d="M0.999 0.393 Q0.908 0.459 1.018 0.518" stroke="hsl(120.0,100%,35%)" stroke-width="0.02046"></path>
<path d="M0.999 0.393 Q0.679 0.384 0.591 0.538" stroke="hsl(120.0,100%,35%)" stroke-width="0.00186"></path>
<path d="M0.999 0.393 Q0.898 0.500 1.085 0.573" stroke="hsl(120.0,100%,35%)" stroke-width="0.00186"></path>
<path d="M0.999 0.393 Q1.001 0.349 0.918 0.338" stroke="hsl(120.0,100%,35%)" stroke-width="0.00186"></path>
<path d="M0.788 0.564 Q1.030 0.520 0.999 0.393" stroke="hsl(120.0,100%,35%)" stroke-width="0.01488"></path>
<path d="M0.788 0.564 Q0.940 0.587 1.018 0.518" stroke="hsl(120.0,100%,35%)" stroke-width="0.03347"></path>
<path d="M0.788 0.564 Q1.065 0.258 0.529 0.056" stroke="hsl(120.0,100%,35%)" stroke-width="0.00558"></path>
<path d="M0.788 0.564 Q0.873 0.526 0.818 0.477" stroke="hsl(120.0,100%,35%)" stroke-width="0.02232"></path>
<path d="M0.788 0.564 Q0.929 0.628 1.085 0.573" stroke="hsl(120.0,100%,35%)" stroke-width="0.00930"></path>
<path d="M0.788 0.564 Q0.856 0.523 0.791 0.481" stroke="hsl(120.0,100%,35%)" stroke-width="0.00186"></path>
<path d="M0.788 0.564 Q0.739 0.843 1.272 0.928" stroke="hsl(120.0,100%,35%)" stroke-width="0.00186"></path>
<path d="M1.018 0.518 Q1.108 0.451 0.999 0.393" stroke="hsl(120.0,100%,35%)" stroke-width="0.04649"></path>
<path d="M1.018 0.518 Q0.866 0.495 0.788 0.564" stroke="hsl(120.0,100%,35%)" stroke-width="0.00744"></path>
<path d="M1.018 0.518 Q0.693 0.715 1.007 0.917" stroke="hsl(120.0,100%,35%)" stroke-width="0.00930"></path>
<path d="M1.018 0.518 Q0.825 0.399 0.551 0.467" stroke="hsl(120.0,100%,35%)" stroke-width="0.00186"></path>
<path d="M1.018 0.518 Q1.143 0.189 0.529 0.056" stroke="hsl(120.0,100%,35%)" stroke-width="0.00558"></path>
<path d="M1.018 0.518 Q0.765 0.213 0.116 0.270" stroke="hsl(120.0,100%,35%)" stroke-width="0.00186"></path>
<path d="M1.018 0.518 Q1.007 0.559 1.085 0.573" stroke="hsl(120.0,100%,35%)" stroke-width="0.00558"></path>
<path d="M1.018 0.518 Q0.951 0.457 0.818 0.477" stroke="hsl(120.0,100%,35%)" stroke-width="0.00186"></path>
<path d="M0.591 0.538 Q0.821 0.613 1.018 0.518" stroke="hsl(0.0,100%,35%)" stroke-width="0.00372"></path>
<path d="M0.591 0.538 Q0.620 0.869 1.272 0.928" stroke="hsl(0.0,100%,35%)" stroke-width="0.00186"></path>
<path d="M0.591 0.538 Q0.952 0.372 0.706 0.159" stroke="hsl(0.0,100%,35%)" stroke-width="0.00186"></path>
<path d="M0.591 0.538 Q0.810 0.654 1.085 0.573" stroke="hsl(0.0,100%,35%)" stroke-width="0.00558"></path>
<path d="M0.591 0.538 Q0.358 0.532 0.295 0.644" stroke="hsl(0.0,100%,35%)" stroke-width="0.00372"></path>
<path d="M0.591 0.538 Q0.572 0.584 0.658 0.604" stroke="hsl(0.0,100%,35%)" stroke-width="0.00186"></path>
<path d="M0.591 0.538 Q0.674 0.424 0.471 0.359" stroke="hsl(0.0,100%,35%)" stroke-width="0.00186"></path>
<path d="M0.591 0.538 Q0.795 0.865 1.478 0.837" stroke="hsl(0.0,100%,35%)" stroke-width="0.00186"></path>
<path d="M0.591 0.538 Q0.334 0.799 0.788 0.982" stroke="hsl(0.0,100%,35%)" stroke-width="0.00186"></path>
<path d="M0.761 0.677 Q0.640 0.603 0.469 0.647" stroke="hsl(120.0,100%,35%)" stroke-width="0.00186"></path>
<path d="M0.761 0.677 Q0.689 0.544 0.413 0.550" stroke="hsl(120.0,100%,35%)" stroke-width="0.00186"></path>
<path d="M0.761 0.677 Q0.715 0.651 0.655 0.668" stroke="hsl(120.0,100%,35%)" stroke-width="0.00186"></path>
<path d="M0.469 0.647 Q0.518 0.587 0.413 0.550" stroke="hsl(120.0,100%,35%)" stroke-width="0.00186"></path>
<path d="M0.469 0.647 Q1.000 0.760 1.338 0.527" stroke="hsl(120.0,100%,35%)" stroke-width="0.00186"></path>
<path d="M0.469 0.647 Q1.335 0.860 1.941 0.484" stroke="hsl(120.0,100%,35%)" stroke-width="0.00186"></path>
<path d="M0.469 0.647 Q0.258 0.643 0.203 0.745" stroke="hsl(120.0,100%,35%)" stroke-width="0.00186"></path>
<path d="M0.413 0.550 Q0.233 0.595 0.282 0.693" stroke="hsl(0.0,100%,35%)" stroke-width="0.00186"></path>
<path d="M0.413 0.550 Q0.862 0.952 1.745 0.821" stroke="hsl(0.0,100%,35%)" stroke-width="0.00186"></path>
<path d="M0.413 0.550 Q0.279 0.574 0.295 0.644" stroke="hsl(0.0,100%,35%)" stroke-width="0.00558"></path>
<path d="M1.766 0.302 Q1.597 0.111 1.187 0.151" stroke="hsl(60.0,100%,35%)" stroke-width="0.01116"></path>
<path d="M1.766 0.302 Q1.746 0.258 1.655 0.258" stroke="hsl(60.0,100%,35%)" stroke-width="0.00372"></path>
<path d="M1.766 0.302 Q1.929 0.279 1.921 0.195" stroke="hsl(60.0,100%,35%)" stroke-width="0.01674"></path>
<path d="M1.766 0.302 Q1.769 0.189 1.548 0.162" stroke="hsl(60.0,100%,35%)" stroke-width="0.00186"></path>
<path d="M1.187 0.151 Q1.356 0.342 1.766 0.302" stroke="hsl(60.0,100%,35%)" stroke-width="0.00372"></path>
<path d="M1.187 0.151 Q1.519 0.320 1.921 0.195" stroke="hsl(60.0,100%,35%)" stroke-width="0.00186"></path>
<path d="M1.187 0.151 Q1.059 0.135 0.999 0.193" stroke="hsl(60.0,100%,35%)" stroke-width="0.00744"></path>
<path d="M1.655 0.258 Q0.734 0.056 0.139 0.461" stroke="hsl(60.0,100%,35%)" stroke-width="0.00186"></path>
<path d="M1.655 0.258 Q1.543 0.026 1.066 0.029" stroke="hsl(60.0,100%,35%)" stroke-width="0.00186"></path>
<path d="M1.655 0.258 Q0.936 0.142 0.551 0.467" stroke="hsl(60.0,100%,35%)" stroke-width="0.00186"></path>
<path d="M1.921 0.195 Q1.760 0.104 1.548 0.162" stroke="hsl(60.0,100%,35%)" stroke-width="0.00186"></path>
<path d="M1.921 0.195 Q1.758 0.217 1.766 0.302" stroke="hsl(60.0,100%,35%)" stroke-width="0.00372"></path>
<path d="M1.921 0.195 Q1.893 0.057 1.619 0.040" stroke="hsl(60.0,100%,35%)" stroke-width="0.00186"></path>
<path d="M1.921 0.195 Q1.737 0.173 1.655 0.258" stroke="hsl(60.0,100%,35%)" stroke-width="0.00372"></path>
<path d="M0.444 0.301 Q0.524 0.303 0.546 0.264" stroke="hsl(0.0,100%,35%)" stroke-width="0.00186"></path>
<path d="M0.444 0.301 Q0.688 0.283 0.706 0.159" stroke="hsl(0.0,100%,35%)" stroke-width="0.00186"></path>
<path d="M0.444 0.301 Q0.318 0.303 0.295 0.365" stroke="hsl(0.0,100%,35%)" stroke-width="0.00186"></path>
<path d="M0.366 0.822 Q0.684 1.007 1.116 0.893" stroke="hsl(180.0,100%,35%)" stroke-width="0.00186"></path>
<path d="M0.366 0.822 Q0.290 0.801 0.233 0.833" stroke="hsl(180.0,100%,35%)" stroke-width="0.00930"></path>
<path d="M0.366 0.822 Q0.824 1.072 1.413 0.903" stroke="hsl(180.0,100%,35%)" stroke-width="0.00372"></path>
<path d="M0.366 0.822 Q0.734 1.056 1.272 0.928" stroke="hsl(180.0,100%,35%)" stroke-width="0.00372"></path>
<path d="M1.272 0.928 Q1.285 0.977 1.384 0.981" stroke="hsl(180.0,100%,35%)" stroke-width="0.00558"></path>
<path d="M1.272 0.928 Q1.358 1.000 1.518 0.975" stroke="hsl(180.0,100%,35%)" stroke-width="0.00930"></path>
<path d="M1.272 0.928 Q1.362 0.943 1.413 0.903" stroke="hsl(180.0,100%,35%)" stroke-width="0.00186"></path>
<path d="M1.927 0.805 Q1.822 0.777 1.745 0.821" stroke="hsl(120.0,100%,35%)" stroke-width="0.00372"></path>
<path d="M1.927 0.805 Q1.789 0.630 1.418 0.659" stroke="hsl(120.0,100%,35%)" stroke-width="0.00186"></path>
<path d="M1.927 0.805 Q1.325 0.729 1.045 1.006" stroke="hsl(120.0,100%,35%)" stroke-width="0.00186"></path>
<path d="M1.745 0.821 Q1.746 0.857 1.816 0.865" stroke="hsl(120.0,100%,35%)" stroke-width="0.00186"></path>
<path d="M1.745 0.821 Q1.849 0.849 1.927 0.805" stroke="hsl(120.0,100%,35%)" stroke-width="0.01116"></path>
<path d="M1.745 0.821 Q1.933 0.803 1.939 0.707" stroke="hsl(120.0,100%,35%)" stroke-width="0.00186"></path>
<path d="M1.745 0.821 Q1.432 0.405 0.551 0.467" stroke="hsl(120.0,100%,35%)" stroke-width="0.00186"></path>
<path d="M1.418 0.659 Q1.505 0.617 1.443 0.566" stroke="hsl(60.0,100%,35%)" stroke-width="0.00558"></path>
<path d="M1.418 0.659 Q1.451 0.679 1.498 0.668" stroke="hsl(60.0,100%,35%)" stroke-width="0.00372"></path>
<path d="M1.418 0.659 Q1.327 0.625 1.240 0.661" stroke="hsl(60.0,100%,35%)" stroke-width="0.00372"></path>
<path d="M1.743 0.057 Q1.724 0.040 1.685 0.046" stroke="hsl(60.0,100%,35%)" stroke-width="0.00186"></path>
<path d="M1.743 0.057 Q1.774 0.061 1.787 0.046" stroke="hsl(60.0,100%,35%)" stroke-width="0.00186"></path>
<path d="M1.743 0.057 Q1.748 0.077 1.786 0.079" stroke="hsl(60.0,100%,35%)" stroke-width="0.00186"></path>
<path d="M1.719 0.680 Q1.845 0.608 1.733 0.531" stroke="hsl(120.0,100%,35%)" stroke-width="0.00558"></path>
<path d="M1.719 0.680 Q1.139 0.193 0.063 0.369" stroke="hsl(120.0,100%,35%)" stroke-width="0.00186"></path>
<path d="M1.719 0.680 Q1.031 0.242 0.026 0.482" stroke="hsl(120.0,100%,35%)" stroke-width="0.00186"></path>
<path d="M1.719 0.680 Q1.693 0.649 1.627 0.655" stroke="hsl(120.0,100%,35%)" stroke-width="0.00186"></path>
<path d="M1.733 0.531 Q1.478 0.734 1.818 0.903" stroke="hsl(120.0,100%,35%)" stroke-width="0.00372"></path>
<path d="M1.733 0.531 Q0.649 0.371 0.100 0.865" stroke="hsl(120.0,100%,35%)" stroke-width="0.00372"></path>
<path d="M1.733 0.531 Q1.141 0.572 1.092 0.870" stroke="hsl(120.0,100%,35%)" stroke-width="0.00186"></path>
<path d="M1.733 0.531 Q0.957 0.469 0.666 0.834" stroke="hsl(120.0,100%,35%)" stroke-width="0.00186"></path>
<path d="M1.733 0.531 Q1.027 0.116 0.063 0.369" stroke="hsl(120.0,100%,35%)" stroke-width="0.00186"></path>
<path d="M1.733 0.531 Q1.607 0.603 1.719 0.680" stroke="hsl(120.0,100%,35%)" stroke-width="0.00744"></path>
<path d="M1.733 0.531 Q1.676 0.515 1.634 0.540" stroke="hsl(120.0,100%,35%)" stroke-width="0.00372"></path>
<path d="M1.733 0.531 Q1.708 0.499 1.641 0.505" stroke="hsl(120.0,100%,35%)" stroke-width="0.00186"></path>
<path d="M1.733 0.531 Q1.747 0.598 1.882 0.606" stroke="hsl(120.0,100%,35%)" stroke-width="0.00372"></path>
<path d="M1.733 0.531 Q1.875 0.549 1.941 0.484" stroke="hsl(120.0,100%,35%)" stroke-width="0.00186"></path>
<path d="M1.733 0.531 Q1.738 0.616 1.906 0.633" stroke="hsl(120.0,100%,35%)" stroke-width="0.00186"></path>
<path d="M1.733 0.531 Q1.506 0.678 1.745 0.821" stroke="hsl(120.0,100%,35%)" stroke-width="0.00186"></path>
<path d="M1.733 0.531 Q1.884 0.547 1.949 0.477" stroke="hsl(120.0,100%,35%)" stroke-width="0.00186"></path>
<path d="M1.733 0.531 Q0.797 0.332 0.203 0.745" stroke="hsl(120.0,100%,35%)" stroke-width="0.00186"></path>
<path d="M0.026 0.482 Q0.099 0.494 0.139 0.461" stroke="hsl(0.0,100%,35%)" stroke-width="0.00372"></path>
<path d="M0.026 0.482 Q0.134 0.433 0.063 0.369" stroke="hsl(0.0,100%,35%)" stroke-width="0.00744"></path>
<path d="M0.026 0.482 Q0.099 0.439 0.033 0.394" stroke="hsl(0.0,100%,35%)" stroke-width="0.00930"></path>
<path d="M0.026 0.482 Q0.007 0.884 0.788 0.982" stroke="hsl(0.0,100%,35%)" stroke-width="0.00186"></path>
<path d="M0.026 0.482 Q0.174 0.485 0.212 0.414" stroke="hsl(0.0,100%,35%)" stroke-width="0.00186"></path>
<path d="M0.026 0.482 Q0.210 0.454 0.197 0.358" stroke="hsl(0.0,100%,35%)" stroke-width="0.00558"></path>
<path d="M0.026 0.482 Q0.972 0.814 1.827 0.425" stroke="hsl(0.0,100%,35%)" stroke-width="0.00186"></path>
<path d="M0.026 0.482 Q0.188 0.473 0.208 0.392" stroke="hsl(0.0,100%,35%)" stroke-width="0.00186"></path>
<path d="M1.350 0.428 Q1.429 0.410 1.412 0.367" stroke="hsl(120.0,100%,35%)" stroke-width="0.00186"></path>
<path d="M1.350 0.428 Q1.319 0.394 1.247 0.402" stroke="hsl(120.0,100%,35%)" stroke-width="0.00186"></path>
<path d="M1.350 0.428 Q1.383 0.465 1.463 0.457" stroke="hsl(120.0,100%,35%)" stroke-width="0.00372"></path>
<path d="M1.350 0.428 Q1.521 0.334 1.376 0.230" stroke="hsl(120.0,100%,35%)" stroke-width="0.00186"></path>
<path d="M1.350 0.428 Q0.861 0.614 1.116 0.893" stroke="hsl(120.0,100%,35%)" stroke-width="0.00186"></path>
<path d="M1.463 0.457 Q1.283 0.332 0.999 0.393" stroke="hsl(0.0,100%,35%)" stroke-width="0.00186"></path>
<path d="M1.463 0.457 Q1.400 0.387 1.247 0.402" stroke="hsl(0.0,100%,35%)" stroke-width="0.00372"></path>
<path d="M1.463 0.457 Q1.579 0.442 1.574 0.382" stroke="hsl(0.0,100%,35%)" stroke-width="0.00186"></path>
<path d="M1.463 0.457 Q1.510 0.402 1.412 0.367" stroke="hsl(0.0,100%,35%)" stroke-width="0.00186"></path>
<path d="M1.376 0.230 Q1.284 0.306 1.412 0.367" stroke="hsl(0.0,100%,35%)" stroke-width="0.01488"></path>
<path d="M1.376 0.230 Q1.354 0.345 1.574 0.382" stroke="hsl(0.0,100%,35%)" stroke-width="0.00930"></path>
<path d="M1.376 0.230 Q1.057 0.236 0.999 0.393" stroke="hsl(0.0,100%,35%)" stroke-width="0.00186"></path>
<path d="M1.376 0.230 Q1.238 0.361 1.463 0.457" stroke="hsl(0.0,100%,35%)" stroke-width="0.00558"></path>
<path d="M0.033 0.394 Q0.182 0.402 0.231 0.331" stroke="hsl(0.0,100%,35%)" stroke-width="0.00186"></path>
<path d="M0.033 0.394 Q0.068 0.388 0.063 0.369" stroke="hsl(0.0,100%,35%)" stroke-width="0.00186"></path>
<path d="M0.033 0.394 Q-0.251 0.589 0.066 0.770" stroke="hsl(0.0,100%,35%)" stroke-width="0.00186"></path>
<path d="M0.295 0.644 Q0.304 0.564 0.149 0.542" stroke="hsl(0.0,100%,35%)" stroke-width="0.01860"></path>
<path d="M0.295 0.644 Q0.565 0.607 0.551 0.467" stroke="hsl(0.0,100%,35%)" stroke-width="0.00930"></path>
<path d="M0.295 0.644 Q0.889 0.484 0.706 0.159" stroke="hsl(0.0,100%,35%)" stroke-width="0.00186"></path>
<path d="M0.295 0.644 Q0.957 0.861 1.526 0.586" stroke="hsl(0.0,100%,35%)" stroke-width="0.00186"></path>
<path d="M0.295 0.644 Q0.611 0.537 0.471 0.359" stroke="hsl(0.0,100%,35%)" stroke-width="0.01488"></path>
<path d="M0.295 0.644 Q0.528 0.650 0.591 0.538" stroke="hsl(0.0,100%,35%)" stroke-width="0.01302"></path>
<path d="M0.295 0.644 Q0.758 0.725 1.018 0.518" stroke="hsl(0.0,100%,35%)" stroke-width="0.00186"></path>
<path d="M0.295 0.644 Q0.647 0.997 1.413 0.903" stroke="hsl(0.0,100%,35%)" stroke-width="0.00186"></path>
<path d="M0.295 0.644 Q0.395 0.717 0.560 0.685" stroke="hsl(0.0,100%,35%)" stroke-width="0.00186"></path>
<path d="M0.471 0.359 Q0.425 0.429 0.551 0.467" stroke="hsl(0.0,100%,35%)" stroke-width="0.00558"></path>
<path d="M0.471 0.359 Q0.592 0.800 1.478 0.837" stroke="hsl(0.0,100%,35%)" stroke-width="0.00744"></path>
<path d="M0.471 0.359 Q0.155 0.467 0.295 0.644" stroke="hsl(0.0,100%,35%)" stroke-width="0.00186"></path>
<path d="M0.471 0.359 Q0.388 0.473 0.591 0.538" stroke="hsl(0.0,100%,35%)" stroke-width="0.00186"></path>
<path d="M0.471 0.359 Q0.131 0.734 0.788 0.982" stroke="hsl(0.0,100%,35%)" stroke-width="0.00186"></path>
<path d="M1.478 0.837 Q1.593 0.368 0.703 0.209" stroke="hsl(120.0,100%,35%)" stroke-width="0.00186"></path>
<path d="M1.478 0.837 Q1.394 0.740 1.186 0.760" stroke="hsl(120.0,100%,35%)" stroke-width="0.00186"></path>
<path d="M1.478 0.837 Q1.388 0.914 1.518 0.975" stroke="hsl(120.0,100%,35%)" stroke-width="0.00186"></path>
<path d="M1.478 0.837 Q1.017 0.771 0.788 0.982" stroke="hsl(120.0,100%,35%)" stroke-width="0.00186"></path>
<path d="M0.788 0.982 Q0.949 0.993 1.007 0.917" stroke="hsl(120.0,100%,35%)" stroke-width="0.00930"></path>
<path d="M0.788 0.982 Q0.897 1.045 1.045 1.006" stroke="hsl(120.0,100%,35%)" stroke-width="0.02417"></path>
<path d="M0.788 0.982 Q0.812 0.714 0.295 0.644" stroke="hsl(120.0,100%,35%)" stroke-width="0.00186"></path>
<path d="M0.788 0.982 Q0.901 0.918 0.801 0.848" stroke="hsl(120.0,100%,35%)" stroke-width="0.00186"></path>
<path d="M0.788 0.982 Q1.752 0.911 1.827 0.425" stroke="hsl(120.0,100%,35%)" stroke-width="0.00186"></path>
<path d="M0.508 0.970 Q1.216 1.199 1.818 0.903" stroke="hsl(120.0,100%,35%)" stroke-width="0.00186"></path>
<path d="M0.508 0.970 Q0.696 0.934 0.666 0.834" stroke="hsl(120.0,100%,35%)" stroke-width="0.00186"></path>
<path d="M0.508 0.970 Q0.478 0.917 0.369 0.920" stroke="hsl(120.0,100%,35%)" stroke-width="0.00186"></path>
<path d="M0.508 0.970 Q0.501 0.970 0.500 0.974" stroke="hsl(120.0,100%,35%)" stroke-width="0.00186"></path>
<path d="M0.508 0.970 Q0.508 0.980 0.527 0.982" stroke="hsl(120.0,100%,35%)" stroke-width="0.00186"></path>
<path d="M0.267 0.959 Q0.292 0.946 0.272 0.931" stroke="hsl(240.0,100%,35%)" stroke-width="0.00186"></path>
<path d="M0.267 0.959 Q0.273 0.967 0.290 0.966" stroke="hsl(240.0,100%,35%)" stroke-width="0.00372"></path>
<path d="M0.267 0.959 Q0.292 0.942 0.264 0.926" stroke="hsl(240.0,100%,35%)" stroke-width="0.00186"></path>
<path d="M1.128 0.257 Q0.995 0.214 0.881 0.269" stroke="hsl(0.0,100%,35%)" stroke-width="0.00558"></path>
<path d="M1.128 0.257 Q1.174 0.128 0.932 0.077" stroke="hsl(0.0,100%,35%)" stroke-width="0.00372"></path>
<path d="M1.128 0.257 Q0.865 0.365 1.018 0.518" stroke="hsl(0.0,100%,35%)" stroke-width="0.00186"></path>
<path d="M0.881 0.269 Q0.242 0.361 0.282 0.693" stroke="hsl(0.0,100%,35%)" stroke-width="0.00186"></path>
<path d="M0.881 0.269 Q0.967 0.300 1.048 0.265" stroke="hsl(0.0,100%,35%)" stroke-width="0.00186"></path>
<path d="M0.881 0.269 Q1.014 0.312 1.128 0.257" stroke="hsl(0.0,100%,35%)" stroke-width="0.00372"></path>
<path d="M0.881 0.269 Q0.506 0.612 1.092 0.870" stroke="hsl(0.0,100%,35%)" stroke-width="0.00558"></path>
<path d="M1.007 0.917 Q0.955 0.969 1.045 1.006" stroke="hsl(120.0,100%,35%)" stroke-width="0.02417"></path>
<path d="M1.007 0.917 Q0.845 0.905 0.788 0.982" stroke="hsl(120.0,100%,35%)" stroke-width="0.00186"></path>
<path d="M1.007 0.917 Q1.087 0.911 1.092 0.870" stroke="hsl(120.0,100%,35%)" stroke-width="0.00744"></path>
<path d="M1.007 0.917 Q1.332 0.719 1.018 0.518" stroke="hsl(120.0,100%,35%)" stroke-width="0.00744"></path>
<path d="M1.007 0.917 Q1.550 0.439 0.738 0.069" stroke="hsl(120.0,100%,35%)" stroke-width="0.00186"></path>
<path d="M1.007 0.917 Q1.321 0.760 1.085 0.573" stroke="hsl(120.0,100%,35%)" stroke-width="0.00372"></path>
<path d="M1.007 0.917 Q1.081 0.926 1.116 0.893" stroke="hsl(120.0,100%,35%)" stroke-width="0.00558"></path>
<path d="M1.007 0.917 Q1.422 0.653 0.999 0.393" stroke="hsl(120.0,100%,35%)" stroke-width="0.00186"></path>
<path d="M0.529 0.056 Q0.476 0.099 0.548 0.135" stroke="hsl(0.0,100%,35%)" stroke-width="0.01674"></path>
<path d="M0.529 0.056 Q0.535 0.143 0.706 0.159" stroke="hsl(0.0,100%,35%)" stroke-width="0.01302"></path>
<path d="M0.529 0.056 Q-0.063 0.168 0.026 0.482" stroke="hsl(0.0,100%,35%)" stroke-width="0.00558"></path>
<path d="M0.529 0.056 Q0.623 0.104 0.738 0.069" stroke="hsl(0.0,100%,35%)" stroke-width="0.00558"></path>
<path d="M0.529 0.056 Q0.594 0.120 0.733 0.102" stroke="hsl(0.0,100%,35%)" stroke-width="0.00186"></path>
<path d="M0.529 0.056 Q0.494 0.167 0.703 0.209" stroke="hsl(0.0,100%,35%)" stroke-width="0.00558"></path>
<path d="M0.529 0.056 Q0.621 0.264 1.048 0.265" stroke="hsl(0.0,100%,35%)" stroke-width="0.00186"></path>
<path d="M0.529 0.056 Q0.628 0.142 0.817 0.113" stroke="hsl(0.0,100%,35%)" stroke-width="0.00186"></path>
<path d="M0.529 0.056 Q0.486 0.070 0.504 0.094" stroke="hsl(0.0,100%,35%)" stroke-width="0.00744"></path>
<path d="M0.529 0.056 Q0.535 0.233 0.881 0.269" stroke="hsl(0.0,100%,35%)" stroke-width="0.00744"></path>
<path d="M0.529 0.056 Q0.371 0.163 0.546 0.264" stroke="hsl(0.0,100%,35%)" stroke-width="0.00186"></path>
<path d="M0.529 0.056 Q0.513 0.119 0.632 0.140" stroke="hsl(0.0,100%,35%)" stroke-width="0.00558"></path>
<path d="M0.529 0.056 Q0.621 0.145 0.814 0.119" stroke="hsl(0.0,100%,35%)" stroke-width="0.00558"></path>
<path d="M0.899 0.758 Q0.979 0.724 0.929 0.677" stroke="hsl(120.0,100%,35%)" stroke-width="0.00372"></path>
<path d="M0.899 0.758 Q0.900 0.869 1.116 0.893" stroke="hsl(120.0,100%,35%)" stroke-width="0.00186"></path>
<path d="M0.899 0.758 Q0.852 0.710 0.748 0.723" stroke="hsl(120.0,100%,35%)" stroke-width="0.00186"></path>
<path d="M1.956 0.417 Q1.873 0.371 1.765 0.402" stroke="hsl(60.0,100%,35%)" stroke-width="0.00186"></path>
<path d="M1.956 0.417 Q1.959 0.402 1.930 0.397" stroke="hsl(60.0,100%,35%)" stroke-width="0.00186"></path>
<path d="M1.956 0.417 Q1.895 0.447 1.941 0.484" stroke="hsl(60.0,100%,35%)" stroke-width="0.00186"></path>
<path d="M1.956 0.417 Q1.885 0.395 1.827 0.425" stroke="hsl(60.0,100%,35%)" stroke-width="0.00186"></path>
<path d="M0.884 0.171 Q0.937 0.263 1.128 0.257" stroke="hsl(0.0,100%,35%)" stroke-width="0.00186"></path>
<path d="M0.884 0.171 Q0.983 0.133 0.932 0.077" stroke="hsl(0.0,100%,35%)" stroke-width="0.00372"></path>
<path d="M0.884 0.171 Q0.926 0.192 0.976 0.176" stroke="hsl(0.0,100%,35%)" stroke-width="0.00186"></path>
<path d="M0.185 0.086 Q0.239 0.085 0.249 0.058" stroke="hsl(0.0,100%,35%)" stroke-width="0.00372"></path>
<path d="M0.185 0.086 Q0.026 0.393 0.591 0.538" stroke="hsl(0.0,100%,35%)" stroke-width="0.00186"></path>
<path d="M0.185 0.086 Q0.144 0.091 0.145 0.112" stroke="hsl(0.0,100%,35%)" stroke-width="0.00186"></path>
<path d="M0.149 0.542 Q0.603 0.704 1.018 0.518" stroke="hsl(0.0,100%,35%)" stroke-width="0.00372"></path>
<path d="M0.149 0.542 Q0.141 0.622 0.295 0.644" stroke="hsl(0.0,100%,35%)" stroke-width="0.01488"></path>
<path d="M0.149 0.542 Q0.990 0.747 1.574 0.382" stroke="hsl(0.0,100%,35%)" stroke-width="0.00372"></path>
<path d="M0.149 0.542 Q0.734 0.552 0.881 0.269" stroke="hsl(0.0,100%,35%)" stroke-width="0.00372"></path>
<path d="M0.149 0.542 Q0.593 0.745 1.085 0.573" stroke="hsl(0.0,100%,35%)" stroke-width="0.00186"></path>
<path d="M0.149 0.542 Q0.350 0.400 0.116 0.270" stroke="hsl(0.0,100%,35%)" stroke-width="0.00372"></path>
<path d="M0.149 0.542 Q0.275 0.599 0.413 0.550" stroke="hsl(0.0,100%,35%)" stroke-width="0.00186"></path>
<path d="M1.066 0.029 Q1.413 0.182 1.787 0.046" stroke="hsl(60.0,100%,35%)" stroke-width="0.00186"></path>
<path d="M1.066 0.029 Q0.741 0.047 0.703 0.209" stroke="hsl(60.0,100%,35%)" stroke-width="0.00186"></path>
<path d="M1.066 0.029 Q0.901 0.098 0.999 0.193" stroke="hsl(60.0,100%,35%)" stroke-width="0.00186"></path>
<path d="M1.066 0.029 Q0.274 0.514 1.045 1.006" stroke="hsl(60.0,100%,35%)" stroke-width="0.00186"></path>
<path d="M1.066 0.029 Q1.178 0.261 1.655 0.258" stroke="hsl(60.0,100%,35%)" stroke-width="0.00186"></path>
<path d="M1.066 0.029 Q0.189 0.183 0.295 0.644" stroke="hsl(60.0,100%,35%)" stroke-width="0.00372"></path>
<path d="M1.066 0.029 Q1.013 0.015 0.974 0.038" stroke="hsl(60.0,100%,35%)" stroke-width="0.00186"></path>
<path d="M1.066 0.029 Q0.965 0.044 0.971 0.096" stroke="hsl(60.0,100%,35%)" stroke-width="0.00186"></path>
<path d="M0.379 0.193 Q0.369 0.152 0.287 0.148" stroke="hsl(60.0,100%,35%)" stroke-width="0.00744"></path>
<path d="M0.379 0.193 Q0.419 0.255 0.549 0.249" stroke="hsl(60.0,100%,35%)" stroke-width="0.00186"></path>
<path d="M0.379 0.193 Q0.853 0.248 1.066 0.029" stroke="hsl(60.0,100%,35%)" stroke-width="0.00186"></path>
<path d="M0.379 0.193 Q0.405 0.233 0.489 0.229" stroke="hsl(60.0,100%,35%)" stroke-width="0.00186"></path>
<path d="M1.756 0.114 Q1.611 0.210 1.766 0.302" stroke="hsl(60.0,100%,35%)" stroke-width="0.00186"></path>
<path d="M1.756 0.114 Q1.774 0.187 1.921 0.195" stroke="hsl(60.0,100%,35%)" stroke-width="0.00930"></path>
<path d="M1.756 0.114 Q1.314 0.002 0.999 0.193" stroke="hsl(60.0,100%,35%)" stroke-width="0.00558"></path>
<path d="M1.756 0.114 Q1.442 0.019 1.187 0.151" stroke="hsl(60.0,100%,35%)" stroke-width="0.00186"></path>
<path d="M1.574 0.382 Q1.187 0.338 1.018 0.518" stroke="hsl(0.0,100%,35%)" stroke-width="0.00372"></path>
<path d="M1.574 0.382 Q1.451 0.230 1.128 0.257" stroke="hsl(0.0,100%,35%)" stroke-width="0.00372"></path>
<path d="M1.574 0.382 Q0.958 0.263 0.591 0.538" stroke="hsl(0.0,100%,35%)" stroke-width="0.00186"></path>
<path d="M1.574 0.382 Q1.505 0.342 1.412 0.367" stroke="hsl(0.0,100%,35%)" stroke-width="0.00186"></path>
<path d="M1.518 0.975 Q0.989 0.647 0.233 0.833" stroke="hsl(180.0,100%,35%)" stroke-width="0.00186"></path>
<path d="M1.518 0.975 Q1.433 0.902 1.272 0.928" stroke="hsl(180.0,100%,35%)" stroke-width="0.00558"></path>
<path d="M1.518 0.975 Q1.523 0.918 1.413 0.903" stroke="hsl(180.0,100%,35%)" stroke-width="0.00372"></path>
<path d="M1.632 0.074 Q1.520 0.102 1.548 0.162" stroke="hsl(60.0,100%,35%)" stroke-width="0.00558"></path>
<path d="M1.632 0.074 Q1.680 0.192 1.921 0.195" stroke="hsl(60.0,100%,35%)" stroke-width="0.00930"></path>
<path d="M1.632 0.074 Q1.653 0.054 1.619 0.040" stroke="hsl(60.0,100%,35%)" stroke-width="0.00558"></path>
<path d="M1.632 0.074 Q1.517 0.215 1.766 0.302" stroke="hsl(60.0,100%,35%)" stroke-width="0.00186"></path>
<path d="M1.302 0.560 Q1.350 0.547 1.336 0.521" stroke="hsl(60.0,100%,35%)" stroke-width="0.00186"></path>
<path d="M1.302 0.560 Q1.720 0.479 1.655 0.258" stroke="hsl(60.0,100%,35%)" stroke-width="0.00186"></path>
<path d="M1.302 0.560 Q1.346 0.550 1.338 0.527" stroke="hsl(60.0,100%,35%)" stroke-width="0.00186"></path>
<path d="M1.302 0.560 Q1.367 0.591 1.443 0.566" stroke="hsl(60.0,100%,35%)" stroke-width="0.00186"></path>
<path d="M1.302 0.560 Q1.313 0.653 1.498 0.668" stroke="hsl(60.0,100%,35%)" stroke-width="0.00186"></path>
<path d="M0.172 0.897 Q0.162 0.866 0.100 0.865" stroke="hsl(120.0,100%,35%)" stroke-width="0.00930"></path>
<path d="M0.172 0.897 Q0.659 0.656 0.295 0.365" stroke="hsl(120.0,100%,35%)" stroke-width="0.00186"></path>
<path d="M0.172 0.897 Q0.144 0.897 0.137 0.910" stroke="hsl(120.0,100%,35%)" stroke-width="0.00186"></path>
<path d="M1.753 0.219 Q1.856 0.240 1.921 0.195" stroke="hsl(60.0,100%,35%)" stroke-width="0.00372"></path>
<path d="M1.753 0.219 Q1.695 0.150 1.548 0.162" stroke="hsl(60.0,100%,35%)" stroke-width="0.00186"></path>
<path d="M1.753 0.219 Q1.673 0.219 1.655 0.258" stroke="hsl(60.0,100%,35%)" stroke-width="0.00186"></path>
<path d="M1.953 0.667 Q1.914 0.684 1.939 0.707" stroke="hsl(0.0,100%,35%)" stroke-width="0.00186"></path>
<path d="M1.953 0.667 Q1.974 0.641 1.928 0.625" stroke="hsl(0.0,100%,35%)" stroke-width="0.00186"></path>
<path d="M1.953 0.667 Q1.726 0.703 1.745 0.821" stroke="hsl(0.0,100%,35%)" stroke-width="0.00186"></path>
<path d="M1.953 0.667 Q1.874 0.677 1.876 0.718" stroke="hsl(0.0,100%,35%)" stroke-width="0.00186"></path>
<path d="M1.953 0.667 Q2.040 0.620 1.966 0.567" stroke="hsl(0.0,100%,35%)" stroke-width="0.00186"></path>
<path d="M1.953 0.667 Q1.119 0.591 0.788 0.982" stroke="hsl(0.0,100%,35%)" stroke-width="0.00186"></path>
<path d="M1.155 0.676 Q1.103 0.724 1.186 0.760" stroke="hsl(120.0,100%,35%)" stroke-width="0.00186"></path>
<path d="M1.155 0.676 Q1.188 0.821 1.478 0.837" stroke="hsl(120.0,100%,35%)" stroke-width="0.00186"></path>
<path d="M1.155 0.676 Q0.727 0.755 0.788 0.982" stroke="hsl(120.0,100%,35%)" stroke-width="0.00372"></path>
<path d="M1.155 0.676 Q1.205 0.716 1.295 0.701" stroke="hsl(120.0,100%,35%)" stroke-width="0.00186"></path>
<path d="M0.423 0.948 Q0.448 0.976 0.508 0.970" stroke="hsl(120.0,100%,35%)" stroke-width="0.00372"></path>
<path d="M0.423 0.948 Q0.649 0.924 0.651 0.808" stroke="hsl(120.0,100%,35%)" stroke-width="0.00186"></path>
<path d="M0.423 0.948 Q0.475 0.934 0.459 0.905" stroke="hsl(120.0,100%,35%)" stroke-width="0.00186"></path>
<path d="M0.423 0.948 Q1.155 0.786 0.999 0.393" stroke="hsl(120.0,100%,35%)" stroke-width="0.00186"></path>
<path d="M0.423 0.948 Q0.568 0.959 0.622 0.891" stroke="hsl(120.0,100%,35%)" stroke-width="0.00558"></path>
<path d="M0.622 0.891 Q0.529 0.865 0.459 0.905" stroke="hsl(120.0,100%,35%)" stroke-width="0.00372"></path>
<path d="M0.622 0.891 Q0.502 0.908 0.508 0.970" stroke="hsl(120.0,100%,35%)" stroke-width="0.00558"></path>
<path d="M0.622 0.891 Q0.477 0.880 0.423 0.948" stroke="hsl(120.0,100%,35%)" stroke-width="0.00372"></path>
<path d="M1.728 0.962 Q1.820 0.950 1.818 0.903" stroke="hsl(120.0,100%,35%)" stroke-width="0.00372"></path>
<path d="M1.728 0.962 Q1.619 0.753 1.186 0.760" stroke="hsl(120.0,100%,35%)" stroke-width="0.00186"></path>
<path d="M1.728 0.962 Q1.242 0.784 0.788 0.982" stroke="hsl(120.0,100%,35%)" stroke-width="0.00372"></path>
<path d="M1.728 0.962 Q1.745 0.956 1.737 0.947" stroke="hsl(120.0,100%,35%)" stroke-width="0.00186"></path>
<path d="M1.728 0.962 Q1.400 0.493 0.413 0.550" stroke="hsl(120.0,100%,35%)" stroke-width="0.00186"></path>
<path d="M1.728 0.962 Q1.723 0.942 1.683 0.940" stroke="hsl(120.0,100%,35%)" stroke-width="0.00186"></path>
<path d="M1.628 0.151 Q1.739 0.231 1.921 0.195" stroke="hsl(60.0,100%,35%)" stroke-width="0.00744"></path>
<path d="M1.628 0.151 Q1.712 0.094 1.619 0.040" stroke="hsl(60.0,100%,35%)" stroke-width="0.00186"></path>
<path d="M1.628 0.151 Q1.579 0.141 1.548 0.162" stroke="hsl(60.0,100%,35%)" stroke-width="0.00372"></path>
<path d="M1.628 0.151 Q1.576 0.254 1.766 0.302" stroke="hsl(60.0,100%,35%)" stroke-width="0.00372"></path>
<path d="M1.628 0.151 Q1.556 0.210 1.655 0.258" stroke="hsl(60.0,100%,35%)" stroke-width="0.00186"></path>
<path d="M0.077 0.679 Q0.064 0.722 0.145 0.738" stroke="hsl(300.0,100%,35%)" stroke-width="0.00558"></path>
<path d="M0.077 0.679 Q0.120 0.629 0.033 0.598" stroke="hsl(300.0,100%,35%)" stroke-width="0.00930"></path>
<path d="M0.077 0.679 Q0.052 0.683 0.055 0.696" stroke="hsl(300.0,100%,35%)" stroke-width="0.00558"></path>
<path d="M0.066 0.801 Q0.702 0.790 0.818 0.477" stroke="hsl(60.0,100%,35%)" stroke-width="0.00186"></path>
<path d="M0.066 0.801 Q1.247 0.966 1.827 0.425" stroke="hsl(60.0,100%,35%)" stroke-width="0.00186"></path>
<path d="M0.066 0.801 Q0.091 0.786 0.066 0.770" stroke="hsl(60.0,100%,35%)" stroke-width="0.00186"></path>
<path d="M1.344 0.772 Q1.275 0.735 1.186 0.760" stroke="hsl(120.0,100%,35%)" stroke-width="0.00186"></path>
<path d="M1.344 0.772 Q1.359 0.832 1.478 0.837" stroke="hsl(120.0,100%,35%)" stroke-width="0.00744"></path>
<path d="M1.344 0.772 Q0.898 0.766 0.788 0.982" stroke="hsl(120.0,100%,35%)" stroke-width="0.00372"></path>
<path d="M1.344 0.772 Q1.008 0.830 1.045 1.006" stroke="hsl(120.0,100%,35%)" stroke-width="0.00372"></path>
<path d="M0.567 0.738 Q0.506 0.636 0.295 0.644" stroke="hsl(0.0,100%,35%)" stroke-width="0.00558"></path>
<path d="M0.567 0.738 Q0.512 0.750 0.524 0.780" stroke="hsl(0.0,100%,35%)" stroke-width="0.00930"></path>
<path d="M0.567 0.738 Q0.470 0.703 0.380 0.742" stroke="hsl(0.0,100%,35%)" stroke-width="0.00186"></path>
<path d="M1.566 0.570 Q1.532 0.570 1.526 0.586" stroke="hsl(0.0,100%,35%)" stroke-width="0.00186"></path>
<path d="M1.566 0.570 Q1.630 0.539 1.584 0.500" stroke="hsl(0.0,100%,35%)" stroke-width="0.00186"></path>
<path d="M1.566 0.570 Q1.695 0.651 1.882 0.606" stroke="hsl(0.0,100%,35%)" stroke-width="0.00186"></path>
<path d="M0.291 0.421 Q0.384 0.496 0.551 0.467" stroke="hsl(0.0,100%,35%)" stroke-width="0.00186"></path>
<path d="M0.291 0.421 Q0.123 0.453 0.149 0.542" stroke="hsl(0.0,100%,35%)" stroke-width="0.00186"></path>
<path d="M0.291 0.421 Q0.115 0.533 0.295 0.644" stroke="hsl(0.0,100%,35%)" stroke-width="0.00372"></path>
<path d="M1.555 0.717 Q1.545 0.742 1.593 0.753" stroke="hsl(0.0,100%,35%)" stroke-width="0.00558"></path>
<path d="M1.555 0.717 Q1.742 0.614 1.584 0.500" stroke="hsl(0.0,100%,35%)" stroke-width="0.00186"></path>
<path d="M1.555 0.717 Q1.560 0.729 1.585 0.729" stroke="hsl(0.0,100%,35%)" stroke-width="0.00186"></path>
</g>
<text x="0.116" y="0.260" font-size="0.021427" fill="hsl(0.0,100%,20%)">aleventhal</text>
<text x="0.231" y="0.328" font-size="0.007576" fill="hsl(60.0,100%,20%)">alexmos</text>
<text x="0.817" y="0.109" font-size="0.007576" fill="hsl(0.0,100%,20%)">chrishtr</text>
<text x="0.666" y="0.829" font-size="0.009278" fill="hsl(120.0,100%,20%)">dcheng</text>
<text x="0.226" y="0.203" font-size="0.005357" fill="hsl(0.0,100%,20%)">dpapad</text>
<text x="0.551" y="0.448" font-size="0.037112" fill="hsl(0.0,100%,20%)">masonf</text>
<text x="0.143" y="0.183" font-size="0.005357" fill="hsl(0.0,100%,20%)">thakis</text>
<text x="0.130" y="0.151" font-size="0.005357" fill="hsl(0.0,100%,20%)">torne</text>
<text x="0.171" y="0.192" font-size="0.005357" fill="hsl(0.0,100%,20%)">zork</text>
<text x="0.260" y="0.208" font-size="0.010713" fill="hsl(0.0,100%,20%)">alice</text>
<text x="0.738" y="0.061" font-size="0.016070" fill="hsl(0.0,100%,20%)">vmpstr</text>
<text x="0.999" y="0.372" font-size="0.041837" fill="hsl(120.0,100%,20%)">andruud</text>
<text x="0.788" y="0.543" font-size="0.042179" fill="hsl(120.0,100%,20%)">sesse</text>
<text x="1.018" y="0.493" font-size="0.049095" fill="hsl(120.0,100%,20%)">futhark</text>
<text x="0.591" y="0.522" font-size="0.031691" fill="hsl(0.0,100%,20%)">dbaron</text>
<text x="1.085" y="0.562" font-size="0.020746" fill="hsl(120.0,100%,20%)">sakhapov</text>
<text x="0.918" y="0.336" font-size="0.005357" fill="hsl(120.0,100%,20%)">blee</text>
<text x="0.761" y="0.672" font-size="0.009278" fill="hsl(120.0,100%,20%)">apaseltiner</text>
<text x="0.469" y="0.640" font-size="0.013121" fill="hsl(120.0,100%,20%)">domenic</text>
<text x="0.413" y="0.542" font-size="0.016070" fill="hsl(0.0,100%,20%)">japhet</text>
<text x="0.655" y="0.666" font-size="0.005357" fill="hsl(120.0,100%,20%)">johnidel</text>
<text x="1.766" y="0.288" font-size="0.027314" fill="hsl(60.0,100%,20%)">asully</text>
<text x="1.187" y="0.141" font-size="0.020043" fill="hsl(60.0,100%,20%)">phillis</text>
<text x="1.655" y="0.249" font-size="0.017766" fill="hsl(60.0,100%,20%)">weizhong</text>
<text x="1.921" y="0.179" font-size="0.030302" fill="hsl(60.0,100%,20%)">ningxin.hu</text>
<text x="1.548" y="0.155" font-size="0.015151" fill="hsl(60.0,100%,20%)">ajgo</text>
<text x="0.444" y="0.296" font-size="0.009278" fill="hsl(0.0,100%,20%)">averge</text>
<text x="0.546" y="0.260" font-size="0.007576" fill="hsl(120.0,100%,20%)">arthursonzogni</text>
<text x="0.706" y="0.151" font-size="0.016939" fill="hsl(0.0,100%,20%)">dom</text>
<text x="0.295" y="0.361" font-size="0.007576" fill="hsl(120.0,100%,20%)">lbrady</text>
<text x="0.366" y="0.813" font-size="0.016939" fill="hsl(180.0,100%,20%)">awogbemila</text>
<text x="1.116" y="0.886" font-size="0.014173" fill="hsl(120.0,100%,20%)">ikilpatrick</text>
<text x="0.233" y="0.827" font-size="0.013121" fill="hsl(180.0,100%,20%)">skobes</text>
<text x="1.413" y="0.896" font-size="0.013121" fill="hsl(180.0,100%,20%)">flackr</text>
<text x="1.272" y="0.917" font-size="0.022086" fill="hsl(180.0,100%,20%)">kevers</text>
<text x="1.927" y="0.796" font-size="0.016939" fill="hsl(120.0,100%,20%)">behamilton</text>
<text x="1.745" y="0.811" font-size="0.020043" fill="hsl(120.0,100%,20%)">morlovich</text>
<text x="1.418" y="0.651" font-size="0.015151" fill="hsl(60.0,100%,20%)">caraitto</text>
<text x="1.045" y="0.992" font-size="0.029340" fill="hsl(120.0,100%,20%)">kojii</text>
<text x="1.743" y="0.053" font-size="0.009278" fill="hsl(60.0,100%,20%)">brandstrom</text>
<text x="1.685" y="0.043" font-size="0.005357" fill="hsl(0.0,100%,20%)">hbos</text>
<text x="1.787" y="0.043" font-size="0.007576" fill="hsl(60.0,100%,20%)">hta</text>
<text x="1.786" y="0.076" font-size="0.005357" fill="hsl(0.0,100%,20%)">kron</text>
<text x="1.719" y="0.672" font-size="0.016939" fill="hsl(120.0,100%,20%)">cammie</text>
<text x="1.733" y="0.518" font-size="0.026242" fill="hsl(120.0,100%,20%)">yaoxia</text>
<text x="0.063" y="0.362" font-size="0.014173" fill="hsl(0.0,100%,20%)">bashi</text>
<text x="0.026" y="0.469" font-size="0.025125" fill="hsl(0.0,100%,20%)">mkwst</text>
<text x="1.627" y="0.653" font-size="0.005357" fill="hsl(0.0,100%,20%)">wanderview</text>
<text x="1.443" y="0.560" font-size="0.010713" fill="hsl(60.0,100%,20%)">miketaylr</text>
<text x="1.498" y="0.663" font-size="0.009278" fill="hsl(60.0,100%,20%)">orrb</text>
<text x="1.240" y="0.658" font-size="0.007576" fill="hsl(60.0,100%,20%)">tiszka</text>
<text x="1.350" y="0.421" font-size="0.013121" fill="hsl(120.0,100%,20%)">celestepan</text>
<text x="1.412" y="0.358" font-size="0.017766" fill="hsl(0.0,100%,20%)">almaher</text>
<text x="1.247" y="0.397" font-size="0.009278" fill="hsl(0.0,100%,20%)">ethavar</text>
<text x="1.463" y="0.449" font-size="0.016939" fill="hsl(0.0,100%,20%)">kschmi</text>
<text x="1.376" y="0.219" font-size="0.022727" fill="hsl(0.0,100%,20%)">samomekarajr</text>
<text x="0.033" y="0.387" font-size="0.015151" fill="hsl(0.0,100%,20%)">clamy</text>
<text x="0.066" y="0.766" font-size="0.007576" fill="hsl(60.0,100%,20%)">yyanagisawa</text>
<text x="0.295" y="0.622" font-size="0.043847" fill="hsl(0.0,100%,20%)">jarhar</text>
<text x="0.658" y="0.601" font-size="0.005357" fill="hsl(0.0,100%,20%)">npm</text>
<text x="0.471" y="0.345" font-size="0.027834" fill="hsl(0.0,100%,20%)">dizhangg</text>
<text x="1.478" y="0.827" font-size="0.020043" fill="hsl(120.0,100%,20%)">siliu</text>
<text x="0.788" y="0.966" font-size="0.030772" fill="hsl(120.0,100%,20%)">tkent</text>
<text x="1.338" y="0.523" font-size="0.007576" fill="hsl(60.0,100%,20%)">nhiroki</text>
<text x="1.941" y="0.479" font-size="0.009278" fill="hsl(60.0,100%,20%)">rakina</text>
<text x="0.203" y="0.741" font-size="0.007576" fill="hsl(120.0,100%,20%)">ricea</text>
<text x="0.508" y="0.962" font-size="0.016939" fill="hsl(120.0,100%,20%)">estade</text>
<text x="1.818" y="0.897" font-size="0.011978" fill="hsl(120.0,100%,20%)">ayui</text>
<text x="0.369" y="0.918" font-size="0.005357" fill="hsl(120.0,100%,20%)">dgozman</text>
<text x="0.500" y="0.971" font-size="0.005357" fill="hsl(120.0,100%,20%)">grt</text>
<text x="0.527" y="0.979" font-size="0.005357" fill="hsl(120.0,100%,20%)">senorblanco</text>
<text x="0.267" y="0.953" font-size="0.010713" fill="hsl(240.0,100%,20%)">fgm</text>
<text x="0.272" y="0.928" font-size="0.005357" fill="hsl(240.0,100%,20%)">ahaas</text>
<text x="0.290" y="0.962" font-size="0.007576" fill="hsl(240.0,100%,20%)">syg</text>
<text x="0.264" y="0.924" font-size="0.005357" fill="hsl(240.0,100%,20%)">dschuff</text>
<text x="1.128" y="0.248" font-size="0.017766" fill="hsl(0.0,100%,20%)">fs</text>
<text x="0.881" y="0.258" font-size="0.021427" fill="hsl(0.0,100%,20%)">pdr</text>
<text x="0.932" y="0.072" font-size="0.010713" fill="hsl(0.0,100%,20%)">schenney</text>
<text x="1.007" y="0.900" font-size="0.033453" fill="hsl(120.0,100%,20%)">mstensho</text>
<text x="0.529" y="0.037" font-size="0.038255" fill="hsl(0.0,100%,20%)">nrosenthal</text>
<text x="0.818" y="0.467" font-size="0.020043" fill="hsl(120.0,100%,20%)">sisidovski</text>
<text x="0.899" y="0.753" font-size="0.010713" fill="hsl(120.0,100%,20%)">hchen</text>
<text x="0.929" y="0.674" font-size="0.007576" fill="hsl(120.0,100%,20%)">fwang</text>
<text x="0.748" y="0.720" font-size="0.005357" fill="hsl(120.0,100%,20%)">rbuis</text>
<text x="1.956" y="0.412" font-size="0.010713" fill="hsl(60.0,100%,20%)">horo</text>
<text x="1.765" y="0.399" font-size="0.005357" fill="hsl(60.0,100%,20%)">mych</text>
<text x="1.930" y="0.394" font-size="0.005357" fill="hsl(60.0,100%,20%)">fergal</text>
<text x="1.827" y="0.420" font-size="0.010713" fill="hsl(60.0,100%,20%)">toyoshim</text>
<text x="0.884" y="0.165" font-size="0.010713" fill="hsl(0.0,100%,20%)">i.am.kanaru.sato</text>
<text x="0.976" y="0.174" font-size="0.005357" fill="hsl(60.0,100%,20%)">gyuyoung</text>
<text x="0.185" y="0.080" font-size="0.010713" fill="hsl(0.0,100%,20%)">janiceliu</text>
<text x="0.249" y="0.054" font-size="0.007576" fill="hsl(0.0,100%,20%)">awillia</text>
<text x="0.145" y="0.109" font-size="0.005357" fill="hsl(0.0,100%,20%)">kyraseevers</text>
<text x="0.282" y="0.689" font-size="0.007576" fill="hsl(0.0,100%,20%)">caseq</text>
<text x="0.149" y="0.528" font-size="0.028847" fill="hsl(0.0,100%,20%)">tcaptan</text>
<text x="1.526" y="0.583" font-size="0.007576" fill="hsl(0.0,100%,20%)">cbiesinger</text>
<text x="0.560" y="0.682" font-size="0.005357" fill="hsl(0.0,100%,20%)">nyquist</text>
<text x="1.066" y="0.021" font-size="0.017766" fill="hsl(60.0,100%,20%)">jonathanjlee</text>
<text x="0.703" y="0.203" font-size="0.011978" fill="hsl(0.0,100%,20%)">iclelland</text>
<text x="0.999" y="0.186" font-size="0.015151" fill="hsl(60.0,100%,20%)">reillyg</text>
<text x="0.974" y="0.035" font-size="0.005357" fill="hsl(60.0,100%,20%)">dslee</text>
<text x="0.971" y="0.093" font-size="0.005357" fill="hsl(60.0,100%,20%)">msw</text>
<text x="0.379" y="0.186" font-size="0.014173" fill="hsl(60.0,100%,20%)">jpgravel</text>
<text x="0.287" y="0.142" font-size="0.010713" fill="hsl(0.0,100%,20%)">andresrperez</text>
<text x="0.549" y="0.246" font-size="0.005357" fill="hsl(0.0,100%,20%)">aaronhk</text>
<text x="0.489" y="0.226" font-size="0.005357" fill="hsl(0.0,100%,20%)">yiyix</text>
<text x="1.756" y="0.106" font-size="0.016939" fill="hsl(60.0,100%,20%)">junwei.fu</text>
<text x="1.574" y="0.372" font-size="0.020043" fill="hsl(0.0,100%,20%)">kbabbitt</text>
<text x="1.384" y="0.977" font-size="0.009278" fill="hsl(180.0,100%,20%)">gerchiko</text>
<text x="1.518" y="0.965" font-size="0.018556" fill="hsl(180.0,100%,20%)">mustaq</text>
<text x="1.632" y="0.065" font-size="0.018556" fill="hsl(60.0,100%,20%)">lisha.guo</text>
<text x="1.619" y="0.034" font-size="0.011978" fill="hsl(60.0,100%,20%)">rafael.cintron</text>
<text x="1.302" y="0.554" font-size="0.011978" fill="hsl(60.0,100%,20%)">liviutinta</text>
<text x="1.336" y="0.518" font-size="0.005357" fill="hsl(60.0,100%,20%)">mcnee</text>
<text x="0.139" y="0.456" font-size="0.009278" fill="hsl(60.0,100%,20%)">antoniosartori</text>
<text x="0.212" y="0.411" font-size="0.005357" fill="hsl(0.0,100%,20%)">kinuko</text>
<text x="0.197" y="0.353" font-size="0.009278" fill="hsl(0.0,100%,20%)">jdeblasio</text>
<text x="0.208" y="0.390" font-size="0.005357" fill="hsl(0.0,100%,20%)">yoavweiss</text>
<text x="1.816" y="0.862" font-size="0.005357" fill="hsl(120.0,100%,20%)">qingxinwu</text>
<text x="1.939" y="0.703" font-size="0.007576" fill="hsl(120.0,100%,20%)">alexmt</text>
<text x="1.092" y="0.863" font-size="0.015151" fill="hsl(120.0,100%,20%)">wangxianzhu</text>
<text x="0.548" y="0.126" font-size="0.016939" fill="hsl(0.0,100%,20%)">khushalsagar</text>
<text x="0.733" y="0.099" font-size="0.005357" fill="hsl(0.0,100%,20%)">jbroman</text>
<text x="1.048" y="0.261" font-size="0.007576" fill="hsl(0.0,100%,20%)">szager</text>
<text x="0.504" y="0.089" font-size="0.010713" fill="hsl(0.0,100%,20%)">mmocny</text>
<text x="0.632" y="0.136" font-size="0.009278" fill="hsl(0.0,100%,20%)">shaseley</text>
<text x="0.814" y="0.115" font-size="0.009278" fill="hsl(0.0,100%,20%)">sullivan</text>
<text x="0.172" y="0.890" font-size="0.014173" fill="hsl(120.0,100%,20%)">nsatragno</text>
<text x="0.100" y="0.858" font-size="0.014173" fill="hsl(120.0,100%,20%)">kenrb</text>
<text x="0.137" y="0.908" font-size="0.005357" fill="hsl(120.0,100%,20%)">alexrudenko</text>
<text x="1.753" y="0.213" font-size="0.010713" fill="hsl(60.0,100%,20%)">patrto</text>
<text x="1.953" y="0.661" font-size="0.013121" fill="hsl(0.0,100%,20%)">pauljensen</text>
<text x="1.928" y="0.623" font-size="0.005357" fill="hsl(0.0,100%,20%)">victortan</text>
<text x="1.876" y="0.715" font-size="0.005357" fill="hsl(0.0,100%,20%)">nasko</text>
<text x="1.966" y="0.565" font-size="0.005357" fill="hsl(0.0,100%,20%)">shivanisha</text>
<text x="1.155" y="0.670" font-size="0.011978" fill="hsl(120.0,100%,20%)">pranavmodi</text>
<text x="1.186" y="0.755" font-size="0.010713" fill="hsl(120.0,100%,20%)">sajos</text>
<text x="1.295" y="0.698" font-size="0.005357" fill="hsl(120.0,100%,20%)">ashishkum</text>
<text x="0.423" y="0.940" font-size="0.016939" fill="hsl(120.0,100%,20%)">rahsin</text>
<text x="0.651" y="0.805" font-size="0.005357" fill="hsl(120.0,100%,20%)">memmott</text>
<text x="0.459" y="0.900" font-size="0.009278" fill="hsl(120.0,100%,20%)">abhishek.shanthkumar</text>
<text x="0.622" y="0.882" font-size="0.016939" fill="hsl(120.0,100%,20%)">stevebe</text>
<text x="1.728" y="0.954" font-size="0.015151" fill="hsl(120.0,100%,20%)">sambamurthy.bandaru</text>
<text x="1.737" y="0.944" font-size="0.005357" fill="hsl(120.0,100%,20%)">christinesm</text>
<text x="1.683" y="0.937" font-size="0.005357" fill="hsl(120.0,100%,20%)">daniec</text>
<text x="0.791" y="0.478" font-size="0.005357" fill="hsl(120.0,100%,20%)">dsv</text>
<text x="1.628" y="0.143" font-size="0.016939" fill="hsl(60.0,100%,20%)">shiyi.zou</text>
<text x="0.077" y="0.670" font-size="0.017766" fill="hsl(300.0,100%,20%)">sunggch</text>
<text x="0.145" y="0.734" font-size="0.009278" fill="hsl(300.0,100%,20%)">gabrielbrito</text>
<text x="0.033" y="0.592" font-size="0.011978" fill="hsl(300.0,100%,20%)">mjwilson</text>
<text x="0.055" y="0.691" font-size="0.009278" fill="hsl(300.0,100%,20%)">hongchan</text>
<text x="0.066" y="0.797" font-size="0.009278" fill="hsl(60.0,100%,20%)">suzukikeita</text>
<text x="0.801" y="0.845" font-size="0.005357" fill="hsl(120.0,100%,20%)">chikamune</text>
<text x="1.344" y="0.764" font-size="0.016070" fill="hsl(120.0,100%,20%)">utpathak</text>
<text x="0.567" y="0.730" font-size="0.016070" fill="hsl(0.0,100%,20%)">vogelheim</text>
<text x="0.524" y="0.774" font-size="0.011978" fill="hsl(0.0,100%,20%)">lyf</text>
<text x="0.380" y="0.740" font-size="0.005357" fill="hsl(0.0,100%,20%)">lingqi</text>
<text x="1.634" y="0.536" font-size="0.007576" fill="hsl(120.0,100%,20%)">garykac</text>
<text x="1.641" y="0.502" font-size="0.005357" fill="hsl(120.0,100%,20%)">hidehiko</text>
<text x="1.882" y="0.601" font-size="0.009278" fill="hsl(120.0,100%,20%)">joenotcharles</text>
<text x="1.906" y="0.630" font-size="0.005357" fill="hsl(120.0,100%,20%)">ortuno</text>
<text x="1.949" y="0.475" font-size="0.005357" fill="hsl(120.0,100%,20%)">avi</text>
<text x="1.566" y="0.565" font-size="0.009278" fill="hsl(0.0,100%,20%)">yigu</text>
<text x="1.584" y="0.497" font-size="0.007576" fill="hsl(0.0,100%,20%)">dtapuska</text>
<text x="0.291" y="0.416" font-size="0.010713" fill="hsl(0.0,100%,20%)">zhoupeng.1996</text>
<text x="1.555" y="0.711" font-size="0.011978" fill="hsl(0.0,100%,20%)">zhusida</text>
<text x="1.593" y="0.748" font-size="0.009278" fill="hsl(120.0,100%,20%)">dalecurtis</text>
<text x="1.585" y="0.726" font-size="0.005357" fill="hsl(120.0,100%,20%)">handellm</text>
</svg>
