<svg width="4000" height="2000" viewBox="-0.025 -0.025 2.05 1.05" xmlns="http://www.w3.org/2000/svg">
  <style>
    path {
      fill: none;
      stroke-linecap: round;
      stroke-opacity: 0.4;
    }

    text {
      text-anchor: middle;
      alignment-baseline: hanging;
    }
  </style>
  <g opacity="0.4">
<path d="M0.506 0.241 Q0.670 0.174 0.576 0.080" stroke="hsl(0.0,100%,35%)" stroke-width="0.00647"></path>
<path d="M0.506 0.241 Q0.597 0.300 0.732 0.269" stroke="hsl(0.0,100%,35%)" stroke-width="0.01132"></path>
<path d="M0.506 0.241 Q0.492 0.312 0.628 0.335" stroke="hsl(0.0,100%,35%)" stroke-width="0.01294"></path>
<path d="M0.506 0.241 Q0.621 0.201 0.568 0.137" stroke="hsl(0.0,100%,35%)" stroke-width="0.00647"></path>
<path d="M0.849 0.149 Q0.201 0.309 0.371 0.661" stroke="hsl(51.0,100%,35%)" stroke-width="0.00647"></path>
<path d="M0.849 0.149 Q0.957 0.165 1.013 0.116" stroke="hsl(51.0,100%,35%)" stroke-width="0.01294"></path>
<path d="M0.849 0.149 Q0.414 0.327 0.665 0.578" stroke="hsl(51.0,100%,35%)" stroke-width="0.00323"></path>
<path d="M0.371 0.661 Q0.448 0.589 0.324 0.535" stroke="hsl(51.0,100%,35%)" stroke-width="0.01941"></path>
<path d="M0.371 0.661 Q1.128 0.517 1.013 0.116" stroke="hsl(51.0,100%,35%)" stroke-width="0.00647"></path>
<path d="M0.371 0.661 Q1.215 0.661 1.400 0.249" stroke="hsl(51.0,100%,35%)" stroke-width="0.00162"></path>
<path d="M0.371 0.661 Q1.006 0.567 0.961 0.237" stroke="hsl(51.0,100%,35%)" stroke-width="0.00323"></path>
<path d="M0.371 0.661 Q0.511 0.519 0.266 0.420" stroke="hsl(51.0,100%,35%)" stroke-width="0.00162"></path>
<path d="M0.371 0.661 Q0.475 0.782 0.733 0.757" stroke="hsl(51.0,100%,35%)" stroke-width="0.00162"></path>
<path d="M1.013 0.116 Q1.137 0.086 1.104 0.019" stroke="hsl(51.0,100%,35%)" stroke-width="0.01132"></path>
<path d="M1.013 0.116 Q0.891 0.166 0.961 0.237" stroke="hsl(51.0,100%,35%)" stroke-width="0.00162"></path>
<path d="M1.013 0.116 Q0.910 0.022 0.703 0.051" stroke="hsl(51.0,100%,35%)" stroke-width="0.00162"></path>
<path d="M0.665 0.578 Q0.555 0.681 0.733 0.757" stroke="hsl(102.0,100%,35%)" stroke-width="0.01617"></path>
<path d="M0.665 0.578 Q0.594 0.606 0.633 0.647" stroke="hsl(102.0,100%,35%)" stroke-width="0.00970"></path>
<path d="M0.665 0.578 Q0.719 0.505 0.589 0.463" stroke="hsl(102.0,100%,35%)" stroke-width="0.00323"></path>
<path d="M0.665 0.578 Q1.086 0.467 0.961 0.237" stroke="hsl(102.0,100%,35%)" stroke-width="0.00323"></path>
<path d="M0.665 0.578 Q1.208 0.417 1.013 0.116" stroke="hsl(102.0,100%,35%)" stroke-width="0.00162"></path>
<path d="M0.665 0.578 Q0.592 0.419 0.266 0.420" stroke="hsl(102.0,100%,35%)" stroke-width="0.00162"></path>
<path d="M0.665 0.578 Q0.972 0.734 1.344 0.618" stroke="hsl(102.0,100%,35%)" stroke-width="0.00162"></path>
<path d="M0.665 0.578 Q1.366 0.685 1.730 0.367" stroke="hsl(102.0,100%,35%)" stroke-width="0.00162"></path>
<path d="M0.665 0.578 Q0.727 0.372 0.337 0.296" stroke="hsl(102.0,100%,35%)" stroke-width="0.00162"></path>
<path d="M0.733 0.757 Q0.843 0.654 0.665 0.578" stroke="hsl(102.0,100%,35%)" stroke-width="0.01456"></path>
<path d="M0.733 0.757 Q1.030 0.639 0.863 0.468" stroke="hsl(102.0,100%,35%)" stroke-width="0.00162"></path>
<path d="M0.733 0.757 Q0.896 0.581 0.589 0.463" stroke="hsl(102.0,100%,35%)" stroke-width="0.00323"></path>
<path d="M0.733 0.757 Q0.591 0.757 0.558 0.826" stroke="hsl(102.0,100%,35%)" stroke-width="0.00485"></path>
<path d="M0.733 0.757 Q0.833 0.803 0.943 0.764" stroke="hsl(102.0,100%,35%)" stroke-width="0.00162"></path>
<path d="M0.558 0.826 Q0.700 0.827 0.733 0.757" stroke="hsl(102.0,100%,35%)" stroke-width="0.00970"></path>
<path d="M0.558 0.826 Q0.809 0.482 0.194 0.284" stroke="hsl(102.0,100%,35%)" stroke-width="0.00323"></path>
<path d="M0.558 0.826 Q0.739 0.751 0.633 0.647" stroke="hsl(102.0,100%,35%)" stroke-width="0.00162"></path>
<path d="M0.558 0.826 Q0.809 0.723 0.665 0.578" stroke="hsl(102.0,100%,35%)" stroke-width="0.00162"></path>
<path d="M0.943 0.764 Q1.654 0.723 1.730 0.367" stroke="hsl(51.0,100%,35%)" stroke-width="0.00647"></path>
<path d="M0.943 0.764 Q1.575 0.675 1.540 0.348" stroke="hsl(51.0,100%,35%)" stroke-width="0.00162"></path>
<path d="M0.943 0.764 Q1.075 0.874 1.318 0.834" stroke="hsl(51.0,100%,35%)" stroke-width="0.00162"></path>
<path d="M0.943 0.764 Q0.882 0.643 0.633 0.647" stroke="hsl(51.0,100%,35%)" stroke-width="0.00323"></path>
<path d="M0.943 0.764 Q0.844 0.719 0.733 0.757" stroke="hsl(51.0,100%,35%)" stroke-width="0.00647"></path>
<path d="M0.859 0.504 Q1.135 0.598 1.380 0.485" stroke="hsl(154.0,100%,35%)" stroke-width="0.00485"></path>
<path d="M0.859 0.504 Q0.593 0.605 0.733 0.757" stroke="hsl(154.0,100%,35%)" stroke-width="0.00485"></path>
<path d="M0.859 0.504 Q0.916 0.533 0.986 0.512" stroke="hsl(154.0,100%,35%)" stroke-width="0.00162"></path>
<path d="M1.380 0.485 Q1.359 0.342 1.077 0.321" stroke="hsl(154.0,100%,35%)" stroke-width="0.00323"></path>
<path d="M1.380 0.485 Q1.341 0.424 1.213 0.429" stroke="hsl(154.0,100%,35%)" stroke-width="0.00162"></path>
<path d="M1.380 0.485 Q1.282 0.454 1.200 0.495" stroke="hsl(154.0,100%,35%)" stroke-width="0.00809"></path>
<path d="M1.380 0.485 Q1.020 0.057 0.106 0.139" stroke="hsl(154.0,100%,35%)" stroke-width="0.00323"></path>
<path d="M1.380 0.485 Q1.386 0.540 1.495 0.550" stroke="hsl(154.0,100%,35%)" stroke-width="0.00162"></path>
<path d="M1.380 0.485 Q1.207 0.442 1.086 0.517" stroke="hsl(154.0,100%,35%)" stroke-width="0.00162"></path>
<path d="M1.380 0.485 Q1.506 0.518 1.598 0.464" stroke="hsl(154.0,100%,35%)" stroke-width="0.00162"></path>
<path d="M1.380 0.485 Q1.267 0.415 1.105 0.455" stroke="hsl(154.0,100%,35%)" stroke-width="0.00162"></path>
<path d="M1.380 0.485 Q1.391 0.426 1.279 0.408" stroke="hsl(154.0,100%,35%)" stroke-width="0.00970"></path>
<path d="M1.380 0.485 Q1.350 0.383 1.144 0.376" stroke="hsl(154.0,100%,35%)" stroke-width="0.00162"></path>
<path d="M1.380 0.485 Q0.948 0.147 0.194 0.284" stroke="hsl(154.0,100%,35%)" stroke-width="0.00162"></path>
<path d="M1.380 0.485 Q1.356 0.426 1.236 0.426" stroke="hsl(154.0,100%,35%)" stroke-width="0.00162"></path>
<path d="M1.380 0.485 Q1.070 0.647 1.318 0.834" stroke="hsl(154.0,100%,35%)" stroke-width="0.00162"></path>
<path d="M0.986 0.512 Q0.930 0.482 0.859 0.504" stroke="hsl(154.0,100%,35%)" stroke-width="0.00162"></path>
<path d="M0.986 0.512 Q0.960 0.466 0.863 0.468" stroke="hsl(154.0,100%,35%)" stroke-width="0.00162"></path>
<path d="M0.986 0.512 Q1.216 0.519 1.279 0.408" stroke="hsl(154.0,100%,35%)" stroke-width="0.00485"></path>
<path d="M1.501 0.658 Q1.545 0.654 1.547 0.631" stroke="hsl(205.0,100%,35%)" stroke-width="0.00323"></path>
<path d="M1.501 0.658 Q1.477 0.693 1.542 0.713" stroke="hsl(205.0,100%,35%)" stroke-width="0.00162"></path>
<path d="M1.501 0.658 Q1.575 0.642 1.560 0.602" stroke="hsl(205.0,100%,35%)" stroke-width="0.00323"></path>
<path d="M1.501 0.658 Q1.572 0.651 1.575 0.615" stroke="hsl(205.0,100%,35%)" stroke-width="0.00162"></path>
<path d="M0.614 0.972 Q0.688 0.964 0.689 0.926" stroke="hsl(51.0,100%,35%)" stroke-width="0.00323"></path>
<path d="M0.614 0.972 Q0.570 0.940 0.496 0.954" stroke="hsl(51.0,100%,35%)" stroke-width="0.00485"></path>
<path d="M0.614 0.972 Q1.526 1.007 1.795 0.570" stroke="hsl(51.0,100%,35%)" stroke-width="0.00162"></path>
<path d="M1.730 0.367 Q1.090 0.053 0.337 0.296" stroke="hsl(51.0,100%,35%)" stroke-width="0.00162"></path>
<path d="M1.730 0.367 Q1.685 0.287 1.519 0.291" stroke="hsl(51.0,100%,35%)" stroke-width="0.00162"></path>
<path d="M1.730 0.367 Q1.739 0.307 1.624 0.289" stroke="hsl(51.0,100%,35%)" stroke-width="0.00323"></path>
<path d="M1.730 0.367 Q1.650 0.319 1.540 0.348" stroke="hsl(51.0,100%,35%)" stroke-width="0.01617"></path>
<path d="M1.730 0.367 Q1.150 0.518 1.318 0.834" stroke="hsl(51.0,100%,35%)" stroke-width="0.00323"></path>
<path d="M1.730 0.367 Q1.018 0.408 0.943 0.764" stroke="hsl(51.0,100%,35%)" stroke-width="0.00162"></path>
<path d="M1.540 0.348 Q0.918 0.288 0.665 0.578" stroke="hsl(51.0,100%,35%)" stroke-width="0.00162"></path>
<path d="M1.540 0.348 Q1.493 0.273 1.337 0.279" stroke="hsl(51.0,100%,35%)" stroke-width="0.00162"></path>
<path d="M1.540 0.348 Q1.620 0.395 1.730 0.367" stroke="hsl(51.0,100%,35%)" stroke-width="0.00970"></path>
<path d="M1.540 0.348 Q1.178 0.342 1.086 0.517" stroke="hsl(51.0,100%,35%)" stroke-width="0.00162"></path>
<path d="M1.540 0.348 Q1.564 0.286 1.450 0.261" stroke="hsl(51.0,100%,35%)" stroke-width="0.00162"></path>
<path d="M1.540 0.348 Q0.817 0.060 0.097 0.350" stroke="hsl(51.0,100%,35%)" stroke-width="0.00323"></path>
<path d="M1.540 0.348 Q1.469 0.404 1.562 0.451" stroke="hsl(51.0,100%,35%)" stroke-width="0.00162"></path>
<path d="M1.540 0.348 Q1.629 0.335 1.624 0.289" stroke="hsl(51.0,100%,35%)" stroke-width="0.00485"></path>
<path d="M1.318 0.834 Q1.907 0.622 1.624 0.289" stroke="hsl(51.0,100%,35%)" stroke-width="0.00162"></path>
<path d="M1.318 0.834 Q1.125 0.603 0.633 0.647" stroke="hsl(51.0,100%,35%)" stroke-width="0.00162"></path>
<path d="M1.318 0.834 Q1.898 0.682 1.730 0.367" stroke="hsl(51.0,100%,35%)" stroke-width="0.00162"></path>
<path d="M1.318 0.834 Q1.818 0.635 1.540 0.348" stroke="hsl(51.0,100%,35%)" stroke-width="0.00323"></path>
<path d="M1.318 0.834 Q1.258 0.369 0.337 0.296" stroke="hsl(51.0,100%,35%)" stroke-width="0.00162"></path>
<path d="M0.633 0.647 Q0.594 0.722 0.733 0.757" stroke="hsl(102.0,100%,35%)" stroke-width="0.02264"></path>
<path d="M0.633 0.647 Q0.704 0.619 0.665 0.578" stroke="hsl(102.0,100%,35%)" stroke-width="0.02749"></path>
<path d="M0.633 0.647 Q1.136 0.715 1.380 0.485" stroke="hsl(102.0,100%,35%)" stroke-width="0.00647"></path>
<path d="M0.633 0.647 Q0.826 0.877 1.318 0.834" stroke="hsl(102.0,100%,35%)" stroke-width="0.00647"></path>
<path d="M0.633 0.647 Q0.703 0.378 0.194 0.284" stroke="hsl(102.0,100%,35%)" stroke-width="0.00162"></path>
<path d="M1.523 0.066 Q1.389 0.081 1.389 0.150" stroke="hsl(257.0,100%,35%)" stroke-width="0.03881"></path>
<path d="M1.523 0.066 Q1.626 0.119 1.753 0.081" stroke="hsl(257.0,100%,35%)" stroke-width="0.03881"></path>
<path d="M1.523 0.066 Q1.486 0.130 1.604 0.163" stroke="hsl(257.0,100%,35%)" stroke-width="0.00162"></path>
<path d="M1.523 0.066 Q1.227 -0.011 1.013 0.116" stroke="hsl(257.0,100%,35%)" stroke-width="0.00162"></path>
<path d="M0.336 0.950 Q0.400 0.950 0.414 0.919" stroke="hsl(51.0,100%,35%)" stroke-width="0.00162"></path>
<path d="M0.336 0.950 Q0.343 0.919 0.284 0.909" stroke="hsl(51.0,100%,35%)" stroke-width="0.00323"></path>
<path d="M0.336 0.950 Q0.270 0.910 0.178 0.934" stroke="hsl(51.0,100%,35%)" stroke-width="0.00162"></path>
<path d="M0.336 0.950 Q0.860 0.623 0.337 0.296" stroke="hsl(51.0,100%,35%)" stroke-width="0.00162"></path>
<path d="M0.336 0.950 Q1.230 0.926 1.380 0.485" stroke="hsl(51.0,100%,35%)" stroke-width="0.00162"></path>
<path d="M0.178 0.934 Q0.251 0.943 0.284 0.909" stroke="hsl(51.0,100%,35%)" stroke-width="0.00485"></path>
<path d="M0.178 0.934 Q1.179 0.582 0.712 0.017" stroke="hsl(51.0,100%,35%)" stroke-width="0.00162"></path>
<path d="M0.178 0.934 Q0.828 1.112 1.318 0.834" stroke="hsl(51.0,100%,35%)" stroke-width="0.00162"></path>
<path d="M0.178 0.934 Q0.200 0.969 0.272 0.966" stroke="hsl(51.0,100%,35%)" stroke-width="0.00162"></path>
<path d="M0.178 0.934 Q0.245 0.973 0.336 0.950" stroke="hsl(51.0,100%,35%)" stroke-width="0.00162"></path>
<path d="M1.077 0.321 Q1.067 0.362 1.144 0.376" stroke="hsl(154.0,100%,35%)" stroke-width="0.00323"></path>
<path d="M1.077 0.321 Q1.098 0.464 1.380 0.485" stroke="hsl(154.0,100%,35%)" stroke-width="0.00162"></path>
<path d="M1.077 0.321 Q1.109 0.405 1.279 0.408" stroke="hsl(154.0,100%,35%)" stroke-width="0.00162"></path>
<path d="M1.144 0.376 Q1.154 0.335 1.077 0.321" stroke="hsl(154.0,100%,35%)" stroke-width="0.00323"></path>
<path d="M1.144 0.376 Q1.175 0.478 1.380 0.485" stroke="hsl(154.0,100%,35%)" stroke-width="0.00323"></path>
<path d="M1.144 0.376 Q1.077 0.446 1.200 0.495" stroke="hsl(154.0,100%,35%)" stroke-width="0.00162"></path>
<path d="M1.144 0.376 Q1.009 0.389 1.006 0.458" stroke="hsl(154.0,100%,35%)" stroke-width="0.00162"></path>
<path d="M1.144 0.376 Q1.002 0.435 1.086 0.517" stroke="hsl(154.0,100%,35%)" stroke-width="0.00162"></path>
<path d="M1.144 0.376 Q1.051 0.397 1.071 0.447" stroke="hsl(154.0,100%,35%)" stroke-width="0.00162"></path>
<path d="M1.144 0.376 Q1.039 0.386 1.035 0.439" stroke="hsl(154.0,100%,35%)" stroke-width="0.00162"></path>
<path d="M1.144 0.376 Q1.185 0.419 1.279 0.408" stroke="hsl(154.0,100%,35%)" stroke-width="0.00162"></path>
<path d="M1.279 0.408 Q1.268 0.467 1.380 0.485" stroke="hsl(154.0,100%,35%)" stroke-width="0.01132"></path>
<path d="M1.279 0.408 Q0.836 0.370 0.665 0.578" stroke="hsl(154.0,100%,35%)" stroke-width="0.00162"></path>
<path d="M1.279 0.408 Q1.247 0.325 1.077 0.321" stroke="hsl(154.0,100%,35%)" stroke-width="0.00323"></path>
<path d="M1.279 0.408 Q1.140 0.366 1.027 0.425" stroke="hsl(154.0,100%,35%)" stroke-width="0.00162"></path>
<path d="M1.279 0.408 Q1.170 0.436 1.200 0.495" stroke="hsl(154.0,100%,35%)" stroke-width="0.00485"></path>
<path d="M1.279 0.408 Q1.238 0.365 1.144 0.376" stroke="hsl(154.0,100%,35%)" stroke-width="0.00809"></path>
<path d="M1.279 0.408 Q0.727 0.474 0.733 0.757" stroke="hsl(154.0,100%,35%)" stroke-width="0.00162"></path>
<path d="M0.478 0.368 Q0.462 0.383 0.487 0.394" stroke="hsl(51.0,100%,35%)" stroke-width="0.00323"></path>
<path d="M0.478 0.368 Q0.331 0.351 0.266 0.420" stroke="hsl(51.0,100%,35%)" stroke-width="0.00485"></path>
<path d="M0.478 0.368 Q0.571 0.594 1.031 0.598" stroke="hsl(51.0,100%,35%)" stroke-width="0.00162"></path>
<path d="M0.266 0.420 Q0.400 0.372 0.337 0.296" stroke="hsl(102.0,100%,35%)" stroke-width="0.00323"></path>
<path d="M0.266 0.420 Q0.268 0.607 0.633 0.647" stroke="hsl(102.0,100%,35%)" stroke-width="0.00162"></path>
<path d="M0.266 0.420 Q0.244 0.457 0.311 0.475" stroke="hsl(102.0,100%,35%)" stroke-width="0.00485"></path>
<path d="M0.266 0.420 Q0.125 0.561 0.371 0.661" stroke="hsl(102.0,100%,35%)" stroke-width="0.00162"></path>
<path d="M1.652 0.507 Q1.782 0.535 1.866 0.477" stroke="hsl(154.0,100%,35%)" stroke-width="0.00970"></path>
<path d="M1.652 0.507 Q1.730 0.541 1.815 0.510" stroke="hsl(154.0,100%,35%)" stroke-width="0.00162"></path>
<path d="M1.652 0.507 Q1.733 0.519 1.775 0.482" stroke="hsl(154.0,100%,35%)" stroke-width="0.00162"></path>
<path d="M1.652 0.507 Q0.965 0.256 0.324 0.535" stroke="hsl(154.0,100%,35%)" stroke-width="0.00323"></path>
<path d="M1.652 0.507 Q1.595 0.541 1.650 0.576" stroke="hsl(154.0,100%,35%)" stroke-width="0.00162"></path>
<path d="M0.598 0.895 Q0.662 0.887 0.660 0.855" stroke="hsl(51.0,100%,35%)" stroke-width="0.00162"></path>
<path d="M0.598 0.895 Q0.579 0.896 0.576 0.906" stroke="hsl(51.0,100%,35%)" stroke-width="0.00162"></path>
<path d="M0.598 0.895 Q1.087 0.418 0.264 0.075" stroke="hsl(51.0,100%,35%)" stroke-width="0.00162"></path>
<path d="M0.598 0.895 Q1.507 0.810 1.540 0.348" stroke="hsl(51.0,100%,35%)" stroke-width="0.00162"></path>
<path d="M0.264 0.075 Q0.184 0.666 1.318 0.834" stroke="hsl(51.0,100%,35%)" stroke-width="0.00162"></path>
<path d="M0.264 0.075 Q0.378 0.101 0.453 0.051" stroke="hsl(51.0,100%,35%)" stroke-width="0.00647"></path>
<path d="M0.264 0.075 Q0.134 0.076 0.106 0.139" stroke="hsl(51.0,100%,35%)" stroke-width="0.00809"></path>
<path d="M0.264 0.075 Q0.369 0.090 0.421 0.042" stroke="hsl(51.0,100%,35%)" stroke-width="0.00323"></path>
<path d="M1.939 0.376 Q1.400 0.276 1.086 0.517" stroke="hsl(154.0,100%,35%)" stroke-width="0.00162"></path>
<path d="M1.939 0.376 Q2.008 0.338 1.950 0.296" stroke="hsl(154.0,100%,35%)" stroke-width="0.00162"></path>
<path d="M1.939 0.376 Q1.955 0.386 1.979 0.380" stroke="hsl(154.0,100%,35%)" stroke-width="0.00162"></path>
<path d="M1.939 0.376 Q1.924 0.397 1.962 0.409" stroke="hsl(154.0,100%,35%)" stroke-width="0.00162"></path>
<path d="M1.939 0.376 Q1.978 0.336 1.908 0.308" stroke="hsl(154.0,100%,35%)" stroke-width="0.00162"></path>
<path d="M1.939 0.376 Q1.691 0.384 1.652 0.507" stroke="hsl(154.0,100%,35%)" stroke-width="0.00162"></path>
<path d="M1.770 0.772 Q1.681 0.813 1.742 0.866" stroke="hsl(308.0,100%,35%)" stroke-width="0.02426"></path>
<path d="M1.770 0.772 Q1.843 0.701 1.722 0.650" stroke="hsl(308.0,100%,35%)" stroke-width="0.02426"></path>
<path d="M1.770 0.772 Q1.707 0.519 1.200 0.495" stroke="hsl(308.0,100%,35%)" stroke-width="0.00162"></path>
<path d="M1.742 0.866 Q1.768 0.572 1.200 0.495" stroke="hsl(308.0,100%,35%)" stroke-width="0.00162"></path>
<path d="M1.742 0.866 Q1.904 0.754 1.722 0.650" stroke="hsl(308.0,100%,35%)" stroke-width="0.00323"></path>
<path d="M1.742 0.866 Q1.528 0.859 1.468 0.962" stroke="hsl(308.0,100%,35%)" stroke-width="0.00162"></path>
<path d="M0.961 0.237 Q1.084 0.187 1.013 0.116" stroke="hsl(51.0,100%,35%)" stroke-width="0.01294"></path>
<path d="M0.961 0.237 Q0.431 0.452 0.733 0.757" stroke="hsl(51.0,100%,35%)" stroke-width="0.00162"></path>
<path d="M0.961 0.237 Q0.327 0.331 0.371 0.661" stroke="hsl(51.0,100%,35%)" stroke-width="0.00485"></path>
<path d="M0.961 0.237 Q0.540 0.348 0.665 0.578" stroke="hsl(51.0,100%,35%)" stroke-width="0.00323"></path>
<path d="M0.961 0.237 Q0.531 0.497 0.943 0.764" stroke="hsl(51.0,100%,35%)" stroke-width="0.00162"></path>
<path d="M0.106 0.139 Q0.156 0.729 1.318 0.834" stroke="hsl(51.0,100%,35%)" stroke-width="0.00162"></path>
<path d="M0.106 0.139 Q0.736 0.577 1.730 0.367" stroke="hsl(51.0,100%,35%)" stroke-width="0.00485"></path>
<path d="M0.106 0.139 Q0.656 0.530 1.540 0.348" stroke="hsl(51.0,100%,35%)" stroke-width="0.00162"></path>
<path d="M1.949 0.619 Q1.974 0.565 1.875 0.541" stroke="hsl(51.0,100%,35%)" stroke-width="0.00809"></path>
<path d="M1.949 0.619 Q1.204 0.252 0.324 0.535" stroke="hsl(51.0,100%,35%)" stroke-width="0.00323"></path>
<path d="M1.949 0.619 Q1.900 0.636 1.922 0.663" stroke="hsl(51.0,100%,35%)" stroke-width="0.00647"></path>
<path d="M1.949 0.619 Q1.127 0.324 0.371 0.661" stroke="hsl(51.0,100%,35%)" stroke-width="0.00323"></path>
<path d="M1.949 0.619 Q2.034 0.580 1.977 0.531" stroke="hsl(51.0,100%,35%)" stroke-width="0.00162"></path>
<path d="M0.661 0.412 Q0.428 0.268 0.097 0.350" stroke="hsl(102.0,100%,35%)" stroke-width="0.00485"></path>
<path d="M0.661 0.412 Q1.076 0.701 1.732 0.562" stroke="hsl(102.0,100%,35%)" stroke-width="0.00162"></path>
<path d="M0.661 0.412 Q0.002 0.576 0.178 0.934" stroke="hsl(102.0,100%,35%)" stroke-width="0.00162"></path>
<path d="M0.661 0.412 Q0.590 0.386 0.524 0.414" stroke="hsl(102.0,100%,35%)" stroke-width="0.00162"></path>
<path d="M0.661 0.412 Q0.223 0.642 0.576 0.906" stroke="hsl(102.0,100%,35%)" stroke-width="0.00162"></path>
<path d="M0.661 0.412 Q0.178 0.466 0.178 0.713" stroke="hsl(102.0,100%,35%)" stroke-width="0.00323"></path>
<path d="M0.661 0.412 Q0.614 0.411 0.602 0.434" stroke="hsl(102.0,100%,35%)" stroke-width="0.00323"></path>
<path d="M0.661 0.412 Q0.206 0.551 0.378 0.804" stroke="hsl(102.0,100%,35%)" stroke-width="0.00162"></path>
<path d="M0.097 0.350 Q0.126 0.419 0.266 0.420" stroke="hsl(102.0,100%,35%)" stroke-width="0.02102"></path>
<path d="M0.097 0.350 Q0.261 0.371 0.337 0.296" stroke="hsl(102.0,100%,35%)" stroke-width="0.00647"></path>
<path d="M0.097 0.350 Q0.198 0.337 0.194 0.284" stroke="hsl(102.0,100%,35%)" stroke-width="0.01617"></path>
<path d="M0.097 0.350 Q0.631 0.674 1.380 0.485" stroke="hsl(102.0,100%,35%)" stroke-width="0.00485"></path>
<path d="M0.097 0.350 Q0.208 0.374 0.279 0.325" stroke="hsl(102.0,100%,35%)" stroke-width="0.00162"></path>
<path d="M1.732 0.562 Q0.731 0.446 0.284 0.909" stroke="hsl(51.0,100%,35%)" stroke-width="0.00162"></path>
<path d="M1.732 0.562 Q1.757 0.578 1.795 0.570" stroke="hsl(51.0,100%,35%)" stroke-width="0.00323"></path>
<path d="M1.732 0.562 Q0.919 0.535 0.689 0.926" stroke="hsl(51.0,100%,35%)" stroke-width="0.00162"></path>
<path d="M1.732 0.562 Q1.667 0.541 1.611 0.568" stroke="hsl(51.0,100%,35%)" stroke-width="0.00323"></path>
<path d="M0.178 0.713 Q0.206 0.799 0.378 0.804" stroke="hsl(154.0,100%,35%)" stroke-width="0.00970"></path>
<path d="M0.178 0.713 Q0.061 0.794 0.193 0.869" stroke="hsl(154.0,100%,35%)" stroke-width="0.00809"></path>
<path d="M0.178 0.713 Q0.592 0.536 0.337 0.296" stroke="hsl(154.0,100%,35%)" stroke-width="0.00323"></path>
<path d="M0.178 0.713 Q0.189 0.645 0.059 0.625" stroke="hsl(154.0,100%,35%)" stroke-width="0.00162"></path>
<path d="M0.178 0.713 Q0.159 0.678 0.087 0.680" stroke="hsl(154.0,100%,35%)" stroke-width="0.00162"></path>
<path d="M0.378 0.804 Q0.234 0.799 0.193 0.869" stroke="hsl(154.0,100%,35%)" stroke-width="0.00485"></path>
<path d="M0.378 0.804 Q0.351 0.719 0.178 0.713" stroke="hsl(154.0,100%,35%)" stroke-width="0.00485"></path>
<path d="M0.378 0.804 Q0.225 0.760 0.106 0.825" stroke="hsl(154.0,100%,35%)" stroke-width="0.00162"></path>
<path d="M0.844 0.944 Q0.971 1.011 1.128 0.963" stroke="hsl(154.0,100%,35%)" stroke-width="0.00485"></path>
<path d="M0.844 0.944 Q0.917 0.952 0.948 0.918" stroke="hsl(154.0,100%,35%)" stroke-width="0.00323"></path>
<path d="M0.844 0.944 Q1.131 0.641 0.602 0.434" stroke="hsl(154.0,100%,35%)" stroke-width="0.00162"></path>
<path d="M0.844 0.944 Q1.021 0.996 1.161 0.920" stroke="hsl(154.0,100%,35%)" stroke-width="0.00162"></path>
<path d="M0.844 0.944 Q0.592 0.815 0.284 0.909" stroke="hsl(154.0,100%,35%)" stroke-width="0.00162"></path>
<path d="M0.844 0.944 Q0.961 1.021 1.137 0.980" stroke="hsl(154.0,100%,35%)" stroke-width="0.00162"></path>
<path d="M0.844 0.944 Q0.826 0.975 0.883 0.990" stroke="hsl(154.0,100%,35%)" stroke-width="0.00162"></path>
<path d="M0.844 0.944 Q0.985 0.943 1.014 0.874" stroke="hsl(154.0,100%,35%)" stroke-width="0.00162"></path>
<path d="M1.246 0.706 Q1.143 0.642 0.996 0.679" stroke="hsl(51.0,100%,35%)" stroke-width="0.01294"></path>
<path d="M1.246 0.706 Q1.303 0.636 1.178 0.592" stroke="hsl(51.0,100%,35%)" stroke-width="0.00970"></path>
<path d="M1.246 0.706 Q1.602 0.365 1.013 0.116" stroke="hsl(51.0,100%,35%)" stroke-width="0.00485"></path>
<path d="M1.246 0.706 Q1.365 0.682 1.344 0.618" stroke="hsl(51.0,100%,35%)" stroke-width="0.00323"></path>
<path d="M1.246 0.706 Q1.120 0.319 0.337 0.296" stroke="hsl(51.0,100%,35%)" stroke-width="0.00162"></path>
<path d="M1.246 0.706 Q1.479 0.415 0.961 0.237" stroke="hsl(51.0,100%,35%)" stroke-width="0.00162"></path>
<path d="M1.246 0.706 Q0.949 0.629 0.733 0.757" stroke="hsl(51.0,100%,35%)" stroke-width="0.00162"></path>
<path d="M1.246 0.706 Q1.180 0.784 1.318 0.834" stroke="hsl(51.0,100%,35%)" stroke-width="0.00809"></path>
<path d="M1.246 0.706 Q1.760 0.633 1.730 0.367" stroke="hsl(51.0,100%,35%)" stroke-width="0.00162"></path>
<path d="M1.178 0.592 Q0.823 0.586 0.733 0.757" stroke="hsl(51.0,100%,35%)" stroke-width="0.00162"></path>
<path d="M1.178 0.592 Q1.240 0.639 1.344 0.618" stroke="hsl(51.0,100%,35%)" stroke-width="0.00809"></path>
<path d="M1.178 0.592 Q1.018 0.599 0.996 0.679" stroke="hsl(51.0,100%,35%)" stroke-width="0.01617"></path>
<path d="M1.178 0.592 Q1.476 0.321 1.013 0.116" stroke="hsl(51.0,100%,35%)" stroke-width="0.00970"></path>
<path d="M1.178 0.592 Q1.100 0.566 1.031 0.598" stroke="hsl(51.0,100%,35%)" stroke-width="0.00647"></path>
<path d="M1.178 0.592 Q1.121 0.663 1.246 0.706" stroke="hsl(51.0,100%,35%)" stroke-width="0.00323"></path>
<path d="M0.129 0.586 Q0.190 0.672 0.371 0.661" stroke="hsl(51.0,100%,35%)" stroke-width="0.00809"></path>
<path d="M0.129 0.586 Q0.268 0.600 0.324 0.535" stroke="hsl(51.0,100%,35%)" stroke-width="0.00647"></path>
<path d="M0.129 0.586 Q0.947 0.528 1.013 0.116" stroke="hsl(51.0,100%,35%)" stroke-width="0.00647"></path>
<path d="M0.129 0.586 Q0.403 0.690 0.665 0.578" stroke="hsl(51.0,100%,35%)" stroke-width="0.00323"></path>
<path d="M0.129 0.586 Q0.839 0.512 0.849 0.149" stroke="hsl(51.0,100%,35%)" stroke-width="0.00162"></path>
<path d="M0.193 0.869 Q0.337 0.873 0.378 0.804" stroke="hsl(154.0,100%,35%)" stroke-width="0.03073"></path>
<path d="M0.193 0.869 Q0.560 0.590 0.097 0.350" stroke="hsl(154.0,100%,35%)" stroke-width="0.00162"></path>
<path d="M0.193 0.869 Q0.310 0.788 0.178 0.713" stroke="hsl(154.0,100%,35%)" stroke-width="0.01779"></path>
<path d="M0.193 0.869 Q0.184 0.829 0.106 0.825" stroke="hsl(154.0,100%,35%)" stroke-width="0.00970"></path>
<path d="M0.193 0.869 Q0.154 0.933 0.272 0.966" stroke="hsl(154.0,100%,35%)" stroke-width="0.00162"></path>
<path d="M1.424 0.562 Q1.391 0.599 1.457 0.624" stroke="hsl(51.0,100%,35%)" stroke-width="0.00323"></path>
<path d="M1.424 0.562 Q1.388 0.636 1.525 0.670" stroke="hsl(51.0,100%,35%)" stroke-width="0.00162"></path>
<path d="M1.424 0.562 Q1.354 0.565 1.346 0.600" stroke="hsl(51.0,100%,35%)" stroke-width="0.00162"></path>
<path d="M0.744 0.038 Q0.716 0.012 0.659 0.021" stroke="hsl(154.0,100%,35%)" stroke-width="0.00162"></path>
<path d="M0.744 0.038 Q0.685 0.004 0.604 0.025" stroke="hsl(154.0,100%,35%)" stroke-width="0.00162"></path>
<path d="M0.744 0.038 Q0.745 0.021 0.712 0.017" stroke="hsl(154.0,100%,35%)" stroke-width="0.00647"></path>
<path d="M0.873 0.454 Q0.871 0.403 0.772 0.393" stroke="hsl(51.0,100%,35%)" stroke-width="0.00323"></path>
<path d="M0.873 0.454 Q0.929 0.528 1.086 0.517" stroke="hsl(51.0,100%,35%)" stroke-width="0.00162"></path>
<path d="M0.873 0.454 Q1.029 0.655 1.457 0.624" stroke="hsl(51.0,100%,35%)" stroke-width="0.00162"></path>
<path d="M0.873 0.454 Q0.272 0.595 0.414 0.919" stroke="hsl(51.0,100%,35%)" stroke-width="0.00162"></path>
<path d="M0.322 0.183 Q0.365 0.434 0.863 0.468" stroke="hsl(154.0,100%,35%)" stroke-width="0.00162"></path>
<path d="M0.322 0.183 Q0.610 0.546 1.380 0.485" stroke="hsl(154.0,100%,35%)" stroke-width="0.00162"></path>
<path d="M0.322 0.183 Q0.300 0.708 1.318 0.834" stroke="hsl(154.0,100%,35%)" stroke-width="0.00162"></path>
<path d="M0.322 0.183 Q0.239 0.243 0.337 0.296" stroke="hsl(154.0,100%,35%)" stroke-width="0.00323"></path>
<path d="M0.322 0.183 Q0.370 0.173 0.361 0.148" stroke="hsl(154.0,100%,35%)" stroke-width="0.00323"></path>
<path d="M0.322 0.183 Q0.799 0.509 1.540 0.348" stroke="hsl(154.0,100%,35%)" stroke-width="0.00162"></path>
<path d="M1.952 0.527 Q1.972 0.481 1.886 0.461" stroke="hsl(51.0,100%,35%)" stroke-width="0.00162"></path>
<path d="M1.952 0.527 Q1.877 0.572 1.949 0.619" stroke="hsl(51.0,100%,35%)" stroke-width="0.00323"></path>
<path d="M1.952 0.527 Q1.986 0.513 1.965 0.493" stroke="hsl(51.0,100%,35%)" stroke-width="0.00162"></path>
<path d="M0.653 0.167 Q0.507 0.246 0.628 0.335" stroke="hsl(0.0,100%,35%)" stroke-width="0.00809"></path>
<path d="M0.653 0.167 Q0.611 0.234 0.732 0.269" stroke="hsl(0.0,100%,35%)" stroke-width="0.00809"></path>
<path d="M0.653 0.167 Q0.635 0.135 0.568 0.137" stroke="hsl(0.0,100%,35%)" stroke-width="0.00809"></path>
<path d="M0.653 0.167 Q0.684 0.108 0.576 0.080" stroke="hsl(0.0,100%,35%)" stroke-width="0.00809"></path>
<path d="M0.496 0.039 Q0.040 0.446 0.733 0.757" stroke="hsl(102.0,100%,35%)" stroke-width="0.00162"></path>
<path d="M0.496 0.039 Q0.492 0.022 0.458 0.020" stroke="hsl(102.0,100%,35%)" stroke-width="0.00162"></path>
<path d="M0.496 0.039 Q0.401 0.071 0.443 0.125" stroke="hsl(102.0,100%,35%)" stroke-width="0.00162"></path>
<path d="M0.496 0.039 Q-0.064 0.325 0.371 0.661" stroke="hsl(102.0,100%,35%)" stroke-width="0.00162"></path>
<path d="M0.496 0.039 Q0.518 0.039 0.524 0.029" stroke="hsl(102.0,100%,35%)" stroke-width="0.00162"></path>
<path d="M0.496 0.039 Q0.013 0.253 0.324 0.535" stroke="hsl(102.0,100%,35%)" stroke-width="0.00162"></path>
<path d="M0.990 0.340 Q1.108 0.140 0.744 0.038" stroke="hsl(154.0,100%,35%)" stroke-width="0.00162"></path>
<path d="M0.990 0.340 Q0.794 0.395 0.859 0.504" stroke="hsl(154.0,100%,35%)" stroke-width="0.00323"></path>
<path d="M0.990 0.340 Q1.080 0.432 1.279 0.408" stroke="hsl(154.0,100%,35%)" stroke-width="0.00485"></path>
<path d="M1.497 0.738 Q1.512 0.753 1.545 0.749" stroke="hsl(51.0,100%,35%)" stroke-width="0.00323"></path>
<path d="M1.497 0.738 Q1.376 0.575 1.031 0.598" stroke="hsl(51.0,100%,35%)" stroke-width="0.00323"></path>
<path d="M1.497 0.738 Q0.996 0.474 0.371 0.661" stroke="hsl(51.0,100%,35%)" stroke-width="0.00162"></path>
<path d="M1.497 0.738 Q1.516 0.648 1.344 0.618" stroke="hsl(51.0,100%,35%)" stroke-width="0.00162"></path>
<path d="M1.497 0.738 Q1.993 0.666 1.962 0.409" stroke="hsl(51.0,100%,35%)" stroke-width="0.00162"></path>
<path d="M1.583 0.209 Q1.379 0.372 1.652 0.507" stroke="hsl(51.0,100%,35%)" stroke-width="0.00323"></path>
<path d="M1.583 0.209 Q1.537 0.203 1.514 0.225" stroke="hsl(51.0,100%,35%)" stroke-width="0.00162"></path>
<path d="M1.583 0.209 Q1.460 0.192 1.400 0.249" stroke="hsl(51.0,100%,35%)" stroke-width="0.00162"></path>
<path d="M1.583 0.209 Q1.575 0.222 1.598 0.230" stroke="hsl(51.0,100%,35%)" stroke-width="0.00162"></path>
<path d="M1.583 0.209 Q1.503 0.202 1.471 0.240" stroke="hsl(51.0,100%,35%)" stroke-width="0.00162"></path>
<path d="M1.583 0.209 Q1.675 0.221 1.718 0.179" stroke="hsl(51.0,100%,35%)" stroke-width="0.00162"></path>
<path d="M1.831 0.318 Q1.241 -0.117 0.264 0.075" stroke="hsl(51.0,100%,35%)" stroke-width="0.00485"></path>
<path d="M1.831 0.318 Q1.741 0.322 1.730 0.367" stroke="hsl(51.0,100%,35%)" stroke-width="0.00485"></path>
<path d="M1.831 0.318 Q1.778 0.347 1.824 0.379" stroke="hsl(51.0,100%,35%)" stroke-width="0.00162"></path>
<path d="M1.831 0.318 Q1.472 0.311 1.380 0.485" stroke="hsl(51.0,100%,35%)" stroke-width="0.00162"></path>
<path d="M1.686 0.955 Q1.785 0.922 1.742 0.866" stroke="hsl(308.0,100%,35%)" stroke-width="0.01617"></path>
<path d="M1.686 0.955 Q1.571 0.915 1.468 0.962" stroke="hsl(308.0,100%,35%)" stroke-width="0.01941"></path>
<path d="M1.686 0.955 Q1.725 0.846 1.522 0.803" stroke="hsl(308.0,100%,35%)" stroke-width="0.00162"></path>
<path d="M1.686 0.955 Q1.648 0.898 1.528 0.904" stroke="hsl(308.0,100%,35%)" stroke-width="0.00323"></path>
<path d="M1.686 0.955 Q1.703 0.892 1.582 0.869" stroke="hsl(308.0,100%,35%)" stroke-width="0.00162"></path>
<path d="M1.686 0.955 Q1.264 0.545 0.371 0.661" stroke="hsl(308.0,100%,35%)" stroke-width="0.00162"></path>
<path d="M1.686 0.955 Q1.695 0.869 1.528 0.845" stroke="hsl(308.0,100%,35%)" stroke-width="0.00162"></path>
<path d="M1.686 0.955 Q1.676 0.904 1.574 0.898" stroke="hsl(308.0,100%,35%)" stroke-width="0.00162"></path>
<path d="M1.955 0.417 Q1.929 0.413 1.916 0.424" stroke="hsl(205.0,100%,35%)" stroke-width="0.00162"></path>
<path d="M1.955 0.417 Q1.902 0.423 1.903 0.450" stroke="hsl(205.0,100%,35%)" stroke-width="0.00323"></path>
<path d="M1.955 0.417 Q1.609 0.431 1.560 0.602" stroke="hsl(205.0,100%,35%)" stroke-width="0.00162"></path>
<path d="M1.467 0.385 Q1.344 0.418 1.380 0.485" stroke="hsl(154.0,100%,35%)" stroke-width="0.00323"></path>
<path d="M1.467 0.385 Q0.810 0.094 0.097 0.350" stroke="hsl(154.0,100%,35%)" stroke-width="0.00162"></path>
<path d="M1.467 0.385 Q1.455 0.160 1.013 0.116" stroke="hsl(154.0,100%,35%)" stroke-width="0.00162"></path>
<path d="M1.467 0.385 Q1.354 0.359 1.279 0.408" stroke="hsl(154.0,100%,35%)" stroke-width="0.00162"></path>
<path d="M1.931 0.141 Q1.370 -0.005 0.961 0.237" stroke="hsl(51.0,100%,35%)" stroke-width="0.00162"></path>
<path d="M1.931 0.141 Q1.907 0.137 1.894 0.148" stroke="hsl(51.0,100%,35%)" stroke-width="0.00485"></path>
<path d="M1.931 0.141 Q0.854 -0.016 0.311 0.475" stroke="hsl(51.0,100%,35%)" stroke-width="0.00162"></path>
<path d="M1.931 0.141 Q0.813 0.017 0.324 0.535" stroke="hsl(51.0,100%,35%)" stroke-width="0.00323"></path>
</g>
<text x="0.506" y="0.229" font-size="0.024176" fill="hsl(0.0,100%,20%)">2mesaqlain</text>
<text x="0.576" y="0.072" font-size="0.015123" fill="hsl(0.0,100%,20%)">hongchan</text>
<text x="0.732" y="0.260" font-size="0.017463" fill="hsl(0.0,100%,20%)">mjwilson</text>
<text x="0.628" y="0.326" font-size="0.018176" fill="hsl(0.0,100%,20%)">alvinji</text>
<text x="0.568" y="0.129" font-size="0.015123" fill="hsl(0.0,100%,20%)">asraine</text>
<text x="0.849" y="0.139" font-size="0.019524" fill="hsl(51.0,100%,20%)">abotella</text>
<text x="0.371" y="0.645" font-size="0.031482" fill="hsl(51.0,100%,20%)">kojii</text>
<text x="1.013" y="0.099" font-size="0.033817" fill="hsl(51.0,100%,20%)">ikilpatrick</text>
<text x="0.665" y="0.559" font-size="0.039048" fill="hsl(102.0,100%,20%)">futhark</text>
<text x="0.733" y="0.738" font-size="0.038722" fill="hsl(102.0,100%,20%)">andruud</text>
<text x="0.863" y="0.464" font-size="0.008731" fill="hsl(154.0,100%,20%)">szager</text>
<text x="0.589" y="0.458" font-size="0.010082" fill="hsl(102.0,100%,20%)">sesse</text>
<text x="0.558" y="0.817" font-size="0.018176" fill="hsl(102.0,100%,20%)">moonira</text>
<text x="0.943" y="0.754" font-size="0.019524" fill="hsl(51.0,100%,20%)">awogbemila</text>
<text x="0.859" y="0.496" font-size="0.015941" fill="hsl(154.0,100%,20%)">andypaicu</text>
<text x="1.380" y="0.467" font-size="0.035288" fill="hsl(154.0,100%,20%)">masonf</text>
<text x="0.986" y="0.506" font-size="0.012348" fill="hsl(154.0,100%,20%)">tungnh</text>
<text x="1.501" y="0.652" font-size="0.012348" fill="hsl(205.0,100%,20%)">annasato</text>
<text x="1.547" y="0.628" font-size="0.007129" fill="hsl(205.0,100%,20%)">leimy</text>
<text x="1.542" y="0.710" font-size="0.005041" fill="hsl(205.0,100%,20%)">mych</text>
<text x="1.560" y="0.598" font-size="0.008731" fill="hsl(205.0,100%,20%)">fergal</text>
<text x="1.575" y="0.613" font-size="0.005041" fill="hsl(205.0,100%,20%)">haraken</text>
<text x="0.614" y="0.966" font-size="0.012348" fill="hsl(51.0,100%,20%)">anushamuley</text>
<text x="0.689" y="0.922" font-size="0.008731" fill="hsl(51.0,100%,20%)">dylancutler</text>
<text x="0.496" y="0.950" font-size="0.008731" fill="hsl(51.0,100%,20%)">selya</text>
<text x="1.795" y="0.565" font-size="0.008731" fill="hsl(51.0,100%,20%)">cfredric</text>
<text x="1.730" y="0.351" font-size="0.030247" fill="hsl(51.0,100%,20%)">kevers</text>
<text x="1.540" y="0.334" font-size="0.028517" fill="hsl(51.0,100%,20%)">vmpstr</text>
<text x="1.318" y="0.822" font-size="0.024176" fill="hsl(51.0,100%,20%)">flackr</text>
<text x="0.633" y="0.629" font-size="0.036001" fill="hsl(102.0,100%,20%)">sakhapov</text>
<text x="1.523" y="0.048" font-size="0.035646" fill="hsl(257.0,100%,20%)">bhanjaimukund</text>
<text x="1.389" y="0.137" font-size="0.024696" fill="hsl(257.0,100%,20%)">cbiesinger</text>
<text x="1.753" y="0.068" font-size="0.024696" fill="hsl(257.0,100%,20%)">npm</text>
<text x="1.604" y="0.160" font-size="0.005041" fill="hsl(257.0,100%,20%)">ekovac</text>
<text x="0.336" y="0.943" font-size="0.013338" fill="hsl(51.0,100%,20%)">carlosil</text>
<text x="0.414" y="0.915" font-size="0.007129" fill="hsl(51.0,100%,20%)">cduvall</text>
<text x="0.284" y="0.902" font-size="0.013338" fill="hsl(51.0,100%,20%)">clamy</text>
<text x="0.178" y="0.927" font-size="0.015123" fill="hsl(51.0,100%,20%)">meacer</text>
<text x="0.337" y="0.286" font-size="0.019524" fill="hsl(102.0,100%,20%)">pdr</text>
<text x="1.077" y="0.314" font-size="0.015941" fill="hsl(154.0,100%,20%)">dizhangg</text>
<text x="1.144" y="0.365" font-size="0.021388" fill="hsl(154.0,100%,20%)">dom</text>
<text x="1.279" y="0.393" font-size="0.029824" fill="hsl(154.0,100%,20%)">jarhar</text>
<text x="0.478" y="0.362" font-size="0.012348" fill="hsl(51.0,100%,20%)">dmangal</text>
<text x="0.487" y="0.390" font-size="0.007129" fill="hsl(102.0,100%,20%)">vinaysingh</text>
<text x="0.266" y="0.407" font-size="0.025206" fill="hsl(102.0,100%,20%)">fs</text>
<text x="1.031" y="0.591" font-size="0.013338" fill="hsl(51.0,100%,20%)">kschmi</text>
<text x="1.200" y="0.486" font-size="0.016720" fill="hsl(154.0,100%,20%)">dbaron</text>
<text x="1.006" y="0.456" font-size="0.005041" fill="hsl(154.0,100%,20%)">creis</text>
<text x="1.086" y="0.512" font-size="0.011272" fill="hsl(154.0,100%,20%)">dcheng</text>
<text x="1.071" y="0.444" font-size="0.005041" fill="hsl(154.0,100%,20%)">holte</text>
<text x="1.035" y="0.437" font-size="0.005041" fill="hsl(154.0,100%,20%)">mmenke</text>
<text x="1.652" y="0.497" font-size="0.018862" fill="hsl(154.0,100%,20%)">domenic</text>
<text x="1.866" y="0.471" font-size="0.012348" fill="hsl(51.0,100%,20%)">nhiroki</text>
<text x="1.815" y="0.508" font-size="0.005041" fill="hsl(51.0,100%,20%)">weizhong</text>
<text x="1.775" y="0.480" font-size="0.005041" fill="hsl(51.0,100%,20%)">hiroshige</text>
<text x="0.324" y="0.523" font-size="0.024176" fill="hsl(51.0,100%,20%)">tkent</text>
<text x="1.650" y="0.574" font-size="0.005041" fill="hsl(154.0,100%,20%)">dsv</text>
<text x="0.598" y="0.890" font-size="0.010082" fill="hsl(51.0,100%,20%)">eainchen</text>
<text x="0.660" y="0.852" font-size="0.005041" fill="hsl(51.0,100%,20%)">lzhao</text>
<text x="0.576" y="0.902" font-size="0.007129" fill="hsl(51.0,100%,20%)">yyanagisawa</text>
<text x="0.264" y="0.065" font-size="0.020165" fill="hsl(51.0,100%,20%)">gastonr</text>
<text x="1.939" y="0.370" font-size="0.012348" fill="hsl(154.0,100%,20%)">evliu</text>
<text x="1.950" y="0.293" font-size="0.005041" fill="hsl(51.0,100%,20%)">ffred</text>
<text x="1.979" y="0.378" font-size="0.005041" fill="hsl(51.0,100%,20%)">liberato</text>
<text x="1.962" y="0.405" font-size="0.007129" fill="hsl(51.0,100%,20%)">rbyers</text>
<text x="1.908" y="0.305" font-size="0.005041" fill="hsl(51.0,100%,20%)">yrw</text>
<text x="1.770" y="0.758" font-size="0.028068" fill="hsl(308.0,100%,20%)">feng.dai</text>
<text x="1.742" y="0.852" font-size="0.027147" fill="hsl(308.0,100%,20%)">ningxin.hu</text>
<text x="1.722" y="0.639" font-size="0.020785" fill="hsl(308.0,100%,20%)">reillyg</text>
<text x="1.624" y="0.283" font-size="0.012348" fill="hsl(51.0,100%,20%)">skobes</text>
<text x="0.311" y="0.470" font-size="0.010082" fill="hsl(102.0,100%,20%)">schenney</text>
<text x="0.961" y="0.225" font-size="0.023645" fill="hsl(51.0,100%,20%)">mstensho</text>
<text x="1.344" y="0.611" font-size="0.015123" fill="hsl(51.0,100%,20%)">kbabbitt</text>
<text x="0.453" y="0.046" font-size="0.010082" fill="hsl(51.0,100%,20%)">gerchiko</text>
<text x="0.106" y="0.130" font-size="0.017463" fill="hsl(51.0,100%,20%)">mustaq</text>
<text x="0.421" y="0.039" font-size="0.007129" fill="hsl(51.0,100%,20%)">arakeri</text>
<text x="1.949" y="0.609" font-size="0.020165" fill="hsl(51.0,100%,20%)">guidou</text>
<text x="1.875" y="0.535" font-size="0.011272" fill="hsl(51.0,100%,20%)">agpalak</text>
<text x="1.922" y="0.658" font-size="0.010082" fill="hsl(51.0,100%,20%)">olka</text>
<text x="1.977" y="0.528" font-size="0.005041" fill="hsl(51.0,100%,20%)">toprice</text>
<text x="0.661" y="0.403" font-size="0.017463" fill="hsl(102.0,100%,20%)">guohuideng</text>
<text x="0.097" y="0.335" font-size="0.031076" fill="hsl(102.0,100%,20%)">nrosenthal</text>
<text x="1.732" y="0.555" font-size="0.013338" fill="hsl(51.0,100%,20%)">yoavweiss</text>
<text x="0.524" y="0.412" font-size="0.005041" fill="hsl(102.0,100%,20%)">nidhijaju</text>
<text x="0.178" y="0.699" font-size="0.028068" fill="hsl(154.0,100%,20%)">shaseley</text>
<text x="0.602" y="0.429" font-size="0.008731" fill="hsl(102.0,100%,20%)">jonathanjlee</text>
<text x="0.378" y="0.790" font-size="0.028959" fill="hsl(154.0,100%,20%)">mmocny</text>
<text x="0.844" y="0.936" font-size="0.016720" fill="hsl(154.0,100%,20%)">hchao</text>
<text x="1.128" y="0.959" font-size="0.008731" fill="hsl(51.0,100%,20%)">cthomp</text>
<text x="0.948" y="0.914" font-size="0.007129" fill="hsl(51.0,100%,20%)">ricea</text>
<text x="1.161" y="0.918" font-size="0.005041" fill="hsl(51.0,100%,20%)">caseq</text>
<text x="1.137" y="0.978" font-size="0.005041" fill="hsl(51.0,100%,20%)">igorruvinov</text>
<text x="0.883" y="0.988" font-size="0.005041" fill="hsl(51.0,100%,20%)">ortuno</text>
<text x="1.014" y="0.872" font-size="0.005041" fill="hsl(51.0,100%,20%)">ydago</text>
<text x="1.104" y="0.012" font-size="0.013338" fill="hsl(51.0,100%,20%)">dgrogan</text>
<text x="0.703" y="0.049" font-size="0.005041" fill="hsl(51.0,100%,20%)">obrufau</text>
<text x="1.027" y="0.422" font-size="0.005041" fill="hsl(154.0,100%,20%)">lwarlow</text>
<text x="1.246" y="0.692" font-size="0.027611" fill="hsl(51.0,100%,20%)">javiercon</text>
<text x="0.996" y="0.668" font-size="0.021388" fill="hsl(51.0,100%,20%)">almaher</text>
<text x="1.178" y="0.578" font-size="0.029395" fill="hsl(51.0,100%,20%)">samomekarajr</text>
<text x="0.129" y="0.576" font-size="0.020165" fill="hsl(51.0,100%,20%)">jja08111</text>
<text x="0.193" y="0.851" font-size="0.034191" fill="hsl(154.0,100%,20%)">johannes</text>
<text x="0.106" y="0.818" font-size="0.013338" fill="hsl(154.0,100%,20%)">sullivan</text>
<text x="0.272" y="0.963" font-size="0.007129" fill="hsl(154.0,100%,20%)">dtapuska</text>
<text x="1.519" y="0.289" font-size="0.005041" fill="hsl(51.0,100%,20%)">vollick</text>
<text x="1.400" y="0.245" font-size="0.007129" fill="hsl(51.0,100%,20%)">lingqi</text>
<text x="1.213" y="0.427" font-size="0.005041" fill="hsl(154.0,100%,20%)">nyquist</text>
<text x="1.495" y="0.547" font-size="0.005041" fill="hsl(154.0,100%,20%)">boliu</text>
<text x="1.598" y="0.461" font-size="0.005041" fill="hsl(154.0,100%,20%)">dtseng</text>
<text x="1.105" y="0.452" font-size="0.005041" fill="hsl(154.0,100%,20%)">twellington</text>
<text x="0.194" y="0.275" font-size="0.018862" fill="hsl(102.0,100%,20%)">foolip</text>
<text x="1.236" y="0.423" font-size="0.005041" fill="hsl(154.0,100%,20%)">japhet</text>
<text x="0.712" y="0.011" font-size="0.011272" fill="hsl(154.0,100%,20%)">antoniosartori</text>
<text x="1.424" y="0.557" font-size="0.010082" fill="hsl(51.0,100%,20%)">memmott</text>
<text x="1.457" y="0.619" font-size="0.008731" fill="hsl(51.0,100%,20%)">christinesm</text>
<text x="1.525" y="0.668" font-size="0.005041" fill="hsl(51.0,100%,20%)">ayui</text>
<text x="1.346" y="0.598" font-size="0.005041" fill="hsl(51.0,100%,20%)">dslee</text>
<text x="0.744" y="0.032" font-size="0.013338" fill="hsl(154.0,100%,20%)">mkwst</text>
<text x="0.659" y="0.018" font-size="0.005041" fill="hsl(154.0,100%,20%)">jdeblasio</text>
<text x="0.604" y="0.022" font-size="0.005041" fill="hsl(154.0,100%,20%)">arthursonzogni</text>
<text x="0.873" y="0.448" font-size="0.011272" fill="hsl(51.0,100%,20%)">msw</text>
<text x="0.772" y="0.389" font-size="0.007129" fill="hsl(51.0,100%,20%)">btriebw</text>
<text x="1.468" y="0.953" font-size="0.018176" fill="hsl(308.0,100%,20%)">phillis</text>
<text x="0.279" y="0.323" font-size="0.005041" fill="hsl(51.0,100%,20%)">bratell.d</text>
<text x="0.322" y="0.176" font-size="0.014258" fill="hsl(154.0,100%,20%)">perryuwang</text>
<text x="0.361" y="0.144" font-size="0.007129" fill="hsl(154.0,100%,20%)">wangxianzhu</text>
<text x="1.952" y="0.522" font-size="0.010082" fill="hsl(51.0,100%,20%)">philipp.hancke</text>
<text x="1.886" y="0.458" font-size="0.005041" fill="hsl(51.0,100%,20%)">eladalon</text>
<text x="1.965" y="0.490" font-size="0.005041" fill="hsl(51.0,100%,20%)">hta</text>
<text x="0.653" y="0.156" font-size="0.022545" fill="hsl(0.0,100%,20%)">punithbnayak</text>
<text x="0.496" y="0.033" font-size="0.012348" fill="hsl(102.0,100%,20%)">ragoulik</text>
<text x="0.458" y="0.018" font-size="0.005041" fill="hsl(102.0,100%,20%)">utpathak</text>
<text x="0.443" y="0.123" font-size="0.005041" fill="hsl(102.0,100%,20%)">daniec</text>
<text x="0.524" y="0.027" font-size="0.005041" fill="hsl(102.0,100%,20%)">pranavmodi</text>
<text x="0.990" y="0.333" font-size="0.012348" fill="hsl(154.0,100%,20%)">ravjit</text>
<text x="1.497" y="0.731" font-size="0.013338" fill="hsl(51.0,100%,20%)">sejalanand</text>
<text x="1.545" y="0.745" font-size="0.007129" fill="hsl(51.0,100%,20%)">drott</text>
<text x="0.059" y="0.623" font-size="0.005041" fill="hsl(154.0,100%,20%)">etiennep</text>
<text x="0.087" y="0.677" font-size="0.005041" fill="hsl(154.0,100%,20%)">dalecurtis</text>
<text x="1.583" y="0.202" font-size="0.013338" fill="hsl(51.0,100%,20%)">tnak</text>
<text x="1.514" y="0.222" font-size="0.005041" fill="hsl(51.0,100%,20%)">kenoss</text>
<text x="1.598" y="0.227" font-size="0.005041" fill="hsl(51.0,100%,20%)">rakina</text>
<text x="1.471" y="0.237" font-size="0.005041" fill="hsl(51.0,100%,20%)">taiyo</text>
<text x="1.718" y="0.177" font-size="0.005041" fill="hsl(51.0,100%,20%)">toyoshim</text>
<text x="1.337" y="0.277" font-size="0.005041" fill="hsl(51.0,100%,20%)">alexrudenko</text>
<text x="1.450" y="0.258" font-size="0.005041" fill="hsl(51.0,100%,20%)">joenotcharles</text>
<text x="1.562" y="0.448" font-size="0.005041" fill="hsl(51.0,100%,20%)">kenrb</text>
<text x="1.831" y="0.311" font-size="0.014258" fill="hsl(51.0,100%,20%)">wangsongjin</text>
<text x="1.824" y="0.377" font-size="0.005041" fill="hsl(51.0,100%,20%)">clchambers</text>
<text x="1.686" y="0.942" font-size="0.027147" fill="hsl(308.0,100%,20%)">wei4.wang</text>
<text x="1.522" y="0.801" font-size="0.005041" fill="hsl(308.0,100%,20%)">junwei.fu</text>
<text x="1.528" y="0.900" font-size="0.007129" fill="hsl(308.0,100%,20%)">ajgo</text>
<text x="1.582" y="0.867" font-size="0.005041" fill="hsl(308.0,100%,20%)">asully</text>
<text x="1.528" y="0.843" font-size="0.005041" fill="hsl(308.0,100%,20%)">yukishiino</text>
<text x="1.574" y="0.895" font-size="0.005041" fill="hsl(308.0,100%,20%)">rafael.cintron</text>
<text x="1.611" y="0.564" font-size="0.007129" fill="hsl(51.0,100%,20%)">morlovich</text>
<text x="1.955" y="0.412" font-size="0.010082" fill="hsl(205.0,100%,20%)">zeesuyeon</text>
<text x="1.916" y="0.421" font-size="0.005041" fill="hsl(205.0,100%,20%)">mamir</text>
<text x="1.903" y="0.447" font-size="0.007129" fill="hsl(205.0,100%,20%)">zino</text>
<text x="1.467" y="0.379" font-size="0.011272" fill="hsl(154.0,100%,20%)">zhoupeng.1996</text>
<text x="1.931" y="0.135" font-size="0.013338" fill="hsl(51.0,100%,20%)">zsun</text>
<text x="1.894" y="0.144" font-size="0.008731" fill="hsl(51.0,100%,20%)">rego</text>
</svg>
