<svg width="4000" height="2000" viewBox="-0.025 -0.025 2.05 1.05" xmlns="http://www.w3.org/2000/svg">
  <style>
    path {
      fill: none;
      stroke-linecap: round;
      stroke-opacity: 0.4;
    }

    text {
      text-anchor: middle;
      alignment-baseline: hanging;
    }
  </style>
  <g opacity="0.4">
<path d="M1.607 0.422 Q1.513 0.363 1.377 0.395" stroke="hsl(0.0,100%,35%)" stroke-width="0.02103"></path>
<path d="M1.607 0.422 Q1.678 0.492 1.831 0.473" stroke="hsl(0.0,100%,35%)" stroke-width="0.01683"></path>
<path d="M1.607 0.422 Q1.328 0.307 1.042 0.418" stroke="hsl(0.0,100%,35%)" stroke-width="0.00421"></path>
<path d="M1.607 0.422 Q1.549 0.465 1.620 0.503" stroke="hsl(0.0,100%,35%)" stroke-width="0.00421"></path>
<path d="M1.607 0.422 Q1.778 0.392 1.757 0.302" stroke="hsl(0.0,100%,35%)" stroke-width="0.00421"></path>
<path d="M1.377 0.395 Q1.470 0.455 1.607 0.422" stroke="hsl(0.0,100%,35%)" stroke-width="0.02945"></path>
<path d="M1.377 0.395 Q1.797 0.389 1.877 0.183" stroke="hsl(0.0,100%,35%)" stroke-width="0.00841"></path>
<path d="M1.377 0.395 Q1.412 0.498 1.620 0.503" stroke="hsl(0.0,100%,35%)" stroke-width="0.00421"></path>
<path d="M1.831 0.473 Q1.666 0.343 1.377 0.395" stroke="hsl(0.0,100%,35%)" stroke-width="0.02524"></path>
<path d="M1.831 0.473 Q1.760 0.403 1.607 0.422" stroke="hsl(0.0,100%,35%)" stroke-width="0.02103"></path>
<path d="M1.831 0.473 Q1.756 0.511 1.813 0.556" stroke="hsl(0.0,100%,35%)" stroke-width="0.00421"></path>
<path d="M1.831 0.473 Q1.701 0.446 1.620 0.503" stroke="hsl(0.0,100%,35%)" stroke-width="0.01683"></path>
<path d="M1.831 0.473 Q1.762 0.288 1.386 0.281" stroke="hsl(0.0,100%,35%)" stroke-width="0.00421"></path>
<path d="M1.042 0.418 Q1.263 0.576 1.620 0.503" stroke="hsl(60.0,100%,35%)" stroke-width="0.00421"></path>
<path d="M1.042 0.418 Q0.696 0.323 0.434 0.471" stroke="hsl(60.0,100%,35%)" stroke-width="0.00421"></path>
<path d="M1.042 0.418 Q1.078 0.307 0.868 0.265" stroke="hsl(60.0,100%,35%)" stroke-width="0.00421"></path>
<path d="M1.042 0.418 Q0.276 0.555 0.374 0.958" stroke="hsl(60.0,100%,35%)" stroke-width="0.00421"></path>
<path d="M1.042 0.418 Q1.189 0.347 1.082 0.259" stroke="hsl(60.0,100%,35%)" stroke-width="0.00421"></path>
<path d="M1.198 0.783 Q1.206 0.659 0.965 0.627" stroke="hsl(120.0,100%,35%)" stroke-width="0.00421"></path>
<path d="M1.198 0.783 Q1.136 0.510 0.589 0.480" stroke="hsl(120.0,100%,35%)" stroke-width="0.00421"></path>
<path d="M1.198 0.783 Q1.085 0.781 1.055 0.836" stroke="hsl(120.0,100%,35%)" stroke-width="0.00421"></path>
<path d="M0.965 0.627 Q0.890 0.605 0.830 0.637" stroke="hsl(120.0,100%,35%)" stroke-width="0.00421"></path>
<path d="M0.965 0.627 Q0.906 0.688 1.011 0.730" stroke="hsl(120.0,100%,35%)" stroke-width="0.00421"></path>
<path d="M0.965 0.627 Q0.997 0.661 1.070 0.652" stroke="hsl(120.0,100%,35%)" stroke-width="0.00421"></path>
<path d="M0.875 0.570 Q0.823 0.532 0.737 0.549" stroke="hsl(0.0,100%,35%)" stroke-width="0.00421"></path>
<path d="M0.875 0.570 Q1.020 0.617 1.142 0.557" stroke="hsl(0.0,100%,35%)" stroke-width="0.00421"></path>
<path d="M0.875 0.570 Q0.997 0.587 1.057 0.531" stroke="hsl(0.0,100%,35%)" stroke-width="0.00421"></path>
<path d="M1.313 0.642 Q1.639 0.476 1.386 0.281" stroke="hsl(60.0,100%,35%)" stroke-width="0.00841"></path>
<path d="M1.313 0.642 Q1.729 0.472 1.487 0.231" stroke="hsl(60.0,100%,35%)" stroke-width="0.00421"></path>
<path d="M1.313 0.642 Q1.436 0.591 1.362 0.519" stroke="hsl(60.0,100%,35%)" stroke-width="0.00841"></path>
<path d="M1.386 0.281 Q1.270 0.244 1.173 0.293" stroke="hsl(0.0,100%,35%)" stroke-width="0.01683"></path>
<path d="M1.386 0.281 Q1.523 0.227 1.449 0.149" stroke="hsl(0.0,100%,35%)" stroke-width="0.00421"></path>
<path d="M1.386 0.281 Q1.476 0.276 1.487 0.231" stroke="hsl(0.0,100%,35%)" stroke-width="0.00421"></path>
<path d="M1.302 0.918 Q1.441 0.940 1.513 0.878" stroke="hsl(120.0,100%,35%)" stroke-width="0.00841"></path>
<path d="M1.302 0.918 Q1.318 0.362 0.237 0.232" stroke="hsl(120.0,100%,35%)" stroke-width="0.00421"></path>
<path d="M1.302 0.918 Q1.583 0.352 0.540 0.092" stroke="hsl(120.0,100%,35%)" stroke-width="0.00421"></path>
<path d="M1.302 0.918 Q1.335 0.976 1.456 0.973" stroke="hsl(120.0,100%,35%)" stroke-width="0.00421"></path>
<path d="M1.513 0.878 Q1.391 0.300 0.237 0.232" stroke="hsl(120.0,100%,35%)" stroke-width="0.00421"></path>
<path d="M1.513 0.878 Q1.375 0.856 1.302 0.918" stroke="hsl(120.0,100%,35%)" stroke-width="0.01683"></path>
<path d="M1.513 0.878 Q1.562 0.799 1.419 0.758" stroke="hsl(120.0,100%,35%)" stroke-width="0.00841"></path>
<path d="M1.513 0.878 Q1.575 0.815 1.468 0.771" stroke="hsl(120.0,100%,35%)" stroke-width="0.00421"></path>
<path d="M1.513 0.878 Q1.621 0.814 1.521 0.748" stroke="hsl(120.0,100%,35%)" stroke-width="0.00841"></path>
<path d="M1.513 0.878 Q1.380 0.703 1.011 0.730" stroke="hsl(120.0,100%,35%)" stroke-width="0.00421"></path>
<path d="M1.513 0.878 Q1.469 0.795 1.299 0.799" stroke="hsl(120.0,100%,35%)" stroke-width="0.00421"></path>
<path d="M1.513 0.878 Q1.667 0.770 1.491 0.672" stroke="hsl(120.0,100%,35%)" stroke-width="0.00421"></path>
<path d="M1.513 0.878 Q1.609 0.824 1.527 0.766" stroke="hsl(120.0,100%,35%)" stroke-width="0.00421"></path>
<path d="M1.513 0.878 Q1.509 0.725 1.209 0.693" stroke="hsl(120.0,100%,35%)" stroke-width="0.00421"></path>
<path d="M1.513 0.878 Q1.447 0.800 1.282 0.816" stroke="hsl(120.0,100%,35%)" stroke-width="0.00421"></path>
<path d="M1.513 0.878 Q1.472 0.676 1.070 0.652" stroke="hsl(120.0,100%,35%)" stroke-width="0.00421"></path>
<path d="M0.540 0.092 Q0.369 0.026 0.204 0.096" stroke="hsl(120.0,100%,35%)" stroke-width="0.00841"></path>
<path d="M0.540 0.092 Q0.276 0.101 0.237 0.232" stroke="hsl(120.0,100%,35%)" stroke-width="0.01262"></path>
<path d="M0.540 0.092 Q0.433 0.203 0.627 0.279" stroke="hsl(120.0,100%,35%)" stroke-width="0.02103"></path>
<path d="M0.540 0.092 Q0.677 0.284 1.082 0.259" stroke="hsl(120.0,100%,35%)" stroke-width="0.00421"></path>
<path d="M0.540 0.092 Q0.500 0.020 0.353 0.024" stroke="hsl(120.0,100%,35%)" stroke-width="0.00421"></path>
<path d="M0.540 0.092 Q0.456 0.133 0.518 0.183" stroke="hsl(120.0,100%,35%)" stroke-width="0.01262"></path>
<path d="M0.540 0.092 Q0.077 0.645 1.055 0.992" stroke="hsl(120.0,100%,35%)" stroke-width="0.00421"></path>
<path d="M1.328 0.067 Q1.101 0.027 0.972 0.129" stroke="hsl(180.0,100%,35%)" stroke-width="0.00421"></path>
<path d="M1.328 0.067 Q1.259 0.053 1.217 0.083" stroke="hsl(180.0,100%,35%)" stroke-width="0.00421"></path>
<path d="M1.328 0.067 Q1.203 -0.009 1.028 0.036" stroke="hsl(180.0,100%,35%)" stroke-width="0.00421"></path>
<path d="M1.328 0.067 Q1.059 -0.048 0.776 0.058" stroke="hsl(180.0,100%,35%)" stroke-width="0.00421"></path>
<path d="M0.776 0.058 Q0.817 0.133 0.972 0.129" stroke="hsl(180.0,100%,35%)" stroke-width="0.01262"></path>
<path d="M0.776 0.058 Q0.920 0.097 1.028 0.036" stroke="hsl(180.0,100%,35%)" stroke-width="0.01262"></path>
<path d="M0.776 0.058 Q0.700 0.108 0.781 0.156" stroke="hsl(180.0,100%,35%)" stroke-width="0.00841"></path>
<path d="M0.434 0.471 Q1.152 0.562 1.487 0.231" stroke="hsl(60.0,100%,35%)" stroke-width="0.00421"></path>
<path d="M0.434 0.471 Q0.816 0.455 0.868 0.265" stroke="hsl(60.0,100%,35%)" stroke-width="0.01262"></path>
<path d="M0.434 0.471 Q0.780 0.566 1.042 0.418" stroke="hsl(60.0,100%,35%)" stroke-width="0.01262"></path>
<path d="M0.434 0.471 Q0.545 0.518 0.662 0.474" stroke="hsl(60.0,100%,35%)" stroke-width="0.00421"></path>
<path d="M0.434 0.471 Q0.389 0.403 0.246 0.409" stroke="hsl(60.0,100%,35%)" stroke-width="0.01262"></path>
<path d="M0.434 0.471 Q0.675 0.511 0.805 0.402" stroke="hsl(60.0,100%,35%)" stroke-width="0.00841"></path>
<path d="M0.868 0.265 Q0.833 0.376 1.042 0.418" stroke="hsl(60.0,100%,35%)" stroke-width="0.00421"></path>
<path d="M0.868 0.265 Q0.066 0.513 0.374 0.958" stroke="hsl(60.0,100%,35%)" stroke-width="0.00421"></path>
<path d="M0.868 0.265 Q0.980 0.305 1.082 0.259" stroke="hsl(60.0,100%,35%)" stroke-width="0.00421"></path>
<path d="M1.877 0.183 Q1.894 0.084 1.706 0.054" stroke="hsl(0.0,100%,35%)" stroke-width="0.00841"></path>
<path d="M1.877 0.183 Q1.457 0.189 1.377 0.395" stroke="hsl(0.0,100%,35%)" stroke-width="0.01262"></path>
<path d="M1.877 0.183 Q1.811 0.252 1.931 0.300" stroke="hsl(0.0,100%,35%)" stroke-width="0.01683"></path>
<path d="M1.877 0.183 Q1.375 0.518 1.919 0.837" stroke="hsl(0.0,100%,35%)" stroke-width="0.00421"></path>
<path d="M1.877 0.183 Q1.493 0.291 1.620 0.503" stroke="hsl(0.0,100%,35%)" stroke-width="0.00421"></path>
<path d="M1.877 0.183 Q1.752 0.147 1.654 0.200" stroke="hsl(0.0,100%,35%)" stroke-width="0.00421"></path>
<path d="M1.053 0.957 Q1.130 0.929 1.092 0.886" stroke="hsl(120.0,100%,35%)" stroke-width="0.00421"></path>
<path d="M1.053 0.957 Q1.214 0.835 1.011 0.730" stroke="hsl(120.0,100%,35%)" stroke-width="0.00421"></path>
<path d="M1.053 0.957 Q1.026 0.975 1.055 0.992" stroke="hsl(120.0,100%,35%)" stroke-width="0.00421"></path>
<path d="M0.246 0.409 Q0.147 0.509 0.320 0.579" stroke="hsl(60.0,100%,35%)" stroke-width="0.00841"></path>
<path d="M0.246 0.409 Q0.361 0.513 0.589 0.480" stroke="hsl(60.0,100%,35%)" stroke-width="0.00421"></path>
<path d="M0.246 0.409 Q0.291 0.478 0.434 0.471" stroke="hsl(60.0,100%,35%)" stroke-width="0.02103"></path>
<path d="M0.246 0.409 Q0.818 0.787 1.679 0.590" stroke="hsl(60.0,100%,35%)" stroke-width="0.00421"></path>
<path d="M0.246 0.409 Q0.823 0.629 1.377 0.395" stroke="hsl(60.0,100%,35%)" stroke-width="0.00421"></path>
<path d="M0.805 0.402 Q0.946 0.346 0.868 0.265" stroke="hsl(60.0,100%,35%)" stroke-width="0.02103"></path>
<path d="M0.805 0.402 Q0.910 0.457 1.042 0.418" stroke="hsl(60.0,100%,35%)" stroke-width="0.02524"></path>
<path d="M0.805 0.402 Q0.564 0.362 0.434 0.471" stroke="hsl(60.0,100%,35%)" stroke-width="0.01683"></path>
<path d="M0.805 0.402 Q0.420 0.393 0.320 0.579" stroke="hsl(60.0,100%,35%)" stroke-width="0.00841"></path>
<path d="M0.805 0.402 Q1.391 0.471 1.654 0.200" stroke="hsl(60.0,100%,35%)" stroke-width="0.00421"></path>
<path d="M0.690 0.707 Q0.770 0.661 0.699 0.612" stroke="hsl(240.0,100%,35%)" stroke-width="0.01262"></path>
<path d="M0.690 0.707 Q0.656 0.817 0.864 0.858" stroke="hsl(240.0,100%,35%)" stroke-width="0.00841"></path>
<path d="M0.690 0.707 Q0.549 0.845 0.788 0.945" stroke="hsl(240.0,100%,35%)" stroke-width="0.00421"></path>
<path d="M0.788 0.945 Q1.009 0.761 0.699 0.612" stroke="hsl(240.0,100%,35%)" stroke-width="0.00421"></path>
<path d="M0.788 0.945 Q0.895 0.916 0.864 0.858" stroke="hsl(240.0,100%,35%)" stroke-width="0.01262"></path>
<path d="M0.788 0.945 Q0.668 0.905 0.564 0.955" stroke="hsl(240.0,100%,35%)" stroke-width="0.00421"></path>
<path d="M1.919 0.837 Q2.097 0.452 1.386 0.281" stroke="hsl(0.0,100%,35%)" stroke-width="0.00421"></path>
<path d="M1.919 0.837 Q1.923 0.757 1.769 0.738" stroke="hsl(0.0,100%,35%)" stroke-width="0.00841"></path>
<path d="M1.919 0.837 Q1.840 0.810 1.770 0.842" stroke="hsl(0.0,100%,35%)" stroke-width="0.00421"></path>
<path d="M1.769 0.738 Q1.763 0.789 1.861 0.804" stroke="hsl(0.0,100%,35%)" stroke-width="0.00421"></path>
<path d="M1.769 0.738 Q1.714 0.646 1.523 0.652" stroke="hsl(0.0,100%,35%)" stroke-width="0.01262"></path>
<path d="M1.769 0.738 Q1.881 0.680 1.792 0.613" stroke="hsl(0.0,100%,35%)" stroke-width="0.01262"></path>
<path d="M1.769 0.738 Q1.875 0.752 1.925 0.703" stroke="hsl(0.0,100%,35%)" stroke-width="0.00841"></path>
<path d="M1.769 0.738 Q1.842 0.646 1.679 0.590" stroke="hsl(0.0,100%,35%)" stroke-width="0.00841"></path>
<path d="M1.769 0.738 Q1.601 0.522 1.142 0.557" stroke="hsl(0.0,100%,35%)" stroke-width="0.00841"></path>
<path d="M1.769 0.738 Q1.765 0.817 1.919 0.837" stroke="hsl(0.0,100%,35%)" stroke-width="0.00421"></path>
<path d="M0.558 0.806 Q0.748 0.826 0.827 0.737" stroke="hsl(120.0,100%,35%)" stroke-width="0.00421"></path>
<path d="M0.558 0.806 Q0.587 0.732 0.447 0.701" stroke="hsl(120.0,100%,35%)" stroke-width="0.00421"></path>
<path d="M0.558 0.806 Q1.075 0.980 1.527 0.766" stroke="hsl(120.0,100%,35%)" stroke-width="0.00421"></path>
<path d="M0.558 0.806 Q0.513 0.866 0.620 0.902" stroke="hsl(120.0,100%,35%)" stroke-width="0.00421"></path>
<path d="M0.558 0.806 Q0.613 0.844 0.698 0.825" stroke="hsl(120.0,100%,35%)" stroke-width="0.00421"></path>
<path d="M0.558 0.806 Q1.258 0.637 1.082 0.259" stroke="hsl(120.0,100%,35%)" stroke-width="0.00421"></path>
<path d="M0.173 0.528 Q0.115 0.513 0.074 0.539" stroke="hsl(0.0,100%,35%)" stroke-width="0.00421"></path>
<path d="M0.173 0.528 Q0.974 0.762 1.607 0.422" stroke="hsl(0.0,100%,35%)" stroke-width="0.00421"></path>
<path d="M0.173 0.528 Q0.048 0.537 0.038 0.600" stroke="hsl(0.0,100%,35%)" stroke-width="0.01262"></path>
<path d="M0.312 0.858 Q1.569 0.903 1.931 0.300" stroke="hsl(60.0,100%,35%)" stroke-width="0.00841"></path>
<path d="M0.312 0.858 Q0.263 0.921 0.374 0.958" stroke="hsl(60.0,100%,35%)" stroke-width="0.01262"></path>
<path d="M0.312 0.858 Q1.176 0.713 1.082 0.259" stroke="hsl(60.0,100%,35%)" stroke-width="0.00421"></path>
<path d="M0.922 0.521 Q0.860 0.484 0.773 0.506" stroke="hsl(300.0,100%,35%)" stroke-width="0.00841"></path>
<path d="M0.922 0.521 Q0.780 0.470 0.649 0.528" stroke="hsl(300.0,100%,35%)" stroke-width="0.00421"></path>
<path d="M0.922 0.521 Q0.865 0.412 0.641 0.416" stroke="hsl(300.0,100%,35%)" stroke-width="0.00421"></path>
</g>
<text x="1.607" y="0.399" font-size="0.047351" fill="hsl(0.0,100%,20%)">andruud</text>
<text x="1.377" y="0.372" font-size="0.047351" fill="hsl(0.0,100%,20%)">futhark</text>
<text x="1.831" y="0.451" font-size="0.043398" fill="hsl(0.0,100%,20%)">sesse</text>
<text x="1.042" y="0.399" font-size="0.037881" fill="hsl(60.0,100%,20%)">dbaron</text>
<text x="1.620" y="0.489" font-size="0.026786" fill="hsl(0.0,100%,20%)">sakhapov</text>
<text x="1.757" y="0.298" font-size="0.009470" fill="hsl(0.0,100%,20%)">blee</text>
<text x="1.198" y="0.775" font-size="0.016403" fill="hsl(120.0,100%,20%)">apaseltiner</text>
<text x="0.965" y="0.618" font-size="0.018941" fill="hsl(120.0,100%,20%)">domenic</text>
<text x="0.589" y="0.474" font-size="0.013393" fill="hsl(120.0,100%,20%)">japhet</text>
<text x="1.055" y="0.831" font-size="0.009470" fill="hsl(120.0,100%,20%)">johnidel</text>
<text x="0.875" y="0.562" font-size="0.016403" fill="hsl(0.0,100%,20%)">averge</text>
<text x="0.737" y="0.544" font-size="0.009470" fill="hsl(0.0,100%,20%)">arthursonzogni</text>
<text x="1.142" y="0.549" font-size="0.016403" fill="hsl(0.0,100%,20%)">dom</text>
<text x="1.057" y="0.526" font-size="0.009470" fill="hsl(0.0,100%,20%)">lbrady</text>
<text x="1.313" y="0.632" font-size="0.021176" fill="hsl(60.0,100%,20%)">awogbemila</text>
<text x="1.386" y="0.266" font-size="0.029948" fill="hsl(0.0,100%,20%)">kevers</text>
<text x="1.487" y="0.223" font-size="0.016403" fill="hsl(60.0,100%,20%)">flackr</text>
<text x="1.362" y="0.512" font-size="0.013393" fill="hsl(0.0,100%,20%)">skobes</text>
<text x="1.302" y="0.904" font-size="0.028411" fill="hsl(120.0,100%,20%)">cammie</text>
<text x="1.513" y="0.857" font-size="0.041280" fill="hsl(120.0,100%,20%)">yaoxia</text>
<text x="0.237" y="0.222" font-size="0.021176" fill="hsl(120.0,100%,20%)">bashi</text>
<text x="0.540" y="0.072" font-size="0.039047" fill="hsl(120.0,100%,20%)">mkwst</text>
<text x="1.456" y="0.968" font-size="0.009470" fill="hsl(120.0,100%,20%)">wanderview</text>
<text x="1.328" y="0.058" font-size="0.018941" fill="hsl(180.0,100%,20%)">celestepan</text>
<text x="0.972" y="0.119" font-size="0.018941" fill="hsl(180.0,100%,20%)">almaher</text>
<text x="1.217" y="0.079" font-size="0.009470" fill="hsl(180.0,100%,20%)">ethavar</text>
<text x="1.028" y="0.026" font-size="0.018941" fill="hsl(180.0,100%,20%)">kschmi</text>
<text x="0.776" y="0.044" font-size="0.028411" fill="hsl(180.0,100%,20%)">samomekarajr</text>
<text x="0.434" y="0.448" font-size="0.045418" fill="hsl(60.0,100%,20%)">jarhar</text>
<text x="0.868" y="0.248" font-size="0.032806" fill="hsl(60.0,100%,20%)">dizhangg</text>
<text x="0.374" y="0.948" font-size="0.021176" fill="hsl(60.0,100%,20%)">siliu</text>
<text x="1.082" y="0.249" font-size="0.021176" fill="hsl(120.0,100%,20%)">tkent</text>
<text x="0.830" y="0.632" font-size="0.009470" fill="hsl(120.0,100%,20%)">nhiroki</text>
<text x="1.011" y="0.721" font-size="0.016403" fill="hsl(120.0,100%,20%)">rakina</text>
<text x="1.070" y="0.646" font-size="0.013393" fill="hsl(120.0,100%,20%)">ricea</text>
<text x="1.877" y="0.165" font-size="0.035435" fill="hsl(0.0,100%,20%)">mstensho</text>
<text x="1.053" y="0.949" font-size="0.016403" fill="hsl(120.0,100%,20%)">horo</text>
<text x="1.092" y="0.881" font-size="0.009470" fill="hsl(120.0,100%,20%)">fergal</text>
<text x="1.055" y="0.985" font-size="0.013393" fill="hsl(120.0,100%,20%)">toyoshim</text>
<text x="0.662" y="0.469" font-size="0.009470" fill="hsl(60.0,100%,20%)">nyquist</text>
<text x="0.246" y="0.392" font-size="0.034146" fill="hsl(60.0,100%,20%)">tcaptan</text>
<text x="0.805" y="0.380" font-size="0.042352" fill="hsl(60.0,100%,20%)">masonf</text>
<text x="0.690" y="0.695" font-size="0.023197" fill="hsl(240.0,100%,20%)">junwei.fu</text>
<text x="0.699" y="0.603" font-size="0.018941" fill="hsl(240.0,100%,20%)">ningxin.hu</text>
<text x="0.864" y="0.847" font-size="0.021176" fill="hsl(240.0,100%,20%)">reillyg</text>
<text x="0.788" y="0.933" font-size="0.023197" fill="hsl(240.0,100%,20%)">phillis</text>
<text x="1.173" y="0.283" font-size="0.018941" fill="hsl(0.0,100%,20%)">mustaq</text>
<text x="1.449" y="0.144" font-size="0.009470" fill="hsl(0.0,100%,20%)">gerchiko</text>
<text x="0.320" y="0.570" font-size="0.018941" fill="hsl(60.0,100%,20%)">aleventhal</text>
<text x="1.654" y="0.194" font-size="0.013393" fill="hsl(60.0,100%,20%)">ikilpatrick</text>
<text x="0.204" y="0.089" font-size="0.013393" fill="hsl(120.0,100%,20%)">antoniosartori</text>
<text x="0.627" y="0.268" font-size="0.021176" fill="hsl(120.0,100%,20%)">clamy</text>
<text x="0.353" y="0.019" font-size="0.009470" fill="hsl(120.0,100%,20%)">kinuko</text>
<text x="0.518" y="0.175" font-size="0.016403" fill="hsl(120.0,100%,20%)">jdeblasio</text>
<text x="1.706" y="0.048" font-size="0.013393" fill="hsl(0.0,100%,20%)">wangxianzhu</text>
<text x="1.931" y="0.288" font-size="0.023197" fill="hsl(0.0,100%,20%)">kojii</text>
<text x="1.919" y="0.825" font-size="0.023197" fill="hsl(0.0,100%,20%)">vmpstr</text>
<text x="1.769" y="0.719" font-size="0.037881" fill="hsl(0.0,100%,20%)">nrosenthal</text>
<text x="1.861" y="0.799" font-size="0.009470" fill="hsl(0.0,100%,20%)">shaseley</text>
<text x="1.523" y="0.644" font-size="0.016403" fill="hsl(0.0,100%,20%)">sullivan</text>
<text x="1.792" y="0.605" font-size="0.016403" fill="hsl(0.0,100%,20%)">mmocny</text>
<text x="1.925" y="0.697" font-size="0.013393" fill="hsl(0.0,100%,20%)">iclelland</text>
<text x="1.679" y="0.582" font-size="0.016403" fill="hsl(0.0,100%,20%)">pdr</text>
<text x="0.558" y="0.795" font-size="0.023197" fill="hsl(120.0,100%,20%)">pauljensen</text>
<text x="0.827" y="0.733" font-size="0.009470" fill="hsl(120.0,100%,20%)">alexmt</text>
<text x="0.447" y="0.697" font-size="0.009470" fill="hsl(120.0,100%,20%)">victortan</text>
<text x="1.527" y="0.759" font-size="0.013393" fill="hsl(120.0,100%,20%)">morlovich</text>
<text x="0.620" y="0.897" font-size="0.009470" fill="hsl(120.0,100%,20%)">nasko</text>
<text x="0.698" y="0.820" font-size="0.009470" fill="hsl(120.0,100%,20%)">shivanisha</text>
<text x="0.564" y="0.950" font-size="0.009470" fill="hsl(240.0,100%,20%)">asully</text>
<text x="0.173" y="0.517" font-size="0.021176" fill="hsl(0.0,100%,20%)">rahsin</text>
<text x="0.074" y="0.534" font-size="0.009470" fill="hsl(0.0,100%,20%)">abhishek.shanthkumar</text>
<text x="0.038" y="0.591" font-size="0.016403" fill="hsl(0.0,100%,20%)">stevebe</text>
<text x="0.781" y="0.149" font-size="0.013393" fill="hsl(180.0,100%,20%)">kbabbitt</text>
<text x="1.813" y="0.551" font-size="0.009470" fill="hsl(0.0,100%,20%)">dsv</text>
<text x="0.312" y="0.847" font-size="0.023197" fill="hsl(60.0,100%,20%)">utpathak</text>
<text x="1.770" y="0.838" font-size="0.009470" fill="hsl(0.0,100%,20%)">khushalsagar</text>
<text x="1.419" y="0.751" font-size="0.013393" fill="hsl(120.0,100%,20%)">garykac</text>
<text x="1.468" y="0.767" font-size="0.009470" fill="hsl(120.0,100%,20%)">hidehiko</text>
<text x="1.521" y="0.741" font-size="0.013393" fill="hsl(120.0,100%,20%)">joenotcharles</text>
<text x="1.299" y="0.794" font-size="0.009470" fill="hsl(120.0,100%,20%)">ortuno</text>
<text x="1.491" y="0.667" font-size="0.009470" fill="hsl(120.0,100%,20%)">kenrb</text>
<text x="1.209" y="0.689" font-size="0.009470" fill="hsl(120.0,100%,20%)">ayui</text>
<text x="1.282" y="0.811" font-size="0.009470" fill="hsl(120.0,100%,20%)">avi</text>
<text x="0.922" y="0.512" font-size="0.018941" fill="hsl(300.0,100%,20%)">zhusida</text>
<text x="0.773" y="0.499" font-size="0.013393" fill="hsl(300.0,100%,20%)">dalecurtis</text>
<text x="0.649" y="0.523" font-size="0.009470" fill="hsl(300.0,100%,20%)">dtapuska</text>
<text x="0.641" y="0.411" font-size="0.009470" fill="hsl(300.0,100%,20%)">handellm</text>
</svg>
